<svg id="-posters-1650743357363" itemscope="" itemtype="/posters" itemid="/+/posters/1650743357363" viewBox="0 0 683 512" preserveAspectRatio="xMidYMid slice" tabindex="0" xmlns="http://www.w3.org/2000/svg">
  <style>
    @keyframes subtle-rotate {
      50% {
        transform: rotate(0.33deg)
      }
    }
    [itemprop="light"] {
      animation-timing-function: linear;
      animation-name: subtle-rotate;
      animation-duration: 3s;
      animation-direction: alternate;
      animation-iteration-count: infinite;
    }
  </style>
  <defs>
    <symbol id="-posters-1650743357363-background">
      <rect itemprop="background" width="100%" height="100%" tabindex="-1"></rect>
    </symbol>
    <symbol id="-posters-1650743357363-light">
      <path d="M0 1c-1 4 1 8 3 8l3 1-3 3c-4 1-4 25-1 25 2 0 2 0 1 1H1c-1 0-1 2 1 3l-1 1-1 12c0 11 0 12 3 14 3 4 3 5 0 2l-3-1v4c0 2 0 3 1 2h3l-2 3c-3 3-3 6 0 11 2 3 2 5-1 5a69 69 0 000 24l-1 13c0 11 0 12 2 11l2-1h1c1 1-1 4-3 4-1 0-2 1-2 5l1 6v1a14 14 0 001 13l-1 1-1 2c0 2 0 2 1 1 1-3 1-2 1 4 1 5 0 7-1 3-1-1-1 0-1 2s0 3 1 2c1-2 3 0 4 3 1 2 1 2-2 1l-3 1 2 1 3 1H2c-2 0-3 2-1 2l4 2 5 1 7 1a20 20 0 009 3l10 5 16 11c6 6 10 8 10 5l-1-1-5-5a13 13 0 00-10-7c-1-1-1-1 0 0l2-1 2-2c2 0 2 0 1-1l-2-2-2-2c-3 1-3-1 0-4l2-2v3c-1 2 0 3 2 5l3 3c0 2 3 4 5 3h1c-1 3 4 7 8 7h4l-3 2-3 1 2 1c2 0 3 1 3 2h-3l2 3 2 2v2c0 2 1 1 3-1l3-2-1 7c-2 0-2 1-1 1v3a9 9 0 01-8-5l1-2 3-2h-4c-2 1-3 1-3-1l-1-1c-2 0-2 3 0 3l1 2h-1v2c0 4-1 4-3 1l-1-2-2 3c-3 3-2 4 1 4 3-1 4 4 2 6-4 3-13 4-11 1l1-1c1 1 4-4 3-5l-1-1-3-3c-1-3 0-4 2-1h2l1-2 1-2-1-3-1-1-2-2a2 2 0 01-1-3l1-1a2 2 0 00-4 3l-1-2-3-6v-2l-2-2c-7-2-10-4-9-5 2-1 1-1-6-1l-3-1-2-1c-2 0-2 0-1-1s0-1-3-1c-3 1-4 0-6-2s-4-3-5-1l-4 1H0v13c0 12 0 12 2 12 4 0 4 1 2 3l-2 2h3c2 0 3 0 2 1l-2 1H4c-3-3-4-1-4 8v9l5-1c4-2 6-2 6 0 0 3-3 3-3 1H7l-4 1-3 1 1 1v10l3 2 3 1-3-4-1-2v-1c-1-1-1-1 1-1h2l-2-1c-2-1-2-1 0-1h5c-5 4-5 4-3 6l3 2v1l-1 1a14 14 0 009 5h2c3 0 4 1 4 2l2 1 2 1 2 2a95 95 0 0116 7l2 2 2 1 4 2 5 2a2 2 0 112 4l-4 7c1 1 3-1 3-3 0-3 3-3 6-2 3 3 5 2 5 0 0-4-1-4-3-1l-1 1c1-2 0-2-2-2s-2 0-1-1h2l5-3-4 1h-3c0-2-3-3-6-2l-2-1 1-1c2 1 3-3 2-7l1-3 1 1 1 3-1-5c-3-1 1-7 6-8l3-3 1-2v-1l-2 2c-1 1-2 3-4 3l-3 3-1 1v-6c-3-1-5-3-3-4 1-1 1-1-1-1l-3-2c-1-2-1-2 1-1l2 1-5-4v-2c0-2 1-2 2-1h1c0-4 9-4 10-1l-1 2h-2l2 1c2 0 1 2-2 3l-4 1c0 1 2 2 3 1l3-1c2 1 3 0 3-1a1 1 0 112 0l2 2 3 5c0 1 1 2 2 1 4-1 5-1 5 1s-1 3-2 2c-2 0-2 0-1 1 0 2 3 3 3 1h2v3c-2 0-3 1-3 3h2c2-2 3-2 3-1l-2 1v1l-5 1-2 1-1 4 1 2v2c-3 3-5-4-2-9v-4l-1-2h-1v2l1 3c-2 2-3 1-3-1 0-3-4-3-4 0-1 1 0 2 1 1a10 10 0 013 12l9-2h2l-3 2c-1 1-2 2-1 3 0 2-1 3-4 2v2c0 2 2 3 2 1l1-1 1 4c0 3 0 3-3 2l-3 1 3 1c2 0 2 0 1 1h-4l-1 1h-1v-4l-1-2-1 5c0 2-3 2-5 0l-6 4c-3 3-3 6 0 5h2l-1 1c-2 0-5 3-3 4v6l-4 2-2 2-1-2c0-3-3-4-4-2-1 1-4 0-4-1s5-2 7-1l2 2c0 3 1 2 1-1 1-2 1-3-2-4s-3-1-2-4a3 3 0 014-4h1v2h-1l-1 1 1 4 1 1c2 0 3-15 1-17l-1 2-1-1v-3c1-1 1-6-1-6l-1 3c1 4 0 5-3 3-1-1-3-2-4-1l-1-1c0-1-6-5-10-5l-3-1 2 2c2 2 3 2 5 2 1 0 1 1-1 3-1 1-1 1 1 1h2l4 2c5 3 3 3-3 1l-9-2c-2 0-3 0-2-2 0-3-5-8-7-7a1 1 0 110-2l1-1-4-1-5-1c-1-1-2-2-5-2H0v10l1 10 2 2H2c-2-1-2 0-2 101v103h288l-1-2-1-4c0-1-1-3-3-3-2-2-2-2 1-2 2-1 2-3 1-3s-2 0-1-1l2-1 1 1v1l1 5c0 9 0 9 8 9 6 0 8-1 8-2l1-1c5 1 3-6-1-8l-4-1-1-1h4c1 1 1 1 1-1-1-3-2-4-7-4-3 0-5-1-4-3l5 1h6c1-1 5 6 4 8l1 2c2 0 3 6 1 7v2c3 2 36 2 36-1 0-2 1-2 3-2s3 0 3 2 1 2 66 2c64 0 65 0 65-2v-1l1 2 48 1h49v-9a409 409 0 00-3-71l-1-9-1-8-1-7-1-3-1-4-1-7c-1-9-2-10-6-10-3 0-3 0-3 4l-1 4-1 4-1-8v-12h-8v-8h4c7 0 5-3-2-3-6-1-8-3-2-4l3-1v-16h-3c-7 0-8-3-8-18v-14h-3c-2 0-3 0-4-5l-2-5c-3-1-5-7-4-8h3l2 2c1-1 1 0 2 1l2 3 1 6c0 3 0 3 1 2l2-4 2-3c2 0 2 0-1-1l-6-5c-3-2-3-3-1-2l2 2 1 1c1 0 0-2-2-3l-3-5 1 1 2 1v-1c-2-1-3-2-9-1l-6-1-2-2-2-3c0-2-2-3-6 0-3 1-6 1-3-1 1-1 1-1-1-1l-4 2-4 1-3 2-3 1-4 2-4 2c-6 0-14 3-16 6-9 11-23 22-32 25h-13l5-1c3 0 12-3 16-6l4-2 10-8 9-8h-7l-7 2h-4l-4-1c-2 2-26-10-25-13l-1-1-2-1c0-2 3-1 3 1l5 5-1-4-1-4 2 2c2 6 13 14 21 14 4 0 4 0 3-1-2-2-2-2 2-2l5-1-2-2-2-2h6l7-5 5-4c1 0 2-5 1-6a3 3 0 00-4 0c1 1-10 2-11 2l4-2c9-3 7-4-3-4l-6-1v-1c3 0-5-3-8-3-2 0-3 0-2-1v-3c-1-2-2-2-5 0-3 1-4 4-1 3 1-1 2 0 2 1 1 1-3 2-3 0-1-1-2-1-5 1-2 1-3 3-2 3v3l-1 3v-3l-1-3c-2 0-3 3-3 6 0 2 0 2-1 1-2-1-2-1-2 2l-1 3 1-8 1-7c0-4 0-5 1-4v4l1 2c1 0 3-2 3-5s0-3 1-1l1 3c2 0 6-3 6-4l2-2c2-1 2-1 1-3-2-1-2-1 1-1l5 1c1 1 3-1 2-3 0-1-1-1-2 1-1 1-1 1-1-4v-5h-3a5 5 0 00-6 2c1-1 0-2-2-2l-2 1a2 2 0 01-2 2c0-2-1-1-4 1-2 2-2 2-3-2-1-2-2-5-4-6l-2-5c0-2-2-2-3-1l-1 8-1 7c-2 1-2 1-1-2l-1-5h-2a2 2 0 01-4 0v-2l-2 3c-1 6-2 4-2-4a13 13 0 00-3-12h-2c-1 0-2 0-2-2a11 11 0 010-9l2-5 3-4-2-3c-2-3-2-3-1-7l1-7v-1l2 6 2 7c1 1 1 1 1-4l-1-6 2 5v22c1-1 2-3 1-4h1l1 4v4c1 1 1 1 1-1v-3h2c0 2 2 1 2-2l-1-3c-1 1-1 0 0 0l-1-2v-2l-1-2-2-4v-11c1 0 1-2-1-5l-4-11c-1-5-3-9-4-9s-2-4-1-10l-1-4v3c1 5-4 0-8-7l-7-10-3-3-1-4c-2-5-4-6-3-2 1 2-11-9-18-17l-5-3c-2-1-2-1 0-1s2 0-1-2l-3-3-2-1c-2 1-2 1 0-2v-3l2 1 3 1 2-1-1-1c-2 0-3-2-2-4 1-3 2-2 1 0 0 2 0 2 2 2 3-1 6 1 6 4-1 1 0 2 2 2 1 1 2 1 1 2-1 2 3 5 6 6 2 0 2 0 2-2-1-2 1-5 3-5v2c1 0 2 0 1 1l-1 1a2 2 0 100 3h1l-1 1-2 1c-1-1-1-1 0 0h-4l2 2c5 6 11 8 11 4l1-4a2 2 0 000-4c1-1 0-2-1-3l-2-2 2-1h3l1-1 3-1c2 0 2 0 1 2l-3 1c-1 0-2 2-1 4l2-1 2-2v2c0 2-1 3-2 3l-2 3-1 3-1 2-1 3v4a3 3 0 004 2c1 1 1 1 1-1h2l1-1 1-1c1 0 2 1 1 5-2 7 5 11 8 5l2-2-2 4-1 4h-3l-3-1c-1 1 1 6 2 6 2 0 2 1 1 3v4l2-3c1-3 3-4 3-2l-1 1c-1 1 1 9 2 10v1a1 1 0 101 3h1l-1 2 2 1c4-1 7 4 3 6-2 1-2 1 2 11 2 3 4 4 5 2h1l-2 2c-2 1-3 3 0 3 6 1 9 0 9-1l-2-1c-2-1-2-1 0-1 4 0 7-2 7-4l-4-1-1-2c0-1 1-2 3-2 4 0 4 0 3-2v-3l-1-1-2 3c0 2 0 2-2-1l-2-3-1 2c-1 2-1 3 1 4v1l-2-1-2-1c-2 1-3 0-3-1l-2-2-2-2h2c2 3 7 4 7 2s-1-2-3-2c-3 0-3 0 1-1h9c2 0 2 0 2-2l1-2 1 3v9l2 2h1l-4 2v-2l-1-1c-1 1 0 4 2 4v3a25 25 0 01-12 10l4 1c4 0 7 1 3 1v1a8 8 0 005 0c-2 0-2-1-1-2v-4c-1-4-1-4 2-6l16-2 13-1c1-3 3-1 2 3 0 6-2 9-2 7s-2-3-2-1v1l-1 2c-2 1-3 4-1 5l2-1c1-1 1-1 1 1v3c1 1 1 0 0 0 0-2 0-2 1-1 3 0 3 3 1 3l-3 1-2-1h-1l-1 1v-2l-1-3-1 2c-1 1-1 1-1-1l-1-3c-1 0-2 3-1 4 1 2 0 4-3 4-2 0-3 1-3 2 1 1-2 1-4-2-1-1-1-1-1 1 1 3 1 3-1 2s-2-1-2 1c1 2-4 3-5 1-1-3-6-3-6 0l-1 1h-2c-1 1-1 0-1-2l-1-3v3l-1 2h-1l2 2v2l1 2 1 2 1 1 1 1 1 4c2 3 2 4 0 5-1 2-1 3 1 3l1 1 2 1 1 1h2v-3l2-1-2-1-2-1 3-1c2 1 3 1 3-1l3-2v1l-2 2c0 1 9 7 11 7v-2h8l1-1 4 1h2l2 1c1-1 8 5 8 7l2 1c2 0 2 0 1 1l-2 4h1l2-1v-2c1-1 2 0 3 1 2 2 7 3 7 2l-3-2c-3-2-3-2-1-2l3 1 2 2c1 3 1 3-3 2a2 2 0 100 4c11-4 21-3 26 4 2 2 5 3 5 1 1-1 1 0 1 1 0 2 0 3 4 4l4 4h-1l-2-1 2 3 4 3c2 0 6 3 5 4v1l4 1v-1c-1-1-1-1 1-1s4 2 2 2c-2 1 7 9 10 9l3 2 3 1c2 0 3 2 2 2-2 2-1 3 1 3l4 1 2 1v-1c-4-2-5-4-4-4h1l3 2 2 1 3 4c2 3 2 4 1 4-3 0-2 2 3 7l14 12 4 5h-1l-1-1c-1 0 0 3 2 5l3 6 1 2 1 3v1c2-3 0-7-4-12v-2l1 1 2 3 3 5c2 3 2 3 3-1 0-1 1-1 3 1l1 2v1l-1 1c-2 0-3 2-2 2l3-1a2 2 0 111 2c-3 1-3 1-1 2l2 2 1 2v3c1-1 3 0 4 2l1 3-2-2-2-1c-1 1 1 4 4 4l2 2-2 1c-1 0-2 0-2 2v2l1-2c1-2 1-2 2 0 0 2 3 3 7 4l3 2 2 4 2 9v2l-1-3v3a23 23 0 000 8l1 2v-7c2 0 2 1 2 4s0 4-2 4v7l-1 2c0 2 0 2 1 1h1l-1 2-1 2c2 2 3 0 3-6 0-7 1-9 1-3 0 7 0 7 2 8v1c-2 0-1 9 2 23 2 6 4 17 4 25l4 21 1 10v4h-1l1 2 1 2v1l1 1 1 5 1 3h39V335l-1-176-2-2c-1-2-1-2 1-2 2 1 2 0 2-18l-1-19v3c0 4-2 5-6 2-3-2-3-4-1-5l2-2c0-2 0-2 1-1a3 3 0 004 0V91h-1l1-1 1-6c0-5 0-5-1-1s-2 2-2-3l-1-3v-8l1-1c3 0 3-2 3-15V42h-2c-2 1-3 0-2-1h2c2 0 2 0 1-1v-2l1-7c0-4 0-6-1-5a7 7 0 01-4 3 3 3 0 00-1-5h2c2 0 3 0 3-2a31 31 0 000-15l1-3V0h-20c-17 0-20 0-21 2h-2a136 136 0 00-41-1l-26-1a147 147 0 00-29 1h-6c1 1-3 6-5 6-2 1-2 1-1-1V5c-1 0-2-1-1-2 0-2 1-2 3-2h3l-3-1-4 2-3 1-2-1c1-2-3-2-27-2-25 0-28 0-28 2v1l-1-1c0-2-4-2-4 0h-2V1l-7-1h-8l-1 3 1 4 1-2c-1-2 0-3 2-1h1c1-2 5-1 6 1v2l-1 1c1 1-3 6-5 6a2 2 0 00-1 2c0-2 2 0 2 2s0 2-1 1h-1c0 2-2 1-3-1l-1-1 2 4c1 3 1 4-3 4-6 1-8-1-2-2 3 0 4-1 2-2h-4l-4-1 1-1 2-3-1-4-1 1c0 3-2-1-2-5l-2-5v1l-1 1-1-2 1-3h-14l-15 1h-6l-15-1c-15 0-16 0-16 2s-7 9-8 8l3-4 4-4a3 3 0 00-6-1c0-2-11-1-11 1h-1c-2-2-12-3-10-1 1 3-2 6-4 4l-4-2c-2-1-2-1-1-2s0-1-2-1c-3 0-4 1-7 4a4 4 0 01-6 2l-1-1 3-1 4-2c1-2 1-2-4-2l-5 1h-1c-2-2-3-1-3 1l2 2 1 3c-1 2-2 2-4-1l-2-3V2l1-1-14-1c-8 0-13 0-12 1l-1 1v1l-1 1-1 2-2-2-1-4h-8c-6 0-7 0-8 2 0 2-1 2-2 1h-4l1-2c1-1 0-1-1-1l-2 1-3 1c-2 0-2 0-1-1s-3-1-12-1a37 37 0 00-15 1c1-1 0-1-2-1s-2 0-1 2l-1 2-1-3c0-2-3-1-3 1h-1c0-2-1-2-11-2-11 0-11 0-10 2l-1 2-3-1c-1 0-1-1 1-1 1-2 1-2-5-1l1 1v1l-2-1a6 6 0 00-9 1l-2 2c0 1-1 1-4-1h-2l-2 1 1-2c2-2 2-2 3 0h3l2-2c1-1-4-1-11-1-13 0-13 0-13 3l2 4c2 1 2 2 1 3-1 3-3 3-3 0l-2-4v1l-1 2-1-4V1l-4-1c-5 0-5 0-5 3v4l-1-4-1-3H98C76 0 64 0 65 1l-1 1c-1 0-2 0-1-1l-3-1c-2 0-3 1-3 2a1 1 0 11-2-1L28 0 0 1m106 2l-4 3h-2c-3-1-3 10 1 11l1-1v-1l1 2 2 2 1 4-1 3-1-1h-1l2 2 1 1 2 1 1 1 1 1 3 2c1 1 2 1 7-1v1c-2 3-1 4 2 1 2-2 2-2 2 0l2 2 2 1h-3c-3 0-4 1-3 5 0 2-2 1-2-1l-3-2c-2 0-2 0-2-2l-1-2-3-2-4-2-4-2h-2l1 2h1c1 2-2 5-5 4h-2l2 2 4 2 3 3h3l2-1-1 3c-2 1-2 3 1 3 1-1 10 6 10 8l1 1h3l-1 1c-1-1-1 0-1 1 0 2 0 2 3 0l2-4c0-1 3-3 6-3l2-2h5c-1-2 0-3 2-5l2-3c-2 1-4-3-2-5 2-3-2-13-5-12-2 0-1 2 1 2l1 2h-2c-1-1-1-1-1 2 1 3 1 3-3 2-2 0-3-1-1-1s2 0 1-2v-2c3-2 4-6 3-8l-1-6-1-3-3 2 1-2c1-3 1-3-1-3s-2 0-1 1c0 0-1 2-5 3-5 2-8 3-5 0a1 1 0 10-2-1l-2 1h-2c-3 3-5 2-5-1 0-2 1-3 2-2l1-1c1-2-2-3-4-1h-3c-1-1-1-1 1-1s6-2 4-3l-4 1m120-1l-1 3c1 1 0 2-1 2s-2 2 0 2h2c3 1 2 3-1 3-3 1-4 3-2 3l1-1h2l2-1c1 0 2-1 2-3l1-4V5l-2-2c0-2-1-2-3-1m35 1c1 1 0 3-1 4v2c0 2-2 1-3 0-2-2-2-1-2 1v8l1-1c-1-1 3-3 4-2l1-3 1-6c2-1 2-2 0-4-1-1-1-1-1 1m372 0l-2 2c-2 2-1 3 1 2l4 1-1 1-2 1-1 1-2 2v2h3l1-2 3-1c2 1 3 0 1-1s0-3 2-3c4 0 3-4-1-6-4-1-5-1-6 1M161 6v5c0 1 0 2 2 1a1 1 0 110 2l-2 1h1c2 0 2 0 1 2h1a8 8 0 0110 3l-1-13v4c1 6 0 6-1 2-1-3-1-3-1-1 0 3 0 3-2 1-4-2-4-4-3-6 1-1 1-1-1-1-1 1-3 0-4-1v1m373 4c-2 2-2 2-1 3l3 2a4 4 0 007-3l1-1h-2l-3-1 2-1 1-1c0-2-5-1-8 2m-183 0l-1 3-1 2-2 2 1 2 1 1-2 1c-2-1-3 0-1 1 3 2 8-2 7-4l-1 1h-2c-2-1-2-1 0-3l3-4c0-3-1-5-2-2M34 12c-1 1-1 1 1 1l3 2h-2c-2 0-2 0-1 1a4 4 0 006 1l1 2h2l-1-3-2-2 2 1c2 0 2 0 2-2 0-1 0-2-1-1l-2-1c-2-1-7-1-8 1m47-1c-1 1-2 2-3 1l-2-1 1 2c2 2 2 2-2 1h-3l3 3c2 2 3 3 1 2h-3a1 1 0 11-1-1v-1c-2-2-7-2-9-1l-2 1-2 1 2 1 1 1v3l1 11c0 9 2 10 4 3 0-4 8-5 8-2l-1 1h-2l-3 7 3 1 6 2c3 0 3 0 4 5 1 9 1 9-3 10a3 3 0 01-4-2c-1 1 1 4 3 4s3 1 4 3l1 3v-3c-1-4 1-6 3-5l2-1-1-2c-2 0-3-4-2-9v-7c-1-1-1-1 1-1v-1h-6l-3-1c-4-1-2-3 3-3s8-1 8-2h-2c-2 0-3-1-2-6 0-2-3-4-4-2v1l3 1-1 1h-2l2 4-2 1-5-2c1 0 1-1-1-2-2-2-2-2 0-2 5 3 7 2 3-1-2-2-3-3 0-3l2-2c1-2 1-2 5 2l5 4c0-2-2-5-5-8l-2-3h2v-2c2-3-1-6-3-4m189 3c1 1 0 2-1 1-2 0-4 2-2 4l1-1c0-2 2-1 2 1l-2 3-2 3-1 3c-2 1-2 5 0 5 1 0 3-3 3-6 1-4 2-4 2 0l-2 5v1l2 2c1 3 2 2 7-5 3-5 3-5 2-7-2-2-2-2-1 2 0 3 0 3-1 2l-2-4-1-1-1-4-2-4h-1m-120 1v5c-1 0-1 1 1 1l2 3h-2l4 4 1-1 3-5c3-3 4-5 2-5l-1-1c0-2-1-2-4-1h-6m364 4l3 7 2-1c1-2 2-2 3-1h1l1-1c2 0 1 2-1 4-1 1-4 1-9-1l-2 1 2 1a7 7 0 015 6l-1-1c-1-1-1 0-1 1 1 4 0 6-2 4-2-1-2-1 0-3v-2c-1-2-1-2-3-1-1 2-5 0-5-3l-1 1c-2 2-2 6 0 6 1 1 0 3-3 4-1 1-1 1 1 1 1-1 2 0 4 3l1 4 1-3c1-3 3-4 3-1 0 2 2 3 3 0h1l1 1c1-1 2 0 2 2s-1 3-3 3c-2-1-3 0-1 2l2-1h1c2 0 8-11 8-13-1-1 0-2 1-4l2-3h-2l-1-1-1 2-1 1-2 1-2-2c-2-3-2-3 0-2h2c0-2 1-2 3-1l3-1v-1l-1-1-3-3c0-2-6-6-6-4l-2 2c-2 1-2 1-2-1 1-3 0-4-1-1m32-1l-2 6v3l2-1c3-2 3-2 3 0v2l1-1 2-1 1 1-1 1v1h3l1 1 1 1-1-4c-5-10-7-11-10-9m-369 3c0 2 8 8 9 7h5c4 2 5 2 3-1v-5c0-2 0-2-1 0s-3 3-4 1h-1l1 2 1 1c0 1-5-1-6-3s-7-3-7-2m-7 1l1 3v16c-2 2-9 1-11-1v-3c1 0 2-1 2-3l2-4c0-2 0-2-2-2l-2 1-2 1-3 2c-2 2-5 2-3 0s1-3-2-2-3 2 0 8c1 2 2 3 3 2v-1l1-1v3c0 3 1 4 3 2 0-2 2 2 2 5 0 2-2 3-4 1-1-2-3-3-3-1 1 1 0 4-2 4l-1 1-4 2-3 3h-3c-1-1-1-1-1 1l-1 4c-3 0-2 1 1 2h5c2 1 3 1 5-1 1-2 3-2 3-1h2l1 1 2 2 1 2c0 2 1 2 4 2 4 0 7-3 4-3l-2-1h3c3 0 4-2 3-8 0-3-1-4-1-2-1 1-1 1-1-1l-1-5v-4c2-1 2-1 2 1 0 1 1 2 3 1 3 0 5 2 3 3-1 0-1 1 1 2l2 1h3c1 1 1 1 1-1v-1l2 1 1 1c2 0 1-2-2-5-4-4-5-6-3-8l1 1 1 2v-7c-2-3-2-3 0-2l2-1-1-1v-2c0-2 0-2-2-2h-1c0-2 0-2-2-2s-2 0-2 2l-1 1c-1 0-2-4-1-8l-1-1-2 1m110 7l-4 4-1 3h2l4-1 3-2h2l-2-5-3-3-1 4m253 1c0 1 1 2 2 1l1 1-3 1c-2 0-5 4-3 5l1-1c1-2 4-3 5-1l-1 1h-1l-2 1c-3 3-3 3 1 3h3l-2 2-3 1 2 1v2c-2 2-1 5 1 3h3v-1l-1-1 1-1v-5l2-4c1-2 1-2-1-3l-1-3c0-2-1-3-2-3l-2 1m-60 2v5c1 1 1 2-1 4-2 3-2 4-1 4l1-2h1v1h1l2 1 2-1c2-3 2-4 1-4-2-1-1-3 1-4l1-1h-2v-2c2-2 2-3 1-3l-1 2c0 2-3 1-4-1-1-1-1-1-2 1m79 2l1 2 1 1c0 1-1 2-4 1-3 0-3 0-3 2s2 3 2 1h2c1 0 1 1-1 1l-3 2-3 2-3 3-1 2a1 1 0 000 2c3-1 4 0 3 2h-4c0 2 0 2-2 1h-1c1 2 1 2-2 2l-3 1v1l1 2-1 2-1-2-2 1c-2 0-3 2-3 3l-1 1v1c2 3 15-4 14-8h1c1 1 2 1 5-3l4-5 2-3a43 43 0 008-13 1 1 0 000-2c0 2-2 1-2-1-1-3-4-3-4 1m-65 3v4c2 3 1 12-1 12v1l1 1h1l-1 1c-2 1-2 1-1 2 2 0 3 3 0 5h-2l-2-1-1 1v3c1-1 2 0 2 1h1l1-2v2h2l1-6 1-4 1 2 1 1c2-1 3 2 1 3-1 1-1 2 1 3 3 1 4 0 4-2l1-1 1-1 1-1c3 1 4-1 3-3h-1l-2 2h-1l-1 1v-1l-1-1c-3 1-2-1 0-2s1-1-1-1l-1-1 2-1 2-1v-1l1 1 2 1c3-1 3-4 0-4l-4 1-2 1h-1c0 2-1 5-3 5s-2-2 0-3c2-2 2-2 1-3-2 0-3-2 0-2l1-1c0-1 1-1 2 1h2l2-1c2 0 2 0 1-1l-1-3-2-2c-2 0-2 0-1-2v-3c-1-1-1-1-1 1s0 3-2 2c-2 0-2 0-1 1 3 2 3 4 0 3-2 0-2 0-2 2l-1 3-1-3 1-3 1-1v-4l-2-2c-2-1-2-1-2 1m-246 0l-2 3c0 2 0 2-2 1-1-2-1-2-1 0l1 2 1 4v3l1-3c0-2 1-3 3-1 1 1 1 1 1-1l1-2v-6h-3m349 6v3h-2l-2 3c-1 1-2 2-1 3 0 3 1 2 4-2l4-4v-3c-1-2-3-2-3 0M63 46l-1 2 1 1c2 1 2 2 2 3-1 4 1 4 5 0 3-3 4-5 2-5l-2 3c-2 3-3 3-2 0l-1-2-2-2h-2m420 0v2l-2 2-1-1c1-2-4-1-6 1v5l1-2c0-2 1-3 3 0h2l1 1-3 2-2 1c0 2 0 2 3 2l4-1 1-6c0-7 0-8-1-6M34 48v3c1 1-3 1-8-1-4-2-10-2-10-1l2 1 4 1 2 1 5 1c2 1 5 2 6 1l1 1c-1 1 0 1 10 3 5 0 6 1 6 3s0 2 2 1l1-1h2v-5c-1-2-3-3-2 0l-4 1-9-2c-3 0-5-1-5-2l-1-3v-3l-2 1m118 4v4l-1 2c-2 2-1 3 1 2l3-1c2-1 3-6 1-8-1-2-3-1-4 1m278 4c2 2-2 5-4 3-2-1-2-1-2 1l-2 2-1 2c0 3-1 5-2 4l1 2 2 3 1 1 1-2 2-1 2 2 1 1a2 2 0 01-1 3l-1-2h-1c1 1 0 2-1 3-3 2-3 3 0 2l3-1-1 2-2 1 1 1c2-1 2 10 0 13-3 5 0 9 3 5l3-2a4 4 0 002-7l-1-1v-5 1c0 3 2 5 3 2l1-2 2-4a5 5 0 002-4l1-3-1-2-1 1h-1v-1h4c1 1 1 1 1-1l-2-1c-2 0-3-2-1-2a2 2 0 00-1-3v-1l1-3-1 1-1 1-2 2-2 5-1-1 2-3-2-2c-2-1-2-1-1-2h2c1 1 1 1 1-1l-1-2-1 1-1 1c-2 0-1-3 1-3 1-1 1-3-1-4h-3c-1-1-1-1 0 0m81 5v6c-1 1-2 2-1 3 0 2 0 2-2 2-1-1-2 0-3 1v2l2-1 2-1c1 1 2 0 3-1h1v-2c0-2 2-3 2 0 1 2 2 1 2-3 1-3 0-4-1-4l-1-1c-1-2-4-2-4-1m-323 2v6c-1 1-2 6 0 6h1v-2c3-3 4-7 3-10-2-2-2-3-4 0m23 3v6c0 2 4 3 5 1l-1-1v-5l-1-3c-1-3-3-2-3 2m169-1c-3 3-2 4 1 5 2 0 3 1 3 2 1 1 1-1 1-3-1-6-2-7-5-4m19-1c1 1 1 1-1 1v5l-1 5-1 4v2l-3 1c-4-1-6 0-6 4 0 3-2 3-3 0l-2-1-1-2-1-2v-1l2-1h-3l-3-1-1-1-1 4c1 4 0 5-1 6l-2 3c1 1 2 1 3-1h3l1-4a12 12 0 01-2 11l2 1c1-1 1 0 1 2l-1 2-1-1h-1c-2 2-1 3 2 3 4-1 6-2 4-4v-2l1-2 1-2 1 2c0 2 0 3 2 2 2 0 2 0 1-1l-2-2 1-2 2 1c1 1 1 1 1-2v-3l1-2 1-3v2c0 1 3 2 3 0 1-1 1 0 1 1-1 4 1 4 1 0l3-2c1 1 1 0 1-1 0-2 4-6 5-5 2 1 1 2-2 5a2 2 0 000 3l-3 1c-2 0-2 0-1 2v2l1 1c2 0 2 0 1-2l-1-2 2 1c1 2 4-1 5-4 0-3 1-3 5 0l-2 1-2 1v9l1 6v4l1-4c1-4 4-9 5-8l1-2c0-2 4-6 5-5l2 1-1-3-2-3v-2l-1 2c0 3-3 6-5 4-1-2-2-5 0-4l3-4v-7l-5-2-3-1h-2c-1-1-1-1-2 1-1 4-4 3-4-2l-3-4v1m-36 3c-1 1-1 1 1 1s2 0 1 1l-1 3c1 2 0 4-2 5-4 0-3 2 2 2 4 0 5-1 2-3v-1l2 1c1 2 3 1 3-1 0-6-4-10-8-8m259 3l-5 4c-2 0-4 2-4 3 0 2 1 1 4-1 2-2 4-3 4 0l1 1 1-4 2-3c1 0 1-1-1-1-1-1-2 0-2 1m-375 0c1 1 0 3-1 5-2 6-1 12 2 7 1-1 1-1 1 1-1 2 0 3 1 3 1-1 4 3 4 4v7a18 18 0 012 7h2c1 1 1 1 0 0v-7h3a1 1 0 110 2l-1 2 1 2 1 2c0 2 0 2 1 1 1-2 2 0 1 4l2 5c1 1 1 0 1-4 0-8 4-12 6-6l-1 4-2 3h1l2-1 2-1c2-3 2-2 1 1 0 2-1 3-2 3-1-1-2 0-1 1 0 2 4 2 5 0l3-4c2-2 4-2 2 1-2 2-1 2 2 0s4-6 1-6a2 2 0 01-1-3l1 1 1 1-1-2c-3-3-4-4-4-1h-1l-2-2-1-1-3-6a11 11 0 01-4-6v-1l-1-1-1 2c0 2-2 2-4 1l-2-4h-4l-2-1-1-1c1-1 0-2-1-3l-1-1 3 2 3 1-2-3-1-2-1-1-2-1h-2c-2 1-4 0-2-1a2 2 0 00-3-3m78 3l-2 1c-2 0-2 1-1 5 0 1 1 2 3 2h2l-2-2c-3-2-3-3 1-3a2 2 0 10-1-3m107 1c1 2 0 6-1 10-2 3-2 7-1 7l1-1c-2-2 2-7 4-6 2 0 6-5 5-7l-1 1-1 1-1-1v-4a1 1 0 10-2 0h-1l-2-2v2m231 2c-1 1-1 1 1 1 1 0 2 0 2 2s0 2-1 1c-3-4-11 1-9 6 0 2 2 1 2 0a2 2 0 013-1l-1 8 3 5-1-1h-2l-2 2 1 1c2-2 1 1-1 2s-2 4 0 4l1-1c-1-1 0-2 1-3 3 0 4 1 1 3-1 2-1 2 1 3 3 2 6 3 6 1h4c1-1 1-2-1-3-1-1-1-2 1-2 0 1 1 1 0 0l2-1 2-1 1-2v-1l-1-1c-1 1-3-2-2-2l-1-3c0-2 0-2-1-1s-1 1-1-2c1-2 1-3-1-2l-2-1c0-3-2-2-3 0l-1 2v-3l1-1h3l3 1c1-1-1-7-3-8v-2c0-3-3-3-5 0M77 83l-2 3 1 2c0 1 0 2 4 2 7 0 9-3 5-6-4-4-5-4-8-1m282 0l-1 3v3l-1 1-1-3c0-2-3-5-4-4-2 4-2 10 1 10 4 1 4 1 4-1h2c1 1 5-1 5-3l-2 1-2 2V82c-1-1-1 0-1 1m-158 1v2h-1c-2-3-5-2-5 1-1 1 0 2 1 2v6l-2 2v1l1 3c0 2 0 2 2 1h1c0 4 2 2 2-3l-1-5v-4c-2 0-1-2 1-2l2 3 1 2 1-2c2-1 2-2 1-2l-1-1c1-1-1-5-2-5l-1 1m118 0l-4 2 1 1c2 1 3 3 1 5-2 1-1 2 2 2 2-1 3-4 3-7 0-4-2-4-3-3m224 2l-4 4-2 4-1 3 1-3c1-5 1-5-7-3-9 4-14 8-12 11l1-2c0-2 1-2 6 3l5 7-3-2c-3-4-4-3-2 1 3 4 3 5-1 5-5-1-5 1-1 2l3 1c0 2 2 1 2-2l2-3a8 8 0 006-8l-1-2v-1l2-4 3-3c2 1 2 0 2-1h1l1 2 1-2c2-5 2-6 0-4a1 1 0 11-1-1l3-2h4c2 1 2 1 1-1-2-3-2-2-9 1m-248 1l-4 2a4 4 0 106 2c0-1-1-1-2 1l-2 1 2-4 2-4-2 2m33-2c-2 1 3 8 6 8l1 1h2c2 0 2 0 0-2-1-1-2-3-1-4h1l2 2-1-2c-2-4-3-4-4-1 0 2 0 2-3 0-1-2-3-3-3-2m111 1l-2 5-1 6c0 1-1 2-3 2-4 2-8 11-5 11 1 0 2 1 2 3-1 2 1 7 2 7l3-2c2-2 2-5-1-4l-2-1c0-1 1-2 2-1v-1h4c1-2 0-3-2-2-1 0-2 0-2-2h1l2 1c1-1 7 1 7 3v3c1 3 2 2 3-1v-5l-2-2h-1l-2 1 1-2v-2l-2-1c0-2-4-1-5 1-3 4-2 1 0-3l2-4h1l4-1 2-1-1 2c-1 1-1 1 1 1h2c-1-1 0-2 1-2l1-2 2-1c1 0 2 0 1-1 0-3-6-2-6 0a1 1 0 11-3 1c1-6-2-11-4-6m195 2v3l-1 2-1 1-1 1 2 1 2 1a2 2 0 103-2l1-2 3-3c0-2-3-3-4-2 0 1-1 1-1-1-2-3-4-3-3 1m-308 5c0 4 2 6 7 5 3-1 3-1 1-2l-4-3c-3-3-4-3-4 0m278 2h-1c0-2-3-1-4 1l-3 1h-1l4 2c2 1 2 1 1 5l1 3h1c1 1 5-1 6-3h-1l-2 2v-7c2 1 3 0 1-2v-2c2 0 1-2 0-2l-2 2m-379 1c-1 1-1 2-2 1-2 0-2 1-1 6l3 3c1 0 2 1 1 2l1 1 2-2 2 2a2 2 0 104 0v-1l2 1c1 6 9 9 9 3-1-4-3-6-5-4-2 1-4 0-4-2 1-2 0-2-3-2l-2-1h1c3 1 1-2-2-5-5-4-6-4-6-2m97 1l-1 2-2 1h-3l-5-1-3-1a2 2 0 00-3 1l-3 1-3 1-3 1-3 3c-2 3-1 3 2 0 5-5 12-5 16 0 3 3 3 3 4 2 0-2-1-3-3-5-3-2-1-3 2 0 3 2 3 2 5 0l5-4c1-1 1-1-1-2s-2-1-1 1m72 0l-1 1c-1-1-2 0-3 1h-1c0-4-2 2-3 14l-1 6v2c1-1 2 0 1 1h-1l-1 1c0 2 4 1 5-2l3-1c2 0 3-2 1-3-2 0-2-1-1-3l2-1v-1l-1-3 1-4 3-3h3l-3-1-1-2a2 2 0 10-2-2m-207 1c-1 1-3 2-4 1-1 0-2 6 0 7 1 2 4-1 3-4 0-2 0-2 2-2 2 1 2 1 2-1 0-3-1-3-3-1m274 1l1 8 1 7 2-2c2-2 2-5 0-5s-2-4 0-6c3-3 3-3-1-3l-3 1m-398 3v3c1 3-1 3-1 1l-1-2-1 2-1 2-1 2c0 2 0 2-2 0-1-1-1-1-1 1 1 2 1 2-2 0h-2c-1 2-3 0-2-2 0-2 0-3-1-2l-2 1-2 1c-2 0-3 1-1 3l1 2 1 2 1-1 1-2c1 0 2 3 1 4v1l1 3 2 4c2 0 1 2 0 2l-2 1 3 1c4 0 2 3-3 4-4 0-5 0-7-3l-4-3c-1 1 3 6 5 6l1 2 2 3c2 1 2 1 0 1h-3l-1 2c-2 0 2 4 4 5l2 1h-1a9 9 0 00-11 2c-1 1-1 1 1 1 1 1 2 0 2-1h2c3 1-3 3-6 2-2 0-3 0-2-1l1-2-1-1c-3 1-2 0 0-2v-2l-7 1-5 1-4 1-3 4a6 6 0 00-2 8l2-2 4-1c3-1 3-1 3 1l1 2a2 2 0 011 3l-1 1-2 3c-3 1-3 3 0 3h2c0-2 6-4 9-3l4-1-2-1-2-2c-1-2-1-5 1-5l1 2 1 3 2 2 1 3v-3l-1-2-1-5 2 2c0 3 1 3 3-1 1-4 4-4 6 1 1 3 2 3 2 1s1-3 2 0v1l-1 3-1 2h-1l-1 2v3h2l3-2c2 0 2 0 1 1-3 4 1 2 5-2l2-4-1-1 1-1c1 0 2-1 1-3 0-3-1-3-3-3l-2-4 3 2h4l-2-3c1-1-1-2-5-1-3 0-4 0-5-2l-1-3v-1h-1l-1-1 4-1c8 2 9 2 9 1l-2-2-1-1-2-1c-2 1-3 0 0-2 2-2 2-9 0-8l-2-2 1-2 1 1h1v-1c0-2 2-1 3 1a2 2 0 004-2v-4l-1-3c-2 0-1-3 2-3 3-1 3-1 2 2v9c-1 1 0 4 1 4l4-1 3-1-3-1c-4-1-3-3 2-3l5-1c1-1 1-1-1-1l-3 1 2-1c3-2 5-6 4-8l-1 1c0 2 0 2-2 1l-2-3h-3v-2l-1-4-2-1h-1l-2-2c0-2-2-3-3 0m531 1c-4 3-4 5-1 8s1 4-2 0c-3-3-5-3-3 0v2c-1-1-1 0-1 3l-1 4v-2l-1-4v-2l-3 2c-2 3-3 6-1 4a2 2 0 111 3c-2 0-3 0-3 2h1l2-1h5c2 2 1 3-1 3v1l-1 2c-1 1-2 2-1 3h2l4-2 2-1c1-1 1 0 1 1 0 2 0 3-2 2v6l-1-1-1-1 1 3h2c0-1 1-2 3-1l2-1h-1l-1-2v-7c1-2 4 0 3 3s-1 3 1 3l3-1c2 0 1-2-1-2-1-1 0-1 1-1h2l2-2c2-1 2-1 1 1h1c3-2 3-5 0-4v-2c3-2 4-3 3 0l1 1 2-1 2-3 1-2-2 1h-2l-2-2c-2 0-1-2 2-4 4-2 5-4 1-7-3-3-3-3-5 1-1 2-1 3 1 4l1 2-2-1c-2-1-2-1-2 1s-1 3-2 3l-4 2-1 1c1-2-1-3-3 0v-5l2-2h2l2 2c3 0 4-1 2-3l-2-1h-1l-2-1c-2 1-2 0-1-1 0-2 0-2-2-2-3 0-3 0-2-2l4-1h1c0-2-4-2-6 1m-106 0l-4 1-1 2-3 1c-2-1-10 1-10 2h3l5-1a6 6 0 015 2l1-1 4-4 4-3c0-1-1-1-4 1m53-1a19 19 0 00-6 10c-2 0-2 0-1 2l2 3c-1 0-1 1 0 0l1-3 1-3 1-1 2-5 1 2 1-1c1-1 2-3 1-4h-3m40 3c-2 2-4 3-4 0h-1v2c0 2-4 3-6 2v-1c2 0 1-2 0-2l-2 2-1 1a1 1 0 101 2h1v3c1 2 2 4 1 8l-1-1h-2c-2 1 0 4 3 3 1 0 2-1 2-3l1-3 4-3 6-6v-4l-1-2-1 2m-168 1v3c-2 0-3-1-3-2-1-1-1-1-2 1v2a2 2 0 010 3l-1 1c1 2 3 2 4 0 1-3 4-5 4-2h1v-4c-1-3-3-4-3-2m212 0h-3l-1 2c0 2 0 2-1 1s-2 0-1 1l-1 2c-3 2-2 2 2 0h2l-1 2a3 3 0 00-1 4h1c2 2 4-2 3-4l1-3c1 1 1 0 1-1l1 1c2 3 4 1 2-2-1-4-2-4-4-3m-205 4l-1 1-1 2-3 2c-1-1-4 1-6 5-2 3 0 2 3-1 1-2 2-2 2-1 0 2 3 2 4-1l2-4 1-3h-1m-295 1h-1c-1 0-2 1-1 2 0 3-2 5-3 3s-4-1-5 2l1 3v6c-1 7 0 9 1 3 1-4 2-5 3-3v2l2 2c1 1 1 0 1-1v-4c1-1 1-1 1 1 0 3 2 1 2-3l2-4 4 7v7c-2 3-1 6 1 3l1-3 1-2v-3c0-3 0-3 2-3 3 0 4-1 4-4-1-2-4-3-6-2h-1l2-2c2 0 1-4-2-5-2-1-2 0-1 4 0 6-2 6-3 0 0-4-2-6-2-2l-1 1v-3l1-2h-3m124 2v4c1-2 4-2 4 0l3 1c1-1 1-1 0 0v2h2l1-2-7-7c-2-1-2-1-3 2m67 1l-1 2h-1l-3 1-4 2-7 2c-3 0-6 1-7 3l-4 3v1l-2 5-1 3c2-1 2-1 1 1l-1 2v5l-1 8-2 6a5 5 0 01-3 5c0 1 7 1 11-1 6-3 13-2 12 3 0 1-2 2-7 2-11 1-16 6-12 10 1 1 2 1 5-1 2-2 6-3 10-3 8-1 9-1 7-4-2-1-2-2-2-3l2 1 1 1a9 9 0 015 14l-1 3-2 4c0 3-2 4-3 2-1-3-7-1-9 3-1 2-2 3-4 3s-3 1-3 2l-2 1h-1v3c-1 3-2 14 0 14h1l2 1 1 2c0 4 2 5 4 2v3c0 4 0 4 1 3l1-3 1-1h1l3-4 3-5 2-3 2-3-1-1-2-1c-3-4 1-12 5-10 6 3 13 4 15 2 3-3 14-2 14 2 0 1-2 2-6 1-2 0-2 0 1 1l5 3 2 1 6 2c8 3 8 0 2-6-2-2-3-5-1-4a99 99 0 0121 22l1-2c0-2 4-4 5-4v-1c0-2 0-2 1-1 2 2 5-1 3-4l-2-6c-2-4-2-4 0-3s3 1 5-3l2-2c1 1 1-6-1-11-6-23-7-25-5-24l1-1c0-2 2 2 2 5l2 4c2 2 2 2 0-7 0-2 0-2 2-1l2 3 1 2c3 1-4-14-10-21a9 9 0 00-8-6 68 68 0 00-27-21c-2-1-9-2-19-2l-8-2c-1-1-1-1-1 1m175-1c-3 2-3 5-1 8l2 4v1h1l2-1c2 1 3-2 1-3l-1-5c-1-4-2-5-4-4m41 5c1 4-5 10-7 7l-2-1-2-2c-1-5-2-2-2 3v7c-2 2 1 1 3-1s6-4 6-2l-1 1-1 2c1 1 4-2 4-4l1-1c2 0 2-1 2-3l1-3v-2l-1-2v-2l-1 3m-106-1l-1 2-2 2c0 2 0 2 1 1v7c1-2 3 0 3 3 0 2 0 2-3 1-3-3-4-1-4 4l-1 4v5l3-1 2-2c2 1 7-6 6-7l1-1c1 1 4-3 5-5 0-3-2-5-4-5-3 0-4-3-4-6l-1-2h-1m-165 2l1 2v1l-2 1 1 1c2-1 3 0 3 5v3l2-2c1-3 3-4 5-1l2 1c1 0 0-2-3-5l-4-4c-3-3-6-5-5-2m-168 3c-4 1-6 3-6 4 0 2 0 2-3 0-3-3-5-4-5-1l-1 1c-1-1-8 3-9 5-1 1 0 2 3 4 3 1 3 1 3-3h3c0-2 8 0 8 2l2 1 2 1c-2 1-2 5-1 6 2 1 1 2-1 2l-1-3c1-1 0-3-1-4s-4-1-4 1l-1 1c-1 0-2 1-2 3l1 3c1 0 2 4 1 5-3 2-11 0-13-3-1-1-1-1-1 1 0 3 3 5 6 5 2 0 2 0 1 2-1 1-2 2-3 1l-1 1c0 2-1 2-2 2-3-1-3 0 0 1l1 1c-1 0-2 1-2 3-1 2 0 4 3 4l-1-1v-1h2v-3c0-2 0-2 1-1l3 1v-1l-4-3h6l-1-4c-1-3-1-3 3-3l4-2 1-1c0 3 2 2 2 0l1-4v3c0 3 0 3 1 2l2-3 1-1v2l1 3 1-6 2-7v-2c0-2 1-2 2-3 3-1 4-4 2-6v-1l-1-1-3-2c0-1-1-2-2-1m49 9c-2 0-3 2-3 2l-1 1-2 1 1 1 1 3 1 3 1-3 1-3c1-1 1 0 1 1l1-1v-4l1-1h1c0-2 0-2-3 0m336 2h-2v1c1 2 2 2 3 1h1l-1 1c-1 1 0 5 2 5l3-8c-1-1-5-2-6 0m-416 1c-3 2-4 3-1 2l1 1 2 1 3 1c0 5 0 6 1 3 2-1 2-2 0-6s-2-4-6-2m146 2c-14 5-24 18-31 40l-7 19c-3 6-4 17-2 24 2 12 2 13 1 13-1-1-2 0-3 2-1 5-1 7 1 6l1-2c0-4 4 6 5 11 0 5 1 6 1 4 1-2 1-2 1 0l7 15c2 2 3 5 2 5l-2-1c-1-3-2-2-2 2l-1 5c-2 1-3 15-2 18 3 9 5 12 6 13 1 2 1 2-1 1-2 0-3 1-1 2v2c-2 1 3 7 7 10l4 2 16 6v-1c-1-1 0-1 1-1l2-1 4-1h1c-2 2-2 3 1 3l2 2 3 1c3 0 4-1 6-8 2-5 2-7 1-7v-1c1-2 0-3-1-4-2-1-2-2-1-3l3-12-1-2-3-1-7-2a17 17 0 01-12-5c-2 0-9-5-9-6l9 4c18 8 35 7 44-3 3-4 3-6 0-3l-2 1 2-2 4-4 3-3v3c1-1 2-2 1-4l1-7 2-5 2-4c2-3 4-13 3-14-2-2-4 0-4 2l-1 3-1-3c0-3 0-4-2-6a10 10 0 01-4-5 29 29 0 01-10-10h1c3 0 12 7 15 10 1 2 1 2 2 1h1c0 3 6-1 8-6 2-3 2-11 1-17s-2-6-4-6l-3-1h-2c-1 0-2 0-2-2l-1-1c-2 1-2 0-2-1v-2l-1 2c-1 2-1 2-8 1-10 0-11-1-10-3s0-3-2-2l-1-1a28 28 0 0119-1l9 1c2 0 3 0 3-2 3-7-10-10-25-5-3 1-3 1-4-2-2-6 7-9 23-6h7v-7l-1-2c1-3-2-13-6-18-6-8-8-10-21-14-21-7-23-7-33-4m325 0c-1 1 0 3 2 3l1 2v6h1l-1 1v2h5c1 1 12-4 12-5l-3-1v-1l1-2c-1-1-4 2-3 3h-4c0 2-3 5-4 4l-1-7c-2-7-3-8-6-5m30 3l1 1c2 0 4 2 3 3l-5-1-5-1c-1 2 2 3 5 3 1-1 2 0 2 1l3 1c3-1 5-2 3-4l-1-2c0-1-1-2-3-2l-3 1m11 4l-3 3h3c4 0 4 0 3 3-1 2 1 5 4 3 1-1 1-1-1-1s-3 0-2-1l2-1 2-1c2 0 2 1 1 2l1 2h1l-2 1-2 1c0 2 2 1 6-1 4-3 7-4 6-2s1 2 4 1c3-2 4-3 1-3l-3-2h-2c1 3-1 2-3-1l-3-2 2 3 1 3h-3c0-2-6-4-11-5-2-1-2-2 0-3 3 0 4-2 2-2l-4 3m-106 2c0 2 0 3-2 3l-1 2v2l-1-2-2-4h-1v1l-1 1-1-1c-2-2-4-1-4 3l-1 3v2c0 1-5 3-7 2l-3 1h-2c-2-1-7-2-9-1-1 1-1 1 2 1l5 2 6 1c2 0 3 0 2 1v1l2-1 3-1 1-1 1-4 1-2v3c-1 2 0 3 1 3 3 1 3 0 1-2l-1-4v-3c-1-1 0-1 2-1l4 1v5-1c0-3-1-2-3 0-1 2 1 3 4 3 2-1 4 0 3 2l1 1 2-1h1v-3h-2l-2-1c-1-1 0-2 3-5s3-3 1-4l-2-3-1-1v2m56 6c-2 5-3 6-4 4v-2c-1 0-2 1-2 4s2 5 2 2c0-2 6-5 9-4 2 0 2 0 1-1l-3-2a1 1 0 110-2v-1c-1-1-1-2 1-3 1-1 1-1-1-1-1 0-2 1-3 6m-191-1c-1 1-2 1-1 3 0 3 2 4 4 1h1c0 2 1 2 3 1 4 0 4 0 5-3 0-3 0-3-2-2h-10m301 6c0 2 0 2-2 1-2-2-5-2-5 0l-2 1c-4 0-2 2 3 2h8l3 1-2-2-2-3h1l4 1c3 0 3-1 2-2-5-2-8-2-8 1m-60 2c1 3 1 3-1 3h-2l-1 1c-2 0-2 0-1 2 1 3 5 5 5 3s3-1 4 1h2v-2l-1-2c1-1 1-1-1-1-2 1-3-2 0-3 2-1 2-2-2-4-3-2-4-1-2 2m-488 1v3l-1 3c-1 1-2 2-1 3l-1 1c-1-1-2 0-2 1h-2v-1a2 2 0 00-1-3v1l-1 1c-2 0-2 0-1 2a5 5 0 009-4l1 1c1 2 4-1 3-5 0-2 0-2 1 0 2 3 5 3 4 0 0-2-1-3-2-2l-1-1-2-2c-2-1-2-1-3 2m507 0c-1 1 0 2 1 2v1l-2 1-1 1 2 2h5l1-2 3-1v-2l-2-1-6-3-1 2m-85 0l-2 1c-2 0-5 3-3 3v1c-2 2 0 10 3 10v2l1 2 2-2h2c2 1 2 1 1-1v-2c1-2-2-4-5-3a2 2 0 01-3-3l6 1 4 2h4l-1-1-2-1c0-2-3-3-6-2-1 1-2 0-3-1-1-2-1-3 2-4 2-1 3-3 1-3l-1 1m101 3l-1 2h-2c-1-2-1-2-1 0 0 3 0 3 2 3 1-1 1-1 0 0l1 1 1-2h3c2 0 3 2 1 2-3 0-3 2-1 4l3 1c1-1 4 3 3 4l-1 2h-1l-4-1c-2 0-4-2-2-3 1 0 1-1-1-2h-9v2l1 1c1-1 1 0 1 2l-3 2c-2 0-2 0-1-1v-3c-2-2-4-3-3 0v1l-2 2c-1 2-1 2 1 2l3 1 1 1h7l-1-1a2 2 0 113-3c0 2 1 2 3 1 3 0 3 0 2 1h3l-1 2-1 1c0 2 2 1 4-1 3-3 4-4 4-2s2 3 4 3v-3c-1-2 0-3 1-3h2l-1-1c-1 0-2 0-1-1l-2-2-3-2h1c1 1 2 0 3-1s1-1-1-1l-3-1h-1c-2 1-2 1-2-1 0-3 0-3-3-3s-4 0-4-2-1-3-2-1m-269 1l-3 1-2 3h-3c0-4-3-2-4 2 0 6 2 9 11 11 10 3 12 3 14 1l5-3c2 0 1-1-6-1l-8-1h13l13-2-1-1-5-3c-6-6-13-8-24-7m-303 7c0 1 0 2-2 2l-3-1-1-1c-3 0 1 3 4 3s3 1 3 3c1 5 3 6 4 2 2-5 2-6-1-6l-2-2-1-2-1 2m35 0l-1 1-2-1c0-2-4 3-4 5l1 1v2l1 1 1-4 1-3 4 3h-1c-1-2-1-1-2 2v2h1l1-2c1 1 3-4 2-5v-3l-1-1c-1 0-2 1-1 2m4 6c0 3 1 3 2 3h4l2-1 2-1c0-2-1-2-3-1s-2 1-2-1c0-1 0-2-2-2s-3 0-3 3m580 1v1c1 1 0 1-1 1-2 0-3 1-3 2l-2 2c-2 0-2 2 0 3v-1c-1-1 0-1 2-1s3 0 2 1l1 1h2c1 2 2 2 4 1 1-2 1-2-1-2l-2-2 1-1c2 1 4-1 2-1h-3c-2 1-3 0-1-1v-4l-1 1m-148 2c-2 2-2 2-1 3l1 2c-2 0-1 2 1 2 2 1 2 0 1-2 0-2 0-2 1-1 2 2 8 2 7 0-2-2 3-2 6 1 2 2 5 3 4 1-1-1 0-1 1-1l-1-1-2-2c1-1 0-1 0 0l-2-1c0-1-3-2-5-1l-2 1h-6c1-2-1-2-3-1m-320 2c-4 1-10 7-7 7l1-1c1-1 10-4 13-3l20 3c1 0 2-4 0-5-1-3-21-4-27-1m291-1c0 2 6 3 12 3 3 0 4 0 3 4l1 5v3c-1 3 2 2 3 0l1-4a1 1 0 112-1l1 1-2-4-3-4-7-2a18 18 0 01-9-2l-2 1m56 3c0 2-4 5-7 5l-2 2c0 2 0 2 1 1h4c3 2 3 2 5 0l1-3c-1-1-1-1 1-3 2-1 2-2 1-2h-1v1l-1-1v-2l-2 2m92 1l-3 2a2 2 0 100 4c1 0 2 0 1-1l-1-1 2-1h3c2-2 3-2 5 0 5 2 8 0 3-3v-1c3 0 0-2-3-2-4 0-5 1-7 3m-34 0c-3 2 0 3 5 2l5 1-3 1-4 1 3 1 5-1c2 0 1-3-1-4s-9-2-10-1m-125 2c-3 1-3 1 1 5 1 2 4 1 5-1 1-4 1-5-1-4l-1-1-4 1m-446 4l-10 1-4 1h15c1 2 1 2-2 2h-4c-1 1-1 1 1 1 4 0 12-3 10-4l-1-2-5 1m590 0l2 2 2 1c0 2 9 5 11 3 1-2 4-1 4 1s0 2 3 1l3-2 2-1h1c-2-1-3-2-5-1l-2-1-1-1h-3c2 2-6 3-10 0l-3-2-2-1-2 1m-407 5c3 0 5 1 5 2l-4-1c-3-1-19 0-17 1l-2 1c-5 3-3 4 3 4h10c3 1 5-1 4-3h3v1l-1 1h8c2-1 2-1 0-2-1-1-1-1 1-1 3 0-8-5-11-5s-3 0 1 2m311 17l5 3a2 2 0 012 3c2 0 3 0 9 6 4 4 7 5 9 5l3 1 1 1-2-4-5-3-2-1 2-1v-2l-2-3-3-1-3 1-1 1a2 2 0 110-3v-2h-2l-2 2c-2 0-2 0-1-2 1-3-1-4-7-4h-3l2 3m-441-1l-2 1c-2 0-2 0-1 1l4 1 3 1c0 1-3 2-4 1-2-1-3 0-3 1l4 1a4 4 0 004-2l1-2a4 4 0 00-6-3m377 3c1 1 1 2-2 2l-4 1h5l7 1-1 1h-2l3 1 2 1a11 11 0 004 5l4-2 4-1-4 1-5-1c-1-2-1-3 1-2 1 1 1 1 0 0l-2-2-2-1c-1-1 0-2 1-2v-1l-2-1h-3l-3-1c-1-1-1-1-1 1m-117 2l-12 2-7 2c1 1 11 0 19-2 6-1 10-1 15 1l2-1c0-2-16-4-17-2m263 1v1l1 1 2-1c1-2 5 0 4 2v2l1-1h1l3 2 1 1 2 3h1l1-1c1 1 3 0 3-1 2-2 2-2 5-1 3 2 4 2 4-1l-5-1-5-1h-2l-3 1h-2c-1-1-2-2-1-3l-3-2c-4-2-9-2-8 0m-269 5l-4 1c-3 0-4 1-4 4-1 2-1 2-1 0 0-3-2-2-3 1 0 2 0 2-2 1h-1c0 2 2 5 3 3 1-1 11-3 10-1l1 1 1-2c-1-1 8-3 11-3s8-2 8-3l-1-1-2-1h-16m-119 2l-2 1-5 4a26 26 0 01-9 6l-12 5 1 1a12 12 0 0010-1l8-4c6-4 6-4 11-3l12 4c0 4 15 2 20-3l2-3-3-1c-3-2-3-2-5 1s-7 4-13 2l-7-2h-5v-5c0-4-1-6-3-2m131 5a7 7 0 00-6 3c-11 0-16 2-16 5v2l-1 2h1c1-2 2-2 3-2h4c3-2 3-2 4 0l2 2c0-3 0-4 4-5l6-1h3c0 4 2 4 9 0l-1-1v-3c0-2 0-2-1-1-1 0-2 1-1 2l-1 1v-3c0-2-2-3-2-1h-1c0-2 0-2-6 0m-309 1c-2 2-2 2 0 2 3-1 3 0-1 2l-1 2c2 0 1 2-1 2l-1 1-1 1h-2l-5-1h-5l2 2c2 1 2 2 1 2l-10 2c-2 1-1 2 3 1 3 0 4 0 3 1-1 2 4 0 6-2 1-1 2-1 2 1l-2 3-1 2 2-1 3-1 2-1-1-1c-3 1-2-3 0-4 3-1 3-1 3 1-1 1 0 2 1 1 1 0 2-1 1-2h3l2-1v-1l-1-1 1-1c1 1 1 0 0 0 0-2 1-2 4-2 4 0 5 0 4-1l-3-1c-2 1-5 0-5-1v-3l-1-3-2 2m433 0c-1 0-1 1 0 0l1 1-1 1v2l1 3 1 2 2-2c0-2 1-3 2-3l1-1h-2l-2-1 2-2h3l-3-1c-4-1-5-1-5 1m14 0c1 1 2 2 3 1l1 2c0 1 0 2-1 1-1-2-4-2-4 0 1 2 0 2-1 2-2-1-2 1 0 2 3 2 3 2 4 0l3-1a4 4 0 00-2-7l-3-1v1m33 10c2 1 2 4-1 4-2 1-2 5 0 6 1 1 6-3 6-4l3-3 3-1h-4l-5-1-2-2v1m-52 2v1c-7-3-9-2-5 2v2c-3 0-2 3 0 5 2 1 3 2 5 1 1-1 2-1 3 1l4 1c3 0 3 0 2-2s-1-2-2-1l-2 2v-5l-1-1v-1c2-2 1-5-1-4h-1l-2-2c-2-1-2-1 0 1m-209 3c-2 2-20 4-25 3h-8a166 166 0 01-18 1c-2 0 0 3 3 5 3 1 5 3 5 4 1 2 6 3 12 4h10l2-1h11c-1 2 0 3 3 2l4-6 5-6c4-2 3-5-1-6h-3m-85 2c-2 4-1 12 1 18l1 2-1-13-1-7m72 3l-15 1h-16v2l1 2 2 1 1 1a48 48 0 0028 1c2 1 10-5 10-7l-1-1h-10m305 4v3l1 3v-3l1-3v3c0 3 3 6 5 5v-3l2-2c1-1 1-1-1-2-5-2-6-2-8-1m-136 8l1 2c2 0 0 7-3 9-2 2-2 3-1 3l2-2 1-1c1 0 0 4-2 6l-3 8c-2 7-6 12-6 9l1-2 1-2 1-2 1-2v-4l1-3-2 3-2 5-1 1-1-2c0-2 0-2-1-1l-1 6-1 5-2 12-1 2-2 6c-1 4-3 7-3 4l-2 7-1 3-1 2h1l2-1 1-2c0-2 0-2 3-1 3 2 4 2 4-1s2-1 2 3v5l1-6 3-9 2-8 1-2 1-5 2-6 1-3 1-4 1 2v11l-1 12v23l2-5 1-22v-17l-1 4v-3c-1-4-1-6 3-14 3-6 5-17 3-17l-1 3-1-2-3-7c-2-2-2-2-1 0m74 16c-4 4-7 6-9 6l-3 2 2 1 5-1c1 0 4-1 5-3l4-3v-4c2-1 3-3 1-3l-5 5m-65 5l-1 2v7l1 5c2 0 1 1 0 3l-2 5-2 12-2 21c0 16 2 17 2 1l3-25c3-13 4-30 2-31h-1m35 18l-4 2-3 3-5 2-3 1c1 1-2 2-8 2-3 0-4 0-2 1 6 3 30-7 30-12 0-2-3-1-5 1m57 7l-1 3-1 6c-1 1-2 3-1 4l-1 2-2 9-2 9-1 18-2 20-1 12-1 7c-1-2-1-2-1 0 0 5 2 6 2 2l2-10 2-14a1223 1223 0 015-40l1-3 5-21v-3c-2-2-2-2-3-1M0 342c0 23 0 26 1 24l1-2-1-24v-25l-1 27m32-13l1 2h-1l-1 2 2 3 1 1h-6v1l3 1 3 2 1-3 3-3a1 1 0 101-2l-1-2c-1-3-2-3-4-3-3 0-3 0-2 1m323 28c-5 4-4 10 2 10 3 0 3-7 0-8a1 1 0 112-2v-1c0-2 0-3-4 1m-83 0l-3 2-2 1h2c1 0 2 0 1 1v1l-2 1-1 2 1 2c0 2 3 1 4-2l2-4v-2l-1-2h-1M0 441c0 39 1 55 1 35a5722 5722 0 00-1-35m607-65c-3 0-3 8 0 8l1-1a1 1 0 112 0l3 5 3 2v-4c0-4-2-6-4-5l-1-1-2-5-2 1m-52 29l1 8 1 3c2 0 3-11 2-14-3-4-4-2-4 3m-87 17l2 6 1 5 1 5 2 5 2 3c1 0 2 1 2 3s0 2 1 1c1-2 1-2 1 0l1 3v-3c0-1-1-4-3-5-2-2-3-5-8-19l-2-4m-23 7l2 7 1 5 1 5v6c-2 1-1 1 4 1a4 4 0 004-1c4 0 4-5 0-8l-3-7c-4-11-5-13-7-13-3 0-3 0-2 5m21 0l3 16 1 3 1 3v12a2 2 0 11-3 1c0-3-2-2-3 1 0 1 1 2 4 2h5c2 0 1-1-2-18l-6-22v2m-20 61l1 2 3 2 3 2 3 1 7 3 7 3c1 2 2 1 2-1s-1-3-2-3c0 0-2-1-2-3l-5-4-5-3h-3c-2-2-9-1-9 1m151 2c-1 3 0 12 1 12l2 4c1 5 6 6 6 2 0-3-3-6-5-6l-1-6c0-7-2-10-3-6"
      tabindex="-1" itemprop="light" style="fill-opacity: 0.574; fill-rule: evenodd;"></path>
    </symbol>
    <symbol id="-posters-1650743357363-regular">
      <path d="M13 1a9 9 0 01-6 1l2 1h3c2 0 2 0 1 1 0 2 0 2 3 2s3 0 2-2c0-3 0-3 3-3 3-1 2-1-1-1l-7 1m20 0c3 1 3 1-1 2-3 1-3 1-2-1l-2 1c-3 3-3 4 0 3 2 0 2 0 2 3l1 3c2 0 2 0 1-3-2-3-1-3 4-3 3 0 4-1 4-2l2-1 2 1v1c0 2 5 4 6 3l1 2c0 2-3 2-5 0h-2l1 1 1 3-1 2v2c0 3 2 3 5 0l3-2v-1c-1-1 1-6 3-6l1 1V8l-2-2-2-2-4-2c-2-1-2-1 0-1h3-10l-6-1c-5 0-5 0-3 1m33 0l-2 2 1 1 2 2c0 1 1 3 3 3 3 2 3 2 3 0 1-2 2-3 4-2 3 0 3 0 2-3l1-3c1-1 0-1-2-1-3 0-4 0-3 1v3l-3 1c-2 0-2-1-2-3a3 3 0 00-4-1m17 1l2 1 2 5c1 9 2 12 7 12 6 1 6-1 4-7C93 1 92 0 87 0c-3 0-4 0-4 2m92-1l1 3c3 4 3 5 0 4-2 0-2 1-1 5l1 1v12l1 1c1-1 6 2 7 3h1l-4-4c-4-3-6-6-3-6l7 3h2c2-2 2-2 3 0h2l-1-3-1-4c2-3 5 4 4 8l1 3c2 1 1 4 0 4l-2-1-1-1c-1 1 2 4 4 3l1 1c-1 1 1 4 3 8 4 7 4 7 8 7 2 0 3 0 3-2h-5l-1-2 4-2c4-2 5-5 3-4l-1-1 3-1 2-1h3l2 8 1 3 2 4 1-2-1-2 2 2 1 1-6-14-1-1a21 21 0 00-1-4l-2 2c-2 3-5 3-5 0l-2-2-2-1 4-1c4 0 5-1 3-4l-1-6c1-4 1-4-1-2l-1 4c0 2-4 6-4 4l1-2 1-5c0-5 1-5 4-5 5-1 5-5 1-9-2-3-3-4-2-1 0 1-2 1-3-1s-19-1-20 2c0 1-1 2-2 1l-1 2h-1l-1-1-4-4-1-1v2l-2 2-1-2a1 1 0 10-2-1m88 2l3 3 1 2-1 2v3l-1 2c0 1 5-1 6-3 0-2 3-4 3-2l-1 1-2 2 2 1 1 1a20 20 0 001 5l1-1c1-1 1-1 2 1 0 2 1 3 2 3v3l-2 4 2-3c2-3 2-3 4 0 3 4 3 7 2 7l-2 1-6 1-5 2-2 3-11 6c-1 1-1 1 1 1 1-1 2 0 2 1 1 2 1 2-2 1s-3-1-2 1a5 5 0 006 1v-3c-2-1-1-2 1-2 1 1 2 0 3-1l2-2c1 0 0 2-2 3l-2 4 3-2c3-3 4-4 5-3s1 1-1 2c-1 0-2 0-1 1s0 5-2 5l1 1c3 1 2 2-2 2a4 4 0 00-3 1c1-2 3-1 3 1a10 10 0 01-7 8l1 1v10c0 2 3 3 3 1s2-2 3-1l1 2h2c1 1 1 1-1 1-3 0-3 0-1 1l2 1h-2c-2 0-1 1 1 1a5 5 0 005-2 1 1 0 001-2l-1-2a2 2 0 00-2-4l3-1c3 0 4 1 4 4 1 4 1 3 1-1 0-1 0-2 1-1 1 2 2 1 2-3s0-5-1-4-3 0-5-1l-2-2h2c0-2-4-1-4 1l-3 4-2 5c0 3-2 3-2 0a17 17 0 015-14l1-1 1-2h1c4-1 7 1 5 5v4l2-3c1-3 2-4 4-2h1l-1-1-1-1h7v-1l1-2 1-2c-1-2 0-3 1-3l3-2 1-2v-1a1 1 0 010-3l1 1 2 1 1 1c-1 1 0 1 0 0l2 1v-1c0-2 0-2 2-1v3c-2 2-1 6 0 4 2-1 4-1 4 2l2-1c2-1 3-3 2-4h-1c0 3-3 2-3 0s0-3 2-2l1-1c0-1-6-6-7-5l1 1 1 1h-1c-1 0-2-1-2-3l-1-2-1-1h3l1 1 4-10 1 3v4l1-2v-7l1-7c1-8 1-9 4-7 5 2 6 2 6 1v-2l1-2c-1-2 0-3 1-3 2-1 2-1 0-2l-1-1 1-1 1-2c1-1 0-1-1-1-3 0-6 3-5 4l-1 3a3 3 0 00-2 3c-1-2-3 1-6 6a7 7 0 01-4 5h1l1 1-3 2-1 1 2 1 1 2-1 4c-2 1-2 1-1-1 0-4-2-7-7-9-2-1-3-2-2-4 0-3-2-3-2 1v6l2 4-2-1c-2-1-2-1-2 2-1 2-2 3-3 2l-2 1-1 2-1-1 1-5c0-4 2-7 4-7s2-3 0-4h-3l-1-2 3 1c3 1 3 1 5-2 3-2 3-2 5-1l2 2-1-2-2-2 2 1c2 0 2 0-1-2-3-3-3-3-2-5s1-2 3-1v3c-1 1-1 1 1 2l2 4a2 2 0 104-2l2-1h3V6l-2-1-3 2-1 3-3-4-2-2c-1-1-2-2-1-3l-5-1c-4 0-4 0-3 2l4 1c3 0-1 5-5 5l-3 1h-2V8c2 0 2 0 1-2s-2-2-4-2h-3l4-3h1l-5-1c-5 0-5 0-4 3 0 2-1 3-2 2h-1l7 6-1-2c-3-2 1-1 4 1l4 1-3 1c-2 0-2 1-1 1 1 1 0 2-1 3l-1 2 1 2 2 4v2c-1 1-1 0-2-1l-1-3c-2-4-3-6-2-7s0-3-4-7l-6-4c1 1 0 2-1 2s-3-4-2-5l-4-1h-5l1 3m81-1l-1 3-1 2 2-1 2-1-2 2c-1 2 0 10 2 12v-7c-1-2 1-5 3-5a1 1 0 000-2V3c0-2 0-2-1-1h-2l-2-2v2m26-1c0 3-9 11-11 10v1c2 2 5 0 9-5 2-2 2-2 3-1 3 2 2 4 0 3v3a1 1 0 10-1 2h-2c-1-1-2 1-1 5l-1 1-2 2c-1 1 0 1 1 1l1 1 2 4 2 3c0 1-10 3-11 2h-1c-1 2-3 2-3-1l3-1c2 0 2 0 0-1l-3-2h-1c0 2-1 2-3 1-3-2-3-2-4-1a3 3 0 005 3l1 2c-1 3-4 3-8 0l-4-2c0 1 1 3 3 3l1 2c-1 1-2 1-3-1v2l2 2c1-1 2-2 3-1h4a5 5 0 01-4 5c-2 0-2 0-1 1l1 6v1c1 1 0 2-1 4s-2 2-2 1l-2-3c-2 0-3-2-3-3 0-2-1-3-3-4-4-2-6-6-2-5a1 1 0 100-1c-1 0-2-1-2-3 0-3-1-3-3-4-3 0-3 0-1 1 3 2 2 5-1 6h-4c-2 2-7 2-7 0l-1-1v2l1 4 3-1h4l-1 4c-1 3 0 5 2 4l5 3c3 3 3 3 3 10a31 31 0 01-1 10l-4 2c-4 1-2 3 2 2l3 1h4l1 1h4c4 1 5-1 2-4l-2-1a3 3 0 01-4-4l2-3 2-5-1-2-1-1-2-2c-3-1-11-8-11-10s2-2 4-1l2 1-3-3c-3-2-3-2-1-4s3-3 3 0c-1 2 2 5 5 6 2 1 2 1 0 4-2 4-1 5 4 6l4 2c-1 2 3 5 4 4 1 0 2 1 2 4 1 4 0 5-1 1l-3-3c-1 1-2 0-2-1l-1-1c-3 0-2 0 1 4l3 5-2 2c0 2 3 4 4 2l-1-1c-1 0 0-2 2-2l1 1 1 2c1 1-1 6-3 9l-1 3-1 3-1 2c1 0 3-3 3-5l3-7c2-3 3-6 2-7l1-1 1 2 1 1 1-2 1-1 4-3 1-2-2-1-3-1v-1l-1-5c-2-3-2-6 1-6l3-4c0-2 0-2 1-1 0 2 2 3 2 1v-2l-1-1h-2a1 1 0 01-2-2c-1 2-2 1-2-1 0-3 1-4 3-3l3-3c0-2-2-1-3 1-2 1-5 1-5-1s3-5 4-3h2c0-1 2-2 3-1l4-1h4l2 1c0 2 2 3 3 1l-1-3c-2-1-2-1 0-1h6l1 1c1-1 1 0 1 1 0 3-1 4-2 2-1-1-2-1-3 1-2 2-2 3-1 3 2 0 2 1 1 3 0 1-2 0-4-3-5-4-5-4-6 1 0 4 3 9 4 6v-6l3 4h7l-1-1-1-1v-1l1-1-2-2v-1h2l3-2c3-2 4-3 4-1l-2 3-1 1 1 2h-2c-2-2-2-2-2 0l1 3v2c-1 2-1 2 1 1l2-2 2-1v1c0 3 2 5 4 5l2-2-1-2v2l-1 1v-9c0-2 0-2 2-1l2 2v4l-1 8-2 2c-2 0-4 3-4 6l2 1h3c1 2 2 0 2-4l1-3 1 1v1l2-1c0-1 1-2 2-1l1-2c-1-2-1-2 1-2v-1h-4a1 1 0 10-1 2v1c-3 1-3 1-2-3a5 5 0 019-3l4 1c4 0 4 0 4 2v1l1-3c1-2 3-3 4-1l1 1v4c2-1 3 0 1 1-3 2-6 2-6 0 1-1 1-1 0 0l-3 2c-1-1-2 0-1 1l-1 2-1-1h-2l-2 3c0 1-5 1-6-1l-1 2c0 2 1 3 2 3l1 2c-1 1 1 5 2 5l1-2c0-2 5-2 8 0l3 1-3-2-2-2 4 1c3 0 3 0 2-1s-2-2-3-1c-2 0-2 0-2-2 0-3 0-3-3-2l-2-1 3-1 3-1 1-2 1 2c-1 2 0 1 2-1s3-2 3-1l2 1c2 0 2 0 1-1v-1c2 0 2-4 0-7-2-1-2-2-2-3l1 1 1 1 3 2 2 1 2 3h-2v2l3 1h2v-3c-2-1-3-4-1-4l1 2h3c2 0 2 0 2 2v5c0 2 0 2 1 1v-6l2 2 2 5 1 4a40 40 0 010 15c1 0 3-8 2-9v-5l-1-4c0-5-1-9-3-9v-5c2-2 4-2 4 0l4 6 3 5 3 4 2 4h-1l-2-1c-1 0-1 1 1 3s2 2 3 1h1l3 2c3 2 4 5 4 10 0 4 0 4-2 3-3 0-3 0-3 2l-1 1-1 1-1 1a2 2 0 01-1-3v-2c-1-1-2-2-1-3 0-2 0-2-2-1-1 1-1 1-1-1s0-2 2-2h2v-1l-2-1-2-2c-1 0-2-1-1-2 0-2 0-2-1-1-2 3-1 5 1 4l2 1-1 1-2 2-1 1-1-1-1-1a5 5 0 000 5c1-2 4 0 4 3l1 3 2 2v3l3-2 4-1 1-2c0-3 5-2 5 2v2l-1 1 1 2c4 0 5 4 3 8-1 3-4 4-3 2v2c1 1 4 0 4-2s2-3 3-1c0 2 1 1 1-2l-1-4-1-5v-7c1-5 5-9 7-6l2 1c2-1 2 1 1 3-2 2-2 6 0 5 2 0 1 2-1 5-2 2-1 5 0 4l1 3c-1 3 0 4 2 2l2-2c2-1 3-2 3-4 1-3 0-5-1-2-1 1-1 1-1-2l-1-6c-1-3 2-2 3 1 3 6 2 16 0 15-1 0-5 3-8 7-3 3 2 5 7 3l3-1c-1 1 0 4 1 6a74 74 0 014 18v3h2l1-2 1-1c2 0 2 0 0 4-3 5 2 12 5 8h4l-1 1-2 1h6v-4c2-3 3-2 2 0 0 2 0 2 1 1l2-4c-1-2 0-3 2-5l2-3-2 1h-2l2-2 1-1-5 1h-1v-3l1-2c0-2 0-2-2-1a2 2 0 01-2-2c1-1 3-7 2-8s-1-1-1 1h-1v-9c-1-10 3-15 18-20l11-5c6-3 9-2 9 1h4l-1-2c-3-2-4-4-2-4l5-2c4-4 4-4 4-1-1 3-1 3 2 3h6v-1l3-2 3-3 1-3c0-2 0-3-1-1 0 2-2 3-4 3-2-1-3-4-2-6v-2l-2 1v3l1 1 2 3c3 3 1 5-3 4-1-1-2 0-3 1s-1 1-1-1l2-2h1l2 1c2 0 1-2-1-3-2 0-2 0-1-1v-1l-2-2 1-3 1-2c0-4 1-6 3-6l2 1 1 1 1-2-1-2a13 13 0 013-13l3-3c0 1 1 0 0 0l1-5 2-4 2-1 1-2c0-2 7-3 9-2 2 0 0 3-2 3v1l-1 3-1 1c0 1 2 0 3-2 4-5 4-5 6-5l2 4c1 2 1 2 1-1l1-4 1-4c1-5 3-7 4-3 1 1 1 0 1-1 0-3 3-4 3-1h-1l-1 1-1 5c-2-1-3 0-2 1 2 3 6 2 6-1a3 3 0 014-3v-1l-1-4a14 14 0 004 0v5c0 2 0 2 1 1 2-2 3-1 3 1 0 1 0 2 2 1h1l-3 1c-2 1-8 5-6 5l6-3a14 14 0 017-2h4a3 3 0 012-3l-1 1v1l1 1c-1 1 0 1 0 0l2-2 1-1 1-3c1-3 1-4 3-1 1 1 1 1 1-1-1-2-1-2 1 0h3l1-4c0-1 0-2 5-7l3-3-1 3c0 3-1 4-2 4l-1 2-1 4v2h1c0-2 2-2 3 0a7 7 0 01-10 3h-1c-3-1-2 2 1 3l2 2-3-1c-3-2-6-1-6 1l-3 2-3 1c-1 1-7 2-9 1-1-1-2-1-2 1l-3 2-3 1-1 1h-2c-1 1-2 2-3 1-2-1-3-1-3 1h-2v-5l-1-4-1 5c1 5 1 6-3 7-3 2-3 2-5 1a4 4 0 00-7 0v-1l-1-2c-1 0-2 1-1 3 1 1 1 1-2 1-2-1-3-1-3 1l-2 2-2 1 1 3h3c-2 0-2 0-1-1l2-2c3 0 3 0 2-1-2-2-2-2 2-2a30 30 0 0115 1c2 0 0 2-3 3-2 1-3 1-3-1-1-1-2-1-2 2 0 2-1 3-4 4l-3 3h1c1-2 2-2 2-1h5l2-2c2 0 2 3 0 5v1h4c1 1 1 1 0 0v-1c2 0 2 0 0-1-2-2-2-7 1-7l1-1 2-2 1 2a1 1 0 101 0v-2c1-2 2-2 2 0l1 2 1 4 1 6v-2l1-4c1 0 3 2 1 3v1c0 1 3 0 5-2 2-3 4-2 4 1a5 5 0 01-3 5l2 1h1l-2 1c-2-1-5 5-3 6h4c3-4 9-4 9-2l2 1h2l-4 1c-5 0-6 0-5 3 0 4 2 5 2 1 1-3 1-3 5-3h4l-2 3-2 2-1 2v2l2 1c1 1 1 0 1-2l1-3 2-2 2-3v2c-2 3-1 5 1 2 2-1 2-1 3 1s-2 7-5 7c-2 0-1-2 1-4v-1c-2 0-4 3-4 6l-1 2v1l3-2h2l2-1h4l3-1v1c-2 2-4 15-2 15v-3c2 2 2 6 0 6a2 2 0 01-2-1l2 3c2 3 2 4 0 2l-3-1c-1 1-2-1-1-4v-3l-1 1c0 2 0 3-3 3-2 1-2 1-1 3l1 2h4l-3 2c-2 2-2 2-4 0l-5-3c-2-1-2-2-2-5 0-1 0-2-1-1-1 2-5 0-4-2 0-2 0-2-1-1l-2 3-2 1c-3 0-3 0-2-2l2-2 1-1-3-1c-2 0-3 0-2 1 2 0 2 0 1 3l-4 4c-1 1-2 1-1 2h3c0 2 2 3 3 2 2-1 2-1 1 1v2c1 0 4-5 3-7l1-1 1 5 2 1c1-1 4 2 4 3h2c3 0 3 0 1 1l-2 1 3 3c3 2 3 3 2 5l-2 2c2 1-1 9-4 12l-1 3c2 2 1 5-2 5l-2 1h10l-2 2h-2v1l2 1-1 1h-1l1 1 2 3c1 3 3 4 5 3 1 0 5 3 5 5h-2c-1-1-2-1-2 1l-3 3c-4 1-5 4-4 4h1a2 2 0 013-1c-1 1 5 3 7 3l5-1 4-1 2-1 1-1h3l2-1c-1-3 0-5 2-5l1-2v-2c1-1 1 0 0 0l1 2 2-1c0-1 1-2 3-2 3 0 3 0 2 1-2 2-2 2 0 2l1 4-1 6-1 3v8l-1-2c1-2 1-2-3-3-3-1-3-1-3 1s0 2 3 1h3l-1 1v1l-1 1-2 1h-1c-1-1-5 0-7 2h1c4 0 6 1 4 3v2l-5 4-7 5c-3 2-7 3-7 1s3-4 3-3l2-1v-2l-2-1 1-1h3c1-2-3-2-5 0h-6v2l1 1-3-1h-1c2 2 1 3-2 2h-3c-2 1 1 2 5 2l5 1c1 2 1 2-2 2l-3 1-1 1c-2 0-6 3-5 5l-4 1c-5 1-6 0-4-1l1-5h-3l-2 2-1 2a1 1 0 11-2-1l-2-2-1-1h3c2 0 2 0 1-1v-2l-3-2-1-1-1-1v1l-1 1v-3l-1-1h-6c-2 2-9 1-8 0l-1-1-1 2a2 2 0 11-3-1c1-4-2-1-5 4-2 5-2 5-1 6l1 2 1 1 1-2 3-1h3l2-1-1 3c-2 1-3 3-1 3v3l-1 3v-3c0-3 0-3-1-2l-4-1h-2c-1 0-3 2-3 4l1 1h3l2 1 1 1c0 1 3 2 4 0 0-2 2-1 2 1v1l1-1 3-2 8-1c2 0 2 0 1-1h-2l-5-3-1-1c-2-1-4-5-2-5l1 1h2c4-2 15 3 13 5v4c1 3 5 3 6 0s3-4 3-1c-1 2-1 2 1 2s3 0 2 3c0 2 0 3 3 2l1-1c0-2 1-1 3 1 1 1 2 2 1 3s-1 1 1 1 4-2 4-3l-2-1c-2 0-4-2-2-3l1-2 2-1 1 3a9 9 0 007 0c-6-2-8-4-6-6s7-5 10-5l2-2-2-1h-1c1-2 6-2 6-1-1 2 23 1 24-1l2-1 1-15 1-18c0-2 0-3-1-2l-3-2c-1-3-1-3 1-3s3 0 2-2l-1-1-2 1c-3 0-3 0-2 4a6 6 0 01-1 7c1 2 0 4-2 4l-1-5 2-7-1-5v-4l-1 1h-7c-3-1-1-4 3-5l3-2h-1c0 2-2 1-2-1l-1-1h-2c0-1-8-1-8 1l-2 2-1 3c1 2-3 4-4 2l-3-2v-1h3l2-1 2-2 1-2c-1-1 0-2 2-3 6-2 9-7 4-6-2 0-2 0-1-2 2-3 4-3 6-1s2 2 3 1l2-2v4c2 3 2 4 1 4l-2-3c0-2-1-2-2 0s-1 2 1 2l2 3c0 3 0 3 6 3h5v-4l-1-7c0-3 0-3-3-3-4 0-8-6-4-7l1-2 1-2 1 1 1 1v-3c-1-1-1-1-3 1l-2 1c0-3 3-4 5-4h3c1-6 1-9-2-8l-8 6c-3 3-9 2-14-1l-6-3c-2-1-2-1 0-1l2-2 1-1c1 1 2 0 2-3v-4l-2 3-2 3v-4c1-2 0-4-1-5a6 6 0 011-10l2-2 2-1h2l-3-1c-3 0-3 0-1-1l2-4c1-3 3-3 6 0l3 1-1-2c-2-1-3-4-1-5 1-2 6 1 6 3s0 2 2 1c1-1 1-1 1 1v1c2-2 3-1 3 4s2 2 2-4l2-4a3 3 0 003-4c0-2-1-3-3-5l-2-2 4 1c1 1 1 0 1-1l-1-2c-1 1-2-1-2-4s-1-2-3 2l-3 3c-1-1-2 0-2 2 1 3-3 4-7 2h-2v1l1 2-1 1-1 1-1 3c-3 2-5-9-2-12h2l1-2v-2l1 2h1c0-1 2-1 2 1l1 1 1 2 1 1V48l-3 2c-2 2-4 1-2-1l-1-1c-1 0-2-4-1-5 0-1 4 0 3 2l1 1 1-3c0-2 0-3 4-3 3 0 4 0 4 2v1c1 1 3-2 4-5 1-4 3-5 3-2 1 1 1-1 1-3v-5l-3 2c-3 1-3 3 0 2v1h-7l1-1 1-2 3-3v-2a3 3 0 01-2-4l3-4 2-3 1 3 1 3v-3c0-3-1-3-5-3h-12l-4 3c-4 2-4 2-4 0-1-3 1-9 3-11s2-2 1-3l-1-1c0-2-16-3-17-1l1 2 2 1c-1 2-4 4-5 3l1-2 1-1h-2l-1 2a2 2 0 01-4 3c-1 1 2 3 4 3v2h-2l-3-1-3 1-1 1-2 1h2l2 1-4 1c-3 0-3-1-3-2 0-2 0-2-1-1v-2l5-4c3-1 3-1 1-1l-4 1h-3v3l-1-1c0-1-1-2-2-1v3l-2-1c0-2-2-2-5-1-1 1-2 0-1-1l1-4 1-4c2-2 0-2-3-1-2 2-2 2-1 3 3 2 0 5-5 6l-3 1 1 1h3c0 2-6 1-7 0-1-2-1-4 1-4 3 0 6-6 5-7h-1l-3 4-4 2 3-3 2-3c0-2-3-1-3 1h-2l-1 1v6c1 1 1 1-1 1l-4 3c-2 3-4 4-3 1v-1l-1 2-1 2c-2 0-1-4 1-5l3-1c1 0 2 0 1-1 0-2-1-2-4 0l-4 2v7l-2-5c0-5 0-5 3-5l1-2 2-4v1l1 2h1V2c1-2-2-3-3-1l-2 1V1c1-2-4-1-6 2l-3 2c-1 0-2 0-1 1l-1 1-2-1c0-2-1-2-4-2l-3-1h3l1-1c0-2-2-2-12-2-11 0-12 0-10 1 1 2 1 2-2 1-6-2-8-2-8-1 1 2 0 4-3 6-5 3-7 3-7 1l2-1c2 0 1-2-2-3h-1v4l-1 2-1-2V3c0-3 0-3-4-3-3 0-3 0-2 1s2 2 3 1l1 2-1 2-1 4-2 4v-3c-2-1-2-3-2-5l-1-5a9 9 0 00-10 1V1l-1-1-1 2-3 1V2l2-1h-7l-12-1c-12 0-12 0-13 3v2c1-1 1 0 1 1l-2 1-2-1 1-3c0-3 0-3-2-3l-2 1 1 1 1 1h-4l-1-1V0l-2 1h-3c-3-2-3 0 1 3 2 1 2 2 1 3-2 1 0 2 3 1l2 1 1 2-1 2c-3 3-2 6 2 7 2 0 5-4 5-6s3-5 3-3l2 1 1 1 1 1v-1l1-2c2 0 1 5 0 5-1 1-3 0-4-1l-2-2v1c3 2 2 3 0 3h-2c0 1 0 2-1 1l-1 1v3l2-1c1-2 2-2 5-2 3 1 5 0 5-1l2-3 2-4 2-3h1l-1 2v2l-1 3c-2 1-2 3-1 5 0 2 0 2-2 2h-1l-1 1c-1 0-2 0-1-1l-1-1-1 2v1l-2 1-2-1-1-2v1l-1 2-3 1c0 2 5 1 10-1l4-2 1 9c0 7 0 8-2 8h-1l1 1c2 0 2 7 1 17v5l1-1v-9l1-18 1-10 1 1v1l1-1h2l-2-1-2-2h3l2 2h2l1-1v4c0 3 1 5 2 5l2 2h-3l-2 2v2l2-2 2-1c2 1 4 0 4-2 0-1-1-2-2-1v-1l2-3c1-2 1-2 2-1h2l1-3c2-2 3-1 2 2-2 3-2 3 0 4 3 2 5 1 3-2v-3l-1-2c-2-2-3-4-1-4l1 2 1 1v-5h-1c-1 2-3 0-3-4 0-3 1-4 3-4s3 2 1 4v1h2l1 1c1 1 2 0 1-1 0-2 0-2 1-1 2 2 2 3 0 5l-1 2 2-1c2-2 6 0 9 4l3 2c1 0 1 4-1 8l-1 3 5-8h4c2 2 3 3 3 6l-1 5-1 2c0 1 0 2 1 1h1l1-3 2-4 1-2h1v6l1 1c2-1 1-8-1-9-1-1-2-2-1-4 0-4 0-4-2-3-2 0-2 0 0 1v3h-2c0-1-1-2-4-2l-4-2-4-3c-4-3-4-7 1-8l3 1 2 2c2 0 2 0 0-2l-3-3 3-3 5-3 1-1 1-2c1-1 2 2 1 5l2 2c1 0 2 2 0 2v1c2 2 3 3 1 3-2-1-3 0-1 1 3 1 6 0 5-2v-2c1-1 2 0 2 3 0 2 1 2 2 2 2 0 2 0 1 2v2c1 1 1 0 1-1 0-2 1-2 3-2h3v8a17 17 0 01-4 12l-6 9v1l-2 4-2 3c1-1 2 0 2 3l-2 4c-1 0-2-3-1-4l-1-1-1 3 1 2 3 4 1 3-3 3-3 3-1-3-1-3-1 2c0 2-2 1-3-1s1-6 3-8l1-2-3 2-4 4c-2 1-4 9-2 9 1 1 1 0 1-1 0-4 2-1 2 3 0 3 0 3-2 1-2-1-2-1-2 1 0 1 0 2-1 1l-1-1a2 2 0 00-4 0v2c0 2-2 3-2 1 0-3-3-2-3 1-2 5-3 0-2-5s-2-5-3-1c0 3-2 5-3 4v5l-1 2h-2c-2-3-2-2 0 2l1 3-2-3-2-5c0-2 0-2-1 0l-3 2v2l-1 2v-5l1-7v-7l-1 4c0 7-4 9-4 2 0-3-1-4-2-4l-2 1c1 3-5 4-7 2s-3-2-5 0h-3c1-3 0-2-2 0-2 1-2 3-1 5l-1 3-2 2-1 2 1-4c1-3 1-3-1-6-2-4-3-6-1-4 1 1 2 1 2-1l-2-1a18 18 0 01-10-11l-6-9-2-3c-2-2-2-2-1-3v-1h-2l-3-4c-4-4-4-6 1-7 2 0 3 0 2 1v1h-1c-3 0-3 2-1 4 3 3 3 3 5 1l2-2a4 4 0 014-3l-2 2c-1 1-1 1 1 1 1-1 2 0 2 2 0 3 0 3-1 2-2-1-5 0-5 1l2 2c2 1 2 1 1-1h2c3 1 6 6 5 8-1 1 0 1 0 0 2 0 2-1 0-4v-4l1-1h2v-1l1-2 1-3c0-2 0-2-2 1s-4 5-4 3l1-1a3 3 0 001-4l-1 2-1 1-1-1c0-2 2-4 4-3l1-1-1-1h-1v-2h1c1 1 1-3 1-5l2-1v-1l-2-3c0-2-1-3-2-3h-1l-2 1c-2 1-2 0-2-4l-2-2-2 1-1 4-1 3-1 1a5 5 0 00-4 5l-1 2 2-1c1-2 6-8 7-6h2v3l-3 2v1h1l1 1-1 2v2l-1 2c-3 0-4 0-3-2l-2-2c-2 0-7-3-6-4l-1-1-2-1h2l2-1c0-2-3-2-5-1-2 3-3 2-3 0l1-2c1 1 3 0 4-1h-1c-4 0-6-1-3-2v-2c-2-2-2-2 0-1 2 0 3 0 3-3l-1-1c-1 1-1 1-2-1l-1-3c1 0 0-2-2-3l-2-5c0-2-1-2-13-2-10 0-12 1-11 2l1 2h1l2-1h3c3 0 3 1-2 4-3 1-5 2-6 1l-2 1h-1l-2-2-1-2h1c2 0 3-1 1-3h-4l-9-1 4 6v1c-2 0-2 0-1 1v1l-2-2V5l-3-2-2-2c1-1 0-1-1-1l-3 1h-2l-2-1 3 4c2 2 2 2 0 2-1-1-2 0-3 2l-2 4-4-8c0-3-3-5-3-3m251 1l-1 2-1 2c0 1 5 3 5 1l4-3c3-2 3-2 3 0l1 1V2c-2-3-10-3-11 0m49 3c2 5 3 6 7 3l4-1c3 0 4-2 2-2V3c1-3 0-3-8-3h-7l2 5M498 6h-3l-1 2 2 2 1 5 2 6c1 1 1 0 1-5l1-9c0-2-2-3-3-1M246 7l-1 3-2 5-1 2c1 2-3 1-5-1h-2c0 4-4 3-5-1-1-1-1 0-1 2 0 4 0 4 2 4a4 4 0 014 4h-1l1 2c1 0 1 1-1 6-1 3-3 3-4-1-1-1-1 2-1 6a27 27 0 003 13c1 1 1 1 1-1l1-2c2-2 1-7-2-7-2 0-2 0 0-1 5-1 9-7 10-17l2-1a3 3 0 001-4l-1-1 1-1 1-5V7M142 8l1 1c2 1-1 4-4 4-1-1-2 0-2 1h-1l-1-1c0 2 4 10 7 13 1 2 1 2 3 0V14l-1-6h-2m195 1c0 2-1 2-3 1-1 0-2 0-3 2l-1 2-1 2-1 2v2c1 1 2 2 3 1 1 0 2 0 2 2l2-1 2-3 4 5 4 6v-3l-1-7c-1-2-2-4-1-5l-1-2-1 4-1 4v-5a8 8 0 012-7h-1l-2-1c-1-1-1-1-2 1m36 3a2 2 0 001 4l-2 1c-3-1-5 2-4 4l1-1c0-2 2-3 2 0 1 1 0 1-1 2-2 0-2 1-1 2l1 2h1c2 0 2 0 1 3 0 2 0 3 1 2 2 0 4-5 3-6v-1c2-1 1-8-1-11l-2-1M11 14H9l-1-1v1H1v7c0 7 0 7 6 9l4 1 6-1h5c1 1 2 2 3 1l3 1c2 2 4 1 3-1l1-2 1-2c0-4 0-5 1-4l1-1c-1-1 0-2 1-2l2 2 1 1v-2l-1-2-2-1-2-1-1-1-2-2h-1l-1 2v2c1 3 1 3-1 2l-1-3c0-1 0-2-1-1l1 7c5 3-4 7-9 3-3-2-5-2-5 1 1 1 0 2-2 2l-3-1 1-1 1-1 1-2 2-1 1-1v-1c0-1-1-2-2-1l-1-1-2-1-2-1h4c2 0 3 0 2-1v-2c0-2 0-2-2 0m188 5c-3 3-4 6-3 7 0 3 2 3 3 0l1-2c1 0 2-1 2-4l3-4v-1l-2-1-4 5m206-4l-2 2c-2 1-4 3-5 6-3 4-3 5-4 4-1-2-5-1-5 1 0 3 10 12 10 9v-3c1-1 0-2-1-1v-8l1 3c1 2 1 2 2 1 2-2 3-1 2 1-2 4-3 8-2 10 2 2 4 1 5-2l2-3 1-3v-2l1 4h1v-3c-1-2 1-3 5-3 4 1 3-2-3-4v-1c5 0 3-5-3-8-2-1-2-1-2 1v5c-1 1-1 0-1-3l-1-5-1 2m-146 2l-3 1c-3 1-5 4-3 4l2-1c1-3 3-2 5 1l-1 4-4 6c-2 5-4 7-5 5-1-1-1-2 1-2 1-1 1-1-1-1s-3 4-1 5v1c-1 0-2 1-1 2 0 3-2 9-4 9s-1 4 1 6c1 2-1 3-7 2-4 0-1 1 3 2l4 2h-1l-2-1v1l2 3v2l1-2c0-3 10-3 11 0l-1 2h-3l-2 1h5l2 2-2 1c-2-1-2-1-1 1 2 2 4 1 4-1s1-3 2-3v-3c0-3-1-4-2-2a6 6 0 01-7-5v-1c1-1 1 0 2 1 1 3 3 3 4 1l-1-1c-1 1-2-2-1-4s4 1 3 3c0 2 0 2 1 1l4-2c1 0 2-1 1-2h-4l-2-3-1-2-1-1c-1 1-2 0-3-1l-3-4v-1l3-1 13-2 1 1 2-1c0-2-4-3-9-2-4 0-5 0-5-2l1-1 3-4c1-3 1-3 2-2v-3c0-5-2-11-2-9m-94 3c-1 1 0 2 1 3l2 2h-2c-3-3-9-1-9 4 0 2 3 1 4-2 0-3 0-3 3-2 2 1 3 2 1 3l-2 6c0 3-1 4-2 4-2-1-2 0-1 1s2 2 3 1c2 0 3 0 4 2l2 1a15 15 0 002-6l-2 1a2 2 0 010-4c2 0 3 0 3-2 0-3-1-7-2-6v-3c0-3-4-6-5-3m157 1v6h-3l1 1a1 1 0 110 2c-1 0-2 1-2 3-1 3 0 4 1 2h2v3c2 0 2-2 2-6 0-1 4-3 9-2h7c0-1-4-4-5-3l-3-1-2-1-3-2-4-2M41 24l-3 1h-2l-1 2c-1 1-1 1 1 1l2 4 1 3c1-1 0-7-1-7-3 0-1-2 2-2 2 0 3 1 3 2l2 1c2-1 6 1 6 3l2 1v-1c-1-2 0-3 2 0 4 3 2-1-2-4-4-4-10-6-12-4m593 7l-2 3c0 1-3 2-4 1v-1l1-1c0-2-3-1-5 1l-3 2v1c2 3 15 0 15-4h1l1-2c0-3-1-3-4 0M33 33c-1 3-1 5 2 5 1-1 1-1 1 1l-1 2c0 2-2 1-3-1l-2-3-5 5 6 4 5 1c4 2 7 2 7 0l-2-1c-3 1-4 0-2-1v-3c-1-2 0-3 1-4s1-2-2-2-4 0-3-2v-3l-2 2M1 34c0 4 0 4 3 3 2-2 3-2 5 0s5 2 7 2c6 1 7 0 5-2-2-1-2-2-2-3 1-2 0-2-6-2L3 31c-2 0-2 0-2 3m60 0c-1 4-3 5-3 3l-1-2h-2l2 2c1 2 1 4-1 4l-1 3c1 4-2 5-6 2h-2l-1 1-2 2h4l8 1c2 0 2 0 2-2a6 6 0 015-8l-1-1v-6c-1-1-1-1-1 1m590 3c-5 3-6 4-3 6 1 2 4 1 4-2l1-2 1 1c-2 2 2 1 3-1 4-4 0-5-6-2m-39 3v3h1l1-1v2h1c1 0 2-1 1-2 0-2 0-2 1-1s2 2 4 1l2 1c1 1 0 1-1 1l-3 1c-1 1 0 1 1 1 2 0 3 1 5 3 1 3 1 3 1 1l1-3v-4c-1-3-1-3-6-4h-7l-2 1M5 40c-4 1 7 7 15 8h3l-2-1c-1 0-2 0-1-1 0-2-1-2-6-4l-6-2H5m363 1l-1 6-1 7c-1-1-3 2-3 4s5 8 6 8v-1c-1-3-2-7-1-8l1 1v1c2 0 3-2 1-3-1 0-2-2-1-8l-1-7m-90 1v1l-2 1 1 1c1 1 2 2 1 3l2 1 3-1h1l2-1 3-2 3-1-2-2-4-1 1 1v2a6 6 0 01-6 0c2 0 2 0 1-2l-2-1-2 1M93 42l1 4 1 3-3-2c-4-1-6 0-3 2v1c-1-1-5 3-4 4 0 1 2 2 5 1 3 0 5 0 4 1-2 0-1 2 1 2l3 2h5l-2-3-2-2a1 1 0 11-3-1c0-1 0-2-2-2s-3 0-3-2h4l1 1c1 1 4 0 4-2 0-1 1-1 2 1 2 3 2 4 1 4v3c1 2 3 1 2-2l1-1 2-2 1-2 1 1c-1 1 0 1 1 1v-2c0-3-1-4-2-2h-3l-4-3-5-2-4-1m545 4c-4 7-4 7-2 8l3 2 1 2h1c1-2 2-3 1-4-1 0-1-1 1-2v-1c-1 1-2 0-2-2s1-3 2-1l4 1c3-1 3 1-1 4-2 2-2 3-1 3l2-1 1-1v2h1l4 1c3 1 3 1 3-1-1-2 0-2 1-2 4 0 8-5 4-6h-1l-2 1c-2 0-2 0-1-2 0-3-1-4-5-2-2 2-4 2-4 1 0-2 0-2-5-3-2 0-3 1-5 3m-134 2h-2l1 2c3 4 3 7 0 5-2-2-5 1-5 4l1-1c1-1 2-2 4-1s2 1 1 5v2c3-1 2 1 0 3l-3 3c0 3 2 2 2 0l2-2 1 2v1l3-5a8 8 0 015-8h-1l-1-2-1-2c-2 1-4-1-3-3l1-2-5-1M77 51l-3 4c0 2-1 2-6 2-4 0-6 0-5 1l2 1h3c6-1 8-1 9 1s2 1 2-2c0-2 0-2 1 0l1 2 1-3-1-6c0-3-1-3-4 0m308-2l-3 1-4 1c-2 0-3 1-1 3 1 2 2 2 4 1h3l3-1h3c1 1 4 0 4-1l-5-1v-1c2-3 0-3-4-2m-108 2v2c0 3 5 5 7 3a3 3 0 00-2-4l-2-1h-3m189 3v5h-3c-1-1-1-1-1 1 2 3 2 4 0 3v2a2 2 0 003 2c-1 2 2 3 4 2 1-1 1-1-2-1-2 0 0-5 1-5l2 1c-1 2 0 2 1 2l2 1h3c3 0 5 2 2 3-1 1 0 1 1 1 3 0 4-1 1-3v-4c0-2 0-2-1 0l-2 2v-2h-5c-1-1-1-1 1-1l2-1 3-1c4 0 4-2 1-2-8 0-10-1-10-2h4l3-1 2-1v-1c-1 0-2 0-1-1l-1-1-1 1a2 2 0 01-4 2l-1-1c-1 1-2 0-2-1s-1-1-2 1m117 3l-1 3c-2 0-2 1-2 4 0 4 1 5 3 3v-4l3-1 4 2h1l-1-2c-1-1-1-1 2-4s3-3 1-3l-2 1a7 7 0 01-7 4l1-1 3-2h-1c-2 1-2 1-3-1-1-1-1-1-1 1M39 58l7 7 6 7 3-3c2-3 2-3 0-5h-4v-2l-1-1-3-1-4-2h-4m-9 1l1 2c2 0 3 2 2 4v2c1 1 2 3 1 5v5l-1-2c-1-4-2-5-4-5-7 0-9-1-8-6l-1-1-1 2v4a1 1 0 101 2l6 2c5 4 5 4-1 4-4 0-5 0-6-2-1-3-1-3-2-1h-4c-1 2-6 0-5-2H7c-2 1-1 3 5 5 4 2 4 2 2 3-2 0-2 0-1 2 2 3-3 2-6-1l-3-3c-3 5-3 5-2 7l3 2c1 0 2 1 1 2h3l1-2c-1-1 1-1 3 1l1 1-3 2h-1l-1-1-1 1v2c-2-1-3 0-2 1 2 2 5 2 5 0l2-1c3-1 1 1-3 3l-7 2-3 1 3 1c4 0 4 1 1 4l-2 2c-1-1-1 0-1 1 0 2 0 3 2 2l2 1v1l1-2c-1-1 4-9 6-9v-1c0-2 1-2 3-2l1-1c-1-1 0-1 1-2l2 1 2 2v-2c-1-1 0-2 1-3s1-1-2-1h-3l3-1c2 0 2-1 2-2-1-2-1-2 2-2h2c-1-2 4-3 6-1h2v-1l-2-1c0-2 3-1 4 1 1 3 4 1 3-3h1c2 1 3 0 8-5l2-3-6-6a18 18 0 00-9-7l-1-1-2-1-2 1m299 2l-2 1c-2 0-2 2 0 2a3 3 0 010 4l-6-3c-3 0-2 3 0 6l2 2 2-2 2-2c1 1 3-1 3-5 1-5 0-7-1-3m56 5c0 7 0 8-5 8-5 1-6 4-2 4 3 0 8 2 8 3h-2l-4-1v1l3 4c3 4 5 4 4 0v-4l1-2v-1l1 2c0 2 2 1 5-1s4-11 3-13c-2-3-8 3-8 7-1 4-2 5-3 3v-1l1-3 1-3c2 0 5-5 4-6l-3 1c-2 1-2 1-2-1v-2c-1 0-2 2-2 5M61 63l1 4v5l-2-3-1-3-3 4-1 4 3 3c3 2 8 1 10-2l3-1h3l-2 2-4 3-2 1-2 1-2 2-2 1h8l1 1a2 2 0 11-3 0h-1l-2 1h-3c-2-1-11 4-18 10-4 4-5 5-3 6v-1l1-1h1c-2-2 6-3 9-1h4c-1-2 0-2 1-2l3 4c0 2 0 3-1 2h-3c-4 1-2 2 4 2 3 0 5-1 5-2l-1-1-1-1-1-2-1-1c0-3 2-2 3 0 0 3 0 3 2 1h6c3 1 4 0 1-2v-1l3 1v1c0 3 5 7 9 8a13 13 0 017 1l2 1v3l-2 2h2l3-2v-2c4 0 8 0 9 2 1 1 2 1 2-1h1v2l2 3c1 1 1 1 1-2l-1-3h7c5 0 6 0 5-1v-1l2 1 2 1c3-1 6 1 4 2v1l2-1h3l2-1-3-1v-2c2-1 0-3-3-3l-2-1-1-2c-1 1-6-5-9-10-2-4-2-4-2-1 0 2 0 2-1 1-2-2-2-2-2 0v2c2 1 1 2-2 2-1 1-2 1-1-1 0-2 0-2-2-1l-1 1-1 1h-8v-1c2 0 2-1 2-4a4 4 0 011-4c0-2 1-2 3-1l5 3 4 2-4-3a14 14 0 01-5-6v-4l1-4 1-1 1 2 2 3v2c-1 1 0 3 2 5 2 1 2 0 1-5l1-5c2 0 2 1 2 2 0 5 0 6 2 5 2 0 2 0 2 2s0 2 1 1v-5l1-2h-1l-1 1 1-3c1-2 5 5 4 8h1l2 1v4c1 1 0 2-1 2-1-1-2 0-3 1-2 3-1 3 2 1 3-1 3-2 3-5 0-4 2-3 2 1l2 3 1-2c-2-4-2-9 0-9v-2h-3a5 5 0 010-7c-2 0-1-1 2-2l2 1 2 3 2 5a4 4 0 006 3l1-2 1-1h-1l-3-7c1-2 5-1 7 1h2l1-1-1 2-1 3c0 2-1 3-3 4l-1 4c0 4-1 6-4 6l-2 1h2l4-1 3-1h1c1 1 0 1-1 2-2 0-3 2-4 3s-2 2-3 1v2l-1 2-1 3-3 3c-2 1-2 1-1 2 2 0 3 0 4-2l5-2 2-1 1-5c1-1 2-3 1-4l1-1 1 1 3 5 1-5 1 1 2-2v-2a4 4 0 01-3-4h3c2-1 3 1 2 3l4 5 3 3 2-2c3-3 3-2 2 1s0 5 1 3h2c2 1 2 1 2-3 0-3 0-4 3-2v3l-1 2c1 0 2 0 2-2h4c1 1 1 1 1-1v-2c2 1 6-4 6-8l1-1c1 1 2 0 3-1 0-3 19-3 23 0 2 2 2 5-1 5h-1c0 1 3 2 5 0h2v1c-3 0-1 2 2 2l6 4 4 2v5l2-1h1v1h1c2 0 2 0 2 2-1 1-1 1 0 0h3c2 1 2 1 2-2l1-9-1-6v3c0 2 0 3-2 3v1c2 1 1 2-3 1h-6c-2 0-2 0 1-2 3-1 4-2 3-3-2-1-1-4 1-4s2-3 0-5-2-2-1-5c3-4 2-5-2-5l-4 1-1 2c-1 1-1 1-1-2s0-3-1-1l-3 2-4 3c-4 5-6 4-4-2v-4c-1-1-1-1-1 2l-1 3-2 1a7 7 0 01-10 0l-2 1h-3c1 1 1 2-1 2l-1-2-1-1-1 1c0 1-4 3-7 2-6 0-6-1-5-4 0-2 0-3-2-3l-1-1v-3h-1l-1 1-4 2c-3 2-8 3-8 2l-5-1-13-4c-7-2-11-3-9-1l-1 2c-2 1-3 1-3-1-1-2 0-3 1-2v-1c-1-1-2-2-3-1-2 0-2 0-1-1 1-2 1-2-1-2l-2 1h-3c-7-1-8-1-7 1l1 3c1 2 1 2 3 0 2-1 2-1 2 1 0 7-5 7-6 0l-2-4h-1v6l1 5v2l-2-2-2-3v-4l-1-3-1-2a2 2 0 10-2 2 4 4 0 011 5c0-2-2-3-2-1l-3 1c-2 0-2 1-2 4l-1 1c-1-1-1 0-1 1 0 6-5 6-10 0l-4-3c1 2 0 2-2 1-4 0-5 2 0 4 4 2 6 5 2 3-2 0-2 0-1 1l5 2 4 2c-1 1-2 3-4 3l-1-1v-1a7 7 0 00-7 6l-1-2c-1-1-2-2-5-2l-3-1-2-3c-2 0-3-2-2-2l-1-2-2-1c0-2 2-1 4 1l2 3 3-3 4-2v-1c0-1-1-2-2-1-1 0-1-1 1-4v-3h2l1-1-1-1-2-1h-4c-1-2-5 0-5 2l-1 2-1-2-1-2c-1-1-1 0-1 1l-1 2c-1-1-1 0-1 1l-1-2c-2-5-1-6 2-5 2 0 2 0 1-1-2-2-4-2-6-1m240 0v1c1 1 0 1-1 1l-3 1c0 2 0 2 2 1v1h-4l-4 1 2 1h3l-2 2-2 5c0 3 0 3 1 1s1-2 3-1h1v-3l1 1 4 3a7 7 0 014 3l1-3c0-2 0-3 3-2l4-1c1-1 5 0 5 2 1 2 0 3-2 1-1-2-1-2-2 0l-4 2h-1l2 2c-1 2 1 5 2 4v-3c1-4 6-4 7-1 2 5 2 7 1 9v1l1-1 2-1c2 0 3 0 2-4 0-3-1-4-3-4s-4-5-3-8l-1-1h-1l-1-2-1 1-1 1c-1 0-2-1-1-3 0-4-3-4-4-1v3c0 1-1 2-3 1-2 0-4-2-1-2v-2l-3-1-2-1h1l1-1-1-3h-2M86 67c-2 2-2 2-1 3 3 1 2 2-1 2l-2 1h4c4-2 6-1 7 2s5 6 7 5c0-1-1-4-3-4l-3-4c-3-7-4-7-8-5m569 2c-4 4-5 4-6 1-1-1-1-1-1 1v2c-3 0 2 2 5 2s4-1 4-5l1-2 1-1-4 2m-166-1l-3 2-4 2-3 1c-1-1-4 0-4 2h2c2-2 2-2 3 0 0 2 0 2 2-1 0-2 1-2 1-1 0 2 1 2 2 2l2-1 1-1 1-2 1-3h-1M49 76l-5 6c-5 4-3 4 8 1 8-2 8-2 3-6-4-4-3-3-6-1m322 2l-6 2c-4-1-5-1-4 1l4 1c3 0 3 0 3 2l1 4c0 2 0 2-2 2l-5 2c-2 3-3 5-1 3h5a1 1 0 002 0l2-1 1-3v-5l3-10-3 2m-219 4v4h2l5-1c4 2 12 0 10-3-2-1-3-1-2 1l-5 1-6-1c0-2-3-2-4-1m26 0l-1 2v2l1 1h-1v1c1 1 3 0 3-1a3 3 0 011-2l2 1 1 1a1 1 0 002 1l2-1c4-1 3-3 0-3l-10-2m302 3l-1 4v1c-3 0-2 5 1 7l2 1-1-1v-1c1 0 1-1-1-2s-2-1-1-3a30 30 0 005-7c1-2 1-2-1-2l-3 3m91-1c1 1 1 1-1 1-2-1-2-1-1 1l-1 2v1c3 0 2 2 0 2-2 1-2 1-1 3 2 1 2 1 1 2-4 3-5 6-4 6l2-1c0-1 4-5 6-5s6-5 5-6l-4-6-1-2-1 2M53 85l-8 1-5 2h-4l2 2 2 2-3 3-4 3-1 2 5-2a77 77 0 0118-12c1-2 1-2-2-1m160 6c0 3-2 4-2 1l-1 2v3c2-2 3-1 3 2-1 1 0 2 1 2l1-3c-1-3 0-3 1-2 3 0 3-1 0-4l-3-3v2m376 0l-3 2-1 5a5 5 0 01-1 6l1 4v3l1-6c0-7 1-11 4-12 4 0 6-3 3-3-1-1-3 0-4 1m-37 3c-2 3-2 3 0 2l3 1c0 3-1 4-2 2h-1l-3 3-3 2 1 2c2 2 2 5 0 5v-1l-1-1v3l-1 3-1 1c0 3-5 4-6 2-1-1-1-1-1 1h-1l-1-1v2l1 1h2l-2 4c-2 0-4 3-5 6-1 1-1 1 0 0 2-2 3-1 2 1 0 3 3 2 4 0h1c0 2 1 2 2 2l4 1 2 1-2-2c-1-1-1-7 1-7v2h2l1 2-1 3 2-3c2-2 3-3 0-3l-2-1a6 6 0 014-6h2v-1h-3l1-3c3-4 3-4 0-3l-2-1 1-1c1 1 3-3 2-4l1-1 1-3c0-2 0-2 1 0 0 3 2 2 1-1 0-2 0-3 2-3 2-1 3-3 1-3v-1l-2-2h-1c1 1 0 2-1 2l-1-1c1-3-1-3-2-1M79 96v3l2 2 3 1 4 1a4 4 0 016 3h3l1 1v-3c0-2 0-2 1 0l4 2h11l11-1-4-5-3-3-11 1c-9 0-20-1-27-3-2 0-2 0-1 1m363 4c0 2 4 5 5 4l2 1 1 1 3 1c2 3 3 2 2 0-1-3-1-3 2-2h2l-5-2-6-2h-2l-2-1a1 1 0 00-2 0m-42 2l-3 1c-2 0-2 0-1 1v1a3 3 0 00-1 4c0-2 0-2 2 0 1 2 1 2 3 0 2-3 4 1 2 5l-1 5c0 1-2 0-3-3-1-1-1-1-1 1l1 3v1h1l3 2 1-2c0-3 1-3 1-2 0 2 0 2 1 1v-5l1-2 1-1v-1l1-5 2-4c0-2-2-1-2 1-1 1-1 1-3-1v3l-1 4v-2c0-2 0-2-1-1-2 1-2 1-1-1 0-3-1-5-2-3m-104 3l-3 2-8 8c-1 3-1 4 2 2 4-2 5-2 9 0 6 2 8 1 6-1-2-1-2-1 0-1s2 0 1-1c-2-1-2-1 1-1 3-1 3-1 1-3s-6-2-6 1h-1c-1-2 3-4 7-3h3l-2-2c-2-2-3-2-5-1-3 0-3 0-2-1v-1l-3 2m-112 3l-1 4-1-1c-2-3-4-1-4 2v3l-1-1h-2c-2 0-2 2-3 5l-6 5 2-3c3-3 2-3-2 0l-7 2c-2 0-3 0-2 2l-1 1c-2 0-12 9-12 10l-4 6-5 6-4 4c-2 1-2 0-2-5 0-1-4-1-5 1l1 1v4l-1 6c1 2-1 1-2-2-3-4-5-6-8-6a3 3 0 01-4-2l-1 2 4 1 1 2h1c0-3 2-2 4 2l1 3-4-2h-4l1 1 1 1 2 4 2 2h-6c-1-1-1-1 0 0l2 2h2c1 0 2 2 1 5l-3 2-2 2c1 1 0 1 0 0-4-6-7-9-12-8-4 0-5-1-3-3a1 1 0 10-1-1l-4 1c-5 0-5 3 0 7 2 1 3 2 3 4 0 3-1 3-4-1l-5-5c1 1 1 1-2 3l-2 1h2c3 0 3 0 3 3 0 2-3 5-3 3s-6-2-8 0c-2 1-2 2 0 3 2 3 1 4-1 4h-1c1 1 0 3-2 2h-1c0 1-3 2-6 1-3-2-5-1-7 1s-2 2 2 2c2 0 3 0 2 1l-3 1-3 1c-2 0-2 0-1-1l1-1h-7l1 1a2 2 0 012 3l-1-1h-2c-1 3 4 8 8 8 2 0 2 0 0 1-3 0-2 3 1 2l3 1 8 1c9-1 12 0 12 3l2 2c2 0 2 0 1-2l1-1 1 3c0 2 4 2 6-1l2-1 2 2 2 1h-2c-4-1-4-1-4 1l-1 1-1 2v3l-2-3-2-2v1c1 1 0 1-3 1h-7c-2 0-2 0-1 1l3 1 2 2 1-1v-2l2 2c0 2-8 3-11 2h-1l5 1c4 0 4 0 4 5l5 1 4-1h-1v-1h2l3 2c4 0 0 2-6 3-7 1-7 1-4 3h2c0-2 0-2 3-2l5 1v2c-2 1-1 5 1 4l2 1c3 3 1 5-1 3-2-1-4 2-3 6l-2 2-1 1-5 2-5 1h-2l-2-2 2 3 3 3 1-3c1-2 3-2 2 1l1 1 2 1c0 2-1 2-3 1h-1l4 2 3 1h-1v3c0 4 1 5 3 4l1 1-3 1c-2 0-3 0-3 2l1 2 1 1-1 1c-1 0-2 1-2 3l1 2h1l-1 2v1l-1 1c-1 0-2 1-1 2l-1 4c-1 1-1 1 1 1l-3 2-6 4-3 1-3 3-4 5-4 4a8 8 0 01-6 6 26 26 0 01-10 5c1 0 1-3-1-5l-5 3c-1 2 0 6 2 5l2-1c1 1-14 15-16 15l-3 2-4 4-5 5-3 3-6 6-6 6v140h143l142-1h2l-1-2h-3c-2-1-2-3 1-2l1-2c0-2 0-2-3-2h-1v-3h3l1-1-1-1a1 1 0 11-1-1 1 1 0 10-2-2v1c-1 1-3-7-2-8l1 1 2 2v-3a1 1 0 111-1h1c1 0 2-1 1-2l1-1h2c1-1 1 0 1 1l2 3 1 1c0 2 1 2 7 2 3 1 7-1 7-2h-3c-2 0-2 0 0-1 4-2 6 2 6 9l1 4 1 3a30 30 0 001 6l2 2 1-5c0-4 0-4 1-3l1 4v4h8c10 0 11-1 10-10-1-4-1-6-4-8a17 17 0 01-6-14c-2 0-1-4 1-5 3-2 6-8 7-14a71 71 0 017-21l6-19v-6c0-3 0-3-1-1 0 4-5 14-6 14l-1 2-1 4-1 2-1 2c-2 0-3 2-2 6 0 3-3 11-7 16l-3 3c0 1-3 2-4 1l1-1c1 1 4-6 4-9l2-1c1 0 2-3 0-7 0-2-2 0-2 2s0 2-1 1c-2-3 0-10 1-9 1 0 2-1 3-5 1-7 5-19 7-22l2-6c0-3 1-3 2-3 2 0 3-4 3-9 0-3 3-6 4-4 1 1 1-1 1-6 0-8 0-8-1-5l-5 7c-4 3-5 6-8 13l-4 3-1 2c1 2 0 4-1 5s-1 1-1-1l-1 2a5 5 0 01-4 4l-1 1c-1 0-2 2-2 6l-3 13c-1 3-2 8-1 9l-1 4c-1 2-4 0-4-3 0-1 0-2-3-2-2 0-2 0-4-4l-3-5-1-3-1-2v-5c0-3 0-4-2-4v-1l2-8a193 193 0 017-44l2-2 3-3 1-2-1 3v6l-1 3c-1 0-2 1-2 3s0 3 3 0c1-1 1-1 1 2 0 2-1 3-2 3l-1 6c1 5 0 8-2 12l-1 6 2-2 2-3 3-3 2-4 1-2 2-3 2-1 1-3c1-1 2-3 2-8l1-7v4c-1 5 2 6 2 1v-5l-1-8 3 2h1l1-2 1-2c0-2 0-3 2-2 2 0 2 0 2 4l2 3 2 4c1 1 1-1 1-3a23 23 0 00-3-12c-2-5-2-11 0-10l-2-4c-6-5-8-6-10-2l-3 3v3c0 2 0 2-1 1l-2 1-2 4-4 5-5 4-3 1c-1 1-1 1-2-1l-2-2v-2a4 4 0 00-1-4h-2c-2-2-2-4 0-16a16 16 0 012-9l-1-7 1 2c1 1 1 0 1-2 0-4 0-4 2-2l1 1 1-2v-7c0-3 0-5 1-3 0 2 0 2 1 1 1-2 1-2 2 0l-1 4v1l2 4 1 5-1-6 1-5c1-1 1 0 1 1l1 3v3c0 3 1 3 3-1v-3c-2-1 0-2 3-1s3 3 1 2c-1 0-2 1-1 2h1a1 1 0 110 2c-1 1-1 1 1 4a4 4 0 003 4c0 2 12 13 20 19 8 5 10 7 5 5-3-2-3-2-3 0s-2 3-4 1h-1c-2 1 1 3 5 3 3 0 4-1 2-1l-1-2 2 1c2 2 3 2 4 0 2-2 3-9 4-14v-6c2-1 1-2-1-2l-2-1 2-1c2 1 2 0 3-5 1-6 2-7 7-12l6-7 4-4c2-2 3-3 3-6l1-4c2 0 4-3 4-4l-2 2c-2 1-2 1-2-1l1-3c1 0 3-6 2-7-2-1 0-3 2-3l2-2c0-2 0-2-1-1-2 0 0-2 3-5l2-3c1-2 1-2 2-1 1 2 0 8-1 7-2 0-4 4-3 6l-1 3c-2 1-3 4-1 3l1 2v4l-2-3-1-2v3l1 4h1l1-2c1 0 2-1 1-3 0-2 0-2 1-1l1 2c2-1 7-11 6-12l4-5 4-5-8 7-3 3 8-10c2-3 4-6 2-6l-2-4c0-4-1-6-2-6v-4c3-6 1-9-2-4l-2 3v-3c-1-3 0-7 2-8 3 0 2-2 0-2-4 2-5-6-2-15 0-2 0-2-2-2l-2 1 2 1v1c-2 2-4 0-2-4v-4l1-5 1-2 1 1v-4c0-3 1-4 2-2 1 1 1 1 1-1l-1-3v-8l-1-3c1-4-2-6-4-4l1 1 1 1c0 2-2 1-5-4-5-5-7-7-5-2l3 7 3 9v10l-1 4c1-1 2 0 1 2 0 2-2 4-2 2h-1v4c0 2 0 2-1 1v6c1 1 1 1 0 0-1-2-2 3-1 6l1 3-2-3c-2-2-2-2-2 0 1 2 1 2-2 0-2-1-3-1-1 2 1 2 1 2-2 2-2-1-2 0-2 1 1 2 1 2-1 1-1-1-1-1-1 2v2l-2-5-1-3-1-3a6 6 0 00-6-6l-1-1-1 2v2c2 3 0 3-9 3-7-1-7-1-4 1l3 2c1 2 2 2 5 0 5-1 5-2 5 5a5 5 0 01-2 7v2c-1 1-1 1 1 2 1 2 1 2-1 1l-2 1v1c-2 0-3 2-1 2v6l-2 1c-2 0-3 2 0 2l1 2h-1c-3 0-8 2-7 4l-1 1c-1-1-2 0-2 2-1 3-1 3-3 2l-3-1h-2c-1-1-4 2-3 3l2-1c2-3 2 0 0 5-3 6-6 8-3 2 1-3 1-12-1-9a6 6 0 00-1 4l-1-1c-1 0-2 3-1 4l1 1-1 1c-1-1-2 3-1 6l-1 1c-2-2 0-13 2-15v-3l-1 2-1 1c-2-1-2 0-2 1l-1 4c-2 1-1-6 1-7l4-9-1 1c0 2-3 5-4 5-2 0-1-4 1-5 2 0 3-2 1-2l-2 1h-2l-3 1-1 2c-1 1-2 0-1-1 0-3-3-3-5-1l-2 3 2-1 1-1v2l-3 4v2l3-2c5-4 6-4 6-3l-1 1-4 3-4 2-1 1v5c0 3 0 3-1-2v-8c1-2 2-3 1-4l-2 2c-1 2-1 2-1 0l2-2 1-2h-2v-2c3-2 3-3 2 0l1 1c2-1 3-6 2-6l-1-6-1-6c-1 2-3-1-1-4l1-4 7-8a5 5 0 002-5l-2 2c-1 0-2-1-1-2 1-3-3-2-4 1l-5 7c-4 5-5 8-2 5l2-1-2 2-2 5c0 4 0 4-1 2h-2l-2 1 1 2 1 2-2-1-1-1-4-3-3-3-3-12c-6-18-5-28 4-32l3-3 2-2c4 0 9-2 9-3v-2l3 1c1 2 3 2 3 1 2-1-1-2-8-2-5 0-6 0-10 3s-4 3-3 1c0-2 0-2-1-1l-3 3-1 2-1-1v-2c-1-1-2-23-1-35 1-7 5-18 8-20a7 7 0 001-4l-4 1c-3 0-7 3-7 5l-2 2-3 5v5l-3-4-9-10a17 17 0 01-7-11c-1-1-1-1-1 1 1 2-1 3-3 1l-4-2-6-2-10-2c-10 0-16-1-18-2-2-2-17-1-22 1l-6 2c-1-1 1-3 3-3v-4l1-1-3 2m155 0c2 0 1 2-1 2h-2c0-1-1-1-2 1h-2l-2 1h9c0 1 1 2 3 2l5 3 6 3 6 5 3 2 1 1 3 2 1 1c0 2 5 6 7 6l-3-4-5-5-1-1c0-2-1-2-4-2l-1-2v-1l-1 1v-1l-1-2-4-5-6-3c-4 0-7-1-6-2l-3-3v1m140 2c-1 2-2 2-4 2-3-1-3 0-4 2 0 4-4 4-3 0 0-2-1-3-2-2-3 0-2 8 1 7 2 0 2 0 2 3v1c1-4 7-6 6-2a3 3 0 01-3 2c-2 1-3 3-4 6 0 3 2 3 4 0 1-2 3-1 6 1l4 2c3 0 3 2 2 6-2 4-6 6-7 4v-2h-2c0 1-1 1-2-1-1-1-2-1-2 1l-1 2 2 1c3 1 4 5 1 7-2 2-2 5 0 5s2 2 0 4c-1 2-2 2-5 2s-4 1-4 2l-2 2-4 4c0 2-3 2-4 1l-2-2-2-1h6l1-1c2 0 5-5 5-6-1-1-3 1-2 2 1 2-5 3-7 2h-6l-1 2-1 2c-2 0-3 4-1 5h2c-1-1 0-2 1-2l1 1c-1 1 0 2 1 1v-4l6 5-2 1h-3c-2 0-2 0-1 1v1l-3-1c-2-2-2-2-3-1l-1 1-3 2-2 1c-2 0-1-2 1-2h1l-2-1c-3 0-4 4-2 4v1c-1 1-1 1 1 1a5 5 0 005 0h18c2-1 2-5 1-7-3-3-1-7 2-6 5 0 8-1 5-2-2-1-1-1 4-2l3-2 3-4 5-8c0-2 1-3 1-1a3 3 0 103-2c-3-1-3-3 1-7a3 3 0 015-1l2-6c2-4 2-4-5-4-5 0-6-1-8-3-3-3-4-4-3-1h-1v-4c1-4 2-5 4-2l2 1 4 3 2 2v-3c-1-5-3-9-4-9a1 1 0 000 2l1 2-2 1c-3 0-5-2-3-3 1-1 1-1-1-1h-2l2-2c2-1 3-2 2-3-2-2-2-2-3 0m168 0l1 2c3 0 2 5 0 6-1 1-2 2-1 3h2c1-1 2-1 2 1 0 1-2 1-6-1-3-2-4-1-2 2 2 1 3 3 1 3l-1-1a2 2 0 10-2 2h-2c-2-2-2-3 0-4h-2c-1 1-2 2-1 3v5c0 2 0 2 1 0l3-2 3-1 1-1v4l1-1h1l-2 2c-2 1-3 3 0 2v1h-7c-2 1 0 4 2 3l2 1c2 2 3 1 3-1s1-3 3-1c1 2 3 1 3-1 0-4 0-5 1-3 1 1 1 1 3-1s2-4-1-4l-2-1c0-1 1-2 3-1 1 1 2 1 4-1v-5l-1-2-2-2-2-2h-1c0-1 1-2 3-2 1-1 1-1-2-1l-5-1h-1m11 0l1 1 1 4 2 3c2 1 2 1 2-1s0-3 2-2c4 1 2-2-3-4l-5-1m-94 2v2l-2 2c-2 0-2 0-1-2l-1-2v7l1 4h1v-3c-1-2 2-4 5-4l2-1c0-2-5-4-5-3m-536 3l-2 2c1 2 0 4-2 4-2-2-1 1 1 2 2 2 2 2 2 0l3-2 1-1c-1-2 2-4 4-3h1l-1-2h-7m550 1l-2 4-2 1c-2 0-3 2-1 2 1 1 0 1-1 2-2 1-2 1 0 2l2 2a2 2 0 003 2h-1c-2 0-2-1-1-3 1-1 1-1 3 1s2 3-1 4l-1 2 2-1 2-1c2 0 2-2 0-4-3-2-3-3-2-5v-3c-2 0-1-2 1-4l2-2-3 1m-141 1c0 2-3 4-4 3l-1 1h-1v1c0 3 0 3 4 3l4 1h1l1 1-3 2-2 2-1 3c-1 1-2 2-1 3h-1c-1-1-2 0-3 1 0 2-2 4-4 6-3 4-3 4-1 3l3-3c1-1 3-1 4 1 2 2 9 3 9 1l-1-1c-1 0-1-1 1-1 2-2 3-2 2 0l1 1 1-1a14 14 0 010-4h-2c0-1-1-1-2 1l-2 1-3 1c-5 2-5-1 0-6l3-5c0-1 1-2 2-1l1-1 1-2 1-1c0-1 0-2 2-2s3 1 1 3a1 1 0 102 0v-1c2-2 2 2 1 5l-1 2c1 0 2-1 2-3l2-4 1 1v2l1-1 2-2c3-2 0-3-8-3a20 20 0 01-9-2c-1 0-2-1-2-3 0-3-1-4-1-2m-401 5l-1 5-1-1-3-1 1 2v5h-1c0 2 1 2 3 1 1-2 1-2 1 4l2 5v1c-1 1 0 1 1 1h3l1 1-1-2-3-6-1-4 1-8v-4l-2 1m374 4c-2 1-2 1-1 2v1l-1 2c0 3-1 2-1-1-1-6-2-1-3 6v11c-1 3 1 4 2 0l2-3-1-1a1 1 0 11-1-2l1-4v-3l1 5h1v-6l1 2c2 1 2 2 1 4l-1 3 2-1 1-6v-2c1 0 2-1 2-4 0-4-2-5-5-3m199 2h-2c-2 0-4 5-4 7 1 1 0 2-1 3h-7l-3-1c-1 2 2 3 5 3h8l1 3 1 1 1 1v-6c-1-1-1-1 0 0v-1l-2-1-1-1v-2l-1-2 2 1c1 1 2 2 3 1l1 4 1 1c1-1 2 0 2 1 1 3 4 3 7 0 2-2 2-2 1-3-2-2-4-2-4-1s1 2 2 1v1c-1 1-5 0-5-1l1-1 1-1c1-2 1-3-1-2l-2 2-1 1v-2c0-4-1-7-3-6m-146 1l-1 1c-2 0-2 2-1 4v2c-2 1-2 5 0 5l1-2c-1-1 3-7 4-6l1-2a2 2 0 00-4-2m100 1h-4c-3 0-3 0-2 1l1 2-2 1c0 2 3 5 4 5 2 0 1-2-1-3-3 0-2-2 2-3 3 0 6 3 4 4l1 1 1-1 2-2v-3h-3c-2 0-3-1-3-2 1-1 0-1 0 0M1 135c0 4 3 7 5 4l2-1 4-1 5-2c4-2 1-2-4-1H8l-4-2c-3-1-3-1-3 3m213-3c-14 2-14 2-19 6-9 8-13 17-23 46-6 18-7 24-5 40 1 5 1 5-1 4-3-2-3-1-3 2 1 2 0 3-1 3l-1 2c0 3 3 6 5 6l1 3c-3 11 1 36 5 32l-1-2c-2-1-5-21-3-28 1-10 5-1 5 12v9l1-6 1-4a407 407 0 010 48v7c0 9 29 24 45 23h6l5-12 7-21c2-7 3-8 6-10 17-12 31-37 31-56l1-3-1-27c-1-8-2-11-5-16l-2-4c0-2 2-1 3 2l2 3v-3c0-8-4-23-9-32-6-13-19-21-32-21-4 0-9-2-8-3h-10m371 0a49 49 0 00-1 6h3l2 1c2 2 2 3 1 4l-1 2 1-1 3-1c3 0 6 2 5 4v1c2 0 2-4-1-5l-6-4-4-2-1-4-1-1m-11 2l-1 2 3 3c4 2 5 2 2 3-2 1-1 2 5 5l6 2-2-3-2-2v-1l-2-1-1-1-4-3c-3-1-4-2-3-3v-2l-1 1m-442 4c-2 2-9 3-7 1v-1l-2 2c-1 1-11 3-11 1h-2c-3 2-2 3 2 3 5-1 10 1 7 3v1l2-2 2-2-1 2c0 3 2 3 3-1 1-3 6-5 7-2l2-1v-2l-1-2h-1m423 1v2l-1 1c-1 0-2 0-1 1l2 1h1l-4 2-1 1-1 1-1 1h-3c1 1 0 2-1 2a2 2 0 001 4c1-2 3-1 3 1l1-1c1-2 2-2 5-2a4 4 0 005-1l1 1-1 1c-3 0-2 4 2 7 3 3 8 3 8 0l2-1c2 0 2 0 1-1a3 3 0 113-4c0 1 7 3 8 2l-2-2-1-1-1-1h-3l-2-1 1-2c2-3 2-4 0-4v1c0 1-2 4-4 4l-2 3-3 3 2-3v-3c-2 0-3-2-1-4v-1c-3 0-4 2-3 4 1 1 1 1-1 1s-2 0-2-2c1-1-1-4-4-5l-2-2c1-1 0-4-1-3m-142 9v4c-1-1-3 0-4 1l-3 1 3 1 6-1c1-1 2-2 3-1l1 1 1-1 1-1 1-2h-2l-1-1c3-4-3-5-6-1m216 4l-4 1a7 7 0 00-8 5l-1-1-2-1c-2 0-2 0-1 1 2 2 8 3 8 1 1 0 1-1 0 0l-1-1a5 5 0 015-1v1l1-1 3-1c4 0 6-2 4-3h-4m-75 7v2c-1 3-1 3 3 4 4 0 8 3 7 5v5l-1-1-1-2c-1 0-1 1 1 3v5h-2l-1 2c1 2-3 5-6 3v-2c2 0 2 0 1-1v-2c3-3 3-2 3 1v2c1 0 2-4 1-5l-1-3c1-4 0-4-2-1l-1 1c0-3-2-2-2 1l-3 2-1 2c0 2-2 1-3-2l-1-3-2 2v5l1-2 1 1v3c-1 0 1 6 3 6l3-2c2-3 4-2 3 2 0 4 1 6 4 4v-2l-2-2h3l3-1c2 1 3 4 1 4l-4 2c-2 1-2 1 0 3l2 3c0 2-2 1-3-1l-2-1-3-1-4-1h-1v-3l-2-1-1-2h-1c-1 1-1 1-1-1v-3l-1 2c-1 3-3 4-3 2s-3-1-4 2c-2 4-2 5 2 5 2 0 2 0 0 1-2 3-5 2-4 0l-2-1-4 1-2 1 2 1 1 1 1 1c2 0 3 3 3 5l-7 1h-3c2 0 2 1 2 3 0 3 2 4 3 1 1-2 1-2 2-1 1 2 1 2-1 3v2l2-1c2-1 5-1 6 1 0 2 3 5 6 8 4 5 5 6 4 7l-2-1-2-1c-3 0-7-3-10-6s-8-6-6-3v1h-2c-1 1-1 0-1-1 0-5-2-6-6-5-4 0-5-1-2-2 2-1 2-1 0-1-3 0-4-1-1-3 1-2 1-2-3-2-3 0-4 0-4 2h1c1-2 3 0 3 3s0 3 4 5l4 2-3 2-4 3c-2 0-1 5 1 11s2 6 8 6c4 0 3 1-2 2-4 2 2 4 9 4 6 1 22 5 24 7 3 3 10 5 12 4l3-1v3c0 4 0 4 3 1l2-1h8l4 1c1-1 2 0 3 1l2 1-1-2a3 3 0 114-1c-1-1-1 0-2 2v6l1-2 2-2h1v4h-1l-1 2-2 5-3 4 2 2a16 16 0 006 5l-2 1c-2 0-3-1-3-2l-2-2-3-1c0-3-2-4-5-4s-4 3-2 4l2 2h-4l-1-3c-1-12-1-12-5-12-2 0-3 1-3 2l-3 3c-1 2-2 3-1 4 0 2-3 3-4 0h-2c-3 0-6-1-4-3s2-3 1-3c-1 1-2 0-2-1v1l-1 3-1-2c0-1 0-2-1-1 0 2-2 1-5-2-2-3-3-8-1-9v-2l-1-2-2-3-1 1v3c2 2 2 2 1 4v3l-2 1-5 3c-1 1-1 1 1 1h2l-3 1h-2l2 2c1 1 3 2 4 1v1l-3 2v1h4c4 0 3 3-1 4-1 1 0 1 1 1l2 1c0 3 4 6 7 6l3 1h7c2 1 2 5-1 5l-1 1h3c1-1 7-2 8-1l-1 1c-3 0-2 1 1 5 2 3 3 5 0 5l2 4c3 3 4 3 5 2h1c-1 3 13 15 16 14l3 1-2 1h-2c0 2 5 8 6 8l5 2c3 3 6 2 6-1l1-1h7l-1 1v3c2 2 2 3-3 0h-4c-1 2-1 5 1 5l1-1a1 1 0 112 1l1 1 1 1-1 1c-5-2-8-2-8 0h2c4 0 7 2 7 5 0 1 0 2 2 1 1 0 2 3 0 5l-1-1-2-1-1-1-1-4c-2 0-2 0-1 4l5 4c2 1 2 2 2 3-2 5 6 9 8 5l3 1c1 2 1 2-1 1-3-2-4 1-1 7 1 3 3 9 3 14 1 7 2 9 3 9 2 1 3 3 1 3l-1-1h-1c-2 2 0 9 2 9 2 1 2 1 0 2-3 0-2 6 1 19l4 24 5 28 2 15c0 4 4 11 5 11l2-1a2 2 0 013 0l15 1h15v-33c0-32 0-33-2-35l-2-2h2c2 1 2 1 2-4l-2-7c-1-3-1-5 1-5l1-31v-35c1-4 0-5-2-6-1-1-2 0-1 1l1 1-1 2-2 2v-4c1-1 0-4-2-6l-1-2h2l3-1c2 0 2 1 0 2h-2l2 2c3 2 3 1 3-8 1-8 1-9-1-10s-2-1-1-2h2l1-15c0-12-1-16-2-15l-4-1c-5-1-6-4-3-3h3c-1-1 0-1 3-1l2 1-2 1h-1c1 2 4 1 4-2l-1-3-2-2c-1-3-1-3 1-2 1 1 1 0 1-7l-1-9v-2c1-2 1-2-1-1l-2-1c0-2 1-2 2-2h2v-3c1-3 0-4-1-3l-1-3c1-3 1-4-1-4l-3-1-3 2v2c2-1 3 0 2 1s-4 0-6-1l-4-6c0-2-4-2-7 0l-3 2-2-2c-3-3-4-6-2-6l1-1h-2a4 4 0 01-4-3c2 0 1-2-1-2l-3-1h-3c-2 1-3 1-4-1-2-3-1-3 2-2 3 2 3 2 5 0 1-2 2-2 5-2 1 1 3 0 4-1 3-2 5-1 3 1l-1 2 7 6c5 6 7 8 8 6h1c0 1 2 3 5 4 7 3 8 3 8-1a53 53 0 00-1-17c2-6 2-11 0-11l-4 1-1-1c0-2 1-2 2-2h1v-3l2 2c1 4 2 2 2-2s0-5-2-4v-1l2-5-1-7c0-3-3-5-3-2l-2 1a2 2 0 00-1 3l1 1v5l-2-2a1 1 0 10-2 2h1l1 1-2 2c-2 0-2 0-1 1s1 1-1 3h4c1 1 1 1 1-1l2-1c1 1-2 5-4 4l-2 1h-1l-1 1v4c1 1 2 0 1-1l2-1c2 0 2 0 1 1-1 2-1 2 1 3 2 0 3 1 3 3s0 2-1 1l-3-3h-3c-2-1-2 4 0 6v1c-5-1-8 1-4 2h-1l-4 2c-1 2-1 2-1 0l-1-4c-1-1-1-1 1-1l-2-1c-4-2-5-4-3-4l12-6v-3c-1-1 0-4 1-4l1-2 1-2v-1l-3 1h-2c-1-2-1-2 1-2s3-1 3-2c2-3-2-3-5-1h-6c-4-1-5-1-1-1l8-3c0-1-13-1-13 1v2c-1 2-5 3-6 2h-1c-1 2-1 3 1 3l3 2 1 3c1 3 1 4-1 2l-8-1 8 4v1h-3c-2-1-8-2-9 0-3 3-2 10 2 11 2 1 2 1 1 2-1 2-2 2-3 0-2-2-5-2-5 0h-1l-2-2-4-2-1-2h4c4 1 6-1 2-2-3-1-2-3 0-3h3l-2-1c-2-1-3-1-3-3l-1-2-1 1h-2l-3 1-1 2h-1a3 3 0 005 0h2c2 2-1 6-4 6-6-1-9 3-6 8v1l-2-3-2-3c-2 0-3-2-4-3l-2-2c-4 0-5 0-4-2l-1-2-1 1c0 1-2 1-7-1h-5l-3-1c-1-1-1 0-1 1l-1 3-1-2c3-2 0-4-8-5l-7-1-3 1h-4a1 1 0 10-1 1v3h1l1-1 1 2c-1 1 0 3 1 6 3 4 4 5 2 5l-3-5c-1-3-3-5-4-5l-1-2v-3l-1-1-1 1h-3c-3-1-4-7-2-9l1-2c-1-1 1-2 7-3l7-1v-2c-1-2-1-2-2 0h-2v-3c-2-1-2-2-1-3l2 1 3 3h2v-1l1-2 2-3 1-2 1-3a2 2 0 00-2-2l-3 1-2 1-4 1-5-1 2-1 2 1v-1h1c1 1 2 0 4-2 2-3 8-4 8-2l1 1-1-3v-2l1 1 1 1c2 0 1-2-2-3l-3-2h1c2 2 3 1 2 0l-4-2-3-1 1-1h2c0-2-3-2-4 0h-1c0-2 1-2 2-2v-3c2-2 1-3-1-2s-4 0-9-2l-2-2-1-2-1 1m-54 3c-4 3-5 8-2 8l2 1-3 1c-3 0-3 0-2 2l3 1v1l-2 1h-1l4 2a4 4 0 014 4h4l-2-1-2-2-1-2-1-1h1l1-1-1-2v-2c0-1 0-2-2-3-1-1-1-1 1-3l1-3 1-2 1-1-4 2m13-1l4 2 2 1 3 5v-2c2 1 2 2 1 5-1 2-1 2 1 1 4-1 3-5 0-7-2 0-3-2-3-3s0-2 1-1l1-1h-6a2 2 0 01-4 0m-82 3c1 5-1 7-3 2v-2l-3 2c-2 2-3 3-2 4s1 1 2-1c1-4 3-3 2 1l1 4c1 1 1 1 1-1-1-1 0-2 1-3 3-1 4-4 2-6h-1m115 1h-7l2 3c1 1 1 1 0 0l-2 1-3 1-4 1 2 1c2-1 2-1 0 1-3 2-3 2-2 6h2l-1-3c-1-1 1-2 3-2l2-2 3-2 2-1 3-3c2-1 3 0 0 4v2l3-3c0-2 1-3 2-3h3l-3-1c-2 0-3 0-2-1 0-1-1-1-3 1m81 0c1 3 0 7-4 8v1l4 1c1 2 5 2 6 0h-2v-1c3-3 2-3-1-1-4 2-5 1-2-4l2-4-3-1v1m-286 4c-5 3-7 5-4 5l3-1c0-2 3-3 3-1h16c5 2 6 1 3-2l-1-1v2l-14-4-6 2M6 169v3l-1 4v1l2-1h2l-2 3a2 2 0 102 1l2-2c1 0 2 1 2 4 0 5 3 7 4 2v-1l-2-2 1-2 2-1 1-1 1-2c0-3 0-3-1-2h-3l-1 1v1l-1 1h-2c-1 0-1-1 1-3l1-2-2-1 1-1 1-1-3 1c-2 2-2 2-3 1l-2-1m641 1c3 3 3 4 0 4-2 0-3 1-3 2l-1 1c-3 0-2 2 1 3l3 1c0 1 1 2 3 1v-2c-2-1-3-3-1-3 3 0 4-4 2-5l-2-2v-1l-3-1 1 2m-547 5c1 1 0 1-2 1-1 0-2 1-2 3l2 2 3 1h3l4-2 3-2-4 1c-3 2-6 1-5-2h1c1 2 2 0 1-2s-5-3-4 0m92 6c-4 0-5 2-1 2l14 1h2v-1c4-2-8-3-15-2m54 1c0 3 1 4 5 3 14-1 15-3 2-4l-7 1m252 2l4 4 5 6c0 1 0 2 1 1v-6c2-1 2-2-2-3l-5-1-2-1h-1m17 2c-2 0-2 0 0 3s2 4 1 4l-3-3-2-3-1 3c-1 3 2 5 11 5l2 1c0 2 7 1 8-1 1-1 1-2-1-2-2-1-3-1-3 1 1 1 1 1 0 0l-2-1-2-1 1-1c1 1 2-3 1-4s-1-1-1 1 0 2-1 1l-3-2-2-1h-3m-439 7v2c2 2 1 3-1 2l-3 1 3 2 2 1 2 2v-6c-1-3 0-4 2-2l4 1 4 1h2c3-2 2-3-4-3l-7-1h-4m119 3c-4 1-10 5-7 5l3-1h3c1 2 2 2 5 2 4-1 6-3 3-3-2 0-3 0-2-1h2l2-1c1-2-5-2-9-1m52 0c-4 0-7 3-6 4h2c2-2 3-2 3-1l4 3c5 0 7 0 7-3 0-2 1-1 4 2 3 2 5 2 5 0s-13-6-19-5m-226 3l3 1 3 1 5 3c5 2 8 2 8 1h-2l-4-2-4-2h-1c1-1 0-2-4-2h-4m455 5l-2 2-2 2h5l2 3c1 1 1 1-1 1l-2-2-1-1h-5c-4-1-7 0-7 1l2 1c1-1 1-1 0 0l-2 2c-1 2-1 2 2 2l2 1h-4c-3 0-4 2-1 3l2 1 3 2c4 1 6 0 5-3l2-2c2-1 3 0 1 1s-1 4 2 4c2-1 3 1 1 2l-2 2c0 4-2 6-5 5-3 0-3 0-1 1s2 1 0 2v3c1 2 1 2-2 2l-3 1 2 2c2 1 3 3 2 4l2 1c2 0 3-2 1-4v-1h3c2-2 3-2 3-1-1 1 0 2 3 1 2 0 3 0 2 1-1 0-2 1-1 2h1l2-1-2 3-1 2c1 0 2 1 2 3l1 2 2-3v-2c-2 3-2 1-1-4 1-4 1-4-1-4-1 0-2 0-1-1l2-1h2c0 2 2 1 2-1l-1-2c-2 1-3-2-1-3l2-2 1-3 1 1 1 2c1 1 2-1 1-6l1-1h2l2-1c1-1 1-1-1-1a3 3 0 011-5c1 2 2 1 1-1 0-2 0-2 3-3s4-5 1-5l-15 4-1-1c-1-4-2-5-5-4s-5 0-6-3h-1m-457 7c-2 1-1 3 2 4 2 1-2 1-5 1v1c2 2 2 2 0 3-1 1-1 1 1 2l4 1c2 2 15 2 14 1l2-2c3-1-2-4-7-4-4 0-5-1-3-3 2-1-6-5-8-4m581 1c-1 2 0 3 2 2h1l2 2 5 2 5 1 2 1c1 3 2 2 2-2 0-5-3-7-6-4l-2 1c0-2-3-3-3-1l-1 1v-1c1-3-5-4-7-2m-159 1l-3 1-5 2a5 5 0 01-7-2c-2 0-1 2 1 3s2 1 0 1c-3 0-4 1-2 3h3c0 3-4 4-7 2h1c2 0 2 0 1-1-2-3-4-2-4 0 0 3 4 7 5 4l2-1 3-1h3c2 1 2-2 0-4l-2-2h2l11 3 4 1 2 3c0 2 1 3 3 4l2 2a8 8 0 006 6h1l-3-3c-5-2-3-4 3-3l1-1-3-1-4-1c-2-1-2-1 2-1l5 1h2c0-1-3-5-4-4v-1c0-1 0-2-2-2a3012 3012 0 01-10-1c-8 0-6-4 1-4 3 0 4-1 3-2-1-2-2-2-3 0-2 1-2 1-2-1h-6M3 214v6-1l-1-1-1 4v4h6l7-1c1-2-3-7-5-6-2 0-1 2 1 2l-5 2H3l3-1c2 0 2 0 1-1v-3l-1-1v-2c0-2-1-3-3-1m433 9c-5 2-5 5-1 7 4 1 5 3 2 2h-2c0 2 3 4 6 4l3 1h7c1-2 1-3-1-3-1 0-2 0-1-1h-1c-1 1-2 1-3-1-2-1-2-1 0-2v-2l-1-1-4-5-4 1m128 0l6 3c1 0 2 1 1 2 0 1 0 2 3 1l4 2c3 2 2 3 0 3-3-1-5 1-2 2 2 1 3 2 3 4 0 5 1 5 1 1l1-4h2c1-2-1-6-3-7l-2-2-2-1-4-1-4-2-2-1a1 1 0 00-2 0m27 1l-3 2-2 1c-2 1-2 4 0 5l3-2 4-3v-1l3-3c2-1 2-1 0-1l-5 2m-552 0a3 3 0 001 6l-3 1-1 2c0 2 1 2 6 2l6-1a5 5 0 00-6-4l1-1c2-1 2-1 0-1-3 0-3 0-1-1 1-1 1-1-1-1s-2 0-1-1v-1h-1m274 1c-5 3-6 5-5 8 1 2 1 3 3 2 3 0 4-2 2-2-2-1 1-6 2-6l3-2c3-3 1-2-5 0m-289 3h-4c-2-1-4 1-3 3 1 1 1 1-1 1-1 0-2 0-1-2l-1-1-1 2-2 2h-1v-2l-1 2H6l-2 1c-2 0-3 1-3 2l2 1c2 0 1 2-1 2l2 2 4 1H4l-3 1h7l4-1c4 1 5 0 3-2h-2l-1 1c-2-1-2-3 0-4l1-1c-3 0-1-2 2-2l2 1 3 1 2-1c-1-2 0-3 3-4 2-1 2-1 1 1h2c4-2 5-4 1-3l-3-1c1-1 0-2-1-2s-2 1-1 2m454 0l1 2 1 2h-1c-1-1-2 0-1 2 0 2 0 2-1 1-2-2-2-2-2 1s3 5 6 3l3-1a5 5 0 00-2-8l-2-1c0-2-2-3-2-1m129 2c-1 3-2 3-6 2-6 0-8 1-3 2 5 2 9 1 10 0h2l1 1v-4h-2v-1l1-1c0-3-2-2-3 1m-223 3l-1 6 1 2h1l-3 1-1-1 2-9-3 4-5 4-1 2v3l1 1c2 1 2 0 2-1 0-2 1-5 3-7 1-1 1-1 1 1l-2 7-3 9h-2l1 2c1 1 1 1 0 0-2 0-2-1 0-5l1-3-2 3-4 4v1c3 0 4 6 1 11l1 2 1-4 3-4h1c-1 1 0 5 1 3 1-1 1-1 2 1 0 2 0 2 2 0 1-1 2-2 1-3 0-2 0-2 1-1l1-1c-1-1 0-4 4-9l4-5-3 2c-4 5-6 5-3 1l1-3-1 1h-1v-9c0-2 1-3 3 0 1 1 1 1 1-3 1-6 0-8-1-3 0 4-1 4-3 0l-2-3v3m179 5l2 3 2 1 2 2h8l-4-3c-3 0-4 0-3-1h6c1-2 0-2-3-2-3 1-5 0-6-1-4-2-6-1-4 1m-499 1l1 1h1l-1 2c-1 1-1 1 1 1l2 1-1 1v2c0 2 0 2-2 2-1-1-2 0-1 1 0 3 4 1 5-2l1-3 1-2v-3h-1l-2-1h-4m-18 2c1 1 1 1-1 3v2c2 0 1 2-1 2l-6 2 3 1 2-1 2-1c2-1 4 4 2 6h1c2-1 2-2 1-5l-1-7a2 2 0 00-1-3l-1-1v2m457 1l-2 3v3l-1 1c0-1-2 0-2 2l-2 3h3c3 0 3-1 3-3l1-2v1h1c2-1 2-4 1-6s-1-2 1-2h2c-1-3-5-2-5 0m-424 6c0 2 0 2-3 1l-3 1-2 3c-1 0-1 1 2 2h2c-1-1 0-1 1-1 4 0 6-1 5-2h-1v-1c0-3 4-2 3 0 0 2 2 2 5 0 2-1 2-4 0-4l-1 1c2 2-1 2-4 0-4-2-4-2-4 0m448 5c-3 2-4 3-1 2v1h-7l2 2c2 2 3 2 4 1 1-2 2-1 1 2l-2 2c-2 0-2 0-1 2l3 4 1-1a7 7 0 012-3l3-1 2-4 1-2a2 2 0 001-4l-1-1c0-3-4-3-8 0m-494 3l-8 3-7 5-3 4 2 2h4l3 1 2 2 2 2 2 1h2c0 2 6 5 9 5l2 2 2 1 3 2h4c0-1-1-2-2-1v-1l-1-2v-3l2-1c1-2 5 0 4 2l1 2c2 0 2-8 1-12l-2-1c0 3 0 4-1 3v-1l-1-1-1 1c-1 1-1 0-1-2 0-4 3-5 5-2h1l-4-6c-3-5-3-5-5-4h-3l-1 1h-1l-2-2-2-1c-1-1-4 0-6 1m615 2l-1 4-1 5c0 6-1 11-3 11l2 1c2 0 3 1 3 2h-1c-2 0-1 2 1 4 2 3 6 3 4 0-1-2 0-3 3-2h3l-2-2h-2c-3 0-3 0-3-4a4 4 0 00-2-5c2 0 4-9 3-13-1-3-3-4-4-1m-52 11c-2 3-2 6-1 6l1-2h1c1 0 1 1-1 2-2 2-2 2 0 4 2 3 3 3 2 0v-3a4 4 0 000-6c2-4-1-4-2-1m13 7l-7 7 3 2 9 4-4-3-4-3 4-6 7-8-8 7m-506 2c1 2 0 2-1 2l-5 1-4 1h-3v3c-3 0-1 3 2 3 2 0 3-1 3-2h-1l-1-1c0-1 3-2 4-1l2 1 1-1c-1-2 0-2 1-2 3 0 5-4 3-5-1-1-1-1-1 1m258 16c-4 4-11 7-10 4 2-2-1-2-6 0l-5 2-3 1c-1-1-1-1 0 0l4 2c3 0 3 0 3 4v4l7-2c0-3 0-4 1-3s2 1 3-1v-1h-2l1-1 11-10c0-1-1-1-4 1M1 300c0 5 0 6 2 5l3-1v1l-1 1v1l2 5 6 8c4 6 5 6 11 3l4-2-1 1-1 1h3c2 0 2 0 0 1l-4 1h-2v1l1 1-3 1c-2 0-2 0-2 2 1 1 1 2-1 1l-2 1-1 2v1l2 1c0 2 5-1 7-3l3-2h5l1-1-3-1h-3l1-1c7-1 10-2 10-4-1-2 5-3 7-2l3 1c1-1-4-3-7-3-2 0-3-1-3-2l-4-2-3-1v-6c-1-4-4-6-4-3 0 2-1 2-3 2l-3 2c-1 2-5 3-7 1-1-1-1-1 1-1l2-1 3-1c5-1 5-2 4-5h-5l-2-2-2-2c1-1-1-2-3-1-1 1-1 1 1 3 3 2 2 3-2 3-2 0-2 0 0-1s2-1-1-3l-3-1v1l-3-3c-2-4-3-4-3 3m0 17c0 9 0 9 3 9 2 0 3 1 1 2-1 1-1 1 1 1l3-1h4l4 1-2-2-2-3-3-6-3-5-3-3-3-2v9m312 6c-3 0-2 2 1 4l3 1-7 7c-2 1-2 1-1 2 2 1 4 0 3-2l1-1 3-2 3-3c2 0 2-1 0-4s-3-3-6-2m-62 1l-5 1c-3 0-3 0-2 1 1 2 5 2 4 1-1-2 2-1 3 1 2 1 2 2 1 2-2 2-1 3 2 2l1-1v-1h2l1-1-2-1-1-2c0-2 0-2-2-1l-2-1 1-1-1 1m48 11l-1 5-2 5v2l2-2 3-3 1 2c2 2 3 2 4 1 1-2 1-3-1-3v-2l-1-3c-1 1-3-1-4-3-1-1-1-1-1 1m-26 18c0 3-5 6-10 6-5 1-7 1-6 3l3-1 2-1-2 3c-4 2-4 4-1 5h2l1-2h3v1a2 2 0 01-1 4h-3c-3-1-3-1-3 3 0 3 1 3 4 3 2 0 3 1 2 2l1 2 2 1-4 3h-2c0 2 3 4 4 3l2 1c1 1 1 1 2-1 2-2 4-1 2 2-1 1-1 2 2 2s3-1 2-4l1-3 2-1-5-1h-4l2-3 3-3c0 1 1 1 0 0h-3l-1 1h-2c0 1-1 1-2-1l-3-1-1-2h1c1 2 5 1 5-1s2-3 2-1l1 1v-3c-1-2-1-2 1-2h2l4-4 4-2-3-2v1c1 1 1 1-1 1l-2-1-1-2v-6h-2m212 14l-2 16c0 17-1 20-3 12v-7c0-2-1-12-2-11l-2 7c-1 7-1 12 4 20 7 14 7 15 8 21 0 5 0 6-2 8l-1 3c1 3 0 2-2 0s-2-2-2 1 0 4 5 6 7 4 5 4a5 5 0 001 8h3c1 1 2 6 1 7s0 6 3 8l2 6 2 4 2 4 3 9 2 7c0 4 3 12 5 12s0-9-5-20a60 60 0 01-7-29c-5-2-13-26-13-40 0-9-2-13-3-12l-1-1v-2c-2 2-3-19-1-34v-7m182 19l-1 1 2 3 2 2v3l2-1 2-2v-6h-7m-2 4v1l-1 2c0 3-1 4-3 2l-3-1 1 2c2 0 3 2 1 2l-2 1 3 1 3 1v1c3 0 3-2 1-3-2-2-1-3 1-2v-9l-1 2m-11 14l3 2 1 2c-1 1 0 1 2 1 3 0 4 1 2 2h1l3-1c2-2-1-3-4-2-1 0-2 0-1-1 0-2 4-3 9-3l2-1-1-1h-3l-6 1h-8c-3-3-4-2 0 1m-362 33l-2 2 2 1v5l-1 1 2 3c3 0 3 5 0 6v9l2 1v1c-2 0-1 2 1 2s2-1 1-2v-4l-1-3v-5l1-1 2-1h-1c-1 0-2-1-2-3-1-1 0-2 1-3l1-2 1-1 1-1-3-1c-4 0-4-1-3-4 2-4 1-4-2 0m-4 16l-1 2c0 2 0 2-5 1a4 4 0 00-4 0h-1v3l-1 1h3l2-1-2 3c-5 4-3 5 3 3l5-2-1 1-2 2-1 1c-2 0-2 1-2 3l-1 1c-2 1-1 2 2 1 3 0 3 0 2-2v-1c2 1 2 0 2-1 0-3 3-3 5-1 1 1 1 0 1-2l-2-4v-6c0-3-1-4-2-2m355 1l2 4c3 3 3 6 0 5-2-1-1 0 1 2l11 6-2-2c-3-1-7-6-7-7h3l-4-4-2-3 1-1-1-1-2 1m-353 41l-1 2v1c-2 2-3 6-1 11 1 3 1 3 8 3l7-1v-7l1 3c2 2 2 2 3 1l1-3-8-4c-2 1-2-3 0-5v-2c-1 0-3 0-4 2h-1c2-2-2-4-5-1"
      itemprop="regular" tabindex="-1" style="fill-opacity: 0.978; fill-rule: evenodd;"></path>
    </symbol>
    <symbol id="-posters-1650743357363-bold">
      <path d="M434 16h-3l1 1 3 2-3 7v-2c1-2 0-4-2-4v1l-1 3c-2 1-2 1-2-2v-4l-2 2-2 2 3 3c2 3 3 3 3 2l1-3v1c0 2 0 2 4 0 2-1 3-8 1-8v-2l-1 1m80 75v2c0 2 0 2-3 2-5 1-5 3-1 7 3 2 4 2 2-1v-1h2l2-2 2-1 4-3c4-2 4-2 3-3l-3 1c-1 2-6 2-6 0 0-1-1-2-2-1m-316 21l-2 2c1 1 1 1-1 1-2-1-6 0-6 2h-1c-3-1-7-1-7 1l1 1-2 2-3 3v1l-12 9h1l2-1-3 4-6 5 1-2 3-4h-3c-2-1-9 6-9 9l-1 4c-1 1 0 3 1 2l-1 2c-2 3-2 4-2 1 1-5-2-7-4-4l-1 1-1 2-4 5c-6 6-7 8-9 12l-2 4v-4l2-5c0-2 0-2-2 0l-2 6-2 5v3c-2 2-2 2 0 3 1 1 1 1-1 1l-2-1-5-1c-3 1-4 1-3 3h-1c-3-3-10 3-13 10-3 6-3 13-1 10s4-2 4 1l-2 3c-3 1-3 4 0 3 2-1 4-3 6-7 1-1 1-2 2-1l-1 2v1l2 2c-2 2-2 16 0 16 1 0 1 1-1 2a7 7 0 00-3 5c0-1-5 0-6 2l-2 2h-2l4 1c5-1 6 0 5 5l1 3h2a14 14 0 01-11 10l-2 3-1 2h3l3-1c1-2 5-3 5-1v1c-1 1 0 1 2 1h3l-2 1c-2 0-2 0-1 2l-1 2-1 2c-1 3-1 3-2 2-2-2-2 0 0 2v3c0 1 2 2 3 1l4-1c3 0 5-1 5-3-1-1 0-4 1-3 2 1 1 4-3 9-3 2-4 4-3 4v2l-2 2a5 5 0 01-3 3c0-3-2 3-2 7-1 7 0 6-10 7a26 26 0 00-10 2h1l7-1h4l-5 1c-6 2-16 7-16 9s-11 10-17 13c-7 4-14 9-19 15a8 8 0 01-4 4l-7 6-15 14-10 10v29h2c4 0 4 2 1 3l-2 2-1 27v28h5l-3 1c-2 1-2 2-2 10 0 7 0 9 1 8l3 4c3 11 3 14 0 14l-3 3v6c-1 1-1 2 1 2l140 1h139l-1-6-1-9-1-23v-1l-3-6c-1-5 0-9 1-8l1-1v-1c-2 0-4-3-3-5v-7c-2 1-4-3-2-4v-2l-1-2-1-4-1-3-2-11-1-13a23 23 0 00-2-14l-2-4a40 40 0 01-4-20v-6h-2c0-2 3-5 5-5 3 0 3-5 0-6-3 0-4-2-1-2 1 0 3 1 4 4s2 4 4 2l-1-1-2-1h2c2 0 3-6 1-8h-1l-1-1h-11a6 6 0 01-3-7c-2 0-2 0-1-2s1-2-1-2l-2-1-3-4c-3-3-3-4 2-4 2 0 3-1 6-4l3-4v4l1 3 1-1 3-2 2-2v2l1 6-1 4-1-1-3 1c-3 4-3 4 1 3l4-1v2c1 1 1 2-1 3l-2 5c0 3 4 1 4-3l1-3 2 2 2 3 1 2 1 5c0 3 0 3 2 2l1-4c-1-4 0-20 2-19l2-5 1-5 3-17c0-8 5-26 5-20v1l2-7 3-6c2 0 4 3 3 6 0 3 0 3 1 1l1-8a11 11 0 011-8c0-3-4 3-4 6l-1 2v-10l1-3c0-2-4 2-4 5v-3c0-4-1-5-3-3-1 2-2 0-1-3a17 17 0 00-2-14l-5-19c-2-7-4-32-4-58 0-11 0-11 4-20l2-8h-1l-2 4-3 9-1 3-2-3-1-3 1 3c0 4 0 4-4-3-1-3-3-5-4-5l-10-5c-9-4-20-7-18-4l-1 1-3-1 2-2c2-3 2-3 4-1h7l-4-2-5-2c-1 1-2 0-2-1s-1-2-6-2l-6 1c0 1-1 1-1-1-2-2-3-1-2 3v3l-1-3-1-1c-1 1-2 0-3-2-2-2-2-2 0-2v-1h-4l-3-1c-2-1-7-2-10-1m25 14c0 2-6 4-19 6-11 2-20 12-25 27l-5 15c-6 17-9 30-10 41a25 25 0 01-3 14l-1 3c-2 2 0 5 3 8s3 3 2 12c-1 15 5 30 9 22v20a22 22 0 01-4 14v3l1 4 2 3 6 3 5 4c3 0 4 1 3 2h1c1 0 3 0 5 2 5 3 19 7 26 7h8l3-11c4-11 6-13 7-11 2 3 3 2 3 0s-1-3-2-3c-3 0 1-16 5-18 8-5 20-18 24-27 9-17 12-30 10-49-5-57-14-77-36-82-14-3-16-4-14-8 0-2-2-3-4-1m-55 20c0 2 0 2-1 1s-1-1-2 1v3l-1 1c-2-1-4 5-3 10l1 3 6-9 3-6c1-2 0-6-1-6l-2 2m-59 40l-3 1c-3 0-7 5-6 7l-1 2v3l1 1 2 1v-1l2-2 3-2 1-2 1 1c-1 1 0 2 1 1v-1l3-4c2-2 2-3 1-4l-5-1m480 57c-1 1-2 2-3 1-2 0-2 0-2 4l-1 2h5l2-4c0-3 1-4 2-3l1-1c0-2-4-1-4 1m-45 0a4 4 0 00-1 3l-7-3c-2 0-2 0-2 2 1 1 0 1-2 1s-2 0 2 2h8c1 1 2 0 4-1v-2l-1-2h-1m-376 12l2 16 2 4 1-5c1-10-1-27-4-27l-1 12m388-11l1 2c2 1 1 2-2 2-3-1-6 3-3 4l1 2 2 2 4 3c2 1 6 1 5-1h-2l-2-1v-1l1-1v-1l2-1c1-1 0-2-1-2l-3-4c-1-3-2-4-3-3m-278 14c1 11-4 19-10 15-3-1-4-1-2 1s7 1 10-1 5-10 4-16c-1-8-2-7-2 1m345 0c-1 2 1 3 3 1v3c-1 3 0 4 4 1 4-1 4-1 3 3v1c3-4 1-8-2-6-3 1-4 0-2-1l1-2h-7m-61 25c-2 2-2 2 0 2l3 2 2 1a2 2 0 014 0v1c1 1 1 0 1-5l-1-2h-4c-2-1-3 0-5 1m-191 4l-8 10-10 12-2 3h1l2-1 1-1 1-1c1 1 2 0 2-1h2c1 1 2 1 2-1l2-2h1l-1-1-2 1-1 1-1-2c0-2 1-2 3-2l4-1v-3l1-2h1c0 2 2 3 4 0h-1c-2 1-2 1-1-1l-1-2v-2c0-1 1-2 2-1v-4l-1 1m-51 7l1 1c2 1 0 5-2 5h-2l2 1c5 2 8 2 7-2l-1-4c-2-2-5-3-5-1m255 3l-2 1-1 1c-1 1 0 1 2 1l1 2c0 3 1 5 3 5v-5l2-1h3l-2-2v-1c1-1 1-1-1-1l-2 2c0 3-2 2-2-1s-1-3-1-1m20 1l1 1c2 0 5 3 4 4l3 1c4 0 7 2 3 2-2 0 2 2 5 2l-1-1-2-1 2-1 3-1-2-2c-3-2-4-2-4 0l-1 1c-1-1 0-4 2-4v-1c0-1-1-1-2 1-2 2-5 3-3 1 1-2-1-3-3-2h-5m-28 2h-1c-2-1-2 0 0 3a8 8 0 006 6l2 1h3l-2-3c-2-2-3-3-4-1-2 2-3 0-1-3 1-1 1-2-1-2l-1-2v-1c-1 0-2 1-1 2m-242 5l2 1 1 3 1 1h1l-1 1v2l-1-1c-1-1-2-2-1-3l-1-1v7l-1-1-2-1v-1c1-1 1-1-1-1s-3 0-2 1l-1 3v3l2 4 8 9 5 6 17 11 1-4c0-3 0-3-5-5-4-2-5-3-5-5v-5c0-1 0-2 2-2l2-2 1-2v-2l1-1c5 2 7 2 7 0 2-7 2-6-1-5l-3 1c-3 2-11 4-11 2 1-1-7-13-8-13v1c0 2-2 1-3 0-1-2-4-3-4-1m337 3l-1 2c1 1-2 3-4 4s-3 3-1 3 2 0 1 1c-1 2-1 2 1 1l2-2 1-1v-1c-1 0 4-5 5-4l1-1c0-2-3-3-5-2m-13 3v1l-1 2c-3 2-4 3-4 0v-1h2c0-1-3-2-4-1l-1 2-2 1h2l1 1c-2 2 0 8 2 7l2-2-2-2c0-2 2-3 3-1v-1c0-2 2-4 4-4s2 0 1 2h1c1-1 2-2 1-3h-1l-1-1h-3m-56 19c-2 3-2 6 0 6l3-3c2-2 3-3 3 0l1 1h1l-2 1c-3-1-4 1-1 2l1 1c0 2 4 3 5 2s1-1-1-1l1-1v-1l-2-2h1l1-1 2-1c2 1 3 0 0-2-3-3-4-2-3 0 0 2 0 2-2 1l-3-2-3 2h-1l2-2v-2l-3 2m75 9c2 1 0 2-3 1h-4c0 1 14 8 16 7h3l1-1-3-1c-2 0-4-1-5-3-2-2-2-2-2 0l-1 2c-2 0-3-2-1-2 2-1 0-4-1-4v1m-5 6c1 1 0 1-2 1l-3 2 2 1 4-2 2 1-2 1a1 1 0 10-1 3c2 0 7 4 6 5l-4 1c-3-1-4 1-1 3v2c-2 1 0 4 3 4l3-2c0-2 3-3 3-1h2c3-2 3-5 1-3-2 1-5 1-5-1l3-4c2-2 2-3 1-3v-1c2-3-2-2-4 0l-2 2c-1-3 0-6 1-5 2 0 0-1-2-2l-5-2m19 13l-1 1c-2 0-3 3-3 6l-1 2h-2c-2 2-1 2 1 2 3 0 7-3 4-3l1-1c2-1 3-8 2-8l-1 1m-55 2v3l-2-1h-2l-1 2-2 2 1 3 9-6-3-3m53 10l-1 5c0 2 0 3-2 3l1 2c4 2 5 1 5-6 0-6-1-7-3-4m-53 5l2 2 2 4c1 2 1 2 2 1h3v-1c0-2 0-2 2-2 1 1 1 1 0 0l-3-2-4-2h-4m4 14v5l2-2c1-2 1-2 3 1 1 3 5 4 6 2 1-1 1-1 2 1 2 1 2 1 2-1v-5c2-2 2-3 0-3l-2 2-1 1v-1a1 1 0 10-2-1 1 1 0 01-3 0v-2l-1 2h-3c-2-2-2-2-3 1m12 19c-1 1 0 1 0 0l3 2c1 2 3 2 5 1h2v1l-2 1 9 2-1-1-3-2c-1-3-12-6-13-4m-367 3l-1 3-1-1c1-3 0-2-3 0v3a3 3 0 011 3h2c2 2 4 0 3-3l1-2 1 2c0 2 3 5 4 5l-1-2-2-4-2-5-2-2v3m385 19l-2 1c-1-1-2 0-1 1l-2 1-2 1 2 1a23 23 0 018 6v-5c0-4 1-6 2-5l1-1-3-1c-3 0-4 0-3 1m-3 19c2 2 2 4 0 5-1 1-1 1 1 4 2 5 2 4 3 3s2 0 2 2c0 3-1 3-3 3h-1l3 2 3 2 3 1h4l-1 1v1h5l5-1v2c1 1 1 1 1-1a4 4 0 00-1-4l1-3c0-4-4-4-7-1-2 3-1 5 1 2 3-3 3 0 0 3-3 4-4 4-4 0l-1-3c-2-1-5-4-5-7 0-1-1-2-3-2-1-1-2-1-1-2l-1-1-1-2c1-2 1-3-1-4h-2m-18 22c-2 1-1 7 1 14 2 9 3 10 3 3l-1-13c1-5-1-7-3-4m15 3c-2 1 0 6 3 5l4 2 3 2-1-2c-2-2-3-5-2-5 2 0 0-2-3-2h-4m12 5c0 1 1 2 2 1l1 1-2 1 1 3a3 3 0 003 3c-1 1 3 5 4 4l1-2 1-3 1 4c-1 4 0 6 2 4 1-1 1-1 1 1v2c1 1 2-4 1-8 0-4-3-7-4-7v1l-2 1c-2 0-3-1-3-3 1-1 0-2-2-4-4-2-6-1-5 1m-10 2v4l-4-1-5-1c-2-1-3 1-3 11-1 8 1 10 7 7h4l2-1c1-2 2-1 2 2s7 3 7 0l1-2 3 3c3 3 4 7 1 6h-2l1-1c2-1 1-2-5-2-5-1-6 1-2 5 2 2 16 1 15-2v-8h-2l-4-2h1c5 0 5 0-1-6l-6-7-1-1-3-2c-2-2-5-3-6-2m-360 24l-5 3-2 1 2-2c1-2 1-2-1-1-2 0-2 3-1 5 1 1 1 1 4-2s4-3 6 1h1l1-2v-2c-1-2-2-2-5-1"
      tabindex="-1" itemprop="bold" style="fill-opacity: 0.68; fill-rule: evenodd;"></path>
    </symbol>
  </defs>
  <use class="background" href="#-posters-1650743357363-background" fill="url(#-posters-1650743357363-background-gradient"></use>
  <use class="light" href="#-posters-1650743357363-light" fill="url(#-posters-1650743357363-light-gradient" filter="url(#light-filter)"></use>
  <use class="regular" href="#-posters-1650743357363-regular" fill="url(#-posters-1650743357363-regular-gradient" filter="url(#regular-filter)"></use>
  <use class="bold" href="#-posters-1650743357363-bold" fill="url(#-posters-1650743357363-bold-gradient" filter="url(#bold-filter)"></use>

  <defs>
    <g class="gradients">
      <radialGradient gradientUnits="userSpaceOnUse">
        <stop itemprop="radial" stop-color="hsla(56, 17%, 34%, 1.00)" offset="0%"></stop>
        <stop itemprop="radial" stop-color="hsla(56, 12%, 24%, 1.00)" offset="15%"></stop>
        <stop itemprop="radial" stop-color="hsla(25, 10%, 35%, 1.00)" offset="30%"></stop>
        <stop itemprop="radial" stop-color="hsla(32, 15%, 38%, 1.00)" offset="45%"></stop>
        <stop itemprop="radial" stop-color="hsla(272, 5%, 54%, 1.00)" offset="60%"></stop>
        <stop itemprop="radial" stop-color="hsla(255, 3%, 58%, 1.00)" offset="75%"></stop>
        <stop itemprop="radial" stop-color="hsla(245, 4%, 56%, 1.00)" offset="90%"></stop>
      </radialGradient>
      <linearGradient gradientUnits="userSpaceOnUse" x1="0" x2="0" y1="0" y2="100%">
        <stop itemprop="vertical" stop-color="hsla(56, 17%, 34%, 0.75)" offset="0%"></stop>
        <stop itemprop="vertical" stop-color="hsla(56, 12%, 24%, 0.75)" offset="15%"></stop>
        <stop itemprop="vertical" stop-color="hsla(25, 10%, 35%, 0.75)" offset="30%"></stop>
        <stop itemprop="vertical" stop-color="hsla(32, 15%, 38%, 0.75)" offset="45%"></stop>
        <stop itemprop="vertical" stop-color="hsla(272, 5%, 54%, 0.75)" offset="60%"></stop>
        <stop itemprop="vertical" stop-color="hsla(253, 3%, 58%, 0.75)" offset="75%"></stop>
        <stop itemprop="vertical" stop-color="hsla(240, 4%, 56%, 0.75)" offset="90%"></stop>
      </linearGradient>
      <linearGradient gradientUnits="userSpaceOnUse" x1="0" x2="100%" y1="0" y2="0">
        <stop itemprop="horizontal" stop-color="hsla(56, 17%, 33%, 1.00)" offset="0%"></stop>
        <stop itemprop="horizontal" stop-color="hsla(40, 9%, 27%, 1.00)" offset="15%"></stop>
        <stop itemprop="horizontal" stop-color="hsla(30, 13%, 38%, 1.00)" offset="30%"></stop>
        <stop itemprop="horizontal" stop-color="hsla(273, 4%, 54%, 1.00)" offset="45%"></stop>
        <stop itemprop="horizontal" stop-color="hsla(251, 4%, 57%, 1.00)" offset="60%"></stop>
        <stop itemprop="horizontal" stop-color="hsla(223, 3%, 54%, 1.00)" offset="75%"></stop>
        <stop itemprop="horizontal" stop-color="hsla(56, 15%, 36%, 1.00)" offset="90%"></stop>
      </linearGradient>
    </g>
    <g class="generated gradients">
      <radialGradient id="-posters-1650743357363-background-gradient" gradientUnits="userSpaceOnUse">
        <stop stop-color="hsla(56, 17%, 80%, 1)" offset="0%"></stop>
        <stop stop-color="hsla(56, 12%, 80%, 1)" offset="15%"></stop>
        <stop stop-color="hsla(25, 10%, 80%, 1)" offset="30%"></stop>
        <stop stop-color="hsla(32, 15%, 80%, 1)" offset="45%"></stop>
        <stop stop-color="hsla(272, 5%, 80%, 1)" offset="60%"></stop>
        <stop stop-color="hsla(255, 3%, 80%, 1)" offset="75%"></stop>
        <stop stop-color="hsla(245, 4%, 80%, 1)" offset="90%"></stop>
      </radialGradient>
      <linearGradient id="-posters-1650743357363-light-gradient" gradientUnits="userSpaceOnUse" x1="0%" x2="0" y1="0" y2="100%">
        <stop stop-color="hsla(56, 17%, 60%, 0.9)" offset="0%"></stop>
        <stop stop-color="hsla(56, 12%, 60%, 0.9)" offset="15%"></stop>
        <stop stop-color="hsla(25, 10%, 60%, 0.9)" offset="30%"></stop>
        <stop stop-color="hsla(32, 15%, 60%, 0.9)" offset="45%"></stop>
        <stop stop-color="hsla(272, 5%, 60%, 0.9)" offset="60%"></stop>
        <stop stop-color="hsla(253, 3%, 60%, 0.9)" offset="75%"></stop>
        <stop stop-color="hsla(240, 4%, 60%, 0.9)" offset="90%"></stop>
      </linearGradient>
      <linearGradient id="-posters-1650743357363-regular-gradient" gradientUnits="userSpaceOnUse" x1="0" x2="100%" y1="0" y2="0">
        <stop stop-color="hsla(56, 17%, 50%, 1)" offset="0%"></stop>
        <stop stop-color="hsla(40, 9%, 50%, 1)" offset="15%"></stop>
        <stop stop-color="hsla(30, 13%, 50%, 1)" offset="30%"></stop>
        <stop stop-color="hsla(273, 4%, 50%, 1)" offset="45%"></stop>
        <stop stop-color="hsla(251, 4%, 50%, 1)" offset="60%"></stop>
        <stop stop-color="hsla(223, 3%, 50%, 1)" offset="75%"></stop>
        <stop stop-color="hsla(56, 15%, 50%, 1)" offset="90%"></stop>
      </linearGradient>
      <linearGradient id="-posters-1650743357363-bold-gradient" gradientUnits="userSpaceOnUse" x1="0" x2="100%" y1="0" y2="0">
        <stop stop-color="hsla(56, 10%, 8%, 1)" offset="0%"></stop>
        <stop stop-color="hsla(56, 10%, 8%, 1)" offset="15%"></stop>
        <stop stop-color="hsla(25, 10%, 8%, 1)" offset="30%"></stop>
        <stop stop-color="hsla(32, 10%, 8%, 1)" offset="45%"></stop>
        <stop stop-color="hsla(272, 10%, 8%, 1)" offset="60%"></stop>
        <stop stop-color="hsla(253, 10%, 8%, 1)" offset="75%"></stop>
        <stop stop-color="hsla(240, 10%, 8%, 1)" offset="90%"></stop>
      </linearGradient>
    </g>
  </defs>
  <defs>
    <filter id="light-filter">
      <feColorMatrix in="SourceGraphic" type="matrix" values="1.5 0 0 0 0
                0 1.5 0 0 0
                0 0 1.5 0 0
                0 0 0 1.5 0"></feColorMatrix>
    </filter>
    <filter id="regular-filter">
      <feColorMatrix in="SourceGraphic" type="matrix" values="1.5 0 0 0 0
                0 1.5 0 0 0
                0 0 1.5 0 0
                0 0 0 1 0"></feColorMatrix>
    </filter>
    <filter id="bold-filter">
      <feColorMatrix in="SourceGraphic" type="matrix" values="1 0 0 0 0
                0 1 0 0 0
                0 0 1 0 0
                0 0 0 1 0"></feColorMatrix>
    </filter>
    <filter id="emboss">
      <feConvolveMatrix kernelMatrix="1 0 0
                      0 0 0
                      0 0 -1"></feConvolveMatrix>
    </filter>
  </defs>
</svg>
