<svg id="-posters-1650742918292" itemscope="" itemtype="/posters" itemid="/+/posters/1650742918292" viewBox="0 0 708 512" preserveAspectRatio="xMidYMid slice" tabindex="0" xmlns="http://www.w3.org/2000/svg">
  <style>
    @keyframes subtle-rotate {
      50% {
        transform: rotate(0.33deg)
      }
    }
    @keyframes subtle-move {
      50% {
        transform: translateX(4px)
      }
    }

    [itemprop="regular"] {
      animation-timing-function: linear;
      animation-name: subtle-rotate;
      animation-duration: 6s;
      animation-direction: alternate;
      animation-iteration-count: infinite;
    }
    [itemprop="light"] {
      animation-timing-function: linear;
      animation-name: subtle-move;
      animation-duration: 13s;
      animation-direction: alternate;
      animation-iteration-count: infinite;
    }
  </style>
  <defs>
    <symbol id="-posters-1650742918292-background">
      <rect itemprop="background" width="100%" height="100%" tabindex="-1"></rect>
    </symbol>
    <symbol id="-posters-1650742918292-light">
      <path d="M0 4c0 2 0 3 2 3v1c-2 1-2 1 1 2l3 1-3 1H0v54c0 50 0 53 2 52h6c0 3 2 2 4 0l4-3 3-1c2-2 4-2 6 0 2 3 4-1 4-7v-4c6-2 15-2 16 0l-6 1c-7 0-7 0-7 3 0 2 0 2 4 2s4 0 4 3 1 4 3 2l3-2 2-1h1v1c-3 2-1 3 2 1 3-1 12 0 13 2l8 2 12 2 8 2 5 1 5 2 2 1c-1 1 0 2 1 1l2 1 7 2 4 2c-2 0-1 2 1 2 3-1 10 0 14 2h3l3 2c3 2 4 2 7 1 2-1 4-2 5-1l1-1h7c2 1 2-1 0-4v-1l1-1 2-3 3-2-3-2-2-1a9 9 0 00-9-4c-1-1 0-2 7-3s8-1 5-2h-11a9 9 0 01-9 0c3 1 0 2-9 2-6 0-9 0-8-1l4-1 3-1v-2l11-1c11 0 16-1 16-4h13l17 3c2 0 2 0 1 1-2 1-3 3 0 3l1 1 1 1 3 2 19 2c14 0 16 0 13-1l-2-2-2-3-2-3-12-2-14-1c-5-2-5-2 10-2 9 0 18-2 18-3l4-1c4 0 8-2 6-2l-12-2h-3a7 7 0 015-7l-5-1-4-1c1-1-1-1-3-2-5 0-4-2 1-2l3-1c0-1 2-2 6-1 4 0 6 0 5-1v-2c1-1 1-1-1-2-3-1-1-2 4-2 3 0 5-1 7-3s3-2 5-1l8-1 11-4h3l8 2 8 1h4c2-1 4-2 8-1a23 23 0 0011-1l5-1 2 1-2 2-4 2-4 2c-2 1 0 1 3 1 4 0 6 0 5-1l10-1h11l1-4v2h1c2-2 7-3 7-2l-2 1c-2 0-7 7-6 9 1 1-2 3-5 3s-3 0-1 1c3 0 3 2-1 2l-4 1-22 3v1l-3 1c-4 0-3 1 1 2 1 1 0 1-2 1s-3 0-3-2-4-5-5-3h-5c-1 2-3 2-8 1l-12 1-7 1c-6 0-7 1-7 4v2c-3 0 0 1 5 2 4 0 7 1 3 1l-2 1c-1 1 0 1 1 1 2 0 2 0 1 1s3 1 9 1h12l-6 1-5 1-3 2h3c5 1 3 3-3 2l-5 1c0 2 1 2 6 1a6 6 0 017 2c3 0 10 3 12 6 1 2 4 3 5 3l5 4 4 2h2l4 1c6 0 4 3-4 4l-7 3c-2 1-4 5-3 5l1-1h8c6 0 6 1 6 2l2 2 2 1h3l5-1 3-1c0-2 3-3 5-2h1c2-2 3-1 3 1s2 3 3 1c2-2 7-3 7-2l-1 2c-1 1 1 1 4 1l5 1c0 1 4 0 6-2h2l1 2 1-1s1-2 3-2l1-2v-1c3-2 11-1 11 2s-1 4-4 3c-3 0-3 0-2 1l4 1v1l-4 2-3 2c-1-2-3 1-3 4l-1 3-1 3 1 4h-4l-12 1-5 2c-2-1-4 0-6 1h-2l-5 6c0 2-2 3-3 3l-1 1c0 2-3 3-4 3v5c-2 0-1 3 2 4 2 2 3 2 4 1h1l-2 2-5 5c-1 2-4 3-5 1-2-2-13 1-14 4h-6c-1-1-3-2-4-1l-4-1h-10c-1-3-21-2-24 1-2 2-6 3-9 4l-8 4-5 3-2 1-2 1c-2 1-5 6-4 8l-3 1c-7 2-11 5-12 10l-1 6c-2 3 0 7 3 7 1 0 2 0 1 1l2 3 2 3c1 2 2 2 3 2h2a3 3 0 006-1h7v-3c0-2 0-2 1-1 2 2 5 1 5-2l1-2a11 11 0 018 3l4 4 5 7c7 6 7 6 6 8-1 3-1 3 1 3 3-1 6 2 5 4l8 6c7 5 9 7 10 10 2 4 4 12 2 10-1-1-9-2-16-1l-7-1c-1-1-3-2-4-1-2 0-2 0-1-3v-3c-1-1-2 0-2 2-1 3-1 3-2 1l-2-2c-2-1-2-1-1-3l-1-2c-1 1-1 1-1-1 1-2-5-3-7-1h-1v-1l-1-2c0-2-1-3-2-3l-1-1c1-1-3-2-5-1-2 2-5 2-15 2-6-1-9 0-9 3 0 2-1 2-3 2l-3-1h-7c-4 2-6 5-5 7 0 2 0 2-3 3l-5 2h-4l1-1 1-4-1-4h-1l-1-1-2-1-2 2-2-1-2-1c1 3-2 4-2 1l-2-2v2h-4c-1 1 1 3 4 3l2 3v1l1-2c0-2 2-3 4 0 2 1 2 3 1 3v1h1c1-1 4 3 3 4l-1-1c-2-2-13-3-15 0-1 1-5 2-5 0s0-3-2-3-3 1-3 2l-1 1c-2-1-2 0-2 2 0 3-2 3-4-2l-3-3c-1 1-2 0-3-1-2-1-6 0-6 2l-2 1c-3 0-4-1-2-2a1 1 0 10-1-2h-1c-1-1-1-1 1-2v-2c-2 0-2 0-1-1 2-1 0-2-5-1-5 0-5-2-2-6 1-1 2-3 1-4 0-2 0-2 2-2 3 0 3-5 0-6l-2-1c1-3-4-6-8-6-3 1-5 0-1-2v-3c-1-1-1-1 1-2l2-1c-1-4-6-5-6-2l-1 3-1-3-2-2c-2 1-2 1 0-1 2-4-3-7-9-4-2 1-3 4-1 4l1 2-1 1-1-1c0-1-4-2-5 0-1 1-1 1 1 1v1c-2 0-1 2 1 2 1 1-1 1-3 1-3 0-5-1-4-2v-1l2-1v-4c1-2 1-2-1-3l-1-2h-4c0-1-1-2-2-1l-2 2c0 2 0 2-1 1-2-3-4-2-5 1 0 3-3 5-4 3l-2-1c-3 0-4 0-3-2 1-4-10-5-14 0l-4 3-2 3-2 2-2 1-3 1v-1c2-1 5-3 4-4h-1l-2-2c0-2 2-3 2-1 1 2 6-2 6-4l1-1h2c2-1 2-3 1-3l-2-1c1-2-2-2-3 0l-1 1c-1-1 0-2 1-3s1-1-1-3c-2-1-4 0-5 3-1 1-1 2-3 1v-2c-1-1-4 3-4 4 1 1-1 2-2 2a10 10 0 010-5l1-1-1-1-1-2-1-2c-2 0-6 4-6 6a1 1 0 11-2 0 5 5 0 00-9 3c1 2 0 2-2 2-3 0-3 14 0 17v1c-2-1-2 5-2 125v125h709V0H378L45 1h-4c-3-2-19-1-19 1h-2c-1-3-4-2-5 0s-3 3-4 0c0-1-1-2-6-2H0v4m21 8c0 4 0 4 2 4 3 0 5 3 3 5-1 1-2 1-2-1l-1-2-3 3c-2 2-4 3-7 3H8v5c0 6 4 11 10 11 3 0 3 0 3-4 0-3 0-4 2-4l1-4 4-3 3-1c-2-2-3-5-1-5l2-2 3-1a1 1 0 101-3h-1l-2-3-2-2-3 2c-3 4-4 4-4 1l-1-3c-2 0-2 1-2 4M0 66c0 29 1 41 1 26a3115 3115 0 00-1-26m60-17c-1 2-2 2-3 1h-5l-11 2c-7 0-17 3-15 4v2l-2-1c-1-1-2-1-4 1l-4 3-3 1c-2 2-5 3-5 1H7l-3 1c-3 0-2 2 2 4s7 1 12-1c3-2 5-3 9-2 4 0 4 0 1-1l-4-1h3l5-1c2 1 8-1 8-3l4-1 4-1c0-2 1-3 9-4 5 0 7-2 5-4h-2m468 20v2l-2 2v-2h-2c-2 2-2 2 0 3 1 1 1 1-2 4l-2 3-2 2-3 2-2 1-3 1h-4c0 1-2 2-4 1-3 0-3 0-1 2l1 4c-2 5-1 8 0 7l4 1h4c1-1 1-1-1-1h-2v-1l-2-1c-1-3 6-11 9-11 2 1 3 0 3-1l2-2 2-4 3-2 2-1h2c2 1 5 1 8-1v-1l-2-2c0-2 0-2-1-1-2 1-2 1-2-2 0-2-3-4-3-2m-274 7l-9 1c-4 0-5 0-5 2l-1 1c-2 0-7 4-7 6-1 2 20 3 22 1v-2c-1-1 2-5 4-5v1c-3 2-2 5 1 5h4l-3-2-2-2h3c4 0 4 0 4-2l-1-3h8l8 1c0 2 4 5 6 5 3 0 3-2 0-2-3-1-4-3-2-3v-1c-2-1-26-2-30-1m64 23l-7 2c-11 1-10 3 1 3s11-1 10-3-3-3-4-2m-217 46c-1 3 2 4 11 4h4c-3 0-4-1-4-2 0-2-1-2-3-2l-6-1-2 1m-45 2h4l4 1c0 2-1 2-4 2h-4l2 1v1l-2 1h-9l2 1 2 2c-1 2 1 4 3 4l2-2h1c1 2 1 2 3 1 2-2 2-2 3 0 1 1 5 0 7-3 1-1 10 0 10 1l-1 1a9 9 0 00-4 4l7-2 6-1-9-8v1c2 2-1 1-5 0l-5-2-3-2c-2-2-10-3-10-1m-55 9c0 7 0 8 2 8l3-1 1-1v-2l1 2 1 1 14-3c-2 0-2-1-2-4v-4h-6a6 6 0 01-9-3l-3-1c-2-1-2 0-2 8m479 5v2h-1c-2-1-3 6-1 11 1 2 1 2 2-1 2-5 2-13 0-12m8 8c-4 5-5 8-1 8h3l6 2c5 1 10 4 9 5l3 1 4-1 4-1c4 0 5-2 1-4-2-1-3-1-5 1h-4l-1 1c-2 0-3-5-1-5v-1l-2 1c0 2-8 2-11 0-2-2-3-4-1-4v-7l-4 4m179 13l-1 4c0 2 0 2-2 2v3c-2 2-4 7-2 7l1-2c0-2 3-4 6-3l3 1c1-1-1-5-2-5-2 0-3-2-2-6 0-3 0-4-1-1m-52 12l-2 1-2 1-3 3c-2 0-3 1-3 2l-2 3c-2 2-4 10-2 10l1-2c0-2 4-6 10-9 7-3 7-4 5-8-1-3-2-4-2-1m10 2l-15 11c-4 1-6 4-5 6l6-2c9-3 9-2 0 2-7 3-9 5-9 6 0 2 0 2 2 1 3-1 8 0 9 1 0 1 11 0 14-2l3 1c1 1 3 1 3-1l2-2 1-2h-1l-1-1h-1v1a3 3 0 01-6-3c1-1 1-1 0 0-2 1-4 1-4-2h1l1-1v-3l9-1c1 1 1 0 1-2s0-3-1-2l-2 2c-2 0-3-2-1-2v-1l-2-1 2-1h1l3-1h1l-1-1 1-1-6 1-2-1c1-3 1-2-3 1m-95-1c0 1 3 4 7 6l3 3c0 2 10 11 11 10l8 9c3 4 5 5 5 4 0-3-3-7-4-7l-4-4-7-6c-5-2-8-7-6-8v-2h-1l-1 2-1-1-4-3-5-3h-1m66 2l-1 2c-2 1-3 1-3-1-1-1-1 0-1 2v6l1 7c0 6 1 8 4 6s3-3 3-11l-1-8c-1 0-2-1-1-2l-1-2v1m-81 3c1 3-1 6-3 6l-2 1h-1l-2-2c0-1-1-1-3 1s-4 1-7-1c-2-2-2-2-4 0-2 1-3 3 0 3l1 3c0 2 1 3 3 1 1-3 7 0 7 4 1 3-3 4-4 2h-2l-1 1-1-1-2-1a2 2 0 00-2 5c2 0 6 4 4 4l-1 3-1-1-2-2h-2c-2-2-2-2-5 1l-3 2 1-1 1-2h-1c-2 1-3 7-2 10v7c0 7 0 8 3 7 3-2 6-2 12-3l7-1 8-2c6 0 12-1 13-3s17-2 19 0l5 2c4 0 4 0 4-3-1-3 2-7 5-7l1-1v-2c2-1-1-5-3-5v-1l-1-2-1-1c1 0 0-2-2-3l-13-13c-3-4-9-7-10-6-1 2-3 2-2 0l-2-1h-2l-4-1c-4 0-4 1-3 3m32 5l1 2-2-2-2-1c0 1 1 3 6 5l7 6c3 4 8 6 7 3l-1-3-4-5c-3-1-6-3-7-5-3-4-5-4-5 0m22 3v8l2 6c1 1 1 1 2-1l4-5c3-4 3-6-5-12-2-2-2-2-3 4m14-3l1 1c2-1 1 0-1 3-1 2-1 2 1 4 6 4 7 3 5-4-1-4-6-7-6-4m0 14c2 5 5 7 8 4 2-1 1-4-5-7l-4-2 1 5m-6-1c-4 5-4 6 1 6 4-1 4-1 3-5 0-5-1-5-4-1m63 0l-1 2h-2l-1 1c-2 0-2 1-1 3l2 1c1-1 4 1 4 3l1 4c2 1 2 1 4-1 1-1 2-3 1-4 0-2-1-2-1-1h-1l1-2 2-3 2-2 1-1a7 7 0 00-5 2v2c-3 2-5 1-5-2l-1-2m22 1l-2 2c-2 0-3 1-3 2h2l-2 3c-3 3-3 4-2 4l2-1a4 4 0 016 3 3 3 0 004-1l-1-2-1-1-2-2a2 2 0 010-3l1-1h1v-2c-2-2-3-3-3-1m-388 2l-2 4c-2 2-2 9 0 9l1 5c0 4 0 6 1 5v-4l1-2v-1c-1-2 3-4 5-2 3 1 3 1 3-1l-2-5-4-5-3-3m-22 12l2 4c2 2 2 3 1 4s4 9 5 8l-2-4-3-3c0-2 2-1 6 4 6 6 8 6 5 2l-2-6-5-6c-4-4-6-5-5-2v1l-1-2h-1m103 3l-1 1c-1 0-2 1-2 3 1 2 0 3-1 4v3c2 3 4 4 4 1 0-1 0-2-1-1-2 1-1-3 1-4 2-2 2-2 1-3-2-1-2-2-1-2l1-2h-1m38 1v1l-4 3c-3 1-5 5-5 9l-1 8c-2 10-2 33-1 32l2 1h7c0-1 0-2 1-1l12 1 3 2h1c1-2 8 1 9 4l1 4v-4c-1-3 0-4 1-2l1 1 1-2 2-5 1-4c2-1 1-3-2-8-3-3-4-6-4-8a12 12 0 00-2-8c1-2 0-5-4-6l-4-1-2-1 4 4c5 3 7 6 2 3l-3-2h-1l-2-1c0-2-8-1-8 1s-1 2-2 2h-6c-4 0-7-2-3-2v-2c-2-1-2-7 0-7h2v-2c-2-1 4-7 8-9l2-1h-6m58 0l1 2c5 3 7 6 5 7v3h-1l-2 1c0 3-3 2-3 0h-2c-2 3-1 4 1 6a2 2 0 110 4l-1 11 1 11 1-3c0-2 5-9 8-11 1 0 2-3 2-15l1-14h-3a3 3 0 01-4-2h-4m18 1c-4 3-4 26 0 26l2-2 1-3 1-9-1-11c0-4 0-4-3-1m154 3c-3 3-3 3 5 3h8c1-2-2-3-10-4-1 0-2 0-1-1 1-2-1-1-2 2m-382 3l2 2 4 7c3 5 6 8 5 5v-2l1 2c1 2 1 1 1-3 0-11-2-14-8-11h-5m15 11c0 8 0 8 2 9l3 3c1 1 1 1 1-1l-2-3-2-4c1-5 1-5 3-4 3 3 1-1-2-4l-3-4v8m87-5l-2 1c-2-1-4 5-3 8l-1 2-1 2c-1 2 0 3 3 1 2-1 2-1 1-2s-1-1 1-1a5 5 0 013 3h-3l-4 2-2 2v3l-5 15-3 9-2 4c-4 4-4 5 1 5 3 0 4-1 5-2 2-2 2-2 3 0 3 2 10 4 13 2h4l1 1h2c2 1 2 1 4-6l2-7v-10l-3-13c0-8-2-13-6-17-3-3-6-4-8-2m17 6v5l1 7 1 8v4l1-4v-12l-1-9-2 1M0 387c0 69 1 97 1 62a18123 18123 0 00-1-62m320-125l-2 2 1 1h1l-2 1 1 1c3 1 11 2 12 1 1-2-8-7-11-6m338 6c-4 0-5 2-4 4l1 2h1c2 0 2 0 2 2l1 2v-4c0-2 1-3 3-3 5-2 2-4-4-3m-341 2l-2 3c-4 1-3 9 1 13l2 3 2 4 3 2 1-5 2-6 2-2 2-7v-5h-3l-7-1-3 1m50 2l7 21c2 0 1-8-1-13-1-5-6-10-6-8m-95 2c-2 5-2 6 3 8l3 2-1-4-1-5c0-2 0-2-1-1h-3m25 0h-3l-2 1-2 1v1c0 1-2 4-3 3l-3 1h-1l1-2 1-1h-1l-3-2c-2-3-1 1 1 6l4 11 3 8 4 1 4 1h1l3-1c5 0 11-20 7-23l-2-1-2-1-3-2v1c1 1 0 2-2 2l-1 1h-1l-2-1v1c1 1 1 1-1 1h-2v-1l1-1 2-1c1 0 4-3 3-4l-1 1m246 4l-2 4-1 2-2 4-2 6c-3 5-4 9 0 13l2 3 1-3v-5c0-3 0-3 1-1 1 1 1 1 3-3 3-6 3-6-1-9l-2-3 3 2c2 3 3 2 3-1 1-1 0-2-1-2l1-1v-1c-2-1-3-4-1-4v-2l-2 1m-60 4l1 2c2 0 4 5 3 6l1 1c1-1 2 0 4 1 3 4 16 5 16 2s-3-4-8-3c-6 0-9-1-9-4l-3-2-3-3c-1-4-2-4-2 0m39 0c-2 4-2 4 0 8l2 4-1-3v-8l1 2c0 5 2 7 3 4v-4c-2-1-3-4-1-4v-1c-2-1-3 0-4 2m47-2c-4 2-5 16-2 17l3-1v11l1 10c0-1 1-2 3-2s5-2 5-4l-6-20 1-1v-4c-2-7-2-7-5-6m-203 5c-1 3 1 12 2 14h3c2-1 2-2 0-4l-3-8-2-5v3m214-1v13l1 2 2 6 2 4 1-6c1-9-3-21-6-19m8 14c0 11 0 14 1 10 1-6 2-22 1-23s-2 4-2 13m-277-9c0 3-2 6-3 8-3 6-3 6 3 6 4 0 6-1 7-3 2-3 1-7-1-7l-1-2-2-4c-2-2-2-2-3 2m281 11c-2 15-2 17 0 18l1-1h-1l-1-1 1-1c1 0 3-4 2-5l-1-10c0-11-1-11-1 0m-48 1c-4 10-4 10 1 16 3 3 3 4 6 3l3-1c1 0 2-2 2-5l1-8c1-2 1-2-2-3s-3-2-2-2c2 0 2-1-1-4-5-5-5-5-8 4m-60-3c0 4 0 4 3 4l3-1h-3l-2-2c0-3 13 6 16 10 1 3 11 9 11 7l3 2c5 5 7 3 3-4-2-4-4-5-8-7l-4-2 1-3c1-3 0-4-8-5l-7-2-5-1h-4l1 4m3 5c-4 0-4 1 1 4 5 4 11 6 11 4 0-4-7-9-12-8m38 1l-1 4-1 4v2l1 6a18 18 0 009 12v3l1-1 1-3 1-1 7-7a13 13 0 00-7-6v-4l-4-1-3-2h2a1 1 0 100-2l-2-2c0-3-4-4-4-2m-56 3c-1 3 0 42 1 42h2c1 1 2-1 1-5l2-2c2 0 2-1 2-8 0-28 0-28-2-29-3-2-6-1-6 2m-20-1l2 6 3 9 2 5v5c0 5 2 7 4 4 2-2 2-2 0-5l-2-4-1-5-1-12 4 9c3 11 4 11 3 1 0-7-4-15-6-13h-8m35 4l2 8 4 13 1 7h8a106 106 0 0129 2 26 26 0 00-14-16c-1-3-10-8-16-9l-10-5c-2-3-4-3-4 0m-38 14c0 13 0 13 3 14s4 0 2-9c-3-21-5-22-5-5"
      tabindex="-1" itemprop="light" style="fill-opacity: 0.592; fill-rule: evenodd;"></path>
    </symbol>
    <symbol id="-posters-1650742918292-regular">
      <path d="M412 44c-1 2-3 2-6 2-3 1-5 1-6 3l-3 2c-1 0-2 1-1 2h-1c-2-1-3 1-2 5h-1c-1-2-3 0-3 3l-2 2c-2 0-3-1-3-2h-2l-3-1c0-2-1-2-3-2l-1-1h-1l-1 2c1 1 0 1-2 1l-2 1-1 1c-1-1-2 0-2 1v1l1 1-3 1c-3 0-3 0-2 3l-1 3-1-2c0-2 0-2-3-2-2 1-2 1-2-1 1-2 1-2-3-3h-3c1 1 0 1 0 0-2 0-2 0-2 2h-1c-1-2-5-2-5 0l1 1c2 1 1 2-3 4h-4v-2l-1 3-2 4-1 2h3c2 0 2 0 1 1 0 2-3 3-3 1l-2-1v1l-1 1c-1-1-2 0-2 1l-1 4 1 2h1l2 2 1-1a2 2 0 014 1c-1 1 0 3 1 3a2 2 0 11-3 2c-1-2-5-3-6 0h-2c-1-2-2-1-2 2-1 4 0 6 3 5l2 2 3 2 1 3 1 3 1-2h1v2l1 1 1-2h2l2-1c-1-1 2-3 3-2s-3 5-7 7c-3 1-5 4-3 5l1 1h3v-1c-2 0-2 0-1-1l2-1h1l1 2v1c-2 0-1 2 1 4 2 1 2 1 1-1 0-3 1-4 3-2l1 1c-1-3 0-3 2-1s3 3 1 3h-3c-2 1-2 1 2 4s9 2 10-2c1-3 2-3 2-2v1l-1 1c1 2 7 4 8 2l3 2 3 2 2 4c0 3-1 5-4 5l-4 5-1 1-5 5-2 1c-2-1-2 0-2 3l-1 3-1 3c0 2 0 2-5 3-8 0-12 1-12 2l-5 1c-4-1-5 0-5 1l-2 1c-1-1-4 4-4 6 0 1-1 2-3 2l-1 1-1 5c-2 4-1 6 2 4 1-1 1-1 2 1l1 2a1 1 0 010 2 10 10 0 00-8 6c-2 1-3 3-2 3 1 2-2 1-4-1s-3-2-3 0c0 1-2 1-2-1-1-2-4 1-4 4h-1c-2-2-3-2-3 0s-7 2-8-1l-8-1-11-1c-4-2-20 0-23 3l-7 3-8 3-4 3-2 1-2 2c-3 1-6 6-4 7 1 1-4 3-8 3l-3 1-3 2c-2 1-2 2-2 6l-1 5c-3 2 0 6 4 6 3 0 3 0 2 2-2 2-1 4 1 3h1l1 3c2 1 4-1 3-3l2-1c2 1 2 0 1-2l1-2v2l1 1 2-2c1-2 1-2 3-1l4-1 1-2c2 0 4-5 3-6s0-2 2-3 2-1 2 1a3 3 0 004 4c-2-1 0-2 4-2 3 0 5-2 2-2-1-1-1-1 1-1s2 0 1-1c-1-2-1-2 1-2s3-1 3-2h-1c-1 1-1 1-1-1s0-3 1-2l1-1h1c1 2 1 2 2 1l2-1 3-1c1-2 1-2 2-1v3h-1 3c0-2 4-3 5-3l1-1h2a1 1 0 100-2l-1-1 3-1 2-1 3-2c4-1 5-1 2 1-2 2-2 2 0 2 1 1 2 0 1-1l1-1c4 1 6-2 3-3l-1-2c2-1 5 4 4 6-2 2-2 8 0 12l2 3h-3l-2 2-1 1-1-2c1-2 1-2 0 0-1 3-5 4-5 1l-2 1-1 6c0 2 0 4-1 3h-2c-1 1-1 1-1-2l-1-5v4l-1 4v5l-2-2-1-1v8c-1 0-5-5-5-7a6 6 0 00-4-4l1 1 1 3 1 3 1 3c1 3 1 3-1 2s-2-1-2 2c1 3 2 5 4 5s2 0 1 1c-2 1 0 4 2 4s2 0 3 4l-1 4c-1 1-4-4-5-6l-4-5c-3-3-5-5-4-6h-4l4 5a9 9 0 014 6l5 4c1 3 5 6 8 8 9 6 12 11 12 21l2 9c2 3 2 12 1 11l-5 2c-2 3-3 4-3 2l-3-5c-4-3-4-4-2-6 1-2 1-2-2-3s-3-1-3 1v1l-1-1-1-1h-2l1-1c2 0 1-3-2-4s-5-1-7 1l-2 2v-5c1-6 1-6-2-6h-4c-1 3-9 2-8-1l1-1 3-2c4-4-2-11-6-7-1 1-1 1-1-1l-2-1c-1 0-2-1-2-3l-2-3c-1 1-1 0 0 0 0-2-1-2-3 0l-3 1c-1-1-3 0-4 1h-4c0-1-1-2-4-2a7 7 0 00-7 3c0 2-1 2-3 2l-5 1-2-1a3 3 0 00-4 0l-3 1c-4 1-4 4-1 5s1 3-2 3c-2-1-4 0-6 1l-5 3-2 2c0 2-8-1-10-3h-1l-3 1c-2 0-2 0-2 2 1 1 1 1-1 1h-5c1-1 0-2-1-3h-2l-2 1c-2 0-2 0-2 2 1 1 0 2-1 2v2c0 2 0 2-1 1s-2-2-1-3l-1-1-2-2c0-2-1-2-2-2-1 1-2 0-3-1h-6l-3 1c-2 3-2 2-3-1l-1-6c0-3 0-3-6-3-3-1-4-5-1-8 2-3 2-3 1-4v-3c2-2 2-2 0-3v-3l-1-2-3-2h-2c-3 2-5 0-4-3 2-3 1-3-2-2-5 3-8-1-4-4l3-2h-5c-4 0-4 0-5 2-1 4-12 4-16 0s-4-4 0-7l3-3h-2c-2 3-6 5-4 3l1-3-2 2c-2 4-3 4-3 1 0-1 0-2-1-1h-1l-1 2c0 4 0 5-1 3h-3c-2-2-2-2-4 1l-2 3h-1l-2-1-3-1c-2-1-3 2-1 3l1 2a2 2 0 01-5-1l-2-2c-2-3-2-3 1-6 1-1 3-2 4-1l1-1 1-1-1 3v1c1 0 2 0 3 2 1 3 4 0 3-3v-3l-1-1h-7l-3 2-3 2c-1 0-3 3-3 5h2l1 1h1c0 1-5 2-6 1a2 2 0 00-4 1c2 2-1 2-2 0-2-2-2-2 0-3l1-1-4 2c-2 2-3 2-3 1-1-2-4-3-4-1 1 2-5 3-7 2l-1-4c1-4 2-4 2 0l1 4 1-2v-1l1-1 2-1h1l-1-1 1-2c1-1 1-1 2 1 0 2 4 5 4 3l2-2 1-1 2-3c1-1 1-1-1-1a3 3 0 01-3-3l1 3h-1l-3-1-2-1-2-2c2-2 0-4-3-3-9 1-11 1-11-1v-1a9 9 0 001 10l-3-2c-2-4-4-3-4 5v7l4 1c4 1 6 3 5 4l-2-1c-3-2-7-1-7 2l1 2v3L0 392v120h709V379c0-176-1-178-3-175-2 1-3 1-2-2l-1-1-1-1 3-1 3 1v-70c0-69 0-70-2-70l-2-1c0-2-5-4-12-5a39 39 0 01-11-1c-1-1-3 0-4 1l-3 1c-3-2-8 0-9 2l-2 2c-3 0-4 2-3 3v1l-2-2-7-1h-9a20 20 0 00-18 1l-1 1c0 2-3 4-5 3-1-1-2 0-3 1-3 2-4 3-4 1l-3-1-3 1h-4l-4 1-3 1c-2 0-9 7-9 9l2 2c2 1 1 3-1 3l-1 3c0 3-1 4-2 4v-1l-1-2h-3c1 2-1 1-3-1h-2l-2 1-1 2-1 4v2c2 3-1 5-3 3a7 7 0 00-9 9l1 3c0 2 0 2 1 0h2c0 2-3 3-4 2 0-1-1-2-2-1-1 0-2 5 0 5l1 2c-1 2 2 4 3 2h-1l-1-1c1-2 4 0 4 3 1 2 3 3 3 1l3-1c4 1 6-1 4-2v-1c2 0 3-3 1-4h-4c-3 1-5 0-3-1l4-1c2 0 2 0 1-1l-1-6 1 2c1 2 5 1 6-1h2c1 2 1 3-1 3s-2 0-2 2v1c-1-1-1 0-1 2 1 3 5 5 5 2 0-4 0-5 1-4h9l-3 1c-2 1-3 2-2 3h13l-3-1c-2-2-3-5 0-4l-1-1c-3-3-4-5-1-3 1 1 1 1 1-1h3l2 4 1 2 3-3c-1-2 4-2 6 0h1l4-1c4 0 5-1 3-3-1-1-1-1 1-1 1 1 2 0 1-1h1l1 2 1 2c2 0 2 5 1 5a5 5 0 01-3-1v4c0 2 3 4 6 3l1 1c3 4-10 0-14-4l-3-2-1-1-1-1 2 4 11 7c2 1 2 1 1 2-2 1-1 4 1 4h8c1-1 2 0 2 1h-1l-2 1c-2 1-6 1-10-2l-8-3-6-2-3-1 2 2c2 1 3 2 2 3h-2l-2-2-1 1v1l2 2c3 2 3 2 4-1 0-2 2-2 8 1 3 2 4 3 2 5-1 2-2 2-4 1l-3-1-1-2a1 1 0 10-2-1c0 2-1 2-7-1l-11-6-3-2 3 3 1 2-7-4h-1l-2-1c-3-2-4-1-1 2l8 3c10 3 12 3 12 5v1l-1 1c-1 3-10 0-10-3l-1-2-1 1-1 1c-1-1-2 0-3 2 0 2 0 2-4 0-3-2-15-2-23 1l-8 1-3 1-1 1c-2 0-2-2-1-4v-2l-2-2 2-1v-1l-1-1 1-1 1-1c1-1-3-4-5-2l-1-1c0-2-7-1-7 1-1 1-1 1-3-1-3-2-3-4 0-4l1-1-1-1c-1 1-1 0-2-2l-2-2h-1l-1-1-2-1h-7v-3c-1-1-1-2 1-3v-1l-1 1-2 1 1-2 2-2-3 1c-2 2-3 2-4 1l-4-1h-3l-4-1c-2 0-2 0 2-3 4-5 4-5 1-8-2-3-4-3-7-3-4 0-5-1-4-2l2-1c3 0 5 0 4-1-2 0 0-2 2-2s2 0 1 1h3v-1l-1-1h-1l1-3 3-3h1l-1 2v4c1 2 1 3-1 3l-1 1h-1l-2 1 3 1c4 1 7 0 7-3l1-3a3 3 0 016 0l2-1 2-2 2 1h1c2-2 3-3 0-3-1-1-1-1 1-4 3-3 3-3 1-4v-5l-2 2c-2 1-2 1-1-1 0-3 0-3-2-3l-4 1h-1c0-2-2-4-4-4l-2-1c-2-1-5 0-7 2h-2c0-4-7-6-10-3h-2c0-1-6-2-8-1s-2 1-2-2 0-3-1-1l-1 2-1-1v-3c3-2-1-4-4-3-2 1-7 0-9-1-2-2-8-3-11-2l-5 1c-3-2-13 1-13 3 0 1-2 2-6 2-5 0-7-1-4-2 2-1-2-4-5-4h-2l-2 1m122 36h-2c-1-2-9-1-8 1l-1 2-3 2c-2 2-2 2 0 2l1 1-4 1c-5 0-8 2-8 4h2c3-2 8-2 8 0l-3 4-1 4h3l2 1c1 1 7-2 8-3h2l2-1c0-2 1-2 2-2h3c2-2 7-4 9-3 2 0 1 3 0 3l-2 2-1 1-5 3-4 3v2h3l1-2 2-2c1 0 2 1 1 2v2c1 1 2 0 2-1l2-1 2-1v-2c2 0 4-2 4-5l3-4c3-2 1-6-3-6-2 1-2 1-1-1 3-2 0-6-4-6h-2c-1-2-9-2-10 0m-6 9v3l-1-1-2-1c-3 0-4 1-4 2-1 2 0 2 2 1 3 0 3 0 2 1l-3 1c-1 0-4 2-4 4h2l1 1h2c1 0 2-1 1-2 0-1 0-2 2-3 2-2 4-1 1 1-1 1-1 1 1 1l2-2c1-2 1-2 5-2s4 0 3-1l-4-2-5-1h-1m-41 5h-3l-2 1-2 1h-3v3l3 2h2l2-1 1-1v-1l2-2c1-2 1-2 0 0 0 1 0 2 3 1l1-1v-1l-1-1c-1 0-2 0-1-1 0-2-1-1-2 1m-142 3v5c2 2 2 2 0 2h-1l-1-1c-2 0-2 1 0 3l3 3v-1c-1-1 2-4 5-5s2-4-1-5v1l1 1c-2 0-4-1-4-3h-2m40 13c-2 1-1 5 1 5 2 1 3 6 0 5-2 0-2 4 0 10 2 4 5 7 5 4l3-1 3-1-1-2-2-1 1-1a2 2 0 00-1-4c-2 1-2-1-1-3v-4l-3-6v1c1 0 0 2-2 2v-1l-2-1-1-1v-1m280 9l-4 12c0 2 0 2 1 0s1-2 2 0 3 0 4-3c0-2 0-2-1-1-1 2-3 0-3-2s3-6 6-6c2-1 2-1-1-1l-4 1m-287 9l1 3 1 3-1 1c-1 1-1 0-1-2 0-3 0-3-1-2-1 2 1 9 2 9v-2l2 1 2 1 1-2h2c1-2-1-9-3-9v-1h-5m236 13v2h-1c0 2 0 2 2 1h2l7 3c2 0 2 0 1 2-2 1-2 2-1 2l1 1c0 1 1 2 2 1 3-1 4 7 1 9v1l3-1 1-2 3-2h8c0-5-2-6-7-8-4-2-7-3-8-2v-1c2-1 1-2-4-4l-4-1c0 1-1 1-1-1-1-3-5-4-5 0m14-2c1 1 1 1-1 1-2 1 4 6 10 8 4 1 5 1 4-2 0-2-1-3-3-3-3 0-3 0-1 2v1c-2 0-2-1-2-3a8 8 0 00-7-4m29 0c0 2 7 8 9 8l2 2c1 1 1 0 1-2 0-4-3-7-4-5-1 3-3 2-3 0v-2l-4-1h-1m-153 5l-5 2-3 1-5 3-3 5-3 6-1 5v5l4-4c3-4 4-7 2-5-2 1-2 1-2-1s1-3 2-3c2 0 2 0 2-2-1-1 1-5 3-5l1-1 4-1 4-2 3-3c2 0 2 0 1-1-2-1-2-1-4 1m144 6c-1 3 1 6 4 6 2 0 2-8 1-9-3-2-5-1-5 3m8 0l-1 5c-1 3-1 3 1 5l3 2 1-2 2-2 2-1c1-2 1-2-2-6-4-3-6-4-6-1m-179 6c-1 2 0 19 1 20 2 1 4-4 4-10s0-6-2-5c-2 0-2 0 0-2 4-3 4-4 1-4l-2 2h-1c0-2-1-2-1-1m209 1l-3 1c-3-1-4 0-3 2 0 2 1 2 2 1h4l-1 2v1c2 1 3 1 4-1 2-2 2-2 0-3l-2-2-1-2v1m-136 2c-1 1-3 2-4 1-1 0-2 2 0 3l1 2v3l-1-3c0-1-1-2-2-1h-3l-1 1-2 2-4 1c2 2-3 3-5 1l-2-1-2 1-3-2-4-1h-3a2 2 0 00-3 3c3-1 9-1 9 1l1 1c3 0 3 1 2 5l-1 2v-2c-1-2-1-2-2 0v4h4a22 22 0 0116-4l1 1 1-1-1-2v-2h1c0 1 3 0 4-2l1-1c0 2 1 2 4 2h4l3 1c2 0 3 0 3 2 0 3 6-4 7-7 0-2 0-3-1-2l-1 1-3 1 1 1h1c0 2-8 2-8 1l1-2 1-2-2 1c-3 3-8 4-8 2l1-2v-1c-3 0-2-3 1-4 3-2 3-2 1-3-1-1-2 0-3 1m115 1c-3 3-4 5-2 5l2 3c2 4 5 3 3-1-2-3-1-4 1-4 3-1 5-4 3-5s-3-1-7 2m10 2v2l2 2v1c-1-1-2 0-3 1l-1 2c-3 0-3 4-2 7l2 2 1-1c-1-1 0-1 1-1l-1-2-2-2 2-1 2-2 2-3h3l-2-3c-3-3-3-3-4-2m-181 3h-1c-2-1-9 7-9 10 0 2 0 3 3 3l2 1 3 1c5 0 11 2 12 4 0 2 1 2 5 2s5 0 4-1c-2-1 2-2 4-1l2-1c1-3 0-8-1-8v-3l-4 2-2 2v-1l1-3h-2c0 1-2 2-6 2-5 0-7-1-7-2h-2l-1-1v-1l-2-1c0-1 3-3 4-2l-1-1c-1-2-2-2-2-1m164 4v3c1-1 3 0 3 1 2 1 2 2-2 2-3 0-5 1-5 4l1-1h1c1 1 0 2-1 2-3-1-5 2-3 3v1l-1 4v2c-1-1-3 2-3 6 0 1 3 2 4 0 0-2 2-1 2 1s2 1 3-2l1-5v-3l3-4c5-5 6-7 3-11-2-5-4-6-6-3m-25 7c-1 1-2 2-3 1l-2 1c-1 3-2 2-1 0 0-2 0-2-1-1h-2l-1 1v2l2 2v1l-1 1h2c1 0 2 0 1 2 0 2-1 2-4 1-4-3-4-2-2 0 2 3 3 4 1 4-1-1-2 0-3 1-2 1-2 1-2-1 1-2 1-3-3 0-3 2-6 1-5-2l-2-1h-2l-2-1 1 3a2 2 0 010 3l-2-1c-4-1-5 2-2 6l1 11v6c1-2 2-2 2-1l-1 3c-1 1-1 5 1 4s8 0 9 1h3c6-3 18-2 19 3l3 1 4 1-1 1-1 2v2c-1 0-2 5-1 7l1 1v-1c0-1 0-2 2-1l2-1-1-1-1-1 1-1c3 1 7-6 9-14 0-3 0-3-3-4l-5-2h-1c1 2 0 3-2 1-1-1 0-3 2-3 2 1 4 0 2-1-1-1-1-1 1-1s2 0 1-3c-2-5-1-4-5-3-3 2-5 2-5 0h3l2-2c2 0 1-2-1-3s0-4 3-4c1 0 3-5 2-6h-3c-2 0-3-1-3-2l-2-1v-1l-1-2c-1-1-1-1 1-1s4 1 4 3l2-2c1-2 1-2-1-2v-1l-2-1v-1c2 0-1-3-3-2l-1-1c2-2-1-1-3 1m-280 3l-1 1-2 1c0 2-2 4-5 3a2 2 0 00-2 2h1c2 1 5 1 6-1l2-1c2 0 4-3 3-4 0-2-2-2-2-1m313 2a7 7 0 00-2 5l-3 13c0 6 0 6 1 5s2-2 1-3v-1c3 0 5 0 3-1-3-2-2-5 2-4 4 0 6-3 4-7l-1-1h-1v-7l-2-2-2 3m-87 8a6 6 0 002 11l1-1v4l1 1v4c-2 2-1 4 2 6l1 2-1-1c-2-2-3-1-2 1a28 28 0 011 7l3 1c5 2 7-3 3-6l-1-2v-9c-1-4 0-4 1-1l1 6 3 9 3-2c2-2 4-21 1-22l-1-2-1-1-2-2c-1-4-2-3-4 1 0 2 0 2 1 1h2l-1 1-2 3c0 2 0 2-1 1v-3c0-4-2-4-4-1l-1 2 1-4 2-4v-2h-3c-1-1-2 0-5 2m-63 3a3 3 0 01-4 5l1 1c2 1 2 2 1 3-1 3-5 3-7 2h-5c-2 0-2 0-1 2h-1l-1-2-3-1c-3 1-4 0-2-2v-1c-2 0-2 1-2 3 0 3-1 4-2 2h-2l-3 1h-3l3 1c4 0 8 2 8 5 1 3-2 3-4 1a17 17 0 00-8 11v28l5-1 10-2 8-2h10l7-2c8-5 18-5 21-2 2 2 9 2 11 0v-2c-2-1 1-6 4-6 2 0 3-5 1-8l-3-5-4-4-14-13-12-10c0 2-2 1-2-1 1-2 1-2-1-1h-4c-3-2-3-2-2 0m23 0l-1 1h-3c-1-2-1-2 0 0v3l-2-3-2-2-1 2c0 3 0 4 3 5l5 5c9 10 12 12 13 12l7 7c6 9 7 9 6 0 0-9-1-9-5-12-4-2-9-8-10-11l-2-2v-2c0-1 0-2-2-2-1 1-2 0-3-1-2-2-3-3-3 0m9 0l2 3c2 1 2 2 1 3-3 2 5 10 10 11 3 1 3 1 0-4s-13-15-13-13m16 0v1c-4-2-5 6-2 10 2 3 3 3 3 0l5-7c4-3 4-4 3-5-2 0-4 2-3 3l-3-1-3-1m115 2c-2 2-2 5 1 5l1 2 2-1c2-2 2-2 3 0s4 1 3-1l1-1v-2l-1-1h-2l4-1 2-1a7 7 0 00-9 2v-1c0-3-2-2-5 0m-107 3l-2 4h-1c-2-3-3 6-3 16 1 10 1 11 4 9h2l1-3 3-6a12 12 0 001-17l-1-2c0-3-1-3-4-1m77 4l4 2c2 1 3 1 1 1h-3l1 1v1c-2 1 1 6 3 6 2-1 3-6 2-8 0-2-8-5-8-3m-201 2l1 1v2c-2 3-1 4 4 3l5-1a4 4 0 00-4-4h-3a2 2 0 00-3-1m251 8v2c0 2 0 2-2 1h-2c1 2 0 2-1 2l-2 1v4c0 2 0 2 2 1h1l1 1c1 1 1 0 1-3 0-5 2-5 4-1 0 3 0 3 1 1l-3-9m-122 7c-3 3-4 7-2 6h4c3 0 4-2 2-8 0-3-1-3-4 2m83-2v2l-1 2-1 1-1 2h1c2 0 2 0-1 2-3 3-4 6-1 5 2 0 1 1-1 3h1l4 1 3 3v3c-1 1-2 2-1 3h-1c-3 0-3-3-1-3v-1h-4l-1 1-1 1a2 2 0 00-2 2l-1 1v1h3a7 7 0 005 2c4 1 8-2 7-5l1-1h3c1-1 1-1-1-1-1-1-2-2-1-3a1 1 0 10-2 0h-2c-1-2-1-4 2-4v1h2c1-1 3-2 4-1 4 0 6-2 6-4 1-2 0-3-1-3l-2 1a2 2 0 01-3 2c-2 0-4-2-4-5a17 17 0 00-8-8m-224 8l-1 1-1 6c0 6 1 9 2 3l1-2v2l1 3c2 0 1-4 0-5-2-2-3-3-1-2l1-3c0-4 0-5-2-3m-34 3v2c1 1 1 3-1 5h-6c1-1 0-2-1-2l-4-1-3 1-1 1h-1l2 2 2 1 2 1c2 0 1 1-2 3l-4 3-2 2c-1 1-2 2-2 5v9l1-6 1-6v9l-2 29c0 23 0 35-2 47 0 5 1 6 2 3s5-4 6-1h4c3-2 8-1 6 1-1 2 3 1 4 0 1-2 1-2 4 0s3 3-2 2c-7 0-8 0-7 3l3 2c2 0 2 0 1-1v-2l2 1h3l1 1c1-1 2 0 1 1h1l6-2c3 0 4-1 5-2 0-3 3-3 3-1l1-1v-12l-1-30c4-11 4-11 2-14-5-7-6-9-8-24v-4l-5 1-5-1c0-3-3-4-3-3v2a2 2 0 01-1 4l-4 1-4 1a1 1 0 11-3 0l-1-1c-1 1-4-1-3-2h1l1-1-1-1-1-1h3v-3c-1-2-1-3 3-6l5-3 2-1c0-1 2-3 4-3 4-2 5-4 3-5l-2-2c0-2-2-3-3-1m65 2c0 2-6 2-7 0-2-3-1 1 1 4 1 3 3 4 3 2v2c0 3 0 3 1 2 2-2 2-2 1 0v6c0 3 0 3-1 2l-1-1 1 3 1 6 1 8c0 2 4 1 4-1l2-2a27 27 0 00-1-20l1-4c0-3-1-5-2-5l-1-2-1-2-2 2m-113 0c-2 0-2 1-1 1v3a2 2 0 000 3l-1-2c0-2-2-1-2 1h-2l-2-1c0 1 2 4 4 4v3c-1 3 1 9 4 10 2 0 4-15 2-17a3 3 0 011-5h-3m28 4l-1 1-1-1c0-3-2 2-2 4l-2 5c-2 2-4 15-3 21s2 4 3-3c0-7 2-13 4-14l1-7c-1 1-2 0-2-2s0-2 1-1h3l1-2-1-3-1 2m71 2l-3 3 2 2 3 1 1 2v2l-1 2c-3 2-3 2-4 1s-1 0-2 3a4 4 0 001 6v26c0 1 3-3 2-4 0-2 4-8 8-10l1-7 1-14c1-7 1-8-2-12-4-6-3-6-7-1m170-1v1c-2 0-2 1-2 3l-1 1-1-1-2-1-3-1c0-1-1-2-4-2-4 0-4 2 0 3 2 0 3 1 3 2 0 2-1 2-5 2l-3 2-3 2-1 1c0 2 1 3 3 2l1-1h3c3-2 4-2 6 0 1 1 2 1 5-1 4-2 9-2 13 1 2 2 2 2 3 0l2-2c2-1 1-5 0-6l-1-1-1-1v-2l-1-1-1 2-4 1c-3 0-4 0-3-1l-1-2h-2m-41 6c-2 3-1 5 5 5l6 3c2 1 2 1 2-4s-1-7-2-4c-1 2-6 2-5 0 0-2-4-2-6 0m-222 0l2 6 2 9c0 8 1 10 3 5 1-4 0-5-1-8l-3-8-2-4h-1m5 2c-1 2 0 6 1 6l1 1 1 3 1-2 1-3v-3 3l-1-3c-1-3-4-4-4-2m-31 3c1 3 2 4 2 2l1-2v11a167 167 0 01-13 44l-4 5-2 6c-5 8-6 13-4 14l1 2c-1 3 2 4 3 1 0-3 3-3 6-2l2 2v1h-6c0 1 6 4 11 4l7 2c2 2 3 2 3 1 0-2 1-2 4-2l4 1 3-8 2-11 2-9c6-19 5-18 4-26l-2-14c-1-7-3-11-7-16-2-3-7-4-8-3h-1c1-2-1-3-6-5-2-1-2-1-2 2m23 1c-1 5-1 9 1 9s4-4 3-6l-1-4c0-4-2-3-3 1m-27-2v4c0 2 0 2-2 0l-3-2c0 2-3 1-6 0a1 1 0 10-2 1v1l-1 5-1 5v2c0 2 5 1 5-1l-2-2c-1-1-1-1 1-1l1 2 2 2c2 0 3 2 0 2-8 0-8 0-9 5-2 10-1 15 3 19l2 4 1 2 2 2c1 3 2 2 4-3l3-9 3-10v-7l-3-1-2-2 3 1c2 2 2 0 2-4a8 8 0 013-7c1-3-1-8-4-9v1m48 7c-1 2-2 19-1 22 1 2 1 2 1-2l1-5v-17l-1 2m-18 4c-2 2-2 2-1 5l2 11 1 9c1 1 2-11 1-16v-8c0-3-2-3-3-1m317-1l-1 2v2l-1-1a1 1 0 10-2 0l1 2 1 1a2 2 0 01-1 4h-4c1 3 3 3 7-1l5-3 3-2c1-3 1-4-1-1l-4 1c-2-1-3-3-1-3l1-1h-3m-309 7v6l-1 4c-1 1 3 15 6 20 4 8 4-5 0-14l-2-11c0-7-2-10-3-5m53-2c-2 3 1 16 5 19 3 2 3-3 0-6l-3-9c0-5-1-5-2-4m16 1l-1 23c-1 13-1 26 1 26v-16c0-13 0-18 2-27l-1-6h-1m8 5l-1 16c0 9 0 9 2 7 1-2 2-11 1-27 0-5-2-1-2 4m220-4l-5 1-3 1-4-1h-2l-2 1h-1l3 1c2-1 3 1 0 5v-1l-1-2-3-2c-1-4-10-1-11 3-1 1 0 2 1 3l1 2v1l3-4 2-1 1 1v4c-2-1-2 0-1 2 1 4 3 6 3 2l2-1h1v-2a5 5 0 004-2v1l1 2c0 2 0 2 2 2h1c-1 2 0 2 4 1 2 0 2-1 1-2s-1-1 1-1 2 0 1-2l-3-1h-1l2-1c4 0 4 0 3-2v-2l1 1 2 1-1-3c-1-1-2-2-1-4 0-2-1-3-1-1m-358 2v1l-1 2-1 1h-2v1h3c1 0 2 1 2 3a2 2 0 01-2 3v-1c0-2-5-4-6-2v1l2 1h-4l-3-1h-1v-1l-2 1h-2l-2 1c1 1-6 2-7 1v-2a1 1 0 00-2-3c-2 1 0 6 3 14 3 6 10 32 10 36 0 5 2 4 3 0l10-22a27 27 0 005-19l1-9c1-8 1-8-2-8-2 0-2 0-2 2m234 6c3 2 3 7 1 11l-3 6-4 10c-3 6-3 8 1 12l3 2 1-3c0-3 3-9 4-9l-1 5c-3 6-3 10 3 16l7 9 2 3v-5l2-13v-10l-5-7c-1-2-1-2 1 0l3 5c2 5 4 1 4-9v-4c1 2 1 2 1-1 1-3 0-6-1-7-1-2-1-2-1 3h-1c-1-3-2-3-5-1l-3 1-2 1-1-1-1-5v-1c-2 0-1-5 1-6 1-1 1-1-5-3-2 0-2 0-1 1m-267 2c1 1 0 2-1 1l-3 8 5 3 5 3-1-2-1-3-1-4a12 12 0 00-3-6M0 392c0 66 1 93 1 60a16713 16713 0 00-1-60m600-120l5 10 5 14c0 5 0 5 2 4v-2c-3-3-2-3 1-2 3 0 3-1-2-8-2-4-3-6-3-10 0-5-1-5-4-5a4 4 0 01-4-1m-7 1v2c2 3 1 5 0 4h-3l-2 1v4l-2-2c-1-2-2-2-2-1l-3 1c-3 0-3 1-3 2l2 10a35 35 0 004 14c0 3 2 0 2-4l1-5-2-6-1-6c1-1 1-1 1 1s2 4 2 1l1 11c-1 12 0 17 1 12v2l1 4 3 4c1 2 2-4 1-14 0-3 0-3 1-2l1 7v17c1 0 3-1 2-2l3-2 4-2h-1l-3-6 1 1 2 1 1-1-3-7v1l-1 1-1-5-1-7v-2l2 3 2 4c1 0 0-8-2-12l-1-10c-1-8-5-16-7-12m-104 1l-3 1c-3 0-4 2-3 13 0 15 1 18 3 19l6 3 5 2c3 0 3-2-1-7l-2-2 2 1 4 5 8 6 7 5c2 2 5 1 5-1 0-6-3-10-9-12-4-1-5-2-3-4l1 1c-1 1 3 3 6 3 2 0 2 0 2-3-2-4-7-7-8-3-1 1-1 1-1-1s-1-3-10-3l-7-2c-2-3-1-4 1-1 1 1 4 2 10 2l10 2c2 0 3-3 0-4v-1c2-1 0-6-3-7-2 0-2 1-2 4h-5l-6-1c-4 1-6-3-3-5 1-1 1-1-1-1-1 0-2 0-1 1l-2 1-1-2-2-1c-2 0 1-7 4-7v-2l-1 1m133 2l-2 3-1 4c-2 4-2 6-2 9 1 5 2 3 2-3 1-4 3-8 5-8v-5c2-2 0-2-2 0m-48 0v5l-1-1c-1-2-2-2-3-1l-2 2c-1-1-2 2-3 11-1 8 3 25 4 17 1-2 1-1 1 3a33 33 0 008 22l4 10 1-1h1c2 1 2 0 1-3-2-8-4-12-6-12l-3-1h1c1 0 2 0 1-2 0-2 0-2 1-1 2 0 2 0 1-4l-2-9v-10l-2-11-2-6 2 3 1 4 1-3-2-8c0-6-2-7-2-4m-51 4c-2 2-2 2-4 1-2-2-2-2-1 0l-1 1c-1-1-1-1-1 1l-1 4c-2-1-1 0 2 9l3 12c0 2 2 0 2-4 1-3 1-4-1-6l-2-2 2 1c4 3 4 2 1-4s-5-11-3-9l2 5c2 5 4 7 4 2v-1c1 4 3-1 2-6 0-5-2-7-4-4m14 2c-1 2-2 2-2 1s-1-2-2-1l-1 3 1 3-1-3-2-2v3l-3 6-1 4c1 1 1 0 2-1 1-2 1-2 1 0 0 4 0 3 2-2s2-4 0 5c0 2 4-5 5-8l3-8c1-3 1-3-2 0m-171 0c-2 2-1 9 0 15l4 23 1 13v-17l1-15c2 1 2-3 0-6l-4-9-2-4m-55 6l-4 11c-5 8-9 18-9 22-1 3-1 3 2 3l4 1h2v-2c-2 0-2-2 1-2l4-6 6-12c4-6 4-7 1-10l-2-3-2-4-2-2-1 4m162 1l-1 1c-1-1-2 1-3 7v6l2-2 2-2-1 2c-4 6-5 9-4 15v20l1 14 2 1 1 1c2 0 5 6 4 7l1 1c1 0 2-2 2-8 0-7 0-8-2-7l-1-1 1-1c2 1 2-3 2-10l-2-19c0-16 0-16-2-16v-1c1-1 0-9-1-9l-1 1m156 4c-3 5-3 6 0 9 2 2 4 0 3-7 0-8 0-8-3-2m6-4c-2 4-2 6 0 8l1 1c0-1 1-2 2-1 2 0 4-4 1-5l-1-3h-3m-206 2c-1 4 2 41 3 43v-18l-2-17-1-8m31-1c3 2 4 8 1 8-2 0-2 2 0 7 2 3 3 3 3-2 2-10 1-14-4-14v1m-98 7l-1 5-3 21-2 6 3-1c3-1 5-1 5 1l1 1c2 0 1 3-1 3a11 11 0 00-8 4l1 2c1 1 1 1 1-1s0-2 1-1h1l2-1h3v1c-1 2-1 4 1 2v-16l-1-21c-1-7-1-8-3-5m-135 3l-2 1 2 3c3 2 3 5 0 7-2 1-4 5-4 6l3-2 4-3 1-2 2-2v-1c-2-2-2-3 0-3l1-1 2-1h1l-4-1-2-1h-4m229 2l-1 2-3 1-3-1-1-1c-1 0-1 3 3 10 2 4 4 14 6 25a5 5 0 003 6c0 1 1 1 1-1v-14l-2-4-1-5-2-5c0-3 1-2 3 5 4 11 5 11 5 0a21 21 0 00-6-15l-2-3m68 2l-1 6c-1 3 2 17 4 17l4 7a310 310 0 007 13c1 4 4 4 6 1l4-1c4 1 4 1 5-4 0-3 0-5-2-7l-2-4a136 136 0 00-19-27c-3-4-6-4-6-1m-79 3l1 18c0 12 1 14 2 15 3 2 5 0 5-3l-5-25-3-6-1-3 1 4m39 4l4 17 3 13h7l25 1 1 2-2-1c-1-2-1-2-2-1s-17 2-19 0l-1 1-3 1c-2-1-3 0-4 1l-1 2v5c0 2 0 2 1 1 3-3 4-2 5 0l2 1c0-3 3-4 9-4l4 1c-1 2 4 2 6 0h5l2 1 3 1h1l2-2c1 0 1-1-1-4l-3-7c0-5-7-15-10-15l-4-3c-5-4-13-8-16-8s-8-2-10-5c-3-3-4-2-4 2m78 4c-2 4-2 27 0 30 1 3 4 4 4 1 0-2 0-2 1-1 0 2 6 4 9 4a83 83 0 00-12-32c-1-3-2-3-2-2M308 433l-3 1-4 2-2 2 4-1 6-2 5-1 6-2a1 1 0 00-2 0l-1 1-2-1h-4c-2-1-3-1-3 1m31 1l15 3 1 3v3l1-3c1-3 3-4 3-2 0 5 0 6 1 4l3-2c2 1 9-1 9-2l-2-2a187 187 0 01-31-4c-2 0-2 0 0 2m-7 3c-2 1-2 4 0 5h2l3-2v-1h2l1 1 2 1 2 1h7c0-2-2-4-3-4h-4c-4-1-10-2-12-1m54 3c0 4 0 4 4 5l3-1v-1l2-1 1-1 1 2v1l3-3c-1-2 0-3 2-3l3 1h4l3 2v-1c-1-1-1-1 1-1l2 2c0 2-5 3-6 1s-9-2-8-1c0 2 2 2 6 2l1 1-1 1h4c6 0 9-1 9-2-1-2 1-4 3-4l1-1-7-1h-11l-7 1c-2 2-4 3-4 1l-1-1-1 2h-1v-2l-3-1h-3v3m86 1v7c-2 2-3 5-1 5l4-1a5 5 0 00-3-11m29 4v4h3c1 0 3 0 4 2l2 1c2-1 7 0 6 2v1l1 2c-1 1 0 1 1 1 2 0 2 0 1-1s0-1 4-1l8-1c-1-1 0-1 1-1 2 0 1-1-1-2-5 0-6-1-5-2 3-3 1-5-4-5-2 0-3 0-2 1l2 1h-5l-9-1c-4 0-6-2-3-2l-4-2v3m-103 6l-8 1c-6 1-7 1-8 3-1 1-1 2 1 2l1-1c0-2 2-2 4 0h5l4 1 3-1c-1-2 0-5 1-4l1-1h-4m75 3l-1 2-3 1-2 2h2c4-1 4 0 0 2-2 1-3 1-2 2l9-4v-4l-2-1h-1m-210 1l-7 1h4a6 6 0 016 1c0-2 2-1 4 2l2 2c1-1 1-1 1 1-1 1 0 2 3 2h3l-3-3-4-3-1-1c0-2-1-3-8-2m240 5c1 5 2 7 6 8 2 1 3 0 0-2-2-2-1-2 2-1h10l1-1-3-1v-1l-2-1-4-2h-1c-1 2-7 0-8-2s-1-1-1 3m68 0l-2 4v-3l-1-2v2c0 4-3 4-5 0-1-3-1-3-2-1 0 4 1 5 5 5 5 0 6-1 7-5 3-5 1-5-2 0"
      itemprop="regular" tabindex="-1" style="fill-opacity: 0.566; fill-rule: evenodd;"></path>
    </symbol>
    <symbol id="-posters-1650742918292-bold">
      <path d="M450 45l-1 1h-3l-3 1h-3l-5 1c-2-1-3 0-2 1s-4 2-9 1l-4 2c-2 1-5 0-4-3 1-1-1-3-2-1l-1 2-1 1-2-2h-1c-1 3-4 5-4 2l-2-1-2 1-1 1-2 2-1 2c1 2-1 4-2 4l-1-2c-1-1-1-1-1 1s0 2-1 1h-2l1 2c2 0 1 2 0 2-1-1-2 0-1 1l-1 1c-1-1-1 0-1 1 0 2-1 3-2 1h-3l-1 1-1 1-2-1a2 2 0 000-2v-3h-1l-1-2-2-1-2 2c-1-1-1 0-1 1 0 3-1 4-3 3-2-2-3 0-3 3 1 2 0 3-1 3l-2 1h-2c0-2-2-1-2 1l-1 2v-3c0-2-2-1-5 1s-5 2-6-1a6 6 0 00-3-4c1 2-2 4-4 4l-2 1-2 1v2l1 2c1 0 2 1 1 2l1 2 2 1-1 1c-1-1-2 0-1 1 0 1 1 1 3-1 1-1 1-1-1-3-2-1-2-2-1-3v-2l3-2 1-1 1-1c1-1 2 3 0 3v3l1 3v-1l1-2h3c0-1 3 0 3 2l1 1 1-1v-1l1 1h1c0-3 3-1 3 2s-1 3-4 3l-2 1v4l-1 2h-1v3l1 1 2 1h1l1-2c2-1 3 2 2 2v1l2-1 1-1c2 2 6 2 5 0v-1l4-1c1-1 4-1 5 1 2 1 2 1 2-2-1-5-4-9-6-6-1 1-1 1-2-1-1-1-2-2-3-1l-1-2-1-2v3l-1 2-1-2c0-2 4-5 7-5v3l1 3 1-3c0-2 0-2 3-2l3-2 3-1v1c-2 0-2 1-1 1h3c1-1 1-1 1 1l-2 2c-2 0-3 0-2 3l2 2a2 2 0 01-1 2c-3-1-2 2 0 5l1 2-1 5v1c0-2 0-2 1-1h2v-2c-2-1-1-2 2-3l3 1v2l-2 1 2 2h1l2-1c1 1 1 0 1-2l1-3 1 2 1 1 1 1h-2l-1 1-1 1c-1 1-2 2-1 3l-3-1-4-2 1 2 5 4 2 2 2-4 1-3 1-1 1 2v1c2 0 2 5-1 7-2 2-2 2-1 3v2l1 1a2 2 0 011 4c-1 0-1 4 1 5v2l-1 3-1 2-1-1-2-1-3 1c0 2 0 2-2 0h-2c1 2-4 8-5 6h-3l-1-2h-1c-1 3-4 6-5 5l-2 1-2 3c-3 0-6 5-4 7v2c-3-1-5 0-4 2l1 2c-2 0-3 4-2 6 1 1 1 1-2 2l-3-1h-6c0-2-4-1-4 1l-3 1-2 1-2 1a11 11 0 00-5 0c-3 1-6 5-4 6 2 2 0 5-3 3-3-1-3-1-3 2l1 2v2c-1 1-1 1 1 2l2 2v4c1 1 0 2-1 3l-2 2h-2l-2-1c0 4-8 8-11 6-1-1-1-1-1 1l-2 2-1-1-2-1c-2 0-2 0-1 1v1l-2-1h-1l-2 1h-1l-2 2c-2-1-3 0-3 1l1 1 1 1c0 2 0 2 2 2l2 1-3 1-2 1c1 1 0 2-1 2v7l1 3v1c2 0 5 3 5 4h-5l-3-1v6l-2-2-1-1-1 2h-3c-3 0-4 0-3 1v1c-2 0-2 0-1 1l1 4 1 2c1-1 2 0 1 1l1 1 1 1-3-1c-3-2-7 0-5 2 3 2 1 5-2 3-3-1-4-1-4 1h-3c-2-1-2-1-1 1v3a2 2 0 103 3c0-1 1-1 2 1v3-1l-2-1c-3 0-2 1 1 3 3 1 4 0 3-3l1-1 1 2 2 2v1l-4 1h2l3 1 1 2v-2a4 4 0 016-4v-2h2c2 0 2 0 1-1l-3-2 1-1c1-2 1-2-2-2s-4 0-4-2h2l5 1a2 2 0 013 3c2-2 1-3-2-4-5 0-4-2 0-2 2-1 3 0 3 1v1l1-2c0-1 1-1 3 2 2 1 3 3 2 3v1h1l2-1 1 1 2 1c3 0 2-2-2-3-3 0-5-3-3-3a2 2 0 002 0l2 1 1-2c-1-1 0-2 1-3h3l-1 1h-1c-1 1 0 1 1 1l2-1 5-2 1-1v-3c-2-4-2-8 1-6v-4l2 1c2 2 2 2 3 1s1-1 1 1h1v-2l-1-2h2a6 6 0 008-7h1l2 1c1-1 1 0 1 1l2 2 1 1 2 1h2l1 2 1-1c-1-1 0-1 1-1 2 0 2 0 2 2v3c3-1 1-6-1-6s-2 0-2-2l1-2 1 1 1-1h3l3-1v-3l-3-3-2-1 3-1c3 0 3 0 1-2v-2l1 1c1 1 4 1 5-1h3v1c2 0-1 2-4 2a3 3 0 10-1 5 1 1 0 112 0l1 3 1-1 3-1c3 1 4 1 2 3v4l1 4v-3c0-2 0-3 1-2h2c0-2 0-2 2-1l3 2 2 1 1-1c1-5 2-6 2-1v5l1-4c1-1 2-3 3-2l2-2c0-2 0-2 1 0h1l2-1h7l-2 1c-1 0-1 1 1 2h3c1 0 2 0 1 1l1 1c2-3 3-7 1-6a1 1 0 110-2l4-2 2-1 1-2c0-1 1-1 1 2l1 4 2 1c1 0 2 0 1-1-2 0-1-2 1-2l3-1-1-1v-2h2v5l-1 4v5l1-5c1-6 3-6 5 0 3 6 3 6-4 6l-7-1-9 3-4 3c-2 0-3 2-3 2l-1 2c-2-1-2 2-2 6 1 3 4 3 5-2 1-2 4-5 5-4l-1 2-1 2 3-1 4-2 4-2a4 4 0 016 0v8l1 3 1 10 1 7c1 2 3 6 5 7a6 6 0 010 10v4c-2 4-2 9-1 33l1 16h-3c-2-1-2 0-3 1 0 2-1 2-4 2-5-1-7 0-6 1l-1 1-3-2c-1-2-1-2-3 1l-2 2c1-2 0-2-1-2s-2 0-1 1l-1 1-2-2-2-2-1 2v1l-1 3c0 1 0 2-1 1-3-4-8 0-8 6 0 2 0 2-1 1h-1c-1 1-1-4-1-11l2-38c1-4 0-5-1-4v-8l1-5c-1-2-1-2-1 1 0 5-2 5-2 0s-1-4-1 2l-2 7c-1 3-2 13-2 29 0 15-1 13-2-5l-2-9v-9l-2-8c-1-1-1-1-1 2a2 2 0 002 3l-1 1v7l1 21 2 23v7l-3 1c-2 1-4 2-7 1-3 0-3 0-2 1 2 2 7 2 7 1h2c2 3 1 5-1 5-3-2-2 1 2 3l4 2v7l-1 4c0-4-2-6-2-4s-1 2-5 2l-2 1h-4l-3 1 3 1-2 2c-1 1-3 2-2 3l-1 1-1-1c2-2-1-2-3-1l-2 2c-1 0-2 0-1 1l2 1 1 1c0 2 2 3 4 1l1-1a1 1 0 110 2l-2 1h-3c-3-2-4-2-4-1l1 1h1l-1 1c-3 1-3-4 0-15 0-2 3 0 3 3v2l1-3 2-2 1-1 3-1c3 0 3 0 1-1-4 0-3-3 1-3 3 0 3 0 1-2l-2-1-1-1-2-1c-1-1-1-1-1 1 1 2 0 7-1 7-6 0-5-12 0-14 2 0 3-1 3-2l-2-1c-2 1-2 1-2-7 1-9 4-29 6-34l4-20c0-7-2-4-4 4l-3 12-7 34c-1 7-2 8-3 7-3-2-3-5-1-5a1 1 0 10-1-2l-1-1h-3c-1 1-2 1-2-1v-1h1c0-2-2-7-4-7l-1-2-2-2-1 2c1 1 1 2-1 2-1 0-2 0-2 2l-2 2v-1l-1-2-2 2c-1 2-1 2-2 1l-4-2c-1-1-2-2-1-3l-1-2-1-1c1-1 0-2-1-2l-1-5c2-9 5-20 7-23l1-3v-4c-1 0-4 7-4 10 0 2 0 2-1 1h-1l-1 4-5 15c0 3-1 4-2 5-2 0-3 2-3 3-1 2-4 3-4 0-2-4 0-23 3-30l4-11-8 19c0 3-2 5-2 3-2-4-4-14-4-17l-3-6v11c2 3 6 42 5 43l-3-1-1-2c-2 0-2-1-1-3v-1l-1 1c0 1-4 3-5 2l-1-4c-1-3-2-6-5-8-2-2-3-3-1-3v-1c-3-1-1-3 2-3h2l-1-1-1-2-1 1h-2v-2h-3c-1-2-2-2-2-1-1 1-1-1-1-3s0-4-1-3c-1 2-5-1-4-3l-1-2h-3l-3-1-4-2-1-5a1 1 0 10-2 1c1 1 1 7-1 7l-1-1-1-2v-4c-2-2-4 2-3 4 2 1 2 2 1 3a1 1 0 11-2-1l1-1-2-1c-2 0-3 0-2 2l-1 1-1 2c0 2 0 2 1 1 2-2 2-2 2 2a4 4 0 01-3 6l-1 1-1-2c1-1 0-2-3-1-5 0-5 0-4 2s1 2-1 2c-1 0-2-1-2-4 0-8-2-13-3-13l-4-3-2-1 2 3c2 1 3 3 2 3h1l2 2v7c-1 0-7-1-8-3l-3-1 1 1 1 1c-1 1 0 1 2 2 5 1 8 3 7 5 0 2-1 2-4 0l-4-2c-3 0-6-3-4-4v-2c-2-1-2-1-2 2 0 4-2 6-2 3l-1 1c-1 1-1 2-2 1l-1 1v1l-2-3-2-4v-3a6 6 0 003-8l5-1c3-2 4-3 5-2h2v-1c-1 1-2 0-2-1l-2-1h-1l-1-2-2-1h5c1 2 4-2 4-4s3-4 3-3v3h-1l-1-1 2 3c2 2 4 1 4-1h-2l1-2 2-1 1-1v3c0 3 0 3 2 0 2-4 2-4 2-2l1 2 1-2c0-1 1-2 3-2 1 0 2 0 1-1l1-2c1-1-1-1-5 1-1 0-2-3-1-4 1-2 0-3-1-3v2l-1 1h-1l-2 1c-2 0-2 0-1-1 2-1 2-1 0-1-1-1-3 0-4 1s-2 2-2 0v-2l-2-1-3 2-3 1-1 2h-5l-3 1-4 3-2 1 1 1h3c1 1-1 1-5 1h-7l3 1h3l-3 1a2 2 0 00-3 3l-1-3c0-2-2-1-3 1l-5 4-2 2-4 9v-1c1-2-3-4-9-5l-7-2c-2-1-5 0-5 3 0 1 0 2-2 2l-3 1-2 1h-1a2 2 0 01-3 1l-1-1-2 1 1 1 1 2-1 2-1 1-3 1-2-1v-1c-1 0-2 0-1-2 0-3 1-3 3 0 2 2 3 1 2-1v-3c1-2 1-3-1-5 0-2-1-3-2-2s-5 3-6 2c-2 0-2-2 0-2 1 0 2-3 0-3h-1c0 2-2 1-3-1 0-2 0-2-1-1h-3c-2-1-3-2-2-3v-1l-2-1-2-1-2-1-3-1v3l-1 1-1 1-2 1 3 1c2 1 3 1 2 2l2 3c3 3 2 5-1 6-2 0-3 0-2-2l-1-1-1-1-1-2-2 2-1 3v2c-2 0-3-2-2-4 1-1 0-2-2-2l-2-1-1-2-2-1h1l1-1 3-1c4-1 5-5 0-5l-2 1 2 1-2 1c-2-1-3-6-1-6a1 1 0 00-1-3c-2 1-5-3-6-6 0-5-2-7-2-2 1 6-1 9-5 8h-3l2-1c3-1 4-4 2-6-1-1-2-2-2-7l-1-2v3l-1 2-2-3c0-2 0-2-1 0-1 1-1 1-1-1l1-3c1-1 1-1-1-1s-7-3-6-4l3-1c3 0 5-2 3-2l-4-1H53c-5 1-10 5-6 5l3 1c1 2-1 2-3 0-3-1-4-4-2-4l-6 1c-2 0-2 0 0-2v-1l-3 1v1l-2 3c-1 1-1 1 1 1 1-1 2 0 2 2v2l-3-2c-2 0-3-4-2-4a1 1 0 000-2l-2 1-1 2h-1l-3 1c-1 2-1 2-2 1l-3-2c-1 0-1 1 1 2l2 2-2 4c-4 6-6 6-6 1v-3l-1 4v3l-3-2-4-5c-1-4-2-4-1 0l3 4 2 3H4c-2 1-3 1 0-2l1-2c0-2-3-2-4-1v1c2-1 3 2 1 2-2 1-2 6-2 39 0 34 0 38 1 36h2l-1 2c-2 1-2 11-2 79v77h292l291-1h1l63 1h62V393c0-76 0-118-1-117l-1 2-1 2c-2-1-2 1-1 3l2 1c1-1 1 0 1 1 0 2 0 3-1 2-2 0-2 6 0 9 1 2 1 2-1 2-3 1-3 1-4-4l-2-6a19 19 0 012-18l-2 1c-1 1-1 1-2-1l-2-4-2-3c-3-3-3-4 1-3l6 2 5 2c4 3 3-15 0-18-3-2-3-3-2-7 0-5 2-7 3-3 1 1 1 1 1-1l-2-3c-2-1-2-15 0-17s1-3-1-2c-2 0-2 0-3-2-1-4 0-6 2-3l1 1h2v-1h-2l-1-2-2-1c-2 0-2 5 0 9 1 5 1 12-1 15v4c1 1 0 1-2 1-4-1-8-6-8-9 1-1 0-2-1-3v-2l-1-1h-1l-1-1v5l1 1 1 1-2-1h-3l1 3 1 1c-1 2-5-3-5-6l-2-4v3a2 2 0 11-3 2l-1-1h-2c-1-1-1-1-1 1 0 1 1 2 3 2 4 0 5 1 4 2s-1 2 1 2h2l1 3 3 4 1 2c2 1 1 5-2 4l2 2c3 1 4 3 2 3l-2 1h1l1 3c0 2-1 2-2 2l-10-3c-2 0-2 0-1 1l6 2c4 1 6 3 5 5l3 5c2 3 3 4 3 9v5l-1 8 1 3 3 4c0 2-4 6-5 6-2-2-9-2-9-1l3 1 2 1-2 1c-1 0-2 0-1 2h-1c-4-3-1-9 4-7l2-1-1-1-2-1c-2-2-2-2 0-2s3-1 2-3h-2l-2-1c-3-3-3-3-3-1 1 2 1 2-1 1l-4 1c-1 2-1 2-2 1l-1-2v2c2 2 4 3 4 1 1-1 2-2 3-1h2l-2 1-2 2-1 1-2 1h-1c-1-1-1-1-2 1s1 4 3 2c2-1 4 0 4 2s-5 1-7-1a5 5 0 011-8l-2-1v-4l-2 2-3 4c-1 1-2 0-1-1h-4c-2 2-1 5 1 6v2h4l1 3c-1 1-1 2 1 2l1-1v-1l1 2 1 1 1 3v3l1-1 1-1c2 1 3 0 2-1v-2l2-1c2-2 6 3 5 5 0 2-2 3-2 1h-2l-6 1-1 1-1 1c0 1 1 1 3-1h4l-3 2c-6 1-9 0-8-3h-1c-3 1-9 0-11-2v-2l1-1-2-1-1-2v-3l1 1 2 2 2 2c-1 1 1 2 2 0s2 0 2 3v4l1-4a5 5 0 00-1-6c0-3-3-5-5-5-3 0-4-3-4-9 0-4-2-2-2 2 0 3 0 3-1 1s-1-2-1 1v3l-1-3-2-2h-2c-1-1-1-1-1 1l-1 3-1-3c-2-2-2-3 0-3 1-1 1-1-1-2-1-1-2-2-1-3l-2-2-2-3-1-1v-1l-1-2-2-1 1-1c2 1 4-1 2-1h-3c-2 1-2 1-1-1l4-2 5-10 2-4 1-1c-1-2 0-2 2-2l2-2h-1c-2 1-2 0-1-2a3 3 0 015 2 3 3 0 000 5l1 1 1 3v-3l3-2c1-1 2 0 1 1h2c2 0 2 0 1 1a1 1 0 102 1l3 1h5c1-1 2-2 3-1l2-1-3-1-2-1-4-1-4-1h-3l-1-1-1-1-3-1-5-5a21 21 0 018-11c-3 1-3-2 0-4 1-1 2-2 1-3-1-4 7-16 13-19 4-2 5-3 5 0-1 1 1 2 1 0 1-2 0-4-2-3v-1c2-2 3-3 3-1v1c2 0 2-3 0-3-1 0 2-5 8-11l1-3 2-3c2-2 2-2 3 0 2 2 4 1 2-2v-3l2-3c1-2 2-2 3-2h2a6 6 0 016 0c-3 0-3 2 1 2 2 0 2 0 1-7l-1-8a4 4 0 01-1-4l-2 4c-1 2-1 3 1 2l2 1-3 1c-2 0-1 2 1 4l1 2-3 1c-2 0-2 0-1-2l-1-1c-2 1-3-1-1-2l1-4 2-4 1-2v-2h2l3 2v-9c0-6 0-9-2-10v-3c2-1 2-5 2-36V61h-2l-3-1-3-2c-3-2-3-2-3 0s-1 2-2 2l-1 1-1 1-1-2v-3c-1-1-1-1-1 2s0 3-2 3l-3 1h-4c-3 1-5-1-5-4l-2-1c-1 1-2 0-2-1a3 3 0 00-5 5v1l-1-1c-2-2-4-1-5 2s-3 4-3 2l-2-4c-2-2-2-2-3-1s-2 2-4 1l-1 1v2l-1-2c0-1 0-2-1-1-2 2-4 3-6 1s-9-3-9-1h-1c0-2-2-3-2-1l-2 1c-3 1-2 3 2 3 1 1 1 1-2 2-2 2-3 2-4 0h-6c-2 0-3 1-3 3s-2 3-3 2l-3 1c-2 2-2 2-5 0l-2-2 2-1c0-2-2-3-2-1h-3v2l1 3c-1-1-6 2-5 3l-2 2c-2 1-2 1-1 3v1l-3-1 1 1a1 1 0 11-1 2v1l2 1c1-1 1-1 0 0l1 1c3 0 4 0 4 2l2 1 1 1 1 2v1c-2 0-1 2 1 2 3 1 3-2 2-5-2-2-2-5-1-5l1 2 1 3 1-2c-1-1 0-2 1-2l2-2c1-1 2 0 4 3l4 2-2-3c-1-1-1-1 1-1l3 2c0 2 2 3 4 2l1 1c0 2 0 6 1 5 0-2 0-2 2 0l1 1 4-1h2v-2c2 0 3 2 2 4 0 2 1 3 3 1l2 1c2 2 3 3 0 3-1-1-1-1 0 0 2 1 2 2 1 3s-1 1 0 0l2-3c0-3 3-4 6-3 2 1 5 0 5-2h2l1 3c0 2 5 6 7 6 3-1 4 2 1 4l-3 2c-2 0-2 0-1 1 1 2 1 2 3 0l3-2v2l1 1c1-1 2-2 3-1l2-1c2-2 3 0 2 2l1 3c1 1 0 1-2 1s-3 0-3 2l1 1 1-1h1l2 1h2l2 1c1-1 1-1 1 1-1 2-1 2 1 1 2 0 2 0 1 1v2c2-1 5 2 4 3l-2-1h-2l-2-1-6-2c-5 0-5 0-5 5h2l2 2-1 2h-1l-2-1-8-2-7-2 1-3c1-1 2-2 1-3l-1 1h-2l-1 2c1 2 1 2-1 1l-2-2h1c2 1 1-2-1-3-3-2-4-2-2 0s1 3-3 2l-6-2-2-2v2c2 2 0 1-3-1-2-2-3-2-5-1h-3c-2 0-2 0 1 2l2 2-1 1 3-1h5l1 2 2 1c2 2 2 3 1 3a2 2 0 00-1 2c1-2 4-1 4 2 0 2 0 2 1 0 0-2 1-2 3-1l3-1a2 2 0 013-2l2 1c1-1 10 2 11 4v1h-1l3 1 4 1-1 1v3l-1 6-1 3-3-3c-6-8-10-12-12-13-1-1-2-1-1-2l-1-2-4 7c0 2-2 2-6 1l-5-2-9-5-7-4 2 2 3 2 7 4 7 4 6 1c2 0 2 0 2 4-1 4-2 5-3 3l-2-1-11-5c-4-3-5-2-2 1l8 4c4 1 5 2 6 5v5l-2 1h-1a5 5 0 00-9 4l-1-1v1l-1 1-1 2 1 1 1 2c0 3 0 4 1 2v-6l2 2c0 2 3 3 6 1h4a16 16 0 013 17l-3 12v1a1 1 0 012 2v2l2 4 2 4 2 1v1c-2 0-2 0-1 1l2 1 3 1c1 1 1 1-1 1l-2 2a69 69 0 01-10 19c-2 0-4 6-3 8v2c-1-1-5 0-5 2h-1c-1-1-2 0-1 2l-1 4c-1 0-2 6-1 7 2 1-1 4-2 3-1 0-2 0-1 2l-1 2a3 3 0 00-3 2h1l2-1 1 5 1 1-1 3c-5 6-3 11 2 8h4l1-2 1-4c0-3 2-2 2 0v2l1 1 2 5c2 4 2 4 1 5v1c2-1 2 0 1 3a3 3 0 000 4v4c0 5-1 8-4 7l-1-2v-1l-3-5c0-5 0-5-1-3v4l1 3 1 4c0 3 0 3-1 2l-2-2a56 56 0 00-1-8 6 6 0 00-9-5 2 2 0 00-5-1l-2 1c-3 3-3 5 1 5 2 0 2 0 1 1l-2 2-1 1v2c0 1 0 2-2 2l1 1 3 1h-3l-3 1-1 3c-2 2-2 3 1 3 2 0 2 0 1-1-2-1-2-1 0-3s7-3 7-1l3 2 3 3 1 1 1 1-4 2v-1l-1-1-1 5-1 6c-2 3 1 5 8 6l3 1-5 2a11 11 0 00-8 7h-1v-2c-1 1-4 0-4-2l-2-1c-2 1-4-3-2-4 1-1 1-1 1 1l-1 3 2-3c2-3 5-3 3 0-1 2-1 2 1 2l2 1c1 1 1 0 1-2l-1-5v-2l-2-3c-1-1-1-1 1-1 2 1 2 1 1-1l-3-1v-2c2-2 2-3 0-3h-2c-2-1-3-1-5 1a5 5 0 00-1 8l-1 1-1 2-2 4c-2 2-3 8 0 8v1c-1 1-1 1 0 0 2 0 3-3 1-3-2-1 0-6 2-7l1-1 1-1 1-1c-2-2 1-2 3-1l1 2h-1c0-2-4 3-4 4l-2 3v1l1 1 1 3h2c1-2 2-2 3-1h2l1 3c0 2-1 3-2 3-2 1-3-1 0-2v-2l-3 2c-2 2-2 2-3 1h-3c-2 2-4 1-2-1l-1-1-2 3-2 3 1-4c1-3-1-16-2-14v4c1 3 0 5-2 4-1-1-1 0 0 0a1 1 0 11-2 1l-3-1-3-3-1-3c-1 0-4 2-4 4l-1 1-2 2c-1 2-5 2-4 0l-3-1a2 2 0 01-3-1l-1 1h-2l-5 2h-1v-2l3-27a50 50 0 011-13v-4c0-2 0-2-1 0l-1 1c0-5-3 9-5 23l-1 6-1 3-1 12c0 7 0 7-1 4-2-7-2-7-4-6l-2 2v2c-1 1-1 1-2-1 0-3 0-3-1-2l-1 3c1 1 0 1 0 0l-3 1-3-1-2-2v4c0 5-3 10-4 8l1-3v-1h-3l-1-2c1-1 0-2-1-4-3-2-4-3-3 0l-1 1v1c0 1 0 2-2 1l-2-2c0-2-2-1-3 1l-1 6c0 3 0 3-3-1-3-5-3-7 0-7l1-1h-2l-3 3-1 2-2 2-2 2c-2 0-2 1-2 3l-2 4-1 3-1 2c-2-2-2-8-1-9 2-1 3-4 1-4l-1 2-1 1v-9c-1 0-2-1-2-3l-1-11-1-9h-1l-1-2-2-10c-2-3-3-12-2-13v-4l-1-5v-6a35 35 0 011-18l-1-1h4a2 2 0 003-3l2-2 2-1 4-1 4-3h6c2 0 2 0 0 2s-2 2 0 2c1 1 1 1-1 1-2 1-3 0-2-1l-5 1c-4 3-5 4-5 6v3l-1-3c-1-2-1-2-1 1l-2 4c-2 0-2 0-1 2 2 2 4 1 4-2l1-2v3c0 2 2 1 4-1h2l2 1c1-3 6 0 6 3v1l1-3 1-2c1 0 2 3 2 7 0 5 1 4 1-3v-6 2l-1-1-2-3 1 1h7c1-1 2-2 3-1v-2l1-1c0-2 5 2 6 4 0 2 0 2 1 1l2-1-1 2c-1 2-1 3 1 3l1-3c0-2 0-3 2-3 5 0 6-1 4-3-1-1-1-1 0 0l3-1-1-1c-2 1-1-1 1-3l1-4c0-2 0-2 2-1h4l3 2-2 1c-1-1-2 0-1 1a5 5 0 007-1l2-1v1c-1 2 0 7 1 7l1 2 1 5a27 27 0 012 14c-1-2-1-2-1 1v2l-1 3-1 5v2l2-2c2-2 3-3 2-6l1-4v-2a39 39 0 016-19c0-2 3-4 3-3 1 1 1 1 3-1l3-2c3 0 2 2 0 2-2 1-3 4 0 4l1-1c-1-1 0-1 0 0l2-1c0-2 1-2 3 0h4l2-1c0-4 3-3 6 3l3 5 1 3c0 3 1 4 2 3l1 1v4l2 5 2 3v-5l-1-2-1-1-3-10c-4-8-6-16-4-16a8 8 0 015 7l3 1c2 2 2 2 2-5 0-5 0-6 2-7s3 0 3 1l3 4h1v-5l-1-4v-6l-2 4a4 4 0 01-4 3 2 2 0 011-4c1 1 2 0 2-1h-1l-1-1c0-2 0-2-2-1h-7c-2 0-2 0-2-4s0-5 1-4l1-1c-2-3 3-10 6-7h4l2 1 2 1v-1c-1-1-1-1 1-1h3v-1l1-1c-1-1 0-1 2-1l5-1 1 1v1l2 1 2-1c0-1-1-2-2-1l-1-1-4-1c-4 0-4 0-3-1l6-1c2 1 3 0 3-1-1-2-8-4-10-3h-4c-2 0-4 0-6 2-4 2-10 2-8-1l-1-1-1 1h-1l-1-1-1 2h-1c0 2-2 3-4 2-1-1-1-1-1 1s-2 3-3 0l1-3 2-2c0-1-1-1-2 1-2 4-5 5-7 2-1-2-2-2-2-1l-2 1c-2-1-2 0-2 3a1 1 0 11-3 0c1-1 0-2-1-2-1-1-2 0-2 1h-1c-1-1-1-1-1 2v3l-2-2-2-3-1-1-1 2c0 2 0 2-3 1-2-1-2-1 0 3 2 3 2 3 1 4v9l-2 4v3l-2-2-4-2-1-1-2-2h-21c-3-2-8-1-8 0a1 1 0 11-2 1l-1-1v1c2 2 0 4-3 3h-5c1-2-1-1-4 2-1 1-1 1-1-1s-2-3-2 0l-5 1c-4 0-4 0-4 2a5 5 0 01-2 2c2-2 0-3-1-2l-1 2h-1l-2 1-1 1a4 4 0 00-4 2c2-1 2 0 1 2h-3v-6c1-1 0-2-1-3l-1-20v-19l1-2v-1c-2 0-3-2-1-3 1 0 2-1 1-2 0-2 3-4 6-4 2 0 3 0 2-1h-3l-1-1c0-1 3-3 4-2l3-1c2-1 3-1 3 1l1 1 1-1c-1-2 0-2 3-2a2 2 0 003-2l2 3c0 2 3 3 3 1 0-1 1-1 1 1h1l2-3c1-1 1-1 0 0l-2-1 1-1v-3l6-2c4-2 5-2 6 0h1l1-2 1 1h2l1 1 1-2 1-2v5l-1 1 2-1 2-3 2 1c0 2 1 2 1 1h2v-2l2 1 2 1 2-1 1 1s1 2 3 2c2 2 3 2 0 0v-4l1-4c0-3 2-4 3-1l3 3c3 2 3 2 3 9l1 8 1-4 1-15 1-7-2 3-2 3v-6c-2 1-4 0-4-2l-2-2-2 2-2-1c-1-1-2-1-2 1 0 3-5 6-6 4-2-1-6 0-5 2 0 2-9 6-11 5-2-2-5-2-5 0 1 1-2 3-4 2l-1 1c1 2-2 2-4 1-3-2-7-2-9 1-2 2-3 2-5 0l-5-1c-3 0-4 0-3-1 0-2 11-3 12-1h2c1-2-1-4-8-5l-8-2h-2l-1-1-1-1c0 2-2 3-3 1l-2-1-3-1c-1-2-1-2-1 0 1 2 0 2-8 3l-4 1c-1 1-3-3-3-9l1-4 3-1-2-1c-3 1-3-3 0-6 1-1 1-1 1 1h2l3 2 2 1-1-3c-2-2 0-5 2-2 3 3 3 7 1 11l-3 3c1 1 6-5 6-7h1l1-1-1-1c-3-1-3-10 0-10l2-1c0-2-6-5-7-3 0 2-2 1-2-1 0-3 2-4 2-2l3-1 3-2 2-1 3-2c3 1 5-4 2-6v-1l2-2v-2a9 9 0 01-4 0c2 0 1-2-1-2-1 0-2 0-1-2h3c1 1 2 2 3 1 0-2 2-1 2 1 1 2 6 4 6 2l2-1h3c2-2 2-1 1 2-3 6-3 6-1 7l2 5 2 2 1-2v-1l3-1h2l1 1 1-1c-1-2 1-2 5-1 1 0-4 5-6 5l-3 3c-1 1-1 2-2 1l-2 1-4 1c-2 0-3 3 0 3v1c-2 1-4 4-2 4 3-1 5 0 6 3l2 5c-2 0-2 0 0 2s6 0 4-4l1-1c1 1 3 0 4-1 1-2 4-3 3-1l1 1h3l1-1c2 0 2 0 1-1h1c2 1 3 1 3-1h2l1 3c-1 1 0 1 1 1l1-1c-1-1 0-1 1-1l2 2 1 2 1-2v-1c1 1 1 1 4-1 3-1 3-1 1-3v-2l2 1c1 2 3 2 6-1h4c1 1 2 2 3 1 5-2 5-1 5 2v2c1-2 2-2 4-1 3 1 3 1 3-1v-2l2 1 2 3 2 2c-1 2 1 1 2-1s2-3 6-3c5 0 7 2 6 4-1 1-2 2-3 1a1 1 0 10-1 1l1 2-1 1-2 1-5 3-3 1v1c1-1 2 0 1 1l-2 1-1 1-3 1c-3 0-3 0-2-1v-1c-2 0-2 1-2 5l1 4 1-1h8l-2-1a5 5 0 014-4l2-1 2-1 3-1c3-1 3-1 2 1l-1 4-2 3v1l4-2c2-3 4-3 9-3 2 0 3-3 0-3l-3 2h-2c0-1 5-6 6-5l3-3c1-3 3-4 3-2l1 1 1-2c-1-1-1-1 0 0s5 0 5-2l-1-1v-1l2 1c1 2 4-1 4-3l2-2 2 2h-1l-2 1 3 3 1 1-2 1 2 1 2-1a3 3 0 00-1-4l-1-1 2-1 1 3a2 2 0 102-1v-6c2-3 2-3 0-2-1 0-2 0-1-2 0-2 0-2-2-3-2 0-2 0 0-2v-1l-2-1h-13l2-1h1l-2-1-1-2c1-1-1-1-4-1l-1-2c0-2-1 0-2 2 0 1 1 2 3 1 1-1 2 0 2 1 1 1-1 2-2 1h-2l-3-2c-1-2-2-2-8 0-2 0-2 0-1-1v-5c2-2 3-2-3-1v3l1 1c0 2-4 1-5-2-1-2-2-3-4-2h-4l-2 1h-3c0 3-5 4-7 1-2-2-2-2-4-1-1 1-1 1-1-1l-2-1-3 1-1 2-1 4-1 1c1 1-4 4-6 4l-2 1c0 2-3 4-5 3s-2-1-2 1c0 4-9 0-9-4 0-2 0-2-1-1-1 2-1 2-2 0l-2-1-1 1-1-1v-2l-1 2-2 2-3 1h-1l1-2 1-2c0-1 1-2 3-2a3 3 0 014 1l2-1 3-1 3-1 2-1c2 0 8-5 7-7l1-3c2-2 2-2-1-5-2-2-2-2-4 0h-5l-1-1c-2 0-3-2-2-4l-2-1c0 1-1 1 0 0l-1-4c0-2 0-3-1-2s-1 1-2-1h-3c-1 1-4-1-4-3l-1-1-4-2-4-2-4-1h-4c-3 2-4 2-4 1 1-2-6-4-8-2-2 1-6 1-6-1 1-1 0-1-1-1-3 1-3 1-3-1 0-3 5-9 7-9a8 8 0 004-3c-2 1-4-1-3-2h2v1l1-1 2-1 2-4c-1-4-2-6-3-4h-5v-1l1-3v-5a4 4 0 00-3-4l2-2 2-3c0-2 0-2 1 0l1 1h1c2 1 1-2-1-3l-2-1h-1l-3 1c-2 2-8-1-7-4l-2-1h-3c0-1-1-2-4-2l-4-1c-1-1 0-1 1-1h3l-3-1-3-1h-6m50 15l-3 1c-2 0-2 1-2 2 1 1 0 1-1 1l-3 1h-2c-1-1-2 0-2 2h4l5-1c5 1 9-1 7-2v-1l2-1 2-2v2c-2 2-2 2 0 3l2 1h2c0-1 1-1 2 1s2 1 2-2c1-3 0-4-1-2-2 1-3 1-4-1 0-2-1-3-3-3h-4l-3 1m29 21l-1 2c-2 2 2 6 4 4s3-1 2 1h1c2-2 2-5 1-4l-1-2c0-2 0-2-2-1l-2 1v-1c1-1 1-1-1-1l-1 1M411 91c0 1 0 2-2 2l-2 2c-1 1-1 2-3 1-2 0-6 2-4 4h1a2 2 0 112 0c0 2 0 2 1 1v9c1 1 1 1 1-1-1-2 1-4 3-4s1-2 0-2a2 2 0 010-5l1-3c0-1 1-1 1 1h2l1-2 1-2-1-2-2 1m-60 13l-2 1-1 4v3c2 0 0 2-2 2s-2 0 0 1c3 1 9-2 7-3l-1-2 2 1c2 3 4 2 2-1-1-1-2-4-1-5 0-2-2-3-4-1m321 41c-3 11-3 10 3 10l1 2c0 2 2 1 4-1 4-4 1-8-3-4-2 2-2 2-2 0l2-2c2 0 1-2-1-5-3-4-4-4-4 0m15-2h-1c-3 0-6 5-4 6 1 1 2 2 3 1l1 1 3 4 6 5c1 1 1 0 3-4 1-5 1-8-1-8-1 0-2 0-2-2l-1-2v3c0 3-3 7-3 4v-6h-2l-2 2v-1l1-3h-1m-39 6c-1 4-1 5 1 6l5 4c4 4 5 4 9-1l3-3-2-3a13 13 0 00-9-5c-4-3-7-2-7 2m33 8l-3 3 3 2c2 4 7 5 8 2h2v3h1c3-1 3-2 2-4 0-2-5-5-6-4l-1-2c1-2-3-2-6 0m-16 3l-4 3 3 5c4 5 4 4 5-1l3-6c4-5-2-6-7-1m-16 3c-3 5-3 6 1 6 5 1 9-4 5-7-3-3-3-3-6 1m25-1l-2 5-2 4c-1 4-1 4 1 6l5 12c0 2 2 1 4-4l3-6c2 0 3-2 1-2h4l-3-2-1-3 2 2c0 2 3 1 3-1l-4-4-4-2-3-4-3-3-1 2m-82 1c0 2 0 3-2 4l-1 2 2-1c1-2 3-3 3-1l-2 3-2 2h2l2-1 2-1h1v-3l1 1a1 1 0 102 1v-3h-1v-2c2 0 3 0 2-1l-2-1h-2c0-2-2-1-1 1 0 1-1 1-3-1-2-1-2-1-1 1m66 5l-2 4-2 4-7 20 1 2 1 6 2 3a7 7 0 006 6c-1-1 0-1 1-1s2 0 1-1c-2 0-1-2 1-1v-1c-2-2-2-2 0-2l2-1 3-4a6 6 0 003-5c4 3 6-9 2-17l-1-3-3 3c-3 4-8 21-6 22v1c-2 0-2-1-2-6a43 43 0 017-18l2-4-3-4c-3-5-4-6-6-3m-308 9l-3 2h-1c-1 1-2 2-4 1-3 0-7 2-7 4h-2l-2 1 8 2c2 0 3 0 3 2l2-1h2a3 3 0 006-1l2-1 3-2 1-2h1c1 1 1 1 1-1 1-1 0-2-1-2l-2-1a4 4 0 00-7-1m352-1l-1 2c-3 0-5 0-4 1l6-1h1l-1 3h-2l-1 1h4c3 0 3 0 3 2v2c2-1 1-8 0-8l-3-2h-2m-264 20c1 2-2 3-3 1-1-1-1-1-1 1 0 1 1 2 3 2 3 1 5 4 2 4-2 1-3 5-1 5l1-1v-1c2 0 1 3-1 3-2 1-2 1-1 3 1 3 3 4 3 1l1-5c3-6 2-9-1-12-2-3-2-3-2-1m26 1l-4 3-3 2v-1c2-1-2-5-5-4-3 0-4 1-4 5v7c-1 2 1 3 5 1 4-1 11 1 10 3 0 2 0 2 2 1h3l1-2 1-3 3-1c2-2 2-5-1-5-2 0-3-2-1-3a2 2 0 00-2-4l1 2c1 1 1 1-1 1h-1a3 3 0 01-5 4c1 1 0 1-1 1l-2-2 1-1 1-1 3-2 3-2c0-1-1-1-4 1m-212 7l-2 1-2 1-1 1c-1-1-1 0-1 1 0 2 0 2-3 1-4 0-10 2-12 5l-2 1-4 2-4 3 1 1v1l-1 1 2 1h1a19 19 0 01-13 4l-2 1-2 2c-2 1-2 6 0 8 1 2 0 3-3 2l-1 2 2 1 4 2 3 3 5-3a14 14 0 018-2l-1-1a5 5 0 01-3-3l2 1c1 2 3 1 4-1 0-2 1-3 2-3l1-1 3-2 2-1c0-4 6-2 6 1 0 2 0 2 1 1l2-2v-1l2-2c2 0 2 0 0-1l-2-1 2-1 2-1 2-2 8-3h-3l4-1 4-2c1-1 1-1 1 1s0 2 1 1a4 4 0 015-2 1442 1442 0 004-1l4-2 3-1 4-2 3-1v-4c-1-1-5-2-18-3l-8 1c0 1-4 2-5 1 0-1-1-2-2-1l-2-1v-1l-1 1m224 14h-3l-2 1h-5c0-2-3-1-3 0-1 2 0 2 1 2l3 1h-1l-2 1 2 2 1 1h-9c-1 1 1 7 3 9l2 3c-1 0-7-9-6-10l-1-2c-2 0-2-1-1-2s1-1-1-2c-3-1-3-1-3 2 0 2 0 2-1 1h-3c-1 1-1 0-1-3v-3l-1 3v7a1771 1771 0 001 19l1 3v2c-2 1-2 3-2 8l-1 6v4c0 3 0 3-1 1-2-2-2-2-1 3a15 15 0 01-2 9c1 0 3-1 3-3 1-1 1 1 1 3s0 4-1 3c-1-2-2-2-4-1l1 1c2 0 3 6 1 8-1 2-3 3-2 1v-2c-1-1-2-3-1-6l1-19 1-20c0-7-1-10-3-7l-1 1c0-2-3 2-3 3l2 6a68 68 0 01-1 30l-1 5v11l-1 3 1-1c2-3 2 0 2 6-2 11-4 6-4-8l-1-12-1-7-3-8-2-6c1-1 1-1 1 1l1 3 1-3-1-5c0-1 0-2-2-1v-1c1-2 1-15-1-15v8l-1-4c-2-6-3-4-3 4v8l1 3c0 5 3 12 6 15 2 3 3 5 1 9-1 3-2 19-1 27l2 14c0 8 0 8 1 3l1-5v5l2 5c1 0 2-16 0-20l1-2c1 1 2 0 3-1l1-1c2 0 2-7 1-9a13 13 0 010-7v4c0 2 1 4 2 3v-2l-1-2c2-2 2-1 3 2l1 4a10 10 0 010 8v-4c0-2 0-2-1-1-2 0-3 7-1 7l1 3c0 2 0 2 1 1 1-2 2 1 2 14 0 12 1 14 2 12h1l2 2c2 1 2 1 1 2l-1 1c0 2 4 5 5 5l-2-3v-1c1 1 1 0 1-4 0-3 0-5 1-4l1 1 2 2c2 3 3 4 3 1v6c0 6 0 6 1 4 2-2 4-21 2-21l-1-2-2-5-1-3h1c0 3 3 4 3 2 1-5 0-18-2-19l-4-6c-2-6-4-7-5-5-1 1-1 0-2-1-1-3-1-3-3-2l1-3v-7c-2-6-2-12-1-16v3c0 6 1 12 3 12l3 2 1-1c1-2 0-2-1-3l-1-1a4 4 0 003-2c0 1 1 1 3-2l3-3v-27l1 11c1 12 1 11 2 11l1-2 1-2 1 2c0 2 1 2 3 0s2-3 3-12l-1-12v-8c1-4 0-7-1-10v-4l1 3 1 2 1-3 1-4 1-2-1 1m-58 2l2 4 3 5c2 6 2 6 4 2 2-5 1-8-1-7l-2-1h-2v-1c0-3 0-3-2-3h-2v1m16 5l-1 11 1 3h2l2-1 1-7c0-8-1-10-3-10v-1l-1-2-1 7m157 7l1 1 1 1c1 1-2 2-3 1l-2-1v1c1 1 1 1-1 1-4 0-9 9-4 10h3c1 0 2 0 1 1h-4l1 1c0-1 2 0 3 2l3 3-1-2a2 2 0 114 0c0 3 2 4 2 1 1-11 0-23-1-20h-1c0-3-2-2-2 0m-21 8l-1 5c1 2 1 2 4-1l3-3c0 2-4 6-7 10-3 3-4 6-2 6l1-1v-1h1l1 2v-3l1-3 4-5c3-3 2-8-1-7h-1c1-3-2-2-3 1m125 0l2 2v4l-2 1h-3l2 2c2 1 5 0 5-1l2-1c2 1 1-2-2-5l-4-2m-266 8c-1 3-1 12 1 18 1 2 1 1 1-4l1-10c0-6-1-8-3-4m149-1c-1 1 0 2 1 2l-1 1c-2 1-4 9-2 13 1 2 1 2 1-2 0-3 0-4 1-3s1 1 1-1a3 3 0 00-2-4l1-1c3 0 4-3 2-3l-1-2v-1l-1 1m27 3v3c2 1 1 10-1 9-1 0-2-3 0-3 1 0 1-4-1-7s-4 0-2 3l-1 2c-1-1-1 0-1 1l1 4 4 4c2 3 5 4 4 1s0-11 1-12l-1-2-2-3h-1m95 1h-2c-2 0 0 3 4 7 3 3 4 3 4-1s-1-5-3-4h-2v-2h-1m-115 7l-3 4c-2 1-1 4 1 4v-3l2 3c0 2 0 3 5 2l1-2 2-1c2 1 1 1-2-5-4-6-5-6-6-2m-48 6c0 2 0 3-1 2l-2-2c-2-1-5 0-4 1l-1 1-2-1c1-1-3-1-5 1l-3 1c-2 0-2 1 0 3h2a6 6 0 0110 3v-3c1 1 2 0 3-1h2c2 0 5-3 4-4l-1 1-1-2-1-3v3m-451 0c-2 1-1 7 1 6l6-1c3 0 5-2 3-3l-5-2c1 2 1 2-1 2s-3-1-2-2h-2m475 4v5l1 5c0 2 2 1 4-3 1-3 1-6-1-3h-1l2-3c1-1 1-1-1-1l-2 1h-1l-1-1m-9 1v3h-1l-3-1 1 1c2 0 2 4 0 6l-1 3 2-1h1l1-1c-1-1 0-4 1-3l1-2v-2l1 4v3c2-6-1-14-3-10m-452 3l-1 3c-1 2-2 4-4 4l-2 2h3l4 2c2 1 4 1 4-1l2-2-1-1-3-4c0-3-2-5-2-3M0 318l1 30 1-9v-1l-1-30c0-21-1-18-1 10m471-33l-1 5c-1 1-1 1-1-2v-2a6 6 0 000 7v2l-1 3v1l-1 7v13l1 21c0 14 0 15 2 18 3 3 3 4 2 1l2 1 1 4c-1 1 0 2 1 2 3 0 3 1 3-25 1-14 1-14 3-10l1 4-1-4-1-5c-1 0-2-2-1-3l-1-3c-1-2-1-6 1-8 1-1 1-1 0 0-2 0-2 0-2-4l-2-17c-1-6-2-7-3-8l-2 2m-14 5l1 2v4c0 3 3 12 5 12 3 0 4-18 1-19l-4-1c-3 0-3 0-3 2m190 7c0 2-2 3-2 1-1-1-1-1-1 1l-1 4c0 3 1 6 3 6l1-1 1-2c3-1 3 0 0 3-2 2-1 3 2 2v-3c3-2 1-5-2-4l-3-1 1-1 1-1 1-2v-3c-1-1-1 0-1 1m-457 3c-2 2-2 2-1 4v4c-2 2-2 2 0 2a2 2 0 004-1c1-1 1-1 0 0l-2-1 5-1h3l-1-2-2-1h-2l-1 1a2 2 0 110-3l1-1c-1-2-2-2-4-1m185 2v19c1 1 1 0 1-1l1-10c0-9 0-10-2-8m250 3l-1 3h-2l1 2c2 0 2 0 1 1l-1 4c1 3 0 4-2 2v-2l-1-2c-1-1-1 0-1 2 0 3 0 3 3 4l2 1h2l1 1c-1 1 0 1 2 1 1 0 2 0 1-1v-2c1-1 0-6-3-9l-1-5v-4l-1 4m27 8c0 4 1 4 4 4s4 0 3-1l1-2v-1l-4-2c-4-3-4-3-4 2m-548 2h-3l2 3 1 2c-3 0-4 3-4 5 1 3 3 2 3-1-1-2 0-2 1-1 3 0 5-3 2-5v-1c2 0 3-1 1-3s-3-1-3 1m482 2v5a6 6 0 01-3 6v-4l-1-2-1 3a2 2 0 002 3l1 4 1 1c0-2 0-2 1-1s1 1 1-1l2-2 1-1h-2c-1 0-2-1-1-6v-6c-1-1-1-1-1 1m-105 7l1 1c1-1 1 0 1 1l1 4 1 16c2 23 3 27 2 7 0-22-1-30-4-30l-2 1m-274 4l-1 1c1-1 2 0 3 1l3 4v3c2 0 4-2 4-3a1 1 0 011-2c-1 1 1 4 2 4 2 0 1-4-1-5l-4-3a4 4 0 00-4-1c-1-1-2 0-3 1M0 435l1 77V357l-1 78m421-76l-4 1v2c0 2 0 2-1 1l-4-1c-3 0-3 0-3 3v2h-6l6 3 2 1c2 1 8 3 10 2 2 0 2 0 0-2-1-1-1-1 1-1 2 1 2 0 2-4 0-5-2-9-3-7m26 0v15l1 2 3 1c2 2 3 1 3-7v-5a4 4 0 00-6-6h-1m-176 1c0 1 5 6 7 6 1 1 2 2 1 3l1 1h2c1 2 5 2 6 0s1-2-1-2v-1c1-1-4-3-7-3a5 5 0 01-6-4h-3m329 1l-3 3-1 2c-2-1-6 1-6 2l-2 1c-3 0-3 0-4 2s-1 2 1 2l4-1 3-1 2-1c2 0 3-1 4-3s2-2 2-1v2l-1 1c0 2 3-1 3-4l2-2v1l2 2c3 0 4-2 2-2v-2l2-1h-10m-269 2l-4 1h-3c1 1 0 2-1 1-1 0-4 2-4 4l-1 1-1-1a2 2 0 00-3-3l-1 3-1-1c1-2 0-5-2-5l-1 1c0 1-1 2-3 1h-2l3 2c2 2 2 2 0 2l-2 1h11l-1 3c-1 1-1 1 1 2 1 1 1 3-2 3v2h-1c-3 0-3 0-4 2l-1 2-3 2c-2 1 3 2 5 0l1-1 6-2c5-1 6-2 5 0h4c1-1 3 0 4 1l3 2h3l1 2c0 3 2 1 3-3 2-6 0-8-8-9h-6c-1-2-3-1-3 0 1 1 0 2-2 1l-1-2 1-2 2-1 4-2 3-3 3 2 3 3 3 1c2 0 2 0 2 2-1 4 1 2 2-2v-7l-1-1-1-1h-2c-1-2-7-2-8-1m128 2v10c2 1 2 3 1 3v5c0 1 1 2 2 1 2-1 2-17 0-20-2-2-3-1-3 1m-350 4h-7l-7 1c-2 2 0 3 17 3l16 2 13 1a59 59 0 00-29-7l-1-1-2 1m359 4l1 8 2 2c2 0 2 0 1 1-2 0-3 4 0 4l1 2c-1 2 3 4 5 2v-4c2-2 0-8-3-9-4-2-4-3 0-2 3 0 3-3-1-6-4-5-6-4-6 2m-399-1l3 2-3 1-3 2h3l5-1c1-2 10 0 10 2s0 2 8 1c12-2 10-4-8-6l-15-1m517 2l-2 2-3 1h-3c0 1-1 2-3 2-1 0-2 0-1 2l-2 1v3h-2v8l4-8c0-1 3-3 4-2l2-2c1-1 2-2 4-1l3-2a4 4 0 015-2l-2 2c0 2 1 1 4-2l3-2-5-1-6 1m-373 4a9 9 0 003 6l1 2c2 1 2 2 0 3-1 1-1 1 1 2v1c-4 1-4 6 0 6a5 5 0 015 3l-1-1c-2-2-3-1-3 2 0 2 1 3 3 3 2 1 4 0 2-1-2 0-1-2 1-1l2-1h3c2 0 2 0 1-1l-1-2 2 1h2c2 0 1-2-1-2v-1c2 0 3-2 0-2v-2c2-1 2-1 0-4l-3-1-2 1h-1l-1 1c-2 0-2-1 0-3s1-6-2-5l-1-1c2-2-1-5-5-5h-4c-1-2-2-1-1 2m-184-1l-1 2-2 4c0 2-2 5-3 4l1-2c1-1 1-1-2-1a4 4 0 01-4-1c-4 0 4 8 10 10 4 2 7 2 4 0v-1h-2c-4 0-6-1-6-3s9 0 11 2l2 3-1-3c0-3 0-3 1-2h2l2-1 1-1h-2c-2 0-3-1-1-3a7 7 0 0110 4l-1 3c0 2 0 2-1 1v-5c-2 0-7 7-6 8 0 1 0 2-2 2l-2-2-1-1c-2 0 1 4 5 8l3 4 2 2c2 1 2 1-1-3-3-3-4-7-2-7l1 1c0 2 4 3 5 2l-1-1-2-1c-1-1-1-1 1-1 3 0 4-2 3-5-1-2-1-3 1-3 4-1 5-1 2 1l-2 2a15 15 0 0010-8v-1l-4-2c-4-5-7-6-7-4l2 1 1 1h-4c-1-1-1-1-1 2 1 4 0 4-1 1l-3-3-3-2c0-3-5 0-7 4l-1 3v-4c0-3 0-3-1-1-1 1-1 1-1-1l-1-3-1 1m369 0v1l-2 2c-3 2-2 4 1 2h2c0 2 3 1 3-1 1-1 1-2 2-1l2-1c0-1 0-2-1-1l-1-1c0-1-6-2-6 0m-18 6l1 7c0 3 3 6 6 6l4 1h2c2 0 3-2 1-2l-1-1c0-2-4-5-5-4l-1-1 2-1c2 0 2-1 1-2a9 9 0 00-6-7c-3-3-4-1-4 4m-193-2h-2c-3 0-5 1-5 5l-4 1c-5 0-5 2-1 3 3 1 3 2-2 1l-3 1v1l-2 2v1l1 2v3l1 2c-1 1-1 0-2-1l-3-4-2-2-1-1-1-1c1-2-4-2-5-1-1 2-4 1-4-1s-5-3-7-2h-2l-3-1h-3c-2-2-10 3-9 5h-2c-4-2-6-2-6 0 0 1-1 2-2 1l-4 2-2 2h6l-3 1c-4 1-3 1 2 1 3 1 4 0 4-1-1-1 0-1 3-1s4 0 3-1c-2-1 4-3 7-2 2 1 2 1 2-1-1-1-1-1 1-1h1c-1-3 0-2 2 0l2 1c0-2 1-2 3-1v12h-1c0 3 1 2 3-1 2-2 3-2 3-1l1 2 1-1c-1-1 0-2 1-1 1 0 2 0 2-2l1-3 1 1 1 3c2 4 1 5-2 4-2 0-2 0-1 1 1 2 2 2 5 0h3l-2 1c-2 1-2 4 0 3a4 4 0 014 2c-1-1 0-2 1-3s2-3 1-4l3-1c4 1 6 0 4-2-1-1 0-3 1-2l1-1 2-1-1-1c-2-1-2-3 2-5 2-2 3-3 2-4v-1l1-2h2c4 1 8-6 4-7-2-1-2-1-1 1m398 5c-2 2-3 3 0 3 1-1 1-1 1 1v2l5 1 1-1-2-1c-2-1-3-3 0-3h1c-1 1 0 2 1 2l1-1 1-2 1-2c1-1 1-1-1-1l-6 1v-1l-3 2m-524 2v2c0 2 0 2-2 2-2-1-3-1-3 1h-1c-1-2-2 0-1 3l-1 2-2 1 1 1 2 2a2 2 0 003 0c0-2 0-2 2-1l2 1 1-3 2-2 2-3c1-2 1-2-1-2s-3 0-2-2l-1-3-1 1m435 2l1 1h3l4 4 1 2v2l1 1c2 2 2-1 0-3l-1-2h2c2-1 2-2-1-3l-3-2-3-1-4 1m-228 8l-5 1-1 1-1 1h-2c-2 2-6 2-8-1s-2-2-1 2l4 7 3 5c4 0 5 0 5 2h5v1c2 1 1 3 0 3-2-1-5 0-5 1l1 1a4 4 0 013 4c-3 0-4 0-4 4 1 2 0 4-1 5-2 2-2 1-1-1v-3c-1 0-4 2-4 4l-4 1c-3 0-4 0-3-1s1-1-1-1l-2 1h-3c-2-1-4 0-2 1s-10 2-14 1h-3l-6 1c-4 0-5 0-4-1l1-1 1-2c3-2 4-5 2-5-1 0-2-1-1-2 0-2-4-4-6-3-1 1-2 0-1-2l-1-3-3-1c-2 0-2 0-3 3s0 5 3 5l2 2c1 2 1 2 0 0h-2c0 2-2 3-2 1 0-3-2-2-2 0h-1c-1-2-1-2-2-1v3c2 2 1 4-1 3h-5l-7-2c-4-1-13-2-16-1-2 1-2 1-2-1s0-2-1-1c0 2-1 2-3 1l-2 1c1 1 0 1-1 1-2 0-3 1-4 3s-1 2-9 2c-4 1-4 0-6-3 0-2-2-3-2-3v1c2 1 1 4-2 4-2 0-2 0-1 4 0 5-3 9-5 6-1-1-1-1 1-2l1-1-1-2c-1-3-6-6-7-4l3 2c2 1 2 1 2 3l-1 3-2 1v2l2 2 1-1c-2-2 1-1 3 1h1a1 1 0 112-2l2 3 1 1 1-2 2 2 2-1c2-1 2-1 3 1 2 2 2 3-3 3-7 0-4 1 3 1l6 1 5 1h10c4 1 5 1 5-1a2 2 0 00-4-1c1 1 0 1-3 1-5-1-6-2-4-3l1-3c0-2 0-2-2 0l-2 2v-3c-1-2 4-4 8-2l2-1c-1-1 1-2 7-2l4-2c0-2 2-1 2 1s0 2 1 1c1-2 8-3 10 0 3 2 5 1 2-1l-2-3 2 1 4-1c3-1 3-1 5 1l4 2h8c4 1 6 1 8 3s1 3-2 1c-1-1-2 0-1 2 0 3 0 3-3 4-4 2-4 3 0 2l3-1a15 15 0 0111-3v2h-1l-4 2a10 10 0 01-5 1c-7 3-9 3-9 1-1-2-1 0-1 3 0 5 0 5-2 4-1-2-2-3-2-1h-2l-3 1-2 2a8 8 0 01-10-3l-2-1-3-1-4-1-3-1h-2l4 2 8 4c8 4 17 5 18 2l1-2v6l1 2c1 1 1 0 2-2 0-3 3-4 2-1l1 1 1 1 1 1 1-1v-2l1 2h2l4-2 2-2c0-2 3 1 4 2 1 2 7-7 8-12 1-3 2-4 4-2l-1 1v1l1 2c-1 1 4 3 5 2l2-1c1 0 1 1-2 3-3 3-5 7-4 11 1 2 3 3 5 1l5-2c2 0 3-1 3-2l1-1 2 1h4c2-2 3-2 3-1h5c1 0 2 0 3-2l4-1h3c1-2 6-2 6-1h6l-2-1c-2 0-2 0 0-2l3-2v-2h1l3-1c1-1 5 0 6 3 1 2 4 3 3 1v-2c1 0 1 4-1 5l-3-2c-3-3-5-4-5-2l3 2 2 2h1l1 2c-1 2 0 3 2 5 2 4 3 6 1 4-3-1-4-1-6 1-1 2-1 2-1-2 2-7 2-8 1-8s-2 2-2 5l-1 5v4c1 1 0 1-3 1h-4l2 1c2 0 2 0 1 2l-2 2h-3c-2 0-2 0-1 1 2 2 8 2 12-1a7 7 0 016-2l7-3c2 0 4-2 4-3h-1c-1 2-2 1-3-4s0-6 1-4c1 1 1 1 1-1s-4-2-5 0h-3c-2-1-3-4-1-3 2 0 2 0 2-3 0-2 0-3 3-3 2 0 3 1 0 4-2 4 0 3 3 0 4-5 5-5 5-1-1 3-1 3 1 2l1-3c0-5 5 1 5 7l1 4c3 3 2 6-3 7a614 614 0 00-8 3l-2 1h-2l-1 1v1c-2-1-4 0-3 1 0 2-4 4-5 3l-1 2c1 1 0 2-1 2l-3 1 2 1 4 1h2l2-2 2-2c1-1 1-1 1 1a3 3 0 003 4c2 0 2 0 2-3 0-2 0-3 1-2l2 1 2 2a2 2 0 103 0c0-3 2-3 3-1 0 2 6 5 7 4l1-3c0-2 0-3 1-2l1 2 2 2c0 3 1 1 1-2l1-4h2l-1 1-1 1 5-2c1-1 1-1 2 1h1l1-2 1-2v-3l1 2h2a39 39 0 001 4l1-1 2-1 3-1v6c1 1 1 1 2-1 0-3 4-5 4-3 1 1 1 0 1-1 0-2 0-2-2-2h-1c1-1 0-2-1-2v-1l2-1 1-1c1-2 3 0 3 5l1-2 2-4a18 18 0 015 12l1 3 2 3c1 1 2 0 1-1l1-2 1-1 2-2 1-1c-2-2-5-1-5 1l-1 2-1-1v-5c-2-8-2-8 0-9h3l-1 1c-2 0-1 2 2 3s6 0 6-3h1v1l1 3a4 4 0 007-1l-1 3c-2 1-2 1-1 2l4-1c1-1 1-1 1 1l1 4 1 2c0 2 3 4 4 2 2-2 3-1 2 1l1 2c1 0 2 1 1 2l1 2 1-3c-1-3 3-8 6-8l2-2c1-1 1 0 1 1 0 3 2 4 2 2 0-3 2-2 2 0 1 3 0 5-4 6-3 1-3 2 0 4s8 1 7-2c0-1 2-3 6-5l4-3 2-1v-1l-1-1v-1c-1-2 0-3 3-2l2-1 1-1 1 1 4 1c4 0 5 1 5 3l-1 2c-3 0-4 3-3 4s2 3 1 6l1 4c1 0 4-2 4-4l4-1 3-1 2-1 1-2v-2l2-4c0-2 0-3 2-3l1-1c0-3 2-2 2 0h1c1-2 4-2 5 0 1 1 2 2 5 1 3 0 4 0 5 2 3 3 5 4 9 2 1 0 1-1-2-1-2 0-3-1-3-2l-1-3c-2-1-2-1 0-1 3-1 7 0 7 1l3 3c2 0 3 1 2 3a10 10 0 008 8h3c0 2 3 3 4 0h3c2 1 2 1 4-1h4c4 4 15 4 21 1 2-1 8 0 9 1l4 2 5 1c4 1 4-2-1-3h-4l-1-1-5-1-6-3h-2l-2 1v-1c2-2 2-2 0-4s-2-3-1-3 2-1 2-3l3-2 2-1c-1-1 1-6 2-6l2 3c0 3 1 3 3 3v1l-2 3-1 1a2 2 0 101 3v-1l1-1 2-2c1-4 4-2 3 2l2 1 1-1c-1-1 1-1 4-1 4 0 4 0 3-2v-2c2-1 4 0 4 3 0 2 1 3 3 0 1-1 1-1 0 0l-2-1-1-3 1-1h3l2 2 1 2 1 1 1-2c0-2 1-3 3-3l3-2-7-4s-2-1-2-3c-1-2-2-3-4-3-1-1-2-1-1-2l-1-1c-1 0-7-5-7-7l-2-1h-1l5-20 2-10 2-7-6 19-1 6-20-5-5-1a4 4 0 01-5-2l-1 2-1 1-1 3v3l-1-1-1-3-1 2v3l-1-2c0-1-1-2-4-2-3-1-3-1-1-2 2-2 1-4-2-3a1 1 0 110-2l2-2c0-2-1-3-3 0-2 2-3 2-7 0h-10l-7-2-5-4-4-1v5c1 4 0 5-1 5l-2-1v-2l-1 1c-1 2-1 0-1-6 0-3-1-3-3-4-2 0-2 1-2 8v10c0 3 0 3-3 2h-5c-3 0-3 0-2-2v-15l-1-5h-3l-3-1v8c0 7-1 10-5 10h-2l2-1v-1c-2 0-2-1-1-3 0-5-5-6-7-1l-2 3c-1 0-3-3-3-5s-4-3-4-1a25 25 0 004 16c1 3 1 3-3 2l-4 1h-3c-1 1-1 1-4-1l-3-3v-1c2-4 1-8-3-8-6-1-9-3-4-3l3-1h-4c-4 0-4 0-4-2 0-1 0-2-1-1l-2-2h-1c0 2-1 2-6 1h-8l-3-1 3-2 3-1-3 1-3-1 6-2c4 0 5-1 5-2s-2-2-10-2-10 0-15-2l-6-3v3l2 3v1l-1 8c0 6 0 7-2 7s-3 0-3-2l-2-2c-1-1-2-2-2-6-1-8-3-13-3-9 0 2 0 2-1 1s-1-1-1 1l-1 2c-2-1-4 1-4 2h3l2 1-2 1-2 1-1 2-9-1a49 49 0 01-17-4l2-1c1 1 2 0 2-1 1-2 3-3 3-1a1 1 0 003 0c-2-2 0-3 2-2 1 1 2 0 3-1l4-2 2-1h-4l-7-1c-2-2-13-2-13-1l2 1-1 1-2 2-1 1v-6l-7 14c0 2-5 3-6 2v-4c2-6 1-6-1-5-2 2-3 2-5 0h-6l4-2 4-3h4a2 2 0 002 0v-3c-1-2-7-2-8 0l-4 1c-2 0-3 0-2 2l-1 1-2-1-1-2-1 6c1 5 1 6-1 6l-3 1-1-2-2-3-1 1v1l-2-1c-1 0-2-3 0-3h1c0 1 1 2 2 1l1-3v-2l-1 2-1 3v-3c-1-2-1-2-3 2l-2 6c0 2-3 5-5 5l-1-5v-5l-1 2-1 2c-2 0-2-1-1-2v-7l-3-2-3-1-2-1c-4 0-6-1-4-2s2-4 1-6a2 2 0 011-3h5l-2-1c-4-1-5-3-2-3l3-1 6-2c7-1 6-2-3-2l-11 2m-52 6l-1 3c-1 1-1 1 1 2l2 2c1 2 4 3 4 1s5-3 7-1l3 1c2 0 2 0 1 1l-1 4c0 2 0 2-1 1s-2-1-3 1c-2 1-2 1-2-1v-2l-1 1h-7l2 1a1 1 0 011 2l-2 1-2-1-1-3-1 2 3 3 2 2 3 3c2 2 2 2 2 0l2 1c2 3 3 3 4 0l3-3v1c-2 1-2 1 2 1l4-1 2-2c2-1 2-1 0 1v3h1l4-1h3l-3-2c-3-2-1-6 3-6 3 0 3-1-1-11-2-4-3-5-7-2h-2c0-1-1-1-2 1h-1c2-3 0-5-4-3h-3l-4 2c-1 2-4 2-7 1h-1l-1-2-1-2v1m-167 6l3 6 3 8c0 2 5 7 8 7l14 5h6l1-2c1-1 1-1-1-2l-2-3-1-2h-2l-2-2-3-1-10-2-2-1-1-1c-1-1-2 0-1 1 1 4-3 0-6-6-3-5-3-6-4-5m557 1l-3 1c-2 0-2 0-1 1v1c-2 0-2 1-2 2v1c-2 0-3 4-1 5 1 1 1 1 2-1l2-3 1-1c-1-2 1-4 3-4v1l1 1 1-2v-2c1-1 1-1-1-1l-2 1m-575 3l1 1 1 3c-1 4 0 5 1 3 1-1 1 0 1 1 0 2 0 2 1 1s1-1 3 1l4 2c2 0 2 0 2 3-1 5 1 6 2 2 0-3 3-4 3-2l-1 1h-1c0 2 2 2 3 1v-4l-2-4c0-2-2-4-5-4-1 0-2 0-1-1l-1-1-1 1c0 2-4 0-7-3-2-2-4-3-3-1m61 17c-3 4-5 14-3 14l1-2 1-4h1l1 2h2c0-2 2-1 2 1l1 1 1-1v-3c2-1 1-2-3-2l-4-3h1c2 2 5 1 3-1s-2-2 0-1 3 2 2 3h4c2-2 2-7-1-7l-5-1c-1 0-3 1-4 4m46-3l-5 1h-19l3 1h4l-2 1-3 1 2 1h3l2-1h7l2 1v-2h5l4-1 3 1c-1 1 0 1 0 0 2 0 2-3 0-3h-6m-32 1l3 1c2 0 2 0-1 2-2 0-3 1-3 2l-1 1c-3 0-3 4-1 6 2 1 3 4 1 4a1 1 0 100 2l3 2h2l-1-2c-2-1-1-4 3-9l1 1c1 0 1 1-1 2-1 1-1 1 1 1 2-1 6 3 4 5l1 1h3v-5l-2-1 2-1v-1l-2-1c-1 1-5-2-5-4l2 1h2l-2-2c-3 0-4-1-2-1s2 0 0-2c-1-3-9-4-7-2m490 26h-3c-6-1-9 12-3 14l2 2 1 1 3 3 2 2c2 0 6 3 7 5 0 5 0 6 1 4a3 3 0 013-3l3 1c1 2 5 3 5 1l-2-2c-3-1-1-2 3-1l1-1 1-2 1 1v2c3 1 4 5 2 5h-2c0 2 4 4 9 4l2 2c0 2 0 2 1 1s0-3-1-5l-1-4 1 1h2c2-2 0-4-4-2h-2c2-2 1-3-2-3l-1-2-1-1-5-1c-3-2-3-2-1-2l3 1h2c2 0 6 2 5 3l1 1c2 0 2-3 0-4l-9-3c-6-2-9-5-3-4h1l1-3v-1l-1 1c-1 1-2 1-5-1l-5-4-2-2-3-1-4-2c-1-1-2-2-3-1m-163 12v2c2 1-2 5-4 5-1 0-2 0-1 1l3 1c2 0 3 0 3 2 0 6 5 4 5-1l1-5c2 0 4-2 4-3h-2c-2 2-6 0-5-2 0-2-2-3-4 0m-17 10c0 4 0 5 1 4h5a6 6 0 00-4-9c-1 0-2 1-2 5m-6 10c1 1 0 3-1 4l-2 2v-3c-1-2-1-2-1 2 0 3 1 7 2 6l3-5 4-4c2 0-3-3-4-3l-1 1m-129 2l-1 2c-1 1-1 0 0 0 0-2 0-2-2-2l-3 1v3c0 2 0 2 1 1 1-2 1-1 1 3l1 3h2l3-1h2l-2-1-4-3h3c1 3 2 0 2-3-1-4-3-5-3-3"
      tabindex="-1" itemprop="bold" style="fill-opacity: 0.664; fill-rule: evenodd;"></path>
    </symbol>
  </defs>
  <use class="background" href="#-posters-1650742918292-background" fill="url(#-posters-1650742918292-background-gradient"></use>
  <use class="light" href="#-posters-1650742918292-light" fill="url(#-posters-1650742918292-light-gradient" filter="url(#light-filter)"></use>
  <use class="regular" href="#-posters-1650742918292-regular" fill="url(#-posters-1650742918292-regular-gradient" filter="url(#regular-filter)"></use>
  <use class="bold" href="#-posters-1650742918292-bold" fill="url(#-posters-1650742918292-bold-gradient" filter="url(#bold-filter)"></use>
  <use class="emboss" tabindex="-1" href="#-posters-1650742918292-light" fill="url(#-posters-1650742918292-light-gradient" filter="url(#emboss)"></use>
  <use class="emboss" tabindex="-1" fill="url(#-posters-1650742918292-regular-gradient" href="#-posters-1650742918292-regular" filter="url(#emboss)"></use>
  <use class="emboss" tabindex="-1" fill="url(#-posters-1650742918292-bold-gradient" href="#-posters-1650742918292-bold" filter="url(#emboss)"></use>
  <defs>
    <g class="gradients">
      <radialGradient gradientUnits="userSpaceOnUse">
        <stop itemprop="radial" stop-color="hsla(65, 6%, 45%, 1.00)" offset="0%"></stop>
        <stop itemprop="radial" stop-color="hsla(53, 7%, 48%, 1.00)" offset="15%"></stop>
        <stop itemprop="radial" stop-color="hsla(51, 8%, 49%, 1.00)" offset="30%"></stop>
        <stop itemprop="radial" stop-color="hsla(50, 10%, 47%, 1.00)" offset="45%"></stop>
        <stop itemprop="radial" stop-color="hsla(46, 15%, 41%, 1.00)" offset="60%"></stop>
        <stop itemprop="radial" stop-color="hsla(46, 20%, 30%, 1.00)" offset="75%"></stop>
        <stop itemprop="radial" stop-color="hsla(46, 20%, 38%, 1.00)" offset="90%"></stop>
      </radialGradient>
      <linearGradient gradientUnits="userSpaceOnUse" x1="0" x2="0" y1="0" y2="100%">
        <stop itemprop="vertical" stop-color="hsla(65, 6%, 45%, 0.73)" offset="0%"></stop>
        <stop itemprop="vertical" stop-color="hsla(53, 7%, 48%, 0.73)" offset="15%"></stop>
        <stop itemprop="vertical" stop-color="hsla(53, 7%, 49%, 0.73)" offset="30%"></stop>
        <stop itemprop="vertical" stop-color="hsla(48, 10%, 47%, 0.73)" offset="45%"></stop>
        <stop itemprop="vertical" stop-color="hsla(46, 14%, 41%, 0.73)" offset="60%"></stop>
        <stop itemprop="vertical" stop-color="hsla(46, 19%, 30%, 0.73)" offset="75%"></stop>
        <stop itemprop="vertical" stop-color="hsla(46, 20%, 38%, 0.73)" offset="90%"></stop>
      </linearGradient>
      <linearGradient gradientUnits="userSpaceOnUse" x1="0" x2="100%" y1="0" y2="0">
        <stop itemprop="horizontal" stop-color="hsla(60, 6%, 45%, 1.00)" offset="0%"></stop>
        <stop itemprop="horizontal" stop-color="hsla(53, 6%, 49%, 1.00)" offset="15%"></stop>
        <stop itemprop="horizontal" stop-color="hsla(48, 10%, 47%, 1.00)" offset="30%"></stop>
        <stop itemprop="horizontal" stop-color="hsla(47, 17%, 37%, 1.00)" offset="45%"></stop>
        <stop itemprop="horizontal" stop-color="hsla(46, 20%, 34%, 1.00)" offset="60%"></stop>
        <stop itemprop="horizontal" stop-color="hsla(45, 17%, 38%, 1.00)" offset="75%"></stop>
        <stop itemprop="horizontal" stop-color="hsla(54, 12%, 33%, 1.00)" offset="90%"></stop>
      </linearGradient>
    </g>
    <g class="generated gradients">
      <radialGradient id="-posters-1650742918292-background-gradient" gradientUnits="userSpaceOnUse">
        <stop stop-color="hsla(65, 6%, 80%, 1)" offset="0%"></stop>
        <stop stop-color="hsla(53, 7%, 80%, 1)" offset="15%"></stop>
        <stop stop-color="hsla(51, 8%, 80%, 1)" offset="30%"></stop>
        <stop stop-color="hsla(50, 10%, 80%, 1)" offset="45%"></stop>
        <stop stop-color="hsla(46, 15%, 80%, 1)" offset="60%"></stop>
        <stop stop-color="hsla(46, 20%, 80%, 1)" offset="75%"></stop>
        <stop stop-color="hsla(46, 20%, 80%, 1)" offset="90%"></stop>
      </radialGradient>
      <linearGradient id="-posters-1650742918292-light-gradient" gradientUnits="userSpaceOnUse" x1="0%" x2="0" y1="0" y2="100%">
        <stop stop-color="hsla(65, 6%, 60%, 0.9)" offset="0%"></stop>
        <stop stop-color="hsla(53, 7%, 60%, 0.9)" offset="15%"></stop>
        <stop stop-color="hsla(53, 7%, 60%, 0.9)" offset="30%"></stop>
        <stop stop-color="hsla(48, 10%, 60%, 0.9)" offset="45%"></stop>
        <stop stop-color="hsla(46, 14%, 60%, 0.9)" offset="60%"></stop>
        <stop stop-color="hsla(46, 19%, 60%, 0.9)" offset="75%"></stop>
        <stop stop-color="hsla(46, 20%, 60%, 0.9)" offset="90%"></stop>
      </linearGradient>
      <linearGradient id="-posters-1650742918292-regular-gradient" gradientUnits="userSpaceOnUse" x1="0" x2="100%" y1="0" y2="0">
        <stop stop-color="hsla(60, 6%, 50%, 1)" offset="0%"></stop>
        <stop stop-color="hsla(53, 6%, 50%, 1)" offset="15%"></stop>
        <stop stop-color="hsla(48, 10%, 50%, 1)" offset="30%"></stop>
        <stop stop-color="hsla(47, 17%, 50%, 1)" offset="45%"></stop>
        <stop stop-color="hsla(46, 20%, 50%, 1)" offset="60%"></stop>
        <stop stop-color="hsla(45, 17%, 50%, 1)" offset="75%"></stop>
        <stop stop-color="hsla(54, 12%, 50%, 1)" offset="90%"></stop>
      </linearGradient>
      <linearGradient id="-posters-1650742918292-bold-gradient" gradientUnits="userSpaceOnUse" x1="0" x2="100%" y1="0" y2="0">
        <stop stop-color="hsla(65, 10%, 8%, 1)" offset="0%"></stop>
        <stop stop-color="hsla(53, 10%, 8%, 1)" offset="15%"></stop>
        <stop stop-color="hsla(53, 10%, 8%, 1)" offset="30%"></stop>
        <stop stop-color="hsla(48, 10%, 8%, 1)" offset="45%"></stop>
        <stop stop-color="hsla(46, 10%, 8%, 1)" offset="60%"></stop>
        <stop stop-color="hsla(46, 10%, 8%, 1)" offset="75%"></stop>
        <stop stop-color="hsla(46, 10%, 8%, 1)" offset="90%"></stop>
      </linearGradient>
    </g>
  </defs>
  <defs>
    <filter id="light-filter">
      <feColorMatrix in="SourceGraphic" type="matrix" values="1.5 0 0 0 0
                0 1.5 0 0 0
                0 0 1.5 0 0
                0 0 0 1.5 0"></feColorMatrix>
    </filter>
    <filter id="regular-filter">
      <feColorMatrix in="SourceGraphic" type="matrix" values="1.5 0 0 0 0
                0 1.5 0 0 0
                0 0 1.5 0 0
                0 0 0 1 0"></feColorMatrix>
    </filter>
    <filter id="bold-filter">

      <feColorMatrix in="SourceGraphic" type="matrix" values="1 0 0 0 0
                0 1 0 0 0
                0 0 1 0 0
                0 0 0 1 0"></feColorMatrix>
    </filter>
    <filter id="emboss">
      <feConvolveMatrix kernelMatrix="1 0 0
                      0 0 0
                      0 0 -1"></feConvolveMatrix>
    </filter>
  </defs>
</svg>
