<svg id="-posters-1650603990496" itemscope="" itemtype="/posters" itemid="/+/posters/1650603990496" viewBox="0 0 1000 512" preserveAspectRatio="xMidYMid slice" tabindex="0" xmlns="http://www.w3.org/2000/svg">
  <defs>
    <symbol id="-posters-1650603990496-background">
      <rect itemprop="background" width="100%" height="100%" tabindex="-1"></rect>
    </symbol>
    <symbol id="-posters-1650603990496-light">
      <path d="M76 1l1 28 2 29V29c0-26 0-29-2-29l-1 1m200 10l-1 10-2-2-1-2-1-2-1-2-1 2-1 3c0 2 0 2 2 1l-1 2-2 3-1 1c-2 0-1-7 1-8s1-2-2-2c-2 0-3 1-3 2l-1 1v2c2 2 2 3 1 4-3 2-4 8-1 8 1 0 2-1 2-3 1-2 1-2 1 1 0 4 2 4 3-1l1-3 1 1c-1 4 0 5 2 5l3-1 1-2c1-1 1 1 1 3v5l1-4 1-18-1-15-1 11m158 14l1 25V25l-1-25v25m118-15c2 18 2 21 1 23v4c1 1 0 5-2 8-2 2-2 2-1 3l1 5 2 4v6c-2 1-2 2-1 4v5l2 1 3 2 2 1 1-2-1-7-1-5-2 2-1 1V55l2-2 2-3a5 5 0 00-2-9c-1 1-2-1-2-4 0-2 0-2 1-1 1 2 2 0 1-3-1-2 0-3 1-5v-2l-2 1c-1 1-1 0-1-4l-2-23-1 10m80 1c0 11 0 11-2 11s-2 0-1 1l1 4v4l-1-3c-1-4-3-4-3 0l-2 2-1 8c1 10 3 12 3 2v-6l1 4c0 2 2 2 8 0 2 0 0-2-3-3s-3-1 1-1c5 0 5 0 5 3l1 2 1-4c-1-4-1-5-4-5-2 0-3-1-1-1 3 0 4-2 1-2h-3V14l-1-14v11m40 3l-1 14c-1 0-2 0-1-1 0-2-7-1-10 0v2c2 0 2 0 0 2h7l1 5v11c-1 5 0 6 2 1V31c2-3 3 1 3 11V8c-1-8-1-7-1 6M790 0l-1 47 1 26h-3l-5-2-2-2 2-1c3-3 3-4 0-3l-2-1 2-1 2-1-1-1-3-1c-2-2-3-2-3 0 1 1 0 1-1 1l-2 1 2 1c2 0 2 0 1 1-2 2-1 5 1 4l-2 3-2 5 3-2 2-2v2c0 2 0 2 1 1h4l4 2 2 2h1l1-4v-3c-1-1-2-40-1-60V1l-1-1m118 8l-1 9v2l1 18v17l-3 1a3 3 0 01-4-2l-1 1-2 3h-2l2 1 2 2 2 1v1l-1 2-2 1-1 1 7 1h10c0-2-1-2-3-2-3 0-3 0-2-2 1-1 2-2 3-1l1-1-2-1 1-2c2-2 2-2 1-3l-1-3-2-2c-2-1-2-2-1-26l-1-24-1 8m39 8v66l1 34 1-58-1-58-1 16m-499-5l-1 3c-1 1-2 8-1 9a8 8 0 01-1 8l2 1c1-1 1 0 1 2l1 4 1-2 1-2 3-6c0-3 2-6 3-6v3c-1 4-1 7 1 6l2 1 1 8 1-6V24c-2 1-3 0-2-2 1-3 1-3-1-3a9 9 0 00-7 7h-1l-1-6a2 2 0 01-1-3v-1c-1-2-1-2 1-3v-3c-2-1-2-1-2 1m31 0a10 10 0 01-5 3h1c2-1 1 0-1 3s-2 4 0 4l1-1 1-2c2 0 1 5 0 7-2 1-3 4-1 4l2-2h1c1 2 6-1 7-3 0-3 1-3 3 0l1 3 1-3v4c2 1 5-9 4-10l-3 1c-1 1-3 2-4 1l-3 2-4 3 1-2c2-2 2-3 1-3v-3l-2-1c-2 0-3 0-2-1h3c2 0 2 0 2-2-1-4-1-4-4-2m-184 2c-2 0-2 0-1 1s1 1-1 1-2 7 1 9c1 1 1 1-1 1l-3 1 6 1c4 0 6 0 8 2 1 1 3 2 4 1 3 0 3-1 2-3-2-3-3-3-2 0 0 1 0 2-2 1-2 0-4-4-3-10 0-6-1-7-8-5m120 2c-2 4-3 11 0 11l1 2c-1 3 0 5 2 5 1 0 2-8 0-10v-7c2-2 2-4 0-4l-3 3m-219 1l-3 2v7l-1 1 1 2c1 1 1 1-1 1s-3 4-1 4v1l-1 4c0 2 0 3-2 3l-2 1 5 1a3 3 0 110 4c-1-2-2-1-2 3l1 4 1-2 2-2c1-1 1 0 1 2-1 2 0 3 1 3v2c-1 2 2 5 3 3h4c4-1 4-1 2-3-2-1-2-1-1-2 3-1 1-2-3-2l-4-1 1-1c1 1 4-1 4-3l-2-1-2-2c0-3 2-4 2-2 1 2 3 0 3-2s0-2-2-1c-2 0-3-2-1-3s0-4-2-4-2 0-1-1l2-2 2-4c2-5 1-8-1-8s-2-1-2-3c0-3-1-3-1 1m228-1c1 1 0 1-1 1-3 0-3 2 0 2 2 1 2 1 0 1-5 2-1 4 5 2 3 0 4-2 2-2l-2-1 1-1 1-1-2-1-2-1-1-1-1 2m82 0l-1 3c0 2 0 3-2 3s-7 1-6 2l2 1h2l1 1 1-1h3a4 4 0 103-6c-3-1-2-2 1-2s3 0 3 4v5l1-4-1-6c-1-1-6-2-7 0m-290 5h-1c-3 0-4 1-4 5l3 2 3 2c0 2 0 2 3 0 2-1 2-1 2 1l-2 7-1-2-1 3v2l-1-3c0-1-4-4-5-3v11c1 4 3 4 6 0 1-2 1-2 2 0 1 1 0 2-1 2-2 1-2 1 0 2l4 2 2 1c1 0 0-5-2-6-1-2-3-7-1-6h3v-4l-1-4c0-4 0-5 2-5s2-7-1-8l-2 1 1 1 1 2c0 2-3 0-3-2l-3-2-3 1m-53 2c-1 1 2 3 4 2v3c-1 5 0 6 2 4 0-1 1-2 2-1l3-2h2c2 2 3 2 3 1 0-3-4-4-6-3s-5 0-3-1l1-3c0-1-7-2-8 0m234 1c-3 4-5 12-2 11 1-1 1 0 1 1 0 2 0 2 4 2 4-1 4-1 4-5 1-5 0-6-2-6s-2 0-2-2c1-4 0-4-3-1m138-1l-3 3-2 1h2c3 0 3 0 2 1l-3 1c-1-1-2 5-1 7v2c-1 1-1 1 3 1 4-1 4-1 4 1l-1 2v4h2v-1c-2 0-1-2 1-3l1-1c-2 0-1-4 1-4l1-1-1-1c-2 0-2-1 0-4v-9c-1 0-2 1-1 2l-1 4-1-1c1-2-1-5-2-5l-1 1m150 1l-2 5-1 3h1l1-1c1 2 5 2 6 1h2c1 2 4 0 4-3-1-4-9-4-9 0-1 2-1 2-1-1l1-3v-3l-2 2m-329 2l-1 4v3a1 1 0 101 2l1 7c-1 7-1 8-3 6-2-1-2-1-3 6-1 3 0 5 2 5l2-1v-1c1-1 1 0 1 1 0 2 4 3 6 1h2l2 2v-2l-1-2-4-5c-2-3-3-5-2-6l1-6 2-6v-3l-2-2c-2 0-3-1-3-3-1-3-1-3-1 0m15-3a386 386 0 00-1 14c-1 2 1 2 2 0a8 8 0 0113 0c1 6 3 3 3-3v-8c-3-2-8 0-8 3l-1 2-1-3-1-3-6-2m154 3l-2 4v4l1 4 1 2c1 0 2-2 2-8l-1-8-1 2m126 6l-5 7c1 0 14-12 13-13-1-2-1-1-8 6m64-6l5 1h4v9l1 9 1-9V25l-5-1-6 1m-291 1c-2 1-1 6 0 5l5-1c4-1 4-4-1-5l-4 1m321 1c0 2-1 3-3 3l-2 1h2c3 0 3 0 3 3l1 2c2 0 6 3 6 5h-1l-2-1-1-2c-1 0-4 6-2 7l1-1 1-1v2l-1 3 2-1c1-1 1-1 1 1h1l3-2c2 0 2-4 0-5l-1-2c0-2-2-3-3-4-2-1-2-1-1-2 3-2 2-5 0-5l-2-1c-1-2-2-2-2 0m27 0l-1 1c-2 0-2 1-2 5v4l3-2 3-2c0-6-3-11-3-6m-193 0c-3 2-3 3 0 3 2 0 2 1 0 3-2 4-1 5 2 5 2 0 3-1 3-2l1-1v2h2c4-1 4-4 0-4l-4 1c-2 1-1 0 1-4 2-2 2-3 0-3h-5m-462 4l2 6v2l-1-1-1 1c-1 2 0 14 1 14l1-1h6c5 0 6 0 6-2 0-1-1-2-5-2l-6-1v-6l1 3 1 2 1-1 2-1c2 0 1-2-1-3V30c0-2-2-1-2 1 0 3-3 2-4-1l-1-3v4m122-3v4c-1 3 0 5 3 5a1 1 0 11-1 3l-2 1 2 1c4 0 7-1 7-2l-1-1c-2 1-2 0-2-2a3 3 0 012-4l-2-1c-2 0-3 0-3-2 1-3-2-4-3-2m110 3c-3 1-4 3-4 4l2-1c3-2 3-1 1 2-3 3-3 5-1 3h2a1 1 0 102-1l1-4v-5c2-2 0-2-3 2m213-3l-1 1c-2-1-3 1-1 3 9 10 9 11 4 11-2 0-2 0-2 4 0 3 0 3 3 3 2-1 2-1 2 3 0 6 2 2 2-5 1-6 0-7-2-10-3-4-4-6-2-5l1-1v-4h-4m40 1v1c2 0 1 1 0 4-2 3-2 4-1 5 1 2 6-3 7-7a2 2 0 112 1l-2 4-1 3-1 11h3c2-1 3-8 1-8-3 0-2-3 0-4 3 0 5-6 4-9-1-2-11-3-12-1m385 1c-2 2-3 8-3 19 0 10 1 12 6 12 3 0 3 0 3-3v-1c1 2 2 1 2-3a3 3 0 00-4-3l1 1h1c0 2-1 2-3 1h-3l-1-1 2-1c2-1 2-1 0-1l-3-1h11l-1-8a18 18 0 00-2-10l-1-1-1 1-1-1c-2-2-2-2-3 0m-757 2c0 3 2 6 3 4l1 4 1 5c2 0-1 3-4 3-2 0-2 1-2 5l-1 4c-2 2-1 3 2 5 3 1 3 1 2-3l1-6 1-3 2 3 1 2 3-3c4-3 4-4 0-4l-4 1V29l-2 2-2 1-1-2c-1-1-1 0-1 2m576 0c-1 2-2 3-3 2-2 0-2 0-1 3l1 4c0 2 0 2 3 2h1l-4 3-2 1-1 1h18l6-1-3-2-1-6c1-5 1-6-1-6h-3l2 1c2 0 1 2-2 3l-3-1v-3l-1-2v2c0 2-3 4-4 2v-1c2 0 3-2 2-4 0-2-2-1-4 2m-670 3c0 5 1 6 3 5l2-1-1 2c-4 4-1 5 4 2h9l-1-2-1-2c0-2-3-4-5-2v2c2 1 2 1 0 1-2 1-3-3-1-5l-1-2c-2-2-5-3-3-1l-1 1-2-1-1-1-1 4m191-3l4 1 4-1-4 1-3 3c0 2 4 6 6 6l2 1h1c2-1 0-3-3-3l-3-2c-1-2-1-2 1-2 2 1 5-2 3-4h-8m-227 1l-2 1v1l-1 3c0 2 0 2-2-1l-1-2-1 1c-2-1-5 2-5 4l2 1c1 0 2 4 0 4l-1 4c-1 3 0 4 1 3l1-3c0-1 1-1 1 1l1 3 1-4c0-4 2-4 2 0 0 3 0 3 2 3h2c2 2 6 1 7-1 2-3 1-5-2-5l-3-1 1-1 1-3-1-3h-1l-1 2-1-2 1-2h2c2 0 1-1-1-3h-2m218 0c1 1 0 2-1 2l-3 1c-2 1-2 1-1-1l-2 1c-2 2-3 4-1 4l1-1h1l-2 3-2 2 2 1c1-1 2-1 2 1h1v-6c2-2 3-2 3 0l-1 1h-1l1 2 1 2c0 2 2 1 3-1v4c0 5-1 7-2 9-2 1-2 2-1 2 2 1 3-1 4-6l2-6v-5c0-2 1-3 2-3 3-1 1-5-2-5v3c-2 0-2-1-2-2l-1-3-1 1m102 7c-4 5-6 9-5 9l4-5c4-7 4-7 8-4l4 1c2 0-1-3-4-3-2-1-2-2-1-3 1-4-2-2-6 5m269-4v12c2 1 1 2-3 2-3 0-3 0-3 4 1 3 1 4-1 4l-2 2c0 2 1 2 2 2 1-1 2 0 2 1v11c-1 2-1 2 1 2h13c0-1-2-2-6-1-5 2-8 0-3-2h3l6 1 6-1-3-2a13 13 0 01-8 0v-7l-1-3c1-2 0-3-2 0-1 2 0 6 1 6 2 0 1 4-2 5s-4-1-2-4l1-3c-2 0-2 0-2-2s1-3 2-3c3-1 3-4 0-4l-3-3 2-1c7 0 15-3 15-5-1-3-2-3-5-2l-3 1v-4c0-3 0-4-2-4s-2-1-1-2c0-2-2-3-2 0m-396 0h-6c-4 0-4 0-4 2l-2 2c-3 0-5 2-4 4v1l-4 2v3l-1 5-2 5-2 4v2c1 1 5-1 6-4 2-4 3-4 3 0l2 2c3 0 5-4 3-7v-1h4c-1 2 0 2 1 2 2 0 2 0 1 2v1l-1 1c-2 2-1 2 6 3l5-1c-2-2-1-7 1-7l1-1v-2c1 0 2-1 2-3v-3l-2 1h-3l2-1c2 0 3-2 3-5l-7-8-2 1m103 3l2 2v1c-2 0-3 3-1 3l1 3-1 3-1 3c0 2 0 2 1 0l4-2c4 0 4 0 3-5l-1-6c-1-3-7-4-7-2m97 2c1 3-6 8-9 7-2-1-4 1-2 2l3 2 2 2v2l2-1 4-2c2 0 2 0 2-2-1-1 0-2 1-1 2 0 1 4-1 5-4 1-6 2-6 4l-2 1-1-3c0-2 0-2-2-1h-4v-2c-1-4-5-3-8 1-1 4 0 9 1 6v-1l1-1 4 1h3c3-1 3-1 2 1-1 0-2 2-1 3l-1 1-2 1h3a9 9 0 007-2l1-1 1-2 3-2h7c2-1 2-1 2 1v1c2-2 3-1 1 1l1 5 1 4-5 3c-4 3-9 4-11 1h-2c0 4 8 5 15 1 2 0 2 0 2 4-2 8-3 9-7 9h-5c0 1-1 2-3 2l-3 2c-1 2-1 0-1-5 1-8 0-10-1-5-2 4-1 34 0 37v36c2 0 3-15 2-24 0-1 0-2 1-1l1 3c0 2 1 4 4 6 3 4 4 5 6 16 2 10 2 13 1 15l-1 8-1 13-1 20-2 20c-2 10-2 11 4 11h17c4 1 11 0 13-1 1-1 2-27 1-29v-14h2c2 3 13 6 12 3v-1l1 1 3 1 2-2h-3l3-3 5-5c3-3 6-4 4-2l1 1 1-3h-1l-1-1 1-1c3-1 2-5-1-7l-1-1c2 0 2 0 1-1l-1-2h1c1 1 1 1 1-2l-2-4-1-1h1v-2l-1-1c-2 1-6-1-6-2h4l-1-1-2-1h-1c-1 1-2 0-4-1l-5-2c-1 1-2 0-2-1h7l-4-3-3-2 1-5 1-4c1-1 0-3-2-9l-3-13a146 146 0 00-15-47c-4-6-6-10-6-16 0-5-2-8-6-9h-2l-2 3c-2 1-5-1-3-4 1-1 0-2-1-4l-1-2 1-1v-1l1-1-3 1h-3l1-1-2-1c-4 0-4 0-3 2m136 0c-3 1-2 8 1 8h3l2-1c3-1 5-3 3-6-1-1-6-2-9-1M68 43l-2 3c-2 1-2 2-2 4v1c-1-2-3 1-3 8v7c2 0 3-3 3-7 0-3 0-3 1 1v7c0 2 1 3 3 1 0-1 1-1 3 1 3 2 4 0 4-4 0-3-1-4-3-4-4 0-4-2 0-2 2 0 3 0 2-1v-4l-1-2-1-1v-3l-1-4-2-3-1 2m310-1l2 1c2 0 2 0 0 1-3 0-3 1-3 8 0 6-1 7-3 9l-2 4c2 2 6-5 6-11 0-5 1-6 7-6 2 0 3-2 0-5-1-2-7-3-7-1m203 0l-2 1c1 3 1 5-1 3h-2l-1 5 1 3 1-1 4-2 5-1 1 1c1 2 0 3-1 3v2c2 4 3 2 3-6 0-10 1-9-8-8m193 0c-2 0-2 0-1 1v5c-1 4 0 5 8 5 4 0 0-6-4-6-2 0-1 2 1 3s2 1-1 1-3 0-3-2l2-4 2-2 1-1h-5m-351 4c-1 3 0 6 2 5l5-1c5-1 3-4-3-5-3-1-3 0-4 1m18 1c-3 2-3 3 0 3l2 2-1 1-2 2c0 3 2 5 2 3h1l1 2 1-2 1-2 2-1c1-1 1 0 1 2s0 3 2 3c3 0 5-2 5-7s0-5-3-5c-2 0-3 1-5 3-2 3-3 3-3 0l2-3 2-1c-1-2-5-2-8 0m-114 4c-1 3-1 7 1 7 1 0 4-2 4-4 1-3 3-2 2 1 0 3 3 3 5 0s0-5-5-5l-3-1c-1-3-3-2-4 2m200-1v4l2 4 1 4 1-1c-1-3 1-5 3-5 3 0 2-1 0-4l-3-3c0-2-3-1-4 1m10-1v7l-3 2-1 1c0 2 1 2 4 0 2 0 2 0 0 4s-2 6 0 4c1-1 2 0 6 3l7 5 4 4c0 5 2 5 2 0 0-4 0-4-4-6-6-2-12-9-12-11 2-4 2-6 1-6-2 1-2 1-1-1 1-3 1-7-1-7l-2 1m121 2l-1 4-1 4c1 1 0 4-2 4l-2 2h4c1-1 3-2 5-1 2 0 3-2 0-3l2-2h4c1 1 1 1-1 1l-2 2 3 1c2-1 3 0 4 1 2 2 3 1 3-3s0-5-2-5c-5 0-7-1-8-4a3 3 0 00-3-3c-1 0-2 0-3 2m-27 0l-3 3h-1c-2-3-3-2-3 2s1 6 3 4h3l1-3 1-3v2h1c2 0 1 1 0 3-2 1-3 3-2 3 2 0 1 4 0 4l-2 2 2 2 1 2c0 2 0 2 1 1v-6c0-5 1-8 4-8 2 0 1 3-1 5l-2 2 2 2 2 3 2-2c1-4 2-13 0-13v-1c0-2 0-2-2-2s-2 0-1-1c2 0 2-2-1-2l-5 1m91 2l-2 2-3 1c-2 2-3 4 0 2h2l2 3c3 2 5 9 3 10-3 2-3 6 0 7l2-1-1-1v-1h3v16l1 16c1-1 2-8 2-19 0-16 0-17-2-17l-2-2c-2-5-2-8-1-10s1-3-1-4l-1-2v-3l-2 3m28-2c-4 0-6 2-4 2 3 0 2 1 0 4-1 1-2 2-1 3h1c1-1 1 0 1 2 0 3 2 4 4 1h2c2 3 2 2 3-1 0-4-1-7-3-7-3 0-2-2 2-3l3-1h-8M434 63l1 12 1-10c0-15-2-17-2-2m-223-6c-3 3-2 5 1 3 1-1 1-1 1 1-2 3 1 5 7 4 6 0 9-2 4-2l-2-2 1-3 1-1-2-1-2-1-2-2-1 2a2 2 0 11-3 0c1-3-1-2-3 2m-77 0c1 4 2 5 3 2 1-2 3-3 3 0-1 2 2 2 2 0 1-1 1-2 4-1l1 1v2c2 0 3-3 2-5l-7-1h-6l-1-1-1 3m104-1c0 1 0 2-1 1v5c-1 1 0 1 3 1 4 0 4 0 3-3-1-5-5-8-5-4m573-1v5c1 1 0 1-1 1l-2-2c0-3 0-3-3 0-4 3-4 8-1 11l2 6c0 4 1 5 8 4 5 0 5 0 5-4s-1-6-3-6l-2-1h1c2 0 2 0 1-2l-3-2-4-1c-2-1 0-1 4-1l5 1 1 1 1 2v2l2-4c0-3-1-4-5-4-3 0-4 0-4-3 0-2-1-4-2-3m29 5l-3 6c0 2 2 1 3-1 2-2 2-2 3 3 0 5 2 7 2 2 0-3-2-8-3-8l1-3 1-4-4 5m38-3c-1 2-1 2-2 1h-3v1c2 0 2 1 0 4s-3 6-1 4c1-1 2-1 2 1 1 1 1 2 3 1 4 0 5-6 1-7-1 0-1-1 1-3 2-3 3-5 1-5l-2 3m-32 0l2 1 3 1h-3c-2 0-2 0-1 2l-1 2v4c2 1 2 1 4-1 3-4 4-8 1-9h-5m-80 4c-3 3-3 3-1 4 2 0 2 2-2 3-2 1-3 3-1 3l3 2h2v-2c-2-1-2-1 2-3 2-1 3-1 3 1l2 2-1-7-1-2-2-1c-1 1-1 1 0 0 1-2 1-4-1-4l-3 4m88-3c-1 2 0 7 3 8l3 1 1 2 1-5v-6h-8m-738 3c-1 2-1 2-1 0l-2-2-1 2c1 1 0 2-1 2-2 1-4 10-2 12 1 2 2 0 2-4l1-4 1 2v3c-2 3 0 11 2 10 1 0 2 0 2 2l1-2c1-3 0-6-1-3h-1c-2 0-1-2 1-2v-5h3c1-3-1-5-3-5s-2 0-1-1c2 0 4-8 3-8l-3 3m445-1v2l1 1v4c-2 1 0 3 3 2 3 0 4 1 2 6-1 1-1 2 1 2 2 1 2 1 2-5l-1-6c-2 0-2-1-2-3 0-4-5-7-6-3m321-1v3c-2 1-1 2 2 2 3-1 3 0 0 2-2 1-3 5-1 5 5 0 6-7 3-11-3-2-4-3-4-1m-715 3h-4l-2 2c-1 1-1 1 1 2 1 2 1 2-1 2-3 1-4 3-2 3l1 2c0 2 2 3 3 2 0-1 1-1 1 1 1 2 1 2 4 1 5-1 6-5 3-7l-2-2h2l2-1-1-1-2-1 2-1 1-1-1-1-2-1c0-1-1-1-3 1m162 0c-2 3 1 5 3 2 1-1 1-1 1 1l-2 2-3 2c-1 1-1 1 2 1 4-1 4-1 3 2 0 4 1 6 4 6 4 1 6 0 4-2s-3-2-3-1-1 2-2 1V64l1-2c-1-2-8-2-8 0m605-1l-4 2h6l-3 1c-2 1-2 1 0 2v1l-2 1 2 1 5-2c4 0 4 0 2-1v-1c2 0 3-2 1-2l-1-1c0-2-1-2-6-1m45 1v1l-1 8v8c1 1-1 3-2 2l-1-14c1-2-3-5-4-3l-5 1c-6 1-6 3-1 3 4 0 5 0 5 3v8l-4-2-1 2v4c-1 1-1 3 2 3l1 1 2 3c2 1 4 0 4-3l1-1 3-2c3-3 5-3 4 2l1 3 1-3 1-4v5c-1 4 0 7 1 4 0-1 1-1 2 1 2 1 2 1 4-5 1-6 0-7-6-7h-4l2-2c2-2 1-12 0-15l-5-1M89 64l-1 1-2 1 2 1 1 2h-1c-1-1-1-1-2 1-1 3-1 3 1 3h2l-1 1-2 1 2 2c1 2 3 2 3 2 2-1 3 1 2 2s0 2 1 4l3 2v-2l2-3c2 0 1-2-1-2-4 0-8-8-4-10 2 0 2 0 1-1h-2l-1-3c-1-3-3-4-3-2m305 0c-4 3-6 5-9 11-2 5-2 10 0 10l1 3c0 3 1 4 2 1s4-1 7 4l4 3c1-1 2 3 1 4v-1l-1 1-2 4 1 4 1 1c2 0 5 8 5 11l6 12 1 4a51 51 0 0010 22c5 9 9 14 11 14l5 2c4 1 4 2 2 3-1 2-1 2-1 0l-1-2-1 6c0 4 1 5 1 3l2-2v1l1 5v8a5 5 0 000 5c0 3 2 7 4 7l2 2c0 5 2 8 4 8 4 0 5-3 4-10 0-6 1-8 3-4h2c0-1-1-3-3-3-2-2-2-3-1-4l1-4c0-4 2-7 3-6h1l2-3 3-3-4-18c-2-4 0-5 1-2l1 1c0-3 1-2 2 2 0 4 2 5 2 1s-3-7-4-5l-1-1-1-2c-2 1-5-8-6-14 0-5 0-5 2-5 7 2 6 2 5 0l-1-3c1-2-1-2-2 0l-2 1v-4c-1 0-1-1 1-1l2-2c0-3 2-2 2 1l1 4 1-3c0-2 1-3 2-3v-5c-1-1-1 0-1 1 0 3-1 3-3 1l-1-5c1-5 0-7-1-4h-1l2-2c1 0 2-1 2-3v-4l-4-1c-3-3-4-2-4 0l-1 2c-2-1-3 1-1 2l1 10-1 10-6 4-7 3-1-2-11-23c-4-3-5-2-1 3l6 13c4 9 4 9 2 11-1 2-1 2 1 2h3c1 2 3 1 3-1s4-1 6 2l3 18v1c1 0 2 1 1 6 0 7-1 8-6 8a3 3 0 00-4 0l-10-5c-3 0-15-20-18-31l-3-9a55 55 0 01-7-18c-2-2-2-12 0-16 2-2 2-4 1-4v-2c2 1 2-3 1-5v-1c2 1 6 1 6-1l4-1 5-1h2c2 2 7 0 6-2l-3-1-1-1c0-2-3-3-5-3h-1l-9-9c-3-2-12-2-16-1m-43 3c-3 2-4 6-2 5s2 0 2 4c0 5 1 6 3 6 5 0 8-6 5-12-2-3-4-3-3 0 0 2 0 2-1 1-2-2-2-2 0-5 3-3 0-3-4 1m-215 2v7c0 5 1 8 4 8h4l3 1c2 2 6 3 6 1l-2-1-3-2c-2-1-2-1 1-4 2-2 2-2 0-2v-1l-2-2c-2-1-2-3 1-3l1-1-3-1c-3 0-4 7-1 9v2h-2l-3-2-1-2-1-10c0-3-2 0-2 3m56-1v2c-2 0-2 1-2 2l1 3 2 1c1 0 1 1-2 3-3 3-3 3-1 3 2-1 3 0 5 2 4 3 8 3 8 0 0-2 0-2-3-1-4 1-7-3-3-6 2-3 3-6 0-8v-1a1 1 0 10-2-2h-1l-1-1-1 3m-70 0l-1 8c0 8 0 8 3 7 2 0 3-3 0-3v-1a4 4 0 00-1-7l2-1c3 0 3-2 0-3h-3m166 0v3c0 2-11 2-19 0s-10-2-14 0c-3 1-3 1-2 2 3 2 4 5 4 12l2 10 1 11h-1c0 2-1 4-3 5l-1 2 3-2 2-2 1-1c1 1 2-3 1-7 0-3 1-4 2-2 2 5 0 21-2 20v9l2 10 2 9v2c-2-1-3 1-1 5h1l1-2 1 2h2c1 3 1 3-1 2l-1 1a506 506 0 014 7c3 3 3 4 2 4h-1c5 4 2 5-3 2l-5-2 8 6c2 1 2 1 0 1l-3 1a1 1 0 01-3 0c1-1-2-5-4-4-3 2-1 10 3 10 3 0 2-2 0-3-2 0-2-1-1-3h1c0 2 0 2 5 2l5-1 4 1h4l-1-2h-3c0 2-3-2-3-4 1-1-1-5-3-7-3-4-3-8 0-8 1 0 2-3 1-6 0-3-1-4-3-1l-1-1c-1-4 1-8 2-4 2 4 12 4 18 0 2-2 3-2 5 0h5c5-2 6-1 5 2v4l-1-3c-1-2-1 0-1 5l1 8h-7c-1-1-1-1-1 1 0 1 1 2 12 2l43 1 19 1 24-2-9-1h-9c0-2 0-2-1-1l-8 2-22-1-29-2h-6v-4c-1-4-3-6-3-2l-1 1v-3c2-3 2-9 2-23v-13l3 2c5 2 7-4 7-24l-1-8-1-7c0-6-6-12-10-9h-2l-3-1-4-1c-1-1-1 0-1 2l-1 3c-1-1-2 2-2 6l-1 3c-2 0-2-4 0-7l1-5c-1-3-5-5-6-3m455 0c-2 0-3 1-2 2l1 4 2 6 1-2 4-4 1 3c0 2 0 2 2 1 1-2 1-2 1 1 0 4 2 10 2 7v-7c0-5 2-7 4-4h1c2-1 1-2-3-3-4 0-5-2-3-4h-11m193 1c-2 3-2 7-1 7 1-1 3 0 4 2 3 4 6 0 5-7 0-2-7-4-8-2m-274 1l-1 3 2 2c1 1 1 1-1 1-6-1-10 2-5 3a4 4 0 004 0c0 1 4 2 6 0 1-1 1-1-1-4-3-4-3-4 1-4s5 0 3-1c-2-2-8-1-8 0m-480 2v5c0 4 2 4 5 1 3-2 2-4-1-4h-2l2-1c3-1 3-2-1-2-3-1-4 0-3 1m423 0l1 2-1 2c-1 1-1 1 1 1 5-1 15 9 19 17l1 1c0-3-3-8-8-13-4-5-4-5-2-7l1-2-7-1c2 2-1 2-3 0h-2m112 0v1c-1 0-2 1-2 3l-1 5 1 2 2-2 2-3c3-3 3-7-1-7-2 0-2 0-1 1m-411 1c-2 3-3 9-2 16l-1 8c-2 1-4-2-3-3l-1-1h-2c0-3-2 3-2 7v4l-1-4-1-2-1 3c-2 0-2 0-1 3l3 2v1c-2 1-2 1 0 1l4 2c3 3 3 3 5 3v2h1c0-1 2-1 5 1 7 2 8 1 8-12 1-21-5-38-11-31m322 0v2c-1 0-2 1-1 3l-1 2c-2-1-3 1-2 3s1 2 1 0 3-4 4-2l2 1c1 0 2 3 1 7l1 2 1-7 1-7c1-1 1-1 1 1-1 2 2 4 3 2 3-4 0-6-5-5l-3-1-3-2v1m-379 4l-1 4v8l3 34c0-1 0-2 2-1l4-1 2-2 1-1c0-2 0-2 1-1s1 1 1-1c0-4-3-4-4-1 0 2-1 3-2 2-2 0-2 0-1 1s0 3-1 3c-2-1-2-6 0-6l-1-1-2-2-1-8V76l-1 1m658 1c3 1 1 3-5 2l-5 1v6l1 4c-1 2-1 3 1 3l1-3c0-3 0-4 2-4l4-2 2-2v2c0 2 0 3 3 2 2 0 2 0 2 2 0 3-1 4-2 2-2-3-8-4-7-1v3c0 2 0 2 2 3 2 0 3 4 1 6v1l-3 2c-4 0-4 2-1 2 2 1 3 1 2 4 0 2 0 2 2 3 2 0 3 1 0 3-2 1-1 2 4 2 4 1 4 1 3-1l-2-2v-2c2-2 0-5-3-5h-1l3-1c4 0 4-1 1-4-3-1-3-2-2-5 0-5 1-6 3-4s2 1 2-6c0-10 0-10-3-10l-3-1a1 1 0 00-2 0m-738 2l-2 3-1 1v1l1 2c-1 1-2 0-3-1 0-3-2-3-2 0l1 4 2 1c2 0 2 0 0 2l-2 3 3-1c1-2 1-2 1 3l1 4v2c0 2 2 3 2 1 1-1 1-1 3 1 1 2 2 2 2 1v-2c-2-1-2-2-1-9l-1-7v-1c3-2 2-4-1-4l-3-1 2-1 1-2c0-2 0-2-3 0m609-1l-2 1-2 1 2 1c3 0 2 1-1 1-2 1-3 4-1 5v1c-2 0-2 0-1 7l-2 2-3 1h5l4 1h2l6-1 5-1v15c0 12 1 10 1-8l-1-24v9c0 4 0 7-1 6l-3-1-2-1-2-2c-2 0-1-4 2-6 2-1 2-1-1-5-4-3-5-4-5-2M72 80h-3c-3 0-5 2-3 3v2c0 2 0 2 2 2v1c-2 1-2 1-1 2h5c3-2 3-2 1-3v-1c2 0 2 0 1-2-2-1-2-2-1-2v-2h-1m359 2l2 3c2 1 2 1-11 4-10 2-17 4-8 3l8-1 7-1 5-2h4l3 2-1-1-2-2 4-2c3-1 14-1 18 1l2-1c0-3-15-4-21-2-5 2-7 2-9-1h-1m500 1c1 1 1 1-1 1s-2 1-2 6l-1 8v2l2-4c1-3 1-4 4-4 2 0 2 0 0 1-1 0-2 1-2 3a4 4 0 005 5c1 1 1 1 1-2s0-3 2-1c2 3 3 2 3-4s0-6-3-7c-2 0-3-2-4-3l-3-3c-2 0-2 0-1 2m-85 0c-2 0-2 1-1 3h2l3-2v1c-4 0-2 2 2 2l4 1h1l2 1c3 3 5 2 5-3 0-2 0-2-1 0v2l-1 1a5 5 0 01-4-5c-1-1-9-2-12-1m-45 7c-1 6 0 9 2 6l5-1 7-2c3 0 3 0 3 2-2 4-2 9 0 10l1-3c0-2 1-3 2-3a1 1 0 10-1-3l-1-3c1-3 1-3-1-4s-3-2-2-3h-5v2c1 1 1 1-1 2-1 1-1 1 3 1s4 0 2 1c-6 1-7 1-7-2s-1-3-2-3l-2-1c0-3-2 0-3 4m-606-3l-3 2-2 1h2c2 1 3 3 0 3l-1 1 3 1c3 0 3 0 1 2-2 3 0 5 4 3h5c2 0 3-1 1-3-1-2-2-2-3-2-1 1-2 0-1-1 0-1 0-2-2-2v-1c1-1 1-1-1-3s-3-2-3-1m358 2c-2 2-3 4-1 4v2c-3 3-2 3 3 2 4-2 5-2 1 0-3 2-3 2-2 3h2c0-2 1-2 2-2h3c0 3 2 4 6 3 2 0 3-1 3-2l1-1v-1c-2-2-3-6-1-8 1-1 1-1-1-1l-3 1-1 2c-1 1-1 0 0 0l-1-2c-2 0-2 1-1 4l2 1v1c-1 2-1 3 1 3 1 1 1 1-1 1l-2-2-1-2c-1 1-2 0-1-3 0-4-1-5-4-3-2 3-2 2-1 0 1-3 0-3-3 0m-446 0c-2 1-4 4-2 5v3l-1 2 2 2 1 1 1 1 1-2 1-3v-2c-1-1-1-1 1-3l2-2v5c-1 6 0 7 2 2 2-2 3-1 2 3l3 1c5-1 6-4 2-4-2 0-3-1-3-5-1-3-2-4-4-4h-8m42 0l-1 1a2 2 0 100 3l2 1c-1 1 0 3 1 3l1 3c-2 2 0 4 2 3l3 1c2 2 3 1 2-2l-3-3c-2 0-2-1-1-1 1-1 0-4-2-4v-1l2-2-2-1-3-2-1 1m596 1c-3 1-4 4-1 3 2-1 2 1-1 6-1 3-1 3 1 3l2-1c0-1 1-2 2-1v2a5 5 0 004-5l5-1h5c-1-2-10-1-12 1s-2 1-1-3c2-5 1-6-4-4m124 3v4c2 1 3 8 2 10v3c2-1 3 2 3 7l1 3c1 0 1-2-1-13-1-10-1-10 1-11 2-2 1-3-3-4l-3 1M67 95c-2 0-2 1 0 3l1 4 2 2c3 0 4-1 2-3-1-2-1-3 1-3 1 0 1-3-1-3h-5m772 3l-3 5v2l-1 2 2 2 2 2c0 2 3 1 3-1-1-3 2-5 6-5l4 1 2 1h-2l-1 1 2 1c2 0 2 7 1 9h2c4-3 5-8 1-8v-3l2-1c5-1 5-3 1-4s-5-1-2-1l3-2c0-1-8-3-9-2-1 3-5 7-6 6v-1c2-2 0-4-3-4h-1l1-2c0-2-2-1-4 2m38 2l-1 5c0 3 1 4 5 4 2 0 3 0 2-1l-1-2-1-1h-2l1-1 3-1 1 1c-1 1 1 4 3 4v-3l-2-1h2c3 0 2-1 0-3h-3c0 1-4 1-6-1h-1m-211 3l-4 1c-4-1-6 0-6 1h3l-2 2-1 2v1c-1-1-8 2-8 3 0 2 1 4 3 4 1 0 2 1 2 3l2 2 1-1 1-2 1 10 1 20v1l-1-1h-2l-3 2c-2 1-4 3-4 5l-3 2-1 6-1 1c-2 0-1 6 1 13l2 8 2 5c1 3 2 5 1 8l1 8a90 90 0 012 37c1 4 4-6 3-14 0-13-1-14-2-19l-1-13 5 7 5 7 1 2 2 3 2 3 2 4 2 3 1 2a27 27 0 011 26 60 60 0 000 25c-2 2-2 13-1 14l-1 4c-1 2-1 6 1 6l1 5c0 11 0 12 2 13 2 3 14 3 18 1l9-1h6v3c-4 15-4 19-3 26 1 3 2 6 1 7l-1-1-1-3v17c1 1 1 0 1-3v-3l1 3 1 3v2c-2 2-3 6-1 6v6l-1 8-1 4-1 2c0 3-2 6-3 5l1-2c2-3 1-3-2-1-1 1-1 1-1-1 1-2 1-2-4-2l-4 2h-1v1l-1 2-1-2-2-2-2-1h-2l-2 1-1 3 1 1h1c0 2-2 1-3-1v-4c3-5 2-5-3 0-4 4-5 9-2 9v1l-1 2-2 1-2 1c0 1-5 2-6 1-2-1 0-7 3-8 2-1 3-2 3-6s0-5 4-9c6-5 8-6 15-6l8-1 4-1c2 0 3-1 3-2h-1l-2 1v-1l-1-1-1 1-7 1c-11 1-13 2-16 5l-6 6c-2 2-3 2-4 1-2-2-5-2-9-1-7 3-6 14 1 15 3 0 4 0 4 3 0 2-1 3-2 1-1-1-4 0-7 2l-5 2c-3 0-3 0-4-3l-1-5c-2-4-2-6 0-5 1 1 2 1 3-1 2-1 2-3 1-3v1c0 2-3 2-5 1v-1l-1-2c-2-1-2-2-1-2v-1l-1-7-2-6c-1-1-2-3-1-5 0-4 0-4-1-3-2 2 0-19 2-27 2-9 1-17-5-30-2-5-2-10-1-10l2-1h-2c-1 0-2 0-3-2-3-11-10-19-18-23a17 17 0 01-9-8l-3-2-3-4-4-7c-4-8-7-11-12-10-10 1-19 8-19 14l-1 3a2 2 0 002 3c1-1 1-1 1 1 1 3 0 8-1 11-2 2 0 4 3 3l2 1c0 2-1 3-6 8-5 4-6 11-1 7v-2l-1-2h3l4-2c4 0 6-2 6-5 0-4 3-8 6-6h3v-1c-2-1-2-3-1-3l1 1 4-2c6-7 7-7 8-5h3l6 3 3 4h-2l-8 2c-4 1-7 2-9 4l-6 4c-3 1-4 5-2 9 5 10 9 25 10 37 2 20 2 39 0 43l-3 18c0 2-1 3-2 2h-3c-3 0-3 0-3-2 0-3 2-4 4-2l-1 1h-2l3 1 2-1-1-1c1-5 0-6-7-5-10 0-11 1-7 3l3 2h-5c-4 0-4 0-4-2 1-2 1-2-1 0l-1 2c1 2-3 1-4-1-3-3-2-5 2-5l3-2c0-2-8-1-9 1l-3 1-5 4-5 4-1 2h-2v-7c4-2 4-9-1-9l1 2c3 1 2 4-2 5l-3 2c-1 1-1 1-1-1a7 7 0 013-6l3-3c2 2 3 1 3-1l3-3c3-1 3-2-5-2-9 0-9 0-6-3 2-2 2-2 4-1 3 1 4 1 2-1-2-3-5-2-9 2s-6 5-7 2h1c2 1 2 1 4-3l5-4c2-1 2-1 0-3s-6-2-7 0h-2c-3 0-11 3-11 4l4 2a3 3 0 013 5l-4 1c-3 0-5-1-5-2a1 1 0 10-2 2c1 1 1 1-1 1-2 1-3 7-1 7l1-1 4-4 5-3 4 4a7 7 0 015 8c1-1 1-1 2 1l-1 3c-2 0-1 2 1 3 2 0 2 1 2 4s-1 4-4 4l-4 1 3 1c6 4 7 6 8 12 0 6 0 6-1 5-1-2-2-2-3-2l2 3c2 3 6 20 5 26-1 5 0 6 1 2 1-3 0-18-2-23-1-3-1-3 1-5l1-2c-1 0-2-1-2-5l-1-6c-1-2 0-2 1 0 2 2 7-2 5-5-1-2-1-3 1-4 2-2 3-2 3-1 0 2 1 2 3 1l3 1a10 10 0 01-6 10l-3 4c-2 2-3 3-2 4v24l1-11c1-10 3-18 4-15 0 2 2 1 2-1-1-2 2-5 8-8 5-3 7-2 5 2l-1 5c1 2-1 6-4 6l-1 1 1 1 4 1c2 0 2 0 2-2-1-3 4-8 6-5a17 17 0 015 12c1 0 4 9 3 10-2 0-1 2 1 4l2 5 1 5c2 0 1-14-1-15-2-2-4-10-2-11l3 2h2a1 1 0 112 1l-1 1 1 1c2-1 3 1 3 12l1 9 10-1c11 0 10-1 11 10 1 4 1 4-1 2l-3-2 1 3c2 3 3 5 3 25 0 2 0 2 1 1v-11l1-11h1c2-4 4 4 4 15v11l4 1c5 0 5 0 4-2 0-2 0-2 1-1 2 0 2-1 2-7 0-7 0-7 2-8 5-2 7 0 6 8l1 7 1 5v4l-14-1-16 1c-3 1-3 1-1 1l4 1h1l28-1c28 0 34-1 12-1h-12v-4l-1-4v-7l-2-13v-6c0-1 3 1 3 3l1 3 1 7 1 7 1-7c0-8 2-5 2 3 0 7 2 8 2 1l1-4 2 2c3 3 9 2 9-1l1 6c0 8 0 10 1 9l1-23v-7l1-2 2 3c1 3 2 5 1 11v11l1 5c1 1 1-1 1-7l1-15c0-3 3 5 3 9l1 3v-8c-1-7 0-10 4-10 1 0 1 21-1 22v14l1-6c0-4 0-5 2-4v-2c-2-4 0-23 3-23h2l2 1v-1c-1-2-1-7 1-6l2 1-1-1-1-2c0-3 0-4-2-3-1 0-2 1-1 2h-1c-1-1-1-1-2 1h-1a9 9 0 017-5c2-1 3-3 0-3-1 1-2 0-3-1l-3-2c-1-1-1-1 1-1l3-1 2-1 3-1h4a3 3 0 011 5c0-1-2-1-4 1v12l2-3 3-5c-1-2 2-4 6-4l5 1v7h-5c-1 1-1 2 1 2 5 1 3 6-1 5l-2 1 1 2c1 0 3 5 3 8l-3 2c-6 1-7 7-1 8 2 0 2 1 2 4s0 4 1 3l1-3c0-2 2-3 6-4 2-1 2-5 1-5-2 0-3-3-2-6l1-4c0-2 0-3 2-2h3l1 10 1 9 1-10c0-5 0-9 1-8l2 1c1 0 1 1-1 2v4c2 1 2 12 0 11-1-1-6 1-6 3v10c0 2 0 3 1 2v-3c0-3 1-4 3-1 1 1 10 2 13 0 4-2 1-12-4-12s-2-12 4-16l3-2h-1c-1 0-2-1-2-3-3-5-3-7-1-6h3c3 0 3 3 3 10-1 6-2 7-4 7-3 0-4 4-2 6l8 2c8 0 10-3 5-6-4-2-5-2-5 0-1 1-1-3-1-7 0-9 1-13 2-11h11c1-1 1-1-1-1h-3l3-1h3l2 1v-1c-1-1-1-1 1-1 1 1 2 0 3-2l-1-5c0-2 0-2 5-2 14 0 20 0 25-2l10-1a3 3 0 004-3l-1-3c1-4 0-10-3-13l-1-2 3 2c4 4 8 5 10 4s2-1 2 1h1l5-3c3-1 3-7 0-10-3-2-12-2-14 0h-1c-1-1-2-1-3 1-2 1-2 1-4-1l-4-2v-1c4 0 4-5 0-7l-1-3c0-2 0-2 3 0 5 4 11 2 9-2-1-1 0-1 9-4l5-2-1 8c0 9 1 10 6 6 3-1 3-2 0-5-2-2-2-2 0-9l2-7v6l1 8 1-8v-9l3 1c14 3 16 4 15 12-1 7-1 7 3 7s5-2 5-8l1-7v-3c-2-1-2-8-1-8v-1c-1-1-1-3 1-7l1-11 1-4v24l1 23c3 1 16-2 17-3s1-1 1 1 2 1 3-1l9-2c7 0 8 0 8-2s0-2-1-1-3 2-8 2l-13 2-10 2-5 1v-41c0-5-2-8-4-6-1 1-1 1-1-1l2-4c2-1 0-7-3-11l-4-3 1 2 4 7h-1l-2-1-1-1v-1c-1 0-3 2-3 4s0 2 1 1h1l-1 2c-1 0-2 1-2 3a1 1 0 11-2 1l1-7-2 2c-3 2-3 2-3-6l-1-7 1-1c2 0 0-10-2-12l-2-5-1-3-1 4-1 4c-1 1-2-8-1-10 2-1 6 3 6 6s2 4 2 1c1-1 1-1 1 1l1 3 1 11 1 10c2 1 2 0 2-5s0-5 1-3 1 1 1-4v-6l3-1c3 0 4 1 5 2l9 3 2 2 2 1v1l-5-2c-6-3-8-2-3 2 5 3 9 8 9 11l3 4v-8l-2-3-2-3h3l4 1v10c0 10 0 13 2 10 1-1 1-1 1 1-1 4-2 5-4 2l-6-13-2-4v7c4 7 5 12 3 12-2 1-2 4 0 3 2 0 2 2 2 15l1 10 1-4 1-4a2 2 0 00-1-4l1-1 1-1v-5c2-4 3 0 3 13l1 11v-25c-1-6-1-7 1-12 2-3 3-7 3-10l3-7c2-4 0-6-3-3l-3 2 1-2 1-1c-2 0 2-6 5-9a3 3 0 001-4c1-1 2 0 4 1 3 2 4 3 4 1h-1l-1-2 2-2 1 3c-1 2 0 6 2 11 3 7 4 14 3 26l-1 5 2-4c1-2 1-3 1-1l-1 5-1 2v1l1 28 1 3c1 1 2-3 1-4v-30c0-10 1-11 2-11 3 0 2-2 0-4-3-1-3-11-1-20 3-10 3-17 0-19-3-1-3-1-1-3s3-5 2-13c-2-20-6-36-9-36l-1-1v-2c0-1-9-5-14-6-3-1-3-2-3-4 1-3-1-7-4-7l-2-1v-2l-1 1c0 2-4 1-4-1-1-1 0-2 1-2l2-1h1v1l1 1c2 0 2-11-1-15s-6-5-12-5c-10 1-13 4-17 16-2 8-2 9 0 6l2-2-1 4v8c-1 4 1 2 2-2l1-3 2 2 2 6c0 3 4 4 10 3l9-1 5-1v3c0 3 0 3 1 2h2c1 1 0 2-1 2-2 1-1 1 1 1l6 2h12c1 1 0 1-1 2l-2 1-2 3-6 7-4 4-2-2c-1-2-4-3-6-4-4 0-4-1 0-4l4-3 2 2c1 1 2 2 3 1l-2-2v-4c1-1 1-1 0 0-3 2-7 1-6-1 0-2 0-2-1-1l-5 2h-2a2 2 0 10-3-2l-2 1c-1-1-2 0-4 2l-4 3c-1 0-4 4-3 5s0 2-2 2a5 5 0 00-1 7c0-4 9-7 10-3l2 3c2 0 2 4-1 4l-9-2c-7-1-8-2-7-3l1-4 5-6c3-4 4-5 4-9 0-7-2-7-9-3-4 2-7 2-10 2l-5 1h-9c2-1 0-4-2-4-3 0-3 0-3 3 0 5 1 6 4 6h3v35l-1 6v3c2 1 3 5 2 5l-3-2c-8-6-26-8-38-4l-7 3c0 2 1 1 6 0 7-3 25-3 30-1l4 2-5-1-5 1c0 1 0 2 1 1l1 1c-1 1-1 1 1 1h2l-1 1-1 2-1 2v-2c0-2 0-2-1 0-1 3-3 4-3 1l1-2v-3c-1-2-1-2-2 2-2 8-2 12 0 13v2l-2-1c0-2-2-1-2 1l-1 1-1 2c-1 1-1 1-1-1l1-4 1-7 1-6h-4c-3 0-4 0-4-2l-2-3c-2-1-3 1-3 7 0 3 0 3-2 3s-3 0-2-2c0-2 0-2-2-2h-3l-4-7-5-6-2-2-3-3-1-1-1-2-1-6-1-4c1-1 2 1 2 5l1 3 1-3c0-2 0-2 2-2h1l-2-4-3-13-4-7c-4-4-5-3-3 0v3l-1 3c0 2 0 2-1 0-1-3-9-6-11-3h-2v-1l2-1-4 1a4 4 0 01-6 0l-2-1v-1c1 0 2-3 2-11l1-14 1-10v-3l1-3 1-8c2-5 2-8 1-8v-1c1-1 0-8-3-15l-1-6c0-5-1-12-4-15-4-5-4-13 0-10 2 1 2 1 3-1h1c0 2 2 1 4-1l4-2 4-3c2-2 4-2 10-3l10-3 3-2 2 2c1 2 3 3 3 1l1-2a2 2 0 10-2-2c0 2 0 2-2 1-1-2-1-6 1-7l1-1 2-3 2-1-2-2c-2-2-2-3 1-2l1-1c-1-1 1-3 2-5l3-4-2 1c-3 3-5 5-5 2l-1-2c-2 0-3 4-1 5 2 0 0 2-2 2s-2 0-2 2v1l-1 2c0 2-1 3-6 5l-5 2h5c5 4 6 6 2 6l-2 2-4 1c-2 0-2 0-1-1v-1l-2 2h-1l2-3c2-3-1-2-4 0l-2 1c1-1 0-2-1-3l-4-2c-1-2-2-2-5-1-4 1-5 3-2 3l-1 1-2 1 2 2c1 1 3 2 4 1 2 0 3 1 2 3h-8a2 2 0 10-3 2c1 1 1 1-1 1l-2 1c1 3-4 4-9 1-6-3-7-2-6 4 1 7 0 11-2 10-1-1-2 0-3 4a4 4 0 01-8 1c1-1-2-5-6-8-4-5-4-5-4-2l2 2 1 1 2 3 2 3v3c-1 1-2 0-2-1-1-1-6-2-6 0l-2 1c-1 0-1-8 1-11 2-2-1-6-4-8l-4-2-2-1-1-2c2-8 2-10 0-12 0-2-2-3-2-2v-3l2-2 3-3 1-3 3 4c2 3 3 4 4 3v-1l-2-1 2-1c1 1 1 1 1-1-1-2 0-3 1-3l2-2c2-2 3 1 2 3-2 2-1 6 0 6v1c-1 1-1 1 1 2l2 1 5 1 5-1-1-1v-7l3-1c4-1 4-6 1-9l-1-1c1-1 6 0 9 2l3 2 2 1 2 1 4 2 9 3 6 2h2l-1-2v-1c4 2 2-1-5-5l-9-4v-1l-1-1c-2 1-3 0-5-4l-3-1-2-1h-1c-2 1-2 1-2-1l-2-2-2-1h1l1-1-6-6-3-2c-4-4-8-5-12-5h-4l-4-1h-6c0-1-2-1-3 1m-111 1l2 3c2 0 1 5-2 5l1 2 1 3-1-1-5-1 1 1 1 4v4l2-2c0-1 1-1 2 1 2 4 4 3 5-1 0-4 1-5 3-3h4l-3-2c-2-1-2-1-1-3l-1-2c-3 1-4-2-2-4 3-3 0-5-4-4-1 1-2 1-2-1l-1-1v2m239 2l4 1c5-1 6 1 2 5-4 3-6 4-5 2 1-1 0-2-1-3l-1-2v-2c-1-1-1 0-1 4 0 3 0 4 1 3 1-2 1-2 1 1l-1 3c-3 1 0 2 4 1l6-1h3c0-1 1-1 1 1 1 1 1 1 1-1l-2-5-1-3c0-2 0-2 1 0l2 2c2 0 1-6-1-6h-13m133 1c-1 1 0 3 1 2v7c-1 6 3 7 6 1l2-2v2c1 3 8 3 9 0 0-2 0-2-2-1h-4v-1c2 0 3-1 2-3 0-1-1-2-3-2-3 0-3 0-3 2 1 1 1 1 0 0l-1-2c1-3-6-6-7-3m-858 4l-1 2 1 4-1 4-1-2-1-2-1-3c0-6-2-4-3 3-1 8-1 13 1 14l1-6v-5l2 2c2 2 2 2 4 1l5-1 2-1-1-1c-2 0-2-1-2-3 0-4-2-5-2-2-1 1-1 1-1-1l3-3c3 0 2-2-1-3-2 0-3 1-4 3m-23 6c-2 2-2 8 0 8h3c3 1 6-3 4-6-1-3-4-4-7-2m926 3v3l-1-1c0-2 0-2-4 0-3 1-4 2-1 4 1 1 2 2 3 1 2-1 2-1 3 1 1 3 2 3 4 0l1-2v2c1 2 3 3 4 1 0-3 2-2 2 0 1 6 5 1 5-5 0-3 0-3-3-3h-6c0 2-4 1-4-1-1-3-3-3-3 0m-303 0l-3 2c-1 5-2 8-4 8s-3 4-3 11l1 5 2-3c0-2 1-3 2-3l2-4 3-5 2-5 1-1a3 3 0 10-3-5m180 1c-2 0-1 3 1 3v1c-2 2-2 7 0 7v1c-2 1-2 1-1 2 3 2 1 4-4 3-2-1-2-1-2 1 1 3 18 2 18-1l-3-1c-1 0-2 0-1-2l-1-3c-2 0-2-1-1-5 0-4 0-4-2-5l-2-1h-2m59 1c1 1 0 2-1 2-2 1-2 1-1 6 1 4 1 6-1 7-1 2-2 5 0 3s3-1 3 2l1 3 1-1 2-3 2-1-1 3v2c2 0 3-2 3-6 0-2-1-2-4-2h-4l2-2c3-3 4-10 1-10l-1-2c1-2 0-3-1-3l-1 2m-31 4c-1 4-1 5-4 6s-4 3-1 5v1c-2 1-1 3 0 3 1-1 2 0 1 1l1 1c3 0 2 1-3 3l-4 3c0 2 3 2 6 0 2-2 12-5 14-4h2c0-1-1-2-3-2-3-1-3-2-3-7l-1-5v-3c2-4 1-7-2-7s-3 0-3 5m19 0l-2 3 1 1h2l1 4c1 2 1 3-1 2l-1 2c0 3 2 4 2 2l1 2 2 3v-3l2-4c3-3 2-4 0-2-3 1-3 1-3-1l-1-4 2-3c4-2 3-3-1-4-3 0-4 1-4 2m-720 0v4c-1 0-3 3-4 10l-2 5c0-6-2-9-7-8-2 0-2 1-2 4 0 2-3-1-3-3-1-3-2 0-1 7l1 7-4 2c-4 3-5 3-5 0l-2-10-2-10c-1-3-6-4-8-2l2 1c3-1 3 0 6 11 1 4 0 8-2 4l-1-4-1-5c0-4-3-6-3-3l2 6 1 5-1-2c-1-3-4-4-6-2-2 1-2 1 0 4l1 3v1a18 18 0 013 19v2c-14 15-17 20-14 32 4 12 7 13 35 6l14-1c7 0 7 0 7 3l-1 3c-5 2 10 6 25 6 13 1 11 0-3-2-18-2-18-2-19-7a4 4 0 00-3-5l1-1c2 1 3-4 2-5-1 0-1-16 1-21 1-5 2-6 15-10l9-3h53c5 2 5 1 1-2l-6-3c-3-2-5-3-5-1 0 1 1 2 3 2 6 2 2 3-19 3-24-1-31 0-40 3l-9 2c-2 0-3 1-3 2l-1 1c-3-2 0-7 5-12 4-3 6-6 6-7l2-2c3 0 3-4 0-9 0-1-4 3-3 4h-1c-2-1-3 0-9 7l-6 6 1-6 1-6c2-2 5-16 5-19-1-5-5-7-6-4M36 137c0 6 0 9-2 11-3 4-3 6 0 6 2-1 3 0 1 1l-2 3c0 1 0 2 2 1v2c-2 3-1 3 3 1l2-2v-2l-1-2-1-3a3 3 0 00-2-4l2-1v-14c-1-8-2-6-2 3m895-5v3c-2 0-2 1-2 3l-1 3-2 1 1 1v8c0 3 0 3 1 2l2-5 1-5v5c0 4 0 5 1 4l6-1 5-1v-1c-2 0 1-2 3-2s1 136-1 137v2l1 4c-1 2 0 3 2 3 3 0 3-1 2-2-2-1-2-8-2-75v-75l-1 2-1 3h-2c0 2-2 1-2-1s-4-7-4-5a2 2 0 01-3 0c0-2-1-2-3-1h-1c0-2 5-4 7-3h1l-2-2c-2 0-3-1-3-2h-3m-756 5c-2 6-2 6 0 6 2 1 6-9 4-10-1-2-3-1-4 4m702-3c-1 1 0 6 1 6v2c0 2 0 2 1 1 3-1 3-11 0-11l-2 2m-812 0c-2 1-1 2 2 2 2 0 1 1-2 1-4 1-7 4-4 4v3l1 2 2 2 5 1c4 0 4 0 4 2v2l1-2c1-3 0-5-2-5-1 0-2-1-1-4v-8h-6m458 1l-4 1c-2-1-3-1-2 1l2 2 1 1v1c2 0 3 2 1 2-1 1 7 13 8 13 2 0 3-2 2-4l-1-3-4-3-3-3 4 3c3 3 3 2 0-4a17 17 0 01-2-8l-2 1m-364 10v10l2 15v7c-1 1-3-13-3-19v-4l-4 2-3 4 2 7 2 5v5c-2 0 2 3 4 3 5 0 7-4 7-17l2-15c0-3-3-5-5-3h-2c-2-3-3-2-2 0m746 7c0 5 0 6 2 6 1 0 2 0 2 2 1 2 1 2 1 0l1-3c2 1 4-1 5-4l-1 7c-1 6 1 5 3-2l1-6a16 16 0 00-11 0l-1-3-3-2 1 5m-452-1v5c2 3 2 14 1 18v5l1 3c0 3 2 3 5 2 4-2 4-3 1-12l-4-15c-3-10-3-11-4-6m387 4c-1 9-1 9 11 7h9l-2-2c-2-1-3-2-3-6 0-2 0-3-2-2-8 1-11 1-11-2 0-5-2-2-2 5m-563-2l1 4c3 0 6-1 6-3 1-2 0-4-2-3l-2-1c-2-2-3-1-3 3m406-3l1 7 1 5c0 5 2 4 3-2l2-6v-3l-7-1m197 2c-2 2-2 2 0 2 1 0 2 4 0 4v3l1 4c-1 2 6 2 6 0l2-1 2-1-1-1-1-1c0-2-1-2-3-2h-3l2-4c4-4 4-4 0-4-3-1-4 0-5 1m-697 4c-5 4-7 8-4 5l3-1c3 1 8-5 7-7-1-3-1-2-6 3m103 0l2 6h-1c-1-2-3-2-3-2l-1-1h-7l3 2c2 0 5 3 2 3l-3 1 5 1 9-1 4-1c0-2-1-2-3-1-4 0-4 0-4-3l-2-6c-1-2-1-2-1 2m642 2l-2 1c1 1 2 2 2 6 0 5 0 5 2 5 10-1 11-1 11-3 1-3 0-4-4-4l-3 3c0 1 0 2-3 2s-3 0-2-3l2-5c3-2 2-3-3-2m39 4c0 5 1 8 2 8 3 0 4-7 2-10-3-3-4-3-4 2m-909-1c-1 2 0 6 1 7v1c-3 1-2 3 0 3v1c-2 1-2 2-1 3l2 3c0 3 4-4 4-7l1-2h1l2-1-1 2v3l1 2c0 2 2 0 3-2l2-4v1c-1 1-1 6 1 6s3-3 3-6 0-3-3-3h-7a3 3 0 01-5-1c2 0 2-7 0-7l-1 2v3l-1-3c-1-2-2-3-2-1m922 1c1 5 6 8 7 5 2-5 2-6-2-5l-3-1a1 1 0 10-2 1m-439 0c-3 2-3 2-1 2 1 1 1 1-1 1l-2 1 3 1 6-1c2 0 3 1 3 2l-1 1c-1-1-9 0-9 1l8 1h7l-2-3c-4-4-8-7-6-4l-1 1v-4l-4 1m362 2c-3 1-4 3-1 3v2a2 2 0 011 4l-1-1-1-2c-2 0-1 4 1 5 1 1 2 2 1 5-1 4-1 4 1 5l2 2v1l1-2 2-2c3-1 4-5 2-8l1-2c4-3 1-6-5-4l-3-1 4-1 3-1v-1c4-3-2-4-8-2m-868 2c-3 3-2 5 0 5s2 0 2 2c-2 4 3 8 6 5 1-2 1-2-1-2v-2l-1-1c1 0 0-2-2-3l-2-2v-4l-2 2m374 1l1 5 1 28v2c1 5 2 4 3-2l-1-13-1-10c1-3-1-12-2-13l-1 3m259 2l1 7a13 13 0 003 8c1 1 1 1 1-1-1-2 0-4 1-6 2-3 2-3 1-5-3-5-9-7-7-3m180 3c0 3 0 3 1 2 2-2 3-2 3-1l-2 3c-2 1-3 5-1 5l2-2c1-2 3-2 6-2l5-1-4-1c-4 1-4 0-4-2l-2-2-2-1-1-1-1 3m-9-1l-1 3c-3 2-2 3 0 3 2-1 3 0 2 5 0 1 0 2 1 1l2 2 1 2v-6l2-1-2-1c-2 0-2-1-2-4 0-4-3-7-3-4m-297 3h-1l-1-1v2l3 1h1l5 3 5 3v5l-1-1-4-2c-6-1-8-1-4 1h6l1 1c-1 1 3 4 4 3a12 12 0 00-2-11c2 1 3 0 1-3l-1-1a1 1 0 11-1 0l-3-1-5-1-3 2m-366 3c-3 2-3 6-2 6 3 0 7-3 7-4 0-5-2-5-5-2m20-1v7l-1 5c-1 1-1 0-1-1v-4l-5-4c-1 1 1 5 2 6l1 4v3l2 3 2 3 1 2-3-1c-3-2-5-1-3 0l1 8 1 6h6l7-1v1c0 3 2 5 4 3 3-2 10-2 10-1 1 3 4 1 4-1 0-4 0-8 1-6 1 4 13 6 15 2 2-3 1-5-1-5h-7l-4 1c-4 0-5-1-5-6l-1-2-4-2c-3-3-7-2-8 0l-1 3c-1 0-1-7 1-9l2-7v-5l-3 2c-2 1-2 2-2 4l-2 1c-1-1-2 0-1 1l-1 2-1-3c0-2 0-2-2-2-2 1-3-3-1-4v-3c-2-3-3-3-3 0m673 3c-3 5-4 8-2 8l1-2c1-1 1-1 2 1 2 2 4 1 2-2-2-2-2-3 0-5l2-3c0-2-2-1-5 3m11-1l-3 1c-4 1-4 1 1 7l6 10 4 5-6-12c-3-5-3-5-1-5s5-3 4-5l-5-1m-748 4c-4 5-4 5 2 4 4 0 10-2 7-2v-3l1-3c-1-1-3 1-3 3a2 2 0 11-3-3l-4 4m583-1a4 4 0 002 4h-3c-1 1-1 2 1 2l1 1h-2l-1 1c1 1 6 4 7 3s-1-10-3-12l-2-2v3m-566-1l-2 3c-2 1-2 2-1 3 3 2 7 0 6-4l1-1v3c-1 3-11 7-15 7-3 0-3 0-2 2v2h1a5 5 0 017-1l2-1 2 1 1 4-1 2-1-3h-4l1 1v2l-2 1-2 1c-1 0-5 1-6 3l-4 1c-4 0-4 1-1 4 2 2 4 2 14 1 6-1 7-1 6-4l2-6 2-4 2-4v-2c-2 0-1-3 1-3l2 1v2h1a4 4 0 017 3c1 1 1 1 1-1l-2-3-3-2-2-2-2-2-3-3c-3-2-6-3-6-1m321 0l-1 1c-1 0-2 1-2 4l-1 13v20l-1 12c-1 1-1 1 1 1 3 0 3-1 2-17-1-11-1-16 1-14l1-2 2-8 2-6-3 6c0 1 0 2-1 1-2 0-1-8 1-10v-2l-1 1m-436 3l-5 1c-4-1-5 0-2 2 2 1 2 1-1 2s-4 3-2 3l1 4v3l1 2 2 2 1-2v-3a1 1 0 100-2c-1 0-2-1-2-3s0-3 2-3l2-1a3 3 0 014-1v3l-1 2-1-2v-1a3 3 0 000 6c-1 0-2 4 0 6l2 1h3c3 1 13 0 13-2l-2-2h-1l-1 2-4 1c-2 0-2 0-1-1 2-2 2-7 0-7v-1c3-2 2-5-1-6l-2-1v-2h-3c0-2-2-3-2 0m30 9v8l-1-1-1-1-1 3c0 3 2 4 3 2 0-2 0-2 1 0l2 2c2-1 1 0-1 2-2 3-1 3 3 3 3-1 4-3 2-3v-2l-1-3h1l3-1-2-2h-3v-2c2-2 2-4 1-6l-2-3c0-2 0-3-2-3-1 0-2 0-2 7m845-3l-1 1a3 3 0 00-5 2c-2 1-2 6 0 7 1 1 1 6-1 7-3 2 0 3 4 2h3v17c0 25 0 27 1 3 0-21 1-21 3-21h2l2-2c0-2-1-3-2-1-1 1-2 2-4 1-2 0-2 0-1-1 2-2 2-2 0-4l-1-2 1-2 2-2v-1a7 7 0 01-3-4m19 1l-3 1h-2c-1 1 0 1 3 1s2 3-1 4-4 4-2 7c1 0 2 2 1 3 0 2 1 2 5 1 1-1 2 0 2 1 1 2 1 2 2 1v-3l4-1 4 1h1c2-1 1-8 0-9h-4l2 1 1 1c0 2-2 1-4-1l-4-3-2-1 4-1 2-1-1-1c-1 1-3 0-4-1-3-2-3-2-4 0m38 3v6c0 4 0 5-2 7l-2 2v-3l-2-5v4c1 9 3 11 4 6 1-2 1 0 1 4l1 7 1-8c0-9 0-10 4-11 2-1 3-3 1-5l-2 1c-1 3-2 2-2-1s-2-7-2-4m9 1l-2 2h3c3-1 1 2-2 5-3 4-3 5 2 5h3l-3 1-2 1c0 2 12 3 16 2 2 0 1-2-1-3-2 0-2-1-2-5 0-3-1-4-2-4-5 0-5 0-5-2 0-3-1-3-5-2m-806 1l-5 5 2-1c2-1 2-1 2 2l-4 2-2 2c0 2 0 2 3 1 2 0 3-2 3-3l3-2v-1l-1-3 1-3-2 1M32 209c0 4 2 7 6 7l3-1 1-5c0-2-4-5-6-3-1 0-1 1 1 1 3 1 3 3 0 3l-3-1-1-4-1 3m426-1v2c1 0 2 3 1 5 0 3 0 4 3 3l2-1-2-1 1-2c1-4 1-6-2-6h-3m-59 3h-16l-34 3h35l-1 6v13a20 20 0 002 11h1l1-2c-2-3-3-8-2-10v-17l2-1h1l1 1 1-1c-1-3 9-2 12 0l3 3 2 7c3 6 3 6 1 7s-2 1-1-1c0-4-1-4-3 0-1 4-1 4 3 3 2-1 2-1 2 2s0 4 3 1v-3c-2 0-2-1-1-2v-5l-1-3-2-6c-3-4-3-4 2-3 2 0 3 0 3-2s-13-3-14-1m-333 1c-3 0-2 2 0 2 3 0 2 2-1 2l-6 1c-5 1 1 2 6 1l8-1 4-1-4-1-3-1c1-3 0-3-4-2m241 6c0 2-1 2-4 2h-6c-2 1-1 1 4 1h7v5l-1 5h-17l1-2v-5c-1-1-1-2 1-2h-2c-4 0-4 0-3 2h2l-1 2-1 3v3h-9l-7 1v-3l1-3 12-3-2-1c-6 2-34 4-36 3l-13-2-15-2c-4 0-4 0-3 1l2 1h5l12 2 11 1h21v3c-1 4-1 4 1 5l2 1a1 1 0 002 0c0-2 1-2 6-2a1291 1291 0 0019-1h8c7 1 9 0 9-2l-1-6-1-4 7-1 9-2c1-1 1-1-1-1-10 2-17 2-17 0-1-1-1-1-2 1m-275 5l-1 3v1a4 4 0 010 4l-1-2-1-1c0-4-2-2-3 2l1 4 1 2h4v1c-2 1-1 3 1 3l1-1 1-1v8l-2 2-3 3c-1 2-2 3-1 4 0 2 0 3-2 3l-2 2h2c2 0 2 0 0 2-3 3-2 4 2 3l3-3 4-7a20 20 0 001 5h3c2-2 3-3 1-3l-2-1 2-1h3l-3-2c-3-3-4-3-7 1-3 3-3 3-3 1s1-3 4-5c4-2 5-3 4-4v-5c1-3 1-4-1-4-3 0-5-2-4-6v-4l1 4c0 4 1 5 3 5s2 0 1-1c-2-1-2-2-1-2v-2c-1-1 1-2 5-2 2 0 4-2 2-3l-6-1c-4 0-5 0-4-2l-1-2-2 2m30-1l-2 1-2 1 2 1c2 1 2 1 1 2-7 2-8 6-2 9 4 1 4 1 2 2l-3 2 2 1 7-1-3 2 3 5-3 2c-4 1-5 2-4 3v5c-2 6-1 7 4 3l3-4 3 3 6 3c5 0 4-3-2-4-5-2-5-2-4-8l1-8c0-3 0-5 1-4 2 1 1-1-3-6-1-1-1-1 2-1s3 0 2-1c-2-1-3-2-5-1l-3-1 3-1c2 0 2 0-1-1s-3-1 1-2l2-1-8-1m898 1h-8v18h18v-7l-1-5c0 1-1 2-2 1l-1-1 5-5-11-1m-766 1l-2 2 1 1 1 3c0 4 3 7 3 4l1-2v2l1 1h1c0 1-1 2-2 1-6-1-10-1-9 1h2c2 0 5 4 3 5-1 1 0 5 2 5l1 1h2l1 1-1 3-1-1h-1l2 4 2 5-2 2c-2 0-3 1-1 3v1c0 2 2 3 5 3 2 0 3 0 2-2v-3l-1-2c-1 0-2-1-2-3l1-3 1 2c0 3 2 3 2 0 1-2 0-2-1-3-2 0-3-2-1-2l1-2c0-2 0-2-1-1l-1 2 1-4v-3c-1-3-1-4 1-3a1 1 0 100-2v-2c0-2 5-2 6 0l1-2c1-2 0-5-1-2l-4 1c-4 0-6-3-4-8l1-3-1 1h-1c-1-1-2-2-3-1h-5m23 5v28l1 4 1-14-1-17c0-5-1-5-1-1m178-1l-2 1c-2 0-3 1-1 3l1 2c-1 2 0 5 2 4v7c1 2 1 3-1 2l-5 1h-5c-1-1-2 0-2 3 0 2 0 3 1 2 0-3 4-3 10-3 5 1 7-1 4-4l-1-3 1-4c0-2 0-2 1 0 1 1 1 1 1-1 0-1 1-2 4-1l3-1-2-1-2-1-1-2-2-2-1-2v2l-1 2-1-4v-1l-1 1m53 1c2 0 2 0 1 2v1l1 2c0 2 0 2 1 1h1v22l-8 1c-15-2-18-1-14 2 3 3 30 1 27-2l1-2c2-2 1-4-1-1l-2 3v1l-1-8 2-9 1-2-1-3v-1a4 4 0 00-4-7h-1l-3-1c-2 0-2 0 0 1m-308 5c-7 2-11 8-13 21 0 3-1 4-2 4-4-1-8 1-8 3s0 2-1 1c-3-3-19 14-21 20l-1 6v4c2 4 4 18 3 20-2 6 0 13 7 24 3 3 4 7 4 8 0 2 2 3 4 3l3 3 1 2h3l1 2 2 2c3 0 4 18 2 19l-2 9-1 9-4 30a56 56 0 01-4 21v2c0 2 0 2 1 1l2-4 1-2v30l1 34v3h10l13-1h3l-3-1h-12l-10 1v-34a236 236 0 00-1-40 129 129 0 001-12l1-7 1-11 1-5 1-3 1-2a1 1 0 111-1l1 4v11l-1 5-1 6v3l1 9c0 9 0 9 8 11 8 4 15 4 17 2 0-2 1-2 1-1l1 1 6 1v12l1-6 1-6 5-1 11-1c6-1 11-2 11-4v-36l-1-24 3-7c3-7 4-10 2-7h-1l1-1c3-2-1-60-4-64l-1-5-1-5-3-7a11 11 0 00-6-7l-2-1c-9-3-13-5-13-6v-5l-2-3-1-1-1-3v-3l-1-1h1c2 2 3 1 3-1l3-3c1 0 2-3 0-3l-1-3-4-6c-5-4-9-5-18-3m4 2l-2 1-2 2v1h2l1 1h2c1-1 3-2 5-1h4v2l1 2 3-1-1-2-1-2-2-1c-2-2-9-3-10-2m256 12v12l-1 3v3l-1 2h-3v3l1 1v1a6 6 0 0010-4v-3l1-13 1-5-1 3c-2 4-4 5-6 1a3 3 0 011-4h-2m508 39v38l1-76-1 38M69 266l-2 2c0 3 0 4-2 5a2 2 0 100 4c1-1 2 0 2 3l1 5 1 4 1 3c1 0 2-5 1-6v-3l-1-4v-2l1-4 1-5 4-1c-1-1-4-2-7-1m366 1v121l-1 119h3c2 0 2 0 1-1-2-1-2-11-2-121V265l-1 2m-399 0l-1 3-2 5v-4c1-1 0-1-1-2-4-2-4-1-5 3-1 7 2 14 4 9 0-2 6-6 7-5l-1 1v3c1 1 0 1-1 1-2 0-3 2-1 2 1 0 2 1 1 2l1 1 2-2c0-2 2-3 6 0h3l-6-4c-3 0-3 0-1-1 1-1 2-1 1-3 0-3 0-3 2-2 2 0 2 0 1-1l-3-2-2-1a2 2 0 00-4-3m786 2h-4c-2 1-3 1-2 3l-1 2v26c1 14 1 15 3 15l2 1 3 1 2-1-1-8c0-4 0-7 1-6l1 6a10 10 0 001 8c1 1 1 2 3 2s2-1 2-3v-10l-1-5c-1 3-2-3-2-17v-14h-7m135 11v2l-1 6 1 6 6-1c8 0 7 0 7-6l1-6c2-2-1-2-8-3-5 0-6 1-6 2m-66 2a68 68 0 00-8 19l3 2c2 1 3 1 3-3 0-2 0-2 1-1 1 2 2 0 1-4l1-3 1 3c0 2 0 5-2 8-2 4-2 5 0 5 1 0 1 1-1 5-1 4-2 4-4-1l-4-4-1-2-2-2c-1-1-2-2-1-3h-4c-3 0-6 2-6 5 0 6-4 2-4-5-1-6-1-6-6-6l-6-1c-8-2-8-2-7 0l-1 2-1 3 1 3v13l3 3c0 3 3 6 4 5l4 1c5 2 6 1 4-3l-1-3-3-2-5-6c0-2-1-3-2-3l-1-2 8 8c2 2 3 3 4 2 2 0 2 0 1 1 0 2 2 3 7 1h2l-2 2h-4c-3 2-1 6 2 5l3 1-4 1h-3l3 2 4 3h3l5-1c2 0 2 0 1-1h-5c2-2 2-2 0-2s-4-8-2-9l-1-2c-2-2-2-2 0-3l2-1 1 1c-1 3 0 4 3 5l3 1 5 3 4 3c0 3 4 1 5-2v-3l1 2-1 4a14 14 0 000 15c1 4 4-3 5-10l1-6-2-5c-4 0-4-2-2-6 3-4 4-15 2-15l-1-2c1-1 0-6-2-14 0-3-1-3-2-1m-854 8l-1 5c0 2 0 2-1 1-2-3-3-2-2 1 0 3 3 4 5 1h2c1 0 1 1-1 2l-2 2h2l2 1-2 1a1 1 0 100 2l2 2 1 1c2 0 3-4 2-5v-3c2-3 0-5-3-5-2 0-2 0 0-3 3-4 3-5-1-5-2-1-2 0-3 2m19 1c-3 3-3 4 1 2h1c-5 4-5 13 1 12h1c0 1 0 2 2 2l1-2v-3c1-1 2-3 1-4 0-1 1-1 5 1 2 1 2 1 0 1-1-1-2 0-3 1l-1 2-1 2c0 2 1 1 3-1 1-2 2-2 2 0l-1 3c-2 2 0 3 2 1s4 9 2 14c-1 5-1 6 1 4l1-11 2-11 1-6v-6h-3l-7 1c-6 2-6 2-5 0 2-2 2-3 1-3l-2-1c0-3-1-2-5 2m684-2l-2 8-1 5h-4a3 3 0 01-5-2v5l1-1 4-1c5 1 5 4 1 7-6 5-2 9 6 4l5-2c2 1-8 6-13 7h-3l-5-2-4-1h4c5 2 7-1 4-6v-2l-1-2c-2-3-2-11 0-10v-3c0-3-1-4-2-4-2-1-2 0-1 3l1 4c-1 2-1 2-1 0 0-3-2-3-2 1l1 2 1 1-2 1-3 3c0 2-1 3-2 3l-1 2-1 1h-1l3 1-1 4v4l-2 1c-4 0-3 5 1 15l3 9c0 2 0 2 1 1 2-2 2-2 1 3 0 4 0 5 1 4l1-4 1-3 3-2c1-2 2-2 4-1l4 1 3 1h2l4-2c1 0 2-1 2-5l2-7 1-8 1-7c2-3 3-2 2 0v4c0-3 0-4 2-1v6c2-1 1 2-1 3-2 2-2 5-2 9l-1 1v1l1 3v5c1 1 4-2 3-4l1-2v-3l1-4 1 2v6l2-3 1-3 1-4c2-2 2-3 0-8l-2-6c1-1-3-7-4-7l-1 1-3 1h-3l2-1c3-1 4-4 2-5l-2-2v-3l-1-3-1-1v-6l-2 1c-3 2-3 5-1 5v1c-3 2-3 1-2-5l1-6-3 2m-711 4c0 1-2 2-3 1-2 0-2 0-1 3v4c0 2 2 1 3-2 1-2 2-2 2-1l1 3 1-3v-5l-1-2-2 2m917 2v113c1 0 1 2 2-59l-1-55-1 1M34 311v4l-1 2v1c-1 0-1 1 1 1v1l-1 2-1 1c-1 0-1 2 1 3v2l-1 2-3 2-2 1h15c3-2 2-3-1-3h-2v-5l-2-2 1-2 1-2h1l1-1c-1-1 0-2 1-2s0-3-3-5c-2-2-3-2-5 0m519 25c0 26-1 27-2 28-2 1-3 2-4 1-2 0-4 3-4 6l5 4c5 2 5 2 5 6l1 4v-4c0-4 0-4 3-5 11-2 12-10 2-12-5 0-5 1-4-27l-1-26-1 25M64 318c-1 0-3 1-4 4s-3 5-4 5c-1 1-1 1 0 0l1-3v-1c3-1 0-3-3-3h-3v7l1 8c1 2 4-2 4-4l1-2h1l1 2 1-3 3-1c2-1 2-1 1 1l-1 1a2 2 0 011 3l-2 1 2 1 1 1a1 1 0 102 0l2-2 2-1-2-1c-3 0-3-2-1-4 2-1 3-4 0-5v-2c0-2-1-3-4-2m752 3l1 6 1 6 1 11 2 7c0 2 0 2 1 1v-8l-1-11c-1-12-2-16-4-16l-1 4m-101 7l1 4 1 3 1-1v-1c1-1 3 3 3 6v3l2-3v-3l2 2 2 2c0-2-2-5-6-8l-4-4-1-2-1 2m97 2c-1 5-2 6-6 3-4-1-4-1-8 2l-3 3 4-1c5 0 5 0 6 2 0 2 1 2 3 2h2l-1 1c-2 0-3 4-2 6v2c-18 6-27 8-24 4l1-4 1-4c1-1 0-2-2-2l-2 1c0 1-3 4-6 4-2 0-4 3-3 5l-1 1-1-2c1-3-1-5-3-3l-1 24c1 1 2-4 1-5v-2l2-3 1-1 1 2c-2 6 20 5 36-2 4-1 7-6 5-8 0-1-14 5-16 7-5 4-14 6-17 3l-5-1c-3-1-5-4-6-8v-2l2 2 2 3c1 2 20 3 20 1l3-1c5 0 17-7 18-11 2-5 2-7 0-2-2 4-4 5-4 2s5-7 6-6v-6c-1-10-2-11-3-6m-32 1a3 3 0 105 0c1-4 0-4-2-4-3 0-3 0-3 4m67-1c0 2 3 4 6 4l5 1c3 1 4 0 3-3 0-2 0-2 1-1 2 2 4 3 4 1s-6-3-12-3l-7 1m-790 9c-2 2-2 4-2 7s0 4-2 5l-3 3c0 1 1 1 4-1h1c0 2 2 4 3 4v-4c-2-5-1-8 2-10 3-1 3-1 4 1h8l3 1h-3l-3 1h-4l-4 2 3 1 6-1c1-2 4-1 3 1 0 1-1 2-4 2l-6 2 12-1c4 0 6-2 3-2-2 0-2-6 0-7l-3-1c-3 1-3 1-1-1l2-3h-1c-1 2-3 3-3 1 1-2-8-2-10 0-2 1-2 1-2-1s-1-2-3 1m393-1l-4 1-2 1 1 1 1 2-2-1c-1-2-2-2-4-1s-3 4 0 4l1 1 2 1 2 1h3l1 1 5 1 5-1 2-3c5-5-4-12-11-8m-423 2l-3 1c-2-1-2 2 0 5v4c-1 3-1 3 2 3 2 0 2-1 2-3-2-5-2-6 1-8l3-2h-5m6 3c-1 2-1 3 1 3s2 1 2 2v2c7 0 8 0 8-3-1-2-1-3-5-3s-5 0-4-2l-1-1-1 2m783 4l-1 7-2 7-1 6v5l2 7 3 5v-4l1-1c-2-1-2-4-1-4l1-2-1-2v-24l-1-2v2M33 361c-1 9-1 9 3 7 2-1 2-1 2 1-1 2 1 6 3 4l3-1 2-1-1-1v-1c2-1 0-3-2-2l-2 2c-1 2-1 2-1 0l1-3c2-2 1-2-3-1h-3l2-1c3-1 4-3 2-3s-2 0-1-2 0-4-2-4l-1-1-1-1-1 8m320-6c-4 2-5 4-3 4l1-1 1-1-1 3-1 2 1-1a1 1 0 013 0l-1 1h-1a7 7 0 0010-1h-3l2-2c3 0 4-1 2-3-3-3-5-3-10-1m476 7l-2 2h-3v-1l-1 1c1 1 11 7 12 6 2-2 2-6 0-6l-2 2-1 2-1-3-1-4-1 1m-772 6c0 2 0 3 2 4 2 0 2 1 0 4-1 1-2 3-1 4l-1 2-1 1 2 1 2 1 1 3c1 0 2-1 2-3l1-3v3l1 3 1-4 2-4c3-1 4 0 1 2v7c0 2 0 2 3 1l3-2-1-2c1-1 0-1-1-1l1-2v-4c2-2 2-2 0-3h-3a2 2 0 01-4 2h-3l-3-1 3-3 3-4 2-1c1 0 2 0 2-2v-3l-5 1c-7 0-6 0-5 3l1 3c-1 0-2-1-2-3-2-5-3-5-3 0m741 0c-8 3-9 3-19 3h-10v2c-1 2-1 2 11 2 20-2 31-4 31-8 0-2-2-2-13 1m22 0l-1 16v5l4 1 7 1h1c-1 1-1 1 1 2 4 1 4 1 4-10l1-10-7-3-7-3c-2-2-3-1-3 1m19-1v17c0 6 0 7 1 4v-22l-1 1m-816 3c-3 0-3 1-3 4 0 6 1 7 4 7s4 2 2 3c-1 1 0 5 2 5l1-2c0-2 3-3 7-3l-1 1c-2 1-3 2-3 4s0 2-5 2c-7-1-9 0-9 7-1 4 0 5 1 4v1l-1 2c6 2 10 0 5-3v-1c1-1 2 0 2 1l4 2 3 1h-3c-3 0-4 3-2 3l1-1 3-1c2 0 3 1 3 2l2 1h3c0-4 0-5 1-4v-3a1 1 0 100-2c-1 0-2-1-1-2 0-2 0-2-1-1h-4l-1 1v-1l1-4 2-4v1c-2 1-1 5 2 4 2 0 2 0 1-5v-6c-2-1-2-2 0-3v-3l1-1-4-1-4-1-2-3c-1-2-2-2-7-1m593 4l-1 6v10l1-3 1-2c1 2 6-7 6-11s-2-3-2 2l-3 4v-10l-2 4m75 0v6l7-4c0-1-2-1-4 1h-2a6 6 0 0110-1v-2c-3-3-10-3-11 0m-44 1c-2 3-1 6 1 6l4 1c0 1 2 2 3 1v-1l1-2 1-2-1-4c0-2-8-1-9 1m158-1c0 2 1 4 3 4s4 6 4 14c-1 7 0 9 2 4 1-7-1-18-4-21-1-2-5-3-5-1m-8 1c-3 1-3 1-4 9 0 9 0 10 3 9l7 2c6 2 6 2 4-6l-3-11c-1-4-2-4-7-3m-9 3l2 17c0 11 1 5 2-7v-11h-3c-1 0-2 0-1 1m-19 0c-3 0-6 5-6 9l-1 5c-1 2-1 2 1 2l6-2h4v-7l1-7v2l2 13c1 2 2 1 2-2v-13l-3-1-6 1m-73 8c-3 2-3 3 0 3h1c0 2-9 2-11 0-2-1-4 2-4 5v3l1-3c1-2 2-2 2-1h4c2-1 3-1 3 1h3l2 1h2l2-3-1-2-1-1c0-1 1-2 2-1h4l-6-4-3 2m-633 6c-2 2-2 2-1 7l2 4 2 2c0 2 0 2 3 2h3l-1 5c0 6-5 18-8 22l-2 3c3 2 12-16 13-25 0-6-1-7-5-7-2 1-2-1 0-9 0-3 0-3-2-3-1 0-2 0-1-1v-2l-3 2m-7 0c-3 1-4 4-3 10 0 5 1 6 4 3 1-1 1-1 1 1l1 2 1-7 1-9h-5m784 2v12l-1-4c-1-3-1-3-1 1a5 5 0 002 5h1c2 0 2-2 2-8-1-9-1-11-3-6m-223 1l-1 2-1 2-2 7c-3 9-2 26 1 21l1-1c0 2 3-2 3-4l-3-1c-4 0-4-1 0-5l3-3v-10l-1-8m167 0l-1 3c-1 1 0 7 2 8 2 0 4-8 2-11-1-3-3-3-3 0m-20 0l-2 1 2 3c6 8 15 7 12-2-1-3-7-4-12-2m30 2v1l-1 4v2l5-2 8-2 3-1-4-2h-11m-216 5c-1 1-2 2-3 1l-2 2c-1 3 1 7 4 6l2 1 1-4c1-7 1-7-2-6m184 2l2 2c3 1 2 3-1 6l-3 5h1l2-2 2-2a2 2 0 014 0 1 1 0 101 2l3 3 1 1c0-3-7-13-10-15h-2M27 414a3 3 0 001 2c-4-1-2 3 5 9 3 3 5 5 4 6l2 1h3l14 13-1-2-19-18c-7-6-7-7-3-7 5-2 4-5-1-5l-5 1m51 49c0 38 1 46 2 46l2-1-1-1-1-46-1-45-1 47m474-29l-1 18 1 14v-32m281 3c-4 2-1 7 3 7 2 0 2 1 1 5a10 10 0 006 18h8l3-1c6 0 10-11 6-16-2-3-9-7-13-7l-4-2c0-4-5-6-10-4m-220 4c-5 2-6 3-6 7l1 5c1 1 7-6 7-8a6 6 0 012-5l-4 1m380 1l-5 1-2 2-2 3c-5 5-1 15 8 17 8 1 7 2 8-12v-12h-3l-4 1m-106 1l-1 3c0 1-1 5-3 6l-1 2-1 2c-1 2-1 5 2 5v1l-1 1c-1-1-2 0-2 1l4 3c3 0 4 1 4 4 2 3 4 3 4-1l8-2 1-1c0-2 3-3 4-1l2 1-2-3c-2-2-2-4 0-3l2-1c1-2 0-7-1-7l-1-2-2-3c-2 0-3-2-3-3 0-2-3-4-4-2h-1l-1-1-2 1h-2l-1-1-2 1m-865 3c-1 5-1 6 1 6l1 1-1 1h-1a4 4 0 010 4l-1 1c1 3 6 2 6 0l1-2v2c0 3 7 3 8 0 1-2 0-3-2-3s-2 0-1 1l2 2h-3c-1 2-1 1-1-3l3-1c3 0 3 0 3-3 0-4 0-4-3-4-2 0-2 0-1-1l1-1H22m598 3l-2 2-4 3c-5 2-7 2-7 1l-1-1c-3 0-2 5 0 12 2 5 2 5 3 3 1-1 2-2 1-3l1-1 2-2 2-2v-3c-1-3 1-3 8-2 2 0 1 2-1 2l-1 1c1 1 7-2 9-4s1-3-4-2c-5 0-5 0-1-3 2-1 3-1 2-2l-2 1h-5m191 3c-2 1-3 6-1 8 2 1 18 2 20 1 5-4 2-9-4-9l-5-1c0-2-7-1-10 1m-23 16l-1 15 1 4 1-9c0-5 0-8 1-7s6 3 11 3c4 0 7-2 5-3l1-1v-7c-3-2-12-1-15 2l-3 3v-10c-1-1-1 2-1 10m-276 12c-1 27 1 25-17 25l-13 1h31l3-1c1 0 2 0 1-1l-2-1c-2 1-2 0-2-22v-22l-1 21m242-17l-6 1c-3 0-9 3-9 4 0 3 4 4 10 4l7-1v-6c-1 0-2-1-1-2v-2l-1 2m-116 6c1 5 3 6 5 6l2 1v-1c-1-5-5-11-7-11v5m294-3h-4l-1 1-1 1c-6 0-8 10-3 15 3 3 10 4 11 2h4c3 0 4-1 2-4-1-2-1-2 2-2l4 1v-8c0-4 0-6-1-5 0 4 0 4-4 1-3-2-6-3-9-2m-313 2c-1 1-2 3-1 6v4h5c4 0 5-1 4-2l-1-3-2-2-2-3c0-2-1-3-3 0m-197 2l-2 2-2 3c-1 1-1 2 1 3 2 2 3 1 2-1l1-3 1-1 1-2 1 1c-1 4 0 4 2 2s2-3 1-3l-2-2c-1-1-2-1-4 1m170 2v21l1-8 1-11c1-3 0-6-1-6l-1 4m19-2c-1 2-2 3-1 5v10l1 8 3-1 1-1-2-2-1-2 1-4h1l1-3v-4c1 1 1 0 1-2l-1-2v-1c1-3-2-3-4-1m258 1c-10 6-5 13 8 13 8 0 10-7 5-11v-2a12 12 0 00-13 0m76 14l-1 6-1 4v3l-1 6v3h-17l7 1 10 2c2 2 2 2 3 0l20-1h19l-13-1a444 444 0 01-24-1c-2 0-2 0-2-12v-10m-907 8v8c0 6 0 6-2 6l-3 1 4 1h3v-8c0-8-1-11-2-8m708 8v6h3l2-1 2-1c1-1-2-3-3-3-2 0-2-1-2-3 0-5-2-3-2 2M0 506c0 2 2 2 16 2h17l-14-1-16-1H0m216 0h29l-14-1-15 1"
      tabindex="-1" itemprop="light" style="fill-opacity: 0.685; fill-rule: evenodd;"></path>
    </symbol>
    <symbol id="-posters-1650603990496-regular">
      <path d="M415 17c-2 2-2 3-1 4v2c-2 2-1 3 1 2 2 0 2 0 1 4 0 5 1 5 2 0 1-2 1-4-1-5v-8c2-2 2-3 1-3l-3 4m92-2c-1 0-2 1-2 4a2 2 0 01-2 3c0 1 5 3 7 2 2-2 1-5-1-6-3-1-2-2 1-2l3-1h-6m-61 5c0 2 0 4 1 3l1-2v3c-2 2-2 3 0 3v2c-2 1-2 1-1 2l1 3 1 3 1-2 1-2c2 0 2-4 1-5l-1-4c0-2 0-3-2-4-2 0-2-1-1-2v-3c-2 0-2 1-2 5m31-3l2 1v1l-2 1c1 1 0 3-1 4-3 4-3 6 0 3 2-2 2-2 3 0h1l1-1a4 4 0 003-2c-2 2-6 1-4-1 3-2 2-7-1-7l-2 1m-285 2l4 1h4l-4 1c-4 1-5 3-1 3l2 1c0 2-2 4-4 4l-2 2 1 2 1 1 1 1c2 1 2 1-1 1-2 0-3 0-3 2l2 1c2-1 2-1 0 1-1 1-3 2-4 1l-1 1c1 2 7 1 10 0h2c2 2 3 1 3-1s0-2-3-1c-2 0-2 0-1-1v-1c-2 0-2 0-1-1h2l1-1-3-3c-2 0-2-1-1-1l2-2 2-5 1-5c-1-2-8-3-9-1m26 1c3 2 2 3 0 2-4-3-6-2-6 1 0 4 1 5 4 2h1c-1 2 0 5 1 5v-2c0-2 0-2 1-1 2 1 2 1 3-3 0-3-1-5-4-5v1m6-1l1 3v4l-1-2-2 11c-1 3-2 4-2 2l-1-2v3l-1 2-2-2c-1-4-4-4-4 0 0 3 1 3 2 2l2 1-3 1v4c1 2 3 3 3 1l2-3 2-2 1 2c0 1 0 3-2 4v1c2-1 3 0 4 1l2 3v-3l-2-4c-2-1-2-6-1-6 3 0 4-3 3-4-2-1-1-9 1-9s1-7 0-7l-2-1m233 1l-2 2h2v2c-1 7-1 8 1 7 2 0 2 1 2 4l1 5v-5l1-8c1-1 1-2-1-2l-1 2-1 2c-1 0-1-2 1-8 0-2-1-3-3-1m-292 2c-2 0-2 2 1 2 2 0 2 0 1 3-1 5 0 8 2 3 0-2 0-2 1-1h3c2-2 4-2 4 0l1 1c2 0 1-2-1-4h-3c-3 2-5 1-4-2 0-3-1-4-5-2m233 1c-3 4-5 10-5 11l2-1 1-2 1 2a3 3 0 106 2l-2-1h-2l3-1c2 0 2 0 2-3 0-2 0-3-1-2h-5l1-3c1-4 1-4-1-2m142 1c0 4-2 4-2 1-1-3-3-4-3-2l-2 2c-2 1-2 1 0 1 3 0 3 0 2 1l-3 1c-2 0-2 1-2 3l1 4v2c-2 1 1 1 5-1 3 0 3 3 0 5-2 2-1 2 2 1 1-1 2-2 1-3l1-3v-1l1-8v-5c-1-1-1 0-1 2m90 3l-1 3-1-2-1-2-1 3-2 2-1 2 1 7 1 6V32h3c1 0 2 0 1 1-2 0-3 6-1 6l1-1h2c2 1 5 0 4-2l-4-1h-3l3-1h4l2-1a2 2 0 00-2-2c2 0 3 1 3 4 1 2 1 2 1-1 0-4 0-4-4-4-3 0-3 0-1-1 4 0 4-2 1-2-2 0-3-1-3-2l-1-2-1 4m-250 1c0 3 2 5 4 5 1 0 2 1 2 3l1 2-1-11c-2-2-5-1-6 1m283-1c-2 1-2 1 0 0 4 0 2 2-2 4h6l1 4v10l1 4 1-11-1-8h2l3-1-3-1c-2 1-3 1-2-1h-6m-83 1l-2 1a231 231 0 003 1l-1 3-2 4h3l3-1h4c2-1 2-1 0-2h-4c-2 3-2 0-1-3 3-4 2-5-3-3m-340 1l-1 4c-1 2 0 3 2 1l2-1-1 2v2c2 0 1 3-1 3l-2 1a7 7 0 008-1h-1l-1-2v-4c2 0 1-2-1-2l-2-2-1-2-1 1m322 0l-1 1-1 1 9 11-3-5-2-4a3 3 0 002-4l-2-1-2 1m44 1c1 2-2 7-3 7s-1-1 1-4l-1 1c-3 3-4 4-1 5 2 0 5-3 6-7 0-2 1-3 2-3 2 0 2 3 0 5-2 3-4 7-4 12-1 5 0 6 3 4 2-1 2-7-1-7-2 0-1-3 1-3 3-2 6-7 4-10s-7-3-7 0m-483 2l-2 1-2-1-2-1 1 4c2 3 2 5-1 5l-1 2 1 6c0 5 0 5 1 4 1-2 2-2 6-1 6 1 6 1 6-1s0-2-1-1h-3l-4-1c-3 0-3 0-3-3l1-4 1 3 1 2 1-2h1l1-1-1-1c-2 0-3-2-1-2v-1l-1-1c2 0 3-8 1-8v2m13 4c0 4 0 5 3 3 2-1 2-1 2 1l-2 2-1 2h4c2-1 5-2 7-1l3-1-1-1-1-2c0-1 0-2-2-2s-2 0 0 1c2 2 2 2-2 2-2 1-2 0-2-3v-4c-8-1-8-1-8 3m676-1v9l1-3c0-2 0-2 1 0 0 1 1 2 2 1 2 0 2 0-1 2l-9 3h13l3-1-1-1c-2 0-2-2-1-7 1-3 0-5-2-5v1c2 0 1 3-1 3v2c0 1-4-2-4-5-1-2-1-2-1 1m-123 5c-1 7-1 8 2 8 2 0 3-1 3-3l-1-1-1-1 1-1 1-2c0-2 0-2-1-1 0 3-3 2-3-1s-1-2-1 2m60-4l2 2c1 1 2 4 0 4l-2-2c-1-2-1-2-2 1-2 3-1 4 1 2h1l-1 3-1 1h3a1 1 0 102-1l1-1h3l-1-1-1-1c1-1-3-8-4-8l-1 1M90 37v4l2 5 1 5 1-5c-1-4-1-5 1-6v-2c-3-2-3-2-5-1m193 1c0 1-1 2-3 2l-2 3-2 2-2 3-5 15-1 3c1 1 5-2 4-3-1-3 5-6 9-4h1l-1-1c-2-1 4-8 5-8 5 1 6 2 6 4-1 2-1 2 1 1 1-1 1-1 1 1l-1 4h-1l-1-2v-1l-1 3-2 3c-2 1-2 1 2 1l7 1v-1c-1-2-1-7 1-8v-1c-1 0-2 0-1-1l3-1c4 0 2-2-3-3-3 0-4 0-3 1v1l-4-2-4-2c-2 1-2 0-1-2 2-4 7-4 11-1s5 3 5-1c0-2-1-3-2-3l-3-3c1-2-12-3-13 0m211 3l1 2-5 3c-2 2-5 3-6 2-2 0-2 0 0 3 4 3 5 4 7 1 2-2 2-4 1-4l2-2c3-2 4-5 1-6-2-1-2-1-1 1m58 3c-2 2-2 3-1 4l1 5 1 4v-2l2-1 2-1 2-4v-1l-2-1h2c2 0 2 0 2-2a3 3 0 00-4-2c3 0 2 2 0 2s-2 1-2 3c0 4-2 5-2 1-1-2 0-4 1-5l1-4-3 4m79-3v2c-1 1-2 0-2-1l-1-1-1 2c0 2 1 2 3 2l2 1-3 1-1 1 2 1 5-1c4-1 5-4 2-6-1-2-5-3-6-1m-69 5c0 3 0 3 3 3 2 0 2 0 2 3 0 6 2 3 2-3l1-6h-4c-4 0-4 1-4 3m-367 0c0 2-1 2-3 2-3-1-3-1-3 2s1 4 2 1 4-2 3 1l1 3v2c0 2 2 4 3 2h1c0 2 0 2 1 1h3l1-1c1-1 0-1-1-1-2 0-2 0-1-2 2-2 2-2-2-3-4 0-5 0-4-2l1-2v2h2c2-2 2-3-1-4l-2-1h-1m246 1c-2 2-2 3 1 2l1 2-1 3c-1-1-1 0-1 2s0 2 1 1c1-2 1-2 1 0l1 3 1-3 2-2 1-1h-1c-2 0-2-1-2-3s0-3 2-3l2-1h-8m-210 1c-3 2-3 2-2 6l-1 4v2c0 1 1 1 2-1h1l1 3v-3c-1-4 2-11 3-8 2 3 7 1 7-2l-1-1-3 2-2-1c0-2-1-2-5-1m297 1v1c-2 1-1 4 1 4v2c-2 2 0 3 2 1l3-1c1 0 2-1 1-2l-2-1v-1l-1-1-2-1-1-2-1 1m10 1v3c0 3-2 6-4 5l-2 1h6c2-2 1 2-2 6v3l1-1c0-2 2-1 4 1l9 6-1-2c-8-4-10-8-9-12l1-4c-2 1-2 1-1-2v-4l-1-2-1 2m94 2l-4 4-2 1v-1l1-2c-2-2-3-1-3 2 1 5 6 5 7 1s3-5 3-3l1 1 2 1c1 1 0 1-1 1-2 0-4 2-4 3l3-1c3-1 4 0 3 6-1 5-1 6 1 5l1-7 1-5v-1l-2-2-2-1a1 1 0 110-2l1-1c-1-1-2-1-6 1m26 2l-1 4c0 2-1 5-3 5l-2 1h5c1-1 2-2 3-1h2l-2-2c-1-1-1-1 1-2l2-1h3l4-1v-1c-3 0-6-1-6-4 0-4-5-3-6 2m91-3c-2 1-3 1-2 2 2 0 2 1-1 4-2 2-2 3-1 3 2-1 2 0 2 2l1 3 1-1c0-1 1-2 3-2l2 1v1c1 0 2-6 0-8v1c0 2-1 4-4 4l1-1 3-1-3-1c-4 0-4 0-1-3 2-2 3-3 5-3l3-1h-9m161 1c0 2-1 2-5 2a6 6 0 00-6 2h4l5 1c0 2-1 2-3 2l-4 1h4l3 1-3 1-3 1-2 2c-1 1 0 1 2 1s3 0 3-2l3-1h2v-3l3-3v-3l-2-2v-2l-1 2M62 52c0 1-2 12-1 13 1 2 2 0 3-5 0-5 0-5 1-2l1 3v-6l1 2c1 2 2 2 4 2 3 0 4-2 2-2v-2l-1-1-1-1-2-1h-7m621 1l1 3v2l-3 2c-1 1-1 1 1 1 3-1 4 3 2 7-1 1-1 2 1 4l2 2-1-2c0-2 0-4 2-5 1-3 3-4 3-2l1 2v-5c0-2 0-2-3 1l-3 4v-3a4 4 0 014-6l-2-1c-2 0-3-1-3-3 0-3-2-4-2-1m39 0l-2 2c-2-1-1 3 1 5l3 6c1 3 2 4 2 2l-1-4v-9c-1 0-2-1-1-2v-2l-2 2m-211 0c-1 2-5 2-8 0-3-1-5 1-5 4 0 1 0 2 2 2 5 0 5 0 4 3l1 3 1 8-1 6c-1 8-3 11-7 10-3-1-4-1-4 1l-3 2-4 2c0 2 0 2-2 0s-1 21 1 28a34 34 0 008 19l1 1c3 0 6 22 5 31l-3 37c0 8-1 21-3 27l1 5a8 8 0 0010 0l5 1 8-1c12 1 11 2 12-25l1-25 2-5v-3l2-6c0-10 0-10 2-10h1c-2-1-2-5 1-5l2-2-2-1c-2 1-1-8 1-13 1-5 1-10-2-16l-2-5c1-1 0-6-3-19l-3-11-1-3-3-8c-2-6-5-12-7-13l-4-14c1-4-2-7-4-5m-300 3c-2 3-3 5-1 5l1-1c0-2 2-1 2 2 0 2 1 3 6 3l6-1c1-1 1-1-1-1s-3 0-2-2l-1-2-1 2-2 2c-2 1-2 1-2-1l-1-4c-1-1-2-2-1-3 1-2-1-1-3 1m557 2l-2 4c-3 2-3 3 0 3 2 1 2 1-1 3-4 2-2 3 3 1l4-2c2 0 3-2 1-3l-1-1-2-1c-2 0-2 0-1-1v-4l-1 1m-651 2c-1 3-3 4-3 1l-1-2-1 2c1 3 1 3-1 3-3 0-3 2 0 3 1 0 2 1 1 2 0 1 0 2 2 2v1l-2 4 1 4c0 2 5 3 5 0 1-1 0-1-1-1l-2-1 1-1v-3l1-4h1l1 2c3 0 1-4-2-5s-3-1-1-2c2 0 3-3 3-6 0-2-2-1-2 1m444 0c-1 2 0 2 1 2h2l-1 1v2l-1 2-1 1 4 1h3v4l1 5 1-6c0-6 0-6-2-6h-3l1-1c1 0 0-4-2-6-2-1-3-1-3 1m242 1c-1 3 0 9 2 9s2 0 1 3c-1 6 3 9 11 6 2 0 3-4 1-4l-1 1a1 1 0 11-2 1v-3l1-1-3-1h-5l4-1c2 0 3 0 2-1h-3l-2-1 4-1h3l-6-4-2 1 3 1c2 1 2 1-1 1s-4 0-4-2 1-2 6-2l6-1-6-1h-9m130 1l-3 1h6l-2 1-2 1 2 1c3-1 3 0 0 1-2 1-2 1 0 1l6-2c-2 0-2 0 0-1s2-1 0-2c-1 0-2-1-1-2 0-1-1-1-6 1m-764 0l-3 1c-3 1-6 3-4 3s1 2-1 3l-2 1 1 1c1-1 1 0 1 2s0 2 1-1 2-4 6-5l3-1c-2 0-3-2 0-2l1-1-3-1m388 1c0 2-2 3-4 1-1-1-1-1-1 1s2 5 3 3h2c0 1-1 2-3 2l-2 2h3l3 2 1-4-1-7h-1m422 1l-1 8 1 6c1-1 2 0 1 1 0 1-4 3-5 2v-8c-1-8-1-10-5-8l-4 1-4 1 4 1 4-1v6c1 6 0 9-1 6 0-2-3-1-3 1l-1 4 1 2 3 2c2 3 4 2 5-1 0-2 1-3 2-2l2-1c2-4 5-2 4 2 0 3 0 3 1 2l1-4c0-3 0-3 3-2 4 0 4 0 3 4 0 5-2 5-3 1v-3c-1-1-1 0-2 3s-1 4 1 3c1-1 1-1 2 1s3 0 4-5c0-5-1-6-6-6-4 0-5-1-3-3 2-1 2-13 1-14-2-1-5-1-5 1M88 65l-1 2 2 1-1 1c-2 0-2 0-2 2s2 3 2 1h1c0 2 2 1 4-1l1-2-2-2c0-3-2-4-4-2m309-1c-3 1-7 3-9 6-1 2-1 2 1 1l3-3c0-1 7-4 8-3l-3 3-3 5-1 5c0 4 1 7 3 6l2 1c1 3 3 2 2 0 0-2 0-2 1 0 2 2 2 3 1 5-1 1-7-1-7-3l-2-1c-2 0-3-1-3-2-1-2-4 0-4 3 0 2 2 3 2 1 1-2 7 2 9 5 0 2 2 3 2 2l1 1c0 3 2 2 4 0v-5c0-3 0-3 1-2v-2c2 0 2 0 0-3l-1-4 2 2c2 3 4 4 4 1 0-2 1-2 5-2l5-1h2c2 2 8 2 6 0l-2-1c-1 1-1 0-1-1s0-2-1-1l-1-1h-1c-1 2-3 0-3-3l-1-1c-1 0-3-1-3-3-1-1-3-3-5-3l-3-2h-10m380 2c-2 2 0 3 1 1 3-2 2 1-1 4l-3 5 2-2 3-3 3 2c5 3 9 4 10 1 0-2-1-2-2-1-2 2-4 1-8-1-3-2-3-3 0-6l2-2h-3l-4 2m-585 1l1 1a1 1 0 11-1 2l-1 3c0 2 1 2 3 2l-2 3c-3 3-4 5-1 3 1-1 2 0 5 2 4 4 6 4 6 1 0-2 0-2-1-1s-2 1-4-1c-3-2-4-3-1-5s4-6 2-7c-2 0-2-1-1-3 0-2 0-2-1-1h-2c0-1-2-1-2 1m552 1c-3 0-3 0-2 4 1 6 2 9 3 7l2-4c3-2 2-4-2-4l-2-1 2-1 5-1 1 4v5l1-1c0-1 5-3 6-2h2l-6-2c-2 1-2-3 0-4h-10m-622 2c-2 4-1 13 1 13 3-1 4-2 2-3l-2-1 1-1a1 1 0 101-2c-2 0-2 0 0-2v-1l-2-2 1-1h2l-1-1c-2-1-3-1-3 1m42 0l1 1h2l-1 1c-1 1-2 2-1 3 0 5 7 2 7-3 0-3-6-4-8-2m92 1c-2 0-3 1-2 2a17 17 0 014 13v3c0 3 3 9 5 9 2 1 3 17 1 19a7 7 0 000 5l1-2v26c1 2 5 1 5-1-1-2 3-3 4 0 0 1 1 2 3 2l2 1c1 1 10-1 12-3s2-2 5-1h11c3-1 3-1 2-15l-1-6-2-1 1-1c2 0 2 0 2-2s-1-3-2-3l-2-1h-1l-1 1v-1l-1-2-1 2h-1l-1-2c-3 1-5 0-5-2l-2-2c-3-1-5-6-3-7V81c1 2 2 1 1-1l2-5c2-2 2-5-1-4l-1-1-1-1v4c0 4-2 8-3 4 0-1-1-2-3-2s-2 0 0-1c4-1 2-2-5-2l-9-1c-3-2-9-2-13 0m407-1v5h1c1 1 0 1-2 1l-6 2c-1 1-1 1 0 0l2 1h4c4 3 7-1 3-5-2-2-2-2-1-4l1-1-2 1m-366 2l-1 2c-2 1-2 9-1 12a3 3 0 003 3l-1 1v1l1 2 3 2c2 3 2 3 2-10 0-7 1-10 2-11 2-2-1-4-5-4-2 0-3 0-3 2m428 0l2 1c1-4 2 0 2 7-1 11 0 24 1 24V73c0-2-1-2-3-2-3 0-3 0-2 1m-119 1v3c-1 1-1 1 1 1 2-1 7 2 13 9l3 2-6-7c-2-2-4-4-3-5 3-2 3-4 0-4l-4 1h-2l-2-1v1m-469 1v6c0 4 0 4 4 4l6 1c2 2 4 2 5 1l-1-1c-4 0-6-3-4-5l-2 1c-4 2-4 2-4 0v-2l-3-3c0-3-1-3-1-2m639 6v2l2 1-2 1h-2l2 1c3 1 3 2-1 4-2 1-2 1 0 1v1c-1 1-1 1 1 1 1 0 2 1 2 3l1 4v-2l2-1c2-1 3-3 1-4-2 0-1-5 1-6 2-2 2-2-1-5s-4-3-6-1m136 0c3 2 2 5 0 5s-3-2 0-2c2 0-1-2-3-2-3 0 0 6 2 6s3 1 3 3c0 4-1 4-3 1-5-4-7-4-6 1 1 4 5 6 5 3 0-2 0-2 2-1 3 1 3 0 3-7 0-6 0-7-2-7h-1M67 81c-1 1-1 2 1 2l1 1-1 1c-2 0-1 2 1 2v1c-3 0-2 2 0 2 4 0 6-2 4-3v-1c1-1 1-1-1-3-3-3-4-3-5-2m836 0c1 2 0 2-2 2-3 0-4 1-3 7 0 4 2 4 2 0 0-2 1-3 3-4 3-1 4-5 1-6l-1 1m-736 2l1 2v2c-1 2-1 2-3 0l-2-2v3l2 2c2 0 3 1 0 3v1c2-2 3-1 3 3v4l1 2v2c2-1 2-4 1-5v-6c-2 0-1-3 2-6 3-2 3-4 0-4l-4-2c-1-1-1-1-1 1m762 2a32 32 0 000 9c0-1 1-2 4-2h3c-4 2-4 2-2 2s2 0 2 3v4l1-3c0-3 1-4 2-5 2-1 3-2 2-4s-2-1-1 1l-1 2-1-2c0-3-1-3-4-2s-3 1-1 1h4l-4 1c-3 1-3 0-3-2s1-2 3-2c3 0 3 0 2-1h-6m-734 3l-2 1-2 1 2 1c2 0 2 0 1 1-3 2-2 3 1 3 2 0 2 0 1 2-2 3 0 5 4 3 2-2 2-2 4-1 1 1 2-1 0-3h-3c-2 1-3 0-1-2 1-1 1-1-1-2-2 0-3-2-1-2v-1c-1-2-3-2-3-1m358 1c-2 3-3 4 0 4l-1 3c-3 2-2 3 2 1l5-2c1-1 2-3 1-7l-2 2c-2 2-4 1-2-1 2-3 0-2-3 0m-445 0h-1l-1 1-1 2v2l2 6 1 3 1-2 1-3c1 0 1-1-1-2l-1-2c6-4 6-4 5 2-1 4-1 5 2 2l1-2 2 3c3 2 6 3 6 1l-2-2c-2 0-3-2-3-3l-3-1c-1 1-1 0-1-1 0-2 0-2 2-2h1c-1-2-9-3-10-2m459 1l-2 2c-2 0-1 2 1 2v1c-2 2-3 3 0 3h1l-2 1-2-1c0-2-4-3-5-1-1 1 0 2 2 1 1-1 1-1 1 1 1 2 2 2 5 2l3-1c-1-1 0-2 1-2l1-1-1-1c-2 0-2-6-1-7v-1l-2 2m-419 1c-2 1-2 1 1 1l1 3 1 2 1 4c0 2 0 2 2 1l3 1 2 1c1-1-2-5-3-4-2 0-2-1-2-2 1-1 0-2-1-3-1 0-2-3 0-3l1-1c0-1-3-2-6 0m-81 5v2c1 1 2 2 1 3 0 2 0 3 2 3s3-1 2-3v-3l1-2h-6m775 4c-2 0-3 2-3 3l-3 3v1h1l3 3 1 3v-3c-1-2-1-3 1-4l2-1-3 1c-4 2-2-1 2-3 5-3 4-6-1-3m-177 4c-2 1-3 2-2 4 0 2-5 4-7 2l-5 3h2l1 1c-1 2-1 2 1 2 2-1 4 0 6 3 4 4 5 5 2 8v2l3-7c0-3 0-4 3-3l3-1-1-1-2-2 1-3 1 2 1 3 1 2 2 2 2-2 1-1c2 0 4-3 3-4h-1l-1 1 1-3c2-2 3-2 5 4 2 4 2 6 1 8v1c1 1 3-2 4-5l1-4c2-2 2-6 1-6l-3 3-1 3-2-3-2-5c-1-2-7-2-8 1s-4 3-3-1c0-2 0-2-1 0-1 1-1 1-1-2v-3h-2c-1-1-3 0-4 1m242-1l-2 3v1l1 3c0 2 1 3 2 3l1 2-1 2c-2 0 0 2 3 2 3 1 4 0 1-2v-3c1-3 0-4-3-3-2 0-2 0-1-2 0-1 1-2 3-2h4l-3-1-3-3-1-1-1 1m-349 2v1l1 3c0 2-1 3-2 3-2 0-2 0-1 2l3 1 1 1-2 1-2-1-2-1c-2 0-2 0-1 1v8c1 0 2-1 2-3 1-4 5-4 5 0l-1 2-1-1-1-1 3 5 1-5c1-4 1-4 3-2l4 1-2-2c-2-2-3-2-2-3v-2c-1 1-2 0-3-1-2-3-2-3 0-4l1-3c0-1-4-2-4 0m369 3l2 1c1-1 1-1 1 1l-2 7v4l3-1 3-3c0-2 1-3 2-1 2 3 7 3 8 1h-1c-4 0-7-1-4-2 2-1 3-4 0-4-2-1-4 0-3 1h-4l-1-2c1-3 1-3-1-3l-3 1m-864 7v15l1-5c0-6 1-6 3-3 2 2 2 2 3 1l4-1 2-1-1-1-1-3-1-4-1 2-1 1c-1 0-2 1-2 3-1 3-1 3-1 1l-3-2c-1 1-1 0-1-3v-4l-1 4m736-1l-3 2a3 3 0 00-2 4l1-1 2-1 3-3c2-3 3-4 3-1l-1 1-1 2h3c0 1 1 1 2-1l1-2-2-1c-1-3-3-3-6 1m-105 5l-4 6 4-3c4-5 6-6 6-4s7 12 9 13l3 1h5c1-3 8 0 9 3 0 3 2 4 3 1 0-2-5-6-10-7-3 0-4-1-5-3-1-4-3-4-5-1-1 2-2 2-5-4-5-8-4-8-10-2m-646-2c3 0 2 2 0 2-3-1-3 0-2 4a4 4 0 103-7c-2 0-2 0-1 1m925 7c0 6 1 8 3 4 0-2 0-2 2-1 1 2 1 2 3 1 2-3 3-2 3 1-1 3 2 4 3 1 1-7 0-10-4-8h-6l-3-1-1-2v5m-446-2l-4 1-2 1-1 2-1-1-1-2v3l2 1 1 1v1l2-2c1-4 3-4 3 0 2 8 4 14 4 11v-4l2-1v-4l-1-2-1-2 1-2v-1l-2-2-2 2m147 2l-2 3-3 6-3 6c0 2 0 2 1 1 3-4 5-7 5-5v4l1 1c2 0 4-1 4-3-1-2 0-3 1-2h2c1-2 4-2 4 0l4 1 3-1-2 3-3 3-2 2v1l1 1 2 2 5 1 4-1-1-1c-2 0-2-1-1-4v-4l-2 2-2 3 1-3c0-3 3-7 3-5l4 1c3 0 4-1 2-4-2-2-5-3-6 0-1 2-2 1-1-1l-1-2h-3l-5-1h-1c2-2 1-5-1-5-3-2-7-1-8 1m232 4c0 8 5 8 6 1 0-4 0-4-3-4s-3 0-3 3m-729 1l-1 1-6 18-1 4v-6l-2 12-1 12 1 2v1l-1 2v2l-3 2h-8l-4-2c-3-1-3-1-1-2s2-1 4 1c1 2 2 1 1-3l-2-7-2-7-2-4-1-4v2c1 9-7 12-9 3l-1-5c-1-1-1-1 1-1s3 1 5 6v-2c0-5-1-6-5-6-2 0-2 0-1-1 2-1 0-5-2-5v1l1 3c-1 1-1 1-3-1l-1-1 2 3 1 3v1c1 0 5 14 4 15l-1 3c0 2-2 5-5 8-6 6-11 14-11 16 0 1 1 1 2-1 2-2 6-2 7 1 1 2 0 2-2 1l-2-2v1c2 1 2 2 0 4-2 3 0 5 5 5 2 0 3 0 2-1v-4l1 1 1 1-1-4-2-5c0-2-4-4-5-3l1 1 3 1h-5c-3-2 6-12 10-12h1c-2-1-2-2-1-3 2-2 2-2 4 0 1 2 3 3 6 4l8 2 5 2 2 1-2 1-1 1c1 2 4 1 4-1l3-2 10-7c1-2 2-2 3-1 2 2 2 2 5 0l1-2-2 2h-3c-3-3-1-7 5-13l6-7 2-2c1 0 2 0 2-2l-1-3v6l-2-3c-2-2-2-2-2 0h-1c-2-3-14 9-13 12 0 2-1 3-3 5s-3 4-2 5l-2 3-1 2a12 12 0 008-8c4 2-6 11-11 11-2 0-2 0-1-1l2-1 2-6 2-5c0-1-2 0-2 2-1 2-1 1-1-2l1-8 2-9c2-10 5-19 7-18 2 0 2 0 0 7a4 4 0 01-4 5l1 1v6a5 5 0 01-4 6v7l1 2c0 1 1 1 2-1l1-3h-1l1-2 1-1c-1-2 0-4 4-19 2-11 2-12-1-12-2 0-3 0-2 1m340 0l1 2v3c-2 2-1 5 1 7l1 3 2 3 1 2 2 4 3 3c1 3 4-2 3-5l-6-13v-3c0-2 0-2-1-1h-2l-1-2v-2c-1 1-2 0-3-1h-1m243 2l1 2 1 2-3 1c-1-1-1 0-1 1v2l-1 2-4 3c-4 1-4 1-2 2l5-2h3l2-1c2-2 2-3 1-3-2 0-1-3 2-6 2-2 3-3 1-2l-2-1a2 2 0 10-3 0m-723 6c0 6 0 7-3 11-2 5-2 5 0 5h2v2h-1l-2 3 2 1v3h2c3 0 4-1 2-2v-3l-1-4c0-2 0-3-1-2-2 0-2-2-1-3 2-1 2-2 2-11l-1-7v7m474-2c0 5 1 6 4 8 2 1 4 0 2-1l-2-5c0-6-4-7-4-2m371 1l-1 4-1 4-2-2-2-4-2-2-1 2c-1 2-1 2 1 1l1 1 1 3c1 1 1 2-3 3-5 3-6 3-5 4l6-2c3-2 7-3 10-3 4-1 6-2 2-2-3 0-3-1-3-7h-1m-820 2c-1 1-2 1-1 2l1 3c0 3 2 5 6 5 3 0 5 1 5 3v1l1-3c0-2-1-2-3-2l-1-4a6 6 0 012-5H62m868 3c-3 2-4 6-1 6l1-3 1-2 1 5v4l4-1c3 0 4 0 3-1s-1-1 1-1 3-2 1-3v-2c1-1 1-1-1-1-1-1-2 0-2 1l-2 1v4l-1 1c-3 0-3-6 0-6v-1l-2-1c1-2 0-2-3 0m-429 4a14 14 0 002 14h1c2-3 3-6 1-6l-2-5c0-4-1-4-2-3m257 3c-1 2-2 3-4 0h-2l2 3c2 1 2 1-1 2l-3 2c0 1 2 1 5-1 2-1 2-1 4 1 2 1 2 1 4-1 1-1 2-3 1-4-1-2-2-1-3 2 0 2 0 2-2 0v-4c0-3-1-3-1 0m-32 1c-2 1-1 2 1 3l2 2 1 1 2 2c1 1 0 2-1 1l-1 1h-2v1c1 2 1 2-1 3-2 0-5-2-5-4l-1-1-1 2c0 4 0 5-2 5l-3 1-3 1c-6 0-6 0-5 1s1 1-1 4c-4 3-5 6-3 7h-2c-2-1-2-1-1 1 2 2 2 3 1 4v2l-1 2-1 1h2l2 1c0 2 1 2 2 2 2-1 3-1 4 1 1 3-1 4-4 1l-4-2c-3 0-5-3-4-5 3-3 3-4 2-4l-2 1a4 4 0 01-8-1c-2-4-10-13-10-11l4 4 3 6 1 2h1c1 1 0 1-1 1l-3 2v-1c0-3-5-4-6-2s-5 1-7-1h-3l-1-2v-2c2-2 2-5-1-9v-4l3-1-1-1-2-2-1-2-1 1c1 2 0 3-3 3l-4-1 2-1v-1l-2-1h-2l-2 2c-1 4-1 6 1 3 1-4 2-3 1 0s-1 3 1 2l2 1-3 1c-3-1-4 0-4 1h-1l-1-1v1-10l-1 2-1 1v-3l-2 3c-2 5-2 10 0 10l1 2c-1 2 1 12 3 16l2 4 2 2 3 4c2 4 3 6 5 6l1-1c1-1 1-1 2 1a6 6 0 004 3v1l-1 1-3-1 1-1h-1l-1-1c1-2 0-3-2-1l1 3 2 3 3 3 2 4 2 2 1 3 2 3 1 3 1 3 1 6v8l-2 5c-1 2-2 4-1 6l-1 4v26c-1 1 0 3 2 7l1 2 2-2 2-2h1c2-1 2 7 1 11l-1 6-1 5h5l9 2h3l-3 2c-3 2-15 2-16 0l-2-9c-1-10-2-10-2 0 0 8 0 9 3 10 3 2 15 2 17 1l9-1c8 0 11-1 8-3-2 0-2-8-1-8v-9l1-2v-1l-1-2h1v-3c-2-3-2-6 0-4l1-1-1-1-2-1 1-1-1-7v-1l1-3 1-4v-3l1-3 1-8c0-4 0-4 1-2l1 2v-1c0-2 3-4 4-4 1 1 2 0 2-1l1-10 1-13 2-9c2-3 1-5-2-3-1 1-2 0-2-4s-1-5-3-4l-1-1c1-3-4-6-6-3h-1l2-3 1-5v-3l1 2h3v2a3 3 0 011 5c-2 1-2 1 0 1 3-1 6 4 6 8l1 2c2 0 1-2-1-7l-3-15c0-7-2-14-4-14v3c3 3 4 11 2 12-1 1-5 0-5-1l-3-2-4-1c0-2 3-3 4-1 1 4 3-1 4-12 0-8 1-8 4-8h2l1-2 1 1 1 2 1-1 4-3 6-3 4-3c3 0 4-1 1-1l-3-2v-3h-4v-2c0-1-6-2-7-1m-43 2v1c1 3 3 8 2 10l1 2 2-4 2-6v-3h-7m-501 4c-4 5-6 8-2 6h3l4-3c3-3 4-4 3-5-2-3-3-2-8 2m724-3l-1 3c0 3 0 3 2 2h5c3 0 5-4 2-5l-4 1-3-1h-1m-61 1c-1 2-1 2 1 2s2 0 1 1c-2 0-3 4-1 5 2 0 6-2 6-4l-1-1-2-1 2-1 1-1c0-2-4-1-7 0m38 7v2l-1 1-1 2c-1 2-1 2 1 1l3-1a4 4 0 004-3l-1-1c1-2-4-3-5-1m-848 7c-2 3-3 4-1 4 2-1 5 2 3 2-1 1 0 2 1 4 2 3 2 3 4 1v-3l-1-1v-3c-2 2-5-2-4-4 2-3 0-3-2 0m31 1c-1 2-1 2 1 1 2 0 3 1 1 3-1 1 0 4 1 4l2-3c0-1 1-3 3-3v1c-2 2-2 5 1 5l2-4v-4H66m378 6v2l-2 1c0-2-2-1-3 1s-1 2-1 0c0-3-2-4-2-2l3 6c1-1 1 0 1 1l1 9v9c-1 2 0 4 2 4l1 2v1l2-1c1-1 1 1 1 4 0 6 1 8 5 6 3-2 3-1 2-20a6 6 0 011-5l-1-3v-2h2l1-1v-1a5 5 0 01-4-2h1c1-2-2-7-4-7l-4-1-2-1m-248 8c0 7-1 10-3 4 0-4-2-7-4-6l1 3 3 9a9 9 0 004 7l-1 1-1 1c2 2 4 0 3-3v-20c1-1 1-2-1-2-1-1-1 0-1 6m14-1c-2 0-3 2-3 2 0 4 0 4-1 3-1-2-1-2-2 1l-1 5v1c-2 0-2-1-1-2l-1-4v-3c-2 0-2 1-2 5l1 8c1 2 3 3 5 0l2-1 1-1-1-3c-1 0 1-6 3-8l2-3c0-2 0-2-2 0m-145 8c-2 9-1 11 2 9 2 0 2 0 0-2h1c2 0 3-3 1-5l-2-3c1-4-2-3-2 1m-30 1l-1 2-1-2c0-2-1-1-1 2-1 2-1 2 1 2 2-1 3 1 0 1l-1 2v3c3 2 13 3 16 1l1-1-6 1c-3 0-3 0-2-1 2-2 2-2 0-2-2-1-2-1 0-1s3-2 0-2l1-1v-1l-2-1 1-1c1 1 3-2 3-3l-3-1v1c2 1 1 2-2 2-3 1-4 0-1-2 1-1 1-1-1-1-1 0-2 1-2 3m871 2c0 2 0 3-2 3l1 1c1 1 1 1-1 1s-2 0-1 1c2 0 3 2 1 3-1 0-1 3 1 4 1 2 1 2-2 2l-2 1 5-1c4 0 4 0 3-1l-1-1c2-1 3-5 1-5l-2-1 1-1c1 0 4-6 3-7-3-2-5-2-5 1m23-2l-3 1c-3 0-3 0-1 1 3 0 4 2 1 4-1 1-1 1 3 1h1l-4 2-3-1h-1c0 3 2 4 4 3l3-1-2 2-2 1 2 1 3-2 1 1-3 2-4 2 1 1 3-2h5c0-1 7-2 9-1h1l-1-2-1-1-2-2-3-2-4-3c-2 0-3-2 0-3 1-1 1-1-1-2h-2m48 4l-3 1v1h2c2-2 2 0 0 4-4 6-4 6 2 5l4 1-4 1c-6 1-4 2 4 3 8 0 11-1 6-3-2 0-4-4-2-4a3 3 0 00-2-4l-3-1c-2 0-2-1-1-2 0-3 0-3-3-2m-765 1l-1 2c0 2-1 2-2 2h-3l1 1c1-1 1 1 1 5 0 10 0 10 1 7l1-2 6-1h6l-5 1a5 5 0 00-6 3c-1 1-1 1 1 1 3 1 6 0 6-2l1-1 1 1c-1 2 1 4 3 4v-13l-2-5-1 1c2 2 3 9 2 9l-1-3-3-4c-3-1-4-4-2-4l2 1h1l-1-3a3 3 0 00-4 1l-1 1-1-1v-1m754 3l-1 13 1 10 1-10c0-8 0-8 3-9 2-1 3-4 1-4l-1 1-1 1-1-2-1-3c-1-1-1 0-1 3m-516 2l-1 5c-1 5 0 11 1 11l2-1c1 0 1-4-1-13 0-3-1-4-1-2m-389 2l1 2 1-1c0-2 2-2 2-1l2 1c3 0 2 1 0 4-3 3-3 3 1 3 3-1 5-3 3-3-1 0-2-1-1-2l-1-3-1-1h3l3-1-7-1c-6 0-6 1-6 3m138 0h-4l-3-1v4c0 3 3 6 3 3 0-1 0-2 1-1l1 2v1c1 0 2-4 1-5s-1-1 0 0h3c1-1 1-1 1 1l3 1h1v-4l-1-2-1 2-1 3v-3c-1-3-2-4-4-1m-41 1l-2 1c-1-1-2 2-1 4l-2 1h-3c1 1-8 3-13 3-6 0-7 0-8-2h-2c0 5 10 5 27 1l17-2 7-1-10-1h-9l1-1 1-2c0-2-1-3-3-1m-126 6c0 3 3 7 6 7a4 4 0 00-1-8l2 2c0 2-4 1-6-2l-1-2v3m0 14v6c0 4 0 4-2 3-2 0-2 0-1-1 2 0 2-1 0-2-2-2-2-2-2 1-1 3 0 4 3 4 2 0 2 1 2 5h1l3-1v2c-2 0-2 1-1 1 2 0 1 5 0 5l-2 2-2 3-2 4-2 4h-2l2 1 2 1-2 3h1c4 0 4 0 4-4v-3c-1 1-1 1-1-1-1-3 0-4 5-7 3-1 4-2 3-3-2 0-2-7 0-8 1-1 0-1-1-1l-3-1h-1l-1-4 1-5c1-1 1 0 1 3s1 6 3 6l1-1-1-1-2-1h2l1-1-2-1v-1l4-1c3 0 6-2 4-3l-6-1c-5 0-6 0-5-1v-2c-1-1-1-1-2 1m818 0l-4 1c-4 1-9 6-9 11l-2 6-1 2c0 1 1 1 2-1 2-2 2-2 2 0l-1 8-1 7 1-4 2-7c0-2 0-3 1-2 0 2 3 5 4 5s3-4 2-5c-2-1-3-6-2-10 1-7 1-8 3-8l3-1 3-1c3 0 3 0 2-1h-5m7 1l2 2c2 1 4 5 4 6l-2-1c-2-1-2-1-2 1h-1c-1-2-4-2-7 0-2 2-2 2-3 1s-2 0-3 2c-1 3-1 3 1 5l3 1-1-1h2c4 2 4 9 0 10l-3 1h-1c-2-1-2-1-2 5v4h4c7 0 17-3 19-5h2c2 0 2 0 2-2l-1-3-1-1v-2h-2c0 1-1 1-3-1h-3l-2-3-2-5v-1l2-1h5c2 2 4-1 2-2v-2l-5-8h-4M59 234l1 1 1-1 1-1v2c0 2 0 2 1 1l3-1c1 1-2 3-5 3l-2 1c0 2 1 2 5 0h5l-1 1c-4 1-4 4-1 6 3 3 4 2 4-4l1-5c0-1-2-3-3-2v-1c1-2 1-2-4-2s-6 0-6 2m79 3l-1 1c-2 0-6 3-6 5l-2 5-1 5c1 2-2 7-5 7-4 0-6 1-6 3l-2 1a2 2 0 00-4 1l-8 8c-10 11-10 15-6 32l1 9a23 23 0 005 19l2 5c2 1 3 4 4 6l2 4 4 2a5 5 0 006 3l1 3c3 3 4 19 2 20v5c-1-1-2 5-1 6l1-1c2-2 3 16 1 28-1 12 1 26 3 27l9 2a12 12 0 0014-1 38 38 0 0022-1c-2 0 1-4 3-4 1 0 1-1-1-4l-1-4a106 106 0 002-9v-3l-1-2-1-1v-5c0-2 0-3-1-2 0 2-4 1-4-1 0-3 1-6 3-6 2 1 1-1-1-3-2-1-4 1-3 3 1 1 1 1-1 1v1l1 1-1 1-1 3c0 4-1 5-3 4-1 0-2 3 0 5l1 2h2v-2c-1-1-1-1 1-1a4 4 0 010 7l2 1c1-1 1-1 1 1l-1 2-1 1h-2l1 1v2c0 2-1 2-2 1h-2v2c-2 0-2 0-1 1l1 3 2 2c4 0 5 2 2 2l-5 1-5-2-1-1c1 1 2 0 3-4l1-12v-5c-1-2-1-10 2-12 1-1 1-3-1-5v-3c0-1 0-2 2-2v-1l-3 1h-1l2-2 2-1-2-1h-1l-1-1v-21c1 0 0-5-2-8l-2-5-1-5-1-7-2-9c-2-3-1-5 2-7l-2-1c-4 0-1-2 5-2v-1h-3l-1-1-2-2c-2-1-2-1 0-1 7 0 7-5 0-5-4 0-6-2-4-5h1a3 3 0 105 0l1-4v-4c-1-5-1-5 1-4 1 1 1 1 1-1-2-4-3-6-3-3l-1 1-2 1-1 1-1-1c1-1 0-2-1-2l-1-6h-3c-3 1-3 0-5-3a7 7 0 00-4-5l-2-1c-2 0 1 4 3 5l2 1 2 6 3 8c0 2 0 4 2 5h-2l-6-2-5-1c-2-1 1-4 3-4 1 0 1-1-1-4l-4-2c-2 1-5-1-5-4 1-1 4 0 4 2l1 1v-10l-2-2c-2 0-1-3 1-5l3-2 1-2-1-2 4 7-2-1c0-2-3-1-3 1s0 2 1 1a8 8 0 0110 5l2 4 2 2c0-1 2 0 3 2 4 3 9 4 9 2l3-3c3-1 5-5 6-8 0-3 0-4 1-2h1c1-1 0-2-1-2l1-1 2-2h-2l-2-1v1l1 1c-2 0-6-4-5-5l-1-2v-1c1-2-1-4-3-5s-2-1-1-2v-3c-2-6 1-13 5-9l2 1c1 0-3-9-5-9-2-1-2 0-1 2 3 3 1 4-4 4l-6-2c-1-1-1-1-3 1-2 3-2 4 2 3 3-1 5 0 5 3 1 4-1 11-2 9l-1-2v-3c-1-1-1-1-1 2a14 14 0 01-3 10h-1v3l-1 2-1-2-1-3-1 1-1 1c-2 0-1 5 1 6 2 0 3 2 1 2-1 0-6-5-6-7l2-1 1-2h-2c0-2 0-3-2-3s-5-3-4-4c1 0 7 2 8 4 2 4 4 1 4-4v-4h1c2-1 1-4-1-6-1-1-2-2-1-3 2-1 2-4 0-5-2 0-3-2-1-4l1-1-2 1m-73 12c-2 0-3 2-1 2l-1 8-3 1-1 2 4-3 5-4 1-1 1-3a3 3 0 00-5-2m512 0c-3 1-3 1-1 1 3 0 4 2 0 2-2 0-2 0-1 1h-1c-2 0-3 0-3 2h-3v1l2 1h1c2 0 2 0 1 1l-1 3-1 2-2 2h-1l-1-3c1-1 0-2-2-3-3-1-5 0-3 1v2l3 1-3 1c-3-1-3-1-4 2 0 2 1 4 2 2s2 6 1 10c-1 5-1 5 2 6 5 0 8-6 4-8s-4-3-1-5h4l3 1c3 0 3 4 1 6l-2 3 1-3c2-3 2-4-1-2l-1 5c-1 4-1 4 1 3l2-2 1-2 3-3 1-2-1-4-1-3 1 2c1 1 2 3 1 4l1 1v-4c0-3 0-3 1-1 1 1 2 3 1 4h4l4-4v-2l1 2 3 3c3 0 11 8 9 8-8 1-11 1-15 3l-5 3-3 3c-5 2-5 4-1 15 5 12 7 21 8 34l1 12c1 7 0 26-1 29l-3 11-1 9-4-1-4-1c-1-2 0-4 3-4 2 1 2 0 2-1 0-2 0-3-7-3-8 0-10 1-7 3 4 2 4 3-1 3-4 0-5-1-5-2h-1c-2 3-5 2-6 0-2-3-1-5 3-6h4l-4-1-6 1-5 2-3 4-5 3v2c1 1 1 1-1 1-3-1-4-5-1-8 1-2 1-2-1-2l-4 2c-2 2-2 2-2-2l1-4-1 4-2 4-1-3-1-4-2-4c-3-4 0-4 3-1s5 3 7 1c1-1 2-2 3-1l2-1 2-3c2-1 1-2-4-2-8 0-9 0-7-3 1-2 2-2 4-2h2c-3-2-6-1-8 3-2 3-5 4-7 2s-3-2-3-1a10 10 0 01-12-1l1 2v3c-1 0-2 1-2 3l-1 3 3-3 5-3 1-1c1-2 5 0 5 2l1 1c3 0 9 11 7 13v1c4 4 3 9-2 9-3 1-3 1-1 2 5 2 8 7 8 13 0 5 0 5-2 4l-2-1 1 2c1 0 3 2 3 5l2 4v-4c-2-4-2-4 0-5l2-1h-1c-1 0-2-1-2-9-1-6-1-6 1-5 1 2 1 2 3 1 3-1 4-2 2-4-1-1-2-2-1-3l5-2 3 1c5 1 3 7-4 14-2 2-4 4-4 6v22l1-9c0-11 2-16 8-21 7-7 15-8 12-2l-1 5c1 2-1 5-5 7h1l2 1 1 1 1-2 2-5 1-2h-1l2-1 3 2 1-2h1v4l7 21-1 1c-2-2-1 1 1 2l2 5 1 5 1-6-1-7-4-9c-1-4 2-4 4-1h2c1-2 2-2 3-2 1 1 1 1 0 0-1-2-1-3 1-3s1 5-1 6l-1 1h1c1-2 2 2 2 12l1 9h21v5l1 7v3l-2-3c-4-3-4-3-2 1 2 3 3 5 3 15 1 10 1 11 1 4v-11c0-3 0-4 1-3v-2c0-2 0-2 1-1 3 2 4 8 4 19v10l1-9v-12c-1-8 3-12 6-6v6c-1 0-2 1-1 3l-1 3v2l-1 1-1 1 2 1c1-1 1 0 1 3 0 5 1 7 2 6v-2c-1-3-2-11 0-12l1 3c1 2 1 1 1-2 0-4 2-6 7-5 3 1 3 1 3 9l1 8v-9l-1-12v-5c2-2 3-4 1-4l-2 2c-1 2-2 2-4 1h-2l2 1 4 7-5 1-5 1v-5c-1-5 1-8 4-8 3 1 4 0 5-2 2-5 5-2 5 3v7l3 3c3 1 3 1 3 7l1 7c1 1 1-1 1-7v-9l-2-5v1c0 4-1 5-3 3-1-3-1-11 1-10l1 2 2-3 2-4v5c-2 0-1 2 1 2l1 2 1-2c2-4 2-4 3-3l-1 3-1 3c0 3 4 14 4 11l-1-5c-1-2-1-2 1-2l2 4v5l1-2c0-2 0-2 1-1v14c0 4 0 5 1 4v-24c-1-5 2-7 4-3 2 2 2 6 1 15l1 12 1-6 1-19 1 1 2 6 1 5-1-6-1-6c-1-1-2-2-1-6 1-7 2-8 6-6l2 1v33c1 1 1 0 1-3v-18c1-14 1-14-1-14l-2-1c0-1 3-2 7-1l4-1v-1l-4-2c-2-2-3-2-8-2-4 0-5-1-5-2-1-2-1-2 5-2 5-1 5-1 5 1-1 2-1 2 3 1l2-3v-3c1-1 1-1 1 1v3h3c1-2 7 0 8 2 0 3-1 4-2 3s-2 0-3 1c-2 1-2 2-1 3l1 4c-1 4-1 4 2 1l2-4c-2-4 7-6 12-3h1c-2-2 1-1 5 2 5 4 10 17 8 20l-2 1-1 1c0 1 1 2 3 1s3-5 2-6l-2-12 3 2 1 2-2-1h-1l2 2c3 0 5 6 3 8l-3 6 2-2 3-3a4 4 0 002-3l-4-9c0-2 2-2 3-1h2c1-2 2-1 3 2 0 3 0 3 1 2v-4c-1-1-1-1 4-1h4a4 4 0 01-2-4l1-1-2-2c-1-1 0-1 3-1h5l1-27-1 10c0 14-1 16-3 16l-4-1-1-1c0-1 1-2 2-1l1-1-2-1c-2 0-2 0-1-4l1-4a11 11 0 013-7l-1-3v-6l1-3 2-2c0-2 0-2-2-1v-1l2-3 1-2c2-1 2 1 2 9l1 3c1 0 3-7 2-8a39 39 0 013-18c0-2 0-2 1 0 1 1 1 0 1-4a13 13 0 011-8h-3c-3 3-4 2 0-1l3-1c0 2 3 1 7-3l4-4v-11a28 28 0 012-14l2-2c2-1 3-5 2-6l-1-2v-2l-1-1a25 25 0 00-4-13l-3-6-1-1a4 4 0 00-3-4l1 1 1 2 2 8c4 11 5 17 4 19-2 1-3 3-7 10-2 5-4 6-4 4l-1-2-4-3-4-3-2-1c-1-1 0-1 1-1 2 0 2 0 1-1l-5-1h-3l-4-1-4-1c0-2-2-2-2 0-1 0-1 1 0 0l1 1-4 4-2 2-1 2-2-3-1-1c0 2-2 1-2 0l1-2v-2l-2-3c0-2 0-2 1 0l1 3v-3l-2-4v-2l-1-1-2-4-1-4v-2h-1c-2 2-6 20-4 22a25 25 0 012 13c2-1 6 8 6 12 0 2 0 2 2 1h1l-2 2-1 4c0 2 0 5-2 7l-3 7-2 6a19 19 0 001-8 42 42 0 01-4 9v4l-1 1-6-3 2-1v-2c-3-2-8 0-8 4l2-1c1-2 2-2 2-1v1h-1l-2 3-3 4 2-1 1-2v2c0 4-1 6-2 6l-1-1c1-3 1-2-2 1l-2 3h2l5-3 3-3v2c0 4 5 4 6 0 0-2 0-2 1-1 1 2 1 1 2-3l3-6 3-4 1-5 1-4h1c1 1 0 2-1 4v6c1 4 1 4-2 5-2 2-2 2-2 0l-1-1-2 32c-1 4-2 4-3 1-1-2-1-2-1 0l-1 4-1-1c1-4 0-6-3-7l-2-1 2-1c4 0 5-2 5-6s-1-4-4-4c-2 0-3 0-2-1 2-1 1-2-1-2-3 1-4 0-2-1v-1l-2 2-2 1-2 1-4 7v-8l1-2v-2l1-2 1-2c1-2 0-3-1-4l-1-2v-2c-1 0-2 3-2 7 0 10-1 14-2 9-1-4-1-4-3-2l-4 2-4 1-1 1h-1l-2 1 1-2 5-3v-1l-5-2c-5 0-5-1-3-9 2-7 4-9 10-15 6-5 6-6 16-6l8-2c2-1-15 0-18 2-5 2-15 13-16 17l-2 10c0 2 0 2-1 1-2-2-4-1-6 1l-6 2-4 2 2 1c4-1 4 0 1 3h-9c-5 3-11 3-11 2 0-3 3-5 6-6 4 0 3-2-2-2l-4-1c-1-1 0-1 1-1 2 0 4-5 4-9l1-1 1 1 3 1c4 1 4 0 1-2l-1-2c2 1 3 0 1-1l-1-2v-3l-1-2c-1 0-2-1-2-3 0-3-1-3-1-1a13 13 0 001 7c0-2 2-1 2 1l-2 3v1l-1 1-1-3v-3l-1 3c-1 4-2 4-2-4l-1-14c0-5 0-6 1-5l1-3c-1-2 0-4 1-6l3-9 1-13c2-8 2-11-1-20l-1-6-1-1-3-8c-3-9-8-20-11-23l-11-7a45 45 0 01-12-13l-8-12c-3-5-5-7-9-6m291 8a4 4 0 003 6l4 1c4 0 5 1 5 3 0 3 3 3 6 0 3-2 3-2 1-4-3-4-18-8-19-6m-439 1l2 2c2 2 3 2 16 1 9-1 8-3 0-2l-8-1h-10m406 6c-5 3-7 5-5 6v9l1 9c1 0 3-2 3-5 0-1 1-3 4-5 5-5 7-11 5-15 0-2 0-2-8 1m-435 0l-1 5-1 3-1-1v-1c-2-1-2 0-1 1 1 3 4 4 4 2h1c2 2 4-1 4-6v-4l-1 3c-2 5-4 5-3 1 1-3 0-6-1-3m407 0v4c0 4 1 4 3 4 2-1 3 0 3 1l1 1 1-2c-1-1 0-2 1-3 3-1 1-2-2-1-4 1-5 0-3-2v-2h-4m-738 3c-2 1-3 12-1 13v8l1 3c2 0 3-3 1-5v-7l-1-2 1-4c0-4 1-5 3-5l2-1h-6m-33 1l1 2 1 1h-1l-2 1-2 3h-3l1-1c2 0 2-4 0-5-3-2-5 12-2 13l1-1v-2l3-2c4-1 9-2 5 0-2 1-2 1-1 3v1l-2 1h1l1 1v2l2-1c0-2 4-2 6-1l2 1c1-1 0-1-2-2a9 9 0 00-6-2l2-1c2-1 1-5-1-5v-1h5l-2-2c-2 0-3-1-3-2 0-2-2-3-4-1m853 2c1 2 1 3-5 8l-7 6a2 2 0 00-2 3 8 8 0 00-4-2l1 7a6 6 0 003 8v1l1-1c0-1 5 0 6 2h-2l-2 1 3 1 1 2 1 2 3 4c2 3 2 3 4 2 2-4-1-10-5-8-2 0-3-2-1-2v-1l-1-2c0-3 6-18 8-20v-2l-3 3-2 3-1 3-1 2-1 3-1 5c-1 1-1 1-1-1a3 3 0 00-2-6l2-2c2 0 2-1 2-5v-4l4-4c5-4 5-4 5-1 1 2 1 2 2 1 0-1-3-8-5-9v3m-38 0h1c2 0 3 1 1 3l-1 2c0 2 0 2 1 1h3v1l-2 2c-1 3-3 2-3-2l-2-2v1l1 3v1a4 4 0 012 6l1 2 4 3 5 2 1-1-5-2-4-2 2-1 3 2 1-1-2-1-2-2c-1-2 0-5 1-5l1-1a1 1 0 112-1l1 2v-3l-3-2c-4-2-4-2-2-3l2-1-1-1-3-1c-2-1-3-1-3 1m-107 3c0 9-1 12-2 8l-5-1-3-1h-3l-2 1a2 2 0 01-3-3l-1-1-1 2-1 1-1-3c0-3-1-2-2 2 0 6 0 6-2 6v1h2l1 2 2 2c5 0 5 0 5 5l-1 4-1 1 2 1h2a3 3 0 006 0l1-3-1-4c-1 1-2-2-1-3l2-2 1 1c1 1 3-1 3-3h2v6l1-2h1c1 1 1 1 2-1 1-4 3-2 3 2 0 3 1 4 3 5 2 0 2 0 0-2l-1-4c1-3-1-13-2-13l-1 1h-1v-2c1-1 1-1-1-3l-3-3v3m116 9c-2 1-2 1-1 2h3c1-1 1-1 1 1v2l1 2c-1 1 0 2 1 3 3 2 4 1 2-1l-2-4 1 1c0 2 5 5 5 4l-2-2-2-4-5-5-2 1m-691 4v6a5 5 0 010 6l1 5 1 4 1 4 1 2c2 2 1 10-1 11-3 2-2 5 2 5l4-1h1v3c-1 2-1 2 1 4s2 2 1 4c-2 3-3 1-3-3a2 2 0 00-3-2v8a2 2 0 000 3c3 3 4 5 3 9v8l1 5v4c-2 3-2 5 0 5 1-1 2 0 1 1l2 1 1 1v4l1 1 1-1c-1-1 0-4 2-7l2-7 1-1v-1l-1-3 2-6c0-5 0-5-2-5h-1l2-4 1-4c1-1 1-6-1-7v5c-1 1-1 1-1-1s0-2-2-2v-1l2-3 1-1c1 0 2-5 1-6s-1-1-2 1c-1 3-2 2-5-3-2-4-2-4-2-1 0 2 0 2-1 1s-2-2-3-1c-1 0-2 0-1-2 0-4 0-4 1-1 1 1 1 1 1-2l1-5v-6l-2-5-1-3-3-7v-8c0-2-3-2-5-1m-132 5l-1 4c1 2 0 3-2 1-1-1-1-1-1 1s0 3 2 2l2-1h5l-2 2-2 1 2 1c1-1 2 2 0 3v2l3 1v-4l-1-1 1-2c2 0 1-4-2-5h-2l2-4 1-4-1 1-2 4-2 3 1-4 1-4c-1 0-2 1-2 3m795-2l-1 1c-2-1-2 4-1 6 2 1 2 5 3 11v11l-7-1c-3-1-7 0-7 2h6c3 1 4 2 3 3l1 1 1-2c0-1 2-1 3 1h-1c-1-1-1-1-1 1l1 2 2 2c1 2 1 2-1 1h-2l1 1 1 11 1 10c1 0 3-13 2-16 0-2 2-3 7-4l4-2c1-2 1-6-1-5-2 0-2-1-2-3 1-3 0-4-1-4v-3c2-5 2-10 1-10l-1-4 1-4v-1l-3-2-2-1c-1-2-7-4-7-2m-144 1l-1 4a4 4 0 01-2 4l1 1h1l3 1 3 2c2 3 3 2 3-1 0-2 0-2-1-1s-1 1-1-1l-2-3v-4l-1 1-2 2v-3l1-3-2 1m-617 3l-1 1-1 1h-1c0-2-1-2-3-1l-6 1c-2 0-3 1-3 2v6l1-1 2-1v2h3c2-2 3-5 1-6h2l5-1h2v3l-2 1a2 2 0 00-2 3l1-1v5c-2 1-1 2 1 1s3 0 3 7c1 2 1 0 1-4a19 19 0 011-9l1-1 1-2a4 4 0 010-6h-6m657 14v2l1 5v5l2-4 1-4c2 0 5-4 4-6s-7-1-8 2m-693 4v2l-1 2v3c-1 0-1 1 1 1v1c-3 0-3 4-1 4s4-3 4-5l1-1a4 4 0 00-4-7m741 3a44 44 0 00-9 5l8-3c9-3 22-2 31 2l-1 1h-6l1 1c1 0 1 3-1 8-1 4-2 5-4 5s-2-1-1-5v-5l-2 7c0 8 3 9 9 2 3-3 4-4 2-4s-2-1-1-5c1-3 1-3 5-3 5 1 6 1 4 5-1 3-3 4-5 5-3 1-3 1-1 1h2l2 1c1 1 1 0 2-2l2-4c1-3 3 7 3 13v6c1-2 2 1 2 8 1 4 2 6 6 6v1c-1 0 0 2 2 2v-1l1-1 3 1 1 4 1 3 1-3c0-1 0-2 1-1l1-2-7-4-7-2-2-11-2-14-2-9-3-1-3-2-1-1c0-3-23-6-32-4m93 0l1 2c2 1 2 2 1 2-2 0-1 9 2 9 1 1 2 0 2-1h1l4 2a3 3 0 014 2l1-2c-1-1-1-2 1-2 2-1-9-8-11-8l-4-3-2-1m-93 9c0 5-1 5-5 5l-1 3 1 2v-1c0-2 1-2 3-2 3 0 4 0 4 2h-1v2c0 2 0 3-2 4l-3 3h1l2 1 7 2a6 6 0 017 5v-4c-1-2-2-2-4-2l-3-2h2c2 0 2 0 2-5l3-11c0-2 0-2-4-2-3 0-3 0 0 1l3 1h-4c-3 0-3 0-3-2l-2-4c-2-1-2 0-3 4m49 0c0 2 0 4-2 5-2 2-2 3-1 5 2 2 2 6 1 6-2 0-1 7 1 8l1 3 1 3 1-3 1-4c2 0 2-4 0-6-2-3-1-7 1-7s1-4-1-5c-1-1-2-2-2-5l-1-3v3m-793 3l1 1h1l-1 1-1 2c0 1 0 2-2 2l-3 1 3 1c9-2 12-2 10-1-2 2-1 3 1 0 3-2 2-3-2-2-2 0-3 0-2-1 4-1 2-5-1-5l-4 1m748 5c0 5 4 8 5 4 2-4 1-8-2-8l-3-1v5m85 3c-2 1-2 4-1 4 2 0 3 8 2 16 0 7 0 8 1 7l1-2 1-9a9 9 0 000-9 2 2 0 001-3c-2 0-3-4-2-4v-1l-3 1m-274 2c-2 1 0 11 3 14 1 2 1-4-1-7-1-2-1-2 1-2 3 1 4-1 1-1l-2-3c0-2-1-3-2-1m199 0v2l-2 2v1l2 2c0 3 2 5 3 3h2c1 2 1 2-1 2s-3 0-2 1l-3 1-3-1c0-2-1 0-2 2l2 2 1 1h8l7-2 5-2-1-4 1-4 2-1h-1l-4-2-4-2-3 1 2 1c5 1 6 2 3 3-2 1-2 1-1 2h4c0 1-2 3-5 4-3 0-3 0-2-4 0-2 0-3-1-2 0 3-2 1-2-2 0-2 0-2-2-2-1 1-2 1-2-1l-1-1m-725 2l1 2h-1a8 8 0 00-10 4c0 6 0 7-3 8-1 1-2 1-1 2l3-2c2-1 2-1 2 1l1 3v-13h8l3 1c5-1 7 0 5 2l-1 1 2 1c0 2-2 3-7 4-4 1-5 2-3 2l5-1 6-1 3-1-1-1c-2 0-2-6 0-7l-3-1h-2c2-1 2-2 1-2v-1l-1-1-2 2c0 2-2 3-3 3l1-2v-3c-2-2-5-1-3 0m829 3v15l1 12 1 1v-5c0-3 0-3 2-3 3 0 3-2 0-3s-5-11-3-15l1-4-2 2M34 360l-2 7c0 2 0 2 2 2 4-2 5-2 5 0-1 3 0 5 2 3l3-1h1v-4l-3 2-1 2v-5c3-1 0-2-3-1h-3l2-1 2-2h-2l-2-1 2-1c2 0 1-3-1-5-2-1-2 0-2 5m737 1l3 2 5 2h7c2 0 2 0 1-1l-2-1-4-2-9-1c-2-1-2-1-1 1m47 1v6l1 2 1-3h4l7 3 6 2v8c0 8 1 8 1 5l1-11v-8c-1-2-3 0-3 2s-1 2-7 0c-4-1-5-2-6-4l-1-1c0 1-1 2-2 1l-1-1v-3l-1 2m-8 0c-3 4-25 8-38 6h-5c0 1 3 2 7 2 11 1 17 0 27-3l10-3c1 0 0 5-2 6-5 4-40 7-41 5h-1c0 2 1 2 6 2h6v5l-1 11v5l-2-4-2-9-1-6v6l1 7h-3l-7 2-6 1c-3 0-3 1 1 4 3 3 3 9 0 9l-2-1h-1l-6 1-1 1c-2 4 0 11 2 10 2 0 2 0 1 1l1 2h1l1-2c1 0 1 1-1 4l-3 3-2 1 2 1c2-1 3 2 1 3-3 0-2 2 0 3l2 2c0 1 1 2 4 2 4-1 6 3 1 4-6 1-7 2-1 1 6 0 6 1 0 2-8 1-8 1-9 5 0 2 0 3 1 2l14-1 16-2 9-1 5-1h-14c-6 2-25 3-27 2-1-1 0-1 4-1a10 10 0 008-2c5-2 7-5 7-9v-4l2 2 2 6c0 3 0 3-7 5h11c2 0 5-3 5-4h-1l-2 1-2 1c-2 1-2 0-1-5s2-5 4-3l2 2-1-3c-2-1-2-3 0-8 0-2-1-2-4-4-3-1-4-2-4-4s0-2 2 0l3 2 2 1 2 4 1 7c2 3 2 3 2 1 1-1 1 0 1 3v4l2 2c3 3 2-8 0-12l-3-3-1 2v-5l2 1h2a10 10 0 00-8-6c-1-2 0-2 2-3 3 0 3-2 0-5l-2-4h-1l-1-4c0-3 0-3 1-2s1 1 1-1c-1-7 3-12 5-6 1 4-1 11-3 10h-2c-1 1 0 1 1 2l4 2c2 2 6 1 6-2 0-2 0-3 3-4l9-2 3-1v7c-1 9 0 10 3 8 4-2 4-4 2-5-2-2-2-3-3-15 0-13-2-20-4-18l1 2 1 9v8l-4-1-8-2h-4v-19l8-1c11-2 14 2 13 18-1 9 0 9 1 0 1-7-1-16-4-19v-3l1-10-2 2m-288 3l-4 1-6 1-3 2 5 3 6 3c1 1 2 0 3-2l4-5c3-1 3-1 1-3h-6m-461 1l1 4c-1 4 1 4 4 1l3-2 2-4h-6c-4 0-5 0-4 1m557 4c-3 4-5 21-3 21l4-6c4-8 6-13 3-14-2 0-2 1-2 3l-1 5-1-5v-4m-592 2c0 1 0 2-3 2-4 1-3 2 2 1l3 1-1 1-2 1h-4l4 2 3 1h4l5-1 3-1H30l6-2c3 0 4 0 3-1l-5-1c-2 1-3 0-3-1h-2v-1c2-2 1-3-1-3l-2 2m33 4c-2 3-3 4 0 4 2-1 1 0-1 2l-2 2h2l2 2a2 2 0 103-1v-3c1-1 1 0 1 1v3c1 4 2 1 2-3 0-5 0-6-1-5-3 2-6 0-4-2s1-2-2 0m722 5v5c-1 2-1 11 1 11l1-3c-1-1 0-5 1-9 1-9 1-9-1-9-3 0-3 0-2 5m5 1c-2 7-3 10 0 10l1-4v-7l1-2 1 6c1 21 3 23 3 4v-13h-2c-2 0-3 1-4 6m-750 5h-3l-1 2-2 4c-2 0-2 1-1 1 1 1 2 1 3-1l5-5v1c-2 2-2 5 1 5l1-4c0-3-1-4-3-3m589 4c-2 5-2 20 0 17l1-9-1-4c0-3 0-3 1-2s1 1 1-2v-4l-2 4m-5-2l-2 1-1 2-1 4c-6 8-8 11-8 14l-1 3-1 3c0 2 0 2 2 2l2 1h-1l-1 2-2 4v3l1 3c0 3 1 2 4-1l3-1c0 3 2 1 3-3 1-5 1-6-2-5l-2-1c0-2 2-5 4-5l1-2c0-9 1-17 2-17l1-5c0-3-1-3-1-2m196 5v13c2 1 2 1 2-7s0-9 2-9l7 1 5 1-4-1-7-2-2-1c-2-2-3-1-3 5m-53 1c-1 2 2 7 5 9 4 2 8 1 8-1 1-1 1 0 1 1 0 3 0 3-3 3-2 0-2 0-1 2l2 3c1 1 1 0 1-1 0-2 0-3 1-2l1 2-1-12-2-4-5-1-7 1m31 0a72 72 0 00-2 8c0 2 0 2 2 2l8-3 6-3c0-2-14-5-14-4m-741 5c0 6 1 8 3 5 2-4 3-4 3-1v3c1 1 1-1 1-4 0-6-1-7-4-5v1l2 1c-2 2-4 1-4-2-1-2-1-1-1 2m524 2l-1 1-2 1c-3 2-1 9 3 7l1 1c2 2 3 1 3-3v-6c1-2-2-3-4-1m-511 1l-1 2c0 2 1 2 4 2h3v5c0 4-2 9-4 13l-3 7c2 0 8-16 8-21 0-4 0-5-3-5s-3 0-2-2l-1-2-1 1m696 1l2 2c2 2 1 5-3 8l-2 5-2 6-3 4c1 3 2 2 2-1 0-2 0-2 2-1 1 1 1 1 1-1l1-2 1-3c0-2 0-2 1-1s1 1 1-2c-1-4 2-5 7-3 3 2 4 6 1 7a20 20 0 00-6 1l-5 5h8c1-1 1-1-2-1-4 0-4-2 0-2l2-1c0-1 1-1 1 1l2 4 1 2 1-2-1-2c-2-2-1-3 1-2h1v-4c1-2 1-3-1-7-4-6-11-14-11-10m-47 6l-2 3-2 1v2l1 4 1 4c2 1 2 5 1 5a1 1 0 10-1 2v2l1 1c1-1 1 0 1 2s-1 3-2 3c-2 0-2-1-2-8v-7l-2 3-2 8v5h5l5 1a155 155 0 000-30c0-3-1-3-2-1m37 0c-3 2-2 5 0 7s3 2 3 1l2-2v-2l-1-3c1-2-2-2-4-1m-722 4c4 0 3 2 0 2l-3 1c-1 1 13 14 14 14l-3-4-6-5-3-3 3-1c5-2 5-5-1-5-3 0-3 0-1 1m535 4c0 4 3 10 4 8l1-1c4 1 4-2 1-5-5-4-6-4-6-2m124 3l-1 2-1 1-1 2-4 2c-2 0-3 0-2 2 0 2 1 2 1 1l7-1c5 0 6 0 5-2l-1-2a1 1 0 010-2v-2c0-2-1-2-3-1m-68 1a7 7 0 01-1 5l-1-2-1 2v4c-1 1 0 2 1 1l2 1h3c4-2 4-3 0-3h-4l2-1 3-2-3-6-1 1m154 6c-1 2 1 10 2 10s4-10 3-11c-1-2-5-1-5 1m-106 3l-2 2-3 1c-3 0-8 4-8 7h7l3-1-3-2c-2 0-2-1 0-2h1c-1 1 5 2 8 0 4-2 4-2-1-1l-3-1 3-1c1 0 2 0 1-1v-2l-3 1m-30 2v1l-2 1c-3 0-1 4 3 5s4 1 3-3c0-3-4-6-4-4m-27 8c-5 2-7 8-4 11 1 2 7-4 7-7l2-4h-5m383 1c-4 0-12 6-12 9h1c2-7 15-11 15-5 0 3 0 3-3 3l-3 1h-2c-1 0-2 0-3 2-1 4-1 4 1 3l1 1c0 1 6 3 8 2s3-17 1-17l-4 1m-377 8c0 3-8 6-10 4-2-3-5-1-4 5a10 10 0 001 6l2 4 2 2 1-2 1-2-1-1 3-1h1c-1 0-1-3 1-3l1-3c0-2 0-3 4-3l4 1-2 1-2 1h9l-1-1 1-2c4-3 3-4-2-4-4 1-4 1-3-1l3-1 1-1c0-2-9-1-10 1m227 2c-4 1-5 2-4 5 2 4 15 3 15-2l-7-4-4 1m-142 7l-3 2c0 2 0 2-2 1l1 2c1 3-1 7-4 5h-1c-2 2 2 4 4 1l2-2v3l1 4c0 3 0 4 1 3l1-5c0-2 1-2 5-1l1 5 1 5c2 0 1-11-1-12-1-1-1-1 1-2 2-2 2-2 1-3l-1-1h-1l-3 1h2c2 0 3 2 0 3l-2 1c-1 1-4 0-4-1l1-1 1-1h-1l-2-1a8 8 0 016-7l-4 1m180 5c-1 1-1 2 1 1l1 1 3 1 2 1 3 1 2-2h2l1-1 2-1v-1h-4l-1-1v1h-7l-2-1-3 1"
      itemprop="regular" tabindex="-1" style="fill-opacity: 0.798; fill-rule: evenodd;"></path>
    </symbol>
    <symbol id="-posters-1650603990496-bold">
      <path d="M213 21c-2 3 0 5 2 4h2v4c1 1 1 1 1-1s2-3 2-1l2-5-1-2-1 1a4 4 0 01-1 3 5 5 0 00-4-3v2c0 1-1 1-1-1l-1-1m79 17c-2 2-4 3-4 1 0-3-3-2-5 0-2 3-1 3 5 3 4 0 6 0 8 2 3 2 5 3 5 0l-3-3-2-2v-2c-1-2-3-1-4 1m-15 8l-2 2v2l-5 15 2-3 1-2 5-10c0-2 0-2 2-1l3 1 1-4c2-2 2-2-1-2l-6 2m702 19v12h3c2 3 3-3 2-12-1-3-5-3-5 0m-576 0l1 2 1 1 1 1v1l-2 1-1 1c-1-1-8 2-8 4v1c-2 1-2 6 0 7l3 1c2 1 2 1 2-2v-5c1-1 1-1 1 1 1 2 1 2 3 2 1-1 2-1 2 1l2 2c3 0 2-1 0-3l-2-2c0-2 4-1 4 1h6c5 4 5-2 0-8-4-5-13-10-13-7m568 0l-4 1c-5 0-5 1-1 1s4 0 4 4c2 8 1 13-1 9l-2-2v1l-1 4c-1 2 0 3 1 2s2 0 2 1c0 5 3 5 4 0 1-3 3-4 3-2l3-1c2-4 3-5 0-3-3 3-5 2-5-5V65h-3m-463 4l-1 1c2 0 1 3-1 3l-1 2 1 3c0 1 4-2 4-4s3-2 5-1a2 2 0 102-3c-1 2-5 1-6-1h-3m-253 3c-2 0-2 1-1 1 2 0 5 8 5 14 0 7 1 9 3 10 3 1 5 12 3 13v36c2 2 4 1 4-1s3-3 5 0 12 3 16 0c2-2 6-3 7-1a4 4 0 006 0l3-1h3v-9c0-6-1-9-2-10l-1-3c0-3 0-4-2-4-2-1-3 0-3 1l-1 1v-2c0-3 0-3-4-3s-5 1-5 2c0 2-2 1-3-1l2-4c1-2 0-3-2-1-1 1-1 1-1-1l1-2a76 76 0 00-3-31l-2-1-4-1-20-4-4 2m43 0l-1 2a10 10 0 000 14l2 3c2 4 3 5 3 3v-2l-1-1 1-1 1-7 1-9c1-3 0-4-4-4-2 0-3 0-2 2m206 13l-4 5c-2 0-2 0-1 1v3l-1 2v1l-1 2 1 4c2 0 1 4 0 4v3c1 3 0 5-2 3l1 2c3 2 7 3 7 1l2-6c2-6 3-3 3 9a30 30 0 001 11c-1 1 0 1 1 1l3 2c3 4 4 1 3-4l-1-6-1-5c-3-7-2-7 1 0a46 46 0 005 6c-1-1 0-1 1-1 4 0 5-2 3-4l-1-3-1-1-1-3c-1-3-2-5-6-6-2 0-3-1-3-3l-1-2v-2c0-3 0-3-3-2l-2-1 2-1a1 1 0 100-2l-1-4c1-3 0-6-1-7-1-2-1-2-3 3m-6 38a10 10 0 010 6v2l1 3v5c0 4 0 4-1 3-2-2-3-3-3-1s5 4 7 3v-3l1-2v-3c-2-1-2-3-2-6a7 7 0 00-1-7l1-2 1 1 1 1c0-1-2-5-4-5l-1 5m480 2c0 4 1 5 3 2 3-3 3-3 2 0l1 3c2 1 2 1 3-4v-4h-4c-3 0-4 1-5 3m-305 0l-1 2-2 5c-2 4-2 4 0 3l2-1 1 1 1 1 1 2 1-2-1-2-1-2h-1l-1-1c0-2 1-1 5 1 2 3 2 3 4 1v-3c-3 1-2 0 0-2 3-3 0-6-3-4h-2c0-2-1-1-3 1m-149 2v2l-1 1-1 3 1 1h2l1 2 2 6c3 6 5 8 5 4h-1v-6l-1-2v4l-1 1-2-6a46 46 0 00-3-9c0-2-1-2-1-1m11 10v5c2 4 0 9-2 9-1-1-1-1-1 1 2 5-3 6-6 1l-4-2h-2c-2-2-4-3-3 0l-1 1c-2-1-5 1-5 4-1 2-4 2-3-1h-2l-1 4c0 2-4 1-4-2v4a26 26 0 010 11c1-2 3-2 3 1l1 2c1 0 2 5 0 6v10l1 1h-1l-1 1c1 2-1 6-2 5v2l-1 5c-1 2-1 9 1 9l-1 1-1 2c1 3 0 5-2 5v1c2 1 2 1 0 2-1 1-1 1 1 1l2 2c1 2 1 2-1 2v1a8 8 0 01-1 9c1 0 4-1 4-3l1-1-1-8h1l2 3a2 2 0 003 0l-1-1c-1 1-2-4-1-6a2 2 0 10-3 0c1 0 1 1 0 0-2 0-1-2 1-3l2-1h3a3 3 0 004-1c-1 1-3 0-4-1-2-2-2-19 0-20v-3c1 0 1-1-1-2s-2-1 0-1c1 1 2 1 1-1l1-2 1-1c-1-1 0-2 2-3l2-2h-1l-1 1v-1c0-2 1-2 4-2h2l-2-1h-1l2-1v-1l-2-1h2l1 2 1 1c3 0 4 6 2 8h-3l-1 1 4 1h1l-1 1h1v2a4 4 0 002 7h1v15l-2 3-1 2h2l-1 1 1 6 1-3 1-3c2 1 2-3 1-15v-13c3-3 5-7 3-5h-2l1-2 1-4 1-3 1-11 2-7 1-2v-3l1-3c0-16-1-19-3-16m-5 22c-1 2-2 3-1 4a2 2 0 01-2 2v-2h-1l-2 4c-2 0-3 2-3 3l-2 2c-3 2-3 3 0 3h2l2 4c2 0 5 3 5 6 0 2 0 2 1 1l1-4a6 6 0 012-6h-1c-1 1-2 0-2-2l-2-4c-3-2-2-3 0-2s4-1 6-6c1-4 0-6-3-3m191 4l-6 3c-7 2-15 11-12 13 2 0 1 2 0 2-1-1-2 0-1 1l-1 2c-1 1 1 2 3 1a1 1 0 11-1 2l-1-1a3 3 0 003 5c0 2 1 0 2-2 0-2 0-2 2-2 3 0 5-3 5-5h-1c0 2-3 3-6 3-2 0-1-3 3-6l2-4v-2c2-2 2-4 1-4-1-1-1-1 1-1l3-1h3l1-2 2-2v-2l-2 2m-277 13c2 1-1 3-3 2h-1l-1 2-1-2-1-2v3l2 2 1 4 1 3c2 0 3 3 1 9l-1 6c1 1 3-5 4-10 0-7 2-6 2 2 1 5 1 7-1 8l-1 3h1c1-1 1 0 1 4 0 7 1 8 5 7l2-2h-2c-4 2-4 1-4-7l1-13v-5l1 6 2 8 1-5 1-8-1-2-2-2-1-1a2 2 0 112-2l2 2v-1l-2-3h1v-1a2 2 0 00-3-2l-1-3-1 2c1 1 0 3-1 4l-3 4v-2l2-6c1-2 1-3-1-3l-1 1m234 10h-2a2 2 0 00-3 2l2 6h1a2 2 0 111 3c-2 0-2 1-2 3v17c0 2 0 2-1 1h-1l3 3h1l-1 2v1l-1 2c-1 1-1 0-1-1l-1-2-1-1-2-1c-1 0 3 6 5 7l1 4c0 2 1 2 5 2 1 0 6 8 6 10h2l1 1 2 1c1 0 1 1-1 3s-1 6 2 9c1 1 2 2 1 4l1 3 1 1a8 8 0 004 8l-1 1c-1-1-4 3-3 4l-1 3c-3 2 1 7 5 6h2l1-1v-6c2-1 2-8 1-12v-7c1 1 1 1 0 0l-1-2c-2 1-4-3-3-6 0-4 4-4 5 0l1 3 1-1c-1-1 0-2 2-4 3-1 3-3 3-5 1-3-2-6-4-4l-1-1c1-2 0-2-1-2-3 0-3 0-2-3l2-3h3c2 0 2 0 2-2s0-2 1-1 1 1 1-1c1-1 0-2-1-2s-1-4 1-4l1-3h-1c0 2-2 3-2 0h-2l-2 1 2-2c3-1 4-3 2-3a1 1 0 110-2c3 0 4 0 3-1h-1l-1-1c-1-3 0-4 2-1h2v-5c0-2 0-2-2 0h-1l-1-2c-2 1-3-1-3-4s-3-6-5-6l1 1c3 2 3 8 1 8l-2-1-1-2-2-2 2 1v-2l-2-4c1-1 1-2-1-2-3-1-5-4-3-5h-3l-4-1c0-2-4-1-5 1s-3 1-2-1c0-3-4-3-5 0m6 9l-2 4-1 3v1l-1 3v2c1-1 2 0 2 1l-1 1a5 5 0 00-1 5v5c-1 0-2 2-1 3l-1 1v2l2 1 2 1c3 2 4 2 2 0v-1c2 0 2-1 2-4l1-4h3l-1-1c-3 0-3-2-1-4l1-3v-6l-2 1-1-4c0-2 0-4 1-3l1 1v-1l-1-4v-3l-3 3m294 1l-1 2-2 4-2 3h3c3-1 7 0 7 1l-4 1-4 1c1 1 14 2 15 1l-1-1-3-2c-2-2-3-3-6-3s-4 0-3-1h9c1 0 0-3-2-3-4 1-5 0-5-2v-3l-1 2m-281 20a2 2 0 01-1 3l-2 5-2-3-1-2v2l-1 3c-1 1-1 1 1 3l2 1a1 1 0 112 2c-2 5-1 13 2 13l1-7c0-3 1-4 2-3 1 2 2 0 2-8 0-7 0-8-2-8l-1-3-1-1-1 3m21 4c0 3 1 4 2 3 2 0 2 8 0 13l1 3 2-11v-5l-2-2-1-2-1-2-1 3m141 6l3 1v3c1 3 1 3-3 3-9 0-12 1-13 3-2 3-1 3 2 2h4c2 1 2 1 5-1 2-2 3-3 6-2s3 1 3-2c-2-5-4-8-7-9h-2l2 2m-19 2c-2 3-3 4-1 3 1 0 2 0 1 2l-1 2c-1-1-2 1-3 3-1 3-1 3 1 2v4l-1 7 1 1 2-5c0-3 0-5 1-4l1 2 1 2c1 1 1 2 2 1 2 0 2-4 1-4l-1-2-1-2v-10c1-5 0-5-3-2m-709 18l-2 7-1 3-1 1v2l-4 7 4 1 5 2c1 1 1 0 1-2 0-3-1-4-2-2l-2 1c-2-1-2-1-1-2l1-3 2-2 2-2 1-2v3c-1 2 2 5 3 2 1-1 1-1 2 1 1 1 1 1 1-2l-1-4c-1-1-1-1 1-1 3 1 3 1 3-1l-2-3-2-2-1-1v-2c-2 0-2 0-1-1v-1l-3-1c-1-2-2-1-3 4m727 2l-2 1-9 2-2 1c-1-1-1 0-1 3v4h9a30 30 0 0013-3c0-1 1-2 3-2s2 0 1-1v-2l-1-1-2-1c1-1-8-3-9-1m-279 2c1 3 0 5-2 5a2 2 0 000 4c2 0 1 4-1 5l-1-1c1-1 0-1-1-1l-2 1c-1 1 0 2 1 1h1c-1 1 4 4 5 3l2 2c2 3 5 1 4-2v-3c2 0 3 2 2 3 0 2 0 2 1 1l3 2c0 1 2 3 4 3l4 3 4 3c2 2 2 2-4 2-8 1-12 3-17 7l-5 3c-2 0-3 5-1 8l8 24 2 7v3l-1 4 3 27c0 10-1 14-2 16l-5 30-1 4h-2l-2-2c-6 0-5-9 1-11l3-1-2-1c-3 1-7-1-7-2h1c1 1 1 1 1-1-1-2 2-4 4-3 1 1 1 0 1-1 0-2 0-2-3-1h-4l-4-1c-3 1-3 1-1 3 3 2 2 3-3 3h-6c0 2-3 1-5-2s-2-4 2-6l4-1h-4c-3 0-4 0-5 2 0 1-1 2-2 1l-6 3a10 10 0 01-5 5l2 1 2 1c0 2 1 2 3 1h16c3 2 1 4-2 3h-5l-3-1v5l-2-3c-2-5-3-5-2-1l1 2 1 2c0 2 0 2 3 1 5-2 7-1 5 3v5l1-1 1-2 1 1 2 1c1 1 1 0 1-2-1-2-1-3 1-3v-1c-2-2-2-2-1-5 2-2 2-3 1-3-2-1 0-3 3-3 2 1 2 5-1 7l-2 1 2 1c2 1 3 4 3 5l4 7c3 3 3 5-1 5l-3 6c1 1 1 1 1-1 0-3 2-3 5 0 2 2 3 1 4-4l1-3c1-1 1-1-1-1-3 1-7-3-8-8l-1-5c-2-2 0-1 3 1s4 5 1 5l1 1 4 3 1 2 1-2c1-4 3-6 2-2l-1 5c0 2 2 4 2 2 1-1 1 0 1 2s0 3-1 2l-1-1a83 83 0 001 24c-2 3-1 3 10 3l10-1v5l1 5v-4c0-6 0-6 2-6s2 0 2-5l-2-7c0-4 4-8 9-9l5-1h-4l-6 1c-1 1-2 2-3 1a12 12 0 012-13c0-2 0-2-1 0-2 1-2 1-2-3l1-4 1-3v-4a40 40 0 009-14c1-1 1-1-1-1l-1-5c0-6 0-6-2-6s-2 0-1-1l2-4 3-4 1-1h-1l-1-1c0-2 2-1 6 1 3 2 4 6 2 10-4 4-6 9-5 9l2-2 1-2 2-4 3-3 1-1v-2l1-3 3-9 1-6 2-12c1-7 1-16-1-14l-1-2c1-1 0-2-1-3l-2-1h1c2 2 3 1 2 0l-3-2c-2-1-2-1 0-1s3-1 1-5l-2-5-2-2h-1c0-1 0-2 1-1v-3l-1-3-2-5-4-7c-1-2-2-4-5-5l-3-3-3-2a36 36 0 01-14-13l-8-12c-2-5-8-9-7-6m-149 8c-2 2 10 4 15 2 2-1 2-1-2-1l-5-1h-8m438 1c1 2 4 5 6 5 5-1 6 0 6 3s0 3 5 0l4-2-3-3c-8-5-20-7-18-3m-717 2c-3 0-6 3-6 5 0 1 0 2-1 1l-1 1c1 1 0 2-1 3-2 2-2 2 0 3 2 2 3 3 1 3-3-1-3 1-1 2l5 5 3 3 2 1h3c2-2 2-2 3-1l2-1 1-3 1-1c1 0 2-1 2-3 1-3 0-4-2-1l1-3c0-1 0-2-2-1-2 0-3-4-1-6v-1c-1 1-1 0-1-1 0-4-4-7-8-5m685 3c-5 2-7 4-6 5v10l1 8c1 0 3-2 3-5l3-5c5-4 6-6 6-11s-1-5-7-2m-719 1c-1 2-3 3-2 1a1 1 0 10-2-1l-2 1a7 7 0 00-5 6l3-2c2-4 3-4 3-1v3l4-2c4-2 4-2 3-5 0-2-1-2-2 0m444 12v2l-1 2c-2 1-1 2 2 2s6-2 4-3c-1-1-1-1 1-1v-2h-6m-444 3c-1 3-1 5 2 8l2 3-1 1c-2-4-4-4-4-2l2 4c2 1 3 13 1 13s-1 4 0 5l1 2 1 1 1 4c-1 4-3 4-4 0 0-5-3-5-6-2-2 2-4 3-5 2-3 0-3 11 0 16v2l-1-2-2-1v1l10 10-1-1-1-3c0-2 1-3 2-2l1-2c-1-1-1-2 2-2 2 1 3 0 2-1 0-2-1-2-1-1-1 1-2 0-3-1-1-4 0-6 2-6 3-1 4 0 2 2-1 1-1 1 0 0 2-1 2-1 3 1s1 2 1-1 2-4 2-1l1 2v1c-1 2 2 6 4 5 1 0 2 0 2 2v7c-1 2-1 6 1 6l1 6-1-1-2-2-2 2c0 2-2 2-2-1l1-2 1-2v-5c0-1 0-2-1-1l-1-1c1-2 1-2-1-2h-1c1-1 0-2-1-2l-1-1-2-1h-4c-1 3 0 5 2 5l8 4v1c1 1 0 4-2 3l-1 1-1 3 2 4c2 2 3 4 1 3-1-1-1 19 1 21 1 1 2 1 2-3l1-6c1-1 0-2-1-4v-2h2l3-9 1 3 1 2v1l-1 1-1 1c-1 2 2 5 3 3h2c4 0 5-2 2-4-2-2-2-2-1-3 2-1 3-2 4-1l2-1 2-2v2c-1 1-1 1 1 2l2 2c-1 1 0 2 1 3v2c-2 0-5 3-5 5s4 5 6 5c3-1 3-1 3-9a27 27 0 00-3-13c0-3-1-4-2-4-4 0-4-2-3-3 2-2 1-7-1-10l-2-5-1-5-2-4c0-2 0-2-2-2l-2 1v2c4 3 4 5 2 4l-2 1v3c-2 1-2 1-2-1l2-5v-1h-2c0-2-2-3-3-2h-3c0-2 2-3 5-2l4-1 3-1 2-1 3-1c4 1 8 0 8-2 0-1-2-2-7-2l-3-1h-6c-1 1-1 1 0 0l-1-4a3 3 0 010-6l-6-1-5 1v-5l-1-4c-2 0-4-4-4-8l1-4v-3l-6-1m604 1v4l1 2h6v5a5 5 0 002 6c-1 0 1 3 3 3l4-5h-1l-2 1v-10c3-2 2-2 0-1s-2 2-2 5c1 5 0 7-2 5l-1-6v-4l-7-2 3-1c3 0 3-2-1-3-2-1-3-1-3 1m159 2l-2 2-2 2h-2c-1-2-2 2-1 7 0 6 3 7 3 2v-3l1 3c0 3 1 4 3 4s2 1 2 4 0 2 1-2l2-11c2-6 2-6 0-2l-2 6-1 4-1-3-1-4c-2 0-1-2 1-3l2-2-1-3-1-2-1 1m-180 7l1 1 1 1c0 2-4 1-4-1l-1 1c-2 5 0 9 5 11 2 0 2 0 1-1s-1-2 1-3c1-1 1-1-1-3v-6l-1-1-2 1m131 0v5l3 15 1 9c1 1-4 1-9-1h-2l4 2c5 0 6 1 6 3v26l2-12c0-5 3-8 8-8 2 1 3-1 3-4 0-2 0-2-1 0-2 2-2 2-2-2v-5l-1-1-1-2 1-9c0-12 0-13-1-12h-1c0-3-6-6-10-4m-736 5l2 8c2 8 2 11 1 11l-1 4 1 4 1 2 3 7c1 0 1-1-1-6-2-4-3-9-1-10 1-1 1 0 1 1 0 2 0 2 1 1l-4-18-1-4-1-3-1 3m599 11c-2 0-2 1-1 1l1 3c-1 4 2 8 5 8 3 1 5-1 3-3v-2c2 1-3-5-5-7h-3m177 13l-1 4c1 5 1 5 2 3l1-2v2h3c1 1 2 2 4 1l3 1 1 2 1-3-1-2-1 1-1-1v-3l-1 1-1 1-1-2c1-2-5-5-8-3m-93 12l-1 2v4l-1 2-2 1c-2 0-2 0 0 1h2l3-1h4l2-2 2-3h-1l-4 3-3 1 1-6-1-5-1 3m-188 10c0 5 1 7 2 9l1 2 1 1 1-7v-4c0 3 2 2 2 0l-1-3-2-2-3-2c-2 0-2 1-1 6m20 7l-1 1v2c-1 1-1 2 1 3v5c2 3 8-5 7-8l-1-2-2 2-4 2 2-2 3-4c-1-1-4-1-5 1m-426 1l-1 1c-2-1-3 0-2 1l-1 3c-2 3 0 10 3 13 0 1 4-3 4-5s0-2 1-1h1c1-3 1-4-2-4-3-1-4-5-2-8v-1l-1 1m412 1l1 3h1l1-1v-1c1 0 2 1 1 2l2 6 1-2 2-2 2-2c0-2-3-4-4-3l-2-1c-3-2-5-1-5 1m134 6c1 3 1 3-1 2l-2-1 2 2c1 2 2 3 1 5s-1 2-1 0c0-3-2-4-5-3-2 1-2 1 0 1v1c-1 0-1 1 1 2v1l-1 1 1 1 1 2 2 2 1 2h-1c-2-2-3-1-2 1 0 2 0 2-2 2s-1 0 1 1l5 3c1 2 4 2 4 0 1-1 1-1 1 1s0 2-2 2h-2l-3 1-2 1a14 14 0 010 4c1-2 2-1 1 0-1 4-3 3-3-2 1-4 1-4-1-2a12 12 0 002 15v1h2c1-2 3-3 3 0l-1 1c-1-1-2 1-2 10v2c1-2 1-3 3-2v1c-2 1-3 8-2 11l2 1 1 1-1 1-1 2h-1l-1-2v-3c-1-1-1 4-1 10l-1 3-1-1c0-1-1-2-3-2l-3-2c-2-3-1 2 1 5v7c3 1 1 5-2 5a2 2 0 00-2 4l1-1a2 2 0 014 1c1-1 3 1 7 7l3 3-2-4-1-3c-2-2-1-5 0-4v-1l2-2 2-2h-5c-2 0-2 0-1 1s0 4-1 4c-2 0-3-3-2-4l1-4c0-3 0-3 4-3l4-1-2-1c-1 0-2-7-1-8 3-2 3-1 3 8l1 3 1 4a7 7 0 01-2 6l1 1 1 2c1 2 1-4 1-7l2-1v-1c-2 0-2-1-2-3v-5a17 17 0 001-12c1-2 2-9 1-12v-2l1-1 1-2 1-1 1-4v-5c-1-1-1-1-1 1 0 3-4 11-6 11v-2l2-6 1-5 2-2 2-3 3-3 1-2v-2l-1-1c-1 0-1-1 1-1v-1c-2 0-2 0-1-1v-3c-3 0-1-9 2-11 2-1 5 1 5 4l3 1c2 0 2 0 0-1s-2-2-2-4v-9l-2 2-1 2v-4c1-2 1-3 2-2v-2c-1-2-3-3-3 0l-2 5v6l-4 5c-2 4-5 6-4 3 1-2 0-2-2-2l-3-1 2-1 1-1 1-1v-1l-2-1a2 2 0 01-1-3c2 0 3-4 2-6h-1l-2-2c-1-4-2-4-2 0m-208 9c-1 1-2 2-3 1l-6 1-3 2 4 2 6 4c1 1 1 1 2-2 1-2 3-5 5-5 1-1 2-2 1-3h-6m1 11l-3 1-2 1h-1l-3-1 2 3 5 6 2 1-2-3c-2-2-2-3-1-4s5 1 5 3 2 1 3-1c0-2 2-3 2-1h4l1-1c2-3 0-4-4-3l-5-1h-3m-377 7c1 1 0 2-1 3v1c0 1-1 4-3 4l-1-1c-1-2-7-2-8 0s-1 2-2 1h-1l3 1c2 0 3 1 3 2a1 1 0 101 0c0-2 2-2 8-1 2 0 2 0-1 1l-5 1h-1l-1 2c-2 0-1 4 2 7 2 2 2 2 3 0 2-2 2-3-1-2l-1-1 1-1c2-1 6 0 6 1a4 4 0 003 4h1c2 1 1 2-2 2h-9a4 4 0 00-5 2l1 3c0 3 0 3-1 2l-3-2 2 2c1 2 3 3 5 3 5-1 9 2 9 4-1 2 0 3 1 2l1 1v1h2v1l1 3c2 2-1 1-3-1-1-2-3-3-3-2l-3-2-4-1h-2c-1-2-2-1-3 2l1 4 2 4c0 3 1 4 2 4v-4h1l1 2 1-2c-1-2-1-3 1-3 1-1 1-1 1 1a7 7 0 002 8l1 1 1 2c-1 1-1 1 0 0h3a4 4 0 004 0l-3-2-3-1-1-1c0-1 4-2 5-1 3 2 6-8 3-11v-2c2-2 2-2 1-11a4 4 0 00-5-5l1-1 1-1c-1-1 0-3 1-4s2-2 1-3l1-2c2-2 1-5-3-6-3-2-3-2-1-3v-1l-1-1v-3c-1-3-8-3-7 0m384 9a11 11 0 01-7 2l3 3a3 3 0 010 5c-1 2-4 3-6 2l-1 1 2 1 3 2c2 2 4 3 4 1h2c2 3 6 0 4-3-1-2-1-3 1-4l1-2-3 2-4 2c-2 0-2-1 1-3l2-2c-1 0-1-6 1-7v-2l-3 2m13 2c-2 0-2 1-1 2l3 1 4 1c4 3 6 1 3-3-2-2-5-2-9-1m216 4l2 3 1 2c2-1 8 4 9 7 2 4 10 12 11 12l-2-3-3-4-1-1-2-2c0-2-3-5-8-9l-3-4-5-3 1 2m-621 12c-2 2-1 4 1 3 1-1 2 0 2 1h4l5-1h1c2-2 0-3-3-3l-2-1h-4c0-1-1-1-4 1m514 4l-5 2c-2 0-2 0 0 1 4 1 0 5-5 5-4-1-10 1-9 3 2 2-1 3-3 2s-2-1-1-3h-1c-3 2-6 6-3 6 2 0 3 2 1 2s-6 4-6 5l2-1c2-2 4-2 6-1v2l-4 3-2 1-2-2-6-1c-5-3-6-2-5 0l1 3h3c4-2 6-1 4 1-2 1-2 2-2 3 1 2 0 3-3 6l-3 4a12 12 0 0010-7l3-2c1-3 2-3 7-1 4 1 4 4 1 3-6-2-8-2-8-1l4 1c3 0 4 1 1 3-2 0-2 0 1 1 4 0 5 1 2 4v2c1 0 2 1 2 6v11l3 1c2 0 3 1 3 4l1 4v-8c-2 1-5-2-5-5v-5c0-2 0-2 2-2 3 0 4-1 3-5l1-2 1 5c0 3 0 4 1 3l2-1 1-1c1-2 2-1 2 3v1c-1-1-1-1-1 2-1 3-1 4 4 4l1 4c0 3 0 3 1 2l1-1v-3l-1-3v-6l1-2 1-3c0-2 1-2 2 0 1 7 2 9 4 7l1-2h-1c-1 2-2 1-2-2v-3l-1-4c0-5-1-6-4-5h-6c-1 1-2 2-3 1h-1v-4c1-3 3-4 3-1h2c1-1 1-1 2 1 1 3 2 2 2-2l1-4 1 2 1 2v-2c0-2 0-2 2-1a2 2 0 012 3l2 1 1-3c0-2-1-3-2-2h-1l-1-1h-2c-1-1-1-2 2-5 2-3 2-3 0-1l-3 3v-4c1-5 5-7 6-3 0 2 6 3 6 1 0-1 1-2 3-2 2-1 2-2 1-4l1-3c1 0 2 4 1 5-2 2-1 3 1 3h2l-2 1v1c1 1 0 1-2 3l-2 2h7l-3 2c-1 1-3 2-4 1-2 0-2 0-1 1l3 2 1 3v2l1-2h1l1 1v-6c1 1 1 0 1-1v-2l2 2 4 2c2 0 2 0 1 1s-1 1 1 1a8 8 0 015 2l-1-3c1-1 6 4 6 6s1 2 3 2c3 0 5-2 3-3l-1 1-2 1-1-2 1-2a3 3 0 014 1l3 2 4 2c1 2-1 2-4 0l-2-1 3 2 3 3 3-8c-1-3 1-6 4-6v-1l-1-2h-5c-5-1-13 1-11 3v1l-3 1-2-2c-1-1-1-2-2-1-2 0-2 0-2-2 0-4 6-4 8-1 1 1 1 1 1-2s-5-5-9-4l-2-1c1-2-3-3-5-1a4 4 0 01-5 0l1-1-1-2h-2c-2-1-3-5-1-5l1-1 1-2 1-2-4 2c-2 3-3 3-4 2l-5-1c-3 1-3 1-1-1s1-6-3-7l-4-1c0-1-1-1-5 2m-29 2h-2c-3-2-5-1-7 2-1 2-1 2 7 2 1 1 3 1 3 3h1c0-2 4-6 6-6 4 0 1-2-3-2l-5 1m30 5l-3 1c-4 0-5 1-5 5l5 1c4 0 6-2 4-4v-3h-1m-16 2c-3 1-3 2 0 2 2-1 2-1 1 1l-1 2c1 1 0 2-1 1-2 0-3 4-1 6l1 1c-2 2 0 4 3 4l3 1c0 2 2 1 2-1s0-2 1-1c0 2 2 5 3 5a8 8 0 00-4-15c-3 0-3 0-2-1 4-3 0-7-5-5m25 29l2 2c1 1 2 3 0 3l-1 1-1 4v4c1 1 1 1 1-2 1-5 9-10 11-8h6l-1-1-3-2-7-1-6-1c-1-1-1-1-1 1m-45 5l-1 3-1 2-2 2 7-1c0-1 1-1 2 1 3 2 5 2 5 0l2-2 2-1c0-2-1-2-3-1h-6l-3-1 3-1 2-1h-7"
      tabindex="-1" itemprop="bold" style="fill-opacity: 0.871; fill-rule: evenodd;"></path>
    </symbol>
  </defs>
  <use class="background" href="#-posters-1650603990496-background" fill="url(#-posters-1650603990496-background-gradient"></use>
  <use class="light" href="#-posters-1650603990496-light" fill="url(#-posters-1650603990496-light-gradient" filter="url(#light-filter)"></use>
  <use class="regular" href="#-posters-1650603990496-regular" fill="url(#-posters-1650603990496-regular-gradient" filter="url(#regular-filter)"></use>
  <use class="bold" href="#-posters-1650603990496-bold" fill="url(#-posters-1650603990496-bold-gradient" filter="url(#bold-filter)"></use>
  <use class="emboss" tabindex="-1" href="#-posters-1650603990496-light" fill="url(#-posters-1650603990496-light-gradient" filter="url(#emboss)"></use>
  <use class="emboss" tabindex="-1" href="#-posters-1650603990496-regular" fill="url(#-posters-1650603990496-regular-gradient" filter="url(#emboss)"></use>
  <use class="emboss" tabindex="-1" href="#-posters-1650603990496-bold" fill="url(#-posters-1650603990496-bold-gradient" filter="url(#emboss)"></use>
  <defs>
    <g class="gradients">
      <radialGradient gradientUnits="userSpaceOnUse">
        <stop itemprop="radial" stop-color="hsla(29, 8%, 80%, 1.00)" offset="0%"></stop>
        <stop itemprop="radial" stop-color="hsla(28, 8%, 73%, 1.00)" offset="15%"></stop>
        <stop itemprop="radial" stop-color="hsla(28, 8%, 77%, 1.00)" offset="30%"></stop>
        <stop itemprop="radial" stop-color="hsla(29, 8%, 78%, 1.00)" offset="45%"></stop>
        <stop itemprop="radial" stop-color="hsla(29, 8%, 85%, 1.00)" offset="60%"></stop>
        <stop itemprop="radial" stop-color="hsla(27, 8%, 81%, 1.00)" offset="75%"></stop>
        <stop itemprop="radial" stop-color="hsla(29, 8%, 74%, 1.00)" offset="90%"></stop>
      </radialGradient>
      <linearGradient gradientUnits="userSpaceOnUse" x1="0" x2="0" y1="0" y2="100%">
        <stop itemprop="vertical" stop-color="hsla(29, 8%, 80%, 0.51)" offset="0%"></stop>
        <stop itemprop="vertical" stop-color="hsla(28, 8%, 73%, 0.51)" offset="15%"></stop>
        <stop itemprop="vertical" stop-color="hsla(28, 8%, 77%, 0.51)" offset="30%"></stop>
        <stop itemprop="vertical" stop-color="hsla(29, 8%, 78%, 0.51)" offset="45%"></stop>
        <stop itemprop="vertical" stop-color="hsla(29, 8%, 85%, 0.51)" offset="60%"></stop>
        <stop itemprop="vertical" stop-color="hsla(27, 8%, 81%, 0.51)" offset="75%"></stop>
        <stop itemprop="vertical" stop-color="hsla(29, 8%, 74%, 0.51)" offset="90%"></stop>
      </linearGradient>
      <linearGradient gradientUnits="userSpaceOnUse" x1="0" x2="100%" y1="0" y2="0">
        <stop itemprop="horizontal" stop-color="hsla(30, 8%, 76%, 1.00)" offset="0%"></stop>
        <stop itemprop="horizontal" stop-color="hsla(29, 8%, 77%, 1.00)" offset="15%"></stop>
        <stop itemprop="horizontal" stop-color="hsla(29, 8%, 83%, 1.00)" offset="30%"></stop>
        <stop itemprop="horizontal" stop-color="hsla(28, 8%, 74%, 1.00)" offset="45%"></stop>
        <stop itemprop="horizontal" stop-color="hsla(27, 8%, 68%, 1.00)" offset="60%"></stop>
        <stop itemprop="horizontal" stop-color="hsla(28, 8%, 78%, 1.00)" offset="75%"></stop>
        <stop itemprop="horizontal" stop-color="hsla(28, 8%, 81%, 1.00)" offset="90%"></stop>
      </linearGradient>
    </g>
    <g class="generated gradients">
      <radialGradient id="-posters-1650603990496-background-gradient" gradientUnits="userSpaceOnUse">
        <stop stop-color="hsla(29, 8%, 80%, 1)" offset="0%"></stop>
        <stop stop-color="hsla(28, 8%, 80%, 1)" offset="15%"></stop>
        <stop stop-color="hsla(28, 8%, 80%, 1)" offset="30%"></stop>
        <stop stop-color="hsla(29, 8%, 80%, 1)" offset="45%"></stop>
        <stop stop-color="hsla(29, 8%, 80%, 1)" offset="60%"></stop>
        <stop stop-color="hsla(27, 8%, 80%, 1)" offset="75%"></stop>
        <stop stop-color="hsla(29, 8%, 80%, 1)" offset="90%"></stop>
      </radialGradient>
      <linearGradient id="-posters-1650603990496-light-gradient" gradientUnits="userSpaceOnUse" x1="0%" x2="0" y1="0" y2="100%">
        <stop stop-color="hsla(29, 8%, 60%, 0.9)" offset="0%"></stop>
        <stop stop-color="hsla(28, 8%, 60%, 0.9)" offset="15%"></stop>
        <stop stop-color="hsla(28, 8%, 60%, 0.9)" offset="30%"></stop>
        <stop stop-color="hsla(29, 8%, 60%, 0.9)" offset="45%"></stop>
        <stop stop-color="hsla(29, 8%, 60%, 0.9)" offset="60%"></stop>
        <stop stop-color="hsla(27, 8%, 60%, 0.9)" offset="75%"></stop>
        <stop stop-color="hsla(29, 8%, 60%, 0.9)" offset="90%"></stop>
      </linearGradient>
      <linearGradient id="-posters-1650603990496-regular-gradient" gradientUnits="userSpaceOnUse" x1="0" x2="100%" y1="0" y2="0">
        <stop stop-color="hsla(30, 8%, 50%, 1)" offset="0%"></stop>
        <stop stop-color="hsla(29, 8%, 50%, 1)" offset="15%"></stop>
        <stop stop-color="hsla(29, 8%, 50%, 1)" offset="30%"></stop>
        <stop stop-color="hsla(28, 8%, 50%, 1)" offset="45%"></stop>
        <stop stop-color="hsla(27, 8%, 50%, 1)" offset="60%"></stop>
        <stop stop-color="hsla(28, 8%, 50%, 1)" offset="75%"></stop>
        <stop stop-color="hsla(28, 8%, 50%, 1)" offset="90%"></stop>
      </linearGradient>
      <linearGradient id="-posters-1650603990496-bold-gradient" gradientUnits="userSpaceOnUse" x1="0" x2="100%" y1="0" y2="0">
        <stop stop-color="hsla(29, 10%, 8%, 1)" offset="0%"></stop>
        <stop stop-color="hsla(28, 10%, 8%, 1)" offset="15%"></stop>
        <stop stop-color="hsla(28, 10%, 8%, 1)" offset="30%"></stop>
        <stop stop-color="hsla(29, 10%, 8%, 1)" offset="45%"></stop>
        <stop stop-color="hsla(29, 10%, 8%, 1)" offset="60%"></stop>
        <stop stop-color="hsla(27, 10%, 8%, 1)" offset="75%"></stop>
        <stop stop-color="hsla(29, 10%, 8%, 1)" offset="90%"></stop>
      </linearGradient>
    </g>
  </defs>
  <defs>
    <filter id="light-filter">
      <feColorMatrix in="SourceGraphic" type="matrix" values="1.5 0 0 0 0
                0 1.5 0 0 0
                0 0 1.5 0 0
                0 0 0 1.5 0"></feColorMatrix>
    </filter>
    <filter id="regular-filter">
      <feColorMatrix in="SourceGraphic" type="matrix" values="1.5 0 0 0 0
                0 1.5 0 0 0
                0 0 1.5 0 0
                0 0 0 1 0"></feColorMatrix>
    </filter>
    <filter id="bold-filter">
      <feColorMatrix in="SourceGraphic" type="matrix" values="1 0 0 0 0
                0 1 0 0 0
                0 0 1 0 0
                0 0 0 1 0"></feColorMatrix>
    </filter>
    <filter id="emboss">
      <feConvolveMatrix kernelMatrix="1 0 0
                      0 0 0
                      0 0 -1"></feConvolveMatrix>
    </filter>
  </defs>
</svg>
