<svg id="-posters-1650644030973" itemscope="" itemtype="/posters" itemid="/+/posters/1650644030973" viewBox="0 0 653 512" preserveAspectRatio="xMidYMid slice" tabindex="0" xmlns="http://www.w3.org/2000/svg"><defs><symbol id="-posters-1650644030973-background"><rect itemprop="background" width="100%" height="100%" tabindex="-1"></rect></symbol><symbol id="-posters-1650644030973-light"><path d="M0 256c0 249 0 256 2 256 1 0 2-1 3-8l1-8-1 8 1 8 1-8c0-5 0-8 1-7h1l4-1h4c4-2 35-4 48-4h37c14-1 14-1 12-3-3-2-1-3 4-3l7-1c3 0 3 0 2 2h3a50 50 0 0112 0c6 0 10 1 10 3h1l2-2 3-3c1-1 1-2 2-1l2 1 1 2c0 2 5 1 5-2 1-1 0-2-1-2-2 1-3-2-1-3 3-2 5-1 4 1 0 2 0 2 3 2s4-2 1-5v-1l2-1 8 1 5 1 5 1h2c0-3 9-3 16 0 3 1 4 2 4 4s1 2 4 2l17 1 19-1c5-1 9-2 13-1h24a117 117 0 0119 0c0-1 5 0 13 3 9 3 19 4 24 1l8-1h9c5-1 8 0 4 1-2 1-1 1 3 1 3 0 4 0 2-1l-1-1 2-1 2-2 1 2c-1 2 0 2 6 2h7l6-1h6c1-1 17 1 18 3h3l3 1c4 3 28 4 30 1h1l37 3 42 1a535 535 0 0146 2l8 1c0 2 0 2 4 1 6-2 12-1 10 1v2c3 1-1 2-6 2-4 0-6 0-5 1l6 1c6 0 6 0 4 1h-5l-5 1h26c5 0 8-3 4-4l-1 1c0 1-2 2-6 2h-10l4-1 4-1-4-1c-4 0-4 0-4-3 0-4 0-4 5-4h7l8 1 9 1 11 2c4 1 5 2 3 2l-2 3 1 2 2 1c2 1 2 0 2-255V0l-1 203v204l-4 1c-2 1-4 2-5 1h-4l-2-1v1l-2 1-4-2-4-1c-1-2-9-2-9 0-1 1-1 0-1-3 0-4-2-6-5-3l-3 3c-2 0-3 4 0 4 1 1-2 1-6 1s-7 0-6-1c4-1 2-2-5-2-7-1-8-2-6-3 2-2 1-4-1-4l-3-4c-2-3-3-4-5-4-3 0-2 7 1 9 2 2-1 3-6 4-4 0-5 1-5 3l-1 2-1-4c0-4 0-5-2-5s-2 1-2 4 0 4 2 4v1c-1 1-14 2-15 1-1-2-3-1-2 1 1 4-5 3-9-2l-4-3 1 2c2 1 1 2-2 1-1-1-2-1-4 1l-5 1h-4l4-1c4-1 4-1 1-1l-6-1c-2 0-2 0-2 2l1 3c-1 1-6-2-6-4s-1-2-4 0c-2 3-15 3-18 0-2-1-2-1-2 1s0 2-2 2l-4-1-2-1c0-3-1-2-6 0-4 2-6 3-11 3-6 0-7 0-7 2l-4 1h-4v8h-4l-4-1-2-3c-3-1-3-4 0-4 1-1 0-1-2-1s-4 0-3 1c3 0 2 2 0 4s-13 3-13 1l1-1v-1h-7l-3 1h-2c-1-3-7-1-8 2-1 2-1 2-10 2l-10-1c-2-2-10-1-11 1l-7 1a9 9 0 00-12 7 5 5 0 002 7c1 1 0 1-1 1l-4 1h-1l-7-1c-14 0-21-4-12-7l4-2h-3l-2-1c-2-2-4-1-5 2l-3 2v-2l-5-1c0-2-3-3-4-2-1 2-5 1-4-1h-3l-3-1c0-1 5-3 8-2 4 0 4 0 4-3 0-4-2-5-6-3l-8 2-5 2c0 2-5 1-9-1s-5-3-2-5c1-1 0-1-4-1l-6 1 3 1c3 0 4 0 4 3 0 5-1 5-5 5-3 0-4 1-4 3 0 3 0 3-8 3-9 1-10 2-8 4 2 1 2 1-4 1l-7-1-2-2-1-2v-1l-2 1v1c1 1 1 2-1 2-4 1-6 1-8-1l-2-2h5l-1-4a7 7 0 01-8-6v8h-5l-8-2h2l4-1c-1-1 1-5 3-5s1-3-1-4c-2 0-4 5-3 6 1 2-5 1-6-1h-7l-9-1-9-1c-1-1-19-3-21-2l-6 3c-6 1-7 3-1 3l5 1-4 1c-3 0-3 0-1 1v2l-4 2c-3 2-24 0-24-2l-2-1c-3 0-8-2-8-3 0-2 3-4 3-3 2 1 9 1 9-1 1-1-6-7-9-7l-1-1h10c2-1 2-1 0-3l-1-1c4-2 9 1 6 2h4c2 0 1-2-1-3l-1-1 1-2c0-2 0-3-5-3-11 0-15 1-15 3l-3 3-5 1h-9v-1l6-1c9-1 15-10 7-11-3-1-3-3 1-3l2-1 8-4 3-1 3-1c4-1 6-3 6-5v-5c0-2 0-3-4-3-5 0-11 2-11 3l-2 1c-2 0-4 1-5 3l-3 3a15 15 0 00-11 13c-1-1-1 0-1 1 0 2 0 2-9 2l-10-1-12-2a58 58 0 01-13-1h-2l-12-2c-12 0-13-1-13-6 0-4 0-4-2-4s-3 0-3-2l-1-3-1 1c0 2-13 0-14-1l-1-4c0-3 0-3-1-2-2 3-2 0-2-14l-1-15-1-130L1 0 0 256m0 1c0 140 1 198 1 127a76920 76920 0 00-1-127M309 81l-5 2h-8c0 2-7 4-8 3-2 0 0-2 2-2l2-1h-9l-24 2c-19 0-24 1-25 2l-7 1c-11-1-20 0-23 1l-6 3-9 2-10 3c-5 3-15 5-30 8-16 4-32 11-46 20a99 99 0 00-42 101l2 7-3 2c-5 4-4 6 1 3 4-2 23-4 20-1l-3 1-8 3-8 4c-3 1-4 1-4-1-1-3-2-4-3-2s1 9 2 11l3-1 4-1 5-2c8-5 13-2 15 9l3 9 2 6 2 7 2 6a114 114 0 007 25v1c0 2 3 9 8 15l4 7c0 2 11 13 12 13l1 1a23 23 0 0012 11c1 1 10 8 12 8l3 2 8 5 12 6c17 8 24 10 45 14 17 4 23 3 20-1-2-1 1-4 5-5l7-1 12-2a261 261 0 0054-10l15-4c9-1 15-2 23-5l16-5 5-3 2-1h2l2-1h3c4-4 9-7 12-7l21-3-4-1h-4c0-1 7-2 10-1a48 48 0 0024-4l3-1 5-2h2c1 1 2 0 4-1 5-4 16-7 16-5l4-3 6-5 7-5c3-3 5-4 7-4l4-1c0-1 1-2 4-1l4-1c0-1 7-3 12-3 4 1 18-6 22-11 1-1 2-2 3-1l4-1c3-3 8-5 10-5l4-1c2-3 8-2 12 1a35 35 0 0114 13l6 5 4 4 2-2 2-7c0-3 1-5 3-7 2-1 2-3 3-7 0-6 2-8 5-7l2-1-1-1c-1 0-2-1-1-5 0-7-6-17-12-18l-2-2a22 22 0 00-15-11l-2-1-3-3c-2-1-2-1 10-7a146 146 0 0027-16l5-4c1-13 1-13-1-14s-2-3-2-5l-1-7-2-6c0-3-5-4-7-2l-5 3-5 3c-1 2-13 8-15 8h-5l-3-1c1-2-5-10-8-10l-1-2-2-3-2-2c0-1-3-6-9-11l-2-4c0-2-2-3-3-4l-3-2-11-11-2-3-2-3-4-3c0-3-2-5-7-11-4-5-17-8-16-3 1 0 1 1 0 0l-1-2-1-3-2-1c0-2-5-5-7-5l-3-2c-2-2-6-3-16-5-6-1-12-4-13-5l-3-1-4-1-25-3-14-3-10-1-13-3-30-1c-2 0-3 1-3 2 1 2-3 2-3 0-1-2-19-5-22-3h-5l-6-1-8-1h-6m-135 52h-4l-5 1-2 1 2 1c4 2 12 0 12-2v-2l-3 1m-29 9a76 76 0 00-17 12l-4 3c-3 4-2 4 5-2l13-9 8-5-5 1m43 12l-1 4a24 24 0 00-2 13l-1 7 1 5c1 0 2-3 2-7l2-6c1-3 1-6-1-4l-1-1 1-1c2 1 3-2 2-6l-1-4c-1-2-1-2-1 0m10 2l-5 15-1 5-2 6-2 6v4c1 1 4 0 4-1l2-5 8-23c1-6-2-11-4-7m84 2c-1 2 4 5 7 5 5-1 4-3 0-5h-7m-70 2l-1 2-1 1c-3 0-9 13-11 19l-1 5c-1 1-1 1 0 0l2-1 3-4a12 12 0 004-6c2-1 9-17 7-17l-2 1m9 3l-1 2-6 8-6 9-3 4-3 4-1 1-1 1h2l2 1c0 1-3 2-4 1-3-2-5 2-3 4s2 2 8-3c4-4 5-6 4-7l1-2c2 1 9-6 9-7 0-2 6-8 7-8 2 0 1-8-1-8h-4m72 1c-3 4-1 8 10 13 7 4 7 3 1-4-9-11-9-11-11-9m-183 12l-4 9-3 8c-1 2-1 4 1 4l2-6 4-10c5-10 5-11 0-5m118 3l-6 4-4 3c-1 0-5 4-5 6l-3 3c-4 3-3 4 2 1 3-3 4-3 6-3l10-10 1-1a4 4 0 004-4l-5 1m-2 14c-2 0-3 1-3 2v2c-2 2-1 4 0 4l4-2c1-2 4-3 5-3h3l-3-1a2 2 0 01-2-3l-4 1m155 5l15 3 18 2 12 2h4l-3-1-39-6h-7m-141 1l-2 2-6 3c-4 4 0 4 6 0 5-2 9-2 8 0v3c2 2-2 6-5 5-2 0-4 2-4 4s9 2 12 0l-1 2c-1 3-2 4-1 5l1 2c-1 1 0 2 1 1l1 1-1 2-2 1 2 2c1 2 1 3-1 3l-1-2h-1c-2 2-3 3-1 4s1 2-3 2l-7 1h-3c0-2-2-3-4-3-2 1-2 4 1 4l5 2 9 1c5 0 7 2 2 3l-8 1c-5 2-5 2-7 1-1-1-2-2-3-1-2 0-2 0-3-2 0-1-1-2-3-2a6 6 0 01-5-2 18 18 0 0011 9l5 2c4 1 4 3 0 6-3 4-8 4-7 1l-1-1-1-2-3-1h-1c2 0 0-4-3-5l-3-2c-1 4-1 4 6 11l3 1c1 0 2 1 1 2l1 1c2-1 2-1 1 1-1 3-5 5-8 4l-2 1 1 1-1 2c-5 5-8 11-4 10h2c0 4 7 0 9-5 1-2 1-2 2 0 0 2 2 1 6-3l3-3c10-10 10-11 7-12v-2h1c2 1 5-2 5-4l2-3 1-3 2-7c3-7 4-24 2-25v-2c2-1 1-7-2-8l-2-2a7 7 0 00-4-5h-5c-1-1-1-1 0 0m-140 3l-2 8-1 7-2 3c0 3-3 8-6 11l-2 3 6-3c6-4 9-8 7-13v-2c1 0 2-2 2-8v-8l-2 2m76-1c1 2-2 3-6 3s-5 0-7 2l-2 2 2 1 2 3 10 8 1-7c0-6 0-7 2-9 2-1 2-2 1-3s-3-2-3 0m128 0l-6 1c-14 0-33 19-38 37a100 100 0 01-9 22l-4 8a33 33 0 00-6 10l-1 2c0 2 0 2-2 2-2-1-2-1-2 1l-2 2-2 1c1 2-1 4-3 3l-2 2-2 1-2 2c0 2-2 4-3 2-2-2-3-1-3 1s-2 3-3 2c-2-1-3 0-3 3 0 2-2 3-4 0-2-1-2-1-2 1l-2 2-2-1-1-1-1 2c0 2-2 3-4 0-1-1-1-1-2 1 0 2-1 3-2 1-2-2-4-1-4 1 0 3-3 3-3 0a2 2 0 10-2 2l3 2a64 64 0 0021 10 392 392 0 0029 12c1 2 2 1 3-4l2-8a119 119 0 008-19l4-6 6-9 2-4c0-2 1-2 4-1l2 2-3 1c-3 2-2 2 4 1h7c2 1 6-1 5-2-2-3-2-5 0-5 5 1 9 0 8-1l-3-1c-3 1-3 1 0-1 5-2 4-4-1-3l-20 2c0-3 5-4 24-4 9-1 9-1 10-3 0-2-1-3-4-2l-4-1-3-1a2 2 0 110-5c2 1 2 1 0 0-3-1-5 0-4 2l-2 1-2 2h-2v-2c2 0 1-3-1-3l-3 4-2 3-1-1 2-4c2-6 5-6 29-5h12l-2-1v-1c0-1-5-2-7-1h-21l2-3v-3c-2 0-7 4-7 6l-1 1c-1 0-1-1 1-5 3-6 3-6 9-5 2 0 4 0 3-1l-1-2c-1-3-4-4-5-1-1 2-1 2-1-1l4-7 5-6c0-2 3-2 10-3a105 105 0 0024-3c6-1 5-4 0-3-3 0-3-2 0-4l3-1h-4l-7 1-2 2c-1 2-4 3-5 1 0-2-7-3-9-1h-1a52 52 0 0112-15c-1-1-7-2-8-1m8 26c-4 1-7 3-4 3l1 1c0 1-5 2-6 0-1-1-1-1 1-1 2-1 2-1 0-1-7-2-16 1-16 6 0 2 0 2 4 2l14-1c9-1 14-2 11-4-3-1-2-4 1-4l3-1h-9M87 237c-7 3-8 4-3 3 11-3 20 1 22 9 1 4 4 7 4 5s-5-12-8-15c-5-5-8-5-15-2m250 1h23l-10-1-13 1m-39 6l-4 1c-3 0-3 2 1 3s23-2 20-3c-1-1-16-2-17-1m-95 9c0 3 5 11 8 13l1 1 1 1c2-1 2-3-1-4-2 0-2-1-1-2l-2-3c-1-1-2-2-1-3l-1-1-3-2h-1m-75 26a37 37 0 009 9l2 2a23 23 0 0020 7l2 1h-2c-6 0 10 4 20 4a51 51 0 0041-13l9-7-7 4a199 199 0 01-14 8l-6 1-8 1c-4 2-34 1-36-1l-6-2-9-4-5-3-5-3c-3-4-5-5-5-4m104 61l1 1 1 2 3 4 2 3 2 2 1 3c-1 1 0 2 1 3l1 3 1 2v-10a9363 9363 0 00-6-11c-1-3-7-4-7-2m-80 67c0 4 5 7 15 7l9 1c1 1 3 2 5 1s2-1-1-1l-4-2h-1l-7-1-7-2c-3 0-6-2-5-4 0-2 0-2-2-2s-2 1-2 3m78 2l-7 2-7 2-8 1-11 2-2 1 2 1a10 10 0 0011 0l3-1c2-1 14-3 19-2 4 0 6-2 3-3v-3c0-1-2-2-3 0m-65 14c-2 3 2 4 8 3 7-2 9-3 3-3h-11m30 10c-3 1-5 2-11 1l-8 1-2 2-1 1-1 3c-2 0-3 1-3 2l-1 3v1l-1 1c-1 1 0 1 2 1l5 3 7 2 6 3c3 2 4 3 4 0h2l1-1 3-2h3c1 1 2 1 7-1a48 48 0 019-3l4-2 3-3c0-2-3-1-6 1l-2 2-1-3c-1-2-2-2-5-1-5 1-4-4 1-5l2-1a40 40 0 01-7-1l-2-2c-2-4-3-4-8-2m88 0c-2 2 0 4 3 4h2c0 1-3 2-9 2-12 0-23 1-22 2l1 3c0 2 1 2 4 2l5 1-1 1v3h7l6-2h9c0-2 3-1 7 3l2 4c-1 1-1 1 1 1v1h-3v1c2 1 4 0 6-2s3-3 4-2c2 0 2 0 0 2-2 1-2 1 0 1s5-2 6-5c0-3-1-5-2-3s-3 1-3 0c0-2-1-2-3-2h-3l2-2 2-4h7l2-1-12-2h-8c-3 0-5-3-1-3l2-1-3-1-5-1h-3m-123 23l-4 1h-4l-8-1c-5 0-8 0-7 1 2 0 3 1 5 3s7 3 16 2l4 1c1 2 2 1 2-3 1-3 1-4-1-4h-3m167 0c-2 1-2 1 2 1l6 1 6 1h5l2 2h-12l-12 1 2 1 2 2c0 3-2 3-5 0-2-2-2-2-1-4 1-1 1-1-1-1l-3 1 1 1 1 2-5 1-13 2h2c5 0 6 0 6 2 1 2 1 2 2 1l2-2 1 1c-1 1 1 3 4 4l4-1c0-2 3-3 3-1 1 2 4-1 4-3l11-1c9 0 12-1 13-2l-2-1c-2 0-2 0-1-1l4-1c3-1 1-3-6-5-6-2-11-2-13-1h-9m-78 8c1 1 1 1-1 1-2-1-8 1-8 2l-5 1c-17-2-22-2-23 2l1 2 1-1 3-1 3 1 11 5 1 2v3l7-1c9 0 15-1 14-3l2-4 2-2-3 1c-5 1-6 1-1-1l5-2h11l3-2h4c2-1 2-1-3-2l-8-3-4 2c-1 2-6 1-9-1-1-2-4-1-3 1m-100 1c-5 0-7 2-6 6 0 2 0 2-4 2-5 0-7 1-4 2s9-1 9-3l3-1c7 2 12 2 12 1l-7-1c-9-1-12-4-4-4l4-1 4-1 5-1h-4l-8 1" tabindex="-1" itemprop="light" style="fill-opacity: 0.9; fill-rule: evenodd;"></path></symbol><symbol id="-posters-1650644030973-regular"><path d="M253 86c-15 0-17 1-19 2-1 2-3 2-5 2-10-3-18-3-16 0 1 0 2 2 1 3 0 1-1 1-2-1-2-2-8-2-14 0l-8 2-15 6 3 1c11 0 15 2 5 2l-7 1-5-1h-8l-12 3c-35 6-72 33-82 59l-1 3-7 28a126 126 0 002 35c0 4 1 4 3 4l6 1c4 0 14-3 17-5 3-3 4-7 2-7l-2 2a3 3 0 01-6 0c0-2-2-3-5 0h-7l-1-1 3-1 3-3c1-2 2-2 4-2l4-1 2-2 3-2h-2c-2 1-4-1-2-2s0-3-2-3l1-4 2-5c-2-3 0-5 4-6l4-1c2-2 3-1 3 1s-1 3-5 3l-5 2c-1 1-1 1 1 1 2-1 4 1 1 2-1 1-1 1 2 1l4 1c2 0 5-6 5-10-1-2 0-3 1-3l3-7c0-3 3-8 4-8l1-2 2-3 3-3c1-2 1-2-1-2h-2l1-1c2 0 10-8 10-9s1-2 3-2l2-2 1-1 4-3 3-2 4-3 4-3 8-4h3c2 0 3 0 5-3l4-2h9c12-2 23-2 24 0l3 1 1 1-1 1-1 1h3c3 0 4 0 8 4s6 5 7 3h2l3 2 2 2v2l1 2c-1 1-8-3-8-4l-4-2-6-2-5-1-8-2c-14-4-34-1-51 7a73 73 0 00-23 21c-3 0-15 30-16 41-1 15-3 20-9 23l-3 2 4 1c6 2 10 7 16 19a93 93 0 0025 30l3 2c8 6 15 9 30 11 12 1 26 0 30-2l5-1c5-1 18-8 19-10 0-1-3 0-9 4l-7 2-9 3c-3 1-4 1-5-1-1-1-2-2-4-1-8 1-10 1-18-1-11-1-16-3-18-4-1-1-4-3-8-3a21 21 0 01-10-5l-4-4-5-5-3-4-4-7c-4-5-4-6 0-5l4 1h2l2 1c0 2 4 2 5-1l3-1 2-1 1-1-3 4c-5 4-5 5-4 9v5c1 1 5-3 5-4 0-3 5-6 7-6 4 1 4 3 0 6-3 4-4 7-3 8 2 1 6 1 6-1l2-2 2-2 2-3 1-3v-2l2-2 1-1 3-5c4-5 5-5 3 0a105 105 0 00-6 15c-1 2-2 5-4 6-2 3-2 3-1 4v3c1 2 5 3 5 1l1-5 2-6 3-3c2-2 2-3 1-7 0-4 0-4 2-4s2 0 1-3c0-3 2-7 5-7 2 0 2 2 0 8l-3 11-6 14c-2 5-1 7 5 8 3 1 4-6 2-8v-3l1-5v-3l3-7 3-9 2-7c0-5-3-7-3-2 0 3-2 4-4 2-2-3 4-12 9-12 7 0 13-15 8-18-1-1 1-4 6-9 2-3 3-6 2-7-2-1-1-4 2-6l2-3h-2l-3 2c-1-1-5 7-5 10 0 4-5 9-9 9-3 0-4 1-4 6 0 6-1 6-6 2s-7-2-5 6v6c-2 2-3 1-4-1 0-4-2-4-4 0-1 3-2 4-4 5l-5 1c-4 4-17 9-18 8-2-3 2-9 6-9l5-3 5-2-4 1-6 1-7 2a15 15 0 00-14 8v5c-2 0-4-1-4-3l-4-9-1-18c0-13 2-24 4-24l1 4 2 2c1 2 0 6-1 6l-1 2c0 2 0 2 3 1h16c0-1 2-1 6 1l9 3 6 3c1 1 5 2 10 1l-6-3-3-1-4-2-10-4-2-1-4-2-5-1-3-1-3-2v-3c1-2 16 3 16 5h4c3 0 5-3 1-3l-3-1-6-4c-5-3-10-8-6-7h4c1-1 2-1 3 1l3 1 2 2 2 2 3 2c2 2 2 2 3 1 1-2 1-3-1-4s-4-3-3-5l-2-2c-3-1-4-3-1-4l3 1 2 1 4 3c2 3 3 3 4 0 0-2-1-3-3-5-2-3-2-6 0-6l8 12c3 7 3 7 5 6v-11c1-2 4 0 4 3l1 2v-3l-3-12-1-4-1-4c-1-2-2-3-1-5 1-3 4-2 5 3l2 6v4c-1 1 2 8 3 8 2-1 3-6 1-8l-1-4c2-3 2-6 1-8-1-1-1-1 1-3s2-2 0-4c-3-3-3-5 0-5s5 6 5 13c0 8 4 12 4 5s3-15 6-15l1 4 1 4 8-8 3-1 2-2c0-2 0-2 1-1l4 2c3 0 8 2 12 5l2 2 1-3v-5c-1-1-1-1 1-1l2 1c0 2 4 3 10 2 5-1 6 1 0 2-4 0-5 2-1 2l4 1 2 4c2 3 3 5 0 5-2 0 0 2 5 5l4 4 4 2c3 0 2-1-2-3l-4-2 3-1c5 0 12 2 10 3-3 2-1 3 3 3l6 1 4 1c2 1 2 1 0 1-2 1-2 3 1 3l2 1 3 3c5 1 6 1 6 3l3 1c4 0 7 2 5 3v3c1 2-1 3-3 1h-13c-7-1-17-7-31-19a25977 25977 0 01-21-19c-2-1-3 0-1 1v3c-1 0-1 1 1 1l2 3c0 2 0 2 3 2h3l-1 1-2 2c-1 2-2 3-4 2-2 0-3 1-10 9l-13 15c-18 18-19 21-13 20 2 0 3-1 3-4 0-2 1-3 2-3l3-2c1-3 2-4 3-2 2 2 0 8-3 8-3 1-3 3 1 6 2 2 2 2 1 3-2 1-1 5 2 6l3-1c1 0 7 2 8 4l4 1c3 0 13 3 14 5l5 1c5 1 5 1 5-1v-4c1-2 0-3-4-1-2 1-4 1-5-1l-5-1c-3 1-19-4-19-6l16 1 8 1 7 1h4l-3-3c-3 0-3 0-1-1 4-1 5-4 1-3l-8-1h-8c-4 2-18 3-19 1-1-4 4-6 14-6 12 0 16-1 17-3l2-4c3-2-2-1-5 1-5 3-26 6-26 4 0-1 2-2 5-2l6-2 3-1 2-1 5-3c3 0 6-2 7-3l4-4c4-4 1-3-9 2l-23 11-1-1c0-1 0-2-1-1l-1-1v-2c-1-1-1-1 1-1l2-1 10-5 2-1 6-4 9-4c4-1 5-3 3-3s-2 0-1-2v-4c0-2 1-3 5 0l2 4c0 2 2 3 4 3v-2c0-2 0-2 3-1s3 1 2 2-2 2-1 3l-1 1a2 2 0 100 3l3 1c1 1 0 4-2 4-2-1-3 2-1 4 2 3 3 4 3 1l2-2c2 0 6-4 5-6l1-1c3 0 2 5-1 6s-3 3 0 3c3-1 4 1 1 2-4 0-5 2-2 2 4 0 8-2 8-4 0-3 8-6 9-3l5 1c4 1 4 3-1 4l-5 1c-6 2-19 5-21 4s-2-1-2 1c0 4 1 5 3 3s7-3 5-1h2c2-2 7-3 7-2v1l-5 3-4 3-1 2c0 2 2 1 6-3 3-3 5-4 7-4 3 0 5-2 2-3-2-1 1-2 6-2l5-2c4-3 25-6 25-3l-5 7-6 7c0 1 17 0 34-4 2 0 2 0 2 5 0 7-1 9-4 9-2 0-7 4-6 5l4-2 1-1-1 6-1 7c0 6 0 7-2 9l-3 4-3 2-3 2c-1 3-1 3 1 3 1 0 2 0 1-1-2 0 0-2 3-2s3 1-1 6c-4 4-4 6-1 6l7 2 5 2 1 1-7 1c-6 0-6 0-10 4s-5 4-9 3-7-1-4 1l4 1c2 0 3 0 2 1 0 1-4 2-17 2l-37 2c-1 1-9 14-12 23l-5 11c-4 8-3 14 3 25 4 10 4 10 3 13-2 3-2 4-5 3-4 0-7-4-4-5 1-1 1-3-1-3l-1-2c1-1 0-2-1-2s-2-1-2-4l-3-5-1-2-2-2v-1c1-1 4-2 6-1 3 0 3 0-2-2l-7-3-7-3-12-5-10-5c-3 0-7-2-9-4-2-1-4-2-5-1-3 0-3-2-2-5 2-3 3-4 5-2h7l2-1c1-2 1-2 3 0h2c0-2 2-3 3-2h3c0-2 3-3 4-1s2 1 2-1 1-2 3-2 3-1 3-2c0-2 2-4 3-2 2 2 3 1 3-1s1-2 3-2c1 0 2 0 2-2l2-1c2 0 2-1 2-2l2-3 2-2 2-1c1 0 2-1 2-3 1-4 0-4-5 1l-7 5-5 4c-4 4-18 11-24 13-14 4-42 0-55-9-9-5-28-25-32-32l-4-7-2-5c-2-7-5-9-15-8-8 0-10 0-14 2s-5 4-2 3c5-1 8 2 13 15l2 4 1 5 1 4v2l1 2 2 4 1 5v1l2 2v4c2 1 4 6 2 7s1 5 5 5c2 0 3 3 1 3l-1-1-1-1c-2 0-2 1-1 3 1 1 2 2 1 3l1 2v2l1 3a25 25 0 016 9l3 5 5 6 4 4c5 5 11 11 13 11l6 6a21 21 0 0011 7l3 1 3 2 7 4 7 4 5 2 4 2 8 3c27 9 51 13 46 7-2-2 4-6 8-6l12-4h5c0 2 12 1 17-1l8-1 9-2 6-1-4-1-4-1 1-1h9l2 1h4l3-1 5-2c6-2 7-2 4-4-2-1-2-1 1-1l5-1 2-1c1 1 2 0 4-1l3-1 12-5 4-2 6-1 7-3 5-1c2 1 4 0 7-1 5-2 5-3 5 1l1 2 7-6 4-2 7-2 6-1c6 0 10-1 8-2l-4-1c-6 0-2-1 4-1l5-2 2-2 2 1 2 1 2-1c0-2 4-3 5-1l2 1c2 0 2 0 1 1a2 2 0 102 2l5-1 6-2c3-1 2-1-2-1-3 0-1-4 3-5l4-1c2 0 3 1 2 3l6-1c8-2 13-4 11-5l-2-1 2-1c4 1 10-1 14-6l8-5c2 0 4-2 4-3l3-1 1-1a1 1 0 113 1h2l12-3c3 1 3 1 2-1-4-2-5-3-8-3h-3l3-1 3-1 2-2 3-1c0-2 0-2 1-1 2 1 5 0 5-1l4-1 4-1 2-1c2 0 2 0 2 2v2l1-1 3-1 9-3a25 25 0 0130 2c4 3 4 3 4 1s-1-3-5-4c-4-3-4-3-3-5v-9l3 2 3 2c1 0 2 2 0 3s-1 2 1 2l2 2c-2 2 4 7 6 6l3-1 2-3c2-2-1-3-3-1s-6-1-6-5 4-7 7-5l4 2c1 0 2 1 2 3l1 2 1 2c0 2 2 1 2-2l2-4 2-6-7 4c-1 1-1 0-2-3l-1-4v-2c2 0 3-2 1-2l-2 1c0 2-6-1-6-3l-4-3-3-2-3-4c-2 0-3-1-3-2l-2-1c-3 0-4-2-2-4v-2c-2-3-1-4 2-2h4l-1-1-1-1-2-3c-3-2-3-2 12-9l28-17a30 30 0 00-2-20l-1-5-1-2-2-3-2-2c-2-2-9 0-9 3l2 1 3 1-3 1h-4c-1-2-1-2-8 2-5 2-7 4-6 4h2l3-1 4-2c2-3 5-4 5-2l-2 2-2 1c0 2-5 5-8 5s-4 1-2 2h-1l-2 1c0 2 8 0 14-4l8-2-1 1-3 2c-5 4-19 11-24 11s-6-1-3-3 3-5 0-5c-4 0-5-2-2-4 2-2 2-2 0-3l-2-2c0-2-4-5-5-5l-1 3c0 4-7 2-8-3-1-4 2-7 5-4l4 1c4-2-2-5-8-4-5 0-5 0-4-2 0-2 1-2 4-1l3-1h-2l-2-1c1-2-1-6-3-6s-4 2-2 2l-1 2c-2 2-2 2-2 0 0-3-2-5-4-3l-1-1-1-3 1-2 1-1-2-1-2-1-3-5v5c2 0-2 3-5 3l-2 2 1 1c1 0 2 1 1 2l-2 1c-2 0-3 3 0 3v2c-3 2-5 1-4-1l-1-2c-2 0-2 1-2 3l-1 3-1-2-1-1c-2 0-1-2 1-2l1-2c0-1-3-2-5-1v3l-1 3c-3 0-3-8-1-9 4-1 2-2-4-2l-1-2c0-5-5-8-7-6v4c3 0 3 2 2 3-2 3-7 0-7-3l-2-2-2-3c0-1-1-2-3-2l-2-1 3-1c3 0 4 0 7 2s5 3 5 1l-2-2c-2 0-2 0 0-2 4-3 8 0 9 6 1 4 5 6 11 4 4 0 3-2 0-3-2 0-2-1-2-3v-4c-2-1-1-2 1-2l2-2 4-1h2l-1-1c-8-1-10 0-10 1-2 3-7 0-7-4h2c2 2 5 2 5 0l1-1c1 1 2 0 1-1h-1c-1 1-2 0-4-2a7 7 0 00-6-3c-3-1-7 0-7 3-1 2-1 2-2 0v-6c-2 0-5 2-5 4l1 1v1c0 2-5 4-12 4s-8 1-8 3l-1 1-1-1c1-2-2-5-2-3-1 1-10 0-12-1-2-2-1-3 2-3l3-1-3-1c-5 0-6 0-5-1 0-2 4-3 6-1 1 1 7 0 8-2l-2-1-2 1h-2c-2-1 1-3 4-3h5c1 1 4 1 3-1l1-2c1-2 1-4-1-4l-1 2c0 2-3 3-5 1-2-1-2-1 0-1 3-1 2-3-5-4l-5-2 2-1h6l4 1c1-1-1-4-3-4-3-1-2-3 1-3h5c3-1 6 0 6 2l2 2c2 0 6-3 4-3l-5-3c-3-1-4-2-5-1h-14l-15 1-3 1c-2-1-2-1 0-1 3-1 2-3-2-3-2 0-2 0-2 2 1 2-3 3-4 1h-5l-3 1 3 1-4 1c-7 1-9 0-9-2-1-3-5-3-8-1-1 1-3 0-3-3h5l1-2a118 118 0 00-31 1l-5 1c0 1 11 2 15 1 3-1 4-1 1 2l-1 3v1h-1l-1-1-3-2-1 1-1 2c-2 1 1 6 4 7 2 0 2 1 1 2-3 2-7 1-6-2l-1-3c-3 0-4 3-2 4 1 1 0 1-2 1l-5-2h-4l-2-2c0-2-1-3-2-3l-4-2-3-2-1-1 2-1c4 1 5 0 2-2-2-1-2-2-1-2v-1c-2-1 2-4 7-4l6-2c1-2 7-1 8 1 0 2 6 2 13 1 2 0 1-2-1-2-8 1-11 0-11-3 0-2 0-2-4-2l-5-1h-4l-6 2c-1-1-4 0-6 1h-3l1-3c0-2-2-1-3 1l-2 2-1 1c-1 2-5 0-5-2s-5-7-6-7v2a1 1 0 01-1 2l-3 1h-4c-1-2-3-2-5-2-4 1-5 3-2 4l2 1c0 1 6 2 7 1 0-1 1-1 2 1 3 2 2 4-1 3-2 0-3 2-1 4v2c-2 2-2 2-1 3l2 3 2 2 2 1c0 3-1 3-3 1-1-2-3-2-7-3l-5-1 1-1-2-1c-2 0-3 3-1 5l2 4 2 4c1 3-5 3-7 0-1-3-4-4-6-2l1 3c1 1 1 1-2 1-4 0-4 0-4 2 1 2 0 2-5 2h-9l-4-1-3-1h11c3 0 1-2-3-2s-6-3-4-5c2-1 0-2-5-4l-7-2-2-1c0-2-3-5-5-5l-1-2c0-1-1-2-3-1-3 0-3 0-2-1 2-2 6-2 6 0 0 1 10 2 12 1h3c2 1 1 2-4 2-6 1-8 2-4 2 3 0 4 2 2 2l2 2h5c2-2 4-3 3-1s5 3 9 2l5-1c2 0 2 0 1-2-1-1-1-1 5-1h7l-5-1-5-1c0-1 1-2 3-2s8-5 7-6l-5 1-5 2c-1-1-1-1 1-1 5 0 3-5-2-6-4-1-6 1-4 3s2 2 1 3h-1l-3-1c-2 0-2 0-1-3 0-2 0-2-5-2-6 1-8 2-3 3 4 0 5 1 1 1l-5 2c-4 2-13 3-13 0-1-2-8-2-10 0-1 1-5-1-5-2l5-1c6 0 8-1 6-3v-3l1-3h2l4 1c1-1-4-6-6-6l-19 1m-23 8l2 3c0 2 6 2 7 0l3-1 6-1c2-2 0-2-9-1a11 11 0 01-9-1v1m212 6l-5 1-4 1h-9l-8 1 1 2h20l2-1 5-1h6l4 1 3 1h10l-3-1-3-1-3-1c-1 1-4 0-5-1l-5-1h-6m-6 17l-3 1-9-2h-7v3l-3 4c-3 1-2 3 2 3s6 1 2 2l-11 2 4 1c4-1 9 0 9 2l-3 1c-3 0-5 2-2 3 8 1 13 4 6 3a2 2 0 10-1 3l4 2c2 2 1 2-2 1h-5a19 19 0 01-5 1l1 1 2 3v2c-1 1-2 1-4-1l-4-3 1 2 2 2c0 2 4 3 5 1h2c2 1 1 2-2 3l-3 2 3 1 3-1c0-1 6-1 15 1 6 1 8 3 8 4h-11a10 10 0 00-11-1l-5 1c0 1 2 2 6 2l7 1 4 1a205 205 0 0110 1l-4 1c-5 0-6 1-3 2l1 4c-1 2-1 3 1 3 3 0 5 2 3 3h-2c-2-1-9-2-11-1l-1 1 2 1 4 1 3 1-3 1-9 1 5 1 7 1c3 1 4 1 2-2-1-1-1-1 1-1s3 1 3 2c0 3 5 4 10 3l5-1h-4c-4-1-4-3 0-3l5-2h2c2 1 3 0 3-1h-8l-4 1-4 1 1 1c2 0 1 2-1 2-2 1-3 0-2-2v-3c-2-1-2-1-1-3h9l6-3-3-1c-4 1-6 0-6-1l4-1c3 0 5-1 5-2l-3-1c-2 1-4 1-5-1l-2-1h-1l-2-2 9 1c1 2 3 0 2-1l1-1a1 1 0 10-1-2l-4-2c-5-2-2-3 5-2 6 0 6 0 6-2s-1-3-4-3l-4-1c-2-1-3-1-2 1 0 1-2 2-4 0h-2c-2 2-5 1-5-1l-2-3c-2-2 0-3 8-3 5 0 7 0 6-1 0-2-3-2-9-1-5 0-5 0-5-2 1-2 5-2 8-1h3c1-1 2-2 3-1 3 1 2-1-1-3h-8l-10-1c-2-2 1-3 4-2 1 0 2 0 2-2 0-1-1-2-2-1-3 0-4-3-2-4v-4l-1-2a44 44 0 0118 1h11l-6-1-6-2c-2-1-10-2-12-1a2 2 0 110-4h1c-1-2-5-2-5 0m-34 0h-4l-2 1c0 2 2 2 5 1h4c1 1 7 0 8-2h-11m-129 3c-4 0-5 2-1 3l2 1 2 1 4 2h4c2-1 2-2-1-2s-3 0-3-3v-2h-7m15 16l-1 3-1 2c-1-1-2 0-3 1l-4 1-2 1h12c1 2 2 2 5 1l3-1-5-1c-3 0-4-1-4-2s1-2 3-1l2-1-5-3m-81 15l-7 22c0 3 6-7 7-12l3-3c2 0 3-4 1-6s-2-2-4-1m78 6c-4 0-4 2-2 5 3 2 3 2 6 1s4 0 3 2c-3 4 0 7 11 13s12 5 3-3l-5-7-3-3a10 10 0 01-5-7l-4-1h-4m206 4c2 3-1 6-4 4-2-2-15-2-15 0l4 2h4c4 2 9 1 10 0 2-2 2-2 4-1 3 2 3-1 0-4s-5-4-3-1m-274 1l-1 2-1 2-1 1-1 2-6 10c1 1 12-12 12-15 1-3 1-3-2-2m250 8c0 1 7 3 12 3s8 2 5 3v1h1a2 2 0 111 3h-2c0 1-1 2-4 2l-4 1c0 2 3 2 5 1 4-1 7-2 8-1 2 1 9 2 9 0s-2-2-4-1h-2c-2-2 0-3 5-3l7-2h-1l-2-1c1-1-6-1-8 1-1 0-2-2-1-3s0-4-1-4l-1 1v3l-9-4h-14m-375 6l-1 4v2l-1 4-1 3v2c2 1 4 1 4-1 0-1 0-2 2-2 5-1 7-4 3-6-4 0-4-2 0-2 4-1 5-6 1-7-2 0-2 0-1 2s-1 4-4 3c-1-1-1-1 1-3v-2l-3 3m373 1c-1 1-1 1 2 1s4 1 4 2c1 2 1 2-2 2-4-1-7 1-5 3s0 3-3 3h-2l3 1h7l4 1 3-1 2-2h-2l-2-2v-3c-2-1-1-2 3-3 3-1 4-3 1-3h-7c-3-1-5 0-6 1m-237 1c-4 1-24 20-22 21 3 1 17-8 25-16 7-6 6-8-3-5m-112 2v2c-3 2-4 6-2 8 2 3 2 3 5-1 1-3 2-4 1-5l-1-3c1-2 1-2-1-2l-2 1m420 10v2l-2 2c-2 0-6 3-6 4l6-1 3-2 5-1c5-1 6-1 5 2l1 2v4c-1 5 1 7 5 3h3c2 2 3 1 2-1l-2-2-4-1-2-1 2-2 2-3-3-1c-2-1-2-1 0-3h-9l-2 1-2-1c0-2-2-3-2-1m-386 6l1 3c3 2 2 3-1 2l-3-1c-1 1 1 3 3 3l5 2 5 1c2-1 0-3-2-3s-2 0-1-2v-3l-2-3c0-2-4-1-5 1m208-1l35 6 18 3 46 5-26-5-22-3a595 595 0 00-51-6m183 2a4 4 0 00-6 4c-1-1-5 0-7 2-1 1 4 4 7 4l3 1h5c2-3 1-3-1-2h-4c0-2 2-3 4-3l3-1-2-1c-4 1-4-1 0-2 3-1 4-3 1-3l-3 1m66 4c0 2-7 8-9 8l-2 1c0 2-1 2-3 2l-7 2c-5 2-6 1-5-2l-2-1c-1 0-2 1-2 3v3c-1 2-1 7 1 7l24-13 7-4a3 3 0 00-2-6m8 5l-4 2-1 2c1 2-1 5-3 5l-2 1-3 1-5 1-4 2-2 2-2 1c-2 0-2 0-2 2 1 1 1 2-3 2-5 0-8 1-8 3l-1 2c-3 1-2 3 0 3 3 0 5-1 19-7 19-10 22-13 23-19v-5l-2 2m-49 2c0 3 0 4 2 4 2 1 2 1 2 5 0 3 0 4 2 4s3-1 1-2-1-3 1-3a1 1 0 100-3l-2-2-6-6v3m-153 0l39 6h7l-6-1-17-3-17-2h-6m-299 3l-1 2c-4 4 8 7 12 3l11-1 10-1c0-1-4-2-23-3l-7-1c-2-1-2-1-2 1m22 9l-13 1c-10-1-11 0-11 9 0 6 1 10 2 5l4-3 4-2 4-1 8-2c7-2 14-2 16-1 3 1 13-2 13-4h-11c-2 2-6 1-7-2 0-2-2-3-9 0m386-2l31 6 16 2c4 1 5 0 5-1l-2-1h-6l-12-2-14-2-18-2m-16 3l50 8 10 2h7c0-1-2-2-7-2l-16-3c-17-3-50-7-44-5m-433 8c-5 0-4 3 1 3h10l1-1h-3l-4-1a3 3 0 00-5-1m267 0l-1 1h59l8-1h-66m-141 1c-2 1-1 4 2 6l3 4 2 1 3 2c2 2 7 4 7 3l-5-5-3-5 2 1 3 1 5 2c2 2 4 2 6 2 3-1 1-3-2-3l-3-1-2-2-5-2-4-1-3-1c-2-3-5-4-6-2m54 9c-3 11-3 11 0 8h2c0 2 2 0 2-2s0-2-1-1c-2 3-2 0 0-5 1-4 2-5 3-4s1 1 1-1-1-2-3-2-3 0-4 7m85-6v2l-1 2c-4 3 0 3 12 3a1538 1538 0 0192-1c-1-1-35-2-80-2l-18-1c-7-1 8-2 29-2h18l-52-1m-188 5l-7 6-1 4c-1 1-1 1 0 0l2-1 6-3v2c-1 2 1 2 3-1v-3c-1-1-1-1 1-3l3-4-7 3m43-1v2l1 3 2 4v2l1 1c2 2 5 0 2-2v-2l2 2c1 3 7 7 8 6 2 0-1-5-6-9-3-3-4-3-4-2l-1 2-1-2c1-3-1-6-3-6l-1 1m-9 4c1 2 0 3-1 3-1 1-2 4 0 4v4c2 1 1 6 0 7l-2 2h3l1 12c0 14 0 14 4 13s5-1 2-10c-3-8-5-25-3-25l2 4 2 5 2 3 1 9c1 4 2 8 1 9l2 1 4-1c2 0 2-3-2-8l-2-5-1-3-3-6-2-7-2-4-1-5-1-3-2-2c-2 0-2 0-2 3m296-2c0 2 5 3 14 4 14 0 13-2-1-3l-11-1h-2m-33 1l6 1 14 1 8-1c1-1-1-1-6-1l-14-1-8 1m-222 3l1 1a60 60 0 018 3h4c2-1 2-1 1-2l-6-2h-8m-8 6a22 22 0 009 8c3 3 4 3 4 0-1-2-6-7-8-7l-2-1-1-1-2 1m-7 7l4 5 3 6c0 2 3 1 4-1 1-3 0-4-2-4l-2-1-3-4c-3-2-4-2-4-1m-33 1l-1 7-2 8-1 2c1 1 0 4-1 6-1 4-1 4 4 5 3 1 3 3 3-15l1-10 1-1-4-2m385 4c-4 3-5 4-2 4s6 3 6 6c0 2 1 3 3 3 1 0 2-1 2-7 0-9-2-9-9-6m38 1c-1 2-1 2 1 3l3 3c1 2 2 3 4 3 6 0 2-7-6-11l-2 2m-396 0l6 14 2-3c2-2 2-2 0-3l-2-2a12 12 0 00-6-6m267 2l-1 3c-1 1-1 1 4 1 4 0 4 0 4 2l1 2 1 2 1 3 2 2c2 1 2 1 2-2l-2-6-3-3-3-3-4-2c-2-1-2-1-2 1m-103 1c-1 0 4 5 6 5l1 2 2 3c2 1 3 4 1 4v1h2l2-1c3 0 5-3 1-4-5-1-8-4-5-6l3-2h2l-2-1c-2-2-10-2-13-1m75 2c0 2-2 2-5 2l-2 2c0 2 0 2 3 2l5-1v-2c0-3 1-4 6-2 4 2 5 0 0-1-4-3-6-2-7 0m-22 0c-2 1-1 4 1 4l1 2 1 4a2 2 0 11-3-1c0-4-2-6-7-6-4-1-5-1-6 1v1h5c6 2 7 12 0 11l-2 1c0 1 4 2 5 1 2-2 4-1 4 1s1 3 2 3c3 1 3 0 1-2-1-2-1-2 1-4 4-4 4-15-1-16h-2m162 2c0 2-1 3-2 3-2 0 1 4 3 5 4 1 8-1 8-3s0-2-3-1c-3 0-3 0-2-2v-3c-2-3-3-2-4 1m-236 2c-3 1-3 3-1 4l2-2 2-2c2 2 1 4-2 6-2 1-3 3-2 3l-1 1-2-1-2-2-2-1c0 3-3 4-4 2h-2l-5 1c-4 0-13 5-14 8-1 2-4 2-15 2l-13 1-4 1c-2-1-10 1-10 2l-2 3c-2 0-3 2-1 4 1 1 1 1-1 2-3 2-8 7-8 9l-2 1-3 4-4 3v1h1l1 1-3 3-4 3-2 2c-3 2-2 3 4 3s9 2 6 4l-2 2-1 2h5c2-2 4-2 5-1 3 2 6 1 10-2l3-2h-3c-4 0-2-3 3-5l4-2c0-1-3-2-4-1l-6 1-7 1-3-1c-3-2 3-4 8-2h4c2-1 2-1 0-1-3 0-4-2-1-3 2-1 2-1-1-1s-4 0-4-2l2-2 5-1 7-2c4 0 5-1 4-3l2-1 1 1 1 1 1-2c-1-1 0-2 2-4 3-1 4-1 2 2-1 1 0 1 2 1h6l2-1c0-2 1-2 3-2l1-1c0-2-2-2-4-1h-2v-3c3-2 7-1 7 1l1 3c1 0 5-4 5-6l2-2c3 0 5-2 3-3l-1-1h5c3 3 7 4 7 2l3-2c2 0 2-1-1-4l-3-3 3-1c2-1 6 0 9 3l2 1a2 2 0 010 3l-2 1c0 2 2 2 4 1 3-1 6 0 4 2-1 2 0 3 3 3 2 0 3-3 1-4l-1-1-1-2-1-5c0-3 0-3 3-3 5 0 6-2 3-5-2-2-2-2-1-3h3c1 2 1 2 3 1 1-1 2-2 3-1l2-1 2-2c2 0 4-3 2-4-2-2-7-1-6 2 0 3 0 3-2 3-3 0-4-1-2-2 4-3-6-5-11-2m38 0c-4 1-5 2-1 2 4-1 10 1 10 2l-4 1h-3l2 2 3 1 3 2 5 2 5 1 2-1-7-2c-3 0-3 0-3-2 1-1 0-2-1-2l-1-3c0-4-3-5-10-3m171 6c3 2 1 3-3 2l-2 1v1c-2 1 0 2 3 2l4 1c2 1 9-2 11-4 2-3-1-4-9-4-6-1-6-1-4 1m-182 3l-4 1-5 3c0 3 1 4 3 2a2 2 0 112 2h-10c0 4 9 5 11 2h4c0 1-1 2-3 2l-2 1 2 1 4 2h2v-1c-2-1-2-8 0-8l3-1 5-2c3 0 4 0 4-2s-11-1-13 2l-3 2c-2 0-2 0 0-4l1-3-1 1m173 5c-6 1-6 1-5 5 0 4 1 4 8 0 5-2 6-3 5-4-3-1-3-2-8-1m-236 20v2l-1 3c-2 2 0 3 4 1l4-1-3-3-4-2M0 412l1 90 1-26c0-12 0-16 2-17v-3c-2-1-3-21-2-35l-1-55c-1-51-1-48-1 46m258-69c-4 0-6 2-4 4 1 2 1 2 3 0 3-1 7-2 7 0h5l-2-3a6 6 0 00-9-1m-23 42l-3 1-1 1c1 1-6 4-9 3-2 0-2 0-1 1 2 3 9 2 12-1l5-4 2-2c0-1-4-1-5 1m-121 1c-8 2-10 3-10 10s1 7 6 4c3-1 3-1 2-3-2-2 1-5 4-5 2 0 3-1 3-4 1-3 0-3-5-2m-30 38l-5 2h-8l-6 1a43 43 0 01-23 4H27c1 1 0 2-1 3-3 2-1 3 3 3l6 1c1 2 1 3-6 3-6 1-10 3-7 5l8-1 12-2c6 0 7-1 7-3 0-3 13-8 21-8 6 0 12-2 11-5 0-2 0-2 3-1l4-1v-2l-4 1m425 4l-7 2-7 2-3 1-3 2c-1 2-1 3 2 2l6 2c2 2 5 3 7 3 3 0 3 0 2-1-2-1-2-1 0-1 2-1 2-1 0-1l-3-2c-1-2-1-2 5-3l7-2h4v-2l1-1c0-1-8-2-11-1m-354 9l-3 1-2 1c-1 0-2 0-1 1l-1 1-1-1c-1-1-8 0-13 3l-6 2-5 2c-2 2-7 4-12 4-5 1-6 1-4 2 1 1 0 1-3 2l-6 2H77c-2-1-2-1-2 1l3 2 3 1-3 1-5 1-2 1h-3c-1 0-2 0-1 1 2 1 1 3-1 3-3 0-12 4-14 6-2 3-13 4-16 1-2-1-10-3-15-2-4 1 0 4 5 4l4 1 4 2c2 1 2 1 0 1-5 2-2 3 7 3 8-1 12-2 23-6 6-3 11-4 14-4l8-1h3l9 2h6c0 1 5 3 8 3l5 1 20 4c3 0 0-3-4-5l-6-3-6-2-3-3-8-4c-7-3-8-4-2-4l5-1c0-1 1-2 3-2l2-2c-1-2 0-2 3-3 8-1 11-2 11-4 1-4 21-2 21 2l6 1c9 1 10 2 17 4l7 1c0-1-5-3-6-2l-1-1-1-1-3-1-6-3c-8-3-16-7-16-9l5-1c5-1 7-2 7-3h-7m202 4l-13 3-4 1h-16l5 1 3 1-12 6-4 2c-4 3-10 5-14 5-3 0-5 1-3 2h2l7-1 8-1h9c4 0 5 0 4-1l-5-1c-5 0-6-2-2-2 12-3 16-3 23-2h10c0-1-1-2-3-2l-6-3 12-4 2-1 6-2c7 0 9-1 7-2-2-2-6-2-16 1m46-2c-1 2 2 3 9 4h18l-4-1-2-1c0-2-19-4-21-2m186 0l-4 2-5 2-4 2 11 1c6 0 14 0 19 2 13 2 26 3 26 1l-2-2-4-1-7-3-14-4h-16m-138 5l-3 3c0 3-4 3-9 1-6-2-15-3-16-1l2 1c8 2 7 3-3 8l-12 7-4 1c-3 0-6 2-3 2s4 2 0 2h-10l-6-1-3-1-6-2c-5-3-8-4-8-2l3 2c3 1 3 1-1 1-6 0-6 2-1 3 8 0 11 4 5 5l-5 2-7 4c-6 1-8 2-8 4s13 0 19-2c8-3 34-2 31 2-1 1 0 1 5 1l7 1c1 1 14 4 15 3l-2-2c-8-2-16-5-17-7l-6-3-7-2-3-2 4-1 7-2 3-1 4-2 2-1c1-1 7-2 26-2 16 0 19-1 19-3l-2-1-2-1-4-1c-3-1-8-4-7-5l17-2c7-1 8-1 4-3h-7l-6 1c-2-1-2-1 2-2l4-2h-11m-435 7c-5 3-4 4 2 4s10-2 7-4h-9m208 2l-3 1-8 1-7 2-4 1c0 2 8 1 15 0 3-1 7-2 8-1l8-1 6-1h-5l-7-2h-3m295 0c-3 0-2 2 2 2 2 0 2 0 1 1s-1 1 2 2l4 1-4 1-5 3c-2 2 6 2 11 0l4-1c-1 1 1 2 5 2h14l8 1-5-3c-4-3-5-5-2-5v-3l-2 1c0 2-10 1-18-1s-10-2-15-1m109 1l5 3 5 2h3c4-1 2-3-4-4l-5-1-3-1c-3-1-3-1-1 1m-376 1c-3 0-3 1 2 2l8 1c3 0 3 2 0 2-1 1 0 1 2 1l6 1 4 1c9 0 12 4 4 6l-6 2-6 1c-4 1-7 4-4 4 4 0 1 2-6 3-13 4-14 4-13 5 2 1 19-1 22-3l8-3 8-3c1-3 4-4 9-2 7 2 14 5 14 7s6 2 8 0l6 1 6 1c2-1 1-2-1-2l-2-1-4-1-3-1c-1-2-7-5-9-5l-6-2-7-3-6-3c-3-3-7-4-13-5l-9-3-3-1h-9m212 10l3 1 4 1-3 1c-4 0-2 2 5 4l8 3c3 2 32 1 30-2h-7l-11-1-6-2-8-3c-5-2-17-4-15-2m90 3l4 2 4 2c-2 1 2 2 6 2 4-1 5-2 2-2l-2-1c0-2-13-5-14-3m-380 5l-7 1c-6 0-14 1-15 3-1 1-1 1 3 1l11-2 9-2h5l4-1h-10m440 1l-4 1-2 3-4 1h-4l3-1 3-2h-3l-5 2c-1 1-10 2-10 0v-2l-1-2h-13l1 1 1 1 3 3c14 3 17 4 10 4l-8 2-8 1-3 1h-3l-1 1-1 1-2 1 13-1 18-1h16l-4-2a44 44 0 00-8-3l4-1c23-4 26-5 26-7s-13-3-14-1m-124 4l-7 1a78 78 0 00-30 8l-3 1c-1 2 11 0 13-2l7-1 11-2c7-1 18-1 27 2 6 1 14 2 12 0l-6-2-11-3c-6-2-12-3-13-2" itemprop="regular" tabindex="-1" style="fill-opacity: 0.988; fill-rule: evenodd;"></path></symbol><symbol id="-posters-1650644030973-bold"><path d="M215 91c0 3 0 4-3 6l-3 3h3c3 0 4-1 3-2l3-5c5-3 4-5-1-5-2 0-3 0-2 3m-15 1c-3 0-3 3-2 4l2 3h2l4-2c3-1 7-4 6-5h-12m139 13l-2 3v1l3-1h4c4 3 9 2 9-1 0-2-1-3-2-3s-2 0-1 1c0 2-2 4-3 2-1-1-2-2-3-1l-3-1a1 1 0 10-2 0m-176 2l-7 2-2 2h2c2 0 3 0 2 1h-5c-6-1-9-1-9 2 1 2 0 2-2 2-5 0-9 4-5 5v1l-4-2c-2-2-3-2-5-1-2 0-2 0 0 1 1 1 1 1-1 1l-2 3-4 1c-4 0-5 1-5 6h10l-1-1c-2-1 0-3 3-3l3-1c1-2 8-1 8 1l-1 1-2 1 2 1c3-1 4 3 1 5l-2 3c1 1 7 0 9-2s14-6 19-7l9-2c3-2 6-2 14-2h5l-3 1c-4 2-2 3 2 3h5c3 2 5 1 4-2l1-1h8c7-1 16 1 21 5 4 3 4 4 1 4-2 0-2 0 0 1l2 2c2 2 6 1 6-1s4-2 9 1h2c-1-2 0-2 2-2s3-1 3-2c1-4-1-4-4-1-4 4-11 0-8-5 2-5 2-6-3-6-3 1-4 0-4-1l-8-2c-4-1-4 1-1 3 3 1 2 3-1 3-2 0-3-1-3-2l-1-4 1-3h5c3 0 3 0-2-1-7-1-12 1-8 4 2 1 0 3-3 3-4 0-5-4-2-5 2-1 2-1 0-1-3-1-5-1-5 2a3 3 0 11-6 0l-1-2-2 2-6 3-2-3-2-3-3 3c1 2-1 2-5 1-4 0-4 0-3-4 0-4 0-4-2-4l-5 1c-3 0-3 2 1 3l2 4c-1 3-5 3-8 0-3-2-4-3-4 0l-1 1 1 1c2 1 2 1 1 3-2 1-3 1-7-1-5-2-6-2-6 2 1 3 0 5-3 5-2 0-6-3-6-5l-1-1-2-2c0-2 2-3 10-3l4-1-1-1c-2-2-2-2 0-2 1-1 3 0 4 1h6l2-2 3-1-3-1c-2-2-2-2 0-2l3-1 3-1c2 0 2 0 1-1h-8m163 10c0 1 2 3 7 4 5 2 6 2 6 1 0-2-1-2-3-2-3 0-3 0-2-1 1-2 2-2-3-2h-5m-1 11c-2 2-3 4-1 4l3 2c2 1 5 1 4-1-1-1 0-2 4-2 3 0 4-2 1-2l-3-1c-2-3-5-2-8 0m-231 6c-8 7-10 10-9 12 0 3 2 2 2 0 1-1 1-2 3-1h3l-3 1-2 1h8c3-3 3-4-1-4l-3-2c0-3 3-4 5-2s5 2 6 1l2-2 1-1 1-2-1-2-3 2-2 1c-2 0-2 0-1-1l2-7-8 6m206-3l2 3c0 1 1 3 3 3l3 2-3 1-3 1 3 1 3 1 4 1 4-1c0-2 3-1 3 1 1 1-1 3-2 2a35 35 0 00-14 2h2c2-1 5 1 6 5 1 3 3 4 5 2l-1-3v-1c1 0 1-1-1-2-1-1-1-1 1-1l3 2a8 8 0 006 5c1 1 0 2-2 2-2 1-2 1 4 4l11 2c5 0 10 3 8 4-1 1-2 1-3-1-3-2-6-3-6 0h-3l-6-2h-2l2 2c3 1 4 3 1 3l-7 1c-13 0-17 2-13 4l2 2h1c2 0 4 2 6 5l2 2c0-1 11 0 13 2 1 2-6 3-12 1l-6-2-4-1-9-5c-10-6-13-8-10-12 1-3 1-4-2-2-3 1-6 0-8-4l-3-2-2-1 2-1 2 1 3-1c3-3 1-5-3-3-4 3-5 2-8 0-2-3-2-4 0-8 2-5 1-5-7-1-2 1-4 0-4-2h-5c0 1 5 3 8 3 6 1 7 3 1 3-4 0-3 1 3 2 2 1 0 3-5 4-3 1-2 1 3 1a6 6 0 017 3v3l2 1c0 2 4 4 7 4 2 0 2 0 1 1-2 1-3 3-1 3l4 3 4 4c2 0 3 1 3 3s1 2 3 2c1 0 2 0 1 1-1 0 1 3 3 3 3 0 3 2 1 2-1 1-1 1 1 1l2 2c1 2 1 2 20 4l20 2 33 5 6 1a367 367 0 01-45-5c-7-1-30-1-33 1-1 1 0 1 3 1 7-1 8 0 1 7l-5 7c0 2 8 1 19-1 14-3 22-2 17 0v4c1 3 0 4-2 8-5 6-7 13-6 17 1 2 0 4-1 6-4 4-4 8-1 9h8a14 14 0 007 1l4 1 1 2 1 2 1-1 3-1 2 1h11l12-1h2l2 1 2-1v-2c2-2 6 0 6 2 1 2 1 2 4 1l11 1c3 0 3 0 4-2 0-3 0-3 9-3 5 0 9 0 8 1l-2 1 3 1c2-1 3-1 4 1 3 2 5 2 15 1h10c4 1 6 0 3-2h2l4 1h2l4-1h3c1-1 1-1 1 1 1 3 3 3 3 0 0-2 0-2 5-1 7 0 13 3 12 4h17l-2 1-6 2h7c1-2 6-1 6 1 1 2-1 3-5 2-5 0-9 1-6 3 2 0-2 2-9 4l-5 2c-1 1-1 1 2 1 5-2 5-2 6 1v3l-1-1c0-2-2-2-6 0-4 1-4 3-1 3 2 1 2 1 0 1-3 0-6-3-4-4 2-2 2-2 0-3h-2c0 1-1 2-3 2-3 0-3 0-3 2 0 3 0 3-4 3h-7c-3 0-3 0-3 4l-1 2c-2 0-4-1-4-3l-3-1-5 1-1 2-1 3-1-3-2-3-3 5c1 1 0 2-1 1-2 0-3-3-1-4l1-2h-1c-2 2-4 1-4 0 1-1 0-2-1-2l-1 2 1 2 1 3c0 2-1 3-2 3l-1-3-1-2c-2 0-4 2-4 4l-2 3-1 3a1 1 0 11-1 0l-3-1c-2 0-2 0-1-2 0-3-3-3-4 0l-2 1-30-1c-6 0-8 0-10 2l-4 2a2 2 0 100 3l2-1c0-2 12-5 16-3l6 1c3 1 4 1 3 2h-5l-9 1-12 2-6 2c-1 0-2 0-1 1l-3 1c-3 0-3 0 1-2l5-3c0-2-8 0-9 2-2 2-3 1-5-2-1-3-2-3-2 0 0 2-1 3-5 3-4 1-5 3-1 4 3 0 2 2-2 2l-4-1-2-2v2a2 2 0 11-3 1l-4-2-2-1a2 2 0 10-3-2c1 2-1 4-3 2l-2-2v2c0 2 0 2-2 1-4 0-4 1-1 3l1 2-2 2-1 3h-2l-1 1c2 0 3 1 1 3h-2c-2-2-3-1-3 1 1 3-2 4-4 2s-5-2-6-1l2 2 2 1c0 2-2 2-6 0l-4-1 1 1 1 2a2 2 0 01-3 0l-2-2c-3-3-3-5 0-5h2l3-1 2-1 6-2c6 0 9-1 6-3h-4l-3-1c0-2 0-2-2-1l-7 1c-5 0-6 2-1 3l2 2c-1 1-5 0-6-1-2-2-4-1-4 1l2 1 2 1a46 46 0 01-13 13l1 1c1-1 2 2 1 2l-3 1c-3 0-8 3-5 3l7 6-3 1h-4c-3 0-3 0-2-1v-2c-2 0-3 5-1 6v1c-2 0-2 1-1 3 0 3 0 3-2 3l-3 1c-1 1-3 0-3-1s1-2 3-2c2-2 2-2-3-2l-5 1-2 1a4 4 0 00-3 0c0-2-3-1-4 1l-2 9c0 8-1 9-4 12-2 2-3 3-1 2h4c2 0 3-1 4-4 3-5 17-10 17-6 0 2-1 2-4 2l-6 1 5 1 9-2a16 16 0 0012-4l3-2 7-1c5 0 5-1 0-3h-2l2-1h2l6 1a473 473 0 0110 1c-2 0-4-3-4-3h6a14 14 0 009-3c2-1 2-1 1-2-2-1-8 0-10 1h-2c4-3 19-6 19-3h3l11-5c0-2 19-7 21-5s5 1 5-1l-1-3v-1c0-2 4 2 4 4s4 3 5 1l14-4c3-1 4-1 3-2-2-1-6 0-15 3-2 0-2 0 0-1 2-2 5-3 12-5l4-3 3-3 3-2c0-2 3-1 4 1 0 2 0 2 1 1l5-1c3 0 4-1 5-3l1-3 1-1h7l3 1-2 1c-3 0-9 3-9 4h8c3 1 10 1 11-1 0-2 6-4 12-4 4 1 6 1 7-1l4-1 5-1 5-1 3-2 3-1 3-2c1-2 2-2 5-1s11-4 7-5c-1-1-2 0-3 1-3 2-6 2-5 0a1 1 0 00-3-2l-4 2c-2 0-2 1-2 3s-4 4-6 2c-2-1-6 0-8 2h-3l-3-2c-1 0-2 0-1-1l4-1c4 0 7-1 7-2l-2-1-2-1c0-2 4-3 8-3a43 43 0 009 1l4-2 3-2 3-2c2-2 3-3 6-3s5 0 11-4c1 0 6-2 13-2 10-2 13-3 11-4-1-1-1-3 1-3l1-1 2-1 2-2c0-2 0-2 3-1 1 1 2 1 3-1h5c2 1 2 1 2-1 0-1 1-2 3-2s2-1 3-3l3-3c3-1 0-5-4-6-2-1-3-2-2-4 0-2 0-3-3-4-6-2-3-4 4-2 5 2 13 2 13 1l-1-1h-3c-1-2 3-2 7-1 6 1 7 0 3-3-5-4-3-6 3-2 3 2 3 2 2 4v4c1 1 1 1 1-1l1-2v-11h-6l-60-3c-26 0-27 0-29-3-3-2-22-4-46-4l-2-1h41l8 2c4 2 7 3 29 4 39 3 71 3 63 1l-13-1-19-1-27-1-21-1v-1c0-2 27-1 73 3l10-1 4-2c5-3 4-4-1-2-7 2-78 0-79-2-1-1 5-1 18-1 37 2 54 2 54 1s-13-4-24-5l-28-4c-21-4-46-7-58-8a647 647 0 01-67-10c-8-1-13-3-9-3l8 1 31 4a1297 1297 0 0158 8l34 5 18 2h3l-6-2a4280 4280 0 01-32-5l-18-2a547 547 0 00-34-5l-15-2c-50-6-90-13-87-14h8a351 351 0 0030 3l11 2 28 4 25 3 11 2c8 2 29 6 41 7a1005 1005 0 0156 8l14 2 2-1-2-1-3-1-8-1-13-2-9-2c-3 0-4 0-4-2l2-1c2 1 5-1 4-3h-6l-6-2-2-1-2-1-2-2-5-2c-4-2-12-1-13 1 0 1 0 2 2 2l-1 2c-2 1-8 1-9-1l2-1 3-1-10 1-2 1h-1l-3 1-4-1h2l4-1 2-2c1 1 5-1 5-2 0-2-2-1-7 1-4 2-9 2-13 0l-7-1c-4 1-5 1-7-1-1-2 0-3 4-3 3 0 3 0 2-1h-29l-8-1-8-1c-9-1-18-1-16 1l7 1 11 1 12 2 7 2a167 167 0 01-44-6l-3-1 2-1c4-1 4-2 0-1h-11l2-1c2 0 2-1 2-5 0-2 0-2 7-2 5-1 5-3 0-3-6-1-5-3 1-3 4 1 5 1 5-1l-4-1-6-2c-1-1-2-2-3-1-2 0-5-1-5-3l-2-1-1 5c0 6-2 7-5 6-2-1-3-1-3-3 1-3 0-4-2-3h-2v-2c3-1 2-6-1-6l-2-2c-1-3-2-3-4-2s-2 1-4-1l-4-3c-1 1 0 4 2 4l2 2c1 2 1 2-2 2-3-1-4 0-2 2l1 2-3-2-3-2c-3 0-6-8-4-9 2-2 2-4 1-6h-2c0 2-3 1-4 0l-4-2c-1-1-2-1-1-2l-1-1-3-2c-4-4-10-6-14-6-4 1-7 0-6-2l-2-2-3-2-5-2c-2 0-2 0-1 1m-170 1v2c3 0 4 5 1 7-1 1-2 2-1 3 2 1 6-4 6-7-1-4-4-8-6-5m256 6l-4 1h-4l-3 1-2 1h11c5 0 7-2 5-4-1-1-2-1-3 1m-226 2a72 72 0 00-48 42c1 1 3-1 3-3l2-3 2-3 1-2c3 0 4 0 4-2s7-4 9-2l3 3c2 0 3 2 3 3 0 3 8 8 10 7a6 6 0 00-5-7l-2-1-3-2c0-1 1-2 2-1 3 0 3 0 0-3-2-2-2-2-1-4l2-4 4-3 4-3c1-2 8 2 7 4l1 4 2 5 1 3 2 3c4 5 3 2-1-9v-15l2 2 3 4 2 6c0 5 1 8 3 6l1-6-1-5v-7c0-2 0-3 3-3 5 0 6 2 6 15l1 2 1-8 1-4v-3c-1-1-1-2 2-1l2-1c0-2-12-4-15-3l-6 1h-3l6-2c2 0 3 0 2-1-2-1-4-1-12 1m228 2c-1 2 2 4 4 3l10-1c7 0 11-2 6-2h-20m111 1c-1 3 0 5 4 5l3-1-1-2-1-2c0-3-5-3-5 0m-118 9l-4 1 6 1c4 0 4 0 3 1-1 2-1 4 2 5h2c-2-2 1-1 2 1 2 2 1 4-1 2s-4 0-2 2c1 1 2 2 3 1h4c3 2 7 1 7-1s0-2-2-2c-4 1-6-1-3-3 3-1 6 0 6 2s1 2 3 2 4 2 2 3c-1 2-1 2 1 3 3 0 3 0 2-5-1-4-1-5-4-5l-4-1-2-1-2-3c1-1 0-1-1-1-2 0-3 2 0 2 3 2 0 4-5 3l-2-2c0-1 0-2-1-1l-3-2c-2-2-3-2-7-2m-297 9l-4 3-4 4c-1 3-1 3-3 2-2-4-6 1-9 14l-1 3c-1 2-2 19-1 22 1 2 1 2 2 0 1-3 5 0 4 4 0 2 3 5 4 2 0-1 3 0 3 2h1c2 0 2-1 1-2-1-2 0-3 3-5 3-3 3-4 2-6v-4l2-5 1-4a4 4 0 10-8-1v4l-2-8c0-2 1-2 5-2 5 0 5 0 6-3 0-2 1-3 2-3 1 1 5-5 5-7l2-2v-2c-2-1-3-1-4 1l-3 1c-2 0-7 6-9 9 0 2-1 3-2 3-1-1 0-2 1-4s1-2-1-2l1-1c2-1 3-2 3-4s1-3 4-3l4-2 4-1a3 3 0 10-1-5l-3-1c-2-2-3-1-5 3m63 1v3l1 1 3 4 3 2v-2c2-1 0-5-3-6-1 0-2-1-1-2 0-3-1-3-3 0m87 0l1 2 5 6c3 4 12 11 16 12l-3-3-9-8-10-9m-108 12l1 1 1 6c-2 1 0 3 2 3s4-5 2-6l-3-3c-2-2-3-2-3-1m215 3c-5 2-5 3-5 6 0 4 2 5 8 4h5l1-1h3l1-1-5-1c-5 0-8-2-7-5l3-1c2 1 3 0 2-2-1-1-3 0-6 1m154 9c-5 0-7 0-7 2l-3 1-3 1c0 2 5 1 7-1h11c1-1 2-2 3-1 3 0 6-1 4-2l-3-1-9 1m-374 2c-3 3-3 4 1 4 3 0 12 3 14 5 3 2 4 1 3-1s-10-6-11-5l-4-4c1-2-1-1-3 1m389 0v3l1 4 1 3c2 0 3-4 1-5v-2c2-1 3-4 1-4l-4 1m-20 5l-5 2c-2 0-3 1-3 2s8 0 10-2l6-1c4 0 2-2-4-3-3 0-4 0-4 2m-373 6l-1 3 3 1c4-1 4-1 4 1s1 2 4 2c8 0 7-3-2-4l-5-3h-3m62 12l-1 6c0 6-1 7-6 3-5-5-7-3-5 4 4 12 21 10 21-4 0-6-6-12-9-9m-55 1h-4c-3 0-5 2-5 3s7 1 15-1c3-1 3-1 1-1-5-2-5-2-7-1m-62 4l3 15c1 0 2-5 1-7v-5l-1-3c-1 1-1 0-1-1l-1-2-1 3m42-2l-1 3c-1 8-3 12-7 14-3 0-2 2 1 3 5 2 12 11 16 20 2 5 9 15 10 15l-6-12a59 59 0 01-9-20c-1-4-2-5-3-17l-1-6m271 4l-3 1c1 1 25 5 26 4 3-1 2-2-2-2l-16-3h-5m-148 2c-6 2-6 2-3 2 11 1 17 0 14-2h-11m-92 3l-11 1c-8 0-10 1-10 2s1 2 3 2l3 1h1l23-5 1-1h-10m224 0l4 2 3 2h-12c-12 0-16 1-16 3l-2 7c-2 4 0 4 14 3 16-1 83 0 101 1 23 2 25 2 26 1l-1-2-48-3-25-1h13l13-1c0-2-3-2-45-2l-41-2h48c44 0 58 0 54-1-4-2-12-3-18-2-11 1-37 0-38-2l-7-1h-6l4 2 5 1h-9c-6-1-8-1-10-3a8 8 0 00-7-2m185 1l3 1 8 1c11 2 15 3 16 2l-2-1c-19-4-25-4-25-3m-88 5c0 1-2 2-5 2-3 1-3 1 3 1h16l-3-1-4-2h-7m-324 5l-6 1c-2 0-3 1-3 2l-1 1c-2 0-4 3-3 3 1 2 4 1 5-1l4-2 6-4c3-2 3-2-2 0m35 3l-5 7-5 4c0 1-2 4-5 6-3 4-7 10-6 11 1 0 5-3 4-4l2-2 2-3 3-4 3-4c0-1 3-3 5-3s3 0 3-2l1-5 2-3c0-2-2-1-4 2m186-2a287 287 0 0035 1l-35-1m-273 7c-4 1-5 3-2 3s5 2 8 8l3 3 2 2 2 1 2 2 1 4 1 2c0 2 0 2-4-1l-3-3 1 3 1 3 1 4 1 2c0 2 1 2 4 0 2-1 6-1 6 1h-5a10 10 0 008 9l-2 1-3 1c0 2-1 2-3 1l-2 1 3 1a26 26 0 015 1c2 0 1 2 0 2-3 0-4 4-2 6l2 4 3 3c2 1 2 2 1 2-3 0-4 5-2 7l1 4 1 2c1 1 1 0 1-3l1-4c1 0 3 2 3 4l5 3c4 2 2 3-3 2-4 0-4 0-3 1l2 3 2 1c2 0 4 2 6 4l5 5c2 1 3 3 0 3-1 1-1 1 1 2 2 0 3 1 3 2l4 1 3 1-1 1-2 2-1 1 2 3 5 2c2 0 3 1 3 2l4 3c2 1 3 2 3 4s1 2 4 2l2 2 5 2c2 0 9 3 10 5l9 4 2 1h2c4 0 7 2 4 2-5 2-3 3 3 2s9-1 6 1c-1 1-1 1 2 1l5 1c4 1 19 3 20 2l1-2c0-3 0-3 4-2 3 0 3 0 4-2l2-2c4 1 4-5 0-6s-4-3 0-3c4 1 4 1 2-1l-2-3h-5c-1-2-2-2-4-1l-2-1c2-2 5-3 7-2h3c1-1 1-1-1-1l-7-3-5-4c-1-1-1-2 1-3l3-1-3-1-3-1h2c2 0 3 0 2-2l-5-1h-4c-2-2 9-2 11 0l3 1c1-1-1-3-5-4s-4-1-3-2c3-2 3-4 0-3h-4c-4-2-5 0-2 2s1 3-2 2l-4-1-4-1c-3-1-4-1-7 1h-4c-1-1 0-1 2-2 3 0 3-1 3-3v-2 1l3 1h3c1 3 5 2 5 0l2-5c3-3 3-4-2-4l-5-1c-5-4-11-1-10 4 1 4-2 4-2 1l-3-2-4-3-4-2-3-1c-1-1 0-1 2-1l4-1c1-2 1-1 3 2 1 3 4 4 6 2l4-2c1 0 2 0 1-1l-4-1c-5 1-7 0-5-2 1-1 0-1-3-1-3 1-4 1-5-1-2-2-4-3-6 0-1 1-4 2-4 0l2-2-2-1c-6-1-9 1-5 2s2 3-3 3l-8 1h-2l-1-1-2-2 2 1h3l2-1c2 0 2 0 1-1l-2-1-1-1 2-1 1-1-3-2c-3-1-1-4 2-3l2-1-3-1v-2c1-1 3 0 4 1l4 1 4 1h2c1-2 1-2 4 0h4l3-1h3l4-1-10-1a72 72 0 01-59-28c-5-6-4-5-7-4-2 1-2 1-2-1l1-2c1-1 1-1-1-3l-2-4c0-2-6-12-8-13v-5c-3-2-5-3-5-1h-3c-2-2-3-1-2 2 0 2 1 3 2 3l4 2 4 2c2 0 2 0 1 1-2 2-1 5 1 7 1 2 2 3 1 5 0 2 0 4 2 6v4c-2 2-4 0-2-2v-2c-1 0-4-6-3-7l-1-4c-2-1-3-4-3-5 0-2-4-6-6-5a4 4 0 01-5-5v-2c-1-2-3-2-7-1m55 3l-6 2c-3 0-3 2-1 4s3 2 3 1l2-2 2-1c0-1 1-2 3-2s3-1 2-3c0-2-1-2-5 1m236 10l-3 1c-1 0-2 0-1 1l4 1 4 1c0 2 2 1 2 0l2-2c3 0 2-2-1-3-2 0-2 0-1 1h-6m156 5c0 2-2 3-2 0h-3c-1 1-1 3 1 3l1 3c-1 6 1 7 4 7 4-1 8-5 5-6-3 0-4-2-3-6 0-3-2-4-3-1m-400 13l2 2a58 58 0 0019 15c6 3 43 9 41 5l-11-1-13-3-6-2-6-2-9-4a25 25 0 01-13-8l-3-3c-2 0-2 0-1 1m437 11l-6 1-1 1c0 2 3 2 7 1l5-1c3 0 4-1 3-3-2-1-2-1-8 1m-265 3l-32 2c-5 0-8 1-9 2-5 6-18 34-18 39 0 2 0 2 2-1l8-10c4-3 6-7 7-9 0-2 1-4 3-4s3-1 3-3a14 14 0 018-9l7-2 8-2h22c2-2 2-2-1-2l-6-1h-2m30 11c0 2-1 2-2 1h-9l2 3c0 2 4 2 10 0 3-1 4-1 4 1-1 2 1 4 2 4v-2l1-3c1-1 0-2-2-4-5-3-5-3-6 0m-195 2c-2 0-3 1-3 2l-1 3c0 2 0 2 2 2s3 1 4 4l3 3c2 0 2 0 1-1l-2-2-2-4c-4-3-4-5 1-5l3-1c0-1-2-2-6-1m236 16v1c2 0 1 3-2 3-2 1-2 1 1 1l4-1 3-1 8-2 5-1h-6l-9 2-2-1 2-2c2-1 2-1 0-1l-4 2m-225 2c-3 2-2 4 1 4 4-1 7 7 3 9-1 1-1 1 1 1l3-2v-3c0-2 1-2 3-2s3 0 2-1l-3-1c-2 1-7-3-7-5h-3m134 39c-2 0-7 4-5 4l3-1c3-2 7-3 5-1s-2 2 0 2h8c2-2 1-5-1-3h-4c-2-2-3-2-6-1m-169 32c-6 0-7 11-2 11 2 0 2-1 2-3 0-3 2-7 6-7 2-1-3-2-6-1m485 51c-3 0-4 1-4 2s1 2 7 2l7 1c3 2 17 4 17 2l-11-3-10-4h-6m-456 3l-8 3c-4 0-5 1-3 2l7-1h9l5 1 6 2c5 2 8 3 11 2l-4-2-12-7c-5-2-6-2-11 0m299 9l-6 2c-5 1-9 4-8 5l4-1c3-1 15-2 17-1l8 1-2-2-3-1-2-1-3-2h-5m91 3v1c2 1 0 3-5 6l4-1c6-1 13-2 19-1l3-1c0-1-2-2-6-2l-8-2h-7m-426 2l-10 2c-6 1-7 4-1 5 4 0 4 0 2 1s-2 1 1 2l5 4c2 2 4 3 7 2 2-1 2-1-3-3-8-4-8-7 1-9l6-3 3-1-4-2-7 2m-25 12c-9 3-9 5 0 3l6-1c3-1 3-1 2-3-2-1-2-1-8 1m312 2l-5 1-9 5 10-1h7c9 2 12 0 3-2-4-1-4-1-2-2l3-2c0-2-5-1-7 1" tabindex="-1" itemprop="bold" style="fill-opacity: 0.675; fill-rule: evenodd;"></path></symbol></defs><use class="background" href="#-posters-1650644030973-background" fill="url(#-posters-1650644030973-background-gradient"></use><use class="light" href="#-posters-1650644030973-light" fill="url(#-posters-1650644030973-light-gradient" filter="url(#light-filter)"></use><use class="regular" href="#-posters-1650644030973-regular" fill="url(#-posters-1650644030973-regular-gradient" filter="url(#regular-filter)"></use><use class="bold" href="#-posters-1650644030973-bold" fill="url(#-posters-1650644030973-bold-gradient" filter="url(#bold-filter)"></use><use class="emboss" tabindex="-1" href="#-posters-1650644030973-light" fill="url(#-posters-1650644030973-light-gradient" filter="url(#emboss)"></use><use class="emboss" tabindex="-1" fill="url(#-posters-1650644030973-regular-gradient" href="#-posters-1650644030973-regular" filter="url(#emboss)"></use><use class="emboss" tabindex="-1" fill="url(#-posters-1650644030973-bold-gradient" href="#-posters-1650644030973-bold" filter="url(#emboss)"></use><defs><g class="gradients"><radialGradient gradientUnits="userSpaceOnUse"><stop itemprop="radial" stop-color="hsla(190, 4%, 56%, 1.00)" offset="0%"></stop><stop itemprop="radial" stop-color="hsla(156, 2%, 47%, 1.00)" offset="15%"></stop><stop itemprop="radial" stop-color="hsla(140, 1%, 46%, 1.00)" offset="30%"></stop><stop itemprop="radial" stop-color="hsla(96, 2%, 49%, 1.00)" offset="45%"></stop><stop itemprop="radial" stop-color="hsla(48, 2%, 42%, 1.00)" offset="60%"></stop><stop itemprop="radial" stop-color="hsla(30, 3%, 43%, 1.00)" offset="75%"></stop><stop itemprop="radial" stop-color="hsla(30, 3%, 45%, 1.00)" offset="90%"></stop></radialGradient><linearGradient gradientUnits="userSpaceOnUse" x1="0" x2="0" y1="0" y2="100%"><stop itemprop="vertical" stop-color="hsla(190, 4%, 56%, 0.78)" offset="0%"></stop><stop itemprop="vertical" stop-color="hsla(156, 2%, 47%, 0.78)" offset="15%"></stop><stop itemprop="vertical" stop-color="hsla(140, 1%, 46%, 0.78)" offset="30%"></stop><stop itemprop="vertical" stop-color="hsla(96, 2%, 49%, 0.78)" offset="45%"></stop><stop itemprop="vertical" stop-color="hsla(40, 3%, 42%, 0.78)" offset="60%"></stop><stop itemprop="vertical" stop-color="hsla(30, 3%, 43%, 0.78)" offset="75%"></stop><stop itemprop="vertical" stop-color="hsla(30, 3%, 45%, 0.78)" offset="90%"></stop></linearGradient><linearGradient gradientUnits="userSpaceOnUse" x1="0" x2="100%" y1="0" y2="0"><stop itemprop="horizontal" stop-color="hsla(186, 4%, 55%, 1.00)" offset="0%"></stop><stop itemprop="horizontal" stop-color="hsla(140, 1%, 45%, 1.00)" offset="15%"></stop><stop itemprop="horizontal" stop-color="hsla(105, 2%, 49%, 1.00)" offset="30%"></stop><stop itemprop="horizontal" stop-color="hsla(50, 3%, 43%, 1.00)" offset="45%"></stop><stop itemprop="horizontal" stop-color="hsla(36, 2%, 43%, 1.00)" offset="60%"></stop><stop itemprop="horizontal" stop-color="hsla(30, 2%, 48%, 1.00)" offset="75%"></stop><stop itemprop="horizontal" stop-color="hsla(210, 2%, 56%, 1.00)" offset="90%"></stop></linearGradient></g><g class="generated gradients"><radialGradient id="-posters-1650644030973-background-gradient" gradientUnits="userSpaceOnUse"><stop stop-color="hsla(190, 4%, 80%, 1)" offset="0%"></stop><stop stop-color="hsla(156, 2%, 80%, 1)" offset="15%"></stop><stop stop-color="hsla(140, 1%, 80%, 1)" offset="30%"></stop><stop stop-color="hsla(96, 2%, 80%, 1)" offset="45%"></stop><stop stop-color="hsla(48, 2%, 80%, 1)" offset="60%"></stop><stop stop-color="hsla(30, 3%, 80%, 1)" offset="75%"></stop><stop stop-color="hsla(30, 3%, 80%, 1)" offset="90%"></stop></radialGradient><linearGradient id="-posters-1650644030973-light-gradient" gradientUnits="userSpaceOnUse" x1="0%" x2="0" y1="0" y2="100%"><stop stop-color="hsla(190, 4%, 60%, 0.9)" offset="0%"></stop><stop stop-color="hsla(156, 2%, 60%, 0.9)" offset="15%"></stop><stop stop-color="hsla(140, 1%, 60%, 0.9)" offset="30%"></stop><stop stop-color="hsla(96, 2%, 60%, 0.9)" offset="45%"></stop><stop stop-color="hsla(40, 3%, 60%, 0.9)" offset="60%"></stop><stop stop-color="hsla(30, 3%, 60%, 0.9)" offset="75%"></stop><stop stop-color="hsla(30, 3%, 60%, 0.9)" offset="90%"></stop></linearGradient><linearGradient id="-posters-1650644030973-regular-gradient" gradientUnits="userSpaceOnUse" x1="0" x2="100%" y1="0" y2="0"><stop stop-color="hsla(186, 4%, 50%, 1)" offset="0%"></stop><stop stop-color="hsla(140, 1%, 50%, 1)" offset="15%"></stop><stop stop-color="hsla(105, 2%, 50%, 1)" offset="30%"></stop><stop stop-color="hsla(50, 3%, 50%, 1)" offset="45%"></stop><stop stop-color="hsla(36, 2%, 50%, 1)" offset="60%"></stop><stop stop-color="hsla(30, 2%, 50%, 1)" offset="75%"></stop><stop stop-color="hsla(210, 2%, 50%, 1)" offset="90%"></stop></linearGradient><linearGradient id="-posters-1650644030973-bold-gradient" gradientUnits="userSpaceOnUse" x1="0" x2="100%" y1="0" y2="0"><stop stop-color="hsla(190, 10%, 8%, 1)" offset="0%"></stop><stop stop-color="hsla(156, 10%, 8%, 1)" offset="15%"></stop><stop stop-color="hsla(140, 10%, 8%, 1)" offset="30%"></stop><stop stop-color="hsla(96, 10%, 8%, 1)" offset="45%"></stop><stop stop-color="hsla(40, 10%, 8%, 1)" offset="60%"></stop><stop stop-color="hsla(30, 10%, 8%, 1)" offset="75%"></stop><stop stop-color="hsla(30, 10%, 8%, 1)" offset="90%"></stop></linearGradient></g></defs><defs><filter id="light-filter"><feColorMatrix in="SourceGraphic" type="matrix" values="1.5 0 0 0 0
                0 1.5 0 0 0
                0 0 1.5 0 0
                0 0 0 1.5 0"></feColorMatrix></filter><filter id="regular-filter"><feColorMatrix in="SourceGraphic" type="matrix" values="1.5 0 0 0 0
                0 1.5 0 0 0
                0 0 1.5 0 0
                0 0 0 1 0"></feColorMatrix></filter><filter id="bold-filter"><feColorMatrix in="SourceGraphic" type="matrix" values="1 0 0 0 0
                0 1 0 0 0
                0 0 1 0 0
                0 0 0 1 0"></feColorMatrix></filter><filter id="emboss"><feConvolveMatrix kernelMatrix="3 0 0
                      0 0 0
                      0 0 -3"></feConvolveMatrix></filter></defs></svg>