<svg id="-posters-1650742855615" itemscope="" itemtype="/posters" itemid="/+/posters/1650742855615" viewBox="0 0 636 400" preserveAspectRatio="xMidYMid slice" tabindex="0" xmlns="http://www.w3.org/2000/svg">
  <defs>
    <symbol id="-posters-1650742855615-background">
      <rect itemprop="background" width="100%" height="100%" tabindex="-1"></rect>
    </symbol>
    <symbol id="-posters-1650742855615-light">
      <path d="M0 18l1 18c1-1 11 5 13 7l4 2-4-4a77 77 0 01-12-9c-2-2-1-7 1-7 1-1 2 0 3 1l1 2c1-1 5 2 9 6l2 1 3 2 11 9 4 3 4 3 4 3 8 7c3 3 6 6 8 6 2 1 2 1 1 2s-1 1-11-4l-4-3-3-2-4-2c-3-4-13-10-14-10l4 4 7 6 11 7c10 5 12 7 12 9h-3c-1-2-7-5-20-13l-6-4-8-5c0 1 5 6 10 9l4 3 5 3 16 11c2 2 1 3-1 2l-10-6-11-6c-2-2-4-2-5-2l3 3 4 2 1 1 4 2 11 7c3 1 4 3 2 5l-1-1-3-2-8-5-6-3-2-2-4-2-2-1-3-2-6-4-4-2c-2 0 0 2 8 7a39 39 0 0111 8l5 2 9 6c4 2 5 2 4 4s-1 2-5 0c-11-7-13-8-14-7s10 8 15 10c2 1 2 1 1 3-2 2-6 0-12-4-3-2-5-3-5-1l1 1 14 9-11-4-9-5a11 11 0 01-4-3l-2-1c-3-2-8-3-8-2l2 2h2l2 1 3 2 4 2 6 4 7 4 6 3a4 4 0 004 2l13 7a1122 1122 0 0154 29l5 2a19 19 0 006 3l3 2c5 3 6 8 2 7a635 635 0 01-50-25l-19-11c0-2 1-1 5 2l4 2 18 9c3 2 7 3 7 1l-6-3-15-8-11-5-10-5-16-8 3 3c4 2 4 8 1 13l-1 4-4-2c-10-5-13-6-16-6l-4-1 2 2 4 2 6 2 7 4a2 2 0 11-1 4 456 456 0 00-18-9l-5-2h-3l5 3c7 2 23 10 23 11 0 2-18-4-20-7h-6l7 3c9 3 19 9 19 11l1 1 1 1-7-2c-11-5-34-12-34-11l5 3 5 3 6 2 6 3c2 2 0 1-5-1a13 13 0 00-13-2c-2 0-2 0-1 1l28 12 8 4-1 1c-16-6-23-7-21-4 0 1-2 1-7-1l-2 1c0 1 5 4 9 4l8 3 9 2c8 3 9 6 1 5l-23-5-12-2 1 1h3l5 2 14 4 15 3c3 0 4 1 5 3 3 3 0 3-18 0l-17-3c2 2 43 9 44 8l2-1c2 0 2 1 2 5v5h-4l-12-2-10-1h-8l-14-2c-6 0-9 1-7 2l8 1 22 2 21 2c3 0 4 0 4 2 1 2 1 2-2 1h-4l-5-1c-6-2-45-3-45-1l12 1c12 0 44 3 46 4 3 2-1 3-18 3H19l-2 1h3l32 1c5 0 9 2 8 3-1 2-12 2-35 2l-25 1c0 1 9 2 33 1 24 0 28 0 10 2a602 602 0 00-25 2h7l41-2 1 1c0 1-2 2-8 2l-12 1-18 2-12 1 6 1 24-1 20-2 2 1-7 1-39 3-10 2H6c-4 0-6 0-5 1v1c-2 0 0 2 3 2 2 0 2 0 1 1-10 2-5 2 11 0 28-3 43-4 43-2 0 1-6 3-15 4l-8 1-3 1h-2v1l-2-1c0-1-2-1-4 1l-9 2-7 2h7l14-2c20-2 26-3 26-4 2-2 4-1 4 1 0 1-1 2-5 2l-40 9 27-4 15-3h4c1 2 0 3-6 4l-11 2c-1 2 5 1 12-1 6-1 8-1 8 2 0 1-9 3-32 7-14 2-22 4-12 4l41-7c11-2 14-2 14 0v2l1 2c1 1-1 2-9 3a283 283 0 00-32 8l-5 1a1814 1814 0 01-28 5l-1 1 15-1 10-3 18-3 5-1 9-2c6-2 12-2 12-1l-13 4-5 2-22 7-7 2-10 3-11 3c-2 1-3 3-1 3 3 0 40-11 53-16l9-3 6-2c2-1 2-1 4 1l2 3c0 1-9 5-15 6-2 1-7 2-9 4l-13 5-14 5-5 2-2 1-4 2-5 1c-3 2-7 2-5 1a627 627 0 0159-24l8-3 2-2h-4l-3 2-12 5-6 2-6 2-10 4-7 2c-2 2-16 7-22 7-1 1-2 8-2 59v58h637v-58c0-57 0-61-3-59v1c2 1 2 1 0 3s-2 2 0 4c2 1-1 4-4 3v1c0 2-2 11-3 9l-1-5c0-5-1-5-1-1-1 3-6 5-9 3l-3-1a27 27 0 01-13-2l-21-7-24-8 3 1 2 2h-1l-5-1c-6-2-2 1 7 3l10 4 4 1 4 2 3 1 5 1c3 3 8 5 8 4l2-1c2 2-2 3-5 2l-6-2-4-1-15-6-5-2-6-2-4-1-4-2-6-1-12-4a473 473 0 01-32-10 30744 30744 0 01-28-8l-5-1-4-1-10-3h-3l10 4 7 2 11 4a60 60 0 0114 3l5 2 2 1 20 6a137 137 0 0018 5c1 0 2 0 1 1l1 1c1-1 22 6 35 11l5 3 4 1 2 1 3 2c1 2 2 2 3 1s1-1 4 1c4 2 4 3 0 2l-5 1h-3c-2-3-4-2-4 0l-1 2-1-1-1-2-3-1c-1-2-10-6-13-5l-1-1-4-2-5-1-6-3-7-2-7-2-9-3c-2-1-6-3-10-3-8-2-11-3-8-5 1-1 0-1-13-6l-10-3-12-3c-1-1-2-1-2 1l-1-1c-1-3-9-5-10-3a3 3 0 00-1 3l-36-12c-19-6-21-7-21-8 1-1 1-1 17 5l19 6 13 4 8 3c1-1-3-4-6-4l-2-1-3-1-10-3-13-4-7-2 6-2a17 17 0 0112 0l28 7c5 2 13 2 11 1l-20-5-18-5-42-11c-5-1-6-1-5-3 0-2 3-3 6-1s13 4 14 3l2 1 10 3 9 3c3 2 11 3 12 2l-3-1-7-3-18-5-13-3a452 452 0 00-24-7 3942 3942 0 00-37-8l-29-7c-3 0 1 2 7 3l16 5 4 4 1-1c-1-3 0-2 4 1s4 4 3 9c0 4-1 5-2 5l-5-1-9-6c-2-3-5-5-6-5l-1-1 10 1 12 3-5-2-30-9c-26-8-32-10-31-8l4 2 14 4 12 3 4 4c4 5 9 10 12 9l1-2v-1l2 3 2 4c2 3 1 3-6 0l-9-4-4-2-21-9 7 4 11 6 5 2 3 2 9 5 23 11a275 275 0 0027 12l4 3 4 3c0 4-2 3-26-9l-12-5-5-2c-5-3-8-4-5-1h-1c-2 0-3 1-1 2l1 2c0 2-1 2-6-2l-7-4 20 17 18 14-4-2-15-10v2c3 3-2 1-10-5l-30-21-11-6-3-1-5-5c-5-3-5-2 8 11a1336 1336 0 0124 26c8 8 8 9 7 9l-9-7c-10-9-14-11-5-2 6 7 8 11 5 11l-1-1-9-10-14-15c-6-8-15-17-17-18l7 9 1 2 1 2c1 1 1 1 0 0l-1-2 8 9 13 15c5 5 6 7 5 7l-2-1-6-7c-7-7-8-7-3 1 3 4 4 5 2 5-2 1-4 0-7-6l-9-15 4 9c6 12 6 11 2 11-2 0-3 0-2-1l-5-10-7-11-2-3c-2 0-1 3 0 4l4 6 3 7c2 2 4 8 3 9h-4c-3-1-4-2-6-9l-9-20v2a337 337 0 017 20l2 6c0 1-6 5-10 5l-3 1-1-7c-2-13-4-10-1 5 0 3 0 4-2 5-3 1-5-4-8-24l-2-15c-1-6-2-1-1 5l2 16 2 13c0 3-1 4-2 2l-5-1-3-1v-8c0-10 0-11-1-9l-1 13a339 339 0 01-1 22l-1 4-1-2 1-27v-10l-2 11a102 102 0 00-1 17v3l-1 2-1-14c1-17-1-25-2-8 0 5-1 6-3 6s-2-1 2-12l-1-2-1 3-1 1v-3c1-6-2-5-5 2l-4 9-1 3v-4l2-4 2-3 5-13c4-11 5-12 3-12l-1 1-5 13-4 7-3 6-1-3c-2-4-2-4 0-7l2-5c0-2-1-1-2 1l-3 4-1-2 7-13-3 4-4 6-2 3-3-2-4-3c-2-1-1-2 4-8 6-8 11-15 7-11l-4 4c-6 8-10 12-12 12-1-1-1-1 1-4 3-2 2-3-1 0h-3c-2 0-1-1 4-6l5-7-7 6-7 5-4-2c-2-1-2-1 3-5a115 115 0 0011-7l5-5 3-2 2-2-3 1-6 4-2 1 2-2c4-5 0-3-6 2-14 13-14 13-17 12-2 0-2 0 0-2 11-8 12-11 0-3l-8 4 6-4 12-7c3-2 6-5 8-5 4-2 7-5 5-5l-6 3-8 4c-2 1-5 2-6 4-8 7-29 16-32 14l8-5a319 319 0 0019-10l9-5 7-4 4-2 4-2 3-3c0-1-4 0-8 3l-5 3-6 3c-6 4-7 1-1-4 4-4 6-5 8-5 3 0 3 0 2-2-2-2 1-4 5-4l2-1-2-1-2-2c0-3 10-4 13-2l2 1-2-2c-1-2-3-2-8-2l-2-2 1-1 6-3h6l6 2-2-2c-2 0-4-5-3-6v-4l-2 4-2 4a28 28 0 01-13-7l-1 2 1 3 4 1c2 0 3 0 3 2 0 1-8 2-11 0-1-1-2-7-1-9v-2c-2 1-3 10-1 13s-1 2-3-1l-3-5c-2-2 1-7 5-7l4-2c1-2 4-1 4 2s2 2 2-2c1-5 3-6 10-3 9 3 10 3 4-1-3-1-5-3-5-4l5 1c6 3 7 2 1-2-7-4-7-6-4-9l3-2 3 5c3 5 4 3 1-3-2-3-2-4-1-7l2-3 1 4 2 4c2 2 1-2 0-5-3-4-2-8 1-12l3-4v3l2 3v-4c-1-3-1-3 1-5 4-3 5-8 4-12a24 24 0 01-2-8V92l2-7V73c-1-1-2-4-2-9v-8l-1 2-2 5-1 4v1l-1-3v-1c-3 4-2-8 1-13l2-4 1 4c1 3 1 3 1 1l1-13c0-6 0-7 1-6l1 17v17c1 1 1-1 1-5l2-24v34l-1 45c0 10 1 17 2 19v8c0 6 0 7 1 6h1l-1 3-3 5-4 5c-2 1-3 2-3 5l-2 3c-1 1-3 2-3 4l-3 2h-1l5 2c10 2 10 3 8 12l1 3 2-4c0-5 0-5 4-4l4-1c3-5 4 1 1 6-2 5-2 5-6 1-2-2-4-2-2 1 3 2 3 3-3 8-7 7-10 7-13 1-5-6-6-8-10-9l-3 1 3 2c7 2 10 10 4 10l-4 2h-6c-3 0-3 0-2 1 3 3 6 2 9 0l4-2 3-1 3 1c3 2 5 3 7 0 6-5 10-8 14-8 3 0 3 0 3-2-1-2-1-2 1-1v-5c6-12-5-23-17-18h-3c0-3 15-3 19 1 5 4 7 12 4 17-2 2-2 3-1 3s6-12 7-19c1-6 4-12 9-19l3-8 2-4 2-3 1-3 2-9c1-7 1-8 4-10l4-3c3-3 2 0-1 4l-4 4c0 1 7-3 10-7l10-8 13-11 10-9a338 338 0 0025-19l6-5 13-10c7-5 10-8 8-8l-5 3-10 7a109 109 0 00-16 13 71 71 0 00-14 10l1-3c3-3 3-4 0-2-4 3-14 12-13 13 0 2-5 7-10 10l-4 4h-1l-3 2-4 3-1 2-2 2-3 2-2 1c0-3 6-9 23-24l19-18 9-7c1 1-1 5-4 7v1l5-3 4-4c2 0 2-6 1-8-1 0 0-2 3-4l3-5-5 4c-4 4-10 6-9 3l32-33c2-1 3-2 4-1l-1 1-1 1-3 5-6 7-6 6c-2 2-5 6-3 6l5-5a135 135 0 0124-21h4c2 1 0 3-6 8-3 3-6 5-7 4l-1 1 1 3c0 1 4-1 10-6 6-7 10-9 10-7l1 1 1-2c0-2 3-3 3-1h2l1-1c0 2 0 2 2 1l2-1-10 8a195 195 0 00-15 12c-3 2-4 4-3 4 1 1 2 1 3-1l6-4 7-5c11-10 18-14 19-13s1 1 1-1h1c2 0-4 7-11 12a446 446 0 00-24 17l-9 7-9 6-5 4-7 6c-7 5-15 12-13 12s8-4 23-17a679 679 0 0146-34c1-2 4-4 7-5l8-6 4-2-1 1c-1 0-1 1 1 1 2 2 1 3-10 11-9 6-9 8 0 3l-12 9a111 111 0 00-13 10 663 663 0 00-37 27 27 27 0 00-13 9c-1 1-1 1 1 1s33-22 47-34l3-2 2-2 5-2 6-5 8-6 12-8 12-8 6-4h5c1 1-1 3-5 5l-6 5-7 5c-3 1-4 3-3 3l4-2 5-3 3-2 5-3 4-2c1-3 10-8 9-6l4-1 4-1-14 12a666 666 0 00-28 18l-12 7a268 268 0 00-22 15l-9 6-22 14-2 2-2 1-1 1-7 5-2 1-1 1-3 1-6 4c-5 4-11 9-9 9l2-1 2-2 8-5 32-21a1225 1225 0 0145-30l18-12 14-10 5-3 8-4 12-6 2-1 1-1c2 1-13 14-18 16l-5 4c0 1 6-1 7-3 2-2 3-1 1 2l-1 4-1 1v2c0 1 0 3-2 3a1 1 0 101 2l2 2 1 6c0 1 1 3 4 5l4 4-18 8-19 9 10-5c5-3 9-5 8-6l-7 3-19 9-17 8-41 19c-8 3-12 6-9 6l3-1 10-4 48-23 11-5-8 4-7 5 27-12 24-11a973 973 0 0029-14l13-6 23-10c12-6 13-7 9-8-3 0-3-2 1-3l2-2-4 1c-4 2-5 2-6 1 0-1 17-11 19-11s-3 4-5 5l-2 2c0 2 6 0 7-1l5-2 4-2h3l2-1c-1-1 0-1 2-1s2 0-2 2l-5 3-4 2c-4 1-7 4-6 4l9-3a30 30 0 0110-4c-1-1 8-3 10-2 1 1-2 3-5 2-1-1-6 2-8 5-2 4-22 11-19 8 1-2-3 0-13 5l-10 4-5 4 6-2c4-2 6-3 8-2h18v1l-1 1h1l5-1c5 0 13-6 11-7-3-2 9-7 13-6 1 1 1 1-1 1l-2 1h-1l-4 2-2 2h2l3-1 4-1 4-3 4-1 4-2 4-2 9-3a195 195 0 0117-7l2 1v1l2-1c0-2 3-1 3 1l2 1c6-2 11-1 8 0-2 1-2 1 2 1l3 1 3 5c3 3 3 3-1 2-3 0-4 2-1 2 3 1 6-1 6-3l2-3 1 2v2c1 1 1-5 1-16V0H0v18m298 4v1c-2-2-11 12-11 16s-2 5-5 1-5-4-6-1-1 3 1 2c1-1 1-1 1 1 0 4 1 4 3 2 2-1 3-1 1 2v3c2 2 4 0 10-12a5 5 0 013-3l3-6v-8 2m52-1l-1 2h-1l-5 4-24 27c1 2 3 1 7-3l9-10c14-15 17-19 15-20-1-1-1 0 0 0m-220 1l2 3c2 5 0 7-3 3l-2-1v4c-2 1-2 0-5-4l-4-4 1 2 2 2 3 5 2 5 2-2 8-4c2 0 5 3 4 4l1 1 2-1-6-10-1-2c0-2 0-2-1-1v2c1 2-2 1-3-1l-2-1m10 0l5 11c4 8 5 11 4 12v5l-1 1c0 5 0 6-3 7l-2 1 6-1h1l1-1c0-5 2-11 3-11v5c5-4 5-14 1-20l-3-5c-1-2-1-2-2-1l2 8 3 7c0 2-1 2-2-2a115 115 0 00-5-9l-3-4-2-2-1-2-2 1m136 4l-5 14-5 10v-4a82 82 0 006-21v-1l-5 11-4 12a7 7 0 004 10 395 395 0 0011-32l1-2-3 3m65-4l-1 2-2 1-5 5-13 14c-7 6-8 8-6 8 2 1 3 0 20-18 9-11 10-13 9-13l-2 1m241 0l-5 2-7 2-4 1 2 2c2 0 3 1 3 2l1 1 2-1 2-1c3 0 6-3 4-4-1-1-1-1 1-1h3v-1l-1-2h-1M94 24l3 3a106 106 0 0013 16c1-2-12-20-15-21-2 0-2 0-1 2m82-1l1 4 2 10c1 8 3 10 6 8 1-1 1-2-1-6l-2-5-5-12-1 1m155 1l-1 2c-2 0-7 5-12 11l-14 16c-6 7-7 8-5 8s9-7 15-14l8-10c8-8 11-13 10-14l-1 1M21 26c-1 2 4 5 7 4l1 1 4 5 7 6a13 13 0 006 4l11 7 1 1c-1 1 7 7 13 10 1 1 4-1 4-2l-8-8c-1-1-5-3-8-7l-10-6s2 3 6 5c4 3 5 5 4 5h-2l-4-3-8-6-16-13-5-4c0-2-2-1-3 1m8-1a409 409 0 0018 15l-3-4-3-4 1-1-5-5 1 2c2 1 3 3 1 3l-5-3-5-3m75 0c0 2 7 14 10 17h6c2 1 2 1 4-2 1-2 0-3-3-7-4-6-4-6-3-2 2 4 0 5-2 0-1-2-1-2-2-1l1 2 3 6c0 3-1 2-4-3-6-9-10-13-10-10m206 4l-7 9-8 12-6 11c2 1 6-1 9-5l9-10 6-7 3-3c5-6 6-7 5-8-1-3-1-2-5 2l-9 9 5-7 5-7c0-2-3 0-7 4m191-4c-4 1-5 2-4 3l2 6c1 6 7 10 12 9 5-2 6-3 3-5s-5-8-5-11c1-3-2-4-8-2M53 29l16 18c7 7 14 16 13 16l-4-4-27-27c-1 0-1 1 1 1l2 3 10 10 20 21a87 87 0 0016 14c1 2 4 3 4 1l-1-1c-1-1-2-6-1-7v-7l-2-4c-1-2-1-2-1 0l-2 4v1c2 0 2 0 3 3l-1 3-4-3a588 588 0 00-40-42c-4-5-6-5-2 0m249-1l-9 14c-7 9-8 12-8 14v4l2-3 9-13 4-5 4-5 3-5 2-4h-2c-2 0-4 1-5 3M64 28c1 3 14 15 15 15l-7-9c-7-8-10-10-8-6m7-1c0 2 8 11 10 13l6 2h5l-8-8-8-7c0 1 0 2 2 3l1 3-2-1h-1l-1-2-3-3h-1m13 0l1 2 3 4c3 5 10 12 12 12 1-1 2 0-8-12-5-7-6-8-8-6m180 0c-2 1-2 1-1 2 3 0 2 2-2 3l-5 2c-2 1-5 1-5-1l-1 1-2 2c-2 0-2 2-1 4l8 1 4-1c4 0 5-1 7-9 1-5 1-5-2-4M14 28c0 1 4 4 5 3l1 2 4 3 6 5 13 10 15 12c6 5 6 6 9 4l3-1-3-1-4-3-7-5-14-11-8-5-5-3-6-6-3-2-6-2m454 2c-3 2-1 7 2 6 4-1 5 1 1 2-3 1-3 1-4-1l-2-3c-2 0-1 2 1 4 3 3 6 3 9-1v-2h-2c0-1-1-2-3-1-3 0-3-3 0-4l1-1-3 1m20 2c-4 3-4 4 0 4 5 2 7 0 5-3-1-4-1-3-5-1m96 7l-19 8h-2c-3-1-6 1-3 2 2 1 7 0 9-1 0-1 4-3 9-4 12-4 19-7 18-8l-12 3m-352 0c-2 1-3 2-3 4l-1 10c0 6 0 6 2 3 3-7 14-11 18-7l5 1h3l-3-4c-3-3-3-3-11-3-7 0-7 0-6-2l4-1 2-1h-10m395 1c-6 2-5 4 1 2 3-1 3-1 3 3s2 4 2-1c1-6 0-7-6-4m-271 0l-8 7-7 7c0 2 2 1 8-5l7-6 2-2c1-2 0-3-2-1m123 3c-2 4-2 5-1 5l5 3c5 2 8 2 17-3l4-3-4-3c-5-3-7-4-11-2h-5c-3-1-3-1-5 3m-27 0c-3 4-2 5 0 4 3-2 6 1 4 3s-1 2 2 1c2-1 2-1 1-2l-2-3-2-4c-2-2-2-2-3 1m-61-1l-3 2-9 6-17 12-28 21c0 2 2 1 6-3l12-9a111 111 0 0013-9l5-4 15-9 8-8h-1l-1 1M87 45l3 4c0 2-2 1-2-1-1-2-4-3-6 0-2 1-2 1 0 1l2 1h-1l-2 1c-1 1 0 1 1 1l3 1c1 2 11-2 12-4h-2c-2 2-2 2-3-1-3-4-4-5-6-5l1 2m341 1a3798 3798 0 01-25 16l-12 8-14 9 1 1a125 125 0 0020-12 12 12 0 005-4l10-6 20-12 1-1c1-3 0-2-6 1m-221-1c-4 2-4 5 1 7l4 2c2-3 3-8 1-9l-2-1-4 1m65 5c-4 8 1 18 6 13 2-3 1-5-3-5l-3-1c1-2 1-2 6-1 2 1 3 1 3-1 2-3-7-9-9-5m315 3c-12 4-16 6-6 4l19-7c4-2 0-1-13 3m-347-1l-7 5-2 4h4c8 1 11 5 9 12v8l-2-8c0-8-3-11-10-9-3 1-4 1-4 4l1 4 2 2 2 2v-2c3 0 3 2 2 4l-1 1-1 3-3 3c-1 0-1 1 1 3l1 1 3 1c3 1 4 4 2 5l-4 8h1c5 0 6 8 2 11l-4 3c-9 7 5 17 14 11 4-3 5-1 2 1-3 3-9 3-14 2-4-1-4-1-3 2 0 2 1 3 2 3 2 0 2 0 0 4l-2 8-2 6-3 5-4 7c-1 2-1 2 2 2l7 2c3 1 5 1 5-1s5-8 6-8l-5 10 2 4c3 4 4 4 4 0l6-15c5-9 6-12 5-15 0-4 0-4 2-3 3 0 6-7 6-13l1-10 1-9 2-7c1-5 1-8-1-8-1 0-2 1-2 3l-2 2c-1-1 1-8 3-11 2-2 3-6 2-6l-4 1a11 11 0 01-13-15l1 4c0 4 1 6 6 9 4 3 10-2 9-7v-7c3-7-3-15-10-15l-7-1c-4-2-3-2-8 0m-63 1l3 5 2 3-5-2-2-2 2 2v3c-1 1-5 1-7-2h-1l2 2 1 4c0 2 0 2-2 0-1-2-1-2-2-1l-1 3 1-1 1-1 1 4c0 7 0 9 2 10 2 3 5 2 6-1l2-3 1-1v-3l-1-2v1l-1 1c-2 0-4-6-3-8 2-3 3-2 2 1l1 4 1-1c-2-2 0-5 3-6 3-2 7-1 6 0l1 1c3-1 2-7-1-7-1-1-2 0-3 1-1 4-5 2-8-3-1-3-1-3-1-1m-45 1l-2 3c-1 0-2 1-2 3v2l-2 3-2 2h-2l3 1h4l-2 3c-2 4-5 4-8 1l-3-2c-5 2-5 2-4 3h2c2-2 3-1 1 2l-1 2h3c4-1 4-1 3 1h-8l-3-2h-2l2 2 4 2v1h-2c-2 0-2 0-1 1 3 2 9 1 10-2 1-2 6-5 6-3l-1 1c-3 0-4 5-2 6 3 3 3 4 0 4-2 0-3 0-3 2s0 2 2 2c2-1 3 0 4 1h3l-1 3v2c-2 1-2 1 0 2 3 2 2 6 0 4l-1 1c0 1 1 2 3 1h1l1-1 1 7a18 18 0 01-2 8h3l1 2 1 3c1 1 0 1-3 1-2 0-1 1 2 7 6 9 8 10 10 6l1-3c3 0 4 2 3 3 0 2 0 2 3 1l3-1c2-1 2-4-1-4l2-2c2 0 5-3 7-5l6-3c1 0 2-1 2-3v-2l1 3-1 3c-2 1 5 7 9 7 4 1 5 0 5-3-1-2 0-3 2-1 1 2 3 1 2-1l-1-4c1-1-3-7-6-11-3-2-3-3-3-6 0-5-2-12-5-16l-2-4-2-1v1h-2c-3-3-9-1-11 2s-3 4-3 1h-4l-1-1-2 2c-1 2-2 3-3 2-2-1-4-1-3 1 0 1-3 2-3 0-2-2-3-1-3 1v3l-2-3-2-1c-2 1-4-6-3-8l1-4c0-2 1-3 5-4 3-1 4-2 3-3 0-2 1-2 3-1 1 1 1 5-1 5l-1 2h1c2-2 4-3 4 0h-1l-1 1h3v-4a2 2 0 112-2l2 2c3 0 3-3-1-4-3-1-4-3-2-3 6 0 9 5 4 9-3 2-2 4 2 2 3-1 3-2 3-5-1-7-8-10-15-7l-6 2-6 3 2-3c2-1 2-2 1-3-1-2 0-8 2-11 2-2 2-3 1-4h-1m361 1l-19 8-14 7-21 10c-8 3-10 5-7 5l3-1 2-2 12-5a520 520 0 0119-8c5-3 6-3 7-2 1 2 1 2-2 4l-5 2c0 2 2 1 4-1l4-1a3 3 0 014 3l4 2c0 2-4 4-11 7-8 2-11 4-11 5a35 35 0 0013-5l4-1 4-1v3c-2 6-2 7-6 7l-10 3-7 4-4 1 2 1 5-2h3l-3 2c-2 2-8 5-20 9-18 5-21 6-20 7s12-2 16-4c3-2 19-7 20-6s-3 3-8 5l-6 2-6 2-5 2c0 2 5 1 12-2 8-4 10-4 7-1-1 1-3 3-5 3l-10 4-3 1c-6 1-7 1-4-2l3-2h-7c-5 0-7 0-6-1l-7 2c-7 2-10 5-6 4 2-1 2-1 0 1-2 3-5 3-8 1s-5-3-8-3c-7-1-7-1 0-4 4-2 6-2 8-1h5l4-2 5-2 7-3c2-1 3-1 2-2l1-2 4-1c2 0 2 0 1 1v1l3-2 3-3 11-5-7 2-10 4-12 3a331 331 0 01-31 12c-6 2-12 3-11 1l17-8c1-1 2-1 1-2l-3 1-14 6a487 487 0 00-35 16l-44 20c-6 3-7 5-2 3 3-1 3-1 2 1v3l-9 2-20 6-3 2 3-1 17-4a435 435 0 0026-7c4 0 12-3 11-3l4-6c2-3 5-6 5-8 1-3 22-12 28-12h4l-3 2-4 1c-6-3-26 10-28 18l-3 4c-5 2 7 0 14-2 6-3 7-3 3-2h-4l2-3c6-8 20-15 38-18 15-3 19-2 23 2 3 3 2 3-5 4l-4 2h3l7-1 7-1 33-8 13-5c5-4 6-2 1 2-3 4-6 5-17 7l-34 8h2c4 0 4 0 4 3v9l-1-2c1-2 0-3-3-2-2 0-3 3-1 3l1 2c1 3 0 3-3 0l-3-1-1-1 2-2c2-1 1-2-2-3-3 0-4 1-2 2v1c-2 0-3 2-1 2 1 1 1 1-1 1l-3 1c-2 0-2 0-2-3l-1-3-1 2-2 1v-1l-2-2h-5l-3 1h-5l-5 2c-3 0-4 2-3 3l2 2c2 0 2 0 1 2l-1 2 3-2 3-2-3 4-5 4 1-4-1-3c-1-1-9 2-9 3 0 2 3 2 5 1 1-2 2 0 0 1-2 2-6 2-7-1l-2-1c1 1 0 2-1 2-3 1-2 4 1 3l3 1-1 1a2 2 0 102 2l2-1-6 7v-1l1-2-5-1c-2 0-3 0-3-2-1-3-8-4-9-1l2 1-3 4-3 5c0 4-2 4-3 0 0-6 1-8 4-8 1-1 2-1 1-2l-6 1-10 2-9 2-23 5-1 2-3 1c-4 0-4 0-3 1 2 2 2 2-2 2-10 2-4 2 15 1a1466 1466 0 0046-3 482 482 0 0039-3l17-2 17-1 25-3-4-1h-1l11-2c8-2 8-1 0 2h10c6-1 9-1 10-3 2-2 2-2 3-1 1 2 3 2 9 2 8 0 10 1 5 2-6 2 0 2 15 0l25-2 9-1h-3l-18 1-19 2c-3 0-4 0-3-1l21-3c18-2 34-5 20-4h-4l2-1 2-1h6c5 1 5 1 3 2s-1 1 3 1 5 0 5-2a2 2 0 013-1l-1 1h-1a6 6 0 008 0c-4 0-2-2 2-2l7-1h7c7 0 11-1 10-2h-1l-27 1-7-1-4-1c-7 0 14-3 25-3 2 0 3-3 2-4s-15 1-17 2l-7 1-11 1c-5 1-8 0-6-2 1-1 22-5 41-6l29-5a168 168 0 00-32 2l-36 6c-2 0-2 0-1-2s2-3 7-4a69058 69058 0 0048-8c0-2-41 4-51 7-3 1-3 1-2-2 1-2 8-4 22-6l23-5h-4l-34 6c-3 0-4-1-2-3 2-1 11-4 22-5a282 282 0 0017-4h-16l-15 2 4-2 3-2 3-2 31-6 3-1-4-1-8 1-18 3h-3l6-2 12-3 18-3a776 776 0 0022-4c6-1 8-2 3-2s-3-2 3-3l6-2-13 2c-24 5-47 8-49 6-3-2-2-3 11-5a57 57 0 0015-3l16-3c1-1-17 1-26 4l-9 1-12 2c-9 2-31 4-23 2 3-1 3-2 1-3l-2 1-2 1-3 2-3 1a88 88 0 00-23 2c-2-2 0-4 3-5l17-5c15-5 14-4 14-6-1-1-2-1-21 5-13 5-13 5-9 0 2-2 13-7 25-10 3 0 5-2 3-2h-4l-10 4-10 3c-2 1-2 1-2-2 1-3 0-3 12-7l10-4-7 2-12 4c-2-5-1-7 6-8l15-6h-3l-8 2-6 2h-5c-2-2-1-3 10-6 9-3 12-4 11-6l-6 2c-12 5-20 6-20 3h-3c-1 0-3 0-5-3-2-2-2-4 2-5l1-1-4 1M15 57c2 4 13 10 14 10 1-1-2-4-4-4l-6-4c-6-6-8-6-4-2m376-1l-3 1-8 5-12 9-18 12-18 13-11 8a151 151 0 0029-18 828 828 0 0037-25c7-4 9-7 7-7l-3 2m-81 1c-1 2 0 3 3 2l2 1c0 1-7 4-11 4-3 0-3 0-2 4 1 9 5 8 12-1l4-5 6 1h6c-3-3-6-4-8-3s-2 1-2-1c1-3-8-4-10-2m-41 5l-1 6c-1 2-2 5-1 8v4l3-5 3-5c2 0 1-3-2-7-3-3-3-3-2-1m211 0l-2 2 2 3 3 2 5-2c5-2 6-4 3-5h-11m-201 4c-3 2-2 5 1 6 4 2 11-1 7-3l-1-3c0-3-5-3-7 0m-106 2l-1 1v9l1 2v-1l2-1c2 1 2 1 0-1-1-2-1-2 1-1h2l-2-2c-2-2-2-2 0-1 3 2 4 1 1-1l-2-4-1-2-1 2m321 1v2c-2 3-3 3-2 0l-1-2c-1 0-5 4-5 6s5 3 6 2a2 2 0 012 1c-1 2 0 5 2 6 2 2 2-2 0-4h1c2 0 2 0 2-3a8 8 0 00-5-8M65 71a8 8 0 00-5 6h2c2 0 2 0 2 2-1 1-1 1 0 0l4-3c5-4 2-8-3-5m17 0l-2 1c-2 0-7 8-11 15-1 2-1 3 1 2s5 1 3 2v2l-2 2c-1 1-2 0-2-1h-2c-1 1-1 1 1 3 2 1 2 2 1 2-2 0-4 3-5 8 0 4 0 5 3 6l6 3 38 20c23 12 23 12 21 9 0-1-2-3-5-4-7-3-9-4-7-5 1-1 1-1-1-1-2 1-20-7-20-9h4c0-2 2-1 2 0-1 1 0 2 1 2l1-1 2-1-11-4c-4 0-1-2 3-2s4 0 3-2c-1-1-1-1 1-1l2 1-2-2c-2-1-2-1-1-2 2-2 2-2 0-3v-3c2-2 1-2-7-3-8-2-11-1-11 1v3c1 1 1 2-1 3s-1 1 5 2c7 0 7 0 3 1-10 0-11 3-1 7 2 0 3 1 2 2l-3-1-5-3-5-2-7-4-4-2 3-3c1-2 5-4 8-5 6-2 8-5 3-3h-2l2-2 2-2h-4l3-3 2-2c0-2 2-1 4 5 3 5 8 7 10 4l-2-1 3-4c5-3 7-7 3-7v3a1 1 0 01-2-1v-2c-1-2-3-3-3 0a2 2 0 11-2-2l-4 1h-2c1-2-2-1-5 2-6 4-12 4-8 0l2-3c0-2 6-5 11-5 4 0 4 0-3-7-6-5-7-6-7-4m192 1l-1 2-2 5c-4 6-4 8 0 3 5-4 4-2-1 5-3 5-3 10 0 5l6-8 5-7c0-2-2-2-4 0-1 1-1 1-1-1 1-2-1-6-2-4m-89 1l-2 2-1 3-4 4-3 4c-1 1-1 1 1 5 3 4 6 13 5 16l4 7 6 8c2 3 4 4 7 3 2 0 2 0 2 2-1 1-1 2 1 3 3 2 5 1 5-1l1-4c3-3 2-4-1-7l-5-6-4-4c-1 0-2-1 0-2v-4h2c2 2 2 2 4 1h1l-1 3h-4l2 1c2 1 2 1 5-2s3-4 0-5c-4-1-4-2 0-1 3 1 4 3 2 6-2 2-2 11 0 11l2 3c1 3 6 4 7 2V95c0-1 0-3 2-4 1-2 2-3 1-4V77c1-5-2-5-5 1l-2 4v3c1 3 1 3-1 2h-3c-2 1 0 6 2 7 2 0 3 2 1 2s-5-3-5-4l-1-1v3c0 3-1 4-3 1l-4-2-5-2h-5c-2 1-4 1-3-1h8c1 1 7 2 7 0 2-3-14-6-17-3l-3 1 3-4c3-2 4-4 4-5-2-2 1-2 3 0l3 2v1l-2 1c-3-1-2 0 1 1 2 1 5 0 7-2 0 0-4-4-6-4l-2-2c-1-3-4-4-7-3m108 2l-11 14-6 7c-7 8-5 4 2-6 7-9 9-12 6-11s-15 17-15 20l-1 6c-2 4-3 13-2 13l20-19 18-17c5-4 5-5 4-5h-5c-1-1-2 0-5 3-5 6-9 12-17 19a17 17 0 00-6 9h-1l-2 1c-2 0 16-22 24-29 3-3 4-5 3-5h-6m174 4a913 913 0 00-31 12l-7 4 11-4 4-1 3-1 10-4a62 62 0 0012-6l6-3-8 3m-229 2c0 4 3 8 9 11 7 3 8 6 8 15-2 12-9 18-16 11-2-1-2-1-1 1 0 3 6 4 10 3 6-2 8-5 9-11l1-7c1-5-4-12-10-14-4-2-6-4-9-8-1-3-1-3-1-1m317-1l-11 3-10 4h2l4-1 20-6h-5m-188 5l-12 8-4 4 4-2a116 116 0 009-6l12-9-9 5m198-2l-10 3-3 1-7 2c-6 1-8 3-4 3l3-1 1-1 23-5c1-2-1-3-3-2m19 2l-13 2-24 6c0 1 8 0 12-2l11-2 18-4h-4m-158 1l-18 8-23 11-5 3c0 1 1 1 5-1l20-9 12-6 7-3 4-2c2-2 1-3-2-1m-264 3c-1 1 1 8 3 8v1l1 3c1 1 1 1 0 0l1-4v1c0 2 0 2 1 1 3-2-3-12-6-10m161 2c-16 10-38 25-37 26a267 267 0 0034-22c9-6 11-9 3-4m-214 1l1 2-3 5-3 3 5-3c3-4 3-4 4 0 1 3 1 3-1 3-1-1-2-1-2 1l-1 1c-4-2-2 1 2 3 2 0 5 2 5 3h4l2-2c3-1 3-1 2-5-2-4-5-6-7-5-1 0-3-1-5-4-3-5-3-5-3-2M4 95c2 2 3 4 2 5h2l5 1 10 5 12 5a5 5 0 007 0l-4-1-4-1-1-1-1-1A178 178 0 014 93H2l2 2m520 0l-6 1-11 4c-1 1-1 1 2 1l11-2 5-2 5-2 3-1c2-2-5-1-9 1m-108 1c0 1-4 4-10 6-8 4-12 7-10 7a225 225 0 0025-10c5-1 8-5 4-4-5 2-7 2-7 1a1 1 0 10-2 0m-260 3c-2 5-1 15 2 15l3 2c2 2 1 0-1-5s-4-11-2-11l1-2c0-2-2-1-3 1m183 5l-11 6-6 4-15 10-14 9c-9 7-4 5 10-4l35-22 12-10h-1l-10 7M1 99v1a2 2 0 001 4c2 0 10 2 16 6l25 11c2 0-4-5-5-5l-27-12c-2-1-2-2-1-2v-1l-1 1c-1 1-6-1-6-3 1-1 0-1-1-1-2 0-2 0-1 1m355 5l-3 2-10 5-11 6-3 3c-1 1-4 2-4 0l7-4 5-4h-2l-8 5-12 7a152 152 0 01-21 12c-4 3-7 4-7 3 1-2 0-1-4 1-2 1-3 2-2 3l-7 5a106 106 0 00-17 11c-4 3-5 4-3 4l20-12 13-8 14-8c3-3 4-3 2 0-1 2-3 4-6 5l-5 3 1 1 36-18c10-5 11-5 5-4h-4l3-2 5-3 7-4 11-7 4-3c0-1-1-1-4 1m115-1h1l1 1-1 3-1-1-3 3-3 4-3 3-2 2h2c6-2 14-12 12-15h-3m-171 8l-26 18c-2 1-4 3-2 3l16-11 4-3 14-10-6 3m65 4l-18 8-9 4c0 2 3 0 14-4l16-7c8-3 13-7 9-7l-12 6m-313 0c0 2-2 3-4 2h-1c0 1 1 2 3 2 7 1 2 11-4 11l-4 1 2 8 1 2 2 4 1-2v-3h1a1 1 0 102-1l1-3 1 2c0 2 3 6 4 6l-2-5-3-6v-3l-1-2c1-1 5 4 5 6l1 1v-5l-1-3c0-2 1-3 2-3s1-2-1-3v-2c2 0 1-4-2-5s-3-1-3 1m415 3a16 16 0 01-8 6c-3 2-3 2-1 2 6 0-2 2-29 8l-15 4 15-1 21-4 10-3c1-2 2-2 3-1l3 1 5-1 8-3 3-1c2 1 4 0 4-2h-5c-6 0-7-1-5-3v-1l-1-3c0-2 0-2-3 2-4 6-7 6-3 0 3-5 2-5-2 0m-354-1v1c2 0 1 2-1 3l-3 2h1l3-1v5l-2 2c-1 2-1 2 2 0l2-3c0-2 3-2 4-1s2 1 2-1c1-2 0-3-1-3l-2-1 1-1 1-1h-3c-2 0-2 0-1-1 0-2-1-2-3 0m190 4l-5 3-9 6a97 97 0 00-22 17l11-7 20-13 9-7c0-1-1-1-4 1m-166 0l3 6 2 2c1 2 1 2 2 1 0-2 0-3-3-5s-3-3 2-4c2 0 3 0 5 3s3 3 2-1c-2-3-11-5-13-2m453 1l-12 3-5 1 3 1 12-2c8-1 12-3 6-3h-4m-424 6l2 4c3 2 3 2 1 2l-3-2-2-2-1 2-4 2-1 3c0 2-1 3-4 5-5 1-5 2-3 3v2l-1 1c0 2 4 1 13-3a37 37 0 0113-4l-1-1 2-3 3-2h-4a9 9 0 01-8-9l-2 2m26 0c2 3 7 6 12 6 3 1 4 1 3 2s-10-1-12-3c-4-3-9 2-10 9-1 5-2 6-3 4-1-1-6 2-9 6l-4 5-2 2 5 1 8 3c4 4 11-3 12-13 1-5 4-11 5-9l-1 3-2 8c-1 9-13 20-16 13 0-1-6-4-9-4-9 0-19 9-13 11 1 1 0 2-3 3s-6 2-8 5l-4 4c-4 0-6 7-3 11 1 3 1 7-2 9-1 2-2 0-1-3s-1-10-3-10c-3 0-4 8-1 13 2 3 1 5-2 2s-3-8-1-12c2-5 1-6-3-5l-3-1 6-1 6-1 2-2c3-4-6-10-14-9l-4-1c0-1 3-2 10-2l7 1-3-2c-5-5-18-5-17-1l-3 16c-1 2-2 4-4 4-4 2-4 10 1 17 2 3 3 2 2-5 0-12 7-23 15-22 3 1 3 2 1 3-6 3-8 4-11 8-7 9-1 24 11 28 6 2 14-4 15-11 1-5 3-8 10-10s6-2 7-5c0-4 5-14 7-14 3-1 1-6-2-7-4 0-4-2 0-2s7 3 7 6c-1 3 2 3 9 0l12-7c0-3 3-7 7-12 4-3 5-6 6-9l2-4 5-9 1-2h-3c-6 0-13-1-15-5-3-3-5-3-3 0m-123 3h-2c-2 0-4 10-4 21-1 11 0 14 1 12 2-2 3-1 2 1 0 2 0 2 2 2 3 0 3 2 0 7l-1 4 2-3 2-4c1-2 0-3-1-6-3-5-3-7-1-7s8-10 7-10c-2-1-4-10-4-11l5-1c4 0 4 0 6 5l3 4h1l1-1c1-1 0-2-1-4v-5l-7-3c-5-2-5-2-6-1-1 2-3 3-3 1s-2-3-2-1m396 1l1 1h2l-4 2c-3 0-3 0-2-1l1-2c-3 0-4 3-2 4l2 4c1 3 3 3 5-1l2-3 1-2c0-3 0-3-3-3l-3 1m25 1l-6 3-2 2h3l3 2 4 5 4 4 1-2 3-5c5-8 1-12-10-9m-52 4c-12 3-12 3-6 3l8-2 4-1 7-1c4-2 1-2-13 1m-95 0c-6 2-16 12-14 13 1 1 8 0 7-2 0-1 5-8 9-11 4-2 3-3-2 0m78 6c-5 2-7 6-6 12 0 2 4 2 4 1l4-7c6-7 5-9-2-6m-318 5c0 5 0 5-2 5-3 0-5 1-5 6-2 5 3 7 5 1l3-5c3-4 4-5 1-7l-1-3v-1c-1-1-1 1-1 4m374-3c-4 0-7 2-8 3l-2 2h2c5-2 17-4 17-3l-10 3c-6 1-13 3-15 5l-13 2c-11 1-34 7-26 7l9-1 18-4 21-5 15-3 7-1-4-3-5-4-6 2m91 2c-2 3 1 4 5 3l5-1 17-2h-27m-456 4l-1 3c0 1 0 2-2 2-3 0-3 1 1 6 4 4 4 4 7 3l8-1c4 0 5 0 6-2 0-3-2-5-10-10-7-4-7-4-9-1m-68 0l-1 3 1 1v6l1 2v4c0 2 0 2 1 0l1-3 1 4 4 5 3 1-3-2c-2-3-4-7-4-10s1-2 2 2l2 4-1-5-2-9a4 4 0 00-5-3m98 0c0 1-1 1 7 5l12 5c1-1-1-4-3-4l-6-2-5-2-2-1c-1-2-2-2-3-1m292 3c-9 4-10 6-1 4l7-2 2-2c0-2 0-2-8 0m54-1l-4 2-1 2c-1 1 0 1 4 1s5-1 6-2c2-3 1-4-5-3m-350 1v2c-1 2-1 2 3 4l5 3c0 1-2 1-6-1l-6-2c-3 0 2 4 8 7 6 2 6 4 0 2-5-1-6-1-2 1 3 2 3 2 1 2-3 0-4 4-1 5l1 2c0 2 9-7 11-11l4-4c1-1 1-1-1-3l-3-2-7-3c-5-3-11-4-7-2m-64 5c-1 4-1 5 3 3s5-1 5 6 0 7-2 7-13 10-15 15c-3 5-3 8-1 7 2 0 3 1 4 4l1 3 1 4c1 1 1 1 1-2 0-5 3-12 7-19 8-12 9-21 3-28-4-5-5-5-7 0m303 1c-3 2-5 6-7 9-3 5-6 7-4 3v-2l-3 3-1 2h8c10-1 10-1 8-4v-5l2-5 2-3c5-4 0-2-5 2m-43 0c-9 1-14 3-13 4l22-5-9 1m114 1l-12 3h9c9-2 20-5 14-5l-11 2m-44 0c2 0 3 2 1 2l-2 1-2 4c-3 3-3 4 2 4l5-1c2 0 3-6 2-7v-2c1-1-2-2-6-2-2 0-2 0 0 1m-23 5c-3 5-1 7 6 7l7-1c3 0 8-9 5-9-2 0-8 2-8 4-1 2-3 1-6-2l-2-3-2 4m-274 3c0 5 0 6-4 7-6 2-14 11-14 16v4l2-3c2-4 5-6 6-6l-2 4c-4 5-6 12-5 16s2 3 3-1c1-6 3-10 9-16 9-8 12-17 8-24-2-4-2-4-3 3m480-4l-15 1-17 1-16 2-19 1-14 2-22 2c-17 1-20 1-26-1h-12l-29 3a935 935 0 00-35 2l-26 3-15 1a332 332 0 00-43 4l-1 1c1 1-1 1-4 1l-8 1c-3 1-2 1 3 1 6-1 7 0 7 1l-8 1c-11-1-13-1-2 1l18 3c21 3 37 4 38 2 1-1 1-1 1 1l-1 4h-3c-7-2-18-2-13 0l4 8-5-1c-4-1-5-4-2-4 2 0 2 0 0-1-6-1-7-1-6 1l-1 2-1-3-1-1c-1 0-2 1-1 2l-2 1-4-2c-5-1-4-2 0-1l4-1c-2-1-11-3-17-3h-4l-4-1c-7 0 3 4 18 7l16 4a638 638 0 0028 7l2-1-1-1c-2 0-5-5-5-9 0-6 5-15 8-15l4-4 5-5 13-1 18-2c5 0 5 1 2 8l-3 8-1 5-1 10 1-2 2-2 4-2c3-3 26-9 26-7l-5 4c-5 3-9 7-20 18a12 12 0 01-10 7c0 1 5 3 19 6a393 393 0 0121 5l6 2h12c2-1 4 0 6 1l6 1 20 5c7 2 10 3 8 1l-19-6c-9-1-17-4-17-5 0-2 2-2 6 0l13 3c9 1 32 6 44 10 7 1 15 2 12 0l-9-2-8-2-4-2-29-7-18-3c-2 0-3-1-2-3 1-1 20 2 36 6a208 208 0 0024 6 1 1 0 100-3l-15-3-18-4c-16-3-22-5-23-8v-3h6a166 166 0 0116 2l11 2 22 2a1736 1736 0 0170 9l19 2h5l-4-1-9-1-19-3-23-3-19-2-18-3c-12 0-32-3-48-5-28-4-29-4-26-6 1-1 4 0 17 2l33 4c3 0-3-2-18-4-9-1-12-2-11-3h23l-3-1c-2-1-2-1 2-1l8 2c3 2 4 2 15 2a35 35 0 0114 1l6 1c1 1 20 2 21 0l-7-1-31-5c-2 0-2 0 0-1h4l19 2-5-1c-9-1-11-2-11-4l1-3c0-2 0-2 14-2 34 2 42 2 38 1l-14-2-4-1 24 2 40 3c0-1-7-2-15-2l-22-3-56-5c-1 0-2 0-1-1 0-1 8-1 33 2 49 4 50 5 50 3 0-1-64-8-75-8l-5-1 9-1h11l34 2h16l-30-4c-20-1-29-2-29-4l1-2v2l9 1 17-1 9-1-4-1c-10 0-30-1-26-2l6-2c1-2 7-2 43-2l42-1-42-1c-41 0-43 0-43-2 0-1 1-2 3-2h16l21-1c7 0 9-1 5-2l-5-1m-495 4c1 2 0 4-1 6-2 3-3 7-1 7 1 0 3-1 3-3 1-1 3-3 5-3 4-2 2-7-3-9-3 0-3 0-3 2m230 4l-3 5h4c4 0 4 0 4-3l-1-5c0-3-2-2-4 3m16-2l-4 7a13 13 0 007-4l-1-1c1-1 4 1 4 3h1v-4c2-1 1-2-1-1l-3-1c0-2-2-1-3 1M0 172c0 1 1 2 12 3l14 3c17 4 25 5 26 4s-4-3-13-4l-33-5-6-1m222 3l-2 1c-4 0-5 2-1 2l7 3c3 4 5 3 6-1 0-2 0-3-3-4-4-2-7-2-7-1m220 2l-16 8c-14 10-17 11-20 8l-5-2-4-2h-3c-2 3-1 4 2 5l5 3c1 2 2 2 5 1 6-3 15-3 16-2h4c3-2 4-2 7-1s4 4 1 4c-3 2-6 10-4 11 4 2 14-6 11-8-1-1 0-1 2-1l3-4c3-5 11-11 18-16 4-2 4-3-2-5-6-1-15-1-20 1m-383 6c0 8 2 10 4 4 3-4 2-5-1-6l-3-2v4m338-1c-2 4-2 4 1 5s3 1 4-4-3-6-5-1m-231 0l-3 6c-2 4-1 6 4 6l4 2h4c1-2 0-5-1-5h-5c-3-2-3-2-2-3l2-2 1-1 2-2c1-3 1-3-2-3l-4 2m149 4c-4 1-4 1-1 1h4l-1 3c-2 5-1 5 5 6h5v-5l1-6h-4l-9 1m167 3c-9 4-18 14-14 14l14 1 8 1-1-2c-1-3-1-8 2-15 1-3-2-3-9 1m-112 7c-5 5-6 6-9 14l-2 8-5-1c-6 0-5 1 2 2l16 5 12 2-3-2-4-2c-1-1 3-5 4-5 2 0 6-4 6-5l-4 1-3 2 1-3 2-6v-8l-2 7c-1 3-5 15-7 17 0 1-13-4-12-5l1-6c2-7 4-10 10-15l5-5c0-2-2 0-8 5m-187 0l-4 6-4 6-4 4c-4 2-6 6-3 6 2 0 17-15 17-17 1-8 0-10-2-5m-108 2v7l4-3 4-2-2-1-3-2c0-2-3-1-3 1m86-1l-7 3c-7 3-8 5-11 13-1 4-8 9-13 9-3 0 0 5 4 9 7 5 21 3 21-4l4-6c5-4 6-7 5-9-2-3-11-6-11-3l-2 1s-2 1-2 3c-2 3-3 3-2 0 2-8 9-10 17-4 3 2 3 2 6 1 2-1 2-1 1-2s-1-1 1-3c5-3 8-7 7-8h-2c-1 2-5 3-7 1-1-2-6-2-9-1m-64 4c-4 12 3 21 13 16l3-3c0-1-6-5-8-5l-3-2c-2-2-2-2 0-2l3 1v-1l-2-2c-1 1-4 0-5-2s-1-2-1 0m-16 3l-3 4c0 2 0 2-3 2h-4l2 2c4 7 14 2 14-7 0-5-1-5-6-1m201 1l11 3 12 4 2-1-9-3-12-3h-4m177 0l33 5h8l-9-1a999 999 0 00-31-5c-2 0-2 0-1 1m-49 5v1l18 3c1-2-2-3-9-3l-8-2-1 1m162 1l4 1 11 1c9 2 17 2 15 1l-13-2-14-2-3 1m-73 10l14 2 25 3 3-1c0-2-1-2-10-3h-11c-13-2-24-2-21-1m-149 4c-4 4-6 16-2 14l12-1h10l1-4c2-6 2-6-10-9-9-2-9-2-11 0m113-1l2 1 3 1 7 1 12 3a453 453 0 0040 6c7 0 3-2-5-2l-7-1-5-1a30 30 0 01-10-2l-17-4-10-1-6-1h-4m79 1c0 2 1 2 17 4l21 2c11 2 20 2 20 1l-4-1h-5l-45-7-4 1m-417 6l3 3-2 2c-2 3-4 4-4 2l2-2c1-2 1-2-1-3-2-2-6-1-6 1s-3 1-4-1c-2-4-13 2-10 7 1 3 12 8 13 7l-1-1-3-3h4l3-1c2-2 4-1 2 1v2c1 0 8-9 8-11l-6-5 2 2m249 2c-1 4 1 5 3 3l4-2c4-1 4-3 0-3l-5-1c-1-1-2 0-2 3m-223 11l-3 1c0-1-4 0-5 2l-3 1c-5 0-5 2-1 4l4 4h2c2-1 0-4-4-4l-2-2h4c2 1 3 1 5-1 3-3 4-2 1 2l-2 2 2-2c6-4 9-7 6-6h-2c1-2 1-2-2-1m-88 2l-17 3-11 1-3 1-11 3-20 4c-1 1-1 1 1 1l9-2 7-1 6-1 14-2 13-3c9-1 22-4 22-5l-1-1-9 2m22 0c0 4 9 11 14 11 2 0 2-4 1-5l-4-1-5-3-3-3c-3-1-3-1-3 1m73-1l-4 5-4 5c0 1 1 1 2-1l3-2v1l-1 2c0 2 2 1 5-1l3-3c2 0 2 1 0 3-2 3-1 4 2 1l3-2 1-1a9 9 0 019 5c2 0 1-1-1-4-2-2-2-2 0-1l2 2c1 1 2 1 3-1 3-2 3-4 0-2-1 1-6 0-6-2h3l2 1c2-1-2-4-6-5l-3 1v1l-2-1-2-1v1c0 2-2 1-4-1h-5m330 4l11 3a8889 8889 0 0135 10l6 1 12 4a1479 1479 0 0120 5c5 1 3-2-3-3l-6-2-21-6-8-2-7-1-7-2-6-2-9-3c-9-2-19-4-17-2m38 2l23 5c3 0-1-2-10-3l-10-3-3 1m-338 5v2l1 3c-1 2 3 2 5 0l3-1-1-2-4-1c-2 2-3 1-2-1 0-2 0-3-2 0m295 1l5 2 6 2 7 1 6 1 7 1-17-5c-16-4-22-5-14-2m-107 1c-2 1 0 4 3 6h4l4-3c2 0 2 0-1-2-5-2-8-2-10-1m29 2c-5 2-7 4-3 2 3-1 15-2 19-1l-2-1c-7-3-7-3-14 0m-267 0a28 28 0 00-13 7c-1 0-7 8-7 11-3 9-1 10 6 2a44 44 0 0118-13c5-5 24-6 24-1l3 2c2 1 2 2 2 4l-1 2 8-1c10 0 15 2 19 7 4 6 6 3 3-5-3-5-7-8-14-12-7-3-7-3-6 1 0 3-2 3-6 0-8-5-28-7-36-4m342 1l9 3a16 16 0 017 3l6 1a95 95 0 0019 4h3l-3-1-8-3-12-3a25 25 0 00-10-2l-11-2m-244 9c0 6 1 8 2 9l1-6-1-9-1-3-1 9m193-7l1 3c0 3 5 4 9 3h4l1-1-6-3-9-3v1m-363 5l-18 7-13 5-6 2-3 2h-2l-5 2-10 4-4 2h5l19-7c6-3 9-4 9-2l-4 2-3 2h-1l-2 1-2 1-6 2-6 2-3 1H6l-3-1v5c0 5 0 5 3 5l2-1c-1-1 0-1 0 0l5-2 4-2a16 16 0 009-4 5 5 0 006-3c1 1 7-1 7-3l2-1 6-2 5-2 5-2 5-2 5-2 10-4c6-3 7-3 5-5h-4l-2 1a265 265 0 00-25 10h-6l20-9c8-2 13-5 13-6l-12 4m334 2l-4 5c-2 4-6 10-10 13-5 4-5 5-1 8l5 3h6l5-3c3 0 16-7 18-9 2-3 7-12 7-15 1-4-4-5-14-6h-9l-3 4m-321 5c-15 7-17 8-14 8l5-1 10-5 7-4c0-1-1-1-8 2m2 9c-11 5-15 8-14 9a46 46 0 0013-7l14-7-13 5m238-5l6 8 7 6a8 8 0 00-5-6c0-3-7-10-8-8m-219 2l-3 1a103 103 0 00-20 11h-2l-1 2h-1l-2 1-2 1-2 1a2 2 0 005 0v-1c3 0 31-16 31-17l-3 1m182 0c-10 4-9 7 2 7 6 0 7 0 10-3 1-2 4-3 5-3 2 0 3-2 0-2h-6c-3-1-7 0-11 1m-153 3c-1 2-3 3-3 2l-1 2-1 1h-1l1 2 1 2 2 1c2 0 3-1 3-2l3-1c2 0 2 0 1 1l-2 2 1 4c0 3 3 3 4-1 2-4 3-4 2-1 0 2 0 2 1 1l4-2h1l-2 2c0 2 3 0 7-3l6-6 1-2-2 1h-2c0 2-2 2-4 3-3 0-3-1-3-3h-3l-2-1c1-2 1-2-2-1-4 2-4 2-3 0l-1-2h-2c-1-2-2-1-4 1m-26 0c-6 3-8 5-7 6v1c-3-1-4 0-5 2 0 2 2 1 7-3 5-2 8-5 8-6h-3m151 0c-2 1-2 2-1 2h-1l-3 2-4 4-9 7h-1c-2 0-2 1-2 5 0 5 2 6 3 2 1-1 1 0 1 1l-1 3c-1-1-1 0-1 1 0 2 0 2 1 1l2-1v2c-1 0-1 1 1 1 1 1 2 0 1-1 0-2 7-9 9-9l1 5h4c3-1 4-2 2-5h-2c-1 3-2 2-2-2l2-4 1 1v1a2 2 0 000-4c-4 2-11 3-11 1l4-2a10 10 0 005-3c2 0 3 0 4-4 2-6 1-6-3-4M0 342c0 32 1 45 1 29a3680 3680 0 00-1-29m297-57c-2 1-2 2-2 14l-1 13 7-4c0-2 2-1 2 2l2 3 1-3c-1-3-1-3 1-4l2-1h1a47 47 0 00-1-20h-12m199 0v1h1l2 1 2 2 4 1h2c-1-2-1-2 3-1h4l-4-1c-3-1-5-2-6-1l-2-1v-1l-4-1-2 1m-73 2l-1 1a41 41 0 0017 8v1c2 0 1-2-1-3l-11-6-4-1m-69 4l3 9 1 2c0 2 1 2 4 0 1-1 2-2 1-3l-1-1c2 0-3-6-5-8l-3-2v3m-313 1l-3 2a2 2 0 002 3c-2 1-1 2 2 1l10-6-2 1h-2l-1 1-2 2v-1c2-1-1-4-4-3m47 1l-2 3h-1c-1-1-5 0-5 2l-1 1c-1-1-6 3-4 4 1 1 1 1 0 0 0-2 0-2 1-1 2 1 6-1 12-6 3-2 3-5 0-3m423 2h-2l-2 1 2 1 2 2c1 3 1 3-2 0a3 3 0 10-4 2l1-1c-1-3 0-2 3 1 2 2 5 3 5 1l2-1v-1c-1-1-1-1 1-1l3-1-3-1h-3c-1-1 0-2 2-2 3-1 3-1 0-1l-5 1m-477 1l-2 2-1 1v-1h-2c-2 0-5 7-5 8l1-2 3-2v1l1 1 3-1-1-1c-1-1-1-1 1-1h1l1-1h2c2-1 0-5-2-4"
      tabindex="-1" itemprop="light" style="fill-opacity: 0.9; fill-rule: evenodd;"></path>
    </symbol>
    <symbol id="-posters-1650742855615-regular">
      <path d="M0 7c0 7 2 11 6 11l5 4 5 3L4 14l-3-4 2 1c1 2 1 2 3 0s2-2 5 2c5 4 7 4 4 0l-3-3c-2-1-2-1 4-2h5l10 10 10 9-9-11c-5-6-6-7-4-8h3c0-2 0-2 1-1l3 1 2 3 3 3 6 4c5 6 6 5 1-1-4-4-6-9-2-6l10 11 7 7c2 0-2-6-5-7l-2-2-3-5c-4-4-5-6-3-6l21 22 4 3-12-16c-2-1-5-7-4-7l7 7 7 7-3-5c-5-5-9-12-8-12 2 0 6 2 6 4l2 2 2 2a81 81 0 0018 21c0-1-3-6-5-7l-1-2-4-6c-6-6-8-8-9-12l-2-3h3c3 1 5 4 12 13l5 6c2 0 1-2-3-7-5-6-7-9-5-9l3 3 3 4 4 5 10 13c7 9 7 9 4 9l-3 1c-2 2-5 1-6-2l-4-4v1l2 3 1 2v3h3c0 2-3 5-5 5l-8 3h2l1 2v2c1 1 1 0 1-1 0-2 1-2 3-2 3 0 6 2 5 3-2 1-2 3 0 3l1 2 1 1 1-3c0-4 2-3 2 1 0 2 0 2 1 0l1-2v1l1 2c1 1 5 2 4 0l1-1c1-1 1-1-1-1l-3-2h2c3 0 6-3 5-6v-5c2-4 4-5 4-3l1 1 1-3-2-2h-5c-3 0-4 0-6-4l-5-7-3-3-4-6c-7-9-13-20-8-16v2l1 1 4 3 4 6c3 2 9 10 11 14 3 5 7 10 7 8s-4-8-12-18a42 42 0 01-7-10c-2-4-3-5-1-6 1-1 1-1 1 1h2c2 0 4 3 20 27l3 4a119 119 0 00-11-19l-3-6c-4-6-2-6 2 1 5 7 6 6 2-1-5-9-4-8 3 2l6 9-7-15-1-2c1-1 7 6 9 10 1 3 1 3 3 1 1-1 1-1-1-3l-2-3-1-2V9h1l1 2 9 14c2 4 4 5 3 1l-2-4-1-2-2-6c-3-5-3-5-1-7 1-1 5 2 5 4s8 13 9 13l-3-8c-3-6-3-6-1-8s3 0 11 16l4 5-3-9-4-9-1-2 2 2 2 4 1 1 4 7c5 10 5 6 0-5-5-12-6-13-3-10l2 3 4 5 1 3 1 1-2-6-2-7c1 0 5 6 6 10l4 8-2-9c-3-9-2-10 2-1l3 8 3 2v-2l-1-3-2-6c-2-5-2-5 0-5s5 6 5 9l1 2c1 0 2 1 1 2l1 4c1 2 0 2-11 3-5 1-7 2-4 4l3-1 2-1-1 2c-2 3-2 4 2 4 1 0 2 0 1-2l1-2 1 2 3 2c2 0 2 0 1-3v-3c1 0 4 8 3 9 0 2 0 2 2 2l3-2-3-13-2-6-1-6-2-6-1-3 2 2c2 2 3 6 4 9 3 7 4 5 2-3l-2-7 6 14 1 3-1-11c-2-6-2-6 0-5l2 4 6 13-2-9-2-9c1-1 4 3 5 6l1 8 1 6v2c1 1 1 1-1 1l-2 1-1 2-1-1c0-2-1 0-2 2 0 2 1 3 3 4s3 3 1 4l-1 1h1l3-1 4-2c3-2 12-6 15-6l-2 1-3 3a2 2 0 01-2 1c1-2-3-1-6 1s-6 7-4 7l1-2 3-2v1c-3 3-2 4 1 3 2 0 2 0 2 2l-1 2-3 1c-1 2-1 2 3 1l4 1 2 2c2 1 2-2-1-4-2-2-3-6-1-7h4c5-2 6 1 5 5l-2 7c0 2 1 1 2-3l4-7 2-3c0-2 0-2-1-1h-12l1-1 5-2 6-2c1 0 2-1 2-6 0-6 0-6-2-6h-1v-8c0-5 0-7 1-5 0 4 2 3 2-2 0-7 2-2 2 6 0 10 2 9 2-1l1-8 1 21c0 8 1 3 2-8l1-12c1-2 1 0 1 6v8c3 0 7-5 7-8-1-2 0-7 1-7l1 9c0 7 0 9 1 7l1-5c0-5 0-8 2-10v13c0 4 2 4 2 0 0-3 3-2 4 1 0 3 0 3-2 3-3 0-4 2-4 5h1l1-2v2l-1 4c-2 3-2 4-1 4l1-1 3-3c2 0 3-1 1-4v-2l2 3c1 2 4 3 5 1 1-1 2-2 5-2 2 0 3 0 2-1-3 0-2-2 2-4 4-1 7-5 7-9l-2 3c-2 5-5 6-3 1 2-10 7-19 6-9-1 4 0 4 1 0 2-4 5-5 5-3l-3 10-2 8 3-6 6-13 1 2c-4 12-3 14 1 5 3-7 3-8 6-6v2c-3 3-3 6 0 4l1-2a8 8 0 014-4l1 1 1-3h1v7l2-2 2-3 1-2h5c-1-1 0-1 0 0 1 0 1 1-2 5l-4 9-2 3-1 2c0 2 3 0 5-5l3-5 2-3 2-3 3-3h2l3 1c2-1-2 6-5 9l-2 4 6-6a12 12 0 019-8c-1-1-1-1 0 0 3 0 2 2 0 5l-9 13 3-3 11-13c2-2 4-3 6-2 1 2-2 6-9 14-3 2-4 4-4 5 1 0 6-4 6-6l3-2a6 6 0 003-5l5-4 5-3h1c2 0 0 2-11 14a97 97 0 00-10 12c-5 4-13 14-13 15l20-20c11-12 15-17 19-19 5-3 5-2-1 5-7 7-5 8 2 1l9-7 4-1-3 4-3 3-3 5 4-3c7-7 16-11 11-4-2 3-1 4 2 1 5-4 7-6 11-6 6-1 6 0 2 6l-2 3 13-9h1c3 1 8 2 11 0l-4 5c-6 6-6 6 1 2l14-7-1 1v1l-4 5c-5 3-6 4-5 5l11-7 8-4 4-1 2 2 2 3-1-3c0-2 0-2 2-1v3c-4 2-9 7-8 7l5-3 7-4 4-2 5-1 4 1-5 3c-7 5-5 6 4 1 4-3 8-5 11-5l5-1-4 3c-3 3-4 5-2 5l2-1 3-2 3-1 3-2 2-1 2-2v2l1 1c1 1 2 0 2-1l2-1 2 1-1 2-2 1-4 2a152 152 0 01-10 7l-6 2-5 2v1l2 1-3 1c-2-1-11 8-14 14-5 9-4 20 3 26l4 4-5 2-5 3c1 0 5-1 9-4l8-4-3 1c-4 2-2-1 3-4a4 4 0 003-4l3 4h1c2 0 3-1 1-3v-1l1-1h-1c-3 0-5-1-3-2l1-2-2 1h-3l-3-1c-2-1-2-1 0-1s8-7 8-9l-2-3-3-3-2-3c-3 0-4-2-2-2a8 8 0 016 6c2 0 4 3 4 6l1 2c2-2 1-7-1-9-2 0-3-2-3-3 0 0-1-2-3-2l-2-1 4-4 4-3 1 3 1-1 2-1 1 1 2-1 6-1h4l-2-1v-1l4-1 2-1 4-1c2 0 1 1-4 4l-7 4-1 1a27 27 0 01-9 11v4c-2 4-2 8-1 13 1 4 1 4 4 3 3-2 5-5 3-7-3-1-1-4 2-3 6 2 7 4 4 5l-3 2 6-3 3-2c-1 1-3 0-4-1l-5-3c-4-2-4-3-1-7l3-3h8c5 0 6 0 8 2l5 3 1 2c0 1 1 1 4-1l1-1c-4 1-12-9-10-12l-2-3c-3-2-3-3 3-4 8-3 11-2 10 3 0 7 5 13 11 11 3-1 2-2-2-3-5-2-5-2-4-5 0-3 3-5 7-5l4-2h-1c-2 1-3 0-4-1l-6-2-4-1 3-2 23-11c3 0 1 3-4 5-8 4-2 3 7-1 9-5 11-5 8-1l-3 3-3 1c0 2 1 1 8-2 12-5 12-5 13-4h1l3-1c1 0 2 0 1 1l-3 2-2 2-13 6c-2 3 0 2 13-4 12-6 19-8 16-5l-2 2c-2 0-6 4-6 4l6-1a42 42 0 0118-6c-1-1 0-1 2-1 4 0 3 2-4 5-10 5-13 8-5 4l12-4c7-3 15-5 17-4h3l2 1c2 0 2 0 2 2-1 3 2 4 4 2 3-1 3-1 2 1h4c3-1 3-1 3-8V0H0v7m263 7c-2 9-2 11-1 11l2-6 3-8V7c-1 0-2 1-4 7m228-4l-8 4c-12 7-17 11-10 10l5-3 13-6 2-1 4-3c6-3 7-4 3-4-2-1-5 0-9 3m11 1l-11 6-2 2h3l7-2 6-4c13-7 11-9-3-2M193 9l1 10 2 10 3-1 3 1h-2v2l-2 1c-3-1-3-1-4 1l-2 2-2 1c-1 2 5 0 8-2l5-2 1-2c-1-2-1-2 1-2 7 3 8 0 6-15 0-8-1-7-1 2 0 8-1 9-2 0-2-11-4-11-3 0l-1 7-1-1c-1-13-4-17-4-4 1 10-1 10-2 0a19 19 0 00-1-9l-1-1-2 2m66 3l-2 7a2 2 0 01-3 3l4 2 2-8c2-9 1-12-1-4m260-3a34 34 0 00-11 5l-4 2-4 3 2 1c3 1 4 1 9-3l8-4 4-2c5-3 3-4-4-2M0 19l15 12 11 10 6 4-8-8L2 19H0m344 3c0 1-4 6-9 10l-13 15c-4 4-6 6-8 6-3 0-4-2-1-3l1-1-7 6c-5 6-10 9-10 6l8-10c3-3 5-5 4-6l-4 4c-11 12-11 12-15 12-2 0-3 0-2-1 2-1 13-19 13-20l-4 3-6 9c-5 7-8 9-9 6l1-2c1 1 1 0 1-1l3-5 5-9 3-5-2 3-6 7c-3 6-3 6-8 0-4-3-4-4-3-7 0-4 1-4 6 1 4 3 5 3 5-2 0-2-3-9-5-9-1 0-1 1 1 4 3 4 2 5-2 3s-5-2-2-6l1-4c0-2-2 1-5 9s-3 9 0 10l2 1-1 1c-3-1-2 1 1 2 6 3 7 9 1 8l1 1 2 1-2 3a7 7 0 01-5 4l1 3c0 3 3 6 6 7l-4 8-6 8 7-8 6-6c2 0 2 3 0 5l-3 6 6-7 7-8c2-2 2-3 1-3-2 1-2-1 0-3 1-2 5-2 5-1h1c-1-3-4-3-9 1-8 6-8 6-10 6-6-2-7-5-3-8 3-4 7-4 7-1s3 5 3 2l-1-2c-3-1 0-2 10-2 13 0 13 0 12-3-2-3 0-5 7-4l5 2 2 1 4 2c2 1 5 1 5-1l-6-3c-4 0-9-2-9-4l12-13c14-15 17-19 16-19l-2 1m-108 3l-2 4-1 1c1 1 0 2-1 1-2 0-2 0-1 1 1 2 1 4-1 6v1c3-1 8-10 7-14l-1-3v3m319 2c-2 1-4 2-5 5-2 3-4 4-6 4l-6 2-7 3c-3 0-3 0-2 2 3 3 2 3-5 3-5 0-7 0-6-1h-2c-4 2-1 3 9 3 6-1 10 0 12 1 3 1 13-4 12-6 0-3 1-6 3-6l11-1 9-1a14 14 0 00-17-7M42 27l10 10 8 8-2 1 3 1 1 1 2 2c2 0 4 2 6 4s3 3 2 1l-6-6-13-14c-8-8-11-10-11-8m445 4c-4 4-4 5 3 5 5 0 6 0 4-4s-4-4-7-1m-352 2c-1 2-1 2 1 2h1l1 2c2 2 1 3-2 3-3 1-3 1 0 1l4-1c0-1 5-2 6-1 1 2 2 1 1-2-2-2-2-3-5-2-1 1-2 0-3-1-1-3-4-4-4-1m24 6v4c-1 1-1 1 0 0 2 0 2 0 2 2l1 4 1 3c-1 2 0 3 2 1v-3c-2-1-3-6-2-7l1 2 3 4v-2l-2-3-2-3-3-2c-1-2-1-2-1 0m294-1c-3 4-5 13-3 13v-1c0-2 3-4 4-4 3 1 2 3 0 3-2-1-2-1-1 1h7l-1-3c-3-2-2-4 0-4l2 2c-1 2 2 2 3 0 0-2-2-3-7-3l-3-2c0-2 3-3 3-1l1 1c2-1 0-3-2-3l-3 1m-197 2c-1 1-3 2-4 1-2 0-2 0 1 2 6 6 3 9-5 5-7-3-17 2-18 9l-2 4-1 2h1c6-4 16 1 14 7l1 3c4-3-2-13-8-13-5 0-5-1 0-6s8-6 13-4l7 1 5 2c2 1 2 1 1-1l-2-4-2-3a2 2 0 115-1l-1 4 1-3c4-5 0-8-6-5m-150 4c-4 0-8 2-8 3h5c6-3 8-2 3 0-7 3-8 4-7 7 0 2 0 2-2 1-2-2-8-3-8-1-1 1 0 1 2 1l6 1c2 2 12 3 13 1l-5-1h-5c0-1 6-2 7-1l1-1-5-1h-3l1-2c1-2 1-2 3-1h2c0-2 1-2 2-1 3 0 5-2 5-4s0-2-7-1m385 13c0 2 0 2-3 2-4-1-3 0 2 2 5 1 4 2-2 5-5 3-7 3-10-3l-3-1c-2 1-2 1-1 2l3 4c4 6 7 7 10 3 7-7 11-8 14-1 3 5 2 10-1 17l-3 7-2 2c-1 1-1-1 2-6 5-11 5-23 0-23v2c3 3 3 7 0 15 0 2-3-1-3-3s-5-5-8-5h-1l-3 12 2-1c1-2 1-2 1 1l2 4v2c-2 2-5 2-5 1s1-2 2-1v-3l-2-1-5 1c-5 0-15 8-18 14-1 2-3 3-11 6-9 3-15 6-12 6l5-2a57 57 0 0110-3c7-3 7-1-1 4s-25 9-21 4c2-2 0-2-4-2h-8l-2 1c1 1 0 1-1 2l-6 3c-4 3-7 3-7 1s-11-5-21-5c-6-1-7-2-4-3l4-2-1-1-14 7c-4 2-4 2-1 2 5-1 9 0 8 1l-8 1c-7 0-9 0-14 2-6 3-6 4-1 2s14-3 14-2l-5 3-4 1-7 1c-6 3-6 4 0 2 6-3 6-2 2 0-8 5-15 13-12 13 1 0 3-1 3-3 5-8 33-19 51-19 6 0 12 3 12 6 0 4 5 3 7-1l2-1 4-2c4-3 9-4 11-2 1 2 4 3 4 1l3-1c6 1 9 0 9-1l2-2c3-1 10-7 17-13 3-3 4-4 4-2l-4 5c-5 4-8 6-6 6s10-8 12-11c1-2 2-3 3-2a1 1 0 100-2c-2 0 2-5 5-6l2-2h-2l-3 1 7-4c2 0-2 9-10 23l-2 6c1 0 6-8 9-15 2-4 3-5 5-5s3 1 0 3v1h2l-1 1-4 8c-1 1-1 2-2 1l1-5 2-4-5 11h3c2 0 2 0 0 2-4 2-2 3 3 2 5 0 8-2 14-8 4-4 10-7 10-5l-4 4c-3 2-4 3-2 3l4-3c3-3 4-3 6-2h3c2-2 8-6 14-7 9-3 10-2 2 0-7 3-20 10-17 10l5-2c5-4 18-8 23-8s7-1 6-2l4-1h4l-2 3c-3 4-4 4-4 1l1-2-2 2c-2 3-3 4 0 3 2-1 1 1-2 5l-3 1h-2c-2 0-1 0 3-6 3-4 1-4-4 2-5 4-7 4-7 2l4-4c4-1 5-3 3-3-3 0-18 7-23 10-1 1-3 2-4 1l-2 1c0 2 1 2 3 2 3-1 6 0 6 1 0 2-5 3-5 2-1-1-5 0-8 1h-2l-4 1-10 1c-10 1-11 2-11 6s0 4-2 5-3 0-3-4l-1-3-1 5c0 6-1 9-2 6l-2 1c-2 3-4 2-5-2l-2-3c-2-1-3 1-1 2v3c0 3 0 3 2 2l1 1-1 3-2 2v-5c-1-1-2-2-1-3l-1-3c-2-2 0-4 5-6v-2h-3l-4 2c-2 0-2 0-1 1 2 1-3 4-9 5l-5 1-4 1c-3 0-4 0-3 1l-2 2c-4 2-9 8-12 13l-4 6-4 4-2 4 1 2 2-1 3-2 5-1 11-4 8-2h-6c-12 3-14 3-14 2 0 0 2-2 5-2l9-3 4-1h-5c-6 1-7-1-2-3l4-1-2-1c-2 1-3 0 0-2 1-1 2-2 5-1l5 1v3l1 3a31 31 0 0028-11l2-2c-2 0-1-2 1-2l3-2h3v2c-1 1 0 1 2 1 3 0 10 6 9 8l2 1c4 0 0 7-6 11-6 3-6 4-2 4l7-1c9-1 17-2 16-3-3-1 1-3 6-3 3 0 2 2 0 2-2 1-2 1 1 1l5-2 3-1 2-1 1-2 3-1 2 1-2 1c-1 1 0 1 2 1 3 0 3 0 2-1v-2h2c0 2 5 3 8 2l3 1 2 2 1-1c-1-1 0-2 1-2l-15-4 4-1 8-2c0-1-6-1-19 1-5 0-5 0-5-2s0-2 16-5l11-2-13 2-13 1c-1-1 1-5 3-5v-1c-2-1-2-1 0-3 2-3 4-3 18-6 21-3 27-4 24-5l-18 3c-20 4-21 4-20 1 1-2 8-4 20-7l13-3-24 4-2-1 6-4 4-2 7-3 6-2-10 2-2-1 6-3 14-4-9 2-9 1c-1-1 4-3 13-5l8-2-7 1c-4 1-5 0-7-1-3-4-34-2-42 2h-3c-1-4-19 1-25 7-3 3-7 5-7 3s10-11 13-12c3 0 6-3 6-6l2-4 2-4 2-5 1-8c-1-9-3-12-8-11a10 10 0 01-8-8v2M63 61l4 4c3 1 4 3 1 3a12 12 0 00-9 8h-2l-9-5 4 3c6 4 7 6 5 11v1c2-2 3-1 1 2v2c2-1 3-1 3 1 1 1 0 2-1 3l-1 2-2 3c-2 3-2 4 1 2v1c-2 2-2 2-1 4 3 2 3 1 5-8 1-7 8-21 11-25 2-2 2-2 1-3s-1-1 1-1 3 1 0 5l-1 3 2-3 3-2 3-1c0-1 1-2 2-1l-1-2-5-2c-2-1-2-1-1-2 2-1 2-1 0-2-2-2-2 2 0 5 1 1 1 1-2 1l-5-3c-4-4-11-8-7-4m88 1l1 5c1 2 1 3-1 2a1 1 0 100 2c3 0 6 9 3 11l-1 2 2-2c1-2 2-4 1-6 0-2 0-2 1 0l3 2-1-1c-1-2-1-2 2-1l4-1-1-1h-1l-3-2c-2 0-3-1-3-2l-1-2-4-6-1-3v3m114-2l1 2v5l-1 8-2 6c-1 2-1 2 1 2h2l1 2 1-2 3-5 2-6c0-2-1-1-3 4l-3 5V67c1-3 2-4 1-6s-3-3-3-1m72 13c-9 8-13 12-8 9l4-2 13-12c6-5-1-1-9 5M64 70c-4 3-6 13-3 13l1-1v-3h1c0 2 1 2 3-1l4-3c1 0 2-3 1-4 0-2-4-2-7-1m259 6l-5 4-3 2c-3 1-4 3-12 10-7 7-10 9-10 8l-1 1-1 2-4 2c-18 16-19 17-18 18l6-5 12-9 12-11a215 215 0 0126-21l4-4c0-2 0-1-6 3M96 81c0 2 0 2-2 2-3-1-13 2-13 4l2 2c2 1 2 1 0 1l-4 1c0 3 2 2 7-1a16 16 0 0118-2 12 12 0 019 5c1 0 2 1 1 2 0 2 0 2 2 2h3c2 1 4-1 2-2l-3-6 1-1 4-3-2-1h-1c1 1 0 2-2 2-2 1-2 1-1-1h-1l-2 3-1 1-1-1c1-1 0-2-2-3a101 101 0 01-6-1l-5-2c-3-4-4-4-3-1m-28 6c-4 7-4 9-4 13 0 2 0 2 2 1l2-2c2 0 1-2-1-3l-2-2 1-2 3 2c2 1 3 1 3-1 1-3 0-5-2-3-3 2-3 1 0-4l2-6-4 7m202-3l-3 3c0-1-5 5-5 7h2c3 0 4 4 2 8-2 5-1 8 0 5 2-3 3-11 2-13-1-1 0-3 2-7 4-6 4-8 0-3M53 90c0 2-2 3-2 2l-1 2c1 3 0 5-4 3l-3-1 2 2c4 2 4 4 1 4l-2-1 2 2c2 2 4 2 4-1l3-7c3-7 3-9 0-5m31 5l-1 2c2 0 2 1 1 3-1 1-1 1 0 0 2-1 4-1 4 1l-6 3c-5 2-11 6-11 8s6 0 6-2l1-2c1-1 1 0 1 2l-1 4 2-4 2-4-1 5 1 7c3 2 4 2 4 1l-2-2v-1l3-1 3-1-4-1c-4 0-4 0-2-1s3-3 1-3v-4l1-1c4-1 4-5 1-8-1-2-2-2-3-1m20 4l-4 3h-2l-2 1c-1 1 0 1 1 1 6 0 11 3 8 4v2c1 2 1 2 3 0l1-2v2c0 2 0 2 3 2 3-1 4 0 1 1l-2 3c0 2-3 4-9 5-5 0-7 1-2 1l5 2c3 2 4 1 4-1l1-2 2-3c2-4 6-5 5-2-1 2-1 2 1 2l3 1h-1l-2 1c0 2 2 2 3 1h2c1 1 0 2-1 1l-1 1c0 1 1 3 3 3l2 2c-1 1-4 0-7-3-2-1-2-1-3 1 0 1-1 3-3 3l-1 3h7a4 4 0 016 0l-3 1-4 1h2l6 1h-1c-3 0-3 0 2 3a8 8 0 016 8c1 2 1 2-1 1-2 0-2 0-1 1 3 4 6-3 4-10l-1-4-1-4-2-6c1-1 0-3-1-5l-3-2v2c0 2 0 2-2 1v-3l1-3-2 1-1 1v-1h-1c-3 1-2-2 1-4s3-4 0-3l-2 1c0 3-3 3-6 1-1-2-4-3-6-4-3-1-4-4-1-3 1 1 2 0 2-1l2-1 1-2c0-3-1-3-5 1l-5 3 2-3c3-4 3-4-1-1m197 7c-18 12-18 13 1 1 12-8 13-9 11-9l-12 8m-122 2l3 5c5 5 7 8 7 11l2 5v2c-1-1-7 3-7 4 1 2 0 4-3 7l-3 4h3c2 0 3-1 3-3 0-4 3-9 6-10l4-2-2-3-2-3c1-1 5 2 5 4l1 1 3 1v-1c-2-1-2-2-1-3s1-1-1-1c-3 0-4-1-7-5l-5-6-4-5-2-2m85 13a151 151 0 01-2 17c1 1 2-2 2-9v-7l5-5 5-5-5 3-4 4v-4c0-2-1-1-1 6m269-4l-6 6-3 4 3-6c1-2 1-2-2-2-3 1-5 3-3 7 1 1 0 4-3 11-3 10-5 21-2 22v-3c0-5 1-9 2-9 1 1 2 0 2-3a49 49 0 0116-25c3-3 2-4-1-1-4 3-11 13-14 21-3 7-4 7-2 0 2-6 8-15 13-20 4-4 4-5 0-2m-487 3v3l-1 1v1l-1 1-1 1c1 3-3 4-8 2-5-3-7-2-1 1l4 1 1 2c0 2 0 2-2 2h-2l2 2 2 2h1c1-2 2-1 2 2l1 3c2 2 1 3-1 2-2 0-2 0 0 1 4 4-7 1-17-4l-3-1 2 1 2 3c0 1 1 2 7 4l7 3v2h-3l-15-4c-2 0 1 2 3 2 6 1 14 4 14 5h-5c-8-3-20-6-20-4l2 1 21 6c4 1 5 1 6-1v-6l1-3 1-1c1 0 2-1 1-2l1-1-1-2c-1 0-2-2-1-3h-1c-1 1-1 1-1-2l-1-3c-3-2-1-7 3-8l5-1h-2l-2-1 4-1c2 0 3-1 3-4s0-3-3-3h-3c-1-1-1-1-1 1m277 0l-2 2-1 1-9 4h1v2l-2 1v-2l-5 4-1 3c-2 3-1 3 6 0l6-4-3 1h-1c1-3 11-7 17-7l4-1c0-2-5-3-8-2h-3l2-2c3-2 3-2-1 0m-259 7c-1 1-2 3-1 4 0 2 0 2-2 2l-1-2c0-3-2-1-2 3-1 3-1 4 1 5s3 3 0 5c-1 1-1 1 1 1s5-9 5-15c0-2 2-3 2 0l1 1 1-1c0-2 6-1 10 1l5 2-17-9-3 3m164 1c-2 3-1 6 1 9s2 3 0 3l-1 4c-1 5 2 6 2 1l2-5c3-2 2-4 0-4-1 0-4-5-3-7l6 2h7l-4-1-6-2h-4m262 5l-6 3-2 2 2 1 3 1 4 6 5 4 1-3c5-9 6-11 5-13s-7-3-12-1m-159 4a47848 47848 0 00-31 15l9-3 6-3-3 3-4 5c-2 2-1 3 1 3l6-2c4 0 10-5 15-12 1-2 0-3-2-1l-2 1-1 1c1 1 0 3-3 5-2 3-3 3-4 2s-1-1-3 1c-1 2-2 2-2 1l3-4c2-1 3-3 2-3l2-2 12-6c9-5 8-6-1-1m98 0l-15 2c-2-2-3 0-2 2 2 5 1 10-2 9l-2 1c1 3-1 3-4 1-2-2-2-2-3-1l-4 2c-3 0-6 3-5 4l-1 2c-2 2-4 1-2 0 2-2 2-2 0-4-3-3-3-3-1-3l2-2c0-2 0-2-2-2l-3 1v1l-2 1a7 7 0 00-6 2l-3 3c-6 6-15 19-13 19l4-5c4-7 17-19 19-18l-2 2c-3 1-11 9-11 10l4-2c5-6 12-9 8-4l-4 9 2-2c1-4 2-4 4 0 2 2 4 3 5 1l6-3c5 0 5 0 4 2l1 2 1-2 2-3c1-1 1-1-1-1-3 0-3 0-2-1h6c8 2 8 2 7-6l1-7 2-1c0-1 2-3 4-3 4-2 3-2-3 0l-2-1 3-1 26-7-16 3m-341 0c-1 2-1 2 1 1 5-2 8 4 5 7l-2 3-3 1c-2 0-2 1-2 2 0 5-4 8-6 4-1-2 0-5 2-5s1-8-2-13c-3-3-10 0-8 4 4 7 4 8 2 11l-3 5-2 2c-2-2-2 1 0 5 1 4 2 4 5 4h3l-5 7 1-3c2-2 2-3 1-3-2 0-5 4-5 7-1 4-3 7-4 5l-1-3-1-2v2l1 4v4c-3 5-2 5 1 0l12-11h3v-14l-4 2c-5 2-6 1-3-4 3-6 3-6 7-1 5 7 6 16 1 24-7 10-9 16-10 22v6h3c2 0 3 0 3-2 0-3 5-7 7-7 6 1 0 14-6 15-3 1-9-5-11-12-1-5-2-6-4-6l-2-1-1-5c-2-3-4-14-2-14l1 2h2l-2-4c-2-2-3-6-1-5h2c0-1 1-1 1 1 1 1 1 1 1-1s-2-3-4-2l-3-4-1-4 1-1 2 1c1 3 4 4 4 2l-1-1-3-2-1-2c-2 1-6-2-5-3l2 1c2 1 2 1 2-1l3-3 3-3c0-1-3-2-4-1-2 2-4 1-3-1 2-2 1-2-2-1-1 1-2 1-3-1h-1v3c-1 1 1 13 3 15 2 3 3 8 2 8s-1 1 1 2c1 1 2 3 2 9 0 7 0 9 2 11l1 3-34-1-4 1c-1 1 14 2 27 2l11 1c2 3 0 4-8 4-5 0-7 0-6 1 1 2 16 0 17-2h2c1 2 1 3-1 3-1 1-1 1 1 1s4 3 3 4l-11 1c-15 1-14 2 1 2h12c1 1-13 3-25 4l-28 2 42-2h12c0 1-1 2-6 1l-7 1v1c2 0 3 2 1 3l-16 4-8 2h3l8-1c6 0 10-1 12-3s2 0 4 6l2 7c1 2 1 2-4 4h7c9-2 9-2 9 3l3 7 2 3h-5v-1c1 0 2 0 1-1h-2l-2-1 2-1v-1l-7 1c-9 1-11 3-3 2 7-1 8 1 1 4l-4 2 5-1c4-2 5-2 7 1l2 3-4 2-3 2 5-1c4-2 6-2 3 1-1 2-1 2 1 1s3 0 5 1l2 2-5 2-12 5-28 12-11 5-2 2h2l4-1 5-3 4-2 7-2a6502 6502 0 0134-15c3-2 5-2 5 0l-15 7-2 2 19-7 10-4c2 1 0 3-4 4l-9 4-19 8a115 115 0 00-15 7l-10 4-15 7-4 3 4-1 6-2 13-6 12-6 12-5a1542 1542 0 0122-10h3l-5 4-12 6-9 5-13 5-14 7-4 2-1 1h-3a593 593 0 01-19 10 56 56 0 01-11 5l14-5 24-11a62 62 0 0014-7l14-5 18-10c12-6 19-10 13-9-3 1-5 0-2-2 2-1 6 2 5 5 0 2-15 11-26 16l-7 4-10 4c-14 6-21 10-21 11 0 2-23 15-27 15-3 0-7 2-7 3l2 1h6l5-2c2 0 3 0 2-1s-1-1 2-3a149 149 0 009-5l9-5 25-13 32-18c5-3 8-3 8-1l-20 13-10 6-34 19a169 169 0 00-27 17l14-8 5-1c3 0 4 0 4-2l11-7 21-12 32-20 6-3c1 1-1 2-16 13l-12 9 3-2 3-1c1 1-2 4-5 5l-3 2-2 2c-2 0-2 1-1 1 1 1 2 0 6-3l9-6 10-7c10-6 11-6 11-4l-2 2-6 4-9 7-6 5c-6 5-16 10-17 6-1 0-1-1 0 0a2 2 0 10-1-2l-12 6 2-2c2-2 2-2-1-1-5 2-5 6 0 7s4 3-6 10a62 62 0 01-11 7l-17 11-2 2c-3 3-1 4 3 0l8-5 5-3 7-5a29 29 0 006-5l16-10 6-3c7-2 7-1 0 5a254 254 0 00-15 12l-5 4-5 3-6 5-10 8a81 81 0 00-9 7h-2l-1-1v2c0 2 0 2-1 1l-5-1-3-1h-1l-2 1v-1l3-2 1-1 1-2c2 0 7-4 6-4-1-1-5 1-6 3l-2 1-6 3-6 3-1 14v14h103l104-1h82a1433 1433 0 0084 0h64l6-1 33 1a12501 12501 0 0171 0h90v-28c-3 0-6 2-6 4l-1 2-2 1v-1l-1-2-2-2-2-2-5-1v1c1 2 1 2-2 1h-3l-4 1h-2l-2 1c-3-1-4 1-1 3 2 2 2 3-1 4-1 1 0 1 1 1 2-1 3 0 3 1h-2l-3 1h-2c1-1 0-5-1-4v2c-1 0-2 1-2 3-1 2-1 2-3 1v-3c1 0 2-1 1-2 0-2-2-3-2-1-1 3-3-1-3-5 1-2 1-3-1-3l-1 2c1 2 0 5-1 5l-1-2-1-2h-2l-1-2c1-1-1-4-2-4v2c2 3 2 3-11 4-8 0-10 1-6 3 2 1 3 4 1 4l-1-1v-2l-3 4c-2 5-1 5-5 2-3-3-5-4-5-2l-3 1-4 1c-1 1-2 0-4-1-2-2-2-2-1-3l1-2h-2c-1 2-2 2-4-1a9 9 0 01-4-4c-2 1-11-7-10-8l-1-1c-2 1-3 0-6-2l-4-3a5 5 0 013-3l3 2a4 4 0 014 5l1-1c1-1 1-1 3 1l4 2 1 1 1 1h3c1 1 2 1 1-1l-1-1-2-1-6-4-21-14-21-13c-6-3-8-6-4-7 2-1 4 0 8 3a77 77 0 0012 8c2 2 4 1 2-2h1c3 2 4 2 4 1l-7-4c-1 1-2 0-3-1l-8-5c-10-5-11-7-2-4l1-1-20-10c-1 0 4 4 6 4a9 9 0 014 5l-41-20c-11-6-17-10-14-10l2 1 2 1 7 3 6 3 5 3c3 1 4 2 5 1l-12-7-14-7 1-2c1-2 1-2 6 1l6 3c1 2 5 1 5-1l2-1-1 2c-2 2-1 3 6 6l10 6c6 3 6 3 6-1l5-9 8 4 7 3-3 2c-3 3-2 5 2 2s5-2 1 1l-4 5-7-2-7-3c0 1 7 6 9 6l4 1 3 2 3 1c1 2 12 8 16 9 4 2 2-1-3-3-4-2-4-3-2-3 3-1 5-1 15 5 11 6 15 7 14 5-1-1 0-2 1-2l2 2 1 2 2 2c0 2 2 3 2 0l-1-2c-2 0-2-2-1-2 2 0 6 6 7 10 1 3 3 4 3 2a17 17 0 00-14-15c-3 0-12-7-9-8h3l1 1h3c1 2 3 1 3-1l-3-3-2-2h2a158 158 0 0010 4h-1c-2-1-5 0-5 1s28 15 29 14l-6-4c-4-2-6-3-6-5-1-3-5-4-3-1 0 3 0 3-4-1-2-3-2-3 0-2s3-1 1-3c-2-3-1-4 3-2l3 1-1-1-3-2-2-1-4-2c-4-5-10-7-17-6-3 0-1 2 3 1h4l-4 1c-8 2-17 2-15 0l-1-3c-1-3 0-6 4-8h3l10-1c3-4-5-5-10-2l-6 2-2 2-2 2-2 2c0 2 0 2 2 2h1l1 2c0 2-6-1-32-14-9-4-10-5-7-5l5-2h4c18 7 19 8 19 6-1-1-15-8-18-8l-1-1h6c6 0 6 0 4-1s-2-2-2-3c0-2 0-2-6-2-8-1-18-2-25-5-23-8-23-8-21-6l9 3c11 4 11 5 4 5-10 1-11 1-13-5l-2-5-15-4-15-5c0-2 3-2 9 0s6 2 14 0c4-1 9-2 11-1l-5-2-10-3-3-1-3-1c-2 0-2 0-1 1v2a20 20 0 01-14 0c-5 0-15-3-16-5h5c4 2 16 5 21 5h4l-4-1-12-3-10-3 10 1 10 2c0-1-3-2-13-4l-4-2v-3h5l-19-5v2c0 5-1 9-3 10l-3 1h-6c-4-2-7-2-13 0-4 2-2-10 3-15 2-2 2-3 0-3h-2v3c-2 2-4 9-4 13l-2 5c-2 2-2 2 0 4 1 1 2 1 3-1s8-5 9-5l-4 3c-4 1-5 2-4 3 0 2 1 1 3-1s9-3 8-1h-3l-1 1 3 2c3 0 3 0 2 1l-1 1c2 1 2 1 1 3l-1 1 13 6c5 2 5 2 5 0-1-4 5-5 10-2 5 2 5 4 1 4-3 1-3 1-4 6s-9 12-12 11l-6-1h-2l2-2 4-2h5l4-1h-4c-3 0-4 0-3-1l1-1h-4l-2 1 1-2v-1h-1l-4 4c-4 3-4 3-7 1-4-2-4-3-1-3l5-2 3-2-3 1c-3 2-4 1-1-2l1-3c-1 0-3 1-5 4-3 3-4 3-5 2-2-2 2-6 5-5 2 0 2 0 1-2-2-4-4-5-5-4h-3l-3-2-5-3-3-1c1 1 1 1-2 1h-1l1 3v3l-2-2-4-2 8 7a170 170 0 0112 9l7 5c3 3 7 6 9 6l3 2 1 1h1c0 1 1 3 4 5 4 2 5 4 3 4l-9-6c-7-6-9-3-4 5 4 9 4 7 0 11l-3 3-3-6-3-8c0-3 2-8 4-9s2-1 0-2-3 0-4 1h-2l1-3-1-3c-3-2-4-3-4 0l-1 3c-1 1-1 1-1-2v-3l-2 4c-1 7-2 7-2-1v-6l-1 2a55 55 0 01-13-9l-3 9-2 2c-1 0-2 0-1-1 3 0 2-2 0-2s-2 0-1-1l1-2h-3c-1 2-5-1-4-4h-1c-1 1-2 1-3-1-4-3 2 4 11 13l9 9 14 16a999 999 0 0134 37l13 15a11 11 0 015 7c1-1 9 7 8 8l2 2c3 1 7 5 5 5s-39-38-53-54c-19-21-42-45-43-44l2 2c2 3 3 5 0 3l5 7 5 6 1 1-1-3c-5-6-1-4 6 4a1021 1021 0 0026 29l18 20c15 15 18 18 18 20l1 1c1-1 8 6 8 8l-2-1-5-2c-2 0-3-1-1-2h-1l-15-15-9-10-3-4-2-2-2-4a8 8 0 00-5-5l-1-2h-2l2 3v4h-1l1 1a6 6 0 016 6c1-1 5 4 5 5v1l2 1 7 8a45 45 0 018 10c1 2 1 3-1 3v-1l-1-1c-2 0-5-4-11-11l-9-11-4-6-3-2c-2-1-2-1-2-3v-3c-1-1-1 0-1 1 0 2-1 0-2-2 0-12 0-11-3-14l-4-4-15-16 1 3 7 10-5-4-6-8-1-1-3-2h-2l-1 1h-1a1 1 0 11-2-1v-2l-3-1v1c2 0 3 2 1 2l1 3c3 5 3 6 0 2-4-4-4-4-4-10 0-4 0-5 1-4s2 2 1 3l2 1 2 1h1c0-2-8-12-11-13h-6l-3 3h4c7 0 7-1 8 12l2 12c5 9-2 35-10 39-5 2-22 1-25-1-1-1 2-7 8-18s8-17 8-31l1-10 1-1h-1c-2 1-2 4-2 11l-1 10-1-2v-3l-1 5-2 8-1 2c0 1 3-3 4-7l1-2v2c0 4-11 25-13 24l4-7c4-7 5-9 3-8s-2 1 0-3c2-6 1-6-4-4l-5 2 9-5 2-1c0-2-3-2-6 0-4 2-3 0 1-2l4-2c1 1 1-1 1-4 1-6 2-7 2-3l1 4 1-5c0-7-2-8-13-6-7 0-7 0-5-3 2-4 10-7 19-7 8 0 8-1 4-5-4-5-6-5-3 0l3 3h-3l-8-1h-8c-1 2-2 2-4 1l-3-1-3-3v1c0 2 0 3-5 5l-8 2h-2c0 2-5 5-6 3l-4-13c0-5 0-5-1-3v5c2 5 0 12-2 8l-5-1-3 1 1 1 1 1c-1 1 0 1 1 1l1 1c-1 1 0 1 3 1s3 0-2 1c-7 1-7 3 1 2h5l-11 8-1 1c0 2 10-4 16-9l12-7-1 5c-1 5-4 8-9 8l-3 1c-2 1 4 1 9-1 2 0 2 0 3 4l1 6c1 2-8 9-16 12-4 1-6 4-2 2 2 0 2 0 1 1l-11 9c-4-5-4-6-4-14v-9l-2 28c-1 10-2 23-4 24l1-44c1-4 0-4-5-3l-7 1-2 1h10c4-1 4 3 0 4l-3 1-6-1-5-1c0-4 14-19 17-18 1 1 2-3 3-16l-1-11-1 3c0 4 0 5-3 5-2 1-2 1-2-3l1-4-2 4a5 5 0 11-8-3l1-3-1 1c0 2-2 1-3-2s-1-3-3-2c-2 3-4 2-5-1-2-2-2-3-1-3v-2c-1-1-1-1-2 1v2h-3c-2-1-2-1 0 1 6 4 8 6 9 10l3 3c0-1 2 0 3 2 2 3 0 4-4 3h-5c-2 0-3-2-1-2v-1h-1l-4-1c-3-1-4-2-3-3 0-3-2-2-3 0l-3 2v-1c4-2 2-3-8-2l-10-1 4-1c4 0 2-4-3-6l-3-1c1-2-7-1-11 1a15 15 0 01-7 1l-2 1-8 5-7 5-3 3-4 5-5 6c-1 1-1 1-1-2l1-3 1-4c0-10 10-21 22-25 3-1 5-1 4-2v-2c0-1-5-3-6-1l1 1c4 1 4 3 0 3a3 3 0 01-4-1l-1 1c1 2-1 3-3 3l-2 2c-2 1-2 1-2-2 0-4 2-6 5-5l1-1c-1-2 6-8 9-8l2-1 6-2h6l2-1h11v1l3 1c6 0 11 3 11 5-1 1-1 1 0 0 3-2 2-3-3-5l-5-3 5-4c7-4 8-6 6-5h-1c1-1 2-2 3-1l4-2c4-3 3-4 0-2-4 3-5 2-2 0 2-3-2 0-11 8-6 6-7 6-9 5-3-1-3-1-2-3l-2 1c-3 2-8 2-6-1l-4 1c-2 2-7 3-10 3a21 21 0 00-8 2l2-2-2 1c-4 2-5 3-2 2l-1 1c-3 2-5 3-8 3s-5 0-4-1c3-1 1-2-2-1h-5l-2 1-3 1c-4 0-9-2-8-3h1c2 2 3 1 2-1-1-1-2-2-1-3l-1-1c-4-3 3-10 8-9l4 2h3a7 7 0 0112 0c0 1 1 2 4 1h5l4 1v-1a86 86 0 01-10-5l-1 1c2 2 0 1-3-1-2-2-3-3-2-4l3 1 1 2c2 0 1-2-2-5l-2-3h4l4-1-4-1c-8 0-19-11-16-16l-1-4c-1-1 0-2 1-4l2-5c1-2 6-6 9-7 4-1 4-2-1-2-8 0-14 10-12 21 1 9 1 9-2 6-3-2-5-6-5-11 0-4 0-4-1-2v7c2 5 2 6-1 4h-2l3 2 5 2 4 2 7 6a2 2 0 11-5-2l-1-2-1 1-4 2c-7 4-13-1-14-10 0-6 2-10 4-6l3 2-1-2c-3-2-3-5 0-8l2-3-9 11v9c1 6 1 6-2 1-4-5-4-9 0-15 3-7 2-7-2-1l-2 4-1-2c0-3-1-4-3-4-2-1-2-1 1-1l4-4c3-4 11-12 14-13s4-1 4-6c1-6 1-7-2-7-2 0-3-1-3-2-1-1-1-1-1 1s-3 4-5 3c-3-3 0-12 5-12 2 0 2 0 2-4l-1-5c0-1-2-3-6-5-8-4-8-3-8-1m-65 1c-1 1 14 8 16 8 3-2-4-6-9-6l-3-1-1-1h-3m236 3l-4 2v3l-3 10c-4 6-7 12-5 11l10-19 2-5 2-4-2 2m23 3a143 143 0 01-13 8l-7 4c-4 3-7 6-3 4l11-7a297 297 0 0120-13l-8 4m226-2c0 1-1 2-3 2-2 1-3 2-5 7l-7 9-2 4 10-14c1-2 3-3 3-1 1 1 1 0 1-1l1-2c2 1 3-1 4-4a1 1 0 10-2 0m-314 3l-1 6c-1 8-9 16-13 13h-2c0 2 1 2 3 2 5 0 10-5 12-11 3-11 3-14 1-10m13 0l-1 4-6 8c-5 5-9 11-8 12s3-1 3-3h1l1 3c-1 2-1 3 1 3 1 1 1 1 0 0-1-3-1-10 2-13 3-4 3-4 5 1l3 3-2-4c-2-3-2-3 0-8l2-6h-1m170 1l-5 1 1 1c3-1 2 1-1 2-2 1-2 1-1-1h-1l-4 2c-2 0-2 0 0 1h9l6-3c4-1 6-3 4-3h-8m103 7c-10 1-20 4-18 5s-7 5-18 6c-12 2-24 5-26 7v1l4-1 2-1 4-2 14-2c9-2 11-2 7 0-5 2-3 3 3 3l9-3c2-2 4-3 5-2h4l3 1c0 3 1 2 3-1 1-2 2-3 4-3l7-1c2-1 2-1-2-1s-5 0-4-1c2-1 2-3 1-3-3 0 0-1 4-2 8-1 3-2-6 0m-110 4c-2 2-6 5-7 8-4 7-5 5-1-2 3-6 3-7-1-4l-5 2c-2 0-2 0-1 2 4 4-1 10-7 9l-3 1 1 1v2c-1 3 3 3 8-1l4-3-2 3-1 2 9-11 5-7 7-6-6 4m-241-1l2 6v3l-4-1-9 1c-4 2-4 2-7-1l-2-2 2 4c3 7 2 12-5 21-2 3-2 4 2 2 3-1 4-2 5-12s2-10 10-10c4 0 10 3 11 5 0 1-1 2-7 1l-8 1c-1 1 0 1 3 1 10 0 19 5 15 8-4 2-5 8-2 11 2 2 2 3 1 5-1 4-1 6 1 4 1-3 1-5-1-8-2-4-1-9 4-11l6-5c2-3 7-6 9-5 1 0 1-1-1-1-2-2-3-2-10 5l-3 2-2-3c-1-1-2-2-1-4l-1-3c-3 0-1-2 2-2l4-1h-3l-5-3c-1-1-1-1-1 1 1 3 0 4-2 2-1-2 1-8 3-8v-1l-1-1-3-1c-3-3-5-2-2 0m-110 7l18 5c4 0 6 1 7 2 2 2 2 2 1-1l-2-3h-2l-8-1c-12-3-16-3-14-2m318 1v1c2 0 2 1-1 4-4 4-5 7-3 7l2-2c1-2 3-4 5-4 4-2 5-4 3-5-1-2-4-2-6-1m-245 2v4l-1 4-2 7v3l6-5c6-6 7-9 3-11l-3-2h-3m224 3l-15 4h-2c-2-1-8 1-8 3h1a7 7 0 0110 3c1 1 0 1-1 1s-2 0-1-1l-1-1-2 2 5 1c6 0 10-1 9-2l2-5 3-3-1 3v3l3-4c2-5 2-5-2-4m216 1c-23 2-28 2-28 4v3l3 7a1 1 0 000-2v-2l3-1c1 1 2 0 3-1l2-1c2 1 2 1 1 3l-1 2c1 1 4-2 4-4 0-1 1-2 3-2s3 0 2 1h3c4-4 11-8 8-4-2 2 0 1 4-1 4-3 4-3-7-2m6 4c-14 9-22 19-24 29 0 5 1 5 3 1l1-3 8 1 15 1 6-1c0-1-10-2-21-2-7 0-8 0-8-2s0-2 2-2l14 2 49 5 2-1c0-1-4-2-15-3l-10-1-17-1c-18-1-23-2-23-3s16-1 32 1l42 4c1-1-15-3-29-4l-15-2-18-2h-9l2-3 4-2 1-1 2-2 4-3 6-2 5-1c0-2 3-2 17-2l16-1-16-1-17 1v-3c0-3-1-3-9 3m-91-1l-11 3c-7 2-7 2-9 1a20 20 0 00-16 2c-2 0-4 1-5 3l-2 2v-2c0-2 0-2-1-1l-1 5c0 3-2 4-5 1h-4l6 3 7 3c4 2 5 2 6 1l3-3c2 0 6-3 9-6 12-8 24-12 37-10l4 1-4-1-5-2h-9m40 0l-8 2-7 1h3c4 0 4 0 3 1l-4 2-2 1c0 2-11 8-12 7s2-3 3-2l1-1 1-1c1 1 2 0 1-1l2-1h2v-1c2-1-2-4-4-4v1c3 1 2 2 0 4-6 2-17 11-19 16l-3 4-2 2c1 4-12 10-13 5 0-2 3-9 6-9v-3c-6-4-18 2-34 19-9 10-10 11-7 11l2 2c-1 1 3 3 8 3 3 0 3 0 2-3l1-4c2 0 2 2 2 6 0 2 0 3 2 3l2-1h-1l-1-1c0-2 6-3 7-2s1 1-1 1c-2-1-2-1-2 1s0 2 2 2l1 1c0 1 3 2 3 0h2l3 1 3 1 3 1 2 1c-2 2 1 1 6-2 6-4 11-9 10-10l-4 3-5 5c-3 1-2-1 3-4a15 15 0 007-11 3 3 0 01-1 6c0 2 3-1 3-3 1-3-4-5-10-5-4 0-5-3-2-5s3-2 2 0c0 2 0 2 4 2 2 0 3 0 2-1-5-1-2-6 3-6 2 0 3 2 1 2-2 1-2 6-1 6l3-4c1-3 1-4 4-3 3 0 3 0 2-1l-7-2-5-1c-2-1 6-1 21 1l21 3c12 1 16 4 5 3-7-1-8 0-2 3 3 2 15 2 18 0 1-1 1-1-2-1-5-2-6-2-3-3 2-1 3-1 3-7a35 35 0 012-8l-3 4c-1 3-2 4-4 3v-1c3 0 5-10 3-13v-2c2 0 2 0 3 4 0 5 2 6 2 1l1-3c2 0 6-5 5-6l-1 1c-1 3-4 2-5 0l-1-2-1 2-2 2-2 1c-1 2-3 1-3-1-1-3-3-2-3 2l-2 5c-2 0-1 2 1 2 3 1 5 0 4-2l1-1a7 7 0 010 8h-1c-2 2-6 1-6-2s-3-4-5-1v-2l4-4c3 0 3-3 1-4a3 3 0 012-5c1 1 3 1 3-1l-1-1-2-1 2-2 1-2-16-1m10 3l-3 4-1 1-3 2-5 4c-10 4-16 9-18 13-1 4-1 4 8 4l11 2h4v-7l1-15h3l6-10-3 2m-10 0v3l-1-2c0-1-1-1-2 2l-1 3v-3l-1-3-2 1-2 3-3 3h4l5 1 6-4c5-4 5-5 3-5l-2 2-1 3v-3l-2-2-1 1m-313 3v1l-5 8-1 2 4 1v-5l4 8c0 3-2 3-8 1l-7-2v-4l1-3-2 2-1 5v3h4l7 1a4 4 0 007-2c1-1 1-2-1-6-3-5-3-8 0-10v-1l-2 1m239 3l-8 3-1 1 8-2 8-4-4 3c-5 3-3 3 4 0 6-3 8-5 4-3l-2-1c0-2-1-1-9 3m-60 2l-8 6c-4 2-5 3-5 5 0 3 0 3 5 0 7-5 16-14 14-14l-6 3m-9 1a8 8 0 00-5 9c0-2 2-4 5-5 4-2 5-3 6-5 0-2 0-2-6 1m-16 1c0 6-1 11-3 11-1 1 0 1 2 1l3-1h2c2 3 4 1 5-6l1-5 4-1c1-2 1-2-2-2l-4 1h-1l-3-1c-4 0-4 0-4 3m-149 1l1 4c2 3 2 3 0 3v2l1 2 1-1 1-3c0-2 3-1 4 2 0 4 1 4 4 3l4-1-4-1c-4 0-4-4 0-4 3 0 5-1 3-2h-1l-5 1c-6-1-8-2-7-5 0-2-1-3-2 0m128-1l-2 2-1 1c-2 0-1 2 1 3l2 1h-7l-3 1 9 2h7l-1-5-1-4v-1h-4m165 2c-5 2-6 3-12 10-3 4-4 3-1 0l2-4s1-2 3-2c3-2 7-6 4-5l-7 5c0 2-5 3-5 1l-1-2v2l-2 1c-1 0-4 3-4 5s10 4 11 2l2-2v2l5-3 9-8c6-4 3-6-4-2m61-2l-2 1-2 1h16l3-1h-4c-9-2-11-2-11-1m-522 2h22l-15-1c-12 0-13 0-7 1m65 7c-5 10-4 12 3 8l5-3-3-2-4-3c0-2 0-2 4 0 3 3 5 3 5 1h-2l-4-2-3-3-1 4m318 0c6 3 6 5 2 7l-6 1h-1c0 3 4 3 6 1l8-4 6-3-4 1h-4l-4-3h-3m-52 6l-2 4c-1 0-1 1 1 3l1 3c0 2-2 0-4-5l-2-2 2 5v2l-3-4c-1-4-1-4-4-4h-2c-2-3-3 0-1 4 2 5 3 5 3 1 0-2 0-2 3 2 2 3 2 4 5 4h5l-1-4c-1-3-1-7 1-12v-2l-2 5m84-3l-2 4 1 2c1-1 1 0 1 2 0 3-1 3-8 0l-4-1c-3 2-2 3 3 4l7 1h-4c-8-1-11-1-12 1l9 2 11 2c2 0 2 0 1-1l-1-8c0-5 0-6-1-5h-1l2-2c1 0 2-2 0-2l-2 1m-276 10v2l3-2c5-2 12 2 12 7-1 3 0 5 1 6l2 1 2-4 3-2-3 1c-4 3-5 3-4-1 3-6-10-14-16-8m323 1l-8 1-6 1h-1c-1-2-1-2-2 0v3l1-1h2l2-1h2c2 1 13 0 18-2l-1-1h-7m-385 3l-3 5c-3 4-2 6 3 3l3-1-2 2c-3 3-1 2 3 0 3-2 4-4 2-4l-2-2h-1l-2 1v-4h-1m316 3l-5 9-1 2-1 2c2 2 3 1 3-1l2-3 1-1c-3 0-2-1 1-3l1-1v2c2 0 8-6 8-7l-2 1h-3c1-2-1-2-4 0m8 3l-4 4h4a22 22 0 0015-4h2c1-2 0-2-5-3l-7 1-2 2 1-1 1-2c0-2-2-1-5 3m-340 1l6 4c5 2 6 4 4 5h-1l-3-4c-4-2-5-2-5-1l1 1c3 0 4 3 3 5v4l-4-4a4 4 0 10-7 4c2 0 3 2 1 2v1h3c3-1 3-1 2 1l-3 1-2 1c1 1 4 0 7-2 2-2 2-2 2 0h1c2-2 2-2 4 1a5 5 0 012 4h4c4 2 8-1 5-4l-2-2c2-1 5 4 4 6-2 3 0 3 2 0 2-2 2-3 0-4l-1-2 2 1c2 1 7-3 7-5s-2-1-3 1c-2 2-2 2-4 1l-3-3h2c3 2 4 2 4 0l-6-2-1-1-2-1v1l-1 1-3-1v-2l-1-2-4-2c-1-1-2-2-3-1l-3-1c-1-2-4-3-4-1m22 2c-3 2-4 5-1 4 2-1 5 0 5 1h-3c0 2 3 2 5 1h14l2-1-2-2c-3-2-5-3-3 0 2 2 0 1-3-1-2-2-5-2-5 0l-1 1c-2 1-2 1-1-1l-1-3-2-1-4 2m65 1l-3 5c0 2-7 8-9 8l-2 1c0 1-4 3-5 2v1c1 2 7-1 13-5l5-3 2-1 3-1 4-2c0-1-2-1-6 1-3 1-5 1-4-2l3-1h1c-1-3 0-3 2-1h1l-1-2v-1c1-3 0-2-4 1m22 1l-10 6c-1 2-3 3-5 3l-4 3c-2 3 1 2 8-3l7-4 3-2 5-3 4-2c4-3 0-2-8 2m130-3c4 8 12 13 12 9l-1-4v-2c2 0 0-2-3-2-2 0-2 0-1 2 2 3 1 3-2 1l-3-4c1-1 0-1-1-1s-2 0-1 1m110 3l-5 1c-5 0-1 2 3 2 2 0 3 1 3 2 0 2 5-1 6-4 1-2-4-3-7-1m29 5l-9 9c-3 2-4 3-1 3 2 0 5-2 10-7l5-5 10 2 12 3 4 1h3l-2-1c-22-5-26-6-25-9s0-2-7 4m-125 0l4 7c2 2 1 4-1 4l1 2 3 1-1-2c-2-1 1-2 4-1a7 7 0 006 0c2 0 3-2 1-2-4 0-10-3-13-6l-4-3m48 4c-1 6 2 6 9 2l4-2-5-2-6-1-2 3m78 2l18 5 24 4 10 3c7 1 0-3-7-4l-14-3c-19-5-31-7-31-5m-159 8l4 4c3 2 4 3 4 5v1l2 1c0 2 1 2 4 2s4 0 4 2h-7l1 1v1c0 1 1 2 5 1 6-1 8-2 5-4h-2l-1-1-5-5-14-8m-208 4l3 6 1 2h-2l-1 1c-2-2-1 1 2 3 4 3 5 3 2 0-4-3-3-4 1-1 3 1 5 1 3-1l2 1 6 1c2 0 3 1 3 2l2 1h2c-1 2 1 5 5 8 4 2 5 3 5 1l3-3c4-1 3-3-2-4l-4-2c-1-1-2 0-3 1s-1 1-1-1c1-3 0-3-4-2l-2-1h1l2-1-6-5 1 2c2 2 3 3 1 3l-3-3-5-4-8-5-4-2v3m64 8l-3 4h6l12 2c5 1 9 1 4-1-2 0-3-1-2-2l-1-1c-1 0-2 0-1 1l-2 1-7-1c-5 0-7-2-3-5l1-2-4 4m-32 0c-3 3-2 5 3 5a6 6 0 014 1l1-4c1-4-1-5-3-1-2 2-3 1-2-1 2-4 0-4-3 0m276-2c-5 1 1 4 11 5l6 1-5 2c-6 2-8 3-4 0 4-2 3-2-2-1-3 1-4 2-3 3l2 1h-2c-4-2-7 0-8 5l-1 6v-4l-1-5-1 5-1 8c-2 2-2 2-1-2 0-6-1-4-3 3v6a2 2 0 11-2 2v-9c-3 3-4 9-2 11 2 1 4 0 7-4l1-1c-3 2-3 2 3-7a42 42 0 006-9l-3 7c-4 6-1 4 5-5 6-8 15-11 26-8l5 1a28 28 0 00-16-7l-6-2-7-2h-4m-222 2c2 1 3 2 2 3l1 2c1-1 1 0 1 1s-1 2-2 1c-1 0-1 1 1 2 6 3 7 3 6-1v-4c1-3 1-4-1-2l-2 1-3-3c-4-2-6-2-3 0m115 2c0 2 20 23 21 21l-1-1-11-11-9-9m-206 2a5 5 0 005 5c-2 1 1 5 4 5l3 2 1 1c0-2 0-2 1-1s2 1 2-1v-2c-1 1-2 0-2-1l-4-3-5-4c-1-2-4-3-5-1m22 8c1 3 4 8 6 8s3-4 1-4l-2-2c1-1-1-2-4-3-2-1-2-1-1 1m301-1l-2 3-6 9-9 11-5 5 6 4 5 4 6-2c17-7 22-10 26-17a16 16 0 015-7c-1 0-2-1-2-3 0-3 0-3-3-4-3-2-5-4-2-3h-4l-7 1c-5 0-7 0-6-1l-1-1c-1 0-2 0-1 1m-249 5c-5 2-6 3-2 4a35 35 0 016 3 98 98 0 015-7h-9m288 5l-2 1c-1 1-1 1 1 1l2 1 2 1c2 0 3 1 0 3l-1 2-1 2c-2 3-1 2 5-2l4-3c-5 2-6 2-3 0 2-1 3-1 2-2-1 0-2-1-1-2 0-2 0-2-2-2h-6m-301 2l3 2c4 2 5 7 1 7-1 0-2 0-1-1l-3-1h-3l-1-2-2-2-5 2c-6 4-11 11-11 13l1 2h2c2-2 2-2 3 0l2 3v3l-4-1-6-2 1 1 2 3 3 3c1 1 2 1 1-1h1c3 0 2 2 0 3l-3 2h2l-2 5 1-1 3-4 1-1 2-2v-1c-2 0-1-2 1-5 1-2 1-2 3-1 1 2 2 2 5-1 5-2 6-2 5 0l1 2h1l7-8 8-8c-1-1-7 0-7 1s-1 2-3 2l-3-1c0-1 2-3 4-3l4-3 1-4c-1 0-2 1-2 3-2 3-3 4-4 2v-1c1 0 0-2-3-3l-6-2m125 2a19 19 0 002 30c1 0 1-1-1-2-7-5-7-21 1-27 2-2 2-3-2-1m10 1c-4 3-5 5-6 13l1 9c1 3 3 5 3 3l-1-1c-2-2-2-10-1-15s2-6 5-8c4-2 5-3 3-3l-4 2m-66 5c-12 6-19 16-15 23h2l-1-2c-1 0 0-2 2-2l5-4c6-7 6-8 3-8l-1 1c1 1-2 6-4 6l-1 1-1 2c-1 1-4-1-3-1l6-6 1-2v-1h-1l9-2c1 0 2 0 1-1l-1-2h1l2-1h1c0 2 1 2 3 1v-1c-1 0-1-1 1-2 2-4 0-4-9 1m246 0l5 3 33 15c18 9 19 9 3 0-30-16-41-21-41-18m20 0l9 5 10 4c4 2 5 2 4 0l-3-1-3-1-14-7h-3m-304 3l-3 1c-3-1-7 1-7 3s1 2 2 2l2-2 1-2 1 2c0 2 0 2 3 0l4-4c0-1-3-2-3 0m20-1h-2c-2 0-2 0-1 1v3l2 1 5-1 4-3 2-2h-5l-5 1m261 1l2 2 8 5h1c4-1 2-4-4-7-8-2-7-2-7 0m-235 3c-7 4-17 16-17 19l3-3c3-5 12-13 11-11l-1 2-5 6c-6 7-8 13-8 20v5l1-7c1-10 9-22 17-26 2-1 3-2 3-4 1-3 0-4-4-1m46 0c-1 1 1 11 3 12 1 1 1 0 1-5 0-7-2-10-4-7m-105 2v4l-1 3v1l-1 1a4 4 0 01-1-7l-7 8c-1 3-3 4-2 1h-1v13c0 10 1 20 3 19l-1-11 1-2c2 0 3 3 2 9 0 6 4 11 5 7h1l1 2 3 1 2-1-2-1v-1c2 0 2-1 2-3 0-4 0-4-3-4-5 1-1-17 6-23l2-3 6-6v-1l-4 1-5 1c-2 0-2 0 1 1l1 1c-1 0-2 0-1 1h-6c-2-1-2-1 0-3s1-11-1-8m364 1l-2 1-3 1c-1 1 1 1 3 1l5-1 4 1 3 3-3-1c-2-2-5-3-4-1a9 9 0 009 3c2 0 2 0-1-3-6-4-11-7-11-4m-144 1c-1 0 0 2 2 3l19 15a2 2 0 01-3 0l-2-2-3-2h-2v2c3 0 2 5 0 6-4 0-4 1 1 4 5 2 5 2 7 0l3-2h3l-1 1-2 2 3-1 1-3-1-2 4 2c4 3 5 2 1-1l-5-4-21-16-4-2m-190 3c-6 6-8 13-8 23 1 14 7 23 17 26l5 2h1c0-1 2-4 5-6l4-6v-2c0-3-2-3-4 0-2 2-2 2-5 1-2-2-3-2-3-1h-3c-2 0-7-2-7-4l2-1 2-2h-2c-2 2-5-1-3-3v-1c-2 0-1-2 1-3l1-1c-2 0-1-2 1-2v-21c1-3 0-3-4 1m182 1l-6 6-3 4c-4 0 1 2 6 2 6 1 7 1 13-2 7-4 7-4 1-8-6-5-6-5-11-2m-195 5c-10 8-14 17-8 19l2 1 2 3v6c-3 5-1 11 3 11l3 2 6 2 6 2h5v-1c-3 0-10-8-12-14-5-10-5-25-1-33 2-4 0-4-6 2m-67-3l-4 4-7 4-10 9c-7 4-7 5-1 3s24-16 24-19c0-2-1-2-2-1m4 5c-2 5-2 9 0 9 2 1 2 1 4-1s2-2 0-4h-3v-5l-1 1m408 0c1 2 1 2-3 1h-5l2 2h10c2 2 9 2 9 1l-2-1-6-2c-5-2-8-3-5-1m-419 8c-5 5-7 7-4 7 5-1 11-6 11-9s-1-2-7 2m347-1l-2 6v4c2 1 5-1 4-2l2-2c3-1 4-2 1-1-3 0-3-1 0-3 2-1 2-2 1-2h-1l-2 1v-1l-1-2-2 2m148 3l1 2h2l1 1h1l2 1c1 2 2 2 3 1 4-2 5 0 1 2-2 1-3 2-3 5l-1 6c0 4 2 4 3 0 2-5 3-5 3-1-1 4 1 4 2 1 0-4 3-4 3 0 0 2 3 4 8 4 3 0 4-2 3-6 0-5-2-5-2-1 0 3-1 4-4 4s-4-1-2-3c2 0 0-7-2-10l-1-2a2 2 0 100-3c-2 1-3 0-3-1-1-2-5-3-5-1l1 1 1 2c0 2-4 1-8-1-3-3-4-4-4-1m-349 1l-1 1c0 2-3 5-6 7-4 3-3 3 7 9 10 5 12 4 8-2l-6-13c0-2-1-3-2-2m114 0l5 7 6 5 2-5c4-5 4-6 0-7h-13m-158 6c0 5 1 5 6 0 5-4 5-4-1-4h-5v4m251 0a76 76 0 00-7 2c-3 1-7 4-6 5s9-2 13-5c3-2 2-3 0-2m-359 5l-10 8-13 12a89 89 0 01-16 13l-7 6-8 8-3 3c0 1 1 1 1-1h2l4-3 6-5 5-4 8-7c6-6 12-10 13-9 1 0-2 4-8 9l-16 14c-5 5-5 6-3 6l2-2c-1-1 0-1 1-1 2 1 4-1 13-9a30 30 0 017-6c0-2 18-17 19-15a41 41 0 01-13 12l-2 3-2 2-3 2c-2 1-2 2-2 4l-1 1c-1 0-7 6-7 8l-1 3v1l2 1c1 2 3 1 8-4a32 32 0 006-7l2-2 2-1 5-5c24-22 24-23 21-26l-2 2c-3 2-4 0 0-3l1-3-4 4c-4 5-9 8-9 6l1-2c2 0 12-11 12-14 0-4-1-4-5 1-5 4-6 4-3-1 5-5 2-4-3 1m-5-2h-3l-5 3-12 10a253 253 0 00-20 16l-8 7-7 6c0 2 0 2-1 1s-1-1-2 1l-1 2-4 1-1 1a1 1 0 101 2v3c1 0 3-2 2-4l1-1h2c0-1 1-2 3-2l4-2 6-5 23-19 23-20h-1m231 3c-3 4 0 13 6 19l3 4 1 1c3 0 2-1-3-6s-7-9-7-15c0-4 2-1 2 3 1 4 2 6 5 9l2 1a22 22 0 01-6-14l-1-2c1-3 0-3-2 0m-271 5c-4 2-9 5-10 7-6 3-10 7-10 8a31 31 0 0013-9l13-9c3-3 1-2-6 3m62-1c0 5 1 11 2 10 2 0 3 0 3 2-1 2-1 2 1 1l3-1 1-7c0-8-1-9-5-7h-3c-1-4-3-2-2 2m120-2c-1 1 6 7 8 7l6 3c4 2 6 2 8 1 3 0 3 0-4-4l-9-3-4-2c-4-3-5-3-5-2m240 3l1 1c2 1 4 2 4 4l8 6c4 2 8 4 9 6l6 2 1 1c-2 2 2 3 4 1l2-1-3-2-5-3-12-8-9-6c-3-2-6-2-6-1m-123 3c-1 2 1 5 4 8l6 7c10 15 13 17 17 18 2 0 3-1 1-2l-2-2-4-5a179 179 0 01-11-13l-8-10c-1-2-2-2-3-1m227 1l-8 1c-5 0-6 1-3 3 2 1 2 1-2 1h-5l4 7 2-1v1l2 3c1 1 1 1-2 1-3-1-5 0-3 3 2 2 2 3-1 2-2 0-2 0 1 3 2 2 4 2 6 2l3 1h1l4-1 4-1v-1l3-3c2-4 0-6-5-6-3 0-4-1-4-2l4-1c4 1 6 0 4-2-3-1-2-2 1-2 5-1 3-3-3-4-4-1-4-1-1-1 4-2 4-2 3-3a4 4 0 00-5 0m-57 2a32 32 0 0014 8l12 6c5 2 6 2 6 1l-15-8-8-4c-7-4-9-5-9-3m-176 1l3 4 11 16 3 4 3 4c0 1 5 2 6 1l-1-1-3-5-6-7-2-2 1 2c3 5 1 4-2-1-4-4-4-5-4-8h-1c0 1-2 0-4-3-3-5-4-6-4-4m-101 2l1 6 4 10 3 7a4 4 0 005 5 11 11 0 008 6c-1 1 3 3 5 2l1 1c0 1 1 2 4 2s4-1 4-2h1v3h4c4-2 4-2 6 1l1 2 1-2c1-3 3-4 4-2h-1l1 2c1 2 2 2 2 0 0-1 1-2 2-1l1-1h6l1-1 1-3c0-2 0-2 1 0 2 3 3 2 4-1l-1-2h-2c1-1 0-1-2-1a2 2 0 01-3-1l-1 1h-3a77 77 0 00-10-5h-5c-2 0-2 0-1-1v-1c-4 0-14-12-14-18 0-2-1-3-2-3-2-2-3-1-3 2 1 3-5 3-12-1-10-5-12-6-11-4m95-1l3 4 3 3 2 3 1 3 2 3 2 3 2 1 1 2c0 2 5 8 7 8s1-3 0-3l-3-3a66 66 0 00-10-15l-3-3-2-3-1-2c-2-2-4-3-4-1m67 1l5 2 5 2h4l3-2-6-1c-8-2-11-2-11-1m-234 3c1 9 4 11 14 8 4-1 4-1 3-3l-5-1-5-2-5-3-3-2 1 3m434-2c0 1-1 2-3 2-3 1-3 3-2 11 0 5 1 7 2 7s2 0 2-2h1l1 1h1l3 1c2-1 2 0 2 1 0 3 3 2 3-1 0-1 0-2 1-1l4-1c0-2 2-1 4 1 1 2 2 2 3 1 2-2 2-2-1-5s-3-5-2-8c1-1-1-3-2-2l-1-1c0-2-2-1-4 1a1 1 0 11-1-2c2 0 3-1 3-2 0-2-2-2-4-1-3 2-7 1-7 0a2 2 0 00-3 0m-179 2c-1 1 0 3 2 3l1 1c0 2 4 2 8 1l2-1c-2 0-3 0-3-2h-1l-2-1-7-1m53 1c-2 2-3 3-6 3l-3 1 2 1 1 1 4 3 6 2-1-1c-2-1-2-2-1-2s1-1-1-3c-2-3-2-4 1-3s4 0 2-2c-1-2-3-2-4 0m-379 8a545 545 0 00-18 19 18 18 0 00-6 6c2-1 4 2 2 2v1l2-1 2-2 2-2 1-2c1 1 13-11 13-13l12-12c2-2 2-5 0-5l-10 9m357-8c-2 1-1 3 1 3l6 5 6 3 1 2 2 1 3 2 2 1-1-5-1 1v1l-1-1a11 11 0 00-7-7c-1-3-10-8-11-6m-67 1a185 185 0 0024 23l1 2 1 2 1 1 2 2c0 1 1 2 3 2l2 1 1 1v1l1 1h1l1 1c2-1 0-6-2-7l-2-2-3-4-15-14-13-10h-3m29 2c-1 2-1 3-3 2l7 8a58 58 0 0010 9l13 13 1 2 2 1c2 0 2 0 1-2l-2-4-2-2-1 1v2l-1-2a4 4 0 00-4-6 73 73 0 00-20-19l2-2c1 0 1-2-1-3l-2 2m-393 0l-12 9-11 6-2 3c0 2 0 2 2 0l3-3 1-1 8-4 11-7c5-3 6-6 0-3m166 5l-12 4c-2-1-3 1 0 3l1 1c-2 0 4 4 6 4l2 1c1 2 4 2 4 1l1-3 7-15c0-1-5 1-9 4m-85 4c-14 14-14 14-13 16 1 1 1 1 0 0s-4 0-4 1l-4 5-4 5 2-1c2-1 2-1 1 1l2-1c2-1 3-3 2-3h1l2-1 4-4 3-3 2-4 13-15c0-3-2-2-7 4m301-6l4 5c7 7 13 13 13 15l3 2c3 1 5 5 4 6l1 1 1-2 1-1 1 2 3 3c3 2 4 1 1-1l-2-2c0-1-2-4-5-6l-5-6-19-17-1 1m19 1l1 1 5 5a123 123 0 0012 10l4 3c1-1 1 0 0 0 0 2 2 4 4 4l1 1 1 2 2 1 3 1 1 1 1 1-1-2v-2l-5-5-2-1h1l-9-9c-10-11-11-11-15-11h-4m21 8a109 109 0 0013 11c2 3 5 4 4 2v-1l-3-4a8 8 0 00-6-4c1 0-1-3-4-5l-6-6-4-2c-3 0-3 0 6 9m-336 0c-7 8-9 11-8 12l-1 1c-2-1-3 2-2 4 1 1 6-3 10-9l3-3c2-2 4-7 3-8 0-2-2-1-5 3m230-4c2 5 8 13 11 14h2l-8-13c-3-2-6-3-5-1m-17 5c2 6 7 12 7 9l1-1-2-4c-3-6-8-9-6-4m50 11l-4 1c-1-1-1 0-1 3l-1 3-1-3c0-4-1-4-4-3l-3 2-1 2c-3 1 3 5 6 5l4 1h2l4-1 8-1 8-1c6-1 14-3 10-3l-4-1c-2 0-2 0-1 1h-2c-2-2-11-5-13-4v-1h-7"
      itemprop="regular" tabindex="-1" style="fill-opacity: 0.87; fill-rule: evenodd;"></path>
    </symbol>
    <symbol id="-posters-1650742855615-bold">
      <path d="M253 3l-2 8c0 6-2 8-4 6s-3 0-2 3l1 1c0-2 0-2 2-2l2 1a6 6 0 01-3 8l4 3c3 3 3 3 4 2l3-2c1 0 4-5 3-6l1-9c2-8 2-13 0-5-4 15-4 15-2 15l-1 1c-2 2-5 2-7 1-2-3 0-4 2-3h3l-1-1c-3 0-4-5-3-14V3m260 14c-6 4-17 7-17 6-1-1-8 2-10 4h3c4-3 4-1-1 2-12 8-18 20-14 28 2 3 4 1 2-3-1-3 0-4 4-3h2l-1-1-3-1c-3-2 1-11 4-10h7c3 0 1-2-3-2-5 0-2-4 4-7 3-1 2-1 4 3s2 4 0 4c-1 1-1 1 1 1l4 2 4 4c3 1 3 1 0-2l-5-8a8 8 0 00-4-7l12-4c5 0 5 0 5 3-1 6 3 13 8 13 4 0 4-1-1-3-6-2-6-8 0-10 4-2 3-3-4-4l-4-2 5-3 6-4-8 4m-30 5c-5 3-14 3-13 1 0-2-2-3-5-1-2 0-2 0 0 1l2 3 1 2 1-1 4-1 9-2 7-3v-1l-6 2m-21 5c-2 2-3 2-4 1-1-3-11 9-14 16a17 17 0 001 15c0 2 1 4 4 7 4 4 6 5 5 3l4-5 4-2-3-1c-1 0-3 0-4 2h-2c-2-2-3-3-2 0l-1 1c-2 0-4-5-4-8 0-2 1-2 2 1l1 4v-4l1-3v-1c-2-1-1-10 2-13 2-2 6-3 7-1h2c0-1-1-2-3-2l-3-2 5-5 5-5c0-1-2 0-3 2m-296 3l-2 1-1 2c-3 1-2 4 0 4l2-1c-1-4 2-5 5-2v-4c1 0 3 1 3 4l2 1 1 1v-4c0-3-3-4-10-2m39 0v1l-1 1-5 2-7 2-3 1 2 3c2 2 3 2 4 1 2-3 9-6 14-7l5-3c1-2 0-2-2-1h-7m344 3c0 2-1 3-2 3v1c0 1-2 4-5 6-3 1-3 1-2-1l-2 1c-2 1-5 2-6 1l-1 1 5 3c4 1 12-2 12-6l2-5 1-5c0-1-1-1-2 1m-344 7c-5 2-9 7-7 7l7-3 5-3 4-2c0-2-5-1-9 1m74 23c-6 6-4 9 7 16v2l-1 2 5-5c4-4 5-6 4-6-2 0-2-1-1-2 0-2 0-2-1-1l-1 2h-1l-3 1c-3 4-11 1-11-3 0-2 4-6 6-6s3-2 1-2l-4 2m215 0l-5 5-6 2-3-2c-4-4-4-1 0 3 3 3 4 4 6 1s9-6 11-6c4 1 7 7 6 12 0 5-5 16-8 19-3 4-3 2 0-3s4-10 2-6h-1l-1-2v1l-2 7c-2 5-2 8 1 8s5-3 5-8c0-2 1-3 2-3 1 1 3-2 2-3l2-5 2-7-1-4c0-4-3-8-7-8l-4-1h-1M96 82c0 2 0 2-2 1l-13 3c0 2 5 3 7 2a23 23 0 0119 0l3 1 4 3c2 2 2 2 1 3v2l2-1h2v-1l-1-5c0-3 0-3-1-1 0 2-2 3-2 1 0-1-1-2-2-1l-2-1-2-2-5-1-5-2-2-2c-1-1-1-1-1 1m375 12l-10 10c0 2-4 6-5 6v1c1 1 0 2-5 6l-5 5 10-8 6-4 3-4c2-5 7-10 11-12l2-1h-2l-5 1m62 7l-16 3h-4c-4-3-14 0-23 7-6 4-9 5-10 3-1-1-1-1-1 1l-2 2c-1 1 0 1 2 1l3-1-3 3-3 2h3c2 0 4-1 9-6l10-9c6-2 9-2 5 0l-3 2 3-1 3 1c0 2 5 2 9-1 5-3 13-6 17-6l5-1h-4m20 0c1 1-6 9-14 17a64 64 0 00-19 32c-1 2 1 8 3 9l2-1 4-2c3-1 4-1 3-2-2-1 0-2 7-2 2-1 0-1-3-1l-9 1c-5 2-5-11 0-17l3-4 3-4 2-1 10-2 12-2h-8l-10 2h-2l2-2c1-2 3-3 5-3s4-3 5-6c0-2 2-3 3-3l1-1c-4 0 0-3 5-4 2 0 2-1 0-3s-5-3-5-1m-436 12l4 5c4 4 5 7 3 6h-2l2 1c2 0 5 4 4 5l-1-1h-2l-2-1-1-1c-1 1-2 0-2-1-1-2-3-1-4 1l-2 3-2 1c0 1 3 2 5 1 3-1 12-1 12 1h-3c-2 0-2 0 2 2s5 4 5 7l1 2c2 2 1-6-1-8l-1-4-3-12v2c0 2-2 1-6-4-3-4-6-6-6-5m300 8l-9 4c-4 4-4 4-8 1l-10-4-6-1c-2-1-7 0-6 1 0 2-6 4-12 4-3 0-4 0-2 1s2 1-3 3l-7 3-11 7 4-1c5-4 18-10 25-11 18-4 27-3 30 3 3 4 3 4 7 1l5-4c1-1 1-1 0 0l-6 3c-3 2-3 2-3 0s13-9 16-9c2 0 3 2 1 2-1 1 1 1 4 1l7 1 2-1-4-1c-3 0-3 0-3-2 1-4-3-4-11-1m-96 3c-3 1-6 2-7 4l-2 2 3-2 9-3c7-1 9-1 7-2s-6-1-10 1m151 10c0 6 0 6-2 9l-4 4-4 3a7 7 0 00-5 2l-3 2v-1h-6l2 1c2 1 2 1-1 1-4 0-4-1-2-5 2-2 3-3 5-3 1 1 2 0 2-1l2-4 1-3-1 1c-1 3-3 4-4 1 0-2-2-3-2-1l-2 2-1 1-4 7-4-1-2-2 3-2c4-3 4-4-1-2l-5 2-5 3c-3 3-5 3-4 2l-1-1v3c0 2-1 4-5 7-3 3-7 6-7 8l-1 3 4-1c3 0 5-2 4-5l4-3c3 0 3-1 3-3l1-2 2-2c0-3 4-5 8-4 5 0 6 1 6 3-3 7 17 4 24-4l3-4c0-2 3-4 5-4l3-1c1-1 6 2 13 8 6 6 5 9-4 16l-2 2c3 0 9-7 13-14 3-5 5-8 7-8 4 0 3-9-1-12-3-2-13-2-17 0h6c11-2 12 1 7 12l-4 6-9-9-3-2c-3 0-3-1-1-3 4-3 1-3-4-1-5 3-6 3-6-3-1-3-1-3-1 2m-398 4v3l1 4 2 2v4c-2 1-4 3-5 7-1 1-1 2-3 1l-1 1 2 4c2 4 3 5 6 3 5-3 3 2-3 9l-3 5 3-2 6-5c3-1 3-1 2-3v-6c0-4 1-3-5-2-4 2-4 2-4 0 0-3 4-10 8-12 4-3 5-5 3-9l-2-2v2c0 5-2 6-4 1-3-5-3-5 1-5h-4m21 1c1 2 1 6-1 6l-1 2c0 2 0 2-4 2l-1 2c0 2-1 4-3 5-5 7-1 7 6 0 8-8 10-15 4-17-1-1-1-1 0 0m411 16c0 9 2 9 3-1 1-5 0-7-2-7l-1 8m-456-2c0 5 2 12 5 16v3l1 1c2 0 2-1 1-3-1-1-5-12-5-17-1-6-3-6-2 0m363-2v2c1 2-8 2-9-1h-2l-5 1c-4 1-4 1-3 3v1h-1l6 2h5l-4-1c-4-1-3-1 4-1h8l1 2 1 2c1-2 0-11-1-10m-28 3l-1 4c-1 3-1 3 2 6s4 4 4 2l6-3 6-2h-7c-7 0-8-1-6-3v-3c-2-2-6-3-4-1m86 1l-7 3c-1 2-1 2 1 1l5-1 4-1-1 4 1 4h1l4-5 4-4-3-1h-9m-110 5l-3 2h-2v1c4 2-2 10-7 10-3-1-4 1-1 4l6-3c0-1 4-3 6-2l-1-1c-1-1 0-4 3-9l2-3c0-2-2-1-3 1m-266 6l2 2c4 0 5 6 2 8l-2 2 2-1 5-2c1 0 2-1 2-3s0-2-2-1c-2 2-3 1-3-3s-1-4-3-4-3 1-3 2m444 8c-11 7-22 18-22 21l5-3c0-3 14-14 19-14 4 0 6-2 5-6v-3l-7 5m-416 0c10 1 18 6 15 9h2l2-2c-1 1-2 0-2-1-1-3-7-6-14-7-4 0-5 0-3 1m314 2c-5 2-7 2-13 0l-5 1h-3l-2 1-3 1-4 3c-3 3-2 3 6-1 6-3 7-3 11-2l4 1-10 4c-11 6-13 6-14 2-1-2-1-1-1 2l-3 1h-2l3 1 5 2 3 2 5-3c4-1 8-4 10-6 4-3 15-9 22-10 1-1 1-1-1-1l-8 2m40 3l-2 1-4 2c-3 3-12 6-12 5a23 23 0 00-14 14c-5 7-10 10-14 10-3-1-4 0-2 2 1 1 2 2 1 3l4 1c3 0 4-1 4-2 0-2 3-5 8-7l5-3h-1c-1 1-2-1-1-2v-2c-3-2 5-12 10-12 4 0 15-5 18-9l2-3-2 2m-123 6l-8 5c-3 2-5 3-5 5-1 2-1 2 3 0 3-2 15-13 13-13l-3 3m-25 0l-1 8v5l1-6 3-5c1 0 1 2-1 7l1 3c2 2 4-1 5-7 0-3 1-4 3-5h-2l-6 1-1-2c-2-1-2-1-2 1m163 1l-2 8c-1 5 0 13 1 13l1-2c-2-6 1-14 5-16 2-1 1-2-2-4l-3-2v3M60 198c0 2 1 3 2 3s3 1 5 4c2 5 2 5-2 6-2 1-1 1 2 1h4l-1-3-3-6-1-3c0-1 0-2-2-2l-3-1c-1-1-1-1-1 1m360 1l-1 1-3 2c-2 2-2 2 2 3 5 3 5 3 5-3 1-4-1-6-3-3m-15 13l-9 10-4 4h3c2 0 3-1 3-2 0-3 8-12 10-11h4l-3-1c-1 0-2 0-1-1l2-2 1-1c0-3 0-3-6 4m-317-4c0 2-8 9-10 9l-4-2c-4-3-4-1-1 2 5 4 9 3 12-1 3-3 5-9 4-9l-1 1m404 5l6 1h10c1-2-3-3-11-3-6 0-6 0-5 2m-397 0l1 4 1 1 3 1c2 3 12 3 13 0 2-3 1-4-1-2-4 3-12 2-15-2l-2-2m-35 10c2 10 5 18 8 18l3-1h-2l-2-1-1-4c-3-6-3-9-1-9 3-1 3-4 0-4l-3-2c-2-1-2-1-2 3m65-2c0 2-4 5-6 4l-3 1c-2 2-11 4-12 2-2-1-5 0-5 1s3 2 7 2a27 27 0 018 1l1 1v1l1-1 4-3c5-3 7-5 6-9-1-2-1-2-1 0m326 7l-8 8-4 3h3l6-4 8-11-5 4M76 238l-3 1h1c1 0 2 1 2 4 1 6 4 10 6 10 4 1 4 0 0-5-3-5-4-8-1-7l1-1-1-1-1-1-1-1-3 1m290 3l-5 1h-1c2 0 3 1 2 2 0 1 0 2 2 2 3 1 2 3-2 2-2 0-2 0-1 1h8c13-2 17-2 15-1l-4 1h-2l2 1c2 0 2 0 1 1h4l1-1c-2 0-2 0 0-1l1-2v-2c-3 1-5 0-5-2a1 1 0 00-2 0c1 3-1 3-11 2l1-1-1-3h-3m-275 2h-3c-2 0 0 1 3 3l6 4 3 2 2 1c-1-2 0-2 4-2 7 0 6-1-3-3-5-1-6-2-6-3 0-2 0-2-2-1-1 3-3 2-2-1 1-2 0-3-2 0m47 1l-3 2-3 2-4 2-1 1-1 2-2 3c0 2 1 1 4-2l8-6 5-4h-3m278 1c1 1 1 1-1 1h-4l-6 1c-7 0-3 2 7 3l12-1 4-2-5-1-7-1m-345 6c-2 1 6 12 12 16 5 5 6 6 5 7v1c2 0 3-2 2-4s-1-3-2-2c-2 1-16-16-14-18h-3m11 4l8 8 3 3h1c2-2 3-3 3 0l1 1 1 1 3 5c3 2 4 4 4 8l3 6-3 4-4 4 3-2c3-2 7-2 5-1l-5 4c-6 4-6 5 1 1 7-5 9-4 5 4l-7 9a100 100 0 01-19 14l-17 14-3 3 15-11 7-5a164 164 0 0026-21c0-2 1-2 4-1h1l-3-2-1-2h2l4 2c6 2 7 2 7 1l-1-2c-1 1-2 0-2-2-1-2-1-2-3-1-2 2-3 2-3 1l-4-4v-6l1-4c0-3 3-10 6-14l2-2-3 1c-4 2-6 2-11-4l-5-2-2-1-3-1c-7 0-12-1-15-5l-2-1m17 9l5 9 3 3 2-3c2-3 2-4-2-7l-8-2m63 5c0 3-4 8-6 8-6-2-9-4-9-5 1-2-1-1-6 2-4 1-5 2-4 3h3c2-1 12-2 13-1l-2 4-1 3 2-2 4-3v1c-1 1 0 2 1 4 3 3 3 4-1 8-4 3-4 4 0 3l2-2 2-1 1-1 6-2c2 0 2 0 1-1l4-1c4 1 8 0 8-2s-5-2-11 0l-7 2c-1-2 2-3 11-5 8-2 8-3 4-3l-5-1-4-1c-3 0-4 0-3 1s0 1-2 2l-4 1c-1-1 7-8 9-8 3 0 3-2 0-3h-6m288-1l-14 2-4 2-3 1c-1 0-2 1-1 2v1h4l12-4 6-1 4 1h8l2 1c-1 1 0 2 1 2l-1 1-2 2c2 1 5-2 4-4v-2l-5-1-7-2-4-1m-119 3v1l3 5 7 11c4 5 4 6 3 10 0 2-1 2-6-4l-7-7 6 8 7 8 2-4c1-3 2-4 4-4l3-3v-5a2 2 0 10-3 0c0 3 0 4-2 4-3 0-2-5 1-8 2-2 2-3 1-6-2-1-2-1-3 1l-1 6c0 4-2 6-3 3l-2-2v-10l-1 3-1 3c-1 0-3-3-3-6s-5-7-5-4m140 2c2 2 1 3-2 4-5 2-13 3-13 2h-1l-2 1c0 1-2 3-5 4-6 4-9 8-7 10 1 1 1 1 1-1s4-6 6-6l2 8c0 2 0 2-2 1-6-2-4 0 3 3l10 5 1-3c0-2 0-2-2-1-2 3-3 1 0-2l1-2-2 2-3 1h-5v-7c0-5 1-7 2-7h1l3-2h4l4-1c1 1 2 0 3-1l3-2 1-1 2-1c4 0 3-3-2-4h-1m-279 8c2 2 1 3-3 4-4 0-17 5-17 6a3 3 0 003 1l3-2c3-2 4-2 4 0l2 1v-1c-2-3 4-4 14-4 4 0 4 0 2 2l-2 2 3-1 9-5c4-3 4-3 2-3l-5 2c-3 3-11 2-13-1l-2-2v1m42 0l2 1 5 2 3 2-4 1-6 2h5c5 0 5 0 4 2l3-2c8-6 15-9 13-5l-1 5-2 4v1l2 4 2 6v3c-2 2-1 3 2 3h8c-8 1-14-15-9-26l1-3h-4l-7 3c-3 2-7 1-7-1l-1-1-4-1h-5m-44 11a6 6 0 01-4 2l-2 2-3 2c2 0 3 1 1 3-3 3-5 22-3 24l1-4c-2-8 2-19 8-24 5-3 7-4 5-1-2 5-1 24 2 22v3c0 2-1 2-3 2-4-1-3 1 1 3 3 0 3 4 0 5l-2 1 2 1c3 2 4 1 3-3l1-4 1 2c0 3 1 0 2-5l1-7c0-2-1-1-2 1s-1 2-2 0l1-4 1-2 2-6c3-5 3-7 0-2l-3 1c-2-1-3 1-2 2v5c-2 3-2 3-3 2-1-4 0-16 2-18 4-4 1-5-5-3m222 3l-3 1-2-1 3 2c3 2 4 5 2 5l-1-1-2-2c-3-1-3-1-5 1s-4 3-3 1h-1c-2 0-2 2 0 2l4 2c2 2 3 2 6 1 5-1 10-1 13 2 2 2 2 2 1 5-2 5-3 5-8 1-3-1-4-3-4-4 1-1 1-1 0 0h-3l-3-2c-2 0 3 4 8 7s6 3 3 4h-2l-3-3-3-2-1-1c-4 0 0 5 8 10l5 3 3 2 1 1h1l3-3c3-1 3-1 2 1h1c2-1 2-2 1-2v-2l1-3-2 1c-1 3-7 5-9 5-4-2-4-4 0-6 8-5 7-4 5-8-2-5-5-7-10-8-4-1-4-2-4-6l-1-4-1 1m-275 6l-3 3c-1 2-3 1-2 0 0-3-1-2-3 0l-1 2 2 1-3 4c-2 0-8 10-8 12 1 1 3 2 3 0l-1-2c-1-1-1-1 1-2l2-2 1-2-1 4-2 17v12l-1-1h-3c-2 2-2 2 2 3l4 3c0 1-7-2-9-4v-2l1-3c-1-1-1-1-2 1s-4-10-4-17c0-2 0-3 1-2a2 2 0 102-2l-3-3 2 1h3l-3-2-3-2 2-1h1l-2-1-1-3v-1c-2 3-5 7-10 9l-8 7-16 13-11 11 10-8 34-27a32 32 0 01-2 15c1-1 1 0 1 1l1 2c2 2 2 6-1 9-2 4-3 5 0 3 2-3 3-2 5 2 3 6 3 6-1 10l-8 10 10-10c2-3 2-3 4-2 2 2 1 5-1 8-3 3-4 4-2 4l4-3c2-4 3-4 3 0v2c2-2 2-2 3 0l6 3c2 0 4 1 5 4l4 3v4c0 2 0 2 1 1 2-2 5-2 4 0l-2 5c-2 5-2 5 1 0 2-3 4-4 5-3 2 0 2 0 1 7l1-1c3-5 6-5 4 0l-1 3c1 1-3 5-5 5l-1-2 1-2-2 2c-2 3-9 3-8 0 2-4 2-4 0-2l-2 3h-19l6-8a80 80 0 008-15l-5 7c-10 15-13 18-17 16-2 0 4-11 7-13l1-1-7 7-6 8H92a37 37 0 01-15-1c-2 2-72 1-72-1 1-2 0-1-3 1-2 2-2 2 101 2l103-1h-3c-3 0-3 0-3-3l2-6 1-5v-2l-2 3-2 8c0 4-1 5-3 5-3 0-3-1-1-8 2-8 4-10 11-10l11-2h-13l5-2v-1c-1-2 0-2 3-3l5-2-1-1c-5 2-7 2-9 0s-2-4 0-4l2-1 2-2 2-1 2-2v3l-1 1v1l-1 2-1 2c1 0 2 0 3-2l3-1c1 0 2-3 2-12a10 10 0 00-1-8l-2-3v1c0 2 0 2-2 1v1c2 3-1 3-3 0-2-1-2-1-3 1v1l10 5c0 2-18 12-19 11l1-4c3-8 0-7-4 1-5 10-5 11-12 7-9-4-11-9-5-10 4-1 13-4 14-6l-1-1h-4c0 2-2 4-8 4l-6 1c-1 1-3-1-5-5s-2-14 0-18v-6c-2-4-4-5-3-2 0 2-2 5-4 4v-6c0-5 0-5-1-3l-2 6-2 5c-1 1 0 1 2 1l5-1v3c-2 7 1 15 8 24l2 4 2 2v2l-3-3c0-2-1-3-2-3l1 3c2 3-2 3-6-1-4-3-4-3-3-5 2-2 4-6 2-6-1 1-1 1 0 0 1-3-2-6-5-5l-3-1-3-1c-3 0-4-2-1-2 2-1 2-1 0-1l-4-2c-1-2-1-2-1 0l1 3v1h-2l2 2 5 5 3 5 1 1c0 1 3 5 7 8l6 7c-2 0-11-8-14-13l-3-3 2 3c1 3 1 6-1 6l-1 2h1l2-1v-1c-1-3 1-2 4 1 8 8 26 16 32 14 5-1 1 1-6 5-8 4-21 6-21 3h-1c0 1-1 1-4-1-3-1-3-1-1-2s3-2 0-4v-2l1-1c0-2-1-2-3-2s-3 0-2 1l-1 2-1 4c1 3 1 3-3 0-8-6-12-11-11-15l-1-1h-2c0-4 0-5-1-4l-1-2v-3c-2-1-4-6-3-7l-1-2-2-5-1-5 1-2v-4l5-16c0-2 0-2-2 0l-4 9c-1 6-3 8-3 4 0-3 6-14 9-17 2-3 2-3 5-1a7 7 0 014 3c2 0 1-3-1-4-3-1-4-4-2-3s4-1 2-2l-1-4c0-2-1-3-5 0m181 1c2 3 10 14 15 18 4 5 7 3 4-3l-1-3 7 9c1 1-1 5-3 5l-1 1h-2c-2-1-2 1 0 4v1c-1 1-1 1 1 1l3-3c3-8 5-10 5-4-1 3-1 3 1 2 1-3 2-8 0-7l-4-3-6-7-5-5 1 4c2 3 2 5 1 5-2 2-4 0-5-4l-1-1c0 1-1 1-2-1-2-2-1-4 1-2a2 2 0 103-2l-1-1-1-3c-1-1-1-1-2 1-1 4-2 4-6-1-2-2-3-3-2-1m128 6c2 3-10 21-14 21-3 0-3 3 1 6l4 2c-1-2 2-3 4-1h2l-2-1-5-1h-3c-4-2 0-3 6-2l16 1-3-1c-15-1-16-2-12-4 7-3 8-4 6-4s-2-1 1-9c2-5 2-8-1-8v1m-66 1l2 3 2 2-3 2a11 11 0 00-5 6l-2 6-2 3-5-5-6-7-1-1 11 14 16 18 39 39-26-29c-12-11-14-14-10-13 6 1 9 1 9-1l-1-1c-2 0-1-2 2-2 1-1 2 0 2 1h1l1-1c-2-2 13-3 27-2 4 1 4-2 0-5l-11-8c-10-8-10-8-10-5 0 1 1 2 2 1 1 0 5 3 5 5l-2 1-5 1-8 2-10 3c-5 2-5 3 1 1l11-2 9-2h3l4-1h2c2 1 0 2-6 3l-6 1c0 1 3 1 11-1 4-1 6-1 5 1l-13 2-20 5-7 2-4-3-3-4 3 1 4-1c0-1-6-2-7-1-1 2-4-4-4-6 1-2 7-3 7 0 0 2 4 1 6-1l4-2a27 27 0 008-4c-2 0-1-2 1-3v-2l-3 2c-3 4-11 7-13 5s-1-2 2-2c3 1 1-1-3-4-4-1-2-5 1-3l4-2 3-2-3-1-2-1-1-1h-4l-2-1m-23 2c4 1 5 1 2 2s-2 2 6 2h13l-2-2-6-1-9-1-4-1c-2 0-2 0 0 1m-100 2l1 4 2 6c0 2 4 11 7 14l2 3-1-4-2-5v-5l-2-4-2-5-1-4-2-1-2 1m-7 6c0 3 8 19 10 21l1 2c0 1 2 2 5 2 1 0 1-1-1-3-5-4-9-15-8-18 2-2 1-4-4-6-3-1-3-1-3 2m-37 0c1 2-7 9-9 9l-1-4c0-3 0-3-1-2-2 3-1 11 1 13 3 2 5 1 5-2 0-6 2-7 7-4 4 4 6 1 2-5-2-3-2-3 0-5 1-1 1-1-1-1l-3 1m254 1c0 2-2 3-3 4l-3 4c0 2-2 1-2-1-1-1-1-1-1 1l2 2 3 2c2 2 3 1 1-2v-3 4l2-3c4-3 6-1 2 3a6 6 0 00-2 4l-1 4 4-2 3-1h-3c-4 1-3 0 3-3l3-4c0-2 3-4 6-3l-1-1-2-2-2-1-3-1-2-1h-1l-1-1c-1-1-1 0-2 1m-242 8c0 4 0 4 1 2l2-2v2c1 4 1 4-1 4l2 1c3 1 3 2 4 8l3 7c3 4 1 7-3 5-4-1-4-2-1-4l1-1c-2 0-4-4-4-6 1 0 0-2-2-3-1-3-2-3-2-2l1 2 1 3 1 2c2 0 2 4-1 5-2 0-2 0-1 1 2 1 2 3 0 2-1 0-2 2-2 7-1 7-1 8 2 5l2-2c1 0 1 1-1 1-3 3 0 3 4 1 4-3 6-6 2-4-2 1-2 1-1-1 1-4 7-3 7 1l1 3c1 1-11 10-14 10s0-2 4-4c5-2 8-5 8-6h-2c-3 3-9 6-11 6s-2 1-2 3c0 3 0 3 4 3l5-3c3-3 4-2 4 1l1 9 1-6c-1-6-1-7 1-9 3-1 4 1 4 9l1 6v-16l2 2c2 2 3 3 3 7l1 6 1-5c-1-6-1-6 4-2l5 8c1 3 1 3 1 0l1-3a5 5 0 016 5c0-2 4-1 4 2l2-1c2-2 0-4-4-4-5 0-22-14-22-19l-3-7-2-8-1-6c-2-2-2-3 0-3l3 1-5-2c-2 0-3-1-3-2l-3-2c-2-1-3-2-3-4l-5-7-1 4m92-3c-2 1-1 1 6 1 2 0 2 1 2 5 0 6 3 11 10 16 6 6 6 7 0 9-5 1-7 1-2-1 2-1 3-1 2-2l-10 3a10 10 0 01-11 1c-1 0-2 1-1 2 1 3-19 1-28-4l-8-4h3l4 2-4-3a69 69 0 01-19-19l1 3 3 5 3 4c2 2 3 4 3 7 0 7 14 19 21 19l3 1c1 3 3 1 1-3-3-5-3-5 3-5 5 1 19 0 25-2 2 0 3 0 6 6 4 7 4 8-4 7-5-1-7-2-7-4l-1-1-1 2 1 3 4 1 3 1-3 1-7 3c-13 8-19 9-33 7h-4l2 1 4 1c2 1 4 2 5 1 2 0 2 1 3 5l2 3-1-4v-4l3 5 2 5v-5l-1-5 3 4c1 5 4 9 4 5-2-10-3-9 0-9h3c0-1 9-5 14-6 10-1 22 5 28 14l2 1-1-3-1-2c1-2 3-1 5 3l3 3-1-4-2-3c2-1 6 1 7 3l2 3-1-3c-1-2-1-2 1-2 5 3 9 3 10 2a33 33 0 0134-7l7 3 7 2a3 3 0 013 1c0-1-20-22-22-22l3 3c3 4 2 4-5 1-6-2-17-4-16-2l10 3 12 4 3 2h-12c-11 1-18 2-21 5l-11 3-17-2c-5 0-5-1 0-6 4-3 5-4 7-3 2 0 2 0 2-2-1-3-1-3 7-4l12-2c6 0 6 0 3-1s-22 2-24 3h-1l-7-1h-7l-3-5-3-7c-2-2-1-3 6-4 6-2 6-2 3-7l-4-3-7-6 5-1c6 0 8-1 6-4h-3c-2 2-10 2-10 0l2-1h1l1-2c3-4-12-11-17-8m33 2l-3 4c-3 5-2 8 2 6 2-2 3-3 3-5l-2-5m-116 1c-1 1 6 7 9 7l7 3c7 3 9 4 9 2l-5-3c-3 0-9-3-12-6l-8-3m375 3l1 5 1-4c0-3 2-3 4 1 1 4 10 6 10 2 0-2-1-3-3-1-2 3-6 1-5-2 0-3 0-3-5-4l-3-1v4m-292-1v4l-2 5c-2 2-2 2 0 2l3 2 3 4c3 0 3 3 1 4-3 2-11 2-12 0h-4c-3 2-8 2-10 0 0-2 3-2 5-1s2 1 4-1l3-4 2-4-1 1c-4 5-9 7-21 5-7 0-9-1-10-3l-3-1c-1 2 6 6 18 11l-1 1-2 1 3 1c3 1 12 2 13 1l-3-1-8-2 1-1c6 2 25 1 32-1l2-1-3-4c-6-6-9-13-8-18h-2m-101 6l-3 2-4 5c-5 4-8 10-5 8l2-2c-1-1 1-4 6-7 2-2 2-2 3-1h2c1-2 1-2-1-1v-1c2-2 3-2 3-1 1 2 2 0 2-1-1-2-1-2-5-1m356 3h-6l-2 1 4 1c3 0 4 0 3 1l-7 1c-5 0-6 1-4 3l1 2c0 2 0 2 1 1 2-2 4-1 3 1a2 2 0 003 0l1-2c1-1 1-1-1-2-2 0-2 0-1-1 3-2 4-1 4 4s-1 6-8 5c-2 0-2 0-1 1l1 5c0 3 1 3 3 3h6c4 0 6-2 2-2l-2-1 2-1 2-1-2-1v-1c1-2 4-1 4 2 0 4 1 4 3 0 2-3-1-5-6-5-2 0-3 0-3-2l5-1c4 0 4 0 3-1l-2-3a1 1 0 10-2 1 2 2 0 11-3-1c0-2 0-2 5-2 7 1 8-1 1-2-5 0-7-2-2-2l4-1h-9m32 6l1 2 1 1-2 1c-2 0-2 1-1 1 1 1 3 0 4-1 3-3 5-3 2 0v2c1-1 2 0 3 1l3 2 1 1-4 1c-4 0-8-2-4-2l-2-1-5-3c-2-1-2-1-2 2s0 3 3 2l3 1-2 1c-3 1-4 7-2 7l1-4 1-2 1 1c0 1 1 2 2 1l2 2c0 3 1 3 3 0 1-2 1-2 1 1l1 4v-2c0-2 8-4 11-2h2l-3-3c-4 0-5-1-3-1s2-1 2-3v-5c1 0 1-1-1-1h-4a2 2 0 11-1-3l1-1h-3c-3 2-8 1-8-1s-1-1-2 1m-198 1l3 1 2 1c0 1-1 2-3 1h-2v1l-1 1 2 1c2 0 5 2 9 6 8 8 9 8 9 7l-6-7c-6-5-7-6-6-9 0-2-1-3-2-3l-4-1-1 1m-131 7l3 4 4 5c3 4 4 4 4 0l1 1c1 3 5 6 6 5v-4c-1-3-1-4-7-6l-7-1-1-1-1-3h-2m177 0c0 2 30 24 31 23l-9-7-3-3-19-14v1m-323 3c1 6 10 20 12 20l-1-2-6-11c-3-8-7-13-5-7m46 17c5 3 26 7 25 4l-6-1-9-2c-12-3-12-3-10-1m159 2c-4 0-4 1-2 3l2 4 1 2h2c1 1 2 0 4-3 3-3 4-4 6-4l2-1-3-1h-12m242 0l-7 1c-5 0-7 1-2 3l2 1-3 2c-3 4-3 5 0 3 3-1 3-1 2 1l-2 2c-2 0-2 0-1 1s0 4-1 4c-2 0-5 3-3 3 4 0 13-12 10-13-2-1 1-6 5-6h4l2-1c1-1-3-2-6-1m34 2l-2 2-1 1 1 1h2c1 2-3 4-6 4l-3 1c-1 1 3 2 4 1 2-1 10-1 14 1h3c1-1-1-2-5-3-5-1-7-3-4-5 1-1 0-4-2-4l-1 1m-37 7c0 8 2 11 11 11 5 0 6 0 6-2 0-3-1-4-2-1-1 2-9 2-11-1-3-2-2-5 2-6l4-3c0-1-3-1-5 1s-3 1-3-1l-1-3-1 5m-385 6c0 5-2 8-4 7l2-5c2-5 2-6-2-4-3 1-3 2-4 8l-1 3h5c7 0 8-2 10-9 0-4 0-4-2-4-3 0-3 1-4 4m-33 3c-2 5-3 6 0 6 2 0 6-7 6-9 0-3-4 0-6 3m6 1l-2 5h6c6 0 7-1 9-5v1c0 5 1 5 3 1 4-7 4-7-6-7h-8l-2 5"
      tabindex="-1" itemprop="bold" style="fill-opacity: 0.644; fill-rule: evenodd;"></path>
    </symbol>
  </defs>
  <use class="background" href="#-posters-1650742855615-background" fill="url(#-posters-1650742855615-background-gradient"></use>
  <use class="light" href="#-posters-1650742855615-light" fill="url(#-posters-1650742855615-light-gradient" filter="url(#light-filter)"></use>
  <use class="regular" href="#-posters-1650742855615-regular" fill="url(#-posters-1650742855615-regular-gradient" filter="url(#regular-filter)"></use>
  <use class="bold" href="#-posters-1650742855615-bold" fill="url(#-posters-1650742855615-bold-gradient" filter="url(#bold-filter)"></use>
  <use class="emboss" tabindex="-1" href="#-posters-1650742855615-light" fill="url(#-posters-1650742855615-light-gradient" filter="url(#emboss)"></use>
  <use class="emboss" tabindex="-1" fill="url(#-posters-1650742855615-regular-gradient" href="#-posters-1650742855615-regular" filter="url(#emboss)"></use>
  <use class="emboss" tabindex="-1" fill="url(#-posters-1650742855615-bold-gradient" href="#-posters-1650742855615-bold" filter="url(#emboss)"></use>
  <defs>
    <g class="gradients">
      <radialGradient gradientUnits="userSpaceOnUse">
        <stop itemprop="radial" stop-color="hsla(45, 9%, 70%, 1.00)" offset="0%"></stop>
        <stop itemprop="radial" stop-color="hsla(45, 9%, 64%, 1.00)" offset="15%"></stop>
        <stop itemprop="radial" stop-color="hsla(46, 9%, 65%, 1.00)" offset="30%"></stop>
        <stop itemprop="radial" stop-color="hsla(46, 9%, 69%, 1.00)" offset="45%"></stop>
        <stop itemprop="radial" stop-color="hsla(46, 9%, 71%, 1.00)" offset="60%"></stop>
        <stop itemprop="radial" stop-color="hsla(46, 9%, 67%, 1.00)" offset="75%"></stop>
        <stop itemprop="radial" stop-color="hsla(46, 9%, 67%, 1.00)" offset="90%"></stop>
      </radialGradient>
      <linearGradient gradientUnits="userSpaceOnUse" x1="0" x2="0" y1="0" y2="100%">
        <stop itemprop="vertical" stop-color="hsla(45, 9%, 70%, 0.63)" offset="0%"></stop>
        <stop itemprop="vertical" stop-color="hsla(45, 9%, 64%, 0.63)" offset="15%"></stop>
        <stop itemprop="vertical" stop-color="hsla(44, 9%, 65%, 0.63)" offset="30%"></stop>
        <stop itemprop="vertical" stop-color="hsla(46, 9%, 69%, 0.63)" offset="45%"></stop>
        <stop itemprop="vertical" stop-color="hsla(45, 9%, 71%, 0.63)" offset="60%"></stop>
        <stop itemprop="vertical" stop-color="hsla(46, 9%, 67%, 0.63)" offset="75%"></stop>
        <stop itemprop="vertical" stop-color="hsla(46, 9%, 67%, 0.63)" offset="90%"></stop>
      </linearGradient>
      <linearGradient gradientUnits="userSpaceOnUse" x1="0" x2="100%" y1="0" y2="0">
        <stop itemprop="horizontal" stop-color="hsla(45, 9%, 68%, 1.00)" offset="0%"></stop>
        <stop itemprop="horizontal" stop-color="hsla(46, 9%, 65%, 1.00)" offset="15%"></stop>
        <stop itemprop="horizontal" stop-color="hsla(46, 9%, 70%, 1.00)" offset="30%"></stop>
        <stop itemprop="horizontal" stop-color="hsla(46, 9%, 67%, 1.00)" offset="45%"></stop>
        <stop itemprop="horizontal" stop-color="hsla(45, 8%, 65%, 1.00)" offset="60%"></stop>
        <stop itemprop="horizontal" stop-color="hsla(44, 9%, 68%, 1.00)" offset="75%"></stop>
        <stop itemprop="horizontal" stop-color="hsla(44, 9%, 74%, 1.00)" offset="90%"></stop>
      </linearGradient>
    </g>
    <g class="generated gradients">
      <radialGradient id="-posters-1650742855615-background-gradient" gradientUnits="userSpaceOnUse">
        <stop stop-color="hsla(45, 9%, 80%, 1)" offset="0%"></stop>
        <stop stop-color="hsla(45, 9%, 80%, 1)" offset="15%"></stop>
        <stop stop-color="hsla(46, 9%, 80%, 1)" offset="30%"></stop>
        <stop stop-color="hsla(46, 9%, 80%, 1)" offset="45%"></stop>
        <stop stop-color="hsla(46, 9%, 80%, 1)" offset="60%"></stop>
        <stop stop-color="hsla(46, 9%, 80%, 1)" offset="75%"></stop>
        <stop stop-color="hsla(46, 9%, 80%, 1)" offset="90%"></stop>
      </radialGradient>
      <linearGradient id="-posters-1650742855615-light-gradient" gradientUnits="userSpaceOnUse" x1="0%" x2="0" y1="0" y2="100%">
        <stop stop-color="hsla(45, 9%, 60%, 0.9)" offset="0%"></stop>
        <stop stop-color="hsla(45, 9%, 60%, 0.9)" offset="15%"></stop>
        <stop stop-color="hsla(44, 9%, 60%, 0.9)" offset="30%"></stop>
        <stop stop-color="hsla(46, 9%, 60%, 0.9)" offset="45%"></stop>
        <stop stop-color="hsla(45, 9%, 60%, 0.9)" offset="60%"></stop>
        <stop stop-color="hsla(46, 9%, 60%, 0.9)" offset="75%"></stop>
        <stop stop-color="hsla(46, 9%, 60%, 0.9)" offset="90%"></stop>
      </linearGradient>
      <linearGradient id="-posters-1650742855615-regular-gradient" gradientUnits="userSpaceOnUse" x1="0" x2="100%" y1="0" y2="0">
        <stop stop-color="hsla(45, 9%, 50%, 1)" offset="0%"></stop>
        <stop stop-color="hsla(46, 9%, 50%, 1)" offset="15%"></stop>
        <stop stop-color="hsla(46, 9%, 50%, 1)" offset="30%"></stop>
        <stop stop-color="hsla(46, 9%, 50%, 1)" offset="45%"></stop>
        <stop stop-color="hsla(45, 8%, 50%, 1)" offset="60%"></stop>
        <stop stop-color="hsla(44, 9%, 50%, 1)" offset="75%"></stop>
        <stop stop-color="hsla(44, 9%, 50%, 1)" offset="90%"></stop>
      </linearGradient>
      <linearGradient id="-posters-1650742855615-bold-gradient" gradientUnits="userSpaceOnUse" x1="0" x2="100%" y1="0" y2="0">
        <stop stop-color="hsla(45, 10%, 8%, 1)" offset="0%"></stop>
        <stop stop-color="hsla(45, 10%, 8%, 1)" offset="15%"></stop>
        <stop stop-color="hsla(44, 10%, 8%, 1)" offset="30%"></stop>
        <stop stop-color="hsla(46, 10%, 8%, 1)" offset="45%"></stop>
        <stop stop-color="hsla(45, 10%, 8%, 1)" offset="60%"></stop>
        <stop stop-color="hsla(46, 10%, 8%, 1)" offset="75%"></stop>
        <stop stop-color="hsla(46, 10%, 8%, 1)" offset="90%"></stop>
      </linearGradient>
    </g>
  </defs>
  <defs>
    <filter id="light-filter">
      <feColorMatrix in="SourceGraphic" type="matrix" values="1.5 0 0 0 0
                0 1.5 0 0 0
                0 0 1.5 0 0
                0 0 0 1.5 0"></feColorMatrix>
    </filter>
    <filter id="regular-filter">
      <feColorMatrix in="SourceGraphic" type="matrix" values="1.5 0 0 0 0
                0 1.5 0 0 0
                0 0 1.5 0 0
                0 0 0 1 0"></feColorMatrix>
    </filter>
    <filter id="bold-filter">
      <feColorMatrix in="SourceGraphic" type="matrix" values="1 0 0 0 0
                0 1 0 0 0
                0 0 1 0 0
                0 0 0 1 0"></feColorMatrix>
    </filter>
    <filter id="emboss">
      <feConvolveMatrix kernelMatrix="1 0 0
                      0 0 0
                      0 0 -1"></feConvolveMatrix>
    </filter>
  </defs>
</svg>
