<svg id="-posters-1650644051626" itemscope="" itemtype="/posters" itemid="/+/posters/1650644051626" viewBox="0 0 723 512" preserveAspectRatio="xMidYMid slice" tabindex="0" xmlns="http://www.w3.org/2000/svg">
  <defs>
    <symbol id="-posters-1650644051626-background">
      <rect itemprop="background" width="100%" height="100%" tabindex="-1"></rect>
    </symbol>
    <symbol id="-posters-1650644051626-light">
      <path d="M352 2h4l-3 10c-2 6-6 13-6 10 0-2-1-2-10 0a28 28 0 01-17 1c-2 0-2 0-1 1 2 1-9 2-13 1h-4l2 1c5 0 1 2-5 2l-6 1 6 2 6 4 5 1 6 1c2 1 8 0 10-2l5-1 6-1 7-1 4-1v4l-3 6-1 3c1 3-9 28-13 30h-1v-1h-1l-1 3-1-2c1-3-1-3-4 1l-3 3h10l-2 4a125 125 0 01-15 26 3 3 0 013-5c0-2-6-2-6-1v2c0 2-3 3-6 2l-3-1 4-2 3-3 3-1c2 0 2 0 2-2v-1l-4 1c-2 0-2 0-1-1l3-2s2-1 2-3c2-3 5-5 7-4s2-2 1-3-2-2-5-1a17 17 0 01-5 1c2 1 1 2-1 1l-6 3c-4 4-7 4-11 3h-3c-1 1-1 1 1 1l4 1h3l2 1c2 0 3 2 1 2-6 0-10 1-11 3h-3l-2-1h-6l-5 2c-2 1-2 1 0 2v1c-3 0-4-2-2-3l2-3h-2c-1 1-9 2-10 1l-3-1c-3 0-3 0-2-2 2-1 18-2 21-1l2-1 3-2c2 1 10-3 9-4a12 12 0 00-10 0c-2 0-2 0 0-1v-2c-2 0-2 0-1-1h4c2 1 5 0 6-2 2-3 1-4-2-2-1 2-2 2-2 1-2-1-10 0-11 2l-5 1-9 3-8 2h-3c-1 1 0 1 1 1l2 1-2 1-4-1-4-1c-1-1-2-1-5 1l-4 1 3-4 3-1h-5c-5 1-7 3-5 5 2 1 2 1-1 1-9 2-10 2-11 0 0-2-1-2-2-1h-1l-2-1h-6l3 2c2 0 3 2 1 2l-3 2c-2 2-4 3-7 3l-6 2v1c1-1 2 0 2 1 1 2 0 1-4-1s-4-2-6 0c-3 2-4 3-1 3 1-1 2 0 3 1h9c5-3 8-3 8-2l-2 2-3 1c-2 2-23 2-25 0h-2c-1 2 1 5 4 5s-5 3-9 3l-3 2-2 1c-3 0-2 2 0 3 4 2 13 3 15 2 2 0 2 0 2 2l2 2v3l-3-1-1-1c-1 2-2 2-6 2s-5 0-5 2l-2 2c-2 0-2 1-2 2l-1 1c-1-1-2 1-2 4 0 2 0 3-2 2l-1-1c2 0 1-2-1-2s-4 3-2 4l1 2 3 2c5 1 5 4 1 5-3 0-2 2 2 3l5 2a8 8 0 008 0l1-3c0-2 0-2 2-2h2v-2h11c2-2 2-2 0-3l2-1c3-1 3-1 1-2s-2-1 2-5c3-4 4-4 6-2 1 1 1 1-1 1s-6 3-5 4l2-1c1-2 12-2 13 0h2c0-1 2-3 5-4 5-3 5-4 1-3-3 0-3 0-2-1l2-4c0-2 0-2 2-1l4 2 2 1 2 3c3 3 2 7-1 8-4 0-4 4 0 4h4l-3 1c-6 2-12-1-9-3v-1l-2 2-1 3c-1 0-2 1-1 2l-2 2-2 1h7c1-3 8-4 11-3 5 2 5 6 0 4-2-1-3-1-2 1l3 1 5 2c1 2 2 2 8 2l15-1c4 1 8 3 5 3v4h-4c0 1-4-1-4-3h-2l-3 1c-3 1-2 2 1 2s4 0 4 3c0 2-1 2-3 2-1-1-2 0-4 1-1 2-2 3-6 2l-5 1c0 1-1 2-3 2l-3 2h-3l-1-2-2 1-3 1-4 1c0 1-3 2-6 1l-5 1 1 1 3 2c1 1 1 1-1 1l-3 1h-4c1 1 1 1-1 2-5 1-8 1-11-1s-3-2-5-1c-3 4-4 2-1-2 3-2 3-2 8-1s8 1 7-1h3c2 0 2 0 1-1l-4-1-2-1c1-2 0-2-2-2l-2-1c0-2 2-2 5-1 5 2 21-1 23-4l4-3c2 0 0-2-3-3-3 0-4-1-4-2-1-2-5-3-8-1-4 2-18 5-25 4l-5 1v8h-2l-4 1c-4 0-7 1-6 2s0 2-2 2h-4c1-2-5 0-7 2-3 2-4 0-3-3l4-2 4-1 3-1c3 0 3 0 2-1h-9l-2-2-1-4c1-3-3-3-5 0l-4 2-3 1h9c1-2 2-1 1 2 0 3-6 4-13 2v-3c0-3 0-3-2-3s-4-2-2-3c2 0 3-3 1-3l-4 4-2 2v1l5 1a1 1 0 110 2l-1 2c1 2-5 5-6 3-1-1-5-2-8 0l-4 1-1 2c1 2 0 2-4 3-4 0-6 1-8 3s-3 3-3 1l-1-2-1-2c-1-2-1-2-4 0l-5 1-1 1-8 4-8 1h-6c-2-2-3-2-4-1-2 1-3 1-5-1-3-1-4-3-2-3l1-2c0-2 7-9 8-8v2c-1 2 2 1 4-1 1-1 1-1-1-1-2 1-3-1-1-2 1-1 0-1-1-1l-4 1-3 1c-2-1-5 0-6 1l-4 2-1 1c0 3-8 4-9 1 0-1 3-2 4-1s5-1 5-3 4-5 8-5l8-2-2-1c-4 1-3-1 0-2 4-1 4-1 2-3-1-1-1-1 2-3 4-1 5-1 5 2l1 2 3-1 4-1 1 1c6 0 7 0 7-2s3-4 6-5l3-4 3-2 2-1 2-1h1l-4 8c-2 0-1 2 1 1l1 1c0 2-4 2-5 0-2-1-5-1-5 1h2c3 0 1 2-4 4-4 2-4 2-1 2l6-1 5-1c2 0 4-3 3-5v-6l2-1c3 0 3 0 3-3l3-6 2-3 4-6v3c-2 2-2 2 0 2l4-1h9c4 0 4 0 5-2l3-3 3-2 3-2c2 0 3-3 1-4l-1-1c1-1-2-3-5-4l-5-1-1 1c0 3-2 1-2-2 0-2 0-3-1-2h-2v1l-1 2h-2l8 4 2 1c1 1-2 2-4 1s-2-1-4 1c-3 4-7 4-8 2s-1-2-3-1h-4c-4-1-4-1-4 1l-1 1-2 1c-1 1-11 5-14 5l-1 1-5 1-5 2-2 1c-1-1-4 0-7 1a6 6 0 01-7 1l2 1 1 4c-1 4 1 7 3 5l1 1h-3c-1 0-2 0-2 2l1 1h4l1 1-2 1h-1a4 4 0 01-8-3v-1l2-1-2-1h-9l1 2h-7l2-1 1-1c-1-3 1-6 3-5l3-1 3-2c3 0 3-2 1-3h-3c-1 2-2 2-2 1-2-3-6-1-5 2l-1 1c-1-1-2 0-3 1l-2 1h-2l-2 3c-2 2-2 2 0 2l3-2c1-1 2-2 3-1 3 0 2 2 0 2l-2 2v2l-2 2c1 1 1 2-2 1l-4 1v1c3-1 2 1-1 2s-3 1-6-8l-5-10c-3-4-7-16-7-20l-2-7L3 93c-2-5-3-6-3-4 0 3 6 19 11 26 3 5 3 7 4 14v8l-3-3c-2-3-3-5-6-16l-4-17-2-4v8l1 13c2 5 2 5 0 5-1-1-1 22-1 194v195h156c135 0 156 0 157-2 3-1 4-1 4 1s90 2 94-1l3-3c1-1 2-2 4-1l3-1 2-1h5c3-1 3-2 3-6l1-2 1 1c0 1 3 2 6 0v-6c-2 0-1-3 1-3l4-1c2 1 2 0 4-2l3-4 4-1h4c2 1 3 1 6-1 5-2 13-1 13 2l-2 2c-4 1-5 8-1 10 3 1 3 1 3 7l-2 6h-2l1 3 2 3h247V302c0-223 0-233-3-233v-1c2 0 2-2 2-20V27a49 49 0 000-21c0-3-1-5-2-5-1-1-1 0-1 2 0 3 0 3-1 2-1-2-1-2-3 0-2 1-2 1-3-2l-1-3c-2 0-6 3-7 5l-2 2c-1-2-7 0-7 3 0 1-3 2-4 1h-4l2 1 4 2v2l-2 1h-2l-2-2h-1c-2-1-5 1-5 3 0 1 5 3 6 2 0-2 2 0 2 2l-1 2c-2-1-6 6-5 7l-2 1c-2 0 0 3 3 4 7 2 9 3 9 6s-1 4-3 4-3 1-5 5c-4 5-4 5 0 5h2l-7 4c-2 0-3 0-3 4a6 6 0 001 5l-2 1-1-2c0-1-2-2-3 0v3l-1 1v1l2 1-2 1c-2 0-4 4-3 6s3 0 3-2c1-2 1 0 1 3 0 5 2 7 2 3 0-2 0-2 2-1 2 3 1 4-1 4s-3 2-1 2c2 2 0 3-5 3l-6-1 2-1 1-1c-2-1-5 1-4 3 2 2 1 2-5 3l-6-1h-3c-1 2-1 2 1 2l8 1 4-1c-2-2 8-3 20-1 9 1 8 2-6 4l-4 1h-2l-3 1 2 1 4 2c2 3-1 5-7 6-5 0-5 0-3 1 3 1 2 1-2 2-3 1-2 2 0 5l2 2-2-1c-2 0-2 0-2 2 1 1 0 2-1 3-2 1-1 3 2 3 2-1 2-1 2-3 0-3 2-2 4 1 1 3 6 4 6 2l3-1c3-1 2-2-1-3-4 0-7-1-7-3h-2c-1 1-1 0-1-1 0-3 1-3 2-2l7 1c5 0 7 2 7 4a4 4 0 005 5l1 2h-1l-3-1c0-2-2-1-2 1l-2 4-2 3 1-3 1-3a1 1 0 10-1-1l-2 1v1h-2c-4-2-8-1-11 2-6 5-12 5-9 0l2-6c-3 1-3 0-3-6 0-5 0-6-1-5l-2 2-5 2c-7 1-15 10-13 14 1 2 1 2-1 2-3 0-10 5-11 8l-4 13-2 10-3-2-7-4-5-5c-4-7-14-5-16 3l-4 7c-5 6-9 14-9 21l-1 6a42 42 0 01-10-16c-1 1-6-4-6-6l-2-2-5-9c0-2 5-3 7-2a2 2 0 003-1c-2 0-1-2 2-3 8-3 10-9 4-15-4-4-4-8-2-13 2-3 2-4 1-5-1-2-6 3-6 5l-2 2-2 3c0 4-7 15-9 15l-6 2c-5 2-11 1-11-2s-3-8-4-8l4-6a11 11 0 017-6 8 8 0 017-8v-1h5l-2-1c-2 0-2-1 0-4 3-4 2-6-1-2l-9 10-10 12c-4 4-8 7-8 4l-13-13c-2 0-4-3-3-5s0-7-2-10c-1-2-6 3-6 6 0 1-5 4-7 3-2 0-2 0 0-9 1-7 1-14-1-17l3-3c4-2 6-4 5-5h-2a5 5 0 01-9-1v2c2 2 1 2-2 0-2-2-3-5-1-3l1-1-2-1-2-1-4-6c-2-3-3-4-1-3 2 0 9-2 10-4s-2-4-3-2h-2l-1 1a2 2 0 01-5-1l-1 2-1 1v-1l-1-1-3-1c-1-2-3-2-5-1h-6l-2-3a5 5 0 00-6 6l2 1c2 0 2 0 2 3s0 5 2 6c2 3-2 5-6 3-2-2-2-2-2 0l-1 2c-2 0-4 6-3 7l-1 3c-1 2-3 3-3 2-1-1 0-10 1-9 1 0 6-5 6-7l-1-3-1-1c0-3-2-2-2 0 0 6-6-16-6-21 0-2 0-2-1-1 0 2-5-3-5-5 0-4 12-20 13-19 1 0 1 1-1 1v1l4-2 4-3 7-4h-5c-2 0-4 0-6 2l-2 1 1-3 4-4c1-2 2-2 11-2 5-1 7-1 9-4l4-3 1 1 1 2h6c0-1 1-2 4-2a17 17 0 0013-6h-2c-2 0-2 0-1-1h-1l-1 2-1 1-2-1-1-1c-1 1-2 0-3-1s-1-1-1 1v2l-2-2c-1-2-1-2-3-1l-1 2h-1c-2 1-2 1-2-1 0-1-1-2-8-1h-10l-2-1-2 1h-1c-2-1-51-2-50 0l-1 1 2 1h-3l-5 1 1 2 1 1a2 2 0 003 1h-1l-1-1h10c0 2 2 1 1 0l1-2 2 2h6c1-2 22-3 30-2 5 1 1 5-4 5-3 0-3 0-1-1 2 0 3-1 3-2l-1-2h-2v2c1 1 1 1-1 1-3 0-3 0-2-2V5l-4 1c-2 0-2 0-1 1 2 1-6 3-18 4h-8l-8 2-7 2-5 2a763 763 0 00-29 4c-1-1 4-19 5-18l1-1h2c3 2 7 1 7-1l-8-1c-7 0-9 1-8 2M42 5c-2 2-2 6 0 9v1l1 1 2-1h3l3 2h4c3-2 4-7 0-7l-1-1c0-5-8-7-12-4m486 0h-4c-3 0-3 0-2 1l4 1 2 2 2 2 5 2c4 2 16 4 18 2 5-3 1-7-6-6-7 0-16-2-17-4h-2M189 15c-1 1-1 1 1 1s2 0 1 1c-3 0-1 2 2 2 2 0 1 1-3 1-6 2-8 4-3 3l8-1c3 0 4 0 3-1l7-1c12-1 13-2 14-3h1l1 1 1-2c0-1-9-1-13 1h-1c1-1 0-2-3-3-6-1-14-1-16 1m200 1c-2 0-3 1-3 2 0 2-4 3-6 2h-3l-3 2-3 3c-1 2-2 2-3 1-2-2-4-1-2 1l3 4 3 8c3 6 4 14 2 15-2 2-1 10 1 10 2 1-1 4-6 5-3 1-3 1-3-1 0-3-2-5-5-5-1 1-3 0-5-1l-3-1 2-1c3-1 4-3 2-3-1 0-1-2 1-10 0-3 0-3-6-2-4 0-6 1-6 3l-6 15-14 28v2h1l3-2 2-1 2-1 2-1-2-1h-3c-2-1-1-1 7-1l8 1c2 2 1 3-2 2l-3 1 3 1c3 0 5 1 5 3l3 2c3 0 3 0 2-2h-2l-1-2c-1-1 1-3 3-2 1 1 1 0 1-1 0-2 2-3 2 0l2-2c2-4 4-6 4-4l1 2 1-2a2 2 0 013-2h3l3 1c0 1 1 2 3 2 4 1 5 0 3-1l-2-2-3-3c-4-1-5-3-2-3l3-1c1-2 7 0 11 3 2 2 2 2 0 3-2 0-3 2 0 2l1-1h2c2 2 1 4-3 4-3-1-4 0-5 1v2l1-1c0-2 6-1 6 1s6-5 6-6l2-4c3-4 2-5-1-5s-5-2-2-2v-1l-2-1h9l3-2 2-4 2-3 3-4c3-3 4-9 2-9s-1-3 1-5c1-1 3-2 4-1 3 0 5-2 9-10 3-6 3-6 1-6l-11-2 2-1h11c5 0 7-4 3-4h-15c-3 2-4 2-5 0l-5-2-7-1-3 1c1 2-1 1-3 0-1-2-3-2-6 0m-234 3v1l-1 1c-2-2-3 0-2 2 2 2 8 1 12-1 3-2 3-5-1-3h-8m300 1l-2 1c-3 0-3 1-1 2 3 1 10 1 14-1l3-1-3-1c-6-2-10-2-11 0m-319 1l-8 2h-3c-2 0-2 0-1 2s1 2 3 1c2-2 9-4 13-4l4 2c2 2 5 3 5 0 2-3-3-4-13-3m132 2l-15 2-11 1h-42c-1-2-12-2-12-1l2 1c2 0 1 2-1 2h-3l-3 2c-2 1-3 2-4 1s-2-1-4 1-2 3-1 3l3 1c0 2 4 2 6 0 2-1 8 0 10 2l6 1a2 2 0 014 2v1c-1 1-1 1 1 1 2 1 2 7 0 7s-2 0-1 2c2 1 3 2 5 1 5 0 6-2 3-3l-2-1h5c3 1 7-1 5-2l1-1 2 1c-1 1 1 1 4 1h5l-3 3-6 2c-3-1-9 4-8 6 2 1 17 1 19-1 4-4 15-7 18-5 1 1 9-1 11-3l4-2v1c-2 0-2 0-1 1 3 2 5-1 2-5l-2-4 2-1c3-2 5-2 8-1l3 2 3 3c2 1 3 2 4 1 2 0 2 0 1-1v-2l3 1h8l6-1 9-2h-4c-4 0-4 0-3-2h-1c-3 4-9 3-9 0 0-2 1-2 2-2l3-2-14-2a6 6 0 01-6-1v1l-4 1h-4l2-2 4-2 1-1 1-1v1l12-1 4-1c3 0 2-1-2-1l-4-1h-2l2 1 2 1-3 1-2-2c0-2-9-1-12 1-2 3-2 3-5 1-4-2-2-3 4-3 2 0 2 0 1-1l-2-1-5 1m217 1c1 1 1 1-1 1-1-1-2 0-3 1v2l1 1h-5c-3 0-3 0-1 1s1 1-3 1h-10c-2 2-2 2 1 2l4 1 9-2h8a5 5 0 000-8m-129 7h-3c-2 0-3 0-3 3l-2 6 2 1 4-1c3-1 3-1 3-5 0-5 0-6-1-4m-212 1l1 1c2 0 1 3-2 5l-2 1 1 1c-1 1 0 1 2 1s3 0 3 2l1 2 1-1 2-2c1-1 1-1-1-1s-2-3 0-6l1-2c-1-2-6-2-7-1m370 3l-3 2c-8-1-10 1-2 3 6 1 7 1 7-4 1-5 0-5-2-1m-39 1c-1 2-4 2-7 1l-5-1c-2 0-1 1 5 2l9 3 3 1h2c1 2 3 1 3 0 0-3 7-3 8-1h2a8 8 0 015-5h-9l-6 1-6-2-4 1m-343 3v2c0 4-3 6-5 3h-1l2 3c0 1 1 2 3 2l4 2 2 2 1-3 3-3c1-1 0-4-2-4-1 1-1 0-1-1 1-3-2-5-6-3m547 5c-3 6-3 6 2 6 3 1 3 1 4-1 2-4 0-6-3-4-2 1-2 1-2-1s0-2 4-1l4-1-1-2v-1c1-1 0-1-3-1-4 0-4 0-5 6m-6 7l3 3c1 2 1 2-1 2s-3 2-1 3c1 1 7-2 8-4 0-2-3-4-5-3l-2-1a1 1 0 10-2 0m-358 4c-1 1-3 2-5 1-2 0-3 0-3 3-1 4 0 6 2 4 1-2 5-2 4 0v1c2 0 3-3 1-3-3-1 0-2 6-1 7 1 9 0 9-3h-14 2l2-1c0-3-3-3-4-1m85 4l-4 4c-5 3-5 3 1 2l3-1h2c3 2 4-2 1-4l-3-1m-102 3l-4 1-5 2-2 1h-4c-2 1-2 1 0 2 3 1 3 3 0 3l-2 1h10l-2-1c-5 0-2-3 4-3 5-1 8-3 7-6 0-1-2-2-2 0m360 9l3 4 3 2v1c-4 4-2 4 2 1 3-3 4-5 1-5-1 0-2 0-3-2 0-1-1-2-2-1h-2l-3-2 1 2m-252 1h2l1 1 2 1 2 2c0 1 0 2-1 1h-2l-5-1c-2-1-2-1-3 1l-2 3-1 1-5 10c-6 9-6 11-1 8v-3h-1l2-2 1-2 1-2 1 1h1v-2c-2 0 1-4 3-4l4 2h3v1c-1 2-1 2 1 1s2 5 0 7c-2 0-2 1-1 1l-1 1c-2 1-1 2 3 2l3 2-2 1h-3c-2-1-2-1-3 1l-3 3-1 2c1 2 0 3-3 5l-5 4-3 1 2 3c3 3 4 3 5 2 1-3 2-2 2 1 0 2 0 3 1 2l2-1 4-2 2-2 2-1c2-1 2-1 0 2l-2 4 1-1 2-1v1c-2 5 3-3 10-13 7-11 7-11 5-11-1 0-2-1-2-3 0-3-5-14-7-15-2 0-3-2-3-6v-6h-8m-198 6l-3 1-3 1 3 3c2 2 3 3 2 4h1l2-1 4-3 3-3-4 1h-4v-4l-1 1m475 7v2c1 1 1 1-1 1l-2-1v4l3 1c2 0 2 0 1-1v-2l3 2c3 2 4 1 4-2s-1-3-3-3l-3-1h-2m-411 1l-3 1-4 2-2 2 2-1h5c4 1 10 1 11-1h-3c-3 0-4 0-3-2l-1-2-2 1m375 4l-1 1c-1-1-3 0-4 1-3 1-3 1-3-1l-2 3c-1 4-3 6-2 2 0-2 0-2-2 0s-2 4 2 4l4 1h5c4-1 4-1 3-4 0-2 0-3 2-4l2-3c-1-2-4-2-4 0m-408 2v3s-7 3-8 2c-1 0 1-2 4-2l2-1-3-1-4 1v1l-2 1-5 1-3 2c-2 0-2 0-1 1 2 0 3 2 1 2l-3-1h-2c0 2-2 3-2 1-1-2-2-1-2 2l-4 8c-2 1 0 4 2 3l5-1 3-1 2-1h1c-2-2-2-3 0-3l1 1h2v-1l-1-2-2-1-3-1 2-1h4l6-2 5-2c1-2 5 2 4 4l5 1 3-1c-1-1 0-2 2-2h1v-2h-1l-2-1-2-2-1 2v1l-2-2-1-1c-2 0-1-1 1-2 2 0 2-1 1-2-2-2-2-2-3-1m209 3l-8 2c-3 0-5 3-5 5s0 2-2 1-7 5-15 19c-3 6-3 6-1 5 3-2 3-2 3 1l2 2 1 1-4 1h-4l1 1c1-1 1 0 1 1s-1 2-2 1c-2 0-2 0 0 1l3-1h2c0 1 1 2 2 1h4v-2c0-2 0-2 3-2 3 1 4 2 2 2h1l4 1h3l1-1v-2l-7-1c-3-1-4-4-2-7 2-1 2-1 3 1h1l1-2 1 1 2 1c1-1 2 2 0 3a1 1 0 001 1l2 1c0 2 2 2 2 0l2-1a18 18 0 019-9l-1-3c-5-8 1-15 8-12 5 3 5-2 1-8-5-6-6-6-15-2m-132 16l-4 2-4 1c-1 1-1 1 1 1 3-1 3 0 2 1 0 2 0 2 1 1h2l2 2 2 1 7-1 3-1c2 0 7-4 6-5l-5 2-7 2c-2 0-4-3-2-4v-2h-2l-1-1c-1-1-1-1-1 1m-154 3l-6 1c-3 0-4 0-3 1 3 1 2 2-2 2l-3 1v3c-1 3-1 3 2 3l5-1h4l4-2-3-1h-3l2-2 3-3 4-3c0-1-2-1-4 1m80-1l-2 1-2 1c0 2-5 3-5 1-1-2-1-2-4 1-2 3-4 4-4 2 1-2-1-2-3-1-2 0 1 4 4 4l1 1c0 3 4 4 10 2h15c0 2 5 1 5 0 0-2-3-3-5-3-3 1-6 0-6-1l3-1 3-2 1-2c1-1 0-1-1-1l-4-1c0-2-6-3-6-1m51 9l-11 3-7 1-3-1h-5l-3 1-2 1 3 1c2-1 3-1 3 1l-3 1-2 1c-1 1 4 2 8 2 3 0 4 2 2 3h3c2 0 4 0 3 1l-4 3c-3 3-10 5-14 4-2 0-2 0-1 1 2 1 0 3-3 3l-10 3-8 2c0 1 9 0 15-2l3 1-2 1v1l4 1c3 0 3 0 3 2-1 2 3 3 4 1s3 0 2 1l3 1c3 0 3 0 2-1s-1-1 2-1l4-2c0-2 1-3 2-3v3c-2 1-1 2 3 1 3 0 5-2 6-3l3-2c3 2 5 0 2-2l-2-2h2c2 1 2 0 2-1-1-1 2-4 4-4l2-1c0-1 1-1 1 1v2h-1c0 3 2 3 6 0 3-2 5-3 6-2h5l3-1-2 3-2 1c-1 1-1 1 3 1a5 5 0 015 1v-2h1l4-1c1-1 1-1-1-1-3 0-7-2-4-2l1-2c0-1 0-2 2-2s2-1 2-3l1-2 3 1v1c-1 1 0 1 1 1 4 0 3-2-2-5l-4-3-2 2-2 2h-2c-1 2-2 2-2 1h-2l-1-1 1-1 3-2c1-2 1-2-1-1-1 1-2 2-3 1h-1l-4 1-7 3-6 3c-2 1-4-1-2-2v-2c-2-1 0-2 5-1l4-1v-3c1-2-2-4-5-3h-5c-1 0-2 0-2-2s-1-2-4 0M0 317c0 108 1 152 1 98a44546 44546 0 00-1-98m346-190l-5 2-3 1v1c0 2 7 1 7 0 0-2 4-3 5-2l-1 3c-4 2 0 4 4 2l6-1c5-1 6-2 6-4s0-2-1-1-6 3-10 3c-3 1-4-3-1-4h-7m-56 5c-1 2-3 3-4 2l-1 1-1 2-2 1 5-1 3-1c3 0 8-2 8-3h-2l-2-1c0-3-3-2-4 0m190 2l1 3 6 19-4 3c-3 2-3 2-3 7l1 5v8l3-4 4-8 3-10 1-8-2-8-1-5-1 2c-2 4-2 4-5-1l-3-3m-299 3l-6 4h3l3-1-1 2-1 1h3c3-1 3-2 1-3v-1l6-1c0-2-4-2-8-1m184 0l-7 2-7 3-5 1-4 1c0 1 2 1 12-1l5 1h1c1-1 3-2 4-1 2 0 2 0 1 2-2 0-2 1-1 1h3l3-1h5v3l1-1h2c1 0 2 0 2-2 1-2 0-2-2-1h-2l-1-2a7 7 0 00-8 0l-2-1v-1l2-2c1-2 1-2-2-1m315 1l-1 4v2l-1 1-1 1v-3l-1-2v8c-1 1 0 2 5 5 5 2 8 6 9 9 1 2 1 2 1 0l1-3c1-1 0-1-2-2l-3-3v-2l-1-1-2-1-4-1h-2v-2h2c1 0 2-4 1-6v-1l4-2c1-2 1-2-1-2l-4 1m-536 5h-3l-2 1-1 2-1-2-2 1c-2 2-3 3-4 2l-2-2h-4c-3-1-3 1 0 3l2 2-2 2-2 2 5-1 4-1c3 1 4 0 5-2l4-3h1c0-2 3-3 6-2 3 0 5-1 2-2h-6m59 4l-4 2c-4 0-4 1 0 3h7a2 2 0 101-3c-2 0-1-2 1-2 3-1 3-3 0-3l-5 3m132-2c2 2 2 2 0 2-3 1-3 1-2 3 0 2 0 2-2 1-3-2-5-1-5 2 1 2 3 2 6 0l3-1h2l1-2v2l-4 2-1 1 2 1a1 1 0 110 2v1h3l3-2 2-1-2-1c-2 1-3 1-3-1l4-1h8l1-1-2-1-4-1c-3 0-4-1-3-2 0-2 0-2-2-2l-2-1-3-1v1m23 3l-3 1 11 3c1-1 2 0 2 1a2 2 0 102-4l-5 2-3-1 1-1v-1h-5m-52 2l-3 1h-3c-4 1 0 4 4 3l2 1-2 1c-2 0-4 3-3 3l6-2 7-3 4-1h5c2-3-14-5-17-3m-192 4c1 1 0 2-1 3v3l-1 1-2 1c0 1 3 1 6-1 1-2 2-3 1-4 0-2 0-2 2-2 3 0 4-2 2-2-6-1-7-1-7 1m178 3c-2 2-2 2 0 2 1 1 0 1-3 1-5 1-4 4 2 4 3 1 9-1 9-3l-4-3h-2c-1-1-1-1 1-1 4 0 5-2 1-2-2-1-3 0-4 2m153 2c-4 3-5 5-4 5l1 3c-1 2 0 3 1 0a1 1 0 112 1l-1 3c-1 2-1 2-7 1l-5 1v2h-2l2 1c7 0 4 4-3 4-3 0-8 4-10 8-1 2-1 2 1 1l2 1v2l7-1a1 1 0 111 2c-1 0-2 1-2 3-1 2-11 9-13 8l-10 6 1 3v1c-2 1 0 4 2 4 3 0 4 1 3 2-1 2 3 6 5 5h1l1 1h3l-1 1c-2 0-4 4-4 7l-1 2a7 7 0 00-1 12 41 41 0 0012-13l4-3c2-3 2-3-3-6l-3-2 3 1 5 1c1-1 2 0 2 1-1 2 1 1 6-5 4-4 5-6 4-6v-1c1 0 4-1 6-4l5-4h-6c-5 1-7 0-8-1v-1l1-2c0-3 2-3 4-2h4c4-1 3-3-1-2l-3-1 2-1 1-2c-1-1 0-2 1-3 2 0 3-1 3-2h1l1-5c0-4 0-4-1-2l-1 3-1-3c-1-2-1-2-1 1 0 2-2 3-3 1l-1-4c0-2 0-2 2-3l2-1 1-1c2 1 2-8 1-13l-2-6c0-4-1-4-6 2m-163 1h-2l-3 1-6 1c-5 0-3 2 2 2 3 0 4 2 2 2-3 0-2 2 1 3l5-1c1-2 1-2-1-1-5 1-4-3 1-4 4-2 6-4 4-4l-3 1m-105 2l-4 2c-1-1-9 1-8 3h-3l-2-2a1 1 0 10-2 1v2c-1 3 1 4 3 3h3l5 1 3-2c4-2 4-2 3 0 0 2 0 2 2 0l1-4 2-4c3-3 0-3-3 0m-60 0l1 1 1 1-3 1c-1 0-2 0-1 1l-1 2c-1 0-2-1-1-2h-1c-1 1-3 2-5 1-2 0-2 0-1 1s17 2 20 0l3-1-4-1c-3 0-4-2-2-2v-1h-2l-2-1a1 1 0 00-2 0m213 5c3 0 5 3 2 3l1 1c3 1 3 2 1 2v2c2 1 4 0 4-2-1-1 0-2 1-2 3 0 6-2 5-3 0-2-2-2-8-2-5 0-7 0-6 1m-31 2c-3 1-4 3-1 3l2 1 6 1c5 0 6 0 5 2v1l1 1-4 1c-3 0-6 2-6 4 0 1 5 2 7 1l6-2c4 0 5 0 4-2v-2c1 0 0-2-3-3-2-1-2-3 1-3 2 0 1-2-2-3h-16m-110 2v6l2-2 7-1 7-1-7-1-6-1h-3m99 2c3 1 3 3-1 2-2 0-2 0-2 2l-4 1c-4 0-4 0-4 2s1 2 11 0h6l3-2 2-2-2-2a10 10 0 00-9-1m-22 4v2l-1 1c-2-1-2-1-1 1 0 2 0 2-2 2s-2 0-1 1l14-3c2-2 1-3-2-3l-4-1h-3m246 3l-2 6c-1 4-1 6 1 10l1 2 2-2v-5l1-5c1-2 1-9-1-9l-2 3m-378 2l-2 1-3 1c-6 0-9 1-12 3-3 3-4 4-4 1-1-1-1-1-1 1l-2 3-1 1a266 266 0 006 1h3c4-2 10-3 10-2l-4 1c-4 1-8 3-8 5 0 1 4 1 11-2l6-1c3 2-3 6-10 6l-5 2-9 3-3-2c-2-2-5-3-8 0l-3 1c-1-1-7 0-7 1s-1 2-2 1l-2 1c1 1 0 1-1 1l-4 2c-1 2-2 2-3 1l-3-2v-1h4c4 0 4-2 0-3-6-3-16 0-13 3h1l3-2 4-1-1 5c0 5 1 6 5 5h6l-1 1c-2-1-6 4-6 6s8 9 11 8h4v-1c-2-1-2-1 1-1 3-1 5-2 6-4l-1-1-2-1c-2-2 3-1 7 1l4 2v-2l4-2 3-1c0-2 5-6 8-6l5-2 5-2c4 0 5-1 3-2-1-2-2-2-6-1l-5-1 4-2h8c5-1 6-1 7 1 0 1 3 2 3 0l-2-2-1-3 2 1c1 2 3 3 3 1l-2-3v-2l-3-1-3-1v-1l1-1c-1-1 5-2 6-2l3-3a9 9 0 00-7-6c-1-1-5-2-7-1m248 1l-3 2c-2 4-6 6-8 5-2-2-7-2-8 1-1 1-2 2-8 2l-9 1c0 2-4 3-7 3-3-1-7 1-6 4 0 2 1 2 5 1h16c3-1 4-1 4 1a2 2 0 103-1c0-2 2-3 2-1h2a7 7 0 018 1v-2c-1-1-2-2-3-1-1 0-3-2-2-3l5-1c4 0 9-2 11-5l3-2 2-1 4-1c4 1 4 1-1-2-3-2-5-2-10-1m197 4c-4 12-3 16 3 15h4v-9c-1-7-1-9-3-10-2-2-3-1-4 4m-24-3l4 6c4 6 4 6 0 9-4 4-5 10-2 9l6-2a5 5 0 004-4c1-1-11-19-12-19v1m-289 14l-5 5h-8l-10-2-4-2-3-1c-1-2-5 0-5 2l-3 2c-2 0-2 1-2 3l-1 3-10 9-4 4c-3 3-4 4-9 5-7 1-10 5-5 6 2 1 2 1 0 1s-2 0-2 2v2c-1 1-1 1 1 1l3-1c0-2 2-3 4-3v3l2 3 2-1c-1-1 3-6 5-6l2 2c2 2 3 1 3-1-1-2 0-2 1-2 3 2 4 0 2-2v-3c1-1 3 1 3 3l2 1h3c-2-1-2-1 0-2l3-3c0-2 0-3 1-2h2l1 2c0 2 2 4 3 2l-1-1c-3-1-1-2 3-2 5 1 8 0 7-1h1l2-1 9-2c7 0 8 0 7-2v-2h2c2 3 7 2 8 0l3-3 4 2c4 1 2-4-2-6-7-3-6-4 3-6 14-2 11-5-3-5l-5-1 1-1c3 1 4-1 2-2-5-3-8-2-13 3m259-4l-4 2c-5 0-9 10-5 12h-1l-4 1 8 4 2 2h1l3-1c2 0 2 0 2-7v-12c0-2-1-2-2-1m-467 5c-4 1-4 2-1 4 2 2 2 2 4 1l3-1c2 0 1-2 0-4h-6m117 0l-2 3c-1 1-2 2-4 1l-3 1c0 2-5 3-8 2-2-1-3-2-4-1l3 2 3 1h2l3 1c1 2 8 0 8-2l2-1c3 1 5-1 2-3v-1l2-2c0-2 0-2-4-1m442 3l-2 8c-2 6-2 6 0 6v1c-2 3-2 9-1 8l1-3 2-1c3 0 3-4 2-9l-1-6v-4c-1-2-1-2-1 0m-147 4c-3 3-3 3-1 2 4 0 5 2 2 4h-2l-3-1h-1c2 0 1-2-1-2h-1c1-1 0-2-1-1l-1 1-2 1c-2-1-19 17-18 19h-1l-3 1c-3 4-3 5 0 4 4-2 13-8 13-10h-3c0-1 7-5 8-4l-1 2-1 1h2c2-1 3-2 3-4s3-4 6-3c3 0 11-5 10-6l-1-4v-2l-3 2m-165-1c-3 1 1 4 5 4l6-2v-1c1-1 1-1-1-1a428 428 0 01-10 0m21 5l-2 1h-7l2 2v2l-1 2 2-1h3c5 0 8-2 6-4-2 0-2-1-2-2l2 1 3 1c2 0 3 3 2 4l-2 1c-2 0-4 3-3 4a7 7 0 007-6l7-4-1-1h-8c-2-3-5-3-8 0m255-2c-2 2-2 2 3 9l5 8-1-8-1-9h-6m-13 3l-9 2c-8 1-7 1-7 4-1 2-1 3 3 5 3 2 4 4 4 5v1c1-1 2-1 2 1h3c1-1 6 0 9 2 1 1 1 0 2-2l2-3a425 425 0 006-1c1 0-1-4-8-13-1-2-3-2-7-1m-400 3l-6 1h-9c-2 1 2 1 7 1 2 0 0 2-5 3-3 2-3 2 0 2l4 2c1 1 2 2 3 1 2 0 2 0 1-2-3-1-2-2 1-2l2-1c-1-1 4-2 5-1 2 2 3 1 3-2-1-3-6-5-6-2m489 0l-3 1-3 1c0 2-1 2-2 2s-2 1-2 3c0 3 1 3 3 3 3 0 3 0 2-1-2-1-1-1 2-1l4-1v-2l1 1h1c0-3-3-8-3-6m-166 13l-5 5c-2 0-1 2 2 2s4-2 7-7c3-6 1-6-4 0m-310-2l-5 4c-2 2-3 4 0 3l1 1c-1 1 0 1 1 1l2-1h1l2-1 6-2c4-2 4-2 3-3-2-1-3-2-5-1l-3-1c0-3-2-2-3 0m274 3l-8 5-4 3c-2 0-5 3-4 4h-1c-2-1-6 2-5 3l-2 3c-1 1-1 1 1 1 1-1 1-1 0 0h-3c-4-2-12 3-14 10-1 3 0 5 1 5 4 0 4 2 2 5-2 4-3 5-1 4l2 2c0 2 1 2 3 2l3 1c0 1 2 1 5-1 5-2 6-1 4 2l-1 3-1 1c-1 1 0 5 2 6 2 0 2 1 1 3v5l6 4 3 4 3 3 3-3 2-3 4-8c4-7 5-8 3-8l-2-1-4-2c-6-1-9-5-3-4a2 2 0 102-4l-2-1 1-1c2 1 3 0 1-2v-1c1-1 1-1-1-1l-4 2-4 2-3 1c-1 2-2 2-3 2l1-3c2-1 2-1 1-3-3-2-2-4 1-4l9-3h-8c-1-1-1-1 2-2s5-2 6-5c2-4 2-4 3-2l1 2v-2l1-6v-9l1-3 1-1 4-5c3-4 2-4-5 0m191-1c-1 5 0 15 1 12 0-2 1-2 2-2 2 0 2-4 0-5-2 0-2 0 0-3 1-2 1-4-1-4l-2 2m-539 1l-5 3-4 2h-3v1h8l1-1c-1-1 0-1 3-1l6-1c2-2 3-2 3-1l2 1c2 0 2 0 2 2a1 1 0 102 1v-2l-1-1-3-3-2-1h-3c-2-1-4 0-6 1m185-1l1 1v2c-2 1 0 3 4 2h9l6-2-3-1-3-1-6-1h-8m-163 1l-1 2-2 1c-2 3-2 4 0 2l2-1 5-2a1 1 0 112 1l1 1 3-1c2 0-4-3-7-3h-3m485 0v4c-2 0-3 4-3 9 0 2 0 2 1 0l1-3v3l1 4-1 2c-2 2-2 2-1 0h-1c-2 1-3 4-1 4h2l2-1c1 1 8-2 8-4 0-3-2-5-4-3-3 1-3 1-3-1s1-3 2-2l1-1 1-1c1 0 2-1 2-4s0-4-1-3-1 1-1-1c-1-3-3-3-5-2m-465 2l-4 1h-1l-2 1-2 1-2 1c-2 0-10 5-7 5l1-1 2-1c3 0 11-2 12-4l3-1c2 0 3-1 3-2 0-2-1-2-3 0m-83 2c-2 1 2 6 5 6 4 1 8 0 6-1-1-1-1-2 1-3 1-2 1-2-3-2h-9m521 0l-1 4c-2 3-2 3-6 3h-2c0 2-1 1-3 0-1-2-2-2-3-1-3 2-7 1-9-1l-3-3-2-1c-2-3-5-1-4 3 1 7 2 9 4 6 3-2 12-2 13 0l-1 1c-2 0-3 2-1 2v2c-1 1-1 1 1 4s2 3 2 1 1-3 2-3h1c-1 2 2 3 4 2 1-1 2 0 4 1h4c2-1 4-4 2-4l-10-5 2 1c2 1 4 1 4-1l3-3c4-1 4-1 4 2l1 3 1 2c2 2 0-7-2-11-2-3-5-6-5-4m-462 4l-7 1c-6 0-8 0-7 2 0 2-6 2-8 0-1-2-1-2-5 0l-6 2c-2 0-1 1 1 4l4 3c2 3 11 3 14 0l4-2 4-2h-1l-4-1c-2-2-2-2 1-2l5-1 3-1 5 2c2 0 2 0 1-1v-3c0-2-2-3-4-1m44 2c-2 2-4 3-4 1h-2l-3 3-1 1h14l1-3c0-5-3-5-5-2m327 0h-1c-1 0-5 5-5 7s4-2 4-4l1 1c1 2 6 3 6 1l-3-1c-2 0-2 0-1-1h3c2 1 1-1-1-3h-3m-411 6c-9 5-13 11-9 14l1 3h2c1-1 1-1-1-2l-2-3h1c1 2 1 2 3 1 1-1 1-1 1 1l1 2 1-2c-1-2-1-2 2-2 3 1 8-1 8-2l-3-2-2-1h3c4 0 4-1 0-5-3-3-3-3-6-2m156 0l-5 1c-14 0-16 1-16 8l-1 2h4c2 0 2 0 1-2 0-2 0-2 3-2 2 1 3 1 5-1 1-2 3-2 6-1 5 0 10-3 8-5h-5m-104 2c-8 1-12 4-10 7l21-3c4-2 3-3-1-3a6 6 0 01-6-2l-4 1m53 1c-3 2-6 2-4 0l-2-1-3 1 2 1 1 1-10 3-4 2-8 2h-6l-3-1h-9c-2 1-2 2-1 2 1 1 1 2-1 3-1 1-1 1 1 1s5 3 5 5c-1 2 1 2 2 1 1-2 2-2 4-2l1-2c0-1 1-2 4-2 4-1 5 0 3 1l-2 4c0 1-1 2-3 2h-4l-5 1c-5-1-14 2-14 5 0 1 9 1 10-1 0-2 3-1 3 0 0 3 18 2 23-1l8-3 8-2c3-1 6-2 7-1v-1c-2-1 0-2 2-1a34 34 0 0020-12v-1h-1c-1 1-2 0-4-1-5-5-16-6-20-3m58 6l-1 4c-1 1-1 1 4 2 2 1 6-1 7-2h1c1 2 3 2 3 1s1-2 4-2c5-1 6-2 2-3l-1-1-5-2-4 2-2-1c-2-2-7-1-8 2m-137 11c0 1 1 3 10 12 3 3 5 3 3-1-1-2-1-2 7-5 5-2 2-4-5-4-3 1-4 0-1-2h-3l-5-1c-1-2-5-1-6 1m-7 2l-2 2c-2-1-6 1-7 3l-2 2v-1c2-1-1-3-4-2l-5 2-2 1 3 1c2 1 2 2 2 7 0 6 1 7 6 4l4-2 7-2 7-1 1-1c0-1 6-1 9 1l-1-2-3-4-5-5-5-4h-1c1-3-1-2-2 1m373 0l-4 6-8 14c-7 11-7 12-6 14 1 3 1 4-2 6s-4 6-2 5h5c4 1 7-1 7-4 0-2 3-4 5-4v2h2c2-2 3-2 4-1h2l1 3-1 3-1-2-1-2-1 3v3c-1 0-1 1 1 3l2 1 1 2c0 5 2 6 7 4 6-1 9 0 4 2-5 1-5 3-1 4l4 1 4-3 5-4 4-2 5-2c3 0 12-6 11-7h-5c0-2 2-4 5-4s2-3-2-4c-4-2-5-2-5 0a2 2 0 11-3-2c3-2 3-6-1-8-2-1-6 0-4 1l1 3h-7l-2-2c-2 1-3 0-2-2 1-3 9-6 12-4h1c0-1 1-1 1 1h1l1-2c1 1 2 0 1-1l-1-1-2 1v-1l1-2c-1-1 0-1 1-1l2-2c0-2 0-2-5 0h-5l-3-1c-3 0-6-2-6-4h-1l-2-1-4-1-2-1-2 1-3 4c-2 0-6 8-6 11l-1 3v3l3-4 9-12c2 0 1 5 0 6-2 0-6 7-10 12 0 2-2 3-2 3l-10 3h-5c-2-1-2-5 0-4l2-2v-1h-2l1-1c1 1 6-3 6-5l-3-1c-2 0-2 0 0-2 1-2 2-2 2-1l1 2c1 0 2-1 1-2 0-2 2-3 3-1l2-1 2-4 3-2-3-1c-4 0-4-3-1-3l3-1 2 1-1 1h-1a4 4 0 103-8l-3-1c0-2-1-1-2 0m-310 11l-6 1a1 1 0 100 1l1 2c-1 1-2 2-6 2-6 0-11 4-11 7 0 2 1 2 7 2 8-1 10-2 10-7 0-2 1-3 3-3l3-2c1-2 3-1 2 1 0 4 2 5 7 4 14-4 18-5 16-7-1-1-21-2-26-1m104 1l-4 1c-8 0-14 10-6 10 3 0 3 0 3-2-1-2 1-3 5-3s4-1 3-5l-1-1m-50 2l-3 1-5 1c-3 0-4 0-4 2l-1 1c-1 0-2 1-2 4l-1 5-1 2h-1a1 1 0 10-1 2v1c-1 1-2 2-1 3 0 2 2 3 2 1h2c3 0 5-2 5-6 0-2 2-5 4-5v3l1 3a6 6 0 008-3c0-1 1-1 0 0l1 1 2-2c2-3-1-6-4-4h-4l-5-3c-3-1-3-1-1-2h21c3 0 4-1 2-3-1-2-2-2-6-2h-8m-30 5l-2 1-3 4c-4 3-4 5 0 2 2-2 3-2 7-1s5 1 5-1v-1l1 1c1 2 1 3 3 2 3 0 3-2 0-3l-2-1v-2c-2-2-5-2-9-1m-68 4c-2 1-1 2 1 2l-2 1a33 33 0 01-11 1c2 0 1 1-1 2l-11 2 8 9 6 5c5 4 5 4 9 3l7-1c5-1 8-3 9-7l2-3c3 0 3-1 1-2s-3-3 0-2l1-1h-3c-2 0-2 0-2-2 1-2-4-6-7-6l-1-1h-6m421 9c0 2 6 5 9 4l1 1h4c2-1-1-3-4-3l-5-1c-1-2-5-2-5-1m-381 5l-4 1h-2l-3 1h2v1c0 2 3 4 4 2h3c4 2 10 0 10-2 0-3-3-4-10-3m12 4c0 2-2 4-4 5l-4 2h-3c0 3 6 6 10 3h10a2 2 0 013 0c0 2 2 1 2-2 1-3 0-4-1-3-2 0-2-1-3-3a5 5 0 00-6-4c-2 0-3 0-4 2m83 1l-7 3-2 1c0 3 12 3 17 0 2-1 1-5 0-5l-2-1c0-2-2-1-6 2m-35-1c0 1 1 2 3 1l2 1c-1 1 2 3 5 2 5-1 5-1 4-2-1-2-6-2-6-1h-1c-1-2-7-3-7-1m273 2v3h-2c-3-1-6 0-6 2l6 1 8-1c2 0 3-2 1-2l-3-2c-2-3-4-3-4-1m-400 6l5 10 1-1v-3c1-2 0-3-4-6l-3-2 1 2m71 9l-1 2-2 3c-3 2-2 3 2 3s7-3 4-4h1c3 0 4-1 1-3-3-3-3-3-5-1m222 2l-3 3c0 2 2 2 4 1l5-2c3 0 4-1 2-3-2-1-5-1-8 1m-106 11l-1 1-4 2-4 2-5 4-6 3c-4 0-1-3 5-6 1 0-3-4-6-5-5-2-19 0-23 4l-2 2 2 1 6 3c4 2 8 2 13 0 2 0 2 0 2 2s1 2 2 2l7 2h14c3 0 6-4 4-5h2l3-1c0-3 2-2 3 0s-2 4-4 3c-1-1-2 1-3 3l-1 2c-2 1-7 6-7 8s1 2 4 2h4c0 2 0 2 1 0l6-2a13 13 0 009-2l2-2 4-2 3-2c1-4-12-16-19-16-2-1-4-1-4-3v-1h2c-1-1-8-1-9 1m150 1l-1 3h1l3 1c2 0 2 0 1 1s-1 1 1 1l2-1 1 1c1 4 4 3 6-1 1-4 0-5-4-4-1 1-2 1-4-1l-3-3-3 3m-284 4l1 1 5 3c3 3 4 4 7 3l5 1 2 1 1-2 1 2c0 2 2 1 3-1 2-3 3-2 1 1-1 2 0 5 2 5l3-2 1-2 1-2 1-2 1-1h-5l1-1 3-1c1-2-3-3-7-2h-19c-7-2-8-2-8-1m209 1c1 1 0 3-2 4-4 2-3 3 2 5 5 1 6 1 7-1l2-3v-1c-2-1-3-1-3 1 1 1 0 1-1 1l-2-1 1-1 1-1-1-1c-2 1-3-2-2-2v-1l-2 1m-222 7l-3 1-4 2-2 1-1-1c0-3-1-2-4 1-3 2-4 5-1 4 4-2 7-2 10-1 4 2 5 4 3 4-3-1-2 1 0 3l2 1 5 2 2 1-2 2c0 2 1 2 9 1 2-1 3 0 2 1 0 2 0 2 2 1 1-1 2-2 1-3 0-1 0-2 2-2l-3-4c-10-10-10-9-15-7a4 4 0 01-2-8l-1 1m307 3c-4 0-4 5-1 8v1c-3 0-2 1 0 3 1 1 2 1 4-1 2-1 3-2 4-1h3l1 1c-1 2 1 2 7 0l5-2c0-2-3-4-4-3l-2-2v-2l-13-2h-4m-45 4c-2 2-2 2 0 3 5 2 9 1 9-3 0-3-6-3-9 0m-88 5c0 1-1 2-4 2s-5 1-5 5l-2 3c-3 2-4 6-1 7l3 2 3 1c2 0 4 2 2 2v1c3 2 10 2 11 0h6c5 1 19 0 22-1 2 0 4 0 7 2 6 2 8 2 8 0l1-4c2-3-2-10-6-11l-5-3c-4-3-10-6-15-6l-5-1c-1-2-9-1-10 0-1 2-2 2-4 0-4-1-5-1-6 1m-85 9h-12a23 23 0 00-12 2l-3 3-4 2-3 1 2 1 1 1 5 5 7 7 5 3 2 2a23 23 0 0011 10h1c1-1 0-2-1-3-3-1-1-4 2-3l2-1-2-1c-3 0-6-2-5-4l-1-2v-2c0-2 0-2-2-2l-2-2-4-1h-4c0-2 6-1 11 1l6 1c2 0 3 1 3 2l1 1c1 0 3-4 2-5l4-3c5-2 8-5 6-8v-3c3-2-9-3-16-2m3 5c-2 1-2 4 1 6 2 2 3 1 3-1l1-2c2 0 3-3 2-3h-7m180 14c-4 5-5 7-4 9 4 3 20 0 21-3 1-6-13-11-17-6m-153 1c-4 0-5 2-1 3a3 3 0 013 4c0 3 7 7 11 5l3-1-3-1-6-2h-2c0-2 4-4 7-4l4-1h1c-1 2-1 2 1 2h4l1 2a2 2 0 105 1c-1-2 2-2 2 0 1 2 2 2 4 1 3 0 3 0 1 1-3 1-4 4-1 4l2 1-6 1c-5 0-6 0-7 2s-1 2 4 2c6-1 6-1 5 1 0 3 4 5 6 3a7 7 0 000-9c0-2 2-1 3 2 0 2 3 4 7 4 3 0 4 1 5 4 0 4 1 3 1 0l3-3c2 0 1-2-2-2l-4-3h-4c1-1 3-2 5-1 5 0 9-1 6-3-4-2-9-2-9-1l-2 2c-2 0-2 0-2-2 1-2 0-3-3-4l-10-5c-6-4-12-5-16-3-2 2-8 2-9 1l-1-2-6 1m40 3l-2 1 11 3 2 1c1 2 3 0 2-1l-2-1c-4 0-5 0-3-1h5l4-1-3-1h-14m187 9c-4 2-3 4 2 3h8c3 0 6-2 3-2l-3-1-5-1c-2-1-2-1-5 1m-87 4c-1 2-1 2 1 2s2 0 1 2c-1 3 0 5 3 3h1c0 1 4 1 6-1 2-1 2-4-1-4l-4-2c-3-3-6-3-7 0m-240 3c-8 5-7 4-7 7 1 2 2 2 4 1 7-1 12-4 10-6v-2c5-5 1-6-7 0m-21 0c-2 0-2 1-2 4 1 4 2 5 3 3h1l5-6c0-1-5-2-7-1m320 2l-3 4-1 4c-2 2-1 4 2 4l2 1-4 1c-4 0-5 0-8 3l-4 3-1 3c0 2 1 3 2 3l1 1 3 1c3 0 4 1 5 3 1 1 1 1 1-1s2-3 2 0c0 1 2 2 2 0l2-1 1 3 10-9 5-3c3-1-4-11-9-13l-3-4c-1-6-1-6-5-3m-139 8c-6 1-5 4 1 4 6-1 8-2 7-4h-8m35 0a12 12 0 00-8 2h4c7 0 8 1 2 2-8 2-5 11 4 11l1 1 1 1 1-2c0-2 0-2 3-1l2-1c0-2 3-3 12-4 5 0 11-4 11-6s-3-1-5 1c-2 1-5 1-3-1 0-1-2-2-5-1h-3l-2-1-2-1-4-1-9 1m277 3l-1 1-1 2 4 1c5 0 4 3-1 3-5 1-7 0-7-1l1-1c1 1 2 0 1-1h-3c-2 2 1 5 5 5l2 1c0 3 7 1 11-3l3-2 3 1c4 0-4-5-10-6h-7m-302 3h-2l-2 1-3 1c-3 1-3 2 0 4l1 1c-2 0-1 2 2 3 6 2 11 2 13-1l4-2c2 1 4-1 2-2l-2-1c0-3-1-5-3-4l-6-1c-3-1-4 0-4 1m-59 2h-4c-1-2-7 0-10 2-2 2-2 2 0 3l3 2v1l2 2 2-1c0-2 3-1 4 1v5c1 1 8 0 7-2l2-2 3-2c0-2 6-1 7 1l2 3 1-3 1-2-2-4c-2-4-3-4-6-4-2 1-5 0-6-1-2-1-4-1-6 1m-52 9l-3 1-1 4v4c1 1 1 2-1 4l-3 3 2-1h2c0 2 2 1 2-1h2c3 2 4 0 1-2-2-1-2-2-1-3l1-1c0-2 3-4 5-5 1-1-1-4-3-4l-3 1m312 0l-6 1c-3 1-7 3-7 5l9 1 15 2 15 2c2-7 2-10 1-11h-8c-1 2-2 2-3 1h-6c-1-2-7-2-10-1m-18 11l-4 2c-3 2-3 6 0 4l2 2c1 2 6 3 8 1 1-2 0-5-1-5l-2-2c-1-3-3-4-3-2m-359 1h-3l-1 1c-1 1 0 1 3 1l5 1 2 1h8l2-1-3-1-3-2h-10m176 0l-5 1-4 1-2 1c-3 0-5 2-3 3h8c1-1 8-4 9-3 3 0 3-2 1-3h-4m-46 7c0 2 2 6 5 6a4 4 0 10-4-6m133 7c-9 3 0 10 11 9 2 0 1-3-1-3-1 0-2-1-1-3 0-1 0-2-1-1l-3-1-5-1m-61 3l-5 3c0 1 1 1 4-1 4-2 11-3 11 0 1 2 0 2-2 2-3 0-4 3-2 5s6-2 7-5c0-6-6-8-13-4m17 5v1h-2l3 1c2 0 3 2 1 3-2 0-3 3-1 3l2 1 3-3c0-4 2-5 7-1l7 1c3 0-11-6-14-6a4 4 0 01-5-2l-1 2m193 0c-7 0-8 1-8 3l-4 3-4 2-4 3c-4 2-5 2-4 4 1 3 2 5 4 5l2 1c0 1 3 2 7 2l7-1c-1-1 0-2 1-3l1-2h1l1-1c0-1 7-2 10 0 2 1 2 1 2-3a12 12 0 00-1-7l-3-4c-2-3-2-3-8-2m-289 4c-4 3-4 4-1 7 6 5 14 0 9-5-3-4-4-4-8-2m208 15c-2 6 0 7 7 4 5-2 5-3 1-5s-7-1-8 1m-188 8c-8 6-7 9 2 7h11v-2l-2-2h2l-2-3c-5-5-4-5-11 0m79 1l-2 2 4 1c6 0 8-1 6-3-2-3-5-3-8 0m118 0c-3 0-2 1 0 3 3 2 11 3 12 1 1-3-7-6-12-4m-289 6c0 2 6 4 9 4h9c1-1 0-1-2-2-5-2-16-4-16-2"
      tabindex="-1" itemprop="light" style="fill-opacity: 0.715; fill-rule: evenodd;"></path>
    </symbol>
    <symbol id="-posters-1650644051626-regular">
      <path d="M444 5c-4 7-3 7-13 8-10 0-15 2-13 3 1 1 9 2 12 1h-1l-3-1c0-1 2-2 5-2 4 0 5 1 3 2v1c3 0 2 2-1 5l-2 3-5 9c-4 7-5 7-8 7-4 0-6 3-4 7 1 3 1 5-4 10l-10 16c-11 18-13 20-18 17-3-1-6 1-4 3 1 2 1 2 3 1 3-2 6 0 5 2-2 3-6 4-7 2h-4l-4 1h-4c-2-3-3-2-3 3 1 4 0 6-1 6-2 1-3 1-2-1h-1c-1 1-14 5-19 5s-5 2 1 3l2 3h6c4-1 5-2 5-3l4-3 6-2 13-2-4 7a46 46 0 00-6 10l-4 5-3 5c-5 0-5 2-1 2 5 0 5 0 9-7l5-9a11 11 0 014-5c0-2 6-9 8-10 4-1 4-1 3-3h-2c-2 1-1-3 6-13 13-21 12-20 17-20h5v6c0 5 0 6 2 7l2 1 3 5 2 8a3 3 0 003 5 213 213 0 01-18 28c0 1-10 18-12 19l-4 1-9 5c0 1 1 1 4-1 2-2 4-2 7-1a28 28 0 01-6 9c-1 1-2 2-6 2l-7 1-5 1-6 2-7 2c-5 0-6 0-4 1 4 2 1 3-6 4-7 0-12 2-7 2l3 1 3 1 2 1h-5l-6 1-2 2-5 2-3 2h4l5 1c0 1-7 2-9 1-3-1-16 4-17 6 0 3 0 3-2 2-1-2-1-2-2 0-1 3-8 8-10 6h-5c-2 1-3 1-2 2s1 1-1 1a4 4 0 00-2 5c-1 3 2 5 5 2h5l-1-4c-2-2-2-2 1-2h2l2 1v-1c-1-1-1-1 1-1l2-1c0-2 1-2 3-2l2-1h2l2 1 1-1v-1l3-1 2-2c2-1 2 0 2 1-1 2 0 1 2-1l4-2c12 0 18-1 19-4 1-2 1-2-3-1h-7 1l2-1c0-1 1-2 3-2h4c1-1 2-1 3 1 2 2 13 3 13 1l-5-1c-5 0-9-1-5-2l4-1 2 1 4 1c3-1 6-2 3-2l-2-1c0-2 8 1 9 3 1 1 2 0 5-2 4-5 11-8 14-5s8 4 9 3c1-2 2-1 1 1l-2 2c-2 0-2 1-1 1 2 1 3 0 5-2 2-3 5-4 6-2 1 0 0 2-2 3l-4 4a8 8 0 01-8 5l-1 1h-2l-2 2-5 2c-1 2-3 2-4 2h-2c0 2 5 2 6 0 5-5 8-2 4 3-3 4-7 5-7 3l1-1c2 1 6-4 6-5l-2 1-4 3-2 1c0 2 4 6 7 6l4 1c1 2 9 0 9-2l1-2 2-1v-2l-3-1c-2 0-2-1-2-2 0-3-1-2-3 0v2c3 0 4 2 3 3-2 2-6 3-6 1l-1-1c-3 1-2 0 0-3l4-4 2-2 3 2c3 3 5 3 7-1l2-2h-5c-5 1-7-1-2-2 8-2 9-2 9-4s3-1 3 2c0 2 0 3-2 3s-1 1 2 2c4 1 11-2 10-5v-1l1-1h-4c-5 0-5 0-5-2 0-5-2-6-5-4l-2 1c0-2 4-4 6-3 1 1 3 0 6-4 3-3 5-4 7-4h4l-4-1c-3-1-4-3-2-5h2l1 1 1-2c0-1 1-2 4-1h5l-2-1v-1c2-1 2-3-1-2l6-7c8-8 9-8 8-4l1 6c1 1 2 7 2 15l1 12-3 3c-2 1-2 2-1 2l2 1h2c1-1 1-1 1 3l-1 4-8 3 3 1c5 0 5 1-2 8-31 33-34 36-35 34l-3-1c-3 0 1-10 4-11 2-1 2-8 1-8-2 0-4 5-3 6l-2 2-2 1c-1 2-2-3-1-5v-9c-2-2-2-2-6-1a18 18 0 01-11 2c3 1 2 3-1 3l-4 1c-1 1-1 0-1-2 1-3 1-3-1-2l-4 2-2 3a2 2 0 01-2 2l-3-1c-3 0-4-1-2-2v-1l-2 2h-1c-1-1-2-2-4-1-5 1-3 4 3 4l3 1h-3a9 9 0 00-11 2l-1 1a28 28 0 01-19 1h-3l2 2c3 2 2 4-3 4h-2l2 1c3 2 4 3 3 5s0 3 2 1 4-2 3-1c0 2 2 3 3 2s2-1 2 1c1 2 2 2 4 2 3 0 6 3 5 5h-8c0-1 0-2-2-1-2 0-3 1-3 2 1 2-3 3-6 1l2-1 3-2h-5c-3 0-4 0-4-2h-6a18 18 0 00-8 1h-6l-1 1-3-1 2-2c1-2 1-2-1-3-2 0-2 0 2-2l5-1 4-1c3-1 8-1 8 1l-3 1c-5-1-4 1 1 2 2 0 4 0 5-2 3-2 2-4-1-4-2 0-2 0-1-1v-2l-2 2h-3c-2 0-2 0 0-3 4-3 4-5 0-5l-4 3c-2 2-5 2-4 0h-2l-2 1-2 1c-2 0-3 1-3 2h-6c-2-2-4-1-2 1v3l-1-2c-1-2-6-3-8-1-2 1-1 2 2 2l4 1 2 2 1 1h-5c-2 1-3 1-2 2 2 0 3 2 1 2l-1 2 2-1c2-2 7-1 10 1l1 2-5 2c0 1 5 6 7 6l1-2c0-4 7-7 9-4l6 1c3 1 7 2 4 2l1 2c3 2 1 5-3 5l-3 1c-1 2-7 2-7 1l3-2 2-2 1-1 1-1h-9l-3 1h-3c-4 2-6 2-6 0s-1-2-5 0l-5 3-2 1 3 1c4 1 6 6 2 8l-2 1-4 2-5 3h-9l-3 1h-3c0 2-7 3-9 2-5-3 1-12 8-12v-1l-1-1a2 2 0 011-1l-3-1c-1-2-3-1-2 1l-3 1-3-1h-1c0 3-12 8-12 5h-1c-1 2-4 1-3-2 0-2 4-4 8-4s4-2 1-2c-4 0-13 4-14 5l-3 1-2 1h3c2 0 4 0 6 2 3 2 3 2 4 1s1-1 1 1 0 2 3 2c10-2 9-2 8 0l-1 3 1 2v1l-3 1h-6c-4 0-4 0-2 2l3 2c3 0 4 2 1 4-1 1-2 2-1 4 0 2 0 3-2 3l-3 4-4 4c-2 0-3 1-2 2 1 2 0 3-3 4-5 2-7 1-6-3 1-2 1-2-1-1l-3 3c-2 0-3 1-3 2-1 2-1 2-2 1l1-2 1-3c0-2 1-2 3-2 3 0 4-1 2-3s-2-4 0-6l1-4 3-1 2 1c0 3 4 4 6 2l4-1 3-2-5-1h-6l3-2c2 0 5-3 3-3l-2 1-5 1h-7l-6 3c-3 0-6 1-8 3l-4 2-2 2-1 3c-1 1 0 1 2 1 4 0 3 2-2 2l-5 1h3a4 4 0 014 7l-1-1v-2l-4 4-2 1c-2 0-3-2-1-2 2-1 2-4 0-5a3 3 0 00-2 3c1 0 1 1-2 5l-2-2c-2-1-2-1-4 1-1 2-2 2-3 1-3-1-4-1-2 1 2 0 2 1 1 1l-8-4-4-4-6-5-3-4c-4-1-20-16-20-17 0-3 0-4-2-4l-2-1-1-1a14 14 0 01-8-7l-4-1-3-2 2 2 2 4c-1 1 0 2 1 1l2 1-1 1v1h3l2 1 1 2 19 16 4 4c1 3 1 3-7 2h-2l-1 2c-3 1-2 5 0 4l4 1v1l-1 1-1 3c-2 0-3 2-1 2l4-3 2-2c3 0 3 0 2-1l-1-1 2-1h2c0 2 2 0 2-2a1 1 0 111 0v1c2-1 13 7 24 17l6 4c3 2 9 7 5 5h-4l-3-1 1 2c2 0 3 2 3 2l-3-1-3-1 1 1c2 0 1 3-2 3l-2 2-1 3c-2 1-2 2-2 5v3l-3 2-3 1c-1-1 0-3 2-3 3 0 2-1-1-4-2-4-5-3-3 1 0 3-2 2-5-1l-3-3c1-1-1-3-3-3a29 29 0 01-14-11l-3-2-1-2h3c4 1 8 0 8-2h-14l-4-5-3-2 2 1 3-1c0-2 0-2-4-1-2 1-3 1-6-2-6-3-5-6 3-7l4-2c0-1-6-1-11 1-3 1-7 0-13-6l-8-7c-5-4-6-6-3-7 8-2 8-2 3-3-5 0-6-1-6-3 0-3-1-3-2 0s-2 3-7-2-6-7-7-11l-3-8-1-5-3-7-2-7c-1-4-3-9-6-13v-9l-1-1a12 12 0 01-5-12h-1l-3-5-4-5v-4l5 6 7 8c3 4 4 6 1 4-2-2-3-1-2 1 0 2 2 2 4 1 1-1 6 3 13 11l9 11 9 11-5 3-5 3-4 2c-5 0-7 3-2 4 3 0 3 0 2 2l-3 2v1c0 1 6 0 8-2h6l5-2 4-3c2-2 4-1 9 5l6 6-2-2-4-5c-4-4-3-7 3-6l5 1h6l4-2 4-1 3-1a15 15 0 0116-4l-1-2c-2-1 0-4 4-4l3 1h2l3-1c8 0 13-1 14-4 2-3 3-3 10-4l5-1c-2 0-2-1-2-3v-2c-2 0-1-2 1-2v-1l-5 1c-4 2-6 3-9 2-8-1-9-3-3-7 4-2 4-2 2-3-1-1-1-1 1-2 3-2 7-1 7 1-1 1 0 1 3 1l3 1h9c4-1 7-3 9-5a102 102 0 0114-13l1-2-1-2-10 3-1 1v1l2 1-4-1h-6l-4 3c-7 3-8 3-7 4l-2 1h-1c1-3-3-3-5-1l-4 2-2 1a1 1 0 01-3 0v-1h-1l-1 2-3 2-3 2c-2 0-2 0-1 1 2 1 1 2-3 2l-4 2h-2v3c0 4-1 5-11 6-6 0-11 1-11 2-3 1-8 3-9 2-2-1-5-1-6 1l1 2c1 1 1 1-1 1l-7 2-7 3c-4 0-4 0-4 3 1 3 0 3-1 2v-3c0-2 0-2-2-2-1 1-3 0-5-3-5-5-6-6-3-8l1-2-3 1v1c1 3-2 1-4-2l-21-24-12-14c0-1 7-3 13-3 8 0 11-2 4-2h-8l-5-2h-5c-2 1-3 1-8-5-5-5-9-12-7-12l-2-2c-2-3-2-5 1-5l3-1c1-2 1-2-1-2l-3-1h-1c0 3-5-3-6-7l-6-13-7-21c0-4-2-8-4-10l-5-10-4-10c-3-7-3-8-3-3 1 5 8 19 12 25 2 3 2 6 3 11l1 9v1c-2 0-7-6-8-10l-7-26c-1-3-1-2-1 4l1 12c2 6 2 7 1 7-2-1-2 21-2 194v194h197l-3-2c-4-4-2-5 8-7h9a13 13 0 0011-1v3l-1 4v3h33c27 0 34 0 33-1l-1-8 5-5 5-6c-1-3 7 4 21 17l3 3h40l40-1h7c1-2 1-2-2-1-3 0-4 0-5-2-2-4-9-5-12-3l-3 2-2 2c-2 2-6 2-7 0h-1a9 9 0 01-12-1 3 3 0 011-5c2-1 3-2 3-4 1-3 5-5 13-4l4 1h-2l1 2c4 4 6 2 4-1l-2-2-2-3h7c1-1 2-2 3-1 4 0 7-1 7-3h1c2 2 2 2 5 1h2l-1 1c-3 1-2 4 0 5l3 3c1 2 1 2 3 2l3-1 2-2 4-3c5-1 5-2 1-2-2 0-3 0-3-2 0-3 3-3 6-1 3 3 4 2 3-2 0-4-2-5-5-5-1 1-3 0-5-1l-6-2h-2c-2-1-5 0-5 2h-2c-2-2-2-5-1-7l1-3 1-3 2-2c1-2 1-2-1-2-1 1-2 0-2-1 1-2-11-2-12 0-2 2-20-1-22-3v-4l5-2h7c1 3 2 2 2-1 0-2 0-2 2-1h3l5-2c3 0 4-1 3-2l1-1c3 0 2-2 0-2-1-1 0-1 2-1s3 0 2 2l1 1 1-4c0-2 1-2 3-3h3l-4-2c-4-2-3-3 4-3 3 0 4-1 4-2l2-2c2 0 3 1 1 3l3 1c3 0 4 0 3-2-2-1 0-3 3-3 2 0 2 0 2 5a8 8 0 01-2 6c2 1 10-5 10-8l2-2 2-3 1-1a14 14 0 007-11 1 1 0 110-2l3-2 11-5-1 2c-3 1-1 7 3 9s7 2 9 0l1-2c-3 0 1-3 4-3h4l-4-1c-3 0-6-3-3-3l1-3c1-3 2-3 6-5a9 9 0 006-4l1-1 2-3c2-1 2-2 1-2-1-1-1-1 1-1h3c2-1 3 0 5 2l4 3c1-1 16 3 19 5l3 1 7 3-1 2c-2 1-2 2-1 3v3l3 2 4 2 5 2c4 0 5 2 2 2s-5 2-3 3v1l-4-2c-2-1-4-2-6-1-3 1-4 3-2 3 3 0 2 3-1 4s-3 1-2 3 1 2-1 1v2h4c2-2 3-2 3-1 0 2 2 3 12 2 8 0 8 0 9 2 0 2 1 3 4 4 3 0 3 1 3 5v4l5-1c5-2 6-2 6 1a2 2 0 003 1 2 2 0 112 1c-2 2-3 4-1 4v2l-1 4-1 3-1-1-1-2c-3-2-4-6-2-8 1-2 1-2-2-2-2 0-3 0-2 1v4c-1 3-1 3-1 1 1-2 0-3-1-2-1 0-2-1-2-3s-1-3-2-3c-3 0-4-1-2-2v-1l-7 5 2 1v5c-2 1-2 1 5 3 4 2 5 2 6 1s2-1 4 1c2 3 1 5-4 5l-4 1c-1 2 1 3 2 1 5-5 13 4 13 14l1 4v1l-1 3c0 2 3 1 4 0 1-4 5-2 5 1 0 2 0 3-1 2l-1-1v8c2 1 0 3-2 2-2 0-2-1-2-3 1-5 0-5-8-4a50 50 0 01-19 0c-10-1-16-4-16-9-1-4 1-9 3-8 1 1 4-2 5-5l4-3c4 0 4 0 3-3l-1-3-4-1-4 1-1 2-3 3c-4 4-15 2-16-4-1-2-1-2-2-1 0 2-3 3-3 2l1-3v-1c-2-2-2-1-2 4-1 3-1 4-4 3-2 0-1-4 1-6v-3c-2-1-2-1-4 1l-3 3c-3 0-4 3-3 5 2 1 2 1 1-1 0-1 0-2 2-2 3-1 4 0 1 4l-2 4 2 2c2 1 2 1-1 2-5 1-8-2-4-5v-1l-3-2c-2-2-2-2-3-1-2 1-10 2-11 1l3-4 2-4c-1-1 0-2 2-2 2-1 2-1 0-3v-2l1-2-1-1c-2 1-4-1-4-3l4-1c3 0 3 1 3 3h1l1-1h2c2-2 0-3-4-4h-7c0 2-5 3-8 3-4-2 0-9 4-8 3 1 3 1 3-1s0-2 1 0 1 2 1 0l2-2v-1h-4l-4 2c-1-1-7 2-8 3h-1c-2-1-10-2-11 0l1 1h1l2 4c3 3 3 6 0 7l-4 3c-2 2-3 1-4-1 0-2 0-2-2 0-2 1-2 1-2-1-1-2-3 0-3 4 0 2 0 3-2 3h-2l2 2 4 2c2 0 2 2 0 4a4 4 0 01-6 0c1 3-2 7-5 8-3 0-5 4-2 4l2-2 1-1 3-2 4-3 2-1c0-1 4-2 5-1s1 1-1 2l-1 1h1l3 1c1 1 1 1 1-2-1-3-1-4 1-6l2-2 2 2c3 2 3 2 6 0 2-2 9-3 11-1 1 3-3 5-9 5-4-1-5-1-6 1s-1 2 2 2c6 0 9 1 9 4s-2 6-4 6c-1-1-1 0-1 1 0 3 2 4 4 4l1-3c0-3 0-3 10-1l4-1c0-2 5-3 5-1 1 2-1 4-2 4l-3 2-5 4c-4 2-4 3-3 4l3-1c4-7 19-1 15 6l-2 2h-7l-7-2c-1-2-8-3-8-1l1 3 1 3c-1 2-1 2 8 2l11-1c1-2 2-2 4-1 4 3 9 2 10 0l-1-3c-2 0-1-2 2-3h4c1 1 0 3-2 3-2-1-2 0 0 3l2 2h205V317l-1-191c0 4-1 5-3 3v1l2 2 1 21v20l-6 1-9 2c-4 1-6 0-3-1 2-1 2-1 1-3-2-3-3-3-7 0-2 2-3 2-3 1-1-1-1 0-1 1 0 2 1 2 4 2 4 0 4 0 2 1l-4 1h-2c-1 1-4 0-4-1v-5l-2-7c-1-5-2-7-8-11-8-4-8-4-6-5v-9c0-6-1-7-3-8-4-1-7-1-10 2-5 6-12 5-9-1v-4l-2-6c0-3-1-4-2-3l-6 1c-6 1-13 10-11 14l-4 3c-6 2-9 5-12 18l-3 12-2-1-7-4-6-5a8 8 0 00-15 3c0 2-1 3-4 5-5 4-9 14-10 22l-1 7-6-8-11-16c-7-9-7-11-3-12s13-6 14-8c3-2 2-5-1-10-4-5-5-10-3-14 2-2 2-5 1-5l-3 4-4 4-2 4-3 6-3 4c-1 3-2 3-9 5-6 2-11 2-11-1l-4-8c-2 0 0-3 11-16l12-14c0-1-2 0-4 3l-18 20c-5 6-8 7-9 4s-11-13-14-13c-2-1-2-2-2-4 2-8-3-13-6-6-5 9-11 7-9-3V92c-1-1-1-2 1-3 1-1 1-1-1-1s-10-7-10-9-6-9-8-9v-2h-1l-1 1c1 2-2 2-4 0-5-5-11-3-11 3l1 4 1 2c0 1-4 3-8 3-2 0-6 4-5 6s-2 7-4 7c-1 0-1-13 1-14 1-1 1-2-1-12l-3-12-4-5c-4-5-4-4 5-18l8-13 5-6 2-4 3-5c2-4 3-5 1-5l-4 5m-92 12l-2 4-2 2-1 2c-1 1-1 1 1 1l1 3a37 37 0 01-4 15c0 3-5 15-10 24-3 8-4 8-6 8l-3 1 2 1c3-1 3 0-6 17l-9 18 12-21 10-20 9-19 3-8h5l6-1-1 5-1 6c0 1 1 2 4 2 4 1 3 4-2 4-3 0-2 2 2 2l3-1 2 1 1 5 3 1c4-1 6-4 4-5-1-2 0-9 1-11 1-1 0-7-2-12l-3-7-4-8c-2-3-3-5 0-5h1c-1-1-8 0-9 1-1 2-4-1-4-4v-3l-1 2m-2 16c-2 9-2 9 3 7 4-1 4-1 4-5s-1-5-4-8c-1-1-2 0-3 6m-155-4l-4 2h-2c0-2-4-1-6 1l-4 2-2 1 7 1c12-2 16-3 16-6 1-2-1-2-5-1m254 65l-10 3c-2 0-9 5-11 9a690 690 0 01-11 18l-3 5 3-1 3 1c0 2 0 2-1 1h-4l-2 2-11 15c-1 3-1 3 1 3l4-2 1-1c0 1 1 2 3 2l2-1c-1-1 1-2 5-2 5 0 6 0 9-3s6-4 6-2l-1 1-2 1c-1 1 0 1 1 1 2 0 3-1 4-3s2-3 4-2l2-1 1-1c1 2-1 5-3 4l-4 2c-3 3-2 4 2 1 2-1 9 1 9 4 0 2-5 9-6 9l-2 1c0 2 1 2 5-1 9-8 9-8 5-11-2-2-2-2-2-10 1-10 1-10 6-13 4-3 4-3 3-5-3-3-3-8-1-11 3-3 7-3 9 0 2 2 2 2 3-1 0-5-7-16-10-15l-7 3m-94 6c0 2-3 3-5 1-1-1-4 0-5 2l-2 2v-2l-2-1v-2l-1 1c0 2-4 3-4 2-1-1-8 1-8 2l1 1c3 0 5 3 3 4l-1 1h-1c-2-1-4 0-3 2 1 1 4 0 7-3 2-2 2-2 1-3h16c5 0 10-2 9-5a3 3 0 00-3-3l-2 1m-69 15c2 1 1 2-5 2l-7 3-5 2-2 1c-1 1 4 1 18 1 3 0 13-5 15-7 1-1-1-1-5-1a12 12 0 01-9-2v1m74 1l-2 1v1c1 2 0 2-3 2l-5 3h-1c0-2-2-3-2 0l-1 1c-1-1-3 0-6 1-3 2-4 2-3 3l3-1 4-1c15 0 20-1 17-3v-3h1c2 0 5-2 4-4h-6M0 318c0 107 1 150 1 97a44318 44318 0 00-1-97m384-194l-3 1c-2 0-2 0-1 2l3 1h2c1-1 6-1 5 1l6 2h2l-2 2c-2 1-2 1 0 1l3 1h1l3-2h3l1-1c0-2-4-3-5-2 0 2-2 1-1 0 0-2-4-3-7-2l-4-2c-2-2-2-2-3-1-2 1-2 1-2-1h-1m-160 3c-1 2 0 3 3 3l2 1h7c5-2 10-2 10-1h2c3-2 4-4 2-3h-5l-3 1h-12c-4-2-4-2-6-1m-93 2l-4 2-6 1c-3 2-3 2-1 3 2 2 5 2 8 0l3-1h2l5-4 4-3-3 1-4 1c0 2-2 1-2-1-1-1-1-1-2 1m348 3l3 9c5 12 5 15 1 18-4 1-4 2-4 6l2 8c0 5 0 6 2 4 3-3 5-7 6-11l2-9c2-5 2-6 0-10v-9c0-3-2-4-4 0 0 2-3 3-3 1a13 13 0 00-5-7m-385 5l-2 3c0 1-1 2-3 2l-3-1h-4l-4 1c-3 0-5 1-4 2h6c6-1 8 0 7 3l2 1 6-2c6-2 7-3 7-6l-2-2-2 1c0 1-2 4-4 4l1-1 1-4c0-2-1-2-2-1m253 0c1 1 1 1-1 1l-4 2-3 2-2 1c0 2 5 1 6-1 0-1 1-2 3-1l4-1h2c2 0 3-2 2-3h-7m80 11v2c2 0 0 2-2 2-1 0-2 0-1 1h11l-1-2-2-2c1-2-4-3-5-1m-347 1c-3 2-1 4 5 3h4l-2 1c-2 0-3 0-2 2l-2 1v1c3 2 11 1 11-2-1 0-1-1 0 0l2-1v-1c-1-1-1-1 1-1l3-1c0-2-3-2-8-1h-5l-3 1c-2 0-2 0 0-1 2-2-1-2-4-1m328 7l-1 1-6 1-5 1-4 4h20l14-2h7l1 1v1c2-1 2-3 0-3l-2-2-5-1h-15l-4-1m-356 2v2l-6 1v1c1 2 6 2 10 1l1 2c0 3 0 3 2 3l4-1c3 0 2-2-1-2-2 0-2 0 1-1l3-2-2-1h-8l2-2 3-2h-4l-5 1m207 14c0 2 0 2-3 2l-5 1-6 2-6 2c-1 1 0 1 4 1l6 1c-1 1 0 1 1 1l2-3c1-3 3-4 4-2 0 2 3 3 3 1l2-1 3-2c2-2 2-2 0-2l-3-2c-2-3-3-2-2 1m253 8l-2 7c-1 3 0 7 1 10 2 3 4-2 4-6v-5c1-3 0-10-1-10l-2 4m197 0l-5 4-5 4c-2 1-2 1 0 3 1 1 1 1-2 1-2 0-3 0-2-1l1-2-1-1-1-1c-1-3-1 14-1 20 0 3 0 3 3 1l3-1v3c0 3 1 4 3 2 1-2 2-1 2 1 0 3-3 4-4 2h-1l-1-1c-2-2-6 0-6 3l-3 4c-2 2-2 3-1 4l5 4 6 3 7 2c4 2 10 3 15 1 2 0 3-5 0-5l-1-2c0-2-1-2-3-2-5 0-6-2-1-5h4c2 3 3 2 3-2l-1-4a2 2 0 010-3l1-1-4-1c-5 0-5 1-2 3s2 5-3 6c-3 0-6-1-5-4h2c1 1 3 1 3-1l-2-1c-1 0-2 0-2-2s5-4 11-3c1 0 2 0 1-1-2 0-3-4 0-4l1-6c0-6 0-7-2-7v-1c2-1 2-2 2-6v-5h-6l-8 2m-129 2l-2 6-2 8c-2 6 1 8 6 7 4-1 4-2 4-4v-8c0-7-3-12-6-9m-26 1l4 7 4 5-3 4c-7 7-6 10 3 8 7-2 7-4 0-16-6-8-8-11-8-8m-326 2c2 1-9 4-14 4l-8 3 1 1c1 0 2 1 1 2 0 1 7 2 9 0 1-1 4 0 4 1-1 2 4 6 5 6 2 0 4-2 3-3l1-1 3-2h2c2 2 6 3 6 1 0-1 0-2 3-2s5-2 2-2l1-1c2-1 2-1-1-1-2 0-3 0-2-1l2-1c1 1 2 0 2-1s-1-1-10 1l-4 1 4 1c4-1 5 0 3 2h-2l-1-1v2h-2c-2-1-3-1-6 1-4 1-5 3-3 3l1 1-4-1-2-1 3-3 4-5 3-2c3 0 3-2 1-2h-5m45 4l-5 1h-5l-4 2-4 1 1 1h1c0 2 2 2 3 1 0-2 4-3 4-1h2c1-2 3-2 6-1 2 0 3 0 2-1s-1-1 1-2c2-2 2-2 0-2l-2 1m253 4l-5 2c-4 1-9 8-8 11l-1 1c-2 1-2 1-2 3v2c-2 0-3 2-3 4h3l-1 2 2-1a8 8 0 018-1v1c1 1 2 2 1 4v6l-1 3c-1 1 2 4 3 3l1 2-9 1c-13 0-12 0-12-3v-3l-1 1-1 1 1-2 1-3-3 2-2 3-7 12-15 25c-24 38-23 37-21 44 0 3 4 5 6 3 2-4 6-2 5 2-2 4-13 2-15-3l-1-3c-2 1-7 12-7 13l6 1c4 0 6 1 5 2l1 1 2-1c-1 0 1-2 3-2l4-4h5l5 4c3 5 6 6 6 4h1c2 3 5 3 5 1l1-2 1 4c0 4 0 4 2 3l1-3 2-2c2-1 2-1 3 1s4 1 6-2l3-3 4-1h1l2 2c2 0 3-2 3-5 0-2 1-2 3-1l7-1h4l9 1-2-3v-7l-2-1h-1c-2 1-6 1-7-1-2-2 0-3 4-2l3-1h6c2-1 2-1 3 1s1 2-1 3c-1 0-2 1-1 2h4c2 2 2 2 4 1 4-1 5-1 5 2 0 2 1 2 3 2l2 1-2 1-1 2 2 2a1 1 0 110 2c-2 0-3 2-1 4s3 1 3-1c-1-1-1-1 2-1 3 1 4 0 6-3v-3c-2 1-9-5-9-7 1-1 4 0 3 2l1 1 2-1 1-2 1 2c0 2 3 1 3-1l4-2c2-1 3-1 2-2 0-2-1-2-2-1-2 2-3-1-1-3h4l1-1h2l1 2 1-3 2-3 2-4c0-2 0-2 1-1h2l14-17c4-3 5-6 2-4v-1c2-2 0-2-3 0l-3 1c-1-2 3-7 6-9 3-1 3-2 3-5h-1l-1-2-1-2-2-2a2 2 0 00-4-1h-1c-2 0-2-1-1-3 2-2-1-14-6-21-2-3-5-6-5-8l-3-5-5-6c-1-3-2-3-6-3-11 2-18 4-19 7l-1 2c5 3 8 6 8 9l-1 4c-5-1-5 2-2 12 1 4 1 4 4 3l4-1v2l1 4c3 2 2 7-1 8l-2 2c0 2 2 1 6-3l4-3 1-1 1-1c0 1 1 2 2 1v1c-2 1-1 2 6 2l8 1v3c0 2 0 2 2 2s2 0 2 2c-1 1-1 1 1 1l2-1v-1l1-2c2 0 1 2-3 8l-6-3c1-3-7-2-10 2-2 3-3 3-2 0 0-3 0-3-3-2-3 2-4 2-1 5v8c0 5-1 6-2 4h-3l-1 1 1 2 1 1h-5c-1-4 0-9 3-10h-2c-5 0-6-1-1-2l3-3-1-2c-2 1-2 0-2-1 0-2-1-2-2-2l-2-1-1-2-1 1c0 2-2 3-4 2v-2l2-3 1-1 1 1c0 2 2 1 2-1v-1h-9l-5 2c-1-1-2 0-3 1s-2 0-4-3l-4-7-2-3 1-4c-1-3-6-3-7 1 0 2-3 5-5 5s-1-2 1-4l2-3c-1-2 1-5 3-5 2 1 2-3 0-7v-13l-1-3-3-2c-1-2-1-2 1-2 3 0 3-1 3-11 1-9 0-14-1-11m-275 5c-1 2-2 2-5 2-1 0-2 0-1 1l3 1h8a6 6 0 007-3l-2 1h-2c-1-1-3-2-4-1l-1-1h-3m219 1l1 4c1 1 0 1-2 2l-5 2-5 1-8 7-15 16-8 9 2-1 14-9c12-7 14-9 14-11s1-3 6-3c8-1 11-4 10-10 0-8-1-9-4-7m182 0a13 13 0 001 13l-1 2c0 3-2 5-4 3-2-1-2 0-2 4l-1 13c-1 9 0 11 6 12h4l-2-2c-1-3-1-3 6-3v-1l-2-1h-1a5 5 0 017 3v-9c1 0 0-7-2-9l-1-3c1-2-4-15-6-16l-1-4c0-3-1-3-1-2m-36 5l-2 7-2 10v11l-1 9-2 8c-1 1-1 2 1 4h2c0-2 1-2 3-1l1 2 2 1h6c0-2-2-3-5-3s-2-2 1-3 3-2 2-4l-1-9a18 18 0 00-2-9v-5l1-7-1-9c0-6-2-7-3-2m-113 3a14 14 0 00-5 7l-2 4-2 4-4 5-4 5-1 2-3 6-3 6c1 3-1 7-6 14l-7 15a42 42 0 0010-15l6-11 4-7 1-3 1-1c2 0 13-20 12-23l1-2v2c0 2 3-2 5-6 3-3 3-5 1-5l-4 3m79 0c-5 1-5 2 2 11 6 9 7 8 5-4-2-8-2-8-7-7m-213 4h-5l-4 1 3 2c4 4 18 1 16-3h-10m-92 8c-1 2-2 2-5 2l-6 1h-5l-3 1-5 1c-5 1-8 3-8 5l-1 2-3 2c-3 2 0 4 4 3 3 0 5-3 3-4v-2l8-1 3 1h4l2 2 4 2c2 2 6 2 6 0l-3-1h-1c2-2 8-3 11-2 2 1 5-2 3-3s3-3 4-2l1-1-4-1-4 1c2 1-1 3-5 3-5 1-7-1-3-3l8-8c0-2-4 0-5 2m173 11l-30 20c-3 1-10 8-10 9h1c2-1 5 4 4 7l1 2v2c-1 2 3 7 6 7 1 0 2 1 2 3l1 2c3 0 7 7 8 12 0 4 1 4 4 5 4 2 10 11 6 10l-3 2h-2c-2-1-5 1-3 3l-2 1c-3-1-9 0-9 2l10 2c4-1 6 0 4 1l-1 2c1 1 8-9 8-11l2-3 18-30-3 2c-3 3-3 3-4 2l-3-2c-2 0 0-6 4-10l1-4c1-3 1-3-2-2l-2 3h-3c-2-1-3-1-5 1-3 2-5 3-8 0-3-2-3-4 1-4 6 0 9-2 9-5-1-4 0-7 2-6 1 1 2-1 2-9 1-9 3-13 7-16 6-6 0-5-11 2m55 0a2 2 0 103 3l3-1h5l1-2c0-1-1-2-4-2h-4c-2-1-3 0-4 2m127 4c-1 8 0 11 2 11l1-8c-1-9-3-12-3-3m-465 1c0 2 0 2 1 1l2-2-1 2c-2 2-2 2-4 1l-2-2v2l-4 4c-4 4-4 5 1 5l11-1 8-2c2-1 0-3-2-3l-2-1c-1-6-7-9-8-4m53 0c0 3 0 4-1 3l-2 1h-3a2 2 0 00-4 0l-3 2-2 3-2-3c-2-3-3-3-3 0s1 3 7 4c3 1 4 1 3 2 0 3 2 3 7 1 3 0 5-2 5-3h-3l-4 1-2-1 2-1h10a5 5 0 004 0c-2-1-1-2 3-3a5 5 0 004-3l1-3h-1c-3 1-14 2-14 0l-1-2-1 2m165 2a3 3 0 00-3 4l-3 2-3 1 2 1c2 1 2 1 1 2-2 1-1 2 2 2s5-2 3-3c-2 0-2-1 0-3s2-2 1-3c-3-2-1-2 4-1s7 1 5-1c-1-1-7-2-9-1m-125 1l-5 1-2 1-3 1c-3 1-4 3-2 3l1 1 1 2v1l-3 2-3 2v3h2c1-5 3-6 10-5 10 0 11-2 2-4-1-1-1-1 1-1s3-1 3-2l2-3v-3l-4 1m253 1l-2 1-2 2c-2 1-3 3-1 5l2-1 4-1c3 0 8-2 8-3l-2-1v-1l-1-1h-6m190 5l2 2 3 2c1 2 3 3 8 2 2-1 4 0 4 1l2 3c1 2 1 2 1-1 0-4 0-4-10-5a5 5 0 01-6-4l-2-1-2 1m-567 1l-6 2h-4v4c-1 4 1 5 7 3l7-1c4 0 12-3 12-4l-4-2a8 8 0 01-6-3l-6 1m376 5h-4l-4 2-2 1v1c1 1 6 0 6-1 0-2 5-1 6 1 0 2 2 1 2-1 0-3-3-5-4-3m-281 4v2l-8 4c0 2 4 3 6 2l3-1 1-2c-1-2 5-3 6-1 1 5-9 9-13 6h-5c0-1-1-1-2 1l-4 1-2 1c0 2-5 3-6 2-2-2-3-1-3 1l2 3 2 1-2 2-5 1-3 2-1 2-4 1c-3 2-3 2 1 1 4 0 5 0 6 2l2 2h3l1-2a2 2 0 001-5l4 1a3 3 0 005-1c2 1 4 0 5-3 2-4 2-4 0-4-3 2-8 2-11 0l-2-1h3l5-4 5-2h3c0-2 2-1 3 1 0 2 1 2 3 0h2l-1 1c-1 1-1 1 2 2h4l4-2 3-1-3-1c-4 0-4-2 1-3s5-2 1-1c-3 0-4-1-2-4 2-2-1-3-5-2l-3-1v-1h-2m407 1a3 3 0 102 4c7-2 13 1 13 6l1 3 1 2v1l1-4v-3l1 3c0 2 3 6 4 4l-1-1-1-2c0-2 3 1 3 4 1 2 1 2 2 1 1-2 2-2 3-1h1c0-2-1-2-2-2-2 0-2 0-2-3l-1-3-4-1c-6-6-16-9-21-8m-382 7l-9 3h5l14-1c4-1 5-3 3-3h-3c-2-1-6 0-10 1m151 0c-3 2-4 5-2 5h4c2 1 5-1 5-3 0-1-6-3-7-2m-46 1c-1 1-2 2-3 1-2 0-7 4-7 6l5 1 7 1c4 1 10-2 7-4l-2-1-6 1-5 1 3-2 6-1 2-2c0-2-5-3-7-1m140 1l-3 3c-3 1-4 3-2 3 5 2 5 2 4 4-3 5 4 5 8 0 2-3 2-5-1-5l-2-2h-1l-1-2-1-2-1 1m-160 4l-1 2-1-1c1-1 0-2-1-2s-1 1 1 6l-3 1-4 1c0 1 0 2 2 2l-1 2-4 2c-2 2 6 2 11 1 7-2 10 0 6 3l-2 3 2-1 3-1c6 0 11-4 6-4l-3-1-3-1c-1 0-2 0-1-1l-2-3c-2-2-2-2 0-2 3-1 2-5-2-5-2 0-2 0-1-1v-2l-2 2m57 1l-7 1-4 1-2 1c-3 0-8 4-7 5l3-1a3 3 0 014 0c-3 0 1 3 5 3 8 1 18-2 18-6l-1-3v-1h-9m122 2c-1 3 0 7 2 7l3-1v-2l1-4c2-1 2-2-2-2l-4 2m90 5l-3 3h-1v1c2 2 2 2 0 2-4 0-9 5-15 15l-6 7c-2 1 3 3 5 2l3 1 3 1c2 0 7 4 8 7 0 2 1 4 3 4 3 1 4 0 1-2l-2-4c1-1 0-2-1-2-1-1-2-1-1-2l-1-1a3 3 0 112-3l2 1 1 1h3v-3c-1-2 0-3 2-2h2c2-2 1-5-2-6l-4-3-2-2h2l2-1c0-2 3-1 4 1 2 2 2 2 3 1l4-3 1-2h-13l-2-1c-2-1-2-1 0-3 2-3 3-3 3 0s1 2 4-1c2-4 3-6 0-3h-1c2-4-1-6-4-3m-20 0h-3c-2 0-2 1-3 3s-1 2-2 1c0-2-2-3-2 0-1 2-1 3 1 3l2 1c1 1 0 2-1 1l-1 2 2 1 5-1 3-1 2-1 3-2v-2c-2 1-3-1-2-3l1-2-2 1c0 1-1 1-1-1h-2m-479 5c-5 0-6 1-2 3 2 1 2 1 0 1l-2 1 2 1 6 1c2 0 3 0 2-1l2-1c1 0 2 0 2-2v-2h-1c-2-1-6-2-9-1m212 5l-2 2c-4 1-4 6-1 6l4 1h4l3-1 2-2c0-1 1-2 3-2 2-2 2-2-3-2-4 0-5 0-6-2-2-3-4-3-4 0m34 2c-4 2-4 3-1 2h3l-3 1-3 2-3 1h-6l-3 1c0 2 12 4 15 3l8-1c8 1 9 0 2-2-4-2-5-2-6 0l-2 1v-3c2-1 9 0 15 2l2-1c1-2-2-3-8-3-5 0-6-1-6-3v-2l-4 2m-185 2l-4 2h-4l-4 1-4 1h1c3-2 6 2 3 5-1 1-1 1 1 1l4-1 3-1 3-1 2-1 4-2 2-2v-1l-3 2c-1 2-2 2-4 2-2-1 0-3 3-4l1-2-4 1m346 2a16 16 0 003 9h2c2 1 3 1 2-2l-1-3-4-4-2-4v4m-238-1h2c2 0 3 1 1 3l-1 2c0 2 1 2 12 2l12-1-2-1-5-2-8-2-6-1h-5m-93 4c-2 2-2 2 1 2l3 1c1 1 9-1 9-2a14 14 0 00-11-1v-2l-2 2m190 1v1l-2 3v2c3 1 5-1 5-3-1-3 1-2 2 1 1 1 1 2 2 1 3-2-3-7-7-5m26 1l-3 1h3c3 0 6 2 5 3l-14-3h-2l1 1 1 2c-1 3 0 4 8 5 6 0 12-3 9-5l-1-4c0-2-3-3-7 0m229 6l3 3c-1 2 1 6 3 6l2 2c0 3 1 3 3 0s-1-7-6-9l-4-3-2-1c-1 0-1 1 1 2m-374 4l-6 3-4 2c0 3 0 3 8 3 9 1 10 1 8 3l-1 3v2c-1 2-5 3-5 1l-2-1v1c2 2 2 2 1 4h-1l-1-2-1 2-1 2c-3 1 1 3 5 2 3 0 5-2 3-3-2 0-1-2 1-2l2-1h1l3-2h1c0 1 0 2 1 1v-1l3-1c3-1 4-3 1-3-3-1-2-3 2-4l5-3c2-2-3-2-6-1-3 2-8 0-6-2 1-1-1-4-4-4l-1-1c0-2-1-1-6 2m360-1l-3 3c-4 0-5 2-2 3l-1 1c-2 1-3 3-1 5 2 1 2 1 3-1 0-2 1-2 3-2 2 1 5 4 4 5h4c4 0 6-2 2-2l-6-3 2-1 1 2h2v-3c-1 0-2-1-1-3 0-2 0-2-2-1-2 0-2 0-2-2a2 2 0 00-3-1m-327 2l-5 1-3 1c0 1 2 2 5 2 2 0 2 0 1 2-2 4 0 6 6 6h3c-1 2 2 3 5 2l10-2c9 0 12-1 12-2-1-2-4-2-5-1-3 3-4 2-4-1 1-3-1-4-3-1h-3l-2 1c1 1-3 3-6 3-2 0-3-1-1-2 2-3 1-7-2-8l-3-1h-5m85 1v3l3 1c2 0 3 1 3 2 1 2 2 2 5 2 4 0 4 0 3 1-2 2-2 5 0 4 3 0 2 1-1 3-3 1-3 1-5-1h-4c-2 1-4 2-5 1-3-1-7-1-8 1v3c2 1 1 2-2 2l-2 1a1 1 0 01-3 1l-2-1-3-1c-1-2-5-3-5-1l1 1c3 0 0 1-4 2-3 1-4 0-5-1-1-3-13 0-12 4 1 1 0 2-1 2-4 1-2 3 3 4l6 1 4 1 5 1c2 1 2 1 4-1 1-1 2-2 3-1l-1 2c-2 0-1 9 1 12 3 4 3 5-1 3h-2v1h-2l-2 1-4-2-2 1h-3l-6-1h-11c-3 1-3 1-3-1l4-2 2-1-1-2h-3c-2 0-3-1-3-2l-1-1-5-3c-5-4-13-9-15-9l-4-3c-2-2-3-3-4-2-4 1-9 3-10 5l-5 3-4 2-1-3c-2-4-7-5-19-4-5 1-6 1-8-1h-1c0 2-1 4-4 4-2 0-3-3-1-3 1-1 0-1-1-1-4 1-11-1-11-2l5-2c7-1 6-3-1-3-3 0-7 2-7 4 1 3-7 8-12 7-5 0-6 3-3 6 3 2 4 2 4 1l2-1 2-2 3-1a17 17 0 006 0c-2 1-1 2 2 1 2 0 3 0 3 2 1 2 1 2-2 1h-2v2a6 6 0 00-7 3h-1c1-1-3-2-4-2a5 5 0 008 3l6-1a18 18 0 009-2l3-1h3l4 1c4 1 3 3-2 4s-9 5-9 7c1 2 8 4 10 3h3c2 1 1 3-3 4-2 0-4 2-3 2l5 2h3c-1-1 0-2 2-3h5l-1 1-3 1c-2 2-2 2 0 3h3l3-1 4-1-2-1-3-1 5-1 21 1 1 1-1 1-2 1c0 2-5 5-8 5l-2 1 2 1c2 0 0 2-2 2-3 0-2 0 4 2l2 2 3 1c2 0 2 0 1-1s-2-2-1-3h1c0 3 3-3 3-7 1-7 1-7 10-7h7l-3 3-3 4c0 5-2 11-4 10l-2-1-3-1-2 1c1 3-3 5-7 5l-7 1c-4 2-5 0-1-2s3-3-3-5c-6-1-6-1-9 1-1 1-1 1 4 1h4l-2 1c0 2-5 4-8 3l-3 1-3 2c-4 0-6 2-3 2h2c0 3 0 4-2 5l-2 2 1 2c1-1 2 0 1 1l1 2c1 1 2 0 2-2l2-2 1 1c-1 2 3 6 4 6l1-2v-2c1-2 5 4 4 7l1 2 5 3c5 4 11 6 13 3h3l2-1c0-2 2-2 6-2 6 0 8 1 3 3-4 1-5 3-2 6l2 3c-1 2-3 1-4-1l-2-2v3l-3-1-6-2h-16c-1-2-13 2-13 5l6 5a56 56 0 019 9l3 2 7 6 4 5c1 3 9 6 10 4l4-1c2 0 3 0 4-2l1-2v2l2 4c2 2 2 2 1 4-1 3-1 4 3 4h3a2 2 0 113 2l-1 1c6 4 8 5 8 1v-1c0 1 1 2 3 2l4 1c2 1 7 1 8-1l-4-2c-4 0-5-2-2-4 2-1 0-3-3-3s-2-2 2-2c2-1 3-2 4-5l6-8c4-3 4-4 3-5h3l5 3c2 2 10 0 10-2s5-1 5 0l1-1c2-3 3-2 3 2-1 4-1 4 2 4 2 1 11-1 12-3a10 10 0 00-9-7l6-2 5-1 3-1 5-2h10c1-1-1-3-3-3-2-1-1-1 1-1a14 14 0 008-2c4-1 1-3-4-3-6-1-6-1-1-3 10-4 12-9 4-9a5 5 0 00-7 3l-1-1-8-1-16-1c-11-2-14-2-14 0l-4 2c-6 0-13-1-12-2l1-1c1 1 2 0 2-1l-2-1-6 1c1 0 1-1-1-2l-1-1h2l-2-1-3-1h-3l-2-1-5-2c-6-2-8-3-6-6 3-5 1-7-6-8-4-1-6-2-6-4h21l4 2 9 6c1 2 6 3 9 2l5 1c2 1 2 1 5-1l3-3 4-2 3-3h-3c-3-1-2-3 2-4 2 0 3-1 3-2h2l1-1c-2-2 0-4 3-4 5 0 8-2 8-4 0-3-4-4-8-3-3 1-4 1-5-1l-5-1h-4l4-2h5l-4-2h-5l-3 1c-2 0-2-1 2-2l4-3-2-2-2-4h1c0 1 1 1 2-1 1-1 1-1 2 1 0 2 2 3 2 3l2 2c1 1 0 1-1 1-3 0-2 3 2 4 3 1 6 0 6-2l-2-1c-2-1-2-1 1-1l6-2 4-2 1-1 2-2c2 0 1 1-1 3-2 1-3 4 0 6h1c0-1 1-2 2-1l2-1-1-1c-2 0-2-1 0-3l2-2h1l1 1-1 1c-2 0-1 3 1 3l5 1 5 1h5l3-1c3 1 1 3-1 2l-2 1c0 2 1 2 4 2s2 2 0 3l-3 3-1 1h-2v1c2 0 2 0 0 2l-2 2c0 1 4 1 4-1h2c2 2 5 1 4-1 0-2 1-2 3-2 4 0 10-4 7-5l-1-1 1-1h3c4-3 5 0 1 3-3 3-2 6 1 5 1-1 3 0 4 1l4 1c5-1 8 0 8 2l1 1c1-1 2 0 3 1h2l7-1h21c1-1 4 0 6 1l9 2c3-1 11-5 8-5-1 0-2-1-1-2l-2-1h-1l-2-1h-10l-3-2h-1l-1 1-1-2c1-3 1-3-2-4l-3-2 3 1 4 1 2 1c0-1 2 0 3 2 2 1 3 2 4 1 3-1 4-1 2-3-1-2-1-2 1-4v-4c-2-1-2-1 1-3 4-1 2-4-2-3-3 1-5-1-3-3 3-3 1-6-3-5-3 0-4 0-5-2s-3-1-2 2c0 2-1 1-3-1s-3-1-3 2c1 2 0 3-1 2l-5-1c-2 0-3 0-3-2l-1-2c-2 0-1-2 1-2 1 0 2-1 2-3 0-5-4-7-7-3-2 2-2 2-3 1v-2l1-3c-1-3-6-3-7 0 0 2-1 2-4 2l-3-1 3 1 3 2c0 2-2 2-3 1l-4-2-5-1c-2-2-3-1-6 2l-7 4c-3 1-4 4-4 6h-1l-2 1c-2 1-5 0-7-2l-5-2-1 1c-1-1-2 0-3 1h-3c0-1-1-2-4-2-6 0-8-1-4-2 7-2 7-5-1-6l-6-2c0-2 1-2 3 0 1 1 2 1 5-1l7-1c11 2 11 2 13 0 3-3 6-4 10-2 3 1 4 2 2 4-2 0-1 2 1 1l1-2 2-2c2-1 2-1 1-3l-4-1h-2l-4-2c-4-1-4-1-5 2-2 3-2 3-4 0-2-2-2-2-3-1-2 2-9 4-7 2l2-1c2 0 3-1 3-3l1-4c1-1 0-1-2-1-3 0-3 0-3 2v3l-8-3-1-3c-1-1-1-2 1-2 1 0 4-4 3-5h-2c-1 1-3 1-6-1-6-3-14-4-13-2m-285 3l2 3c2 1 3 2 2 4v2c1-1 8 11 8 14 0 1 4 3 6 1 3-1 10-1 9 1l1 2 1 4h1c1-1 6-2 6 0 0 3-7 8-9 6l-1 2c1 2-1 3-3 1l-3-2-2-1c0-2-2-2-2 1 1 9 5 17 9 15v-1c-1-1-1-1 1-1s3 1 3 2l1 1c2 0 4-2 2-3-1 0-1-1 1-2v-3l2-1 1 1v1l1 3c0 2 0 3 2 3s3 1 1 3a2 2 0 103 1v-2l2 2c0 3 6 11 6 9l4-1 2-1-2-1-2-1c0-2 6 0 7 2h6c3 0 3 0 2-1-2-1-2-1 0-4s1-4-11-13l-10-8c-2-2-3-3-6-2-2 0-2 0-1-1 2-1 2-2 1-2l-15-13c-2-2-5-5-7-5l-5-5c-5-7-14-13-14-10m556 7c-2 2-1 3 1 2l2 1c-1 2 0 2 1 2l2 1h-5c-2-1-2-1-4 1-3 3-5 3-9 0l-2-3c3 0 2-2 0-2l-3 1c-1 1-1 4 1 3v2l-4 3c-4 2-4 3-1 5l2 2 2 2 2 1c0 1 5 2 6 0h3c2 0 5-4 3-6s-1-4 2-4c2 0 2 1 2 3v2c1 0 2-1 1-3 0-3 0-3 2-3h3c2-1 2-1 2 1-1 2 0 5 1 3 1-3-1-6-2-5-1 0-2 0-1-2l-2-4-3-3c0-2-1-2-2 0m-400 2c0 3-1 3-4 2l-3-1-2 2c-3 1-3 4 1 4 8-2 13-5 10-7-1-2-3-1-2 0m76 0l-3 1h-1l1 1h-2c-3-1-9 0-10 2 0 2 8 2 10 1l5-2 2-2-1-2-1 1m245 5l-4 4c-2 2-1 5 2 5 2 0 2 0 2-3-1-3 5-5 8-4 2 1 4 0 4-1l-4-1-4-1c-1-2-2-2-4 1m-33 1l-6 1-7 3-5 1c-2 0-1 1 3 2 5 3 8 4 8 2l2-1c1 1 4 0 6-1l9-1c6 0 7-2 3-4-2-1-3-2-2-3s0-1-4-1-7 1-7 2m-343 2l-2 2-3 2 2 2c3 2 6 4 5 2l2-1c4 0 7-2 6-3l-1-4c0-2 0-2-5-2l-4 2m408-1l1 1 1 2 3 1h4c1 1 5 0 5-1l-1-1-2-1c-1-1-10-2-11-1m-441 7a3 3 0 01-1 4l2 1 1 1h-2l-2 1 3 1c3 0 4-5 2-6-1-1 0-1 2-1l4-1-2-1c-2 1-4 0-5-1-2-1-2-1-2 2m212 2l-2 3h6l6-2 2-1h2c0-4-11-4-14 0m247 1l-2 1c-2 0-5 8-4 9l2 1c4 0 6 0 6 2l-1 1h-1c1 2 5 0 5-2-1-3-2-5-4-4h-1c0-2 4-5 6-5 1 0 2-2 1-3 0-2-7-3-7 0m-86 7c-3 1-1 3 2 4h11c1-2-2-4-4-4h-9m-110 7l-2 2c-3 0-5-1-4-2h-9c-6-1-7-1-7 1h3l7 3 6 3 3 2h-1c-1-1-5-1-4 1l4 1a3 3 0 004-2c1 0 2-3 1-5v-2l2-2 1-1 1-1c0-2-4-1-5 2m84-1l-1 4-1 3c-3 0-2 2 0 2 3 1 4 0 3-2l2-1 4 1c2 0 1 2-1 3l-2 2v1l-1 1v3h4l2-3c-1-2 0-4 2-3l3-2c2-2 2-2 3-1h2c1-2 1-2-1-4l-2-3-1-1h-15m57 1c-1 1 0 2 2 3 4 2 11 2 12 0l-1-1-3-1c-1-2-9-3-10-1m-13 5c-1 3-2 3-6 3-5 0-5-1-3-1 3-1 4-2 2-3s-5 1-5 3-1 2-3 2-11 9-10 10l6-3-2-1c-1 1-1 1 0 0h6l4 1h8c5-2 13-2 13 0l2 2 2 1c1 2 10 4 15 3 4 0 8-4 5-4-4 0-8-2-8-5l-1-4h-17c-1-1-1-2 1-2s0-4-4-5c-2 0-3 0-5 3m-345 1v1l-2 1-1 1 5-1c4-1 5 0 4 3 0 2 1 2 3 2 3 0 4-1 3-2-1 0-1-1 1-1 2-1-2-4-5-3l-2-1h-6m387 0c-7 1-10 2-10 4l-3 1-1 3c0 2 2 2 9 1h5c1 1 22 2 22 0l-3-3-3-1 3-1 3-1c0-1-5-3-6-1 0 2-2 1-5-1-2-2-5-2-11-1m-336 2l-3 1c-5 1-4 2 1 3h1c-1-1 11-1 14 1l3-2c3-3 2-4-1-2l-2 1c0-2-4-4-7-2h-6m209 6c-1 1-3 5-1 5 1-1 5 2 4 3l-3 1c-2 0-2 0 1 1 5 1 9-4 5-7l-1-2c-1-2-3-2-5-1m-260 3l-2 3-1 1c-1-1-3 0-4 2l-5 2c-5 0-3 2 9 13l13 12 8 7c6 5 6 5 10 4 7-2 9-14 3-20l-3-3c4-2 9-9 9-12 0-2 1-3 2-3 2 0 1-1-1-3-4-3-4-3-21-2h-12c1-2-2-2-5-1m452 5c-9 1-8 3 1 4 7 1 16-1 16-4h-17m-146 6l-4 4 4-1c1-2 3-2 4-1l5 1c2 0 2 0 0 1-4 1-5 9-1 9 5 0 6-3 2-5a2 2 0 112-2c2 2 5 1 5-2a2 2 0 013-1l1 1 1-1c-2-2 1-1 2 1a2 2 0 102-3l-2-1h-4l-6-1h-5l-1-1c-1-2-3-1-8 2m34 1l-3 4c-4 2-4 3-1 6l3 4c1 1 3 2 9 2 8 0 18 2 15 3-4 1 2 3 7 2a8 8 0 008-10l-3-2c-2-2-2-2 6-1 6 0 8 0 9-2 0-1-3-5-5-5l-3-1h-3c-1 2-4 2-4 1-2-2-4-1-4 1l-1-1c-2-2-5-2-4 0l-1 2c-1 1-1 2 1 3 1 1 1 1-1 1l-2-1-2-3c-1-1-1-1 1-1 5-1 2-3-2-2a48 48 0 00-9 2c-1 1-4 6-3 7v3l-3-3-2-3 2-1c2-1 2-1 1-2l-2-3-2-1c-2 0-3 0-2 1m-143 3c-5 2-5 3-1 4 5 1 4 1 2 6l-2 6c1 3 1 3-3 4-7 2-13 10-9 12l37-3-3-1h-6l-1-2c1-3 2-4 7-5h2v2c1 1 6 0 8-2 4-3 9-2 9 2 0 2 6 0 14-3l4-3-2-2c1-2-6-5-7-4l-2-1h-1c0 2-8 4-9 2s-6-3-6-1a2 2 0 01-4-1l-1-1-3-1c-3-3-8-5-11-5l-5-2c-3-2-2-2-7-1m-226 3a3 3 0 005 4s-4 2-5 1c-5-3-8-3-9 0l-2 2-5 5 2 2v2c-2 0-2 0-1 1v1l-4 2-7 5-4 3-1 2c-2 1-2 1-2-3v-4l-6-1c-6 0-7 1-5 7 1 4 1 4 4 3h4c5 3 18 2 23-3 2-2 3-9 2-11v-2c0-2 5-2 5 0l3 1c4 0 3 4-1 5-4 0-6 3-3 3l1 2c1 3 14-1 13-4 0-1 0-2 1-1 1 2 2 1 3-2 1-1 2-3 4-3l2-1 1 1 2 2 2 1 3 1c2 0 2 0-3-5l-6-6-7-5c-5-6-7-7-9-5m284 4c-2 1-2 2-1 2 8 3 14 1 8-2-4-2-4-2-7 0m-281 6c-1 2-1 2 2 2s3 0 0 1l-4 1 2 2c3 3 3 3 3 1a5 5 0 018-2c0-2-2-4-2-3h-3l-2-2-2-1c0-2-2-1-2 1m146 1c0 3-4 6-6 4l-1 1 12 3 2 1c-1 1 9 3 10 3l-2-2c-4-1-6-3-3-5 1-2 1-2-1-3l-2-1a3 3 0 00-6 3l-1 2v-4l-1-4-1 2m-185 1h-3c-4 0-9 2-9 5 0 5 13 2 15-3 1-3 1-3-1-3l-2 1m453 0c0 1 5 2 11 2a6 6 0 015 2l2-2c0-2-18-5-18-2m-322 7c-2 2-3 3-4 1 0-2-2-1-2 1l6 1c6-1 7-2 6-4-1-3-4-2-6 1m327 0l-3 1h-4l1 3 5 1h7c3 2 4-2 1-3-2-2-4-3-7-2m-233 2c-3 1-3 1-2 3v1l1 2c6 3 13 1 11-3-1-4-3-5-10-3m-178 6l-6 1c-4 0-9 2-9 4 0 3 8 3 11 0 1-1 3-2 7-1h6c2 0 0 4-2 5l-4 2c-2 1-2 1-4-1h-3l-2 1c-2 0-2 2 0 3h3c1-2 3 0 2 2 0 2-2 3-2 1l-2-1-4-1h-2l2 2c2 0 2 0 1 1-2 1 2 3 6 3l5 1c1 1 3 0 4-1 3-2 2-4-1-2s-8-1-5-2c3-2 11-3 12-2s6-3 6-5c0-1-1-3-4-4l-2-3c0-3-3-4-5-2h-2c-1-2-3-2-6-1m327 1a21 21 0 01-13 0l1 1v1c0 2-5 2-5 1h-5l-6-1-5-2c-5 0-5 0-4 1l1 4 3 4 3 3 2 1 1 2c0 2 0 2 1 1h3l4-2 4-2 2-4 1-2h9l11 1c2 0 3-1 0-3l-1-3c1-2-3-3-7-1m53 2l-2 3 1-1h3c3 1 3 3 0 2-2 0-2 0-1 1 2 2 2 2 1 3l-1 3c1 2-4 7-5 5l-2 1c0 1 1 2 3 2 5-1 7 2 4 4-2 1-2 2-2 3l2-1h1c2 1 6-1 6-2s1-2 3-2c4 0 4-3 1-3l-3 1h-1l1-2c2-1 2-1 0-3h4l5-1c0-2-2-3-5-3-5-1-9-6-5-7 2 0 2-1 1-3l-3-1h-2c0-2-3-2-4 1m-149-1c-9 1-11 3-2 3 6-1 9 0 9 3 0 2 1 1 2-1s1-2-1-2l-1-2-1-2-6 1m206 7l-5 4-3 3 2 3 2 5c0 1 1 2 3 2l7 2c2 1 3 1 8-1 4-1 6-2 8-1l4-1 4-1c8 0 8-6 0-8l-4-2-3-1-3-2c-4-3-18-5-20-2m-35 8v3l-2 4v2c1 2 5 0 5-2 0-1 0-2 3-2l5-1c0-3-11-7-11-4m-285 2c0 2-1 2-2 2-2-1-2 0-2 3 0 2 0 3 1 2l1-2v-1l1 2c0 2 1 3 7 4l8 2 4 1c3 0 3-4 0-4l-2-3-1-1-2-1h-1a2 2 0 01-3 0c1-5 0-6-4-6s-5 1-5 2m-79 2l-2 1h-3c-2-1-13 0-11 1s0 3-2 3l-2 2-3 1c-1-1-2 0-2 1 0 2-3 3-8 3-3-1-4 0-1 2 2 1 3 4 1 4s-6 3-6 5l4 1h5l-4 2-4 3-2 2c-1-1-3 3-2 4l1-1 1-2 1 1v4l1 1 4-1c1 0 3-1 4-4 2-5 4-5 3-1 0 5 6 10 11 7h4l4 2h-4l-11 1 2 2c2 1 2 1 0 4-3 3-3 4 0 4l1-2 4-1c3 0 3 1 3 2 0 2 0 2 4 0 4-1 5-3 3-3l-1-3 3-2h4l6-2c-1-1 0-1 2-2l4-1c1-1 10 0 11 1a6 6 0 009-1c-1 1 3 2 5 1h2l3-2a3 3 0 016 0c0-2-1-3-10-11-8-8-10-8-10-5-1 2-3 3-3 1l-2-1c-3 0-3 1 0 3a4 4 0 01-4 8l4-3c2-1-2-4-5-4-2 0-3-1-2-2h-1l-3-1h-2c-1 1-3 1-3-1l-2-5c-3-4-4-5-2-5h2c1-3 4-4 7-4 4 1 4 0 1-4-3-3-5-4-5-2 0 3-2 3-4 1-1-2-3-3-4-2m198 12c3 2 3 5 0 3l-2 1c0 2 1 2 5 2l7 1c4 0 4-1 0-3-3-1-3-1-1-3v-1h-2c0-1-2-2-5-2h-5l3 2m96 2c0 3 0 3 2 2 3-2 6 1 3 4h-2c0-2-2-2-3 0 0 2 8 4 10 3v-2l-1-1c0-1 1-2 3-2 5 0 2-4-3-5l-7-1c-2-1-2-1-2 2m-370-1l-6 2 4 4 1 1 2 1 1 1h1l2-1c1 2-2 3-4 2a2 2 0 10-2 2l1 2a4 4 0 01-5-4l-2-1c-3-2-6-1-6 1l4 1 3 1-1 1c-3 0-2 7 0 7 3 1 12-3 13-5 1-3 3-2 2 0 0 2 0 3 2 3 3 1 4 0 4-2l4-2c3 0 7-1 10-3 2-2 0-3-4-3-2 0-3-1-4-3-1-3-1-3-5-3l-4-1c1-1-1-2-3-2l-8 1m329 6l-3 2-2 1a2 2 0 000 3l2 1 4 1c2 0 2 0 2-4v-5l-3 1m110 6c-1 3-1 4 2 4 2 0 2 0 1 2v1l2 1c0 2 4 1 6-1h4l2-1-7-4c-5-1-8-3-8-4l-2 2m-125 1l-3 2c-2 1-2 1 0 1l5 2 4 2c1 0 2-4 1-5v-2c0-3-5-3-7 0m-112 4l-6 4-3 1s-2 1-2 3l-3 3-1 5h3c6-2 9-2 9 0l4 3c4 1 5 1 5-2-1-3 0-4 3-4l4-2c2-2 4-1 2 2a5 5 0 109 2h2v4c1 2 1 2 4 0 2-2 3-3 0-4-2 0-5-5-3-5l1 2 7 1c6 0 8-1 4-3l-8-3-7-2c-3 0-5-2-4-4h-5c-1-2-9-4-10-4l-5 3m-186 1l-1 1-4 2-6 2c-5 0-9 1-9 2 1 2-2 4-4 4s-2 0-2 3c0 8 4 12 11 11 10-1 10-4 0-5-4-1-8-3-4-3l1-2 3-3 2-1 3-1c4 0 4 1 0 5l-3 2h4l5-1 3-2 3-1 1-1 2-3 3-2-4-3a16 16 0 01-4-4m108 8c-7 2-6 8 1 12 4 2 5 1 8-2 4-4 4-4 0-7-5-5-5-5-9-3m-12 3h-3l-12 3h6l7 1h6c1-1 1-2-1-4-1-2-3-3-3 0m42 2c-1 1 4 6 10 11 2 2 6 3 6 2l-2-2-2-2c0-2-5-7-6-7l-3-1c-2-2-3-2-3-1m-115 1c-2 2 0 4 4 4s6-1 6-3c-1-2-7-3-10-1m315 5c-2 2-3 3-3 5l1 3 4-4c6-6 4-9-2-4m79-2c0 3 6 6 7 4 1-3 2-2 1 2 0 3 0 3 2 3l3-1 2-2-2-2-2-2-3-1c-3-2-8-3-8-1m-390 4l-4 1-5 2-3 1-1 3 1 3a2 2 0 003 0l1-1c1 1 2 0 2-1 2-1 2-1 2 1l2 1v-2c0-2 0-2 2-3l2-2c0-1 0-2 2-1 3 1 5-1 2-3-3-1-4-1-6 1m63-1l-1 3-2 5v2l-1 2c1 3 7 1 7-2l1-1 2 2c-1 3 6 4 9 1l2-2-4-4-4-5-3-1h-6m-90 4c-2 1-1 6 1 7s11-2 12-4c0-1-5-3-6-2-2 1-5 1-6-1h-1m482 2l-5 2 1 2c2 2 2 2 5 0 2-2 2-2 3-1h3c4-4-1-5-7-3m-310 5c-3 2-3 2-4 1-2-2-2-2-3 0h-3c-3 0-3 2 0 4 3 3 6 3 6 1 1-1 1-2 3-1 7 1 14-1 14-3 0-6-9-7-13-2m-186 6a3 3 0 102-4h-4l2 4m33 0c-3 1-4 4-1 4 2 1 8-3 8-4-1-2-4-2-7 0"
      itemprop="regular" tabindex="-1" style="fill-opacity: 0.824; fill-rule: evenodd;"></path>
    </symbol>
    <symbol id="-posters-1650644051626-bold">
      <path d="M442 10a66 66 0 01-6 9c-12 20-14 23-18 23-5 0-6 1-4 5s1 6-2 9l-4 6-4 7a455 455 0 00-20 32 60 60 0 00-8 12l-4 7-5 10-4 7 10-13a4280 4280 0 0126-44l6-9 5-1h5v7c0 5 0 6 2 6s3 1 3 3l2 5 3 6 2 4c2 1-5 12-26 44l-6 9-7 11-6 10-5 4v1l-2 5c-3 4-2 5 1 1l4-3 2-4 4-7 33-53c11-18 14-21 20-22l10-4c7-3 11-2 14 3l3 9c0 5-1 5-4 2-6-6-12 2-7 10 1 3 1 3-1 5-6 4-6 4-7 13l-1 9 3 2 3 3-14 12c-17 14-36 32-45 43-8 9-9 10-7 10l2-1c0-3 30-33 47-47l11-10 6-4v5l2 9 1 11 1 10-1 4c-2 0-2 0 0 2s2 3 1 7v5c0 2-8 11-35 39a40 40 0 01-14 10l-13 8-46 27-4 3c0 2 4 1 8-2l14-8 23-14 15-9c1 1-3 5-6 7s-2 4 1 2l14-14 17-12 19-12c12-8 19-9 12-2-4 4-5 8-7 20-1 12-5 17-13 17-3 0-3 0-2 2 3 3 5 3 8 1 2-2 3-2 6-2h3c0-2 4-4 5-3v2l-1 4-2 4c-2 2-2 3-1 4l1 1c0 3 3 3 4 1l5-8 3-7 2-10c1-10 3-13 5-10 1 1 1 1 1-1s0-3 1-2c0 1 5-5 5-7l2-2c2-1 5-7 11-18 3-6 12-13 12-9l-12 21a15731 15731 0 00-47 80 482 482 0 00-20 32c2 1 5-3 10-11l8-14 9-15a2385 2385 0 0145-75l5-9c2-5 5-8 5-7l1-2c0-5 4-10 8-10l5-2 2-2v8l-1 8c1 6 0 8-2 8-1 0-2 1-1 2l2 2c2 0 2 1 1 7-1 5 2 16 4 19l3 6 2 7 3 4c1 2 8 2 9 0 0-2 1-2 6-2 5 1 5 1 4-1l-2-6-2-11c-2-9-3-8 1-12 3-4 3-5-2-8-3-1-3-2-3-4 1-5 2-5 11-7 14-2 13-3 19 7l10 15c5 7 5 7 5 15 0 7 1 7 3 7h3c1 2 2 1 2 0a1 1 0 112 0l4 6c5 7 5 12-1 11h-2c1 1 6 0 7-1 0-2 3-1 4 1l4 6 6 7 2 3-2 1-1 2h1c1-2 2-2 3-1l7 10 4 5a127 127 0 018 11 415 415 0 0116 24 57 57 0 017 10c2 0 3 5 2 7-2 1-2 1-2-1s0-3-2-3l-2 1c0 2-4 2-7 0h-3c0 2-3 3-3 1h-14l-2-1c-1 1-2 0-2-1h-3c0 2-1 2-5 2-5-1-6-1-8 1s-5 3-5 1l1-1c2 0 0-1-3-2l-2 1c1 2-2 1-3 0-1-2-7-3-7-2l2 2 2 2 3 1c3 0 9 2 9 4l2 1 4 1c0 1 5 1 13-1l4 1c3 3 7 4 10 2 5-4 9-3 14 1l5 4c2 0 3-1 1-2h6l3 1 1 1c3 0 3 2 1 3-1 2-2 2-4-1l-4-2 1 1 1 2c0 2 2 3 5 3l3 1h7l-3-2c-2 0-2-1-1-2s11 9 11 11l2 4 1 3-1-1h-2c-1 1-2 2-3 1h-12a52 52 0 01-15-2c-3-1-4-5-1-5l1 2a2 2 0 103-1l1-2h1l-2-1h-5l-5-1c-3 0-3 0-3 2v2l-2 1-2 1c-2-1-3 0-1 2v1l1 1v3c-2 4-3 4-3 0 1-3 1-3-1-2l-4 2h-3l2 2 2 3 2 1h2l2-1h1l1 1 3-1v-1l-2-2 1-9c3-2 7 1 7 6l1 4 4 2 3 2-1-2-1-2c1-3 5-2 6 0l2 5c3 3 3 4-2 5l-2 2h4c3-2 6 3 3 6-2 2-8 1-10-1-1-2-1-2 1-2v-1c-1-1-6-2-8-1v-1a4 4 0 012-3h-5l-3 2-2 1c0 1-4 2-6 1l-3 1c-3 3-3 3 2 3 2 0 3 0 2 1-2 1-1 2 3 2 3 0 4-1 4-2l4-1c4 0 5 2 3 3-5 1-5 1-4 2h4c3-2 6-2 10-1 3 0 3 0 1 2-1 1-1 1 1 1l3-1 4-2c2 0 2 0 1 1-1 2-1 2 2 1l3-2h1l3-2c2-1 10-1 16 1 1 1 2 0 2-1l-1-1-1-2c0-2-1-3-2 0l-4 1c-2-1-3-3-1-3l-1-1c-2 0-3-1-3-2l-1-2c-2 0-3-4-1-4l2 2c2 2 6 1 5-1l1-3v-3c2 0 10 11 10 12l3 3 2 3-2 1c-4 0-4 3-1 3h2l-1-1 2-1c2 0 3 1 3 6v5l-10 1c-10 2-13 2-10 0 2-1 0-4-3-4v2c2 2 2 2-1 5l-6 2-5-1-4-2h-4c1 3-7 4-9 2v-2l1-2h-1l-3 2c-6 0-5 0-5 3 0 4 2 8 3 5h2c2 0 3 0 3-2 1-1 1 0 1 2 0 3 0 3 1 2 2-3 5-3 4 0l-3 2c-2 0-2 0-2 2 1 1 0 2-2 2l-2-1c0-1-7-2-11-1h-7c-3-1-10 0-8 1v1c-3 1-3 1-2-1l-1-1-6 1c-2 0-3 0-2 1h3l3 1 2 2 1 1 1 1 5 2c6 3 7 3 6 0 0-4 3-4 5-1 2 2 2 2 3 0h2c0 2 2 3 2 1l2-2 4-1c3-2 5 0 3 3l1 3c2 1 0 4-3 3v1l1 2 1 3c0 2 0 2-1 1h-1c-1 1-2 1-3-1h-3l-1-4c0-2 0-3 1-2 0 3 1 2 3 0 2-4 1-5-2-4l-3 1-3 2c0 2-2 3-3 3l-2 1-2 1a2 2 0 10-1 3l1 2v3c3 2 1 5-3 5-4-1-5 0-9 3-6 5-4 10 3 5l5-2c1 0 2 0 1-1 0-2 1-3 6-3l5-2h1v3c3 2 2 5 0 6-3 1-3 3 0 3s5 2 5 5c0 4 9 9 10 5 1-2 2-2 7-2 4 0 5-1 5-2l2-2c2 0 3-1 2-2h1l4 1c3 0 4 1 4 3 0 4 3 6 9 6 5 0 6 0 6-2l-2-1-3-1 1-2 1-2 2-2 1-2c0-2 2-2 4-1 3 1 3 13 1 13l-2 1-2 1c-1-1-1 0-1 2s1 3 3 3l3 1c1 1 1-50 1-112s0-112-1-111l-1 2-5-1c-7 0-7 7-1 9a4 4 0 01-4 8h-1l-3 1c-2 1-3 2 0 3 2 0 3 2 3 7 0 3 3 8 4 5l3-3 2-5 2-2 1 16-1 16-2 2c0 2-2 1-5-1l-3-2-2-3-1-2v2l-1 2-2 2c-1 2-1 2 1 2h3l3 2c2 0 1 3-1 3-4 1-7 0-8-3l-1-3-1 2c-2 3-2 3 0 4l1 1 1 1c1-1 3 1 2 3 0 1-2 2-6 2l-9 1c-3 0-4 0-7-5l-5-6-1-1-2-4-11-13-23-32-16-23v-2l-1-1-6-6-2-3v-2l2 1c1 1 3-1 4-3s0-3-2-1h-1c1-2 0-2-2-2a3 3 0 00-4 3l-3-4-2-2v-4l1-15 1-4 1-7c0-7 4-22 6-22l1 4 1 8 1 7 2 26c0 3 0 4-2 4-4 1-3 3 0 3s5 2 4 3c0 1 7 3 8 2l1-2c0-2 14-1 18 2 5 3 5 3 17 3l8-1c0-2 2-3 2 0l2 7c0 4 1 5 2 5l5 1c1 1 7-1 7-2 0-2-2-1-4 1l-3 1 1-2c1-1 2-2 2-5s0-4 3-4l4-1h-4c-4-1-6-5-5-10v-3l-2-12c-1-12 0-12 2-14 3-3 3-7 3-22 0-16 0-16 6-17l9-2 10-2 6-1v52c0 46 0 52-2 52l-1-1-1-2-1-3-3-5-3-3v5c0 5 1 8 3 7l3 1c6 5 6 10 6-67l-1-55v16l-9 1c-21 5-22 5-22 4l-2-9c-2-10-3-12-11-16-5-3-8-5-5-5 1 0 1-12-1-14-2-4-8-4-11 0-5 6-13 5-10-1 2-3 2-4 1-5l-2-5c0-3 0-4-2-4l-5 2a13 13 0 00-12 11c-2 0-1 2 1 2l1 1c-14 6-14 7-18 24-3 11-3 11-4 9l-6-4c-5-3-8-5-10-9-3-5-13-1-13 6 0 1-1 3-4 5-5 5-9 14-9 20l-1 7-1 2-2-3-10-13c-14-20-14-20-3-24 12-5 13-9 7-15-4-4-4-10-2-14l1-4-2 2-4 5-3 5c0 3-7 13-9 13l-6 2c-4 2-12 1-12-3 0-2-1-4-3-5-2-3-2-4 2-8a768 768 0 0019-22v-1l-8 9-13 15c-4 5-7 6-8 2-1-3-11-12-13-12s-4-4-3-6 0-8-2-8-4 2-4 4-5 5-8 4c-2 0-2-11 0-15 1-1 0-4-1-8a21 21 0 01-1-8c-2 1-6-4-9-8-4-8-6-9-10-9-3 1-4 1-4-1 0-3-7-4-10-2v7l1 2c0 2 0 3-5 4-6 1-6 2-7 5 0 5-4 10-6 9-1-2 0-14 2-15 1-2 1-2-1-9l-3-10c0-6-2-8-5-11-2-2-3-3-2-5a177 177 0 0113-21l3-4 8-15-3 5m-92 12c-1 1 0 4 1 4 6 0 9 12 4 14l-9 2a2 2 0 000 3l6-1h6v4c-1 8-1 8 2 9 2 0 5 4 5 7l1 1 1 2 3 1c3-1 4-2 2-4-1-3 0-9 2-12 1-1-1-10-3-13l-2-5-9-13-2 2h-4c-2-2-4-2-4-1m95 62l-5 4-3 2-1 2c0 1 0 2 8-3 8-4 8-7 1-5M0 105l2 12c2 7 2 10-1 8H0l1 3 1 1c3 0 6 10 4 12-3 1-2 3 0 3 4-1 4 1 1 2l-4-2c-2-2-2 0-2 183v185h154l-3-5a390 390 0 00-7-13l-3-4c-4-4-4-2-6-24-1-12-1-12 1-14s3-4 1-4c-2-1-2-2-1-6 0-5 0-6-2-8l-2-5-1-6-1-5c1-1-1-8-4-12l-3-6-2-4-5-10-2-3c-3-2-10-23-10-29l-2-4-1-2 1-2c2 1 2-1 1-2a30 30 0 01-7-14l-1-3-5-8c-2 0-2 1-1 3a40 40 0 015 17c-1 1-4-4-4-7l-1-7c-3-7-3-8-2-8l2-1c1-1 0-1 0 0-2 0-3-2-1-4v-2c-3-5 2-2 17 11a2143 2143 0 0054 47l20 18 26 23a247 247 0 0020 18l5 4 36 32 12 10 7 7 10 8 11 10c15 14 15 14 22 14h7l-5-4-5-4-1-1c-2 0-6-5-7-7l-3-3-7-5-6-4c-1 0-8-9-8-11l-2-2c-7-4-6-3-19-15l-10-9-2-2-6-6-8-7-15-14a135 135 0 01-21-19c-5-3-19-16-21-20l-36-31-15-13-7-5-8-8-6-5-23-21-9-8a30 30 0 01-10-14l-3-6c-1-1-1-2 1-2v-2l-3-2-1-2v2c0 2 0 2-2 2 0-1-1-1 0 0 0 2-3 1-6 0l-2-5 1-6c0-3 2-1 2 3l1 3 2 1 2 1a33 33 0 011-4c0-2 2-1 2 1 1 1 1 1 1-1 1-2-1-3-4-1-1 1-2 0-1-2 0-2 1-2 2-1s1 1 1-1l-4-12c-2-1-3 0-2 3l1 1c0-2 2-1 2 1 0 1-1 2-3 2-3 1-4 2-4 4l-1 2-1-2-1-2-3-12c0-2 1-2 2-2 1 1 2 0 3-1l3-2c2 0 0-7-5-14l-1-3-3-6c-4-8-4-6 1-10 4-2 5-2 4-4-1-3-2-2-8 0-7 4-9 4-9 3a2 2 0 013-2 1 1 0 102 0l-1-2c-1 0-2-4-1-5v-1h-1l-2-3-4-5-2-6-2-6-1-4-4-7-3-5v-1l-2-6-5-10c-1-6-2-7-2-5v5l1 6 2 6 1 17-1-6-3-9c-2-1-3-3-2-4l-2-5-7-20-5-20v5m478 25l4 12c4 13 4 14 0 17-3 2-4 8-2 16l2 4 3-3c2-3 3-5 3-9l3-8c2-5 2-8 1-12l-1-8c0-5-1-5-4-1l-2 2-1-3c-1-3-6-9-6-7m-12 41v10l3-2c2 0 2-1 1-2l-1-4c0-4-2-5-3-2m84 5l2 3 2 3c-1 1 1 4 3 7 5 6 5 7 1 10l-3 4-1 4c-1 2-1 2 7 1 9-2 9-4-1-19-6-10-10-15-10-13m-37 1c-3 4-4 17-3 20l2 3 2-2 1-6 1-7c2-3-1-11-3-8m65 8c-4 9-3 23 1 19l5-1c3-1 4-5 2-9v-5c2-6-5-10-8-4m-109 13c-2 0-4 2-4 5-1 2-3 5-6 5-1 0-8 6-17 17-15 14-18 19-11 14l15-9c10-7 13-9 13-11s1-3 5-3c6 0 14-5 11-8l-1-4c0-8 1-7-5-6m182 1v12l-1 6-3-1c-2-1-2-1-2 1v14c-1 16 1 19 10 15l6-1c2 0 3 0 2 1v2c1 1 1 1-1 1l-4 1h-2c-2-2-4-1-4 2 0 4 2 5 6 4 5 0 11-4 9-6l-2 1h-3l3-2 1-1c-2 0-2-1-2-2a72 72 0 00-3-27l-4-11-3-8c0-2-1-3-3-1m-70 8l-4 2 6 8c7 10 7 10 7 2-2-14-2-14-9-12M53 217c0 1 0 2-2 2s-3 5-1 5l2 5c0 3 1 5 2 5l1-2 1-1 1-2c0-1 0-2 2-1s1-2-1-3l-3-3h1c2 1 1-3-1-5s-2-2-2 0m579 9v12c-1 8 0 11 2 11s2-10 1-21l-1-6c0-5-2-1-2 4m60 52c-1 2-2 3-1 4 2 4 0 7-5 8-8 0-9-1-7-7v-2l-3 2c0 2-1 2-4 2-9-2-9-2-9-5 0-2 0-3-2-2s-3 2-3 5l-1 2-1 1c-1 2 0 2 2 2 5-1 7 0 6 4l1 4 1 2 1 3 1-2 1-4c1-2 1-1 1 4l1 3 1-3c-1-3 0-4 1-2h2c1-2 2-1 2 2l2 2 1-2c0-2 1-3 2-3l1-2c-1-1 0-1 3-1l9-2-1-1 1-1c1 1 2 0 3-1v-2c-3-1-2-2 0-1 3 0 8-2 7-4h-4c-1 2-7-1-6-3 0-3-1-2-3 0M2 304c0 1 3 8 6 11 1 2 1 2 2 1 2-2 1-3-2-7l-3-5H2m679 3l-2 3v5c0 4 0 4-2 5-2 0-2 2-1 5a17 17 0 0018 0l-2 1c-1 2-2 0-1-3l3-2c1 1 2 0 2-1s2-3 3-1a3 3 0 005-4v-2c1-1 0-1-1-1-3 0-3 0-3-2 1-1 0-3-1-4l-1-1-1 3-3 3c0 2 0 2 1 1 2-1 2-1 1 1s-3 4-3 2c0-1-6-5-7-4v1c1 1-1 5-3 5-3 0-2-8 2-11l-1-2-3 3m-204 28c0 3 1 4 5 4l4 1c2 1 7 2 8 1s1-1-1-1-7-2-9-4c-1-2-7-2-7-1m30 2l-7 1c-5 1-5 2-2 5 2 2 2 2 5 1h12l4-2c4-1 3-2 0-3-2 0-3 0-3-2s-6-3-9 0m39-1h-6c-1 0-4 2-3 3l2 1h9l4 1-1 1-2 3-2 2-1 2 4-3c4-5 5-5 6-4l2 1-1-2-1-4c1 0 1-1 0 0l-2-1h-8m-450 7l-1 1a1 1 0 10-1 2c1 0 2 1 2 4l2 7c2 3 5 4 4 1a95 95 0 01-5-15h-1m-7 21c-2 2-1 4 1 4a1 1 0 110 1c-3-1-3 6 0 14 2 5 3 5 2 1l1-4 1 2 1 1 1-2 1-3c1-1 1-6-2-9l-3-4c-1-2-2-2-3-1m621 12l-2 1-1 2c-2 1 1 7 4 8s7 1 7-1h2v2c-3 1-2 4 1 5 2 0 2 0 2-8 0-10-2-11-13-9m-101 54v11h3c3 0 3 0 1-2-1-2-1-4 1-7v-2h-1l-1 2v-2c0-3-2-3-3 0m-448 5l-2 1c-1 0-6 2-5 3 2 2 7 3 9 2l1-1c-2 0-3-3-1-5v-1l-2 1m553 15l-2 1-2 1c-3 1-3 2 1 3 6 0 8-1 7-3 0-3-1-3-4-2m-75 5a7 7 0 01-7 1l-4-1-3 1 1 3c0 2 0 2 1 1 1-2 1-2 2 1 2 4 4 6 4 4h3c2 1 2 1 3-1l3-1-1 2-1 5c0 4 0 4 1 2v-3l4-4 2-2c-2 0-2-1-2-3s1-3 2-3c1-1 0-1-3-1-3 1-4 0-4-1h-1m37 4v4l-1 6c0 3-1 4-5 4-3 0-4 0-6-2s-7-3-9 0c-1 1-1 1 4 1h3c-5 1-1 4 5 4h6l-1 1c-3 0-3 2-2 4 2 2 7 1 6-1l1-2 3 1-1 1a6 6 0 001 7h9l2 1c2 0 2 0 2-2l-1-2-2-1c-3 0-6-4-3-5v-5l1-1h-2l-3-4c-2-3-2-6 0-3l7 3 6 3h1c1-2 0-4-2-3-2 0-5-3-5-6 0-2-2-3-2 0-1 1-1 0-1-1 0-4-2-4-2 0l-1 2-1-3c0-1 0-2-1-1l-1 2-1 3-1-2v-5c-3-2-3-1-3 2m23-2l2 4v2c-3 0-1 3 5 6s6 3 7 1c1-1 2-2 3-1s4 0 4-2l2-1 1-2c0-2 0-2-4-2-3 1-3 1-3-1h-2c-2 0-4 0-5-2-3-3-10-4-10-2m-60 46c1 3-1 3-3 2l-3-2v1l-1 3-1 1h-1l-1 2c0 2 1 2 8 2h8v-4c0-3-1-4-2-4l-3-1h-1m11 2c-3 2-2 3 0 3l3 2c0 2 2 3 3 1l13-1c2 0 4-2 4-3h-17c-2 0-2-2 0-2l1-1c-2-2-6-1-7 1m52 3v2c0 2 1 2 8 2l7-1-4-1-5-1c0-2-4-2-6-1"
      tabindex="-1" itemprop="bold" style="fill-opacity: 0.861; fill-rule: evenodd;"></path>
    </symbol>
  </defs>
  <use class="background" href="#-posters-1650644051626-background" fill="url(#-posters-1650644051626-background-gradient"></use>
  <use class="light" href="#-posters-1650644051626-light" fill="url(#-posters-1650644051626-light-gradient" filter="url(#light-filter)"></use>
  <use class="regular" href="#-posters-1650644051626-regular" fill="url(#-posters-1650644051626-regular-gradient" filter="url(#regular-filter)"></use>
  <use class="bold" href="#-posters-1650644051626-bold" fill="url(#-posters-1650644051626-bold-gradient" filter="url(#bold-filter)"></use>
  <use class="emboss" tabindex="-1" href="#-posters-1650644051626-light" fill="url(#-posters-1650644051626-light-gradient" filter="url(#emboss)"></use>
  <use class="emboss" tabindex="-1" fill="url(#-posters-1650644051626-regular-gradient" href="#-posters-1650644051626-regular" filter="url(#emboss)"></use>
  <use class="emboss" tabindex="-1" fill="url(#-posters-1650644051626-bold-gradient" href="#-posters-1650644051626-bold" filter="url(#emboss)"></use>
  <defs>
    <g class="gradients">
      <radialGradient gradientUnits="userSpaceOnUse">
        <stop itemprop="radial" stop-color="hsla(56, 8%, 36%, 1.00)" offset="0%"></stop>
        <stop itemprop="radial" stop-color="hsla(53, 7%, 51%, 1.00)" offset="15%"></stop>
        <stop itemprop="radial" stop-color="hsla(51, 7%, 59%, 1.00)" offset="30%"></stop>
        <stop itemprop="radial" stop-color="hsla(51, 7%, 58%, 1.00)" offset="45%"></stop>
        <stop itemprop="radial" stop-color="hsla(51, 7%, 55%, 1.00)" offset="60%"></stop>
        <stop itemprop="radial" stop-color="hsla(51, 7%, 55%, 1.00)" offset="75%"></stop>
        <stop itemprop="radial" stop-color="hsla(53, 7%, 51%, 1.00)" offset="90%"></stop>
      </radialGradient>
      <linearGradient gradientUnits="userSpaceOnUse" x1="0" x2="0" y1="0" y2="100%">
        <stop itemprop="vertical" stop-color="hsla(56, 8%, 36%, 0.71)" offset="0%"></stop>
        <stop itemprop="vertical" stop-color="hsla(54, 7%, 51%, 0.71)" offset="15%"></stop>
        <stop itemprop="vertical" stop-color="hsla(51, 7%, 59%, 0.71)" offset="30%"></stop>
        <stop itemprop="vertical" stop-color="hsla(51, 7%, 58%, 0.71)" offset="45%"></stop>
        <stop itemprop="vertical" stop-color="hsla(51, 7%, 55%, 0.71)" offset="60%"></stop>
        <stop itemprop="vertical" stop-color="hsla(51, 7%, 55%, 0.71)" offset="75%"></stop>
        <stop itemprop="vertical" stop-color="hsla(53, 7%, 51%, 0.71)" offset="90%"></stop>
      </linearGradient>
      <linearGradient gradientUnits="userSpaceOnUse" x1="0" x2="100%" y1="0" y2="0">
        <stop itemprop="horizontal" stop-color="hsla(56, 7%, 39%, 1.00)" offset="0%"></stop>
        <stop itemprop="horizontal" stop-color="hsla(51, 7%, 57%, 1.00)" offset="15%"></stop>
        <stop itemprop="horizontal" stop-color="hsla(51, 7%, 58%, 1.00)" offset="30%"></stop>
        <stop itemprop="horizontal" stop-color="hsla(51, 7%, 54%, 1.00)" offset="45%"></stop>
        <stop itemprop="horizontal" stop-color="hsla(51, 7%, 52%, 1.00)" offset="60%"></stop>
        <stop itemprop="horizontal" stop-color="hsla(53, 7%, 50%, 1.00)" offset="75%"></stop>
        <stop itemprop="horizontal" stop-color="hsla(50, 9%, 38%, 1.00)" offset="90%"></stop>
      </linearGradient>
    </g>
    <g class="generated gradients">
      <radialGradient id="-posters-1650644051626-background-gradient" gradientUnits="userSpaceOnUse">
        <stop stop-color="hsla(56, 8%, 80%, 1)" offset="0%"></stop>
        <stop stop-color="hsla(53, 7%, 80%, 1)" offset="15%"></stop>
        <stop stop-color="hsla(51, 7%, 80%, 1)" offset="30%"></stop>
        <stop stop-color="hsla(51, 7%, 80%, 1)" offset="45%"></stop>
        <stop stop-color="hsla(51, 7%, 80%, 1)" offset="60%"></stop>
        <stop stop-color="hsla(51, 7%, 80%, 1)" offset="75%"></stop>
        <stop stop-color="hsla(53, 7%, 80%, 1)" offset="90%"></stop>
      </radialGradient>
      <linearGradient id="-posters-1650644051626-light-gradient" gradientUnits="userSpaceOnUse" x1="0%" x2="0" y1="0" y2="100%">
        <stop stop-color="hsla(56, 8%, 60%, 0.9)" offset="0%"></stop>
        <stop stop-color="hsla(54, 7%, 60%, 0.9)" offset="15%"></stop>
        <stop stop-color="hsla(51, 7%, 60%, 0.9)" offset="30%"></stop>
        <stop stop-color="hsla(51, 7%, 60%, 0.9)" offset="45%"></stop>
        <stop stop-color="hsla(51, 7%, 60%, 0.9)" offset="60%"></stop>
        <stop stop-color="hsla(51, 7%, 60%, 0.9)" offset="75%"></stop>
        <stop stop-color="hsla(53, 7%, 60%, 0.9)" offset="90%"></stop>
      </linearGradient>
      <linearGradient id="-posters-1650644051626-regular-gradient" gradientUnits="userSpaceOnUse" x1="0" x2="100%" y1="0" y2="0">
        <stop stop-color="hsla(56, 7%, 50%, 1)" offset="0%"></stop>
        <stop stop-color="hsla(51, 7%, 50%, 1)" offset="15%"></stop>
        <stop stop-color="hsla(51, 7%, 50%, 1)" offset="30%"></stop>
        <stop stop-color="hsla(51, 7%, 50%, 1)" offset="45%"></stop>
        <stop stop-color="hsla(51, 7%, 50%, 1)" offset="60%"></stop>
        <stop stop-color="hsla(53, 7%, 50%, 1)" offset="75%"></stop>
        <stop stop-color="hsla(50, 9%, 50%, 1)" offset="90%"></stop>
      </linearGradient>
      <linearGradient id="-posters-1650644051626-bold-gradient" gradientUnits="userSpaceOnUse" x1="0" x2="100%" y1="0" y2="0">
        <stop stop-color="hsla(56, 10%, 8%, 1)" offset="0%"></stop>
        <stop stop-color="hsla(54, 10%, 8%, 1)" offset="15%"></stop>
        <stop stop-color="hsla(51, 10%, 8%, 1)" offset="30%"></stop>
        <stop stop-color="hsla(51, 10%, 8%, 1)" offset="45%"></stop>
        <stop stop-color="hsla(51, 10%, 8%, 1)" offset="60%"></stop>
        <stop stop-color="hsla(51, 10%, 8%, 1)" offset="75%"></stop>
        <stop stop-color="hsla(53, 10%, 8%, 1)" offset="90%"></stop>
      </linearGradient>
    </g>
  </defs>
  <defs>
    <filter id="light-filter">
      <feColorMatrix in="SourceGraphic" type="matrix" values="1.5 0 0 0 0
                0 1.5 0 0 0
                0 0 1.5 0 0
                0 0 0 1.5 0"></feColorMatrix>
    </filter>
    <filter id="regular-filter">
      <feColorMatrix in="SourceGraphic" type="matrix" values="1.5 0 0 0 0
                0 1.5 0 0 0
                0 0 1.5 0 0
                0 0 0 1 0"></feColorMatrix>
    </filter>
    <filter id="bold-filter">
      <feColorMatrix in="SourceGraphic" type="matrix" values="1 0 0 0 0
                0 1 0 0 0
                0 0 1 0 0
                0 0 0 1 0"></feColorMatrix>
    </filter>
    <filter id="emboss">
      <feConvolveMatrix kernelMatrix="3 0 0
                      0 0 0
                      0 0 -3"></feConvolveMatrix>
    </filter>
  </defs>
</svg>
