<svg id="-posters-1650742391604" itemscope="" itemtype="/posters" itemid="/+/posters/1650742391604" viewBox="0 0 660 512" preserveAspectRatio="xMidYMid slice" tabindex="0" xmlns="http://www.w3.org/2000/svg"><defs><symbol id="-posters-1650742391604-background"><rect itemprop="background" width="100%" height="100%" tabindex="-1"></rect></symbol><symbol id="-posters-1650742391604-light"><path d="M0 2c0 1 0 2 1 1l7 1h6l-4 1C6 6 6 6 9 6s3 0-2 5c-1 2 0 13 1 13l4-2c4-6 13-8 12-3l1 3c1 2 0 3-2 2s-2-1-1 3v6c0 3 2 5 2 2l2-2-1 6c-2 2-1 8 1 8s2 1 2 6l-1 11c0 5 0 6-2 6l-3 1c-2 0-2 0-2-2 1-2 1-3-1-3l-1 3c1 2 0 3-1 3l-3 1h-3c-4-2-5-1-5 2 0 7 1 9 4 9 2-1 3 0 1 2l-1 1c2 2 2 12 1 16l-1 6-3 7c-2 5-2 6-1 9v5c1 2 1 2 12-1l8-2c2 0 1 2-1 3-3 1-4 5-2 8l1 4v4c1 1 1 2-1 4-3 3-4 5-1 3 1-2 3-1 1 1l-1 5c0 2-1 3-2 3l-1 3c0 2 0 2-1 1l-2-4c0-2-3-3-3-1l-1 1-3 2-2 1c-1 0-2 1-2 3v6l1 1c2 0 2 0 1 1-2 2-1 16 1 16l1 6 1 8-1 8v6c0 2-4 3-7 2H0v90l1 91 1-5c0-5 2-9 5-9v32c-1 2-5 3-5 1v-6l-1-7c-1-2-1 8-1 30 0 30 0 34 2 34v-2c-2-3-1-6 1-6l3-1H3l-2-1 1-6 3-11-1-2c-3-2 0-7 4-7s6 2 4 3l1 3c2 2 2 3 1 6-1 4 0 10 1 11l-1 2-1 3v8c-2 1-2 4 0 4v5l-4 1c-1 0-2 0-2 2-1 2-1 2-3 0s-2-3-1-3c2 0 4-3 3-3H5l-2 1c-1 0-2-1-2-3v-3l-1 15c0 9 0 15 1 14 1-4 6-7 6-3v7c0 7 3 7 3-1l2-7h9l3 1c1 0 2 0 1 1l-1 6c0 5 0 5 3 5 2 0 3 0 2-1-1-2 3-2 5-1 0 1 2 2 5 2h5v-4l1-4 1 4c-1 4-1 4 2 4h3l-1-6v-54c0-11 0-11 7-13 5-1 8 0 4 1s-4 3-1 3c2 0 3-1 3-2l3-3 2 1-1 5c0 4-1 5-2 5l-2 1c0 2 0 2 1 1a2 2 0 110 5c-2 0-3 2-1 3 2 2 1 10-1 10-1 0-1 2 1 4 1 2 1 2-1 2l-2 1h2l2 1c0 2-3 4-5 3l-1 2c0 2 0 2 2 1l3-1c2-1 3-4 4-14l6-2 3-1 6-2h5l-1-5c-2-24 0-36 5-35 1 1 2 0 3-1s5-2 6 0l-1 5c-1 4-1 5 1 6v6l-1 1-1 4c0 10 0 12-1 11l-2-1c-1 1 0 2 1 3 3 2 4 5 2 4s-2 0-2 1 1 2 2 1c2 0 2 0 1 2v8l-1 8-1 7v2c2 3 2 4 1 4l-2 2v1c2-1 2-1 2 5 1 4 0 4-3 4l-1 2 1 3c0 2 8 1 8-1l3-3v2c-1 3-1 3 1 3s3-1 4-4c2-4 5-8 7-7 1 1 1 1 1-1h1l-1 2-2 6v4h7c7 0 7 0 7-2v-2l2 2c1 4 8 3 9-1 0-2 1-3 3-3s3 1 1 2c-3 1-2 3 1 3l3-2c0-3 2-2 2 1l2 2 1-8 1-11 2-9c0-10 0-9 10-8l1 18c-1 18 0 18 2 18l3-2c2-2 3-3 17-2 6 0 7 0 7 2-1 1 0 1 1 1 3 0 4-4 3-8l-1-6-1-3c-1 2-4 0-4-1l2-1a1 1 0 100-2c-3 1-2-15 1-19 6-8 7-8 12-8 4 0 5 0 4 1v2c2 0 2 1 2 7v14l-1 4v12c1 4 1 8-1 7l-2 1c-1 1 1 1 4 1h5l1-4c1-9 4-8 3 2l2 2c2 0 3-1 3-4a3 3 0 116 1c-3 1-2 3 1 3s4-1 7-5l5-7c3-2 17-3 15-1s-1 3 1 3 3 3 1 7c-1 3-1 3 1 3l2-1 1-1v1l5 1c3 0 4 0 4-3l1-2v5h30c25 0 29 0 28-1a1 1 0 111-2h2c1-1 1-1 2 1s2 2 23 2h21l-1-3v-3l1-3 1-3h2c-2 2-1 4 1 4l2 2c0 2-1 3-2 2l-1 2c0 2 1 2 20 2s23-1 20-4c-1-3 0-13 2-11l2-1c1-1 17-3 18-2s-1 1-5 1-4 3 1 4c3 1 6 4 4 5l-1 5c0 3 0 3 3 3 5 0 5-1 5-19 1-21 3-25 12-24l2 2 2 1c1 0 2 5 0 6-2 2-2 7 0 8s2 2 1 3l-1 3c0 3-1 6-2 5l-5-1c-4 0-4 2 0 4 2 0 3 2 3 2l2 2 2 1-3 1c-2 0-2 0-2 3l1 3 15-1h23c-1 1 4 1 16 1 16 0 18 0 18-2 0-1-5-3-7-2v-4c-6 2-7 2-7-2-2-12-2-13 2-10h3l2-2c2 0 5-4 4-6v-2c1-2 1-4-1-7-2-4-2-5-1-5l2 2c0 2 1 2 2 2h2l2 1c3 0 3 2 0 6-2 4-2 4 0 6v5l-1 7v9l-1 4h9l20-1h10c1 1 2 1 5-1 6-3 9-4 8-1v3h27c31 0 29 1 30-9 0-4 1-7 3-9l2-2v10c0 8 0 10 1 7l1-257V0H0v2m66 2v12c0 5 3 5 9 2 4-2 5-4 5-11V3h-7l-7 1m17 9v13l1 24h3c3 0 5-5 4-8V13l1-2 1-4 1 3v23c-1 3 0 8 2 9v-4l1-5V7a3 3 0 014-1v23c1 3 3 4 3 2l2-3 1-5c0-4 2-10 3-10v5c0 4 0 4 2 4a2 2 0 111 2c-3 1-4 4-2 7l1-1c3-7 6 7 6 34 0 2 5 1 8-1s4-4 2-4l-2-1-1-2c-2-1 1-3 4-3 2 0 2 0 1-31V5c2-1-1-2-8-2-4 0-5 1-5 2h-3c-1-1-5-2-16-2H83v10m78-10l-1 15v7a174 174 0 000 50c-1 3 1 4 3 1s4-4 4-1 3-2 3-5l2-2c2 0 4-2 4-4-1-2 1-4 3-2 1 2 2 2 4 1l4-1c1 0 4-1 5-3l6-5c2-1 3-5 3-12l1-6c2-4-1-4-6-2l-5 3-6 2-5 2-1 1c-2 1-5 1-5-1l3-3c2-3 2-3 0-4-1 0-2-1-2-3s0-2 1-1c2 3 4 2 5-1 2-6 3-8 5-7l1-2c0-2 1-3 3-3s3 1 0 2c-2 2 0 4 2 3 3-2 5-17 2-18l-33-1m76 1v7c0 7-1 7-3 8-4 0-7 3-7 5-1 2-1 2-2 0-1-3-1-3-3-2-11 3-14 6-14 21-2 26-2 41 1 57 0 3 0 3 4 2l5-1 3-1 1-2 1-1 1-9V72c-2 0-2 0-1-2 2-1 3-6 1-6l-1-3c1-3 2-15 2-31 0-5 1-4 2 1l1 7v18l1 2v-3l3-3 3-4c0-4 2-5 3-3a83 83 0 001 7c1 2 3 2 6-1s4-7 3-8l1-2V16l-1-12-5-1-6 1m47 0l-5 1-4 1-9 3-8 3c-5 2-8 13-4 21l1 9 1 6v3c0 3 2 3 5-1l5-3c2 0 3-1 1-3-1-1-1-1 2-1a10 10 0 006-3v-3a36 36 0 003-21c1-1 1-3-1-5-1-1-1-1 1-2l1-1 2-1c3 0 3 0 2 3-1 2 3 5 6 4l2 1c2 1 4 0 4-2l1-3 1-2a4 4 0 00-5 2l-1-2-2-1h-1l-1-1c-1-1 1-1 4-1l6-1h-13m48 0l-3 1v4l-2 26a303 303 0 002 25l2 6 4-3c2-2 3-3 4-2l1-1c-1-1 0-3 1-4v-3l-2-3-1-1c-3 0-4-4-3-6l2-2 1 2v4l6 3v-8a25 25 0 011-10V22l-1-10V9c2-3 2-4 1-5h-13m43 0l-8 2-7 2c-7 3-9 6-10 18-1 7 0 9 1 11 1 3 3 3 3 0 0-2 3-3 5-1h2l3-1c3 0 9-8 9-12l2-15V7l-2-1 3-1c3 0 3 0 2 1v1l1 14 1 14v7l-1 5 1 14c0 8 1 10 2 10l1 1-2 1c-1 0-1 2 1 3s5-11 4-23l1-10V22l1-13V3h-4l-9 1m43 0l3 1 3 1c0 1-3 2-4 1-1-2-2 0-2 5 0 8 2 10 6 7l6-4c3-1 3-1 3-4-1-2 0-4 1-5s1-1-1-2h-15m62 0c-4 1-8 5-9 9-2 3-2 28-1 31 2 3 4 0 3-3-1-1-1-2 1-3 2 0 2-1 2-2-3-9-1-15 6-15 3 0 3 0 2-2l1-3c2 0 2-1 2-3v-3c2 0 4 2 2 3-3 1-1 3 4 4l6 1c1 1 2 1 2-1 1-2 0-3-2-2-1 1-6 1-7-1l3-1c3-1 3-1 2-2V7c1-2 1-3-1-3h-16m31 0c-2 0-2 1-1 2 2 3 2 12 0 20l-1 6-1 3v24c2 3 3 2 3-1 0-4 0-6 2-6l3-2 4-5c1-1 2-1 1-3l-1-4h-1l-1 1c0 3-2 7-4 7l-1-2 1-4 3-4c4-4 6-10 4-13v-4c1-6 1-13-1-13s-2 0 0-1 2-1-1-1h-8m64 2v9c1 4 2 5 2 2s4-4 6-2c2 3 7-2 7-6 0-2 0-3 3-3l4-2c1-1 0-1-10-1h-12v3m36-2c-1 0-1 1 1 11l1 13 1 9-2 14c-1 14-1 20 1 22 2 3 12-2 13-5 1-2 1-2 2-1 2 2 4 1 4-3l1-5v-2c-1-2-1-17 1-23 0-4-1-5-4-3-2 2 0-4 2-6 1-2 1-6-1-7-1-1 0-5 1-9 1-6 1-6-10-6l-11 1m31 3l-1 4c-2 1-1 4 1 4 4 2 5 4 1 4-4-1-4 0-1 3l2 2h-2c-2 0-2 0 1 1l2 2-1 3c0 2 0 2 2 1 2-2 3-3 2-4 0-2 1-5 5-6l2-4 3-3 1-5V4h-17v3M182 5c-2 1-2 7 0 7s2-1 2-3l1-1 4-2 4-2h-5l-6 1m363 1c-2 2-3 5-3 18 0 16 0 16 2 16l1 2-2 13-1 15c-3 14-2 31 1 31v1a3 3 0 102 5c3-1 4-2 3-4v-4c0-5 2-3 2 2 1 4 3 7 3 4l3-3c3 0 4-1 4-4l1-3c2 0 3-5 2-9-1-3 0-4 1-5v-2c-1-1-2-10-1-11l1-5-2-30c0-2-1-3-2-3l-4-4-4-3-5-6a6 6 0 014-9c-2-1-1-3 1-3 2-1 1-1-1-1l-6 2M404 9c-13 6-12 5-12 20 0 16 0 17 9 14 5-1 7-3 9-7l2-5 1-12 1-12c1-3-2-2-10 2M204 9c1 5 4 7 5 3 0-2 1-3 2-3 2 0 2 0 1-1V7c1-1-1-1-3-1-5 0-5 0-5 3m-56 0l-4 1c-4 0-10 10-7 11s7-1 7-4l4-6c5-4 4-5 0-2m384 2c-2 2-5 23-2 23 2 0 4-5 3-8l1-4c2-4 2-7 0-8v-2c0-2 0-2-2-1m-77 3l-2 3-1 1c-1 0-2 7-1 9v4c-2 3-2 6-2 11v9c-1 1-2 8-2 18v21c-1 5-1 5 1 4 3-2 4-1 3 1s0 4 3 4c2 0 3 0 2-1s-2-4-1-5v-3l2-1-2-1-2-1h2c2 0 2 0 2-4v-7l-2-1c-3-1-4-3-1-3l3-3 1-2 5-8-3 1c-3 1-5 0-3-2v-2l3-2 1-1-2-1c-3 0-2-2 1-3 2 0 2 0 1-2-2-1-2-2-1-4v-3l-2 2-2 1c0-1 2-5 4-6l1-3 1-2c2-2 1-4-2-3-4 0-4-2-1-4 2-2 3-6 2-11 0-2-3-3-6 0M36 20l-3 2v22l-1 2v1c-2 0-3 29 0 32 2 4 2 4 6 0l3-3V52c0-23 0-25-2-27-2-3-2-3 0-5 2-3 0-3-3 0m283-1l-3 1c-3 0-14 8-16 11v14c2 4 2 18 1 21-1 2-1 2 1 2l2 1h1c0-3 2-6 4-6 3 0 5-1 4-2h2l4-1c0-2 0-2 1-1s1 0 1-3c-1-4-1-4 2-4l3-1-1-1-2-2-2-3c-2 0-6-6-6-8 0-4 3-4 4 0 1 3 2 2 3-1v-6a24 24 0 014-11h-7m167 3l-2 2v2l-2 5c-3 2-4 5-2 5v5c0 5 0 5 1 4l3-2c2 0 3-4 2-6l2-7c3-7 4-10 1-10-2 0-3 1-3 2m111 0l-7 3-3 1-7 2c-5 3-5 3-7 10-2 8-2 28 0 30 1 2 2-5 1-7s2-5 4-4l2-3 2-3c1 1 2 0 2-1a1 1 0 112 2c-1 3 0 15 2 15l1-1c0-2 7-4 8-2 3 2 6 1 6-2s0-3-2-2l-3-1c0-1 2-3 4-3l3-6c2-9 2-14 0-13l-2-1 2-1c3-1 3-5 0-8v-3l2-2c0-3-3-2-10 0M73 26l-3 4h-2l-3 1-3 1-5 2-5 1c-3-2-5 1-5 8l-1 9c0 3 3 3 4 0s2-3 4-3c4 0 8-3 8-6 0 0 1-2 3-2 2-1 3-4 1-4v-2c1-2 4-3 4 0v17c-1 1-2 44 0 49 0 3 2 1 1-2l1-3 1 3 1 1c1 0 2-8 2-32 0-22 0-24 2-22 1 1 2 0 2-6 0-7 0-8-2-8l-1-4c1-6 0-6-4-2m79 7l-2 2-3 1c-4 0-9 3-10 5l-1 3c-1 2-2 15-1 17 1 3 0 7-2 8-2 0 4 4 7 4l4 2c3 2 3 1 4-9 0-8 0-10 2-8l1 5c-2 11-1 18 2 16v-3l1-2 1-4v-6l-1-4c-2-2-2-2 0-3 2-2 2-2 1-3l-1-2h-1l-3 2c-1 2-2 1-2-2v-5c-1-1 1-6 3-6v3c0 1 1 2 2 1 2-1 2-5 0-7-1-2-1-2 1-3s1-3-2-2m135 0c-2 0-3 2-1 3v8c-1 0-1 1 1 1 2 1 4-1 4-6 0-7 0-8-4-6m243 6c-2 8-2 20-1 20 2 0 3-3 2-5l1-3 1-3 1-4v-2l-1-4c0-4-3-3-3 1m-98-1l-4 2-4 3-6 5c-2 0-4 2-4 3l-2 2-1 1c-1 3-4 1-4-3 0-2-4-3-6-1-2 3-4 12-3 17 2 12-1 30-4 24s-14 3-14 11l-1 2-1 6-2 5c-1 1-2-4-1-5v-8c2-1 1-2-1-2-3-1-4-3-1-3l3-1-1-1c-3 0-3-2-2-5l2-7V59c0-10 0-11-2-11s-3-2 0-3c1-1 1-1-1-1s-6 2-9 5l-3 2c-1 1-2 6-2 17l-1 6c-1 1 0 5 2 9v2c-2 1-2 28 0 29h2c1 0 2 5 1 7s-1 2-2 1c-2-1-3 2-2 4v6l1 3 5-2c5-1 6-2 6-4s1-3 2-3c2 1 3 0 2-2v-3c1-3 3-3 3 0 0 5 5 9 8 6l3-2 1-1c-1-1 0-1 1-1 2 0 2 0 1-1-2-2-2-5 1-8l3-3 1 4c1 3 2 4 4 4 7 0 12-5 10-10l-1-10c2-15 2-15 0-16s-2-8-1-13v-4c-1-1-1-1 1-4 2-4 2-4 4 2l3 6 1-1c-1-2 3-5 7-5 3 1 5-1 5-7 0-5 1-7 3-7l2-3c0-2 1-2 2-1v3c-1 3 2 2 4-1 2-5 1-9-3-8-2 0-2 0-1-1 0-2-1-2-4-1m-247 4l-1 1v2l2 2c2 0 2 2 0 6-1 1 0 6 1 6l3-3 1-6c0-4 0-4-2-5s-3-1-2-2v-2l-2 1m459 3c-8 3-11 9-6 13 1 1 1 1 0 0-2 0-2 0-2 3 0 8 1 12 3 9l2-2c2 0 2 0 2-2-1-2 3-5 4-3 1 1 1 2-1 3l-1 2 2-1 3-4 2-7V46c2-4 0-4-8-1m-542 1c-3 2-4 3-4 10v9c0 6 2 8 5 5l4-2c2 0 2-1 2-3l2-5c2-2 2-13 0-13v-1h-9m184 3v3c1 1 0 2-1 4-3 1-3 2-3 6 1 4 0 5-1 5v18c-4 7-3 23 0 20l1 2c0 1 0 2 1 1l2-1V97l-1-3c-1-1-1-1 2-1 3 1 5-1 4-3 0-2 0-2 2-2 3 0 3 0 3-4 0-5 0-5-1-3-3 2-4 0-3-3a24 24 0 00-1-15c0-11-2-17-4-14m148 4c-2 2-2 6-1 8 1 3 3 2 4-1l2-4v-3h-5m-42 2c-2 4-2 24 0 21l1-9 1-10v-2c-1-2-1-2-2 0m-118 2l-3 1-2 1 2 1c2 0 2 1 2 4-1 4 1 4 3-1 1-5 0-10-2-6M57 59c-4 2-5 3-6 14l1 9 1 4c-2 3-2 13-2 26 0 16 0 18 3 18l4 2c1 1 1 1 3-3 3-4 4-19 3-44l1-22c1-2 0-6-2-6l-6 2m204 1c-1 1-2 2-2 5l-1 4-2 23a600 600 0 001 35c-1 2 0 17 1 20s2 3 6-2l4-3-1-21a2905 2905 0 00-1-42 27 27 0 00-1-11l1-3 1-4c0-2-2-3-6-1m-16 1l-7 4-5 3c-1 1-5 12-4 13l1 5c0 4 3 4 7-1 3-4 7-5 10-2 1 1 2 1 4-1l3-2h-4c-5 0-6-2-2-2h3c1 2 3-1 2-2l2-3c1-1 1-1-2-1-4 0-4-1 0-4 2-2 2-3 1-5h-3c-2 3-4 1-2-1 1-2 1-2-4-1M86 63l-6 3a3 3 0 001 5l-1 1c-2 1 1 6 3 6 6 0 11-3 10-6 0-12 1-12-7-9m235 3c-3 4-3 10 1 9 3 0 4-4 4-7-1-2-1-3 1-3 1-1 1-1-1-1l-5 2m158-1c-1 0-3 1-3 3v4l-1 3-1 13-1 36v6h3c3 0 4 2 4 12l1 6c1 1 1 2-1 4-1 2-2 3-1 4 3 2 7 0 7-3 0-5 3-10 6-11h4l1 1 1-2c-1-2 1-4 3-3 2 2 3 0 3-6-1-9-3-10-3-1 0 4-1 5-3 5s-2 0-1-3c2-2 2-10 2-15v-10l-1-11v-7l5-21c0-2 0-2-3-1-10 5-11 5-13 0-1-2-1-2-3 0-2 1-1 6 0 8 1 1 4-1 4-3l1 1c1 2 2 2 3 2 3-1 4 1 1 2-1 1-2 2-1 3a3 3 0 11-5 0v-3c-3-2-3-2-3 5 0 2-1 3-4 3s-3 0-2-2c1-1 2-2 1-3v-5l1 2 1-6v-8l-2 1m-286 4c-5 1-9 8-10 15l-1 5v3c1 5 0 9-4 7v-6l1-5v-3c2-2-1-1-7 1l-4 4-1 3 1 3 4 6c1 5 5 7 7 4 1-2 2-1 2 2l1 20a90 90 0 004 26l1-1h4c2 0 3 0 3-2l1-10v-33a189 189 0 013-33l1 14v15l2-1 1-16c-1-12-3-25-3-18 0 2-2 3-3 1 0-2-1-2-3-1m116 3l-6 4v3l1-1h3l4 1c2 0 2 0 1 1l-1 3a5 5 0 01-4 6c1 1 1 1-1 2h-2l-1 4c0 4 1 4 7 3l7-1c1 1-3 4-5 4-2-1-2 1 1 2s5 0 5-5c1-3 0-5-2-3h-2c-1-2-1-4 1-4l1-1V76c0-7 0-7-7-4m35-1l-4 2c-13 4-16 9-17 24-1 6-1 7 1 8 3 0 9-1 14-4l7-2 2-2 1-3c1-1 0-6-2-6l-2-1c0-2 2-1 4 1s3-1 2-7l1-6c3-2 2-3-1-3-2 0-3 1-2 2l-2 4-3 3c0 3-1 3-3 0-2-2 0-6 7-9l1-2-4 1m186 0c-9 2-22 6-23 8-2 2-2 10 0 11h2l3 1-2 3c-2 2-3 2-5 1h-1l1 2 1 3c-1 3 2 5 6 3 3-1 7-7 5-7v-1c1-1 1-1 3 1 3 3 4 3 6 0 1-2 1-3 3-2l2-1c1-2 1-3-1-4l-2-1 2-1c4-1 5-3 5-9 1-5 0-8-2-8l-3 1m-414 6l-5 3h-5c-6 0-14 5-11 8l-1 2-1 8c0 9 0 10-6 10l-10 2-4 3-1 9c0 11 1 12 3 11 2 0 2 0 2 2s-1 3-4 3l-7 4-6 2-3 1-3 1a12 12 0 00-8 13l2 4c1 1 1 1 1-1-1-2 2-4 4-2h-1l-1 1h8c7 0 10-3 10-8a9 9 0 016-10l2-1 4-1 3-2c2 0 6-5 7-9 0-5 1-5 3-1l1 4 1-4c1-3 3-4 3-2l-3 7c-2 0-1 8 1 11 1 3 2 3 4 2 5-1 5-2 5-12l1-12 1 15c0 5 0 7 1 6 2-2 3-9 2-14v-10c1-5 1-6-2-4-3 1-3 1-2-7l-1-9c-1-2-1-7 1-7l1-3c0-3 1-2 2 1 0 3 2 5 5 5l3 1c0 2-5 3-6 2l-1 2c1 2 4 3 4 1s3-3 4-1 3 1 4-2l3-3c3-1 6-9 4-10h-2c-1 2-5 3-5 1l1-3 2-3 2-3c5-4-6-5-12-1m159 2c-3 8-4 13-3 21 0 4 2 6 2 2l2-5V78l-1 1m-140 1v20l4-4c4-5 5-13 0-15l-3-2-1 1M15 82v4l1 1-1 10c-1 13 1 13 3 0l-1-4V80l-2 2m407 1c-7 4-7 3-8 20a88 88 0 002 34l-1 12c0 6 0 6-3 7l-4 2-5 3c-2 1-3 1-1 3v4l-1-2-3-2-2-1c1-2-5-2-7-1v8a2 2 0 11-3 2c-2-3-3-2-5 4-1 5-1 6 2 3 2-3 7-4 7-1l-1 1c-3 0-4 5-3 10v6c-2 3 0 11 3 12 3 2 3 2 1 2-3 0-6 7-4 10 1 2 0 3-6 4l-3 1v12a196 196 0 001 20c0 2 2 1 2-1v-15c1-14 1-16 4-16 2 0 3 3 2 4v20c1 3 5 1 7-2 2-4 2-6 1-6-2-1 1-3 3-2 2 0 2 0 2-2v-5c1-2 0-4-1-7-1-4-1-5 1-7l1-4 1-2 1-1-1-2c-2 0-2-7-1-9 2-3 2-7-1-7-2 0-1-3 1-3l2-2v-17c1 0 2 5 1 7l1 2 1 2c0 2 1 1 4-1 3-3 3-3 3-11 0-12 3-18 4-7 0 6 1 7 2 7v-1c-2-1 0-2 3-1 5 1 9-1 9-4v-4l2-4v-23l1-20h-5l2-2 2-4c1-2 1-2-1-1-1 2-2 1-2-3-1-4 1-7 2-5l-1-3v-8c1-7 1-7-8-3m200 0c-16 6-17 6-18 9l-1 13c1-1 2 8 1 10-1 3 0 8 2 9l1 2 1 2 1-1v-15c-1-1 3-6 6-7 2-1 2-6-1-9-2-3-1-7 3-8l5-2h2l-1 1a1 1 0 101 2l1 3c-1 3 1 6 2 3l1-4 2-4c3-2 3-7 2-7l-10 3m-39 0l-5 4-1 3 1 3 1-2h1l2 3c2 1 1 4-3 4h-3l-1 14 1 13c2-1 1 2-1 4-3 3-5 3-4-2 1-8 0-9-12-4l-12 3c-5 0-9 4-9 11l-1 7c-2 3-3 15-1 12h5l4 1 1 1c2 2 11 0 14-3l5-1c6 0 9-4 3-4h-2l2-2a8 8 0 002-10c0-3 8-6 9-4 1 1-1 5-3 5l-1 4-1 10 2 24c3 3 8 0 8-5 0-6 1-11 2-11v-1c-1-1-1-1 1-1l2-1 2-3 1-3 1-2v-20l-1-8-1-7v-1h1l1-1v-4l-1-3c1-1 0-2-1-2-2-1-3-6 0-7l1-4c0-4 0-4-3-3-2 0-2 0-1-1l3-2 1-5c-1-2-4-1-9 1m60 5c-2 1-3 2-4 1-2-2-4 0-4 3 1 2-1 9-2 11l-1 3c0 2 0 2-4 2s-7 4-7 11l-2 4h2l7-3 3-2 1 1c2 0 4-4 4-7 0-2 5-3 6-2v2l-1 2h-2c-3 0-2 2 0 2 4 1 6 0 6-3-1-2 0-3 1-4 2-2 3-6 1-6l-1-5c1-5 0-7-2-5-1 1-1 1-1-1l2-2 1-2c0-4 0-4-3 0M83 88c-4 3-4 9-1 9s6-4 6-7c1-4-2-5-5-2m-45 3c-10 3-14 8-11 15l1 4a11 11 0 005 11c-1-2-1-2 2-1 2 0 3 0 4-2 1-1 2-2 4-1l3-1v-3c-2 0-3-2-1-2 2-1 2-8 0-9s-2-1-1-3l2-6c0-5-1-5-8-2m214-1l-3 1c-2-1-8 1-10 3-2 1-3 5-2 5v9l1 2c-1 2-3 1-3-1-1-3-3-2-3 1l2 16 1-4c0-8 2-8 4 1 0 5 0 5-2 5l-3 1c-1 13 0 33 1 36s2 4 3 2l5-4c5-2 6-3 4-5-1-1 0-1 2-2l4-2v-9l-1-9c-1 0-2 4-1 9 0 5-1 7-5 5-1-2-1-2 1-4s2-2 0-2v-4l-1-1 1-1 1-7 1-7v-8l1-1 1-2 3-3-1-11-1-9m186 4c-3 4-2 13 1 13a2 2 0 001-3V94c2-3 0-2-2 0m-134 10c-1 1-2 48-1 57 0 4 3 4 5 1l2-2 1 1v2c1 2 2-1 2-5l-1-4c-4 1-4-2-1-3s5-11 3-13l1-7v-6l1-5c1-4 0-7-3-7-2 0-3-6-1-8a9 9 0 00-8-1m-88 5c-10 3-14 5-14 6l2 1c2-1 3 0 1 2-1 1-1 1 1 2 2 0 3 1 3 2-1 1 0 2 1 3l2 2 1 2 2 4c2 3 5 4 5 2l3-1c3 0 5-1 3-4v-2c1-1 1-1-1-1s-2-1-2-3-1-2-3-2l-2-1-2-1c-3 0-2-5 1-7l2-1v-1h3c1 2 6-2 6-4 0-1-1-1-12 2m317 0c-3 3-4 3-12 3-12 0-12 1-12 44v31c0 16 1 18 5 19a11 11 0 0012-11l1-6 3-33v-21c0-5 2-13 4-14l1-2v-5l1-5v-2l-3 2m-409 1h-3l-2 1c1 1 0 1-1 1-4 0-5 7-3 44v26c0 11 0 14 2 14 3 0 6-5 5-7l1-3 1-1 1-1a4 4 0 00-2-7h1c2 0 5-8 3-9-1-1 0-19 1-20a22 22 0 00-1-13l-1-3-1-4 1-3 2-4 1-4c2-5-1-10-5-7m215 2l-7 2c-7 1-10 4-10 11v5l3-2 2-3c-1-2 4-5 6-4 1 1 0 3-2 3s-5 8-4 10l-1 4c-4 4-5 9-3 19v4c0 4 14 2 15-1v-3c0-1 1-2 3-2 2-1 2-1 1-2v-2c2-2 1-4-1-4-2-1-3-3 0-3l1-1 1-2 1-3 2-5-1-2c-3 0-3-2-1-4s2-2 1-4l-1-2-1-1c-1-1-2-5 0-5v-4l-4 1m125 2l-14 4c-11 3-14 4-14 7l2 7 1 7v3c-1 1 0 15 1 16l6-2c3-2 7-3 8-2l4-2 2-1c1 1 5-2 5-3l1-1 1-2v-3c-1-2-1-3 1-6v-11c2-4 1-13 0-13l-4 2m-176 7c-4 2-5 3-4 4h2c1-1 2-1 4 1 1 2-5 2-11 0-3 0-7 5-4 6l1 2h-3c0 3 0 4 2 3 2 0 2 0 2 2v4c2 1 2 1 2-2l1-4v-1l1 2a2 2 0 003 0l2-1c3-1 3-2 0-4l-2-1h2l2 1c1 2 6-4 6-7l-2-2c-2 0-1-1 1-3 3-3 1-2-5 0m61 7c-1 5 0 9 2 7 2 0 2-10 1-11-2-2-3-1-3 4m-315 0a12 12 0 00-6 8c-1 2-2 4-1 8v49c-1 11-1 12 1 13s2 1 1 3c-1 1-1 2 1 3l2 1-2 1c-3 2-3 11-1 13s7-1 8-4c0-2 1-3 2-3l1-12c1-20 1-20-3-23l-3-5c0-2-1-3-2-3l-1-1 1-2 1 1 1 1 4 2 2 1-1-3-1-1c1-1 0-2-1-1l-2-1c0-2 1-3 3-2s2 1 2-5l-1-7v-3c2-2 2-3 1-6v-6c-2 0-2-1-1-3l1-8c1-9 0-10-6-5m168 2c0 6 2 7 6 4 4-4 3-8-1-6-2 1-3 1-4-1-1-1-1-1-1 3m446 0v16c-1 9 0 15 2 15 1 0 2-2 2-7v-14a16 16 0 00-1-9c0-3-2-4-3-1m-9 1l-5 2c-3 0-4 2-3 4 2 2 5 3 6 2s4 0 4 1l-3 3a3 3 0 00-1 6l-1 1-2-1-2-1c-3 0-3 4 0 4 2 0 2 1 0 3s-2 2-4 1c-3-1-3 0-4 8l-1 11v36c-1 14 1 20 4 20 6 2 8 1 12-3l4-4-3-1c-4-1-9-4-9-6l1-2 1-1 1 2c0 3 3 4 6 2s4-4 2-4l-9-1v-11c-2-3-1-6 2-7l1-1c-2 0-2-1-2-3 0-6 4-4 6 3l1 5 2 3 1-3c0-3-1-5-2-5v-4l-1-3c-1 0-2-4 0-5l2-17c-1-12 0-26 1-27 2 0 1-8 0-8-1-1-3 0-5 1m-239 6l-8 2c-4 0-7 9-4 12h6l7-3a7 7 0 005-4c-2 0-1-7 2-7 2-1 3-3 0-3l-8 3m208 2c-9 4-9 4-10 9-2 8-1 20 2 20l2 1c1 2 3 0 3-3 0-2 1-3 2-3 2-1 1-6-1-6-2-1-2-1 0-2 2 0 3-2 3-2 0-3 2-4 3-2 2 3 5-3 7-11 0-2-5-3-11-1m-234 6l-6 2-8 2c-3 1-3 1-4 8 0 7 1 12 3 11v1l2 4c4 4 3 9-2 6-2-2-4 0-4 3l-2 2-2 2c-1 6 1 11 3 11v-4c-1-2-1-6 1-6l2 3c1 3 2 4 4 2 1-1 1-1 1 2 0 4-3 6-6 4l-3 2v8l1 2 1 2c3 1 6 0 6-2s3-5 4-3c1 4 8-2 8-7 0-2 3-5 5-4 2 0 2 0 2-2l-1-3-2-2 1-1h2c1-1 0-4-2-4v1l-2 1c-3 0-3-8-3-22 1-8 1-10-1-11v-3c2 0 6-4 6-5h-4m-155 1c-5 0-7 3-8 12l-1 38c1 28 2 34 7 36l1 2c0 2 0 2 3 1l1-4 1-3c1-1 0-2-1-4v-4c2-2 2-2 0-2l-1-4 2-17v-20c2-12 2-18 0-18-1 0-1-1 1-5l3-4 2-4h-10m-136 2l-6 1-3 2-2 2h1c1-2 2-1 1 3v8c0 3 0 4-2 4-3 0-7 2-7 4l-4 1c-3 0-4 0-7 5l-3 5v29c0 39 0 38 2 39v2c-4 3-1 17 4 17 2 0 4-1 4-5 1-3 0-4-2-2l-2-1c-1-3-1-3 2-3 2 0 2 1 2-21v-17c-1-2 0-4 1-6l1-3v-3c2-2 3 5 2 9l-1 11c2 13 2 16 4 16s3-4 2-6v-3c1-1 2-3 1-5 0-5 1-14 3-15l1 8 1 11c1 3 2 5 2 3l1-2c3 0 6-9 4-11a7 7 0 013-7l1 9c1 14 5 15 7 2 1-10 2-7 2 4 0 10 0 11-2 12l-2 4c0 4-2 6-3 3v-4c3-2 0-2-5 0l-6 2c-4 0-6 3-8 13-3 10-2 53 1 45 0-1 6 2 6 4a1 1 0 102-1c-2 0-1-2 1-3l3 1c2 3 4 2 4-1v-3l1-5c0-6 0-6 2-5l1-5a9 9 0 011-6l-1-2c-1 0-2-1-2-6 1-3 0-5-1-6v-3l1-2c-1-5 0-9 1-9v5c0 4 0 4 2 4s2-1 2-10l1-4 1 5c0 5 1 6 5 5 5-2 8-16 4-18v-2l1-23c0-16 1-21 2-22 2 0 0-2-3-2s-7 4-8 7h-2l-5-2c-4 1-5-1-4-6l1-5-1-1v-2l-1-3v-2c2-2 1-4-1-5-3 0-4-2-1-2l1-2 1-2c1 0 2-4 1-8v-6c1-1 1-1-1-1h-2c0-2 3-6 6-6l2-1h-2l-6 1m205 7c-4 0-9 3-10 4h-8c-7 2-12 6-12 12-1 3 1 4 3 1l2-1-1 2-1 2c2 1 12-5 13-9 1-3 7-4 8 0l2 3c2 2 1 5-1 6v1c2 0 2 1 1 4l-3 3-2 2 2 1h1v1c2 1 5-3 5-6 0-2 1-3 2-3s2 0 1-1l1-20c0-2-1-3-3-2m5 0l1 16c1 5 2 4 3-2v-13c2 0 1-2-1-2l-3 1m322 1c-4 2-5 4-5 8v5c0 2 0 2 2 1l1-3c0-3 2-7 4-7l1-2c0-3-1-3-3-2m-517 4c-6 3-7 4-4 4h4l3 1c2 0 2 0 0 1v2c2 0 4-3 3-7s-1-4-6-1m130-1c-2 9-2 19 1 17v-17h-1m252 3l-3 1c-2 0-2 0-1 2l3 3c1 0 7-5 7-7s-6-1-6 1m-284 2c-3 1-5 3-5 4a1 1 0 11-2 0h-3c-8 1-12 4-11 9 1 2 3 2 3-1s1-2 5 2l4 4v-3c0-3-1-3-2-3l-2-1c0-1 3-2 4-1 0 2 2 1 2-1-1-2 2-3 4-1v8c0 3 3 3 9 1 2 0 5-9 3-9l-1-3c0-9-1-9-8-5m264-1c-8 2-8 3-3 11 3 4 2 5-4 5h-3c-2 13-1 35 1 38v3c-1 1-3 14-2 16l1 15 1 7c1 1 9 0 8-1l1-1 1 2h2l1-2-1-3-1-4v-4c3-4 3-11 1-12l-2 1c-1 1-1 1-1-1l2-5v-3c-2-2-1-6 1-8 2-1 2-2 1-2-2-1-2-8 0-11v-4l-1-1 1-7 2-12-2-1c-2 0-3-1-3-2v-3c-1-1 0-3 1-3 2 0 3-4 2-4-1-1 0-1 1-2 3-1 4-2 1-3l-1-1-5 2m96 5c-2 0-4 5-7 16-3 8-3 24-2 51v16c-1 6 0 6 7 4 6-1 9-4 9-8l2-3c2-2 1-4-1-4-3 0-4-2-1-4l1-3 2-5c1-5 1-5-1-4-2 0-2 0-1-2 2-3 2-3 1-5-3-2-1-15 2-15l1 4c0 6 1 9 4 9l9-2 7-1v-24c-5 0-16 5-18 8-3 5-5 5-5-2-1-5-1-6 1-8 2-1 3-2 2-4-2-3-2-7-1-7s3-5 2-6h-2l-2-1h-9m-460 1l1 2v3l-1-1-2-2c-2 0-3 1-2 3v6c-2 0-2 1-2 4 0 4 1 5 6 4h4c2 0 2 0 2-2v-1c2 0 2-2 1-4v-2c1-1 0-2-2-3l-3-1h3c3 1 3 1 3-2-1-4-6-7-8-4m244 1c-1 1-2 2-3 1-2 0-7 7-6 8v6l-1-1-1-1v4c1 9-2 18-6 21l-3 6v13l1 11c1 0 2-6 2-21 1-8 3-12 4-7v24c-1 1 1 14 2 17l1 3v4c1 2 1 2 3 1 1-1 2-2 4-1 3 1 5-2 6-12 2-10 2-11-1-11l-2-2c-1-4-1-4 1-4 2-1 2-25 0-29v-9l-2-3-1-3c-3 1-4-1-3-3l1-3c1-2 1-2 3-1v4c0 2 3 5 3 4 2-2 2-6 0-7-3-2-3-4 0-7 3-2 3-3 0-3l-2 1m-269 5v4c0 2-4 8-6 8l-2 2c-2 6-2 11-1 12v3c0 3 2 3 3-1s3-5 6-5c3-1 3-1 3-14 1-13-1-18-3-9m297-3l-1 2c-1 1-2 3-2 7v6c0 5 0 6 3 4 2-1 2-2 2-7v-8c1-1 0-5-1-5l-1 1m169 0c-2 3-4 22-3 28 0 3 1 3 3 2 6-1 6-2 3-6-4-4-4-4-2-5v-8l1-12-2 1m-286 3l-4 2-3 1-2 1-2 1c-3 0-8 9-8 15l-3 10c-1 3-2 20-1 25 1 3 5 3 6 0l3-1c3 0 6-10 5-15l1-5 2-2 1 4 2 5 2 7c0 5 1 6 3 3l2-3c1-2 1-2-1-2s-3-2 0-4l1-10v-12c-1-2-1-9 1-11 1-2 1-7-1-9h-4m65 1l-4 3-3 1c-6 0-15 3-16 6s-1 5 2 4l3 1-2 1c-3 1-4 3-2 5l2-2 6-4-2 4c-3 3-8 5-9 3a2 2 0 100 3h4v2l-1 2 2 1c3 0 8-3 8-5l6-5 1 2 1 1c1 0 3-3 2-4 0-2 1-2 4-2h4v-6l1-10c1-4-1-4-7-1m181 2l-24 5c-3 0-6 20-4 24v5a6 6 0 009 7c1-2 3-2 8-2l4-1c-1-2 0-3 3-3 2 0 3 0 3-2l1-1c6 2 5 3 5-1-1-2 0-3 1-4 1-2 2-3 1-6v-2l1-7-2-8c-2 0-2-1-1-2 0-3-2-3-5-2m-60 1v2l-1 1-2-1c0-2-3-1-13 4l-12 6c-3 2-4 8-1 15l2 4c1 0 2-5 1-6-2-4 1-11 3-8v3c-1 2-1 2 2 4 2 1 3 2 2 3-1 4 5 9 8 6l1-1c3 1 4-1 2-3-1-1-1-1 1-1l2 1h3c3 0 3-5 0-7-2 0-2-1-1-1s2-5 1-6c-1-2-1-3 1-3l1-1 3-4c4-4 2-9-3-7m219 4l-2 7-2 3v9c0 4 0 4 3 3l4-1v-26l-3 5m-383-3l-5 3c-6 2-6 3-8 20v29c-1 5-1 6-4 6s-6 2-2 2l-1 1c-2 1-4 4-3 6v2l-1 7c1 9 2 11 4 11l1-1c-1-1 0-2 1-3v-3l3-18c1-2 2 1 2 8 0 5 0 7 2 9 2 1 2 2 2 3h2l3-2 3-2 4-4c1-4 4-6 3-2-1 1 0 2 1 3v2c-2 2-2 3 1 3l1-2 4-2 2 1h6c4-2 7-8 5-11v-1c2 0 2-1 2-3s0-3-2-3-8 4-9 7c0 3-6 8-6 5l1-3v-1c-1 0-2 0-1-1l-2-1-3 2-2 2c-1 0-3 1-3 3l-3 2c-2 0-1-2 2-4l1-3v-29l1-3c-2-2-2-25-1-27v-5c2-1 2-2 1-3h-2m336 4l-3 1c-1-1-12 4-12 5v7c-1 5 0 8 2 7h4l2-1c2 0 2 0 2-2-1-3 1-3 4-2 5 3 9 1 6-3v-3l1-6c1-6-1-7-6-3m-472 2v19l3-2 3-1 2-3 3-4v-5l-1-2c1-4-8-6-10-2m16 6l-1 6v3l2 4c1 4 2 4 4-1 1-5 1-5-2-11-3-7-4-8-3-1m41 1l-4 3c0 2 4 5 6 4 1 0 2 0 2 2h2c1-1 2-5 0-4l-1-1 1-2 1-2c0-3-2-3-7 0m87 1c-1 1-2 7-1 23 0 10 0 11 2 10l2-2 2-8c5-1 6-13 1-14-1 0-3-1-3-3l-1-3v-3h-2m-159 12l-8 3c-2 1-4 16-4 22 1 9 2 9 6 7l7-2 5-1h2l1-15-1-16-8 2m-104 4l-4 2c-1 1 0 8 1 7h2l1-2 2-4c2-4 1-5-2-3m292 0c-5 2-6 7-6 29v28l1 9v14c0 8 1 9 5 9 3-1 5 0 2 2h-2c-4-3-4-1 0 5 2 5 4 6 2 2v-5l1-1c2 1 3-4 2-9l-1-11v-13l1-4v-40c-2 0-1-13 1-14 4-2 0-3-6-1m-163 5c0 5 0 5-3 6h-3l2 2c3 3 6 0 6-6v-5c1-1 1-1-1-1s-2 0-1 4m381 1c-5 3-4 25 0 25v-1l2-1c6 2 7 2 10-1s4-8 2-8c-1 0-2-1-2-3s0-2-1 0l-1 2-2 3c-1 2-2 3-5 1-2-2-1-5 1-6v-2l2-2c2-2 4-2 5-1 2 2 4 0 3-4-1-3-11-4-14-2m127 1c-2 0-3 1-3 3l-1 4c-1 1 1 3 5 3l3 1v-6l-1-6-3 1m-60 4c-7 3-9 5-9 11l-1 4c-3 0-3 38-1 40s2 2 1 5c-4 10-1 35 3 34l2-1a1 1 0 112 1l-1 1-1 2-2 2c-2 0-2 0 0 3 2 4 9 6 9 3l2-3 1-2 2-1c2 0 2 0 1 2v2c4 2 8 0 4-3-2-2-3-5 0-6 1-1 2-3 2-7l1-8-3-3c-3 0-3-1-2-1h3l1-2 1-3c0-3-3-4-4-2l-3 2-4 1h-4c-1-1-1-1 1-2l4-2c0-1 2-2 5-1 4 0 6-1 4-4v-3l1-56c0-6-6-7-15-3m-89 0l-3 3v3l-1 4c-2 2 0 3 2 2 2 0 2 0 2 3l2 4 2 4c1 1 1 2 2 1l1-1 2-2 3-2v-2c2-1 2-4 3-10v-8h-6l-9 1M0 313l1 68c0-21 1-24 2-6 0 5 1 5 3 5a156 156 0 0112-1l1-1 1-3v-5l1-2 1-3 2-4c1-3 3-4 3-2l2 2c4 0 6 2 6 5-1 2 3 2 4-1l2-1 2-2h3c2 1 5-3 4-5l-1 1c0 2-2 2-5 1-5-2-4-4 1-3 3 0 4-1 1-3-1-1-1-1 1-2l3-4-1-2c-1 1-1 1-1-1l-8-1c-11 0-11 0-12 6 0 2 0 3 1 2l2-2 1-1h2v2c-1 1-2 2-1 3l-3 4-1-2c-1-1-1-2-3-1-2 0-2-6 0-15l1-7c-1-1-5 3-6 5l-1 6c-2 2-2 3 0 4l2 4v1l1 1-1 5c0 5-3 11-5 11s-1-13 1-15 2-2 1-4c-3-3-3-6-1-11l2-5c-1-1-14 5-15 6l-2 3-1 7v7l-1-67-1-68v91m367-87c-3 2-4 6-5 26 0 15 0 14-9 15-6 0-13 1-14 3-2 3-2 16-1 20 1 3 1 3 2 2s2-2 4-1c5 0 10-1 8-2v-1l2 1 2 1 1-2 2-3c1-1 1 0 1 4l1 2 1 3c0 2 1 3 2 3 2 0 2 0 1-1-3-1-2-3 0-5 2-1 2-1 2 1v3h1l2-3v-1c-2 0-3-2-1-2s2 1 2-37l1-25c3-2-1-3-5-1m123 1c-2 1-4 7-4 13 0 8-3 11-5 5v-3l-1 3c-1 5-2 13-1 14l-1 8c0 2-1 2-3 2s-7 0-11 2l-10 2c-6 0-10 6-6 9 1 2 1 2-1 2-2 1-4 22-2 25 1 2 6 4 7 2l2-1 2-1 2-1 1 1a1 1 0 002 0c-2 0 4-4 7-4 2 0 2-1 2-3l1-6 2-3-6 1c-2 1-4 0-3-1l4-2c4-1 5-3 2-4v-6l2-4 3-5c2-2 3 1 3 16 0 12 1 12 3 12l3 1c1 1 1 1-1 1s-3 2-3 6c0 3 2 6 4 4l2-2c2-1 2-2 1-3 0-3 0-3 2-3l2 2c0 2 2 1 4-1s2-2 1-5l-1-5 1-20c1-17 1-19-1-21s-2-2-1-3c2 0 3-3 1-3l1-7v-2l1-6c2-6-2-10-7-6m-60 0c-6 1-6 1-6 6l-2 4-1 42c0 28 0 29 4 33 3 2 8 3 10 1s1-4 0-4h-2l-2-2c-4-1-4-12 0-11 1 1 1 1 0 0v-5c2-6 2-13 0-16-1-2-1-7 1-6l3-2c2-1 2-2 1-3v-5l3-5c2-5 5-5 4 0l1 3 1-5c0-5-3-7-5-4 0 2-3-1-3-3l-2-2c-2 0-2 0 1-3s3-3 1-4c-2 0-3-4 0-4l2-3c0-3 0-3-9-2m144 0l-1 2-1 5c-1 3-2 6-1 11 1 10 3 12 3 4l2-8v-6l-1-5 1-4-2 1m-224 5c-2 1-3 3-2 3l1 9v8h2c4 1 6-4 4-7v-7l2-7c1-3-3-2-7 1m119 0c-2 5 0 17 3 15l-1-2v-2l1-2v-1c1-2 0-11-1-11s-2 1-2 3m-434 4c-10 4-11 4-12 7a25 25 0 001 16l2 1 4-1c1-1 2-2 4-1 3 0 4 1 2 2-1 1-1 1 1 1 5 0 8-7 8-19 1-11 1-11-10-6m374 0c-2 5-2 9-1 11h1c0-2 3-4 3-3 1 1 3 0 3-1l-2-1c-2 0-2-2-1-5 1-1 0-4-1-4l-2 3m-399-1c-5 1-5 0-6 15-1 18 0 29 3 29l1-2c0-3 1-3 3-1s5 1 6-1l1-13 1-19 1-9h-3l-7 1m230 6c-2 1-3 2-3 4-1 4 0 19 1 20v3c-2 2-2 2 1 4 4 3 4 4 6 2v-15c1-4 1-4-3-4-3 1-3 1-2-1v-2l-1-1c0-2 3-1 3 1l1 3 1-3 1-4v-1l1-5c0-4-2-4-6-1m80 9c0 11 2 14 3 3v-10c-2-6-3-3-3 7m329-7l-12 2c-5 0-14 4-16 7-2 2-2 5-2 11v16c-1 13 2 16 12 13l7-1 4-2c2-2 3-2 5-1s5-1 4-3c-1-1 0-2 5-2l3-1v-21l-1-21-9 3m-425 0c-4 1 1 12 5 12 2 0 2 0 0-3-1-2-2-3-1-4v-3c5-2 1-4-4-2m-103 2c-4 1-5 5-5 22v15c-1 1-1 1 1 2 2 0 3 4 1 5l-1 28 2 6h1c-1-2-1-2 1-2h2c-1-2 1-4 3-4l2-1h1c0 3 2 2 2-1s1-4 3-2l-1 18v19l1 5 2 4c2-1 5 3 3 4l-1-1c-2-3-3-2-2 0l1 1 1 2c1 2 4 1 4-1 2-6 4-27 3-28v-12l-1-12c-1-1-1-3 1-2l1-1-1-2h-2c0-2 0-3 2-2a1 1 0 100-2v-4c-1 0-1-3 1-7 2-5 1-9-4-9-4 0-4 0-4 5l-2 4-2 6-1 4v3c1 1 0 3-2 3-1-1-3 1-3 3l-1 2v-3l2-10 1-4c0-3 0-4-2-4h-1c0-2 2-3 5-3 2-1 1-3-1-3-3 0-3-1-1-5 0-2 0-2-2-2l-2-6c0-5 0-6 2-6 1 1 1 0 2-2v-3l-2 1-1 1v-4h4c4 0 4-1 3-5s-5-7-6-6c-2 1-3-1-2-3s0-2-5-1m26 9v2l-1 3v3c1 1 1 1-1 1-2-1-3 0-4 3l-1 3c0 2 5 3 6 0l2-1c3 0 4 0 2-1l-2-3c2-6 2-15-1-10m374 2l-3 2 1 17c0 18 0 19 3 19 2 0 2 1 2 3 0 3-2 4-3 1v-2l-1 2c-2 4-1 63 1 71 1 5 5 7 5 4l1-1v1h3c3-1 3 0 2-4-1-3-1-3 1-6l2-3c-1-2-1-4 1-6l1-8c-1-6-2-10-2-5 0 2-5 3-6 1h-1l2 2 1 1c-5 3-7-7-3-12l2-5 3-7 5-9-2 2h-2l1-3 1-2 1-1 1-1-3 1c-5 3-7-8-2-12 2-2 2-10 0-9-2 0-2 0-2-2l3-2c3 0 4-3 3-5v-3c1-2-1-4-4-3-2 0-3-3 0-4 1 0 1-3-1-4v-6c-1-5-5-5-11-2m-15 1v20c1 3 2 7 1 9 0 2 0 2 2 2a1 1 0 013 1c2 0 2-1 0-4-1-2-2-3-1-4a29 29 0 001-19c-1-1-1-2 1-2 1-1 1-1-1-3h-6m-92 4l-6 2c-9 1-13 11-8 17l2 3c0 2 7 1 8-1 0-1 1-2 2-1 1 0 2 0 2-2l1-3c2-2 3-16 2-16l-3 1m-117 6l-2 2h-4c-2 2-2 2 0 2h2l2-1v10l1 11v12c-1 2 0 8 2 10l1 1 1-31 2-16c0-4-2-4-5 0m92-2l-1 3-1 3h-3c-2 0-2 0-1 1s1 1-1 1c-2 1-2 1-1 5 1 6 2 6 4 6l3 2c0 3 5 3 5 0 2-4 2-18 1-20s-3-2-5-1m-355 3c-4 1-5 5-7 19 0 7-1 8-2 8s-2 1-1 2l1 1c3 0 4 5 3 10v7l1 8c0 9 5 14 10 9 1-1 2-3 1-4l1-1a1 1 0 000-3v-1l2-9c-1-1 0-7 1-8 1-2 2-6 1-7v-3l-1-3-1 2-1 1-1 2c-1 2-7 3-7 1l2-1c3 0 6-8 7-14v-8l-1-3c3-8 1-9-8-5m528 0l-9 2-2 1h-3c-4-1-9 6-8 12l-1 5c-2 6 1 10 6 8l6-2c2-1 3-2 4-5 3-6 5-5 7 3 2 4 7 2 8-3l2-4c2-1 4-7 5-12 0-8-3-9-15-5m-454 0l-8 3-6 2-1 6c0 10 1 11 8 7l8-3c2 0 3 0 3-4 1-9-1-15-4-11m52 26l1 27 2-1 2 1-1 1c-3 0-2 3 2 5l3 1 3-8v-4c2-1 2-12 1-12v-6c0-2 0-2 2-2h1l-1-1c0-2 0-3 1-2l1-6v-7l-5-3-9-7-3-3v27m115-21c-5 1-7 3-7 7l-1 10c0 5 0 6 2 7 3 2 3 2 3 0v-2l1 2 3 2 4 1c1 1 1 0 1-5l-1-7 1-3v-9c0-4 0-4-6-3m51 2c-6 4-9 17-4 15 3-1 4-2 4-6s0-4 2-4v-1l-1-2 1 1c0 2 2 1 2-1l2-2 2-1c0-3-3-2-8 1m-38 1c1 1 0 2-1 3v3l2 2-3 2c-3 1-3 1-1 2s3 2 0 4c-1 1-1 1 1 3l3 4h-1v1l-1 3-2 2c0 3 2 2 2 0l1 1c1 2 1 2-1 4l-2 3h2c3-3 5-2 4 3l1 1 1-3v-7c1-2 1-8-1-8s-2 0 0-3c3-2 3-3 3-5-1-3-2-4-4-1-1 1-3 1-3-2l3-4c2-3 3-4 2-5-2-5-6-7-5-3m-31 0l-6 3-2 2 3 4a13 13 0 007 6c1 1 1 1 2-1 1-3 1-8-1-9-1-1-1-1 1-3s0-3-4-2m-195 4l-6 1-6 2c-2 2-4 11-3 13 1 3 17-1 17-4l1-4c1-2 1-2-1-2s-4-2-2-2c2-1 4-5 3-5l-3 1m-41 6c-5 1-6 2-8 9-2 4-2 9-1 11 1 1-1 5-2 5l-1-4v-5l-1-3 1-5c1-4-2-7-4-5-3 2-4 31-2 31s2 2 1 4v3c1 2 3 3 4 1l1-13c0-3 3-5 3-1l2 2v1l-2 1c1 1 4 0 4-2l1-1 1-1v-2l1 2c0 1 2 1 2-1l2-1 2-2c0-3 0-3-2-2-2 2-5 0-3-2v-11l-1-2c-1 1-2-1-1-2h4l2-1c1 0 3-3 1-4h-4m128 1v35c0 8 0 8 2 7 3 0 3 0 3-6v-7l-1-2c2-7 2-17 0-18l1-2c2-2 2-8-1-8h-1c0-1-2-1-3 1m-74 4c-1 3-1 3 1 3h2l-2 1c-2 1-2 4 0 6 0 1 3-1 2-2l1-2c2-1 2-4 1-5l-2-2c0-2-1-1-3 1m118 1l-1 9c0 2 0 2 2 1 3-1 3-11 1-11l-2 1m210 1v2l-2 2-1-1c0-2-5-1-7 2l-4 3v47c1 1-1 5-2 5l-1-3c0-2-5-2-10-1-3 1-4 3-2 3 5-1 6 0 7 5 2 6 4 8 5 7l-1-2c-1-2-1-2 1-4 2-3 4-1 4 6l2 7c1 3 3 2 4-1 0-3 6-1 6 2h2l1-2v-5l-1-5v-2l2-4 1-3 1-23 1-15v-2c-3-2-1-8 2-7 2 1 3-2 5-9 0-2 0-2-2 0-3 3-3 3-5 1l-1-3h-5m-222 2l-2 2-2 4c-3 4-1 6 5 6 3 0 5-4 3-6v-3l1-4-5 1m271 2l-1 2c-2 1-2 7 0 8 1 1 8-2 9-4 0-1-4-2-5 0-2 1-3 1-3-1l2-2a2 2 0 10-2-3m-357 4c-3 4-4 9-2 9l1-2 1 3c1 1 0 2-1 2l-1 3c0 5-1 6-3 6-4 0-7 4-7 9 1 5 2 6 4 3v-3c-2-1-2-2 0-4l1-1c-1 3 0 2 1 0l2-3c2 0 2 3 2 33 0 15 1 18 2 20l2 1 3-1c2 1 4-1 3-3l3-26-2 1c-2 3-3 2-3-9 0-8 0-9 2-11s2-8 0-10v-4c-3 0-6-6-5-9 4-8 4-8 1-8-1 0-3 1-4 4m282-3c-3 2-2 6 1 5l2 1 3 1c2 0 2 0 1-2l-3-4c0-2-2-2-4-1m133 1c-2 0-3 3-3 8 0 3 2 4 5 3 2 0 3-3 1-3-1-1-2-4-1-6 2-1 1-3-2-2m-173 5l-6 3c-1 2-2 21-1 22l1-2c0-2 2-4 3-2s1 4-1 7c-2 2-2 3-1 3 2 0 3 1 4 7 0 7-1 11-3 11-3 0-5 4-2 6v1l-1 10c0 7 0 9 2 9 1 0 2-2 0-2-1-1 0-3 1-5a9 9 0 003-6l2-1v-3c-2 0-4-3-4-5 1-1 3-1 5 1h3c2 0 2 0 2 3-1 3 0 5 2 5l1-5v-20c1-4 1-4-1-5-2 0-2 0-1-1v-2l-1-2h1c3 2 4-7 1-12l1-2c2 0 2 0 1-1-3-2-1-6 2-6s9-5 8-7c-2-1-7 1-7 3-1 3-4 2-4-1 0-4-3-4-10-1m-122 19a121 121 0 003 23l1 4c1 0 2 1 1 2l1 3v3c0 2 0 2 2 0s2-3 1-9v-15c2-2 2-7 1-6l-1-1-2-2v-3c3-1 1-7-2-8v-2l-5-8v19m423-17c-3 2-4 3-4 6l-1 3c-2 2 0 32 2 33v15a4 4 0 002 7v1c-3-1-4 6-4 25l2 5 1 2c-4 1-5 2-3 4 1 1 2 2 1 4-1 4 0 5 5 5 4 0 6-2 6-5 0-2 5-7 6-6l-1 2c-3 0-2 2 0 2l2-1 2-3 1-2-1-1c-3 0-2-3 0-3v-4l-1-3v-2c3 0 3-2 1-5-3-2-4-5-2-6s1-6 0-6l-2 2c0 2-4 1-5-3-2-4-2-4 0-4s3-4 1-6v-2c3-1 4 1 3 4l-1 4h5v-6c-3-1-2-3 1-4 3-2 3-5-1-8l-2-2 2-2 4-2 1-1-1-1c-2 1-4 0-5-3v-3c2 0 2-2 2-7l1-7c1 0 2-4 0-4l-3 2-2 3v-3l1-3h3c3 0 3-2-1-4l-5-4c-3-3-8-5-10-3m-589 2c-1 0-2 13 0 19 1 6 2 2 2-7l1-10c3-2 0-4-3-2m569 1c-5 4-5 13-1 13 2 0 2 0 1 1l-1 3-1 2 2 2c4 3 4 3 5-1 3-5 2-11-1-11l-2-1c0-1 1-2 2-1 2 0 4-3 1-5v-2c2-3-2-2-5 0m-43 0l-1 3c0 3-2 5-3 3v-3c2-4-5-3-8 2-4 4-6 15-4 21l1 4 2 1h3c0 1 2 2 7 2 7 0 8-1 8-3 0-1 0-2-2-3-1 0-2-1-1-8 0-7-1-8-2-8l-3-2 2-1c3 1 5-1 3-5l-2-3m-383 8l-2 2-1 1-1 1h-1l-2 5a19 19 0 01-2 7l1 14a70 70 0 002 19c0 2 0 3 1 2l4 2c2 2 2 2 4 1 2-2 2-2 1-4-2-1-2-2-1-3v-33l-1-5c1-2 1-8-1-9h-1m122 5l-10 2c-5 1-6 3-4 6v3c-2 1-1 18 1 19 1 2 7 2 7 0l2-1 4-1 6-1c6 0 5 1 5-15l1-13-3-1-9 2m48 2l-5 6c-3 5 3 12 7 9l3-2 1-2 2-2c2 0 3-6 1-7l-2-2-2-2c-2-1-1-1-5 2m82 0c0 1-10 3-21 4-8 2-10 9-9 26 0 10 1 11 3 11h2c2 1 8 1 9-1l5-1a11 11 0 0011-3l1-1-3-1-2-1-2-2v-3c2-1 5-1 5 2 1 3 5 3 7-1 1-3 1-7-1-8l1-1 1-3v-4l1-4c2-4 2-7 0-6l-2-1 2-1 1-1h-9m-368 2l-4 2c-1 1 0 36 2 38v13c0 14-2 28-5 24-1-1-16 0-18 1a40 40 0 001 20l3 1 3 2 2 1 5 1c3 0 3 0 3-4 2-10 3-5 4 8l1 16 2 3v-7l1-6 1-2 1-2v-4l1-5v-8c0-1 0-2-2-2-1-1-1-1 1-2 2 0 2-1 1-3a14 14 0 011-8l-1-4 1-2v-4c-2 0-2-2-2-9l-1-9 1-2c2 0 3-2 3-2 0-2-2-3-2-1l-2 1 1-3 1-5 1-3-1-7v-2l-1-4v-3l1-9 1-9c0-2-1-2-4 0m-8 0l-1 2-1 1c-1 1-2 1-1 8 2 10 4 8 4-4l1-5a2 2 0 00-2-2m431 2l-2 1-4 1c-6 0-12 4-12 7 0 2 1 3 3 1l2-2 4-2c3-3 5-3 7 0 1 2 2 2 4 1 3 0 3 0 3 2 0 3-2 4-4 2-1-2-1-2-2-1-2 1-2 1 0 3 1 1 1 1-1 2-2 0-2 1-1 3 0 3 0 3-2 2-3-1-3-1-3 2-1 2-1 3 5 2l7 1h5l-3-4c-3-3-3-3-1-4l2-4v-6c1-1 1-2-2-2l-3-2c0-1 1-2 4-1 2 1 2 1 2-1-1-2-5-2-8-1m-39 5l-3 6c-1 3-2 5-1 7 1 3 4 4 3 1l4-5 7-7-2-1-3-1c0-2-4-3-5 0m83-1c-2 3-2 7-1 8 3 1 3 3 1 5-2 1-2 2-1 3l1 6c0 4 0 4 2 3 3-1 4-1 4 3a3 3 0 104-2v-17c3-2 3-5 2-7-2-2-10-4-12-2m-374 1c-5 1-6 3-7 11 0 9 1 12 5 12l4-2c1-2 1-2 3-1a3 3 0 005-2l2-3v-15h-12m-47 1c-8 1-9 2-10 21 0 11 0 13 4 10h1a1 1 0 102-1c0-2 0-2 2-2l3-1v-1c2 0 5-3 5-5 0-1-1-2-2-1l-1-1c1-2-1-5-3-4-2 0-2 0-2-2l1-4c0-2 1-2 2-2 2 0 2-1 1-5 0-2-1-2-3-2m30 5c-4 3-6 10-2 10 2 0 2 4 1 6-1 1 0 3 3 3 2 0 4-2 2-3l1-7v-7l-1-2h-4m80 8c-1 9-1 10 3 11 3 0 3 0 2-1v-3c1-2-2-11-4-11l-1 4m-146 1c-2 2-3 4-4 15 0 13 0 17 4 17 3 0 4-3 3-8v-5l1-12c0-9-1-11-4-7m114 0v6l1 14 1 8c1 0 3-7 2-9a75 75 0 011-19c0-2-4-3-5 0m407 1c-4 3-7 3-9 1h-2l-3 2a1 1 0 101 3h2l-2 2-4 2-3 1-2 2h-2v-2l1-1 2-2 2-3c1-2 0-3-3-2-4 0-6 3-4 9v7c0 2 0 3 2 4l1 2c-1 2 0 2 1 2 3 0 2 3 0 4l-3 3h3l2 1c0 2 2 3 5 2l1 1 3 3 4 1c2 0 7-3 7-5 1-4 1-5-1-6-3 0-9-5-7-5v-6c-2-1 6-4 8-2h1l8-1c2 0 4-3 4-6l1-5v-5c0-2-4-1-7 0-3 3-6 2-3 0s3-4 1-4l-5 3m-42 4c-6 5-7 9-6 19l1 11c0 4 0 4 2 4l3-3c0-2 2-4 3-5l2-1v-4l1-7 1-5c2-1 1-2-2-2h-2l2-3c2-2 3-4 1-6s-3-1-6 2m-207 2c-2 2-3 7-3 13l-1 6c0 5 0 6 3 5l1 2-1 1-2 3c-1 2-1 3 3 0a8 8 0 001-11c-1 2-2 0-1-3a10 10 0 015-9v-2l1-1 1-2v-3l-3-1-4 2m250 0c1 3-2 5-4 4h-2v1l2 2c0 2 2 3 6 0 3-1 3-2 3-4v-3c2 0-1-2-3-2s-2 1-2 2m-144 5c0 1-1 2-3 2-4 1-5 4-2 6v2c-2 2-1 4 1 4l2 2 1 1 1 2c0 2-2 3-3 1-2-2-3-1-3 2l2 2a2 2 0 010 4c-2 0-2 1-2 3l-1 8v3l1 7c0 4 0 5 2 5l2 2 1 1c2 1 3 0 1-2-2-1-2-4-1-6v-1c-1 0-2-1-1-3l1-3c2 1 7-5 7-6 0-2 1-3 3-2 1 1 2 1 2-2 1-2 1-2-3-1l-6 1c-2 1-2 1-1-1 0-3 7-10 7-8l1 1-2-4v-4c1-1 1-4-1-6-1-2-1-2 1-4h-1c-3 0-3 0-2-2s1-3-1-4c-2-3-3-3-3 0m-292 2c-2 1-4 12-2 12 3 0 9-4 9-7 0-7-2-9-7-5m151 3c-1 5-2 25-1 27l2 2v-2c1-1 2-11 0-13l1-3v-15l-2 4m-12-1c-3 2-3 28 0 42 3 20 6 28 6 17v-5l-1-6c-2-1-2-2-1-3v-2c2-1 2-33 1-36l1-3c4-3-1-7-6-4m-151 1l-5 3c-3 6-5 65-2 69 2 2 3 6 2 6-2 0 0 2 4 2 5 1 6-2 6-51l1-14v-15h-6m337 0c-6 1-12 7-9 10 2 1 1 2 0 3v6l-1 7c0 5 0 6 2 7 3 1 4 3 1 3-3-1-4 2-3 8l2 10c1-1 3 1 3 3l1 2v1l-3-2c-2-3-3-1-2 5l2 6 2 2-2 3c-2 4-2 9 1 9a3 3 0 010 4l-1 4c0 2 0 3 2 3l1 2c-1 2 0 6 1 6v-1c0-1 0-2 2-2l2 2 2 1c2 0 2 0 1-1v-4c2-2 0-4-3-1-2 2-2 2-3 1-1-3 2-5 6-4l4 1v-3l1-5 2-9 2-10-1-2c-2 0-2-1-2-3l-1-4v-3c2-2 3-6 2-6l-1 1-3 1a2 2 0 10-1 2l1 1c0 2-5 2-6 1-2-3 4-9 9-9 2 0 2 0-1-1h-6a5 5 0 01-6-6l2-1 3-2h9c2 1 3-3 1-5-2-1-2-1-1-3l1-4c-1-2 2-13 4-13v-3l-1-3-1-4-1 2c1 2-1 11-2 12l-4 1-4 1c0 3-6 2-7 0 0-2 2-5 3-3 0 2 1 1 5-2 4-4 5-6 3-5-2 0-2-2-1-5s1-3-6-2m-258 7l-1 14v19l-1 14c-1 4-2 5-4 2-1-1-2-3-4-3-1-1-2-1-1-3a6 6 0 015-5v-1l-1-4v-8c0-2 0-2-2-2l-11 2-18 3-3 3c-1 3-2 4-1 1 0-3 0-3-3 0-2 3-2 2 0 18 0 6-1 12-3 12-1 0-1 1 1 2 2 2 3 2 4 1h1l-1 2c-3 0-2 2 1 3 3 2 2 4-1 4l-2 1 1 1 1 2c1 2 3 3 3 1l2-1 2 1 1 1c2-2 1-4-1-4h-3l4-3 1-1c0-4 0-6 2-10 1-3 4-5 2-2l1 5 1 5 2 1 2 2c0 3 3 4 6 4 2-1 3-1 3 1l4 1h5l-4-1h-4l3-4 3-4 1-4 2-5c0-2-2-1-2 1-1 2-4 3-4 0l1-3 2-4 2-3v3c-1 1-1 1 1 1l2-1c-1-1 0-2 1-2l1 2 1 2v2a3 3 0 002 5l1 1-2 1c-3-1-3 0-3 4 1 5 1 5 3 1l4-4c1 0 2-10 1-12v-16c2-1 1-2-1-2v-1l1-4-2-9-1-7 2-4v-3c-2 1-4-1-2-1v-3l1-2c2 1 3 0 1-1l-1-4c0-4-3-2-4 2m-10-1c-2 4-1 9 3 9l1-2 1-4v-3c-2-3-4-2-5 0m246-1c-3 1-4 5-1 5 2-1 2 0 2 3l1 4 1-3v-6c2-4 1-5-3-3m-335 4l-6 1c-4 0-5 1-6 6v5h3c2 0 3 0 2 1l-3 1c-3-1-3 0-2 2l1 4h2c2 0 2 0 1 1l-2 5c0 3 0 3 3 2h5c1 2 5-1 4-3 0-2 1-3 3-1 1 2 2 1 2-1v-2l1-2-2 1h-3c-2-1-1-4 2-6 4-1 4-5 1-5l-2-1 1-1 3-1v-2l-2-4-1-2-5 2m-100 3l-3 2c-2 0-2 1-3 4l-1 4v41c2 2 3 1 3-1l1-3c2 0 1-8-1-8-1-1-1-1 1-2 3-1 3-2 5-11 0-6-1-6-4 0-2 3-3-1-2-4l2-8c0-5 0-6 2-6 3-1 4-2 1-4-1-1-1-1 1-1s3-1 1-3h-3m9 2c-2 11 0 24 3 15v-13c1-3 1-5-1-5-1 0-2 1-2 3m69 0c-3 2-4 16-4 44-1 25 0 28 4 31 4 2 4 0 5-19l1-12v-1h-5l1-2 1-2c-1-3 1-6 3-6v-23l1-11h-3l-4 1m221 1c-2 0-2 0-1 1v2c-1 0-1 1 1 2v3c0 3 2 2 3-1l1-4c-1-1-1-1 1-1l2-1c0-2-4-2-7-1m77 3c-4 0-6 1-6 3l3 1c2-1 2-1 2 1v2l2-2 2-2 2-1h2c1 2 4 3 4 1s-3-4-5-4l-6 1m129 1l-4 2c2 2 1 7-1 11l-2 5 2 1c2-1 3 0 1 2h-2c-1-1-2 0-7 5l-10 7a8 8 0 00-6 5c-2 1 2 4 4 4l2-4c1-4 3-5 3-2l2 4c4 2 16 1 12-1-2-2 0-7 3-7l2 1 8 1-2-2h-2l2-2c2-2 2-3 2-7 0-2-2-3-2 0l-1 1v-3l1-4 2-4 1-3v-4c1-1-1-7-2-7l-6 1m-108 2l2 4v10c0 4 0 5-2 5-3 0-4 3-4 9s0 6 4 2c1-2 2-2 2-1l1 2-1 9-3 1c-2 0-2-1-2 23l1 16c2 0 3 2 0 3-1 1-1 8 1 8a8 8 0 005-5 15 15 0 005-17v-2l1-9v-11c0-10-1-14-2-15-3 0-2-1 0-4 2-2 2-2 1-7l-2-12c0-8-1-9-2-7-2 2-3 1-4-1l-1-1m-413 1l-4 1c-6 0-8 3-8 10l1 6 6-1c6-1 10-4 8-7v-5c1-5 0-6-3-4m163 1h-3c-2-2-11-1-11 2 1 1 1 2-1 2l-1 3-1 4c-1 1 0 8 1 8l1-2c0-2 3-4 4-2 1 1 1 1-1 2-2 0-4 5-4 8 0 2 1 2 3 1l2 1c0 3 2 3 4 1 3-1 6-1 5 1-2 2 1 2 2 0 2-1 2-2 1-4l1-3v-7c-3 0-2-2 1-5 2-3 2-3 1-6l-1-4c0-2-1-2-3 0m332-1c-5 2-6 5-4 9 1 3 3 3 3 0l-1-2c-1 0-2-2-1-4l6-2 8-1h-11m-428 1c-7 1-7 1-7 12l2 10h7l5-1a5 5 0 006-3l2-7c0-4 1-6 2-7 2 0 1-3-1-4H91m299 5c0 4 0 4 2 3 2-2 2-1 0 2l-2 2 3-1 5 1v1c-2 0-2 0-1 1 3 2 5-1 5-7l-1-6-1 1-2 1-3-1-2-1v3l-2-2c-1-1-1 0-1 3m21 2c-2 6-2 8 0 9l2-3c1-4 6-6 8-3s4 3 4-1c-1-4-3-5-5-3-1 1-1 1-2-1 0-1-1-2-2-1l-2-1c0-3-2 0-3 4m149 30l1 33c2 2 7-1 8-4 0-2 1-3 2-3l1-4v-9c1-5 1-6-1-9v-8l-1-3c0-2 0-2-1-1h-3l2-2c4-1 5-7 3-9-1 0-2-1-1-2l-2-1c-4 1-6-2-4-4l2-3-2-1-3-2-1 32m57-27l-4 1c-5-1-10 2-11 5v30a215 215 0 003 57l2 3v2c-2 1 0 4 4 7 5 3 7 2 7-1v-5c2-2 3-9 2-9s-1-3 1-7c2-6 2-12-1-12-4 1-4 0-2-6l2-6v-3a54 54 0 00-1-27c-2 0-2 0 0-2v-4l-1-6v-2l1-4 2-4v-5c0-3-2-4-4-2m-365 4c-3 6-2 9 1 9 3-1 3 2-1 4-3 1-3 2-3 4v5c-1 2 1 3 3 3 2-1 2 0 0 2a32 32 0 00-2 25c-1 2-1 3 1 3s5-2 5-4c-1-1 0-1 1-1l2-2c0-2 0-2-2-2-3 1-4-1-1-2 6-2 12 1 7 4-2 1 2 4 6 3 3 0 5-3 5-7-1-15-2-21-4-21-5 0-7 2-10 12-1 2-3 3-2 0a98 98 0 001-12c0-2 0-2-2-2-4 0-5-3-1-4 2 0 3-1 3-4s1-4 2-5c3-2 1-3-2-3h-2v-1l-1-3c0-3 2-4 5-2v2c-3 2-1 3 3 1s5-4 1-4l-7-1c-5 0-5 0-6 3m-72 3l-4 3c-1 0-2 0-1 1l1 1c0 2 7 4 8 2v-10c-2-2-3-1-4 3M0 440c0 18 1 26 1 16a1171 1171 0 00-1-16m352-33c-5 0-7 1-7 3l2 1c1-1 2 1 0 3v11c-1 2 0 3 2 5 3 3 5 1 3-2-2-2-2-2 0-3v-9l1-4c1-2 3-2 3 1l3 3c2 1 3 1 2 3-1 1-1 1 1 1 3 0 4-1 2-3v-1l2-2 1-5 1-1c-1-1-13-2-16-1m-21 3c-7 0-9 2-9 6l-1 7 2 13 1-1c0-1 1-2 2-1l1-1-3-1-1-2c0-4 3-4 5 0l1 3 2-2 5-6 3-3-2-4-1-2c2 0 5-2 3-3-2 0-1-2 1-2l1-1h-10m-307 2c-5 1-5 2-5 18-1 10 1 12 5 12 3-1 4-5 2-6v-14l1-9c3-1 1-2-3-1m112 5c-3 4-3 7-4 26l-1 19v4l1 4 1 4c2 1 1 3-1 4-2 0-3 1-3 2l-2 1v-1l-1-3v-2l1-13-4 1-6 1c-2 1-3 1-2 2l-2 1c-3-1-6 0-6 2v5c-2 9-2 9 0 9a1 1 0 110 2l-1 2c0 3 8 0 9-4 1-2 3 0 3 3s3 3 3 0a2 2 0 113 1c0 2 1 3 3 0l3-3 2-3 2-2 3-1-2 3c-3 2-1 3 3 1 1-1 2-2 3-1v-11l-1 1c1 1-2 3-3 2v-2l1-17 1-16c2 0 0-5-1-6s-1-1 1-2c2 0 2-1 1-2v-2a8 8 0 000-10c0-3-2-2-4 1m283 3c-2 5-1 7 2 9 2 1 2 1 3-2 2-4 2-4 0-6-1-1-1-1 1-1s3-1 0-2c-3-2-5-1-6 2m169 1h-4l-3 1 2 1 1 1-3 2-2 1c0 2 0 2 1 1h4c5 1 5 1 6-2l1-2c2 0 1-3-1-3h-2m-403 7l-4 5v5c-1 4 0 7 2 6l1 1-2 2-2 1h2c2 1 2 3-1 3-2 0-2 0-1 3v37l3-1 3-2c0-2 0-2 1-1h2v-18c2-1 2-6 0-8s-3-3-2-4l-1-2c-1-1-1-2 1-6s2-6 1-7c-2-4-2-10 0-12 4-2 2-4-3-2m286 3c-14 3-19 6-18 14 2 11 3 15 6 15l2-1c0-1 1-2 3-2 3-1 6 0 5 1 0 2 2 1 4-1l3-1c2 1 5-4 3-6v-2c2-1 4-9 3-10l-4-1c-4 0-5-2-2-2h4c2-1 3-3 2-4h-11m-366 4v19l2-10 1-4v-1c-1 1-1 1-1-2 1-3-1-5-2-2m533 2l-4 2-1 1c-2 0-3 5-2 7 1 1 0 2-1 3-2 1-3 11-1 10s4 1 4 2l-3 1c-2 0-4 2-2 2v3c0 2 0 2 2 2 1-1 3 0 4 1 2 3 4 3 4-1-1-2 0-2 2-2 1 1 2 0 3-1 2-2 3-1 3 2a3 3 0 104 1c-1-1 0-2 2 0l4 1 3 1v-18l-1-17-1 1-6 1a12 12 0 00-9 1v-1l1-2h-5m-84 4c-5 1-6 24-1 24 3 0 5-5 3-8v-2a73 73 0 001-15l-3 1m-16 2c-6 2-11 10-7 10l1-1c0-2 5-6 7-6 4 0 6-2 4-3h-5m-195 2v4l-2-2h-2c-2 3-1 4 3 5 4 0 4 1 3 3h-2v2c2 2 7 1 7 0v-3c2-1 0-6-2-6v-2c0-2-3-3-5-1m173 0c-2 2-2 17 0 19h1l2-2c2-1 3-2 3-4l1-6c1-5-4-9-7-7m74 6l-2 2-2 3c-1 2-2 3-1 4s8 2 9 1c0-1-2-4-4-4v-1h2l1-3c0-5 0-4-3-2m-550-1l-8 1c-7 1-12 3-7 3l3 1 1 2h-1c-5 0-7 1-6 4 0 4 1 5 2 3h1l3 1c2 0 2 0 1-1-2-2-1-3 2-3 2 0 3-1 3-2l4-2 3-1-3-1-2-1 2-1c2 0 3-1 3-2l-1-1m123 2v3c-3 2-2 5 1 4l2 1 2 2 3 1a4 4 0 004 1c-1 0-1-1 1-4l2-6v-3h-6l-9 1m-10 1c-3 1-4 1-6 7-2 5-1 7 5 7 4 0 4 0 4-3l1-7c1-4 0-5-4-4m214 0c-4 1-7 6-7 12 0 5 1 8 2 4 0-2 2-3 4-1s3-1 3-6v-6c-1-1-1-1 1-2l2-1h-5m162 6c-1 7-1 18 1 19 2 2 2 2 2 0l2-4 2-4v-3c2-1 0-3-2-3a2 2 0 01-2-5c3 0 2-2 0-2-1-1-2 0-3 2m-107 1c-3 1-3 2-5 9 0 2 1 4 4 4 2 1 6-1 4-3v-1l2-6c0-4 0-5-5-3m-192 3c-6 2-6 2-7 13l1 12c1 0 2 1 1 2h9c6-1 8-2 6-6l1-2c2 0 3-2 2-3s0-2 1-5c2-3 2-5 1-6-1-2-1-2 1-3l2-2h-18m42 1l-1 4v6c-1 4 0 10 1 8v-3l1-3 1-13-2 1m-190 3l-1 10-1 11v3c3 2 0 4-5 4l-4 1h4c3 0 4 1 2 3-2 1-6 1-5-1l-1-1-1 2c-1 2-1 2-2 1s-2-2-4-1c-3 0-4 1-1 3v2c-2 1-1 2 1 2s2 0 1 1c-5 4-3 5 8 5h12l2-4 1-4 1-1 1-1-1-2c-1 0-2 1-2 3 0 4-1 1-2-3l1-4v-9c3-1 3-3 1-2-2 0-2 0-2-2v-16h-3m181 1v19c0 2 0 3 1 2l1-6v-11c1-5 0-8-2-4m307 7l-6 2-1 2-2 3c-3 1-3 1-4 5l-1 7c0 5 0 5 2 5l4-2 3-1h2c-1 2 0 3 3 3 2 0 3-2 2-5 0-2 0-2 2-2l3 1 2 2c0 2 2 2 5 1l2-3c0-1 1-2 3-2 2-1 3-1 3-4 0-2 0-2-2-2h-2l3-2c2 0 2-1 0-7-1-2-1-2-5-2l-9 1h-7m-527 1v6c1 5 5 4 5-3 0-4-3-6-5-3m105 2c-3 3-3 10 0 9l3 1c1 1 1 1 1-1v-3c2-1 1-2-1-2a3 3 0 010-4l1-1c0-2-2-1-4 1m361 0c-5 5-5 12 0 12a11 11 0 0011-8l1-2c2-1 1-2-5-3l-7 1m-121 1v3c0 1 0 3-2 4l-2 4 1 2 3-3c3-3 5-3 7-1 1 2 2 0 2-5 1-3 1-4-1-4h-8m97 1c-4 2-4 3-5 9v8l3 3c1 2 5 2 8-1 2-3 4-3 8-4 1 0 2-5 1-6v-9h-15m-215 9v15c0 2 0 3 1 2l1-6v-10c1-5-1-5-2-1m360 1c-2 1-3 3-1 3l1 2-2 1c-1 0-2 1-2 4s0 4 2 4c1-1 2 0 4 2 2 3 6 4 7 2h1l2 1c3 0 3 0 3-6 0-3 0-6 2-7 2-3-1-6-7-6h-10" tabindex="-1" itemprop="light" style="fill-opacity: 0.662; fill-rule: evenodd;"></path></symbol><symbol id="-posters-1650742391604-regular"><path d="M0 2c0 1 8 2 19 1l3 1-1 1v2l-2 1-1 1-2-1-1-1c-2 0-5 4-4 5l-2 2c-2 0-2 1-2 2l1 5c0 2 0 2 4-2s6-4 13-3l1 3v3c2 0 2 14 1 20-1 3 0 5 2 3l1-11 3-13 9-5c1 0 0 4-2 4-2 1-2 3 0 3s3 7 3 26c0 13 0 14 2 14 3 0 4 1 3 6 0 4 0 4 2-2s3-7 7-9c5-2 8-3 10 0 1 1 1 1 1-1V47c1-7 0-9-1-5l-3 2c-3 1-3 4 0 4 4 0 4 3-1 3l-6 2c-7 3-12 2-11-1v-9c0-8 1-9 6-9l5-1 6-2 6-3 9-5c3 0 4-1 4-6 0-3-1-3-2-1l-13 6c-1 0-3-5-3-12l1-6 34-1h35l-1 2-1 4-1 22 1 16c0 7 2 5 2-2 0-3 5-8 9-9l7-3 5-1c5 0 6-17 1-18-3 0-4 4-2 6 3 3 2 4-3 5l-9 3c-6 2-7 2-7-2v-3l-1-3a21 21 0 0116-14l5-2c2 0 1 5 0 5-3 1-2 3 1 3 2 0 3-1 3-5l1-4h18c21 0 20 0 19 9l-1 7-4 6c-4 4-4 4-5 3-2-2-4-3-4-1l-2 4c-1 2-2 7 0 8 1 1 4 0 8-3l4-2a15 15 0 009-9l1-2 2-6c2 0 0 10-2 12-2 1 0 3 2 3l-1 3v6l-1 6-1 7c-1 4-2 4-8 7l-8 3-4 1c-1 2-2 2-3 0l-2-2v2l-1 3-1 5-3 5-8 3c-4 1-5 1-6-6l-1-6-1 7-1 7-3-2-3-3-2-1-3-1-9-4c-7-2-7-2-4-3 4-1 5-4 3-7-2-2-2-2-3 0-1 1-7 4-11 4l-4 2-5 2-7 1c-5 2-9 0-7-4V56l-1-5-1 2c-1 3-3 3-5 1s-2-2-3 0c-2 4-3 1-4-8 0-12-2-11-2 2 0 11 0 12 2 13h6c4-2 5-1 5 6 1 10 0 11-11 11-5 1-6 2-6 14 0 8-2 12-6 12-2 0-4-6-4-12v-5c-1-3-1 7-1 17l-1 7v1l1 3v3l1-3 2-2 3-1c1-2 7-4 14-5 6-1 7-2 6-10-1-11 4-16 14-18l6-1c0-3 19-5 20-2l4 3c9 3 10 11 3 18-5 5-5 5-6-2l-1-5-1 5a13 13 0 01-4 7l-3 1-4 1c-1 2-8 2-8 1 0-4-3-2-3 3-1 8 1 8 8 3l8-2c4-1 5-1 6-3s4-4 5-3l-2 5-3 7-1 3c-1 1-2 10-1 11v5l1 5c2 0 2 6 0 10-2 2-2 2 1 4s3 3 0 8-3 7 1 9c2 2 2 3 1 4s0 9 2 9l1-1h2c2 2 4 2 8 1 5-2 5-3 5 2 0 2 0 3 1 2 2-5 9 10 7 17-2 6-3 8-5 5s-3-1-4 13c-1 18-5 24-11 17l-3-3v-51c-1-1-2 1-3 6 0 7-4 8-4 1l-1-4-4 6c3 0 0 2-3 2-6 1-7 0-7-12l-2-41-2 1-2 2-3 2c-4 6-11 2-11-6l-1-9c-1-5-1-5-1 5-1 4-1 4-7 5l-6 1-5 1c-2 0-3 1-3 3s0 2 5 1c6-2 17-3 17-2l-2 2c-2 0-2 1-1 2l-1 4-2 4c2 5 2 5 4 4 2-3 10-6 15-7 6 0 7 1 5 6l-2 17c0 5-1 7-2 8-3 2-17 5-19 5-1-1-2 1 0 2l1 2c-1 1 0 2 3 3 4 1 4 1 7-2 2-3 4-3 7-4h6l-1 2v4l1 2h-2c-2-2-2-2-2 13v15l1 8v-6l3-20c1-3 12-8 18-7l2 1 1 15c0 17 0 16-9 18l-7 1h-7c0-4-1 1-2 6 0 5 1 6 3 4 1-2 2 2 2 6 0 5 2 6 2 1 0-7 2-10 7-12l7-3h4c-3 6 0 11 6 9l18-4h3l-4 1c-3 2-5 4-3 4a2 2 0 011 3l-2 1 2 1c2 0 2 11 0 14-3 2-17 5-18 3l-3-2c-2 0-2 0-1 1s0 3-1 7c-1 6-2 6 3 6 3 1 3 1 3-1s0-2 5-2l7-1 6-1h5v-16l3 4 11 9c8 6 9 7 6 8-2 1-2 2-2 6s0 4 2 4c5-3 10-2 7 1l-1 6c0 5-1 6-4 6h-4c-1 2 0 6 2 6s3 7 1 9c-4 5-16 7-19 4-2-3-3-7-3-13v-31c-2 0-2 1-2 31-1 16-1 17-3 19s-4 1-6-4c-1-3-1-3-1-1-1 3 0 12 1 12l6-2c4-2 9-2 6 0l-2 10c0 8 0 10-2 11h-8c0-5-3-4-4 1-1 7-5 9-9 4l-2-2-1 2c0 1-1 2-4 2l-3 2c0 1-11 2-12 1-3-3-1-30 2-33 1-2 9-5 14-5l3-1 1-12-5 5c-2 3-8 4-10 2-1-2-3-13-3-22v-8c-1 0-2 5-2 15s-1 14-3 14l-1-7-1-6c-1 0-2 5-2 13v11c2 2 3 10 2 13a44 44 0 00-2 21v1c1 3-1 8-5 9-5 2-5 2-7-3-1-5-3-6-3-2v2c1 1-3 5-5 5l-3 2-1 4 5 1c21-3 24-2 24 6s2 5 3-5 4-14 8-12l4 2c0 2 2 1 2-1s2-3 8-4l9-2c2-1 2-1 2 1s1 3 2 3l1 3-1 12c0 9 0 10-2 11l-1 1c3 0 2 2-1 2l-7 2c-6 2-9 2-9-3l-1-6c-1 0-2 3-2 7l-1 9c0 2 0 2 3 2 4-1 4-1 4 1l-2 5c0 5 2 6 3 2 1-8 6-13 9-10h2l3-1c1-1 1-1 1 15s0 18-4 20c-3 0-3 2 0 2l2 2c-2 2 1 4 2 2l7-2h4l-1 3v8c0 5-2 6-7 6h-5l-1 5c-1 5 0 7 1 4s7-2 7 0l1 4c1 0 0 5-2 8l-3 2-2-3c-2-2-3-3-2-5l-1-3-1 4c0 4-8 7-10 4h-3c-2 2-9 3-18 3-9 1-9 0-6-19 1-7 3-9 22-12 3 0 4-2 3-14v-8l-1 7-2 8-1-3c-1-3-3-4-3 0 0 3-2 5-6 5-5 1-5 2-6-33l-1-1-2 13c0 19 0 20-2 21-2 2-3 1-4-4-1-8-2-4-2 8l-1 23c-1 4-1 4 1 5 2 0 2 0 1 3l-2 9v8l1 3 1-3v-6c2-2 6-3 6 0v6c-1 5 0 5 2 0 4-9 10-12 13-6l2 3 2-3c3-3 7-4 8-2 0 2 4 1 9 0l5 1 4 1 2-9 2-13 1-4 6-1h7l-1 6 1 6 1-3c0-6 1-7 3-9 2-1 3-1 1 1l-1 5c1 14 0 19-1 19l-2-4c0-7-2-2-2 6l1 10 1-1 2-3h26c1 1 1 1 2-1 0-4 0-5-3-5-2 0-3-1-3-3l-1-6v-10l-3 3c-3 4-3 6-1 5 2 0 3 4 1 6-3 2-10 2-12 0l-1-14v-25l-1 2c0 6-6 11-7 7-1-2-3-2-3-1 0 4-6 2-7-2-3-10 0-13 12-14h7l-1-5c0-6-1-7-3-5-3 3-10-1-9-5 2-5 11-7 11-2 0 3 0 3 2 2l1-3c-1-2 3-5 7-5h4v-6c0-5-1-6-4-3-1 2-2 2-9 2h-7l-2-5a82 82 0 00-1-7l-2-2-1 2c1 3-1 34-2 36s-7 3-10 1c-4-3-4-65 0-76 1-4 2-4 9-5l7-1c2-3 7-4 10-3 3 0 3 0 3-3-1-4-1-4-8-2-13 3-14 3-14-10 1-11 3-12 15-14h7l2-8c2-9 3-11 9-11 2-1 2-2 3 35a53 53 0 002 17v3l1-9v-12h5c1 29 1 33-3 32l-13-1-2-1-1-1-3-6c0-5-1-6-3-4l1 2c3 4-3 13-9 13-3 0-3 0-4 2-1 4 0 11 1 8 1-2 8-5 11-4l3-1 1-1h6l5-1-2 2c-2 3-2 4 0 6 1 2 1 2-1 5v2l1 2c-1 3-1 3 1 2l7-3c3-1 4-2 5-4 0-2 2-4 5-6 4-3 11-10 10-12l-1-13-2-14c-2-2-5-45-4-47 2-1 11 13 11 17l2 5c2 4 2 9 1 23l1 3 1-3c0-11 8-5 8 6 1 5 1 5-2 5h-4l-2-3c-1-3-1-3-2-1l-1 3-1 2v5c1 4 1 4-2 8l-1 3 3-1v-1c0-2 4-6 6-6s4 4 3 7l1 3c1 0 2-2 2-6 0-2 2-5 5-5l1 2 1 4c2 1 2 2 1 3-1 2-1 2 1 2l3 2 3 2 2 1-2 1c-2 0-4 3-3 6l-2 1h-2l1 1v16c0 3 2 1 2-2 0-5 3-8 8-8l5 1 4 1c3 0 3 0 3 4 0 11-2 16-6 11-2-2-2-1-3 9 0 8 0 8 2 5 1-3 8-6 10-5l2 13c1 11 1 12-1 14-1 3-8 4-10 2s-3 0-3 7l1 7 1-1 4-4c1 0 2 5 1 12l-1 11c0 10-4 8-5-2 0-6-1-7-2-6l-1 6c1 6 1 6-2 6l-4-1-1-1-1-5-1-4 1-3-1-2-3 2c-2 2-2 3-1 4 2 1 2 1 1 2-2 2-4 7-3 8l3-2 2-2 1 2-1 4-16 1h-4c-1 3-4 2-5-2v-25l18-4c7 0 8-1 7-5l-1-7c0-6-3-5-4 1-1 5-7 5-7 0 0-3-2-4-2-1-1 3-10 4-20 3-6-1-7-1-11 2-5 2-6 2-8-4-1-2-1-2-2-1l-3 2c-2 0-1 5 2 8 2 1 2 2 1 3v6l-1 14c2 0 3-2 4-8 0-7 1-10 3-7l1 1v-1l3-3 13-1 1 2c1 1 2 17 1 29-1 8 0 18 2 18 1 0 2-3 2-7 0-3 2-4 4-4 1 0 2 2 2 5 0 7 2 8 2 1 2-8 10-8 9 0l1 5 1-2 3-4 4-6c2-2 7-3 17-2h4v-11l1-15c0-6 2-10 4-10l1 6 1 5c2 1 3 4 1 4l-1-1h-1l-2 18v18h6v-12c-1-15 0-14 2 2l1 10h23c20 0 22 0 23-2v-8l1-7c0-3 0-3 2-3 4 1 5 0 4-10-2-30 0-36 11-40 5-1 8 1 6 4l1 2 1 4v3l2-3c2-3 3-2 2 2l-1 6-1 26c0 25 0 26 2 26s2 0 2-18c1-8 2-12 5-12l1 5c0 6 1 6 3 2 1-5 5-6 4-1l1 7c2 5 2 5 0 4-2 0-2 0-2 2l2 1c2 0 3 3 2 7 0 3 0 3 3 3s3 1 3-16l2-12 2-5 7-1 7 1c1 1 1 0 1-1l1-5v2c0 3 0 4 3 2 2-2 2-3 1-3l-2-1-1-2-1-18c0-4 0-5 2-5l5-1-3-1c-4 1-4 1-4-4 0-4 3-8 3-4l3 1h2l-2 1-4 3c0 2 4 2 5 0 3-2 3-1 4 6l1 11-1 6v3l1 9 1 8v7l-1 7-2 8c-1 2 1 4 4 4 2 0 3 0 2-3l1-7c2-4 4-5 4-2l-1 1-1 1h2l3 1c2 3 2 2 4-3s1-5 13-7 15-1 12 3v9c2 13 4 6 4-13s3-25 13-24c5 1 8 1 10-1 3-1 6-1 6 2l-1 1-1 2-2 2-4 3c-2 3-1 5 4 3 10-4 18-3 18 3l1 3 1-3c0-5 6-7 15-7 9 1 10 0 8-6v-6l2-9c0-8 4-13 9-13l16-2h5v-16c0-17-1-19-3-13-2 3-2 4-1 6s0 9-3 12l-2-1c-3-2-7-2-10 1l-6 1-6 2c-1 1-2 1-12-1-5-1-9 6-4 7v4c-2 2-3 6-1 7l2-2c1-3 3-4 8-4h4l-1 6-1 7 1 2c2 2 0 6-3 7-4 3-6 2-7 0l-2-1-2 2-4 1c-6 5-12 4-14-1-2-2-4-12-3-13l-3-16c-1-1-4 11-3 13 0 4-2 9-6 10h-12l-10 1-1-6c-2-14-2-14 0-18 4-4 9-5 22-7l10-1-1-17c0-41 1-46 14-48h7c1 1 2 0 3-1l5-1c3 0 6-4 4-7v-23l-1-22-4 2c-7 7-7 6-7-16l-2-22v-11c0-8 1-9 9-7 4 1 5 1 9-2 4-2 12-3 14-1h1l3-1 1 12-1 10 5-2 6-3 11-2c8-2 12-2 16-1 2 1 3-1 4-18 0-14 1-19 4-23 4-6 24-10 25-6l2 2c2 0 4 3 2 4l-1 8-1 8c-2 2-2 30 0 31v1l-1 9v16a122 122 0 01-5 34c0 3-6 3-6 0-1-2-1-2-3 0l-4 3c-1 0-2 0-1 1h-4c-2-1-4-7-4-16l-2-10c-3-2-4 2-2 20 0 14 1 14-12 14h-9l-1-3c-1-6-2-3-3 6 0 12 0 12 5 8 10-9 13-7 13 8 0 6-1 10-2 11v3l2 2v42l2 2 2-1c0-3 3-4 9-5 7 0 8 1 7 7v13l1 11 1 10c1 5-5 7-12 4-5-2-6-5-6-11 1-3 1-5-1-7-2-5-3-4-3 2l-2 6c-2 2-3 5-1 5l1-1h1l1 5c-1 4-3 5-7 1l-3-1c-1 1-2 0-3-1l-2-2-1 3c0 3-1 4-3 5-4 0-5 3-4 7 2 2 2 7 1 9v4l-1 3v16c-2 7 7 9 18 6l12-1 12-2c5-2 9-2 7 0-3 4-1 4 15 4 12 0 16 0 14-1-5-2-6-10-3-18s25-7 24 1l-1 4-1 4v3c1 1 0 2-2 4l-2 3h3c4 0 4 0 6-9 0-3 1-7 3-9l3-4v11l1 12v-66l-1 11v18h-8l-9-1h-2c-3 3-10 2-12-1a58 58 0 011-30c0-8 5-9 26-8l5 1v-36c2-80 1-211-1-198 0 3-4 5-8 4l-2 1-2 3c-2 2-2 2-1 5l2 2 3-2h5c3-1 3-1 3 10 1 4-5 5-9 1l-2-2-1 3c-1 3 0 3-14 7-5 2-7 2-7 0l-2-2c-2-2-3-10-2-34 0-27 1-44 3-45l1-4 3-17 3-1 4-1 7-2 7-2c3 0 3 0 3 2v35h-4l-1-3-2-4c0-3 0-3-1-2-1 2-1 11 1 12v7a18 18 0 001 10l1 6v8l2-3 3-6 3-8 3-5v4l1-28c0-23-1-28-1-16 0 14-1 16-1 11-2-9-2-73 0-80l1-5v9l1 9V8l-1 9-1 11c0 2-3 4-4 2s-3 0-3 2l-1 1-3 2c-2 2-2 2-3 1l-2-5-1-3c-2-1-3-9-2-15l1-7c1-2 1-3 10-3 7 0 10-1 11-2L331 0C37 0 0 0 0 2m24 1c0 4 4 9 6 7l6-2 3-2 2-1c2 0 2 0 1-1L24 3m23 0v3l-2 5c-1 1-2 2-1 3l3 8c1 2 1 2 3 1 1-1 2-2 3-1v-1c-2-3 1-5 4-2 3 2 4-3 2-7V7l1-2V4L47 3m156 1l1 10c0 3 5 3 8 1 2-2 5-2 10-3l10-2c3-2 4-2 4 3 0 3-1 4-2 4l-5 2-4 2c-2-1-10 2-13 4l-4 3-2 17a321 321 0 01-1 21l-2 1c-9-1-17 3-19 11-1 4-2 5-5 5-5 1-10 4-11 6l-3 1c-2 0-1 1 1 4l5 9c3 7 3 7 9 5l1 7-1 8-1-2-1-3c-2 0-2 3-2 16v17c-5 7-2 33 3 29v1c-3 4 4 8 8 4 1-2 3-2 4-2 5 2 19-2 16-4v-3l1-4c1-1 1 3 1 9l1 22-1 12-2-21c1-5-1-7-3-4l-2 1c-3-1-13 3-13 4 0 2 2 4 7 8 3 2 6 4 6 6l3 3 2 2 2 3 1 4c0 3 7 16 9 16a8 8 0 006-7c0-2 2-1 3 2s6 4 8 2l4-2c2 0 2-1 2-5 0-13 4-17 6-4l1 7c2 0 5-2 6-6 2-4 4-3 5 2 0 3-2 8-6 10-2 2-4 6-6 13l-1 4-1-3c2-11 2-12-1-12s-9 3-10 6c0 2-2 1-3-1 0-2-8-2-10 0-2 1 2 11 6 14l2 4 1 2c1 1 2 0 2-6-1-13 2-12 2 2l1 11 11 11c16 15 18 16 16 6l1-8v-4c-1-1-6 0-11 2l-5 3-1-7v-19l1 6 3 8c1 2 4 3 4 1v-3l2-2 1-3c0-3 2-2 4 1 2 4 14 4 14 0 0-1 1-2 5-1 5 0 17-4 19-7 3-3 4-1 4 4 0 4-1 5-2 5l-4 2-7 3-7 3-2 1h-6c-9 2-9 2-9 13l-1 10 4 4c3 3 11 4 12 1 0-3 2-2 2 0 0 5-1 7-4 7s-3 2 0 6l4 6 3 7 5 11c2 7 5 10 3 3v-6l2-4c1-3 1 0 1 9s1 14 3 15c3 1 24-3 26-6 2-2 3 1 2 5v10l-1 8v3l-1-3v-7c0-4 0-4-2-4s-2 1-2 2l-1 2h-1l-5-5-2 2c-2 2-5 2-3 0h-3c-2 1-3 1-3-1-1-2-3 0-3 4 0 1 1 2 3 2 3-1 5 7 3 13-2 3-2 3 0 7l1 10c0 5 0 9 4 25l3 13c1 5 2 6 3 1 0-3 0-3 1-1s1 2 9 2c11 0 12-1 13-14 0-10 1-13 3-8l1 6v5c-1 3 0 6 4 8 3 3 16 0 16-2l1-3c2-1 4 2 4 5l2 2 1 2c0 5 7 7 11 3 2-1 2-2 0-4v-6c2-4 2-11 2-20 0-6 0-9 1-8l1 4c0 2 0 2 6 2l7-2c1-1 3-12 2-16v-5l-6 1-8 1c-2 1-5-3-3-5l1-5c0-4 2-6 3-3 1 1 6 0 6-2s2-1 3 1l2 2 3-2c4-2 5-4 5-13s2-9 3 0c0 5 2 9 5 10h8l3-1 5-1c1-1 2-2 3-1l4-1c3-3 5-3 7-1 1 2 1 1 3-6l2-4v2l1 3c2 1 3 13 1 15v1c2 2 2 20 0 21-1 1-1 0-1-4 1-3 0-6-1-8l-2-3v22l-3-2c-2-2-2-3-1-5v-16c-1-5-3-5-8-1-3 4-4 4-2 15 0 5 0 6-2 10-3 3-3 5-3 12a6655 6655 0 000 52l1 5 1 3c-1 4 0 6 3 6l2 1c1 1 6 0 6-1l-1-3c-1-1-1-1 2-2 5-2 5-2 5 0l4 7v-13c1-5-1-6-3-1-2 3-4 3-6 2-1-1 0-5 2-5 1 1 2-3 1-5v-33l2-4 3-8 1-7c1-1 1-1 3 6 3 11 10 7 8-3-1-4 1-6 3-5 2 0 3 3 2 9 0 4 0 4 6 1 2-1 2-1 3-13l1-38c1-1 0-1-1-1l-4 2h-3v-7c1-5 0-7-1-8v-11l-1-7 1-4 3-3 1-1 3-4 2-4c0-1 0-2 3-2 2 0 2-1 2-2 0-3 1-2 4 1l4 2h2c0 2 3 1 3-1v-11c-1-2-1-2 1-3 3 0 3-2 0-4-2-1-3-4 0-4 1 0 1-3-1-3l-1-7c2-13 2-16 1-16v-15c-2-1-2-6 0-7v-8c2-3 3-3 3 1 0 3 0 4 4 5 9 3 14-1 16-10 0-7 1-7 3 2 1 5 4 7 8 7 3 0 11-8 12-11l1-2v25c2 2 6 2 9 1l8-3 5-1v-7c1-8 2-8 2 2 1 11 5 11 7-1v-23c-1-2-5 2-6 6-1 6-3 5-3-3 0-11 4-14 16-14 6 0 7-2 5-15l1-9c3-3 2-4-6-2s-14 5-16 8c-1 1-1 0-1-3l2-6 1-11 1-11c0-2 3 4 3 7 0 7 4 10 9 7 2-2 9-3 9-1 0 3 3-2 3-5 1-5 3-5 5-1l3 4c2 0 9-2 9-4h3c3 1 6-15 4-22v-6c3-6 3-8-1-8-6 0-15 3-19 7-3 2-3 2-3-19l-2-28c-1-12 0-15 2-13 2 3 6 2 6-1l1-3v-3l-5 2-6 2c-4 0-13 4-15 6l-1 6c-2 7-3 6-2-1 0-7-1-8-6-4-3 2-3 2-3 0l2-4v-3l-1-15-1-23c-2-11-2-13 1-13l2-2V15a21 21 0 00-1-11c1-2-19-2-22 1-5 4-6 28-3 44v12a203 203 0 00-3 20v13c2 8 1 9-9 16l-8 1c-14 0-14 1-14 44 0 28 0 28-2 26l-2-4-1-1c-2 0-2-1-2-3v-4l-5 3c-4 3-4 4-3 4h-3l-4 1c0 2-6 4-10 4l-6 2c-3 2-3 0 0-5 1-3 2-6 1-12l1-7 1 2a8 8 0 0010 9c1 0 2 0 3-2 0-2 2-4 4-4l4-5c0-2 5-2 8 1 1 2 2 1 2-13 2-30 2-33-1-33-2-1-2-2-2-5l-1-10 1-11 1-11 1-5c1 0 2-4 1-5V57c0-8-1-8-2-8-2 0-3 0-3 2 0 1-1 2-5 2-15 2-22 12-22 31l-1 7 1 6c2 9 1 14-2 11-2-3-3-2-4 0l-2 4c-2 2-4 2-15 5l-9 3c-5 1-6 1-6-4 0-4 1-4 4-2l2 2 1-2c2-4 2-11 1-13v-7c2-5 3-5 3 0 0 3 0 4 2 4s2 1 2 4c0 5 3 6 4 2 0-3 5-5 7-3 1 3 4 1 5-4l3-7c2 0 2-1 2-8l1-14v-7c-1-1-3 1-5 5l-2 5v-5l1-7V49c0-7 0-7-2-6-2 0-2 0-1-2 2-4 3-17 2-18l-1-3a10 10 0 001-5c1-4-2-5-8-3-5 2-7 9-9 31a333 333 0 00-2 43v4l-1-3-1-7c0-3-4-4-7-2l-5 2c-7 0-16 6-17 11l-2 3 1-8 2-7-3-3-2-3 1-4c0-3 2-3 2 0 1 3 6 3 6 1l2-1 3-1c6-5 6-5 8-4h5l3-1 1-11 1-8v-9l-4 1a29 29 0 00-12 4l-4 3c-2 4-9 6-15 5-7 0-8 1-9 7s-3 7-3 1c0-5-3-5-4 0-1 4-2 5-3 2s1-19 2-16c2 5 12 4 20-2l4-2c3 0 3-1 1-8V11c1-4 2-2 2 2l1 5v4c0 3 2 6 3 3l3-1c3 0 5-2 5-4l3-3 4-2 2-3 2-3c0-2 0-2 3-1 2 1 7 0 11-3l2-2h-7a8 8 0 00-8 3c-1 0-2-1-1-2l-12-1c-9 0-11 1-11 2h-1c-2-1-3-1-8 1l-7 3-5 3c-5 3-6 7-6 17v8c-1 1-1-1-1-7-1-21 1-27 6-25l4-1c1-1-2-1-13-1-13 0-14 0-22 3-12 5-13 6-15 19l-2 9V3h-9l-9 1-1 4c-2 9-2 9-9 10a20 20 0 00-12 6l-5 3c-4 4-6 16-3 20 2 1 2 2 1 3-2 2-4 13-3 14v4c-1 3-1 3 1 4l2 2-1 2-7 3v-1c2-2 3-12 2-13-2-2-2-7-1-10V33c1-3 0-4-5-2l-4 3c-1 2-4 4-5 3l1-3v-2l2-8c2-5 3-5 13-7 4-1 8-11 5-11l-1-1c3-3-22-2-29 1l-8 4a19 19 0 00-11 8c-2 0-1-13 1-13V4h-49m101 0l2 3 1 5 1 2 1-3c0-4 1-4 3-1s5 2 6-1c0-2 1-2 2-2 5 2 6 2 5-1 0-2 0-3-10-3l-11 1m172 1c-5 3-9 11-9 16l1 22c2 9 2 9 15 3l6-2c13-3 13-3 14-7l1-4 1-1v-9a352 352 0 01-1-17V3h-12c-11 0-13 0-16 2m33-2v10c1 7 1 10-1 17a68 68 0 00-1 29l1 5c0 4 3 6 6 5 10-3 10-4 9-17-1-16 0-33 1-35v-2l-1-3 1-5V3h-15m65 4c-1 4 1 14 2 14l3-1 5-2c8-2 15-5 15-8 0-2-1-3-3-1h-2c-1-1-1-1 1-1l3-1c2-2 5-2 5-1l-1 3c-2 2-2 3-1 3 2 0 7-4 7-5l-2-1V5c2-1-2-2-17-2h-15v4m36 1l1 8c1 5 0 6-3 4l-3-2-6 2-7 3-15 5c-1-1-3 5-5 15-3 13-1 31 3 31l7-1 5-3 5-1 6-2c7-2 8-2 8-11l1-8 3-17 1-5c2 0 2 19 0 28-3 16 1 28 7 22l2-2c3 0 12-5 13-7s1-2 1 0c0 7 9 8 15 1 2-2 3-4 3-7l1-4 1-6 1-7c1-4-10-2-18 3-4 3-4 2-2-9V24l-1-13V3h-25l1 5m-80 3c-2 3-2 4-2 11l-1 20 1 18c1 1 8-3 8-5l2-15-1-5v-2l1-10-1-11c0-4-3-4-7-1m-94 8c-3 4-3 7 0 6h4a5 5 0 10-4-6m-61 8l-1 4c0 2-13 7-15 6l-3 1-4 4-3-4c-2-4-3-1-2 4l1 7c0 2 0 2 3 2h4v5c0 6-2 8-5 6h-5l-5 1h-3c0 2-5 4-8 4-1 0-2 0-2 3-1 4-2 5-6 6-3 2-3 2-3 7 1 10 2 15 3 14l1-2c-1-1 3-14 5-16l8-5 9-4c3-2 7-1 9 1l2 2 2-16c1-4 1-5 3-7 1-1 2-3 1-4l2-1c3 1 6-1 4-2a1 1 0 111-1l2-1 4-2c3 0 4-2 4-8 0-7-1-8-3-4m-125 7l1 2v7c-1 7-7 13-13 11l-2 1c1 3-2 6-6 6h-3v15l-1 5 2-3 3-7a7 7 0 016-6c5-4 11-5 18-6 5 0 13-1 18-3h5c4 1 4-3 0-5l-2-2c4 0 8-9 5-10h-1l-5 3c-3 1-5 3-5 4l-5 4-4 3c-4 4-7 0-7-12 0-7-2-10-4-7m-143 4c-3 1-5 2-6 1s-1-1-2 1l-2 3-1 3v2l6-2 7-2c3 0 7-4 7-6-1-3-4-3-9 0m49 4l-3 5c-6 4-5 6 1 4 4-2 4-3 3-8-1-2-1-3-1-1m216-1l2 2c2 2 3 2 3 13l1 14V40h-3l-3 1m-47 17l-2 3c-5 0-15 4-16 7l-3 3c-2 0-3 2-1 2l8-3 8-3 3-2 4-3c2 0 2-1 2-3 0-4-2-5-3-1m-49 7c-2 4-4 5-5 5-3-1-4 1-3 9v14l1 7 1-3c0-7 5-23 7-23 1 1 2 0 2-5l2-7c1-4-2-2-5 3m119 1l-1 8c0 6-1 7-4 3-2-2-2-2-4-1l-3 3c0 2-3 1-3-1l-2-2c-1 0-2 9-1 11l1 5c0 3 1 4 3 2 1-2 10-6 13-6 3 1 5-5 4-16-1-8-2-10-3-6m138 3l-14 4c-15 5-15 5-15 18-1 16 0 17 17 10l8-3c3 0 7-2 7-4 2-27 2-27-3-25M19 73c-9 2-15 10-8 10l4-2c2-2 5-2 5 0l1 2c1 0 2 3 2 15-1 21-1 20-2 20-1-1-2 0-3 1l-2 2c-1 0-3-6-3-10l-1-3-1 3-1 5-2 5c-1 2-2 3-1 6l1 4 5-2c3-1 4-2 3-3 0-2 0-2 1-1l6 1c4 0 5 0 5 3l1 2c1-2 11-7 12-6 3 0 9-7 8-9v-10l-1 3v5c0 1-1 3-9 6-10 5-10 5-10 2l-1-2-3-19 1-4c1-3 4-4 14-8h7c1 2 2 7 1 9v1c1 0 3-6 3-11 0-6-1-8-3-5-2 2-4 1-4-3s-1-4-4-2l-7 7-2-4c-2-4-3-4-3 1l-2 5c-1 0-2-5-2-11 1-4 0-5-5-3m620 6l-2 2c2 0-1 3-2 3l-1-2c1-4 1-4-11 0l-12 4c-4 1-9 5-10 7l1 35c0 2 11 0 12-1l6-1 7-3 10-4c12-3 12-2 11-21 0-21-2-25-9-19m-387 3a10 10 0 01-9 4c-2 1-2 1-2-1s0-2-1 0c0 2-6 8-8 8-1 0-3-3-3-6l-1-2-1 8-1 6-3 2c-2 2-12 4-14 3l-1-5c-2-12-3-13-4-3l-3 8c-3 2-3 3-2 13 0 12 1 15 1 5 0-6 0-7 3-9s15-6 23-7l6-3c0-4 10-13 15-13s9-4 9-9v-2l-4 3m407 18v20l1-17V84l-1 16M297 84c-1 1 1 11 2 12l1-1c2 0 2-8 0-9l-1-2v-2l-2 2m58 2l-2 2-1 2-1 2v3c2 1-3 5-6 5l-9 3c-10 4-15 4-15-1 0-2 0-2-1-1l-1 15-2 15v3l2 4 2 3v-7c-1-13 0-17 6-19l11-3c5-1 7-2 8-1s1 1 1-1 4-6 6-5l1 5 1 5 1-12 1-16c1-5 0-5-2-1M83 87c-3 1-6 9-3 11 4 2 8-1 9-7s-1-7-6-4m214 14c-1 2-1 2-3 0-2-1-2-1-2 1l-2 2c-2-1-3 0-3 2 0 4-4 6-6 4s-6-3-6-1c-2 2-3 1-3-2-2-5-3-1-3 12 1 13 1 16 4 10 1-3 7-6 20-11 4-1 4-1 2 5l1 1c2 0 2 0 0 3l-1 6-1 4v2c0 3-3 6-5 4s-5-1-9 2c-4 2-7 2-5 0v-2l-11 6c-1 1-3 2-4 1l-3-1s-2 1-2 3l-4 5-2 3-1 3-1 2c1 5-6 10-10 8l-4-10-1-4-1 7c1 9-1 13-4 12-2 0-2 0-2 5v28c2 1 2 1 2-1l1-5 3-10 4-12 3-6 2-1c1 1 4 0 6-1 5-2 5-2 5-6s1-6 4-6c2 0 2 3-1 6v3c2 1 3 0 3-3l3-6c3-3 3-4 3-5-2-3 4-3 7-1h3l5-1 4-1c1-1 7-2 9-1h3c1-2 6-1 5 1l-1 11c0 9-1 10-3 10s-3 1-3 2c-1 3 0 5 2 5l9-3 9-2c12-7 13-7 13 1l-1 8c0 6-2 12-4 12l-2 1c0 2-6 1-8-1-1-1-1-1-5 3l-7 4c-4 1-7 4-7 7s2 3 5 1c6-5 8 0 4 8l-2 5h-2c-2 0-2-2-2-5 0-6-2-4-3 4-1 7-3 10-7 10-3 0-3-1 0-3s2-4-1-4c-2 0-2 0-2 2 1 1 0 2-1 2l-2 2-1 2-1 4 1 4 6-2 9-2c3-1 4-2 5-4l2-3c3-1 4-3 5-12 0-10 1-11 7-13h6c6 3 13-11 10-21-1-8 6-18 14-19 5-1 7 0 5 3-1 1-2 4-2 12v16l1 5c-1 4-1 4 1 4h2l-2 1c-2 1-2 1-1 4v3c0 1 0 2 2 2v3l-2 6c0 5 1 5 6 2l5-2 1-1 1-1v15c-1 12-2 14-4 16-5 4-7 2-6-6 0-5-1-7-3-6l-1 5c0 7-2 10-7 10l-4 1c-2 1-2 1-4-2s-2-3-4-1c-2 1-2 2-1 4v2l1 2c2 1 0 2-2 1-3-1-4-5-4-9l-1-2-1 9a26 26 0 01-1 11v19l2 10 3 1c5 1 6 3 4 5h-4c-3-2-4-1-4 1s-3 4-7 4-4 1-6-25c0-7-1-9-2-7l-1 18c0 15-1 17-2 18h-2c1-2-1-3-3-2-2 2-1 4 1 5s2 1 1 2c-3 3-1 3 2 1 7-4 26-7 28-5 2 1 3-1 3-7 0-8 1-9 7-11 8-2 11-2 12 1 0 2 2 3 2 1 0-1 7-3 8-2 2 0 3-5 2-8s-1-3-5-3l-4 1-8 1a32 32 0 00-13 2l-6 1c-5 2-6-1-5-14 1-7 10-13 16-12h3c1-3 11-6 18-6 5 0 5 0 6-18a264 264 0 011-20l2-1 5-2 6-2 3-2 3-2c2 0 4-5 3-8l-1-2c-1 0-2-4-1-5 2-1 1-4-2-4h-5l2 3 2 3h-2a3 3 0 00-6 3v2l-1 1c-1-1-3 0-5 1-13 6-15 5-15-8v-14c0-12 0-21 2-20v-8l1-7c-1-5 0-8 3-8 2 0 4-2 3-4h1c4 2 10 2 8 1-1-1-1-1 1-1h4c2-1 10 0 10 2l2-2c3-4 3-4 14-7 11-4 10-4 12 2 1 9 0 12-7 11-1 0-2 0-2 2l-2 2-7 2h-6c-2-2-7-2-7 1h3c3 0 3 0 2 2l-1 4c0 2 0 2 2 0l9-2c5 0 8-1 12-3l6-2v-6l1-11-1-4-1-8c0-5-1-7-3-5h-3l-3 1c-2 2-5 2-7 0-2-1-2-1-5 2l-4 3-2 1c0 3-5 3-7 1l-2-2-2 3-8 4-7 2c-1 0-2 0-3-2-2-3-3-3-3 0 1 4-2 6-4 3-3-3-5-2-5 2v7c2 0 3 2 1 3l-1 3c0 2-1 3-3 4l-3 4c-1 4-14 8-16 4-1-2-4-1-6 3-1 2-5 2-7-1-1-2-2-1-2 2-1 3-3 4-5 2a337 337 0 01-1-71c-1-2-4-1-5 2m266 1l-2 2-3 2c-4 3-17 5-18 3-2-2-3 1-4 7l-2 9c-2 4-4 21-3 39l-2 26v7l-1 6-6 2-8 2h-4l-2-7c-2-8-2-8-2 4-1 10-2 12-6 12l-7 1-7 2-7 2c-3 1-5 2-6 1-2-1-6-1-5 1v3c0 2 1 2 3 2 3 0 3 0 3 2l1 3 1 9c0 9 0 12 1 6 2-14 2-14 6-12 2 0 2 0 2-2 0-3 0-3-2-2-3 1-3 1-3-1 1-2 4-4 5-3l4-2 7-1 7-2c3-3 9-4 14-4s6 0 9-2c3-3 13-4 17-2 2 1 2 1 2-1v-13c0-8 0-10 2-16 5-17 7-19 15-19l5-1 4-2c1 0 2-1 2-5v-4l-4 1-11 3c-11 3-16 4-18 1h-2c-1 2-4 0-4-4-1-3 0-6 1-10l2-9c0-5 5-11 9-11l12-3 12-3c4 1 4 0 4-9v-6l-2 4c-2 8-5 9-5 3s-2-11-4-9m-334 8l-1 12c1 13 0 13-10 15l-10 2c-4 0-8-3-8-8h-1c-2 3-2 6-3 13 0 9-2 12-5 12-5 0-7-1-7-4s-3-7-4-5l-1 8c0 5-1 7-2 8-1 0-2 6 0 6l19-6c8-4 11-4 10 0 0 9 3 3 5-6 1-11 2-12 14-12h6l-1 3v7c2 5 3 0 3-16-1-24-3-34-4-29M70 120l-2 5c0 2-1 3-2 3l-2 1c0 2-7 8-9 8v-2c1-3 1-3-1-2l-3-4-2-3v3c0 9-1 13-3 13s-2-1-2-7l-1-7-1 11v67l1 15c1 0 2-6 2-24l1-17c2-2 2-2 2 2-1 6 1 5 3-2 3-6 6-9 10-9l4-1 2-2c4 0 6-3 5-6-1-2-3-3-3-1l-3 1-4 2-2 1-3 1c-3 2-9 3-10 1-5-7-3-20 4-22 2 0 3-1 3-2 0-2 0-2 3-2 2 1 4 0 7-1l6-2c3-1 2-5-1-4-4 0-5-2-1-3 3 0 3 0 3-7 0-6-1-7-1-4m401 13c-3 2 1 10 3 9s3-9 1-9l-2-1-2 1m-5 17a29 29 0 01-11 6l-6 2-5 2-4 1c-3-1-6 1-6 3l-2 2c-2 0-4 2-5 4s-4 3-5 1h-3c-3 0-3 0-4-3-2-8-2-8-2 2 0 11-2 14-7 14-2 0-2 1-2 3 0 4 1 6 4 4l6-3 5-3 16-7 5-2c3-2 6-3 6 0l-1 4-3 6-1 3c2 0 3 6 1 11v5c0 2-4 5-7 5-4 0-4 2-1 3 5 1 2 2-5 2-5-1-6-1-7 1-1 3-4 2-5-1 0-5-4-6-4-2l-1 2v1l-1 2c0 1-3-3-3-6s-2-6-3-6c-2 0-2 9-1 12 2 2 2 11 1 13v2l-1 5-3 10v3c2 2 1 3-1 3l-5 2a7 7 0 01-11-5l-3 6-1 2c-3 0-4-2-4-6l-1-4c-2-1-2 16-1 17h6c12-2 14-2 16-1 2 2 2 2 3 1 2-2 5-3 16-6l5-2v-12l2-15c2-4 2-4 11-6l3-1c3-1 5 1 5 6-1 8 1 8 2 1 0-5 0-6 2-7 3 0 4-2 3-13v-26c1-15 4-23 10-23 8 0 17-8 16-15-1-3-2-3-8 3m-264-2c-4 1-5 6 0 6 2 0 6-4 6-6h-6m174 10l-1 20c0 4 2 1 3-5l2-9-1-3-1-3c0-5-2-5-2 0m-352 4v16l-3 1-5-1c-2-2-3-1-4 2l-2 2c-2-1-3 1-3 4 0 4 15 3 19-1v-24c0-3-2-2-2 1m514 8c-4 3-5 7-5 25-1 9-1 9 6 8l5-1-1-8-1-10c-2-4-2-12 0-13 3-3 0-4-4-1m-264 1c-5 3-11 5-14 5l-2 2 1 1 3 2c1 2 1 2 3 1 1-2 8-4 10-4s3-3 2-6c0-2-1-2-3-1m333 12c-9 2-14 5-14 7-4 17-1 21 13 17 8-2 10-5 11-14l1-10c0-2-3-3-11 0m-584 8l-1 13c1 16 0 17-4 18h-5c-1-1-3 0-3 1s-1 2-3 2a4 4 0 01-5-2l-1 22v22l1-14c1-19 1-18 14-20h6v3l-1 5v3l1-1c0-2 3-5 7-5l8-4c6-2 12-3 10-1l-1 10c0 12-2 16-7 18-6 2-15 2-17 1-1-2-2-1-2 6l-1 4 3-2c4-2 6 0 3 4-1 3-4 4-5 1 0-1-3 0-3 3 0 1-5 2-5 0-2-2-3-1-3 1-1 3-5 1-5-3-2-8-3-3-3 15 0 16 0 18 1 9 0-10 1-11 3-12l3-2 4-1c3 0 5 0 7-2 2-1 4-2 5-1 3 0 3 0 4-5 1-8 1-9 8-10l9-2c0 2 2 1 3-2 3-6 2-64 0-60l-1 10c0 10-1 12-5 12l-3 1-5 2c-7 3-7 2-8-20-1-16-2-20-3-17m41 0v9l3-2 4-1c1 0 3-4 2-5 0-1-8-2-9-1m193 6v14c2 0 4-14 2-16l-2 2m20 15c-2 2-1 20 1 20v-20h-1m-117 3c-2 1-3 2-3 5l-2 7 2 4 2 4h1c2-1 1-3-1-3l1-1c2-1 2-2 2-8l1-6c1-2 0-3-3-2m-86 18l-2 8c-2 5-6 6-8 3-1-1-1 1-1 3l1 5 10-2 5-2 7-2 5-1c3 0 5-3 4-7 0-3-2-4-2-1l-2 2-3-2c-3-3-5-3-6 1-3 4-6 4-7-1l-1-4m334 2c-3 8-2 18 2 18 3 0 7-8 7-14l1-3c3-2 1-4-4-4s-5 0-6 3m38 14c0 14-2 20-4 12l-1-2v5c1 2 2 5 1 10-1 10 1 14 3 6 1-5 5-8 10-8l11-3 9-2c2 0 2 0 2-9 1-6 0-6-3-5h-4c-2-3-3-2-3 1 0 5-3 7-10 7s-7 1-9-16c-1-10-2-8-2 4m203-8l-14 3c-13 2-17 6-17 23-2 25-1 28 10 27 6 0 14-2 17-3l4-1 6-2c4-2 4-2 4-8l-1-40-9 1m-544 18l-5 4c-4 0-9 4-6 4l1 2c-1 2 2 2 9 0l9-3c1 0 2 0 2-2 0-3-1-4-3-2 0 2-2 0-2-3-1-4-2-4-5 0m314 5l-1 9c-1 9-1 9-10 11-6 1-8 0-11-5l-1-3v3c0 9-1 9-10 10-14 0-13-1-13 4v4h9c1 2 8 2 10 0l7-3 4-2c2-2 6-1 7 1 0 2 1 3 3 1l3-2c2 0 3-1 3-14v-14m-370 3l-1 4-2 2v11c0 2 1 1 3-1l3-2 1-2h1c2 2 4 1 9-1l4-2v-3c1-3-4-5-9-2s-6 3-6-1c-1-4-3-6-3-3m530 7l-2 8c-2 2 0 4 2 3 3 0 3 2 0 5l-2 5-1-2c-1-6-3-7-4-2-2 7-12 8-12 2 0-3-2-2-5 0-1 1-3 3-5 3-3 1-3 1-3 3s0 2-2 2c-3-1-4 1-5 10v9l5-5c1-3 7-3 10 0l2 2 4-4c3-3 8-5 17-7 3 0 3 0 3-8l1-8v-4l1-4-1-5-1-4c0-6-2-5-2 1m-467 12c0 2-4 3-4 1l-1-2v2c0 2 0 2-3 2l-3 1-4 1c-4 0-4 0-4 2 1 1 0 2-2 5-3 3-3 3-1 4 1 2 2 2 2 0l1-1 1-1c0-2 6-5 13-5 8-1 9-3 8-8 0-3-2-4-3-1m80 5v13c4 0 5-3 5-8-1-6-2-7-5-5m-127 3c-1 2-9 4-15 4-3 0-3-1-5 11l1 4 1-2c0-3 7-9 8-7l-1 6-2 13c0 19-5 16-5-4l-1-3-1 7c0 7 0 8-3 10-4 2-9 3-11 0-3-2-3-1-4 6s-1 8 2 5c1-1 2-2 5-2l11-1h9l1-5c1-25 3-32 9-35 3-1 5-5 3-8-1-1-1-1-2 1m353 6l-1 3c0 1-1 4-3 5-2 2-2 4-2 10l-1 8c-1 2 0 15 1 14l2-3c1-7 5-10 16-10l6-2 4-1 4-2c3-2 8-1 11 1 1 1 1 7-1 13l1 2c2 0 5-8 5-11 0-5 3-7 9-8l5-2 4-1 3-1-4-4-5 1-8 2h-7l-7 1c-5 2-6 0-7-8v-6c-1-1-4 6-4 9 0 4-1 5-8 5l-5 1c-2 2-3 1-3-1l-1-5-2-7c0-4-1-6-2-3m208 3l-4 2c-6 2-8 5-9 14 0 9 0 13 2 13 1-1 2 0 3 1h9l-1-19c-1-4-1-5 1-6s2-2 1-4c0-3-2-4-2-1m17 0c-12 1-13 6-11 47v66c1 5 4 7 6 6l1-2c-1-1 0-1 2-1 3 1 4 0 5-1s2-2 4-1c5 1 11-6 7-8v-26c2-1 3-80 1-79h-3c-2-2-3-2-12-1m-273 4c-1 2-2 2-6 2s-5 0-8 3a8 8 0 01-5 3c1 0 1 2-1 5v4c1 1 2 5 1 11l-2 20-1 16 1 2v13c2 1 1 6-1 7l-2 3-2 4c-2 2-5 3-4 1a2 2 0 00-3-1h-3c-5-4-6-4-7-1-2 5-5 1-7-7l-1-3v12l-1 7c-1 3 0 6 2 4 3-2 8-3 17-3l11-2 11-1c12 0 12 0 11-1l1-5c1-5 0-13-2-13-1 0-2 2-2 6 0 3-3 5-8 5-6 0-6-3-6-20 1-16 2-22 5-24l2-4c1-3 6-4 6 0 0 1 1 3 4 3l1-2s1-2 3-2l3-2 4-1 6 1v-15l1-20c1-7 0-9-2-7-3 2-10 3-10 1-1-3-4-2-6 1m-281 3v4h-2c-4-2-5-2-5 0l-3 3c-5 1-5 1-8-3 0-2-1-3-2-3s-2 5-1 6v2c-2 0-3 3-3 5l3 1h8c2-1 4-2 5-1 3 0 11-4 11-6 0-6-2-9-3-8m283 7c-13 5-18 12-16 21 1 5 5 5 10 2h3l4-1h8c2-2 2-15 0-16v-3c1-5-3-6-9-3m-346 0v3l-2 4c-2 2-3 2-12 2-2 0-3 1-3 2 0 4-5 2-7-2-1-3-1-2-1 7v11l2-3c3-3 12-8 19-9 5-1 6-3 5-10 0-6 0-7-1-5m173 0v17c1 6 3 5 4-2 0-9-2-17-4-15M91 327l-1 6c0 3-2 6-4 6s-3 2-3 5c-1 5-1 6 3 3l4-2c3 1 3-1 2-11 0-9 0-10-1-7m403 1c-16 4-18 7-18 19 0 11 3 15 12 13 7-2 8-2 6-3l-1-2 2 1c1 1 2 2 4 1l9-2c7-1 9-3 6-8-2-3-2-6-1-6 2 0 1-2-1-3-3 0-4-4-2-5 2 0 2-5 0-6-2-2-8-2-16 1m116 18l-14 1a34 34 0 00-14 4l-4 2v6l2 9v12l1 10c1 1 6 2 9 1h4a36 36 0 0021-1l3-1c-1-1 0-2 2-2 2-1 6-5 5-6h-2l-1 1c-3-4-3-5-2-6 2-1 1-3-1-5-4-3-4-4 0-4a6 6 0 004-9 1 1 0 110-2c3 0 3-7 1-9-2-3-3-3-14-1M53 358l-2 3-3 4-3 3h-1l1-2c0-2-3-1-4 1l-3 1-3 1c-1 1-3 2-7 1h-6v3c0 3 0 3 4 3l4 1c0 2-3 3-11 3l-10 1H2c-1-1-1 1-1 4v6l3-2 5-3h2v1l-1 3c-1 3 0 3 1 0 1-2 3-3 6-3 8 0 17-4 17-7a24 24 0 0114-7c7-5 7-6 7-9v-6c0-2-2-3-2 0m16 9c0 18-2 31-3 25-1-3-2-4-3-2l-3 1-2 2-2 1c-2 0-3 0-3 2s-1 2-3 2h-2v-11l-1-11c-2 0-3 8-3 21l-1 14-1 1 1 1c3-2 0 26-3 28-4 3-8 0-8-7-1-8-3-12-3-6 0 13-1 15-7 16-2 1-3 1-4-2l-1-2v2l-1 5c-1 3-1 3 2 4 1 1 2 2 1 3l-1 7-1 7-2 6c0 13-3 16-9 15l-5-1v6c0 5 0 5 2 4 3-2 5-1 5 1 0 3 1 3 4 0 2-2 3-2 7-2 6 1 6 0 6-10 0-8 2-11 8-11l5-1v25c0 12 0 12 2 12 3 0 3 0 3-8 0-7 1-9 3-11 3-3 3-5-1-5-2 0-3-1-3-7 0-7 0-7 5-7 2-1 3-12 1-12-3 0-3-18 0-21l16-4c6 0 7-1 7-3 0-4-1-8-2-6s-13 2-13 0a1 1 0 00-3 1l-1 1c-3 0-3-25-1-27l16-1h4l1-7a61 61 0 00-1-25c1-2 0-11-1-11l-1 8m447 1v4c2 2 1 4-2 6l-3 9h7l18-3 15-2c3 0 3 0 4 5 2 9 4-3 2-15 0-6-2-6-5-3-2 2-3 2-9 2l-7 1c0 2-13 6-14 4l-2-5c-1-5-2-6-4-3m-290 15v4c0 1-3 2-7 2-6-1-11 3-6 5l2 1c0 1 7 1 15-1h4v4a38 38 0 001 9c1 8 2-9 2-20 0-6-2-8-2-3-1 4-5 4-5 0 0-3-3-4-4-1m190-1c-6 0-7 2-7 9l-1 8c-1 4 0 6 7 7l7 2c2 0 2 0 3-2 0-1 1-2 2-1l2-1 1-3-1-3-1-5 2-6a12 12 0 00-14-5m-387 6l-1 9c1 8 1 7-9 8-8 1-9 0-9-5 0-7-1-4-1 5l-1 8h3c5 0 5 1 5 6v7c-1 5-5 5-6 0-1-3-3-4-3-2l-1 1c-2 0-5 3-5 6l1 5v3l3-2c2-2 8-2 11 1 2 1 2 1 1-4-1-10 1-21 3-22 7-3 9-2 9 1 0 2 0 3 1 2v-30l-1 3m501 1c-1 1-2 2-1 4 1 6 5 7 5 2l1-3 1-3h-6m83 7l-9 3c-3 2-3 1-4 27v44l1 8 3 14c2 14 7 19 14 14l3-2c2-1 2-3 2-11l1-16-1-15a23 23 0 010-13c-1-3-1-25 1-23 3 4 4 2 4-11l-1-4c-2-1-3 0-3 7-1 5-3 5-3 0-1-7 0-11 3-10 2 0 2 0 2-4 1-5 0-7-2-7h-2l-2-2-7 1m-29 2c-4 0-5 1-5 3 0 3 2 7 5 7 5 0 12-8 9-10h-9m-474 6c0 5-6 8-11 6-3-2-5 0-4 2l1 1h-4c-4 2-9-2-9-6l-1-3v28l1-3c0-5 2-9 2-6 0 2 0 2 2 1 4-4 14-5 15-2l2-1 5-1c3 1 3 1 3-3 1-11 0-15-1-15l-1 2m309 15c-3 5-4 15-2 18l1 3v6c2 3 2 4 6 4 3 0 4 0 3-1v-2l1-17v-8c1-4 1-4-2-5-4-2-6-1-7 2m-10-1c-6 3-7 4-8 8 0 6 1 7 4 2 1-4 3-6 5-3 2 2 3 1 3-1l2-4c3-3-1-4-6-2m-19 6c-3 6-2 11 3 12 2 1 2 1 2-3v-9c1-6-2-6-5 0M79 438c-1 4-2 10 0 12v3l-2 2h-4c-1-2-3-14-2-15l-1-1c-1 0-2 5-2 12v6l-2 6c0 4 0 4 2 3l9-2 7-2v-11a46 46 0 00-1-14c0-4-2-4-4 1m281 4c-3 2-2 5 2 4 3-1 6-4 5-5 0-2-4-1-7 1m24 6c-5 2-7 4-5 7l1 2c-4 2-6 1-6-2 1-3 1-3-3-3-9 0-12 3-12 14v6h14l1-4 1-5c1-5 4-5 4-1l1 6v4h17v-23c1-2-8-2-13-1m-354 3c-7 1-8 2-7 4l-1 2c-3 0-3 7 0 10 2 2 10 2 15-1h3c2 1 4-1 3-2v-14h-4l-9 1m391 8c-5 3-5 6-4 23 1 8 9 5 11-5v-6l1-7 1-6h-3l-6 1m-99 1c-2 1-3 4-1 4l1 2c-1 2 1 15 2 15s5-4 5-6l1-3c3-2 3-4 0-3-3 0-3-1 0-3 2-1 2-1 0-3-2-3-6-4-8-3m264 12c0 1-4 2-9 2-11 0-14 1-18 7-2 2-3 5-3 7l-1 6c-2 7 0 8 14 7l13-1h8c4 4 7-8 5-16v-6l3-6h-4l-2 1-2-1h-4m-568 7c-2 3-1 6 1 8l2 2 1-2c2-6 2-10 0-10l-4 2m508 7l-1 2-1 2c2 3-3 7-6 6-2-1-3-1-5 1-3 3-5 3-6 1l-1-3-1-2-2-2c-1 0-2 5 0 7 2 4 0 6-7 6h-8c-1 1-3 0-4-1-2-2-3-2-4-1-1 2-2 5-1 6l1 2c-1 2 3 3 5 1h3l6 1a66 66 0 0123-3c3-1 8-1 8 1-1 2 0 2 2 2s2 0 1-5a3951 3951 0 01-2-21m-127 1v16l-1 4-2 3c-2 2-2 2 5 2s9-1 6-3c-2 0-3-3-1-3 3 0 5-9 2-10-2 0-2 0-1-1v-3l1-1v-3c-1-2-9-3-9-1M82 497l-1 6v6l-6 1-5 2h6c8 0 9-1 8-6v-7c0-2 0-3-2-3v1" itemprop="regular" tabindex="-1" style="fill-opacity: 0.813; fill-rule: evenodd;"></path></symbol><symbol id="-posters-1650742391604-bold"><path d="M0 2l69 1c63 0 69 0 68 2l-2 5v4l5-5 5-4h6c3-2 104-3 104-1l-1 3c-2 2-2 3 0 2 4-1 6-2 6-4l3-1h90c2 0-1 3-3 3s-2 1-2 3c0 4 1 4 4 1 7-6 16-8 35-8 15 0 16 0 15 2l-5 1c-5 0-6 1-6 4 0 4 0 4 5 1l11-5 7-3h46l-5 3-8 5c-5 1-6 4-2 5 3 0 3 5-1 9-2 3-3 3-4 2s-10 0-12 1l-6 1-5-1 1 5c0 5 0 6-8 9l-18 5c-1-1-1 0-2 2-1 3-1 4 2 1l4-1 4-1 9-1c6 0 6 0 7-2l4-4 4-1c3-3 15-6 18-6 3 1 3 1 2 3v3c2 1 3 0 4-11 0-10 3-15 8-17 4-2 8-2 10 0 2 1 2 1 3-2 4-7 6-7 33-7h24l-1 3c0 5 2 6 5 4 2-2 4-2 7-2 3 1 4 0 6-2l2-3h12c9 0 12 1 12 2l2 1c1 0 2 0 1-1 0-2 4-2 33-2s33 0 33 2l1 1 1-1c0-1 2-2 10-2 7 0 10-1 11-2L331 0C37 0 0 0 0 2m21 7l-5 2c-1-1-1-1 0 0l5 1 3 1 3 1 3 1a2 2 0 003 1l2-1 3-2 2-2 3-2 3-2h-3l-9 3c-6 2-8 2-10-1-1-2-1-2-3 0m283 1c0 5-1 5-11 9l-9 3v8l6-1c6 0 7 0 5 3-1 1 0 11 1 11l1-5c0-6 1-9 6-12 3-2 4-3 3-4-2-1 0-4 4-4a2 2 0 003-3l1-1c0-2-3-1-5 1-1 2-3 0-5-5l-1-3 1 3m14 2c-2 2-2 2-1 4h3l2-2c2 0 5-3 5-4 0-2-7 0-9 2m-87 0l-5 2-8 2h-3l-3 1c-3 0-2 2 0 3s2 1 3-1h1c0 1 2 1 5-1l3-2h2c2 0 8-2 8-4h-3M62 18v4c0 3-6 5-9 4-3-2-3-2-3 0-1 2-3 0-5-3-1-3-1-3-1 4 1 10 1 10 4 6l5-2a14 14 0 0010-7c2-1 2-9 0-9l-1 3m530-1l-8 3-6 2c-4 5 7 3 16-2 7-4 5-5-2-3m-20 6l-1 4-3 3c-2 1-2 3 0 4 2 0 2 5 0 6v3l1 3 1-3 1-4 1-6c3-7 3-14 0-10m-418 3l-4 1-7 3-6 2c-1 0-2 1-2 4 0 4 1 4 3 2l6-3 7-3 4-1 2-1 1-4c0-2 0-3-4 0m503 7l-4 3-10 4v2c-1 1-1 1 2 1l9-1h6v-6c0-7 0-7-3-3m-282 0l-3 2-5 2-7 2c-2 0-5 3-5 5 1 2 3 2 6 0 1-2 5-4 9-5 7-3 7-3 7-6h-2m128 8l-13 4-8 3-11 3c-4 0-4 1-4 2l1 5c0 2 0 2 3 1a71 71 0 018-1l7-4 9-5c5 0 10-3 10-6s0-3-2-2m-251 9l-5 4a5 5 0 00-4 5l-1 1 4-1 6-1c2 0 2-2 1-7-1-3-1-3-1-1m287 3a25 25 0 01-1 5l-3 2-4 2c0 1 6 3 8 2s3-11 2-12c0-2-2-1-2 1m-336 2l-1 3c-1 2-11 7-14 7s-4 2-4 4c1 2 4 3 4 1l13-6c3 0 4-2 4-7 0-3-1-3-2-2M45 59c0 3 3 5 3 2h1l3-1 2-2 3-1c2-1 1-2-5-2l-8 1 1 3m191 2l-5 2c-3 0-3 0-3 6v6l2-4c1-3 2-4 5-5 2-2 3-3 3-5 0-3 0-3-2 0m102 4c-8 3-12 6-7 6l1 2c0 2 3 1 11-3l6-2 3-1 2-1 2-1c0-2 0-2-3-1l-4-1-11 2m-212 1l-8 4-8 1c-4 1-7 1-8 3h-3c-2-2-3-3-3-1 1 2-2 4-10 6l-5 2c2 0 1 4 0 4l-2 2h2l3-2 3-1 3 1c2 2 2 2 3-1 2-3 7-5 13-5l6-2a21 21 0 0126 1c4 3 6 5 6 9l1 3 1 2-1 2c-2 0-7 6-8 9l-3 6-2 6-2 5v5l1 6c0 3 3 3 3 0l3-2-1-1c-2-1-2-1-1-2l1-5 1-4v-2l1-2c1 0 2-1 1-2 0-2 0-2 2-2h4c1-1 1-1 1 1s-1 3-3 3c-2 1-2 1 0 2l1 1v1c2 1 2 9 1 9h-2l-2-1v1c1 1 1 1-1 2l-1 2a58 58 0 014 1c2 0 0 2-2 2l-3 2-4 1-4 1 4 1c6 0 8 7 3 8-6 1-9 5-4 7 2 1 2 3-1 8-1 3-1 3 1 4 2 2 2 2 1 3v7c0 2 1 3 3 5 4 3 4 4 10 1 3-1 3-1 5 1 4 5 8 14 8 18l3 7c2 1 3 2 2 3l1 2c2 0 2 0 1 2-1 1-2 3-1 6l-1 4-1 4v3c-1 0-4 10-4 14l-2 4v2l1 4v4l1 2c-1 1 2 5 8 10 2 3 11 9 18 13 3 1 3 3 0 3h-2l-2 1c-2 0-3 2-2 4 1 1 9 1 11-1 5-4 7-1 7 8 0 5-5 8-7 5-2-1-4-1-4 2 0 2-2 3-5 2-3 0-3 0-3 2 0 3 6 3 14 1l5-2 2 4c2 4 4 15 4 22 0 4-2 6-4 4l-1 3c0 2 1 2 3 2 4 0 4 0 4 18 1 19 1 19-4 20-8 3-13 8-7 8 2 0 2 0 2 2l1 3 1 2 2 1c2 0 2 0 2-2-1-2 2-6 7-8 8-5 9-7 8-23 0-10 0-14-2-15-1-2-4-45-2-47 2-3 7 3 11 14l5 10c1 2 2 4 1 5-2 3 0 9 3 9 2 0 5 6 6 14 0 5 0 5-3 5-5 0-7 1-6 5 0 2 1 3 3 2 1 0 2 0 2 2h1a5 5 0 019 2l2 4c2 4 4 4 6 2l2-2 4 2c2 1 5 2 6 1l3 1c2 3 1 3-2 2s-4 0-2 2v3l-4-2c-3-4-4-4-3 1v3l-3-1c-4 0-4 0-3 2v5c0 2 3 4 9 3h3l3 1c4 0 4 2 4 10l-1 8c0 1-1 2-4 2s-4 1-4 4 0 3 3 3c7-2 7-2 9 6 3 22 2 25-8 24h-4l1 4c0 2 0 2 3 1 3 0 3 0 3 2-1 4 0 4 2 1s6-2 5 1l1 5 1 2v1l1 6-1 6-1-1-1-1-1 4c0 4 1 5 2 2 2-5 4 1 5 12l1 12h22c23 0 23 0 21-7-3-13-3-18 2-14h1l3-1c1 0 2-1 2-3 1-4 0-5-2-4l-3 1h-5c-1-1-4-12-4-19v-5h11c1 1 2 0 3-5 3-10 6-14 13-14h13l5-2c4-1 4-1 4-4v-3l-3 2c-6 2-17 1-19-1-3-4-3-4-6 1-3 4-3 4-8 3-6 0-11 2-10 4l-1 3c-1 2-1 2 6 1 7 0 8 0 6 3l-2 3-6 1h-6l-2-4-1-6v-3l-2-3-1-8-6-30a55 55 0 00-4-17l-2-6c-3-9-1-19 3-18 1 1 9 0 17-2 2 0 7-4 6-4l-6 1-9 2-7 1c-4 1-4 1-7-1l-2-4-1-3-5-9c-4-11-8-18-12-24s-4-7-1-7c5-2 5-4 0-4-5 1-5 1-8-3-2-2-6-5-8-5a129 129 0 01-29-29c-6-6-12-17-13-22l-1-4h5l5-1 5 1c1 2 7-1 10-4 2-2 8-4 9-3 1 2 2 1 3-2 3-3 2-4-3-1l-6 2-11 3c-5 2-7 2-8 1-1-2-2-2-5 0l-5 2c-2-1-9-14-9-16 0-4-9-15-16-20-3-2-5-5-5-6 0-2 7-6 12-6 5-1 8-3 8-5 0-3 0-3-4-2l-5 1-4 1-4 1c-7 6-15 0-18-12-1-7 0-21 2-23v-16c-1-16 0-19 4-19l1-3c0-2 0-3-2-2l-2 1c0 3-3-1-6-8-2-4-4-9-6-10-2-3-2-7 1-6l2-1 8-4 7-4h-9c-9 3-12 4-13 3l-2 1c-2 2-3 2-10-4-5-3-17-8-20-8s-2-2 2-3c4-2 5-3 3-4 0-1-4 0-7 2m399-1c-5 6-16 8-18 3-1-1-1 0-1 1l-1 3c-2 1 0 5 2 4l24-9-3-4-3 2m-85 0l-6 2-5 1-3 1-9 4c-2 0-3 3-1 4v4c0 4 0 4 8 0l8-3 7-2 6-2v-5c0-5 0-5-5-4m166 1l-7 3-7 2-5 1-4 1c-3 4-8 4-10 1-3-3-3-3-3-1-1 4-1 11 1 11l5-5c0-1 1-1 3 1 3 2 5 1 13-3l12-5c4-2 6-5 4-6h-2m46 2c-8 6-16 8-18 4-1-2-2-2-4-1-8 4-11 10-4 9 10-3 26-5 27-4 1 0 3-5 3-8 0-2-1-3-4 0m-377 0l-1 3-2 1c-2 0-2 0-2 5 0 8 0 8 4-2l3-3 1-2c0-3-1-4-3-2m52 6l-4 3c-3 1-3 2-2 7l1 3 1-3 1-3 3-4 2-4c-1-1-1-1-2 1m323 10c0 8 0 9 2 8s3-7 1-9l-1-1c1-2-1-5-2-5v7M39 81c-3 3-5 6-2 6l1 1a3 3 0 004-1v-2l1-4v-3l-4 3m345-2l-3 2c-2 0-2 1 0 6l1 4 1-4c0-3 2-4 2-1s2 2 4-1c2-6 0-9-5-6m220 0l-1 4-2 2c-4 3 0 4 5 1l6-4-1-3h-7m-353 5l-7 4-6 2-7 4-3 3c-1 4-5 7-13 7h-7l-2-4v-3l-1 2c0 2-1 4-3 5-2 3-2 5-1 9l3-1c4-2 10-5 19-7l8-3c1-5 11-13 16-13 3 0 8-3 8-5h-4m103 11c0 2-4 6-7 6l-7 2c-6 3-15 5-17 4-2-2-3 0-3 5 0 4 0 6 2 4l8-2c11-3 16-5 18-8l4-2 2-2v-9 2m299 1v2l-1 4c-1 1-2 2-1 4 1 8-2 12-10 13-5 1-11 3-13 5l-10 3c-10 3-12 5-10 6h10l7-1c1 1 2 0 4-1l4-1 5-1 10-3c7-1 7-2 8-5l-1-5-1-1 1-10c0-9 0-11-2-9m-117 1l-4 2-8 3-9 2-7 3-3 1-1 1c-1 2-1 3 1 3s4 2 2 3v3l2-3c0-4 1-4 14-6 10-1 18-7 14-12h-1m-406 3c-1 3-5 5-14 7-6 2-9 6-5 6l2-1 8-4c9-1 12-3 12-8 0-4-1-4-3 0m169 2v2l1 1-3 1c-2 0-3 1-3 2-1 2-2 2-3 2l-5 1h-4c-3 0-3 0-2 1 0 2-6 3-8 1l-1 6c1 7 1 7 8 4l12-5c9-3 9-3 10-13 1-5 0-6-2-3m259 6l-5 3c-2 1-12 2-13 1s-2 2-2 5l-2 8-2 7 5-4 8-5 11-3 10-2c3 0 4-1 5-2 0-1-1-3-2-1-2 3-7 0-5-4 1-4-2-6-8-3M39 121c-8 4-10 7-2 4l5-2 6-5-9 3m370 3c-2 2-9 3-10 1-2-2-4-1-4 1 1 3-3 5-7 5l-5 1h-7l-6 3-7 2-4 1c0-1-2 0-2 2-2 2-4 4-6 4l-2-3-2-4 1 8c1 1 1 2-1 5v6c3 3 1 8-4 8l-16 5 1 3 1 2 2-2c5-4 17-8 17-4l4-16c0-6 1-7 3-7 3 0 3-1 3-2 0-2 0-2 8-2 6 0 9-1 10-2 2-1 2-1 4 1 2 3 4 3 7 0l5-3c3 0 9-3 10-5l2-1c6 1 8 0 8-3 1-5 0-6-3-4m-111 4l-1 5-1 3v3c0 3-5 6-11 6-6 1-7 1-6 4 0 2 3 3 7 1l3-1a19 19 0 008 0c-1-1-1-1 1-3s2-3 2-11c0-11 0-11-2-7m-68 6c-1 2-6 4-16 5-9 1-11 2-7 3l2 1 2 1v3l-2 5c-1 2-2 3-5 3-4 1-5 3-1 3l5 1h1v-3l2-5c2-7 3-7 19-8 2 0 2-1 2-5 0-5-1-7-2-4m-31 8l-1 6c1 1 4-1 4-3l1-1h3v-1c-1 0-3-1-3-3-3-5-4-4-4 2m424-3l-1 6c-2 3-1 10 1 9 2-3 4-18 1-18l-1 3m-514 7l-2 3-4 2c-5 1-2 5 4 5h5v-11l-3 1m301 4l-3 1c-1-1-2 0-2 1l-4 2c-3 0-11 3-11 4l6 1c9 0 17-4 17-8 0-3-1-4-3-1m56 1c-1 2-4 3-6 4l-5 2-7 3c-4 1-6 3-4 4 2 2 6 1 9-1l5-2c4 0 13-6 13-9 0-4-2-4-5-1m190 2l-1 6c1 3 1 4-3 7-4 4-4 3-2 19 0 6 1 6 5-3 1-4 3-7 4-7 2 0 2-18 0-18l-2-4-1-2v2m-401 3c-4 2-7 7-4 7l10-5c0-3-1-4-6-2m307 2c-15 4-25 5-28 4v3l-1 5v4l1-1 2-2 1-4c-1-4 0-4 7-1 5 2 5 2 3 4v3c2 1 2 1 3-2l4-5 5-3h3c3 2 10-2 10-5s-1-3-10 0m-243 10l-6 2-5 2c-5 2-7 1-7-4 0-1 0-2-1-1l-1 4c1 3 1 4-2 6-4 3 1 4 7 1 3-2 4-2 5-1l3-1c5-2 11-9 10-10 0-1-2 0-3 2m116 1a2 2 0 01-3 1h-1l-2 2c0 3-2 3-8 2l-5-2-1 4-2 6c0 1-1 2-3 2l-2 1-1 1c-2 0-3 2-1 3l3-1 5-2 4-2 4-2 3-1 10-5c4 1 6 0 4-1v-1c2 0 10-4 10-6l-2 1c-4 4-12 3-11-1v-1l-1 2m184 2c-2 5-16 9-19 5-1-3-3-3-3 0-1 4-4 5-12 6-8 0-9 0-12-5-1-3-1-3-1 3l-1 8c-5 3-2 5 4 2l19-5 2-2c0-2 1-2 8-3 12 0 16-2 17-6 2-6 1-9-2-3m-346 2c-8 2-13 6-6 5 8-2 9-2 9-4v-2l-3 1m74 1l-1 8v5c-2 1-1 2 1 4 2 1 2 1 2-7v-10c2-3-1-2-2 0m-114 2l-4 5c-2 1-2 2-1 4v3l1 4c0 3 0 3 1-2 1-4 1-6 3-7 2-2 3-3 3-6 0-4-2-5-3-1m-122-1v4c2 3-1 9-5 10-8 1-14 5-14 6 1 3 4 3 7 1a11 11 0 019-3c5-1 5 0 5-11 0-7-1-8-2-7m-93 6c-11 3-12 4-7 6 5 1 14-2 14-6 0-2-1-2-7 0m601 15c0 3-4 9-7 11-5 3-16 4-18 3s-2 0-3 2-2 3-10 4c-9 1-10 2-11 8-1 5-1 5 3 1 2-3 9-4 8-1l-1 3c-1 4 1 4 4-1 2-4 12-10 18-11l14-2c4 0 5-3 5-11l-1-7-1 1m-492 1l-8 1c-5-1-6 0-5 1l4 1 4 2c1 1 3 2 6 1 3 0 3 0 2-1-2-1-2-1 0-1l3 1 1 2c1 2 1 2 1-1 0-4 0-4-2-3l-3-1c0-2-1-3-3-2m193 3c-2 2-7 3-9 2-1-1-3 0-6 2l-6 3c-3 0-5 1-5 4-1 2 0 3 4 0h5c1 1 2 1 2-1l3-1 1-1c-1-2 4-3 8-2a6 6 0 009-5c0-2-3-3-6-1m-144 4c-3 6-4 15-1 10h3c2 0 7-6 6-8l-3-1c-2 0-2 0-1-1 2-2 1-4-1-4l-3 4m353 1c-2 2-5 3-15 3-5 0-5 1-5 3l-1 4-25 6-3 1-1 1c-2 0-2 2 0 3l8-1 11-2 3-1c2-2 11-4 17-4 4 0 5-1 7-3l4-2 1-2c1-2 1-2 8-2l7 1v-4c0-3 0-3-3-3l-6 2h-4c-2-2-2-2-3 0m130 2l-4 2c-4 0-5 2-3 5 1 2 3 0 2-2l4 1 2 1v-8l-1 1m-214 3c0 3-3 6-7 6l-4 1c-1 1-14 3-18 2l-3 1-4 1c-2 0-2 0-1 9l3 1 6-1c2 0 5-1 8-4 5-4 16-7 16-3h5c2-2 1-3-1-3-3 1-3-1-1-3 2-1 2-2 2-6-1-4-1-4-1-1m-286 0l-4 2c-3 0-4 1-2 5 1 2 1 2 3 0l4-3c3-2 3-4 1-5l-2 1m221 3l-8 2c-9 0-15 1-16 2l2 6h1l5 1c5 0 5 0 7-3 1-2 2-3 4-3 3 0 9-4 9-6 0-1-1-1-4 1m-227 8l-1 14c-1 5-11 11-14 8-1-3-4-2-4 2-1 5 1 5 9 3l11-3c4-1 5-3 3-5v-1c1-1 0-3-1-6-2-2-2-5-2-8 1-5 1-6-1-4m465 2v4l-1 4v2c2 0 3 6 1 6s-4 3-4 7l-1 5v3l2 3 1 1 1-3c0-4 10-11 19-12l14-3 9-2c2 1 2 0 2-8 0-5-1-7-1-4 0 4-4 6-9 5h-3c-1 2-19 7-21 7-3-1-6-7-6-11 0-5-3-9-3-4m-594-1l-3 2-7 2c-7 3-10 3-11 0-2-2-2-2-2 6s0 8 2 6c0-2 2-3 2-3l3-2c3-3 7-4 10-3l5-1c1-1 1-1 1 1v3l3 1c3-1 4 0 2 1v1l9-3 9-2c2 1 2 0 2-4s0-4-2-3c-1 2-16 7-19 7l-2-3-2-6m277 3c0 3-1 4-4 4l-6 4c-2 3-4 4-6 4l-2 1c-2 2 1 2 4 1h6c4-6 6-9 8-9l1-5-1-3v3m-167 9c-1 2-4 4-12 5l-12 4-1 3 2 1 3 1c0 3 1 4 1 1 0-2 3-5 6-5l6-2 7-3c1 0 2-1 1-4s-1-3-1-1m-51 6l-4 2c-2 0-1 2 2 3s3 1 5-1l3-2c2 0 1-2-1-3s-2-1-5 1m461-1v1l-2 2-5 3c-3 3-7 3-11 0-2-3-4-4-4-2 0 3-11 6-19 4-1 0-2 1-2 5 0 6 0 6 4 4l4-2 2-1 5-1c5 0 10-1 10-3l5-1c5 0 6 0 9-3l4-3 2-4-2 1m-128 13c-2 2-3 2-7 2l-6 1c-3 2-13 3-16 2-3-3-5-2-3 0s2 3 1 3h-7c-2-2-3-1-3 2 1 3 1 3 16 1l7 1h2l9-4c8-1 10-3 10-6 0-4-1-5-3-2m-58 3l-2 3c-1 2-7 3-8 1l-3-1v4c-1-1-4 0-6 1h-7l-4-1v3c0 3-1 4-4 4h-4v8l2-3 4-2 4-3c3-2 3-2 4-1 2 2 3 1 9-2l10-3c6 0 7-1 7-5 0-3-1-4-2-3m115 0h-3l-3 3c-1 3-2 4-5 4l-4 2c-2 3-7 1-9-3l-1-3-1 6-2 6-1 4c0 2 0 2 2 1 3-3 6-4 10-5 11-1 20-6 20-12v-4l-3 1m-174 2l-16 6-11 3c-8 2-9 3-9 0-1-3-3-3-3 0l-3 4c-5 2-8 5-7 6 1 0 10-2 12-4s3-2 3-1c-1 3 1 3 11 0 15-3 19-5 23-9 6-6 5-9 0-5m268 0h-5l-5 1-3 2c-1 0-2 1-2 4s0 3 3 3l11-2c10-2 14-3 14-7 0-2-3-3-4-1s-5 1-6 0c0-2-1-2-3 0m-24 0l1 2c1 1 0 8-1 9-2 0-1 2 1 2s5-5 5-8a7 7 0 00-6-5m-498 2c-2 2-8 4-12 4l-8 2c0 1 6 2 7 1l8-3c5-1 8-2 8-4h-3m59 3l-6 2c-2 0-4 2-2 3l1 2c-1 2 0 1 7-1l9-3c1-1 1-1-1-1l-2-2c-1-2-2-2-6 0m51 8c-2 2-5 3-10 4-8 2-10 2-9 5 0 3 10 3 14 0 3-1 4-2 5-1 3 1 3 1 4-5 0-6 0-6-4-3m-95 1c-4 3-9 3-9 1l-2 1-1 3h7c2 1 6 0 8-2 2-4 0-5-3-3m-59 7a50 50 0 000 16c0-4 1-5 2-6 1 0 3-1 3-3 1-1 1-2 3-1l2-1c1-1 0-1-2-1-4 0-6-1-6-3 0-1-1-2-2-1m396 7c-2 5-3 5-12 5h-9v3c0 3 0 3 4 2l4 1c1 2 6 2 8 0l4-2 6-2c4-2 5-2 8-1 3 2 7 0 8-4 1-5 0-6-4-4-4 3-13 4-14 2-1-3-3-3-3 0m260 4l-6 2a500 500 0 00-19 4c-7 1-7 2-2 4 3 1 3 1 2 4 0 2 1 3 2 1a20 20 0 0119-4l3 1 2 1c2 0 2-1 2-8v-7l-3 2m-544-1l-9 3c-7 1-9 2-9 4l2 1 1-1 5-1c6-1 12-3 12-5l-2-1m502 11l-1 8c3 0 5-3 4-5l1-2c1-2 1-7-1-7-1-1-2 1-3 6m-260-5l-9 1c-8 0-25 4-27 6-1 2 1 4 3 4 3-2 6 0 5 3 0 3-2 4-5 4l-3 1c0 2-6 4-10 4-3 0-3 0-3 2v1l-7 3c-1 2 0 2 3 0 8-3 22-5 24-4s2 1 2-4l1-10c3-2 15-5 17-4 10 2 14 0 14-5-1-3-1-3-5-2m197 6c-5 4-5 5-1 5 2 0 4 2 2 3-2 2 4 4 7 3s4-3 3-4c-2-1 1-3 3-2l5-2 4-2c2 0 1-3-1-3h-15c-1-1-4 1-7 2m-167 8l-3 2c-4 1-3 2 1 4 3 2 4 2 5-3l-1-4-2 1m-16 2l-6 1c-4-1-4-1-5 1l-3 4a3 3 0 00-3 4l1 3 1 3c0 2 0 2 3-1l6-5 5-4 3-2 3-1 3-2 1-1h-9m100 4l-12 2c-8 1-11 3-5 4l4 2c2 2 2 2 3 0 2-1 8-4 11-4l3-1 3-2 2-1h-9m-29 1l-6 1c-3 0-4 0-5 2 0 2-1 2-3 1-2 0-2 0-1 2 3 4 7 4 10 1l6-4c4 0 4-1 2-2-1-1-2-2-3-1m-355 2c-10 2-12 4-4 5 5 0 10-2 10-4s0-2-6-1m29 4l-2 5c-2 2-2 4-2 10 0 9 0 10 2 4s6-10 11-10c8 0 9-1 9-6 0-4 0-4-2-2-3 5-4 5-8 5-5 0-7-2-6-6l-1-1c-1-1-1 0-1 1m67 4c-1 2-8 4-14 5-5 0-5 0-6-2-2-4-3-4-3-1v4c0 1-5 4-8 4l-2 2v2l16-6 9-2a6 6 0 006-3l1 1 2-1c1-2 1-5-1-3m430 4c-2 6-3 7-9 8l-9 2c-2 0-3-1-6-4l-4-4v4a50 50 0 01-1 8l-16 3c-4 0-5 0-6 3-2 4 0 4 4 2 6-4 7-4 10-1 2 2 3 2 4 1l3-1 5-3c3-2 4-2 9-2h7l8-1 8-2c5-4 11 3 10 11l-2 7c-1 7-1 8-3 8l-1 1 4 1h4v-18c0-18 0-20-2-18s-11 1-14-1l-2-4-1-3v3m-570 6l-6 1c-2 0-2 0-1 2a7 7 0 0012-2l1-1c0-2-1-2-6 0m312 14c-2 3-2 13-1 13h1l3-7c2-5 2-9-1-9 0 0-2 1-2 3m163 6l-6 1-8 2-8 2-6 1c-5 2-9 2-10 0-1-3-3-1-3 3v4l4-2h11l10-3c15-2 18-3 17-8h-1m-356 1c0 4-13 7-13 4 0-1-1-1-1 1-1 3-1 3 2 3l3 1-3 1h-4l-6 1-9 2-9 2c-5 0-5 0-4 2 0 2 1 2 3 2h10c3-2 19-5 20-4v3c1 1 3-1 3-4 2-4 4-6 10-7l9-2 7-2 4-2c0-2 0-2-3-2-17 4-16 4-18 2l-1-1m416 7l-1 5v9l1 5 2 10v6l4-1c9-2 17 0 14 4v3l-3 2-4 2c-5 2-9 2-10-1l-2-3a17 17 0 000 12c0 2 2 1 6-1 2-1 5-2 6-1l2-1 3-1c4 0 6-4 6-9v-5l4-1 12-2c9-2 13-4 14-7s-2-5-4-2l-4 2-1 1-3 2h-3l-2 1c-2 1-17 2-18 1l-8-1h-7l-1-14c-1-13-2-17-3-15m-165 5c-1 6-14 12-19 10-2 0-2 1-2 3v4h8c7 0 8 0 8 2s2 2 2-1c0-6 20-8 24-2 1 1 2 1 5-4 2-3 10-5 12-4s6-3 6-7c0-3 0-3-3-3l-6 2-6 1c-15 5-23 5-27-1-1-2-1-2-2 0m142 4c-6 1-9 2-10 5s-4 4-4 1c-1-2-3-2-11 0-5 1-8 1-8-2-1-1-1-1-2 2l-3 3c-2 0-2 1-3 3 0 3 0 3 2 2l30-4 13-1v-3c0-4-2-7-4-6m-482 3l-1 6v10c-1 6 0 8 1 3l1-20-1 1m21 3c0 2 0 3-3 4-6 1-7 5-1 4s7-3 5-7l-1-4v3m89-1c0 2-2 3-3 3-3 1-2 3 1 3 4 1 7-2 7-5-1-4-4-4-5-1m-68 0l-1 3c-1 2-5 3-6 0-1-1-2-1-6 1-6 2-4 4 4 4 6-1 6-1 7 1 0 3 2 3 2 0 2-9 2-11 0-9m114 11l-5 1-7 2h16c1 2 5 1 5-1s-1-3-4-3l-5 1m205 0l-1 8c0 9-1 10-6 12-3 1-14-1-17-4-2-2-3-1-3 1 0 3-2 4-9 4-6 0-6 0-7 8 0 5 0 5 1 4 2-2 8-3 10-2l6-1 9-2 6-1 6 1c2 1 2 1 4-4 0-3 2-6 3-8 3-4 2-18-2-16m-370 7l-4 1-3 2-5 1c-3 0-4 1-4 3s2 4 3 1l6-2c6 0 10-3 10-6 0-2-1-2-3 0m305 3l-8 1-8 1a25 25 0 01-16 2l-4-2c-3-1-3-1-2 1 0 3-3 4-5 2s-4 2-2 5h10l11-1 6-1 12-1h7l1-3c2-5 1-6-2-4m-346 8c-5 1-9 3-4 3l1 2 4-1 5-2c2-1 3-3 1-3l-7 1m128-1l-5 1-7 2-6 1c-2 0-3 1-3 3-1 3-1 4 1 2 2-1 4-1 4 2l1-1c2-2 8-5 11-4a3 3 0 004-6m-41 6l-3 1-17 4 2 2h15c-1 1 0 1 3 1 2 0 3 0 2-1l-1-1 2-2v-1c3-3 0-5-3-3m551 5c0 6-4 10-8 6h-3l-8 1c-6 0-6 0-8-2-2-4-3-3-3 2 0 3 0 6-2 8-2 3-2 4-3 14 0 12 1 13 3 2 2-12 3-13 19-12h14v-23l-1 4m-490 2c-1 3 0 13 1 12l6-1 6-1 5-2c3-1 4-2 4-4 0-3-1-4-3-2s-16 2-17-1l-2-1m311 2c-3 1-3 1-1 5s5 4 6-1c0-3-2-5-5-4m-25 3v4l-2 3-2 4v3c-1 3 0 3 2 0 1-2 11-7 14-7l4-1 1-1 2-1c2-2 2-2 0-3l-6 1c-4 2-7 1-9-2l-3-3-1 3m-409 2l-1 8 1 7 2-1c4 0 5-1 3-2-2 0 6-4 10-4l4 1c2 2 5 1 5-2 0-2-12-2-17-1-3 1-5-2-5-5 1-3 0-4-2-1m509 5l-6 3h-6c-22 3-23 3-26 1s-4-1-2 2l1 4c0 2 2 3 3 1 3-2 10 0 8 3v4c0 2 0 2 2-1 3-5 6-6 17-7 13-2 12-1 12-8v-5l-3 3m-405 8c0 4-2 9-3 10-2 1 0 5 2 4l23-3c6 0 7-1 7-2l-4-2c-5 0-5 0-6-3-1-2-3-2-3 0 0 3-3 5-7 5-6 0-7-1-8-8-1-4-1-4-1-1m236 3l-5 2c-8 0-21 4-21 7 0 2 14 2 17 0 2-2 12-4 18-4h5v-4c0-4-2-5-5-3h-4c-2 0-3 0-5 2m-345 1l-7 1c-2-1-4 0-5 1l-4 1c-3 0-8 3-6 3v1c-1 1 1 1 8 1 9-1 15-2 15-4l2-1 2-3c0-2 0-2-5 0m374 7c0 5 1 11 3 11l3-1 6-2c3-1 4-1 4-4 0-2 0-2-6-2s-7-1-7-4c-2-4-3-4-3 2m-172 3c-2 3-5 4-6 2a107 107 0 00-39 2c-4-1-4-1-3 2l1 4c-1 2 3 2 14 0 8-1 10 0 9 8 0 5 1 10 3 7v-7c-1-6-1-6 6-7 3-1 5-2 5-4l2-2c2 0 2 0 2 2-1 2-1 2 4 1 7 0 6 0 5-6v-5l-3 3m-134 3c0 1-1 3-3 3-3 0-4 4-4 14a56 56 0 010 12c1-2 3-11 2-13 0-2 3-6 7-7 13-3 19-5 19-7s-1-3-7-1c-3 2-6 2-10 1l-1-2c0-3-1-3-3 0m375 1c-1 5-3 5-18 6-13 0-14 0-14 2s0 2 3 2h3l-1 7c0 9 0 9 3 1 3-7 4-8 14-7 4 1 6 0 8-1h5c2 0 3-2 1-8-1-5-3-6-4-2m-407 1c-2 2-2 2-3 1-3-2-7 1-5 4 1 2 2 2 7 1l6-1v-4c-1-4-2-5-5-1m520 6c-1 2-1 2-5 2h-4c0 1 5 3 9 3 3 0 3 0 3-4 0-5-2-6-3-1m-37 1l-3 3c-4 1-4 5-1 8 2 2 7 1 6-1l2-3c2-2 2-2 3 0 0 2 1 2 5 2 5-1 7-3 6-6 0-3-2-4-3-1-2 1-9 0-13-2h-2m-516 2c-1 2-20 4-22 3-3-2-4 0-5 5 0 2 0 3 2 3l2-1 3-2c3-2 4-2 5-1h2c1-2 8-3 9-1h6c2 0 2-1 2-3-1-4-2-5-4-3m331 4c0 2-1 3-2 3h-8l-6 1-1 6c0 6 1 7 3 4 1-2 2-3 4-3 3 0 4 1 3 3v2l1-1c1-2 11-4 13-3 1 1 2 0 2-2s2-3 9-3l6-1v-5c-1 1-4 2-11 2h-9l-2-3-1-3-1 3m133-1l-7 3-5 2-3-3c-2-3-5-2-5 1l-3 3c-3 1-4 5-2 4 6-2 13-3 17-2h7c2-2 5-2 11-2 9 0 12-2 5-4l-7-2c-4-2-5-2-8 0m-350 0l-5 1c-4 0-6 1-6 4l1 1 14-1 15-1c2-1 2-5 0-4h-19m467 13c-1 9-1 9 2 7l4-2c1-2 24-3 24-1s-1 2-4 2v1l1 3v4l4-4 3-4 1 2c1 2 1 2 1-1l-1-7v-4l-4-1-15 1c-8 1-10 1-12-1l-3-1-1 6m-28 0l2 3v12c1 3 1 3-5 5h-11l-15 1h-14l-1 4v4l7-1 14-1 10-1c2 1 4 0 7-1l8-2c4 0 5-3 4-9 0-9-2-13-4-15-2-1-3 0-2 1m-152 3l-4 2-7 1c-4-1-5 0-5 1 0 2-4 3-7 1-3-3-4-2-4 1-2 10-2 11-1 11l1-1 2-4c4-2 8-1 7 1 0 3 2 2 3 0 0-2 1-3 4-4 6-1 18-4 21-3 2 0 3-2 2-4l-2-1-2-1h-8m-431 2c-1 3-2 4-8 3-7-1-6 1 1 3 4 0 5 1 5 2s1 2 2 1l1-1 2-1v2l2-1 2-1c1 1 2 0 2-1 1-1 1-1-2-1-4 1-4 1-5-3s-1-4-2-2m206 7c-1 9-1 9 3 7s7-1 7 1v1c1-3 11-4 12-1v2c0 2 3-2 5-5 1-1 2-2 11-2h10v-3c0-3-1-4-2-1-1 2-5 0-5-3h-1l-23 3c-13 2-15 2-15-2 0-7-2-4-2 3m-78-4c-1 1-8 2-9 1h-3l-21 3c-5 0-6 1-6 5h4l4 1v2l1-1 4-3c5-1 8-1 8 3l1 1 1-1c0-2 8-5 9-3h7l2-2 3-2c2-2-3-7-5-4m382 8l-1 3h-9c-8 0-9 1-11 3-1 2-2 2-6 2h-11l3 3c2 1 4 2 5 1l7-1 9-3c3-2 3-2 5-1 1 2 3 2 7 2 5-1 5-1 4-7l-1-5-1 3m-331-1c-1 2-2 2-8 2-5 0-7 1-9 3l-2 2h4l3 1 8 1 10 1c2 0 2 0 2-2 0-1-1-2-3-2s-3-1-3-4-1-3-2-2m412 10l-1 2-2 2 12 1c11 0 13-1 8-3-2-2-4-2-6-1-4 2-8 1-9-1l-2-2v2" tabindex="-1" itemprop="bold" style="fill-opacity: 0.898; fill-rule: evenodd;"></path></symbol></defs><use class="background" href="#-posters-1650742391604-background" fill="url(#-posters-1650742391604-background-gradient"></use><use class="light" href="#-posters-1650742391604-light" fill="url(#-posters-1650742391604-light-gradient" filter="url(#light-filter)"></use><use class="regular" href="#-posters-1650742391604-regular" fill="url(#-posters-1650742391604-regular-gradient" filter="url(#regular-filter)"></use><use class="bold" href="#-posters-1650742391604-bold" fill="url(#-posters-1650742391604-bold-gradient" filter="url(#bold-filter)"></use><use class="emboss" tabindex="-1" href="#-posters-1650742391604-light" fill="url(#-posters-1650742391604-light-gradient" filter="url(#emboss)"></use><use class="emboss" tabindex="-1" fill="url(#-posters-1650742391604-regular-gradient" href="#-posters-1650742391604-regular" filter="url(#emboss)"></use><use class="emboss" tabindex="-1" fill="url(#-posters-1650742391604-bold-gradient" href="#-posters-1650742391604-bold" filter="url(#emboss)"></use><defs><g class="gradients"><radialGradient gradientUnits="userSpaceOnUse"><stop itemprop="radial" stop-color="hsla(23, 24%, 55%, 1.00)" offset="0%"></stop><stop itemprop="radial" stop-color="hsla(24, 25%, 52%, 1.00)" offset="15%"></stop><stop itemprop="radial" stop-color="hsla(23, 24%, 44%, 1.00)" offset="30%"></stop><stop itemprop="radial" stop-color="hsla(23, 26%, 42%, 1.00)" offset="45%"></stop><stop itemprop="radial" stop-color="hsla(23, 27%, 50%, 1.00)" offset="60%"></stop><stop itemprop="radial" stop-color="hsla(25, 28%, 50%, 1.00)" offset="75%"></stop><stop itemprop="radial" stop-color="hsla(25, 29%, 53%, 1.00)" offset="90%"></stop></radialGradient><linearGradient gradientUnits="userSpaceOnUse" x1="0" x2="0" y1="0" y2="100%"><stop itemprop="vertical" stop-color="hsla(23, 24%, 55%, 0.78)" offset="0%"></stop><stop itemprop="vertical" stop-color="hsla(24, 25%, 52%, 0.78)" offset="15%"></stop><stop itemprop="vertical" stop-color="hsla(23, 24%, 44%, 0.78)" offset="30%"></stop><stop itemprop="vertical" stop-color="hsla(23, 26%, 42%, 0.78)" offset="45%"></stop><stop itemprop="vertical" stop-color="hsla(24, 28%, 50%, 0.78)" offset="60%"></stop><stop itemprop="vertical" stop-color="hsla(25, 28%, 50%, 0.78)" offset="75%"></stop><stop itemprop="vertical" stop-color="hsla(25, 30%, 52%, 0.78)" offset="90%"></stop></linearGradient><linearGradient gradientUnits="userSpaceOnUse" x1="0" x2="100%" y1="0" y2="0"><stop itemprop="horizontal" stop-color="hsla(23, 25%, 55%, 1.00)" offset="0%"></stop><stop itemprop="horizontal" stop-color="hsla(23, 25%, 47%, 1.00)" offset="15%"></stop><stop itemprop="horizontal" stop-color="hsla(23, 25%, 43%, 1.00)" offset="30%"></stop><stop itemprop="horizontal" stop-color="hsla(24, 27%, 49%, 1.00)" offset="45%"></stop><stop itemprop="horizontal" stop-color="hsla(25, 29%, 51%, 1.00)" offset="60%"></stop><stop itemprop="horizontal" stop-color="hsla(24, 28%, 52%, 1.00)" offset="75%"></stop><stop itemprop="horizontal" stop-color="hsla(24, 25%, 53%, 1.00)" offset="90%"></stop></linearGradient></g><g class="generated gradients"><radialGradient id="-posters-1650742391604-background-gradient" gradientUnits="userSpaceOnUse"><stop stop-color="hsla(23, 24%, 80%, 1)" offset="0%"></stop><stop stop-color="hsla(24, 25%, 80%, 1)" offset="15%"></stop><stop stop-color="hsla(23, 24%, 80%, 1)" offset="30%"></stop><stop stop-color="hsla(23, 26%, 80%, 1)" offset="45%"></stop><stop stop-color="hsla(23, 27%, 80%, 1)" offset="60%"></stop><stop stop-color="hsla(25, 28%, 80%, 1)" offset="75%"></stop><stop stop-color="hsla(25, 29%, 80%, 1)" offset="90%"></stop></radialGradient><linearGradient id="-posters-1650742391604-light-gradient" gradientUnits="userSpaceOnUse" x1="0%" x2="0" y1="0" y2="100%"><stop stop-color="hsla(23, 24%, 60%, 0.9)" offset="0%"></stop><stop stop-color="hsla(24, 25%, 60%, 0.9)" offset="15%"></stop><stop stop-color="hsla(23, 24%, 60%, 0.9)" offset="30%"></stop><stop stop-color="hsla(23, 26%, 60%, 0.9)" offset="45%"></stop><stop stop-color="hsla(24, 28%, 60%, 0.9)" offset="60%"></stop><stop stop-color="hsla(25, 28%, 60%, 0.9)" offset="75%"></stop><stop stop-color="hsla(25, 30%, 60%, 0.9)" offset="90%"></stop></linearGradient><linearGradient id="-posters-1650742391604-regular-gradient" gradientUnits="userSpaceOnUse" x1="0" x2="100%" y1="0" y2="0"><stop stop-color="hsla(23, 25%, 50%, 1)" offset="0%"></stop><stop stop-color="hsla(23, 25%, 50%, 1)" offset="15%"></stop><stop stop-color="hsla(23, 25%, 50%, 1)" offset="30%"></stop><stop stop-color="hsla(24, 27%, 50%, 1)" offset="45%"></stop><stop stop-color="hsla(25, 29%, 50%, 1)" offset="60%"></stop><stop stop-color="hsla(24, 28%, 50%, 1)" offset="75%"></stop><stop stop-color="hsla(24, 25%, 50%, 1)" offset="90%"></stop></linearGradient><linearGradient id="-posters-1650742391604-bold-gradient" gradientUnits="userSpaceOnUse" x1="0" x2="100%" y1="0" y2="0"><stop stop-color="hsla(23, 10%, 8%, 1)" offset="0%"></stop><stop stop-color="hsla(24, 10%, 8%, 1)" offset="15%"></stop><stop stop-color="hsla(23, 10%, 8%, 1)" offset="30%"></stop><stop stop-color="hsla(23, 10%, 8%, 1)" offset="45%"></stop><stop stop-color="hsla(24, 10%, 8%, 1)" offset="60%"></stop><stop stop-color="hsla(25, 10%, 8%, 1)" offset="75%"></stop><stop stop-color="hsla(25, 10%, 8%, 1)" offset="90%"></stop></linearGradient></g></defs><defs><filter id="light-filter"><feColorMatrix in="SourceGraphic" type="matrix" values="1.5 0 0 0 0
                0 1.5 0 0 0
                0 0 1.5 0 0
                0 0 0 1.5 0"></feColorMatrix></filter><filter id="regular-filter"><feColorMatrix in="SourceGraphic" type="matrix" values="1.5 0 0 0 0
                0 1.5 0 0 0
                0 0 1.5 0 0
                0 0 0 1 0"></feColorMatrix></filter><filter id="bold-filter"><feColorMatrix in="SourceGraphic" type="matrix" values="1 0 0 0 0
                0 1 0 0 0
                0 0 1 0 0
                0 0 0 1 0"></feColorMatrix></filter><filter id="emboss"><feConvolveMatrix kernelMatrix="3 0 0
                      0 0 0
                      0 0 -3"></feConvolveMatrix></filter></defs></svg>