<svg id="-posters-1650742583641" itemscope="" itemtype="/posters" itemid="/+/posters/1650742583641" viewBox="0 0 649 512" preserveAspectRatio="xMidYMid slice" tabindex="0" xmlns="http://www.w3.org/2000/svg">
  <defs>
    <symbol id="-posters-1650742583641-background">
      <rect itemprop="background" width="100%" height="100%" tabindex="-1" style="fill: rgb(254, 246, 246);"></rect>
    </symbol>
    <symbol id="-posters-1650742583641-light">
      <path d="M0 32l1 32 1-12 1-12 1-12V16h20V7h4c3 0 4 0 4 2s1 2 4 2l4-1c0-2 17-3 50-3h18L91 6c-9 0-11 0-6-1h44l39-1-6-1h20l26 1h2a102 102 0 0137 1l13 1c6 1 8 0 8-2l2-1 2 1 4 1 4-1 4-1c3 0 4 0 4 2h4l7-2 5-1c0-2-18-2-152-2H0v32M328 1c0 2 3 2 20 1l20 1h3a14 14 0 0113 1l4-1 4-1 4-1-32-1-36 1m269 0l3 4c2 1 3 3 2 3-1 3 1 4 3 2 2-4 19-3 23 1 3 2 4 2 7 2l6 1v2l-1 4c0 4 0 4 3 4 2 0 2 0 2 4l1 4 2 2 1-16V0h-26l-26 1M104 3h16c8-1 8-1-8-1s-16 0-8 1m265 45c2 0 2 1 2 4l1 4 1 4 1 4c2 0 10 9 10 10l-3-1-3-1-5-4c-3-3-4-4-5-3h-8l-4-1-4-1h-1c-2 2-3 1-2-1 0-3-2-3-3 0l-5 6-3 4 2 3c3 2 4 2 7 2l5 1c0 1 1 2 3 2s3 1 4 3c0 2 0 3 1 2 0-3 21-3 24-1l4 3 2 2 2 1c3 0 3-1 0-5-2-4-3-16-1-17s1-4-2-7l-3-4-1-1-1-1-2-3-3-3c-1-2-3-2-6-2s-5 0-4 1m-83 11c-9 1-16 5-8 5 2 0 2 0 2 4s0 4-3 4l-4 1-3 1-3 2-2 1c-2 0-1 3 2 4h4l3-1c4 0 4 0 2 1l-6 2-5 2-3 2-5 4c0-2 0-2-1-1l-2 2v2l-1-1v-1l-1 2c0 2-2 3-2 0-1-1-1-1-1 1l-4 4c-3 1-5 3-5 4l-2 1c-4 0-14 14-14 20 0 4 4 6 6 3 0-2 2-1 2 1 0 1 10 1 11-1l3-1 2-1 4-3c3-1 4-2 2-2-3 0-3-3 0-5l3-1v2l1 3v-1c0-3 0-3 1-1l2 4 3 4c2 0 2 1 2 6 0 8 2 12 9 15a86 86 0 0113 8l4 3 4 3-1 8 1 8c1 0 2-2 2-9 0-9 1-19 3-22v3c0 3 0 4 1 3h1v-3l1-5v-1c0-2 0-2 3-2s3 0 1-2c0-2-2-3-2-2l-1-1 2-6 2-6c2-2 5-14 5-18 0-2 0-3 2-3h1l3-1c1 1 3 0 3-1 1-1 1-1 1 1l2-1 6-2 5-1-4 1-5 1c-3-1-1 14 1 17l3 8c1 3 2 7 4 9 2 4 3 11 1 11s-3 4-3 11c1 3 0 5-1 5l-2-6c0-2-1-3-3-3s-3 2 0 4l3 6 2 7 3 13c0 2 0 3 2 3l2 1 3-1c6-4 4-7-3-8l-2-1 3-3a4 4 0 001-6v-9l-2 2h-2c-2-1-2-10-1-12v1l1 2c1-1 1 0 1 1l1 1 1 1c1 2 11 2 14 0a2 2 0 013 0 14 14 0 017-6l-1 2c-1 1-1 1 0 0l3-1v-2c0-3 0-3 4-3 4 1 5 0 3-2l-3 1h-1c0-2 3-3 4-2 2 1 3 0 3-1l-1-1c-1 1-2-1-2-6 0-4 3-10 6-10 2 0 7-6 9-10l2-1c1 2 23-1 29-4 5-2 5-5 2-7-4-3-15-5-20-4h-10l-11-2c-6 0-24-4-25-5v-1c3-2-5-6-13-6-2 0-2 0-1-1l-2-1-5-2c-3-2-3-2-1-3s3-3 1-3l-3 2c-1 1-2 2-3 1l2-2c3-1 2-2-2-2-8-2-16 0-20 3s-5 1-5-6c-1-6-2-9-4-8l-2-1h-12m-182 9v4h8v8c0 5 1 7 1 4 0-4 0-4 3-4s3 0 3 4v4h9v-8h8l-1 8 1 8h1l-2 1h-4c1-2 0-9-1-9l-1 4c0 3 0 4-1 3-1-2-38-3-40-1v3h17l10 2 6 1h-6l-13 2c-10 3-20 3-25 1h-9l11 5 2 13 4 18 2 5 4 6 3 2c0 4 2 4 5 2 4-1 4-1 7 1l2 2-2-3a12 12 0 00-4-5l5 4 10 8 4 3c-2-1-2-1-5 9-2 6-3 13 0 13l1-1 2-1 1 1 1 1-1-5c-3-7 0-18 3-15v1l1 1 1 9c0 7 0 9 2 10l1 3 1 2 1 4 1 4c2 0 3-11 2-13v-3c3-1 1-6-7-19a3 3 0 011-5l1 1 1-3 2-3v1c-1 2-1 2 1 2h2l1 10v21c1 1 1 0 2-6 0-7 2-10 2-3l1 4 1-4-1-4-2-4a7 7 0 00-2-6l2-2c2 0 2 0 1 1-2 1-2 1 0 2h2v-2c3-1 1-2-2-2s-3 0-1-1h7l4-1-2 2c-2 0-3 1-1 1l-1 1-2 1 2 1 3 3 1 3v-3l2-2-2-1-3-1h3c4 0 5-2 2-2v-1c1-1 2 0 3 2l1 3c-1-1-2 0-2 2-1 1 0 2 1 2l1 1c1 2 1 2 2 1l-1-3-1-2c1-1 3 2 3 4l-4 8c0-1 0-2-1-1v-3h1c0 2 0 2 1 1 2-1 0-3-3-3-2 1-3 7-2 11 1 3 0 8-2 7l-3 2h2v3a2 2 0 01-3 3c1 0 0 4-2 7l-3 8a75 75 0 01-13 22c-2 2-1 6 2 9l4 4 3 3h-8l-10-2-2-2 3 1c3 0 3 0 1-1-3-1-5-6-6-15-1-11-3-18-4-17v6l2 9v11l-1 1v1a18 18 0 01-15-4c-1 0-2 0-2 2 1 5 0 6-5 6-4 0-4 1-4 3l-1 3-1-3c0-1 0-2-1-1l-1-1 2-1 2-2c-1 0-7 3-10 6-3 1-1 3 3 2 2 0 2 0 0 1l-5 4-4 3-2 2h1l1-1-1 3v5h1l1-1v4c-1 6 4 5 8-1l2-2-1 3c-2 3-2 5 0 3 1-2 1-2 1 0v4c1 0 2 2 2 7v22l-1-4c0-3 0-4-1-3a95 95 0 002 19c0-4 0-4 3-4s3 0 3 4l-1 4c-2 1-3 24-1 24s2 0 1 2c-1 3 1 7 2 5l2-1-1 2a3 3 0 00-1 3c0-2-5-1-7 1h6l-5 2-4 1-3 2-4 1v19a19 19 0 0018 18c-2 0-2 2 0 24l1 28v13H64v8H32v-8H8v-2c0 6 0 6-2 5l-2-2-1-1c-1 0-2-1-2-4l-1 20v24h649V235l-3 104a620 620 0 01-2 54c0 6 0 7-2 7s-2 1-2 4v4h-8v8h-8v8h-16v8h-43v-4c0-4 0-4-2-4-3 0-3 0-3 4v4h-8v6a9 9 0 01-2 8c-2 3-4 2-4-1l2-12c0-6 1-11 3-16l3-8-2-5c-5-8-4-23 1-25l2-2 1-1 5-4c3-4 3-4 1-4l-2 2h-4l-3 1c-1-2 2-3 9-4a23 23 0 0015-5l2-2h-10c-10 0-11 0-11 2 0 4-1 5-4 2l-2-3-3-1c-3 0-3 0-3 4 0 5-2 7-3 5h-1c2 5 2 7 0 4l-2-8c0-5-1-7-1-2 0 2 0 2-2-1-2-5-2-6 3-7l4-2 1-1 3-4c1-4 1-4-2-4l-2 1-3 2c-2 0-4 2-5 4l-2 2-2 1-4 2c-8 0-12 1-12 3s-2 4-3 4l-1-1c0-2-8-3-8-1h-5l-15-1c-24 1-23 1-26-2a10 10 0 01-5-6c-1-1-3-27-2-34l-1-6-1 4c0 3 0 4-2 4s-2 1-2 4l-1 4-1 4-1 4-1 4-1 5v-5c0-6-3-6-3 0l-1 4-4 10c-2 9-6-1-5-10l2-7c0-3 1-4 2-4l1-2 1-3c1 0 3-10 3-16v-4l-3 2c-2 2-3 4-3 7l-1 7-2 5c0 1 0 2-1 1-2 0-2 1-2 3s0 3 2 3l1 4-1 4c-2 0-2-1-2-4l-1-4c-1 0-2-2-2-7-1-10-2-15-4-14l-1-1h-8c-3 1-1 2 4 2h4v5l-1 10c0 4 0 5-2 5s-2-1-2-4l-1-4-4-4c-4-6-8-6-8 0 0 4 2 6 2 3 0-4 5 8 5 12s0 5 2 5l1 3c0 3-3 3-5-1l-4-2h-2v9l-1 10c-2 1-3-5-4-24 0-20-1-23-4-20-1 1-1 1 1 1 3 0 3 11 1 20-2 4-2 8-1 17l-1 11c-3 0 3 2 7 2s5 0 5 2l-6 1c-7-1-11 0-5 2 2 0 3 1 3 2 0 2-5 3-16 3l-20-1-9-1c0-2 1-2 3-1h6c4-1 4-1 1-1s-4-1-5-2c-1-4-8-8-8-5h-1a83 83 0 012-30l1-5c2-2 3-9 1-31a55 55 0 011-22l2-11 2-9c0-5 1-7 3-3 1 2 3-5 3-10 0-1-3 0-4 2-1 1-1 1-2-1-1-1-1 0-1 3l-1 4c-2 0-2-1-2-4l1-4 1-8 1-8 1-4c0-4 0-5-1-4l-2 4-1 4-1 16c0 11-1 16-2 17l-1 5-2 9-1 5 1-1 1-1v2c0 1-1 2-2 1l-2 3-5 8-6 7-3 1-2 1 1 1-2 4c-2 2-2 2-1 0l-1-2-1-2-1-2-1-4-1-4c-3 0-1 13 2 16l3 12c-1 4 0 4 1 3v-4l1-1c1 0 1 2-1 7l2-1 2-1-1 5-1 3 2 13v47c0 5 0 5-2 5-1 0-2-1-2-6-1-9-1-10 1-10l1-4c0-4 0-4-3-4s-3 0-3 4c0 3 0 4-2 4s-2-1-2-4l-1-4-2-16-2-16c-1-1 0-15 1-16l1-12-1-2c0-2 2-3 4 0h1l-1-2-1-4c-1-5-2-5-3-1l-4 7-2 8-1 3 1 11 1 6c0 5 0 6-1 4s-1-2-1 2l1 4 1 4-1 4-1 9c-2 23-3 31-5 31s-2 1-2 4l-1 4c-2 0-2-1-2-4s0-4 2-4l1-4-1-4c-2 0-2-1-2-4s0-4 2-4l1-4v-4h-13v8l-1 8c-2 0-2 2-2 8v8h-16v-4c0-4 0-4-2-4-3 0-3 0-3-8s0-8 3-8c2 0 2 0 2-4v-4h-12c-3 0-3-1-1-3 2-3 2-3 1 0 0 2 0 2 1 1h2v-7l-2 1v-1c1-2 2-2 2 0a4 4 0 005 0c-2 0-2 0 0-3 0-2 2-3 2-3a1 1 0 100-1h-2l-1 1-1 3c-3 2-2 0 1-5l4-3v-1l1-3c3 0 2-3 0-4l-3-1h1c2 1 2 1 2-1v-2c1 0 3-2 4-5s3-5 4-5l3-5c1-4 3-5 4-5 1 1 1 0 1-1l2-3 1-3c0-3 1-8 5-18l1-8 1-3c2-1 3-54 0-56l-1-12a39 39 0 00-3-16c0-3 0-4-2-4s-1 7 1 8v4c-1 2-1 3 1 6 2 4 3 21 1 22v9c-2 1-2 0-3-4l-3-5-1-2-1-2-3-7c-1-4-2-5-2-3l1 6 10 28a76 76 0 01-2 46l-2 4-3 5c0 3-2 5-3 5l-1 2-3 6-3 4-3 4-1 2-1 2-2 2a3 3 0 01-5 2l1-1 2-3 2-8 2-7v-5c-1 0-2 1-2 3l-3 4c-3 3-6 10-5 10h-1c-2 0-6-2-8-5-5-4-5-4-3 2 0 1 0 2-2 2l-4 5a7 7 0 01-9 4c2 0 1 2 0 2h-2c0 2-3 1-5-1-3-2-5-3-5 0 2 4 2 4-1 0-3-5-4-8-1-4 1 2 2 2 2 1l-3-5-4-3-3-2c-1-2-2-3-1-4l-1-1c-2 1-2 0-2-1 0-3-3-8-4-7l1 3 2 3c-1 1-8-8-7-10 0-2 0-2-1-1-1 2-3 0-3-3l-2-2v-3l-1-2a20 20 0 01-9-9l-3-1-5-5c-1-1-2-2-1-4v-2l-1 1-1 1c-2-2-1-7 2-13l3-8 5-7 5-7c2-3 2-4 3-3h1a43 43 0 019-20c-1-1 5-13 6-12l1-1 1-5c3-6 3-18-1-27-3-5-13-22-15-23l-3-6c-4-7-4-9 3-18 6-7 6-28 0-38a7 7 0 01-2-5l-7-2c-8-5-21-5-31 0-7 3-9 4-7 2v-2l-1-9c0-9 0-10-2-10l-3-2c-4-3-13-6-21-6h-7v4m158 13h-3c-2 0-4 2-2 3v2l-1 2h2c0-3 4-6 6-4v-1h4l-2-2h-4m386 14l-1 17v2l1 29 1 30V89c-1-9-1-9-1 6m-155-8l-5 2 4 1c4 1 5 3 2 5-1 1-1 1 1 1 3 0 11 8 11 10s1 2 2 0c2-1 2-1 2 3 1 2 1 3 2 2 0-1 1-1 4 1 3 1 3 1 1 1-2-1-3 0-2 1h-2l-2-1v3l-3-1-3-1v1c1 1 1 1-1 1l-5-1-3-1-2 1h-4c-1-2-2-2-2-1s-3 1-17-1l-5 1c1 2 0 2-5 3-10 2-15 7-11 9 2 1 2 1 1 2-2 1 2 4 3 3l1 2c-1 5 1 13 4 15 2 1 3 2 3 8l5 20c2 3 7 4 12 4l4-1-3 1-2 2a3 3 0 012 0l1-1c1 0 1 4-1 11 0 2 0 2 1 1v3c-1 6-1 7 1 10 3 3 3 3 9-6a39 39 0 017-10 89 89 0 0122-20c0-3 0-4 2-4l3-1-3-1a4 4 0 01-2-6c0-2 1-3 3-4 4-1 6-4 9-10l5-7c3-4 5-7 3-8-1-1 0-5 2-6 2-2 2-5 0-6-2 0-2 0 0-2 1-2 1-2 2 0 1 1 1 1 2-1 2-6 0-18-4-18l-1-1c0-2-13-6-13-4l-3-1c-2-2-4-2-12-3l-13-1c-1-1-5 0-7 1m-229 51v3l1 1v2c-1-1-1 0-1 1 0 2 2 7 4 7l4 11 1 5 1 3 2 6 2 5 1 2 1-4-1-4-1-3-1-4-1-4-1-2-1-2-1-3-1-4-1-2c-2 0-3-2-3-7-1-4-4-9-4-7m36 17v3l1 2v3c1 2 1 2 2 0 1-3 1-3 1-1l1 4 1 2v1c0-2 2-1 2 1h1v-4l-2-7c-1-5-3-7-4-5v2c2 2 1 3 0 2l-2-3c-1-2-1-2-1 0m-5 24v5c-2 0-2 2 0 4l1 3c0 4 2 1 2-4a9 9 0 00-2-9c-1-1-1-1-1 1m-191 17a46 46 0 003 16c0 3 1 4 2 4s1-7-1-8l-2-8-1-8-1-4v8m383 68v27l-1 27c0 3-3 3-3 0h-1c-1 1-1 1 4 7l3 3-1-29 1-33c1-3 0-5-2-2m-300 6l-7 4-4 3-2 2c-4 2 9 5 18 3 7-2 8-2 9-5v-2c-2 2-6 2-15 2h-4l3-2 5-3 3-2c3-3-1-3-6 0m-79 3c-1 2-4 4-7 5-4 2-5 3-5 5s-2 4-3 2h-2c-1 1-1 1-3-1l-4-2 1 2 1 2-2-1h-1v2c-2 0-2 1-2 5 0 3 0 4 2 4l1 4 1 4 1 4 1 4 1 8c2 22 6 27 6 8l1-8c2 0 1 21 0 23-2 1-2 8-1 10h2c1-1 1 2 1 8l1 10c0 4 6 12 6 10 0-1 1-1 3 1s10 3 16 2c2 0 3-1 4-4v-52a49 49 0 010-16l-1-8-1-8-1-5c1-6-2-11-8-15l-4-4c0-2-1-1-4 1m94 4c-3 5-3 5 1 7 3 1 4 1 3-5 0-6-1-6-4-2m-78 1h4v9l1 17 2 2c1 2 2 2 4 1 1-1 2-16 0-22-1-5-7-9-11-7m95 22c-1 5 0 8 3 11 2 2 2 2 2 0l-1-2-1-5c0-6-2-8-3-4m255 5v13c1 15 0 18-4 17-3 0-3 0-3 3l-2 4c-2 1-1 2 2 2l2-2c0-1 1-2 3-1 6 0 6-1 6-15-1-12-3-23-4-21m141 9c0 1-1 2-3 0a58 58 0 00-24 4c-3 0-5 2-2 2 6 0 14-1 14-3s8-1 10 0l3 2c2 1-1 1-6 1-11 0-18 3-12 6 4 2 13 10 11 10l-4-2-6-4-4-3c0-2-2-1-2 1-1 2-1 2 5 5 3 1 5 3 5 4l4 1c3 0 4 0 4-2l2-1 4 1 2 2c0 3 0 3 5 2 8-1 10-3 8-12-3-10-5-13-10-13l-3-1-1-2v2m-69 17l-2 2c0-1-2 0-3 2l-4 3-1 2c0 2-1 2-4 2l-4 1 3 1c4 0 9-2 9-3l5-3a5 5 0 003-8c0-3-2-3-2 1m-167 17c0 3 3 9 5 8 1-2-1-12-3-12s-2 1-2 4m-153 11c-2 2-3 2-3 0h-1c0 2-2 1-4-1h-1c0 2 6 5 12 6l4 1h-4l-6-1c-3-2-7-3-7-2l3 2c4 0 4 0 0 9l-2 8 3 11 6 36c0 4 4 5 4 1l1-2c1 1-1 8-2 8l-1-2-1-1 1 9 2 8c1-1 1-1 1 1a16 16 0 001 8c0-1 1-2 3-2s2 0 2-4l1-4c2 0 0-15-1-16a153 153 0 01-1-48l-1-5-2-8c-1-4-1-4 1-6v-3l-1-4-1-1h-1c-1-2-2-1-5 2m226 7l-2 10-1 8-1 8v8h8v4l1 4c1 0 1-2-1-23v-8l3 2c2 0 3 2 4 3 1 4 4 2 4-2s0-4 3-4c2 0 2 0 2 7 0 15 1 19 2 20s3 0 3-2l1-1 2-8v-8h4c4 0 4 0 4-4 0-3 0-4 2-4l1 8-1 8c-2 0-2 1-2 4v4h8v8h4l4 1h1l4-1h3v-8c0-6 0-8 2-8 1 0 2-5 0-10l-1-5c1-1 1 0 2 3l1 4v-12c0-4 0-4-1-1-1 4-3 4-2 0 0-3 0-3-4-3l-5-1h-8l-12-1a43 43 0 01-19-1l-10-2c-2 0-3 0-3 3m-15 0c-3 3-4 5-2 7 0 1 1 1 3-1 4-5 4-10-1-6m-103 16c-2 3-2 34 0 34l1-12c0-10 0-11 1-4v8h8v-6c1-7 0-18-1-18l-3-2c-3-3-5-3-6 0m37 7v3l-2-2-1-2v2c0 2 0 2-2 1-3-2-3-1-2 5l1 11c0 2 0 4 1 3 1-4 3-2 3 2s0 4 3 4h3v-13c-1-14-2-20-4-14m16 8l-2 3-1 4v4h11v-4l-1-4-3-3-2-3c-1 0-2 1-2 3m42 24a7 7 0 00-2 5l-3 2-4 3c-2 0-2 1-2 9l-1 11h1a9 9 0 002-4l-1 8 1 6v3c-1 0-1 3 1 6 1 3 2 2 0-1v-3c1-1 1-1 1 1l1 2-1-6c-2-5-2-6 0-12l1-9c0-2 0-2 1-1s4-10 6-17a19 19 0 011-5l-2 2M0 488c0 13 1 19 1 12a578 578 0 00-1-12"
      tabindex="-1" itemprop="light" style="fill-opacity: 0.594; fill-rule: evenodd;"></path>
    </symbol>
    <symbol id="-posters-1650742583641-regular">
      <path d="M279 81c-6 1-18 8-21 11-3 2-3 3-3 8 1 6 8 24 10 24 2 1 2 2 2 7 0 9 1 10 12 16l13 9c5 4 4 4 7-8l4-12 3-7 3-7c4-6 6-34 3-38-2-3-25-5-33-3m-125 7c-9 2-19 9-19 15 0 2 0 2-8 0-7-2-15-3-24 0l-14 2c-8 0-8 1-8 3 1 18 3 27 5 32l2 4c0 4 2 5 9 5s7 0 12 4c13 11 14 11 21 1 4-6 6-5 6 1 0 4 3 6 11 6h5l4 5c4 7 4 7-2 20l-10 21c-7 17-8 19-12 25l-5 7-2 2 3 5 7 7 4 2h-9c-8-1-16-3-24-7-5-2-12-2-12 0s-2 3-7 3c-3 0-3 0-3 2 1 2 1 3-2 3-4 1-9 5-12 9-4 5-4 6-1 6h2l-1 4c-1 5 1 5 5 0l4-4v3l1 6 2 2 1-1c0-2 3-1 5 2 1 2 1 2 3 0h2c1 3 2 2 3-1l1-3 8-5c8-5 8-5 25 3 12 7 12 6 10 20-2 13-2 20 0 28 2 6 2 9 0 29-4 37 0 99 7 128 2 6 2 12 2 19v11h42v-2c-4-18-4-18-4-33l1-15 2 6 6 13a72 72 0 018 28v3h19c22 0 20 1 16-13-3-6-4-14-5-21l-4-19-6-42-5-24-3-12 3-8c2-7 2-9-2-9l-1-6c0-7-6-18-17-29-6-7-10-12-14-20l-13-14c-10-10-11-12-7-21l4-8 5-9c3-3 9-13 14-23 4-10 10-20 12-23l3-5-1-9c-1-11-3-15-12-29-14-20-14-21-8-28 8-12 9-31 2-42-5-7-19-12-30-10m197 2c-1 2-14 8-19 9l-4 2v6l2 8 3 8 3 10c2 4 3 6 3 10 0 12 10 14 23 4 9-7 11-9 11-15 0-4 3-10 7-11s10-9 10-14l1-5c3-3 2-5-1-5l-14-3c-6 0-14-2-17-3l-8-1m164 27c-2 2-15 4-31 5-21 1-22 1-22 5 0 3 0 3-3 4-5 2-5 10 0 14 3 3 3 4 4 11 2 17 6 23 14 23h6l-1 12 1 14c2 3 3 3 5-2 5-11 17-24 28-33 3-2 3-3 3-7 0-7 1-9 5-11 3-1 5-2 7-7 2-4 4-8 6-9 5-6 4-7-9-14-8-5-12-6-13-5M340 290l-5 6c-4 4-13 15-13 17l3 6c1 0 2-1 2-3 3-4 3 1 1 5-1 1-2 4-1 5l1 11 1 10 2-6 5-11 5-13c2-13 1-35-1-27m-103 53l-7 5 2 2c6 5 8 7 11 14l5 7c3 0 16-19 14-21l-18-12-7 5m289 20l-8 6v5c1 5 3 14 5 16 1 1 2 1 6-4l9-6c5-3 5-4 1-12l-3-8c-1-3-2-3-10 3m-447 5c-8 2-8 3-8 14 0 17 7 24 24 24 8 0 9 0 7-4l-1-8c-1-9-5-20-9-25s-3-5-13-1m342 10l-1 4v14l-1 23-1 11c1 1 6-3 9-8 5-6 5-3 2 9l-6 18-2 9 4 11c5 12 6 13 11 10l5-2c2 0 2-2 3-12 1-19 0-24-2-32-2-7-2-11 0-19v-3h-7l-10 1c-2 1-2 1-1-18 0-15-1-19-2-19l-1 3"
      itemprop="regular" tabindex="-1" style="fill-opacity: 0.757; fill-rule: evenodd;"></path>
    </symbol>
    <symbol id="-posters-1650742583641-bold">
      <path d="M284 81c-10 1-22 7-27 12-2 3-2 3-1 8 1 8 6 16 7 16l2 1v2c1 2 0 2-1 2l1 1c3 2 3 3 3 9 0 8 2 4 2-4 0-3 0-5 1-4l3 4c2 3 3 3 2 1 0-5-2-11-5-13-5-4-6-10-3-21 1-6 11-8 26-6 5 1 6 1 5 3v1c3-1 7 2 6 3l-2 1c-2 0-2 0-1-2 3-2-1-2-6 1-5 2-7 5-5 12v6a3 3 0 003 7c0 2-3 3-5 3-2-1-6 0-6 2l2 1 2-1 4-1c5 0 6 3 1 4l-5 2-2 2 4-1c5 0 7 1 7 5 0 5-8 5-14-1l-4-3h-4c-3-2-3-2-3 0l1 2 2 3 1 2c0 3 0 5 3 6s4 1 2-1c-2-1-2-1 0 0 2 0 2 0 1-1-2-3-1-3 5-1 5 2 6 3 6 6l1 4h-1c-4-2-3-1 0 2l4 3v-2l7-21 3-8 2-5v-3l1-3c2 2 5-18 4-28l-1-5-7-1c-12-2-16-2-21-1m-134 9c-9 4-14 8-14 14a10 10 0 000 7l1 1v2l1 2c3 0 5-3 5-7a2 2 0 113 2c-1 0 2 5 4 5 1 0 3 3 2 4-2 2-8 1-7-2 0-1-2-1-6 2-2 1-2 1-4-1h-2l-1 2 1 1v1l-4 3c-5 6-8 4-6-5 2-8 4-12 4-5l-2 6c-2 2-1 3 1 2l2-5c0-3 3-5 5-4 1 1 2 0 2-2s-1-2-3-2h-2l2-1c4-2 2-4-7-7l-8-2-10 1-13 3-8 1h-5l1 4c0 5 2 8 4 7l-1-2c-2-1-1-2 4-2l5 1c1 3 3 2 3 0s17-4 21-2c2 1 1 5-1 7l-4 7-2 5c-2 3-1 3 3 2 6-3 8-2 6 4l-5 6-4 2-3 2c-3 1-3 1-2 2 2 2 2 2 5 1l4-2 2-2c-1-1 0-1 1-1l2-2 1-2 3-7 4-3 1 2 2 3c1 2 2 3 1 5l1 3v2l2 3 1 4c0 5 4 7 11 7 6-1 8 1 12 10l1 5-8 17a280 280 0 00-15 33l-4 7c0 2-2 4-4 6l-3 3 3 5 6 6c5 3 5 4-1 4-8 0-18-2-25-6l-9-3v1c3 1 2 2-4 2-5 1-10 3-7 3s-4 4-6 4l-2 1-3 2c-2 0-3 1-3 2l2-1 2-1-2 2-2 3-2 5-1 4 1 2 1-1 3-4c0-3 3-1 3 2 0 1 0 2 1 1 1-4 2-2 2 2 0 3 0 4 1 3h1l1 1c1 1 2 0 1-1l2 1c2 1 2 1 6-1 4-1 13-7 15-9h6l20 10c7 4 7 3 5 17-3 13-2 21 0 30 2 7 3 14 1 14l-2 10-1 30c-1 32 3 76 9 99l2 21v11h20l20-1-2-10c-2-7-2-10-1-23 0-19 1-20 3-12l6 14c4 7 5 13 8 26l1 6h18l18-1-4-14-4-14-4-24-5-32-5-31-3-16 2-7c2-7 2-8-1-8-2 0-2 0-1-6l-1-7-4-6-13-17a59 59 0 01-8-10l-6-9-12-14c-8-8-11-12-10-17l13-25 14-24 10-20v-9c0-7 0-9 1-8h1l-1-2v-1c0-3-5-12-12-22l-11-21 5-9c5-7 6-12 6-23 0-20-19-32-38-25m201 1c-1 2-11 7-18 9l-5 1v6l2 7c1 1 3 5 3 8l4 12c3 4 3 6 3 9-1 4 3 9 7 9 2 0 3-2 1-3v-3l2 2 2 2c1-1 1 0 0 0-1 3 1 2 8-3 10-6 12-9 12-15 1-7 5-12 7-12 3 1 10-8 10-12l2-6c2-5 3-4-9-6l-26-5h-5m-74 7l-2 3v3c2 1 2 3 2 4-1 3 2 5 3 3l3-1 2-3 1-5c2-5-6-8-9-4m21 7c1 1 2 3 2 8l1 8 1-1c-1-1 0-3 1-3 4-4 1-13-4-13-2 0-2 0-1 1m211 15c-6 2-11 2-23 3-19 0-22 1-23 4 0 2 0 3 1 2l2 1-1 2-1 4-1 6v2h1v3c-1 2-1 3 1 3l2 2v1l1-1a1 1 0 112 1l3 1 2-1 1-1c1-1 0-1-1-1-2 0-3 0-2-2h-2c-3 1-3 1-5-2v-9l1 1v2l1-1 2-1h2l2 1c1 0 2 0 2 2s2 3 2 0l1 2c1 3 1 3 5 3 3 0 4 0 3-1l-2-2-2-2h3c4 1 4 0 1-5v-4c2-1 1-2-2-2-2-1-3 0-3 2-1 3-3 4-4 1 0-2-1-2-2-1l-2-1 3-1 4-2c3-2 11-2 14 1 3 2 10 3 9 1l3-1c4 1 4 5 0 5h-3l2 1c3 2 4 3 2 3l-2 4-2 4c-2 3-2 5 1 4 3 0 4 6 2 8l-2 3c0 3-3 5-7 7a6 6 0 00-4 3c-3 0-11 5-10 6v7l1 6 1 5 1 4v-10c0-11 2-14 11-13l1-1v-3l4-4c2 0 10-8 10-11 1-3 3-2 2 1v6l-2 4-1 1c0 2 1 2 3 0s3-3 3-6l1-7c0-3 0-3-2-3l-2-1c-1-7 2-15 5-16l4-2c3-3 8-3 8 0l-1 1c-1 0-2 1-2 5a14 14 0 01-2 8l4-7c0-1 2-4 5-6 5-6 5-6-8-13-10-6-10-6-19-3m-357 6l-3 2c-1 0-2 1-1 2 0 2-1 3-3 2-1-1-2-2-3-1v-4c-2 1-2 5 0 8l2 4-2-1h-2l2 3 3 3 3-7 2-2 2-2 3-5c2-3 1-4-3-2m373 11l-2 2-2 1c-1-1-1 0-1 2a5 5 0 01-1 6h1c2-2 3-1 3 1-1 2-1 2 1 2s2 0 2-2v-5a1 1 0 000-3v-1l2-4-3 1m-59 29c0 7 4 12 10 12h5l-4-1c-8-1-10-8-4-11 3-1 2-1-3-1l-4 1m-291 25a24 24 0 003 19v-1l-1-11c-1-9-1-10-2-7m165 100l-3 4-5 6-2 3 2-2c5-5 7-1 7 10-1 9-1 9-2 7-1-1-1-1-1 1s0 2-2 1c-4 0-6 5-6 16v9l3-7 5-11c4-7 7-28 5-35l-1-2m-103 53l-6 4 4 4 9 10c4 9 4 9 9 2 3-3 3-4 2-4-2-1-2 0-2 1 0 2-3 5-3 3h-1c0 2 0 2-1 1v-2c1-1 0-6-1-6l-1-2v-3l-1 1h-1l-3-1c-7 3-3-10 3-12l1-1-8 5m18 5c-2 0-2 1-1 1l1 4 2 5 5-8-5-3-2 1m280 17v5c0 5 0 5-5 5l-4 2c-3 2-3 2-3 0v-2l-1 1-1-3c-2-4-2-4-2-1l5 17 4-4 8-7c6-3 6-3 3-10-2-3-3-4-4-3m-451 1c-10 3-14 7-12 10l1-2 1-2c1 1 3 0 4-1l6-1c3 0 3 2 5 14l2 10c4 6 5 9 4 9l-3-2c0-2-7-10-8-10v2c0 1-2 2-4 0-1-1-1-1-1 1l1 3-2-2c-1-1-2-2-3-1-2 1 5 8 8 8l3 1c2 2 2 0 1-2l-2-4c0-2 5 4 5 6 0 1 11 2 12 1l-1-3c-2-2-2-4-1-7 0-5-4-20-8-25-4-4-4-4-8-3m338 9l-1 5-1 2v8a168 168 0 01-1 38c2 0 6-5 9-9 3-6 3-6 4-4 1 1 1 1 1-1l1-2c2 0 3 10 2 11v4c3 9 3 16 3 34v9c0-3 2-2 3 1 0 2 0 3-2 3-3 0-4-4-4-11v-11c0-5-2-7-4-4-2 1-2 2-1 5v3l-1 3c0 2-3 4-4 2l-1-5v-3l-1 1-1 1c-2-2 0 6 3 12l3 4-1-7 2 5 2 6-1 2h-1c0 2 3 2 8-1l5-2v-11c1-17 0-23-2-31-1-6-2-9-1-14v-7l-13 1c-5 2-5 2-4-10 1-11 0-30-1-27"
      tabindex="-1" itemprop="bold" style="fill-opacity: 0.834; fill-rule: evenodd;"></path>
    </symbol>
  </defs>
  <use class="background" href="#-posters-1650742583641-background" fill="url(#-posters-1650742583641-background-gradient"></use>
  <use class="light" href="#-posters-1650742583641-light" fill="url(#-posters-1650742583641-light-gradient" filter="url(#light-filter)"></use>
  <use class="regular" href="#-posters-1650742583641-regular" fill="url(#-posters-1650742583641-regular-gradient" filter="url(#regular-filter)"></use>
  <use class="bold" href="#-posters-1650742583641-bold" fill="url(#-posters-1650742583641-bold-gradient" filter="url(#bold-filter)"></use>
  <use class="emboss" tabindex="-1" href="#-posters-1650742583641-light" fill="url(#-posters-1650742583641-light-gradient" filter="url(#emboss)"></use>
  <use class="emboss" tabindex="-1" fill="url(#-posters-1650742583641-regular-gradient" href="#-posters-1650742583641-regular" filter="url(#emboss)"></use>
  <use class="emboss" tabindex="-1" fill="url(#-posters-1650742583641-bold-gradient" href="#-posters-1650742583641-bold" filter="url(#emboss)"></use>
  <defs>
    <g class="gradients">
      <radialGradient gradientUnits="userSpaceOnUse">
        <stop itemprop="radial" stop-color="hsla(75, 1%, 92%, 1.00)" offset="0%"></stop>
        <stop itemprop="radial" stop-color="hsla(30, 5%, 69%, 1.00)" offset="15%"></stop>
        <stop itemprop="radial" stop-color="hsla(25, 5%, 51%, 1.00)" offset="30%"></stop>
        <stop itemprop="radial" stop-color="hsla(38, 3%, 82%, 1.00)" offset="45%"></stop>
        <stop itemprop="radial" stop-color="hsla(47, 2%, 81%, 1.00)" offset="60%"></stop>
        <stop itemprop="radial" stop-color="hsla(45, 2%, 86%, 1.00)" offset="75%"></stop>
        <stop itemprop="radial" stop-color="hsla(40, 3%, 81%, 1.00)" offset="90%"></stop>
      </radialGradient>
      <linearGradient gradientUnits="userSpaceOnUse" x1="0" x2="0" y1="0" y2="100%">
        <stop itemprop="vertical" stop-color="hsla(75, 1%, 92%, 0.79)" offset="0%"></stop>
        <stop itemprop="vertical" stop-color="hsla(30, 5%, 69%, 0.79)" offset="15%"></stop>
        <stop itemprop="vertical" stop-color="hsla(28, 5%, 50%, 0.79)" offset="30%"></stop>
        <stop itemprop="vertical" stop-color="hsla(38, 3%, 82%, 0.79)" offset="45%"></stop>
        <stop itemprop="vertical" stop-color="hsla(48, 2%, 81%, 0.79)" offset="60%"></stop>
        <stop itemprop="vertical" stop-color="hsla(45, 2%, 86%, 0.79)" offset="75%"></stop>
        <stop itemprop="vertical" stop-color="hsla(35, 3%, 81%, 0.79)" offset="90%"></stop>
      </linearGradient>
      <linearGradient gradientUnits="userSpaceOnUse" x1="0" x2="100%" y1="0" y2="0">
        <stop itemprop="horizontal" stop-color="hsla(50, 1%, 89%, 1.00)" offset="0%"></stop>
        <stop itemprop="horizontal" stop-color="hsla(26, 6%, 53%, 1.00)" offset="15%"></stop>
        <stop itemprop="horizontal" stop-color="hsla(38, 3%, 77%, 1.00)" offset="30%"></stop>
        <stop itemprop="horizontal" stop-color="hsla(42, 2%, 81%, 1.00)" offset="45%"></stop>
        <stop itemprop="horizontal" stop-color="hsla(42, 2%, 85%, 1.00)" offset="60%"></stop>
        <stop itemprop="horizontal" stop-color="hsla(47, 2%, 85%, 1.00)" offset="75%"></stop>
        <stop itemprop="horizontal" stop-color="hsla(75, 1%, 91%, 1.00)" offset="90%"></stop>
      </linearGradient>
    </g>
    <g class="generated gradients">
      <radialGradient id="-posters-1650742583641-background-gradient" gradientUnits="userSpaceOnUse">
        <stop stop-color="hsla(75, 1%, 92%, 1.00)" offset="0%"></stop>
        <stop stop-color="hsla(30, 5%, 80%, 1)" offset="15%"></stop>
        <stop stop-color="hsla(25, 5%, 80%, 1)" offset="30%"></stop>
        <stop stop-color="hsla(38, 3%, 80%, 1)" offset="45%"></stop>
        <stop stop-color="hsla(47, 2%, 80%, 1)" offset="60%"></stop>
        <stop stop-color="hsla(45, 2%, 86%, 1.00)" offset="75%"></stop>
        <stop stop-color="hsla(40, 3%, 80%, 1)" offset="90%"></stop>
      </radialGradient>
      <linearGradient id="-posters-1650742583641-light-gradient" gradientUnits="userSpaceOnUse" x1="0%" x2="0" y1="0" y2="100%">
        <stop stop-color="hsla(75, 1%, 60%, 0.9)" offset="0%"></stop>
        <stop stop-color="hsla(30, 5%, 60%, 0.9)" offset="15%"></stop>
        <stop stop-color="hsla(28, 5%, 60%, 0.9)" offset="30%"></stop>
        <stop stop-color="hsla(38, 3%, 60%, 0.9)" offset="45%"></stop>
        <stop stop-color="hsla(48, 2%, 60%, 0.9)" offset="60%"></stop>
        <stop stop-color="hsla(45, 2%, 60%, 0.9)" offset="75%"></stop>
        <stop stop-color="hsla(35, 3%, 60%, 0.9)" offset="90%"></stop>
      </linearGradient>
      <linearGradient id="-posters-1650742583641-regular-gradient" gradientUnits="userSpaceOnUse" x1="0" x2="100%" y1="0" y2="0">
        <stop stop-color="hsla(50, 1%, 50%, 1)" offset="0%"></stop>
        <stop stop-color="hsla(26, 6%, 50%, 1)" offset="15%"></stop>
        <stop stop-color="hsla(38, 3%, 50%, 1)" offset="30%"></stop>
        <stop stop-color="hsla(42, 2%, 50%, 1)" offset="45%"></stop>
        <stop stop-color="hsla(42, 2%, 50%, 1)" offset="60%"></stop>
        <stop stop-color="hsla(47, 2%, 50%, 1)" offset="75%"></stop>
        <stop stop-color="hsla(75, 1%, 50%, 1)" offset="90%"></stop>
      </linearGradient>
      <linearGradient id="-posters-1650742583641-bold-gradient" gradientUnits="userSpaceOnUse" x1="0" x2="100%" y1="0" y2="0">
        <stop stop-color="hsla(75, 10%, 8%, 1)" offset="0%"></stop>
        <stop stop-color="hsla(30, 10%, 8%, 1)" offset="15%"></stop>
        <stop stop-color="hsla(28, 10%, 8%, 1)" offset="30%"></stop>
        <stop stop-color="hsla(38, 10%, 8%, 1)" offset="45%"></stop>
        <stop stop-color="hsla(48, 10%, 8%, 1)" offset="60%"></stop>
        <stop stop-color="hsla(45, 10%, 8%, 1)" offset="75%"></stop>
        <stop stop-color="hsla(35, 10%, 8%, 1)" offset="90%"></stop>
      </linearGradient>
    </g>
  </defs>
  <defs>
    <filter id="light-filter">
      <feColorMatrix in="SourceGraphic" type="matrix" values="1.5 0 0 0 0
                0 1.5 0 0 0
                0 0 1.5 0 0
                0 0 0 1.5 0"></feColorMatrix>
    </filter>
    <filter id="regular-filter">
      <feColorMatrix in="SourceGraphic" type="matrix" values="1.5 0 0 0 0
                0 1.5 0 0 0
                0 0 1.5 0 0
                0 0 0 1 0"></feColorMatrix>
    </filter>
    <filter id="bold-filter">
      <feColorMatrix in="SourceGraphic" type="matrix" values="1 0 0 0 0
                0 1 0 0 0
                0 0 1 0 0
                0 0 0 1 0"></feColorMatrix>
    </filter>
    <filter id="emboss">
      <feConvolveMatrix kernelMatrix="1 0 0
                      0 0 0
                      0 0 -1"></feConvolveMatrix>
    </filter>
  </defs>
</svg>
