<svg id="-posters-1650742812460" itemscope="" itemtype="/posters" itemid="/+/posters/1650742812460" viewBox="0 0 654 512" preserveAspectRatio="xMidYMid slice" tabindex="0" xmlns="http://www.w3.org/2000/svg">
  <defs>
    <symbol id="-posters-1650742812460-background">
      <rect itemprop="background" width="100%" height="100%" tabindex="-1"></rect>
    </symbol>
    <symbol id="-posters-1650742812460-light">
      <path d="M451 8l-1 9-2 4-1 3-7-7-5-1h-6v8l-1 8h-12c-11 1-16 2-18 4l-3-1-3-3v1c2 1 0 3-3 3-2-1-4 0-7 1-4 2-5 2-5 1s1-2 3-2l3-1c0-2-9-3-13-1l-6 1h-6l-4 2-17 5c-2 2-3 2-10 2h-12l-6 2-3 2-6 1a22 22 0 00-17 6l-3 3-2 1-1 2c1 1 5-1 10-5 1-2 3-2 7-2l7-1h2l5-2h4l10-1c0-2 1-2 8-2 5 0 9-2 9-3-1-2 0-2 1-1 3 1 10-1 11-2h4l1 2 1 1c2 1 3 3 0 3l-5 2-9 1-4 1c1 3-3 4-8 3-2-1-4-2-5-1-2 0 0 3 2 3h2l-2 1-5 1-3-1c0-1-1-2-2-1l-1-1-2-2c-3 0-3 0-1 1s1 1-7 2l-3 1c0 2-6 2-8 0h-5c-3 0-3 2-1 8l-7 3c-3-1-9 2-9 3l2 1 3-1-3 2c-1 1-3 2-4 1l-4 1-4 3-5 2-3 2c-2 0-5 1-8 4l-5 1h-6l-10 3-5 1-4 1-10 4a104 104 0 00-15 3l-7 2c-6 2-18 3-20 2l-4 1-7 2-13 1c-13 2-17 2-52 3l-14 2c-3 2-15 1-26-3-5-2-9-1-14 1l-4 3h5c4 0 6 0 7-2h4a17 17 0 006 3l-6 1c-11 2-11 2-8 4 2 2 2 2 3 1s2-2 3-1l8-1c6-1 11-1 11 1l-3 1-4 1-2 1a76 76 0 00-21 2c-2 0-2 0-1 1l7 1c4-1 5-1 7 1l5 3 1 2c0 2 0 2-7 2l-4-2c-1-1-3-2-4-1-2 0-2 0-1-1 3-2 2-3 0-3l-3 2c-2 2-6 3-9 1-2-2-3-2-3 1l3 1 2 2-8 1c-6 0-8 1-8 3s2 3 4 1c1-1 1-1 1 1 0 3 0 3-2 3l-3 1h8c0-2 2 0 2 2s-1 2-4 2l-5 1c-3 1-1 2 5 2l5 1-9 1c-5 0-7 1-9 2l-2 2c-2-1-1-25 0-26v-1c-2-1-2-8-2-65L0 257v255h655V1l-82-1c-71 0-82 0-81 1v2c-1 1-3 0-3-2 1-1-2-1-19-1h-19v8M0 257c0 141 1 198 1 128a76620 76620 0 00-1-128M435 28v4h7c6 0 6 0 4-1s-2-2-2-4c0-3 0-3-4-3h-5v4M272 64l-11 5-2 2-3 1-4 3-3 2c-3 0-6 1-8 3l-12 3-12 2-14 3c-4 0-5 0-4 1 2 1 12 0 16-1l12-2c7 0 10-1 12-2l11-5 5-2 5-2 2-2 1-1c0 3 13-5 13-8h-4m-167 39c-1 1 0 2 5 2l7 1h7c7-2 7-3 0-3l-13-1-6 1m-44 21l-6 1-5 2 13-2c6-1 5 2-2 4l-4 2c1 0 2 1 2 3 1 3 1 3 3 2l3-1c1 1 3 0 5-1 3-1 4-2 8-1h5l-5-2c-4 0-6-1-5-2l3-1c2 0 3 0 2-1l1-3c1-1 1-1-2-1-2 0-3 0-3 2 0 1-3 2-5 0-1-1-5-2-8-1m3 16l-1 4c1 1-6 4-10 3l-2 1h-4c-2 0-2 0-1 1h11c10-1 20-4 15-5-1 0-2-1-1-3 0-2 0-2-2-2h-2l-3 1m-14 2c-4 2-5 5-2 3h6l5-2c1-2 1-3-1-2l-3-1c-1 0-3 0-5 2m-40 16c-1 2-2 2-4 2-2-1-4 1-4 6 0 3 0 3 3 3l7-1 5-1 11-1 12-1h9l3-1-4-1-2-1 6-1c5 0 5 0 4-1s-19-3-21-2H17c-3-1-3 0-1 2 1 2 0 4-3 4s-4-2-2-4c2-1 2-2 1-3s-1-1-2 1m29 2h-3l-4 1c0 3 1 3 7 2 6 0 8-2 4-3h-4m-28 11l-3 1c-3 0-7 3-6 3h4c4-1 6-1 6 2l-2 1-4 2c-2 2-2 2 0 2 3 0 2 2-1 3-3 0-3 1-3 4 0 4 5 8 7 5l3-1 2-1 4-2c3 0 3 0 2-2-4-2-2-4 6-4h9c1-2-2-3-5-2h-8l-6 1v-10l1-2h-6m30 4l-6 1h-4c-4-1-5-1-5 1 0 1 2 2 7 2l7-1c0-1 6-3 7-2l3-1h-9m5 15l-4 2-2 1a3 3 0 004 0l6-1c7 0 8-1 5-2-6-2-7-2-9 0m-29 5c-2 0-3 0-3 2 1 1 0 2-1 2H8c0-1-1-2-3-1-2 0-3 1-3 4 0 4 1 5 4 3l1-1h6l-2 1c-2 0-4 2-2 2h1l4-1c3 0 4-1 2-2s0-7 4-8c4-2 3-2-3-1m-3 17l-7 3c-2 0-3 1-3 2 0 2 0 2 1 1 5-2 9 0 7 3s-2 4 2 4c3 0 3 3 0 3l-4 1c-1 1-3 2-4 1-3 0-5 3-2 6 2 2 2 2 5-1l6-3 11-2 5-1 3-1-8-2c-6 1-7-1-1-3l5-2-6 1-6 1h-1c-1 0 0-2 2-3 2-3 1-4-2-2-3 1-3 0 0-3 3-4 3-4 0-4l-3 1m58 5c-1 2-4 3-4 1l-2-1c-3 0-3 2 0 3 3 2 8 0 9-2 0-2 3-3 5-1 1 1 6 0 6-1h-6c-2-2-8-1-8 1m11 4l-5 1-5 2c-4 0-5 1-5 2l-2 3-1 1-1 1c-1-1-5 1-5 2l-8 4c-3 0-5 2-5 3a15 15 0 0013-2l3-3c3-1 3-1 3 1l1 1c1-1 3 0 3 1 2 2 2 2 2 0l2-2v2l1 1 2 1v1l2-1 2-1c0 1 1 1 0 0l1-1 1-1-1-1h-3l-2-1-3-1 3-1c3 1 3 0 3-2s0-2-2-2l-3 1-2 3c-1 2-4 3-4 1l-1-3c0-2 1-2 4-3l3-1c0-2 1-3 7-4l6-2v-1l-4 1m-63 18l-6 1-4 1 1 1h3l-1 1c-1 0-4 6-3 7l-3 3c-3 2-4 4-1 2l6-2c5-1 7-4 2-2l-2-1 3-2c2 0 2-1 2-3s2-4 5-3c3 0 4-1 5-3s1-2-2-2l-5 2m97 1c-1 2 2 5 5 5 2 0 2 0 1 1-2 2-2 2 0 3 2 2 4 2 5 1a14 14 0 00-9-8l1-1 1-1h-4m-27 15v2l-1 2c-2 1-2 1-2-1s0-2-3-1c-2 1-2 1 0 3s2 2 4 1l2-1a5 5 0 005-3l-3-2h-2m4 23l-4 2c-2 0-2 0-2 3 1 3 0 5-4 5l-2 1-3 1-3 2c-2 2-2 2-3 1-2-1-9 2-8 4v2l-4-3c-1-2-2-2-3-1v2c3 2 4 7 1 7-2 0-2 0-2-2 1-1-2-6-4-6 0 0 0 2 2 3l-1 2v1l2 1h-3l-11 3 2 2c4 1 1 7-3 8l-3 3c0 2-1 3-4 2-2-1-3-1-3 1l1 1c1 0 2 2 1 3v2l-1 1-3 2-4 2-1 2-5 1c-6 0-6 0-6-3l2-3 1-2c0-2 5-4 7-3h1l-1-1-1-2 1-2c2 0 1-3-1-4-2 0-3-1-3-3 0-4-1-5-4-3l-1 2 1 1-3-1H7c-3 1-4 1-4 5l1 5c2 0 7-2 7-4 1-2 3-3 5-1l2 1 2 2-2 2-2 1-5 2c-5 1-6 2-6 3l-1 3c-2 0-2 2-1 7 0 8 1 11 3 11h1c1 1 0 2-2 2l-2 1v32c-1 8 0 10 3 8 1-1 1 0 1 4 0 3-1 4-2 4-2 0-2 1-2 4 0 5 1 8 4 7l1 2-2 1c-1-1-1 0-2 1-1 3 0 9 1 7 2-2 5 2 5 6l-1 5c-2 1-1 2 4 3s5 1 4 4c-2 2-2 3 1 4 4 3 6 2 10-1 3-3 5-4 9-4l4-1a26 26 0 00-18 2l-1 1a2 2 0 11-1-1l3-3h-1l-5-2 2-3c1-1 3-3 3-5l2-6c0-2 0-2-2-2l-3-2c0-2-2-3-2-3-3-1-2-4 1-4 2 0 3 0 3-2s0-2 2-1c4 1 12 3 13 2 2-1 12-1 13 1l-5 2c-3 1-4 5-1 5l5 1 2-1c0-3 3-3 6-2h8l12-2 7-2 4-1 5-1c5-3 15 2 13 6v6c0 2-1 3-2 3l-3 1-3 1c-12 0-15 1-8 3s40 2 41 0c1-3 3-5 6-5h4l-4 1c-6 2-5 5 1 5l6 1c1 2 8 2 9 0v-6l-1-1c1-1-2-1-4 1-3 2-4 1-3-1 0-3 2-4 3-3 2 1 7 0 7-1-1-2-9-2-15 0-9 3-24 4-22 1l2-1c2 1 5 0 5-2 0-1 2-3 3-1l3 1 3 1c1 1 2 0 2-1v-2h-2c-1-1 0-6 2-6s3 0 3-3c0-2 0-2-1-1-2 2-3 2-5 2-4-1-4 0-4 3-1 3-1 2-1-2 0-5 0-5 4-6 2-2 3-2 3-4-1-1 0-3 1-5v-5h-1l-1 6c-1 2-2 3-4 3s-2 0-1-3v-12a2 2 0 01-1-3l2-1c1-3 3-2 3 0-1 1-1 1 0 0 3-3 2-5 0-6l-2-1 2-1c3-1 2-2-2-2-5 0-8-2-4-3 2 0 3-2 1-2l-11 5c-2 1-6 0-4-1 3-2-4-6-7-5s-6 1-6-1l2-1 2-2-8 1c-1 1-5-1-4-2l2-1 2-1 1-1h2l-2-1-5 1c-2 0-3 1-3 2h-1c-1-2-7-3-11-3l-4-1-2-3-2-4 2-2-1-1c-3-1-2-3 4-5h5c1 1 1 1 1-1 0-3-1-4-3-2h-1l-1-3v-1a8 8 0 013-12l3-2 5-1 4-2 2-1 5-2 5-3 6-4 4-4c-1-1 0-1 2-2l2-3c0-2-2-3-2 0l-3 1-2 2-4 3c-2 0-3 1-3 2 1 1-5 4-7 3l-1 1-3 1c-3 0-4 0-4 2 1 3-3 2-6-1-2-2-3-3-7-3-5 0-5-2 1-3l4-2h1c2 0 6-3 10-8l4-2 3-3 4-3 3-2c2-3 2-5-1-5l-2-1c-1-3-6-2-7 1m-35 1l-5 2c-4 1-3 1 2 2 2 1 1 3-2 2-3 0-5 2-2 2h5c1-1 4-2 5-1 2 0 2 0 2-3-1-3-1-3 1-3l2-1h-8m59 76c-1 3 0 3 4 2h4l4 2 3 1 1 1h2l-2 1-2 2 4-1c4-3 9-3 9-2l-2 3 3 1c3-1 5 0 6 1l4 2 8 4 6 3 2 1h6l-23-14c-6-3-16-6-17-5l-2 1c-1 0-2 0-1-2l-4-1-8-1-5 1m-35 8l-5 2-3 1-4 2c-6 1-8 4-6 6l1 1-2 1 1 1c2 0 3 4 1 5-4 1-2 4 2 3 4 0 5-1 3-2-2-3 0-6 2-5 1 1 3 1 5-1 5-2 5-3 2-3-5 0-5-2 0-5l5-4c-1-3 6-2 8 0s3 2 4 0-1-3-3-2l-2-1c-2-2-8-1-9 1m-32 0l-7 2c-6 0-8 1-5 3h9c7-1 9-2 8-4s-3-2-5-1m-29 8c-6 3-6 4-6 6l1 3-2-2-2-2-2 2-3 3 3 2c2 3 3 5 1 6v1c1 2 7 1 10-2 3-2 4-1 4 2l1 3 1 1c0 3 3 4 6 1 4-3 3-3-1-2-3 2-5 1-4-3 0-3 2-4 3-1l2 1c2 0 3-1 1-3-2-1 0-2 2-1l2-1c1-1 2 0 4 1h13c5 0 7-2 4-4-3-1-2-3 1-2 3 0 4-3 1-4v-1c2-1 0-3-1-3l-1 3c0 2-1 2-2 2l-5-1-12-1 3-1c2 1 8-1 8-2l-7-1-12-1c-5-2-5-2-11 1m15 8c-9 1-15 3-15 4h2a75 75 0 0118-1c3 1 7-1 6-3l-2-1-9 1m146 3v1l1 1c-1 1 6 3 8 3l3 3c2 2 3 2 6 2s9 2 9 4h4l4 1c0 1 5 3 6 2l2 1c0 1 5 3 8 3l5 2c4 2 6 3 4 1l-3-2-3-1-4-2-10-4-7-3-3-1-3-2-11-5c-10-5-15-6-16-4m-108 2c1 1-5 4-7 4v1h3c2 0 3 0 4 2a2 2 0 104-2l-1-1 1-2 1 1 2 1v-4l-4-1-3 1m11 6c-2 1-1 2 2 3l1 2h-9c-5 2-6 3-2 4l2-1h10c9 0 11 1 11 3s-5 1-5 0h-1v1c3 0 0 2-3 2l-4 1c0 2-4 1-5 0-2-2-3-2-3 0h-5c-3 0-3 0-3-4 0-3 0-3-2-2l-1 3c0 3-1 6-3 6v1h10l9-1h5l16-2 6-1-2-1h-4c-1-1-2-2-3-1l-1-1 4-1 3-1-3-1-3-1c-1-1 0-1 1-1 4 0 5-2 5-4l-5-1h-2c1-2 0-3-1-3l-2 3c-2 3-7 4-6 1 0-3-5-5-7-3m165 20l5 2h4c2 0 2 0 0 1-1 1-1 1 2 1 3-1 7 0 8 2l7 1 7 1-3-2-4-2-12-2-14-2M50 427l-3 1-3 2-6 2-6 1-2-1-1-1v2c2 2 16 1 17-1a3 3 0 015 0l3 1 2-1 4-1c5-2 6-2 2-4-5-2-6-1-6 1-1 4-5 4-5 0 0-2-1-2-1-1m-13 55l3 1 4 3 3 2 4 2 4 2 9 5c5 2 5 2 5 0l-1-2c-2 0-4-1-5-3l-5-2-3-1-4-2-2-1-2-1-2-1-4-3c-6-1-5-1-4 1"
      tabindex="-1" itemprop="light" style="fill-opacity: 0.691; fill-rule: evenodd;"></path>
    </symbol>
    <symbol id="-posters-1650742812460-regular">
      <path d="M439 33l-25 1c-8 0-14 1-16 4l-3 1-4 1-7 3c-5 2-14 4-16 3l-4 1-5 2c-4 0-8 2-10 4l-4 2-10 2-11 3-10 4-4 1a104 104 0 00-25 6l-6 3-6 3-5 3-2 2h2l2 1c0 1-2 1-5-1h-4c-1 1-4 3-7 3l-5 3-5 1-11 1-6 3-9 2c-3 2-7 2-17 4h-3c-4 3-30 7-32 6l-4 1-6 1-7 1-8 1-9 2-8 3-4 1-2 1v-4l-4 2c0 2-5 4-6 3-3-2-9-1-10 1l-3 3a2 2 0 102 2h2l4-1c2-1 2-1 1 2-1 2-1 2 1 2l3 1-2 1-4 2-5 4v2l3-1c1-2 9-6 9-4-1 1 0 1 5 1 5-1 5 0 0 1l-2 3-2 4c-4 2-4 3-1 3l2-1 4-1h7c3 2 6 2 9 0l6-2 6-1h8c5 0 3 2-3 2l-6 2-7 1h-5l-2 2c-4 0-8 3-6 4 2 0 13-2 15-4h7l5-1 5-1c7 0 11-2 10-4l-2-1v-1h1l1-1c1-1 4 0 4 1 0 2-5 7-8 7l-11 2-11 3h-2l-1 1-2 1-3 1c-1 1 2 2 3 1l7-1 6-1-5 1-5 3c-1 2 2 4 3 1 0-1 8-2 8 0 0 1-4 3-10 4l-6-1 1-1a1 1 0 10-1-3h-7c-3-2-4-2-4 0l3 2h2l-2 2c-3 3-2 5 1 4l2-2 1-2c2-1 2 0 1 3s2 4 4 2 7-1 7 1c0 1-3 2-6 1l-2 1h-4c-2-2-5-1-5 1 0 3 4 6 6 4 3-1 5-1 5 1l-2 1-4 1h-4c-2-2-3-2-3-1l2 2c3 1 3 6 0 5-1 0-3 0-3 2h-2c-2-2-7-1-7 1l2 1c1-1 1-1 1 1v3c2 2 0 3-6 3l-7-2h-2c0 2-4 3-4 1 0-1 6-4 10-4 3 0 5-1 5-3-1-2-1-2-4 0l-13 3c-10 1-16 4-9 4 3 0 5 2 2 3-2 0-2 0-1 2 2 2 3 1 6-1l2-1 4 1 3 1h1c1-2 10-3 11-1l2-1 4-2c2 0 1-2-1-3s0-3 4-3c3 0 4 0 3 1h-2l-2 1c0 2 3 3 3 1h3l1-3c-2-5 3-8 5-3v3c-2 1-2 2-1 3l2-1c0-2 3-1 3 1 1 2 1 2-1 2-1 1 0 1 1 1 2 0 3 1 5 4l2 4 2 3c0 2 1 3 2 3l1 2 2 4c1 3-3 2-5-1l-6-7c-3-2-3-3-3-6 1-3 1-3-1-3-1 1-2 0-3-1-1-3-5-4-7-2l-4 2-6 2c-7 3-8 3-8 2h-2l-4 1-3 1 3 1c4 0 7 2 6 4l1 1 2 1h-7l2-2H93c-2 0-2 3 0 2l6 3h-3l-5 2-4 2a1 1 0 002 1c1-2 8-3 8-1l-1 1v2c0 2 0 2 1 1 2-3 5-3 5 0-1 2-1 2 1 2l4 1c1 2 2 1 2-3l-3-2c-1 1-1 0-1-2l2-2 1 1 2 1c2-1 3 0 5 3 4 6 4 8 0 8h-3l-2-1c-1 0 2 5 9 12l6 7 3 4c2 1 3 4 1 6-1 2-6-2-13-9l-6-7c-2-2-2-2-1-4v-1c-2 1-4-1-9-7l-5-4c-2 0-1 2 1 2 3 1 5 7 4 9v1h3l6 8 2 2 5 3 7 7c4 4 3 8-1 7-1 0-2 1-2 3 0 4-1 5-3 3-3-3-6-4-3-1 3 4 1 10-2 6-2-2-3-1-2 2l-1 3-1 3c0 2-5 8-8 10-3 1-3 1-1 3s3 1 4-1l2-3v3c2 1 5 0 5-3l1-2 1 2c-1 4 8 3 11-2l3-2 7-5 6-5 3-4 2-2v4l-3 3c-6 9-14 16-15 14l-4-1c-1 1-1 1 1 3 2 1 3 3 1 3l-5 4a15 15 0 01-7 5l-1 1-2 2-3 1-3 2-3 2-1 1-2 2-15 12c-2 2-2 2-1 3s2 2 1 7c0 5 0 7 2 8l1 2c-1 1 1 2 4 3l4 2c0 2 1 2 5 2l6 1-2 1-2 1c0 2 4 1 4-1l7-1h7c8-3 31 3 44 11l11 6c11 6 12 8 4 8-3 0-5 0-6-2l-5-3-3-1c0-2-6-4-9-4h-2c0-2-8-4-10-2l-2-1c-1-3-2-3-6-1-5 1-4 3 1 3 4 0 4 0 0 11-3 7-4 10-2 10l6-14 5-4c2 1 1 6-2 10-2 3-5 13-6 19l4-6 10-19c2 0 0 9-2 11l-2 5-1 9v7l2-6c5-15 7-20 9-20s1 4-1 7c-5 6-4 14 1 10l2-2v27l1-6 2-5 2-6 2-4c1-2 1-2 1 8s0 14 1 7l2-5 2-6 2-6 2-4v2l-1 19c1 2 4 0 4-3 0-2 1-3 2-3l2 8c0 7 0 8 3 6v-4l1-8 2-9c2-3 3-2 2 2-1 3-1 18 1 18 1 1 2-2 1-3l1-2c2-1 5 3 5 6 0 4 0 6 2 9 1 2 1 2 1 0l1-2v-2c-2-2-2-6-1-8 2-2 4 0 4 2 0 3 2 6 2 5l3-4 1-4 1 3-1 5c-1 1-1 2 2 2h2c2-2 4-1 5 2 1 2 2 2 4 2l5 1h1v-2c1-5 4-4 4 0l3 7 1 5c0 2 1 3 2 3l1-2-1-15 1 4c0 5 4 11 4 6 0-2 3-1 5 1 1 2 2 2 4 2 3-1 5 0 5 2l-3 1c-4 0-4 2 0 2 11 1 16 2 16 4s0 2 9 2l7 1 10 2c10 0 10 0 10 2 0 1-8 1-12-1-2 0-2 0-2 2 1 2 1 2-2 2-4-2-6-1-6 0l-2 3h10l8-1c1-1 46 0 47 1l-2 1c-2 0-4 2-2 3h7l7 1 4 1h11a21 21 0 0113 3l3 1 8-1 6-2 5-2c3 0 6-3 5-6 0-1 0-2 2-2l2-1 11-1h11c0 2-1 4-3 4l-2 2c0 1 1 1 3-1l5-1h3c1-1 2-2 4-1 3 0 3 0 2-1-1-2-8-3-10-1h-1l-1-4 3-1c3 1 3 1 4-2s2-3 6-3c6 0 8-1 6-3s-1-2 6-2c10 0 13-1 14-5 1-3 10-7 13-5l2-1c1-1 0-1-1-2-3-1-2-2 3-3l4-1 2-1c3 0 5-2 5-5-1-4 1-6 4-6l3-2c1-3 3-3 9-3 4 0 4 0 1-3l-5-2h-3l5-1c4 0 4 0 3-2v-3c4 0 4-3 1-4s-3-1-2-2l3 1h6l-1-3c-1-1-1-1 1-1l2-2 3-2c2-1 3-3 0-3v-1l7-1c4 1 5 1 6-1s3-3 5-3l3-1-4-2c-4-1-4-1 2-2h5c1-1-1-3-4-3-4 0-2-2 3-2 3 0 5-1 5-2 0-2-1-2-4-2-3 1-5 0-7-1-1-1-1-1 2-1s4 0 4-2c0-3 0-3 2-3s3-1 2-4l-4-1-4-2c-1-2 1-2 4-1 4 3 6 2 6 0-1-3 4-5 7-3 1 2 2 2 4 1v-1l-3-2-3-4c-3-3-3-4 1-3l3 1c0 3 2 4 3 3 3 0 2-2-1-7l-3-4h3c6 0 8 2 5 5-2 2-2 2-1 3 4 1 8-3 5-6l-2-2-2-4a6 6 0 01-3-5c-2-2-1-3 1-3 1 1 4-1 4-2h-5l-3 1c-2 0 1-4 4-5 4-1 6-4 4-5-3-2 1-2 6 0 9 3 13 4 12 2l-2-3c-2 0-2-1-1-3 1-1 1-1-1-2-4-1-5-2-4-4l1-3c1-3 4-3 8-2l6 1 4 1-4-2c-5-2-6-4-3-4l1-1 3-1c3-1 3-3-1-5-2-1-3-2-2-3 0-2 1-2 2-1 4 3 7-2 4-5-2-1 0-3 4-3l2-1 3-1 2-1h-13l-5-2c-3 0-4 0-3-2 1-1 1-1-2-2-2 0-3-1-3-3s-1-2-3-2l-3-1v-1c3 0 2-2 0-4l-1-5c0-3-1-4-3-4-3 0-3-1-2-2 0-2 0-2-3-3-2 0-4-2-6-4a137 137 0 00-11-10l-19-17-6-5-3-2-4-3-10-7c-8-5-10-7-6-7 5 0 5-1 6-2 0-2-6-1-8 1s-4 1-5-1l-2-1-2-1-7-4a5936 5936 0 01-38-20c0-2 2-1 5 0l3 2 2 1 2 1 2 1h3c2 0 2 0-1-2l-4-3-4-2c-2 0-3-1-2-2s9 0 12 1l8 1c2-1 3-1 3 1l2 1 4-2c2 0 2 0 2 2h1c2-2 6-4 6-2l-1 1-1 2h3l4-3c2 0 3-2 3-3-1-2 2-2 2 0 1 3 3 3 4 0v-2c-2 2-3-1-2-3s0-3-4-3l-9-1-8 1c-1 1-1 1-1-1v-3h-1l-3 1a31 31 0 00-10 1 22 22 0 00-11 4v-1l-1-1c-3 0-2-2 1-2l4-2-4-1c-10 2-17 2-17 1v-1c3 0 2-3 0-4l-3-2 3-1 2-1c0-2-1-2-4-2l-2-1h-6c-4 1-7 1-7-1l3-1 4-1a10 10 0 00-7-7l-2-2-3-2c0-2 0-2 1-1 1 2 10 3 10 1 1-3 11-6 15-5 1 1 2 1 2-1 1-2 2-2 6-2 3 1 6 0 7-1h5c2-1 4-1 6 3 1 3 1 3 3 2 1-2 0-6-2-6l-3-1-2-1h-1l-3-1-5-1c-1-2-5-2-9-2-2 0-3 3-1 3l1 1h-11l2-2 2-1h1l1-1h-5l-3 2c1 1 1 1-1 2-4 0-5 0-3-2 1-1 1-2-1-2-1-1-2 0-2 1l-1 2c-1 1-1 1 1 3 3 2 0 4-6 5h-9c-3 1-3 1-3-1l4-2c5 0 5-2 0-2l-4-1c0-2-6-6-7-4l-1 1-1-1c1-1-1-2-5-2l-2-1 4-1 4-1c0-1-4-2-6-1-4 0-8-3-6-5s-1-2-9-2a12 12 0 01-10-1l-4-1-3-2c-2 0-1 3 3 5l3 3 2 1c2 0 8 5 6 5l-5-3c-5-3-10-4-8-2h1l1 1 1 3c0 2-3 1-6-2a2 2 0 10-2 3l2 1c0 2-8 3-9 2s-7-3-7-1 2 3 15 3c4 0 5 1 7 3l5 4 3 2-2 1-13 1c-10 0-13-1-14-5l-1-2-2 2c-1 2-3 3-3 1l-1-2v-4l-2 1h-8c-2-2-8-3-8-2a6 6 0 0010 4l1 1v2l1 4-1 3h4c4-1 7-2 3-2l-2-2c-1-2 4-2 5 0a16 16 0 004 4v-1l3 2 2 2 1 3c-1 4 5 5 7 2 2-2 2-2 4-1 2 2 7 3 9 2 2-2 0-3-3-3-6 0-7-1-1-2 10-2 11-2 10 2l1 5c3 2-2 6-6 6l-9-2-6-2c-2-2-2-2-3-1-1 2-2 2-6 1-7 0-9-2-6-4l1-3c-1-1-4 2-4 4s-2 2-4 1-5-2-9-1l-8-1h-6l-2-2c-2 0-2-1-2-2 1-2 3-2 6-1h2l-1-1-2-1c-1-2 0-2 2-2l2-1c0-2-4-3-5-2 0 1-3 1-6-1-2 0-2 0-2 2v10h-10a206 206 0 01-21 0c-3 0-4-4-2-6v-2c-1-1-1-1-3 1h-3l-2 1c-1 1 0 1 2 1s2 0 2 2l-1 2-3 1-5 1-3 1h-1c-2 2-5 3-5 0-1-1 0-3 3-3l-1-1-2-5-1-3v4c0 5-1 8-4 8-1 0-2 1-1 2 0 2-1 3-4 1v-4c3-4 0-7-3-3-2 2-2 2-4 1h-5c-2 1-3 1-5-1s-4-3-4-1c-1 1 0 1 1 1s2 0 1 2l4 1 1 1c0 2-1 2-3 2h-3l2 3v3c-2 2-3 4-1 4 1 0 0 2-2 3-4 2-4 2-6 0-2-1-2-1-2 2s-4 7-6 5l-1-2-1-2v5l-1 5h-4c0-2-3-6-3-5l1 4c2 5 0 7-3 4-3-1-4 0-2 3 1 1-1 4-3 4-2-1-9-18-8-19l2-1a7 7 0 015 6l1 3a2 2 0 003 1l-1-1-1-2-5-12-1 2h-7l-2-2c-2 0-2 0 0 1 2 2 0 5-4 5l-4 2c-1 1-1 1-1-1l3-4c1-1 1-2-1-2l-4-4 2-1c3 0 7-4 6-5-1 0-3 1-2 2l-3 1-5 2h-4c-2-2-1-3 2-3l8-2 12-3c6-1 7-2 5-5-2-2 4-6 11-8l3-1c0-2-1-2-4 0l-5 1-4 1-4 2-2 1-5 1-4 1a2 2 0 110-3l7-2 8-3 2-1c0-2 4-2 5-1h11l5-2 4-1h-3c-6 1-8-1-5-3l5-1 8-3c4-2 12 2 8 4-2 2 0 4 3 3 2-1 3-5 0-7-1-1-1-1 1-1l2 1 2 1 1-1 1-1 3-2c1-3 7-5 10-5h1c0-1 6-2 8-1v-1c-1-2-1-2 3-3l11-4 5-1c5 0 8-1 7-3-1-1 4-3 8-3l4-2 5-1 2-1 3-2 6-2c2-2 3-2 7-1l4-1c-1-1 0-1 2-2 3-1 5-1 5 1l1 2c2 0 2 0 1-2 0-3 0-3 3-3l3-1h4c6 0 6 0 5 2 0 2 0 2 2 2l3-1h5l3 1c2 1 3 3 1 3l-4-1-3-2c-3 0-2 2 1 3l2 1c0 2 5 3 9 2 5-1 5-1 4 1-1 1-1 2 1 3 2 2 2 2-3 2a8 8 0 01-7-2v1c2 3-2 3-5 1h-5c-3 1-3 1-3-2-1-2-1-2-3-1-1 1-1 1 1 3 1 1 1 2-1 2-4 0-5 2-4 4 2 1 2 1 7-1h8l6 1c0-2 10-1 12 1h6l3-1c3 2 6 2 7 1 1-2 2-2 3-1s1 1 2-1c0-3 2-4 3-1v3l-4 2c-3 2-2 4 4 4h2l-2-1h4l3 1 6-1c6-1 7-2 3-3l-3-1h3l5-1c3-1 3-2 3-5 0-1 9-2 14-1 2 0 2 1 2 5-1 4 0 5 3 3 1-2 6 0 6 3h6c3 0 3-1 4-4 0-4 1-6 3-3 1 2 4 3 4 1s7-2 9 0v2c-1 1-7 2-9 1-2-2-6 1-4 3s-1 3-9 2c-7 0-7 0-6 2 3 4 15 6 13 3 0-2 2-3 7-2h6l3 1c0 2 1 2 7 2 9-1 12 2 6 4-3 1-4 9-2 9l1-1c0-2 0-2 2-1 1 2 3 2 8 1 8-1 13-1 13 1l-3 2a18044 18044 0 01-23 1l1 1c1 1 9 2 10 0h14l2-1c1-2 6-1 9 0l3-1 5-2h8c5 1 10 1 10-1s0-2 2-1c4 2 1 6-5 6-10-2-10-2-9 1l-2 2-1 2-2 1v-1l-2-1-2 1a2 2 0 11-2-3c2-1-2-2-7 0l-5 1-4 2h-8l-7-1h-7c-4 0-4 0-1 3l3 2h-5l2 1c2 0 2 2 0 4-1 1-2 2-4 1-5-2-15 0-15 3 1 2-5 2-6 0 0-1 0-2 2-1 4 1 1-2-3-4-5-1-6-1-6 1l-2 1c-4 0-3 6 2 7l3 1h4c0 3 8 1 9-2s2-4 5-2c1 2 2 2 4 0 3-2 5-3 5-1l3 1h6c1 1 3 2 4 1l1 2c-1 2 0 2 2 2l5 2c4 1 7 1 7-2 0-2 0-2-5-2-7 1-10 0-4-1l6-1 3-2c0-2 0-2-2-1-6 2-15 1-15-2h2l3-1h3c2 1 8 0 10-1 1-1 1-1 1 3 1 2 5 3 5 0l1-1c2 1 15-1 13-2-1-1-11 0-12 1-2 0-4-2-3-3 0-2-2-3-8-2-5 0-3-1 4-3l6-2c1-2 2-1 2 2v3h13a49 49 0 0015-1l9 3c3 0 6 1 6 3l-1 1-2 1h3c1-1 17 1 19 2v2c-2 3-1 4 6 4h7c1 2-2 3-6 2l-3 1 4 3h3c1 1 3 2 4 1l1 1c1 1-1 1-5 1h-9l-2-1c-2 0-3-1-3-2s0-2-1-1l-3 1-3 1-6 1h-19c0-1-4-2-9-2-8 0-9 0-7-2l1-4c-1-2-5 1-5 4 1 3-1 4-7 4l-7 1c-2 1-1 1 11 1h4c17 0 18 0 16 2l-2 1-2 1h2l3 1c2 1 8 1 7-1 0-3 2-3 11-4h11c3-1 4-1 10 2h7l6 1c1 1 6 1 7-1l-2-2-1-1h3c-1 1 11 4 13 3 2 0 1-2-4-3l-5-2c-1-3-1-3 1-3s3 1 3 2l4 1c9 0 11-6 2-6-4 0-5-1-3-4h5c4 1 5 1 2-1-4-2-4-2 0-4l3-1-3-1h-3c-2 1-4-2-3-4l-1-2-1-4c1-1 0-2-1-2l-2 1 1 3c3 1 0 4-4 3-2 0-3-1-3-2 1 0 0-2-2-3-5-4-4-5 3-3l2-2c0-2 1-3 2-3l2-1 3-2h5l3-1h-3l-4-1-2-2-1 1c1 3-1 3-2 1l-5-1-5-2-3-1-2-1-3-1-10-1c0-2 1-2 3-1h3l7-1c5 0 9-2 6-3h-7l-8 1h-3v-1l2-2-4 1a4 4 0 01-6-2v2l-1 1-2-1c1-1 0-2-1-2l1-1c1-1 2-1 1-2v-2l3 2h6c4-1 4-1 3 1 0 2 1 3 3 1l4-1h3l3-1c2 0 3 1 3 2-1 1 3 2 4 0l-2-1 1-1c2-2 6-2 6 0l3 1c2 0 3-2 0-2-1-1-1-1 1-1 4 0 5 2 2 4l-5 1c-3-1-3-1-3 1 0 1 1 2 5 2 3 0 4 0 4-2l5-1c2 0 4 0 3 1l-5 1c-3 0-3 2 1 2 3 1 3 2 0 3-2 0-2 1-2 2l-1 2c-2 2-1 2 2 3 3 0 7 2 6 4l7 1h7v-4c0-5-3-6-5-2l-1 1-2-1c-2 0-3-2 0-2v-5l-1-3c-2-2-2-2 0-4l2-3 2-1c3 0 5-1 4-3l-2-1-3-1-2-2-2-1c-2-2-8-4-9-4h-1c0-3 5-7 6-6l-1-2-7-3-4-1 2-1c2 0 2 0 2-2-1-3 1-3 5 0l5 4 5 3 3 2-3-1c-4 0-2 1 4 4l3 1v-3c0-2-1-3-6-7l-9-7-7-4c-3-1-5-3-5-4l-20-6-6-2h-25l-27 3a40 40 0 01-15-1l-3-2-3-2 1 2c5 3-3 5-18 5l-6-1c6 0 5-2-1-2h-23c-4 1-7 0-9-1l-9-1-7-1-17-1m-28 5c-7 0-10 2-10 4 1 3 4 4 4 1 0-2 0-2 9-3 10 0 15-1 15-2h-18m17 5h-6l-5 1-4 1c-3 0-6 1-9 4-3 2-2 3 1 1 2-1 5 0 5 2l2 2 5 1 3 2c2 0 2 1 2 2-1 2-1 3 1 2l2 1c3 2 12 2 13-1l2-2 1 3c2 2 2 3-1 2-2 0-4 2-4 5-1 2 0 2 2 2l2-1 1-1 4-2 2-2-2-3c-3-3-4-5-2-5v-1l-4 2c-2 1-4 1-4-1l4-3c4-2 4-3 1-5l-2-1h2l2 1c1 2 9 1 11 0 3-3-4-8-7-5-2 1-14 1-14-1 0-1-3-2-4 0m-10 7c-1 1 2 3 3 2l2 2c0 2 1 2 2 2l7-2c7-1 5-3-3-3l-7-1h-4m-34 1l-3 1c-3 0-4 1-3 3 2 2 0 5-2 3l-1 1 4 2 4 1c1 1 5 2 13 2a30 30 0 0115 2h2l-2-3-3-4a40 40 0 00-17-8l-4-1-3 1m12 6l-2 1-3 1 3 1 5 1 5 1c4 1 4-1 0-4-4-2-8-3-8-1m217 5h-4c-2 0-1 2 1 3 3 2 11 1 11-1 0-3-4-4-8-2m-193 4l7 2c1 1 0 4-1 4-5-2-7-2-7-1 0 2 1 2 5 2s5 0 5 2-5 3-7 2a14 14 0 00-7-1v4l-1 2c0 2 4 1 5-1s2-2 8-2h5l1-3c2-1 2-1-1-2-2 0-2 0 0-1s2-3-1-3-2-2 1-2c4-2 2-2-8-3h-9l5 1m-95 9c-1 1 0 1 1 1l2 2 2 2c3 0 2 2-2 4-3 1-3 1-6-1-3-1-3-1-4 1l-2 3c-1-1-3 0-4 1h-11c-5-1-5-1-5 1 0 1 1 2 3 2l5 3c3 3 12 5 11 3-1-1 0-2 1-2l1-1-3-1c-2 0-3 0-2-1l2-1 2-1 7-2a10 10 0 009-3l4-2c4-5 8-7 8-4l2 1 1-2 3-1h3c1-2-2-3-8-3l-5 2c0 2 0 2-2 2h-7c-1 0-2 0-2-2-1-2-3-3-4-1m189 3v1l-1 1v2c1 1 2 2 1 3l1 1 3-1v-1l2-1c6 0 11-3 6-4h-5c0 2-2 1-3 0-1-2-2-2-4-1m-163 3l-1 2 4 2 15 3c1-1-9-6-13-5l-2-2c0-3-1-2-3 0m138 1l-5 3c-2 1-2 1 6 3 9 1 12 1 10-2l-2-1-4-1c2-4-3-5-5-2m-209 7h-3c-3 0-4 1-2 4l2 1 1 1 2 1c2 0 2 1 2 6l3 1c3 0 3-1-1-6l-2-6v-2h-2m59 2l-4 2-9 3c1 2 9 1 11-1l3-2c1 1 4-2 4-3 0-2-3-1-5 1m195 7h-6a105 105 0 00-22 3c-2 0 3 2 7 1l28-2c5-1 5-1 5 2 0 2 0 2 1 1l3-4c1-1 1-1-2-1h-14m-300 2l-4 7c2 1 10 1 10-1s-3-3-5-3h-2l2-2 2-2c0-2-1-1-3 1m164 0l-4 1c-6 0-7 1-1 4l3 2 3 1c2 0 3 0 2-1l-2-1-1-1 1-1c2 0 1-4-1-5v1m3 3l2 3 2 2 1 1 1 2 2 1v-3c2-2 4 0 3 3 0 3 2 6 6 7h4l-3-3c-3-3-3-4-2-4 4-1 0-7-4-7l-7-2c-5-2-5-2-5 0m207-1v2c-1 4-5 6-9 5-2-1-3-1-3 1l6 2 6 1 2 1c1-1 0-5-2-5l1-2v-2c-2 0-1-2 1-2v-1h-2m33 9v3c-2 1 0 3 4 3 3 0 6 1 6 3l2 1 1-3c0-2 0-3-2-3l-2-1h-2l-3-2c-1-4-3-4-4-1m-588 2l4 2c2 1 1 1-3 1l-6 2h22l11-1c11-1 23-3 21-4-1-1-24 0-25 1H61l-6-1h-2m344 1c-1 1 0 5 2 5a1 1 0 11-1 3l-2 1c0 2 8 1 9-1 1-1 1-1-3-3s-5-3-2-4l1-1h-4m-308 5l-10 1-6 1 9 1c10-1 13-2 13-3 0-2-1-2-6 0m105 0l-8 1c-6 0-7 0-10 3-5 4-3 5 4 2l7-2c5 0 9-2 9-4h-2m-32 1l-6 3c0 1-2 2-6 2l-5 1h-1c-1-1 0-2 1-3s1-1-1-1l-3 2-3 1-2-1c-1-2-3-2-3 0 0 1-9 5-10 4-2-1 0-3 2-3s5-3 4-4l-2 1-7 3c-5 1-8 2-8 4 0 1 2 1 7-1 2 0 2 0 1 1 0 2 1 3 7 2l16-2 14-4 7-1c4 0 9-3 8-4h-10m388 3c-2 2-1 3 2 3l7 1c5 1 9 2 10 1s-1-3-3-3l-4-1c-1-1-11-2-12-1m-141 2h-4l-3 1h-3c-3 1-2 5 1 6h4c0-3 7-5 8-3s9-1 8-3c0-2-9-2-11-1m-242 2l-5 1-1 2-11 1-4 1h-6l-7 2c-4 0-5 3-1 2 7 0 12-1 13-2l5-1c7 2 13 0 17-3 4-4 4-5 0-3m45 1l-2 1c-1-1-2 0-2 1l3 1c2 0 2 0 1 1-1 2-1 4 2 4l1 1c0 2 3-2 3-4l-2-2-1-2a2 2 0 00-3-1m211 1c3 1 1 3-3 3a3 3 0 00-4 4l2 1 3 1h6c7 4 15 4 19 1 2-1 2-1-2-2-3 0-5-1-4-2l-4-2-6-1-3-1-2-1a2 2 0 00-2-1m150 1c-2 1-1 4 2 4v1c-4 3-1 4 7 4s10-3 2-3-9-4-1-4l3-1-4-1h-9m-10 3l-2 3c-2 0-3 3-2 4 0 2 2 0 2-2 0-3 2-3 5 0 2 3 3 1 2-3 0-4-4-6-5-2m-531 3l1 2v3l1 2 2-2c1-3 4-4 4-2l1 2 1-1v-3l-3-1-5-1-2 1m413 8c-2 1-1 2 4 2 13 2 14 2 14 1l-4-2-3-1h-11m43 1l-5 2h-4l3 2h3l3-1 4-2c1-1 1-1 1 1 0 1 7 6 7 4l2-2c2-1 2-1 0-1l-3-1-1-1c-1 1-2 0-3-1s-7-2-7 0m159 3c0 1-3 2-7 2-10 0-11 0-11 2h15l10 2v-1l-1-2-3-2c-1-2-2-2-3-1m-457 3c0 2 5 13 7 14 1 1 4 0 4-2 0-3-7-14-9-15-1 0-2 1-2 3m407 0l3 1 3 1h3l2 1c0 1 6 4 7 3 2 0 0-2-2-2l-2-2-1-1c-1 1-2 0-3-1l-3-1h-3l-2-1c-2 0-3 0-2 2m-21 2l-5 1c-1 1 0 1 12 1l6 1c1 2 3 1 3 0 0-2-1-2-4-2l-1-1h-11m-545 1h-4l-3 1c0 2 2 2 11 2l10-1-9-2h-5m196 2l2 6 2 4c0 3 4 6 5 5 3-2 2-5-1-6-1 0-2-1-1-2 0-2-3-8-6-9-2-1-2-1-1 2m293-2l1 1 1 2 6 1c6 0 7 1 6 2v3h4l-1-2v-1l3-2 1-1c0-2-4-3-10-3h-11m-426 2l-6 1c-3 0-3 0-3 3 0 2 0 2-3 2l-4 1-2 1c-1-1-2 0-3 1l-3 1-3 1H44c0 4 30 2 34-2h4c2 1 3 1 6-4l6-4c1 1 10 0 10-1H94m500 1l3 1h3l3 1c1 0 3 0 4 2 2 2 8 4 10 2 2-1 0-3-3-2-2 0-6-2-6-4l-3-1h-7c-3-1-4 0-4 1m-409 1c0 2 2 6 4 7l1 3c0 2 3 4 4 3s-2-10-4-12c-3-2-5-3-5-1m394 1c-1 1 2 3 6 3 3 0 4-1 3-3-1-3-8-3-9 0m-434 2l-1 1-1 3 2 2 1 1s0 2 2 2v3c-3 2 0 3 3 2 4-2 3-9-1-7l-4-3 2-1 1-2c-1-3-3-4-4-1m35 0v3c-2 2 0 5 3 5 3-1 3-1 1-6-1-3-5-5-4-2m59 0c-1 1 0 3 1 5l3 5c1 2 3 3 5 1l-3-4c-3-3-4-4-1-4 1-1 1-1-2-2-2-2-3-2-3-1m285 0l-9 1c-9 1-12 2-8 4h3c1-1 2 0 3 1h2l10-2a2 2 0 10-1-4m19 0c-4 0-4 3-1 3l8 1c4 0 5 0 5-2s-1-3-3-2h-3a6 6 0 00-6 0m94 2l-5 1c-4 0-2 2 2 2h5l-1 1v2c0 1 5 2 5 0l-1-2c-2-1-2-1-1-2s0-3-2-3l-2 1m-482 3c-2 1-1 2 2 2 2 0 3 1 0 2v2h3c4-2 5 0 2 2-4 3-3 6 0 6 2 0 2 0 2 2-1 1 0 2 1 3l1 2 2 4c2 2 2 2 3 1l2-1 1-1-2-1-2-1 1-1v-6l-2-3-2-2c-2-1-3-3-1-3 2-1 0-3-2-3s-3-2-2-4c1-1-6-2-7 0m464 1c-3 1 0 3 5 3 4 0 5 1 5 3l1 1 2-3-2-3c-4-2-8-3-11-1m-533 1l-3 3h2l16-2 1-1H86m84 3l3 3c2 1 2 1 1 3-2 2 1 4 4 3 2-1 3-2 0-5l-2-3c-1-2-6-2-6-1m-88 4l-2 1-2 1-2 1-2 1 2 1c4-1 3 2 0 3s-3 1 1 1 4 0 4-3c0-4 0-4 3-4 2 0 3-2 0-2h-2m22 3c-2 2-7 2-7 0h-2l-4 2-1 1h8c2-1 3-1 3 1l1 1 1-1c-1-1 2-2 4-1h3l6-1c4-1 7-3 4-3-7-1-14-1-16 1m48-1c-3 0-2 3 1 4 3 0 4 2 2 2h-2l5 9c1 0 2 1 2 3 3 5 6 8 8 6 1-2-1-7-5-12l-1-3-2-2-2-4-2-1-1-2v-1l-3 1m-18 6l3 2c2 0 2 1 1 2l2 5 3 4 5 7c4 4 4 4 6 3 1-2 1-3-1-4l-1-2c0-2-4-5-6-6-2 0-2 0-1-1v-3l-2-2h-2v-3c0-2-2-4-5-4l-2 2M0 352v160h56l59-1v-2l-2 1c-1 1-1 1-3-1-1-2-2-2-15-2s-22-1-23-3c-2-3-10-7-12-7l-3-1-5-3-4-2-7-5-8-6-4-3-7-5-5-3c-1 0-12-10-13-13l-2-6V293c0-3 0-3 2-2s6 1 6-1h4c5 0 7-1 5-4-2-2-7-2-8 1-1 2-5 1-5-1l-2-3c-2-1-2-10 0-11v-1c-1 1-2 0-2-1v-41l-2-36v159m151-158l12 13c2 0 1-2-1-4l-2-4-1-1-2-3c-1-2-6-3-6-1m-28 1c-3 0-2 1 1 4 1 1 3 2 4 1v2c-1 3 1 7 5 7 3 1 4-1 2-3l-5-7c-3-5-4-5-7-4m-3 8c-2 1-1 2 1 2s2 0 1 1c-2 3 4 11 8 11 2 0 1-3-1-6l-3-4c0-2-5-6-6-4m-2 9c-2 1-1 4 3 8 3 2 5 5 5 6 1 2 2 2 3 0l-2-4-3-5c0-3-5-7-6-5m-2 16c0 2 15 17 17 17l2-1-8-8c-3 0-3 0-2-1 2-2-3-8-6-8l-3 1m-89 43v4l-1 3c0 2 0 2 2 1l2-2 1-2 2-3-1-2c-2-1-3-1-5 1m171 1c-3 2-4 2-6 1-3-1-4-1-6 2l-3 2c1-2 0-2-1-2-2 0-3 1-3 3l-2 4c-6 6 3 6 13 0l4-2 6-7 2-1 2-1c1-3-1-2-6 1m-22 0c-7 2-13 10-9 10 2 0 2 1 0 4l-2 1-3 3v4c2 0 1 2-1 2-2 1-3 1-2-1 0-2 0-2-2-2l-1 2-4 2c-3 0-4 1-4 3-1 2 4 2 8-1l2-1c1 1 10 0 11-1v-1l-1-1-1-2c-2 0-1-3 1-4 3-2 5-8 4-8-3 0 0-6 4-8l4-2c0-1-1-1-4 1m264 0l2 3 1 3 1 2c1 1 4 0 4-2-1-4-8-10-8-6m-229 7l-1 1-1-1c0-2-5 0-7 2-1 2-2 2-2 1 0-2-4-1-9 3l-8 3-8 4c-4 5-2 5 13 1 17-6 19-6 21-6l-1 2-2 3-1 1v-2c0-1-3-1-7 1l-24 7-3 2c-1 3-1 3 2 2 3 0 3 0 1 1h-5c-1 0-2 0-3 2 0 3-1 3-3 3h-4l-3 2v5l-3-1c-1-2-6-3-6-1s11 6 15 6c3 0 6 2 6 4h-3l-17-5c-1-1-3 0-4 1-2 2-2 3 2 2 3-1 6 0 3 1-2 1-1 2 8 2h20c2 2 15 1 16-1 1-3 3-4 3-2l-1 2-1 2 9 1c8 0 9-1 9-2v-9l-1-7c-1-1-7 1-11 4l-4 2c-2 0 5-6 7-6l1-1h-11c-1 1-2 0-4-1-2-2-1-4 2-2 1 1 2 0 1-2l1-3 1 2c0 3 3 2 7-2l4-4v4a6 6 0 010 5c1 3 5 1 6-5 2-4 5-21 5-23h-3c-2 0-2 0-2 2m249 17l-4 2 2 2c2 2 2 2 4 0l3-2c1 0 3-2 3-4l-8 2m-298 5c-9 3-9 3-7 5s4 1 8-2 3-4-1-3m408 3c2 1-1 4-4 4l-2 2c-1 1-1 1 4 1l5-1 1-1v-1c3 0 2-3-1-4h-3m-459 18l-4 2-1 5v5h6c8 1 11 0 11-2 0-3 4 0 6 4 0 3 0 3 2 2 3-3-5-14-11-15l-5-2-4 1m533 1c-1 1-2 4 0 6s9 1 10-2c0-3-7-6-10-4m-420 2l-4 3-3 4c-2 4-5 4-4 0v-3h-11a55 55 0 00-13 0l-11-1a35 35 0 00-13 1c-2 0-5 1-6 5-1 3-3 2-4-1l-1-3c-9-1-9-1-10 2-1 7 10 20 12 15 1-2 4 2 4 4-1 3 1 4 3 2h1l1 2c1 1 1 0 1-1 0-2-1-3-3-4s-3-2-2-3a5 5 0 00-1-7c0-2 1-2 4 0s4 2 7 1c4-1 6-3 4-3v-1l3 2a6 6 0 009 2c-2 3 0 2 3 0 1-1 2-2 1-3 0-2 0-2 3-1 4 1 5 3 2 4l-3 2c-2 2-3 2-5 2-4-1-4-1-3 2l-1 2c-1-1-7 5-7 7s1 2 2 1l4 1c2 2 4 2 4 1h3l3 2v-4c1 2 2 1 2-1-1-3 1-3 4 1 2 1 4 2 5 1l3 1c1 2 6 2 8 0h2c0 2 1 2 4 2s3 0 2 1v2c1 1 3 1 7-1 3-2 3-1 0 2-3 4-2 5 3 4 5 0 5 1 2 3-2 2-2 2 1 2 3-1 10-5 14-10l3-1 4-6h-1l-3 1c-2 0 5-6 8-7l3-2c1-3-2-6-6-4-2 0-2 0-1-2l3-2c2 0 12-8 12-9l-6 2-6 3 1-1 1-1c0-2-3-1-5 1l-6 4c-2 1-6 3-8 6-5 5-12 9-12 7l5-5a132 132 0 0016-12c5-4 5-4-1-1-7 4-9 5-9 7l-1 1-8 5c-7 6-10 7-7 2 2-3 2-4-1-2h-2v-1l1-1v-1l-3-3c-2-3-2-3 0-2l4-1a15 15 0 012-2h-5l-5 2-3 1-3-1-1-1c0-2 1-2 3-1 1 2 6-1 6-4 0-2 4-6 5-5l4-2c3-4 0-4-4-1m-50 19h-6c-3 0-3 0-2 2 1 4 1 4 10 3 5-1 5-1 4-4-2-3-2-3-6-1m409 5c1 4 3 6 6 4 3-3 3-4 0-4l-3-1c-1-3-3-2-3 1m-321 4c-3 2-4 3-2 5 2 1-2 5-5 6v2c1 1 2 1 4-2l4-3c2 0 1-2-1-3-1 0-1-1 2-4 4-3 2-4-2-1m5 9l-4 2-2 2c-2 2-3 3-6 3l-3 3c-1 4-8 6-8 2 0-2-2-1-5 1-2 2-3 4-1 5l1 1c-2 3 7-1 15-7l4-2 4-3c1-2 3-3 5-3 3 0 3 0 3-3 0-4 0-3-3-1m-86 19c-2 2 1 4 9 8l7 4 1 1c-1 2 4 4 7 4l10 3 10 2 4 1 4 1h3l2 2 2 1 3 1 2 1c0 2 4 3 15 5l5 1 14 3 3 1 5 1 4 1h27l24-2 4 1c3 1 15 0 16-1l5-2 13-1c0-2 0-2 5-1a2 2 0 004-1h2c1 2 2 1 10-1l12-3 3-1 3-1c2 0 3-1 5-3l3-2c2 1 6-1 5-3h2c3 1 3 1 5-1l3-2 7-3a21 21 0 016-4l-6 2-4 2-7 2-6 2-15 4a84 84 0 00-27 9c-1-1-4 0-6 1h-6l-2 1-10 2c-7 0-8 1-9 2 0 2-1 2-2 1h-18c-36 1-90-10-114-23l-12-6-15-7c-7-3-13-4-15-2m124 4v2c0 3-2 3-3 1h-3v2c1 1 1 2-1 3v13c-3 4-2 5 0 4l5 1c1 1 1 1-1 1l-2 1c-2 2 4 1 5-1l4-1h6l2-1-2-1-1-1 1-1c1 1 3-2 2-3l1-3c2-2 0-9-1-9l-2 2c-1 1-1 1-3-1l-3-2h-1l1-1 2-1v-1l-3-2c-1-2-3-3-3-1m258 5l-3 1h-2c-2-1-4-1-4 1l10 1 14-1c4 0 4 0-2-1l-8-1h-5m-242 6l3 9v4c-1 2-1 2 1 2l2-2v-2l1-3c-1-3 0-5 3-5 2-1 2-1-1-1l-6-1c-2-2-2-2-3-1m293 4c-3 2-2 3 0 3 3 0 2 2-1 2-8 0-13 3-13 6h4l2-1-1 2c-2 2-2 4-2 5 1 3 0 4-3 3l-4-1c-1 2 8 9 11 9 4 1 4 3-1 3-3 0-3 1-4 2 0 2-1 3-3 4-3 1-4 2-3 3 0 2-2 3-6 2l-3 1-3 1c-2-2 3-4 7-3l3-1c-1-2 4-8 6-8s2-1 2-2c0-2-1-2-3-2s-3 0-3-2c-1-2-5-4-7-3l-2-1c-1-1-1-1 1-1 7 1 10-1 4-2-2-1-2-1-1-2a3 3 0 000-5l-2 2c-1 1-2 1-1 2 0 2-1 2-5 1h-17c-1 2-1 3 1 3l1 1c0 1-3 3-5 3s-5 3-3 4a28 28 0 0014-6v2c-3 4-2 5 0 5s2 0 1 1l-4 4h-4l-2-2v4l1 2c1 3 0 3-4 0-2-3-4-3-3 0l-3 1c-4 0-5 1-3 3l2 2a2 2 0 003 1l-1-2-1-1c1-1 5 1 5 4 1 2 0 2-3 1l-3 1c2 2-3 3-8 2l-4-2-3-1-3-1c0-2 1-2 4-2s3 0 3-2c-1-1 0-2 1-1l1-1c0-1-3-1-8 1l-4 4h-1v-1c0-2-3-5-5-5l-2 1 1 1 1 1c0 1-12 2-14 1l-5-1c-5 3-7 8-3 8l2 1c-1 1-9-1-9-2 1-2-3-1-4 0l-3 1-3 1 2 1 2 1c1 1 0 1-1 1h-8l-7 1-5 1c-4 0-4 0-2 1 2 2 2 2 1 3-3 2-2 3 0 3l4 2h-8v-2c0-4-1-5-5-5-2 0-3 0-2 1l-2 2c-2 1-2 2-1 4h3c3-2 5-1 2 1l-3 2-1 1-1 1-1 2-1 1-2 1 2 1h4c2 2 4 2 5 1 3 0 3 0 2 2v3c3 2 2 3-2 3-3 0-4 0-4-2l-2-2-2-1-14-4-1 3-2 2c-2 1-2 1 1 1a15 15 0 019 4c1 0-1 3-3 3l-1 1 3 1 4 1c1 2 5 1 5-2l-2-1h-4c3-1 2-4 0-4l-2-2c0-1-1-2-2-1l-2-1c0-2 8-1 9 2 0 4 4 7 6 5l12-1 2 1 2-1-2-2c-3-1-2-2 2-1a4 4 0 014 3v2c0 2-4 3-7 1-1-1-2-1-3 1h-5c-4 0-4 0-4 2l-2 2-7-1c-2-1-6-1-7 1l-3 1v5l2-1 5-3c3-1 3-1 2 2 0 2-1 2-3 2h-1l1 2c0 1-8 0-10-2-1-2-6 0-6 3l-1 2-2-1c0-2-3-1-4 1h-10c-1 2-6 2-7 0 0-2 0-2 1-1a3 3 0 10-1-1 4 4 0 01-7 1c1-2-1-2-3-1-4 2-4 5-1 5h2l2 2 8 1c5 0 6 0 6-2 1-2 1-2 2-1 3 4 32 6 36 3h6l2-1 4-2a1 1 0 111 2l-2 1a1753 1753 0 00121 0l35 1h34v-35c0-34 0-34-2-34a1 1 0 110-2c2 0 2-1 2-15s0-16-2-16l-2 2c0 2-1 3-3 1-1-2-10-2-11 0h-4l-2-2c-2 0-3-1-3-2h2c1 1 5-1 5-2 0-2-6-3-8-2-4 2-6 1-6-1 1-3-3-6-6-4m18 20l-5 3-2 2h-2l-5 2-2 2c0 1 2 2 4 0l11-3h2l-3-2h-2l2-1c2-1 3-1 4 1l4 1c3-1 3-3 0-3l-2-2h-4m-55 8l2 3 1 1 1 1 1-1 1-1 3-1c2-2 6-1 6 1l-1 1v1c2 1 3 0 2-1l1-1c2 0-4-4-7-4-2-1-3 0-2 1 0 1-1 2-2 1h-3l-1-1-1-2-1 2m44 6l-1 2-2 2-2 2 1 2h2c-1-2 0-4 2-4l3-1 4-2c3-1 2-3-2-3s-5 0-5 2m-52 9l-3 3-2 2h5l2-2c0-1 1-2 3-2s3 1 2 2h3c4-1 5-2 2-2l-4-1c-1-2-5-2-8 0m53 5l1 1 1 3c0 3 0 3 3 3s3 0 3-3c-1-4-8-7-8-4m-75 7c-1 3-1 3-3 1-2-1-2-1-4 1l-4 1c-1-1-12 3-15 5l-4 2-3 2c-1 1-2 2-3 1l-3 2c-1 2 1 2 6 0l7-3 3-2 6-2 8-2 7-2c4 1 7-3 5-5l-3 1m-68 6l2 1 2 1c2 1-1 3-3 3h-1l1 1c0 1 1 2 4 1 4-1 5-2 3-3-2 0-2 0 0-2 1-2 1-2-1-2l-5-1-2 1m-189 9l-2 2c1 0 0 1 0 0l-8 6c0 1 5-1 9-4l5-2c1 0 2 0 1-1 0-2-2-2-5-1m-13 2l-3 1-15 1c-2 0-3 0-3 2l4 1c2-1 5 0 7 1h6l5-3c3 0 5-2 4-3h-5m20 1l-1 2-4 1c-2 2 0 3 2 2h7c6 1 9 1 9-1l1-2c1-1 1-1-2-1l-4-1h-8m-22 6l-3 1c-2 0-2 1 1 2 4 1 5 4 2 3l-5-2-6 1-5 2c-4 0-4 5 1 8 3 3 0 4-3 2h-6c-4 2-6 3-6 0 1-2-2-3-5-1l-4 1-1 2h-1c-1-2-2-2-5-2-3 1-4 2-2 4 1 1-3 6-5 6-1 0-1-5 1-8v-2l-3 3-2 2c-4 0-5 0-9 4s-3 5 1 3c4-1 4-1 6 1 3 3 14 4 14 2h-3l-3-1 7-1 7-1 3-1 2-1c0-2 2-2 4 0h5l3-2v1c0 2 0 2 2 2l2-2 2-1 1 3c0 2 1 3 3 3s2 0 1-1c-3-3 0-3 4-1 8 3 36 5 38 2 1-1 1-1-2-1h-12l-10-1c-1-1 6-3 8-3h3c2-1 7 0 12 2l3 1 3 1h4c0-2-4-5-6-5-4 0-4-2 0-2s6-1 7-2l2-1v1c-6 4 3 8 10 5 2-2 3-2 3 0l2 1 4 2c5 3 10 3 12 1h3l40 1-2-1-3-1-2-2-3-1-2-2c-3 0-3-1 1-3l2-2h-9c1-1 0-2-4-1-7 1-9 2-3 2 6-1 7 0 2 2-4 1-11 0-11-2h-7c-2-3-24-6-24-3l2 1 2 1-5 1c-7 0-8-1-3-3 3-1 4-2 2-3s-5 0-5 1l-2 1-2 1h-3l8-6 2-1h3c1 2 2 2 4 1 3-2 2-3-1-2l-3-1c0-2-4-1-5 1-2 1-3 2-7 1l-4 1c1 2-5 5-7 4v-2c2 0 8-5 8-6l-3-1-4 1-4 4-5 4h-5c0-2 3-4 4-3l1-1v-2c2 0 1-3-2-4-2-1-4-2-5-1s-2 0-3-1h-4l-4 2-1-3c-1-3-2-4-3-2m-9 7a4 4 0 00-3 8c3 0 3-2 2-3-1-2-1-2 1-2s3 1 3 2 5 2 9 0c3-2 0-3-4-2-3 1-3 1-3-2-1-2-2-2-5-1m198 7l-2 3c1 1-2 2-7 1l-2 2h10l3-3c3-4 3-5-2-3m-331 12a4 4 0 007 4l2-1 1-1c0-2-2-2-3-1s-2 0-4-1c-2-4-3-4-3 0m34 2l-3 1c-4-1-5 1-1 3h30c0-2-2-3-5-2l-4-1c-1-2-4-3-4-1l-4 1-5-1h-4"
      itemprop="regular" tabindex="-1" style="fill-opacity: 0.756; fill-rule: evenodd;"></path>
    </symbol>
    <symbol id="-posters-1650742812460-bold">
      <path d="M588 35l-17 2-21 1c-4 0-10 2-11 4 0 1-1 2-4 2s-4-1-1-3l1-2h-4l-4 1c-2 0-2 1-2 2 0 2-1 2-3 2s-3 1-3 2v2h3c1 1 1 1-1 1l-4 1c-2 1 1 6 3 6l4 2h1c0-2 1-2 3-2 3 0 3 0 2 3v4c1 1 2 2 1 4 0 3 1 5 3 5s2 0 1-1l-1-3 1-1c2 1 16 0 17-2h-4l-4-1a1 1 0 00-3 1l-1 1-1-1-3-1c-3 0-3 0-4-2 0-3 0-3 2-3s3-1 3-2l3-1h2c1-1 0-1-3-1l-8-2c0-2 13-1 13 0h1c0-3 7-1 7 3 1 3 2 3 5 0 2-2 4-3 7-3 5-1 6-2 4-4h-1c-3 3-11-1-11-5 1-2 1-3 5-3l4 1c-1 2 1 1 8-1a53 53 0 0113-3c4-1 5-1 25 5l10 2c8 0 6-2-4-4l-16-5c-2-1-10-2-13-1m-188 3c-2 2-5 3-5 2l-5 1c-4 1-4 1-3 3l1 1-20 2-5 2-3 1c-3-1-9 2-9 4 1 2 10 3 10 1 0-1 5-3 10-3s7-1 4-2v-1h1c0 1 9 0 13-2l2-3 4-1 4-2c2-3 6-3 18-4 4 0 4 0 2-1-8-2-14-1-19 2m59-2c-1 1 0 1 2 1l4 1-5 1c-6 0-4 1 3 2 13 0 21 1 23 2h6l-3-1c-3-1-2-2 2-2l3-1c0-2-3-2-13-1h-9c-3-2-13-4-13-2m-22 3c-3 3 7 5 10 2l4 2c5 1 8 2 6 0l-2-2c0-3-2-3-5-1-2 1-2 1-2-1 1-2 0-2-4-2l-7 2m173 7l2 1v1l-1 1-2 3c-3 2-3 4 0 4 5 2 7 1 9 0l2-2h-3c-4 0-6-4-2-5 3-1 2-2-2-4l-3 1m16 1l4 3 8 5 5 2-1-1-2-2c-2-4-14-9-14-7m-150 7c-6 1-10 4-8 6s3 1 3-1 19-2 20 1c1 2 3 1 3-2s0-3-2-3h-3c-2-1-9-2-13-1m-137 3l-18 4-4 3-5 2c-7 0-26 5-31 8-4 3-1 4 4 1l7-1 8-2 7-1 4-1 4-2 4-3h3c2 1 2 1 3-1l4-2 5-1 13-3 3-1h-11m224 1l-3 1c-1 0-4 1-3 2l-1 1c-1 0-2 0-1-1l-2-1v1l1 3c-1 2 0 2 8 0s9-2 6-3c-2-1-3-2-2-3 2-3-1-3-3 0M267 85l-7 1c-9 0-12 1-7 2h11l4-1 2-1c-1-2-2-2-3-1m135 10c-1 4-1 5 2 5l3 2c3 3 8 0 6-4-1-2-1-2-4 0-4 2-7 0-4-3v-3l-3 3m-203 5l-5 2-7 2c-1 0-3 1-3 3-2 2-2 2 0 2 4 0 5-2 2-3v-1h8l2-1 4-3 1-1h-2m-21 5l-8 1-7 1-6 1c-6 0-7 1-1 1 4 0 5 0 3 3-4 5 4 6 8 1l3-2h3l4-1 4-1-2-1 1-2c3-2 1-3-2-1m-29 11l-4 2-3 1c-2-1-4 1-4 3s1 2 3 1c1-2 5-3 14-6l1-1c0-3-4-2-7 0m172 6a84 84 0 01-28 1h-13l-12 2-18 6-8 3-6 4a12 12 0 01-8 3c0 2-5 6-7 6-2-1-2 2 1 7l3 5 1 1v-1l-1-9c3 0 6 3 8 7l3 5c1 0 1-2-1-6-4-9-4-10 2-10l5 1 1 5c2 4 2 6 1 6v3l2 3 2 4c2 3 2 3 0 5v4l2 4c0 2-2 1-3-1l-5-9c-2-3-2-3-3-1l1 4v2l1 2v2c-1 1-1 1-7-6-3-3-3 0 0 4 2 4 3 6 0 6-1 0-6-5-6-7l-2-4-4-6-1-3c-1 0-2-3-2-8-1-4-6-4-6-1s0 3-2 3c-3 0-3 1-3 3l-3 1-4 2c-1 3-4 4-6 2v2c0 3 0 4-2 4-1 1-4-1-4-4l-1-1v8c1 1-1 4-2 4-2 0-9-15-9-16l-1-2c-2-1-3-3-2-4l-2-3-2-2v4c0 3 1 5 3 6l1 2 1 2v2l1 2 2 3 2 2c2 3 3 11 1 12a5 5 0 01-6-5l-2-3c-2-5-4-5-3-1l3 7c4 7 4 9 1 10-2 1-3 1-5-2l-3-2 2 3 2 5c0 2-4 4-6 3v1c2 2 1 5-1 5l-4-3c-3-3-4-2-1 3 3 3 3 4 1 6-1 1-1 1-6-3-4-5-6-6-4-2l4 6c3 3 4 6 1 6-1 1-5-1-5-2l-5-6a209 209 0 01-9-9l9 13 6 9c0 3-4 2-6-1l-13-14 4 7 1 2c-1 1 6 8 8 9s3 3 0 5c-1 1-13-10-13-13l-6-4 13 17 4 5c-1 2-6 2-6 1s-1-3-8-10l-3-4-3-3c-4-4-4-1-1 3l15 19c0 2-5 1-8-2-4-3-4-1 0 4l4 4 4 6 2 3 2 1 2 1c0 2-2 2-4 1l-3-2-2-1-7-5 3 4 4 5 2 2c3 1 3 4 0 4l-5-5-2-1h-4c-2-1-2 0 2 3l6 5 1 2c-1 3-5 3-8 0l-3-3-2-2-2-1 6 9 2 4a6 6 0 01-7-4l-4-2-3-2c-1 1 2 7 4 7 1 0 3 4 2 5h-4l-2-1 1 3 2 3 7-5 4-2c2 1 2 0 3-2l2-2 4-3 5-4 1-2 2-2 4-4 2-2 3-2 3-3c2 0 2-1 2-3 0-3 0-3 3-4 2 0 3-1 3-2l2-2c3 0 2 2 0 4-2 0-3 2-3 2l-3 4c-9 10-15 17-15 19l-8 9a53 53 0 00-10 11l-5 4-21 15c-4 2-9 6-9 8l1-1 5-1c4-1 4-1-4 4-6 4-8 7-2 4l7-3 8-3c4-3 8-3 14-1 5 2 7 2 5 0-3-2-2-4 1-6l2-3 2-3c3-3 4 0 2 6v8l1 7 1 4c2 3 2 4 0 4l-3 2c-1 3-6 6-9 6-2 0-1-2 1-3 3-1 6-6 5-7l-10-1h-10c-1-1-2 0-4 1l-5 3c-6 3-1 5 11 5 8 1 11 1 10 3-1 1-15 2-18 1l-10-3c-2-2-7-4-7-3a13 13 0 008 8c3 2 12 3 25 3 23 0 31 3 61 21l4 2 2 2 3 1 12 6a142 142 0 0021 9l10 4 4 2 3 1 3 1 2 1 6 2c4 2 30 8 31 7s-2-3-4-3c-11 0-12-10-4-23l2-4-3 3-3 5-3 4-2 3c-2 0-1-2 1-5s3-5 1-5c-1 1-2 0-3-1-1-2-1-2-2 1-2 4-2 4-5 3h-4c-2 1-3 1-5-1-3-2-4-5-2-5 1-1 0-1-2-1-3 0-4-1-4-2h-2c-3 2-3 0 0-4l1-2h-6l2-3 3-2-4 1c-3 2-4 4-1 7l1 2a27 27 0 01-14 3v1c0 2-4 1-5 0 0-2-4-4-6-3l-1-1-2-2c-2 0-3-1-3-2l-2-1c-5 0-15-4-18-7l-6-3-7-4a12 12 0 00-9-5l-3-1c-2 0-6-5-6-7l-1-3c-5-3-8-13-6-15 2-3 13-3 14 0h1c0-2 1-2 4-2 6 0-1-2-9-2-9 0-10-1-12-4-3-4-2-7 0-8 2 0 2-1 1-3 0-3 0-3 4-5 5-2 7-5 3-3-7 3-10 0-5-4l2-3h-2l2-1 1-2 2-3 1-3 2-3 1-2 1-2 4-6 10-11h3c1 0 4-3 2-4v-2a20 20 0 0011-5l1-1 5-3 5-4 2-1 2-2 5-3 6-4 4-1c3 0 2-2-1-2h-3l3-2 5-2 6-1 8-1c2-1 3 0 3 1h14l-3 3-7 9a134 134 0 01-9 12l-3 5-4 8-3 5-2 4a232 232 0 01-5 27v13c0 5 0 6 2 5l6-1 8-2 3-1h1l-3-1h-3c-1-1 11-3 12-2l1 2c-1 2-1 2 4 2l3-1 2-1 6 1 3-1-2-1c-5 0-3-2 2-2l4-2h-3l-3-1c1-3 0-3-8-3s-10-1-5-2 1-4-5-4c-4 1-5 0-5-1l1-3c0-1 3-1 3 1 1 2 9 1 10-2 0-2 1-2 3-2h5c2-1 8 0 7 1l-2 1h-3c-4 1 5 3 11 3l5 1-4 1c-3 0-3 0-2 1 1 2 0 3-2 3l-2 2c0 1 2 2 3 0h18c0 2-1 2-11 2-8 1-11 2-8 3l1 2 1 2c1 0 1 1-1 3-3 3-7 4-6 2l-2-1c-2-1-3 0-3 1 1 2-1 3-4 3-2 0-6 3-5 4l3-1c2-1 4-1 4 2 0 1 1 1 6-1l6-2c1 1 2 0 2-1l2-1 6-2 5-2-9 7-6 5-3 3-1 1 3-1 2-2 3-2a25 25 0 0117-7h2c-1 2 2 1 5-1l5-3 2-1 3-2c2-1 2-1 0 1l-2 2-4 3c-1 3-2 4-6 4l-6 1c-1 1-1 1 1 1 4-1 5 1 2 3-4 2-4 2-1 3v2c-1 0-3 1-3 3-2 3-2 3 1 0l3-2c1 0 2 0 3-2 2-2 5-3 5-1 0 1-3 5-5 5-1 0-2 1-2 3 0 3-4 10-7 14l-2 3c0 2 3 0 4-3a22 22 0 014-5c1-3 3-4 3-2l-1 2-7 10a433 433 0 01-17 27l6-6 7-11 1-2 1-1 1-2a47 47 0 0110-14l3-5 2-4c0-2 3-5 5-5v2l-6 11 4-4c3-6 5-7 5-5l-2 4v2l4-5c0-3 4-7 5-5l-1 3c-1 1-1 1 1 3s3 6 1 8l-1 1v6c-2 9-2 13-1 11l1-3 1-3 2-4c0-1 0-2 1-1l1 2 1 4c1 1 1 1-1 2v3l1 4 1 3 1 6c0 7 3 9 5 6v-4l-1-4v-3l-1-6-1-4c-2-1-2-9 0-10 1 0 3 4 2 6 0 2 1 4 2 3 2 0 2-2 1-2-4 0-1-3 2-4 4 0 5 1 2 2l-2 2 1 16v5l6 3c5 2 5 2 7 0 1-2 2-1 1 2 0 2-1 4-3 4-2 1-2 1-1 2 3 2 7 1 7-1l2-2c1 1-1 6-3 7-2 0-2 1-1 3h3c1-1 1-1 1 4-1 6 0 8 3 5h1c0 3-4 5-12 5l-16 1-9 1h21l15-1c12 0 30-4 46-9l16-4c20-5 27-7 38-13l11-4 3-2 4-2 2-1 2-2 4-2c2-1 5-1 5 1l-3 2-4 3-3 2-4 3-3 1-4 3-4 1-3 1c1 2-1 3-5 3l-4 1c-2 3-9 6-10 6l-2 2c-1 2-2 2-5 1l-4 1-4 2-4 1-4 1-11 3-13 3h-8l-6 1-6 2-4 1h-22l-5 2h-2l1-2-3 1h-45c-1-2-4-2-2 0l-2 1c-2 0-3-1-3-2-1-3-4-3-7 0l-4 2c-2-1 0-3 2-3l2-1-4-1-6-2-5-1-5-1h-8c-1-2-2-2-4-2h-3l-3-2-4-3-6-2c-2 0-3 0-2-1s0-1-4-2l-6-1-3-1h-3l-3-2c-4 0-9-2-9-4l-3-2-7-4-7-4-2-3-4-2-5-2c-1-3-6-4-8-3l-2 7v3l1-4c0-2 1-3 4-3 4 0 6 2 3 3l-2 5-3 7v2c1 1 3 0 3-2s5-7 6-5v6l-3 7c-1 5 2 3 4-3 2-5 6-10 7-10 2 0 2 4 0 6l-1 4v2c-1 1-3 10-2 11l1-3c1-5 5-13 7-13s2 2 1 8c-2 5-2 8-1 8l1-3 1-4 2-4 3-2c2 0 2 0 2 3l-2 7v5l3-6c5-8 6-8 5 1-1 7 0 9 1 6 3-5 6-3 6 3 0 7 2 6 2-1 1-6 3-12 5-12s3 5 2 8l-2 4-1 1v3c1 1 2 2 1 4l1 2 2-11c0-4 4-10 6-8v4l1 2c0 2-1 3-2 3l-2 2v3c-1 2 0 5 2 5 2 1 3 0 3-6 1-8 6-12 6-5 0 2-1 3-2 3l-1 1c0 1 3 3 5 2 2 0 3 4 1 6v1s2 1 2 3l2 4v-4l1-5 2-4c1-3 1-3 1 3 0 10 2 13 3 5 1-7 2-9 4-9l1 6c0 9 1 12 4 11 2 0 2 0 0-2l-1-5 1-6 2-1c2-1 2 0 2 7v8h4c3 0 4 0 4 3l1 3 1-3 2-8c1-7 2-9 4-8l1 5c-2 12-2 15 1 13 2 0 2-1 2-5 0-3 0-4 2-4 1 0 2 2 2 5 0 8 0 8 2 5l2-5c0-4 2-6 3-6l-1 3c-1 1-1 1 1 3v6l-1 4-2 2c0 2 1 2 3-2 3-4 4-5 6-2v2c-1 2 0 3 1 3l3-3c1-4 3-5 5-2v2l-1 2v4c-1 2 0 2 8 2a111 111 0 0118 2l15 1h10l4-1-3-1c-4 0-6-2-5-5 0-2 0-2-3-2-4 1-6 0-4-3l1-1v-2c1-1 2-1 2 1 1 2 1 2 3 2 4 0 5-1 3-2-1-2-1-4 1-4l1 3c0 4 1 6 4 4 1-1 3 0 3 2s0 2-3 1c-3 0-4 0-5 2s-1 2 4 2c5-1 6-1 4 2v6l1 2 3-1-1-2v-2l2-3c0-2 2-1 2 1s1 3 3 3 2 0 2 2c0 3 3 5 8 3 2 0 2 0-1-1-3 0-4-1-4-2l2-1h27l-8-1-5-1c0-2 1-4 2-3l4 1c13 1 15 1 12-2-1-2-1-2 16-2h17c1-1 0-1-1-1-2 0-4-2-3-3l9-1c8 0 11-1 4-1-5 0-7-2-5-3l5-1h4c2 0 1-3 0-3l-2-1 2-1a37 37 0 0014-1c-4-2-1-3 9-3l9-1c3 0-1-2-3-2l-7-1-3-2h7l9-1c4 0 1-2-3-2-3 0-1-1 4-1l8-1-1-2-2-1 6-1 1-1c-1-1-3-2-7-2-6 0-8 1-4 3 2 1-3 1-12 1-6 0-6-2 1-3 3 0 4-1 5-2l1-1 3-1h3l3 1h16l-8-2-2-1c-3-2-1-4 2-2h3l-1-1-2-3c0-2 1-2 6-2 2 0 3-1 1-2-2-2-1-4 1-4s2 0-1-1c-4-2-3-6 2-5l1-2c-1-2-1-2 1-3 3-1 5 0 5 2 0 1 0 2 2 2s2 0 1-2l-1-4c0-1 0-2-1-1a2 2 0 01-2-3c2 0 2-3 0-6l2-1c3-1 9 3 9 6 0 2 1 2 3 2l3-1-1-1-2-1-1-3-2-4-2-4c-3-4 1-2 4 2 4 4 7 4 4 0l-2-5-1-2-2-2c1-1 6 1 8 4l6 3-1-2-2-1-2-3c-5-4 4-3 9 2 2 1 2 0 1-2l-1-2-4-3c-2-3-5-4-5-2l-1 1v-4c2-1 5 0 6 2s2 2 3 1c4 0 8 2 7 5h1l1-1-4-6c-4-5-5-6-2-5l1-1-3-1c-1 1-6-3-6-4l3 2c2 2 3-1 0-4-2-2-1-5 2-5 2 0 2 0 1 3 0 2 0 2 3 2 4 0 4-2 1-6-4-4-1-7 4-2l3 2 4 2 2 1-3-3a4 4 0 01-3-4l-2-2c-2-3 0-4 4-3 5 2 7 2 5 0l-2-4c0-5-11 0-21 9-4 5-6 6-8 5-3 0-3-1 3-6l4-6 2-1 2-2c0-2 3-5 10-10a17 17 0 007-8l3-3 5 2 8 2 3 1c1 2 3 1 3-1-1-2-1-2 2-2h2l-6-2c-1 1-1 1-1-1l-4-4c-5-2-6-4-3-4 2 0 3-1 1-3-3-2 13 0 19 2 9 4 9 2 1-4l-12-7c-2 0-3-1-3-2l-5-2c-5 0-7-2-7-3l-1-2-2-4v-2l4 2 4 3 3-3 2-3c0-2-3-1-3 0-1 2-5 1-5 0l-2-3c-3-3-2-10 1-11 2-2 3-3 0-3-1-1-5 2-5 4s-3 2-4 0c-2-1-2-1-1-2 2-1 2-2 1-3l-2 1c0 1-4 2-4 0l4-7 1-2-1-2-3 3c-3 4-4 4-4 0 0-3 0-3-2-3s-2-1-2-3c0-3 4-4 5-1l2 1h2c1 1 2 2 3 1 2 0 9 4 8 5l15 16 4 5 2 1 2-1-1-1-1-1-5-7c-6-6-7-7-4-7 2 0 1-1-2-5l-4-3 1 3c0 2 0 2-1 1l-2-3-2-1c-4-1-4-3-1-3l2-1h-3l-5-2c-3-3-3-4 0-3h3l-3-2-4-3c-3 2-7 0-6-2l-3-3-2-2c2 0-2-4-4-4l-8-1c-5-2-5-2-5 0l1 2a22 22 0 0115 5l1 2 2 3 4 3c4 2 6 5 3 5l-7-3h-2l-4 2c-3-1-4-5-1-7v-2c-1-1-1-1-2 1 0 3-6 6-6 3-2-4 0-7 3-7h2c0-1-4-3-5-2h-6l-1-2v-3c0-1 0-2-2-2l-5-4c-3-3-4-3-8-3-3 1-4 1-5-1s2-3 6-3l6-1c1-1 2 0 5 2l3 2 4 3 3 2h-3l-4-1-1-1a2 2 0 00-3-1l2 2 1 2c0 1 3 2 6 1h4c3 2 7 3 7 1 0-1-4-3-5-2l-1-1c1-2-2-5-4-5l-1-1a265 265 0 00-41-27l-37-18c-5-2-8-4-7-5l-2-1c-3 0-27-7-33-10l-10-3-9-3-12-2c-5 0-9-1-9-2l-8-1a36 36 0 01-12-2l-6-1h-10l-4-1h-2c-2 1-7 1-9-1h-2m-67 16l-4 3-3 1c-3 0-3 0-3 4l1 5 1 4 3 4v1c-1 2 2 10 5 11 4 2 4 1 4-4l-2-9-1-6c-2-1-2-1 0-2v-6c2 0 2 1 2 3l1 7 2 8c0 3 2 6 3 6l1-2v-3c1-1 2-5 1-13l-1-8c0-2-4-5-5-5l-5 1m34 1l1 2 1 2 2 1 1 3c0 2 4 7 4 6l1-9c0-4 0-5-3-5h-7m21 1l2 1 2 2-3 1c-4 0-4 3 0 4l2 1-2 1c-4-1-4 4-1 4h5v-7l1-3v-3c-1-2-6-3-6-1m-43 4v1l1 7c0 8 1 11 4 11 2 0 3-1 3-5v-6l3 6c0 5 2 8 4 5 3-6-2-18-7-14-1 1-3-1-2-3v-2h-6m62 1c1 1 0 2-1 4l-1 3v3c-2 2-1 5 2 5 1 0 2-2 2-5v-8c1-3 1-4-1-4l-1 2m-44 9c1 8 3 11 5 7 1-3 0-11-1-11l-3-1-1 5m73 6c0 5 0 7 3 7 2 0 4-7 3-9-2-2-5-1-6 2m-145 1l1 3 1 2 5 8 3 6c1 4 4 5 5 2 0-1 0-2-2-3l-1-2a25 25 0 00-6-14c-3-4-5-5-6-2m183 0l2 2c1 1 1 1-1 2s-3 2-3 7v12l3-4 2-5v-3c-2-1-3-4-1-4s5-3 5-5l-6-3-1 1m-187 6c-2 3 9 22 11 21v-4l-5-12-2-4c-1-3-4-4-4-1m197 0v6c-2 4-4 9-3 10 2 1 8-14 7-16h-4m15 1v3l-1 3c-2 1-2 2-2 3 1 2 1 2 3 1l5-10h-5m-219 2l-2 1 4 8c3 6 5 8 6 8 2 0 3-4 1-5v-1c1-2-2-6-5-6a1 1 0 11-1-2v-4l-3 1m236 1c-2 0-4 7-4 10 1 2 4 4 4 1l-1-1-1-2h2c1 1 1 1 2-2l3-3c2-1 3 2 1 3l-1 4c1 3 1 2 5-2 1-2 1-2 3 0l3 2c3-1 2-4-1-4l-3-2c-1-2-10-5-12-4m-26 1l-1 3-1 4-1 6c1 2 2 2 2-1 1-3 2-7 4-9l1-2c-1-2-3-2-4-1m-215 4v2l1 4 1 3 1 2c0 3 3 5 5 4 1-2 1-2-1-2s-3-2-1-4c1-1 1-2-1-4l-3-4c0-2-2-2-2-1m261 6v5c-2 5 3 3 6-3 2-3 1-4-2-4s-4 0-4 2m-266 1c1 1 0 2-1 3s-1 1 1 3l2 3c0 2 3 7 4 6a11 11 0 00-2-10 10 10 0 00-4-5m292 3l-4 1c-3 0-5 1-5 2h4l3 1-4 1c-3 0-6 2-4 3 1 2 3 1 3-1h2c2 2 5 0 5-2-1-2 5-2 5-1v2a2 2 0 101 3l2-2c2-1 1-6-2-6-1 1-3 0-3-1h-3m-93 7c0 1 1 2 3 2l13 4c6 2 8 1 7-1 0-2-2-3-3-1l-5-1-2-1c-3 1-6 0-6-1 0-2-5-2-7-1m-204 4l-2 1 6 5 6 5-3-3c-2-2-2-3-2-6 0-4-1-4-5-2m230 4l12 4 4 2c0 2 23 8 24 6 2-2 1-3-2-2-2 0-4 0-5-2-2-2-3-2-5-1-2 2-8 0-8-3l-2-1-5-1-4-1-3-1h-6m-238 2l8 7c3 0 2-1-1-5-2-3-7-4-7-2m-7 2c-1 2-1 2 1 2v1l3 4c3 3 7 4 7 2l-1-1-1-2c-1-3-9-8-9-6m191 4l-2 4-1 3-1 2-1-4c1-5 1-5-4 2v-2c0-5-1-5-4 0 0 2-1 3-2 3l1-4c3-5 3-9 0-4l-3 5-2 2 1-3c2-4 2-6 1-6l-7 12c-2 5-3 5-3 3l-1-2-1 2c-1 5 4 5 6 0l3-3v3c-5 8-7 14-7 15l-2 3c-3 2-3 0 0-4 2-4 4-10 2-8l-4 1c-2 0-3 0-3 2l-2 5-2 3-2 5c-2 3-3 6-1 6v3c0 3 0 3 1 2l3-4c1-1 1-2 2-1l-1 2-1 3c1 1 5-1 5-3l2-4c3-5 3-1-1 7-4 7-5 9-3 9l1-1 5-11 9-18 4-9 2-4 2-2c2-2 1 1-8 18-3 7-3 9-1 7 2-1 9-15 9-17l1-1c1 0 2-1 2-3l2-2-2 6-5 11-3 10c2 0 4-4 4-7l1-2 2-5 6-9-2 6-4 10c1 1 1 1 4-1 2-4 3-4 0 2l-1 4c2 1 4-1 4-3l3-1 2-1a6 6 0 019-5l-2-2c-2 0-3-1-1-3h3c1 2 2 1 2-2v-6c1-2 2-2 4-1 2 0 2 0 2-2l2-3c2-3 3-7 1-7-1 0-2 1-1 2l-2 4c-3 2-4 1-1-2v-4c-2-3-4-3-8 1l-2 2c1-6 1-6-1-6l-2 1c0 2-6 15-8 16-1 2-1-2 1-6 6-12 6-13 4-13l-3 4m-37 0l-1 3-2-3-2-2v10h1l1 1 1-3c0-3 0-3 2-3h4v6c-1 1-1 1-1-1 0-3-2-4-4-2a4 4 0 004 6c1 1 2 1 3-1l3-1c1 1 5-3 5-5l1-2 1-3c0-2-5-2-5 1h-1c0-1-1-2-3-2l-5-2c-1 0-2 1-2 3m129 8l2 2 6 2c8 4 14 6 16 5 2-2 0-3-4-3l-4-1 1-1 1-1-4-1h-5c0-1-1-2-4-2l-3-1-3-1 1 2m-46 6l2 2c2 0 8 9 8 10-1 2 6 6 7 4 1-1 0-5-2-5l-1-2 4-1 4-1-2-1-4-1h-2c-2 2-7-1-6-3 0-2 0-2-2-2l-4-1-2 1m-96 3l1 2c2 1 0 4-3 4l-2 2v4c-1 1 0 2 1 3 3 1 3 1 2-1 0-2 0-2 2-1 3 1 3 1 4-2s3-4 3-1v2c2 0 3 0 3-3l-1-4v-2c0-2-3-4-4-1l-1-1c-1-2-5-3-5-1m121 7c-2 0-1 2 1 2l2 1c-1 1 0 2 2 1 2 0 2 0 2 2l2 1c4 0 4 3 0 4h-3l-2-1-2-1c-2-3-3-3-7-2l-4 2 2 2 3 4 4 1a486 486 0 0112 1c5 0-3 2-9 2h-5l-4 1c-5 1-5 2 0 3 5 0 4 1-2 3-3 1-5 3-5 4s2 2 2 0c1-1 11-4 12-3l-1 1-2 1 3 1c1-1 2 0 2 1l-15 5c-1 0-3 1-3 3-2 3-4 3-4 0 0-2 1-3 3-3 4-1 4-2-1-2-5 1-8 3-8 5l-2 1-2 2c0 1-4 2-4 0l4-3c3-1 3-1 1-2-2 0-13 5-13 7l2 2 3 5c1 4 1 4 5 4l3-1c-1-1 1-2 5-2l11-3 12-3 4-2 2-1c2 0 4 8 2 10-2 1 1 6 3 6l1 2v2l1 7c1 11 2 15 3 15l1 2-1 1-2 3c-2 4-4 7-6 7l1 1h3l1 5-2 5-1 3-1 3-2 2-2 4c-2 4-1 5 6 3l15-4 16-4 10-2 7-1c3-2 3-2-4-1l-10 1c-2 1-3 1-3-1l3-1c2 0 3 0 2-2l-2-1h-3l-4-1a8 8 0 01-8-3c-5-2 3-1 9 1a19 19 0 008 2l4 1c5 0 7-5 4-9-2-3-2-3-1-4l2-3c2-3 7-6 9-6 4 1 4 4 1 6l-1 3c0 1-2 3-3 2l-2 1c-1 3 3 5 6 4l5 1h2c-2 0-2 0-1-1 3-1 1-3-1-2-2 0-4-1-4-3h8c2 1 4-1 4-2l4-3c4 0 4-1 4-2 0-2 0-2 2-2h4l7-3c3-2 5-4 2-3l-8 3-8 1c-8 0-10 0-10 3-1 3-3 4-3 1l-1-3-3-1c0-1-1-1 7-2l8-2h1c1 3 5 2 9 0 3-2 3-4 0-3-2 0-2 0-2-2s1-2 3-2l3-1c2-2 3-1 3 1v2l2-1h2l4-2c0-2 2-3 2-2l1-2v-5c2-2 2-4 1-9l-1-1-4-4-4-4-4-3c-4-4-12-9-13-8l-2-3-4-3-2-1h-4l-4 1c0 2-5 1-6-1 0-3 2-4 4-3s4 0 4-1l-2-1-4-2c-1-2-6-5-8-4l-2-1c-2-3-4-2-5 0-2 3-10 2-10-1l-2 1c-3 3-6 2-3-1 1-1 0-4-2-4l-3-1-5-3-4-2-7-1c-6 0-7 0-8-2l-3-2-2-1h-3m-276 4l3 4 2 2 2 1 5-1 3-2c2-1 2-2-3-2-4 0-6 0-7-2l-5-2c-2 0-2 0 0 2m243 6l1 2c1 0 1 1-1 2h-1c1-2-2-3-3-1-2 1 3 9 7 11 3 1 3 2 2 3h-3l-4-1-1-2-2-4-3-3 1 3-1 3-3 2c-2 2-1 3 2 1h4l3 2 2 4c1 3 5 4 7 2h1l1-1 2-1c1 1 1 0 2-2l4-3a2 2 0 10-1-3 2 2 0 11-2-3c2-1 2-1 1-4-2-4-4-5-5-3-1 3-5 5-6 4v-2l3-3 1-3h-5l-1-1-2 1m-159 7c-2 2-2 3-1 3 3 0 5 3 3 4h-3c-2 0-1 1 1 3s2 2 0 2l-2 1c-1 1 1 3 2 2 1 0 8 2 10 4h3l-5-3c-3-1-5-3-5-4h6c2 3 14 7 14 5l-7-3-5-2-6-3-1-1c1-2 4-2 6 0 4 3 13 5 13 3s-2-3-6-3l-2-1-1-1c-3 0-4-3-5-7 0-2-4-1-4 1l-2 3c-2 0-2-3 0-4v-2c-1 0-3 1-3 3m93 7l-3 5-1 5c0 2-1 3-3 2h-5c-2 1-2 1 0 2l2 3c0 2 3 4 5 4v-2l-1-1c1-1 2 0 4 1l4 2 3 1h3c2-2 0-4-3-4l-4-1-3-2v-5c2-2 5-10 5-12s-2-1-3 2m3 6c-4 8-4 9 1 8l5 1h4l-2-2-2-2c0-2 0-2-2-2s-2 0-1-3c3-7 0-7-3 0m95 6l-6 1-4 2c-2 2-2 2 1 2 5 0 13-3 14-5s-1-3-5 0m-202 1c0 1 2 3 5 3l4 2 3 1h3l12 5 7 3 10 1-2-1-3-1-5-1-7-3-4-2-5-2-8-2-4-1c-2-2-5-3-6-2m13 0l8 5 4 1 6 1 4 1-3-2c-5-2-12-4-13-3l-1-1-2-2h-3m193 3l-3 1-9 2-6 3-3 1-4 2c-2 2 2 1 9-2l8-3c5 0 11-3 10-4h-2m-209 1l6 3 8 3c2 2 13 5 16 5 4 0 1-2-5-3l-6-2-4-1-2-1-6-2-7-2m101 8c2 2 2 2 0 4l-3 2-3 3c-2 1-2 1 3 2h5l-2 3c-3 2-4 5-1 6a7 7 0 006-6l1 2 1 1c3 0 2 9-2 12-4 4-4 6 0 4 3-2 7-9 7-12l2-4c2 0 2 0 0-1-3 0-4-2-1-2l1-5 2-3c3 0 3-2 0-2l-3-1c0-2-3-3-12-5h-3l2 2m131 8c-1 1 1 2 5 2h24l-4-1-5-1h-20m-153 11c-5 0-6 2-3 3l1 2h-12c-3 0-4 0-3 1l-1 2-3 2c-2 1 1 2 4 0l6-2 5-1h2l-2 1-2 1-1 1c-3 0-13 5-13 7l1 1 1-1 5-3 9-3 4-2 2-2 3-4c4-3 3-4-3-3m103 21c-2 1-1 2 3 2l14 5c10 3 13 3 10 1-2-3-26-10-27-8m-6 3l3 2 10 2a53 53 0 0011 4l4 1 5 2-2-2-5-2-22-8c-3-1-4-1-4 1m61 0l4 1c6-1 9 3 3 5-5 1-4 2 4 3 7 0 11-1 10-5v-3l-1 1c-2 3-3 3-6-1-3-3-14-4-14-1m-89 3l2 1 7 2 5 2 3 1 3 1c2-1 2-1-1-2l-17-6-2 1m156 12l-6 4c-4 4-8 8-7 9l5-3 7-7 4-4c0-2-2-1-3 1m-127 3l10 3 9 4 5 1c4 0 0-2-8-5l-12-4c-6-2-9-1-4 1m-105 7c-2 2-2 2-4 1l-1-1 1 2c1 1 1 1-2 6l-4 7-2 2-2 3v3l1-1 5-8 5-8 3-4 2-3-2 1m66 1c-1 2-1 2 1 2 2-1 3 0 4 1l3 2 3 2c3 2 7 3 7 1l-4-3-6-3c-6-4-6-4-8-2m29 0l6 5 8 6 11 8 1-1-1-1-2-1-8-7c-2 0-3-2-3-2l-11-8-1 1m-94 5a303 303 0 00-8 11l-5 10 3-4 3-5 2-3 5-7 3-5c0-3 0-3-3 3m56-3c-2 5 0 9 2 6h2l3 1c1-1-1-5-3-6l-2-2c0-2-2-1-2 1m99 4c-3 0-5 2-3 3l-7 1c-7 0-8 0-10 2l-4 2-1 2c1 1 0 3-1 4-2 2-3 3-3 6 0 2-4 4-7 3-2-1-3-4 0-4 2 0 1-2-2-3-2-1-2-1-1 1 0 3-1 3-7-1-4-3-8-3-3 0a972 972 0 0114 10h13c2-1 0-2-3-2-2 1-2-2 0-2l2-3c0-1 0-2 4-2 11-2 15-5 11-6-1-1 0-1 1-1 2 0 3-1 3-2 0-2 2-3 4-1h2c2-2 2-2 0-4-2-1-2-2-1-3l1-1-2 1m-156 5l-4 7-4 6c-2 1-5 8-5 9l10-15 4-5 2-4-3 2m92 6l3 3c1 2-1 1-4 0-4-3-5-2-5 2v13l-1 13-1 6c-1 3 2 4 4 2l2-1c2 0 6-4 4-5-2 0 0-8 2-8l1 4c-1 5 0 5 5 2 6-4 8-7 7-9-1-1-1-2 1-3 2-2 5-3 5-1l4 1c4 0 4-2-1-3l-4-1-7-5-7-5-1-1c0-2-6-6-8-6l1 2m-93 2l-1 2-4 7-3 7 3-3 3-4-1 7-4 6-4 7-2 4c-1 3-3 5-5 3a2 2 0 10-1 3l3 2a4 4 0 004 3l2-1-2-1v-1c2 0 3-2 1-2v-3l2-4 4-9c6-9 7-12 6-13-1-2-1-5 1-7 2-4 1-5-2-3m82 2l-1 7-2 11-1-2a2 2 0 10-4 1l-1 2-1-2-1-8c0-2-2 0-2 3l-1 3-1-2c1-1 0-2-1-3-2 0-2 0-2 4l-2 4v-5c1-6 0-10-2-8l-1 3c0 2-2 4-2 2-1-1-1 0-2 1-1 3 0 6 1 3s3-2 3 2c0 3-2 4-3 1-1-1-3 4-3 8 0 2 3 1 4-2 1-2 1-1 1 3 1 7 3 7 4 0 0-5 0-5 1-2 1 5-1 11-3 11-1-1-2 0-2 2-2 4-1 6 2 4l2-1c1 1 8 0 9-2 0-1-3-3-4-1s-2-5-1-9c0-5 2-4 2 2l1 5c2 0 2-1 2-4l1-10 1 2 1 3v6c-1 6 0 8 2 5l2-1c0 2 1 2 3 1l1-3 1-8v-13l1-4v-5c2-2 1-5-1-5l-1 1m-156 13l-2 1-1 1 2 1 11 5c4 2 7 3 9 2v-1l-2-1c0-2-4-4-8-5-5-1-4-2 1-3 6-1 5-1-3-2-5 0-6 0-7 2m39 37v1l-1 1c-1 0-2 6-1 10 0 2 1 3 3 3s2-9 0-11v-3a1 1 0 10-1-1m52 23l1 2c3 0 2 5-1 6-5 3-4 5 2 3h5c2 1 7 0 8-2l-5-1h-6l1-3-1-4-2-3-1-1-1 3M0 480v32h19l19-1 3-1 2 1 5 1c5 0 5 0 2-1-3 0-4-1-4-2 0-2 5-1 8 1s57 3 56 1-6-3-19-3l-15-1h-4c0 1-1 1-3-1-2-1-2-1-1-2 2-1-1-3-5-3l-4-1-2-1-2-2-4-3-5-3-1-1-2-1-14-7c-3 0-5-2-2-2 2-1 1-3-3-4l-6-4-4-4c-6-4-11-10-11-14-2-11-3-5-3 26m645-16l-2 1-6 1c-6 1-8 2-6 4 2 1-1 2-4 2-2 0-3 1-3 2l-3 1c-3-1-8 2-13 6a37 37 0 01-10 7l-11 7c-3 1-5 3-5 4s-5 4-6 3l1-2 2-4c0-2 1-3 3-3l4-2c0-2 2-3 3-3 3-1 3-3 0-3l-2 1-2 1c-2 0-9 7-9 9s-4 3-4 1l-3-1v2c1 0 2 2 0 2-3-1-4 0-4 3s-1 4-3 2h-3l-5-1c-5-1-14-1-14 1l3 1c4-1 6 0 4 2-1 2-1 2 1 2l2-1c0-1 3-2 5-1h6c1 3 7 1 8-2 0-1 1-2 3-2l2-1h3v4l4-4 1-1 5-3 5-2c2 1 2 0 4-2 0-2 2-3 3-3l1-3 2-1 6-3c4-4 11-7 12-6l-1 2-3 3-2 1-4 3-4 3c-2 0-4 2-5 4l-5 5-4 5-3 4-1 2 33 1h33v-22l-1-22v-2l1-2h-2c-1 2-1 2-3 1l-2-2-2 1m-82 29l-2 1h-1c2 3 0 5-3 5l-2-2c0-2-2-1-4 1h-2c-1-2-2-2-6-1-7 2-5 4 3 3l6 1h3l5 1c1 2 3 0 3-3l2-3c1 0 2-3 0-3h-2"
      tabindex="-1" itemprop="bold" style="fill-opacity: 0.725; fill-rule: evenodd;"></path>
    </symbol>
  </defs>
  <use class="background" href="#-posters-1650742812460-background" fill="url(#-posters-1650742812460-background-gradient"></use>
  <use class="light" href="#-posters-1650742812460-light" fill="url(#-posters-1650742812460-light-gradient" filter="url(#light-filter)"></use>
  <use class="regular" href="#-posters-1650742812460-regular" fill="url(#-posters-1650742812460-regular-gradient" filter="url(#regular-filter)"></use>
  <use class="bold" href="#-posters-1650742812460-bold" fill="url(#-posters-1650742812460-bold-gradient" filter="url(#bold-filter)"></use>
  <use class="emboss" tabindex="-1" href="#-posters-1650742812460-light" fill="url(#-posters-1650742812460-light-gradient" filter="url(#emboss)"></use>
  <use class="emboss" tabindex="-1" fill="url(#-posters-1650742812460-regular-gradient" href="#-posters-1650742812460-regular" filter="url(#emboss)"></use>
  <use class="emboss" tabindex="-1" fill="url(#-posters-1650742812460-bold-gradient" href="#-posters-1650742812460-bold" filter="url(#emboss)"></use>
  <defs>
    <g class="gradients">
      <radialGradient gradientUnits="userSpaceOnUse">
        <stop itemprop="radial" stop-color="hsla(214, 4%, 67%, 1.00)" offset="0%"></stop>
        <stop itemprop="radial" stop-color="hsla(210, 1%, 58%, 1.00)" offset="15%"></stop>
        <stop itemprop="radial" stop-color="hsla(0, 1%, 49%, 1.00)" offset="30%"></stop>
        <stop itemprop="radial" stop-color="hsla(16, 6%, 39%, 1.00)" offset="45%"></stop>
        <stop itemprop="radial" stop-color="hsla(9, 8%, 33%, 1.00)" offset="60%"></stop>
        <stop itemprop="radial" stop-color="hsla(0, 8%, 32%, 1.00)" offset="75%"></stop>
        <stop itemprop="radial" stop-color="hsla(355, 7%, 35%, 1.00)" offset="90%"></stop>
      </radialGradient>
      <linearGradient gradientUnits="userSpaceOnUse" x1="0" x2="0" y1="0" y2="100%">
        <stop itemprop="vertical" stop-color="hsla(212, 4%, 67%, 0.78)" offset="0%"></stop>
        <stop itemprop="vertical" stop-color="hsla(204, 2%, 58%, 0.78)" offset="15%"></stop>
        <stop itemprop="vertical" stop-color="hsla(0, 1%, 49%, 0.78)" offset="30%"></stop>
        <stop itemprop="vertical" stop-color="hsla(16, 6%, 39%, 0.78)" offset="45%"></stop>
        <stop itemprop="vertical" stop-color="hsla(9, 8%, 33%, 0.78)" offset="60%"></stop>
        <stop itemprop="vertical" stop-color="hsla(0, 8%, 32%, 0.78)" offset="75%"></stop>
        <stop itemprop="vertical" stop-color="hsla(355, 7%, 35%, 0.78)" offset="90%"></stop>
      </linearGradient>
      <linearGradient gradientUnits="userSpaceOnUse" x1="0" x2="100%" y1="0" y2="0">
        <stop itemprop="horizontal" stop-color="hsla(212, 4%, 67%, 1.00)" offset="0%"></stop>
        <stop itemprop="horizontal" stop-color="hsla(210, 1%, 54%, 1.00)" offset="15%"></stop>
        <stop itemprop="horizontal" stop-color="hsla(15, 4%, 42%, 1.00)" offset="30%"></stop>
        <stop itemprop="horizontal" stop-color="hsla(13, 8%, 33%, 1.00)" offset="45%"></stop>
        <stop itemprop="horizontal" stop-color="hsla(4, 8%, 33%, 1.00)" offset="60%"></stop>
        <stop itemprop="horizontal" stop-color="hsla(355, 7%, 38%, 1.00)" offset="75%"></stop>
        <stop itemprop="horizontal" stop-color="hsla(280, 2%, 54%, 1.00)" offset="90%"></stop>
      </linearGradient>
    </g>
    <g class="generated gradients">
      <radialGradient id="-posters-1650742812460-background-gradient" gradientUnits="userSpaceOnUse">
        <stop stop-color="hsla(214, 4%, 80%, 1)" offset="0%"></stop>
        <stop stop-color="hsla(210, 1%, 80%, 1)" offset="15%"></stop>
        <stop stop-color="hsla(0, 1%, 80%, 1)" offset="30%"></stop>
        <stop stop-color="hsla(16, 6%, 80%, 1)" offset="45%"></stop>
        <stop stop-color="hsla(9, 8%, 80%, 1)" offset="60%"></stop>
        <stop stop-color="hsla(0, 8%, 80%, 1)" offset="75%"></stop>
        <stop stop-color="hsla(355, 7%, 80%, 1)" offset="90%"></stop>
      </radialGradient>
      <linearGradient id="-posters-1650742812460-light-gradient" gradientUnits="userSpaceOnUse" x1="0%" x2="0" y1="0" y2="100%">
        <stop stop-color="hsla(212, 4%, 60%, 0.9)" offset="0%"></stop>
        <stop stop-color="hsla(204, 2%, 60%, 0.9)" offset="15%"></stop>
        <stop stop-color="hsla(0, 1%, 60%, 0.9)" offset="30%"></stop>
        <stop stop-color="hsla(16, 6%, 60%, 0.9)" offset="45%"></stop>
        <stop stop-color="hsla(9, 8%, 60%, 0.9)" offset="60%"></stop>
        <stop stop-color="hsla(0, 8%, 60%, 0.9)" offset="75%"></stop>
        <stop stop-color="hsla(355, 7%, 60%, 0.9)" offset="90%"></stop>
      </linearGradient>
      <linearGradient id="-posters-1650742812460-regular-gradient" gradientUnits="userSpaceOnUse" x1="0" x2="100%" y1="0" y2="0">
        <stop stop-color="hsla(212, 4%, 50%, 1)" offset="0%"></stop>
        <stop stop-color="hsla(210, 1%, 50%, 1)" offset="15%"></stop>
        <stop stop-color="hsla(15, 4%, 50%, 1)" offset="30%"></stop>
        <stop stop-color="hsla(13, 8%, 50%, 1)" offset="45%"></stop>
        <stop stop-color="hsla(4, 8%, 50%, 1)" offset="60%"></stop>
        <stop stop-color="hsla(355, 7%, 50%, 1)" offset="75%"></stop>
        <stop stop-color="hsla(280, 2%, 50%, 1)" offset="90%"></stop>
      </linearGradient>
      <linearGradient id="-posters-1650742812460-bold-gradient" gradientUnits="userSpaceOnUse" x1="0" x2="100%" y1="0" y2="0">
        <stop stop-color="hsla(212, 10%, 8%, 1)" offset="0%"></stop>
        <stop stop-color="hsla(204, 10%, 8%, 1)" offset="15%"></stop>
        <stop stop-color="hsla(0, 10%, 8%, 1)" offset="30%"></stop>
        <stop stop-color="hsla(16, 10%, 8%, 1)" offset="45%"></stop>
        <stop stop-color="hsla(9, 10%, 8%, 1)" offset="60%"></stop>
        <stop stop-color="hsla(0, 10%, 8%, 1)" offset="75%"></stop>
        <stop stop-color="hsla(355, 10%, 8%, 1)" offset="90%"></stop>
      </linearGradient>
    </g>
  </defs>
  <defs>
    <filter id="light-filter">
      <feColorMatrix in="SourceGraphic" type="matrix" values="1.5 0 0 0 0
                0 1.5 0 0 0
                0 0 1.5 0 0
                0 0 0 1.5 0"></feColorMatrix>
    </filter>
    <filter id="regular-filter">
      <feColorMatrix in="SourceGraphic" type="matrix" values="1.5 0 0 0 0
                0 1.5 0 0 0
                0 0 1.5 0 0
                0 0 0 1 0"></feColorMatrix>
    </filter>
    <filter id="bold-filter">
      <feColorMatrix in="SourceGraphic" type="matrix" values="1 0 0 0 0
                0 1 0 0 0
                0 0 1 0 0
                0 0 0 1 0"></feColorMatrix>
    </filter>
    <filter id="emboss">
      <feConvolveMatrix kernelMatrix="1 0 0
                      0 0 0
                      0 0 -1"></feConvolveMatrix>
    </filter>
  </defs>
</svg>
