<svg id="-posters-1650742963857" itemscope="" itemtype="/posters" itemid="/+/posters/1650742963857" viewBox="0 0 746 512" preserveAspectRatio="xMidYMid slice" tabindex="0" xmlns="http://www.w3.org/2000/svg">
  <defs>
    <symbol id="-posters-1650742963857-background">
      <rect itemprop="background" width="100%" height="100%" tabindex="-1"></rect>
    </symbol>
    <symbol id="-posters-1650742963857-light">
      <path d="M4 1l3 7-1 3c-2 2-2 3-1 14 0 13 0 15 2 13l3-1c3 0 2-2 0-2l-3-2c0-2 0-2 2-1 5 2 6 1 2-1l-3-3 3-2c3-1 3-1 1-3-2-1-1-2 3-3l-2-3-1-2c2-2 1-5-1-7L9 3c0-3-4-4-5-2m359 2l-6 3c-4 0-6 1-4 2l-4 1c-4 1-5 2-5 3 1 1 1 1 0 0l-1 2 2 7c0 4 1 6 2 7 2 1 13 0 13-2l3 2c3 2 6 2 7-1l3-1v-1l-2-3-1-1v-1c2-1 2-3-1-3-2 0-2-7 0-9l4-5 2-3h-5c-3 0-5 1-7 3m64 0c0 4 1 4 3 1 2-2 3-2 8-1 4 1 5 1 8-1l2-2h-21v3m252-2h-5c-5 0-7 1-3 3h4c2-1 6-1 5 1l4 1c5 0 6-2 0-3l-4-2h-1M489 5v2h-1c-4-3-6 0-4 3 1 1 2 3 1 4l1 3 1 2 1 3c4 5 4 7 3 9-1 1-1 2 1 3l6 5 3 2-4-1c-6-4-7 1-1 5 4 3 7 6 5 6l-2-2c-1-2-4-2-3 0 1 3-1 8-3 6h-1l-1-1h-12l-3 5-1 4 1 1c1 1 0 1-1 1-2 0-3 2-1 4l2 4c1 3 1 4 3 4l3 1 1 3 1 2 2 2 1 2c-1 3 1 12 3 12l2-2c0-3 0-3 1-1l2 2c2 0 1 3-2 4-2 0-4 1-4 3l-2 3c-3 1-2 3 2 3s3 2-2 5l-4 2c-1 1 3 2 6 2 4 0 10-5 10-7l2-1v1c-2 1 5 11 9 12v1l-6 2-5 2-10 3-15 4-10 1h-6l-4-1-11 1-12 2-5 1h-13c-3-1-6 0-12 3l-3 1-5 4a7 7 0 01-6 3l-1 2c-1 1-1-1 1-6l1-6v-6l-1 1-7 3h-2c-2 1-2 2-2 3h4v3l-1 3v1l-3-4-3-5-1-3-1-1-1-1c0-2-4-6-10-10-4-2-4-4 0-2h2l1-3 1 1c-1 2 1 4 2 2l1-4 1-2 1 3v3c1 0 2-2 2-6l1-6v14l2-4 2-4 1-2h-1l1-11 2-3c3 0 7-7 9-14l3-9a5 5 0 000-8c0-2-1-2-3 0-2 1-2 1-2-1 0-4-5-3-9 1l-5 3c-2 0-8 4-9 6 0 1-1 4-3 5l-3 5c-1 1-1 1-1-1 0-3-2-3-6-1l-10 5c-8 3-17 10-15 11v2l-1 4c1 1 1 1 2-1l2-3-1 2c0 4 1 3 4-1 2-4 3-4 0 1v4a17 17 0 006-7l-1 4c-2 3-2 3 0 3s5-3 5-5l1-1 1-2c0-1 2-3 5-4l5-5 2-3-1 3c-2 3 0 4 2 1 2-2 3-2 4-1v2h3l-2 2-2 3 11-6v1l-2 5-2 3c-1 1-1 0-1-1l-1-3-5 4-3 1-6 2h-1l-1-2c-1-1-6 2-6 3l-2 3c-3 2-3 3 0 2 2-1 1 0-1 2-4 4-3 5 3 1 5-3 6-4 6-2l-2 1c-2 1-5 3-11 10l-6 14h3l4 1-1 1c-3 0-2 2 1 2h8l-2-1c-2 1-4-1-5-3l-2-2c-4 0 0-10 4-12 6-2 19 0 24 6l4 3 2 3 1 2 6 13c1 4-2 20-6 26l-1 5-1 5-2 5-1 2c-1 0-2 1-2 3l-1 4-1 4 1 4 1-5c0-1 0-2 1-1 1 2 2 1 2-3 0-3 0-4 1-3h1l2-2c2 0 2-1 3-11a46 46 0 0112-24c1-3 3-4 4-4l2-1 1-3 2-2c1-2 1-2 2-1h2l3-2 6-2c3-2 4-2 5-1h3l4-2h3l-3 3c-6 4-5 6 1 2l5-2c2 0 2 0-1 2l-3 3 6-2c6-3 7-4 5-2-1 2 0 3 1 2l5-1-3 2c-2 0-3 2-2 2h6l7-2 6-2c0 1-3 3-7 3-3 1-4 3-2 3l-3 2c-5 3-5 3-3 3l16-5h1l-7 4c-6 2-11 5-6 4l6-2h3l-3 1c-2 1-5 2-6 4l-4 2v-3l-5 2-3 2c-2 0-7 4-5 4l7-3c0-2 3-2 5-1v3c-1 1-1 1 2 1 4-1 4 0 0 2-2 2-2 2-1 3l10-3c0-2 6-7 7-8 2 0 2 2 1 7l1 1 3-6 2-5c0 3 2 2 4-2 2-5 3-6 2-2v3l2-3 5-6c1-3 5-6 5-4l-2 2-4 6c-3 6-4 7-1 5 2-2 1-1-2 5l-3 5 8-9c4-6 9-10 7-6h2c2-1 2-1-1 2l-3 4 2-1 2-1v1l-1 3-4 4-3 4c1 1-1 3-3 5l-3 4-3 4c-2 3-2 3 0 3l-3 5c-4 3-4 4-3 5s1 1-2 4c-4 4-3 5 1 1 3-2 7-7 4-5-1 0 0-2 3-5l4-6 5-6 5-6 3-4 2-3 7-6c10-7 16-14 16-16-1-1 1-3 5-5a11 11 0 007-8v1l3 3 4 3 4 1 3-1-4-1-3-2-2-1-2-3c0-4-6-7-10-5-2 1-2 1-1-1v-3l-1-2-1-1-1-1c1-1 0-2-1-2l-1-2c1-1 0-2-1-3l-4-9-4-9v-3c2-2 2-7 0-11l2 2 4 4v-5l-2-6-1-4c0-2 0-2 2-1 2 3 3 0 1-5l-1-9 2 5c0 4 4 9 5 6l-1-4c-2-1-2-2-1-3l1-3c-2-8-2-12 1-8v-3c-1-2-1-2 0 0l3 3 1 3 1 2v-2l1-3 1 2v4l1-1 1-2h1l2-3c1-2 1-2 0 0 0 3 0 3 2 3 3 0 3 1 2 5-1 3 0 4 1 4l2-4 2-6v-6l-1-4c1-1 1 0 2 2 1 4 2 4 2-1-1-3-1-3 1 1l2 4c1 0 2 1 2 3l3 3 1 3c0 5 1 7 2 6l1 5v6c3 2 3 1 3-5-2-11-2-12-4-11l-1-2c1-1 0-3-1-5l-2-6c0-2 1-1 3 3 2 5 6 9 5 4l-3-7-2-6c-1-2-1-2 1-2 1 0 2 1 4 8l5 10 1 7 2 8v4l2-3V63l-2-2-1-4c-3-6-4-9-4-14-1-6 1-5 3 2 1 6 5 15 6 15l-1-3-1-7-2-8 1-2 2 4 2 9a11 11 0 010 11v3c-1 3-2 13 0 13l2-4 2-3c1 2 0 7-1 6v6c0 4 1 4 2 0 3-5 8-5 6 0 0 2 0 2-2 0-1-1-1-1-2 1-1 4 1 8 3 5s4-3 7-1c1 2 2 2 3 1s2 0 5 2c2 2 2 3 1 3-2 0-4 5-3 6l-1 1v2l-1 2v3l-1 2c-1 0-2 5-1 7 0 3 3 2 5 0v-2l2-1c3 0 3 0 1 2l-1 1c2 0-2 3-4 4-3 1-4 4-2 4v2l2-1 3-2c2-1 2-2 2-3-1-1 0-2 1-2l2-1a5 5 0 00-3-6l1-1c2 0 7-4 7-5h-7l-1 2-1 1-1-2c0-2 1-3 3-3l2-1-1-2-2-2a2 2 0 013-1c-2 1-1 2 1 2l3-1c1 0-1-4-3-4l-1-1 2-1 2-1h2c2 2 4 1 5-3 0-2 1-3 3-3l3-1h2l4 1c5-1 10 0 7 1h-5c-3 0-7 2-6 5l1 2 1 1c0 2 3 5 5 5 3 0 6 2 7 5l3 5c1 1 1 2-1 5l-3 5-1 11-1-13c0-12 0-15-2-15v15c0 16-2 15-2-2-1-12-2-15-6-16-3 0-7 4-7 7 0 2 6 9 8 9l4 12c0 7 1 9 3 9 3-1 6-7 6-13l3-8 2-2c0-1 2-4 5-6 3-4 5-6 4-7v-4c0-2-10-11-12-11l-1 2-1 1v-3c0-2-1-3-6-3l-3-1c0-1-2-1-9 1h-6l-6 2c-3 2-4 2-3 0a23 23 0 00-1-13c0-7-7-18-13-22a6 6 0 01-4-4c-6-5-9-8-11-8l-4-2-4-1h-4l-6-1c-6 0-7 0-12-6l-5-3-3-2-3-2-7-4-7-5-1-2-5-3-8-3c-4-2-5-2-7-1m-63 5l-2 5c0 3 1 4 3 2 1-2 4-1 4 1l1 3v-3l1-2-2-2-2-4h-3m67 0l2 2 6 8c3 8 5 9 9 9l3 2c0 3 1 4 1 1l1-2c3 1 3-1 1-2h-1c0 2-2 1-3-1v-3l-2-2h-4l-2-1-2-2-1-2-2-4-3-3h-3m-387 2l2 6a37 37 0 012 14c1 1-6 1-9-1-6-3-8-1-4 3l3 4h1c3-1 13 15 10 17l-1 2c-1 4-4 4-6 2l-4-3-1-1-2-1-6-2c-5-3-14-3-17 0-1 2-1 2 3 3 5 1 5 1 3 3l-2 2h2c2 0 2 0 1 1-2 2-1 3 1 3l-1 1c-3 2-2 4 1 2s5 0 2 2l-2 2h3c6-2 16-3 17-2v1c-2 0-1 2 1 2 6 0 17 7 14 8h-1v-1c-3 0-4-1-8-3-5-2-6-2-6-1l3 2c5 2 16 14 16 16l-1 2-3-4c-4-8-13-14-22-16l-4 1 2 1c3 0 12 5 15 8s3 5-1 2c-6-5-7-3-2 2 5 6 8 16 7 27-1 4-2 0-2-6 0-9-3-17-9-21-4-4-5-3-1 2 3 3 5 7 5 9l-1-1-2-3 1 6 1 2c0 2-1 0-3-4-2-6-6-12-9-12-2 0-1 1 1 4 5 4 9 17 7 23-1 2-1 2-1-3l-1-10c-2-4-2-4-2-2v4l-1-2c0-3-4-11-5-11v3l3 12c0 8-9 20-17 23-5 2-6 3-2 3s3 2-2 3l-2 2 2 1 5-2 5-2 2-1c0 1-3 5-5 5l-1 1-2 2c-2 0-2 1-1 1 3 2 13-5 13-9l2-3c1 0 1 4-1 7-1 3-10 8-13 8-6 0-9 2-5 2 13 0 26-10 23-17-1-2-1-3 2-7 3-6 4-6 1 0-2 2-2 4-1 9 0 5 0 6-4 10a12 12 0 01-5 4c0 2 3 3 5 3 4-1 5 2 2 3-2 1-2 1 0 0l4-1 2-1a20 20 0 009-14c0-3 0-3 1-1 2 4-3 16-8 18-3 0-3 2 0 2l2-1 2-2c6-2 9-13 6-20-2-5-2-6 1-2 3 8 0 21-6 25-3 2-4 5-2 5 5 0 14-15 13-22-1-4 2-4 3 0 0 3 2 4 2 1s-5-12-7-12v2c2 3 2 5 1 5l-2-4c-3-5-5-8-6-6h-2l-1-2c2-2 16-6 19-6 2 0 2 0 0 1-6 1-13 5-13 6h2c2-1 5 1 3 2v1c3 0 12 5 12 7l1 2v-2l3 4c3 5 3 11 0 17-2 3-2 6-1 4 5-6 7-9 6-14 0-4 0-5 1-4 2 0 2 5 0 12-1 5-1 5 1 4h6c4 1 6 1 5-1l-6-1-4-1c0-2 9 0 15 3l2-1v-2c2 0 1-2-2-3l-1-1c5 1 5 1 5-1s-1-3-3-4l-3-2 3 1c3 0 4-1 2-2v-1l1-1 3-2 4-3h4c2 0 1 1-2 2-4 1-4 1-2 2l5-1 5-1c1 1 1 1-3 2-2 1-4 1-3 2v1h-3c-2-1-3-1-4 1-2 1-2 1 0 1h12l6-2c3 0 2 1-3 3l-3 1 4 1 5 1c7-1 16 1 15 3a1 1 0 102 0l4-1 4-1 2-2c2 0 3 4 1 4v2c0 2 0 2-2 2l-6 1 2 1 2 1 2 2 4 1h-7a44 44 0 0025 1c8 2 11-5 4-9l-18-8 3-1c5-1 8-3 6-4-1-1-8 0-7 1l2 1h-3l-4 1-2-1c-4-3-8-8-7-8 1-1 5 2 5 4 0 1 6 2 7 1l11-1c11-1 11-1 5-3l-4-2h2v-1c-3-2-8-3-6-1l-2 1-2-1c0-2 5-3 7-2l4 1c1 0 2 0 1-1l6-1 4 1-1 1 2 1h-7c3 3 17 5 28 4h8v12l1 11c1 4 0 7-4 13-2 2-2 8-1 8l1-2v-3l5-6 2 2c1 5 2 0 0-5l-1-16-1-11c-1-1 6-15 8-18 2-2 7 4 7 11 0 3 1 4 2 4s6 13 6 16l-2-4c-3-5-9-13-11-12-1 1 2 5 4 5l1 1 1 2c2 2 5 11 5 16 0 4 2 6 4 5 3-1 5-5 5-11 0-5 2-4 3 3l-1 4c-1-1-1 0-1 2l-1 3-1 2-1 2v13c3 3 4 3 4 0v-3a24 24 0 011-15l1-4 1-5v-2c2 4 5 5 13 2h12l-4-3c-3-1-3-1 5-1 8-1 13-3 11-4l-30 5c-5 1-3-1 2-3l4-2 1-1 2-2c1-2 1-2-1 0-3 3-4 3-4 0s-2-2-3 1l-1 1h-2c0 3-3 4-4 3h-2v-2l-1-2v-2l2-3 1-2c2-1 2-3-1-2l-1-2-1 1v3l-2 4c-2 3-4 10-3 12l-2 7-1-8-3-13c-2-5-3-9-1-6l3 2 3 1-1 1-2 1 2 1 1 2c-2 3 0 4 2 2v-5c-1-2-1-2 1-4v-1c-3 1-7-1-7-4l-1-3c-1-1-2-2-1-6 0-4-1-6-2-7-3-3-2-5 2-5 6-1 6-3 1-3-6 1-18 11-18 16 0 2-3 5-5 4l-2 1c0 1-3 1-6-1l-2 1h-10l-8-1h-4l-4-2h-1l-1-1h3c4 2 22 2 22 1l2-2c4 0 1-2-6-4a30 30 0 01-11-7h1c7 1 4-2-6-7l-11-7-6-4-5-4-6-4-6-3c-3-3-10-5-10-4l3 3c6 3 7 7 1 5l-5-2c-3 0-3-1-2-3 2-3 0-6-5-6l-5-1c-2 0-3 1 0 2a1 1 0 11-1 2l-1 2h-1v-2c0-3-4-7-7-7-4 0-4 1-1 3l2 3 1 1v9a3 3 0 01-1-5v-2l-2-3-1-1-3-4c-3-3-26-2-33 1l-5 1c-2 0-3 1-3 2l-1 1c-2-2-1-3 3-7 5-5 8-13 8-20 0-3 0-4 1-3 0 3 2 1 2-3 0-8-9-21-15-21h-4l-3-2h-2l-1-1-1-1c-1 0-2-1-2-3-1-4-3-5-7-5-3 0-3 0-2 2m606 5l-4 3c-5 2-5 5-2 4 3 0 3 0 3 4a11 11 0 01-2 4v-1l-3-5c-3-3-8-5-10-3-1 2 2 4 4 4 2-1 2 2 1 4l-1 2-3 4-2 3h2c3 0 4-2 6-5l2-4 3 6c3 5 6 8 5 4-1-2 0-5 2-4l1 3c0 5 6 5 8 0v-9c1-1 0-3-2-3-2 1-2 0-2-3 0-4-1-4-2-4l-2-2-1-3-1 1m-599 2l2 4 4 18c0 2 1 3 3 4 5 2 5 4 3 10-2 4-3 5-7 2-4-1-4-1-4 1v6l1 2c-1 2-1 2 2-1l3-2v3l1 2c0-2 1-2 2-2l2-1 2-1v-1c0-2 0-2 1-1 2 2 2 2 2-1l1-3c2-2 1-4-1-5h-2l2-1c2 0 2-1 1-4-1-6-4-13-6-14l-3-5-2-3v6l-4-9-3-5v1m203 6c-7 1-8 3-2 4 4 0 5 1 3 4l-4 1c-2-1-9 2-9 3 0 3 2 3 5 1 2-1 3-2 4-1h3l6-1c4 0 7-1 5-2l-4-1c-3 0-3 0-2-2v-3c-1-1-1-1 1-1 3 0 4-1 2-2h-8m-119 1l-4 1c-4 0-5 1-3 2 2 2 2 2-1 3s-3 3 0 3c2 0 3 2 1 2-3 1-2 3 1 3h1c-3 2-2 4 1 2s3-1 3 2l-2 3c-2 0-3 2-1 4h8a4 4 0 107-6l1-2v-1l-3-1c-3-1-2-3 2-4l4-2-2-1c-3 1-6 0-7-1v-1c3 0 4 0 4-2l-2-1h-3l2-1 3-2h-10m-36 3v2l-3 1c-3 0-5 1-3 2 2 2 1 3-1 3l-2 2 3 1 4-1-4 2c-3 2-4 4-1 3h3l2 1a2 2 0 011 3l-1 2v1l-2 1c0 3 2 4 3 2h1a1 1 0 003 0h5v3c2 2 4 0 5-4l-3-8c-3-2 1-3 3-2 3 1 7 1 6-1l-3-1-2-1-2-2-2-1h2c3 1 3-2 1-3-2 0-2-1-2-2l-3-1-4-2h-4m468 4c-1 2-5 5-7 4v-1l-3-3-1 2-4 5c-3 2-3 3 1 3l4-1-4 3-4 3-1 1h3c2-2 4-1 2 1v3c1 0 2 1 1 2 0 1 2 4 4 4v-2c-1-1-1-2 1-2 2-1 3-1 3 1l2 2h4c4 3 7 2 8 0v-9c2-2 2-2 0-3-3-1-3-1-3-5 0-3 0-3-3-3s-3 0-2-2c2-2 3-4 1-4l-2 1m-268 4l-3 2c-3-2-6 0-6 3 1 3-1 5-3 4l1-1 1-3c0-3 0-3-4-3-3 0-3 1-2 3l1 10 1 7c1 1 7 1 13-1h5c2 2 6 1 6-1v-6c-2-1-1-3 1-3 1-1 1-1-1-2-3-1-4-4-1-5l-1-2c0-1-2-2-3-1l-1-2c1-3-3-3-4 1m308 1l-4 4c-3 1-4 2-4 4l-2 2c-3 0-3-1 0-4l2-3c-1-3-3-2-3 0l-5 5c-4 4-4 5 0 4l3-1v6c-1 6 1 8 2 2 0-3 1-3 2-2v2c-2 0-1 3 1 5l2 3 1-3c0-2 4-2 7 1 2 3 6 3 7 0 2-5 1-8-3-10l-2-1 3 1c4 0 5-2 1-3l-1-5c1-4 1-4-2-4-1 0-2 0-1-1 2-1 1-3-1-3l-3 1M70 46c-21 4-33 23-25 40v12c-2 1-2 3-2 9l-1 9c-3 3-5 9-4 11 0 3 17 20 19 20s1-2-1-2v-3c0-2 0-2-1-1l-1-1h2c2 1 7-2 9-4l3-4 1-2 2-1c4 0 13-8 16-15 4-10 2-23-5-28-2-1-2-1-1 1 6 6 7 17 4 25-1 3-1 3-2 1-1-1-1-1-3 2-2 4-8 9-11 10-4 1-4 0 1-2 7-4 12-11 13-19 0-6-1-7-2-1-1 8-9 17-18 21-7 2-7 1-1-1 8-4 13-7 15-12 3-5 2-6-1-2a21 21 0 01-8 7l8-10c0-2-2-1-3 2-2 3-9 8-11 8l1-1 4-6 2-4c-2 3-9 7-11 7s-1-1 1-2c3-1 8-6 6-6l-1 1a4 4 0 01-5 2l2-1 1-2h-1c-1 0-1-1 1-2l2-2-3 1c-2 1-2 1-1-1l1-4c2-2 0-2-2 0s-6 3-6 2c0-2 5-10 7-12 6-4 10-9 10-10 0-2-2-1-8 4-5 6-9 7-4 2l1-2-5 1c-3 0-4 1-4 6 0 6 1 6 4 2l2-2-2 4-3 5-1 2v2l-1 2-1 1c-2-1-2-2 0-7V86c-2-5-2-6-1-6s2-1 1-6c0-7 3-14 9-18l6-3 3-1c5-5 17-5 29 0 13 4 15 4 4-2-12-5-20-7-29-4m246 0v1c-1 3-2 3-4 1s-5-2-4 1c1 1 0 1-1 1a10 10 0 00-1 13c0 4 2 6 4 5s3-2 4-1c2 2 3 1 3-1v-2l1 1c0 2 2 3 3 2h3c2 1 4-1 2-3-2-1-9-3-11-2l-2-1 7-1c6 1 8-1 4-3l-2-1h2c3 0 2-2-1-3h-7c-5 0-5 0-2-1h6l4-1c0-2-1-2-4-2-1 0-2 0-1-2l-1-2-2 1m94 3l1 3 2 3c1 1 1 1-1 1s-3 1-1 3c2 1 5-3 5-7 0-3 0-4-3-4-4 0-4 0-3 1m122 8c-2 3-1 5 1 3s5 4 6 14 2 12 3 8c1-2 0-5-1-7-1-4-1-5 1-3 1 2 1 2 1-1 0-4-2-10-3-10-1 1-5-2-5-3 0-3-2-3-3-1M70 57l1 2c3 2-7 9-12 8-4-1-9 2-9 6 0 2 4 7 5 6l-1-2c-3-4 0-8 5-8l7-1c5-2 11-11 8-11l-2-1-2 1m-7 1c-5 1-7 6-3 7 2 1 9-2 9-5s-1-3-6-2m488 1c-1 1 1 16 2 18 2 3 3 1 3-8-1-8-3-15-3-9h-1l-1-1m156 2v1l-4 1c-7 0-7 0-6 2v2c-1 1-1 4 1 5s0 4-4 5l-2 2c1 2 5 1 6-1 1-1 2-1 3 2s1 3 2 2c2-3 5-3 5-1 1 1 1 2 4 1l3 1c2 4 8-1 7-5v-4l-2-5-1-4v-2c0-2-3-4-5-2-1 2-1 2-2 1-1-2-5-3-5-1m-297 5l-4 3-1 1-1 2v3c2 2 2 11-1 14l-2 4c1 2 2 1 3-2 1-2 2-3 4-3l5-1 3-1 3-3 4-3v-1l-1-3-1-3-1-2 1-4c0-4-8-4-11-1m73 0v3l1 1c-1 1 0 3 1 4v3l4 1 1 1v1l1-1c1-1-2-5-4-5a2 2 0 011-4l3 2-1-2c-5-5-6-5-7-4m51 0l-1 2c0 2 0 2-1 1-2-3-3-1-2 3l2 5c0 3 1 5 2 5v-2c0-4 1-7 2-5 1 1 1 1 1-2 0-4-2-9-3-7m-7 7l1 4v4h-2l-1-4-2-4v9c1 2 1 2 3 1 1-1 1-1 1 1l2 5v-1l1-3c3 0 2-4 0-8a9 9 0 01-1-6l-2 2m-142 4l-3 3-5 12 1 3c1 1 2 0 4-3l4-7-1 1-1 2c-2 1-2 1 0-5 0-3 2-5 2-4l4-3c0-1-2-1-5 1m-233 2c1 2-2 8-4 8l-2-3c-2-4-3-5-3-2-1 1 0 2 1 2 2 1 1 5-1 7-3 3-1 3 2 0l4-2 3-3c2-3 6-4 6-2l3 1c2 0 2 0 0-1l-2-2-1-1-4-3-2-2v3m33 3l-2 3c-1 1 0 2 4 4 8 3 11 0 6-6l-2-1c1 2 0 6-2 6s-3-2-2-3v-3h-2M5 86c-1 4 0 13 2 13l2-3c1-3 1-6-1-4l-1-2-2-4m194 1l-2 4c-2 2-3 2-2 5 2 4 7 2 10-4 2-1 3-3 4-2 1 0 5-3 4-4l-2 1c-1 1-5 2-7 0h-5m-28 3c-5 1-12 5-19 9-17 9-25 13-31 12l-2-1 2 2 4 2 4 1 9 2-3-2-3-1h4l3 1 4 3c4 2 4 2 3 0h1c3 2 2 0-1-3s-3-4-1-3l4 3 3 2c2-1 3 5 2 8s-1 3 1 3c2-1 2-7 1-11-2-3 1-3 2 1 3 4 2 8 0 10s-2 2-1 4c4 3 8-11 5-15l-1-2 2 1 2 2c2 0 2 0 1 1v3h1c0-2 0-2 2 0v-4l-2-4h1l2 3 2 3 2 2v-2c0-3 0-3 5-4 6-1 20 4 20 7l-5-1c-6-4-18-5-18-2 0 1 1 2 8 2 8 0 14 2 15 6 1 3 4 4 6 3 3-2 11 0 8 1-1 2 0 2 7 2l12 2c2 0 2 0 1-1l-8-2-9-2-5-2c-4 0-1-2 3-2 6 0 6-3-1-3-2 0-3 0-3-2l2-1h6c2 0 2 0-1-1l-4-1 3-1 3-2h-8c-7 1-10-1-3-1 4-1 4-1-1-1-7 0-9-2-3-2 3 0 4 0 3-1l-5-1-1-1-1-1-3-1c-3-2-1-4 4-3h5l-3-1-3-2h2l4-1-8 1h-4c-3-1-3-1-2 1 2 0 2 1 1 1v2h-1v2c3 2 2 3-3 0l-5-1h-5l-3-1h7a4 4 0 002-2h-1l2-1c1-1-2-1-6-1h-6l3-1 3-1c0-1-2-1-7 1l-2-1 4-1 3-2c-1-1 5-3 9-2 2 0 2 0 1-1l-5-1c-2 0-2 0 0-1h3v-1c-3-1-11-2-15 0m207 16c-1 3-1 4 1 3v2c-2 2-3 5-1 4v5l-1 2c-2 2-2 8-1 8l6-7-2-1 1-3v-2h-1l1-5 1-3c2-4 2-7 0-4h-1c0-3-2-2-3 1m-74-1l3 2c2 0 6 5 7 9s3 3 3-1v-3h-1l-1-2-1-2-3-1c-1-2-7-3-7-2m396 1c0 2-1 4-4 6-3 3-3 6 0 3 3-2 4 0 3 3-1 8 0 12 3 8s4-4 4-1c0 2 1 2 2 2l3 1c3 2 14 2 15 0l-1-2v-1c1 0 1-9-1-10v-3l-1-4-2-1c0-3-3-3-4-1l-2 1h-9c-2 1-2 1-1 2 2 2 2 2 0 2s-2 0-2 5v6l-1-6v-6c2-2 1-5 0-5-2-1-2 0-2 1m-518 4l5 1 9 4h-3c-2 0-3 0-2 1l4 2c4 3 5 2 3-3-2-2-3-4-6-5h-10m45 5l4 1c4 0 6 1 4 2-1 1 0 1 1 1l3-1c-1-1 1-2 5-2 2 0 2 0 1-2-3-1-18-1-18 1m425 1c-2 2-1 4 1 4l2-1-2 5-2 3v-3c0-6-3-5-8 2a26 26 0 01-8 8c0 2-5 4-7 3-1-1-4 1-9 6-2 1-3 2-4 1l-3 1-2 2a32 32 0 00-12 13c-2 0-6 4-6 7l-1 3c-2 1-1 8 2 12 4 4 14 9 19 9l4 1c1 1 15 2 23 0 6 0 7-2 5-5v-2l4 1 1 2v4l1 2c-1 1 0 2 1 3 3 2 4 1 4-2 0-2 0-2-2-2-1 1-1 1 0 0 1-2 0-7-1-7l-1-2c1-3-1-7-3-7-1 1-1 0-1-1 0-3-2-5-4-4-3 0-3-3-1-5s2-2 3 0c2 1 2 1 3-3l2-4-1 9c-2 4 1 2 3-2 2-5 4-5 2 0s-2 8-1 8l2-2c0-2 2-3 3-3l-1 4v3c2 0 5-5 6-9l1-4v-4l-2-2-1-1v-8c1-2 2-3 3-2v3c-2 2-2 3-1 3l1 3 1 2c1 0 5 7 3 8l-1 4-1 3c-2-1-3 4-1 5h1l2-1 1-3a7 7 0 015-9c-1 4 3 5 4 2 1-2 1-3-1-5-1-2-2-2-2-1h-1l-2-1-3-1c0-2 0-4-1-3v-2c0-3-1-4-3-2l2-3v-3c-2-1-2-2-1-3v-2l-3 2c0 2 0 2-1 1s-1-1-3 1c-3 2-5 2-4-1h2l1-1 1-1c4 1 8-8 5-9h-1l-2 3c-3 2-2-1 1-3 1-1 2-3 1-4l1-1 3-8c1-4 1-4-1-4h-14m-48 1v5c-1-1-2 5 0 6 2 2 3 0 2-3l1-2v-5c-1-2-3-3-3-1m-477 4c-7 1-7 2-5 4 2 1 3 1 3-1-1-1 2-2 4-1h3l7-2h6l-4-1c-6-1-8-1-14 1m51 4l-1 4-2 3v1l1-1h4c3 0 3 0 2-1-3-2-2-2 3-1 3 1 4-1 1-2-1-1 0-1 2-1 4 1 4 0-1-1-8-2-9-2-9-1m202 4c-4 5-5 7-3 6 2-2 1 0-1 3l-1 2c1 1 5-4 5-6l1-2 3-7-4 4m207-1l-1 3-1 1c-1 1-1 1 1 2 3 1 1 2-3 1-2 0-2 0-1 1l2 3c0 2 3 1 5-1s3-4 1-4v-3c4-4 0-6-3-3m-334 0c3 3 21 5 19 2l-3-1c-1 1-5 0-9-1h-7m93 1l-2 1c-2-1-6 3-6 6s3 5 4 2l4-1 8 2 5 1 3 1 3 3c3 4 4 4 4 0 0-7-7-14-11-11l-4 2c-2 1-2 1 0 0 4-3 4-4 0-6h-8m-248 3c2 2 1 6-1 8l-1 3-2 3-2 1h2l2 1c0 2 5-2 7-6s2-5 1-8-1-3-1 2c0 4 0 5-3 8-4 4-5 3-2-1 3-5 3-10 1-12-1-1-1-1-1 1m403 1c-4 1-3 3 1 1 7-2 10 1 4 5l-4 2-2 3v1l3-2 6-4 7-5 3-2-3 1c-4 1-7 0-8-1s-3-1-7 1m-486 0c-2 2-1 4 2 7l3 3-2 3c-2 4-3 4-1 0 1-3-2-6-5-4-1 1-1 2 1 2 2 1 2 2 2 3l1 7 3 5 2-3c3-2 3-2 5-1a2 2 0 005 1c-2 2 3 4 5 3 4-2 4-7 1-9-1-1-1-1 1-1s2 0 1-2l-2-5-1-4-1-2c0-3-3-4-5-1-2 2-2 2-4 1-3-2-5-2-5 0s-2 1-4-2c0-1-1-2-2-1m109 2l1 5v7c-1 5 0 7 1 4 2-2 2-13 1-14l-3-3v1m-3 9l-2 3-1 3v1l-1 1-1 2v4l2-3 3-5c2-2 3-8 1-8l-1 2m472 1c-1 2-4 3-4 1a6 6 0 01-6 4c-5 0-7 1-7 2l1 1h6c2-1 3-2 4-1l4-3a3 3 0 014-2c1-1 2-5 0-5l-2 3M0 205c0 55 0 64 2 57 1-2 1 0 1 4 0 7 0 8 3 5 2-2 2-3 1-4v-2h3l-2-1-1-1v-2l-2-7 1-6h1c-1-2 1-7 3-6 4 0 4-1 2-5l-3-3c-2 0-2 0-2-4v-5c-1-1-1-1-2 7l-1 8v8l-1 8c-1 2-1-6-1-26 0-19 0-28 1-27s1 1 1-1l-1-2-1-28-1-28-1 61m639-57l1 1 1 2c0 2-5 4-6 3l-1 1c0 2-3 4-5 4v-3c1-1 1-1 0 0-2 1-4 0-4-2l-1-2-1 6c1 7-1 9-5 5l-2-3h-2l-2-1h-3c0-1-1-1-2 1h-3c-2 1 1 2 5 2 4-1 5 0 5 1l2 2 2 2a5 5 0 003 4c0-2 4-3 6-2 1 2 2-1 0-3-2-1 0-4 4-5l3-1c-1-1 4-3 5-3l4-2c2-2 2-3 1-4l-3-2-2-1m-460 2c-5 1-2 2 4 1l11 1c5 1 6-1 1-2h-16m0 4c-2 1-3 2-4 1l-2 1-3 1 9 1h24c0-4-20-7-24-4m160 0l4 3c2-1 3 0 3 3-1 2 0 3 2 1l5-2c4 1 4 0 2-1l-3-1-7-2-6-1m-95 3l2 2 2 3v1h-1v1c2 0 1 2-1 2l-2 2 3-1h3c3 0 2-6-2-9-2-2-4-3-4-1m-72 4l-8 1h15c2 0 4 0 6 2l14 5c4 0 4-3 0-4-2 0-2 0 0-1 2 0 2-1 1-2-2-3-16-3-28-1m246 2h-3c-2-1-7 1-11 5s-2 5 4 1c4-3 5-4 4-2-1 3 1 2 6-2 4-3 4-6 0-2m8-1l-7 4-4 3c-3 2 0 2 4 0h2c-2 2-3 3-1 3s12-7 12-8c0-2-3-1-4 0-1 2-5 4-5 3l2-1 4-5-3 1m-217 1v1c-3 0 0 1 6 3l7 1-6-1c-6 0-11 2-10 4l-3 1c-4 0-7 2-3 2h6l6-2 5-1h3l8-1 11-1 5-2h-11l-12-2a19 19 0 00-12-2m470 5c-2 2-2 3-1 5 2 3 3 4 4 2 1-4 3-2 3 2l-2 5v-3c0-3-2-4-3-1s-2 4-3 3-2 0-3 2-1 2 1 2h1a1 1 0 102 0l2-2v5c1 1 0 4-1 4l-1-2c-1-1-1-1-2 1v4l-3 1c-1 2-1 3 1 3v1l1 1 1-2c0-2 3-2 4 1l3 1 1-1c-2 0-2-4 1-7 3-2 3-3 2-6v-3l1-5 1-5c3-2 0-4-4-4-3 1-3 1-3-2s-2-3-3 0m-280 0h-2c0-2-4 1-5 4-2 4-2 5 0 3v1l1 3 1-1 5-6c6-5 6-8 0-4m-12 4l-3 3-1 1-1 2-3 1-2 1-1-1c-2 0-2 4-1 10l1 6 1-6 3-6v3l-1 3c2 1 3-2 3-5-1-3 0-5 1-3s4-1 6-7l3-5-1-1-4 4m283-3l2 13c1 0 3-4 1-5v-2c1-2 1-6-1-6h-2m-650 2c0 2 0 3-2 3-2-1-3 0-3 1l-1 2 1 4c2 3 2 4 0 4l-3 2-1-1v-1l-2 4 4 1c4-1 4 0 6 3 1 4 2 4 3 1l1-1c0 2 5 3 5 1l1-2 1 1 2 1c1-1 3 0 5 1 4 2 6 0 6-6v-6l-2-4c0-3-1-3-2-3-2 0-2 0-1-1v-2c-1-1-5 1-5 3 1 2-1 1-3-1 0-2-1-2-2-2l-2-1h-1l-1 1-1-2-1-2-2 2m448 4c-5 6-9 12-7 12l14-17c0-2-1-1-7 5m-293-4l3 1c2 0 2 0-1 1h-4c-1-2-5-3-5-1l2 2c2 2 2 2-3 2-4-1-5-1-4 1 0 3 5 4 8 3l5-2c2 0 2 0 1-1-2-1-1-1 4-1s9-2 4-2v-1c1-1 1-1-1-1-5-2-9-2-9-1m159 4a26 26 0 00-7 9v3l1 1-1 1c-1-1-5 3-4 4l4-2 2-3c-2-1-1-3 1-3l1-2 2-3c2-1 3-3 2-3l2-2 2-2 1-1 1-1c0-2-3-1-7 4m117-3l-1 4-3 2c-4 0-9 2-9 3l3 1v1c-2 1-1 2 3 2 3 0 3-1 3-2 0-2 0-2 2-1l1 2 4-13c0-2-2-1-3 1m207 7c-1 3 1 9 3 10v5c0 3 1 4 3 1v-9c0-2 0-2-2-2-2 1-2 1-1-1 1-3 1-6-1-6l-2 2m-388 2v9a11 11 0 003 9 21 21 0 0010 13c1 2 5 3 8 3l3 1c4 2 6 3 8 2l2-1c0-1 2-2 5-2l6-1 2-1 2-1a2 2 0 014 0c0 2 2 1 2-1 2-5 1-7 0-5l-5 2-3 1-2 1-3 1c-1 1-14 4-15 3l-6-1-3-2-2-1c-2-1-6-4-6-6l-1-1c-1 1-6-13-7-19-1-5-1-5-2-3m164 11c-4 0-4 2-1 2 2 0 2 0 1 1l-2 1c0 2 7 0 9-2 3-3 1-4-7-2M5 206c0 8 1 12 2 12l1-7v-8c1-1-1-9-2-9l-1 12m691-7c3 3 3 3 2 4l-3 1-3 1c-2 0-2 0-1 2h4l4-2c5 0 6-2 1-5-5-5-9-5-4-1m-476 9a38 38 0 00-23 27 59 59 0 00-3 22l1 6 1 4v5l1 4c0 4 5 15 6 12 1-1 1-1 1 2l3 5 4 5 4 4 4 5 4 3 5 3c4 4 3 4-3 0-4-3-6-4-9-3v-2l-2-1h-4l-3-2a89 89 0 00-45 3l-4 2-5 2-4 1c0 1-7 3-9 2l-4-1h-2c0-2-2-1-2 1h-2c-4-2-7 2-3 4 2 2 2 2 0 1-3 0-3 0-2 1l1 2-1 2c-4 3-6 2-2-1 1-2 1-2-1-2l-2 1-2 1 1-2 1-2 1-1 1-3c-1-3-1-3 1-3l2-1v-1c2-1 2-5 0-6l-1-3c-1-2-3-3-3-1l-2 4v-5h-4l-3-2v-1c1-2-4-5-8-6-4 0-7-1-3-1l2-1v-3l-1-2-2-3c-2 0-3-1-3-2h-1c-2 2-2 2-3 1-1-2-6-1-5 0l-1 1c-3-1-5 0-3 1v3l1 2v1c2 2 1 4-1 4l-2 1c1 1 0 2-1 1l-1 1-1 2 1 2 1 1c-3 0-4 0-3 1l2 1 2 1c-1 1 3 4 5 4l3-1c1-3 4-2 4 0s0 2 2 0h3l2 1 6 3h-3c-1 0-2 0-1 1 0 2-4 3-5 2s-2 0-3 1-1 1-1-1c1-2 0-4-4-4-2 0-2 1-2 3v1c0-2-2-3-3-3v2c1 2 1 2-1 1-2-2-3-3-3-1 1 1 0 2-2 1-2 0-2 0-1 1 1 2 1 2-1 2-3 0-2 1 3 3l4 1h-4c-3 0-6 2-3 2l1 2 3 1c4 0 6 0 6 2h-1l-3-1c-2 0-1 2 1 3h-1c-2 0-3 0-3 2l-2 4c-1 1-1 1 0 0a4 4 0 00-3-7c-3-3-4 0-1 2l1 4c0 1-1 1-1-1l-3-3c-2-2-2-2-1-3l1-4v-3l1-1c-1-1 0-2 1-2l1-2-1-1c-1 1-2 0-1-1l-1-1c-1 1-2 0-2-1 0-2-2-1-2 1h-1l-1-2-1 2-1-1c-1-2-2-2-3-2h-3c0-1-1-1-1 1-1 1-1 2 1 3h-6v2c2 1 2 1-1 1-2 0-2 0-1 1 2 1 1 2-4 2h-7l-3 3-1 2v6l2 1c1 0 2 0 1 2l1 1 4-1c0 2 3 4 5 2h1c0 3 4 3 9 1 5-3 7-2 2 1-4 2-4 3 1 3l5-1-4 1-3 1 3 1c3 1 3 1 1 1-2 1-2 3 0 4v-1c0-1 0-2 2-2l1 2-1 2-5-1h-3l-2 1h-2l-2 2-2 1 3 1 4 1-4 1c-5 0-4 2 2 2h5l-5 1c-5 1-5 2-3 3 1 2 3 2 4 2h3l-1 1-1 1 4 1c4-1 4 0 0 2l-2 2c3 1 5 4 3 4h-6c1-3 0-4-1-3-2 1-2 1-2-1s-2-3-2 0l-1-1c-1-2-1-2-2 2v4l-2-4c-1-4-1-5 1-5v-2l-4 1c-2 1-2 1-1-1 0-2 0-2-3-1h-2c2-2 0-3-2-2-1 1-1 1-2-1-2-1-2-1-1 1 0 2 0 2-1 1l-3-2c-2 0-2 0-1 1 2 2 3 3 1 2l-2 1-3 1c-2 0-2 0-2 2 1 1 0 1-1 1l-2 1 3 1h3l-3 1c-2 2-2 2 0 3l3 2h4c-3 2-2 4 2 2a14 14 0 018 1l-2 2-2 3-2 1 2 2c4 1 4 2-1 2-3 0-5 2-4 3h2c2 0 2 0 0 2-3 2-1 4 2 3h1a2 2 0 004-1l2-1 1-2-1-2-2-2 3 2c2 1 3 2 4 1l5-1c1 1 0 1-1 2-7 2-8 3-6 4v1c-9 0-33 20-29 23l-1 2c-2 3 0 4 5 3 3 0 3 0 2 1l-2 1v4c-2 2 5 2 8 0 6-4 7-4 7-1 0 2 0 2 8 2 6 0 9 1 11 2l4 1h1c-2 2 8 2 15 1l8-1-4 1-2 1h15l8-2c2-1 2-1 1 1-2 1-2 1 0 2 2 0 2 0-1 2l-3 3h10c-1 2 3 1 8-1 2-2 13-5 14-5l-3 2c-9 3-10 4-3 4h4c-2 0-3 2-1 2a23 23 0 0013-5l3-2 6-3 5-1h5c3 0 4-1 5-2l-3-1c-2 1-2 1 0 0l7-2c4-1 8-3 5-3l-1-1 5-1 5-1c-1-1 3-1 9-1 10 0 10-1 8-2l-2-2-2-1v-1l1-1-9 1h-9l-3 1-3 1-2 1c-4 0-5 2-2 2 2 0 1 1-2 1-4 1-6 3-2 3l2 1-4 1-3-1v-1c-2-1-8 0-12 2-5 2-5 2-4 0 0-1 1-2 2-1 3 0 6-2 4-4l2-1c5-2 5-4 0-3-2 0-3 0-2-1s1-1-1-1c-1-1-1-2 3-3 3-2 4-2 3-3l-1-1-2-1 2-1 2-2 4-1c6-1 9-3 4-3h-2l2-2 4-2 5-1 3-1h10c1-1-2-3-5-3h3l6-1-1-1h-3c-1-1 0-1 4-1s5 0 3-1a11 11 0 00-11 1v-1c3-2-2-4-8-4h-5c1-1 3-2 6-1 2 0 3 0 1-1l-3-1c0-1-14-1-17 1l-5 1-3 1c-5 3-31 1-31-3 0-3 4-5 6-4 3 2 13 3 17 2 2-1 1-1-6-2-11-2-13-4-8-8 3-2 4-2 8 0l14 1c7-1 9-1 13 1 3 2 2 2-2 0-2 0-2 0-1 1a23 23 0 0022 2h14l5-1h-4l-4-1-11-1-14-1c-3-1-3-1 1-1l6 1h8c11 0 10-2-1-2l-13-1-10-1c-3 0-4-1-2-2h4l17 3c7 0 5-2-2-2-5-1-7-2-7-4 1-1-1-2-1 0-2 2-3 1-2-1l2-1 1-1c0-3 3-4 7-3 3 1 3 1 0 1-6 0-4 2 3 3 5 0 6 0 4-1-3-1-2-2 2-1 5 1 6 0 2-2l-2-1 3 1c5 0 5-2 0-3l-4-1 8 1 4 1 2-1a28 28 0 00-21-2c-3 0-5 1-9 5-2 4-5 6-6 6l1-2c2-3 0-2-3 1-2 2-5 3-3 1 2-3-1-4-4-2-2 1-5 1-5-1l3-2h2c-1 2 3 1 6-1 2-1 3-4 1-4l-3 1h-3c-2-2-8 0-8 2 0 1 1 1 4-1l3-1-3 3-4 3-3 1-3-1c0-2 9-8 12-8l9-3h-3c-2 0-2 0-1-1 2-2 0-3-3-1-2 2-6 4-6 2v-1h1c3 0 7-2 6-5 0-1-1-2-2-1v-1l6-1 7-3c1-1 1-1-2-1-3 1-3 1-2-1l4-3 4-2h-2c-4 1-8 3-7 4l-2 1-4 1-3 1 1-1c1-1 2-1 1-2l2-2c6-1 0-3-8-2l-6-1 6-1c7-1 9-4 2-4-2 0-3 0-2-1 2-1 10 0 10 2 0 1 0 2 4 1l-1-1c-2-1-2-1-1-2s0-2-6-2c-2-1-1-1 2-1 4 0 8-2 4-2v-1c2-1 4 0 3 1 0 2 5 3 7 2 0-1 2-2 5-1 3 0 4 0 5-2h10v-2l1-1h3c3 0 1-2-1-2a11 11 0 01-6-3l6 2 5 2c3 2 4 1 1-2-2-2 0-3 5-1s6 2 6 1l4 1 6 2c-1-3-1-2 6 1l7 3 6 2 6 2 1 1h5l-6-4c-1 1-4 0-4-1h2c2 0 1-1-1-2l-7-6-3-2-3-2-4-3-3-3-4-5-2-6c-2-6-3-7-4-4-1 1-1 0-1-3l-1-5-3-9-1-7v-18a57 57 0 0112-25 31 31 0 0119-8c3 0 3 1 3 3-1 2 0 3 1 4s1 1 1-2v-3c2 0 7 5 6 7l1 1 5 3 3 4-2 2c-2 2-4 2-5 2-2-1-3 0-3 1 0 2 2 2 4 1h3l11-1c1-1 0-1-3-1l-2-1-1-2-1-1 15 6 5 1 3 1h-10c-10 0-16 0-16 2l2 1c7-1 8 1 1 3-5 1-7 3-13 10-4 6-5 6-13 10l-4 3 1 1c1-1 3 3 3 4-1 1 0 3 2 4l2 2c0 2 8 10 9 10l7 4 6 4 11 6 3 1 3 1 4 2 3 2 5 3 4 1 11 7c2 0 3 1 3 2l4 3 6 5 4 3 3 3 3 4 3 4 1 2c4 4 11 24 7 24l-1 3-1 3-3 5-2 3-2 2-3 4-3 2-4 2c-1-1-3 0-5 1l-4 3c-2 0-3 1-4 5l-5 6-6 5-4 4c-1-1-8 6-11 9 0 2-2 3-2 2-2 0-11 9-11 11 0 1-1 2-2 1-2 0-2 0 0-3 3-4 2-4-2-1l-4 3-9 9h1a15 15 0 017-4l2 1 2-1 3-2 7-4 3-3c2 0 5-2 6-5l3-4 3-1 4-3 2-1c1-2 4-6 5-5l3-3 3-3c1 1 2-1 4-5 2-5 3-6 7-7s14-7 15-9l3-4c11-12 11-27 1-39-2-3-1-3 4-4 4 0 4 0 3 1-1 2 0 5 2 6v3c-1 2 1 10 3 10 1 1 2 2 1 6l2 12 2 7a67 67 0 0014 30l1 1c2 0 6 3 9 6l4 2h1c0 2 6 3 7 2l11-2 4-1 6-2c3-1 5-3 5-4 0 0 1-2 3-2l2-2 2-4 2-6 1-3v-1l-1-1 2-1c0 1 1 1 0 0l1-2 1-4v-13c0-4 4-13 6-13l2-3 2-4 2-3 2-1 1-1 4-5c3-4 4-7 2-8v-2c4-5 1-20-4-21l-3-2-5-1h-2c-2-2-6-2-8-1l-4 1-6 2h-1l-5-1c-3 0-4 0-3-1v-1h6l3-1 2 2c1 0 1-1-1-3v-4l2-1h6c0-2-9-5-11-5-2 1-3 0-2-1l3-1 4-1 1-3c1-1 1-1 1 1v3c2 0 2 1 1 2s-1 1 2 2l4 2c1 3 2 4 4 3h1l1 2 1-2a3 3 0 011-3v-14l-1-2 2 2 2 10v8l1-6c-1-7 1-11 3-5 1 3 2 1 2-4l-1-6-1-6v-4l2 5 2 11c0 4 1 5 2 4v6c-1 2-1 2-1 0 0-3-2-2-2 2a2 2 0 104 0l1-1 4-7v-3l1-2v2l2-1v2l-3 7-4 5-2 4c0 2 2 3 3 0l1 1c1 2 1 2 4-2l3-5c2 0 1 1-1 4-3 4-5 9-4 10l1-1 2-2c2 0 0 6-3 10-2 3-2 3 0 2l4-3 2-2v2l-3 2c-1 2-1 2 1 2 5-2 6-2 3 0l-3 3c3 0 16-10 15-12l-2 1-4 3c-2 2-2 0 2-3a20 20 0 0110-6c4-2 5-6 2-5s-2-1 1-3l3-4c-1-1 0-2 1-3 2 0 3-1 3-4s0-4 2-6c4-3 2-4-2-1-3 2-4 2-4 0l1-1a12 12 0 009-9l6-4 3-4v-2c1-3 1-3-1-3l2-3 4-4 3-4 3-5c-1-2 3-5 6-5 4 0 2-2-2-3-4 0-5-1-3-3 2-1 0-2-3-2l-7-2c-4-2-5-2-8-1l-10 3-8 2-4 1-10 4-6 1-14 2-15 1-16 2c-5 2-11 2-11 1v1l-1 1-4 2-4 2-16 9c-9 6-11 8-10 6l1-2 2-1-1-1-3-2-3-2h-2c0-2 7-1 8 1h5l2 1c1-1 0-4-1-5s0-1 1-1c3 0 4-3 2-3v-1a2 2 0 10-2-3c1 0 0-2-2-2-3-3-2-4 5-5l4-1-6-1c-3-1-6-2-7-1-2 0-2 0-1-1 0-2-4-4-7-3l-2-1h-9l1 1-1 1h-4l-2 1c1 1 0 1-1 1l-3-1h-1l-2 2c-1 0-5 1-6 3-2 2-2 2 0 3 4 0 4 1 0 3-3 1-3 1-2 2l1 1h5c2-1 2-1 2 1-1 2-1 2 2 2 2 0 3 0 2 2l1 2c1 1 0 2-1 2l-2 1-1 1c-4 0 0 2 4 2 2 0 4 0 3 1-2 0-3 3-1 3v1l-2 1c0 2-1 2-4 0-2-2-5-3-5-1l2 1c1 1 0 1-1 1-3 0-3 0-2 1v1c-2 1-2 5 0 6 1 0 2 1 1 2l2 1c3-1 2 1-1 2s-3 1-1 3c1 1 1 1-2 1h-3l1 1 2 1-4 1h-7l3-4h-2c-3 2-5 3-3 1v-3l-3-1-4-1c-3 0-3 0-1 2 1 2 1 2-1 1l-5-1c-3-1-3-2-1-3v2a2 2 0 10-2-2l-3 3 1-4 2-4c-1-1 0-2 1-2l2-1 3-1a2 2 0 102-4c-2 0-2 0 0-2l4-1h2c1-1 0-1-1-1-4 0-4-2-1-4s3-3 0-3l-2-1c-1-3-3-2-3 0l-2-1-3-2v2h-1c-2 0-4 2-1 3v3c2 0 0 2-2 2l-3 1c-2 2-5 1-5-1l-1-2-1-1a2 2 0 00-3-1h-1c0-2-3-3-7-1l-2 2h2l2 2h-1c-2-1-4 1-3 4 1 2 2 2 4 1 2 0 4 0 5 2v1c-3-1-3 1 0 3l1 1-3-1c-1-2-4 0-3 1 1 3 1 6-1 4-1-2-5-3-8-2v2c1 1 1 1-1 1h-2v1l2 1-2 1h-3v1l2 2 2 2 2 2 2 1h2l3-1 2-2 2 2v2c-2-1-2 0-2 2 1 4 0 4-7 0l-7-3-3-1-4-3-3-1-5-3a40 40 0 01-17-18l-1-2c-4 0 2-6 7-8l2-1 3-4 3-4c0-5 12-10 25-9 5 0 7 0 9-2l2-2-2-2-10-5-8-3-4-2-6-3-1-2c-2 0-5-3-5-5s-3-4-8-6-6-2-12-1m107 3c-1 4-1 6 2 9 4 4 4 3 3-3-1-4-1-4-2-2l-1 3v-3c0-5-2-7-2-4m-108 3c-2 0-5 3-6 6-3 6 7 10 15 5 4-2 6-1 6 4-1 4 1 4 2 0 2-3 0-9-2-10-2 0-2 0-2 2 1 1 1 1 0 0l-2-3c0-3-6-6-11-4m383 5l-5 2h-4l-3 2v3c2 2 2 2 1 4v12h-8l-8-1c-5-7-23-11-36-8-5 1-7 4-8 12-1 2-2 4-6 7l-2 3c-1 3 5 4 7 0l7-4 4-3 1-3 1 2c-1 2-1 2 2 2l5-1 3-1-3 1c-3 2-6 6-6 9l-1 5v5c1 1 2 0 4-4s4-6 8-8l5-3c2-2 5-2 5 1 2 7 20 11 35 7l11-2 8-4 5-4 2-1 2-3c2-1 3-14 1-14-3 1-8-4-7-6 0-2 0-2-4-2h-2c2 0 0-3-3-4l-4-1h-7m-268 2c0 2 1 4 4 5a37 37 0 0011 4c2 2 2 0 1-3-2-2-2-2-3-1s-1 1-2-1l-2-2v1c1 2-1 1-3-1h-1c0 2-2 1-2-1-1-2-3-3-3-1m131 4c-1 3-1 3-3 3-3 0-5 1-5 2l3 1c2 0 2 0 1 1-3 3 0 4 4 1 3-2 4-8 2-10-1-1-2 0-2 2m21-1l-6 2-4 1 2 1h2l2 1h1l-5 1c-6 1-6 3 0 2 7 0 11-3 10-8 0-2-1-2-2 0m-44 3c-6 1-9 3-6 3l1 1-5 1c-9 0-9 2-1 2 8 1 15-1 13-3 0-1 1-2 3-2l3-3-8 1m300-1v2c-1 1-13 14-15 14l-1 3 1 2-1 6 1 8c1 6 2 9 5 7 1-2 4 3 4 7 0 3 0 3 3 3 5 0 6-1 3-2s-4-2-2-3h3l1-15 1-19-2-14-1 1m-390 3l2 3 3 2 2 1 4 1 5 2c1-1 4 0 7 1l6 1c2-1 8 2 10 4l1 2 2-2c2-2 4-2 21-2 3 0 6-2 3-3l14 1v-1c-2-1-2-2-1-2l-1-1h-17l1 1c4 1 1 2-4 1h-7c-2 1-16 0-20-1l-4-1h-3l-6-1c-5 0-7-1-5-2v-2h-1a3 3 0 01-4 0l-1-1-5-2-3-2 1 3m-111 8l-9 1c-7-1-9 1-4 2 4 1 16-1 17-2s-2-2-4-1m239 5c-4 2-5 2-4 4 2 1 2 1 7-1 10-5 7-7-3-3m10 2c-7 3-9 4-8 6s5 1 10-4l5-2 2-1c0-2-3-1-9 1m-329 1l-2 3c-3 3-4 4-1 4 1-1 2 0 2 4s-1 5-2 4h-3l-1-1 1-2h2c2-1 0-4-2-4-1 1-1 1-1-1 1-1 0-2-1-3-2-1-3 0-2 3a2 2 0 11-3 2c0-3 0-4-2-4l-1 2 1 4c0 1 1 2 3 2 4 0 2 2-3 2-5 1-5 3 0 4 2 0 3 1 4 5s4 5 6 2c1-2 7-3 7-1s4 3 6 2c3-3 3-9-1-9l-1-1h3l1-1-2-2c-2 0-2 0-2-5 0-4 0-4-2-4-3 0-3-1-1-2a2 2 0 10-3-3m336 2l-2 1-5 4-5 3c1 0 0 2-2 2l-1 2 4-2 4-2c2 0 8-6 9-8v-1l-2 1m147 15c-2 1-1 3 2 6 3 4 4 9 4 19-1 5-1 6-14 1-8-3-10-3-11 0s-2 2 6 6l8 5a3 3 0 004 2c-1 1 5 17 7 18 2 2 1 4-8 9s-17 12-17 15l-1 4-1 4-1 4c-1 1-8-2-9-4l-3-1-5-2-6-2-2-2c-2-2-10-5-16-6l-10-1h-7l-1-1v-1l-2-2-4-3c-2-2-2-2-3-1 0 2 0 2-2 0-1-1-1-1-2 1 0 2-2 2-2 0v-1h-1l-1 2-2 1c-1-1-5 1-5 2l2 1c1 0 1 1-1 2h-3v-2c-2 0-2-1-1-2v-2c-2 0-5 3-7 5l-2 2v-2c2-7 2-8 1-8l-1 2c0 1 0 2-1 1l-1 1c1 3-1 3-2 1l-2-1v1h-1c-2-1-2-3 0-4h2l-2-2c-1-2-1-2 2 0 4 3 5 2 2-1-1-2-1-2 1-2l3 1-3-2-1-2 2-1 2 1c0 3 1 2 3 0l2-2 1 2c0 2 1 3 2 1h3l1-1c0-1-2-3-4-3s-2 0-1-1l4 1c3 1 5 1 3-1v-1c3 0 2-2-1-3l-2-1c2-2 1-3-1-3h-1c2-1-1-4-4-4-2 0-3 0-2-1v-2l1-2 2-2h-4c1-2 0-2-2-1h-1c1-1 0-2-1-2l-1 3c0 4 0 3-1-1l-2-3-1 2-2-1h-3l-2 2v2c2 1 2 1 0 1l-2 1-1 2c-1 1 0 1 2 2 3 0 3 0 1 2-1 1-1 1 1 1l2 1c-1 1 0 1 1 1l3 1-2 1-3 3-1 2-2-2-3-2v2c2 2 0 1-3-1s-3-2-4 0h-1c0-2-3-3-7-2-3 0-4 1-2 2h-1l-3 1c1 2 0 2-1 2-3 0-2 2 1 2l3 1h-3c-4 0-2 3 2 3 2 0 2 0 0 1-3 3-1 3 3 1h2v3l2-2c1-3 3-4 3-3v6h-1l-2 1c-1-1-2 0-2 1l1 1 4 2v1l-2-1-2-1-3 1c-2 0-1 2 2 2l3 1h-3c-4 0-4 2-1 2l3 1h-3l-2 2c0 1 5 2 7 1l-1 2c-1 1-2 2-3 1l-2 1h-2c-2 0-2 0-1 1 1 2 1 2-1 2-2 1-2 1 1 2 2 2 2 2 0 2-4-1-7 1-3 2 1 1 0 1-3 1l-4-1c0-2-2-1-2 2 0 2 0 2-1 0-1-3-3-3-2 1v3l-1-3c-2-3-7-3-6 0 1 1 0 2-1 2l-1 1 1 1 1 1h-3l-3 1h-3l-2 1c-1 1 0 1 1 1 2 0 0 2-2 2-2 1-2 1 1 1h3l-3 2c-2 1-2 1 0 1a32 32 0 015 0c-1 0-1-2 1-2l1 2c0 3 0 3-5 3-5-1-9 2-5 3 1 0 2 1 1 2l1 3h-1c-2-2-7-1-7 1 1 1 0 2-1 2-3 1-3 2 0 3 6 0 6 0 2 1l-3 2h2l4-1c2 0 2 0 1 1l-2 1-4 2-5 3-5 1c-4 1-11 5-13 7-3 4-1 13 2 11l1 2c0 2 0 2 2 2h18l7 2 4 1 8 2c6 1 6 1 1 1l-5 1c-1 1 7 3 13 3a25 25 0 0116 2c2-1 3 0 2 1l3 1 14-4h1l6-3-4-1c-7 1-6 0 1-1l6-1-4-1c-4-1-4-1-1-1h3l-3-1-12-2c-8 0-12-2-6-2 4 0 0-2-5-2-3 0-3 0-1 2 1 1 1 1-2 1-2-1-3 0-3 1 1 1 0 1-5 1-5-1-9-2-4-2 1 0 2 0 1-1 0-2 1-2 5-2h3l-3-1-7-1-10-1c-5-1-5-1-2-1l3-1h4a31 31 0 0019 2l6 1 7 2c2 0 2 0 1-1l-4-1c-4-1-5-2-4-3l-1-1c-1 0-1-1 1-1 3-1 6 0 5 2l2 1c3 1 5 0 3-1-2-2-2-5-1-6l2 1h4c-2-2-1-3 2-2 4 1 2-1-4-4l-3-3 4 1c4 3 7 4 7 3-1-2 0-2 2 0h3c2-1 1-2-1-2l-2-2c0-1-1-2-3-2h6l13 1 5 1h-5c-5 0-6 1-4 2v1h-2l2 1c1 1 1 1-2 1-4 0-9 3-5 3l2 1-2 1-2 1c-1 1 2 3 6 2 3 0 3 0 2 1l-3 1-2 1 1 1c4-1 6 0 6 2 0 1 0 2 2 2 3 0 3 0 2 2-2 1 1 2 4 0h5l3 1-3 1c-3 1 0 4 4 3h15l5-1c1-1 0-1-3-1-6 0-6 0-7-3l-1-2-1-1-1-2v-1c1-1 1-2-1-2-2-1-3-1-2-3 0-3 1-3 5-2l1 1c-2 0-3 2 0 2l1 2c0 3 5 6 6 4 1-1 1-1-2-1-2 0-2 0 0-1l3-1-3-1c-2 0-2-1-1-2l1-2v-4l1-3 4 1c1 0 2 0 1 1h-2l-2 1 2 1v1l1 4c2 3 4 4 4 2l1-2 1-5a14 14 0 012-10c0-3 1-4 3-2v4c-2 2-2 2-1 3 2 0 6-3 6-6l2-2v-2l-3 1c0 2-3 1-6-1l-3-2 3 1 3-1c0-5 11-7 11-2h-4c-4 0-4 0-2 2s7 4 7 2l2-1c1-1 5 2 4 4l1 1c2 0 1-3-5-8l-9-9 2-1h1l2 1c2 2 2 2 3 1s1-1 2 1c3 3 5 5 6 3v-3c-2-2 0-2 3 0l5 6 4 5c2 1 2 0-1-3l-1-3-4-5c-3-2-4-5-4-6 0-2-4-7-6-7v1l2 2c2 3-2 2-6-2-2-1-4-2-6-1l-4-1c-2-3-8-4-9-3h-2c0-2 0-2-2-2s-2 0-1-1v-2c3 0 2-2 0-3-3 0-3-2 0-2 2 0 2 0 1-1l-2-3c0-3 0-3 3-3 11 2 15 2 17 0 1-2 2-2 3-1 1 2 3 4 6 4l2 2 1 1c1-1 3 0 4 1l2 1 2 1 3 1 6 2c4 1 4 2 3 4l1 5c2 3 3 6 1 4-4-3-4 1-1 4l3 3v-2c1-4 7 10 8 16l1 5 2 4 2 4 2 3c0 3 2 2 3-1 0-1 1-2 2-1l1-6 1-3c2 2 0 13-4 16-1 1-1 2 1 3l1 2v8l2 3 3 1c2 0 2 0 2 3-1 2 0 3 4 2v1c-1 2 0 4 4 4l2 2c0 2-3 4-3 2l-2-1-2-1-4-1c-2 0-2 0-2-2 1-1 0-1-1-2l-1-1-1-1-1-1-2-4a8 8 0 01-2-5l-2-2c-3 0-3 3 0 5v1c-2 0-2 3 0 4s3 2 2 3l2 1c2 0 2 0 1 1-3 0-2 2 1 3 1 0 2 0 1 1v2l2 2 1 1c2-1 4 1 2 2l-4-1c-3-1-9-1-7 1 0 2-3 1-4 0-2-2-7-3-7-1l2 2 1 2c-2 2 1 4 6 3 4 0 4-1 4-2 0-2 0-2 2-1l11-1a44 44 0 0014-4l4-2 9-6 7-5c0-2 3-4 5-5l3-3 5-7 3-3 2-7c4-8 6-18 4-18v-1l-1-4-2-4-1-3-2-1c0-2-5-6-6-6l-4-1c-1-1-3-2-4-1l-1-1c2-2-1-3-6-3l-6-1-6-1c-14 0-24-13-13-17l2-2 3-1c6-1 14-8 17-14 4-8 9-21 9-25a22 22 0 00-14-15l-6-5-7-7-2-4-2-7c0-4-13-9-16-5m-517 9c1 2 0 2-1 2h-2c-2-2-3-1-3 1l1 2c2 0 0 2-3 3l-3 2h2c3 0 3 2 2 8l-2-1c-3 0-2 2 1 4l1 2 2 1 3 1c1 1 3 0 3-1-1-2 4-2 6 0a4 4 0 106-6v-1c3 0 2-2 0-3-3 0-3-1-2-3s-1-5-2-3l-1-2c-1-1 0-2 1-2l2-3c0-2-2-3-3-1 0 2-4 2-4 0l-3-2-1 2m530 2c0 7 2 15 6 22l3 9 1 2c1 0 0-5-3-11a18 18 0 01-3-8v-5l2 2 4 4c3 1 4 3 2 5l-1 3 2-2c1-4 1-7-3-9-3-1-7-8-9-15-1-1-1 0-1 3m-188 2c-3 5-7 14-5 12h2l4-4 4-4c2 0 1 1-1 4-4 3-2 3 2 0 5-5 8-8 4-6-2 2-4 3-4 1s-3-1-6 2-3 1 0-3c3-2 5-7 4-7l-4 5m-115 0h-4c-3 0-3 0-2 1s1 1-1 2v2l1 1 1 4 1-2c-1-1 0-2 1-3l3-3 2-2 3-1h-3l-2 1m107 3l-2 4-2 1c-3 1-3 0-3-2s0-2-1-1v9l-5 15 2-4 3-4c2 0 1 2-1 8l-3 6 3-3 2-5 2-4 2-2-1 3-2 4-2 4-2 5-2 2c-1 1-1 1-1-1v-2l-1 4c1 2 1 2 3 1 0-2 4-6 7-10 6-8 6-8 3-8v-1c2-3 3-5 1-3h-4c-2 2-2 0-1-3l2-4 2-2 4-4c2-4 2-4 0-2-3 3-3 3-2 0 2-3 1-4-1-1m-93 3c-1 1-3 2-5 1-3 0-3 0-1 1s2 1 1 3c0 2-3 3-3 1l-2-1c-2 0-2 0-1-2 2 0 2-1 1-1l-3 2c-2 1-2 1 1 3l4 3c0 1-3 2-4 1v-2c-3-2-4 1-1 4 1 1 1 1-2 1h-2l4 2 3-1c-3-1 0-3 7-4h3l1 2 1-1c-1-1 0-1 1-1l1 3-1 3 2-3c2-2 3-2 3-1l-1 3-1 1-1 3v5l-1 4v6l1 2v-1l1-2v-6c0-6 0-6 3-6 2 0 2 0 0-1-2 0-2 0-1-3l3-4 3-1h-3c-3 0-3-2 1-2l4 2c2 2 4 3 5 1h4l-1 1v3c1 2-1 4-2 2-2-2-6-3-5-2l2 1v4c-3 0-2 2 1 3h2l-1-1v-2h5l5-1c1-1 1-1-1-1-2 1-4-1-2-2v-2c-2-1 1-3 3-2s1 0 0-3c-2-3-3-4-2-5h-1l-3 1h-2l-1 1 3 1c3 0 1 2-3 2-2 1-4 0-6-1-3-3-4-4-1-4l1-1-4 1c-3 1-3 1-6-1l-4-3v-1c4-3 2-4-2-2m96 18l-8 12-6 7v2h1l8-9v1l-1 3v1c-1 0-2 0-1 1 0 2 2 1 3-1a42 42 0 015-9v2c2 0 5-2 4-4h-3l4-4 3-3-4 2c-4 3-5 2-2-1s4-4 2-4l-5 4m-99-2l-1 1c-1-1-2 0-1 2 0 3 0 3-2 2l-2 1 1 1a1 1 0 11-1 2l-1 1v1l1 3c1 2 1 2 1 0l2-3 1-4c0-4 2-5 4-3s2-1 0-3l-2-1m239 5c-4 5-5 7-2 5h2l1 3-1 6v3c2 0 1 3-2 5s-1 4 2 2l3-3 1-1 1 2c0 3 3 5 9 5 5 1 5 1 5-1s-1-2-5-2l-5-1h3c5 1 6-7 1-8-2-1-2-1 0-1 3 0 3-2-1-2-2 0-2 0 0-7 0-2 0-2-4-3-4 0-5-1-2-2 1-1 2-4 0-4l-6 4m-304 0c1 2-1 4-3 4v-2c4-2 2-2-4 1-4 2-9 2-12-1-2-2-3-1-2 1l3 1 1 1 4 2 3 2 4 3 6 3c1 2 7 6 9 5 3 0 2-2-1-2s-3 0-1-1c1-1 1-1-2-2l-3-2 3-1c3-2 3-2 2-3-2 0-3-2 0-2l1-1-2-1c-2 0-3-1-2-2 0-3-2-5-3-5l-1 2m258 1c-1 1 3 5 4 5l1 2v3l-4-2c-4-2-6-1-3 1l2 6c0 3 0 5 2 6 3 3 4 3 4 0 0-2 2-3 2 0 1 2 3 1 3-3v-4l1 3c1 4 6 9 7 7l1-4 1-6c1-1 1-2-1-3l-4-5a10 10 0 00-6-5c0-2-3-1-3 1s-1 2-3 0c-3-3-4-3-4-2m-230 5c-1 1 0 1 1 1 2-1 3 1 0 2-3 0-4 4-1 4h5l1-2c2 0 1-4-2-5h-4m-14 13l-4 3-3 1 3 2c3 2 7 4 7 2l-3-2-3-2c1-1 6 1 8 4l4 2-5-6c-2-1-2-1 0-1 3 1 4 0 1-2-1-2-4-2-5-1m150 2l-15 11 3-1c4-3 5-2 2 0-3 3-3 3-1 2l3-2 3-1 4-2c2-1 3 0 0 2-2 2 0 2 4 0s5-4 2-4v-1c2-2 3-4 1-4l-1 1-2 1 1-2c4-4 2-4-4 0m-342 8c-8 5-10 7-8 9s2 2 5 0l2-2c-2-1 5-4 11-5l4 1c-1 1 3 1 4-1 1-1-3-2-4-2-7 2-13 2-13 1l3-1 1-1c0-1-1-1-5 1m-16 2c3 1 1 2-4 2h-5l4 1c6 1 7 4 1 3h-2c2 2 2 2-2 2l-9 1c-6 2-6 2-3 2l4 3 3 1 1 2 1 2 3-2 3-4 4-3c5-3 6-7 3-9a8 8 0 00-2-1m359 1l-10 4 2-1c2-1 3-3 1-3-1 0-10 7-10 9l1-1 3-1 15-5c2 0 3-1 3-2h-5m242 2c-3 2-3 2-6 1h-9c-1-1-3 1-1 2l1 6 2 6 2 3 1 3c2 3 3 0 3-6-1-2 0-3 1-3l1 2c-1 1 0 3 1 4l2 3v-3l-1-3 3 3 2 1 1-1v4c1-1 2 0 3 1l4 1c4 0 4-9 0-10-3-1-3-2 1-1 2 0 2 0 1-1l-2-2-1-4c1-2 0-4-1-6-3-4-4-4-8 0m-493 2c-4 3-4 3-2 4l5 2h4l-2-2-3-2 5 1 4 3c-1 0 1 3 3 3v-1c-1-2-1-2 2-1l3 1-14-7-1-1 1-2-5 2m31-1l11 6v-1c-1-1 0-2 1-1 2 1 1-2-2-3-4-3-6-2-3 0s0 2-3-1c-3-1-6-2-4 0m-17 4c9 6 11 6 6 1l-3-3 5 3c3 3 5 4 4 5l1 3 1-1c-1-2 3-4 4-2v1h-1l4 2 5 1 3 1c0-1-3-4-5-3l-2-1 3-1c3 0 3 0 2-1v-1l-8-5c-2 0-1 2 2 3l3 2h-3c-7-2-9-2-13-5-5-3-8-4-6-2l-2 1c-7-3-7-2 0 2m37-3a12 12 0 0011 6l1 2c0 2 2 4 2 2 1-1 1 0 2 2l1 2v2c0 5 1 5 3 2 1-3 0-6-1-6l-2-3c0-2-2-3-4-3l-4-3h-2l-3-1c-3-3-4-4-4-2m198 2c-6 2-8 4-7 6 1 1 1 1-1 1l1 1c3 2 2 3-5 6l-5 2h6c4-2 7-2 5 1h2c4-1 6-3 2-2-1 0-1-1 1-1l4-4 1-4c2-2 0-3-4-2h-4l3-1 4-2 2-1c2-2 1-2-5 0m43 1l-1 3v7l3-1c1-1 4 0 3 1l3-1 4-1-3-1-2-1-3-4-1-2v-2l-3 2m-379 1l-5 1h-1l-4 5c-6 4-8 5-8 7l-1 1-2 2-3 3-3 2c0 1-1 2-3 2s-2 0-1 1 1 1-2 2c-2 1-3 3-2 3l-4 3c-2 1-4 2-3 3l-2 1c-2 1-3 3-1 4 3 0-1 3-9 7l-5 3 3-1c3-2 5-1 2 1-2 2-2 2 0 1l6-2 5-2 2 1c-1 2 0 2 1 2 2 0 6-3 6-5s5-6 6-5v2c-2 2-2 4 0 4 1 1 8-4 8-5l-4-2c-4 0-5-2-4-4 2-4 4-4 3-1l1 3 3 1 5-3 4-3h-5l-6-1c0-3 3-8 5-9 2 0 2 0 1 2-3 4-2 5 1 5 2 1 4 0 7-1l3-3-3-1c-5-2-6-3-5-5 0-2 4-6 5-5l-1 3c-3 2-2 4 1 4 4 1 9-2 6-4l-3-1c-1 0-1-4 1-6l1-4c0-2 0-3 5-5 6-3 5-4-1-1m56 0l-2 1c0-2-1-2-3-1-3 0-2 2 0 2l2 1 3 1 3 1c0 2-1 2-6 0-3-1-6-2-7-1s7 4 12 5l5 1c4 2 6 2 5 1l2-1c4 2 5 2 5 1h2l7 2h8c3 2 3-1 0-3-3-1-14-2-18-1-3 1-6 0-5-2l5-1v-1l-1-4h-1c-6 3-14 1-10-2 1-1 0-1-1-1l-5 2m-43 1l-8 4c-7 2-11 8-6 10 1 0 8-3 7-4s0-1 1-3c4-2 3-3-1 0l-5 1a25 25 0 0116-6v-1c-1 1-2 0-2-1h-2m66 1c-1 2 0 2 4 3l6 2 11 4-1-2-4-1-3-2c-1-4-11-7-13-4m155 0v1l-3 1c-3-1-7 0-6 1l7 1 8 1h2c0-1-3-4-4-3l-3-2h-1m48 4a64 64 0 003 14c-1-3-1-4 1-4v-1c-1-1-3-6-2-7 1-2 3 0 3 2l2 3 3 2-2 2-3 3c0 4-1 8-3 8l-2 2-1 4v5c1 0 4-4 4-6 1-5 5-13 6-13l3-5a14 14 0 014-6l1-5c1-3 1-3-1-3l-2 1-2 1-2 2c-1 3-8 1-9-3-1-1-1 1-1 4M1 355l-1 33c0 30 1 38 3 32l1-1c1 0 2-2 1-3l-1-4v-15c-2-1-2-5-1-5v-13c1 0 3-5 2-6l-1 1-1 2c-2 0 0-15 1-17 3-3 1-6-3-4m176 7l-1 1c0 1-7 1-11-1l-3 1 2 1c7 2 21 3 19 2s-1-2 1-2 2 0 1-1c-2-1-6-2-8-1m-51 2c-2 2-2 2 0 3 4 3 11 3 14 1 1-2 1-2-2-1-2 0-2 0-1-1 2-3-9-5-11-2m324-1l2 1v1h-4c-3 0-3 0-2 1s3 2 4 1l2 1-2 1h-3l-3-1c-4 1-5 1-2 3 1 1 1 1-2 2-6 1-5 2 0 2h6c1 1-3 2-8 1l-2 1 3 1 3 1c0 2-5 1-7-1s-5-3-5-2l2 1 1 2 2 2 4 1-7-1h-3l1 1 3 2c2 2-2 1-5-1-3-4-7-5-6-3 1 3 0 2-3 0-2-3-3-2 0 1v4c-2 0-2 0 0 3l2 3h-1c-2-3-4-2-3 1l-1 2v1h2l4-1 6-3c3-3 3-4-1-4-3-1-4-5-1-5v1l3 3 3 2 2 1 2-1 3-2c4-3 6-5 5-6l2-1 2-2 3-4 2-4 2-2 1-1 1-2 2-2h-4l-5 1m95 5c1 2 9 6 12 6 2 0 2 0-2-3-5-4-11-5-10-3m-6 1l-3 1c-3 1 6 8 11 8 2 0 1-2-1-3-2 0-4-5-3-6h-4m66 2l1 2 1 2v1c0-1 2 0 2 2l3 2 5 5 4 5 1 1c-1 3 3 5 4 3v-3c-2 0-2-1-1-1s3 1 3 3c1 3 3 2 4 0v-1l-1-2c1-2 0-4-2-2l-4-4-4-6c-2-2 0 3 2 6 2 4 2 4 0 3-2 0-4-4-4-5 1-1-2-6-6-10-1-2-1-2 0 0l2 5 2 3h-1l-3-2-4-4c-2-4-4-5-4-3m-78 2c-2 1-2 2-1 3 8 5 18 9 23 9 3 0 2-1-4-3-9-3-11-5-12-8-1-2-4-3-6-1m-461 3c-1 1-2 2-3 1l-2 1-3 1a10 10 0 00-7 5l1 2 4 2c2 0 3-1 3-2v-1l1-1a2 2 0 011-2l-3-1 6-1c6 0 8-1 5-3-2-2-3-2-3-1m440 2l4 2 8 2a61 61 0 0016 3l-10-4-16-4-2 1m99 6h-6c-2 0-2 0 1 3l5 6c1 1 2 2 5 1 4 0 4-2 1-4-3-3-4-2-3 0 0 2 0 2-2 0-4-2-3-4 2-3l1-1c0-2-1-3-4-2m-501 5c-2 3-2 3 0 4h39l11-1c7 0 12-1 12-3 0-1-5-2-5 0-1 1-50 0-51-1-2-2-3-1-6 1m439 0l4 3 1 2h4l7 1 1-1-1-1-3-1c-2-2-8-4-13-5-3 0-3 0 0 2m-450 2l-2 1-1 1c1 0-4 5-10 9l-4 3a43 43 0 0014-9h2c-1 2-1 2 1 1 6-3 8-7 3-7l-3 1m375 1l-5 3c0 2 0 2 4 0 3-1 6-1 3 1v1l3-1 4-1 4-1-3 2c-3 2-3 2-1 2v1c-2 1-1 2 2 1 2 0 2 0 1 1-1 2-1 3 5 4l7 2 4 1-8-4-1-2c0-4 1-4 8-1l7 2-8-4-5-3-3-1-5-1c-4-2-9-3-13-2m-369 4l-4 3-3 2h15l36-2 14-1 2-1-27-1-30-1-3 1m-48 3l-4 2c-1 1-4 2-5 1s-2-1-5 2l-11 6-2 2-3 2-2 2a32 32 0 0013-7c0 1 1 1 4-1 7-4 11-5 13-4 1 1 3 0 2-1l2-3c3-2 3-2-2-1m59 4l-14 1c-5 0-8 2-7 4l31-4-1-1h-9m323 3l-3 2h4c4-1 6 0 2 2-2 0-4 2-4 3l9 1 9-1-2-1c-3 0-9-4-9-6-1-2-1-2-6 0m-295 0l-7 1-14 4a4056 4056 0 00-24 3c-5 1-10 3-9 4l11-2a1332 1332 0 0129-5l9-2c13 0 17-4 5-3m-94 2l-7 3-6 3-5 5c-1 3 0 4 3 2h5c6 1 18 0 24-3 7-3 6-6 0-5-2 0-2 0-1-2 0-2 0-2-1-1a6 6 0 01-6 3v-1l-1-1c-3 1-4-1-2-4l-3 1m66 0l-15 3c-1 1-1 1 1 1l15-3c12-1 21-3 15-3l-16 2m212-1v1c2 3 3 10 1 10l-1-1-1-1-4-1c-5-3-8-1-8 2l1 3-3-3c-2-3-2-3-3-2s0 2 1 3l1 2-1-1h-5l1 1h-2l-5 1c-1 2 1 2 4 2l3 1 2 1h3l-3 1c-3 1-2 3 2 2l3 1-3 1c-4 0-9 3-6 3l2 1c0 3 5 1 7-3 3-3 5-3 2 1-2 3 0 4 2 2 1-2 1-2 4-1 3 2 3 2 1 2-4-1-4 0-1 2 2 1 2 1 0 1h-3l2 1 2 2h-1c-1-1-2 0-3 2l-4 2h-1c-1 1-1 0-1-2 0-3 0-4-2-4v1h-1c-2-2-5-1-3 1h-6c-4-1-3 2 2 4l6 4h-2c-6-3-11-2-14 0l-2 3v-3c1-2-1-4-2-2h-4v1l-5 1a3 3 0 00-3 6h-3l-5 1h-2c0-1-1-2-3-2-3-1-3-1-2 2 0 3 0 3-2 2-3-2-4-3-4-1 1 1 0 1-1 1-4-1-2 1 2 3 5 1 9 4 4 3l-10-2v4l2 1c1 0 2 0 1 1 0 2 3 2 5 1l2-3 1-1h5c1 2 1 2-2 2-4 0-3 1 1 2 1 1 0 1-2 1-2-1-3 0-2 1l5 1 3 1 1 1 1 2c0 2 2 1 3-2 1-2 2-3 4-2l7 1h5l-4 1-4 1h5l7 2c2 0 3 0 5-2s2-3 0-3v-1l1-2-2 1-2 1-2-2-2-1h2l3-1 6-1c5-1 9-3 6-4-2 0-1-4 1-5l1-2h5l-1 1c-1 1-1 1 1 2l1 1-3 1h21c1 1 0 1-2 1-3 0-3 0-2 2l3 1 2 2h-5c0 1 1 2 3 2 4 1 4 3 0 3h-7l2 4 2 5-2-2c0-3-5-6-5-5v1l1 1c1 1 0 2-1 1l1 2 2 2h-3c-2 0-3 0-2 1l-1 1v1l2 1c2 0 2 0 1 1v2a3 3 0 004 1c0 2 1 2 4 1a4 4 0 002-5l-2 2v-1l1-2 2-1 2 1 3 1c2 0 2-1 2-3v-3c1 1 3-3 3-6 0-2 2-3 2-1l3 2c2 2 2 2 0 1-3 0-3 2 1 4 2 1 2 1 0 1-3-1-4 1 0 2s5 1 1 2c-4 0-4 1 1 3 3 1 3 1 6-2l2-2 4 2c5 3 6 3 7-1l2-4v-5l-3 1-2 1 2-2 2-3-2-1-2-2-3-1-4 1-1 2v3l-1-3-2-2c-4 0 1-1 6-2 6 0 7 0 7 2h1c0-1 1-2 2-1h9l2-1-1-1v-1c0-2-2-3-4-2-2 2-5-1-3-4 1-3 0-5-2-3-1 1-2 1-2-1-1-2-1-2-3 0-2 1-3 2-2 3 0 2 0 3-2 1s-3-2-6-2c-2 0-1 2 1 3s2 1-1 1c-4-1-5 4-1 4 3 1 3 1 0 1l-4 1-3 1 1-2c2-2 1-4-2-2l-2 2 1-1 1-3c0-2-2-1-3 2l-2 4v-4l-1-4v3l-1-1c-2-2-5-3-4 0 1 1 1 1 0 0l-2-3-2-1v-1c2 0 3-3 1-3l-2-1h-2l-1 1v-2l1-2-2 1c-2 3-3 2-2 0l-1-5c-1-2-1-3 1-3l1-2 1-3c1 0 1 1-1 5l-1 3 3 3c4 3 7 4 6 2-1-1 0-2 1-2l1-1-2-1c-3 1-3-1 1-2l2-2h-2l-3 1c-2 0 0-2 4-4 4-1 4-3 1-3-2 0-2 0 0-2 3-1 3-1 2-3-2-2-4-1-6 1l-4 2c-2 1-2 0 2-5 2-4 3-5 2-6s-1-1 2-1c5 0 6 0 5-1l1-2c1-1 0-1-2-1-4 0-4 0-3-1 3-4-1-6-4-3s-4 3-3 0v-3c-1 1-2 0-3-2-1-3-2-4-3-2m-204 7c-27 5-38 8-32 8l10-2 20-3c10-1 16-3 12-3l2-1c8-2-3-1-12 1m10 3l-19 4c-17 3-41 8-27 6a181 181 0 0116-1l6-2c10-1 31-7 25-7h-1m609 2c-1 2-2 2-4 2l-4 2-6 3c-6 0-10 3-10 6l-2 2c-3-1-2 2 1 2l4-1c0-2 2-3 5-3l6-2c6-3 9-3 9 0l-1 2v1c0 1-1 2-3 2-4 1-4 3 0 3l3 3c0 2 0 2 1 1 1-2 1-2 1 0l2 7 1-4v-16c0-12 0-13-3-10m-501 11a12 12 0 00-4 8c0 1 0 2 3 2 4 0 6-3 5-9v-4l-4 3m-104-1l-7 2-7 2-4 1c-6 1-8 2-7 4 2 1 18-3 16-5l3-1c3 1 9-1 10-3h-4m15 0v1l-4 2-4 2c1 1 0 2-4 3l-3 2h4l3-2 2-1 2-1 4-3c4-1 5-3 2-4l-2 1m368 4c-2 1-1 2 1 2 3 0-1 2-6 2h-2c4-2-1-3-5-1-2 1-2 1 0 2 1 0 2 1 2 3 0 3 0 4 3 5 4 1 6 3 3 3s-9 2-9 4c-2 2 1 2 4 1l5-2 3-2 6-2c5-2 7-3 6-4l-4 2h-3v-2l9-3 2-1-4-1c-3 1-4 1-5-1l-2-3v-1c1-2-3-3-4-1m-357 4h-5l-6 1-5 2v3a4 4 0 01-3 4h5l10-5 10-5h-6m67 10c-2 1-4 2-5 1-2 0-10 3-12 5-1 2 1 2 5 0 6-3 7-4 5-1-2 2 0 2 4-1 5-3 8-6 7-7l-4 3m-66-1l-5 2c-5 2-8 5-5 5s4 2 1 2c-2 1-3 3-1 3 3 0 7-5 6-6s0-1 2-2l3-4h-1m460 1c-2 2-1 4 2 4l2 2c0 3 3 5 5 4s1-2-1-2h-3l1-1c3 0 3-2 1-3-2 0-3-2-3-3-1-2-2-3-4-1m-457 2l-3 2-2 3c-2 1-2 2 0 5 2 2 2 2 3 1 2-1 2-2 1-2l3-2 4-2c0-2-2-2-4 0l-4 1c-1 0 0-2 2-3l3-3v-1l-3 1m575 3l-2 3v3c1 1 1 2-1 3-1 2 0 6 2 6l1 3c0 2 0 2-1 1-2-3-3 0-3 6l1 12 1 7v2c-2 4-8 5-9 1-1-1-1-2-2-1v2l1 2v2l3 1-4 1c-3 0-4 0-3-1h-5c-1-2-2-2-3-1l-6 1h-3l5 1c6-1 6-1 4 1a233 233 0 01-53 1c1 1-25 1-98 1l-35 1 210 1 3-1-2-2-2-1v-2c-1-1-1-1 1-2 2 0 2-1 2-4l1-9v-35c-1-2-1-2 1-2l1-1c-1-2-5-1-5 0m-563 3l-1 2-2 3c-2 2-2 3 2 2l3-1 7-4c0-1-4 0-5 2h-2l1-2v-4l-3 2m262 2c1 1 0 2-1 1v1c0 2 0 2-2 1h-2l2 2 2 3-3-1c-4-1-6-1-2 1 2 1 2 1-3 1-6 1-8 0-5-3v-2l-3 2c-1 1-1 1-1-1 1-2 0-3-1-4h-1c1 2-1 6-2 6l-1-2-1-2-1-1-1-2 1 4c1 3 1 3-1 3l-2-1 2 2c2 2 2 2 1 3h-1l-1-2-1 2-1 2c-1 1-1 1 1 2l2 2 2 2 1-2c-1-2 0-3 1-4 1 0 2-1 2-3 0-3 0-3 1-2v4c-1 3 0 5 1 5 3 0 4 3 2 4s-2 1 2 2h5c2 0 2 0 0 2l-1 3 4-2c1-2 2-3 3-2l2 1 2 2 1 2 1-2h2l2 1-1-3c-2-1-2-1 0-1v-1c-2-1-2-1 1-1 2 0 3-1 3-3s1-3 3-1c1 1 7 0 7-1l-3-2c-4 0-3-2 1-2 2 0 2 0-1-1-3 0-4-1-2-1 3 0 3-2 0-2s-3 0-2-1c2-1 3-3 1-3-1 0-3 1-3 3l-3 2v-2c3-2 4-5 3-6h-1c-1 2-1 2-2 1h-2c-1 2-2 2-3-1 0-2-1-3-2-3l-1 1m45 13c-2 6-2 9 1 10 4 2 4 1 2-1l-3-4h1l3 4h4c-1-1 0-1 1-1 2 0 3 0 2-2 0-2-2-3-2-1-1 2-6 0-7-3s-2-4-2-2m8 12l-2 3-1-1-6-1c-3 0-5-1-5-2-2-3-5-1-4 4 0 4 11 6 15 3h3v1l3-1c1-1 2-2 3-1l1-1c0-2 0-2-1-1v-1l2-2v2l1 2c0 2 1 2 3 2l3 1h1c0-2 0-2 1-1v3l4 1c5-1 8-3 4-3l-3-1 3-1c5 1 12-2 9-3-1 0-2-1-1-2l-2-1-2 2c0 2-2 3-2 1h-3c-2 1-9 0-10-3h-11c-2-2-2-2-3 1"
      tabindex="-1" itemprop="light" style="fill-opacity: 0.9; fill-rule: evenodd;"></path>
    </symbol>
    <symbol id="-posters-1650742963857-regular">
      <path d="M361 7l-2 2h-2c-3 0-4 1-1 2 1 1-1 1-5 1h-5l3 2 3 3c2 1 2 1-1 1a3 3 0 101 6h2l6 1 5 2c2 2 2 2 3 1 4-3 3-6 0-7l-3-1 3-1c3-1 3-1 1-1-1-1-2-2-2-5l-2-4-1-2c1-2-1-3-3 0m131-1l4 3 4 4 2 1 4 4 4 3 1 1h1l2 2c1 2 1 2 2 1 1-2 1-2 3 1l4 8c2 3 2 4 1 4l-2 2c0 2 0 2-2 1-1-2-1-2-1 0 0 3 3 6 3 4l1 1c1 2 1 2 2-1 1-4 3-5 3-3l1 3 1-4-1-3 2 3c2 4 2 3 2-1 0-2 0-2 2 2l2 2 1-3v9l3 3c2 4 4 3 2-2-4-8-1-10 2-1 4 8 4 7 1-6l-2-4c-1 1-2-1-3-3l-3-3-4-3-4-3-3-2-3-2-4-2-4-2-1-2s-1-2-3-2l-4-3-4-4a99 99 0 01-10-3h-2m-8 1l3 6v3l1 2c0 3 2 6 4 6v-4l-3-6-2-5 4 4 5 6 1 1c0-1 2 0 3 2 0 2 1 3 2 3 1-1-5-11-9-14s-9-5-9-4m-140 8l2 7c0 5 1 6 8 6 4 0 9-2 5-2h-11l-1-6c0-4-1-7-2-7l-1 2m368 2l-3 3c-4 2-5 5-2 4 2-1 2 0 2 4a6 6 0 010 5l6 1h5c1 2-2 6-4 5-1 0-2 3 0 4s6-3 7-6c0-2-1-4-5-5-2-1-2-1 1-1 4 0 4-2 0-2-2 0-2 0-2-3 0-4-1-6-1-3l-3 2v-5c2-3 2-4 0-4l-1 1m-16 8l2 1c4-2 3 5-2 11l-1 3c2 0 4-3 6-7s2-3 5 4c3 5 4 6 4 2 0-2 1-2 4-2l4-1-4-1-4 1c0 2-1 0-4-5-4-6-6-8-9-8-1 0-2 0-1 2m-495 1l-7 1c-4 0-5 1-3 3 2 1 1 2-1 3-2 0-2 0 0 1 2 2 3 2 0 3-2 3 1 3 4 0h2s-1 2-3 2l-2 3 3-1c1-2 2-1 2 3 0 3 0 3-2 4-1 0-2 1-1 2h5c1 1 1 1 1-1-1-2-1-2 1 0 3 4 4 5 6 5 2-1 3-8 1-9v-2c1-1 1-1-1-1l-2-2-2-3c-2-1-1-1 3-1l6-1-2-1c-2 1-7 0-7-1l2-1c2 0 4-2 2-2h-2c-1 1-2 0-3-1-2-1-2-1-2 2l-1 4v-1c1-2 1-2-1-3-2-2-2-2 0-3l5-1 4-1h-5m115 1c-4 1-4 1-1 1 5 0 5 6 0 6l-3 1 3 1h7c5 0 7-2 1-2-3 0-3 0-3-2v-4c-1-1-1-1 1-1l3-1c0-1-2-1-8 1m-193 0c-1 2 0 5 2 7 5 3 9 14 8 18l1 3 1 5c0 3 0 3 1 2 2-4 4-11 3-17 0-5 0-5-3-5a3 3 0 01-1 0c2 0 1-5-2-8l-4-5c-1-1-6-2-6 0m38 4c0 1 0 2-3 2l-2 1c2 2 1 3-1 3-3 0-4 2-2 2l4-1 2 1-2 2-2 1 4-1c4-2 4-2 3 0l-2 1-2 1 1 1c2-1 4 3 2 4l-1 2 2 4h1v-2c-1-2 0-2 3-3h5l-4-1c-3-1-3-1 1-1s4 0 3-1c-2-1-3-6-1-6l2 1c2 2 3 2 6 2l-6-4c-3-2-3-3 1-2l3-1-3-1-2-2c0-2-1-2-3-2l-3-1c-2-2-4-1-4 1m332-1l2 2v1l-3-1 2 3 7 7-3-1-4-2v2c-1 1 0 2 5 6l5 2 1-1c2 0 1-2-3-9-5-6-9-11-9-9M96 32l3 3 4 3 2 1-3-3-3-3 2 1 5 2 4 2c2 1 2 1 0 0l-3-3-5-3h-6m533 2s-1 2-3 2c-2 2-6 2-5-1 0-2-1-1-3 1-2 3-2 4 0 3 4-2 4 0 0 5l-3 3 3-1c2-1 4-1 5 1 2 2 3 0 1-2s-2-2 0-4l2-3v11c-1 1 2 7 4 7l1 1c0 1 4 3 6 2 1 0 2-6 1-7h-7l2-1 1-2h3c3 0 3-2 0-3-2 0-2-1-2-4 1-3-1-5-3-3l-2 2c-2 0-2-3 0-5s3-3 1-3l-2 1m-268 3l-1 9c0 6 0 6-2 5l-1-3c1-2 1-3-1-3-1-1-1-1 1-1 1 0 2 0 1-1h-1l-3-1c-1-1-1-1-1 1 1 3 0 3-1 3-3 0-4 1-3 3l1 3c-1 1-2 0-2-5l-2-5 1-1 1 2c0 3 2 2 3-1 0-2 0-2-3-2h-4l1 6 2 10v3h6c6-1 7-1 4-4-2-2-2-2 0-2l2 2c1 3 5 2 4-1 0-3 4-3 4 0 1 2 1 2-1 0-2-1-2-1-1 1 2 4 6 4 7 0 0-1 0-3-2-4v-5c-2 0-2-1-2-3v-4c-2 0-4 0-4 2l-1 1v-4c2-2 2-3 1-3l-3 2m181 0l4 1c2 0 3 0 3 4l3 8 1 2-1-13 1-1c-1-2-10-2-11-1m13 1l3 14c1 0 1-7-1-10 0-2 0-2 2-2l2 1v4l2 8c2 3 2 6 2 9-1 3-1 4 2 7l3 3v3c0 2-1 2-2 2l-1 1c0 2 1 3 3 2h1l3 1c2 0 2 0 2 4-1 3 0 4 2 2 0-1 1-1 1 1 1 3 5 3 6 0 0-1 1-2 3-2 3 0 4 2 2 4-2 1-2 2 0 2a19 19 0 0111 3c2 0 1-2-1-3-2 0-1-2 2-3v-2h-3l-3 2v1l-2 1c-2 0-2 0 0-6 1-6 1-7-1-8v-2a16 16 0 00-5-13c0-2-8-10-10-11l-2-2-3-1c-3 0-3 0-1 1l4 5h-2l-3-2-1-2-2-2v6c1 1 0 2-1 2s-2-1-2-5l-2-7c0-2 3-2 6 1h3l-9-5-2-1c-1-1-5-2-6-1m113 2c-2 2-3 3-2 4 2 1 2 6 0 7s-1 5 2 4c4 0 5-2 1-2-2 0-2 0 1-1h7l2-1-3-1-1-4c1-5 1-5-1-5s-2 0-1-1 1-2-1-2c-2-1-1-1-4 2m-562 0c0 1 7 14 9 15l5 2c3 0 3 0 3-5s-2-8-4-7l-5-3c-5-3-8-4-8-2m556 4v2c0 1-1 2-3 2s-3 1-3 7 0 6 1 3c2-5 4-5 3 0l2 4c1 1 2-3 1-8l1-4 1-2-2-3-1-1M69 46c-17 5-27 17-25 31l1 7v-1l1-3c2 0 2-1 1-5-1-10 4-17 16-23 6-3 7-3 18-3s12-1 9-2c-5-2-15-2-21-1m9 5c-3 1-4 3-1 3 6-1 8 0 7 1v5c-1 2-1 2 2 1h4c8 0 8 0 2 1s-12 4-8 4l3-1 2-1h3l-3 1c-3 1-3 2 0 1l2 1 5 1c6 0 18 4 21 7h-1c-2 0-2 0-1 1 4 2 10 9 9 10l-1 2c0 2 0 2-1 1l-1-2-2-2c0-2-3-4-6-5l-5-3 6 6a23 23 0 019 17l-3-2-1-2c0-4-8-14-16-17-5-3-6-2-2 0a30 30 0 0112 12c2 3 3 4 1 3l-1 1v2l-1-3v-2c-1 0-2 0-2-2l-4-3h-1a37 37 0 017 30l-1 1-1-8c0-8-4-17-8-20l-2-1 2 2c4 5 7 20 5 25-1 1-1 0-1-5 0-4 0-6-1-5v2l-1 5c-1 2-1 2-1-3l-1-6-2-5-3-6c-3-4-3-2 0 3 4 7 5 19 1 26-3 5-3 7 0 4l4-2 2-1 1-4h1l8-1 9-2c2-1 2-2 0-2s-6-3-4-4l7-3c9-2 22-11 22-13v-1h1c1 2 3 0 2-2l-1-2-5 4c1 1-2 2-3 1l-2-1c-1-1-1-1 1-2 3-1 4-6 2-6-5 0-8 3-7 8l-5 2-2-3c-1-2-1-2 1-2l2 1v1l1-3c1-1 0-2-1-2l-1-1 1-1v-5l-3 1c-3 2-4 2-4 0l1-1c2 0 3-3 2-4-2-2-1-3 1-5 4-3 5-7 3-9l-2-2v2c0 3 0 5-1 3s-1-1-1 2c-1 4-1 4-2 2l-1-3-1 2c-1 3-3 5-3 3h-4l-1-2c1-2 0-3-2-1-1 1-1 1-1-1 1-2 1-2-1-2h-2l1-1c2-1 2-3 1-5 0-2-4 1-3 3h-3l-3-3-8-4-9-3c-1-1-5-2-8-1m232 5l-1 3c-3 0-3-2-1-3v-1l-2-1c-2 0-2 0-1 4 0 4 1 5 3 3l9-1 8-1-1-1-2-1 2-1 1-1-2-1h-2c-2-1-6 0-5 1a2 2 0 11-3 0v-1c-3-1-3-1-3 2m267 3c1 4 0 4-2 1-2-2-4-2-4 0l1 1c1-1 3 1 3 3h-2c-1-2-2-2-3 0v1h1l2 4v-1c0-3 8-2 11 2 2 2 2 2 3 1v-4c-2 1-2 0-2-2l-1-3-5-2-2-3v2M60 61c-2 3-2 4 2 4 2 0 8-4 7-6-2-2-7-1-9 2m417 1l2 2 1-1c-1-2 6 2 10 6l5 4 2 2-1-2 1-3c2 0 2-1 0-4-2-2-9-3-9-2v-1c0-1 0-2-3-2h-5c-3-1-3-1-3 1m230 0c1 2 0 2-5 1-6 0-6 0-4 2v2c-2 1-1 2 2 1l3 1-3 1-3 1 2 1c2 0-2 5-4 6l-1 1 4-2c2-1 2-1 2 1l2 3 5-5 1-1 1 2c-1 3 0 6 1 4 1-1 4 0 6 2l2 1c2-1 4-6 2-7v-7l-1-5c-1 0-2-1-1-2 0-3-2-2-4 1l-2 2v-4c-2-2-5-1-5 0m-323 6l-1 6-2 2-4 2c-2 1-2 1-2-1 0-5-9-1-12 5-2 6-4 12-2 12 1-1 1 0 0 0 0 2 2 3 4 1l1-1v1c-2 2-1 3 2 1 5-3 13-12 13-15 1-3 2-4 4-5l5-3c2-2 0-3-3-1l-2 1v-5h-1m-235 2c-9 1-11 2-11 4l1 1 4 2c2 2 3 2 3-1 0-2 1-3 3-1a3 3 0 005-1l1 2c-1 3 2 5 4 3v-3c0-1 1-2 3-2s2 0 1 1c-3 3-4 8-1 8a4 4 0 004-7l4-1c9-3-7-7-21-5m-13 8c-1 2 0 7 1 7 2 0 5-3 5-5 0-4-4-5-6-2m69 3c3 2 4 3 1 5-2 2 0 2 3 1 3-2 3-2 5 0l3 2h-3c-2 0-2 0 1 2l1 1-2 1 1 1 1 1c-1 2 2 3 5 2h4v1h-3l-7 1c-9 1-12 3-6 4 7 2 16 0 20-2 0-1 3-1 5 1 6 2 7 1 2-2l-6-4-4-4-7-4-6-4c-1 0-4-1-5-3l-4-2 1 2m290-1v6c2 3 2 3 0 5-1 1-2 2-1 3v1l2 3c2 2 3 4 2 5l1 3c3 3 0 4-7 3h-6l5 2 5 1c1 1-4 6-6 6v-1c3-2 0-2-3 0l-3 1 3 1c4 2 8 0 9-4 2-3 6-5 7-4 2 0 1-2-1-6l-3-6-2-2v-4l1-2c2-1 1-5 0-5l-2-2h2c2 2 1 0-1-3-1-2-2-2-2-1m-342 5c-2 3 1 6 4 5 9-2 10-2 9-3-2-1-5-1-5 1s-2 1-3-1c-2-3-3-4-5-2m233 3c-2 2-3 5-2 5l-2 4c-2 3-4 4-3 2l-1-3c-2-2-5 2-6 7 0 4 0 4-1 2-1-4-2-5-4-1-1 2-1 2-2 0l-1-2-3 2c-1 2-3 3-5 3l-5 1-2 1c-2 0-2 0-2 2l1 2h2v4l-3 3-3 2-2 1-2 1h11l-3-1c-2 0-2-1 2-3l9-7c2-3 4-4 3-2l-5 4c-3 3-4 6-2 5 1-1 2 0 1 1 0 2 3 1 4-1h1c-1 2 1 4 1 2 2-2 3-1 2 1h1l1-3 3-5 7-9c1-3 3-5 4-5a17 17 0 008-14c2-4 0-3-2 1m-36 1l-8 4c-9 3-11 4-7 5 1 1 0 1-1 1-7 0-9 2-7 7l2 3 2-3 3-2-1 2-1 3 3-2 5-4v1l-4 7c1 1 4-2 6-6 1-3 3-5 5-6 3-1 8-7 8-10s-1-3-5 0m279 0c0 2 4 6 5 6 3 0 6 7 4 10h-3v-1h1a4 4 0 10-6-2c0 2 0 3 2 4l3 1h-3c-5-1-6-5-3-10 1-3 1-3-1-5-3-3-15-2-15 1s5 8 7 8c3 0 6 4 8 9 2 4 2 4 0 8-2 3-3 7-3 10-2 11-3 7-3-7l-1-15v30c-1 1-1 2 1 2s4-6 5-13c0-3 1-6 3-7l2-4 1-2c3 0 8-8 8-11-1-5-12-15-12-12m-424 5c-3 4-8 6-12 4l-4-1-2-1h2c3 0 3 0 0-1h-7c-3 1-3 1-1 1h3l-3 1c-2 1-1 1 3 1s6 0 7 2v1c-5-2-8-2-8-1l4 1 4 1-3 1h-1c1 1 6 3 5 1-1-1 1-4 3-4 3 1 13-2 12-4l1-2v-3l-3 3m-65 9a145 145 0 01-18 8c1 1 15-4 21-8l6-3 4-2c6-5 2-3-13 5m-96 2l1 6v1c-1-1-1 0-1 1l-2 3c-5 5-5 12 0 17 9 8 10 8 10 5s3-5 6-5c5 0 5-1 4-4-2-2-2-2 3-4l4-3-4 1c-5 3-10 3-13-1-1-1 0-2 3-2 4 0 11-3 13-5s0-1-4 1l-7 2h-3l3-1 3-2 2-3c2-1 2-1 0 0l-8 1h-6l5-1 9-4h-5l-7 1c-3 0-3-1 2-1l2-1c-4 0-4-2 0-2l3-1h-5c-4 0-6-1-7-2s-1 0-1 3m183-1l-17 1-13-1 7 2 5 2v2c-2 2 12 3 26 3h14l-3-3-3-2h3l4 2 2-1c-1-2-10-7-11-5h-14m385 1h-1c0-2-2-1-3 2s1 7 4 9c2 1 4 3 5 7l2 6-1-5a395 395 0 00-2-17l-1-2-2-1c-1-1-1-1-1 1m-518 2c-2 8-6 15-11 19-5 3-6 5-4 5v2c-2 2-2 3 1 1l2-2c0-2 0-2 2-1l1 4c-1 2 0 3 2 0l1-2c-1-1 1-3 3-6 6-5 11-17 7-17l-1 2c0 5-7 17-10 17v-1l1-2v-1l2-1 1-4c2-3 4-13 4-15l-1 2m623 0l-2 4-1 6v-3c0-2 0-3-2-3l-2-1 2-1c4 0 2-2-3-2-3 0-4 0-3 1 2 2 1 3-1 3-1 0-2 1-2 7 0 4 0 6 1 5l1-1 1-2v2l1 3c1 1 1 0 1-1l1-2c1-1 1 0 1 1l2 4c3 2 13 3 14 1l-3-1c-2 0-2 0 0-1l2-4v-6c-1 0-2-1-2-3l-1-4-2-2c0-3-1-2-3 0m-631 5c-3 6-10 13-12 13-2-1-4 0-5 1h1l3 1c-2 2 1 1 5-3 5-4 10-12 10-15 0-1-1-1-2 3m200 3c-5 6-6 9-1 4l3-3 3 6 3 7 1 1a2 2 0 101-4l-2-2h1c2 0 2-1 2-5 0-5-1-7-3-5-1 1-2 0-1-2 0-5-2-4-7 3m-36 0l1 2h-4c-6 0-6 0-6 2 1 2 1 3 6 3l10 1c5 1 8-1 3-2-1-1 0-1 2-1 5 1 5 1-2-2l-8-3h-2m406 1c-3 0-6 2-5 4l2-1c2-1 5 0 3 2-3 2-5 8-5 10 0 4-2 5-3 2l1-3c1-1 2-8 0-9l-2 1-4 5-3 4-2 2-3 3-2 2-1 4-1 4v-1c1-2-1-1-3 1s-1 4 1 3c1-1 1 0 1 1l2 1 2-1v-2c0-3 2-5 2-2l3 1c1-1 2 0 3 1h3l1-2v2h1l3-1c2 0 6-4 4-4a1 1 0 111-2c2 0 3-1 3-5l3-4 2-3 2-3 1-4 1-4c1-1 1-1-1-1l-3 1c0 2-2 0-1-2l-1-1-5 1m-533 2v2h13l8-1v-1h-21m59 5c-1 1 0 1 2 2 8 1 16 7 10 6-3 0-3 0-2 3 1 2 1 2-1 0-3-3-8-5-7-2l1 1 3 1c1 1 1 1 0 0-2 0-2 0-1 1l2 1 2 1c1 3 5 1 4-2 0-2 2-3 2 0l3 1h1l-2 1-1 3c0 2 1 2 3 2l2-2c0-2 4 0 4 3 1 2 0 2-2 2-3 0-4 2-1 3 3 2 6 1 5-1 0-3 2-5 4-4l-1 1-1 1h3a4 4 0 014 4c-1-1-2 0-1 1 0 2 0 2-1 1-5-1-1 4 5 7s3 3-3-1c-5-2-6-2-7-1s0 2 2 2l3 2 6 1h18v-3l-1-4-19-9-4-2-6-4-2-1c0-1-3-5-5-5l-2-2-2-2-1-1c0-2-2-4-3-2s-4-1-3-3h-10m-78 6c1 9 1 10-1 14s-1 5 1 2c4-4 5-15 2-16l-1-1-1-2v3m400 0l-6 2-9 3-15 3-11 2h-5l-5-1-12 1c-7 1-17 4-13 4l-1 1v2l3-2 4-1c2 0 2 0 1 1-3 0-7 3-7 4l7-2c7-3 9-3 4 0-8 3-4 4 4 0 4-1 5-1 2 1l-3 1 2 1c2 1 5 0 7-1l4-1-3 2-2 3h7l-1 2c-2 2-2 2-1 3l-2 3-2 3 8-6c8-7 6-3-3 5l-7 7 2-1c3-2 6-2 6 0l-2 8 5-15a4 4 0 013-2l-1 4c0 2 0 2 3-2 2-6 4-7 3-3 0 3 1 2 4-2 1-3 1-3-1-2l1-1 7-5 7-4c2 0-5 6-8 8l-3 3 3-1c3-3 5-3 3 0l-1 2 3-1 2-2v2c-3 3-2 3 2 0 3-3 5-2 2 1-3 2-6 6-4 5 5-3 9-7 8-8s-1-2 1-4a6 6 0 003-5l4-2 5-5c6-3-1-4-7-1-2 0-2 0-1-1 0-2 6-4 13-5 2-1 3-1 2-2 0-2-5-1-9 1m-361 0l5 1 5 1h-4l9 3-2-3c-3-3-15-5-13-2m203 1c-1 2 3 4 6 4s5-3 3-4h-9m-6 2v6l2-1h8c11 2 13 2 15 4h2c0-2-1-3-3-5-2-3-6-4-6-2 0 3-12 2-13-1 0-2-3-3-5-1m-310 4l-1 2 1 4c0 4-1 5-2 3v-1l1-1-3-1-4 1v2c1 1 1 1-1 1h-2l2 1c2 1 2 1 1 2-2 0-3 2-1 2l1 2c-1 2 0 3 2 1 0-1 1-1 2 1h9l-2 1c-2 0-2 0-1 2 2 2 6 0 6-3 1-3 0-5-4-5-2-1-2-1 1-1 4 0 5-1 2-2l-1-5c0-3 0-3-2-4-3-1-3-1-1-1s3-1 1-3c-1-1-2 0-4 2m112-1c-1 1 2 3 5 3 2 0 3 0 3 2l2 1 4 1h3l-1-1v-1l-4-3-4-1 4 1c3 0 4 0 3-1s-14-3-15-1m480 5c-2 2-6 5-7 8l-6 7-3 4c1 1 6-3 7-5l1-2 5-3a11 11 0 016-4l2-2 1-4c0-3-1-3-6 1m-477 1c-1 2 0 2 3 2 4 0 4 1 3 2l-1 2v2c-1 1-1 1 1 1l4 1 2 1-2-2-3-2h4l4 1-4-2c-5-2-5-3-1-2h3l-3-1-6-2-3-1h-1m236 0l-1 2 2 1c1-1 1-1 0 0v7c1 1-2 6-4 6l-1 1c0 3 7-1 7-5l2-4v-5l1-1-1-2h-5m25 2l-2 1c-2-2-12 4-13 8-1 2-1 2-2 1s-2 0-4 5c-3 5-2 6 1 2a7 7 0 015-4 14 14 0 0110-9c2-2 3-2 2 0h2l6-2c3-1 4-2 1-3s-4-1-6 1m252 4l-2 10-2 11c0 4 0 4 1 3l2-4 1-3c1-1 1 0 1 5v6l3-9 1-2c2-1 2-1 0-4-2-2-3-3-3 0l-1 1 2-12c1-6-1-7-3-2m-46 0l-9 8c-1 1-1 2-2 1v2c2 1 2 1 6-2l5-7c4-4 4-5 0-2m39 1c-1 2 0 19 1 17l4-18-5 1m-147 2l-1 1-13 12-9 7-3 3 2-1 2-1-2 3c-4 4-3 4 2 0l3-4c-1-1 2-3 7-6l16-14h-4m112 3c-4 3-3 7 1 4 2-2 4-2 4-1l-3 3-2 1 2 2 2 3 2-2c2-2 2-2 1-3v-9c0-3-3-2-7 2m-298-2a3 3 0 01-4 0l-1 2c0 2 3 3 8 2l9-2c4-1 4-1-3-1h-6l2-1h-5m328 1l-1 5c0 4 0 4-1 2s-2-3-4 0c-1 1-2 2-1 3l1 3c1 2 1 2 3 0l2-1c0 3 2 2 3-1 2-7 1-12-2-11m-270 13l-4 12-2 8 3-4 2-5 1-3 1-3 3-4c0-2 0-2-2-1-1 1-1 1 0 0v-5l-2 5m223-4c0 4 0 5-2 4-3 0-7 6-6 10s4 8 10 11l6 3 9 2h7c1 2 5 1 5 0-1-3 2-3 8-1l7 1-2-2c-1-1-2-1-1-2l-1-2a2 2 0 010-3c2 0 1-2-1-2l-2-2c0-2-12-2-14 0h-2c0-1-1-2-3-2-3 0-3-1-3-2l-4-4c-3-1-4-2-3-3h2c1 1 2 0 3-2 3-3 0-4-4-2-2 1-2 1-3-1l-3-1h-3m30 2a2 2 0 101 3 1 1 0 110 2c-4 1-3 5 1 5l5 1 2 1 4 3c2 3 4 2 4-3 0-2-1-3-3-3l-3-1-4-2-3-3h3c1 0 2 0 2-2s-5-2-9-1M26 174l-2 1 2 1a1 1 0 11-1 1h-8c-2 0-2 5 0 6 1 1 0 2-2 3-4 2-5 5-1 3h5l1 3c1 3 2 1 2-4v-3l2 2c2 2 2 3 2 5-1 2 0 3 1 1l3-2c9 0 9 0 8-1h-3l-2-2 1-3 1 2 3 1c3 0 3 4 0 5-2 0-2 0-1 1a4 4 0 102-8c-2-1-1-1 1-1s3 0 2-1l-2-4c0-3-1-4-2-4l-1 1c2 3 2 7 0 7-1 0-2-1-1-2h-1c-2 2-2 2-2-2l-1-2-2-2c0-2-1-3-4-2m3 8c0 3 0 3-1 1 0-2 0-2-3-1-3 2-3 2-1 3l3 1 2 2 1 2 1-5c0-6-2-8-2-3m241 0a27 27 0 003 16l1 2 1 2 3 4 3 3-1-3-1-2c-2 1-7-13-7-19 0-5-1-6-2-3M0 220c0 11 1 16 1 10a414 414 0 00-1-10m222-6c-3 0-9 6-9 8s4 5 8 5l8-4-3 2-5 1c-2-1-2-1 0-1l5-2c3-2 8 0 9 4 0 3 0 3 1 2v-6c-1-3-3-4-3-2-1 2-3 0-3-2 0-3-4-6-8-5m386 7l-1 2c-1 0-2 1-1 2l-1 1h-3c-1 1-1 1-3-1-1-2-1-2-2-1l-3 2c-2 1-2 10 0 10 1 1 2 0 1-1 0-2 0-2 2-1h5c3-2 6-1 3 1-1 1-1 1 1 1l2-1 2-2 4-2c1-2 2-2 2-1l1 1h2c2 2 2 1 1-2-1-2-2-3-4-3-4 0-8-2-7-3v-2h-1m-62 12l-1 5c-1 2-1 2-1 0l-1-2-2-1c-1-2-4 0-4 1l1 2a3 3 0 11-3 3c0-3-1-3-3 0-2 5 0 6 4 4l9-1 6-1h5c4-1 5 2 0 4l-4 3c0 2-3 4-4 3-2 0-3 0-3 8v3c3-6 4-7 7-9l3-3 2-2c2 0 3-2 3-2l2-2h2l1 1c2 0 3 3 2 4s-1 2 1 4c3 2 5 2 5-1l1-1 1-2c0-3 2-5 4-3s10 3 10 1l-3-2c-2 0-2 0 0-1 1-1 1-1-1-2h-4c2 1 3 4 1 4l-1-1c0-1-1-2-3-2-1 0-2 0-1-1l-2-2-2 1h-2v-2c3-2-5-6-16-8h-9m192 2c-9 7-14 13-8 9 3-2 5-2 7-1 1 2 1 5-1 4a3 3 0 00-2 1c2 0 1 3-1 4l-3 1 1 1h1a3 3 0 004 0 5 5 0 017 0l1-11c0-12 0-13-6-8m-252 1c2 0 2 1 1 2l1 2c2-1 5 0 5 1-1 1 1 1 4 1l5-1-4-1h-1l5-1c2 0 2 0 1-1h-6l-4-1c0-2-1-2-4-2s-4 0-3 1m130 1v2c2 0 5 4 4 4l-4-1-3-2v-2c-2 0-6 1-4 2 3 2-1 5-5 4-5-2-12-1-14 1h1c3-1 3-1 3 1l1 2c1 1 0 1-1 1l-3 3-2 2c-3 3 2 8 6 6l8-2c7-1 13-4 8-4l-3 1h-16c0-2 5-3 8-3l5-1c3-2 3-2 3 0-1 1 0 2 4 2a3 3 0 103-5l-2 2c0 2-3 1-3-1-1-3 0-4 1-2h5l3 1h3c0 3 1 2 4-1 4-5 4-7-1-8l-6-3c-2-1-2-1-3 1m-271 3l-2 1-3 1-4 1c-4 0-11 2-10 3l-2 1c-2 0-2 0 1 2 4 2 7 1 7-2l1-1 1 2-2 3 1 1 1-1 1-1v3c2 0 6 3 6 5h-2c0-1-1-1 0 0l-2 1-2 2c0 2 2 3 2 1l3 1h-1l-2 1h-3c-3 0-3 0-1 1v1l-2 1h1c2-1 7 1 6 3h4v1l-1 1-1 4c-1 2-1 2-1 0s0-2-1 1l-2 3v-4l-1-3-1 3v4l-2-4-4-3v3h-1l2 1 2 2 1 2h-4c-4 0-5 0-2 1 3 0 3 1 2 1-2 1-3 3-1 3 7-3 8-1 2 1-5 2-5 2-3 4 3 2 5 5 3 4l-2 1 1 1 1 2-1 3 4-2c3-2 5-4 2-4l-1 1c0 3-2 1-2-2l-1-4-2-2h4l2 2c0 2 2 3 4 1 3-1 2-3-1-4-1-1-2-1-1-2l4 2c4 2 5 1 3-3-1-3-1-4 3-4h3l-3-1-2-1 2-1 2-1c0-1-1-1-4 1h-2c0-2 7-4 10-4v-1c0-1-5-1-8 1h-1c0-3 2-4 7-3 4 0 6-2 4-3l-4 1c-3 1-3 0 0-2l2-4 3-1 2-1h1l3 1 1 3v-1c0-2 0-2 2-2v-1c-2-1-1-1 4-2 1-1-1-1-4-1h-4c1-3 3-5 4-4l2-1v-1l-2-1-2-1c-2 0-4-3-2-4s0-3-2-3v-3h-7c-1-2-6-3-6 0m121 1l-12 3c-1 1-4 2-6 1-2 0-2 0 0 1l3 2c2 0 0 3-2 3s-2 0 1 2h4c1-2 11-1 14 3l3 1h2c0 1-1 2-3 2h-3l-7-1-13 1-7 1c1 1-1 1-4 1l-5-1 2-1c1 0 2 0 1-1 0-1 2-3 8-6 5-2 6-4 3-4l-2-1-8 1h-5c-4 0-4 0-2 1 2 3-1 3-4 0-2-1-3-1-12 1-20 3-21 3-24 6l-3 1-5 2-8 5-4 3-2 2c-3 0-8 5-7 6l-2 1-2 2-1 1c-2 0-5 3-3 4 2 0 1 2-1 2-1 1-2 0-3-1l-2-1v5c-1 2-1 3 1 3 1 0 1 1-1 3l-3 3-1 2-3 5-2 3 3-2c4-3 6-4 8-3h1l3-3 2-2-4 2-4 1v-5l2 1 2 1 1-1c-1-2 0-2 2-2h3l-4-2c-4-1-4-2-1-1 2 0 3-1 3-2h-3c-2 0-2 0 0-1l7-7c-1-1 3-3 6-2l2-1a1 1 0 012 0l1 2c1 1 1 0 1-1l1-3v-2c-3-2-2-3 4-3 5 1 10 4 10 7l2-1c1-1 1-1 1 1l2 1 4 1h-1c-4 0-5 2-1 3l6-1 6-1c4-1 4-1 3 2 0 2 0 2 2 1 4 0 8 3 8 6 0 2 0 2 1 1l3-2c2 0 2 0 0-3l-1-4c0-1-3-2-7-1h-2l2-2 3-2a15 15 0 0110 5l1 1 2 3v-1l1-3a2 2 0 001-3l-3-2c-2-3-3-3-5-3l-3 1 2-1c5-4 13 0 15 7 1 3 1 3 1 1l1-3c2-1-1-8-3-8-4 0-6-1-7-2l-6-2-4-1c1 0 2-1 1-2l1-1 2 3 4 1 6 1 3 1c3 0 8 5 6 6v8l1-4c1-5 3-4 2 1 0 4 0 5 3 3h2c0 1 1 2 2 1l1-2-1-1c-3 0-2-3 3-5l5-3-3 3c-2 1-3 2-2 3v2l1 1 1-2c0-3 3-4 5-4l2-2c0-3 2-2 2 1v1h2l3-3 3-4 4-3a6 6 0 016-2l1-1c2 0 7-3 7-5l2-1c2-1 9-8 7-8l-5 3-4 3-6 4-8 3 1-1 2-2c0-1 1-2 3-2l2-2-4 2-5 1 3-2c8-4 15-7 18-10l5-2c2 0 2 0 1 1s-1 1 1 1c3 0 3-2 0-3l-8 2-9 5c-4 2-4 2-5 0-2-1-2-2 3-4 6-3 4-4-3 0l-6 1-2-1-2-1 2-1 3-1-2-1-3 1c-3 1-2-2 1-3 5-2 3-2-7 1m-306 7l-2 3c2 0 2 1 2 5v6h4l5-1 1-1-1-1c-2 1-2 0-2-4 0-5-1-6-3-5v3c-3 0-4-2-1-5 2-2 2-3 1-3-1-1-3 1-4 3m373 1h-1c-2-1-9 5-9 7s4 1 5 0l4-3 3-4h-2m-382 3c-1 4-3 5-3 2l-1-3c-1-1-1 0-1 2 0 4 1 4 4 4l1 1c1 2-4 4-7 3l-1 1 4 1 3 5c2 4 5 6 6 2 1-2 2-2 7-2 4 0 5 0 4-1l-4-1c-5 1-4-1 0-1 5-1 7 0 6 3-1 1-2 2-3 1-2 0-3 2 0 2a4 4 0 10-1-8l-6-2-4-1a2 2 0 110-3 1 1 0 100-3c-2 1-2 1-1-2a2 2 0 10-3 0m253 5v1c2 0 4 3 4 5-1 1 0 1 2 1 3 0 3 0 3-3 0-4-5-7-9-4m87 5l-9 6c-3 1-4 2-3 3h1l5-3c5-3 13-8 12-9l-6 3m-195 0c1 2 1 3-1 2-2 0-2 0 0 1 3 1 3 3 0 3l-3 1c0 2 0 2-1 0h-3v2s0 2-2 3c-1 2-2 2-2 1l-2-4c-2-2-2-2-1-3v-1l-4 4h2l4 5c0 3 4 1 6-2 2-2 2-2 3-1v1l-2 1 2 1c2 0 3 1 3 2l1 3v-3l2-2v-1c-1-2 0-8 1-8l1-1-1-2-1-2-1-2c-1-1-1 0-1 2m354 0h-3c-4-1-4 2-1 6 3 3 3 5 4 17 1 9 2 8 2-2l1-5v-1c-1-2 0-4 1-3a6 6 0 010 8c0 2 0 2 1 1 1-2 1-2 1 2l4 10 3 8c1 2 1 2 2 1l-2-8c-4-7-6-14-6-23a19 19 0 00-2-9c1 0 3 2 3 5 0 4 6 14 9 16l4 3c1 2 0 6-1 6l-1 2-1 1-1-1 1-2c2-2 1-5-1-6-2 0-3-2-4-3l-2-2v2l1 3 3 7c5 10 4 17-2 11-1-2-9-6-11-6l-5-2c-7-3-8-3-5-1l2 5c0 2 5 16 7 17 2 2 1 3-8 8-13 8-20 17-20 26 0 3-2 4-5 1l-4-1-3-1-7-4-7-3c-8-6-16-8-31-7l-5-1-6 1-2 1v-2l2-5 1-3-3 4-2 4v-8l-1 4c0 3-2 4-5 0-1-1-1-1-1 1l2 3 2 2 1 1c0 2-7 4-13 4l-3 1c1 1-2 2-3 2-1-1 2-3 6-5l4-1h-7l4-1 4-2c0-1-1-1-7 1-1 0-2 0-2-2v-1c0 2-2 3-2 1s-4 3-4 6c-1 3-2 3-4 2-1-1-1-1 1-3s2-2 1-5c-2-3-2-3-2-1s0 2-3 0h-4l-5 1c-4 0-4 0-3-2 2-1 2-3-1-3l-1-1h-4c-3-1-2 1 1 4l3 2-4-1-5-1c-1 1-1 1 1 1s2 0 1 1c-3 0-2 1 2 3h4l7-1c7 0 7 0 6 2-1 3-1 3 1 3s2 0-1 1-3 3 0 3l4 2 2 2-2 1-6 2-5 3h-3l2-4c2-1 2-2 1-2s-4 2-6 6c-1 1-1 1-1-2 0-2 0-3-1-2l-2 2-1 3-1 2-5 3c-5 3-6 4-6 1h-2c-3 1 8 7 17 9 4 0 4 2-1 3-3 0-3 1-3 2 0 3-4 2-5-1-2-2-4-1-4 1v4c1 1 10 4 17 5a155 155 0 0033 5l3 1c2 0 2 0-2-3-5-2-7-2-14-2-9-1-13-1-23-5-4-1-5-1-3-2s7 0 10 2l11 2 15 2 7 1-2-1c-2 0-3-2-1-2l4 1 6 1 3 1-3-2-5-2-14-5c-3-4-7-5-6-2 0 3 1 4 8 6 6 2 7 3 0 2l-5-1c-1 1-24-6-24-7s3-2 4-1l6 2 6 2c4 1 2-2-3-4l-5-2 2-3 2-3h-4c-3-2-4-5-2-3h4c5 1 5 1 4 3 0 2 0 3 2 3 4 1 6 1 4-1-2-1-2-1-1-2 2-2 10 1 10 3 0 4 9 10 17 10 6 1 9 4 5 4-2 0 4 6 9 8 1 1-1 1-4 1-5-1-6 0-1 1l3 2h-2c-5-1-3 2 3 3 7 2 10 1 5-1l-3-1 5 1c5 0 5 0 5-2l-1-2v1h-6l-1-2 2-1c-1-2 0-2 2-1h3l-3-1c-1-1-2-1-1-2 0-2 2-1 4 1l3 2c3 0 2-2-2-4-5-2-4-3 2-1l4 2c1-1-2-4-3-3l-4-1c-2-2-2-2 0-2s3-2 2-4c0-2 2-1 5 1 2 1 2 1 1 2l-1 2 3-3-8-6c-1-1-1-1 1-2 1-2 2-2 2 0 1 1 4 2 4 0l1-1v2c0 1 0 2 2 1 3 0 1-4-4-7l-3-1c2 3 1 4-2 2l-2-2-1-2-2-2c-1 0-2 0-1-1 2 0 1-2-1-2v-1c1-1 1-1-1-1h-2l2-1 3-1-4-1c-4-2-5-3-1-3l-3-1c-5-1-5-1-1-1s5-1 4-3c-2-1 7-4 12-4l4 1-3-2c-4-2-3-3 1-1 5 3 8 3 8 2 0-2 3-1 5 2l4 2 7 3 13 6c4 1 5 2 5 5l1 4 1 3 3 6 3 5 1 1 1 2c-1 2 1 4 2 2h1a36 36 0 0021 15l5 2h3l-3 1-2 2-1 1-1 1c1 1 0 3-1 3-2 2-2 2 0 3v1c-3 1-2 4 0 4 1 0 2 0 1 1-1 3-1 4 2 4 3 1 3 1 2 2-2 1-1 2 2 3l2 2v1l1 2 3 1 3 1c-1 1 0 2 2 3 2 2 2 2 0 2l-3 1h-1l-1-1-4-2-3-3c-1 0-2-1-1-2 0-2-2-3-6-2-4 0-3 4 1 4 2 0 2 0 1 1-1 2 2 5 5 4h1c-1 1 0 2 2 3l2 2c0 2 4 1 6-1l5-3c5-2 14-10 9-9l-2-1 3-1c4 0 9-4 11-9l2-2c2 0 9-17 10-23l-1-5v-1l-1-4-2-4-1-3-2-1a13 13 0 00-9-7h-3c-2 0-2-1-2-2s-2-2-5-2l-7-1-7-2a32 32 0 01-12-3 9 9 0 014-17l2-1 2-1c4 0 12-8 15-15l3-7c6-14 6-21 1-19l-1-1c-1-1 0-1 1-1s1-1-2-3l-5-4-4-2-6-5c-5-5-11-14-10-17 0-3-9-8-10-6m-273 3l2 1c2 0 2 0 1 1-1 2 0 3 2 2 3-2 8 2 6 5h2c6-1 4-5-3-7l-5-2h-5m109 3l-5 3-3 2h-1v3c-2 2 0 2 3 0 5-4 5-3 1 2-3 2-3 3-2 4v3h1l1-2c-1-2 0-4 2-4 3 0 9-7 9-11h-6m-358 3c1 1 0 2-2 2h-3c0-2-2-1-2 1 1 2 3 3 5 2l6-1c5-1 7-2 6-4l-2 1-3 1-3-1c1-1 0-2-1-2l-1 1m244 5c-1 2-1 3 1 3v1c-1 1-1 1 1 1 2-1 3 0 3 1v2c1 0 2 1 1 2 0 1-1 1-2-1l-3-2c-1 0-1 1 1 2 3 3 3 3 7 2 2-1 2-1 1-3-2-1-2-1 0-1l4 2v1l-2 1-1 2v2l3-1 4-1c3 0 5-1 5-2a1 1 0 00-2 0l-2 1-2-1v-1c4 0-4-5-9-5-1 0-2 0-1-1a3 3 0 10-3-5l-4 1m-240 1l-4 1a3 3 0 00-4 3l-1-2c1-2 1-2-2 0-3 1-3 2-2 2 2 0 2 1 2 4 0 4 0 4-2 4h-2l3 2c2 0 2 1 1 1-1 1 0 3 1 2l2 1c2 2 3 1 3-1s0-2 2-2c2 1 2 1 1-1-2-1-2-1 0-1h3l-3-1-2-1c-1-1 1-1 5-1h7l-2-1-1-3c1-3 0-3-1-4l-2-2-1-1-1 1m-41 6c1 2 1 2-1 1l1 2 2 3h-1a9 9 0 00-7-2l3 1c2 1 2 1 0 1-5 0-2 4 3 4 3 0 3 0 2 3-2 6-3 6-7 3-4-2-4-2-5-1s0 2 2 2c4 1 4 2 1 4l-1 2 3-1 2-2-1 2c-2 2-2 3-1 3 1 1 2 0 3-1 1-2 7-2 5 0l1 1c1 1 2-1 1-2s0-2 1-2c3-1 3 0 2 1v1l3-2c0-2 2-3 3-3l-2 4-2 3 3-1 2-1c1 1 1 1 0 0-1-2 0-4 2-3l5 11c0 1-2 2-5 2s-3 0-3 2 0 2-5 1l-4 1c0 2-6 3-7 2s-1-1-1 1-1 2-3 2c-1 0-2 0-1 1 5 1 8 8 5 9l-1 2 2-1 2-1c2 0 3-3 1-4-1-1-1-1 1-3a4 4 0 002-3v1l5 1a4 4 0 006-2v2c0 2 0 2 1 1 2-2 4-1 2 1-1 1-1 1 1 1s6 3 4 3a5 5 0 01-3-1v4l-2 3c0 1-2 3-5 4-4 3-4 3-2 5h3l-1-1v-1l3-2 2-2 1-2 2 2c2 3 4 3 8 0s5-4 5-2l-2 2-2 1 5-2 6-2 1-1-4-1-3-1 4-1c2 0 2 0 0-1-3 0-10 2-8 3l-2 3c-3 2-5 2-7 0-2-1-2-1 2-5l5-4-3-1-5-1c-1-1-1-1 3-1h3v-1l-2-1 1-2c3-3 2-3-3 0l-2 1c1-2 5-4 9-5l-2-3-2-1-2 1c-2-2 3-6 7-6h2v-3l-2-3-1-2-1 3c-2 4-5 4-3 0v-3h-1l-2 5-1 4v-4c1-5 0-7-2-7s-2 0-1 2l2 4c0 2 0 2-2-1l-1-5 1-3h-1c0 2-2 1-2-1v-2l-1 2c0 1-1 1-2-1-1-4-2-4-1-1v3l-2-3-3-2v2c3 2 2 4 0 4-2 1-3 0-3-1 0-2 0-2 2-1 1 1 3 1 2-1l-3-1c-2 0-2 0 0-2l3-2h1l2-1c1-1 0-1-3-1l-4 1 3-3c2-1 2-2 1-2l-2 1c-1 2-1-1-1-4h-4c-2-1-2-1-2 1m177 1l-1 3v2h-2c-2-1-3-1-4 2l3 1h1c-2 3 0 2 3 0 2-2 6-5 9-5l1-1h-4c-3 3-4 2-3-1 0-4-2-4-3-1m129 0l-1 1 3 2 2 2h-2c-2 0-2 0-1 1l2 3h5l3 1c1-1 2-1 2 1 1 3 3 4 3 2l-1-1 1-3 1-5-7-2c-9-3-8-3-10-2m235 5l14 7c6 2 10 3 9 1v-1h-1l-2-1-7-3-5-2-8-1m-348 9c0 2 0 3-1 2 0-2-2-1-2 1-1 1 0 2 1 2l3 1c0 2 2 1 3-1l2-2c1 0 2 0 1-1a2 2 0 00-3-1v2h-2a8 8 0 000-7l-2 4m87 2c0 1-1 2-2 1l-2 2c0 3-2 4-2 2-1-1-1 0-1 3s0 4 1 3l1 1c-1 2-4 1-3 0l-1-2-2 1c0 2-1 3-2 2v3c0 3 0 3-2 2-2 0-5 2-4 3h-1c-4-2-13 1-13 5l-3 1c-3 1-3 1-3 4l-1 4v1l-1 1-2-2-2-2-2-1h-1l1 2c4 1 4 2 1 1l-2 1 3 1c2 0 2 0 1 1h1c3 0 3 0 3 2-1 5 2 9 5 5l3-2h5l-2 2-2 2h-4c-3 1-4 6-3 8l1 2 1 2c1 1 1 0 1-6l1-1c2 0 7-2 8-4 0-1 1-2 4-1 2 0 3-1 2-2-1-3-2-8-1-10l-1-2-1 4c0 3-3 6-4 4v-1c2 0 2 0 1-1v-2l-3-3c-3-3-3-4 2-2 2 1 3-1 1-3h-5l-4 1 1-1 2-1c-1-3 7-6 11-5 3 1 4 3 2 3v2l1 5 1 6 1-5c0-4 0-4 1 0 0 6 2 5 1-2 0-4 0-6 1-4s3 2 6 1h1c0 3 2 2 3 0v-5h1c0 3 2 2 3-1l1-2 1 2c0 2 4 3 6 2 3 0 2-2 0-3l-1-2 3 2 2 1 3 2c1 3 3 3 4 0 1-2 1-3-1-4-1-1-1-1 2-1h4l3-2c1-1 0-1-1-1-2 0-3 1-3 2h-9c-1-2-7-4-8-3-1 2-2 1-2-2 1-2 3-3 3-1h3l2 1c2 2 3 2 1-1-1-1-2-2-3-1-2 0-3-2-1-2 2-1 1-2-3-3h-3l-1 5c0 7 0 7-2 6-2 0-2-1-1-3 1-3 1-4-1-2l1-2v-4c-1 1-2 0-2-1l1-1 4-6c0-2-2-1-3 1m235 1c-2 3-3 4-2 5l1 8v5c1 0 0 3-2 5-2 3 0 3 3 0l2-4c0-2 2 1 2 5 1 3 2 3 7 4 5 0 7 0 6-2h-4c-5 1-7-1-7-5 1-4 1-5 3-3s2 2 1 3c-2 2-2 2 0 2 2 1 3 0 3-3s0-3-9-4c-1-1 0-1 3-1 5 0 8-2 3-2-2 0-2 0-2-4l1-5-3-1c-5 0-6 1-2 2 2 1 2 1 0 2-4 0-5-3-2-6l2-3-4 2m-255-1v4l1 1c-1 2 2 6 4 6s2-4 0-4c-4-1-3-3 0-4 3-2 3-2 1-2l-3-1h-3m177 2l-1 1h-3l-1 1c-1 3-1 3-5 2l-3 1h3c2 0 2 0 1 2v1c2-1 3 0 4 1 2 2 5 3 3 1v-2c1 0 2 1 2 3 1 3 3 3 3 0v-1l-2-2-1-2c-2 0-2-4 0-5l1-2-1 1m-152 2l-1 1h5l6 2v1c-2 0-2 0 1 5 2 4 3 4 10 3 6-1 3-2-3-2-5 1-9-2-6-4 2-1-1-4-7-6h-5m191 4v4l-2 1-3 4-2 3v3c2 3 3 3 4 0 0-2 2-3 2 0 1 2 3 0 3-4l1-4c1 0 2 1 1 2 0 2 0 3 2 4l1 2c-2 0-2 0 0 2 3 3 4 2 4-5 0-6-3-11-7-10v-4c-1-1-3 0-4 2m-401 2l-5 2h3l6 1 3 1h-3l-7-1c-5-1-4 0 1 2s10 1 12-1v-2h-5l-3-1 4-2 2-1-8 2m170 1l-1 2v3l-2 1-1 5c0 5 3 6 4 2 0-2 1-3 2-3 2 0 0-2-2-2h7l-3-2-2-2h2c2 1 2 1 1-1l-3-1-1-1h2c2 0 3-1 1-3s-3-1-4 2m-280 1l3 5a5 5 0 012 6h-3c-1-1-1-2 1-3l-4-1c-4 0-5 0-3 1v1l-3 2-1 2v-2c-1-2-4-4-5-2l-3 1h-1v1c-3 0-4 3-2 4 1 1 1 1-1 1-1 0-2 0-1 1h3c2 0 2 0 0 1-3 2-3 2 2 2 6-1 7 0 5 2-3 2-2 3 0 3l6-2c5 0 9-3 5-3l-2-1c0-4 4-1 6 3l2 2 3 1 2 1v-1c-1-2-1-2 1-1 2 0 6 5 6 7h-1l-3-1c-1 1 0 1 1 2 4 1 9 1 12-1l3-2v-1c-2 0-2 0-1-2 2-1 2-1 0-1v-1l-2-1c-2-1-3 0-5 3-2 4-2 4-4 0-1-4-4-7-5-6l2 2 1 3-2-2c-2-1-3-2-5-1h-3v-5c0-7 1-8 4-6v1a3 3 0 000 4l1-2 2-1v-1l1-2c2-1 0-3-2-3l1-1c3-2 3-3 0-3-1-1-2 0-2 1 0 2-4 1-5-1 0-4-2-4-1-1 0 2 0 2-2 0l-3-2m359 1l-5 2a27 27 0 00-17 16v1l-1 3c-2 2-2 2 0 4 1 1 2 0 0-2l2 2a41 41 0 019 17v2l-2-3c0-1 0-2-1-1h-1c-2 0-1 3 1 7l1 3 2-2 2-5v-2c1 1 2 11 1 17v3h1c1 1 1 0 1-2v-8l1-4v5-21l-2-4c-2-1 0-3 3-2 2 0 4-11 2-14l1-1c2 1 2 7 1 11-1 1 0 2 1 3h1l1-2 1-3-1-2v-1l1-2 1-2c-3-8-2-7 2 2h1v7c1 1 1 1 1-2 0-2 0-3 1-2l1 2c1 0 2-5 1-6l-1-2h2c2 1 2 2 1 4l-1 5v2c-3-1-2 0 0 2 3 2 3 2 6 0s5-7 2-6c-1 1-2 0-2-1-1-2 0-3 1-3s2-1 2-3a7 7 0 00-7-10c-2-1-2-1-2 1-1 1-1 1-1-1s0-2-2-2h-9m94 5c2 2 2 2 0 2-2-1-2-1-1 1 1 1 1 1-2 1-3-1-4 0-2 2 2 1 6 0 6-2h3c6 3 8 3 8 1s-1-2-3-2l-2 1 2-2 4-2 5-2h-9l-2 1v3c-1 1-2 0-3-2l-1-2c0 2 0 2-2 1-4-3-5-2-1 1m-140 12l-2 5v1l-1 3-1 2v-4c0-5 0-5-1-4l-1 2v5c-1 4-1 5 3 5l3 2 1-1 2-1 2-1a3 3 0 015 0l2 1 1 2 2 2c2 1 7 6 9 11l4 6 2 4c0 2 0 2-1 0l-2-2-1-1c0-3-4-5-6-4v4h2c0-3 1-1 3 4s2 5-1 1l-2-4-3-1c-2-2-3-3-3 0 1 0 1 1 0 0l-1-2a24 24 0 00-14-15h-3a29 29 0 00-12-1h-3l-3 1-3 2-1 1-1 1-3 1v2l-2 2c-1 0-2 2-1 3l-1 1-1 1h2l3 1-1 1v2h-1c-2-2-4-3-2 0v1l1 6c2 3 3 7 3 10a38 38 0 003 10l1 3 1 3 2 3 2 2 1 2a563 563 0 015 6l4 2 6 5c2 0 3 1 3 2l2 1h5l1-1a20 20 0 0011-3v1c-1 1-1 1 1 1l2-1h1l2-1 3-1 3-2 4-3 2-3 1-3c1-1 1-1-1-1l-5-1-1 2v2c-1 1-1 1 1 1v1c-2 1-3 1-4-1-2-2-2-2 0-2s2 0 1-1l-4-1c-2-2-2 1 0 3 1 2 1 2-3 3-2 0-2 1-2 2 0 2-1 2-4 2h-7c-4 2-5 2-5 1 1-1-1-3-3-4l-3-3c0-2 7 0 7 1l2 2c1 1 1 1 1-1v-1l1-2c0-2 0-3-2-2-2 0-2 0-2-4 0-3 0-4-2-4v3c0 2 0 2-1 1v-6c1-1 3 0 4 4 1 1 1 1 2-1 1-3 1-3 1-1 0 4 2 0 2-4s0-4 1-2c1 3 2 3 2 0l-1-7c2 4 2 10 1 11l-2 4h2c2-3 2-2 1 0l1 2 1-7-1-5h5l1 2c1 2 1 1 1-4v-8l1 3c0 2 1 3 2 3v-4l-2-5c0-2 0-2 1-1 0 3 2 2 1 0 0-2 0-2 1-1s1 1 1-2v-4c1 1 3 12 2 14l1 4 1-1v-2l1-4v-3a23 23 0 00-4-19c-3-6-10-15-13-15-2 0-4-2-1-2h2v-6l1-1h-1l-1-1 2-1c3 0-2-5-6-7a5 5 0 00-7 3l-4 2-2 3 1-3c4-5 4-6 3-6l-3 4m338 6v3l1 2-1 4c0 3-1 4-2 4-2 0-2 0 0 3 3 3 5 4 3 1-1-2-1-2 1 0l3 2-1-3c-1-1-1-1 2-1s5 1 4 3l-2-1c-1-2-2 0-1 2v2c-2 1 0 3 2 2 5-1 4-8-1-9l-4-1c-1-1 0-1 3-1 5 1 7 0 3-1-2-1-2-1-2-5 1-6-4-10-8-6m-560 1l-8 4-8 4c-2 0-7 3-7 5l-2 3c-3 2-2 5 1 5 4 0 4 2 1 5a6 6 0 01-10-3c-3 0-1 4 2 4l4 2c2 5 19 7 26 4l1-1c-8 2-24 0-24-4 0-1 6-4 7-3l3 1c5-1 7 0 6 2h2c2-1 3-3 1-2l-2-1-4-1-5-1c-2 0-3-2-1-2l3-1c2-2 0-2-3 0h-5c-5-2-1-9 8-11l8-4 6-3 3-1c1-2 0-2-3-1m273 1v1c0 2-3 3-5 2-3-2-6 0-5 3l3 2 1 1a1 1 0 102 0l4-5 3-5-3 1m273 6c1 5 2 8 2 5l1-1 1 3 1 6 1-5c0-3 1-4 2-5 3 0 3 0 3-5l1-3-5-1c-3 0-4 0-3 2 0 2 0 2-1 1l-2-2-1-1c-2 0-2 1 0 6m-316 3c-1 1 0 2 2 6l3 4 1 1 4 2c2 2 2 2 3 1 2-1-2-9-4-9s-1 3 2 5l2 3c-1 0-5-4-7-8s-4-6-6-5m-303 1l2 2c2 0 5 4 5 5h-2v1c1 1 0 2-1 5-3 4-2 5 2 0l5-3v2l3-1-2-5-3-4-2-2h-1c1 1 0 2-2 1l-2-1a1 1 0 10-2 0m460 1v2c2 1 1 2-3 4-3 1-5 3-5 4 0 2 11 3 11 1l-1-1c-2 0-3-2-2-3h2l5 2c5 0 5 0 4-2l-3-2-1-1-2-1c-2 0-2 0-1-1s1-1-1-2h-3m-477 2c1 1 1 1-1 1h-2l3 1 2 1h-3c-5-1-6-1-2 1l5 2 1 1c0 1 5 2 7 1 2-2 5-1 5 2v3c2 2-1 4-3 3a12 12 0 00-7 2c2 0 1 2 0 2-3 0-2 2 1 3a2 2 0 004-1l1 2 1 1-1-5v-1c1-2 2-1 3 3v4l1-3 2-2v1h7c1-1 1-1-2-1-2 1-3 0-3-1l-2-1c-2 0-3-2-1-2 2-1 0-11-2-11s-2 0 0-1v-1l-2-1a5 5 0 00-7 2l-2-5-3-2v2m38 3c-4 5-5 7-2 5l4-1-2 2c-2 1-2 1-1 2 2 1 2 1 0 2-3 1-6 0-5-3l-3 1c-2 0-3 2-2 2 0 1-2 2-3 1h-1v3c-2 3 4 4 9 2 4-1 3-2 0-1h-5c-2 0-2 0 0-2l4-1 4 1h2l4-3 3-3 3-3c2-3 2-3 0-3h-8l3-3c3-1 4-3 2-3-1 0-4 2-6 5m397 2l4 1h-5l-7 2c-1 2-3 3-3 2h-3l-1-4-1 3c0 4 1 6 3 4l3-1 4-2c2-2 3-3 6-3h5l-4 1c-4 1-3 2 1 1 5-1 4-5-2-6h-4l4 2m24 1l-2 3 2 2c3 3 8 4 11 2 2-1-6-5-8-4a1 1 0 11-1-1c3 0 5-2 3-3s-2-1-5 1m33 1l2 2c3 3 0 4-5 1-4-3-7-1-4 3a3 3 0 003 2l-10 3 1-1 4-1c2-2-3-5-7-3-6 3 9 16 19 16 2 0-2-4-6-5-2-1-4-6-2-7l1 1c0 2 10 6 14 6 3 0 3 0 2-1l-2-2-6-3-6-3 5-2c5-2 6-3 4-3l-4-2c-2-2-3-3-3-1m-48 1l1 3c3 2 2 3 0 2s-2-1 0 1c1 1 2 2 1 3-1 0 3 5 6 5l3-1-1-1c-2 0-6-5-6-8l-1-2-2-1-1-1m-138 3c0 3-2 3-4 1l-2-2v4c0 6-2 7-5 4l-2-1c1 2-4 2-5 1l-1-1c-1 0 1 3 4 5 4 5 5 8 3 6l-1 1h2l2 2 1 2v4c-1 0-3-4-2-5h-1c-1 1-3-3-2-5l-1-1c-2 0-2 3 0 5 1 2 1 2-2 0-4-4-5-4-1 0 2 3 4 4 4 3 1-2 2 1 1 4h-1l-2-3c-2-1-2-1-2 3l2 4a4 4 0 013 5v3c2 0 5 4 4 5-1 2-1 2 2 1h2l1 2v-5h-1l-4-2c-2-2-2-2 0-1l2-1 1-2c3-2 2-4-2-4-2 0-3-1-1-3 1-2 2-2 3-1l3 2 1 1v1l-1-6v-6l4 8h-1v2l1 1 1 1 2 1 1-1-1-1-1-1v-1c1 1 1 1 1-1 1-1 0-2-1-2l-1-3h3v4c0 3 0 3 2 3 3-1 4-1 6 3l2 3v-4a7 7 0 00-3-6l-2-3c-1-1-1-1 1-3l2-3-1 1c-2 4-4 2-2-3v-2c-2 1-2 0-2-1l2-2 2-1-3-1c-3 1-3 1-2-2 0-2 0-3-1-2s-3 10-1 10v-2l1-1v4c-1 0-2 1-1 2 0 1-1 1-1-1l-2-4v4c0 2 0 3-1 2v-4l-1-3-1-1 1-1c1 2 4-1 4-5l-1-4-2-1c-2-1-2-1-2 1m-336 1v3h-1l2 2 2 3c1 2 1 2 4-1s3-4 2-4c-2 0-2-1-1-2l-1-2-1 3c0 2 0 2-1 1-1-2-1-2-1 0v2l-1-1-2-4c-2-2-2-2-1 0m442 0c1 3 0 7-1 8-3 3-2 4 0 4l-4 1c-5 0-8 1-8 2l1 1 2 1 3 1c8-1 17 1 18 4l5 3 4 2-4-1c-3 0-5-2-5-2l-10-2c-8 0-9 1-2 4l21 6 1 1c0 2 1 2 8 4 4 1 4 0-1-2l-4-2h4l8 1 7 2 3 2v-1c-2 0-1-2 1-2 3 0-2-2-10-3-7-1-9-3-3-3 10 2 21 3 22 2l-6-2a141 141 0 01-36-10l-1-1-4-2c-3-2-2-2 5-1 5 1 5 0 2-3-1-1 0-1 3-1l9 2h6l-6-2-10-4a13 13 0 00-11 0c5 0 3 2-2 2-3 0-5 0-4-1l1-2 2-2 1-2c1-2 1-2-1 0-1 1-1 1-2-1 0-2-2-3-2-1m-352 7c-7 5-3 10 9 11 8 0 7 0-6-3-4 0-5-4-1-7 3-4 3-4-2-1m266 0c-2 1-2 8-1 10v3c-2 2-2 2 0 2 1 0 2-1 1-2l1-1 1-2h2c2 2 1 0-1-3-3-4-2-5 0-2 4 3 4 2 1-2-2-3-3-4-4-3m-304 5c-5 1-7 3-6 3 1 1 0 1-3 2-4 1-4 1-2 3 2 1 2 1 5-1l6-3 2-2 3-2c4-1 6-3 4-3l-9 3m31 4l-2 4-3 3c-3 2-2 3 1 1h3l7 1h7l-6-1c-7-2-9-4-5-8l1-3-3 3m302 2l-1 3c-1 1-1 0-1-1s-1-2-3-2c-3 0-4 1-2 2v1l-1 1h4l-1 1c-2 1-2 5-1 5l2-1c-1-1 0-1 1-1 2 0 2 0 0 3l-4 1c0-2-2-1-2 0l3 3c2 0 3 2 1 3-1 1-2 0-1-1 1-2-2-1-4 1-1 2-3 3-3 2l-1 1a1 1 0 11-2 0c0-2 0-2-4-2-2-1-2-1-2-3l-1-2c-1 0-2 1-2 4 0 4 1 4 3 4s3-1 3-2l1 1c2 5 17 5 15 1l1-3c2 0 2-2 0-2-1 0-1-1 1-2s3-3 3-5v-4c1-5 0-8-1-8s-2 1-1 2m-375 2l-2 2-1 1c-3 0-2 1 1 2 2 0 3 0 2-2l1-1 2 4c0 4 1 5 3 3l2-1c2 0 6-5 5-6l-3 2-2 3v-3l-1-3-1 3-1 2-1-1v-3c0-3-1-3-4-2m25 0l1 2c1 1 1 1-1 2-3 1-5 4-4 5l4-1 4-2c1 2-6 4-9 3-3 0-3 0-1-2 1-1 1-1-1-1-3 0-7 2-5 3s2 1 1 2c-3 3-1 4 2 2 4-3 5-2 1 1l-4 2a52 52 0 0016-7c2 0 3-3 2-3s0-2 3-3c3-2 3-2-3-1h-2l-2-1v-1h-2m81 3l-11 2c-4 0-5 0-4 1h29c2-1 2-1-3-1-7 0-12-2-7-2l4-1c-1-1-2-1-8 1m254 0l-2 3-2 3 1 1c1-1 1 0 1 2s0 2 1 0h2c0 2 2 3 2 1l1-3-1-1-2-3-1-3m61 4l-2 2-1 1-1 1 2 1h2l-4 1c-5 0-14 4-14 6-2 8 18 14 29 9l2-2 2-2c5-3 6-2 3 0l-3 3h2c2 0 2 0 1-1-2-1 5-3 8-3h2c1-1-2-1-6-1l-1-1-1-1-2-1-2-1-3 1c5-3 3-3-3-1-7 3-10 2-3 0 6-3 5-6-1-4l-6 1h-2l2-1 2-2 3-2c8-2 4-5-5-3m-383 8l-12 6c-7 3-10 6-4 4 7-2 7-2 3 0-5 2-7 5-3 4h3l1 1c2 0 5-4 4-4l7-4c8-4 10-6 1-2-8 3-8 3-1-2 8-6 9-8 1-3m575 3l1 2c1 1 0 2-2 3-2 3-2 3-1 5 3 2 4 1 4-1-1-2-1-2 1-2s2 0 1-2v-2c2 0 1-2-1-3h-3m-218 2c-6 4-8 5-8 10 0 4 2 5 4 2 2-2 2-2 0-3-2 0-2 0 0-1 3 0 4-2 1-2-1-1-1-1 2-2l6-4c3-3 0-3-5 0m107-1l-7 1c-6 1-9 3-4 3 2 0 2 0-1 2-2 0-3 1-3 2h12l3-1 3-1 1-2c2 1 2 0 2-1-1-2-2-4-2-2s-3 1-3-1h-1m-460 3l-4 3-4 2-4 2h3l5-1 3-2 3-4c4-4 3-4-2 0m586-1l1 1c2 1-1 4-3 4-1 0-1 1 1 1v2l-1 1 1 2c2 2 2 3 2 7 0 2 1 2 4 2 2 0 3 0 2 1-4 1-2 3 2 3l3-1c0-2-3-4-5-4h-2l2-2c2-1 2-1 0-2l-2-3v-5c2 0 2 0 1-2-3-5-6-8-6-5m-629 5c-10 5-16 8-15 9l-3 1c-4 0-6 1-5 2l-1 4v2h6l3-1-2 3-2 3 1 1c-2 2 2 1 7-1 6-4 7-4 7-1-1 2-1 2 6 2l19-1c1-1-1-1-6-1h-9l2-1h3c8-2 12-2 13-1 0 1 1 2 2 1l4-2c2-1 2-1-2-1-3 1-4 1-4-1l-2-1c-6 2-14 3-17 2s-14 1-18 2h-2c0-2 7-4 17-5l11-2H35l-7 1h-6a13 13 0 00-8 2l14-10 14-8 4-1 2-1c1-2-3-1-12 4m50-3c-1 1 0 2 1 3 3 1 2 4-3 6l-4 3-2 3c-2 0-3 2-3 2l-3 4-2 3c1 2 10 1 14-1l4-1h-5l-8 2c-2 0-2 0-1-2l6-2a1049 1049 0 0032-6c12-2 15-3 8-3l-24 4c-17 3-18 3-18 2l6-2 2-1 6-1 13-4-6 1-10 1-6 1 2-2 4-2 1-1h2c1 1 11 0 23-3h-4c-13 2-19 2-17 1l5-2-4-1-7-1v-2l-2 1m448 6c-6 1-6 2 0 1 7 0 8 1 2 3-4 0-3 2 1 2 3 0 3 0 2-1h3c1 1 1 1-2 2l-3 2 6-1c5-2 6-3 2-4-3-1-3-1-1-1 2-1 2-1 1-2-1-2-5-2-11-1m-205 4c-4 3-10 4-9 2s-7-5-9-3l-1 2c1 3-1 3-2 0-2-2-4-3-4-1l3 3c2 3 2 4-1 1l-3-1v1l2 3-2-1-6-1c-3 1-2 1 5 3l5 1-3 2-3 1h3l4-1 2-2 1 2c-1 1-1 1 1 1l4-2c1 0 2 0 1-1h-4l-2-1c-1 0-2 0-1-1l2-4 4-3c2 0 2 0-1 4s-2 6 1 2c3-3 6-3 20 0 3 0 3 0 2-1l-4-2c-3 0-2-2 0-2l2-2-4 1c-5 4-5 3-1-1 5-4 3-4-2 1m110-2c-7 1-9 1-8 3h1l11-1c6 0 8 0 7 1-5 1 4 2 11 1 4 0 4 0 3 1-3 2-12 2-12 1l-12-1c-10 0-12 1-12 2l3 1c6-2 20-2 18-1-1 1-1 1 2 2l8 2 22 1-2-1 1-1c2-1 2-1-2-2-5 0-7 1-5 2l-5 1-5-1 3-1c3 0 3-2 0-2-2 0-2 0 1-1l6-1c2 1 3 1 3-2v-2h-20c-1-1-13-2-17-1m-376 4a6 6 0 00-6 4v1h10c4-2 4-3-1-2l-5 1 3-2c4 0 6-2 5-2h-6m110 1l4 1c4 1 4 1 2 2h-5c-3-1-7 0-5 1 1 1 0 1-2 1l-7 1c-7 1 0 2 8 0l16-1c8-1 12-2 6-2-5 0-9-2-5-2l3-1h-15m-41 2a69 69 0 00-9 3l-5 1-13 3-9 2 14-1 13-3c17-3 23-4 17-4l-2-1h-6m189 2c1 1 0 2-1 2-1 1-1 1 1 1l2 2c1 2 1 2-1 1l-3-2c-1 0-1 1 1 2l2 5c1 2 2 2 4-1 2-1 2-2 1-4v-2l1 1 1 1c2-2 1-3-1-3l-3-1c-2-2 1-3 4-1l3 1-8-4c-2 0-3 0-3 2m326 2l1 1 1 2c1 2 4 3 7 1 3 0 2-2 0-2l-2-1c-1-2-7-3-7-1m-145 2l-8 1-6 1h-21l-3 1h2l14 1 11 1h7c4 0 6 0 5 1l-2 1h2l4-1 6-2 3-1-4-1c-4 1-6 0-4-1 1-2-2-2-6-1m-171 7c-3 1-4 1-3 2v2l-1 3v3c1 2 2-1 1-3l1-1c3 0 6 0 4-1v-1l-2-1c-1 0-1-1 1-2l4-1c3-2 1-2-5 0m317 9l2 1 1 1 2 1 4 3c1 1 5 1 8-1 1-1 0-1-2-2l-4-1-3-1c-2 0-3 0-2-1 2-1 0-2-3-2-2 0-3 1-3 2m-351 1l5 2 2 2 3 2 4 2c2 1 2 1 2-1v-1l2 2c-1 1 0 3 1 4 3 3 4 4 6 1h1l4-1-1-1c-2 1-4-1-3-5l-1-4-1 3c0 2 0 2-1 0 0-2-1-2-3-2-1 1-2 0-3-1 0-2-3-1-4 1l-1 1h-1c-2 1-2 0-5-2-2-4-5-6-3-3l-1 1-1-1-3-1c-2 0-2 1 2 2m-14 5l-1 3-1-2c-1-2-1-2-2-1l-2 3c-3 2-2 3 1 5 2 2 2 2 4 1l3-2 1-1 2-3c2-2 0-3-2 0-2 2-3 1-2-1l1-3c-1-1-1 0-2 1m82 6c-2 0-2 1-1 4 0 3 0 3-1 2l-7-4 2 2 3 3 2 2h1c1 1 6-1 6-3l1-4-2 1-2 2v-3c1-2 0-3-2-2m-109 3l1 3 5 2c4 1 5 2 5 4s0 2 2 2l2-1v-2l2-3 2-2h-10a2 2 0 110-3v-1c0-1-1-1-3 1l-2 2-2-2c-1-4-2-4-2 0m81 4c0 2 0 2-1 1h-5l-3-1 2 2 6 5a2 2 0 104-1l-1-4-2-4v2m11 5c-3 1-3 4 0 4l2 2 2 3 2 3c0 2 2 3 3 0l1-1c2 1 9-6 9-7l-2 1c-2 1-2 1-2-1h-2v3c1 1 1 1-1 1s-2-1-2-3c1-3-1-4-2-1l-1 3-1-3c0-1-1-2-3-2s-2 0-1-2h-2m379 42c-10 1-7 2 4 2l8-1-2-2-10 1"
      itemprop="regular" tabindex="-1" style="fill-opacity: 0.9; fill-rule: evenodd;"></path>
    </symbol>
    <symbol id="-posters-1650742963857-bold">
      <path d="M512 18c0 2 2 4 4 4 1 1 9 13 9 17l1 1 2 1c2 3 0-3-2-7-2-3-2-4-1-4l1 1 2 4 4 6v-1c-1-7-6-17-8-14l-3-2-4-3-3-2c-1-3-2-4-2-1m204 6v3l-3 3v-3l-1-2c-2-1-2-1-2 1-1 8-1 8 4 7h3l-3-1c-2-1-2-1 0-1 3 0 3-2 3-6-1-2-1-3-1-1M533 36c4 9 4 10 4 4v-4l1 2 1 3 1 4c-1 2 0 4 1 6v-3c-1-11-1-12-4-13l-3-4-3-2 2 7m-371-3c1 2 0 3-1 4s-1 1 1 1c2-1 4 0 8 2l5 2-3-3c-4-1-5-3-3-3l2-2-1-2-1 2-3 2c-1 0-3-2-1-3v-2c-2-2-3-1-3 2m200 4c-2 3-2 16-1 16l1-2 1-2c3 0 4 0 3 1l1 1 1-6c0-4-1-6-2-6l-1 4-1 5-1-5-1-1c-1-1-1-1 1-3l1-4-2 2m-225 4l-3 1-2 1 4 6c2 1 2 4 0 2l-1 4c0 5 1 5 3 1s1-19-1-15m431 10l1 3c1 3 1 3-1 3-2-1-3 3-1 4 2 3 3 2 3 0 0-4 4-5 6-2 1 2 1 2 0 0 0-3-3-6-5-6a2 2 0 01-3-2M55 54c-7 5-11 12-11 20 0 3 0 4 2 4l1-5c0-9 4-15 13-21v-1l-5 3m521-1l7 9c1 0 2 0 2 2l1 1c1 0 2 1 2 3l2 3c2 0 1-5-1-7l-5-7c-1-1-1-1-1 1v2l-1-2a5 5 0 00-6-5m139 11l-3 2-2 1 1 1c2-1 2 0 2 3v3l-2-3c-2-2-3-3-3-1v4l1 4c0 2 0 3 1 2l1-3 1-2 3-1h2l1 1a10 10 0 00-1-12c0-2-2-1-2 1m-141 6l-1 4c1 1 0 1-1 1l-1 2 1 2 2 1c3 0 4 1 3 3-2 2 3 1 7-1 3-1 3-1 5 1l4 3v-3l-2-1c-1-1 0-2 1-2l2-1-1-1c-3 1-4-1-2-3l2-3-4 3-3 2-1-4-2-1c0 2-2 1-2-1l-3-2-3-2-1 3m-427 1l-5 1-3 1c0 1 5 2 7 1h7c0-3 2-2 3 0l1 2 1-1v-1l1-1c0-2 1-2 3 0 4 2 12 2 9-1-2-2-22-2-24-1m221 6c-3 3-4 5-3 7 1 0 1 1-1 1l-2 4c0 2 0 2 3-1 3-4 4-5 2-5l3-1c2 0 3 0 2 1 0 2 1 3 3 1h1c0 3 1 2 3 0s3-7 1-7l-3 1c-2 3-3 2-3 0v-2h-2c-1-1-3 0-4 1m-19 13c-3 2-3 2-1 4 1 1 1 1-1 1s-3 0-2-1l-1-1c-2 0-3 1-2 2 2 2-1 6-3 4h-3l-3 1c-2-1-6 1-6 3s2 2 5 1l5-1 6-3 5-2c1 0 6-6 6-8s-1-2-5 0m274 4l2 2v2l-2 2c-2 0-2 0-1 1 3 2 3 1 5-3 2-5 1-7-2-7-2 0-3 0-2 3m-248 4l-2 6c0 3-5 11-10 15l-1 2c3 0 14-14 16-20 0-4-1-6-3-3m-155 2h-4l-6 2 8 1c9-1 12-2 8-4-4-1-3-1-6 1m142 3l-1 3c-1 2-2 2-3 1-2 0-2 0-1 1s0 2-2 5c-4 5-2 4 4-2 4-3 5-5 5-7s-1-2-2-1m5 1c0 2-3 5-7 9-3 3-4 6-3 5l3-2c1-2 3-3 2 0 0 1 6-4 7-7v-7l-2 2m241 5c0 2 1 4 4 6a12 12 0 015 7c1-1-1-9-2-12l-3-2-3-2-1 3m-373-2l-9 2c-9 0-12 1-11 2l33 1-12-5h-1M43 117c-5 5-5 11-2 14 3 4 6 4 4 1v-2l1-1v-1l2-1 1-1h3c2-1 2-1-1-1l-4-1c0-2 1-2 3-1h2l-2-1-1-2v-2c-4-2-2-3 3-3l4-1-5-1c-5 0-6 1-8 4m200 1c0 2 6 4 13 5 7 0 6-1-2-3-10-3-11-3-11-2m412 5c-4 8-4 8-2 10 2 3 6 1 4-1-1-2-1-9 1-11s2-3 1-3l-4 5m-8 0l-4 5-2 6-1 5h1l1-5c0-2 1-2 2-2 2 0 6-4 6-7 0-4-1-5-3-2m-157 11a567 567 0 01-10 4h4a16 16 0 0015-7l-9 3m9 2c-8 2-16 7-11 7l-1 2v2c3-1 4 0 2 1l-4 1-1 1-2 3c-1 2-1 2 1 1 3-2 4-2 4-1-1 1 0 2 1 1l1-2c-1-1-1-1 0 0 2 1 4-2 4-5l3-3c2-1 5-2 6-4a9 9 0 015-4h-8m-41 5c-10 4-12 6-8 6l2-1h2c2 0 2 0 1 2-1 1-1 1 0 0l2-2c-1-1 3-3 10-5 4-1 4-3 1-3l-10 3m164 0c-4 3-10 10-9 11l5-3 6-6 2-3c2-3 1-2-4 1m-181-1l-4 1h-5l-1 1h3l3 1h7l-3 2-2 2 18-7-4-1-5 2h-1l-6-1m34 2l-6 2c-5 0-7 1-12 5-4 4-1 4 3 0l4-2-5 5c-3 3-4 4-2 4 1 1 2 0 5-2l4-3c1 0 12-10 10-10l-1 1m-2 6c-7 4-15 11-18 16l4-3 7-5 4-3 4-3 2-1 5-3 3-2c0-2-4-1-11 4m-254-1l2 1 6 3a26 26 0 0011 4l-1-1-19-9 1 2m433 2v14l2-4 1-10c1-1 0-1-1-1l-2 1m-431 3l-1 2c-3 0-2 1 2 4 4 1 13 3 16 2v-2l-9-3c-7-4-8-5-8-3m408 18c-1 2 1 4 4 3l7 2c5 4 7 4 5 0 0-2-3-3-3 0h-1l-1-1c1-1-1-4-3-4l-2-1c-2-2-6-1-6 1m-29 1l-8 6 6 6 3 2c3 2 9 3 9 2l1 1c1 2 5 3 8 1 2-1 0-5-3-6-3 0-4-1-2-3v-3h-2c-1 2-4 3-4 1l2-2c4-4-3-7-10-5m-382 46c-5 1-3 7 3 7 4 0 4 0 3-1-2 0-2-1-1-1l1-1 1-2 1 1 2 1c2 0 3-1 1-4h-11m242 26l-4 3c1 1 0 1-1 2-3 1 7 5 11 4 4 0 5 1 4 2-2 2 4 3 8 1 4-1 5-3 3-3v-1c0-1-1-2-3-2l-3-2c-1-1-3-1-7 1-6 2-11 1-8-1h6l3-2v-2c0-2-3-2-9 0m-18 6l-4 2h-3c2-4-7 1-13 7l-4 2 3-4c5-5 5-5-1-4h-5c-2-2-5-2-12-1l-7 2-7 3-5 2-4 2h2l12-1c2 1 7-1 13-4 2-1 7 2 7 5 0 2 2 2 8 1s10 2 5 4l-3 1h9l-1-1-1-1 4 1c4 2 8 1 8-2 0-1-8-2-10-1l-3-1c-1-1 9-9 13-11l3-1h-4m2 11c3 1 4 4 1 6-2 0-3 2-3 2h-3c-3 0-3 0-2 1l4 2h2a3 3 0 014 4l-1 1c0 2 5 1 9-2a6 6 0 015-2l1-2c3-2 4-2 2 1l-1 2 2-1 3-1c2 0 5-1 8-4a22 22 0 018-5h-4c-4 0-4 0-2-1l3-2h-4c-7 1-16 4-15 5 0 2-11 10-12 9l5-5 4-5 4-2 5-1-4-1-4 1a30 30 0 01-15 0m-67 3a11 11 0 00-6 3l-11 7c-1 1 0 2 1 2 2 1 2 1 1 2-2 1-2 1 0 1l3-1 2-1h2c1 0-1-4-3-4v-1c4-2 15 0 17 4 1 2 1 2 3 0 4-3 1-6-5-5-1 0-2 0-2-2 0-1 0-2-2-2l-1-1 9-1c-1 1 0 1 4 2 3 1 5 2 5 4s1 2 3 2h4l-3-1c-6-1-1-2 5-1 3 1 4 4 1 3l-2 1 6 1 6 1 2 1a9 9 0 018 4v-2l-1-2h1l2 1v-1c-1-2-3-2-5-1l-3-1v-2h-5c-4 0-5-1-5-3l-1-1c-2 1-10-1-10-3-1-2-2-2-4-2l-5-1c0-2-4-2-11 0m296 27l-1 3-2 4-2 1v1c2 2 1 10-1 10h-3c0-2-3-5-5-5l-6-2c-6-4-8-4-8-1-1 3 4 15 7 18l2 3-5 3c-15 8-20 13-22 18l-2 4-1 6c0 4 0 4-2 4l-2-1 2 2 2 4c0 4 3 10 6 13l9 12c5 7 7 8 12 10l6 3 5 1 5 1c1 2 3 2 3 1 2-2 9 0 9 3l-2 1c-2 0-3 2-1 2v2c-2 2-3 7-1 7v4l1 2 2 2 2 1 1 1h6c3 2 4 2 6 1l7-9 2-1c2-1 4-4 2-4v-1c4-4 9-19 7-21l-2-5c0-4-1-5-2-3l-3 1 1-2c2 0 3-4 1-4l-2-2-1-2-2-1-3-2-2-1-5-1-4-1 1-1v-1l-4-1h-6l-5-2c-21-3-26-18-8-23l9-5c5-3 6-4 11-17l3-7c3-8 3-11-3-11-5 0-9-4-9-8s0-5-2-5l-1 1m-263 25c-5 2-8 4-7 5l-1 1-3 3-3 2v3l-1 2c-2 2-3 4-1 6h2c1-1 1 0 1 2 0 3 2 8 4 8l1 2 1 1v-4l1-5c0-2 1-3 2-3l1-1h2c2 3 3 2 3-6 1-4 1-5-1-5s-3 2-3 6-2 4-2 0c-1-3 1-7 4-8l2-2 1-1 1-1 1-2c2-3 0-4-5-3m-368 9l3 4a13 13 0 014 7l1-1-1-2 1-2 3-2c1 0 1-1-1-1-2-2-3-2-3 0v2l-2-2-1-3c0 2-2 3-2 1s-2-3-2-1m339 8l1 1 1 1-1 1c-1-1-2 0-2 1-1 2-2 2-2 0-1-2-2-2-3 0a6 6 0 004 7h3c3-1 5-3 3-3l-1-1c1-3 0-7-1-7h-2m-49 1v11c0 2 1 2 4 0l2-1c1 1 5-1 4-2h-1l-3-2c-1-3-1-3 2-3 2 0 2 0 1 1-3 1 0 3 2 2 3-1-2-5-5-5l-4-1h-2m241 6v1h-2a15 15 0 00-12 1c0-2-8-2-9 0 0 1-1 2-3 2s-3 0-2 1l-2 1h-5l-2 2 4 4c5 5 6 5 2 0-2-3-2-4-1-4l3 1 3 1c3 0 4 1 2 2-1 1 0 1 2 1s2 0 1 2h3c7-1 9-2 3-2h-4l3-1c3-1 3-1 1-1-3 0-3-3 0-3a2 2 0 100-4l4 1c3 1 3 1 5-1 2-1 2-1 1 1h1l4-1c4 1 4 0 2-3l-2-1m-205 12c0 2 4 5 5 4v3c-1 2 0 3 1 2s1-1 1 4v3l1-2a2 2 0 003-1l1 3c1 2 4 3 4 1l-1-1c-2 1-3-1-1-1 1-1 1-2-1-5l-2-2-1 2c-2 5-2 3-1-2 1-3 1-3-1-6-3-2-6-3-4-1l-1 1-1-1-1-2-1 1m139 4a11 11 0 004 15l-1-3-3-4c0-2 0-2 2 0l4 3-1-1c-3-2-2-5 1-4l1-1 1-2c2-2 0-3-3-1-5 4-7 3-5-1s2-4 0-1m-165 1v2c0 2 0 2-1 1-2 0-2 0-2 2 0 1 0 2 2 1l1 1c-1 1 0 3 1 4 2 1 2 1 1-1s0-3 1-1a2 2 0 004-2c-1 0-4-4-4-6s-1-3-3-1m221 0l-4 2c-6 2-6 3-1 2h4l-3 1c-3 2-3 2-1 2s2 0 0 1c-1 2-1 2 2 1l3 1c-1 2 0 2 6 0 2-1 3-1 1-1-4 1-5-1-2-2h3l-3-1c-2 0-2 0 0-2 1-1 1-1 0 0l-2-1v-1l2-1-1-1-2-1-2 1m-20 14l3 4 6 3c4 3 4 3 2 4s-2 1 1 2l5 2 5 2 5 1-6-3c-6-2-9-5-3-4h1l-5-3c-2 0-2 0-1-1 2-1 2-1-2-2l-6-3c-4-3-5-3-5-2m-74 3l-2 1 3 1 7 1 6 2 2-1c0-2-12-5-16-4m-11 4v1h1l1 1 9 1 9 2-1-2c-2-2-15-4-19-3m41 2l5 2 6 3h4c2-1-4-4-7-4l-2-1-4-1c-3 0-3 0-2 1m-9 2c-1 1 1 3 5 4l6 1c3 2 10 3 10 3l-11-5-3-1c-2-2-7-3-7-2m-10 3l7 4 18 4h4c1-1 0-1-5-2l-18-6-2-1-4 1m-16 2l11 4c13 5 17 6 17 4h4l2 1a12 12 0 008 1l-2-1-2-1-4-1-12-3-8-2-3-1c-9-2-11-2-11-1m-19 13c-4 2-6 5-4 6 0 1 15-3 15-5 1-1 0-1-1-1l-2-1c0-2-4-1-8 1m17 5l-7 1c-12 1-15 3-8 5 3 2 6 2 12 2 9-1 10-2 7-4l-1-2-1-1-1 2h-4c-3-1-3-1 4-3l1-1-2 1m196 11c-3 0-2 2 0 2 1 1 2 1 1 3l1 3 4 1 1-2-2-7h-5m6 11v1l2 2 1 2 2 2 4 1c3 0 3 0 1 1v2l3 2c2 1 7 0 11-4l2-2-3 1-3 1v-1c0-2 0-2-3-2-2 1-4 0-5-1l-4-2-3-2c-1-2-4-3-5-1"
      tabindex="-1" itemprop="bold" style="fill-opacity: 0.75; fill-rule: evenodd;"></path>
    </symbol>
  </defs>
  <use class="background" href="#-posters-1650742963857-background" fill="url(#-posters-1650742963857-background-gradient"></use>
  <use class="light" href="#-posters-1650742963857-light" fill="url(#-posters-1650742963857-light-gradient" filter="url(#light-filter)"></use>
  <use class="regular" href="#-posters-1650742963857-regular" fill="url(#-posters-1650742963857-regular-gradient" filter="url(#regular-filter)"></use>
  <use class="bold" href="#-posters-1650742963857-bold" fill="url(#-posters-1650742963857-bold-gradient" filter="url(#bold-filter)"></use>
  <use class="emboss" tabindex="-1" href="#-posters-1650742963857-light" fill="url(#-posters-1650742963857-light-gradient" filter="url(#emboss)"></use>
  <use class="emboss" tabindex="-1" fill="url(#-posters-1650742963857-regular-gradient" href="#-posters-1650742963857-regular" filter="url(#emboss)"></use>
  <use class="emboss" tabindex="-1" fill="url(#-posters-1650742963857-bold-gradient" href="#-posters-1650742963857-bold" filter="url(#emboss)"></use>
  <defs>
    <g class="gradients">
      <radialGradient gradientUnits="userSpaceOnUse">
        <stop itemprop="radial" stop-color="hsla(45, 9%, 76%, 1.00)" offset="0%"></stop>
        <stop itemprop="radial" stop-color="hsla(45, 8%, 75%, 1.00)" offset="15%"></stop>
        <stop itemprop="radial" stop-color="hsla(45, 8%, 78%, 1.00)" offset="30%"></stop>
        <stop itemprop="radial" stop-color="hsla(46, 9%, 80%, 1.00)" offset="45%"></stop>
        <stop itemprop="radial" stop-color="hsla(47, 9%, 72%, 1.00)" offset="60%"></stop>
        <stop itemprop="radial" stop-color="hsla(46, 9%, 74%, 1.00)" offset="75%"></stop>
        <stop itemprop="radial" stop-color="hsla(45, 8%, 74%, 1.00)" offset="90%"></stop>
      </radialGradient>
      <linearGradient gradientUnits="userSpaceOnUse" x1="0" x2="0" y1="0" y2="100%">
        <stop itemprop="vertical" stop-color="hsla(45, 9%, 76%, 0.69)" offset="0%"></stop>
        <stop itemprop="vertical" stop-color="hsla(45, 8%, 75%, 0.69)" offset="15%"></stop>
        <stop itemprop="vertical" stop-color="hsla(45, 8%, 78%, 0.69)" offset="30%"></stop>
        <stop itemprop="vertical" stop-color="hsla(46, 9%, 80%, 0.69)" offset="45%"></stop>
        <stop itemprop="vertical" stop-color="hsla(47, 9%, 72%, 0.69)" offset="60%"></stop>
        <stop itemprop="vertical" stop-color="hsla(46, 9%, 74%, 0.69)" offset="75%"></stop>
        <stop itemprop="vertical" stop-color="hsla(45, 8%, 74%, 0.69)" offset="90%"></stop>
      </linearGradient>
      <linearGradient gradientUnits="userSpaceOnUse" x1="0" x2="100%" y1="0" y2="0">
        <stop itemprop="horizontal" stop-color="hsla(46, 9%, 76%, 1.00)" offset="0%"></stop>
        <stop itemprop="horizontal" stop-color="hsla(45, 8%, 77%, 1.00)" offset="15%"></stop>
        <stop itemprop="horizontal" stop-color="hsla(46, 8%, 79%, 1.00)" offset="30%"></stop>
        <stop itemprop="horizontal" stop-color="hsla(45, 9%, 72%, 1.00)" offset="45%"></stop>
        <stop itemprop="horizontal" stop-color="hsla(45, 8%, 75%, 1.00)" offset="60%"></stop>
        <stop itemprop="horizontal" stop-color="hsla(46, 8%, 73%, 1.00)" offset="75%"></stop>
        <stop itemprop="horizontal" stop-color="hsla(45, 10%, 75%, 1.00)" offset="90%"></stop>
      </linearGradient>
    </g>
    <g class="generated gradients">
      <radialGradient id="-posters-1650742963857-background-gradient" gradientUnits="userSpaceOnUse">
        <stop stop-color="hsla(45, 9%, 80%, 1)" offset="0%"></stop>
        <stop stop-color="hsla(45, 8%, 80%, 1)" offset="15%"></stop>
        <stop stop-color="hsla(45, 8%, 80%, 1)" offset="30%"></stop>
        <stop stop-color="hsla(46, 9%, 80%, 1)" offset="45%"></stop>
        <stop stop-color="hsla(47, 9%, 80%, 1)" offset="60%"></stop>
        <stop stop-color="hsla(46, 9%, 80%, 1)" offset="75%"></stop>
        <stop stop-color="hsla(45, 8%, 80%, 1)" offset="90%"></stop>
      </radialGradient>
      <linearGradient id="-posters-1650742963857-light-gradient" gradientUnits="userSpaceOnUse" x1="0%" x2="0" y1="0" y2="100%">
        <stop stop-color="hsla(45, 9%, 60%, 0.9)" offset="0%"></stop>
        <stop stop-color="hsla(45, 8%, 60%, 0.9)" offset="15%"></stop>
        <stop stop-color="hsla(45, 8%, 60%, 0.9)" offset="30%"></stop>
        <stop stop-color="hsla(46, 9%, 60%, 0.9)" offset="45%"></stop>
        <stop stop-color="hsla(47, 9%, 60%, 0.9)" offset="60%"></stop>
        <stop stop-color="hsla(46, 9%, 60%, 0.9)" offset="75%"></stop>
        <stop stop-color="hsla(45, 8%, 60%, 0.9)" offset="90%"></stop>
      </linearGradient>
      <linearGradient id="-posters-1650742963857-regular-gradient" gradientUnits="userSpaceOnUse" x1="0" x2="100%" y1="0" y2="0">
        <stop stop-color="hsla(46, 9%, 50%, 1)" offset="0%"></stop>
        <stop stop-color="hsla(45, 8%, 50%, 1)" offset="15%"></stop>
        <stop stop-color="hsla(46, 8%, 50%, 1)" offset="30%"></stop>
        <stop stop-color="hsla(45, 9%, 50%, 1)" offset="45%"></stop>
        <stop stop-color="hsla(45, 8%, 50%, 1)" offset="60%"></stop>
        <stop stop-color="hsla(46, 8%, 50%, 1)" offset="75%"></stop>
        <stop stop-color="hsla(45, 10%, 50%, 1)" offset="90%"></stop>
      </linearGradient>
      <linearGradient id="-posters-1650742963857-bold-gradient" gradientUnits="userSpaceOnUse" x1="0" x2="100%" y1="0" y2="0">
        <stop stop-color="hsla(45, 10%, 8%, 1)" offset="0%"></stop>
        <stop stop-color="hsla(45, 10%, 8%, 1)" offset="15%"></stop>
        <stop stop-color="hsla(45, 10%, 8%, 1)" offset="30%"></stop>
        <stop stop-color="hsla(46, 10%, 8%, 1)" offset="45%"></stop>
        <stop stop-color="hsla(47, 10%, 8%, 1)" offset="60%"></stop>
        <stop stop-color="hsla(46, 10%, 8%, 1)" offset="75%"></stop>
        <stop stop-color="hsla(45, 10%, 8%, 1)" offset="90%"></stop>
      </linearGradient>
    </g>
  </defs>
  <defs>
    <filter id="light-filter">
      <feColorMatrix in="SourceGraphic" type="matrix" values="1.5 0 0 0 0
                0 1.5 0 0 0
                0 0 1.5 0 0
                0 0 0 1.5 0"></feColorMatrix>
    </filter>
    <filter id="regular-filter">
      <feColorMatrix in="SourceGraphic" type="matrix" values="1.5 0 0 0 0
                0 1.5 0 0 0
                0 0 1.5 0 0
                0 0 0 1 0"></feColorMatrix>
    </filter>
    <filter id="bold-filter">
      <feColorMatrix in="SourceGraphic" type="matrix" values="1 0 0 0 0
                0 1 0 0 0
                0 0 1 0 0
                0 0 0 1 0"></feColorMatrix>
    </filter>
    <filter id="emboss">
      <feConvolveMatrix kernelMatrix="3 0 0
                      0 0 0
                      0 0 -3"></feConvolveMatrix>
    </filter>
  </defs>
</svg>
