<svg id="-posters-1650743006454" itemscope="" itemtype="/posters" itemid="/+/posters/1650743006454" viewBox="0 0 819 512" preserveAspectRatio="xMidYMid slice" tabindex="0" xmlns="http://www.w3.org/2000/svg"><defs><symbol id="-posters-1650743006454-background"><rect itemprop="background" width="100%" height="100%" tabindex="-1"></rect></symbol><symbol id="-posters-1650743006454-light"><path d="M0 256v256h820V0H0v256m0 1c0 140 1 198 1 127a76920 76920 0 00-1-127M761 81c-1 1 0 1 3 1 5 0 7 2 4 4v2c2 0 5-2 5-4 0-3-8-5-12-3m-345 7l-10 1c-5-1-5-1-7 3-2 3-2 10 0 13v3l6 1c6 2 27-2 27-4-1-1 0-3 1-4 7-9-5-18-17-13m356 1l-4 1c-4-1-6 2-2 3l4 3h4a8 8 0 016 1l-3 1c-1 2-1 2 2 1l4-1-5-4a12 12 0 01-6-6v1m-361 29c-1 5-4 7-5 5l-2-2c-2 0 3 6 5 6s2 1 1 3c-1 3 1 5 2 3l2-1c2 0 3-1 3-3 0-7 5-6 6 1 0 3 1 3 3 3 3 0 4-1 2-3s0-6 4-7c2-1 4-5 3-6l-2 1c-3 3-4 3-11 3-5-1-8-2-8-4-1-3-3-2-3 1m8 69l-2 2-2 3-3 6c-2 2-5 9-3 7v7l1 3 1-5c1-6 2-6 3-2l1 3 1-3 1-3c3 0 5-12 3-18l-1-2v2m-269 1l1 2v7l1 2v1c-1 2 3 8 5 8s2 0 1-1c-2 0-4-4-2-5 2-2 3-1 2 1l1 2c2-1 4-4 2-5l-7-11a2 2 0 00-4-1m200 19c-5 2-6 3-6 5s3 5 5 4c2 0 2 0 1 1l4 5 4 5a21 21 0 0011 7l3 1 3 2 11 1c9 0 9 0 7-2l-7-1c-4 1-12-3-10-4h8c0-1 1-1 2 1l4 1 7 2c4 2 6 2 6 1l-1-1-2-1-4-2c-3-1-4-2-3-3h1l5 3c7 3 8 6 4 8-7 3-1 3 13 1 7-2 15-7 14-10l1-1c6 1 6 0 2-5s-4-5-9-2l-5 1-4 1c-2 2-20 1-25-1l-3-2 4 1h13c8 1 10-1 2-3-4-1-2-2 2-1h5l-4-1c-5-2-9-2-9-1 1 2-6 1-7-1-3-2-13-4-14-2-1 1 2 2 3 1l4 2c4 2 3 3-2 2l-6-2c-3 0-4-1-4-2l-2-1-7-4c-6-4-11-5-15-3m-161 2l-1 1-1 1c-2 1-2 1 0 2 1 1 1 1-1 1l-2 1-1 1c-1 0 0-4 2-6v-2c-2 0-9 11-9 13 0 1-5 1-13-1h-11a136 136 0 01-45 15l11 1 9 1v1l-1 1h7c2-1 3-1 7 2l8 2 5 1-2 1-2 1 7 1c5 0 6 0 4-1-8-2 3-1 16 2h20l2 5c3 6 11 15 15 17 2 1 17-9 23-17l7-7c9-2 5-3-12-2l-5-1 14-3c8 0 9 0 10-2v-2l2 2c1 2 2 2 2 1l3-2c1 0 2 0 1-1l1-2 2 2c0 4 1 5 3 3h3c7 4 13 5 14 2l-4-1c-5-1-8-4-8-10l-1-3h-3c-2-1-4 0-7 3-1 1-2 2-3 1l-2 1c0 2-2 1-5-1s-5-3-15-5c-2 0-4-1-4-3-2-2-4-2-3 0 0 1-1 2-3 1-3 0-3 0-3-2l-6-1h-4c2-2 4-2 11-1l8-1-8-2h-1l13-3-1 3c-2 0-2 2-2 3v3c-1 1-1 1 1 1a5 5 0 015 0v-1c1 0 2-1 2-3l2-3c4-3-8-6-15-5-11 2-17 2-25 0l-7-4c0-1-1-1-4 1m70 9c-7 2-12 5-9 7v3c0 2 1 2 5 1 2 0 2-1 1-2s-1-1 1-1l7-2c5-3 8-4 6-2h1c5-4-2-7-12-4m107 4c-1 3 2 5 13 5l9 2c3 0 3 0 2-1l-5-2-4-1-7-1-7-2h-1m-154 9l1 1c2 0 1 2-2 2l-3 1 3 1h13l-3-1a5 5 0 01-6-4h-3m-200 5c-3 4-4 7-2 13 1 5 1 5 3 3s3-4 0-4a2 2 0 01-1-3l2-1 7-3-1 8c-4 17-3 18 2 3 2-6 4-13 6-15l3-4h-6l-7 1c-1 2-3 1-3 0 1-3 0-2-3 2m94 9l-3 1-5 1c-3 0-3 0-1 1l2 2h-2l-2-1v1c2 1-17 3-25 3s-9-1-7-2v-1c-3 0-12 8-13 13-1 3 3 2 4-2 2-4 3-4 3 0l1 4 1-2c-1-3 6-5 12-4 4 1 4 3 1 3l-3 1 1 1v6l-1 2c0 1 0 2-1 1l-2 4c1 1 5-1 5-3h1l1 5c-1 3-1 3 3-1s5-6 3-6l-1-3-1-5v-3c2 0 5 4 5 6l1 2 2 1 2-1-1-2-1-1h2l3 2 2 2 1 1 3-7c0-1 5-2 15-2l9-1c0-1-2-2-7-3l-6-1c1-1 1-1-1-1h-3l-9-1c-9 0-10-1-1-2h8c1 1 1 1 1-1-1-2 0-3 4-1 3 2 3 2 4 0s2-2 6-2 5 0 4-1h-9l-7-1 5-1 5-1h-8m67 6l-7 2h-4l-2 1c0 2 3 2 4 1h6l7-1 4-2v-1l-3-1-5 1" tabindex="-1" itemprop="light" style="fill-opacity: 0.78; fill-rule: evenodd;"></path></symbol><symbol id="-posters-1650743006454-regular"><path d="M0 256v256h820V0H0v256m0 1c0 140 1 186 1 102 0-138 0-154 2-152 1 2 1 2 4 1l9-1 7-1c4-2 25-2 25 0h1c0-1 1-2 3-2a993 993 0 0063-3 6 6 0 008-4c4 0 3-43-1-43-1 0-4-3-9-12-1-3-2-3-4-3-6 2-9-1-12-13-2-8-4-38-4-58V26h-7l-7 1-1 20v22l-2 6-3 9-1 5v12l-1 11c-2 0-2 2 0 3 1 1 1 1-1 1-3 1-7 7-6 9 1 1-1 4-6 10-3 3-2 10 0 15 2 3 3 5 2 6l-2-2-2-3a206 206 0 002 38c0 2 1 3 3 4 4 2 2 4-2 3l-10 1-18 1-21 1-9 1V100L0 257M755 27v1l-1 2v6l2 3c0 1 5 7 7 7l1 2c1 3 3 3 4 0l2-3c3 0 8 2 7 3l-1 1v1l1 1c0-2 2-1 5 1s3 3-1 2c-3-2-4 0-1 2v1h-7l2 1 1 1 1 1c1-1 4 0 6 2 4 4 10 5 9 3-1-1 0-2 2-1 2 0 2 0 1-1-2-2-1-4 1-3 3 0 5-1 3-3h-7c-5 1-6 0-7-1 0-3 1-4 2-2 2 1 5 0 5-2s0-2-3-1l-3-1 1-3 2 1c1 1 2 1 2-1 1-2 1-2-2-1-2 0-2 0-1-1l3-2 1-2c-1-2-1-2 3-2s4 0 2 2c-2 1-2 3 1 2 3-2 7-1 7 1l2 2c1 0 2-2 0-2-2-1 0-4 2-4a1 1 0 000-3l-1 1-1-1 1-3c1-1 4 1 3 3l2 1c3 0 3 0 3-3v-3l1-3c0-2-2-3-3-1h-1c0-2-2-2-29-2l-29 1M115 40l1 3v3a21 21 0 002 10c0-3 2-2 5 3 2 3 1-2-1-7-2-2-3-6-3-7-1-4-4-7-4-5m558 1v10c0 5 1 5 3 6h6c2 0 3-1 1-6l-3-3c-2 1-1-1 1-2 3-2 3-2-2-4-4-2-4-2-6-1m-236 5c1 2-1 3-1 1l-2-1c-2 1-2 1-1 2v2l-1-1c-1-1-4-1-8 2a17 17 0 01-8 3l-4 2c-5 1-10 7-11 11 0 2-1 3-2 3v3l1 4c-1 3 1 6 3 5l4-2c3-1 4-3 2-6-3-2-2-3 1-2h1l1-1c2 0 2 3 1 4-2 3 0 7 4 7l6 1 6 2 5 2 3 1 2-1c-1-1 3-2 8-2h3l-3-1-10-1c-11 0-9-3 2-3 7 0 7 0 7-4 0-3-1-4-2-4-1-1 0-1 2-1h3l-1-1-9-4-11-4c-3-1-3-1-1-3s5-3 7 0c3 2 4 0 2-3v-5l2 5c1 4 3 6 4 6v-2l-1-2c2-3 2-10 0-9-2 0-3-2-1-2a2 2 0 10-3-1m331 4c0 1-1 2-8 2-8 0-9 0-8 3a1 1 0 11-2 0l-1-1c-1 1 2 4 4 4 1-1 2 1 1 5l2 1 2 1 3 1c2 0 2 0 2 2-1 1 0 1 2 1l4 1c0 2 0 2-2 2s-2 0-2 2a2 2 0 01-4 1l-1-1v2c0 3 8 2 10-1 4-4 6-5 6-1l-1 2c-1-1-4 3-3 4 3 2 9-9 7-13l-2-1h-1v-3c1-1-1-3-3-3l-1-1-1-5v-1l1-2c0-3-3-4-4-1m-32 4l-1 2-1 1v8l1 2v2h4a7 7 0 010-10l-2-1c-2 1-1-1 1-2a2 2 0 10-2-2m-13 7c4 5 7 11 6 13 0 1-1 1-1-1-1-1-1-1-1 1l2 4 3 1-1-6c0-6-5-15-9-15l1 3m-48 0c-2 3-3 12 0 12s3-2 2-5l-2-2h5c6 0 6-1 2-4-4-4-4-4-7-1m65 16v2l-1 3c-2 1-2 1 0 2l2 3c0 2 1 3 3 4l5 3c2 2 3 2 4-2 1-2-2-7-5-7l-2-2c0-4-4-7-6-6m-66 4c-2 2-2 7-1 9v2l2-1c2-3 3-5 1-3l-1-1c0-1 1-2 2-1a1 1 0 100-2c-1 0-1-1 1-1v-3c-2-1-2-1-4 1m87-1l-4 2-3 2-1 2c0 1 1 1 3-1 4-3 6-3 9-3 2 1 2 4-1 4-1 0-5 4-5 6s3 4 4 3h2c1 1 0 2-1 2l-1 1 4 1c3-1 4-1 6 1 1 1 2 2 3 1l2 1h11c2 0 1-3-2-4l-3-2-2-2c-3 0-9-5-7-6h1c0 2 6 2 9 0l4-1 2-1c0-2 1-2 2-2l2 1 1 2c0 2 2 4 3 3l-3-8h-10c-1-2-1-2-2-1l-1 2-3 2c-2 3-6 2-7-1l-4-4h-8m40 1h-1l-2 1c0 1 2 3 5 4l3 1c-1 1 0 2 3 2 4 0 4 0 0-4l-3-1c-1 2-4 0-4-2v-2l-1 1m-341 5l1 1 2 1h-1l-1 3c0 3 1 4 4 4l6 5 5 3 4 2 9 6-3-4-4-3c-12-14-22-23-22-18m-44 0l-10 1c-7 0-11 4-10 12l1 8c0 2 1 3 7 3l6 2v2c1 3-2 9-4 7l-1-3c-1-3-2-2-3 1l3 7 3 5c0 2 3 5 4 5l1-1 2-2 4-2c2-2 3-2 3 0 0 3 2 4 8 3 5-1 5-1 5-3s1-3 2-3c1-1 1-1-1-1-3 0-3-1 1-4l3-5 2-4c3-5 3-6-2-6l-4 1v-4c0-4 1-4 2-4 2 0 2 0 1-4-4-9-14-14-23-11m-29 2l-11 9 7-2 5-1 4-1-3-1c-3 0-3-1 0-3s1-3-2-1m65-1v3h-12c-1 1 0 3 2 3l1 1 2 1 1 1v2c2 4 5 2 8-4s4-7 2-6l-1-1h-3m-344 18l1 8 1 7 1 3 2 1c2 0 2 0 1-3l-3-10c-2-9-3-11-3-6m313 4c-7 2-9 4-7 7l3 1 1 1 2 1 6 1c3 0 4 0 5-2l3-3c4 0 3-4-1-7-4-1-4-1-12 1m59 23c-4 1-10 10-19 29l-11 20c-4 4-4 3-1-2l2-7 2-5 3-8 2-8c2-7 1-8-5-2l-6 3-6 4-6 3-4 2h-2v-1l2-1c0-2-2-1-4 2l-3 2-5-5c-1 0-3 5-2 8 1 4-2 2-4-3-2-4-4-6-5-6l-3-3-1-2v-2h2c2 0 3-1 1-3-2-1-5-1-5 1l-5 6v-18c0-2-10-1-16 1-7 2-7 2-6 3s0 4-2 6-1 8 2 18c2 7 3 6 3-2l1-6v6c-1 7-1 14 1 22 1 5 1 21-1 24 0 2 6 3 8 1l2 1h2v-4c-2-1 1-5 3-5l1 3v2l1-1 2-3 2-4c-1-1 0-2 1-2l3-3 3-3 2-1-1-1-1-2c0-2 0-2 1-1l3 2 1-2 3-7c1 2 3-1 2-4v-4l1 1 1 2c3 1 1 13-3 15l-1 4-3 5c-1 1-3 3-3 5l-3 4-2 2c0 2-1 2-2 2-2 0-4 1-5 3l-3 2-5-2-8-1c-6 2-11 1-17-3-10-8-27 0-18 8l10 9c3 4 8 8 11 9 4 2 4 2 2 3a1 1 0 101 2h28l-2 3c-2 2-2 2-7 0-6-3-9-2-4 2l6 4 3 1-3 3c-3 4-4 4-2 4s7-6 7-8 7-5 15-6c12-2 16-3 20-7l5-5c3 0 2-1-1-5l-6-7-4-3-3-1-2-1c-1 1-2 0-2-1l-1-2c0-2 9 0 13 2l3 1 1 2 2 3c1 0 2 4 0 4-1 0-1 1 1 3 3 3 4 2 2-1l-1-2 1-2c1-2 3-2 3 1 0 1 3 2 4 0l-2-2-2-1-2-1c-2 0-1-2 2-3h3l-3 1-2 1h2c4 1 5 0 5-5 0-3 0-4 1-3 1 0 2 1 1 3l1 3h1l2-1 2-2 5-1h4c-1-1 0-2 5-1 4 0 5 0 7-2l2-3c1 1 2 0 3-1l6-2 5-2 3-1 2-1c0-3 2-2 2 0l-2 2-2 1h8l7-2c4 0 2-10-2-10l-2-7c1-2 0-2-1-1l-2-1c0-2-3-5-4-5l-1 2-1 2v3c2 2 2 3 1 3l-3-3c-1-2-3-3-5-3-5-2-5-3 1-3l6-1c0-3 2-2 5 0 4 3 5 1 2-5 0-2 0-2 2-1 1 0 2 0 1-1l-1-3c0-2-1-3-3-4-3-2-4-4-1-5l3-2 3-2 5 12 2 4 6 9 6 9 2 5c1 6 5 10 5 6l2-2c4-1 1-11-6-21l-9-13c-6-9-10-14-16-18l-2-2h2c5 1 5-2 0-5-5-2-9-3-9 0h8l-4 1-6 2c-3 0-12 5-11 6h3c4-2 13-1 20 2a42 42 0 0117 23l2 5c1 3 1 3-2-2l-4-5-1-2-2-3-2-3-5-9c-8-7-28-6-30 1l-2 7a31 31 0 00-3 12l-2 1c-2 0-2 0-1-2l2-8c3-14 11-26 18-28 5-1 5-2 0-2h-11m-111 13c-2 3-3 4-7 6l-8 5-6 4-2 1c-1 2-2 2-5-1-5-4-10-4-16 1-5 3-9 5-14 6-5 0-10 3-9 4l2-1h1l-2 3-2 2h12l-2 1-2 2-2 1-10 7-5 4a3 3 0 00-1 6l1 2 6 5a13 13 0 007 5l1 1c2 1 2 1 2-1a2 2 0 112 0v2l1-1 2-1 2-2c0-2 2-4 3-4v1l-1 5 1 4h2c1-2 1-2 2-1s2 2 3 1c2 0 5 2 4 3l1 1 2-1 1-2 1 6 1 2c3 2 4 1 4-2 0-7 7-15 12-15l4-1-5-1h-7c-3 0-2-2 0-2 6 0 3-5-4-6l-2-1c2 0 3-1 0-3-2-2-5-3-5-1l-2 2-2-1-3-1h-3l3-1h4c1 1 2 0 4-2 2-3 5-2 5 2l2 2c2 2 1 1-2-5l-2-4 2 2c4 4 5 3 2-1l-8-16c-1-6 0-9 2-3l2 7c1 4 5 9 6 7h1l5-3 4-2c1 2 8 1 8-2 0-1 1-2 5-2h5l-1 6c-1 6-3 10-7 16l-2 7c0 3 2 6 3 4v-1c-1 0-2 0-1-1l1-1 3-4c2-8 2-8 7-7 2 1 2 1 2-2l-1-7-2-12-1-16c-1-9-1-9-2-5m-170 9l-1 4-2 3-2 2c-2 2-2 2 1 2l3 1-4 1h-4v3c0 3 0 3-2 4-3 1-2 5 2 6 2 0 2 0 0-1-3-2-3-3 0-3h5c2 0 3 0 4-2 2-3 3-22 1-22l-1 2m-66 18c-2 21 0 38 4 37 2-1 1-32-1-34-1-3-3-4-3-3m190 7l-6 1c-7 1-10 3-12 8l-3 5v5l-2 2h2l2-5c0-4 4-9 10-11 4-2 13-2 14 0 3 2 3 1 0-2-2-4-3-5-5-3m153 0l-4 1a20 20 0 00-21 12c3-2 5-2 4 0v3l1-2 3-2c2-1 2-1 1-3-2-4 1-6 9-5 5 0 7-1 7-2 0-2 2-1 7 1 4 2 6 3 8 2 3-1 2-1-3-2l-5-2-7-1m-329 1l1 1c1 1 2 4 2 11 0 9 0 10 2 13l1 1-2 1c0 2 2 2 15 2l14-1-3-1c-3 0-16-7-18-11l-7-12-2-3c-2-2-3-2-3-1m138 6c-4 3-6 4-4 1 2-2 2-2-1-2-5 1-6 2-3 3l2 3v2l2-2 5-3 3-1-3 2c-1 2-2 3-1 4 1 2 2 1 5-6 3-5 0-6-5-1m-9 11v6c1 3 1 4-4 4-7 2-4 3 6 3 11 0 13-1 7-3l-3-3c1-2-1-3-3-2-1 0-2-1-1-5 0-6-2-7-2 0m-84 10h-7c-2 0-3 0-4 3-1 4-7 11-9 11l-10-2-7-1-6 3a30 30 0 01-17 6c2 1-10 5-18 6l-8 1h-7c0 2 1 3 4 3 6 2 7 2 9 1h5c5 2 6 3 4 4l-3-1a12 12 0 00-11 0h5l3 1-6 1-7 2-6 1-10 2c-5 2-8 2-15 1-8 0-10 0-12 2-4 2-10 9-11 12 0 2 2 5 3 4 1 0-1 7-5 17-2 8-1 15 2 15v3l1 2 1 2c-1 4 8-1 10-6l2-2 3-2c0-3 3-6 5-6l2-2 4-2c2 0 4-3 8-7 1-3 6-3 5 0v5c0 4 0 5-1 4l-2 1-2 1c-2 0-3 1 0 3v5c-2 2-2 3-1 11l1 16v8l1-3 1-3v11l-1 16v6c-1 1 0 4 3 7 1 1 1 1 1-1-2-4-2-9-1-9l1-7v-5l1 2c2 0 2-2 1-3l-1-11c0-2 1-3 3-4s3-2 3-4 1-3 2-3c2-1 1-6-1-5l-2-2c0-1 1-2 2-1 3 2 4-2 1-4-2-1-2-3-2-8 0-11 0-11 2-10 2 2 2 2 5-8s5-11 5-3c0 4 1 7 2 7 2 0 1 14-1 22-2 7-3 16-1 14l1-3c0-2 1-3 3-3 3 0 3 0 2-2-1-1 2-5 4-5s1-2 0-2l-2-1-1-2-1-3c1-5 3-9 5-9a1 1 0 000-3c-1 1-2-1-3-7-1-8 0-12 2-11 2 0 3 3 2 4v1l1 3c-1 3 1 7 2 6 1 0 2-1 1-2h3c2 1 3 3 1 2-1 0-2 0-2 2l2 1c1-1 2 0 3 1v5l-2-1-1-1 1 2c2 2 5 10 4 11l-3 1h-5l-1-2c-2 0-1 4 2 5a2 2 0 004-1v2l-2 1-3 1 5 1h5v1l1 2c1 2-2 4-4 3-2 0-1 3 1 5 1 2 1 2 2 1 2-1 2-1 2 1l2 2 1 5a16 16 0 001 9 3 3 0 106-2l-2-4c-2-5 0-2 2 3l3 7c2 2 2 3 1 4l-1 5-2 3-1-2 1-4 1-2c2 0 2 0 1-2l-3-3c-1 0-3 6-2 8v2l1 4c1 1 2 4 2 10l2 2c2 0 2 0 2 2-1 1-1 1 0 0h2v1c-2 0 0 2 3 3l6 2h3v-2c-1-1 0-5 2-4l1-3c0-3 0-4-1-3l-1-6-1-1-3-2c0-2-1-3-2-3l-1-2c0-3-1-4-2-3l1 3v4l-2-2-2-3v-2l-1-2c-2-2-1-6 1-6v-1l-2-1c-1 1-3-3-2-4l1 1 2 1c2 0 1-1-1-4-4-3-2-8 3-8 4 0 2-2-3-2-2 0-3-1-3-2l-2-4v-3l-1-4-2-2h-1l-3-2-2-2c0-3 1-3 4 0 2 2 2 2 2 0l-1-4c0-2-1-3-2 0-1 2-3 1-3-1l1-2 1-2-1-2-1-2-1-3-1 1-1 1v-3l3-2h2l2 1-3-5-4-8-4-5c-3-2-3-5 0-7l2-1c0-1 1-1 1 1h2c0-2 4-3 4-1h5l1-1v-1l1 1a2 2 0 004 2c0-1 5-2 6-1 1 2 2 1 2-1-1-2 3-4 5-3h6c4-1 5-1 3 1-1 1 0 2 1 3h1c-1-2 2-5 3-4l2-1a4 4 0 014-1l2-2h3l-1 2h2c2-1 2-1 4 1l6 7c1-1-4-8-5-9l-1-2-1-3-1-2c1-1 4 3 4 5s12 14 15 17h5l7-6c7-5 8-6 13-12l4-5h3l1 3c1 1 9 2 10 0l6-1c3 1 5 0 5-1 1-1 15-2 15 0l1 1-1-10-4-1c-6-1-9-6-6-9 2-2 3-2 5-1 3 1 3 1 6-4a10 10 0 016-5l4-1c9-2 12-3 10-4h-8c-3 0-13 2-17 5-2 1-2 1 0 2h2l1-1v2c-1 1-2 2-5 2s-4-1-2-2 1-7-1-7c-2-1-17 2-19 3s-8-1-10-3c-4-4-12-6-19-4a49 49 0 01-27-3c-2 0-2 0-1-1 1 0 2-2 0-2l-4 1m541 0l-3 2-3 2 2 2c3 3 4 3 4 0 1-4 3-3 2 0 0 2 0 3 1 2l2-2v-5c0-1-1-2-3-2l-2 1m-607 2l-47 4c-4-1-18 1-19 2l-4 1c0-3-42 1-44 3s21 0 23-1 2-1 2 2c-1 3-1 3-5 3-6 1-12 4-18 9l-5 3-1-2v8l2 13 5 18 2 10 1 3c0 6 6 26 8 26v-3c-1-1 0-4 1-4l1-2 2 1 1 5v4l1 2h1v-4c-2-5-1-18 2-19l2-2h-1l-2-1 2-1v-3c0-3 0-3 2-2l1-3v-3c2 1 2 1 1-2l1-4c2-1 2-6 0-9-2-2-2-3 1-1 1 1 4-1 5-4l2-1 3-3c1-2 6-6 8-6l8-4H58c-5 3-14 3-14 1l-1-1-3-2c-1-3-3-4-3-1l-1 1-3 1c-2 1-2 1-1-1 3-5 7-7 13-7a10 10 0 007-2l2-1 6-3 5-2 9-2c5 2 12 1 14 0 1-2 1-2 3 0 5 2 5 1 1-2-3-3-15-5-19-4h-2l2-1c4-2 13-1 19 3 5 3 11 5 11 4v-1h5l-1-3-3-1c-4-2-5-3-2-4l16-1 15-1c2 1 6 0 5-1l-12-2m348 10a24 24 0 00-10 3l-5 1c-3 0-13 5-15 7-1 3-2 3-4 3-1 0-1 1 1 5 2 3 3 4 2 1-1-5 2-7 9-6 6 1 8 1 8-2 0-2 0-2-1-1l-7 1c-6 0-7-2 0-2l4-1v-1l2-2h4l12-5 6-1h-6m-234 3c-3 1-3 5 0 5l5 2c4 1 4 1 4-3 1-2-5-5-9-4m62 8c-2 0-3 5-1 7 1 1 1 2-1 6-2 6-1 9 2 4l1-1h6c9-2 21-7 13-6h-4l1-1v-2l-6-5-1 1 1 1 2 1-4-1-8-2v-1l1-2-2 1m-50 10c0 2 1 2 15 4h11l-3-1-6-2-4-1-2 1h-3l-8-1c-1-1-1-1 0 0m110 16h-3c-3-1-1 14 3 20 3 5 4 4 1-2-2-5-1-13 2-14a3 3 0 10-3-4m11 2v4c0 2-1 3-2 3v10c2 5 3 4 2-2-1-4-1-7 1-4 1 1 1 1 2-1 2-2 2-4 1-4-2 0-2-2-1-3l1-1c0-2-4-3-4-2m-20 4c0 2 0 2-1 1h-2l1 2c1 1 1 1-1 1h-6c-2 0-3 0-4 2l-13 9c-11 5-34 24-35 29-1 2-1 2 1 1h4l3 1-3 1c-4 1-5 3-2 3 1 1 1 1-1 2-3 1-4 3-2 5v1l-3-1h-1v4l8-4v1c0 3 0 3 1 2l7-2c5-1 5-1 3-2l-3-2c0-1 10-5 13-5s3 0 1 1l-2 2c1 2 5 3 7 1l4-1h5c1-1 1-1-1-1h-3l-3-1c-5 0 0-2 7-2l5-1-1-2c0-2-1-2-4-1l-4-1c0-2 1-2 4-2l4 1 4 1c3 0 3-1 2-1-3 0-3-1 1-3h10c2 1 2 0 3-2l2-4-2-1v-2c1-1 1-1-1-2-1-1-1-1 1-2v-1c-2 0-5-6-3-7l1 1 2 1 2 2 2 1c1-2 3 1 3 4s2 5 3 5c2 0 0-4-3-9l-2-5-1-3c-2-3-4-10-4-13-1-4-3-5-3-2m38 10l-2 4c-3 4-4 4-3 0 0-4-1-3-3 1s-1 10 1 11v5c0 4 2 4 3 0a6 6 0 017-5c-2 0-4 4-4 6l-4 3-5 5-4 5c-2 0-3 2 0 2 2 0 6-4 6-6h1a38 38 0 0020-1l7-2 5-2 2-1 1-1 1-2 2-3c2-2 2-2 1-3h1c5 2 6 1 5-6 0-2 1-2 4-2l3-1-4-1-4-1c-2-1 4-2 11-1l6-1c-1-2-5-3-7-2h-4a47 47 0 00-40 11l-2 1h-1l1-2 6-9-11 12v-1l2-7 1-1 1-2 2-4-2 1m-262 2v2l1-2h1v2l1 2 1 2c0 3 3 8 5 7 1-1 1-2-2-8-4-7-6-8-7-5m-79 8l-1 4 2 1 1 2 1 2c2 0 4-3 4-4v-4l-1-3h-3c-2-1-2-1-3 2m235 34c-7 7-9 10-8 11 1 2 6-3 9-9 3-5 2-6-1-2m-174 8l-4 3c-1 1-2 1-1 2 1 0 1 14-1 15-2 0-1 11 1 13s3 3 0 3c-1-1-2 0-2 1 0 2 0 2 2 1 3-2 5 0 3 2a5 5 0 00-1 10l1 1c2 0 5 6 4 6v4l1-2 1-2c1 0 3 3 2 5 0 1 0 2 2 1 2 0 2-6 0-7l-1-3c0-2 0-2-2-2l-2-1 3-2c4 0 4-1 1-4-2-3-2-5 0-8 1-2 1-2-2-3-6-1-5-9 1-9 3 0 3 0 1-1s-3-3 0-4v-4l-1-5-1-3-1 2c0 2-2 3-4 1v-4l2-4c2-1 3-3 2-3 0-2-2-1-4 1m154 9c-4 5-5 7-6 11 0 2 0 2 1 1l2-3 2-4c3-3 6-8 5-9l-4 4m-3 14c-3 5-5 9-6 8v1l-1 2-2 3-5 7c-6 6-10 13-9 15v1c-1 0-12 22-12 25l-2 2v3c2 1 2 1 2-1s1-3 2-3l1-2 1-4 2-5 3-5c3-3 6-9 5-10l2-3 2-5 8-8c4-4 6-6 4-6l-3 1c-1 1-1 1 0 0 2-4 6-7 7-6 1 2 2 1 2-1v-7c2-7 1-8-1-2m478 5c0 2 7 10 10 12 5 2 8 4 8 7l13 1 25 1c17 2 20 1 20-4 1-7 0-8-4-9-6 0-15-3-17-5-1-1-6-2-21-2-18 0-27 0-32-2l-2 1m58 16c-2 2-2 2 2 2h14c1-2 1-2-3-2h-13m-644 22c1 4 9 6 9 2 0-3-2-4-3-2l-2 1 1-2c1-1 0-2-2-2-3 0-3 1-3 3m-41 1c1 1 1 1-1 1-2 1-3 2-1 4 2 1 1 3-1 4l-4-1c-1-2-3 0-1 1l5 1c5 1 5 0 3-6l2-2c1 0 0-3-2-3v1m243 3l-1 3c-2 2-3 12-4 26a88 88 0 01-1 19l-1 10c-1 7-1 8 1 5l1-9 1-12c3-7 3-16 2-22v-6c2 0 4-13 3-15-1-1-1-1-1 1m-256 5c0 8 1 10 4 11 3 2 4 1 1-2l-2-6c0-5-1-8-3-8v5m67 10c1 3-1 3-5 2-2-1-2-1-2 3 0 3 0 3 2 2 2-2 2-2 2 0l2 1 2-1v-4h4v3c-1 1-1 1 1 1l2-1 1-1 1-1v-2l-1-1h-2c-3-3-7-3-7-1m53 13l-2 6-1 1-2 3v5l1-2 3-4 3-8c1-6 1-6-2-1m548 0c-3 2-3 2 7 2l14 2c3 0 5 0 4-1v-1h-1l-2-1-7-1h-15m-507 30l-4 1-3 2h-2c-1-1-2-1-5 1h-3l-2-1c-2 0-5 4-4 6l3-1 5-2c5 0 13-2 13-3l3-1 4-1c0-2-2-3-5-1m-18 13l-4 1-4 1-2 1c-3-1-3 0-3 4 1 3 6 3 14-1 4-1 6-3 3-3l-1-1c-1-2-3-4-3-2m32 3l-2 2-5 3-4 2-3 1c-3 1-9 6-8 7l5-1 9-1 7-2h6l2-1c-1-1-1-1 1-1 3 1 7-1 6-3-1-1 1-2 4-2 4 0 0-2-5-3l-8-1h-5m-79 3c4 1 5 5 2 5l-3 2c0 2-1 2-3 2l-5 6c2 1 7-1 10-5 6-7 6-11 0-11-2 0-2 0-1 1m120 3c-3 1-2 3 2 2 3 0 3 0 4 2 0 2 2 3 2 1l6-1h5l-2 4c-1 3-1 4 2 1s2-9-2-9h-17m-174 5h-5l2 2c2 4 5 5 7 2h1l1 2 1-1c0-3-1-5-3-5l-2-1a1 1 0 10-2 1" itemprop="regular" tabindex="-1" style="fill-opacity: 0.572; fill-rule: evenodd;"></path></symbol><symbol id="-posters-1650743006454-bold"><path d="M0 256v256h820V0H0v256m0 1c0 201 1 225 1 110l1-141 3 18 2 7a48 48 0 005 14l5 25 2 6 1 2 2 9a23 23 0 012 11c1-1 1-1 1 1 1 1 0 2-1 2v3c1 4 1 4 3 4l2 1 3 2c3-1 2-3 0-5l-2-3h5v-9l1-10 1-6c1-5 4-12 4-8l-1 1-1 5c-1 4-1 4 1 4s2-1 2-5l1-9c1-3 1-3-1-4l-2-2 2-1c2 1 5-4 3-5v-3l1-6c0-5 1-6 5-10 3-2 3-2 2 0l-2 2c-2 1-3 7-2 11 1 2 1 4-2 14-4 10-4 11-2 15v22c0 6 6 10 11 9h3l-1 5a128 128 0 00-1 13l-1-1v1l-1 2-1-1c0-2-2-3-4-3l4 7c5 4 8 4 6 0l2-4v-3l-2-1h1c2 2 3 1 3-1l-2-4-2-2h5c-1-1-1-1 1-2 5-5 13 4 10 13 0 1 0 3 2 4l2 4 1 3c2 1 3 5 1 5v2l1 7c0 7 1 10 4 13l2 2v-5c0-3 0-4-1-3h-2c0-2 1-4 2-3l1-1 2-1 1-2c-1-1 0-2 1-3v-6c-2-2-2-3 1-6 2-3 3-3 3-1 0 1 0 2 2 2 3 0 2-3-2-7l-4-6c0-1 1-1 2 1l5 3c3 0 4 4 3 9l-2 23-2 5-1 3c-1 2-1 2-2 1-2-1-5-1-5 1l2 1c1 0 2 1 1 2 0 2 0 2 2 2l2 1-2 1c-4-1-5 1-5 5 0 3 0 3 2 2 4-2 4-1 4 7s0 9 3 8h3c1 1 2 0 4-1s3-2 4-1l2 1c1-1 2 0 3 1 1 2 4-1 4-3l4-1c3 0 4-1 1-4-1-3-1-3-3-1-3 1-9 1-9-2v-1l-1-5-4 2c-3 2-5 1-5-2 0-2 0-2 2-1l5 1c3-1 4-1 6 3 2 3 3 4 4 3l2-2c3-1 3-2 1-5-3-3-4-8-2-8l1 3c0 2 0 3 2 3l3 3c1 2 1 2 3 0 3-2 3-7 0-7-2 0-3 1-1 3 2 1 1 3-1 2l-1-4-1-2-2-1-1-3h1c3 2 4 0 4-3-2-7-2-12-1-12 1 1 2 0 2-1 0-2 2-1 2 1 1 1 1 2 3 1v1l-1 4-2 2-2 1c0 1 2 1 5-1h2l-1 2-1 2 1 2 1 3 1 3v5c-1 4-2 5-3 5-1-1-5 5-4 5 1 1 5-1 5-2l4-5a15 15 0 005-9c1-2 1-2 1 1l-1 8c-1 7-2 8-4 8-1-1-2 12-1 14v2c-2 1-2 3-1 7s0 5-1 6l-1 3-2 3c-2 1-3 4-1 4l1-1 4-5 5-5c0-2 0-2 3 0 1 2 2 2 3 1h5l3 1-4 1c-5 1-6 3-3 4 9 4 9 4 10 3l3 2 2 2h-6l-8-2-2 1c0 1 1 2 3 2 4 0 7 1 7 2h-6c-5-1-9-1-7 1l8 1 7 1c1 2 4 2 18 3 9 0 10 0 8-3-1-1 0-1 2-1 3 0 4 1 3 2 0 2 0 2 2 2s2 0-1 3c-3 2-4 3-6 2l-3 1 2 1c2 0 3 0 2 2l-2 1-4 2-4 2-2 2h-1c0-2 3-4 5-5s2-1 1-2-8 2-8 4l-5 1-3 1-2 2v1l-1 1-2-2c-1-1-1 0-1 2 0 4 0 4 21 4s24 0 23-3c0-2 0-2 2-2l3-1 1-2v-1l-1-1-2-3c-2-3-2-3 0-3 1 1 3 0 4-1 2-2 2-2 4-1a2 2 0 002-1v-2l3-3c2-4 5-5 5-2h1l-1-3v-3l2-2 2-2 2-3 2-2c2-1 5-4 4-5v-2l2-2 3-3 3-2 2-4 2-5v-3l1 3 1 3 2-4 3-3 3-2 8-8c3 0 11-16 11-22v-2l1 2c3 4 3 0 1-7-1-6-1-9 1-9l2-1-1-1v-1l1-3c-1-1 0-1 2-1l3-1c-1-1 1-6 3-6 3 0 5-1 5-2l-1-1-2-1c-2-2 4-1 6 1 1 1 2 2 3 1 1-2 0-3-3-3l-2-1c0-3 7-6 12-5 3 1 6-1 5-3 0-2 0-2 2-2 3 2 10-3 7-5v-1l3 1c1 1 5-1 4-2 0-2 1-2 5-2l2-1 1-3c2-1 0-3-5-4l-4-1h3c5 1 17 1 23-1l5-1 1 2v-1l1-3c2-2 2-3 0-3-1-1-1-1 1-1 3 0 7-4 8-9 0-3 0-3 2-2a2 2 0 005 0l-1 3-2 3c0 2-6 8-8 9l-2 2-3 4c-2 2-2 4-3 7 0 2 0 4-2 5-5 4-9 11-6 11 1 0 3 1 3 3 2 3 2 12 1 31 0 3-2 2-2-1l-1-3-2 1-1 3c0 2 0 2 2 3l2 1h-2c-3-1-3-1-3 1l2 3c3 2 3 9 1 9l-2 1 1 1-1 3c-2 3-2 3 0 4v1c-2 1 0 4 1 3 2 0 2 10 0 11v14l-2 13c0 7-1 10-3 8-2-1-1-4 1-3l1-1c0-1-4-1-6 1s-4 3-4 1l-1-3h-3c-2 2-4 2-4-1 0-2-1-1-4 2-2 2-4 3-7 3l-5 1h-1l-3 1-3 2-1 1-4 1-6 2h-6c2-2-1-2-6 0a31 31 0 00-18 9c-4 0-14 7-15 10-2 3-1 5 3 4l59-1 22 1 3-3c3-2 3-2 3 0-1 2-1 2 13 2 9 0 11-2 9-5-3-4-4-9-2-9 2 1 2 0 3-1l1-2 1-2 1-3c2 0 4-3 4-7l2-4 3-7c0-5 3-11 5-14 3-3 6-10 7-18a45 45 0 015-16c1 0 1-19-1-23l1-2a3 3 0 000-7c-1 1-2-1 0-3v-4c-1-3 1-8 2-6 1 1 1 1 1-1l-2-5-2-3h3c2 0 3-1 4-3 1-5 2-12 0-13-1-2 1-3 4-2 4 2 11 4 12 3 2-1-1-4-3-2-2 1-2 1-2-1s0-2 5-2c7 1 10 0 4-2-7-2-7-2-5-3l4-1c3 0 9-3 10-5l3-1c3 0 5-4 1-4l3-2c4-1 5-2 6-4 1-4 6-7 9-7 4 0 7-3 5-4-1-1-1-1 1-2s2-1 2 2l1 2c1-1 0-14-1-17 0-2 0-2 2-2l2-1-2-1c-2 0-3-2-2-5 1-2 1-2 5-2 5 1 6 0 5-3l-1-1-1 1h-2l-3-3-2-2c-3 0-4 1-2 3v1l-2 1c0 3-2 3-4 2l-3-2-1-1-2-2-2 1 2 3 2 2 2 1 2 1v1l-3 1-9-1-9-1c-2-1-4-2-8-1-4 0-5 0-3-1l11-1c14-2 12-3-3-3-12 1-16 2-15 5 1 1 0 1-1 1l-2 1-9 3 5-4c6-4 5-5-6-4-7 0-8 0-9-2l-3-2v-3h-1c-4 3-6 2-8 0-3-2-4-3-4 0 0 2-2 1-2-1s-1-2-3-2-3 0-3-2 5-6 7-6l-1-1c-2-1-2-1 2-3s5-1 4 4c0 3-1 4-2 4l-1 2c0 2 2 1 5-2 4-5 5-5 8-2 2 2 2 2 1 3h-2c-1-2-4-3-4 0l1 1 3 2c2 1 2 1 3-1l3-2v1l-1 1-2 2c-1 2-1 4 2 4l4-3 4-4 1-2 2-2 2 1v1l2-2 1-2v2l1 1c2 0 5-2 4-3h10c2-2 11 0 11 2l3 1c3 0 3-1 0-4-3-2-4-3-1-3 1 0 3 1 3 3 2 2 2 2 4 1h2c1 3 7 8 7 6 1-1 1-1 1 2 1 3 1 3 8 3 7 1 8 1 7-1l-7-1-2-1-1-3-2-2c1-1-2-3-5-3-3-1-4-2-3-7 0-4 0-4 4-4 7 1 7 1 6 2l1 2c0 1 2-1 2-3 3-5 3-6 7-8 3-2 2-2 15-6 14-5 16-6 6-6-14 1-23 3-23 5h-1c-1 0 0-2 2-2l2-1 4-1c3 0 4-1 4-2l2-1 2-1h4l7-2h7c3 0 7-3 7-6h5c2-1 3-3 2-3h2c2 1 4 1 3-1h1l2-2-1-3v-1c3-1 3-1 6 4 1 3 2 4 4 4l5 2c2 2 3 2 9-1 2 0 2 0 2 2l2 3v8l2 3 1-2v-3l2 1c1 3 2 2 2-4 1-3 0-3-2-3s-3 0-3-2-1-3-2-3l-1-1-2-2-2 1-1 1v-3c1-8-2-29-4-24-1 1-1 0-1-1a20 20 0 00-11-12v-1l-1-2c-2-2-2-2-1-3 2-1-4-7-7-7-2 0-4-4-3-6l-3-5c-3-3-5-4-17-8-7-2-15 0-18 5-1 3-2 3-4 2s-2-2-1-3l2 1 2-1h-1l-1-2c0-1 0-2 2-1 1 0 2-3 0-4l-2-4c-1-5-2-4-1 1 0 4 0 5-2 6s-4 6-4 8l3 1a2 2 0 011 3l-3 2h-1c0-2-1-2-3-1l-10 3c0 2-3 4-7 4s-4 0 0-5c3-4 5-15 6-25l3-9 1-7v-6l3-7c2-3 3-4 3-1-1 4 1 7 3 7l5 2-2 1-1 2c0 1 0 2 5 2l6 1 4 3c6 3 9 5 10 9 0 2 1 2 3 2 3 0 4-5 0-5l-1-1-7-9-8-8c-2-4-17-13-19-13-5-1-7-4-6-9 1-7-1-14-3-8 0 3-2 2-8-1l-4-2c5 2 7-1 6-5l1-6 2-3 4-1c4 0 4 0 7-4l3-5v-4l-2 1-3 1-1 1-1 1c-1-1-3 0-6 1l-6 2-5 1-5 2-3 2-4 2-10 4c-12 6-16 12-21 29l-3 3-13 10-2 1h-1c0 1-1 2-3 2-3 2-7 8-4 9 2 2 5-1 4-3-1-3-1-3 1-3h6c4-1 4 0 6 5l3 6c0 2 11 17 13 19 1 0 1 1-1 1l-19 3-7 2-1 1-1 1-2 2a12 12 0 01-9 9l-4 3-6 3c-2 2-3 2-8 1l-8-2-9 4c-8 6-10 6-11 0 0-8 0-8-1-7l-1-1 2-1v-5c0-6-2-8-4-5l-2 1c0-1 1-4 3-4 1-1 2-10 1-24 0-6-2-1-2 5v13c1 4 1 7-1 4l-2-6-2-4c-1 0-2 3 0 3v5c-1 3 0 4 1 3 2 0-1 3-4 6-1 1-1 1 1 2l2 3 2 4c3 2 3 2 1 7a10 10 0 01-5 7l1 1h1l-5 3 1-1 1-1h-4c-5 1-7-1-5-3 3-3 2-4-1-2l-3 2-1 6c-2 11-4 14-10 14-4 1-5 2-2 4l2 2-4-2c-3-3-5-4-7-4-3 0-2 2 3 4l4 3-1 1c-1-1-1 0 0 0l1 1c2 0 1 5 0 8-1 1-2 2-1 3 0 1-3 3-9 3-5 1-6 1-9-2l-4-3-1-1h-3c-4 1-4 3 0 3h3l-4 2-4 2h-4c-1-2-5-1-5 1-1 1 0 1 2 1 3 0 6 2 5 2l-5-1h-10c-11 3-32 0-27-3 2-2 0-3-5-2h-7l-4 1c-1 1-7-1-9-2l-2-1c-5 0-13-8-16-16l-2-4-1-2c0-6 0-7-1-6v3l1 3-2-3c-2-1-3-3-3-5-1-3-3-3-3 1l2 2c1 0 2 5 0 5v4c0 2 0 2-1 1-1-2-1-2-1 0l-1 3v-4c0-5 0-6-2-7-1-1-2-2-1-4l-1-2-2-2c0-1 0-2-1-1h-4l1-1v-2l-3-2c-2 0-2 0-1-3l1-5 1-7 1-4v4l1 4 1 5c-1 5 0 6 2 6l2 2c0 3 1 2 3-1v-4l-1-2c-1-4-6-18-7-17l-2-2a2 2 0 00-5 0h1l1 2c0 1 0 2-1 1h-1c-3 1-4-2-2-5 2-2 2-3-2-5 0-1-4 0-7 2-6 3-8 3-10 2-3-1-6-7-7-13l-2-9v-6l-1-49-2-35-8-1-7 1-1 22c0 22-1 29-4 29l-1 6-1 6v11l-1 11-2 3c1 1 0 2-1 3-2 1-3 4-3 6l-5 9c-4 6-4 6-4 12v6c-1 2 0 38 2 41 1 4-2 5-23 5l-20 2H1v-71c0-39 1-56 1-38l1 34c1 1 1-1 1-6 0-6 0-8 2-9 1-1 2-4 0-4l-1-1h2l1-2c0-2-1-3-2-3-2 0-2 0-2-11l1-10 1 5 1 6 1-1c0-2 1-2 4-2s4 0 4 2c0 4 1 7 2 6s1-1 2 1 1 2 1-2c0-5 2-5 2-1l1 4v-4l2-7c1-4 2-1 3 5 0 14 2 3 3-17l-1-9-2-3c2-6 2-9-2-9-3 0-4-1-1-3v-1a2 2 0 111-3c4 0 4 0 5-3l1-9v-2l-2-3-14-1C2 26 2 26 2 28L1 16 0 257M107 27c-2 2-2 2-3 1h-1a3 3 0 003 4l1 1 1-1v-1l2 1 1-1c2-2 2-1 2 4 0 4-1 6-2 5l-2 1c-1 2-1 2 1 2 3 0 5 3 6 11v6l-2-3v-3c-3-2 2 25 4 28l2 1-1-4a25 25 0 00-2-16c1-1 3 2 3 4l2 3c1 1 2 2 1 3l2 6c2 4 3 7 2 8l1 1v2l1 5 2 4c4 13 5 16 7 16s2 1 2 3c-1 5 0 7 4 10l3 5 2 5a79 79 0 009 16l3 6 4 5 4 5 2 3c1 3 3 4 6 5 6 2 7 0 2-3-5-2-6-3-4-4 1-1 2-8 1-10s-2 1-1 4l-1 1c-1-1-1-6 1-7 1-1 2-7 0-9v-7l-5 1c-3 1-4 1-8-1s-5-4-2-3l4-1c1-2 4-3 4-1l2 1c3-1 4-6 2-10v-2c2 0 2-1 1-5l-1-2v5l-5-2-9-2c-3-1-4-2-4-4l-1-2a21 21 0 01-10-13l-1-5-1-1c-2 0-2-1-2-3 0-5 0-5 4-2 3 2 4 2 4 0l2-4v-3c-1-2-1-3 3-4v2c0 4 1 6 3 2l2-3c3-2 2-9-1-9l-3 1c-1 2-2 0-1-4l-1-5-1 2h-1c-2-1 0-4 3-4 2 0 3-2 3-6 0-2 0-3-1-2l-1 2c1 2 0 2-2 0l-3-6-2-8-1-10 1-5-6-1-6 1v6c0 3-6 3-6 0l-1-3-1-2c1-1-9-2-10-2-1 2 8 22 10 22l1 1v-1l1-2 2 4c1 5 2 6 3 4l2-2a2 2 0 010 4c2 0 4 3 2 4h-1l-1-1v1l1 4v1c1-1 1-1 2 1 2 1 3 6 1 6a18 18 0 01-10-8l-3-5-5-12-4-9-1-1-1-6c0-6-4-8-8-4m644-1c-6 0-8 1-5 2l2 1h-2c-2 0-2-1-2-2l-5-1c-3 0-5 0-4 1l1 2 1 2c3-1 15 6 16 9v3c0 2 0 2 2 2 1-1 2 0 3 2 1 3 1 3-4 4-8 2-10 1-10-1l-1-3-4-2c-2-2-3-2-5-1h-3c-3-1-10 1-15 6l-4 3c-2 0-2 1-1 2 1 2 1 2-3 3l-4 1h-2c-2-1-3 0-3 2 0 3-8 11-11 12v-7l-2-8 1 2 1-6 1-8c1-1 6 0 6 1l-1 1c-2-1-2 0-2 1l2 2 2-2c0-2 3-6 5-6 1 0 0 4-3 5-2 2 1 6 4 6 2 0 4-2 2-3-2 0-3-3-1-3 1 0 2-1 1-2 0-3 2-6 4-5l-4-2c-2-1-2-1 0-4 2-2 2-3 1-3l-3 1-2 1-3 1c-3 2-7 2-5-1l2-1c1 0 2 0 3-2 3-3 7-4 7-1h1c2-3-2-4-18-4h-15v30a7541 7541 0 010 53v19l-2 29c-1 33 0 38 1 43 1 3 1 3 3 1l2-4 2-1c3 2 4 0 1-2l-2-2 3-2 2-2h3l2-2 2-3a4 4 0 00-1-7l2-1 1 1c0 2 2 1 5-2 2-2 2-3 1-4-2-1-2-2 0-3 3-1 3-8 0-10v-3c2-1 2-2 1-4-2-2-2-5 0-6a3 3 0 10-3-4v11c1 4 0 6-2 4h-2c-2 3-4-1-3-4l-1-3c-2 2-3 0-2-4l1-7 2-6 2-7 1-4 1 4 1 4c2 0 1-7-2-10l-2-2-1 2c-1 3-3-2-4-9 0-4-1-5-2-5l-2-1 2-1c8 3 11 1 10-6l2-3c2-1 2-2 1-4l1-2 3 1 3 4c1 3 2 3 2 1 1-1 1-1 1 1l2-1c1-4 0-6-4-5-2 0-3-3-2-5h3c4 3 7 3 4 0-2-2-1-3 1-3h-3l-7-1 2-1c2 1 5-1 5-2l-1-1h-2l-2-1-3-1h3c3 0 3 0 2-1h1c2 2 8 1 8-1h2c3 0 4-2 2-6-1-3-1-3 1-4 3 0 3-1-1-3l-2-2 2 1 3 1h1l3 4c3 3 4 7 2 8-1 0 0 7 2 9 1 1 1 1-1 1l-3-4-2-4v3a4 4 0 010 6l-1-1-3-1c-2 0-2 0 0 1v1c-3 0-8 7-8 11 0 3-1 4-3 4-3 0-2 1 2 1h4c-1-1 0-3 1-4v-6c2 2 4 1 4-1l3-1c2 1 3 1 4-1 0-1 3-1 6 1h6l3 1v6c-1 1-1 1 1 2 3 1 3 1 2 5v4l-2 1c-1 0-4 2-3 3 1 2 4 1 4-1l2-1c1 1 1 0 1-3l3-2c4 0 9-7 8-10-1-1 0-2 2-2 3 0 3 0 2 2l-2 3-1 2c-1 0-1 1 1 3s4 3 4 1h1l2 1 1 1c-1 2 1 3 4 2l1 1c0 1 1 2 3 2a4 4 0 006 0c2 0 2 0 0 4s-5 5-5 3h-6l-1 1c-2 0-2 0-1 3 1 2 2 2 2 1l1-2c4-1 6 0 6 1l-2 1-2 1-3 1c-1 0-2 0-1 1h4c7-1 7-1 7-4v-4c3-2 3-1 2 1-1 4 1 4 4 1l3-3 2 3c2 2 3 2 3 1a2 2 0 013-1c0 2 7 4 8 3s3-2 5-1c2 0 2-2-1-4s1-1 4 1c3 3 4 5 2 5a3 3 0 004-4c0-2 0-3-1-2l-6-3 2-1c2 0 4-1 4-4 1-4 0-4-3 0l-4 2c-1-1-1 0-1 1h-1a3 3 0 00-5 0c-1 1-1 0-1-4l-1-6-1 2c1 2 0 1-2-1l-5-2c-2 1-4 0-5-1v-1c4 2 9 0 9-2s0-2 3 1l2 1c-1-1 3-2 5-2l1-1 1-2c1 0 2 0 2 2l2 3c2 1 2 1 0 1-1 0-2 1-2 3s0 2 2 1l3-2c2 0 2-3 2-36V25h-31l-35 1M98 28v17c1 5 3 4 2-1a43 43 0 010-14c1-4 0-6-2-2m80 6c0 6-1 8-2 9-2 1-2 8 0 29l1 12c0 8 1 9 2 3l2-47 1-8-1-2-1-3-1-1-1 8m22-6v8l-1 4v26c-1 2-1 2 1 4 2 1 2 1 1 3-2 1-2 8-1 30l1 19 1 6 1-12c0-6 1-8 2-8v-2l-2-12-2-8v-4c2-1 2-2 3-8l1-8v-7l1-5c0-11 0-12 2-12h1v-3c1-1 0-3-1-5s-2-4-1-6c0-2 0-2-4-2s-4 0-3 2m25-2l2 4v15l-3 27-1 15-1 7-1 13-2 12c-1 5-1 5-2 3l-3-5c-3-1-3-1-3 3v6c-1 1 0 2 1 3 3 1 4 3 1 4-2 1-3 1-2 3l-1 2c-2 0-2 1-1 5 0 5-1 7-3 3-1-2-1-1-1 7l-1 17c0 9 1 12 3 3a9 9 0 012-6l1-3 2-5 6-19 5-20 3-18 1-17c1-21 3-32 4-31l1-2-1-3v-2l2-4c0-2 0-2-1-1-1 3-2 1-1-3 0-6 2-9 1-3 0 5 2 6 2 0 2-7 0-9-5-10h-4m315 1v3c-2 1-1 14 0 14s2-1 2-3l2-4 1 2v1c2 0 3-3 2-4v-2c3-1 1-4-1-4-1 1-2 0-2-1-1-1 1-1 4-1l2-1c-2-2-10-1-10 0m173 1c2 1 2 2 1 2l-2 1-1 1c-3 0-7 4-5 5h2c1-2 2-2 3-2 2 1 2 0 3-1 0-2 5-4 6-3l-1 1c-1 0-2 1-2 3 0 4 2 4 4 0 1-2 2-3 6-4l5-2v-2c1-1 0-1-2-1-3 0-5 1-5 3l-3 1c-2 0-2 0-1-1 3-2 2-3-4-3-4 0-5 1-4 2m-335 6c-2 0-2 1-1 1l1 2-1 8-2 8c0 3 0 3 2 2s3-2 2-4l1-5c1-2 2-3 1-5a5 5 0 010-5c1-3 0-4-3-2m-273 3l1 13 1 13 2 4c1 0 1-13-1-17V40c1-4 1-4-1-4l-2 1m435 10c-2 2-3 41-2 41 2 0 5-4 5-8s0-5-2-5l-1-2c2-3 3-11 2-12v-5c2 0 1-9-1-10l-1 1m-247 7l-2 3v-2l-1-2-3 10-1 3v6l1-1 1-1-2 4-3-2c-1-2-1-2-1 0l1 3 1 2c0 2 0 2-2 1-3 0-6 2-5 4l2-1h2l1-1c2 0 1 6-1 7s-2 2-2 3h3l-1 3h-2c-1-2-3 0-2 2v1l-1-3-1-4-1 1-1 1c-1-1-1 0-1 2l1 3 2 3c1 3 3 3 3 0l2-3c1-1 1-1 1 1l2 2 1 2c0 2-1 2-2 2l-2 2 2 2c3 0 3-1 4-8l3-12 2-8 2-16-2-2c-3 0-2-2 1-2 2 0 3-1 3-2v-4l-1-2-1 3m82 6v17l1-3 1-5c2-4 2-9 0-10-1-1-2-1-2 1m370-1l1 2 1 1h-2c-2-3-4 0-3 5l-1 4c-1 1 0 2 2 4l4 5 5 1 3 1c-1 2 1 1 2 0l3-2 2-1-2-1c-4 2-6 2-5 0h-1c-2 2-6-1-6-5l-1-2-2 1h-1v-6c-3-1 0-3 4-2h4l-4-3-3-2M101 69l-2 1v19l2 14c1 2 3-5 2-8l1-2 2 6v7l-2 1 1 2 1 2 1 5c1 2 2 4 1 5 0 3 0 3 3 3l5 2c4 2 4 1 0-4-3-5-4-8-1-4 2 2 2 2 5 1 2-2 3-5 1-6l-1-4c0-3 0-3-1-1h-2l1-3v-8l-1 2-1 2-1-10c0-7-1-10-2-10l-1-5-2-4-1-3-1 2v23c-2 0-3-6-3-15 0-10-2-15-4-10m436 22v7l-2 6v2l1 6-2 18v20c-1 5-1 6 2 5 3 0 4-3 2-3l-2-1c0-1 1-2 2-1l1-2-1-2-2-1 2-2c1-2 2-6 0-6l1-3v-8c-2-2-2-2-1-3v-3c-1-2-1-2 1-3l2-3c-1-1 0-2 1-3v-1c-2 0-2 0-2-2V96c1-4 0-6-1-6-2-1-2-1-2 1m-101 0l1 1 2 3 3 5 2 6 2 5v2l-2 6v9c-1 4-2 7-4 9-2 3-3 3-3 0 1-1 0-2-5-2-10 0-10 0-10-3 0-2 0-2-1 0l-1 2c-1 1-1 1 1 2l2 2 1 2 2 1h-5l-4 1h-3c-3-1-2-2 2-3l4-1c0-1-5-2-6-1h-3c-2-2-2-2-3 0v2c1 0 2 1 2 3l-1 2v5c0 3 0 3 2 2l2 1 1 1 1 1-3 1h-2c0 2 3 3 5 2 3-1 9 1 9 3s2 1 3-1c1-3 4-4 10-4 2 0 3-1 0-3l-1-2-1-2c-1-1-1-1 1-2 2 0 7-7 8-11l4-26h1c2 1 1-4-1-8l-12-11v1m288 1h-4c-3-1-5 3-3 5 2 3 3 3 3 0 0-2 0-2 2-2l1-1c0-1 2-1 3 1h3c0-5-2-6-5-3m-331 2l-5 1c-3 0-4 1-4 2-1 2-1 2 1 1h2v5l1 3 3 4c2 0 6 5 5 7 0 2 0 2 2 1l2 1v3l1-3c0-3 2-6 4-4l2 1h2l1 1c2-2-2-6-7-6-6 0-7-1-6-3l-1-6-1-7c0-2 0-2-2-1m319 5l-5 1c-4 0-4 2 0 3 3 1 3 1 1 1s-3 1-1 3c3 3 6 1 6-4 0-2 0-2 2 0 2 1 2 1 2-1-2-4-3-5-5-3m-553 7c-1 3 1 5 5 4 4 0 5 1 3 4-2 1 0 3 3 2 4-1 0-6-6-8l-4-3c-1-1-1-1-1 1m591 3v2l2 3 2 1c3 0 6 3 5 5 0 3 1 2 2 0v-6c3-1 2-2 0-2-6 1-8 0-9-2 0-2-2-3-2-1m-331 1l-3 2c2 0 2 0 1 1-2 3 1 3 3 1h3c1 2 1 2 3 1l3-1c3 1 5 0 5-2s-1-3-2-1-5 1-6 0c0-2-2-2-7-1m310 2l-4 1c-3 0-4 1-4 3 0 3 2 3 5 1l2-2c0 1 2 0 3-2 2-2 2-2 0-2l-2 1m-596 11l2 8c0 2 0 2-1 1-2-1-2 0-1 3l2 3h1c0 2 2 0 2-3 1-4-1-14-4-17-1-1-1-1-1 5m142 0l-4 6c-2 1-3 3-2 5l-1 3-1 2 2-1 3-1c2 2 3 1 3-1l2-7c2-4 2-5 0-4l-1 3-1 3c-2 2 0-4 2-7v-5l-2 4m-84 7c0 7 1 10 5 18 2 4 3 7 1 7-1-1-2 0-2 1l-3 2c-2 0-8 5-8 7l1 2c3 0 1 3-1 4-2 0-3 3 0 5l1 3 3 2c4 1 8 0 11-6s4-22 1-25l-2-4-1-1v-1l-1-3c-2-1-4-13-2-13l1-2v-1c-1 1-2 0-3-1l-1 6m492-5l-1 3-2 4-1 6-1 5-2 6c-1 3-1 11 1 12v-3c0-3 2-9 3-7 1 1 1 1 1-1-1-3 1-13 2-14 2-1 3-12 1-12-1-1-1 0-1 1m120 2v1l2 4 2 3 1 2v3l1-1c-1-1 0-1 1-1l3 2c0 3 3 2 4-1 0-4-2-9-3-7-1 1-5 0-7-4-2-2-4-3-4-1m-18 4c-3 3 1 12 4 11 2-1 3-3 1-3-1 0-2-1-2-3 0-5-2-8-3-5m-34 4c0 2-1 4-5 7-5 5-5 6-1 6 3-1 7-5 7-7l2-1c3 1 4-2 2-6-3-3-5-3-5 1m-611 0v1l2 6 3 6 2 6 4 7h1l-2-7-4-10-3-7-3-2m288 8l-9 1-8 1c0 2 4 3 7 3l3 1h1l4-1c2 1 6-2 6-4s-2-2-4-1m-164 2l-1 1c-2-2-9 1-9 4-1 2-2 2-3 2-2-1-3-1-3 2l-2 4 1 2c2-1 2 0 3 1l5 3 4-6 4-5v-1l2-3c2-1 3-5 1-5l-2 1m36 10c0 2-1 2-2 1s-2 0-3 1c0 1-2 2-3 1l-3 1c-1 2 3 3 5 1l6-1-1 2c-1 3 1 5 3 3l2-2c1 0 2-3 0-4l-1-3h-3m489 4v4c0 2-1 3-2 1-2-2-4-1-4 1l1 19c0 13 1 17 2 16v-2l1-2c1 0 2-2 2-10l1-10-2-8c-1-1-1-1 1-1 1 0 2 0 2-5s-2-8-2-3m-30 3l-1 3-1 3-2 4-2 4c-3 1-4 4-2 4l1 1 2 3c2 1 3 2 3 5l2 5c1 1 1 1 2-14l2-7c3-4 4-5 2-5l-2 2c0 2-2 1-3-2l1-3 2-3h-4m-17 5l-2 4-2 3c-2 1-5 5-5 7 0 1 3 0 5-2s3-2 4-1c2 1 9-3 9-6h1c1 1 1 1 1-1l2-3v-1c-1-1-2 0-3 1h-3c0-2 0-2-2 0v4c2 1 2 1-1 1-3-1-4-2-2-6 2-3 1-3-2 0m-39 8l-1 1-2 1h-2l-2-1 1 3c1 2-1 5-4 5-4-1-5 0-4 2l2 2 1-2v-2l1 2 2 1h1c0 2 3 1 4-2 2-6 2-6 3-3s3 1 3-4c1-4-2-5-3-3m-327 20c0 24 3 23 3-1l-2-16-1 17m135-17l1 2s2 2 2 5c2 4 6 8 6 5l-1-1-3-7 1-1a2 2 0 000-3h-6m-170 4l2 2v1l2 4 5 7c2 4 4 5 6 5l2-8 1-8v-2c-2-1-5 1-5 3l-2 2c-3 2-5 1-4-2l-1-4-1-1-1 2-3-2c-2-1-2-1-1 1m468 2l1 4 2 12c0 14 2 22 2 10v-10l-1-9c-1-5-2-7-3-7h-1m-795 5c-2 1-1 3 4 4 6 0 7 0 4-3-2-2-7-3-8-1m399 3l-1 1-5 5-7 6-4 3-2 2c-4 3 1 3 5 0l2-2c-1 1-1 2 1 2l1-2 2-2c2-1 3-2 3-4l2-4 5-6-2 1m-271 3c0 2-1 3-2 3v8c0 2 0 2 2 0 1-2 2 1 1 7a2 2 0 002 3h-4c-2 0-3-3 0-3l1-2-1-2a1 1 0 00-2 1c1 2-1 3-8 4a17 17 0 00-10 2c-2 0-6 3-5 3l21 2 7-2 7-1 2-1 9-1c5 0 3-2-3-3l-8 1c-2 2-6 0-6-2l-1-4 1-2 1 3c0 2 1 2 4 2 8 0 9 0 2-1l-4-2 1-1 2-1c0-1-5-6-6-5l-1-4c0-5-1-6-2-2m583-2c0 2-2 7-4 8l-1 3c0 1 0 2-1 1l-2-2c0-2-1-3-2-3h-1v8c0 4 2 5 5 3 4-3 5-2 8 1 2 4 3 4 12 6 4 1 4 0 4-1s0-2 1-1l1-1 1-1 3-2 2-1h2l-2-1-2-1 2-1 2-1c0-3-3-2-4 0 0 2-8 1-13-2l-4-2 2-2c3-3 2-4 0-7l-2-1v3c1 5 0 5-3 0-3-4-5-5-4-3m-26 6l-2 1h-2v1c2-1 2 0 2 1 0 2 0 2 1 1h3v3c-3 0-6 6-4 9 1 2 1 2-1 3s-3 4-1 4l1-1h2l2 2c0 2 2 1 4-1v-8l-2-4c0-3 1-3 2-1l2 1c1-1 1-2-1-4l-3-5c-1-3-2-4-3-2m-599 4l-10 1c-16 1-18 3-3 3 12 0 15 0 14 1l-10 1c-9 0-12 1-12 2s5 1 32-1c17-1 26-3 11-2-10 0-10 0-10-2l-1-3v2c0 2 0 3-2 3h-3l-2-1c-2 0-3-1-1-3 1-1 1-1-1-1h-2m148 5l-5 4c-3 1-1 2 3 1h9l7-1c4-1 2-2-5-2-9 0-9 0-6-3 2-1 3-3 1-3l-4 4m94 4c-2 2-3 11 0 11v1l-2 1h2l4-2c2-2 2-2 0-2-1 1-2 1-2-1l-1-10-1 2m-36 4l-4 1-4 2-4 1c-4 1-5 5-2 5 2 0 6-2 5-4l1-1c3 0 2 2 0 5-2 2-2 2 0 2s1 1-4 3c-2 1-3 1-3-1l2-1 1-1-3-1c-2 0-3 0-3 2l-2-1c-2-1-2-1-4 1-3 3-2 5 0 4 1 0 2 0 1 1l-3 1c-2 3-5 3-7 0-3-3-4-2-2 1 1 2 2 3 4 3a28 28 0 016 1l2 2 2 2c1 0 1 1-1 3-1 1-1 1 1 3 3 3 3 3 1 4a3 3 0 104 5c-1-4 0-7 1-7l2 2 1 2-2 5-2 7c1 1 1 1 2-1l1-2v2c1 4 1 13-1 13h-2l1 1c1 0 2 1 2 6s-1 5-3 5-1 1 1 1c4 1 6 3 4 6-3 3 1 1 4-3 4-4 4-4 1-4-3 1-2-1 1-2l5-4c2-2 3-3 3 0 0 2 2 0 2-3 1-2 1-3 2-2l2-1 4-2 6-2c1-2 3-3 4-2 1 0 9-4 9-6l7-3c1 1 3 0 5-2l4-4-2-2c-2-2-4-2-3 1a6 6 0 01-9 4v-5l3 2 2 2v-3c-1-3 1-5 3-5s3-1 1-3v-7c-2 0-2-5 1-8v-5c-2-3-2-3-3-2h-6c-5-2-6-2-7 0-2 1-1 2 2 3l3 1 3 2 1 2 1 1 2-3 1-1 1 2-2 4c0 2 0 2-1 1h-5c-2 0-4 0-6 2l-6 2c-2 0-3 0-3 2l2 1h3l1 1c3 0 4 0 3 1l-3 1c-2 0-3 1-1 3a1 1 0 11-2 2h-2l-3 2c-2 1-2 2-2 3v4l-3 1a2 2 0 11-1-3c1 1 3-2 3-4l-1-2-2-1v-5c0-2 0-3-2-2-3 0-4 1-1 2l1 3c0 2-2 3-2 0-1-1-1-1-1 1 0 3-2 4-2 1l-1-3c-2-1-1 5 1 7 1 3 1 3-1 3-1 1-2 2-2 5l-3 4c-3 0-4 1-2 2l1 3c0 2 1 3 2 3 3 1 6-2 5-5l2-1c2 0 2 0 2 3-2 4-6 6-12 6l-1 3-1 3-1-3 1-4v-1c-1-2-1-12 1-11a3 3 0 101-5c0 3-3 1-3-2l1-8-1-3-2-1-4-1c-3 1-3 1-4-2s-1-3 1-3l1 2c0 2 7 2 8 0 2-3 1-6-1-2-2 2-2 2-2 0l1-3 2-1 1-2-1-4-2-1-2-1h3l2-1 2-2 1-1h5l4-1c-1-1 0-2 2-1 2 0 4 0 5-2h4c3 1 6 0 5-1l-2-1-3-1c0-2-5-2-7-1s-3 1-5-1c-4-3-5-4-5-2m-198 4l2 7c0 3 0 3 1 2 2-1 5 1 3 2l4 1 6-2c1-1 1-1-1-1-3 1-3 0-3-2s0-3-2-3l-3-1c-1-1-2-2-3-1a1 1 0 110-2l1-1h-3l-3-1 1 2m694 3l1 3c2 3 2 9 0 12-2 2 0 3 1 1 2-2 3-14 2-16s-3-3-4 0m-482 3l-2 1-2 1h2l2 2c0 1 4 0 6-2l3-1 1-1c0-1-2-2-5-2s-5 1-5 2m-250 6v10c0 2-12 7-13 7-1-1-3 1-2 2s2 1 4-1l10-1 9-1c-1-1 3-2 7-2 3-1 5-3 2-4-3 0-5-2-3-3s0-3-1-2l-4-1c-2-1-2-1 0-1h6c8 0 5-2-3-2-7 0-8-1-9-3s-1-2-1 0c-1 1-1 1-1-1l-1-2v5m289 11h-4l-1 1-2 2v7c0 3 2 2 5-3l4-6c5-2 3-3-2-1m114 7l-1 5c-2 4-2 4 0 6 2 1 2 2 2 4v4c1 0 5-3 5-5l2-1c4-1 3-9-1-9l-1-2c0-2-3-4-5-4l-1 2m226-1c-2 0-2 1-2 3l-4 4c-2 1-4 2-4 4l-1 4v-1l-1-2-2-1-1-2c-2 0-5 3-5 5 0 1-1 3-4 4s-6 5-4 5v1a39 39 0 00-1 28l1 6c1 2 8 3 9 1h1v1l-1 2 2 1 3 2c2 2 5 3 5 1l-3-3-1-1 4 2c1 1 2 2 4 1l2 1c1 2 0 2-3 2-14 1-21 2-21 4s-6 4-8 3l-1 2-2 2-2-2c1-8-2-8-4 0-3 13-1 16 5 8 4-6 5-6 10-7 8 0 9-1 6-3l-2-2h6c6 1 8 3 4 5-2 0-2 1 1 4s3 3 3 1l-1-2c-2 0-1-1 1-4 2-2 9-3 14-1 2 1 7-1 7-2l-1-2c-3 0-2-3 0-3 1 0 2-1 2-3 1-5 0-6-2-3 0 2-2 3-3 3l-1 1a3 3 0 01-4 0l2-1c3 0 6-10 4-14v-11c-1-4 0-5 1-3h3l2-1-1 6v3l-1 1-1 3c0 2 2 3 4 1 1-1 8 0 8 1l3 1h2l-2-2-2-3-1-2-2-3c0-2-1-3-3-3l-1-2-1-2c-2-1-2-5 2-12 3-6 4-17 2-17-1 0-3 4-3 9l-2 4v-2c1-2 1-4-2-4v5l-1 7c0 8-1 9-5 10-3 0-4 0-3-1v-8l-1 3-1 2c-2-1-2 0-2 1 0 3-3 2-5-1-1-3-1-3 1-5l3-2c0 1 1 2 4 2h5c2 1 2-6 0-11-1-2-1-3 1-3v-2c-3-2-2-4 1-4h1l-1-2-6-6-3 1m-465 11l-3 2-1 1c1 1-1 5-3 5s-2 0-1-1l1-2-2 1-3 2-2 1c0 1-1 2-3 2l-5 3c-1 1-2 2-3 1l-2 1h-2c-2 0-2 0-1 2l1 3 1 1 1-2h1c1 2 2 2 3 2h2l-1 1-1 2-2 2c-2 1-2 1 0 1a3 3 0 004-2l1 1c0 1 1 2 3 2l3 1c1 3 3 1 2-3l-1-7 1-3 1 2c-1 1 1 1 3-1 2-1 5-1 5 1l1 1h1l2-3 3-1c0-3 1-4 4-3 5 0 5 2 1 2l-4 2c-1 3-2 3-4 3l2 2c2 3 3 3 9-2l3-5-1-2c1-1 0-2-2-1l-3-1h-3l-2-1 3-2c2 0 3-2 3-2 0-3-3-2-5 0h-2c-2-2-4-1-2 1l-2 1-2-1 1-1 1-1 2-2 3-3h-4m-45 3l1 2v1c-1 1 0 2 2 3l1 3v8l1-2c0-2 0-2 2-1h5l-3-2c-3 0-4-1-2-2 1-1 1-1-1-3l-3-3-2-5-1 1m-51 2l-2 1c-4-2-7 2-3 4l4 4 3 4 2 3c1 7 5 13 7 12 3 0 5 3 3 6-1 2 2 11 6 15l2 3c0 2 7 13 8 12 0-2 2-1 2 1l2 2 1 2 1 4 3 6a29 29 0 004 9c2 5-2 3-4-2l-2-4 1 7c0 5 0 8 2 9 1 2 1 2-1 3v2l1 1c0 3 2 6 6 10 5 4 5 6 0 5-2 0-2 0-2 4v5l-1 2c1 2 4 0 4-2v-3l1 1 2 3v2l1 2 1 3 1 2 1 3a4 4 0 007 3c3 1 6-6 3-7v-12c0-2 0-3 2-3 1 0 3 4 2 6l1 1c2 1 3 4 1 4v3c4 4 4 13 1 10-2-2-3-2-5 2-2 3-2 3-5 2s-7 0-7 3l-1 1-2-2c0-4-2-5-2-2-1 1 0 3 1 4 2 2 3 5 2 5l-1 4-1 6c-2 1-2 3-1 4l1-1c0-3 3-3 3 0l1 3c2 0 2 0 2-2l2-4 3-4c2-2 3-3 3 0l-6 9c-2 2-3 7-2 7l2-2 3-2h1l2-3c4-1 6-1 7 1 1 1 1 0 2-2 2-5 2-9 1-11-1-1-1-9 1-10l2 2c1 3 3 4 3 1l1-2 1-2 1-2 4-5 5-17-1 1h-1l5-5-1-3-1-6-1-5 1-2v-2c-2-2-2-2-1-3 2-2 4-2 6 1l3 4c3 1 3-1 1-3l-5-6-3-2h-2v-4c-1-1-2-2-1-3v-6l1-4 1 4 3 6c3 3 5 2 3-1l-3-6c0-4-1-5-2-5-2 0-2-1-2-3s0-3-1-2c-1 2-2 1-2-1l-1-5c-1-3-1-3 1-3l3-2c0-2 1-4 3-5 1-1 2-1 1-2v-3c2-2 3-1 3 1l1 3 1-2 2-2c3 0 4 2 3 4l2-1c2-2 2-3 1-7l1-6c2-2 2-2 0-4-1-1-1-1-1 1v2l-1 4-1 3-2-2-3-1-2 1c-1-1-1-2 1-3l1-2-3 1c-2 3-6 2-3-1l1-3 2-1 3-2c1-2 1-2 1 0 1 2 1 2 2 1 0-2 1-4 3-5l2-3 3-1 2-2c0-3 2-5 2-3s9 10 9 8l-2-2v-4c2-3 0-4-3-2-2 1-3 1-3-1-1-5-3-6-5-5l-2 1h2c2 0 3 2 1 3l-2 2c0 1-1 2-3 2s-3 0-3-2c1-1 1-1 0 0l-1 2-2 2-1 1-2 1-1 1-1 2-1 2-2 2-1 5-3 5-1 2a1 1 0 11-1 0l-1-2c-2 0-3-2-1-3l1-5c-1-4-1-5 1-6 2-2 2-2 1-4-1-1-1-2 1-3 2-2 1-3-2-2l-2 2c2 0 1 2-1 4-1 2-3 3-4 2l-1 2c1 1 0 3-2 5l-2 3v-6l-2 6c-2 6-2 6-6 1l-4-3v13c-2 2 0 4 1 2 2-3 5-2 7 0l3 2 2 2 1-1 5-8c2-1 2 3 0 6v8l1 6 1 5v6l-1 4-1 4-1 7-1 9 1 7v14l-1-1-1-1-1 2c0 2-2 4-3 4l-1-5c0-5 0-6-2-8l-1-3c3 0 2-2-1-3l-3-2h-2c-1 2-8 3-8 1l4-3 2-1 3-3c2-1 2-1-1-1l-2-1 2-2 2-4-1-5c0-2 0-2-2 1s-3 3-5 3c-2-1-2-1-2 1l2 2c1 1 1 1-1 1l-2 1-1 1-1-1v-2c-2 0-2-1-2-4v-5c-1-2-1-2-1 1s0 3-4 2c-3-1-6-6-4-7l1 1 1 2c2 1 2 0 1-3 0-3-1-5-5-7v-3c2-4-2-10-5-7h-4c0-2 2-2 8-2h12c5-1 8 0 5 3-2 1-2 4 0 4v-1l2-1 1-1c0-2 2-3 7-3 3 0 3 0 3-3l-1-6c-2-2-2-1-3 3l-6 2h-6c-4 1-10 0-10-1l1-2v-1l-1-3c1-1 0-3-1-4v-4c0-1-6-6-8-6l-1-1c0-1 2-2 5-1 3 0 4-2 1-3-1-1-2-2-1-3a1 1 0 10-2 0c0 3-3 0-3-3-1-3-1-3-2-1-1 3-2 2-3-2l2-4c3-1 1-1-9-1-6 0-7 0-7-2-1-1-1-2-3-1l-1-1 5-1h5l6 1c5 2 6 1 7-2l3-4 1-1c-1-2 0-2 2-2s3-1 1-3h-1c-2 2-5 1-6-2 0-2 0-2-1 0-3 4-7 7-8 5h-7c0 2-2 1-3-1-2-4-12-7-11-3l-1 2-3-4-1-1c-1-1-1 0-1 1m115 8l8 8c2-1 6 2 6 4l1 1 1-1c0-2 2-2 5-2v-1c-2-1-3-2-4-1-2 0-2 0-1-2l2-2 1-1c0-2-5 0-5 2-1 3-3 3-5 0l-3-2-1-1-1-2-2-1-2 1m212 2l-1 2c-1-2-4-2-4 0l2 2c2 0 2 0 2 11v12c-1 1-5-2-5-4l-2-3-1 3c0 4 0 5-2 5v17l-7 7-8 10c0 4 1 5 2 2 0-2 1-3 2-3s2 1 1 2l1 2c3 0 4 0 4 2s0 2 1 1h2c2 0 2 0 2-2l-2-2-1-1c0-3 2-2 5 1l3 2-2-5v-1l3 2 2 1 5 1h5l-2-2c-1 0-2-1-2-4 0-4-4-8-4-3l1 2h1c0 2-2 3-2 1l-5-1c-3 0-4-2-1-5 2-2 1-3-1-3-2 1-2 0-1-6 0-9 0-9 5-7 4 1 7 7 4 9l1 3c2 2 2 2 2-6 1-9 1-9-4-9l-4-1h4c4 0 7-3 4-4l-1-13c0-11-2-23-2-15m-284 6c0 3-1 4-3 2v1l1 5 1 3c2 0 2 0 2-2-1-2 1-8 3-8l3 3c1 2 3 3 3 2s-3-5-7-8c-2-1-2-1-3 2m98 1c0 2 0 2-2 2s-3 2-2 6v5l1 1 1 2a3 3 0 003 6v4c1 2 1 1 1-5a16 16 0 011-8l2-2v-3l-1-5c0-4-1-5-3-5-1 0-2 0-1 2m-173 5l-1 3-4 14 1 3 3-3a6 6 0 015-8h-1c-2 0-1-3 1-5v-1l-2-2-1-2c-1-1-1 0-1 1m367 3c-1 2-1 9 1 9l2 3c1 5 1 5 3 5 4 0 4 0 1-3l-2-4-2-1-1-3c1-4-1-9-2-6m-286 8l-1 2-1 1-1 1c0 1 5 2 7 1l2-1-1 2c-2 1-1 3 3 4 4 0 4-3 1-5-2-2-2-2-1-3v-2h-1c0 2-2 3-4 1-1-1-2-2-3-1m297 10c-2 4 0 9 2 9l3 1c3 3 8 2 7-1 0-2 2-5 5-5 4 0 2-1-4-4-9-4-11-4-13 0m258-1l1 2c1 2 2 6 1 7a2 2 0 103 1l1-5c2 0 1-3-2-4-2-1-3-2-4-1m-685 2c-2 2-1 4 2 2 2 0 3 2 1 4l-1 2 2-1 6-4c7-2 7-3 1-4h-6c-2-1-3 0-5 1m62 5v1c-1 0-2 1-2 3l1 2c1-1 2 0 2 2l1 4c1 1 2 2 1 3 0 2 1 5 4 6 2 1 2 1 0 1-1 0-2 1-1 5l-1 5-1-1-1-1c-2 0-2 1-1 6l2 1h4c2 1 2 1 2-2-1-4 1-8 4-8 1 0 1-1-1-3v-2c2-2 1-7-2-11-2-3-4-5-3-6h-2c-2 1-4-2-4-5l-2-2v2m116 9c-4 7-4 14 1 14v-1a6 6 0 014-10c1-1 3 0 4 3l2 3v-5a10 10 0 00-11-4m-19 4c0 2-1 2-1 1a4 4 0 00-3 6l2 2 1 5c1 1 1 0 1-2 0-4 0-4 2-3l1 5c0 3 0 3 1 2v-5l-2-7c0-5-1-6-2-4m-115 3v2h-2c0-2-2-1-2 1 0 9 6 12 7 3 1-4 0-8-3-8v2m141 5c-1 1-1 1 1 2v3c-1 4-1 4 1 4l1-1 1-1v4h-3c-1-2-2-2-3-2l1 2 1 4h-2c-1-2-1-2-1 0l1 2 3 1v-1c-1-1-1-3 1-3s3 4 2 6c-2 1-2 4 0 4l2-7c1-4 3-3 4 1 0 3 2 3 2 0l1-2 3-10c-1-1-1-1-1 1 0 1 0 2-1 1v2c0 4-3 5-4 2a12 12 0 01-2-8l-3-3-3-2-2 1m565 1c-6 2-7 4-4 5l3-2c0-1 1-2 4-2 5 0 5 1 1 3-3 1-3 1-1 2l3 1c3 3 5-1 3-7 0-2-3-3-9 0m-613 1c-2 4 1 16 3 16v-2l-1-9v-6l-2 1m499 1c-2 1-1 3 4 4l7 5c3 3 9 3 20 3 8-1 17 1 13 2v1c2 0 2 1 0 3-1 1-1 2 2 2s4 1 5 4l5 6 3 5 2 1c1 1 2 1 1 2 0 2 1 3 3 1l10-1h8c-3-1-3-1-1-1 3 0 5 1 4 3h4c0-1 2-1 4 1 4 1 4 1 6-1 1-2 7-3 7-1l-1 1-2 1 2 1h2c1 2 6 0 6-2l1-2 1 2c0 2 3 1 6-1 2-2 2-3 2-11v-9h-6c-6 0-10-1-11-3s-34-4-38-3h-1c0-2 0-2-2-2l-5-2h-5c-2 1-10 0-9-2l-2-2h-4c-1 1-1 1 1 1l3 1-2 1-6-2c-6-2-10-3-10-5 0-1-2-2-4-1v2c2 3-7 3-13 0l-7-2h-3m-529 5l1 3 1 4c1 4 3 3 4-1 0-4-2-9-4-9-2-1-2 0-2 3m638 0h-4c-3 0-3 0-2 1l2 2c0 3 10 6 13 4 1-1 1-1-1-2l-3-2c0-3-4-5-5-3m-756 8c-2 3 0 6 3 4 1-1 2-1 3 1 1 1 1 1 1-1 2-4-4-7-7-4m81 3l-2 3-2 2c-2 1-2 6 1 9l1 3 2 1c1-1 3 0 5 2l4 2 4 2 9 3c1-1-2-4-4-4l-1-1-1-2-1-2v-2l-2 2-3 2v-3h-1l-1-2c-3-1-2-3 0-6 1-1 2-2 1-3v-1c2 1 3-4 0-4-4-2-8-2-9-1m-90 2l2 4 1 4 1 4 3 11-4 1-2 1c0 2-9 2-10 0l-2-1-3-2c-1-3-3-4-3-1 0 1-1 1-3-1-3-4-5-2-2 1l2 4 1 1 7 7 2 3v-2h1c1 0 2 1 2 3l1 3 1-1a1 1 0 112 0l4 3 7 4h5c1 2 1 2 1 0s0-2 2-2c1 1 1 1 1-1l-4-13a90 90 0 00-11-28l-1-3c-1-1-1-1-1 1m202 1c-2 4-2 4 2 7 2 3 3 4 4 2v-3c-1-1-3-3-3-5l-2-4-1 3m202 5l-3 1c0 3 25 4 26 1 0-2 0-2-2-2h-21m-145 4l-1 2-1 2-2 2c-2 1-2 2-2 4l-1 5c-1 0-1 8 1 12 0 1 1 1 1-2 0-2 1-3 2-3l2-3 1-3v3l1 6 1-3v-13l-1-10-1 1m-226 4c-2 3-1 8 0 6 2-1 2 0 2 2l3 4c1 0 1-7-1-11s-2-4-4-1m387-1v6c1 3 2 2 2-1 0-2 0-2 2-1 1 2 1 2 1 0 0-1 0-2 1-1l1 2 1 5 1 6c2 10 3 7 3-5v-12h-6l-6 1m-156 2c-3 2-1 4 3 3l7 1c3 2 5 2 5 1l2-2 2-1-15-2h-4m-197 3a2 2 0 01-1 3l-1 3c0 2 2 5 5 5l1-2-1-1c-2 1-3-2-1-3h1c0 3 4 4 5 2 0-2-2-5-4-5l-1-1-2-3c-1-1-1-1-1 2m233-1c-2 1-2 1-1 2 2 1 2 3 2 6v3h2c1 0 2-5 1-6v-3c2-3 0-4-4-2m-165 3l-1 4-2 1c-2 0-3 2-1 2l1 5c1 4 4 9 4 6l1-3 2-3v-7c-1 1-4-3-3-5 0-2-1-1-1 0m129 1c-2 1-1 3 1 3h2l-1 1c-2 0-2 1-2 5s2 6 2 2c1-2 1-2 1 0l-1 3-1 3 2-1 2-4 1-1 2-3c0-2 1-2 3-2 5 0 3-4-2-5-6-2-9-2-9-1m99 2c0 2 0 3 2 3s3 1 3 4 2 6 4 6 1-2-1-4c-1-1 1-4 4-4l1-1a5 5 0 00-6-4l-4-1c-3-1-3-1-3 1m41 2c-5 1-8 2-8 5h3c3-3 17-3 18 0l-2 1h-2l3 1c2 0 1 1-3 1h-7l-1 5c-2 7 1 17 4 17l2 1c1 1 0 2-2 1-2 0-5-5-4-6l-2-2-3-4-1-1c-2-1-2-1-1 1v3c-1 0 0 2 2 3 3 2 4 4 3 5 0 2-2 1-2-1-1-3-4-3-4 0-1 3 0 4 2 4s2 0 1 1c-3 2 10 5 18 5h4v-4l-1-19-2-16c-1-1-10-2-15-1m-42 7l-2 16v9c2 1 12 1 12-1a1 1 0 013 0l2 1c2 0 1-3-1-4-2-2-2-2 0-4l3-2 4-1c1-2 1-2-2-1l-3-1 2-1c3 1 5-1 4-4 0-3 0-3 6-3 5 0 6 0 6-2h-1c-2 1-2 1-3-1l-7-1c-6 1-6 1-5 3 3 3 2 5-2 6-3 0-4 1-4 2 1 2 0 2-2 2s-3 0-2-1c2 0 3-3 1-4v-1l-3-3c-2-2-3-4-2-5 0-3 0-3-2-3s-2 1-2 4m-179 9c1 5 0 10-2 11-1 1 0 4 1 4l2-5 2-7-1-5-2-3v5m247 0c-1 17 0 38 1 40 1 1 2-10 1-21v-12c0-8-2-14-2-7m-162 1c0 2-1 3-3 0-1-1-1-1-1 2v3l5-1c6 0 9-1 9-4 0-1-2-1-5 1-2 1-4 0-3-3v-1l-2 3m-26 8l-8 10-6 7-2 2c-1-1-2 0-2 1l-4 4c-3 1-4 2-4 5v3l3-3c3-3 5-4 3-1s-1 4 1 3l3-1a2 2 0 101-3c-3 0-1-2 4-5l4-4v-3c0-3 2-6 2-5v4c-1 4-1 5 2 3h2v-1l1-3 1-3v-1c-1 1-2 2-3 1v-2c1 0 2-1 1-2l1-2 1 1h1v-2c-1-1-1-2 1-3v-4l-3 4m-122-2v4c-1 1-1 1 1 1 2-1 4 0 6 1s2 1 2-1c-1-4-3-6-7-6s-4 0-2 1m-3 8l-1 2-2 2-1 3-1 4c1 1-1 2-4 4-4 2-4 2-2 4v2l-1 2h2c3-2 3-2 4 0 1 1 3 1 3-1a2 2 0 113 1l-2 3c1 3 3 2 3 0s0-2 2-2h1l1-2 3-4 2-4 3-1v-2c-2 0-2-2-1-4v-1l-3 3c-3 4-4 4-4 1 1-2 1-2-1 0-4 4-9 3-6-1 1-1 1-1 1 1s0 2 2-1c2-4 2-5-1-4a1 1 0 111-2l1-2c0-3-1-4-2-1m613-1c-2 0-2 2-2 3a2 2 0 01-5 1l1-2v-1h-1l-4 2c-5 3-3 11 3 9l4 1 37 5a32 32 0 0111 2c5 1 3-1-2-2l-7-5c1-1-1-3-3-2l-2-2c0-2-3-4-10-4l-7-3-6-1-3-1h-4m-73 3v1a116 116 0 0027 2l7 1c0-1-2-2-5-2l-3-1c-1-2-23-3-26-1m-499 8c-3 6-4 12-2 12 1 0 3-6 2-7l2-2c2-1 3-5 2-7-1-3-1-2-4 4m-26-3c-1 2-1 3 1 3l1 2v1h1c2 2 4 1 5-3l2-3h-10m331 2c-3 0-12 4-14 6-2 1 2 2 6 1 13-4 20-10 8-7m123 4c-1 2 0 2 6 2l7 2a47 47 0 01-19-1c-4 2-19 2-21 1h-3l-8 2c-6-1-6-1-5-2l-1-1-1 3c0 2-1 2-3 2l-7 1-5 2 3 1c2 1 2 1 0 1l-8 2-6 2v1h4l5 1c1 2 1 2-4 1-4-1-5 0-2 2 2 2 2 3-1 3l-3-2c-2-4-4-4-14-2-9 2-11 3-10 5l-4 3c-3 1-3 1-3 4 0 4 0 4-2 3h-4l-7 3c-8 1-8 4 0 3 4 0 5 1 5 3 0 1 0 2-2 1l-7 2c-5 3-6 3-3 0 2-2 0-4-3-4l-6 1-3 1h2v2c-2 2-5 2-3 0 0-2-8-2-10 0-3 2-6 2-5-1 0-2 0-2-2-2l-2-1c1-3-2-5-4-5-3 1-3 1-4-1 0-3-4-5-4-2l2 1 1 1-1 1v1c2 2-4 8-9 9l-7 3-5 2-13 5c0 3 13 3 27 0l12-2 8-2c4-2 9-3 9-2l1 1v-3l1-1c1 0 2 1 2 3 0 3 4 5 6 3l1 2 1 3h22l2-1h3l34 1h33l7-3 7-4c0-2-4-2-7 0l-5 2v-1c3 0 2-5-1-6l-2-1 3-1c4-2 8-5 3-4l-2-1 1-1c3 0 4-3 2-4h-1l1 2-9-5-4-2c-2-1-3-3 0-3l8 5h2c0-2 1-2 3-2l3-1h-4c-3 0-4 0-7-3l-6-3h-1c0-2-7-2-8-1-1 2-6 1-6-1-1-1-1-1 2-1 3 1 3 1 3-1s8-2 11 0l7 1h4l-3 1a2 2 0 00-1 3l3 2h20l15 1-3 1-3 1c0 2 3 2 11 1a637 637 0 0125-5c2 0 2 0 0 2l-3 2h9l-9 1-6 2 2 1h3l-4 1-5 1-5 3-4 1h-6l2 2h10l6-1h2c2 2 11 4 11 2l-1-1c-2 0 1-2 3-2 3 0 6-3 3-3l2-1c5-1 8-1 4 1a2 2 0 102 2l4-1c5 0 5 0 4-1l-4-2c-3 0 6-4 10-4 2 0 2 0 1-1h-14v-1c-8 0-13-4-6-5l6-1 4-1c1 0 2 0 1-1h-2l-2-1c0-2-4-3-6-2l2 1c5 1 3 3-3 3l-4-1-5-2-3-1c-2-2-3-2-4-1l-2 1c-4 0-6 2-3 3 1 0 1 1-1 1-3 1-3 1 1 1 8 0 8 1 1 2l-6-1c-1-2-4-2-13-2h-8l4-1 2-1 4-1c3 0 4 0 3-1h-3c-7 1-16 0-14-3l17-2 28-3 2-3 4-1c4 1 8-1 7-2s-13-4-15-3l-11-1c-22-2-22-2-23-1m67 3c-11 2-12 2-12 1l-2-1c-2 0-3 3-1 4h6l5 1 3 1c4 0 5 2 3 4-2 1-2 1 1 3 2 1 4 1 2-1l3-1c3 1 4 0 4-1s2-2 4-1c1 0 1 1-1 1-1 1-1 1 1 1l2-1 4-1c9 2 16 2 16 1l-9-2c-1 0-2 0-1-1h1l1-1-8-1c-6 0-7 0-9-2-1-2-2-2-3-1-2 3-12 2-12 0l4-1h4l-1-2-5 1m-590 8v3l-1-1 1 10 1 6c0 6 1 9 4 9 2 0 2-1 2-4l-2-4-2-3-1-3-1-7 2 2c2 2 2 2 3 1v-3l-3-5c-1-6-4-7-3-1m188-3l-3 1-2 1c1 2-3 3-10 4h-3v2l-3 2c-2 0-3 1-3 2h-8l-8 1c0-2-3-1-3 1-1 2-1 2-3 2a3 3 0 00-4 2c2 0-1 2-4 4-3 1-3 2-3 5 1 4 1 4-2 5-3 2-4 2-2 4l3 5c1 3 1 3 6 3l4-1c0-1 9-4 13-4 3 0 3 0 3-2v-2c1 1 6-2 7-5 1-2 2-2 3-1 2 3 11 1 14-3l2-1c1 1 3 0 5-1 3-1 4-3 2-3l-1-2c1-2 1-3-1-3l-2-1 2-2c3-2 3-5 1-4l-2-1v-3l1-2 1 2 1 2 2-4-2-4-1 1m180 8c0 2-3 4-4 2s-2-1-2 2l2 2 4 8 1 1v-15h-1m276 1c-3 1-2 1 7 1h5l-3 3c-3 2-4 2-7 2h-2l-1 2c-3 3 6 1 10-3l3-1v-4c-4-2-11-2-12 0m-357 2l-2 3h-1c0-2 0-2-1-1-1 2 0 3 3 3l3-2 1-2 1 2c-1 1 0 1 1 1 2 0 2 0 1-1l-1-2c0-2 0-2 4-1h5c2-3-11-3-14 0m-95 3c-1 2 3 5 6 4l3 1c2 2 7 2 10 0 1-1 1-1-3-1-3 1-4 0-4-1 1-2 0-2-3-1l-6-1c-2-2-3-2-3-1m404 2l-4 1-3 1c0 1-1 2-3 1-2 0-2 0 0 1l2 2c0 2 3 2 15 0 9-2 9-3 0-2-5 0-7 0-5-1h6c3 0 4-1 1-3h-9m-319 7l-4 9-1 2-1 2-2 4c0 2 0 2-1 1l-1-1c-1 1 0 3 1 4v4c-2-2-1 0 1 3 3 3 7 3 7 0s6-4 11-3a23 23 0 0016-4l4-1 3-1-1-1c-1-2 3-6 6-6l1-2c-1-2 0-2 1-1l3-1c1-1 0-1-4-1v-1c1-2-3-5-5-5s-3 0-2-1c4-1-1-3-8-2s-9 1-6-2c1-2 1-2-1-2l-2 1-3 1-6 3c-3 3-4 2-2-2 3-6 0-4-4 3m223 0l-1 2a12 12 0 0012 2c6-2 7-3 1-3l-4 1a7 7 0 01-8-2m-92 1l-7 2h-5l-2-1c-1 1-1 2 1 3 1 1 1 1-3 1s-9 2-9 3l-1 1c-3 0-2 2 1 2l4-2 5-1 9-2 9-3c9-2 7-5-2-3m-405 9l2 6 1 5 1 2c0 5 1 7 3 7s3-1 0-2v-4l-1-3v-4c-2-2-2-4-1-4h2c1-1-2-4-3-3l-3-1c-1-1-1-1-1 1m428-1l-4 1-4 1-4 1c-3 0-5 1-5 2 0 2 0 2 2 2l5-2h5c1-1 3 0 4 1l2 2h-3l-4 3-1 1-1-2c0-3-3-4-3-1h-1c0-2-10-2-11 0l-5 3c-3 1-5 2-4 3l5-2c4-2 12-3 12-1l-2 1-2 1c0 2 23 4 24 2h2c1 2 2 2 5 2h4c1 1 18 0 18-1h-6c-4 0-5 0-4-1l12-3 3-1c0-1 1-2 3-2l4-2c0-1-8-1-9 1h-2c-2-1-1-2 2-2l2-1-3-1-3 1-3 1-7 1c-11 3-23-1-20-6a2 2 0 10-3-2m-408 4c0 2 1 3 2 3l1 2c0 2-2 1-4-1s-7-3-7-1l6 5c1-1 9 5 9 7-1 1 0 1 2 1l5 1h20c1-1-5-8-7-8l-3-2h-2c0 1-6-2-5-4l-3-1c-5 0-7-1-6-2l-1-1-2-1-2-1c-2 0-3 1-3 3m669-1c1 1 0 2-2 1l-8 2-15 7c-10 3-14 7-10 7l2-1c-1-1 0-1 1-1 2 0 3 0 2 2l2 1 7-1c14 1 23 1 27-2l4-2c2 0 5-3 5-4 0-2-4 0-5 2h-2l-2 1h-2c-1-1 2-5 4-5 6-1 3-3-3-3-2 0-4-2-2-3 2 0 1-2-1-2l-2 1m-166 4h-3l-1 1h-14c-2-2-4-1-2 1 1 1 1 2-1 2-2 1-2 1 0 3v1c-2-1-2-1-2 2v3h2l2-2c1-1 1-1 1 1 0 3 2 3 2 0s3-3 4 0 19 3 22 0c0-1-2-4-4-4l-2-2-3-1 1-4c1-2 1-3-2-1m79 1h-2l-2-1v5l2-1c0-2 3-1 5 1s3 3 6 0l5-2v-1h-4l-4 2h-2l2-2 2-2h-3l-5 1" tabindex="-1" itemprop="bold" style="fill-opacity: 0.858; fill-rule: evenodd;"></path></symbol></defs><use class="background" href="#-posters-1650743006454-background" fill="url(#-posters-1650743006454-background-gradient"></use><use class="light" href="#-posters-1650743006454-light" fill="url(#-posters-1650743006454-light-gradient" filter="url(#light-filter)"></use><use class="regular" href="#-posters-1650743006454-regular" fill="url(#-posters-1650743006454-regular-gradient" filter="url(#regular-filter)"></use><use class="bold" href="#-posters-1650743006454-bold" fill="url(#-posters-1650743006454-bold-gradient" filter="url(#bold-filter)"></use><use class="emboss" tabindex="-1" href="#-posters-1650743006454-light" fill="url(#-posters-1650743006454-light-gradient" filter="url(#emboss)"></use><use class="emboss" tabindex="-1" fill="url(#-posters-1650743006454-regular-gradient" href="#-posters-1650743006454-regular" filter="url(#emboss)"></use><use class="emboss" tabindex="-1" fill="url(#-posters-1650743006454-bold-gradient" href="#-posters-1650743006454-bold" filter="url(#emboss)"></use><defs><g class="gradients"><radialGradient gradientUnits="userSpaceOnUse"><stop itemprop="radial" stop-color="hsla(21, 40%, 10%, 1.00)" offset="0%"></stop><stop itemprop="radial" stop-color="hsla(24, 40%, 16%, 1.00)" offset="15%"></stop><stop itemprop="radial" stop-color="hsla(22, 43%, 12%, 1.00)" offset="30%"></stop><stop itemprop="radial" stop-color="hsla(12, 49%, 12%, 1.00)" offset="45%"></stop><stop itemprop="radial" stop-color="hsla(9, 54%, 14%, 1.00)" offset="60%"></stop><stop itemprop="radial" stop-color="hsla(11, 50%, 16%, 1.00)" offset="75%"></stop><stop itemprop="radial" stop-color="hsla(10, 58%, 8%, 1.00)" offset="90%"></stop></radialGradient><linearGradient gradientUnits="userSpaceOnUse" x1="0" x2="0" y1="0" y2="100%"><stop itemprop="vertical" stop-color="hsla(21, 40%, 10%, 0.63)" offset="0%"></stop><stop itemprop="vertical" stop-color="hsla(24, 40%, 16%, 0.63)" offset="15%"></stop><stop itemprop="vertical" stop-color="hsla(22, 43%, 12%, 0.63)" offset="30%"></stop><stop itemprop="vertical" stop-color="hsla(12, 49%, 12%, 0.63)" offset="45%"></stop><stop itemprop="vertical" stop-color="hsla(9, 54%, 14%, 0.63)" offset="60%"></stop><stop itemprop="vertical" stop-color="hsla(11, 50%, 16%, 0.63)" offset="75%"></stop><stop itemprop="vertical" stop-color="hsla(7, 57%, 8%, 0.63)" offset="90%"></stop></linearGradient><linearGradient gradientUnits="userSpaceOnUse" x1="0" x2="100%" y1="0" y2="0"><stop itemprop="horizontal" stop-color="hsla(23, 38%, 13%, 1.00)" offset="0%"></stop><stop itemprop="horizontal" stop-color="hsla(22, 43%, 12%, 1.00)" offset="15%"></stop><stop itemprop="horizontal" stop-color="hsla(11, 52%, 12%, 1.00)" offset="30%"></stop><stop itemprop="horizontal" stop-color="hsla(9, 51%, 15%, 1.00)" offset="45%"></stop><stop itemprop="horizontal" stop-color="hsla(14, 63%, 5%, 1.00)" offset="60%"></stop><stop itemprop="horizontal" stop-color="hsla(9, 59%, 7%, 1.00)" offset="75%"></stop><stop itemprop="horizontal" stop-color="hsla(14, 48%, 9%, 1.00)" offset="90%"></stop></linearGradient></g><g class="generated gradients"><radialGradient id="-posters-1650743006454-background-gradient" gradientUnits="userSpaceOnUse"><stop stop-color="hsla(21, 40%, 80%, 1)" offset="0%"></stop><stop stop-color="hsla(24, 40%, 80%, 1)" offset="15%"></stop><stop stop-color="hsla(22, 43%, 80%, 1)" offset="30%"></stop><stop stop-color="hsla(12, 49%, 80%, 1)" offset="45%"></stop><stop stop-color="hsla(9, 54%, 80%, 1)" offset="60%"></stop><stop stop-color="hsla(11, 50%, 80%, 1)" offset="75%"></stop><stop stop-color="hsla(10, 58%, 80%, 1)" offset="90%"></stop></radialGradient><linearGradient id="-posters-1650743006454-light-gradient" gradientUnits="userSpaceOnUse" x1="0%" x2="0" y1="0" y2="100%"><stop stop-color="hsla(21, 40%, 60%, 0.9)" offset="0%"></stop><stop stop-color="hsla(24, 40%, 60%, 0.9)" offset="15%"></stop><stop stop-color="hsla(22, 43%, 60%, 0.9)" offset="30%"></stop><stop stop-color="hsla(12, 49%, 60%, 0.9)" offset="45%"></stop><stop stop-color="hsla(9, 54%, 60%, 0.9)" offset="60%"></stop><stop stop-color="hsla(11, 50%, 60%, 0.9)" offset="75%"></stop><stop stop-color="hsla(7, 57%, 60%, 0.9)" offset="90%"></stop></linearGradient><linearGradient id="-posters-1650743006454-regular-gradient" gradientUnits="userSpaceOnUse" x1="0" x2="100%" y1="0" y2="0"><stop stop-color="hsla(23, 38%, 50%, 1)" offset="0%"></stop><stop stop-color="hsla(22, 43%, 50%, 1)" offset="15%"></stop><stop stop-color="hsla(11, 52%, 50%, 1)" offset="30%"></stop><stop stop-color="hsla(9, 51%, 50%, 1)" offset="45%"></stop><stop stop-color="hsla(14, 63%, 50%, 1)" offset="60%"></stop><stop stop-color="hsla(9, 59%, 50%, 1)" offset="75%"></stop><stop stop-color="hsla(14, 48%, 50%, 1)" offset="90%"></stop></linearGradient><linearGradient id="-posters-1650743006454-bold-gradient" gradientUnits="userSpaceOnUse" x1="0" x2="100%" y1="0" y2="0"><stop stop-color="hsla(21, 10%, 8%, 1)" offset="0%"></stop><stop stop-color="hsla(24, 10%, 8%, 1)" offset="15%"></stop><stop stop-color="hsla(22, 10%, 8%, 1)" offset="30%"></stop><stop stop-color="hsla(12, 10%, 8%, 1)" offset="45%"></stop><stop stop-color="hsla(9, 10%, 8%, 1)" offset="60%"></stop><stop stop-color="hsla(11, 10%, 8%, 1)" offset="75%"></stop><stop stop-color="hsla(7, 10%, 8%, 1)" offset="90%"></stop></linearGradient></g></defs><defs><filter id="light-filter"><feColorMatrix in="SourceGraphic" type="matrix" values="1.5 0 0 0 0
                0 1.5 0 0 0
                0 0 1.5 0 0
                0 0 0 1.5 0"></feColorMatrix></filter><filter id="regular-filter"><feColorMatrix in="SourceGraphic" type="matrix" values="1.5 0 0 0 0
                0 1.5 0 0 0
                0 0 1.5 0 0
                0 0 0 1 0"></feColorMatrix></filter><filter id="bold-filter"><feColorMatrix in="SourceGraphic" type="matrix" values="1 0 0 0 0
                0 1 0 0 0
                0 0 1 0 0
                0 0 0 1 0"></feColorMatrix></filter><filter id="emboss"><feConvolveMatrix kernelMatrix="3 0 0
                      0 0 0
                      0 0 -3"></feConvolveMatrix></filter></defs></svg>