<svg id="-posters-1650743075072" itemscope="" itemtype="/posters" itemid="/+/posters/1650743075072" viewBox="0 0 683 512" preserveAspectRatio="xMidYMid slice" tabindex="0" xmlns="http://www.w3.org/2000/svg">
  <defs>
    <symbol id="-posters-1650743075072-background">
      <rect itemprop="background" width="100%" height="100%" tabindex="-1"></rect>
    </symbol>
    <symbol id="-posters-1650743075072-light">
      <path d="M613 14l-2 92-15 1a134 134 0 00-27 3c-3 0-3 0-3 6v5l-1-14-41-1-40 1-1 39-1 43c0 4 0 4-1 1 0-3-1-4-3-4-1 0-2-1-2-3a25 25 0 00-1-5c0-3-1 0-2 4 0 4 1 5 2 5l2 1 2 1 1 2-4-2-5-1-5-1 4 1 5 2h-5l-5 1h-2c-6-2-15 7-19 20l-2 8c-2 2-106 2-106 0v-27c0-2 3-2 27-1h32l5-1v-85h-46c-47-1-52-1-62 3-14 5-23 12-32 26-11 17-12 21-12 60 0 17 0 30-1 29s-1 2-3 11c0 6-1 4-1-4v-9h-41l-42 1-1-35-1-35-3-9c-6-17-19-32-35-39-15-7-18-8-62-9-40-1-45-1-55 3l-3 1v413h33l33-1h2l308 1h308V305l-1-155v52h-3c-2 0-2 0-2 7l1 6c1 0 2-1 1-4 0-4 1-6 2-6l1 8v8l-2-1h-3v9l-1 10-2-2-2-4c-4-3-4-6 1-6 4 0 4-1-2-1l-5-1v4l2 4c3 1 1 2-4 2h-5v5l1 7v6l-2 10-1 4v-41l1 3 1 3v-4c0-2 0-2 1-1l1 4 1-1 1-2v2c0 2 0 2 1 1 2-3 1-5-1-5-2-1-2-1-1-2 2-1 3-4 1-4l-3-1c-2 0-2 0-2 2s0 2-1-1V107h-31V0h-14v14M0 306c0 113 1 160 1 103a49941 49941 0 00-1-103m58-120l-4 1c-2 0-2 0-2 9l2 29c0-2 0-4 1-3l2 2c2 0 1 11-1 12l-2-2c-1-1-1 3-1 9v12h5c9 1 10 0 10-4l1-4h-5c-7 0-7-2-1-2 5 0 6-1 6-3s0-2-6-2l-6-1c1-1 2-2 6-2h5v-50l-3-1h-7m609 17c0 3 0 11 2 12l1-5c0-4 0-5 2-5 3 0 4-1 4-2l-4-1-5 1m-206 3c-13 2-13 26-1 38l4 3c1 0 2-3 1-4v-3l1-1-3-1-2 2-1 1-1-4-2-1c-4-1-1-8 3-8l2 2 1 1v2c-2 2-2 2 0 2s3 0 3-7c0-8-1-10-3-6-1 3-3 4-5 2l-2-1-1-1 2-2v-1c-1-1-1-1 1-2 3-1 5-4 4-7l1-3a1 1 0 002-2l-4 1m-301 27v64h31l31 1-31 1h-31v40l4-1a14569 14569 0 0027-3 1854 1854 0 0047-7l-3-1c-6-2-4-5 4-7h4v6l1 10 1 4v-4l2-3c1 1 1-8 1-19l-1-16-1 6v-5c0-8-2-13-2-7 0 9-2 4-2-6 0-11-2-10-2 3 0 5 0 6-1 3 0-6-2-6-2 0l-1 4c-2 0-2-3 1-10l5-18c0-2 3-4 3-3 1 1 1 0 1-2 0-4 0-4 1-2s1 0 1-6 0-9-1-8l-1-2-1-2-1-1v-2h-1c-1 2-6 2-39 1h-41c-2 0-2-1-2-9l-1-9v10m229 0l-12 1-5 1 15 1 15 1h-15l-15 1 13 1 15 1c2 0 3-1 3-3l3-3h15l-8-1-13-1c-2-1-8 0-11 1m52 4c-1 2-2 2-9 2l-11 1c-5 2-2 3 10 3 12 1 14 0 12-5 0-3-1-3-2-1m-105 6c-3 3-1 3 18 2h19v14l-1-6-1-6v14l-1 14-1-15-1-14v15l-1 14-1-14v-14h-31v14l1 16 19 1 20 2c1 1 1 0 1-3l-1-4h-1l-1 2v-6l2-2c1 3 2 0 3-9l1-11-3-5v1h-40m90 7l-1 2c0 2 1 2 4 2l6 2c3 2 7 1 6-2v-4c0-2 0-2-7-2-6 0-8 1-8 2m249 2v3c0 1-2 2-8 3-8 1-6 2 5 2 7 0 9 1 8 5l1 2c2 0 2-1 2-8v-9h-4l-4 2m-206 8c-5 5-5 6-2 6a4 4 0 006-6h1l2-2v-1c-2-3-2-2-7 3m-49 0l1 9v6l2-3c1-1 2-3 1-4l1-2 1 1h2c1-1 2-2 1-4l1-2 1-1-2-2c-3 0-3 0-3 4l-1 3-1-4a2 2 0 10-4-1m-255 2c-2 3-2 5-1 9 1 3 2 3 3 0l1-3-1-5-1-3-1 2m492 41c0 20 0 26 1 24l1-11v-21c1-13 0-20-1-20l-1 28m-321-12v29l27 2h8v-9l1-10h-13l-11-1-10-1c0-1 43-1 58 1l9-1-2-1h-4l-15-1h-14l-1-3-1-2h-2l-3 1c-1 1 0 1 2 1l3 1h-15c-4 0-5-3-3-8 2-4 1-5-3-5h-3c0 3-6 0-7-2-1-3-1-2-1 9m98-4c-4 1-4 4-4 10 0 5 0 5-3 5-4 0-9 7-9 13 0 5 1 7 2 5s2-1 6 1c5 2 10 3 8 1-2-3 1-3 4-1 1 2 1 2-1 3h-5l-2 1 6 2c7 1 8 1 9-5l1-3h-4l-8-1-3 1-4-1-3-2h4c6 1 7 0 3-2-4-1-4-1-2-3h6c1-2 1-2-3-3-5 0-6-2-2-2l4-1h8c6 0 6 0 8-7s0-10-6-10l-6-1h-4m28 10c0 3 0 4-1 3-1-5-2-1-1 5l2 12c1 12 1 6 1-14 0-11-1-15-1-6m-61 9l1 3c1-1 1 0 1 2l-1 5c-1 0-2 1-2 3l-2 2c-1 1-1 1 1 1h2c3 3 4 1 4-9 0-9 0-10-2-10-1 0-2 1-2 3m-21 18l27 3c1-2-1-2-9-3h-18m32 35l-5 1c-4 1-6 4-3 5 3 2 10 1 10-1l1-3c0-2-1-2-3-2m-353 4c0 2 0 2 3 2l5 1c2 0 2 0 2-3s0-3-5-3-5 0-5 3m598 60l1 63c1 0 24 2 25 1l-1-1v-1l1-58v-59l-8-1c-9-1-14-3-14-6l-2-1h-2v63m-461-55l18 1h11l-10-1-18-1h-8l7 1m155 24l-10 1h-5v19h11l27 2h17l5 4 5 4v36l-1 36h5l16 1 12 1v-7l-3-30-2-15-3-20-3-18v-6h-8l-17-1-22-4c-15-1-18-2-11-2h4l-5-1-6-1-6 1m-291 8l-2 10c0 2-2 1-2-1l-1 1v96h5l8 1h2v-56l-1-57c0-2-2-2-4-2h-5v8m184 4c0 4-1 5-4 5h-6c1-3-71-5-73-2l-1 32 1 46v17h10a43808 43808 0 0078 5c46 3 47 3 33-4-10-6-21-17-26-27-6-12-7-16-8-44l-1-26-1-2c0-5-2-4-2 0m217 18c-1 8-1 73 1 74l5 1 4 1v-8l-1-17-7-53-1-4-1 6"
      tabindex="-1" itemprop="light" style="fill-opacity: 0.69; fill-rule: evenodd;"></path>
    </symbol>
    <symbol id="-posters-1650743075072-regular">
      <path d="M615 10v96l6 1h5V0h-11v10M13 97l-9 2-4 1v18l8-3 8-3h35l43 1c21 3 40 18 45 38 3 8 2 66 0 133v5l-1-4 1 21c2 24 0 94-2 94l-1 8v8h-12v-32c-1 0-2-29-2-83-1-90-2-131-4-135v17l-1 22c-1 3-1 3-1-4v-9l-1 5c0 4 0 6-2 7-1 1-1 1-1-1v-3l-1 24c0 30-2 18-2-17 0-23 0-23-1-12v101h-9l-26 1-17 1h26c33 0 31 1 31-11l1-8 1 5c0 5 2 5 2 0 1-3 1 8 1 23l1 31c2 6 1 67-1 65l-2-1c-1 1 1 3 3 3l1 10c0 8 0 9-2 9s-2 1-2 4l-1 4-1-4c0-6-2-5-2 1-1 4-1-28-1-96 0-25-1-26-2-26H95c-16 0-15 2 1 2l12 1-1 54-1 55-2 8c0 7 0 8-2 8l-2-1-2-2c-2 0-2-1-2-8l-2-8c-3-4-4-17-6-59l-1-27-26 1H36v10c0 24-1 60-2 52v3l-1 12-1 7c0 6-3 13-6 14l-1 10c0 5 0 8-1 6l-2-4-1-9c0-7-3-17-6-18v-6l-2-85-1-14-1 68-1 65c0-4-2-4-2 0 0 3-2 0-2-4l-1-4-1 4v6c-1 4-2-6-3-41l-1-35v144h33l33-1h2l183 1h181v-4c2-10 1-12-4-12l-10-1-12-1h-6v-36c0-33 0-35-2-35l1-1h-63v-31h4l4-1-4-1-4-1c0-2 8-3 13-1l11 2 20 5 14 3 22 1c-5-1-4-2 0-2h6l1 10 2 19 3 19c1 8 2 10 2 7 1-3 1-2 1 4l1 9v8l1 17 2 14-1 5-1 2c0 2 1 2 125 2h126v-70c0-80 0-79-4-79s-4-2 0-3h3v-44c0-38 0-45-2-45-2-1-1-3 1-3 1-1-1-1-3-1-5 0-5 0-5-3 0-2 0-2 3-2h3l-2-1-8-1h-5v3c0 4 0 4-4 4h-4V108h-36c-44-1-40-1-40 6 0 5 0 5-2 5h-7c-4 1-4 1-4 5l-3 104-1-58v-62h-13l-39-1h-26v26c-1 36-2 43-3 45v9c1 7 0 8-3 6l-8-2-6-1 1 4-1 6-1-4v-3h-4c-4 0-9 2-9 4l1 1 3 1c3 2 3 3 2 5-2 1-2 1-2-1v-2l-3 2-5 2c0-1-2 1-3 5l-2 8-1 4-1 3c-1 1-1 3 3 11v4l1 1 1-2 1-2c2 2-1 7-3 7-3 0-5 2-3 4l3-1h1l-2 2-2 1 2 1c2-1 2-1 2 1s-1 3-8 6c-7 4-8 4-7 6 1 1 1 1-1 3-4 3-6 5-6 8v1l-3 2-1 3 1-3-1-16v-4h6a9 9 0 017 1l2-1c4 0 0-3-4-3-5-1-7-4-3-7v-1l-9-5c0-1 1-2 3-2 3-2 4-7 1-6l-10 1c-8 0-8 0-8 3v2h-29l4 4 3 4h10l11 1 1 26 1 25v12c0 13 1 16 4 9l2-3v4l-1 4c2 1 3-2 3-6l1-5c2-1 2-1 1 5l-1 6 1 5 2 8c0 3 0 3-1-2l-2-7c-1-1-2 6-2 9l1 4-2-3c-1-2-2-2-2-1 0 3-2-2-2-7-1-4-1-5-4-5l-28-3-21-1 6 1 6 1-9 1c-12-1-17-2-17-4l-2-1h-2l-1-38v-93h31l32-1c2-2 2-31 1-64-1-17-1-19-3-19-5-2-92-1-97 0-23 6-42 25-47 48-2 9-3 55-3 120 0 52-1 66-2 67-1 0-2 58 0 60h1l1 29c1 27 1 30 3 36 5 15 15 28 29 35 7 4 10 7 9 8s-26 0-55-2l-67-4h-7l-1-50v-50l28 1h36a10 10 0 0010-1l2-2 3-1c4 0 4 0 4-4a32 32 0 000-10l-3-1-4-1h6l1-6 1-5h-6c-6 0-9-1-7-2 1-1 0-1-3-1l-22-1-32-2-14-1h27l32 2 21 2 3 1v-18c0-10 0-17-1-16 0 2-4 1-6-1l-4-2c-2 0-2 0 0-1l1-1c-2 0-1-2 1-2 2-1 2-1 0-1a165 165 0 00-26 5l3 1 1 3c0 2-1 2-9 2l-10 1-1 1c-1 1-5-1-5-3 2-3-1-3-13-1l-14 1-1-66c0-97-1-116-3-123-6-27-29-48-56-52-8-1-82-2-87-1m288 24c-18 4-32 21-35 39a226 226 0 002 56c0 7 0 7 1 3l1-3 1 2c1-1 1 0 1 2 0 4 0 4 4 4h4v-8l1 4c1 4 1 4 1-3 0-5 1-8 2-9l1-17a67 67 0 019-35l2-4 9-6c3 0 1 2-2 4-2 0-4 2-5 4l-2 4a17 17 0 00-1 9l1-5 1-3 1 2v5c1 2 1 2 1 0l1-2 2-2c1-2 4-6 6-6l2-1c1-3 14-4 34-4l19 1v-4c1-4 1-4 1 1v5h-46l-6 3a22 22 0 00-9 7c-2 1-5 31-3 31l2 19 1 11 1-10c0-2 4-3 4 0l1 1 1-1 2-2 1-4v-1c2 2 2 1 1-3 0-4 0-5 1-3 1 1 1-1 1-7l1-9 1-2c-1-3 8-10 13-11l5-1 16-1h17l-13-1h-12l13-1a27 27 0 0022-7c2 0 3-5 4-24 1-14 0-16-2-17h-80m198 68v67l4 4 8 5c10 5 15 21 15 46l1 36c0 30 0 39-5 51-2 6-2 7-2 22l1 26c1 12 2 15 2 5v-6l1 5c1 6 2 8 2 3 0-4 2-3 2 1 1 2 1-10 1-17l1-6 1 13c1 17 2 20 3 17l1-1c0 2 5 2 5 0l3-1 3 1v-9l2-19 1-59 1-47 22-1h22v39c0 54 2 89 4 89 2 1 2 1 1 4 0 3 0 3 1 2l2-1h1l4-2c1 0 2-1 2-3l2-4 1-73v-72h-2c-2-1-2-1 1-1h3v63c0 75 1 93 3 94v-4c0-2 0-2 2 0 3 3 3 1 4-12l1-12 1 6 2 12c2 7 3 7 9 2l4-5v-7l1-8c2-1 2-308 0-309l-24-1h-22v3l-1 70-1 73v5h-44V122h-50v67m-179-47h40l-20-1-20 1m199 26l1 98V144l-1 24m94 6l-1 74v44l-2 1c-2 1-2 1 1 1h3v-63l1-75-1-12-1 30m-568-5c-11 5-11 6-10 61l1 46 24-1 26-1c2 0 2-9 0-66 0-30-1-35-11-38-5-2-26-3-30-1m-35 26v67l1 37h7c7 0 8-1 1-1l-6-1-2-62c0-44-1-55-1-40m44-9h-2v35c1 33 2 39 4 35h4l-2 1c-1 1 1 1 5 1 3 0 5 0 4-1s-1-1 1-1c2-1 2-8 0-10v-1l2-2c0-2-1-3-7-3-6-1-5-2 1-3h6l-1-4v-9c1-8 0-36-1-38H54m405 20c-6 3-7 4-8 14 0 8 1 12 6 20l2 6c0 3 1 4 2 3v-4l2 3c2 5 8 7 8 2l4-5c10-9 11-26 3-35l-5-4v2c-1 1-2 0-2-1-1-3-7-4-12-1m10 14c-3 0-3 9 0 9l1 1-1 1v1l-1 1h-1c1 2 1 2-1 2l-2 1c1 0 8-1 7-2l2-1h3l-3-4-1-2 4-2c1-1 1-2-1-2-3 0-4-2 0-2h3c-1-2-6-2-9-1m210 13c0 6-1 7-2 7-2 0-3-1-3-3 0-3-3-5-3-3l-2 1c-3 0-3 0-3 4l1 5c1 1 0 1-2 1-4 0-3 2 1 3 5 0 6 4 2 4-2 0-3 1-3 2l-2 2-2 1h4c7 0 10-1 10-2v-7c-2 2-2 0-1-4l4-3c2 0 2-1 3-7l1-7c1-1 1-1-1-1s-2 1-2 7m-211 27c-4 5-8 7-6 3l-1-3-2-2h-2c-2 1-3 4-1 3l3 3c1 4-1 8-4 6l-3 1c-1 2 0 3 2 1 0-1 1-1 2 1l3 2v-4c1 1 1 0 2-1 0-2 1-3 5-3 5 0 9-3 9-7l2-1c2 0 1-2-1-3-3-2-3-1-8 4m198 5v4h-9l9 1h5c-3-1-3-2-3-4l-1-4c-1-1-1 0-1 3m8 4l2 5 1 7 1 4v-14c0-3-4-5-4-2m-238 4v8c0 4-1 5-2 6-4 1-5 3-4 9 0 5 0 5-2 5-3 0-6 3-9 8l-2 2-1-4a92 92 0 012-24c-2 1-4 15-4 22l-1 7c-1 1 0 1 1 1 3-1 3 0 4 4 0 4 3 7 6 7 2 0 2 0 1-1-1-2 0-2 3-1l2 3c0 2 3 3 9 3 5 0 5 0 6-3v-8l-4 2c-2 0-3 0-2-1l1-1h3c1-1 1-1-2-1l-7-2h-4l4-1h9c5 0 5 0 6-9l2-9c2-3-1-7-5-7l-6-2h-3l2-4c3-4 3-5 0-2l-2 3 1-5 1-6-1-1-2 2m221 33v36c1 0 1 2 1-11 2-46 2-54 0-57-1-3-1-2-1 32m-196-20l-1 1c-2-1-1 14 2 36v14c1 0 2-4 1-13l1-9v-28l2-1-2-1-3 1m4 4l4 19c1-1 0-9-1-14v-3c2-2 3-4 1-4l-1 1h-1c0-2-2-1-2 1m-27 16l-5 1h-4l6 2 9 2a1 1 0 101-3c-2 0-2 0 1-1l3-2h-6l-5 1m-202 16c-4 2-4 2-2 4l4 1 3 2c1 2 2-1 2-5 0-5-1-5-7-2m129 18c0 1 1 2 3 2 3 2 3 2 1 2-1 1 4 1 11 1l14-1c2-2 0-3-13-4l-13-1-3 1m294 8c0 5 0 6 2 7 1 1 1 1-1 1h-3v130h3l11 1c13 0 12-1 12 13l1-61c0-64 0-72-2-71-1 0-14-2-17-4-5-2-3-3 3-2h6l-2-2-6-3c-2-1 1-1 6-1l10 1-9-2c-9-1-9-1-9-4l-1-3v2c0 2 0 3-2 3l-1-5v-6l-1 6m-460-3c-9 1-11 1-10 3h27c1-1-3-4-5-4l-12 1m221 6a6 6 0 01-5 3v4l-32 6-15 2c-2 2 8 2 18 0s11-2 12-1c2 2 9 3 13 2 2 0 4 2 3 4 0 2-1 2-5 2l-5 1-9 1c-12 0-17 2-6 2h24v3c0 2 1 3 4 3s5-1 5-2h-1c-3 1-1-4 1-5l1-1-3-1-2-2c-2-1-2-12 1-16 6-10 6-11 1-5m-205 3c6 2 22 2 22 1 1-1 0-1-3-1h-19m-45 1l-7 1-3 1c0 1 9 2 16 0l4-1c-1 0-2 0-1-1h-9m-111 8l-2 3c-2-1-4 1-2 2h1l1 1c2 1 2 1 3-1 0-2 1-2 5-2 5 0 5 0 5-3 0-5-10-5-11 0m279 11c-2 1-2 1 2 1h17l-3-1h-16m94 5l2 1-1 1-1 1-2 2-2 1c-2 0 2 2 5 2l5-10h-9l3 2m-53 5c5 3 43 5 43 2 0-1-6-2-15-2h-28m-319 6l-1 6c0 5-2 11-2 7 0-2 0-2-1-1-2 2-3 92-1 101v4h16l-1-22v-59l-1-36c-5-2-9-2-9 0m458 20l-1 2-2 6c-1 7-3 10-8 13-3 1-4 2-3 4 0 2 0 2-1 1-1-2-2 0-1 11l1 10v-9c0-5 0-7 1-4l1 4 1 4c0 3 0 4 2 4l3 1c1 2 2-1 2-5s0-4 2-2c1 1 1 1 1-2v-3h1v-5l-1-2c0-2 0-2 1-1s1 0 1-5l1-15v-9l-1 2m-57 7c-1 2-1 79 1 80 1 1 6 2 8 1s1-20-2-46c-4-31-5-38-7-35"
      itemprop="regular" tabindex="-1" style="fill-opacity: 0.36; fill-rule: evenodd;"></path>
    </symbol>
    <symbol id="-posters-1650743075072-bold">
      <path d="M617 9l-1 53v44h9V70a4344 4344 0 010-58V0h-8v9M12 98l-8 2-4 1v16l4-2 6-2c3-2 80-2 89 0 16 3 32 15 39 30 5 11 5 5 6 187v168h-2l-54 3-1-85-1-85-25 1-24 1v85l-1 85-35 3-1 3v3h33l33-1c-2-2 1-2 3-1 1 2 93 3 93 1l2-1c4 0 10-3 8-3l-6-1h-6v-72l-1-97c-1-128-3-180-4-187a76 76 0 00-10-22l-1-1a65 65 0 00-38-27c-11-2-85-4-94-2m294 8a56 56 0 00-23 8 43 43 0 00-18 14l-11 22-2 8v145c0 144 0 164 1 162 1-1 1 0 1 1v3l1 1v1l1 2v1l1 1c-1 1 8 13 12 18 5 4 15 10 19 11a3 3 0 013 5l-10 1-16 1 61 1c63 0 68 0 71-2l2-2v-40l-1-23-1-21h-62c-1-1-2-233-1-235l33-1h31v-33a274 274 0 00-1-35v-12l-39-1a2645 2645 0 01-52-1m181 3v8l-1 43v37l-4-3c-4-3-16-4-15-2h2c2 0 1 1-1 3l-1 3c1 0 0 2-2 3s-2 1-2-1c3-5 0-10-4-7l-2 1-3 1v2l1-1c1-1 5 0 5 1l-1 1-1 1 1 1v2c0 3 0 3 1 2 3-2 12 0 16 2 4 3 6 7 8 14 1 4 2 5 3 5 2-1 1 2-1 4l-3 4-2 6-2 7-3 6c-1 3-1 3 2 3 2 1 3 1 3 3l-3 1-3 3c-2 4-9 8-12 7l-2 3-3 3c-2 2-1 3 2 4 4 2 4 2 0 5l-3 2-3-2c-3-2-4-3-4-7 1-4-1-8-2-6v5l-2 2-1 3-1 4c-2 0-2-1-1-3v-6l-1 2-1 3c-3 2-3 5 0 5 7 0 13 5 10 10l-1 5-5 25a13 13 0 01-17-3c-2-1-2 0-2 1l-1 2c-1 1-7-4-7-6-1-1-1-1-1 1l3 8 1 7c-1 1-1 0-2-3-3-5-3-3-2 2v6l-1-3-2-5v10l1 3-2-3c-3-4-4-3-1 1 1 2 2 3 5 4 3 0 4 1 2 3l2-2c3-4 4-2 1 2v2l1 1a91 91 0 011-4h5l-5 12c-3 4-3 12 0 13h7c-1-1 1-7 2-7l1 2c1 2 1 2 1 0l3-10 1-13 1-11v13c0 15-1 27-4 34l-1 4h-5l-7-2c-2 0-1 2 3 7l1 3v5l2 16 1 16 3 22a84 84 0 003 23l-1 1c-2-2-1 16 1 25l2 9h26l-1-4-2-11-1-44c1-42 2-48 4-27l3 17 2 15 2 16v22l-1 10-1 6h7l-1-9-1-13v-13a47 47 0 00-1-21l-2-16c-2-13-2-13 0-11l1 3 1 2 1 2v1l1 5 1 4 1 1c0 3 0 4 1 3 1-4 2 9 1 19a2703 2703 0 00-2 20c1-2 3 2 2 5l-1 1-1 8v9h24v-3c0-2 1-3 2-3 4-2 45-2 45-1l1 2c3 2-1 3-10 3l-14 1c-4 1 1 1 15 1 15 0 20-1 20-2l-3-1c-4-1-9-4-8-5a152 152 0 0134-1l39-2c32-1 36-1 38-3h23l-5-1c-6 0-8-1-5-2 1-1 1-1 0 0-7 1-8 1-4-1l9-2h-3c-15 0-16 0-17 3 0 1 0 2-4 1l1-1c2-1 2-2 2-5-1-2 0-3 1-3a157 157 0 0020 1l-13-1-7-1-1-24c0-24 0-24-3-25-3-2-5-5-2-6 3 0 4-1 2-3l-2 1c0 1-1 2-2 1-3 0-3-2 0-2 4 0 4-3 0-3-3-1-4-8-2-9 3 0 3-8 1-8s-2-1-2-4l-1 12-1-44v-60l-1 84-2 85c-1 1-45 3-47 2-1 0-2-28-2-88l-1-44-1 9v2c2 3 0 4-2 2a2 2 0 101 3c1-2 2 0 2 5 0 3 0 4-2 4s-2 1-2 8l1 8 1-4 1-4 1 7c0 5-1 8-2 5h-4c-2-2-3-4-1-4l1-8-1-8-1 5-2 50v-46c-1-16-2-14-2 32v60l-1 12v-14l-1-74v-60h-6l-7 1c-1 2-1 46 1 47l3 41v14l1 22 1 18c2 2 0 3-3 3h-4v-19l-2-73-1-54v30l-1 21v-8h-4c-4 0-4 0-4 4l-1-26c0-21-1-7-1 46v77h-4l-25 2h-21v-26c1-30 1-28 6-30 5-3 9-9 9-15l1-6c9-17 12-31 11-57l-2-43c-1-30-4-38-15-45l-8-6-4-3V121h26l27 1-1 59c0 33 0 58 1 55v-4h9v-4l1 11v17l1-27 1-74v-46h-2c-5-2-74-1-74 0m95 12l-1 119 1-16c1-14 1-13 1 9l1 20c0-5 0-6 2-5 2 0 7-2 5-3h-3c-2 2-3 1-3-2v-1c0 2 4 1 4 0l1-2 1 1 1 1 1-61 1-59h50v90l1 67 1-23v19l1 21c1 1 1 0 1-8 0-12 2-17 5-13l1 4 1 1 1-8v-8h-8v-4c0-3 0-4 2-4l1-4c0-4 1-6 4-5l1-2c0-2 0-2-1-1h-2c-1-1 0-3 2-3l1-20c0-20 0-21-2-21s-2-1-2-14l1-15 1 1h1l1-30 1-30-3-1-3-1h3l-35-1h-37v12m-283 0c-18 6-32 21-34 39-1 12 1 294 2 300 5 16 19 30 36 33 6 1 44 0 73-2h8v-53l-27 1c-26 0-27 0-30-2-7-5-7 5-7-130V186l2-4c6-8 6-8 37-8h25v-17l1-26v-11h-25c-40-1-55-1-61 1m277 27l-2 3c1 4 0 9-2 9s-3 10-3 27c1 25 0 62-2 67l-1 3h11v-22a9920 9920 0 011-88l-2 1M45 171c-3 1-6 4-7 6l-2 3v95l25-1h25l-1-45c0-52 0-53-10-58-6-3-25-3-30 0m6 13v68l1 8h19v-9c1-17-1-66-2-67H51m399 21c-3 1-5 6-7 18l-2 3 1 4 2 6c1 2 1 2 2 1l2-1-2 8v3c1 2 4 1 3-2l1-2 1 3c0 2 0 3-1 2v2c2 1 2 3 2 6v8l-1 1c1 0 2 0 1 1h-1v4h-1c0 2 1 2 2 1l6-2v-2l1-1-3-1-1-1v-2c-1-1-1-2 1-3 2-2 5-3 4 0l1 1 1 3c0 3 1 3 4-1 4-5 5-6 3-6a10 10 0 01-9-6l-2-4-4-10c-5-10-5-24 1-29 3-2 0-4-5-2m221 32c0 9 0 9-4 9l-4 1h4c4 1 4 1 4 5 0 3 0 4 2 4v-8a12 12 0 00-1-10c0-2 0-2 1-1h1l-1-3c-1-1-2 0-2 3m-264 2l-1 1h-30l4 4c4 4 4 4 11 4l12 1 6-1h7c5 0 6 1 6 4l-2 2h-5c-4 0-4 0-3-1 1-2 1-2-1-2s-3 1-3 2 0 2-2 2c-1 0-2 1-2 3s0 2 1 1l8-1c8 0 10-2 10-5l1-3c2-1-2-6-5-7h-9l2-2 3-1h-4a3 3 0 01-4-1m38 11c1 3 1 5-3 6-7 3-12 6-11 8 1 5 0 14-1 14l-1-4v-3l-2 8v7l-1-5c-1-5-1-6-3-2l-3 3a25 25 0 00-3 15v13l2-2 3-5c3-3 4-8 3-10l-1-8c-1-6-1-6 1 2 1 7 3 8 3 1l3-8c2-4 3-2 1 3-3 5-2 6 1 1l2-6 1-4c1-2 1-2-1-2l-2-1v-2l1 1c2 4 5-1 4-5l1-6h4l-1 1c-1 0-2 1-2 3l1 2v3c2 0 2 0 0 1-1 1-1 1 1 2l3 3c1 2 1 2 1-1l1-5v-7c1-1 1-1 0 0-2 1-2 2-2 4v2l-1-1v-3c-1-1 0-3 1-4 3-5 3-10 0-10v1m135 9h-8l-12 3 3 1 2-1c-1-1 1-1 6-1s7 0 6 1-1 1 1 1l4 1h3l-3-1c-2-2-2-2-1-4 1-1 0-2-1 0m2 8c-5 4-5 5 3 5l7-1-4-1-4-1h4l4-1c0-1-9-2-10-1m95 1c2 2 3 7 2 15 0 3-2 2-2-1 0-7-3-11-8-11-4 0-4 0-3 2 2 2 3 5 1 5l-2-4c-1-3-1-4-4-4s-3 0 0 9l1 5-1 2 1 1v8c0 8 0 8-1 4v55l1-12 1-27c0-17 1-28 2-28l1 18c-2 32-2 49-1 49l1-13c1-13 3-25 3-13 0 14 1 26 2 27v-8l1-8 1 2 1-2c1-3 1-2 1 6v10h5l2 1 1-42c0-38 0-43-2-43l-1-2c1-2 0-2-2-2s-2 0-1 1m-217 17c-2 2-2 7 0 24l1 18c0 7 1 11 2 11l1-2v-16a27 27 0 000-16v-14l3 15 2 8 1 5c0 3 0 4-1 3h-2c-2 2-2 3 0 3 1 0 2 0 2 2l2 2c1 0 1-17-1-22-1-3-1-4 1-4l1-1-1-1a1 1 0 110-2v-1l-1-1c-2 1-2 0-2-1 0-2 3-3 4-2l1-1c0-3-2-4-4-4s-3-1-3-2c1-2-3-2-6-1m208 3v7c0 5 0 5 2 3l1-4c0-3 2 0 2 3s1 2 1-2c0-3 1-3 3-2 3 0 3 0 2-1l-5-1c-2 0-3 0-3-2l-1-2-2 1m-15 4l-1 4v1l1 4c0 4 2 4 2 1 2-5 1-14 0-14-2 0-2 1-2 4m-3 8c-3 4-5 20-3 20l1-4 1-4 1-4 1-4v-3c0-2-1-2-1-1m1 32l1 4 1 4c0 3 0 4 2 4l1-8c0-8 0-8-2-8-3 0-3 0-3 4m-5 20c0 7 0 8 2 9h3l-1-1c-4 0-2-3 2-4 3 0 4-1 2-1l-2-1-2-1c-2 0-3-1-3-5-1-4-1-3-1 4m-594-5a2846 2846 0 002 139v22l8-1 9-1 1-80v-80H62l-10 1m613 16c2 2 13 5 17 5 3 0 1-4-2-4-11-2-18-2-15-1m-183 8l-2 4-2 2-3 1c-2 2-2 2 0 2 2-1 2 0 2 3 0 1-1 2-3 2-3 1-3 0-2-1 0-2-1-4-3-4s0 6 1 7 13 0 14-1l-1-4c-1-2-1-3 1-4 2 0 2 0-1-1-3 0-3 0-1-2l2-4c0-2 0-2-2 0m118 134l3 2h-4l-7 1c-3 1-3 1 1 1 6 0 8 1 4 2-3 1-3 1 2 1 2 0 4 0 3-1-2 0-1-2 1-2 3 0 5 1 5 2l6 1c4 0 6 0 4-1l-5-2-4-2-2-2-3-1-5-1 1 2"
      tabindex="-1" itemprop="bold" style="fill-opacity: 0.787; fill-rule: evenodd;"></path>
    </symbol>
  </defs>
  <use class="background" href="#-posters-1650743075072-background" fill="url(#-posters-1650743075072-background-gradient"></use>
  <use class="light" href="#-posters-1650743075072-light" fill="url(#-posters-1650743075072-light-gradient" filter="url(#light-filter)"></use>
  <use class="regular" href="#-posters-1650743075072-regular" fill="url(#-posters-1650743075072-regular-gradient" filter="url(#regular-filter)"></use>
  <use class="bold" href="#-posters-1650743075072-bold" fill="url(#-posters-1650743075072-bold-gradient" filter="url(#bold-filter)"></use>
  <use class="emboss" tabindex="-1" href="#-posters-1650743075072-light" fill="url(#-posters-1650743075072-light-gradient" filter="url(#emboss)"></use>
  <use class="emboss" tabindex="-1" fill="url(#-posters-1650743075072-regular-gradient" href="#-posters-1650743075072-regular" filter="url(#emboss)"></use>
  <use class="emboss" tabindex="-1" fill="url(#-posters-1650743075072-bold-gradient" href="#-posters-1650743075072-bold" filter="url(#emboss)"></use>
  <defs>
    <g class="gradients">
      <radialGradient gradientUnits="userSpaceOnUse">
        <stop itemprop="radial" stop-color="hsla(245, 10%, 50%, 1.00)" offset="0%"></stop>
        <stop itemprop="radial" stop-color="hsla(235, 14%, 47%, 1.00)" offset="15%"></stop>
        <stop itemprop="radial" stop-color="hsla(212, 17%, 68%, 1.00)" offset="30%"></stop>
        <stop itemprop="radial" stop-color="hsla(228, 15%, 52%, 1.00)" offset="45%"></stop>
        <stop itemprop="radial" stop-color="hsla(225, 17%, 48%, 1.00)" offset="60%"></stop>
        <stop itemprop="radial" stop-color="hsla(216, 18%, 51%, 1.00)" offset="75%"></stop>
        <stop itemprop="radial" stop-color="hsla(230, 17%, 40%, 1.00)" offset="90%"></stop>
      </radialGradient>
      <linearGradient gradientUnits="userSpaceOnUse" x1="0" x2="0" y1="0" y2="100%">
        <stop itemprop="vertical" stop-color="hsla(247, 11%, 50%, 0.75)" offset="0%"></stop>
        <stop itemprop="vertical" stop-color="hsla(236, 14%, 47%, 0.75)" offset="15%"></stop>
        <stop itemprop="vertical" stop-color="hsla(212, 17%, 68%, 0.75)" offset="30%"></stop>
        <stop itemprop="vertical" stop-color="hsla(229, 15%, 51%, 0.75)" offset="45%"></stop>
        <stop itemprop="vertical" stop-color="hsla(227, 17%, 48%, 0.75)" offset="60%"></stop>
        <stop itemprop="vertical" stop-color="hsla(217, 18%, 51%, 0.75)" offset="75%"></stop>
        <stop itemprop="vertical" stop-color="hsla(229, 17%, 40%, 0.75)" offset="90%"></stop>
      </linearGradient>
      <linearGradient gradientUnits="userSpaceOnUse" x1="0" x2="100%" y1="0" y2="0">
        <stop itemprop="horizontal" stop-color="hsla(242, 11%, 49%, 1.00)" offset="0%"></stop>
        <stop itemprop="horizontal" stop-color="hsla(222, 15%, 56%, 1.00)" offset="15%"></stop>
        <stop itemprop="horizontal" stop-color="hsla(222, 15%, 56%, 1.00)" offset="30%"></stop>
        <stop itemprop="horizontal" stop-color="hsla(225, 16%, 50%, 1.00)" offset="45%"></stop>
        <stop itemprop="horizontal" stop-color="hsla(220, 19%, 43%, 1.00)" offset="60%"></stop>
        <stop itemprop="horizontal" stop-color="hsla(236, 14%, 47%, 1.00)" offset="75%"></stop>
        <stop itemprop="horizontal" stop-color="hsla(229, 13%, 52%, 1.00)" offset="90%"></stop>
      </linearGradient>
    </g>
    <g class="generated gradients">
      <radialGradient id="-posters-1650743075072-background-gradient" gradientUnits="userSpaceOnUse">
        <stop stop-color="hsla(245, 10%, 80%, 1)" offset="0%"></stop>
        <stop stop-color="hsla(235, 14%, 80%, 1)" offset="15%"></stop>
        <stop stop-color="hsla(212, 17%, 80%, 1)" offset="30%"></stop>
        <stop stop-color="hsla(228, 15%, 80%, 1)" offset="45%"></stop>
        <stop stop-color="hsla(225, 17%, 80%, 1)" offset="60%"></stop>
        <stop stop-color="hsla(216, 18%, 80%, 1)" offset="75%"></stop>
        <stop stop-color="hsla(230, 17%, 80%, 1)" offset="90%"></stop>
      </radialGradient>
      <linearGradient id="-posters-1650743075072-light-gradient" gradientUnits="userSpaceOnUse" x1="0%" x2="0" y1="0" y2="100%">
        <stop stop-color="hsla(247, 11%, 60%, 0.9)" offset="0%"></stop>
        <stop stop-color="hsla(236, 14%, 60%, 0.9)" offset="15%"></stop>
        <stop stop-color="hsla(212, 17%, 60%, 0.9)" offset="30%"></stop>
        <stop stop-color="hsla(229, 15%, 60%, 0.9)" offset="45%"></stop>
        <stop stop-color="hsla(227, 17%, 60%, 0.9)" offset="60%"></stop>
        <stop stop-color="hsla(217, 18%, 60%, 0.9)" offset="75%"></stop>
        <stop stop-color="hsla(229, 17%, 60%, 0.9)" offset="90%"></stop>
      </linearGradient>
      <linearGradient id="-posters-1650743075072-regular-gradient" gradientUnits="userSpaceOnUse" x1="0" x2="100%" y1="0" y2="0">
        <stop stop-color="hsla(242, 11%, 50%, 1)" offset="0%"></stop>
        <stop stop-color="hsla(222, 15%, 50%, 1)" offset="15%"></stop>
        <stop stop-color="hsla(222, 15%, 50%, 1)" offset="30%"></stop>
        <stop stop-color="hsla(225, 16%, 50%, 1)" offset="45%"></stop>
        <stop stop-color="hsla(220, 19%, 50%, 1)" offset="60%"></stop>
        <stop stop-color="hsla(236, 14%, 50%, 1)" offset="75%"></stop>
        <stop stop-color="hsla(229, 13%, 50%, 1)" offset="90%"></stop>
      </linearGradient>
      <linearGradient id="-posters-1650743075072-bold-gradient" gradientUnits="userSpaceOnUse" x1="0" x2="100%" y1="0" y2="0">
        <stop stop-color="hsla(247, 10%, 8%, 1)" offset="0%"></stop>
        <stop stop-color="hsla(236, 10%, 8%, 1)" offset="15%"></stop>
        <stop stop-color="hsla(212, 10%, 8%, 1)" offset="30%"></stop>
        <stop stop-color="hsla(229, 10%, 8%, 1)" offset="45%"></stop>
        <stop stop-color="hsla(227, 10%, 8%, 1)" offset="60%"></stop>
        <stop stop-color="hsla(217, 10%, 8%, 1)" offset="75%"></stop>
        <stop stop-color="hsla(229, 10%, 8%, 1)" offset="90%"></stop>
      </linearGradient>
    </g>
  </defs>
  <defs>
    <filter id="light-filter">
      <feColorMatrix in="SourceGraphic" type="matrix" values="1.5 0 0 0 0
                0 1.5 0 0 0
                0 0 1.5 0 0
                0 0 0 1.5 0"></feColorMatrix>
    </filter>
    <filter id="regular-filter">
      <feColorMatrix in="SourceGraphic" type="matrix" values="1.5 0 0 0 0
                0 1.5 0 0 0
                0 0 1.5 0 0
                0 0 0 1 0"></feColorMatrix>
    </filter>
    <filter id="bold-filter">
      <feColorMatrix in="SourceGraphic" type="matrix" values="1 0 0 0 0
                0 1 0 0 0
                0 0 1 0 0
                0 0 0 1 0"></feColorMatrix>
    </filter>
    <filter id="emboss">
      <feConvolveMatrix kernelMatrix="3 0 0
                      0 0 0
                      0 0 -3"></feConvolveMatrix>
    </filter>
  </defs>
</svg>
