<svg id="-posters-1650603475164" itemscope="" itemtype="/posters" itemid="/+/posters/1650603475164" viewBox="0 0 683 512" preserveAspectRatio="xMidYMid slice" tabindex="0" xmlns="http://www.w3.org/2000/svg"><defs><symbol id="-posters-1650603475164-background"><rect itemprop="background" width="100%" height="100%" tabindex="-1"></rect></symbol><symbol id="-posters-1650603475164-light"><path d="M381 125l-2 10c0 4-1 8-3 11-3 7-3 7 4 6l8-1c1 0 0-4-2-5-1-1-2-3-2-11-1-10-2-14-3-10m55 5l-2 9-1 5-4 8 8 1h8l-1-3-3-5c-1-2-2-4-2-10-1-12-2-14-3-5m245 26l-3 2-2 3-1 4c-2 1-1 4 1 8l2 4 2 4c3 3 0 4-9 4l-11-2-7-1-13-1-21-1-15-1h-37l-8 2-8 2h-5c0-2-8-4-12-2-3 2-4 1-6-4l-3-4-2 3-4 4-6 2c-2 2-5 3-7 3-4 0-6 0-6 3 0 2-1 2-3 0s-2-2 0-3c1-1 1-1-1-1l-2-2c0-2-1-2-4-2l-4 1-1-5-2-7-2-3-1 3-2 6c0 8-7 11-17 7l-10-2h-5v10a151 151 0 002 16l12 1 25-1h13v2l2 4c2 1 1 2-3 2-3 1-5 0-5-3-1-3-4-5-5-3l-2 1c-2 0-2 0-1 1 3 0 2 1 0 3l-1 3-2 3c-3 3-4 8-3 13v2l-2-1h-4c-3 0-3 0-3-7v-7c-2-1-3 3-3 8s0 6-2 6l-1-2c1-6 0-14-2-11v15l-2 4c0 1-1 2-4 2-4 1-2 3 3 3 4 0 6 1 6 4 0 2 1 2 4 2 4 0 7 1 5 2h-17v-1l-1-3c-2-3-6-4-5-1 1 2-1 1-2-1s-2-2-5-1l-2 1 2 1-7 1c-6 0-7 0-7-2 0-1 1-2 5-2l10-3h-4c-3 1-6 0-8-1-4-2-7-2-10 0l-10 1-20-1-14-1-1-1-1 1v2c-3 3-2 3 3 2h48v2c0 3 0 3-5 3-3 0-4 1-4 2l-18 1h-16c2 2 5 2 14 2h13l29 2c28 0 29 1 28 5l-1 10 1 7h5l3 1h-20c-4 1-4 1-1 1l3 1h4v9c0 2-1 2-7 4s-6 4 0 3h7c2 1 1 1-2 1s-5 3-3 5l1 2-4-2h-6l-13 1-13 1c0 4-14 0-14-4l-3-4-1 1-4 1-5-1-1-1h-2c-1-1-8 0-8 2l4 1c6 0 6 0 7 2l-6 1c-7-1-10-2-8-5v-2c-3-2 0-4 7-4s8 0 8-2l4-1c3 0 5 0 4-1s1-16 2-17l1 1c2 3 4 2 4-1 0-2-1-3-3-3a2 2 0 112-4l27 2h23l-1-3v-4h-6a1329 1329 0 01-35-1c-24-1-33-2-34-3h-1l-2-4c-1-3-2-4-4-4-3 0-4 4-3 9h-1l-2-1-2 5c-1 2-1 3-1 1 1-3 0-3-2-4-3 0-3 0-2-4 0-3 0-4-2-4l-1 2c1 3 0 6-1 6v-4c0-4-2-6-3-3h-1c0-2-3-1-3 1s0 2 2 2c1-1 1 0 1 2l-1 2v-1h-4c-2 2-3 0-1-2 3-4 2-5-12-5-12-1-12-1-12 1l1 2 5 1c3 0 4 0 4-2h1l2 2c2 0 2 1 0 3-1 2-1 2-3 1h-6c-6 1-11 0-11-2l-4-1c-4 0-4 0-4-3 1-3 9-4 9 0l3 1a2 2 0 100-4l-3-1-5-1c-6-1-6-1-5-2 1-2-3-2-5-1-1 2-3 2-10 2l-8 1 4 3c2-2 8 1 9 3 0 2 0 2-6 2h-7l-1 3c0 4-1 5-3 2v-2c2 0 3-3 2-3-2-2-10-1-10 1s3 3 5 1c1-1 1-1 1 1 0 5-1 5-9 4h-8v7l-1 8c-1 1 2 1 6 1l10 1h17v3l1 3h8c12 1 8 2-6 3l-13 1h3c3 0 3 0 2 1l-3 2-2 1-4 1-3 1c1 2-4 2-5 1l-4-2c-1 0-2-1-2-3s9-4 10-1c2 2 4 1 3-1v-3l-2-1c-1 1-3 0-5-1h-3c-1 2-4 1-5-1l-1-3-1 2c0 3-1 4-4 2l-8-1h-11l-5-1h6c4 1 6 0 6-1l4-1 5-1 2-1c2 0 2 0 1-3a2 2 0 011-4l-2-1-3 1 1 1c2 0 1 4-1 5-4 4-6 1-5-5 0-1 0-2-2-3-3 0-3-1-3-3l-1-3c-1-4-2 1-2 11v7h-4l-17 2c-1 1-5-3-4-4l-1-2c-4-5-2-8 4-7l4-1 3-2h-5c-4 0-5 0-6-2-1-3-2-1-1 3 0 1-5 1-7-1h-11l-2 1v-16l1 2c0 3 0 3 3 3 7 0 7 0 6-2 0-3 1-4 3-2 1 2 20 1 22-1 4-3 7-3 7 1v2h13c12 0 14 0 15 2 1 1 3 1 3-1 0-1-2-2-6-2l-7-1-1-4-1-4c-2 0-6 2-6 4 1 1-3 4-6 4-2 0-4-7-2-11 2-6 5-4 5 3s2 7 2-1c0-5 1-5 2-5 3 0 2-2-1-3-4-2-5-2-8 0h-2l-3 1c-1 1-2 2-3 1h-12c-3-1-10-1-11 1h-1c-1-2-10-2-11 0l-2-1c-5-4-6 2-5 24 0 4-2 6-4 4l-4-1h-15v-10l-4 2c-3 0-3 5 1 6l2 1-25-1c-1-1-1-1 1-1s2-1 2-3c0-3 0-3-3-3s-3 0-3 2v2l-1-1c-1-2-4-3-4-1l-1 2c0 2 0 2 2 2 3 0 3 0 3 5s0 6-2 5l-6 3-3 4h4l5 1h26l7-1h5l-4-2c-5-2-4-9 1-9 3 0 4 2 2 6-1 1 0 1 1 2 2 0 2 1 1 1v2c0 1-4 5-6 5l-1 2c-1 2-3 1-3-1l-1 1c-1 3-2 3-10 4a22 22 0 00-9 1v-1l2-4v-3l-3 3c-2 2-2 2-2 0s0-2-3-2l-5-1h-1c-1 2-4 2-8 1a2 2 0 101 2c5 0 5 1 3 5-1 2-1 3 1 4 1 1 1 3-1 3h-3c0-2 0-2-4 0l-2 1v-7c0-10-1-13-2-6-1 3-3 6-3 4l-1 1h-6c-1 0-2 1-2 4-1 4-4 5-5 1 0-2-1-2-3-2-5 0-5 0-4-1 1-2 1-2-1-3s-2-1-2-5-1-6-2-3l-6-1c-6-2-13-2-15 0h-4c-5-1-8 0-10 2-1 2-4 3-4 1h-4c0-1-2-1-2 1 0 1-1 1-3-1-2-1-2-1-3 1 0 2-1 2-5 2-3 0-4 0-4 2 0 1-4 2-4 0l-8-5c-8-4-10-7-6-7 2 0 8-5 7-6l3-2 5-2h3l8-1 18 2c7 0 9 1 9 2 0 2 16 2 17-1h1c1 3 10 2 10-1l2-1 1 3c0 3 3 3 4-1l2-2h3c3-1 5-1-36-3H43c-3 0-4 0-3-2l3-1 5-2c3-3 4-3 4 0a3 3 0 103-3h-2l2-2c3-3 3-7 0-7a3 3 0 00-3 5l-1 1h-3l-9 2c-6 0-7 0-7 2s-1 3-7 4l-11 4c-5 2-5 2-7 1v-2l2-1c0-2 5-4 8-4l3-1h3c1 3 3 2 4 0l2-3 2-1 3-2c2 0 3-1 3-3l1-3c1 0 2-1 1-2 0-2 2-3 4-1 1 2 4 0 4-2s4-8 5-8l1 2c0 2 4 1 5-2 0-3-2-4-7-2h-4l-2-1-2 2c0 2-2 4-4 3l-3 1-4 2-1 1-2 3c-1 2-2 2-2-1s-1-3-2-3c-3 0-4 2-1 4 1 2 1 2-1 3l-3 2h-3c-2-3-5-2-5 1l-3 3-6 3-3 2v59c0 64 0 64 5 67 2 1 0 3-3 3-2 0-2 2-2 22 0 18 0 21 2 21l1 1 2 3a2 2 0 11-3 2l-2-2v4c0 3 1 4 2 4h20l-7 1c-14 2-15 2-15 5 0 2 0 2 9 2 9-1 12-2 12-5 1-1 5-3 6-2 1 0 0 2-2 3l-2 5-1 2c-1-1-2 0-3 1h-2l-6 1h-1l-3 1H5l-2-3-2-1c-1-1-1 13-1 31v33h156l3-3c5-4 4-5-2-5h-4c1-2 0-2 32-3l51-3h27c2 1-5 2-28 3-47 3-57 3-61 2-7-1-6-1-11 4l-4 5h175v-25h-3c-2 1-2 0-1-1 1-2 1-3-1-4-2-2-3-2-3 0h-1l-1 3v3l-1-2h-1l-3 1-2 2c-1 2-1 2-7-5l-5-6 11 1 14 2c3 1 3 1 3-1s-1-3-14-3l-16-2c-5-2-12-1-12 1-1 3-25 4-28 1l-3-2c-1-1-1-1 1-2 3-1 3-5 0-8l-3-4-2-3v2l1 3c1 2-5 4-7 2-1-1 4-10 6-11 2 0 11 16 10 17l2 1 3-4 10-16 6 9 5 8 5-1h6l7-14-9-1c-7 0-9 0-10-2s-13-3-13-1c0 1-16 0-26-2h-8l-7-1c0-2 1-2 6-2l9-1c2 0 2 0 2 2 0 3 6 3 6 0 1-2 1-2 7-1l9 1h9c0-2 2-1 3 1l9 2 16 1 15 1c8 0 8 2 0 2-6 1-7 2-9 6v3h4c5-1 5-1 5 2l2 3v-3c0-3 0-3 2-3s2 0 2 8v9l6 1c5 1 9 2 17 1h10l-1-7c-1-10 1-13 8-11h6l4 3c4 0 6 4 4 5h-3c-2 0-4 4-2 5l2 3 1 5v3l1 2c1 1 1 1-1 1l-2-2c0-1 0-2-1-1l-4 1-3 1 11 9c1 1 2 5 1 11 0 3 0 3-7 3s-9-1-8-3l-2-2c-3-1-4 1-4 5 0 2 25 2 25-1v-1c-2 1-2 1-2-2 0-4 1-6 2-4h1l2-2 1-1c0-2 1-1 7 3 2 3 5 5 6 5l-1 1c-1 2-1 2 1 2l139 1h136V389l-1-123-1-3c0-2 0-2 1 0V154l-2 2M71 174l-3 4-3 2c-3 0-5 1-6 4 0 3 0 3-2 2-1-3-2-2-2 1 0 2-1 3-3 3l-6 2c-2 2-2 2-2-1 0-2 0-2-1-1-1 4-9 8-9 4l3-1 2-1-4-1c-4 0-4 0-4 2s0 3-3 3-4 0-4-2v-4c-1-3 1-3 16-3 12 1 16 0 11-1H4c-2 0-3 4-3 12v5h11l11 1-1 2-1 7-2-1c-4-3-7-2-7 0s0 3-2 3-2-1-2-3-1-2-3-2a2 2 0 00-2 4l2 1v3l-2 2-1 2-1 10c0 8 0 10 1 9l3-1 2-2c0-2 1-3 3-3l2-2 2-1 4-2c3-3 5-2 4 1l3 1c2 0 2 0 2-2s-1-3-2-3-2 0-1-2l4-1h3c0-2 1-2 3 0s4 1 4-2c0-2-1-2-6-2a6 6 0 01-6-2c-3 0-2-2 2-3h5c1 2 5 1 5-1-1-2 3-5 7-5l4-2c2-2 8-3 12-1l19 1 18 2 2-2 19-1h18l1 3v15l1 13 1-5v-3h10c6 0 10 0 12-2a102 102 0 0149 0c5 0 6 1 7 2 1 2 19 2 20-1h2c1 3 3 2 3 0l1-2 1 1c0 2 2 1 2-1l1-2v2c1 3 3 3 3 0 1-3 3-3 3 0v3l1-3c1-2 3-3 3-1h1c1-1 1-1 1 2 0 2-1 3-3 5-7 3-5 3 26 3h27l-2-2v-3l2-2c0-2 8-2 9 1s16 3 17 1c0-2 1-2 2-1 2 1 9 0 9-1l3-1 3 1c0 3 5 5 7 3h3c3 1 4-4 4-12v-8h14c5 0 6 0 5 2h-9c-3-2-10 0-8 2a11 11 0 01-1 10h1v3c0 5 3 7 9 5 3-1 4-1 7 1l5 1 5 1h2c2-2 2-2 4 0 2 1 2 1 3-1h3c0 2 4 3 4 1l2-1 1 1c0 1 5 1 6-1l6-1c4 1 13 0 11-1l-2-3c0-2 0-2 1 0l1-5c1-10 1-10-8-11l-8-1c-1-1 1-1 37-1 15 0 18 0 17-1-3-2-12-3-11-2h-11c-2 3-36 0-43-3l-5-3-6 2c-6 4-33 4-32 1l1-2 13 1a33 33 0 0022-4v-1a15 15 0 003-10l1-5h-4l-7 1-5 1v13c0 1-1 2-3 2l-4 1h-1c-1-1-3-2-7-2-7 0-7 0-6-3v-6c-1-1-2 0-2 1 1 2-9 3-10 1s-2-2-4-1c-3 2-9 2-9 0-1-1-17-1-20 1h-1c-1-2-11-3-12-1h-3l-5-1h-34l-23-1h-75c-9-3-60-2-60 1l-4 1h-4l-2 2-4 1-2-1 4-1c2 0 3 0 2-1h-5c-3 0-3 0-2-1s1-1-3-1l-4 1c1 1-1 2-2 1-1-2-3 1-2 2l-15 2v-6l-2-1h-1l-2 1 3-5a19 19 0 008-9h-1c-2 0-2 0-2-2 1-2 1-3-1-1m301 9l2 1 1 7c0 7 1 8 2 7 3-2 2-14-1-14l-1-1a2 2 0 00-3 0m46 0l-6 2v5c0 6 1 8 4 9 2 1 1 1-4 1s-6 0-5 2l3 1 4 1c3 2 24 3 24 1l4-1-5-1c-13 0-13 0-12-2 1-3 2-17 1-18h-8m13 3c-2 2-1 14 1 14 1 0 2-4 2-9s-2-7-3-5m92 0c-6 0-5 0-5 10 0 4 0 5-2 6-2 2-2 2 5 2 6 0 6 0 2 1-8 0-9 2-2 2h5v6c0 8-1 9-3 8v-4c2-2 1-3-2-2-3 0-3 0-3-4l-1 6c0 8 0 9-2 10l-2 1 2 1c1-1 2 0 2 2 0 3-1 4-6 3l-1 1c-1 1 0 1 1 1 2 0 3 1 3 2h2c3-2 5-3 3-1v3l1 1 3 3 2 4 2 5c2 3 2 4 0 5-2 3-1 5 3 4 3-1 3-1 3-8l1-6 1 1 2 1c2 0 2-1 0-6l7-1c7 1 7 1 8-1v-3l3-4 2-3a2 2 0 01-2-4c1 0 2 0 1-1l-3-1-4-1 2-1c3 1 6 0 6-2-1-1 0-2 1-4l2-2-5-1c-8 0-8 0-8 7l-1 5h-13v-10l1-12 1-2c-2-1-2-3-2-9-1-10 0-9-10-8M63 198h-5l-4 1a255 255 0 0057 1l-23-1a138 138 0 01-25-1m51 12l-1 3c-1 0-2 1-2 3s1 3 2 3a2 2 0 11-1 3c-2 0-2 0-1 3l2 3c2 0 2 2 0 2-3 1-4 6-1 6a2 2 0 110 3l-2 2c0 2 1 4 3 4s3-2 1-2v-1c1-1 3-29 1-32l-1-2v2m276 2a3 3 0 003 1c2 0 1 2-1 2l-1 1 2 1c1 0 2 2 2 7 0 11 1 10 1-2 0-9 1-9 3-9 6 1 17 0 17-1l-14-1c-7 0-13 0-12 1m184 11c0 3-1 3-4 5-5 2-8 5-6 5l2-1 5 1c1 0-2 2-3 1v1c1 2 10 1 12 0v-2l-3 1h-2c-2-2-1-3 1-4l4-2 5-2c2-1 2-1 0-1s-2 0-1-1 1-1-1-2l-4-1c-4-2-5-1-5 2m-202-1c-2 4-1 9 2 10l3-1h2c1 1 1 0 1-3s0-4-1-2c-1 1-1 1-1-1 0-5-2-4-2 1-1 6-2 6-3-1l-1-3m54 5c-1 6 0 7 4 7l2-2v-8l-1 4c0 6-3 5-3-1l-1-5-1 5m-244 14l1 3 1 2-1 1v10l1 4c1 1 1-2 1-8v-12l-1-3c-2 0-2 1-2 3m389-2l-5 1c-4 0-3 1 1 2 2 0 5 2 5 4l-2-1-2-1v2l1 1c-1 1 3 2 4 2v-7l-1-3h-1m-226 2c0 2-1 2-7 2-10-1-12 1-2 1l11 1c2-1 2-5 0-5l-2 1m61 4v2h-6c-8-1-13-1-14 1l11 1c10 0 11 0 12-2 1-3-1-4-3-2m-95 14c0 2 0 2 4 2 3 0 4 0 4 2s1 2 4 2c4 0 4 0 4-3 0-2-1-2-3-2l-4-1c-2-3-9-3-9 0m249 2l1 2 1 4 2 5 1 6 2 7 1 5c0 2 0 2 1 0l4-2c3 0 3 0 1-3l-1-7-1-8-2-5-1-4h-9m-21 4l-1 5v5h-5l-8-1c-4-2-8 0-7 3 0 2-5 3-8 1h-3l-6 2-4 1 1 2c0 2 8 1 8-1 1-3 2-2 4 1l2 3-13-1h-12v3c0 2 0 3 2 2l7 2c0 1 2 2 8 2 8-1 12 0 12 2l2 2 1 3h-3c-1-2-3-2-3-1-1 1 0 1 1 1l2 1c-1 2 1 3 6 2 5-2 5-2 2-4-4-3-4-4 1-4 5 1 7-2 2-3s-5-2 0-3a8 8 0 007-2c2-1 2 0 1 2v6l-1 5c1 3-1 7-3 7l-1 4c0 3-5 2-7-1l-1-2v2l-1 2-1 2c0 1-2 1-2-1-2-3-6-1-5 2v4l8-4h6l6 1h-5c-6 0-9 1-9 4l-3 3c-5 1-5 2-1 4 2 2 2 2 3 1h1l1 2c1-1 1 0 1 1 0 2 3 5 6 5 2 0 3-5 1-6v-2l1-3c-1-1 2-4 4-4l1 2 1 1 1 5c0 4 0 4-2 3-2-2-2-2-3 8-1 8-1 10 2 10 2 0 3-4 2-7v-7l1-1c2 0 3-1 2-8-1-6 1-9 4-8l-1-2v-5l1-4c0-2 0-3 2-3l1-1c0-2 2-8 5-10l2-3h2v-2l-2-4-3-2v-7c1-1 0-2-2-5l-3-6c0-1-4-3-5-1m10 1c0 2 2 8 4 8 1 1 3-2 1-3v-5c-1-2-4-2-5 0M0 321c0 29 1 41 1 26a3115 3115 0 00-1-26m51-50c-9 0-10 0-10 2 1 2 9 3 10 0h1c1 2 9 2 9 1h2l3-1h2a2 2 0 003 0h2c1 2 4 1 3-2H51m58 4c0 2-1 3-8 3h-8l10 1 10-1 1-2c3 0 2-3-2-3-3-1-3 0-3 2m312 2l3 3 1-1v-1l1 1c0 2 3 3 3 1 1-1 1-1 2 1 2 2 4 0 3-3-1-2-13-3-13-1m-76 4c-1 1-5 2-14 2-14 0-14 0-14 3 0 5 0 6 2 6l1 1c0 1 6 5 8 5v-5h13l-2-1c-4 1-11 0-11-1l15-1c14 0 17 1 7 2l-5 1h5l7 1-5 1-2 1-1 1v-1l-3-1c-3 0-3 1-4 4 0 3 3 5 4 1l3-1h4c3-2 12-2 14-1h1l-1-1-1-1h8c2 1 5 0 4-2l-3-1-2-1c-1-1-2-2-6-1-5 0-5 0-4-1l1-5c0-2-1-3-8-3l-9-1h-2m-122 1l2 2 1 4 2 2 1-2c0-2 3-4 5-4 3 0 2-2 0-2h-11m213 27c-2 4-5 5-5 3l-1-2c-3 0-2 4 0 6 6 5 15 7 15 3l2-2c2 1 4-3 2-4l-1-2-2-1c-2 1-3 0-5-2-1-4-4-3-5 1m144-3l2 2 1 4c0 3 0 4 2 4 3 0 4-2 1-3l-1-4a2 2 0 00-3-4l-2 1m-176 5l-3 2-3 2 2 3c2 3 7 3 9 0l2-1 2-1v-3c0-2-1-2-3-2h-6m-307 3l1 3c1 1 1 1-1 1h-4c0 2 1 4 3 4 2 1 2 1 0 2-4 2-3 5 3 5 3 0 4-1 4-3l2-2 2-1c-1-2 4-5 5-3 2 2 6 1 4 0l-4-2-2-2h-1c0 2-2 1-6-1-5-3-6-4-6-1m-34 1l-3 5c-2 2-2 3 1 2l1-2h3l2-1 2-1a1 1 0 10-1-3l-1-1c0-2-3-1-4 1m-1 70l-5 2-1 2c-1 2-1 2-2 1H43v1l2 3h3v1l-5 7-6 6-2 1c0 2-2 1-2-1 0-1 1-2 3-2s5-2 5-4l2-2c1-1 1-1-1-2l-2-1h1c3 0 5-1 3-2-2-2-5-1-5 1-1 2-14 8-21 10a18 18 0 00-11 6c-3 1-3 2 0 3l6 1 5 2c2 0 3 1 1 3-2 1 0 2 5 2s4 0 3-5v-1c2 2 4 2 9-1 3-1 3-1-3-2l-1-2c1-1 6 0 8 1 2 2 11 2 11 1l-2-3 1-2 2-1a2 2 0 113 0l1 2h1l2 1 2 2h2c2-1 4 0 3 2 0 1 2 2 3 0s9-7 12-7 8-3 8-5c0-3 2-3 3 0 0 1 1 2 2 1l2 1h2c2-2 2-2 3-1 3 2 5 1 6-3 2-4 2-4-2-6l-4-5-1-2v2c-1 4-7 5-13 1-6-2-9-3-9-1 0 1 1 2 2 1 3-1 2 2-1 3-4 1-5 1-3-2 1-2 0-3-3-6-5-5-6-5-11-1M0 404c0 9 0 17 1 15 0-1 1-2 2-1l2-1-2-1c-2 0-2-2-2-15l-1-15v18m299-9l-5 2h-4c-2 0-2 0-1 2 2 1 2 1 7-2 5-2 7-1 11 4l4 5-3-6-5-6-4 1m-170 6l-4 3c-4 2-5 3-3 4h-1l-3 1c-1 1-2 2-3 1-2 0-3 1-5 3-6 5 1 5 9 0l4-2 2-2 2-1c2 1 3-1 3-5 0-3-1-3-1-2m85 8v1a1 1 0 010 3l-2 2c1 2-5 3-6 2l-2-1c-1 1-2 0-2-1l-5-1-5-1h-6l-7-1h-2l-11 2c-13 1-13 1-19 4l-6 2c-2 0-5 3-4 4l6 1c5 0 7 1 5 3h-4a10 10 0 01-6 1l-1 5c1 5 2 5 3 0 0-5 2-5 2 0s2 7 2 3v-4l2-2c1 0 2 1 1 3l1 4c1 0 5-5 5-7l1-1c3 0 7-4 6-7v-3l2 2c3 2 5 3 4 1-1-1 0-1 0 0 2 0 0 3-2 3s-8 8-7 9c0 2 2 2 2 0l3-5c2-3 2-3 4-1 2 1 2 1 0 2s-2 1 0 1c3 0 5 2 5 5 0 2-2 3-3 1v-1l1-1a4 4 0 00-6 0l2 1 1 1c-1 1 0 2 3 2 3 1 3 0 4-1l2-2c2 0 1-2-1-3l-3-2h3c1 2 2 1 4-2l3-4c2 0 1 3-1 4-1 1-1 2 1 2 2 1 3 1 3 6s2 7 2 3c0-2 1-3 3-2 2 0 3 4 1 4a2 2 0 003-2l1-4 1-2 1-2 1-1c0-2-2-1-4 1s-8 2-8 0h3c4 0 4-2 0-3-3-1-3-2-1-2v-3c-1-1-1-1 2-1l4 2c1 2 2 2 5 2h12a574 574 0 0030 3l12 1 2 2c1 3 0 4-1 2l-10-1-13-2-16-1h-14c0 3 2 4 5 4s3 1 3 4l1 3c1 1 2-1 2-4l1-3c1 0 1 3-1 8 0 2 0 2 2 0l2-4c0-2 0-2 1 1l1 3v-3c0-3 0-3 2-3h2c1-1 1 0 1 2l1 4 1-1 1-2v2c0 2 0 2 4 2s4 0 3-2c0-2 0-3 2-2 2 0 3 1 3 2 0 2 2 1 3-1l1-1 1 1 5 1c5-1 6-1 10-4l10-8c8-5 9-7 3-7l-4-1h-3c-2 1-10 0-11-2h-1c1 1 0 2-1 2-2 1-2 1-2-4-1-5-3-4-3 2l-1 4h-5c-4 0-11-3-15-6l-6-3c-2 1-3 0 0-2v-5c-1-2-2-3-4 0m132 9l1 5v1l-2-1h-1c-1 2-1 6 1 7s1 3-3 4c-5 0-7 0-9-2l-10-1c-9 1-10 1-7 5l1 7c0 4 1 5 2 5l2-1 1-2c1-1 1-1 1 1s0 2 2 2l2-1 1-3c0-3 2-4 7-4l2-2c0-2 2-3 6-3 2 0 2 12 0 13v3c1 1 0 1-1 1-4 0-2 1 4 2h6l7-1c6 1 9-1 2-2l-3-2h6l-1-5c-1-6-1-7 2-7l1-1 2-2c2 0 3-1 1-3-2-1-5-1-5 1 1 2 0 3-3 3-2 0-3 0-2-1l2-1 1-1c1-1 0-1-2-1-5 1-5 3-1 6 3 3 2 4-8 6-2 0-1-3 2-6 3-2 3-2-2-3-4-1-2-4 2-4 4-1 6-2 6-5l-5-1-5 1-1-5c0-7-2-8-2-2M9 419c-3 0-4 2-2 2 3 0 3 2 1 4-3 3 0 8 5 7l3 1 5 1c6 0 6-2 0-3-3 0-4-1-5-2l-2-2c-2 0-3-2-3-4l2-1 3-1c1-2-2-3-7-2m36 0l-1 4c0 4 0 4-2 3l-2 1c1 1 11 3 12 2v-5c0-7-3-8-3-2-1 6-2 6-3 0l-1-3m82 8c-2 2-2 2 0 2 3 1 3 3 0 3l-5 1-5 1c-1-1-2 0-3 1l-5 3-6 2c-2 2-2 2-3 1s-4-1-5 1l3 1c1 0 2 0 1 1-3 0-2 3 0 3 1 1 2 0 2-1l1-1 1 2c0 2 0 2 2 1s2-4 0-4c-4 0-2-2 3-2l7-1 20-2 1-5c0-5 0-5-3-7h-6m309 3l-8 1h-7l-2 3-3 3c0 1 1 1 3-1 2-1 2-1 1 1l-2 2c-1 0-2 4 0 4 5 1 5 1 4-2v-3h7l8 1 3-1c-1-1 0-3 1-4l2-2v2l1 3 1 2c1 1 1 1-1 1-3-1-1 2 1 3l3 1h-3c-2 0-3 2-2 4l7-1-1-3c-1-4-1-4 1-4 2 1 6-3 5-6-1-4-2-5-7-5l-12 1m-43 6c-1 2 2 5 4 4 3 0 5 5 3 9l-1 4c0 2-1 3-2 3-2 0-2 0-1 1 2 0 2 1 1 1-1 1-2 6 0 6l2-2h2c2 1 14 1 14-1h3c3 2 4 2 4 0l-1-1-2-2 1-2-1-9c-1-2-4 2-7 7 0 2-2 4-3 4-1 1-1 1 0 0l1-3c-1-1 0-2 1-3 2-3 3-5 1-3h-2l-1 1c-1 1-1 1-1-1l-2-4c-1-3 1-5 3-3 1 3 2 2 4 0 3-3 1-4-7-4-4 1-6 0-9-1-3-2-4-2-4-1m-7 4l-1 3c0 5-1 8-3 8l-3 3-4 3c-2-1-5 1-3 2 2 2 11 0 11-2h7v-8c-1-10-2-12-4-9m-254 1h-8c-8 0-7 1 3 3 8 2 30 3 31 1 2-2-1-4-2-2h-5c-4-2-18-4-19-2m301 0c-1 1-4 9-3 10l2 1c2-1 2 1 0 2-3 3-3 6 0 6l2-2c0-2 0-3 2-2v-2c-2-3-2-8-1-10 2-2 0-4-2-3m-264 3c0 2 0 2-2 1-4-4-5-2-4 6v9h-29l-20 1v-8c-2-1-3 2-2 5 1 2 1 3-2 3-8 0-9 0-9 2l-2 2c-3 0-5 2-3 4l4 1c4-2 14 2 15 5v3h11l17-1h6v-9l11 3 1 8v7h5c4 0 4 0 4-3s0-3 4-3c6 2 64-1 63-2l-14-3c-14-3-16-4-14-6v-2c-1-1-1 0-2 1-1 3-1 3-6 1l-14-2c-3 0-4-1-5-2 0-1-1-2-3-1l-2-1c0-2-4-3-6-2-3 3-6 0-7-5 0-3 0-4 4-8 2-3 3-4 2-5s-1-1-1 1M0 480c0 18 1 25 1 16a1100 1100 0 00-1-16m172-31l-1 1a5 5 0 00-2 8h-3c-1 2 5 1 8-1l4-6 2-4h-5c-3 0-4 0-3 2m10 2c-1 2-1 3 1 3 1 1 1 1-1 4-3 4-3 5 2 4l4 1c0 2 3 3 6 2 2 0 5-5 5-8l5-1c5 0 5 0 6-3 1-2 2-2 3-2h1c0-2-10-1-11 0-2 3-10 3-14 0-4-4-5-4-7 0m-92 0c-2 0-3 1-3 2l1-1c2-1 7 2 7 5 0 2 2 3 3 0l3-1c2 1 3 1 4-1 0-3 1-2-5-4s-7-2-10 0m134 0v5h-2c-2 1-2 1 0 1s3 2 1 4l-1 2c1 1 3-1 3-3l2-3h1l-1 2c-2 1-1 2 2 2 1 1 2 0 3-1l5-2c3 0 3 0 2 1v2c1 0 2-3 1-5l-2-1h-4c-2 3-6 1-8-3l-2-1m-156 3c-1 2-1 3 1 2l2 1-1 4a1 1 0 11-2 0h-3l-5 2c-6 1-10 4-5 4l4-2h2c0 2 1 2 2 2l5-2 7-2c2-2 3-2 4-1 1 2 6-4 6-7-1-4-4-3-3 1 0 2 0 3-3 2-2 0-2 0-1-1 2-2 0-5-3-5s-2 2 1 3l1 1-6-2c-2-2-3-2-3 0m145 2l-2 4c-3 3-4 5-1 6 1 0 5-3 5-6a4 4 0 012-4h-2l-2-1v1m-108 8v2c-2 1 2 1 14 1h9l8-1-6-1-18-1h-7m-64 10l-4 5c-2 1-2 2-1 2 5-2 7-2 7-1h3v-4c0-3-2-5-2-3l-1 1-1-1v-2l-1 3m37 1c-4 2-7 4-7 6l-2 4-2 3c1 1 54-2 55-3l-2-1a208 208 0 01-32-7l-4-1c-1-1-4-2-6-1m-22 4l-8 3-4 2a18 18 0 0015-1l5-2c1-2 1-2-1-1l-2-1h-5m312 12c-1 13 0 14 5 11 2-2 1-13-1-15l-1-3c-1-6-3-3-3 7m-261 14l-22 1c-12 0-18 1-18 2s4 1 41-1l24-2h-25" tabindex="-1" itemprop="light" style="fill-opacity: 0.9; fill-rule: evenodd;"></path></symbol><symbol id="-posters-1650603475164-regular"><path d="M381 134l-3 11c-4 7-4 7 3 7 6 0 10-2 5-2l-2-2c0-1 0-2-1-1l-2 2-1 1-1-1 1-2 1-2 1-2v-13c-1-4-1-4-1 4m56-7c-2 4-3 17-1 17v1l-2 1c-1 0-2 0-2 2l-1 2-1 1 7 1 6-1-1-1c-2 1-2 0-4-16l-1-7m245 29l-1 2c0 1-1 2-2 1-2 0-2 0-2 2 1 2 0 3-1 4v3l4 12c2 2 2 4 1 5v4c2 2 2 1 2-16v-18l-1 1m-203 16l-1 6c0 4-7 8-12 7l-6-1c-2 0-3-1-3-2l-5-1h-5v10l1 10 1 2-1 3h26l25 1 1 5c1 1 2 2 1 3-2 1-1 16 1 16 3 0 5 3 2 3l-1 2c0 1-4 3-7 3-2 0-1-2 2-2 2 0 2 0 0-1s-4-3-2-3v-1c-3-2-4-10-1-12 1-1 1-2-2-4l-2-3-3-5a23 23 0 00-4 10l-1 4-1 1-2-1c-1-1-1 0-1 2v9c1 2 1 2-1 2-2-1-3 0-4 1 0 2 0 2-1 1l-1-2-5-1c-4-1-6 1-7 5 0 2-2 3-3 3-2 1-2 1 1 1s4 1 6 3c2 3 6 4 8 2l4-2c3 0 4 1 1 2l-1 3c1 2 0 2-5 3h-9c-1 1-1 1 2 1 7 0 11 2 6 3-3 1-3 7 1 8 3 2 3 3-1 3-2 0-2 0-2 4l1 4h4l6 1-3 1c-6 0-9 1-9 4s5 4 5 2l1 2c0 3 0 4-2 4-2 1-2 1 1 1s4-1 4-2c1 0 1-1 0 0l-1-1 3-1c3 1 3 1 3-2l-1-2h17l-1-2c0-3 0-3 5-3l6-1 3-1 2-1a33 33 0 0118-2h7v-3c0-3 0-4-1-3-2 0-4-2-2-3s-2-3-6-2-5 0-3-4c2-2 2-2 0-2l-3-2h-5c-5 0-9-1-5-3h6l1-2 1-2c4-1 2-3-2-3s-4 0-3 2c2 1 1 2-4 2h-4l2-1c3 0 5-3 2-4-2-1-2-1 2-1 6 0 9-3 4-4l-4-1c-1-1-2-2-3-1-3 0-4-2-1-2l2-2 1-1 1 1h2v-2c-2 0-3-4-1-5 3-1 2-18 0-21l-4-2-1-1 4-1h4v-15c-1-2-1-2-1 0 0 3-2 4-2 1-1-2-1-1-1 1v3l-2-2-2-1c1 2 0 2-1 3-2 0-2 0-1 1s1 1-1 1c-3 0-5 1-5 4 0 2 0 2-2 1-2-3-3-2-2 2 1 5-2 4-5-1s-4-6-4-3l-1 2-4-1-3-3-1-2c-1-1 0-1 1-1l2 1h3c1-1 1-1-1-2l-3-1-2-1-4-1h-3c0-2 4-4 9-4h3v-5c0-7-3-10-5-6m45 5l-4 4c-3 2-2 3 3 4h4l-1-5c0-6-1-6-2-3m-456 2l-4 2-3 3c-2 3-4 4-4 2h-1c0 3-2 4-4 4l-5 2-3 2c-3 0-4 0-5 3l-1 3H0c0 2 8 3 22 3 10 0 10 0 7 3h-2c-1-3-4-1-5 3 0 4-1 4-2 3h-7l1 3c2 1 1 2-2 2-4-1-5-2-5-5l-2-2c-3 0-3 4 0 5 2 1 2 1-1 4l-3 3-1 10c0 8 0 10 1 9l3-1c2 0 2-1 2-3 0-1 1-2 3-2l3-2 2-1 5-3 4-4 4-1c2 0 3-1 3-2 1-2 1-2-1-1l-2-1-1-2c-3 0-2-2 0-2 5-3 7-3 7-1 1 2 4 1 4-1 0-3 4-6 7-6l5-2c1-2 2-2 32-2h30l-4-2-27-1c-24 0-32-1-28-2l2-2a13 13 0 019-6l1-2 5-5c4-4 4-5 3-6s-2-1-4 1m355 5l-9 1c-2 0-2 1-2 5 0 5 1 7 8 9l4 2v-3c2-9 1-17-1-14m-23 3l-5 1h-3v5c0 7 0 8 2 6l5-1c4 1 7-2 7-8 0-4-2-5-6-3m134 10c-1 4 0 5 3 5a4 4 0 00-1-8c0-3-2 0-2 3m-165-2l-5 1-4 1h-2c-2-2-6-3-7-1l-2 1c-2-1-5 3-4 4v2c-1 2-4 3-4 1a3 3 0 00-5 3l-1 2-3-5c2-2-1-2-3-1-1 1-3 2-5 1h-3l3-3 2-3-2 1-5 4-4 3-2 2-1 1c0 3-5 3-7 2l-3-2-3-2c-2-1-6 0-6 2s-7 4-12 5c-3 0-4 0-4-2 2-3-1-5-4-5-3 1-4-1-2-2 1-1 2-2 2-5s0-3-3-3l-3 2-6 4-6 3-3 1a3 3 0 000 4l1 4c1 3 2 4 5 5 2 2 3 3 3 5s0 3 2 2l2 1 16 2 19 2c6 2 7 2 7-1l1-2 1-3c1-3 9-3 10 1 1 2 1 2 9 2h12l6-1c2-2 7-2 8-1l5 2c6 1 7 0 7-12 0-9 0-9-8-12-2 0-2 0-1-1s3-1 5 1c4 1 6 1 6-2l1-4 1-3c0-2-1-2-1-1m-148 7l-5 2c-3 0-7 3-6 5l-2 2-2 4c0 5-4 7-5 3s-5-5-8-1c-1 2-2 2-3 1-2-1-2-1-4 1-3 3-1 3 10 5l9 2 8 1c5 0 6 0 6 2l9 1c8 0 9 0 9-2l2-2 2-1 1-1c1 1 1 0 0 0l3-4c4-1 5-4 4-8 0-2-2-3-3-1-1 3-9 1-9-2l-3-1c-3 0-3 0-3-2 1-1 0-2-3-4-5-2-5-2-7 0m442-1c-3 0-4 2-4 8 0 5 0 6-2 9l-3 2v-3c0-4 0-4-5-4-7-1-8-1-7 8l1 11v5c-1 2-3 0-3-2l-1-2-3-9c-2-9-2-9-4-7-3 2-2 9 2 13 3 4 4 6 2 9h-4c-1-2-1-2-3 0-1 1-1 1-1-2l1-4c1 0 2-1 2-3 0-4-4-4-4-1l-2 2c-2 0-1 2 1 2 1 1 1 3-2 3v-12c0-2 0-3-4-3-7-1-13-3-11-4 4-2 2-3-2-3l-5 1c0 1-5 3-8 3l-6 1-6 1-4-1 4 2c7 2 9 6 4 6-4 0-6 3-4 6 1 2 1 2 2 1v-2l-1-2c1-1 2 0 4 1 3 4 2 4-3 4-3 0-4 1-3 2h-4c-4 0-5 0-3 6s-2 9-6 5c-2-2-2-2-3-1-1 2-2 1-2-1s0-3 2-3c2-1 2-1 0-1s-4-2-2-2l1-1-4-1h-2l2-1 4-1h3v-2c1-1 1-1-1-1h-3c-2-2-10 4-9 7l-2 4c-2 3-3 4-1 4l1 1h-5l-6 1-5 1c-2-1-2 0-2 5 0 4 0 5 2 5 8-3 14-2 12 2-1 2-1 2 2 2s3 0 4 4l1 6v2l-1 2c-1 0-4-4-4-9-1-3-3-5-4-3l2 6c2 3 3 4 2 5s0 2 1 3l2 5 3 5c1 1 2 3 0 3-2-2-5 1-4 4 0 2 0 2-2 2l-3-1v12l-1-1-2-2c-1-1-1 0-1 3v4l-1 3c3 13 3 17 1 18s-2 0-2-7c1-6 1-7-1-7s-2 1-1 8l-1 7c-1 0-2 1-2 6l-1 8c-2 4-4 9-3 10 2 3 0 19-3 22v-11c-1 1-2 0-1-5 0-6 0-7-2-7-1-1-1-1-1 3 1 4 1 4-1 3l-4 1c0 2-1 2-1 1-1-1 1-4 2-4 3 0 3 0 2-1l-1-4c0-2 0-2-1-1h-2c0-2 2-3 5-3 4 1 7-11 8-26 0-2 2-1 2 1l1 1 1-2c-1-5-6-6-6 0l-2 10-1 7-3 7-2-15c0-4-3-7-4-4l-1 2c-3 0-3 1-1 9 2 9 2 10 0 9-1 0-2 1-2 3l2 2 2 2c0 2-5 2-6-1h-3l2 2c1 2 1 4-2 4l-2-2c0-3-3-1-3 2s-1 3-2 2c-2-2-2-2-2 1s-1 4-4 1c-2-2-4-3-2 0 2 2 3 7 2 9-1 3-2 1-2-2l-1-3-1 1h-1l-1-5-1-4-1-3v-7c-2-1-2-1-1-2l1-3v-3c1 1 1 0 0 0l-2-2-3-1c-1-2-1-1-1 7v6l-2-4-2-6-4-2 2 9c2 2 2 9 0 8l-4-1h-3l3 2 5 3 2 1 1 1c1-1 1 0 1 1l-2 2-3 2 4 1h5v1l-1 3c0 3 0 3 3 3h3c0 2-3 4-4 3l-1 1 2 1 2 1 1 1c3-1 5 5 3 6v2l1 3 1 2 1 1c-2 2-3 1-3-2-1-3-3-1-3 3 1 2 1 3-1 2v2l-1 3a1 1 0 101 2l1 1 1 1h1l-3 3c-3 0-2 3 1 2l4 2 1 2 1 2c0 2 0 2 1 1 0-3 2-2 2 0l2 2 1 1 1 3c2 1 1 3-2 4l-1 1c1 0 2 1 2 3l2 4 1 3c0 2 0 2-1 1-2-2-3-1-3 1-1 2-1 2-2 0v-5c2-2 0-2-2-1-3 3-3 8-1 11v2h-3c-1 1-1 0-2-3 0-2-3-5-5-8-5-5-5-7-1-3l5 2h1c0 4 2 3 3-2 2-5 3-10 1-10-1 1-2-1-1-4 1-2 1-2-1-2l-3 3c-1 2-1 2-2 1-2-2-4-3-4-1s-3 1-4-1c-2-1 0-3 3-3 1 1 1 0 1-2l1-8c0-6-1-9-2-7-2 2-3 1-3-1l-2-3c-3-3-2-5 2-6 4 0 8-2 5-2l-1-4a22 22 0 00-5-16c0-2-4-1-5 0s-1 2 1 2c2 1 3 6 0 6-2 0-4-1-3-4l-1-2c-2 0-2-1-2-3l1-5 1-1a1 1 0 100-2l-3-2c-2-1-2-1-2 1l1 2c2 1 0 8-2 8l-1-6c0-6-2-8-8-6-2 0-3-1-1-2 1-1 2-2 1-3l1-2 1-5-1-5-1 1-3 1c-3 0-2-2 1-3l5-1c1-1 1-1-3-1-3 0-4 0-5-2s0-4 1-2 3 1 3-1l-3-1-7-1c2-2 11-1 12 1 0 3 1 3 3 0v-3c-3 0-8-6-5-6l3-2c2-2 2-2 4-1h5l-1 1c-2 0-2 1-1 2 2 2 5 3 6 2l2 2v3c-2 1-1 2 2 2s5-2 4-4l2 1 2 1-1-2v-6l3 6 2 1 1-6-1-5-2-2-2-3c-3-1-3-1-3 2 1 2 0 3-2 0-2-1-2-1-1-3 2-1 2-1 0-2l-3-2c0-2 3-2 4-1 2 2 5 1 3 0v-3h-17l-6 1c-2 0-2 0-2 2v3l-1-2c0-2 0-2-1-1l-2 1h-1l1 1 1 2-3 1c-3 0-4 0-4 2l-1 1c-4 0-9 0-10-2h-2c0 2-2 1-2-1-1-2-12-2-16 0h1c3 0 3 2 0 3s-2 2 3 3l12 1c3 1 9 0 8-2h2l6 2a2 2 0 112 4c-9-2-11-2-11 0s0 3-8 3c-6 0-8 0-8 2l-1 2c-1 0-2 1-1 2l-1 1-2 1-1 2v-1c0-2 0-3-2-3l-3-1h-2l2 2 1 2c0 1-1 1-4-1-2-1-3 0-3 5 0 3 1 4 3 5 3 1 4 3 1 3h-2c0 2 0 2-3 0l-4-1 1-2 3-2h-8c-1 1-1 1-1-1 1-1 0-3-1-5-2-4-5-6-5-3l-1 2-1-2c0-2 0-2-3-1l-2-1c1-1 0-2-1-2l-4-1-2-2h2l5 2c3 2 4 2 4 0h4c5 0 5 1 4 3s3 1 4-1 4-2 4 1l1 2c2 0 1-3-1-5-1-1-1-1 1-3 1-1 2-2 1-3-2-1-13 0-17 2h-3c0-3 1-5 3-4l1-1-1-2c-3 1-5-1-3-3 1-2 1-2-1-3l-2-1 2-1c1 1 2 0 3-1 2-3 6-3 6 0 0 2 1 2 2 1 2-1 2-2 0-5l-2-3-2-1c-2-2-6-2-7 0s-4 1-3 0c0-2 0-2-2-2s-2 1-2 4c0 4 0 5-2 2-1-1-2-2-3-1h-1l1-2c2 0 1-2-2-3h-8l-2 1c-1 3-3 2-4-1-2-4 1-6 4-3h2l-1-3c0-1-6 0-7 2l-2 2-4 2c-1 1-2 2-3 1h-3v1l2 2-1 1h-3c-2 0-3-1-3-2 1-3-4-3-5 1-2 5-3 5-5 3-2-3-3-6-1-6 1-1 2-2 1-3 0-2 0-2 2-2 2 1 1-1-1-2-3-2-5-1-3 0 1 2 0 7-2 7s-3-2-1-2l-1-1-3-1h6l-2-2c-2-2-2-2-3-1h-6l-2-1-6 1h-4l3 1 5 1h2c-2 2-1 3 2 2 2 0 2 0 1 1l-6 1-4 1-2 1-6 2c-4 3-6 2-4-1 1-1 2-2 3-1l2-1 2-1c1 1 2 0 3-1s0-1-5-1l-6 1-2 1-4 1c0 1-1 2-3 2a2 2 0 000 5l-2-1-6-1c-6-1-5-3 1-3 4 0 5-1 5-3 1-2 2-2 6-2l4-1h2c2 0 3 0 3-3 1-2 2-3 3-2l2-1c0-2 1-2 7-2 3 0 6 0 5-1-3 0-3-3 0-3l2-1c0-1-1-2-8-2h-7l2 2 2 2-3-1c-3-2-6-2-7 1l-3 2c-3 0-8 3-7 5l-1 1-1-1c0-2-1-2-3-1-1 1-1 1-2-1l-4-3c-4-1-10-6-9-7l3 1c2 1 2 1 2-1l-3-2-3-1-8-1-8 1c-6 0-7 0-9 2s-2 2-3 1h-1c-1 1 0 2 2 3l3 1-3 2c-4 2-5 2-4 0l-2-2c-2 0-3 0-3-2 0-3-2-4-4-6l-4-4c0-9-8-14-18-12h-10l-3 2c-6 0-13 6-11 11v1c0-1-3 0-5 2-6 5-8 6-11 6l-2 1h-1c-2-2-8 0-8 3s-4 7-6 5c-1-2-2-2-5-1l-4 1h-4c-2 1-2 1 0 2l4 1 3 1 3 1c2 0 2 6-1 9l-1 3-2 3c-2 4-1 4 3 2 5-3 8-2 8 1 0 2 0 2-1 1-1-2-2-2-2-1h-3l-2 1c0 2-1 2-2 2a9 9 0 00-8 5l-2 2c-4 2-5 1-3-2 2-1 2-2 1-2l-1-1 2-1c2 0 3-4 1-4h-2l-1 1c-2 1-3 0-3-3 0-2 0-3 1-2h8l4-1c-2 0-6-3-5-5l-2-1c-3 2-3 2-4 0l2-1 2-1-2-1h-3l3-1 3-1h2c2 2 3 1 1-1l-2-1-3-6-1-1c-2 0-4 5-3 7 1 1 1 1-3 1-5-1-5 0 0 1 3 1-1 5-4 5-3-1-3 0-3 4 1 4 4 6 5 4l2-1c2 0 0 4-2 6-3 3-4 2-4 0 1-2 0-2-1-2l-2 1-1 2-2 4c-1 0-3 1-3 3a4 4 0 01-8-2l-2-3 2-1-1-2a5 5 0 00-3-2l1-2 2-1 2-2c0-2 1-3 2-3s2-1 2-3 0-2-4-2h-4c2 0 3-1 1-2l-1-5-1-5v-1c2 0 5 4 4 6-2 2 0 3 4 2l2-2-1-2v-1l-1 2-1 1-1-3c0-2 0-3 2-2l1-1-4-1c-5 0-6-1-4-3 1 0 1-1-1-1-2-1-2-1-2-5v-3h-3c-8-4-15-5-19-2-2 1-3 2-6 1-4-1-5-1-8 2-2 2-2 2-9 2l-5 1h-5c-4 0-5 0-6 3-1 2-2 2-3 1l-7-4c-8-4-11-7-10-9l2-2c2 0 6-3 6-5l3-1 5-3 8-1c6 0 7 0 7-2l1-2 1-2h1c4 1 16-7 15-10s-4-2-4 0c0 3-5 5-11 5-5 0-9 1-9 3 0 1-5 4-8 4l-10 3c-7 3-7 3-9 1v-2l2-1c2-4 14-7 15-5 2 2 3 1 3-1l2-2 3-2 3-2 3-5 1-4h5c4 1 4 1 4-1l4-8h2a2 2 0 004 0c0-2-5-3-8-1-1 1-2 0-3-1-2-1-2-2-3 4l-3 1-4 2-4 1-1 1-2 3-4 2-3 1-3 2c-1 1-1 1-3-1l-2-2-1 3-4 4c-7 2-9 5-9 10l1 5v2c-2 1-1 11 2 14 2 1 3 4 1 3-3-3-4 0-4 14v13h3l5-2c3-3 6-4 8-3v3l-9 3-7 2v5c0 5 3 7 5 3l2-1c1 1-4 5-6 5l-1 24 1 24 1 1 3 4 3 2-4 3c-4 4-6 13-3 15v2l-1 15 7-4c3-3 8-6 14-7 10-4 16-8 18-12s5-5 11-5h5l6-4c7-3 7-3 13 2l6 2c4 1 4 1 4-2-1-3 0-3 1-2l2 2c0 2 1 2 3 1 5-2 15-1 19 2l7 2c9 1 5 9-5 9-2 0-3 1-4 3 0 2-4 3-6 2l-2 1h-5c-2 1-2 1-3-1 0-3-2-2-2 2l-1 3-2 2h-1l1-3c1-3 0-3-2 0-2 2-2 2-3 1-2-1-4 0-10 4-4 4-6 4-5 1 0-2-1-3-3-1h-2l-3-2c-2 0-3-1-3-3s-2-3-3-1l-1 1c-2-1-1 2 1 4 1 2 1 2-1 3l-2 1h2l4 1 2 2 8 2c2 0-1 3-5 5s-7 4-6 5l-2 1-4 2-3 2v-5l3-1c2-1 2-1-2-1l-5-1c-2 0-2 0-2 2l2 2 2 1c-1 2-5 1-7-1-2-1-2-1 1-7 2-5 2-5 1-7-2-1-2-1-2 1 0 3-4 7-7 7l-1 1c-1 1-1 0-1-1l-1-3v1l-1 2c-1 2-1 3 1 5 3 4 4 9 2 9l-3 5-4 4-3 2H9c-4 1-4 4 0 4 1 0 2 0 1 1-2 0-1 2 1 2 3 1 4 5 2 6l-5 5c-2 4-5 5-6 1 0-5-2-2-2 4 1 6 4 9 8 6l3-1-4 4H0v28h10c9 0 12-1 9-2v-1l2 2c1 2 9 1 10-1l3-3 13 4a1338 1338 0 00100 0c0 2 9 1 12-2 3-4 3-4-3-4-6 1-6 0-2-4l2-5c-1-3-2-3-3 1-2 3-2 3-4 3-2 1-2 1-2 3-1 3-3 4-4 0-1-3-3-3-3 0 0 1-8 5-10 4l-32 1c-20 1-32 2-33 1l-18-6c-7-2-6-3 1-3l8-1 10-1h22a47 47 0 0122 2c2 0 2 0 0-1-3-1-3-2 1-3 2-1 3-2 3-4s0-3 2-2l2-1 3-1 2-1h-9l-28 1c-21 1-21 1-18-2 2-3 3-5 0-5l-10 2-2 1c-4 4-15 2-14-2v-3l-3 1c-4 2-5 1-2-2 1-1 3-3 3-5 1-2 2-2 5-2 5 0 8-2 7-4-1-1 6-5 9-5l4-2 3-1 2-1h-1c-3 0-3-2-2-5l2-1c3 2 18 0 22-2l2-4-2 1-3 1 2-2 3-3h-1l-8 1c1-2 5-3 12-3l7-2 3-1c3 0 6-2 7-4l5-1c4 0 4 0 5-3l5-4 4-3 2-1 3-1 6-3 12-5c2-2-2-1-7 1-4 1-4 1-4-2 0-2 1-3 3-4 3-3 4-1 1 1l-2 3 2-1 3-1h3l10-1c9-1 10-1 10 1 1 2 1 2 3 1h12c1-2 4 0 4 2s6 1 7-1l-1-2c-2-1-2-10 0-11 0-1 1-1 1 1 1 1 2 2 4 1l3 1-4 1c-3 0-3 2-2 9 0 4 11 6 11 2l2-2v-1c-1 0-1-2 1-4l1-4c0-2 1-3 3-3 4-1 5-1 2 1-1 2-1 2 1 2l3-1 2-1c3 0 2 2-1 3l-2 1h6c2 1-3 4-6 4-2 0-3 1-4 3l-2 3 3 1 3 2c0 1 10 6 14 6 4 1 5 1 5-1l1-2 1-4 2-2 1 2v4c1 2 1 2 2 0 1-1 1-2 2-1l2 1 1 1h11c2 2 7 3 7 1l-3-1-2-1 2-1h6c6 0 6 3 0 7l-17 12 2-1 8-2-2 2-4 1 5 1 14 2h-1c-5-1-5-1-6 2l6 1 8 1 35 4c8 0 4-1-6-2-10 0-11 0-11-2 0-3 0-4-2-4v1a2 2 0 11-3 0c1-2-5-2-13 0-4 0-4 0-4-4l-2-10c-2-7-1-9 4-9l8-1h4l-1-4-3-3c-8 2-12 2-12-1h1c2 2 5 0 3-1-1-2 0-2 2-3s2-1 1-2l-4 1c-3 1-4 1-2-1l1-2-2-1v-1c1 0 2-1 1-2 0-2 0-2 2-2l8-2c7-3 10-2 15 6 6 8 10 10 11 4 0-3 2-4 2-2l2 5 2 4h8l10-2 4-1 6 8c5 7 6 8 5 11l-1 2h11c1 2 2 2 5 1 3 0 5 0 8 2 4 2 5 2 7 1h15c13 1 15 1 16-3 1-2 1-2 2-1 2 2 5 2 5 0s1-2 2-1c2 2 13 1 13-1l1-5 1 3c0 2 1 3 7 2 4 0 7 7 4 11v2l3 7 2 2v3c-2 1-5-1-4-3l-1-1c-2 1-2 0-3-2l-1-3v5c1 1 0 4-1 4l-1-2-2-2c-2 0-4 2-2 2 2 2 1 3-1 3s-2-1-2-6c0-6-1-7-5-4l-3 2 2 5v6c-1-1-1 1-1 3 0 3 0 4-1 3l-2-2c-3-1-4-11-1-15 1-5 1-6-1-5l-2 4-1 5c-1 2-2-1-2-5v-4c-1-1-2 0-1 2 0 1 0 3-2 5-2 3-2 8 0 8v6c0 1-1 2-3 2l-4 2c0 2-1 2-3 2-2-1-2-1-1 2 2 2 0 4-1 2h-2l-2-1-4-2c-1 1-2 0-1-3 0-3 0-3-1-2l-3 2c-3 0-3-1-2-4 0-3 0-3-2-3h-4l-4 1-4 1 2 2 3 2c2 0 4 4 4 6-1 1-2 2-3 1-3 0-5 2-3 4 2 1 4 13 3 14l-2-1c-2-1-2-1-3 1 0 3 3 6 5 5h1v2l1 2c0 2 2 3 2 0 1-2 7-1 10 3 3 3 5 2 3-1l-1-2 1 1h5c3 0 6 2 4 2l-1 2-3 2-2 1 2 1 2 1c-1 2 11 3 59 3h43l-2-2-2-3 4 3c3 2 4 2 14 2h11l-8-15-7-16c0-2 5 6 7 10l6 12 5 9h143v-22l-1-19-1 4-1-3c0-3-2-8-3-8-2 0-2 5 0 7v2l-1-1c-2-3-3-2-3 0 1 2 1 3-1 3l-1 3-1 2-1-6 1-6 3-1-1-1c-1 1-2 0-2-1s3-3 4-1c0 1 1 1 2-1h2l1 1 2 1c1 2 1 11 1-99v-95l-1 4c-1-1-1-2-2-1l-1-1 2-7c0-6 1-7 2-4v-25c0-11 0-12-2-13l-2-1h2c2 1 3-1 2-13 0-9 0-9-3-9-3-1-4 0-3 6 1 7 1 7-1 7s-2-1-2-4c0-5-1-6-4-4-2 1-2 1-1 4 2 3 3 15 2 15-2 0-4 5-5 9 0 3-1 6-3 5l1-2c2-1 3-20 1-31 0-5-1-5-2-5m-128 5v16l1-4v-2l2 2c2 3 6 2 6-1 0-2 1-1 1 1l1 4v-4c0-3 1-4 8-4 6 0 7 1 5 5v2h1c1 1 0 2-1 2-3 1-4 3-1 3l1 1c0 3 4 4 7 2 1-2 4-3 5-3l2-1c0-2-6 1-8 3-1 1-5 0-5-1s5-3 8-3c5 0-2-11-7-11l-3-1-1-2-2-1h-1l-2-1h-6l-1-1-3 1v4c0 3 0 4-2 4s-2-1-2-4a5 5 0 00-2-6h-1m-369 6c-2 1-4 6-2 7 1 2 18 1 19-1 1-1 1-2-1-3l-2-2-4 2-5 2 1-1 1-2c-1-3-3-3-7-2m251 10l-1 11c0 2 0 2 2 2 3 0 5-15 1-16v-3l-1-3-1 9m164 18l-2 1c-1 1-2 1-1 2l1 6c0 5 0 5 2 5v-7c2-1 2-2 1-2v-5h-1m-274 3c0 2-1 2-9 2l-10 1 5 1c6-1 8 0 8 3l2 2 2-1c-1-1 0-2 1-4l2-4h-1m284 0l-1 1c-1-1-2 0-3 2-2 2 0 5 2 3h2c3 1 7-3 5-5-1-2-4-2-5-1m-369 4l-2 1h-4c-2 1-3 1-4-1h-8l-3-1a2 2 0 10-1 4l2 1 2-1c3-2 3-2 4-1 1 3 18 3 18 0l-2-3c-2-1-2-1-2 1m153 0v7c-1 6-3 11-3 5 0-4-2-3-2 1-1 3-3 3-2-1 0-2-1-2-3-2l-2-2h-1c-3 3-4 2-3-3 0-3 0-4-1-3l-1 4c0 3-2 5-4 3h-2l-2 1c-2 0-1-4 1-5 3-3-3-6-7-3h-1c-1-2-4-1-4 1l2 1 1 4-1 7c0 3-1 4-4 4s-3-1-3-3c0-3 0-3 1-2s2 1 3-1c1-1 1-1-1-2-1-2-2-2-8-1-2 0-3 2 0 2a2 2 0 010 3l-1 1c1 6 1 6-8 6-7 0-9 0-10-2-3-2-1-3 5-3l5-1-10-1-11-1-1-2-1 2c0 2-2 1-3-1 0-2 0-2-2-1-1 2-1 2-2 0-1-3 2-6 4-4 2 1 5 1 5-1l-5-1c-5 0-5 0-6 4s-3 5-4 3h-2l-6 1a2 2 0 10-1 2c2 0 5 2 4 3l-6 1c-8 0-9 1-7 9l2-1h2l4 1c16 0 23 2 24 4s1 2 8 2 7 0 8 2c0 3 2 3 2 0 0-2 1-2 11-2 20 0 19 0 18-3v-2l2 2c2 2 3 3 10 3 10 0 10 0 9 1l-1 5-1 3 6-1c7 0 9 1 9 6l1 2 1-4v-3h8l7-1 2-2c2 0 3-1 2-3-2-1 0-3 2-2 2 2 1 2 3-8v-10l-3-2c-1-1-1-1-1 1l-2 2-1-2c1-1 1-1-1-1-2 1-2 1-2-2 1-2-3-6-5-5h-3l-3-1-2-2c-2-2-2-2-2 0 0 1 0 2-2 2l-1-4c0-3 0-5-1-4m23 5c13 1 61 3 62 2 2-1-1-1-53-2h-9m217 8c0 4-2 7-5 7a1 1 0 102 2c0-2 3-1 5 1 2 1 3 2 4 1s3-1 4 1l1-2c0-2-1-2-7-1-1 0-2 0-2-3l-1-10-1 4m-212-1v3c1 1 48 3 54 2l1-2c0-4 1-4-28-5h-26l-1 2m153 0l3 3 2 5 2 11 1 8 1 2 3 5v3l2-4c1-4 3-4 5 1 2 4 2 4 4 1 1-3 0-3-2-7-2-2-3-5-3-9l-4-16c-1-2-2-2-7-2a8 8 0 01-6-2l-1 1m-418 7c1 5 0 5-4 5l-4 2c-2 4-1 5 3 3l3-1c2 2 5 1 5-1l1-2 2 2 5 2h4l-3 1c-3 1-3 1-2 2l4-1 9-1c7 0 8-1 5-3-1-1-2-2-1-3l-3-1c-3 1-4 1-5-1-2-2-2-2-3-1-1 2-2 2-2 1-1-3 0-5 2-5h3c1-1 1-1-1-1l-10-1h-8v4m-74-1h5l6 1c0 2 4 2 4 1l2-2 1 2 4 1c7 0 5-3-2-3H64m148 17v3c0 2 0 2-2 2-1-1-2-1-2 1-1 3 0 3 4 3l4 2 2 1 4 1 2 1c2-1-3-5-5-4l-8-3 4-1h5l-1-1-2-1c1-1 0-2-1-3l-3-1h-1m-132 2h-3c-2 0-3 1-3 3s-1 3-2 3c-3 1-4 4-2 4l2 1v1l1-1 3-3 2-4 1-1 3-1c0-1-1-3-2-2m37 4c-2 3-5 4-7 2h-3c-1 1-2 10-1 13 0 2 5 1 5 0l1-2a1 1 0 100-2h-2l5-1h4v-6c0-8 0-8-2-4m511-2c-1 1 0 6 1 6 2 0 4-1 4-3s1-3 3-1h1c2-1-1-2-4-3l-5 1m-382 1l-2 1-1 1h-2l2 1c2-1 3-1 3 1l2 1c1 0 2 0 2 2 0 3 2 2 4-1 1-1 2-3 1-4h-1c0 3-2 2-2 0-1-2-3-3-6-2m239 0v3c0 3 0 3-3 4l-2 2h8c4 0 4-1 1-2-2-1-2-1 0-1l3-1c1-1 1-1-2-1s-4 0-4-2l-1-2m-299 3l-2 5-1 2 2-1h2l5 1c4 1 5 1 5 3s2 3 4 2c1-1 1-1-1-3l-2-5c0-2-1-3-4-4l-3-2 1 4c1 4 1 5-2 3-2-1-3-2-3-4-1-3-1-3-1-1m79 4l-1 1-3 1c-1 1 0 2 2 1l1 2v1h1l3 1c2 0 2 0-1 2s-6 6-3 6l7-3 1-4c1-6 1-7-2-6l-3 1-2 1 1-3c2-1 2-1 1-2s-1-1-2 1m192 5l1 2c2 2 1 3-1 3-3 0-4 1-2 3l1 2c0 2 4 3 5 1l2-2 6-1c5-2 10-2 12 0v-2c0-3-2-4-5-5-2-1-4 1-2 2v1c-5 0-7 1-9 3h-3l2-2 2-2 1-1 4-2c1-1 1-1-6-1l-8 1m123 5c-1 1 0 4 1 5v4l1 2 1 5c0 5 2 5 2 0l1-3 2 3 1 4c-1 4 0 6 3 4l1-1c-2 0-4-2-2-3 1-1 1-1-1-4l-2-3 2-1c2-1 2-2 0-3-3 0-4-2-4-4l-2-4-2-1-1-1-1 1m-184 3v2l1 2c0 3 0 3 3 2l3-2c0-2 3-5 5-4v2l1 1c2 0 2 0 1-2a6 6 0 00-10 0l-1-1c2-2-1-2-3 0m108 0l-4 1h-3l-1 2c-3 0-5 8-3 12 1 2 6 4 6 2 1-2 4-1 4 2 0 2-1 3-6 3-6 0-8 1-5 3l2 5c0 2 1 3 2 3l1 1-3 1-2 2-1 1 2 5 2 8c1 3 11 4 12 0l2-1-3-4c-4-4-4-5-4-9l-1-6c-1-1 0-3 1-5l2-6 2-5c2-2 2-2 0-3s-2-1-2 1c0 1-1 2-3 2-4 1-6 0-3-1l2-4c0-3 1-4 2-1l2 1 2 1h2c1 0 2-1 2-3s1-2 3-2 3 0 2-2c0-2-2-3-2 0 0 1-2 2-2 0-1-2-4 1-4 3s-1 2-3 0c-1-1-2-2-1-4 1-3 2-3 2 0v2c2 0 2-2 1-4s-2-2-2-1m-402 4c-1 2 0 2 2 4 4 1 4 1 5-3 0-5-6-6-7-1m-39 4c0 2-5 5-5 2h-2c-4 2-4 3-1 4l2 1 2 1a4 4 0 013 4l-1-1-6-1-6 1-3 1c-2 0-3 1-4 3s-1 2 1 1l4-1c4 1 5 0 4-2-1-1-1-1 3-1h4l2-1-1 2c-2 0-1 2 1 2 3 1 5-1 5-3l2-2c2 0 5-4 3-5v-3c1-1 0-3-1-3l-2-1c-2-2-4-1-4 2m324 4v2l2 2c0 2 2 4 3 2l2-2 3-2 2-1h2l-1-1h-4c-3 2-4 2-4 1 0-2-2-2-5-1m-122 7c0 2 3 5 3 3h14l2-1c1-1-2-1-7-1l-10-1c-1-3-2-2-2 0m145-1v7h11c1-1-1-4-4-5h-4l2 1 1 1-2 1c-2 0-2-1-2-3 0-3 0-3-2-2M0 350c0 13 1 19 1 12a578 578 0 00-1-12m219-19v3c1 2-4 6-6 5h-5l3 1 1 2c-1 1-1 1 1 1h4c2 1 2 1 0 2s-2 1-1 2c3 0 6-2 5-4l-3-1c-2 0-2 0 0-3l4-3c3 0 2-7-1-7l-2 2m-165 1l-2 1-2 2-2 1-2 2c-1 1-1 1 1 1h3c1 1 4-1 4-3l3-1h2l-2-3a2 2 0 00-3 0m614 4l3 6c2 2 2 3 2 7 0 5 1 7 5 8h2l-1-3h-2l-1-2c-2-1-1-9 0-11l2-3 2-1 1 7 1 9c1 1 1-2 1-8 0-10 0-10-3-10-3-1-4 0-3 1 0 2-2 4-5 4-2 0-3 0-4-3l-1-4 1 3m-540-1l-2 3-2 1c-1-1-1 0-1 1l2 1 1 2 1 1c1-2 5-4 6-4a1 1 0 100-2l-4 1c-4 1-1-1 4-3l5-2h-4l-6 1m507 1c1 1 1 1-1 1l-3 1 2 1c4-1 5 1 1 1l-4 3h3l4 1-2 1-5 2 5 4c1-1 1-2-1-3v-1l3-2c3-2 6-1 4 2v1c2-1 2-4 0-5s-2-2-2-4a2 2 0 00-4-4v1m-369 5c-3 0-3 2 0 3l5 2c1 2 1 2-1 2-3-1-2 1 1 2 1 1 2 0 2-1 0-6 0-6 3-6 2 0 2-1-1-2h-9m14 2l-3 3-1 1v1c2 1 2 1 4-1l6-1h4a5 5 0 00-5-3c1 0 1-2-1-2l-4 2m98 1c-1 3-1 3 1 2 3 0 7 3 6 5-1 1 1 2 4 3 4 1 5 1 3-3-1-4-3-4-3-1l-1 2-1-3c0-1-1-3-3-3l-1-2-3-2-2 2m49-1l5 2c3 0 6 2 3 2l-1 1 1 1h1c1 1 0 1-1 1-2 0-3 2-2 3l1 3 3 1 4 2c1 2 7 0 7-2l-3-2-4-2h-1l-1-1h3c2 0 2 0 1-1l-2-2-1-1c1-1 0-2-1-3-3-2-12-3-12-2m-261 4c-2 1-3 4-1 4l1-1 1-2h1c0 1 1 2 4 2 6 0 7-2 1-4-4-1-4-1-7 1m167 1c-11 3-13 3-14 2-3-2-6-1-6 1s3 3 3 1h10l3-1 6-1h9a9 9 0 00-11-2m214 4c1 3 1 4-1 3-2 0-4 4-2 5v5c1-1 2-1 4 1 3 1 5-1 1-3-2-1-1-4 2-3l1-2c-2-5-2-7-1-7l1-1c0-1-1-2-3-2s-2 0-2 4m48-2c1 2-1 3-3 1l-1-1-1 3c0 1 0 2 2 2l5 1c3 2 4 2 5 1s2-2 3-1l-6-6c-3-3-4-2-4 0m-485 1c-2 2-2 2 0 2l1 2 1 3 1-1c-1-2 0-2 2-2 3 0 3 1 3 2 0 3 2 3 4 1h4l2 1 4-3c5-2 5-3 1-2h-14c-2 1-5-1-5-3 1-3-1-3-4 0m-33 1l-3 2h-2c-1 0-4 1-5 4-1 2-1 2 1 2l3-1 2-2 4-2a9 9 0 015-4l-5 1m78 1c-5 1-8 2-8 4l4-1h5c3 2 9 1 9-1-1-2-4-3-10-2m475 1l-3 3-3 2c-5 0-5 0-3 1l2 5c1 6 5 12 5 9l-1-6c-3-6-3-8-1-8l1 1 1 3 1-3c-1-4 1-6 6-5h2c0-1-4-3-7-2m-228 4l2 4v2l-2 2-3 1c-3 0-3-1-3-3l-1-3c-2 0-2 1-1 3 0 4-2 7-3 4s-5-5-5-3l1 2 1 1v1l1 1-2 1-5 2h-3c0-3-2-2-3 0l-1 1c0-2-2-3-3-1 0 1 2 4 4 4 1-1 1 0 1 2l2 2 1-1 1-2 1-1c0-1 1-2 3-1 2 0 2 0 0 2-1 2-1 2 1 2l2-1 2-1c3 0 5-3 5-5-1-2 0-3 2-2 2 2 2 2 4 0l2-1v8l1 1 1-3c-1-2 0-4 2-4l2-1h1c2 2 5-1 5-4 0-2 0-2-1-1-2 1-2 1-2-1a3 3 0 00-4-2l-2-2 1-1h2l-1-2h-6m-236 2c2 1 3 5 2 6l-1 3h2l6 3v-4c-1-4 1-6 5-5 2 1 4 0 3-1-2-2-11-2-10 0 0 3-3 3-4 0 0-2-2-3-4-3-1 0-1 1 1 1m264 0l-2 3-2 1 2 1 2 3c0 3 1 3 5 1l1-1-2-1h5c3 2 4 2 5 0l3-1 3-1c0-1 1-1 1 1 1 1 1 1 1-3 0-2-5-2-7 0s-3 2-7 1c-1-1-3-2-4-1l-2-2c0-2-2-3-2-1m125 7c-2 2-2 2 0 3l4 6c1 3 1 4 2 3v-4l-2-5c-1-4-2-5-4-3m13 3c-2 4-1 6 2 3 1-1 1-1 1 5-1 5-1 6 1 6l3-2c1-2 2 0 2 4 0 3 0 3 2 2 3-5 1-17-3-17l-3-1c-2-3-4-2-5 0m-344 1v3c1 1 0 6-1 6l-1 3c1 2 1 3-1 4-2 0-1 2 1 2s5-2 3-3-1-2 2-2 4-1 2-3h-1l-2 2c-2-2-1-5 2-7l1-3v-3l-2-1c-2 0-3 1-3 2m159 12c-1 1 0 2 2 3l2 3 1 1 2-2 1-2c3-3 2-4-3-4l-5 1m147 2c-2 1-2 12-1 12l4-11c0-3-2-3-3-1m62 2c6 6 36 22 38 21a60 60 0 00-17-10l-6-3-8-5-7-3m-571 6l-1 3a2 2 0 101 3h3l1-1 4-1c4 0 7-2 7-4h-3l-4-1h-4c-3-3-4-2-4 1m366 0l4 1c2 0 3 1 4 3s2 2 4 2c1-1 2 0 2 1l1 1 1-1h2c1 0 1 1-1 2s-3 2-4 1l-4-2-4-2c-1-1-2-1-4 1-3 2-3 3 1 5l3 3v1l1-1c1-3 6-4 6-1h1l2-1 3-1 5-3 2-1a2 2 0 00-3-1c0 2-2 1-3-2-1-2-2-3-5-3l-4-1a19 19 0 00-10-1m196 0h-1c-2 0-2 0-1 3 1 6 1 7 2 5 1-1 1-1 1 1l-2 3v3l1 2c-1 1 0 1 0 0 1 0 2-1 2-3 1-2 4-3 4 0l1 1 1 3 1 2c3-2 0 7-3 10l-4 4c-1 3-3 2-2 0 0-3-2-2-3 1-1 1-1 2 1 2s1 2-1 4-3 4 0 4l1-1 2-1c1 0 2 2 0 3v2l1-2 2-2h1c0-2 0-3-2-3-3 0-3-1 1-4l2-3 2 2c3 3 8 4 6 1l-1-3v-4c2-2 2-3 1-3-3 0-2-1 1-3 3-3 3-7-1-10l-3-4c0-2-1-3-2-1l-2 1 1-2c3-3 2-4-1-3-3 2-4 2-4-1s-2-6-2-4m-451 5l-4 4-3 1-6 4-5 3c-3 0-7 3-7 6 1 2 5 2 10-1a277 277 0 0112-6l4-1 1-2c-1-2 4-4 6-3h2l6-1c4 0 5-1 3-3v-1l1-1-2-1-4-1c-6-2-10-1-14 3m275 7v6c-1 2 1 4 2 2l4-1c3 0 4 0 4-2l-2-1h-2l-4-1c-1 0-2 0-1-1l-1-2m121 4l1 3 2 5c-1 4 0 5 1 5l2-2-1-3-1-5c1-5 1-5-1-5s-3 1-3 2m130 0l1 2a4 4 0 011 5c-1-4-6-6-10-4-2 1 1 3 2 2l1 1c-1 6 2 11 4 10v-2c-1-1-2-8-1-9l2 3c0 3 1 4 4 4h2v-13h-3l-3 1m-15 4v3l2 2 3 4 3 4h1l-2-7-3-6c0-3-2-2-4 0m-63 5v6h-5c-5 0-6 0-4 2v2l1 2 2-1 3-2c1 1 2 0 3-2l3-3h1l-1-1v-2c2-1 2-6 0-6-1-1-2 0-3 5m89 1v9l-1 1-1 3c0 1 1 1 2-1l2-4 2-6c2-5 2-6-3-6-2 0-2 0-1 4m-253 1c-2 2 0 3 6 3s7-1 3-3h-9m104 4h-3l-3 4c-1 5-1 6 3 5 2 0 2 0 2 3v4c2 0 1-10 0-11-2 0-1-2 1-4 3-2 2-3 0-1m42 8c-3 3-5 3-5 0 0-2 0-2-1 1l-2 4c-1 1-1 2 1 3 4 3 7 3 7 2l-2-2v-1h2l2 1v-4c1-1 1-1-1-1-3 1-3-1 1-4l1-2-3 3m-85 0c0 2 0 3-1 2-3-1-3 2-1 4l2 3c1 3 2 0 2-4l-1-6c-1-1-1-1-1 1m-296 3l-3 1c-2 0-5 3-4 4l-1 2-2 2h1c1-1 1-1 2 1 1 1 1 1 1-2l1-3 1 3c-1 3-1 3 2 3h4v-7c0-7 0-7-2-4m331 4h-3c-4 0-4 2 0 5l2 4c0 3 0 3 2 2a6 6 0 000-10l-1-1m-497 2l-12 1-2 1 2 1c1-1 1-1 0 0l4 1 7-1c3 0 4 0 4-2s-2-3-3-1m239 1c-1 3 0 5 3 6 2 0 2 0 3-2 0-2 1-2 7-1 6 0 9-1 6-3s-18-1-19 0m-138 1c-1 3 0 17 1 17l23-1h22v-12h-13c-12 0-19-1-31-5l-2 1m403 7h-2c-1-2-2-1-3 3-1 3-1 3 1 3h2c1 2 1 2 4 1h3c1 2 3 3 3 1s-3-4-5-4h-1l1-2v-2c-1-2-2-2-3 0m-184 2l-1 13 1 12 7 2 14 1 9-1 1-11v-12h-8c-10 0-22-3-21-5v-1l-2 2m-224 1l-4 1-3 2c0 2-1 2-3 2h-2c0 1-1 2-5 2-3 0-5 0-6 2-3 2-4 3-4 0l-3 1h-3l-4 1-7 2-4 1h-2l-3-1c-4 1-5 6-3 9 1 1 1 4-1 4l-2-3c0-4-4-3-4 2l-2 3-2 1c0 1 7-1 13-4h4c1 1 6 0 6-2l2-1c1-1 1 0 1 2-1 4 0 4 4-1l5-3c7 2 18 2 17 1 0-2 1-3 3-1l2 1c1-1-1-3-3-3a3 3 0 110-7l2-2 3-2 4-2 3-1 1-1 2-3c2-2 0-2-2 0m390 3l1 3a1 1 0 11-1 0l-1-1c-2 0-2 2 2 5 3 4 6 5 7 2h-1c-2 0-5-3-3-4 1 0 1-1-1-4s-3-4-3-1m-196 0c1 5-2 6-10 5h-7l2 3c2 3 3 4 6 4h5l3-6c5-7 5-7 3-7l-2 1m-252 3l-3 2-1 1-2 2c-2 0-3 1-3 2 0 2 0 2 2 2l2-1 2-2 5-4 5-3c0-1-5-1-7 1m176 3c-9 2-11 2-13 5l-4 2c-6 0 0 3 13 6l15 3c1 1-60 5-63 4l-4-2c-2 0-2 0-2 3s0 3-5 3c-6 1-6 1-6-7 0-5 0-6-1-4v6l-1 4-1-2c0-4-3-6-5-4-1 2-3 2-3-1 1-1 0-1-2-1-9 2-32 1-38 0-6-2-6-2-7 0-2 2-2 2 7 4 8 2 11 3 13 2h5c1-1 24-1 25 1 2 2 1 2-12 3-11 1-16 2-16 4a3 3 0 01-5 1c1 1 4 2 15 2h14l-2-2-1-2h3c9 2 10 2 13 1h5l12 1c0-1 3-2 9-1a20 20 0 0011-2c1-1 7 1 9 2 1 2 2 1 1 0 0-2 4-3 11-1 4 1 10 0 11-3 0-3 2-4 6-3 3 1 3 1 1 1s-2 0-2 2l-1 1-1-1v-1c-1-1-1 0-1 1s1 2 6 3a123 123 0 0116 3l3 2c3 2 8 2 7 1l1-2 3 1c0 1 1 2 2 1v6l-2-3c-1-2-1-2-2-1-2 2-5 2-51 5-28 1-39 2-42 1-5-1-5-1-10 4l-3 4h27a689 689 0 0033-1l54 1c56 0 56 0 55-2l1-2 1 2 1 2 1-12c0-12-1-13-2-11-2 2-3 0-2-3 1-4 0-4-3 0-1 3-2 4-5 4l-3 1c0 2-3 1-6-3l-5-6c-3-3-3-4-1-5v-1l-3 1-12 1-20 2-8-1-2-2c-3-2-3-3 0-5 4-3 1-5-8-5-3 0-4 0-4-2 0-3-12-5-20-3m310 0c-1 1 0 1 1 2l-1 1c-2 1-1 8 2 8l2 2 1 2 1-2-1-5c-1-4-4-10-5-8m28 9a6273 6273 0 01-7 29c-2 5-2 5 0 5s3-1 2-2l2-11 4-14 2-8v-3l-3 4m87 0c2 4 3 6 0 6-1 0-1 1 1 3 1 3 3 2 3-2v-3l3-3c0-3 0-3-3-3l-5-1 1 3m-259 2l1 1 1 2 1 4c2 1 2 1 1-1l1-2 1 3c0 2 3 3 3 0v-1c-2 0-3-2-1-4l1-2-2 1c-2 2-2 2-4 0-3-3-4-4-3-1m12 3v2l-1 3 1 2 1 2c-1 2 4 2 4-1 1-2 0-4-1-2-1 1-1 1-1-1l1-3 1-1-1-2-3-1-1 2m-134 6c-4 0-4 0-2 2h-1l-4-1c-1-1-4-1-4 1l2 1c4 1 6 2 5 3l-1 1 6 1 7 1c1-1 4 0 7 2h2l-1-1-1-2c0-1 4-1 6 2 2 1 2 1 2-1s-1-3-5-3l-7-4-5-3-6 1m-24 1c-2 1-2 2-2 3 1 1 1 2-1 2-1 1 0 1 2 1l3 1c-1 1 0 2 3 2 4 1 5-1 1-2-3 0 0-3 5-3l1-1-3-2c-1-1-6-2-9-1m45 1c0 2 0 2 2 2 2-1 7 0 6 1h-3c-2 0-3 0-2 1l1 3c1 2 3 2 4-1l2-2 1 1c-1 1 2 3 5 3 2 0 2 0 0-2l-4-3-1-2c0-2 0-2-5-3-6 0-6 0-6 2m24 9l2 3 1 2 1 2v2l1 3c0 3 0 4 2 4 4 0 5-2 1-6-3-3-3-8 0-8s0-2-4-3l-4 1m356 2c-1 2 1 7 2 5s4 1 4 4c0 4 3 2 3-2 0-5-2-9-5-9l-4 2" itemprop="regular" tabindex="-1" style="fill-opacity: 0.93; fill-rule: evenodd;"></path></symbol><symbol id="-posters-1650603475164-bold"><path d="M682 159l-2 3h-1l-1 3c-2 2-2 4 1 10l2 6 2 4v-7l-1-7v-6l1-5c0-3-1-3-1-1M68 180l-4 2-4 3c0 2-2 3-2 3-1 0-2 0-3 2l-3 1-4 2-6 2-3 3-1 2h-3l-2 2-1-1-16-1-16 1 15 1c17 0 18 0 15 4-1 2-4 3-4 0s-3 0-3 3c0 5-2 6-6 4-3-2-4-1-2 2 2 1-1 4-2 2H9c-1-1-2 0-4 3l-4 3-1 9v9l3-1c2-1 3-2 2-3 0-1 1-2 3-2l3-3 2-1c2 0 10-5 10-6l-2 1c-2 1-8 0-8-1l3-1 2-1 2-1 4 1c1 2 6 1 6 0l-2-2-2-1-2-1-1-2c1-2 9-4 10-3 2 2 3 1 3-2l1-3h3l3-1 5-2 2-3 25 1 24-1-25-2-26-1 2-1c2 0 4-2 3-3l2-2 2-2 3-1c2 0 3-1 4-3l3-3c2-1 5-6 4-6l-3 1m593 29l-1 8c0 10-1 14-2 16-2 2-2-1 0-11l-1-3-1 3c-1 3-2 4-4 4-5 1-5 1-5-1l-2-3c-2 0-1-2 1-4s2-2 0-2c-3-1-3-1-3 6l1 13v5c-2-2-3-1-2 3l1 5c-1 1 0 6 1 6s3-9 3-16l1-7c4-1 5 1 4 4-2 5-2 7 0 8 1 0 1 4-1 5v1c2-1 2 0 2 3 0 4 1 4 2 4 2 0 3 4 1 8h-1l-1-2c-1 1-2 0-3-1 0-3-2-2-1 2 0 1 1 3 3 3l3 2h-2c-3-1-4 0-3 3 1 1 2 2 3 1 2 0 2 0 2 3v9l1 2 1 3c1 1 2 7 0 7v-2c0-2-5-8-6-6l1 1 1 2 1 1 1 3c-1 1 0 3 1 5 3 3 2 7-1 5-1-1-1-1-1 3l-1 5-2 4c0 3 0 3-1-1l-1-6c1-3 1-3-1-3l-1-4v-5l-2-3c-2-3-2-3-2-1l-1 2c-3 0-4 0-4 2 0 3-2 6-3 3-1-2-5 1-6 4 0 5-3 7-4 5l1-5c1-2 1-2-1-1-3 2-4 1-1-6h-2c-3 1-4 1-4-5v-4l2-1-4-1c-2 0-3-1-3-2l-1-2-1-5c0-5-1-7-2-5l-4-1c-2-3-2-3-1-5v-3l1-8c2-1 1-2-2-3l-3-2c-2-2-3-4 0-4 2 1 1-2-1-4l-3-5-1-6-2-4-2-4c-1 0-2 5-1 6l1 3c0 3 4 10 6 11 1 0 1 2-1 4l-1 4v1h-1a35 35 0 002 15l1 7 1 6c3 3 2 4-1 3l-3-1-1-2c-2 0-3-2-1-2v-3c2-1 2-5-1-6-2 0-2-1-1-5 0-4 0-5-2-6l-2-3c1-1 0-1-1-1-2 0-2 0 0 5l2 5 1 4c0 3 0 4-3 4l-4-2c0-2 1-3 2-1 1 1 2 1 1-2l-1-1c0 2-2 1-2-2l-2-3-1-3c-1-3-2-5-2-3 0 3-4 6-6 5v1l1 4 1 5 2 6c0 4 1 6 3 10 4 7 6 12 5 15l1 3 3 4c0 2 1 4 3 4 1 0 2 1 2 3l2 5 2 2v-4l-2-4c-2-1 2-4 5-5a1 1 0 011 2c-1-2-2-1-2 1 3 8 2 16-2 14v7l-2 2c0 3-3 4-4 3l-2-2 1 2 3 5c1 4 4 6 3 2-1-3 3-3 6 0 3 2 3 1 2-5-1-7-1-11 1-12 2 0 2 0 2 5a10 10 0 005 10h1c2-3 3-1 2 2-1 2-2 3-1 4 1 2-1 4-2 2h-4l-4-1c-1 1 5 4 6 4l3 1c2 2 2 2 0 6a7 7 0 00-2 7c-1 2-10 0-11-3-1-2 0-4 1-2 1 1 5 2 6 0l-3-1a3 3 0 01-4-2l-3-1c-3-1-4-1-4 1l-1 2v2c2 2 0 4-2 4h-6l-1-1c-2 0-4-8-4-10 1-1 1 0 2 1l1 3 2-2 2-6-1-3c0-4-2-8-2-5l-1 2c-2 0-4-3-4-4a5 5 0 00-1-3v8c-1 4-2 8-1 9 0 3-2 5-3 5v-2l-1-2c-3 0-2 9 2 9 5 2 8 6 8 11 0 3 0 5 1 3 0-2 3-3 5-2h4c2-2 6-1 7 2l-1 3c-2 1 1 4 4 4 5 0 6 0 6 2s-1 3-3 1l-2-1 7 4v-5l-1-5-1 2c0 1-1 1-4-1l-2-4c0-3 4-3 7 0 2 2 3 2 3 1a10 10 0 00-9-8c-2-3-1-3 2-3h2l1-1 1 1c0 1 4 2 5 1h6c6 0 6 0 4-6l-3-6c-1-2-1-2 1-2v-3c-2-1-2-2-1-2v-3c-2-3-2-6-1-6 2 0 4 5 4 7-1 1 1 6 2 5v-20c2-1 3-2 4-1h3l-1-1a4 4 0 01-2-5c0-3 2-2 3 1 2 5 8 6 7 2 0-2 0-2 1-1l2 3v3c-3-1-2 2 0 5l4 5a4 4 0 002 4v2c1 1 1 3-1 4-1 2-1 2 3 6l4 5c0 3-2 2-2 0-2-3-5-6-7-6-2 1-2 0-1-2 0-2 0-2-4-2l-3 1 3 1c3-1 3-1 1 1-1 2-2 2-5-1l-3-3 2-1c-1-1-6 0-6 2h1l1 1 2 3v4a5 5 0 00-1 4l-2-1-2-4-2-4 1 5c3 8 2 14-1 8h-1v3l-2 2-1-2c1-2 0-3-4-4-2 0-3 1 0 3 2 2 1 3-1 3-3-1-3-1-3 1l-1 3c-2 1 1 7 3 7 2 1 2 1 1 2-1 2-1 2 1 2s2 0 2 3c-1 3-1 3 5 5 6 3 12 7 9 7l-11-5c-12-6-12-6-12-3 0 2 0 2 2 1l3 1c1 1 1 1 0 0l-2 1h-6c-2-2-4 2-4 7 1 3 0 4-2 3h-1l2 2 1 3c0 2 1 3 2 3 1 1 2 2 1 5v7l-1 2c-2 0-1 3 1 5 2 3 1 5-1 2-3-2-5-1-5 3 0 2 0 3-1 2h-2l-2-1c0-1-4-1-5 1v3c1 1 1 1 0 0-3-2-4 0-4 4 1 2 2 2 3 2a1 1 0 110 2l-3 1c-1 2-2-1-1-3l-1-2c-1 0-2 1-1 2 0 2 0 2-2 2l-2 2c0 4 1 4 3 2l2-1v2c-3 1-3 10 0 9l2 1-5 1c-6 0-7-1-6-4h-2l-2-1c-1-2-1-2-5 13-4 17-5 20-3 19l3-1 1-1c-1-1 0-2 2-1 2 0 2 0 1-1-1-2-1-2 1-2 3 0 2 4-1 5-3 0-4 1-3 5a2 2 0 11-4-1c1-2 1-2-1-1l-5 6 15 1h16v-3l1-2 2 2c3 3 4 3 12 3s9 0 8-1l-3-2-1-1 4 1c3 2 4 3 29 3l25-1c0-1-4-5-6-5-4 0-6-3-6-7 1-5-2-8-6-7-3 1-4 0-4-3 0-2 10 1 12 4 3 3 5 3 3 0-1-2-1-4 2-3l1-2c0-2 2-3 2-1 1 2 5 2 5 0 1-3 0-4-1-3-4 2-7 0-7-4l-1-3-1 2c0 3-4 5-5 2l-1-2v8c-1 2-5 0-5-3 0-2 0-2-1-1l-1 2-2 1c-2 0-2 0-1-1 0-2 0-2-2-2s-3-1-1-3v-7l1-3c0-2 0-3 2-3l2-1 2-1 1 1c-1 1 0 3 1 4l1 2h1c2 0 2-1 0-3-3-7-3-7-2-8 3-1 5 1 5 4 0 2 0 3 4 3h5c1 1 1 0 1-3-1-5-3-7-3-3l-1 3-1-2-3-5c-2-1-2-2-1-2l3 2c2 2 6 1 6-1s-2-4-4-4-5-4-5-6 0-2-1-1l-3-2c-4-3-4-3 0-2 3 2 3 2 2 0 0-3 1-2 3 1 3 5 5 3 4-6 0-10 0-12-3-10-2 1-2 1 0 3 2 1 1 2-2 1s-6 1-6 3l-2 1c-6-1-9 4-6 9l1 4c-1 1-3-1-3-3l-2-1c-3 0-4 1-2 3v2c-1 0-3-1-3-3l-3-2-2-1c-1-1-1-1 1-2 2 0 3-1 1-2-2-2-1-4 1-4 3 2 5 2 6 1l2-1c3 0 2-2 0-2-1 0-2 0-1-1 1 0 0-6-2-9s-2-3 0-3l2-2v-1l1 2c0 4 1 4 6 5h4l-2-3-2-3-2-3v-2l1-2c-1-2 1-3 3 0 2 1 5 1 5-1s2-7 4-9v-2l-3-7c0-3-2-7-5-6-2 0-2 3 1 7v3l-1 5v3l-1 2-2 2v-13c1-1 1-2-1-2-3-1-3-3 0-3 2 1 2-2-1-5-1-2 0-9 1-9l2 3 1 3v-4c0-2-1-3-3-5-3-2-3-3-1-3a10 10 0 017 8l2 4 2 2 2 2h-3c-1 1-1 1 1 2 1 0 2 1 2 3l1 2v2c0 3 0 3 3 2 5-1 6-2 2-5-2-2-2-2-1-3 4-2 4-3 4-4h-3l-2-1c-1-6-1-7 1-7 3 0 3-2 1-4-1-2-1-2 2-2l4 1v15a1 1 0 10-1 2l2 2 1 2c2 2 1 3-1 2-1 0-2 0-3 2l-2 3c-2-1-11 8-11 9 0 2 4 1 5 0l4-2 4 1-1 5 1 7c1 0 2 1 2 3l1 2v-6c0-6 2-7 6-3 2 1 2 1 0 5a57 57 0 00-5 14l2 4c2 1 2 3 2 5l-1 2 2-2c2-2 4-2 2 0l-1 5c0 3 0 3 1 1a2 2 0 114 1c-3 2-2 7 1 7 2 0 4-6 3-8l-1-18v-47c0-3-1-5-5-8-3-2-4-4-3-5l-2-3-4-1h-3l-4-1c-2 1-2-6 0-7l1-2-2 1c-3 2-5-4-3-9 2-3 2-3-1-4s-3-2 1-1c4 0 4 0-2-3l-3-2 3 1 5-1c1-1 1-1 2 2l3 4 3 1h-3c-2 0-4 3-4 6l1 1c3-6 5-7 7-3l2 2v-4l-1-6c-3 0-7-12-4-12l2 5c1 5 3 5 4-2l1-5 1-3 2-6v-4c-1-1-1-1-2 1l-1 1c0-2 1-4 3-4 2-1 2-2 1-5v-9l1-7v-2h3l1 2 1 1c1-1-1-6-3-5-3 1-4-2-5-8 0-4 1-5 1-3 1 2 1 2 2 1 0-3-2-4-4-3l-3-1c-2-2-3-2-2 0l-1 1-2-2-1-1c-2 1-2 0-2-2s0-3-1-2l-2-1c0-2 1-2 2-1l2-1 2-2 1-1 2-1v-5c-1-10-1-10 3-11l3 1-1 1-2 1 4 23 1-2c-1-4 0-8 1-7s2 0 3-3v-4l1 4v-19c-1-10-1-12-3-15s-3-5-1-5c2 1 4-1 4-2l-4-2h-5c-2-1-2 0-1 4l-1 5-2 1 1 1 1 1-2 1c-2 0-3 4-1 4l1 4c0 3 0 3-3 3-6 0-10-5-7-8 1-1 1-1 1 1l1 2c3 0 4-23 1-30-1-4-2-2-2 3m-160 3c2 1 2 2 1 3l-1 14h1v-3l2-1c2-1 2-4 0-3l-2-2 1-2h1l3-1c2 0 2 0-1-3-4-4-8-5-5-2m-15 3l-1 5-2 4-2 4c-2 3-2 5 0 3h3l3 1c1-1 2 0 2 1h-4l-4 1 2 1 3 1c2 1 6 1 7-1v-2h-2l-3-4c-4-4-4-4 0-4 3 1 3-1 0-3-2-1-2-3 1-2l1-1-2-3-1-2-1 1m116 9l2 3c1 0 2 1 2 4l2 5 3 4c1 2 1 2 2-1v-14l-2-3c-1-1-1 1-1 4l-1 7c-1 2-1 2-1-1l-1-7a3 3 0 10-5-1m15 0c-3 5 0 17 4 17 3 0 3 1 2 5-1 3 0 9 2 7v1l-1 1-2 2c0 2-1 2-2 1-2-2-1 2 2 4l2 3 2 2 1 3c0 3 0 5 3 8l4 5 2 2v-2a3 3 0 114-1c1 6 3 8 3 3 1-2 1-2 1 1 0 7 1 2 2-7 0-7-1-9-2-9s-4-4-4-7l2-2c3 0 2-2 0-2h-2l-2 1-2-2a3 3 0 10-5 2l-1 4c-2 0-2-1-2-4l1-5 1-3c-1-4 2-5 3-1 1 1 1 0 1-1 0-2-1-4-3-5-2-2-2-2-1-3l1-2-3 2c-1 1-1 1-1-1 0-3-3-4-4-2a1 1 0 11-2-2v-1c-2 0-2 0 0-5l2-7h-6m-569 7l-8 3-4 2-3 1-2 2-4 4-2 1-2 1-7 3c0 3-1 3-1 0 0-4-1-4-2-1 0 2-2 3-4 4-6 2-8 4-8 8l1 6v2c-2 1-3 8-1 10 2 1 5 1 6-1l-2-1c-3 1-4 0-3-2h6l7-1 2-2h-2l-5 1 2-1c2-2 5-3 7-3l4-2 8-1 6-1c-2 0-1-2 1-2l2-3 3-1c2 1 3 0 6-2 3-3 3-3 1-2l-7 1-3 1-2 1c-2 0-6 3-6 4h-4c-4 0-7 1-16 5l-4 2-2-2-3-3 3-1 2-1a15 15 0 0112-5l4 1c1 2 2 1 1-2-1-2-1-2 1-2 1 1 3 0 4-1l4-2c3 0 2-3 0-5-1-1-1-1 1-1 2 1 2 0 3-1 0-2 3-3 5-2 3 1 3 1 3-1l3-6c2-2 2-3 1-3l-2 1m553 2v6c-1 2 0 4 2 3l2 1h3c1-2 1-2-1-4-1 0-3-2-3-4-1-3-2-4-3-2m37 3c-2 2-2 13 0 17 2 2 2 2 2-8l-1-11-1 2m18 3v4l1-2c2-2 1 7-1 9-1 1 0 3 3 3 2-1 7 1 7 3h1l-2-4c-3-2-4-4-5-8 0-5-2-7-4-5m-47 5c-3 1-4 2-2 7l1 6c0 4 0 4 3 4 2 0 2 0 1 1l-2 2-2 2-1 3h1l3-3c2-1 3-2 3-9l1-9c1-2 0-3-2 0-2 2-3 1-2-1 2-3 1-4-2-3m-132 7l1 1c3 0-1 2-4 2s-3 0-2 1l2 1 2 1h2c0 2-2 3-6 2-3 0-3 0-3 3 0 4 3 4 6 1l4-3 2-1c-2 0-1-2 1-2l1-1-1-1-2-3c-1-3-3-4-3-1m-71 7l-2 3h2l1-1c-1 3 49 4 50 2 1-3 2-3-11-3l-24-1h-16m-117 8c0 2-1 3-3 2l-2 1 2 1c1 0 2 1 2 3s0 2-4 2l-6-1v-1c1-2 1-2-4-2l-7-1c-2 0-2 0-2 2l1 3 1-1 3-1c2 0 2 0 1 1v1l2-1h2c0 1 5 2 11 2 10 1 11 1 11 4 1 2 3 2 7 1 2 0 1-3-2-3l-1-1h3l3-1-4-1c-1 0-2-1-2-3l-1-3-1 2c-1 2-2 3-5 2-4 0-4-1-3-5v-3c-1-1-1 0-2 1m36 7c-10 0-9 2 1 2 6 0 8 0 7 1h3c5 0 6-2 1-2l-5-1h-7m338 6l2 10 1 6 3 2c4 0 5-6 1-9h-1l-3-1-2-2 2-1h3l-3-5-3-4v4m-593 1c-1 1-1 1 1 1 2 1 2 6 1 7v1c2 1 2 0 2-2s0-3 2-3c4 0 7-4 4-4l-2 1c0 1-4 1-4-1h-4m482 2l2 5 2 4 2 3 2 4v5c-3 3-8-1-6-5l-1-2-1 4-3 4-1 4c0 3 0 4-2 5-2 0-3 4-2 7l1 5 1 3c3-2 4 1 3 6v8c1 3 1 3-1 4s-2 1 1 1 4 0 4 2l2 2c2 0 1-4-2-6-2-2-2-2-1-3h1l3 1c4 0 8 2 8 4l-2 1c-4-1-4-1-1 2 3 2 5 3 4 1 0-2 2-3 4-1 1 2 5 1 5-1l-1-3-1-2c-1 1-2 0-2-7l-1-8 3-8 1-4 1-4 1-2 1 2c1 2-1 7-2 7v1c0 2 2 1 2-1h1c0 1 1 1 3-1 2-1 2-5 0-4l-1-6 1-8v-6c-1-1-1 1-2 3 0 5-2 4-2-1-1-4-3-6-3-2l-1 1-1 1 2 1 1 1-1 1h-1l1 1 2 7c0 3-3 5-3 3 0-1 0-2-1-1l-1-2-1-2c-2 0-3-2-3-5l-2-6c-1-3-2-6-1-9 0-5-1-6-4-3-2 1-2 1-4-1-3-3-5-3-3 0m32 6l2 6c2 1 2 2 2 5v3l1-1h3c3 1 5 0 3-1h2c3 0 3 0 4-2l2-2v-1l-1-5c0-3 0-4-3-4-4 0-6 3-3 4 2 1 3 3 1 3l-3 2-2 2-6-12c1-1-1-2-3-2l1 5m-501-1a3 3 0 01-4 2l-1 3-1 2-1 1-1 1c1 1 5-2 5-3l2-2 7-1-3-2c-3 0-3 0-1-2l1-1-3 2m-24 0a7 7 0 00-1 6c0-2-1-2-3-2l-2-1-2-2-1 1c2 5 2 6 1 6-1-1-3 0-4 1l-3 1-2 2-1 2-2 3c0 2 0 3-1 2l-2 1c-1 2-4 3-4 1l-2 1c-3 2-2 9 1 9v-2h1c1 1 12 2 15 1 1-1 1-1-1-1-3 0-2-1 3-3s6-6 1-5c-3 0-3-1 0-4 3-2 5-1 5 2l2 4v-7l2-2 1-1 1-2c-1-3-1-3 2-3 1 0 2 0 1 1h2c2-1 4-7 3-7l-1 1c-2 2-7 1-7-1 1-2 0-3-2-2m-33 10l-3 1c-2 0-5 2-5 3h1l3 1 2 2 4 1 2 1-1-2-2-3c0-2 0-2 3-1h3l4-2c4 0 4 0 4-2-1-1-14-1-15 1m572 5l2 2 2 1 1 2c2 0 2 1 1 1v5c0 2 0 3-1 2l-2 1a13 13 0 001 9l2 2 4 1-1-1c-1 0-3-8-2-9l1 2c2 1 2 1 2-4 1-5-1-12-3-13l-1 1v1l-1-2a3 3 0 00-5-1m13 2c-2 0-3 3-1 5l1 3v2l1 3c0 3 3 2 3-1 1-4 0-12-1-13l-3 1m-24 2l1 3c0 2 4 3 6 2 1-1 0-5-1-5v-1l-3-1c-2 0-3 1-3 2m-421 1v4a15 15 0 01-11-3c-1 1 0 5 1 5 3 2 7 2 9 0l3-2a1 1 0 101-1v-3h-3m-100 3c-2 1-2 1 1 3 3 1 3 1 2-1v-2l1 1h3c3-1 3-1 4 1h6c3-1 3-1 1-1l-5-1c-2-3-11-3-13 0m-57 2c-3 1-4 4-2 4l1-1a1 1 0 113 1 1 1 0 103 1l2-4h2c1-1 1-1-1-1l-4-1-4 1m15 4c0 4 0 4-2 4-1 0-2 0-1-2v-2l-11 7c0 1 5 0 5-2h2c2 2 2 4-1 4-2-1-5 3-5 7 1 4-3 4-8-1-3-2-4 0-2 2v3a5 5 0 000 7v7c-2 1-1 5 1 5 6 0 9-2 8-4s-1-2 1-2h3l3 1 2 1 2-1 4-2 4-1h5c3-1 3-2-1-3-2-1-2-1 0-2 2-2 2-6 0-7l-2 2c-3 3-6 3-7-1-1-3-1-3 2-2l3-1 2-2 3-1 3-2 1-1 2-1c1 1 2 0 2-1 1-1 2-2 5-2 3-1 8-5 5-5l-1 1-5 2-4 2c-2 2-3 1-3-1s-1-2-4-2h-8c-1 1-1 1-1-1l-1-3v-3l-1-2v5m604 0l-2 2c-3 0-4 2-4 9l1 4 1-4 1-3v3l1 2c2 0 2-5 0-6-2 0-1-2 1-2 3-1 5-4 3-6-2-1-2-1-2 1m-79 0l1 2c2 0 3 4 1 4-1 1-1 2 1 3l3 3c0 2 0 2 1 0s-1-11-3-11l-1-1h-3m67 6a10 10 0 000 6c0-2 2-1 2 1l-1 2v1c1 2 0 3-1 2-2 0-4 5-3 6h1c0-2 2-1 3 1s1 2 1-2l1-5c2-1 0-12-2-12h-1m-537 4l2 1 3 1 5 2c5 0 5 0 4-3-1-2-3-3-3-1l-2 1c-2 0-3-1-3-2l-3-1c-2 0-3 1-3 2m-9 4c-3 2-2 4 3 3 5 0 10-3 8-3-4-2-9-2-11 0m217 0l-1 3v8c1 1 3 0 5-1 4-2 5-2 6 0 2 2 3 6 1 6l-2 2h4l16-1c2-1 2-1-2-1h-5a5 5 0 010-7h-1c-4 2-12-2-12-6 0-2 0-3-3-2l-3-1c-1-2-2-2-3 0m55 0v7l-1 3-1 2c-2 2-2 2 1 2l3 3v-2c0-3 0-4 2-6l3-3 1-3 2-2h-2l-3 1c0 2-3 1-4-1l-1-1m-102 1c0 2-4 3-5 3h-3c-2-1-2-1-2 1 0 3 3 7 6 7s3 8-1 11l-2 5-1 4 3-1 3-1c0-1 1-4 3-4l1-1 1-1c1 1 2 0 2-2v-2l-1 1-1 1-1-1v-1c-2-2-1-5 1-7 3-2 3-4 0-5s-4-4-1-4l1-1c0-2-2-3-3-2m-196 4l-6 2c-2-1-2 0-1 1v3c-1 0 0 2 2 2 1-1 1 0 1 1 0 3 7 1 8-3 1-2 1-2-4 0-2 1-1-2 2-4 4-4 3-5-2-2m226-1l-5 1-5 2h3l4 1 1 2h6l8 1a2 2 0 10-2-3 1 1 0 11-1 0l-1-1v-1c2-1 1-1-4-1l-3-1h-1m-205 1h-2c-2 0-2 0-1 2 2 3 1 6-1 7l-1 2 2-1 3-2c2 0 2 0 0-3-1-3-1-4 2-2h6c1 2 4 0 4-1l-2-1h-4l-2 1-2-1-1-2-1 1m451 6c1 7 2 9 4 7l1-1-1 3a3 3 0 102 1l-2-7c-1 0-2-1-2-3-1-4-3-4-2 0m162 0c-2 2-3 8-2 10l1-1c0-2 3 1 3 3v-5c0-10 0-9-2-7m-141 3c0 8-1 14-3 13-1-1-1 0-1 8 0 5 1 8 2 9v-2c0-2 3-4 4-2h2l-1-2c-2-1-2-4-1-5 3 0 3-4 1-6-1-2-1-5 1-5v-1l1-2a7 7 0 000-7c-1 3-2 4-4 1l-1-2v3m-428-1l2 1 1 1h-9l-2 1 2 3c2 2 2 2-3 2v1l-1 1v4c2 1 8-2 8-4 1-3 5-5 9-5 3 0 3 0 2-2s-1-2-3-2l-3-1a2 2 0 00-3 0m-56 2h-2c-1-1-2-1-4 1l-6 2c-4 1-6 3-6 5l2 1h1c-4 3-2 5 3 3l9-2 5-2c1-1 1-1-1-1a23 23 0 01-9-1c3 0 9-3 10-6 1-2 0-3-2 0m42 1l-7 5-7 4-4 3c-13 4-13 5-13 7 1 1 0 1-1 1h-2l-4 1-4 2-2 2v-3c0-3 0-3-2-1l-2 3-1 1-8 3c-1 1-3 2-5 1l-2 1 1 1c2 0 3 0 3 2l1 1c2 0 3 1 1 3-3 3 2 5 6 2l1 1c0 2 3 3 5 1h2c1 1 2 1 9-3l18-9c9-5 12-7 11-8l-4 1-7 3-3 1-2 1-5 2-5 1c-2-1-4 0-3 2v1h-3l-5 2c-7 4-10 2-6-2 2-2 3-3 7-3 5 0 6-1 4-3-3-1-1-2 2 0h3c0-1 1-2 3-2 5 0 19-7 17-8s0-4 3-5l4-3 7-4 4-4c0-2-3-3-5-1m169 3l1 1 1 1h-2c-2 0-3 0-4 2s-2 2-6 3c-5 0-9 1-9 2l11 3 3 1c1 2 1 3-1 3-2-1-5 0-3 1h4l1 1 2 2 2 2 1 1c0-2 4-3 6-2 3 1 4 2 2 4-1 1-1 1 1 1 3-1 3-5-1-6-1-1-2-1-1-2a5 5 0 017 3l1-1c0-2 6-2 8 0 2 3 4 2 3-2l1-2 1 2c-1 1 1 1 5 1l2 1 1 1v-3c0-2 0-2 4-2h6c2-2 5 1 3 3l2 1v-5c-1-2 1-3 3-1h1l2-1c2 0 3-1 0-4-1-1-2-2-4-1h-4c-1-1-2-2-3-1-2 1-8 1-8-1l-2-1-2-1-2-1h-3c-2-2-6-1-6 1l1 2 1-1h2l1 1 4 1c5 0 8 2 6 4l-2 3h-3c-5-3-6-3-7-2h-1l-2-2-2-2c-1-3-9-6-9-3l-1 1v-2c1-2 0-3-2 0-2 2-2 4 0 4a2 2 0 11-2 3h-2l-1 1a1 1 0 101 2 2 2 0 010 3l-2 2-3 1v-3c1-1 0-3-2-2l-1-1 1-1v-1l-1-2c0-1-5-1-6 1-1 1-4 0-4-1l8-4h7c4 0 7-2 3-3l-2-1a4 4 0 00-4-2m-241 4l-4 1c-4 1-5 3-2 4 1 0 3 0 4-2 2-1 5 1 6 3l1 1h3c1 0 2-1 2-4v-3l-3 3c-1 2-2 2-2 1 0-3-3-5-5-4m201 2c1 1 2 3 1 4 0 2 2 5 4 5 2-1 2-2 2-5 0-4-1-5-3-3h-1l-3-2h-2l2 1m335 2v3c0 1-6 2-9 1v1l2 3c0 2 1 2 4 2s4 0 4 3l2 4v-1l1-1 2 1c1 1 1 0 1-1 0-3 0-3-3-3h-1v-4c-1-2-1-2 3-2l4-1h-4c-3 0-6-2-3-2 1 0 1-4-1-5l-2 2m-464 3l-1 8c0 3 0 4-2 4l-1 1-1 2c0 2 0 2 2 2 1 0 2 0 1 2 0 2 5 3 7 1 1-2 8-6 10-5 2 0 3-1 0-2l-5-1-3-1-1-2-1-4c1-4 0-7-1-5h-2v-4l-2 4m-92-2l-2 3v1l-1 3c0 3 0 3 3 2 5 0 10 1 8 2-1 1-1 1 1 1 2 1-1 3-4 2a2 2 0 10-2 3 1 1 0 110 1l-1 1c1 2 3 2 5 0l6-5c3-3 4-4 3-5s-1-2 2-3c3-3 2-5-1-3-2 2-3 2-4 1l-2-1c-1 1-1 1 0 0l-3-1H9c3-3-1-4-6-2m479 1c-1 2-2 3-3 2-1 0-1 1 1 3l2 6c1 2 2 3 4 3 2 1 2 1 1 2-2 2-2 3 0 3h3c2 2 1-1-1-5l-2-8v-6c0-3-4-2-5 0m-340 4c-2 3-5 4-5 2l-3-1c-3 0-3 0-1 1v2l-1 1 2-1c2-1 2-1 3 1 0 3 3 4 3 1 1-2 8-2 11 0l1-1-3-1v-4h-1c-1 1-1 1-3-1l-2-2-1 3m227 1l-1 4c0 3 1 4 4 3h3l3-1 4-1c2 1 2 1 1-1-2-1-4-2-10-2l-1-1c0-2-2-2-3-1m308 2c-1 3-1 3 1 5l1 1c-3 0-2 1 0 3l2 3c1 4 2-3 2-11 0-5-4-6-6-1m-479 3c-1 2-1 2-4 2l-2-1 2 1c3 2 4 2 2 5s0 6 2 4c1-3 2-2 3 2 0 4 0 4-3 3-3 0-5 3-3 5 1 2 3 1 2-1 0-2 0-2 2-2 6 1 9 0 9-2v-1c-3 0-4 0-4-2 1-1 0-2-1-3a4 4 0 010-6l1-2 2-2c0-3-8-3-8 0m310 2l-1 5c-1 0-2 3-1 4 1 2-2 6-4 5-2 0-2 0-2 3l-1 4 1 2c3 4 3 10-1 7l-1 1v1c2 0 3 2 3 6l1 6 2 4c0 2 1 3 2 3l1 2 2 2c2-1 3 5 1 6l-1 3-2 2c-1 1 0 1 1 1 2 0 3 0 2-1l1-2 1-6c0-4 1-6 2-6l1-3 2-1c1 1 2 0 4-2 2-3 3-5 1-5l-1 2-1 2-2 1c-2 0-2-1-2-4 0-4 0-5 2-5s2 0 1 1v2c1 1 3-3 3-6l2-2a2 2 0 001-3c2 0 2-3-1-6s-5-2-3 3c1 4 0 7-1 3-2-3-3-1-3 3 1 3 1 3-1 3s-3-1-3-3c0-3 0-3 2-3 1 1 1 1 0 0l-1-4c1-2-2-7-3-5-1 1-1 1-1-1l1-4v-5c-2-3-2-3 0-5v-3l-1-2-1-3c-1-1-1 0-1 3m43-1v4c1 4-3 5-5 2l-2-2 1 3v4l-3-1c-3-1-4-3-2-3l1-1c-2-3-5-1-4 3a5 5 0 01-3 6l-1 5-2 6 2 5 3 4c2-2 0-8-1-8v-1l1-6c0-6 1-6 4-1 3 4 4 3 4-2v-5l3 8c0 1 0 3 2 4l2 2-1-4c0-3 0-3 1-2 3 1 8 1 6-1v-5l2 3 1 2 2 1c1 2 1 2-1 2l3 1c4 1 5 3 3 4-2 0-2 2-1 2 2 0 3-4 2-6l1-3c2-3 0-8-2-8-5 0-7 4-3 5l2 2c-2 1-6-1-7-5l-2-4-1-1h1l1-3c-1-3-6-7-7-6m-216 1a12 12 0 01-7 2v3l-1 4c-2 3-2 8 0 8l1 3c0 2 5 3 7 1s7-4 9-4l3-2 2-2 1 1v1c2 0 1-4 0-8v-2l1-2h-1l-3 1c-2-1-6 1-6 3l-2 2-2 2-1 2c-1 0-2 1-2 3v3l-1-3a11 11 0 016-12l-1-1c-2 0-2-1 0-3h-3m121-1l2 4 1 5c-1 3 1 8 3 8 3 1 4-1 3-5 0-4-2-5-2-2l-1 3c-1 0-2-3-2-7s-1-6-3-6h-1m-97 3v4c1 1 0 4-1 4l-1-3c0-3-1-4-4-3l-1 3c1 4 2 5 3 3v4l1 6c1 0 2-2 2-5l2-2v9l1-4c1-3 3-4 3-1l1 2 1-1a1 1 0 112 0l1 2 1-2c0-2-1-3-3-4s-2-1-2-7c1-7 1-7-2-7l-4 2m-191 1l-8 2a12 12 0 00-11 3l-11 5-2 1h-9c-2-2-1-3 4-3l5-1c0-1 1-2 3-2 3 0 9-3 9-4h-2l-3 2-5 1-2-1c1-1 1-1 0 0l-6 1c-7 0-10 1-10 3h3c2 0 2 0 2 2-1 2 0 3 1 4 3 2 0 4-5 2-3-2-10-2-10 0l3 1c6-1 10 4 6 7-5 6-7 6-8 7l-2-2c0-3-2-2-2 1 0 2-2 3-3 3-2 0-2 1-2 2l-1 2-1-1-1-1a3 3 0 01-5-2l-2 1c0 1-1 2-2 1l-1 2-2 4-2 1c0 2-2 1-3-1 0-3-5-2-6 1 0 2-2 3-2 1s0-2-5 0c-5 3-10 2-11-2-1-2-1-2-3-1-4 2-2 5 5 7 5 1 8 4 6 4l-3 2-5 3c-2 0-3 2-4 3-1 2-1 3-2 2l-4 1c-4 2-5 2-5 0l-3 1c-3 2-3 2-4 0-2-3-5-4-5-2v1c1-1 4 2 4 4l2 2v7c2 2 0 4-2 3-2 0-2 0-2 2 1 1 0 4-2 4a4 4 0 010-4l1 1c0-4-2-4-5-3l-5 2-2 1a6 6 0 01-9 0v2l-1 2c-1 1-1 1 1 1l2 2h2l3-2v5l-1 2-1 2-1-3c0-2 0-2-1-1l-2 4-1 1c-2-1-6 5-5 6 1 3-1 4-2 2-1-3-4-2-5 1 0 2 1 2 8 2 3 0 4 0 3 1-2 2-1 3 1 1l3-1c1 2-2 4-4 5l-3 1 2 1c3 0 5 2 5 6 0 2 1 3 2 3 2 0 1 2-3 3s-6 0-3-1v-2l-1-1c2 0-1-2-2-3-7-1-8-1-8 1s1 2 2 2l3 1H2c-2 0-2 0-2 8 0 6 0 7 2 7l2-2c0-1 0-2-1-1-3 1-2-1 0-2h2c-1 1-1 1 1 1 1 0 2-1 2-3l1-2v1c0 1 1 1 4-1 4-2 11-1 8 1l-1 2c0 2 3 1 5 0l3-2 4-2 4-1v3l-1 2 4-3c3-3 4-3 7-3l16-3h2c1 2 16 1 16-2h1c0 3 12 3 13 1 0-2 1-2 3 0h12l4-1-5-2-8-1c-3 0-4-3-1-3H83c-18 0-20 0-16-3l2-3-9 1h-2c-2 0-4 3-3 4l1-1 2-1 2 1c0 1-4 2-7 1l-8-2-9-2c-2 0-3 0-2-1v-3h-5c0-2 6-8 6-6v2c0 3 3 1 5-3 1-2 1-3 3-3 2 1 8 0 8-2h-3c-5 1-7-2-3-4l3-3 3-1 3-1 3-2 5-2 3-1c2 1 3-4 2-6-2-2-3-2-9-1-5 1-6 1-4-1s1-3-1-3c-3 0-5-3-4-4l1 1 3 1c3-1 4-1 4 1-1 2 8 2 10 1h1l2 2v3c0 4 1 5 3 4l7-1c4 1 6 0 8-1 4-2 4-3 0-2h-3l3-2 4-2-6 1h-5l2-2 4-2a54 54 0 0022-4l4-3c0-1 4-3 6-2 3 1 4-3 2-5v-1l-3-2-1 2 2 1 1 1c-1 2-8 2-10 0l-3-2v-1c2-2 1-3-1-3l-2 1c0 3-2 3-3 2h-8c-1-2-1-5 1-5v1l1 1c2 0 1-3-1-5-2-1-2-3 0-6 2-2 4 1 5 5 1 6 3 6 2 1 0-2 0-2 2-1l3-1-1-1c-3 0 0-2 5-4 4-1 8-2 10-4l4-3 3-2 6-5 3-4c1-2 1-2 3-2 1 1 2 0 3-1l1-1v2l1 1 2-1 3-1c4 1 4 3 1 2-2 0-2 0-1 1h-4l-6 1 4 1 5 1h4a8 8 0 0110 0 6 6 0 11-5 10c0-2-2-1-2 1-1 2 0 3 9 2 8-1 10-1 10 1h4c2 0 3 0 3 2l2 1 4-1v-1l-2-1c-2 1-4-2-2-2v-2c-2-1 1-5 4-5 2-1 4-6 1-6l-2 2c0 2-2 1-3-2l-2-3-3-6c-1-4-2-4-5-6-6-1-7-4-2-4l1 1v1l1-4c-1-1-3-1-5 1m7-1c0 2 3 5 6 5 1 0 2 0 1-1l3-1c3 1 4 1 3-1l-2-1h-5c-5-2-6-2-6-1m75 0c-2 2-1 2 2 3l4 4c-1 1 0 2 2 1 4 0 4 0 2-3l-3-3-4-2h-3m28 1l-2 2-3 3c-2 1-3 1-2 2l3-1 7-2h6l-2 2c-2 2-2 2 1 2s5 1 3 2c-1 1 0 1 1 1l2 1 5 2c6 2 8 3 6 4-1 1-1 1 1 1l2-1c0-2 3-1 3 1l-2 2 5 9c4 5 8 5 8-1l-1-4c-1-1-1-1-1 3v2l-1-2c-3-4-3-7-1-7l-1-2c-2-1-3-8-1-8l1 2c0 1 0 2 3 2s4-1 4-4c0-5-1-5-3-3h-2v-6l-3 2-2 2-2 1c-2 0-2-1-2-3 0-1 0-2-2-2-1 0-2 1-2 3l-2 2c-2 0-7-5-7-6 0-2-13-2-17-1m-253 4l-4 2-1 2-1 3c-1 1-1 2-2 1l-1 1 1 1 1 1-3 1c-2-1-3 0-3 1 1 2 2 3 4 1 4-4 5-4 7-3 8 3 13 4 16 2 1-1 1-1-2-1l-3-1-1-7-1 3-1 3-1-1c0-2-1-2-7 0-2 0-2 0-1-1l5-3c5-1 4-6-2-5m140 3c0 2-2 3-2 1s-3-1-4 1l-3 1-4 2c-2 2-2 2 4 2 5 0 7-1 8-2l7-3h5l-3-2h-5c-1 1-1 1-1-1-1-1-1-1-2 1m76 2c-2 4 2 5 8 2l3-3h-4c-5-1-6-1-7 1m-227 0l-3 2-3 1c-1-1-7 4-7 5l2 1v3c-3 2-2 3 2 3l5-1c1-1 0-4-1-4-3 0-6-2-4-3l4-1 3-3c0-2 0-2 1-1 2 1 5 0 3-2h-2m620 2c-2 3-1 11 2 13 2 1 2 1 1-1-2-2-2-3-1-4s2 0 3 4l2 3v-5l-2-6c-1-5-3-6-5-4m-46 3l-2 2c-2 0-2 0 0 1l1 1-1 6 4-2c4-2 5-4 3-3-3 1-6-2-3-3 2-1 2-2 1-3-2-2-3-1-3 1m-347 2v1l-2 2-1 1c1 1 0 2-1 4l-2 3 1 2 3 2c2 1 3 5 0 5v2l4 1h4l-4 2c-5 3-17 2-22-1-4-2 1 2 7 6 8 5 20 6 13 1-1-1-1-1 1-1l2-2c0-3 3-4 9-4l3-1 2-2h3l2-1 1-1 1-1-3-1c-1 0-2 0-1 1l-2 1c-2 0-3 1-3 2l-3 1c-2 0-2 0-1-2 3-3 1-4-6-5-5-1-7-2-7-3h13l8-1c7 1 7 1 7-1l-2-2-1 1h-2c-2 0-3-1-3-2s-8-2-12-1c-2 1-2 1 0 1s2 0 1 1c-1 2-6 0-6-2-1-2 0-3 3-3h4l-4-2c-3-2-4-2-4-1m-38 1v2l1 3c-1 1 1 2 4 3l2-2 2-3v-2l-1 1-1 1h-3c-1 2-2 1-2-1 1-3-1-4-2-2m258 0c-1 0-2 1-1 2l-1 6c-2 4 0 9 4 9l1 1 4-7-2-4-2-5c0-2-1-2-3-2m-45 2v3c0 1-1 2-3 1-2 0-2 0-1 2 2 2 1 4-3 4-2 0-2 0 0 2l4 1h4c2 1 5 0 5-2l1-1c2-1 2-5 0-5s-2-1-2-3c1-3 0-3-2-3l-3 1m-61 0l2 6 1 5-5-2-1-1c-3 0-7 0-5-1l2-1-2-1-3 1-2 2h-2l-2-1c-2-1-6 2-6 4s-1 2-2 2c-1-1-2 0-3 1s-1 1-1-1v-3h2c0 2 2 0 2-3 1-3 1-4-4-1-4 1-4 1-3 5l3 5 1 2 2 1c11-3 20-3 21-1l6 8 4 8v1l2-1 2-1 3-2 3-2c2 1 2 1 0-2l-1-4v-1l-1-2 2 1 6 1c4 1 5 2 1 3-3 1-3 1-2 5 1 2 5 3 9 3 2 1 3 6 2 7h27c-2-1-5-2-6-1l-2-1h-4c-3 0-11-7-9-8v-3l1-3c2-1 1-3-1-3h-1l-1-4c-1-2-1-1-1 2l-2 2-2 1h-1l-2-2-3-1h-7c1-1 0-2-1-2-2-1-1-3 1-3 4 0 4-4 0-5-3-1-4 0-4 3 1 1 1 2-1 1l-2-1-2-1c-2 0-4 4-3 6 1 1 1 1 0 0-1 0-2-1-1-2l1-8-1-1-1-3-2-2-1-1m-179 3v2c1 2 0 3-3 5-6 2 0 4 5 2 2-1 3-4 2-6v-3c0-2-3-3-4 0m-143 1c-1 1-2 2-4 1-1-1-2 0-3 1h-3l-3 2c-1 1-1 1-2-1 0-2 0-2-1-1l-3 2-3 3c0 1-3 3-8 4l-2 4c0 3 0 3 2 2v-2c-1-1 0-1 2-1l5-2c1-2 4-3 6-3l6-2 6-3 6-3c3-2 2-3-1-1m521 4c-2 2-3 5 0 5h1c0 2-3 2-5 0-3-3-3-3-2 2 0 3 0 3-2 3l-8-1 4 10v3h-1c0-3-5-5-6-4-1 3 1 13 4 14 2 0 2 0 0 4-3 4-3 6 0 3 1-2 2-2 3-1a3 3 0 003 0l-1-2-1-4-2-2 2 1 3 1-1-2v-3l-2-3h1c2 2 3 1 3-1 0-4-1-6-2-5l-1-2-1-3c-1 1-4-2-3-3s6 2 6 3c-1 3 3 7 5 6l2 1 1 5c0 3-3 10-5 11l-1 3-2 4-2 3-1 2-1-1v-1l-1 2c0 2-5 9-7 8-1-1-4 1-4 2l2 1v1l-2 3c0 2-3 6-4 6v-4c2-5 2-6 0-6l-2 4-1 3c-2 0-2 0-1 1v2l-1 4c0 4 2 4 7 1l3-1-2-1-2-1 3-3 3-4a2 2 0 013-1l1 1 1-2v-2l1-1c0-2 1-2 3 0l4 1-1-2-3-2a9 9 0 018-5l-1-1c-2-1-1-3 1-2l2-1-2-1v-3l1-3 1-2 1-2c1-1 2-4 2-10l1-7 2 4c1 1 2 2 1 3 0 2 0 2 1 1s1-3-1-5c-1-3 0-6 2-8 1-1 3-10 2-11s-3 0-3 2l-1 1c-2 0-2-1-2-3 0-4-1-5-3-3m-104 6l-3 7c-2 2-2 3 1 5 2 3 2 3 0 4-1 2-1 2 1 2 1 0 2 0 1 1l-3 1h-2l4 1c4 0 8 3 8 6l1 3 1-2c0-2 1-2 2-2 2 0 2 1 2 2v4c-1 3-1 3-4 3l-2 1 1 3 2 3c3 2 2 5-2 5l-3-2-2-2-1 2c-2 3-4 3-4 0 0-2 0-2-1 1s-1 3-4 2c-1-1-2-2-1-7l-1-5-1 3-1 2-1-1-1-1c-2 0-2 1-1 6a8 8 0 010 8l-1 6-1 3-1-4-3-4-1-3-2-3-2-3h-2l-1-2c-2 0-1 3 1 7 3 4 1 7-4 9l-3 3c0 1-1 2-2 1-1 0-2 2 0 3v2l1 3v2l3 3 3 3 2 3v2c-1 2-4 0-4-2 0-3 0-4-1-3h-4c-1 1-1 2 1 2v2h-3l-3-2-3-1h-3c-3 1-4 1-4-3l-2-4-1-3c1-1-3-4-4-4-3 1-2 3 0 3l3 2h-4c-5 0-6 1-4 5l1 9-1-1-1-1-1 2c0 3 10 1 11-2 1-2 4-2 5 0h2l1-2c1-1 8 2 8 3a11 11 0 01-5 6v1l3 2c5 0 7 3 4 3l-2 2-2 1v1l1 2 5 1 6 1c0 1 12 1 15-1l2 1h12l31 1h30l-2-3-6-7c-3-3-4-4-1-4h2l-3-2c-2 0-2 0-1-2v-5c-1 1-3 0-4-1-4-3-4-4 0-4 4 1 7 3 7 5s0 2 1 1v-4c-2-2 2-6 6-5l-1-1c-1-1-2-2-2-5s-2-4-2-1l-2 3c-1 0-2-4-1-7s0-6-1-6l-1 2v5c-1 4 1 8 3 8 4 0 0 3-5 3-3 1-5 0-6-1-2-2-3-2-8 0-2 0-2-3-1-6s3-4 3-2 2-1 4-4c1-2 1-2 2 2l1 3 2-1 1-4 1-5c1-1 0-2-1-4-2-2-2-2-3 0-1 1-1 1-2-1l-2-2v2l-2 5-2 2v-3c0-3-1-4-5-6-4-1-6 1-4 5s0 6-4 3l-2-1 1 3 2 4c0 1-6 0-6-2v-2l-2-2v-3l1-4 2 1c3 4 3-1 0-7 0-2 0-2 2-1l2 3a2 2 0 002 2c-1-1 2-3 3-2 2 0 2-8 0-10l-2-2-2 4c-1 1-1 2-2 1l-2-1c-2 0-5-4-4-5 0-2 3-1 5 1h2l-2-2c-3-3-3-5 1-8 2-2 2-2 3-1l1-1-1-3v-3l-1-2c-1-3-4-3-7 0l-2 3-2-3v-5c1-1 4 0 4 2h2c3-2 3-2 1-2-1-1-2-2-1-3h-1c-1 1-1 1-3-1-8-6-9-8-10-7l-1-2c0-3-1-2-4 3m-26 2c-2 1-2 1-1 2l2 1c0 2-3 1-4 0-1-3-2-2-1 0 0 3 0 3-5 5l-5 4c0 2-5 3-7 1-1-2 0-5 2-5s3-1 1-3c-2-1-4 0-4 1 1 1 0 2-1 4-5 4 1 13 8 10l3 1h2l4-2h3c0-2 2-1 2 0a3 3 0 002 3c-1-2 3-4 4-3 2 2 3 1 2-2v-6c0-3 0-4-1-3l-2 1v3c0 2-1 2-6 2l-7-1c-2-2 1-3 6-3 4 0 5-1 5-2l-1-1 1-3c3-5 2-8-2-4m53 0v4l-1 2c-2 0-2 1-1 5s4 4 5 1l2-3 1-2-2-2-2-1v-1c2 0 2 0 1-2-2-3-3-4-3-1m142 1c-4 2-6 13-4 16 2 2 7 4 7 2l-1-1v-2c1-2 0-3-2-2l-1-1 2-4 3 4 2 2v-4l1-7-2-1c-2 1-2 1-2-2 1-2 1-2-3 0m-371 8l1 4c1 1 1 1 1-1l1-2c6-1 10-1 11-3 2-1-2-2-5 0h-5c-4-1-4-1-4 2m184-1l1 2c2 3 2 8 1 9s0 1 3 1l4-1-2-1-2-2c-1-2-1-2 1-2l3-1-1-1v-1l-2-1-4-2h-2m168 8c-2 1-1 2 1 1l2 1-2 1c-4 1-4 7-1 9 2 1 7-3 6-5l-2 1c-1 2-4 3-4 1l1-1 4-8h-5m-116 7c-2 4 1 12 4 11a7 7 0 00-1-10 2 2 0 00-3-1m109 4c0 1-1 2-2 1a1 1 0 100 2l1 1 3 1c2-1 2-1 2 1 0 3 2 2 3-1l-1-3-3-2-2-2-1 2m-413 0l-2 1h-3v2l2 4c0 2 0 2 3 2s3 0 3-5v-5l-3 1m346 1l1 2 1 1 2 1-2 1-4-1c-1-5-2 5-1 10 1 2 3 3 3 1l1-2 4-2 4-3 1-1h-2c-2 0-2 0-2-2l-2-4c-3-3-5-4-4-1m94 5l-1 2h-1c0 1 1 2 2 1v1c-3 1-2 3 0 3a4 4 0 014 4l8 1-3 1c-3 0-4 1-2 3h11l4 2-5-5-3-1h3c4 0 4-1 0-3-5-2-7-2-8 0s-6-1-6-5a25 25 0 00-1-5c0-2-2-1-2 1m-364 0c-2 1-1 5 1 5l2-1c0-3 1-3 8-2l6-1c0-1-14-2-17-1m-140 6v6c-1 5 0 6 7 6l11-1h4v-6c0-5-1-5-4-6l-17-4-1 5m390 1l-2 2c-2 0-3 1-1 3l1 2 2 3v2c-1 2-1 3 1 3l2-3c0-2 1-3 2-3v-3c2-2 1-4-1-4-3 1-4-1-1-2a2 2 0 10-2-1m100 8v14c1 2 1 2 1-1s0-3 1-2h4c4-1 3-3 0-3-2 0-3-1-4-3-1-5-1-6 2-5l2-1-2-1-3-2c-1-1-1 0-1 4m-272 0v21l6 1c11 3 10 4 10-10v-12l-6-1-8-2c-2 0-2 0-2 3m297 4v3l-3-1-4-2c-2 1 2 6 5 5 3 0 4 2 3 4l1 3 1 1 1 1c2 0 1-11-1-13l-3-1m-66 1c2 2 3 3 0 6-2 2-2 2-5 1l-4-1-1-1-2-1c-2 0-1 2 0 3 2 0 9 7 9 7l-8-4-2-2h-5l-2 1c-1-1-2 0-1 1l2 1 4 3c2 3 6 4 6 1h1v5c0 3-1 4-3 1s-5-4-4-2 0 2-2 2l-2 1-2 1-4 1h-8c-5 0-6 0-5 1l1 1 1 2c0 3 4 9 6 8v1c-1 1-1 5 1 5l3 5 1 4h14l1-4 4-9 6-28 2-4c2-2 1-6-1-6h-1m-485 3l-4 1c-2-1-8 1-8 3l-1 4-1-2c0-3-3-4-5-2h-2c0-2-1-2-2-1l-2 1c-1-1-1 0 0 0l-1 2-1 2 2 2c2 0 3 0 2 1 0 2 4 4 6 3l2-1 2-2c3-2 3-1 3 2-1 2-1 2 1 1l1-3c-2-2-1-3 1-2 2 0 3 0 3-2h2c2 2 16 4 16 2s-1-4-3-4v1c0 1-5 2-11 1-3 0 2-3 5-3 2 1 4 0 6-2l5-2 2-1h-4c-4 2-13 2-12 0l-2 1m140 1c-2 1-3 1-2 2l1 1-2 1c-1-1-5 1-5 2l4 1 5 2 2-1-2-1c-1-1-1-1 1-1l2 2c1 1 2 2 5 2l6 2c2 0 2 0 1-1v-4c0-3-1-3-6-3h-5l1-3c0-3-1-4-6-1m20 2v4c-1 1 0 2 1 3l-1 1-2 1 2 1c2 0 2 0 1 2-1 1-1 1 2 1 4 0 4 0 4-3-1-3 1-5 2-3l1 4c0 2 1 3 3 1v-2l-1-1h2c3 1 3 1 3-1l2-3-2-2-5-1c-1-1-2-1-2 1-1 2-3 3-3 1v-4c0-3 0-3-1-1-1 3-1 3-4 0l-2-2v3m344 2v3h5c3 0 5 1 5 2l-3 1h-3l2 1 4 1 1-2c1-5-5-8-11-6m40 1l-4 1c-2 0-3 0-2 1l2 2 3 3c4 0 5 0 3-2s-1-3 2-2c3 0 3 0 2-2 0-3-6-4-6-1m-523 7c0 2 6 5 12 5 4 0 2-3-3-5-9-2-9-2-9 0m361 2c-1 4 0 6 2 4l2-2c5 2 7 2 7 1l-1-2-3-2c-2-3-7-2-7 1m55 1c-2 1-2 1 0 1 2 1 3 3 1 3l-1 2-1 1-3 2c-2 1-2 2 4 8a30 30 0 009 7c-1 1 6 8 8 8s-9-24-13-28l-1-3c1-2-1-2-3-1m-307 1l-4 1 2 1h1c0-2 2-1 2 1 0 1 1 1 3-1s3-2 12-2h-16m469 1c-2 1-5 8-4 10 3 2 9-2 7-5v-7l-3 2m-509 1c0 2-1 3-5 4l-4 1 3 1c4 2 12 3 14 2l10-2a1211 1211 0 0017 0c7 0 10-3 3-3-2 0-3-1-3-3-1-2-2-2-4-2h-27c-4 0-4 0-4 2m257 0l-2 1c0 2 4 6 6 5s3-6 1-6h-5m155 0l1 2c1 0 2 1 2 3 1 1 1 1 2-1 0-2 1-3 2-3v3l1 3 1-3c0-3 0-4-2-4h-7m-33 1c-3 0-4 2-2 2l1 1-2 1v1c2 1 3 5 1 5-1 0-2 1-1 2 1 2 3 0 3-2 0-4 2-7 4-7 1 1 2 0 3-1s1-1-1-1l-3-1h-3m28 3l-3 1 4 3c4 2 4 2 6 1v-3c-1-3-4-4-7-2m-71 4l3 3a3 3 0 012 4l2 1c1 1 1 1-2 1h-4c-2 1 0 3 2 2l2 1c-1 1 0 1 1 1l3 1-3 1c-5-1-5-1 1 3 4 3 6 3 10 3h6l-11-11c-11-11-12-12-12-10m156 2l1 3v2l3 9 1-2-2-4 1-2 2 2c1 2 5 2 5 0l-3-4c-2 2-3 1-4-2-1-5-3-5-4-2m-334 6l-3 3 3 4 4 4v-7c0-8 0-8-4-4m-188 6l-2 1-6 2-1 2c0 2 1 2 6 2 4 0 6-1 6-2 0-2 0-2-2-1v-4h-1" tabindex="-1" itemprop="bold" style="fill-opacity: 0.91; fill-rule: evenodd;"></path></symbol></defs><use class="background" href="#-posters-1650603475164-background" fill="url(#-posters-1650603475164-background-gradient"></use><use class="light" href="#-posters-1650603475164-light" fill="url(#-posters-1650603475164-light-gradient" filter="url(#light-filter)"></use><use class="regular" href="#-posters-1650603475164-regular" fill="url(#-posters-1650603475164-regular-gradient" filter="url(#regular-filter)"></use><use class="bold" href="#-posters-1650603475164-bold" fill="url(#-posters-1650603475164-bold-gradient" filter="url(#bold-filter)"></use><use class="emboss" tabindex="-1" href="#-posters-1650603475164-light" fill="url(#-posters-1650603475164-light-gradient" filter="url(#emboss)"></use><use class="emboss" tabindex="-1" href="#-posters-1650603475164-regular" fill="url(#-posters-1650603475164-regular-gradient" filter="url(#emboss)"></use><use class="emboss" tabindex="-1" href="#-posters-1650603475164-bold" fill="url(#-posters-1650603475164-bold-gradient" filter="url(#emboss)"></use><defs><g class="gradients"><radialGradient gradientUnits="userSpaceOnUse"><stop itemprop="radial" stop-color="hsla(195, 1%, 60%, 1.00)" offset="0%"></stop><stop itemprop="radial" stop-color="hsla(213, 3%, 66%, 1.00)" offset="15%"></stop><stop itemprop="radial" stop-color="hsla(210, 4%, 65%, 1.00)" offset="30%"></stop><stop itemprop="radial" stop-color="hsla(207, 3%, 64%, 1.00)" offset="45%"></stop><stop itemprop="radial" stop-color="hsla(207, 3%, 65%, 1.00)" offset="60%"></stop><stop itemprop="radial" stop-color="hsla(192, 2%, 63%, 1.00)" offset="75%"></stop><stop itemprop="radial" stop-color="hsla(150, 2%, 60%, 1.00)" offset="90%"></stop></radialGradient><linearGradient gradientUnits="userSpaceOnUse" x1="0" x2="0" y1="0" y2="100%"><stop itemprop="vertical" stop-color="hsla(195, 1%, 60%, 0.75)" offset="0%"></stop><stop itemprop="vertical" stop-color="hsla(210, 3%, 65%, 0.75)" offset="15%"></stop><stop itemprop="vertical" stop-color="hsla(207, 3%, 65%, 0.75)" offset="30%"></stop><stop itemprop="vertical" stop-color="hsla(207, 3%, 64%, 0.75)" offset="45%"></stop><stop itemprop="vertical" stop-color="hsla(213, 3%, 65%, 0.75)" offset="60%"></stop><stop itemprop="vertical" stop-color="hsla(200, 2%, 63%, 0.75)" offset="75%"></stop><stop itemprop="vertical" stop-color="hsla(150, 2%, 60%, 0.75)" offset="90%"></stop></linearGradient><linearGradient gradientUnits="userSpaceOnUse" x1="0" x2="100%" y1="0" y2="0"><stop itemprop="horizontal" stop-color="hsla(200, 2%, 60%, 1.00)" offset="0%"></stop><stop itemprop="horizontal" stop-color="hsla(213, 3%, 66%, 1.00)" offset="15%"></stop><stop itemprop="horizontal" stop-color="hsla(210, 3%, 64%, 1.00)" offset="30%"></stop><stop itemprop="horizontal" stop-color="hsla(207, 3%, 65%, 1.00)" offset="45%"></stop><stop itemprop="horizontal" stop-color="hsla(180, 2%, 60%, 1.00)" offset="60%"></stop><stop itemprop="horizontal" stop-color="hsla(163, 2%, 57%, 1.00)" offset="75%"></stop><stop itemprop="horizontal" stop-color="hsla(160, 2%, 54%, 1.00)" offset="90%"></stop></linearGradient></g><g class="generated gradients"><radialGradient id="-posters-1650603475164-background-gradient" gradientUnits="userSpaceOnUse"><stop stop-color="hsla(195, 1%, 80%, 1)" offset="0%"></stop><stop stop-color="hsla(213, 3%, 80%, 1)" offset="15%"></stop><stop stop-color="hsla(210, 4%, 80%, 1)" offset="30%"></stop><stop stop-color="hsla(207, 3%, 80%, 1)" offset="45%"></stop><stop stop-color="hsla(207, 3%, 80%, 1)" offset="60%"></stop><stop stop-color="hsla(192, 2%, 80%, 1)" offset="75%"></stop><stop stop-color="hsla(150, 2%, 80%, 1)" offset="90%"></stop></radialGradient><linearGradient id="-posters-1650603475164-light-gradient" gradientUnits="userSpaceOnUse" x1="0%" x2="0" y1="0" y2="100%"><stop stop-color="hsla(195, 1%, 60%, 0.9)" offset="0%"></stop><stop stop-color="hsla(210, 3%, 60%, 0.9)" offset="15%"></stop><stop stop-color="hsla(207, 3%, 60%, 0.9)" offset="30%"></stop><stop stop-color="hsla(207, 3%, 60%, 0.9)" offset="45%"></stop><stop stop-color="hsla(213, 3%, 60%, 0.9)" offset="60%"></stop><stop stop-color="hsla(200, 2%, 60%, 0.9)" offset="75%"></stop><stop stop-color="hsla(150, 2%, 60%, 0.9)" offset="90%"></stop></linearGradient><linearGradient id="-posters-1650603475164-regular-gradient" gradientUnits="userSpaceOnUse" x1="0" x2="100%" y1="0" y2="0"><stop stop-color="hsla(200, 2%, 50%, 1)" offset="0%"></stop><stop stop-color="hsla(213, 3%, 50%, 1)" offset="15%"></stop><stop stop-color="hsla(210, 3%, 50%, 1)" offset="30%"></stop><stop stop-color="hsla(207, 3%, 50%, 1)" offset="45%"></stop><stop stop-color="hsla(180, 2%, 50%, 1)" offset="60%"></stop><stop stop-color="hsla(163, 2%, 50%, 1)" offset="75%"></stop><stop stop-color="hsla(160, 2%, 50%, 1)" offset="90%"></stop></linearGradient><linearGradient id="-posters-1650603475164-bold-gradient" gradientUnits="userSpaceOnUse" x1="0" x2="100%" y1="0" y2="0"><stop stop-color="hsla(195, 10%, 8%, 1)" offset="0%"></stop><stop stop-color="hsla(210, 10%, 8%, 1)" offset="15%"></stop><stop stop-color="hsla(207, 10%, 8%, 1)" offset="30%"></stop><stop stop-color="hsla(207, 10%, 8%, 1)" offset="45%"></stop><stop stop-color="hsla(213, 10%, 8%, 1)" offset="60%"></stop><stop stop-color="hsla(200, 10%, 8%, 1)" offset="75%"></stop><stop stop-color="hsla(150, 10%, 8%, 1)" offset="90%"></stop></linearGradient></g></defs><defs><filter id="light-filter"><feColorMatrix in="SourceGraphic" type="matrix" values="1.5 0 0 0 0
                0 1.5 0 0 0
                0 0 1.5 0 0
                0 0 0 1.5 0"></feColorMatrix></filter><filter id="regular-filter"><feColorMatrix in="SourceGraphic" type="matrix" values="1.5 0 0 0 0
                0 1.5 0 0 0
                0 0 1.5 0 0
                0 0 0 1 0"></feColorMatrix></filter><filter id="bold-filter"><feColorMatrix in="SourceGraphic" type="matrix" values="1 0 0 0 0
                0 1 0 0 0
                0 0 1 0 0
                0 0 0 1 0"></feColorMatrix></filter><filter id="emboss"><feConvolveMatrix kernelMatrix="3 0 0
                      0 0 0
                      0 0 -3"></feConvolveMatrix></filter></defs></svg>