<svg id="-posters-1650603798411" itemscope="" itemtype="/posters" itemid="/+/posters/1650603798411" viewBox="0 0 643 512" preserveAspectRatio="xMidYMid slice" tabindex="0" xmlns="http://www.w3.org/2000/svg">
  <defs>
    <symbol id="-posters-1650603798411-background">
      <rect itemprop="background" width="100%" height="100%" tabindex="-1"></rect>
    </symbol>
    <symbol id="-posters-1650603798411-light">
      <path d="M0 256v256h322l322-1V0H0v256m0 1c0 140 1 198 1 127a76920 76920 0 00-1-127M337 43l-11 3-10 3-8 1-4 1-4 2-7 3 5-1 22-2c2 1 4 0 7-2 5-4 8-4 13-4 4 1 4 3 0 4-2 1-3 5 0 6l1-1c-2-2 0-3 2-1 4 3 15 6 19 5 4-2 13-1 21 2s13 3 13 0-11-12-15-12l-7-2-12-3-12-2h-13m-68 23l-5 2-2 1c-2 3 13 0 16-3 1-2 1-2-2-2l-7 2M129 93l-4 1-5 1a94 94 0 00-31 4h-7l2 3a21 21 0 0013 8h6c1-1 1-1-1-3-4-3-3-7 1-7 1 1 3 0 3-1 1-1 2-1 5 1 4 2 5 5 3 6-2 0-3 2-1 2l3-3c2-4 6-5 8-2l4 2 3 1 1 1c2 0 1-3-1-5-3-2-4-7-2-7l1 1 3 1 5 2c4 3 11 4 11 1s-5-6-11-6l-6-1h-3m29 2l1 1 1 1c0 2 7 5 9 4l3 2 3 3v2l3 6c2 3 3 4 2 5v1l2 2 2 2 4-8c0-3-15-18-18-18l-2-1c-2-2-10-3-10-2m286 1l-6 4-3 4h3c3 0 4 0 4 3 0 2 4 4 10 5l7 2 5-1 5-1c3 0 4-1 5-2 0-3 10-7 14-7l9-1a17 17 0 0113 3l6 1c4-1 5 0 6 2s2 2 6 2c6-1 8 0 8 4v3h12l7 1c5 0 7 0 9 2 4 4 12 6 12 3 0-2-4-5-6-5l-5-4c-4-4-9-5-17-6-4-1-5-2-6-4l-3-2h-3l-4-2-7-2-8-2-7 1c-2 2-4 2-6 1l-29-1-21-1h-10m-9 22c-2 2-3 2-5 2-4 0-7 3-10 9l-3 5-1 3c0 2 0 3-2 3s-2 1-2 6c0 11 4 13 12 5l5-4 4-5c4-6 4-6 2-9-1-2-1-2 1-4s3-7 2-11c0-3-1-3-3 0M247 243c-1 3-17 10-25 12-12 2-28 11-28 15l-6 7c-5 4-15 17-18 22-1 2-3 3-5 1-2-3-7-5-15-8-6-2-7-3-9-6l-1-3-1 3-2 8c-1 6-4 10-7 10s-4 3-4 7-2 4-8-1c-5-3-8-4-5 0 2 2 1 3-3 3-1 0-2 1-2 3s0 2-3 2l-3 1 1 1a1 1 0 11-1 2c-3-1-3 3 1 7l2 4h-1l-4-1h-4l6 6c6 5 6 6 4 6-4-1-3 1 2 4l15 15c0 2 2 3 5 2 2 0 5 2 5 4l2 1 1 2 1 1 1 1 2 2v-3c-2-2-3-11-2-11h1l3 1 2 1 10 1-1-2c-2-2 2-1 5 1 2 1 3-1 1-3-3-2-2-4 0-4s2-1 1-2l-8-12c-1-3 0-4 2-3 1 1 1 1 1-2 0-2 0-2 2 0l2 4 1 2v-2c0-1 1-2 3-2s2-1 2-4c0-5 2-5 5-1s3 3 4-6c1-5 1-6-1-8s-2-3-1-3c4 0 5-7 2-10-2-3 1-7 4-5 2 2 3 2 3 1l2-3 1-3c-1-1 0-2 1-3l1-3c0-2 1-3 5-6 3-2 4-4 4-5 0-5 4-7 10-6 5 0 6 0 8-3l4-3c3 0 5-1 5-4l8-7c9-6 19-14 18-16l-1 1m345 19l1 1 1 1 2 4c2 3 3 5 2 7-1 5-2 4 3 9 4 4 5 5 8 5l6 2h5c5-3 12 2 12 9l1 4c2 0 2-6 2-18v-12l-3-1-8-2-32-11v2m-247 0l-1 2c-3 1-2 3 0 4 2 0 3 1 3 2h6l4 2 4 3c2 2 3 3 4 2 0-2 5-1 8 1 3 3 7 5 11 5l5 2 3 1c1 0 7 3 8 5s4 1 6-1 2-2 2 0l2 4c2 1 2 2 1 2-2 1 0 3 3 3l3-1c0-2 0-2-1-1l1-2 5-3c4 1 3-1-1-3-2 0-6-3-8-5l-6-5-6-4c-13-11-17-13-30-11-7 1-9 1-23-3l-3 1m162 12l-6 1c-14-3-40 6-54 20-7 7-11 13-15 22-3 9-5 11-7 6-1-4-3-4-3 1 0 4 1 5 2 6 2 1 2 3 2 4-1 3 1 5 2 3h2v3l1 2 3 6 2 9c3 6 3 12 0 12-3-2-4 6 0 11l3 4c4 8 7 10 6 5l1-3c1 0 2-1 2-3l2-9 1-6v-3l2-5 2-4 1-3 2-7c2-2 3-6 3-8 1-3 2-5 4-6l2-4 4-8 1 2c0 2 4-2 4-5l2-2a17 17 0 0010-4c1 1 5-4 5-7 0-2 2-4 4-4a10 10 0 008-9l6-14c0-4-1-4-4-3M31 290l-9 6-7 5c-3 2-6 13-5 14 0 1 5-4 5-6l1-2 2-2 3-3 2-2 3-3 2-1c-2 0 1-3 6-5l4-3c0-2-4-1-7 2m451 5c-5 3-8 9-4 9l2-1 1-1v3c-2 5-1 5 4 1 10-8 8-18-3-11m136 5c0 1-1 3-4 4l-5 5-10 9c-4 2-5 3-5 6 0 2 1 3 4 0l5-2c4 0 5-1 6-7 0-3 1-5 2-5 3 0 8-4 8-7v-5l-1 2m15 12v27c2 0 2-19 1-26l-1-5v4m-25 43c-4 1-14 7-12 8 1 1 17-5 17-7 0-1-1-2-5-1m-501 13h-3l1 2 6 3 4 2 3 2c4 1 4 0-2-5s-6-6-9-4m132 83l-1 4c-1 2-1 2 2 4s4 3 3 4 2 3 4 2l-1-1-1-1 2-1c2 1 1-1-3-7-3-6-5-8-5-4m-1 17l4 3 2 2c2 3 4 3 4-1 0-3 0-3-4-4h-6"
      tabindex="-1" itemprop="light" style="fill-opacity: 0.927; fill-rule: evenodd;"></path>
    </symbol>
    <symbol id="-posters-1650603798411-regular">
      <path d="M18 8a6 6 0 00-7 5l-2-2C8 8 7 68 8 99v211l3-4c2-5 7-11 10-12l7-4c3-3 7-5 11-6 5-2 8-3 15-10 17-15 22-16 9-1-4 3-5 7-4 8v3l-1 4c0 3-2 6-3 6-2 0-4 3-4 5l-4 2c-7 1-6 4 1 7 3 1 3 1 2 2l-2 2-1 1c-8-3-26 0-32 6l-4 2H8v176h9c20 1 94 1 95-1h1c1 2 13 2 54 3a17047 17047 0 01122 0h97l78-1 3-1c2 0 2-1 2-6l1-8 2-8c0-4 4-11 4-8l2 7 3 12c2 12 2 12 5 13l46 1a3243 3243 0 0178-1c19 0 18 0 21-7 3-9 1-95-2-92l-1 7-1 7c-2 1-3-10-3-15 1-4 0-8-1-10-3-9-1-13 4-8 3 4 5 4 5 1 1-19 0-35-2-33v2l-7 6-5 3c0 5-2 8-6 8l-9 1-6 1c-11-1-17 0-16 1 1 2 0 3-3 3-2 0-2 0-1 1l1 1-3-1h-7l-5-1c-2-1-3-1-2-3 3-6 4-10 4-14-1-4-1-5 2-6 3-3 4-1 3 4l-2 8-2 6 1 2c2 0 4-3 3-6 0-3 4-9 6-9 2 1 7-3 10-7l4-3c2 0 2-1 2-3 0-3 1-7 2-6 2 3 3 6 1 9-1 3-1 7 1 7l1-4a8 8 0 013-6c0-2 1-2 4-2s4 0 4 2l1 2 2 3c1 2 5 3 5 0l1-2 1-8 1-7v-3l-2 1-1 1 4-8c3-2 2-10-1-11-5-2-8 2-8 9l1 6-1 2c-1 1-1 1 1 3 3 3 3 11 0 11-2 0-3-2-3-6 0-6-3-8-5-4v2l-2-2-2-3-1-1-2 1-2 2c-3 1-4 4-2 4v1l-1-1c-2-2-4-1-5 4l-1 4-4-5c2-5-4-5-7 0-2 3-4 4-6 2-2-3-4-2-10 1l-7 2c-5-2-3-4 5-5l4-4c2-3 8-4 11-1 2 1 2 1 3-1s11-7 13-7 4-2 4-3h-2l-3-1a1 1 0 10-2 1l-1 1-4-2c-5-3-6-8-1-9l4-2 4-5 2-2-2-3-7-5c-3-1-4-2-5-4v-11l1-1 4-5c2-2 4-4 4-6l1-4v-5l-1-1c1-1 9 1 27 7l20 7c2 0 2 0 2-14 1-23 1-246-1-247-1-1-60-2-317-2A86944 86944 0 0118 8m-8 11v14l1 9V29c1-12 0-19-1-10m322 23c-4 2-12 4-18 4l-6 2-4 1c-3 0-12 4-17 8-4 3-5 3-12 3l-9 1-2 1c-1-1-9 5-11 9l-6 12c1 3-3 9-6 9s-5 1-5 3c0 3 8-1 11-5s8-9 12-11l10-4 10-7c10-11 31-15 32-7 1 4 3 5 9 2 6-2 11-1 11 2 1 3 0 4-3 4l-6 2-7 2-3 1 4 2c4 2 21 3 23 1v-3c-1-1-2-2-1-3l-1-3c-1-1-1-1 1-1 3 1 4-1 1-4-3-4 2-4 11-2 23 5 29 6 31 4h3c5 3 12 3 15-1l3-4h-2l-7-5c-5-4-11-7-14-7l-3-1c-2-5-35-9-44-5m142 46l-6 2-2 1 2 2 2 1h-10a34 34 0 00-28 5l-2 4c0 2-1 3-3 5l-3 1 2 1c3 2 3 2 1 4-2 3-4 3-7 0-4-3-7-5-8-3-1 1 0 1 1 1s2 0 1 2l-2 1c-2-1-4 0-4 3l-1 4c-1 2 1 4 4 5 3 0 3 4 0 7s0 26 3 26l4 2 2 3 1-4a18 18 0 015-8l3-2c5-3 11-12 12-17 1-14 1-14 4-15 2 0 3-1 3-2 0-3 4-3 8-1 5 2 9 3 11 0l6-1c3 0 4 0 5-3l2-3 5-1 9-2h6l-1 3c0 4 2 5 8 3h6c2-3 6-3 7-2l7 2c4 1 5 1 6 4s2 3 6 3l6 1h-1v1c1 2 2 2 5 1l5 1-4 1c-8 1-10 5-4 7l10-2c-1-2 1-5 4-5 2-1 8 3 7 5 0 2 2 4 4 4l3-2 1-3c2 0 10 6 11 9 0 2 1 3 2 3v4c-2 3-4 4-7 4l-2 1h6c9 0 11 1 10 6 0 3 0 5 2 6l1 3c-1 1 1 4 3 4l2 6 1 6c1 2 12-1 12-3l1-2c3-1 3-4 0-5l-2-2v-2l-1-2c1 0 0-2-3-3l-4-4-4-6c-2-2-4-5-4-8l-3-5c-2-2-1-4 1-6 3-2 1-3-6-2l-5-1-5-6-7-7-4-3-7-3c-2-3-6-4-9-5a30 30 0 01-13-6c-2-1-3-3-2-4l-3-3c-3-2-3-2-9 3h-22c-6 1-6 1-9-1l-6-2-3-1c1-1-7-4-9-4l-4 1m-340 1l-9 1-12 1-12 3a149 149 0 00-18 4l-6 2-6 5c-4 3-5 3-9 3a7 7 0 00-9 3c-4 3-7 7-8 11 0 3 0 3 3 3l11-2c9-2 12-3 6-4-3 0-4-3-1-4l4-3 3-2 3-3c1-2 2-3 4-3h3a21 21 0 0027 7c1-2 12 1 12 2 0 2 3 4 6 3s4 0 7 1c3 2 7 3 7 1v-5c0-4 0-4 5-1 7 4 9 3 4-2-6-5-5-6 4-3 2 0 2 0 2-3 0-4 4-4 9 1l3 3 2-2 2-2 1 4 2 7 2 4 2 2 2 3c2 5 4 4 8-2l5-9 3-2-3 1c-3 1-4 1-11-8-9-9-15-12-26-12-5 0-8 0-10-2-4-2-11-3-12-1m256 5l-5 2c-1 0-3 2-4 5s-3 5-4 5c-6 2-7 10-4 32 1 9 1 10 6 17 7 9 11 13 11 11 1-1-1-5-5-9-8-7-8-9-9-28v-16l4 1c6 1 8-1 6-3-2-3-2-3 5-4 4 0 5-1 6-2l2-4c6-6-2-12-9-7m-168 4l-4 1 2 3c6 5 9 5 9 1l2-5c0-2-3-2-9 0m-21 7l-5 4 4-1c1-1 13-2 16-1 2 1 2-1 0-4-3-3-10-3-15 2m-12 58l-4 7c-3 2-6 9-5 11 0 1 7 3 11 3 3 0 3-1 3-3v-5c0-2-1-3-2-3l-1-2c2-5 1-11 0-12-1 0-2 1-2 4m-37 20a11 11 0 005 10c5 4 5 2 0-8-6-10-6-11-5-2m20-3l-2 6v6l2 7c1 9 4 3 6-11 0-7 0-8-2-9-3-3-4-2-4 1m83 25c-2 3 0 6 3 6s3-1 2-5-3-5-5-1m6 20c0 2-14 17-21 21-8 6-11 7-19 8-11 1-29 12-29 16l-6 6-18 21c0 2-1 2-4 0l-12-6c-8-3-9-3-10-7s-1-4 3-25v-11c-1-1-1-1-1 1l-1 4-2 7-3 8v7c0 3 0 5-1 3 0-2-1-2-2-1v3c1 2-1 6-3 6-2 1-2 1-1 2l-2 2-11 10a4 4 0 000 7l-5-2c-6-4-9-4-9-1s-6 8-9 7c-3 0-3 0-2 1 2 1 0 8-4 10s-4 5 0 9c3 4 6 10 5 11v4l2 4 1 1c2 0 7 6 7 8s-3 2-5-1-3-2-6 0c-3 3-3 3-1 6l2 4 4 3 5 3 3 1 2 1 1 1 1 2c0 2 0 2-2 2-3 0-3 2 2 9l4 8 4 5c3 4 5 6 4 7 0 3 6 10 7 9 2-1 1-7-1-9-3-2-3-4 1-5l4 4c3 5 9 2 7-4l-1-6-1-3h5c4 0 6 1 7 2 3 2 3-1 1-7-3-10 1-15 9-15 2 0 2 0 1-1-4-4 1-6 5-2 2 1 2 1 2-1l-1-2c-1 0-3-11-2-14l-1-2c-2 0-7-5-7-6l1-1c1 1 2 0 3-1l4-1h2c-1-1 0-2 1-3l1-3v-1c1 0 3 4 2 5l4 2 1-9 1-9c6-6 11-17 9-19-2-1 0-3 2-3s8-7 9-10l2-2 1-1 3-3 3-3 1-1 3-3 3-3 3-1c0-2 1-2 3-2s7-4 9-7c2-2 2-2 0-3-3-2-2-3 1-5l6-3c1-2 4-4 7-5l19-20 1-9-1 1m-100 2c-6 2-7 3-3 7l3 4 2-3c2-2 5-9 3-9l-5 1m347 28v9c2 10 2 9-13 10-27 0-49 14-61 38l-6 11-4-6-4-7c-2-1-1-4 1-5 3-1 7-8 7-11 0-1-1-3-3-3l-27-21c-7-6-17-9-24-7h-13l-4-1-7-1c-7-3-11-2-12 0-2 2-2 3 0 3 2 1 2 1 0 1-3 1-5 7-2 7l1 2 1 1 1 1a9 9 0 01-6 7c0 1 2 3 5 3s3 2 0 2c-2 0-2 1-1 1 2 1 3 0 5-4 3-5 4-4 6 2 0 2 1 3 2 2 2 0 2 0 2 4l1 4v3c-1 2-1 5 1 5 3-1 2 1 0 3s-3 7-1 9v2c-2 1-2 2-1 5l1 4 2 2 2 1h-2l-1 2v4c0 2 0 2 5 2 7 0 9-5 6-11l-2-8c0-4-1-11-3-15-5-17-5-23 0-22 3 1 5 3 5 5-1 1 0 1 2 2l2 2c-1 1 0 2 1 3l2 4c0 3 0 3 2 3 5 0 6-8 2-9-2-1-2-1-1-3l1-2h6c1 0 2 1 2 3s1 3 2 3l2 3 1 2 4 3 5 3v-3h2l3 2 3 1h-3c-3 0-4 1-1 2v2c-2 1 0 3 5 3s6 1 6 5l1 4 2 5 4 10 1 6 2 6 1 4c1 2 1 3 3 2 1 0 2 0 3 2 1 3 1 3 3 3 2-1 3 0 1 1l-2 4-1 4v6l1 8 1 2 1 3c0 5 3 11 6 11 1 0 2 0 2 2l-1 2-1 4c0 5 0 5 3 5 6 1 7 6 3 8-3 1-3 2-1 9l1 8 1 2 2 4 5 8 3 2v-5l1-5c1 0 3 2 3 4s2 3 4 2v-5c-2-1-1-3 1-3l1-4 1-10v-26c1-11 2-11 4 2l5 21c1 2 2 4 4 4s2 0 3-5l3-3 1-1c0-2 2-2 8-2h8v-3c2-5 2-13 1-13l-2 2c-2 3-7 2-7-2l-1-2-1-2c0-3-2-3-6 0l-4 2c-2-2-2-6 0-9 3-5 3-8 0-8s-3-3 0-4c3-2 8-1 12 2 4 2 4 2 9 1 4-1 6-1 11 1h7c1-2 29-2 33-1 3 2 3 0 1-9-1-8-2-9-4-9l-4 2-3 2c-2-1-3 2-3 7 0 3 0 3-3 3h-4v-8l-1-8h-4l-6 2c-2 2-5 3-5 0s-2 1-3 7c0 7-1 8-3 6-1-2-2-3-1-7 0-8-1-12-3-9h-2l-3-2-1-2-2-2c-2-1-3-2-3-4 0-3-1-3-3-3s-3 0-3-2 0-2-3 0c-3 3-4 3-4-1l-3-8c-2-1 0-7 3-8 3-2 3-2 2 0-2 4 3 8 5 4l4-1c4 0 4-8 0-9-5 0-8-8-4-9 0-1 1-1 0 0l4 1v-5c0-4 1-5 4-5l4 1 4 2 2 2 1 4 3 5c0 4 5 8 5 5l2-5c2-4 3-13 1-13l-1-4-2-6c-6-4-7-10-3-11 2-1 3-3 0-3v-2c2-9 0-18-5-18 0 0-2-1-2-3l-2-2m-127 50c-2 3-2 4 1 5 2 0 3 1 1 3-3 1 0 8 3 7s3-6 0-12l-3-5-2 2m127 24l4 5c1 4 2 4 5 4 2 0 2 0 2 2v2c1 1 2-1 1-4v-5c0-4-1-4-4-4l-4-1-3-1c-2 0-2 0-1 2m31 14l1 5c0 3 4 7 9 8l4-1-1-4-2-1c-3 0-3 0-3-3 0-4-2-6-6-6-2 0-2 0-2 2m-64 6c-2 1-1 4 1 5l3 5c0 2 1 3 2 3 1-1 0-10-1-10l-3-2-2-1m-6 10l-1 13v7c0 5 1 7 3 7s5-4 5-7l1-5c2-3 0-9-3-12l-2-3h-3m57 13c0 4 1 5 2 2h1c0 3 4 3 4 0 0-4-2-6-5-6-2 0-2 0-2 4m90 8c-2 1-2 1 0 1l2 2-2 9v7c1 13 2 12 4-5a40 40 0 000-13c0-3-2-3-4-1m-29 18l-3 5c-2 4-2 9 0 9s5-9 5-12c0-4-1-5-2-2m-28 5c-3 5-3 5-1 5 1 0 2 1 2 3l1 4 2-3c3-3 3-6 1-11-2-4-2-4-5 2m41-3c0 2-5 4-7 3-1-1-3 4-2 5l2-1h7l4 1h4v-4c0-4 0-4-4-4l-4-1v1m-61 5c-2 2-4 5-6 5-2 1-3 3-2 4 1 0 2 1 2 3 1 2 3 3 3 1l1-2 5-4 5-5c4-2 4-3-1-5s-4-3-7 3m29 0l1 2 3 5 3 4c1 0 3-7 2-8l-1-2-2-2-4-1c-2 0-2 0-2 2m-19 5c0 2-1 3-3 3-4 0-3 3 0 3s4 1 5 2h1l2-2 1-4c0-4 0-4-3-4-2 0-3 1-3 2m-320 29v9c-1 5-1 7-3 10l-2 5-1 4c-1 1 0 2 1 2 2 1 2 1 1 3 0 2 0 3 2 5 2 1 2 2 1 3-2 1-1 3 2 3l7 2h7l5-3c2 0 3-1 3-2l-1-10c-1-10-7-22-16-31-3-4-5-4-6 0"
      itemprop="regular" tabindex="-1" style="fill-opacity: 0.9; fill-rule: evenodd;"></path>
    </symbol>
    <symbol id="-posters-1650603798411-bold">
      <path d="M21 9c-3 0-4 1-4 3l-2 50-1 58-3 74-1 33c-1 6-2 43-1 58v14c-1 6 0 8 2 4 1-3 6-8 11-10l6-5 12-6 7-4 6-5 4-3 8-8c5-4 8-7 9-10 3-5 4-5 4 1l-4 10-4 6-2 5-3 4c0 2 7 7 11 8l7 2 18 9 5 1c1 0 1-1-1-1-1-1-1-1 1-1 3 0 3 0 3-4l1-4c2 0 6-7 6-8v-3l1-8 1-5c2 0 2 1 2 4v4l2-4 4-4c2 0 6-6 6-8l3-2 2-2c0-2-1-4-3-4s-5-3-3-3l10-2 10-1 5-4-6-6c-3 0-1-5 2-6l4-4c1-1 3-3 5-3 3-1 4-2 3-3l3-8c2-1 1-7-1-12-2-4-3-4-3-2l-2 3c-4 0-13-8-12-11v-7c-1-4 0-7 2-7l5 8c3 7 4 8 6 7s8-6 6-6c0 0 3-6 5-7h2c2 3 4 2 5-1l4-6 3-5c0-11 0-12 4-7l4 7c4 7 8 10 17 12 4 2 5 2 4 6 0 4 0 4 3 4h1c-2 1-1 15 1 18 3 3 4 6 2 6l1 3c2 2 3 4 3 8l2 8 1 8c0 5 0 5-3 5s-3 0-3 4c0 3 0 4 2 4s2 0 1 2c-3 3-2 3 4-1 9-4 12-6 18-12 9-9 9-10 7-11l-2-3-3-8c-4-9-2-14 3-16 5 0 8 2 8 6l2 6c3 6 3 15-3 27l-1 4-4 3-3 3-3 3c-3 2-4 4-5 6l-2 4c-3 2-4 3-1 3 1 1 1 1-1 1l-4-1h-2c-1 1 2 2 10 3l19 2c1 2-5 3-13 3-9-1-11 0-8 4 1 0 2 2 1 3 0 2-2 1-2-1 0-3-1-3-4-1s-3 2-5 1a1 1 0 10-2 1l1 3 1 3v6l-2-1c-1-2-4 0-4 2l-1 2-2 1c0 1-1 3-3 3l-2 2 2 2c2 2 2 2 3 1h1c0 2 3 1 5-1 1-2 1-2 2-1 2 2 3 1 3-2v-3l1 1a1 1 0 102 0l4-4 1-1-2-2c-2 0-7-6-5-8 1-3 3-2 3 1 0 6 3 5 7-3l3-5c1-2 7 6 7 11 0 2 1 3 2 2 2 0 2 0 1 2l-3 3-2 1c0 2 5 2 9 0 3-1 6 1 6 3-1 1 0 1 1 1l2 2h4l2-2c-1-1 0-2 2-2l6-1c2-1 2-1 2 1v3l2-3 6-4 3 4c2 4 2 8 0 8l-1 2-1 1-1 2c0 2-1 3-4 5l-4 2-4-1c-4-1-5-3-3-4v-5c-3 0-8 2-10 4-2 1-10 3-11 1-2-2-6-1-8 1-1 2-9 3-11 1h-5l-4-1-4-2c-2-4-7-5-8-3s-4 3-4 0l-1-3a12 12 0 013-14l2-2 2-1-2-2-2 2c0 2-3 1-4-1l-1-1c-4 5-5 7-4 9l1 2c-1 1 2 15 4 18 1 2 3 7 3 13l1 4c1 2 1 4-1 6-1 3-1 3 1 5a3 3 0 11-3 3c-3-2-4-1-2 2 1 2 3 3 6 3 5 1 8 4 11 13l5 11a48 48 0 014 10l1 2 2 4c5 8 6 10 5 15v6c1 1 0 1-2 1-4 0-4 0-4 4l-1 3-3-3-4-3-2-2c0-2-1-3-2-3l-1-1-1-1 3 10 7 12 2 4 1 3 4 5 5 6a56 56 0 006 8c2 2 0 2-4-1l-4-4-1-1c-2 0-1 1 1 5 4 8 5 12 6 19v8c1 2 0 3-6 5-5 2-7 2-12 0-4-1-4-1-9 1-3 2-8 3-10 3-4 1-5 2-6 4l-1 3c-3 2 6 2 30 2l27-1 2-2c3-3 3-3 1-3v-1h3l3 1c2 0 3 0 3 2l-1 2 1 1h15c11 0 11 0 11-3s3-5 4-2l1 4 2 1c2 1 9 0 8-1l3-2 5-3c3-5 26-4 23 1v2h2c0-1 2-2 5-2 5-1 6 0 6 2 0 3 2 4 13 4l10 1 1-4 1-6v-3c-2 0-3-2-2-3v-8l-1-11c1-2 0-3-4-7l-5-6c-1-3 1-10 3-11v-2c-1-1-5 5-5 8l-1 2c-2 0-3 3-1 4 5 2-10 3-16 0l-7-1-12 1c-8 0-9 0-9-2l-1-2-2-2-3-2h-13l-7-1c-5 0-6 0-6-2h-1l-2 1v-3c-1-5-3-6-4-1-1 3-1 4-2 3v-4l-1-9c0-8-1-10-2-10-3 0-4 1-3 4v2l-2-2c0-5-7-6-8-1l-1 3-3 3c-3 2-3 2-1 3v2l-2 2-1 1h-1l1 2 1 1 3 5c5 8 5 15-1 12-7-4-9-6-6-7l-1-7c-4-8-4-10-1-10l2-2c0-2-3-2-4-1s-1 1-1-1c0-3 4-6 7-6l2-2c0-2 1-3 2-3l4-2 2-1c1 0 3-6 3-10 0-3-2-4-6-3-5 0-5 0-2-4 2-3 2-4 0-6-2-4-11-2-11 2l-2 3v3l-1 2c-2 0-2-1-2-2l2-11 4-21c1-3 0-4-2-3l-2 2a19 19 0 01-3 13c0 3-2 3-3 1-1-1-2-3-1-6v-6c-1-3 0-28 2-31 0-2 1-2 2-1 3 1 6 0 11-1h6c1 3 1 3 4-3 2-4 4-6 4-4l4 1 2 1-4 7-1 4 1 4 2 3c1 2 1 2 1-4 0-4 0-6 2-6 2-1 2-1 3 2 2 2 2 3 0 4s-2 1 0 3v4c-1 3-1 3 1 4s2-1 3-7c0-9 0-11 2-12 2-2 10-1 11 0l3 1c2 0 2 1 2 4 0 5 2 7 5 5 2-1 2-1 0-1s-2-1-1-3l5-1 4-1 2-1c2 0 2-1 2-3v-3l-2 2c-3 3-5 2-5-1 1-3 0-4-3-3-2 0-2 1-2 3l-2-4c-1-3-2-4-4-4s-3-2-1-4l-1-2h-1c0 3-3 0-3-3-1-6-1-7 2-6l2-1 1 2c0 2 1 3 3 3s2 0 2-8v-11a4 4 0 016-5c1-1 0-2-4-2-5-1-6-2-6-9 0-4 1-6 3-7 3-4 2-8-2-8-3 0-3 0-3-4v-4h8l8 1h2c1-2 2-17 0-17l-3-4-4-4-1-2-1-2-1-3a6 6 0 018 0l3-1c2 0 2 0 2-4 0-3 0-4 2-4l1-2 1-4c1-2 1-2-1-2s-2 0 0-2l6-5c2-2 4-3 10-4l8-1 3-1a3 3 0 014 2l1-2 1-3 1 4a18 18 0 004 13 2 2 0 103 0c-1-1 1-6 3-12l1-5c-1-4 1-6 4-4 1 2 1 4-1 6v6c6 13-5 22-26 22-9 0-12 2-15 10-3 6-2 19 1 16l1-1v1l-1 3c-1 3-1 3 4 2s9 1 8 3c-1 1 2 3 4 3l2 1c0 2 13 2 15 0l1-2-3 2-4 1-5-1-2-2c0-2 1-2 3 0 1 1 6 1 7-1 2-2 17-1 22 1 4 2 4 3 2 3s-2 0 0 1l2 2 7 3 1 1a176 176 0 0044-1l4-1 4-3c5-1 6-4 2-6-4-1-4-9 0-9l2-1 2-1c2 0 4-2 3-4 0-2-12-3-13-1l-5 1-5-1 3-2c2-2 2-2 1-3l-2-3-1-1c-1 0-2-1-1-4v-6l2-2c2-3-1-6-4-5-2 0-3-1-3-7-1-4-4-8-8-8l-4-2c0-2-2-3-3-3l-2-1-1 1-1 4c1 3-4 4-6 1-2-1-2-1 0-3l3-4 4-3c7-2 4-6-5-6l-4-1c-1-2 3-4 7-4s6-1 4-4h-6l-3-2c-4 3-8-5-4-8 2-2 2-2 1-6 0-4 0-5 3-4v-2l-3-1h-3l2-1c3-1 3-3 0-4-3-2-3-3 1-3l3-1c0-2-5-6-8-6-4 0-4-1-2-3h2l3 2c2 0 1-2-1-2l-2-2-4-2c-3 0-4-1-4-2 1-1-9-2-10-1h-2c-1-2-2 4-1 10l-1 5c-1 2 1 6 4 6l1 4c0 1 0 2 1 1l3 2c5 6 6 14 3 15-3 2-4 1-4-2-1-3-3-4-4-2s-4 0-4-2h2c2 0 2-3-1-6 0-2-2-4-4-6l-3-8c0-4-1-5-2-5-3 0-4-2-2-4s2-3 1-5a27 27 0 019-28 18 18 0 0110-10l4-1c5-1 8-6 8-13 0-3-2-6-4-5h-3l-13-3-8-2c-6-2-6-2-6 0-1 3-2 3-6-1-3-2-9-5-13-5-2 0-3 4-1 5 1 2 1 2-1 3-2 0-2 0-1 1 5 4 1 9-8 9s-16 1-16 2l-1 2h-10l2-1a2 2 0 000-3l-1-1c0-2-3-2-5 0l-8 2c-8 0-21 3-21 4l2 2 3 2h-8c-15 0-25 1-25 3l-9 10-1-1c0-5-6-1-6 4-1 3-3 4-8 1l-4-2v3c0 3-2 6-3 4s-9-5-9-3-1 2-3 1h-3a35 35 0 00-13 13l-4 7-1 4-3-2c-3-1-3-2-3-6a2 2 0 00-4-3l-2-5-4-6-1 1h-2c-2-1-2-1-4 1-2 3-8 4-11 3-4-2-7-1-7 1l-2 4-5 2c-2 2-4 2-6 2-2-1-2-1-1-2 5-3 0-4-8-2-5 1-8-1-8-4s-2-6-2-4l-5 1-6 2c-2 1-2 2-3 1l-5-2-6-3H74c-3-1-4-1-5 1-2 2-1 3 1 4 3 0 3 5 0 6l-8 2-8 2-5 1c-2 0-3 1-3 2l-5 1c-4-1-5-2-3-4 6-6 7-8 7-12-1-2-1-3 1-3 3 0 8-3 8-5s1-3 2-3c1-1 1-1 0 0l4 1h5c0 1 2 0 5-3l10-6 4-1 10-3 8-2 4-2 3-3 1-3c-2 0-2-3 0-7l1-3-1-4-1-4c-2 0-1-7 1-9h2l1 1 1-4c0-4 0-4 3-4s3 0 3 4c0 2 1 4 4 7s4 4 4 7l1 5v1c-1 1 0 2 3 5l4 4h-4l-4 1c0 2 1 2 8 2l8 1 7 3 1 1c0 2 5 0 8-4 3-3 5-3 6 1 0 2 2 3 9 2 3 0 4 0 6 4l3 5v2h-3l4 5c7 7 7 7 11 3l3-3 4-2c2-2 4-3 7-3l3-1 2-1 1-1 2-1 3-1 5-2 7-1 6-1c3-1 3-1 2-4l1-4c2-1 4-6 3-8l1-2c2 0 2-1 2-12l1-7v-5c-2 0 3-8 6-8a23 23 0 0115 4l2 2a17 17 0 0024 3l8-3c3-1 4-3 1-3l7-1 9-1h-4c-2 0-3 0-1-1l4-1 13-1 14-1h17l4-1 4-1 12 2c9 0 10 1 6 5-2 2 0 7 2 6l3 4a4 4 0 006 3v1l2 1c3 0 4 1 4 3s1 2 9 2l16 2 8-1 4-1 4 1c0 2 2 2 12 1l12 1c0 2 1 2 4 2l4-1c0-2 1-2 7-2h6v4c0 3 0 4 2 4l1 3c0 3 0 3 5 3l5 1 9 4c3 0 5 1 5 3 0 1 1 2 3 2 1 0 2 0 1 1l2 1 2-2c-1-4 6-6 7-2 0 2 5 4 10 4 4 0 4 0 3 2 0 2 0 2 3 3s3 2 3 4c-1 2 0 3 2 4a96 96 0 0015 6c3 0 5 2 5 3h1l5 4c3 2 4 4 3 4l-1-1h-3l-2-1 9 8c3 2 3 2 6 0 6-4 13 3 7 8-3 3-2 6 3 9 7 3 11 8 5 7-5-1-1 5 7 10 6 3 8 5 5 5-2 0-2 0 0 7l2 6-2 2-2 4v2l-1 3c1 3 1 3-2 3-4 0-10 2-10 4l-2 1c-2 0-3-2 0-3v-2l-2-3-1-4v-9c0-4 0-4-3-5l-4-4-1-4v-2l-1-1-1-1c1-3-3-5-9-5a9 9 0 00-8 2c-3 0-3-2 0-3 2 0 3-4 1-4l-3-2c-2-3-5-2-6 1 0 3-4 5-10 3l-4-1 3-2c2-1 3-1 2-3 0-3-1-3-9-3-8-1-11-2-7-4s3-4 0-5c-4 0-6-5-3-7l2-2-6-1c-4-1-5-2-5-3 0-2-1-2-2-2-2 0-3-1-3-2-1-2-3-2-8-1l-4 3c1 1 0 2-2 3-2 0-3 1-3 3 1 7-4 8-10 4l-3-3c-1 0 1-4 2-3l3-2c5-4-3-4-8 0l-5 3c-2 0-6-4-4-5l1-3c0-3-2-2-4 2 0 3-1 4-4 4l-7 1-7 1c-4 0-11 2-12 4l-3 1c-2 0-2 1-2 4 1 4 1 5-2 8l-2 4-8 7c-5 4-9 10-8 14 0 4 6 12 8 12 3-2 10 6 10 12l1 2c2 0 5 4 4 6h1c1-1 1-1 2 1 0 1 1 2 3 2l5 1c2 1 2 2 4-4 4-12 3-16-2-8-3 4-3 5-4 4-4-4-5-10-2-12s3-3 0-3c-5 0-7-10-5-18a16 16 0 019-12c0-2 3-1 5 1l7 1 7 1-1 1v2l-1 3-2 4-2 2v6h1l1-1 1 2-1 2-1 2 1 2c2 0 1 8-1 9-3 1-4 4-1 6v1c-1 0-2 1-2 3v5c-1 2 1 5 5 5l4 2h2a8 8 0 0110 1c3 0 1 1-6 3l-4 3-1 2-1 2c0 2 1 2 2 2l6-1 5-2 3-1c3 1 2 6 0 7l-2 2h1l5-1c3 0 3 0 3-4 0-3 0-4 2-4l1-1-1-1-1-3-1-3-2-4c0-4 0-4-3-4s-4 0-5-3l-2-3c-1-1-1-1 3-5 3-3 4-3 4-2 1 4 9 3 13-2 4-4 7-3 7 3 0 3 0 4 2 4l2 2 1 1c3 0 3 2 1 4-1 1-1 1 1 1s2 1 2 4v4h5c5 0 6 0 6-2l1-2 2 2c3 3 12 3 11 0v-6c1-3 4 0 4 4l1 4 3 7-1 1c-2 0-1 4 1 5 2 0 7 9 7 12l1 4 2 3a14 14 0 008 10l3 1 5 3c6 3 41 14 43 13l3-1c3 0 3-9 3-131 0-124 0-123-3-123-7-2-478-3-482-1h-6l-17-1h-13v3l-1 5-2 5-2 6-2 7c0 4 0 4-4 4s-5 0-5 2l-4 1-4-1-2-2c-4 0-6-22-3-26v-1l-1-1c1-1 0-2-1-2-2-1-22 0-22 1 1 2-3 2-6 2v-2c2-1-27-3-32-2m245 69c-4 2-11 8-10 9l10-4 9-2 5-2h-4l-4-1c0-2-1-2-6 0m31 9c-5 0-6 2-3 3h10l5-2h4l-4-1h-12m-48 19h-2c-1-1-2 0-3 1l-3 2c-3 0-6 6-6 10s0 4 3 4c4 1 7-3 7-8-1-3 0-4 3-1 2 2 4 3 4 0l2-4c2-6-1-9-5-4m-109 21l-4 7 6-2 4-4-3-2c-1-1-2-1-3 1m26 2l-4 2c-6 2-8 6-4 10l2 2-2 2a5 5 0 000 7l4 4 7 3 3 2 1 2c2 0-1-22-4-27l-1-5-1-3-1 1m321 32l-5 1c-2 1-3 5-2 6 0 2 6-2 9-5 1-2 0-3-2-2m-123 4l-2 3-1 3c-2 0-1 2 2 3 5 1 6 1 7-1 1-4-3-10-6-8m-186 37c0 3 1 3 3 4 5 1 3 2-2 2s-5 2 1 3c4 0 6-2 6-7 0-4-1-5-2-3l-3-1c-3-3-3-3-3 2m-23 4v5h5l1-1 2-1c1-1 0-1-1-1s-2-1-2-3c-1-4-4-4-5 1m430 4c-2 2 0 5 4 7 3 1 3 1 3-1l1-2c2 0 1-3-1-4-3-2-5-2-7 0m-68 20c-1 2-3 2-8 2-6 0-7 0-6 1l1 4c0 2 1 3 7 6l1-4v-4h4c4 0 4 0 4-3 0-5 0-5-3-2m-341 2c0 3-4 8-7 8l-1 6a10 10 0 002 8l-1 2-1 4-1 4c-2 0-2 1-2 4s0 4 2 4l1-1c0-2 1-2 4-2s4 0 4 2l1 1v1l-1 4c0 3 0 3 1 1s1-2 2-1c1 2 1 2 3 1 2-2 3-3 0-3l-1-1h2c2 0 8-6 6-7v-1h3c1 1 1 1 0 0l1-4c1-4-1-22-3-22l-2-4c-2-4-2-4-7-4l-5-1v1m299 16c-2 0-3 1-3 2 0 3-2 5-4 4-2 0-3 1-4 5-1 1-1 2 1 1 1 0 3 0 4 2l4 2 4 1 11 2 10 2c3 0 5-1 6-3l1-2v-5c-1-4-2-4-6-5l-9-5c-5-2-7-2-15-1m-48 42c4 3 2 10-4 16-3 2-2 3 5 3 5 0 10-4 6-5-2 0-2-1-1-1l1-3 1-2v6l3-3c4-4 4-6 0-8l-4-2-8-3 1 2m-180 8c-1 3 0 4 6 6 5 2 5 2 5 0l-3-4-4-3-1-1c-2-1-3 0-3 2m-50 3c-3 3-3 4-3 11l-1 10c-1 1-1 1-1-2s-2-6-3-4v4l1 2c-1 2-1 2-2 0-3-3-5 1-6 9v8l5 2 5 3c-1 0 0 2 2 3 2 4 3 7 3 11v3c0 1-3-1-3-3l-1-3c-1-2-1-2-3 0-1 1-1 1-2-1-1-3-3-5-7-7-3-2-4 0-3 7l-1 6-3 3-2 5v6l2 5 2 5c1 5 1 6-1 2-3-6-6-2-5 9l-1 7c-1 1-1 0-1-1s-1-2-3-1c-4 0-4 1-3 5 2 3 5 14 6 19l-1 3c-1 0-4-3-4-5s-2-1-3 2l-3 6c-1 3 0 9 4 12a18 18 0 015 8v3c-1 2-6 0-7-3a8 8 0 00-8-5c1-1-4-5-8-6h-2l1 2c2 3 2 3 0 5-1 2-2 3-1 4l1 3c-2 1-5-2-4-4l-2-2-5-3c-4-5-3-5-8 0-3 3-5 4-7 4-3 0-3 0-3 4v4l-4-4-5-4-3-7-1-1-2-2-1-2v-5l-3 4c-2 4-2 4-4 0-1-3-1-3 1-3l1-4-1-4-3-8-3-4c-3-3-3-3-1-4 1 0 2-1 1-2l-1-4-2-6a26 26 0 01-4-11l1-4 2-5c-2 0-1-7 1-9 1-2 1-6-1-7l-1-7c0-4-1-6-2-7v-2l-6-3c-4 0-5 1-3 4 4 3 2 5-4 3-4-2-5-1-1 3 6 6 10 19 7 19s-2 2 0 3c3 1 2 12-1 12l-1-2c1-2 0-7-1-7l-3-3c-1-4-5-5-17-5h-8l5 2 5 1 4 3 4 2 3 1c3 2-1 3-7 2-5 0-10 1-8 2l5 1c5 0 7 1 6 2h-2l-1 4c0 5 1 7 4 8 1 1-11 3-16 3l4 2c5 1 6 2 7 4 2 4 0 5-7 5-5 0-6 0-6 2s1 2 4 2c5 0 8 1 8 2l-2 1c-3 0-2 2 2 6 5 5 5 7 0 7-10 0-12 3-4 7 4 3 4 4 1 6-5 3-5 5-1 5 3 0 3 0 3 5v8c1 3 1 3-1 3l-2 2-2 1-4 2c-1 1-1 1 5 1 4 0 6 2 4 3h-3l-5 2c-7 3-12 4-18 4l-5 1-6 3-2-2c0-1-2-1-2 1-2 3-2 10-1 12a28 28 0 0021 0l2 1c0 1 9 2 14 1h15l13-1c11-1 10-1 9-3 0-2 0-3 2-3 1 0 1-1-2-2l-3-3 16 3 8 1-5-3c-4-2-5-2-4-3l3 1 8 2c5 0 7 1 10 4l4 3 3 1c3 2 3 2 5 1 1-2 3-2 7 1 1 2 3 2 10 1h16c5 0 5 0 5-4s0-4 3-4c2 0 2 0 1-1-3-2-2-4 2-5l4-3 2-2c2-1 3-4 2-5l-1-8 1-4c0-3 0-4 2-4s2 0 0-3c-2-4-2-5 0-5l2-1 2-3c2-2 4 1 3 6l-1 11c-2 17-2 18 0 23l2 7c1 4 4 5 7 2 2-2 3-5 1-5-3 0-5-16-2-18v-13l4 2 3 4c1 0 3 2 4 5 3 5 4 5 8 2 2-2 2-4 2-6-1-4 2-15 5-16 2 0 5-8 5-13 0-4 3-6 6-3s3 2 0-4c-5-10-6-12-8-12l-1-2-1-4c-1-1-2-2-1-3 0-1-2-8-5-13l-1-5-1-4-2-3c0-2-2-6-4-6l-1-2-2-4c-2-1-3-4-3-5l-2-4c-2-2-1-16 0-17l1-7c0-5 0-7 2-8l1-15c0-14 0-14-3-14l-2-1-3 2m148 13v4c2 1 1 2 0 6-3 5-2 7 1 6 1-1 2-15 1-17-1-3-2-2-2 1m34 18c0 2 1 4 3 4s2 1 2 4l1 4 2 9a32 32 0 004 15l1-3-2-12-2-13-1-4-3-2c-1-3-4-4-5-2m-357 2l-4 1-2 1h4a58 58 0 0115-1h5l-6-1H22m18 2l5 1c6-1 14 1 17 3h4l-3-2c-4-3-23-4-23-2m327 2c-2 2-2 2-8 2-6 1-6 0-5 8l2 4c2 0 6 6 6 8h2c2 0 3 3 1 5l-2 4-1 5c-4 4 3 5 6 1 1-1 1 0 1 3l-1 6c0 3-1 4-5 9-3 3-5 4-7 2-1-1-12-2-12 0l1 1 5 3c3 3 6 5 8 5a2 2 0 010 4c-2 0-5 7-5 12 1 3 3 4 3 2l2-1c2 0 4-3 4-6l2-5c1-1 2-3 1-4 0-2 2-5 4-5s2 0 1-2c-1-3 0-7 2-7l1-17v-17l-4-1c-3-1-3-1-1-12l1-7v-2l-2 2m-102 1l-1 2-1 2c-3 0-7-2-7-3h-1c-3 1-1 6 3 7l5 2 4-9-2-1m-246 6l-4 3-3 1-2 2-1 3-1 2c1 1 8-4 8-6l2-2 7-2 6-2h-4l-8 1m20 1l7 5 2 1c0 1 1 2 3 2l2 1-2 1H29l-1 2-1 2h9c8-1 17 1 24 6 5 4 7 2 2-2l-2-4c2 0-3-8-6-9-2-1-3-2-2-3 0-2 0-2-11-3-4-1-4-1-2 1m130 5l-2 6c-1 3 1 10 3 11 2 0 2-1 2-5 0-7-1-13-2-13l-1 1m50 11l-1 4c-2 1-1 2 0 3 2 2 2 2 3-1 3-4 3-8 0-8l-2 2m107 3l1 4v6l1 3 1 5 2 4 3 3 3 1c4 2 4-1 0-4-2-1-3-2-3-4l-2-4v-3c1-1 1-2-1-4l-2-6c-1-5-4-5-3-1m-306 2c-9 3-10 4-10 5 0 2 5 0 7-2l7-2c7 0 7 0 6-1-2-2-4-2-10 0m378 1l-3 1-1 1-2 1c0 2 1 2 3 1 3 0 4 1 1 3-1 1-1 1 1 3s3 2 3 0l1-11-3 1m-178 14c-1 2 1 10 2 11l1 4c0 2 1 3 2 3 1 1 1 1 1-1-2-7-2-8 1-8l3-2a14 14 0 00-8-7h-2m195 3l-1 4-1 3a7 7 0 001 8l-2 5c-1 4-1 4 2 3 2 0 3 0 4 2s1 3 2 2c2 0 2 0 2 2l-2 2-4 3 4 1c2 0 3 0 4 2 0 1 1 2 3 2l5 1c1 1 1 0 1-2l-1-5c0-1-1-2-3-2-3 0-3 0-2-2s1-3-4-12l-2-6-1-5-1-4c-1-3-2-4-4-2m-401 4a6 6 0 00-5 6v2c2 1 3 0 4-3l3-2 2-1 3-1c3 0 2-2-1-3l-6 2m391 9c-6 0-9 2-10 5l-2 4-1 2-2 4c-2 2-2 4-2 7 1 4 0 5-3 7-3 1-3 1-3 7l1 7v7c1 3 2 4 3 2l2-2c2 0 3-8 1-8l-1-3c2-6 3-3 4 5v8l3-4c2-3 2-4 1-7v-12c0-6-1-8-2-10-2-2-2-4 1-4 2 0 6 4 6 6l-2 2c-2 2-1 5 1 5 2-1 5 2 5 3v4l2 5v3l1-4 1-5 2-3v-2l-1-9c0-7-1-8-3-5s-5 1-4-3l-1-2-2-2c0-3 0-3 4-3l4-1 2-2 1-1c-1-2-1-2-6-1m-49 28c1 3 0 13-1 14-2 1-1 3 2 3l3-1h1l1 2c0 3 6 3 9 0 4-3 3-5-2-8l-4-5c0-2-3-5-5-4l-2-1-2-2v2M86 441c-1 2-1 4 1 6l1 7c0 4 0 5 3 3 2 0 2-1 1-3s0-2 2-4l4-3-1-2-1-3c-1-2-8-3-10-1m386 2l1 3 1 2 2 6 2 10 2 8 3 14c1 12 2 12 10 12s8 0 5-4l-1-9c1-7 0-12-3-12-5-2-12-10-16-20-3-7-6-12-6-10m-40 6c-1 3-4 4-10 4-5 0-6 4-1 8 2 2 3 4 2 5 0 1 0 2 2 1l2 1c1 1 0 1-1 2-1 0-2 1-2 3s-1 3-3 4c-3 1-4 7-2 8a14 14 0 0012-8l1-3 2-7 1-9c-1-7 2-11 4-5 1 3 1 3 1-2v-5h-4c-3 0-4 1-4 3m-134 0c2 2 2 2 0 3-2 2-2 2 0 3 1 1 2 3 2 7l1 6 4-4c-2-3 9-5 16-2 4 1-9-9-15-12-5-2-11-3-8-1m-103 1c-1 4 0 5 6 6 5 1 5 1 4-2l-5-4h-5m87 5l-2 1-3 1h-3c-1-1-2 0-6 4l-3 4 4 2 3 2 3 2c2 1 2 1 3-3 1-2 2-5 4-6 2-2 3-8 1-8l-1 1m-179 3v11l3 2c4 3 6-5 2-9l-2-4c0-3-2-2-3 0m224 0c-3 0-2 2 2 3 5 1 7 2 4 3l-2 1 3 1 6 1h4l-4 1c-3 0-4 0-4 2s1 2 4 2c5 0 5 2 1 4-3 1-4 7-1 7l1-2 7-2 1 3a2 2 0 103 0c0-2 0-3 2-3 3-1 2-3-2-3l-4-2c0-2 1-2 6-2 7 0 8-2 3-4-3-1-3-1-2-2 2-2 1-3-3-3-3 0-10-3-9-4l-2-1h-14m-128 14c-1 3 1 8 2 8 2-1 3-6 2-9s-4-3-4 1m254 1l-1 4c0 2 0 3-2 3s-5 4-5 6c2 5-11 11-17 8h-6l-7 3h-4l4 1c5 2 34 0 37-1l2-3 1-2 1-6v-6c1-5-1-9-3-7"
      tabindex="-1" itemprop="bold" style="fill-opacity: 0.768; fill-rule: evenodd;"></path>
    </symbol>
  </defs>
  <use class="background" href="#-posters-1650603798411-background" fill="url(#-posters-1650603798411-background-gradient"></use>
  <use class="light" href="#-posters-1650603798411-light" fill="url(#-posters-1650603798411-light-gradient" filter="url(#light-filter)"></use>
  <use class="regular" href="#-posters-1650603798411-regular" fill="url(#-posters-1650603798411-regular-gradient" filter="url(#regular-filter)"></use>
  <use class="bold" href="#-posters-1650603798411-bold" fill="url(#-posters-1650603798411-bold-gradient" filter="url(#bold-filter)"></use>
  <use class="emboss" tabindex="-1" href="#-posters-1650603798411-light" fill="url(#-posters-1650603798411-light-gradient" filter="url(#emboss)"></use>
  <use class="emboss" tabindex="-1" href="#-posters-1650603798411-regular" fill="url(#-posters-1650603798411-regular-gradient" filter="url(#emboss)"></use>
  <use class="emboss" tabindex="-1" href="#-posters-1650603798411-bold" fill="url(#-posters-1650603798411-bold-gradient" filter="url(#emboss)"></use>
  <defs>
    <g class="gradients">
      <radialGradient gradientUnits="userSpaceOnUse">
        <stop itemprop="radial" stop-color="hsla(35, 17%, 28%, 1.00)" offset="0%"></stop>
        <stop itemprop="radial" stop-color="hsla(37, 16%, 31%, 1.00)" offset="15%"></stop>
        <stop itemprop="radial" stop-color="hsla(38, 16%, 29%, 1.00)" offset="30%"></stop>
        <stop itemprop="radial" stop-color="hsla(36, 15%, 27%, 1.00)" offset="45%"></stop>
        <stop itemprop="radial" stop-color="hsla(39, 15%, 29%, 1.00)" offset="60%"></stop>
        <stop itemprop="radial" stop-color="hsla(38, 16%, 33%, 1.00)" offset="75%"></stop>
        <stop itemprop="radial" stop-color="hsla(39, 15%, 33%, 1.00)" offset="90%"></stop>
      </radialGradient>
      <linearGradient gradientUnits="userSpaceOnUse" x1="0" x2="0" y1="0" y2="100%">
        <stop itemprop="vertical" stop-color="hsla(35, 17%, 28%, 0.80)" offset="0%"></stop>
        <stop itemprop="vertical" stop-color="hsla(37, 16%, 31%, 0.80)" offset="15%"></stop>
        <stop itemprop="vertical" stop-color="hsla(38, 16%, 29%, 0.80)" offset="30%"></stop>
        <stop itemprop="vertical" stop-color="hsla(36, 15%, 27%, 0.80)" offset="45%"></stop>
        <stop itemprop="vertical" stop-color="hsla(39, 15%, 29%, 0.80)" offset="60%"></stop>
        <stop itemprop="vertical" stop-color="hsla(40, 16%, 33%, 0.80)" offset="75%"></stop>
        <stop itemprop="vertical" stop-color="hsla(39, 15%, 33%, 0.80)" offset="90%"></stop>
      </linearGradient>
      <linearGradient gradientUnits="userSpaceOnUse" x1="0" x2="100%" y1="0" y2="0">
        <stop itemprop="horizontal" stop-color="hsla(37, 16%, 28%, 1.00)" offset="0%"></stop>
        <stop itemprop="horizontal" stop-color="hsla(37, 16%, 32%, 1.00)" offset="15%"></stop>
        <stop itemprop="horizontal" stop-color="hsla(37, 15%, 27%, 1.00)" offset="30%"></stop>
        <stop itemprop="horizontal" stop-color="hsla(38, 15%, 29%, 1.00)" offset="45%"></stop>
        <stop itemprop="horizontal" stop-color="hsla(38, 16%, 34%, 1.00)" offset="60%"></stop>
        <stop itemprop="horizontal" stop-color="hsla(36, 16%, 32%, 1.00)" offset="75%"></stop>
        <stop itemprop="horizontal" stop-color="hsla(38, 16%, 33%, 1.00)" offset="90%"></stop>
      </linearGradient>
    </g>
    <g class="generated gradients">
      <radialGradient id="-posters-1650603798411-background-gradient" gradientUnits="userSpaceOnUse">
        <stop stop-color="hsla(35, 17%, 80%, 1)" offset="0%"></stop>
        <stop stop-color="hsla(37, 16%, 80%, 1)" offset="15%"></stop>
        <stop stop-color="hsla(38, 16%, 80%, 1)" offset="30%"></stop>
        <stop stop-color="hsla(36, 15%, 80%, 1)" offset="45%"></stop>
        <stop stop-color="hsla(39, 15%, 80%, 1)" offset="60%"></stop>
        <stop stop-color="hsla(38, 16%, 80%, 1)" offset="75%"></stop>
        <stop stop-color="hsla(39, 15%, 80%, 1)" offset="90%"></stop>
      </radialGradient>
      <linearGradient id="-posters-1650603798411-light-gradient" gradientUnits="userSpaceOnUse" x1="0%" x2="0" y1="0" y2="100%">
        <stop stop-color="hsla(35, 17%, 60%, 0.9)" offset="0%"></stop>
        <stop stop-color="hsla(37, 16%, 60%, 0.9)" offset="15%"></stop>
        <stop stop-color="hsla(38, 16%, 60%, 0.9)" offset="30%"></stop>
        <stop stop-color="hsla(36, 15%, 60%, 0.9)" offset="45%"></stop>
        <stop stop-color="hsla(39, 15%, 60%, 0.9)" offset="60%"></stop>
        <stop stop-color="hsla(40, 16%, 60%, 0.9)" offset="75%"></stop>
        <stop stop-color="hsla(39, 15%, 60%, 0.9)" offset="90%"></stop>
      </linearGradient>
      <linearGradient id="-posters-1650603798411-regular-gradient" gradientUnits="userSpaceOnUse" x1="0" x2="100%" y1="0" y2="0">
        <stop stop-color="hsla(37, 16%, 50%, 1)" offset="0%"></stop>
        <stop stop-color="hsla(37, 16%, 50%, 1)" offset="15%"></stop>
        <stop stop-color="hsla(37, 15%, 50%, 1)" offset="30%"></stop>
        <stop stop-color="hsla(38, 15%, 50%, 1)" offset="45%"></stop>
        <stop stop-color="hsla(38, 16%, 50%, 1)" offset="60%"></stop>
        <stop stop-color="hsla(36, 16%, 50%, 1)" offset="75%"></stop>
        <stop stop-color="hsla(38, 16%, 50%, 1)" offset="90%"></stop>
      </linearGradient>
      <linearGradient id="-posters-1650603798411-bold-gradient" gradientUnits="userSpaceOnUse" x1="0" x2="100%" y1="0" y2="0">
        <stop stop-color="hsla(35, 10%, 8%, 1)" offset="0%"></stop>
        <stop stop-color="hsla(37, 10%, 8%, 1)" offset="15%"></stop>
        <stop stop-color="hsla(38, 10%, 8%, 1)" offset="30%"></stop>
        <stop stop-color="hsla(36, 10%, 8%, 1)" offset="45%"></stop>
        <stop stop-color="hsla(39, 10%, 8%, 1)" offset="60%"></stop>
        <stop stop-color="hsla(40, 10%, 8%, 1)" offset="75%"></stop>
        <stop stop-color="hsla(39, 10%, 8%, 1)" offset="90%"></stop>
      </linearGradient>
    </g>
  </defs>
  <defs>
    <filter id="light-filter">
      <feColorMatrix in="SourceGraphic" type="matrix" values="1.5 0 0 0 0
                0 1.5 0 0 0
                0 0 1.5 0 0
                0 0 0 1.5 0"></feColorMatrix>
    </filter>
    <filter id="regular-filter">
      <feColorMatrix in="SourceGraphic" type="matrix" values="1.5 0 0 0 0
                0 1.5 0 0 0
                0 0 1.5 0 0
                0 0 0 1 0"></feColorMatrix>
    </filter>
    <filter id="bold-filter">
      <feColorMatrix in="SourceGraphic" type="matrix" values="1 0 0 0 0
                0 1 0 0 0
                0 0 1 0 0
                0 0 0 1 0"></feColorMatrix>
    </filter>
    <filter id="emboss">
      <feConvolveMatrix kernelMatrix="1 0 0
                      0 0 0
                      0 0 -1"></feConvolveMatrix>
    </filter>
  </defs>
</svg>
