<svg id="-posters-1650603905502" itemscope="" itemtype="/posters" itemid="/+/posters/1650603905502" viewBox="0 0 686 512" preserveAspectRatio="xMidYMid slice" tabindex="0" xmlns="http://www.w3.org/2000/svg">
  <defs>
    <symbol id="-posters-1650603905502-background">
      <rect itemprop="background" width="100%" height="100%" tabindex="-1"></rect>
    </symbol>
    <symbol id="-posters-1650603905502-light">
      <path d="M0 256v256h98l98-1h44l5-1 6-1h10c6-1 12-1 15 1l8 1 5-1 4 1c-1 2 90 1 92 0h2l150 1h150V0h-92l-93 1h-1c0-2-3-1-3 1-1 2-4 2-4-1l-9-1-8 1c1 1 0 4-2 4l-1-1c0-2-7-4-15-4h-8l-3 5-7 7-3 4c0 3-2 2-4-1 0-2-2-4-4-4l-2-3c1-1-1-3-5-4-3 0-4-1-4-3l-48-1-34 1 15 1-1 1-1 2-2 1c-2 0-7 5-7 8-1 2-4 4-5 2-1-1-8-5-9-4l-3 3c-1 4-2 4-4 1-3-4 2-12 5-10l3-3-4-1c-2 0-3 0-2-1l-22-1c-25 0-26 0-20 6l1 3c-2 1-2 7 0 6 4-1 3 4-1 6l-2 3-2 1c-2-1-4-1-5 1-2 1-2 1-4-1-1-1-3 0-3 2s-3 1-5-1l-5-1-2-1c0-2 2-3 4-1 1 2 8 0 9-2 0-2 2-3 4-3a5 5 0 005-8c1-4-10-3-12 0l-3 2c-3 0-6 2-6 3a29 29 0 01-18 0l-2-3c0-3-1-4-4-2-1 1-2 2-3 1l-3 1c-1 2-1 2 1 2s3 2 3 6l2 4c1 1 1 1-2 3-2 3-2 3-4 1l-1-3c1-1 0-1-2-1-4 0-4-1-4-7-1-5-1-6-4-7l-4-1-4-1-4-1-1-2-2-2c-1-2-1-2 1-2 1-1-32-1-72-1S53 0 54 1c2 0 2 0 0 5-2 4-3 5-5 3h-2l-1 1c-2 0-5-5-4-6l-3-1c-4 0-4-2 1-2L22 0H0v256m0 1c0 140 1 198 1 127a76920 76920 0 00-1-127M490 14c-4 5-3 10 2 16l6 8 4 2c2 0 2 0 0-3-3-3-4-4-1-6 2-1 2-6 1-9l-1-2c1-2-1-4-3-5-1-1-1-1 1-1 4 0 1-2-3-2l-6 2m-32 8l2 2-2 1-2 1h-2l-1-2-1-1c-2 0-2 0-2 5s0 6 3 6 4 2 2 4c-2 1 1 4 4 4s4 1 1 2c-3 2-5 1-8-2-2-2-2-2-5-1l-6 1v1l1 4c0 4 3 9 5 9 3 1 5-1 5-3s4-1 6 1 9 2 11 0h2c3 2 8 1 6-2l1-4 1-5c-1-2-3-1-4 3 0 4 0 5-3 5-4-1-5-6-1-7 2-1 3-5 1-10 0-2-1-2-2-1-1 2-1 2 1 3v2c-2 3-3 2-3 0s-1-2-2-2l-2-2h1c2 1 3-1 1-3l-2-2v-3c-1-2-1-2 1-1 3 1 9 1 7-1l-2-2h-8l-3-1c-3 0-3 0-1 1m62 12l-2 4v3l3 2c3 4 5 2 4-4v-6h-3c-2-1-3-1-2 1M3 37c-2 1-1 8 2 9l2 2 1 1a10 10 0 00-1-11c-1-2-1-2-4-1m157 7c-2 0-4 2-5 3-5 6-8 8-8 5l-1-2-3 2c-2 2-8 1-11-2-2-3-8-4-9-1a9 9 0 005 11l2 3 8 14c2 5 8 3 8-3l1-3 1-2 1-3c1-1 1-1-1-2-1-2-1-2 1-3 2-3 6-2 6 0 1 4 8 1 16-6l5-5-3-3c-2-4-5-5-13-3m-49 3l-4 2-8 4-8 3c-3 0-11 5-12 7l-6 6-5 5-6 8a90 90 0 00-19 41c-4 13-4 16-3 21l2 8 1 8h3c2 1 2 1 2-2s1-4 2-5c2-2 2-3 3-9 0-9 1-13 4-17 4-6 6-12 6-14-1-1 3-8 6-11l2-2 2 2 2 4 1 2c2 0 3-5 4-13l1-6c1-1 2-2 1-3-1-4 10-7 13-3 2 2 2 2 3 1 1-4 21-5 26-2 3 2 10 2 7 0-2-1-4-5-4-7l-4-7a19 19 0 01-3-15c0-8-4-11-9-6m72 5l-4 1c2 2 1 5-2 7-2 1-3 2-3 4l-2 3c-4 2-7 9-7 14 0 6 2 8 4 5 2-2 9-1 10 1v3c0 3 6-1 6-5l2-6c2-2 2-4 1-5-2-2 1-7 4-4l4 1c6-1 5-6-2-13l-6-6h-5m307 9l-2 4 4 1c9 3 13-1 6-6-4-3-5-3-8 1m-165 4c-2 1-1 9 0 10l4 1 3 1-2-3c-3-4-4-7-2-5v-3c-1-2-2-2-3-1m-50 5c-1 1 2 10 4 13l4 3c4 0 5 2 6 9 0 4 1 6 2 6 2 0 3-5 1-6l-1-4-2-4-2-2 3-2c4-1 12-2 15-1 2 1 3 6 1 6-1 0-3 2-4 5a14 14 0 01-4 6l1 1 4 1c3 1 3 1 8-2 7-4 7-6 6-13-2-10-6-14-13-13l-5 5c-1 4-1 4-7 0l-17-8m325 5l-2 1c-3 0-8 3-7 3v5c-1 0-3-3-2-5l-5-2c-5 0-7 1-8 7 0 6 3 8 8 5 2-2 3-1 4 3s0 5-2 2-4-3-4 0c0 2 1 3 3 3 3 0 4 1 1 3-2 1-2 8 1 11a19 19 0 0019-1h2l2-1 1-1 3-4 2-3 1-1c2 1 8-5 6-6h-4l2-2c3-2 2-7-2-9l-3-3c0-3-1-3-4-3l-7-2h-5M107 92v6c2 2 2 5 1 10 0 8 0 8 2 9a4 4 0 013 5l1 1h5l1 1h2l6 2c3 0 4 3 2 4l-2 2-1 2a1 1 0 102 2l2 1 4 2 6 5c6 6 8 3 6-6-1-10-4-15-6-15v-1c1-1 0-4-1-4l-1-2-3-4c-3-2-4-4-4-6l-1-5c0-2-12-8-17-8l-4-2c0-2-2-1-3 1m520 8l-5 5-4 8-2 5c1 4 0 5-3 4l-5-1c-3 0-5-1-2-3h7c1 0 2-5 1-6-3-1-5-1-10 4-4 4-4 5-4 10 0 8-4 8-5 0 0-4-1-4-3-4-5 0-11 3-9 4 2 2 1 3-1 3-1 0-2 0-1-1h-4l-2 4-4 4a42 42 0 00-18 15l-3 4-2 2c-2 0-3 2-3 2 0 2-6 8-8 8l-3 2-6 2-6 3-2 2-3 2-6 3-9 2-10 2-12 2c-8 2-13 2-10-1 2-1 2-1 0-2l-4 1h-6c-1-1 2-3 6-2 2 0 2 0-1-1h-9c-6 1-7 1-9-1-8-7-16-7-17 0v4c-1 1 0 3 2 5 2 3 11 4 15 1l7-1h6l3 1-3 1-4 2c-1 2-4 3-6 1-2-3-4-2-7 0-4 3-20 3-27 2-4-1-3-2 2-3 6 0 9-1 9-2 0-2-1-2-6-1l-11-1-7-2c-2 0-2 0-1-1v-5c0-4 0-4-4-4-6 0-6 0-3 6 2 5 5 7 12 7 3 0 5 3 5 8v3h15v3c0 2-1 3-4 5-5 3-6 4-5 6 1 3-7 7-12 5-2-1-3-4 0-4 2-1 3-3 2-6 0-3-3-3-5-1-10 12-16 16-20 14l-4-1c-2 1-5 0-7-1-1-1-4-2-5-1l-4-1c-3-2-4-2-4 2v3l-5-1-7-2c-2-2-8-4-9-2-2 1-9 0-10-1l-2-1-3-1-4-2c-4-1-3-3 3-4 4-1 5 0 3 2-2 1-1 2 2 2l5-1c3 0 2-2-1-2-1 0-2 0-1-1 2 0 1-2-1-2l-2-1h-4l-19 2-2-2c-4-1-4-3-1-3 4 1 6 0 4-2v-2l-10-6-12 3-12 3-4 1-5 1-4 2c-3 0-3 0-3 4l1 3c3 0 5 4 4 6l-1 10c0 5-1 8-2 9v5c1 3 1 4-1 5l-2 3 3 2c6 4 6 4 8 2 1-2 1-2 2-1s2 2 3 1l6 4a23 23 0 0010 6c2 2 2 2 4 0 3-2 3-2 5-1l5 1 5 2 6 2c3 1 7 2 9 4l8 3 5 2 3 1 5 3c3 5 5 5 7 3l6-2 5-1 3 2 7 2 6 2c1 3 9 9 12 9l3 1v-7c0-12 0-13 3-14l4-2c2-2 2-2 3-1 2 4 7-3 5-8-1-2-1-2-5-1-11 2-19 0-18-5 2-3 2-8 1-10v-2l-4-1-4 2-2 2-2 1v2c2 1 2 1-3 1l-4-1c0-2-1-2-3-2l-1-3v-4c-1-2-1-2 1-2l2 2c1 2 6 1 8-1 1-3 11-3 17-2 1 1 2 0 3-2l3-3 8-3 13-5 9-3h6c1 2 7 2 12 1 7-3 8-4 6-5-4-3 2-5 17-6l10-1c-1-2 2-2 5 0 2 1 3 1 5-2 2-2 3-3 4-2v3c-1 1 0 1 5 1l12-1c5-1 8-1 10-3l4-2c3 0 11-4 13-7l5-3c4 0 6-6 2-8-1-1 0-1 4-3 3-2 5-3 4-5h1c2 0 2 0 2-3s2-5 4-5c4 0 10-9 8-11-1-2-1-2 1-2l5-1c2 0 3 2 1 4a85 85 0 00-12 27c-1 1-2 3-1 5l-1 4v5c0 2 0 4-3 7l-4 5a16 16 0 007 10c1 2 9 1 10-1 1-3 3-4 3-2 0 1 3 2 5 1h3c1 1 2 0 4-1l4-2 6-5c0-3 1-6 3-6l8-3 7-3v8c0 2 0 2-1 1-1 0-2-1-1-2l-2-1-1 2-3 3-2 2 9-1c3-2 6-1 6 1s-1 2-3 2l-4 2-5 1-6 1-4 9-3 4-2-1-8-3-6-1-5 1c-4 1-19 1-25-1l-10 1-13 2-8 1-15 2-14 2c-4 0-2 2 3 1l17 2 1-2c1-3 4-4 4-1s3 5 7 5 5 1 2 2c-5 2-8 2-15 0-23-4-46-6-49-2l-11 5c-11 3-17 8-17 13l2 4c2 1 4 5 3 10v6c1 0 1 3-1 8l-2 17-1 11v16l-1 17c-2 2-2 21 0 21s2 1 2 8c0 9-1 11-3 11a12 12 0 00-3 14v5c0 3 1 5 5 12l5 7c3 4 8 8 12 8 2 0 3-3 3-12 1-8 2-13 4-13 1 0 2 6 1 10s-2 20-1 24c2 3 15 8 21 7h4l3 1c3 0 5 3 2 3v2c2 1 3 1 3-1l3-4c5-5 7-11 8-17l2-9 1-4 1-4 2-10 1-11c3-5 4-12 3-17 0-5 1-6 3-4 1 1 1 1 1-2l-1-5c0-2 0-2-1 0-2 1-2 1-2-1-1-3 0-11 2-12v-8c-1-2-6 0-8 4s-6 9-13 16c-3 2-6 6-6 8l-4 5-17 19c-2 3-4 3-4 0 0-2 1-4 3-5l9-12c0-2 8-11 10-11 1 0 10-13 10-15l4-6 4-7 1-3c2 0 2-6 1-7s7-3 11-3l3 5c2 4 8 10 7 5-1-1-1-1 0 0l5 1h3l-2-4-3-5-1-3-3-3-2-5-2-4-3-4c-2-2-5-6-6-10l-8-11-6-7c0-2-9-11-17-17-10-7-9-10 1-4l7 3c1 0 3 1 3 3l3 3h2c0 2 4 5 7 6l3 3c1 3 4 6 6 5 1 0 3 4 2 6s1 3 3 0c4-3 5-3 4 1l1 5c2 2 1 4-2 2-2-2-1 1 1 4 1 1 1 1 2-1s3-2 3 0c0 1 1 2 3 2l4 2c0 1-5 3-6 1-2-1-3-1-2 1l2 1v1l1 3 3 5 4 8 3 6c1 2 3 4 3 2 0-3 3-4 4-2l4 3 10 6c2 2 9 3 9 1l-1-1h-2c0-2 5 0 8 4 3 3 6 4 8 2l4-1c7 0 14-2 18-5l8-5 5-5 5-5 2-5 3-6 2-2 3-8 3-9c-2-3-8-9-12-10l-6-3-5-3-6-4c-3-2-5-4-6-3v1h-4c-4 0-5 0-6 2-2 3-7 3-8 0 0-2-5-5-7-4-1 1-3 0-4-2l-4-2-2-1-7-4c-5-3-7-6-5-10 1-2 1-2 2 1 2 4 5 5 10 5l5 1c4 5 16 9 20 6v-3c-2-1-2-2-1-2l2 2c2 1 11 1 11-1l4-2c16-2 28-13 32-29l5-14 4-11c0-1 1-3 3-3 1-1 2-1 1-3l1-3 2-3 2-1c2 0 3-1 4-4l4-7 2-5 3-4c2-2 2-2 2-9l-2-8-2-8-2-7v6c1 8 1 22-1 25s-2 3-2-12c-1-11-1-16-3-21l-2-9c1-4-12-20-17-20-2 0-2-3 1-6 1-1 1-2-1-4v-4c2-2 0-3-4-2m-424 9c-3 2-2 5 2 6h4c2 1 7-1 7-2 0-3-11-6-13-4m-53 7l1 5 1 4 2 8a20 20 0 003 10l1 4 2 3c0 2 2 4 3 3l-4-13-3-10c-1-9-4-16-5-16l-1 2m433 21l-2 6-3 4c-1 4 1 4 3 0l3-5c2-3 2-8 0-9l-1 4m-398 2c-4 1-4 1 8 2l12 1h4c1-2 0-2-9-2l-11-1h-4m30 1c2 2 14 3 16 2 3-2 0-2-9-3-7 0-8 0-7 1m24 3c-2 1-2 1 0 2 1 1 1 1-1 1s-3 0-2-2h-1c-1 1-2 2-11 1-7 0-9 0-8 1 1 2 29 2 29 0s-4-4-6-3m-113 5c-2 1-3 3-5 7-4 7-4 7-1 7 2 0 2 1 2 3l1 5v8c-1 4 0 5 2 2s3-2 4 1l2 3 1 3c-1 3-1 3 1 3l2 2 3 2-2 1c-4 2-5 4-2 4h10c3-3 8-2 8 0l-1 3c0 2-7 3-10 1l-3-1c-2 1-2 1 1 1l3 2 1 1c1-1 4 0 6 1l7 1 4 2 3 1 1 1 3 1 2-2 3-3c3-1 5-1 5 1s7 5 7 4v2l-2 5c-1 1-1 1 1 1l2 1 5 3c7 3 12 9 12 14l2 5 1 4c0 2 5 6 7 6l2-2c0-5 2-4 5 1l3 4a34 34 0 00-1-16l-2-4c-3-1-5-6-2-7s0-4-6-5l-5-5c-4-6-20-16-27-17-4 0-6-1-7-2l-4-2c-2 0-2 0-3-3l-3-5a13 13 0 01-7-13c-1-5-1-5 1-8 2-2 2-2-1-2l-3-4c0-4-1-4-8-11-3-4-4-4-7-3l-5-1c-1-2-2-2-6-1m478 21l-2 9-3 7c-2 3-2 3-1 5 3 1 4 1 4-2l1-2 1-6a27 27 0 015-15c-1-2-3-1-5 4m13-4c-1 1-2 1-1 2l-2 1c-2-1-3 1-3 6 0 3 1 3 4-2l5-3c1 1 3-3 3-5l-6 1m-265 23l-9 2c-3-1-12 2-13 3l-1 6c-1 4-1 4 2 4 2 1 3 0 4-1 1-2 1-2-1-2-4 0-5-2-2-5 4-3 13-3 17 0l4 1c1-4 3-5 7-3l5 2v-4c-1-6-2-6-13-3m303 12c-2 1-7 8-7 11l-2 5-1 4 3-2 6-6 4-4v-9l-3 1m-223 9c-4 1-11 5-11 7 0 1 8 0 10-2l5-2 2-1c1-1-2-3-6-2m215 19l-5 7-6 12c-2 4-2 4-1 7 2 3 1 5-2 5l-1 1c0 2-4 6-7 6l-4 3h-4c-1-2-2-2-3 0l-3 2a5 5 0 00-4 8c7 0 12 2 12 4-1 5 2 7 6 3l4-2c2 0 6-3 5-4l2-5v-7l1-2c2 1 9-13 9-17l-1-3 1-4 2-6 2-7c2-7 1-8-3-1M88 242l-1 1 4 2 3 4c0 3 2 5 6 5l4-2 3-2c2-1 3-2 3-5 0-4-3-4-6 1-2 3-4 3-4 1 0-1-2-3-5-4-7-3-7-3-7-1m341 5l-5 1c-2 1-2 2-2 3 1 1 0 2-1 4-3 2-4 4-2 7 0 2 2 1 2-1s6-8 10-10l2-2v-1c2-2-1-3-4-1m-21 27c-6 4-8 11-3 11 2-1 2-1 2-4l2-4c2-1 5-5 3-5l-4 2m27 2v2l-2 2v2l1 7 1 8 1 8 1 10c3 6 2 9 0 12-3 2-3 4 1 4 2 0 2 0 1 1-7 4-10 12-5 12l2-1a1 1 0 112 1l4 6c3 3 5 6 5 8l3 4v-8l-1-11-3-18-2-15v-3c3-5 0-27-4-29l-3-2h-2m-285 11c-4 1-4 8 1 8l1 2 2 4c2 2 2 8 0 8l-4-2c-2-1-2-1-1 1 3 6 18 12 22 8 3-3 2-5-2-6s-3-3 1-4c3 0 5-2 2-2l-1-2 2-2 2 2c0 2 5 4 6 3l-1-17c-1-1-1-1-2 1h-9l-7-1c-3-1-9-2-12-1m61 0l3 4c1 0 4 2 7 6 6 5 8 6 6 3l-2-3-1-1-4-4c-5-5-9-7-9-5m-26 3v11c1 0 7-9 7-11 0-3-6-3-7 0m-49 16c-2 3 4 22 7 22l6 4 8 4c3 1 14-5 19-9 3-3 5-4 5-2s-13 14-15 14h-3l-3 1h-5l-2 1 2 2c2 2 3 3 3 5 0 1 1 2 4 2s10 7 10 10c0 2 4 5 7 6 5 0 9 3 11 7 1 2 2 3 4 3l6 2 3 1v8l-1 7 4-1h6c3 2 10-2 11-6 0-2 1-4 3-5l2-5 2-5c3-4-4-13-11-15-2 0-5-2-8-5-4-3-5-4-6-3h-2l-3-4-4-7c1-2-1-6-3-6l-3-2-7-5c-3-3-3-4-3-6v-3c-2 0-8 4-12 8-2 3-5 5-6 5l1-2c3-4 2-7-3-5l-4-1-4-4-9-7c-5-5-5-6-7-4m57 4v4l3 4 3 4 2 2 1 1v-13c0-6-8-8-9-2m224 14l-2 4c-2 0-3 1-3 9l-3 10c-2 6-4 21-3 22l-2 7-1 6 3 6c4 9 10 9 10 1l2-48 1-21-2 4m-196 4v1l1 3 2 4 2 3 1 2v3l-1 2 1-1h1c3 1 4-3 2-7-5-10-6-12-6-9h-1c0-1-1-2-2-1m-88 17c-2 2-3 3-5 3-5 0-8 1-8 3s3 5 5 5h3l2 3 1 3 1 2 2 4 2 3v-4c0-3 0-3 4-3l5 1v-5l-1-6-3-1c-2 0-2 0-2-2l-2-3-1-3c0-2-1-2-3 0m143 4l-2 3c-3 2-2 6 1 5 4-1 7 7 5 11v3c1 4 4 5 4 1l1-2c2 0 4-4 4-7l1-2c1 0 1-1-3-6-3-3-6-5-9-4l-1-1-1-2v1m47 8c0 2 1 3 2 3l1 2c0 2 4 5 7 6 2 1 2 10 0 12l-5 10c0 1 7 2 9 0 3-3 6-3 10 0l4 2c1 1 1 1-1 1s-4 2-2 2c3 0 4 2 3 3-1 2-1 2 2 3l5 3 3 2 3 3c1 2 2 2 6 2s6 3 4 7c0 2 5 7 7 7l3 3 6 5a2520 2520 0 0111 7l5 2c9 4 11 6 12 7h5l6-1c3 1 4 0 2-1l-1-2-2-4-3-4-4-4a41 41 0 01-9-7l-2-3-1-1-4-3-12-15-4-6-3-3-9-8c-4-5-7-7-9-7l-3-2c-2-3-4-5-8-5l-5-4c-1-2-4-5-8-7-19-9-20-9-21-5m-210 2l-4 2-3 1c-2 0-2 1-2 3l-1 3c-2-2-5 3-5 8 1 6 1 7 5 5 6-3 9-2 9 2l-1 4-2 2c0 3-3 2-4 0-2-4-5 0-3 4l2 3c0-2 4 1 4 3l2 1 2-1c0-2-2-4-5-4l-2-1c0-2 2-1 7 1 3 1 4 2 3 4 0 2 2 3 4 2v-2c-2-2-2-4 0-4l1-3c0-1 1-2 3-1 3 0 6-2 5-5 0-3-3-3-4 0-1 2-1 2-2 0s0-4 4-4c2-1 3-5 0-6-2 0-3-8-1-8l-2-1c-3 0-4-1-4-3 0-4-2-6-6-5m190 18l1 5c0 3 0 3 2 3 3-1 4 2 3 5-1 6 9 4 11-2 1-4 5-9 6-8l3-3c0-2-8-1-10 1s-3 2-3 0l-5-1-6-1c-2-1-2-1-2 1m-23 0l1 4c-1 1 0 2 1 2l3 2 3 1 1 2 1 2v3h1c3-4 2-6-1-8l-4-3c0-2-4-6-6-6v1m-105 2c-1 2-1 2-5 1s-6 0-6 4c-2 9-2 13 2 14 5 2 5 3 6 5v2c-1-1-2 2 0 4h1c0-2 3-3 4-2l1 3c-1 2-1 2 1 3 4 2 6 1 6-2a2 2 0 014-2c-1 1 4 4 5 3l1-1c-1-1 0-7 1-22 1-4 1-5-1-5-1-1-1-1 1-1l2-1h-3c-1 0-3 0-4-2-3-3-4-2-3 2 1 3 0 5-3 2l-3-2-2-1 2-1 1-1-1-1-4-1c-1 0-2 0-3 2m60-1a3 3 0 01-4 1l-1 2c0 3-4 12-6 13-2 0-3 2 0 2 2 0 7-3 8-5l3-1c2 0 2 0 0-1-1-2-1-2 1-4l2-5c0-2-2-3-3-2m-85 1l-2 2c-3 1-3 6-1 7v3c-1 3-1 3 3 4 4 0 4 0 5-5v-6l1-2v-3h-6m91 10l-2 5v2c2 2 1 5-1 7-2 1-3 3-1 3s7-6 6-7 0-2 2-4a3 3 0 000-5v-2c0-2 0-2-2-2s-2 1-2 3m87 4l-1 2v4c0 3 1 4 3 2l3-2c2 0 2 0 2-2l-1-3c0-2-4-2-6-1m-225 10c0 4-2 5-5 3-2-2-2 0 0 3 3 2 6 3 6 1s1-2 4-2c6 0 7-1 4-4-4-5-8-5-9-1m220 10l1 3-3-2c-4-1-14-1-15 1l3 1h17c1 0 0-4-2-5-1-1-1-1-1 2m-205 22l-3 1c-2 0-3 1-3 4-1 5-1 6 5 6l7 1c2 3 7 2 7 0l-1-5c-1-5-10-10-12-7m108 6h-5l-2 3-5 6-4 6c-2 5-6 2-6-4 0-2-4-3-15-2l-3-1c2-1-10-3-12-2s-1 4 1 3l3 2 8 3 9 2 7 3 6 2c2 2 5 1 5-1s3-5 4-5c2 0 1 2-1 4-3 4 3 8 7 5 3-2 5-2 3 0-1 2-1 5 1 5l3-2c1-1 3-2 4-1 2 0 3 4 1 4v1h3l7-4 6-4c-1-1 4-7 6-7 2-1 0-4-3-6-2 0-4-2-5-4 0-2-2-3-3-3l-4-1c-3-2-12-3-16-2m35 16c0 2 1 3 4 3l5 2c4 4 13 5 17 3v-1c-2 0-6-5-4-5l4 3 4 2 2 1c1 2 3 3 18 6h10c0-1-10-7-14-8l-13-3-14-3c-9 0-16-1-17-2-2-1-2-1-2 2m192 4c-2 1-3 2-2 3 1 2 8 5 10 5l11 6 6 4 2 2c-1 0 0 4 2 7l2 5c1 3 6 6 16 9 4 1 12 0 14-2 2-1-1-12-3-13l-2-3-4-4-4-5-4-2a134 134 0 01-13-4l-7-4c-7-7-18-9-24-4"
      tabindex="-1" itemprop="light" style="fill-opacity: 0.9; fill-rule: evenodd;"></path>
    </symbol>
    <symbol id="-posters-1650603905502-regular">
      <path d="M66 2c2 1 2 1 0 1-4 0-7 5-5 8 1 1-1 2-8 3a13 13 0 01-14-4c-3 0-2 2 2 4 2 0 3 2 4 3l1 2v-1c0-2 3-3 6-3l5 5c2 4 5 4 5 0l2-3 2-4c-1-1 2-2 8-1l4-1-3-1V7h-5l-4-1 3-1c1-1 2-1 1-2-1 0-1-1 1-2 1-1 1-1-3-1s-4 0-2 2m40 0l-2 1h-1l3 1 5 2 3 2V7c-2-1-1-2 2-4l3-3h-6c-5 0-7 0-7 2m261-1c1 0 0 2-2 3l-3 3-3 4-2 4c1 2-4 7-6 7l-2 1-2-1-5-2h-6c-2-1-4-1-4 1l-8 1c-10-1-10-2-10-6v-4l-4 1c-4 0-4 0-5-2a4 4 0 00-5-4l-3 1-5 2c-4 0-6 3-4 6 3 2 2 4 0 4-3 1-10 8-10 10 0 1-4 3-8 3l-4 2c-1 3-1 3-5 2-3 0-4 0-7 3-6 7-16 8-20 4-3-3-8-5-9-2-1 4-8 3-11-2 0-2-2-3-3-3l-3-1v-2c2 0 0-2-3-3-2-1-2-2-2-3 1-2 0-3-2-5l-3-4-1-1-2 1 1 3 2 2c1 0 2 1 1 2s-1 1-4-1l-2-4-1-2-1-3c1-2-5-7-8-8-2 0-2-1-2-3 0-3-4-3-6 0s-1 4 5 5c4 2 5 2 6 5 2 4 1 5-1 2-4-5-8-6-25-6-8 0-8 0-7-1l3-2 1-1h-10c-3 2-4 4-1 4l2 1-9-2-5-2h-4c-2-1-2-1 0 0 1 1 2 2 1 3l2 2 3 1h-8c-3 2-2 3 3 4 6 0 6 1 1 3-4 1-5 0-6-1-2-2-2-2-4-1l-3 2v2c2 2 0 5-2 4h-2c-2 2-8 1-9 0-1-2 2-3 5-3h2c1-1-4-3-8-3l-6-1c-2 0-2 0-1 2v3c-3 1-2 2 1 2 2-1 2-1 2 1l1 2 1 1c1 3-4 4-6 1l-5-3c-4-2-5-4-3-4v-1c-2-3 0-4 3-4 2 1 3 0 0-2v-3l-2-2c-2-1-2 0-1 1 0 2 0 2-1 1-1-2-1-2-2 0 0 2-1 3-4 3s-3 0-1 1c3 1 4 3 1 4-4 0-3 2 1 3 7 2 7 8 0 10l-5 1-5 1c-4-1-5-1-9-6-5-6-7-6-10-1-2 4-4 3-5-1l-4-5-5-3c-1-2-4-3-6-3l-4-2-3-1c-5 1-6 5-4 12l1 10c1 4 1 5 3 6l2 3c0 3 2 4 7 2a9 9 0 005-3c2 0 3-2 3-7 0-4 2-4 3 1v3h16c2 1 2 1 1-1 0-2 0-2 2-2 4 0 6 3 3 3-1 1-2 1-1 3l-3 3c-4 2-4 5 0 5 2 0 2 0 2 2l-1 2h-3l-5 2-4 1-2 2c0 3-4 0-6-5s-4-6-5-3l-4 1c-3-1-3-1-3 2s0 3-3 2c-6-1-11 1-12 4-1 2-2 2-5 2-3-1-3-1-4 1-1 3-2 4-4 2l-3-2-2-9c-1-1-1 100-1 226v228h32l32-1c0-2 4-3 6-2l1 2c-1 2 7 1 10 0 2-2 4-2 2 0-1 1-1 1 3 1l5-1v-1l1-2c0-3 0-3 6-1l6 2h1c0-3-3-5-6-5-2 0-2 0-1-1v-5l1-4c0-8 10-7 12 1h4c4-2 6-5 5-7 0-1 2-2 3-1 1 2 2 1 3-2 0-3 0-3-3-3h-5c0-2 1-2 4-3h6c1-1 3 0 5 1 3 1 4 1 3-1 0-1 2-5 6-7 4-1 6-1 3 1-2 1-6 7-6 10 0 2 2 1 3-1l1-2 3-4 4-3c2 0 2 0 1-3-1-2 0-3 4 0 3 1 2 4-3 5-2 1-2 1-1 2v2l1 1 1 1 2 3v2c-2 0-3 3-1 5h6l6 1c1 1 2 0 3-1h7c0 2 3 1 7-3 2-2 5-1 4 1l3 1c4-1 7 2 3 3-1 0-2 1-1 2l-1 4c-1 1-2 2-1 3 0 2 3 3 3 2h6c0 1 2 0 4-3 1-3 1-3-2-4-7-3-6-7 2-7 7 0 8-1 4-3l-4-3c-1-1 3-3 6-2 2 1 15 0 16-1h3l2 1 1-1-1-1v-2c0-3 0-3-2-3l-3-1-3-2-1-2-5-4-14-5-8-3-8-2-7-1c-2-2-2-2-5 0-3 1-4 1-7-1l-3-2v-1c-3-2-2-3 2-3l7-1 6-1 7 1h2c1 1 11 3 15 2 1 0 2 1 2 4 1 4 3 5 4 1l5-5 4-7c1-2 3-3 3-2l14 1h13v-3c1-4 3-4 3-1v4c-4 0-1 6 4 10 4 4 7 3 4 0-2-2 2-5 4-5h3a26 26 0 00-11-10l-4-3c-2-2-2-2-1-3v-2l3-2 2-2 2-3 2-3 4-4 6-5c3-3 7-4 8-2 0 2 1 2 3 2l4 1h2c1-1 0-4-1-4l-1-1c2-2 5 0 5 3 0 4-1 6-4 6-2 1-2 1-2-1 0-1 0-2-2-1l-1 4c1 4-4 16-8 19-1 1-2 3 0 3l9-7 2-4c0-2 0-3 2-3l4-1c3-3 9-4 12-2s21 3 21 1a44 44 0 0128 0l2-1c0-2 4-1 4 1h3l5 1c3 2 4 4 1 4s-2 2 1 3h7c1-1 2-1 7 4l6 5c4 0 14 6 14 9l2 2a1 1 0 110 3c-2 0-3 3-1 3l4-1h3c1 1 1 1-1 1-1 0-2 1-1 4 0 5-1 5-9 2-1 0-2 0-3 3-1 2-2 2-4 2l-2 1c0 2-7 0-9-2v-2l-1-1c-2-2-1-3 3-4l3-2-3-2c-3-1-4-3 0-4 3 0 3-2-1-5-3-2-5-3-5 0 1 2-9 10-12 10s-6-7-4-10v-3c-1-1-16-3-17-2s-6 3-10 3-5 1-3 4v10l-1 2c0 2 5 1 6-1 2-3 4-4 3-2l2 3 2 2c-1 1 0 2 1 3l2 4c0 3 1 5 3 3 2-1 6 0 6 1 0 2-2 3-6 3s-4-1-4-3c0-3-7-6-11-6-5 1-22-6-20-9l1-2h-10a9 9 0 01-6 0l-1-2c-2-2-5-3-5-1l-2 1c-7 0-5 2 2 3 9 2 34 12 34 15h-17l-12-3c-5 1-21-2-26-5l-7-3-2-1c0-1-3-2-4-1s-1 1 1 2c3 0 2 2-1 3l-4 1-3 2-3 1-3 3c-1 1-1 1 1 3 2 0 3 2 3 2l4 5 5 4c2 2 2 2 2 0s-1-3-3-4c-3-2-2-3 3-3 3 0 5 1 5 3s0 3 2 3l1 1c0 1 8 4 11 4l1-1h2c1 0-2 4-4 4s-1 2 3 4l3 3 2 2c2 0 3-1 1-3-1-1-1-1 1-1h3c1-1 0-1-1-1-2 0-2 0-1-2 2-1 2-2 2-5l1-1 7-7-5-1c-4 1-5 1-4-2 0-2 7-3 10-1h4c1-3 4-2 4 0 0 1 1 3 4 4l3 2-2 3-3 3h-2c-4-3-6 1-4 7 1 1 1 2-1 2-4-1-1 2 3 3l5 3c0 3 3 5 8 5l6-1c0-3 6-2 8 0l9 1c8 0 11-1 3-1-5 0-7-1-5-3v-2c-2-1 0-3 4-3 3 0 3-1 3-4l1-5v-4c-1-2-1-2-2-1 0 2 0 2-3 0s-4-6-2-6c4 0 9 3 9 5v1l2-1h1c0 2 2 2 8 2l6 3c4 4 5 8 2 8-2 0-3 3-1 5v1c-1 2 0 3 2 2 2-2 7 0 5 2v1l2-2c1-5 16-8 17-4l5 3 4 2c0 2 3 1 3-1v-4c1-2 0-3-1-4l-2-2 2-2c4-5 0-11-8-10l-4-1-3-1c-3 0-3 0-2-1l5-1c3 0 5 0 6-2l3-2 3-1 2-2 3-2c1-2 4-3 6-1 0 2-4 7-6 7l-2 2-1 2c-3 1-2 2 1 1 3 0 4 0 7 2l3 3 1-3c1-2 1-2 2-1l3 2 1 1h2v-2l-1-2 2 1 3 1 4 1 2 1 2-2 2-1 4 1c5 4 19 5 18 2l-2-1-3-2h-1v-2c1-6 3-6 8-3l7 2c2-1 3 1 0 2-2 0-2 1-1 3l-1 2v2c0 3 2 3 2 0l3-2c3 0 3 0 2 3 0 2 0 2 3 2 5 0 4-4-2-5-3-1-4-2-3-7l-1-2-5-4c-3-4-5-5-9-6-3 0-6-1-7-3a4 4 0 011-7c5-5 17-2 24 4 4 4 5 4 8 5l5 1 3 1v-2c-3-2-1-3 2-1s7 1 8-1c1-3 5-2 5 0l-1 5c0 2-2 3-4 1-1-2-6-3-6-1l2 1 6 4 4 3a28 28 0 017 17c0 2 5 8 8 8l3 2c1 2 3 3 5 3l4 2c3 1 16 2 16 0l-2-2c-4-1-2-3 2-2 3 0 5 0 6-2a5 5 0 018 0c1-1 2 0 4 1l5 2c2 1 9 0 9-1 0-2 6-2 10 0s4 3 1 3l-3 1 14 1c13 0 16-1 13-2v-17l1 2 4 3c3 1 3 2 2 10l-1 4h62V269l-1-256V0h-16v3l2 5 1 4 2 4 2 3c-1 1 0 4 2 8l3 6h-4l-5 2c0 2-7-4-7-7l-1-2v-9l2-3c0-2-2-4-3-2-1 1-1 1-1-1l3-5 1-2 1-2c0-2-25-3-26-1l1 1c3-1 2 1 0 3-3 3-18 3-22 1-1-1-2 0-4 2-3 3-6 2-7-1l3-3c6-3 3-3-13-4l-16 1c-1 2-9 2-10 0 0-1-36-2-40 0s-4 2 0 5c2 2 2 2 0 3-2 0-2 1-2 3v5l-1 14-2 14-1 3c2 2 1 4-4 4-4 1-5 1-7-1s-4-2-4-1c-1 2-2 1-2-3l-1-5v-6a17 17 0 00-3-11l-1 12v6h-3c-4-1-8-4-9-6 0-2-6-7-8-7l-2 1c-2 2-2 4 0 3 2 0 4 3 3 5h1l1 4v10l-1 4h-1c0 2 0 2 4 0 3-2 13 3 12 7 0 2 0 2 2 1l2 1-3 2-4 1-5 1h-6c-3 1-4 1-5-1l-3-2s-2-1-2-3c-2-3-7-4-7-1l-1 1-3 2c-2 2-2 2-4 1l-13-1c-9 0-10-1-10-2l-2-2c-2 1-2-2 0-3 3-1 3-2 2-4a134 134 0 01-2-10c-1-3 0-5 3-5 2 0 3-3 1-4-1 0-2-3-2-7-1-7-3-9-8-9l-5-2c-1-2-2-2-6-2h-2c2 0 2-1 1-2l-2-4-2-2-2-2-3-3-2-2c1-1-2-1-14-1-14 0-15 0-14 2 2 1 2 1-2 1a8 8 0 00-8 3V1c1-1 1-1-2-1l-3 1m86 1l-5 7c-3 3-2 13 1 10l4-1c3 0 3-1 1-5-2-6 0-7 7-7l4-1-1-3-2-2c-2 0-3 1-3 2a2 2 0 01-3 0c0-3-3-2-3 0m-62 3c-3 5-3 6 1 6 4-1 6-4 5-6-1-1-1-1 1-2l1-1-4-1c-2 0-3 1-4 4m112-1l-1 3-3 1c-4 0-4 2 0 2 5 1 8 0 8-2l-1-4h-3m142 3c-3 1-4 2-2 7 0 3 5 3 5 0l3-2c3-1 2-3 0-5h-6m-73 5a10 10 0 00-2 12c2 2 2 2 5 1 4-2 11-8 11-10l2-1c3-1 2-3-2-3l-7-2c-3 0-4 0-7 3m-26 1l-6 1-2 10c0 6-1 11-2 11l-1 4c1 2 0 4-1 5l-1 8c0 5 1 6 3 4 1-2 5-3 12-3 3 0 4 0 4-2l-1-1c-2 2-4-1-2-3h4c1 1 4-1 4-4l2-2c2-1 1-2-1-1-2 0-2-1 1-4 1-2 1-2-1-2-3-1-3-6 0-8a9 9 0 00-4-13l-1-1-7 1m62 8c-3 2-3 3 1 3l9-2c7 0 7 0 5-2-3-1-12-1-15 1M62 23l2 1c2 0 8 5 8 7s3 3 4 1h2c5 1 4-2-1-3l-6-4-3-1-2-1a3 3 0 00-4 0m236 2l-3 2c-3 0-17 13-19 19-4 6-3 10 0 10 2 0 6-3 6-4 0-2 3-5 6-6 4-1 6-6 3-6v-1l5-2 8-2 4-2c5 0 6-6 1-8l-5-2c-3-1-3-1-6 2m-190 6c-2 0-4 4-2 5a4 4 0 007-3c2-2-1-4-5-2m165 5l-2 2c-2 0-3 1-3 3l-1 2v6l1-1 2-4 2-3 3-6-2 1m-112 7l-8 5c-4 4-5 5-5 3s-3-2-6-1c-3 3-7 2-9-1-3-3-10-4-11-2 0 2-1 1-3-1-3-4-5-4-8-1l-4 3-7 3-12 5c-4 1-21 16-21 19l-6 6c-8 7-16 24-19 41l-3 12c-1 4-1 10 1 14v4l-1 16-1 18c-1 4 1 14 3 16v3c-2 3 0 10 3 11 2 0 3 2 3 2 1 2 2 2 3 1 3 0 4 0 4 6l5 11 2 4c0 3 1 4 5 4 6 1 6 1 5-3-2-4-1-7 2-5l2 4a3 3 0 005-1c-2 0-1-4 2-5l3-2h-2l-3-3h-4c-2 1-6-1-6-4h-3l-2-1v-1l-1-9 1-10-1-5-1-3c0-2-3-5-7-6-2-1-3-3-1-3a15 15 0 00-2-13l-1-4v-3c1-1 2-3 2-7l2-9c2-3 2-4 1-6-1-1-1-2 1-5l10-10c1 0 2-1 2-3l2-3 7-6c6-6 6-6 11-6s6 0 9-2 6-2 4 0c-2 3 5 15 9 16 2 0 7 3 9 7l8 5 10 6c12 12 14-5 4-26-9-18-20-30-26-29h-6c-2-2-8 0-7 2l-1 2c-3 1-3 1-2-1l2-3 5-4c4-4 12-5 16-1l4 2 3 1c3 3 5 2 5-2v-4l-1-2c0-3-4-10-5-11-1 0-2-1-1-2l-1-1c-1 1-5-4-5-6s1-1 5 3 9 13 9 15 3 4 5 4 3-3 6-9l2-5v-7c3-1 4-1 4 1 0 5 10 2 16-4 2-3 6-4 8-2 1 1 0 3-3 5l-2 3-2 3c-8 5-10 25-2 21 4-2 8-1 9 2l1 4c3 2 6-2 7-8l3-7c2-3 2-3 1-4-4-2-2-3 2-2 7 1 9 0 8-4l1-4c1-1 1-2-1-2l-5-4-3-4-2-2-7-1-7-1c0-2-5-8-7-8h-3c-1-1-3 0-5 1M0 284c0 126 1 177 1 114a61282 61282 0 00-1-114M339 61c-3 2-3 12-1 15 2 1 2 1 5-7 2-6-1-11-4-8m-118 3c2 1 1 2-2 2s-5 2-6 5l-3 3c-2 0-5 4-4 5v7c1 1 1 2-1 3-1 2-1 3 1 3l1 1h2c6-1 20 10 20 15 0 3 6 5 10 4h5l3-1c1-2 2-2 5-2 3 1 4 0 6-2 3-3 3-4 0-4-2 0-2-1-2-3 0-3-1-4-2-4-2 0-4-1-5-3l-5-2c-3 0-5-3-6-6l-3-3v-3c1-2 0-2-2-3-3-1-3-1-2-3v-4c-1-1-3-2-3-4-1-1-2-2-5-2-2 0-3 0-2 1m102 2c-2 4-1 7 3 11s7 4 8 0c1-3 0-7-2-5s-4 0-2-3c2-1 2-2 0-4-4-3-5-3-7 1m-50 5c1 5 6 14 8 15 6 1 7 4 7 12 1 3 3 5 6 4 2-2 6-1 9 1a16 16 0 0013-24c-3-7-12-8-18-3-2 2-7 2-9 0l-15-8-1 3m304-1v8l-1 7c0 4 0 4 3 5 2 1 3 1 2 3l1 4c2 0 2 1 1 6 0 7 2 11 8 12 5 0 6 1 6 6v2c-4-5-24 3-24 9 0 1-1 3-3 3l-13 9a47 47 0 01-13 14c0 3-12 12-17 12l-4 3-4 3-4 2-6 3-9 2-10 2-11 2c-6 1-9 1-6-1s-11-7-17-6l-10-2c-7-3-11-4-14-1h-3v-2c0-1-7-1-10 1-2 1-2 1-4-1s-4-3-4-1l-2 1c-3 0-4 1-2 3l9 1c8 0 9 0 9 2 0 1-1 2-5 2l-4 1 2 1c4 3 9 1 9-4l1-2v7c0 4-7 6-15 4-7-1-10-5-10-10v-3h-5c-6 1-8 2-6 5 1 3 1 3-4 4l-4 1h9l3 1 6 3c8 3 8 3 9 7l1 5h5c10 0 11 2 6 6-2 2-3 2-6 2l-3-1 1 3c2 5 0 7-4 7-2 0-3 0-2-1 4-1 4-2 2-6v-5c2-4 1-5-2-3l-4 2c-2 0-3 1-3 2-1 3-10 13-13 14s-6 0-6-2h-4c-3 1-3 1-6-1l-4-2a2 2 0 01-2-2c1 0 1-2-1-5l-2-6c0-2-2-2-4 0l-4 2 1 2c3 2 3 2 0 4l-2 1h2l2-3c2-3 4-2 4 2 0 3-1 3-4 4-2 0-4 2-5 3-3 2-3 2-5 1-3-2-12-4-12-2-1 1-6 0-10-2l-2-1h3l18-2c3 0-1-1-5-2-4 0-5 0-7-3-3-3-3-4 1-5 3 0 3-4-1-4l-3-2c-1-3 13-7 16-4 3 2 2 4-2 4-3 0-6 3-4 4 3 4 19-1 15-4v-5l5 2c5 1 5 1 5-1l1-2v-1l-1-3c0-3-6-3-14-1l-10 2c-1-1-3 0-4 1l-5 1c-3 0-5 3-5 8l-1 5c0 3-6 4-17 4-3 0-4-1-3-2a11 11 0 00-8-10c-2-1-3-2-6-1l-10 2c-8 1-14 3-19 5l-6 2c-5 1-5 7-1 10 2 1 3 2 2 4l-1 10c0 5-1 8-2 9l-1 4-1 5-1 2-2-2c-2-3-3-3-5 1a10 10 0 002 14l2 1 3 1c1 2 2-4 0-7-3-6 0-7 5-2 3 3 5 4 10 2 3-1 3-1 7 3a14 14 0 0010 6 4 4 0 006 0h8l6 1 5 2 8 3 8 4 6 3 3 1c2 0 5 3 4 5l1 2 3 2c2 2 4 3 4 1s1-2 4-2c2 0 3 0 3-2h1l5 1c12 0 11 0 18 7 5 6 6 6 11 6s5 0 7-4c3-6 7-10 10-10 2 0 4-3 4-5l5-5 6-7 2-4 1 4v5c-2 3-1 4 1 1l2-2v3c2 10 2 13 1 22-2 10-3 23-3 42l-2 14-1 20-2 24c-2 11-1 20 3 24l6 8c5 6 9 10 13 10 5 0 6 1 5 4-1 4 8 12 12 12 4-1 8 0 17 4 7 4 10 4 10 1l1-3c4-4 8-11 9-16l2-8 1-4v-7l2-7 1-3v-6l1-5 1-5c1-5 3-11 5-13a21 21 0 00-1-16l-1-3v-3h1c0 3 2-1 2-4 0-9-8-11-13-4l-5 6-2 2v-2l3-6 5-6c6-12 7-13 11-7 3 6 14 12 12 7l3-1c5 1 6-1 2-5-3-2-11-17-11-19l-3-5-8-12c-3-7-5-9-15-19-14-14-7-10 8 4a46 46 0 019 10l3 5 4 6 10 15 4 7 2 4c-2 2-1 4 1 5l4 3c2 3 3 2 2-1s2-4 4-2c1 1 3 3 5 3a9 9 0 016 4l7 3c5 2 7 2 15 2l10 1h2c2-2 4-1 2 1-1 2-1 2 3 2s9-4 9-7c0-1 2-3 5-4 5-3 12-13 13-19 1-7 5-10 4-3 0 3 0 4 1 3l1-5 2-4h2l1-2c0-2 2-7 4-9v-4l-1 2c-2 4-4 2-4-3 0-4 0-5 3-8l3-5 2-6 2-7c0-4 5-15 8-19 3-2 3-4 3-10s2-15 4-18v-1c-2-1 1-8 3-10 3-2 4-6 2-5l-2 1-3 4c-8 9-19 28-19 33a19 19 0 01-12 11l-4 2-4 3-16 5c-2-1-7 1-8 3-3 5-18 4-23-1l-6-2c-3 0-13-6-14-8l2-1 6 2a13 13 0 019 3l5 3 6 2c4 0 5 1 4 3-1 1-1 1 1 1s3 0 3-2c0-1 1-2 3-2l9-5 8-3 14-7c4-2 5-2 7-1s5-2 5-5l2-4 2-5 4-9c4-8 5-15 2-13-3 1 0-3 3-6 5-4 6-3 3 2-2 7-1 7 6 0l7-6 3-5a16 16 0 010-14c-1-1-1-6 2-12 3-7 2-14-1-20l-2-7c0-4-2-10-4-10l-1 2c0 2-1 1-3-1v-7l-3-6-2-4-3-4c-2-4-3-6-5-6s-3-3-1-3v-2h-2c-1 1-1 1-1-6 1-8 0-10-3-10-2 0-4-4-4-7s-5-8-8-8l-1-2c0-2-2-4-6-5l-8-2c-5-2-11-1-11 2 0 1-7 2-9 1-3-2-6-4-6-6h-1M295 84c-6 0-6 1-4 3l2 3c0 1 7 0 10-2s3-4 0-4h-8m181 14l-2 2-1 3a3 3 0 105 1l1-4v-4l-3 2m-296 3l-3 2v2c0 1 0 2-2 2-3 1-4 5-2 7 1 2 1 2-1 3-2 2-2 2-1 3l1 3c0 3 1 3 4 2l1-1v-5h5c-1 2 6 5 8 4l2 1c0 1 3 4 5 4l2-4c2-5 5-6 10-6 5 1 10-1 13-4 4-4 2-6-7-6-6-1-8-1-7-3s-4-1-5 1l-3 2-2 2-1 2-2 3-1-1-1-4c0-2-3-7-7-9s-4-2-6 0m-34 6a4784 4784 0 007 26c1 7 1 7 5 15 2 5 6 7 6 4l2-1c2-1 2-1 0-2-3 0-4-1-5-5l-2-6-1-9-2-9-1-6c0-3-1-4-4-6-4-4-5-4-5-1m69 17l-2 2c-1 0-5 5-5 7l8-1h2l4-2 2-1-2-1h-4c-2 0-3-2 0-2 1-1 2-5 0-5l-3 3m-47 14c0 1 3 5 5 5l2 1c1 1 14 3 32 3l24 1c12 1 27 0 27-2 0-5-12-8-33-8-16 1-45 0-48-1l-6-1c-1 0-2 0-3 2m-69 6c-2 2 3 17 5 15 2-1 0-9-2-11l-2-4h-1m25 3l-4 3-2 6c-3 6-4 12-1 12h1l-1 2-1 3-1 6c0 7 0 7 2 7h4l3 1c4-1 5 1 4 5 0 4 1 5 3 3l2-1c1 1 0 1-2 2-5 2-5 5 0 4 2 0 3 0 3 2l4 2c2 0 3 1 3 3s0 2 5 2c9 0 11 0 15 2 2 2 5 3 8 3 7 0 15 4 12 5-2 1-2 1 2 4l5 2a18 18 0 0110 9l2 4 3 6 1 7 3 10c2 5 3 7 2 10 0 3 0 4 2 6 1 1 2 1 2-2s1-4 3-1c3 2 3 1 7-3 2-4 2-5 2-10l-2-17a20 20 0 00-4-16l-5-4-9-6c-7-8-20-15-26-16-5 0-6-1-7-2l-3-2c-3 0-3-1-4-4 0-5-1-6-3-6s-2-1-2-5-1-5-2-6c-2-1-3-3 0-6l1-6c-1-4-3-5-4-2 0 3-3 2-2-1l-2-4c-2 0-3-2-3-2 0-3-6-7-9-7l-7-2c-3-2-3-2-8 0m74 4c-1 1 0 1 2 2 3 0 5 2 3 3l-7-2c-5-3-7-3-10-2h-3l4 2 6 4 8 2 7 3 4 1 4 3 4 2 4 1h5c3-2 9-1 6 1v2c1 1 2 0 2-1 0-3-5-7-8-7-6 0-16-3-20-6l-3-2h4l18 4c2 0 3 0 4-2 1-4 3-3 4 2 1 4 4 5 7 3l-2-4-1-1 2-2 4-1 3-2 1 2 4 1 1 2c0 3 1 5 3 5s3-5 2-7v-3c5-2-1-2-33-2l-24-1h-5M44 165c-1 2 0 15 2 14l3-4c2-4 2-4 0-6l-2-3c0-3-2-3-3-1m516 9c-2 2-3 5-3 7-1 4-1 4-5 4s-8 4-8 9c-1 4-3 6-6 5-1 0-4 2-5 5l-3 2c-3 0-5 1-5 3 0 3-3 4-18 4-3 0-3 0-3 3l1 4h-8c-8 1-10 2-7 6 3 2-4 9-10 9-5 1-6 0-5-6 1-5 1-6-3-6s-5 1-3 3c1 2 1 5-3 9l-1 4c-1 1-1 1-2-1 0-2-3-3-7 0l-6 1c-4 1-6 2-9 5a88 88 0 01-5 6c0 2 14-3 16-6 3-2 12-3 19-2 6 1 9 1 8-1l1-1 1-2c-1-2-1-2 1-2l2 1c0 2 25 0 27-2l7-1 11-1 25-1c9 1 19-1 17-3h-6c-6 2-8 1-10-1l-3-2-2-2-1-4c-2-2-2-4 2-9 3-2 3-4 3-7l1-4v-3c0-3 0-5 2-7l2-5 2-6c2-3 3-8 2-8l-3 3m-256 0c-9 3-3 3 14 2 14-1 21-3 15-3-15-1-24 0-29 1m-31 3c-6 2-2 3 7 2 5 0 8-1 9-2h-16m-190 7c-1 1-2 2-1 4l-1 3c-2 1-3 6 0 6l1-1c0-3 2-3 5-2 2 0 3 1 3 2l1 2 1 2c0 2 5 5 5 3 1 0 0-2-2-3l-4-7a26 26 0 00-3-10c0-1-3-1-5 1m33 6c-2 0 0 6 3 7 3 2 4 1 4-2 0-5-3-7-7-5m254 6c-2 2-3 5-2 8l1 3c1 3 5 6 10 7 5 0 5-1 0-5-3-4-4-5-4-11 0-3-2-4-5-2m-260 18l-2 3c1 2-1 1-3-1-3-2-11 2-8 5v6l1 3c0 2 1 3 4 5 2 0 3 1 3 2-1 1-6 2-7 0l-3-1-4-1c-1-1-2 0-5 3-5 4-6 7-4 11 1 1 2 3 1 4l1 4 2 7 1 6 2 2c7 7 8 8 8 4l2-2 1-1 2-1c1 0 2 1 2 4l-1 4-1 5 1 5h3c3 0 4 0 5 2s3 2 3-1l1-5c0-3 0-3-2-4-5-2-8-6-7-9 1-2 2-3 4-3s2 0 0-4c-1-4 0-11 4-12 2-1 6-8 6-11l7-7c6-7 7-9 5-11l-1-1-4-1c-12 0-17-3-13-6l2-3c0-3-4-3-6 0m488 1l-4 2-4 3c-2 2-4 4-6 4-1 0-2 1-2 4 1 4 3 6 4 3 2-3 6-6 11-9 5-2 5-2 3-2-3-1-4-3-2-4l2-2-2 1m-123 1l-17 1c-7 0-10 1-8 3 1 1 4 2 13 1 14 0 13 0 13-1 0-3 3-1 3 1h1l4-2 4-1 3-1 2-1h-18m-311 11c-2 2-3 6 0 8a15 15 0 0018 2h4c3 0 0-5-6-8-3-2-13-3-16-2m-104 3l1 3 2 4c1 2 1 2 3 0 2-1 2-1 0-3l-1-4c0-2 0-2-2-2s-3 1-3 2m430 13c-1 1 1 1 6 2 7 2 16 3 13 1-7-3-17-4-19-3m-54 41c0 8 0 11 2 14l3 2v-4c1-3 1-5-1-7-1-2-2-4-1-6l-1-3c-2 0-2 1-2 4m-235 1c-2 2-2 2-1 3l1 2 1 2-1 2c-1 1-1 2 1 2 3 1 5 0 5-3 0-1 0-2 1-1l1 2c-1 0 0 2 3 3l6 4 4 3c1 0 1-1-1-2-2-2-2-3-1-3l4 4c1 2 2 4 4 4 2 1 3 2 1 4l1 2 3 7c3 7 4 9 5 7v-7c1-2-3-11-6-14-4-3-3-6 1-3h4c1-2 1-4-1-3l-2-2-1-2c-1 0-2 0-2 2 0 3-2 3-4 0-8-11-23-18-26-13m-55 4c-1 3 1 8 4 10 2 2 3 4 1 4v1h-2c-3 0-4 1-2 4 2 4 5 6 13 9 10 3 10 3 12-1 3-4 2-7-1-7-1-1-1-1 2-1 3 1 4 1 3-1 0-2 0-2 2-1s5 0 5-3l1-1c2 0 7-6 8-10 2-4 1-5-5-5h-12l-4 1h-8c-8-3-15-3-17 1m44 15c-5 6-6 17-1 17l1 1 4 6 3 3h-3l-4-3-6-5c-3-2-4-3-2-6 1-2 1-2-5 0l-8 4c-2 3-2 3-2 1l-4-2c-4 0-11-3-14-7l-6-5-3-4-3-1c-5-1-3 10 2 22l7 5 7 5 5 2 12-5h3a11 11 0 01-10 6l-6 1c-5 1-6 1-3 4l3 4c0 2 2 3 4 4 4 1 10 7 10 9-1 2-4 2-4 0l-2-2-5-3-4-3v-1c0-2-11-14-15-15-3-1-6-9-5-11l-1-4-2-5-2-5c-2-3-2-3-4 5l-4 7-9 7-4 9c1 2-6 12-9 12-1 0-4 6-5 11l-1 8-1 5c-2 1-1 4 1 4 3 0 4 5 1 6-2 1-5 6-4 6 5 3 7 10 3 13-3 2-2 3 3 6s8 4 8 2 7-4 12-4c9 1 21-9 20-16v-4c2-1 2-4 0-4-2-1-2-1-2 1 1 2 0 1-2-1-1-1-2-2-1-3l-2-4c-3-3-4-5-3-7 0-3 0-4-2-4l-2-2-2-3-6-9 1 1 5 3 8 7c3 7 6 9 7 8l7-2 8-2c3 0 3 0 3 2-1 3 3 4 6 2 2-1 2-1 1-2l-2-4c-1-4 1-7 2-3l4 4 3 3c0 1 1 2 3 2h3l-2-3-3-4c0-2 2-1 3 0l6 3 8 4c4 5 3 6-5 5l-7 1-5 1c-6 0-8 3-8 12s1 12 5 11a2 2 0 111 3c-2 0-3 3 0 5l1 3c0 4 7 10 11 10l5 3c4 3 9 3 11 0s1-4-1-3a1 1 0 11-2-3c1 0 2-3 3-14a490 490 0 013-21v-4h-3c-4 0-6-2-4-3h5c5 2 7 5 5 10l-1 5v4h6c7 0 9-1 14-5 6-4 6-3 1 2s-5 5 3 4c6 0 7-1 8-3s5-4 6-3c1 2-8 9-10 8l-3 1-3 1-1 1c1 1 9 0 11-1 4-4 8-2 4 2-4 3-5 5-4 6s2 1 4-2l6-5c1-1 2-2 1-3l3-5c3-2 3-2 2-4l-2-3c0-2-2-2-6-2-3 0-3 0-2-2 1-3-1-7-5-8l-2-4-1-5c-3-4-1-6 4-4 3 1 3 2 3 4-1 3 4 12 5 9l2-5c2-4 2-18 0-19l-5-1c-3 0-6-4-5-7l-2-5-4-5c0-2-5-7-13-15-4-3-7-4-7-1l1 2c2 0 7 6 7 7l2 6 2 6 1 4v5l3 2c0 2 2 2 4 2s3 1 3 5v4h-4c-3 0-4-1-4-2 1-1-2-4-3-3l-2-1-2-2-3-2-4-2-2-1-1-3c-2-1-4-16-2-18v-3l-1-9c-1-8-1-9-6-10-3 0-3 0-1-2v-2c-2-1-3-1-7 4m156-4c-2 1-2 3-2 6 1 5 0 5 7 4 3-1 4-3 2-6-2-5-4-6-7-4m16 0l-2 3-1 5v27c-2 2-1 13 0 16v1l-1 5-1 5c-3 1-2 2 3 3l5 3c0 3 5 4 5 1l3-3c3-1 3-2 3-4 0-6-5-10-6-5l-1 2c-2 0-2-3-1-5v-8c1-3 0-7-2-11-1-1 0-2 1-4v-4c-1-2-2-6-1-9 1-2 0-3-1-4v-15l-3 1m-91 3c-3 3-3 8 0 11 2 3 3 1 3-2v-10c0-2-1-2-3 1m-190-1c-2 0-2 1-2 4 1 5-2 6-5 2l-2-2-3 3-3 3 2 2 2 4 1 2 1-1 2-2 4-3 4-2c1 0 5-7 4-9 0-2-2-2-5-1m335 6l-2 4-2 10-4 26c-1 1-4 20-3 21 0 2-2 9-4 11-2 1-1 4 2 8l4 5c3 6 9 4 10-4l1-12 1-22 1-28c1-12 1-15-1-16l-1-3-1-2-1 2m-160 8v3l2 2 4 3 4 2c0 2 6 3 6 1l-1-2-1-2c2-4-1-7-5-6l-4-1h-5m-58 23c0 3 6 11 7 9 1-1 0-2-1-4l-2-5c0-1-2-3-4-3v3m78 7c-3 0-3 1-3 3l-2 2c-4 1-4 4-1 10 1 2 2 4 1 5 0 2-3 3-3 1-1-2-3 0-3 1l2 2c2 0 3 2 4 4 2 4 4 6 6 5 2 0 2 0 2 3-1 4 1 7 4 7l5 4 4 4c2-2 3-15 3-27l-1-13-4-5a14 14 0 00-14-6m25 8c0 3-1 4-2 4-1 1-1 1 2 3 3 1 3 1 2 2-2 1-2 1-1 2v6c-1 5-1 15 1 18 0 3-1 4-2 2s-4 5-4 9 0 5-2 5v4c-1-1-2 0-2 4l-1 3h6a6998 6998 0 0019 2h9l12-2 8-1c1-1 7 0 9 1 3 3 5 3 11 3 5 0 6 0 7 2l6 4 5 4 10 8a470 470 0 0119 11l2 2 5 3 5 3 3 1 7 2c4 2 9 2 10 0l-4-6-5-6-3-4-4-3c-3-5-18-19-19-19l-3-3-4-5a30 30 0 01-9-15c-1 0-1-1 1-2 2-2 2-2 1-5-1-2-1-2-2-1l-1 2-4 1c-4 0-8-2-13-9-3-4-3-4-1-4 2 1 3-2 0-3l-4-2h-4l2 1c2 1 2 1 1 2s-2 1-4-1l-6-5c-3-1-6-3-7-5a70 70 0 00-21-11c-3-3-12-5-22-5h-9v3m229 4l3 2 11 6 3 1 6 2 10 1c10 4 26 5 27 2l2-1c6 0 0-2-8-2l-24-3-6-3c-3-1-5-2-8-1-4 0-5 0-8-2l-7-3c-3 0-3 0-1 1m66 13c-2 1 1 3 4 3l4 1h11c5-2 3-3-5-4h-14m-446 8h-3l-2-1c-1 0-1 15 1 18 1 2 3 3 3 1l3-1c2 1 5-5 5-12 0-2 0-2 2-2h2c0-4-8-7-11-3m-71 26v5c-2 1-2 2 0 4 1 3 4 3 3 0l1-2c2-1 1-4 0-4-3 0-2-2 0-2l3-2c0-2-5-1-7 1m156 6c-2 0-3 1-1 3 2 1 1 2-2 5l-3 6c0 5 0 6 1 4s1-2 3-1l5 2h3l-3-1c-3-1-3-1-1-6 2-4 3-13 1-13l-3 1m-95 2l1 4c0 2 6 4 12 4l5-1-1-2-4-2-4-3-2-1-4-1c-3 0-3 0-3 2m396 1c0 1 19 7 24 7 4 0 2-2-2-2l-7-2-15-3m-453 5l-3 4-2 4-1 3 2-3c2-2 3-2 3 3 0 3 1 4 4 1 2-2 3-2 5 0 3 2 3 5 0 5v2c0 2 0 2-2 2h-1l2 4c1 2 2 2 5 2l7 2 8 3 8 3h9c-2 2-2 2 2 5l4 3 3-2 5-2 11-6 3-1c2 0 3 0 3-2 0-1-1-2-6-2-5-1-7-1-8-3-2-2-3-2-5-1-3 0-4 0-8-5l-7-6c-4 0-9-3-8-4l-3-5-3-4-3-1c-4 0-4 1-3 3 0 1 0 2-2 3-3 2-4 0-4-3 1-6-12-7-15-2m538 0v3l-1 6v6h1c0-3 3-7 5-6l1-2 1-4c0-3-5-5-7-3m-496 3c-1 3-1 3 1 3h3l-3 1c-3 2-3 3 1 3h9c-3 0-4-3-2-5 3-1 2-3 0-3-4-2-8-1-9 1m-16 3l-1 2c0 3-3 5-4 3a4 4 0 10-4 7c4 0 9-4 9-7l2-3 1-2h-3m43 10l-1 2-2 2c-4 1-1 3 7 3 4 0 5 0 4-1-3 0-4-1-4-4-1-3-3-4-4-2m131 13l-3 2c-2 0-2 1-1 3s10 0 13-2l3-2h-3l-3-1c-2-2-5-2-6 0m271 17c0 3 1 3 5 3 6 1 12 0 8-1a78 78 0 01-8-3c-1-2-5-1-5 1m-294 3c-3 1-7 6-6 7h6l4 1c2-1 12 2 12 4l5 3c3 1 3 1 2 3-1 1 1 2 4 2 4-1 2-8-2-8l-2-1-3-3c-3-1-3-1-2-2s1-2-1-2c-2-1-3-1-3 1 1 1 1 1-1 1l-6-2c-4 0-4 0-3-3 1-2-1-2-4-1m-84 2l-2 2-1 1c1 2-1 2-3 1-2-3-4-2-6 0-2 4 0 8 4 8l6 3c4 4 9 1 5-3v-2l1-4 2-2 2 1a1 1 0 102 0l1-2v-1l-4-3c-2-2-6-1-7 1m60 17c0 2-5 8-6 8l-4-2-3-3c-2 0-2 3 0 5s1 5-1 6c-1 1-1 1 1 3s9 2 8-1l2-1 3-1c0-1 2-1 3 1 2 1 2 1 1-2 0-3 0-3 2-3 3 0 5 1 5 3l2 1 2-2 2-1c1 0 2 0 2-3s-1-3-4-3l-4-2-5-2-3-1c-1-3-3-2-3 0m24 2l3 3 9 7-4 2-4 1h10c2 2 2 2 5 1 4-2 4-2 0-5l-4-2-1-1-3-2-4-2-2-1-2-2-3 1m178 3l1 1v2c0 3-1 3-4 4-6 0-7 0-7 2l-2 1-2-1c0-1-8-2-9-1l1 1c4 1 7 3 11 6l6 3 1 1h2l4-2 2-1-2-1c-4 0 1-5 5-5v-2l-1-1a2 2 0 001-3l-1-2c0-2-5-3-6-2m-356 5c0 2 2 3 4 1 0-2 2-1 1 1l4 1 5-1-1-1-5-1c-4-3-8-2-8 0m95 0c-1 2-2 3-1 5v3h1c2 0 3-1 3-3 0-3 2-4 4-1 1 1 1 1 1-1l-1-4c0-2-6-1-7 1m34-1c-5 0-5 0-5 2l1 4h4l4-2 5-2c0-2-3-3-9-2m274 4l-2 3c0 2-1 2-8 2l-13 1-4-1h-5c-13 1-11 4 4 5l8 1c-1 1-1 1 1 1l3-1c0-1 13-3 15-2 4 2 14 1 16-1s-1-6-4-6l-5-2c-4-2-4-2-6 0"
      itemprop="regular" tabindex="-1" style="fill-opacity: 0.93; fill-rule: evenodd;"></path>
    </symbol>
    <symbol id="-posters-1650603905502-bold">
      <path d="M601 9h-6c-3 0-3 0-2 1 2 3 1 8-1 8-3 0-7 2-7 3h-1c-1-1-1-1-2 1l-4 6c-2 3-9 3-9 0 0-2-5-4-6-3v15l1-1 3-1 2-1a2 2 0 113 2l-2 2-3 3c-3 1-3 1-1 3 1 2 2 2 4 0 2-1 2-1 2 1l-2 6-1 4-1 2-1 4-2 4-1 2v7c-1 3-1 3 1 3s3 1 3 3c1 2 1 2 1-1l1-4c4 1 5 0 5-7 1-8 3-9 4-3 0 4 0 4 3 3l8 1c3 1 5 1 7-1h4l4 1 3 1 6 2 5 3c1 2 4 5 10 6 2 1 2 1 1 2-2 2-1 8 0 8l3-1c2-4 4 5 3 13-1 5-1 6 2 6a1 1 0 010 3c-2 0-1 2 3 3l3 3 2 4 2 4c0 2 5 11 8 14s4 7 4 12l2 7 2 5c0 3 2 4 3 1l1-1c1 2 0 4-1 4l-2 4-3 9v12c-2 2-3 8-2 10l3-1c2-2 6 1 6 4 0 2-3 3-4 1-1-5-5-2-6 4l-3 6c-3 3-4 5-2 7v12c1 4-1 10-3 7-1-2-2 1-2 7l-2 5c-6 4-11 21-7 23v5l-1 7-1 6-4 11c-1 4-3 9-5 10l-2 5-3 6c-2 2-3 5-2 6 0 2-4 4-6 3-1-1-7 5-16 16-4 5-14 5-25 1l-8-2c-1 1-8-1-11-3l-4-2-3-2-3-1-8-4h-1l1 2 1 2c0 2-8 2-14 0-2-1-3 0-2 2 4 5-9-1-15-8-4-3-5-4-5-1l-2 4-2 4 2-1c1-2 5-3 5-1l3 4c3 3 4 8 2 13-2 4-2 4-1 6 2 2 3 2 4 0 4-5 5 3 2 11l-2 11-3 9-1 6-1 2c-1-1-2-4-2-9 0-7-1-7-1-3-2 6-2 26-1 26l2-3 1-3-1 31c-1 4-1 5 2 5 2 0 3 1 3 2l4 2 7 1c4 0 4-1 2-7-2-5-2-6-1-9s1-4-1-6c-3-2-4-5-2-6 5-2 14-2 16-1 1 1 3 2 5 1l5 2c1 3 6 6 6 4l4-1c4 1 6 3 4 4-1 1-2 2-1 4 0 4 2 3 2-1 1-5 10-2 10 3 0 3 4 4 7 3 2-2 5 0 3 2v6c0 4-1 5-3 5s-2 0-2-5v-4l-2 2c-2 2-3 2-4 1-2-2-11 0-11 2l-3 1c-2 0-3 0-2-1l-1-1-2-1c-1-1-1 0-1 1l3 3 4 2 2 1c2 0 12 5 15 8 2 2 18 2 18 0h3c1 1 2 0 4-3l4-3 2 3c2 1 3 3 2 4l1 2c4 0-1 1-5 2h-7c-1 1 0 5 2 6 4 1 14 3 15 2 2 0 1-3-1-4-1-1-1-3 2-3 2 0 3-3 3-13l1-10 1-3 1-5c1-1 1-1-1-2-3-2-3-8-1-17l1-17c0-10 1-11 2-11s2 1 2 8c0 8 0 10 3 10s3 15-1 16c-3 0-4 4-2 8 2 3 2 13 0 16v17l-2 1-1 6v5c0 2-2 5-3 4h-15c-1 2 2 4 5 4 1 0 2 1 2 4 1 4 3 11 5 12l1-8c1-8 1-9 5-9 1 0 2 0 2 2s1 3 7 5l1 4c1 4 2 5 4 2 2-1 3-2 4-1h7l-3 1-3 2-1 1c-1 2-1 2 2 2l3-1 4-3c6-2 7-5 4-9-1-1-1-1 2-4 2-3 3-3 4-2h4l7 2c9 5 14 2 13-6 0-4 1-6 4-3 1 1 1-28 1-208l-1-165c-1 45-1 54-3 52l1-26-1-2c-1-2-4 0-5 3s-3 3-3 0c1-1 0-3-1-4l-1-5-2-6c-1-2-1-2 1-2l3-1h3c2 0 3-1 0-3-1-2-1-2 2-4l4-1V96a76 76 0 000-17c0-2-2-4-6-4-3 1-5 0-4-2l-1-2-1-4c0-2 0-2-1-1l-6 1-6 2v-6c0-9 1-10 2-8s4 0 4-3c0-4 0-4 4-4l6-2c3-3 6-3 4 0-4 5 0 12 4 10 2-1 3-2 3-10 0-7 0-8-1-7-3 2-9 2-10 1 0-2-1-1-3 1-3 3-5 3-6-1-2-3-5-4-6-1l-2 2c-2 0-6-4-6-6 0-3-3-8-5-9l-7-4a19 19 0 00-8-5l-4-1c-10 0-11 0-12-2 0-2-1-3-3-3l-6-1-3-2-3 1m-429 5c2 2 1 3-3 2-8-2-16-1-20 3-3 3-5 3-4-1a3 3 0 00-3-3c0 1-4 6-8 8-3 1-3 2-1 2 1 1 2 1 1 2l1 2-2 4c-5 7-9 10-12 8v-3l4-2c1-2 3-3 5-3l3-3c0-3-3-2-7 2-3 3-3 3-5 2-3-2-3-1-3 1 1 3 1 3-3 3l-4 2-1 2-3 1c-1 2-3 2-8 3l-6 1-4 2c-4 1-9 4-10 7l-3 2-5 5-5 5-5 6a14 14 0 01-6 5c-1 1 0 1 1 1l-1 2c-2 3-1 4 2 1l5-4 4-4c0-4 21-21 26-21l5-2 8-4 5-3c1-3 10-3 10 0h5c5 0 6 0 8 3 2 2 8 3 10 1l4-1h5l-3-2c-1-1-3-2-4-1l-1-1c0-2 3-2 5 0 3 1 6 1 8-1 2-1 2-1 0-3-5-3 3-4 8 0l5 1c2-1 3-1 3 1l2 5 2 3h9c8 0 10-1 8-2s-1-3 1-3l1-1h-2c-2 0-2 0-2-3 0-2 0-2 2-2a4 4 0 004-6c0-2-4-6-6-6-2-1-4-4-2-5l1-2c0-2-2-1-2 1s-4 1-5-1l-2-2c-1 0-2 0-1-1l-2-3-2 1c0 2-3 1-3 0l-2-2c-2 0-2 0 0 1m436 5l-4 2-3 2c0 2-1 2-5 2-4-1-4-1-3 1v1h-7c-3-1-3-1-3 1 1 1-2 5-4 5v2l-1 3c-4 1-2 3 3 2l4-2c-1-2 2-4 6-4l5-2c0-2 2-3 4-3l3-3 21-3h3c0-4-14-6-19-4m-303 3c-1 1 1 2 7 2 11 0 15 3 12 7l-2 3c0 2-2 3-5 3-8 0-18 6-21 13-1 2-3 3-5 3a21 21 0 00-7 1c-2 1-3 4-1 5h-1c-4-1-11 0-13 1v1l4 3 9 7 8 4c3 3 6 2 9 0 2-3 13-3 15-1l7 12c3 6-13 22-17 18-3-2-8-3-10-2s-2 1-5-1c-2-1-3-2-4-1h-6c-2 4-8 11-13 15l-6 6c-4 7-11 10-15 6l-3-1c-2 0-2-1-2-3 0-3-2-6-3-4v3c3 5 4 10 3 12-2 3 0 4 5 4 4 0 9 2 12 6 3 3 2 4-1 4-5 0-3 2 2 3l9 1c4 0 5 0 5 2l1 1 1 1h-3l-2 1c1 1 0 1-2 1l-4-1c-1-4-2-2-2 3 1 4 1 5-1 5-3 0-6-2-6-4l-1-2-3-1c-2-3-3-3-2 1 0 3-2 5-3 2l-1-1v3c2 4 0 7-2 4l-3-1c-2 0-3-1-3-4-1-4-2-5-4-2-1 2-2 2-6 1l-17-3c0 1 10 5 15 5 11 2 18 6 15 10h-5l-7-1-3-1-3-1c-3 0-4-1-4-2l-6-3-21-9-7-2c-2 0-1-2 2-3s5-1 10 1l5 2-2-1c-6-2-1-3 11-3h12c0-1-6-2-21-3a65 65 0 01-30-4c-2 0-2 0-2-3s-1-3-3-3c-1 1-2 0-3-2l-2-2v6l2 4c0 4 2 5 4 5 3 1 3 3 0 4l-2 1-2 1a17 17 0 01-8-13l-2-5a141 141 0 00-6-23c-4-7-1-11 5-7 4 3 9 4 9 2l3-3c2-1 2-1 1-3-2-1-2-1 1-4s4-5 2-5l-1-1 2-1 6-2c3-2 3-2 1-2-2-1-4 0-5 1-4 2-9 0-8-4l1-6 1-5 3-5c3-4 6-8 8-8l2-2c1-4-4-4-6-1-6 6-16 9-17 5l-2-2-2 1 1 2v3l-1 3-1 3-2 4-1 3-1 2c0 2-1 3-2 1-2-2-5-1-4 2l-2 5v3c1 2-2 1-4-1l-4-4c-1 0-4-1-5-3l-5-2c-3 1-3 2 1 3l4 3 2 2 5 5 6 9 4 6 4 9a30 30 0 014 16c3 10 2 14-2 14-3 0-2 3 0 4l2 3 3 2 2 2 3 1c3 1 4 5 2 10-2 3-1 5 1 2 2-2 4 2 4 8l1 6a23 23 0 012 9l2 1 3 2 4 2c5 0 12 2 14 4 1 2 4 4 7 5l8 7 9 6 6 5 2 3c2 1 3 2 3 12l1 20v9l-3 3c-3 3-4 5-3 7 0 2-1 2-4 0l-5-2-3-1-1-7c0-6 0-8-2-11-3-4-3-5-2-9l-1-8-2-5c-1-5-5-9-11-12-11-6-13-7-10-8h-2c-5 0-9-1-9-2l2-1h3c2-1-1-2-5-2l-8-3-5-2-7 1c-6 2-6 2-8 0l-1-2c2-2 1-3-2-3-2 0-4-2-5-5l-2 1h-5l-6-2c-4-1-4-2-5-5l-3-5c-2-1-2-4-3-8l-2-8-2-6-1-4-4-8-3-10v-11c-2-3-1-6 2-8 4-3 2-5-3-5-4 0-5 0-5-3s-1-5-3-5a47 47 0 00-14 16v4l-1 4h-1l-2 2c-2 1-2 1-1 3 3 2 2 5 0 8l-2 4-1 4-1 5v16l1 4c2 1 1 5 0 6-3 0-2 2 0 4l2 3 2 1c3 0 5 2 7 7 1 3 3 5 4 5 3 2 4 8 2 9s-3 4-3 6c1 2 5-1 5-3s1-2 3-2c3 0 10-3 9-4l-3-1-3-1-3-1c-4 0-5-2-6-8l-3-7c-2 0-3-3-4-4l-3-4c-2-1-2-2-2-5v-7c-1-3-1-4 1-6l2-5 2-6v-4c-2 0-2-3-1-5l3-1c2 0 3-1 3-6s0-6 2-6c3 0 7 4 7 8l2 6 2 5 3 7c2 4 2 5 1 10-1 6-1 6 2 8 2 1 3 7 1 7-3 0-2 1 2 5 3 3 3 4 2 6-1 3 2 8 5 8l3 2 3 1c4 0 4 0 7 4l7 6c10 3 9 7-1 16a17 17 0 00-6 9l-2 3-4 6c-2 0-3 2-3 3l-1 3v4c2 5 2 7 1 7l-3 1-2 2 4 4c5 5 6 6 5 13 0 4-8 6-21 6-11 0-12 1-5 4 5 2 7 3 5 5s-1 3 1 6l2 2-4 4c-4 4-7 5-9 2-1-1-2-2-3-1h-5c-3 0-3 1-3 3 0 5-7 11-9 7h-3c-5 1-6-16-1-21l2-6c1-5 3-6 10-4l6 1c4 0 1-2-3-3l-7-3-3-2-1-1 2-1 1-2 1-3c2-1 1-8-1-10s-3 2-2 5l2 4c0 1-5 2-6 1l-2-1c-2 0-5-8-3-9 2-3-3-15-7-18s-1-11 3-8c3 2 4 1 3-2l1-3c2-2 1-6-1-9l-2-4c-1-3-2-4-4-1-1 2-3 0-3-4 0-3-1-5-3-7-6-6-8-22-6-42v-18l-1-5c-2-2-2-3-1-5 1-1 2-3 2-8l1-11 2-12a63 63 0 017-19l1-2 3-5c1-4 1-4-1-3-4 3-6 1-4-2 2-4 1-5-2-4-2 1-2 2-2 5v4l-1 5v7l-2 3-2 5-2 7v3l-2-3-2-4c0-2-4-5-10-8l-6-3-1-3-3-3-2-2-2 2c-4 4-5 2-4-10a46 46 0 00-2-16L1 265v196l2-24v-2l2 2 4 3 2 1c-1 3 1 5 6 5 2 0 3 1 3 2l1 3v4c-1 3 0 4 1 5 3 3 5 1 5-2l1-5c1-2 1-3-1-6l-2-4h14c2 1-2 5-5 5-4 0-2 2 2 2l4-1c0-3 4-1 5 3s5 6 12 4c3 0 3 0 5-10 1-5 2-7 3-7a18 18 0 01-1 18c1 2 3 1 4-2 0-2 3-5 5-7l4-6c-1-2 1-3 2 0l1 2 3 3c2 2 3 1 3-1 0-4-3-10-7-13-3-4-6-16-3-13 3 2 5 0 2-3s-3-11 0-13c1-2 2-3 1-7 0-4 0-5 3-7 8-7 10-10 9-12l1-5 2-8 2-8 1-4c0-2 4-5 8-6 3-2 5-6 4-8-2-2 4-11 10-14 4-2 9-10 9-15 0-2 3-3 4 0 1 1 1 0 1-3 0-5 0-6 2-6l4-2 3-1c2 2 3 1 3-3-1-3 0-5 1-7l1-3h25l15 2c7 0 8 2 6 5l-1 3c0 1-5 7-7 7l-1 2-4 3c-2 1-9 10-8 11s9-5 10-7 4-7 10-12l2-5 3-5v-3l1-2 2-2c0-1 2-2 3-1l4 1c5 1 12 6 17 11 4 4 5 5 6 4l1-2c2 0 8 4 8 6l7 4 8 4c1 2 6 4 8 4l2 1 2 1c3 0 3 0 2-2l-2-3-1-2c0-2 0-3-2-2-4 1-5-19-1-22 2-1 4 3 3 5-2 3-1 14 1 15s3-2 3-7c-1-5 1-13 4-15 2-3 3 0 2 18v14c0 4 0 6-2 7-2 2-2 4 1 4 2 0 9 7 9 9l2 2 1 2 4 5 3 4c-1 1 3 9 4 8 1 0 2-1 2-3 1-2 4-3 10-2h7l8 2 5 1 4 2 6 3 4 2 2 1c2 0 2 0 1-1-2 0-3-4-1-4a1 1 0 10-1-2l-2-3-3-3c-8-2-8-3-4-7 3-3 4-6 2-6l-1-2-1-2h-5c-2-1-5 0-6 1-3 2-6 1-6-2s-3-2-8 2c-4 3 0 5 4 3 1-1 2-1 4 1l6 2c4 1 4 1 4 5 0 3 0 3-5 3l-6-1-9-1c-10 1-14 0-14-3l-2-3c-1-1-1-2 1-2 2-1 2-1-1-2-4-2-9-6-8-8l-2-1c-3 0-3-2 0-3 2 0 3-1 3-2l5-3a11 11 0 007-6l1-2 2-2c5 0 7-3 7-7-1-4-1-4 1-4l2-1 3-1c2 0 3-1 3-3 1-2 6-6 10-6 7 0 8-7 1-9l-10-4c-2-2-6-3-7-3l-6-2-7-1h-4c0-2-1-2-3 0h-6l-4-2c-2 0-5-3-8-7l-2-2-2 2c-3 2-3 2-7 0l-4-3-3-2 1 3c3 5 1 14-3 12-2 0-2 0-2 3s-2 5-4 5l-1-3c1-2 0-7-1-10-1-6-1-14 1-16v-2c0-2 3-3 5-1 1 2 3 1 3-1s-1-2-2-2l-2-2 1-1h4l3-1v-11c0-10 0-11-2-12-1-1-2-2-1-5 0-4 0-4 12-8l11-3 7-2h7l5-1h2l4 3 4 4c2 6 11 9 17 6 3-2 4-5 3-8-1-2 5-9 7-9l4-1c1-1 2-2 4-1s5 0 10-1c8-2 17-2 16 0l1 2v3c-1 3 0 3 5 1l7-1 3 1-3 2c-3 4-3 10 1 14 5 5 4 6-2 5-7-1-10-3-11-5l-2-2 1 3 1 4 3 1c2 0 2 0 2 2-1 3 1 4 3 1h10c9 0 11-1 10-4 0-2 0-2 2-2 3 0 3-1 1-6v-9c2-1 3 0 3 3l3 3c4 2 5 1 5-4-1-5-4-8-6-5h-6l1-2-2-2-14-1c-13 0-13-1-9-5 2-3 2-3 1-5-2-1-2-1 5-2 3-1 4 0 2 1-4 2-2 3 3 3l6-2c1-1 2-2 5-2l15-4c2-1 2-1 4 1 2 3 2 3 4 2 2-2 20-3 23-1s9 3 13 3c6 0 13 2 16 4l5 2 2 1 3 1c14-3 18-3 22-5l6-1c3 0 13-7 13-9 0-1-1-1-3 1l-5 2c-2 0-2 0-1 1s0 1-2 2c-5 3-6 2-4-6 0-3 1-3 4-3l5 1 2 1v-1c-3 0-2-3 1-4 2 0 2-1 2-3l1-2v-2a13 13 0 010-14c-1 0 0-2 2-2 4-2 4-2 4 1 0 2 0 2 1 1l2-1c2 1 4-5 3-7-1-4-14-5-16-1v2c2-1 2 0 2 2-1 3-4 5-5 3l-2-1c-2 1-1-3 1-5 2-3 3-7 1-9-2-1 3-2 10-1 7 0 8 1 12 7 0 2 2 3 6 3h5l-1 4c0 4 0 4 2 4 1 0 2 0 1 1h-1l-1 3c0 4 1 4 4 1 3-4 4-5 2-5-2 1-1-2 1-5h4l7-2c7-4 8-7 1-4l-4 1-2 2c0 2-1 3-2 1a6 6 0 00-6 0v3l-2 2v-3c0-2 1-4 4-6 3-4 4-5 2-5s-4-6-3-8l-1-2c-1-1-1-1 1-2 1-2 1-2-1-2-3 0-3-1-4-7l-3-5 1-1h6l5 2h6c1-2 8 1 8 4l1 3c1 0 4-4 4-6-1-2 0-3 2-2 4 0 5-3 3-5l-2-3c0-3-4-5-9-3l-5 1-3 2h-4l-2 1c0 3-5 4-10 2-4-1-5-2-5-5-1-5-5-5-11-3-3 2-3 2-6-3-1-3-3-4-4-4-2 0-4-4-2-6v-1l-1 2-3 1c-3 0-2-4 1-5 2-1 2-1 0-1l-2-1-2-2-1 2v1c-2 0-3 8-1 12l3 7c1 2 2 3 4 3 3 0 4 3 2 4l-6 14c0 2-8 1-11-1h-4c-2 2-4 1-4-2 0-2 0-2-3-2l-3-1h-3c-4 2-4 4-1 4 2 0 3 1 3 4 1 4-1 7-2 4l-2-1c-2 0-1 3 0 3 2 1 1 4-1 5l-10-2h-8c-2 4-3 2-7-8l-10-17c-6-6-6-11 0-5 4 3 6 3 5-1 0-3-3-6-5-6l-1-3c0-3-1-4-2-2-2 2-4 1-4-1-1-2-1-2-3-1-3 0-3 0-4-2-1-4-5-7-7-7s-2-2 0-3h3l1-1h-2l-3-1c-1-1-2 0-2 3v4c-1 0-6-5-6-7h-2l6-8c4-4 4-5-1-4-6 2-9 5-9 8 1 2 0 3-1 3-2 0-3-2-1-5 1-2-1-5-3-4l1 2 1 1-10-1-8-2a22 22 0 01-11-3l-4-2-5-1-2-1c0-3-4-3-6-2-1 1-2 2-3 1l-7-1c-5 0-5-1-8-5-1-2-3-5-5-5l-3-3c-1-3-3-5-10-8-6-3-20-5-21-3m-98 25l-1 3-5 4-5 3c0 2 3 4 5 3 3 0 4 1 2 3s-3 6-1 6l1-1 2-6c2-5 2-6 1-6l1-1c2 0 3-1 3-4s-2-6-3-4m350 3c-2 2-2 2 0 2 5 0 3 2-1 3-3 0-4 0-3 1v2c0 4 2 6 5 3l4-3v-7c0-4-3-4-5-1m-219 9c-2 1-3 2-3 7v2c0-2-6-6-8-6l-4 3-3 4 2 4c3 6 6 8 9 8 2 0 3 1 3 2 2 4 7-2 9-11 3-11 1-15-5-13m200 5l-1 3-2 4c-2 2-1 5 2 4l1 2-2 5c0 2-2 3-2 1a193 193 0 00-1-6c0-1-4-2-4 0l6 8 4 1c2 0 2 0 2-4V71c1-4-2-9-3-7m123 6l-2 4c-4 3-3 5 2 5 1 0 2 1 1 2-1 5-7 7-7 3 0-3-3-1-4 2l-1 3 7-1 10 1c5 3 6 3 7 0 1-2 2-3 5-4 4-1 1-3-5-4-4 0-6-1-6-3l2-1c3 0 2-1-3-5-5-3-6-4-6-2m-112 4v4c-2 1-2 1 0 3 2 1 3 1 3-1l2-2 4-2c4-3 4-3 3-4-2-1-3-1-4 1h-3c-3-3-5-2-5 1m-171 8c-2 2-2 2 0 4l1 4c1 3 6 4 10 1 2-2 3-2 4-1 3 2 5 0 3-3l-1-3c2-3-6-4-11-1l-2-1c0-3-2-2-4 0m288 14c0 2-3 4-5 5-3 0-5 3-2 3l5-2h7c2 2 2 2 3 0l-1-3c-1-1-1-1 1-2s1-1-4-1h-4m-108 14l1 4 1 2 4 4c2 0 4 2 4 3 0 2 3 2 7 1 5-2 6-2 3-3-1-1-1-1 1-1l4 1h6c7-2 7-4 0-6l-5-3c-1-1-3-2-3 0 1 1-1 6-2 6l-2-1-6-2c-4 0-5 0-5-2 0-4 0-5-3-5h-4c-2-1-2-1-1 2m-544 5l2 7c3 4 5 14 3 14l4 7 1 3 1 4 2 6c3 8 6 8 5-1-1-5-3-7-3-3l-1 2v-9c1-1-1-6-3-6-1 0-2-1-2-4 1-5 3-5 3 0l2 3c3 0 3-9 0-14l-2-6-2-3c-2 0-3-1-3-2l-4-1c-3 0-3 0-3 3m450 17c0 2 1 2 3 2l2 1c0 2 3 2 3 0v-3c0-2 0-3-4-3s-4 0-4 3m-244 2l-5 1h-8c-18-1-28 0-27 2a243 243 0 0052 0l-9-4-3 1m-105 3c0 2 1 2 9 5l12 4c4 3 6 2 3-1-3-2-16-9-21-10-3-1-3-1-3 2m311 18l-2 1a6 6 0 002 8l1 1 2 3 2 1h8c0-1 6-1 10 1l5 1c2-1-1-5-6-5l-3-2-2-2c-2 0-3-2-3-3 0-2-6-4-8-3l-1-1h-5M5 166a15 15 0 002 8l1 2 1 1 3 6c4 4 6 9 4 9a3 3 0 103 2c1-3-2-12-4-14l-3-10c0-2-4-8-6-8l-1 4m247 3c-2 2-2 5 1 5 5 0 8-5 4-6-2-1-3-1-5 1m57 3l-28 4c-12 0-15 1-13 4 2 1 17 0 21-2l14-1c19 0 36-2 34-5h-28m95 8c0 3 1 4 2 5l1 1a19 19 0 0017 3l-1-1-6-2-5-2c-2 0-2-1-1-3h5l6 1c4-2 2-3-5-3l-10-1-3-2v4m149 8h-2c0-2-3-1-3 1 0 4 0 4-3 8l-5 3c-4 0-6 2-6 6 0 3 0 4 3 4l3 1c0 2 5 1 6 0v-3a1 1 0 112-1h1v-5c-1-3 1-9 4-10 2-1 5-3 5-5 0-1-4-1-5 1m-239 2c-4 2-4 3-3 7 2 4 4 4 5 0l4-3c2 0 3-2 1-4h-7m26 4l-5 1c-5 1-4 4 1 4 12-2 15-3 9-5l-2-1-3 1m16 1l2 3 2 2c0 2-11 5-16 4-3 0-3 0-2 2 2 2 2 3-3 3s-3 2 3 3l7 1c1 1 8-1 8-2l-2-2c-3 0-2-2 1-3l4-3 3-1c5 2 7-3 2-5l-9-2M9 211l-1 2-2 6c-2 5-2 7 2 7l2 2c2 4 6-1 5-6v-7l-3-2c0-3-1-3-3-2m497 8c-1 2-2 2-5 2l-5 2c-2 0-2 1-1 1v3l-1 3c-2-2-3 2-2 3 2 2 2 2 0 3-1 1 0 1 6 1 10-1 11-2 10-4v-1l-1-2c-2-2-2-2 0-3l4-1 1-1 4-1 4-1-8-4-2-1h-1c0 2 0 2-1 1-2-2-2-2-2 0m-350 9c1 8 4 11 12 14l5 3c2 1 2 1 6-1 3-1 7 0 4 2-2 2 3 6 5 4 4-3 1-20-3-20l-3-2-5-3h-16l-1 3-1-2c1-2 1-2-1-2-1 0-2 1-2 4m388-1l-5 2-4 1h7c1-1 2 0 3 1 3 2 10 2 10-1s-9-5-11-3M9 235l-1 5-1 5c-2 1-2 15 0 17s2 5 0 8c-2 2-1 26 0 28 2 1 2 1 0 1-3 1-3 5 0 5s5-2 5-5c-1-2-3-4-4-3l-1-4c0-3 0-4 3-5 2 0 3-1 4-3l1-4v-7l-1-6-2-13-1-13c1-5 1-6-1-6H9m661 9l-2 6-3 8-4 1c-8 0-8 0-7 8 0 8 0 9-5 5-4-5-5-4-6 2-1 4-1 4 1 4l4 1c0 1 1 1 3-1l2-2v4l-3 8c-3 3-3 4-2 6l1 6v4c3 0 8-9 10-16 0-2 1-6 3-8 2-3 8-16 8-19l1-3c2-4 3-15 1-16l-2 2m-493 14c-4 0-6 3-4 7 2 5 8 6 14 2l3-2-2-3-8-5-3 1m439 3l-9 4-12 5c0 3 10 0 16-3l6-3 4-3c0-2-2-2-5 0m-69 4l5 4c5 3 7 3 11 2 3 0 1-2-3-2l-6-2-7-2M43 277c-5 5-3 7 2 5 3-1 3-2 2-6 0-3-1-3-4 1m379 7l-1 23 1 3 1 2c2 0 4-18 4-24-1-5-4-7-5-4m213 2l-1 5-3 5c-3 3-3 5 0 6 3 0 4-2 5-9l1-7v-3l-2 3m-272 1l7 13v1c-2 0-2 0-2 12-1 10 1 14 3 11s3-2 3 2c0 3-1 3-4 3-1 0-3 3-2 6 0 3 2 2 4-1l1-3 1 2c2 2 2 5 1 9 0 5 0 6 2 6 2 1 2 1 4-4 1-5 8-13 10-13s2 0 2-3c-2-4-1-7 0-8s0-2-5-7c-6-5-6-6-5-8 1-3-1-7-5-8l-2-2v-2l-2-3c0-3-10-5-11-3m-319 7l-1 3-1 4-1 3v12l-2 13-3 11-1 9-1 7c-2 1-3 6-1 7v9l2-2 1-2 2-7 2-10 2-11c2-16 2-19 4-22v-7c0-3 0-5 2-7 1-2 2-3 1-5l-1-3c-1-2-4-3-4-2m160 7l1 6v9c0 6 1 7 2 1l2-4c1-2 18 14 23 21l5 12c0 3 1 3 5 3 5 0 8 13 4 21l-2 5-2 2c-3-1-5-4-5-6l-1-2-1-1c0-2-3-5-4-4l1 4 2 4 3 3c1 1 3 3 3 5 1 2 2 4 4 4 6 1 8 7 4 11-3 2-3 2-2 3 2 1 1 2-5 7-2 1-2 1-1 2l1 2 3 1c4 0 4 1 1 3-2 2-3 3-3 9l-2 2v1l-1 1 2 1h6c4-2 10-9 10-11l2-2 2-2 2-1 7-5 8-6h6c5-1 7-2 5-4h-9c0-3-7-8-10-8s-4-1-1-2c5-2 3-10-3-13-3-1-5-4-3-5l-1-1-2-2c1-1 0-2-1-2l-1-5a5 5 0 00-2-5l-2-3c-2-2-2-2-1-3l4-2 1-1 1-2c2 0 2 1 2 3s0 3 3 3a5 5 0 015 2l1-2c-1-2 0-2 3-3 7-1 7-1 7-5-1-2 0-4 1-4 1-1-1-1-3-1-6 0-9-2-9-4l-3-1c-3 0-3-1-3-3s-1-3-3-1c-1 1-4 0-4-2l-1-1-1-1-3-1h-3l2-3c2-4 1-6-3-5-3 1-3 1-5-1l-2-1v-1l-2-3c-3-1-3-1-2 2 2 3 2 4 3 13 0 9-2 9-6 1l-6-8-4-6-2-2-2-1-2-2-3-3c-1-2-1-2-2 0h-4c-2-2-3-2-4 0m440 8l-6 7-4 7-1 5c-2 1-3 5-3 14l-1 8-1-3c0-3-1-4-3-1v2c2 2 1 3-1 6l-2 2 3 3 3 2c-1-3 0-6 4-10l4-8 4-10a46 46 0 004-11l2-6 2-5c1-2 1-5-1-5l-3 3m-629 2c-2 5-1 7 2 8l4 4 1 4c0 1 6 4 7 3l3-14h-4c-4 0-4 0-8-4l-4-3-1 2m315 1c-3 2-2 4 0 4l4 1c1 2 5 1 5-2l-1-2c-2-2-7-2-8-1m93 4c-2 5-2 25-1 24l2-26-1 2m94 7c2 5 4 9 6 10l1 3 2 2c2 0 3-3 1-3-2-1-7-11-7-13 0-1-2-3-4-3l1 4m-379 3c-1 3 1 7 4 9l5 4a4 4 0 007 0c4 0 4-2 1-2l-7-4-6-4-3-3-1-2v2m-86 10l2 3v9l-1 2 4-2 5-4c5 0 7-4 4-8-2-2-14-3-14 0m475 20c-2 1-1 2 2 3l4 4c1 3 3 4 3 2l2 1 3 2 2 1h4c0 2 3 4 6 4l7 1 6 2 5 2c6 2 11 3 9 1l-5-2-4-1h28c13 1 20 0 20-3s-2-3-17-4a288 288 0 01-46-6l-4-2c-1-1-3-2-6-1l-7-1-5-2-5-1h-2m-404 3l2 3 2 3c2 1 2 3 2 5 0 4 4 10 10 13 2 1 3 6 1 6l-1 7c0 4-1 6-2 6-5 3-5 3-3 5s4 1 5-1c0-3 3-4 3-1l3 3 3 2 11 6 1 2 1 5 2 3 9 9 4 2 4 2 3 2 3 1c4 0 10 4 8 4a2 2 0 01-3 0c1 1 2 2 5 2 2 0 3 0 2-1-2-1-1-1 4-1h7l-1 2c-1 3-1 3 1 3s6-4 6-5l2-3c2-1 1-2-10-2l-13-2c-4-2-4-4 0-3 26 3 29 2 29-3l1-3v-3c-2-1-2-3-1-3 3 0-3-13-6-14-2-1-5 4-5 6 0 3-9 2-11-1l-3-3c-2 0-2 5-1 7l2 5 1 5 1 4c0 2-1 2-2 1-2-3-8-3-11-1-1 1-1 1-1-1l-1-2-3-1-3-2-1-1-3-3c-3-1-8-8-9-11l-2-5c-3-3-4-7-4-17-1-9-3-7-6 6l1 4c2 1 2 5 1 7-2 2-5 1-6-2l-3-3c-2 1-4-7-4-13l-1-7c-2-4 0-5 8-5 6 0 8 0 10 2h3c2-2 10-3 22-4h3l-2-2-3-3c-2 2-31 3-31 2-2-3-4-3-11-1s-7 2-11-4c-3-5-7-9-8-9v1m173 7v29c2-1 4-11 3-13v-3c2-3 1-18-1-18s-2 1-2 5m52-4l9 6 2 2 1 1h1c1 1 2 2 3 1 2-1 0-4-6-6a21 21 0 01-8-4h-2M44 378l-1 4-1 2-1 1c0 3-3 4-11 4-7 1-8 1-10 4-7 8-8 9-10 9l-2-2-2 1-1 3-2 5v4l1-5c1-4 6-6 10-4 3 2 7 0 6-2l-3-2-1-1 2-1 3-2c2-3 3-3 8-2 4 2 5 2 5 5 0 6 0 6 3 6l3 3 1 2 1 1 4 5 4 4-2 1c-2 0-4 0-7-2-3-1-5-2-6-1-3 2-6 1-9-2-1-2-2-2-4-1l-5 1c-4 0-6 2-5 4h4a9 9 0 0111 5h8a5 5 0 016 1h6c3-3 7-4 12-4s6-1 4-3v-9c-1-2 1-6 4-7 1-1 2-2 1-4 0-2 1-3 3 0 1 1 1 1 2-1 0-2 1-4 3-5l2-3 1-3c2-1-2-4-3-2h-3c-1-2-7-1-7 1v5l-2 5-2 3-2 1h-2l-2-6-2-8-1-2-1-4c-1-4-5-6-8-2m148 0l4 1c3 0 4 1 4 4l-1 5v3l-1 5-1 9c0 5 0 5 2 4 1-2 2-3 1-4-1-3-1-3 1-2l3 2h6l5 1 1 2h1c1 1 6 1 7-1l5-1c4 0 7-3 3-3l-10-1c-9 0-12-1-7-3 3-2 1-4-3-2l-2 2c1 1 1 1-1 1l-2-2-4-1c-3 1-3 2-2-13l-1-5c-1-2-8-2-8-1m329 8l-1 5-1 4-2 5c-2 10-2 10 2 9l4 1 5 2 12 5a95 95 0 0024 6h10c-1-2-6-3-17-6-27-5-32-7-32-10-1-3 0-4 3-4l4 1v2c-1 3-1 3 2 3 2-1 2-1 1-3l-1-4-4-2c-5 0-7-4-4-6l2-3 1-1c1 0 1-1-1-2-2-2-6-3-7-2m64 6l-2 6-3 5v2l1 6c-1 5-1 6 1 7 3 1 2 2 4-8 3-13 2-22-1-18m-169 5v2c1 1 1 2-1 3v3c3 2 2 3-1 3h-3c0 1 2 7 3 6l2 1c2 1 2 0 2-7l1-10c0-2 0-2-3-1m128 2v4c0 2 0 2-4 2-3 0-4 0-3 1l3 2 5 1c4 0 7 1 7 3h5c4 3 7 3 4 0l-1-3-3-2c-4-2-6-5-4-6v-1l-1-1c0-3-8-3-8 0m58 6l-1 4-3 2-3 3-2 2 1 3c0 1 1 2 3 2l3 2 1 2 3 2c2 2 3 1 2-2 0-3 0-3 3-3s3 0 3-3c-1-2 0-4 1-5 2-2 1-4-3-3l-2-1c1-1 0-2-1-2 0 0-2-1-2-3-2-4-3-4-3 0m-489 4c-1 1 1 3 3 3 3 0 3 2 0 4-2 1-3 4-1 4l4-4c3-5 4-5 9-4 4 1 6 0 4-2l-10-1h-9m-20 3c-1 3 1 4 6 4s5-1 1-4c-5-2-6-3-7 0m193 5c-1 2 2 3 7 2l10 1c3 2 13 2 17 1 2-1-3-2-12-3l-13-1h-9m-167 2c-3 2-3 9-1 10s4 0 4-1c-1-1 0-3 1-5 2-5-1-8-4-4m248 2l-2 1 2 1 4 1 3 1 4 4 5 4 2 1c2-1-1-5-5-7l-7-5c-2-2-2-2-6-1m133 4l1 4c2 1 0 7-2 8l-1 6a10 10 0 01-2 7l-1 3c-2 1-6 10-5 11l2 1h3c2 3 5 2 8-1l3-3-3-2a10 10 0 00-5-2l1-1c1 0 2-1 1-5l1-7c3-3 4-21 1-21-2-1-2 0-2 2m92 3c1 2 10 6 18 7 5 0 6-1 5-3-2-4-4-5-5-2l-2 2-3-1-3-2c-2-2-11-3-10-1m-360 4c0 2-1 3-3 3-7 1-2 4 6 4 6 0 6 0 7-2 1-4-1-6-6-6-3-1-4 0-4 1m-104 0c-1 0 1 2 4 2l4 3c0 1 1 2 3 2l5 4c2 1 4 2 9 2l11 2c5 0 9-1 8-3l-12-1c-12-1-15-2-13-4 1-2 1-2-1-2l-3-2c-3-3-14-5-15-3m-85 1l3 3 2 4c0 3 2 2 4-1 3-4 1-6-4-7l-5 1m631 9l-6 2c-2 0-3 0-3 2s-2 3-2 0a13 13 0 00-17 7 3 3 0 102 5 8 8 0 017-2l1 4c1 3 3 1 2-3-2-6 6-6 8 0a3 3 0 007-1l2-3 3-5v-4c2-2 0-4-4-2m-74 2l2 4c1 2 5 6 9 8 1 1 2-1 2-5l-3-2-5-3c-3-3-6-4-5-2m-546 1l-4 1c-3 0-3 3 0 6 2 2 6 2 6-1 2-4-1-9-2-6m40 4l-3 1c-2 0-1 2 1 3 3 1 6 0 4-1-1-1-1-1 2-1l9 3 3 1 3 1 2 1 7 3c4 1 5 1 3-2-1-2-7-4-14-5l-6-2c-6-4-9-5-11-2m-88 5l-2 2 2 8 3 8 1 3c0 3 1 5 2 5 2 0 3-3 2-8v-9l-1-5c-1-6-3-7-7-4m528 2c0 2 1 3 4 3h7c4 2 5 0 1-3-2-2-3-2-4-1h-5c-2-2-3-1-3 1m-382 0c-2 2 3 5 6 3l5-2 4-2h-8l-7 1m356 3c0 3 1 4 3 4 1 0 3 1 3 3l4 2c2 0 5-5 3-5v-1l3 1h1c0-2-2-4-8-4l-7-2c-2-3-3-2-2 2m33 8c0 2 2 5 4 5l3 1 3 1c2 1 3 5 1 7l-2 3h10c0-1 3-1 4 1 0 2 3 1 3-1 0-1-1-2-4-2l-4-2-2-5-2-4h2c2 0 3 0 3 2l2 4c4 1 8 0 8-2 0-3-10-6-13-5l-5-1c-5-2-11-3-11-2m-170 3l1 5 2 4 2 3c0 1 1 2 3 2 3 0 3-4 0-4-3-1-4-3-1-3 3-1 3-3 0-5-1-2-2-2-2-1l-1 1v-1l-3-4-1 3m-44 1l1 3c-1 1 2 3 8 3l6 1-3-2-8-4-3-2c-2-1-2-1-1 1m247 5l-1 2c2 2 10 3 13 3 4 0 5 2 2 4l-1 2-1 3c-1 1-1 1 2 1h4l-2-2-1-2 3-1c4 0 6-2 4-4l-2-4a4 4 0 00-5-4c-1 0-2 1-1 3 0 2 0 2-4 2-4-1-5-2-5-4s-3-1-5 1m-523 6c-2 0-3 2-1 4l1 3c0 2 1 3 3 3s3-2 0-4v-3c2-4 1-4-3-3m-30 2c-2 1-2 2-1 2v3c0 3 3 4 12 4 6 0 7-1 7-2 0-2-1-3-3-3l-6-3c-3-2-7-3-9-1m-11 8c-1 8-1 10 4 10 2 0 3-2 1-4l-1-3c0-2-4-4-4-3m660 10l-1 3c1 1 0 2-1 3-2 3 0 4 4 4 7-1 10-7 5-9-3-2-5-2-7-1"
      tabindex="-1" itemprop="bold" style="fill-opacity: 0.927; fill-rule: evenodd;"></path>
    </symbol>
  </defs>
  <use class="background" href="#-posters-1650603905502-background" fill="url(#-posters-1650603905502-background-gradient"></use>
  <use class="light" href="#-posters-1650603905502-light" fill="url(#-posters-1650603905502-light-gradient" filter="url(#light-filter)"></use>
  <use class="regular" href="#-posters-1650603905502-regular" fill="url(#-posters-1650603905502-regular-gradient" filter="url(#regular-filter)"></use>
  <use class="bold" href="#-posters-1650603905502-bold" fill="url(#-posters-1650603905502-bold-gradient" filter="url(#bold-filter)"></use>
  <use class="emboss" tabindex="-1" href="#-posters-1650603905502-light" fill="url(#-posters-1650603905502-light-gradient" filter="url(#emboss)"></use>
  <use class="emboss" tabindex="-1" href="#-posters-1650603905502-regular" fill="url(#-posters-1650603905502-regular-gradient" filter="url(#emboss)"></use>
  <use class="emboss" tabindex="-1" href="#-posters-1650603905502-bold" fill="url(#-posters-1650603905502-bold-gradient" filter="url(#emboss)"></use>
  <defs>
    <g class="gradients">
      <radialGradient gradientUnits="userSpaceOnUse">
        <stop itemprop="radial" stop-color="hsla(111, 20%, 19%, 1.00)" offset="0%"></stop>
        <stop itemprop="radial" stop-color="hsla(50, 14%, 32%, 1.00)" offset="15%"></stop>
        <stop itemprop="radial" stop-color="hsla(36, 20%, 33%, 1.00)" offset="30%"></stop>
        <stop itemprop="radial" stop-color="hsla(33, 24%, 28%, 1.00)" offset="45%"></stop>
        <stop itemprop="radial" stop-color="hsla(29, 28%, 30%, 1.00)" offset="60%"></stop>
        <stop itemprop="radial" stop-color="hsla(36, 19%, 36%, 1.00)" offset="75%"></stop>
        <stop itemprop="radial" stop-color="hsla(45, 15%, 41%, 1.00)" offset="90%"></stop>
      </radialGradient>
      <linearGradient gradientUnits="userSpaceOnUse" x1="0" x2="0" y1="0" y2="100%">
        <stop itemprop="vertical" stop-color="hsla(111, 20%, 19%, 0.75)" offset="0%"></stop>
        <stop itemprop="vertical" stop-color="hsla(50, 14%, 32%, 0.75)" offset="15%"></stop>
        <stop itemprop="vertical" stop-color="hsla(36, 20%, 33%, 0.75)" offset="30%"></stop>
        <stop itemprop="vertical" stop-color="hsla(33, 24%, 28%, 0.75)" offset="45%"></stop>
        <stop itemprop="vertical" stop-color="hsla(29, 28%, 30%, 0.75)" offset="60%"></stop>
        <stop itemprop="vertical" stop-color="hsla(36, 19%, 36%, 0.75)" offset="75%"></stop>
        <stop itemprop="vertical" stop-color="hsla(45, 15%, 41%, 0.75)" offset="90%"></stop>
      </linearGradient>
      <linearGradient gradientUnits="userSpaceOnUse" x1="0" x2="100%" y1="0" y2="0">
        <stop itemprop="horizontal" stop-color="hsla(102, 19%, 21%, 1.00)" offset="0%"></stop>
        <stop itemprop="horizontal" stop-color="hsla(39, 18%, 34%, 1.00)" offset="15%"></stop>
        <stop itemprop="horizontal" stop-color="hsla(34, 23%, 30%, 1.00)" offset="30%"></stop>
        <stop itemprop="horizontal" stop-color="hsla(32, 26%, 30%, 1.00)" offset="45%"></stop>
        <stop itemprop="horizontal" stop-color="hsla(38, 16%, 43%, 1.00)" offset="60%"></stop>
        <stop itemprop="horizontal" stop-color="hsla(41, 17%, 36%, 1.00)" offset="75%"></stop>
        <stop itemprop="horizontal" stop-color="hsla(74, 20%, 17%, 1.00)" offset="90%"></stop>
      </linearGradient>
    </g>
    <g class="generated gradients">
      <radialGradient id="-posters-1650603905502-background-gradient" gradientUnits="userSpaceOnUse">
        <stop stop-color="hsla(111, 20%, 80%, 1)" offset="0%"></stop>
        <stop stop-color="hsla(50, 14%, 80%, 1)" offset="15%"></stop>
        <stop stop-color="hsla(36, 20%, 80%, 1)" offset="30%"></stop>
        <stop stop-color="hsla(33, 24%, 80%, 1)" offset="45%"></stop>
        <stop stop-color="hsla(29, 28%, 80%, 1)" offset="60%"></stop>
        <stop stop-color="hsla(36, 19%, 80%, 1)" offset="75%"></stop>
        <stop stop-color="hsla(45, 15%, 80%, 1)" offset="90%"></stop>
      </radialGradient>
      <linearGradient id="-posters-1650603905502-light-gradient" gradientUnits="userSpaceOnUse" x1="0%" x2="0" y1="0" y2="100%">
        <stop stop-color="hsla(111, 20%, 60%, 0.9)" offset="0%"></stop>
        <stop stop-color="hsla(50, 14%, 60%, 0.9)" offset="15%"></stop>
        <stop stop-color="hsla(36, 20%, 60%, 0.9)" offset="30%"></stop>
        <stop stop-color="hsla(33, 24%, 60%, 0.9)" offset="45%"></stop>
        <stop stop-color="hsla(29, 28%, 60%, 0.9)" offset="60%"></stop>
        <stop stop-color="hsla(36, 19%, 60%, 0.9)" offset="75%"></stop>
        <stop stop-color="hsla(45, 15%, 60%, 0.9)" offset="90%"></stop>
      </linearGradient>
      <linearGradient id="-posters-1650603905502-regular-gradient" gradientUnits="userSpaceOnUse" x1="0" x2="100%" y1="0" y2="0">
        <stop stop-color="hsla(102, 19%, 50%, 1)" offset="0%"></stop>
        <stop stop-color="hsla(39, 18%, 50%, 1)" offset="15%"></stop>
        <stop stop-color="hsla(34, 23%, 50%, 1)" offset="30%"></stop>
        <stop stop-color="hsla(32, 26%, 50%, 1)" offset="45%"></stop>
        <stop stop-color="hsla(38, 16%, 50%, 1)" offset="60%"></stop>
        <stop stop-color="hsla(41, 17%, 50%, 1)" offset="75%"></stop>
        <stop stop-color="hsla(74, 20%, 50%, 1)" offset="90%"></stop>
      </linearGradient>
      <linearGradient id="-posters-1650603905502-bold-gradient" gradientUnits="userSpaceOnUse" x1="0" x2="100%" y1="0" y2="0">
        <stop stop-color="hsla(111, 10%, 8%, 1)" offset="0%"></stop>
        <stop stop-color="hsla(50, 10%, 8%, 1)" offset="15%"></stop>
        <stop stop-color="hsla(36, 10%, 8%, 1)" offset="30%"></stop>
        <stop stop-color="hsla(33, 10%, 8%, 1)" offset="45%"></stop>
        <stop stop-color="hsla(29, 10%, 8%, 1)" offset="60%"></stop>
        <stop stop-color="hsla(36, 10%, 8%, 1)" offset="75%"></stop>
        <stop stop-color="hsla(45, 10%, 8%, 1)" offset="90%"></stop>
      </linearGradient>
    </g>
  </defs>
  <defs>
    <filter id="light-filter">
      <feColorMatrix in="SourceGraphic" type="matrix" values="1.5 0 0 0 0
                0 1.5 0 0 0
                0 0 1.5 0 0
                0 0 0 1.5 0"></feColorMatrix>
    </filter>
    <filter id="regular-filter">
      <feColorMatrix in="SourceGraphic" type="matrix" values="1.5 0 0 0 0
                0 1.5 0 0 0
                0 0 1.5 0 0
                0 0 0 1 0"></feColorMatrix>
    </filter>
    <filter id="bold-filter">
      <feColorMatrix in="SourceGraphic" type="matrix" values="1 0 0 0 0
                0 1 0 0 0
                0 0 1 0 0
                0 0 0 1 0"></feColorMatrix>
    </filter>
    <filter id="emboss">
      <feConvolveMatrix kernelMatrix="3 0 0
                      0 0 0
                      0 0 -3"></feConvolveMatrix>
    </filter>
  </defs>
</svg>
