<svg id="-posters-1650603947940" itemscope="" itemtype="/posters" itemid="/+/posters/1650603947940" viewBox="0 0 576 512" preserveAspectRatio="xMidYMid slice" tabindex="0" xmlns="http://www.w3.org/2000/svg">
  <defs>
    <symbol id="-posters-1650603947940-background">
      <rect itemprop="background" width="100%" height="100%" tabindex="-1"></rect>
    </symbol>
    <symbol id="-posters-1650603947940-light">
      <path d="M0 13l1 12 18 4 64 14a1569 1569 0 0159 13l-1 2-5 2A3201 3201 0 011 33v30l37 7 76 15c2 3-4 4-13 2a2198 2198 0 00-51-9 758 758 0 00-38-7L1 69 0 93v24l11 1c37 6 63 10 63 12s-3 2-12 1l-60-9c-2 0-2 0-2 8v8l6 1 18 2 33 6H43l-41-5c-2 0-2 1-2 7v6a3456 3456 0 0142 6l1 1c0 1-6 1-23-1-22-3-20-3-20 4l1 6h7c13 1 24 3 23 4H16l-15-2-1 5c0 5 0 5 13 7l7 1H7l-7-1v9l5 1 5 1-5 1-5-1v72h7l6 1-2 1c-3-1-3 0-4 3 0 3-2 4-2 2l-4 1-1 119v117h577V272c0-222 0-240-2-240l-15-5c0-2 8-2 12 1 4 2 4 1 5-14V0h-99v11l2 15-1 5-82 54-8-7-15-14c-9-7-9-7-4-11a1188 1188 0 0036-33c19-17 22-20 19-20l-31 27-30 27-5-3-17-14-14-12a299 299 0 0120-24L221 0H94l20 5c36 8 58 14 60 16 1 0-3 4-5 4-4 0-93-20-105-24L30 0H0v13m466 29l-39 26-28 19 7 7 11 12 4 5 8-5a7649 7649 0 0158-32c7-4 7-5 0-11l-5-5-1-11-1-12c0-2-2-1-14 7M0 93c0 13 1 19 1 12a578 578 0 00-1-12m491-20l-16 10a1077 1077 0 00-44 24l-9 6 13 17 28-13 40-20 13-6-4-4c-14-15-16-17-21-14m-6 35l-41 20-9 5 2 9 2 9 10-4a1466 1466 0 0040-19l11-5 6-2-14 7a4304 4304 0 00-52 24l-1 8c-1 18-16 35-41 48-17 9-52 22-77 29l-6 2 1 4-1 5-1 2c0 2 0 2 1 1 1-2 3 5 3 10l1 3v-2l1-5c1-1 1-1 1 2v4l1-4 1-9 1-4v6l1 11 1 4 1-9v-13l1-6v6c0 7 1 10 2 6 1-1 1 0 1 2 0 3 1 4 2 2 1-1 1 0 1 2s0 3 1 2l1-3v-5c1-1 1-1 1 2l1 3 1-4c0-6 2-8 3-6l3 2 2 4c1 7 2 4 1-4 0-6 0-8 1-5 1 2 1 2 1-2s0-5 1-3l1 4 2 7c0 5 1 8 2 8l1-1c-1-1 1-9 2-9l1 1c0 5 0 6 1 3l1-3 1 4c1 4 1 4 1-2s1-7 2-2 3 8 5 7l1 1v1c2-1 2-2 0-5 0-2 0-2 2-1 4 4 7 1 7-6 0-4 2 0 3 7 1 5 1 5 1 2v-3l1 3 2 3v-9l2 2c2 3 3 2 1-1v-4l1-11v-10l1 9 1 11 1-7v-6l1 7 1 9 1 5v-4l2-5 1-6c0-3 0-5 1-4l1 2c-1 3 0 5 2 5v2l1 6c1 2 1 2 2 0l2-2c1 0 3-3 3-6l2-4 1-2c0-1 0-2-1-1v-2c2-2 2-3 3 8v8l2-4 1-9 1-5c2 1 3 5 2 7v4c1 3 3 1 2-2l1-2 1 2v7l1-3 2-1h2c2 0 2 1 3 5 1 7 2 4 2-7 0-6 0-6 1-3 0 4 0 4 2 3s3 0 3 3l1 2 1-3c0-5 2-5 2 0 1 4 1 4 1-1l1-6 1 1c0 2 3 2 4 1l1 3c1 5 3 7 3 2l1-4c1 0 2-2 2-5l2-3v5c1 7 3 7 3 0l1-6 1 2 3 15 1 2c-1 1 0 2 1 2l1-1c-1-3 0-11 1-10s1-1 1-6c0-7 1-10 2-6h3l1-2c1 0 2 2 2 6 1 9 4 10 5 2l2-6 1-3c0-2 0-3 2-3s4 10 3 12l3 4 1-2a5 5 0 012-6c0-1 0-2-1-1-2 0-1-4 0-5 2-1 2-1 2 2l1 6c1 1 1-1 1-6-1-9 0-12 2-6l1 3 1 4c0 3 0 4 1 3v-6c-1-5 2-4 3 1 0 4 0 4 1-3v-7l2 6 1 11c0 4 0 5 2 4v-12c0-3 2-1 2 3 0 7 2-1 2-9 0-5 0-8 1-7l1 2 3 13 2-12c0-6 2-5 3 2 0 6 2 9 2 4s3-7 7-7a5 5 0 007-3l-4-55-2-27c0-5-1-7-3-9a24 24 0 00-9-9l-16-16-32 16M0 232c0 20 1 28 1 18a1362 1362 0 00-1-18m306 10l-2 1 1 4c-1 4 0 7 1 3 1-2 1-1 1 4 2 9 3 7 3-4v-10l-4 2m-8 2l1 16 1 4 1-7v-11c1-3 1-3-2-3-1 0-2 0-1 1m-9 1c-3 0-3 1-3 7 0 8 2 12 2 4l1-7-1-2v-1c2 0 3 1 3 3 1 7 3 8 3 1v-2l1 2c1 2 1 2 1-1a2 2 0 00-2-3l1-1h-6m-12 2l-3 1-1 6c0 4 0 6 1 5 0-2 1-3 2-3l1-5c0-2 0-3 2-3l1 6c0 6 0 6 1 3l1-7c-1-2 0-3 1-3h-6m-9 2c-8 1-8 1-6 2s2 1 0 1h-2c1-2-2-2-12 0a416 416 0 01-29 5c-32 4-99 9-149 11-24 0-23 0-21 6 1 1 1 1 1-1v-3c1 0 2 3 2 7l1 3 1-4c0-3 0-4 2-4l1 2c0 4 2 7 4 4 1-2 2 0 2 5 1 3 1 3 1-1 0-6 2-7 2-2 0 3 0 3 1 2 1-2 1-2 1 2 0 7 2 9 2 3 2-10 4-13 4-5v5l2-4c1-3 1-3 1-1l1 2 1-2c0-2 0-2 2 1l1 3v-3c0-3 2-4 2-1h1l1-2c1-1 2 0 1 1l2-1 2-3 1 3c1 5 2 7 2 4 0-5 2-7 3-3l1 3v-3c0-3 2-5 2-2l1-1c1-2 1-2 3 2l1 4v-7l1-6c1-1 1 1 1 4l1 7h2c0-4 1-1 2 5l1 7v-5c0-8 2-11 2-4v6l1-7c1-4 1-6 2-5h1c0-5 2-6 4-1 0 2 2 4 3 5 2 2 3 0 3-7 0-2 0-2 2 1l1 2 2-1h1c0-1 1-1 1 1 1 1 1 1 1-1 0-5 2 0 2 6 0 8 1 5 2-4 0-8 2-14 2-6 0 3 2 9 2 5l1-5 2-2v4l3 14c0-2 0-3 1-2l1-7c0-6 2-11 2-5 0 2 0 2 2-2h2c1 1 2 0 5-3 4-3 5-6 2-6v-1c2-2 3 0 4 5v6l2-5 1-5v5l1 10 1 5v-4l1-7 1-4v3c1-1 2 1 3 5v7l1-7a9 9 0 013-6l1-2 2 6v2l1-2c0-2 0-2 1-1h3c0-2 1-2 1-1l2-6c0-7 2-4 3 4l1 6 2-9 3 5c0 4 0 4 1 2 0-5 3-7 4-3l1 3 1-3 2-5c1-2 1-2 1 3 1 4 2 5 3 5 2 0 2-1 2-6 0-7 2-8 2-1 0 2 0 4 1 3 1-4 2-5 2-1 0 3 0 4 2 4 3 0 5-6 5-16 0-3 0-2 1 2 1 6 3 11 3 8 0-2 2 0 2 3v3l1-3 1-6v-4l1 5 2 5v-4l1-6c1-2 1-1 1 3 0 6 2 5 2-2 0-5 1-3 2 4l1 6v-5a5 5 0 012-6c1-1 1 1 1 3 0 8 2 5 2-3v-6l1 7c1 11 2 11 2 1l2-8c0-1 3 0 3 2 1 2 1 2 1 0l-1-4v-1c2 0 2 1 2 5 0 8 0 9 1 8l1-1v-5c0-4 0-4 1-2l1 3 1-3c1-2 1-2 1 4 0 9 1 7 1-4 1-10 1-10-3-9M32 273l1 5c1-1 2 0 2 1 1 1 1 0 1-2 0-4 1-6 2-4v-1l1-3 1 3c0 3 2 3 3-1l1-3H32v5M0 395c0 64 1 91 1 58a15895 15895 0 00-1-58"
      tabindex="-1" itemprop="light" style="fill-opacity: 0.96; fill-rule: evenodd;"></path>
    </symbol>
    <symbol id="-posters-1650603947940-regular">
      <path d="M0 6v7l4 1 6 2c2 0 4 4 4 6l5 3c5 1 5 2 0 2l-4-1 4 2 10 2 7 1a35 35 0 0011 2l-1-1 3 1c2 2 14 5 19 5l4 1 5 1 3 1 3 1 8 1 10 3c15 2 38 8 40 10 2 0 2 1 0 3-2 3-2 3-67-10a3041 3041 0 00-52-10L5 35l3 2c4 1 5 1 2 1l-4 1-2 1c-3-1-4 1-4 8v4l5 1 8 1c3 0 3 0 3 5-1 6 1 8 6 6l1 1 18 4a8883 8883 0 0145 8c13 2 29 6 29 8 0 5 1 5-75-9L1 71v1L0 86l1 14h3a190 190 0 0120 3l6 2c2 2 4 4 6 4l4 3 4 4c4 1 5 3 3 4h3c3 0 4 0 4 2 1 2 2 2 5 2h4l1 1 6 2 5 2c0 3-2 4-12 3H48l-4 1 4 1c4 0 3 0-2 1-4 0-7 1-7 2l-2 1c-3 0-2 1 2 2 5 0 5 1 0 1-3 0-3 0-2 1 11 1 21 4 21 5 0 2-5 2-21 1-12-2-20-2-9 0 7 1 7 1-3 2l-7 1 2 2 1 2h4c2 1 2 1-2 1h-4l4 1 8 1c10 2 12 3 13 4 0 2 0 2-8 2l-20-1c3 0 3 1 1 1l-2 1 2 1c2 1 2 1-1 1-2 0-3 0-3 2 0 1 1 2 10 3 12 2 13 4 1 4l-8 1-1 2v1c2 0 1 3-1 3l3 1c8 2 6 4-3 3l-5 1c3 1 1 2-4 1-4 0-5 0-3 1l3 1H2c-3 1-1 3 3 3s7 1 7 2l-6 1H0v70h51a2191 2191 0 0071-2c39-2 90-8 128-14 62-11 79-15 125-33 40-15 61-35 63-58 1-12-3-26-8-33a33 33 0 01-9-16l-7-7-11-11-4-6 22-15v-1l-12 8-12 7-7-7-12-10-11-10a845 845 0 00-38-32l-2-2 4-5a305 305 0 0113-16l3-4h-2c-2 0-4 2-8 7l-12 13V6c2-2 0-5-2-6-2 0-2 1-2 5l-1 5V0H98l10 3 17 4c27 5 50 12 50 14l-2 3-2 2-11-1a379 379 0 00-20-4l-12-2-5-1-7-1-10-3-12-2-4-1-8-2-12-3-8-2c-2-2-17-4-39-4H0v6m419-1l-34 31-20 19 5-4a961 961 0 0041-37l14-14-6 5m63-4l1 10 2 19 1 17-1 9c-1 2 0 3 7 9a2813 2813 0 0148 48l6 6 1 12a1681 1681 0 016 76v7l-9 7-13 10-3 2 1 1-3 1c-3 0-14 4-24 9l-9 3-9 3a750 750 0 01-92 22 899 899 0 01-77 12c-25 4-30 4-31 3h-1l-3 2h-9a2662 2662 0 01-120 8c-44 2-75 3-126 3H0v78l1 79c2 1 1 11 0 12l-1 22v21h50l51-1h2l173 1h172l6-3c4-2 7-5 7-6 2-2 4-3 3-1-1 1 0 2 1 1a26 26 0 0012-8c3-1 17-14 16-15l2-1c4 0 6-4 8-10l3-6 1-4c0-2 0-2 2-2h1l-1-1c-1 0-3-2-7-9l-2-3h4l10 1a12 12 0 016 2l3-1 4 1c1 0 2 1 2 3 0 1 0 2-1 1 0-3-8-3-8 0 0 2-1 2-5 2-6 0-5 2 1 3l5 1h-5c-4 0-5 0-6 3l-2 2-1 1 2 1 2-2c0-2 1-2 11-1l6 1-8 1h-8l2 1 5 4 5 1c3 0 4 0 4 2l1 1c3 0 3 9 1 11s-3 7-1 7 5 6 4 7l-2-1c-4-4-9 2-6 7 1 2-1 5-3 5-1-1-2 1-1 3l28 1h28l-1-238V36l-5-2c-7-1-14-4-15-5l-7-2c-7-3-11-7-11-11 0-5 0-5 7-1a103 103 0 0029 11c2 0 2-1 2-13V0h-22c-14 0-21 1-21 2v16l1 16-2 1c-4 1-4 1-4-12-1-18-2-23-3-23s-2 2-1 8c0 6 0 8-1 7l-1-6c0-5-1-9-3-9v10l1 29-4-32V0h-8l1 6 1 14v16l-3-31c0-4 0-5-2-5s-2 1-1 5c3 31 3 39 0 41l-3 2v-5c-2-18-4-38-3-41l-1-2-1 9a936 936 0 013 33c0 5-1 9-2 8l-1-5-1-12-2-19c0-10-1-15-2-14l1 16c2 25 2 33 1 33l-1-1-1-12-3-23-1-13-1 6c3 25 4 46 3 47h-1l-1-15-3-26-1-12-1 1m18 0v7l1 14 1 11V7c0-6-1-9-2-6m29 10c0 12 2 19 2 12l-2-23v11m-17 0l2 29 2 1 1-5-2-16-2-13c-1-1-1 0-1 4m-24 289c0 4-4 4-4 1l-1-2v11c1 2 3 2 6 1h5v-4l-3-5-2-3c-1-1-1 0-1 1M0 378c0 43 1 61 1 39a6847 6847 0 00-1-39m146-68c-3 2-6 14-3 13l1 1h-1v3c1 7 8 14 9 12 2-3 3-2 3 1-1 2 0 2 1 2h3c2 2 8 1 8 0l2-1c2 1 4 0 2-1a1 1 0 112-2c1 1 5-1 5-4l2-2 1-4v-3l1-1h-3l-1-1c0-2 1-2 2-2 2 1 1 0-2-6-2-5-4-6-4-4 0 3-2 3-4 2-1-2-2-2-3 0s-1 2-3-1l-3-3v1c1 2 0 5-1 5l-2-5c2-2-5-1-6 1v1l1-1 2-1 1 1v2l-5 1c-5 0-7-2-3-4l1-1-3 1m261 0c0 1 0 2-2 2-1 0-2 0-2-2 0-3-2 2-2 5 0 4 2 5 7 4 6 0 7-2 3-6l-2-3-1-2-1 2m108 6l5 14c1 0 0-8-2-13-1-3-3-4-3-1m-224 4h-1c-2-2-3-1-2 2 0 2 3 3 5 1h1a2 2 0 103-3c0-2-6-3-6 0m-33 2c-2 1-1 4 2 5 5 1 9-1 9-3-1-3-7-4-11-2m175 1v4l1 5c1 3 4 4 4 2 0-5-4-13-5-11m-383 6c-3 2 2 5 9 4l3-3c0-2-11-3-12-1m200 2l1 4v2c-2 1 0 6 2 6s2-2 1-7c-2-5-3-7-4-5m-128 6l1 1a1 1 0 010 2l-2 1c0 1 1 3 3 3l1 2c0 1 0 2 2 2l1-1v-9c-1-2-6-3-6-1m374 0l-4 1c2 0 3 1 3 2s-1 2-2 1l-3 1c0 1 1 2 3 1l2 1c0 2 5 3 6 2l-1-1-2-1 2-1 2 2 2 1v-4c0-6 0-6-8-5m-84 4l-1 4v3l-1-2c0-2 0-3-2-2-2 0-2 3 0 2l1 2c-1 1 0 1 5 1l7-1v-4l-2-4-1 2-2 2-2-2-2-1m57 6c0 6 1 9 3 9v-14h-1c-2 0-2 1-2 5m-161-1l-2 2c-5 2-2 7 3 6h6c3 0 3-6 0-7l-3-1-2-1-2 1m78 0c-2 2-1 11 2 11l1-6c0-5-2-7-3-5m-122 1c-6 1-7 5-1 6 5 0 8-1 8-3s-2-5-3-4l-4 1m-217 7c0 5 12 5 13 0 0-2 0-2-6-2s-7 0-7 2m205 3v5c-1 5 0 7 2 7s2-1 2-4c0-5 0-6 2-6 1 0 1-1-1-2h-5m-184 8c-1 6-1 7 2 7 2 0 2-1 2-6s0-6-2-6c-1 0-2 1-2 5m140 25c-6 3-8 6-8 13 0 4-4 3-4 0 0-5-11-13-13-10l-3 1-3 4-2 2v1c1 1 1 2-1 5l-2 7c-1 3-3 4-6 1l-4-1c-2 0-7 8-7 11-1 2-4 3-8 1-10-5-10-4-15 9l-2 2c-2 0-3 2-3 5 0 2 0 2 1 1l3-2c1 0 2-1 3-5l1-4 3 2c1 2 3 2 4 2l3-1-2 2c-8 8 5 7 14 0 4-3 6-4 8-2l-2 2c-4 1-4 4 0 4 3 1 6-2 6-4s8-7 11-7l3 3 2 2 1-2 5-2 2-2 3-1c2 0 3-1 3-2l1-3v-2l-7-10-3-3c-3-2-2-4 1-2 2 1 2 1 2-1l3 2c2 3 4 5 3 6l2 1 3-2-1-1c-1 1-2 0-2-1l2-1v-10l1 1h2c2-1 3 0 3 2l1 2c3-1 3 1 2 4v4c1 1 0 2-1 4-2 2-5 3-6 1l-2-2c-2 0-2 0-1 1l2 2c0 3 1 5 3 4v-2l6-1c7 0 9 1 5 3v2c2 2 5 3 5 2l-2-1c-2-1 5-8 7-8 3 0 2-2 0-2l1-1c1-1 2-2 2-8 0-9 1-7-8-15-4-4-8-4-15 0m95 1v5c1 3 1 3 4 3s4-1 4-5 0-4-3-4l-5 1m-77 33c-1 5-1 5-4 5s-3 0-2 4c1 3 1 4-2 6l-2 2 2 1 3 2h2l1 2 2-12 1-10v-3l-1 3m224-1c2 2 25 9 25 7s-4-4-11-5a176 176 0 01-14-2m-438 4c1 1 0 2-1 3-4 1-6 6-6 11 0 3 1 4 4 4l4 1 3 4 3 6c2 4 17 5 17 1 0-2-1-3-6-3l-4-3-2-5v-5l2-2h2c2 3 2 2 1-1-3-5-5-8-11-10s-8-3-6-1m36 1c-6 3-7 4-11 10s-4 6-2 9c1 2 3 3 3 1l1-1v-1c0-1 0-2 2-2l1-2c-1-1 0-2 1-2l1-2 3-3 2-2 3-1c4 1 4 1 3-1l-1-3c-1-2-2-2-6 0m143 8l-5 2c-2 0-2 1-2 3a16 16 0 0014 10v1c-3 0-2 4 1 4l3 3v-3c0-7-1-12-4-17-3-6-3-6-7-3m-120 6c-2 1-6 8-5 9l1-1c1-1 1-1 1 1s1 3 5 1c4-3 9-4 11-4v-1l-2-2-3-1c-1-1-2-2-3-1l-1-1h-4m20 3l-3 3-2 1c-4 0-10 8-10 12-1 5-1 5 1 5h2c1 1 2 2 3 1l3 1c1 1 0 1-1 1-4 0-5 2-3 4h2l3-1h1l-1 3c0 2 0 2 1 1a2 2 0 111 1l2 1c3 1 5 5 3 8-2 2-1 4 2 4l1 3c0 3 0 3 1 2l1-4c0-5 5-4 9 1l4 4 4-2c5-2 7 0 4 4-3 3-4 3-1 5 2 2 4-1 6-8l2-5v12c3 0 3-11 1-14l-2-4-1-2-2-2-3-8c-2 0-4-6-3-7 5-1 18 5 17 8l1 2a5 5 0 006-4l1 1 2 1v1c-2 0-3 2-3 3 0 3 25 5 26 2l-3-1c-3 0-4-2-2-3v-1l-2 1c0 2-3 3-6 2-4-1-4-1-4-8v-4h-7c-5 0-6 0-8-2l-3-2c-2 0-4-2-7-6-2-2-3-7-1-7v1l2 2c2 1 3 0 2-2v-1l1-1c0-2-1-2-4 0h-12c-5-2-18-3-21-2m52 9l-4 1-2 1-1 3c-2 2 0 3 6 2 5 0 9-2 4-2l-2-1 1-1v-2h1l3 3 2 1-6-7-2 2m35 0l-5 3-3 1c-4 0-8 2-6 4 2 0 5 0 13-3 12-5 12-5 10-6s-5-1-9 1m25 14c-1 4 0 4 6 3l6-1-3-2c-6-3-9-3-9 0M0 491c0 12 1 16 1 10a458 458 0 00-1-10m163-20l4 4 3 2h4c5 0 8-4 3-4-2 0-2 0 0-1 4-1 0-2-5-1l-7-1c-3-2-4-1-2 1m52 0l-8 2c-5 0-7 1-7 2l1 1c2 0 1 2-1 2h39l-9-4c-14-4-13-4-15-3m-27 4c5 3 5 3-4 4-11 0-10 1 2 1 10 0 10 0 11-2 1-3 0-4-7-5h-6l4 2m262 10c-4 3-4 5 1 5s8 3 4 5v1c3 1 3 0 3-6-1-6-3-7-8-5"
      itemprop="regular" tabindex="-1" style="fill-opacity: 0.99; fill-rule: evenodd;"></path>
    </symbol>
    <symbol id="-posters-1650603947940-bold">
      <path d="M534 3l1 9 1 15 2 9 1 11c-1 1-11 3-12 2v-1l-1-1-2 2c0 3-1 3-4 0-7-7-9-6-3 1 3 5 3 5 4 17 1 11 1 12-1 14h-2a5 5 0 00-4 0l6 5c4 5 5 5 2-3l1-3V70c-1-11-1-12 4-9s6 4 4 6a7 7 0 006 11c3 0 4 0 5 3 2 5 3 25 1 26-1 1-1 2 1 4l2 4v4c2 3 1 2 4 35l3 36 1 25v1l2 1c0 3-3 4-6 4s-5 0-6 2l-2 2 2 1c0 2-4 3-6 3-2-1-4 0-6 3l-7 4-10 4a337 337 0 01-37 13l-36 10-15 4h-6c-37 9-70 14-113 19a455 455 0 00-29 4l-24 1a1008 1008 0 01-43 4h-17l-20 1a2268 2268 0 01-67 4l-79 1H0v3l1 3 1 2-1 2a15 15 0 000 13c-1 1-1 6 1 5 1 0 1 2-1 5l-1 10 1 8 17-1h18l18-1 21-1h5c1 1 1 1 0 0l1-2 2 1c-1 1 6 1 18 1h19l-12-1c-12-1-13-1-13-7s-1-8-3-9c-1 0-2 0-2-2-1-2-1-2-1 2s-2 5-3 2c0-2-2-3-3-3h-2c1 1-4 2-7 1l-4-1h-3c-2 3-3 2-3 0l-1-3v2c0 3-2 4-7 4l-2 1h-1c-1-2-3-3-3 0l-1 1v-9l4-1h5l5-1c6 0 7 0 4-2-2-1-3-2-2-4l-1-2-1 4-1 2c-2 0-2-2-1-4v-1l-1 1h-2l-2-1-2-4c1-1 2-2 5-1l7-2c3-2 5-1 5 2 0 4 1 6 2 6v-1c-1-2-1-2 1-2l2 2c-1 4 0 5 2 4h1l2 2 1-1 1-1c2 0 1 5-1 5-2 1-2 1 1 1l3 1-1-6 1-5 2 2 2 3c1 1 1 1-1 1-2-1-3 1-1 2 1 1 8-2 9-4 1-4 5-5 23-6l17 1v5c-1 1 0 2 1 3s2 3 1 4h1c3 0 2-3 0-4-2 0-3-2 0-2a2 2 0 000-4c-1 0-2-1-2-3 0-3 2-6 4-5h2c0-1 4-6 8-7a23 23 0 0122 3l2 2 3 6 3 6 1 3v2l-1 3v3c-2 0-2 1-2 4l-2 1-2 2-2 2-2 2-3 1-3 1h-7l-3-1-4-2c-1-2-2-2-3-1v2l5 2c4 3 17 4 20 0l5-4 3-5 2-3c2 0 2-1 1-1v-10c-2-6-4-12-2-10h1c0-2 4-3 6-1h2c1-1 19-2 28-1h5l1 1 3 2c2 0 3-1 1-2v-4a3 3 0 012 5l3-1c3-2 3-2 4 0 3 2 2 3-2 2-3 0-3 0-3 2l2 1h3c3 0 5-4 2-4v-2c2-1 3 0 3 4l1 3v-13l7 1c8 0 10 2 8 5-2 2-2 2 1 2 4 0 4 0 3 2 0 2-2 2-6 2-10 0-12 2-2 2h9l2 1 2 2v-2l-2-4c0-3 0-3 1-1s1 2 2 0c0-3 2-2 1 2l1 3 1-6c-1-6 2-9 5-7 3 1 9 1 8-1l3-1c3 0 3 0 2 1-2 1-2 1 0 1h2c2-1 5-1 5 1l-9 1c-7 1-9 1-10 3s-1 3 1 1c2-1 5-2 14-2l2 1 1 1 1-2 2 2 1 1c-1-3 1-5 3-3 1 2 1 2 1 0l1 1v3c-2 1 0 3 1 1 2-1 4-1 4 1l-1 1v1c1 2 2 1 2-2 0-2 0-3-2-3v-2l2-4c0-5 3-6 23-7 16 0 17 0 17-2 0-3 4-6 4-3l1 3c1 2 1 2-2 2a2 2 0 100 4l2-1 3-1 2 1h2l2-1a1 1 0 112 1v1l2 1 2-1c0-2 0-3 1-2 2 2 0 5-4 5l-3 1c0 1 1 2 4 2l4 1c0 2-1 2-3 2s-3 0-3 2 0 2 1 1l1-2c5 1 5 0 5-4v-4l4-1 4 1 3 1c3 0 3 0 3 2 1 2 0 2-5 1-6 0-8 1-4 3l2 4c0 3 0 3 2 2h3c2 2 2 5 1 5l-1 1v3l1 2 3 2v-9l1 1 1 1c2 0 1-3-1-4-3-1 0-5 4-4 2 0 2 0 1-1s-2-2-5-1h-9l3-1 3-1 1-1c1 0 2-3 1-6-1-4 0-6 2-4h3a8 8 0 0111-2h1l4-1h3l-3-1-3-1h3a5 5 0 004-1l2 1 2 2 6 1c7-1 7-1 5-4v-2l2 1h1l-2-4v-5l-1-3v-1l1 1c2 2 3-2 2-6v-5l1 1 1 5 1-3c0-3 0-4 2-4s5 5 3 7h-1l-1-3-1 2a5 5 0 01-1 4c1-1 0-2-1-1-2 0-1 3 1 3l2 2v3c2 0 2 0 1 1s-2 2-3 1l-1 1c0 2 0 2 2 1h3c2 0 2 0 1-3l1-5 2-4 1-2c1-1 1 7-1 9-1 2 0 4 2 3h1l2 5 1-4c-1-3-1-3 1-1l1 4c-1 2 0 2 1 2l1-1a6 6 0 00-2-6h6c2 3 1 4-1 3l-2 1 3 2 4 1h1c-1-2 3-2 5 0h1l-1-1v-4c0-3 0-3 2-3 4 1 8-1 7-3h1c3 1 8-4 6-6h-1l-2 1c-2 0-1-3 2-5 1 0 2-1 1-2v-2a2 2 0 113 2l-1 1c-1 3 1 5 4 4l2 1 1 1c1-1 2 0 1 1 0 2 0 2 6 2l6-1v-1l2-3 2-4c1-3 3-4 3-2l1 2c2-1 0-5-1-4-2 0-2 0-2-2 1-3 7-3 7 1l1 3v-3c0-3 0-3 2-2 1 1 1 1 1-1s0-2 2 0l9 1c8 0 9 1 8 3 0 2 0 2 1 1l3-1c1-1 2-2 1-3l2-1c3 0 3 0 3-2l1-3 1 4 1 14 1 9v2c3 3 1 12-3 12l-5 1 2 1c1-1 2 0 2 1h-1c-2 0-2 1 0 3 1 1 1 1 2-2a3 3 0 015-1c-2-1-3 0-2 2h1c1-2 3 0 3 3 0 2-1 3-6 3-7 1-10 0-7-2v-2c-2-1-2-4 0-5l-3-1c-3 0-4 0-3 2l-2 1-2 1c-1 1 1 2 5 2l2 1-2 1-3 1h2c3 0 3 0 2 1l-2 2h-1l2 1-2 2c-6 2-6 7 0 7l5 1c0 1-1 2-8 2-6 0-8-1-7-2l3-1c2 0 2 0 1-1l-5-1h-3c-1 1-1 1-1-1v-3h-1c-1 1-1 1-1-1l-1-2 1 5v6c-1 2-1 2 1 1s4-1 3 1l-5 2c-4 1-4 0-6-3-1-4-2-4-1 0 1 5 3 6 5 5h3c1 1 30 0 34-1s5 0 5 14l2 20v8h-25l-1 4c0 4 0 4 2 5 2 0 2 0 0 2-2 1 2 2 18 4 7 0 8 1 8 6 0 2 0 2 5 2 4 0 4 1 4 3l-2 2-2-1-3-1c-3 0-3 0-2 3a54 54 0 01-1 22c0 6-1 5-4-2-2-5-2-7-1-7 2-1 2-19 0-20l-1-2h-1c-2 0-2 9 0 10 3 1 0 2-5 2-6 0-7 0-7 2 0 1 1 2 5 3 6 1 7 2 7 12l1 4h-6c-5 0-9-2-7-3h-3c-2 0-4 0-5-2l-3-2c-1 0-2 3-1 4v1l-2 4-1 3h-9l-7-1c-5-1-4-4 1-4 15 3 18 2 15-5-1-1-2-4-1-6v-9l1-4-4-1c-14-1-15-1-15-4s0-4-2-4a10 10 0 01-5-1v7h-5c-7-1-8 0-6 4l1 4 1 2 1 2 2 2 1-1v-1a2 2 0 11-3 3l-2-2 1 4v5l9 2c2-1 6 1 6 4h-8l-8-1c-5 0-7-2-3-2 2 0 2 0 0-1s-3-3-2-6a6 6 0 00-3-5l-9-1c-2-2-1-7 3-8 3 0 5-1 5-4 0-2 0-2-7-3-9 0-11-1-9-3 1-1 1-1-2-1l-4-1h4c2 0 2 0-1-2-3-1-3-1-1-2 3-1 3-2-1-2h-3v5l1 5h-14l3 2c4 3 4 3 0 2h-4v16c-1 1-1 1 4 2l3 3 3 2 4 1 1-1v-2l2 2c1 2 6 3 6 1s2-1 5 2c1 1 2 2 3 1h2l1-1c0-3 2-2 3 1 0 3 2 4 6 4l5 1 5 2c4 1 5 1 5 5 0 6 9 8 11 2 1-6 7-4 6 2 0 2 0 2 2 2 6 0 19 17 19 23-1 6 0 10 2 11 2 2 1 4-1 6l-22 26 26 1h27l-1-159V37l-6-2a102 102 0 01-26-8c-4 0-9-11-7-16 1-2 9 1 13 4l5 2 4 1c2 2 6 4 9 4l5 2 3 1V0h-42v3M367 210l-4 2-14 5-10 4-10 3-18 5-6 2-5 1-4 1-4 1-12 3-3 1-11 2-40 7c-1 0-2 0-1 1l-6 1-13 1c-5 1-26 4-45 5-18 1-22 2-21 3s1 1-1 1l-3-1-39 1-32 1c-14 0-17 0-17 2h33c36-2 51-2 50-1a18 18 0 01-15 0l-4 1c0 1-13 2-14 1h-3c-1 2-1 2 18 2a194 194 0 0028-3l19-1 24-2 14-2 1-2v1c0 1 0 2 2 1l15-2 13-2c0-1-3-1-9 1-1 0-2 0-1-2 0-2 2-3 2-1h6c5 0 5 0 3-1h6l-1 2 9-1c7-1 8-2 6-2h-3l3-1h5c-2 1 5 1 13-1l17-3 12-3c-1-1-1-1 1-1h6l9-2c5-1 6-3 3-3-1-1 0-1 2-1l3-1h5l1-1-1-2-1-1 2-1 1 1 2 2h2l-2 1-2 2 9-4v-3c-2 1-4-1-4-2l2-1 1 1 1 1 1-1 4-1c5 0 5 0 5 2v1l1-3c0-2 0-3 3-3 3-1 5-2 6-4s3-3 3 0h1l4-1c3 0 3 0 2 1v1c2 0 3-2 1-3-3 0-4-3-1-3l1-1 2-1 2-1c0-2-3-1-5 1m-218 48c-3 0-3 0-1 1s0 1-5 1c-4 0-7 0-6 1 2 1 28-1 27-2l-6-1h-9m328 6c1 1 1 2-1 2s-3-1-3-2l-1-1c-1 1 0 5 2 5l1 1-1 1h-1c0 2 4 2 8 0 2-1 2-1 1-2l-2-3-2-3-1 2m-18 4l-1 2h-2a1 1 0 11-2 0l-1-2-1 3 1 4 2 1v-3h1c0 2 2 3 3 2v-4l2 2c0 2 0 2 1 1v-2l-1-3-1-2c-1-1-1 0-1 1m14 6l-1 2-1 3v2l-1 2c1 2-1 1-2-2l-2-2-2-2-2-1c-2 2-1 3 1 3 2 1 2 1 0 2v3h2c1-2 2-2 3 0 2 2 5 2 5 0l2-1 3-2v-2c-1 1-2 0-2-2-1-3-3-5-3-3m32 1c0 2 0 2-1 1s-8-1-9 1l2 1h2c2 2 12-1 11-3 0-3-5-2-5 0m-55 3c-3 1-1 9 3 9 2 0 5-3 3-4l-1-3c-1-3-2-3-5-2m102 5v2l-2 1a5 5 0 00-5 7h5c5-1 6-2 5-8 0-3-2-4-3-2m-298 12c-2 1-1 4 1 4 6 2 11 0 10-4-1-1-10-2-11 0m216 5c-1 2-5 3-6 1a4 4 0 00-4 1l2 2 4 2c3 0 6-3 6-7 0-2-2-1-2 1m37 5c1 4 2 5 3 3 1-1 4 0 7 4 1 2 4 0 4-5 0-3-1-4-2-3l-2 2-1 2c-1 0-2 0-2-2s-1-2-3-2l-3-1-1-2v4m-458-1c-2 2 2 5 6 4 3 0 3 0 3-2l1-2 1 2h1c3-3-8-4-12-2m-14 1l-1 19c2 3 3-1 3-10l-2-9m435 3h-4l-1-1c-1 0-2 5 0 5v3c-1 3-1 4 1 4l1-1v-5c-2-2-2-3 2-3 1 0 2 0 1 2l1 1 1 1h-1l-1 1h3l1 1-2 1c-2 0-4 2-1 2v1c-2 2-2 2 0 3v2l-1 4c1 3 3 5 4 3l-1-1-1-1h1v-2l1-3 1 2 2 1c2 0 2 0 1-1l-1-1c3 0 2-2-1-2s-3 0-3-3c0-2 1-3 2-3l1-2-1-2-2-2c-1 0-1-1 0 0l1-1 1-3c0-2-2-2-5 0m-428 7v11c1 4 0 5-1 3h-2l-2 2v1l-2 2v1l2 1h4c3 0 3 0 3 5 1 5 2 5 3 1l-1-33-2-2c-2 0-2 1-2 8m513 0c-5 0-6 2-4 5 2 2 9 2 11 0l-2-6-5 1m-223 4l-4 1h-1c-2 0-2 0-2 2s0 2-1 1c-2-1-7-1-6 1 0 4-1 4 15 3l21-1-2-6-1 1h-6l-6-1-2-2-5 1m125 6l-1 1c-1-1-2 0-3 1l-5 1h-2c0 1 1 2 4 1 3 0 4 0 4 2 0 4 1 4 2 4l2 1 2 1 3-1h-2l-1-1c1-1-1-9-2-10h-1m-208 2l-6 1c-5 0-6 1-6 2h4l17-1c2 0 3 0 2-1h-4l-4-1c0-2-2-2-3 0m17 4l2 8v4h-5l-6 1-1-1h-1l-2 1 1 1h13c3 0 4-1 3-2 0-2 0-2 3-1 3 0 3 0 1-1l-3-1-1-4-3-9-1 4m79-2h-13l-13 1v4c1 7 2 7 11 7l17-1h10l-1-5-1-5c-1-1-9-2-10-1m143 3a2 2 0 103 2c1-2 4-3 4-1l-1 1-1 1 5 1c4 0 4 0 2-1-1-1-2-1-1-2h1a2 2 0 103-2c-5-1-6-1-6 1h-1c-1-2-7-2-8 0m-118 0c-1 2 1 7 4 7l2 1 1 1v-2l-1-6c0-2-4-3-6-1m-59 2c0 2-4 2-5 1h-1l-4 1c-3 0-4 0-3 1 0 2 1 2 1 1h3l-1 2-1 2c0 2 3-2 3-4 0-1 1-2 3-1 2 0 2 0 0 2-1 1-1 1 1 1l2-2c0-1 2-2 5-1l-1 1-1 2c1 1 3 0 3-2l1-2h-1l-3-2h-1m-251 2l-1 1c-2-1-4 2-3 5 0 1 1 2 6 1l5 1c-2 1 1 4 3 4s2-1 2-5c0-5 1-5 2-4 4 1 7 2 7 4h1c2-1 4 1 4 3a2 2 0 103 0l-1-2c-3 0-4-3-3-5s1-2 1 0c0 5 7 3 7-2 0-2-3-3-3-1H66c-2 2-2 2-4 0h-2m-60 8c0 4 0 7 1 6l5-1 4-1c0-3-1-3-5-2s-4 1-4-2c0-2 0-2 5-2l4-1-4-1c-4 0-5 0-5-2-1-1-1 1-1 6m129-7l1 6c0 6 0 5 2 4h1l7-1-1-2v-1l-1-1-2 1-2 1-3-4c0-3-1-4-2-4v1m199 10l-2 1a3 3 0 00-3 4l1-1h3l1-1 1 1v1l1-1c1-2 3-2 8-2s6 0 6 2l1-1h2c-1 1 0 1 3 1l5-1h1c1 1 1 1 1-1 1-2 1-2-2-2h-8l-1 1v-1l-1-1-2 1-1 1-2-1a1 1 0 00-2 0l-1 1-1-1a1 1 0 00-2 0l-1 1c-1 0-2 0-1-1l-2-1-2 1m-181 9c-3 2-1 3 6 3 6 0 8-1 8-2 0-2-13-3-14-1m18 1c0 1 2 2 8 2 5 0 7-1 7-2 0-2-1-2-7-2-7 0-8 0-8 2m-154 0l-1 1c-4 0-6 9-2 10h9c2-2 1-9-2-11h-4m15 0l2 1a3 3 0 11-4 1v-1c-2 0-3 8-1 10 1 1 1 2-1 3a14 14 0 000 13l-1 2c-2 6-4-1-3-12 0-2-1-3-2-3l-2-1h-4c-3 0-5 3-5 8 0 2 0 2-1 1-2-1-3 6-3 28 0 15 0 16 1 15 2-2 2-1 1 3-2 5-3 31-1 31l1-3c-1-6 0-14 2-19 3-5 3-7 0-5H3l3-2 3-1h6c3 3 16 3 17 0l5-1 4-1c-1-1 2-2 3-1h2c2-1 2-1 2 1 0 1 1 2 3 2 3 0 3 0 5 5 2 8 1 21-2 29-3 5-3 6-2 8l2 3c0 2-2 1-3-1-4-8-6-10-8-6 0 2-1 3-4 2l-3 1c0 2 2 3 6 2 5-1 4 2-1 4-3 1-4 2-4 4l1 18v17h28l28-1-3-3h-1c-1-1 0-4 2-4v-3l-2-1-2-4-3-7-1-4c-1 1-2 0-3-1-2-1-4-1-4 1l2 1h1c0 2-3 1-6-1l-6-5c-3-1-4-3-1-2l1-1-3-1-2-1h-2c-1 0-2-2-2-5l-2-5c-1-1-1-1 1-1 3 1 4-1 6-9 1-9 4-14 6-14l3-1c1-2 7 0 9 2s2 2 5 1 4-1 1 1c-3 1-4 2-2 3l3-1a35 35 0 0129 2c2 0 4-4 3-5l-1 1-2 1-2-2-1-3 2-3c2 0 7-4 6-5l1-1 3-2 4-1 3-3 4-4 2-1c0-2 2-3 2-1h3l-1 1c-4 2-2 3 2 2 3 0 4-1 3-2 0-2 0-2 3-2 2 0 3-1 5-3 2-4 1-8-2-8v1c2 0 2 1 0 4l-1 5h-2c-2 0-2-1-2-4 0-4-1-5-3-3h-11l-2 1c-1-3-4-2-4 0s-1 2-3 3l-7 1v2l-1-1v-2l5-2c2 0 3 0 2-1l-3-1h-6l-2 1 1-2 3-1v-2c0-2-1-2-1-1 0 2-2 3-2 1l-1-2-6-1c-4 0-7 3-7 6 0 1-1 2-3 1l-7-1h6l-1-1c-1 1-6-1-6-2l2-1h4c3-1 3-1-21-1l-21 1v1c-1 0-2-1-1-2H41l-13-1 2-1 6-1h-3c-2 0-2 0-1-2h-3l2-3c2-1 2-12-1-12v-2c2-2 3-11 1-11l-3-1-2 1 2 1c3 1 2 5-1 6-3 0-3 0-3-3 0-6 1-7 5-7 2 0 3-1 3-5s0-5-2-5l-3-2-1 1m322 1h-7l-1-1-2 1h-2l-2-1v1l-1 1-1-1h-4c0-2-5-1-5 1-1 1 0 1 1 1 2 0 2 0 0 1l-2 1a47 47 0 004 1l-1 1c-2 1 0 1 5 1 6 0 7 0 6-1 0-2 1-2 4-2l3 2 4 1a4 4 0 004-2l1 1c-1 1 0 1 2 1l2-1c-1-1 0-1 0 0 2 0 2-1 2-3 0-4 0-4-2-4h-4l-1 2-1-1-1-2-1 2m-300 7l-1 9 10 1 12-1c8 0 1-1-9-1H50l-1-7c0-6 0-7 2-7 1-1 1-1-1-1s-2 0-2 7m98-3c0 2 0 2 5 2h4l-4 1c-4 0-5 0-5 2l7 1 8-1-1-2v-1c2-4 1-4-7-4-6 0-7 0-7 2m19 0l7 1 8-1c0-2-2-2-8-2s-7 0-7 2m1 3l-1 2c0 2 17 2 17 0v-2h-16m157 3a10 10 0 001 6h1c1 1 4 2 18 2h16v-3l-2-3-2-1c1-2 0-2-5-2s-6 1-6 3-2 3-3 1h-2c0 2-2 1-3-1-1-3-2-3-7-3l-6 1m-129 1l-1 3v3l1-3c2-4 6-4 6-1s-2 5-4 5c-2-1-4 1-2 1 2 2 7 1 7 0v-2a5 5 0 00-7-6m18 0c2 4-1 7-4 6-2 0-3 0-2 2l3 1c2 0 3 0 3 4s0 4 6 4l4-1c0-1 1-2 2-1 2 0 3-3 1-3v-3c1-2 1-2-4-2h-6c-1 1-1 0-1-3l-1-5-1 1m-98 1l-1 6c0 3 1 3 4 3 4 1 6-1 5-5 0-4-1-5-3-5s-2 0-1 1a3 3 0 11-3 2c1-3 1-4-1-2m13 0c-1 0-2 8-1 9h9v-5l-1-5-2 1 1 1 1 2c0 2-4 5-6 3l1-6h-2m240 7c0 1 1 2 3 1 3 0 13 1 11 2-2 0-4 6-3 9 1 2 1 2-5 2h-6l1 2c1 2 2 3 4 2 1 0 2 0 1 3 0 2 0 2 1 0l2-2 2-1c0-2 7-3 11-1 4 1 5 10 1 10-3 1-6 0-6-2l-1-2-1 2c-1 2-7 3-7 1s-2-3-2-1c-1 1-5 2-7 1-2-2-2 0-1 2a6 6 0 012 4l6 1c8 1 30 4 31 3s0-8-1-8l-1-2v-2l-2 2c0 2-1 2-3 2-5-1-6-8-1-8 2 0 5-2 6-4 1-1-1-1-5-1-7 0-11-1-11-2 1-1 0-2-1-3-2-2-2-5 1-5l2-2c1-2 2-2 7-2 4 1 6 0 5-1l2-1c1-1 1-1-1-1l-3 1h-2l-4-1c-3 0-4 0-3 1l-1 1c-1 0-2 0-1-1l-10-1c-10 0-11 0-10 2m41 0c0 2 1 2 4 2a68 68 0 0111 1c2 0 2 0 0 1s-3 3-2 4c1 2 7 1 7 0-1-2 0-2 1-2l2-1c0-2 1-2 7-2 8 0 10-1 8-3h-3l-4-1a5 5 0 00-4 2l-1-1c0-2-3-1-3 0h-2l-3-1-4 1h-2c-1-1-4-2-3 0 0 1-2 2-2 0h-4c-1-3-3-2-3 0m42 1l3 1h-3c-6 0 0 2 8 2l9 1-1 1-2 1c0 2 9 1 9-1l8-1c8 1 8 1 8-2 0-1-2-2-12-2h-27m-154 1v2l-6 2-6 1c0 2 3 3 4 2l3 1h1l1-1c3 1 5-2 4-6l-1-1m27 3v4h8l18 1h10v-8l-18-1h-18v4m172-3v1l-2 2c-3 1-3 1 8 2 8 0 12 1 7 1l-2 1v5h8l-1-1-1-1 2-1c2 0 3 0 2-2 0-2 0-2 3-2 10 2 14 2 14-1 0-2-1-3-9-3l-29-1m64 0l-4 1h-1c-1 0 7 3 11 3l2-2c0-3-3-4-8-2m-370 1c-4 2-5 3-5 8 0 3 3 5 6 4l1 1h11v-5l-1-5-1 3-2 4-4 2h-2v-3c3 0 5-7 3-9h-6m-74 2l-1 2c-1-1-2 0-1 3l1 5 1 4v4h-8c-4 0-7 0-5-1 3-1 4-5 1-5-2-1-1-1 1-1l5-1v-8l-1 3c0 3-2 5-6 4-2-1-2-1-2 1 0 1 0 2-1 1-2 0-3 3-2 6l3 2 2 1h20c10 0 12 0 12-3 0-2 0-2-1-1 0 2-1 2-8 2h-7v-3c0-3 1-4 2-4a6 6 0 00-4-11h-1m15 0l1 1 1 1 1 3a3 3 0 11-5-3v-1c-2 0-2 1-2 4 0 4 0 5 3 5l4 2c0 2 0 2 1-1a8 8 0 00-4-11m-69 2c1 4 3 6 10 5 3 0 6-2 6-4 1-1 0-1-7-1l-9-1v1m251 4v13h-3c-6 0-8 1-8 3v2l-1 1h1l2 2c1 1 1 0 1-1-1-2 0-3 2-2 6 0 7-1 7-11l-1-7m109 0v3c0 2 0 2-6 2s-6 0-6 2l2 3c0 1 1 4 3 5 3 3 2 7-2 4h-1l1 4c0 2 1 2 5 2 3 0 4 0 3-1s-1-1 2-1c4 1 6-2 2-4-2-1-3-2-3-5-1-5 0-5 2-1 1 3 2 3 2 2 0-3 4-3 4 0l1 2c2 0 2 0 2-3v-4l1 3c0 2 0 3 1 2l2 2c1 1 1 0 1-1 0-3 0-3 2-1 1 2 1 5-1 6s-3 0-4-2-1-2-1 0c0 6 5 10 9 8 2-1 2-3 2-8v-10l1-3h-8c-7 0-9-1-9-2l-1-4-2 1a1 1 0 11-2 0c0-2-2-3-2-1m-98 6v5h11l15 1h11v-4c0-5 0-5-3-5-1 0-2 0-1-1l-1-1c-1 0-2 0-1 1l-1 1-2-1-14-1-14-1v6m-161-5l-6 1c-4 0-4 1-4 3 0 4-3 6-5 5s-2-2-2-4v-2l-1 4c0 6 1 6 12 6 8-1 8 0 4 2-2 2-2 2-1 3l1 3c0 2 0 2 1 1 0-2 3-3 5-2v1l3 3 3-9-2 2-1 1h-2l-2-1 5-4c3 0 5-9 3-11l-11-2m125 2a2 2 0 000 2l3-1c2 0 2 0 2 3s-1 3-4 3-3 0-2 3c1 2 5 3 7 1 1-2 2-9 1-11h-7m-273 4l-2 2c-1 4 0 4 4 5 7 0 10-1 10-4 0-2-1-3-4-3h-8m29 2l-1 3-2 1h-2l7 1c5 0 6 0 5-1l-2-3c0-3-4-3-5-1m420 2c-1 1-1 2 1 3s2 1-1 1c-4-1-5 2-3 6a5 5 0 008 0l1 2c0 2 7 2 8-1 1-2-1-8-3-10s-9-3-11-1m-139 3l-1 2c0 2 2 3 14 3l16 2h7v-3c0-3-4-5-5-2-2 2-27 1-27-2 0-1-3-2-4 0m127 2c-1 4 0 6 3 6s3 0 3-3c-1-5-4-7-6-3m-162 2v5l1 1 4 2c2 3 2 3 0 4l-2 3-1 1-1-3c1-2 0-3-1-3-2 1-3-1-2-3 3-5 1-6-5-4-2 2-3 2-3 0h-2c-1 1-9 2-11 1s1-2 3-2h2c1-1 0-1-1-1l-3-1c0-1-12-1-13 1v2l-2 1a7 7 0 00-5 1l4 1c5 0 6 1 6 2l-1 1c-1-1-3 1-3 4l2 3 2 2 1 2 1 1c-1 2-3 0-3-2s-4-2-5 1c-1 2-7 3-7 1s3-3 4-2h1c0-2-1-2-6-2a10 10 0 00-11 6v-2l-1-1-1 2h-2c-1-1-1-1-1 1s1 3 8 3h11l6-1 3-1h2l2-1 3-1c1-1 3-2 4-1l4-1c1-2 1-2-3-2l-4-1 1-1a10 10 0 005-1c-2 0-4-6-2-6 1 0 3 2 2 4h1l1-3h2c2 1 2 2 1 2-3 0-2 4 0 4 6 0 8 3 2 3-4 1-26 8-30 11h-7c-12-3-13-2-13 8 0 3-2 5-3 3l-2-1-1-1c0-2-6-5-10-4-8 2-9 3-8 5l1 10c1 8 2 10 5 10l6 2 15 6c15 4 15 4-15 5l-43 2c-23 1-23 1-29-1l-6-3-6-1c-4 0-5 0-7-2-1-1-1-1-1 2 2 7 7 15 11 15 3 1 8 6 8 8l-4 2c-4 0-7 3-4 4s1 5-3 6c-6 1-6 1 6 1l16-1h7l116 1h114l2-4c2-2 4-3 5-2a1 1 0 100-2c-1 0-1-1 1-1 2-1 5-9 3-11-2-3 5-5 8-3 2 2 2 4-1 4l-2 1 2 1c2 0 2 0 1 2-2 2-2 6-1 5h3l2-2 1-3v-1c-1 0-1-1 1-2a4 4 0 001-6c0-2 2-2 5-1 1 1 7 0 7-2-1-2 4 0 6 2l2 1h1l2 2c2 0 2 0 2-2l-1-2h-3c-2 0-5-2-4-4h11l1 1 16-1c4 0 5 1 5 2 0 3 3 3 4 1l1-2c-3-1-2-3 1-3l15-1c13-2 14-2 15-11a14 14 0 012-8c0-3 0-4 1-3h1l-1-2-6-12 2-1 1-1 1-4c0-2 0-2-3-2l-13-1-13-1-3-1-6-2-8-3c-2 0-2 0-1 2l-1 3c-2 0-2 1-2 4 1 4 0 4-1 3-2 0-2 0-1 1l2 2-2 1c-1 0-2 0-2 4v4l-1-5c0-4-1-4-3-5l-4-2c-1-2-6-2-7 0-1 7 5 12 13 12l4 1 3 3 9 4a35 35 0 0011 4c1 1-1 2-8 2l-35 6a605 605 0 01-39 7c2 1 0 2-2 1s-2-1-1-2c2-2-7-10-9-9-1 1-2 0-3-1v-3l-2 1a1 1 0 11-1-1c2 0 0-2-6-4l-7-3c-2 1-8-1-8-3-1-2-9-4-17-4l-9-2c-2-2-13-4-23-4l-7-1-8-1-9-2-3 1h-5c-1-1 11-6 16-6l2-1c-1-1 0-2 3-2s4 1 3 2c0 2-1 2-4 2s-3 0-2 2h3c5-1 8-1 9 1 0 1 3 2 3 0l2-2 3-1h-3c-2 0-2 0-1-2 0-2 0-2-3-2s-3 0-2-1l3-2c2 0 4-2 4-4h-2l-1-5a10 10 0 000-8l-5-1-8-1c1-1 0-2-1-2v-1l1-2-2 1m229 1l1 11c0 4 0 4 4 4h5l-1-7-1-7-8-1m-205 4v9c0 5 0 5-2 5h-1l7 1a51 51 0 0111 2l5 1c2 1-7 2-10 0-1-1-15-1-16 1l7 1 7 1-2 1c-2 0-2 0-1 1 2 0 2 0 0 2s-1 2 4 1c4-1 5-3 3-3l-2-1 6-1h8l2-1v-1c4 2 7-4 5-7l-1-8c0-3 3-2 4 1l-2 3c-2 1-1 2 2 2 2-1 1-9-1-10a6 6 0 00-6 9c1-1 3 2 2 3l-1-1-2-1h-3c-1-1-1 0-1 1l-1 3-1-2c1-2-1-3-2-1l-1 2-4-1-3-2h1c4 1 6-6 4-11-1-2-2-2-3-1h-3a3 3 0 00-4 1c2 0 2 1 2 3 0 3 0 3-2 3s-2-1-2-4c0-5-2-5-3-1m40 2l2 1 3 1h-3c-2 0-3 2 0 2v1l-2 1c-1 11-1 12 7 12l4 1 2 1 3 1h-8l-11-1-10 1 6 1c4-1 6-1 7 1v1c-3 0-1 2 3 3s4 1 2 2h-3c0-1-7 6-7 8h4v-1l1-2c4-2 7-1 7 1l2 2v-1l4-1c2 0 3 0 2-1-3 0-2-2 1-3s1-3-5-3c-2 0-5-1-5-3h10l2-3c3-2 3-2 2 1l1 2 1-1c-1-2 0-2 5-2l5-1 1-1v-1l-1-1-1-1h2c1 0 2 1 2 3s1 3 3 4l10 2c8 2 13 3 13 1v-8c4 0 4-11 1-12s-6 2-5 4c0 1 0 2-2 2l1 2c2 2 3 4 1 4l-1-1h-5l-3 1h-4c-2 0-3-2 0-2 0 0 2-1 2-3 1-2 2-3 5-2l3-1-4-1c-4 0-4-1 0-3l3-1h-3c-2 1-3 0-3-1-1-1-1 0-1 3 0 4-2 7-3 5-2-1-1-6 0-7 2-2 2-3-1-2l-2-1v-1l-1 5c0 3-1 4-2 4-2 0-2 0-2-4v-4a10 10 0 000 12h-1l-3-1-2-1c0-2 0-2 1-1s1 0 1-3c0-5 1-5-12-6l-4-1 4 1 4 2h-4c-4 0-5-1-5-3s-2-3-2 0l-1 1-1-2-1-2-1 2c0 1 0 2-1 1v-1l-1-1h-6m-122 1v5c0 3 5 1 5-1s1-3 2-1v-1l2-1c1 1 1 1 0 0-2-2-9-3-9-1m-163 5v4c0 3 2 5 3 3l1-2 1 1c-1 1 0 1 1 1l1-1v-1l2 1 2 1c0-1 8-2 19-2l4 1c0 2 1 2 6 2a4 4 0 006-3l1 1c-1 2 2 4 5 4s1-4-3-5v-1c1 0 2-1 1-2v-3H93l-25 1m357 3c-4 0-4 0-4 5 0 3 1 4 2 4l-1 1c-2 1-2 1-1 3l1 1c-2 0-2 1-2 3v3c-2 0 4 3 8 3l4 1v-13c1-2 5-2 5 1s3 3 4 0l1-4-4-4v2c0 2 0 2-2 2-3 0-4-3-1-4 1 0 1-1-2-2l-2-2h-6m-210 3l-3 3c-4 1-4 4 0 4 3 1 9-4 7-7-1-2-3-2-4 0m-188 6l1 2 3 6c1 3 3 4 4 0a71 71 0 016-8H27m154 3l-4 1h-5c0 2 5 3 8 3l4-1 3-1-1-1-3-1c0-2-2-2-2 0m148 3l-6 2-8 1c-4 1-4 3 0 2l3 1 3 2h5c2 1 2 0 3-1l2-2 1 2v2l1-1 4-1c3 0 3 0 3-3 0-5-1-6-11-4m225 1v2l-1 1c-2 0-1 3 2 3 4 1 7 0 3-1-2-1-2-1 0-1 3 0 3-3-1-4h-3m-177 1l7 1c3 0 3 1 3 2s1 2 4 2l5 1h4c0-2 1-2 4-1 3 0 3 0 2-1l-6-2-8-1c-4-2-15-2-15-1m-224 4l-2 1h2c4 0 6 2 5 5l-1 4c0 2 0 3-3 3-2 0-2 0-2-5 0-4 0-4-2-5-3-1-6 0-6 2h1c2-2 3-1 3 2-1 2 0 3 2 5l2 4 5 2c5 0 5 2 1 2l-4 1c0 1 7 2 16 2l5 2a3 3 0 003 0c-4-1-2-2 5-2 5-1 7-1 8-3l4-3v-2c-2-1-2-2-2-3 1-2 0-4-2-6-4-3-4-4-16-5-16-2-19-2-22-1m253 2c-2 2 1 3 6 3 3-1 3-1 3 1 0 1 1 2 6 4 7 2 8 2 8 1s1-2 3-2h3l-3-2a52 52 0 00-22-5h-4m-15 4l-5 3h-1c0-2 0-2-3-1l-5 1-9 2c-6 0-7 2 0 2h3c-4 1-2 3 3 4l6 2h3l-2-1c-2 0-3-1-2-3 1-1 1-1-1-1l-2-1c0-2 2-3 2-1 0 1 1 1 2-1h3c1 1 5 0 5-1 1-1 3-2 6-1 5 0 7-1 4-3l-2-1-5 1m-212 4l-5 1-2 1-5 3-5 2c0 2 4 4 5 3l11-4c11-4 12-4 9-6-2-2-4-2-8 0m231 1l2 3 2 1 6 5 6 4c0 2-3 2-4 0h-2l-1-1-2-2-1 1c2 3-1 4-4 1l-4-3-2-2h-3c-4 1-5 1-4-1l-2-2c-2 0-3-2-3-2a2 2 0 00-3 0l1 1 4 3-2 3v1l2 2 2 1 3 2 2 3h-4c-7 2-6 3 1 3l6-2 4-1 10-1 2-1h4l2-1 2-1 7-1c0-1-3-2-5-1h-2l-2-2c-2 0-12-8-13-10s-5-2-5 0m29 0c0 2 17 10 20 10 4 0 2-2-2-3l-10-5-8-2M8 455l1 1v2c-1 2-1 2 1 4l2 2H9c-2-1-2-1-2 1l1 3 2 1c2-1 4 0 4 3 1 3 4 3 9 0 7-3 8-5 3-5-8 0-10-1-13-6-3-6-5-8-5-6m391 9l5 5 2 2h2c4-1 4-3 0-3l-3-2c0-2-5-3-6-2M1 495v17h4l5-1 4-2h3l-2-2c-2-1-2-2-1-3l2-6h-3c-4 3-6-1-2-4 2-3 2-3 0-3l-3 2-1 3v-3c0-2-2-3-3 0s-2 1-2-7c0-14-1-9-1 9m449-4c-3 2-1 9 2 8 2 0 2 0 1-8h-3m16 2c0 4 1 5 4 5 2-1 3-6 1-7-3-2-5-1-5 2m-44-1h-3a1 1 0 100 2c2 0 2 1 1 4 0 3 0 3 3 3s3 0 3-4v-5h-4m-253 5c-4 2-1 3 4 2 4-1 7 0 4 1-2 1-1 2 3 3 3 0 4-2 1-3l-2-2c-1-2-6-3-10-1m262 6v1c2 0 1 2-2 3l-2 2v2c-1 1 0 1 2 1 4 0 5-1 4-3-1-1-1-1 1-2 3 0 4-2 2-2v-1c0-2-3-3-5-1m14 1l-2 5c-3 2-1 3 3 3 4-1 7-7 5-9s-5-1-6 1m-42 1l-2 4-2 2h3c4 0 7-2 7-5-1-2-6-3-6-1m14 0l-1 1h-1l-1 2-1 1-1 2c-1 1 0 1 2 1 5 0 11-5 8-7h-5"
      tabindex="-1" itemprop="bold" style="fill-opacity: 0.773; fill-rule: evenodd;"></path>
    </symbol>
  </defs>
  <use class="background" href="#-posters-1650603947940-background" fill="url(#-posters-1650603947940-background-gradient"></use>
  <use class="light" href="#-posters-1650603947940-light" fill="url(#-posters-1650603947940-light-gradient" filter="url(#light-filter)"></use>
  <use class="regular" href="#-posters-1650603947940-regular" fill="url(#-posters-1650603947940-regular-gradient" filter="url(#regular-filter)"></use>
  <use class="bold" href="#-posters-1650603947940-bold" fill="url(#-posters-1650603947940-bold-gradient" filter="url(#bold-filter)"></use>
  <use class="emboss" tabindex="-1" href="#-posters-1650603947940-light" fill="url(#-posters-1650603947940-light-gradient" filter="url(#emboss)"></use>
  <use class="emboss" tabindex="-1" href="#-posters-1650603947940-regular" fill="url(#-posters-1650603947940-regular-gradient" filter="url(#emboss)"></use>
  <use class="emboss" tabindex="-1" href="#-posters-1650603947940-bold" fill="url(#-posters-1650603947940-bold-gradient" filter="url(#emboss)"></use>
  <defs>
    <g class="gradients">
      <radialGradient gradientUnits="userSpaceOnUse">
        <stop itemprop="radial" stop-color="hsla(100, 1%, 45%, 1.00)" offset="0%"></stop>
        <stop itemprop="radial" stop-color="hsla(90, 2%, 44%, 1.00)" offset="15%"></stop>
        <stop itemprop="radial" stop-color="hsla(84, 2%, 42%, 1.00)" offset="30%"></stop>
        <stop itemprop="radial" stop-color="hsla(108, 2%, 39%, 1.00)" offset="45%"></stop>
        <stop itemprop="radial" stop-color="hsla(90, 3%, 42%, 1.00)" offset="60%"></stop>
        <stop itemprop="radial" stop-color="hsla(100, 2%, 57%, 1.00)" offset="75%"></stop>
        <stop itemprop="radial" stop-color="hsla(98, 3%, 57%, 1.00)" offset="90%"></stop>
      </radialGradient>
      <linearGradient gradientUnits="userSpaceOnUse" x1="0" x2="0" y1="0" y2="100%">
        <stop itemprop="vertical" stop-color="hsla(100, 1%, 45%, 0.89)" offset="0%"></stop>
        <stop itemprop="vertical" stop-color="hsla(90, 2%, 44%, 0.89)" offset="15%"></stop>
        <stop itemprop="vertical" stop-color="hsla(84, 2%, 42%, 0.89)" offset="30%"></stop>
        <stop itemprop="vertical" stop-color="hsla(108, 2%, 39%, 0.89)" offset="45%"></stop>
        <stop itemprop="vertical" stop-color="hsla(90, 3%, 42%, 0.89)" offset="60%"></stop>
        <stop itemprop="vertical" stop-color="hsla(94, 2%, 57%, 0.89)" offset="75%"></stop>
        <stop itemprop="vertical" stop-color="hsla(98, 3%, 57%, 0.89)" offset="90%"></stop>
      </linearGradient>
      <linearGradient gradientUnits="userSpaceOnUse" x1="0" x2="100%" y1="0" y2="0">
        <stop itemprop="horizontal" stop-color="hsla(105, 2%, 45%, 1.00)" offset="0%"></stop>
        <stop itemprop="horizontal" stop-color="hsla(90, 2%, 44%, 1.00)" offset="15%"></stop>
        <stop itemprop="horizontal" stop-color="hsla(96, 2%, 41%, 1.00)" offset="30%"></stop>
        <stop itemprop="horizontal" stop-color="hsla(96, 2%, 39%, 1.00)" offset="45%"></stop>
        <stop itemprop="horizontal" stop-color="hsla(94, 3%, 50%, 1.00)" offset="60%"></stop>
        <stop itemprop="horizontal" stop-color="hsla(103, 2%, 61%, 1.00)" offset="75%"></stop>
        <stop itemprop="horizontal" stop-color="hsla(94, 3%, 40%, 1.00)" offset="90%"></stop>
      </linearGradient>
    </g>
    <g class="generated gradients">
      <radialGradient id="-posters-1650603947940-background-gradient" gradientUnits="userSpaceOnUse">
        <stop stop-color="hsla(100, 1%, 80%, 1)" offset="0%"></stop>
        <stop stop-color="hsla(90, 2%, 80%, 1)" offset="15%"></stop>
        <stop stop-color="hsla(84, 2%, 80%, 1)" offset="30%"></stop>
        <stop stop-color="hsla(108, 2%, 80%, 1)" offset="45%"></stop>
        <stop stop-color="hsla(90, 3%, 80%, 1)" offset="60%"></stop>
        <stop stop-color="hsla(100, 2%, 80%, 1)" offset="75%"></stop>
        <stop stop-color="hsla(98, 3%, 80%, 1)" offset="90%"></stop>
      </radialGradient>
      <linearGradient id="-posters-1650603947940-light-gradient" gradientUnits="userSpaceOnUse" x1="0%" x2="0" y1="0" y2="100%">
        <stop stop-color="hsla(100, 1%, 60%, 0.9)" offset="0%"></stop>
        <stop stop-color="hsla(90, 2%, 60%, 0.9)" offset="15%"></stop>
        <stop stop-color="hsla(84, 2%, 60%, 0.9)" offset="30%"></stop>
        <stop stop-color="hsla(108, 2%, 60%, 0.9)" offset="45%"></stop>
        <stop stop-color="hsla(90, 3%, 60%, 0.9)" offset="60%"></stop>
        <stop stop-color="hsla(94, 2%, 60%, 0.9)" offset="75%"></stop>
        <stop stop-color="hsla(98, 3%, 60%, 0.9)" offset="90%"></stop>
      </linearGradient>
      <linearGradient id="-posters-1650603947940-regular-gradient" gradientUnits="userSpaceOnUse" x1="0" x2="100%" y1="0" y2="0">
        <stop stop-color="hsla(105, 2%, 50%, 1)" offset="0%"></stop>
        <stop stop-color="hsla(90, 2%, 50%, 1)" offset="15%"></stop>
        <stop stop-color="hsla(96, 2%, 50%, 1)" offset="30%"></stop>
        <stop stop-color="hsla(96, 2%, 50%, 1)" offset="45%"></stop>
        <stop stop-color="hsla(94, 3%, 50%, 1)" offset="60%"></stop>
        <stop stop-color="hsla(103, 2%, 50%, 1)" offset="75%"></stop>
        <stop stop-color="hsla(94, 3%, 50%, 1)" offset="90%"></stop>
      </linearGradient>
      <linearGradient id="-posters-1650603947940-bold-gradient" gradientUnits="userSpaceOnUse" x1="0" x2="100%" y1="0" y2="0">
        <stop stop-color="hsla(100, 10%, 8%, 1)" offset="0%"></stop>
        <stop stop-color="hsla(90, 10%, 8%, 1)" offset="15%"></stop>
        <stop stop-color="hsla(84, 10%, 8%, 1)" offset="30%"></stop>
        <stop stop-color="hsla(108, 10%, 8%, 1)" offset="45%"></stop>
        <stop stop-color="hsla(90, 10%, 8%, 1)" offset="60%"></stop>
        <stop stop-color="hsla(94, 10%, 8%, 1)" offset="75%"></stop>
        <stop stop-color="hsla(98, 10%, 8%, 1)" offset="90%"></stop>
      </linearGradient>
    </g>
  </defs>
  <defs>
    <filter id="light-filter">
      <feColorMatrix in="SourceGraphic" type="matrix" values="1.5 0 0 0 0
                0 1.5 0 0 0
                0 0 1.5 0 0
                0 0 0 1.5 0"></feColorMatrix>
    </filter>
    <filter id="regular-filter">
      <feColorMatrix in="SourceGraphic" type="matrix" values="1.5 0 0 0 0
                0 1.5 0 0 0
                0 0 1.5 0 0
                0 0 0 1 0"></feColorMatrix>
    </filter>
    <filter id="bold-filter">
      <feColorMatrix in="SourceGraphic" type="matrix" values="1 0 0 0 0
                0 1 0 0 0
                0 0 1 0 0
                0 0 0 1 0"></feColorMatrix>
    </filter>
    <filter id="emboss">
      <feConvolveMatrix kernelMatrix="1 0 0
                      0 0 0
                      0 0 -1"></feConvolveMatrix>
    </filter>
  </defs>
</svg>
