<svg id="-posters-1650742701450" itemscope="" itemtype="/posters" itemid="/+/posters/1650742701450" viewBox="0 0 512 648" preserveAspectRatio="xMidYMid slice" tabindex="0" xmlns="http://www.w3.org/2000/svg">
  <defs>
    <symbol id="-posters-1650742701450-background">
      <rect itemprop="background" width="100%" height="100%" tabindex="-1"></rect>
    </symbol>
    <symbol id="-posters-1650742701450-light">
      <path d="M221 1l57 1-2 1 2 1c2 1 2 1 0 1l-2 1-2 1-2 2c-1 4-2 7-4 7l-1 3c0 3 1 3 3 0 1-2 3-3 6-3 5-1 5-3 1-3s-6-1-3-2c1-1 7 0 8 1s1 0 2-1l3-3 1-1 2-1 1-1 3-2c2-1 7 0 7 2l6 1 8 1 3 1c1-1 2 0 3 1l3 2 4 1h5c4-2 4-2 8 0s4 2 7 1l6-2c3 0 9-3 9-4l3-1 2-1c0-2 10-3 11-2l2 1v1c0 1-1 2-3 2l-2 1-1 2v2a11 11 0 0011-2l2-3 2-5 1-2H276c-94 0-104 1-55 1m246 1h-5c-3-1-4 0-1 2 1 1 2 2 1 4l1 3c1 1 1 0 1-2 0-3 1-4 3-2 2 1 5-2 5-5 0-2-2-3-5 0m-19 8c-2 3-2 10 0 16l2 7c1 2 3 2 4 1v-3c2-3 3-11 1-11-2 1-4-4-3-5 1-2 1-7-1-7 0-1-2 0-3 2m-202 8c-3 1-4 5-2 7l1 2 1 4v1l-2 1c0 1 2 1 4-1 2-1 2-1 1-3-1-1-1-2 1-5 2-5 1-7-4-6m150 2l-7 4c-6 2-7 4-2 3l3 1c5 2 11-5 9-8-1-2-2-2-3 0m-19 13c0 1-1 2-3 1-3 0-3 0-1 1 2 2 12 2 13 0 0-2-2-5-3-3h-2c-2-2-3-1-4 1m-87 1l-10 1c-7 0-9 0-9 2-3 3-5 5-10 5-5 1-7 3-7 7 0 3-2 4-5 4l-5 2c-2 1-2 1-6-2-3-4-4-4-8-4-3 0-3 0-2-1v-1c-2-2-6 0-6 1 0 2-2 3-6 3-2 0-2 0-1 1 2 1 0 2-9 4l-7 4-7 3-5 3-1 2c-2 0-4 4-3 7 0 1 0 2-2 3-3 1-3 2-3 4l-1 5c-2 0-1 2 1 2h1l-1 2-2 5c0 2-1 3-3 5-2 0-3 1-3 2 0 4-3 7-8 12l-2 5-1 3c-2 1-2 4-3 13 0 2-7 6-10 6-2 0-5 3-5 7s-4 10-5 8l-2-1 1 2 1 4 2 4c2 2 1 5-1 6l-1 3c0 2 0 2-1 1s-1-1-4 1c-2 2-3 2-3 0-1-1-5-2-5 0 0 1-6 4-7 3l1-1c1-1 0-1-3-1-4 0-5 0-5-2s-1-2-4-1-3 3-1 2c2 0 3 2 2 3h-7c-9 1-13 3-5 3 3 0 5 0 4 1-1 0-2 1-2 3 0 3 0 3-4 3-2 0-3 0-3 2 1 1 0 1-4 1l-7 2c-3 1-3 1-4-1s-1-2 1-1l4-1c1-1 3-2 5-1 5 0 5-1 2-3l-10-2-8-1c-1-2-4-1-4 1 0 1 0 2-2 2-1 0-2 0-2-2l1-2 1-2c0-2-2-3-4-1s-3 7-1 7l1 3c0 2 0 2-9 2-3 0-3 1-3 2l-1 2-1-3-2-2c-2-1-2-1 0-1s2 0 2-3l-1-5-3-1-2 1c0 3 0 4-2 5-2 0-3 1 0 3 1 2 1 2-1 2-8 2-8 2-7 5 0 2 0 2-4 2h-4v-6c0-7 1-11 3-13 1-2 1-2-1-2-3-1-2-4 1-3 2 0 3 0 3-2l1-3c2-2 3-13 2-17 0-2 0-2 2-2 5 0 1-2-5-4-6-1-7-2-7-5l-1-3c-2 0-4-3-3-4s-8-6-12-6l-2-3-1 236 1 235 3-3c6-4 12-11 12-13-1-1 0-2 2-3l4-4c1-3 12-10 20-14l6-6c2-4 2-4 6-4h5l-3 8c-5 13-6 24-2 28v6c0 3 0 4 2 5 4 2 6 6 3 8-4 3-5 10-2 14l-1 9c-1 9-2 10-1 13l1 3-24 1H3c-2-1-3-1-3 1l256 1h257V382l-1-274v-7l-5 5c-7 6-11 8-17 9-18 1-22 1-24-1-2-1-3-1-4 1l-4 1c-2-1-5 0-5 3l3 1 4 2c1 2 2 2 4 2l23-2 6-2c3-2 3-1 5 5 2 9 1 11-5 11l-5 1-3 4-3 4-3 4c-3 3-4 8-2 10 2 1 1 4-1 4-2 1-4 5-3 7s0 7-2 11c-1 3 0 4 4 4 1 0 2 0 1 1l-2 1c-5-1-7 1-8 5l-1 4-1 3c0 2-5 7-8 9l-4 2c-3 3-13 5-14 2l1-1 1-1-1-2-1-2-1-4c-2-3 1-10 4-10s5-3 5-6l3-3c2-1 3-3 1-3v-3c1-1 1-1-1-1-1 1-3 0-5-2-3-2-2-2-6-1h-3c-1-1 3-6 5-6 3 0 4-2 4-7 0-3 0-3-3-3s-4-2-2-5c1-1 1-1-1-1l-3 1-2 2c-2 0-4-3-2-4 2-2 2-6 0-7-1 0-2-1-2-3l-2-3-4-6-4-6c-1-1 0-5 1-5v-1l-1-3c0-4-6-10-11-11-4-1-5-2-5-3 1-2 0-2-2-2l-4-1h-3c-2 1-7-2-7-5 0-1 3 0 4 2s4 1 5-1l-2-2c-3 0-3-1-2-2 2-2 5-1 5 1 0 3 3 3 5 0v-4h-1c-2 1-2 1-3-1-1-3-1-3-5-3h-7l-6-3h-3l2-1c5 0 2-8-4-9l-2-3c-1-2-3-2-7-2-3 0-5-3-3-5 3-1 1-3-2-3h-5l-12-2c-10 0-13-2-8-4 3-1 1-2-4-1l-4 2a1 1 0 11-2-2 3 3 0 000-5l-1 1c0 1-6 3-8 2v-1c3 0 2-2 0-2-3 0-6-2-4-3 3-1 1-3-4-3l-6-1-4-1-3-2c-2-3-4-4-6-2m214 15l-1 4c0 2-1 4-3 4-3 0-4 4-2 6s2 4-1 3l-1 1 2 1 1 2 2 2 1-4c0-3 2-2 3 1 1 1 2 2 3 1 2 0 2 0 2 2l1 4 1-7-1-7-1-3v-5l-1-3c0-3-3-4-5-2M215 68h-2c-2 0-9 3-8 4 0 1-1 2-3 2-4 2-8 6-8 7l-3 3-3 4-2 3-1 4v1a19 19 0 002 17c1 10 9 13 13 5 3-5 6-4 6 1v5l7 2c9 4 11 4 18 0 4-3 7-7 5-7l-4-1c-4 0-6-2-6-5s2-3 4-1l3 2c5-4 14-2 26 6 3 2 1 3-3 3-2-1-3 0-4 1l-4 3-3 2 3 2 4 2 2 2c0 2-5 4-6 2l-3-1-7-2h-6l-3 2c-4 0-5 12-1 15 2 1 2 1 0 3s0 6 3 6c4 0 5-5 1-8-3-2-1-4 6-4 9 0 13 4 9 9-1 3-2 2 5 4s8 2 10 0c3-3 3-3 8 4 5 6 9 8 11 4 4-5 0-18-5-20-3 0-4-2-5-8l-1-6-1-7-1-10-1-10c0-7-1-13-2-12l-1-5-2-7-3-6c-1-4-5-7-11-8-13-3-14-3-20-2h-13m56 9l1 4 2 4 3 6c1 2 3 5 3 8 1 4 3 6 5 8 4 3 5 9 1 9l-2-1c-2-2-7 1-7 4 0 5 4 9 5 6 2-4 2 1 0 6-1 6-1 6 1 10 2 5 4 4 5-3 0-4 3-6 4-2 0 4-2 10-4 10s0 17 3 18l4 3 9 5 7 4c1 1 2 1 5-1h9c2 2 14-1 17-4 1-2 9-2 22-2l10-2c11-4 18-3 23 1l4 4c3-4 2-20-1-22-2-1-2-2-2-7 0-10-2-16-9-20-2 0-3-2-3-3 0-3-13-13-18-13-2 0-6-4-6-6a69 69 0 00-27-14l-9-3-7-2c-2-1-6-2-16-2l-5-1-13-1-12-2c-2-2-3-1-2 1m207 1l-1 2-2 2c-3 1-4 2-1 3l1 2v6c0 3 0 3 3 3 2 0 3 1 5 3l2 3h8l9-2 3-1 3-2c2-4 3-4 3 0 1 1 1-2 1-7l-1-7c-1 3-1 3-1 1-1-2-4-3-11-2-3 0-3 0-1 3 4 4 4 5 0 5-5-1-10 1-10 3 1 2-4 3-5 1l-4-2c-1-1-1-1 1-2l2-1-3-5c-2 0-1-2 2-2l7-3a7 7 0 00-10-1m-169 9a6 6 0 105 12l11 1c3 1 3 1 4-1h3l2 1c2-1 6 1 6 2l-1 2-1 5v5h5c5 0 19 4 20 6l3-1 3-2-2-2-4-3-2-3-1-3-4-2-3-2-1-1-2-1-5-2c-3-1-5-2-7-1l-2-1c1-3-2-4-12-6a80 80 0 01-12-4l-3 1m62 34l1 3v2c-1 4 3 4 8 1l-7-7c-2-1-2-1-2 1M0 363v238l1-204 1-186v19h4l5-2a5 5 0 014 0c-3 1-1 2 4 2 6 0 9-1 9-4l1-2 1-3c0-3 0-3-3-4-3 0-3-1-3-3v-2l-2-1h5l4-1c0-3-1-4-6-4l-6-1-5-3c-4-2-5-4-2-9 1-4 0-6-5-7l-4-2c-1-1-1 0-1 4l-1-29-1 204m96-231l1 3c2 1 0 2-2 0h-2l-1 1c-2 0-3 2-2 3h6l2-1c2 0 4-2 2-2v-2l1-3c-1-2-4-1-5 1m285 0c-2 1-1 4 1 4s2 1 2 4l1 2 2 4c1 4 5 6 5 2a24 24 0 00-4-13c-2-4-4-5-7-3m-205 3l-4 4-4 4-4 4-5 7a57 57 0 00-12 24l-1 3-2 7-5 7a34 34 0 01-18 13c-2-1-7-6-6-7l2 1c3 3 9 0 10-5 1-3 1-3-2-3l-5-1h-3l-2-2c0-6-8-6-14 0s-7 8-3 8c3-1 4-1 6 1l2 2-2 4c-2 4-5 6-9 6-3 0 1 5 9 9l5 5 16 11c7 4 17 2 22-4 2-3 2-4 0-6l-1-2 4-2 5-3 4-2c2 0 4-1 5-3l6-2 7-1 9-3c6 0 11-2 15-6l5-3c7-1 10-2 12-6 1-3 3-3 3 0s3 6 6 6l3 2c2 2 9 1 9 0l-2-3-1-2-3-5c-6-6-8-12-4-13l4-4c1-2 3-3 6-4l2-1v-2l-1-1-2-1c0-2-4-2-7 1-3 2-4 4-4 8-1 7-2 9-3 9-1-1-4 2-4 4l-3 2c-6 0-12 2-16 4s-4 2-5 1c-3-3-14-5-25-6-5 0-7-2-7-5s2-4 6-2l6 2 6 2c2 2 5 3 5 2 0-2-4-12-7-16-3-5-4-7-4-10l-1-4-1 1h-4c-5-1-5-4 0-10l6-7 3-2c4 0 5-3 2-5-1-2-2-2-5 0m-146 6c-5 2-5 3-1 5 5 2 6 2 9 0l3-1-3-3c-3-3-2-3-8-1m423 7l1 1 3 2c2 1 7 0 7-2 0-3-11-4-11-1m38 1c-5 3-10 14-6 15 3 2 5 1 9-5 7-10 6-15-3-10m-453 1l-1 2 1 2 3 4c1 9 5 9 5 0 0-2-1-5-3-7-3-3-5-4-5-1m377 13c-2 3-2 4 0 4l1 2v2l2 4a3 3 0 005 2l-1-1c0-2 1-5 2-3l3-1 4-2 2-3-4-1c-7 0-9-1-9-3v-2l-2-1-3 3m77 7l-1 2-2 1c-3 0-6 3-6 5l-4 2-4 3 6 2 1 1 3 1c2 0 6 5 6 7 0 1 5 4 8 4l5 2c3 3 4 4 5 1 1-2-3-5-6-4l-1-1 1-2 1-1 1-2 1-2 2-2h1l-1-2-1-2v-2l-2-4c-2-5-9-9-13-7m-208 5c-3 4-1 19 1 15 3-3 3-18 1-18l-2 3m-41 1c-10 3-11 11-1 10 5 0 6 1 4 3l-1 2-1 4-2 2-1 4-1 16 2 2c1 3 6 3 11 1 1-1 3-2 5-1l7-2 5-1c2 0-2 5-4 6-3 0-3 4-1 8l2 9c0 5 1 6 3 6s3-1 3-4l3-13c2-9 2-11-2-12-2-1-3-3 0-3s4-2 4-7c0-7-2-11-4-10-4 0-5-2-4-7 1-3 1-4-2-6l-5-4c-5-5-13-6-20-3m143 6l-2 2c0 2-1 3-3 3-2 1-4 9-2 12a6 6 0 008 1l-3 6c-1 2-1 2 1 2 3 0 3 0 2 4 0 6 0 9 2 6 2-1 2-1 2 2l-1 4c-2 1-3 7-1 8l1 2 1 2v2c-3 3-2 4 1 6l3 2 3 3c3 1 3 1 2-2l-2-2-1-1c0-2 5-2 8 0h3v1l1 4v23l-1-2-1-2-2-1-1-3c0-5-1-6-2-6-2 0-3 11-2 14l2 4 3 4c1 0 2 1 1 2 0 2 0 2 2 3 2 0 3 4 1 6v20c-1 2-1 2 2 2a27 27 0 0112 3c1 0 1 1-1 2-2 2-2 2-4 0h-4v3c1 2 12 2 18 1 5-1 14 0 22 2 2 0 2 0 1-1l-13-2c-4 0 0-2 4-3 4 0 4 0 3-3l-4-3c-1 0-2-1-2-3l-1-4c-2-1-2-1-2 1l-1 2c-1 0-2-3-1-4l-3-1h-3c-1-3 1-3 7-3 4 1 6 2 7 7 1 2 10 4 10 2 0-3 0-6-2-8-2-1-3-4-4-6l-5-7-2-4c2-2 1-5-1-7-2-1-2-1 0-3 1-2 1-4-2-4-3 1-5-2-5-7l-3-16-4-6-4-8-2-3-3-7-4-7-2-3-1-3c1-1 0-3-1-4l-2-3a26 26 0 00-10-13l-2-2-1-2c1-1 0-2-2-3-3-2-4-2-8-1m1 10c-4 2-5 4-4 6l2 1h3a4 4 0 10-1-7m-24 4l2 1-1 2-1 3-1 3-1 2v2c-2 0-3 7-2 10v4c-2 2-3 8-1 10 2 1 3 6 4 11v5c0 2 0 3-2 3-3 0-4-1-1-3 1-2 1-2-6-3-3-1-4-1-4-4l-1-2-1 3 1 2 1 2c2 0 4 3 2 5l-1 2-1 2-1-1-2-2c-3 0-3 1-2 4 0 2 0 3-2 4-5 2-8 1-4-2l1-3h-1l-2 1c0 2-4 7-6 7-3 1-4 3-3 5v1c-2-2-5 4-4 7l-1 3-2 1 2 1c2-1 3 5 0 7h-2v4l-1 5c-1 1-2 2-2 5l-1 5-2 3-1 1c-3-1-2 18 1 22 3 3 7 6 6 4-1-3 1-2 3 1 2 5 2 10-1 10-1 0-3 2-3 4 0 1 7 3 11 3l6 1-1 1-4 3-5 2c-3 0-4 1-4 3 0 3 1 4 3 2l3-2 3-1h5l-1 2-1 2-2 2c-1 0-4 2-4 4l-2 1c-1 1-2 1-1 2l-1 3-2 3c0 2 6 0 9-3l4-2a8 8 0 003-14c0-1 6-2 8 0h3l3-3c2 0 3-1 3-2-1-1 3-5 5-5l2-3 2-2a20 20 0 009-14l1-5 2-12c2-6 3-10 1-12-1-1-2-3-2-7 0-16-1-27-4-32-2-5-2-8-2-13l-1-9c-2-2-3-6-2-9 2-2 2-3 0-5v-3l1-12 1-15a4 4 0 00-5-6m105 9l-5 4c-1 0-3 5-2 6 2 2 26 2 28 0 3-3 1-7-5-10-10-4-12-4-16 0m-155 11l-1 4-3 6c-4 3-2 4 3 2 1-1 2 0 3 2 1 5 1 4 8 3 6-1 8-4 7-7-1-1 0-1 1-1h3l-3-1-2-3-1-4c-1-1-13-2-15-1m-65 13v11c0 5 4 8 9 9 3 1 4-5 1-7l-3-5-4-5v-2l-1-2-2 1m-16 4c-2 1-3 3-1 3l1 1c0 1-1 2-3 1l-5 1 1 1 1 2 3 4 2 3h-2c-2 0-3 1 0 3 2 2 3 2 3 0v-1l1 2 1 2c1-1 2-5 1-6v-14c2-2 0-3-3-2M77 306c-3 2-3 2 1 5 3 3 15 3 22 1l7-3c6 0 7-2 2-2l-6-1c-2-1-4 0-7 1-4 2-4 2-7 1-5-2-9-3-12-2m-73 6a12 12 0 001 8c-2 0-1 9 1 11l2 5 2 3c1 1 2 6 0 13 0 3 5 6 9 6 2-1 5 5 3 8l1 2c1 1 0 2-1 4l-1 3a3 3 0 01-2 6c-6 2-1 12 4 11 6-2 8-7 4-8-2-1-2-1 0-1 4-2 5-3 5-6s3-6 5-4l2-1c2-1 2-1 1 1 0 2 0 2 1 1 2 0 6 2 6 4 0 3-3 7-5 6l-2 1-3 4c-2 2-2 3-2 5 1 2 0 3-1 5-2 0-3 2-2 3 0 1-2 7-4 7v10l-7-1c-8-1-10-1-8 2 2 1 2 3 2 4-1 2 0 5 3 8 1 2 6 3 6 1v-2c1-2 2-2 4 0a15 15 0 013 12l1 4c0 3-4 1-5-2l-1-1h-5l-2-3c-2-1-1-2 2-3 2-1 0-3-3-3-4 0-4 2-1 6 1 1 2 3 1 4 0 2 0 2 3 2 5-1 6 1 3 5-4 3-6 4-7 3h-1c0 2-2 0-2-3-1-4-7-3-7 1h2l1 2 2 3c1 2 1 3-1 4-1 2-1 2 2 5s4 6 2 6v2h4c2-1 3-4 1-5-2-2 1-6 4-6l4-2c1-2 5-6 6-5l4-3c4-4 4-4 3-5-3-2-1-5 3-6 3 0 6 1 5 4l1 1v3l1 2 2 2c0 2 1 3 7 4l7 1c3 1 7-3 6-6 0-2 0-4 2-6s3-4 3-7c1-4 2-7 4-7 1 0 2 2 1 7-2 10 1 10 9 2 7-7 17-13 24-15 5-1 7-3 8-6l4-3 5-4c1-2 3-4 6-5l5-3 6-7 6-7c0-2 2-3 6-3 10-2 12-5 11-22v-26c-1-17-1-18-10-18l-7 1c0 2-5 1-8-1h-5l-6 1c-16 0-19 0-27 6-5 3-8 4-8 1l3-4c5-2 5-3 4-5l-15-1c-5 0-8 0-12-2l-10-3c-3 0-3 0-2 4 1 6 2 9 5 10l4 1c1 2 4 3 5 1 2-1 4-1 8 1l4 2-3 1-6 2-2 1-3 1c-3 0-5-2-3-2l-1-1c-4-1-5 0-3 1 2 2 2 2-1 2l-7 6c-5 4-7 5-11 1l-4-2a56 56 0 01-8 3c-4 1-2-3 2-5l5-4c0-2 1-3 2-3l1-6a9 9 0 012-6l1-2 1-1c0-3-14-6-16-3-1 1-1 1-4-1l-4-2-5-4c-5-4-7-5-8-2h-5c-3-2-4-2-6-1-4 1-5 1-5-1l-1-2v6m247 37v2h-2c-7-1-14 0-19 4l-8 3-1 1-2 4-3 6c0 2-1 3-3 3l-3 3-3 1c-2 0-5 2-5 4l-6 2-1 3c0 3 0 3-4 5-4 1-14 12-16 15l-4 4c-5 3-13 10-13 12l-1 1c-1 0-3 2-4 5-3 7-8 12-10 12s-2 0-2 2-1 4-5 8l-5 7c0 6-1 8-4 7-2 0-4 0-6 2-5 3-3 6 3 5l3 1c1 2 0 2-1 2a2 2 0 00-1 3l1 1-3 1c-3-1-4 0-2 1v1l-2 1-1 3a2 2 0 000 5l1 1 1 2-4 1c-4 0-5 0-3 5v3c-2 4-2 6 1 8 7 4 20 0 20-6 0-2 3-6 6-6v-1l-1-4c0-2-2-3-4-3l-1 2-2 2v-2l-1-8c0-5 1-8 4-6 2 1 2 1 2-1-1-2 0-3 4-3l5-1 5-2 6-3c1-1 3-2 4-1l2-2a3 3 0 016 0l1-2 2-3c1-1 2-3 1-5 0-3 0-3 1-2 1 2 1 2 4 1l4-2 2-1 1-2v1c-1 2 8 0 12-3l2-3-2-1c-1-1 0-5 2-5l1-1c0-2 6-4 8-4l3-1c0-1 2-3 5-4 3-2 5-4 6-7l4-4v-1l1-7a32 32 0 002-7c0 2 2 1 2-1-1-2 0-9 2-10h4l3-2 6-2h5v3l1 3c2 0 3 5 0 7-1 1-2 3-2 12 0 11 0 12 7 9l8-3c4-1 5-4 3-6l-1-5-1-8v-7l4-7c1-3 3-5 4-5a1 1 0 000-3l-1-2c0-2 0-2 3-2 4 1 6 0 3-2l-1-3c0-1 0-2-2-2l-2-3c0-2-2-3-9-6l-6-4h-4v-3h-4M64 368l4 6a23 23 0 015 8l1-3-1-3-2-4c-2-4-5-6-7-4m-12 6c-3 2-3 5 0 6l4 3 2 2c4 0 4-2 3-5l-2-3c0-3-5-5-7-3m338 11l1 1v6a7 7 0 0010 1l6-3c4 0 4-2 0-3l-3-2-2-1c-2 0-2 0-1 2 1 1 1 1-1 1l-5-1-3-1h-2M3 408l1 9c0 1 3-1 2-2-1-6-1-15 1-15 1-1 0-1-1-1H3v9m357-3l-1 2c0 2-2 3-5 3s-3 1 2 10c5 10 8 13 9 11l-2-5-3-5-2-4c-2 0-3-2 0-2l1-1 2-1c2 0 3 0 3-2l2-4 1-2h-7m-37 1l5 4c4 3 5 4 5 7l2 3c1 0 6 8 6 10h-3l-4-2c-4 0-6-2-6-4 0-3-4-12-5-12-2 0-8 11-9 19-1 4 6 11 8 6l2-1v2c-2 3-1 4 2 5l1 1a47 47 0 00-4 16c-1 1 1 5 2 5 2 0 8-7 9-11 0-1 1-4 3-5l2-5 1-4v-8l2 1c3 3 3 5 2 9-2 2-2 5-2 12s0 9-2 13l-4 7-4 7c-5 4-6 11-2 11 2 0 10-9 11-12l5-7c3-4 3-5 3-10l1-6 11-3c1-1 1-2-1-5l-2-5c1-3-4-15-8-19l-5-6c-5-7-9-11-14-12l-6-1h-2m57 3v12c2 0 5-6 5-9s-3-5-5-3m81 7c-2 3-3 7-1 7l1 2-4 3-2 1c4 0 8-2 7-4l2-3c2-1 3-3 3-5 0-4-2-4-6-1m-399 2l-2 2c-2-1-4 1-4 4 1 1 0 3-1 3l-1 5-2 5v3c4 0 7-2 6-5 0-2 6-10 7-9 2 1 5-2 5-4s0-2-1 0c-2 2-2 2-2-2s-3-6-5-2m329 9l1 2c1 2 1 2-2 5-3 2-3 3-2 6v3c-1 2 3 2 5 1l3-2c4-2 1-16-3-16l-2 1M82 469l-7 4c-2 2 3 3 8 3 4-1 5-1 6 1 2 1 2 3 1 3l-1 3c1 2 1 3-1 4l-1 1c0 1-1 2-3 2l-4 3a3 3 0 11-4-3c3 1 6-1 5-2l-1-5c0-3-2-4-4-2s-4 1-4-1c-1-3-7-3-11-1-2 1-3 3 0 3 1 0 1 5-1 6-4 2-5 3-6 5 0 4-2 6-3 4-1-4-2-2-1 4l-1 5c-3 0-2 2 1 3 2 1 3 3 0 3-1-1-2 0-1 1v2l2 3 2 6 1 5 1 3c0 1 6 2 7 0l7-1c7 0 12-2 12-5-1-2 1-4 4-4 2 0 3-1 3-4l3-3 3-3c0-3 2-3 4-2s2 1 2-2v-3l3-5 2-4v-6h-5c-5-1-6-6-1-8 4-1 4-2 0-5l-3-3c0-2-6-8-7-8l-7 3m366 3c-2 2-1 14 1 17s3 2 2-8-1-11-3-9m-420 7v5c1 1-1 6-3 6-1 0-3 9-2 10l-2 3c-1 3-1 3 2 3l6-2 7-3c4 0 5-3 4-7l-6-6-1-4-2-5-1-2c0-2-2-1-2 2m421 68l-1 21c-2 18-2 17 1 22 2 4 2 5 1 7l-1 4-2 2c-2 0-3 2-1 6 1 3-1 6-3 4l1 2c2 3 2 3 1 5-2 2-2 2-1 4 2 3 2 3-2 5-3 3-4 4-4 7v3h-5c-5 0-8 2-8 5 0 1 2 2 15 2l15-1-2-5c-1-2-2-4-1-5 0-2 4-1 4 1l2 2 1 4v4h9c25 2 27 1 26-7l-5-15 2-5c4-4 5-6 5-10-1-4-6-4-7 0l-1 2-1-1c1-2-2-3-7-3-7 0-12-3-9-6 2-1 0-7-3-11l-3-5-3-5c-3-3-4-5-4-7l-2-11-2-10c0-3-3-11-4-11l-1 6M94 562l-4 4-1 5v5l1 9c1 4 2 5 9 3 5-2 5-2 8 0 6 4 12 1 7-3l-2-1-2 1v-6c-1-4 0-6 2-6 1 1 5-1 5-2l-3-1-3-1 2-1c3 0 1-4-3-6s-11-3-16 0m377 25c0 5 9 9 10 4l-1-1-3-2c-2-2-6-3-6-1m-257 3l-2 2-2 1c-4 0-9 3-8 6 0 3-3 6-4 4l-1-3c0-2-5-1-6 1l-2 2-3 1c-3 0-4 1-5 3-2 2-3 3-5 3s-2 0-2 2c0 4-3 6-6 4l-3-1 1 2c1 0 2 1 1 2l1 2c2 0 1 11-1 12s-2 10 1 10l52 1h90c46 0 42 0 42-1 0-3 7-2 9 0 3 3 23 3 23 0 0-2-2-3-5-4-5-2-8-4-10-13l-3-1-5-2c-3-2-7-3-7-1l-2 4c-3 2-2 4 3 7 7 3 7 3 6 6l-1 1-1-1c-1 1-14-1-13-2 1-2-7-4-15-3l-9-1c-2-1 1-1 8-1l4-1 6-1c6 0 7 0 5-3-2-2-2-2-1-4 4-4 0-7-5-4h-4c-2-2-3-2-18-3l-19-2-14-2c-8-1-10-1-16-4s-6-3-9-2c-4 3-6 2-10-1l-5-6-3-4-3-1-7-2c-6-3-12-4-17-2m-102 16a21 21 0 00-4 7c-1 2-1 3 1 4l2 4c0 3 9 7 9 4 0-2 2-4 4-5s2-1 1-4l-1-5c-1-3-6-9-8-9l-4 4m-23 14v12l-1 6c0 6 0 7 11 6 5-1 5-1 4-4l1-5c2-3 2-3-2-6l-4-5c1-1-1-3-3-4l-2-6-4-6v12m367-11l-1 1-2 4c-2 2-2 2-3 0l-1-2v2l-1 1c-1-1-2 1-1 2l3 1 4 1c2 3 9-2 7-6-1-3-3-5-5-4m13 6l-1 5v4h4l6 1c3 1 3 1 4-1 0-3-1-4-3-4l-3-2c-1-3-4-5-7-3m-167 5c-2 4-2 4 0 7l2 5 2 2 4 2c2 1 2 1 3-1 0-1 1-2 3-2 2 1 3-1 0-2l-4-2a3 3 0 00-6 0l1-7a3 3 0 10-5-2m-105 0c-1 1 0 3 2 3l3 2c1 1 1 1 3-1l1-3c-1-2-9-2-9-1m263 10c0 5 0 5 3 5 4-1 5-7 2-10-4-2-5-1-5 5"
      tabindex="-1" itemprop="light" style="fill-opacity: 0.884; fill-rule: evenodd;"></path>
    </symbol>
    <symbol id="-posters-1650742701450-regular">
      <path d="M272 37l-1 2c0 3-2 4-6 4-5 0-7 1-9 6s-2 5-5 5-5 1-7 3c-3 3-4 3-7 2-11-1-25-1-26 1l-1 2a28 28 0 00-14 6l-3 3c-3 1-9 11-12 20a186 186 0 01-4 10l-2 2c-2 0-7 8-8 12l-3 3v3c2 1 0 6-2 9l-2 3-1 5-2 6v5h-3c-5 0-10 4-10 8l-1 4c-1 3 0 4 3 3 1-1 2-1 2 1s2 1 3-2l2-3 3-4 9-11 7-8c0-1 6-5 8-5 3 0 5 4 5 7l-4 2-4 2-5 6c-4 4-6 8-4 9l7-3c0-2 5-7 6-5 1 1 0 5-2 6-2 2-1 11 1 14l7 14c0 2 3 5 7 8l4 2 6-2 7-2c4 0 6-3 4-6-3-4-2-5 2-2l2 2 3-2 2-5c0-3 3-8 6-11 4-3 4-5 0-5-3-1-5-4-3-7v-2a14 14 0 011-19l1-1-4-1-6-1c-4-3-6-2-8 0-4 4-10 3-6-1v-2c-2 0-7 7-7 11s-2 4-3 1c-2-3 2-10 7-12 3-2 3-3 3-6 0-4-2-5-3-2-4 8-14 5-17-4l-3-3c-2 0-1-14 2-20l3-7a56 56 0 0118-16 53 53 0 0159 9c1 0 2 3 1 5-2 4 3 15 6 15v4c-2 1-2 12 0 15l1 8c-1 5 0 9 2 18 0 1 2 3 6 5 7 5 8 3 3-5l-3-9c1-2 0-4-1-5-3-3-6-21-3-21l1 1c2 5 2 5 4 3l3-1c3 1 3-3 0-4-3-2-4-3-4-6l-6-13c-2-4-6-12-5-13h5c1 1 4 2 11 2l13 1 10 1 12 2c1 1 5 3 9 3l7 3 4 1 7 2 10 5c5 3 6 4 6 6 1 2 2 4 10 7l7 4 5 4 2 3c0 2 6 7 8 7l2-2c0-2-5-10-7-10l-3-3-2-3-2-3-3-2-2-1-2-1-5-3c-2-2-4-3-6-2-3 0-3 0-3-2 1-2-1-5-3-5l-5-3c-2-2-3-2-8-2-4 1-5 1-5-1-1-5-8-7-20-7-8-1-9-6-2-9 3-2 4-3 1-5-1-1-1-1-2 1 0 3-1 3-5-1l-5-2c-2 1-3-1 0-1l1-4-1-5c-2-1-2-4-1-4 2-1 0-4-1-4l-2 1c0 3-5 5-9 5-3-1-4-3-1-3 2-1-1-4-4-4l-6-2c-4-2-10-3-12-2m59 30l6 3 4 3 6 3c1 0 5 1 7 3l6 3c1 0 8 3 8 5l8 6a44 44 0 0114 12l7 11c2 5 6 8 7 6 1-1-1-7-3-7l-1-1-2-4-4-5a90 90 0 00-45-32c-17-8-18-8-18-6m-92 47l-3 1 1 2c3 3 2 9-2 9-3 0-3 1 0 4 7 7 13 7 9-1-3-3-3-5-1-3 3 2 7 0 8-2 0-3-1-4-5-4s-4-2-1-4c4-2-1-4-6-2m272 8l-3 4v3c1 2-3 1-4-1-1-4-3-4-3 0l-1 6c-1 3 0 9 1 9l1-2c1-3 3-4 3-1v11l1 4 2 2c2 0 2 0 2 9 0 4-1 6-2 7l-2 2 2 4c3 6 4 10 2 12-2 1-2 2 0 4 1 2 1 9-1 11l-4-2-6-3c-3 0-4 2-2 3 4 1 0 10-5 12l-4 4-1 1c0-3-5-2-6 1 0 2 0 2-2 2s-3 0-2 2c0 2 1 2 5 2 4-1 5-1 6 2s1 3 5 3c15 0 18 0 17 3 0 4-2 5-10 5-5 0-6 0-6 2a2 2 0 01-3 0 2 2 0 10-5 1c1 1 1 1-2 1s-4 0-3 1l4 1 3 1 2 1c4 1 0 10-4 10-2 0-2 0-1 1 1 2-1 3-3 2-3 0-2-2 0-2v-1l-3 2-7 1c-6 0-7 1-6 8 0 2-3 4-5 4-3 0-6-6-4-8 3-3 2-4-2-4-4 1-6-2-4-7 0-3 0-4-2-6l-3-4c0-2 1-3 3 0 2 2 3 1 3-1s-3-4-4-3l-2-1c-2-2-4-2-4-1h-3l-2-3-1-3c1-2-2-3-4-2-4 2-4 1 1-5 3-4 4-5 5-4 3 2 3-2 0-5l-3-3c0-2-3-3-5-2-1 2-2 1-3-6-2-8-4-10-9-7-1 1-2 1-4-1l-2-2 3-3c3-3 5-4 5-1 0 4 4 3 4-1v-5l2-4c2-2 2-2 0-2s-6 4-4 4l-1 2c-3 1-5-1-7-7l-3-6c-2-1-3-4-2-6s0-3-1-4c-2-2-3-2-4 4 0 6-2 7-6 4-6-6-7-6-14-5l-7 1-20 3-14 1c-6 6-30 9-34 5l-3-2c-2 0-10-5-12-7l-4-2-2-3-3-9v8c0 13-6 16-14 7-5-6-8-7-9-5h-9l-7-2c-3-1-3-1-2-3 2-2 0-3-4-3-4 1-5 3-1 4 1 0 2 1 2 3l5 4c7 4 7 5-2 6-8 0-14 6-13 11v4c1 3 6 6 10 6s4-2-1-4c-12-3-7-14 8-16 8-1 21 7 24 13l3 2c2 0 4 6 4 11 0 7 1 13 2 12v-1c0-2 2-5 4-5 2 1 2 5 0 10-1 4-3 4-4 1l-4-2c-3 0-3 1 0 3l2 2-2 9-2 12c-1 3-6 10-8 10l-1-6-1-9c-3-6-2-11 0-14l3-2h-3l-9 2-10 3c-2 1-6 0-6-3l-2-3c-2-2-3-3-3-6a20 20 0 00-27-11l-6 2c-5 5-8 6-15 7l-9 3-4 1-7 3-7 2-4 2-5 4-2 4c0 3-4 8-6 8l-3 2c-3 3-15 0-20-5l-8-4-4-4-4-4c-7-4-16-14-16-18l3 3 3 4c2 2 7-1 9-4 3-6 1-9-6-7-3 0-5-1-3-2l1-3c0-3-14-1-20 3l-6 3c-3 0-8 3-9 5 0 1-1 2-3 2-3 0-3 0-2 1 4 2 2 5-8 14l-13 12a5 5 0 01-5 3c-1 2-5 1-5 0 1-2-5-4-8-3l-4 2-2 2-3 2-2 1c-3 0-3-5-4-26L0 395v202l3-3c9-7 11-10 11-12 0-3 1-4 3-4s3-1 4-3c1-3 6-6 17-13l10-8c2-3 3-3 7-3 5 0 6 1 2 10-3 7-4 20-2 24l1 6c0 3 0 4 2 5 1 0 2 1 2 3l1 3c2 0 1 4 0 4-4 2-5 6-3 11 1 4 1 5-1 12l-1 10v4l1 3H28l-28 1 244 1h244l-33-1c-37-1-32-1-32-3 0-3 4-6 9-6 3 0 4-1 4-3s1-4 4-6c3-3 4-4 1-4l-1-2c1-2 0-3-1-4v-2l2-4 2-3 1-4 2-4 1-2 1-3c2-2 2-4 0-6l-3-16 2-28c1-11 2-13 5-7l2 6 1 2 1 4 4 16v4c0 4 1 7 3 5l-2-14-3-20a41 41 0 00-4-18c-2-5-4-7-4-6a2 2 0 11-2-3c2 0 2-1 1-12l-1-14c-2-2-5-33-4-37 2-7 2-8 3-5 0 2 0 2 1 1l1-2c-1-1-1-1 1-1l3-1c2-4 3 2 1 10-3 11-2 17 1 17 2 0 1 2-1 3-2 2-2 2 1 23 2 12 7 24 15 32 7 7 9 12 9 18 0 2-2 3-2 1-1-1-1 0-1 1l2 4c3 3 2 12-1 17l-2 3 5 2 3 3-1 7-1 7c-3 2-2 3 1 3 4 1 5 2 1 3l-4-2-3-2-3-2c-2-4-4-4-2-1 2 4 3 8 2 10s2 4 8 4c4 0 10-4 9-7l1-3 2-4 1-4v3c0 2 0 4 2 6 2 4 2 17-1 23-2 5-2 9-1 16 2 5 1 11-2 11-1 1 3 1 10 1h11V391c0-241 0-275-2-269M1 146c0 13 0 14 2 13l2-2c2 0 11-10 11-13 0-2-4-6-6-6l-4-3c-4-6-5-4-5 11m400-1l1 4 2 5 3 4 2 1 3 2c2-1 1-10-1-12l-1-3c2-3 0-5-5-5h-4v4m-200 4c0 3 3 9 6 11l5 5c3 5 7 4 7-4a19 19 0 00-15-13l-3 1m-56 21l-4 3c-2 0-3 1-3 3s-1 3-6 5l-1 4c0 2 0 3-3 4-4 1-5 3-1 4 2 0 3 1 2 2l-1 4-1 2c-2 0-6 3-6 4 0 2 4 1 7-2l5-4 3-4v-1c2 0 8-7 8-10l2-7c3-7 2-12-1-7m138 5c-2 4-2 8 0 15 1 4 4 1 5-6 1-6 0-13-2-13l-3 4m98 3l-3 7-1 8c-2 3-2 5-1 7v6l1 3 1 4c0 3 1 5 2 5l1-2 1-2c2 0 2 0 1 1-1 2-1 2 1 4 4 4 1 22-3 25-3 1 1 9 4 7l1 1 1 4 2 5c1 2 2 2 3 2 4-2 5 8 1 14-2 3-1 6 1 4 2-1 2 0 1 4v5l4 2c4 2 4 3 4 5l2 6c1 3 1 7-2 10-6 7 0 15 9 12 15-4 43-3 49 2 2 2 2 0 1-4l-1-9c0-6-1-10-5-14a44 44 0 01-11-22v-6c1-4 1-4-1-4s-5-4-4-6l-2-3-2-4-3-10-4-10-2-3-3-4-3-6c-2-1-4-4-4-6l-2-3-1-3-3-8c-3-6-5-8-11-15l-2-3-4-6c-5-5-8-5-13 0m-13 2l-3 3-3 3-1 2c-2-1-5 5-4 6 1 0 1 14-1 25v11c0 7-1 10-4 10l-6-2c-6-1-7-3-7-6l-2-7c-1-2-2-5-1-6l-1-3-3-4c-1-3-1-3-8-3-9 0-13 2-15 8-1 2-3 4-5 4l-2 2c1 1 0 3-1 4l-2 5c0 3 0 4-2 4-2 1-2 0-2-1a2 2 0 10-3 0l-1 4c-2 3-3 9-3 13l-2 4v18l2-1h2l-1 3v3l1 9c0 5 0 6 2 6l1 2-1 2-5-1v-1c2 0 1-2-1-2-3 0-5 2-7 7v18l-1 7-1 5-1 9c1 10 1 10 3 10l5 3c3 3 6 4 8 2 1-2 6 3 6 6l3 3c2 4 8 3 10-1a2 2 0 113 2c-1-1-4 0-4 1l3 1c2 0 2 0 0 1l-2 1c0 3 0 3-3 3l-3 1c0 1 5 10 7 10l2 4c0 3 0 3 6 2 7-2 12-5 12-6 1-2 2-3 10-7 3-1 5-3 5-4l4-3c5-3 19-16 23-23 2-3 2-6 3-11l1-13c2-13 2-15 1-18l-2-17-2-15-1-10-2-11c-3-6-4-12-3-13l1-4c-2-5-2-27-1-31v-6c-1-3 0-5 1-10l2-7c0-2-3-1-4 0m-203 4c-1 3 1 3 9 4 9 1 12-2 3-3l-8-2-4 1M0 396c0 111 1 156 1 100a47557 47557 0 00-1-100m183-167l-1 8c0 4 2 4 6 1s5-13 1-11l-2-1c-2-4-4-2-4 3m48-3l-1 4c0 3-3 3-5 0l-2-2-3 3c-4 4-5 11-2 15l2 5 3 5 4 7 8 20v3a3 3 0 105 0l1-6c2-4 2-12 1-16l-1-3-1-2c-1-2 0-12 1-12 3 0 3-7 1-13l-2-6a5 5 0 00-9-2m17 2c-2 0-2 14-1 18 2 3 11 6 13 4 3-2 2-6-1-9l-7-11c0-3-1-3-4-2M15 244l-2 3c0 3 4 2 5-1l4-1 2-1c0-3-9-2-9 0m-9 13c-2 1-3 5-3 8 0 1 1 1 4-2 6-6 5-9-1-6m303 5l-1 3c0 2-2 1-4-1-2-3-3-3-3 0 0 2 1 3 3 4 2 0 3 2 3 3 1 3 5 5 8 3a2 2 0 10-2-3c-2 2-3 1-3-1v-3c-2-1-1-2 1-2a2 2 0 10-2-3M88 288l-2 4-2 3-2 1h2c6 2 4 10-3 9-2-1-4-1-6 1l-4 2 2 2 5 3c4 3 26 0 37-4l9-2c10 1 15-8 6-11-2-1-2-2-2-3l1-3 3-1c3 0 3-2 0-2-4 0-6 0-10 2h-5c-6-3-10 0-11 8 0 5-1 7-4 7l-1-4c0-4-2-10-3-10l-4 3c-2 3-4 4-5 2-1-3 0-6 2-6l2-2c-1-2-3-2-5 1m-49-1h-5l-3 1c-1 2 4 5 8 5l6 2 4 2 4 2h4l-1-2c-3 0-2-3 0-3 4-2 3-4-2-4l-7-1c-1-2-6-3-8-2m198 15c0 5 0 6 3 8l2 3h1l-1-7c-2-2-2-3-1-5 2-1 1-2-1-3-3-1-3-1-3 4m-209-1l5 5c4 3 6 7 3 8l-3-2c-3-3-11-6-13-4-1 1-2 0-4-1h-5c-2 1-3 1-5-1-4-2-4-1-3 26 0 26 1 30 4 30l1 1c0 3-1 5-3 5a2 2 0 000 4l-1 5c-2 8-3 47 0 47l1-2c0-2 3-1 4 2l3 5c3 2 1 4-4 5H3a154 154 0 002 34c-2 2 0 7 3 7l3 2 3 4c2 2 3 7 2 7l1 8 1 2 2 2c1 0 1 1-1 5-2 3-2 4 2 2l5-1 5-3 5-1c6 0 7-5 3-12l-1-6c1-5 0-6-2-4-3 3-7-5-4-9 2-2 2-2 1-3-2-3 9-17 12-17 1 0 0 11-2 14-1 2 0 3 2 1 2-3 13-6 18-5s5 1 12-3c2-1 2-1 0-3-1-3-1-3 2-6 2-4 3-4 3-2 1 4 12 2 12-2 0-2 6-7 12-10l5-4 7-2c6-2 9-4 9-7l3-3c2 0 5-2 6-4 2-2 4-4 6-4l11-11c7-7 9-9 13-10 5-1 12-8 11-11l-1-16v-25c1-9-4-17-10-15h-5l-4 1c0 1-4 1-6-1h-9l-8 1c-3-2-12 0-20 5-7 4-9 5-9 3l16-10 1-1c-1-2-11-2-25 0-7 0-8 0-13-2l-10-3-3 1v4c0 5 1 7 4 11l2 2-2 2-2 3c1 1-2 5-7 9l-3 2-3-3a5 5 0 01-3-4c-4 0-3-6 1-6 2 0 3-2 4-7l1-6v-3c0-2 0-3 2-3v-1h-4c-4 2-16 0-17-3l-1-2-1-1c0-2 7-1 9 1l4 2c1-1 2-1 2 1l1-1c2-2-2-6-7-8l-4-2c-1-2-3-2-8-2l-6-1-2-2c-2 0-2 0-1 2m265 6h-4c-5 1-7 10-4 13l2 4c0 3 2 4 3 1l2-2v-3c-2 0-2-1 0-3 4-5 4-12 1-10m153 28c-2 1-5 2-6 4-3 3-5 4-5 2l1-2v-1l-4 1-2 2-7 9-8 8c0 2 4 4 9 4 15 2 17 3 19 8 2 4 2 7-1 3-4-6-6-7-12-5-1 0-2 1-2 3l-2 4c-1 1-2 2 0 4v4l-1 3c0 2-3 4-5 3l-2-7-1-7 1-1 1 1c1 1 4 1 4-1l-2-2c-2 0-2-1-1-1 2 0 4-4 3-5-1-2-3 0-3 2 1 1 1 1-1 1h-7l-6-1c-2 1-3 0-3-1 0-3-1-2-6 1l-6 2c-4 0-5 1-5 5 1 2 0 2-1 3l-3 3c-1 3-8 7-11 7s-13 5-16 8l-3 2c-3 0-4 3-2 5l1 6c0 4 1 6 5 13l7 15c4 8 5 9 7 6 1-1 1-1 2 2 1 6 6 7 11 1 3-3 3-3 4-2 1 3 5 2 8 0l3-2c2 0 4-5 3-6l-1-3v-6l-3-6c-4-3-6-8-5-9 0-1 3-1 4 1l3 1c2 0 4 4 4 9l2 5c2 2 2 3 2 6-1 3 0 4 1 4 3 0 13-5 16-8l4-3c2 0 6-6 5-8-1-1 2-3 5-3 2 0 3-2 1-2l-1-2 3 1c2 2 5 2 5 0l4-4 4-8 1-4 1-3 2-2 3-4 2-4 1-3 4-6c3-5 4-21 1-24l-7-7-2-3c0-3 0-3-3-3l-5-2-6-1m-195 12c-1 1-4 2-7 1-4 0-6 1-11 3l-7 3c-2 0-11 6-11 7 0 2-7 9-14 14l-9 7-8 11-10 11c-2 2-5 5-7 5-4 2-15 12-15 15l-4 3-3 3c1 3-1 6-3 5s-2-1-5 1-5 3-6 2c-3 0-9 2-12 5l-4 3-2 1-3 1a6 6 0 00-5 7v2c0 1 6 1 7-1 3-4 6-1 6 5 0 5-2 7-4 3l-2-2c-2 1-2 11-1 13s1 3-1 4c-3 2-3 4 0 4 2 0 2 2 1 7s-3 5-4 1l-3-5c-2-2-2-3-1-5 1-4 0-8-3-9l-6-4c-3-4-6-4-13 0l-6 2-3 1c0 2-5 6-7 6-4 0-10 6-9 8 0 1-1 3-4 5l-5 6-3 4c-1 0-1 1 1 5l2 7 2 5 1 5 2 7 1 5h9c12-1 20-4 20-8 0-2 0-2 2-2 3 1 7-2 6-5 0-3 0-3 2-3l4-2c1-2 2-2 4-2 2 1 2 1 2-2l1-3 1 2c1 3 3 4 4 2 2-4 5-2 4 2l4 1 8-2c3 0 14-7 14-9l3-2c3-2 4-5 2-6v-3l1 1c0 2 1 2 4 0l4-3c-1-1 4-4 6-4l2 1c1 3 13-3 19-9a20 20 0 016-5c1-1 12-2 14-1s3 0 6-3a6554 6554 0 006-10c1-2 2-3 4-3 2 1 6-4 7-9l1-4c2-1 3-5 3-13l2-8c1-1 3-7 3-12 0-3 0-5 2-7l2-5c0-2 7-10 10-10 2-1 3 0 3 1l-1 1c-3 0-3 9-1 15 2 3 2 4 0 8v6l1 3c0 2 6 2 12 0l5-1 4-2h3c1 3 5 0 6-5 1-2 1-2-1-2-3 1-6-3-7-11s-1-10 2-10 3 0 2-3c0-5 5-9 7-6 1 3 3 3 4 0l1 2 1 4 3-7c0-3-2-8-5-11l-4-6-1-3-3-3-4-2c-1 1-4-1-4-3l-2-1c-1 1-3 0-4-1-4-5-7-6-11-4m39 35v6c-3 5-3 8 1 8 3-1 4 0 1 2v5c1 1 2 2 1 3 0 2 0 2 2 2l2 2 1 2c1 1 1 7-2 14-3 9-3 14-1 16l2 3 1 2c2-1 6 9 6 12 0 2-1 3-2 3-2 0-3 2-4 6l-1 6 3 5c3 5 4 8 2 8v1l2 2 2 1c1 0 1-3-1-5l-1-5 2-8c0-4 0-4 3-4s6-6 4-10v-10c-2-1-4-3-4-5 1-1 0-2-1-3-2-1-2-1-1-4 2-3 4-3 7 0l6 5c4 2 4 2 3 6-2 13-2 18 3 18 4 0 6-2 8-9 4-11 7-11 7 0 0 5 0 7-3 11l-3 5c1 1-1 6-5 9-3 3-4 9-1 10s10-5 12-11l3-4c3-3 6-8 7-13s1-6 5-7c5-1 7-2 8-6 0-2 0-3-2-4-1 0-2-1-2-3 0-4-4-12-9-18l-6-10c-4-7-5-8-13-9l-8-2h-2c0 1 3 6 7 7 2 1 3 3 4 8a8 8 0 004 7c-2 1-7-1-7-4l-1-4-3-4c-2-6-8-3-11 8a8 8 0 01-7 7c-2 2-1-2 1-6 3-6 2-7-2-3h-4c-3-2-3-5 0-5 2 0 4-5 4-10l-3-7c0 2-4-4-4-6l-5-8-2-3c-1-4-3-4-3 0m128 30c-3 3-2 4 4 4a6 6 0 017 3l1-1-1-2-1-2-3-2-2-1c-1-2-3-1-5 1m45 2l-4 4-3 4-2 2-2 3c-5 3 3 4 9 2 3-2 4-3 3-4l2-3c4-5 3-10-3-8m-49 37l-1 3v2l-4 3a12 12 0 01-9 4h-1l-11 7c0 1 4 6 6 6s4-3 3-5h2c2 1 3 0 5-2 4-4 8-3 9 3 1 4 2 6 5 6l3-2c0-3 0-5 2-6 3-1 3-4 0-3l-1-3-1-4c-3 0-2-2 0-2s8-5 8-7-3-1-4 1c0 2-1 2-6 2s-6-1-3-3l1-1-3 1m-99 28c0 6 2 7 4 4 2-1 2-2 1-3l-1-2c0-2-1-3-3-3s-2 0-1 4m54 11c-2 3-2 3 0 8l8 16c2 1 3 4 3 7 1 8 8 10 7 2l2-5v-13c-1-5-2-6-6-6s-10-5-10-9c-1-2-3-2-4 0m52 1v2c-3 1-1 3 3 2l5 1c2 1 3 2 5 1 5-2 4-3-3-5-9-2-12-2-10-1m-92 10v3l-1 5a2 2 0 001 4v3c2 2 0 7-3 7s-6-3-6-5-1-2-4-2c-4 0-5 1-4 9 0 4 5 6 6 2 1-2 5-3 5 0l4 2c4 2 4 1 4 12l1 4c3 0 6 7 4 9v2a9 9 0 004-11c-1 1-4 0-4-1l3-2 3-1v-6l-3-10c-2-3-5-13-6-20-1-5-1-5-4-4M4 511l-1 3c-2 4 2 5 6 1 2-2 2-4 0-4l-3-2-2 2m156 10c0 1 1 2 3 2l4 3 4 1c4-1 4-3 0-3l-3-1 2-1 1-1-5-1-6 1m272 0a3 3 0 105 3c0-4-1-5-5-3m-33 8l-5 5c-1 2 4 5 6 4 3-2 6 0 6 3-1 4 0 6 1 6l3-6 2-2 2-2-3-3c-2-1-3-4-3-5 1-7-3-7-9 0m34 2l1 1c2 2 1 3-1 3s-2 0-2 3l1 4 3 6c2 3 2 4 2 8-1 6 1 9 4 7v-10l1-11-1-5c-3-2-2-4 0-4s3-2 0-2h-8m-281 4l2 2 7 3 6 2h7c5 0 6 0 5-2l-3-1h-8c-2 1-4 0-4-2l-2-2-4-1c-2-2-6-1-6 1m-46 3l-6 8a35 35 0 00-10 16c-1 3-3 11-3 17l-1 7c-1 1-2 9-1 10 2 1 3 4 1 8v33l-3 6c-2 1 3 1 16 1 16 0 23-1 19-2-2-1 0-7 2-8 1-1 2-2 1-3 0-3 3-7 5-7l2 5c0 6 4 8 5 3l2-3v-4l1-6 2-3-9-3-2-2-3-7c-2-4-2-4 0-6 2-1-3-12-7-16s-4-4 5-3a13 13 0 0013-2l5-1h4c2 4 6-5 4-9l-1-4c0-3-2-6-7-13l-4-7c0-2 0-2-3 0h-4l-5-1-5-3-6-1-4-1c-2-2-3-1-3 1m49 9l4 5 3 6c0 2 5 3 5 1 0-3 2-3 7 2 7 6 15 10 16 7 1-2-3-6-9-8l-7-4-5-3-5-2c-3-4-9-6-9-4m59 42l-5 2-5 3-4 3c-1 2-1 2-3 1-3-1-5 0-8 3l-5 2c-2 0-3 1-4 3s-2 2-6 2c-2 0-2 0-2 2 0 4-1 4-3 1-4-4-10-1-7 2v3l1 3c5 5 6 10 2 15-3 3-5 8-4 9s61 2 144 2h81l3-3c3-3 3-3-6-3-7-1-11-4-13-10 0-3-2-5-4-5l-5-3-6-2h-3c0-1-10-2-13-1h-4c-1-1-5-2-13-2l-26-4-12-1c-8-1-11-1-15-3-5-3-10-4-11-2-2 3-6 1-8-3-1-4-3-5-4-5l-4-2c-1-2-2-3-4-3l-6-2c-4-2-14-3-18-2m196 1c-1 1 0 1 1 2l1 1-1 2c0 2 6 1 7-1l2-3 1-1-2-1-3 1h-6m7 15c-4 2-5 12-1 12l1-1v-1c2-1 7-9 6-10h-6m-70 27l2 2 1 3 9 2c2-1 0-4-3-4l-1-1-7-3-1 1"
      itemprop="regular" tabindex="-1" style="fill-opacity: 0.93; fill-rule: evenodd;"></path>
    </symbol>
    <symbol id="-posters-1650742701450-bold">
      <path d="M274 40l-2 3c-3 1-5 5-3 5s3 2 3 4c0 1-1 2-3 2a4 4 0 00-4 4c-4 0-7 1-8 3-2 1-2 1-5-2l-4-4-3 3c-2 2-3 3-6 3-5 0-4 2 1 3 3 0 7 2 10 4 6 4 8 4 10 3h1c-1 1 0 3 1 4l2 3 2-3c2-2 7-3 8-1l4 2h5l6-1c4-2 5-2 4-8l-2-1-3-1-4-1c-3 0-4 0-4-2s5-4 7-2c3 1 12-2 10-4l1-2c2 0 2-2 0-2l-5-2c-4-2-4-2-6-1-2 3-7 2-7 0-1-3 1-4 4-4 4 0 6-2 3-2l-5-2c-3-4-9-4-8-1m-16 9l-2 5c0 3 2 2 3 0l1-2c1 1 5-4 5-5-1-3-5-2-7 2m42 20l-4 1h-1l1 2 1 2c-1 3 3 4 11 4l13 3 8 2 7 3c4 2 4 1 2-3-1-3-3-4-11-5l-16-3c-2 0-4-2-5-4-2-4-3-4-6-2m-33 15c-2 4 0 9 4 12l4 5 1 3 2 3 3 3c3-1 4-3 2-3s-4-2-4-4c0-3-2-8-4-11l-3-7c-2-4-3-4-5-1m-89 21l-3 2c-3 0-4 3-3 7 0 3 0 5-2 8-2 5-3 7 0 7l-7 9c-2 2-3 3-3 6v4l3-3 8-8c3-4 12-8 14-6s1 10-1 12h-4a1 1 0 10-1 1l2 2 2 1c1-1 1 0 1 1l1 3c3 2 1 5-3 6-3 1-4 4-2 5l8-4c1-1 3-1 3 1l-2 4-2 4c0 2-2 1-4-1-4-4-4 0 0 6l4 9c3 8 10 13 16 11l5-2c5 0 6-2 4-8l-2-6c0-1 4 0 5 2h4c3 0 4-2 2-2l-1-1 1-2 11-10-3-2c-3-1-3-1-3-5l-1-5-2-9c0-11-6-16-11-11l-4 2-4 2-3 1c-2 0-2 1-2 5v5l-3-3c-4-5-2-13 5-18 3-3 2-4-3-2-5 3-7 2-10-1l-5-4c-1 0-2-1-2-3l-1-4-1-4c0-4-1-4-1-2m333 28v22c1 2 2-20 1-24-1-3-1-2-1 2m-237-3v7l1 4c0 3 2 5 2 2l2 1 4 4c2 1 2-1-3-8-1-2-2-4-1-5v-3c-2-2-5-3-5-2m-65 7l-3 4a4 4 0 00-3 4l-2 1c-5 0-2 8 5 15a37 37 0 0110 15l1-1c5-7 6-15 2-20-2-1-2-2-1-4v-7l-2 2c-3 3-3 3-3-4 1-7-2-10-4-5m38 26l6 3c3 2 4 3 4 5s0 3 2 3c5 0 7 1 7 2-1 2 3 6 6 6 2 1 3 1 2 3h5c2 0 2-1 1-3l1-5c1-4 1-5-1-3s-5 0-11-6c-4-5-5-5-8-4h-8l-6-1m39 4c0 2 1 3 2 3 4 1 1 21-4 22-2 0-3 1-3 7-1 8-1 7 2 6 4-2 6 4 3 10-1 3-1 5 1 6l1 2h5l2-2 2-2c0-3 3-7 5-7l8-4 3-2c7-3 9-4 9-8 0-7 7-5 10 3l2 3c4 0 6 6 7 16a34 34 0 002 13c-1 2 2 2 3-1l4-2c2 0 3 2 0 3v4c3 3 4-3 4-20l1-17v-4c-2-7 3-16 10-17l4-3h5l-2 7-2 14-1 10c0 2 1 5 3 5 1 0 1 1-1 5-1 4-2 11 0 13 2 3 2 9 1 12-1 2-1 2 3 9 2 4 3 15 1 16v5l2 12 2 15 1 15-2 17c0 13-3 18-11 26-6 5-6 6-4 6 4 0 4 2 1 5-2 2-3 2-5 2-2-1-4 0-5 1l-3 2-7 3-8 4-3 3-3 3-3 2c0 1-1 2-5 2h-7c-2 1-3 1-4-2l-3-6c-2-1-4-6-6-9a20 20 0 00-10-11 73 73 0 00-14-11c-3-1-4-2-4-11v-13l1-15 3-15 4-10v-25c-1-4-1-5 1-9 3-5 5-22 2-23-2-1-1-3 1-2 3 0 3-3-1-4l-3-2c-1-5-3-3-4 5l-2 8-1 3c0 4-1 5-8 14h-4c0-2-1-2-3 0h-4l-1 1h-3l-4-2-2-3-2-2-3 11v3l1 3a38 38 0 010 21 8 8 0 01-2 11l2-1c2-4 3 6 2 20 0 2-4 3-4 1l-2-4c-2-2-4-10-4-15l-1-4-1-4c1-7-8-29-14-35-5-5-7-9-6-15a10 10 0 016-11l5-1 5-1 5-3c4-1 4-2 1-5l-2-5c0-4-6-9-12-11-5-2-16 0-18 3-2 2-8 6-11 6-4 0-12 2-13 4l-3 1c-2 0-5 1-7 3l-8 2c-3 0-11 7-11 9 1 2-3 8-6 9l-5 2c-3 2-16-1-19-4l-7-5-6-5-3-3c-2 0-13-10-15-14s-2-6 1-6l1-1-2-1v-2c3-5-7-5-12 0l-6 3c-5 1-10 6-10 8l-3 4a153 153 0 00-20 19l-3 4c-1 2-2 4-4 4l-4 2-4 3c-3 0-10 6-10 8 0 4-10 17-11 14v-2l-1-30-1 176v183l2-1c4-3 11-12 11-14l3-3c2 0 4-1 4-3 1-2 15-12 20-14 3-1 7-4 7-6s4-5 8-5c7 0 8 4 3 11a37 37 0 000 30l1 2c1-1 3 4 2 6l1 3c3 1 2 4 0 6-3 2-3 2-3 12l-1 14c-2 4-1 8 1 10 4 3-2 3-27 4H4c-3 1 100 1 228 1h233l-203-3c-81 0-109-1-112-3-2-1 0-5 3-8s3-3 7-2c5 1 7 0 7-4l-9-15c-2 0-1-2 2-3 2-2 4-2 7-2h3l4-1h3c0-2 4-5 6-5l7-3 6-3c2 1 7-3 7-5a4 4 0 015-3l-1 1-1 1 3-1 10-2c5 0 13 2 14 4l4 1 6 2 5 4c3 0 4 1 4 4 1 4 2 6 4 4 2-3 6-2 12 0 6 3 10 4 21 5l17 2 19 2c9 0 11 0 11 2h23l1 1c0 1 2 3 5 4 4 2 5 3 6 6 1 5 6 10 10 10l3-1 3-1 6-2 3-2 2 2c2 3 3 3 7 3l7 2c3 2 10 3 12 1l5-3c3-1 3-1 2-2-3-2-2-3 2-4 4-2 7-9 5-12v-3c1-1 2-2 1-3l2-3 2-5 2-3 1-2 1-3c2-2 2-4 0-6l-2-9-3-8-2-3-3-6c-4-4-4-5-3-10 0-4 0-5-2-7l-2-5c-1-4-3-3-5 2 0 3-1 4-4 4-4 2-4 3 0 3 3 0 4 1 2 5-2 2-2 3-1 3 3 1 4 3 4 7s0 4 3 3c2 0 2 0 1 1a18 18 0 003 17l1 3c3 1 1 7-7 15l-7 9c-1 3-2 4-4 5-3 0-3 1-3 3l-2 3c-1 0-2-7-1-9 1-1 0-3-2-3v-5c1-1 1-2-1-3l-2-3-2-3-3-8-2-7c-1-3-1-6 1-8 1-1 1-2-1-3l-2-4-2-5-2-2 2-2 2-2-2-2c-3-1-4-4-2-7 1-2 1-3-1-4l-2-3-2-3-3-5-1-4-5-11-2-6c-3-5-10-18-11-23-1-6 0-9 3-9l3-2c0-2 1-3 2-3v-2l6-3c3 1 5 0 5-2l3-3 2-4c-1-3 1-3 4-2s3 1 7-1l5-3c2 0 6-3 6-5l4-3 5-3 9-5c2 0 4 3 4 6l2 6c2 1 2 14 0 17l2 4c2 1 2 2 1 3v3c0 2-9 2-23 1-3 0-4 0-4 3l-2 4c-2 2 0 3 4 1 5-1 21 1 25 4 2 2 6 11 6 15 0 2 0 3 2 3 3 0 3-16 0-22l-1-8-1-5c-1-2-2-23 0-33 0-7 2-7 8-3 6 5 6 7 3 17-1 6-1 11 1 15v4c-2 2-2 2-1 3l2 2 2 4c2 3 3 6 1 9-2 2 0 9 5 15 3 4 4 6 2 7-1 1-4-2-4-4l-2-4-2-2v2c2 8 9 18 9 14l2-2c2 0 2 1 2 6l4 8 4 7c0 3 2 6 5 6 3 1 3 13-1 15-3 1-4 3-1 4v5c-1 1-1 2 1 4 3 3 3 2 0 16l-2 3-2 1h2l4 1c3 2 5 0 5-4s3-9 4-7l1 5 1 6c1 3 2 6 1 13l-3 15v9c2 8 1 12 0 14-1 1 0 1 8 1h10V446c0-217 0-233-3-231-2 1-2 2-1 4v7c0 4 1 6 2 7 3 2-5 15-11 17l-2 4c0 4 0 4 3 5 3 0 3-1 3-3 0-3 1-4 5-1 2 1 3 7 1 16 0 3-1 3-3 3-3 0-3 0-2 2l1 6c0 3 1 4 2 4s2 1 2 3l-2 2c-4 0-5-1-6-6-1-7-3-8-9-3l-3 1v3c1 2-1 10-3 10v2c3 3 3 3-2 8-5 4-8 4-8-1l-1-4v-3c1-2 1-2-1-5l-5-5-5-6-4-3-3-3c-2 0-3-2-4-3l-1-2c-2 0-1 3 1 6l3 2-3 2c-4 3-4 9 0 12l4 5 3 5 3 4 2 4v6c-2 0 0 7 2 10l1 2c-4 1-4 2-4 11l4 5 4 3-1 12c0 10 0 12-2 15l-2 6-2 2-3 6-2 7-1 7c-1 5-7 11-11 11l-5 3-6 4c-1 0-3 2-4 5-2 4-5 6-10 8l-9 3-9 3-5 1c0 1-1 2-3 2l-2 3c1 2-1 4-4 3-2 0-2 0-1-1s1-1-1-1l-3-1c-1-2-5 2-5 5 0 1-2 3-4 3-4 2-5 2-5-1l-3-3-3-2-1 3c-1 3-6 7-8 7-4 0-6 2-6 7l-4 9-6 8c-7 13-19 15-15 2l3-3 2-2c0-2 1-3 2-3 2-2 1-3-1-3l-3 2c-2 2-5 1-6-2l-2-4-1-2-1-1c-3 1 0 13 3 13 2 0-3 7-6 10-5 5-3 11 2 7 3-3 4-3 5 1 1 3 4 4 6 1 4-3 5-2 5 5l1 8 1 4c0 4 4 11 6 11 3 0 3 1 2 10l-1 9-1 4v9l-2 5c0 3-3 5-7 5-3 0-3 0-3 3 0 5-1 5-7 5l-4 1h-1c-1 0-2-1-2-3s-1-2-3-2-4-3-2-4l1-2 1-5v-3l-2-4-2-4-1-5-3-7c-4-3-5-4-5-2 0 3-2 3-4 2l-4-1c-2 1-2 1-2-1 1-2 1-2 4-1 1 1 2 0 2-3 0-6 1-10 3-10l1-4v-4c2-2 0-17-2-20-3-3-3-6-1-9l2-2-2-4c-2-3-2-6-2-14l-1-12-1-5c1-2 1-3-1-5l-2-5-1-4c-1-1-2-2-1-3 1-3-1-6-5-6-5 0-5-1-1-4 3-2 5-4 2-5l-1-2c0-3-3-2-5 1l-5 6-4 6a5 5 0 01-9 1c0-3-3-4-5-2-7 4-13-2-13-13 1-12-2-24-3-16l-3 6c-2 2-3 4-3 7l-1 7c-1 2-2 13-1 15 2 2 0 12-3 13l-2 2-10 15-3 6-5 5-5 3c-6 6-21 12-29 12l-3 1-3 1-3 2-6 2-4 1-5 2c-5 1-5 1-5 5 0 3-1 4-4 4l-4 2h-2l-4 2-1 2c3 0 2 2 0 3h-5a1 1 0 10-2-1c0 2-19 2-23 0h-3c0 2-2 3-5 3-2 0-2 0-1 2a7 7 0 01-9 9l-4 3c-3 1-6 3-7 5s-5 3-5 1-1-2-7-2c-9 0-9 0-11-8l-2-9-2-10-2-6-5 1-7 2-6 2-5 1-2 1c-2 0-8 6-8 8 0 1-8 2-8 0-1-1 3-10 4-10l2 2h2l3-1c4 0 5-3 3-6-2-2-2-4-2-6 1-3 0-4-2-6-2-1-3-2-2-3v-2l-2-1h1c3 0 4-2 1-3l-1-1v-1c-1-1-2-2-3-1-3 1-4-8-4-31V332c-1-30-1-31 4-28 3 2 3 2 5 1h4l5 1 6 1c5 2 7 1 4-1l-4-2-3-2-4-3c-4-1-5-4-1-5 1 0 2-1 2-3l3-4 4-1 14-1 12-2c0-2 3-2 7 0 5 2 5 2 6-2 1-3 11-5 11-2l1 2v5l-7 2c-9 2-16 7-13 8s3 2-1 5c-3 3-3 3-4 2-1-2-4-2-6-1v2h1l2-1 1 1 3 3c3 2 9 3 11 1l4-1 6-3c2-2 3-2 5-1 4 1 4-1 0-4-3-3-2-5 1-7 2-1 4-2 4-4 3-6 9-7 9-1 0 2 0 2 3 1l4 1c3 3 5-4 3-7-3-4 1-15 6-15l1-1c0-2 1-2 3-2 5 0 6 4 6 13l1 6c8 0 17-5 16-9l2-5 3-4 1-1 1 2c-1 1 0 1 1 1 3 0 3 1 4 6s2 7 3 7l2 2c0 2-1 2-4 0-5-3-6-4-9-2l-5 1c-2 0-2 0 0 3 2 4 1 5-2 6s-3 2 0 7c3 4 3 7 1 8l-3 2c-2 2-3 2-9 2l-9 2-7 1-6 1a83 83 0 01-23 3c4 3 9 5 17 4 16-2 37-1 34 1-1 1 2 1 9 1 8-1 10-1 12 1h3l5-1h7c3-1 8 2 9 6 1 3 2 17 2 40 0 16-2 21-11 23-3 0-8 4-18 15l-5 5-6 4c-2 3-5 5-7 5l-4 4c-1 3-2 4-7 5-7 2-16 7-19 10l-4 3-1 2-1 3c-1 1-2 2-1 3l-3 1c-10-2-11-2-12 0-1 3-1 3 1 3l2 1c1 0-2 4-4 4l-4 2c-3 1-5 2-9 1-3-1-5 0-7 1l-4 1-6 4c-5 4-6 7-3 6 2-1 1 0-1 2a20 20 0 000 18c1 4 3 3 4-1l3-4 1-2c0-3 10-10 13-10 5-1 5-3 0-3h-4c-2 2-8 2-9 0 0-2 6-6 8-5 3 1 19 0 23-2 9-4 13-4 15 0 1 2 2 3 4 3s3-2 1-4c-3-3-4-8-1-8l2-3c0-3 3-6 8-9l7-4c2-2 9-5 12-5s9-6 14-13c3-5 5-7 7-8 2 0 3-1 5-4 2-4 2-4 8-4 5-1 10-3 6-3-2 0 3-4 5-4 1 0 11-11 14-16 5-7 8-10 12-12 2 0 3-1 3-2l1-1 4-3 4-5 2-2c0-2 11-8 14-8 1 0 5-2 6-4l9-1 10-1c3-1 9 1 10 3l3 1 3 2c1 2 2 3 4 2 3 0 3 0 4 3l3 3 2 1 3 4 2 3 2 2 2 3c0 3 5 9 7 9l3 4 2 6c5 7 6 12 6 18l3 6 2-1v2c-3 3 1 1 4-2l5-4v-1c-1-2-1-2-3 0h-9c0-1 2-2 5-2l5-3c0-2 3-2 5-1l5 2 10 2c7 3 9 4 9 2s-3-7-5-7c-1-1-1-1 1-3h-3l-4-1c0-1 1-2 3-2h7l5-2c0-2 7-5 13-8 9-3 12-5 11-6l3-4 2-5v-3h4c4 0 6 0 10-2 3-3 4-3 8-2h5l5-1c1-1 1-1-1-3-5-2-4-4 4-10 4-4 6-6 5-7-2-6-1-8 4-10 7-4 11-4 12-1 1 4 9 1 9-4 0-3 0-3 3-2 3 0 4 2 3 4-2 3 1 5 5 4 4 0 5-1 2-3l-2-3c0-6-31-7-48-2-5 2-6 2-8 1-4-4-6-15-2-17 2-1 3-7 1-6h-2l-1 2c-1 4-2 4-4 5l-3-1 5-8c2-2 1-7-1-10-2-1-3-3-3-5l-2-3v-10c0-7 0-8-2-8l-2-2c1-5 0-7-4-11-5-4-5-6-2-15a47 47 0 004-13c1-4-2-8-3-4-1 2-5 3-6 3l-1-19-1-6c-1-1-1-2 1-6s2-6 1-8 1-6 5-11c6-6 17-1 19 8l2 4 3 4c2 3 4 4 7 3 1-2 1-2-2-3l-4-4-4-10-1-1c1 0-1-3-4-5-6-5-8-6-16-4l-24 4c-9 0-11 0-16 3l-9 3-8 2a20 20 0 01-12 0l-3-1-8-5c-4-2-9-4-10-6-3-3-5-3-5 0m-141 6c-2 3-7 8-10 8-2 0-3 1-2 3 2 1 5 1 6-1l2-1c1 1 2 0 4-5s2-8 0-4m-47 27c-4 2-6 7-5 10 2 2 8 0 9-5 2-4 0-6-4-5m318 9a23 23 0 005 11l4 7c2 2 2 3 3 2v-3a21 21 0 01-3-16c0-1-1-1-1 1-1 2-5 3-5 0l-2-4-2-2 1 4m-230 13c-3 2-4 3-4 5l-1 5v8l-2 6v2l1-1h3c3 0 6-2 6-4l3-7c2-4 2-6 2-11-1-7-2-7-8-3m64 2c-4 1-4 3-1 3 5-2 11 0 11 3l1 2 1-5c0-5 0-6-3-4h-4c-2-1-3 0-5 1M0 413c0 100 1 141 1 91a39031 39031 0 00-1-91m433-176c-1 4 4 16 8 22v3c-1 3 0 4 5 4 3 0 3 0 3-4l-2-4-1-3-1-3-2-5c0-4 0-4-3-5l-3-3c0-2-4-4-4-2m-386 7l-4 1-5 2-9 6c-3 0-2 3 0 3l2 2c1 3 0 4-3 3l-3 1-3 4c-4 3-4 5 0 9 3 4 9 3 8-1v-2c3 0 7-6 7-9 0-5 2-6 7-4 3 2 3 2 5 1l5-2c4 0 4-1 4-6s-2-9-3-7c-2 2-3 1-4-1s-1-2-4 0m34 13c0 2 0 8 2 9 1 0 5-6 4-8s-5-3-6-1m108 8c0 2 0 3-2 3s-3 0-3 6v7l4 5 5 3c-1-1 0-2 1-1l1-1 1-1 1 2h2l2-3-1-5c-1-7-3-10-8-10-1 0-2-1-1-3l-1-4-1 2m-142 0c-2 2-4 6-3 10 0 3 0 3 4 3 6-1 8-3 8-5 0-3-2-3-5-1-2 3-3 1-3-5l1-3-2 1m141 14c-3 3-3 2 2 4h5v-3l-2-1c-1-3-3-2-5 0m-178 1c-2 1-2 2-1 3l1 5 1 4c2 0 2-1 2-6a9 9 0 012-7c-1-1-2-1-5 1m489 17l-1 1a2 2 0 100 3c3 0 3 2 0 4-2 2-2 2 1 2 4 1 6 5 2 5-3 0-7 4-8 8v3l7-1c7 0 8 0 9-3s0-7-4-11c-2-1-2-3-3-7 0-3-1-5-2-5l-1 1M64 320l1 2v2c-1 1-2 2-1 3l-1 3-1 2-1 3-1 2c1 2-1 3-3 2h-2v1c1 0 2 1 2 3l2 3 2 1c0 1 6-2 7-4l-2-3c-3-2-1-5 4-6 3 0 3 0 2-2l-2-3-1-3-1-3c0-3-4-6-4-3m399 94c-2 1-4 2-4 4l-4 3-2 2-2 3-2 6-1 4 4 1c4 0 10-1 11-3l-5-1c-6 1-8-1-2-2s10-3 10-6l1-3c3-2 3-10 0-10l-4 2m-200 24l-2 1c-2 0-8 8-7 9 1 3 12-6 12-10 0-2-3-3-3 0m-1 8v3l-1 3v2c1 0 2 1 1 7a12 12 0 002 10l2 2 2 3c1 3 4 1 4-3-1-1 0-4 1-6a16 16 0 00-2-17c-1-4-1-4-5-4h-4m74 9v11c2 0 3-2 3-9s-1-8-3-2m167-1l-5 3v1l-2 2c-3 0-3 2 0 2l2 1c-1 2 1 4 3 4l4 2 6 5c2 0 1-18 0-18l-2-2c0-3-3-2-6 0m-221 8c-2 4-2 6-2 11l1 23a38 38 0 003 17l2 8c2 3 2 4 0 5v4l2-3 1-2c1 0 2-3 1-4a165 165 0 01-2-44 27 27 0 00-1-18c-1-4-2-3-5 3m-243-2c-2 1-4 7-3 8 2 3 8-4 7-7-1-2-3-3-4-1m215 14v8c0 1-3 0-3-2s-3-5-5-5c-3 0-1 6 2 8s5 12 3 12c-1 0-2 12 0 14l1 6c0 8 4 15 7 13 2-2 3-16 2-23v-9c2-3 1-9-2-10-3 0-5-2-3-2 3 0 4-3 3-7-2-4-4-5-5-3m123 3c-4 3-4 6 0 6 3 1 5-1 5-5 0-3 0-4-5-1m3 10c-3 0-3 1-2 1l2 2c0 3 5 7 8 8 3 0 4 1 3 3l1 4c3 3 5 11 4 13a7 7 0 00-2 5l-2 3c-2 2-2 5 0 5s5-3 5-5l4-4c4-4 7-10 7-15 0-2 1-3 3-4 5 0 4-3-1-6-5-2-6-3-5-5 1-1 0-1-2-1-3 0-5 2-2 2v1l-1-1-6-1c-4 1-6 0-7-3-2-3-2-3-7-2m-225 25l-3 4-1 3c-1 0-1 1 1 1 4 1 4 7 0 6l-4 1c-1 2-3 0-2-2a1 1 0 10-2 0l-2 2c-2 0-7-2-6-3 0-1-2-1-5 1l-5 1c-4 0-4 2-1 4l3 4c0 2 0 3 2 3 1 0 2 1 1 2-1 2-6 0-7-3s-5-4-9-2c-2 1-4 2-6 1-3-2-7 0-6 2l-2 7c-2 0-10 8-10 10 0 1-1 2-3 2-4 2-8 10-6 13 2 2 2 2 2 0 2-3 3-2 2 1v9l-2 6-1 5-1 4c-1 1 0 2 1 3 3 3 3 3 2 7l-1 15v18l-3 3-1 1-3 2-2 1h57l-1-1c-2-2-1-7 1-7s3-1 3-3l2-4v-3c-1-2 0-3 1-5 3-4 2-13-1-14-5-1-18-24-15-26h14l5 1c1 2 3 1 6-2 4-4 4-9 1-24l1-3h2c2-1 6 4 6 7s2 5 5 4c4-2 11-1 15 2l4 2 4 2c3 2 7 3 9 0 2-1 1-4-3-5l-5-4-5-3-6-4-8-4-3-2c0-3 3-3 7 0l8 2c4 0 6 1 11 6l3 2 1 1 6 1c0-3 0-4-2-5-4-1-9-5-9-6l-3-6c-3-4-1-6 3-5l3-1 4-1c3-1-3-8-6-9l-2-1 2-2c3-2 2-4-1-4l-2-1-2-1-4-2h-4l-8 1h-7c-1 1-7 0-7-1l2-4c3-4 2-4-2 0m205 1v8c0 4 0 4 2 4 3-1 1-16-2-16v4m-96 9l1 1c2 0 3 5 2 9v6l1 3 1-4 3-3c3 0 3-7-1-10-3-2-7-3-7-2M35 536c-6 2-8 3-6 5 4 3 9 3 9-1 0-3-1-5-3-4m249 2l-1 3c2 2-2 10-4 9h-2c-3-1-2 5 2 8l4 5h5c4-3 5-9 3-14l-2-6-2-4c-2-3-2-3-3-1M22 550l-5 5c-4 2-4 5 1 4 6 0 12-7 8-9-2-2-3-2-4 0m300 7c-2 4 0 12 2 12l1-7c0-8-1-10-3-5M8 562c-3 0-5 4-4 7 0 3 2 3 4 0l2-4c3-3 2-5-2-3m59 21l-3 3a2 2 0 102 3l5-4 3-2c-1-3-4-2-7 0m408 14l1 3c-1 1 3 5 5 5 7 0 9-4 2-5l-5-2-3-2v1m-336 30a3 3 0 002 4h-1v1c1 1 2 1 5-1 5-2 5-4 1-6-5-2-6-1-7 2"
      tabindex="-1" itemprop="bold" style="fill-opacity: 0.93; fill-rule: evenodd;"></path>
    </symbol>
  </defs>
  <use class="background" href="#-posters-1650742701450-background" fill="url(#-posters-1650742701450-background-gradient"></use>
  <use class="light" href="#-posters-1650742701450-light" fill="url(#-posters-1650742701450-light-gradient" filter="url(#light-filter)"></use>
  <use class="regular" href="#-posters-1650742701450-regular" fill="url(#-posters-1650742701450-regular-gradient" filter="url(#regular-filter)"></use>
  <use class="bold" href="#-posters-1650742701450-bold" fill="url(#-posters-1650742701450-bold-gradient" filter="url(#bold-filter)"></use>
  <use class="emboss" tabindex="-1" href="#-posters-1650742701450-light" fill="url(#-posters-1650742701450-light-gradient" filter="url(#emboss)"></use>
  <use class="emboss" tabindex="-1" fill="url(#-posters-1650742701450-regular-gradient" href="#-posters-1650742701450-regular" filter="url(#emboss)"></use>
  <use class="emboss" tabindex="-1" fill="url(#-posters-1650742701450-bold-gradient" href="#-posters-1650742701450-bold" filter="url(#emboss)"></use>
  <defs>
    <g class="gradients">
      <radialGradient gradientUnits="userSpaceOnUse">
        <stop itemprop="radial" stop-color="hsla(39, 17%, 57%, 1.00)" offset="0%"></stop>
        <stop itemprop="radial" stop-color="hsla(46, 11%, 58%, 1.00)" offset="15%"></stop>
        <stop itemprop="radial" stop-color="hsla(39, 13%, 41%, 1.00)" offset="30%"></stop>
        <stop itemprop="radial" stop-color="hsla(28, 17%, 42%, 1.00)" offset="45%"></stop>
        <stop itemprop="radial" stop-color="hsla(42, 11%, 52%, 1.00)" offset="60%"></stop>
        <stop itemprop="radial" stop-color="hsla(41, 12%, 51%, 1.00)" offset="75%"></stop>
        <stop itemprop="radial" stop-color="hsla(31, 19%, 42%, 1.00)" offset="90%"></stop>
      </radialGradient>
      <linearGradient gradientUnits="userSpaceOnUse" x1="0" x2="0" y1="0" y2="100%">
        <stop itemprop="vertical" stop-color="hsla(38, 16%, 57%, 1.00)" offset="0%"></stop>
        <stop itemprop="vertical" stop-color="hsla(46, 11%, 53%, 1.00)" offset="15%"></stop>
        <stop itemprop="vertical" stop-color="hsla(31, 15%, 40%, 1.00)" offset="30%"></stop>
        <stop itemprop="vertical" stop-color="hsla(37, 12%, 51%, 1.00)" offset="45%"></stop>
        <stop itemprop="vertical" stop-color="hsla(41, 12%, 49%, 1.00)" offset="60%"></stop>
        <stop itemprop="vertical" stop-color="hsla(35, 18%, 50%, 1.00)" offset="75%"></stop>
        <stop itemprop="vertical" stop-color="hsla(45, 11%, 57%, 1.00)" offset="90%"></stop>
      </linearGradient>
      <linearGradient gradientUnits="userSpaceOnUse" x1="0" x2="100%" y1="0" y2="0">
        <stop itemprop="horizontal" stop-color="hsla(38, 16%, 53%, 1.00)" offset="0%"></stop>
        <stop itemprop="horizontal" stop-color="hsla(40, 13%, 54%, 1.00)" offset="15%"></stop>
        <stop itemprop="horizontal" stop-color="hsla(37, 13%, 39%, 1.00)" offset="30%"></stop>
        <stop itemprop="horizontal" stop-color="hsla(26, 17%, 39%, 1.00)" offset="45%"></stop>
        <stop itemprop="horizontal" stop-color="hsla(37, 12%, 46%, 1.00)" offset="60%"></stop>
        <stop itemprop="horizontal" stop-color="hsla(39, 14%, 47%, 1.00)" offset="75%"></stop>
        <stop itemprop="horizontal" stop-color="hsla(31, 19%, 41%, 1.00)" offset="90%"></stop>
      </linearGradient>
    </g>
    <g class="generated gradients">
      <radialGradient id="-posters-1650742701450-background-gradient" gradientUnits="userSpaceOnUse">
        <stop stop-color="hsla(39, 17%, 80%, 1)" offset="0%"></stop>
        <stop stop-color="hsla(46, 11%, 80%, 1)" offset="15%"></stop>
        <stop stop-color="hsla(39, 13%, 80%, 1)" offset="30%"></stop>
        <stop stop-color="hsla(28, 17%, 80%, 1)" offset="45%"></stop>
        <stop stop-color="hsla(42, 11%, 80%, 1)" offset="60%"></stop>
        <stop stop-color="hsla(41, 12%, 80%, 1)" offset="75%"></stop>
        <stop stop-color="hsla(31, 19%, 80%, 1)" offset="90%"></stop>
      </radialGradient>
      <linearGradient id="-posters-1650742701450-light-gradient" gradientUnits="userSpaceOnUse" x1="0%" x2="0" y1="0" y2="100%">
        <stop stop-color="hsla(38, 16%, 60%, 0.9)" offset="0%"></stop>
        <stop stop-color="hsla(46, 11%, 60%, 0.9)" offset="15%"></stop>
        <stop stop-color="hsla(31, 15%, 60%, 0.9)" offset="30%"></stop>
        <stop stop-color="hsla(37, 12%, 60%, 0.9)" offset="45%"></stop>
        <stop stop-color="hsla(41, 12%, 60%, 0.9)" offset="60%"></stop>
        <stop stop-color="hsla(35, 18%, 60%, 0.9)" offset="75%"></stop>
        <stop stop-color="hsla(45, 11%, 60%, 0.9)" offset="90%"></stop>
      </linearGradient>
      <linearGradient id="-posters-1650742701450-regular-gradient" gradientUnits="userSpaceOnUse" x1="0" x2="100%" y1="0" y2="0">
        <stop stop-color="hsla(38, 16%, 50%, 1)" offset="0%"></stop>
        <stop stop-color="hsla(40, 13%, 50%, 1)" offset="15%"></stop>
        <stop stop-color="hsla(37, 13%, 50%, 1)" offset="30%"></stop>
        <stop stop-color="hsla(26, 17%, 50%, 1)" offset="45%"></stop>
        <stop stop-color="hsla(37, 12%, 50%, 1)" offset="60%"></stop>
        <stop stop-color="hsla(39, 14%, 50%, 1)" offset="75%"></stop>
        <stop stop-color="hsla(31, 19%, 50%, 1)" offset="90%"></stop>
      </linearGradient>
      <linearGradient id="-posters-1650742701450-bold-gradient" gradientUnits="userSpaceOnUse" x1="0" x2="100%" y1="0" y2="0">
        <stop stop-color="hsla(38, 10%, 8%, 1)" offset="0%"></stop>
        <stop stop-color="hsla(46, 10%, 8%, 1)" offset="15%"></stop>
        <stop stop-color="hsla(31, 10%, 8%, 1)" offset="30%"></stop>
        <stop stop-color="hsla(37, 10%, 8%, 1)" offset="45%"></stop>
        <stop stop-color="hsla(41, 10%, 8%, 1)" offset="60%"></stop>
        <stop stop-color="hsla(35, 10%, 8%, 1)" offset="75%"></stop>
        <stop stop-color="hsla(45, 10%, 8%, 1)" offset="90%"></stop>
      </linearGradient>
    </g>
  </defs>
  <defs>
    <filter id="light-filter">
      <feColorMatrix in="SourceGraphic" type="matrix" values="1.5 0 0 0 0
                0 1.5 0 0 0
                0 0 1.5 0 0
                0 0 0 1.5 0"></feColorMatrix>
    </filter>
    <filter id="regular-filter">
      <feColorMatrix in="SourceGraphic" type="matrix" values="1.5 0 0 0 0
                0 1.5 0 0 0
                0 0 1.5 0 0
                0 0 0 1 0"></feColorMatrix>
    </filter>
    <filter id="bold-filter">
      <feColorMatrix in="SourceGraphic" type="matrix" values="1 0 0 0 0
                0 1 0 0 0
                0 0 1 0 0
                0 0 0 1 0"></feColorMatrix>
    </filter>
    <filter id="emboss">
      <feConvolveMatrix kernelMatrix="3 0 0
                      0 0 0
                      0 0 -3"></feConvolveMatrix>
    </filter>
  </defs>
</svg>
