<svg id="-posters-1650743024234" itemscope="" itemtype="/posters" itemid="/+/posters/1650743024234" viewBox="0 0 512 683" preserveAspectRatio="xMidYMid slice" tabindex="0" xmlns="http://www.w3.org/2000/svg"><defs><symbol id="-posters-1650743024234-background"><rect itemprop="background" width="100%" height="100%" tabindex="-1"></rect></symbol><symbol id="-posters-1650743024234-light"><path d="M0 103c0 67 0 102 1 101l1 1-1 1-1 206v206l3-2c5-5 7-4 2 0-5 5-5 6-1 7s4 3 0 4H0v56h48v-2l1-6 1-3c1-1 1 1 1 5l-1 6h5c4 0 4 0 5-4v-4l1-1v9h136l-2-2-3-3c-2 0-8-8-8-10s14 1 18 4l3 1 2 3 3 2v1h-2a3 3 0 00-4 0c1 1 0 1 0 0l-3 2-1 2h313V0H358L202 1l-3 2c-3 2-4 2-2-1 1-2 1-2-6-2l-9 1h-4c-3-1-5-1-5 1l-1 1-1-1c0-2-10-2-86-2H0v103m0-10l1 74a152 152 0 011-23c-1 1-1-17-1-71 0-60-1-56-1 20m330 23l-5 5c-4 4-15 5-22 2-6-4-9-1-10 10-1 5-1 5-7 7-9 5-30 6-32 3h-2l-3 1c-2 0-3 0-4-8-3-9-4-12-7-12-4 0-5 3-5 15v10l-3 2-6 3-8 4-6 1-4-3c-24-22-65-32-80-19l-8 3c-13 3-24 9-34 18a51 51 0 01-8 7l3 3 4 1c3 1 9-1 10-3l-3-2-3-1c0-3 18-5 22-2 3 2 2 3-2 2l-7 3-5 3 4 1 5 1h1c3 3 7 4 7 2s0-2 2-1c3 0 3 1 2 3-1 3-1 4 1 4l1-1 5-1 5 1 4 1c5-1 9 2 7 5l1 2 3 2 2 2 3-2a3 3 0 000-5h1l4 1c2 0 2 0 1-1l-2-3a13 13 0 0114-1c2 0 2 0 2 3l1 5 1 4 1 4 5 9c6 12 6 11 5-3l-1-10c3-2 18 14 26 25l7 11 2 3v1l7 5 3 4c-4-2-1 1 3 3a4 4 0 014 5h4c0-2 2-1 6 3l5 4c1 0 4 3 7 8 6 7 9 9 10 6l2-2c2 0 4-3 4-7l1-4 1 1 2 1 1-1h-1l1-5 3-5-1 3-1 3c3 2 8-16 8-29 1-8 4-17 10-23l7-10 5-7-1-13c0-17 2-23 11-31 3-2 6-5 6-7 2-3 4-3 6-1 4 4 11 2 15-4 6-8-2-16-13-12M0 233c0 14 1 21 1 13a713 713 0 00-1-13m0 192c0 89 1 126 1 81a30563 30563 0 00-1-81m331-115l-8 6-10 6-20 14c-2 1-3 2-4 1-2-2-7 0-9 3-5 5-10 25-7 27l1 1a49 49 0 005 21c0 2 3 4 4 4l1-3c0-10 22-33 32-33l4-3c6-4 18-5 16-1l4 1 4 1h2l4 1 2 1c3-7 20-7 22-1h-3c-4-3-11-3-15 0-4 2-4 3 0 4 2 0 2 0 2 6l-1 6 6 1c7 2 11 6 15 14l2 6 2-3c2-3 2-16 0-22-2-4-2-4 0-2s5 10 5 12h3l1-2c1-4 3-5 3-3 0 4 2 2 2-2 0-3 1-3 3-3s2-1 1-2c-1-2-3-2-5-2l-6-3a158 158 0 01-23-27c-2-2-3-4-3-9-1-11-2-13-10-15-9-4-16-4-22 0m157 31v2l-1 1 1 1c1-1 4 0 4 1h-1l-2 1c0 1 4 4 7 4l4 2c1 1 5-2 5-4 0-1-11-8-15-9-2-1-2-1-2 1m-158 13c-4 2-4 2 0 4s3 2-1 1-4-1-8 3c-5 6-6 7-2 7 3 0 4-1 7-3l4-4c2 0 5-3 5-6-1-4-2-4-5-2m-22 8c-9 5-18 16-22 26-2 6-1 7 2 2 2-4 10-12 15-15l7-7 4-7c2-3-1-3-6 1m115 1l-7 4a59 59 0 01-18 8c0 2-5 6-8 6h-3v22h1l9-4 3-1-1 2c-2 2-3 3-1 5h12c3 3 1-1-3-4-5-4-5-4 0-8l8-6 5-3 1-1 3-1c10-2 17-6 15-9-1-1-6 1-6 3l-2 1-2 1a4 4 0 01-4 0c3 0 5-3 3-3l-2-2-2-2c-2-1-3 0-2 1l-2 1-4 1h-2l-4 1-2 1-2 1c-4 0-4-1 6-6l6-3 7-4 7-4c0-2-2-1-9 3m-90 2c-2 4-2 5-1 5l5 3 5 2c0-1-2-8-4-10-3-4-3-4-5 0m-15 7c-5 3-7 5-9 12s-2 7 4 6c3-1 4-2 6-8l2-9c1-2 0-3-3-1m10 6c-3 9-2 10 2 5 3-3 4-4 7-4 4 0 4-2 0-5-7-4-7-4-9 4m29-3c-2 1-5 9-5 11l2-2c3-4 5-3 2 0-1 2-2 4-1 6v2l3-2c3-3 11-4 11-2l1 1-5-12c-2-3-5-4-8-2m115 20l-3 7-1 3c-2 1 0 4 3 6l2 2v-2c-2-5-2-6 1-5h5c4 0 4 2 1 3l-2 1 2 3c2 2 3 2 4 1l4-1c3 0 4-1 2-3l-1-2a36 36 0 00-10-15c-3-4-4-4-7 2m-163-3c-3 2-2 10 1 12l3 2v-4l2-8c1-3-1-4-6-2m24 2l-7 16c0 2 6 3 7 2 1-2 5-17 4-19 0-1-2-1-4 1m-72 104c-2 1-3 3-2 4 0 2 0 2-1 1-1-2-2-1-1 3 1 2 1 2 2 1h3l1-6c2 1 4-2 3-3l-1 1-1-1-1-3-2 3m-1 33l2 7 1 4a10 10 0 0010 10h-1c-2 0-2 0-1 3s1 4-3 11a53 53 0 01-7 11l-2 4v3l3-5 7-11 2-3 6-11 4-8-4-4-16-12-1 1m27 24l-3 4-3 6-17 28 22-33c5-9 5-9 1-5m-83 10h-6c-3-1 0 2 4 4a12 12 0 0013 1c2 1 3-4 2-6l-13 1m76 24c-4 8-10 26-14 44l-2 5-1 5 2-4 13-42c6-14 6-18 2-8m-15 6l-4 14-4 14-3 16 2-4 2-8 6-22c3-8 4-13 1-10m71 34c-2 11-2 23-1 22s2-4 2-16c0-10 0-13-1-6M0 655c0 16 1 22 1 14a801 801 0 00-1-14m125-12l-2 8c0 1 1 2 6 3l6 1-4-9c-4-10-6-11-6-3" tabindex="-1" itemprop="light" style="fill-opacity: 0.76; fill-rule: evenodd;"></path></symbol><symbol id="-posters-1650743024234-regular"><path d="M10 2c0 3 3 11 5 14l2 4-1-1c-2-2-2-1-1 2 3 6 5 6 9 5 5-3 8-9 8-13V9l5-8c0-3-7 2-7 5h-1l2-3c2-3 1-4-2-2-2 2-2 2-3 1-2-3-16-3-16 0m31-2l1 4c2 4 2 4 0 5l-3 1-4 3 4 5 5 7v20c1 2 1 2-1 3-1 2-2 3-2 7l-2 7a2 2 0 104 1c-2-2-1-3 1-3 1 1 2 0 1-3 0-3 1-4 2-5l1-2c-1-1 0-2 1-2l1-1 1-2c0-1 0-2-2-2l1-2 2-3 1-2c4 1 6 0 9-4l3-2 2 7c4 12-1 29-14 49l-5 8c-2 2-1-1 2-12 3-9 5-23 4-23l-7 27-3 9c-2 0-5-9-5-15v-7l-4 4-4 5 1-8 1-13v-8c-1-2-2 1-1 5h-3l-4-1c-3 0-3-1-2-2 1-2 1-2-1-4-1-1-2-2-2-5a3 3 0 00-4-3l1 1c2 0 1 3-1 4a3 3 0 00-1 3c0-2 2 0 2 2l-1 2c-1-1-1 0-1 2v3l-4-20-2-3v-4H8c-1 1-1 1-1-1l-1-2v2c2 5 4 18 2 15H7c0 2-2 1-4-1-2-1-2-3-2-4v-2L0 51c0 11 0 12 3 14l2 4 1 2c1 1 3 3 3 5l4 6 1 2-2-1-7-5-5-3v6c0 7 0 7 3 6h3l-3 1-3 1v29c0 20 0 28 1 27s2-1 5 2c4 5 4 6 1 6-2 1-5 0-5-2l-1-1-1 7c0 9 0 8 9 12 9 3 19 10 19 13l-6-3c-2-2-11-6-14-6-1 0-4-1-5-3l-3-2v8c0 9 0 9 2 9h3l-3 1c-3 1-3 18 0 18l1 1-2 1-1 9a32 32 0 006 21l1 3v3c2 1-1 2-4 2-3-1-3-1-3 7a16 16 0 003 10v-10c0-3 4-4 4-1l-1 1-1 2c-1 3 0 3 2 3l3 1H7c-2 0-2 0 0 1 1 2 1 2-1 4-1 1-3 2-4 1-2 0-3 26-1 29 2 2 2 4 0 4-1 0-2 288 0 291v1l-1 10v9h5l4 2 7 1 6-1-3 6c-2 4-3 7-3 12s0 5-1 3c-2-3-6-4-9-3v3l2 2 6 6 1-2c1-1 1-1 2 2 2 5 8 10 8 7l1-2 1 3c-1 2 2 6 4 6l-3-10-1-3c0-2 0-3-1-2l-1-1 1-4 1-2 1 3c-1 3-1 3 2 3s4 1 4 10l1 8c1 2 3 0 3-2 0-8 7-18 15-22s21-1 28 7l3 2-4-2c-16-12-41-1-41 17 0 2 1 3 3 5l4 3 2 1-1-2c-1-1-1-1 2-1 2 0 5-1 8-4l9-6c2 0 5-2 6-4 3-2 3-2 13-2a57 57 0 0113 2l8 2c3 2 8 3 11 3h5l1-5c1-8 2-10 3-10l2 2c4 10 7 15 10 17l4 2 2-3c4-3 10-7 15-7 5-1 15 2 17 5h-2c-8-4-21-2-27 3l-3 3 2 2 12 12 2 2 6-2 8-2c3 0 5-1 5-3l2-1c2 0 2 0 1 1-2 1-2 1 0 1 1 1 2 0 2-1l2-1 2-1c-1 0 2-7 5-9 2-2 3-2 8-1l7 1v9l1 11c1 1 1-1 1-7l1-10 2-11 2-21c2-6 3-13 2-14l-1-32v-7h-6c-9 0-12-1-12-3l-1-4c-1-2-1-2 2-2 2 0 2 0 1-1-3-2 3-18 11-27 5-6 4-1-3 14l-3 8-1 5h6l6-2 7 1c0 3 2 4 3 3h2l-1 1a1 1 0 101 3h5c2 1 4 2 5 1l3 1-1 1-1 2c0 2-2 1-5-1l-2-1h-3v4c1 11 1 12 2 10l2-2c3 0 11-9 10-11 0-2 0-2 1-1l9-5 2-1h5l6-2c3-1 5-5 3-5l-1-1-3-5c-3-5-10-29-6-26h3l1 2h1c-1-1 0-2 1-1l3 3c0 2 1 4 4 5l6 4c1 2 4 3 6 3 3 0 5 0 10 3l-1 2v3l1 2h-2l-3 2-2 4c1 0 0 2-2 3-2 3-2 4-1 4 2 0 2 0 0 4l-1 4-1 1-1 2 3-3 3-4c2 0 3 0 4-2v-1c-2 1-2 1-2-1h-3c0-2 2-4 3-3l4 1 2 1v1l-1 2-2 2 2 3c3 5 2 7-2 3l-3-3-3 5c-2 5-2 6-1 7v4l-1-2c0-2-3 3-4 6l-1 5-8 24 3-1-1 1-5 9a53 53 0 0011-16c1 1 10-6 11-7h3c2 0 2 0 1-1s1-2 7-3l5-1c3 0 2 1-7 10a149 149 0 00-22 28c-3 4-17 31-17 34-1 3-1 3 1 3l8-2 6-1c0-1 6 1 11 5 4 2 4 2 25 2h22l-1-8c0-8 1-33 3-46 1-5 0-6-2-8l-6-5c-6-8-11-12-13-13-3 0-7-5-5-6 1-1 0-2-3-2l-1-3c0-1 0-2-1-1l-4 1c-4 0-4 0-1-1 2 0 2-1 1-1-1-1-2-1-1-2l-1-3h1l2 2 2 1-2-4-1-3-1-3-1-2v-9c0-11 1-15 5-15 6 0 8 2 5 5-6 5-4 31 2 31v1c-1 1-1 3 1 3l2-2c1-2 1-2 1 1 0 7 15 22 15 14l2-5 3-4-4-7-6-10-1-4 3 2c0 2 2 2 2 0h-1v-1c2-3 3-2 4 1l2 2c2 0 1-2-1-4v-2c1 0 4 4 8 12 4 6 4 7 7 6l3-1a23 23 0 00-8-11c0-4-13-11-19-10h-2c5-3 17-2 15 0h1c3-2 8 2 17 10l11 10c4 3 5 5 5 7 0 4-1 4-4 1s-3-1 0 7l3 13v8l2-5 1-4v3c0 3 1 4 2 4 1 1 1 0 1-3v-2l1 4c0 2 3 6 3 5 2-1-1-15-4-18a11 11 0 01-1-9l2 5 1 4 1 1 3 9v13l-3 3c-1 4-3 3-4-4v-6l-2 2c-2 1-3 3-2 5 0 2 0 2-1 1l-1-6c0-8-5-29-7-29v17c2 11 3 24 2 33l-1 4v-6l-1-1-6-5c-6-6-6-6-6-1 0 7-6 39-8 39l-4-9 2-3c2-2 3-8 1-6l-1 2-2 1c-1-1-1 0-1 6l-1 7-1 4v3h10c10 0 10 0 10-2s0-2 1 0l1 2 2-3c2-3 4-3 2 1-1 2-1 2 1 2s3-1 4-3c0-3 0-3 3-3l3 2c1 4 3 4 20 4h18l1-4c2-5 2-5 4-4s2 2 2 5l-1 3h98V515l-1-167c-1 0-4 5-3 6l2-1c1-1 1-1 1 1 0 4-2 5-5 3-2-1-4 0-3 2 2 3-10 3-14 0-2-1-2-1-2 1l-5-1-11-1c-4 0-6 0-4-1h6l5-1 3 1c3 2 3 1 4-7 0-7-2-8-11-8l-7 1 2-4c3-5 9-9 12-9l6-2 5-2 4-1 8-2h6l-4 2c-3 3-3 5 2 11 2 2 3 4 3 7V0h-88v6c1 6 0 8-2 5l-3-2-1-2 1-1c2 1 4-1 3-4 0-2 0-2-12-2-10 0-12 0-12 2v1l-1-1c-1-2-14-3-16-1h-1c-2-2-4-1-4 2 1 3 2 6 2 3h1l1 1c0 2-4 1-5-1h-2V5l1-3c-1-2-1-2-37-2-40 0-51 1-60 7-4 2-5 1-4-3 0-4 0-4-2-4s-2 1-2 3c0 4-2 6-2 2l-2-3-2-1-2-1 1 3v3l-1 5c0 4 0 4-5 3-3-1-8-8-8-13l-2-1c-2 0-3 2-1 4l6 9-16-4c-9-2-13-5-12-8l-1-1v4c0 2 0 2-7 2h-7l4 2a39 39 0 0119 19l-6-2c-6-2-18-4-19-2-2 2 11 10 23 14l19 9c0 4-4 5-7 2-5-6-23-9-31-6-5 2-20 0-25-4-7-4-6-8 4-20l9-11 1-1c1 1 1 0 0 0 0-2 0-2-2-1l-3 2a47 47 0 00-15 26c-1 0-2 1-1 2l-2 4-2 2 1-4c2-4 0-7-3-3l-2 4-2 2 1-2c0-2 0-2-1-1v3l-1 2-4 4c-1 2-2 4-3 3l-3 3-4 9-4 6c-2 3 0-4 2-9l2-4v-1l1-4 1-2-4 5-2 6a44 44 0 00-4 15l-2 8v-7c0-5 0-6-3-10l-4-5 1 8c0 8-2 19-5 23-2 2-2 2-2-5l-2-12-2-5v15c-2 0-5-3-5-5l-2-2-1-3v-1c-2 0-2 2 1 6l4 6 2 2 1 2h1l1 1v7c2 8 1 8-1 0-1-4-3-7-6-9l-4-4-4 1-4 3-3 2c-3 0-4 1-2 7 2 5 2 14 0 18-2 3-4 4-4 1 0-4-1-5-4-5s-5-3-3-4v-4l-1 1c-1 1-1 0-1-2 0-4-2-4-8 1l-5 2 9-7c2 0 2 0 1-1s-1-1 1-2c2 0 3-2 4-3 0-3 3-5 4-2a1 1 0 102-2h1c1 2 1 2 5-1l6-3 4-2c1-2-10-17-13-17l-10 9C79 85 77 87 75 87c0 0-2 1-2 3l-2 2-1-2c-2 0-2 3-1 5v1h-6c-2 0-3 5-1 5 1 1 0 6-1 6v3l-1 2c-4 0-1-14 4-20l18-20 3-2 9-5 7-4-1-4c0-5 3-16 4-14l4 3 6 5c2 3 4 4 6 2l6-4 5-4 2-1 1-5c0-10 4-20 10-26l5-7c1-4 3-5 3-2 0 2 2 5 4 5V4c3-4 3-4-57-4H41m119 3v5c-1 4 0 5 4 2 2-1 3-3 3-5l1-2c2-2 1-3-4-3-4 0-4 0-4 3m150 0c-2 2-2 2-4 0-4-3-26 2-30 7l-4 3-2 2c0 3 5 2 10-1 5-4 10-5 9-3l-3 1-4 1c-2 1-1 2 8 2l10 1h-11c-11 0-15 1-9 3 7 1 31-3 31-6 0-1-8-3-12-2-4 0-5 0-5-2 0-3 9-2 15 1 4 3 5 2 5-4 1-5-1-6-4-3M46 3l1 3v5l1 6 1 2 2 3v-6l-2-7c0-5-3-10-3-6m285 21v5c1 3 3 4 3 2l2-2 1-4c-1-4-4-4-6-1M78 33l-4 27c0 5 0 6 1 5l2-8 2-13c1-8 1-13-1-11M24 60l1 2v1l-1 4v2c0-3-2-4-6-4-3 0-3 0-3 7-1 7 0 11 5 14l1 2 1 1h3c2 2 2 1 3-4l-1-4c-2 0-11-10-11-12s6-1 6 2c1 2 0 2-1 2l1 2 3 4 1 1c2 0 2-2 2-12l1-5c2 0 1-3-1-3h-4m6 27c-2 1-1 6 2 9l3 5 2 2v-1c-2-3 0-2 3 0l3 2c1-3 0-6-1-7-3-4-12-11-12-10m235 12h-2l-5 2-6 4c-6 2-11 7-16 15-3 6-4 7-4 18 0 9 0 11-2 12l-5 3-9 4c-6 1-5 2-15-6l-8-6-1-3-1-3v-6l1-8c0-9 0-10-4-14s-7-6-4-1l4 2 1 4v4c2 0 2 8 0 9l-1 6-1 6c-20-9-46-12-56-8l-6 4-11 3a33 33 0 00-11 5c-3 0-12 5-18 11l-8 7c-3 3-3 4 4 11 5 6 20 17 26 18l7 6-1 1c-3-1-2 0 1 2 3 3 5 4 4 2-1-3 0-2 4 1 3 2 9 13 9 16l2 2h1l-1-2-1-3-1-3-1-2 3 1 16 10c1 0 1 1-1 6l2-1c2-2 2-2 5-1l29 16c4 3 7 3 10 1l7-4c6-3 6-3 5-6l-2-10v-8l2 4 17 33 15 28 1-1c3-2 17 5 14 8-1 2-6 2-6 1l-1-1v9l1 2v2a1 1 0 11-1 2v1l3 15 2 14 1 11 1 4 1 8 1 6 1 3v2l2 5c0 9 7 20 12 20l5 1c1 1 1 1 2-1l1-2 2 2c2 3 2 6 0 10l1 2c1-1 1 0 1 3v5c1 0 2-3 1-8 0-5 2-11 9-19a60 60 0 0121-14v-2l-1 1h-3l4-6 3-6 2-1 2-1c1-2 7-5 10-5 2 0 2 1-2 3l-11 12c-2 4-2 4 0 4s1 1-3 3c-11 5-28 22-22 22 2 0 0 8-3 10-2 1-6 8-8 13l-3 5a31 31 0 012-17l-3 8-1 5-4-1-6-2c-2 0-1 1 2 2 6 2 11 7 9 9l-1 4-1-1c-1-3-1-3-1-1l1 3v10c0 10 2 6 2-6 1-7 2-10 3-8 1 1 1 0 1-2-1-6 3-13 4-8v-2l2-7c3-4 4-3 3 3l-1 7v7l1 4c1 1 1-2 1-8 0-12 4-30 5-25v4c-2-2-2 35 0 37v-25c1-14 4-16 7-5l5 10c5 6 5 10-1 19-3 6-8 8-10 4h-1l1 3 3 1c4-1 4-1 1 6-3 8-4 28-2 30 1 1 2-2 1-7l2-12c1-1 2 0 1 2l1 18v-1c-1-10 8-52 12-55 3-1 3 1 0 12l-1 8 1-1c0-2 1-2 3 0v-2c-1-5 0-11 4-16s4-6 1-3h-2l2-6c2-6 2-6 6-5 3 1 4 0 5-3l4-11 3-10c0-2 1-2 2-2h2c-1-1 0-2 1-2 2-1 1 0-2 16l-3 15c1 1 2 0 2-3 0-5 6-24 7-23l1-2c1-2 1-2 2 0v5c1-1 2 0 1 1l1 1c1 0 1 1-1 2-2 3-3 5-1 4v7c0 7 0 8 2 10 3 3 3 3 1 10-2 11-6 21-11 30l-4 7 7-9 3-3 1-1c-1-1 0-3 1-4l3-8 1-2c0 3 0 3 1 2 2-3 1 4-2 10l-3 7 7-10 3-4-1 4v1c1-1 8-21 9-29l3-8c2-1 2-1 2 7l-3 14v6l1 2h-2v1l-1 2-1 2-2 4v7c-3 10 0 41 4 41l-1-5c-6-16-5-34 3-48a10 10 0 002-10l1 1c1 1 1 1 2-1 3-5 16-17 22-20 18-9 38-10 52-4l3 1-6-3-4-2 2-1h16v4c0 2 0 2-1 1-1-2-1-2-2 1v5a2 2 0 11-4 3c0-1-1-2-3-2l-8-1-12 1-6 1 9-8c3-2 1-2-2 0l-4 1c0-1 0-2-1-1l-1 1c2 5-3 6-7 2-4-3-4-3-9-1-4 1-3 3 2 5 3 0 4 2 1 2l1 1c5 2 5 2 1 6-6 7-12 16-6 10l3-2-1 2-7 14 3-4c4-8 5-9 5-5l-1 6c0 2-1 3-3 4l-3 1-1 1c-3 2-2 3 0 3v1l-10 11-9 10 7-9c3-4 4-8 2-8-1 0-6 6-6 8l-1 1-2 2-2 3-1 2-1 2-5 9c1 0 3-2 3-4l2-2c0 3-5 12-6 10l-1-1c0 3-10 23-11 23l-1-5v-11c-1-5-1-5-1-1 0 3 0 3-2 2l-1-1c0 2-3-2-3-6-1-1-1 3-1 9l1 21c2 9 2 17 1 17-2 0-3 19-1 22 1 1 1 1 1-2l2-5v-3a29 29 0 014-15l1-1 1-1 1-2 1-2c0-3 7-15 8-12l1 9c0 11 1 9 1-3 0-13 0-13 10-27a97 97 0 0120-24l3-5 3-3 2 4c3 4 6 6 7 5l-1-8-2-7 4-4a45 45 0 0118-13c0-1 6-4 11-4 5-1 5-2-3 14l-9 19-3 5c-1 0-2-12-1-18 0-3 0-4-1-3-1 2-3 24-2 28 1 3 0 6-2 10l-9 23-9 23-3 7c0 3 0 3 3-3l3-7 8-12v2l-2 2v1l1 1 2 1c1 1 1 0 1-2s0-3 1-2 0 7-1 7l-1 2-2 7c-4 5-4 8-1 6 2-2 2-2 3-1l2 2c3 0 5 7 4 10a542 542 0 01-14 39l-12 31-1 6c-1 3-1 3-3 2-3-3-3-2-1 0l2 4-2 7c0 6 1 5 5-4a116 116 0 018-13l5-9c2-1-3 14-5 17-1 2-3 15-2 16v3c-1 3-1 11 1 12l1-2c0-5 11-25 14-25 3-1 5-7 5-10a49 49 0 019-20l7-16a285 285 0 0011-23l2-4 2-1c4 1 7-5 5-9l-2-3 1-1c1 0 3-2 3-4a222 222 0 008-22c1-3 1-3-1-3s-3-1-1-2c1-1 1-2-1-6l-1-6c0-5 0-6-3-4-3 1-3-1 0-2 3-2 1-4-2-3l-2-1 2-2c3 0 3 0 2-2-2-1-2-1 0-7 2-8 3-10 1-9v-2l2-2 2-7c2-3 1-5-2-3-1 1-1 1-1-1s-1-4-4-6l-4-4 6-12c7-15 7-17 3-19-6-3-8-2-12 3l-4 5-7-1-8-1c-1 0 3-8 6-10l1-3c-1 0-7 8-7 11-1 3-2 3-7 3l-2 1-5 3-10 6c-6 4-6 4-6-1 2-12 8-19 20-24 5-2 17-2 21 0l7 2 5 1h2c2-2 11-2 12-1s0 2-1 3v2c1 2 5 1 5-2l1-1 1-2a2 2 0 114 0h2c6-3 13 2 9 7l-4 1c-4 0-6 5-6 15v6l4-3 6-4 2-4 1-4c2-3-1 21-3 25h-1c0-2-3-6-4-6v1l-2 2h-2l1-1v-2c-2-3-3-2-3 3 0 2-1 4-3 5-6 3-3 3 3 0 8-5 8-5 8-2 1 3-5 7-8 7s-5 3-5 8c0 6 2 8 7 6 4-1 4-1 3 2 0 2-1 3-3 4-3 0-5 3-5 9 0 2 0 3-2 3l-2 1 2 1c4-1 4 2 0 13l-3 11-1 2-1 2c0 2-2 9-6 17l-2 10 9-24a1082 1082 0 0112-33l5-18c6-21 8-30 8-41 0-10 1-12 2-8v65l-1-4-1-5c-1 0-4 6-4 11a3 3 0 01-2 5 2 2 0 010 3v2c2 1 2 2 1 3v1l1 2c1 3 0 14-1 15v2c1 1 1 2-3 6l-4 4h4l4-1-4 2c-5 3-6 4-3 6 2 1 3 1 2 3 0 2 0 2 2 2s2 0 2 6c-3 30-4 61-3 59l1-8 1-9v-1a30 30 0 014-22c0-2-2-1-2 1v-6l2-3 1-5 2-11c1-1 1 8-1 17l-1 14 1-3 3-7v4l1-104c0-60 0-108-1-107 0 4-2 3-3 0 0-4 0-5-1-3s-2 1-1-2c1-2 1-2 3-1h1c0-3-2-2-5 0l-4 2-3 1c0 2-2 3-2 2l-3-1-2-1a2 2 0 00-4-1h-11c-2 0-4 4-4 8l-1 2-1-1h-1c-3 1-3-4-1-7l2-2-2 1c-7 1-19 9-17 10l5 1 5 1v8l1 10v-7c0-9 0-11 3-8 1 1 3 2 4 1l1 1c-3 4-4 8-6 13-1 6-1 6-4 5-4 0-5-1-3-2l1-1-2 1c-5 6-9 1-11-13l-1-9v-3c-2-1 0-6 3-9 5-4 6-4 3 1-2 3-3 5-1 5l7-4 9-4c3 0 4-1 4-3s-1-2-2-1l-3-1c-3-2-7-2-8 0-3 2-2 2 2 1l4-1-2 2-7 1h-2l-3 2c-2 1-2 1 1-4 3-6 3-7-1-7l-44 14c-2 1-2 1-5-2-2-3-2-3-5-2-2 1-3 1-5-1a184 184 0 01-23-28c-2-2-3-3-4-11-1-10-2-12-12-15-11-4-17-2-28 7-3 3-8 5-10 6-4 1-16 10-20 14-1 1-3 2-5 1-6-1-11 4-14 15l-1 4-2-6-3-18c-5-34-5-44-2-52l6-13c10-20 10-21 13-20l3-1-3-1c-2 0-2 0-2-3l2-12c0-13 6-27 11-29l2-2 4-7 4-8 2-4v-1c-1-1-2-3-2-11 0-13 3-20 11-27l6-7c0-2 3-2 5 0 7 7 23-7 17-16l-8-2h-7l-4 4-5 5h-7c-6 0-8 0-10-2-6-4-9-2-11 8l-2 7-12 5c-3 1-3 1-2-1 0-4-2-4-3-1-1 5-9 6-9 1l-1-3-1 3-1 3-1-4c0-2-1-3-2-3-2 0-3 2-2 2 3 2 3 5 1 5s-3-1-3-2c0-2-2-4-3-4l-1 2c0 2-1 3-2 3-2 1-2 0-2-1l-1-3c-2-2-2-8 0-7 2 0 2 0 2-4s-2-7-2-4-3 4-4 2l-3-3c-2 0 16-17 20-19 3-1 8-6 7-6l-1 1M0 126c0 11 1 16 1 10a414 414 0 00-1-10m158-16l16 11-3-4-7-6-6-4h-3l3 3m77 0l-3 3c-5 2-14 17-13 21s3 4 4 0l3-4v-3l3-7 1-2c1-2 4-4 5-3l-2 2v2c2 0 3-1 5-5v-2c-2 1-2 1-1-2 0-4 0-4-2 0m-56 3c0 2 0 3-1 2l-2 1h-2c-4-3-3 0 2 4a20 20 0 015 8l3 5c2 5 3 1 1-6l-1-6-1-1v-1c1 0 0-4-3-7-1-1-1-1-1 1m82 11c0 8 1 10 2 9h2l3-1h2l2 1c0-1 0-2-2-2v-4c2-5 1-7-1-3-4 6-6 5-6-4l-1-5-1 9M55 134c0 6 1 7 3 6 5-3 5-4 1-8-3-3-4-3-4 2m279 21l-4 1-6 4-8 5-2 2-4 2-3 3 11-6 6-4 5-3 4-2 4-3-3 1m-324 1c-1 1 0 3 6 8 8 8 8 7 3-1-6-9-8-10-9-7m25 4c-1 6 0 9 4 11l3 3c0 2-2 1-4-1-2-1-2-1-2 1-1 5 0 6 1 6l3 1h-2c-4 0-4 2-1 6 4 6 5 6 6 1l2-4a39 39 0 00-7-24c0-3-2-3-3 0m-24 41l1 7-1 4 6-1c4 0 7-1 7-2l4-1c2-1 2-1-2-4l-16-6 1 3m10 12l-9 1H9l2 2a19 19 0 0015-1c2 0 4-2 2-2h-7m2 9l2 5 1 7c1 7 2 8 4 8 4-1 4-7 0-9l-1-1v-7l-1-3c1-2 1-2-3-2-3 0-3 0-2 2m21 11v17l1-7 1-5 2-5c0-5-2-5-4 0m20 3c-2 0-3 2 0 2 2 0 1 2-1 2v1c1 1 2 2 1 3l1 2 2-2 1-2 1 2c-2 3-2 3 0 4 1 0 3-4 2-6-1-1-2-2-3-1l-1-2c1-2-1-4-3-3m16 10c0 5 1 6 6 5 4 0 4-2-1-6-5-5-5-5-5 1m-26 36h-5c-4 1-7 6-3 7 1 1 2 1 1 2l1 1h1l4 1c5 0 6 0 3-3a10 10 0 01-4-4l-2-1 4-1c1-1 3-3 1-3l-1 1M0 322c0 15 1 20 1 13a34 34 0 011-15l-1-13-1 15m23-14c0 1 0 2 1 1h1c2 0-1 4-3 3-3-1 0 2 3 3s3 1 6-1c3-4 3-3-2-6-6-2-6-2-6 0m313 53l2 4c2 1 3 4 4 6l1 3v-3l1-6c0-1 0-2-2-3l-3-1-1-1-2 1m20 1l-1 1c-1 0-2 2-2 8s0 7 2 5l3-2 3-1h-3c-2 0-2 0-1-6v-6l-1 1m153 16c-2 9-2 14-1 14v1h-1l-1 2-1 4c-1 2-1 2 1 1l2-3 2-3c2-1 3-19 1-19-1 0-2 1-2 3m-72 1l-2 5-2 11v2c-3 6-2 7 6 8 9 0 10 0 6-7l-2-11c-1-6-2-7-3-5l-1 2 1-2c3-3 3-4 0-4l-3 1m-9 3a22 22 0 00-9 4c-2 0-1 2 1 2 2 1-1 4-3 4h-2c1 2 1 2 5 1 3-1 3 2-1 3l-3 3-1 2v-1l-2-1c-3 0-3 2 0 5 2 2 3 2 9 1 8 0 9-2 9-9v-7c1-2 1-3-1-3v-2c1-1 2-2 3-1l2-3-7 2m-109 3a105 105 0 00-5 20c0 2-3 3-5 1s-1 5 1 10c1 4 3 5 3 2l2-6 10-29c0-5-4-4-6 2m39 12l1 4 2 10 3 14 1-1 1-8 2-8v5l1 5v-13h-1c-1 1-2-1-2-2-2-4-8-8-8-6m147 6c-7 2-16 12-12 12l2 2 1 2 3-9 2-4c2-1 2-1 1 2v1l2-3 2-1-2 7c-4 7-4 9 0 8s8-9 8-14c0-6-1-6-7-3m-111 0l2 4 2 5c0 1-5 3-6 2l-2 3c-1 2-6 2-7-1l-2-1v2l-2 1 1 1 4 2c3 2 3 2 5 0l11-8c3 0 3-2-1-7l-5-3m-164 12c1 4 1 5-1 6l-8 9-9 10-8 11h1l2-1-1 2c-1 2-2 12-1 13l3-6c2-5 7-11 7-9a183 183 0 01-4 14l4-8a54 54 0 0110-15c-1-1 2-4 4-3l1-1c0-2 1-2 3-2s3 0 2 1l2 1 4-1c3 0 1-2-3-3l-3-1 3-1c2 0 3-1 3-2 0-2 0-2 3-2 2 1 3 0 4-1a9 9 0 00-7-11c-1-2-8-4-10-4l-1 4m-84-2l-3 1c-1-1-3 1-3 3 0 7 9 6 10-1 0-4-1-5-4-3m-38 4l1 2v10l-1 5-1 4c-2 3-2 3 0 3s3 0 2-2l1-4v-2c-2 1-2 1 0-4l3-3c8 3 9 2 9-1l-1-4-1-2c0-2-3-3-6-3v2l-2-1c-1-1-4-2-4 0m152 3l-3 10-2 3c-3 0-3 3 2 8 4 5 5 6 2 7l-4 1-4 1c-1-1-1-1 0 0s0 2-2 6a45 45 0 00-9 17c-1 1-1 1-1-1l-1-2a23 23 0 00-11 11l-3 7-2 1c-2 0-3 1-2 3s3 0 8-9c2-3 2-2 1 2v3l-2 5a32 32 0 00-3 10l1-1 4-2c2-2 2-2 0-1-3 0-2-3 4-12 4-7 6-9 5-4a64 64 0 00-3 20c-1 1 0 2 1 1 2 0 3-1 5-10 6-21 14-38 22-44 4-3 4-3-2-10s-4-14 4-18l4-2h-9m177 4c-3 3-3 3-2 6 2 3 6 4 5 1h-1l-1-1c-1-3 1-4 3-1 1 1 1 1 1-2v-4c1-2-3-2-5 1m-51 6l-2 3 4 2 4 4 1 2v-2l2 1c3 3 3 2 0-3-6-10-6-10-9-7m-118 11l-2 9v3c0 4-4 24-6 27v1l3-6 3-6 1-5c0-2 0-3 1-2 1 3 5-15 5-23 1-6 1-6-2-6s-3 0-3 8m115-3c-1 1 0 3 2 4l4 5c1 2 6 4 7 3l-3-4c-8-9-9-11-10-8m-303 2c0 2 2 3 12 5 8 2 10 3 10 4v4c0 2 0 2 1 0v-4l2-1c3 0 3 0 2-2l-3-2h-2l-2-1-2-1-7-1-9-2-2 1m38 7h-1l-5-1-2 1 4 4 5 4v-3l3-1 1-1c1-1 0-1-1-2l-3-2-1-1v2m38 6c1 2 1 2-1 2s-5 6-3 7l1-2c0-2 0-2 2-1s2 2 2 3c-1 2 0 3 1 3 2 1 2-7 1-13-1-3-3-3-3 1m-49 0l-2 7-1 4-1 2c0 3 2 3 9 0l4-2-3-1c-3 0-3 0-2-5 3-6 0-9-4-5m110 6c-1 4-3 7-4 7v2c1 3-2 10-5 10l-3 1 3 1h3c0 3-4 9-6 9-1-1-1 1 1 3 1 1 1 1 2-1 2-2 2-1 3 4l2 5 1-3v-9l2-5 3-7 1-4-3 5-2 3v-6a57 57 0 016-20l-4 5m55 0v4l-2 4-4 15-5 8a56 56 0 00-8 39c1 0 7-12 10-21l12-25 1-5 3-4 1-1c0-2-7 0-9 3-3 3-3 3 1-9l2-11-2 3m192 8l-3 8-9 19c-4 8-4 9-1 9 2 0 3-1 6-6l6-11a25 25 0 004-7c0 1 2 0 4-3 4-4 4-5 2-7l-1-3-2 4c-1 2-2 2-2 1 2-7 2-8 1-9-2-1-2 0-5 5m-314-3v3l-1 2-2 2 2 1h1l1 2 2 4c-1 1 0 2 1 1 1 0 2-5 0-6l-1-3c0-4-3-7-3-6m39 20a133 133 0 00-15 15l-13 20c0 2 1 1 4-3l3-4v-1l1-2c3-1 2 0 0 4l-6 12 2-3 4-7 3-4a23 23 0 015-10l2-2c2 0 1 3-5 11-6 9-8 16-3 11 2-3 2-3 2-1-2 3 0 2 4-4l18-20c3-1 2-4-1-3-4 0-4-1 0-4 3-2 4-7 2-6-1 1-2 0-1-1 0-3 0-3-6 2m139 7l-4 2h-2l-1 1c-2-1-4 3-6 9l-4 10c-4 7-5 11-4 11l2-2c1-1 2-2 3-1 1 0 2-1 5-7a720 720 0 017-14l3-6c3-6 4-8 1-3m80 26c-6 6-13 17-17 25-8 15-15 32-9 22l2-3v6c0 4 0 5 1 4 0-3 2-2 2 2v3l3-4c4-4 6-12 4-13l-1-4c0-3 0-3-1-2-1 2-1 2-1-2-1-7 12-30 23-38l1-2-7 6m30 7c-6 13-7 17-4 22 2 6 5 3 5-6 0-3 0-4 1-3 1 2 1 2 2 0l1-4 1-3 2-5 2-7c2-5-1-7-3-2l-2 2 1-3c2-3 2-4 1-4l-7 13m-93-5c0 2 0 2-2 0l2 5c2 6 3 8 5 7 2-2 1-12-2-11l-1-1-1-2c-1-1-1 0-1 2m125 8c-2 2-3 4-2 5l-3 5-4 6-2 1 1-2 1-2 1-1 1-1c0-2-3-1-5 3-3 7-1 10 3 4l9-9c6-6 7-7 6-8-1-2-1-2-3 0-2 1-2 1-1-1 3-4 1-4-2 0m-140 9a43 43 0 004 27l1-2 2-1c1 1 1 0 1-3l1-12c0-6 0-9-1-7h-1c0-3-7-5-7-2m-95 6l-3 2h4c8 0 19 9 18 14-1 1 0 2 1 2v3l1 2c-1 1 1 1 5-1l4-3-4 1c-3 2-3 2-3-1l-3-7v-4c1-1 1-1-1-3-6-6-12-7-19-5m143 32a20 20 0 00-1 17l4 11c5 8 5 8 1-1a10 10 0 01-1-11c0-2 0-2-1-1-1 5-3 1-3-6l2-9 1-6-2 6m-97-4l-12 20c1 2 5-3 10-12 4-8 5-10 2-8m-25 8l-8 10-7 7v18l1-1 2-4 5-10 11-21c0-2-2-1-4 1m-102 11l-6 5c-1 4 9 0 14-6 3-3 0-3-8 1M5 590c-2 4-3 4 2 4 4 0 5-1 3-5-2-3-4-2-5 1m341 3l1 5 2 7c1 3 2 3 4 3h4l-4 2c-7 4-9 7-6 10h1l1-2 1 3c0 2 2 3 2 1s5-6 6-5 1 0 1-3a25 25 0 00-4-14c0-5-7-11-9-7m-88 3c-2 1-3 2-2 3l-1 1c-1-1-5 2-5 3l-3 6a11 11 0 00-3 7l-2 1-2 4-3 5-2 3-1 2c0 3 1 2 6-4l8-10a21 21 0 004-8l9-15c0-1-2 0-3 2m74 7c-3 5-3 8 1 12a8 8 0 006 4h3c3-1 2-2 0-1l-3-1v-2c3 0 3-4 0-10-4-7-4-7-7-2m-95 7l-1 3-1-1c1-3-1-2-2 1-2 5-4 21-3 19 4-5 10-22 8-23-1-1-1 0-1 1m20 3l-4 3c-1-2-1-2-6 5-8 11-12 15-13 13h-2l-4 5-2 3 1-3 1-15c-2 1-5 25-3 27l3-1c2-2 5-3 5-1l-2 1c-3 1-6 5-3 5v2h1l4-5 2-5 5-8c5-11 8-14 4-6l-3 7-2 5-3 8-2 5-2 4h-1c1-3-2-4-4-2v5c2 6 2 6-1 1l-2-3v7c-1 7-2 7-3 0-2-7-1-25 0-33 2-9 2-11 0-6l-2 2v-2c-3 0-5 27-4 39v10l1 2c-1 1 1 1 14 1 14 0 15 0 15-2a75 75 0 014-24l3-14c2-10 3-14 1-10l-2 4a65 65 0 00-7 19l-6 21-1 4v-9l3-11a100 100 0 0110-25l4-8 3-9 2-6c2-6 1-6-2 0M7 616c-4 3-5 5-4 5l2 1h3c2 1 2 0 3-3 3-8 3-9-4-3m350 14c-3 6-3 7 2 11 3 2 3 3 3-7 0-9-1-10-5-4M1 643l1 12c1 1 2 0 1-1l1-4c1-1 1-1 1 1s0 3 6 3c7 1 11 2 6 2s-13 4-14 7l-1 6-1 9v5h10v-6c1-7 3-10 5-10l2-2c1-1 1-1 1 2v3l1-4c3-7 4-5 4 3l-1 7c2 0 13-8 13-9 1-2-2-4-8-7a7 7 0 01-5-4l-4-2c-6-6-8-8-10-8-1 1-2-1 0-1 2-1 1-3-1-6l-3-4c-3-5-4-3-4 8m301-9l-3 2c-2 1-2 2-2 11 0 7 0 9 1 6l3-12c3-9 3-10 1-7M83 651c-8 1-24 9-22 12l1 5c1 6 1 7 2 6 1 0 2-2 2-5l3-5v1l-1 7v6l4 2c6 4 21 4 21 1 0-2 1-3 3-3v1c-2 3-1 4 3 4s6-3 2-5c-1-1-1-1 1-1 1 0 2 1 2 3v3h28l-1-4-1-4 2-2c2-2 2-1 4 6l1 4h6c5 0 6 0 9-3l3-3-3-2c-4-4-12-9-14-9l-12-1-3-2c0-1-1-2-4-2-7-2-7-2-9 10l-1 7v-6l1-9c1-3 1-3-7-2l-8 3c-1 1-2 2-3 1l-1 1-2 1-3 1c0 1-1 1-1-1l-3-2c-4 2-4 2-3 0s2-2 3-1c2 0 2 0 1-1v-5l1-2 1 5c0 6 1 6 5 3 3-2 3-3 3-6v-5l1 3c0 3 0 3 3 2l8-6c-3-1-16-2-22-1m111 6c-3 2-5 8-5 9l4 2 7 2 3 2v-4c0-4-4-12-6-13l-3 2m57 6l-1 7-1 4c-1 3-1 6 1 6l1-2 1-6c3-6 3-10 1-10l-2 1m130 0l-6 3a2 2 0 01-3 2l-3 3-2 2 2-1h7v1h1c0-2 1-2 3-2l1-3 1-2c1 1 3-4 2-5l-3 2m-264 2c-3 4-5 11-3 11l1-2c0-3 2-5 3-3s3-4 2-7l-1-2-2 3m-70 5c-2 3-2 3-5 1-5-2-14 2-17 9l-2 3h12c13 0 13 0 13-5 0-2 0-2-2 0l-2 2 3-6 2-7c-1 0-2 1-2 3m120 3l-15 9 4 1c3 0 4 0 3-2h1c1 2 2 2 6 2 5 0 5-1 10-11 0-2-3-1-9 1m13-1l-3 5c-4 4-6 8-3 5l4-1c4 1 6-1 6-6 0-3 0-4-2-4s-3 0-2 1m83 8c-10 2-8 3 8 3 10 0 14 0 13-1-4-2-15-3-21-2" itemprop="regular" tabindex="-1" style="fill-opacity: 0.728; fill-rule: evenodd;"></path></symbol><symbol id="-posters-1650743024234-bold"><path d="M52 1l2 2c1 3 2 7 0 7v3l-1 4v5c0 4-2 4-5-2l-2-3v3l2 5c2 4 3 4 6 2 2-2 3-1 1 2l-1 3-1 3c-3 0-6-3-6-6-1-1-1 1-1 6v8l2-2 3-3 5-3c3-1 5-2 6-4l3-3c1 0 4 13 4 20 0 8 1 8 2 1l1-4v4c0 5-1 8-3 8-1 0-6 11-6 14l3 1c3 0 3 0 3-4l1-5c1-2 1-1 1 2l-1 6c0 2-1 2-4 2s-4 1-5 2v9c2 0 10-9 10-11l2-8 2-16 1-15a34 34 0 002-12c1 2 2 0 2-3l1-6 1-8 1-5h-6l-1 11c-1 9-2 11-2 8l-2-6c-3-3-1-10 1-7a3 3 0 10-2-6c-4 0-5 0-5 2h-2c-2-2-12-3-12-1m35 6c-3 11-3 21-1 20a90 90 0 0017-7l3-2 2-2c4-2 8-4 13-9a28 28 0 019-6l-21-1H88l-1 7m42-3l-4 4-7 5a33 33 0 01-10 5l-12 8-11 5-1 5-2 11-1 7 1 8-1 8h3l6-3 3-2 4-2c3-2 3-3 2-7l1-7 2-7v-2l3 2 3 3 5 4c4 4 5 5 7 3l4-3c6-2 9-6 9-13 1-9 4-17 9-22a8 8 0 003-6c1 1 3-2 4-5 1-4 0-4-2 0l-1 2h-1l-1-2V2c0 2-6 1-5 0 1-4-6-2-10 2m218-2c-1 2 0 2 2 2 4 0 4 2 0 2l-3 1 4 4a21 21 0 008 6h7l-1-1c-1 0-1-1 1-1 1-1 1-1-1-1l-4-3-3-2 1 2v3l-1-1-4-3-3-1 5-2a21 21 0 0117 2l3 1c1 1 2 5 0 5l-1 3-1 12-6-5-2-1c-2 0-3-1-2-2l-1-1c-2 0-1 3 2 4 1 1 2 1 1 2l2 3 2 3c-1 1-6-3-6-5l-2-3c-2-1-2-1-2 1l1 4h-4c-4-2-6-1-3 1v2l-1 2-3 7-1 3-2 4c-3 2-4 0-3-3v-3l-2 1-2 1-1 1-2 2-2 3-1 1-2-2v-3c0-4 1-5 2-5s3-2 3-4l3-4v-1l-2-1h-1c-1-1-1 0-1 1l-1 4-2 3c0 2-4 5-5 5v-3l2-1 1-2 2-4 2-2-2-1c-2-1-3-6-2-8l1-3c0-3 2-5 4-5l2-1-1-1v-1c0-2 0-2-3-2-4 0-4 0-4-2l1-3a1 1 0 100-2l-2 2-2 1s-2 1-2 3c-1 3-2 4-4 1h-1l1 2 1 2h-2l-1 2a35 35 0 01-6 17h-1l-2 2-2 6c-2 4-3 6-1 6h1l-1 1-3 4c-1 3-2 7-4 9l-2 8-1 2-1 4c0 4 0 4-2 3v1l-1 3-2 2-1 2-1 5-1 5-2 5-4 8-1 6-1 3-3 5-1 4 4-3c13-10 39-35 48-47l6-7c4-2 4-13 0-14-3-1-3-1 3-2 5 0 6 2 4 5-2 2-2 6 0 6l2-1 1-2 5-4 5-4 1-3-1-4V36c2-2 4-1 5 1h-1c-1-3-2 0-2 6 0 5 1 7 3 8 2 0 3-2 1-2l4-3c5-2 6-4 5-7-1-1 0-2 1-1 4 0 7-2 7-4v-2l2 2c1 2 1 2-1 4-1 2-1 2 2 3l4 3h-3l-4-1h-4l-2 1-9 7-14 11a46 46 0 01-10 8c0 1-5 7-7 7l-2 3-6 7a498 498 0 01-49 48l-4 2c-1 0-2 1-2 3l2 2 2-1 2-1v-1c-1-1 2-5 5-5 2 0 2 0 2 2v3l1-1 4-2c2 0 4-1 4-3l2-2 2-5 3-5 8-4 10-4c5-1 11-5 11-7l1-1 3-1h3l-3 2a6 6 0 00-5 6l-1 3c-1 4 2 3 5-2 5-7 12-11 20-14 3-1 2-1-3-3-3 0-3 0-1-1h4l5-1 10-2c7-1 8-3 2-5l-4-1 3 1c11 1 14 2 9 4-2 0-3 2-1 2 1 1 0 1-1 1-3 0-3 1-3 4l-3 1-3 2c1 2-2 3-4 1l-3 3c-3 4-3 4-1 3 2 0 2 0-1 3-5 5-5 5 1 6 4 0 5 0 5-2l1 1h1l3-4 1-3c-1 0-9 3-10 5l-1 1c-1-1 3-6 5-6 6-1 10-5 6-6v-1l4-2 7-4c5-1 6-2 3-6-3-3-4-5-1-3 1 2 3 3 3 1h8c-1-2 4-2 6 0l3 1h-3c-1-1-3 0-5 1-2 2-3 2-3 1a2 2 0 00-3-2l1 1c-1 1 0 3 2 4 3 2 3 3 0 4-2 1-3 0-4-1-3-2-6 1-3 4 1 2 1 2-1 2-3-1-3 0-4 1 0 2-2 3-2 3-2 1-2 3 0 3s1 1-2 3l-4 4c-1 3 0 4 1 2l4-1c2 0 3-1 3-3 0-6 4-11 9-11l3 1h-3c-2 0-3 1-3 2l-3 8-1 2 2-1h5c2-2 2 2 0 5-2 1-3 3-2 4 0 2 0 2-1 1s-2-1-3 1l-4 3-2 2 3 1c4 2 8 2 9 1 0-2 1-2 3-1h3l1-2 1 2c0 1 2 2 8 3h2v-1l6-1 5 1h2l3-1h4c1-1 0-7-1-7l-1-2-1-4-1-6c-1-4-3-5-6-3h4l-3 3c-3 3-9 6-11 6-3 0-4-3-2-4l5-6c3-3 6-5 4-2l1 1 2-3v-4l-1 1a1 1 0 01-2 0l1-2c0-3 6 1 6 4l4 4c2 2 3 3 3 5l1 6a629 629 0 018 25l3 7a10 10 0 005 6l2 1 1 4c0 3 0 4 2 4s2 0 0 1c-5 1-13-1-13-4h-1v3l-3-1v-4c2-1 2-1-1-3l-2-3 2-2 1-3v-2c1-3 0-8-1-8l-1 2-1 1-1-3c0-3 0-3-2-3l-3 1h-2l-8 1h-6l6 2c5 1 2 1-24 1-29 0-31 0-33 2l-4 2 3-6c2-1 0-2-2-1l-4 1-6 1-4 2-12 10c-10 10-10 11-2 6l12-7 10-4h1l-2 2c-12 7-13 9-5 9 3 0 5 1 3 2-2 2-1 5 2 6 3 2 4 3 2 5l-3-2c-2-1-2-1-2 1l-1 3-2 4-1 3v1c1 1 1 1-1 2l-3 2-1 1-2-1c0-2 0-2-3-1-4 2-11 9-12 13l-2 1c0-3-1-2-6 3l-5 4c-4 0-3 3 1 3l4 1h-3l-8 4-7 2-1 2c0 2 0 2 3 2 3-1 6 0 9 1l4 2-6 1-8 1a14 14 0 00-2 15h1l3-1c1 1 5 0 9-1l10-1 3-1 5-1c4 0 5 0 3 3 0 2 0 2-2 0h-2l-14 3c-1-1-2 1-1 1 2 1 1 5 0 5l-3-2c-3-2-3 0-1 3 1 2 2 2 5 1 4-2 4-2 5 0 0 2 1 2 3-1l11-5-2 2c-3 2-4 2-3 3 2 0 5 3 5 5l-3-2c-4-4-5-4-8 0-3 3-3 4 0 5 2 1 3 2 3 5l3 5c2 0 2 0 1 1-3 0-5-2-6-6l-2-4-3-3c0-3-2-4-2-2s-4 2-6 0-5-2-8-2c-7-1-7 1 0 2l6 1c1 1-1 1-4 1l-9 1c-3 1-3 1 6 1 8 0 10 0 9 1l2 1c4-1 3 1-1 3s-6 2-10 2c-13-2-14-2-16 1-2 4-3 6-1 4h3c0 2 1 2 6 2l-3 1-10 4c-2 2-1 3 1 2h4l5-1h32c5 2 14 2 16 1h3c1 2 11 3 14 1 2-1 6-1 6 1l-6 4c-5 2-5 2-12 1l-11-1-3-1c0-4-37-7-41-4-1 2 6 3 15 4l11 2h6l4 2 8 3 9 5c6 3 0 2-6-1a63 63 0 00-16-6c-6-2-25-5-38-5-3 0-4 0-4 3s0 3 13 4c13 2 18 2 20 4 2 1 2 1 3-1s1-2 1 1l1 5c1 4 0 4-8 1-4-2-5-2-6-1h-6l-6-1-6-3c-5-3-7-4-6-1l9 5c11 6 20 11 29 20 4 4 12 2 19-5 11-9 19-11 31-7 7 3 9 4 9 9 2 11 2 11 6 12 3 0 3 0 1 1h-3l-1 1c0 1 3 4 5 4l1 1v1c1 0 3 1 3 3l2 4-3-3-2-2 5 6 4 4c-2-2-1-3 1-2l2 4a15 15 0 0010 10l-1 1h-1 4c3 0 4 0 6 2 1 2 2 3 3 2l12-4 19-6 14-3c3 0 4-1 6-3l8-5c3-2 6-4 6-6 2-3 10-11 12-11l2-3c1-3 1-3 1-1 0 3 3 3 24-2 4-1 4-2 4-6v-14l-1-1v-6l1-3c0-3 0-4-2-3l-2-1 3-1 1-1h-4c-2 1-4 2-5 1-2-1 0-3 4-3 5-1 5-1 5-5 1-3 1-4-1-1h-2l2-3 1-25c0-28 0-27-2-26l-1-1c-1-1 2-3 3-3 1 1 1 0 1-2 0-3 0-4-2-3l-2-1 2-1a84 84 0 001-31 1475 1475 0 000-100v-9l-2-10-1-7h-3c-2 3-4 0-2-3l1-3h-1v-1c0-2 0-3-2-3l2-1h6c2 3 2 2 2-11V21l-4 1-10 4-8 3-1 1a1 1 0 101 2l3 1c1 1 3 1 6-1l4-1-3 2c-4 1-5 3-3 5 1 1 1 1-4 1a16 16 0 00-15 5c-3 0-12 7-11 9l-3 3c-3 2-4 4-1 3l1 1 1 1 1 1-2 1a6 6 0 00-4 5l1 1c0 2 5 3 6 1l3-1h4l3 1c7 2 3 12-4 9l1 2 3 2h-3c-7-1-7-4 0-6 3 0 4-1 4-3-1-3-1-4-2-1l-2 1-2 1-1 2v-1c0-2 0-2-1-1l-2 2c1 2-1 3-5 2-3 0-4-2-2-2a3 3 0 00-4-6c-2 1-2 1-1-2s1-3-1-3-2 0-1 1v1l-4 4c-3 6-5 6-2 0 1-5 1-6-3-6-2 0-3 0-3 2 1 1 0 2-2 3-3 1-4 2-3 3 0 2-3 3-5 1l-3-1c-3 1-3 1-3-1 1-2-1-3-2 0l-5 3-6 4c-2 2-5 3-5 2l1-2 3-3 2-5c2-1 2-1 0 0l-5 1h-2l4-2a42 42 0 0015-7c0-1 1-1 0 0l2 1 2-1 2-2h1a3 3 0 105 0c0-2 4-3 6-2l3 1h-3l-3 2c-1 3-1 3 2 2l6-1h2v-5c0-3 0-3 4-3h6v-1c-2 0-2 0-1-1v-2l-1 1-6 1c-3 0-4 0-3 1l-1 1-2-4c0-2-1-3-3-3l-5-1-3-2 2 2 2 3-3 2c-3 2-3 2-1 2 5 0 2 3-7 5l-15 4c-8 2-9 2-4-2l5-6 2-2c0 2 2 1 4-2l4-2-1 2c-2 3-1 4 2 2l5-1h1l2-1v-1l-3-1c-5 1-6-2-2-4 3-1 3-1-1-1l-7 2h-2c-2-2-12-3-22-1l-9-1c-4-1-4-2 5-1 8 0 13-1 13-4-1-1 0-2 1-3 2-1 2-1 2 1 0 3 0 3 4 2 8-4 13-11 10-15l-2-3c0-3-1-2-4 2-3 3-5 4-4 1 1-2 0-2-1-2l2-4c2-1 3-2 4-1 2 1 4 0 3-1l1-1 1 1 2 1 3 2 2 1c2 0 2 0 0-2l-4-2c-3 0-2-2 1-3l3 1 2 1c3-1 6 3 6 6-1 3 0 4 3 3s4-4 2-6l-1-3c1 0 4 2 4 4 1 2 1 2 4 1 5-2 5-3 2-3-4-1-4-6 0-6l4-2 3-2 4-1c3-1 20-2 22-1 2 2 4-1 3-3 0-1 0-2 2-2V0l-3 2c-2 2-24 5-24 2l3-1 4-1h2l5 1c6-2 4-3-6-3l-8 1c3 2-6 6-17 8-12 2-27 6-32 9l-15 3c-3 1-4 1-3-1 0-2 0-2-2-2l-2 2c-1 3-3 4-3 1 0-4-2-4-2 0v3l-1-3c-2-5-3-2-2 3l-1 6h-3c-3 1-2-6 0-9l2-4-2 2c-2 3-3 2-3-1 0-2 1-2 3-2 5 0 0-5-8-9-3-1-4-2-4-4 0-3 0-3-2-2h-3c0-2-4-1-3 1 0 3-5 5-7 2l-3-2-2-1-1 1m78 1c0 2 0 2 4 2h7l3 1-4 1-4 1h10l7-2 12-5a98 98 0 00-28 0c-2-2-7-1-7 2m73 0h-7v3l1 5h4c5 0 7 1 5 4-1 2 9 0 10-2V5l-1 1a4 4 0 01-5 2l2-1 2-2V4l2-1-2-1-11 1M215 7v1l3 3a42 42 0 0114 15c4 4 7 9 6 9l-3-2c-2-2-14-4-14-2l5 1h5l1 2 2 2c0 1 4 2 6 1h1l-1 1-1 1 2 1c2 0 8 4 8 6l1 1 5 2 4 3c2 0 5-28 3-30l-1-4c1-3 0-3-3-3h-4c-1-1-21-6-22-5l4 4 4 4 4 6 5 9-1-1-12-12a8 8 0 01-4-5c-1 1-3-1-5-3-4-5-5-5-10-6-3 0-4 0-2 1m57 3l-1 1-3 3c0 4-2 7-3 7v-2l-1-3c-1 0-1 3 1 8v8l-2 20c0 2 4 5 9 5 2 0 2 0 1 1l-5 1c-4-1-5 0-5 12a19 19 0 003 14l-1 1c-2-1-2 0-2 6s0 7 3 4c2-1 2-1 2 1v1c4-1 2 2-2 4a18 18 0 00-4 3c1-1 2 1 2 6 0 8 1 14 3 13a288 288 0 0020-46c1-1-3-3-5-3l-4-3-4-2-2-2c0-2 2-2 5-1 1 1 2 2 3 1v1c0 2 8 6 9 5 2-1 1-3-2-4-5 0-5-1 0-6 4-4 4-4 2-4s-3-1-3-2c-1-1 0-2 1-1v-5c2-1 3 0 4 4l3 2c2 1 2 0 1-1s-3-3-3-5c-1-3-2-3-4-2h-2l2-2c2-2 4-2 5 2 2 5 6 1 11-11 9-26 9-25 5-24-6 3-17 4-26 4a16 16 0 00-12 2c-1 0-1-1 1-1 1-2 1-2-1-2-3 0-3-2 1-6l1-3-1 1m190 1c-2 0-3 1-4 3-2 3-2 5 0 3 1-2 4-3 3-1h1c2 0 2-1 1-1l-1-2 6 1h4l-1-1-3-1-2-2-4 1m-347 8l-3 1-3 1-11 7c-7 4-9 5-4 5l2-1c-1-1 7-5 9-5l3-1 4-2 5-1 4-2c3-1 3-1 1-1l-4-1h-3m311 8c0 7-2 14-4 13l1-2c2-3 1-3-2-1l-2 4-2 1c-2-1-6 0-6 1l8 1c8 0 9-1 10-3l2-3 3-6-1 1v-1l2-1c4-1 3-2-2-5-7-4-7-4-7 1m25 4c0 2 0 2-1 1-2-1-11 2-11 5l-1 1h-3c-1 1 1 2 7 2 7 0 8 0 10-3 4-5 4-6 3-7-2-2-4-1-4 1m-279 6a11 11 0 00-3 6c0-1-5 5-5 7h3l1-2 2-3c1-1 2-3 1-4l1-2 2-1 1-3v-1l-3 3m7 1l-2 2-4 5-4 6c-1 1 8 9 13 12l2 2 3 4a13 13 0 014 6l1 3c1 2 1 2-1 0l-3-3-1-1c0-3-3-5-8-5h-5c0 2-4 1-6-1l-3-3-3-2h-3l-1 1c1 0 0 3-2 5l-2 3 7 3a20 20 0 019 4l1 2h-4l-1-1-1-1h-1c0 2-2 1-3-1-4-3-8-3-11 0-3 4-3 5 3 5a148 148 0 0141 14c2 0-4-4-8-6l-2-2c0-1-3-2-4-1l-2-1-1-1-1-1-1-2-2-1c-2-2 2-1 7 3l6 3 4 2a6 6 0 005 2c-1 1-1 1 2 3l4 6c2 4 3 5 5 5l5 2c4 4 6 4 6 1l4-6 4-4v7a13 13 0 002 9c0 2 8-5 9-8l1-2 1 2v2l1-2c0-1 0-2 1-1 1 0 1 3-1 7h1l2-3 2-3 4-1 6-4 5-2V87l-2-13-1-2c0-1 0-2 1-1l1-4 1-8c1-3 0-4-1-5-2-1-11-2-13-1-1 1-10-1-11-2s4-2 6-1c2 0 1-2-2-3-3-3-12-4-17-3h-3l3 1c2 1 2 1-2 1-6 1-9 3-5 4 2 0 3 2 1 2l-7-2c-6-3-6-3-4-4l5-1h2l-9-1-11-2a3 3 0 00-4 2l-1-2c1-1 0-2-3-4-4-2-4-2-4 0m274 1c-1 2 3 5 6 5l3 2c1 2 5 2 5-1h2c2 0 2 0 2-3 0-4 0-4-9-3h-9m-144 8l-2 3v1c1 1 0 5-1 5s-2 5-1 6v1c-2 0-1 2 1 2 2 1 4 0 3-2l2-2c3-1 3-3-1-3-2-1-2-2-2-3l2-4 1-4v-4l-2 4m66-1c-2 1-2 4 0 4l3 2c1 2 2 2 2 1l-2-4-1-2 10 12 5 6 2 2-2 2c-2 1-2 2-1 3s1 1-1 1l-3 1c-1 1 0 1 3 1s4 0 3-2l1-3c2-2 2-2 5 5l4 6c2 0 2-2-2-7-2-4-3-6 0-6v-3l-3-3c-1-2-2-2-3-2l2 4 2 3-3-2-2-2-10-13c-5-4-7-5-9-4m-156 7l5 1 3 1 2 1c2 0 2 0-1 3l-4 3-1 1c1 1 3 0 5-1l4-1-9 4c-1-1-2 0-3 1l-3 2-1 2h6l2-1 1-1 4-2 3-2c1 0 2-1 2-4l3-4c2-2-5-4-8-4h-7c-4-1-4-1-3 1m-66 9c-4 6-5 9-3 10 1 0 8-12 7-14 0-2-1-1-4 4m-15 6l-1 11c0 3 0 4 2 4 5 0 6-14 1-17l-2-2v4m59-2c-2 3-2 10-1 12s1 2 1-2c0-6 1-8 4-9a9 9 0 018 7v-2c-2-6-11-10-12-6m-93 10c1 1 0 3-2 4-3 3-4 4-4 2h-1c-2 1-1 2 2 3 2 2 3 2 5 1l6-3c5-2 5-2 2-6-2-3-3-3-4-2h-3c-1-1-1-1-1 1m-71 5c-3 3-3 4 1 7 2 3 5 3 4 0l-1-5c-1-5-1-6-4-2m181 5l-1 11c0 3 0 4-2 4a2 2 0 01-4-2c-1 2 1 4 4 4 3-1 4-1 4-3l1-1 3-4 2-5c4-5 5-5 7-4l9 1v-2h3l1-1c-1-1 0-1 1-1 2 0 2 1 2 5l10-1h-3l-4-1v-3c0-1 8-1 8 1h1c2-3 1-3-8-4-8 0-8 0-12 3l-4 4-2-2c-2-2-2-2-6-1-4 2-4 2-4 0s-2-4-4-4c-1 0-2 2-2 6M85 85l-2 3c1 1 0 2-1 3l-1 1c3 0 2 2 0 2l-2 2-3 4-3 2v-2c0-2 0-2-3 1a11 11 0 00-3 5l-2 2c-1 2-1 2 1 1l1 1 1 1 1-2c-1-1 0-2 1-2 2 0 10-8 10-9l2-1v-1l2-1 3-2c-1-1 0-1 1-1l2-1 2-4c4-4 4-6 0-2-2 1-2 1-3-1 0-3-1-3-4 1m29 0l-5 3c-4 2-5 5-2 4h9c10 1 10 1 5-4-3-4-5-5-7-3m29 3v4l6 4a314 314 0 0123 18c4 3 4 3 3 1 0-2 0-2 1-1 2 0 2 0 1-4-2-7-1-9 1-6l2 1 4 1c5 3 9 9 9 12 0 4 3 4 4 1 0-2 0-2 2 0l1 2h-1l-3 1c-2 0-3 2-3 3h2l3-2 3-2c4-4 4-4 4-1l1 4v1l-2 3-4 8-2 8-2 1v2c3 2 4 1 4-1-1-1-1-1 0 0l2 1v-1c-1 0-1-1 1-4l2-5h4c2-2 2-4 1-4-3-1 2-4 6-4a4 4 0 100-9c1-3-7-10-8-7h-1l-3-3-5-3-3-1-2-2c-1-2-11-8-14-8l-4-1-9-4-7-2c-2 0-2 0-1 1l12 4c12 5 15 6 9 6l-4-1-23-7a5 5 0 01-3-5l-4-1c-3-1-3-1-3 2m-92 4c-5 6-6 12-3 11h1l3 5c3 4 4 5 4 11 0 2 0 2 2-2v-5l-1-4c0-2 0-3-1-2l-1-1 1-1 1-6c0-4 1-5 2-4v-1l-1-3c-1-3-1-3-3-1h-1c1-3 0-2-3 3M2 90c-3 2-1 10 3 16a224 224 0 0111 19l4 7c2 2 3 4 1 4h1l1 4 3 3c2 1 6 8 6 11 0 4 1 4 3 4v-4l1-4c2-1 1-3 0-2-2 0-2 0-2-2l-1-4 1-1c1 1 2 0 3-1s1-1-2-1c-3 1-3 1-3-1l-1-4c-2-2-2-6 0-6l1-7v-5c2 0 3-2 1-3v-1l-1-1-2 1c0 2 0 2-1-1 0-3-2-6-2-3l-2 1c-2-1-5-5-4-8l-1-1-4-3c-2-3-2-2 2 5 3 5 4 6 2 6l-1-1c0-2-6-11-10-15-3-3-6-4-7-2m52 1a9 9 0 00-2 11l1 3c1 0 2-3 1-5-1-1-2-6 0-5l3-5-3 1m78 2l-1 6 1 5 2-5c4-7 4-8 1-9l-3 3m339-1v4c-1 1-1 1 2 1s5 1 3 3c-2 1-1 4 0 3l1 2c0 3 2 0 2-4l1-3 10-4-3-1-11-1h-5M23 93l12 14c15 15 15 16 12 18v8l2 14c0 9 3 24 4 28v5l-1 8v6l2-6c3-11 4-16 3-22l-1-15-1-11c-3-7-1-13 3-9 5 4 1-1-5-7l-8-10-2-3c0 2-7-5-13-12l-3-3-2-1-2-2m117 1c0 3-8 15-9 14v5l-5 8c-4 8-4 8-1 8a1 1 0 110 2c-2 0-5 3-5 5 0 3 1 2 6-1 6-4 16-6 26-4a76 76 0 0010 1c6 3 6 2 6-5-1-7 0-8 2-6h1l-2-2-8-6-10-6-4-3h4l5 2 3 1-5-4c-9-8-14-12-14-9m-30 1l-4 1v2a13 13 0 0014-2l-10-1m11 3c-3 4-2 5 0 2 3-4 3 1-1 6l-3 5-6 9-3 4-3 4c-3 3-7 12-5 13l4-2 6-4 2-1c0-1 1-2 3-2 3-1 5-4 12-21 4-9-2-21-6-13m299 3l7 4a75 75 0 0013 8l5 3 4 2 6 4c5 3 6 4 4 5l-1 4 2-1 2-3 6 2 13 6h2l-2-4c-2-2-4-4-6-4l-7-3-4-3-3-2-7-5-6-3-7-4-5-2a8 8 0 00-5-3c0-1-3-2-11-2l-4-1 4 2m52 2v3l-1 1c-2 2 2 14 5 13 0-1 2 0 3 2l2 1c0-2-4-8-6-8v-4l-1-3c0-6-2-9-2-5m-221 10c-7 7-8 8-8 11s0 3 1 1c2-5 4-4 4 3v5l1-3 2-2 1-3c0-2 0-2 1-1s1 1 2-1l2-2 2 4 2 2-1-4v-4c-2 0-3-2-1-4v-9l-8 7m-169-1l-6 2-1 1-2 2a4 4 0 00-2 5v-1l1-1 1 1c0 2 3 1 5-1 1-2 2-2 2-1l2 1c3 1 5 6 3 7-1 2 0 8 2 10v5l2-2 4-8c2-5 3-10 1-13l-2-6c-2-5-3-5-10-1m412-1c-3 3-3 3 0 7l3 2 1-3c1-6-1-9-4-6m10 2c0 2 1 7 3 7 1 0 3-8 2-9-1-2-4-1-5 2M1 124c0 11 0 11 3 15l2 4-2-3c-5-4-4 1 2 6l4 6c0 2-5 3-7 2s-3 0-1 2v1l-1 4c0 4 2 5 12 8 5 2 12 8 17 13l5 5-7-9-1-2-1-4c-2-5-3-5-2-1 1 3 1 3-8-5l-7-5-5-3h2c4 3 6 2 3 0l-2-2 3-2c3-1 3-2 1-4v-2l2 2 1 2 5 8c-1 1 0 1 0 0 3-1-2-20-8-31l-7-11-3-5v11m345-3l-1 6c-1 2 0 3 2 0h1l2-1c1-2 7-5 9-4l1-1c0-2-4-3-9-3s-5 0-5 3m42 1l-1 1c-2 0-3 1-3 4-1 2 0 3 2 3l5-1c3 0 3-7-1-8l-2 1m-171 16c0 2 0 2-2 2-3-1-3 0-4 4l-1 7c-1 2 2 4 4 2l1-1v-1l-2-3v-2l2 2 2 1c2 0 3 3 1 3v1c3 0 4-6 2-11l-1-3-2-3v2m-154 0c0 2 4 6 5 6a5 5 0 012 7c2-1 2-1 4 2 3 4 3 5-1 5h-2l1 1v1l-1 2-1 3-2 4-1 3h-1c-2 0-3-2-1-2s2-4 0-6-2-2-2 0c2 3 2 6 1 4-1-1-1-1-2 2-2 3-2 3 1 3a2 2 0 013 4l1-2c2 0 3 2 4 9 0 7-2 9-3 3-1-9-2-7-3 4-1 5 0 6 1 6 2 0 2 0 2 2l-1 3h-3l1-2v-2c-1 0-2-2-1-4a21 21 0 00-4-13l1 4v4c-2 0-2 3-3 7 0 5 0 6 1 5h1l1 2c1 3-4 3-6 1l-6-2a17 17 0 01-12-4l-3-1c0-2-3-4-4-4v-1l-1-1-2 1-1 1-2-1 1-1 1-1c-1 0-4 1-3 2 0 1-3 2-5 1h-3c0 2-3 2-4 0H8c-3 2 0 3 16 10 9 3 9 3 5 5l-3 2 3-1 15 1c1 1 1 1-1 1H32c1 2 11 2 14 1h3l-2 1v1c2 3-7 5-18 2l-5 1c-3 0 10 5 18 6 5 0 8 1 8 3l-5-1-5-1c-5 0-7 1-3 4l1 3 2 3 1 2h1v-3c-2-1-2-5-1-5l1 2c-1 3 1 3 2 0 2-3 7-2 7 2 0 3 0 3 1 2l2-1 3 2v-1c-1-1-1-1 1-1 2-1 3 0 3 2l1 1c2 0 5-3 4-4l1 1 1 2c0 1 1 4 2 3 1 0 2 1 1 3 0 2 0 2 2 2 1-1 2-1 2 1l-2 1c-1-1-2 0-2 1 0 3-4 3-7 0-3-2-4-2-5-1h-2l-7-3 1 1v1l1 4h2c0-2 0-2 2 0h2c1-3 11 2 15 7l3 3c1-1 0-2-1-4-2-2-3-6 0-6l1 1 1 2 3 3h-1l-2-1c-1 1 2 3 3 2l3 4c2 3 6 4 5 1l-2-4-2-2c-2 1-5-4-6-8l-1-4c-2-1-7-9-7-11 0-1 2 0 2 2 2 4 8 8 8 5l-1-1c-2 0-2-1-2-3 0-3 0-3 2-2l1 2 4 3c3 1 4 2 4 5 1 4 2 5 3 3v-2c-1-1 0-2 3 0 2 0 2 2 1 2l-2 2 1 1h2c-1 1 7 5 8 5l-3-4a4 4 0 01-1-6c0-2 2-3 4-2l1-1c-1-1 0-2 1-2v-1h-1l-1-1-1-1v-4l-1-5c-2-2 1-3 4-2s10 0 8-1h-2c-1 1-1 0-1-1l1-3 1-2c-2-1-2-3-1-2l1-1c-1-2-1-2 1-1 3 1 9 8 9 9l2 1c3 1 4 5 2 9-1 2-1 2-2 0l-2-3-1-4-1-2v4l-1 3c-3 0-3 2-1 4l2 5 1 3-3-4-3-4-2-2c-2-1-2 4 1 7l2 4 1 4v1l3 4 3 2 1 1c1 0 4 2 7 6l7 5v-9l1-10 1 10c0 13 1 14 7 9 4-4 5-3 2 0-2 3-3 5-1 6 3 1 4 7 3 14l-1 1v-5c0-5-2-9-6-11-10-4-22-5-20-1l-1 1-2 2c-1 2-1 2-3 1-3-1-3-3 0-3l2-2c-2-1-9 3-11 7-1 2-2 3-3 2l-2 1 2 1c3 0-1 3-5 3-7 2-15 5-15 7l-4 2c-3 1-4 1-3 2 3 1-1 2-5 1-6-1-9 1-7 5v4l-1-2a11 11 0 00-9-7l-4-1-9-1-7-2-2-5-4-6c-4-1-2-3 4-2l2-1 4-3 3-2-2-1c-4-3-10-4-11-2l-2 2-1-9c0-6 0-9 1-8a2 2 0 101-4c-2-1-3-2-3-4v-4l-2-5a28 28 0 00-5-14l-1-1c-1 0-5 8-5 11l-1 6-2 5c-1 2-1 2-1-2l1-7c2-4-3-14-7-14l-1-3c0-1 1-2 3-2 2-1 2-1-2-1H1v5l4 12c4 9 4 12 0 12s-4 0-4 3c0 2 0 3 1 2 0-2 1-2 4-2 4 1 4 1 5 8 0 6 0 6-2 7l-1 1-1 1H4c-2 1-2 1 1 2h7c2 0 2 0 1 1v2l1 1h-1c-2-1-6-1-5 1h1c2-1 5 1 6 4 2 6 7 13 8 12l-1-3c-1-2 1-4 3-3v-1l-2-1c-1 3-2 1-1-2v-4c-2 0-2-1-1-2v-22c-1-5 1-6 4-4v2l-1 1v1a4 4 0 000 4l1 9a205 205 0 000 13l1 4c2 1 2 1 0 3l-2 5v1l-1 3-1 3c-5 1-5 1-3 2v2l-3-1-4-2c-3 1-4 2 0 2l4 2 3 1c2 0 2 1 2 3l6 4a6 6 0 015 8l-3 2h3l5 1c1 2 1 2-1 1-2 0-3 1-1 3v2l-1 2v1c-2 0-4-3-4-6l-1-2-1 2c0 4-1 4-4 3-2-2-2-2-4 3-1 5-5 8-6 6l2-5c2-3 3-5 1-3l-3 1-3 2c-2 2-3 2-4-1H4c-2 0-2 0 1 2 2 0 3 2 3 2 0 2-6 5-7 4l-1 1 3 1 12 2 10 1c9 1 17 3 14 5v1l2 1-16 1-20 1-4 1-1 9 1 9v1c-3 3-1 7 3 7l3-1 2-1 3-1c1-1 18 0 18 1l-5 1c-11 2-14 3-12 6v2l-3 2H5l-1-1v-2c1-2 1-2-1-1-4 2-4 7 0 8 3 0 3 1 0 5-3 2-3 4-3 11 0 8 1 10 3 5l2-3 7-11c0-2 2-3 3-4l1-2c0-2 4-7 5-7v2a15 15 0 00-5 9c-1-1-5 6-5 9l-2 3c-3 3-5 7-4 8 0 2 0 2-1 1-3 0-4 4-4 14 0 7 1 13 3 13l1 2-2 1c-2 0-2 1-2 16l1 16c16-7 20-7 19 0-1 3 0 4 2 2h1l1 1c0-1-3-7-6-10-1-2-2-3-1-4h-1l-1-1v-1l-3-3-2-4-2-4c0-3 2-2 5 3l4 6c1 1 2 2 1 3l1 2 8 10c7 9 8 10 6 11l-3 1-1 1-1 1v-4c-3 0-5 3-3 4s-3 3-11 4c-6 2-8 1-8-2s-3-11-5-11c-1-1-2 15 0 16 1 0 1 3-1 7 0 2 0 2 2 2s3 0 3 3l-1 4c-2 1-2 8 0 7 3 0 6-1 6-3l2-1a11 11 0 006-5v-1l-1-2v-3c0-2 0-2-1-1l-1 3c0 1-6 5-7 4s1-7 2-8l1 2c-1 4 1 4 2 1 0-4 5-5 11-5h3c-2-1-1-1 5-2 7-2 12-2 9-1l-5 3a7 7 0 01-5 2l-3 4-8 7c-3 3-3 3-4 2s-1-1-1 1c1 2-4 8-6 8l-3 4c-1 4-3 5-5 3l-1 14c0 17 0 16 8 16 2 0 3 0 2-1-4-1-5-2-1-2h4c2 2 3 2 8 2l7 2 8 2a27 27 0 0111 2l9 1h5l3 2 1 1h2c0 3 2 2 2 0 1-4 4 0 3 5 0 2 0 3 1 2l4 1c3 1 3 1 5-1s8-4 12-4 4-2 0-5l-2-4 2 1 2 1c1-1 1 0 2 1 1 4 2 4 5 1l5-3 8-2c8-3 22-5 29-5h7v-9l2-12 3-10c2-7 5-13 9-20 3-5 3-5 2-7-2-1 0-6 2-6v-2c0-2 6-4 8-1 1 1 1 1 3-1a3 3 0 002-4l6-4 5-5v-7l-1-7-2-1v-1c2 1 2 0 0-2v-2c1 0 2 1 2 3 2 2 3 3 3 0l5-7 3-6-3-4-6-7c-2-3-3-6-1-4 3 3 4-1 1-6l-2-2h-1l-3-2-3-2h1l2 1c4 0-13-16-21-20-9-4-10-5-9-6l2-10 1-9 10-5 11-5 8 1c11 0 12 1 11 7v8l-1 4-1 2c0 2 1 3 3 1 1-2 2-1 2 1l1 4 1 2v2l1 2h1c1-2 1-2 1 0l-1 3h-1l1 1-1 7c-2 1-2 7-1 7l1 4c0 5 1 1 3-11 1-11 4-19 3-8l-3 27c2 2 15-31 15-41l1-2 1-2c0-5 1-5 6-3 4 2 7 3 5 1v-4l3 7 3 9c2 3 1-5-1-9l-2-5-1-5c-2-4-2-4-2-1 0 5-4 5-14 1a217 217 0 00-24-11h-6c-3 0-7-3-6-6a371 371 0 0122-43c1-4 3-4 15-2 7 2 10 3 15 7 4 3 4 2 2-6-1-5-2-7-4-7-2-1-6-5-5-6l-3-2c-3 0-4-2-4-5l-1-2c-1 0-2 1-1 2h-1a3 3 0 116-4c5 6 11 4 9-2-1-3-3-3-9-3l-1-1c0-2 5-6 6-6v-1h-2c-3 2-3 1-2-1s2-4 1-5c0-3-1-4-2-1-2 2-3-2-3-6 1-1 0-4-1-6l-2-3v2c0 3-2 4-5 1-3-2-3-3 1-4h4l-4-7-3-8-2-4c-2-4-3-4-9 0l-4 2-2 1a32 32 0 01-15 7c1 0 0 2-2 2-3 3-7 9-7 13 0 2 0 3-2 3l-4 2c-3 3-6 4-11 4h-3v9l-2-8-1-4h5c4 0 4 0 4-2l1-2 1 2c0 3 1 3 5-1s4-5 3-9c-1-3-5-4-5-2h-2c-2 0-9 6-10 8v3l-1 1-1-2v-2l-1-1 1-2 9-7c5-4 11-9 14-9 2-1 3-3 1-3-2-1-10 3-15 7l-3 1v-1c2 0 8-9 8-11l-3-3-3-2-4 4-8 6c-7 7-3 0 5-9 2-3 3-4 1-4-1 0-9 9-11 13l-3 3c-2 0-1-1 1-4a18 18 0 005-14c1-3 1-3-1 1l-2 5c0 2-5 8-5 8l-3-5c-2-10-12-25-15-23l-1-1c1-2-1-4-3-3l-2-1c-1-1 0-1 0 0 3 1 2-3-1-5l-9-7-3-3 3 1c3 2 4 2 4 1l-5-3-8-5c-2-2-7-1-5 1h1l1-1v3c-1 2-5 6-6 5-2-1-5 0-5 2l-1 1c-2 0-5 5-5 8 0 2 0 2-2 1a13 13 0 011-15l1-2 1 2 4-3 3-5 2-4-5-5c-4-4-5-5-7-4-3 1-3 1-3-1l2-3c1 0 2-1 2-3l2-2c1 0 7-6 6-7h-1c-2 2-2 2-11-10-6-7-8-9-8-7m258 2a1 1 0 11-1 0l-1-1c-3 2-5 4-4 5l-1 1h-2l-2 6c-4 7-4 7 2 1 3-3 7-7 10-8 5-4 5-5 2-5-2-1-3 0-3 1M42 153a49 49 0 005 25c-1 0-1 1 0 0l1 1-1 2v1l1 1 1 2c1 1 1-2-1-8l-1-8c0-6-3-20-4-23-1-1-1 1-1 7m287 10c1 1-2 5-9 10l-4 3 2-1 5-1 6-3h6v-1c-2 0-5-4-4-6v-2c-2-2-3-1-2 1m-11 4c-7 4-8 5-5 5h1l-5 3c-2 0-3 2-1 2s16-10 16-11c1-3 1-3-6 1m41 3c-3 4-3 4-5 2-6-5-8-5-4 1 2 5 2 9 0 9-2 1-2 1-1 3l1 3c1 2 1 2 4-1s3-3 2-7-1-4 2-5c1-1 2-1 1-2l3-4 2-2-5 3m-32 5l-3 1-2 1-2 1-5 3c-5 4-10 5-6 1l2-2h-2l-3 3-4 8-3 6v1c-2 2 6 2 10-1l3-1 3-4c3-5 10-12 15-15l3-2c-1-2-5-2-6 0m49 0c-14 8-17 10-18 12-4 4 0 3 6-2l4-2 6-3 6-2-2 2-5 3c-2 1-4 2-5 1l-2 2-1 3 5-3 10-5c3-2 4-3 4-5 0-4-2-4-8-1M1 177v4c0 3 1 4 5 4h7c4 0 9-2 9-3l-6-3-10-2c-3-2-4-2-5 0m470 3l1 11c1 3 3 3 3-1l2-3c1 0 1-2-1-2l-1-1c1-4-2-7-4-4m-82 2c-1 1 1 2 2 2h1l1 1-1 2c-1 2-2 3-4 3l-2 1 2 1c3 2 3 2 4 1s2-2 4-1c3 0 5-2 2-3-2-1-2-2 0-4l1-3h-10m-367 2c-2 1 0 3 3 3l3 1 4 1h4l-4-3c-6-4-7-4-10-2m458 0v2l-1 1-1 4-2 8c-1 4-1 4 1 4h2c1 1 2 2 5 2 2 0 3 0 2-1h-2c-4 0-4-1-2-7l3-6h-6l3-1c2 0 2-1 2-3 0-3-3-5-4-3m-33 5c-3 3-3 4 2 8l5 5 2 1c1 0 2 1 1 2l1 1 2 1 2-1c2-3 1-5-2-5-2 0-2 0-2-2 1-2-2-5-5-5-2 0-3-1-2-3 2-3-2-5-4-2m-32 4l2 1 1 2 2 2 1 1 2 1c4 0 4-3 1-4l-2-1-1-2h-6m-24 2c-3 1-3 1-1 1 4 0 5 1 3 3s-2 2 0 2a12 12 0 0010-6c3-2 1-2-2-1l-5 2c-2 0-1-2 1-2 2-1 2-1 0-1l-6 2m51 1a4 4 0 001 2c-3-2-4 1-1 6l1 3c1 2 5 5 5 3l-1-1v-1c1-2 1-2-1-1-1 0-2 0-2-2 0-1 1-2 2-1l2-1c-1-2-1-2 2 0s4 1 1-1c-4-5-9-8-9-6m-80 1v1l-2 2-2 3 1 1c1-1 1 0 1 2 0 4 1 4 3 0l3-5 1-2 1-1c4 0 2-2-2-2l-4 1m136 1l9 7 2 2h1c1-3 0-5-2-5v-1l-1-1c-1 1-3 0-4-1-2-2-5-3-5-1m-399 6c0 3 1 4 2 3h1l1 1h3v1l-8 2h9c4 0 4-2-1-6-2-3-3-3-4-2h-1l-1-2-1 3m296 1c-7 3-21 13-18 13l5-3 10-5c12-6 15-10 3-5m-306 1c-3 1-1 6 1 7l1 1-5-1-13-3a87 87 0 01-15-2l1 2 1 1 1 2c0 2 0 3 3 3h4l3-1 2-2 2-1 7 2 9 2c3 0 4 0 4-3l-1-4v-1l-3-4-2 2m15 9l-3 4-3 3h9c1-1 1-1-1-1-3 0-2-2 1-2l3-1-2-1v-1l-2-1h-2m-28 2c-4 1-4 2-1 3l10 2c8 1 10 1 9-1s-2-2-6-2l-6-1c0-2-2-2-6-1m62 7c-2 7 0 16 3 10l2-3c2-2 2-3 1-4l-1-3c1-2 0-3-1-4-3-1-3-1-4 4m-91 26a7 7 0 001 10c0 2-3 3-3 0-1-1-1-1-1 1 0 1 1 2 3 2 2 1 3-1 2-4l2-1h2l-2-2-2-4c-1-3 0-3-2-2m47 2l-3 1c-2-1-3 0 0 6 1 3 2 4 4 4l2 2h-1l-19-4a33 33 0 00-24 9c-9 4-13 7-13 10 0 2 3 3 6 0l15-2c10 0 14-1 16-2l8-3 8-2 10-1 7 1-5-2-4-3v-4c0-4 2-4 6 0 5 3 9 4 9 1a5 5 0 00-5-4l-2-1a4 4 0 01-4-4c0 1-2 1-6-1l-5-1m112 11c-3 1-5 3-5 4l-2 1c-3 0 2 2 6 2l3 1c1 1 1 1-6 2-7 0-9 2-3 2 7 0 16-4 13-5-2-1-2-2-2-3l2-4c0-2 0-2-6 0m95 3c-3 2-4 2-4 1h-1c1 2 0 2-4 2l-4 1 8 1 7-1-1-1v-1c1-2 3 0 2 2l2 1c1 0 2-1 1-3 0-4-1-4-6-2m-207 7c0 1-3 2-7 2a18 18 0 00-11 4c-4 3-4 3 2 3 5-1 6 2 3 4v1l3-3c1-2 9-4 10-2s7 0 9-4a2 2 0 014-3c0-3-12-5-13-2m88 0c-7 6-15 25-12 29v8l1-3c1-4 6-9 10-10l4-2-3 1-2-1 1-3h2l1-1 1-2 1-2 2-3-1-1h-1l1-1 1-2v-3c3-4-2-7-6-4m-15 7l-2 7-1 6v3c1 2 1 2-1 3-4 1-8 4-7 5l10-5 1-3 2-6 2-7v-3c1-1-1-2-4 0m50 3l-3 2-2 2-1 2c-1 1 0 1 1 2l3 2 5-1c1-2 1-2-1-2h-3c-1-2 2-4 5-4l2-2c1-4-3-4-6-1m-24 1c-1 3 4 11 7 10h1c-1 1 0 2 1 1l1 1v1l1 1c-1 1 0 1 2 1 3 0 5 0 7 2 1 2 2 2 2 1s-3-5-7-8c-8-8-8-8-5-8 1-1 0-1-1-1h-3c1-2-5-2-6-1m291 2v1l1 3 1 2 1-1h1c1 1 1 1 4-1l4-3-4-1h-8m-294 11l-2 2-3 4c-2 3-3 4-3 10-1 9-4 19-6 22-2 1-2 2 1 8l3 9 2 2 1 3h2l2-4 1-1 11-23 1-1c1 1 8-12 8-14 0-1-7-1-8 1v4h-2c0-1-4 2-4 4l-1 1-4 2c-3 3-4 2-2-2 3-5 3-7 2-7-2 0-2-1-2-3 0-3 1-4 7-5a28 28 0 0010-6l2-1-4 2c-5 2-8 3-6 0 2-7 0-9-6-7m75 5l2 5v13c1 7 4 12 9 14l2 2c0 2 1 2 6 1l5-1c1 1 2 0 4-1l6-6 6-4-7-7v2l-1-2-1-2-3-2-3-2-4-2-3-3-5-2a8 8 0 00-6-2v-1l-3-2c-3-2-4-1-4 2m149-2c-10 0-7 2 6 2l26 2-1 1c-1 1 3 2 8 2l4 1c1 2 7 4 7 2l-3-1-4-3-1-1h-5c-3-5-14-7-37-5m-195 3c-1 2-1 3 3 6 5 6 9 8 7 4v-4l-4-4-4-2h-2M1 309v6l3-2 3-3 6 3a15 15 0 017 6v-1l1-2c2 0 1-2-1-2l-3-1-3-2-10-7-1-1c-2 0-2 1-2 6m30-2l9 7c7 4 10 7 7 6-2-1-4 1-4 3l5 1c3 0 4 0 4 2l-2 3 1 1 1-3 1-1 4-3c3-3 7-5 11-5l5-2c3-1 1-2-2 0l-9 1c-6 0-7 0-7-2 0-1 0-2 1-1l2-1h5l7-2c6-1 8-3 5-5-2-1-5 0-7 2-1 1-25 2-30 1l-6-3c-3-3-5-2-1 1m373 3l-5 3c0 3-1 3-3 2-2-2-5-1-6 2l5 1c4-1 5-1 7 1s3 2 9-1c3-2 6-7 4-8h-11m-245 3l-4 2h-6l-4 1a17 17 0 01-10 6c2 0 1 2-2 2-2 0-2 0-2-2 1-1 0-1-1-1-2 0-3 2-1 2 1 1 0 1-1 1-4 0-4 2 0 3 3 1 4 1 6-1 4-3 10-4 13-3 3 2 4 0 2-2-2-1-2-1 0-1l3-1 2-1 7-6-2 1m-59 5c-8 5-9 5-10 2l-2-2 1 3v6l-1 1c-1-1-3 0-5 2-3 3-5 3-8 3-6-1-9-2-10-4-1-1-3-1-6 1-2 2-2 3 4 3 4 1 7 2 3 2v1c1 0 0 2-6 5-4 2-4 2-5 0-1-4-4-2-4 4 0 2 0 2 2 2 2-1 1 0-1 2-2 1-18 1-20-1l-1 1c-1 1 0 1 2 1l4 1H21l7 1c5 1 10 2 6 2-3 0-6 2-6 4l-9-1c-7-2-19-2-18 0l12 2 5 1 6 2 6 2 3 2 2-3c4-7 18-6 15 1-2 5 0 5 4 1 3-4 2-8-1-5l-1-1c0-2 2-2 5-1 2 1 2 1 16-9 12-8 13-9 1-3-5 3-8 5-9 4h-3c-4 3-6 1-6-4-1-1 9-7 12-8l2-2 1-1h13c11-1 20-2 20-4h-2l-15 2 2-3 2-4h4l9-6h-1c-2 2-3 1-1-1 2-4 1-4-2-1m60 4c0 5 0 6-4 4-3-2-4-2-4-1l4 3 4 2v10c1 10 1 10-2 15l-5 8-3 3-1 1-2 5c-2 4-3 4-8 4l-5-1-4-2c-4 0-13-5-18-10l-3-1c-1 1 0 4 2 6l1 1-3-1c-4-4-6-4-2 0l4 6 3 2 2 1c-1 1 2 7 3 7l1 2 1 1c1 0 2 4 1 6l-2 5-3 3-2 2c-1 2 2 3 4 2h1v1l1-3v-1a3 3 0 010 5l3-1c2-1 3-4 1-3s-2 0-2-1c0-4 0-6 3-11l2-7c-1 1-1 0 0 0l1-2c-2 0-16-10-16-12l4 2c3 2 3 2 3 0l1 1c4 4 8 6 10 5 3-1 13-1 13 1h2l1-3 3-6 7-10 5-6 1-3 2-4 2-6c0-2 0-2-1 0l-3 5c-2-1-1-9 0-10s1-1-1-2l-1-2c1-2 2-2 5 1l5 3c1-1-1-4-4-5l-3-2-1-1c-2 0-2-1-2-5l-1-6v5m-87-2l-5 3-3 3h11l10-1-3-1-1-1-2-1-2-1-2-2-3 1m224 3l-10 2c-14 2-15 2-14 4h1l2-1h6l9-2c6 0 9-1 9-3h-3M45 337c-1 8-1 10 2 11 1 0 2 0 2-2l1-8c0-6 0-6-2-6-3 0-3 0-3 5m25 4c-9 8-6 9 4 1 7-5 7-5 3-5-2 0-4 1-7 4m-68 3l-2 2 8 1 7-2h15c5 0 6 0 5-1H2m172 1l-1 2-5 5c-2 3-4 5-5 4l-1 1-2 3c-3 3-8 15-7 16h2l2-1 4-1 7-2 1-1 3-3c5-3 7-5 7-8 0-4-4-16-5-16v1m39 4l-6 13c-2 3-2 6 0 6l14 4c1 1 2 1 2-1 1-1 1-1 1 1l1 3h3l-1-4c0-4-2-6-3-3-1 1-1 0-1-2 0-4-7-20-8-20l-2 3m249 3c-4 5-4 5 2 5 4 0 5-1 3-6 0-3-1-3-5 1m-416 9l-1 5-1 5v2l2-2c0-2 3-3 3-1l-1 1c-1 0-3 6-2 7s7 1 7-1l-1-1-1-2 2 1c2 1 2 2 1 5 0 4-2 5-4 2l-2-1 1 3c4 2 2 4-4 3-4 0-5 0-5 2l4 1c5 0 5 0 4 3l1 3v-2l2-1 7-2 4-2-2-2-1-2h2l-1-1v-15c1-2 1-7-1-7l-5 4c-3 3-8 4-7 0l1-4c1-2 0-3-2-1m37 15l-19 12c0 3 16-2 18-5l2-1 3-3c1-4 1-4-4-3m163 0c-2 0-2 0 0 3l1 4 2 3 1 3 1 6c3 4 6 2 5-4-2-14-4-17-10-15m-90 4l-4 1v8c1 12 2 11 4-2l3-4c3-2 1-4-3-3m-54 2l-2 3-2 3-2 2-1 2c-1 1-1 1 2 2l4 3c0 1 4 3 5 2l1 1v1h-2c-4 0-4 0-2 2l2 5c0 5 1 7 4 5h3l2-1 3-2c4-2 3-2-2-2l-5-2c-1-1-1-1 1-1l3-1c0-2-1-2-2-1-2 0-2 0-1-1 2-1 2-2 2-3-1-1 0-2 1-2 3-1 1-3-3-3-7 0-8 0-7-2 0-2 2-3 3-1l4 1 4 1h1l-1-2-1-3-2-3-4-4c0-2-2 0-2 3v2a2 2 0 11-1 2l-1 1c-1 3-3 4-3 2l2-5c1-5 1-7-1-4m32 8l2 3v2l-1-1-2-1c-1 0-1 1 1 2l7 1c5 0 6-2 2-2l-5-3c-3-4-4-4-4-1m217 2c-3 5-3 19 0 17v2l-3 3c-5 1-5 6 1 6 5 0 6-1 5-4-2-7-2-19 0-19v-1l-1-4c1-4 1-4-2 0m-299 5c-1 2-2 2-4 1l-3 1h-2l-3 1 1 1 5 2c10 4 17 6 22 4 7-1 8-2 8-4l2-1 1-1c0-2-4-1-5 1a13 13 0 01-15 2v-3h1v1c0 2 3 2 5 1h2a2 2 0 01-1 2c2-1 4-4 3-5l-3 1c-2 2-3 2-3 1-1-1 0-1 1-1v-1l-5-1h-6c-2-1 4-2 14-2h9c-1-2-23-2-24 0m-28 2l3 6 3 6c1 5 1 5 3 4h3l3 4 4 6c2 4 4 5 4 3l-1-3-2-4c0-5 3-3 4 2a4 4 0 003 4l-1 1v4l1 11-1 10-1-3v-7l-1 2a13 13 0 004 14c-1 1 0 2 2 2 3 0 6-3 3-3-4 0-1-4 3-6l3-3 2-2c3-2 4-16 1-20-2-3-2-4 0-6l2-2 1-1c0-2-1-3-3-3h-6c-4 0-5 0-5-2l2-2c2 0 0-2-4-2-3-1-6 0-6 3l-2 3c-1 2-1 2-3-3l-2-7-1-2v-3c0-2 0-3-1-2l-1 4c0 3-1 3-2 3l-3 2c-1 2-1 2-2-1l-2-6-1-3-2-1c-2 0-2 0-1 3m65 2c-2 1-1 3 1 3l3 1c2 1 9 1 9-1l-3-1c-2 1-3 1-3-1-1-1-6-3-7-1m152 1v5h-2v3h-2l-3 1 2 1 5 2c6 3 8 1 7-3l-2-5-2-2c-2 0-2-1-1-3v-1l-2 2m266 6c0 2-2 4-3 5l-1 3c1 1 0 2-1 2v1h2c2-1 6-10 6-11l1-2v-1l-4 3m-60 2l-5 3c-3 2-5 2-5 0l2-1h1l2-1c1-1 1-1-1-1l-6 3-4 4 6-1a21 21 0 0011-3l1-3h-2m-299 2h-4c0-2-3-1-3 1-2 5-1 19 1 18l2 1 2 1c1-1 2 0 3 1s1 1 2-2l3-6 2-8c0-4 1-5 2-5v-1h-4c1 1-1 9-2 9v2c0 2 0 2-1 1a19 19 0 011-14l-4 2m-61 2v1l2 2 2 4c3 3 3 6 0 6l-3 1c-1 1 0 1 2 1 5-1 10 3 6 5v6l-1-1h-2c-2 2-3 2-5 2-3-1-3-1-2-3 3-2 2-3-1-2-2 0-5-1-5-3h3c2 2 2 2 5 0l1-1c-1 1-2 0-3-1l-4-1c-3 0-2-1 1-3 3-1 4-3 2-3l-3-2c0-3-2-4-4-2a18 18 0 001 13l-1 1c-2 0-3 2-3 6 0 3 0 3 3 3h3l7 2 7 2h-2c-6-1-9-1-9 1v1l1 2 2 3v5c0 2 4 2 6 0h-5l3-3 4-3c2 1 1 2-1 2-2 1-2 1-1 2 2 2 6 2 7 1 1-2 4-3 5-2l-1 1-1 6c0 8 0 8 7 4 5-2 6-4 2-4a1 1 0 112-3l2-2-2-1h-1a3 3 0 013-1l1 1 2 2c0 3 2 5 3 4v-11c3 2 2-3-1-6-2-2-2-2 0-2s2-1 2-3 0-3-1-2l-1-3c0-3 0-3-1-2h-1l-1 2-1 3v2c-2 0-2 2 0 2v1l-2 1h-5l-1-2h1c2 0 2 0 1-1l-1-4c0-3 0-3 1-2 1 2 1 2 2 0l2-2c2 2 1-1-1-4-3-3-3-4 1-3 5 3 8 2 7-2 0-4 0-4 3-3 4 1 2-2-3-4l-10-2-8-2c-3-1-6 0-5 1l-2 1-1 4v2l-1-2c0-4-7-9-8-6m70 8l-4 9c-2 4-1 5 2 6a19 19 0 016 2l15 7 11 7 3-7 3-6-4-3a390 390 0 01-15-11l-7-5-8-6s-2 3-2 7m145-5v7l-1 1h-3c-2-1-2-1-2 4v5l2-3 2-4 2-2c3-1 3-6 2-9-2-2-3-1-2 1m101 1l3 8 2 8 1 1c3 0 3-4-2-14-2-5-5-7-4-3m-137 9c0 5 1 6 2 6l3-1c2 0 2 0 2-4-2-9-7-10-7-1m188-4l-4 6-3 5h5c4 0 4 0 5-3l3-4c3-3-2-7-6-4m-102 0c-1 0-2 1-2 3s0 2 1 1c0-2 1-2 1-1l1-1v2l1 4c1-1 1-1 1 1l-1 6 1-2c4-11 3-14-3-13m-153 5v7l2 6c1 3 4 6 5 6 3-2 0-15-5-21l-2-2v4m108 2c-4 4-6 7-5 9 2 3 2 2 6-5s4-8-1-4m90 7l3 4 1 1v6c2 1 2 1 2-2 1-3-1-7-5-11s-4-4-1 2m-160 1c-2 0-3 1-3 2l-1 3-5 6-2 4-1 2c1 1 1 0 2-1l7-9 7-9-4 2m6 0a226 226 0 00-14 23l-2 6c2 2 3 3 3 1l2-2 1-2v-1l4-5 8-8 5-4 2-1 2-1c0-3-3-2-6 1-4 4-4 2 1-4 3-2 3-3-2-3h-4m250 2l-1 2c-1 0-5 6-5 9 0 2 0 2 3 0a10 10 0 003-11m-156 1v2l-4 4c-4 3-8 9-7 11 1 10 3 12 8 9 4-3 4-3 1-3l-2 1-1 1c-3 2-3 1 0-2l5-3c2 0 2 0 1-1l-6-2v-1l5-6 7-6c4 0 3-2-2-2a3 3 0 01-4-3l-1 1m-51 4c1 4 0 13-2 21 0 4 1 6 3 2 1-2 1-2 3 1l2 2 1-2c1-3-1-8-3-8l-1-9c0-6-1-9-2-10s-1-1-1 3m-146 4l-2 3c-2 0-2 1-2 5a21 21 0 01-5 18c-1 3-3 5-4 5l-1-7c0-2-1-2-2-1l-1 4-1 2-1 2c0 1 8 2 15 1h2v-1l1-6 2-4 2-3v-2c-2 0-1-3 1-3l1-2-1-1c-1 1-1 0 0 0 0-2 2-3 2-1l1 1-1-3v-6l-2-1-2-1-2 1m15 3l-2 4-4 10-2 5-2 5-2 3-2 3 3-1 2-2 1-2c0-2 1-2 2-2 2 0 2 1 2 2a6 6 0 006 7l2 1 18 2 2-1 1-2 2-21c0-3 0-4-4-5l-9-3-7-3-3-1c0-2-3-1-4 1m220 3h-2c-1-2-3 4-3 10-1 9 2 30 4 27v-1c-1-1 0-11 1-11l2 3c0 4 2 4 2 0 0-2-2-7-4-8v-3c2-1 2-1 5 2l4 3 2-3v-2h-2c0-2-1-2-4-2-5 0-10-3-7-3 2 0 2-2 2-6l2-7v-1l-2 2m58 0v16l2 3v-7l2-10c0-3-2-4-4-2m-6 1c-3 1-4 9-2 11l1 2 2 5 2 3-1-3c0-2 0-2 1-1 2 1 3 0 1-2l-1-8v-8l-3 1m-163 1l-3 10-5 12c-2 3-2 4-1 4 3 0 11-20 10-25l-1-1m51 0l-2 3v3c1 2 0 2-4 6-3 3-4 5-4 8 0 4 2 6 3 3 4-5 6-6 7-5l1 2-2-1h-1l1 2c2 1 1 2-1 2-2-1-2-1 0 1v1c-2-1-5 1-4 1 3 3 6 1 8-4a13 13 0 016-7l2-1 4-1-1-1c-1 0-3-1-4-4l-4-4-2-3c-1-2-3-3-3-1m46 5l-1 3c-1-1-3 1-6 3l-3 4c1-1 5 2 5 3h-6l-6 1v2c-2-2-5 1-4 2h2c2-2 6-1 5 1 0 2 0 2 2 2 2-1 3 0 5 2l3 2-1-2c-2-2-3-4 0-4 1 1 1 0 1-3 0-2 0-3 1-2l1 3c0 4 1 4 3 0l3-1c1 1 1-1 1-4 0-6-5-17-5-12m103 6c-2 6-2 11 0 10 1-1 6-14 5-15s-2 0-5 5m-400-3l-3 1c-1 1 0 1 3 1h8c4 1 6-1 4-2H64m47 3a12 12 0 00-8 18l1-1 2-1c1 0 2-1 2-3 0-6 2-10 6-10 3 0 4 3 1 5l-1 6 1-1 2-5 1-2c1-1 1-1 1 1l-1 2-1 5a13 13 0 004-11l1-1 1-2c4-4-5-4-12 0m44 1c0 2 1 3 2 3l1 2c0 2 0 2 1 1 2-2 6 0 6 3l1 2 1 1 3 2c2 0 2 0 2-2l-1-4c0-3-3-6-4-4-1 1-1 1-1-1s-3-4-5-3c-1 1-2 0-2-1-1-3-4-2-4 1m121-1l-3 1-1 1c-1 2 2 3 6 1 3-1 5 1 3 3l-1 2-2 5c-4 4-4 6 0 2l5-3c2 0 2 0 1-1s0-4 1-4 2 2 2 5v10c1 7 0 11-4 13v1c1 1 6-3 8-7 0-2 2-3 3-3s2-1 1-3c0-3 2-5 4-3v3c-2 3-4 19-2 19l4-3 6-4v1l-1 4c1 4-1 7-2 5-2-2-5-1-5 1 1 1 0 1-1 2-2 1-3 1-2 3 0 1 0 2-2 2s-3 1-3 2l-2 4-3 4-1 3v-3l2-5 1-3h-1l1-2v-2c0-2 0-2 2-2a6 6 0 003-11c-2-1-4 0-2 3v1l-3 4c-1 3-2 3-4 2l-1-4c1-6 0-5-3 1a11 11 0 01-4 6c1 1-1 3-2 3v-2c1-1 0-1-2-1l-5-1c-2 0-1 1 0 8 2 8 2 9 6 12 4 2 5 3 6 2s1-1 1 1 0 2 4 2l8 1 3 1-3-1c-2-2-2-2 3-1 11 0 6-2-10-5l-5-2v-1h-4c-2 0-2 0 0-2v-2l-1-2 2 1h3c2 0 2 0 1 1l-1 1c2 2 8 4 12 5h5c-2-1-1-2 2-1 2 1 3 1 3-6l6-15a99 99 0 008-17c3-6 2-7-1-4l-3 3 1-1 1-3c0-2 0-2-1-1 0 2-3 4-3 2l1-1c2 0 0-2-2-3-2 0-3 1-3 2 0 2 0 2-2 0 0-2-1-3-2-3l-1-1c0-2-5-8-6-8l-4-3-5-4-4-3c-2-3-2-3-6-2m-188 4c-1 5 0 9 3 9 2-1 3 0 4 2l2 1v-2l-2-3-3-1c-4 0-4-5-1-7 2-1 2-3-1-3-1 0-2 1-2 4m134 0c-5 10-7 19-5 17 1-1 2-2 1-3l3-8 4-8c0-2-1-1-3 2m109-1l-3 3-3 6c-4 6-4 7 1 3l5-4c2-1 5-7 4-7v-1c0-3-1-2-4 0m91 7v5c0 3 0 3-2 3l-4 2c0 2-2 1-4-1l-2-1 2 4c2 3 3 9 0 9-2 1-2 1-2-1l-1-2c-1 0-4-8-3-9 0-2-2-1-4 1v5c2 7 2 15 0 17-2 1-2 4 0 2l-1 3-1 3 3-3 29-21c1 0 2-1 3-5v-3l-1 2c0 3-4 3-5 1l-2-1v-6c0-2-1-2-4-2v-3l-1 1m-336 5l-4 1-4 2c-1 2-8 1-9-1h-3c0 3 10 5 15 2l5-3 2-1h-2m281 8c0 7 0 9 1 8l1 6c-1 6-1 6 1 4l1-5 1-4c1-1 0-2-1-4l-2-9-2-5v9m-30-7c-5 2-6 4-5 6 2 1 10-3 10-5-1-2-3-2-5-1m-85 2l-1 3c1 3-1 5-2 2-1-2-1-2-3 2-1 3-2 4-4 3l-1 2-1 4v5c2 2 4 0 3-3l1-3 1 1c0 3 3-1 5-6 5-11 6-13 2-10m224 5c-3 6-3 8-2 8l1-1c0-1 3 0 3 2 1 2 3-1 4-5l-1-6-2-3-3 5m-375-1v1c-1 0-2 1-2 3 0 3 1 3 4 3l5 1c2 1 5 0 6-4 1-3 3-4 2-1 0 2 0 2 1 1h2c1 1 2 2 5 2a3 3 0 003-2v-2l1-1 2-1c0-2-9-1-10 1h-1c1-2 0-2-6-2l-10-1c-2 0-2 0-2 2m295 1c-2 2-2 2-1 6l1 7c0 3 0 3-2 1-2-1-3-2-2-3l-1-1c-1 1-1 1-1-1 1-2 1-2-2 1s-3 3 2 10c5 6 6 10 5 10l-2-3a32 32 0 00-9-10v1l-1 1c0 2 4 7 5 6v1l3 4c2 2 2 2 1 3l-5-4c-5-5-5-5-5 2l1 6c2 0 4 3 4 5h-2c-2-3-4 1-2 7 1 1 1 1 3-4a51 51 0 0112-16c-1-1 0-1 0 0 2 0 2 0 1-3l-1-12-1-11v-2c2-2 1-3-1-1m-43 4c-2 3-6 4-9 1l-6-1c-5-1-5-1-9 3-3 4-4 5-2 6l-1 1c-4 1-4 2-12 17-3 9-4 16 0 19 1 1 1 1-1 1-1 0-2-1-3-5s-1-4-3-2l-1 4-1 3c-1 2 0 2 8 2 7 0 10 2 4 3-4 0-4 1 0 3h7c3-2 3-2 3 0 1 1 1-3 1-8 0-8 0-11 2-13 3-5 7-7 8-4h3l2-2-3-6-2-6 2-3c3-2 3-2 4-1h1c0-3 2 0 4 8 4 12 4 12 5 10 3-5 5-34 2-34l-3 4m-154 3v3l-2-2-2-2v2c1 3 1 3-2 2-2-1-11 8-11 13 0 2 0 2-1 1-1-2-1-2-2 0l-2 4-1 1-5 11 1 1 1 3c0 2 0 2-1 1-3-3-4-1-3 3 0 6 1 8 2 6v-1l-1-2 1-1c1 1 2 0 4-3a40 40 0 015-6c1-3 8-10 9-10l-2 3c-9 11-14 19-16 28-2 7-1 8 4 9l8 4 4 2 1 1-5 1-5-1h-4c-3 1-3 1-3 3 0 4-2 4-3 0v-3l-8 1c-5 0-7 0-6-1l2-1h5c4 0 5 0 5-2s0-2-2-1h-7l-3 1-2 1h-3l-3 1h-1l-2 1h-3l-4 1h-2l-4 1c-1-1-2 0-2 1s3 2 6 1l9-2a15 15 0 007-3c3 0 0 3-4 4-3 0-8 2-11 4l-15 4a81 81 0 00-26 4h-5l-10-1c-5-3-5-2 0 1 2 3 3 3 4 2l2-1-2 3c-3 2-4 3-3 1l-2-3c-2-1-2-1-2 1 1 2 1 2-1 2-1 0-2 0-1-1l-1-2-2-1h2c2 0 2 0 0-2-3-3-4-3-4-1l-1 2c-1 0-2-3-1-4 2-2-33-13-45-13l-20-4c-2 0-2 0-2 3l1 5v1c-2 1-1 2 4 1h12l2 1c1-1 11 2 13 3l2 1c4 0 10 4 12 7a7 7 0 005 5l3 2c3 1 13-2 13-5l1-2 1 2 2 1h1l-2 1-3 2-5 1-3 2-1 1-8 6-5 6-2 2-5 4-6 7c-5 5-6 15-1 15 3 0 4 3 3 8-1 8 2 15 3 7 5-24 30-30 47-11 5 6 10 7 12 3l1-2 1-1c0-2 4-5 16-13 7-5 12-4 11 2 0 3 2 5 3 2 1-2 15-10 18-10l3 1-4 1-3 3-7 7-3 7v1l-1-1-1-2c-3 0 5 15 8 17 4 2 8-1 8-6l1-6c1-2 1-1 1 2-1 6-1 5 7 3l7-2h4l-3-1-3-1h3c1 0 2 0 1-1-2-1-1-2 3-4 3-2 4-2 4-1l2 1-1-2v-2c3 0 4 1 3 3 0 3 2 3 2 0 1-2 0-4-2-4l-1-1h3l2 1 2 3v4l-7 3-6 3 6 3 8 6 2 2 5-6a36 36 0 007-8l1 2v3c2 1 0 3-1 3v-1l-1-1-2 2-2 2-4 8 3-3c0-2 1-3 2-3l1-1 15 1v10c0 9 0 10 1 6l1-10 1-4 1-9 2-20c3-9 4-18 2-18a39 39 0 00-10 13l-3 8c-4 11-5 11-4 1l1-9c1-1 1 0 1 2l-1 3 1-3v-8c2-1 2-1 2 1v-2c0-3 0-4 1-3 0 2 3 4 3 2l4-5c5-5 7-10 4-11-1 0-6 4-6 6l-1 1v-3c2-2 0-4-3-4-2 0-2 0-1-1 1-2-2-9-5-8-1 0-2-2 0-2l2-4c3-5 4-5 4 0 1 3 1 3 3 1l2-1-1 2c-2 3-2 6-1 7l1-1v-1l1 3c0 1 1 1 3-1 4-3 5-14 0-15l-4-1c-4-1-6-1-8 3l-2 3-2-7-1-9v-2l4-9c4-13 4-12-2-12-7 0-10-1-10-2l-2-1-2-2 1-1c1 0 2-1 2-4 1-4 5-12 8-14l1-3 3-4c3-3 4-3 4 1l-2 1-2 1 2 1 1 1c-1 1 0 3 1 5 2 2 2 6 3 9l1 7c1 1 2-1 2-4s0-4 2-4c2-1 2-2 2-8v-8l-4 1-4 1c-2-1-1-3 1-3l1-1c0-2 3-8 5-8v-2c0-1-2 0-4 3l-4 3-1-3-3-7-1-4v3m-156 3c-3 3-3 7 1 7h2l1 1h3c2 2 2 0 0-3s-2-3-1-4c3 0 2-2 0-2h-2c-1-1-2-1-4 1m228 0c0 2 1 6 2 5v-1h1c3 2 2 3-4 4-4 0-6 1-7 2v3h10c0-1-2-2-7-2-1-1 0-1 3-1 4 0 5 0 6 2s3 0 6-4l1-3a2 2 0 01-2-2c1-1 0-1-3-1-4 0-4-1-4-2 0-2-1-3-2 0m157 2l-2 2c0-2-11 8-15 12-7 7-9 11-9 12l-1 1c-1 1-2 3-2 8a420 420 0 01-5 38h9c2 0 3-9 1-10-2-2-1-3 1-2 2 0 6-12 4-15a7 7 0 01-1-5h-3c-2-2-3-3-1-3v-1c-2-1 0-2 3-1 5 2 10 0 8-3l1-1 1-1 1-3v-1c-2 2-2 2-2-1 0-5 4-12 5-9 1 1 1 0 3-4 6-11 7-18 4-13m51-1v6c1-2 1-1 1 3v6c1 1 1 1 1-1v-2l1 4c0 3 0 4 1 3 0-4 2-5 2-2 0 2 1 2 2-2l1-5 1-3 1-2-1 1-2-2c-2-2-3-3-4-2a2 2 0 01-3-2h-1m-233 4l-3 17c0 6 1 5 1-1 0-5 2-6 2-1 0 4 1 3 1-2 1-2 0-4-1-5v-5l1-4-1 1m76 4v2l-1 1c-2 1-1 2 5 2 6 1 12-2 9-4l-13-1m-209 2c1 1 1 1 0 0-2-2-6-1-5 1l1 2 1 2c1 2 1 2 4-1 5-5 5-6 1-6-3 0-3 0-2 2m112-1c-3 1-6 9-4 11 1 0 11-6 11-8l-1-1-2-1c0-2 0-2-4-1m-104 6l-2 4c0 2-1 4-3 5-3 2-3 3-2 5v3l1 2c2 0 4-2 4-4s0-2 1-1h4l1-7v-8c1-3-3-2-4 1m129 2l-1 3c0 4-1 6-3 5l1 2c2 3 2 5 0 8-2 2 1 1 2-1l1-18v1m-16 5c-3 6-2 18 1 13l1-1-1 3c-3 3-3 4 0 2l2-3 1-1v-1c-2-1-2-1-1-3l1-2 1-2v-2l-1-3c0-5-1-5-4 0m139 1c-3 5-3 9 0 9s3 1 0 3c-2 1-2 1 0 1 4 0 4 2 0 4-2 2-3 7 0 15s3 8 4 2l3-10v-11l-3-13c0-6-1-6-4 0m-345-2c-3 2-3 2-2 4 2 1 11 3 10 1l1-1v-3l-2 2-3 2c-1 0-3-2-1-3v-3l-3 1m-17 6c-4 5-5 6-3 8 1 1 3 2 6 0l5-2c3-1 4-3 2-3l-2-1h4c1 1 2 2 3 1 2-1 1-2-2-2-2-1-2-1-1-2s0-1-2-1a2 2 0 00-4 2l-2-2c0-2-1-2-4 2m330-3c-1 1-3 32-1 34v1c-3 0 0 7 5 9l2 1c0-2-1-2-4-6l-2-3 6 6a15 15 0 006 6c-2 3 5 9 10 9 2 0 2-1 1-3 0-6 5-12 7-7l2-2c2-4 1-6-1-3l-4 2c-1-1-1-1 1-3l2-4v-5l-2-6v-5l-4 4c-3 3-4 5-5 9v6l-2-3-1-7-1-3v6c0 3 0 5-1 4l-2-4c-1-2-1-2 2-8a47 47 0 004-20l-2 4 1-7-1-2c-1 1-5 13-6 20a5 5 0 11-9-1l2 2c1 2 1 2 2-2l3-5a1 1 0 10-1-3c-2 0-3-2-1-2v-3l-2-4c-1-3-2-3-4-2m-253 2l-2 2c-1 3-3 2-3 0h-2l-3 2-1 2 1 2 2 2c1 2 5 5 5 3h3c4 0 6 2 4 2l-2 1h2c3 0 3-5 0-5v-4c-1-1-2-1-3 1-2 1-2 1-2-2s0-3 1-2h5c0-3-2-5-5-4m47 5c0 7 0 8 3 5 4-3 4-9 0-10-2 0-2 0-3 5m120-1c-3 5-3 12-1 14s4 0 3-3h1c2 3 2 1 0-7l-2-7-1 3m-29 7c-3 6-3 10 0 11 2 0 2 2 0 5-1 4-1 4 1 3 2 0 4-4 3-8 0-2-1-3-2-2-2 0-3-1 0-3 2-2 3-12 1-12l-3 6m12 8l-1 4v1l-1 1h4l-2 2c-2 0-2 0-1 1h8c0-3-1-9-3-10l-1 1-1 2v-2c0-4 0-4-2 0m249 0l-2 4-1 1v6l-1 5-1 3c1 2 1 3-3 4l-5 3-2 1c-2 0-3 1-4 3v3l3 1c5 4 6 5 7 4 6-5 12-3 9 4l-2 5-1 2-2 3-2 4c-4 3-4 6 0 4 3-2 6-1 4 2l-2 3c1 2-2 10-4 10-3 1-3 5 0 8s2 6-2 3c-2-3-3-3-3-1-1 2-1 4 1 6 3 3-1 10-4 7-1-1-1-1-2 1l-1 2-1 3v2c2 0 10-6 10-7h2c1 2-1 6-2 6l-1 3 1 2 1 2h-11c-2 2-1 3 2 3 3 1 7 5 7 7h-15l-3 7-3 7h17l3-4c4-6 6-9 6-7 0 4 2-2 3-11 2-13 3-22 2-26-2-5 0-6 3-2l2 5 1 2c1 0 2-9 1-11v-2c1-1 3-3 3-5 1-5 0-7-1-5-1 1-1 1-1-1v-5c-1-4 0-8 1-8 3 0 4-4 3-5h-1l-2 1-2-2 1-1c3 1 5-1 5-4l1-2 1-1 3-22-1-2-1 3-1 2c-2 0-2 1-2 5l1 4c1-1 1 0 1 1l-1 1h-2c-4 2-4 0-4-12 0-11-1-12-3-12-3 0-3-3 0-3 4 0 5-4 2-5-2-1-3-1-2-3 0-3 0-3-3 1m-324 7c-3 4-4 5-5 4h-1c0 1 3 3 6 3s3-1 3-4l1-6c2-3 0-2-4 3m46-2l-3 11a6 6 0 006-2l2-1 2-2 1 2a2 2 0 102-3c-2 0-2 0-2-2s-1-3-3-3h-5m214 2l-4 8c-3 6-2 6 6-1l5-3c5 0 4-5 0-5-2 0-2 0-1-1s1-1-2-1c-2 0-3 1-4 3m-129 0l-2 2c-1 0-2 1-2 3-1 3 0 5 2 5 4 0 5-1 6-6 1-6 1-6-1-6s-3 1-3 2m30 0l-4 2c-3 0-2 2 0 3l6 4c5 4 5 3 4-5-1-6-2-7-6-4m-16 3c-2 2-3 22-1 22l1-2 1-3 1 3-1 5-1 1c-2-1-1 2 1 3h1l-1-1v-1c4-5 6-22 4-27-1-3-2-3-5 0m-70 7c-6 5-6 6-2 7 3 0 13-10 10-11s-4-1-8 4m191-3l-3 4h-1c-1-2-10 6-16 14l-3 5c-2 2-10 24-10 26l5-3 5-4 9-8 2-1c2 1 8-7 8-11l1-3 1-1c-1-2-13 7-19 14l-7 6 13-15c3-1 2-3-1-4l-1-1h3c2 2 4 2 5 1l-2-3-3-3 3 1c6 5 10 3 13-9 3-8 2-9-2-5m-114 14c-2 2-3 4-1 3 1-1 1 1 1 5a25 25 0 001 10c-2-1-1 0 2 4 2 5 5 6 5 4l2-1 3-1 2-1c4 0 3-3-3-13-7-12-8-13-12-10m22 0v2l4 7c3 6 3 7 6 6 3 0 3 0 2-2l-3-5-2-2 1 2v1c-3-2-4-3-4-5s-3-5-4-5v1m61 5l-5 2-8 9 5 2h1l2 3 2 4c0 4 2 1 4-5l5-11c2-3 2-5 1-5h-1c0-1-4-1-6 1M0 584l1 2 1 2-1 1-1 3c0 4 3 4 3 0 1-5 4-7 6-5h2c1-1 1-1 1 1 0 4 0 6 1 5v-6h4c5 0 5 1 5 4l1 3 1-2 1-1 1-1c0-2 2-3 4-3v1l-2 4c-1 2-2 2 13 2l10 1-9 1-18 3a652 652 0 01-22 6c-1 1 5 2 7 1 3-1 3-1 3 1s1 2 5 2l4-1 3-2c2 0 3-1 3-2s4-1 5 1c0 0-1 2-3 2-3 2-4 4-1 7l1 2-1 3c0 2 1 2 4-2 4-6 11-13 18-19 4-4 4-4 2-5a5 5 0 00-4-1c2-2-12-6-28-7l-17-3c-3 0-3 0-3 2m126 1c-2 1-3 2-7 1l-7-1c-5 0 0 2 9 3l10 2 2-1-3-1c-3-1-3-1-1-3 2-3 0-3-3 0m35 0c-5 1-8 3-11 5-2 2-3 2-8 0h-8l7 2 6 1c0 2-3 6-5 7l-4 2c-2 2-4 3-4 0l-1-1-2 8 13-8h6l4-1c3 0 9-3 9-4l3-1 2-1c0-2 1-2 4-1h5l4-2 3-1h1l4 1c3 1 4 2 1 2-4 0-5 1-6 2l-2 3c0 2-1 2-3 1-7-1-14 4-12 7l1-1 1-2 5-1c6-4 6-2 1 2l-22 19c-5 4-6 5-1 2l7-5c7-7 13-11 15-12l5-5 6-3 3-1c0-1 2 0 1 1h1l2-4 2-4c1-2 1-2-3-2l-5-1c-1-4-16-6-25-4m301 1l-3 5c-3 2-4 16-2 16a5 5 0 001-7l2-5 4-10v-1l-2 2m5-1l-2 7-2 5c-1-2-1-2-3 6v5l1-1 2-4 7-8 4-6-2-2c-2-3-7-4-5-2m-219 2c-4 6-6 9-6 14 0 6 1 6 3 2v-4c-3 2-2-1 2-7s5-9 1-5m50 6l-4 1v5c0 4 0 5-2 6s-3 1-3-1c-1-1-1 0-1 2v3l5-3 6-2c3 0 3-2 3-7v-4h-4m83 1v2l1 3c0 1 2 6 5 9 2 2 2 2 2 0 3-7-4-18-8-14m-100 3a67 67 0 00-8 22c-1-1-1 0-1 1 0 2 5-2 14-10v-7l-1-6-1-1-3 1m171 5c-7 12-7 12 0 12l4 1-6 1-5 1 5 1 4 1-6 6c-2-1-10 6-10 8l2 1c4 0 4 1 2 4-1 2-2 2-4 2-2-1-3 0-3 1-1 4-1 4 1 4l1 1c0 3-2 4-3 3l-2 2-3 3c-2 1-3 2-3 10l-2 14 1 5c2-1 20-19 20-21l2-5 2-6 10-8 2-3 1-3 3-7 4-9c4-5 4-9 1-8l-5 1c-2 3-3 0-1-3l1-3c-1-1 0-1 0 0 2 0 2 0 2-2 0-1 0-2-2-1l-2 1c0 2-7 8-8 7l-1-8v-6l-2 3m-41 4c-7 7-9 10-6 11h2c1-1 1-1 1 1-1 4 2 3 5-1 0-3 2-6 3-8 5-11 4-11-5-3m-330-1l-4 6-4 5h-1l-1-2v2l-3 3-2 3h2l5-3c2-2 10-14 10-16s0-1-2 2m253-2c-2 0-3 1-3 3s0 2 1 1c1-2 4-2 5-1s1 2-1 2c0 1-1 1 0 0l-1-1-2 1-1 1c-3 0-2 2 1 5l3 3 2-3 3-3-2-4c-2-4-3-5-5-4m175 2c-4 2-5 4-5 9-2 10-5 14-5 6v-3l-5 22-10 39c-3 5 1 7 4 3l5-6c4-5 7-11 8-17 0-6 1-7 6-6 1 0 5-6 5-10 1-3 1-3-1-2h-4c-4-2-3-3 1-3h4v-6c0-6 0-7-3-10s-2-4 1-1c2 1 2 1 2-7v-9l-3 1m-193 4v1l1 7-2-3-1-3c-2 0-2 2 0 4v4l-2-3-2-3-1 5-2 8-1 2-2 6-6 21c-2 4-2 1-2-8v-6l-1 1-3 5c-5 8-13 26-12 28l6 4 5 4h41l-1-3 1-19c2-25 2-37 1-29s-2 11-2 4l-1-4c-2 0-3-2-1-5 1-2 1-3-2-5l-3-3-4 2c-9 4-13 3-5-1 4-2 5-3 4-6 0-4-2-7-3-5m33 5c-3 3-3 3-1 3l3 2c1 2 1 2 3-1 2-2 2-3 0-5l-1-2-4 3m-330 2c-2 3-2 5-1 11 0 8 1 9 6 6 3-1 1-21-2-21l-3 4m279-1l-1 2-5 5-4 5-15 22-1 13-1 10c-1 2-1 2 1 2h3l1-1 2-6 3-8 3-4c1 1 1 0 0 0l1-3 2-2 2-4c2-2 2-5 0-13l1-2 1 6c0 10 5 2 7-12 2-11 2-16 0-10m-102 4c-1 2-3 3-4 0-1-2-3 3-2 5l-1 2-1 3c0 2 1 2 2 2l3 3 1 3 1-4-1-5v-6l1 1 1-2v-2m199 3l-2 6-1 3v-2c0-2 0-2-1-1-2 2-4 7-4 14l-1 7-1 5v8c-1 4 1 8 2 5h2c0 2-4 6-6 5-1 0-2 2 0 3v3c0 2 0 2 1 0l4-5 4-6 5-6c5-6 5-7 1-5-3 1-3 1-2-1v-2l1-8 1-3-1-3 2 2c3 3 5 3 5 0 0-2-2-3-5-5l-3-3 5 2c4 3 4 2 7-6l2-6-5 3-6 4h-4l5-4 5-2-3-2c-5-2-5-2-7 0M59 633c-4 1-9 3-9 5l-2 1c-5 0-11 17-7 19s11 1 16-3l10-6c2 0 4-2 5-3l2-3 3-1h1l3 1c3 0 3 0 0-4-4-5-15-9-22-6m331 8a6293 6293 0 00-2 12l1-1 1-2v2l-2 2-1 6h2l1 3-1 2 2-2c2-1 3-2 3-4l-2-12c0-10-2-12-2-6m-38 4l-2 3c-2 2-3 6-5 17v4l3-4 7-5 3-3-1-5c-1-4-5-10-5-7m-194 6l1 1v1l-3 4c-1 1-1 1-1-1 1-1 0-2-1-2v-1c0-1-1-1-4 1-4 2-1 11 3 9l1 1c-1 1 7 10 8 9l8-3c7-1 7-1 9-6l3-5-3-1-2-2c1-3-17-8-19-5m351 3l-15 23-5 6h5c5 0 5 0 5-2-1-3 1-4 2-1s1 3 6 3c6 0 6-1 6-7-1-3-1-4-2-3s-2 1-3-1c-1-1 0-3 3-3a2 2 0 00-1-4l1-2 1-8v-5l-3 4m-425-1l1 5c0 1 0 2 2 1l1 2 1 2c1-2 0-8-2-10-1-1 0-1 8-1h7l-11-1c-7 0-7 0-7 2m-6 1l-4 1-3 1-2 1c-5 1-7 6-6 12 0 6 2 6 3 0 0-5 3-9 6-9 1 0 1 1-1 4-4 7-3 12 2 16 4 3 7 3 7-1l2-6c2-5 3-7 0-7-6 3-7 2-3-2l3-6c0-5-2-8-4-4m333 0l-1 5-4 14-1 4-3 1c-2 0-3-1-1-3v-3l2-4c3-3 4-6 5-10l1-2-2 2c-5 5-12 15-12 17l2 2c4 1 3 2-2 3-3 1-3 1-2-1 2-1 2-1 1-2s-5 4-5 6l12-2h1c3 4 6 2 8-4s3-25 1-23m-217 4c-4 5-4 9 0 9 2 0 5-9 4-11-1-1-2-1-4 2m226 5c-3 5-3 8-3 13v7h3c3 0 3 0 3-5v-14l1-4v-4l-4 7m-410-5a6 6 0 00-4 4l-5 15v6h4c5-1 6-1 6-7 0-5 1-8 5-11l3-2h-3c-3 1-4 0-1-2 2-4 1-5-5-3m256 6c-6 11-6 11-2 10h4l1-8c1-11 1-11-3-2m-158-3l-3 1h-4c-3 0-6 2-6 4h5l-3 2c-2 0-2 1-2 4 0 4 1 5 4 5 4 0 4 0 5 3l3 3c1 0 2-1 1-7l1-11c1-5 1-5-1-4m-83 4l-1 10c1 0 10-6 10-8 0-4-9-6-9-2m111 2l-2 1c-2 1-2 1 0 1s2 1 3 7v7h6c4 0 5 0 8-3l3-3-3-2c-3-4-4-4-4 0l-1 3-1-4c0-5 0-5-4-6l-5-1m-10 1c-2 1-6 11-6 14l6 1 5-1-3-10c-2-2-1-3 1-3s2-1 1-1h-4m230 3v1l-1 1c-1-1-9 8-9 9l4 1c4 0 4 0 3-2-1-3 0-3 2-6l3-5-2 1m-322 4c-3 7-3 8 2 8 3 0 4 0 4-2l1-5c3-6-5-7-7-1m139-3l-4 2h-1c0-1-7 1-11 5-3 2-1 2 3-1 4-2 8-4 6-2s-2 2-1 4c1 3 5 4 5 1l3-6 3-4-3 1" tabindex="-1" itemprop="bold" style="fill-opacity: 0.898; fill-rule: evenodd;"></path></symbol></defs><use class="background" href="#-posters-1650743024234-background" fill="url(#-posters-1650743024234-background-gradient"></use><use class="light" href="#-posters-1650743024234-light" fill="url(#-posters-1650743024234-light-gradient" filter="url(#light-filter)"></use><use class="regular" href="#-posters-1650743024234-regular" fill="url(#-posters-1650743024234-regular-gradient" filter="url(#regular-filter)"></use><use class="bold" href="#-posters-1650743024234-bold" fill="url(#-posters-1650743024234-bold-gradient" filter="url(#bold-filter)"></use><use class="emboss" tabindex="-1" href="#-posters-1650743024234-light" fill="url(#-posters-1650743024234-light-gradient" filter="url(#emboss)"></use><use class="emboss" tabindex="-1" fill="url(#-posters-1650743024234-regular-gradient" href="#-posters-1650743024234-regular" filter="url(#emboss)"></use><use class="emboss" tabindex="-1" fill="url(#-posters-1650743024234-bold-gradient" href="#-posters-1650743024234-bold" filter="url(#emboss)"></use><defs><g class="gradients"><radialGradient gradientUnits="userSpaceOnUse"><stop itemprop="radial" stop-color="hsla(99, 12%, 24%, 1.00)" offset="0%"></stop><stop itemprop="radial" stop-color="hsla(132, 7%, 27%, 1.00)" offset="15%"></stop><stop itemprop="radial" stop-color="hsla(148, 10%, 34%, 1.00)" offset="30%"></stop><stop itemprop="radial" stop-color="hsla(100, 10%, 43%, 1.00)" offset="45%"></stop><stop itemprop="radial" stop-color="hsla(156, 10%, 30%, 1.00)" offset="60%"></stop><stop itemprop="radial" stop-color="hsla(135, 14%, 22%, 1.00)" offset="75%"></stop><stop itemprop="radial" stop-color="hsla(128, 12%, 25%, 1.00)" offset="90%"></stop></radialGradient><linearGradient gradientUnits="userSpaceOnUse" x1="0" x2="0" y1="0" y2="100%"><stop itemprop="vertical" stop-color="hsla(102, 11%, 23%, 1.00)" offset="0%"></stop><stop itemprop="vertical" stop-color="hsla(150, 9%, 31%, 1.00)" offset="15%"></stop><stop itemprop="vertical" stop-color="hsla(107, 9%, 41%, 1.00)" offset="30%"></stop><stop itemprop="vertical" stop-color="hsla(152, 10%, 28%, 1.00)" offset="45%"></stop><stop itemprop="vertical" stop-color="hsla(141, 15%, 23%, 1.00)" offset="60%"></stop><stop itemprop="vertical" stop-color="hsla(102, 11%, 23%, 1.00)" offset="75%"></stop><stop itemprop="vertical" stop-color="hsla(148, 9%, 32%, 1.00)" offset="90%"></stop></linearGradient><linearGradient gradientUnits="userSpaceOnUse" x1="0" x2="100%" y1="0" y2="0"><stop itemprop="horizontal" stop-color="hsla(111, 12%, 24%, 1.00)" offset="0%"></stop><stop itemprop="horizontal" stop-color="hsla(131, 8%, 26%, 1.00)" offset="15%"></stop><stop itemprop="horizontal" stop-color="hsla(133, 11%, 33%, 1.00)" offset="30%"></stop><stop itemprop="horizontal" stop-color="hsla(103, 12%, 41%, 1.00)" offset="45%"></stop><stop itemprop="horizontal" stop-color="hsla(145, 11%, 30%, 1.00)" offset="60%"></stop><stop itemprop="horizontal" stop-color="hsla(123, 14%, 25%, 1.00)" offset="75%"></stop><stop itemprop="horizontal" stop-color="hsla(120, 13%, 25%, 1.00)" offset="90%"></stop></linearGradient></g><g class="generated gradients"><radialGradient id="-posters-1650743024234-background-gradient" gradientUnits="userSpaceOnUse"><stop stop-color="hsla(99, 12%, 80%, 1)" offset="0%"></stop><stop stop-color="hsla(132, 7%, 80%, 1)" offset="15%"></stop><stop stop-color="hsla(148, 10%, 80%, 1)" offset="30%"></stop><stop stop-color="hsla(100, 10%, 80%, 1)" offset="45%"></stop><stop stop-color="hsla(156, 10%, 80%, 1)" offset="60%"></stop><stop stop-color="hsla(135, 14%, 80%, 1)" offset="75%"></stop><stop stop-color="hsla(128, 12%, 80%, 1)" offset="90%"></stop></radialGradient><linearGradient id="-posters-1650743024234-light-gradient" gradientUnits="userSpaceOnUse" x1="0%" x2="0" y1="0" y2="100%"><stop stop-color="hsla(102, 11%, 60%, 0.9)" offset="0%"></stop><stop stop-color="hsla(150, 9%, 60%, 0.9)" offset="15%"></stop><stop stop-color="hsla(107, 9%, 60%, 0.9)" offset="30%"></stop><stop stop-color="hsla(152, 10%, 60%, 0.9)" offset="45%"></stop><stop stop-color="hsla(141, 15%, 60%, 0.9)" offset="60%"></stop><stop stop-color="hsla(102, 11%, 60%, 0.9)" offset="75%"></stop><stop stop-color="hsla(148, 9%, 60%, 0.9)" offset="90%"></stop></linearGradient><linearGradient id="-posters-1650743024234-regular-gradient" gradientUnits="userSpaceOnUse" x1="0" x2="100%" y1="0" y2="0"><stop stop-color="hsla(111, 12%, 50%, 1)" offset="0%"></stop><stop stop-color="hsla(131, 8%, 50%, 1)" offset="15%"></stop><stop stop-color="hsla(133, 11%, 50%, 1)" offset="30%"></stop><stop stop-color="hsla(103, 12%, 50%, 1)" offset="45%"></stop><stop stop-color="hsla(145, 11%, 50%, 1)" offset="60%"></stop><stop stop-color="hsla(123, 14%, 50%, 1)" offset="75%"></stop><stop stop-color="hsla(120, 13%, 50%, 1)" offset="90%"></stop></linearGradient><linearGradient id="-posters-1650743024234-bold-gradient" gradientUnits="userSpaceOnUse" x1="0" x2="100%" y1="0" y2="0"><stop stop-color="hsla(102, 10%, 8%, 1)" offset="0%"></stop><stop stop-color="hsla(150, 10%, 8%, 1)" offset="15%"></stop><stop stop-color="hsla(107, 10%, 8%, 1)" offset="30%"></stop><stop stop-color="hsla(152, 10%, 8%, 1)" offset="45%"></stop><stop stop-color="hsla(141, 10%, 8%, 1)" offset="60%"></stop><stop stop-color="hsla(102, 10%, 8%, 1)" offset="75%"></stop><stop stop-color="hsla(148, 10%, 8%, 1)" offset="90%"></stop></linearGradient></g></defs><defs><filter id="light-filter"><feColorMatrix in="SourceGraphic" type="matrix" values="1.5 0 0 0 0
                0 1.5 0 0 0
                0 0 1.5 0 0
                0 0 0 1.5 0"></feColorMatrix></filter><filter id="regular-filter"><feColorMatrix in="SourceGraphic" type="matrix" values="1.5 0 0 0 0
                0 1.5 0 0 0
                0 0 1.5 0 0
                0 0 0 1 0"></feColorMatrix></filter><filter id="bold-filter"><feColorMatrix in="SourceGraphic" type="matrix" values="1 0 0 0 0
                0 1 0 0 0
                0 0 1 0 0
                0 0 0 1 0"></feColorMatrix></filter><filter id="emboss"><feConvolveMatrix kernelMatrix="3 0 0
                      0 0 0
                      0 0 -3"></feConvolveMatrix></filter></defs></svg>