<svg id="-posters-1650743150277" itemscope="" itemtype="/posters" itemid="/+/posters/1650743150277" viewBox="0 0 512 683" preserveAspectRatio="xMidYMid slice" tabindex="0" xmlns="http://www.w3.org/2000/svg"><defs><symbol id="-posters-1650743150277-background"><rect itemprop="background" width="100%" height="100%" tabindex="-1"></rect></symbol><symbol id="-posters-1650743150277-light"><path d="M0 74v73h12a32 32 0 0116 2c3 0 4 0 4 2l12 1c10 0 12 0 12 2l8 1 8 1 12 1c10 0 12 0 12 2l8 1 8 1 4 1 4-1 4-1c3 0 4 0 4 2l4 1 4 1 8 1c6 0 8 0 8 2l4 1c3 0 4 0 4 2l8 1c8 0 8 0 8 3 0 2 0 2 8 2 6 0 8 0 8 2l4 1 4 1 4 1 5 1h-5c-4 0-6 2-1 2l4 1h1l4-1 4 1c0 1 2 2 8 2l16 2c6 0 8 1 8 2h3l5-1 2 1 4 1 2 1 1 3 3 2c1 2 1 2 1-1 1-3 3-4 7-1l7 1 5 1 11 2 11 1h6l4 1 12 2 12 2 43 5c6 0 13 2 13 4s8 1 8 0h2l16 3 14 2 8 1 8 1 6 1c8-1 18 0 18 1 0 2 7 5 11 5 6 0 8 2 4 4l-4 1v3l-3 1-5 1h-3c-4-1-84 2-98 4-13 2-17 3-11 3l7 1h9l8 2c2 2 3 2 4 0h3l8 1 8-1 4-1h2l-2 1v1l35 1 25-1 27-1c3-1 3-1 3 3 0 3 0 3-4 3s-4 0-2 1 2 1-1 1l-3-1h-38c0 1-27 2-33 1h-2l2-1c1-1 1-1-1-1l-4 1c-2 2-28 2-29 0-1-3-4-1-4 4 0 4 0 4-2 4-5-2-7-2-7-1l-16 1h-14l2 2a5 5 0 004 3l4-1c4 0 4 0 4 3-1 2 0 3 4 4l4 3 4 5c5 4 5 5 2 5l-2 1 2 1 2 4 1 2 1 9c1 7 1 9 4 11l2 4h1c2 0 2 0 1 1-2 2-3 4 0 4l10 5 2 2c3 0 4 5 2 6l-3 1-3-1c0-3-2-2-2 0l2 2 3 4 2 4 1 3c0 2 1 2 4 3 4 0 6 4 2 5-1 1 1 1 4 1 5 0 5 0 12 7 4 3 6 7 6 8h-4l-4-1-4-2c0-1-1-1-2 1-2 2-3 3-1 3l3 1c0 2 1 2 4 1 5-1 5-1 5 1-1 2 9 2 13 0 2-1 2-1 2 1l-2 2c-3 0-5 2-3 2h-4l-5 1 3 1 5 2 2 2 12 6h4c4-2 12-1 12 1 0 1-1 2-3 2s-2 0 0 1l4 2c4 0 6 5 1 5-3 0-3 0-1 1l5-1h4l-1 1-1 4c0 4 3 6 6 5 1-1 2 0 2 4 0 3-1 5-2 5 0 0-2 1-2 3l-4 2c-1-1-1-1 0 0l4 1h4l4 1h8c4 0 5 1 2 3l-2 1 2 1 2 1 4 1h4v-7c0-6 0-7-2-8h-2l2-1c4-1 2-3-2-2-5 0-16-4-17-7l12-4c1 0 1 2-1 3-1 1 0 2 4 3l6 1V209l1-209H0v74m0 0c0 40 1 57 1 37a5963 5963 0 00-1-37m254 138v1l-5 2h-12v2c-2 1-2 1 0 1l3 2c1 2-2 2-5 0l-2 1c-1 1-1 1-1-1s-1-3-12-2a2 2 0 00-3 2l-2-1c0-2 0-2-1 0l-1 4-1-1v-2l-1 2-5 4-5 2-6 3c-3 2-6 4-10 10l-5 7-5-2c-9-2-29-2-33 1-2 1-3 0-5-1s-9 0-14 3c-4 2-10 2-12 0-3-2-9-3-12-2-2 1-2 1-4-1s-2-2-4-1c-2 2-2 2-5-1s-8-3-13-1H54c-4-2-14-2-15-1-1 2-5 1-6-1-2-4-4-4-4-1l-2 2-2-1c0-2-6-2-10 0s-6 3-9 2l-4-1-1 14v14l4-1a2 2 0 110 4c-4-1-4-1-4 2s1 4 2 5l1 2a1 1 0 003 0h6l5-1 3-2 19-1 8 1 14-1 8-2c0-3-4-3-11-3-9 0-12-1-6-3 8-2 13-2 13 0 0 3 2 3 2 0 1-2 7-3 26-3l34-2 25-1h2l3 1 7-1 8-1 1 5a25 25 0 01-5 15l-2 3a9 9 0 000 11l-1 2-6 7-7 7c0 4-3 5-8 5l-4-1 2 2c2 2 3 4 1 3l-2-1-2-1c-2 0 3 4 5 4l1 1v14c1 2 1 2-2 4-2 2-2 2-1 5v3c-1 0-2 1-1 2l-1 3c-5 4 1 13 10 15l5 2-3 7-4 8-1 2-2 2 1 1c1-1 2 0 1 2 0 3-2 5-3 5v-2c1-1 2-2 1-3h-1l-2 2c-2 0-5 4-5 5h2c2 0 0 3-3 5-2 2-2 3-2 10v8l-4 2c-3 1-3 2-1 2l2 1a4 4 0 01-4 3 16 16 0 01-8 10c1 1-4 6-5 5l-1 2c-1 2-6 7-12 10-3 1-3 2-2 2l9-5c1-2 3 0 1 2v4l-4 2-2 1-3 3c-5 2-5 4-1 3a7 7 0 005-2c1 0-3 6-5 6l-3 3-6 4c-6 3-12 9-14 14-2 4-3 5-7 2h-2c0 1 1 2 3 2 6 3 4 5-9 9-10 3-16 8-16 14 0 3-5 9-11 13l-5 6a68 68 0 01-10 16l-2 3-3 5-9 10-6 7v99h302v-9l-3-31-2-22c-1-16-1-18-3-22l-2-3 5-15c6-17 7-22 8-42l1-17v-21c1-31 2-45 3-46s1-1 1 1l2 8c2 6 2 10-1 17l2-1 3-9c1-6 1-6 1 3-1 8-1 10-3 13l-2 4h1l3-4a31 31 0 000-28c0-3-2-6-3-7-1-4-1-4 1-4 6 0 13-8 13-14 0-4-3-10-4-10l-1-5-2-17v-19c0-3 0-4-1-3-2 0-3-4-2-5l2-2v-2l-2-1v-1c2 0 6-7 6-11 0-2 0-2-1-1-2 1-3-2-3-7 0-2 2-1 3 2 0 3 2 4 2 1 0-1 0-2 2-1v-2c-2-2-2-3-1-3v-1c-4-3-3-12 1-14 7-4 15-15 14-20l-1-2 1-12v-10c2-1-8-10-10-10s-2 0-3 2c0 3-1 4-2 2-1-1 0-16 1-18v-2l-3-3c-2-3-4-4-5-1 0 4-2 4-3 1a92 92 0 00-24-28l-2-2c-2 1-6-2-9-4l-16-11-5-1c-2 1-3 1-3-1l-2-2v2m-101 45l1 2 1 1 2 1 2-1h9l2-1c4-2-1-4-7-2h-10m244 4c-2 2 2 2 15 3l14-1c-1-2-28-4-29-2m-382 8c-5 1-6 2-2 2h5l5 2c3 0 4 0 3-1l-1-2c-1-1-5-2-10-1M1 333v8h6l8-1 2-1 3-1 4-1 3-2c2-1 3-3 0-3l-14-5-7-2-5-1v9m420 10c-1 1-2 3-1 4l-2 3c-2 3 0 3 6 0s7-5 2-7l-3-2-2 2m-273 14l-1 2c0 2 0 2-1 1-1-2-1-2-2 0-1 3-1 3 4 5 4 1 11 1 11-1 0-4-7-9-11-7m166 36c-1 5 1 16 3 21l2 5v-10l-1-9-1-1 1-2-1-6c-2-2-3-1-3 2m-4 4l-1 2-1 1-1 2c0 2 0 3 2 2v3c-1 1 0 5 3 6 3 2 3 1 2-2l-1-7c0-7-1-9-3-7m-167 7c-2 1-4 4-4 8-1 7 1 7 5-2 3-7 3-7-1-6m286 14c0 1 1 2 3 2l2 2 6 1 13 1c6 0 6 0 4-2s-9-4-9-2a24 24 0 01-17-3 1 1 0 10-2 1m1 4l-4 2-2 1c-1-1-4 1-3 1 1 1 13 2 14 1 2-1-3-6-5-5m29 3l-4 2-3 1 4 2 7 4 6 3c3 1 3 1 1 2s-2 1 4 1a11 11 0 018 2l5 2 3 2 3 2 3 2c2 0 8 4 8 6h-7l-3-1h-4c0-2-1-2-2-2h-3l-2-1h-4c-2-1-3-1-4 1l-3 1c-3-1-4 0-5 4 0 3 0 3 4 2l4-2a2 2 0 013 1l1 2c1 1 0 1-3 1l-5 1v2c-3 3 10 5 14 2 4-2 4-3 0-3h-1v-1l2-1 3 1a1 1 0 002 0h13c5 0 7-1 4-4v-1l1-1-2-1c-2 0-2 0-1-3 0-3 0-3-3-4l-4-2a9 9 0 00-8-6l-6-3-5-2-2-1c-2 0-4-2-3-4l-1-2-4-2c-3-3-10-4-11-2m46 44h-1c0-2-10-1-10 1-1 2 0 3 2 2 2 0 2 0 1 1v2h-1l-5 2-3 3h5l7 1 1-2a2 2 0 113-2l2 1 3 1-2 1c-2 0-2 0-1 2s1 3-1 3c-3 1-4 2-3 4 1 3 2 4 5 2h4l1-7c0-6 0-8-2-8l-1-1 2-1 1-1-1-1-2-2c-1-3-3-4-4-1m-51 9c-6 0-8 1-7 2h1l2 1 5 1 4 1c0 2 4 3 6 2l3-1c3-1 2-3-1-5-4-2-7-3-8 0l-2 1v-1c2-1 0-2-3-1m14 7c-4 2-9 6-9 8s0 2 2 1c1-2 1-2 2 0l2 2 1 2c1 2 2 3 4 3 2 1 4 2 5 5l6 5 3 2 2 2c3 0 2 5-2 7-2 2-2 2 0 2l2-1 1-1 1 1v1l3 2 3 2 2 1 2 2c2 1 4 4 2 5l-1 2a1 1 0 11-3-1l-3-1h-4c-4-2-3 0 2 4l5 5h1c2 0 6 1 11 6 2 2 4 2 4-1 0-2-1-3-3-4l-2-1 2-1h3v-11l-1-11v-1c2-1 0-3-4-3-2 0-4-2-2-2v-1c-2 0-1-2 1-2l2 2c0 1 4 2 4 0l-1-1-1-2c0-1 0-2-2-2-1 0-2-1-1-2h-3l-2 3c1 1 0 1-2 1-4 0-5-5-1-5 2 0-3-3-5-3l-2-1-2-1-2-3c0-1-5-2-10-1l-2-1c-1-1 0-1 1-1 4 0 4-1 0-4-3-3-3-3-2-4s1-1-1-1c-3 1-3 0-2-1v-2l-4 1m-29 11l3 2 2 3 2 2 3 2 4 2 2 3 4 2c1 0 2 1 2 3l4 3c1 1 2 1 1 2l2 1c3-1 3-1 3 1-1 1 0 2 1 2l3 1 1-2c0-2-1-2-2-2l-2-1-2-1-2-3-2-2-2-1 1-1c2 0 0-1-1-2-7 0-10-3-6-5 1-1 1-1-2-1l-3-1c-1-2-8-7-11-7l-2-1-2-2c-2 0-2 0 1 3m-37 5l1 2v1l-2-1h-2c-1 2-1 3 1 3l1 1c-1 2 0 3 3 2l2-2 1-2c2-3 1-5-2-5l-3 1m16 12l1 2c1 1 1 2-1 3-1 1-1 1 0 0a1 1 0 10-2-2l-2 1-3 1h-1c-2-2-5-1-5 1-1 2-1 3 2 3s3 0 2-2v-1l3 1-1 2c-3 3-3 3 2 3l4-1 1-2h10l2-2h-2c-2 0-2 0-1-1 1-2 0-4-3-4l-2-1c-1-2-3-2-4-1m38 24l-3 1c-3 0-7 1-10 3-1 0 2 3 4 3 3 0 4 1 4 2l2 3v3c-1 1-1 1 1 2l2 2 2 3c3 3 1 6-5 6-5 0-5 0-3 2l4 1 2 1 5 3c5 0 6 1 7 3l3 4 1 2c0 3 0 3-9 3-11 0-14-3-15-11 0-4-1-5-2-5l-2-1c0-1-6-4-9-4-4-1-6 0-2 2s5 3 1 3-6 0-4 1h3c4 0 6 1 4 5-2 3-2 3 0 3l2 2 1 1c3 0 9 4 13 8l5 4 3 2c1 2 4 3 6 4l3 2c-2 1 0 4 2 5 2 0 3 1 3 2l1 1v2c0 4 10 8 12 5h8l-3 1c-4-1-10 1-10 3l3 4c3 3 6 7 6 9h-2c-4-1-4 0 0 1l3 1-3 2c-4 2-4 2 0 1l5-1c2 0 1 2-1 2-1 1 0 1 2 1 4 0 4 0 3 2v1c2 0 1 2-1 2s-4 2-5 4c-1 3 1 3 2 1 1-3 2-3 9-3l6 1 1 1 1-2-1-3-2-1 2-1 1-4c0-4 0-4-4-4l-4-1h8v-24l-1-24c-1 0-4-7-3-8 2-1 0-5-2-4-2 0-2 0-2-2 1-2 0-3-1-2-2 0-3-1-5-4l-4-4-4-3c-1-2-2-2-2-1l1 3c1 1 1 1-1 1-7 0-11-3-6-4 2-1 2-1 0-2-4-2-6-2-6 0l-2 1-2-1-2-2v-1c3-2 2-4-2-4l-4-3c-1-3-8-9-8-7m18 2l4 3 1 1c-1 1 3 2 5 2 2-2-5-7-9-8h-3l2 2m-53 0c-2 1-1 2 1 2l2 2-3 1c-4-1-5 1-2 2 4 1 9 0 8-3 0-3 0-3-2-3l-3-1h-1m54 60c-2 1-2 1 0 1l2 2 2 1 1 1c0 2 0 2 11 4l6 2h-5c-5 0-5 2 0 2 3 0 4-1 5-2 1-2 0-3-6-3-4 0-4-1 0-3l3-1h-3c-2-1-3 0-3 1h-5c-2-1-3-2-3-4s-1-2-5-1m-38 21l-1 4c-2 0 0 3 3 4 5 1 6 5 1 4l2 1c5 3 5 3 1 5-3 2-3 2-1 2 4 0 6 1 5 3l1 1h1c-1 2 0 3 15 4l11-1-3-2c-8 0-18-2-12-2 2 0 4-2 2-2-1-1 0-1 1-1 3 0 1-2-4-4-6-3-8-5-9-9 0-2-1-3-2-3-2 0-3-1-4-4-2-6-7-6-7 0m35 1c-3 2-5 2-8 2l-4-1 4 2c4 2 4 2 7 1l5-2 2-1-1-1-2-1-3 1m-55 6c-2 5-2 6 7 6h8v-9h-4c-3 0-4 0-4 2v3l-1-3c-2-3-4-3-6 1m3 9l-4 1h4c6 0 5 2-1 2-3 0-4 0-3 1 1 0 4 1 5 3 3 2 4 2 6 1 1-1 1-1-1-1l-3-1c-1-2-1-2 4-2s5 0 4-1c-2-1-2-1 0-2 1-1 1-1-1-1h-10m-83 4l-1 2v1c0 1 0 2-2 2-1 1-1 1 1 1 3 0 4-1 5-2 0-2 3-1 2 1h1a3 3 0 115 3l-1 2 4-1c3-2 3-2 4 0l3 1c1-1 2 0 3 1h3c1-2 1-4-2-5-1 0-2-1-1-2h-2c-3 2-9 2-6 0 2-2-4-5-11-5-5-1-6 0-5 1m13 14c0 1 8 6 11 6 2 1 3 1 5-1 3-2 2-4-1-2s-8 0-8-2 0-2-1-1h-6m102 0l-2 1c-5 2-1 2 5 1s9-1 9 1h-1c-1-1-2-1-3 1h-3l-3-1v2l1 1-5 2-2 1h8l-2 1c-3 0-12 5-12 7l-1 3-1 4-2 2-3 1 2 1 4-1 3-3c1-2 6-3 5 0l1 2 1 2c0 1 7 2 9 0h2c2 2 50 1 50 0l-1-2c-2 0-2-1-2-5s0-4-3-5c-2-1-2-1 2-2 3 0 4 0 4-2l-1-2-1 1c1 1-9 2-14 2l-10-4h-7c-7 0-9-1-5-3 1-1 0-2-2-1l-1-2 3-1h2c-1-3-24-4-24-2m-106 14l-3 4 2-1h6l-3 1-4 3c0 2 0 2 2 1l4-2 2-1 2-1-2-2c-4-2-4-4 0-3h1c-3-2-3-2-7 1m93 2l-4 1h-3l-2 1-2 2c0 3 2 3 4 1 2-4 4-4 4 0-1 3 0 3 3-2 2-3 2-6 0-3" tabindex="-1" itemprop="light" style="fill-opacity: 0.766; fill-rule: evenodd;"></path></symbol><symbol id="-posters-1650743150277-regular"><path d="M184 8v8h19v4l1 4 1 4c0 4 0 4 3 4s3 0 3 4 0 4 3 4c2 0 2 0 2 4l-1 4v1h1l4-1c4 0 4 0 4 2 0 3 1 3 4 3l5 1h-5c-5 0-5 2 0 2l4 1 4 1c3 0 4 0 4 2l4 1c4 0 4 0 4 3s0 3 4 3 4 0 4 3l2 2 2 1 2 2c1 0 2 1 2 3l2 2c2 0 3-2 1-2-1-1 0-1 2-1s3 0 3 2l4 1h4v8h4c4 0 4 0 4 3 0 2 0 2 4 2 3 0 4 0 4 2l8 1h8v8h4c3 0 4 0 4 2l4 1 4 1 4 1c3 0 4 0 4 2l4 1c3 0 4 0 4 2l8 1 8 1 4 1c3 0 4 0 4 2l4 1c4 0 4 0 4 3 0 2 0 2 4 2 3 0 4 0 4 2 0 1 8 2 8 0h1v1l-1 3c0 2 0 2 4 2 3 0 4 0 4 2l8 1c8 0 8 0 8 3 0 2 0 2 4 2 3 0 4 0 4 2l8 1c6 0 8 0 8 2l4 1 4 1 4 1c3 0 4 0 4 2l12 1c10 0 12 0 12 2l4 1 4 1 4 1c3 0 4 0 4 2s1 2 8 2h8V0H200v8h-8V0h-8v8m67 208l1 1c1-1 4 2 2 4h-2c1-1-4-5-6-4l-1 1 2 1 2-1c2 0 1 2-1 4s2 4 5 2h2v1l-3 2-3 2-1 1 1 1 4 1c0 2-4 3-7 2-4-1-7-8-5-9h-1l-3-1-2-1-3-1c0-2-11-1-17 1l-7 3-2 2-1 2-2 1 5-1c5-2 7-3 7-1h1c3-3 6-3 5 0 0 1 0 2 2 2l-2 3-4 4-12 7 1-2c4-4 4-5 0-2l-4 2-4 3c-5 4-5 2 0-2 4-4 7-9 6-9l-5 4c-3 3-4 4-4 2l1-2 1-1h-4c1-3-1-2-5 2l-3 5-1 3c-4 3-5 6-5 10l-1 3-2 7a32 32 0 01-4 13l-3 4c-2 3-2 4-1 8 0 7-1 9-6 13l-4 5v1c-1 0-3 1-3 3-2 3-2 3 0 2h6l7-1h1l-4 3c-3 0-3 0-2 2 2 1 2 1-1 1l-3-1-4-1c-5 0-6 1-5 2l-1 2c-1 1-2 2-1 5v5l2 2c1 0 1 1-1 2-3 2 0 3 3 0l3-1c1 1-1 2-3 3-5 2-7 4-5 4l1 1c-1 1 0 1 1 1v5l-1 2h-1l-4 2-3 6c0 1 1 1 2-2a10 10 0 0114-3c1 0 6 7 6 9l-3 2c-2 0-3 1-3 2h2c1-1 1-1 1 1-3 5-2 7 1 4h1l-1 3-1 2c1 1 2 0 3-2 2-3 2-3 2-1l-1 8c0 5 0 6-2 7l-1 1c5 0 0 5-5 6-6 0-8 1-8 4 0 4-4 13-7 16l-1 3c1 0 6-5 9-11 1-3 3-6 5-7s2-1 1-2h1c3 0 3 0 1 5-3 6-3 6-4 4v1l-1 2-2 2c0 2 0 2 1 1l1-2 3-1 4-2 5-2c5-5 6-3 1 3l-5 4-3 2v1h2l-3 2c-4 1-5 1-3-1 2 0 2-1 1-1l-2 1-3 1-1 2-2 2-1 2c1 2-2 4-6 4s-9 10-6 11l3-1 4-2v1l-3 2-5 1c-4-1-5 2-3 3v1l-2 1h2l14-2h2l-3 3a2 2 0 01-3 0h1l1-1-9 1-7 4c-4 2-9 5-11 8l-8 6c-7 4-9 7-1 3 7-4 9-4 4 0l-5 5-3 2c-2 0-4 3-2 4 1 1 1 1-1 1-3 0-6 2-5 3l2-1 10-1c1 0 2 0 1-1-2-1-1-3 2-3l4-1h1l2 1c2 0 2 0 1 1s-1 1 1 1l2 1-1 1-6 2-4 2h4l5-1-4 1-4 2-3 1-5 3c-3 3-5 3-2 0s2-3-1-2c-2 1-3 2-2 3l-6 2c-3-1-3-3 0-3l2-1 4-3 6-2c2-1 1-2-6-2l-7 1 2 1v1h-1c-1 0-3 2-3 5l-1 3c-2 2-2 3 0 2l-1 1c-2 2-4 3-8 3l-1 2c0 2-3 4-9 6a116 116 0 00-8 3c-5 0-11 7-11 11 0 2-2 5-11 14a44 44 0 00-9 12l-1 1c0 2-6 10-7 11l-1 2-1 1-4 6a115 115 0 01-9 10l-4 5v97h301v-2c1-3-1-29-2-35l-2-18c0-16-2-27-4-29s-2-2 5-24l5-14 1-21 1-25 2-27c0-30 2-43 3-32l2 6 2 6 1 5v-6c-1-5 0-6 2-3 2 2 0-3-3-9s-3-8 1-8c9 0 14-14 9-21-2-2-3-4-3-9 0-3 0-4-1-3-1 10-1 10-3 7h-2c-2 2-5-2-7-10-3-10-3-11 1-15 4-3 7-8 7-11l2-2 1-1-1-1-2-2c-1-8 0-10 3-14l3-4-3-2c-1-2-2-3-1-4l1-5c0-3 2-4 3-1l1 2-1-6c-2-7 0-12 5-15s12-11 12-15c0-3-2-4-2-1-1 2-6 5-7 4l3-5a19 19 0 005-18l-1-2-1-2-1 3-2 2-5 1 1-1 4-5-3 1c-5 4-10 2-10-5-2-9-1-16 1-13 1 2 2 1 3-5 0-4 0-6-2-8-2-3-2-3-2-1l-1 2c-1 0-2 4-1 6s0 5-1 4l-1-2-2-4-1-3v-3c0-4-2-5-1-1 0 2 0 2-3-2l-4-6c-2-1-3-5-1-3 3 1-2-6-7-10-6-5-26-17-29-17l-6-2c-9-4-10-4-11-3m19 23l-2 1c-2-1-8 3-7 5l2 1v-1l1-1c1 1 3 0 5-2 4-2 5-4 3-4l-2 1m-49 2c-1 0-2 1-1 3l-1 2c-2 0-2 1-2 3l-1 3c-1 2-1 2 2 1 4-2 6-4 5-5v-1l1-1-2-1 1-2c2-2 1-3-2-2m-12 4l-8 4c-2-1-4 1-4 3s1 3 3 1a21 21 0 0113-5v-1c-2 1-2 1 0-1l4-2 1-1c0-3-1-2-9 2m-194 0c0 2 0 2-1 1-3-1-7-1-6 1 0 2 0 2-1 1l-1-1a1 1 0 10-2-1H1l-1 7v7h6l6-1 7-1 10-1 12-1 10-1h4c5 2 9 1 12-3 2-3 4-4 5-3l2-1-2-1-3-1-3-1H54c-5-2-9-2-10 0v3l1-1 1-2v4l-5-2c0-1-1-2-3-2-4 0-4 0-3 2 2 2 2 2-3 2l-2-1c1 0 2-1 2-3s0-2-2-1h-7l-4-1c-3 0-4 1-4 2m70 3l-1 2c0 2-1 2-7 2-5 0-7 0-8 2l-1 2c5-2 7-2 10-1h6c3-1 24-2 27-1s3 0 1-2c-3-2-5-3-5-1h-3c-2-1-4-2-8-1-6 1-11 0-10-2h-1M0 332v8h5c5 0 12-2 12-3h4c3-2 2-5-3-7-2 0-4-2-5-3l-7-2H0v7m312 8c0 5-2 11-3 12v2c1 2 0 9-2 13l-1 3c0 3 0 5-1 3-1-1-1-1-1 1 1 2 0 3-4 6l-2 4v1h-1l-1 2a13 13 0 01-2 8c0 2-4 10-5 9l-1 2c1 1 0 2-1 2l-8 6c14 0 35-46 34-72-1-5-1-6-1-2m-88 5l-3 3c-10 1-11 3-11 10 0 2 1 3 2 2l1 2 1 5 2 5 2 2c2 1 3 1 5-2l4-3 1-1 4-4c8-4 8-4 6-8s-4-5-4-3l-2 1-2-1-1-1c-2 0-2-2-1-2v-4c2-1 1-2-1-2l-3 1m47 77c-2 9-2 11-1 11v4c-1 7 1 4 4-8 4-13 4-13 1-13-2 0-3 1-4 6" itemprop="regular" tabindex="-1" style="fill-opacity: 0.684; fill-rule: evenodd;"></path></symbol><symbol id="-posters-1650743150277-bold"><path d="M268 228l-3 1-4 2c-2 2-3 5-1 4h2l-2 2-2 1h4l3-1h3c9-3 11-3 13-2 3 1 3 2 0 1-2 0-4 1-7 4l-10 7-7 3c-3 1-2-3 1-5l2-2-3 1-4 1c-1 1-2 1-4-2-4-5-8-7-9-5h-1l-2-1c-5 1-6 0-3-2l3-2-5 1c-7 0-9 1-9 2l-1 2c-3 2-1 2 5-1l3-2 1 3 3 2 1 1-3 1c-1 0-3 1-4 4-1 2-3 4-7 6l-9 6c-5 4-8 4-3 0 3-3 4-5 2-5l-2 1h-1c-1-1-2 0-5 3l-5 5-4 5a21 21 0 00-6 9c-3 5-4 7-2 6h1l2 1c2 0 1 1-1 3h-2c0-2-2 2-2 7-1 4-2 5-4 6l-2 2-1 1-1 1v1c1-1 5 0 4 1l3 1 3 1-9 1c-2 0-3 0-1 1 3 1 3 2 0 5l-3 4c0 2 0 3-4 4l-3 2c3 0 1 2-3 3-3 1-3 1-1 1s2 0 1 1-1 1 1 2c4 1 3 1-2 1-4 0-4 0-3 1l1 2-2 2-2 2v3c-2 2-1 4 1 4l2 1-3 1h-3l4 5c4 6 4 6 3 2l1-3 3 10 1 1v3l1 3c2 0 2 3 0 5s-1 4 1 4l3-1 2-1 2-1 1-1 6-3 5-4c3 0 10-5 9-7v-8l2-1 5-5c5-4 8-8 11-16l3-8-1-24a53 53 0 017-29l3-3c3-1 3-1 2-2s-1-1 1-1l6-2c3-2 5-2 16-3l15-1c3-1 13-1 17 1 3 2 8 9 12 17l4 8 1 5 1 2c1-1 1 0 1 1s0 2-1 1l-1 2 2 4 2 2 1 6 1 7 2 6c0 4 1 7 3 10 7 10 4 37-6 56-8 17-15 25-21 29-4 2-5 3-7 10-4 14-4 15 2 20l4 5v7c-1 9-4 17-7 17l-6-4-4-4 3-7c2-8 2-10 0-10s-2-1-2-3c0-4-2-7-3-5-1 1-5-2-4-3a55 55 0 00-13-19l-1-2h2c1 1 2 1 2-1s-3-4-9-7c-8-6-18-16-22-23-2-4-8-11-8-9 0 1 0 2-2 2-1 0-3 1-3 3-1 2-2 2-6 2l-6 5c1 3-3 5-4 3 0-1-2 0-6 5l-7 5-1 1-3 2c-4 0-4 2-3 8 2 7 2 9 0 11v2l1 1h-2l-1-2c1-2-1-1-7 3l-7 5-4 3-5 3c-2 2-2 2 0 2 1 0 2 0 1 1l-1 2h1c2-2 7-1 6 1h2v1l-4 2-3 1 2 1 6-1-4 2-2 1-3 1h-2c1-3-2-2-3 0l-4 3c-1 1-3 2-3 4l-2 3v1l-1 2-4 3h-2l-2 2c0 3-3 5-3 3l1-1 1-1h-1c-2 0-3-3-2-10l-1-1-1 8c1 6 1 7-1 7-2 1-2 1 0 1 4 0 5 5 2 10-1 2-2 3 0 2l1 3c0 3-3 6-9 9-3 1-6 3-11 9l-4 4c-1 0-7 7-7 9 0 3-4 9-7 10l-3 4-1 2h-2l-2-2h-3l-3 2 1-1 1-1 1-2c3 0 4-1 2-1l-2-2h-3l-1-1c-1 1-4-1-2-2h1c0 2 2 1 5-2s3-6 0-4l-2 2-1 1c-2 0-1-3 1-4 1-2 1-2-1-1l-2 2-1 1-5 4-4 3 1-2v-1l1-1c1 1 3-2 2-4 0-2-3-1-3 1s-5 8-6 8v-2c1-3 0-3-3 0-7 7-9 10-8 11 3 1 0 6-6 9l-3 3-3 3c-1 2-1 2 1 3s1 3-2 3l-5 3h2c3-2 3 1-1 4l-3 1-2 1c-1 2-1 2 1 2l2-1c0 1-5 9-8 11l-2 3-2 4-5 6c-2 2-2 7-2 45v43h301v-9l-3-29-2-26c0-10-1-19-4-21-1-1-1-3 3-13 8-23 8-23 10-77l3-53c0-5 2-8 2-4l1 5c1 1 1-2 1-7v-8l4-1c6 0 6 0 3 4l-1 2c6-3 10-18 4-18v4c2 1-1 6-3 7-2 0-3-2-1-3 2 0 2-1 0-4l1-4v-3h-2l-3-2c-3-1-6-7-8-13a4 4 0 00-2-5v-2l1-2c-1-1 0-3 3-5 5-4 9-12 6-14l-2-3v-8l1-2v2c0 4 2 0 3-5a30 30 0 011-7l2-11a16 16 0 000-11c1 2 3 0 3-4l4-4c4-1 7-5 11-11 1-2 0-2-3 1l-5 1c-4-1-5-3-2-4 6-2 7-4 6-9a4 4 0 00-5-3h-2c-3 1-1-4 2-5h-10l1 2 2 2 1 1c2 1 2 1 2 5v6h-3l-3-1h-2l-2-2c-2-1-1 2 1 3 1 1 1 2-1 3l-4 2c-2-1-3-8-2-11a5 5 0 00-2-7l1-1 1-2c1-2 2-3 5-3l4-1-1-4c0-5-1-6-1-2v3l-1-3-1-9 1 3c1 2 1 2 1 0l-1-5-2-7-1-6-2-3-2-5c-2-4-2-4-4-3-2 2-2 2-1-1l-1-4-2-3-2-1c-1 1-1 1 0 0 1-2-7-9-11-11l-4-3h-3a14 14 0 00-11-3m-38 84l-6 3c0 1 16 0 19-2l3-2h-7l-9 1m0 14l-6 4 4-1 6-1c5 0 7-1 4-2-2-1-2-1 0-1l3-1c1-2-6-1-11 2M0 333v7h4l7-2 6-2h3v-2l-4-2-2-1-1-1-3-2H8l-2 1-3 2-1-2v-3c-2-1-2 1-2 7m121 143v14l2-3c0-2 1-2 4-2s5-4 2-4v-1c3-2 2-3 0-3l-2-1-1-2-1 2c1 2 0 1-2-1-1-1-1-1-2 1m-38 60l-4 3-3 1-2 1c-1-1-2-1-1 1 0 2-2 4-4 2l2-1v-1c-1-1-2 0-3 1-3 2-5 1-2-1v-2l-3 3-3 3h-2l1 1v1c-1 1-1 1 1 1 1 1 1 1-1 2-2 0-3 1-3 2h1c3-2 10-4 12-3h2l2-2 2-1 1-1c3 1 10-8 10-12 0-2-2-1-3 2" tabindex="-1" itemprop="bold" style="fill-opacity: 0.913; fill-rule: evenodd;"></path></symbol></defs><use class="background" href="#-posters-1650743150277-background" fill="url(#-posters-1650743150277-background-gradient"></use><use class="light" href="#-posters-1650743150277-light" fill="url(#-posters-1650743150277-light-gradient" filter="url(#light-filter)"></use><use class="regular" href="#-posters-1650743150277-regular" fill="url(#-posters-1650743150277-regular-gradient" filter="url(#regular-filter)"></use><use class="bold" href="#-posters-1650743150277-bold" fill="url(#-posters-1650743150277-bold-gradient" filter="url(#bold-filter)"></use><use class="emboss" tabindex="-1" href="#-posters-1650743150277-light" fill="url(#-posters-1650743150277-light-gradient" filter="url(#emboss)"></use><use class="emboss" tabindex="-1" fill="url(#-posters-1650743150277-regular-gradient" href="#-posters-1650743150277-regular" filter="url(#emboss)"></use><use class="emboss" tabindex="-1" fill="url(#-posters-1650743150277-bold-gradient" href="#-posters-1650743150277-bold" filter="url(#emboss)"></use><defs><g class="gradients"><radialGradient gradientUnits="userSpaceOnUse"><stop itemprop="radial" stop-color="hsla(195, 5%, 84%, 1.00)" offset="0%"></stop><stop itemprop="radial" stop-color="hsla(198, 7%, 77%, 1.00)" offset="15%"></stop><stop itemprop="radial" stop-color="hsla(205, 17%, 52%, 1.00)" offset="30%"></stop><stop itemprop="radial" stop-color="hsla(209, 16%, 53%, 1.00)" offset="45%"></stop><stop itemprop="radial" stop-color="hsla(198, 13%, 73%, 1.00)" offset="60%"></stop><stop itemprop="radial" stop-color="hsla(198, 14%, 71%, 1.00)" offset="75%"></stop><stop itemprop="radial" stop-color="hsla(198, 11%, 73%, 1.00)" offset="90%"></stop></radialGradient><linearGradient gradientUnits="userSpaceOnUse" x1="0" x2="0" y1="0" y2="100%"><stop itemprop="vertical" stop-color="hsla(196, 5%, 83%, 1.00)" offset="0%"></stop><stop itemprop="vertical" stop-color="hsla(202, 11%, 64%, 1.00)" offset="15%"></stop><stop itemprop="vertical" stop-color="hsla(207, 17%, 52%, 1.00)" offset="30%"></stop><stop itemprop="vertical" stop-color="hsla(198, 13%, 73%, 1.00)" offset="45%"></stop><stop itemprop="vertical" stop-color="hsla(199, 14%, 69%, 1.00)" offset="60%"></stop><stop itemprop="vertical" stop-color="hsla(196, 5%, 83%, 1.00)" offset="75%"></stop><stop itemprop="vertical" stop-color="hsla(201, 11%, 64%, 1.00)" offset="90%"></stop></linearGradient><linearGradient gradientUnits="userSpaceOnUse" x1="0" x2="100%" y1="0" y2="0"><stop itemprop="horizontal" stop-color="hsla(199, 4%, 71%, 1.00)" offset="0%"></stop><stop itemprop="horizontal" stop-color="hsla(201, 7%, 63%, 1.00)" offset="15%"></stop><stop itemprop="horizontal" stop-color="hsla(205, 17%, 44%, 1.00)" offset="30%"></stop><stop itemprop="horizontal" stop-color="hsla(210, 15%, 45%, 1.00)" offset="45%"></stop><stop itemprop="horizontal" stop-color="hsla(192, 6%, 76%, 1.00)" offset="60%"></stop><stop itemprop="horizontal" stop-color="hsla(192, 7%, 74%, 1.00)" offset="75%"></stop><stop itemprop="horizontal" stop-color="hsla(193, 6%, 72%, 1.00)" offset="90%"></stop></linearGradient></g><g class="generated gradients"><radialGradient id="-posters-1650743150277-background-gradient" gradientUnits="userSpaceOnUse"><stop stop-color="hsla(195, 5%, 80%, 1)" offset="0%"></stop><stop stop-color="hsla(198, 7%, 80%, 1)" offset="15%"></stop><stop stop-color="hsla(205, 17%, 80%, 1)" offset="30%"></stop><stop stop-color="hsla(209, 16%, 80%, 1)" offset="45%"></stop><stop stop-color="hsla(198, 13%, 80%, 1)" offset="60%"></stop><stop stop-color="hsla(198, 14%, 80%, 1)" offset="75%"></stop><stop stop-color="hsla(198, 11%, 80%, 1)" offset="90%"></stop></radialGradient><linearGradient id="-posters-1650743150277-light-gradient" gradientUnits="userSpaceOnUse" x1="0%" x2="0" y1="0" y2="100%"><stop stop-color="hsla(196, 5%, 60%, 0.9)" offset="0%"></stop><stop stop-color="hsla(202, 11%, 60%, 0.9)" offset="15%"></stop><stop stop-color="hsla(207, 17%, 60%, 0.9)" offset="30%"></stop><stop stop-color="hsla(198, 13%, 60%, 0.9)" offset="45%"></stop><stop stop-color="hsla(199, 14%, 60%, 0.9)" offset="60%"></stop><stop stop-color="hsla(196, 5%, 60%, 0.9)" offset="75%"></stop><stop stop-color="hsla(201, 11%, 60%, 0.9)" offset="90%"></stop></linearGradient><linearGradient id="-posters-1650743150277-regular-gradient" gradientUnits="userSpaceOnUse" x1="0" x2="100%" y1="0" y2="0"><stop stop-color="hsla(199, 4%, 50%, 1)" offset="0%"></stop><stop stop-color="hsla(201, 7%, 50%, 1)" offset="15%"></stop><stop stop-color="hsla(205, 17%, 50%, 1)" offset="30%"></stop><stop stop-color="hsla(210, 15%, 50%, 1)" offset="45%"></stop><stop stop-color="hsla(192, 6%, 50%, 1)" offset="60%"></stop><stop stop-color="hsla(192, 7%, 50%, 1)" offset="75%"></stop><stop stop-color="hsla(193, 6%, 50%, 1)" offset="90%"></stop></linearGradient><linearGradient id="-posters-1650743150277-bold-gradient" gradientUnits="userSpaceOnUse" x1="0" x2="100%" y1="0" y2="0"><stop stop-color="hsla(196, 10%, 8%, 1)" offset="0%"></stop><stop stop-color="hsla(202, 10%, 8%, 1)" offset="15%"></stop><stop stop-color="hsla(207, 10%, 8%, 1)" offset="30%"></stop><stop stop-color="hsla(198, 10%, 8%, 1)" offset="45%"></stop><stop stop-color="hsla(199, 10%, 8%, 1)" offset="60%"></stop><stop stop-color="hsla(196, 10%, 8%, 1)" offset="75%"></stop><stop stop-color="hsla(201, 10%, 8%, 1)" offset="90%"></stop></linearGradient></g></defs><defs><filter id="light-filter"><feColorMatrix in="SourceGraphic" type="matrix" values="1.5 0 0 0 0
                0 1.5 0 0 0
                0 0 1.5 0 0
                0 0 0 1.5 0"></feColorMatrix></filter><filter id="regular-filter"><feColorMatrix in="SourceGraphic" type="matrix" values="1.5 0 0 0 0
                0 1.5 0 0 0
                0 0 1.5 0 0
                0 0 0 1 0"></feColorMatrix></filter><filter id="bold-filter"><feColorMatrix in="SourceGraphic" type="matrix" values="1 0 0 0 0
                0 1 0 0 0
                0 0 1 0 0
                0 0 0 1 0"></feColorMatrix></filter><filter id="emboss"><feConvolveMatrix kernelMatrix="3 0 0
                      0 0 0
                      0 0 -3"></feConvolveMatrix></filter></defs></svg>