<svg id="-posters-1650743177930" itemscope="" itemtype="/posters" itemid="/+/posters/1650743177930" viewBox="0 0 512 683" preserveAspectRatio="xMidYMid slice" tabindex="0" xmlns="http://www.w3.org/2000/svg">
  <defs>
    <symbol id="-posters-1650743177930-background">
      <rect itemprop="background" width="100%" height="100%" tabindex="-1"></rect>
    </symbol>
    <symbol id="-posters-1650743177930-light">
      <path d="M0 342v341h513V0H0v342m0 0c0 188 1 265 1 171a137851 137851 0 00-1-171m328 19l-3 1-3 3c-1 1-1 2-2 1h-8c-8 1-13 4-13 9l-1 1c-2 0-2 1-2 4s-2 6-4 6l-3 1-6 3-5 3-15 7-1 1-5 3-6 2v5c0 5 0 5 3 5s3 0 3 5c0 4 0 5 2 7l2 4 3 5c2 3 3 4 3 7l1 4 2 2 2 2 3 2 4 2 5 3c3 3 3 3 8 2l7-3c2-2 13-3 13-1h1v-1l-1-1 4-1 4 1-1 1v1c1 2 2-1 4-9s3-10 3-5l-1 15c-3 1-3 6-1 6s5 4 3 4h-1c-2-2-3-1-3 3s1 4 3 4 3 1 1 3h-4c-3-1-2-2-4 8-2 15-1 26 2 22 1-2 2-2 6-1h7l13-2c11 0 14-2 12-6v-4c0-2 0-3-2-4-4-1-4-3 0-3 2 1 2 1 2-2-1-2-1-3 1-5l2-4c0-2 0-2-1 0l-1 2-3 1c-2 0-3-1-3-2a1 1 0 00-3 0c0 3-10 2-11 0-2-8 2-15 6-11 2 3 1 4-2 2-2-2-3 0-2 4 0 4 1 4 3 4h2l2-6c0-5 1-5 4-5l4-2 3-1c2 1 3 4 1 4-1 0-2 0-1 1 0 1 3-1 3-3h2v-2l1-1 1 1v3l-2 3c-2 0-2 1-2 3 2 5 2 16 0 16v10l1 5c1 3 4 7 6 7l9-5c0-3 2 0 2 3 1 4 2 5 4 2l2-3c2 1 1 20-2 23v4l4-3 4-3v-1c-2-3 3-8 6-7 3 0 3 0 2-2v-3l2-6 1-7 1-8c0-10 1-10 2 1l1 8c2 1 6-5 6-8l2-8a470 470 0 0016-53l6-25c4-22 4-24-5-23-10 1-21 0-28-1l-16-3c-14 0-15-1-17-2-2-3-15-5-17-4-1 1-1 1-1-1s-2-3-4-1h-1c0-5-19-17-21-13m2 9l-1 1c-1-1-5 3-5 4l2 1 2-1 1-2 1 2 2 2 1 1 3-8c0-2-5-3-6 0m125 26v14c1 1 2-4 2-11 0-3-1-5-2-3m-73 7c-2 4-1 9 1 12 3 3 5 2 7-3 2-6 2-8 0-3s-4 6-6 3c-2-1-3-5-1-7l1-3c0-1-1-1-2 1m-27 9v2l-1 5-2 5-2-9-1-2c-1 0-1 4 1 19 0 5 2 7 3 4l3-24h-1m5 8l-2 11c0 4 0 4 4 4 3 0 4-1 1-2s-3-9 0-9c2 0 2 0 1-1a6 6 0 011-10l-3-1c-1 0-2 1-2 8m-19-5l-2 11c-2 10-2 11-1 11l1-2c0-1 1-2 3-2l3 2c1 3 2 2 2-1l-2-8c0-7-2-7-1-1 0 5 0 5-2 5l-1-6c0-5 2-10 2-6l1 1-2-6-1 2m30 12l-3 9-4 7c-4 3-4 14-1 14l4 2h2c0-2-2-4-4-4s-2-1-2-3c0-4 1-6 3-6l2-7c2-7 4-6 4 3 0 7 0 8 2 8 1 0 2-1 2-3l3-9c4-9 4-11 3-11l-2 4c-3 8-5 4-4-6 0-3-4-1-5 2m-13 17l-1 2-1 2-1-2c0-5-3-2-3 3v7l1 2v-1h7v-7c0-6-1-8-2-6m-29 1c-3 8-1 14 3 14 3 0 3-14-1-15l-2 1m9 7l1 8 1-4c0-4 2-3 2 1 1 6 3 3 3-4s0-7-1-5l-2 3-1-3c-2-5-3-3-3 4m32 12c-2 5-3 10-1 6 1-2 4 0 3 2l1 1 3-12c0-4-3-2-6 3m8 3c-2 5-2 6-1 7 2 3 4 2 4 0l1-6a3 3 0 00-1-6c-1-1-2 0-3 5m-49 0c-1 3 0 11 1 11l1-2c0-4 2-4 2 0 1 3 6 4 5 1v-6l-1-5-1 5v4l-1-2-1-7-1 2-1 2-1-2c0-2-2-4-2-1m-4 17l-1 5c0 2 3 1 3 0l2-2c2 0 1 5-2 9-3 3-4 5-2 7h3c0-1 4-2 8-1l5-1c4 0 5-2 2-2-2 0-3-2 0-4 2-1 2-8-1-10-3-3-8 0-6 4 0 1 2 1 2-1s3-1 4 2c0 4-6 10-9 9-4 0-4-1-1-3 2-3 3-9 1-11-2-1-6-2-8-1m25 8l-1 5c-2 3-1 4 7 3v-3l-3-2-1-2-1-3c-1-1-1-1-1 2"
      tabindex="-1" itemprop="light" style="fill-opacity: 0.479; fill-rule: evenodd;"></path>
    </symbol>
    <symbol id="-posters-1650743177930-regular">
      <path d="M0 342v341h253l253-1 2-19 3-25 1-8v7l-4 40 1 6 2-7 1-7v7l1-335V0H0v342m0 0c0 188 1 265 1 171a137851 137851 0 00-1-171m378-57l-2 1-2 2c-1 3-1 3-3 3h-3l-3 1c-2-1-3-1-2-3l-1-1-2 2c0 2-1 2-4 2s-4-1-5-2l-3-2-2-1-1-2-1 3v1c-1-3-4-1-4 3l-2 4-1 2v3c-1 1-1 0-1-1l-2-1-1 3c0 2-1 2-3 0l-2-3h-2l-4 3-2 1h-1c1-2-1-3-2 0h-2l2-2 1-2a4 4 0 00-6 3l-1-1v1l-1 3c-2 1-6 2-6 0l-2-1-2 1-3 1-3 1a334 334 0 0068-4h13c16-1 15 0 17-14 0-5-1-7-3-4h-1l-1 1c0 3-2 2-5 0-3-3-3-3-4-1m60 19l-5 2-4 1 3 2 6 2 2 1h3c2-1 2-1 0-1-3 0-7-2-7-3l2-1 3 2a1 1 0 100-2l-1-2-1-2-1 1m-66 24c-7 1-24 4-33 7h-9c-3 0-4 0-3 1h-1l-3 1-3 2-3 1-8 3-7 3-5 3-3 2-2 1-12 3c-7 3-11 4-15 3l-7 1c-1 3-2 0-1-7v-7l-1 6-3 9-1 7-1 4-2 3-1 3-1 4c0 4-7 3-13-2-2-1-2-1-2 1h-1c-1-3-3-2-6 0l-8 6-2 2-3 1-1 1-6 3-4 3c0 1-1 2-3 2l-2 2 1 2c0 2-4 3-6 1l-3-1v2l2 1h-5c-1-1-1-1-1 1s0 2-4 1l-4 1c-2 3-8 5-11 4l-14 3-13 3-3 1-9 3-6 1v3l1 4v4c1 2 1 4-1 4v3l1 8 1 5v2c-1 0-1 5 1 13 0 2 1 6 3 8 2 4 1 11-1 9h-2c-1 1-1 2 1 2v2c-1 1-1 2 1 6a25 25 0 013 11l-1 2v6l1 4 1 3c3 3 3 8 1 8l-2-1v2l2 5c1 1 1 1-1 1l-2-1 2 3 3 4 1 2 2 12c3 4 4 4 4 0 0-5 1-7 1-2l1 5 1-33 1-44 1-11v17a1722 1722 0 001 35c0 5 4 4 4-1a193 193 0 017-48l2-9 2-2v4l1 4v2l-1 6 1 15c1 27 3 36 4 17 0-15 2-13 2 2v16h3l5-1h1l1-1c2-2 12-4 22-3 18 2 21 1 23-2 4-8 8-26 9-42 1-6 2 8 2 19 0 19 2 32 4 32 1 1 2 0 3-1h2l5 1 4 1v1l-5 4 5 1c4 0 4 1 4 3s0 2 2 1l5 1c3 2 5 3 3 1-1-2-1-3 1-3l3-2c2-2 6 0 7 4l3 2h3v3l-3 2c-2 2-2 2 0 4 3 2 5 5 5 8h2c2-2 5-1 6 1l2 1 6 6c1 2 3 3 3 1l-3-6-4-7-1-3v-1l3-1 7 1 6 2c2 1 0 2-4 2l-5 1-1 1h5c3 0 5 0 7 2 3 2 4 2 4 1l-1-2-3-5c-1-4-2-4-4-4-5 2-15 0-16-2l-2-4c-4-3-1-3 4-1s6 2 6 1c-1-1 0-1 2-1l1-1 2-1 8-2a169 169 0 0111-4h8l8 2c7 2 9 3 11 10l6 11a50 50 0 016 11c4 5-1-9-8-21l-4-7c0-2 17 0 22 3 8 4 10 6 10 16l2 2 4 3 4 2v3l-2 1-6 5-2 1-1 1-2 1c0 1 18 1 19-1l7-1 9-2c4-2 12-2 15 1 2 3 5 4 5 1l2-2 2-2 3-3 2-3 2-2 1-2 2-2 1-3c0-6 3-9 8-9l5-1c0-2 1-2 4-2 4 0 4 0 4-4 0-3 0-3 1-2l3 1c2 0 3 2 1 2-1 1 0 1 4 1l1-1c0-1 1-2 3-2 3 0 6-1 9-4l6-4 1-8a16 16 0 00-4-12l-1-4v-1c-4 2-4-6-2-13l3-8 2-9c2-9 4-23 4-32l1-8-4-1-6-2 4-5c4-4 6-6 7-9l1-3 3 10 1 2c2-2 1-6-1-10-2-3-3-9-1-16v-5l-1-4c0-3 0-3 2-2 2 0 2 0 1-2-3-3-3-19 0-19h3l-3-1c-2-1-2-2-1-11v-10l-3-3-5-3-1-1-2-1-2-1h6l-3-2c-1-2-3-3-3-2-1 2-9 0-10-2-2-3-4-3-4 0-1 2-1 2-2 1s-1-1-1 1a5 5 0 01-3 4l-8 7-5 13c-2 5-3 5-3 1-1-2-2-3-3-2l-1-1c0-4-3-2-5 4-2 7-3 8-3 4l-1-3-1-8-1-7-1 1c1 1 0 3-1 3l-1 3h-4c-1-1-7 1-11 5l-4 1-4 1h-1l-2 1c0 2-4 3-4 1l-12 1-4 1c-4 0-10 3-10 5 0 1-2 2-5 1-2 0-2 0 1 2l3 3-5-1c-6 0-8-2-5-3l2-2-1 1-5-3c-4-3-10-3-13 0-2 2-3 1-3-2-1-3 0-3 2-3h1l-1-1-3-2-4-3-3-4c-4-4-4-6-1-5 2 0 2 0 0-1-1-2-2-2-8 0l-9 1-6 2-12 3c-5 0-11 2-13 3l-19 6a129 129 0 00-21 7l-2 1c-1 1-1 0-1-3v-4l13-2a691 691 0 0046-11l6-2 7-2c14-2 22-5 25-10 5-8 22-15 27-11 1 2 4 2 26 2l22 2 4 2 6 2c5 2 12 3 12 2l-5-2c-6-1-14-4-16-6-2-1-5-2-14-2a61 61 0 01-18-2h-24M134 441v7l2 11c0 6 2 3 2-6 0-7 2-8 2-2 0 3 0 3 1 1l2-2 1 3 1 4v-4l1-7-1-4h-3l-8-1m22 3c-1 1 0 6 2 11l2 5v-5l2-7c2-4 1-5-2-5l-4 1m328 2c-1 3-3 18-1 18l1-5 3-9c3-6 1-9-3-4m26 12a150 150 0 00-2 46c-2 0-1 2 1 4 2 3 3 4 1 4s-2 3 0 5 2 2 2-34c0-31-1-33-2-25m-12-5c-2 5-3 17-2 22l1 6 1-7c2-12 2-21 1-21h-1m-43 18l-2 2c-1-3-5-1-4 1 1 3-1 6-4 6l-4 4-2 4-1 3a3 3 0 11-6 1c0 4 0 4-3 4s-4 1-6 6c-1 3 0 5 3 5l4 3 5 2c3 0 5 3 3 4-1 1-2 1-3-1l-3-2-4-1-4-2c2 2 0 3-3 2l1 2 2 1h1l-3 1c-3 0 3 4 7 5l6 2c1 2 8 1 7-1l1-1v-2h1c2 3 4 2 6-1l4-3c2 1 2 0 1-2 0-2 0-2 1-1l1-4v-34c-1-5-1-5-2-3m33 17c-2 8-2 12 0 13 3 1 3 1 4-1 1-3 1-5-1-5l-1-5c1-6 0-7-2-2m-275 41h-2l-1 1 2 2 7 4 5 5-2 2c-2 2-2 2 0 2 2-1 3 0 1 1l-1 2c1 3 4 1 4-3 0-3 0-3 3-4 4-1 4-2 4-4 0-4-2-5-10-5-5 0-8-1-8-3h-2m85 2h-12c-8 0-8 2 0 6l1 1c-3 0-2 2 2 3l4 3h5l3-2c3 0 4-3 2-4v-1l1-2 1-4h-7m-109 20c-1 1 0 3 2 3l1 1 1 1 3 2c2 3 14 4 14 2 1-4-18-12-21-9m56 1c-2 3-2 3-5 2-3-2-5 0-4 3l3 3v-2l-1-2c2-1 5 4 5 8-1 3-1 4 1 4a5 5 0 007-5l1-3c-1-1 2-7 3-8v-1h-2c0-1-1-1-1 1l-3 1 1-1 1-1c0-2-5-1-6 1m-27 3v4c1 0 2 2 1 3l2 1 3 1 1 1c2 0 1-4-3-8s-4-4-4-2m6 17c-1 4-1 5 2 9 2 2 3 3 4 2l1 2c0 2-1 3-2 3-3 1-3 4-1 3 2 0 2 0 1 1-1 2-1 2 1 3 6 1 7-3 4-9l-2-5-4-6-2-4c0-2-2-1-2 1m-32 15l2 1c2 1 2 1 2 4-1 3 1 5 3 2 1-1 1-1 1 2l1 4 2 1c1 2 13-1 14-3l3-4c3-2 3-3-1-2-2 0-3 0-3-2s-1-2-8-2l-12-2-4 1m121 4v9c-3 1-3 9-1 11 2 0 3 1 3 4 0 9 3 13 23 21l6 2 2 1 19 5c7 2 33 5 29 3l-1-1c0-2-1-2-4-1-4 1-8 0-7-1h3c2 0 2 0 1-1l-4-1-6-2-43-11c-2 0-3-3-1-5 1-2 3-2 4-2h4l3-1 4-1h5c1-2 7-2 10 0l16 2 14 1c0 2 10 1 12 0 1-2 1-2-1-2h-3c1 1 0 1 0 0l-1-1-6-3-8-6c-1-3-1-3-12-3h-24l-11 2-9 1h-2l1-3 2-1 3-1c0-1 7-2 20-2 4 0 6-1 7-2l15-1h14l-6-1-9-1-9-1-5-1-10-2c-11-1-13-2-11-3 1-1-2-1-7-1l-14-1-5 1m-58 22l-2 1c-3 0-3 3 0 6 2 3 2 3 3-2 1-1 2-2 3-1 2 0 2 0 1-2s-5-3-5-2m57 59l2 1c2 0 1 2-2 3-5 0-5 2 0 2l5 2h3l1 1h3a2 2 0 114-2l1 1c4 0-6-7-10-7-2 0-2 0 0-1s2-1-2-1l-5 1"
      itemprop="regular" tabindex="-1" style="fill-opacity: 0.6; fill-rule: evenodd;"></path>
    </symbol>
    <symbol id="-posters-1650743177930-bold">
      <path d="M0 342v341h100l99-1-1-7c-2-6-5-28-9-55-7-44-8-54-7-54l5 1 5 2 1 5 1 6 30 2-2-4-4-7c-3-5-5-6-15-5-9 1-11 1-11-2l-8-7c-8-5-10-8-6-8l1-2-3-10-4 3-5 3c-1 4-7 9-9 7-1-2-6 1-6 3l-1 2-3 4-3 4-2 17c0 16 0 16-2 16-1 0-2 1-2 3s1 3 2 3c2-1 2 1 0 3-3 3-4 2-4-5 0-5 0-6-2-7-4-2-4-3-1-5 2-1 2-2-2-8l-5-10c0-8-3-15-8-18v-2l1-1h1c3-2 1-5-2-5s-3 0-4-3l-1-2v-2c1-1 0-1-5-1l-5-1c0-1-1-2-3-2h-4v-7a3 3 0 012-5l-2-1c-3 0-4 1-2 3 2 1 1 4-1 6-3 3-3 2-3-3l-1-5c-2-2-2-3-1-3l4-1c0-2-4-7-5-6l1 1v2l-3 1c-2-3-4-30-3-43 1-9 0-17-1-17l-1 7c-1 6-2 11-4 11v-1c0-2-3-2-4-1-2 2-3-2-2-6a46 46 0 017-14 3 3 0 015-3v-1l1-4 3-5c2-2 1-3-1-3-4 1-3-5 1-9l7-3 9-2 11-1 8-1-1-1c-2 0-1-3 2-4s3-3 0-4l-3-2-2-2-1-1-4-4c-3-3-4-7-1-6h2c0-2 1-2 6-1l13-1 13-3c7-2 8-3 2-3-4 0-4 0-2-1l3-3 2-2 11-4 4-1 3-1 2-1 4-2c2-1 4-2 5-1l3-1 4-2h4l-3-1-2-1h2l2-1 1-2 1-1 3-1c2-1 6 0 7 3l1 3v-3c0-2 2-4 5-4 2 0 2 0 2 3-1 2 0 3 2 1l2-1 2-1c0-2 5-1 6 1v3h1l3-1 6-2 4-2 3-2h1l-1 2-1 2 1 1v6c-1 0-1 2 1 5h2l3-2c2 0 1-3-1-4v-1l1-2 2-5 2-6 2-4 2-7c1-5 3-8 5-8l2-3c2-8 2-8 2-2 0 4 0 7-2 9-1 2-1 6 2 6h2c0-1 9-5 13-5l3-1h1c2 2 7 2 7-1h2c3 1 7 0 7-2l2-1 1 1h4l1-1c-1-1 0-2 2-3l4-3 5-1 4-2 3-1 3-2 2-1 6-1 9-2 6-1 4-2 7-2c2-1 3-2 4-1l3-1 6-2 8-2c2 0 3 0 5 3a24 24 0 0016 6c2 1 2 1 1 3v1l3 1 3-1c2-2 4-2 6 0s9 0 9-3 4-2 14 2l2 3 3 1 12 2 9 3 2-3 2-6 3-5c2-2 1-4-1-4v-1l2-2 2-3c1-2 1-2-1-2l1-2 2-3 3-2 1-1c-2-2 0-8 2-8l2-2 2-3 2-3c0-2 0-2 1-1 2 1 4-2 4-6l1-1c2 0 8-7 8-8a9 9 0 016-9l2-2c2-1 2-1 2 214v215l1-341V0H0v342m0 0c0 188 1 265 1 171a137851 137851 0 00-1-171m179-145c-2 35-3 40-3 20v-25c0-8-1-9-2-2-1 29-1 32-3 33v4l-2 7v2c1 1 1 4-1 10v4c1 1 1 8-1 7l-1-2h-1l-1 5-1 4v-4c1-18 1-20-1-20l-1 1-1-1-1-5c0-3 0-3-1-2-1 3-3 1-2-1l3-7c3-4 4-13 2-24-1-4-5 0-8 7l-4 7c-2 3-2 5 0 5s5 3 3 4c-1 1-4 0-8-1-2-1-5 3-6 7-1 3 3 3 7 0 3-2 7 0 7 3l3 4 1 7 1 7c3 5 0 7-8 7-7 0-9 1-6 4l1 2c-3 3-6-9-3-12 2-3 1-7-1-8s-2-2-2-3c2-5-5-9-7-5l-2 3v1l-1 2c-4 2-5 5-6 13l-1 7c-2 2-2 3 0 7 1 5-3 9-9 7-2-1-2-1-3 2-1 2-2 3-3 2-2-1-1 6 1 11l2 5h10c10 0 15-3 15-8 0-3 2-5 6-5 2 0 3-1 3-4s0-4 2-4c3-1 3-1 3 1l-2 4-1 7c-2 7-3 22-1 21 2 0 1 2-1 4l-2 2h2l25 5a6 6 0 006-2h4c2-1 5 0 8 1 5 1 5 1 9-2 5-4 6-4 10-3 8 3 19 4 25 3l5-1v-6c-1-5-1-5 2-6l5-2c3-2 14-2 18 0l5 1c2 0 4 1 7 4l4 3h21c19 0 33-1 63-4l17-1c15-1 23-3 17-5-2 0-2 0-1-12 1-13 2-17 3-17l-1 24c-1 1-1 2 1 2l1-2 2-2 1-2 3-4c2-2 3-5 3-7l2-3 4-9c0-4-4-6-8-6-4 1-4 1-2-1 4-3 12 1 14 6l1 5v8c1 1 2 2 1 4l1 5c2 3 2 4 1 6v5c3-1 6 3 4 5-3 2-3 3 5 6l11 4 6 3 9 5 6 4 2-5v-1l1-3 1-4v-9l-1-9v-8h-4l-9 1c-6 1-7 1-7-4l-1-3c-2 0-3 2-2 3 0 1 0 2-2 3l-2 1h2l2 2c0 2-4-1-6-4v-7l2-13 1-13c2-8 2-21 0-23l-2-4v-3l2-1 2-1c0-1 0-2-2-2h-2c-3-1-4 0-4 2h-2l-2-3-2-2c-2 0-2 0-2 2 0 3 0 3-4 3s-4 0-4 3l2 2 1 1-1 1-2 2-1 2-1-2-1-2c-2 0-2 0-2 2l-2 2-1 1-2 1-2-1v-2l-1-6c0-8-1-11-2-6l-1 4v-4l1-5v-3c-1-1-1-1-1 1 0 4-5 6-6 2-1-3-3 0-2 3l-1 2-1-1-1-2c-1 0-2-1-1-2l-1-3-1 1-1 2c-1 1-2 2-1 3l-1 3-5 1a4 4 0 01-6-3v-2l-2-1-2 1c-3 0-3 0-2 3 2 4 0 14-3 18l-3 1-2 1c-4 4-22 2-22-3a1 1 0 10-3 1c0 3-1 3-3 0s-8-3-11-1l-5 4-2 1-2 1-8 1-9-1-5-1-1-2-3-1-5-3-1-4-3-5-1-1-1-2-2-3-3-4c0-1-3-2-5 0l1 2c6 4 7 5 4 4l-6-2c-3-1-3-1-3 1s0 2 2 2h2l5 1c3 0 4 0 4 2 1 3 1 3-3 1h-5l-2-1c0-2-4-3-4-1h-3l-1-4c-2-1-2-1-3 1l-2 2-1 3v1c-1-3-3-4-5-3-3 2-6 1-6 0 1-2 0-2-2-2s-2 0-2-2c1-1 0-2-1-3-1-2-1-2-1 0l-2 2c-1-1-2 0-3 1h-4l-1 2a3 3 0 11-5-3l3-3c0-4 1-4 2-4l4-1c2-1 2-1 4 1l3 2v-8c-1-8-1-9-3-6h-3c0-1-1-2-5-1-5 0-5 0-5-3v-2l-3 2c-2 2-2 2-3 1-1-2-1-1-3 3-2 5-3 5-5 1l-2-2v3c0 4 0 4-2 2-2-1-2-1-4 1l-4 2c-1 0-2 1-2 5l-1 17-2 23-1 11-1 4c1 4 0 5-1 4l-1-4v-10l-1-38c0-39 0-48-1-23m102 45l-1 2c0 2 7 5 9 4s0-4-2-4l-3-1c-1-1-2-2-3-1m66 4c1 3-1 5-3 6-3 1-2 4 0 5 2 0 3 0 4-2l3-2 1-1v-3c2-3 0-5-3-5-2 0-2 0-2 2m-36 7l-3 2-3 1-5 3-3 3h3c4 0 6 2 2 2-3 0-6 2-4 2 4 3 23-2 21-5 0-1-6 0-8 2-1 1-4 0-4-1s2-3 4-3c5-3 6-7 0-6m15 3v1l2 5c0 5 1 6 3 4v-8l-1-1-2-3-2 2M175 364l-4 1c-2-1-3 0-4 1h-3l-2 1-4 1-2 1 2 1h4a16 16 0 0010-2c-2 0-2 0-1-1h7l2-2 3-1h-8m12 177c0 3 1 4 22 6l4-1c0-2-4-3-11-3l-8-1c-4-2-7-2-7-1m131 27c-3 0-3 5 1 7l15 4c4 0 4 0 3-3-1-4-2-5-5-5l-6-1c-2-2-5-3-8-2m101 11c-1 1 0 1 1 1l3 1h-4c-9-1-18 1-18 4-1 2-1 2-2 1-1-2-4-3-4-1 0 3 5 5 11 5 6 1 8 0 7-2s2-1 4 2c2 1 2 2 1 2l1 2 3 1a2 2 0 110 3c-1-2-1-2-1 0l1 2c2 0 10 8 10 9h-1c-2 0-2 0-1 3l4 2 2 1-1 1-1 3c0 2-1 3-3 3s-3 1-3 3l-1 2-1-2-2-2c-3 0-19-7-24-10l-5-3-4-1c-2-3-4-2-4 0s4 4 7 4l5 2c2 2 10 6 21 10a27 27 0 018 4l1 2c1 2 0 2-1 1l-6 1c-5 3-7 2-15 0-5-2-6-2-7-1l-3 1h-2l2-1c2-1 1-1-3-1l-7-1c-2-1-13-3-11-1l6 2 5 1c-1 2-8 1-36-5-14-4-18-4-18-1 0 2-1 2 25 7l29 7c33 9 31 8 32 6h13c4 1 2 3-3 3-23 3-61-1-85-9-9-3-13-5-24-11h-5l-2 2v7c4 5 14 13 15 13l12 4 14 6a150 150 0 0039 6l15 1 6 1c0 2 9 10 13 12 3 2 6 2 41 2h38l1-18 2-31c0 2-1 2-6 2-8-1-10 1-8 7 1 2 1 2-1 3-2 0-4-2-3-4l-2-3c-2-1-1-4 2-4l3-1h1l1-1 4-1h3l-3-3-3-5-13-7-2 2-2 2c-2-1-2-3 1-4l3-1-4-2-7-1c-3 0-6-3-6-6 0-1-2-4-5-6-6-6-4-6-16-3-2 0-4 1-4 3s-2 3-3 2c-3-2 3-10 7-10s4-1 2-4h-1c1 3-3 2-5 0s-5-4-8-4c-10-3-10-3-6-4 2-1 2-1 0-2h-9m-93 7l7 1c6 0 10 1 8 2l5 2c6 3 7 2 3-2-3-3-4-3-12-3l-10-1-1 1m44 2l-8 3c-4 1-8 3-5 3l16-5 8-1c5-1 5-1-2-1l-9 1m-102 3c-5 3-8 9-5 9l3 5a7 7 0 005 7h2c0 2 0 2 6 1l4-2-1-6c-1-5 1-7 2-4h1l-2-3-1-4-1-2-1-2h-1c-1 2-5 3-5 1l1-1v-1c-3-1-3-1-7 2m129 4c0 3-1 4-3 5-1 1 0 1 1 1l19 4 7 1c1-1-6-11-7-11l-9-1-8-2v3m-108 25c-2 2-1 3 1 3 3 0 4 1 5 3l1 4c0 2 0 2-9 2-5-1-12 0-15 1-10 2-14 1-17-1-2-2-4-3-5-1l4 5c3 3 3 3 1 4l-4 4-4 3v2c3 6 28 11 32 7l3-2 5-4c5-5 9-7 13-6 7 1 12-8 5-9l-3-3-2-4-2-4c2-3-6-7-9-4m91 48c2 3 30 5 31 3h-5l-23-3h-3m-174 5v4c0 3 0 3-3 4-7 1-2 2 15 2 16 0 19-1 19-2l2-3-4-1-26-4h-3m34 5h6l18 1c13 2 16 2 6 0-9-2-30-3-30-1"
      tabindex="-1" itemprop="bold" style="fill-opacity: 0.9; fill-rule: evenodd;"></path>
    </symbol>
  </defs>
  <use class="background" href="#-posters-1650743177930-background" fill="url(#-posters-1650743177930-background-gradient"></use>
  <use class="light" href="#-posters-1650743177930-light" fill="url(#-posters-1650743177930-light-gradient" filter="url(#light-filter)"></use>
  <use class="regular" href="#-posters-1650743177930-regular" fill="url(#-posters-1650743177930-regular-gradient" filter="url(#regular-filter)"></use>
  <use class="bold" href="#-posters-1650743177930-bold" fill="url(#-posters-1650743177930-bold-gradient" filter="url(#bold-filter)"></use>
  <use class="emboss" tabindex="-1" href="#-posters-1650743177930-light" fill="url(#-posters-1650743177930-light-gradient" filter="url(#emboss)"></use>
  <use class="emboss" tabindex="-1" fill="url(#-posters-1650743177930-regular-gradient" href="#-posters-1650743177930-regular" filter="url(#emboss)"></use>
  <use class="emboss" tabindex="-1" fill="url(#-posters-1650743177930-bold-gradient" href="#-posters-1650743177930-bold" filter="url(#emboss)"></use>
  <defs>
    <g class="gradients">
      <radialGradient gradientUnits="userSpaceOnUse">
        <stop itemprop="radial" stop-color="hsla(15, 10%, 8%, 1.00)" offset="0%"></stop>
        <stop itemprop="radial" stop-color="hsla(5, 47%, 19%, 1.00)" offset="15%"></stop>
        <stop itemprop="radial" stop-color="hsla(7, 51%, 32%, 1.00)" offset="30%"></stop>
        <stop itemprop="radial" stop-color="hsla(9, 41%, 35%, 1.00)" offset="45%"></stop>
        <stop itemprop="radial" stop-color="hsla(7, 29%, 39%, 1.00)" offset="60%"></stop>
        <stop itemprop="radial" stop-color="hsla(2, 28%, 37%, 1.00)" offset="75%"></stop>
        <stop itemprop="radial" stop-color="hsla(2, 30%, 25%, 1.00)" offset="90%"></stop>
      </radialGradient>
      <linearGradient gradientUnits="userSpaceOnUse" x1="0" x2="0" y1="0" y2="100%">
        <stop itemprop="vertical" stop-color="hsla(7, 18%, 10%, 1.00)" offset="0%"></stop>
        <stop itemprop="vertical" stop-color="hsla(6, 51%, 26%, 1.00)" offset="15%"></stop>
        <stop itemprop="vertical" stop-color="hsla(9, 43%, 34%, 1.00)" offset="30%"></stop>
        <stop itemprop="vertical" stop-color="hsla(8, 28%, 39%, 1.00)" offset="45%"></stop>
        <stop itemprop="vertical" stop-color="hsla(1, 32%, 35%, 1.00)" offset="60%"></stop>
        <stop itemprop="vertical" stop-color="hsla(7, 18%, 10%, 1.00)" offset="75%"></stop>
        <stop itemprop="vertical" stop-color="hsla(7, 51%, 27%, 1.00)" offset="90%"></stop>
      </linearGradient>
      <linearGradient gradientUnits="userSpaceOnUse" x1="0" x2="100%" y1="0" y2="0">
        <stop itemprop="horizontal" stop-color="hsla(12, 12%, 8%, 1.00)" offset="0%"></stop>
        <stop itemprop="horizontal" stop-color="hsla(6, 48%, 19%, 1.00)" offset="15%"></stop>
        <stop itemprop="horizontal" stop-color="hsla(7, 54%, 33%, 1.00)" offset="30%"></stop>
        <stop itemprop="horizontal" stop-color="hsla(8, 47%, 37%, 1.00)" offset="45%"></stop>
        <stop itemprop="horizontal" stop-color="hsla(7, 38%, 42%, 1.00)" offset="60%"></stop>
        <stop itemprop="horizontal" stop-color="hsla(4, 34%, 39%, 1.00)" offset="75%"></stop>
        <stop itemprop="horizontal" stop-color="hsla(1, 33%, 26%, 1.00)" offset="90%"></stop>
      </linearGradient>
    </g>
    <g class="generated gradients">
      <radialGradient id="-posters-1650743177930-background-gradient" gradientUnits="userSpaceOnUse">
        <stop stop-color="hsla(15, 10%, 80%, 1)" offset="0%"></stop>
        <stop stop-color="hsla(5, 47%, 80%, 1)" offset="15%"></stop>
        <stop stop-color="hsla(7, 51%, 80%, 1)" offset="30%"></stop>
        <stop stop-color="hsla(9, 41%, 80%, 1)" offset="45%"></stop>
        <stop stop-color="hsla(7, 29%, 80%, 1)" offset="60%"></stop>
        <stop stop-color="hsla(2, 28%, 80%, 1)" offset="75%"></stop>
        <stop stop-color="hsla(2, 30%, 80%, 1)" offset="90%"></stop>
      </radialGradient>
      <linearGradient id="-posters-1650743177930-light-gradient" gradientUnits="userSpaceOnUse" x1="0%" x2="0" y1="0" y2="100%">
        <stop stop-color="hsla(7, 18%, 60%, 0.9)" offset="0%"></stop>
        <stop stop-color="hsla(6, 51%, 60%, 0.9)" offset="15%"></stop>
        <stop stop-color="hsla(9, 43%, 60%, 0.9)" offset="30%"></stop>
        <stop stop-color="hsla(8, 28%, 60%, 0.9)" offset="45%"></stop>
        <stop stop-color="hsla(1, 32%, 60%, 0.9)" offset="60%"></stop>
        <stop stop-color="hsla(7, 18%, 60%, 0.9)" offset="75%"></stop>
        <stop stop-color="hsla(7, 51%, 60%, 0.9)" offset="90%"></stop>
      </linearGradient>
      <linearGradient id="-posters-1650743177930-regular-gradient" gradientUnits="userSpaceOnUse" x1="0" x2="100%" y1="0" y2="0">
        <stop stop-color="hsla(12, 12%, 50%, 1)" offset="0%"></stop>
        <stop stop-color="hsla(6, 48%, 50%, 1)" offset="15%"></stop>
        <stop stop-color="hsla(7, 54%, 50%, 1)" offset="30%"></stop>
        <stop stop-color="hsla(8, 47%, 50%, 1)" offset="45%"></stop>
        <stop stop-color="hsla(7, 38%, 50%, 1)" offset="60%"></stop>
        <stop stop-color="hsla(4, 34%, 50%, 1)" offset="75%"></stop>
        <stop stop-color="hsla(1, 33%, 50%, 1)" offset="90%"></stop>
      </linearGradient>
      <linearGradient id="-posters-1650743177930-bold-gradient" gradientUnits="userSpaceOnUse" x1="0" x2="100%" y1="0" y2="0">
        <stop stop-color="hsla(7, 10%, 8%, 1)" offset="0%"></stop>
        <stop stop-color="hsla(6, 10%, 8%, 1)" offset="15%"></stop>
        <stop stop-color="hsla(9, 10%, 8%, 1)" offset="30%"></stop>
        <stop stop-color="hsla(8, 10%, 8%, 1)" offset="45%"></stop>
        <stop stop-color="hsla(1, 10%, 8%, 1)" offset="60%"></stop>
        <stop stop-color="hsla(7, 10%, 8%, 1)" offset="75%"></stop>
        <stop stop-color="hsla(7, 10%, 8%, 1)" offset="90%"></stop>
      </linearGradient>
    </g>
  </defs>
  <defs>
    <filter id="light-filter">
      <feColorMatrix in="SourceGraphic" type="matrix" values="1.5 0 0 0 0
                0 1.5 0 0 0
                0 0 1.5 0 0
                0 0 0 1.5 0"></feColorMatrix>
    </filter>
    <filter id="regular-filter">
      <feColorMatrix in="SourceGraphic" type="matrix" values="1.5 0 0 0 0
                0 1.5 0 0 0
                0 0 1.5 0 0
                0 0 0 1 0"></feColorMatrix>
    </filter>
    <filter id="bold-filter">
      <feColorMatrix in="SourceGraphic" type="matrix" values="1 0 0 0 0
                0 1 0 0 0
                0 0 1 0 0
                0 0 0 1 0"></feColorMatrix>
    </filter>
    <filter id="emboss">
      <feConvolveMatrix kernelMatrix="3 0 0
                      0 0 0
                      0 0 -3"></feConvolveMatrix>
    </filter>
  </defs>
</svg>
