<svg id="-posters-1650743324869" itemscope="" itemtype="/posters" itemid="/+/posters/1650743324869" viewBox="0 0 512 683" preserveAspectRatio="xMidYMid slice" tabindex="0" xmlns="http://www.w3.org/2000/svg"><defs><symbol id="-posters-1650743324869-background"><rect itemprop="background" width="100%" height="100%" tabindex="-1"></rect></symbol><symbol id="-posters-1650743324869-light"><path d="M0 3l2 6 3 2-3-2-2-1v7a14 14 0 003 10c-1 1 3 16 4 17l1-1h1l-2 2-1 4 1 2-2-2c-5-4-5-8-5 91v94l4 2c3 2 4 2 3 4l1 5c2 3 0 6-4 5-4-2-4-12-4 218v217h513V248l-1 8a13 13 0 01-6 13l-1 2c-2 2-2 2-2 0a6 6 0 011-4h-1v-1l-1-2c-1-2-2-3-5-3h-10v2l1 1h-3c-1-1-1-1-1 2l-1-1a9 9 0 01-2-7c-1 2-5-3-5-9-1-4-1-5 2-10 7-13 11-16 25-16h9v4c1 3 1-48 1-111V0h-45l-3 4-8 9-9 8-10 8-4 3v-3l7-5 6-5 8-7 4-4h-2l-1 1a13 13 0 016-7l-1 2-2 2 3-1c3-3 2-5-2-5-2 0-3 0-3 3l-1 3V3c0-3 0-3-7-3-9 0-11 2-12 10 0 6-2 9-2 4 1-5-2-5-3 1 0 4-2 9-6 14l-3 3v-3c0-5-2-3-3 2l-1 3c0-2-3-3-3-1v6c-1 5-2 7-5 7-5 0-15 10-15 14s4 10 7 10c1 0 2 1 2 3v4l1 2 4-1c0-3 0-5 2-5v1c-1 2 0 7 1 6l1-4c0-4 0-3 4-2l8 2 5 1 1 4c0 1 0 2-2 2-4 1-10 5-12 7-3 4-1 10 3 10l2 2c0 2 1 2 2 2 4-1 3 16-1 19-3 2-3 4-1 6l1 1c-1 0-2 2-2 5l-2 7-1 3 1-1 2-2h1l-1 2v4l-1 4-2-1c0-2 0-2-6 0h-6l-1 2c-2 0-2-1-1-2l2-6 1-5v3c-1 4 4 3 5-2l2-2 1 1v1c2 0 6-3 5-4l-3 2c-1 1-1 1-1-1l-1-7-2-2c0-3-4-3-4 0s-3 4-3 2l-5-1c-5 1-5 1-6 14v6h8l-4 1c-3 0-4 0-3 2l3 1h2l3 1c8-2 18-2 18-1 1 1-3 4-5 4l-2 2-2 1-3 2-2 1h-2c-4 3-12 8-13 7s0-10 1-13c1-2 1-2-1-2-1 0-2 0-1-2h3l-3-1c-3 0-4-9-1-12s3-5-1-7l-4-3-1-2c-1-1-1 0-1 2 0 4-1 5-7 5-3 0-4 0-3 1l2 1-1 1c-2-1-2 0 0 2h1l2 1c2 2 2 2 1 0v-4l1 1 2 3 2 3v1h1l2 1c2 2 0 8-3 10-1 1-2 2-1 3l-2 4c-4 2-4 4 0 5 2 1 3 3 2 3a135 135 0 000 27h1l-2 4-1 5 2 6 2 7c1 2 1 2-1 2h-3c0-2-4-3-4-2a2 2 0 01-4-2c1-4 4-5 4-2 0 2 0 2 1 1l2-2 1-1-1-1-1-2c1-2 0-3-1-3l-1 1h-1l-1 2c1 3 0 3-1-1l-2-2h-1l-3-1-4-1-5 1-6 3a12 12 0 01-10-1l-2 1-1 1v-5l1-2 1-3-2-1h-2v6l-2 6-1-7v-7l-1 8-1 7v-26l-2-4c-3-3-3-3 0-7 3-3 3-4 2-5l-1-27-1-30c-1-3-1-5 1-7l1-8c0-4 0-5 2-6l2-2v-1l2 4c1 3 1 3 1 1 0-3 1-4 4-1 1 1 2 2 2 0v-1c-2 0-1-4 2-5 3-2 5-6 4-10-2-6-1-10 1-11 9-3 10-16 2-19l-3-3-1-1c-1 0-2-1-2-3 0-1 0-2-1-1l-1 2c0 1 0 2-2 2l-2 1c0 1-1 2-3 1-3 0-9 3-9 6l1 2 1 4c0 5 3 9 7 10 2 1 2 4 0 4a23 23 0 00-11 12c-3 1-5 8-5 15 0 5 0 7-2 8s-3 4-1 4l1 2 1 2 1 2c0 2-3 4-5 3h-1l1 2 1 2-2-1h-2c0 4-5 11-6 8l-1 4c0 4 1 5 2 6 3 0 2 1-1 5l-1 3 1 15c-2-1-4 5-4 10l-2 8c-2 2-3 3-3 0l-1 1-2 2-2 4-4 4-2 1-1 1a1 1 0 10-1 1v4c-1 0-2 1-2 3l-1 4c-2 0-3-7-3-21v-13c-3-3-5-10-5-18 0-15-1-22-3-23l-2-2-3-3-3-2-3 2-3 3c0 1-3 2-10 2l-11 1v36l1 7 3 1c4 1 5 3 3 6v1l2-3c1-2 1-2 1 1l-1 6-2 2v1l2 1 1 4c0 2 0 3-1 2-1-5-3 2-3 9 0 8 0 9-3 6h-2c-2 3-3 2-3-2v-8c-1-4-1-3-1 4 0 6 0 8-1 7l-1 3c1 4 1 4-5 0-4-2-6-3-10-2a4 4 0 01-5-2v-6c0-1 9-3 10-2l1 2v2c1 1 1 0 1-2 0-3 0-3 3-3 2 0 2 0 2-7l-2-11-1-3-1 2c0 2-1 3-2 3v-1c0-2 0-2-1-1l-1-1v-2c-2 0-3-9-4-20 0-9-1-12-2-15s-2-6-2-13l-1-13a7 7 0 011-8h-1l-1-2 1-3 1-1c-3-4-14-65-14-74 0-10 1-13 4-9 0 2 2 1 2 0s-1-2-3-2c-3 0-3 0-3-6 0-8 3-12 5-7 1 2 1 2 1-4V0H102l1 3 2 3 2 2 19 33a31 31 0 015 10l13 22a5 5 0 002 5h-3l-2-2-1-1h-3c-2-1-2 0-2 2l-1 2h-5l-1 1v1c0 2 1 2 2 1l2-1h1l2-1h7l4 2c3 0 4 0 7 6l4 7 1 21 1 26v7l1 1c0 2-3-1-6-5a117 117 0 00-13-15l-4-6-1-2c-2 0-6-4-27-29-13-17-17-22-14-22 1 0 2-1 2-3 1-2 3-3 4-2 2 0 1-1-1-4-3-3-2-3-5 2-3 4-4 4-6-1-2-4-2-8-1-7l1 2c0 2 1 3 3 0 2-2 1 1-1 4v2c2 1 3 0 3-2 0-3 2-4 4-4 1 0 2 1 2 3 2 2 2 2 2 0l-1-3v-3l-2-6c-3-3-5-4-5-1 0 2 0 2-1 1l-2-4c0-3 4-3 7 1 3 3 3 3 2 1-2-5-4-8-6-9l-3-1h-1l-1 2v-4c1-2 4 0 8 4 5 5 4 1-1-5s-6-6-8 0c-2 5-2 11 1 7 1-1 1-1 1 1 0 3-2 4-4 2l-1-3c0-4-2-1-2 3l-1 5v3c-1 1-1 0-1-1l-2-2c-2-1-6-4-6-6 0 0-1-2-3-2-3-3-7-11-8-18 0-8-1-9-2-7-2 2-2 2-2 0-2-3-3-8-2-8V5c-2-1-2-1-2 2l-1 3c-2-2-1 0 4 10l11 22 1 1 1 2-2-1-5-6a21 21 0 01-5-7l-9-11c-1-2-3-3-3-2l-1-1-1-1-1-1a6 6 0 00-5-6l-3-5-3-4h-8c-8 0-8 0-8 2 1 4-4 4-8 1-3-4-8-4-8 0m43 0c1 5 5 14 6 14 2-1 3-10 2-14-1-3-6-5-6-2h-1c-1-1-1-1-1 2m17 0l5 9a44 44 0 0014 15c7 7 9 6 9-5 0-3 0-5 1-4l1 1 4 3v3c-1-1-1 0-1 1 0 2 0 3 2 3 1 0 2 0 2 2l2 4h1l-2-18V0h-6c-4 0-5 0-5 2v1l-1-1c0-1-2-2-8-2h-7l5 5 6 4c1-1 1 1 3 7l-1 2-1-2c0-2-14-16-15-16l-1 4c0 3 0 4-1 3l-1-5c0-2-1-2-4-2h-3l2 3m-1 5l3 6 2 6c0 3 9 18 9 15l2 4c0 2-5-4-8-9l-3-4c-1 1 5 12 7 12l3 4c1 3 4 5 6 4 3 0 2-4 0-4-3 0-4-2-5-9 0-4 0-5 1-4l1 6c0 2 0 3 1 2l2-3c1-2 1-2-1-5-3-2-7-2-6 1 1 1 1 1 0 0l-1-3v-3c-2 1-4-2-8-9-5-10-6-12-5-7m137 1c-1 4 1 14 3 14l1-4-1-4-2-1 2-1 1-1-1-1-2-2c-1-2-1-2-1 0M28 13c1 1 0 2-1 2-5 1-2 8 3 8 4 0 4-3 1-8-2-3-4-4-3-2M2 18l2 1v1l1 2c2 1 2 3 2 6l1 3v2l1 3 1 5a18 18 0 005 12c1 0 1 1 0 0l-1 2-2-1-2-1 1 2c1 1 3 2 4 1l5 3c3 2 4 2 2-1-2-2-7-25-6-27 1-1 1-1-1-2l-2-3c0-3-6-9-9-9l-2 1m106 3c-1 1 0 9 1 19v3h-1l1 3 1 2c0 2 0 2 1 1v-8l-1-14-2-6m241 6l-1 3v3l-1-3c-1-2-1-2-2-1l-4 3c-2 1-3 1-3 5 0 3-1 3-4 3s-4 0-3 1l2 2h2l1 2v2l3-1 1-1 2-2 1-1 3-3c3-1 4-2 5-5 0-4 0-8-2-7M17 29c2 3 2 3 0 3v1c2 0 2 1 2 3v3l1 4c0 3 2 11 4 13v3a13 13 0 0010 9h3c-1 1 0 2 1 3 1 3 1 4-1 4h-1l3 1 2 1h2l4 4 3 3 4 4c4 4 7 7 7 5l6 6h2c1-1 4 1 5 4 1 2 1 2-1 1h-1c1 2 5 3 6 1l2 1c2 2 3 4 1 3v1a5 5 0 005 2c2 1 8 6 8 8l2 1 2 1 3 4 3 4 1 1 3 3 2 2 2 1c0 1 1 2 2 1 2 0 2 0 2 2s0 3 2 3l2 1c-1 1 0 2 1 2 2 0 3-2 1-2v-1l2 2 3 2a62 62 0 0115 17l4 3 3 3v-2a8 8 0 014-6h-2l-2 2v1l-1-2-2-2-2-2c0-1-1-2-2-1-2 0-3-1-3-6a4 4 0 00-2-5 62 62 0 00-17-18c-1-2-7-8-7-6l-1 1-1-3c0-1-12-14-14-14l2 2v2l-3-6c-1-2-3-3-3 0 0 2-1 1-1-2l-3-4h-1l-4-6-7-7-4-2c0 1-1 1 0 0l-1-1-2-3c-2-2-2-3-4-3h-1l-9-11-8-6c1 2 2 3 1 4s0 4 2 6l3 9 1 4c2 1 1 2-1 1l-4-2c-2 0-2 0 1-1l1-1c-1 0-5-3-3-3l2 1h1l-1-2c-3-2-5-11-3-12 1-2 1-2-1-3l-2-3a69 69 0 00-19-19 26 26 0 00-9-10m96 12c0 8 1 13 2 14 1 2 1 2 1 0l-1-3-1-10c1-8 0-11-1-12v11m123-11v4l2-2h17l-6-1-8-1h-5M44 31l-2 1c-2 0-2 2-1 5 1 2 2 2 4 2 4-1 5-3 2-7l-3-1m383 3c-6 9-5 19 1 12 5-6 5-8 0-2l-4 3 2-2 1-3 3-3 1-2v-3c0-5 0-5-4 0m-166-1l18 4c19 2 18 2 14 6-7 6-8 7-8 10-1 3 1 8 5 10l3 2v30c0 5 0 6 2 6s2-1 2-3v-1l2 3 1 2 1-15c0-20 0-22 4-24 8-3 9-14 1-18l-3-3-3-1-2-1 1-1h6c4 0 4 0-2-1a651 651 0 01-41-5h-1m235 3l-2 7-1-1v-5c1-1 0-1-2-1-3 0-4 1-3 3l-1 1h-1l2 2c10 3 9 14-1 20l-3 4-1 1c-1-1-1 0-1 2 0 3 0 3 1 2s1 0 1 3l-1 4 4-1h7l3-1-1-1v-1l1-4c1-2 1-1 1 3s0 4 1 1c2-7 2-32 1-34v-1a1 1 0 101-1l-2-1a2 2 0 00-3-1m-258 6c-1 2 0 3 2 2 1-1 4-1 10 1 12 4 17 5 9 1-16-5-19-6-21-4M0 139c0 51 1 72 1 46a9950 9950 0 00-1-46m508-81l-1 1c-3 0-3 1-4 9v10l-1 3c0 2 0 2 3 0h3l1-2h-2l-2-1 2-2c2 0 2 0 1-1-1-2-1-2 1-2l2-1c1-1 0-1 0 0l-2-1 2-2c1 0 2-5 0-5l-1 1v1c-1 1-1 0-1-1 0-2 1-3 2-3 1 1 1 0 1-1 0-2 0-2-2-1-1 1-1 1-1-1v-2l-1 1M67 59c-3 2-2 5 0 6 4 2 6 0 4-4-1-3-2-4-4-2m392 3v19l-2 6v4l3-3 5-5 2-3 2-2c1 0 2 0 2-4 0-6-1-8-4-8l-5-3c-3-3-3-3-3-1m-78 20c-7 6-8 12-2 14 3 2 4 2 2 6v3l2-2 1-2v2c0 3 2 4 2 2h1c1 1 2-1 2-4 0-2 1-3 4-5 6-4 6-9 0-14-6-3-7-3-12 0m98-2l-2 1-1 1v-1h-3c-1 1 0 2 3 3 6 4 6 9-1 14-3 2-4 8-1 7v-1h1l2-1 2-1v10l1 11v-1l2-1h2c-1-1 4-5 6-5l-1 1v1l3-2v-1c-3 1-2 0 1-2 3-1 4-2 4-5 0-2 0-3-1-2-1 2-2-1-1-3h1l1-1V89c2-2 3-9 1-9l-1 1-1 1-1-1c-1-3-12-2-12 1l-1 2v-2c0-3 0-3-3-2m-40 5c0 3 0 4 2 4 1 1 1 11-1 20v3c2 0 1 2 0 3l-2 4h2v5h-1c-2-2-2-2-2 2 0 2 0 3 1 2s1-1 1 1v2l2 1c2 0 2 0 2-3 0-2 1-3 5-6l5-4v-16c2-5 0-6-4-3a7 7 0 00-4 5v-5l-1-6-1-6c0-6 0-7-2-7-1 0-2 1-2 4m-252 9v7h8c8 0 8 0 7-5l-1-4h-7c-5 0-7 0-7 2m269 9l-1 10c0 2 1 2 2 2l5-2c5-1 3 2-2 3-3 1-5 2-5 4v9l-1 7c5 0 14-8 14-12l-1-3v3l-1 4v-14c0-2 0-2 1-1 1 2 1 2 1-1 1-3-1-6-3-4-1 2-2 0-2-4 1-3 1-3-1-4-2 0-4-1-4-3-2-2-2-2-2 6m-263 9l-2 1-7 1h4l4 1-1 1-1 2 2-1h2l2 2v2h1a8 8 0 00-2-9l-1-1-1 1m-48 1h-3l-1 2h-3c-1 1 0 4 2 6l4 4 1 4 1-4c1-3 1-3 1 1 0 5 1 8 2 6v-2l-1-9c0-8-1-9-3-8m54 9v12l1 1v18l1 17 6 10 7 10-1-42-6-14c-1-2-1-3 1-4s1-4-2-4c-2 0-3-2-4-6-3-9-3-9-3 2m90 10c-4 2-5 4-2 6l2 4h1c2-1 2-1 2 1 1 1 1 1 1-1l2-4c5-3-1-9-6-6m72 3c0 4 0 5-2 6-3 1-3 6-1 7 2 2 2 2 1 5v5l1-2c0-2 1-3 2-3l3-1c0-2 4-2 4-1h1l1-11v-9h-10v4m-24 2c-3 2-3 6 0 7l2 1 2 1 2-1 2-2c2-1 1-6-2-7s-3-1-6 1m-197 5v3c2 0 3 0 3 2 0 1 0 2 2 2l1 1 2 2 2 1 1 2 3 4 4 3c2 0 1-3-3-7l-4-5-6-5-1-2c-1-2-3-3-4-1m35 3l1 2v1a2 2 0 103 1v-2l1 2a2 2 0 102-1v-2c2-1 2-3 1-3l-1 2-3 1c-4 0-4-2 0-2 2-1 2-1-1-1-2 0-3 0-3 2m59 6h-1c-2 0-5 2-3 3 1 0 2 6 0 6v5c0 5 1 7 2 2l1-2c3 0 4 0 4-2 1-3-1-7-3-7-2 1-2-2 0-3 2 0 3-3 1-3l-1 1m81 2c0 2 0 2-1 0l-1 5c-1 6 0 7 4 5h1l1-2h-1l-1-2 1-2v-1l-1-3-1-2-1 2m59 1c-2 0-8 6-6 6l-1 1c-3 2-7 2-6 1l-2 1-6 1c-1-1-2 0-2 1h7c3-1 4 0 3 1h4l-2 2c-3 1-3 3 0 6 1 1 2 3 1 4h1l4-5c2-2 2-2 1-5s1-5 6-6c1-1 1-1-1-1-3 0-4-2-1-3l1-1 1-1 4-1c0-1-3-2-6-1m94 10c-9 4-12 6-9 6l21-9c0-2-2-1-12 3m-21 0l-12 6 1 1 19-9c0-2-2-1-8 2m8 1l-9 5 8-2 10-4 3-2c0-2-4-1-12 3m-402-2v2l3 14-4-8v2c0 6 2 10 4 9l2 1 2 1 2-1c0-3-3-14-6-17-2-4-2-4-3-3m293 7c-3 3-3 4-1 5v12l1-1c0-3 0-8 1-6 0 1 3-1 3-3l2-3 2-2-3-2c-3-2-3-2-5 0m-89 9h-1c-2 0-2 0-2 2l1 2v2h-1l-1-2c-1-2-1-2-1 3v22c0 27 0 26 2 27 3 1 5 7 2 7-1 0-3 4-2 5l1-1 2-3c1-1 2-2 1-6 0-4 0-5 2-5 2-1 3-3 2-8l1-2v-4c-1-4 0-19 1-20l1 1 1 1 1-2 2-2v1l-1 4c0 1 0 2-1 1-2 0-3 2-1 2v2c-2 1-3 3 0 3l2-3 1-3 1-2v-2c2-1 0-6-2-6l-1-1c0-2 2-2 2-1 1 1 1 0 1-1l1-2v-2l1-3c3 0 4 0 3 2l2 1 1-2v-3l1-2h-22m-175 3c0 5 1 13 2 12v7c1 2 1 2 1-2l1-7 1-1c3 0 2-8 0-8-2-1-2 0-2 1v1l-2-4-1-2v3m195 6l-4 3c-2 2-2 2 0 2 1 0 2 0 2 8l-1 8-1-3v-1c-3 2-2 6 0 7 2 0 3 4 1 4h-2l-1 10c0 6 0 8-1 7s-1-1-1 1 3 2 4 0h1c0 4 4 0 4-3l-2-2c-3 0-6-5-2-5v-1l1-3 1 2 2-2c2-6 1-33-1-32m77 0l-1 10c0 13 2 12 2-1 0-9 0-11-1-9m-299 4c0 4 0 4-1 2l-1-3v3c0 4 2 8 3 5h3c1 2 2 2 3 1h1l-1 1c-1 0-2 4-1 6 3 3 3 8 0 8l-5 1 2 2 1 5c0 2 0 4 1 3 0-1 1-2 2-1l1-1c-2-2 4-5 6-4l3 1-1-8c0-10-1-19-2-17-1 4-6 0-6-5 0-2 0-3-1-1-1 5-4 5-6 1l-1-3v4m51 2l1 4v9c0 8 1 9 3 9s2 0 2-10v-12c-1-2-1-1-1 3 0 6-2 6-2 0 0-3 0-4-1-3s-1 1-1-2c-1-2-1-2-1 2m-18 6a32 32 0 002 11c0 2 0 2 2 1v-6l-1-1h-1l2-1c1-1 2-2 2-5l-1-3-1-1-2-1-1-1-1 7m242-2l-1 1-2 2h-2a1186 1186 0 00-3 23l1 3v5c0 6 1 8 3 6h3l1-2 1-2 1-1 2-2 2-1h-3c-4 0-3-1 1-3l4-2h-2c-7 2-8 2-7-1 2-5 1-7-2-6-2 1-2 1-2-3 0-2 0-3 1-2 0 2 0 2 2 0l1-1c0 2 0 2 2 1 1-1 2-16 0-16l-1 1m-35 9c-2 2-2 2-4 1h-3l-3 1h-2v13l1 11 1 2-1 3c-2 0-1 7 1 9h2l1-1 1-3c-1-19-1-20 2-22 4-3 6-3 6 1 1 1 1 0 1-3l-1-6v-2l1-4v-2l-3 2m52 7c-3 2-4 3-3 4l-1 1c-1 1-1 0-1-1 0-2 0-2-1-1-2 3-2 10 0 12 1 1 1 1 1-1l2-2c0-1 1-1 0 0h4c2-1 3-2 3-4v-2l1 3c1 2 1 2 1-2v-5l1 4 1 5v-5c0-5-2-6-6-4h-2l3-2 1-1-4 1m-102 7l2 2a1 1 0 110 3c-3 1-1 5 2 5 1 0 2-10 1-12s-5-1-5 2m49 7h-1c-1-2-1 4-1 13 0 3 0 3 3 3 2-1 2-1 1 8l-1-1c-1-1-1-1-2 1l-1 2v1h9l-2-2c-2 0-2-1-1-1l1-5-1-4-2-2 1-1 2 1c1 1 1-1 1-4 0-5-1-5-3-5-3 0-4-2-1-2l2-3-2-1-2 2m90 2c0 4 0 4-2 4-4 0-7 2-10 5-2 2-3 2-4 1s-1-1-2 1l-1 1h-2c-1 1-1 1-1-1 1-2 0-4-2-2-1 2-1 6 1 6l1 2c0 2 0 2 1 1 1-2 1-2 1 0a5 5 0 003 3c-2-2 1-3 4-1s5 2 3-1h1c2 1 3 0 1-2-1-2-4-2-4-1s-1 2-2 1v-1l2-2 4-4v2l1 2c1 0 2-2 2-6 0-1 1-2 3-2 3-1 3-1 3-6v-4l-1 4m106-3l-5 7c-6 10-6 9 15 12 13 2 12 2 12-5v-5l-2 3c-1 3-3 4-3 1s-2-4-6-4c-5 0-5 0-2-5l2-5-11 1m5 3l-4 1c-2 0-5 4-5 6h1c0-2 0-2 4 0h3l1-2 2-3 1-4-3 2m-154 10l-1 11v6c3 2-2 2-27 2l-27-1 2-1c3-1 2-2-2-3-3 0-3 0-3 4 0 8 0 8 14 7 14 0 20-1 21-2h1l5 1a6 6 0 006-2l1 1h2l5 1c3 0 3 0 1-1-5 0-6-2-1-1 3 0 3 0 2-1s-1-1 1-1l3 1h2l8-1 6-1-5-1c-5 0-6 0-7-3-1-2-1-2-1 0 1 1 0 2-1 3-2 1-2 1-2-1l-1-5v-9l-1-9-1 6m-65-2c-1 2-2 3-4 3l-2 1 5 1c2 0 2 0 1 1l-1 2-1 1c-2 0-4 5-4 8 0 1 1 2 2 1l3 1c3 4 4-2 3-13-1-9-1-9-2-6m70 4c-2 4-3 8 0 9s4 0 4-5c1-7-1-8-4-4m-35 5l-4 5c0 1-3-2-2-3v-3l-1 2-1 2-1 2 1 2h2c2 1 3 1 4-1 2-2 2-2 3-1l3 2 1 1h3c2 0 3-2 1-2l-1-1 5-1a5 5 0 016 2c1-2-2-4-6-4-7 0-9-1-9-4 0-2-1-2-4 2m129 4l-4 20c0 2 0 2 1 1 2-2 2-2 2 0l1 4-1-2c0-3-2 0-4 8l-3 10-1 6-1 2c-2 0-1 1 1 4 3 3 4 9 4 21-1 10 0 13 1 13l3 6 2 5-1-4-1-6c0-3 0-4-1-3l-1-4v-4l2 4c2 3 2 3 2 1 1-3 0-9-1-8v-3l2-1h1l-1-3-1-2c1-1 0-2-1-4l-3-2 2-6c2-8 2-8 0-7h-3l-1 3v3c-2-1-1-15 1-15v4l1 4c3 0 7-40 4-46l-1-2v3M0 466c0 120 1 169 1 109a55524 55524 0 00-1-109m445-214v4l1 2 1 6 2 7v18l1 16 2 15v4h1c0-3 0-2 4 0 3 3 4 5 1 5-3-1-3 0 0 3l2 4 2 2 4 5c3 6 3 6 4 4s4-1 8 3c3 3 3 3 5 1 2-1 2-1 4 1l2 3v-5l-1-20v-5c-2-1-3-15-3-23l-6-24-4-10-4-6v1l3 11c-1 1-1 0-1-1 0-2 0-3-2-3-1 1-2 0-3-3-2-4-3-2-1 4l1 11 2 14v7l1 3v4c0 2-2-2-4-14l-5-17c-1-1-2-3-1-4l-2-5c-2-2-2 3 0 18v14c-2-4-4-16-5-23a28 28 0 00-4-16c2-2-3-12-5-12v1m-406 8c2 1 3 4 3 5l2 3 1 1c0 1 0 2 1 1 1 0 2 0 1 2l1 2c1-1 1-1 1 1-1 2 0 4 2 3 3-1-11-21-14-21l2 3m446 12l9 3c11 1 13 0 3-3-10-2-12-2-12 0m-243 32l-3 3-4 4-1 5c0 2 0 2 3 0 4-2 7-3 9 0 2 1 3 1 3-1l-1-1v-9l1 2 2 3 2 5 1 3c-1 2-1 3 2 4s8 7 8 9c0 1-1 1-2-1l-4-3c-2-1-2 1 0 7 2 4 1 5-2 0l-4-5-1-2-2-2-1-4c0-2-1-3-3-3a6 6 0 00-8 4l-2 1h2c-1 1 1 4 2 3v1c-1 2 0 5 1 7l1 2 3 10c1 5 1 14-1 14l-2-2c-2-3-1-6 1-5l1-1-1-2c-2 1-4-4-4-8v-4l-2-5c-4-9-4-9-4-5 0 5 4 28 6 33l2 3h9c15-2 23-7 20-14l-1-1-2-6c0-2 0-2 1-1 4 5-3-18-7-25-3-6-12-16-15-16l-3 3m-11 5l-1 6-1 5 1 22v-8l1-14v-11m53 3v4l3 5c2 5 4 6 5 3s1-3-1-5l-3-5c-2-3-3-4-4-2m8 14c-2 3 2 10 5 9 2 0 3 0 3 2 1 3 0 4-1 2l-2-1h-1v1l1 3 3 6 5 7 1 1c-2 0-3 2-1 2l1 2 2 3 1 4 1 2v1c0 2-1 2-2 1a1 1 0 100 2l4 1c2 1 3 2 7 2 2 0 2 0 1 2h-3l-2-1 1 2 1 2h-1c1 2 3 2 3-1l1-2c3 0 3-3 1-6-1-4-2-4-2 0 1 2 0 3-1 1l-3-2c-1 0-1-1 1-2s3-1 2-2l-2-4-2-3-2-1c-2 0-2 0-1 1l-1 2a2 2 0 112-3c3 1-3-11-7-16l-3-5-2-5c-1 0-2-1-2-3-1-2-1-2-2-1l1 2v3c-2-1-5-5-4-7h2l1-1c-1-2-3-2-4 0m-42 18v7c1 2 1 2-1 2-3 0-4 2-1 3 1 0 2 1 1 3 0 3 1 3 4 3l4-1-1-1h-1l2-3c2-2 3-3 1-3l-2-1h-1l-1-1v-3l-2-5-2-4v4m17 17l-2 4-1 3-2 2c-1 2-1 2 1 2 2-1 2-1 2 1-2 4-2 4 0 2 3-3 5-3 3 0-1 2 0 3 1 2l1-5-1-4v-4c0-6-1-6-2-3m94 1c-3 0-2 2 2 3h17c4-3-11-5-19-3m-80 82c-8 1-9 2-9 8 0 10 2 10 39 10 30-1 29 0 26-10-3-9-4-9-31-9l-25 1m-3 2c-1 3 0 12 2 13s50 2 52 0c2-1 0-9-3-12-2-3-50-3-51-1" tabindex="-1" itemprop="light" style="fill-opacity: 0.545; fill-rule: evenodd;"></path></symbol><symbol id="-posters-1650743324869-regular"><path d="M0 2c0 2 1 4 3 5l4 4 15 15 13 14 4 4 6 6 4 4 11 10a79 79 0 0011 10l6 6 1 1 1 3 14 12c10 11 12 12 12 10l-1-1c0 1-5-4-5-6l-3-3c-2-1-4-2-4-4l-5-5c-3-1-4-4-4-6l-1-2-4-2c-5-2-4-9 1-9l3 3 1 2 1 3 2 2c2 0 3 1 4 3l2 2-1 4h1c4-1 4-1 5 2l2 2 1 2c0 2 0 2 3 2l3 1-4-5-8-9-7-8a308 308 0 01-19-22l-9-11a41 41 0 00-10-9 35 35 0 00-11-13c0-2-12-15-13-15v1l-3 1h-3c0 4-6 2-12-3-4-4-7-4-7-1m104-1l3 6 6 11a28 28 0 008 12l4 8 17 30c4 7 9 15 11 16 2 3 3 5 1 3l-1 1 2 1c2-2 5 11 5 20a4 4 0 002 5l-1 1h-1l3 1h4v5l-1 5c-5 1-6 0-6-1v-3c-1-1-1 0-1 3 0 4 2 5 6 2l3 1 2 2v-3l-1-8h1l1 1c1-1 1 0 1 5l2 3a19 19 0 00-1-12l-1 1h-1v-5l-2 2-1 1h-1l-3-2c-2-2-2-2 0-2l13-1c13 0 14 0 12-2l-1-4c1-1 0-2-1-2l-1-4-1-3v-1c1-2 4-2 9-2 8 0 10 2 9 8-1 3-6 4-7 2h-3l-3 1 1 1c3 0 4 0 4 3l1 3c1-1 4 2 5 7l3 5c3 0 4 0 2 1l-2 2h2l3 2v4c-2 0-3 0 1 10 4 9 4 9 5 30 0 25 1 25-9 9-5-9-6-11-6-16l-1-5v5c0 5 0 5-2 5a16 16 0 01-11-5l-2-2h2l2-1c0-2-4-3-6-1h-1l-1 2 1 1c1-1 2 0 2 1s-1 2-2 1l-1-1c0-2-4-3-7-2h-3l3 3 2 5c-1 1-1 1-1-1l-2-1-6-4c-5-5-7-6-6-4 1 1-1 2-3 3h-3l-3 4-2 4c-2 0-8-6-10-9a27 27 0 00-10-12l-2-1c-1 1-3 0-4-1l-3-2-1-1-1-1-3-2-2-2-3-2-1-1-1-1c0-1-6-8-8-8l-7-9-3-2-3-2-4-3-4-2-4-3-4-3c-2-2-3-3-5-3-1 0-3-1-5-4s-3-4-5-4c-1 1-2 0-3-1v-1h2l-2-2c-5-2-8-4-10-8l-5-4c-1 0-3-2-4-5-2-3-4-4-5-4-2 0-4-2-7-6l-7-5c-1 1-3-1-7-5l-7-6-1 93v93l4 2 4 3v4c0 1 1 2 3 2 6 0-1 5-8 6-2 0-3 1-3 9l1 8 9-7 4-2 6-1c19-1 18-2 34 21l5 6 1 1 3 6 6 9 5 9c7 10 15 29 12 29v-1l-1-1-1 5c-1 5-4 7-11 7-3 0-3 0-3 10l-1 8v-3a13 13 0 00-1-7l-2-1-2 2h-4c-3 0-7 2-6 4 1 1-1 3-3 3-3 1-3 0-4-1l-1-2v1c1 2-5 3-12 2l-6-1h6c6 0 11-2 9-3-1-1-6-2-7-1h-2l-5-1c-4-1-5-2-1-4 5-2 19-8 25-9l5-2h-2c-8 3-41 11-44 10-1-1-1-1 1-1 5 0 42-10 48-13 9-4 6-4-4 0-11 3-33 9-42 10H9l2-2 4-2c1-1 1-1-2-1-5-2-3-3 3-2 5 0 5 0 5-2 0-1 0-2 6-2l8-2h-2a77 77 0 01-24-1c-2 1-2 0-1-3 0-6 1-6 6-8 7-4 7-4 1-4-7 0-7 0-1-2l14-7-3-1c-3 1-8-1-7-3h-5c-6 0-12-3-9-5 1-1 0-3-1-3l-2-1c-1-1-1 10-1 25 0 24 0 26 2 25v1c-2 2-2 5-2 48v46l3 4c2 4 2 7-1 6-2-1-2 2-2 115v116h236c236 0 237 0 236-2l1-2 1 2c0 2 1 2 6 2s6-1 5-4c0-2 4-1 4 0h2c0-1 3 0 3 3 0 2 16 2 16-1h1l1 2V450l-1-1-3-2c-2-1-2-1 0-2v-2c-5-2-5-2-5 3-1 4 0 5 2 3 0-2 2-1 2 1l2 1h2v1l-1 2-1 3-1-3c-2-2-7-3-6-1h3l1 1c0 2-2 2-4 0-1-1-3-2-4-1l-2-1v-1l-2-1v-1c1 0 2-1 1-2h1l2 1 1 1c2-2 1-4-1-4l-2-1-1-2v2l-1 1-2-2c0-3-1-3-2-1-1 1-2 2-3 1v-1c1-1 1-1-1-2l-3-3c1-2-2-4-3-2h-2c-2-3-4-2-3 1 0 3 0 3-2 3h-3c-1 1 0 2 2 1 2 0 3 1 3 2l1 3c2 1 0 2-2 2h-2v1l4 3c3 3 2 5-1 2-1-1-1-1-1 1s0 3 1 2l1 2c0 1 0 2 5 2l6-1-3-1c-1 0-2 0-1-1l-1-1-2 2-1 1c-1-1 0-4 1-4 2 0 5-3 5-5l1-2c1 0 1 5-1 7-1 1-1 1 1 1s3-1 3-3l1-3c2 0 2 0 1 1l-1 3c1 1 0 2-1 3s-1 1 2 1l3 1h1l2 1v1l-3 2h-2l-2-1-1-1h-5l-4 1h-5c-2-2-2 0 0 2l3 4 1 1 1 1c0 2-4 1-5-2-2-4-3-4-3-1l-2 2v-5l1-2a1 1 0 000-3l-1-1c0-2 0-2-3-1h-2c-1-1 0-2 1-1 2 0 2 0 1-2l1-1h2l-3-1c-2 0-2 0-2-8 0-13 1-22 3-30l2-11 3-6c2-3 2-4 2-9-1-6 1-10 2-7h5l-6-2c-2 0-2-1-2-4s0-4 2-4l1-1h-2l-10-1c-3-1-9-2-11-1a11 11 0 01-14-6l-4-14 2 4c3 5 4 7 4 5l-7-17-1-7-1-5-1 7v7l-2-5-2-18c0-8-1-15-2-15-1-2 0 31 2 34v4c-1 1 0 2 2 5 3 4 7 14 8 18l1 3-4-3-4-5-1-1-3-3-6-13-7-13-2-4c-1 0-1 2 2 9l2 7c0 2-3-2-4-7l-3-5c-3-4-5-8-4-10h4c0-1 1-2 3-2 4-1 7-5 12-15 5-11 14-40 15-46l1-8v-2l4 2 5 6 4 4 3 3 3 3c1 0 2 1 2 3 1 4 4 3 3-1 0-4 0-4 2-4l4-1c2-3 4 1 12 23l3 12c0 3 1 4 4 5l15 3 7 2 1 20 1-29-1-42c0 7-1 9-3 12l-3 7-1 6-1 2-2-2-8-3-8-1-3-8c-1-5-3-10-5-12-5-6-4-13 2-22 7-11 10-12 22-13h10v5c1 2 1-46 1-107a5976 5976 0 00-1-116V0h-30v3c-1 2-3 3-3 1s-3-4-4-4l-12 13a98 98 0 01-20 18l-4 3-2 2-2 5-2 6-3 4 1-1c1-1 1 0 1 3 1 5 0 6-1 3-1-4-3-4-4-1-1 2-1 2-2 1l-1-1h-2l-2-1-1 2-1-2-2-2-2 2-1 2-1-2c0-4-3-4-4 0 0 1 0 2-1 1l2-5c2-4 2-4 0-3l-1 1-3 2-3 3c0 2-1 2-1 1-1-2-4 4-4 7 0 4 2 6 6 8 2 0 3 2 3 3l2 1 5-1 2-2 3 2 3 3 4-2 5-2c1 1 0 1-1 2l-3 1 3 1c3 1 4 0 5-1h1l1 2c1 0 2 1 2 3 1 2 1 2 1 0 0-4 2-8 4-8l2-3c0-5 6-14 8-11 0 2 1 2 2 2 2-1 2 0 2 4s0 4 1-2c0-5 1-7 3-9l3-5 1-2 1-1c0-4 8-8 11-6 1 1 1 1 1-1l-1-2c-3 1-3 0-1-3l2-2 1 2c0 1 1 2 2 1 3 0 3 1 0 3-3 3-3 4 0 3l2 1v1l1-2c1-10 1-12 5-13l4-6c1-4 3-7 5-9l5-6c1-2 4-2 3 1a81 81 0 00-1 17l1-10c0-3 1-4 2-5 2 0 3 1 1 2-1 2-2 5-3 28-1 18-1 18 2 15l3-2c2 0 1 36 0 36l-3 1-5 1c-6 1-8 3-6 6 1 1 2 3 1 8 0 4 0 6 1 5l2-10v2l1 2 1-3 2-2h3v5l1-1h1l1 2c4 0 0 4-9 9a780 780 0 00-33 19l-11 6-3 3 41-23c2-2 15-8 16-7l-9 6-4 3 7-3 6-3v4c0 5-1 6-5 8a1326 1326 0 00-40 20l-13 7-63 32v-8l-2-4v-3l-1 3-2 5c-2 1-2 1-1 2l2 3 1 2 1 2c0 2 5 2 9-1l2-2 8-3 2-1 3-2c2-3 3-2 3 1l1 3 4 3 4 2 2 3 6 5a10 10 0 015 6l2 4c0 3 0 3 4 3 5 0 4 2-3 6-4 2-5 2-5-4l-2-7c-2-5-10-13-10-11h-2l-3-1-3-3c-2-6-7-7-9-3 0 2-1 3-2 2l-3 1-4 2c-2 0-3 1-3 2l-1 1c-1-1-1 0-1 1l-1 1c-2-2-10 11-9 13l1 6c0 5 1 6 3 8s2 11 0 14c-1 3 2 1 4-2l8-7a15 15 0 007-6c1-1 1-1 0 0-2 2-1 3 1 3 3 0 9 6 7 7l-4 3c-2 3-3 2-1-1s0-2-2 1-12 10-13 9 2-5 4-5c3-1 3-3 0-4l-1-1-2-1-2 2v2l-1 1a4 4 0 00-3 5 2 2 0 00-1 3h-2c-2 0-4 0-5 2h-2l-1-1-3-2a1 1 0 10-1 2c2 0 3 2 3 2 1 2-2 6-5 6l-1 3a2 2 0 11-3-2v-1h-2c-2-3-3-2-3 0l-2 2-1-3v-1c-3 2-2-1 0-3l1-2c-2 1-3-1-2-9v-7l4-1 6-2c1 0 1 7-1 12l3-1 5-4c2 0 3-3 2-4l-1 1-1 2-1-3c0-2 0-3 1-2l2 1 2 2 2 2v-1l-1-5 1-4h-6c-10 0-13 0-23 3l-10 3v5c0 5 1 6 3 6l4 1c1 1 1 0 1-3l1-5v-1h3l1 10-1 9c-1-1-1-1-1 1s0 2-1 1c0-3-3-2-3 2 0 2 0 2 2 2h7c3 0 3 0 1 2l-2 4-2 3-3 4-5 7-3 5-3 5c-6 9-3 19 5 21 6 2 27-2 31-6l5-2c3 0 3 0 1 1-3 2-4 7-3 13l1 23-1 1h-2l-11 1-1 3c1 3 0 3-3 3l-5-1a6 6 0 00-10 5l4 1c4 2 7 0 4-2l-2-3c0-1 2-2 2 0 1 1 8 2 14 1s6 0 2 3a5 5 0 00-4 4l-1-1h-1c-4 3 7 3 11 0l2-1h4c1 1 1 1 1-1 1-1 1 1 1 3 0 6 4 19 6 19h1l-4 14c-4 7-5 22-3 30 1 4 2 8 1 10l1 11a52 52 0 01-2 28c-2 6-3 5-4-3-2-8-3-7-3 2-1 7-1 8 1 12s3 4 3 2c1-2 1-2 1 0l-1 3c-2 2-2 4 0 4v6c-1 8-5 17-5 11-1-7-2 11-2 31-1 33-2 44-5 46a8 8 0 01-9 0l-1-2v-3l-1-3c1-1 0-2-1-2v-14c-1-4-1-16 1-15v-1l-1-1v-2l1-19a788 788 0 011-38l1-3c2-1 2-6 1-8v-2c1-2 0-10-1-11v-3l1-9v-9l1-3v-16l-1-2c0-2 3-3 3-1l1 3c2 1 2 2 1 2-2 2-1 4 0 3v2c0 2 0 3 2 3h3c1 1 1 0 1-4l2-7 1-8c0-3 0-5 1-4v14l-1 1h1c1-1 1 0 1 4v6l1-7v-9l2-25v-22l-3 1h-19c-2-1-3 9-3 34 0 20-1 25-3 25l-1-1-4-4 1 3 2 4 3 5v12l-2-2c-2-1-9-2-13-1-2 0-2 1-1 3 0 3-2 3-4 0l-3-2v1l1 1c-1 0-1 1 1 1 2 2 6 13 6 16a5 5 0 108-1c-3-5-6-5-5 0l-1 4-1-5-1-7-1-3 1 1h2c1-2 1-5-1-5l-1-2c1-3 10-2 13 1s3 3 2 12c0 10 0 10-3 5l-2-4v2c2 3 4 12 3 13l1 1v28l-2 13h-2a13 13 0 01-10 7l2 1c1-1 2-1 2 1 1 1 0 2-1 1v2l2 4-1-1h-1l-2 4-2 2c-2 1-3 0-3-1l-1 1h-3c-2-2-2-2-1 1l-1 4-2 1 1 1 4 3v3l-1-1h-5l-5 1h-2l3 1c2 0 3 1 1 3l-3-1h-1l-2 2c-4 0-4 2 0 4 4 1 4 2-1 3l-4-2h-1c-1 1-8 2-7 0l-1-1-1 2h-34c-5 0-5-1-5-3v-2l-1 3c0 2 0 2-1 1l-2-4-1-4-2-11-4-22a238 238 0 00-9-29l-2-4-1-5v-7l-1-4-1-3c1-2 0-5-1-6v-4c1-1 2 2 3 10 2 10 3 12 5 8h24c17 0 23 0 22-1l-10-1c-7 0-8-1-6-1l4-1h-4l-4 1-4 1c-4 0-4 0-3-1 2-1 2-1 0-2-4-2-5-1-3 1s-1 3-8 2-8-2-7-5l1-2 1-2a3149 3149 0 001-29c1-3 0-4-1-4l3-4 4-4h12l12 1h34c1-1-2-1-6-1h-13l-22-1h-17v-5l-1-9c-1-2 0-4 1-7l3-8c1-4 2-5 4-7 3-1 5-5 4-7-1-1-4 2-4 5 0 2-4 4-12 5h-6l-3-9c-5-10-5-10-1-10 5 2 21-2 24-5 4-3 4-5 0-2-6 5-30 7-30 2l-3-7c-2-5-2-9 0-11 2-1 2-3 0-8-2-10 1-17 10-18 4 0 5-2 2-3a14 14 0 00-13 19c1 5 1 6-1 8-1 2-2 2-2-11-1-18 1-27 6-23 1 1 8-4 8-6 0-7 14 4 19 16l6 14 2 10h5c5 0 6 1 6 12l1 11 1-11-1-9h-1l1-2 1-2c0-2 0-2-1-1s-1 1-1-2l1-5c2-1 2-85 1-85l-1 1-1 5c-1-1-1 0-1 1l-2 3v2c3 2 1 7-2 7-2 0-2 1-2 27 0 11 0 11-2 1l-3-10c-1-4-1-4 1-3 3 0 3-2 2-13-2-16-2-16-3-14-2 1-7-12-6-14v-2l-2-2-1-1v3c1 2 1 3-1 4-3 3-5 11-3 15a2 2 0 11-3 1l-3-3c-2-2-3-2-2-4v-2l1-4c0-2 0-2 1 0 1 1 1 1 1-1l-1-6c0-2 0-3-1-2l-1-3-1-3-1-5-1-3h-4l-1-1h-2l-5-2c-6-3-11-4-11-3l-3 1c-2 0-2 0-2 3 0 7 0 8-2 8l-2-1-1-1c-2 0-1 4 1 5 1 2 1 5-1 9l-3 7c-2 9-5 11-15 7-6-2-13-9-7-7 4 1 1-1-3-3-6-2-7-6-2-7l7-5c4-4 7-5 7-3l5 3 4 2 3-2c3-3 1-4-6-4-5 0-6-1-5-3 0-2-2-1-4 1-5 6-17 6-20 1l-3-5c-3-3-4-15-2-16s3-2 3-9c-1-8-1-7 9-15l3-3 10 2c12 2 15 4 17 9 2 6 4 13 2 12-3-2-8 3-8 8 1 3 6 5 6 2l1-1c1 1 2 0 3-1 1-3 1-3-2-3-5 1-5 1-1-2h8l6-1c4 0 4-2 2-8l-2-7-1-4c-1-1-3-12-3-23l-3-15-2-7-2-8-2-8c0-2 1 0 2 3l2 5c1 0 0-8-2-14l-9-39a1212 1212 0 00-11-51v-3l2-1 1 2 8 35 1 6c1 0 1-1-1-9l-3-15-2-14-2-6-5-2c-6-2-6-2-5-6 1-2 1-3-1-4-2 0-3-3-1-3l3 1c2 2 2 2 2 0 1-2 1-2 3 3 2 8 3 8 2 0 0-8 1-11 2-5 1 4 3 2 3-3V0h-10v8l-1-4-1-4v3l-1 4c-2 1-2 1-1-3V0h-43v11c-1 5-1 6-2 2l-1-8V0h-7c-6 0-8 2-5 4l1 2 3 6a15 15 0 013 8l1 6-5-11a59 59 0 00-8-14l-9-1-10 1m98 4l1 5 1-1c0-3 2-2 2 0 2 5 2 1 1-4-2-7-5-7-5 0m-43 7v5h-18l-2-4-2-3 7 18c2 3 3 2 1-2l-2-5-1-2h17c13 0 17-1 18-2l-6-1c-7 0-9 0-9-3l-1-4c-2-1-2-1-2 3M1 10a1897 1897 0 0066 65L34 42 1 10m25 2c-6 1-4 8 2 12 4 3 6 2 7 0 0-1 1-2 2-1l1-1-1-1-2-1v-4l-1-1-1-1-3-1-4-1m15 18c-4 4 0 11 6 11 4 0 4-4 0-10-3-4-3-4-6-1m308 0c0 2 0 2-2 2h-2l-1 1-2 2c0 2 0 2-1 1-1-3-2-2-2 2 0 2 0 3 1 2l2-2h3l1-2 1-3v2l1 2 2-8c-1-1-1 0-1 1m-160 4c0 2-3 3-3 1-1-1-1 2-1 7l2 9c2 0 3-4 3-13l-1-4m-8 5l-2 3c-3 2-2 5 1 6 3 0 5-3 4-7-1-3-3-4-3-2m-38 2c2 8 2 7 0 7h-3c-1 1 0 2 1 1l2 1 2 1 3 1h1l-2-6-2-6-1-1-1 2m151 3l-5 4-4 6c0 2 4 8 6 9s3 1 3 13c0 20 0 20 3 20 3-1 4-2 1-2l-2-1h1c2 0 4-10 4-18-1-8 0-11 4-13 8-4 8-12 1-16l-4-3c0-2-6-1-8 1M0 139c0 51 1 72 1 47a9845 9845 0 00-1-47m344-91l-2 1c-2-1-6 0-5 2 1 1 1 2-1 3-4 4-1 12 5 14 3 1 3 5 0 6-1 0-2 1-2 3 0 3 0 3-1 1l-1-2c-1 0-6 6-6 8 0 3 4 7 6 6l3 2c0 2 1 2 1 1l3-1 2-1 1-2a8 8 0 003-14 2 2 0 11-2-4l4-2 5-4c5-4 6-10 1-13a12 12 0 00-5-3l-1-1c0-3-7-3-8 0m137 1l-4 2c-12 1-16 3-16 7 0 3 2 6 7 7l4 1-1 8v8l2-2c8-6 8-7 9-11 0-4 1-5 2-6 7-4 12-13 7-13l-2-1h-5a2 2 0 00-3 0m-286 8c-1 4 0 11 2 13l1 5 1 5 2 6 2 7 3 13 3 12c2 1 1-5-3-17a479 479 0 01-5-21c0 2-2-3-2-7l-1-4-2-7-1-5M67 57l-1 1c-1-1-2 1-1 6 0 1 3 3 6 3l3 1c2 1 1-3-2-7l-2-4h-3m120-1v14l1-1 2-4c3-3 2-9-1-9h-2m264 9l-4 4v16l-1 16 3-2c5-4 5-4 5-20l2-16c0-3-1-2-5 2M190 79c0 6 3 11 6 11 4 0 4-1 2-8-2-4-2-4-5-4l-3 1m199 2h-3c-2 0-4 2-4 5l-1 1-1-2c1 0 1-1 0 0l-1 2-1 1c-3 0-2 5 0 7l4 3c2 2 3 2 3 0h5c8-7 9-9 4-13l-2-2-1 2c0 3-7 4-8 1l1-1c1 1 1 0 1-1s0-2 2-1v2c2 2 3 0 3-3 0-2-1-2-1-1m48 7v1c0 1-2 2-6 2a17 17 0 00-11 1l-3 2c0 1 0 2 7 7h2l2 1 1 2 1-1 4-4c2-1 4-3 4-5 1-3 0-7-1-6m34 0l-1 1-3 1-4 1c-6 0-7 5-1 8l3 3 1 1c1-1 1 0 1 1l4-3 6-6 3-4c0-2-4-3-4-2h-2c-2-2-3-2-3-1m-142 16c-1 2-2 5-4 6-2 3-3 5 0 5 1 1 5-2 5-5l1-1 1-4c-1-6-2-6-3-1m145 2c-3 2-4 3-4 6v8c-1 4 0 6 1 6 2 0 2-2 4-9l1-7v6c0 8 2 9 2 2a181 181 0 011-15l-5 3m-26 17c-3 2-3 3-3 10v8c3 0 5-2 5-8a804 804 0 012-12l-4 2m-128 8l-1 3h2c1 2 0 3-4 3h-5c-1 1-1 4 1 4l1 1 2 1c2 0 5-3 7-9 2-4 5-6 4-2v8l1 9v8c2 0 2-2 2-15l-1-14h-2c0-3-6-1-7 3m77 1l1 2c2 1 2 6 0 6l-2 7 2 1h8v-5l1-5 5 4 1-1 2-3a3 3 0 000-5l-4 1-5 2-1-2c1-3 1-3-3-3l-5 1m41 1c1 1-5 3-6 2l-2 4c2 2 6 2 9 0a3 3 0 10-1-6m-179 1l1 2-1 3c-1 1-1 1 1 1s2 0 2-2a2 2 0 113 0c0 2 0 2 3 2 4 0 4 0 3-3l1-3h1l-3-1c-2 0-2 0-1 3l-1 2-1-3c0-2 0-2-4-2l-4 1m-81 1s-1 2-3 2l-2 1 2 1c2 0 3 1 3 2l3 1c2 0 3 0 3 4 1 5 0 7-5 7h-4l1 1c2 0 2 1 2 4s0 3 1 0c0-2 1-3 2-3 3 0 5-5 4-9 0-2 0-3 2-5v-1c-7 1-8 0-8-3l-1-2m66 2c0 3-1 4-1 1l-1-2c-2 0-2 2-2 16v17l1-14c0-12 0-13 2-13s2 0 2 5v5c1 0 2-2 2-5 0-5 1-8 2-4 1 1 1-1 1-3 0-4 0-5 2-5s3 3 0 4c-1 1-1 1 2 1l3-1 1-3c0-2 0-2-5-2s-5 0-5 3l-1 3c-1 0-2-4-1-5v-1c-1 0-2 1-2 3m144-2c0 1-1 2-2 1-4 0-5 4-2 6 1 1 2 2 1 3h1l2-2 3-1c2-3 3-6 0-7h-3m-221 3a8 8 0 01-6 3c0 1 2 2 5 2s3 8 0 9h-3v2l2 5c0 3 4 7 4 4l-1-2c-2 0-1-3 1-5 3-3 2-4-1-2l-2 1 2-3 1-3c0-2 0-3 1-2l1-2c-2-4-1-7 0-8v-1l-4 2m174-1c0 2 0 2-1 1h-2l-1 1c-3-1-1 3 1 4 5 2 10-2 7-5-1-2-2-2-2-1s-1 1-2-1v1m28 0c0 5-5 9-7 6h-1l-1 1v-1l-1-1c-3 0-2 3 1 6l4 2 3-1h3v-14l-1 2m133 12c-7 3-10 5-7 5s17-7 17-8-1-1-10 3m-113 4l-2 3c-3 3-3 8-1 6l1 2-2 1c-3-1-6 2-4 3 2 2 8 0 8-2 0-4 2-4 3 0v4l1-5 2-6-1-2-3-3c-1-3-2-4-2-1m66 8l-10 1c-3 0-3 0-1 1 1 1 1 1-4 4l-6 3c0 2 2 2 8-1l8-3-2 1c-2 1-3 4-1 4l7-2c7-3 8-4 5-1l-1 2c1 1 21-7 22-9 0-2-3-1-9 2-8 2-9 3-4 0 4-2 5-4 3-4l-1 1h-2c-5-1-6-1-12 1m-135 3c-4 4-4 6 0 7l3 3c1 0 1 1 0 0l-5 4c-4 4-5 7-2 3h3c0 2 3 1 3-1h2c2 3 3 2 3-1v-2l1 3 1 1 3-4c3-3 3-4-2-4h-5l-2-2-3-2h3c4 2 4 2 4 0 1-2 0-3-1-4v-1l-1-2c-2-2-2-2-5 2m-270 2l1 11c0 4 0 5 1 4h1c0 2 2 3 3 2l3 1c2 1 3 4 1 7-1 2-3 0-3-2s-2-3-4-1l-1 6c1 6 3 9 4 7h1l1 2h1c0 1-1 2-2 1l-1 1 3 1 3 6h-5c-1-3-2-2-2 1l1 6 2 5 2 5 1 2 1 1 1-2c0-2 0-2 2-2h1l-1-1c-2-1-1-3 0-4l2-1-1-1h3l3 1-1-28-3 1h-3v-8l1 1 2 1c2 1 2 1 2-2l-2-8c-1-8-2-9-2-1 1 7 1 8-2 6l-3-9-3-10-2-1-5-2-3-1 2 5m429 6l-4 4-2 1c-3 0-5 5-6 18v11h3l9-2 6-1v-7l1-16c0-5 0-8-1-7 0 2-2 1-2-1s-1-2-4 0m21-1v14c2 1 2 1 2-2l1-8c0-5-1-7-3-4m-418 8c-1 1 2 48 3 49l3 1c3 1 4 1 4 5s0 6-2 6c-1 2-1 2 1 4l3 3v-8c0-8 0-8 2-9 3 0 4 16 1 19-2 2-3 2-3 1v5c0 4 2 6 3 4 2-2 2 0 1 3l-1 6-1 2v-4l-1-3-1 3-3 6c-3 4-5 9-4 9l3 2 1 2h-2c1 1 0 2-1 2-1 1-1 0-1-1 0-2 0-2-1-1 0 3 1 4 5 3 3 0 3-1 3-3-1-5-1-13 1-12l1-1 3 1c1 1 1 1 0 0l-2 1c0 1 4 5 6 5v4h-1c0-3-1-2-2 2l1 4h1a2 2 0 01-3 1c0-2-2-1-2 1l-1-1c-1-2-1-2-3-1v5l-2 1c0 1 4 1 5-1l2 1c2 2 5-2 5-5l1-6c3-6 3-11 2-17-3-11-5-21-6-38-1-19-3-26-3-14 0 4 0 6-1 5l-2-4v-1c2 0 2-1 2-2l-2-24c0-6-3-10-4-4-1 2-1 2-1-1l-1-4c-1 1-2 0-3-1h-3m236 5l1 1c1-1 1-1 0 0 0 2 0 2-2 0h-5l-1-1c0 1 1 6 2 5l1 3c0 1 0 2-1 1l-1 6v8c-1 1-6 3-7 2v-24c-1 0-2 7-2 15 0 4 0 6-2 6l-1-5-1-4v26l1-11 1-4c1 0 2 2 2 5a4 4 0 01-2 6c1 4 4 2 4-2 0-3 0-4 1-3l2 2 1 2h1c0-1 1-2 3-1l3-1c2-1 2 1 1 3l-1 4c0 2-1 3-2 3l-2 3-2 2c-2 1-3 14 0 14l3-1c3-4 19 0 16 4l1 3c2 2-2 5-8 5-9 0-9 0-9-2l-1-1 1 3v3h13l12-1 1-4c1-3 1-3-1-3-2 1-2 0-2-2 0-1 0-2-1-1-2 0-2 0-2-2l1-2 2-2c0-4 2-4 2-1 1 5 3 2 3-5s-2-10-3-3c0 3-1 4-5 5a5 5 0 00-6 4l-2-3-2-1c0-1-1-2-4-1l-5 2-2 1c-3 0-3-5 1-6l2-4c0-2 4-8 5-7 2 1 5-5 3-8v-2a2 2 0 00-1-4h-2c-1-2 1-5 3-5l1-4c1-3 2-4 4-5 1-1 2-2 1-3v-3c-1-2-1-2-3-2l-2-2c0-2 0-2-1-1h-5m-211 3l-1 2-1 5 2 21a50 50 0 001 17v5c-1 1 1 2 5 3h2v-11l-2-25c0-11 0-15-2-16-1-1-1-1-1 1v2l-1-2-1-2h-1m368 4l-6 2c-2 0-1 3 1 3 4 0 11-3 11-5s0-2-6 0m-228 11v11c1 4 3-1 3-7 0-7-1-8-3-4m255 6c0 7 0 9 3 9l1-1v-7l-1-7c-1-1-2 1-3 6m-321-3c-3 2-6 4-5 6l4-2c2-2 3-2 7-1 5 2 4 5-2 4-4-1-5-1-6 2-1 2-1 2 4 2l5-1h5c1-1 3-2 4-1l1-2-2-4c0-4-8-5-15-3m101 19l-1 16-1-11c1-11-1-20-1-11v27l1 4v-4c0-3 0-4 2-4 1 1 1-1 1-17v-17l-1 17m216-16l-1 2-2 1-2 1-2 3v2l2 1-3 1c-9-1-26 0-26 1l22-1 1 2h1l12-1h12v-6c0-5 0-5-2-4a6 6 0 00-1 8l-5 1h-4v-6c0-4-1-6-2-5M69 228c2 2 1 7 0 6-2-1-1 2 1 4l3 4 3 2v-3c-2-1 0-3 1-1h2a4 4 0 00-2-5l3-1c2 0 3-1 0-2v-2c2-1 1-3-2-3l-1-1c0-2-3-1-4 1h-2c-2-3-3-2-2 1m401 0c-3 0-3 4 0 5l4 3 1 4 2-4 3-5 1-3h-11m-167 3c-1 0-2 1-2 3l-1 7c0 4 0 4 2 3 1-1 1-1 1 2-1 4-1 4 2 0 2-3 2-4 1-7v-4a3 3 0 00-3-4m-94 4l-14 2c-7 0-11 1-7 3l3 1h1c-1-2-1-2 2-2l12-1 5-3h-2m285 4l-2 3a1 1 0 11-2 0l-2-2-4-1h-1c-1 2-1 3 1 4l15 2 8 1a3 3 0 103-4c-2 0-3-1-4-3-2-3-10-4-12 0m-228 4c-2 3-1 6 3 7 3 1 4-4 1-7-3-2-4-2-4 0m-195 3v2l-1 1v6l1 11v4c3-1 3 0 2-16 0-8-1-11-2-8m224 9c-5 2-2 4 8 4l9-1-2-1-5-2h-2c0 2-1 2-4 1l-4-1m-51 5c0 3 2 5 5 4 3 0 3 0 3 3 0 2 0 3-2 2l2 1 4 2v-1l-1-4-1-3-2-2-3-2-2-1c-1-2-3-1-3 1m-14 1l-1 1-1-1-1-1-1 2 7 2 8 1-1-2c-3-3-10-5-10-2m213 5l-1 15v14l1 6 1 2 2 8 2 11 1 6c2 1 0-14-1-25l-3-25c0-16-2-25-2-12M77 283v7l-1 1-1 2v7c1 2 3-1 3-3v-2l1-3c0-1 0-2 1-1v-1l-1-10-1-5-1 8m-75-7c3 2 31 10 35 11 5 1 6 1 7-1 3-2 3-3-6-3l-20-3-16-4m-2 46c0 15 1 21 1 13a685 685 0 00-1-13m314-16c-4 0-5 2-2 3 1 1 7 0 9-1s2-1 0-2l-2-1-5 1m-225 6c0 2 0 2 5 2s6-3 1-4-6-1-6 2m-54 2l-5 3-1 1-2 1h-3l-7 5-5 3 3-1 9-3c5-2 10-6 14-10 2-3 0-2-3 1m26 17l-15 5c-10 2-11 3-6 3l14-4 10-3 2-1c0-2-1-2-5 0m274 10h1l1 1c-1 1 0 3 1 4 2 2 2 2 1 3-2 1-3 3 0 3l1-1h5v-2l-1-2v-1l-5-2h8l1-1c0-3 0-3-4-2h-9m-65 15l2 13v10c-3 11 1 17 8 14 3-1 3-1 1-2l-2-2h7l-1-1c-2 1-8-8-8-10l-2-11-3-14c-2-7-2-6-2 3m-256 2l2 3c2 0 2 0 0 3v4l3 3c1 3 6 5 11 4h10l-3-2c-1-1-3-2-4-1a2 2 0 11-1-3c3 0 13 0 12-1l-5-2-5-1c-7 0-10-1-10-4 1-6 0-6-5-6s-5 1-5 3m361 12c2 1 2 1 1 2-2 0-2 1-2 3v2l-1 2-1 1v-5c0-3 0-3-5-3-3-1-4 0-2 1v2a7 7 0 001 9l2 4 2 2v-2l2-3v2l1 1 2-2c0-2 0-2 1 0l1 1 1-4c1-13 1-14-3-14h-2l2 1m-318 1c-3 0-4 3-2 5l2 2 2-1c5-4 3-7-2-6m270 9l6 11c4 7 3 7 7 5 2-2 2-2 1-3-3-1-8-5-6-6 2 0 1-2-1-2l1-1 2-3-1-1-1-1v-1h-3l-3 1c-1 1-1 1-1-1l-1-2v4M44 391l-1 3c-1 1-1 1 0 0l2 1-8 6c-2 0-3 1-1 1l6-2 4-2-3 4c-4 4-4 4 0 3l3-1-3 2c-2 2-4 2-13 3-2 1-1 1 2 1a29 29 0 0012-2c1 2-3 5-7 6-3 1-3 1 2 1h3l-1 1h-1c-2 0-7 2-6 3l4 1 3 1-7 1c-3 0-3 0 1 1l6 1a2 2 0 001 3v2l1 2 3 2c2 2 3 4 1 3-1-1-1 0-1 1l1 1c1-1 1 0 1 1l1 4c4 2 3 6-1 8l-3 2h4c5-1 5 0 1 2-2 1-3 1-1 1h1l-2 1c-2 0-2 0-1 1 2 0 3 2 1 2-1 1 0 1 1 1 5 0 5-1 5-15a133 133 0 00-4-35l-3-19a2 2 0 00-3-1m20 3l-5 2c-3 1-4 1-3 2v2c-2 0-2 0 0 1l2 3h2c2-1 1 0-1 2l-3 3 3-1c4-1 4 0 0 2l-3 1h5c-3 1-4 3-2 3l3 4c1 3 2 4 3 3 0-1 2-1 2 1l-1 1-1 1c0 3 3-2 4-7 2-8 2-12 1-14l-3-6c-1-4-2-5-3-3m276 31l-5 2c-3 0-3 0-1 1h4c3-2 5-1 6 1s1 2-3 1c-3 0-3 0-2 3s3 4 5 2l-2-1c-3 0 1-2 4-2 4 0 5-2 3-4v-2h-3c-1 1-2 0-3-1h-3m85 11c-1 1-1 1 1 3l2 2h-4l-1-1-2 8a80 80 0 00-5 20c-1 6-8 32-11 37v4h4c-1-2-1-2 2-1 2 0 2 0 2-2l2-2v1l2 4c2 1 2 2 1 3-1 2-3 0-2-2 0-1-1-1-3 1l-4 1c-2 0-2 0 0 1l2 2 2 1 1-1c-1-1 0-1 2-1 3 1 3 1 3 3l3 3c2 1 3 0 1-2l-2-5-1-4v-3l4 10a5 5 0 005 5l-2-4c-3-3-4-6-2-6l1 1c0 3 7 9 9 8 3-1 3-1 3 2v3l-1-3-1-1-1 1-2 1 2 1c1-1 1 0 1 3v2l1 2v3a43 43 0 001-25v-1l1-2v-6c1-5 0-6-2-10l-2-8c0-14 0-16-2-22l-3-5h-1c0-2 0-2-1 0l-2 2v-1l1-2 1-3c2 0 1-2-1-2s-2 0-1-2c1-3 3-4 3-2l-1-7c-1-2-2-3-3-2m-143 11v6l1 4h10c9 0 10 0 9-2s-4-3-4-1l-2 1 1-2 1-2 2-1 4 1 3 4c1 3 3 4 6 2 2 0 2 0 1-2l-2-2-2-1 1 3v1l-3-1a4 4 0 011-5l-6-2-2-2c-2 0-2 0 0 1 1 1 1 1-3 1-5 1-6 3-4 5v2c-1 1-1 1-2-1 0-2-4-2-3 0l-2 2-2-1 1-1 2-3c2-3 2-3-1-4h-5M0 567c0 64 1 90 1 58a15493 15493 0 00-1-58m488-103c0 2 6 8 8 8s4-2 3-3l-4-1c-2 0-3 0-1-1 3 0 2-2-1-2a3 3 0 01-4-2l-1 1m-4 6c0 3 0 3 1 2 2-3 3-1 2 3 0 4 1 7 3 5v-1c-2 0-2-1-2-3 1-4 2-5 3-3s3 3 3 1l-2-2-2-3-1-1-3-1c-2 0-2 0-2 3m-428 5c-1 4-3 4-18 4-10 1-15 0-17-1l-4-1 2 2c2 3 9 4 15 3h11c9 0 15-2 13-7 0-3-2-3-2 0m12 6v4l-5 1c-4 0-5 0-4 1l1 1v1l3 1h6l9 3 5 2 1 2h2c1-1 2-2 5-2h9l5 1-3-2-6-5-4-3-3 3c-3 3-6 4-7 2l2-4 2-4-1 1-3 2-1 2c-1 1-1 1-3-1l-4-2c-2-1-2-1 1-1l4 1c0 1 2 0 2-2h-3c0-1-1-2-3-1l-3-1h1c2 0 2 0 1-1-4-2-7-1-6 1m42 10l-4 2c-2 0-1 2 1 3l1-1 7-4-1 1-3 2h2l4-1c1 1 1 1-1 1l-2 1 2 1 6-2c7 0 6-1-2-4-6-1-7-1-10 1m361 23l1 8v3a40 40 0 00-1 22h2v5l-1 2-1 2-1-2c-1-2-1-1-1 3s1 5 4 5c5 0 9-6 5-9-3-2-2-3 1-1 2 1 2 1 1-1 0-2 2-2 6 1l2 2h1c2 1 3 0 2-1l2-4h3l1 1v-1a4 4 0 00-7 0c-1 1-2 1-1 2l-3-1-3-3c1-1-1-2-5-3-1-1-1-1 1-1l2-1-9 1c-1 1-1 0-1-3 0-4 0-4 4-3 2 0 3 0 2-1l-1-2-1-1h4c1 3 7 2 10 0 2-2 3-3 4-2v1l-2 2c0 2 0 2 3 0 2-1 3-5 1-5l-1-3c0-2 0-3 2-3 2 1 1-2-1-4l-3-4-2-1 1 2c1 1 1 1-1 2h-2v-3c-1-1-1-1-1 1 1 3 0 5-2 3s-2-2 0-2c2-1 1-3-2-3l-3 1c-1 1 2 5 4 5l3 3 2 2c2-2 2 4 0 6-3 3-8 4-8 1l-4-2c-2 0-3-1-1-1v-2l2 1c0 2 3 1 4-1 2-3 0-6-3-5-2 1-4-1-3-2 0-2 2-2 2 0l1 1v-6l1-2v-2l1-1h-1l-1-1v-2l-1 1-1 3c-2 1-2 1-1-2v-3l-2 2c-1 3-1 3 1 5s3 4 1 4l-2 1-1 2v-5l-1-8c-1-1-1 2-1 7m-69 3l-1 3c-1 1-6 8-6 10l2 2c2 0 2 0 1-1v-4l1 1c0 1 3 5 5 5v-1l1-2 1 1 3 2c2 0 3 2 2 4l1 2c2 1-1 6-3 6-2-1-2-1 0 1s2 2 0 2l-2 2h8c2 1 3 3 0 2v1l1 2v1l2-2c1-1 2-2 3-1h1l-1-2-2-2-4-8-3-7-3-5-6-13c-1-1-1 0-1 1m100 13l-1 2h-4l-2 3c-3 2 0 7 4 6 2 0 2 0 2 2v2c1 1 2 0 2-2l-1-3-1-1 2 1 2 3v-3c-1-2-1-2 1-2l4 2 2-1-8-2c-1-1-3 0-4 1-2 1-5 1-5-1h2l1-1 2-1c2 0 3-1 3-2l1-2 2-1h-4m-314 16l1 8c1 2 1 2 1-4s0-6 1-4l1 4v3c2 2 3 2 3 1l-2-2v-1h4c4 3 3 2-3-4l-5-5-1 4m120-2c0 2-3 3-3 2l-5-1h-4v1l1 3 3 2-3 1c-2 0-3 1-3 2-1 2-1 2 2 2 4-1 4-1 2-2-3-2 6-1 9 1 3 1 3 1 6-2s4-7 2-4a3 3 0 11-3-4c2 0 2 0 1-1h-5m31 21l4 13 1 3c0 2 0 2 3 2l2-1-2-1v-1c1-2 1-2-1-4l-1-3-2-3-2-4a1 1 0 10-2-1m37 10c0 2 5 5 8 6h2l-2-3-3-3-3-1c-2-1-2-1-2 1m90 62l2 4v4c-2 0-3 2-2 4l7 1 2 2v2l2 3 1 3c-1 1 2 2 2 0 1-1-3-10-6-12l-1-3-3-6c-4-5-4-5-4-2m-16 8l-2 2c0 2 4 4 7 4l4 2c2 2 3 1 3-2-1-3-2-4-3-2h-3l1-1 1-1-3 1h-4c-1-1-1-1 1-2l2-1h-4m3 12c1 2 0 6-1 6l1 2 2 4c1 1 2 2 3 1 1 0 2 0 3 2 1 1 2 2 3 1 2 0 2 0 0-1v-2c2-1 2-5 1-5-1 1-2 0-2-1l-2-1h-1v1c0 2-2 2-4 0v-3c1-2-1-5-3-5v1m-19 2l-1 1-2 1 2 1 2 2 3 3c3 2 4-2 1-4l-2-3a2 2 0 00-3-1m35 2c-1 1 3 4 5 3l1 1c1 1 0 4-2 4l-2 1c0 2 4 1 5-1 1-3 5-2 4 1l2 1c7 0 4-7-4-8l-7-2h-2" itemprop="regular" tabindex="-1" style="fill-opacity: 0.9; fill-rule: evenodd;"></path></symbol><symbol id="-posters-1650743324869-bold"><path d="M132 7l4 8 1 2 1 2 2 4 3 9 5 10 2 3c1-1-2-9-6-17-2-2-4-8-5-12-4-9-7-15-9-16l2 7m-20-2c-2 0-2 0 0 4l8 14c5 9 5 10 15 18s11 7 6-2l-2-5c1-1 0-2-1-2l-2-3-2-4-3-8c-4-8-6-10-10-10-2 1-3 0-5-1l-4-1m53 16l-12 1v1h-1c0-2-1-2-4-2-6 0-5 0-1 9 2 4 4 6 3 2-1-1-1-1 0 0l2 5c0 3 0 3 1 1 0-2 0-2 2 1l1 4 1-4c0-3 1-4 2-2h3l1 1 1 2 1-2 1-3 1 5c0 10-7 13-12 7l-2-1-1 3-2 5c0 4 0 4-1 2s-2-3-4-3l-6-1c-4-3-4 0 2 9 5 8 11 13 12 11h2c1 1 4 2 12 2a25 25 0 0114 3c5-1 7 0 8 6l3 5-1-5c-3-6-3-6 3-6h4l-1-1-1-2-1-3-1-5c0-4 0-4-1-3l-2 5-1 4c-3 0-4-2-4-7v-7c0-1 0-2 2-2 2-1 4-4 2-6l-1 1-6-1-3-1c-3 1-5-1-6-7l-2-4v3l1 6c1 3 1 3-1 3-4 0-4-1-3-10 0-8 1-10 2-6 1 2 1 2 2 1 0-2 2-1 2 1l1 3v-3c1-2 2-2 5-2s6-2 6-4l-2-1c-3 0-4 0-3-1 2-2-1-8-3-8l-14 1m25 5v6c0 5 1 9 2 7v1c0 4 1 7 2 6l1 1c-1 1 0 3 1 5l1 5 1 4v3l1 3c3 3 3 3-1-13l-5-21-3-8v1M0 103c0 56 0 56 2 56 1 0 4 1 5 3l4 3H8l-3 1-2 2-3 1v19l1 22 1 3 1-3c1-3 2-3 3-3 2 1 3 0 4-1l4-1c5 0 12-10 9-13v-1c1-2 0-9-1-12-1-2 1-8 2-6 0 1 1 1 2-1v-1c-1 1-1 0-2-1l-2-2-3-23-1-18v-11c1-1 3 9 4 21l4 31 1-1 2 1c2 2 3 4 3 9 2 15 2 16 0 20-1 3-1 7 1 8l2 14a340 340 0 001 18c-1-3-15-13-19-13-1 0-2 0-1-1h-4c1-1 0-1-2-1l-5-1c-3-2-5 0-5 5s0 6 3 7a7 7 0 005 0c-1 1 0 2 1 3v1c-2 0-1 5 1 5 3 0 4 1 3 3 0 2-4 3-10 4-3 1-3 2-3 4 0 5 7 6 12 3h12c8-4 15-1 22 9l5 7v-7l-2-24-5-60c-2-16-3-33-1-29l2 2 2 4c0 2 1 1 1-2l1-4v4c0 4 0 5 2 5l1-4 1-5h1l2 3 2 4 1 5 3 13c2 6 2 2 2-8 0-11 1-14 4-13 1 0 2-2 0-2v-10c1 0 2 2 2 5l1 18c0 3 0 4 1 3l1 7 2 23v-8l1-8 1 6c0 4 0 5 1 4l1 4v3l1-9v-9l-1-6v-5l1 5c1 4 2 2 1-2l1-2 1 3c0 2 0 2 1 0l2-1c1 0 2-1 1-3 0-4-2-4-2-1 0 4-4 0-4-4l-1-6 1-3c1-1 1 0 1 3l1 1 2 2 1 2 1-8v-8l1 1h2l2 1v1c2 0 5 4 5 7l1 4v2c-1 0-1 17 1 30l1 7v-15l1 5a2668 2668 0 013 12 17 17 0 00-1-12c0-3 0-3 1-1l1 3v-3l-1-4-1-2c0-1 1-1 1 1 1 1 1 1 2-1 0-2 1-2 2-1s1 1 1-1l-1-4c0-1 0-2-1-1l-1-2-1-2-1-4c0-3 0-4 1-3l2 1c1 0 0-3-2-4l-1-2c0-2 3-1 5 1l3 2c2 0 4 4 4 8 0 3 1 5 2 5v3c-2-1-1 8 0 12l2 3 1-2v-8c-1-4-1-4 1-3 1 3 1 2 1-2 0-3 0-3 1-2l1 3v1l1 3c1 4 2 5 2 2 1-3 3-2 3 2l-1 3-1-1-1-1c-2 0-1 2 1 4l2 2-1 11-2 12-4 1c-6 2-10 7-7 9l3 3c2 0 2 0 1 2l-2 4-5 1-5 1-2 2c-5 2-6 6-4 11 4 10 5 22 2 32-2 6-3 9-1 17 0 6 0 11-2 11-1 0-1-3 1-8l-5-5c-7-3-9-5-7-5l4 1h2c0-2-1-2-3-2l-4-1 1-2c2 0 0-2-2-3s-2-1-1 1 1 2-1 1h-2c1 2-1 3-2 1-2-2-3-1-3 3l-1 4c-2 0-2 0 0 2l2 2-3-1c-3 0-3 0-1 1l2 2h-3c-2 1-3-2-2-5l-1-4-1 2v2c-1 0 0 3 3 7l12 23c1 4 0 10-2 10l-1 2c0 2-3 4-9 5h-5v9l-1 12c-4 6-3 27 1 33 3 6 0 20-5 27l-4 4-2-4-4-7-1-6-1-4c-2 0-1-3 0-2v-2c-3-2-3-1-2 7l3 16 1 9 3-2c4-2 5-1 2 3-1 4-2 4-4 4l-1 1 1 1v1l-1 7-1 6c-2 1 0 2 8 2 9 0 11 1 5 3-2 1-3 1-4-1h-1l-2 1c-3 0-4 2-3 5 1 2 3 2 3 0l-1 1-1-1a2 2 0 013 1c-1 2 2 4 6 5l5 1c1 2 4 1 6-1 2-3 6-3 6 0l1 4c2 1 1 6-2 8v2c1 1 5-1 6-4 2-3 2-3 8 2s9 5 12 1l3-2 6 1 8 2c1 0 2 1 2 4l2 8 2 9 1 9c4 9 5 14 7 30l3 22c1 5 0 35-1 37-3 4-5 27-4 44v29h34v-14l1-22c0-15 3-32 3-24 0 3 1 4 4 2 1-1 2-3 2-7l2-12c4-10 5-18 4-31a326 326 0 010-29v-7l3 3 5 6 6 7 6 8a39 39 0 0113 22l2 5c1 2 1 8-3 22-8 27-12 47-12 60v11h33l1-4 1-7 7-27 9-42 1-8c2-6 3-16 1-24l-1-13-1-8-2-9c-2-15-10-44-16-57l-1-6-3-9c-4-11-4-13-1-15 3-1 3-2 3-5 0-7 1-10 3-10s2 0 1-1-1-1 1-4l3-4v-2l1-3 1-1c0 1 2 0 3-2a22 22 0 00-1-21c0-2-4-5-6-4l-3-1c-1-1-2-3-4-3-2-1-2-1 2-2 3 0 5 0 8 2s3 2 4 0v-2l2-1c1 0 2 0 1-1-1 0-1-1 1-2l-8 1c-2 0-3 0-7-10a101 101 0 01-5-14c-6-8-8-17-8-33-1-20 0-26 5-24l5-1c1-1 1-1-2-1l-3-1c0-1 3-5 5-5l2-1 1-1c2 1 1-8-1-9-2-2-2-2-1-5v-3l-1 2-2 2-1-2-2-2-1 2 1 6c-1 2-1 4 1 6 2 3 3 4 1 3l-3 1c-2 2-6-2-8-6l1 8c0 5-1 2-3-4-3-9-12-16-21-17l-5-1c0-2 8-1 11 1a10 10 0 0012-13l-1 2c0 4-1 2-2-2 0-3 0-3 2-2v-1l-2-5v-2l2 2c1 2 2 2 4 1l9-1c6 1 6 1 9-2 5-5 7-14 4-15v-5l1-4v-2l-1 2-2 2-1-3-1-2 1 3 1 4-1 2-1 1-2 1v-2c3-3 0-10-5-9-1 1-2 0-3-1-1-2-4-3-4-1a1 1 0 01-2 0 1 1 0 10-2 0c-1 1-1 0-1-1 0-3-4-4-4-1h2v3c-4 0-2 2 3 2a25 25 0 0110 3v3l-2-1-2-1-1 1v3l-1 2c2 3 0 3-3 1l-5-4c-3-1-3-3 1-2l3-1-3-1-3-1-2 2-2 6-4 11c0 7-11 9-21 4-6-3-20-15-21-19-1-2-2-3-4-2-3 0-6-1-6-5-1-5 0-7 1-4 1 2 4 2 7 0v-8a28 28 0 012-18c2-8 3-10 8-14 7-5 8-8 5-10l-1-2 5 5 3 2 10 2c10 3 13 6 16 16 2 7 3 8 4 8l7-2c5 0 5 0 2-8l-6-24-1-8v6c0 12-2 7-2-6 0-12-1-19-3-20v3c2 4 2 16 2 40 0 8-1 10-2 6l-2-3-1-1-2-3-1-1 1-1-1-1-3-6-4-6h-2c-6-3-8-3-13-3l-5-1c0-2-3-1-3 2-2 7-13 5-22-3-3-3-4-2-4 3 0 4-2 5-5 2l-3-3-1-1-1-1-3-3a27 27 0 00-15-14l-2-2-4-3-5-3-2-2-4-5-4-5-1-1c-2 1-9-7-9-9l-2-1-3-2-4-3-4-3-4-3-5-3-4-3c-1 1-3-1-6-5l-4-2c-2 0-3-1-5-4l-4-4-5-5-3-3c-1 0-4-2-7-6-1-3-3-4-4-4-1 1-3 0-6-4-4-4-6-6-8-6l-6-5c-8-11-8-14-8 50m486-48l-4 3h-3l-3 1-3 2v-1c1 0 2 0 1-1l-1-1h-3l-2-1c-1 1 0 2 1 3l2 3-2-1-3-1c-2 0-2 0 0 2l6 1h2v1l2-2 2-3 1 1v2c1 2 8-2 7-4l2-1h1c-1-1 0-2 1-1v-1c0-2-1-2-4-1m-327 4l3 7 3 5 1 1 1-2v-2l2 2 1 2c1-1-1-6-2-6l-1-1 1-1-1-4c-2-5-4-6-4-2v4l-1-4c-2-4-3-4-3 1m12 0l1 8 2 4 5 1c5 0 6 0 6-2l-1-2h-1c-1 0-2-1-2-3 0-8-3-12-4-4l-1 5-1-1v-5c1-1 1-1-1-2-2-3-3-2-3 1m-4 18c-2 0-2 0-1 2 1 1 1 1-2 2s-8 2-9 1h-2l3 6c3 4 4 5 4 13l1 9h13l14-1-3-9c-3-9-3-8 8-9l8-1h-7a22 22 0 01-11-2l-3-1c-2-2-2-2-2 0 1 2 1 2-3 2-5 0-5 0-5-3s1-4 2-4l1-2v-1l1-1c0-1-4-2-7-1m12 18c0 3 0 3-1 2s-1-1-1 1l-1 2-1 1 5 1c4 0 6-1 3-2l-2-2-1-5c-2-1-2 0-1 2m331 31l-2 1-14 7-10 5a355 355 0 00-21 11 13 13 0 00-7 4c0-1-1-1-3 1l-4 2-2 2 4-1 5-2 2-1 2-1c2 0 3 0 2-1 0-2 11-3 15-2 2 1 14-4 17-7l16-1-6 2h-3c-3 1-3 1-1 1 1 0 2 0 1 1l-3 1h-1l-2 1c-3-1-5 0-2 1 1 1 1 1-1 1-3-1-8 0-9 2l-4 1h-3c1-2 1-2-4-2l-6 1 4 1 3-1-2 2-1 2h3l4 1c2 1 9 0 8-1l1-1 1 1 1 1c1-1 1 0 1 1h-1l-1 1c1 1-1 2-4 4l-13 4c0-2-1-1-4 1l-9 1-9 1h-3l-1-2c-9 3-9 3-10 2v-2h-1l-4-1-7 2-7 4 4 4c4 4 5 4 6 2 1-3 3-2 2 0 0 3 2 5 4 3l3-1 3-1c3-2 3-1 3 3s-1 6-2 3c-1-2-1-2-3-1-2 2-2 4 0 3l1 1 2 2 2-1c-1-3 10-7 12-4h2v1h1c1-2 5-2 5-1l1 4 1 3-2-2-2-2 1 3 1 3c2 0 1 6 0 7h-4c-2-1-3 0-2 2 0 2-1 2-4 4l-4 2 3 2c2 3 3 3 7 2h10c5 0 5 0 5-3 0-2 0-2 1 1l1 3v-3c0-2 0-3 1-2l2 1 1 1h1c0-2 2-1 2 1 1 1 1 0 1-2 0-3 2-5 3-2h10c3 0 3 0 5-4l1-6h-9l2 1c2 0 2 1 2 2s-2 2-6 2h-5c0-2-3-1-16 2-2 0-2 0-2-8l1-13c1-4 0-5-1-4-3 0-3-2 0-5h4c-1-2 3-4 20-10 12-4 12-4 8 0-2 2-3 3-7 3h-4v7l2 8 1 1v1l1 3c0 2 0 2 2 1v1l-2 2-2 1 9 2h3v18l1-6c0-8 1-9 6-9h4v-9l-7 2c-3 1-7 2-8 1-3 0-2-3 0-3 2-1 2-2 1-5 0-7 1-15 3-16s2-1 2 8l-1 10 5-1h5v-7l-1-8v-4c2-4 2-5 1-5v-15l-5 2-8 4h-6c0-2 5-4 15-8 4-2 4-2 4-7v-6l-7 1c-5 0-7 0-5-1l7-1c5 0 7-2 3-3l-2-1h2c2 0 3-3 1-3l-1 1M61 141c0 12 1 15 2 15l1-4c0-11-1-14-2-16-2-2-2-2-1 5m-15 37l2 15a271 271 0 002 24l2 15 1 6c-1 0-2 1-1 4 0 6 1 6 1 1 0-3 0-4 1-3l1 2v3c1 2 1 2 1-2v-4l1 4c1 7 2 6 1-2 0-6 0-7 1-5s3 3 3 1l-2-6-3-8c0-2 0-3-1-2s-2-9-1-11l-1-2v-3c2-2 2-2 0-4-1-1-2-4-2-10l-2-11v-4l-1 3-1 4v-5l-1-4-1 4m407 14l-3 1c-3 0-3 0-1 1 3 0 4 3 1 5-1 1-1 1 2 1l4-1v-2l1 1c1 1 1 0 1-2a3 3 0 00-5-4m-56 13c4 2 2 3-3 2-7 0-8 1-3 2l3 3 1 2 2 6c0 5 0 6 2 5s2-5 0-8l1-3 2-3 1-3c1-1 1-1-1-1l-3-1-2-2v1m-249 8c-2 2 1 13 4 16 2 1 2 1 2-3v-6c1-2 1-3-1-4h1c2 0 2 0 1-2s-6-3-7-1m305 4l-1 2c0 2 0 3-2 2l-2-1-1-1-1 1-7 1c-10 1-22 7-26 12-2 3-3 4-7 5l-6 3-4 1-4 3c-1 3-2 4-4 1-3-1-7-2-7 0l-5 5-5 6c0 2-1 2-3 2h-3l-4 1c-2 0-3 1-3 3l-2 5-3 4-4 6c-17 21-9 35 15 28l9-2 5-2c3-3 9-4 9-2l-3 3c-2 2-3 2-2 15 1 5 2 8 5 6v-4c-1-2 0-3 2-2l1-2 1-3 1 4-1 3-1 4-2 10a55 55 0 004 37c2 2 2 2 1 5l-2 5-1 4c-4 9-5 22-4 28l2 15 2 19-2 16c-2 6-3 13-3 21a60 60 0 01-4 19l-2 3c-2 2-2 3-3 16v15l4 2 7 2 4 1 1-6c3-8 6-15 8-16l1-5 4-11 5-16 4-13 2-12 3-12 3-10c2-5 4-9 5-7 2 2 4 11 5 17l2 12c2 7 3 9 2 16-1 4-1 6 1 10s3 6 3 15v12l-1 13c-2 19-1 30 2 34s4 5 1 7l-3 4c0 2-2 3-3 3-2 0-2 0-1-1s1-1-2-2c-5-2-8-1-11 4-3 6-1 10 5 17l4 5 2 2 1 2 3 4 4 3c0 2 9 8 12 8l3-2c1-3 3-4 3-2s2 1 3-2c2-3 0-6-3-5-2 1-1-1 1-3l3-3c0-6 1-15 3-15 1-1 1-5-1-7-2-3-1-7 1-12 2-3 2-5 2-17l1-18c3-11 1-38-2-44l-1-5c1-2 0-4-1-6v-8l-1-11a172 172 0 015-56c0-2 1-5 3-6 2-2 2-3 2-10 0-11-1-14-3-14-16 5-28 5-35-1-4-4-5-4-11-17-5-10-6-11-3-3l1 5c-1 0-8-11-10-17l-5-10-10-21 4 3c4 5 5 6 10 5l5-3 1-2 8-15a206 206 0 0014-50c2 0 7 4 9 7l4 3 3 3c1 4 7 4 13 1h4a187 187 0 0112 35l19 5 5 2 3 3v17l1 18v-20l-1-20c-1 0-2-1-2-3l-2-3c-1 0 0-7 2-11 3-4 3-19 1-17l-4 9c-2 9-2 8-7 6l-9-2c-5 0-5-1-8-10-1-5-3-10-5-12-2-3-3-5-3-11-1-11-2-12-5-14-3-1-3-6-1-6l1-3v-3h-7l-6 1v-3c0-3-1-4-4-2m-90 7c-10 2-14 3-15 6l-2 4c-2 1-2 4-1 4 3 1 5 0 6-4 0-3 1-4 3-4 3 0 3 0 3 5v6l1-6c0-6 1-6 4-7 10-3 9-3 9 4 0 3 0 4 1 3 0-3 0-3 1-1 1 1 1 0 1-3l2-6v-1h-13m-28 13c-3 1-4 4-4 11-1 3 1 2 1-1 1-6 7-11 7-6 0 2 1 1 1-2 1-3 0-3-5-2m-121 2c-1 1 0 3 3 6a31 31 0 013 5 1075 1075 0 011 3l1-1c1-2 2-2 3 0 3 2 4 3 3 0l-2-7-1-1-5-3c-3-3-4-4-6-2m280 0c-2 3-1 4 4 5l8 1h6c0-1-1-2-3-2l-3-2-4-1-6-1h-2m-402 9h-3l-1 2v2c-1 0-2 0-1 7 0 4 0 4 4 4s4-1 3-3l-1-8-1-4m170 9l-3 2c-2-1-3 2-3 8-1 2 0 3 4 5l6 6c3 4 5 4 5-1a36 36 0 00-4-16h2l1-1-1-2-1-1c1-1 0-2-1-1l-2-1c0-2-2-1-3 2m17 10l-1 29c0 24 0 24 1 14l2-8 1-16c0-13-1-16-1-10v10l-1-12c0-10-1-11-1-7m207 17c-1 1-1 2 1 3l8 2c7 1 11 1 9-1l-7-2-9-2h-2m-234 6c-2 1-2 3-2 4 1 3 1 3-1 2-1-1-1-1-1 1 1 2 1 2-1 2h-2l2 1h3a3 3 0 013 3l-1-1-2-1 5 7c7 7 10 13 13 30 1 3 7 4 9 2v-12l-2-1-4 1c-1 1-1 1 0 0l1-2 3-2c2-2 2-5 0-5l-1-2c1-1 0-2-1-3l-2-4-1-2-1-2c0-3-3-3-3-1-1 2-1 2-1-1-2-5-5-9-6-7l-3 2v2h-1l-1-2a16 16 0 002-3c-3 2-3 1-3-3 1-6 1-6-1-3m141 13c1 4 0 23-1 30-2 10-2 29-1 29 2 0 2-2 2-11l2-24c2-14 1-23-1-26-2-1-2-1-1 2M1 310l1 8v2c-1 0-2 21 0 21 1 0 5-15 5-19v-5l-2-3-1-5-2-4c-1-1-1 1-1 5m87 0l1 4 5 1 4-1 2-3c2-1-1-2-7-3-5 0-5 0-5 2m10 18c-7 1-9 10-3 10l3 1h-2l-4 5 3 2c2 1 2 1 1-1-2-2-1-3 2-2 2 1 5 0 3-2l1-1c2 1 2 0 2-3 0-4-1-5-5-4l-2-1c0-1 3-2 5-1l1-1-3-3-2 1m-40 10c-15 5-50 13-51 10H5l-3 1c-2 0-3 3 0 4l1 3 1 4-3 3c-1 1-1 1 1 1 4 0 7-7 5-11-1-1 0-1 9-3 20-4 50-13 50-15l-8 3m-1 27l-3 1-5 2-4 2 1 2 2 8c-1 6 0 8 1 4v-8a8 8 0 017-9l3-2c3-1 3-1 1-1l-3 1m301 14c0 14 0 14 2 13l1-2 2-3c1-3 1-8-1-6l-1-2 1-3 1-4c1-4 4-5 7-3h1c0-2-1-2-9-4h-4v14M4 370l-4 3v29a169 169 0 001 31c-2 3-1 8 3 12 4 5 4 6-1 8-2 1-3 2-3 4 0 4 3 4 8 1l3-1h3l-6 5c-8 8-8 8-8 13s0 5 2 4l2-2 4-2c6-5 9-5 8-3-1 4 3 6 11 7 8 0 9-1 7-5-1-2 1-3 3-1l1 1v-2l1 1c3 3 2 5-1 3h-1c1 3 19 2 19-2l-1-2v-5c2-4-1-3-4 0-4 4-7 5-9 2-2-2-2-3-1-5v-3c-2-2-2-2-2 0l-1 2-1-3-1-5-2-4c0-4-5-24-7-27v-5l-1-3-4-9-2-5-1-2-7-20-4-12-4 2m93 10v2l5 12c2 8 2 9 2 3l1-6-3-8c-4-6-5-6-5-3m305 18l1 5 3 3c2 3 6 1 3-2l-2-4c0-5-6-6-5-2m10-1c-2 2-1 2 3 2 4 1 15 0 16-1 2-1-17-2-19-1M87 418l2 6 1 4 1-4c0-2 1-3 2-2l1-3c0-5-1-5-2-1-1 3-3 2-4-1-1-2-1-2-1 1m307 134a498 498 0 002 8l2 2 2 5c0 3 2 7 3 6l1 1v1l1 1 2 5 1 5 1 1 1 2 1 2 1 2 2 3 3 6a24 24 0 003 6l2 3 1 5c1 3 4 7 5 6 0-1-4-10-6-11l-1-3-5-12-7-13-7-16a132 132 0 01-7-17c-2-1-2-1-1 2m-41 16c-2 8-2 7 5 16l3 1c1 0 2 0 1-1v-2l-3-2c-4-1-7-8-5-13v-2l-1 3m23 15l3 3 2 4c0 2 0 2 2 2l3-1v-1l-2-3-2-3-3-1h-3m-27 3v3c1 3-1 3-2 1l-2-4-1-1 1 4c1 4 2 4 4 4 3 0 3-1 3-2l2-2 2-1-2-1-3-1c0-2-2-2-2 0m-152 19l-1 3v1l-1 13-2 11-1 1c-1-1-1 2-1 13l-1 2-1 2v4l-1 2v4l-1 5-1 4-1 7c-1 5-1 6 1 6s2-1 3-11a1150 1150 0 017-47l2-23-1 3m238 34l1 4 1 3c0 2 2 7 3 6l2 3c0 3 4 10 7 15l2 5 2 2c2 0 1-1-3-10l-9-19-6-9" tabindex="-1" itemprop="bold" style="fill-opacity: 0.985; fill-rule: evenodd;"></path></symbol></defs><use class="background" href="#-posters-1650743324869-background" fill="url(#-posters-1650743324869-background-gradient"></use><use class="light" href="#-posters-1650743324869-light" fill="url(#-posters-1650743324869-light-gradient" filter="url(#light-filter)"></use><use class="regular" href="#-posters-1650743324869-regular" fill="url(#-posters-1650743324869-regular-gradient" filter="url(#regular-filter)"></use><use class="bold" href="#-posters-1650743324869-bold" fill="url(#-posters-1650743324869-bold-gradient" filter="url(#bold-filter)"></use><use class="emboss" tabindex="-1" href="#-posters-1650743324869-light" fill="url(#-posters-1650743324869-light-gradient" filter="url(#emboss)"></use><use class="emboss" tabindex="-1" fill="url(#-posters-1650743324869-regular-gradient" href="#-posters-1650743324869-regular" filter="url(#emboss)"></use><use class="emboss" tabindex="-1" fill="url(#-posters-1650743324869-bold-gradient" href="#-posters-1650743324869-bold" filter="url(#emboss)"></use><defs><g class="gradients"><radialGradient gradientUnits="userSpaceOnUse"><stop itemprop="radial" stop-color="hsla(351, 11%, 33%, 1.00)" offset="0%"></stop><stop itemprop="radial" stop-color="hsla(6, 7%, 27%, 1.00)" offset="15%"></stop><stop itemprop="radial" stop-color="hsla(250, 4%, 27%, 1.00)" offset="30%"></stop><stop itemprop="radial" stop-color="hsla(210, 6%, 55%, 1.00)" offset="45%"></stop><stop itemprop="radial" stop-color="hsla(231, 3%, 55%, 1.00)" offset="60%"></stop><stop itemprop="radial" stop-color="hsla(12, 3%, 34%, 1.00)" offset="75%"></stop><stop itemprop="radial" stop-color="hsla(11, 11%, 37%, 1.00)" offset="90%"></stop></radialGradient><linearGradient gradientUnits="userSpaceOnUse" x1="0" x2="0" y1="0" y2="100%"><stop itemprop="vertical" stop-color="hsla(356, 10%, 32%, 1.00)" offset="0%"></stop><stop itemprop="vertical" stop-color="hsla(350, 5%, 23%, 1.00)" offset="15%"></stop><stop itemprop="vertical" stop-color="hsla(215, 7%, 51%, 1.00)" offset="30%"></stop><stop itemprop="vertical" stop-color="hsla(225, 3%, 50%, 1.00)" offset="45%"></stop><stop itemprop="vertical" stop-color="hsla(23, 8%, 38%, 1.00)" offset="60%"></stop><stop itemprop="vertical" stop-color="hsla(356, 10%, 32%, 1.00)" offset="75%"></stop><stop itemprop="vertical" stop-color="hsla(350, 5%, 23%, 1.00)" offset="90%"></stop></linearGradient><linearGradient gradientUnits="userSpaceOnUse" x1="0" x2="100%" y1="0" y2="0"><stop itemprop="horizontal" stop-color="hsla(348, 9%, 32%, 1.00)" offset="0%"></stop><stop itemprop="horizontal" stop-color="hsla(9, 5%, 26%, 1.00)" offset="15%"></stop><stop itemprop="horizontal" stop-color="hsla(252, 4%, 23%, 1.00)" offset="30%"></stop><stop itemprop="horizontal" stop-color="hsla(212, 5%, 48%, 1.00)" offset="45%"></stop><stop itemprop="horizontal" stop-color="hsla(228, 2%, 50%, 1.00)" offset="60%"></stop><stop itemprop="horizontal" stop-color="hsla(12, 3%, 32%, 1.00)" offset="75%"></stop><stop itemprop="horizontal" stop-color="hsla(11, 9%, 36%, 1.00)" offset="90%"></stop></linearGradient></g><g class="generated gradients"><radialGradient id="-posters-1650743324869-background-gradient" gradientUnits="userSpaceOnUse"><stop stop-color="hsla(351, 11%, 80%, 1)" offset="0%"></stop><stop stop-color="hsla(6, 7%, 80%, 1)" offset="15%"></stop><stop stop-color="hsla(250, 4%, 80%, 1)" offset="30%"></stop><stop stop-color="hsla(210, 6%, 80%, 1)" offset="45%"></stop><stop stop-color="hsla(231, 3%, 80%, 1)" offset="60%"></stop><stop stop-color="hsla(12, 3%, 80%, 1)" offset="75%"></stop><stop stop-color="hsla(11, 11%, 80%, 1)" offset="90%"></stop></radialGradient><linearGradient id="-posters-1650743324869-light-gradient" gradientUnits="userSpaceOnUse" x1="0%" x2="0" y1="0" y2="100%"><stop stop-color="hsla(356, 10%, 60%, 0.9)" offset="0%"></stop><stop stop-color="hsla(350, 5%, 60%, 0.9)" offset="15%"></stop><stop stop-color="hsla(215, 7%, 60%, 0.9)" offset="30%"></stop><stop stop-color="hsla(225, 3%, 60%, 0.9)" offset="45%"></stop><stop stop-color="hsla(23, 8%, 60%, 0.9)" offset="60%"></stop><stop stop-color="hsla(356, 10%, 60%, 0.9)" offset="75%"></stop><stop stop-color="hsla(350, 5%, 60%, 0.9)" offset="90%"></stop></linearGradient><linearGradient id="-posters-1650743324869-regular-gradient" gradientUnits="userSpaceOnUse" x1="0" x2="100%" y1="0" y2="0"><stop stop-color="hsla(348, 9%, 50%, 1)" offset="0%"></stop><stop stop-color="hsla(9, 5%, 50%, 1)" offset="15%"></stop><stop stop-color="hsla(252, 4%, 50%, 1)" offset="30%"></stop><stop stop-color="hsla(212, 5%, 50%, 1)" offset="45%"></stop><stop stop-color="hsla(228, 2%, 50%, 1)" offset="60%"></stop><stop stop-color="hsla(12, 3%, 50%, 1)" offset="75%"></stop><stop stop-color="hsla(11, 9%, 50%, 1)" offset="90%"></stop></linearGradient><linearGradient id="-posters-1650743324869-bold-gradient" gradientUnits="userSpaceOnUse" x1="0" x2="100%" y1="0" y2="0"><stop stop-color="hsla(356, 10%, 8%, 1)" offset="0%"></stop><stop stop-color="hsla(350, 10%, 8%, 1)" offset="15%"></stop><stop stop-color="hsla(215, 10%, 8%, 1)" offset="30%"></stop><stop stop-color="hsla(225, 10%, 8%, 1)" offset="45%"></stop><stop stop-color="hsla(23, 10%, 8%, 1)" offset="60%"></stop><stop stop-color="hsla(356, 10%, 8%, 1)" offset="75%"></stop><stop stop-color="hsla(350, 10%, 8%, 1)" offset="90%"></stop></linearGradient></g></defs><defs><filter id="light-filter"><feColorMatrix in="SourceGraphic" type="matrix" values="1.5 0 0 0 0
                0 1.5 0 0 0
                0 0 1.5 0 0
                0 0 0 1.5 0"></feColorMatrix></filter><filter id="regular-filter"><feColorMatrix in="SourceGraphic" type="matrix" values="1.5 0 0 0 0
                0 1.5 0 0 0
                0 0 1.5 0 0
                0 0 0 1 0"></feColorMatrix></filter><filter id="bold-filter"><feColorMatrix in="SourceGraphic" type="matrix" values="1 0 0 0 0
                0 1 0 0 0
                0 0 1 0 0
                0 0 0 1 0"></feColorMatrix></filter><filter id="emboss"><feConvolveMatrix kernelMatrix="3 0 0
                      0 0 0
                      0 0 -3"></feConvolveMatrix></filter></defs></svg>