<svg id="-posters-1650743514621" itemscope="" itemtype="/posters" itemid="/+/posters/1650743514621" viewBox="0 0 512 682" preserveAspectRatio="xMidYMid slice" tabindex="0" xmlns="http://www.w3.org/2000/svg"><defs><symbol id="-posters-1650743514621-background"><rect itemprop="background" width="100%" height="100%" tabindex="-1"></rect></symbol><symbol id="-posters-1650743514621-light"><path d="M0 341v341h222l221-1-6-45c-3-9-3-12 0-14 4-2 5 1 3 11l2 10c2 5 4 26 4 36v3h26v-18c-1-17 0-37 1-37l1 20 2 27v8h37V0H0v341m0 1c0 187 1 264 1 170a137448 137448 0 00-1-170M403 31c-2 2-3 3-2 4l1 8c1 9 6 6 8-4 1-9-1-12-7-8m-140 7c-3 4-4 8-4 9 1 2 5 1 7-1 2-1 2-1 1 1l-1 2-1 1-5 1-4-1h-2l-2-1a1 1 0 00-2 1l-1 1c-2 0-2-1-2-2v-1c-1 1-2 0-2-3-1-14-18-12-18 2 0 5-1 6-2 6-1-1-1-1 0 0 1 2-1 3-2 2-3-3-8-4-8-2l-1 2v-5c2-4 2-6-3-6l-7-2c-2 0-3 0-6 3l-4 4-5-4-6-3-4 2-5 3c-1 1-2 0-4-2-5-3-5-4-7-2s-2 2-4 0c-2-1-2-1-5 1-3 3-4 4-7 1s-5-2-10 1l-4 2-4-2c-4-4-5-4-11 0l-4 2v6c1 6 1 6-2 0-4-7-4-7 1-9 5-3 4-4-5-9s-9-5-11-2l-1 2-2-2c-3-3-3-3-9 2-5 4-5 6-2 6 5 2 5 14-1 20-2 3-2 4 6 7l6 3 4-5 5-4 1 4c2 5 3 5 8 2 3-2 4-2 6-1 9 4 10 4 12 1l3-3 5 2 6 3c2 1 3 1 5-2l2-3 4 3 5 1v2l-4 3-5 3c0 2-1 3-2 3l-1 1-2 3-2 3h-1l-1 1c1 3-2 5-4 3-1-1-1-1-1 2v1l-3-1-2-3c0-1-1-1-2 1-2 2-2 2-4 1h-5c-2 2-5 2-5 0l3-2c4-2 2-4-4-6-5-2-6-2-7 6l-2 7-3-2c-3-4-6-4-10 0l-4 2-2-3-2-2 2-2c5-4 0-7-9-7l-6-1c-4-2-9 3-9 10-1 7-1 7 2 7l5 1c1 1 2 0 4-2 2-5 3-5 3-1v3c1 1 0 19-1 25-1 3-1 4 2 5s4 0 7-7c2-8 2-8 8-5 4 3 8 4 8 1h3v-3c1-2 1-2 2 0l1 2h2l1 2-1 5c0 2 0 2-1 1v-3l-1-1-1 1c-1 1-2 2-3 1-2 0-2 0-1 1v2l-2 10c-1 5-2 8-4 8s-2 1-2 2l-1 2-1-2c2-6 2-6-5-7-7 0-7 0-3 1l6 1c3 0 3 3 0 4l-2 1 2 2c4 2 0 11-5 11-7 0-11-6-9-13 2-4 2-4 0-2-2 3-3 7-1 10 1 3 9 7 12 6v3l-2 1c-2 1-3 1-2 2 2 1 1 8-2 8l-1 9c0 8 0 10-2 11l-3 5c0 2-1 3-2 3-2 0-1 6 1 9v6c-2 3-2 6-2 13l-1 8c-1 0-2 2-2 8l-2 8c-1 1 3 9 5 9v2a1 1 0 102 0l2-2c2-1 2-1 1 1l-2 3-1 2-1-1-1-1c0 1 4 9 6 10 1 0 1 1-1 2-1 1-1 1 2 2 5 2 6 6 2 6v-1l1-1-3 1v2l-1 1c-2-1-4 9-3 12v4h2l-1 2-2 1 3-1h3l3 1 3 1-2 1h-1l2 4 3 4c1 0 2 8 1 10v3c2 1 2 2 1 4l1 3 3 4a4 4 0 003 4c0 3 4 6 6 6l5 2c2 2 3 2 7 1 6-1 9-1 7 1-1 2-1 2 2 3 5 1 6 1 5 2h-14l-2 2h3l5 1 15 1 26 3 24 4 15 2h3l-8-2-13-3-9-1-11-2-24-4c-5 0-9-2-5-2v-1c-1-1 1-3 4-3l2-1c1-2 2-2 6 0a14 14 0 007 3l-2 2v2h6l3-2c1 0 3-3 3-6 1-3 4-7 7-7l8 4-1 1c-2 2-1 5 3 6 2 1 2 2 2 4l1 3 3 2h4c5-2 14 0 11 2a5 5 0 007-2c1-1 1-2-1-2-3 1-2-2 1-3l16-4-1 1a2 2 0 102 3c7-1 10-1 10 1 1 3 5 4 9 3 4 0 5-2 2-4-2-1-2-1 0-4 1-3 3-4 2-1 0 1 0 2 2 1l2-2c0-2 7-4 10-3h5l4 1 1 2 4 3c-1 2 1 2 2 0l1-2c-3 0-3-2-1-4 3-3 3-3 6 0 2 2 2 2 6 1s5-3 2-3v-1l3-1c1 1 3 0 4-1 3-3 14-8 15-7l-1 1c-4 2-3 5 1 5 4 1 5 1 4-2v-3c1-1 0-1-1-2l-2-2a2 2 0 00-3-3h-2c-2 0-2 0 0-2 3-3 10 0 8 3s-1 3 1 2l1-3 3-1c2 1 6 0 12-3l9-3c3 0 10-4 10-6-1-1 0-1 1-1l2 1c-1 2 0 1 3-1v-1h-1l-2-1-2-2-2-2c-3 0-5-3-5-5v-3c-2-2-2-4 0-4v-3c-3 0-5-3-3-4 2-2-7-10-11-11l-5-2c-4-3-26-2-33 1-5 3-6-2-1-8l3-4-3 3c-5 4-7 2-3-3 2-3 2-3 0-2-3 1-3 1-3-1 0-3 5-7 13-12l4-3a936 936 0 00-17 5c-2-2 0-5 5-6l4-3c0-3 14-6 26-6 8 0 8 0 10-3 3-2 3-2 7-1l11 1 6 1 7 7c11 12 14 14 22 14 6 1 6 1 6-1l7-9 12-14c6-8 11-11 30-15v-1c-2 0-3-6-2-13v-12l-1-3c2-3-1-2-4 1-3 4-5 5-7 2-1-1-1-1-3 1-2 3-3 0-4-7 0-8 1-9 3-8 2 0 2 2 0 3v1c1 1 2 2 1 4l1 3 1-3c-1-3 4-5 7-3l2 2c1 0 0-3-2-5-1-1-1-1 1-1 3 1 3 1 2-1l-2-1c-1 0-2-1-2-4l-2-5-1-4c1-3-1-11-3-12l-4-8-2-2c-1-2-1-3 1-5 1-1 1-1-1-1l-4-2-3-2c-2 0-3-1-4-7 0-5 0-5-4-5-3 0-3 0 0-1l1-1h-4l-2-1c1-2 0-2-2-2l-2-1 3-1c3 1 8-1 6-2l2-1c1-1 1-1 0 0l1 1c1-1 4 0 6 1l4 2 4-3 4-4 2 3c4 4 7 5 9 2 3-2 2-1-1 4-2 3-2 3 0 5 7 5 15-11 13-24-1-5-6-12-8-12s-2-1-2-5c0-6-1-7-7-4-5 3-5 3-4 7 0 4 0 4-2 4-9-3-11-2-15 2l-4 2-6-4-6-3-5 3c-5 5-5 5-7 1-2-2-2-2-1-3 3-1 2-3-2-7-7-5-11-5-14-3s-3 2-5 0h-1c0 2-3 0-4-3-2-2-2-3-8-5-3-1-4-3-4-4l-2-2-1-1c0-2 1-1 5 2 5 3 6 3 8 0s2-3 4-2c4 2 4 3 0 4-5 2-4 7 3 9 3 2 11-8 16-20l2-5v5c-1 5-1 6 2 8 4 3 6 3 7 0l1-2 3 2c3 3 4 3 8-2 2-3 2-4 1-5l-1-8c0-6 0-6-4-8-4-3-6-4-8-2h-2c-2-2-3-2-5 0s-2 2-4 1c-3-3-5-3-6-1s-3 3-5 1c-3-4-11 1-9 6v10c-2 0-2-3-2-16 0-15 0-15-7-11l-4 3v5c0 7 0 7-6 3l-4-3-5 2-4 3-4-3c-5-3-6-3-11 2-3 4-4 5-5 3 0-2-6-7-7-7l-6 3-5 4v-6l1-7c1-3 0-4-8-4l-11-1c-3 0-4 0-7 7m141-6c-2 1-2 2-1 3l1 7 1 5 1-4c2-4 3-12 1-12l-3 1m-136 2l-6 11 4-1 8-3c5 0 5 0 5 2s-1 2-4 2-4 0-6 3l-2 4h11v3c-3 12-7 19-12 20-4 0-5 2-3 3 2 2 4 1 9-3 10-8 13-16 14-33l1-8h-19M87 37c-4 3-5 4-2 4 5 0 5 14 0 20-3 4-2 5 5 7 4 1 4 1 7-2 2-3 3-4 1-4-2 1-7-1-7-2l2-5 3-8c0-5 2-6 5-5l3 1-3 3-3 3 3 5 4 10c2 6 2 6 7 3l3-3 6 3 6 2 3-3c3-3 3-4-1-4-5 0-5-1 0-5 5-5 5-6 0-9-5-4-5-4-10-1l-3 2 1 6c1 11-3 10-8-2l-3-7 4-2c5-3 5-2-3-7l-7-3-2 2-2 3-2-3c-3-3-3-3-7 1m263-1l-3 2v11l-1 13c-1 2-1 3 2 5l4 3 2-3 3-3-2-2c-2-2-2-3-2-15V34l-3 2m-119 5c-2 2-2 3-2 7 1 4 1 6-1 8-3 3-3 8 0 11s10 4 13 2h3a3 3 0 104-5c-2-1-2-1-2-3 2-4 2-6 0-6-2-1-2 0-3 2s-1 2-3 1c-1-3-1-4 1-7 6-8-4-18-10-10m184 5l-5 5v6c1 3 1 3-1 5-1 2-1 5 2 5l6 2 5 2 5-5 5-5-2-5c-2-4-2-4 0-6 3-4 3-5-4-6-8-1-8-1-11 2m-252 0c-2 2-2 2-3 1-2-3-3-2-6 1-2 2-2 2-1 3 2 2 3 11 1 13-1 1-1 1 6 4l5 2 2-3 4-5c3-3 3-6 0-11-4-6-6-7-8-5m35 3l-4 4 1 4v6c-2 2-3 1 4 4l5 2 4-4c5-5 5-4 1-13l2-3c2-2 2-2-5-4-4-1-4-1-8 4m96-1c-5 3-5 3-5 8v7c0 2 1 3 4 4l5 2 4-4c5-6 6-8 3-14-4-7-6-8-11-3m19-1c-6 6-6 11-3 17 4 5 6 6 10 1 4-4 4-5 0-4-3 0-6-3-6-7 0-3 2-3 4-2 2 2 3 2 5 0 3-2 3-3-2-6s-4-3-8 1m60-2l-1 10c-1 8-2 11-4 9V50c1-3-4-6-6-4l-1 11v10l3 1c4 0 4 2 0 4-6 3-6 3-4 5 4 3 5 2 11-7l9-21c0-2-6-5-7-4m9 1v4l-1 14 3 3c2 2 2 2 5-1l1-3V51c2 0 2 2 2 8 0 4 0 6 2 8l2 3 2-3c2-3 3-4 2-5l-1-7c0-6-4-12-8-9h-5c-2-2-2-2-4 0m33 3c-5 5-4 4-3 9v5c-2 2-2 2 4 4l5 2 4-4c5-5 5-4 1-13l2-3c2-2 2-2-5-4-4-1-4-1-8 4m-277-2c-3 3-3 3-3 10v8l3 1c7 3 8 3 11 0l2-4h-3c-5 0-5-1 0-6l4-5-4-3c-5-4-6-4-10-1m40 0c-3 2-3 2-3 10v8l6 2 5 2 3-3c3-3 3-4-1-4-5 0-5-1 0-6s5-5 0-8c-5-4-6-4-10-1m152 0c-3 2-3 2-3 10v8l4 2c7 2 7 2 10-1l2-4h-3c-5 0-5-1 0-6s5-5 0-8c-6-4-6-4-10-1m-34 9c0 5 1 6 3 6 3 0 2-6-1-9l-2-2v5M95 56c-2 4-2 4 3 5 3 0 4-1 2-6-2-4-3-4-5 1m67 1c0 4 1 5 3 5 3 0 3-4 0-8-2-3-3-2-3 3m-4 29c-1 1-2 3-2 8-1 6 0 6 3-1 2-4 3-2 2 2-2 6-1 6 2 1 5-7 5-13 0-8-2 1-2 1-1-1 0-3-1-3-4-1m33 2l-7 4 1 8c0 8 0 9-3 11l-1 2 5 2 6 3c3 2 3 2 7 0 12-6 15-14 9-20l-3-3 2-2c3-2 2-3-4-7-6-3-4-3-12 2m173 0c-7 4-8 5-6 8s0 13-3 15c-2 2-2 2 3 3l6 4 4 2 4-2c12-6 15-13 9-20-3-4-3-4-1-5 3-2 3-3-2-5-6-4-7-4-14 0m70-2l-3 2v12l-1 13c-1 1-1 2 2 4l3 3 3-3 3-2-2-3c-2-2-3-10-1-10 1 0 5 9 5 12l-2 8c-3 4-3 5-1 5 4 2 8-10 8-19-1-8-4-14-7-12l-3 1V84l-4 2M67 86c-2 2-4 13-2 12l6-12h-4m6 1l-2 4-1 5c-1 3 0 4 2 1l4-11-3 1m8-1l-1 5-1 4 4-3 5-4-7-2m30 2l-2 4c0 3 2 2 6-1 3-3 3-3-1-5-3-1-3-1-3 2m104 1c-1 6-1 6 4 3 4-3 4-4 0-6-3-1-3-1-4 3m46-2c-2 1-2 1-2 12l-1 14c-1 2-1 2 1 4 4 3 5 3 8 0l2-3-2-2c-2-1-2-2-2-6s0-4 2-3c4 4 5 13 1 20l-1 4c2 4 9-8 9-17s-4-17-8-14c-3 2-3 1-2-5 0-7 0-7-5-4m-116 5c-3 5-4 6-3 8 2 1 1 11 0 13-1 1-1 2 2 4 3 3 4 3 7-1 2-2 2-2 1-3-3-2-3-13 0-13 3-1 3-6 0-6-2 0-2 0-1-4 0-6-1-5-6 2m102 0c-3 6-4 7-2 8 1 2 1 8-1 11-1 4-2 3 3 6l3 2 3-2c2-3 2-3 1-4-3-2-3-13 0-13 2 0 2-1 2-3s0-3-2-3-2 0-1-4c0-6-1-5-6 2m37-4c-3 1-4 3-1 5 2 2 1 4-2 5s-3 1-3 9v8l4 2 5 2 5-4c5-5 5-9 0-19-4-10-5-10-8-8M80 97c-2 2-2 2-1 3 1 2 0 21-1 27l1 2c2 1 6-12 7-25 1-7 1-7-2-8s-2-1-4 1m14 1c-4 2-4 3-4 8l-1 7c-1 2 0 2 4 4l6 3 2-2c8-10 8-12 2-20-3-4-4-4-9 0m16-1c-2 6 0 22 4 22 2 0 4-5 3-6v-13c1-2 0-3-2-4-3-1-4-1-5 1m12 0c-2 4-1 19 1 21 2 1 2 1 5-2l1-3c-2-2-1-12 0-12 1 1 2 3 2 8 0 9 3 12 7 8 2-3 2-4 1-5l-1-7c1-5 1-5-3-8-3-2-4-2-5-1h-4c-3-1-4-1-4 1m93 0c-1 3-1 19 1 21 3 2 9-2 6-5l-1-9c1-6 1-7-1-8-3-1-4-1-5 1m11-1v10c0 8 0 8 3 11 3 2 3 2 5 0s3-3 0-5c-2-3-2-11 1-10l3 3c0 2 0 2 3 0 2-3 2-3 0-6-3-3-5-4-7-3h-8m76 2c-8 7-4 25 4 20 3-2 3-2 5 0 2 1 2 1 4-1s2-3 1-4v-12c2-1 0-2-5-4s-5-3-9 1m20-1c-2 2-2 3-1 4v14c0 1 1 2 3 2 5 2 5 3 0 6-5 2-5 2-3 4l3 2c3 0 14-19 16-28 0-3 0-4-3-5-3-2-5 1-4 6l-3 13c-2-1-2-13-1-14 2-2 1-3-2-4-4-2-4-2-5 0m70 1l-4 3-1 8c0 9 4 13 9 8 2-1 2-1 4 1 2 1 2 1 5-1 2-2 2-3 1-4l-1-7 1-7-5-2c-5-3-5-3-9 1m21 1c-4 4-5 6-3 9v5c-2 2-2 2 1 3l5 2c3 1 3 1 7-3l4-4-2-5c-1-4-1-4 1-6 1-2 1-3-1-4-9-1-8-1-12 3m-128 1c-2 1-1 10 1 11 3 3 4 2 3-4-2-8-2-9-4-7m-91 1l-1 3v4l7 6a8 8 0 00-6-13m173 0l-1 1v3c-1 3 0 4 3 6l5 3 1-2c5-5-3-15-8-11m-271 4c0 5 1 7 4 7 2 0 3-1 1-5-3-6-5-7-5-2m209-2c-2 5 1 14 3 10 2-3 1-10-1-11-1-1-2-1-2 1m90-1c-2 1-1 10 0 11 2 2 3 0 3-6 0-4-2-7-3-5m-217 43c-1 3 0 5 1 3a5 5 0 016 0c-5 1-7 4-2 4 4 0 1 9-4 11-2 1-2 1-1 2 3 3 11-6 12-14 0-8 0-8-5-8-5-1-5-1-7 2m101-2v3l-1 4c-1 2-1 2 1 2s4 3 4 5h-3c-3-3-4-2-4 0 0 6 8 4 10-1 1-4 0-7-2-7l-2-1c-1-1 0-1 0 0l3-2v-2l-4-1h-2m18 1c-2 4-2 15-1 16 2 2 6-1 4-3l-1-4c1-1 1-1 2 2v6c-2 6 0 6 2 0 3-6 2-13-2-13-2 0-2-1-2-2 1-3-2-4-2-2m-191 3c-1 1-2 4-1 5v5c-1 2-3-1-3-5 1-3-3-5-7-2-2 1-2 2-2 5l1 5h7c8 0 10-1 8-3v-6c1-1 0-7-1-7l-2 3m28-2l1 2c1 1 0 2-1 3h-3l-4-2c-6 1-6 12 0 12l1-4v-4l1 1 2 1c1-1 1 0 1 1 0 5 5 7 8 3 2-1 2-3 2-6-1-6-6-10-8-7m132 1c-2 2-2 5-1 7 2 1 2 1 3-1v-3l-1-1h2c2 2 1 4-2 7l-3 5 10-1c2-3 1-4-2-3h-2l2-3c5-6-1-13-6-7m24 0c-2 4-2 13 0 14 3 0 5-2 3-3v-6l1-3-1-3c0-2-2-1-3 1m-178 3v11h9v-6c0-5 0-5-2-5-1 0-2 0-2 4-1 5-1 5-1-1 0-3-3-6-4-3m33 0l-2 6v5h9v-5c0-6-3-9-7-6m10 0c-1 5 0 10 2 11 1 1 1 1-1 2-2 2-2 2-1 3 2 3 11-12 9-16-1-2-3-1-4 2l-1 7-1-5-1-5-2 1m38 1l-2 6v4h10l-1-5c0-6-4-9-7-5m10-1l-1 5c0 5 2 7 4 5h2l2 1c2-1 2-9 0-10-1-2-7-2-7-1m10 0v6l1 5h18l2-2v-5c0-8-9-6-9 2 0 5-2 3-2-2-1-7-4-7-4-1l-1 5-1-4c1-5-2-7-4-4m24 0c-2 1-1 10 1 11s5-1 3-2c-2-2-1-7 1-5s4 0 2-3c-1-1-6-2-7-1m10 0c-1 4 0 10 1 11v3c-2 1-2 1-1 2 2 2 8-7 8-13 1-6-2-4-3 1l-1 5-1-4v-5c0-1-3-2-3 0m6 25h-6c-4 1-5 2-5 3 0 2-2 3-2 1-1-2-7 0-10 3-8 6-9 9-9 14v4l-1-3c0-2-2-1-3 2-2 8-3 24 0 20 1-2 2-1 2 3l1 5v3h1c4-4 4-1 0 3-3 3-3 3-2 6s3 4 3 1c0-2 0-2 1-1v2l4 2c4 0 4 0 3-1-2-2-3-5-1-5 1 1 4 0 6-1 4-2 9-2 6 0v16l1 15 3 5 1-13 1-14h1l1 24 1 4c3 0 4-6 2-10v-3l1-8 1-7 1 14 1 11c0-3 2-3 2 0 0 2 0 2 1 1v-22c-1-5 0-7 2-6l1 15 1 15 2-5c2-8 4-32 3-33l4-1c4 0 5 1 6 2l2 1 1 1-1 2-2 2c0 1 3 0 6-3l3-2 1-1-1-2c-2 0-2 0-1-1l1-3c-1-1 1-8 3-13 2-8 1-19-3-26l-5-5-2-2c0-4-19-12-22-8h-1c-1-2-2-2-4-1m66 14c-2 2-2 2-2 0s-1-2-6 0c-3 1-3 1-1 2 3 1 4 5 2 9s-2 4 2 2l3-3c0-2 0-2 1 0 3 6 10 3 10-3 0-2 0-2 1-1v10c0 3 0 3 2 2l2-2 2-3a6 6 0 10-6-10l-2-2c-3-4-5-5-8-1m48-1l1 14h5c3 2 3 1 3-8 0-8 0-9-2-7-2 1-2 3-2 7l-1 6-1-4c1-3 0-4-1-5l1-1c1-2 1-2-1-3s-2-1-2 1m-5 1c-2 2-2 12 0 13 2 2 3 0 2-4l1-5v-5c0-1-1-1-3 1m52-1v2l-1 2c-2 2-1 9 1 10 6 3 9-6 4-13-1-2-3-3-4-1m-74 4v5c0 5 1 7 3 5h7c2 2 4-1 3-5 0-5-2-7-4-5h-9m44 0c-1 7 2 12 4 10h2c3 4 8-2 6-7-1-4-1-4-7-4l-5 1m15 0c-3 2-2 9 1 10l4 1c2-2 1-4-1-4v-1c3-2 3-4 1-5-2-2-3-2-5-1m-113 11c0 2-3 6-8 8-4 2-4 2-4 0 1-3-1-2-3 2l-6 4-5 4c-2 2-4 1-4-1l-1-2-1 2c0 2 1 3 5 5l6 2c1 1 12 0 15-1 2-1 5-8 4-9l1-3 1-4c1-2 1-1 1 2s0 4 1 3c1-2 0-13-1-13l-1 1m-65 4c-2 5-2 9 0 14 1 2 1 2 2 1l-1-4v-2l2 4 6 6a8 8 0 015 4l1-1 4-1c6-1 12-5 12-8s-2-5-4-4c-1 0-1 1 1 1 2 2 1 5-1 4-7-3-11-6-11-8s-2-3-2-1-2 1-6-2l-5-5c0-3-2-2-3 2m31 18c-3 1-5 13-2 13 1 0 3-5 3-9 0-3 0-3 1 0 0 4 3 9 5 8 4-3-2-14-7-12M93 240c-2 2-1 3 1 3s2 0 0 3c-6 6 0 12 9 11h5c3 2 4-1 3-4v-3c2 0 2 6 1 10-2 3 1 2 2-1 3-5 2-14-2-14l-1-3c0-1 0-2-2-2-1 0-2 2-2 7 0 6-1 6-3 7-3 1-5 0-3-1l1-5c0-3 1-4 2-4l2-3c1-2 1-2-5-2l-8 1m46 1l-5 2-1 5v6c-1 2 9 5 11 3s1-3-2-4c-3 0-3 0-2-2l2-5c0-3 0-4 2-4 1 0 2-2 0-2l-5 1m19 0l-1 3v2c-3 1-2 9 1 10 2 2 3 2 5-1l2-1c0 2 6 4 7 3 2-2 1-4-1-3l1-2 2-3-2-2c-3-3-7-1-6 3l-2-2c-2-6-4-8-6-7m-81 4v5c-2 5 1 8 6 8a5 5 0 006-4 7 7 0 00-9-9h-3m41 1l-1 6c0 4 0 4 3 5l4-1c1-2 0-3-1-2-2 1-1-2 1-4l2-1-2-2c-3-2-4-2-6-1m29 0l-1 6c0 4 0 4 3 5l4-1c1-1 0-3-1-2l-1-1 2-2a4 4 0 10-6-5m-29 20c-2 3-2 3 0 7a6 6 0 01-1 8c0 1 6 2 7 1h4c6 3 11-10 5-17l-2 1c-2 2-3 2-3 1-1-2-4-2-4 0-1 2-3 1-2-1 0-3-1-3-4 0m-40 1c-3 3-1 12 2 11s2 1 0 2c-2 2-2 2 0 2 2 1 2 1 4-2 5-8 0-19-6-13m13-1c-5 2-5 15 0 17 2 0 7-3 7-6l1 1c3 7 11 5 10-3 0-3-3-5-5-4h-1l2-3c2-1 2-1 1-2-1-2-6 3-6 6l-1 2-1-2c0-3-4-7-7-6m70 0c-1 2-2 15 0 16 2 3 4 1 3-4 0-3 0-3 1-2 1 2 1 5-1 10-1 3 2 2 4-1 2-6 0-16-3-14l-1-3c0-3-1-4-3-2m10 1c-3 4 0 18 3 16 1-1 0-11-1-12v-2l1-2h-3m29 2c-3 6-1 16 3 13h4c3 2 5 1 7-4 1-1-2-7-3-7-3 0-6 3-6 6 0 2 0 3-1 2-2 0-2-3-1-6v-4c1-3-2-3-3 0m200 0c-3 0-6 3-5 5a3 3 0 004 1 1 1 0 102 0c0-3 5-4 11-3 5 1 7 0 4-2-2-2-10-2-16-1m-260 3c-2 2-3 7-2 10h13c4 2 7-1 7-7 0-3-1-4-3-4-3-1-6 3-6 6l-1 3-1-4c0-5-3-7-7-4m36-1c-1 3 0 12 2 12l2-4v-4l1 4c1 5 3 5 4-1 0-5-2-9-4-7h-5m13 1c-2 1-2 3-2 8v7h4c4 0 6-3 5-9 0-7-3-9-7-6m27-1v12c2 1 4-1 3-4l1-4 1 4 2 4c2 0 2-10 1-11l-8-1m221 3l-2 2h1v2c-2 3-2 3-2 1 1-2-3-3-3 0l-2 1-2 1-8 5c-8 4-9 5-6 10 2 4 8 4 11 0h1c1 1 2 1 4-1l8-3 5-1-4-1c-3-1-3-1-1-1l3-1c-1-1 0-1 0 0 2 0 3-2 1-2v-2c2 0 1-4-1-4v-1l-1-1-1-1 1-1 1-1v-2l-3 1m-75 14l-3 3a20 20 0 0014 1l-2-1c-4-1-7-4-5-6 1-3-2-1-4 3m-284 5c-5 7-1 15 7 15 6 0 9-6 6-10-2-2-2-2 0-4 3-2 3-3 0-3l-6-1c-4 0-5 0-7 3m18 1c-3 5-3 13-1 14 3 1 4-1 3-4s-1-3 1-5v-3l-1-3c-1-2-1-2-2 1m231 24v2c-3 2 0 6 5 6h4v-4c0-4 0-5-2-5l-5-1c-2 0-2 0-2 2m-152 16c-3 1-3 2-3 5 0 4 2 5 7 5h4l3 1c2 0 2 0 1-1s-1-1 1-1l-1-1c-3-1-3-3 1-3l2-1-2-1c-3 1-6-1-6-3-1-2-3-2-7 0m187 7c-2 0-3 1-3 2h1v1c-1 1 0 2 1 2h5c2 1 2 1 1-5h-5m21 1l1 2c1 1 1 1-1 1s-5 4-3 5c1 2 4 1 5-2l3-3c2 0 2 0 0-1a8 8 0 01-5-2m-32 4l-2 1c-1 0-2 0-1 1h2l2 1h1l1 1c-1 1 0 2 2 2 4 0 5-1 3-4l-2-3c0-1-5-1-6 1m56 17v13c1 1 1-3 1-10 0-2 1-3 3-2v3l1 6v6l1-6c0-5 1-5 4-5 2 0 2 0 0-1h-4l-1-2c1-3-4-5-5-2m-314 1c0 1 12 2 17 0 2-1 2-1-1-1-8-2-16-1-16 1m298-1v3l-1 2-1 5c0 6 4 9 7 5h5l-1-1v-5a5 5 0 00-2-5c0-4-5-6-7-4m1 1v3l-1 1c-2 1-1 8 1 10 3 2 7-3 6-6-2-7-4-11-6-8m-94 3l5 3c4 3 4 3 2 5h-2c-2-2-4 0-2 2v3l-2 2v5c1 4 1 4-1 6s-3 3 0 3c2 1 4 7 2 10s-1 9 1 12l2 4-2-2c-4-8-3-1 1 7l5 11 3 9h2c2-2 3-6 1-6-2-2-2-12-1-15l2-8c0-4 1-5 7-6 3 0 9-3 11-5a3 3 0 014-2l2-1v-2c-2 0-2-1-1-1v-1l1-1 1-1c1-1 1-1 1 1v4h16c3 1 4 0 6-1 1-2 1-5-1-5v1l1 3h-12l-5 1c-3 0-4-1-4-5s3-8 6-6h2l-3-2-1-1c3-2 6 2 5 7l1 4 1-6c0-6 1-7 2-7l1 6c0 8 1 9 2 1s4-10 4-2l1 5v-3l1-3c3 0 2-2 0-2v-1c2 0 2 0 0-2h-3l-1-1h-1c0 1-1 2-3 1-1-1-2-1-1-2l4-7-3 4c-2 3-3 4-6 1-2-1-3 0-1 2v1l-2-2-4-2-3-1-3-1-5-2c-4-2-8-2-15-1-4 1-8 1-8-1l3-1c5 0 8-1 9-3 0-2-3-3-7-2l-3-1h-12m-244 6c-5 1-2 1 10 1l20 1c4 1 7 0 3-2H54m234 15l1 5 1 6 2 6 1-5 1-3c1-1 0-2-1-4l-2-5c1-1-1-4-2-4l-1 4m107-2c-2 1-2 2-2 6v3c0-3-3-5-5-5l1 1c3 1 5 9 2 13a6 6 0 01-8 1c1 3 6 2 9-1 2-2 3-4 3-9 0-7 0-8 2-9l1-1-3 1m-25 2h-1l-1 1c1 1-1 5-2 5l-1-2h-1l2 3c1 1 2 2 1 3 0 3 2 5 5 5s4-1 2-2h-2c-2 3-4 0-4-5 1-4 1-4 4-5 4 0 5 2 5 6 0 6 1 5 1-2v-4h-2c-1-1-3-2-4-1l-1-1c1-2 0-3-1-1m-205 9c-2 0-3 1-3 2l-1 1a2 2 0 00-3 2c0 2 0 2 4 1 6-1 9-2 7-3-1-1-1-1 1-1l2-2h-7m9 7c-1 1-1 1 1 1s2 0 2 2l1 1 3 1c3 3 4 4 6 4l4 2 4 1 2 2c0 2 3 1 3-1h1l1 1 1-2c-1-1 0-2 1-3 2-1 2-2 1-4v-2l-4-3-1 2c1 1 0 1-1 1l-5 2c-3 2-6 2-6-1l-2-1c-1 1-2 0-2-1 0-3-8-5-10-2m170 10l-2 2c-2 0-2 1-2 4 0 4 1 7 2 5v-1c-2 0-1-7 2-9 5-3 8 3 4 8a4 4 0 01-4 3c0 2 2 1 4-1h2l1-4 1-7h-8m11 0c-1 1 0 1 0 0 4-1 7 7 3 9l-4 7 3-3a4 4 0 017-2h-1c-4-3-2-12 2-11 3 1 4 5 3 9l-1 2h3c1 1 1 1 0 0v-6c0-4 0-5 2-5h-5c-2-1-4-1-6 1h-2c-1-2-4-3-4-1m113 6c-4 1-6 3-7 9l-2 4 3-1c4-1 6 0 6 4-1 3 1 3 3-1 1-2 3-2 8 0v-1c-1-1 0-3 1-7l2-5-2-2c-3-2-8-3-12 0m-183 3c-2 4-1 6 3 7 5 2 5 3 4 7-1 3-1 4 1 2h2l-2 1-2 3h1c2-3 4-2 4 2v1c2-1 1-9-1-9-1-1-1-1 1-3 4-3 4-6 3-9-2-4-3-4-2-1 1 4 1 5-2 6-4 1-9-2-9-6 0-2-1-2-1-1m-131 14l-5 2c-3 0-4 2-1 2 2 1 5 1 9-1 5-3 5-4 2-4-3-1-3-1-5 1m108 8v4c2 3 0 10-3 9l-3-1v-1l-1-1c-3 2 3 7 7 7s4 0 5 3c1 4 5 8 5 5l2-3c2 0 2 0 3 4 0 4 0 4-2 5-2 0-2 1-2 4 1 5 0 8-3 8-2 0-4-3-4-7s-2-7-5-11c-2-3-4-2-6 4-1 2-1 2-1 0l-1-2-1 2 1 9v5l1 4c-2-1-2 0 0 2 0 2 2 3 2 3l2 4 1 4-3-19-1-6 1 1 2 2c2 1 2 2 2 5l1 3 2 8c-2 7-2 15 0 17l2 3h-1l-1-1c-1 1 2 14 3 15l-1-7c-1-6-1-6 4-3 2 2 4 3 6 2l9-1c5 1 6 0 6-1h1l20 2c6 0 11-2 11-5l5-1h4l-1-2h2c2 2 5 1 3-1v-4l-1-3-1 2c0 1-4 2-5 0h-2c-1 1-3 0-5-1l-5-2c-2 0-5-6-5-9s-1-5-4-9a15 15 0 01-3-13c-3 6-7 4-8-2l-1-7-2-5c-1-1-1-1-1 1 0 4-1 4-3 1-1-2-2-2-2-1l1 4c2 2 2 7 1 9-2 3-5-1-5-8-1-11-2-12-6-8-2 3-3 2-3-2l-2-5-1-5c0-3-9-7-10-4m-44 12l-1 8c0 2 0 4-2 6l-2 4-4 6c-5 6-5 7-2 7s10-6 10-8l2-4c3-3 3-4 2-7-2-3-2-3 1-3 4-1 5-5 1-6-2 0-2-1-2-3 1-3 0-3-3 0m239-1c-1 5 2 11 5 11h3c2 0 1-3-2-4-3-2-3-2-2-3s1-2-1-4l-2-2-1 2m-218 36l-1 1-4 4-1-2c1-3-7-3-9 0-3 4-4 5-5 4v8h1l1-1v-2l5-3c3-4 5-5 6-3 1 1-2 5-4 5l-3 3c-3 3-3 3-1 5a7 7 0 006 3l1 2h1l4-5c5-5 8-4 6 4v4l3-1c5 0 7-1 5-3l-1-3-1-2c-2 2-4-2-4-9s-2-10-5-9m15 9v2l1 1c-1 1 2 18 6 30 9 31 10 33 12 31s2-6-1-10c-1-1-1 2 1 6 0 3-1 1-3-3-7-17-13-41-14-54 0-4-1-4-2-3m16 5c-1 1 0 7 2 9 1 2 2 2 4 0 3-2 3-2-1-6s-5-5-5-3m162 9c1 4 26 16 33 16 5 0 1-2-5-4-4 0-21-9-26-12h-2m-1 6c1 3 7 7 12 10l8 4c5 3 18 7 17 4l-5-1a113 113 0 01-32-17m-1 8c0 3 11 11 21 16l7 4h2l4 1 3 2c1-1 1-1-1-2l-2-2-4-2a39 39 0 01-18-10c-2 0-7-3-10-6l-2-1m51 43l11 32-9-30-2-2m-33 6c-1 2-1 3 1 2l1 1 2 1 2 2c1 3 6 4 7 0 0-2-1-3-7-3-3 0-4-1-4-3l-1-3-1 3m30 0l2 6c1 6 1 6-1 3-3-3-10-6-14-6-3 0-1 5 2 5 4 0 4 0 2 4v5h1c0-2 0-2 2 0l4 2 1 3c0 3 2 3 5 0 3-4 3-6-1-4-2 2-4 0-2-1 3-2 3-8 1-14-1-3-2-5-2-3m-34 29l-2 4 5-1c6 0 8-2 2-5-3-1-3-1-5 2m-3 9c-3 1-3 2 1 5s5 4 5 2l2-2a5 5 0 00-8-5" tabindex="-1" itemprop="light" style="fill-opacity: 0.255; fill-rule: evenodd;"></path></symbol><symbol id="-posters-1650743514621-regular"><path d="M0 288v288l6-1h18c3 0 1 2-5 3l-11 1c0-2-1-2-4-2H0v105h41l42-1h1l179 1h179v-3l-6-42c-3-10-3-12 0-14l2-4c0-5 11-6 12-1 2 4-2 8-5 6-3-1-3-1-2 2l2 15a569 569 0 003 40l12 1h11v-26c0-20-1-25-2-26v-2l3-1c2-3 3-2 3 17l2 29v9h36V0H394c-72 0-119 0-118 1l13 2 14 2 12 1c9-1 14 0 12 2l1 1c1-1 2 0 7 4l6 3 3 1 4 1 4 1 4 2c2 1 3 2 2 3-1 0-1 2 1 2l1-1c0-2 2-1 7 4l10 7c7 3 8 4 5 5-2 1-1 1 2 1l4 1h1c2-2 6-1 9 2s3 3 3 1c1-2 0-9-1-10-2-1-1-3 3-6 5-3 7-2 8 3 1 6-4 18-7 17-1-1-2 0-2 2s1 3 2 2c2 0 4 1 5 4 0 2 0 2-2 1-1-1-1-1 0 0v4c2 0 3-3 2-6-1-4 1-8 6-13 4-2 4-2 10-1 8 1 9 3 5 7v6c3 5 3 5-2 10-5 6-5 8-1 10l2 2 1 2-1 1-3 2c0 1 1 1 4-1 7-3 12-1 11 6-1 3-1 4 1 4l3 2a3 3 0 004 3v4l2 9c0 5 0 5 1 2v-6l1-2 1 4c0 4 0 4 2 4s3 1 3 2c0 5 2 12 4 12v3l3 5c3 3 5 8 6 15 0 5 1 7 3 9l7 11 5 7c1 0 2 2 0 2s-4 5-3 9l2 7 1 4 1 3 1 3v7l1 4 3 3c3 1 3 2 1 3l-2 5c1 3-4 3-10 0-6-2-24-1-27 2-1 2-6 3-6 1s-3-4-6-3l-12 4c-10 2-13 4-20 12-6 9-10 13-14 16-3 3-4 4-4 6l1 2h-7c-8-1-11-3-22-14-6-6-7-7-11-8l-11-1c-6-1-6-1-9 1l-4 3c-2 0-4 2-5 4l-2 5v-5l1-1 1-1c5-3-4-4-12-2l-8 2c-5 0-7 2-5 3s1 1-6 3c-5 1-6 2-4 4 1 1 10-1 16-3 4-2 2 1-3 3-7 4-14 10-14 12s3 1 6-2c5-4 5-2 0 2l-4 6c0 2 1 2 4-2 7-5 7-5 2 2-5 5-6 8-4 10l2-1c5-3 30-5 34-2l6 3c3 1 6 3 7 5l4 2h5l5-2c1 1 4-3 7-7 2-3 3-3 3 1 0 2 4 4 8 4 2-1 3 0 1 2v2c2 2 2 5 1 5l-1 2c0 4-1 4-5 2l-3-3-2 5c-2 3-2 4 0 4v6l2-2c3-3 5-1 3 4-1 4 0 6 1 1 1-3 2-3 6-3l2-1 3-1 5-2c3-3 5-4 5-2 0 3 1 3 5 2 5-2 10 4 9 9-1 1-1 1-3-2-1-5-4-8-5-6 0 2-1 2-4 1l-4 1-2 1-5 2-4 1c-1-1-2 0-3 1l-2 2c-2-1-6 1-6 2l-3 1c-2-1-3-1-3 1l-2 1h-1l-4 1-4 1c0 1 2 1 7-1l2 1-10 4-14 6c-11 5-15 5-12 2h-3l-2 4c0 6-1 8-3 7l-4-1c-2 0-3-1-3-2l-2-2-1 1c1 1-2 2-3 1l-5 4-7 5c-8 2-14 6-11 8v1c-1 2 6 0 14-3a20 20 0 009-6c2-1 3 0 1 2-1 1-1 1 1 1l2 1c1 1 11-2 11-3s5-3 8-3l12-5 6-2 7-3 3-2 4-1 4-2 4-1 4-2 4-2 1-1c1 1 3 0 5-1l5-2 3-1 4-2c3 0 7-2 7-4s5 0 7 2l3 6c0 3 1 3 2 3l7-2 11-2 10-2c3-3 5-2 12 6 6 8 8 8 12 4s4-6-3-12c-11-11-11-11-11-14l2-5c0-4 2-4 5-2 3 1 10 2 16 1 2-1 3-1 7 5a12 12 0 005 7l-1 1c-5-1-7 3-7 12 0 4 0 5-4 8-4 4-5 4-5 9 0 8 0 8-2 9s-5 7-5 10l-2 4-2 3-1 1c-1 0-3 7-2 11 0 2-5 2-6 0h-1l2 3c5 2 3 16-3 17-3 1-3 0-2-1v-1l-5 7-4 5-2 1v1l-1 1-1 3 1 1h1l-2 1-3 3-4 3c-2 0-4-3-2-4l1-1-1-1c-2 1-2 0-1-2v-2c-1 0-2 2-2 6 0 2 0 2-1 1l-4-2a3 3 0 01-3-4l-1 3c-1 1-1 2 1 1 3 0 6 3 3 3l-3 1h-1l-2 1h-2 6l-2 3-2 2-2-2-1-3c1-2-2-3-4-1v1c1-1 2 0 1 4-1 3-2 5-4 6l-3 3-5 3-5 3-4 2c-4 0-5 0-4 4 0 2 0 2-1 1 0-3-5-6-9-6-3 0-22-8-24-10-1-2-5 1-5 4l-1 4c-4 2 2 9 10 11 4 2 5 3 6 5l2 3c2 0 1 2-2 3s-4 0-1-2v-2c-1 0-5 4-4 5h-3c-2 0-2 0-2 2l1 4 1 2v-2h1c2 0 2 2 1 3v2l1-2h1c1 1 0 4-1 4l-1 1 1 1c1-1 2 0 2 3l2 5 1 2 2 3v1c-2-1-2-1-1 1 4 5 5 10 1 7-2-2-7-2-7-1l7 8c2 0 2 1 2 2l1 2 1 4-5 1-12 2c-5 1-10 2-11 1-2 0-3 0-4 2l-4 2-2 1c0 3-10 2-16-2-6-3-8-3-8 1h-15l-9-2-5-1v5l5 16 3 13-2 2-2 3-1-3c-7-17-13-41-16-56l-2-6v-3l-1-5-1-2 2 2 2 2-1-4c-3-5-11-15-18-21l-4-5 1 1 2 1 5 4 5 5c1 0 3 2 4 5 2 5 7 11 6 7l-3-8-3-6-4-8a18 18 0 00-4-8c0-1 0-2-2-2-3-1-3-1 0-1 5 1 6 2 7 7l4 9c2 4 3 4 3 2l-1-5c-3-3-7-14-5-14l2 1v2c0 4 2 8 3 6l3-2h2l-2-2-2-2h1c2 2 3 1 2-1-2-3-1-4 2-2 4 1 4 0 0-3-2-3-1-5 1-3 2 1 5 0 3-1-1-2 1-6 3-6 5 0 10 6 12 14l1 4 6-6v-2c0-2 0-2-1-1h-2l1-2a1 1 0 00-1-1l-1-1v-1l1-3c0-8 7-9 8-1l1 5 1 3c-1 2 1 7 3 8 2 2 3-3 0-6-1-2-2-4-1-6 0-2 0-3-2-2l-1-2 2-6 1-4-5-2c-6-3-6-3-3-7l1-3 1 3c1 4 5 6 8 6 3-1 4-3 2-5l-2-3-1-1-1-2-1-4-2-2c0-3-5-4-6-3h-2l1-2v-2l-2 1c-1 2-2 1-2-1v-2l-2 1-1 1v-1c2-2 1-4-2-4a5 5 0 00-5 2 1 1 0 110-2c2 0 6-6 6-8h-2l-2 2c0 1-5 5-7 5l2-4c3-4 4-9 2-9-1 0-5 5-4 6h-2c-1-1-1-1-1 1 1 1 0 2-1 1l-1-5c1-5 0-5-1-1-1 3-1 3-2 2-1-2-1-2-3 0-1 1-1 1-1-1 0-3 0-3-2-1h-4l-1-1c1-2-2-2-4-1l-4-1h-2l-2-1c1-1 0-1-2-1l-2-1c1-1 0-2-3-2l-5-1h-3l-11-2-55-9c-35-4-86-5-103-1l-11 1 7-2c5-1 6-2 4-2-2-1-3-3-1-3l1-1-2-1h-2c1-2-3-8-4-8l-2-2-1-4 1-2c2 0 2 0 0-3-1-3-2-4-1-8 1-6-1-14-3-11h-3l-2-1 3-1c3 0 3-2 0-6l-1-2-1-4-4-8-1-4c1 0 2-1 1-3l-1-3c-1 1-2-2-1-10l-1-11v-13c2 0 1-7-1-9s-2-3-1-8c0-7 0-7-2-7-3-1-5-7-2-7 2 0 4-9 4-14s3-11 3-5l2-16 3-12 2-10 3-3 2-8 2-5 1-3c0-5 1-10 4-13l4-5 3-3 2-2 1-2 1-2 1-2 1-1 2-3 1-4c-1-2-1-3 1-4l2-4 2-1c1 1 2 0 1-1l-1-1c-2 2-3-2-2-6l1-7c-1-3 7-8 10-6 1 1 4 0 4-1l1-1 4-2 4-3 3-1c1-1 2-2 3-1 4 1 2-1-5-3-7-3-9-5-5-8 5-4 6-19 1-19-4 0-4-3 1-7s8-5 10-2c1 1 2 1 4-1l2-2 8 4c10 5 11 7 6 11-5 2-5 2-2 7l2 4-1-5c0-4 0-4 6-8a7 7 0 0110 0v-1c-2-1 0-3 3-3h1c-1-1-1-1 1-3l4-3 3-2 1-2 4-2 4-3 2-2 2 2c1 0 2 0 2-2-1-2 4-4 8-4l4-1c0-2 1-2 4-2l4-1c0-2 3-3 9-4 7 0 11-1 11-2l3-1 6-2c3-2 5-2 11-2a15 15 0 0010-2l3-1c1-1-39-1-114-1H0v288m0 1c0 158 1 223 1 143a98043 98043 0 00-1-143M404 33v10c0 2 0 2 1 1 4-5 3-14-1-11m-138 6c-4 6-4 6 1 4 5-3 14-3 13 0l-1 2-4 1c-3-1-3-1-5 2-3 5-3 5 3 4 6 0 6 1 3 10-2 7-5 12-10 13-3 1-4 2-3 3 2 1 7-1 13-8 7-7 9-12 9-25l1-10h-6l-9-1c-3 0-3 0-5 5M87 37l-3 2 2 2c4 3 4 14 0 20l-3 4 5 2 6 2 2-3c2-2 2-3 1-3l-7-3 2-5c2-2 3-6 3-8 2-6 3-7 6-5 4 2 4 2 1 4-4 2-4 3 0 11l4 9c1 3 3 3 6 0 2-2 3-3 2-4l-5-8c-4-8-4-8 3-12 1-1 1-1-5-4l-7-3-2 2-2 3-2-3c-2-3-4-3-7 0m263-1c-2 2-2 2-2 11l-1 14c-1 3-1 3 2 6l2 2 3-3c2-2 2-2 1-3-2-2-2-3-2-15V35l-3 1m-118 4c-2 2-2 3-2 8 1 4 0 6-1 7-7 7 2 18 10 14h6c4 1 4 1 4-2l-1-3c-2 0-2-2-1-5 1-2 1-3-1-3-2-1-3-1-3 1s-1 3-3 0c-2-2-3-4-1-4 1 0 3-5 3-8 0-6-6-9-10-5m-112 7c-3 2-3 2-3 10v8l4 1c6 3 7 2 8 0 3-3 2-4-1-4-5 0-5-1 0-6l5-5-4-3-5-3-4 2m19 0c-3 2-4 2-4 10v8l4 1c6 3 7 2 9 0 3-3 2-4-1-4-5 0-5-1 0-6l4-4-4-4c-4-3-4-4-8-1m15 0c-1 2-1 2 1 5v9l-1 4 5 2c5 3 5 3 8-1l4-5c3-4 2-9-3-14-3-2-3-2-4-1-2 2-3 2-5 1-2-2-2-2-5 0m25 0c-3 3-3 3-3 10v8l4 1c5 3 6 2 8 0 2-4 3-4-1-4-5 0-5-1 0-5 5-5 5-6 1-9s-5-3-9-1m19 2c-3 3-4 6-2 9 1 2 1 3-1 4-2 2-2 2 4 4l5 2 4-4 4-4-2-4c-2-4-2-4 0-7l2-2-4-1c-6-1-6-2-10 3m97-2l-4 3-1 8-1 7 5 2 4 2 2-3c8-8 8-12 2-19-3-3-4-3-7 0m18 2c-5 5-5 11-1 16 3 4 4 4 8 0s4-6 0-4c-2 1-2 1-4-1-5-6-3-10 2-8 3 1 4 1 5-1 2-2 2-2-1-4-5-3-5-3-9 2m17-2c-3 2-3 3-3 10l1 7 4 2c5 2 6 2 8 0 3-3 2-4-1-4-5 0-5-1 0-6s5-5 0-8-5-3-9-1m32 0c-1 1-2 2-1 3v9l-1 7 4 1 5 2-5 3c-4 3-5 4-4 5 4 4 12-7 18-23l1-5-2-2c-3-3-5-1-5 3 1 2-1 14-2 15-1 3-3-2-3-9 1-10-2-13-5-9m21-1c-1 3-1 20 1 21 3 2 7-2 5-5l-1-7c2-9 5-5 5 5 0 8 2 10 5 6 2-2 2-2 1-4l-1-7c1-5 1-6-2-8s-4-2-5 0h-4c-2-2-3-2-4-1m35 0c-5 4-7 8-5 11 1 3 1 3-1 5s-2 2 4 4l5 2 4-4 4-3-2-5v-7c2-2 2-2-2-3h-7m-256 7c-2 6-1 8 3 9 4 0 4-4 0-8l-3-3v2m133 2c0 5 1 7 4 7s3-2 1-7-5-5-5 0m-94 3c-3 3-2 4 3 5 4 0 5-1 2-5-2-3-2-3-5 0m217 0c-2 3-2 3 0 4 5 3 8 0 6-4-2-3-3-3-6 0M190 89c-4 2-6 4-5 5l1 8c0 6 0 7-3 9-2 1-2 2-1 2l8 3c7 4 10 3 17-4 5-5 5-9 1-14l-4-4 3-2 2-2-5-2c-6-4-6-4-14 1m72-3c-2 2-2 2-2 14 0 8-1 12-2 13-1 2 4 6 6 5 3-1 4-4 3-5-2-1-2-3-2-7 0-5 0-5 2-4 4 4 5 13 2 20-2 5-1 8 1 4 6-8 7-19 4-25-3-5-4-6-6-5-2 3-3 2-3-4v-7l-3 1m102 2l-6 4v2c2 3 1 15-2 17l-2 2 3 1 7 3c5 3 9 2 16-5 5-5 5-8 1-13-4-4-4-6-1-6 3-1 3-2-2-5s-8-3-14 0m70-1c-2 1-3 1-2 12l-1 13c-2 3-2 3 1 5 4 3 4 3 7-1v-4c-2 0-2-2-2-6 0-5 0-5 2-4 4 4 6 15 2 21-2 3-2 6 0 4 3-1 6-11 6-18 1-8-4-16-7-13s-3 2-3-4c1-8 1-8-3-5m-289 5c-3 6-4 8-2 8v12c-1 2-1 2 1 5l3 2 3-3c2-2 2-2 1-3-3-2-3-13 0-14 3 0 3-4 0-4-2-1-2-1-1-4 1-6 0-5-5 1m103 1l-3 6v14c-2 1-1 1 2 4l3 2 3-3 2-2-2-2c-3-3-3-12 1-12a2 2 0 000-5c-2 0-2 0-2-4 1-5 0-5-4 2m36-5l-3 2 2 3c3 4 3 4-2 5l-3 1v8l1 7 4 3 4 2 4-5 5-4-2-7c-1-6-5-15-7-16l-3 1M81 96l-2 14v18c4 1 9-29 5-32h-3m13 2c-4 3-4 4-4 9l-1 6c0 1 7 6 9 6l5-5c5-7 5-10 0-16-4-4-3-4-9 0m16-1v4l1 8c-1 7-1 8 1 9l2 1 2-3c2-2 2-2 1-3l-1-9c1-6 1-7-2-8-1-1-2 0-4 1m12 0c-1 3-1 19 1 20 3 2 7-2 5-4s-1-12 2-12c1 0 2 2 2 10 0 7 2 9 5 5 2-2 2-2 1-3l-1-7c1-6 1-6-2-8-3-3-4-3-5-1h-4c-3-2-3-2-4 0m94 0l-1 3v9c0 7 0 8 2 9s7-3 5-6l-1-8c0-7 0-7-2-8-1-1-2 0-3 1m10 0v3l1 8c-1 7 1 10 5 10 3 0 4-4 2-6l-2-6c0-5 2-6 5-3 2 3 2 3 4 1 2-3-2-10-6-7h-4c-3-2-3-2-5 0m97 0l-1 10v10h3c4 1 3 3-1 6s-5 4-2 4c4 2 11-8 16-21l2-7-2-2c-4-3-6-1-5 6 0 6-1 13-3 13-3 0-3-5-1-15 0-4-4-7-6-4m92 0c-5 4-6 7-4 11 1 3 1 3-1 5-2 1-2 1 4 4l5 2 3-4c4-4 5-6 2-10-1-3-1-3 1-5l2-3h-4l-4-2-4 2m-113 2c-3 2-3 2-3 10 0 9 2 11 7 8h5c2 3 7-1 5-4l-1-8 1-6-4-1c-5-2-6-2-10 1m89 0c-7 6-3 23 4 18h5c3 2 7-2 5-5l-1-7 1-6-4-1c-4-3-6-2-10 1m-107 1c-3 5 0 13 5 13 2 0 1-9-2-13-2-2-2-2-3 0m-91 3l-1 5 4 3 4 3 2-2c4-5 1-12-6-12-3 0-3 0-3 3m173 0l-1 5c-1 0 7 6 9 6 3 0 4-9 0-12s-8-3-8 1m-270 3c0 6 2 8 5 6 3-1-1-11-4-11l-1 5m209-4c-3 2 0 13 3 12 2-2 1-12-1-12h-2m89 1c-2 5 0 12 3 11 2-1 3-10 1-12-2-1-4-1-4 1m22 6c-3 2-2 4 3 4 4 0 4-1 2-4-1-4-2-4-5 0M79 144c-4 3-4 11 0 14 5 4 12 2 12-4 0-5-5-8-9-5-1 2-2 2-3 1-2-3 0-4 5-4 7 1 11-1 4-2h-9m100 1c-1 3-1 3 1 2 3-1 6-1 6 1l-2 1c-2 0-3 1-3 2-1 1 0 1 2 1 3 0 3 5-1 10l-2 3c4 0 8-8 9-16l1-6h-5c-4 0-5 0-6 2m118-1c-1 1-2 14 0 15 2 2 3 0 2-4 0-4 2-4 3 0 0 2 0 5-2 9h1c4-3 4-15 0-15-1 0-2-1-2-3s-1-3-2-2m-191 2c-2 4-1 14 1 14l1-4 1-6v-2l-1-2c1-3 0-2-2 0m29-1v4c-3 2-3 10 0 11 5 1 8-6 4-12-1-4-2-4-4-3m131 1c-2 2-2 4-1 6s3 0 3-3v-2c3 1 2 5-1 9l-3 4h5c4 0 5 0 5-2 0-1-1-2-2-1-3 0-3-1 0-4 4-6-1-12-6-7m13 1c-1 5-1 5 1 5s4 2 3 4c0 2-2 3-4 0-2-1-4 0-3 2 1 3 7 2 9 0 2-4 1-7-2-9l-3-1 2-1c4-1 4-3 0-3-2 0-3 0-3 3m11 0c-2 3-2 11 0 12 2 2 3 0 2-4l1-5v-2l-1-2c-1-1-1-1-2 1m-195 3l-1 6v4h4l5-1-1-4c0-6-4-8-7-5m17 4v6h4l5-1v-5c0-4 0-5-2-5l-1 4-2 4-1-4-1-4c-2 0-2 1-2 5m12 0l1 5c2 2 3 0 2-4 0-4 0-4 1-3 2 2 4 1 3-1l-4-2h-4l1 5m21-4c-2 1-2 3-2 6s1 4 5 4h4v-5c0-6-3-8-7-5m10 4c0 3 0 5 2 6 1 1 1 1-1 2-2 2-1 4 2 2 3-3 7-15 5-15s-2 1-2 3l-1 5c-1 3-2 1-2-4l-1-4c-2 0-2 1-2 5m38-4c-2 1-2 3-2 6s1 4 5 4h4v-5c0-6-3-8-7-5m10-1v6c0 7 3 7 3 0 0-2 0-4 1-3l1 4c0 3 0 4 2 4s2-10-1-10l-6-1m11 5v6h4l4-1 1-5c0-4 0-5-2-5s-2 1-2 4l-1 4-1-4-1-4c-2 0-2 1-2 5m13-4c-2 1-2 3-2 6s1 3 5 3h4v-4c0-6-3-8-7-5m10 4c0 5 1 7 3 5v-2c-2-3 0-7 2-5 1 2 2 1 2-1l-4-2c-4 0-4 0-3 5m10 0c0 3 0 5 2 6 1 1 1 1-1 2-3 2-2 4 1 2 4-2 9-15 6-15-2 0-2 2-2 4-1 7-3 7-3 1l-1-5c-2 0-2 1-2 5m65 34c-3 1-3 1-1 2 2 0 3 6 1 10-1 2-1 2 1 1 3 0 3-2 3-9v-6l-4 2m8 0c-4 4-2 13 3 13 2 0 4-4 4-7 0-6-4-10-7-6m42 0c-2 3-2 12 0 13s3-2 2-4v-4c1-3 0-7-2-5m52 1v3c-3 1-3 8 1 9s7-5 4-11c-2-3-5-4-5-1m15 2c-3 2-3 9 0 10 3 0 5-1 4-2h-1c-2 0-1-2 1-3 3-3-1-7-4-5m-99 0v15l3-2 3-4c2-3 3-6 1-8l-7-1m10 5c0 4 0 5 2 5l1-4 1-4 1 4c0 3 0 4 2 4l1-4c0-3 0-4 1-3l1 4 1 3 1-9-6-1h-6v5m44 0c0 4 1 5 4 5h4c1 2 4-2 4-5 0-4-1-5-7-5h-5v5m15-4l-1 4c0 4 4 7 6 4v-1c-2 0-2-1 0-3 3-3 0-6-5-4M94 240c-2 2-1 3 1 3 2-1 1 0-1 3-5 6 1 12 9 10h8v-2l-1-4c0-2 0-2 2-1v12c2 0 3-4 3-9s-1-7-4-6l-1-3c0-3 0-3-1-2s-2 3-1 7c0 4-1 5-2 6h-7l2-1 1-5c0-4 0-5 2-5l2-2c0-1-11-2-12-1m44 2c-6 2-5 1-4 5v6c-2 3-2 3 5 4l5-1c0-2-1-2-3-2-4 0-4-1-1-4 2-1 2-2 2-4-1-2 0-3 1-4v-2l-5 2m20 0v4c-3 2-3 10 0 10 4 1 6-2 6-6-1-6-4-10-6-8m-79 5c-5 5 0 13 6 10 2-1 2-1-1-1-5 1-7-3-5-7 4-6 12-2 9 3v2a6 6 0 10-9-7m40-1c-5 4 0 13 4 10 2 0 1-2 0-2-2 0-2-1 0-3s2-3-1-5h-3m29 0c-3 2-2 9 1 10s6 0 3-2c-1-1 0-4 1-4l1-1c0-2-4-4-6-3m20 0c-3 3-3 10 1 10h3c1-1 0-2-1-2s-1-1 1-4l2-2-2-1c-2-1-3-2-4-1m310 10l6 5c0 2-7 1-11-1-5-2-6-2-3 0 3 3 2 4-2 4-3 0-5 0-5 2l-4 1-3 1-4 1a37 37 0 00-20 8l-2 1-2 1-2 1-1 3-15 7 4 9a15 15 0 008 1c-2 0 7-5 12-6l4-1h10l21-8 4-2 4-1h4a28 28 0 0113-4l-3-2c-2-1-2-1-1-2l2-7c0-4 0-4-2-4h-2l3-1c2 0 2 0 1-2l-1-1 3-1-4-1-16-4 4 3m-360 11v6c2 4 2 7 0 7l-1 1c2 2 14 1 17-2 4-5 1-16-4-12h-3c-1-2-2-2-4 0l-2 3v-3c1-2-1-3-3 0m-40 1c-3 3-1 10 3 8 3 0 2 2 0 4l-1 2c3 0 5-4 5-9 0-6-3-9-7-5m11 1l-2 6c0 2 4 8 5 8a9 9 0 000-17l-3 3m13 0c-5 8 0 17 5 11 4-4 1-10-3-8-2 0-2-1 1-4v-2l-3 3m59-3c-1 4 0 16 1 16 1 1 3-2 2-2v-5c2 0 3 5 2 9-2 3-1 4 1 1 3-6 1-15-3-13l-1-3a2 2 0 00-2-3m39 3c-2 4-2 12 0 12 2 1 3 1 2-3l1-5v-2l-1-2c0-2-1-2-2 0m197 0c-3 2-5 8-3 11 3 2 12 2 14-1a11 11 0 0114 1c1-1-1-6-4-9-5-5-15-6-21-2m-257 4l-2 5v4h9v-5c0-6-4-8-7-4m11 0c-4 4 0 11 5 8 2-2 2-2 1-5v-4c-2-1-5-1-6 1m26-1v10h2v-4l1-4 2 4c0 4 1 6 2 4v-10h-7m12 0c-2 2-2 7-1 10v2c-3 4 3 4 7 1 1-2 2-3 1-4l-1-5c1-2 0-3-1-4h-5m19 0c-3 2-3 9-1 10 5 2 8-4 5-9-1-2-2-2-4-1m8 5c0 4 0 5 2 5l1-4 1-4 1 4 2 4 1-4c0-5-1-6-5-7-3 0-3 0-3 6M78 294c-3 5-3 8 1 11 5 5 11 3 12-3 2-4-6-8-9-5-2 2-3 2-3-1 0-2 0-2 6-2 7 1 10-1 3-2s-8-1-10 2m18 1c-3 3-2 13 0 13l1-4 1-6v-4c1-3-1-2-2 1m339 24l1 3v3l-1-2c-1-3-4-3-6-1-2 1 0 7 2 8 3 0 7-3 7-5l-3-6m-107 24c-5 2-6 3-6 5s0 2 8-1c5-1 7-4 2-3l1-1c5-3 2-2-5 0m19 15c-2 2-3 2-5 2h-1v1l-1 1h1l6-1 5-2 4-2c5-1 4-2-2-2-5 0-6 0-7 3m12 0v2l5 2c2 3 4 3 4 1l-1 1-1-2 1-1c1 1 3-2 3-3h-11m-9 7l-2 2 3 6c3 7 3 9 0 5l-2-2c-2 0-1 4 1 5 4 4 7-4 4-9-1-1-1-1 1-1l2-1-2-1c-3 0-3 0-3-3h3c2 0 3-1 0-2-2-1-2-1-5 1m75-1c-2 2 0 14 1 14l1-4c0-2 0-3 2-3a1 1 0 10-1-2l-1-1c0-1 1-2 2-1l1-1-1-2-2-1-2 1m-32 2l-1 3c-3 1-3 7 0 8 5 3 7-3 4-9-1-4-5-6-3-2m-24 3l-1 4c0 4 3 6 5 4v-1c-3 0-2-1 0-4 2-1 2-2 0-3h-4m8 0c-2 1-1 7 2 8 2 1 4 1 2-1-1-1-3-5-2-6l2 2h1c2-3-1-5-5-3m23 4c0 4 1 6 3 4v-2c-1-2 0-5 2-4 1 2 2 1 2-1l-4-2c-3 0-3 0-3 5m14 0l1 5 2-4 1-3 1 5 1 2 1-5c0-4-1-5-4-5h-3v5m18-3c-2 4 2 10 5 7s2-9-1-9l-4 2m-410 4c-8 5-12 8-15 13-4 5-3 7 0 3 10-10 30-16 44-13 7 2 8 2 6 3-1 1-1 1 6 3l1 4c0 2 1 4 4 7a20 20 0 015 6l2 2c0 1 1 2 3 2 3 0 7 2 7 5l2 3 1 2 1 2c2 0 7 5 7 7l1 1c3 0 7 5 7 7s1 3 2 3l2 3 2 3 3 1 5 4 2 1 3-4c6-9 9-14 13-17l3-5c0-3 3-4 5-3s2 1 0 0c-2 0-3 0-3 2-1 2 0 3 1 1 1-1 2-1 6 1 5 3 7 3 11 3 5-1 5-1 7 2l2 5 2 5 1 5-3-4-1-3 1 7 3 6 3 5h2c0-1 2 0 4 3 5 4 13 8 14 7 2-2 17-1 18 1h-13l7 2c7 0 7 1 4 4-1 2-1 2 1 2v1l-1 3c0 2-1 5-3 7-4 4-4 6-1 7l1 1h2l3-3 2-1 3-4 3-4v-1l1-2c1 0 2-1 1-3 0-5 4-9 5-5 0 2 1 2 1 1 1-1 0-2-1-3-2-3-1-4 3-6a6 6 0 003-5v-1h-3c0-1 2-4 4-3l1-1c0-2-1-2-4-2-5 0-5-2 0-3s5-1 2-3c-2-3-8-3-9 0s-4 4-4 1l1-2 3-2 7-3c4 0 5-1 5-2l1-2 1-2 1-2c3-1-6-10-13-13l-11-7a32 32 0 00-11-5c-1-1-6-3-10-3l-12-4-8-2-7-2c-6-3-8-4-5-1h-2a51 51 0 00-27 3l-2 1 2 1c2 0-2 4-6 5l-7 2c-4 2-6 0-4-2s1-3-2-3c-7 0-4-3 4-6 3-1 6-2 7-4l6-3h4l-4-1h-9l-7 5-7 4-4-3c-2-2-3-2-2-4s6-3 6-1h6c9-2 7-3-8-5l-13-2-4-1h8l-2-1c-2 0-3-2 0-2 1-1-8-1-19-1-27 0-47 3-58 8-7 3-4 0 4-4s9-5 7-5l-7 3m134-1h-4l3 2 5 1c2 0 3 2 1 2-2 1 0 3 5 5 6 1 9 1 6-1l2-1c3-1 4-1 4-4-1-2-6-4-12-3-4 1-8 0-4-1h-6m-104 2l13 1 15-1H52m47 2l30 4c9 1 0-2-12-3-11-2-21-2-18-1m58 7l3 2 18 4c6 0 5-1-5-3-7-3-19-5-16-3m196 3c-2 0-1 14 0 14h5c2 2 3 1 2-7 0-8-2-9-2-1-1 8-3 8-3 0 0-5-1-7-2-6m42 7l1 7c1 2 3-1 2-2v-5a7 7 0 012 9v1c3-5 2-14-2-12l-1-2c1-2 0-3-1-3l-1 7m47-1v7l1 2 1-4c0-4 0-4 2-2l1 6c-1 4-1 4 1 2 2-6 1-14-3-12l-1-2c0-6-2-3-2 3m-98-1c-1 1-2 2-2 5v4h4c3 0 3-1 3-4 0-6-2-7-5-5m25 4c0 4 0 5 2 5l1-3 1-4 1 4 1 3 1-5c0-4 0-4-4-5h-3v5m17-3c-2 2-3 7-1 9v1l-1 1c0 2 5 1 7-1 2-1 2-2 1-3l-1-5c1-1 0-2-1-3-2-1-2-1-4 1m30 3l1 5h4c4 0 7-2 7-5s-2-5-7-5h-5v5m-73 20c-2 0-1 8 1 8 2 1 5-2 5-4 0-4-2-6-6-4m9-1c-1 1 0 15 1 14l1-2 1-2a5 5 0 10-3-10m10 1c-2 1-1 8 1 8h3v-1c-2 0-1-2 1-4 2-3-1-5-5-3m8 4c1 5 2 6 3 1 0-5 2-5 2-1l1 4c1 1 2 0 1-4 0-4-1-5-4-5h-3v5m25-4l-1 5c0 3 1 3 4 3s3 0 3-4c1-5-3-7-6-4m9 4c-1 5 0 8 2 8v-1l-2-2 2-1 1-3c0-4 0-4 2-3s2 1 2-1l-4-2c-3 0-3 0-3 5m19-5c-1 4 0 9 1 9 1 1 1 1-1 3v2c2 0 6-7 7-11l-1-3-1 2-2 7-1-4c0-4-2-7-2-5m45 4c-5 2-6 3-8 9l-2 5 4-1c4 0 7 2 5 5l1 2 2-1 1-1 1-1c1-3 4-3 8 1l3 1 2-3c2-2 3-8 1-10-1 0-2-1-2-3-2-4-11-6-16-3m-261 10c-2 3-2 5-1 5 2 0 1 5-2 9l-2 6v5c-1 2-2 3-1 4l4-4 4-7 3-4 1-2a11 11 0 002-14c0-2 0-2-2 0l-2 3v-3c1-5-2-4-4 2m92 6c-2 2 0 17 3 17 2 0 3-2 1-7l-3-8-1-2m-151 2l-4 3c0 1 5 3 7 2a1 1 0 110 2 6 6 0 014 8h-3c-1-1-1-1-1 3 1 4 1 5 6 5 4 1 4 1 4-2a30 30 0 011-6l1 1 3 1c1-1 2 0 2 1l1 1c1 0 1-1-1-3l-1-4c0-1-1-2-4-1-3 0-4 0-7-2l-3-3 4-2 5-2c2 0 1-2-1-3-3-2-8-1-13 1m309 1c-2 6-2 7 0 7l3 1c1 7 1 7 6 8 3 0 4 0 7-3l4-2c2 2 4 1 4-1l2-5h-1c-2 2-2 2-7 1-4-2-4-2-4 0s-2 4-5 3h-2l1-4c1-3 1-3-3-3-3 0-3 0-3-2 0-4-1-4-2 0m0 17a9 9 0 0012 12c7-1 9-4 8-8 0-3-2-3-5 2-2 4-2 4-3 2v-2c2-2 1-3-3-3s-7-3-7-7-2-2-2 4m-304 7v6l-2 4h4l6 2c1 0 2 0 2-3v-4l-4-3c-3-3-5-4-6-2m153 0c-1 5 0 7 3 8l4 1c2 2 6 3 6 1a18 18 0 00-9-8c-3-3-4-4-4-2m45 15c-2 1-2 2 0 4h2l10-1h8l-5-1a36 36 0 01-12-3l-3 1m97 4l-1 2c-2 1-3 4-1 4l1 2c0 3 6 9 9 8 1-1 1-1-1-1l-7-7 6 1c7 2 15 4 14 2l-4-1-4-2-1-1h-2l-1-1v1l-3-1-4-5-1-1m-12 4l-4 2c-4 1-4 3 0 2h4c-4 2-2 5 2 4 2-1 3-8 1-8l-1-1-2 1m-273 2c-5 2-7 4-5 5 1 1 4 0 6-2l6-4 3-1h-3l-7 2m188 0c1 2 6 3 14 3l8-1 1-1-10-1h-13m-122 3l-3 2c-3 1-4 2-4 4l-3 2c-1 0-2 1-2 3s-1 2-3 2l-1 2c0 2 0 2-1 1h-1a2 2 0 104-1c0-3 9 6 10 10 0 2 1 3 2 3l1 1 1 1c1-1 2 0 1 1 0 1 2 2 2 0v3c0 3 0 3 1 2 2-2 2-2 5 1 2 2 3 3 4 2 0-1 8 0 10 2 2 1 2 1 2-1s0-2 1-1h1l-2-4-2-5c0-6-2-13-4-14l-2-4a12 12 0 00-17-12m240 6c-1 1-1 1 2 2 4 2 4 2 3 5l1 2 1 1 1 4 3 8 1 6 1 2 1 2c3 0 0-12-5-22-4-9-6-11-9-10m-23 4c1 4 24 9 24 6l-2-1-14-4-4-2-4 1m-189 3l-1 3 2 10c1 7 6 25 10 34l2 5-1-4-3-12-4-18c-2-13-4-20-5-18m187 5c3 3 26 9 26 6l-11-4-13-3-2 1m-5 5c7 5 28 12 31 9 1-1 1-1-2-2l-7-1-8-2-9-4c-7-2-8-3-5 0m-96 0c-1 1 0 3 5 6 4 3 5 3 2-2-2-4-6-6-7-4m88 0c0 6 27 20 36 19 5-1 3-3-3-5-7-1-9-2-9-3 1-1 0-1-2-1-3 0-16-6-20-9-1-2-2-2-2-1m-275 4c0 2-2 3-2 1h-1l-2 1c-1-1-1-1-1 1v5c0 3 0 3-2 1l-2-1-5 10-3 6-2 4-1 5-3 8c-4 13-2 10 5-7s12-24 15-19l1 2c0 2 2 1 3-2s2-4 5-2c4 2 7-2 4-5l-2-2 2-2 2-2c0-2-4-2-6 0s-3 1-4-1l-1-1m274 2c-3 3 20 18 32 21 7 2 9 4 7 6l-1 1 3 1c1 2-2 3-5 2l-1-2c2-1 1-1-4-2-3-1-3-1-2-2 2-2 0-3-4-2a8 8 0 01-11-7c-3 2-12-4-14-9-1-2-1-2-1 1 1 5 7 11 19 17 8 4 9 5 7 6s2 2 5 0c1-1 2 0 4 1 2 2 2 2 0 2-3 2-14 0-14-2l-1-2-1 1c2 3-6-3-13-9l-4-3c0 4 13 14 22 17 6 2 7 3 4 5l1 1c1 1 1 1-2 1-5 0-8-1-13-5l-5-3 8 8c3 2 1 5-1 3v1c1 2 5 2 7 0s4-1 3 2c0 2 0 2 3 2s2 1-2 2c-3 1-3 1-4-1-2-4-3-4-4 0v6c-3 6-2 12 1 13l3 3 1 2v1l-5-2-3-3-4-3-3-2v2c0 2 7 9 10 9 1 0 8 6 6 6l-3-1-5-1c-3-1-3-1-2 3l-1 5c-3 2-2 3 2 2 4 0 5 0 8 4 4 4 15 9 22 9 4 0 0-3-4-3-6-1-14-5-16-9-2-3 2-11 5-11l3-2-2-1c-4 2-5 2-6 0 0-1 0-2 2-2l3-2c2-1 5 1 5 4l2 5 1 5c0 2 9 1 10-2s5-7 6-6l4 10 3 9h3l4-1-2-7-9-26-7-19c-2 0 0 6 7 25 5 16 8 27 5 25l-4-15-12-33v-3l-1-3c-2-1-1-4 0-4 1 1 2 0 1-3 0-7-1-8-2-4 0 2-1 2-2 2-2 0-3 1-1 3l1 4-1 2-3-2-5-3 1-1h4l3-5c3-4 4-11 1-12-1-1-1 0-1 1 1 1 1 2-1 1-1 0-2-1-1-2l-5-2-7-3c0-1-2-2-3-1l-7-3-8-4-6-5-3-2m-257 20l-1 3c0 1 0 2-1 1-2 0-7 4-7 6l3-1 2-3 7 14c0 2 6 9 7 8s1-1 1 1c-1 2 1 4 7 7 2 1 1 0-2-4l-6-5v-4l5 3c6 5 5 3-1-3l-7-7h3l3 1-3-4c-7-6-6-9 3-6l-4-2-7-5h-2m290 23v4c1 2 0 3-1 3v2c1 1 2 3 1 5 0 3 0 3-5 3-4 0-4-1-4-2l-1-2c-2-1-2 0-2 2 0 3-1 3 14 4 8 0 8-1 4-2-3-1-3-1-1-1l6 1h3a26 26 0 00-4-13l-9-5-1 1m-326 3l-7 2-9 4-16 7-8 3c1 2 6 1 14-3 9-6 12-7 22-10 8-3 10-3 8 0v1c2-1 7 9 6 10l-3-3c-1-4-1-4-4-3h-9c-4 0-5 0-4 1l7 1c6-1 8 1 10 6 1 4 3 4 4 1 2-3 2-3 0-8l-4-8c-1-3-1-3-7-1m96 11v1l-1 1c-2 0-2 0 0 2 3 2 8 3 8 1l-3-3c-2-2-2-2 0-2s5 3 5 6c-1 1 0 2 1 3l1 2h1v-3l-2-1 2-1c3 2 1-4-3-6-3-1-9-2-9 0m128 1c-7 2-7 3 0 4 11 1 54 1 55-1l4-1c7 2 11 2 15 0l4-2h-32l-31-1c-8-1-11-1-15 1M0 630c0 29 1 40 1 26a3001 3001 0 00-1-26m35-52c0 4 7 6 12 3 4-2 3-3-6-3h-6m87 2c-1 1 9 4 13 4 2 0 4 1 5 3 2 3 4 1 2-3l-5-2-13-2h-2m101 13l1 8c1 8 5 24 6 22l-3-14-2-15-2-3v2m23 27c0 4 0 5-2 5s-4 2-2 2c11 1 12 1 8-6-3-6-5-6-4-1m216 8h-11c-5 0-5 0-5 2s0 2 9 1a23 23 0 0012-5l-5 2" itemprop="regular" tabindex="-1" style="fill-opacity: 0.437; fill-rule: evenodd;"></path></symbol><symbol id="-posters-1650743514621-bold"><path d="M0 31c0 31 0 32 4 28 1-2 3-3 6-3s3 0 2-2c-2-1-2-1-1-3l4-1 1-1 2-1 1-4c0-3 1-4 4-7l3-4 2-1c2 0 4-3 4-6 0-2 1-2 5-2l5-1 3-3 3-3 1-1 4-4c0-2 2-4 3-4l2-2 3-3c2 0 3-1 3-2L32 0H0v31M455 2v8h1c0-2 1-2 3-1h1l1 1 2 1 5 5 2 2h2l1-2c3 0 7 5 7 8 0 2 1 3 5 5s11 3 8 1c-1-1-1-1 1-1s2 1 2 4l1 5v10c-2 1 5 8 9 8l3 1-3 1c-4 0-2 3 2 4l4 1V0h-29c-28 0-29 0-28 2M266 39l-3 5 3-1c4-2 13-3 14-2 1 3-1 6-5 5-3 0-4 0-5 3l-2 3h5l5-1v4c0 9-6 19-12 21l-2 1c3 3 13-6 18-15 2-5 2-7 3-16l1-11h-16c-1-1-2 0-4 4M87 38l-2 2c5 0 6 13 2 20l-3 5 4 1c5 2 7 2 9-1 1-2 1-2-1-2l-4-1-3-1 2-5c2-3 4-7 4-10 1-6 3-7 7-4 3 1 4 3 2 3l-3 2-2 2 3 6 4 9 2 4 3-2 3-3c-1 0-5-7-7-13l-2-4 4-2 4-3-7-3c-3-2-7-3-7-2-1 4-3 5-5 2-3-4-3-4-7 0m263-1c-2 1-2 1-2 13l-1 13c-1 1-1 1 2 3l3 3 2-3c2-2 2-3 1-3-2 0-2-2-2-14V35l-3 2m-119 5l-1 7c1 4 1 5-1 7-7 7 3 17 12 12h3a3 3 0 104-4c-3 0-3-2-2-4 2-4-1-6-3-2-1 2-1 2-3 1-2-2-2-5-1-7 3-3 4-9 1-11-2-3-7-3-9 1m-110 5l-4 3v7l1 7 4 2 5 2 2-2c2-2 2-3-1-3-5-1-5-1 0-7l4-5-4-3-4-3-3 2m42 0c-2 2-2 2-3 1-3-2-3-2-6 0v3c2 1 2 2 2 8v6l4 2c4 1 4 1 6-1 7-7 7-11 3-17-3-5-4-5-6-2m132 1l-4 3-1 7-1 7 5 1 4 2 4-4c4-5 5-8 2-12-3-7-5-7-9-4m20-1c-7 6-8 16-1 20 2 1 3 1 6-2l4-4-3 1c-4 0-8-3-8-8 0-3 2-5 5-3 4 3 8 0 5-3-5-3-6-3-8-1m68 0c-1 3 0 18 1 20 2 1 2 1 4-1l1-3V50c2-1 4 2 4 9 0 8 2 11 5 7 1-2 2-3 1-4l-1-6c1-7-4-13-7-9h-4c-3-2-3-2-4 0m32 2c-3 4-3 5-2 9v4l-1 2 9 4 4-4 3-4-1-5c-2-4-2-4-1-6 2-2 2-2-3-3-4-1-4-1-8 3m-276-1c-3 1-3 2-3 9v7l5 2 4 2 2-2c2-2 2-3-1-3-5-1-5-2 0-6 5-5 5-6 1-9-4-2-5-2-8 0m40 0c-3 1-3 2-3 9v8l5 1c5 2 5 2 7 0s1-3-2-3c-4-1-4-2 1-7 4-4 4-5 2-6-5-4-6-5-10-2m20 0c-4 5-4 6-3 9v5l-1 2 9 4 4-4 3-4-2-4v-7c2-2 2-2 0-2-5-2-8-1-10 1m132 0c-3 1-3 1-3 9v7l5 2 4 2 2-2 2-2-3-1c-5-1-5-2 0-6 5-5 5-6 1-9-4-2-5-2-8 0m31-1v19l3 1c4 2 4 3-1 6s-5 3-3 4c3 2 6-2 11-11 5-10 7-17 5-19-3-2-5-1-4 5l-3 14c-4 0-4-3-3-10 1-6 1-8-1-9h-4m-67 8c0 6 1 8 5 8 3-1 0-13-4-13l-1 5m-134 1c0 5 0 6 2 7 5 1 7-4 3-9-3-5-5-4-5 2m40 2c-3 4-2 5 4 5 4 0 4-2 1-6l-2-2-3 3m218 0c-4 4-3 5 3 5 4 0 4-2 1-6l-2-2-2 3m-187 1c-2 4 2 8 5 6 3 0 2-1-1-5s-4-4-4-1m-35 27l-6 3-5 3v9c0 8 0 9-2 10l-3 1 5 2 7 3c3 3 13-3 17-10 1-2-2-9-5-11-1-1-1-1 1-3 3-2 3-2-4-6-4-2-5-2-5-1m168 3l-6 3v9c0 9 0 9-3 10l-2 2h3l8 4 3 2 5-3a11 11 0 006-5l3-2c3-4 2-7-2-11l-3-3 2-2c3-2 2-3-3-6-6-2-4-3-11 2m-103-2c-2 1-2 2-2 13l-1 13c-1 1-1 2 2 4l2 2 3-2c2-2 2-3 0-4-1-2-2-12 0-12l3 3c3 5 3 11 1 17s-2 8 0 4c2-2 6-13 6-16 0-6-6-15-8-12-2 2-3 1-3-5s0-7-3-5m172 0c-2 1-2 2-2 13l-1 13a4 4 0 108 0c-2-2-3-12-1-12 6 2 7 16 3 23-2 2-2 3-1 3l4-6c4-7 5-16 1-21-3-4-4-5-6-2-2 1-2 1-2-5 0-7 0-8-3-6m-288 6c-3 3-4 6-3 6v14c-1 1 2 5 5 5 2 0 5-4 3-5-3-2-3-14 0-14l2-2-2-2c-2 0-2 0-2-4 1-5 1-5-3 2m102 0l-3 6v14l2 3c3 3 3 3 6 0v-3c-3-2-3-14 0-14l2-2-2-2c-2 0-2 0-1-4 0-5 0-5-4 2m36-5c-2 1-3 3 0 5 2 2 1 4-2 5-4 2-4 2-4 9 0 6 0 6 4 8 4 4 4 4 9-1 5-4 5-6 2-14-1-5-6-13-6-13l-3 1m-91 7c0 4 0 4 5 1 3-2 2-3-1-5-4-2-4-1-4 4m173 0v4l3-2c5-3 5-4 1-6s-4-1-4 4M81 97l-1 14-1 15v2c3 0 9-29 6-31h-4m13 2c-2 2-3 3-3 9l-1 7 4 1c5 3 6 2 11-6 2-3 2-3 1-7-4-7-7-8-12-4m17-2c-1 16 1 24 4 20 2-2 2-20 0-20h-4m11 0c-1 3-1 19 1 20 3 1 7-3 5-4v-12c2-3 4 1 4 8s2 11 4 8c3-3 2-17-1-19s-5-3-5-1l-2 1-2-1h-4m94 0c-1 9 0 19 1 20h3c2-3 1-19 0-20h-4m11 0v9c0 7 0 8 2 10 3 2 3 2 5 0v-4c-2-2-3-11-1-12l4 2c2 3 4 3 4 0s-5-7-7-5c-1 2-1 2-3 1-2-2-3-2-4-1m75 2c-3 3-3 3-3 10 0 8 2 11 7 8 3-2 3-2 5-1 2 3 6-1 4-3l-1-8 1-6-4-1c-4-3-5-2-9 1m21-2v10l-1 9 4 1 3 2-7 6c-2 0-2 0-1 2 3 3 7-1 13-13 5-10 6-14 4-16-3-3-5-1-4 3l-3 14c-3 4-5-5-3-13 1-3 1-4-1-5h-4m69 2c-4 3-4 3-4 10 0 8 4 12 8 7 2-1 2-1 4 1 3 2 7-1 5-4l-1-8 1-6-4-1c-6-2-5-3-9 1m21 0c-3 4-4 6-2 9v4c-2 2-1 3 3 4l5 2 4-4 3-3-1-5c-2-4-2-5 0-6 2-2 1-3-4-4-4 0-5 0-8 3m-129 0l-1 7c0 5 3 8 6 8 2 0 1-8-1-12-1-4-2-5-4-3m-89 1c-1 0-2 1-2 4l-1 3c-2 0-1 2 4 5 4 3 4 3 6 1 2-1 3-6 1-9 0-2-5-5-6-5l-2 1m172 0l-1 4-1 3c-2 0-1 2 4 5l4 3 2-2c5-6-1-16-8-13m-271 6c0 5 0 6 2 6 4 2 5-2 3-8-3-5-5-5-5 2m209-5c-2 1-1 12 1 13 2 2 4-1 4-6s-3-9-5-7m89 1c-2 5 0 14 4 12 2-1 2-12-1-13-2-1-3-1-3 1m20 0l2 3c2 2 2 2 0 3-3 2-2 4 1 5s6 0 6-1l-4-7v-1c3-2 2-4-2-4-2 0-3 1-3 2M78 145c-3 5-3 9 1 12s7 4 9 1c2-2 2-2-1-1-3 0-8-2-8-4h2l3-1c2-2 5-1 6 1s1 2 1 0c0-3-5-6-8-3-2 2-5 1-5-2l6-1c7 0 9-2 3-3s-7-1-9 1m102 0l-1 1h4c4 0 5 3 1 3l-3 2h2c3 0 4 1 2 8l-2 4 2-3c2-3 4-8 4-13 0-3 0-4-4-4s-5 1-5 2m86 1c-2 3-3 4-1 6h2v-5c5 0 5 5 0 10l-3 3h4c3 0 5 0 5-2 1-2 1-2-1-1-4 0-4-1-1-3 2-3 3-6 0-8-2-3-2-2-5 0m13 0l-1 4c0 1 1 2 3 2l3 3h1c1-2-1-6-4-6l-1-1 2-1 2-1c1-2 0-2-2-2-3 0-3 0-3 2m18-2v16c2 1 3-1 2-5s0-5 2-2c1 1 2 5 1 9l-1 3 1-3c3-5 2-14-2-13l-1-2-1-3h-1m-161 3l-1 3c-3 1-3 8 0 9s4 0 2-1c-2-2-3-7-1-8 2 0 3 2 3 5l1 3c2-1 1-6-1-9-2-5-4-5-3-2m-40 3c-2 2-3 8-1 10 2 1 3-1 2-2-2-2-1-7 0-7 2 0 3 3 3 6l1 2c1 0 1-7-1-9h-4m49 1c-2 2-2 8 0 8 2 1 4 0 2-1s-2-7 0-7c1 0 2 1 2 4s1 4 2 4c1-1 0-8-1-9-2-1-4-1-5 1m11 3l1 6c2 0 2 0 0 2s-2 4 0 3c3-3 8-16 5-16l-1 4c0 4-1 7-3 6v-5l-1-4-1 4m37-3c-3 3 0 11 2 8v-1l-1-3c0-3 0-4 2-4l1 4 1 4c1 0 2-1 1-4 0-6-3-8-6-4m34 0c-3 3-2 9 1 9v-4l1-5c1 0 2 1 2 4s1 4 2 4c1-1 0-8-1-9-2-1-4-1-5 1m94 36v2c2 0 4 3 4 6 0 4-3 4-5-1l-2-3v2l2 6c4 6 9-3 5-10-1-3-1-3-4-2m95 2l-1 3c-3 0-3 8 0 8h2l-1-1c-2-1-2-2-2-4 1-4 3-4 4 0l1 3c2 0 1-4-1-8-1-3-4-4-2-1m-87 3l1 1v7l1 5 1-2 1-2c3 0 5-5 4-7-1-3-6-4-8-2m11 3c1 6 2 7 3 2 0-5 2-5 2 0 1 4 3 4 3 0l1-4 1 4c0 4 1 5 2 4v-9l-6-1h-6v4m45 1v4h9l-1-1c-2 0-2-1-2-3 0-4 1-4 3 0l2 3v-3c0-4-1-4-7-5h-4v5m84 35l-7 1h11c12 1 24 0 24-1h-28m-39 6a3 3 0 01-6 0h-1c-2 0-5 3-5 5 1 1 0 3-1 4l-2 4-2 2-1 5c0 3-1 4-2 4v6c2 1 5-4 4-6 0-2 0-2 2-2 2 1 4-3 3-5-1-1-1-1 1-1 3 0 3 0 2-1-1-2-1-2 2-2l2-2h-2l-2 1 1-1 1-1 2-3 2-3a2 2 0 113 1v2l1-1c0-1 1-2 2-1l7-3a6 6 0 00-10-2c1-2-1-3-1 0m40 0l4 1c3 0 3 0 1 1l-3 1h8l9 1h9l-12-3c-10-2-16-2-16-1m-376 4l2 1c1 0 1 1-2 4-2 3-2 3-1 6 2 3 6 5 10 4 2-1 2-1-1-1-4 0-5-1-2-2 2-1 2-2 2-6l1-5c1 1 2 0 2-1 1-1 0-1-5-1l-6 1m44 1l-4 1 1 5-1 5c-1 2-1 2 1 2 4 2 8 2 8 1s-1-2-3-2c-3 0-4-1-1-3 1-1 2-2 2-5s1-4 2-5l-5 1m-30 6c0 7 0 10 2 8v-8l2 2a8 8 0 011 9c3-5 2-15-2-13-1 1-1 0-1-2 0-6-2-3-2 4m364-6l3 2 3 2 1 1h2l5 2 7 1c6 1-9-6-17-7l-4-1m-136 1c-1 2 0 3 1 1 1-1 7 1 7 3l-1 3 5-2c6 0 4-2-3-4l-6-2-3 1m134 5l1 2c0 1 15 6 19 6 2 0-5-4-13-7s-11-4-7-1m-17 2l16 7 7 3c8 3 4-2-5-7-2-1-4 0-2 1v1l-7-2-9-5h-2l2 2m-152 0v2c2 1 1 2-5 3l-6 2c1 2 7 1 13-1l6-1 3-1-8 1-5 1-4 1 3-1 5-2 4-2c5-1 5-2 0-2h-2l2-1h-2l-4 1m51 1c-1 2-1 4 1 5 1 1 1 1-1 2s-3 0-3-1l-1-2c-2 0-1 7 0 8l1 2 2 2 1-1v-6l4 5c3 4 3 6 2 6l-1 4c0 2 3 2 10 1 3-1 7 1 5 3l2 1c3 0 4 4 2 7-1 2 0 4 1 3s2 0 4 2c3 2 5 2 5-1l1-2v-1l-1-1 1-1c1 0 2-1 2-4-1-4-6-10-10-12l-3-1c0-2-2-4-5-5-3 0-6-4-10-9l-4-3-2-1h-3m103 5c0 3 8 7 13 7h4l-5-4c-5-3-8-4-6-1 2 2 0 1-3-1l-3-1m-56 2a4 4 0 001 3l-2 1h-2l1-2v-1c-1 0-3 2-3 4s1 2 3 2a2 2 0 003-3c1 1 5-1 5-2h-2l-1-1 3-1v-1l-3 1h-3m-102 5a9 9 0 00-6 6l-1 1c0 3 1 2 4 0v-3l3-2-1 2 2-1 3-1-2 3-2 3-1 1c-1-1-5 4-5 6 0 1 2 0 4-3l3-4h1l2-1v-2h2c1 1 2 1 3-1 2-1 1-3-1-1-3 2-2 0 0-3 4-3 3-4-1-1-5 3-6 3-2 0 4-4 2-4-5 1m44 2l-4 2v1l-1 1c-1-1-7 5-8 8h-1c0-2-1-2-3 1l-3 4h9v1c0 3 4 4 6 1l4-4-2 3c-3 2-3 5 0 3 1-1 1-1 1 1-1 1 0 2 1 2l1 1 2 1c1-1 2 0 1 1 0 1 2 2 3 0 0-2 2-1 1 1v1l6-3 2-1 3-1c1-1 1-1-1-1-2 1-2 1 0-1l2-1h1c0-2-3-5-4-3-2 2-3 1-3-1l-1-2-1 2-3 5-2 3v-8c1-4 1-4-2-1-1 1-2 2-3 1v-1l1-2 1-1 1-2c0-2-1-3-2-2-4 1-6-2-3-6 1-3 3-4 4-4l1-1c0-2-1-1-4 2m-222 2c-2 2-2 2 0 6v6c-1 2 3 4 5 2h8c1-2 1-2-1-2-1 0-2 0-2-5s1-7 3-3l1 5c0 2 0 2 2 1 1-2 1-4-1-8-1-3-1-3-3-2h-7c-1 1-1 2 1 2 2 1 1 11-1 11s-2-1-2-2l-1-9v-2c0-3 0-2-2 0m-29 1c-3 3-3 8-1 12 4 5 11-3 8-9-3-5-4-5-7-3m12 1c-3 4-3 9 0 11a5 5 0 103-8v2c2 2 3 6 1 6-4 0-5-7-2-12l1-2-3 3m60-2c-2 2-1 14 0 15 1 0 2-1 1-5v-4l2 2a10 10 0 011 10c3-5 2-15-1-13-1 0-2-1-2-3l-1-2m-72 3c-3 2 1 10 4 9s2-3 0-7c-2-3-3-4-4-2m51 3c-3 2-3 8-1 9 2 0 2-1 1-5 0-5 2-5 3 0 0 3 2 6 2 4v-4c0-5-3-7-5-4m36-1c-1 3 0 10 1 10l1-5 1-4c1 0 2 2 2 5l1 4c2-1 1-8 0-9l-6-1m13 1c-2 2-3 8-1 9 1 1 2 0 1-3v-5c1-2 3 0 2 3l1 3 1 2c0 2 0 2 1 1v-5c0-6-3-8-5-5m18 0c-3 2-3 8 1 9 3 0 6-4 4-8s-2-3-5-1m90 3c-5 5-7 10-4 10l3-1 4-1 5-2c2-2 3-3 3 0-1 1 0 1 3 1l6-1 2-1c-1 0 0-2 2-3l2-3-3 1c-3 4-13 5-11 2 0-2 0-2-2-1-2 2-3 2-3 1 0-4-2-4-5-1-4 3-4 2 0-2l3-4-5 5m111 4c-3 2-4 4-1 3l1 3c0 3 0 4 4 2 3-2 3-2 2-6v-3l2 2 1 4c1-1 1-5-1-6s-5-1-8 1m-17 4l3 2 1 1c0 1 1 2 3 2l2-1-1-2-1-1 3-1 2-1-4-1h-3c1-1 1-1-2-1s-4 1-3 3m82 7l-1 4-2 4v2l2 2v-3c2 0 3 4 3 6h1l2-1c2 1 2-4-1-9-2-6-3-7-4-5m-395 2c-5 7-2 13 5 15 2 0 3 0 5-2l1-2c-2 1-5 1-8-1-3-1-4-3-1-3h8c2 1 3 0 1-2-3-2-6-2-7 0s-4 1-4-2l5-1 7-2c1-1 1-1-1-1l-6-1c-3 0-4 0-5 2m317 1c-1 2 2 6 5 5 1 0 2 0 3 2l1 3c1 0 2-1 1-3l-1-5-3-3h-1c0-2-5-1-5 1m41 0c-2 1-2 1-1 3 2 4 10 1 8-3h-7m-59 5v2c1 1 2 2 1 4 0 2 0 2 2 2 9-3 10-3 9-5 0-2-3-5-4-5-2 0-1 2 1 2 1 0 1 1-1 2-4 2-6 1-3-1v-2c-2-1-5-1-5 1m112 2v3c3-1 6 5 4 8v1l4-7c0-2-1-3-2-3l-2-1c-1-2-3-3-4-1m-53 19l1 2 2 1 1 2 1 1 13 13 3 2c2 0 0-4-2-6l-2-2c0-2-7-8-9-8 0 0-2-1-2-3-2-4-7-6-6-2m-49 2v4c-2 2-4 1-4-2l-2-2 1 3c1 2 1 3-1 3-2 1-3 1-3-1h-2v1c0 2 6 3 9 2l2-2 1-1c1-1 1-4-1-6v1m-30 10l2 1h1c0 2-3 3-6 3l-9 2c-5 2-4 2 2 1 2-1 1 2-2 3-1 0-3 1-2 2l-3 2-2 1 3-1 3-2 2-1 3-1 2-2 9-3c0-2 0-2 1-1 1 2 2 1 1-2s-5-4-5-2m-38 16l-1 3v1c0 2-2 1-5-1h-2c1 1 0 2-1 2-2 0-2 0-2 4v4l1-3c0-3 3-5 8-4 2 1 3 0 3-1v-4l1-4v-1c-2 0-2 1-2 4m30 17l-2 2 3 6 4 5c1-1 0-2-1-4s-1-4 2-4l-1-1-4-2c0-2 0-2 2-2 3 1 4 0 1-1l-1-1-3 2m-297 3c-16 3-19 3-27 7-10 4-10 5-1 2 10-3 24-5 44-6l18-1c-2-2-1-3 6-3 8 0 10 1 5 3-4 1-4 1-1 2 4 0 5 2 2 2-6 0-2 1 6 1a187 187 0 0113 1c-6-2 6-1 18 2 30 6 47 11 72 20 10 3 11 4 6 5-3 1 1 4 12 9 6 3 14 10 14 12l-1 4v1c2 2 2 2 1 3l-2 2c0 1-2 2-6 2l-3 1 2 1 3 1 2 1 2 1-5 3c-4 2-4 2-1 2a5 5 0 014 1c0-2 2-1 2 1l3 1 4 1h-2l-12 2h1a5 5 0 015 3h-3l3 1 6 2-1-1-3-2h3c4 0 5 1 6 6 1 3 3 5 3 3l2-1v-2c-2-2-2-3-1-3l1-1 2-3h2l-2-2c-2-2-2-3 2-3h3l-3-1-3-3c0-1 1-1 3 1l2 1 2-2c0-2 2-2 4-2s3-1 3-2c-1 0 0-1 0 0 2 0 7 9 8 14s1 5 3 3c3-2 4-5 1-4l-1-1-1-4c-2-5-3-10-2-13l1-3-1 3c0 5 2 8 4 4 0-2 2-3 3-3 3-2 2-3-5-6l-6-3-2-1c-2 1-2 1-2-2s0-4-2-4-2 0-2 2c1 2-1 5-2 5l-1-1-1-2c-2 0-2 1 0 4v2l-2-2v-8c-2 0-2-1 0-3 4-4 12-4 16 1l2 3h-2l-4-1c-1-1-1-1-1 1s1 3 2 3l3 1 2 1 2 2c0 3 2 1 4-4 2-6 4-6 5-2 0 5 9 9 9 5a22 22 0 00-9-11c-1-2-2-2-3-1h-1v-5c1-1 1-1 0 0h-3c0-2 0-2-3-1-2 1-2 1 0-3l1-3-2 2c-4 3-5 4-4 1l2-3c3-2 2-3-1-1h-1c0-2-1-1-4 0l-5 2c-1-1-1-1 1-2l1-1v-1c0-1-1-1-5 1l-5 1 2-1 4-3c4-3 8-10 6-10l-3 3c-2 4-4 6-5 5h-4l1-1 2-4v-2l-2 2c-2 2-3 3-3 0h-1c-3 1-3 1-2-1 0-2 0-2-2-1-1 2-2 2-3 1s-2-2-3-1l-1-1h-1l-2-1-3-1-5-2h-2c-1 1-1 1-2-1-1-1-2-2-5-2l-12-2c-10-3-28-7-29-6l2 1 2 1-3 1c-1 0-2 0-1 1h8l-2-1v-1l3 1 2 1 2 1-2 1v1l1 3c0 2 0 2 1 1s1-1 1 1l-1 3-2-4c0-3-11-6-14-4v3c2 2-6 1-14-2l-15-4-8-2-2-1h-2l-2-2c-2-1-2-1 1-1l3-1h-4l-7 1h-5l-5-1c-4 1-5 1-6-1-2-2-2-2 1-1h7l4-2h-5c-12-2-53-1-65 1m83 1l9 2 12 1 8-1-9-1-20-1m260 18v14c1 0 2-1 1-4 0-5 2-4 4 1l1 4v-4c0-4-2-7-3-6-1 0-2-1-2-3l-1-2m47 1c-2 2-1 12 0 13 2 0 2-1 1-4 0-4 0-4 1-3l2 5v5l1-4c1-4 0-9-3-8l-1-3-1-1m-273 2l4 2 9 2c9 4 16 5 17 4l4 2c3 2 8 3 7 1l-4-1-2-1-3-2-9-3-13-3-10-2c-2 0-2 0 0 1m247 6v4h9l-1-1-2-2c0-3 2-4 3-1l1 1c2-1-1-4-4-5-3 0-3 0-2 4l-1 3-2-4-1-3v4m-197 7l2 1 9 6c2 2 6 4 7 3l1 1h4c3 1 1-2-3-3-12-6-22-10-20-8m132 12v7c0 7 0 9 2 5l2-3v-1c-2-1-3-6-1-6l3 3 1 3v-3c0-3-4-6-7-5m44 1l-2 4c0 4 2 6 3 4v-1l-1-3c0-5 3-4 3 1l1 3c2-1 1-7 0-8h-4m-253 4l-2 5c-1 3-1 3-2 1 0-2-1-2-6 5l-7 9-4 8-9 15c-5 7-9 12-28 31l-5 6-1 1c-6 0-3 10 2 12 5 1 5 1 5 3 0 3-6 13-8 14l-7 4-7 2c-14-2-16-2-16-1 0 2-2 1-2-1l-5-3-5-3c-1-2-2-2-6-2l-6-1H12l-8-1H0v50h38l1-2v-1l-2-6c-1-5 0-7 5-7l4-2c1-3 1-3 6-2h10l3-1-2-2c-4-2-4-4-1-4l4-2h2l2 1v2c0 3-3 7-4 7l-1 3-2 5-3 3-2 3-4 6c0 2-3 5-5 6l-4 6c0 2-1 3-2 1H0v94h35c34 0 36 0 37-2l3-2 4-1h1l-4 3-2 2h3l4-1c1-4 5-5 4-1 0 2 0 2 178 2l179-1c0-5-4-36-6-43-2-10-3-15 0-16l1-2 2-4c2-5 2-12 0-18l-2-9v-3h-24l-116 2-41 2c0 3-2 2-1-1 0-2 2-5 6-8 6-7 6-8 3-8l-2-2-2-3-2-2h1c2 2 3 1 3-4v-3l1 5c0 4 1 7 3 7 4 0 4-3 1-13a191 191 0 01-5-16l-6-24c-3-12-4-16-6-16l-1 1 10 38h-1l-2 1c-1 1 0 2 1 1 2 0 2 0 0 2-4 2-5 3-5 0 1-1 1-2-1-1h-2l2-3c3-4 3-6 0-3h-3l-2-1c-3 0-3-1 0-3s1-2-3-1h-2c0-2-5-6-6-5-1 2-5-1-5-3 0-1-4-7-4-5l-2-2-1-3v6l-2-3-1-3-1-4c-2-1-3-4-3-5 0-2-1-1-2 2v8c2 6 2 8 1 8-2 0-2 0 0 2a10 10 0 012 14c0 2 0 3 2 2l3 4v7c-2 0-2 2-1 5l2 2c2 0 4 7 4 10l-3 1v2c1 3 0 4-5 5-2 1-3 1-2 3h-2c-1-1 4-5 6-5s1-6 0-7l-2-4 1 1c1 2 5 3 5 1l-3-6-3-3-2-5c0-2 0-2 2-2 3 1 3-5-1-6l-2-5-3-5v-3l1 2 2 1c2 0 1-4-1-6l-2-1-1-1-1-3 1-2c2 0 3-2 1-4l-1-5-1-4c-2 1-4 0-4-2h1l3-2 3-2c2-1 3-1 2-3 0-1 0-2 2-3 2 0 3-2 3-3l4-3 4-2 3-1v-1c0-2 1-2 3-1h5c0-1-2-2-6-2l-8-2c-6-2-7-2-9 2l-2 3-3 2-4 2-2 2-1 3-1 2c0 3-2 3-2 0-1-2-1-2-2 0-1 3-4 5-5 4l2-3 4-4c0-2 2-4 3-5l3-1h-5l2-5 4-5 1-3h-1l-1-1c1-2-1-2-7 2-5 3-1-1 4-4 7-5 9-8 5-8a81 81 0 01-25-6c-3-2-3 1 0 4 2 2 3 3 0 3l-3-3-3-4-1-3-1-2-2-2-2-3-2-3-1-1c-2 0-2 3 0 6 1 4 1 7-2 5-2-2-6 0-6 3s0 3-2 2c-2 0-2 0 1 3s5 1 5-4l1-2 1 4-1 6c0 1 0 2-1 1l-1 3c1 3-1 3-7 1l-7-1c-3 1-4 1-3-1l3-1c1 0 2-6 1-7l-1-2c1-1 0-1-1-1-2 0-2 0-1-1v-4c-2-4-1-8 1-11v-1l-7-3 4-2 6-3c4-2 8-1 11 2l3 2-4 1c-8 1-9 7-1 7 7 0 8-3 4-14-2-7-2-8-8-8l-9-3-5-2m330 17c-1 5-1 5 3 7 4 1 4 1 5-2 1-2 1-3-1-5-3-3-6-3-7 0m-134 6c-3 3-2 5 2 5 2-1 2-1 2 2 0 4-2 5-5 2-1-2-3 0-1 2 1 2 5 4 8 5 5 2 7 4 8 6l2 3c2 0 1 2-1 3-3 1-3 1-1 3 2 1 4 1 4-2a1 1 0 012-1l1 2c0 2 0 2-2 2l-2 1c0 1 3 2 11 3 8 0 8 2 0 2h-10c-5 0-5 0-2 1l4 3c1 2 3 2 8 2l7 1c1 1-4 2-9 2l-5 2c-2 2-3 3 0 3l1 1 4 1 5 1-3 1c-7 0-4 3 4 3 3 0 4 0 5-2l1-2v-2l1-2c14 7 21 8 21 3h-4c0-2-1-2-2-1h-2l-8-3c-6-4-9-6-5-5 2 0 2 0 0-1-3-2-4-5-3-10l-1-1-1-2h2c1 1 1 1 1-3l-2-10c0-7-2-8-9-9-3-1-21-8-23-10l-3 1m-203 5v3c-1 2-1 3 2 2l3 1 1 2v-1l1-4c3-3 3-3-2-3h-5m338 3l-1 4v3l2-2 5-2c2 0 5-2 4-3h-10m-245 9l-1 1c2 0 2 0 1 2s0 3 6 6l4 4c1 2 3 4 5 4l4 4c2 7 5 9 3 2l-4-6-1-2c0-3-5-12-7-12v-2c2-1 1-2-4-3-3 0-4 0-6 2m-2 10l-4 5c-3 3 1 6 13 7 7 0 7 0 9 4l5 5c2 2-1-4-4-6l-2-4-1-1-7-6-7-7-2 3m-75 10l2 2 3 1h-3c-4 0-4 2-1 2 2 0 2 0 1 1-3 1-4 4-1 4 2-1 3-1 3 1 1 3 3 3 9-1l7-3 2-1c0-2-9-1-12 1h-5c-1-1-1-1 2-1l3-1-2-1-2-1c-1-1 0-1 1-1 4 0 4-2 0-2h-7m-17 8l6 3 5 1 2 1h1l-2 1c-3 1-4 2-2 4 3 1 4 5 2 5-2 1-1 3 2 3 2 0 2-1 2-3h2l3 1v-3c-2-1-2-1-1-2 3-1 0-8-4-8l-2-1c-1-1-10-4-14-4h-2l2 2m108-1h-2c-1 0-1 1 2 3l4 7 3 3c2 0 1-3-3-9l-4-4m209 5c4 3 15 8 17 7 0-1-3-3-5-3-4-1-5-2-1-2l-4-2-8-2c-2-1-1 0 1 2m-318 3l-6 1c-3-1-12 2-15 5l-3 3-3-3c-4-4-4-3 0 2 2 2 2 2 4 1 6-4 15-7 17-6 3 1 12-2 12-4 0-1-3-1-6 1m305 2c-4 2-6 5-6 8l-2 5v3c1-1 2 0 4 1 2 2 5 4 8 4l3 2 3 1 18 5h-6c3 2 12 2 12 0l-8-3-16-4-9-4c-3 0-6-3-6-6 0-2 0-2 1-1h4l1 1-1 1c1-1 2 0 4 1 3 2 11 4 16 4 3 0 3 0-3-2l-10-3c-12-5-12-5-6-6 2-1 3 0 4 1h5c2 0 2 0-3-3-3-1-5-2-7-1l-2-1 3-1 3-1c1-3-2-3-4-1m16 3c0 1 1 2 3 2l8 2h6v-2l-9-2-8-3v3m53 2c-3 2-4 4-4 7l-1 3v1l5 1h4v-16l-4 4m-320 4c-6 7-6 7-10 6-5-3-7-3-5 0l4 2 2 2h1l2-1 2-2c2-3 5-4 4-2l1 3c1 1 1 0 1-2 0-3 0-5 2-6l2-5-6 5m265 0l1 1c0 2 15 5 16 4s-3-3-9-4c-7-2-11-2-8-1m-286 2c-2 2-3 2-3 1l-1-1-1 2c1 2 0 2-3 3a5 5 0 00-5 3h-1l-2 1-1 4c0 2 0 4-1 3 0-3-3-5-3-4v2l-1 1c-2 0-5 1-4 2 0 2-6 7-13 11l-6 4c0 1 7-1 10-3h2l-2 2-1 2-5 5-7 5c0 1 3 1 5-1h4c3 0 1 3-6 7s-6 4-6 5l12-6c5-4 0 5-6 10l-2 3 5-3 4-3c1-2 1-2 0 0v3l-8 5c-12 6-17 7-19 5-1-2-1-2-6 0l-9 6-1 4c-3 5-2 6 1 3 2-3 2-3 2-1l-2 3c-2 2-1 4 0 3l2-2 1-3 1-4v-1l3-2c2-1 2-1 2 1-1 2-1 2 1 1l6-2 10-5c8-5 12-6 12-5l-1 1c-4 0 5 3 10 3h6l-1 1-2 1 2 1c2-1 4 1 4 4 1 4 2 3 5-1 3-3 3-3 2-5l-3-5c-3-9-4-10-9-7l-3 1 1-3 4-4 1-2-2 1-7 8 13-31c2-5 5-5 7-1 2 3 2 3 4-1 1-3 3-4 6-2 1 1 2 1 4-1l2-2-2-2c-3-3-3-4 1-4h2l-1-2-4-4-4-2 2-1c2 0 3-1 3-2l3-2c2 0 3-1 1-2l-2 1m36 1l-2 1c-2-1-3 0-1 2v1l-3 2-4 2v2l-1 2c-1-1-6 2-6 4 0 1-6 6-7 5l-1 3c0 1 0 2-1 1 0-1-5 4-5 6s-3 3-6 3l-2 3-3 5c-8 7-16 19-14 19l6-7 17-17 4 8c4 11 9 17 15 21 6 5 7 3 0-5-6-6-8-11-3-6l5 4c4 2 4 0-1-4l-9-8 6 2c8 4 7 3-1-5-6-5-11-10-7-8 2 2 10 4 10 3l-6-5-7-5h9l-3-3-1-2c1-2 6 1 6 4a3 3 0 006 0v2l1 1c2-2 1-3-3-5l-3-3c2 0 3-1 1-3s1-3 3-1l4 2-1-2c-4-2-5-3-4-5h2c2 0 2 0 2-2s4-6 6-6l3-3c1-3 1-5-1-3m304 15c-4 2-4 2-7 1-5-3-10-2-9 1 0 3-1 3-2 2-2 0-2 0-2 4v2h-2c-1 1 0 4 2 4l1-1v-1c1 0 2 5 1 9 0 3 1 6 4 6 2-1 6 1 6 3l2 2c4 2-4 6-9 3-3-1-3-1-5 1-3 2-4 1-2-1v-1l-2 1-2 1 1 1v2c-2-1-3 0-1 2l1 3c0 2 0 2 1 0 0-4 2-2 2 3v5l6 1 19 2c2 0 2 0 2-2l-1-3v-1c1-2 2-51 0-51l-4 2m-157 13l-5 2c-3 0-3 0-2 4h1l4-1 4-1c0-2 7 0 10 3 4 4 3 6-4 7-6 1-12 3-12 5-1 1 0 4 2 4s3 3 0 6v3c-2 2-1 4 1 5 3 1 3 2 2 3s-1 1 1 1a158 158 0 0114-4h11a64 64 0 0028-2l7-2 5-2c2 1 4-2 4-6-1-6 0-7 7-7 6 0 8-1 7-2l-3-9c0-4-4-4-25-3h-15l-6-2c-1 1-8 0-9-2l-12-1-11-1c0-1-1-1-4 2m-80 1c-1 1 0 6 2 10 4 16 4 16 3 17l-3 4-3 5c-3 3-3 3 5 3h5c-2-1-2-1 0-1l3 1c-1 1 3 2 7 2 2 0 1-3-1-3-1-1-1-1 2-4l3-4 2-3c2-2 2-2-1-5-3-2-3-4 0-4s2-1-1-3c-2-1-2-1 2-1l6-2 2-3-3-1a260 260 0 01-17-4l-3-1c0-2-3-2-7-1-3 1-3 1-2-1 0-2-1-3-1-1m-136 30c-9 3-8 6 2 5 6-1 7-2 3-4l-1-1 3-1c0-1-1-1-7 1m91 6c1 2-1 5-3 5-2 1-3 7-1 7l1 3 6 30c1 6 2 12 1 13l1 1 5 1-2 1h-2c0 3 2 5 4 5l6 1 4-1h4l6 1c4 0 4 2 0 2-3 0-3 0-1 1l2 1v2l-7 3c-8 3-9 4-1 2 11-3 15-9 11-18-1-4-3-5-3-3l-4 1h-10c-7 2-10 0-11-7l-3-14c-2-12-2-11 1-11l2-1-1-1c-1 0-2-1-2-4 0-7-3-13-4-9h-1c-1-1 0-1 1-2l2-2c0-2 3-5 4-5l-1 2c-3 2-3 4 1 4h6c5 1 6-2 2-4-3-2-2-3 1-1l2 4 1 4 1 6 4 15 3 13-3-3c-5 0-10-14-7-22 2-6 1-10-4-10-4-1-6 0-3 2 4 2 5 9 2 15-3 5-3 6 3 10l3 4 2 4c3 4 3 4-1 6-4 1-4 3 1 3l6 1c1 3 3 1 3-2v-4l1 6 1 1c1 0 1-1-2-13-4-16-4-16-2-19s2-4 1-4l-2 3-1 3-1-2-1-11c-1-10-3-13-13-13a9 9 0 01-7-2l-1 2m102 1l-5 3c-6 3-5 4 3 4 9 0 12-1 12-3-1-2-10-5-10-4m-202 3l-4 1c-2 2-1 3 1 3h2l6 1c7 1 8 2 8 4l1 1 2 1h2c1-4-1-7-8-7-7-1-10-3-5-3l5-1h-10m-55 3c-3 2 0 5 6 4l1 1-1 1v1l3-1 4-3 4-2-7 1-6-1-4-1m48 4c-2 2-1 4 1 4 2-1 5 0 5 1l2 2c3 1 3 1 2 4-2 3-4 6-4 4v-2l-2 4c0 3-1 4-4 4-6 0-7 0-6 5 2 6 6 9 6 5s2-8 4-8l2-1 4-7c3-4 3-5 6-4l4-1c0-3-2-5-5-5-5 0-13-3-12-5h-3m381 1l-11 1 4 14 5 13 1 4 1 3 4 4 4 5 3 6 2 5v-28l-1-28-12 1m-341 10l-1 4h4c4 0 4 0 3-1l-1-4a3 3 0 10-5 1m58-3c-1 7 2 26 4 30v-6l-2-15-2-9m266 9c-4 4-5 12-2 17 1 2 1 2-1 5-4 3-4 12-2 41l1 17h34v-14l-1-15v-11l-1-1v7l-1-1-1-9c-1-4-4-13-6-12l2 5 3 6-3-4-3-5 2 6 2 8a74 74 0 01-8-15l1 7c2 9 3 22 2 22h-1l-1-6-2-12c-1-11-2-13-2-5 0 9-1 17-2 17v-15a50 50 0 00-5-27c-3-9-3-9-5-6m-324 1v4c-1 1-1 2 1 2l1 2c-1 1 4 3 5 2l-1-3c-2-3-2-6 0-6 1 0 1-2-1-2-2-1-3-1-5 1m313 10l-6 1c-6 0-7 1-4 3h4c1-1 1-1 0 0l1 2 1-1c0-2 2-2 3-1l2 1 1 1 1 1c2 0 1-6-1-7h-2m-367 4a3 3 0 005 3c1-2 2-1 0 2-1 3-1 7 1 8l1-3 2-6 2-4h-11m356 14l-9 1-4 1-1 6 3 39v4h22v-25c-1-30-1-30-11-26M99 641c-2 2-3 4 0 6 2 2 1 3-1 4l-3 3-3 3c-2 0-3 2 0 4 2 3 4 2 4-2l3-6c2-2 3-4 3-8 1-6 0-7-3-4m-11 26c-1 2-2 3-4 3l-2 1 3 4 4 3v-4l2-7c1-3-2-3-3 0" tabindex="-1" itemprop="bold" style="fill-opacity: 0.981; fill-rule: evenodd;"></path></symbol></defs><use class="background" href="#-posters-1650743514621-background" fill="url(#-posters-1650743514621-background-gradient"></use><use class="light" href="#-posters-1650743514621-light" fill="url(#-posters-1650743514621-light-gradient" filter="url(#light-filter)"></use><use class="regular" href="#-posters-1650743514621-regular" fill="url(#-posters-1650743514621-regular-gradient" filter="url(#regular-filter)"></use><use class="bold" href="#-posters-1650743514621-bold" fill="url(#-posters-1650743514621-bold-gradient" filter="url(#bold-filter)"></use><use class="emboss" tabindex="-1" href="#-posters-1650743514621-light" fill="url(#-posters-1650743514621-light-gradient" filter="url(#emboss)"></use><use class="emboss" tabindex="-1" fill="url(#-posters-1650743514621-regular-gradient" href="#-posters-1650743514621-regular" filter="url(#emboss)"></use><use class="emboss" tabindex="-1" fill="url(#-posters-1650743514621-bold-gradient" href="#-posters-1650743514621-bold" filter="url(#emboss)"></use><defs><g class="gradients"><radialGradient gradientUnits="userSpaceOnUse"><stop itemprop="radial" stop-color="hsla(21, 73%, 47%, 1.00)" offset="0%"></stop><stop itemprop="radial" stop-color="hsla(28, 26%, 60%, 1.00)" offset="15%"></stop><stop itemprop="radial" stop-color="hsla(32, 15%, 68%, 1.00)" offset="30%"></stop><stop itemprop="radial" stop-color="hsla(32, 14%, 69%, 1.00)" offset="45%"></stop><stop itemprop="radial" stop-color="hsla(31, 22%, 64%, 1.00)" offset="60%"></stop><stop itemprop="radial" stop-color="hsla(26, 41%, 53%, 1.00)" offset="75%"></stop><stop itemprop="radial" stop-color="hsla(19, 76%, 43%, 1.00)" offset="90%"></stop></radialGradient><linearGradient gradientUnits="userSpaceOnUse" x1="0" x2="0" y1="0" y2="100%"><stop itemprop="vertical" stop-color="hsla(23, 64%, 49%, 1.00)" offset="0%"></stop><stop itemprop="vertical" stop-color="hsla(31, 18%, 64%, 1.00)" offset="15%"></stop><stop itemprop="vertical" stop-color="hsla(32, 14%, 70%, 1.00)" offset="30%"></stop><stop itemprop="vertical" stop-color="hsla(30, 24%, 63%, 1.00)" offset="45%"></stop><stop itemprop="vertical" stop-color="hsla(22, 57%, 47%, 1.00)" offset="60%"></stop><stop itemprop="vertical" stop-color="hsla(23, 64%, 49%, 1.00)" offset="75%"></stop><stop itemprop="vertical" stop-color="hsla(31, 18%, 64%, 1.00)" offset="90%"></stop></linearGradient><linearGradient gradientUnits="userSpaceOnUse" x1="0" x2="100%" y1="0" y2="0"><stop itemprop="horizontal" stop-color="hsla(20, 74%, 40%, 1.00)" offset="0%"></stop><stop itemprop="horizontal" stop-color="hsla(27, 26%, 47%, 1.00)" offset="15%"></stop><stop itemprop="horizontal" stop-color="hsla(29, 16%, 54%, 1.00)" offset="30%"></stop><stop itemprop="horizontal" stop-color="hsla(29, 18%, 57%, 1.00)" offset="45%"></stop><stop itemprop="horizontal" stop-color="hsla(26, 28%, 54%, 1.00)" offset="60%"></stop><stop itemprop="horizontal" stop-color="hsla(24, 43%, 46%, 1.00)" offset="75%"></stop><stop itemprop="horizontal" stop-color="hsla(18, 71%, 38%, 1.00)" offset="90%"></stop></linearGradient></g><g class="generated gradients"><radialGradient id="-posters-1650743514621-background-gradient" gradientUnits="userSpaceOnUse"><stop stop-color="hsla(21, 73%, 80%, 1)" offset="0%"></stop><stop stop-color="hsla(28, 26%, 80%, 1)" offset="15%"></stop><stop stop-color="hsla(32, 15%, 80%, 1)" offset="30%"></stop><stop stop-color="hsla(32, 14%, 80%, 1)" offset="45%"></stop><stop stop-color="hsla(31, 22%, 80%, 1)" offset="60%"></stop><stop stop-color="hsla(26, 41%, 80%, 1)" offset="75%"></stop><stop stop-color="hsla(19, 76%, 80%, 1)" offset="90%"></stop></radialGradient><linearGradient id="-posters-1650743514621-light-gradient" gradientUnits="userSpaceOnUse" x1="0%" x2="0" y1="0" y2="100%"><stop stop-color="hsla(23, 64%, 60%, 0.9)" offset="0%"></stop><stop stop-color="hsla(31, 18%, 60%, 0.9)" offset="15%"></stop><stop stop-color="hsla(32, 14%, 60%, 0.9)" offset="30%"></stop><stop stop-color="hsla(30, 24%, 60%, 0.9)" offset="45%"></stop><stop stop-color="hsla(22, 57%, 60%, 0.9)" offset="60%"></stop><stop stop-color="hsla(23, 64%, 60%, 0.9)" offset="75%"></stop><stop stop-color="hsla(31, 18%, 60%, 0.9)" offset="90%"></stop></linearGradient><linearGradient id="-posters-1650743514621-regular-gradient" gradientUnits="userSpaceOnUse" x1="0" x2="100%" y1="0" y2="0"><stop stop-color="hsla(20, 74%, 50%, 1)" offset="0%"></stop><stop stop-color="hsla(27, 26%, 50%, 1)" offset="15%"></stop><stop stop-color="hsla(29, 16%, 50%, 1)" offset="30%"></stop><stop stop-color="hsla(29, 18%, 50%, 1)" offset="45%"></stop><stop stop-color="hsla(26, 28%, 50%, 1)" offset="60%"></stop><stop stop-color="hsla(24, 43%, 50%, 1)" offset="75%"></stop><stop stop-color="hsla(18, 71%, 50%, 1)" offset="90%"></stop></linearGradient><linearGradient id="-posters-1650743514621-bold-gradient" gradientUnits="userSpaceOnUse" x1="0" x2="100%" y1="0" y2="0"><stop stop-color="hsla(23, 10%, 8%, 1)" offset="0%"></stop><stop stop-color="hsla(31, 10%, 8%, 1)" offset="15%"></stop><stop stop-color="hsla(32, 10%, 8%, 1)" offset="30%"></stop><stop stop-color="hsla(30, 10%, 8%, 1)" offset="45%"></stop><stop stop-color="hsla(22, 10%, 8%, 1)" offset="60%"></stop><stop stop-color="hsla(23, 10%, 8%, 1)" offset="75%"></stop><stop stop-color="hsla(31, 10%, 8%, 1)" offset="90%"></stop></linearGradient></g></defs><defs><filter id="light-filter"><feColorMatrix in="SourceGraphic" type="matrix" values="1.5 0 0 0 0
                0 1.5 0 0 0
                0 0 1.5 0 0
                0 0 0 1.5 0"></feColorMatrix></filter><filter id="regular-filter"><feColorMatrix in="SourceGraphic" type="matrix" values="1.5 0 0 0 0
                0 1.5 0 0 0
                0 0 1.5 0 0
                0 0 0 1 0"></feColorMatrix></filter><filter id="bold-filter"><feColorMatrix in="SourceGraphic" type="matrix" values="1 0 0 0 0
                0 1 0 0 0
                0 0 1 0 0
                0 0 0 1 0"></feColorMatrix></filter><filter id="emboss"><feConvolveMatrix kernelMatrix="3 0 0
                      0 0 0
                      0 0 -3"></feConvolveMatrix></filter></defs></svg>