<svg id="-posters-1650604032675" itemscope="" itemtype="/posters" itemid="/+/posters/1650604032675" viewBox="0 0 512 909" preserveAspectRatio="xMidYMid slice" tabindex="0" xmlns="http://www.w3.org/2000/svg">
  <defs>
    <symbol id="-posters-1650604032675-background">
      <rect itemprop="background" width="100%" height="100%" tabindex="-1"></rect>
    </symbol>
    <symbol id="-posters-1650604032675-light">
      <path d="M4 4L0 8v319l4-1c3-2 4-2 9-1 7 2 9 2 10-1l2-3c10-2 9-5 0-4-9 0-12 0-12-4l3-3c5-2 7-3 9-6 2-1 3-2 7-2l11-3 11-4 8-2c6-2 22-2 23 0s2 2 8 2c7-1 13 1 10 5-1 1-1 1 1 2 3 2 3 3-2 5l-6 3c-1 3 7 4 12 2 4-2 4-2 7 1 4 4 13 3 13-2 0-1 5-2 9 0h7c8-2 9-2 10 0 1 6 3 6 7 2 3-3 4-3 9-3l11-2c5-4 9-4 12 0 2 3 7 5 9 3l2-1 2-1h-3c-3 0-4-2-5-10l-3-6c-2-3-2-3 3-4l7-5c5-4 9-6 14-6l8-2c3-3 9-5 13-4 4 0 14-4 10-5-1-1-1-1 2-1l4 1c1 1 5-1 5-3l2-2h2c-1 2 0 2 1 2l2-1h5c7 1 13 0 17-4 3-3 4-3 11-3s8-1 8-3 1-3 4-4l4-3c0-1-7-2-10-1s-8 0-8-2l-3-3c-4-1-4-3 2-5 4-2 6-4 8-7s4-4 8-5l9-3c2-2 4-2 9-2 9 0 15-4 15-8-2-5 5-10 15-11 6-1 8-2 11-4 2-2 4-3 7-3 4 0 8-3 8-6l-5-1h-7c-1-1-4-2-6-1-6 0-8-5-2-6l3-3 4-4 7-4 7-4 4-3c3-3 9-5 16-5l9-2 10-3 11-3c5-3 12-4 24-5 11 0 12 1 8 5-2 2 2 5 6 4 2-1 2-1 3 1 0 4-2 7-5 5s-8-1-10 1a12 12 0 00-5 9v4c0 4-2 5-6 2-3-1-6 0-6 3 0 2-5 4-11 4-7 0-9 1-13 5l-5 3-2 2c1 2 6 0 9-3l7-3 6-1c3-1 5 5 3 8l-2 5c0 2-1 2-8 6a84 84 0 00-24 16l-2 2-4 3c-1 2-3 3-4 2a6 6 0 00-8 7l-9-5c-4-4-6-5-8-4-4 2-7 11-8 20a41 41 0 01-1 12l-1 2-3-1c-2-1-3 0-6 4l-4 4-1 2h-4l-3-2-2-2c0-3-4-2-8 3-5 5-7 8-5 12 1 3 1 3-1 3l-2-1-3-1c-3-1-7 4-8 11l-1 4c-1-3-3-4-5-2h-5l1 4h5l1 1c1 0 2 2 2 6 0 6-1 6-7 0-4-4-8-1-11 7l-2 3c-2 2-3 4-2 6v2l-1 2-2 1c-3 1-3 4 0 5l2 1 1 3c0 1 0 2-2 2l-1 2c0 3-4 5-8 5s-5 2-3 5 0 5-4 5c-3 0-9 4-9 7 0 1-5 4-7 3l-2 1h-2c-2 0-1-2 1-2s1-2-1-4h-6l-2-1 3-2c3-2 4-3 4-1l3 1 3-1 2-1 1-2c0-2 1-2 2-1 2 0 2 0 1-1l-1-3-2-2-3-2h-1l-3-1-3-2-3 1-2 2c0 2 0 2-1 1-2-1-3 0-2 2l1 3-2-1c0-1-1-2-2-1-2 0-3 0-3-2-1-1 0-2 1-2l1-2c0-2 0-3-2-2l-2-1c-1-1-2-2-5-1-2 1-3 1-3-1 1-1 0-1-3-1-4 0-5-1-6-2h-1l-2 2c-7 1-9 1-7 5v3l-1-1c-1-1-5 0-5 1l3 3c3 1 3 1 1 3h-3c-3-2-11 0-11 3l-3 2c-2 1-4 3-2 3s1 3-1 4h-2l-1 1c1 1 0 2-1 2a3 3 0 10-1 5c4 0 5 1 4 3h-2v-2l-2 2-3 1c-3 0-4 2-3 7l-1 3-1 1h-11c-3 2-6 1-4-2v-2c-2-1-1-2 1-4l3-3-2-1c-4-1-11-1-13 2h-1l1-3 4-2c5-3 5-4 1-8s-3-5 5-8c5-1 5-2 8-8 1-2 2-3 5-4 4 0 9-4 9-6h-1l-3 2c-3 0-12 5-12 7l-3 1c-2 0-2 1-2 3 0 1-10 2-11 1l-1-3c0-2 0-2-3-4l-6-2c-1-2-1-2-4-1-3 2-4 2-6 1h-3c-3 2-3 2-3 0l2-2c1 0 2-3 0-3v-1l1-1h-14l-3-1c-6-1-4-3 1-2 5 0 6-1 6-2v-2l-1-1c-2 0-3-2-4-3-1-3-3-4-6-2h-3c-1-2-1-2-2-1h-3c-2-1-4 1-2 3v2c-1 1-1 1-2-1 0-1-1-2-2-1v1h-1c-3 0-3 0-2 2l-1 2h-5l2-3c6-1 0-4-11-4-8 0-8 0-8 2 1 2 0 3-3 5-4 2-5 5-2 4 3-2 2 2-1 4l-4 3a19 19 0 01-1 4l-2 1c-4 0-8 2-8 3s-1 2-3 2h-8l-8 2-8 2-9 3H0v557h513V461L512 6V0H9L4 4M0 167c0 88 1 124 1 80a29815 29815 0 00-1-80m503-18c-2 1 0 3 3 3 2 0 2 1 2 2h1a4 4 0 10-6-5M249 299l-4 4c1 1 2 0 4-1 3-3 3-3 10-3l5-1c1-2-11-1-15 1m-24 9a9 9 0 01-11-1v4h6c6 0 9-1 9-4 0-1-1-1-4 1m-4 10l-2 4-3 5h1l4-3 3-2 2-1 2-1h-2l-2-1a2 2 0 00-3-1m-90 33l-4 2 2 1-4 1-3-1 2 2c3 2 4 2 5 1h1c2 2 3 1 3-1-1-2 1-3 2 0 1 1 1 1 4-1l4-1-4-1c-2 0-3-1-3-2l-1-1-4 1M0 634c0 152 1 214 1 138a89717 89717 0 00-1-138m189 55c-8 3-13 6-13 9 0 6 22 3 30-4 6-6-4-9-17-5"
      tabindex="-1" itemprop="light" style="fill-opacity: 0.9; fill-rule: evenodd;"></path>
    </symbol>
    <symbol id="-posters-1650604032675-regular">
      <path d="M5 4c-5 5-5 7-2 9 3 1 3 3 0 3-5 2-4 12 1 17l5 3 2 1 3 2c2 0 3 1 2 2 0 2 0 2 1 1s1-1 4 2c4 2 6 5 3 3l-3 2h-3c-2-1-2-1-2 1h-1l-1-2-2-1h-1c-3 2-5 1-7-4l-3-5c-2 0-1 123 0 123v5l-1 5 1 5 1 3-1 3-1 10v10l6 3c5 2 6 2 8 1 3-1 3-1 5 1l4 3c2 0 1 2-1 3l-2 2c1 1 0 3-2 4l-2 2v-2l-1-2v3c0 1 0 2-2 2l-3 1H7c-3-1-3-1-2-3 4-7 3-14-3-14-2 0-3 4-1 4v3l1 2h1l1-1-2 3c-2 1-2 3-2 13v11l7 6 7 7 5 2c3 2 6 2 11 2h7l7 1c11 2 14 3 23 12l11 9c2 1 5-3 5-6 0-1 1-2 3-2l2-1h-1c-3 0-4-2-4-9l-2-9-1-6 1-5-3 3-6 3c-1 0-2 0-1 2a1 1 0 11-2 0l-2-4-2-3a43 43 0 0114-13l7-5c9-4 11-6 13-10 2-2 5-5 9-6l13-8 2-3 6-7 8-3c6-3 7-3 19-3 15 0 19 1 21 5 1 5 7 9 12 9 6 1 9 5 10 13 1 5 4 9 7 9 2 0 2 1 2 10-1 9-2 12-4 12l-3 2-2 1v-4l-2-1 2-1 1-2-1-2c-3 0-5-3-3-5 1-1 1-2-1-2-3 0-6 2-4 3 2 2 1 3-2 5-2 1-2 1-2-2 1-2 0-3-1-5a6 6 0 01-1-6l-1-3c0-3 0-3-1-2v5c2 8-2 12-6 8-3-3-3 2-1 10l1 7-3 3-3 3-5 6-1-5a4 4 0 013-5l-1-1c-3 0-3-3-2-8l1-4c-1-1-4 3-4 5 0 5-6 7-6 3 0-2-5-10-7-10s-1 2 1 3c1 0 2 1 1 2l2 9 2 10 1 5 2 6c0 4 0 5-4 9l-5 5c1 2 5 2 4 0 0-2 2-3 5-3l2-1 1-1c2 0 4-7 2-8 0 0 0-2 2-3l3-3v8l1 7-6 5-5 7c1 3 3 2 5 0 2-4 4-4 4 0l-1 3-4 10h1l2-2 1-2 2-4 4-4c3 0 4-1 2-3-1-1 0-8 2-9l5-1c3 0 3 0 3-2v-4c0-2 3-1 3 1l1 2 2 4c0 5 2 8 2 4 0-2 1-3 3-4l2-2-1-1h-1c-1-1 0-1 2-2l3-3c0-1 1-2 3-2 5 0 6-2 1-2-3-1-4-3-1-3s5-2 5-5c-1-2 0-3 2-1 1 1 6 0 6-2l-1-4v-8c-2-1 0-6 2-6l2 1c-1 1 0 3 1 5 2 4 4 15 4 21 0 4 1 5 3 2h3c3 1 3 1 2-2 0-2-1-2-3-1s-4-2-2-4v-3c-1-1 0-3 2-3s1-3-1-3-3 0-3-2a23 23 0 00-1-14c0-1 0-2-1-1-1 2-2 1-2-4l2-6 1-7c0-6 0-7 3-5 2 1 2 1 2-1l2-3 1-2 2-1v2c-2 6-1 13 4 17 2 2 2 2 2 0-4-7-3-16 1-14l1-1 2-2c3 0 1-6-2-6-4-1-9-6-7-7 2-2 2-4-1-5l-3-1-2-2c-4-2-4-3 0-3l4 2c1 2 2 2 11-1 7-2 13 0 13 5l1 4c7 14 9 22 9 31l2 11 3 8c1 2 1 2 1-1l-2-8c-3-6-4-12-2-13v-6l-1-9c0-5-1-11-4-12-2-2-1-5 2-12l3-9c0-4 2-9 5-10l3-5c2-5 6-10 7-10 2 0 5-4 7-9 2-4 13-16 14-15l4-7a20 20 0 0111-12l2-2c2 0 9-7 9-10 0-2-2-2-3 0-2 1-2 1-2-1l-2-3c-1 0-3 6-2 7l-1 1c-1 1-1 0-1-1 0-2-1-3-2-3v2c1 2-3 7-5 6v1l-1 2c-1-1-5 4-5 7l-1 2-2 2-2 2c-1 0-2 1-1 2l-2 4-3 4-2 2-4 2h-2l-3 5-10 13v-4c0-4 3-9 5-9l2-2 2-5c0-3-3-3-6-1l-3 4c1 1-3 4-4 3-2-1-1-3 1-3h1c-1-1 0-2 2-4l4-5 2-2 2-5 1-4c0-3 7-10 9-10 1 0 2 0 13-12 5-4 8-8 7-9l2-1 3-2 2-1h1l-1-2c0-2 0-2-1 0l-2 2-4 2-3 2c-2 0-3 0-3 2s-3 3-3 0h-1l-3 2c-2 0-2 0-1 2 2 2 0 4-2 2-1-1-2 0-4 1-1 2-4 3-5 3-3 1-3 1-2 2h2c1-2 3 0 2 2l-1 3c-1 2-4 4-5 2l-1-1c-2 0-1-4 0-6l1-1 2-2 3-3 7-8c5-7 7-8 11-10l5-2 2-1 1-1 1-1 2-2 2-1h2l3-2c2 0 1 3-2 5l-3 3h2l4 2 2 2 5-1c3 0 4-1 2-4-2-2-2-4 0-4l1 1 4 1c4 0 8-2 8-4s6-3 7-2l4 1 6 1h5l22-1c-1 1 0 1 0 0l1-1h3l3 3c1 2 1 2 1 0s1-2 6-2l10-1h13c10-1 11-1 5-4l-5-3-1 2c-1 2-3 2-7 2h-9c-5-1-6-3-1-3 2 0 7-1 10-3 6-2 6-2 8 0s6 1 4-1c0-1 4-2 6-1v2h2c2-1 9-1 9 1l1 1 1-1c0-1 5-1 11 1 7 2 12 2 12 0l-4-3-3-2c2-3 1-5-3-6l-4-2-3-2-2-2h2c2 0 2 0 1-1h-3l-2-1c0-3 12-1 17 3 1 2 4 3 6 3 4 1 9 4 11 8l5 3c3 1 4 0 2-2v-4l-5-1-2-2h4l4 1 10 3-2-2c-4 0-6-3-3-3l10 1c1 2 2 44 0 44l-1-1-10-7c-2 0-1 3 2 4l2 2 2 1 2 1 2 3a10 10 0 011 12l1 28v28l-2-1c-2 0-3-1-3-2l-1-1c-2 0-7-6-8-10-1-3-2-4-4-5l-5-3c-2-2-2-2-5 1-3 2-3 3-2 13l1 11c2 0 1 2-1 2-2 1-3 0-5-2l-4-3-1-1-2-1-3 1-1 1-2 1a657 657 0 01-1 11c0 5-5 6-9 3-2-2-3-2-3 0l-3 3c-4 4-4 5-3 8s1 4-1 5v4l1 2-3 2-2 2 3-1 3-1 1-1c3 0 9-2 11-4l4-2 5-2c8-7 18-9 18-4 0 4 3 6 10 5 7 0 10 0 8 3v2c1 1 8-1 8-3l1 4 1-78c0-45 0-81-1-79v4l-3-2-8-2-6-2-5-2-5-1h-5l-6-1-6-2-4-1c-6 0-8 0-11-2s-5-3-5-1c0 1-1 2-5 1-5-1-6-2-6-4l-2-1c-1 0-2 0-1-1l-1-1-1 1-2 1 1 2c1 1 1 1-1 1s-2-1-3-3c0-4-7-10-8-7h-3c-1-2-1-2 2-3a98 98 0 0139 2l2 1 9 3a23 23 0 0112 4c1-1 12 2 15 4l3 2 3 1h3c2-1 2-1 4 2l2 2c2 0 1-3-1-5-3-3-1-5 2-2l2 2V19c-1-12 0-11-8-11l-11-2-6 1h-2c-1-2-3-2-4-2h-2l-2-3c-2-2-2-2-39-2a198 198 0 00-39 1l-1 1-1 3-1-3c0-3-2-3-2 0l-1 2-2-3-12-1-14 1h-4l-34-1-34 1-2 2-5 4-2 3-3 2-4 3-3 1c-2 0-3 0-3-2h-1v2c2 0 1 3-1 3-1-1-2 0-2 1-1 2-4 3-4 0 0-2-3-1-4 2l-3 2c-7 0-22 12-24 18-3 11-15 23-18 18-4-4-10-4-10 0 0 2-3 3-5 1-4-5-11-2-11 4l-2 5-2 2-2-2c-3-2-3-2-5-1-3 3-5 2-9-4l-4-5-2-3c-1-2-3-4-6-5l-7-4-4-2h-2c-1-2-4 0-4 1l2 1 2 2c0 2 0 2 2 1 1-1 1-1 3 1s3 2 3 1c1-1 1-1 3 1l4 2 2 3 2 2 1 3 3 5c3 2 4 8 2 10l-1-2c0-2-1-2-3-2l-4-1-5-2c-4 0-4 0-4 4 0 2 0 3-2 3v1h-3l-7-2a2 2 0 110-4l4-1-2-2c-2 1-2-6-1-7 2-1 0-3-2-3-1 1-2 6-1 8 1 1-1 3-5 4-2 0-2-1-2-2l-1-4c-2-1-2-1-2 1h-1v-5c-1-2-1-2-3 0h-2l-3-2v-3h2v-3h-1l-2 1-3 1h-3c0-3-2-7-4-7l-4-3 2-1c2 0 3-1 1-4-2-1-2-2-1-2h-2c-3 0-5-3-5-7 0-2 2-1 3 1l2 2 6 3a3 3 0 002 3l1 1 3 2c2-2 1-6-1-9-2-1-3-4-3-5a3 3 0 00-1-3c3 0 1-2-3-2-4-1-4-1-2-3l2-1-3-2c-6-4-2-6 5-2 6 3 11 7 11 10l2 3s2 1 2 3l12 12c2 0 2-3 1-5l-2-2-1-1c-1 0-2 0-2-2l-3-3-2-3-2-4c-2-4 1-7 6-7l4-1 1-2 1-4v5c0 4 0 7 1 6 1-3 5-4 5-1 0 2 1 3 4 3s4-1 4-2l4-1 6-3 2-2-5-1h-5l2-3 5-3 2-1h7c4 0 6 0 5-1l-1-4-1-4-1 4-1 4-1-4V0h-15l-17 1h-24c0-1-28-2-30 0h-3L44 0H9L5 4m32 8c-1 3-1 4 4 7 4 3 4 3 6 2 1-2 1-2 2 0v2l-1 2h4l3 1 3 1 5 1 2 2 3 2v-4l-3-2-1-2a17 17 0 01-9-4l-8-4c-6-5-9-5-6-1 3 2 2 2 0 1-2 0-3-1-2-3 0-4-2-4-2-1m363 7l1 2 3 2c1 1 1 1-7 1h-7l1 6a5 5 0 003 6c1 3 3 2 3 0s4-4 8-4c2 0 2-1 2-4l1-5h1l3 1c2 0 3 0 2-2l1-2 1-2h-5l-8-1c-3-1-3-1-3 2M16 20l-2 1c-2 0-2 0 0 2l3 2 1 1 1 3 2 1c-1 1 0 3 1 4l1 3 2 1 2 2h2c1 0 2 0 2 2 1 2 3 3 3 1l-1-1-1-2 2-2h1l1-3v-4c-3-3-2-3 1-3h3l-5-4c-5-6-6-5-5 0v5l-2-3c-2-2-2-2-4-1l-2 2 1-2c2 0 1-3-1-3l-4-2h-2m340 2c-5 1-5 2-1 3 2 1 2 1 1 2-3 2-5 1-5-1l-1-2-1 3-1 1-1-1c0-2-2-1-2 1l1 2 3 2c2 2 5 1 5-1 1-2 4-3 8-1l4 2c2 0 2 1 2 2-1 1 0 2 2 2 4 1 5 1 5-2 0-2 0-2 1-1 0 2 0 2 3 1l2-1 2 3c4 2 6 0 5-7v-5h-6l-6-1c0-2-3-2-6 0h-4l-4-1h-6m52 7c0 6 2 7 6 5 3-1 3-5 2-6l-4-2-4-2v5M72 32c-2 1-1 3 2 3 2 1 3 3 0 3s-2 2 3 6c3 4 4 5 4 8 0 7-1 7-9 3l-4-1c-2 0-3-1-3-3-1-4-3-5-8-4l-1-1c0-2-10-3-11-1-1 1 0 1 1 1l2 1 2 1 3 1h1c1-1 2 0 2 1 1 4 3 4 3 1a2 2 0 114 0l-1 4-3 1-2 1h4c3 0 3 0 3 2s1 2 4 2c4 0 4 0 4 2-1 3 2 6 4 4 1-1 2 0 4 1 1 1 3 2 5 1h5l4-3 2-2-2 1c-3 0-4 0-4-4 0-2 0-2 5-2l4 1 2 2 3 2 2 1 2 2v1l2-2h5c0-1-3-2-7-2l-2-2c0-3-2-6-4-6l-3-3-2-4c-3-1-7-6-7-7 0-2-4-5-7-5-2 0-3 0-3-2s-7-5-8-3m-26 4c0 5 3 6 16 5l-2-1-4-2-4-1c-4 0-4 0-4-2l-1-3-1 4M0 100c0 34 1 48 1 31a4174 4174 0 00-1-31m240-61l-1 1c-1-1-1 0-1 2l-1 4 1 2 2 2c0 2 3 3 11 3 7 0 6-2-1-2-7-1-10-3-10-6 0-2 1-2 4-2s4 0 4-2 0-2-2-1l-3-1-1-1-2 1m80 1c0 2 0 2-1 1-2-1-3-1-3 1l-2 1c-1 0-4 1-5 3l-4 2-1 1-2 4-2 2 2 1h2l1 2 1 2c-1 1-2 0-6-1l-4-2a33 33 0 01-13 14l-4 2c-4 3-8 7-8 9l-2 2-1 8c1 5 1 6-1 5-1-1-1-1-1 3v3c-2-2-2-2-3 1s-7 8-9 8l-1 1-3 4-3 3-2 3c-1 2-1 5 1 5s8-7 7-8c-2 0-2-1-1-3h3c2 2 3 2 3-2 0-2 1-3 2-3l1-1h1l1 1c4-5 5-7 5-9l2-4c2-1 3-2 3-5 0-2 2-3 2-1l3 1 2-1v-2c-2-3-2-3 3-5l6-5c2-5 6-9 9-8v-1c0-2 1-2 3-3 3-1 4-3 2-4-1-1 0-1 3-2 4-1 5-2 2-5-1-2-1-2 1-2 5 1 7 0 4-2v-1l4-4c3-7 6-8 11-6 3 2 3 2 2-1l1-2 1-1c0-2-3-1-3 1h-6c-3-2-3-2-3 0m34 2l-2 1-2 1v2l2 1a8 8 0 01-9 0l-1 1c-2 0-4 4-4 6 1 1 3 0 3-2l2-2c2 0 1 3-1 5l-5 1-4 1 2 1c1-1 1 0 1 1 0 2 1 2 4 2 4 0 4 0 4-2 0-3 0-3 4-3l4-1 2-2c2 0 4-4 2-5l1-2 3-1c2 0 2-1 1-3h-7M234 53l-1 3c-2 0-1 3 1 4 1 0 2 4 0 4s-4-2-4-4c0-3-2-3-2 0l-2 3 2 1 3 1h5l3-1-2-1 3-3c2 0 2-3 0-3l-2-4c-1-4-3-4-4 0m132 2h-2c0-2-2-1-2 1l-1 2c-4 1-4 1-3 2h4l2-1 1-2 1 2c0 2 0 2 2 2l3-1 1-2 2-1h2l-2-1-2-1c-1-3-5-2-6 0m79 5c0 1-1 2-2 1-4-1-3 3 1 5l5 3h3l2 1 2 2 3 2 3 3c2 0 3 3 1 3l-14-6-4-1-4-1-5-2-5-1-11-1-11-1c-1-1-1 0-1 1 0 2 3 3 10 3 2 0 3 0 2 1l3 1 3 1-3 1c-10 1-9 3 1 3l10 1 2 1h-2a30 30 0 00-6 1c-3 0 0 2 6 3l10-1c6-3 11-2 16 0l12 2-3-3c-4-2-3-2 2-2 3 1 4 2 5 4 0 3 1 4 5 5 7 2 10 6 4 5l-3 1c0 1 4 3 9 3l12 2 6 2c1-1-1-3-3-3l-3-1-6-2-5-3-3-2-1-1-3-2c-3-1-7-4-7-6l-2-2c-2 0-2-1-2-2 0-2-1-3-3-3l-3-2-7-4c-6-2-6-3-1-3 2 0 3 0 2-1l-6-1c-7 0-11-1-9-4v-2l-2 2m-301 5l-1 1-1 1h6c3 0 4 0 4 2l1-1c1-4 0-5-5-5-3 0-4 0-4 2m320 1l3 1 2 1 3 2 3 1c0 2 7 3 8 2v-1l-3-1-3-2-3-1c0-1-1-2-3-2l-2-1c-1-2-5-1-5 1M56 74v2l-2 3c-1 4 0 5 3 4 1 0 2-1 2-3s1-2 3-2l3-1-1-1-3-2c-2-3-5-3-5 0m66-1c0 3 1 3 3 4 4 0 5 2 3 3-1 1-1 1 0 0l-1-2-3 2c-3 0-2 4 0 5 2 0 2 0 1 1-2 3-1 4 2 4 2-1 4 0 7 3 2 2 4 3 7 3l3 1h-5l2 2 3 2 4-1c4 0 4 0 4-3l1-5c2-1 2-2 0-4l-2-1c0 1-7 1-7-1l-3-1a2 2 0 01-3-3l3-1c2-1 2-1-1-1-5 0-9-2-10-5a5 5 0 00-6-4c-2 0-2 0-2 2m79 14c-2 2-2 3 0 12v5a2 2 0 104-1c0-3 1-5 2-3 1 1 1 1 1-1l2-5 1-4c0-2-3-3-3-1-1 2-4-1-4-3s-1-1-3 1m143 18l-3 2c-2 0-2 0-2 2l-1 2c-1-1-2 0-3 1l-5 2c-2 0-2 0-1 1s0 2-2 5l-4 5-1 3-2 3-2 2-1 2c1 3-2 9-5 10-2 0-4 1-4 3l-1 2c-2 0-5 5-5 9l-1 3-1 2h-2c-3-1-3-1-2-3l2-4 1-5 1-5 3-5c1-2 2-3 5-4s5-2 6-4c0-2 2-4 3-5 3-2 4-7 2-8-1 0-3 1-4 5l-5 5c-2 0-7 5-7 7l-3 4-6 10-5 8-1 2c1 1 0 3-1 4-2 3-2 3 0 4 1 1 1 1-1 1l-4 2-1 2-1 2v5c0 2 0 2 3 3l3 3 2 2c0-1 2 0 3 2l2 3c2 1 2 5 1 5l-2-1h-1c-2 1-1 6 1 6 1 0 3 1 3 3 2 3 4 3 4-2l2-9c0-4 0-5-3-9-3-5-3-9 1-14a219 219 0 0011-13l8-11 3-6 2-6c0-6 4-15 7-17 8-4 16-12 16-15l-2-1m-254 7h-4c-5-1-8 2-8 9l1 6 5-3 2-2c2 0 5-2 5-4l2-1 2-1 1-2c1 1 2-1 1-2h-7m72 5c-2 1-1 3 1 3l4 2c3 3 6 4 6 2 1-4-9-10-11-7m-94 7c-2 2-2 4 0 4l4 1c2 0 2 0 1-1s-1-1 1-1c4 1 3-1-1-3-3-2-3-2-5 0m-26 10h-2c-1-1-1-1-1 1v5l-2 4v5c-1 2-2 4-1 5 1 0 3-1 2-2a9 9 0 013-7c0 2 2 1 3-1l3-3 1-3c0-2 0-2-2-1h-3l1-1v-3l-2 1m33-1l-4 1-5 4-4 2c-2 0-6 3-5 6h-2l-2 1-1 2-1 3-1 3-3 4c-3 2-3 2-2 4 2 3 6 3 9 1l3-1c2 2 3 1 6-2 1-2 4-5 6-5 5-2 4-5-1-5-4 0-4 0-2 1s2 1 0 1l-2 2c0 2-1 2-4 2s-4 0-4 2v-3a4 4 0 00-2-5l2-1 1 1c0 2 3 1 3-1 1-2 1-2 2-1s10 0 10-1l-2-1c-4 0-4-2 0-2l3-2h-5a2 2 0 110-3l3-2 1-1c0 2 0 2 2 1 1-1 1-1 1 2l1 4 1-4 2-6c1-2 1-2-1-2l-3 1m-45 7l-2 3-1 3c-2 4-1 6 1 4h2c0 4 2 1 4-3v-7l-2-2-2 2m218 2l-2 1c-5 0-10 12-7 14 1 1 1 0 1-2v-2c0 2 2 1 2-1a7 7 0 017-8v-3l-1 1m-87 14l-3 1c-4 0-8 1-7 2h-2l-3 1-2 1-6 1-16 2c-11 1-18 3-18 5l-1 1c-1-1-7 1-8 3l-6 4a19 19 0 00-7 5l-6 2-9 4a62 62 0 00-27 18v2l-2 2-6 4c-4 4-12 9-14 9l-2 1-1 1-3 1-2 2c-5 0-5 7-1 9 2 2 3 2 2 4s0 3 3 3l2 1c1 1 8 2 13 1 3-1 4-3 2-4l-1-4c0-4 0-4 3-5l5-4 3-2 2-1v-2l2-1 4-2c3 0 6-3 6-7v-3l1 2 2-2 2-3 2 3 2 4v-4l-1-3 5-6 10-7 4-3 3-2a4 4 0 014-3v-1c-1-2-1-2 1-2l2-1 2-1c3-1 5-6 3-7-1-1 0-1 1-1 4 0 5 0 3-1l2-1 5-1 4-1 13-3 4-1a12 12 0 008-2l4-1c3 0 3 0 2 1 0 2 1 2 7-1l4-1-4 2-2 1h6a6 6 0 017 1l3-2 4-1 5 3a19 19 0 0012 7l5 1h5l-2-3c-3-4-5-6-7-6-1 1-2 0-2-1l-2-2-9-5c-3-2-9-2-9 0h-1c0-2-2-3-2-1m-142 3l2 1 1 1-3 2-3 1-1-1-1-1-1 1-1 3c-2 2-2 2 4 2 5 0 11-4 11-7 0-1-7-3-8-2m311 14c-4 5-4 5-1 5 4 0 5 1 4 7 0 5 1 5 3 0 1-6 0-10-2-12-3-2-3-2-4 0m-220 3l-2 2-2 2-2 2c-3-1-5 3-2 4l2 2c0 2 1 1 4-1l4-3v-3c0-2 0-2 1-1h3l4-3 3-2h-6l-7 1m99 6c3 3 4 4 4 7 0 2 1 3 2 3l1 1c0 1 1 2 3 1l2 1-1 3a3 3 0 106 0l1-2v-2a2 2 0 00-3-2v-2l-2-4c-1-3-1-3-7-4a17 17 0 01-8-2l2 2m38 7c-5 1-3 5 2 5 6 0 7-1 5-4-1-2-3-2-7-1m-7 8c-1 1 1 5 4 5l6-4c0-2-8-4-10-1m10 8c-1 2 0 9 4 17s6 8 4 1l-1-6c2-6-4-15-7-12m-32 3l-1 8v3l-1 7c-1 8 1 8 1 1 1-4 1-6 3-7l3-6 2-7c1-3-4-3-7 1m-142 1c-6 3-6 3-5 4v2c-4 0-5 0-4 1l-3 3-6 5c-1 2-3 2-4 2s-6 4-6 6 3 2 4 1l3-1c1 1 1 0 1-1s2-1 6 1l3-2c0-2 1-3 2-3l1-1c0-2 6-7 8-7s2-1 2-2l1-2 1-1-2-1-2-1c-1-1 0-1 1-1 2 0 3-1 3-2 0-2 0-2-4 0m420 9l-1 1-2 2-3 3-1 1 1 1a1 1 0 010 3c-2-1-4 1-4 3l-1 3-2 3-1 2c-2 0-4 3-4 5a4 4 0 01-7 3v1c2 1 1 3-2 4l-2 2c2 1-5 6-9 6l-5 4-4 3-1 2-3 1-3 2c-1 1-1 1-2-1-1-1-1-2 1-3l3-4c1-3 8-13 17-22l7-10 3-5v-3h-3l-3 2h-1l-2 2c-2 0-2 1-2 4 0 2 0 3-1 1l-1-2v1c0 2-2 7-4 7l-2 2-2 1c-1 0-3 1-3 3l-3 2-10 7c-2 2-2 2-3 1-1-2-7 1-7 3s-9 12-10 12c-2 0-5 5-5 6l-2 3c-5 1-6 2-5 4v1l-2-1-2-1 1 3v5c1 1 16-14 16-16h1l5-2 4-2v1c-1 0-2 1-2 4l-3 7-2 4-1 1-1 3-1 2-1 2-3 5a8 8 0 00-3 6h-1c1-2 0-3-2 0v2c2 1-1 4-4 3l-1 5-4 6-2 3-2 2c-1 1-2 2-2 5l-1 5c-1 2-4 1-3-2l-2-1-1 3c0 4-3 4-3 0-1-3 1-9 2-9l1-1 2-4c4-4 5-7 4-10 0-3-2-4-4-2h-2c-4-2-6 0-5 4 0 5-3 7-6 6l-1 1c-1 1 0 1 2 2 3 1 4 4 2 4l-3 3-1 2c-1 0-4 2-6 5l-6 4c-1-2 2-6 5-8s6-6 3-5l-10 7c-3 4-4 5-1 7v1l-1 2-1 1a23 23 0 00-7 11c-1 0-4 6-3 8 1 1 0 5-1 5v-2a2 2 0 10-3-2l-5 6a19 19 0 00-6 8l-3 3-2 3v-2c-2-5 1-8 11-16a20 20 0 007-8l7-11 2-3c1 0 2-6 0-6l-1 2-2 2c-2 0-3 1-3 3l-1 1c0-2-1-2-4-2-4 1-7 4-5 5s-2 3-5 3-4 2-2 4c1 1 0 2-3 4l-3 5c0 2-3 4-6 4-3-1-7 0-10 4l-4 2c-2 1-2 2-2 3 1 3-1 4-6 4-3 1-4 1-4 3s-1 2-2 1c-2 0-14 11-14 13l-5 4-3 3-4 2c-4 0-9 3-8 4l-2 1c-2 0-2 0-1 2 2 1 2 1-2 1l-3 2a10 10 0 01-14 0l-1 1-4 2-2 2-2 3c-3 1-3 3 0 3l2 2c1 2 0 3-1 1s-4 0-4 3c1 3 1 3-4 2l-6 1-4 1c-5 0-8 2-7 4 1 1 0 1-3 1s-4 0-5 2c0 2-4 3-6 2-1-1-2 0-3 1l-3 2c-3 1-3 6-1 6s6 3 6 4h-2l-3-1 1 1c1 0 1 1-1 2l-3 1h-2l-3 2-3 2h-4c-4-3-4-2-4 1 0 2 1 2 3 2h3l-3 1c-3 1-3 1-1 1 3 0 3 3 0 3l-2 1h-2l-6 2-6 2-2 2c0 1-1 2-3 2l-2 1a1 1 0 11-2 1c0-2 0-2-2 0-1 2-1 4 1 3l1 1v4c-1 2-3 3-5 3l-2 1-2 2c-2 0-2 0-1 1 2 0 1 3-1 3l-5 3-6 3c-1 0-2 1-2 3-1 3-4 4-4 2l-3-2h-3l-3 1c-2 0-2 1-2 2l-2 4c-2 2-2 5 0 5s1 1-1 4l-2 1c0-2-1-3-3-1l-4 2c-2 1-2 1 0 4 1 2 1 2-1 1-3-3-4-2-6 1l-4 3c-2 0-4 5-2 7 1 1 1 1-3 1-2 0-2 1-2 4 1 3 1 3 3 3 1 0 2 0 1 1l-1 2h3c1 1 1 1-1 3v3l-1 2c-2 1-3 3-2 4l-1 2c-2 0-6 5-6 6l-1 2-3 2c-2 2-2 2-3 1 0-2-2-1-3 1 0 2-2 3-3 3-2 1-2 1 0 1l3 1h-2c-2 0-2 0-2 3s0 3 2 3c2-1 3 1 1 3h-2l-1-2c-2 0-2 1-1 3l-1 2v-2l-2-1v1c1 2 1 5-1 4l-2 1c1 3-5 9-10 10-4 2-6 5-2 4 2-1 3 0 1 3l-3 2h-3l-3 1c-1-1-2 0-3 1-2 2-3 3 0 3v2a21 21 0 01-13 6v3c-2 1-2 1 0 2 3 0 3 2 0 2s-3 2 0 3l3 1H6c-5 0-6 3-6 20v16h4c3 0 4-1 4-2l-1-1-2-1 2-1 1-1 3-1 3-1a5 5 0 00-7 0l2-4 2-2 1-2c2-1 3-3 3-5 0-5 4-7 9-5h5c1-1 1-1-1-1-3 0-3-2 0-3 2 0 3-3 0-4-1 0-2 0-3 2-1 1-2 2-3 1v-1l2-1 2-4 3-2 1 2 2 3 2-3 3-3h-3a2 2 0 00-3 1 12 12 0 0112-9c-2 0-2 0-1-3 1-2 1-2 3-1 1 2 3 0 1-1-1-2 1-5 2-4l1-1 3-3 3-2 3 1c2 2 3 4 2 5l1 2 1 4c0 4 0 4-3 4l-3 1 2 1c4 0 5 1 3 3s-2 2-1 3c2 0 0 2-2 2-4 0-2 3 2 4l4 1v-4l1-3 1 1c0 4 2 7 5 7l2 2c0 3 0 3-3 2l-3-3-2-1-2 1c0 3 2 7 4 7l1 4-1 4-2 1h-1c-1 0-3 5-2 8 0 2 0 2-1 1-2-3-3-3-4 2l-1 2c0-2-3-2-5 1-2 2-3 1-3-1l-1 1v7l1 3c0 2 0 3 2 3 3 0 2 1-1 3-3 1-3 1-3-3l-2-6v-2c1-1 1-1-1-2-2-2-4-2-4-1l1 1c1-1 2 1 1 2v4l-1 6c0 6 0 6-1 4l-4-2-2-1h3c2 0 3-1 3-3s-1-2-2-2c-3 0-5-2-5-4l-2-2-3-3-2-1-1 4 1 5-5-1c-2 0-3 0-2 1l2 1c-1 2-11 1-12 0H0v54h8l-4 1H0v33l3-1c5 0 5 1 4 4 0 3-2 4-2 1l-1-2-1 3c1 3 0 6-2 5-1-1-1 14-1 56v57h131c117 0 132 0 131-1a1 1 0 112 0c0 2 14 2 15-1l-1-3c-1 0-2-7-1-8s3 3 3 7l1 6h17c16 0 18 0 18-2h2c2 2 9 2 98 2h97v-94l-1-93v23h-4l-4 1h4c4 0 6 3 2 3l-4 1v1c2 0 2 0 1 2l-3 1c-4-2-5 2-1 5l1 1c-1 0-2 0-2 2h-1c-2-1-5 0-5 3l-5 1c-4 0-4 1-4 4l-1 3h-1l-2-1-2-1c-1-3-9 2-9 5 0 2-3 4-7 3-2-1-3-1-4 1l-3 2-2 1c1 1 0 2-2 2-6 2-8-2-3-5l3-3 2-1c2 0 8-5 12-9l5-4 2-1 2-2 1-2 6-7 7-9c1-2 3-3 3-2v1c-1 2-1 7 1 8l1-8c0-7 0-8 2-10l1-3 3-4 5-3 2-6 3-3v5l1-31c0-40 0-42-3-39l-1 3v3l-1 4c-1 6-1 7-3 7a8 8 0 01-5-1c2 0 1-2-1-2l-3-1h-1c-2 1-1-7 2-13 4-8 6-10 11-10h4v-8c0-7 0-9-2-9l-2 2-1 2-9 7-5 4-3 3-2 1h-1v2c2 2 1 3-1 3-4 0-5 2-4 7l-1 5-2 4-1 5-1 2c1 3 0 5-4 5s-5 3-2 7l2 2-1 2-1 1-2 4-3 3c-1-1-2 0-2 1l-3 13-1 4-1 3-1 1-1 1-1 4a4 4 0 01-7 2v-2l-1-2c0-2 0-2 2-1 2 2 4 3 4 1 0-1-3-4-5-4-1 0-3 4-2 6l-1 2-1-3-1-4c-1-2-1-2 1-1h3l-2-2-2-2 2-2 1-2v-1l2-8 3-10 2-9c1-11 4-18 10-24l5-7 5-7 6-7 2-1 1-1 4-5a16 16 0 004-7l3-5 3-5c3-1 7-5 7-6l2-1 2-1 3-1c2 1 2 1 2-5s0-6-2-5h-3c0-2-5-3-7-2l-3 1h-2l1 2v1l-1 3c0 2 0 2 1 1 0-3 3-2 3 1l-1 3-4 1c-4 1-6-5-3-9 4-3 4-4 1-4-2 0-3 1-3 2l-5 7c-4 4-6 6-7 9l-1 4v11c1 2 0 3-2 6l-3 5c0 2-2 1-2-2-1-1 0-4 1-5 2-4 3-7 1-7s-5 3-5 5l-3 1c-5 0-6 1-3 3s1 4-2 2c-2-1-5 0-5 1l-2 3-2 2h2l2-1a3 3 0 013-1c-2 0-1-2 1-2 6 1 3 5-4 6-7 0-9 1-10 4 0 2-1 3-2 3-3 1-5 4-3 5v2c1 2 0 7-1 7-2 0-2-6-1-8v-1l-2 3c0 3-2 3-3 0 0-2 0-2-3-1-1 1-2 2-1 3l-1 2a1 1 0 101 2c1 0 1 1-1 4-1 2-2 4-1 6 1 1 0 2-2 4l-3 4-1 1-2 2c0 6-10 12-10 6v-2l-2 2-3 2c-2 0 1-5 5-7 2-2 3-5 1-5v-1c2 0 3-3 5-8l3-8 1-3a90 90 0 013-9l1-5 1-6v-7c2-2 3-3 1-2-1 0-1-6 1-10l1-6c0-3 2-7 7-10l4-5 2-2 1-1 2-1c1 1 2 0 1-1 0-1 1-2 5-2l2-2c1-1 5-2 12-2l1-1v-2l1 3c-1 5 2 1 3-4 0-3 2-4 5-4l3-3c3-2 5-1 3 1-1 1-1 2 1 4h1c-1-1 0-1 4-1 3 0 4 0 2 1l-1 1c3 1 5-1 5-5s-2-7-4-5v1l2 2-4 1c-5 0-6-3-2-5l2-2c-1-2 1-3 2-1l2 1c2-1 6 3 6 8l-1 4v2l1 2c2-1 2-1 2-6 0-2 1-3 3-4 5-1 5-2 2-6l-2-4c2-1 0-3-2-3l-1-1 3-1 3-1c0-2 2-3 2-1s4 7 6 7l1-4v-4l1 5a38 38 0 000-15l-1 1v-3c2-3 3-186 1-189-1-3-2-2-4 2-3 5-13 15-13 12v-2l1-3v-4l5-6 4-5 1-1c3 0 8-23 5-24l-3 4-4 5v1l-3 6-1 1c1 1 0 3-1 4-2 0-3 2-4 4l-3 2c-2 0-7 4-6 6l-2 2-3 3c0 1 0 2-1 1l-3 2c-3 2-4 9-1 11v2l-1 3c0 4-5 9-10 9l-1 1 1 1c2-2 2 1 0 3v1c1 0 3 7 1 8l-3 8v1h-4c-1 3-3 2-3 0h-1c-1 4 3 8 5 4h1a8 8 0 01-5 7l-1 2v-1l-2-2 1-1c2-1 2-1 1-2l-1-2c0-2-2-3-2-1l1-11c2-7 5-14 8-17l3-6 1-3c1 0 3-6 2-7l1-1c2 0 4-5 4-8l-1-2c-2 0-9 7-9 9l-2 1-2-2-1-2-1 3-2 4-1 3c1 2 0 2-1 2-2 0-2 0-1 2 3 2 2 6 0 4-2-1-6 1-4 2a17 17 0 01-3 10l-1-2-1-2c-3-3-6-1-5 2l-2 1-6 3-5 4c-1 0-2 1-2 5s0 5 1 4l3-1 2-1c0-1 6-7 8-7l2-1a2 2 0 013-2v6l-1 2-2 3-2 4c0 3-1 4-2 4-2 0-3 1-1 3 2 1 1 5-1 6l-3 4-1 2-1 1-3 5c-4 3-4 8 0 10l1 2-1 4-1 3-1 4c1 8-2 7-4 0l-1-4c-1-1-2 0-1 1l-1 2-1 2-1 2v-13l-2-2v-8l1-4 1-4c1-1 2-4 1-5l-2 1-3 1h-1l-1 1c-2 0-4 4-3 6l-1 2-1 2v2c-3 0-6 6-6 10s3 9 5 7l-1 1v4l-1 8v2c3 1 2 5-1 4l-2 1a5 5 0 01-9 1c-2 0-4 7-4 8a2 2 0 01-4-1c0-12 0-11 6-29l3-11 1-2 1-1c0-2-2-2-3 0h-1c-1-2-2-1-4 1-3 2-3 3-2 4 2 2 3 4 1 4l-1-1a2 2 0 00-4 0l-1 2-1 1-2 3-4 5-3 3-1 2-2 1-4 2h-6l-3 1c-3 0-6 7-4 9s1 3-2 4l-3 2c1 5 0 7-2 7-2-1-2 0-2 1s0 2-2 2c-3 0-3 1-2 2 0 1 0 2-2 2l-1 1v4h2l1-2c2 0 1 3 0 3-2 1-3 6-1 6a8 8 0 007-3l1 2-1 1-2 2c0 3-3 3-9 2s-7-2-5-4c1-1 1-1-1-1s-2 0-1 2c0 2-1 5-3 5l-1-2c0-2-2-4-3-2h-4c-3-2-5 0-3 3v3c-2 1-2 1-2-1 0-3-4-4-6-1h-4l-5-1h-1l-1 3c-2 1-2 1-2-1l-2-2-1-2 1-3v-1c-1-1 0-5 3-6l1-2 2-4 2-4c0-2 3-3 4-2v-2c-1-1 0-2 2-4l2-6 1-2 3-4c1-3 8-10 12-13l15-13c5-5 14-18 14-19 0-3 3-7 5-8l3-3 2-1 1-1 4-3a29 29 0 0014-9l5-4a40 40 0 0115-11l6-6a157 157 0 0026-25c1 0 7-6 7-8l5-7a37 37 0 006-10l5-10 1-2 2-3c0-4 3-8 5-10l1-2a65 65 0 0120-15l21-12c14-6 13-6 14-12 0-5-1-7-3-3l-2 2-3-1c-2 0-1-3 2-4 6-2 6-3 6-15s0-12-2-11c-2 0-3 1-3 2l-4 1c-3 0-4 1-4 3l-2 3-4 2-3 1-6 4-4 4c-1-1-1 0-1 1l1 2h1l-1 1c-3-1-6 1-5 3 0 2 0 3-2 3l-2 3-1 2v-4c0-3 3-6 7-8v-1c-2 0-2 0-1-2 1-5 4-12 7-14l3-5 1-2c2 0 9-11 9-14l3-3c3-2 3-3 0-3l-3 2m-122 7a3 3 0 00-2 3c-1 1 0 3 1 3 3 2 2 3-1 3s-5 5-2 6c2 1 1 3-1 3a3 3 0 00-1 4l-1 10c-1 2-6 3-7 0-1-1-4 0-4 3l-1 1-2 3-1 4-2 4c0 4 0 4-1 3l-1-1c0-4 0-5-2-5-3 0-8-5-7-7 0-1-2-2-4 0-2 1-4 6-4 9v1l-2 4c0 5-3 8-7 5-2-1-4 0-4 2l-1 2-1 4-1 4c-1 3-3 12-2 13v8h-3c-1-1-2-2-1-3l-1-2c-2 1-2 0-3-1l-1-1-2-2c-1-5-6-2-6 4l-2 2v2c2 2 0 8-2 9-5 3-5 4-1 5 3 2 3 2 2 3-2 1-2 2-1 2 1 1 0 2-1 3-3 1-3 1-1 3l8 5 4 2c3 3 7 2 6-2 0-1 0-2 2-2l2-3c-1-1 0-2 2-3 3-1 3-1 1-3-3-4 5-12 9-9l4 1c3 0 4 0 4-3l1-2 1-2c0-2 3-5 5-5l1 3 2 1 2-1h1c1 0 2-1 2-4l-1-4 2-2h5c1 2 1 2 2 1 0-1 1-2 2-1l1-3c-1-2-1-3 1-5l2-3h3c1 2 4 1 4-1s2-5 4-5c1 0 2-9 1-11-1-1-1-3 1-6l10-18c0-1 1-4 3-5l3-6 5-7c5-5 6-8 3-8a6 6 0 00-7 6l-2 3h-1l-2-1-2-2-3-1c-3 1-3 1-4-2l-1-2v-4l-2 1m-315 9l-4 3c-4 0-4 5-1 5 2 0 8-6 8-8 0-3-3-3-3 0m-21 3l-2 2v6l-2 7c-3 3-2 3 3 4 3 0 4-1 3-3v-12c3-5 3-6-2-4m17 12a7 7 0 001 6h1l8 1v-3c1 0 1-1-1-1s-3-1-3-3-4-2-6 0m33 0v5l1 7v5c-2 3 0 6 3 6 2 0 2 0 1 2s-1 2 2 2l3-1v-5c1-2 0-4-1-7l-1-5-2-4-2-4-2-2c-3-1-3 0-2 1m108 5l-2 4-1 2c-2 0-4 3-3 6v4l4-5 2-3c6-5 8-9 6-9l-2-1-4 2m301 12l-3 3c-2-1-6 2-6 3 0 2 1 2 4 0 2-1 3-2 4-1 2 2 6-2 4-5-1-2-1-2-3 0m-62 8c-3 4-6 10-5 11s2 0 4-2l4-3c3 0 5-3 3-4l-2-3c0-2-1-1-4 1m48 2l-6 4-4 2-1 1-1 1-4 3-4 3-3 2-2 1-9 5a180 180 0 01-25 15l-7 4c-8 4-9 5-10 8l-1 3-1 1-11 15c-2 0-23 22-29 30s-14 16-18 19l-9 5-12 6-10 3-14 8c-2 1-6 3-7 5l-4 3-7 10-1 1-2 4c-1 4-15 21-18 21l-4 4-7 5-4 3-3 4-2 4-2 1h-2l-2 2-2 2-2 3c-1 1-2 2-1 3l-3 2c-2 0-3 1-3 2l1 1h1l-2 3-2 3-1 2c-1 1 0 1 1 1l2-1 2-1c2 0 1 3-1 4-5 1-4 6 1 6h4l-4-1c-4-2-3-3 1-3 2 0 3 0 3-2 0-3 3-3 4 0v4c-2 4-1 7 3 6l3 1 1 2 1 1-2-1c-2-1-2-1-2 1s3 3 5 1v-5c-1 0-2-2-2-8 1-7 2-10 3-6 1 3 5 3 5 0 1-3 3-2 3 2 0 3-1 4-2 4-2 0-4 3-2 4l1 2h2l2-1 1-1 2-1c2 0 6-5 5-8 0-2 0-2 5-3 4-1 3-7-1-8-2 0-3-1-3-2 0-2 0-2 2-1h1l2-1 1 2 3 3c4 1 4 1 4-1l1-3v-3l-1-3c-1-1-1-3 1-3l1-3c0-1 0-2 1-1 0 1 1 2 3 2 3 0 3 0 2-2-2-2-2-2 1-2 4 0 9-7 6-8l-1-6a3 3 0 115-2c0 2 2 0 2-3 1-1 0-2-1-3v-4l2-2 3-2c-1-3 6-9 8-8 1 1 4 0 4-1l-3-1c-3 1-7-1-4-2l1-1c0-2 3-3 4-2h3l-1-1h-1c-1-1 7-3 8-3l3-4 3-5c1 1 2 0 3-2l2-2 2 2c2 2 3 2 4 1v-3l-2-1h2c2 0 6-3 6-5l2-1 4-4 2-1 4-4 6-7a11 11 0 005-7c1 1 6-3 10-9l4-3v-2c-1-1 0-2 2-3l3-3 2-2 1-2c-1-2 1-3 7-4l1-3c0-3 0-3 3-3l2-1h4l4-1 1-2 1 1 2 1 1-1 2-2c2 0 3-3 1-3-1-1 0-5 1-5l1 1 1 2h4c1 1 2 0 4-4a7 7 0 015-6l-2-1c0-2 7-8 9-8l3-2 3-3 5-4 3-3s2-1 2-3l4-5c3-2 3-3 3-5v-1h3l4-1c2 1 3-4 2-6h2c4 0 7-1 7-4v-2l2-1c1 1 3 0 10-4 4-2-7-1-11 1m-375 3l1 5-4-1c-13 0-15-1-18-2-4-1-6-1-5 1l10 2c12 3 20 7 20 12l2 2c2 2 1-1-2-6l-2-9v-5l-1-2c-1-1-1 0-1 3m287 15l-4 4-2 2 2 1c1-1 1 0 1 2l-1 3-1 2 1 2 1-2 1-3v-1l1-3v-1l2-2 2-4h-3M76 327h-2l-2 1c2 2 0 5-2 4l1 2 3 5 3 3c4 0 6 6 3 8l-1 2h-4c-4-2-4-4-1-5l3-2-4-1-4-2-1-1-1 2v1l2 1h-3c-3 0-4-1-4-2l-2-2c-3-2-3-1-1 1 2 3 2 6 0 6l-2 1c-1 4-3 3-3 0 1-3-1-4-2-1h-3c-1 1 6 7 7 7l2 1c1 2 5 1 5-2 0-1 5 0 8 2l4 1c2 0 2 1 2 2 0 3-3 6-7 6l-2 1-2 1-3 2c-5 3-5 0-1-4 1-2 3-3 5-3l4-1h2l-3-2-2-2c-1-2-3-1-3 1s0 2-2 1l-2 1c2 2-1 1-4-2-6-4-9-4-5 1l1 2c-1 0-6-5-6-7s-7-1-8 0l-4 2-5 1h-3l3-4c2-3 2-3 1-4v-1l1-1-3-1-9 2-6 2-3 2-4 1H4c-3-1-3-1-3 1s1 3 2 3c3 1 4 3 1 3H2l-1 84c0 87 0 91 4 86l1-1-2 3v3c3 1 2 2 0 2-3-1-3-1-3 1 0 3 2 4 4 1h2c2 2 2 5 0 4l-1 1H3c-3-2-3 16 0 19l3 1 7-1 6-2 4-2h2c1-2 6-1 6 0l-2 1h-1l-1 3v3c1 1 13-10 13-13l4-5 7-9 6-9 3-4 2-2c1-1 2-4 0-4l-1 1c0 3-4 4-6 2-1-1-1-1 1-1 1 1 2 0 3-2 1-3 7-7 10-6 1 1 4-2 11-9l14-13 3-4h2l1-1v-1l5-4a32 32 0 0112-11c0-1 6-7 8-7l4-3 2-2 15-10 6-3 6-2 4-2 4-1 2-1 9-5 8-5 7-3 6-3 7-3c1-2 12-9 13-9l4-3 8-7 8-7 4-3 3-3c1-2 3-3 3-2l2-1 1-2 3-2 2-2c2 0 11-9 9-10s-1-2 2-2h4c1-1 0-1-3-1l-4-1h3c3 0 4-1 1-3h-5c-2 1-4 2-5 1-1 0-2 0-1 1 0 2-4 2-6 1-1-1-2-1-2 1h-1l-1-2c-2 0 0 4 2 4l3 1-1 6c-2 2-3 1-2 0 3-2 1-5-2-5-2-1-3 0-3 1 0 2 0 2-1 0h-2l-2 2c-2 1-2 1 0 2v1c-4 0-3-3 1-7l4-6 1-2 1-2c-1-1-4 1-5 3 0 3-2 7-3 7-2 0-4-3-3-3l1-4a4 4 0 013-5l-2-1-2 1-1 4c1 4 1 4-1 4s-3-3-1-5c2-1 0-2-3-2-2 0-2 0 0 2a1 1 0 11-2 2l-4-2c-2 0-4-6-3-8v-3c-1-1 0-2 2-4 5-3 7-8 4-8l-1 2-2 2-1 1-3 1c-2 0-2 0-2-2l2-2a1 1 0 10-1-2v-1l2-1c1 1 1 1 0 0s-5-1-4 1h-2c-2 0-2 0-1 2 1 1 2 2 1 3l1 1a1 1 0 110 2l-2 1 1 1c3 0 6 12 3 14-2 0-1 2 1 2 1 1 2 2 2 5 1 5 0 6-2 5-6-1-10-7-8-11l-1-2-1 3c0 2 0 2-2 2-6-3-13-4-13-3l6 1 1 1 3 3c4 2 5 3 4 4s-5 0-6-2l-2-1 1 2 1 4h-1c0-2 0-2-1-1h-8c2 2 1 3-1 2l-4-2c-1-3-3-2-1 1 1 2 1 2-1 2l-2 1a2 2 0 01-1 3l2-1c1-2 3-2 8-2a16 16 0 009-2l6-1c4 0 4 0 6 3 2 4 3 6 0 6-2-1-5 2-3 3v3l-1 3-3 1h-2l2-2c3-4 3-6-1-7l-4-1-2 1v2l1 1-3 1c-6-1-9 0-9 2s-2 1-3-1h-6c-3 0-3 1 1 4 1 2 2 2 3 1l2-1c2 0 2 0 1 2-2 2-8 1-8-1-1-2-1-2-2-1l-1 1-4-1c-4 0-5-1-3-2s0-5-3-5-4-1-2-2l1-1h-3l-4 2c-3 0-7 4-5 5 1 1 0 1-2 1l-3 3-1 1h-1c0 2-3 1-4-1 0-1-1-2-2-1v-3c1-3 4-3 4 0-1 2 2 2 4-1h1l1 1v-6l1-1c0-3-2-2-2 1l-2 2-1-2-1-2c-2 0-2-6 1-6l1 1h2v-1l-1-2 2 1h5c0-1-3-2-7-2l-3-1h-1l1 2c1 1 1 1-1 1-3 0-3-5 1-7v-3l1-1 1 1c1 2 7-2 7-4s-11-2-13 0h-3l-1 1c-1 0-2 1-1 3l-1 2c-1 0-2-1-1-2l-2-3c-1-2-1-2-1 0 1 3 0 4-2 1a3 3 0 10-2 4c3 0 3 0 3 3s-1 3-2 3l-3-1v-4h-3l-2 1c0 1-1 2-2 1-3 0-3 0-3 2l-1 2-2-2-1-1-1 2-1 1h-4c0-2 3-6 5-6l1-1 3-3c2-1 3-2 0-4l-1-1c1 2-2 2-3 1l-8-1-4 2c0 3-3 3-3 0s12-7 17-7h6l8-2c2 0 3-1 3-2h-1l-4 1-7 1-4-1-1-1-2-1 1-1a1 1 0 10-1-2l-4 1c-4 1-5 3-1 3s5 2 0 3c-6 2-7 2-6-4 0-5 0-5-2-4-2 0-2 0-1-1 2-1 3-3 0-2l-2-3-3-4-1 1v2c-1 1 0 2 1 3 2 2 2 2 0 3-2 2-6 1-4-1l-1-2c-2 0-2-2 0-4v-3l-1-3c1-1-1-4-2-4v8c-1 4-3 5-4 2l-1-2-1-3 1-2c1 1 2-1 1-3h-1m147 36c-2 0-3 6-1 8v3c-4 0-4 10 0 10l1 1v1l1 2c0 2 0 2 2-1 2-4 3-7 1-4l-2 1c-1-1 3-4 5-3v-3c0-4 0-4 2-4 1 1 2 1 2-1 1-3 0-4-3-4l-2-1c1-1-4-6-6-5m-179 5l-1 2c-3 1 0 3 7 4 4 0 6-2 2-3l-2-3a3 3 0 00-6 0m87 3l2 5v4l-1-2c0-2-2-3-4 0-1 1-1 1 0 0 2-1 2-1 2 1l9 4a6 6 0 00-1-8l-1-2-1 1v2c-1 3-3-1-2-4a2 2 0 10-3-1m40 27v4l2-2c1-2 2-1 2 3v2c-1-2-2-1-1 2a6 6 0 01-1 7l2 1 1-2c0-2 1-2 4-2a3 3 0 015 3c1-1-1-5-4-6-2-1-3-4-1-4l1-3c0-3-1-4-5-4l-5 1m280 68l-9 7-7 4-2 2-2 1a86 86 0 00-20 24l-1 1-1 3-2 3-4 8-4 8c1 1 0 2-1 2l-2 4-2 3c-1 0-3 2-4 5s-3 7-5 8l-2 6-2 4c-2 0-2 1-2 3l-1 3-2 3-1 2v3c0 4 7 4 9 1 1-2 0-6-1-6l3-1c3 0 3-1 3-4l1-3 1-2v-2c1-1 1 0 1 1 0 3 0 2 1-2l2-3 1 1v3l1-4c-1-4-1-4 1-5l2-2c0-2 1-3 2-3 2 0 3 0 3-2l2-2 3-2c2-2 5-3 5-1h1l-2-3c-4-3-4-4-1-4 2-1 2-1 1-3l1-2c1 1 2 0 2-1l4-3 3-3 2-3c1-1 1-1-1-1s-2 0-1-1h3c2 1 6-1 4-2v-5l1-1c-1-2 3-5 4-5 1 1 3-2 3-7 0-2 0-3 1-2 0 1 1 2 2 1s0-4-1-4l-1-3-1-3h1l2-1 2-1 1-2c-1-2 0-3 2 0 2 2 10 1 10-2l-6-1-5-1h5c2 0 3 0 2-1v-2c2-3 0-4-2-3m-85 12l-2 2v2l-1 3v2l-1 1v4c1 0 2 1 1 2l1 5 1 4c-1 1 0 2 1 2 2 0 3-1 3-2 0-5 1-9 2-9a3 3 0 001-6l-1-4v-7c1-1 1-1-1-1l-4 2m124 7l-2 2-2 3v3l1-1v1c0 3 0 3 1 2l3-2 2-4 1-5c1-3-3-3-4 1m-87 1l-1 2a2 2 0 01-2 2l-1 1-3 2-1 2-1 2c-3 2-3 3 0 3 2 0 4-2 4-4-1-1 2-3 4-4l2-4c0-3-1-4-1-2m-209 9l-2 1-1 1c1 1 0 2-1 3s-1 2 1 3l3 2h-3c-4-1-8 1-10 4-2 4-1 5 2 5s4-1 2-2v-1l12-3 2-3c-1-1 0-1 2-1h1l-1-2c0-2-2-3-3-2l-3 1v-5l1-1-1-2-1 2m153 4c0 2 1 3 2 3 2 1 2 1 1 3-3 5-1 7 6 7 2 0 2 0 1-2-3-3-3-5-1-8 2-4 2-7-1-5l-2 3-1 1-1-2-1-1-1-2c-1 0-2 1-2 3m40 4l-9 7a41 41 0 01-11 8l-1 2 1 2c0 2-2 3-2 0l-3 4-3 3a3 3 0 00-1 6c2 2 2 3 1 3l-4 1c-1 2-1 2 1 3v2l-3 2-1 2h-1c-1 2 1 4 3 4l1 2 3 2 4 2 1-2 3-4 4-2c2-2 3-3 4-2 2 1 3 0 2-3 0-2-1-3-3-4s1-3 3-3l4-2c1-2 3-3 5-3l2-1-1-1c-2 0-3-2-1-2v-11c1 2 2-1 2-4-1-2 1-3 2 0h1l2-3c2-3 3-4 1-4l-1 2h-2l-2-3 2-2 2-1h-5m-237 10l-9 6c-3 1-4 6-2 5l1-2a1 1 0 113 0c0 2 0 2 1 1 1-2 7-3 8-2 2 2 5-2 4-6 0-3-3-4-6-2m60 2c0 3 0 4-2 4-2 1-2 1 1 1 1 0 2 0 1 1-2 0-3 3-1 4l3 3 3 2c2 0 1 2-2 3l-3 1h3c3 0 4-1 4-5l1-5c2-2 1-4-2-4-4 0-4 0-4-3l2-4v-1l-2-1c-1 0-2 1-2 4m139 0c0 2 0 3 3 3l5 1 4-1c2-3-1-5-6-5h-4l-1-1-1 3m-175 2c0 2-1 3-2 3v2h5c1 1 8-5 7-5l-5-2c-4-1-4-1-5 2m-139 9l-3 1-3 1-8 2a9 9 0 00-7 3l-4 2c-1 1-1 1 1 1h2l2 1h1c0 2-3 3-4 1l-2-1 1 2c2 1 3 2 5 1l6 1c3 1 3 1 6-3s3-4 0-4l-3 2-1 2h-1l-4-1c-1-1-1-1 2-1l3-1c0-2 7-4 8-3 2 2 5 1 5 0-1-2 0-2 5-1 3 2 4 4 2 4l-2 1-2 1c-1-1-5 1-5 3h2l1-1 2-1c5 1 8 0 8-2l-1-2v-3c1-1 1-2-2-3l-4-2h-6m101 1l-1 2a116 116 0 00-32 24l-2 6v1l1 1-3 2c-2 1-4 2-4 4h8c1 1 1 0 1-5l1-7 1 1v3l1 5a3 3 0 105 2c0-3 0-3 5-3l4-1c0-2 1-2 4-2h3l-2-4c-2-2-2-3-1-4l-1-5c-3-4-3-4 1-4 3 1 4 0 5-1l2-2c2 1 2 1 3-3 1-2 1-3-1-3-2-1-2-1 1-2 4-1 5-3 3-5h-2m287 9l1 2-1 2c-1-1-3 0-4 1-2 1-1 1 3 1l2 1c0 1-2 3-4 2-2 0-4 1-4 5v1c1-3 3 0 3 5l1 6c1 2 1 2 2 0l4-3c4-3 4-5 1-6l-3-2h-1c-2 0-3-2-1-3l1-1c0 4 3-3 3-7 0-5 0-5-2-5-1 0-2 0-1 1m-226 2c-4 2-4 2-3 4l2 5c0 2 0 2 2 1l4-3-2-1c-3 0-4-1-2-3l3-5-4 2M23 550h-4l-1 2c1 2 1 2-1 2-1 0-2 0-1 1 0 2 5 1 5 0 0-2 2-2 5-2 1 0 2 0 1-1l2-1 1 2c0 3 2 4 5 1l2-2h-2l-4-1c-1-2-3-2-8-1m132 6l1 4 2 3 2 4v-5l-1-8-2-2c-2 0-2 1-2 4m256 2v3l-1 4h-3v3c-3 0-3 3-1 5 1 1 1 1-1 1l-3 1 1 1v2l-1 4c-1 5 4 1 6-4l2-2 1-4 1-4 1-2c0-2 3-5 3-3h1c0-3-4-6-6-5M24 568l-1 1-2 2h-2c-2-2-3-1-3 1l1 2v1c0 1-1 2-3 1-1 0-2 0-1 1 2 1 1 2-2 5l-3 3c0 2-3 4-5 4s-2 1-2 5v4l3-4 3-4 1-1c0-1 2-4 6-6a20 20 0 006-7l1-1 1-3c2-1 4-5 3-5l-1 1m69 4l-2 4-1 2c-2 0-3 2-3 5l5 1c4 0 4 0 4-3l-1-3-2-1 6-1c5 0 5 0 5-3 0-2 0-2 1-1h3c1-3-1-4-3-2H95l-2 2m101 9c1 5 2 6 5 4 2-2 2-5 0-5l-1-2c-2-4-4-2-4 3m178 4c-1 4-1 5 1 6v3c-2 1-3 6-3 6l4-2c3-1 3-2 3-5-1-4 0-5 5-4a4 4 0 00-1-7l-6-1c-1 0-2 0-3 4m-288 1l-3 4c-2 1-5 4-6 7s-3 5-4 5v2c2 2 1 4-1 4-1-1-2 0-4 2l-5 8c-4 5-5 6-3 6l2 1 2 1v-2l-1-2c2-1 3 2 3 6v2c0-1 1-2 4-2 4 0 4-1 0-3-2-1-2-1 2-1 5 1 8-2 4-4l-2-2c0-2 7-8 8-7l2 1v-3c-2-3-1-5 3-4 3 0 3 0 3-2s1-3 2-3v-1l-2-3c0-1 3-1 4 1l3 1a3 3 0 000-6l1-2c0-3 0-3-3-3-5 0-7 1-7 3l-1 2v-8l-1 2m94-1l-5 1c-3 0-5 0-6 2l-3 3-1 7-1 4c0-2-2-3-2-2l-2 5v3c2-1 2 3 0 4l-3 4-2 4 2 2c2 1 2 1 1 2l1 1 4 4 3 3c2 0 2 0 1 1s-1 2 1 3c2 2-1 4-4 4-1-1-3 0-4 1-3 3-3 4 0 4l2 2 1-1c2-3 4-2 3 2 0 5 1 7 3 6 4-4 7-3 8 2l1 4v-4c0-3 1-4 2-4 1-1 2-2 2-5 0-4-2-6-4-4l-4-7c-1-4 0-6 2-8 1-1 1-1-1-2s-2-1-1-2h2l2 1c2 0 2 0 1-1l3-1 4-2 1-2v-4c1-1 2-2 1-3l-1 1c-1 1-1 1-2-1 0-2-1-3-2-3v-6c3-2 2-9-1-9-3 2-3-1 0-5l3-5h-2l-3 1m38 0c1 1-1 2-4 2-7 0-6 2 1 3h6v-3c0-2-1-3-2-3l-1 1m5 5a9 9 0 01-9 3v1l1 3c2 1 2 1-1 2l-3 2h6l9-4a2 2 0 100-5c-1 1-2 1-1-1l-1-2-1 1m144 18c-6 2-8 4-4 4l3-1c3-1 4 0 3 2v2l3 2c2 2 2 2 3 1l3-1 2-1-1-1c-2 0-5-5-5-7 1-3-1-3-7 0m-196 7c-2 1-3 4-2 6v4c-3 2-2 4 0 6 2 1 2 1 1-1l2-1 2-2-2-1h-2l1-1 1-1c-1-4 0-5 3-5l2-1c-1-2 0-2 3-2l4-1h-13m191 2l1 2c4 3 0 15-6 16-1 0-4 6-3 7l3-3c3-2 3-2 4-1 0 3 1 2 3 0l2-2 1-2c0-2 3-6 3-4h2l-1-2v-2c1-1 2 0 3 1 1 2 2 1 1-3 0-2-1-3-3-3s-3-1-4-3-6-3-6-1M79 629c0 3-3 5-3 2h-8v1l1 2 5 1c7 0 7 0 6-5-1-4-1-4-1-1m78 1c2 2 1 4-3 2-2-1-3-1-2 1l-2 2v3h5c3 0 9-4 6-5l-1-2c0-1-1-2-3-2s-2 0 0 1m-93 9l2 1 1 4c0 3 0 4 2 4s2-1 2-4 0-4-2-4l-2-1a2 2 0 00-3 0m283 8l-3 4c0 2-1 3-4 4-4 0-4 1-2 9 0 3 3 1 4-4 0-3 1-4 3-4l2-2 1-3 1 3c-1 3 1 3 1-1 1-3 0-8-1-8l-2 2m125-1v1l-1 1-1 1c0 2-3 5-5 4l-1 1c0 2 1 3 2 1h6c6-1 8-2 8-6 0-3-4-5-8-3m24 23v9c0 3 3 3 5-1l2-3c1-1 1-1-1-1s-3 0-2-1l-2-5-2 2m-328 9l-2 2c-2 0-3 2-3 4s3 1 6-2c3-2 3-2 4-1h1c-1-1 0-2 2-3 4-1 4-2-2-2-5 0-6 0-6 2m-9 9v1a3 3 0 011 4l-2 2-1 2c-3 0-4 3-2 5h6l3-2c-1-1 0-7 2-9 2-1 1-2-2-2-2 1-3 0-4-1h-1m33 1c-19 5-24 15-7 14 13-1 25-7 23-12-1-4-6-5-16-2m206 1l-2 3a11 11 0 01-5 10l-3 5-3 3-2 3v4l-2 1c1 2 3 2 3 0 1-2 1-2 3-2 3 1 5 0 6-4 0-2 1-3 3-4s4-5 3-8l1-2c2 2 5 0 5-4 1-5 2-7 3-5l2 1c1-1-2-3-4-2l-2-1c-2-2-4-1-6 2m78 3l-1 4-1 5c-1 5-1 10 2 8l1-3 1-2 3-4 2-3-2-2-2-3c0-3-1-2-3 0m-454 8c-4 2-2 3 4 3 5 0 6 0 6-2s-5-3-10-1m450 14l-1 4v3l1 3c0 1 1 3 3 3l2 4 1 3 1-5v-6l-1-2c-4-1-5-5-3-8 1-1 0-1-1-1l-2 2m-35 5l-2 2-3 4c-5 5-6 8-6 23 0 8 0 10 2 6a4 4 0 015-4h2c3 0 1-2-3-2l-4-1c0-1 4-3 6-2 4 0 7-1 6-3-1-3-4-4-6-2h-2l2-3 2-3 1-1c2 0 4 2 2 3v1h2c0-1 2-2 3-1 2 0 3-2 3-6 0-2-3-3-4-1 0 3-7 2-7 0-1-3 0-4 1-4l1 2 1 1v-5c2-3 1-6-2-4m-44 4c-1 2-3 5-3 8l-3 5-3 6-3 7-1 3-1 2c-2 0-4 3-3 6l-1 3-1 1 2 1h2c0 2 3 1 4-2v-7l2-3c-2-2 0-6 2-6l2-1 2-2 1-1 2-2 2-3 1-2c2 0 4-4 4-7l2-4c3-3 2-3-3-3-3-1-4-1-6 1M80 755c0 2 0 2-5 2l-5 1h1l1 2 8 1c5 0 7-1 4-1-4 0-5-1-2-3l2-2-1-2-1-1c-1 0-2 1-2 3m341 13a4 4 0 000 8l3-4 2-4-2-1-3 1m-389 7c0 2 0 2 6 2 4 0 6 0 5-1l-2-1c-1 1-1 0-1-1 0-2-1-2-4-2-4 0-4 0-4 3m402 16l-3 3c-2 0-4 3-4 5 0 1 6 2 7 1l-1-1c-2-2-1-3 3-3l4-1 1-2h-1l-2-1c-1-2-4-2-4-1M0 852c0 32 1 45 1 29a3555 3555 0 00-1-29m416-51c0 2-2 3-8 3-3 1-5 1-7 3l-3 3-4 1-5 2-3 2-2 1-4 1-2 1h-2l-2 1c-1-1 0-5 2-5l2-2c0-2 0-2-3-2h-1c2 0 4-3 4-4h-6l-5-1v4c0 3 0 4 1 3 3 0 4 2 2 4l-2 3c0 2-5 5-9 5l-1 1-2 2-6 2-11 2-1 1c-1 1-1 2-2 1l-2 1-2 4c-2 2-2 2-4 0h-1c1 1 0 2-1 2s-1 1 1 3c1 2 1 2-2 2-5 0-5 1-3 5 2 5 2 5 4 1 2-3 2-3 2-1l1 4c1 1 2 0 2-4v-6c1-1 4 2 4 4s0 2 1 1c0-3 1-2 4 1 4 3 4 3 4-1v-2c2 0 5-3 5-5l2-2 1 4c0 3 0 4-2 4l-2 1h8c2 2 5-1 4-5v-3h5c5 1 7 1 9 3l2 2v-3c0-3 0-3 4-3 3 0 4 0 4 2 0 3 8 3 8 0l2 3c1 4 1 5-1 7-3 4-3 4 1 4l3-1 2-2c4-1 5-2 4-4-2-3 0-5 2-4 2 0 2 0 2-2-1-3 2-4 3-2a5 5 0 007-1l1-1-1-2-1-3a2 2 0 00-2-3h-1l-5 1c-3 0-3 0-3-3l-1-6c0-1 0-2 2-2 3-1 5 0 3 1l-1 3c0 2 0 2 3 0l4-1v-4c2 0 2-2 2-6 0-5 0-6 2-6l2-1a1 1 0 112 1c0 2 0 2 1 1l2-5v-4h-5l-5 1m-57 30v2l-1 3c-1 1-1 1 1 2 1 2 2 2 2-2 1-5 3-5 4-1 0 2 2 3 2 1h1l2-2-1-2c-2-1-1-2 3-2 3 0 1-1-3-1-6 0-9 0-10 2m-52 29l-1 3h-2v4c0 5 0 5-2 5-2-1-2 0-2 3v3l2-2a9 9 0 0111-3v-1l-1-6c0-7-2-9-5-6m0 27l1 1c2 0 2 2 1 4-2 1-3 5-2 5l3-2c1-2 1-2 2 0v4c-1-2-2 0-1 3 2 6 7-1 6-7-1-1-1-2 1-2l2-3 2-2 1-1c-2-1-6 1-5 3 1 1 1 1-2 1l-4-1c0-2-4-4-5-3"
      itemprop="regular" tabindex="-1" style="fill-opacity: 0.9; fill-rule: evenodd;"></path>
    </symbol>
    <symbol id="-posters-1650604032675-bold">
      <path d="M32 1l3 4c5 4 10 6 10 4l-1-1-2-1 5-1c3 0 4 0 3-1l-1-3c0-2 0-2-1-1l-3 2h-2c0 2-1 2-3 0s-8-4-8-2m371 1l-1 3-3 1c-2-1-3-1-4 1l-2-1-3-2-3-1c-3-2-3-1-6 7l-3 6c-7 3 31-1 41-4l12-1 16 2c6 0 9 1 12 3l11 2h3l-5-2 2-1h10l8 1-1-1 1-2c2-2 3-2 10-2s10 0 6-1h-22c-4 1-7 0-7-1a6 6 0 00-1-5c0 2-2 1-2-1l-2-1c-1 1-3 0-4-1s-2 0-4 1c-3 3-3 5 0 6 4 1 2 4-2 3l-20-2c-1-1-8-1-14 1-2 0-2 0-2-2 1-2 1-3-2-5l-3-2h-12c-1-1-3-1-4 1M16 5c0 1-5 2-10 1-5 0-2 6 4 9 1 1 2 1 3-1 1-1 1-1-1-1-4 0-2-2 3-3 3-1 4-2 3-3V5c2 0 2-2-1-2l-1 2m305 4l-5 2c-3 1-3 1-2 2v1l-2 1c0 2-5 4-7 3s-3-1-4 1l-3 2-2 2-3 2-1 5c0 4 0 4 3 4 4-1 3 0-1 2h-4c-1-1-4-1-4 1l2 1h2c0 2-3 4-4 4l-8 4h-3c-2-2-1-3 2-5s3-5-1-3h-4l-3 1-2 2c-3 0-6 4-5 6h2v1l-2 2-4 3c-2 2-3 3-5 3-3 0-5 2-5 4l-1 2-2 3c0 4-6 8-9 8a5 5 0 00-5 7v2l2 3h-3l-3 2-1 5c0 5 1 5 3 1 1-2 1-2 2-1l6 3c4 1 5 3 3 9-1 2-1 2 2-1 5-6 6-9 6-14 0-6 11-17 17-15 2 0 5-2 5-4 0-1-8-1-8 1h-5c0-3 3-6 5-7l5-1c2-2 9-2 9-1s-1 2-3 2c-1 1-2 1-1 2h4c3-1 3-4 0-7v-2l1-2c-1-1-5 1-4 2l-2 1-3 1-4 2-2 2-1 1c-8 0 11-16 22-18l7-5 7-5c4 0 11-4 13-6l2-4-6 3h-6c-1-1 6-4 10-5 1-1 3 0 4 1h5l11-5 4-1 5-2h2c1 2 10 2 15 0l6-1c6 0 7-2 2-3l-3-1-4-4-2 3c-2 3-4 4-5 2-1-3-8-2-9 0-1 1-1 1-5-1l-6-2c-1 1-3 0-4-1l-3-1-2 1m99 19l-1 6c0 3 0 4-3 5h-5c-1 1-2 1-3-2-3-7-7-5-7 3 0 5 0 5-3 4-3 0-4-1-4-2 0-3-4-4-7-3h-4c-2-2-5-2-9 0h-3c-3-2-6 2-5 6 0 3 0 3-3 2-3 0-3 0-2 1 0 1 1 2 3 2l4 1 11 1h27c14 1 16 1 19-3h10c3-1 6-1 14 1 8 3 14 3 13 2l1-2c2-1 1-3-1-3-1 0-6-4-6-6l-6-3-4 2c-1 2-1 2-5-2-3-3-4-3-5-2-2 1-6-2-9-7-2-3-6-3-7-1m-66 6c-4 4-4 4-6 1s-6-4-7-1c-1 4-3 4-4 3-2-1-3 1-4 8-1 3-5 4-8 0-1-2-2-1-4 2-4 6-3 12 1 12 3 0 15-8 15-10s3-5 6-5l9-3 6-3c3 0 4-2 3-4-2-4-3-4-7 0m-51 10l-5 4-3 2c-2 2-5 2-7 2-5 0-6 2-3 3 4 2 4 6 0 5l-2 1h-2l-1 3c1 3-5 9-7 7l-2 2-2 2c-6 0-8 3-9 12l-2 17v3c2 0 6-8 8-15 2-10 7-19 10-19l4-2 3-2c3 0 13-11 13-13l6-7c4-4 6-6 4-6l-3 1m-96 16l-2 4-2 2-4-3c-5-6-8-4-8 4-1 3-4 7-6 7l-3-2-2-2-2 2c-3 3-4 7-2 9l1 3c0 2 4 2 11 0 6-2 12 1 7 3v4c0 2 0 3-2 3v1c2 2 1 7 0 5h-5c-2 0-2 0-1 2l2 2 1 2-4 1c-6-1-9 0-6 2l1 3c-1 1 0 2 1 3v2c-2 1-6 1-7-1-8-8-16-13-18-9a1 1 0 11-1-1c3-3-1-5-9-3h-3l3 2 2 5v3l7-1 8 1 2 2 3 1 12 9 10 4c7 1 12 5 10 9-1 2-6 2-7 0-1-3-2-3-5-3l-6-2c-3-2-5-3-4-1l5 3c7 3 8 5 7 9-1 3-1 4 1 5l2 2-2 2c-2 1-2 1-1 3 2 2 2 2 0 3h-2l-4-2c-2 0-2-1-2-2l-2-2c-3 0-5 0-4-1l-3-3-5-3-1-1v-2c0-2 0-2-2-3-3-1-2-3 2-6l6-2 1-1-2-1h-3c-1-3-9-5-13-4s-4 1-2 2c3 0 5 2 5 6 0 3-2 4-4 2l-3-2-1-1h-1l1 3 1 1 2 2c2 1 2 2 2 6s-1 6-2 4l-2-1-2-2c-1-4-3-4-3 0 1 2-1 3-2 0-1-2-2-3-6-3-3 0-4 0-2 1l3 3 2 3 1 2c1 1 1 1-1 1l-12 1c-8 1-10 1-11-1h-5l-4-1c-2-2-7-1-7 1s0 2-2 2h-5l-7 3c-6 2-4 3 3 2 14-2 17-1 6 4a16 16 0 00-8 7l-2 1-2 1-4 3-2 2v-2l-3 2h-2c-1-2-3-2-4-1-2 0-2 0-2-3 1-5-1-6-2-2l-1 3-1-3-1-2-3-2c-3-3-6-3-6 1l-3 4-1 5c0 3-2 5-4 3h-5c-2 0-3 0-4-3-3-8-11-8-11 0 0 3-4 5-5 1 0-3-3-3-5 0-3 3-5 3-5 0 0-4-3-6-4-3H8c0-2-2-1-3 2l-3 7a19 19 0 000 16l4 2c3 2 7 3 8 1 0-3 6-3 6 0 0 2 3 3 4 1l6-1c4 0 5 0 5 2 0 4 1 3 5-1 6-9 14-14 27-18a92 92 0 0026-13l9-6 5-3 14-2c12-1 19-2 24-4l21-5c4 0 12 3 12 5l2 1c2 0 8 3 10 6l6 6a24 24 0 0012 8l7 1c6 1 7 2 9 6l3 5c3 1 1 14-2 16-1 1-1 1 1 1 3 0 6-1 7-3 1-3 4 0 3 4 0 2 1 3 3 1l1-1 1-3c0-3 0-3-2-3s-3-1-3-2l-2-2c-1-1-2-2-1-4l-1-4-2-1-2-2c-3 0-4-3-2-3 3-2 6-1 7 1s2 2 3 2l16-5c-4 0-5-9-1-9 3 0-4-3-7-3-5 0-7-3-7-9v-10l-4 2c-7 2-14 2-14 0l2-3c1 0 2-4 0-4v-7l4 1c2 2 3 2 3 1v-1l3 1 2 1 3 2c2 2 3 1 6-4 2-5 2-6 2-12v-8l4-5 4-4-2-2c-2-2-3-2-4 0h-5c-2-3-5-2-5 1l-2 4v2c3 2 2 4-2 3l-4 1c-1 2-2 2-5-1-4-3-7-3-7-1l-3 3-3 1 3 1c4 2 4 2 0 3h-3v-1l-2-1h-1c-2 3-6 3-9 2-1-1-3-2-4-1l-3-1c-1-2-1-2 2-1h4l-4-1c-6-3 2-7 9-5 6 1 6 1 5-2 0-3-3-4-5-2s-11 4-12 2v-2c1 0 2-1 2-3l3-4 3-4c2-2 2-8 0-9-1-2-1-5 1-6l1-4c-2-4 6-14 11-15l7-5-4-4c-5-3-7-4-7-1m-96 9l-11 1c-13 0-22 2-23 6-2 4-2 5 1 3l6-3c3-1 4-2 3-3h2l4 2 3 1 2-1c1-2 2-2 3-1 2 1 5 0 5-1l1-1 1 2-2 2a1 1 0 100 2l2 1 11 1c4 0 3-2-1-3s-5-3-2-3l2-2c-1-3-4-5-7-3m-93 2c-4 1-2 4 2 4 3 0 4 1 6 3l4 2 2 1 1 1c1-1-1-7-3-8l-1-2-2-1h-9M6 75l-4 1-2 1 6 2h2l2 1 2 1c-1 1 0 1 1 1h2l-2-4c-2-4-4-5-7-3m236 1c-3 1-3 10 0 10l1-1 2-6c2-5 1-6-3-3M88 78l-2 1-4 2c-2 2-3 2-5 1-1-1-2-1-5 1l-8 1h-4l-5 1c-7 0-10 4-6 7v2l-3 2h-5c-3-1-6-2-7-1-3 0-4-1-2-3 3-3-8-5-14-2l-6 1c-3-1-4-1-5 1l-4 2c-3 0-3 1-3 17l1 15 3-4 3-4h1l1-1c-1-2 0-2 2-2 3 0 3 0 2-1-2-1-2-2-1-2 1-1 0-1-1-1l-4 1-2 1 2-2 3-2 1-1 1-1c1 1 2 0 3-1 3-3 7 2 4 5-1 1 0 3 1 2l1 3-1 4a4 4 0 003 7l-1 1-1 3-1 4v1c2 0 3 3 1 7v4c1 3-3 3-4 0v-10l-1 2c0 2-1 3-2 3-2 1-2 1-1 4v8c1 5 3 6 4 3l2-3 1-2v-1l4-5 4-7c2-2 1-3-1-3-3 0-3 0-3-3s0-3 1-1c0 2 1 3 3 3 3 0 3-1 0-3l-1-3-1-1c-1-1 0-1 1-1 2 0 3-2 0-2-2 0-3-3-2-6l-1-3-1-5-1-4c-1-2-1-4 1-4l7-2h6c0 2-3 4-4 3l-1 2c1 1 1 2-2 2-3 1-3 4 1 5l2 3c-2 5-2 14-1 14l1 3v2l3-1 3-1 10-5 5-2c5-3 7-2 6 5s-1 7 5 5c7-3 8-5 4-5l-4 1-1-7c0-6 0-6 2-5l2-1c1-1 7 0 7 2 1 4 3 2 3-2-1-5 0-6 6-8l5-2h3l3-1c2-2 3-1 4 2s3 1 3-3c0-3 2-4 11-5h8l12-3h4l-2-3-4-2-2-1h-2l1 2c1 1 1 1-2 1-4 0-7-2-6-4 1-1-4-7-5-7a4 4 0 00-3 4c-3 1-4 5-3 6 2 1-2 2-6 1l-2-1v-1l-3-5c-1-3-3-4-2-1v6l1 6h-4c-3-1-4-1-5 1-2 3-4 4-6 2l1-3c3-2 2-3-2-4l-5 1h-2c-1 0-1-1 1-1 2-1 2-1 1-3h-3l-1-2c1-1 0-2-1-3-2 0-2-1-1-1h1l4 1c4 0 4 0 4 3 0 5 5 5 7 0l3-3c3-2 4-3 1-5-1-1-1-1 1-3a2 2 0 10-2-2m83 14c-1 1 0 2 4 4 6 2 7 2 6-2-1-3-8-4-10-2m-119 9c0 2-1 3-4 3l-6 1-4 2c-2 0-2 0 0 5 4 5 5 6 6 3l2-3 2-2c1-2 1-2 2 1l2 4 3-3a8 8 0 001-7l-2-1v-2c2-2 2-3 0-3l-2 2m13 1l-2 3c-5 2-3 10 2 8 2-1 3-2 4-1l2-8c-1-3-4-4-6-2m71 8c5 1 5 3 2 3l-6 2h7c7 0 8-1 8-2l-1-2v1h-3l-1-2-5-1h-5l4 1m136 3l-7 7-1 5c0 1 0 2-2 1-6-1-9 6-5 14 2 3 2 3 0 3l-1 2c0 4-3 9-5 8-1-1-1 0-1 5l2 7 2 3c0 2 0 2 1 1l1 2 3 5c2 0 3 7 1 8-2 2-2 11 0 11h1l-1 1c-1 0-1 2 1 5l2 4v-5l3 1-2-4c-3-3-3-5 1-12l3-11 4-8 5-8 3-5v-1l-4 3-3 4-2 3c0 2-3-2-3-4l2-2 1-2 1-2 2-5c0-4 0-4-2-3l-2 2-1 4-2 3-1 1c-2 0-3 5-2 8 1 2-3 2-5-1l-3-1v-4c2-4 4-6 7-6 2 0 2 0 1-2v-4c0-2 6-12 7-12l5-5-3-1c-3 1-4-2-1-8 2-4 2-6 1-6l-1 1m-7 15h-4c-1 0-2 1-2 4 1 6 4 7 6 2l2-5v-2l-2 1m-149 3l-7 4-4 2c-1 1-2 2-5 2-4 1-5 3-4 7l1 2 3-3 4-3 2-1c1-2 12-4 14-4h1l3-1 2-2c1-1 1-1-1-1-4 1-7 0-6-2 2-2 0-3-3 0m369 9c-2 2-3 7-2 8v3l1 5 1 4 1 3c2 0 1 1-2 2l-3 2-2 1-2-2-1-1c-1 1-2 0-3-1l-2-2v1l1 1c0 3-4 1-5-1-1-3-1-3-1 2-1 3 0 3 1 3a2 2 0 111 3l-3 1c-1 1 0 1 3 1 4-1 5 0 5 1s-1 2-2 1c-4-1-5 6-2 8s6 2 6 0l3-1 2-1h3l4 2h1v2l-1 2 3 2 8 1c5 0 6 0 6 2s1 3 4 2c1 0 2-1 2-3l1-2 1-12v-13l-3-2-3-5-2-1-3-2-2-3-2-2v-1l-1-3c0-2 0-2-2-2-1 1-2 0-2-1-1-3-4-4-7-2m-271 7c-1 1-2 2-5 1-4 0-5 1-5 2l1 1-1 1h-3l-1 1 3 1 6-1 2-1 1-1h2c0 2 2 1 3-1v-4c-2-1-3-1-3 1m98 4l-2 1-2 2-1 2c-1-1-2 0-3 3-2 6-1 6 5 0 6-5 6-6 5-8h-2m-104 4c-6 2-8 5-4 7l13-4c0-4-2-5-9-3m5 8l-4 3c-3 1-3 3 1 3h5l4-1 4-1a3 3 0 00-1-5l-4-1c-2-1-3 0-5 2m-81 5c-2 0-3 2 0 2 2 0 5 3 5 4l-4 1c-3-1-3-1-3-3 0-3-2-4-7-2l-6 2c-2 0-1 1 3 1a24 24 0 019 5c-3-1-9 2-9 4s4 1 5-1c1-1 2-2 4-1l5-1 3-1 5-1 5 1 2 2-6 2c-6 1-14 5-14 6l-3 2c-3 1-4 2-5 5l-4 6c-3 2-1 3 3 0l2-3c0-3 6-8 8-8l4-2c10-7 44-6 44 2 0 2 5 7 6 6s0-2-1-3c-2-1-2-2-1-3 2-3-4-7-14-8l-9-1-4-1c-3 1-3 1-2-2l4-2c3 0 3-3 0-3l-2-2-1-1-2 2-2 1c-12 1-13 0-9-3 2-2 3-2 7-1l4-1h-20m86 4c-3 3-3 5 0 5 5 0 6 0 8 3 2 2 3 2 4 1 4-5-7-13-12-9m232 4c0 2-1 3-2 3v3l-1 3v11c1 1 7 0 8-2s2-2 6-2l3-2c2-2 2-2-4-7l-6-6c0-2-3-3-4-1m-250 30l1 9 2 3 2 1 1 1c3 0 3 2 2 13 0 9 0 10 2 10l1-1v-2l1 1h3a4 4 0 015-1l1-4c0-4-1-5-5-3-2 2-4 2-6 1l1-1c2 0 5-3 5-4l-2-1c-3 1-4-1-1-3 1-1 2-4 0-4s-9-8-8-10c0-2 0-3-2-4a5 5 0 01-3-1m51 0c-2 2-1 7 3 8v2c-2 0 0 7 3 11v-7c0-10-3-17-6-14m-157 6a8 8 0 01-3 7c0 2 2 1 5-3 3-3 4-3 3-5-2-5-5-4-5 1m-49 24v4l-1 3-1 2c1 1 3-1 3-3 0-3 2-3 3 0l1 3 1-4-1-5-2-2c0-2-3-1-3 2m20-2v2l-4 3c-3 3-4 6-2 5h5l3-4c2-4 2-4 1-6h-3m311 0l-1 2h2a3 3 0 01-2 3l-1-1-1 2c1 1 0 2-1 3s-2 2-1 4l-1 6v3a2 2 0 01-2 4v1l1 3v1c-2 1-3 0-4-3l-3-2-3-1-1-2-1 2-2 3 1 1v1l-2 2-1 4c-1 2-1 2 1 2l-1 2-2 3-1 1c-1-1-2 0-3 1h-1l-3-1c-2 0-2 0-1-1l2-1c1-1 0-2-1-1l-2-1 2-1a2 2 0 10-1-3l-2-1c0-3-4-2-5 1-2 2-2 2 0 2a4 4 0 01-1 8c-2 0-7 3-6 5 1 1 0 2-3 2s-4-1-4-2h-2v3l-1 1 2 1c2-1 1 0-1 2l-1 2 2 2-1 2c-1 0-2 1-2 3l-2 3-1 6v6c-2 1-7-2-7-3 1-2-6-8-8-8l-1 2v1c-1 0-2 2-1 6l2 1 1 2 1 4c1 2 1 2-1 3-2 0-3 3 0 3 2 0 1 2-2 3-5 1-5 2-2 4s3 2 4 0h1l1 3-1 1h-4l-1 1c0 2 6 1 7-1v-6l1-4 1 1 1 2 1-1 2-2c2 0 3 0 2 2l3-3 4-4c2 0 3-3 1-3v-2h2c1 1 8-2 9-5l4-2 4-3 2-1 1-1c-1-4 0-10 1-9l1 2c0 3 2 3 4 1l4-2 4-2c2-2 2-2 0-4-1-1-1-1 2-1 3 1 6-3 8-7 0-2 1-2 2-2 1 1 2 0 2-3l4-8 3-5 2-4c4-5 6-11 4-12-1-1 0-2 2-3 2-2 3-3 3-5l-1-3-2-1c0-1-1-2-2-1l-1-1c0-2-4-3-5-2m-174 12c-4 3-4 4 2 4 3-1 4-1 4 1l1 2v2l-3 1c-2 0-2 0 1 2 2 2 4 3 6 2 4-1 4-4 0-4-3 0-3 0-2 2 1 1 1 1 0 0-2-1-2-3 1-3l1-1-1-1-1-2c1-2-1-6-3-5h-1c0-3-2-3-5 0m-171 0l-5 4c-1 2-1 2-2 1h-1c0 2 0 2-3 2l-2-1 2 2c3 4 12 4 12 0l2-4c3-5 1-6-3-4m466 3l-10 5-2 4c-1 3-4 5-6 4l-1 1 1 1h1l-1 1-3 4c-2 5-5 7-5 5h-2c-3 1 0-11 3-13 2-1 2-2 1-2l-2 1-3 2-2 2c1 1 0 1 0 0-2 0-2 0-2 2l-1 3-2 1 1 1v2l-1 2c-4 0-11 9-10 12l-1 1c-2 0-2 2-2 6 0 1-1 2-4 2l-4 3c0 1-1 2-5 2s-4 0-10 6a22 22 0 01-8 7c-1 1-4 2-4 0l6-5c4-5 5-6 3-6h-2l-3 1-3 3c-1 2-2 2-4 2l-3 1-3 1-1 1v3c1 1 0 2-2 3-3 3-3 5 0 5 2 0 2 0 1 3l-2 1v2c0 2 0 3-2 3v4l1 1 1-2 5-7 1-2c0-3 4-7 12-11a166 166 0 0027-16l3-2a30 30 0 009-8h-3c-1-1 4-7 7-7l1-1 2-1c2 0 2 0 1 2l-2 3c0 2 3 1 4-1l6-3 5-3 4-4 5-3 3-2 2-1 2-1 2-1c-1-1 0-2 3-2l5-2 3-2c2 0 6-3 5-4-1 0-3 0-5 2l-6 2-5 2c-2 2-6 3-7 3l-1 1-2 2c-2 0-1-4 1-5l1-3 2-3 5-4 6-5c3-1 3-1 1-1l-5 2m-448 0l-3 2c-3 1-4 7-2 8l8 2c5 1 8 2 11 5 4 3 6 4 4 1l-2-2v-1l-2-3a19 19 0 01-10-9l-1-1-1-2h-2m391 7c0 2 0 2-4 2-2 0-2 0-1 1l1 2 2 2 1 3c-1 3 1 3 3 0v-2l-1-5v-5c-1-1-2 0-1 2m-270 2l-2 6 1 3c0 2 0 3 1 2l1-3v-3c1 0 2 1 1 2 0 1 1 1 2-1a5 5 0 000-7c0-2-1-1-4 1m-91 1h-2v1c3 3 0 4-4 1-3-2-3-2-4 1-1 2-1 2 1 2l2 1 3 2 3 3c-1 4 2 6 4 2 1-6 0-15-3-15v2m370 58l-3 2-1 1-2 4c-3 4-4 6-1 8 2 1 2 0 5-6l3-9c-1-2-1-2-1 0m-13 18l-1 1 2 2-1 1h-2c-1 2-4 2-5 0l-2 1-2 2v-1c1-1 1-1-1-1s-3 0-3 2c0 5-13 13-13 8h-1l-2 1-4-1c-2 0-2 0-2 5 0 3 0 5 1 4l1-1 3-2h1l2 1 2 2 1 1c3 0 1 3-4 6a10 10 0 00-5 7l-1-1h-1a2 2 0 01-2-1l-1-5v-4c2-1 1-4-2-3-5 1-6 9-2 9 2 0 3 1 1 2v9l-2-2c-2-2-6-2-6 0l-3 1c-3 0-5 1-3 2s1 4 0 4c-2 0-2 1-2 7 0 2 0 3-2 3-3 0-5 3-4 4 1 2 0 5-2 5a7 7 0 00-6 6l-5 5 11-7 3-2 4-3 2-2 4-3 7-6a73 73 0 009-7l3-2 9-8a118 118 0 0028-33c5-7 3-11-2-6m-44 7c-2 2-2 2-4 1-1-1-1-1-3 1l-2 3-2 3c-1 1-1 2-2 1l-1 1-1 2h-1c1-1 0-2-1-2l-1 2c0 4-8 14-10 14-1 0-2 1-1 2 0 2 0 2-2 2s-2 0-1 2l-1 2c-1 0-5 3-5 6-1 2-1 2 1 2l2-1c-1 0 0-2 2-2l2-3 1-2 6-7c4-6 16-18 24-25l3-3-3 1m118 17l-1 1-2 2-1 1-1 3-1 4v4l-1 4-2 4-1 2v2l-1 3c-2 1-3 6-1 6l2-3 1-4 1-2 1-2 1-3 6-20c2-2 3-3 1-3l-1 1m-386 6c-1 1-1 1 1 1a4 4 0 011 8c-2 0-2 0-2 2v1l-1 2c-1 3-3 4-3 1-2-3-3-2-2 1a2 2 0 01-2 4v2c-1 1-1 1 1 1l2-1v-1l2-1h2l2 1c1-1 3 1 5 3l4 4 2-3c2-1 3-3 2-3l2-2c2-4 1-4-1-2l-3 4c0 2-6 1-7-1-3-6-3-8-1-9 3-1 3-9 1-12-3-2-3-2-5 0m-56 11h-4l-3-1c-1 1-1 1 1 1 2 1 6 7 4 7l-2-2h-1c0 3 2 4 5 5 2 1 2 1 1-2l-1-4-1-2 2 1c2 3 3 2 3 0v-3l-1-1c-1-1-2 0-3 1m281 9l-2 2-3 1c0 1-6 5-8 5l-2 2c0 2-2 1-2 0-1-3-10 2-12 6l-3 1 1-2 2-4c0-4-6-4-7-1 0 2-1 3-2 3l-1 3-3 4-3 3-2 2-4 2 1-2c1-1 0-7-2-7l-3 3-4 2h-2l2 1c2 1 3 3 0 3-2 1-4 5-4 9l-1 4-2 3 3-2 5-4 2-2 5-5a7 7 0 005-3l11-5 8-3a75 75 0 0028-15 2 2 0 10-1-4m-191 2l1 1h-3l-4 3-4 3-1 2c1 1 2 0 4-2s3-3 2-1v3l2-2c0-2 0-2 1 0 1 3 1 3-1 3-1 0-1 1 1 2a5 5 0 014 3l-1-3 1-3 1-2 3-1v2c-2 0-2 2 1 2 1 0 1-3-1-5l2-1 1-2-1-2h-3a4 4 0 01-5-2v2m-45 3l2 5v2c-2 2-3 0-3-3l-1-3v2l-1 1v4l-2-2c-1-2-4-3-4 0l1 1c1-1 5 4 5 5l1 1 1 1-3-1c-5-6-7-8-8-6s-1 3 1 3c1 1-1 1-4 1-7 0-9 2-4 2 2 0 2 0 1 1l-1 2-1 1v-1l-1-2-2 2c0 1 0 2-2 2l-4 1h-1l1-2c2 0 2 0 1-1l-1-6c-1-4-1-4-3-4s-2 0-1-1l1-2h-1l-3 2-4 1c-1 1 0 5 1 5l1 2c0 1 1 2 3 2l2 1-4 2c-3 0-5 0-7 3-3 2-4 3-7 2h-5l-3-1h-3l2 2c1 2 1 2-1 2l-4 2c-1 2-1 2 1 1v4h-1c-2-1-3-5-2-6 1 0 0-2-2-2l-1 1-1 2v2c2 0 1 4 0 4l-2 2c0 3-5 6-7 5l-3 1-5 1h-1c3 2 4 3 1 3-1 0-2 0-1 2l-2 1c-1 0-2 0-1 1v2c0 2 12 4 13 2 1-3 5-3 7-1l3 2-1-2-1-2-1-1c-1 0 0-3 2-5h1c0 3 3 2 3 0 2-3 6 3 6 7v2l2-2c0-3 4-4 5-2l3 2 3-1-1-1v-1l2 3c0 1 0 2-2 1-2 0-3 2 0 2v2h1l3 1-1 1-4 1c-2 0-2 0-1-1 0-2-4-7-5-7l-3 2a8 8 0 01-4 2l1 1c1 1 1 1-2 1s-3 0-2-1v-3c-1-1-2 0-1 1l-1 2c-2 0-2 0-1 1h-1c-2 0-3 0-3 2-1 3-1 3 2 2h3l1 1h1l2 1v-1c-2-2-1-3 1-3l3-1h2c2 2 1 3-1 3l-3 1 1 1 1 2 1 4 1 3-1-1a1 1 0 10-3 1l-2-1c-2 0-3-2-2-3s2-1 2 1l1 1v-3c0-3-1-4-2-2h-2c-1-2-4-2-6-1-1 1-1 1-1-1l-4-2a2 2 0 01-3-3l-1-1a1 1 0 10-2 0l2 3 2 2c2 0 3 1 3 2l-1 1c-2-1-4 1-3 3v1l-1-1c0-2-4-3-7-2h-4l-4-1c0 1-1 1 0 0l-1-1v-1l4 1c2 2 3 2 5 0h4c2 2 3 2 4 0 1-1 1-1-1-1l-2-1-1-1h-3l-5-2c-4-2-5-3-5-6 0-2 0-2-1 0-2 1-2 2-1 3 2 1 1 4-1 4-2 1-3 2 0 5v1l-3-1v-3c0-2 0-2-3-1l-4 1H1c-1-1-1 0-1 6l1 9v2c-1 1-1 1 1 1l2 2v5l1 2c1 0 2-1 1-4v-4l4-1 2 1c-1 1-1 1 1 2l2 2 1 3c3 3-1 6-8 5l-5 1-3 1v13c0 12 0 13 3 14h3c1-2 2-1 2 2l1 5 2 3c0 1 1 2 7 1l6 1h-1l-2 1h-3c-1 0-2 0-2 2 0 3 1 3 3 2l5-1c2-1 3-1 2-2l1-1c3 1 5 0 5-2l-3-1c-3 0-2-2 1-3l1-1h6l2 4c1 3 10 6 10 3l-1-1h-1l-3-1-2-1 3-1c5 0 5 0 4-2-1-1-1-1 1-3s2-2 3-1 2-1 3-7c0-3 0-3-2-3l-1 3-1 3-1-2-1-3v-1c2-1 2-1 1-2v-3c0-2 0-2 2-1h7a11 11 0 004-14h2c2 2 2 2 3-1l4-4v1l-2 3c-1 3-1 3 1 3l1-2a1 1 0 112-1c-1 3 0 3 2 1 2-1 3-2 2-4 0-2 0-2 2-2 3 0 4-1 3-3v-1c1 1 2 0 2-1l-1-1c-5 1-5 0-5-5s0-5 1-2l2 2 1 2c1 1 1 1-2 1h-1 6l3-1v-2l3-2v-5l-1-3c1-1 4 4 5 6v4l2 2 2 1 2-1c3-2 6-3 6 0l-1 1-2 1h3l2-1c1 1 1 0 1-1l2-5v-2c-2 1-2 1-2-1v-2c-1-1 0-5 1-6 2-1 4 0 3 2l1 1 2-2c0-3 2-3 2 0 1 2 7 6 7 4l-2-3-2-2 3 1 2 1 2-1 1-5-1-5 2 2 2 2v-2c0-2 0-2 1-1h6c3 2 10-1 10-5 0-2 0-2 1-1v2c-1 3 2 1 4-2l3-3a4 4 0 006-4c2-1 1-4-2-5s-3-1-3-5l-1-5c0-1-5 3-4 5l-1-1v-3c1-1 1-2-2-1l-1 1-2 1h-2l-1 1-1-3c1-3 4-5 6-3v-2c0-2 0-2 1-1h3l1 1h1l2 1 4 1 2 2-2 1v1h4l1-2c-1-2-1-3-4-3a2 2 0 111-4l1 1c-3 0-1 2 2 2 2 0 1-3-2-5l-3-2-2 1c-2 2-2 2-3 0h-3l-2-1 4-1 3-1-1-1-3-1c-1-3-3-3-2 0l-1 1-1-3-1-2v8l-1-2-1-4c-2-1-2-1-2 1l1 3c2 2-4 12-7 12l-1 2-1 4-1-2c0-2 0-2-2-2h-5l-5-1c-3-1-4-2-1-4 2-1 5 0 3 2h8l3-1c3 1 5-1 3-3-2-1-2-1-2 1 1 2 1 2-1 1-2-2-3-3-1-3h3l2-1h1l1 1c1 0 2-6 1-8l-1-3c1-1 1-1 0 0-2 3-2 4-1 5l1 2c0 1-1 1-3-2-3-4-4-4-4 1 0 4-7 9-11 6l-2-2c0-1 1-1 3 1l2 1 1-1c0-1 1-2 3-2s2 0 2-2l-1-3-1 2-1 1-1-3c0-2 0-3 2-3l2-1h-2c-2 0-3 0-3-2l-3-2v3c2 2 2 3 1 3-2 0-2 1 0 2a2 2 0 11-3 0l-6-1-1-2v-1h-3v-1c2-1 2-1 0-3-1-2-2-3-1-4l-2-4c-2-1-2-1-1 2m86 2l1 3 1 1 1 1-3 1h-3l3 1 4 3c1 4 2 4 1 0 0-2 0-2 2-2 1 1 1 1 0 0v-2l-2-2-2-3-1-2-3-1 1 2m-145 2c-3 2-5 3-7 1v2l3 1c3-1 6 2 5 4l1 2c1 1 3-1 1-2l-1-3v-1a2 2 0 010-3l1-1c0-2-1-2-3 0m-16 6l-1 6c1 4 1 5 3 5s2-1 2-3l1-2 1 1 2 3c2 2 1-3-2-8l-1 1c-1 2-4 0-4-2s-1-2-1-1m-32 7c0 3 0 4-3 4l-3 1h1l4 2c2 2 3 2 3 1 1-1 1 0 1 1 0 3 0 3-3 1-5-2-8 0-5 4v12l2 2-1 1c-2-1-2 0-2 6 0 4 0 7 1 6l3-1 3-1v-3l-1-2v-2c2 0 2-1 1-3-2-1-3-4-1-4l1-2 2-2c2 0 1-2-1-4-3-3-4-2-3 0l-1 2a3 3 0 115-3l1 1 3 2c2 4 7 2 10-3l2-4-2-1-3-1c-3 0-4-1-3-3l-1-1h-4c-1 2-2 1-1-1l2-2c2 0 2 0 1-2l-2-1-2 1c-1-1-1-1-1 1v3c-2 1-2 1-1-2l-1-4-1 1m200 1c1 3 1 5-2 5l-5 2-2 1 3 1c-1 2-4 2-6 1h-2l-1-3c0-2 0-2 1 0 1 1 1 1 1-1l1-2c1-1 0-1-1-1-2 1-3 0-4-1-1-2-4-3-4 0l1 1c2-1 3 1 3 6a4 4 0 002 4l-2 1h-2a11 11 0 0013-1h1l2-1 2-2 2-2 2-2 3-3c3-2 3-2 1-4h-6c-3-2-3-1-1 1m278 3l1 6c0 3 0 3-1 1 0-2-2-3-2 0l-1 1c-1-1-1 0-1 2s0 3-2 3v1c0 1 2 0 3-2l1-2v2c1 2-2 7-3 5l-3 3-3 3-1 1-1 2-1 1-3 4c-3 2-3 2-3-2-1-2-3-2-4-1 0 1-1 2-2 1h-1c1 2-1 5-2 4-3-1-5-1-6 2l-2 2c-3 0-6 3-6 6 0 1 1 2 3 2 3 0 3 0 0 3-2 2-3 2-3 1 0-3-3-2-3 0-1 1-1 2-3 1-1 0-3 0-4 2s-3 2-4 2c-3-1-4 0-2 2a1 1 0 11-1 1h-3c-5 1-10 4-10 5l-1 1c-2-1-6 3-6 5l-4 4a14 14 0 00-5 6 1 1 0 101 2l1-1c0-2 10-12 15-15 4-2 6-3 13-4h8l-4 2-3 5-3 4c-2 1-3 2-3 4 0 3 1 3 5-2l5-4 1-1 3-3 6-3 10-8 8-9 4-3 2-2v-2c0 1 2 0 3-2l10-10c4-3 10-13 10-15 0-4 2-9 4-9l1-2c0-2-1-3-3 0-2 2-3 1-3-1l-1-2c-2 0-2 1-1 3m-209 0l-1 2-2 2h-1v1l1 1h-3c-1-1-1 0-1 3s0 4-3 5-3 3-2 6c1 1 0 1-1 1l-3 1c-1 1-3 0-3-2h-1c-2 2-2 3 0 3v4a1 1 0 11-2-1l-1-1c-2 1-2 3-1 4h-1l-2 1v2c-2 0-6 4-5 5l-1 1c-2 0-3 3-2 4v2c0 2 0 2 4 2 2 0 4-1 3-2h3c3 0 5 2 3 2l-1 2c1 2-2 2-5 1-2-1-4-2-5-1-3 1-3 1-3-1l-1-3c-1-1-4 0-3 1l-1 1c-1-1-3 0-5 1l-5 1-1 2c2 2 1 4-2 3-3 0-7 3-5 4s-1 3-4 3c-4 0-6-7-2-8 2-1 8-6 8-8l-2-1-3 1v1c1 1-2 3-4 3s0-5 2-6c2 0 3-2 1-2l-2-1-2 1c0 3-2 2-3-1l-3-3c-2 0-4 1-3 3l-3 1-3 1c1 2-1 3-1 2-1-1-1 0-1 1v3l-1-1-1-1-1 2c0 2 0 2 2 2l1 1h1c3-1 3 2 1 4s-3 2-6 1l-6 1-3 2c-2 0-2 0-1 2l-1 2-1 1c-1 1-1 2-3 1-1 0-2 0-2 2-1 3-1 3 1 2a1 1 0 112 1l-2 2-2 1h-1c0 1-7 4-8 3h-3l2 1 1 1-2 1c-3-1-4 1-1 2l1 1c-2 0-4-2-4-3 2-4-8-3-11 1-1 1-1 2 1 2s6 5 6 6l-4 1c-1 0-2 1-2 3l1 2v2l-2 2c0 3-3 6-5 4-2-1-2-1 0-3v-1c-1 0-3 1-3 3-2 2-3 3-5 2-2 0-2 0-2 2l-1 2-3 2-3 1c-3 0-5 2-5 5l-1 2-1-2-1-2-5-3-4-2a17 17 0 008 8c0 2-3 1-6-3-3-3-7-4-7-2l-2 5v3c2 1 2 1 3-1 0-3 4-3 6 0 3 4 2 5 0 2l-4-2c-1 1-1 1 1 2l2 2c0 2-3 5-4 4l1-3 2-2-6 4h-2v1c1 6-3 11-5 7-1-1-2-2-3-1l-3-1-3-1c-2 0-2 0 0 2l4 1c2 0 4 3 3 3l-1-1c-1-1-1-1-2 1l-2 2c-3 0-2 3 1 3 2 1 2 1 1 2h-7c-6 0-7 2-1 1l5 1c2 1 3 4 1 4v1l-1 4v5c-3 0-7 8-4 10 2 1 1 4-1 8-3 4-4 5-1 5l1-1 1-2 1-2 4-6 6-9 5-7 1-3 1-2 3-4 3-4 1-2 9-8 12-9c2-2 4-4 6-4l2-3c2-4 6-9 9-9l2-1c0-2 10-7 13-7l2-2h3c2 2 2 2 4 0 3-3 5-3 8 1l3 2 3-3c3-3 3-3 1-3l1-1 4-2 3-5 3-4 2-2 1-2 1-1 3-3 3-4 3-1 4-1c7 0 7 0 7-3-1-2-1-3 1-2l4-3c4-4 10-5 12-3s2 3-1 4c-2 1-2 1-1 2 3 3 2 3-2 2l-5 1c0 2-3 4-6 3-1 0-2 1-1 2l-1 3c-2 0-2 1-2 2v3c-2 1-2 5 0 6l3 2c0 3 4 2 5-1l4-7 2-6 1-2 5-3 10-7c2-1 5-2 6-4l4-2 12-10 4-5c7-6 11-15 7-14-5 2-7-6-3-11 2-2 2-3 1-4-1-2 1-7 3-9s2-2 0-2l-3 1m-238 4c0 2 0 2-1 1l-1-1-1-1v3l3 5 1 4-3-3c-2-4-3-2 0 2 2 3 4 3 4-1 0-3 0-3 1-2h1l-2-2-2-1 2-2 2-2h-1a1 1 0 11-1-2c1-1 1-1-1-1s-2 0-1 3m316 1l-4 3c-5 2-9 7-9 11l-2 4-2 4a3 3 0 01-3 2l-1-1c-2 0-6 4-6 6l-2 2c-2 0-2 0-1 1v1l-2 1-3 2-4 5-2 3c0 6 24-15 29-26 4-9 7-14 9-14l6-6c0-1-2 0-3 2m156 7l-2 1-1 2-1 1-1 3c1 1 0 2-1 2l-3 4c-2 4-1 5 1 1l3-3 4-1c4-1 4-2 4-7s-1-7-3-3m-326 2c1 2 0 2-2 1h-3l-4 1c-3 0-2 8 0 8s3-2 1-4v-1l2 1c0 2 4 1 4 0l2-2c4-1 6-5 2-5l-2 1m225 14l-1 2-2 2-2 3-2 1 2 1c2 1 2 2 2 3v2l2 5c0 5 1 7 3 6 2 0 2 0 0-1s-2-1-1-3c2-1 1-10 0-13v-6c2-3 2-4 0-4l-1 2M44 457h-3l-2 1 1 1c2 0 0 1-1 2l-1 1-1 2c-2 0-1 4 2 7 2 2 2 2 0 2h-2l1 1 1 2 1 2h1c0 2 1 2 4 2l3 1-2 1c-3 0-5 2-4 4 1 1 1 1-1 3l-2 3-1 3c-3 2-2 3 1 3 2 0 3 0 3-2h-2c-2 0-2 0-1-2 4-5 7-6 9-4l2-1c2-2 3-12 1-13l-1 1-1 2v-5c1 0 5 1 5 3l1 1v1l-1 2 1 2v1c-3 0 0 2 3 2s4-1 4-2l2-1h1l-1-1-3-2-3-1 1 1v2c0 2-2 3-2 1a210 210 0 01-1-12c0-1 1-2 3-2 5-1 0-2-5-1l-3 1 2 1H42c-2-2-1-3 2-3 2 1 3 0 1-2v-1l-3 1h-3l1-3h2l3-3c1-3 0-4-1-2m338 0l-2 1c-2-1-2-1-2 1l-1 2a1 1 0 100 2c2 0 2 1 1 2-1 3 0 4 2 4l1-2v-3l2-8-1 1m108 13l1 2v1h-2c-1-1-1 0-1 3 1 4 1 4-3 4-2 0-3 0-2 2l-1 1c-2 0-3 5-1 5 1 1-1 10-3 11s-2-1-1-2 2-2 1-3v-2c2 0 2-2 0-2a4 4 0 00-5 3l-1 3-1 2c-3 0-8 6-7 9 0 3 0 3-3 4l-3 1h3c3 0 4 0 4 2 0 3-2 6-4 6l-2 2-1 4c-2 1-4 5-3 6l-2 3c-2 1-2 1 1 1h3l-3 1-4 1h-2l-3 6c-4 3-4 4-3 6 2 1 2 2 1 2v4l-1 2v3c-3 3-6 9-6 11l-1 4c-2 1-2 8-1 8v2l-2 2-2 4-5 6-2 2v-2c1-1 1-1-1-3-2-3-3-3-6 0-2 3-2 5 2 5s3 1-1 1c-2 1-4 3-2 3l1 2-1 1-1 2c0 2-1 3-4 5-3 1-3 1-1 3l3 1 2 1-1 1c-2 0-2 1-1 5 2 2 2 3 0 4a12 12 0 001 12h-1c-1-2-3-1-3 1l-2 4v2l-1 4c-2 2-3 4-2 5l-2 1a65 65 0 00-8 1c-2 0-2 0-2 3v2c-1 0 0 4 2 5 2 3 2 6-1 10-4 3-6 4-7 2-2-2-5-1-4 1 0 2 0 2-3 1-6-1-9-1-12 3-2 3-4 4-5 3s-1 0-2 3c-1 5 0 9 2 7 2-1 7 0 7 2l-1 2h-1l-2-1 1 2c2 2 3 4 1 4-1-1-2 0-2 1h-2c-2 0-3 7-2 9s1 2-4 0l-3-2-2 2c-1 1-2 2-5 2-4 0-4 0-4 3v2c-1-1-3 2-3 5 1 4 2 4 8 6l4 2h-2l-2 1c-1 1 4 4 5 3 2-1 4 5 3 8l1 1a6 6 0 01-4 10l-1 1-1-2c0-4-1-4-3-4l-3-3c-1-3-1-3-3-2-1 1-2 2-1 3a1 1 0 11-2 1h-2c-2 0-2 0-1-1 0-3-1-2-3 0l-4 2c-2 0-3 4-1 4 1 0 1 1-1 2l-5 10c0 2-4 1-5-1l-3-2c-2 0-7 6-7 7h-2c-4-2-6-4-6-8l-2-3c-3 1-4-1-4-9l-1-10c0-2-2-3-2-1l-3 4c-2 1-3 3-3 7a4 4 0 01-3 5l-2 1h-3c1-1 0-2-2-2h-2c0 3 0 3-1 1-2-2-2-5 1-4l2-1-3-1c-2 2-10 3-12 1h-3c-2 3-1 5 3 4s5-1 5 2l-2 1c-2-1-2-1-2 1s0 2 2 1c2 0 3 0 4 2 1 1 1 1-5 1-5 0-6 0-5 1 0 2 8 3 8 1 1-1 1 0 1 2 0 3 0 4-2 4l-3 2a1 1 0 11-2-1l-2-2a5 5 0 00-7 1c-1 0-1-2 1-4v-3l-2 1h-2l-5-1h-4l2-4 1-5 1-4c2-1-1-4-4-5-3 0-4-4-1-4l1-5 1-1 1 2c0 3 9 3 9 0l1-2v2c0 3 4 2 5-2 1-2 1-2-2-2-3 1-4 0-5-1l-3-2 3-2 5-3 2-1c1 0 2-1 2-3 0-4 2-10 3-8s2 1 1-2l2-4 2-5 3-6 2-5c0-1 1-4 4-6l4-5 1-3 3-5 6-12 5-8c0-2 5-11 13-21l6-10 5-8 2-5 1-2 1-1 2-4 2-5 10-18 2-4 1-2 3-8 2-6c2-2 5-12 4-12l-3 2c-1 4-9 3-9-2l-2-3c-2-1-2-1-1-3 1-1 0-3-3-3l-2-1c-1-2-2-2-3-1h-3c0-2-2 0-2 2l-3 4c-3 2-3 2-2 4v10l1 5c1 1 0 4-1 4l-1-2c1-2 0-3-2-1h-2c-1-5-2-7-3-7-1 1-2-1-2-3 0-3 0-3 1-1h1l1-1c4 0 4-6 2-8v-2c2-2 2-2-1-3h-3c0 1-1 2-2 1l-2 1h-2c-3-1-3-1-3-4 0-4-2-5-2-2-1 2-1 2-2 0s0-3 2-3 3-4 1-7c-2-1-6-1-6 1h-1v-2c0-2 0-2-1-1-2 1-4 0-3-2 1-1-4-4-5-4l-2-2 1-2 1-2 2-2 1-1v-6c-1-1 0-1 1-1h2l3-4 3-5 2-2c2-1 2-1 1-3l-2-1a34 34 0 005-2v-2l1-3 1-2 1-2 1-1 1-1-2-1-3 1 1 1 1 1-2 1-1 1v1c-1 0-2 1-2 3l-3 3-1-1v-2l-3 3c-1 3-1 3-4 3-4 0-4 0-4 2v3c-2 2-3 6-1 6 1 1 0 4-2 6l-2 4c0 2 0 2-3 1-2 0-2 0-2 2l-1 2-1 1a6 6 0 01-7-2l-1 2-1 1a20 20 0 00-4 1l3 2c3 3 5 6 2 7v-2c0-2-4-5-6-3-3 2-2 3 0 3 2-1 3 0 1 2-1 0 0 2 2 2h1l-1 1c-1 1-2 4 0 4s1 2-2 5c-2 2-3 3-4 2a2 2 0 00-2 2l-3 5c-2 1-2 6 0 9 1 1 0 4-3 7-2 3-2 8 0 8l1 8-1 7-1-2h-1c-3 2-2 6 0 6 1-1 2-1 1 1l-1 2c-3 0-6 6-5 8 1 4 2 4 4 1l2-3 1-4 1-5 1-2 2-5c2-2 2-3 3-7l2-4c1-1 2-2 2-5l1-4h4c5 0 10 3 8 5l-1-1c0-3-4-1-5 3-1 8-1 9 1 10a1 1 0 11-1 2c0-2-2-1-3 1 0 5-1 7-2 7h-2c-1 0-4 2-3 3h3c4 0 6 2 5 4l-1-1h-1a3 3 0 01-1 7l-3 2c-2 3 2 7 6 7 2 0 3 0 3 2s1 2 2 2c3-1 2 4-1 6v3c1 1 1 1-1 1l-3 1h-1l-2-2c-2-1-5-5-4-7 0-2-2-4-2-2a2 2 0 01-3-1l-2-1v-1c1-2 1-2-1-2l-2 1h-3v-3c-1-3-1-3-4-2l-3 1c-2 1-2 2-1 4 0 3-2 7-4 7-1-1-1 0-2 1l-2 2v-9l-2 1h-3l-2-3c-1 0-2-1-1-2 0-2 0-3-3-3l-3-2 1-1h3c1-1 0-1-3-2-5 0-7-2-3-2l2-1-2-2c-2 0-3-4-1-5 1-1 0-1-1-1-2 1-4 0-5-1l-3-2a19 19 0 00-10 11v2l-1 3c-2 2-2 2-1 3h3c1-2 1-2 1 0l2 2-1 1-1 2v2c-1 1-1 1 1 2v3c-2 0-3 3-1 3v5l-3-3c-1-2-7 1-7 3l-1 1c-3 0-2 4 1 6 3 1 4 3 2 3s-2 1 0 3 4 1 4-1c-1-1-1-1 0 0 1 2 2 2 2 1h2c1 1 1 1-1 3l-2 4-2 6-1 2c0-2-1-2-3-1v3l-1 2 1 2a1 1 0 11-2 1h-1l-2 3c-3 0-3 2 1 4l2 1h6l-1 1-3 1 1 1c3-1 4 0 2 2-1 1-3 3-3 5-1 2-2 3-5 2-4 0-4 1-5 8a22 22 0 010 8l-1 2-3 1c-2 0-3 3-2 4v8l-1-3c0-2 0-2-1-1l-1 3c2 2-3 3-7 1-2-1-3-2-2-4l2-2 1-1c0-2-3-3-5-2l-1 1-1-4-1-6-1-2h1c0 3 3 2 3 0 0-4-1-6-3-6s-2 0-1-2c0-2-1-3-4-1-2 1-3 0-1-2s2-7-1-7-5-4-3-5c1-1 0-1-1-2l-3-3c0-2-3-4-4-1h-1v-2c3-3 2-7-1-6-5 1-12 10-11 14 1 1 0 2-1 3l-1 2h4c2-3 4-1 4 1l-1 4c0 2-5 4-6 3-2-2-5-1-5 0l2 3v1c-3 0 1 2 4 3 2 0 3-1 3-2l3-2h3l-3 1a3 3 0 00-2 3l-1 3c0 2-2 3-3 4l-3 1 3 7 2 2v3l1-3v-4c-1-1-1-1 1-2 3-1 5 1 3 2v1c2 1 1 4 0 4a2 2 0 101 2h1l2 1 1 1h-3l-2-1c-1 1-1 2 1 3l3 2h-3c-3 0-1 3 2 3 2 0 2 0 0 1h-8a3 3 0 00-6 2l-1-2c1-3-2-4-5-1l-4 3c-2 1-2 1 0 1 3 0 6 2 3 2l-3 1h-2l-2 3c-2 2-1 4 4 5l5 3h9l2-2h1c2 1-4 8-6 7-2 0-2 0-1 2 2 2 2 2 1 4-2 2-4 0-4-3a2 2 0 00-3-2l-3 3-3 3h3l2 4-1 4-4 3-2 3h2c4-1 5 1 4 5l-1 6c0 5-7 8-8 2 0-3-1-4-4-3-7 1-15 0-12-2 3-1 1-4-2-4-2 0-2 0-1 2l-1 3c-1 1-1 0-1-2l-1-5-2-2c0-3-2-5-4-3l-2 1c-1-1 0-2 1-2l1-1h-2l-3 1c-3 0-2 2 0 4l2 3h3l3-1c1 2-1 2-5 2h-5v4l-1 5-1-1-2-1c-2 0-2 0-1 2l3 2 2 2v2l-2-1c-1-2-4-1-4 1l2 1 2 1-1 1-2 1-2 3c-1 1 0 4 3 6l-1 1c-4-2-11 4-8 6v2c-1 2 0 3 2 3l3-4c2-5 2-5 4-1l2 5c0-3 2-4 4-2l2 2c1-1 2 0 2 2 0 3-2 4-3 2 0-3-2-2-2 0l-3 2-3 1-5 1c-5 0-6 1-4 3 2 3 1 5-3 7a35 35 0 00-12 11c-2 2-5 13-3 16l1 7 1 6-7 2-11 3H8l-1-1c-2 0 0-2 2-3 3-1 4-6 1-6l-2-1h4c4 0 8-3 6-4h-2c-1 2-2 1-1-2 0-3 0-3-3-3s-8-4-6-4h3l5-3c4-3 5-5 1-5l-4-2-3-1-5 1H0v72h16l18-1 4-2 3-1 6-3c3-2 6-3 7-2 2 0 3-1 2-4l1-1h2c1-1 5-5 5-7l2-2 4-2 3-2 5-2c1-2 4-3 6-4l4-1 1-1h3c2-1 2-1 3 1l-1 2-1 1h2c2-2 2-2 2 0s-2 4-4 3l-1 1c0 2-3 1-3-2 0-1 0-2-1-1l-2 2-1 1-2 2v3l1 1-2 2c-1 1 0 2 1 2l2 1-1 1a5 5 0 00-2 7h-2c-2-1-2-1-5 1a5 5 0 01-4 3l-1 2c0 2 5 2 53 2h54v-3l-1-3-1-1c0 1-4-3-4-5l-1-1-3-2-3-2-3-1-3-1-2-2c1-1 0-1-1-1-2 0-2 0-2-2l1-3h1c2 2 3 1 3-1l2-3 2-3c-1-2-6-2-7-1h-1l-4 1c-2 2-9-1-7-3v-9h1l4 1c2 1 3 1 3 4s1 4 5 4h4l-4-1c-6 0-6-4 0-4 4 0 10 2 10 4l3 1c1 0 2 0 1-1-3 0-3-4 0-4l1-1c0-1 1-2 7-2 5 0 6 0 6 2s-7 2-8 0h-2c-1 0-1 1 1 3 2 3 7 2 11-2l5-3c3 0 1-3-3-3l-4-1h4c5 0 5 0 8 4l4 4c2 0 3 3 1 4l-1 2 2-1c0-2 2-1 3 1l1 2 4 3 12 8 2 2 4 1c6 0 7 1 7 7a23 23 0 01-3 11l11 1c11 0 11 0 13-3l4-3 6-4 4-4 4-3 5-6 3-5 2-1 3-4 3-2 5-5 6-7 2-4 1-2 3-3 3-3 2-2 2-2 8-5 8-8c2-2 2-2 0-2h-2l4-1c3 1 4 1 5-1l5-2c3 0 4-1 3-3h2l3-1h3c2 0 6-1 8-3l3-2c3-1 5-4 3-5-1-1-1-12 1-14l-2-3v-1c2 0 2 1 2-13 1-12 1-13 6-24 2-5 2-6 1-8s-2-5-1-9v-9c0-5 3-14 7-19l3-6 2-3 5-5 2-3 1-2 5-8 1-2 1-1 1-1 1-2c1-1 8-13 11-21l2-3 1-2c-1-1 0-3 1-5l3-19c2-22 4-27 13-37a34 34 0 0112-9l5-3v-10c1-11 4-20 8-27l3-5 1-1 1-1 1-3 3-4 1-4 2-5 2-5 1-3 3-7 11-24 3-3 3-5 2-2 1-1c0-1-1-2-2-1l-3-1-1-1-1 2m-113 4l-1 2c-2-1-4 2-3 5v5c0 1 0 2 3 2s4-1 1-3v-2c1-2 2-11 0-11v2m-358-1l3 2c1-1 1 0 1 2 0 3-2 3-4 0l-2-1v2l2 4c0 2 0 3 2 3 1 0 2 0 1-1l-2-2c0-2 4-3 6-2l2 1-1-2-2-3c0-1-2-3-5-4-2 0-2 0-1 1m76 0l-2 1c-4 0-8 5-4 6h1c0-2 0-2 5-3 3-1 4-5 2-5l-2 1m254 2l1 2c1 0 2 1 1 3l1 3c2 0 1 3-2 4l-2 2a1 1 0 01-1 2c-2 0-1 2 0 3 2 1 5-1 5-4l2-1v-1l2-3c1-2 1-2-1-3-3-1-4-2-2-4v-2c-1-2-3-2-4-1M88 485c-2 3-6 4-6 2h-3c-1 1-1 3 2 3 1 0 1 1-1 4v8l-1 3 3-3c3-3 3-4 1-5v-4c2-4 4-5 5-4h1v-2l1-3-2 1m269 3v2a2 2 0 101 3c2-1 3 0 1 1v4c0 5 0 5 1 3 2-3 2-7 1-9l-1-2c1-2-1-3-3-3v1m-284 5c1 1 1 1-1 3-3 4-2 14 1 14l1-6 1-5c2-1 2-6 1-7-3-2-4-1-3 1m98-1c-4 0-8 4-8 9-1 4 0 6 3 4l4-1 7-2 6-3h2l-2-1c-4-1-7-3-5-3s2-1 1-3h-8m42 9c1 2 1 3-1 3l-1 1-1 1h-2l-2 1c-2 1-2 2-1 4s4 1 5-2c0-2 2-3 3-4 3-2 4-3 3-6-1-4-3-2-3 2m167 2l-1 1-7 6c-7 7-4 7 4-1 7-6 9-8 6-8l-2 2m-336 6l-3 3c-2 0-2 0-1 2l1 5c-1 2 3 3 5 0s3-8 2-9l-2-2c0-2-1-1-2 1m467 1l-2 2-2 1-3 2c-2 0-3 1-3 2l-2 2c-3 0-4 0-5 3l-3 3-1 2-3 2c-2 0-3 0-3 3 0 2 1 3 2 3 2 0 6-6 6-9h3l1 2v1h1l1-1 1 5a8 8 0 01-2 7h-1c-1-2-1-2-2 0l-3 3c-2 0-2 1-2 4 0 4-1 3-4-1v-6c2-4 2-4 0-4-1 0-3 3-4 11 0 5-1 8-2 8l-2 3-1 2-1-2c2-4 2-6 1-6-2 0-2 1-2 4l-3 6-4 5c-1 2-3 3-3 1 0-3-2-2-3 1l-3 2c-3 0-4 4-2 6 3 2 7 1 13-5l4-2 2-1c0-2 10-11 15-13l5-4 5-3 8-6 4-4v-30l-1 1m-310 4c-1 1-1 2-3 1-2 0-2 0-2 2l-1 3h-2c0 2 5 6 6 6v-4c1 1 2 0 2-1l2-1c2 0 3-4 2-6-2-3-4-3-4 0m286 0l-3 1h-1l1 1c3 1 3 4 1 3-2 0-2 1-2 5 0 3 0 4 2 4l1-4 1-4 1-4-1-2m-319 4l-2 3v-1h-4l-1 3c1 1 0 2-2 3-3 1-3 1-2 2s0 1-2 3l-2 2 3 1c3 1 3 1 2 2l-2 4-2 2-3 3-3 3c-2 0-3 0-3 2l-3 2c-2 0-4 3-4 4 1 1 0 2-1 1l-1 3c0 3 1 4 2 5 2 0 2 0 0 2v1c2 0 1 2-1 2l-4 3-4 3c-2 0-1 2 1 3s3 4 1 6v5c2 2 0 4-2 3-2 0-1 1 1 3v2l-1 2v3c-2 3 1 2 3-1l2-4 1-1a10 10 0 000-11l1-2 1-3 1-2c-1-1-1-2 1-2l2-3 2-5 4-8 2-5 1-3c0-2 1-3 2-3l2-2 4-6 4-7c0-2 2-6 4-7l2-6 2-5v-1c-1-2-2-1-2 2M2 517c-1 0-1 2 1 4 1 1 1 1 1-1-1-2 0-3 2 0v4c-1-1-5 3-5 4l7 1 7-1-2-1c-3 1-5-1-5-3 1-5-2-9-6-7m393 1l-1 1a5 5 0 01-3 3l-2-1a2 2 0 00-1 3l2 3 1 4c2 0 6-5 6-7-1-1 0-2 1-2l2-1 1-2c0-2-3-3-6-1m-40 8c-5 5-8 12-8 18 0 3 1 3 3-4l6-12c6-6 4-8-1-2m-159 2c-3 0-4 1-4 2 0 2 0 2-1 1l-4-1c-1 1-1 1 1 3v2l-2 3-2 1c-3 0-5 3-3 5 0 1-5 13-8 15v5c1 0 3-1 3-3l5-7 6-7c0-2 2-4 3-5l2-1-2-2-2-3 2 1c1 2 5 0 5-3l1-1 1-1 2-3c2-1 1-2-3-1m-165 8l-1 2-1 2c-2 0-2 1-2 2 0 2 10 3 13 1 2-2 0-3-6-1-3 1-3 1-2-2l4-4 3-1h-3l-5 1m356 1l-1 1-2 1-2 4c-4 3-4 4 0 4l3-2 3-4c2-3 3-5 1-5l-2 1m-124 3l-2 4c-1 4-1 5 1 5s4-3 4-7c1-4-2-5-3-2m-163 3l-5 3a13 13 0 00-6 3l1 2v4c2 1 3 0 3-2s3-3 3-1h2c2-1 2-1 0-1l-2-3 1-1c2 1 4 0 4-3v-2l-1 1M9 556l-3 2 2 1h1l1 2h7l3-2c2 0 1-2-2-2l-4-1H9m54 52c-1 0-3 1-3 3l-2 2-2 1v3l-1 2 3-2c6-6 8-10 5-9m87 7l-1 1-2 2-2 3-1 3v2h-1c-1 1 1 2 3 1l6-12-1-2-1 2m-101 8c1 1-3 2-7 2-2-1-2-1-2 2 1 2 0 3-1 4v1h-1c-3 0-3 0-3 2 0 3 0 3 3 2l3-1 2-3c3-3 2-3 0-3l-2-1c0-2 3-2 5-1l4-1c4-3 4-4 1-4l-2 1m-17 15c0 3-1 4-2 2l-2-1v1c1 1 1 3-2 3l-1 1c0 1-1 2-3 2-3 1-3 1-2 2 2 1 0 2-4 3-2 0-3 1-3 2l-4 2-3 2-2 1c-4 2-6 22-2 22l1-1 2-3 1-2 2-3c2 0 3-2 3-5 1-2 2-5 7-9l7-8 3-3 4-3a3 3 0 000-6v1m429 6a350 350 0 01-3 8l-1 2-1 2-1 2-2 2c0 2 0 2 2 1l2-2 2-3 2-4 2-2h1l1-3 1-2 1-2v-2h-3c0-2-2-1-3 3m31 10l-2 2-2 4c0 3 0 3-1 1-2-2-3 0-1 4v8c-1 6 0 14 2 20 1 4 1 11-1 11v1l-1 3v4l-2 7c-1 4-1 16 1 17 1 0 1 1-1 3l-2 4-3 1c-2-1-2-1-1 2 3 3 2 4 0 4l-2 2c1 1 0 2-1 3v2l2-2 2-3a32 32 0 0012-13 6 6 0 002-5c2-2 1-3-1-3s-2-1-1-4 1-3-1-5c-3-3-3-6 1-14 2-6 2-6 1-8-2-2-3-4-1-4l1 1v-7l1-14c1-7 0-27-1-22m-296 32c-15 2-28 13-20 16 7 3 30-4 33-9s-4-8-13-7m313 10v8h-1c-2-2-4-1-3 2v6c-2-1-2 0-6 8 0 2-1 3-2 3l-1 1c0 4 7-1 9-6l5-6c2-2 2-3 2-9-1-7-1-9-3-7m-71 14l-1 2-4 3c-8 9-8 9-9 8s-1 0-1 2l1 2 2-1c2 1 6-2 6-4l4-5c4-4 6-8 5-9-1-2-2-1-3 2m30 3l-2 4c-2 2-3 3-2 4 1 2-2 6-5 5-2 0-6 4-4 5l1 4c0 3 0 3 3 3 4-1 6 0 3 2v3c2 1 4 6 3 7l-1 5v5l-4 1c-4 0-6 2-2 2l3 2c1 3 4 2 8-2 3-4 4-6 2-8l-1-2v-9c-2-9-2-9 1-10h4c1 3 2 2 1-1l-3-4-2-4-2-3v-10l-1 1m-297 2l-3 3h2l1 1-2 1-2-1c0-2-2-3-4-2-2 0-3 1-3 2s0 2 1 1c3 0 3 2 2 6-1 3-1 3 1 3l3 2 2 1c1 0 4-4 2-5s-1-6 3-7c2-1 3-2 3-4 1-2-1-3-6-1m237 15c-3 2-1 4 2 3l1 3 2 1 2 2 1-1 3-1c2 1 1 0-1-2l-2-1-3-3c-3-3-3-3-5-1m14 1c-3 2-3 3-2 4 1 2 0 9-1 9-2 0-4 4-3 6l1 1c0-4 2-2 2 2s-2 5-3 3l-1-2a7 7 0 002 6v-1c2 0 0 5-3 7l-1 2v2l-3 4-3 4-1 2c0 2-2-2-4-5l-2-2-1-1-2-1c0 1 0 2 2 3v2c-2 0 0 2 2 2s3 2 1 3c-2 0-2 4 0 6s10-7 10-11l3-5 3-6 3-3 1-3 1-2 1-12 2-14c3-4 1-4-4 0m17 43v2c0 1-2 5-3 4-2 0-5 3-5 4 1 3 8 2 11-1 3-2 3-3 2-3-3 0-2-2 0-3 2 0 2 0 0-2l-2-1-2-1c-1-1-1-1-1 1m-228 1c1 1 1 1-1 1-2-1-3 7-1 10l1 2 1 2v-2c0-2 2-3 5-2 2 1 4 1 4-1l-3-1c-3 0-3 0-2-1v-5l-1-1 1-2c2 0-1-2-3-2l-1 2m283 2l-1 1c-1 0-2 1-2 3 0 3-2 5-7 5l-4 1h-1l-3 1-3 2c-2 0-1 2 1 2l3 1h-3c-2 1-3 6-1 6 3 0 5 4 4 6v3c1 0 2 1 2 3l1 4c4 0 2 7-2 7h-7c0-1 1-2 3-2l4-1c2-1 0-3-3-2l-3-1-1 1c-1 2-3 3-3 0a2 2 0 10-1 2c2 1 3 2 0 4v3c-3 2-4 1-3-2v-2l-3 2c-4 4-5 4-3-2 2-3 2-6 0-6h-1l1 4c-1 1-1 2-2 1h-6l-1 1c-1-1-4 1-6 3l-4 3-1 2-2 2-1 2h-2c-2-2-2-2-2 0h-3c-2-2-2-2-3 0v2c2 2 2 4 0 4l-4 3-5 1-10 7a18 18 0 01-8 6l-3 1c-2 0-3 1-3 2 0 4 0 4-2 4s-2 0 0-1l3-1-4-2c-4-2-7-2-7 0l-3 3-3 3-2 1-3 1-2 2v10l-1 2-1 4-1 2-2 2c-3 3-5 8-4 12 0 4 2 6 2 2l2-3 2-4c0-3 1-4 3-5 2 0 3-2 3-3l3-3 2-1 2-3 6-6 4-4 4-4 7-4c2 0 3-1 4-3l3-3 1-1 5-2h4l3-1c2-3 8-5 13-6l5-1 6-3 5-3 3-1 3-2 6-4 6-3 3-1 5-3 9-4 4-3c0-1 3-2 6-1 2 0 2 0 2-2v-3c2 1 9-5 8-6l6-9c2-2 2-4 2-8 0-7 0-7-3-7l-4 2c-2 3-3 6-1 5l-1 6-1 2a15 15 0 01-11 8c0 2-3 3-3 1v2c0 3 0 3-1 2l-2-2-1 2h-2l1-3v-1l-1 1-1 1c-2 0-1-2 2-3 2 0 3-1 3-2l2-1 2-1 3-1 1-2 1-4 1-10 1-7c2 0 1-2-1-3-1-1-2-1-2 1m-67 12l-1 1-3 2-4 3c-3 0-4 3-2 3l13-7 2-1 1-1h-6m-221 1l1 2v2l-4 1c-1 2-1 2 1 3 2 2 2 2-6 2-6 1-6 0-6 6l-1 4h5l4-1c0-2 5-3 7-2 1 2 1 2-1 2-2 1-2 2-2 3l1 3 1 1 1-1v-1l2 1c0 3 2 3 4 0l3-3 2-1 4-2c2-2 2-2 0-3l-3-3c0-2 0-2-3 0-3 1-5 1-5-1l-2-3-1-4c1-3 0-7-2-5m-25 47l-8 2a7 7 0 01-8 0l-1-1c-2-1-3-1-4 1-1 1-1 2 2 1 2 0 2 0 0 1-3 2-3 7 1 7l4-1 3-2 2-2 4-2c3-3 8-3 8 0 0 2 0 2 1 1 2-1 0-6-2-6l-2 1m326 7a3 3 0 01-4 5l-4-1c-3 0-3 0-2 2l1 3c1 4 5 7 6 6v5c0 3-2 2-1 0l-1-3-2-2a2 2 0 00-5 1l-2 2c-7 2-12 5-10 6 5 2 2 7-5 7-6 0-10 1-9 3 0 2-2 5-4 5l-1 1c0 1 1 2 5 2 7 0 7 0 3 6l-3 6-1 1-2 2c0 2 0 3-2 3l-2-1c0-2-3-2-4 1-1 2-1 2-2 1h-3c-2 4-1 4 13 4l14-1 3-3c3-2 4-2 4-1-2 2 1 5 4 5l3-1c-2-1-4-4-3-6 0-3 3-2 5 3 1 4 5 6 7 3h1c0 2 4 1 5-2l1-5c2-4 1-6-1-7s-2-1 0-1c3-1 3-1 3-12l-1-12-1-2h1l1-13v-14h-3c-2 0-2 0-2 4m-382 22l-3 2-2 2-1 2c-2 0 2 3 4 3l1-1a2 2 0 014 0c1-1 0-10-2-10l-1 2m126 6l-2 4c-2 1-3 3-3 5l-3 1-7 2 11 3c1-1 3 4 2 5a3 3 0 105 0l1-2c2-2 1-8-1-13l-1-5-1-1-1 1m-118 11c-5 0-5 0-5 3 0 2 0 2-3 2s-4 1-5 2c-1 4 0 6 3 6l3 1h8l6-2c5 0 6-1 6-3s0-2-2-2h-1l1-2v-2h1c-1 1 0 2 1 2l1 2 1 1c2 0 1-3 0-3l-2-3c0-1 0-2-1-1l-2-1-3-1-7 1"
      tabindex="-1" itemprop="bold" style="fill-opacity: 0.788; fill-rule: evenodd;"></path>
    </symbol>
  </defs>
  <use class="background" href="#-posters-1650604032675-background" fill="url(#-posters-1650604032675-background-gradient"></use>
  <use class="light" href="#-posters-1650604032675-light" fill="url(#-posters-1650604032675-light-gradient" filter="url(#light-filter)"></use>
  <use class="regular" href="#-posters-1650604032675-regular" fill="url(#-posters-1650604032675-regular-gradient" filter="url(#regular-filter)"></use>
  <use class="bold" href="#-posters-1650604032675-bold" fill="url(#-posters-1650604032675-bold-gradient" filter="url(#bold-filter)"></use>
  <use class="emboss" tabindex="-1" href="#-posters-1650604032675-light" fill="url(#-posters-1650604032675-light-gradient" filter="url(#emboss)"></use>
  <use class="emboss" tabindex="-1" href="#-posters-1650604032675-regular" fill="url(#-posters-1650604032675-regular-gradient" filter="url(#emboss)"></use>
  <use class="emboss" tabindex="-1" href="#-posters-1650604032675-bold" fill="url(#-posters-1650604032675-bold-gradient" filter="url(#emboss)"></use>
  <defs>
    <g class="gradients">
      <radialGradient gradientUnits="userSpaceOnUse">
        <stop itemprop="radial" stop-color="hsla(65, 8%, 31%, 1.00)" offset="0%"></stop>
        <stop itemprop="radial" stop-color="hsla(69, 8%, 33%, 1.00)" offset="15%"></stop>
        <stop itemprop="radial" stop-color="hsla(44, 11%, 35%, 1.00)" offset="30%"></stop>
        <stop itemprop="radial" stop-color="hsla(45, 11%, 36%, 1.00)" offset="45%"></stop>
        <stop itemprop="radial" stop-color="hsla(72, 8%, 36%, 1.00)" offset="60%"></stop>
        <stop itemprop="radial" stop-color="hsla(94, 7%, 37%, 1.00)" offset="75%"></stop>
        <stop itemprop="radial" stop-color="hsla(90, 7%, 33%, 1.00)" offset="90%"></stop>
      </radialGradient>
      <linearGradient gradientUnits="userSpaceOnUse" x1="0" x2="0" y1="0" y2="100%">
        <stop itemprop="vertical" stop-color="hsla(69, 8%, 32%, 1.00)" offset="0%"></stop>
        <stop itemprop="vertical" stop-color="hsla(42, 11%, 35%, 1.00)" offset="15%"></stop>
        <stop itemprop="vertical" stop-color="hsla(72, 8%, 36%, 1.00)" offset="30%"></stop>
        <stop itemprop="vertical" stop-color="hsla(90, 7%, 34%, 1.00)" offset="45%"></stop>
        <stop itemprop="vertical" stop-color="hsla(65, 8%, 33%, 1.00)" offset="60%"></stop>
        <stop itemprop="vertical" stop-color="hsla(42, 11%, 36%, 1.00)" offset="75%"></stop>
        <stop itemprop="vertical" stop-color="hsla(81, 8%, 36%, 1.00)" offset="90%"></stop>
      </linearGradient>
      <linearGradient gradientUnits="userSpaceOnUse" x1="0" x2="100%" y1="0" y2="0">
        <stop itemprop="horizontal" stop-color="hsla(69, 8%, 31%, 1.00)" offset="0%"></stop>
        <stop itemprop="horizontal" stop-color="hsla(85, 8%, 31%, 1.00)" offset="15%"></stop>
        <stop itemprop="horizontal" stop-color="hsla(66, 6%, 31%, 1.00)" offset="30%"></stop>
        <stop itemprop="horizontal" stop-color="hsla(55, 8%, 31%, 1.00)" offset="45%"></stop>
        <stop itemprop="horizontal" stop-color="hsla(95, 7%, 33%, 1.00)" offset="60%"></stop>
        <stop itemprop="horizontal" stop-color="hsla(125, 6%, 35%, 1.00)" offset="75%"></stop>
        <stop itemprop="horizontal" stop-color="hsla(102, 6%, 32%, 1.00)" offset="90%"></stop>
      </linearGradient>
    </g>
    <g class="generated gradients">
      <radialGradient id="-posters-1650604032675-background-gradient" gradientUnits="userSpaceOnUse">
        <stop stop-color="hsla(65, 8%, 80%, 1)" offset="0%"></stop>
        <stop stop-color="hsla(69, 8%, 80%, 1)" offset="15%"></stop>
        <stop stop-color="hsla(44, 11%, 80%, 1)" offset="30%"></stop>
        <stop stop-color="hsla(45, 11%, 80%, 1)" offset="45%"></stop>
        <stop stop-color="hsla(72, 8%, 80%, 1)" offset="60%"></stop>
        <stop stop-color="hsla(94, 7%, 80%, 1)" offset="75%"></stop>
        <stop stop-color="hsla(90, 7%, 80%, 1)" offset="90%"></stop>
      </radialGradient>
      <linearGradient id="-posters-1650604032675-light-gradient" gradientUnits="userSpaceOnUse" x1="0%" x2="0" y1="0" y2="100%">
        <stop stop-color="hsla(69, 8%, 60%, 0.9)" offset="0%"></stop>
        <stop stop-color="hsla(42, 11%, 60%, 0.9)" offset="15%"></stop>
        <stop stop-color="hsla(72, 8%, 60%, 0.9)" offset="30%"></stop>
        <stop stop-color="hsla(90, 7%, 60%, 0.9)" offset="45%"></stop>
        <stop stop-color="hsla(65, 8%, 60%, 0.9)" offset="60%"></stop>
        <stop stop-color="hsla(42, 11%, 60%, 0.9)" offset="75%"></stop>
        <stop stop-color="hsla(81, 8%, 60%, 0.9)" offset="90%"></stop>
      </linearGradient>
      <linearGradient id="-posters-1650604032675-regular-gradient" gradientUnits="userSpaceOnUse" x1="0" x2="100%" y1="0" y2="0">
        <stop stop-color="hsla(69, 8%, 50%, 1)" offset="0%"></stop>
        <stop stop-color="hsla(85, 8%, 50%, 1)" offset="15%"></stop>
        <stop stop-color="hsla(66, 6%, 50%, 1)" offset="30%"></stop>
        <stop stop-color="hsla(55, 8%, 50%, 1)" offset="45%"></stop>
        <stop stop-color="hsla(95, 7%, 50%, 1)" offset="60%"></stop>
        <stop stop-color="hsla(125, 6%, 50%, 1)" offset="75%"></stop>
        <stop stop-color="hsla(102, 6%, 50%, 1)" offset="90%"></stop>
      </linearGradient>
      <linearGradient id="-posters-1650604032675-bold-gradient" gradientUnits="userSpaceOnUse" x1="0" x2="100%" y1="0" y2="0">
        <stop stop-color="hsla(69, 10%, 8%, 1)" offset="0%"></stop>
        <stop stop-color="hsla(42, 10%, 8%, 1)" offset="15%"></stop>
        <stop stop-color="hsla(72, 10%, 8%, 1)" offset="30%"></stop>
        <stop stop-color="hsla(90, 10%, 8%, 1)" offset="45%"></stop>
        <stop stop-color="hsla(65, 10%, 8%, 1)" offset="60%"></stop>
        <stop stop-color="hsla(42, 10%, 8%, 1)" offset="75%"></stop>
        <stop stop-color="hsla(81, 10%, 8%, 1)" offset="90%"></stop>
      </linearGradient>
    </g>
  </defs>
  <defs>
    <filter id="light-filter">
      <feColorMatrix in="SourceGraphic" type="matrix" values="1.5 0 0 0 0
                0 1.5 0 0 0
                0 0 1.5 0 0
                0 0 0 1.5 0"></feColorMatrix>
    </filter>
    <filter id="regular-filter">
      <feColorMatrix in="SourceGraphic" type="matrix" values="1.5 0 0 0 0
                0 1.5 0 0 0
                0 0 1.5 0 0
                0 0 0 1 0"></feColorMatrix>
    </filter>
    <filter id="bold-filter">
      <feColorMatrix in="SourceGraphic" type="matrix" values="1 0 0 0 0
                0 1 0 0 0
                0 0 1 0 0
                0 0 0 1 0"></feColorMatrix>
    </filter>
    <filter id="emboss">
      <feConvolveMatrix kernelMatrix="1 0 0
                      0 0 0
                      0 0 -1"></feConvolveMatrix>
    </filter>
  </defs>
</svg>
