<svg id="-posters-1650604114516" itemscope="" itemtype="/posters" itemid="/+/posters/1650604114516" viewBox="0 0 512 738" preserveAspectRatio="xMidYMid slice" tabindex="0" xmlns="http://www.w3.org/2000/svg"><defs><symbol id="-posters-1650604114516-background"><rect itemprop="background" width="100%" height="100%" tabindex="-1"></rect></symbol><symbol id="-posters-1650604114516-light"><path d="M0 369l1 369 1-368V2h2l66-1h63v4c-1 3 0 9 1 16l1 11 2 5 8 15 4 6 5 8c1 3 9 10 21 21 10 9 10 13-2 22-4 2-5 4-4 5 0 2 0 2-1 1-2-2-5-3-5-1l1 2 6 10c6 11 8 14 15 21l4 5-1-1h-1l1 2 3 2 4 2 2 2 1 1 2 1 2 1c2-1 2-1-1-4l-5-2-3-2c-2-2-2-2 2 0s6 2 15 3l14 1c3 2 3 2 5-1l3-2v2l-1 3v3l1 4c-1 1 0 2 1 2h4v1l-2 1-1 1-3 3v5l-1 2-2-4-3-4-1-2c1-1 1-1 0 0-1 2-2 2-4 1l-1-1-1-1c-2-1-2-1 0-1l2 1h1c0-1-1-2-3-2s-2 0 0-1l2-3 2-2c5-1-1-6-7-5-4 0-2 2 2 2h3l-2 1-2 1-5 2h-4l4 3c3 3 3 4 2 6v3l2 4c0 2 0 2-2-2v7l-2-4c-1-5-3-6-8-5-2 1-2 1-2 4 1 4-1 11-3 11l-2 2h-2c0-1-1-1-2 1-1 1-1 1-1-2l1-8v-6c-2-2-9 0-9 3l1 3v9h-1l-1-1c-1 1-4-3-3-3v-10l-5-1-3-1c-3 0-4-2-6-13l-3-10v-3c3 1 2-4 0-9l-2-5c0-3-4-12-6-15-4-5-5-3-1 2 3 4 5 12 5 18 0 3 0 2-2-3-3-15-7-19-15-16-15 6-19 17-16 44l3 25c1 13 3 19 8 28 4 9 14 20 19 21 3 0 4 2 4 5l1 2h3c1 1 1 1-1 1-4-2-20 21-22 32-10 41-12 63-6 71 2 3 9 20 18 50 10 29 12 36 13 48l2 16 1 21c0 14 0 18 2 28 6 24 13 52 20 70 7 20 9 25 9 30s-5 20-8 26c-18 30-20 47-7 54 8 4 17 0 27-10 7-8 8-10 9-19 1-14 2-15 5-14 2 0 3 0 6-3l4-3v-15a53 53 0 00-5-32l-3-8-1-35c-1-38-4-67-7-69-3-3-5-23-3-34 2-10 3-25 1-30-2-7-3-27-2-51v-24l7 13 14 24 18 25 12 22c11 22 12 25 17 30 8 10 10 16 10 29l1 12a125 125 0 0012 41l4 7a682 682 0 0117 37c7 15 10 25 10 37a127 127 0 003 28c0 6 2 9 8 11l4 2 5-3 6-3c1-1 4 4 6 9 3 11 34 23 45 17 4-2 5-4 5-10 0-8-2-11-14-21-19-15-34-36-39-55l-14-92a57 57 0 00-11-34l-5-9-4-12-6-18-10-28c-4-18-12-38-19-55l-9-23-5-13-11-22c-2-3-5-14-7-26-2-8-6-17-9-20-3-2-3-3-3-9v-6c4 0 30-6 31-8 4-3 5-10 5-27 0-18-1-26-9-50l-4-15c-2-5-7-15-10-17-2-2-11-5-22-8l-14-3-6-3-1-6c0-5 0-6 3-10 4-5 5-7 6-15 1-7 5-17 9-22l4-8 4-7c2-4 3-16 2-19-2-5-4-6-10-6h-3l2-5 1-3h28L148 0H0v369m510-1l1 369h-76l-75 1h152V369L511 0l-1 368M157 117c-5 2-5 2-2 4l7 14 2 1 1 2c-1 1 0 2 1 2l1 2c0 3 2 6 5 6 2 1 3-2 1-3l-1-2c2-1 6 5 5 7-1 1 0 1 2 1l3 2h-2c-3-2-3 0-1 3 3 3 4 4 7 4 5 0 5 0 2-4-4-5-4-7-2-6v-1c-1-1-2-2-3-1l-2-2-2-3 1 1h-1l-1-1c2 1 1-1-1-3l-5-8-2-3c-1 0-5-7-5-10 0-4-3-5-8-2m14 3c0 3 4 9 7 15 5 9 16 17 25 19l-4-3c-9-4-20-15-24-25-4-8-6-11-4-6m-12 1c-1 1-1 1 0 0l-1-1c-2 0-1 2 2 5a32 32 0 019 11l-3-8-1-2-1-1-2-3c-1-3-2-3-3-1m60 56l1 3 3 8c3 12 5 10 2-2l-1-7c1-3 1-3-2-3l-3 1m-35 3l1 2 1 6 1 7 1-5 1-7 2-3h-7m-19 58c-2 0-3 2-3 2 0 2 3 7 5 7 1 0 1-1-1-3-3-5 0-4 5 2 5 5 9 6 5 1-3-3-4-6-3-6l13 7c1 2 9 6 10 6l-2-2c-1-1-2-2-1-3l-1-1c-1 1-5-4-5-5l5 2c5 3 6 3 7-1 1-2 1-2 6-2h-1c-21-5-35-7-39-4" tabindex="-1" itemprop="light" style="fill-opacity: 0.387; fill-rule: evenodd;"></path></symbol><symbol id="-posters-1650604114516-regular"><path d="M0 133l1 160 1-130V3c0-2 4-2 65-2l66-1H0v133M134 6a80 80 0 0012 45c4 9 17 26 19 26l9 8c12 12 12 16-2 26l-3 2 5 9c6 12 7 13 13 19 20 21 49 9 49-20l1-5v13c-3 20-20 30-39 24-10-4-18-13-26-28-5-11-7-14-7-11l1 2 6 12c21 42 67 36 67-10 0-8 0-9 2-8 5 1 1-1-6-3-12-4-13-5-13-11 0-5 1-6 4-11 4-5 6-12 6-18a74 74 0 0111-22l3-7c4-9 6-20 3-24-2-3-2-3-7-3-6 0-7-1-4-3l2-2V3l1-3H134v6m377 141c0 80 1 113 1 73a24838 24838 0 00-1-73m-264-25l2 18 2 11c0 5 1 8 5 16a45 45 0 014 11c0-2 0-2-1-1s-2 0-3-2c-2-3-2-3-6-2-6 0-6 1-2 1h4l-2 2c-2 2-3 7-1 9v-3c0-3 2-4 5-2l2 3h1c1-2 1-2 1 0s-1 3-3 1c-1-1-4 0-3 1l-2 2-4 4-2 2-1 1-4 1c-3 0-3 0-3-3l2-7c0-3 1-5 2-5 1-1 2-6 0-6v2l-1 2-2 2c0 4-3 15-4 13s-1-2-1 0c0 5-2 3-4-3l-2-10c1-5 0-8-1-3-1 3 0 7 1 11 3 9 3 9-3 9h-6c-1 1-3-4-5-12-1-6-3-10-4-9l2 10c2 9 2 13-1 10h-8c0 1-2 2-5 1h-5l-1-7 1-6 1-3c0-2 0-2-1 0l-1 2-1 7c-1 8-2 8-3-1l-1-6v14l-3-1c-4-2-7-6-5-8 1 0 2-2 2-5v-3l-1 3c0 5-2 7-5 4-2-2-3-5 0-5 1-1 1-1-1-1-5 0-4 5 1 8l1 2a8 8 0 01-6-11c2-2 1-3-2-1-4 1-5 1-3-2l2-3-2-7c0-3-1-4-2-3h-1c0-28-2-38-7-43-2-2-2-1 1 4 3 4 5 17 4 21 0 4-2 2-2-4 0-10-6-21-11-20-14 4-20 14-20 29 0 8 2 28 3 26l1 10c0 20 6 34 17 46 7 8 9 8 16 5 5-3 18-4 21-2l24 4c10 1 28 5 24 5l-1 1 1 1c1 0 3 0 4 2h2c0-2 2-1 2 1-1 2-5 4-6 4-1-1-3 0-5 1-3 2-31 1-38-1-10-3-28-5-30-4l-9 11c-10 12-12 18-18 54-2 12-1 33 1 35l19 51c9 27 12 38 13 52l2 15v19c0 15 2 30 10 56l5 19 8 24c11 29 11 36-1 57-15 28-18 43-7 50 8 6 14 4 25-7 9-8 10-11 12-24 1-11 2-13 5-11 3 1 8-2 9-7 2-8 1-29-2-36-5-14-6-20-7-56-1-39-3-62-7-65-3-2-3-25-1-42 1-9 1-11-1-23-2-14-3-57-1-70l1-5 5 11c8 14 11 19 22 34l13 19 7 12c14 30 17 35 22 41 7 8 8 13 9 26 0 23 5 40 22 74 6 10 13 26 16 34l5 16v10l1 19 2 11c0 10 14 14 22 6 2-2 4 1 7 8 2 6 8 11 24 17 15 6 24 3 25-7 2-9 0-12-14-23-23-17-38-44-42-72a2597 2597 0 00-8-57c-3-26-6-40-8-41-3-2-13-25-15-33-2-9-4-14-8-23l-8-24a288 288 0 00-16-46l-3-7-3-7-2-7-6-15c-3-9-13-28-14-29l-7-23c-1-11-7-22-10-24l-3-6c-2-8-3-7 22-12 10-2 11-3 13-9 6-14 4-37-7-71l-5-18c-4-13-9-17-24-20l-3-1v12m264 463c0 96 0 153 1 152V463l-1 122M1 496c0 29 1 41 1 26a3115 3115 0 00-1-26m0 108c0 16 1 22 1 14a801 801 0 00-1-14" itemprop="regular" tabindex="-1" style="fill-opacity: 0.707; fill-rule: evenodd;"></path></symbol><symbol id="-posters-1650604114516-bold"><path d="M135 5c-1 8 0 12 3 13l3 1h-3c-3 1-3 5-1 6v1c-1 0-1 6 1 9l2 4 1 2 5 8 6 11 6 9 7 6a7 7 0 014 5l7 6 6 5c1-7-2-18-5-18-3-1-6-6-6-9 0-2 2-3 2 0 2 3 2 0 3-7 0-5 0-8 2-12l3-6c0-6 10-14 13-11 1 1 2 0 4-1l7-2 7-1c4-1 6 0 8 2l3 3c2 1 2 1 0-5l1-1 5 12a4 4 0 004 5v1l-1-1c-2-2-12-1-12 2l2 1c2 0 1 1-3 1-3 1-3 2-3 5s0 4-1 3l-1-1c-2 0-1 2 1 4 4 4 5 6 4 7 0 2-2 3-2 1a2 2 0 00-4 0l-1 1v1l1-1h3c3 2 6 2 6 0-1-1-1-1 0 0 2 3 3 1 1-1-1-2 1-3 5-3l4-1h1c2 1 4-5 3-10 0-4 0-5 1-3 1 3 4 1 7-5 0-3 2-6 3-7l1-11c0-13-1-14-11-11-2 0-3-1 0-4l1-4 1-3-52-1h-52v5m58 36c-2 0-3 1-3 2v1c-2 0-7 6-6 8l2 1 2 2 1 2c2 2 2 2 1 3-3 2 1 3 6 3 4-1 5-1 5 1-1 1 0 1 2 1s2 0 1-2l-2-2 1-3c2-4 3-13 1-13l-1-1-2-3h-8m4 50l3 2 1 1-1 1 2-1c4-3 14 2 11 5l-1 6c0 4 0 4 2 3 0-2 1-3 2-3l2-6a9 9 0 013-6c0-1-3-2-10-2h-14m25 14c0 5 0 5-2 6l-5 6c0 2 17 1 18-1 1-1 1-1-5-1-4 0-4 0-2-1l1-2-1-3c0-3 1-3 2-2 2 0 2 0 1-1l-4-2-2-2c-2-1-2-1-1 3m30 11v18c1 2 1 2 2 0v-2c-3-1 1-6 6-6 2-1 4 1 3 2h2c2 0 3 1 3 2l2 2c1-1 3 1 4 4l1 3c0-1-2-10-5-15-1-4-4-6-2-2a2 2 0 11-2-1l1-3-9-4c-2 0-2 0 1 2l3 2c-1 1 0 1 1 1 2-1 3 1 1 3-1 0-3 0-5-2l-2-2c1 0 2 0 1-1l-2-1-1-1-1 1-1 2v-2c-1-2-1-2-1 0m-94 60l2 4-1 2-1-1-1-2-3-2c-1-2-2-2-2-1l4 6c4 4 5 6 3 6-3 1 6 7 10 7 2 0 2 0 1-1l-6-5a62 62 0 00-6-13m128 16l-2 6-1 6c-1 4 1 7 3 5h2v-19l-2 2m-48 14c-2 0-4 2-6 4l-6 5-4 2-2 1-8 4a36 36 0 01-11 5h-3c-2-1-6 0-7 1l-11 3a57 57 0 00-14 3c-1 0 2-5 4-5l10-6-1-1-2 1h-4c-3 0-4 0-5 2l-3 3-3 2-3 2c0-1-2 0-3 2l-1 2-2 1c-2 1-2 1 0 1l2 1 6-1c3-2 9-3 15-4l14-2c7-2 8-2 11-1 2 1 2 1 2-1h1c0 2 1 2 1 1h2c2 1 5-2 4-3-2-2 0-3 5-3h2c-1 0-2-1-1-2h3l5-5 16-13c2-2 0-1-3 1m20 15c-1 3-1 3 2 3l2 1 2 1c1-1 1-1 0 0l4 1h6l7-1h-1l-4-2c-2-3-7-3-11-2-2 1-3 1-4-1l-2-2-1 2m-12 31c-12 6-35 7-60 2l-19-4h-7l-3 4c-9 9-15 21-17 31l-3 12c-4 17-7 47-4 41 1-2 1-2 1 1l1 6-1 1c-2-2-1 3 1 5 4 2 5 1 5-5l1-6v-4c-2-4-2-22 0-22l4 3c1 2 3 3 3 2 1-1 0-2-3-5l-5-5 2-8 3-9 1-7 2-6 3-6 3-4 1-3 1-2 4-5c2-5 4-6 7-6 2 0 2 1 1 2l-1 2c2 0 2 1 2 4-1 3-1 3 1 3a2 2 0 111 3l-1 2-2 2-2-1c1-2 0-2-2-2s-1 4 2 4c1 1 1 1-1 2-3 1-2 2 1 2 5 0 9 2 8 6 0 2 0 3-2 3s-2 0-1-1c2-1 2-1-7-3-6-2-7-2-9-1h-5c-3 1 1 4 5 5 3 1 3 1 1 4a6 6 0 01-4 4c-3 1 0 7 3 8 2 1 2 1 1 2-3 2-1 9 4 9l2 1h-7l3 2c4 0 6 1 6 3-1 2-8 2-10-1h-3c-3 3 0 5 9 6l3 2-7 1h-6l-1 3c0 4 1 4 7 4l2 2 2 1 2 2c0 1-5 2-5 0-2-2-5-1-8 2a6 6 0 01-5 2l4 1c1-1 9 1 9 3l-2 1-2 1 2 1 3 2 1 2h-2l-5-1c-1-2-8-1-8 1 0 4 42 6 52 3 4-1 6 0 3 1h2c4 0 4 3 0 5-2 1-4 6-2 6l1-2c0-2 2-3 3-1v26l-2 8v9c-1 2-1 2 1 2l2-1 2-1 1 2 1 2v-5l1-3h1l1-12 3-28 1-18 3 5c12 22 15 28 17 27l1 1c-1 1 0 3 1 5 3 4 4 4 2 0l-2-8-1-7c-1-1-1-2 1-4 1-2 3-3 3-2l-1 2-1 2h8l1 1c-1 0-2 0-1 1h2c2 0 2 0 3 3 0 3 1 4 3 2 1-1 0-2-1-3l-1-6a57 57 0 00-1-13l-1-3a2 2 0 010-4l1-2c0-3 4-6 17-8 16-4 17-4 19-3 2 2 1 0-1-4l-2-3-3-3c0-2-2-5-4-5l-2-3h5c1 1 1 1 0 0l-2-2a4 4 0 01-3-5l1 2 2 1a41 41 0 00-9-18l-1-1-1 1c0 2-5 1-7-1l-3-2-1-1-2-1-1-1 3 1 5 1c4 0 4 0 3-3-2-4-1-6 1-3l2 3-1-3-1-5-1-3v-3l-2-7-3-8c-3-9-4-9-13-4m-60 7l-2 5-1 1c-3 1-2 3 0 5 3 3 4 3 4-3l1-8v-3s-2 1-2 3m77 51l-1 1v2l-5 1c-4-1-9 0-7 1 4 3 18-1 18-5h-5m5 8l-5 1c-4 0-8 3-4 3l1-1v-1l2 2 3 2c3 0 5-2 3-3v-1a2 2 0 001-3l-1 1m-78 7l9 4c1 0 4 4 3 6l3 1 3-1 2-1c2-1-2-5-4-5l-4-1-4-1-3-1-5-1m12 89c-1 2-2 4-1 5 0 2-2 3-4 1h-1l-2-1c-4-2-10 0-7 4v1l-1 7c0 5 0 6-2 6-1-1-1 0-1 2v6l1 2 1 1 1 2 2 3c2 2 2 2 1 3v4c0 3 0 5-2 7l-1 5v4c-1 4-1 4 1 6l2 4 1 2v2c-2 1-2 3-1 3 2 2 0 6-2 7-5 2-16 2-16 1l-1-2c-2 1-2 2 2 19 5 21 11 44 19 65 12 35 12 39-2 63-5 9-10 22-12 29-3 11 9 20 19 15l4-1 1-1h1l-1 2-4 2c-2 2-10 2-14-1l-3-1c-1 1 8 5 11 5 5 0 10-3 19-11 7-7 9-11 9-21 1-10 2-14 4-13l3 1 5-3 3-3v-14c1-14 1-15-2-21-6-17-6-19-7-55-1-33-1-37-6-65 0-3-1-4-2-1-2 3-5 1-5-4l-1-5v-3l1-6c0-3 0-4 1-3l1-6 2-10v-4l-1 3c-2 4-3 3-5-3l-1-5-1 2c2 5 2 8 1 8l-1 3v7l-2 8-1 5-1 2-1 2v-4c2-1 0-12-2-12-3-1-4-4-2-6l2-5 2-2a2 2 0 001-3l1-2c3-2 3-12 1-18v-4c1 0 0-5-2-7v-4l-2 1m103 12a3 3 0 104 0c-1-2-2-2-4 0m0 8c-2 1-2 2-2 4 1 2 1 2 1 0 0-3 1-4 3-2 1 1 1 2-1 3-1 1-1 1 1 1s2 1 0 7a1 1 0 102 0l2-1c2 0 2 0 1-2l1-3-1-2-2-1-1-1 1-1v-2h-5m-4 22l-1 5v3c-3 0-2 2 0 4l2 3 1 3 1-1c-1-3 0-2 2 0 1 2 1 3-1 4-4 3-4 3-3 4 3 2 6 0 6-2s0-3 2-3 2-1 1-1c-3-1-5-8-3-10v-9c0-4-4-4-7 0m30 1v12l-1 2h-1v-6l-3-5c-1-4-3-3-3 2 0 2-1 3-2 3-1-1-1 0-1 4 1 6 3 10 4 10v1c-2 1-2 1-1 2l2 2h-1l-3-1c-1 1-2 0-2-1-1-1-10-2-10 0l2 1c2 0 10 8 9 10 0 2 0 2 2 1l6-1c4 0 5 3 1 6v1l-7 3c-11 4-21 0-25-8-2-5-3-4-3 3 3 20 8 37 22 63 8 17 11 22 18 42 4 12 4 13 4 23 0 13 2 30 5 34l9 5c2 0 10-6 10-7 0-3 2-1 8 10 3 7 6 9 19 15 20 8 30 5 29-8-1-8-2-10-13-18-19-15-34-36-39-56-3-9-4-13-11-66-4-26-6-42-8-47 0-2-2-3-2-1l-3 3-5 1c-2 1-3 0 0-2v-2h-1l-1 1-1-3-1-4c-2 0-2-1-1-3 2-4 3-8 1-11l-1-3a14 14 0 00-1-7m-43 10l5 9c0 5 1 6 1 3v-3l3 2 4 1c1-1-1-4-3-5l-3-2-1-1c-2 0-5-5-4-7h-4l2 3m-119 1v11l1 7 1-4v-5c2-1 2-2 0-7-3-7-3-8-2-2m38 10v2l-2 1c-4 2-3 11 2 11 2-1 4-2 2-2l-1-6-1-6m165 192a54 54 0 0021 12c7 3 19 4 19 2h-4l-9-1-6-2c-3-1-16-7-19-10l-2-1" tabindex="-1" itemprop="bold" style="fill-opacity: 0.875; fill-rule: evenodd;"></path></symbol></defs><use class="background" href="#-posters-1650604114516-background" fill="url(#-posters-1650604114516-background-gradient"></use><use class="light" href="#-posters-1650604114516-light" fill="url(#-posters-1650604114516-light-gradient" filter="url(#light-filter)"></use><use class="regular" href="#-posters-1650604114516-regular" fill="url(#-posters-1650604114516-regular-gradient" filter="url(#regular-filter)"></use><use class="bold" href="#-posters-1650604114516-bold" fill="url(#-posters-1650604114516-bold-gradient" filter="url(#bold-filter)"></use><use class="emboss" tabindex="-1" href="#-posters-1650604114516-light" fill="url(#-posters-1650604114516-light-gradient" filter="url(#emboss)"></use><use class="emboss" tabindex="-1" fill="url(#-posters-1650604114516-regular-gradient" href="#-posters-1650604114516-regular" filter="url(#emboss)"></use><use class="emboss" tabindex="-1" fill="url(#-posters-1650604114516-bold-gradient" href="#-posters-1650604114516-bold" filter="url(#emboss)"></use><defs><g class="gradients"><radialGradient gradientUnits="userSpaceOnUse"><stop itemprop="radial" stop-color="hsla(6, 16%, 80%, 1.00)" offset="0%"></stop><stop itemprop="radial" stop-color="hsla(7, 17%, 74%, 1.00)" offset="15%"></stop><stop itemprop="radial" stop-color="hsla(9, 25%, 32%, 1.00)" offset="30%"></stop><stop itemprop="radial" stop-color="hsla(8, 20%, 55%, 1.00)" offset="45%"></stop><stop itemprop="radial" stop-color="hsla(6, 16%, 77%, 1.00)" offset="60%"></stop><stop itemprop="radial" stop-color="hsla(6, 16%, 81%, 1.00)" offset="75%"></stop><stop itemprop="radial" stop-color="hsla(6, 16%, 79%, 1.00)" offset="90%"></stop></radialGradient><linearGradient gradientUnits="userSpaceOnUse" x1="0" x2="0" y1="0" y2="100%"><stop itemprop="vertical" stop-color="hsla(6, 16%, 80%, 1.00)" offset="0%"></stop><stop itemprop="vertical" stop-color="hsla(7, 21%, 45%, 1.00)" offset="15%"></stop><stop itemprop="vertical" stop-color="hsla(7, 20%, 57%, 1.00)" offset="30%"></stop><stop itemprop="vertical" stop-color="hsla(6, 16%, 81%, 1.00)" offset="45%"></stop><stop itemprop="vertical" stop-color="hsla(6, 16%, 79%, 1.00)" offset="60%"></stop><stop itemprop="vertical" stop-color="hsla(6, 17%, 76%, 1.00)" offset="75%"></stop><stop itemprop="vertical" stop-color="hsla(8, 23%, 37%, 1.00)" offset="90%"></stop></linearGradient><linearGradient gradientUnits="userSpaceOnUse" x1="0" x2="100%" y1="0" y2="0"><stop itemprop="horizontal" stop-color="hsla(6, 17%, 79%, 1.00)" offset="0%"></stop><stop itemprop="horizontal" stop-color="hsla(6, 17%, 76%, 1.00)" offset="15%"></stop><stop itemprop="horizontal" stop-color="hsla(7, 21%, 38%, 1.00)" offset="30%"></stop><stop itemprop="horizontal" stop-color="hsla(7, 19%, 62%, 1.00)" offset="45%"></stop><stop itemprop="horizontal" stop-color="hsla(5, 16%, 70%, 1.00)" offset="60%"></stop><stop itemprop="horizontal" stop-color="hsla(6, 16%, 80%, 1.00)" offset="75%"></stop><stop itemprop="horizontal" stop-color="hsla(6, 16%, 79%, 1.00)" offset="90%"></stop></linearGradient></g><g class="generated gradients"><radialGradient id="-posters-1650604114516-background-gradient" gradientUnits="userSpaceOnUse"><stop stop-color="hsla(6, 16%, 80%, 1)" offset="0%"></stop><stop stop-color="hsla(7, 17%, 80%, 1)" offset="15%"></stop><stop stop-color="hsla(9, 25%, 80%, 1)" offset="30%"></stop><stop stop-color="hsla(8, 20%, 80%, 1)" offset="45%"></stop><stop stop-color="hsla(6, 16%, 80%, 1)" offset="60%"></stop><stop stop-color="hsla(6, 16%, 80%, 1)" offset="75%"></stop><stop stop-color="hsla(6, 16%, 80%, 1)" offset="90%"></stop></radialGradient><linearGradient id="-posters-1650604114516-light-gradient" gradientUnits="userSpaceOnUse" x1="0%" x2="0" y1="0" y2="100%"><stop stop-color="hsla(6, 16%, 60%, 0.9)" offset="0%"></stop><stop stop-color="hsla(7, 21%, 60%, 0.9)" offset="15%"></stop><stop stop-color="hsla(7, 20%, 60%, 0.9)" offset="30%"></stop><stop stop-color="hsla(6, 16%, 60%, 0.9)" offset="45%"></stop><stop stop-color="hsla(6, 16%, 60%, 0.9)" offset="60%"></stop><stop stop-color="hsla(6, 17%, 60%, 0.9)" offset="75%"></stop><stop stop-color="hsla(8, 23%, 60%, 0.9)" offset="90%"></stop></linearGradient><linearGradient id="-posters-1650604114516-regular-gradient" gradientUnits="userSpaceOnUse" x1="0" x2="100%" y1="0" y2="0"><stop stop-color="hsla(6, 17%, 50%, 1)" offset="0%"></stop><stop stop-color="hsla(6, 17%, 50%, 1)" offset="15%"></stop><stop stop-color="hsla(7, 21%, 50%, 1)" offset="30%"></stop><stop stop-color="hsla(7, 19%, 50%, 1)" offset="45%"></stop><stop stop-color="hsla(5, 16%, 50%, 1)" offset="60%"></stop><stop stop-color="hsla(6, 16%, 50%, 1)" offset="75%"></stop><stop stop-color="hsla(6, 16%, 50%, 1)" offset="90%"></stop></linearGradient><linearGradient id="-posters-1650604114516-bold-gradient" gradientUnits="userSpaceOnUse" x1="0" x2="100%" y1="0" y2="0"><stop stop-color="hsla(6, 10%, 8%, 1)" offset="0%"></stop><stop stop-color="hsla(7, 10%, 8%, 1)" offset="15%"></stop><stop stop-color="hsla(7, 10%, 8%, 1)" offset="30%"></stop><stop stop-color="hsla(6, 10%, 8%, 1)" offset="45%"></stop><stop stop-color="hsla(6, 10%, 8%, 1)" offset="60%"></stop><stop stop-color="hsla(6, 10%, 8%, 1)" offset="75%"></stop><stop stop-color="hsla(8, 10%, 8%, 1)" offset="90%"></stop></linearGradient></g></defs><defs><filter id="light-filter"><feColorMatrix in="SourceGraphic" type="matrix" values="1.5 0 0 0 0
                0 1.5 0 0 0
                0 0 1.5 0 0
                0 0 0 1.5 0"></feColorMatrix></filter><filter id="regular-filter"><feColorMatrix in="SourceGraphic" type="matrix" values="1.5 0 0 0 0
                0 1.5 0 0 0
                0 0 1.5 0 0
                0 0 0 1 0"></feColorMatrix></filter><filter id="bold-filter"><feColorMatrix in="SourceGraphic" type="matrix" values="1 0 0 0 0
                0 1 0 0 0
                0 0 1 0 0
                0 0 0 1 0"></feColorMatrix></filter><filter id="emboss"><feConvolveMatrix kernelMatrix="3 0 0
                      0 0 0
                      0 0 -3"></feConvolveMatrix></filter></defs></svg>