<svg id="-posters-1651328274604" itemscope="" itemtype="/posters" itemid="/+/posters/1651328274604" viewBox="0 0 512 683" preserveAspectRatio="xMidYMid slice" tabindex="0" xmlns="http://www.w3.org/2000/svg">
  <defs class="symbols">
    <symbol id="-posters-1651328274604-background">
      <rect itemprop="background" width="100%" height="100%" tabindex="-1"></rect>
    </symbol>
    <symbol id="-posters-1651328274604-light">
      <path d="M236 32l-1 39-1 10c-1 2 0 3 1 4 3 3 0 4-16 5-26 1-32 2-9 1 26 0 28-1 28-9 0-3 7-3 35 2l33 4 41 8 6 1c1 0 1-1-2-1l-6-2c-5-2-45-9-65-12l-16-2a125 125 0 00-23-3h-3V38l-1-38-1 32m193 21l-4 15-1 10-1 7 1-5 8-36-3 9M118 69l-1 2c2 1 1 4-1 12l-3 11c0 2 0 1 2-3 2-8 6-18 9-20 1-1 1-1-1-2h-5m178 26c-2 2 0 4 2 3l18 1c20 1 23 2 34 5a762 762 0 0029 7l4 1 3 1a202 202 0 0026 8l3 1 11 3c14 5 21 7 19 5l-23-8-6-2-9-3-18-4-15-5-18-5c-19-5-58-10-60-8m202 67l-13 1-22 4c-6 2-14 2-15 0l2-2c1-1 0-1-2-1-3 0-4 0-3 1 2 2 1 3-2 3-2 0-2-1-2-2l-2-2-1 2c1 2-3 2-14 1s-48-2-52-1c-3 1 0 2 4 1l2 1-3 1h-4c0 3 3 14 5 17 2 2 3 7 4 12 1 6 2 8 3 8a26 26 0 019 34c0 4-9 16-9 13l1-1c2-2 8-17 9-23v-5l-1-2a10 10 0 00-6-11l-6-3-2-1-2-1c-2 0-2 0-1-1s1-1-2-1l-6-1-8-2-2-1c-5-4-41-7-68-7-34 1-84 8-93 13l-3 1c-6 0-48 19-48 21l5-2 5-2-4 3c-5 4-7 5-7 3l-3 1c-2 2-2 2 0 1 3-2 5 0 3 3-1 1-1 1-1-1 1-3 0-2-3 2-7 11-4 23 9 36 5 5 4 5-2 0a30 30 0 01-6-43c3-4 3-4 3-12 0-6 0-9 3-12 2-4 2-7 3-16l2-14c0-3 0-3-2-3-3 0-4 1-2 2 1 1 0 1-1 1-2 0-3 1-3 2 0 2-1 1-3-1s-11-3-13-1h-5l-3 1c-2-1-8 0-8 1l3 1c2 1 2 3-1 3l-2 2-4 1-4-1h-1c-2 1-80 2-91 0-6-1-7-1-10 1l-2 1v130c0 129 0 129 2 129l18 5 5 1 10 1h8c2-2 3-1 2 1l2 4c1 1 2 3 1 4-1 3 2 1 12-10l14-13 5-6 6-5c3-2 4-5 2-4h-1l1-1a27 27 0 0011-12l2-3-1 3c0 3 0 3 1 2s2-2 4-1l1-1-2-1v-1c2-2 1-3-1-3-1 1-1 1 0 0l1-5v-5c-1-1 1-9 2-9l1-3c0-2 2-5 8-11 10-10 14-13 14-10h4c3 0 4 0 4-2 1-3 3-1 2 2 0 4 1 5 4 2l2-2c2 1 1 4-1 5l-2 4-1 2-1 4v3l-1-4c0-2 0-2-1 0l-4 16c1 4 0 6-2 11-3 5-1 3 3-2l2-1-1 2-1 3-3 6c-3 5-5 12-6 21-1 6-2 8-3 7l-1 1-1 1-1-4c1-3 0-4-1-4l-1 3c0 6-1 8-7 13-3 4-4 5-3 6l3-1 3-3 2-1 1-2v2l-3 5-2 2c-1-1-1 0 0 0l-1 5c-2 3-2 4-1 4l2-2 6-10-1 2v2c1 0 1 17-1 20l-2 3a1 1 0 101 1l1-1c2 0 2 1 0 4l-1 5c0 2-4 12-6 13l-1-1h-1l-1 1-1-7v-9l-1 5c0 5 0 6-1 5-1 0-2 1-2 9l-1 14-2 8-2 9-3 7-3 4-3 4c0 1 1 1 2-1 3-3 3-1 0 6a10 10 0 01-6 8l-1 1v-2l2-2 1-2 1-3 1-2c-1-1-1-1-2 1l-2 2-2 2c-1 1-1 1-1-2s0-3-1-2v5c0 3 0 4-2 6l-3 3a2 2 0 11-3 0c1-1 0-2-1-1l-1 5-1 4-1-1-1-10-1 5-1 5-1 3a38 38 0 01-1 11l-2 2c-2 0-2 0-1 1 3 0 3 4 0 4l-4 2-2 1h-2c-2 1-2 1 0-1 0-2 2-3 3-2l2-2 2-4v-3l-1 2c-1 2-3 3-3 1l4-7c2 0 5-3 4-4l-3 2-3 2 2-3 2-4 1-3c0-2 0-2-2-2-3 1-4 1-1-2a19 19 0 007-13c1-2 1-2-1-2-2 1-3 0 0-2 1-2 1-2-2-1l-4 4-2 2v3c1 1 1 1 3-1l3-2c0 2-6 6-6 5-1-1-2-1-3 2l-5 5c-2 2-3 3-1 3l3-3 3-2c0 1-4 6-6 6l-2 4c-2 3-5 7-5 5l-1-1-1 2c1 1 0 2-1 3-2 1-2 1-1-1h-2l-2 2h1c2-1-1 4-5 8l-5 6c-2 3-3 3-2-1 2-3 1-3-3-2-5 3-14 5-13 3l2-1 2-1h4l4-1 3-2c3 0 5-2 5-4l1-2 1-1c0-1 1-5 7-12 6-8 6-9 1-7l-6 2c-2 0-9 7-14 14l-3 4v1l-1 1c-2-1-2-1-2 1 1 1 1 1 0 0s-1-1 1-3l2-2 4-5a9 9 0 003-6h1l8-8c8-8 10-10 8-12a11 11 0 00-11-1l-9-1-12-2c-3 0-3 0-3 3v4h5l6 1H0v23c0 22 0 22 2 22l4-1h3c2 0 1 1-3 1l-5 2-1 37v37h430l-1-2 1-2 1 3 41 1h41v-61l-1-61c0 1-2 0-3-2l-1-3 2 2c2 4 3 2 3-8l-1-31v-21h-5l-5-1 5-7c5-5 5-5 5-10v-5l-7 7c-8 8-11 13-10 14l-4 1h-9c-6-1-7-1-7 2 0 2 0 2-1 1l-2-1-1-1c1-1-1-5-2-5l-1 3-2 2c-2 0-2 0-1 2l1 6 4 15-1 1-3-12c-2-7-4-10-5-10l-2-4c-1-4-3-5-7-4-4 0-4 0-4 3v2l-1-4-2-2a35 35 0 01-6-13c-2 0-10-18-9-20 0-1 1-1 1 1 1 3 3 2 2-1l1-2 1 3c0 3 1 5 3 4 3 0 2-3 0-5s-2-2-1-3v-8l-2 2c-1 2-2 0-3-5v-2l1 4 1 2c2 0 2-2 1-6a8 8 0 01-2-5l-2-2-3-4-2-3-2-1-1-1v-3c-3-3-4-6-3-7s1-1-1-1-2 0-1-2l-1-2-1 1h-2v-3l-1-1-2-1v-3l1 1 4 3 4 3c0 2 4 5 4 4l2 4 4 6 2 2c0 2 5 10 6 9l-1-3-2-3a47 47 0 00-7-15l-3-8-1-4-1-3 1 3 4 4 1 2 3 4v2l1 2c1-1 1 0 1 1l2 3 1 3c-1 2-1 3 1 2l4 1-1-3c-3-6-3-7-2-7h2a127 127 0 0112 19l2 4 1 4 3 6 4 4-3-8-4-9-2-6-2-3 2 2 5 9 3 7 3 7c1 3 1 3-1 2h-2l2 2 2 4c1 2 1 2 3 1a4 4 0 000-7c2 0 1-11-1-17l-9-15a2 2 0 01-1-1h1c0-1 2 0 3 3 3 5 7 10 7 7l-1-7c-1-6-5-14-10-20l-2-4 5 6 4 4a54 54 0 00-7-14l-3-4-3-4c2-1-13-15-18-18a75 75 0 01-16-15l2 2 1 1 6 4 6 5a214 214 0 0118 12l5 5 3 5 2 3 3 5 5 15 5 14v5c0 2 0 2-1 1l-1-4-1-4v6c0 12 1 16 2 22l1 4c-1-1-1 0-1 3l1 4h7l19 1 12 1V162h-14M0 315c0 71 1 100 1 64a19425 19425 0 00-1-64m385-81c0 2 0 2-3 2-3-1-4-1-4 1l-1 2v4l3 3 2 1c2 1 2 0 4-4 3-6 4-8 2-8l-1-2-1-2-1 3m-245 14c-1 1 0 1 1 1l1 2 1 3 5 6a19 19 0 007 7l3 1 2-1-2-2c-2 0-3-2-3-3 0-4-3-6-6-6-4 0-4 0-4-4-1-4-4-7-5-4m21 64l-1 5-2 6-3 7-3 6c-1 1-2 2-1 3l-2 3-1 3c1 2 3 0 4-5 0-2 2-4 3-5s1-1 1 1l-2 4-1 3-3 9-1 3-1 4c-1 2-1 1-1-4l-2-4v4c-2 2-3 3-3 1l-1-2c-1-1-1 0-1 2s0 3 2 3c5-1 8 4 8 14-1 9 1 15 2 7l1-6a36 36 0 001-10c0 2-2 1-2-1l2-8c2-5 2-8 1-8v-4l1 1v2l1-4 1-8c2-5 2-6 1-6v-1l3-1c1 1 2 0 2-1l1-7v-4l-2 3c-1 5-2 5-1 0l1-5c2 0 1-2 0-2l-2 2m-15 15c-2 4-5 6-4 3l2-6-4 9-1 6-1 6a5 5 0 01-1 6v4l1-1c0-1 0-2 2-2l1-3v-4l1-2 1-7 2-4 3-3v-2l1-2 1-1c0-2-2-1-4 3m299 7l4 14a47 47 0 003 9l-2-9c-1-8-2-11-5-17s-3-5 0 3m-52 1l2 2c2 2 3 5 2 6l1 3h1v-1 2l1 2 2-2a16 16 0 00-6-11c-1-2-3-3-3-1m10 14l1 2v1l-1-1a1 1 0 10-2 1l1 1 3 9v3l1-1h1l1-3-1-3c-1-1-2-3-2-9 0-1-2-2-2 0m-4 14c-1 2 0 7 1 11l1 8c0 3 0 3 1 2 2-3 5-2 4 1 0 2 2 5 4 5v-3l-2-4c0-2-2-3-2-3-2 0-4-3-2-4l-1-2c-2-3-4-8-2-6v-1a14 14 0 01-2-4m9 3v3l-2-1c-2-5-1 1 2 7l3 8 2 2 1 7 1 7v3l-1 2c2 1 3-2 3-5v-5c-4-4 2 0 7 5l5 5-1-3-2-3-10-13-1-2c2 1 2 1 1-1l-3-7c-2-6-3-9-5-10v1m-286 6c-2 0-4 2-5 3l-6 7c-3 3-3 5 0 1h2l2-2c2-3 3-3 2 0 0 2 0 2 1 0l2-3v-3c0-2 0-2 2-2h3c0-2 0-2-3-1m28 18l-1 14c-2 17-2 17-1 18s1 0 1-4l1-8 1-10 2-11-1-3c-1-1-2 0-2 4m-43 21c-2 2-3 12-1 12l2-1 1-4v-9l-2 2m26 0c-2 2-3 3 0 3h1l-3 1c-2 1-4 7-4 11 1 2 1 2 1-1l2-2c3 1 7-7 6-12 0-2-1-2-3 0m-37 9l-4 3a28 28 0 00-12 17v-2h-1v-2c3-4 2-5-1-1l-3 5 1-1h1s-1 2-3 2a3 3 0 00-2 4c-1-1-7 5-7 7 0 1 8 1 9-1 1-1 2-1 2 1l2 2c2 0 3-2 1-2-1-1-1-1 1-1s3-2 2-5l-1-3 2 2c1 4 2 4 4 0l3-4c2 0 2-1 2-4l1-3 1 1c0 4 3-2 4-7h1c1 2 2 1 1-2 0-3-4-8-4-6m346 22v5l4 8-3-5-4-5 2 4 4 9 3 5v-2l-1-3v-2l2 2 1 5c-1 1 0 1 2 1l2-1h1c2 3 1-2-1-6-3-5-5-6-4-3v2l-2-4-1-3v-2c0-2-4-7-5-5m-259 6l-1 4c1 5 0 7-2 6v1c1 3 4 2 4 0l1-3c1-1 2-8 1-9l-3 1m-54 3c-2 2-2 2-2 0l-1-2-5 17-1 3c-2 0-1 3 0 3 1-1 2 0 1 1h-1v2l-1 3c-2 3-2 9-1 9 2 0 3-3 2-4h2l1-1 1-4 4-3 5-7c3-3 4-7 4-12s0-5-1-3c-1 3-5 6-7 5l1-5c1-5 1-6-1-2m-73 17c-1 3-1 5 1 8l1 5c0 2 0 2 1 0 1-3 1-8-1-12l-2-1m80 0l-5 6-8 10-5 6-2 1v4c-1 2 0 3 2 1l1-1v1l-2 2-1 3-3 4-2 9-1 8-1 4-1 3c1 1 4-3 5-6l1-3v8l1-3 3-5c2-2 2-3 2-5v-3l2-4 2-3v-1c0-2 0-2-2 0-2 1-2 1-1-1 3-7 8-13 7-8l1 2 1-14 1-3c1 0 3-3 3-5l1-2c1 1 3-5 2-6l-1 1m300 34c0 2-1 3-2 1h-1l2 2 3 3 1 4a73 73 0 019 16l1 2c0 3 3 10 5 12 2 3 2 0-1-5l-3-8-7-15c-1-2-2-3-1-4v-2c-2 1-2 0-4-3-2-5-4-7-2-3m-424 3l-5 1c-3 0-4 2-2 5 2 2 3 1 7-2l4-3 1-1h-5m464 0a17 17 0 005 8 21 21 0 007 10l-7-13-1-2a3 3 0 00-4-3m-453 8l-4 4c-2 3-4 4-3 1 1-2 1-2-1-1s-4 3-2 3v1c0 2 10 17 11 17l1-3 2-13c3-12 3-13-4-9m389 14v2c1 1 4 6 6 13l10 19 1 2 2 4a270 270 0 0119 30l3 2-2-4-3-4c0-2-1-4-3-5l-2-3-4-7c-5-8-11-18-19-35l-8-14M5 528l5 8 7 11H1v3c0 3 0 3 3 3l12 1h8v-2l-1-3c-1 0-3-2-4-5L5 527v1m23 3c-1 10-1 11 2 12 3 0 6-3 3-4v-3l-1-1-1-2c-1-3-3-4-3-2m7 16c-1 2-2 2-5 2-6 0-7 2-3 4a12 12 0 0014-2h-2l-1-1h-2l2-1v-3c-2-1-3-1-3 1m114 8l-5 7 1 1c-1 3 0 2 4-3l4-6-4 7c-3 5-2 5 4-3 2-2 3-4 1-4l-1-1c1-3 0-2-4 2M0 583c0 11 1 16 1 10a414 414 0 00-1-10m461-18v2l1 1v1l4 12 4 10-4-14a16 16 0 01-2-8l-1-2c0-3-1-4-2-2m-339 18l-5 7c-2 4-9 19-9 22l2-2c4-11 7-17 11-23l4-7c0-1-2 0-3 3m315 12l2 4h1c1 0 10 9 10 11l3 4 7 11 6 9v-3l-5-8a61 61 0 00-10-15l-8-9-5-6-2-1 1 3m16 7l2 4 6 11c5 9 7 14 6 10l-2-5-3-6-2-4v-3l-2-2-2-1c0-2-3-6-3-4m-387 4c-2 3-3 3-4 2s-1-1-1 2a4 4 0 01-2 5l-5 6a128 128 0 00-17 24l-2 5c-5 10-3 9 3-2a295 295 0 0124-31l1-3a3 3 0 012-4l3-5c3-4 2-4-2 1M0 646c0 21 1 29 1 19a1447 1447 0 00-1-19m250 15c3 2 4 4 1 3-1-1-1-1 0 0l4 2v2l1 1 1 2 1 4v4c0 2 0 2 1 1 5-5-4-21-11-21l2 2"
      fill-rule="evenodd" tabindex="-1" itemprop="light"></path>
    </symbol>
    <symbol id="-posters-1651328274604-regular">
      <path d="M397 183c-12 0-20 1-20 2l2 4 2 9c1 6 2 7 5 10 15 11 14 31-4 49-6 5-7 7-6 8 2 3 0 4-1 1-1-2-2-2-4 0-4 2-4 4-1 8l3 6 2 4 2 3 6 6c2 1 2 1 1 2l-1 2c1 2 4 4 5 2l4 1 4 2h-7c-2 0 3 2 7 2l4 1c0 1 4 2 14 2l13 2 4 2h-5l-5-1 3 2a10 10 0 006 1l3 2c3 1 3 0 0-2l-2-2 3 2 4 4 5 8c5 10 8 21 11 42 1 7 2 8 9 11l2 2 6 13h3l3 1c1 1 1 1 0 0 0-2 1-3 3-1l11 1 7 1c-2 1-2 1 1 1h5l4-1c3 0 4 1 4 2 0 3-2 4-14 4l-10 1h-1l-6-2c-7 0-7 0-1 9l6 10 3 8 1 3v1l-1 5-2 4v-4c0-3 0-3-3-3-2 0-3 0-2-1l1-6v-5l1 1 1 1-9-18c-2-2-2-3-4-2h-1l-1-1c-1 1 2 8 3 8l3 4 2 5c2 1 4 5 4 7l-2-2-1-3 1 3-1 3-1-2c0-2-2-5-2-2v3l2 12v7l1 3v5c2 4 2 4 6 4 3 0 4 1 4 2h-1c-2-1-7 1-7 2 0 2 2 3 6 3 3 0 3 0 3-6 1-6 2-7 2-3l2 3c2 0 3-2 1-2-1-1 0-1 1-2 4 0 8-4 8-6l3-1h5V182h-47l-68 1m-285 3l-47 1-47 1c-1 2 35 2 41 1h6c3 1-11 2-28 2l-13 1h-3l-7-1c-3 0-3-1 1-2 1-1-2-1-6-1-8 0-11 2-4 2l4 1H1v239h7l8 1 9 2 10 4 10 3 3 3c1 1 9-3 9-5l3-2c4-3 4-4-2-4-19 1-16-21 3-24 4 0 5-1 8-5l5-7v-2l1-1h3c2-2 1 0-1 3-3 2-3 3 0 4 2 1 2 1 1-1h1c2 1 7 0 14-3 3-1 5-5 3-8-1-2 0-5 2-6v1c-1 1-1 6 1 6l3-2c1-2 1-2-1-2l1-1c2-1 4-4 3-6-1-1-12 4-17 9l1 1v1c-2-1-4 1-8 6l-2 3v-3l4-6c5-4 26-18 27-17 2 0 3-1 5-3 1-2 1-2-1-1-3 2-3 2-2 0 4-5 5-6 7-5 1 1 2 1 4-2l6-6c2-3 2-4 0-4a1 1 0 111-2h2c1-1 0-3-1-2l-3-1-3-2c-1-1 0-1 1-1l3 1h3a4 4 0 003-7 2 2 0 00-5 0c2 0 1 2-2 2l-1-1v-1l-1-1-3 5-4 4c-1 0-4 5-5 9l-1 1 5-11c1-1 0-1-2-1-3 1-3 1 1-1s8-7 8-10l2-3 2-2-2-3c-2-3-2-4-1-4l1 1c0 4 3 4 6 0l7-6c3-4 4-5 1-5-1 1-2 0-1-1l2-1c1 1 5-1 5-2l6-7c6-7 6-8-1-7v-2l2-2 1 1v1c1 0 2-1 1-2 0-2 5-6 7-4l-1 1-2 1c1 3 2 3 3 1 2-3 3-3 3 1l1 4 1-3c2-5 2-4 2 6v13l-1 7c0 4-1 5-2 5v1l-1 4-2 9-2 8h1c2-1 2-1 2 1v7c2 6 2 9 0 9-1 0-2-5-1-6l-1-3c-1-1-1 2-1 14l2 17 2 5 1 5v2a49 49 0 00-2 24c1-3 1-3 1 3s-1 9-2 9l-1 4-2 9-3 9-4 13v3c0 2 0 2 1 1 2-1 6-10 5-11 0-1-3 2-3 4s-2 4-2 3a28 28 0 015-12l1-1c2 2 7-17 7-27l1-6v-5l1-5 1-6 1-7h1l1 2-1 12-2 18-1 7-2 3c1 2 0 4-1 5l-1 5v1l-1 3c-1 2 0 2 1 1v6l2-3 1-6c-1-4 0-6 3-5h2l-2 1c-3 1-3 3 0 3l3 1h-1l-1 1v3c-1 4 0 8 2 7 1-2 3 0 2 2h-2l-2 1-4 1c-6 1-9 3-9 10v8c2 1 3 6 3 12 0 2 3 4 3 2s2-4 4-3l2-2c2-4 2-3 0 1-1 3-1 4-2 3s-2 0-3 2-1 2 1 1l2-1c0 3 3 4 5 3h1c-2 6-2 13 0 18a75 75 0 019 36l-1-8c-1-11-7-29-10-29-2 0-1 16 1 24 2 7 3 8 4 8 2 0 2 0 1 1s-2 2-1 7l-1 7-1-5c0-2 0-4-1-3l-1-5-2-11-2-6v6l-1 6c-1 0-2 4-1 8l-1 2c-1 0-1-3 1-17 1-9 0-20-2-16l-2-4-2-8c-1 0-2 5-1 6l3 12-3-6c-2-6-3-7-4-6v3c-2 0-4 3-6 8l-3 4c-1 0-3 5-3 8 0 4 1 3 3-3s2-5 1 1v7l2 3c1 1 1 0 2-3 1-4 3-6 3-3v2l2-2c1-2 4-3 4-1l2 1c2 0 1 5-1 10s-2 6 0 4h1l-2 2-2 2-3 5-3 5-2 4-3 3c0 2-6 10-7 9l1-3c1-1 3-4 3-7l2-4 1-3 1-5c0-2-2 0-4 3-4 5-5 7-5 11l-2 6-1 3a7 7 0 01-3 6v-3c-1-2-1-2-1 0l-1 4-2 4-1 2-6 13 3-1c0-2 1-2 1-1l-2 3c-2 1-3 7-1 7l3-2c-1 0 1-3 5-6 3-2 2 1 0 3-3 3-1 2 5-1l10-5 6-3 6-4-20 13c-19 9-22 13-21 25v8l-1 6-1 5v-27c1-2 0-3-1-2l-1 1-3 4c-2 3-3 4-2 6l1 14v9c0-2-1-3-2-3l-1 2-1 1-1-4-1-4-2-3c0-9-8 2-11 15l-2 5-2 5v4h157l-2-3c-6-6-8-15-4-19 7-7 20 0 21 13l-1 6c-4 3 4 3 84 3l85-1-5-14-4-10c0-4-2-9-3-11l-2-10-3-10-4-10a89 89 0 00-9-23v2l1 15c0 8 1 12 2 13l4 6 3 4 2 3c2 1 3 3 2 3l-7-6c-7-8-7-8-7-1l-5 21-1 4v-5l2-11c3-12 3-19 1-22l-2-4-3-4-2-2v19c1 22 3 31 9 40l3 7-1-1-1-2-4-5-3-3-1-1c1-1-1-11-2-12l-2-34a43 43 0 00-12-30l-5-6c-2-3-3-5-3-11l-3-11-2-7 2 5 2 6 2 6 2 4 3 4 12 17-1-17c1-4 1-5-4-11a23 23 0 01-5-8l-1 1h-1l-1-3-2-6c-6-14-7-19-7-32v-10c-2 0-6 11-6 15 0 3 0 3-1 1l-1-2-1 2-2 3-2 6-1 6v-6c0-6 2-11 3-11s11-19 10-21c0-2-11 6-11 8h-3l-2 15-2 9c0 4 0 5 1 4l1-2 1 1c-2 2-2 10-1 11s0 10-3 16l-8 17-8 16c-4 5-9 16-9 18s0 2-1 1-4 4-4 9l-4 9c-2 3-4 11-4 18-2 8-3 5-2-4 0-8 2-14 4-20a988 988 0 0023-49l2-5 1-3 1-5c1-3 4-6 4-4l-1 2v4c-2 4-1 5 1 2l2-4 1-4c1-4 0-7-2-4-1 1-1 1-1-1l1-12 1-10c1-1 5-18 4-19h-2c-2 2-1-2 1-4s3-5 1-4c-1 1-4-3-3-4l-1-3c-1-4-1-4 1-3v-3l-2-2c-1 1-1 1-2-1s0-4 1-2h1l-1-2v-6l-1-4 1-3-1-2 1 2 3 4 1 6 2 5c2 0 0-5-2-10l-3-9c1 0 5 9 6 15l3 7c0 2 0 2-2 1-2-2-3-2-3-1l1 1 2 6c0 8 1 8 3 7l2-1c1 2 11-8 11-10a55 55 0 015-25c1-3 1-3 2-1l-1 5c-2 3-5 18-4 20l3-2 3-4 2-2-1 2-2 3c-3 4 1 5 4 1 4-4 5-5 4-9 0-3 0-3-2-1v-1l3-3 1-3v-2c2-2 1-4-2-9-2-6-4-16-2-16v-4c0-6 1-6 2-2l1 4v-4l-1-4-1-3-2-10-1-8-1-8c0-3-2-2-2 0s0 2-1 1l1-4c3-3 6 4 5 12l1 5 1 3 1 2 2 5 2 4 1 2v1c1-1 1-8-1-8l-1-3v-1c-2 0-2 0-2-3l-1-5-1-9-1-4c-1 2-1 2-2-2-1-3-1-4 1-7 3-2 3-4 2-8-1-2 0-1 2 1l3 2-1-2-1-2c1-1 0-2-1-4a13 13 0 01-4-9v-2c0-1 5 5 5 8l2 2 2 3 2 2 2 1 1 1c2-1 1-2-2-6-4-4-4-5-3-5l-1-3c-2-1-2-2-2-3 1-1 1-1 5 6l3 4-2-11-2-15-1-8 1 2 1 3 1-3-1-4-1-2c-1 1-3-3-4-8 0-5-3-15-4-16l-2-8-1-7-1-2-1-3-1-4-1-4c-2-1-2-3 0-2v-12l-4-7-3-3-1-1-1-6c0-4 0-5 4-8 3-2 4-4 4-5l-1-9c-1-10 1-9 2 1l1 6c1 0 5-5 4-6-1-3 3-9 5-9h3c1-1 1-1-1-1l-2-1-2-3v-4c1-3 0-5-2-4-2 0-5-3-3-4h7c2-1-15-12-22-14h-7c2 1 1 2-2 1-2-1-2-1-1-2s0-1-3-1l-8-2c-29-6-96-1-135 9l-23 7-3 1-1 1c1 1 0 2-3 3l-5 6-2 3c-1 0-1-4 1-5l1-3 1-2-4 3c-7 4-13 9-15 12-3 4-2 5 1 2s4-4 4-1l1 3 1-2c0-3 0-3 3 0 2 2 3 5 1 7l-1-4-1-1v1l-2 1h-1l3 11c-1 1-4-3-4-5 0-4-1-6-3-5v10l1 3 3 5c5 10 7 10 7 1l1-6 2 13c0 3 0 4 2 5 2 0 3 5 0 9-1 3-1 3-3 2l-7-1c-5 0-5 0-2-1h4l-5-3c-12-7-21-20-22-32 0-5 2-11 7-17 3-2 3-3 4-11l1-10-1-2v-1c2 1 4-3 5-9 0-3 0-4-2-4l-1-1-5-1c-6 0-5-1 2-1l5-1c0-2-27-1-28 1l-3 1c-2 0-2 0 0-1v-2l-2-1h-2m230 54l1 1 10 4c7 3 8 4 8 2l-1-3c-1-1-1-1 0 0l-2 1c-1-1-3-2-7-2l-1-1c1-1 0-1-2-2l-4-1-2 1m-55 6c-6 1-8 2-8 3h1c1-1 2-1 4 1h3c1-1 3 2 4 5l3 3c3 1 8 0 8-2l1-4c3-5 2-6 0-6h-16m47 3c-2 1-1 2 3 3l8 2c5 2 6 1 2-2l-2-2h-5l-6-1m-73 12l-2 2-2 3-2 4v4l-1 3c0 2-1 5-5 9-2 2-3 6-6 16-1 3-1 3 1 2l10 3 10 2 4 3c2 2 3 2 4-2 2-4 9 0 14 7 3 6 2 10-5 10h-2l2 2 3 2v2c-1 1-1 1 1 1l9 5 3 2 2 2c-1 1 0 1 1 1 2 0 2 0 2 2-1 1 0 2 1 1l3 1 3 2-1-2c-1-2-1-2 1-1l2 6 4 6 3 5 2 2 1 1 1 3c1 0 4-2 4-4l1-2 1-2v-1h2c3-1 4 0 3 3 0 2 2 3 3 1l2-2 1-2c0-2 1-2 2-1 1 2 2 1 1-4 0-6 2-16 3-13 1 2 3-1 3-4l1-3v-2l1-3 1-1 1-2c2-1 4-24 2-32l-1-7-4 3c-3 4-5 4-12 6l-6 2c1 0 2 1 2 3v3c1 3-12 4-21 1l-12-2c-7 0-12-3-17-11-2-3-5-8-10-23-1-4-7-11-9-11l-3 1m-85 37c0 9 4 31 7 34l6 18 1 2 1 2 2 4 1 3c-1 1 0 1 1 1l1-1c-1-1 0-1 1-1l1 1c-2 2 1 2 4 1 2-2 2-2 2 0 0 1-4 5-6 5l-1 2c0 1 1 1 5-3l4-2 1-1c1-3 3-2 3 2 0 2 0 3 2 3l1-2c-1-1-1-2 1-2l2-1c0-2 2-4 4-6l4-7c1-4 3-5 6-5 1 0 3-2 5-6l5-6 1-2v-3c-5 1-8-12-5-18v-3c-1-2-9 0-13 2l-9 5-7 4c-1 2-3 2-6 1h-2l-2 1v-1c2-2 1-3-1-2l-3-1h-1c-1 1-1 0-1-4l2-8 1-1v-1c4 0 1-2-6-3l-9-4c-2-3-3-3-3 3m-30 3c-3 3-4 3-9 2-7 0-12 2-13 6 0 2 0 2 1 1l3-4c2-2 10-3 11-1h3c4-1 9-6 8-6l-4 2m264 12l9 4 5 1 2 1 1 1h6l-25-9c-4 0-4 0 2 2m5 5h-3l-6 1 1 1h2l2 1c3-1 7 0 6 2-1 1 0 2 5 4 8 3 18 5 18 3h1c2 0 1-1-1-3-3-3-9-6-12-6a21 21 0 01-13-4v1m-11 5c-3 2 4 8 8 7 3 0 4-1 4-2-1 0 0-1 0 0l2-1v-1c-5 0-8-1-10-3h-4m10 9l1 1 1 1c0 1 4 6 13 14l5 5 2 1h2c0 1 3 4 6 4v1c-1 0 0 2 3 5l5 5-1-5c-2-16-7-31-10-32h-1l-3 1c-6-2-23-2-23-1m10 16l2 4c0 2 5 7 6 6l2 2v1h-2c0 1 1 2 3 1s-5-11-10-15l-2-1 1 2m-33 12l1 3 6 14c3 5 2 2-1-5l-2-7-4-7v2m-123 1l-8 1c-8 0-17 5-17 9l5 4c2-2 18-2 18-1h1c3-2 9-1 10 2l2 3 1-2c-1-1-1-1 0 0l2 3 2 1c2 0 2-1 2-3l1-3c1-1 1 1 1 4l1 3c1 0 2 1 1 2h1l5-1c3-1 4-1 4-3l1-4c1-1 1-1-1-1l-1-4c2-6-22-14-31-10m155 8l6 6c3 4 6 7 6 10 3 6 6 6 5-1l-3-5-8-5-6-5m-3 5c-1 1 4 7 6 6 1 0 3 2 2 3l1 2h1c-2-2 0-2 2 0 4 3 2-1-2-5l-4-3-1 1-1-2-1-2h-3m36 6l1 4a64 64 0 0111 9v-2l-4-5c-1-3-7-10-8-10v4m-83 3c-1 6 0 17 1 17l1-2 1-2a1 1 0 10-1-2l-1-4v-6l-1-1M96 400c-5 3-12 4-13 2s-3-1-3 0c1 2-2 1-5-2-1-1-2 0-4 3-3 5-3 6 1 6l7 3c6 3 5 3 10-1 3-3 3-3 1-4s-2-1 1-1c2 0 2 0 1-1-2-1-1-1 3-1l7-5c0-3-2-2-6 1m350 1c-2 2-1 3 2 6l3 2 1-3 1-2c0-3-3-3-4-1h-2a2 2 0 011-3l-2 1m-12 2l3 2 2 3h3l3 2c4 2 4 2 3 0-3-5-7-9-9-8l-1 1c-1-3-4-2-4 0m19 4c-1 3-1 4 1 3l2 1c0 2 5 6 6 6 1-1 0-2-2-4-2-3-2-4 1-2 2 2 0-2-3-4l-1-1v1l-1-2c0-2-2-1-3 2m-358 1l-6 5-10 9-4 4 3-1 10-6-1-2v-1l2 1c1 2 2 1 3-2l4-5 2-3c0-1-1-1-3 1m-35 2c-5 1-13 7-9 7l2 3c2 4 9 8 9 6l1-7 2-7c1-2 0-3-5-2m6 2c-1 4-3 15-1 15l2 1c2 0 16-12 15-13 0-2-6-4-10-5s-4-1-6 2m-19 7c-1 7 4 12 11 12 5 0 6-2 1-4-4-1-7-4-10-9-1-1-1-1-2 1m304 8l-2 5c-2 3-2 4 0 6v2l10 3c3 0 4-1 1-5v-2c3 0 2-1 0-4l-3-3-4-6-2 4m-264 2c-4 3-7 14-3 13l2-1v-3l1-2v-2c-1-4 1-6 2-3 1 2 1 2 2 1 1-4-1-5-4-3m-11 0l-4 1c-3 0-7 4-6 6s8-2 10-6v-1m115 3c0 3-4 6-7 8-2 0-3 2-3 3l-1 1c-2 0-2 5-1 7v9c2 3 6 3 6 1 1-2 1-2 3-1 3 0 3 0 3-4s2-10 3-10l3 2c3 3 3 3 3 1 0-4 2-1 3 5 1 5 1 5 1 1l1-5c2-1 1-6-1-8l-4-6-4-5-2-1-3 2m301 30c0 2 1 2 3 2l6 1c3 0 3 0 3-2 0-1-1-2-3-2h-6c-3-1-3-1-3 1m-337 10c-2 3-3 8-1 12l2 4 2 3-1-8-1-6c1 1 1 1 1-2 2-6 1-7-2-3m-9 22l1 8v2c-2-1-2 0-1 3l1 9c0 8 1 11 3 9l1-4 1-2c2 0 3-3 2-5v-1l-1-1c-1-1-2-4 0-7s-3-13-5-11l-1-2-1-4v6m232-1a157 157 0 00-1 36c-3-2-3-19-2-31l1-4-6 5-5 6v12a46 46 0 003 23 15 15 0 006 12l4 8 6 9h1l1-9-1-7v-5c-2 0-3 3-2 4h-2c-2-1-2-2 1-4l4-2-1-12-1-10a661 661 0 00-2-21c-2-13-3-16-4-10m77 5c0 3 13 30 14 30l-2-7-2-9-3-5-1-2c0-1-3-7-5-8l-1 1m-44 2c-1 2-1 4 1 6v3c0 1 1 5 4 9l4 8v-4c1-4 0-7-3-12l-3-6c-2-6-3-7-3-4m68-1l-1 2 3 4c3 2 3 2 2 3-2 1-1 2 3 8l5 9 4 7 10 16 3 1 4 2v-52h-33m-81 8v11h1l2 10c1 10 12 35 14 32l1 1 2 2c2 1 2 1 2-1s1-2 4 2c5 5 5 1 0-5l-4-8c-2-4-3-5-3-3-1 2-1 2-2-1v-3c2 2 0-8-4-15-3-7-5-10-3-3 2 4 2 8 1 8l-2 5-1 3v-3a20 20 0 001-9c0 3-2 2-2-1l-1-4-2-2c0-1 1-1 2 1l3 2-1-2-1-6c0-4-2-6-2-2s-2 0-3-6c-2-11-2-11-2-3m-233-1c-1 1 0 5 2 10l2 8 1-6c1-7 0-12-2-10-1 1-1 1-1-1s-1-3-2-1m304 6l3 9 3 6c0 2 2 5 5 7l3 4 1 1c3 1-2-16-5-18l-1-2-2-4c-1 0-1 2 1 7l-1 2-1-2-7-14 1 4m-339 4l-1 5-1 6-2 6-1 9-1 8v3c0 3 0 3 3-1 5-5 5-6 7-6 2-1 2-2 2-10-1-12-6-29-6-20m302 1l-1 1c-6-3 6 13 15 19l-2-3a12 12 0 01-5-6l-1-1-2-2a9 9 0 01-3-9l-1 1m-10 8a9 9 0 001 6v3c1 2 1 2 2 0s1-2 1 1c-1 2-1 3 1 3l2 2h-2c-2-2-1 0 5 13l6 14 1 1 1 2 2 4 2 3 3 4 3 6c0 3 8 14 12 19l3 4 2 3 5 6 3 4 3 4c2 5 8 11 7 8l-2-5-3-9-3-9-4-9-2-6a35 35 0 00-7-13l-1-1h-2a1 1 0 00-2 0h-1c-2-1-2-2-2-12-1-9-1-9-6-11-5-3-6-4-3-4 4 1 4 0 0-2l-6-5-3-2v2l4 5 1 1c-2 0-2 0-2 2 3 8 8 19 9 18h3l2 9c-1 2-1 2-2-1l-3-6c-4-3-7-9-10-17l-4-8-1-4-1-3-2-2c-1 0-1-1 0 0 2 1-1-8-5-13l-1-3-1-1-2-2c-1-3-1-3-1 1m63 3l5 9 1 2c0 2 4 7 6 7h1l-9-14-2-3-1-3-1 2m-52 4l14 18 4 3-1-5v-1l1-1h-2l-1-1c1-1-1-4-7-8-8-7-10-8-8-5m-33 13v3l1 3 4 11v-9l-2-4c0-6-2-9-3-4m83 1l3 3v3c-2 1 0 3 3 3 2 0 3 3 2 4l1 1v2c0 2 0 2-2-1-1-5-1-5-4-5-1 0-1 1 1 3l1 1-2 1c5 12 5 12 11 15l10 8 5 5 1-14c0-7 0-13-1-12 0 2-1 1-4-3-3-5-13-12-13-9l8 12 9 14c0 1-3-2-5-6l-15-19-2-2c0-2-4-6-7-6v2m-57 0a90 90 0 0011 25c2 1 3 0 1-2l-3-4a50 50 0 00-6-14c0-2-3-6-3-5m-254 2l-2 7c0 8-2 12-4 11l-2 4c-1 4 0 6 1 1l2-3c2 0 4-4 5-9l1-6a5 5 0 00-1-5m225 6c1 6 4 12 6 13 3 2 3-1-1-7l-2-5-2-3c-1-2-1-2-1 2M1 558c0 3 0 3 6 2 5 0 11-3 6-3H6c-5-1-5-1-5 1m207 0c-4 3-5 5-5 8 0 2 1 1 2-2 5-9 18-9 18 1 0 8-10 12-17 7l-2-2c2 7 15 6 19 0 6-10-6-18-15-12m199 4c0 6 2 9 11 14l5 2-6-5-6-9-2-4-1-2c-1-1-1 1-1 4m-17-1c-2 10-2 13-1 14s3 3 3 5c2 5 5 6 3 1l-1-5v-1c-1 1-1-3-3-16-1-1-1 0-1 2m-376 1l-9 1H1v9a15 15 0 001 10l-1 4c0 2 0 3 2 3 0-1 1-1 0 0l1 1-1 1c-2 0-3 1-3 3 0 5 5 1 11-7 3-5 3-6-2-3l-2 3 2-4 3-3c2 0 10-7 9-8v-1h3c0-2-2-2-4 0-3 1-3 1-3-1l-1-1c-1 0-1-1 1-3 2-4 2-5-3-4m407 6l4 5 6 5 4 3a37 37 0 00-12-12l2-1-1-1c-2-3-3-2-3 1m36 5c0 5 0 6 2 7l2 1 2 1c2 0 2-1 0-8-4-10-6-11-6-1m-343-1l-2 7-2 3-1 2v3l-1 7 1-1 3-6 1-4 1-2 2-6c1-4 0-6-2-3m290 4l2 6h1c1-1 1-1 1 1-1 3 1 8 2 7s1-1 1 2l2 8 2 10 2 8 1 3c-1 1 2 19 5 25l1 5 2 13 4 9 2 5 2 5h64v-2c0-2 0-2 1-1 0 3 1 2 3 0 2-3 2-4 0-8-2-3-3-3-3 1 1 1 1 3-1 4-1 1-1-1 1-7 0-1 0-2-2-2-1 1-2 0-2-4-2-9-2-11-3-10l-1-1c0-3-3-7-5-10l-2-3-4-5-7-6c-7-7-8-7-3 1l3 5 6 15 3 5 1 2 1 2 4 9c3 6 4 10 2 7l-7-12-8-14-2-2v3l2 9-1-2-2-4v-4l-1-1c-1 0-2-1-2-3l-3-3v3l1 1h-1c-2-2-2-2-3 0h-1l1-3v-4l-1-3c-2 1-2 0-2-1l-2-3-2-4-1-3v-1c0-2-5-9-7-10l-1 3c1 3 1 3 0 0s-2-4-3-3l-1-3-1-3c-2-1-2 10 0 11 1 1 1 1 1-1-1-1 0-2 1-1l1 2 8 8 1 1c0 1-7-3-8-5-1-1-1-1-1 1l-1 2v-2c0-2 0-3-2-3-2-1-3 8-2 26 0 4 0 5-1 4l-1-14a50 50 0 00-3-21l-1-1v-2l1-2 2 4 1 6v-5a50 50 0 000-10c0-3-2-4-2-2h-1l-1-2v-2l-1 1h-1v-1l-2-3-2-3c1-1 0-2-1-1l1-1c3-2 3-2-1-4l-4-3-1-1v1l1 3c0 1-2 0-3-2l-1-3c1 0-4-4-6-4l-2-2-1-1c-1-1-2 0-1 1 1 3-1 2-3-2-3-5-4-5-2 1m-374-1l-3 2-1 1-1 1-1-2-2 1c-3 3-4 6-2 4v2l-3 2c-1-1-5 9-5 12 0 2 3 1 3-1h2l1-1c-1-2 0-5 2-5 1 0 7-5 5-5l-1 1-1 1c-2 0-1-3 1-5l2-2c-1-1 2-3 3-2 2 0 5-3 5-5s-2-1-4 1m464 2l1 1v3c0 2 1 3 6 7 10 8 15 7 6-2l-13-9m-105 4v7l-1 4v7l2 5 3 5 2 2 2 3 1 3a76 76 0 00-3-29l-3-3-2-4c-1-2-1-2-1 0m-299 5c-2 1-2 3-2 6l-1 4h-1c-1 1 0 1 1 1l2-2c0-2 4-5 4-3l-5 8-1 3-2 2c-2 0-3 3-3 7l-1 4-1 4c0 2 1 2 4-4l6-12 3-8c2-3 3-7 2-7v-1c0-2 0-2-2 0l-3 2-1 1c-1 0 0-2 2-3 2-4 2-5-1-2m314 0l2 7 2 7v4l3 6 3 4-1-4-2-6-6-18h-1m74 5l4 9c2 0 3-3 3-7-1-4-1-4-4-4-2 0-3 0-3 2m10 2l1 6 1 3c-2-3-3-2-3 1a6 6 0 003 6v-5l1 2 2 4c0 2 5 6 6 6 2 0 1-3-1-5s-2-2-2 0h-1v-4c0-2 0-2-1-1v-1c1-2 1-5-1-9-1-3-1-3-2-2s-1 1-1-1l-1-3-1 3m-418 2l-3 3-3 3c-2 2-2 2 0 2l3-1 2-3c3-2 7-8 5-8l-4 4m53-2l-3 6-2 4-1 1v-3l1-3c-1-2-4 4-4 8l-1 3v6l2-1 7-14 2-3c2-2 3-6 1-6l-2 2m-22 7c-3 4-6 6-5 3l2-3-1-2-2 2-4 8-3 7 2-2 2-1v1l-3 5c-2 4-7 9-8 8l-1 2-1 3v1l5-4 4-4-5 7a25 25 0 00-6 9l-1 2-1 1c-1 0-2 1-2 3l-1 2c-2 0-4 6-3 7 1 0 1 1-1 2l-1 2-1 2c-1 1-2 3-1 5 0 3-1 4-2 4-2 0-5 4-8 8 0 2-3 2-2 1l-2-1c-8 3-9 2-1-2 5-2 5-2 5-10l1-5-2 2-3 5-1 1v-1c0-3-1-2-4 0v2c3-1 3 1 0 1l-7 2 2-1c2-1 2-1 2-3v-2a4 4 0 003-4c-1 0-5 4-5 6h-1l-9 11-1 3h20c20 0 22 0 21-4l1-1h1c0-2 8-12 9-11 1 0 5-5 4-7l1-1v1l1-1 2-1 1-1 1-3-1 1-2 1c-2 0-2 0 1-4 4-4 5-6 7-15 1-3 0-6-1-5l1-10 1-9-2 2c-4 3-4 2 0-5s5-8 5-6l-1 2-3 6h1c5-7 7-12 6-14v-3l-3 5m-56-2l-3 2h-1c-1-1-1 0-1 3v1c-1-3-2-3-1 0 1 4 0 6-2 6l1 1c3 1 10-7 7-8v-2c5-2 5-4 0-3m-30 3c-3 2-4 4-1 3l1 1-3 2-4 2-2 3c-3 2-6 9-6 16s0 8 3 6l4-6c0-2-2-1-3 1a7 7 0 01-2 3l1-4 2-3c1-1 3-2 3-4l1-3H7l2-2 5-5 3-7c2-4 2-5-2-3m17 2c-3 2-5 4-7 9l-3 4a25 25 0 00-5 11l-1 2v1l-2 4c0 2-2 3-3 4l-3 3-3 6-2 3 9-8 9-8-1 2-1 2 2-3 2-3v-1l1-2v1l4-3 4-6v-2l-1 2c-1 1-1 1-1-1s1-3 2-3c3 0 4-1 2-2l-6 1-4 1 9-4c1 0 3-7 2-8l-1 1c-3 2-2 0 0-2s1-3-2-1m38 5c-5 6-8 12-5 14l1 2a3 3 0 006 3h-1c-2 0-2 0-2-2s1-3 2-3c2 0 4-2 5-7v-4l-2 4-2 4 1-5h-2c-3 1-3 2 0-5 2-5 2-5-1-1m412-2l3 10 1 2 2 4a8 8 0 011 6c1-2 2 0 2 4s3 11 4 11v-2h1v3l1 2 1 1a15 15 0 004 10c0 3 6 11 8 10l1-1 1-2v-26l-3-4c-4-8-6-7-5 3a48 48 0 000 11c-1-1-1-1-1 2 0 5-1 5-2 1v-3c2 0 0-3-4-9l-2-3 3 3 4 4v-7l-2-10 1-2v-2c0-2-2-3-2-1s0 2-2 1c-3-1-4-4-4-7l-2-2v1h-1c-2-1-2-1-2 2l-3-4-3-6m20 2c0 7 9 22 10 15l-2-3-2-3-3-6c-2-4-3-5-3-3m-381 9l-2 4-3 4-1 2c-3 3-1 3 3 0 5-4 6-5 5-6l-1-3-1-1m-82 3l-13 19-12 13C1 665 0 667 0 674l1 5c2 0 16-16 15-16l3-4 8-11a39 39 0 015-9l1-3c2-3 2-3 0-3l1-2c2-1 7-13 7-14l-2 3m-10 8l-9 12-14 15 3-4 1-3 3-4c6-5 5-6 0-1-3 2-5 5-4 5l-4 3c-4 2-4 3-4 7v4l9-9a252 252 0 0025-30l1-3-7 8m32-7l-5 6-11 15-2 4v3l-3 6 3-1 2-1-3 4-3 4c0 2 4-1 6-4l2-3v-1c-1-2-1-2 2-4l6-6 4-3c3 0 6-6 6-11-1-5-4-12-4-8m22 30l-9 10-7 8a41 41 0 0016-18m4 13l-9 11c-7 9-7 8 0 8h6l2-7 4-12c2-6 1-6-3 0m155-1c-6 6 7 25 13 18 5-5-1-16-8-16-4 0-4 0-3-2 0-2 0-3-2 0m-226 4l-3 6c0 2-5 7-6 6l3-3c3-3 2-4-1-1-3 2-3 8-1 8l7-10 4-6c3-5 2-5-3 0"
      fill-rule="evenodd" itemprop="regular" tabindex="-1"></path>
    </symbol>
    <symbol id="-posters-1651328274604-bold">
      <path d="M276 198c-26 2-40 3-63 8-11 2-30 8-31 9l-7 5a26 26 0 00-11 15l-3 8c0 6 1 6 7 3a2 2 0 110 4c-3-1-5 3-3 9l1 3v-3c0-2 0-3 1-2l2 2 2 1-2 1-1 2 1 10a44 44 0 002 13l1 3v2c0 3 0 3 1 2 2-2 2-2 5 0 6 4 8 5 14 6l17 1 11 1h1c1-2 13-6 16-6 5 0 14-16 18-31 2-8 5-11 11-9 2 2 3 3 7 13 8 20 9 21 17 25 19 9 52 8 60-2 3-4 4-4 4-1l2 2c1 0 2 1 2 3a30 30 0 003 17v12l-1 5a14 14 0 01-4 10l-2 2v-5c-2 1-3 8-1 9l2-2c2-2 3-3 3 0l1 1v7a2 2 0 01-4 1v-3c-1-3-1-2-3 8-1 5-2 7-2 3l-1-5c-1 0-4 3-4 5h2c1-2 1-2 1 0l-1 3h-1l1 2 1 1 2 3c3 2 3 3 0 2-4-2-6-2-6-1l2 1c2 0 2 0 1 3-1 2-1 2-2 1-1-2-4 1-4 4s6 6 8 3h2c1-2 3 0 3 6 1 4 1 4 0 0-1-3-1-4-6-4-4 0-5 1-4 3l-3-2c-1-2-3-3-3-2-1 1 0 2 2 3l2 2h-3l1 3 3 1h-3l-3-1 2 2c2 1 2 1 1 3-2 2-2 8 0 8 1-1 1 0 1 2l1 2 1-1c0-2 5-7 6-7l2-1h1v2c-2 2-2 2 0 2l2 4c-1 4 1 9 5 13s4 4 4-1l1 2c2 6 3 5 3-3 0-4-4-13-5-11l1 3c3 3 3 4 0 3l-2-3-3-2-3-2c0-2 2-1 4 1 2 3 2 0 1-3l-2-5-1-8c-1-6-1-13 2-22 2-5 1-7-1-3l1-4 2-7 1-16 2-22c0-11 2-14 2-5 0 8 0 9 2 7 1-2 1 1 1 5 0 1 0 2 1 1 2 0 2 1 2 8l1 16c2 6 3 5 3-1v-4c1 1 1 1 1-1-1-3 2-6 2-3v-3l-1-8-2-7-3-8v-3l1-1-2-1c-1 1-3-4-3-6l-1-1-4-8c0-2 2-1 2 1h1l-2-4c-2-2-4-14-4-28 0-10 0-12-2-11l-1 1-1 1c-2 0-3-3-2-4 2-1 1-3-2-4a128 128 0 01-16-7c-2 1-5 0-4-1l1-1 9 2 14 3c5 1 6 2 5 11l1 1 1-3c0-3 0-3 1-2 1 2 1 0 1-16a27 27 0 00-19-29c-10-4-11-5-24-6h-47m-5 23l-21 1a96 96 0 00-50 13l2 1c6-2 32-2 43-1a71 71 0 0034-1h7c15-2 30-2 47 2l11 2h3l-3-3c-14-12-46-18-73-14m196 4l-19 1 9 1 32-1 23-1-13-1-32 1m40 2l-32 1-33 1c-1 1 6 1 15 1 12 0 16 0 15 1l3 1 20-2 16-2-4-1m-222 10l-8 4-5 3c-3 0-2 2 0 4h1v-1l1 4 1 5 3 8c2 6 5 7 5 3 0-2 0-3 2-4s2-2 2-7c-1-6 0-6 3-1l1 4c-2 2-1 3 1 3l3 1-2 1-3 1-2 1c-3 0-4 2-2 3l2 3h1c0-2 1-2 5-2 7 0 8 0 6-3v-2l3-4c1-2 1-2 1 0h1c1-1 1-1 1 2l-1 4v-3l-1-1-1 4c0 4 1 5 2 3l2-1c1 1 1 0 1-1l1-5c2-1 3-7 3-12 0-2 1-2 2-1l2-1-1-1-1-1 5 2-1 4c-1 5-3 10-3 7l-1-2-2 2c0 2 1 3 2 3l2 2 1 2 1-2 1-5 1-4 8 4-6 11-2 2-2-2c-1-2-1-2-1 0l2 4 5 7c3 6 3 6 7 2 2-2 2-2 1-3v-1l2-2 2-2 1-1 7-7 1-2c1-2 3-3 3 0l1 1 1-5c0-4-1-4-6-7-6-2-6-3 1 0 5 2 6 1 3-4-3-6-12-10-17-8l-20 2c-3 0-4 1-4 2h-2c-1-2-8-3-13-2l-8 1-5 1v-2l-2 1c-2-2 4-6 10-8s4-3-2-1m66 11l1 5 1 8c0 6 2 8 2 5l1-10c-2 0-2 0-4-6l-1-2m-113 1h-11c-13 1-18 3-5 3l10-2 2 1-1 1c-1 1-2 8-1 10 1 3 4 1 5-3l1-5 1-1c1 0 2 1 1 2 0 2 0 2 2 2 3 0 3 0 1 4-1 3-1 3 1 3 1-1 1-1 1 2v3l1-3a178 178 0 013-14l1-4h-6l-6 1m83 0l-1 4 3 3c5 2 6 1 6-1v-3c2 0 1-2-1-2l-5-2-2 1m5 19l-2 4-1 3 3-2 2-1-1 2c-2 2-2 3 0 6l2 2 2-2c1-2 2-3 1-5l1-3c1-1 0-2-3-4l-3-2-1 2m21 9l-8 9-8 8h5l7-2 3-1 2-2c1-1 1-1-1-1h-3l1-1c1 1 2-1 3-7v-4l-1 1m-33 3c-3 3-3 3-2 6l2 5c0 2 1 3 3 2v-5l-1-1c1-1 0-2-1-3s-1-1 1-3c3-4 2-4-2-1m95-2c-11 2-11 3 3 3l8-1-3-1c1-2 0-2-8-1m89 3c-3 2-3 5 1 5l8-1 5-1-3-1c-8 0-9-3-2-3l6-1h-7l-8 2m-317 6l-2 2h2c1-1 1-1 1 1l1 2 2 1 6 1c4 0 4 0 3-2s-5-4-5-2-3 1-5-1c-1-2-2-3-3-2m236 11l2 1h5l1 1 4 1c3 1 5 0 6-1 2-3 0-3-10-3-6 0-9 0-8 1m-303 1l-15 1-24 2c-14 0-18 2-6 2l10-1h17a53 53 0 0024-4h-6m59 5c-1 9-2 24-1 25l1 12 1 6 1-2 1-1 1 8c0 8 0 9 3 11 3 3 2 5-1 3-3-3-3-2-1 1l3 4 2 3 1 2 1 1v4l-1 3 3 4c2 6 4 5 4 0l1-6v6l2-5 4-6 2-3-3 2c-3 3-7 4-4 0h-1c-2 0-2 0-1-1v-1c-2 0-1-2 1-2l3-1h-3c-2 0-2 0-2-2v-2l-2-3-2-6-1-4c2-1 1-5-1-5l-1-3v-2c-2 0-5-11-5-18l-3-28-2 6M1 302c0 2 1 2 17 2 24 0 18-2-9-3-7-1-8 0-8 1m443 1c0 2 22 3 25 1 2-1-1-2-4-1-4 1-13 1-18-1l-3 1m-197 10l-4 10h5l5 1h2c-1-1 0-4 2-4l-2-4c-3-3-6-5-8-3m24 2c-3 3-2 5 1 5 8 2 9 2 8-1-1-5-6-8-9-4m-28 42l-4 2-5 1-4 2-3 4c-4 4-4 8 0 4h2l-1 3-2 2c0 1-1 1-3-1-1-1-1-1-3 2-1 3 0 4 2 2l2-2c1 2-10 11-12 11l-4 1-2-1 1-2 1-7-2 3c-1 2-1 2-3 2h-2l-1 1v-2c0-2 0-2-2 0l-2 4-1 3v4l1 2c0 3-2 3-2 0-1-2-5-2-6-1-2 2-2 5-1 5l1-2 1-2 1 2 2 1c2 0 1 2-3 3-3 1-5 2-5 4v1c2-1 1 2-1 3a4 4 0 00-2 7l1 1 3-5 3-2-2 6c-2 2-3 4-2 5 1 2 4 0 5-4 3-8 3-3 1 6-1 2-1 3 1 4s2 1 2-1l2-3 2-4c0-1 0-2 1-1v5a4 4 0 000 7c0 2 3 5 4 5l1-1v-3c1-2 5 0 4 2l1 2 1 2v4c1 2 1 0 1-3 0-2 2-1 3 2l3 3h1v2l1 2 1 3 1 2-2-1-5-1c-5-1-5-1-6 3l-1 7v4c-2 0-3-2-3-6-1-5-3-8-3-4l-1 3-1-4-1-4c-1-1-2 0-2 1l-1 1a3 3 0 00-1 4c1 0 2 1 1 3 0 3-1 3-3 3s-3 1-4 5l-4 8-3 5v2a4 4 0 000 6c1 2-1 3-3 2l-1 2 1 2 1 1c-1 5 0 10 2 13l2 4-1-1h-2c-1 1 3 9 5 10 3 2 3 0 1-4-2-5-3-6 0-4 2 3 2 3 1-8-1-12-1-13 1-6l2 5-1-8c-1-14 0-23 2-24l1 4v5l1 13 1 13c2 1 3-6 2-10l-1-3c2-1 3 2 3 7 0 4 0 4 2 4h2l3 1c3 0 3 0 1 1-2 0-2 0-2 6 1 6 1 6-4 6l-2 1c-3 8-4 11-5 9-1-1-1 1-1 4 0 7-2 17-2 11 0-2 0-3-1-2l1-5v-10c-1-1-1 0-1 1l-1 4-1-2-1-4c-1 0-1-1 1-1l3-1h-3c-3 0-5-2-5-4l-2-2 3 14 3 10c0 1 0 2 1 1l1 2-1 9a38 38 0 01-2 14l-3 9-2 7-1 2-3 5c-2 4-13 14-21 19l-7 6-1 3c-1-1-7 4-7 5l-3 5-3 5c-1 2-3 3-3 0v9c2 8 1 8-1 1s-3-7-5-3c-2 5-2 8-2 13l-1 5-2 10-2 12v3h65c44 0 64 0 63-1-3-2-7-9-8-13-1-9 8-14 16-10a5 5 0 004 2l2 4c3 5 4 11 2 15l-2 3h135l1-3-1-8c0-3 0-3-1-1 0 3 0 3-1 2s-1-1-2 1c-1 4-2 1-1-8v-11c-1-3-1-3-1-1l-1 3-2 3-1 1v-3a18 18 0 001-15c1-3-1-8-3-8l1-2c2-4 0-6-4-8-3-2-2-2 2-1h2l-2-3v-1c2 0 3 2 3 5l1 4v-4a53 53 0 00-10-36l-5-6-4-5-1-1-1-1c-3 2-9-13-7-17l2 5c1 7 3 8 3 1 1-6-2-18-4-12-1 4-1 5-1 2l-1-3-1-1c2-6 2-8-1-7h-1l-2-1a18 18 0 00-3 17c1 0 2 3 2 10l2 9 4 13-3-5c-1-4-3-7-5-7l-3-2c-5-3-7-3-8 0l-2 5a50 50 0 00-3 37c-1 2-4-7-4-11 0-3-1-1-2 3v17l-1-3c-2-3-2-5-2-8 3-14 2-14-6 2-6 11-7 15-7 23l-1 5-1-3c1-5-1-2-2 4s-1 10 1 8l2-1-1 3v7c0 4 0 4-1 3l-2-4-2-2-1-8c0-6 0-7-2-5l-2 5-2 2v-5l-1-1 1-1 1-1 4-8 3-7 2-6 2-6c1-4 7-17 8-16 1 0 4-6 3-7l1-1a51 51 0 008-19l1-1v-2l5-13 2-3v-3l1-2 1-4c0-2 0-3-1-2-2 3-2 0-1-3 2-3 3-18 1-15l-1 3c1 1 0 3-1 5v-12c-2-1-4-8-4-9l1 2c1 3 2 3 5-1v-3l-2-2h1c1 1 1 0 1-1 1-4 0-6-1-4h-2v-2l-2-5-5-8-3-4-3-1c-2 0-2 0-1-1l2-3c0-1 2-1 2 1a1 1 0 102-2c0-1 1-1 3 1l3 1-3-3c-4-4-1-6 3-2 4 3 6 2 3-1l-3-10 2 3 2 1-3-7v-3c1-1 1-1 3 2 3 3 4 1 2-4-2-3-1-4 3-1 3 2 3 1 4-6l1-6v16c-2-1-4 3-2 7l2 11c1 8 1 9 5 13s7 4 7 1l1-2v2l1 1 1-7c0-10 0-11 1-10 1 0 5-11 5-14l1-2 1-3-1-3v-2a9 9 0 00-2-9l-2-3-11-1c0 1 3 2 5 1l1 2 1 4-2-1-4-1c-1 1-9-2-9-3 0-3-6-8-7-7v-1c0-2 0-3-2-4l-1-9a213 213 0 002-17l2 2h1l-1-4-1-1-2-1c-1-1-1 0-1 2l-1 3-4-3h3l-2-3-2-3c0-4-3-12-4-12l-2-1-2-2v5l-1 4v4l-2-4-2-2-2-3c0-4-6-10-7-8v6c-2 0-1 3 1 3v3l2-3c1-2 1-2 2 1 0 3 1 4 3 4s3 0 2 5c0 2-2 3-2 1a6 6 0 00-5-5h-2l-5 2c-2 0-1 1 1 3l1 2v5c0 4 0 4-4-6-2-4-2-4-3-2v5l1 3 1 1 1 2c0 3 3 4 4 2 1-1 1-1 1 2l-2 4-2 2v2l-2-2c-1-2-2-2-3-1-2 1-1 5 1 10v5l-6 9h-2c-3 1-4 0-1-2l3-4 2-2 1-1v-7l-1 1-1 1v-1a4 4 0 00-4-4c-1 3-2 1-2-5-1-6-2-7-3-2 0 5 0 5-2 5h-2c-1-1-1 0-2 2-2 4-8 8-8 5 0-1 2-4 4-4l1-2h-1c-1 2-3-1-2-3l-1 1-2 2-1-2c-1-2-2-2-4-2h-2l3-2 1-2c-1-3-3-4-3-1l-1 3a6 6 0 000 5c2-2 1 0-1 3-1 3-4 3-3 0a2 2 0 00-2-2 228 228 0 01-1 7c0 1 0 2-1 1l-1-2 2-5v-3l-2 2-4 3c-1 1-1 1-1-1v-3l-1-2v-1c1-4-2-3-3 1l-4 3-2 1h1v3h-1c-1-1-1-1-1 1s-4 3-6 2v-2l1-2 1-2h1l2-2 3-4 1-1 1-2 1-2-4 2a7 7 0 01-5 3 1 1 0 01-2 0l1-1h-3l-6 6c-1-1 4-8 6-9l1-2 1-3c1-1 1-1 1 2 0 2 0 2 1 1 1-2 1-2 2-1a4 4 0 005-5l-1 2-1 2-1-2 1-5 2-2 10-5c0-3-8-7-11-6-2 2-3 1-5-1l-5-3c-2-1-2-1 0-1 1-1 2-2 1-5l-1-2-1-2a24 24 0 0113-11c4-5 9-6 19-6 9 0 10 0 9-2l-5-1h-4a17 17 0 00-13 3l-1-1c0-2-1-3-3-2m46 2a29 29 0 0020 8l-3-1-5-4-5-2-3-1c-1-3-4-2-4 0m71 15c-3 8-2 16 1 22 2 4 3 3 1-1v-10l1 4c1 3 1 1 1-6 0-16-1-18-4-9M48 396c-2 1 9 2 17 2 4 0 4 0 4 2l2-1 3-3H48m180 1l-3 4-1 2v-2c1-4 1-5-1-3 0 2-2 3-3 3l-4 1 2 1 1 1-1 1c-2 0-6 4-5 5l2-1c1-3 3-1 2 2v5h2c1 1 1 1 1-2-1-4-1-4 1-4l3 1c1 2 7-5 7-8l1-3 1-1-3 2-3 2 4-6 1-1c-1-1-3-1-4 1m92 6l-1 2c-2 0-1 3 1 4l3 3 2 2v-3l1-3c1-1-1-3-4-6-2-1-2-1-2 1m158 2a6 6 0 008 4l2 1h12c10 1 12 0 12-3 0-2-1-2-10-2h-24m-245 28l1 5v6c-2 1 1 2 4 0 3-1 3-3 0-2-2 0-3-2-1-2 1-1 0-7-2-8l-2 1m-55 29v1l1 3c0 2 0 2-1 1-2-3-3 0-2 3v4h1c1-1 1 0 1 1h2c1-2 1-3-1-3v-2l2-4c0-3-2-6-3-4m192 19c-4 8-4 12 0 8 3-5 5-8 5-12s-1-4-5 4m-81 8c-2 1-28 2-41 1h-3c12 2 38 2 45 0 3-1 5-2 3-2l-4 1m79 14c-2 2-3 6-1 5h1l-1 2c-2 0-1 7 1 10 1 2 1 2 2 0s0-8-1-8l-1-2c3-7 3-11 0-7m-171 8c0 5 0 6 2 6 3-1 2-12-1-12l-1 6m-4-3l-1 7c0 7-1 11-1 5l-1-3v6c1 3 3 4 3 2 2-4 1-20 0-17m168 5c-5 8-4 27 1 25 2-1 0-12-1-12v-3l1-12-1 2m-187 11c0 5 3 9 3 4 0-4 1 1 2 6a40 40 0 001 10c0 1 1 2 2 1 2-1 0-9-4-18-3-9-4-10-4-3m321 1c0 5 2 9 6 12 2 1 2 1 1-2-1-7-1-8-4-11l-4-4 1 5m12-2c0 1-1 2-2 1-4-1-2 16 3 21l1 3 2 2a18 18 0 000-13v-6l-1-3-1-2v-2l-1-1h-1m-275 15c0 2 1 3 6 4 6 1 9 1 7-1l-2-1c-3 1-6 0-5-2 1-1 0-1-1-1l-3-1c-2 0-2 0-2 2m-50 16l-1 5-1-2v-2l-1 9v9c3-1 6-21 4-22-1-1-1 0-1 3m27 3a9 9 0 005 18c9 0 15-10 9-17-3-2-11-3-14-1m-35 3a15 15 0 00-2 8l-5 10-2 6-3 6-7 11-4 7 6-4a35 35 0 0019-26l1-10c0-12 0-12-3-8m329-2l1 1 1 3 4 8 4 6v-7c0-4 0-6-1-5v2l-3-3-3-4a2 2 0 00-3-1m-287 1h1l1 1v1c1-1 1 0 1 1l1 2h1c0 1-1 2-3 2-1 0-2 0-1-1 2-2 1-3-1-3l-2 1-2 1h-5c-1-2-2 0-2 3s3 6 7 7c8 1 14-10 8-14-2-2-4-2-4-1M9 568a22 22 0 00-5 7l-2 2c-1 3 0 4 3 4v-2h1l3-3a18 18 0 017-10v-2l-1-1c0-2 0-1-6 5m-8 1c0 6 0 6 3 1 4-4 4-5 1-5-2 0-1-1 1-1l4-1H1v6m369-5a2 2 0 001 5h1v1c-1 1-1 2 1 5l1 2 1-3 1 4c0 2 3 9 6 13 1 2 2 2 1-5a23 23 0 00-2-10c1-1 2-1 2 1 1 1 1 0 1-2l-1-3-2-2c-1-2-1-3-2-2h-1c-1 0-1 1 1 4l1 3-2-2a2 2 0 00-2-2l-1-1-1-3c-1-4-2-4-4-3m-28 4c-3 5-2 6 2 8 5 3 6 2 3-3l-3-6-1-3-1 4m101 5l3 5 6 8c1-1-1-7-2-7l-3-4a6 6 0 00-5-3l1 1m-291 13l-5 7v1h-1l-1 1c1 1 0 1-1 2l-2 1-2 1c-3 0-6 5-7 9v3c-3 4 2 0 8-7 7-7 19-24 18-24l-7 6m249 23a16 16 0 004 15h1l1 3c0 1 0 2 1 1a21 21 0 00-2-16l-2-1c-2 0-2-1-1-3 1-1 1-1 0 0l-1-1v-3l-1 5m17 1c0 2 2 5 4 5v2c-1 2 4 8 8 10l2 2c0 1 0 2-8-6-4-3-6-4-3-1l3 6 2 6c3 6 2 5-1-1l-3-3 1 5c3 3 2 3 0 1l-2-7-2-6 1 10c2 9 6 14 8 12 2-1 5 1 4 2l1 1 1 1-2-1-3-1c-1 1 1 2 3 3 4 2 7 1 4-1-2-1-2-7-1-10 5-10 3-18-5-23-2-1-2-1-1 1s0 1-3-2c-5-6-7-7-8-5M92 621c-2 3-2 5 0 11l-1 2c-1-1-1 0-1 4 0 6 1 7 4 4 2-2 3-6 1-6v-6l-1-6-1-1 2-3c1-3-2-2-3 1m42-1c-3 2-7 6-7 9 0 1 2 1 3-1l4-3 5-7-5 2m307 12l1 5v18h3l3 1h-3c-3 0-3 1-1 15l2 9v3h8c7 0 8 0 9-3v-3a12 12 0 010-6c1 2 2 1 2-2 0-2 0-3 1-2v4c-3 8-1 16 2 10h1c0 3 9 3 9 0l1-2v2a2 2 0 102-1v-1l2-2v1c-2 3 0 5 5 5h5l-2-4-4-5-1-2-1-4-5-9c-3-7-4-7-4-3v4c-1 1 0 10 1 9l1 1v1l-3 3c0 2 0 3-1 2v-6c-1-2-1-2-1 0l-1 3c-2 1-3 0-1-2v-3l-1-2v2l-1 3-1 2v-3l-3-23 1 10-1 3-1-4-1-3-1-2-3 2c-3 5-4 5-1 0 2-4 2-5-1-3l-2 1 2-2c2-2 2-8-1-8-1 0-3-3-2-4l-4-4c-3-3-4-3-4-2v2l-1-2c0-3-1-2-2 2l-1 4v-5l-1-4v4m-42 2l1 5c1 1 3 1 3-2l1-1v2l-1 2c-2 0-1 3 1 5s2 2 1 3h-1l-1-3-3-3-1-3-2 7c-3 13-1 29 3 19 2-7 3-8 2-4l-1 5c-2 3-2 5 2 11l4 6h11l10-1c0-3-4-11-5-10l-1-1-4-10a50 50 0 01-6-12l-3-6-2-4-1 2v-2c1-2-1-8-3-8l-2-1c-2 0-2 1-2 4m-314 4l-2 1c-1-2-4 4-4 8 0 2 0 2-1 1-3-2-3 3-2 7 2 2 2 2 2 0 0-3 1-5 2-5l1 1-1 1c2 0 6-11 6-14-1-2-1-2-1 0m324 0c0 2 6 17 9 21 4 7 4 4 1-6l-6-12-4-3m16 11l4 5c-2 0-3 4-1 6l1 2 2 5c1 2 2 5 1 6l1 4c1 1 1 1 1-2v-3l2 8v2l1-8 1-6v8c0 6 1 9 2 5h1l2 2c2 0 2 0 1-2l-4-16-3-3-1-4v-4l-6-3c-4-3-8-4-5-2m60 1c-2 3-1 6 1 7 3 2 3 4 1 3-2 0-2 4 2 9 2 4 2 4 4 1s-2-16-7-22l-1 2m-380 14v6l1 2 1 1c-2 1-5-2-4-5l-1-3-3 17 4 1h5l-1-8-1-12-2-3 1 4m-9 1l-1 6a11 11 0 01-5 10c0 2 1 2 3 2 4 0 4 0 4-4 2-9 0-22-1-14m145 4a11 11 0 003 7l3 3 2 1 2 1a4 4 0 004-5c0 2 0 2-2 0v-4c2-2 0-4-3-4-2 0-2 0-1-1s1-1-1-2l-5 1c-1 2-1 2-1 0-1-1-1 0-1 3m-172 4l-4 3c-1 0-2 1-2 3-2 4-2 4 0 4 3 0 9-7 9-10v-2l-3 2"
      fill-rule="evenodd" tabindex="-1" itemprop="bold"></path>
    </symbol>
  </defs>
  <defs class="gradients">
    <g class="radial">
      <radialGradient id="-posters-1651328274604-radial">
        <stop itemprop="radial" stop-color="hsla(17, 6%, 74%, 1.00)" offset="0%"></stop>
        <stop itemprop="radial" stop-color="hsla(25, 6%, 78%, 1.00)" offset="15%"></stop>
        <stop itemprop="radial" stop-color="hsla(351, 2%, 68%, 1.00)" offset="30%"></stop>
        <stop itemprop="radial" stop-color="hsla(344, 3%, 64%, 1.00)" offset="45%"></stop>
        <stop itemprop="radial" stop-color="hsla(0, 2%, 67%, 1.00)" offset="60%"></stop>
        <stop itemprop="radial" stop-color="hsla(31, 6%, 75%, 1.00)" offset="75%"></stop>
        <stop itemprop="radial" stop-color="hsla(28, 8%, 71%, 1.00)" offset="90%"></stop>
      </radialGradient>
      <radialGradient id="-posters-1651328274604-radial-background">
        <stop stop-color="hsla(17, 6%, 80%, 1)" offset="0%"></stop>
        <stop stop-color="hsla(25, 6%, 80%, 1)" offset="15%"></stop>
        <stop stop-color="hsla(351, 2%, 80%, 1)" offset="30%"></stop>
        <stop stop-color="hsla(344, 3%, 80%, 1)" offset="45%"></stop>
        <stop stop-color="hsla(0, 2%, 80%, 1)" offset="60%"></stop>
        <stop stop-color="hsla(31, 6%, 80%, 1)" offset="75%"></stop>
        <stop stop-color="hsla(28, 8%, 80%, 1)" offset="90%"></stop>
      </radialGradient>
      <radialGradient id="-posters-1651328274604-radial-light">
        <stop stop-color="hsla(17, 6%, 60%, 1)" offset="0%"></stop>
        <stop stop-color="hsla(25, 6%, 60%, 1)" offset="15%"></stop>
        <stop stop-color="hsla(351, 2%, 60%, 1)" offset="30%"></stop>
        <stop stop-color="hsla(344, 3%, 60%, 1)" offset="45%"></stop>
        <stop stop-color="hsla(0, 2%, 60%, 1)" offset="60%"></stop>
        <stop stop-color="hsla(31, 6%, 60%, 1)" offset="75%"></stop>
        <stop stop-color="hsla(28, 8%, 60%, 1)" offset="90%"></stop>
      </radialGradient>
      <radialGradient id="-posters-1651328274604-radial-regular">
        <stop stop-color="hsla(17, 6%, 40%, 1)" offset="0%"></stop>
        <stop stop-color="hsla(25, 6%, 40%, 1)" offset="15%"></stop>
        <stop stop-color="hsla(351, 2%, 40%, 1)" offset="30%"></stop>
        <stop stop-color="hsla(344, 3%, 40%, 1)" offset="45%"></stop>
        <stop stop-color="hsla(0, 2%, 40%, 1)" offset="60%"></stop>
        <stop stop-color="hsla(31, 6%, 40%, 1)" offset="75%"></stop>
        <stop stop-color="hsla(28, 8%, 40%, 1)" offset="90%"></stop>
      </radialGradient>
      <radialGradient id="-posters-1651328274604-radial-bold">
        <stop stop-color="hsla(17, 6%, 13%, 1)" offset="0%"></stop>
        <stop stop-color="hsla(25, 6%, 13%, 1)" offset="15%"></stop>
        <stop stop-color="hsla(351, 2%, 13%, 1)" offset="30%"></stop>
        <stop stop-color="hsla(344, 3%, 13%, 1)" offset="45%"></stop>
        <stop stop-color="hsla(0, 2%, 13%, 1)" offset="60%"></stop>
        <stop stop-color="hsla(31, 6%, 13%, 1)" offset="75%"></stop>
        <stop stop-color="hsla(28, 8%, 13%, 1)" offset="90%"></stop>
      </radialGradient>
    </g>
    <g class="vertical">
      <linearGradient id="-posters-1651328274604-vertical" x1="0" x2="0" y1="0" y2="100%">
        <stop itemprop="vertical" stop-color="hsla(18, 5%, 75%, 1.00)" offset="0%"></stop>
        <stop itemprop="vertical" stop-color="hsla(23, 4%, 76%, 1.00)" offset="15%"></stop>
        <stop itemprop="vertical" stop-color="hsla(342, 3%, 64%, 1.00)" offset="30%"></stop>
        <stop itemprop="vertical" stop-color="hsla(18, 3%, 69%, 1.00)" offset="45%"></stop>
        <stop itemprop="vertical" stop-color="hsla(30, 8%, 71%, 1.00)" offset="60%"></stop>
        <stop itemprop="vertical" stop-color="hsla(18, 5%, 75%, 1.00)" offset="75%"></stop>
        <stop itemprop="vertical" stop-color="hsla(24, 4%, 75%, 1.00)" offset="90%"></stop>
      </linearGradient>
      <linearGradient id="-posters-1651328274604-vertical-background" x1="0" x2="0" y1="0" y2="100%">
        <stop stop-color="hsla(18, 5%, 80%, 1)" offset="0%"></stop>
        <stop stop-color="hsla(23, 4%, 80%, 1)" offset="15%"></stop>
        <stop stop-color="hsla(342, 3%, 80%, 1)" offset="30%"></stop>
        <stop stop-color="hsla(18, 3%, 80%, 1)" offset="45%"></stop>
        <stop stop-color="hsla(30, 8%, 80%, 1)" offset="60%"></stop>
        <stop stop-color="hsla(18, 5%, 80%, 1)" offset="75%"></stop>
        <stop stop-color="hsla(24, 4%, 80%, 1)" offset="90%"></stop>
      </linearGradient>
      <linearGradient id="-posters-1651328274604-vertical-light" x1="0" x2="0" y1="0" y2="100%">
        <stop stop-color="hsla(18, 5%, 60%, 1)" offset="0%"></stop>
        <stop stop-color="hsla(23, 4%, 60%, 1)" offset="15%"></stop>
        <stop stop-color="hsla(342, 3%, 60%, 1)" offset="30%"></stop>
        <stop stop-color="hsla(18, 3%, 60%, 1)" offset="45%"></stop>
        <stop stop-color="hsla(30, 8%, 60%, 1)" offset="60%"></stop>
        <stop stop-color="hsla(18, 5%, 60%, 1)" offset="75%"></stop>
        <stop stop-color="hsla(24, 4%, 60%, 1)" offset="90%"></stop>
      </linearGradient>
      <linearGradient id="-posters-1651328274604-vertical-regular" x1="0" x2="0" y1="0" y2="100%">
        <stop stop-color="hsla(18, 5%, 40%, 1)" offset="0%"></stop>
        <stop stop-color="hsla(23, 4%, 40%, 1)" offset="15%"></stop>
        <stop stop-color="hsla(342, 3%, 40%, 1)" offset="30%"></stop>
        <stop stop-color="hsla(18, 3%, 40%, 1)" offset="45%"></stop>
        <stop stop-color="hsla(30, 8%, 40%, 1)" offset="60%"></stop>
        <stop stop-color="hsla(18, 5%, 40%, 1)" offset="75%"></stop>
        <stop stop-color="hsla(24, 4%, 40%, 1)" offset="90%"></stop>
      </linearGradient>
      <linearGradient id="-posters-1651328274604-vertical-bold" x1="0" x2="0" y1="0" y2="100%">
        <stop stop-color="hsla(18, 5%, 13%, 1)" offset="0%"></stop>
        <stop stop-color="hsla(23, 4%, 13%, 1)" offset="15%"></stop>
        <stop stop-color="hsla(342, 3%, 13%, 1)" offset="30%"></stop>
        <stop stop-color="hsla(18, 3%, 13%, 1)" offset="45%"></stop>
        <stop stop-color="hsla(30, 8%, 13%, 1)" offset="60%"></stop>
        <stop stop-color="hsla(18, 5%, 13%, 1)" offset="75%"></stop>
        <stop stop-color="hsla(24, 4%, 13%, 1)" offset="90%"></stop>
      </linearGradient>
    </g>
    <g class="horizontal">
      <linearGradient id="-posters-1651328274604-horizontal" x1="0" x2="100%" y1="0" y2="0">
        <stop itemprop="horizontal" stop-color="hsla(25, 7%, 73%, 1.00)" offset="0%"></stop>
        <stop itemprop="horizontal" stop-color="hsla(27, 7%, 74%, 1.00)" offset="15%"></stop>
        <stop itemprop="horizontal" stop-color="hsla(334, 2%, 60%, 1.00)" offset="30%"></stop>
        <stop itemprop="horizontal" stop-color="hsla(315, 3%, 56%, 1.00)" offset="45%"></stop>
        <stop itemprop="horizontal" stop-color="hsla(0, 2%, 59%, 1.00)" offset="60%"></stop>
        <stop itemprop="horizontal" stop-color="hsla(31, 6%, 70%, 1.00)" offset="75%"></stop>
        <stop itemprop="horizontal" stop-color="hsla(29, 8%, 69%, 1.00)" offset="90%"></stop>
      </linearGradient>
      <linearGradient id="-posters-1651328274604-horizontal-background" x1="0" x2="100%" y1="0" y2="0">
        <stop stop-color="hsla(25, 7%, 80%, 1)" offset="0%"></stop>
        <stop stop-color="hsla(27, 7%, 80%, 1)" offset="15%"></stop>
        <stop stop-color="hsla(334, 2%, 80%, 1)" offset="30%"></stop>
        <stop stop-color="hsla(315, 3%, 80%, 1)" offset="45%"></stop>
        <stop stop-color="hsla(0, 2%, 80%, 1)" offset="60%"></stop>
        <stop stop-color="hsla(31, 6%, 80%, 1)" offset="75%"></stop>
        <stop stop-color="hsla(29, 8%, 80%, 1)" offset="90%"></stop>
      </linearGradient>
      <linearGradient id="-posters-1651328274604-horizontal-light" x1="0" x2="100%" y1="0" y2="0">
        <stop stop-color="hsla(25, 7%, 60%, 1)" offset="0%"></stop>
        <stop stop-color="hsla(27, 7%, 60%, 1)" offset="15%"></stop>
        <stop stop-color="hsla(334, 2%, 60%, 1)" offset="30%"></stop>
        <stop stop-color="hsla(315, 3%, 60%, 1)" offset="45%"></stop>
        <stop stop-color="hsla(0, 2%, 60%, 1)" offset="60%"></stop>
        <stop stop-color="hsla(31, 6%, 60%, 1)" offset="75%"></stop>
        <stop stop-color="hsla(29, 8%, 60%, 1)" offset="90%"></stop>
      </linearGradient>
      <linearGradient id="-posters-1651328274604-horizontal-regular" x1="0" x2="100%" y1="0" y2="0">
        <stop stop-color="hsla(25, 7%, 40%, 1)" offset="0%"></stop>
        <stop stop-color="hsla(27, 7%, 40%, 1)" offset="15%"></stop>
        <stop stop-color="hsla(334, 2%, 40%, 1)" offset="30%"></stop>
        <stop stop-color="hsla(315, 3%, 40%, 1)" offset="45%"></stop>
        <stop stop-color="hsla(0, 2%, 40%, 1)" offset="60%"></stop>
        <stop stop-color="hsla(31, 6%, 40%, 1)" offset="75%"></stop>
        <stop stop-color="hsla(29, 8%, 40%, 1)" offset="90%"></stop>
      </linearGradient>
      <linearGradient id="-posters-1651328274604-horizontal-bold" x1="0" x2="100%" y1="0" y2="0">
        <stop stop-color="hsla(25, 7%, 13%, 1)" offset="0%"></stop>
        <stop stop-color="hsla(27, 7%, 13%, 1)" offset="15%"></stop>
        <stop stop-color="hsla(334, 2%, 13%, 1)" offset="30%"></stop>
        <stop stop-color="hsla(315, 3%, 13%, 1)" offset="45%"></stop>
        <stop stop-color="hsla(0, 2%, 13%, 1)" offset="60%"></stop>
        <stop stop-color="hsla(31, 6%, 13%, 1)" offset="75%"></stop>
        <stop stop-color="hsla(29, 8%, 13%, 1)" offset="90%"></stop>
      </linearGradient>
    </g>
  </defs>
  <defs class="filters">
    <filter id="light-filter">
      <feColorMatrix in="SourceGraphic" type="matrix" values="1.5 0 0 0 0
                0 1.5 0 0 0
                0 0 1.5 0 0
                0 0 0 1.5 0"></feColorMatrix>
    </filter>
    <filter id="regular-filter">
      <feColorMatrix in="SourceGraphic" type="matrix" values="1.5 0 0 0 0
                0 1.5 0 0 0
                0 0 1.5 0 0
                0 0 0 1 0"></feColorMatrix>
    </filter>
    <filter id="bold-filter">
      <feColorMatrix in="SourceGraphic" type="matrix" values="1 0 0 0 0
                0 1 0 0 0
                0 0 1 0 0
                0 0 0 1 0"></feColorMatrix>
    </filter>
    <filter id="emboss">
      <feConvolveMatrix kernelMatrix="1 0 0
                      0 0 0
                      0 0 -1"></feConvolveMatrix>
    </filter>
  </defs>
  <g itemscope="" itemtype="/settings">
    <use itemprop="background" href="#-posters-1651328274604-background" style="fill: url(#-posters-1651328274604-radial-background);"></use>
    <use itemprop="light" href="#-posters-1651328274604-light" filter="url(#light-filter)" style="fill: url(#-posters-1651328274604-vertical-light); stroke: url(#-posters-1651328274604-horizontal-light);"></use>
    <use itemprop="regular" href="#-posters-1651328274604-regular" filter="url(#regular-filter)" style="fill: url(#-posters-1651328274604-horizontal-regular); stroke: url(#-posters-1651328274604-vertical-light);"></use>
    <use itemprop="bold" href="#-posters-1651328274604-bold" style="fill: url(#-posters-1651328274604-vertical-bold); stroke: url(#-posters-1651328274604-radial-regular);"></use>
    <use class="emboss light" tabindex="-1" href="#-posters-1651328274604-light" fill="gray" filter="url(#emboss)"></use>
    <use class="emboss regular" tabindex="-1" href="#-posters-1651328274604-regular" fill="DimGray" filter="url(#emboss)"></use>
    <use class="emboss bold" tabindex="-1" href="#-posters-1651328274604-bold" fill="gray" filter="url(#emboss)"></use>
  </g>
</svg>
