<svg id="-posters-1650603790866" itemscope="" itemtype="/posters" itemid="/+/posters/1650603790866" viewBox="0 0 512 683" preserveAspectRatio="xMidYMid slice" tabindex="0" xmlns="http://www.w3.org/2000/svg"><defs class="symbols"><symbol id="-posters-1650603790866-background"><rect itemprop="background" width="100%" height="100%" tabindex="-1"></rect></symbol><symbol id="-posters-1650603790866-light"><path d="M0 238c0 226 0 238 2 238l6-2c0-1 4-1 14 1l18 4a3 3 0 014 2l3 1 1-1v-1l1 2 3 3c2 3 2 4-2 2h-1c0 3-33 11-44 11l-5 1v36l1 36h8c31 3 48 3 51 2l9-4 10-4 5-2 6-3 5-2c1 1-2 29-3 34v4l8 2a458 458 0 0017 6l13 5c11 3 13 4 9 6l-3 1-4 2c-7 2-4 3 24 7l15 3 1-1-3-1-1-1 1-1 7 3 6 3a216 216 0 01-27 19l-26 18c-13 8-23 16-22 16l4-2c14-11 48-32 51-32 2 0 2 0 1-1-2-1-1-2 14-12 9-6 8-6 15-2 7 3 7 3 2 6-5 4-5 5 0 7 5 3 9 2 15-4l2-1c2 0 1 2-2 3-3 2-3 3-3 6v5l-6-1-7-1 5 1c7 1 9 3 9 6s2 5 17 12c8 5 9 5 16 5 6 0 7 0 6 1l-2 1v1c0 3 2 2 5-1 2-2 3-3 11-3s9 0 11-3c4-4-1-5 51 5l20 4-36-8c-32-6-30-5-27-8 5-5 6-8 2-11l-4-8c0-2-1-2 14 0 21 4 19 4 21 2h1c-1 2 0 2 4 3l13 2 16 3 35 7c2 0 2 1 1 2a95 95 0 00-3 16l5-16c0-2 7-1 42 5l18 3 4-29c0-3 0-4 1-3 0 2 8 2 9 0 1-1 1-1 1 1s2 3 3 1l1-2v1c0 2 2 3 4 2 1-1 1-1 0 0 0 2 0 2 3 2 1 0 2 0 1-1v-2l1-1-22-4-1-6c0-9 0-9 5-7l4 1-3-2c-3-1-3-1-1-2 3 0 2-3-1-2l-1-2c0-2 0-2-1-1h-1a5 5 0 012-4c-2 1-2-19-1-22v-1c-1 0-2 3-2 8l-1 4v5c0 5 0 5-2 5a2 2 0 100 4c3 1-1 1-26-3a294 294 0 01-29-5l-26-3-37-5-93-13-29-3-9-1 7-5c7-4 11-8 9-8l-7 5a40 40 0 01-10 6l-9 1c-7 0-7 0 2 2l3 1h-7l-22-1 7 1c8 0 16 1 15 2v1l-3 1-19 12c-11 6-14 9-10 9h1c-1 1-53-17-54-18l-1-3 2-17c2-20 1-19 15-24a555 555 0 0031-13l11-6 9-4c4-1 8-2 10-4l9-4 12-5a21 21 0 0111-3c-1-1 11-6 16-7l3 1h2l-1-2-2-1 2 1c6 1 10 1 10-1 1-2 1-2 5-2 4 1 6 0 2-1v-1c3 0 5 2 2 3-1 2-1 2 1 2l-1 1-3 1h3l4 1 11 1c10-1 15 0 13 2l-28-1h-18l32 2 10 1 12 1c10 0 12 1 13 2h-5c-3 1-2 3 2 3 3 0 3 3 0 3-5 0-1 2 4 2l14 1a5288 5288 0 00139 14l1 4c0 3 0 4-2 4l-45-4a1917 1917 0 00-117-12l-7-1h-7a50 50 0 00-26 0l-4 1-4 1 4 1c4 0 5-1 4-3h19c10 2 10 5 0 5l-8 2-9 1c-12 0-1 2 14 2l13 1 38 4a6803 6803 0 0195 11l38 5h4v5l-1 6a928 928 0 01-45-5l-34-5c-17-2-22-2-35-1l-30 5c-12 2 15 0 30-3a60 60 0 0128 1l5 1h3l11 1h9l-6 1h1l8 1-4 1-4 1c-2 1 1 3 4 3s11 2 12 4h6l3 1c2 0 2 0 1 2v1l2-2h1l17 5 2 2c1 2 3 2 11 2l3 3c0 3 2 1 2-4 0-4 0-4 1-2 0 2 1 3 2 3v1c-2 1-1 2 3 2l7 2 2-1 1-2v2c-1 2 0 4 3 3 3 0 4 1 2 3l-1 7c0-1 2 0 2 2l2 4v-3c0-3 0-3 2-2l2 1 1 2c-1 2-1 2 3 2 3 0 6 2 6 4 0 1 3 3 6 3l4 1 2 1 2 1 1 1 4 2 3 2v-48l-8 1-8-1c0-1-9-5-13-5l-3-1 3-1 11 2 9 2 5 1 4 1v-5l1-287V0H0v238m0 1c0 130 1 184 1 119a66484 66484 0 00-1-119m166 237c-2 3 1 4 17 4l56 5 37 2a1176 1176 0 0134 2c-1-2-41-5-54-5l-15-1c-1-1 0-1 1-1 5 0-1-1-12-3l-16-2c-3 0-4 2-1 2l-2 1c-3 0-4-1-4-2 1-2-39-4-41-2m117 16l-8 1c-8 0-11 1-4 2 4 0 2 1-7 1-17 0-16 2 2 2l29 3 25 3 23 2 40 3a4294 4294 0 0171 6v-2c0-2 1-2-25-4a9646 9646 0 01-87-7c-15-1-17-2-15-3 1-1 0-1-7-1-9 0-9 2-1 2 3 0 4 0 3 1l-9-1-19-2c-8-1-6-1 14-1l39 2 67 5 38 3h13c4-1-17-4-50-6l-57-5 3-1-5-1h-26c-5 1-5 0 0-1 3-1 1-1-6-1h-41M0 537c0 18 1 26 1 16a1171 1171 0 00-1-16m304-28l-2 2-2 1-2 2c0 2 0 2 3 1 2-1 4-1 34 2a2803 2803 0 0044 4c26 3 73 7 74 6l1-3c0-2-1-3-15-3l-55-6-28-2-31-3c-9-1-18-2-21-1m164 3l5 2 20 4c18 3 19 3 19 2l-3-1-4-1h3c3 0 4 0 3-1l-30-4-11-2c-4 0-4 0-2 1m-13 13c0 3 0 3 4 4s8 1 8-1l1-2-1-2v1l-3 1c-2 0-2 0-1-2 2-1 2-1 0-1l-5-1c-3 0-3 0-3 3m7 9c-3 0-4 2-1 3l4 1 6 2 6 2 6 1 7 2 20 6 2-2c0-3-1-3-6-4l-6-2-9-3a180 180 0 01-11-3l-8-2-7-2-3 1m-7 5c-2 2-1 7 2 7h10l-2-1c-2 0-2 0 0-2h2c1 2 2 3 8 4 7 1 13-1 7-2l-7-2-7-2-4-1c-1-1-8-2-9-1m-305 2c-4 0-2 2 3 2l12-2h-15m51 1c-4 1-4 3-1 4 6 2 21-1 21-3s-13-3-20-1m48 7l-8 5-7 5c-4 3 0 1 8-3l10-7c3-1 3-2 2-2l-5 2m216 0v4l8 1 19 2c19 1 20 1 20-1l-1-3-9-1a306 306 0 00-37-2m-12 16v6h4l6 2c1 2 5 2 6 1l-2-1-1-2 1-2h5c1 2 4 1 4-1l-1-1-1-1a2 2 0 00-3-2l-1 1v-1c0-2 0-2-2-2l-4-1-6-1-5-1v6m-258 23c-1 1 2 2 12 3 8 0 10 1 8 2h-3c2-2-10 0-12 1-1 2-1 2 1 1 3-2 4-3 3-1h2c4-2 3 0-1 2l-4 2-1-1-1 2c1 1-4 5-6 5l-3 3-3 2 4-3c3-1 5-2 6-1l-1 1-3 2c-2 2-2 2 1 0l7-5c2-2 2-2 0 0l-4 1c0-1-1-1 6-5l6-4 2-1 1 1 3-1c4-3 6-3 4 0h5c2-1 10-1 10 1h2c3-1 2 1-5 7l-8 6 10-7c6-5 8-6 11-6l3 1h1c3 0 2 1 0 3l-24 19 16-12c3-3 12-9 15-9 5-1 12 1 10 3l-2 2 2-1c3-2 11-3 10-1h3c5 0 5 0 1 5l-2 2 4-3 4-3v3l-3 3 2-2c4-4 8-4 8-1 0 2 2 1 4-1h2l3 1 10 1h4l4 1-11 13-2 3c0 2 4-3 10-11l4-5h6l8 1 1 1a80 80 0 01-7 11l-1 2c-4 4-9 12-7 12l3-5a16 16 0 015-6c0-3 9-14 11-14 4 0 6 2 4 4l-2 3 3-3c1-3 4-4 4-2l-4 6v2l-1 1h-1c0 3 2 1 5-4s6-7 4-3l-5 9-1 2v1c-1-1-1 0-1 2l8-11c2-5 6-7 5-3v1c3-4 5-2 2 2l-2 5h1l3-5c3-4 3-4 7-3l6 1-1 4-2 4c1 1 1 0 2-1 2-6 3-6 12-5 8 1 9 1 7 3l-1 3-1 4-4 12 3-8c5-14 5-13 9-12 4 0 5 1 3 2l-1 3-1 6-1 5 3-7c2-8 4-10 8-8l4 1c2 0 2 0 2 2v4c1 1 1 1 1-2l3-3c1 0 1 3-1 11-1 7 1 4 2-4l2-7h5c6 1 7 3 7 9v5l1-4c0-7 1-8 6-7l6 2 2-1c2-2 3-4 1-3l-9-1-24-4-36-5a2360 2360 0 00-90-13l-26-3-44-6c-14-2-26-3-26-1m18 23a36 36 0 00-6 4 3 3 0 00-2 6l-2-1-3-1a22 22 0 01-17-4 1 1 0 11-1 1h-1c-2 1-4 1-10-1h-3v1c-2 2-2 2 1 3h2c-2-2-2-2 0-2l3 1 3 1 3 1 2 1c2 0 2 0 1 1s-3 0-5-1l-4-1 4 2 5 3h5c-1-1 3-3 7-4h3c-1 1 0 2 1 3 1 0 2 1 1 2 0 1 1 1 4-2h4l-2 1-3 2c-2 2-2 2 0 2l3-1c2-2 7-3 7-2l-1 1-4 2h8l5 1-1-1-2-1 5-1c10 1 14 2 14 4l1 1 1-1h4c0 1 2 1 4-1 3-1 6-1 3 1v1l7-6c5-5 4-5-1 0-5 4-7 4-3 0v-1l-2 1c0 1-4 2-5 1l1-1 1-2-1 1c-2 2-3 2-7 1h-6l-1-2v-1l-4 1-4-1c-5 1-7-1-3-3l1-1-4 2c-2 1-3 2-6 1h-5c-2 1-1-1 2-4l1-2-2 2c-1 1-4 2-4 0l3-2 8-7-3 2m157 3l-2 2-3 7-3 8h-1l-1 1-1 4-2 4-1 2-1 4c-1 3 0 3 2 3s3-1 1-2-2-2 7-19c6-13 7-16 5-14m-17 4l-2 3-4 7-3 5v2c0 2 0 2-1 1s-1-1-1 1l-1 2-1 1v1l-1-1c-1-1 0-2 4-9v-3l-2 3-3 4c-1-1-1 0 0 0 0 2-2 5-3 4l-1 1 2 1h3c1 2 3 1 6-5l6-11 4-10c-1 0-2 1-2 3m24 0l-2 4-1 3-1 3-2 4-5 12-1 4c0 3 1 3 3 3l5 1h3l1-4h-1c-1 2-6 2-8 0-1-1 4-18 6-19l1-3 1-3a11 11 0 003-8l-2 3m-16 2l-1 3-1 2v1l-1 2c-1-1-2 2-1 3l-1 1-2 3-2 2-1 2c-1 1-1 1 0 0v2c0 3-2 4-4 3-1 0-1-1 1-4l9-19-2 3-3 4-1 3v1l-3 6-4 5v2h-1l-5-1h-5c-4-2-7-2-7-1l2 1 1 2c-1 2 0 3 1 1 1-3 4-2 4 0v1l1-2h8c2 2 8 2 8 0l7-14 6-14c0-1-2 0-3 2m-93 4c-3 4-8 8-10 8l1-1 2-3 1-2-2 2c-5 3-3 5 3 4 5 0 6 0 8-3 3-4 3-5 0-2l-5 4c-2 0-1-2 3-6l3-4-4 3m171 1c2 1-3 33-6 34-2 1-3 2-1 4l1-1 2-3c2-1 2-4 3-14l3-17c0-3 0-4-2-4v1m21 4c-1 0 1 2 3 2l15 6 12 4-1-1-3-2-7-3-13-5-6-1m-32 8l-4 18c0 2-1 2-4 2l-4 1h5l4 1c1 2 1 2 3 1 3-2 4-3 4-12l1-6-1 5-2 8c0 2-1 3-2 3-3 1-2-4 0-18l1-7-1 4m-35 10l-4 6-2 1 2 1 1 1-2 2-5 1c-2 0-3 0-1 1l2 1c-1 2 4 4 5 2v-3c-1-2-1-2 3-3 3-1 5-4 3-5l-1 1-1 1c-1 0-1-3 1-7l1-4-2 4m81-3l-1 2c0 2 6 3 8 1h1c0 2 5 5 7 4s1-5-1-5h-5l-6-2h-3m25 0c3 2 4 5 6 24 2 13 4 19 4 9l-2-7 2-2v-1c-3 0-7-20-4-20 2 0 1-2-2-3-3-2-7-1-4 0M14 670l8 2 18 4c21 6 29 7 30 7l-10-3-26-6-20-4" fill-rule="evenodd" tabindex="-1" itemprop="light"></path></symbol><symbol id="-posters-1650603790866-regular"><path d="M192 4c0 4 0 4 3 4 2 0 2 0 2 4s0 4-2 4c-3 0-3 0-3 4v4h8v4l-1 4c-2 0-2 1-2 4s0 4 2 4l1 4c0 4 0 4 3 4 2 0 2 0 2 4v4h19v8l1 8-8 3a285 285 0 00-29 10l-11 4 8-2c30-9 39-11 43-10 4 0 5 2 2 2l-2 1h2c2 0 2 1 2 4v4h8v4c0 3 0 4-2 4v1h10l-6 3c-10 2-11 3-5 4h5l4-1 2-1 5-1c4-1 5-1 4 1l-5 1-4 1-3 1c-2 0-5 2-5 4l2-1c2-2 5-3 5-1l-1 1-2 1h2c2 0 2 0 1 1l-3 7c-1 5-2 7-3 6l1-4 1-6-1-3v3l-1 5-1-3c1-2 1-3-1-3s-3 1-3 4l-3 4c-1-1-1 0-1 1 0 2 0 3-2 3-2 1-2 1 0 1 5 0 1 2-8 3l-9 1-3-3-4-5-2-2-14 2a7178 7178 0 00-57 8c-10 1-11 2-6 7l3 3h-3c-5 0-5 5 1 12 3 2 2 23-1 28v6c1 2 0 33-1 34l-41-3a2731 2731 0 01-83-8c-4 0 15 3 43 5l58 6c22 1 23 1 23 4l-1 14c-1 15-2 18-6 18-6 1-8 0-24-15-2-3-7-6-10-7l-11-5c-7-4-7-4-12 1l-15 14c-11 10-12 12-10 13l2 4 4 4c5 3 7 5 6 6h-1c-3-2-25-10-29-10-3 0-4-1-11-8l-8-7v115l1 116c2 0 7-2 7-4h2l17 3c20 4 33 9 33 13 0 2 0 2-4-1-3-3-5-4-3-1 2 2 2 2-4 4l-15 5-13 3h-8c-4 1-8 2-10 1-3 0-5 2-1 3v1c-2 0-2 2-2 34v33h2l17 1c16 2 21 2 32-2 5-2 8-3 10-2 3 0 3 0 3-2-1-1-1-1 0 0l3 2-15 5h-3l3 1c3 1 9-1 24-8l14-5 6-3v3l-1 19-2 17a25665 25665 0 0048 16l12 5a1284 1284 0 0130 13l2 1 8 3c8 3 8 2 0 8l-3 3 3 1c5 3 7 3 12-1 5-3 8-4 8-2l-3 3-3 2 1 8c0 9-1 8 13 15 11 6 12 6 19 6 8 0 9 1 7 3l-2 2 3-2c2-3 3-3 10-4 10 0 10 0 17-8 8-7 8-6 4-13l-3-7-1-1-1-1c0-1-5-4-13-7l-13-5-13 1-15 3c-2 2-4 2-5 2-1-1-1-1 1-3 6-4 6-4 4-5-4-3-8-3-13-1l-4 3-5-2-9-4a753 753 0 00-86-31c-5-2-5-2-3-24l2-19 11-4a519 519 0 0036-16l2-2-4 1-3 1h-7l-8-1-10-1c-12-1-11-1-11-3-1-1-1-1-1 1l1 3c1 1 0 2-2 1v-12l2-20v-9h3l16-2 11-1 7-1h14l25 1 51 2h35c10-3 102 0 95 3-4 2 5 2 64 7 21 1 28 2 65 9l17 3 1 28V403a69153 69153 0 000-299V0H192v4m60 113c1 6 1 6 8 5l7-1-6 1c-6 0-6 0-6-2 0-1 0-2 1-1a5 5 0 003 0v-5l1 2c0 2 2 4 4 4v-1l-3-4c-1-4-4-4-4-1 0 2 0 2-2 0-1-2-1-2-1 0 0 4 0 4-1 1s-1-3-1 2m171 108l-1 1c-2-1-2 0-2 4 0 2 0 2 1 1l1-1a2 2 0 11-3-1l-1-2v6c2 1 1 3-1 5-4 4-4 13 0 13 3-1 3 0 5 10l1 6h6l6 1h19l-1-15c0-12-1-16-2-16a3 3 0 012-6c-2-1-5 1-4 4l-1 4c-2 2-3 1-3-3s0-4-2-4l-3-1c0-2-1-2-4-2-4 0-4 0-4-2 0-3 0-3-4-3l-5 1m35 13l-1 1c-2 0-2 2-2 14v15l4-1h4l-4-1-2-1c2 0 2-1 2-4l1-10c0-9-1-14-2-14v1m12 0v7l-1 22 1-10 1-15v-5l-1 1m9 6v7c0 4 0 5-1 4-1-2-1-1-1 3l-1 7v-18l-1 7c-1 10-1 13 1 13l1-1h1c2 3 2 0 2-12l-1-10M0 361c0 63 1 90 1 58a15361 15361 0 00-1-58m464-104l1 10 2-1-1-1v-3c1-2 0-14-1-14l-1 9m-15 13h-7c-7 0-7 0-7 3v3h19v-4c0-2 0-3-2-3l-3 1m-14 10l-3 2c-3 0-5 2-3 3 1 1 3 1 8-1 1 0 2 0 2 2h1l7-1h7v-7h-9c-7 0-9 0-10 2m2 8c-9 0-9 0-7 7 1 3 0 4-1 5-3 3-3 39 0 39s3 6 1 8c-3 3-3 9 0 10h2l3-6c2-3 3-6 2-7-1-3 6-6 14-6 4 0 5-1 5-3v-4l1 1h8v-1l1-10 2-17-1-6-1 2h-1c-1-4-1-6 1-7 1 0 2-1 2-3 0-3-2-3-2 0l-1 3v-3l-1-2-1 12-1 12v-24h-3c-3 0-3-2-3 18v10l-1-14-1-14h-17m70 0c-2 2-2 11 1 11l2 1c2 0 2-1 2-6l-1-7-1 1h-3m-37 15c-2 8-1 30 1 29h1l3 1 2-1h1c1 1 1-1 1-5l-1-7-1-10v-11h-3c-3 0-4 0-4 4m36 1c0 2-1 2-3 2l-2 2v1l-2 8c-1 9-2 9-2 0v-3l-2 5-1 5v4l-2 6c-1 9-1 10 1 10l1-2 1-4v2l1 7c2 2 2 3 1 4-3 5-3 7 0 8 4 2 6 4 4 4-2 2-1 4 2 6l2 4c-1 3 1 7 4 8l3 1v-40c0-35 0-40-2-40-3-2-4-1-4 2m-403 21c-9 10-10 12-10 13l2-1 2-1 1-1 1-2 2-1v-1l2-1v5-1l-1-1-1 2-3 13c-2 6-2 7-1 10s1 4-1 6v6l-2-6c-2-4-2-4-2-2l4 11 6 11 2 4v-5c1 3 2 1 2-7v-17c-2-1-2-9-1-9l2 1a12 12 0 008-7v4c0 2 0 4 2 5 2 2 3 1 3-2 0-13 0-17 1-16v-7c1-1 0-2-2-2v4c0 4-3 11-4 10v-7c0-5 0-6-2-6l1-1v-1l-2-1h3c2 0 2 0-4-3-3-1-3-1-8 4m61 152l-2 2h4l29 2 40 4c25 2 82 5 79 3-4-1-41-4-55-4l-17-1 1-1-18-3c-12-2-14-2-15-1h-2c-2-3-41-4-44-1m7 8l3 1h4l49 3h10l-24-2-42-2m-76 8l-32 2v3c3 4 4 15 3 22 0 6-1 6-4 8-6 3-12 6-16 6-4 1-3 3 2 3h4l-3-1-3-1h2c3 0 8-2 8-3l2-1 3-1 3-1h16l4 1h4l2-1h4c3-1 3-1 3 1 0 7 5-27 5-35 0-2-6-3-7-2M0 537c0 18 1 26 1 16a1171 1171 0 00-1-16m141-31l-7 2c0 2 29 2 33-1 4-2-13-2-26-1m12 8c-10 0-14 1-9 1l10 2h6c0-2 6-2 7 0h4c3 0 4 0 4 2l2-1c1-2 0-4-3-4h-21m-31 14c-2 1-1 1 8 2 13 0 21-1 10-2-14-2-16-2-18 0" fill-rule="evenodd" itemprop="regular" tabindex="-1"></path></symbol><symbol id="-posters-1650603790866-bold"><path d="M437 1l4 58a400 400 0 00-4-58m24 7l1 8 1 2V5c-1-7-1-6-2 3m22-1l-2 15v22c1 20-3 58-5 58l-5 1h-3v-5l-1-6-1 6-1 6c-2 1 2 8 4 8 2 1 2 1-1 1s-6 3-3 4l1 6c0 5 0 6 1 5l1-6c0-4 1-5 3-5 4-2 6-1 6 2 1 3-1 44-2 45v-1a2 2 0 10-3 0c0 2-1 2-3 2-3 0-4 0-3-2l-2-1-1 2c0 2-1 2-3 2-4 0-7 1-7 3-1 1 0 1 8 1a35 35 0 0012-2h3l-1 8-1 24-1 16c-2 2-19 2-18 1l-1-2h-1l-1 4c-4 3 8 4 19 1 2 0 2 0 2 5v6h-3l-5 1h-7c-6 0-7 0-7 2s1 2 4 2h17v15l1-7c1-8 0-7 4-8 2-1 3-1 3 1a230 230 0 01-1 35c1-1 1 0 1 1l-5 1c-3-1-5 0-5 1h5l5 1c0 2-1 2-8 2l-9 1c-1 2-2 2 9 2 7 0 8 0 8 2s0 2-1 1-2 4-1 9c0 1-3 2-6 1-4-1-7 0-7 2s1 2 6 2l7 1v13c2 27 2 28-2 26l-5-1h-3v-27c-1 1-3 23-2 25l-3 2c-2 0-3 1-3 2l-1 1-2-1c0-2-10-1-15 1-3 2-4 3-4 5 1 1 0 3-1 4l-3 7c0 5-1 6-3 3h-2c0 1 4 4 5 3v2l4 3c3 1 3 1 1 2h-2c1-1-1-1-4-1h-6v-9c0-9 0-10 2-12 3-2 3-7 0-8-3 0-3-37 0-39l1-3-1-6-1-6c-1-2 1-4 4-4l3-2 16-1 16-2h-22l-10 1-1-5v-5l-6 1h-6v-4c-3-13-3-13-6-13l-3-1v-6c0-3 1-5 3-7 1-1 2-2 1-4l-3-21 5-1c5 0 7-2 6-7l-1-3-1-5v-10l-1-5h-9l-8 1-5-21-5-26-5-22-1-3c1-5 1-5-9-3l-12 1c-1-1-2 0-2 1-1 2-1 2-3 1-3-4-1-5 6-4l8-1 3-2h-5l1-2c0-4-7-6-9-2v-6c0-8 2-12 4-12v-8c0-2 0-3 2-2l2-2c0-3 2-3 2 0 0 2 1 2 2 0 2-1 2-2 1-2l-2-1c0-2-3-4-4-4s-2-1-2-4c0-4-1-5-2-5s-3-1-5-4c-2-6-3-7-1-10 1-2 1-2-1-3l-1-2c2 0-2-3-4-3s-2-1-2-5c-1-8-3-7-3 0a8 8 0 01-8 8c-1-1-2 0-2 5 0 6 2 7 2 1 1-5 10-8 10-2l1 2-1 38v10c0 12 1 11-16 13a1962 1962 0 00-61 9c-13 2-16 3-16 4l5 1h5l-4 1c-4 1-4 2-3 4 2 2 3 4 1 4-1-1-7 0-19 1l-19 3-15 2-5-5-4-5-23 3-40 6-16 3a289 289 0 0051-6l14-1c6-1 12-2 13-1l-19 3-17 3-38 5h-2l2 2c4 3 4 4 1 4-5-1-6 0-5 2l3 3 2 2c-1 1 1 6 3 8v11c0 2-1 3-2 3l-1 5c1 3 1 4-1 5-3 2-3 2 0 6 5 4 4 19 0 20l-2 3c0 3 5 4 7 1v-1l-1-1c0-1 1-2 3-2l2-1 2-2c2 0 3 3 1 11v5h-4c-4 0-4-1-4-4l-1-2-1 3c0 2 0 3-3 3l-2 1h2c3 0 3 0 3 2v2c1 0 2-1 1-2 0-2 0-2 4-2l4 1c1 2-1 21-2 22-1 0-3 2-3 4l-3 3c-3 0-3-2-1-2 2-1 2-1 1-2-3-2-4-1-4 5 0 2-1 2-3 2s-3 0-2 2-11 1-19-2l-7-3c-1 1-2 0-3-1l-3-2-2-1c0-2-3-4-5-3h-2l1-2c1-1 1-1-1-1-3 0-7-3-7-5l-2-1-2-1c0-1 1-2 2-1v-1l-2-2c0-4-4-3-9 2l-21 19c-4 3-4 4-3 5l2 2v2c0 2 3 6 6 6l5 6-1 1h-2l1 1 1 1c-1 1-9-1-13-3l-20-6c-5 0-10-2-6-2l1-1-12-6c-1 1 0 1 5 3s5 5 0 6l-3-1v-1c-1-2-2 0-2 6l1 7 3 1c1 2 1 2-1 2-1 0-2 0-1-1l-1-1a14 14 0 000 12c-1-1-1 0-1 1s0 2 1 1l2 1c1 1 0 1-1 1H0v175l6 2 21 5c25 5 34 9 34 15 0 2 0 2-2 1s-2-1-1 1h-1c-2-1-12 1-13 3l-3 1-7 2-9 1-10 2-6 1 2 3 3 3 2 1c0 1-2 2-8 3-13 1-10 3 4 2l6 1h6l-1-1c-2 0-6-3-6-5l-2-3-1-3h2l1-1v2l2 1h3l1 1c1-1 2 0 2 1l3 1v2c-2 1 1 6 3 6l25-7 5-1c1 2 2 1 3-2 1-4 0-10-3-10v-1l14-1 20-1 8-1-6 60 1 1h1l-1 1-1 3h2l1-2c1 0 2-2 2-7l6-55c1-1 19-3 20-2l2-1c0-1 6-2 15-2 17-1 24-2 22-3-3-2 26-1 61 2l18 1 74 3-32-2-84-6-25-2-14-1-5-1 4-3 3-2 20 1c24 1 21 3 30-17l7-14c1 0 0 3-7 18l-5 14 16 2c18 2 21 3 17 4l18 1a535 535 0 0157 6c5 0 6 0 4 1s-2 1 1 1l43 3-1 1c-2 1 3 2 29 4 58 4 61 4 109 13l7 1a11484 11484 0 000-175v45l-4-1-3-3c0-2-2-6-4-7-2 0-2 0-1-1 2 0 3-2 1-2s-2-3-1-6c1-1 0-2-4-4-2-1-3-1-2-3v-3l2-3c1-1-2-5-4-5l-1-4c0-4 0-4-1-1-1 7-2 4-1-3l1-9 1-5v5c0 11 0 10 2-1l2-9c2-1 2-8 1-8-1-1 0-4 2-3l2-2c0-2 2-3 2 0l1 1c3 0 3-6 2-12s-1-8 4-8c4 0 4 0 4-4 0-3 0-3-1-1 0 2-1 3-2 3-5 1-6 0-3-5 2-5 4-7 5-5 1 1 1 0 1-3l-1-5c-1 0-2-1-1-3v-2l1 2c0 2 1 1 1-3v-5l-3 5a40 40 0 01-7 11l-1 1 1 1h-15v-38h10c13-1 14-2 14-4s-1-2-12-1h-12v-5c0-5 0-6 2-6l7-1c12-1 15-1 15-3s0-2-3-2l-12 2h-9v-11l1-24c0-14 0-14 11-15 10 0 12-1 12-3s0-2-1-1c-1 2-2 1-2-1 0-3-2-4-3-1 0 3-6 3-6 0-1-2-4-2-4 1 0 2-1 2-2 2-2 0-2-1-2-6 0-42 0-42 2-42 6-2 10-2 10 0l-2 1v1l1 2 2 2v-4l1-4c3 0 2-4-1-4h-11v2l-2-1-1-3c0-2 1-2 5-3a406 406 0 0010-1c2 0 2-6 0-14 0-4-2 0-2 5 0 6 0 6-9 6l-7 1v-5c-1-9-3-8-3 0 0 5-1 6-2 6l-1-4 2-20 4-46 1-18V0h-2c-3 0-3 0-4 7m9 32l-3 24 4-24 2-24-3 24m-30 14c0 17 1 24 1 15a928 928 0 00-1-15m-99 1c-1 8-1 8 3 10 4 1 4 2 2-3-3-5-5-9-5-7m-26 51l-18 3-27 4-20 3 3 1 23-3 24-4 18-3 13-2c0-1-1-1-16 1m-58 28v10c0 1 0 2 2 2 1 0 2-1 2-9l-1-8-2-1c-1-1-1 2-1 6m26 4l-1 1h-8l-9 1-2 2a30 30 0 0018-2c3 0 6-3 3-3l-1 1m-112 3l-1 4c0 5-1 6-9 6-8 1-13 2-12 4 1 1 17 0 18-1h2c2 4 4 1 4-10 0-3-1-5-2-3m-25 3l-1 5c0 5 0 5-10 5a132 132 0 00-9 1c-2 1-2 4-1 4l17-2c1-1 2-1 2 1 2 3 3 1 4-6 0-7-1-11-2-8m-26 6l-1 7c-1 1 0 5 1 5 2 0 3-5 3-12 0-3 0-5-1-4h-1c-1-1-1 1-1 4m-7 16v6c-1 1 0 1 2 1 4 0 5-1 3-5-2-3-3-4-5-2m203 2l-6 1a3867 3867 0 00-24 3l-1 6c0 4 0 5 2 5s2-1 2-5v-5l11-1c16-1 15-2 15 4 0 4 0 4 3 4 2 0 2 0 2-6 0-5 0-6-1-5h-2l-1-1m-46 6l-14 1-1 6c0 5 0 5 2 5s3-1 3-5 0-4 14-6c7 0 11-1 9-2l-13 1m185 14l-2 21v9l3-1c4 0 4-1 4-23v-17h-3c-2-1-2 0-2 11m-146-5c-1 7 0 19 1 17l1-13v-9h-1l-1 5m-16 7l1 11 1-6 1-11-1-5c-2 0-2 2-2 11m-29-4l-1 12c0 5 0 6 2 6s2-1 2-10c1-12 0-13-2-13l-1 5m-111-1l-27 3h-9v6c0 7 3 7 4 0v-4h8l10-2c3 0 3 0 3 4a3 3 0 004 3v-8l9-1h10c2 0 2 0 2 4s0 4 2 4c3-1 4-8 2-10l-18 1m162 4l-1 19c0 19 0 22-3 24-1 1-1 1 1 1s5-3 5-5l1-2v-1a2 2 0 010-3v-12c3-2 1-23-1-24-1 0-2 1-2 3m-30 1l-1 21-2 21v1l2-1 2-2c1-1 2-13 0-13v-1c2 0 2-1 2-10l1-14c0-3-3-5-4-2m-31 5l-1 22 1 18c2 0 3-2 3-13l2-21v-9h-2c-3-1-3 0-3 3m-23 5v10c-1 3 1 5 1 3 2-4 2-20 0-20l-1 7m-64 3l-2 16-1 14a3 3 0 002 4l-1 1a1 1 0 00-2 2l2 1c1 0 2-1 2-4 1-3 1-4 2-3s1 0 1-4l-1-7v-2c2-2 4-19 2-21s-4-1-4 3m79 0c-2 5-1 17 0 16l2-2v-7c1-6-1-12-2-7m-106 17c-1 21-1 20-9 21l-5 1h7c6 0 8 0 7-1l1-3 2-9 1-15c1-11 1-12-1-12s-2 2-3 18m85-18v2l-2 7v24l2-11v-22m228 20l-1 5v5h3c5-1 6-11 1-11l-3 1M59 235l-5 7c1 2 2 1 3-2l3-2a7 7 0 006-7l1-1c-1-2-2-1-8 5m270 8l-13 1-36 3 3 1 63-5h-17m-77 6l-29 1c-24 2-32 3-13 3a955 955 0 0051-2c3 0 3 0 2-1l-4-2-7 1m-64 3l-31 2-31 1c-2 1-4 3-3 4 0 2 3 1 3 0-1-1 1-2 9-2a20742 20742 0 0056-4l1-1h-4m116 5l-1 13c0 10 0 10 2 10s2-1 2-6a11 11 0 00-2-9h1l1-5-1-6c-2-1-2 0-2 3m-30 3l-1 5c-2 1 0 15 2 15s2-1 2-6c0-6 0-7-1-6l-2-1c0-1 1-2 2-1l1-5-1-6c-2 0-2 1-2 5m-152 11c0 5 0 6 2 6s4-9 1-11c-2-2-2-1-3 5m366 5c0 2 1 2 7 2s9-1 8-3l-8-1c-7 0-7 0-7 2m-355 0l-1 5c0 4 0 5 2 5s2-1 2-6c0-4-1-6-3-4m38 1l-3 3h-1c-2-3-1 3 1 10l3 9 2 2 2-3c3-4 6-14 6-20 0-2-5-3-10-1m-24 1c-6 1-6 0-7 8v7h-4c-3 0-3 0-1-2v-2c-2 0-4 1-4 3s-1 2-5 2h-6v5l1 5v1c-1 1-1 1 2 1 6 0 8 2 2 2-5 0-6 0-6 2s4 2 4 0l5-1c6 0 10-2 5-2-4 0 3-2 8-2h4l-3 1c-5 2-2 3 7 3 4 0 5 0 3-1s-2-1 0-1l2-1-4-1c-5 1-7-1-2-1h-6l-9-1 1-1c2 0 1-6-1-6l2-1c4-1 8 1 7 4 0 2 1 2 4 2 5 0 7-1 6-2l1-1c1 0 2-2 2-9 1-12 1-12-8-11m-25 3c-2 5-1 10 1 10s2-1 2-6-2-8-3-4m366 7c0 7 0 7 3 7l2-2 2-4c1-1 2-2 1-3 0-2 0-2 1-1s1 1 2-1c2-3 1-3-5-3h-6v7m-304 0c-2 2-2 12-1 12l4-2-1-5a4 4 0 012-5h-4m-27 5l-1 8 1 2 2-1a21 21 0 012-11l-1-1-1-2c-2 0-2 1-2 5m178-2c-2 0-2 3-2 18-1 19-1 21 1 18 1-1 1-1 1 1l2-25c0-13 0-13-2-12m-272 2c1 1 1 1-1 1-3 0-4 0-4 2l-2 3c-2 1-2 1 0 1s2 0 1 1c-2 1-3 4 0 5l1 1h-2c-3-2-4 0-1 1l2 3 5 1c4 0 5 1 3 2-1 1 0 1 1 1 2 0 3 1 3 2h1l-1-3c-1-1-1-2 1-3l-5-1c-6-1-7-1-3-1 3 0 4 0 3-1a2 2 0 010-5c-2-1-1-3 3-4h5l-7-1c-6 0-6-1-3-1s4 0 3-1l-1-2-2-2v1m16 0l-4 5c-2 0-2 0 0 1 2 0 3 2 0 2v1l1 4c0 3 0 3 2 2h1c-1 2 1 3 8 3 5 0 6 0 5-1-2-1-2-1 2-1H84l1-5-1-5h-1l11-1c14-1 15-2 1-2H84c2-2 1-4-3-4l-2 1M0 381c0 48 1 68 1 44a8662 8662 0 00-1-44m304-87c-1 0-2 2-2 16-1 16 0 19 2 18l2-35-2 1m-180 2v5l-1 4h4c3 0 4-1 4-5 0-5 0-5-3-5l-4 1m148 4c-2 7-1 29 0 29 3 0 3-1 3-17 1-14 1-15-1-15-1 0-2 1-2 3m217 1v9l-1 2h1c1-1 1-1 1 1 0 3 2-1 3-5 0-5-2-9-4-7m-317 3v1l-2 10c-2 12-1 12 1 12s3-1 3-12l-1-12-1 1m-16 8v17c1 0 2-8 2-19l1-4 1-1c-2-3-4-1-4 7m25-4v11c-1 10 1 15 2 5 2-16 2-17 0-17l-2 1m188 7c0 8 0 8-1 3-1-3-1-3-2-1l-2 2c-3-1-7 5-7 11-1 7-1 6 9 7l6 1v-5l-1-5c-2 0-1-10 1-11s0-8-2-9l-1 7m-226-4c-2 0-4 13-3 15h11v-3l1-2 2-8c0-3-3-4-11-2m-13 2l-1 8c0 7-1 10-2 6l-3-3c-3-1-3-1-2-6s1-5-1-5c-1 1-2 2-2 5 0 2 0 3 1 2l1 1h-10c-3-1-3-1-6 2-2 2-2 2-4 1l-2-1v2h2c1 1 0 2-3 5-5 5-5 5-6 21l-1 15 6 10c7 12 7 12 10 12s5-3 3-4l-1-2 1-13c1-14 1-14 6-14 4 0 4 1 3 11-2 11-2 23 0 23l7-8 6-8 1-14c1-13 1-14-1-20-3-6-3-17-1-15l1-3 1-6c1-3-1-4-3-2m166 34l-29 1h72l-43-1m215 40l-1 5c-2 1-2 2-1 3 2 2 0 5-1 5-1-1-2 0-3 1l-3 2-1 2c0 1 1 1 3-1h4l2-1c2 0 2-1 2-9v-10l-1 3m-44 3v5h9v-4c0-3-1-4-2-4h-1c0-1-1-2-3-2-3 0-3 0-3 5m21 2c0 7 0 8 2 7 1 0 2-1 1-4v-7c0-2 0-3-2-3l-1 7m-369 3l2 2-1 1c-1-1-1 0-1 1 0 2 0 2 1 1h1l-1 2c-2 1-2 0-2-2 0-3-1-4-2-1l-3 1c-2 0-1 2 1 3 4 0 6 1 5 2s-1 1 1 1c3-1 3-12 0-12-2 0-2 0-1 1m370 22v5l1 3c1 1 0 2-1 2l-1 2c0 1 4 2 6 1v-6a3 3 0 011-5v-1c0-2-4-2-6-1m20 5l-2 1c-1 0-1 4 1 5s-2 5-5 5l-2 1 6 2 2 1 1 2c1 0 2-1 2-4s0-4-1-3v-1c2-2 1-11 0-11l-2 2M65 511l-1 3-6 3-5 2c1 3-1 4-5 5-8 3-8 2-8-1 0-2 0-3-1-2 0 1-2 3-6 4s-7 2-9 4l-2 3-4-3c-3-3-3-3-10-2H0v43h4l17 1c14 2 19 1 38-7 19-7 24-11 19-17-2-2-12-5-18-5l-6-2-9-3-7-1 7-2 14-5 6-3v-15m72 98l17 7a592 592 0 0141 17l7 3-6 5-5 3 4 2 4 2 5-3c5-4 7-4 9-3 3 1 2 2-1 4-4 2-5 4-3 13l1 6 13 6c12 6 13 6 19 5h9l11-1c3 0 5-1 11-7 8-7 8-7 5-13l-3-5c0-3-6-7-16-11l-11-4-12 1-14 2c-3 2-7 2-9 1-1-1-1-1 1-2 5-3 6-4 4-6-4-2-6-1-10 2a7 7 0 01-11-1l-15-6-36-14-9-3" fill-rule="evenodd" tabindex="-1" itemprop="bold"></path></symbol></defs><defs class="gradients"><g class="radial"><radialGradient id="-posters-1650603790866-radial"><stop itemprop="radial" stop-color="hsla(216, 29%, 44%, 1.00)" offset="0%"></stop><stop itemprop="radial" stop-color="hsla(215, 27%, 41%, 1.00)" offset="15%"></stop><stop itemprop="radial" stop-color="hsla(217, 25%, 30%, 1.00)" offset="30%"></stop><stop itemprop="radial" stop-color="hsla(218, 24%, 29%, 1.00)" offset="45%"></stop><stop itemprop="radial" stop-color="hsla(219, 23%, 26%, 1.00)" offset="60%"></stop><stop itemprop="radial" stop-color="hsla(219, 37%, 36%, 1.00)" offset="75%"></stop><stop itemprop="radial" stop-color="hsla(218, 35%, 39%, 1.00)" offset="90%"></stop></radialGradient><radialGradient id="-posters-1650603790866-radial-background"><stop stop-color="hsla(216, 29%, 80%, 1)" offset="0%"></stop><stop stop-color="hsla(215, 27%, 80%, 1)" offset="15%"></stop><stop stop-color="hsla(217, 25%, 80%, 1)" offset="30%"></stop><stop stop-color="hsla(218, 24%, 80%, 1)" offset="45%"></stop><stop stop-color="hsla(219, 23%, 80%, 1)" offset="60%"></stop><stop stop-color="hsla(219, 37%, 80%, 1)" offset="75%"></stop><stop stop-color="hsla(218, 35%, 80%, 1)" offset="90%"></stop></radialGradient><radialGradient id="-posters-1650603790866-radial-light"><stop stop-color="hsla(216, 29%, 60%, 1)" offset="0%"></stop><stop stop-color="hsla(215, 27%, 60%, 1)" offset="15%"></stop><stop stop-color="hsla(217, 25%, 60%, 1)" offset="30%"></stop><stop stop-color="hsla(218, 24%, 60%, 1)" offset="45%"></stop><stop stop-color="hsla(219, 23%, 60%, 1)" offset="60%"></stop><stop stop-color="hsla(219, 37%, 60%, 1)" offset="75%"></stop><stop stop-color="hsla(218, 35%, 60%, 1)" offset="90%"></stop></radialGradient><radialGradient id="-posters-1650603790866-radial-regular"><stop stop-color="hsla(216, 29%, 40%, 1)" offset="0%"></stop><stop stop-color="hsla(215, 27%, 40%, 1)" offset="15%"></stop><stop stop-color="hsla(217, 25%, 40%, 1)" offset="30%"></stop><stop stop-color="hsla(218, 24%, 40%, 1)" offset="45%"></stop><stop stop-color="hsla(219, 23%, 40%, 1)" offset="60%"></stop><stop stop-color="hsla(219, 37%, 40%, 1)" offset="75%"></stop><stop stop-color="hsla(218, 35%, 40%, 1)" offset="90%"></stop></radialGradient><radialGradient id="-posters-1650603790866-radial-bold"><stop stop-color="hsla(216, 29%, 13%, 1)" offset="0%"></stop><stop stop-color="hsla(215, 27%, 13%, 1)" offset="15%"></stop><stop stop-color="hsla(217, 25%, 13%, 1)" offset="30%"></stop><stop stop-color="hsla(218, 24%, 13%, 1)" offset="45%"></stop><stop stop-color="hsla(219, 23%, 13%, 1)" offset="60%"></stop><stop stop-color="hsla(219, 37%, 13%, 1)" offset="75%"></stop><stop stop-color="hsla(218, 35%, 13%, 1)" offset="90%"></stop></radialGradient></g><g class="vertical"><linearGradient id="-posters-1650603790866-vertical" x1="0" x2="0" y1="0" y2="100%"><stop itemprop="vertical" stop-color="hsla(215, 29%, 43%, 1.00)" offset="0%"></stop><stop itemprop="vertical" stop-color="hsla(217, 26%, 36%, 1.00)" offset="15%"></stop><stop itemprop="vertical" stop-color="hsla(218, 24%, 29%, 1.00)" offset="30%"></stop><stop itemprop="vertical" stop-color="hsla(219, 25%, 26%, 1.00)" offset="45%"></stop><stop itemprop="vertical" stop-color="hsla(219, 40%, 38%, 1.00)" offset="60%"></stop><stop itemprop="vertical" stop-color="hsla(216, 29%, 43%, 1.00)" offset="75%"></stop><stop itemprop="vertical" stop-color="hsla(217, 25%, 36%, 1.00)" offset="90%"></stop></linearGradient><linearGradient id="-posters-1650603790866-vertical-background" x1="0" x2="0" y1="0" y2="100%"><stop stop-color="hsla(215, 29%, 80%, 1)" offset="0%"></stop><stop stop-color="hsla(217, 26%, 80%, 1)" offset="15%"></stop><stop stop-color="hsla(218, 24%, 80%, 1)" offset="30%"></stop><stop stop-color="hsla(219, 25%, 80%, 1)" offset="45%"></stop><stop stop-color="hsla(219, 40%, 80%, 1)" offset="60%"></stop><stop stop-color="hsla(216, 29%, 80%, 1)" offset="75%"></stop><stop stop-color="hsla(217, 25%, 80%, 1)" offset="90%"></stop></linearGradient><linearGradient id="-posters-1650603790866-vertical-light" x1="0" x2="0" y1="0" y2="100%"><stop stop-color="hsla(215, 29%, 60%, 1)" offset="0%"></stop><stop stop-color="hsla(217, 26%, 60%, 1)" offset="15%"></stop><stop stop-color="hsla(218, 24%, 60%, 1)" offset="30%"></stop><stop stop-color="hsla(219, 25%, 60%, 1)" offset="45%"></stop><stop stop-color="hsla(219, 40%, 60%, 1)" offset="60%"></stop><stop stop-color="hsla(216, 29%, 60%, 1)" offset="75%"></stop><stop stop-color="hsla(217, 25%, 60%, 1)" offset="90%"></stop></linearGradient><linearGradient id="-posters-1650603790866-vertical-regular" x1="0" x2="0" y1="0" y2="100%"><stop stop-color="hsla(215, 29%, 40%, 1)" offset="0%"></stop><stop stop-color="hsla(217, 26%, 40%, 1)" offset="15%"></stop><stop stop-color="hsla(218, 24%, 40%, 1)" offset="30%"></stop><stop stop-color="hsla(219, 25%, 40%, 1)" offset="45%"></stop><stop stop-color="hsla(219, 40%, 40%, 1)" offset="60%"></stop><stop stop-color="hsla(216, 29%, 40%, 1)" offset="75%"></stop><stop stop-color="hsla(217, 25%, 40%, 1)" offset="90%"></stop></linearGradient><linearGradient id="-posters-1650603790866-vertical-bold" x1="0" x2="0" y1="0" y2="100%"><stop stop-color="hsla(215, 29%, 13%, 1)" offset="0%"></stop><stop stop-color="hsla(217, 26%, 13%, 1)" offset="15%"></stop><stop stop-color="hsla(218, 24%, 13%, 1)" offset="30%"></stop><stop stop-color="hsla(219, 25%, 13%, 1)" offset="45%"></stop><stop stop-color="hsla(219, 40%, 13%, 1)" offset="60%"></stop><stop stop-color="hsla(216, 29%, 13%, 1)" offset="75%"></stop><stop stop-color="hsla(217, 25%, 13%, 1)" offset="90%"></stop></linearGradient></g><g class="horizontal"><linearGradient id="-posters-1650603790866-horizontal" x1="0" x2="100%" y1="0" y2="0"><stop itemprop="horizontal" stop-color="hsla(214, 19%, 49%, 1.00)" offset="0%"></stop><stop itemprop="horizontal" stop-color="hsla(215, 16%, 50%, 1.00)" offset="15%"></stop><stop itemprop="horizontal" stop-color="hsla(217, 11%, 41%, 1.00)" offset="30%"></stop><stop itemprop="horizontal" stop-color="hsla(219, 10%, 39%, 1.00)" offset="45%"></stop><stop itemprop="horizontal" stop-color="hsla(219, 7%, 38%, 1.00)" offset="60%"></stop><stop itemprop="horizontal" stop-color="hsla(219, 19%, 45%, 1.00)" offset="75%"></stop><stop itemprop="horizontal" stop-color="hsla(218, 21%, 47%, 1.00)" offset="90%"></stop></linearGradient><linearGradient id="-posters-1650603790866-horizontal-background" x1="0" x2="100%" y1="0" y2="0"><stop stop-color="hsla(214, 19%, 80%, 1)" offset="0%"></stop><stop stop-color="hsla(215, 16%, 80%, 1)" offset="15%"></stop><stop stop-color="hsla(217, 11%, 80%, 1)" offset="30%"></stop><stop stop-color="hsla(219, 10%, 80%, 1)" offset="45%"></stop><stop stop-color="hsla(219, 7%, 80%, 1)" offset="60%"></stop><stop stop-color="hsla(219, 19%, 80%, 1)" offset="75%"></stop><stop stop-color="hsla(218, 21%, 80%, 1)" offset="90%"></stop></linearGradient><linearGradient id="-posters-1650603790866-horizontal-light" x1="0" x2="100%" y1="0" y2="0"><stop stop-color="hsla(214, 19%, 60%, 1)" offset="0%"></stop><stop stop-color="hsla(215, 16%, 60%, 1)" offset="15%"></stop><stop stop-color="hsla(217, 11%, 60%, 1)" offset="30%"></stop><stop stop-color="hsla(219, 10%, 60%, 1)" offset="45%"></stop><stop stop-color="hsla(219, 7%, 60%, 1)" offset="60%"></stop><stop stop-color="hsla(219, 19%, 60%, 1)" offset="75%"></stop><stop stop-color="hsla(218, 21%, 60%, 1)" offset="90%"></stop></linearGradient><linearGradient id="-posters-1650603790866-horizontal-regular" x1="0" x2="100%" y1="0" y2="0"><stop stop-color="hsla(214, 19%, 40%, 1)" offset="0%"></stop><stop stop-color="hsla(215, 16%, 40%, 1)" offset="15%"></stop><stop stop-color="hsla(217, 11%, 40%, 1)" offset="30%"></stop><stop stop-color="hsla(219, 10%, 40%, 1)" offset="45%"></stop><stop stop-color="hsla(219, 7%, 40%, 1)" offset="60%"></stop><stop stop-color="hsla(219, 19%, 40%, 1)" offset="75%"></stop><stop stop-color="hsla(218, 21%, 40%, 1)" offset="90%"></stop></linearGradient><linearGradient id="-posters-1650603790866-horizontal-bold" x1="0" x2="100%" y1="0" y2="0"><stop stop-color="hsla(214, 19%, 13%, 1)" offset="0%"></stop><stop stop-color="hsla(215, 16%, 13%, 1)" offset="15%"></stop><stop stop-color="hsla(217, 11%, 13%, 1)" offset="30%"></stop><stop stop-color="hsla(219, 10%, 13%, 1)" offset="45%"></stop><stop stop-color="hsla(219, 7%, 13%, 1)" offset="60%"></stop><stop stop-color="hsla(219, 19%, 13%, 1)" offset="75%"></stop><stop stop-color="hsla(218, 21%, 13%, 1)" offset="90%"></stop></linearGradient></g></defs><defs class="filters"><filter id="light-filter"><feColorMatrix in="SourceGraphic" type="matrix" values="1.5 0 0 0 0
                0 1.5 0 0 0
                0 0 1.5 0 0
                0 0 0 1.5 0"></feColorMatrix></filter><filter id="regular-filter"><feColorMatrix in="SourceGraphic" type="matrix" values="1.5 0 0 0 0
                0 1.5 0 0 0
                0 0 1.5 0 0
                0 0 0 1 0"></feColorMatrix></filter><filter id="bold-filter"><feColorMatrix in="SourceGraphic" type="matrix" values="1 0 0 0 0
                0 1 0 0 0
                0 0 1 0 0
                0 0 0 1 0"></feColorMatrix></filter><filter id="emboss"><feConvolveMatrix kernelMatrix="1 0 0
                      0 0 0
                      0 0 -1"></feConvolveMatrix></filter></defs><g itemscope="" itemtype="/settings"><use itemprop="background" href="#-posters-1650603790866-background" style="fill: url(&quot;#-posters-1650603790866-radial-background&quot;);"></use><use itemprop="light" href="#-posters-1650603790866-light" filter="url(#light-filter)" style="fill: url(&quot;#-posters-1650603790866-vertical-light&quot;); stroke: url(&quot;#-posters-1650603790866-horizontal-background&quot;);"></use><use itemprop="regular" href="#-posters-1650603790866-regular" filter="url(#regular-filter)" style="fill: url(&quot;#-posters-1650603790866-horizontal-regular&quot;); stroke: url(&quot;#-posters-1650603790866-vertical-light&quot;);"></use><use itemprop="bold" href="#-posters-1650603790866-bold" style="fill: url(&quot;#-posters-1650603790866-vertical-bold&quot;); stroke: url(&quot;#-posters-1650603790866-radial-regular&quot;);"></use><use class="emboss light" tabindex="-1" href="#-posters-1650603790866-light" fill="gray" filter="url(#emboss)"></use><use class="emboss regular" tabindex="-1" href="#-posters-1650603790866-regular" fill="DimGray" filter="url(#emboss)"></use><use class="emboss bold" tabindex="-1" href="#-posters-1650603790866-bold" fill="gray" filter="url(#emboss)"></use></g></svg>