<svg id="-posters-1652402845051" itemscope="" itemtype="/posters" itemid="/+/posters/1652402845051" viewBox="0 0 400 475" preserveAspectRatio="xMidYMid slice" tabindex="0" xmlns="http://www.w3.org/2000/svg"><defs class="symbols"><symbol id="-posters-1652402845051-background"><rect itemprop="background" width="100%" height="100%" tabindex="-1"></rect></symbol><symbol id="-posters-1652402845051-light"><path d="M0 238v237h401V0h-69l-4 4-8 8 4-4 7-8h-35c-41 0-38-1-30 8l-2-2-7-6H0v238m0 0c0 131 1 184 1 119a66205 66205 0 00-1-119M34 21c-2 1-1 1 3 1l7 1c2 1 2 1 3 17 1 10 1 10 1 4s0-7 2-7h1l1 2c1 7 0 37-2 40v3c4 0 6-43 3-51S41 19 34 21m71 1l-6 1h5c7 0 7 0 7 8l-1 10c0 5 0 5-2 5-2-1-3 0-3 4 1 3 3 3 5 0s3-28 2-28h-7m222 0c7 1 7 1 8 5 0 8 1 12 3 12 2-1 4 2 4 6v4l1-8c0-14-4-19-16-20h-6l6 1M75 23l10 1-3 2c-1 2-2 3-1 4l2 8 1 7v12c1 17 2 21 6 25l4 3v-3l-4-28-4-29v-3H66l9 1m51 0l5 1-1 5c-7 23-7 22-10 22-2 0-2 1-2 2l3 13c3 11 3 12 7 15l5 4-2-7-4-17c-3-10-3-17 1-19l1-3 2-10 2-7h-12l5 1m17 0c7 0 7 0 3 4l-2 4 3-3 3-3v13l-1 24c0 10 0 10-2 10-3 0-3 0-3 3s3 4 5 1c1-1 2-2 5-2 4 0 5 2 3 3l-2 1h2c1-1 1-1 1 2s2 9 4 9l-1-2-1-8v-6h-9V23l-7-1c-6 0-6 0-1 1m38 0c10 0 10 0 7 4-2 1-2 2-1 4l2 8a2225 2225 0 002 28c0 7 1 11 5 15 4 3 4 3 4 1l-4-27-4-30v-4h-20l9 1m28 0c5 0 6 0 3 4a26 26 0 009 27l2-2c1-1 0-3-1-9l-4-14-2-7h-12l5 1m21 0h5v61c1 1 1 0 1-4 0-6 1-7 3-4l1 1-2-4c-2-2-2-3-2-26l1-25h-12l5 1m26 0c14 1 17 2 14 5v4a33 33 0 011 7c0-2 1-3 2-3h1c1-1 1 8 1 20a120 120 0 01-1 25c2-2 3-9 3-30 0-28-1-29-22-29h-11l12 1m107 0c11 0 11 0 8 4-2 1-2 2-1 4l4 36c0 6 1 10 4 14 5 5 5 5 2-16s-3-22 2-27l3-4-3 3c-5 5-5 5-6-6l-1-9h-21l9 1M34 33l-1 20c0 19-1 22-4 19-2-1-1 4 1 6 1 2 2 2 4 1 3-2 3-2 1-3-1-1-1-39 1-44 0-2-1-1-2 1m288-1l-1 20c0 18-1 19-2 20-3 0-3 1-2 4s4 5 5 3l2-1c2 0 2 0 1-1-2-2-2-3-2-23l1-22h-2m-66 14l-1 21c0 7 0 8-2 8-1 0-2-2-2-10l-1-9v11c0 10 0 11 2 12l4-1 3-2v-1c-2 0-2-2-2-21 0-25 0-28-1-8M73 45c-2 18-2 17-5 17-2 0-2 0-2 2l1 3c0 2 3 1 4-1 0-1 1-2 4-2s3 0 1-1c-4 0-4-1-2-17l1-10-2 9m106-1l-2 13c0 4-1 5-3 5s-3 2-1 5c1 1 1 1 3-1l4-2c3 0 3 0 1-1l-2-2 1-13c1-13 1-16-1-4m184-5l-3 22-2 1c-2 0-3 1-3 2 0 4 2 5 4 2l4-2c2 0 3-1 3-2h-2c-3 2-3 0-1-13V39M111 60v25l1-13V59l-1 1m224 1c7 0 7 0 3 4l-2 3 2-2 3-2v6l-2 9c-1 2-1 2 1 1 1-2 3-8 3-15v-5h-14l6 1M194 99v8c2 0 4 5 2 6-1 1-1 1-2-1l-1-2v2l2 4c3 1 4-6 1-10l-2-4c0-2 2-1 2 1 1 1 1 0 1-1 0-3-2-5-3-3m13 1c-2 4-1 16 2 16 1 0 2-2 2-9 0-9-2-11-4-7m-32 8c0 5 0 7 1 6 0-6 1-7 2-2 1 4 1 3 1-4 0-8 0-9-2-9s-2 1-2 9m6-1c1 11 2 11 3 1 0-7-1-9-2-9l-1 8m5 0c0 8 1 10 3 8v-2l-1-7c1-6 1-7-1-7l-1 8m13 0l1 8 1-4c0-4 2-3 2 2l1-5-1-6c0 4-2 4-2 0l-1-3-1 8m13-2l1 9 1 2 1-2 1-3 1-6c0-8-2-8-2 0v6l-1-6c-1-7-2-8-2 0M42 131c-3 4-2 25 1 25s4-4 4-13c0-13-2-16-5-12m9 0c-2 2-2 22 0 24s4 0 5-5l-1-5-1 3-1 4-1-9 1-9 1 3 1 3v-10c-2-1-2-1-4 1m30-1c-2 2-1 23 1 25 3 3 5-1 5-12 0-12-2-16-6-13m109 0c-1 1 1 2 6 2 13 0 23 3 31 9 4 4 4 5-3 5s-11 1-12 4c0 2 2 4 5 4l5 3 5 3c2 0 2 0 2 2-1 3 2 3 3 0l4-2 1-4c-2-10-11-19-24-23-8-3-22-4-23-3m126 0v8l1-2 1-3c1 0 1 3-1 12-3 10-3 11 1 11 3 0 4-2 2-4-2 0-2-1 0-6 2-9 1-17-2-17l-2 1m9 1c-3 6 0 28 4 24 3-3 2-16-1-16-2 0-2-1-2-3l1-3 1 2 2 1c1 0 1-2-1-5-1-3-3-3-4 0m15-1a8 8 0 000 6l1-3c2-2 1 6 0 12-3 8-3 11 1 11 2 0 3-3 1-4v-7c3-11 2-19-3-15m9 1l-1 12c0 9 1 13 4 13 2 0 3-4 3-14 0-11-3-17-6-11m9 0v7l1-2 1-3c1 0 1 3-1 13l-2 9c0 2 5 1 6-1l-1-2c-2 2-2-1 0-8 3-10 0-20-4-13M34 143c0 13 0 13 2 13 3-1 4-5 2-5s-2-2-2-10l-1-11-1 13m25-1v12l1 2 1-2c0-3 2-3 2-1 1 5 3 3 3-2 0-14-1-21-4-21-2 0-2 0-3 12m7-10l1 2 1 11c0 7 1 10 2 11l1-10 1-11c3-2 1-5-2-5s-4 0-4 2m9 11l1 13c2-1 3-26 1-26s-2 2-2 13m14 0c0 8 1 12 2 13l1-6 1-5v5c2 9 3 6 3-7l-1-13-1 5-1 4-1-5-2-4-1 13m11-11l2 2 1 12 1 10 1-11c0-8 0-10 2-11 3-1 1-4-3-4-3 0-4 0-4 2m9 10c0 14 0 15 5 14 2-1 2-1 2-13v-12l-4-1h-3v12m11-8c-2 13-2 22-1 22l2-2 1-3 1 3 1 2 1-9c0-13-1-17-3-17-1 0-2 1-2 4m161 9c-1 14-1 15 2 12 2-3 2-25 0-25-1 0-2 3-2 13m5-2c0 13 1 17 5 14 2-1 3-25 1-25s-2 2-2 11l-1 12v-12l-1-11c-2 0-2 2-2 11m9 2c0 9 1 12 2 13l1-5c0-6 2-4 2 1l1 4 1-13-1-13-1 2-1 4c0 2 0 2-1-1 0-3-1-5-2-5l-1 13m10 0c0 13 0 13 2 13 3-1 4-4 2-5s-2-4-1-7v-9c2-3 1-5-1-5s-2 1-2 13m62-11c-2 2-3 4-1 4l1 10c0 6 1 9 2 10l1-13c0-13 0-14-3-11m-186 0c-28 9-31 35-6 48 15 7 36 6 49-1 5-3 12-11 12-14l-2 2c-1 2-2 3-4 3-4 1-7 5-5 6l-3 3c-4 2-11 2-20 1l-7 1h-11l-6-1c-4-2-5-4-3-9 1-3-1-7-5-8l-2-3c0-2 0-2 2-2 1 1 2 0 1-1l3-4 3-3c0-2-6-4-8-2l-3 1-4 1c-2 0-2 0-1-3 3-6 13-12 23-15l3-1-6 1m15 14l-2 1-3 3-1 3v-3l-1-3-2 6h8c1-1 2-1 3 1 3 1 3 1 3-1 0-5-3-10-5-7m6 1l2 3 1 4 2 3c1 0 2 3 0 3l-2-1c-2-3-6-2-7 0l-1 3-1-3c-1-4-2-4-4-2-4 4-2 10 2 8l3-1 1 2c1 2 1 2 2 1 2-2 2-2 4-1h5c4 2 13 1 14-2 0-2-3-7-7-8-4 0-5 0-3 3l1 3c-1 2-3 2-4 0v-11c1-4 0-5-2-3-1 1-4 0-4-1a1 1 0 10-2 0m-26 13c0 5 1 7 3 5h3l3 2c1 0 4-9 3-10h-3a5 5 0 01-8-1l-1 4m-17-1l6 12 4 3c3 4 5 4 4 0l-4-3c-5-2-6-4-4-7s1-4-2-5c-4-2-4-2-4 0m195 23c-9 10-23 24-20 23l6-6 15-15c13-13 13-14-1-2M19 199l8 4c1 0 2 1 2 3l2 2 1 1c-1 2 2 3 3 1 0-3-2-7-4-8l-2-2h-2l-2 1 1-3h-1l-3 1-1-2-2 2m22 1c4 1 2 2-2 2h-2c2 1 4 2 10 2l2 1-1 1c-4-2-2 0 2 2 5 3 6 2 2-2l-2-4h-2c-2 1-3 1-3-1a2 2 0 00-4-1m-28 4v1l-1 1v5l-1 2 1 3 2 1c0 3 0 2 1-1v-5l1-2v-4c-1-2-3-3-3-1m296 7l-1 1-1 2 2 2c0 1-1 2-3 1-3 0-3 0-3 4s0 5 3 4l2 1-2 1c-2 0-4 2-2 3l1 2 3 1c2 0 3-1 3-8l-1-9v-7l-1 2m-198 1v2l-1 1-2 1-2 1c-2 0-2 0-2-3 1-2 1-2-1 0l-1 3v2l-1 5c0 5 2 7 3 2l2-3 1-3 2-2c3-1 5-6 3-7-1-1-1-1-1 1m222-1v3l1-1 1-2 1 1c-1 1 1 5 3 5l-1 2-4 2c-2 0-2 1-2 5l1 6h6c6 0 8-3 6-6l-2-3c-1-2-2-2-3-2l1 3c2 2 2 3 0 3-1-1-1-1 0 0 2 1 2 4 0 4-1 0-3-5-2-6v-2c-1-3 0-4 6-6l-1-1-5-4c-3-2-5-3-6-1m49 2l-3 2v3l1 2h4c2 0 2 0 1-1v-7l-3 1m-105 4l-2 2c-1 0-2 1-2 5-1 6 2 9 7 9 6-1 5-6-1-6-1 0-2 0-1 1l-1 1c-1-1 0-4 2-4 1 1 2-3 0-4-1-1-1-1 1-1l3 1a1 1 0 002 0h5c-1-1 0-1 0 0 2 0 2 1 1 3v2h1l-1 3c-2 0-1 2 1 2 2-1 1 1-1 2l-2 2 1 1 1 1c0 1 1 1 2-1v-2h-1l2-2v-1c-2-1-1-3 1-3 1 0 2-1 2-3s-1-3-2-2c-1 0-2 0-2-2h1c1 1 1 0 1-2 1-3 0-4-1-2s-10 2-13 0c-2-3-4-2-4 0m78 0l-1 1c-2 0-3 3-3 7 0 2 5 8 7 7l1-2 1-1 2-2c0-2 1-2 3-1h2c2-2 4-1 4 1l-1 1c-2-1-5 2-5 4 1 1 1 1 2-1v1c0 1 0 2 1 1h5l-2-2c-3 0-3-1 0-3 2-1 2-3-2-5-2-1-2-1-2 1l-1 2-1-1-2-1-3-1 4-1h2v-2l-1-2-1-1-1 2-1 1-3 1-1 2-3 2c-2 1-2 1-1-1l2-2v-2l-1-1 1-1c1 1 1 0 0 0l-1-2v1m-36 8c-1 0-1 2 1 2l1 1-1 1h-1l2 2c2 0 1 1-2 3a3 3 0 00-2 5l1-2c0-2 0-2 2-2 1 1 2 0 2-1l2-1v-3c1-1 1-1-1-3-2-3-2-3-4-2m60 3c-1 3 0 6 2 6 1 1 1 1 1-1v-3 1h2c1-1 1-1 0 0-2 3-2 5 0 6s2 1 2-1v-10c0-2-7-1-7 2m-257 1l-1 1c-2 0-1 5 1 6l1 1 1 1c1-1 1 0 1 1l1 3c1 0 1-1-1-6l1-1c2 1 2 1 0-2l-1-4-2-1c-1 0-2 0-1 1m-97 3c-2 1-2 12 0 12v-3c0-2 1-3 2-3l1 2c0 2 2 1 3-1v-5l-1-2h-5m363 14c-14 12-13 13 0 1l11-10v-2l-11 11m-284-6l4 3 2 2c-1 1-1 1 1 2 2 0 3 1 3 2l2 1 2 1a10 10 0 005 5l-1-2-2-5c-1-4-1-4-4-4l-3-1-1-1-4-2c-3-2-4-2-4-1m180 0l4 5 4 4-2 3c-3 3-4 6-2 6l1-1 2-4 2-3 3 3 2 4 1 1c2-1-1-6-6-11-3-2-4-5-4-6 1-1 0-2-2-2l-3 1m-107 7c1 5-1 9-4 9-1 0-2 1-2 4v3l1 2 2 3 1 1v1c1 1 1 2-1 6-1 5-3 7-3 3 0-2-3-5-5-5v1l-2 2c-2 0-2-1-1-8l2-1c2 0 2 0 1-1l-2-2-2-1-3-1c-2-2-6-1-6 1 1 2 0 6-2 6-2 1-3 6-1 11l1 1 3-2 1-1c1-1 6 2 6 5l1 1 1 2 3 7c2 0-2-10-5-12l-3-5-3-3c-2 0-3 3-1 3l1 1c-1 2-4 0-4-3l3-3c4-2 6-1 7 3l3 4c2 0 4 2 4 5l2 7 4 6c1 3 4 5 7 3 2-1 2-1 3 1l1 3 1 4 1 3v-5l-2-6c0-2 0-2 1-1l3 7 1 3 1-9 1 2c-1 4 0 7 1 4l1-2 1 2c0 2 2 3 3 0 0-1 1-2 3-2a7 7 0 008-6l1-3v-7h-1c0 4-4 11-6 12-1 0-2 1-1 2l-1 1c-1-1-2 0-3 1-2 1-3 0-1-2v-1l2-2 4-5 1-3 2-4 5-7 4-4 3-4c2-3 4-4 4-3-1 1 0 3 2 5l4 6c0 3-2 3-2 0 0-2-1-2-2-2l-4-2c-1-2-1-2-2 2a29 29 0 01-4 6c2-2 12-1 14 0l1 11v8l1-10 1-12 1-6c0-3 0-3-1 0s-1 3-1 1l-2-2v-2l-1-3-2-2h-1v-4a1 1 0 010-3l-1-3c-2-3-2-4 1-1 2 1 2 1 0-1l-2-4-1-2-1 2c1 4-3 9-6 9-5 0-8-3-6-7s0-8-3-4c-2 3-1 6 1 8 1 2 1 3-1 3-3 1-3 5 1 5l4 2h1l2-1-1 2v4c1 2 0 3-3 3l-2 2-1 1-2-2h-2l1-1c2 2 1-1-1-5l-3-6-1-2-1-4a5 5 0 011-5l-2-1-2-3-1-1 1 3v6l1 7 1 3h2l-2 1h-3c1 1-2 4-3 3l-1 1c1 2-3 4-4 2-2-4-4-5-5-5v-4c3-3 4-6 1-6h-2l-1-1-2-1 2-1 2 1 1 1v-5a1 1 0 111-1c1 2 2 1 2-4 1-4 1-5-1-4-2 0-2 0-2 2h-2l-1-1c-1-2-1-1-1 2m185 31l-6 5-13 9-5-1-2-1 2 1c2 2 2 2 0 2-1 1 0 1 2 1h6c4 1 8 0 8-2h-3l-2 1c-2 0-1-2 3-5 9-7 16-15 10-10m-141 15v1h-1l-2 1-1 2v3l-1 2v1l2 1 1-1h1c2-1 2-2 0-3v-1h1l1 1 1-4v-4l-2 1m-149 1a8 8 0 01-12 10c-4-3-5-2-2 0 2 3 2 7 1 12l1-2 3-3 1 2c3 8 0 19-7 30l-4 8c0 2 0 2 1 1 3-7 12-11 14-6 0 1 2 0 2-2 0 0-1-2-3-2l-3-2 2-4 3-10c1-7 2-7 4-3v6c-1 2-1 3 1 2l2-3 2-6c2-6 2-13 0-18l-3-6c0-2 0-3-2-4h-1m94 3c1 3 6 7 11 7 4 0 4 0 4 4l-1 5v1l1 1-2 5-2 4-4 3c-3 2-4 3-5 1l-3-1-2-2v-2l3 1-4-3c-6-5-7-5-6-6l4 2 3 1-3-3c-6-3-9 2-4 8 2 2 2 2 0 1v1l4 1c2-1 2-1 2 2 0 2 0 3 3 3l1 1c-1 0-2 0-1 1 0 1 1 1 2-1 2-2 4-1 2 1v1l2-1a1 1 0 013 0 1 1 0 101 0l2-1 2 2c1 1 1 1 1-1 0-3 6-3 6 0l1-1 2-2c1-1 5 1 5 2 0 2 2 3 5 3 2 0 2 0 1-1a2 2 0 113-1c-1 1 0 2 1 1 2 0 2-1 1-1v-5l2 3c0 3 3 3 3 0 0-1 1-1 3 1h6c1 1 2 1 3-1l1-2c-1 0-1-6 1-9v-2c-1 0-2 1-2 3-1 4-5 5-10 4h-4l3 1 4 1c1 1-9 1-12-1l-3-2c-1-2-1-2-1 1 0 2 0 3 1 2a1 1 0 110 2c-1-1-2 0-2 1h-3l-1-2-1-3-2-2c2 2 1 3-1 3h-3l-3 1c-2 0-2 0-1-2l2-3 2-5 1-3-4 7c0 2-4 6-5 5l1-2 3-9 1-6c0-4-2-7-6-6l-2-1-2-2-4-2-2-2 1 2v2l-2-3c-1-2-1-2-1 0m-80 0l-5 1h-3l2 3c3 3 3 3 3 11 0 4 1 4 4 5s3 1 3 6c-1 8-3 11-8 10-3 0-4 0-6 3-2 2-3 8-1 8v-2a6 6 0 1112 3c-1 3-1 3 1 3l2-1v-2c0-3 0-3 4-3 3 0 3 0 2-1v-4c3-4 5-12 6-22s3-14 7-14c3 0 4 7 1 9l-1 1c1 2 5-3 5-6 0-5-3-8-9-8-5 0-7 2-5 3 3 0 2 1-1 6s-8 7-11 5c-3-4-1-14 3-13h2c-1-2-5-2-7-1m167 3l-1 2-1 1a127 127 0 00-9 1c-2 0-3 0-2 1l-2 2-1 2c1 1 0 1-1 1l-4 1h-2l2-2 1-2c-2 0-6 7-6 11l1-2c2-4 3-4 3 1-1 6-3 10-4 8s-2 1-2 8c0 4 0 5 1 3 1-1 1-1 1 3l-1 4 3-3 3-5 4-7 2-5h-1l15-5c4 0 5 1 4 4v4l3-4c0-4 2-4 2-1 1 3 3 1 3-3 0-2 0-3 1-2l-1-5-1-6c1 0 1-1 0 0l-1 3-1 2-1-5v-3h-2c0-3-3-3-5-2m82 0c-3 0-2 3 1 3 3 1 4 3 0 4l-2 1 2-1h10l5-1c-2 0-3-2-3-4-1-3-4-5-4-1l-1 5c-2 0-3-1-3-4s-1-3-5-2m-285 3c0 2-3 4-5 4-4-1-7 1-8 5a7 7 0 001 9c-2 2 2 4 6 4 4-1 4 1 3 10-1 7-3 9-4 4-2-9-11-6-11 2 0 3 0 4 1 2 1-4 5-5 5-1 0 5 1 6 4 5h4c2 1 2 1 2-1l4-4c4-3 5-6 5-15 0-13-2-16-8-12-5 4-9 4-9 0l2-4h1l1 3c2 1 2 1 2-1-1-2 0-3 2-5 3-2 4-7 3-7l-1 2m177 4c0 9-19 16-25 10-4-3-4-2-1 1l5 3 10-1c-1-1 8-5 9-5 1 1 3-5 3-8-1-2-1-2-1 0m22-1l-3 1-2 2c0 2-3 5-5 5s-5 6-6 12l-2 4c-3 3-3 4 0 2l4-6 1-1 1-1c-1-1 1-5 5-7 2 0 3-2 4-4 0-3 4-5 6-3s2 0 1-2c-2-3-3-4-4-2m-85 4c-3 3-2 4 2 5 5 3 6 2 6-2 0-5-5-7-8-3m43 0c-4 4-2 9 4 7 4-1 6-2 5-5-2-5-6-5-9-2m102 4l2 1 4 2c1 1 1 1 0 0-2 0-2 0-1 3 0 3-1 4-7 11l-4 5 3-3c0-2 3-1 3 1a2 2 0 003 0l-1-2c-2 0-2-3-1-3 1-1 2 0 1 1v1a17 17 0 005-10l3-2v-1c-2 0-2-1-2-3l-4-2c-4 0-5 0-4 1m34 2c-3 1-9 8-9 10l4-1 4-2 3-1c4-3 5-3 4 0l-3 3v4c1 1 1 1 1-1l3-2 3-1v-4c3-6 10-5 10 1 0 2 1 3 2 3 3 1 4 6 1 9-2 3-3 3-7 2-2-1-3-1-2 1l1 3c2 0 3 0 3 3l-1 2-1-1-2-1c-1 1-2 0-3-1-1-2-5-2-8 1-2 1-2 1-3-2 0-4-2-6-2-4h-1l-1-5c1-4 0-5-2-2l-3 1c-3 0 2 11 6 14a18 18 0 103-29m32 6v4l-1-1c-3-4-3-4-1 0s3 17 1 23c-2 9-13 19-22 22l-3 2 2 1h-2v1c2 1 3 0 3-1-1-1 1-2 3-3 10-3 17-11 21-21a4 4 0 014-6c-1-1 0-1 1-1 2 0 0-2-2-3l-1-1c2 0 3-2 1-2h-1l-3-8h1l1 1a3 3 0 002 3v-2l-1-3c-2-2-2-2-1-3v-2h-2m-134 5c1 1 0 3-2 5-2 3-3 7 0 6l1 1c-1 1 0 2 1 1a2 2 0 003-2c1 1 5-3 5-6s-4-7-5-5h-3m16 1l-1 2c-2-1-2 0-3 4l-3 7c-1 3-1 4 1 2h3a4 4 0 01-5 2c0-1-8 2-12 5-2 2-3 2-4 1l-4-1-1-2-1-2-1 1c0 2 3 6 3 4h2c2 2 4 2 6 0l8-4-2 2-3 3-3 2c-3 2-4 3-6 0-2-1-2-1-2 1 1 2 0 3-2 1-1-1-1-1-1 1v2c-1 1-1-1-1-4v-4l-1 4c-2 3-2 3-2 1s0-2-1-1l-1 1h-2l-1 5v4l1-3c1-3 1-3 1-1h2c1-2 1-2 1 0h1c1-2 1-2 2 1l1 1c0-3 2-3 2-1s-1 3-2 3v1l1 2v1l2-4 1-5 4-2 3-2h2c1-3 8-8 10-8 3 0 7-3 6-6l1-3v8c-1 1-1 1 0 0 2-1 2-4 3-8 0-3 0-5-1-4l-1 1-3 2-2 1 2-3c3-3 5-8 4-9l-1 1m-94 19l1 4v2l-2-1h-1l2 2 5 3h1c-1-2-1-2 1-2h3c0 2 2 1 2 0l1-2 1 1c0 2 6 4 7 3 1 0 7 1 6 2 0 2 4 1 6-1l8-1c6 0 8-1 8-3l1-1 1-2h-1l-3 1h-2l-4 1-4 1-2 1v-2h-1c-3 1-4 5-1 4 1-1 1-1 0 0-2 2-3 2-3 1l-2-2v-1c1 1 2 0 2-1 1-2 1-2-2 0a7 7 0 01-10-2l1 2c2 2 0 2-3 0l-4-1-4-1h-1v2a12 12 0 01-7-10v3m1 16h-1v4c2 3 9 7 8 4-1-1 0-2 2-2l3-1-1-1h-3l-1-1-1-1h-2l9 1c1 2 4-1 4-2 0-2-16-2-17-1m34 1c-6 1-12 4-8 4l1 2 2 2c3 0 2 2 0 2-1 1 1 1 5 1s6 0 4-1l-2-1 2-1 4-1 2-1 1-1c2 0 3-3 2-5h-13m75 0l2 3c2 5 0 7-5 4l-2-1c0 1 1 2 3 2 3 2 1 2-4 1h-2c1 1 9 3 10 2l3 2h1l-1-2c-1 0-1-1 1-1 1-1 2 0 3 1 0 2 1 2 1 1l-3-5c-3-5-7-9-7-7m-140 7l1 3 1 4c-1 5 2 6 4 2l2-1v-6c-1-2-1-2-1 0 0 4-3 8-3 4l-2-4c-1-3-2-3-2-2m123 8a16 16 0 01-3 7l2 6 3 3c-1-2 2-4 4-2 1 0 0-2-3-4l-4-5 2-2c2-2 2-3 1-3h-2m-31 6v4h1c2-1 12 8 12 11l2-1c1-3 1-4-1-6-2-3-2-3-1 1l1 2-3-2-2-2-6-4-3-3m55 4c0 4 1 5 3 5l4 2c1 1 1 1 1-3-1-7-3-9-4-6l-1 2-2-2c-1-2-1-2-1 2m-108 3c-4 5-4 7-1 12 1 1 1 1-1 1l2 1a5 5 0 014 4l-1-3c-4-5-4-6-2-11l4-5-1 14v1l2-1h1v-16l-3 2c-3 2-4 2-1-1l1-2-4 4m28 2l2 2c1 2 1 2-4 2a6 6 0 00-6 1v-2c0-2 0-2-2 0l-3 2v4c2 3 3 3 3-1a2 2 0 013 0l-1 1c-1-1-1 0-1 1l1 2 1 3 1-4 1-7 3 2a11 11 0 015 6c0-3 2-7 3-6h1a23 23 0 00-7-6m16 1c-1 1-2 3-1 5v4l3-3 5-5c2 0 3-2 3-2h-1c-2 3-8 4-7 0 1-2 0-1-2 1m-78 4l-2 3 1 1a7 7 0 005 1l2 4 3 4 7-3c0-2-6-5-11-6-3-1-4-2-4-4l-1-2v2m128 3l-3 2c-2-1-2-1-1 2l1 2 4-1c3 0 3-2 0-6-1-2-1-2-1 1m-200 6h-6l-5 2a11 11 0 01-11 1 3 3 0 104 4c1-1 1-1 1 1 0 3 2 3 4 1s3-2 4-1c2 1 5-3 4-6l2-1h1c-1 1 0 2 1 1l1 1v1l1 3 1 2v-1h3c3 2 4 4 2 6-2 1 0 6 1 5l-1 2-1 3-1 1v1l-1 1-1-2-1-2c-1-1-2 0-2 1l-1 3v2c2 2 3 2 3 0h2l2-1 2-1 2 2 1 1 1-1 2-2c1 0 2 0 1-2l2 1 3 3 3 1c2 2 2 2 3 1l2 1c2 3 5 4 3 2l3 1c3 1 3 1 5-1h4a8 8 0 00-8-3l-1-2c-2-1-3-1-2-3h1c1 1 2-1 1-3l1-2 1-3c1-4-3-3-7 3l-5 5-3-3c-1-2-4-3-4-1l-1 1-3 2c-1 1-1 1-1-1 0-4-2-12-4-15l-2-2h8c1 1 9 3 10 2a4 4 0 014 5c-1-2-2-1-2 3v4l2-3c2-2 3-4 2-5h4c2 1 2 1 4-1v-3c-2 0-2 0-1-2l-2 1-3 1v-1l2-1c0-2-2-2-2-1h-2l-3-1-4-1h-2l-1 1-4-3v1l-1 1c-2 0-2-2-1-4 1-1 1-1 0 0h-4c-2-2-3-2-3-1l1 1 1 1c0 1-2 2-3 1l-2 1c-1 1-1 1-1-1l2-2c2 0 1-1-3-1-2-1-3-1-2 1m95 1c0 3-2 4-4 3l1 1 3 3 4 1c2 1 2 1 2-2 1-2 0-3-1-3l-3-2c-1-2-2-2-2-1m79 4c0 5 0 5 4 5 3 0 3 0 3-3l-1-3h-1l-2 2c-2 0-2 0-1-1v-3c-2-1-2 0-2 3m-202 0l-2 2v-1h-4v1h-1c-2-2-3-1-2 1 1 1 1 1 0 0l-2 1h-4c-3 0-3 0-4 3a4 4 0 01-3 2l6-1a7 7 0 019 1c0 1-3 2-5 1s-5 0-5 1l3 1c6 0 9 2 8 7-2 4-11 7-12 3v-3h2l-3-2-7-5c-2-3-3-3-3-2l1 2 2 3 1 2c1-2 3 4 2 6s-1 2 1 1h1v2h2l1 1h3l1 1a1 1 0 101 1h1c2 1 5 0 4-1l1-2-1-2h1c3 2 3 2 6 0 1-1 3-2 4-1 2 0 2 0 1-1h2c1 1 2 0 3-1 2-2 2-2 2 0 1 1 1 2 6 2l2 1h-1l-2 1 2 1 2-1 2-1c1 1 2-1 0-2l-1-3c0-2 0-2-2-1s-4 1-5-2l-1-1-1 2-3 2h-5c-7 1-13-5-10-11l1-3h1l2-1 4-1c2 0 3-1 0-2l-1-2v-1l-1 2m182 5c-1 2 0 2 3 3 5 1 11 0 11-2l-1-2-13 1m-181 2c-3 6 5 12 9 7l4-2 2-1h1v-2c-2-1-3-2-5-1l-3-1c0-3-7-2-8 0m67 0c-2 2 2 6 5 4l1 1c0 2 0 3-1 2-1 0-5 9-4 10 0 1 1 2 3 2l3-1v-2l1 1 1 2c2 1 1-6-1-8a3 3 0 013-5l-1-1h-2l-2-1c0-1-1-2-2-1l-1-1c1-2-1-4-3-2m222 1c-1 1-3 2-4 1l-3 2-2 2c1-1 0-1-2-1h-1c2 2 1 3-1 4h-2v-2l-1-1v-2c-2 0-2 11-1 13v9l2-4v-8c1-4 8-5 9-2 1 2 3 2 3-1h1l5 1c3-1 5 0 4 2l1 6c1 3 1 3 1-1l1-9c2-3 2-5-1-2h-2c-1-2-2-2-3 0h-3l-3 1-4-1a4 4 0 014-3c-1 0 0-2 2-3l3-3-3 2m25 5c-1 1 0 2 1 4a2 2 0 01-1 4c0-2-2-1-2 1l2 1a2 2 0 010 3v1l-1 1v2c1 2 1 3-2 3-2 0-2-1-2-5l-1-5v4c0 4-6 9-9 5l-2 1c0 1 1 2 4 2l6 1h1a2 2 0 013-1c0 2 3 1 3-1h4v-1c-1 0-2-1-2-3v-2l1-2a63 63 0 011-10c0-2 2-3 2-1l1 1c1 0 3 2 3 5 3 9 4 9 4 2l-2-7 1-2v1h3c4-1 4-1 1-1l-3-1c1-1 0-2-2-2l-3 1h2c2 0 2 0 1 2l-2 2-2-2c-3-3-3-3-4-1a1 1 0 01-2-1v-1l-2 2m-11 1l-2 3 1 1c1-1 5 1 5 3l1 1 1-2c-1-1 0-2 1-3l1-2c-1-3-3-2-2 0h-1c-1-2-2-2-5-1m-45 1l-1 1h1v7c3 2 2 3 0 3-1-1-1-1 0 0 2 2 1 7-1 5v1c2 1 2 2-1 4l-3 4-7-5-13-12 5 6c13 13 13 13 10 16l-3 4c0 2 1 1 3-2 4-5 4-5 9 2l3 3-4-6-3-4 3-4 5-3a27 27 0 00-2-16l1-1v-1c0-2-1-3-2-2m7 3v12c0 7 0 8 1 6h2c1 1 1 2 2 1 2-1 5 1 5 3l1-1c1-2 1-2 2-1 0 2 0 2 1 1l4-1 3-1 10 1 3-1c1-1 1-1 0 0-3 1-6-1-4-2v-2l-1-4c-1-3-4-6-4-4l1 2 1 4c0 5-4 4-5-2 0-4-2-6-3-5-2 1-1 2 1 2h1v4c1 2-4 8-5 6h-2l-4-1h-3l-2 1c-1-1-2-2-2-13 0-6-2-8-3-5m66-1c-1 2 0 10 2 10v-1l1-3c2-1 2-1 2 1 2 4 0 6-5 6l-4 1 1 1h3c3 2 3 2 5-1l2-1 1-2-1-6-1-4-1 1c0 3-2 2-3 0 0-2-1-3-2-2" fill-rule="evenodd" tabindex="-1" itemprop="light"></path></symbol><symbol id="-posters-1652402845051-regular"><path d="M0 8v7l5-5 5-3 6 6 10 8c1 2 2 2 6 0 8-2 17 1 20 7l3 10v7l3-3 5-3-4 4c-4 4-5 5-2 6l1 3c0 2 0 2-1 0-2-1-2-1-2 5 0 5 1 7 2 8l2 2h-2c-2-3-3-2-3 5-1 6-3 9-7 12-2 1-2 1 1-2 3-5 4-8 1-8l-2-1V52c0-20-1-21-3-24l-2-4c2-2-8-3-12-1-3 1-3 1-5-1a4 4 0 00-3-2c0-1-4-5-6-5l-4-3-3-3-5 4-4 4v70l5 4 7 7c1 2-1 0-5-3l-7-7v39l6-5c9-9 12-12 12-10-1 1 1 4 7 8l8 7-7-5-8-7c-1-1-3 0-10 7l-8 8v53c0 58-1 53 7 47 2-3 3-4 2-6-1-1-1-2 1-1 2 0 2 0 1-1l-2-5v-12c-1-1-1-1 1-1 1 1 1 1 0 0-2-1-2-2-1-2 1-1 1-1-1-3-2-1-2-2-1-2 2 1 3 0 1-1l-1-2h1a3 3 0 006-1v2l-2 2 2 4c3 4 3 5 2 12v8l1 7v19l-5 4-4 3H7c-2 1-4 1-4-1h1c1 1 2-2 2-5l1-2v1l1 1 1-2 1-2 1-3c-1-2-1-6 1-6 1 1 1 1 0 0v-3l-1-1v-2h-1l-1 2-1 1-5 3-3 2v99l9-7c7-7 9-8 8-6l7 8c7 6 8 6 10 4 3-3 7-3 9 2 2 6 3 4 4-4v-8h-3c-5 1-8-2-8-9s4-11 9-10c2 1 5-1 5-4h1c1 2 0 5-3 7-2 1-3 5-1 6l3-2c3-2 7 0 7 5 1 18 1 20-4 23-3 2-4 3-4 6v3l-2-2c-2-2-3-2-5 0-3 2-4 1-4-1 0-4-4-6-5-3s-3 0-2-3c1-2-13-16-15-16l-8 7-8 7v104l3-2c5-4 6-6 5-9-1-7-1-11 2-14l2-4v-1h3l4-2c1 0 7-5 13-12l16-14 3-2 5 4 12 12 8 6-1-2-1-1 3 2c2 2 3 2 5 2h1l-1 2h1l2-1h3c1 2 1 2 4 1 4-2 4-2 5 1 1 2 3 3 3 1l2 1 7 4 5 5a2 2 0 103-1v-1 4c-1 3-1 3 1 3s4 3 3 4l-1-1-2 2-1 3 1-1 2 1c2 2 2 7 0 7v-2l-1-2v1c0 2 0 2-1 1l1 3 3 5-1-1-2-1v3l-2-1-1-1-1 3v2l-2 2c-2 1-1 2 5 9l9 9c2 0 3 2 1 2-1 0-6-4-10-9a50 50 0 00-13-12l-3-2-3-2-1-1h-3l-2-1-2-1h1v-1c-2-3-4-2-3 1h-2c-2-3-8-3-9-1l-2 2c0-1-1-1 0 0l-1 1c-2 0-2-1-1-3v-1c-1 1-2 0-2-1l-1 1-3 2v-1h-2c-2 1-3 1-4-1h-1c0 2-9 1-13-1h-8l-5 1c-3-1-4 0-4 1v3l1 4-4-3c-2 0-3-1-3-2h-3c-1-2-2-2-3-1-3 0-6-1-4-2 1-1 0-1-2-1l-3-2h2c2 0 2 0 1-1-1-2-4 0-9 4l-4 3v30h101l102-1 1-1 1 1v1l1-1h1c2 1 79 2 82 0 2-1 2-1-2-5-5-5-5-7-1-11l3-4-8-8c-15-14-31-28-30-25v1l-3 3-4 2-4 3-9 9-5 5 4-6 5-6v-1l1-1c2 1 14-9 14-11-1-3 2-1 16 11l12 9 1 1c0 2 11 12 12 12l1-2c0-1 0-3 2-3v-3c-1-1-3-5-1-4l1-1h-3l-1-1 2-1v-3l-1-3c-3-1-2-3 2-2 2 0 3-3 1-4s2-5 4-5l1 3v1l1-3c1-3 2-4 3-2 1 1 1 1 1-1s3-5 3-3l-1 2v1l-2 3v2l1-1 2-1v-2c0-2 0-2 1-1h2l1-1 1 1c0 2 1 2 4 2l3 1 1 2 1-1 3-1 2-1 3-2 4-2 2 1 1 3h4v-1l1 1 3 2h3c-1-2 0-3 1-2h2c3-3 3-2 1 0v3h1l2-3h4c0-1 1-1 2 1l1 1v-1l3-2 1-1c-1 2 4 2 6 0a5 5 0 014 0c-2 1-1 2 1 1l2-1h1c2 2 4 3 4 1v-1c1-1 1 0 1 2l1 1h3l-1 1c-1-1-1 0-1 1s1 2 2 1c3 0 7 7 5 8v4l-1 4c0 2-1 3-2 3v1l1 1h-1l-1 1c1 2 5-1 4-3h3c2 1-16 19-21 22-3 1-3 1-2-2a6 6 0 00-6-7c1-1-2-4-4-3-1 0-2 0-2-2-1-2-1-2-1 0l-3 3h-4c-2 1-3 2-4 1l1-1v-1c-1-1-2 0-3 1s-2 2-3 1l-2 1v1c-1 0-2 0-1-1l-1-1-10-2h-1c0 4-3 6-5 4-1-1-1-1-1 1l-2 2v-3h-2v-2c-1-1-1-1-2 1 0 3 0 3-6 2-7 0-8 0-7-3h-1c-1 3-3 2-3 0s-1-2-3-2c-4 0-5 2-1 6 5 5 5 7 1 10-3 4-5 3-2-1l2-3-2-4c-4-5-4-5-7-1-3 3-3 4 3 10l5 5h105v-68c0-71 0-71-3-69a174 174 0 00-21 27l-1 2-1 1c-1-2-4-2-4-1l1 1c1 1 0 1-1 1-2-1-3 0-2 1l-1 2h-3l-1 1-1 1-4 2-3 2-4 1a2 2 0 01-3 0l1-1h-3c-2 1-10 1-12-1l-3-1c-4 1-8-1-7-4h-2l-2-1-1-2c-2 0-6-5-6-7l-1-1-2-2-2-2c-2 0-1-2 1-2 1-1 1-1-1-1s-2 0-2-5a12 12 0 000-8l-1-1v-2c2-4-3-1-8 4l-5 6 4 5 4 6v1c-1 0-8-6-8-8 0-3-7 4-7 7h-1c-1-2 0-4 3-7l3-4-7-8-12-13-5-5c1-1 12 9 19 18l6 7 2-3 6-7c7-8 8-9 7-10s-1-1 1-1 3-7 0-9c-2-1-2-1-1-2v-2c-2-2-2-6 0-7l1-1c0-2 0-3 1-2l1-3 1-1c1 1 3 0 3-1 2-2 3-2 5-2 6 0 5-4-2-11a158 158 0 00-21-18c0-4-10 2-21 13l-3 2c-3 0 4-6 14-13 6-5 6-5 3-9-4-3-4-5 0-8 2-3 2-6-1-5h-1c1-2-1-3-2-1l-1 1h-5c-3 1-4 0-4-1l-1-1-2-1 2-1v-1c-1-1-2 0-2 1-1 2-3 2-3 0l-2-1c-2-1-2-2-2-3 1-2 1-2-2-2-2 0-3 0-2-1v-2l1-2c2 0 1-2-1-4a4 4 0 01-3-4l-1-2v-5l-2-3c-3-2-2-2-8 3l-4 3-6 5-7 5 13-12c6-5 8-7 7-8 0-2 0-2 3 0l4 2h3v-1l2-1h-1v-1c1-1 2-2 3-1l1-2 1 1 3 1-1-1v-1h2l1 1v-2l-1-3 1 1h1l3-1v2h2c0-2 4-2 4 0a3 3 0 004 1l-1-1-2-1a2 2 0 014 1h3v-2l3 2h3c2-1 3 0 5 3h1c0-2 2-3 2-1 0 1 1 1 2-1 2-2 2-2 4 0 1 2 2 2 2 1v-2h1l3 1h1c1-2 6-2 7-1l1 5 1 2v6l1 1v10l-1 2v4l-1 1c2-1 2-1 2 1s0 3 6 3c8 0 10-1 11-4 0-3-1-3-6-3h-5v-19c0-2-1-3-2-3-1-1-1-1 0 0l-2 1c-2 0-2 0-2-2v-2l-1-2c0-2 0-2 3-2 4 1 7 0 7-2l1-1 12-12a366 366 0 0131-28c1-1 2-1 3 1l14 11 4 5-4-3-4-3-2-1-6-5c-4-3-4-3-6-1l-4 3a200 200 0 00-22 21 57 57 0 00-15 16l-1 1c-1 2 1 3 3 1s3-2 3 2c0 1 0 2 1 1h1l1-1-1-1v-1l1-2 1-1h2c0-1 1-1 1 1h1l1-2h6l3 1h3l1 3 1-1 2-2c2 0 3 1 1 3-1 1-1 1 1 1l2 1c0 2 0 2-1 1v2l2 5v5c2 1 0 2-2 1l1 1c3 3 3 11 0 10-2 0-2 0 0 3a6 6 0 004 3c2 3 4 0 3-7v-7h4c5 0 5 0 5 9 0 5 3 6 7 2 2-2 3-3 1-3-1 1-2 0-2-2s1-3 2-3c2 0 2 0 0-1a3 3 0 01-2-2c-1-2 0-9 1-10v-2l-2-2h1l1-1 1-4 2-2c-1 2 0 2 1 2 2 0 2 0 0 3l-3 3h2c2 0 3 0 3 4l-1 5v1l1 6-1 5h-2c0 2 0 2 2 1 2 0 3-105 1-105l-20 24c-1 2-2 2-2 1-1-1 13-20 19-25l4-4V0h-34c-33 0-34 0-35 2l-1 1 1 2 3 1 5 4c0 1 8 9 10 9l-1-2h1l2 3c0 1 3 2 11 2 13 0 13 0 13 10 1 9 1 9 5 4 5-5 5-2 0 4l-3 4 1 9 1 9 5 4 10 9 5 4-10-7-9-8v3l1 11c1 9 1 9-4 4-4-4-4-5-4-12l-5-40c-1-1-1-2 1-3 3-4 3-4-8-4-10 0-10 0-13-2L329 5l-3 2-11 11a187 187 0 00-15 15c-3 3-3 3-2 5 2 4 1 5-1 2-3-2-5 0-5 4v2-8c1-2 1-2-2-6L261 5l-12 9-6 5-6 5v14l-1 24v9l3 3 4 5-3-1c-4-4-4-4-4 2v6l-4-4c-3-4-3-4-4-15V56l2-17 2-14c3-1 2-2-3-2h-4l5-1c3 0 6-1 7-3l4-2 1-1 1-1c1 1 3 0 5-2 3-2 4-4 3-4-1-1-1-1 1-2h2c2 1 6-3 5-5s-4-2-78-2a1415 1415 0 00-81 1L50 0H0v8m268 0c10 10 12 11 12 10l1 1 7 8 7 7 9-9 18-17 8-8h-70l8 8m-94-6l15 14a125 125 0 0114 16c3 0 0-4-10-14a69 69 0 00-19-16M98 8c0 2-9 9-11 9l-3 2c-2 2-3 3-11 3l-8 1h19l-2 3c-2 3-2 4-1 6l3 29c0 12 1 17 6 21l4 3-8-63c-1-2 4-7 5-5l2-1c0-1 1-2 2-1l1-1c-1-1 0-2 1-3a9 9 0 018 8c1-1 4 1 4 2l-6 1-5 1h5c6 0 7 1 4 4-2 1-3 20-1 24 1 3 5 2 5 0l1-3 1-6V25l2 3c2 2 3 2 3 1l-5-7-10-11c-3-3-5-4-5-3m77 2l-6 4-11 6-7 2h-7l-7 1h12l-2 3-3 3v24l1 25h5c-2-1 1-4 4-4s4 1 1 3c-1 2-1 2 1 4l2 3c0 2 10 16 11 16l-4-9c-4-6-5-8-5-13v-6l-3 1-3-1h-2l-1-23c1-23 1-26 5-26l1-1c0-1 7-5 15-8l5-3c0-2 0-2-2-1m144 11c-4 2-4 3 0 2a10 10 0 0115 6l2 7c0 5 1 6 3 9l3 4h1c2-1 0-17-2-21-3-6-15-10-22-7m-110 1l-5 1h5c5 0 6 0 3 3v11c1 10 1 10 5 14l5 4c1 0 3-5 2-6-3-4-3-9-1-11l2-3-3 1c-1 3-2 2-4-8-1-6-2-7-9-6m41 0l-7 1h8c13 0 16 1 17 4l1 6 1 23v21h2c2 0 3 2 0 5v2c2 0 5-6 5-11l1-6v-1l-1-17c0-26-2-29-27-27m-126 1c6 0 6 1 2 3l-2 3 3-2 3-1-2 5-3 12c-2 7-3 8-6 6-2-2-2 3-1 7l3 13c2 8 3 9 7 13 6 5 6 4 3-4-1-6-1-8 3-8l1-1 1-1 1-2-4 2c-3 2-3 2-5-4l-2-8v-9l1-5 4 5 5 5-6-10c-2-2-2-2 0-10l3-9-7-1c-7 0-7 0-2 1m56 0c10 0 10 0 7 4-1 2-2 3-1 4l5 38c0 8 0 9 4 12l3 4 1 1v-7c0-8 1-12 4-11 1 1 1 1 0 0h-3l-2 1-2-21-3-23v-3h-22l9 1m71 8l-1 25v22l3 1h3l3-3 3-1h-3c-2 0-2 0-1-21V32h-2l-4-2c-1-1-1-1-1 1M28 32v44c2 4 7 7 7 4l2-2 1-1-1-1c-2 0-2-3-2-21 0-23 0-24 3-21h2c0-2-3-3-6-2l-3-1c-1-1-2-1-3 1m289 0c-2 4-2 43 0 46 1 3 5 4 6 2l3-2c2 0 1-2-1-2-2-1-2-1-2-23V31l-1 1-4-1-1 1M69 40c-2 9-3 25-2 27 0 1 1 2 3 2s3 0 2-1c-2-1 0-4 3-4l3-1c1-1 0-2-2-1l-3-1 1-13 1-13h-3c-2-1-2 0-3 5m107-4c-2 6-4 26-4 29s1 4 4 4c2 0 3 0 2-1-2-1 0-4 3-4l3-1-2-1c-4 0-4-1-1-16 1-11 1-12-2-10h-2v-1l-1 1m182 2l-3 26c0 4 1 5 4 5 2 0 3 0 2-1-2-1 0-4 3-4s3 0 3-3c0-2 0-2-2 0l-3 1c0-1 1-18 3-24l-1-3h-3c-1-1-2 0-3 3M0 66c0 12 1 17 1 11a435 435 0 00-1-11m294-17h-1l-1 1-6 8c-9 9-9 9 1 0l8-7 6 6 6 5-3-4-7-7c-1-2-3-3-3-2m-84 10l-1 11c0 9 0 10 3 13l3 3v-3l1-15V56h-3c-2 0-3 1-3 3m-105 1a30 30 0 005 25c0 2 1 1 3-2l4-2v-1l-1-2-1 1-2 3-1-12c0-11 0-12-2-12h-3l-2 2m223 0l6 1c7 0 7 0 4 3-3 4-3 10 0 11 3 0 3 2-1 6l-2 4 7-7 1-9 1-9h-16M66 74c-1 3 5 13 6 11 0-2 2 0 7 6 8 10 14 17 15 16l-2-3-11-13c-8-9-8-10-8-14 0-3 0-4-1-3l-4-1c-1-1-2-1-2 1m289 0c-2 3-1 5 2 7l2 4 1 1 1-5c0-8 0-8-2-7l-2-1c-1-1-2-1-2 1m-183 0c-2 1-1 3 2 7l2 4c0 3 2-1 2-6 1-4 1-5-1-5l-3-1-2 1m109 0l4 1c3 0 3 0 2 2-2 2-2 2-1 5 2 4 1 6-1 9l-2 2 2-1c3-2 5-5 6-12v-7h-5l-5 1m59 11l-6 6-1 2-2 4-2 3c0 2 2 1 5-4l8-9 4-6-6 4m-92 1l4 6a11 11 0 014 7l2 1c3 3 3 1 1-2l-3-5-8-8v1M23 93l-9 10-2 3c1 2 7-4 13-13 7-9 5-9-2 0m148 6v17l1-3 1-4v-6c2-3 0-7-2-4m4 8c0 9 2 12 2 5l1-3v3c0 7 2 4 2-3 0-9-1-11-3-11s-2 1-2 9m6 0c0 8 0 9 2 9s3-2 1-3v-8c0-6 0-7-2-7l-1 9m5 0c0 8 0 9 2 9l2-2-1-2v-7c0-6 0-7-2-7l-1 9m7-7c0 4 0 6 2 8l1 4-1-1c-1-2-1-2-2-1-1 3 1 6 3 6 2-1 3-8 1-10l-2-3c0-2 0-2 1-1 0 2 2 3 2 1 0-5-5-7-5-3m6 7c0 9 2 12 2 5l1-3v3c0 8 2 4 2-5s-2-12-2-5l-1 4v-4c0-8-2-4-2 5m7-7c-1 6 0 16 3 16 1 0 2-1 2-8l1-7v7c0 6 0 8 2 8l1-2 1-2 1 2c0 2 1 3 2 1V99l-1 2c0 5-1 5-1 1 0-5-2-4-2 0s0 3-1-1c-1-2-1-3-2-2h-1c-2-2-4-1-5 1m50 5l6 5a57 57 0 0117 15h1c0 2 2 3 4 3l-3-5a25 25 0 01-5-5l-4-3c-6-6-16-12-16-10m70 3c-8 5-24 19-22 20l7-5a82 82 0 0118-15h3l9 8a140 140 0 0114 11l-4-4-3-5c1 0-9-9-11-9l6 5 4 4a35 35 0 01-13-11l-1-1c0-3 0-3-7 2m-71 0h-2l-5 3-2 2c5-3 2 0-2 4l-11 9c-4 4-3 3 4-2l10-8 9-9-1 1m-97 9a137 137 0 00-13 12l2-2 3-2 7-6 11-9-10 7m22 1l5 6c6 6 6 6 0 7-20 4-32 19-26 33 2 5 9 12 14 15s5 3-1 10c-7 8-11 12-9 12l1-1 17-17 5 1c10 3 28 1 37-4l4-2 10 10 17 20c0 2 2 1 2-1 0-1-4-7-10-13a61 61 0 01-10-13c-2 1-5-2-6-4l1-4c4-4 6-8 6-14 0-16-15-27-39-30-5 0-6-1-11-6-5-6-7-7-7-5M33 130v14l1 12h2c3 0 3 0 3-2l-1-3-1-11c0-10-2-14-4-10m8 1l-1 12 1 11c1 2 5 3 5 0v-23c0-3-4-2-5 0m9 1v21c2 6 7 2 7-5 0-4-4-4-4 0-1 1-1 0-1-2 1-5 1-5 3-5s3-5 1-9c-1-4-5-4-6 0m10 2c-2 18-2 22 0 22 1 0 2-1 2-3l1-2v2c0 2 1 3 2 3 2 0 2-1 1-10l1-11 1 11c0 9 0 10 2 10 1 0 2-2 2-10l1-12c2-3 1-5-3-5-3 0-4 0-4 2l-1 3v-3l-2-2c-3 0-3 1-3 5m15 9c0 11 0 13 2 13l1-13-1-14c-2 0-2 2-2 14m5-11v21c1 4 4 4 6 1v-22c-1-4-5-4-6 0m9 10l1 14c1 0 2-1 2-4l1-4v4c2 8 4 4 4-10 0-11-1-13-2-13-2 0-2 1-2 4v4l-1-4-2-4-1 13m11-11l1 4 1 10c0 9 1 11 2 11 2 0 2-1 2-10a25 25 0 012-14c0-3 0-3-4-3s-4 0-4 2m9 12v13h3c4 0 5-2 5-14-1-11-2-13-6-13h-2v14m11-13l-1 11-2 12c0 3 0 3 2 3s2-1 2-3c0-3 1-2 1 1l2 2c2 0 2-15 0-24 0-3-3-4-4-2m161 9l-1 12c-2 1-1 5 1 5s3-1 3-14l-1-13c-2 0-2 2-2 10m5 2c0 14 0 15 4 15 3 0 3-1 3-15l-1-12c-2 0-2 2-2 11l-1 12v-12l-1-11c-2 0-2 2-2 12m9 1c0 12 0 14 2 14l1-2 1-3 1 3 1 2c2-1 2-26 0-26-1 0-2 1-2 3l-1 3v-3l-2-4-1 13m10-12l-1 13v13h3c3 0 3 0 3-2l-1-3v-16c2-4-1-8-4-5m11 1v7l1-3c1-2 1-2 1 1l-2 11c-2 9-2 9 2 9 3 0 4-3 2-4-1 0-1-3 1-9v-11c-1-3-4-4-5-1m8 1v21c1 4 4 4 6 1 2-4 1-16-2-16l-1-1 2-1c2 1 3-2 1-5-1-3-5-3-6 1m15 0c-1 3-1 6 1 6l1-3c0-2 0-2 1 0l-2 10c-3 11-3 11 2 11a2 2 0 100-4l2-5v-17c-2-2-4-1-5 2m10-1c-2 1-2 17-1 22 1 3 3 4 6 2 1-2 2-23 0-25-2-1-4-1-5 1m9-1v8l1-2 1-2-1 7c-3 15-3 15 1 15 3 0 5-3 2-4v-7c3-12 1-20-4-15m9 2c-2 2-2 2-1 4l1 11c0 7 0 9 2 9l1-13v-14l-3 3M0 159c0 15 1 22 1 14a832 832 0 00-1-14m182-24c-1 3-2 3-1 1l1-2a37 37 0 00-15 8c-2 0-5 4-5 6l8-1h7l4-2 3-1 2 1 3 2 1 1a1 1 0 102 0c0-2 6-3 7-2 1 2 2 2 3 0h3c2 3 2-1-1-6-5-11-10-11-10 0l-1 5v-11c2-4-7-3-11 1m19-2c4 5 6 8 6 13l1 2 1-1 1-2c1 0 2 1 1 3 0 3 0 3 1 1 2-4 0-11-6-15-3-2-7-3-5-1m9 3l4 7 3 3c6-1-3-13-9-13l2 3m8 4l3 5 3 1 2-2h2c1 1 1 1 0 0l-2-2-5-3c-5-4-5-4-3 1m-40 9l-3 4c-3 3-4 4-3 6s1 2-1 1c-1-2-2-2-2-1-1 1 0 3 2 3s5 4 5 7l1 2v1c-2 0-2 1-1 4s3 4 3 2l1 1 3 2v-2l-2-5-2-5 1 1 2 4c0 2 5 7 8 7 1 0 2 0 1-1l-1-2v-3c-1-2 0-1 1 0 1 2 2 3 4 3l2 1c0 2 3 1 5-2l2-2c-1 1 0 2 1 2 1 1 1 1-1 1-6 0 1 2 8 2 8 0 11-2 13-9 2-3-4-3-5 1-2 4-2 4 0 4 1 1 1 1-1 1l-4 1h-1l1-2c2 0 5-6 4-8-2-2-5-1-7 4l-4 7v-3l2-4c2-4 2-4 0-5h-3c-1 1 0 2 1 2l3 1h-3l-3 2c-1 1-1 1-1-2 1-3-2-6-3-3 0 2-3 1-4 0 0-2-1-2-3-1-3 0-5-1-5-4 0-2 0-2-1 0-2 5 0 8 5 8 3-1 3-1 3 2s0 3-1 1c0-2-1-2-4-2-3 1-3 0-4-1l-1-2-3-2h-4c-2 2-4-1-4-4l1-5 1-2 1 2c1 2 1 2 2 1l2-1c1 1 2 0 3-1 0-1 3-1 4 1l2-1c2-1 2-2-1-2-2 0-3-1-3-3l-1-2c-1 0-2 1-1 3l-1 3c-2 0-4-2-4-5l-1-2-1 1m23 2c1 3 0 5-3 3s-5 0-2 4c1 2 2 2 2 1 0-2 6-3 8-1h1l-1-2-1-2-2-4-2-1v2m90 9c2 2 2 2-8 8l-11 9c-1 2-1 2 1 1l2-2 14-10c5-4 5-4 7-2l3 2 1 1 7 4c6 5 9 7 8 5-5-4-27-20-24-16m-171 1l14 15 20 22c6 7 10 11 10 9l-1-1-8-10c-11-13-35-37-35-35m-57 22c10 10 12 12 12 15l-1 2-1 1 4 3c2 1 3 2 2 3l1 2 1-1 3-1a8147 8147 0 0111-3c2 0 2 0 1 2-3 3-5 18-3 25l1 3-3-2c-2 0-3-2-2-2l-2-2-2 1h-3c-2-1-3-2-2-3 0-2 0-2-1-1-2 1-2 1-3-1l-2-4c-1-2-1-2-1 1l-1 3v2c0 2 0 2-2 2-1-1-2 0-4 1l-2 1v-3c1-4 0-8-2-8l-1 5-1 8-2 1-1-3c-1-1-2-2-1-3l-1-2c-2 0-2 4 0 7l1 4c-1 1-4-1-5-4l-2-2-2-2c-1-1-1-2-2-1-2 0-2 8 0 9v2l-3 2c-2 1-2 1-3-1s-1-2-1 0l1 5c1 2 1 2-2 2l-4 2c-1 1-2 2-3 1l-5 2-6 2c-2-1-9 3-8 5l2 1h1l6-1v-2l1-1 1 2c0 2 4 1 7-2h3l3-1c3-3 6-4 7-3 2 1 4 0 3-1a14 14 0 010-6c0 2 0 2 2 1s2-1 0-3c-1-1-1-1 1-1 1 1 3 0 4-1 3-2 3-3 4-2 1 2 2 1 3 0 0-2 1-2 1-1h2l2-1 1-1a3 3 0 016 2h1l2-1 2-1 3-1c2-2 3-2 3-1-1 1 2 5 4 4 1 0 1-1-1-2-1-2-1-2 1-1l2 2 2 1c1-1 1-1 0 0-1 2-1 2 2 1 2 0 2 0 1 1-1 2 0 3 2 1h1l1 2c2 0 3 0 2 2 0 2 0 2 1 1 1-2 2-2 2-1v1h2v2h1c1 0 2-1 1-2l1-1 1 4 1 1 1-1h2l1 2 2 2a2 2 0 013 2l5 4c5 4 6 5 6 3l2-3c3-2-4-11-8-9l-2-2-4-3c-3 0-3-1-3-5l-1-5-1 4c0 5 0 5-3 3l-5-2-3-2-4-3c-2 0-3-4-2-7v-13a5 5 0 012-7c1-1 2-2 7-2 7-1 10-3 10-4-1-1 3-1 4 1l1-1-1-2h-2l-1-1h-3c-3-2-3-2-4 0l-1 2v-2h-2c-2 2-3 2-4 1l-2-1-2-1h-2l-4 1-2 2-3 1-1-1-1-1h-3l-14-14-14-13 10 11m-24 1a69 69 0 01-14 11c1 1 0 2-1 2s-2-1-1-2l-1-1h-1c0-1-6 1-6 3-1 1 3 4 10 6 2 0 4 1 4 3l2 4 2 6c0 4 1 4 3 2s2-2 1-5l-1-3c1-2-1-6-4-7-4-3 0-2 6 0 2 1 5 2 6 1l1 1 5 4c6 2 7 0 2-4-3-2-1-3 4-1l5 2c4 0 8 7 6 10v1c1 0 2 1 1 2l1 2-1-15c-1-1-1-1 1-2l3-3v-1c2 0 2-2 0-3h-3l-2 1h-2c-1-1-1-1-1 1v2h-1l-1-2h-3c0-2-1-2-1-1l-1 1h-3l-6-1h-4a9 9 0 01-7-1l2-1c-1-1-5 0-6 2s-1 2-1 0 0-2-1-1h-2l11-13c14-14 14-14-1 0m92 14a4 4 0 01-3 3c2-2 1-3-2-1h-4l-2 1-3 2c-2-1-6 4-5 6 2 2 6 1 8-1l5-1 6-2 4-3v-1l-2-3-1-1-1 1m5 1l1 1v6l-1 3c-3 2-3 3-3 8 1 6 1 6-1 5l-2-3h-2v-3l-1-4-1 2c0 2 0 2-1 1a4 4 0 10-6 4c2 3 3 3 4 0l2-1-2 3c-2 2-2 2-1 3l2 2-2 2c-2 0-2 2-2 4l-1 2c-2-1-1 3 1 4h1c-1-2 0-1 2 1 4 5 4 5 5-1 0-3 0-5 2-6 2-2 2-2 2 2l1 6v2c-2 2-1 8 1 10 3 3 4 4 4 1-1-1 0-2 1-2l1-1h-1l-1-1 1-4 4-8 2-4-4 3-1 1h-1c-1 0-2-1-1-3 0-2-1-3-2-2-2 0-4-2-2-3h-1c-2 0-1-2 1-3 1-1 2-2 1-3 0-2 0-2 1-1v-1l1-2h2l-1-1 1-2c2-2 2-12 0-16-2-2-3-3-3-1m250 4l1 1h2c1 2 1 2-1 1-3 0-4 1-2 2v1l-3-3c-1-2-1-3-3-2-3 1-5 3-4 4s2 3 1 7v7h3c5 0 6-1 6-6 0-3 0-4 2-5 1 0 2-1 1-2l1-1h3v-2l-2-2c-1-2-5-2-5 0m-36 6a3 3 0 01-2 4 2 2 0 01-3 2v4l1 3 1 10v2c3 0 2 1 0 3l-2 2 3-1c3-2 6-1 5 2v1l1-2c1-3 4-4 6-2l2 1c-1-3 1-4 3-2s3 1 0-2v-3a2 2 0 10-3-1l-1 1-2 1c-4 3-8-1-8-8s3-11 7-9l3 1h2c1 2 2 0 1-2 0-2-3-3-5-3l-3-1h-2l-2-1-2-3v3m-37 1l-1 2v9c0 10-1 13-5 13-3-1-4-3-5-13 0-8 0-9 2-10h-2c-2 1-3 0-5-1h-2l1 3v3l1 3v7c1 0 1 1-1 2-1 2-1 2 1 2v2l-1 1c3 0 5 3 5 5-1 1-1 1 1 1h12l1-2 3-4 1-2c-2 0-2 0-1-2v-5c-2 0-1-3 2-4l3-1h-3c-3 0-4-2-1-3v-1c-2 0-2 0-1-1s1-1-1-2c-1 0-2-1-1-2l-1-2-2 2m-233 0l-1 3-2 1-1 1 2 4c2 4 2 4 3 2 1-1 0-2-1-3v-2c2 0 4-4 3-6h-3m185 0l2 2c3 3 3 5 0 6-2 1-2 1-1 3 2 2 2 3 1 3-2 1-2 3 0 3l1 2v2l1 1 1 2c2 1 2 2 2 4-1 2-1 2 1 1 1-2 2-2 5 0h3l1-1h6c3 1 4 1 2-1s-2-2 0-4 2-2 0-2v-7c1-1 0-2-3-1l-4-1-2 1c-2 2-1 4 1 4 3 1 4 4 1 6-2 2-6 1-9-2-5-6 2-21 8-15 2 2 9 2 8 0v-2l1-1h-2c-2 1-3 0-2-2h-2l-6-1h-1c1 1 0 2-1 2-2 1-2 0-2-1 0-2 0-2-1-1 0 3-3 3-6 1l-3-1m-243 5l2 6 1 2h-2c0 2 0 2 2 2l2-1c2 0 2-4 1-7l-2-5c-2-4-4-2-4 3m89-4l-3 3-3 2v-5a5 5 0 00-4 4l-1 7c0 6 1 7 2 7l3-2c1-3 3-7 5-8s2-1 1 2v8l1 4 1-3c0-2 1-3 2-3 2-1 3-3 0-3l-1-6c0-5-1-8-3-8v1m-62 0l2 5c1 3 2 6 1 7l2 1c2 0 4-2 2-4v-2a5 5 0 00-7-7m111 2c0 2 1 3 2 2l8 6c6 5 6 6 6 8l1 4v1l-1 2h4l1 1v-2l-3-5v-2l3 2 4 2 3 2c1 2 2 2 2 1h1v-7h-1l-1 1-1-1 1-2c2 0 2-1 1-4-1-5-2-7-2-3l-1 7-2 5-5-4c-19-15-20-16-20-14m41 17l-2 6c1 1-2 2-6 2s-5 0-5 3v5l1-4c0-3 0-3 3-3 2 0 3 1 3 2l-1 1-1-1h-1c-1 0-1 1 1 1v3l-1 2c1 1 2 9 1 10l-2-5c-1-6-4-7-5-3v-2l-1-5a4 4 0 00-7 1l-2 2h-1l-1-2-1-1-1-2v-3c0-3 0-3-2-3a8 8 0 00-1 13c-2-1-6 2-4 3l1 1h2c3 1 6 0 6-2l1-2v2c-1 1-1 1 1 1l-1 1c-2 2-3 2-6 2-3-1-3-1-2 1 1 1 1 1 0 0-2 0-2 0-1 2l2 1v6l-1 2h-1c0-2 0-2-3-2h-1l1-1-1-1-2-1h-3c-3-1-3-1-4 3l-1 4v-3l2-6 1-4-3 5c-2 4-3 6-3 28l-1 27c-2 5-2 6 5 9 4 3 5 4 6 7a6 6 0 004 5l-1 1c-2 0-6-7-5-8h-1l-2 1c0-3-2-2-2 1-1 4 0 7 3 10 3 4 5 7 5 11l3 5c1 2 16 3 37 4h15l1-3 2-2-4 10-1 3-1 3-2 3c0 2 2 2 3 1h1l6 7c3 3 5 5 4 6l-12 11c-5 10 4 23 15 23 7 0 8-1 6-4-1-1-2-2-5-1-14 1-16-16-3-21 2-1 2-1 1-4 0-4 1-4 6 1s7 8 8 18v7h4c4 1 4 1 3-5l-1-5 3 3 3 3c0 2 3 4 3 3 1-1-1-4-5-8l-7-11c-5-8-11-13-12-11-1 1-3-1-7-4-6-6-7-6-6-9v-3l-1 2h-1c-2-2-1-4 1-3 2 0 2 0 2 3 0 2 1 3 2 3l1-3v-5l1 1c0 2 5 1 5-2l3-4 6-5c8-8 11-10 16-10s6-2 6-11c0-6 0-6 4-10s5-7 3-14c-2-4-2-7-2-10v-2l1-2 3-5c-1-1 0-4 1-5v-3c-1 1-1 1-1-1l1-2 1-2-1-3-1 1-1 4-1 4h-1l-1-1-2-1h1l3-3c1-3 1-4-1-2h-2c-1-1-1 0-2 2l1 5v1l-2 2c0 2 0 2 1 1s1-1 1 1l2 1 1 1 1 1c1-1 1 0 0 0 0 2-2 2-2 1 0-4-4-3-8 1-5 5-7 6-13 6-10 2-17 9-17 18 0 5-2 8-2 6-1-1 0-6 2-12l4-9h2c1-1 2-2 1-3 0-2 0-2 1-1l1 1h3c3 0 1-2-1-1l1-2 4-3c2 0 1 2 0 3-3 1-1 2 2 2a2 2 0 103-3c3 4 4 1 0-2-2-3-3-3-3-1l-1-1c-1-2-2-2-2-1v-1l-1-5 1-7 2-12c1-5 3-7 6-10 4-4 4-5-1-3-7 3-16 17-11 17 2 0 4-3 2-4-1-1-1-1 1-1 2-1 3 3 0 4v2h-2c-3 0-4 2-5 8l-2 4h-1l2-9c0-7-1-9-3-5-1 2-1 2 0 0l-1-3v-1l-1-1h-2l2-1v-1c-2 0-2 0-1-1v-1l-1-1v-3c-1-2 0-2 1 1 2 1 3 4 4 6l1 2c1 0-5-13-10-19l-1 1h-1c0-3 4-13 6-15 1-1 1-1 0 0-4 1-6 3-6 5v3l-1-1v-1c-1 0-2 2 0 4v4c0 2 0 2-1 0s-1-2-3 2c-2 2-3 5-2 5l-1 1c-1 0-1 1 1 2h-1c-3-2-4-4-3-5l2-1v-4c-1-3-1-3-4-2-2 1-3-6-2-21 0-4-2-2-3 4m-177 2l-2 2 1 6c0 5 2 7 3 3 0-1 1-2 2-1l2-1 2-1a7 7 0 000-6c-1-2-4-3-8-2m127 5a25 25 0 005 11c-1 2 3 2 5 1 1-1-2-5-3-5-1 1-2 0-3-1v-1c2 1 2 1 0-2l-4-3m246 4l-3 1v2l-1 1a37 37 0 00-15 15c0 2 0 2-2 1l-1-4 2-2c0-2-7-10-9-9l-2 1h-1v-2l-1-2h-2c-2-1-2-1-1 1 2 2 1 3-3 2l-4-2-1-2v2h-1c-1-1-2-1-2 1l2 1c3 0 2 1-2 1-3 1-3 1-3-1s-1-3-3 0h-3c-2-1-3-1-4 1l-3 2 1-2 1-2-3 2c-2 2-2 2-3 1l-3-2-1 1a27 27 0 01-11-4v2l-3 2h-8l1-2c2-2 2-2-1-2l-1 1c2 1 2 1-2 1-4 1-6 3-3 7 2 3 3 6 0 9s-5 3-3 0c3-4 2-5 0-8-2-1-2-1-4 1-3 4-2 5 11 16 4 2 10 8 14 12a32 32 0 0011 8h6a1 1 0 112 0v1c1 1 1 0 1-1 0-2 1-2 3-2l10-1a62 62 0 0017-14l8-4 7-5 3 3 4 2 1 1a19 19 0 009 9l1 2c1 1 1-1 1-20 0-22 0-23-3-20m-21 4v3l-1-1c-3-3-3-2 0 2l3 4a14 14 0 007-8l-1-1c-1-1-2 0-2 1 0 2-2 1-4-1-1-1-1-1-2 1m-216 6v3a1 1 0 11-2 1l-1-2v2c1 2 2 3 3 2 2-1 2-1 2 1a2 2 0 104-1l-2-3c1-1-1-5-2-5l-2 2m100 6l1 4 2 1 2 1h-1c-2 0-2 1-2 3l1 3v1c-3 5-1 10 3 8s3-8-1-16c-3-7-6-9-5-5m118 11l-2 3-1 1c-2-2-22 15-21 17h2l3-1v1l-2 2c-1 2-1 2 1 1a7 7 0 017-1c2 0 2 0 0 1-2 0-3 1-1 2h5l1 3c0 2 2-1 3-3 1-1 1 0 1 1 0 2 1 3 2 3l1 1c-1 1 0 1 1 1v10l-1 2 1 5 2 4v5l2 5 1 3 1 3v4c2 0 1 2 0 1a1 1 0 10-1 2l1 2-1 1-1 1h1l1 2 7-7 9-9v-49l-4-4-9-10-6-6-3 3m-223 4c-2 0-3 1-3 3s0 2 1 0 5-2 6 1l4 6 3 6c0 4 8 15 10 13l-1-1-2-4-4-6-2-4c1-2-1-5-4-6l-3-4c0-4-2-5-5-4m63 2l-7 7-1 2-1 1h-1c0 5-1 6-2 8-2 0-2 1-1 1v1l-1 2-1 1-3 1v2c3 0 7-4 8-9l5-8 4-5a3 3 0 016-2l3 3 1 3v-3l-2-3-2-3c0-2-3-2-5 1m-66 10c-2 2-1 22 2 26s11 8 17 8l6 1 2-5c3-6 3-9-1-9-5 0-11-4-12-7l-5-13-4-1h-5m64 1c-3 4-5 7-5 10s-5 8-9 9c-3 1-4 1-4 5-1 10 10 13 21 7 7-4 7-5 8-12l2-12-1-7c-3-3-9-3-12 0m-177 3a13 13 0 00-5 6l-8 9-9 8-5 5c1 2 8-4 19-17l12-14-4 3m24 1l1 1c2 0 5 7 4 9s-2 2-6 1c-2-1-3-2-4-1s0 1 3 3l4 2-7-2-2-1-2-1h-1l3 3c3 3 3 3 3 9l-1 6 2-3c3-3 4-3 5 5 0 6-6 22-10 25-2 1-3 7-1 9v3c-3 2-6 0-6-4s-5-7-7-3c-3 4-3 7 1 4 2-2 4-2 4 2l1 1c3 0 4 3 2 6l-2 4 2-1c2-5 2-5 4-2l3 3-2-4c-2-3-2-3 5-12 6-6 10-8 9-4l-1 3 2-3c2-2 2-3 1-4s-1-3 2-4c2-1 2-1 1 1l2 5 1-3c0-3 1-4 4-4 5 0 7 2 7 7-1 3-1 3 1 3s2-1 2-3 1-2 4-2 3-1 2-4l1-2a22 22 0 0111 11c1-1 4 2 12 12 5 7 5 7 4 11l-1 4-2-2c-4-3-5-3-2 0 3 4 2 7-4 10-5 4-4 5 1 2l4-1-2 2-3 2-5 5 2-1 5-2h6l1 1c0 2 1 2 10-1 3 0 6 2 4 4l-1 4-2 4c-1 1-1 1 2 1 3 1 9 7 9 9 0 1 1 1 5-1 3-1 3-1 6 2a10 10 0 013 5h4c3 1 3 1 4-3l1-6c0-3 1-3 4-2 2 1 2 2-1 10-2 6-2 6 2 5 6-2 6-4 6-19v-12l6-5a272 272 0 0010-8l1-1-9 6c-7 6-8 7-10 5-1-2-4 0-9 7-2 2-4 4-6 4-3 1-4 4-3 7 1 2 0 6-1 6l-16-19c0-1 2 0 5 3s4 3 6 2c4-2 3-4-4-7l-3-1 3-3c3-3 3-3 8 1 6 3 10 2 10-3l-6-1a11 11 0 01-8-3l-3-1c-2-2-8 3-11 9h-2l2-4c3-5 3-10 0-16-4-8-7-10-7-5 0 6-5 5-10-2l-22-26-3-2 2-5 2-10c0-7 1-14 3-15 5-5 9 1 5 6-3 3-2 4 2 1 8-7-4-20-13-14v3c2 2 2 2 1 5-2 3-5 6-5 4l1-2c2-1 0-2-3-1-2 0-3 0-3-2l-2 1c-1 1-1 1-1-2s1-3 3-3c3 0 4-2 1-4l-6 1h-6c-3 0-2 2 0 4 3 1 5 9 3 7-2-1-6-8-6-10s-3-5-5-5v2l-3-3c-5-5-6-6-5-3m93 2a440 440 0 01-1 5l-1 3 1 2h1v1l2 1 2 2h1l1-9-1-2c-1-3-5-5-5-3m62 1l-3 4-1 5-2 3h2c-1 1 0 2 3 2l3-1 2-1 1-2v-2c1 0 2-1 2-3s-1-3-2-2v-1c2-2 2-2 0-3s-2-1-5 1m121 3l-2 3c0 2 0 2 2 1 1-1 1-1 1 1 0 3 2 6 3 5l1-4c-1-4 0-5 2-3 1 2 2 1 2-1-1-3-6-4-9-2m-9 2c-3 2 0 12 3 10l3-1c3 0 2-2 0-2l-4-2c-1-3 0-4 2-3h2c1-4-3-5-6-2m25 0l-2 9c3 2 7 2 8 0 1-3 2-2 1 1l1 3 1-1 3-2c3-1 3-1 1 2v5c2 0 5-6 6-11l1-3-4 2-4 2v-5l-2 2c-2 3-3 3-2 0 0-4-5-6-8-4m-34 5l-2 2 2 2c3 3 3 6-1 3-2-2-2-2-4 0s-3 0 0-2c1-2 1-2-1-2l-4 1v3c2 4 4 5 5 3 3-2 3-1 2 2-1 4 1 4 3 1l3-3 4-2 1-3c-2 0-2-1-2-2 1-2 1-2-2-2-3 1-3 1-1-1 2-1 3-3 1-3l-4 3m-134 5l-1 5c-1 1-1 0 0 0l-1-4c-1-1-1-1-1 2l-3 13v2l3-5 3-5 1-7-1-5v4m60 1l-3 3-3 4c-4 2-6 5-7 9l-3 6v2l3-7c2-3 4-6 7-7l5-6a4 4 0 017-2l-3-4-3 2m-216 0c-2 1-1 2 1 1 2 0 1 1-1 6-3 5-2 9 2 10 2 1 2 2 2 4-1 3 1 3 2-1 1-2 0-5-4-5v-5c4-4 2-14-2-10m177 1c-2 2-3 3-3 6s0 3 4 3c7 0 10-4 6-9-3-3-4-3-7 0m126 0a33 33 0 00-1 62c13 5 32-4 39-19 12-25-12-52-38-43m-171 1c-3 2-2 3 2 5 5 3 7 2 8 0 1-6-6-10-10-5m-83 4c0 4-4 15-6 17s-2 2-1-3c0-9-2-9-4 1l-3 8-1 3 2 1 2-1 1-2 7-5c6-5 7-6 7-9s0-4-2-4l-1-1c3-2 7 1 7 4v3l1-3c1-3 1-5-3-6-3 0-4-1-4-3l-1-4-1 4m69-1c-1 5-1 7 1 7 2 1 3 1 3-2l1-4c1 0 1-1-1-2-2-3-3-3-4 1m197 1c-3 0-10 7-12 12a18 18 0 1012-12m-168 4c-2 3-14 4-12 2l-1-1h-5c2 3 9 5 13 4s8-5 7-7l-2 2m42 1c-2 3-3 3-5 2l-6 1c-4 1-4 1-7-2l-3-3 2 3c2 4 10 6 10 4h2c3 1 6 0 8-4 3-5 2-5-1-1m26 1c-6 2-12 9-13 15l-4 6c-4 3-4 3 0 7 4 3 6 3 11 0l6-3c2 0 4-3 6-11 6-15 4-18-6-14m107 2c0 4-1 4-3 4l-3 3-1 1c-2-1-1-4 1-6l2-3c0-2-6 2-6 4-1 3 4 14 5 12v-3c-1-1 0-1 0 0 2 3 2 4 1 4l-3 2c-1 1-1 2 2 1 4 0 6-3 4-4l-1-2v-1l-1-2c1-1 4 3 4 6 0 5 0 5 3 5 2 0 3 0 2 1h1c2-1 0-4-2-4s-2 0-2-2l-1-4c-3-4-3-9 0-7l1 4a5 5 0 108-5l-2-4c0-3-1-4-4-4-4 0-4 0-5 4m-113 5l-1 1v3l-3 3-1 3 1 2 2 1c0 1 1 2 3 2 4-1 6-2 7-5 0-2 1-3 2-3v-6l-1-1c-1-2-7-2-9 0m-52 4v8c-2 0-1 3 1 3l1 2v1c2 0 3-4 3-5l2-3v-2c-1-1-1-1-1 1h-4v-3c0-3 0-4-2-2m-35 34v8h4c3 0 3 0 1-1-3 0-3-1-4-7v-6h11l-4-1c-8-2-8-2-8 7m8-1v3l1 2 2 2 1 1h-2c-2 0-2 0-1 1l17 1 23 2 7-1-4-1h-3l3-1a3 3 0 004-3c3 0 4-5 2-7l-3-1-4 1h-11l-2-1-3 1h-3l-3-1-11-1c-8 0-9 0-10 3m111-1l2 4c3 6 1 7-5 3-4-2-9-2-8 1 1 2-8 10-11 10-2-1-3 0-3 1s-1 2-3 2c-3 1-3 2-3 4 0 3 0 3 5 1 5-3 6-2 10 4 2 4 2 5 1 6v1l4 4 2 5 3-1c5 0 5-2 1-9-3-6-3-6-1-8l2-2-3 1c-2 2-2 2-5-2-5-4-5-4-1-8l2-3c0-4 2-4 5-3l8 2c5 0 5 2 0 7l-2 2 4-3c3-3 4-1 4 7 0 5 0 5 2 5l4 2c4 5 3-2-2-18l5-5 5-4 3 3 5 3c6 6 11 9 8 6l-20-15 2 3-4 3-4 3-4-5c-3-5-8-9-8-7m103 7l-14 12c-10 8-29 27-31 30l-1 4h1a212 212 0 0131-31l9-8 5-4c1-3 4-3 9 1 14 11 15 13 16 19l1-8c0-7-1-10-1-6v7l-10-9c-6-4-10-9-9-9 1-2-3-1-6 2m-243 4v2h-4c-1 2-1 2 1 5 3 3 3 3 5-1 1-3 0-8-2-6m-12 11l-4 4h4l8-3 3-1-2-3c-3-3-3-3-9 3m19-3l-3 1-4 2-4 3v2c1 2 8-2 10-6l1-2m-94 7c-14 13-23 23-20 23l1-2h1c0 2 2 0 1-2h1c1 2 1 2 3 0h1c0 1 1 2 2 1v-1l2-1c4-1 4 0 1 2-2 1-2 2-1 2l2-1 1-1 1-1c1-2 1-2 3-1l3-1c0-2 5 0 6 2s1 1 1-3l2-1c0-1 1-1 0 0l2 1 2-1 1-1h7l1-1a3 3 0 00-4-3l-6-7c-9-9-8-8-14-3m143 1l1 3c2 1 1 4-1 5s-3 4-1 6l1 11 1 9c2-2 5-13 5-19 0-5 0-6 2-6l2 1 3 3c2 5 1 9-4 15s-5 7 1 4c10-5 14-18 6-26-4-5-16-9-16-6m70 4l2 5c2 4 2 4 4 3 2-2 2-2 0-6-2-3-6-4-6-2m-91 5l-3 2a3 3 0 00-2 4l1 2a4 4 0 004 4l2-4c1-4 0-10-2-8m37 4l-1 6-1 5v2c3 0 6-10 4-14 0-2-1-1-2 1m-28 4v2l-1 4c-1 2-1 3 1 5 1 2 3-2 3-8 0-4 0-4-3-3m-114 6c-2 2-3 5-1 6v1l-2-2c-3-2-5-3-6-1 0 2 2 6 4 6l-2 2c-3 1-4 3-1 5 2 2 6-1 6-4h6l-3 1c-2 0-2 1-2 4 0 5 3 5 4 1 1-2 2-3 3-2 3 2 6-1 4-4l-2-2 1-2c2-1 2-2 2-3-1-3-4-2-7 0l-2 2 2-3c2-4-1-9-4-5m-19 3c-11 1-16 12-6 14 4 1 13 0 13-1l1-3-2 1-3 2c-5 1-8-2-8-6 0-5 5-8 9-4 2 1 2 1 2-1v-3l-6 1m31 0l1 1 1 4c3 11 4 12 8 8 2-4 3-4 3 0 0 5 3 5 8-1 2-3 5-5 6-5v-1h-4l-2 4-2 3-1-4c-1-2 0-4 1-5l-4-2c-5-1-5-1-4 2v5c-2 2-3 0-3-5 0-3 0-4-4-4h-4m-51 5c-9 3-7 10 3 10l1 2-4 1-3 1 1 1h3c3 0 8-4 8-6s-3-4-7-5c-5 0-5-3 0-2l4-1c-1-2-3-2-6-1m135 0l15 13c21 16 35 31 35 34s0 3 2 1v-7l1-1-2-1c-1 1-3-1-7-4-15-14-44-37-44-35m-55 3c1 1-2 9-4 11-1 1 11 7 13 6 3-1 2-2-1-2-6 0-7-1-4-6l3-5c2-2 2-2-1-3l-4-2-2 1m197 5l1 11c0 7 1 9 2 9v-9l1-11c3-1 3 0 4 10 1 13 3 12 2-1 0-12 0-11-6-11-4 0-5 0-4 2m68 0c-2 1-1 11 0 12a4 4 0 106-4l-1 1c0 3-2 3-3 2l-1-6c0-4 1-5 4-2 1 2 3 1 1-2-1-2-5-3-6-1m9 6c1 7 1 7 6 6 6 0 7-2 2-2-4 0-7-1-6-3l3-1 2-1-2-1-3-1 2-2 4-1-4-1h-4v7m-18-5l-1 5-2 7c-1 2 0 4 1 2l7-1h1v-4l-2-5c0-2-2-5-4-4m-9 1c-3 0-2 14 0 14l1-3c0-3 1-4 2-4 1-1 1-1-1-2-3 0-3-3 0-4l2-1h-4m-36 2v4l-1 5c-1 3-1 3 1 5 5 4 13-1 9-6-1-2-2-3-1-4 2-5-5-8-8-4m24 0c-2 1 0 11 2 12 4 4 8-4 5-11-1-3-5-4-7-1m-12 4l1 7 1 2c1 0 2-1 1-6 0-7 2-9 3-3l2 6 1 3v-3l-1-6v-5h-8v5m58 12c-2 2-2 2-4 0h-2l-1 1c-1-1-2 0-2 1 0 2 0 2 1 1h1v2h-2l-2-1c-2 0-2 0-1 2 1 1 1 1 0 0-3 0-2 0 0 4l3 3 5-5 5-6c0-2 0-2 1-1s1 1 1-1c1-3-1-3-3 0" fill-rule="evenodd" itemprop="regular" tabindex="-1"></path></symbol><symbol id="-posters-1652402845051-bold"><path d="M0 7v8l5-5c4-4 7-7 6-4v1l5 4 5 4 1 1c2 3 4 4 3 2 0-2 1-2 3-1l2 1 1 1-1 1h-3c-1 2 4 1 6-1h9l1-2 1 2c-1 2 5 5 7 4 1-1 1-1 1 1l1 2c2 0 3 2 1 2-1 1-1 1 1 2l2 1-2 1c-1-1-1-1-1 1l1 3c0 2 0 2 2 0l1-1-1 3c-2 1-3 5-2 5l4-3c3-2 3-3 2-5l-1-4 1 1a1 1 0 102 0l-1-2-1-2c0-2 1-3 2-2h1c0-3 0-4-1-3l-1-1 10-1c8 0 8 0 12-3l5-4 8-7h-1V5l1-3c-1-2-11-2-11 0h-3c0-1-2-2-7-2-6 0-6 1-6 3l-1-1c-1-2-10-3-11-1h-1L37 0 16 1l3 1h3c0 2-6 2-7 0 0-2-1-2-8-2H0v7m105-5c0 2 1 3 2 1 1-1 1-1 1 1l-1 2-2 1-2 1c-1 1 1 5 2 5l-1-2V9l3 4c2 3 4 6 4 4l1-1v2l1 1 2-1 1-1c2 0 0 2-2 3l-1 1c3 0 5 2 4 4h1v-3l6-1 9-1 1 2v4c1 1 1 1-1 1v1c2 2 2 4 1 6v-1c0-3-1-5-3-4l1 2v1l-1 2-2 3c0 1 2 2 4 0a22 22 0 001-20l3 2c2 2 16 3 14 1l2-1h2l2-1 2-2 1-1 6-3h-1l-1-1 2-1 1 1 1 1 1-2h2l5-1c3-2 3-2 1-2-2 1-3 0-2-1 0-2-1-4-2-2-1 1-1 1-1-1s0-3-9-3a17 17 0 00-11 1c0-2-1-1-3 1l-2 3c-2 0-2 0-1-1l2-1 1-1c-1-2-11-2-13 0h-3 1l1-1-5-1a3 3 0 00-4 3l-1-1-1-1v2h-2l-3-1c-3 0-5 0-3-1 1-1 0-1-4-1-5 0-6 0-7 2m86 0l1 4h-1v2c1 2 1 2-1 2V9c0-2-2-1-3 1-1 1-1 1 3 1 1 0 2 0 1 1 0 2 0 2 2 2 1 0 2 1 2 3l1 2 1 1c0 2 3 4 4 3v1c-1 1 0 2 1 1v-5l-1-2 2 1c1 2 6 3 6 1h1a5 5 0 009-3v3l1 2c1 2 1 2-1 2-2-1-2-1 1 9v3l2-2c2-3 2-4 2-10v-5c0 2 3 2 4 0h1c-1 4 5 2 9-1l4-4c2 0 3-2 2-4-2-1-2-2-1-2h2v1l1 2 1-2c0-2 0-2 1-1s1 1 3-1l3-2c2 0 1-3-1-4l-2-1 1 2c1 0 0 3-2 3V1c-2-1-10-1-8 1h-1l-1-1-10-1c-9 0-9 0-8 2l-1 2-1-1h-1l-2-1c0-2 0-2-3-1h-3l-10-1c-9 0-10 0-10 2m76-1c-2 2-2 2 0 4l3 3 1 2h2l2-1-1 1-1 1h4v2l1 2 3 2 1 1c0 2 10 11 11 10a1 1 0 111 2v2h1l3-3c3-2 3-2 2-4-1-1-1-1 0 0a5 5 0 005-5l-1-1h1a13 13 0 0012-10c0 2 2 1 5-1l1-7-12-1c-11 0-13 1-9 4l1 2c-1 1-5-3-4-5l-5-1c-3 0-4 1-4 2 0 2-2 1-3-1h-20m67 1c1 2 3 5 5 4l1 2c1 2 1 2 2 1 0-1 1-1 1 1l2 2 5 4c5 5 11 6 11 2l1-3 1 3-1 3h6c7 0 8 0 9 9l1 6a7 7 0 006-5h1l1 1c-1 1-1 1 1 1h3l-1 1a2 2 0 00-3 3c-1-1-5 3-5 5l-1 1v14c0 2 2 5 3 4l2 1v2l2 1 6 7c7 5 9 9 5 9v1l1 1h-2c-2-3-3-4 0-4 1 1 1 1 0 0s-2-2-3-1l-1-1v-2h-2c0-2 0-2-2-1l-2 3c1 1-2 4-3 3l1-1 1-2 1-3c2 0 1-4-2-5-4-2-4-2-4 0l2 7v7c0 1 1 2 2 1l1 1-8 1-9 1c-2 0-2 0-2-3 0-6-1-10-3-9h-1c0-3-2 3-2 7 0 3-2 9-2 5 0-2-15-1-18 2-2 2-2 2-1 3s1 1-1 1l-3 2c0 2 4 1 6-1 0-2 1-2 3-1h3l1 1c0 2-1 2-6 0l-1 1-2 2-3 3-2 4c-1 1 3 6 5 6l2 2 6 1c3 0 4 1 3 2h-2c-2-2-2 1 0 2a3 3 0 004 1c-1 1 1 3 3 5 3 4 3 4 2 6h-3l-4-2c-2 0-2 0 0-1s2-1-4-3l-1-1c1-1-2-3-3-3l-1-1c-1-1-2-3-2-1l-2 4-2 3 2-4c1-4 0-8-3-7h-1c0-3-3-4-6-3-5 3-13 10-12 12v4c0 2 0 2-2 1h-1a1 1 0 01-1 1v-1l2-5-3 2-5 4c-1 1-1 1 1 1 3 0 3 0 3 3l-1 3-1 2 1 2 1 3-1 3-1 3 1 2 1 3c0 3 0 3-3 3h-3v-13l-1-15c-1-1-1-2 1-3 1-1 2-2 1-3l1-1h2l2-2v-1c-1-1-1-1 1-1l7-5 7-5v-1h2l-1-2 1-2v-2c-2 0-1-2 1-2 2-1 4-4 2-5l-1-2a3 3 0 00-6-3c1-1 0-1-6-1l-3-1-1-2c-3-2-5-6-5-10l-1-3-4-1 2-1h1l-2-1c-2-1-2-4 0-5s-2-5-4-5l-1-1-2-3-1 2-1 1v-5l-2 2-3 2c-2 0-2 3-1 5 2 1 2 1 0 1l-2-1-1-1-1 3-1 1h-2l-2 3-2 3 1 1c0 3 1 3 4 2a2 2 0 014 0c4-1 4 0 4 7-1 9-1 9-4 11l-2 3-2 2c-2 3-1 4 1 4 2-1 2-1 0 1l-4 1 1-1v-4c-2 0-2 0 0-1l3-1-3-1c-2-1-2-3 0-6v-1c-2 0-2 0-1-2v-6l-1-5c-2-1-2-1-2 1l-1 5v2l1 1v3c0 1-2 2-2 0 1-2 0-3-2-2l-3 2h-4l-4 1c1 1 0 2-1 3-2 1-3 5-1 8h1l1-2h3l-1 1a1 1 0 101 2v1h-3l-1 2c0 2 5 7 7 6l1 1 1 2h2l1 2c1 3 3 2 3-1 0-4-2-6-3-3l-2 1c-2-1-1-3 1-3v-1c-1-1 0-5 2-5l-1 2v2c3 2 6 9 4 9l-1 1 2 1c2 0 2 0 1 1-2 1 0 3 3 2 2 0 2-1 1-2v-1c2 0 2 2 0 4l-1 1 1 1c-1 2-1 2 1 1h1c0 3 0 4 1 3a1 1 0 112 2h-3c-1 2-1 2 4 2h5v12c0 13-2 16-6 14h-2c0 1 3 2 10 1h8l-3 2c-3 3-3 3-2 5h2l1 1c2 3 6 4 5 1h1v4l2-1h1a5 5 0 006 7c1-1 2 0 2 1h-2l1 1 2 2 1-2 2 1 1 1 1 2h-2l1 1 4 4-2-2v-2h1l1 1c1-1 1 0 0 0l1 2 1 2a3 3 0 002 3c-1-5 3-7 10-6 4 1 5 0 5-1l-1-1-1-1 3 1c1 2 1 2 5-2l3-3-3-1h-3l-2-1h4c3 0 4 0 3-1v-1l2 2c0 1 6-3 6-6h1c2 1 2 1 2-1l3-2 2-2-1-1c-1 1-2 0-1-1h4l1-2c2 1 3 0 3-2-2-5-2-7-1-6v-3l-1-2c-4-3-4-8-1-8 1-1 2 0 1 1l2 3c2 2 4 3 4 1l1-1 4-3c1-3 1-3-1-3l-1-2c0-2 1-2 2-2 3 0 3 0 2 1h-1l-1-1v2c1 2 4 1 5-2l2-3c1 0 2-2 1-3l2-1 1-2c-1-1-1-1 1-1h1v-2l1 1v-22c0-3-1-4-2-5-2 0-2-1-1-1h2c1 2 1 2 2-9a19 19 0 00-1-11V60l-2-2h1c1 1 2-1 2-7 0-7 0-7-2-7a2 2 0 01-2-1c0 1 1 1 2-1 3-2 2-3 0-5l-2-2h2c3 1 3-11 0-13v-1c2 1 2-1 1-5 0-2-1-2-2-1l-2 1v-1l2-1v-1l2-1-2-1a2 2 0 01-1-3l1 1h1V2l1-1a6 6 0 00-7 0h-2a8 8 0 00-9 1c-1-3-8-2-10 0-1 2-2 2-2 1l1-2V0l-2 2h-1c-2-2-13-2-16-1h-1l-3-1c-3 0-4 2-2 3l2 3c0 3-2 3-2 0l-3-2V3l1-2c-5-1-10-1-10 1m-76 6l-3 2-5 5h-1l-2 1-1 2-3 1-2 3 8-1c8 0 9 0 7-2v-4h-2l-1-1 2-1 2 1 2-2v1c-1 1-2 2-1 3v1l-1 1 1 3c0 1 3 0 5-2 1-1 1-1 1 1s1 2 3 2 2 0 2-3v-1h2l-1 4 1 1 4 4c3 4 4 16 3 32v4l3-4c4-4 5-6 3-6v1l-1 1-1-1v-2h5v1c2 0 4-4 2-6-1-2-1-8 1-8a6 6 0 00-5-9c1-1-8-9-10-9l-2-2h2l-5-5-5-4c-4-5-4-5-7-2m68 1l-2 3-1 1h-1c0 2 0 3 2 2l1 1h-1l-1 1 1 3a6 6 0 005-1l2-2c2-1 2 0 1 2 0 2 2 3 6 3l1 1c-1 1 3 5 4 4l2 1h-1c-2 0-1 11 1 12v1l-1 5c0 5-2 7-5 5h-5l-3-1c-2 2-3-1-3-8l-1-7-1-1 1-1v-1l-2-1a58 58 0 00-1 20v23c0 2 3 3 3 1h-1l-1-1 1-1c2-1 2-12 1-15v-3l1 1c-2 2 1 3 8 3 8 0 9 1 8 8v11l3-9v-4a4 4 0 00-1-4h1l1-1-1-1v-6l-1-3 1 2 1 1 1-3v-4a25 25 0 002-16l1-2h-1l-1-2c1-3-4-8-7-8-2 0-2 0-2-2v-1l-2-1c-2-3-5-5-6-3l-2 1 1-2c2-3-2-4-6-1m-147 3l-12 5-1 1-2 1-1 1c1 1 0 1 0 0l-2 1 2 1 1 2-2-1h-6l-2 2c-1 1-1 1 2 1 3-1 6 1 5 3h-1c0-2-4-4-4-2l-2 1a2 2 0 00-1 4c1-1 1 0 1 1l1 3 1 1c0 2-2 1-3-2-1-2-1-1-1 6s2 11 3 7h1l-2 2c-2 0-2 0-2 7s1 9 2 6h1l-1 2c-1 0-2 1-2 3-1 1 0 2 1 2l1 1h4l2 1c1 1 2 2 1 7 0 8 1 7 1-1v-7c-1 0-1-1 1-1l1-8a15 15 0 012-9l-1-2-1 1-1 1 1-3 2-2v-1l1-3v-4l-1-1-2-2h1l2 1c1 0 2-3 0-3v-1c2 0 3-5 2-9 0-2 3-5 4-4l3-3 1-2-1 2v3h7c8 0 10-1 6-3l-2-1c2 0-1-3-2-3v2c-1 1-1 1-1-2-1-3-3-3-5-2M4 15a35 35 0 00-2 25c-2 1-1 10 1 9 2 0 2 0 1 1l-2 1-1 1 1 1 1 1c0 1 1 2 3 1l1 1H5v4l-1-1H2l1 1c3 2 4 6 1 6v-1c1-1 0-4-2-4s-1 4 1 6v2c-3-1-2 18 1 19l2 3h3c-1 2 1 4 2 3l1 1c0 2 0 2 2 1s4-1 2 1c-2 3-1 4 2 1l3-5h1l1-1 1-1 1-1s0-2 2-3v-1l-1-1h-2l-2-1 1-1v-2l-3-2c-2 0-2 0-1-1V41l1-2-2-2-2-1 2-1c1 1 4-3 2-5l1-1a5 5 0 00-1-8l-4-4-3-2c-3-3-6-3-9 0m95-2l-2 2c-2 0-3 1-3 3v2l-1-2-1 1h-1c0-1-1-1-2 1-2 2-2 12 0 11h1v1c-3 0-2 2 0 2a4 4 0 004-3c-1 1 0 2 1 2 3 0 2-7-1-10l-1-2 2 1 1 1v-3c0-3 1-4 3-2l-1 1h-1c0 2 2 2 7 2l2-1-1-2-3-3c-2-3-3-4-3-2m221 3l-2 1c-2 0-6 4-4 4l-2 2c-2 0-3 1-3 2l4-1 4-4h4c2 0 2-1 1-1l-1-2-1-1c0-1-1-1 0 0M31 24l-5 1-2 4c-3 5-4 43-1 49 3 5 9 8 15 8 9-1 16-9 10-10-2-1-2-2-1-19 0-22 0-24-5-30-4-5-5-6-11-3m288-1c-8 2-10 9-10 34 0 17 1 22 5 26 7 5 17 4 23-2l3-3-3-2c-3-2-3-8 0-12l2-2h-9v6c-1 8-2 10-3 10l-2 2c-1 3-4 2-7-1l-3-3V56c0-23 1-30 5-25h9l1 9v8h11l-2-3-3-6c0-11-8-19-17-16m-126 1l2 10v4l1 5 1 2c-2 2-1 6 1 6h1l-2 2v4c0 3 2 2 3 0l2-1v-1c-2-2-2-2-1-3 2 0 3-5 1-5v-2l1-5-1-5v-1c1-1 1-1-2-4-1-2-3-3-3-2l-1-2c-1-1-1-1 0 0v-1c-1-2-2-2-3-1m45 3c-1 6-1 7 2 6l-1 2c-2 3-3 4 0 4v1a9 9 0 00-1 11l-1 1 1 1c1-1 2 0 2 1l-2 2v16c3 2 4 0 4-17V26c-1 1-2 0-2-1h1l1-1c-2-2-4-1-4 3M66 27l-8 57h6c5 0 6-1 3-4-3-2-3-9 0-8l7 1 6 1v10h11l-3-3c-3-4-4-6-4-21l-4-29c-1-2-1-3 1-5l2-2H66v3m33 9l-1 30v18h11l-2-3c-5-4-4-26 0-24h4c2 1 3 4 8 25 0 2 1 2 6 2h5l-3-3c-4-3-4-5-7-16l-3-13 4-12 5-14c2-2 2-2-2-2h-4l-3 11-4 12-1 4c0 3-7 3-7 0-1-17 0-22 2-25l2-2H99v12m39-2l-1 30v20h20l-2-2c-2-3-2-3-1-5 2-2 2-2 0-2-3 0-3 0-3 3 0 2-4 2-7-1-2-3 0-48 2-51l2-2h-10v10m34-9l-8 58h11l-1-1c-2 0-4-6-3-8 0-2 1-2 7-1 7 0 8 1 8 7v4h12l-3-3c-4-3-5-6-6-20a261 261 0 00-2-23l-1-7c-1-2-1-3 1-5l2-2h-8l-9 1m33 9l-1 30v20h9l-2-3-3-3 1-11c0-14 0-13 4-12l4 1 3 14 4 14h11l-4-3c-4-5-6-20-3-25 1-2 2-5 2-15s1-14 2-15c1-2 1-2-2-2h-4v13c-2 21-2 22-9 14-5-4-5-5-6-13s-1-10 1-12c1-2 1-2-3-2h-4v10m39 13l-1 30v7h13c15 0 22-3 15-6l-2-1V32l-2-3-3-3c0-1-4-2-10-2h-10v23m111-22l-8 57c0 2 0 2 6 2h5l-2-3c-6-6-4-9 5-8h7v6l1 5h6c6 1 6 0 2-3-3-2-6-12-4-15l-4-34c-1-3-1-3 1-6l2-2h-8l-9 1m-103 3c-2 2-4 47-2 50s7 3 7 0l1-1c4 0 5-3 5-24 1-22 0-22-5-22s-7-1-4-3c2 0 2-1 1-1l-3 1m54 0c-2 2-2 5-1 5l1 3c0 1 0 2-1 1l-1-1c1-4-1-5-4-3-2 3-2 3-1 6l2 5 1 2-1 1c-3 2-3 2 3 7 2 2 2 2 3 0s0-3-1-4l-2-3 1 1c2 2 3 1 2-2l-1-3v-1c1-1 2-3 2-8l1-5 1-1h-4M29 31c-2 5-3 41-1 46 2 4 8 7 8 3l1-2c3 0 3-3 4-23 0-25 0-25-5-25-3 1-4 1-5-1-1-1-1-1-2 2m41 4a224 224 0 00-5 27l1 4c0 4 8 5 8 1 0-2 0-3 2-3h3V52c-1-16-1-16-6-18-2-1-3 0-3 1m106-1c-1 2-5 30-4 32 0 3 1 3 4 3s4 0 3-2c0-3 0-3 3-3h3V54c-2-18-2-18-6-20h-3m82 9l1 10 1 1-1 1c-1-1-1 3 1 4l-1 1v4l2 1a94 94 0 000-22c-2 0-2-1-1-4 2-4 2-6-1-6l-1 10m100-9c-1 2-4 30-3 33s8 3 7 0c0-3 0-3 3-3h3v-6l-2-15v-8l-4-1h-4M92 37l1 4-2-3c-1-2-1-3-2-2l1 2v2l-1 1 1 1 2 1c1 1 1 1-1 1l1 15v3c0 2 1 18 3 22 0 2 0 2-3 2l-4 2c-1 1-1 1 0 0 0-2 0-2-4-2-2 0-3 0-2 1l1 2h2l1 1c-1 1 0 2 1 3s2 3 1 4l1 2 2 1c1 1 1 1 1-1l-1-3v-1l2 1c0 2 0 2 2 1l1-2c-1-1 3-4 4-4h1c0-1-1-3-3-3-3-1-3-1-2-4v-3a58 58 0 000-23c1-1 1-1-1-2l-2-1h4l-1-2V34l-1 2-2-1c-1-1-1-1-1 2m-54 2l-1 3v2c-2 0-2 0-1 1l1 3c-2 2-2 13-1 14v3c2 2 3 3 1 3s-3 7-1 7c1 1 1 0 2-2V39m87 10a21 21 0 004 13c-1 3 0 6 2 5l3-2 2-3-2-2c-1 1-1 0-1-1l1-2-2 2c-1 2-1 2-3 0l-1-2 2 1h2c0-2-2-5-4-5h-1v-3c0-2-1-3-2-1M55 70v1l-1 1c1 1 0 3-1 5a3 3 0 001 4v1c1 1 1 1-1 1l-1-1c0-1-1-1-2 1l-5 3-3 3-1 2h-4c-1-1 1-1 3-1l1-1c0-2-1-2-3-1h-8l3 1 2 3-1-1h-3v2l-1 1-2-1c2-2 1-3-1-1l-2 3-1 1c-2 0-4 6-3 9v4l1 1c1-1 1 0 1 1 0 2 0 2-1 1h-2c-2 2 1 4 4 3l1 2c0 2 1 2 4 2l1 1c-1 1 0 2 1 2l1 1 1 3c2 1 2 1 0 3h-3l-3-1-1-1 1-1-3-4-1-1-2-2-2-1h-3c1-3-1-2-2 0l-4 3-2 3-1 1-1 2-1 1-3 1a53 53 0 00-1 28v12l-1 4c0 4 0 4 2 4h2l-2 1c-2 0-3 3-1 3v1c-2 0-1 2 3 6 4 3 4 4 7 3l3-2h-2v-1l2-1 2 1 2 2c1 1 4 2 4 0h3l-1-2v-1a5 5 0 013 3h-1l4 1 1-3v1l1 1v-3c0-1 1-2 3-2l1-1c0-2 0-2 2-2l1-1 2-4 1-2v-1c1 0 2 3 1 4l10-8a33 33 0 0115-9 1 1 0 110 2l-3 1a7 7 0 01-4 2l-2 2v1l-2 1v2l1 1h-1l1 3 5 3 1 2h2l1 1 1 3c1 1 1 1 0 0 0-2 0-2 2-1 2 2 3 5 1 3l1 3 4 2 2 2 3 1h1v2c1 1 2 0 2-1-1-2 2-2 2 0 1 1 1 1 1-1a12 12 0 016-7l-2 3-1 2-1 2 1 2 1-1 1-1c2 1 14-10 12-11l1-1c2-1 3-1 2-2h1a3 3 0 003-3h-1l3-1 3-2 4-3c2-1 2-2 2-3h2c2 0 2 0 1-2l-5-2c-1 0-2 0-1-1v-2l-1-1-1-1v-2h3v1l3 4c3 2 3 2 1 0l-1-2h2c2 1 4-1 2-3v-1l-2-1c-2 0-3-1-3-2-1-2-1-2-1 0s-1 2-6 2h-6v-11l-1-10c-2 0-2 2-2 11s0 10-2 10-2-1-2-10a25 25 0 00-2-14v-3h8c9 0 9 0 9 13v10l1-7c0-13 1-16 4-16h3v11c1 13 2 16 3 14l2 1c2 3 3 4 2 1h1l1 2v11c1-1 1 0 1 1 0 2 4 6 6 6h1a15 15 0 008 10l1 1c1-1 1 0 0 0l1 2 1-2c1-2 1-2 2 0v3c-2 1-1 4 0 4l2 3c1 2 1 2 4 0l3-3v-1a16 16 0 009-9h2c3-2-1-5-5-4-2 1-2 1-2-1 1-1 0-3-3-5l-5-6c0-2-2-3-3-4l-2-1h2v-2c-1-7 1-14 7-20l2-3c-1-1-1-1 1-1l5-2 8-3c4-1 4-2 4-4h1c2 2 4 3 4 1l-5-5-5-6c0-1 2-1 5 1 3 1 4 1 4-1 1-1 0-2-1-1l-1-9c0-9 0-10 2-10s3 3 1 5v1l1 6c-1-1-1 0-1 2l1 6-1 1v3l1 2c0 1 1 1 4-1h1l-2 2v2c1 2 2 2 5 2h4l5 1a6 6 0 016 2v-1h1c2 3 6 3 7 2l2-2c2 0 4-4 3-5 0-2-3-1-4 1l-1 1 1-2c2-2 2-2 4-1l3 1v-1c-1-1-1-1 1-1 1 0 2 0 1 1l1 1c1-1 1-3-1-6l1-2 1 1c-1 1 0 1 1 1 2 0 5-2 4-3l1-1 2-1 1-1 5-3 6-4c2 0 3-1 1-3s-3-8-2-8c2 0 1-2-2-5l-3-4h-2l-3 2-1 1-1 2-1-2c0-3 1-3 3-2 2 0 2 0 1-2l-2-3-3-6-1 3-1 6h2c0 2-2 2-2 1h-10l2 1c2 1 1 2-3 3l-3-1c1-1 0-2-1-1l-1-1 2-1v-3l-1-1-1-2c0-5 0-7-1-6a1 1 0 11-1-2v-5c-2 0-2 11-1 12 3 0 2 2 0 4s-4 2-17 2a47 47 0 00-16 1v-1l-3 2-4 4-4 3c-3 2-4 4-4 6l-1 3-1-3c-1-2-1-2-1 0l2 2 1 6c0 4-1 5-2 5l-1 1h-1l-4 3c-2 1-3 3-2 3h1l2 3-1 1-1-1-1-2c-3-1-5 0-10 7l-4 4v-1l1-2-3 2-3 3-2 1-3 4h-1l-1 2-1 1-2 2c-1 2-3 1-3-2l1-2a6 6 0 004-5c2 1 8-5 6-6-1-1-1-1-2 1 0 3-2 3-2 0 0-4 2-4 4-3 3 2 4 2 4 1l3-4a4 4 0 003-3l-1-1h2c1 1 2 1 4-2a11 11 0 015-4c-1 0 1-3 3-3l2-2 3-1 1-1-1-2-2-6c0-5-1-7-2-6l-1-2c0-4-3-6-10-6-6 0-7 0-6 2a1 1 0 11-2 0c0-1-1-2-3-2l-5-1-1 1h-7a14 14 0 00-8 2l-1-3-1-2c-1 0-5 5-5 7h-1c0-2-1-2-2-2l-2 1 1 1-2 3-4 2-2 2c-1-1-4 4-3 5l-2 1h-1l1 2 2 3v2c-2 1-2 6 0 6 1 0 2 0 2 2 0 1 1 3 3 3l2 3 4 2 1 1c-2 2-9 1-9-1h-5l2-1v-2l-2-1-1-1c0-2-4-5-6-4s-3 2 0 2l2 1h-1l-3 1 1 2v1l-2-1-2-2-1 3-1 2v-1h-1c-1 0-2 1-1 2l-3 1-4-1 1-1 1-1a7 7 0 014-4l2-1c2-2 2-2 0-4l-1-2 2 1c1 1 1 1 1-1v-2c1 2 2 3 1 4v1l1-1 2-1v-3c-1-1-2-2-1-3l-1-2v-1c2-1 3-4 1-5l-2-1h1l-1-2c0-2-2-3-2-2v-1c0-1 0-2-2-2l-1-1c0-1-1-2-2-1v-2l-1-1c-1 1-1 1 0 0l-1-2h-2c-2 0-2 0-1 2 2 1 1 2-2 2s-3-1-2-2l2-1-4 1h-1c0-2-7-3-7-1-1 1-1 0-1-3a6 6 0 011-5l-1-2-1-1h1l1-1v-1c2-2 1-6-1-6l-1 2m123 10v6h-8c-6 0-7 0-6 1l3 5c2 4 2 4 4 2v-2l2-2c1 0 2-1 1-2l1-1c1 1 6-3 5-5l1-1h2v-5l1-1c-5-1-5-1-6 5m104-1l1 6v4c-2 3-1 3 2 1 2-3 2-3 1-7v-6c1-2 1-2-1-2-3 0-3 0-3 4M2 93v2l-1 5c0 3 0 4 1 3h1l2 4c2 1 3 2 2 3l-1-1-1 2-3 1 1-2v-3c-1-4-2-2-2 7l1 9 1-2c0-2 1-3 2-2l4-3c3-3 3-3 1-6v-6c-1-1-1-1 1-1s2 0 1-2H8v-1c3 0 2-2-1-4l-3-3H2m191 6v10c-2 1-1 6 1 7h3c2-2 2-2 3 0 1 1 1 1 1-3v-4l1 3c1 7 3 4 3-5s-2-13-3-6l-1 4v-4c0-5-2-3-2 2s0 5-1 3l-1-2v-6c-2-1-3-1-4 1m14-1v18c1 2 4 0 4-4l1-3v3c0 3 0 4 3 4 5 1 5 1 5-9v-9l-2 1h-1c0-2-2-1-2 1h-1l-1-2-3-1-3 1m-37 9c0 9 2 13 3 6 0-6 2-6 2-1a5 5 0 01-2 6l2-1h8c1 1 2 0 2-2l-1-3v-9a3 3 0 10-4-4h-1l-5-1h-4v9m88 2v1l-1 1c-1-1-2 0-3 2l-3 2c-2-1-4 3-2 4v1l-1-1c-2-2-4-1-4 2a2 2 0 002 4c-2 2-6 1-6-1-1-2-1-2-1 0l-3 3c-2 0-2 1-2 2 0 2 0 2-2 1-1-1-1-1-2 1l-2 2c-3 0-5 3-2 5 1 1 3 2 4 1l1 1 3 6 3 6v7c0 5 1 5 3 4 2 0 2 0 0 1l-4 3-3 6-3 3 2 2 3 1h4v-3l3 1a2 2 0 01-3 4c-3-1-3 0 0 4l4 2 1 1c0 3 5 8 7 7v2h1l1-3 2-2c2-1 2-1 1-3v-4c2-1 4-1 4 1h-3c-2 4 2 2 9-4 8-7 9-10 4-9l-2 1 2-2h4c1 1 2 1 5-1l1-1v-1c1-1 1-2-1-3l-1-1h2c1-1 1-1 2 1 0 2 1 3 3 0 1-1 1-1 0 0h-1l-1-2-1-1-2-3a1 1 0 111-1h1l2-1-1 2c-2 1 2 4 4 4 3-1 3-3 1-5s-3-3-2-6v-3l-1 3c-3 5-6 4-6-1l1-13c0-8 0-10 2-10l1-1h-3l-1-2-2 1c-2 1-3 0-1-2v-1l-1-2c0-2 0-2-3-2h-1c2-1 0-4-3-3l-1-1-5-5-1 2v1c-1 0-2-1-1-3v-3l-2 1M86 127v1l-2 1c-4 0-5 3-5 14 0 12 2 17 6 12 2-1 2-3 2-14l1-14h-2m243 1c1 1 0 1-1 1-4 0-5 3-5 14 0 12 2 16 6 13 3-2 3-17 0-18l-2-1h2c2 0 2 0 2-5a10 10 0 00-2-4m30 1l-2 4c-1 1-1 1-2-1-2-4-6-4-7 0-2 4-1 20 1 23 4 5 5 2 6-10l1-8 3 2 1-1-2 8c-2 10-2 10 3 10a2 2 0 101-4l-1-2 2-8c2-9 4-7 4 5 0 8 0 9 2 9s2-1 2-13c0-15-1-16-4-12l-2 2-1-2c-2-2-3-3-5-2M33 143v13h3c2 0 3 0 3-2v-2l1 2c1 3 4 4 6 1 2-2 2-4 2-12 0-11-1-14-4-14-4 0-4 1-4 13 0 7 0 9-1 8-2 0-2-2-2-11s0-10-2-10-2 1-2 14m17-12v24a11 11 0 005 3c-1-1 0-2 1-3 2-4 1-11-1-11l-2-1 2-2c2 0 2-1 2-4 0-5-1-8-4-8l-3 2m10-1l-2 25c0 2 4 1 4-1l1-2v2l2 2c2 0 2 0 2-10v-11l1 11c0 9 0 10 2 10s2-1 2-10l1-11 1 10v11l4 1h2c-2-2-2-4-2-15v-13h-9l-9 1m29 12v14h8v-14c0-12 0-13-2-13l-2 2-1 3v-3l-1-2c-2 0-2 2-2 13m206 1c0 12 0 13 2 13l2-2h1l2 2 1-13c0-13 0-14-2-14l-2 2h-1l-1-2c-2 0-2 2-2 14m20-11c-1 3-1 6 1 7l1-2c0-1 0-2 1-1l-2 9c-3 11-3 11 2 11 3 0 5-3 2-4v-7c2-7 2-11 1-14-2-3-5-3-6 1m24-1l-1 6-1 5c-2 1-3 4-1 4l1-2h1l1-2 1-3 1-3c0-2 0-2 1-1l-2 9c-3 11-3 12 2 12 3 0 5-3 2-4-1 0-1-3 1-8 2-10 1-14-3-15-2 0-3 0-3 2m59 1l-2 3-1 1-2 2-1 2-2 2-2 2v2l-1 1c-2-2-4 3-3 7a5 5 0 010 6l1-1c2-1 2-1 2 1l1 4 1-1c-1-1 0-2 1-1l1 2 2 3 2 1c-2 0 2 3 4 3v-19c1 0 1-1-1-2v-1c2 1 2 0 2-4s0-5-2-5l1-1v-2l1-6-2 1m-201 8c-3 0-3 1-3 3 0 3 0 3 5 2 7 0 6 0 6-3l-3-3-5 1M57 158c1 1 0 3-1 4a4 4 0 00-3 5h-1l-3-1-3-1h-2v1c3 0 5 5 3 7l-2 2 4-2a117 117 0 017-8h-1v-1l2-1 2-1c3-1 2-4 0-5l-2 1m323 6l-1 1-3 2-3 2c-2 0-6 5-6 6 1 1 0 1-1 1-2 0-2 0-2 2 1 0 1 1 0 0l-4 2c-2 1-2 2 0 2h2v-2h1c1 1 0 2-1 4h-2c-1-2-3-1-11 7-9 9-9 9-6 9 0 1 1 1 0 0l1-1v-1c0-1 1-2 3-2l3-2h7l-1 1c-3 2-2 3 2 2l3 1h4c-1 1 0 2 1 1 2 0 3-2 1-2v-1l3 1 2 1 3 1c1 1 1 1 0 0-1-2 0-2 6-2 7 0 7 0 5 2-1 2-1 2 1 1l5-2c0 1 1 1 0 0l-1-1-2-2c-1-1 0-2 1-2l1 1c-1 2 2 3 4 2h2v2l1-2 1-1c1 1 2 0 2-2l-1-3-1-3v-5c2 0 1-3-2-5l-4-2-2-1c0-2-4-6-6-6h-1l-2-3c-2-2-3-3-2-1m-89 2l-2 1-3 3-4 2-3 3-1 1v3l3-1 3-2c2 0 2 0 1 1a6 6 0 00-6 5h-2a1 1 0 110-2v-1c-2-2-7 1-6 3l-1 1c-1-1-3 0-4 2-3 3-3 3-1 4l2 3c0 1-1 1-2-1l-2-2c-2 0-7 6-6 8h-2l-1 1v2c2 0 2 1 2 2-1 1-1 1 0 0l3-2 2-1 1-1a3 3 0 01-2 4l-2 1c-2 1-2 2 0 3 1 2 1 2 2 0 0-2 1-3 3-3l2-1c-1-1 0-1 1-1h3c3-1 8-4 6-4s-2 0-1-1l2-1a3 3 0 01-1 5 2 2 0 003 0l2-2 1-1v-3l1-1 1 2c0 2 0 3 2 2 2 0 2 0 1 1 0 2 3 3 5 1 0-1 1-1 1 1h1c0-2 4-3 5-1h3l2 1h1c0-2 2-3 3-1 2 1 5 1 4-1 0-1 3-1 5 2 3 2 3 2 3 0 0-1-1-2-2-1v-1c0-2 2-2 3-1l3 1c2-1 2 0 1 1-1 2-1 2 1 0s2-2 2 0a1 1 0 102-1v-1c1-1 4 2 3 4h1c1-1 1-2-1-4-2-4-3-4-4-2-1 1-1 1-1-1 1-3 1-3-1-2-2 0-2 0-1-1 1-2-1-5-4-5l-1-1-2-2v-1l-2-2-2-2a9 9 0 00-7-5h-3l-1-1c1-1 0-2-1-3l-2-1-2-2c-2-2-2-2-3 0h-1c0-2-1-3-3 0m-165 7c-1 1-1 1 1 1h2l-2 1-5 1-2 3-1 1a11 11 0 00-6 5l1 1h-2c-3 0-6 2-6 3s-1 4-3 4l-1 1h4a3 3 0 006-4c1 0 2 2 1 4-1 1 0 3 3 3l-1-1v-2l2 2c1 2 2 2 3 1h6l5-2c2-2 4-3 3-1v1h2c0-2 0-2 2 0l1 1 1-1 1 2h4v3l-1-1h-1l2 2c2 0 3 1 3 2h-2c-2-1-3 0-2 1v5l1 1c2 1 2 1 1 2-3 0-5 2-3 2s2 0 1 1l-3 4c2-1 2 0 1 5l-1-1v4c0 2 1 2 2 1l7-4 4-5-1-2h3l1-1a2 2 0 002-3l-2-8c0-3 0-3-1-2-2 1-2 1-2-2s-1-4-3-3-2 1-1-1 1-2-3-7l-9-8-2-2c-2-3-2-3-3-1l-2 2v-2c2-2 3-4 1-4l-1-1c0-2-3-2-5-1m-76 3l-2 3-1 1-3 2-1 2-2 1c-2 2-2 4-1 3l1 1h-2c-3 0-7 3-5 4h2v-1c1-2 2-2 3 0 2 3 3 2 3-1s1-2 1 1l2 4c2 1 7 0 7-1h2c0-2 0-2 1-1l1 2 1 1 2-4c2-4 2-4 2-2a4 4 0 01-1 4v1h4l3 1-1-1v-1l2-1h3c1-1 1-1-1-3-3-3-6-4-4-2a1 1 0 01-1 3v-6c-1-1-1 0-2 1-1 2-1 2-1-1a5 5 0 00-3-5l-7-7-2 2m172 6c-1 1-1 1 1 1 1-1 2 0 4 1 3 3 2 4-1 1-3-2-4-2-2 0v2l-2-2-2-3-7 2-10 2a8 8 0 00-6 1h-10l-1-1-3-2c-3 0-6 2-5 3l-1 1c-2 0-2 2-2 5h-1c-2-3-3-1-2 2 2 3 1 4 0 2-2-2-3-1-7 3-3 4-2 6 1 3l4-2 3-1c3-3 4-1 1 2l-3 3-1 1-1-1-1-1v1l-1 2v-1l-1-1-1 2 1 4h3v5l-1 1h3l3 2 2 1 1-2 1 2c0 3 2 5 4 5a3 3 0 002 3h2l-1-2-1-1v-2l-1-2c1-1 1-1-1-1-1 1-1 1 0 0h3v2l1 2c1 1 1-4 1-7a5 5 0 013-4l2-2 2-1-2 2-1 6 1 1v1c-2 0-2 1-1 3v3l1 1 1 1c-1 1 0 3 1 4v3h-1a3 3 0 003 2l1-2c2-2 5-11 4-11s-1-1 1-1c1-2 1-2-1-2-2 1-2 1-1-1h2l1-1v-2l1 11c0 6 0 6 3 6 3-1 5-4 4-5l1-1h1l-1-1-1-1h2c1 1 2 2 1 3v6l-1 5v2h2l2-2 1-1 1-2c1-1 2-2 1-3l1-2c2 1 2 0 3-1l1-1c0 2 4-2 4-4h1l3-3c2-3 2-4-1-2-1 2-1 2-1 0l-2-2c-1 0-1-1 1-2h1c-1 1 1 3 5 2 4 0 6-1 5-3l1-1c2 1 6-2 4-3h-2l2-1 2-1v-1c-2 0-2-2-2-5 0-1 0-2-1-1v-1c3-2-1-7-4-6l-1-2a22 22 0 00-11-12v-1h-3c-2-1-3 0-4 1m112 5v5c1 3 1 3-1 2l1 1c2 3 3 3 3 2l2-2 2-1 1-1 1-3v-1h2c1-2 1-2-5-3-3-1-4-1-6 1M1 196v37l1-1 3-4 2-2-3-1-2-2h5v-5l-1-3c0-2 0-3-1-2l-1-1c1-2 3-2 3 0 1 1 1 0 1-1l-1-4-1-3c0-2-1-3-2-3v1H3c-2-1-2-2-1-3 1-2 1-2 3-1 1 1 1 1 1-1l-1-2-2-1c-2-2-2-2-2 2m13 4l3 4v29l1 11c0 1-2 4-5 6-5 6-5 7 1 4l5-2 7-2 5-2 1-1 5-1c3 0 3 0 2-1v-9l1 2c0 2 0 2 5-1l-1-1-1-5c0-5 2-6 5-4 4 7 9 10 6 5l-1-7-2-6c-2-6-2-8 1-8 2 0 2 0-2-2l-5-3-3-2-6-1c-4-2-4-2-2 0 1 1 2 2 2 5l1 6v6c1 0 2 2 2 8s0 7-2 6l-1-2-1-1c-3-2-4-5-2-5s2 0 0-6v-4c-1-6-5-12-10-14l-8-3-3-2 2 3m57 4l-3 1v1c1 1 2 5 2 11l2 6c1 3 1 2 1-3v-3l4 8h1v-7l-2-3 2-1 1-4c0-5-6-9-8-6m-18 2l3 6v2c2 2 1 10-1 10v1l1 2 1 3c2 3 4-2 4-7-1-3-1-4 1-4s4 5 3 8c-1 2 0 3 2 1l2-1c2 0 2 0 0-5l-2-4v-1l-2-1 1-1v-6l-5-3-7-2-3-1 2 3m55-1h-7c-3-1-6 6-5 15l1 14 4 3 3 2c1-1 2 0 4 1 4 3 4 3 4-2l1-4 1 5c0 5 0 5 3 5l4 2c0 1 1 2 3 2l6 4c3 3 5 3 3 0-1-1-2-9 0-10l-1-3-1-6 1-2-2 2c-2 1-2 3-2 6 0 6-1 6-4 2l-4-2c-3-1-2-10 1-11 2-2 3-3 1-4l-1-1-1-1c-1 0-2-6-1-8l4-1h3c1-2 3 0 3 2-1 2 2 6 3 6l1-5 1-7c2-2 3-6 1-6l-4 2-6 2-5 1-4 2c-2 0-3 0-2 4v6l3 5c1 1 1 1-1 2-1 0-2 1-2 3-1 7-4 0-4-8l1-3-3 3c-3 2-3 5-2 8 1 2 0 3-1 1l-3-1c-3 0-2-16 1-18 2-2 3-1 3 2-1 2-1 2 1 0l3-3 2-5 1-3-5 2m-20 1c-7 2-8 2-6 3s3 4 0 6v3l-1 6c-1 2-1 3 1 4s3 0 2-3c0-2 0-2 2-2 1 0 2 1 2 4l3 5c1 1 2 0 2-12 0-11 0-12 2-13l2-2h-2l-7 1m303 3l-2 1c-2 0-2 1-2 5 0 5-1 5-4 6-5 1-7 0-6-6 0-5 0-5-2-4-3 0-3 0-2 9l1 11-1 3c-1 2-1 2 1 3 4 2 4 1 4-5v-7h4c5 0 6 1 6 9 0 4 3 5 5 2 2-1 2-2 1-2s-2-1-2-3v-23l-1 1m-369 2v12c0 2 3 4 3 2l1-1c2 2 4-3 2-6l-1-4c0-2-3-5-4-5l-1 2m327 2l-2 4-1 1v5l1 6 1 5 1 1c-1 1 0 2 1 1l2 1h3l4-1c1 1 2 0 2-1l2-1 2-2c0-2-1-3-2-3l-1 1v2h-3c-6 3-10-4-8-12 1-4 5-7 8-6 4 2 6 2 5 0l-3-2-1-1c0-2-9 0-11 2m-70-1l-5 1h-3l-2 2v3l-1 3-1 4-1 1 2 4 3 3 1 3c0 2 3 2 14 2 2 0 3-1 2-2l1-2v-6l1-5h-4c-5-1-6 1-3 4 4 3 2 7-4 7-7 0-10-10-5-17 2-3 5-4 8-1 3 2 8 1 6-1l-2-3h-7m18 2v11c0 6 1 8 2 9l2 3h1l2 1h10l1-2 1-3c1 0 2-1 1-4a5 5 0 011-5l-1-6c0-5-2-7-4-7l-1 10c0 11 0 13-4 13-5 0-6-3-6-14l-1-8-3-1c-1 0-2 1-1 3m29 7v13a10 10 0 011 5l7-1c8 0 9-1 8-3 0-3-1-3-5-2-5 0-5 0-5-2a198 198 0 00-1-13c0-6 0-6-3-6-2 0-2 0-2 9m-285-7l1 5c0 4 0 4 3 4s4-4 0-9c-1-2-5-3-4 0m210 1l-3 2-2 2-2 2c-2 0-3 1-2 3 1 1 1 1-1 1-2-1-2-1-2 1l-1 2v-1c0-1-1-1-3 1l-2 3-1 1c-2 0-6 4-5 6l-1 1c-2-1-3 0-3 4l-2 3a12 12 0 007 10c-1 4 5 9 7 6h1l-2 3c-2 2-3 4 0 4v1h-1l-1 4 1 3 1-2c-1-1 0-3 1-4l1-4c0-2 0-3 1-2l3-3 5-5a5 5 0 004-4l1 1c0 1 1 1 2-1h1v2a1 1 0 110 2l-2 2-1 2c-1-1-2 0-2 1h-1c-1-1-1 0-1 3s0 4-1 3l-1 2c0 2 1 2 3 2l3 1c0 1-4 2-5 1-1-4-4 4-4 11l1 5 2 2 2 1 3 3 1 3 3-2 4-4 2-2v-4c2-2 2-2 0-2l-2-2h2l1 1v-4l-1-2c1 0 2-1 2-3v-4c1-2 0-7-1-6l-1-1-1-1v1l-1 1-1-1 3-1 2-1-1-1v-2l-1-2-1-2-2-4-2-4-4-3c-3-1-4-2-3-3s2 0 4 1c5 3 7 1 4-2-1-1-2-2-1-3l-2 1c-2 0-2 0-1-1 1-2 2-2 3 0 2 2 2 2 3 0 1-1 1-1 0 0-2 0-2 0-1-1l-1-2-3-2v-1c1 1 2 0 2-1v-4c1-2 0-3-2-4l-2-2 1-2h1c3 0 3-1 1-3h-2m-91 4l-2 4-2 2c-1-2-5 4-5 6v1l-4 1c-1 2-1 2 1 4 1 2 1 2-1 1h-3c-2 2-3 4 0 4 1-1 1-1 0 0s-2 2-3 1v2c2 2 2 2 1 4l-3 10-1 5-1-3v-3l-1 3c0 2-2 3-4 1-1-1-1-1 0 0v2l1 1v1c-4 0-6 7-2 7l1 1h1c1-2 1-2 1 0s4 5 9 6c3 0 4 1 2 1l-3 1 3 1h1v1l2 2c1 1 1 0 1-4a6 6 0 00-1-7v-4l1-4 1-5c1-3 0-4-1-3l-4 1v-1c2 0 2-1 2-2h2l3-1c-1-1 0-2 1-2 4-2 4-3 1-4-2 0-2 0-1-1v-1c-2 0-2 0-1-1v-2l-2-1 2-1v-1a11 11 0 01-1-7c1 3 3 1 3-2v-4c2 0 2 4 1 8-1 1-1 2 1 2l1-2v-1l1 4c-1 2 1 4 2 4l1-2v-2 5c-2 2 0 2 3 0l2-3v-1l1-1-2-2c-1 0-1-1 1-4v-3h-1v-1c1 0 2-1 2-3 1-3 0-3-3-5-2 0-3-1-3-2l2 1 2 1c1-3 1-4-1-4l-4 1m8 2a71 71 0 005 14c0 3 1 5 3 4v-5a6 6 0 00-1-5h1c0-2-8-10-8-8M24 231c-2 0-2 1-2 4l1 7c0 3 1 4 3 1l3-1 2-1h2c3-2-3-12-7-11l-2 1m-18 3c0 1-1 2-2 1-2-1-4 4-4 10 0 5 2 8 3 6 1-1 0-2-1-2-1-1-1-2 2-4s4-5 2-3l-2 1a5 5 0 014-4c2-1 1-6 0-7l-2 2m56 4l-1 2v1l-2 1c-2-1-4 1-4 3h-3l-2 1-1 1v1c-2 0-2 1 0 4 1 4 4 6 4 3l2-1 1-2c0-4 0-5 1-3h1l1-2v-1l1-1c1 1 2 0 1-1l1-1 2-1h-1l-1-1 2-1 2-1-1-1h-3m11 1l-1 2v1l-1 1a39 39 0 00-13 14l-2 2v9c-1 1-1 1-2-1 0-4-3-5-4-1-2 3-3 3-3 0v-3c-2 0-2 0 0-2l2-2-3-3-3-2-1 1c-1-1-5 3-4 4l2-1h1a2 2 0 11-4-1c1-1-2-2-3-1l1 1 1 1-1 1h-1l-2 1v-1c1-1 0-1-1-1h-4l1 1c2-2 2 1 0 3h-1c1-2 1-2-1-1h-2l-1-1-1 1h-2v1c1 3-2 3-6 2-4-2-4-2-3 0v1l-2-2-1-2-2 2c-3 3-4 3-3 0v-5c0-1 0-2-1-1-2 0-2 8-1 10v1a26 26 0 001 18c-1-2-2-1-2 2a5 5 0 005 7c-1 1 1 2 2 1v-1H6l1-1 2-1 2-1-1 2-1 1h4l-1 2c-3 2-2 3 0 2v1h-2l-1 1c-1 1 3 4 4 3l1 2c-1 2 2 5 3 5v-3l4-3 3-2a8 8 0 005-9h2c2-1 2-2 1-3s-1-1 1-1h2l2-4 3-3c0-1 0-2 2-2l1-1 2-2c2-2 4-5 2-4l-1-1v-2l-2 2-1 1v-2c2-2 5-3 6 0l1 1v-1l-1-2h1c2 2 3 1 3-1v-2l1 1v1l1 2c-1 1-1 1 0 0a1 1 0 111 2l-2 1 1 1h2l3 5a4 4 0 001-6c2 0 4 3 3 4h-1l-1 1c-1 3-1 4 1 2h3v1c-2 2-2 5 0 3l1 1c0 3 4 7 6 6l3 1-1 1v1c2 2 6 3 7 1h3c4-3 12 1 8 4h-4c-1 2-1 3 1 3 1 0 2 0 1 2l4-3 2-3 2-2c4-4 5-6 3-6v-1h3l3-4c2-3 3-4 2-8l1-5v2l1 2 2-1 1-1c2 2 5-1 6-5l2-6v-5l-2-2a2 2 0 00-3-1l1 1-1 5c-1 1-2 1-3-1v-2l1 1c0 2 2 1 2-1s-4-5-5-4v-3c-3 1-8-1-8-3h-4c-1 1-1 1-1-1l-3-2c-1 0-2 0-1 1l-1 1-2-2 1-1h2v-1h-4l-2-3-1-2-1 2-3-2-5-1h-4c-2-1-2-1-3 1m191 8l-1 3c-2 0-2 0-1 1l3 1c2-2 4 1 3 3v2l-1-2c-1-2-2-3-3-1a8 8 0 005 8c3 3 3 4 0 2-2-2-3-1-1 1l1 7 1 7 3-4c0-2 0-2 1-1l3-1-1-1v-1h1c1 1 5-1 5-2s1-2 2-1v-2l2-1c1 1 2 1 2-1 1-2 0-2-1-2s-2 0-1-1l1-6v-6l-4 1-5 2h-2c0-2 0-2-1-1a1 1 0 01-2-1h-1l-2-1h-3c-1 1-1 1-1-1l-1-3-1 2m135 0c0 2-4 2-6 1-1-2-2-1-1 0l1 2h1c0 2-2 2-4 0-1-1-2-2-3-1l1 1 1 1h-2a4 4 0 00-4 4c1-1 1 1 1 7l1 4 1-1 1-1a2 2 0 011 3l2-1v2c-1 1-1 1 1 1l1 1c0 2 5 7 6 6l1 1v3l1-8-1-7-1 1c-1-3-1-3 1-3l1-4 1-7c0-2 0-2-2-1-2 0-2 0-1-1l2-3h-1m-50 1l-1 1a2 2 0 102 3l3 1-4 1c-4 0-4 0-4-2s0-2-1-1c-2 2-3 3-2 1l-1-2-2 2-1 3h-2l1-2v-1c-1-2-5-3-4-2l-3 1c-2 0-3-1-3-2h-1l-2 3c1 1 0 1-1 1-2 0-3-1-1-3l-2-1-2 1h-2l-3 1c-1 2-1 2-3 0h-2c1 1 0 2-1 1l-1 1c1 1 1 1-1 1h-2l-1 1c-2 0-1-2 1-2 2-1 3-3 1-3l-2 1-1 1-1-2-1-1c-1 1 0 2 1 4 1 4 1 4-1 7-2 4-2 5 1 4v2a1 1 0 102 0h5l1 1c0 2 0 2-2 1s-2-1-2 1l1 1 2 1c1 2 4 3 4 1l-1-2v-1l2-1 2 1-1 1c-1 0-2 3-1 4l2 3c1 2 3 3 4 2l1 2 1 1h3v1c-2 0-2 0-1 1l1 2 2 1 2 1h1c0-2 0-2 2 0 0 1 1 1 0 0l1-3 1-2v-1c1 0 2 1 1 2 0 2 0 2 1 1l2-1c0 2 2 3 4 1s3-3 3-1l2 1a3 3 0 004-1v1c0 1 1 1 6-4l6-5 3-3 1-1 5-2 3-3 1-1 2-1c3-1 2-3-2-4l-2-2h1c1 2 2 1 2-3 1-2 1-3-1-4l-2-3-1 1v3h-1c-2 0-2-1-1-1 2-2 1-3 0-2h-2c0-1 0-2-1-1l-1 1v3c-1 2-1 2-1 0 0-3-3-5-4-3l-2 2h-1v-2c-1-1-2 0-1 1 0 2 0 2-1 1l-3-2-1-1c0-2-1-2-2-1m-57 19l-5 4c-2 1-3 3-2 3l-2 2c-2 1-2 1-1-1l-1 1-9 9v2l-1 1c-1-1-5 11-4 13l-1 1c-2 0-2 5 0 9l1 7a3 3 0 006 2c-2 2-3 3 0 2l1 1 1 2h3l2 3v3l1-1c1-1 1-1 1 1l1 3c1-1 2 0 1 1h1l3-1h1l1-1v3h-2c-2 0-2 0 1 5l3 3v-1c-1-1-1-1 1-1l2-1 2-3 2-2 2-3c2-1 2-2 1-2-2 1-2-2-1-4h3l-1 1-2 1a3 3 0 101-4h-2l2-1c1 0 2 0 1-1l-1-2-1-1c-2 0-2 0-1-1 2-2 2-3 1-3l-2-1h2l1-1v-1c2 0 1-5-1-5l1-1 2-3c0-2 0-2-3 1-2 2-2 2-1 3v2c-3 0-3-4-1-5l2-2c0-2 3-4 4-3s1 1 1-1l3-2c2 1 5-2 3-3v-2l1-2c0-2 2-1 2 1 1 1 0 2-1 1l-1 1c1 2 4 2 3-1a7 7 0 012-4c-1 1 0 3 1 4 1 2 1 2 1 0v-2a18 18 0 00-10-9c1-1-6-6-7-7l-1-1c0-1-6-6-7-5h-1v-2l-2 1m88 1c1 1 0 1-1 2-2 0-3 1-2 2l-2 1h-1a1 1 0 11-2 1c0-1-1-1-2 1l-1 2 1 2c-1 2-3 1-3-1l-2 1-1 3h-1c-2 0-7 4-7 6l1-1h3l2 1h4l2 2c-1 1-1 1 0 0l2 1 5 1 3 1 2 1h3v1c-2-1-2 2-1 5v3l1 3v6c-2 1-2 4-1 6v1l1 1 2 2h-1a1 1 0 101 2l2 1-1 1c-1-1-2 0-1 1l2 2c2 0 2 0 1 1-2 1-2 3-1 3v4l-1 2c-1-1-1-1 0 0l2 4c1 1 1 1 1-1s0-2 2-2l1-1 2-1 1-2 1-1c1-1 3-3 2-4l1-1c1 1 2-1 2-8 0-8 0-9-3-7h-1l2-2c3-2 3-9-1-9-5 0-6 0-5-3a3 3 0 016-1h-4v3a4 4 0 003-8l-3-3c-1-3-3-4-3-2l-1 2c-2 2-2 2-2 0v-2c2 1 3-1 2-4v-2l1 2c2 3 3 3 3-2 0-4-1-5-5-9a19 19 0 00-7-5v-2h-3m-254 8l-2 3h-1c4-5-1-1-6 4-8 9-9 10-9 12a4 4 0 007 0l1 1v2h-4l1 1 2 3a122 122 0 001 6c-1-2-2 0-1 3l-2 1c-1-1-2-1-3 1l-2 2c-2 0-1-4 1-6s3-4 1-6c-2-1-3-1-3 1l-1 1-2 1-1 5c0 3 0 4 2 5s2 1 1 2h-3c-1 2-1 3 1 3l1 2c0 2 0 2-2 0-1-1-1-1-1 1l-1 6-1 2 1 2 1 1v1a9 9 0 016 7l3 1c1 2 3 3 4 2v3l2 1c-1 1 2 4 3 4l1-2 2-2h2l-2 3c-2 3-2 5 1 2l1-2 1-1v-2c0-2 0-2 1-1 2 1 9-5 8-7l-2-2-1-1 1-2 1 1 2 2c2 1 10-5 9-7l1-1 3-1a3 3 0 013-2l1-2c3-3-2-6-6-4h-1v-2l-2-1 1-1 4-12-2-3v-1c2 1 3-1 1-1v-2l1-5c0-5 0-5-3-5h-2c1-2-5-7-8-7l-1-1c0-2-4-3-6-2-1 1-1 1-1-1 1-1 1-2-1-3h-1m-75 3l1 2v1l-6 1h1v2l-4 2-1 1-5 6a14 14 0 00-5 7l-5 3c-3 3-3 4-3 6l-1 1-1 1-1 1v3l-2 6v1l3-1a4 4 0 006-4v-3h1l3-3v-2l-2 2-1-2c0-2 4-6 4-5v1l1 2h4l3-2 1-1h2c1 2 5 0 5-3a4 4 0 017-2c-3-2-2-4 1-2 1 1 2 0 3-1s1-4-1-4v-1c1-2 3 2 3 5v2h1l2 1c2 1 2 1 1-1v-2c0-1 1-1 1 1h1c0-3-5-9-7-8-1 0-2 0-1-2l-1-2-1 3c0 1-1 1-3-1-1-1-1-1 0 0l2-1c1-2 0-5-2-5v-1l-1-1-2-1h-1m165 7l-5 9c-2 6-5 9-9 9-3 0-4 3-3 7 0 3 5 8 6 8v-2c-3-2 0-8 4-10l4-1-4 1h-3l3-2c3-2 3-3 3-5l1-1v-4c1 1 2 0 1-2 0-1 0-2 3-3l2-1c-2 0 1-3 3-3v1l-1 1c3 0 5 4 4 9 0 6-2 11-4 11l-3 1v-1c0-2 0-2-1-1l-2 1 1 1 1 6c-1 2-1 2 1 1l4-2c3-1 4-4 5-13 2-15 2-17-4-18-3 0-4 0-7 3m-64-1c-2 3 0 9 3 7l-1-1-1-1h6v-2l1 2 1 1c1-1 3 3 3 6v2l1 4c0 2 2 1 2 0 1-1 0-2-1-3l-1-3c0-8-10-17-13-12m204 13l-2 2-1 4 3 3c4 1 4 1 5-4 1-3 2-4 1-5-3-2-5-2-6 0M1 302l1 4 1 2c0 2 0 2-1 1l-1 6 1 6v2l-1 6v4l3-3 3-4h2c2 2 2-3 0-6l-1-1v2c-2 1-2-2 0-4l3-2 1-1c0-2-4-6-6-6v-2l-2-1-1-4-2-2v3m363 1l-2 5v2l4-2c5-4 5-4 3 0l-1 5 3-4c3-6 3-8-1-6-4 3-5 3-4 0v-3l-2 3m-312 0l-2 4-3 6c1 1 3 1 3-1 0-1 1-1 4 1l4 2 1-4c0-3-2-7-5-8h-2m116 1c1 1 0 2-1 1l1 1c5 3 8 11 4 11v1c3 2 5 0 6-4 3-7 3-9-2-9l-6-2-2 1m-15 3c0 2 2 4 4 4l1 1c0 2 8 6 10 6l-3-2c-5-2-6-6-1-8 2 0 2 0 1-1h-2l-1 1-2 1-2 1 1-2v-2c-1-1-3 0-2 1h-1l-1-1-1-1-1 2m160 0l-2 2 2 2c2 2 2 2 3 1 2-3 5-1 3 2s-1 4 1 1c3-2 3-2 1-5-1-2-4-3-5 0h-2c-1-1-1-1 1-3l1-2-3 2m23 2c-24 8-32 37-14 54 12 12 32 10 44-2 21-24 0-62-30-52m-274 5v1l-2 2c-1 1-2 3-2 11l-1 10-1 1-3 3c-3 2-4 3-4 5v6c-1 2 1 5 2 5l1-1v-1c2 0 2-1 1-3-2-2-2-3 0-5v-3h-2l3-2c1 0 2 0 2-2l4-5 2-6 1-2 1-4a6 6 0 00-2-6h1v-4h-1m282 1a19 19 0 1015 33 19 19 0 00-15-33m-96 5l-5 1c-2 0-5 4-4 5l3-2v-1c2-1 7 1 6 2h2c3-2 4-1 1 2-1 2-1 4 1 3 3-1 4-9 2-11-2-1-3-1-6 1m106 1c-1 3-1 4 1 5s2 2 1 4c-1 5 7 8 9 4 3-4 2-6 0-8l-3-4c0-4-6-6-8-1m-275 0l-1 2-1 3-1 4v1h2l2-2c0-1 1-2 2-1l1-4a3 3 0 00-4-3m-9 4l-1 7-2 5c-2 2-2 3-1 3 2 0 5-4 5-7v-2l1-4v-3c1-3-1-2-2 1m-50-1l6 6 2 2c1 4 6 5 6 1l2-1c1 1 2 0 4-1h3l-1 1v2l2 5c1 2 1 2 2-4 1-7 1-10-1-9l-1 1-1 1h-1c1-3 0-2-4 1s-4 3-4 0l-1-2-2-1c3-2-5-4-7-2h-4m246 1l-1 2c-2-2-5 3-5 8a39 39 0 01-2 14l-1 1-1-1h-5c-2 0-2 0-1 1v1l-2-1c-1-1-4 2-9 7l-8 7c0-2-2 1-2 4l2 2c1 1 0 1-2 1-4-1-5-1-4 1 0 2 0 2 1 1 0-2 1-2 2 0 1 1 1 2-1 2l-1 3c1 0 1 1 0 0l-1-2h-1l-1-1-1-1 1 3v3l5 4c1 2 3 3 3 2h2c3 2 7 3 7 1l4-3 3-2c-2-1 0-2 2-1a4 4 0 006-4c2 2 6-5 5-8-1-2-1-2 1-1h3c0-1 2-1 4 1l3 1c0-1 1-1 0 0l1 1 1-1h2c0-2-1-2-2-2v-1l-1-4c-3-4-1-3 5 2l3 2 1-1 1 3 1 2c2 0 2 0 1 2s-1 2 2 0a6 6 0 003-4l1-1c0-1-4-3-5-2l-1-1c0-2 0-3-1-2-2 1 0-8 2-9v-2c-1-1-1-2 1-2 1-1 1-1 0 0h1c2-1 0-7-3-7l-1-2-2-2-2-2c1 0-4-6-6-6l-2-2c-1-2-1-3-2-2l-2-2h-1m-252 3c-2 0-6 4-6 5 0 2-3 4-4 3v2c1 2 1 3-1 3H1h1l1-2H2c-2 1-3 5-1 6 1 1 5-2 5-4 0-1 4-1 4 1 1 1-1 2-1 0-1-1-1-1-2 1l-1 1-1 2-3 1c-2 0-2 1-2 6l1 5a1 1 0 110 2l-1 6c0 5 0 5 2 4h3l-3 1c-2 2-3 6-1 6v1a4 4 0 001 6l-1 2-1 5 1 3 1-1 1 1v1l1 1H2c-2 0-2 0 0 2l3 2c0 3 1 4 3 3 2 0 2 0 1 1-2 1 1 5 4 4l2 1c0 2 3 1 5-1l3-2a3 3 0 002-2h-1c-1-1 2-2 3-2 0 1 3-1 5-4 3-2 4-4 3-4h-1l1-1 2-2 2-2v1c-1 2 3-1 6-3v-1c-4 3-5 3-5 2l1-2 3-2c2-1 2-1-1-7-1-2-1-2 1-1 5 4 6 5 5 6l4-2 5-6-3-6v2c1 1 1 1-1 1s-2 0-1-3c1-4-1-5-4-1a18 18 0 00-4 6c-2 1-2 1-2-1l2-4 1-3v-1a3 3 0 000-5l-1 1-1-2c1-3-2-4-4-2-2 3-3-2-1-5 1-1 1-1 0 0l-5 1 2-2 1-1h-2l2-1c1 0 1-1-1-2-2-2-2-2-2 0l-1 1v2c2 3-1 6-3 3v-1c2 1 2 1 1-4a22 22 0 00-3-9l-2-2h-4l1-2v-1l-3-3-2-1-2-1h-2m133 9l-4 4-2 2-3 1c-2 2-2 3-1 3 1 1 0 1-1 1-2 0-2 0-2 2v1c-2 0-4 3-3 4v2l-1-1-1-1-2 2-1 2-2 2 1 1c2-2 3-1 4 2l1 2v-1l1-1v3h1l1-4v-2l6 3c0 3 1 4 2 3l1 2v2h3c1 1 1 1-1 1s-2 0-1 1v9l3-1c2-2 7-4 6-2v1l2-1 2 1c1 2 2 3 3 2l1 1a3 3 0 005 0v-1h1c0 1 1 2 2 1v5h1l1-1h4c-1 2-1 2 1 1l3-2 1-3c-1-2-1-2 1-1l2 2c2 0 8-5 8-6l2-2c8 0 3-1-10-1l-19-1a11 11 0 00-10 3v-1a2 2 0 000-2h-1l-1 2h-1c-1-1 0-2 1-3l1-2-2-1c-1-1 0-2 1-1 2 0 2 0 2-6s1-9 3-9v1c-2 2-2 2 2 2 3 0 4 0 3-1l-1-4-2-4-1-2a8 8 0 00-6-7v-3c0-2-1-2-4 1m-69 1l-1 4-1 4c0 3-2 2-3-2 0-3 0-4-1-3-2 1-1 4 0 5l-3 2c-3 2-3 2-2 0h-1l-2 4-2 2c-2-1-6 3-6 5l-1 2c-1 1-1 1 1 2 2 0 2 1 1 1-1 1-1 2 1 4l1 5c-1 2 1 3 2 1 1-1 1 0 1 1l-2 2v1h-3c1 1 0 2-1 3v2l1 3 1 3 1-1v-1l1 2 2 2c2 1 2 1 1-1h2l1-2c-2-3 1-2 2 2 1 3 1 3-1 3h-3l1 1c0-1 3 1 5 4a21 21 0 007 4c2 3 3 2 3 0 1-3 5-4 5-2l-1 1c-1-1-3 1-3 2 1 1 2 0 4-2 3-3 4-4 3-1l1 1v1l1 2h1l1 2 1-1c0-1 1-2 2-1a1 1 0 100-2l2-1 3-2c0-2 0-2 1-1h1l3-4c3-3 4-4 3-5s-1-1 1-1h2l-2-1 1-1c1 0 4-2 6-5l5-4-3-3c-3-3-5-10-3-10l1-2c0-1 0-2 1-1v2c-2 3-1 5 2 7 3 4 4 4 5 0 1-2-1-6-3-6s-2 3-1 4v1c-2 2-3-3-2-6 2-2 2-2-1-5a7 7 0 00-5-4v-2h-1l-1 2v-2l-1-2c-1 1-1 1 0 0 0-2-2-3-2-1v-1l-1-2c-1 1-2 0-1-1 0-2 0-2-1-1h-4a2 2 0 01-3 0l-3-1c-3 0-4 2-2 4l-2 1-5 2c-3 2-4 1-1-1l2-4v-5l-8-2m320 1l-5 6a75 75 0 01-7 8v2c-1 1-1 1 1 1s1 1-2 2h-3l1 1v3l1 1 1 1v3l1-1h1v2c-1 1-1 1-3-1h-2c-1 2 3 4 7 4l2 1-2 1 1 2 5 4 4 3v-4l-1-2h1l1-4a4 4 0 00-2-5c3 0 3-18 0-20-1-1-1-1 0 0 2 0 2 0 2-2l-1-2-1-2h1c1 1 1 1 1-1s0-2-2-1m-169 2l-2 4c0 1 6 6 8 6l6-6h-5a1 1 0 11-1-1l1-1-1-1h-2l1-1 1-1c-2-2-4-1-6 1m71 0l-4 8 2 3c2 4 6 8 7 7 1 0-1-3-3-3l-1-1 1-1 3 2 2 1v-1c-2-1-2-2-1-3l-1-1h-1v-7c-1-6-1-7-4-4m-8 12l-1 1c-2 0-4 6-3 8 1 1 3 1 3-1-1-1 2-3 3-3v1l-2 2h1v1c-2 4 0 5 3 2s3-4 0-6l-1-2-1-1-1-1-1-2v1m15 6l-2 2c-3-1-4 0-2 2v1a6 6 0 00-4 5h1v1l1 2c1 2 3 3 4 2l2 2c0 2 1 3 2 3l7 4-3-1c-2-2-2-2 0 1 3 3 3 3 5 1h1v3l2 1c1 0 2 0 1 1l1 2 1 1c-1 1 7 9 8 8l-1-1-1-1h2l1 3v3l2 1 2-2v-1c-2 0-1-2 1-2 1 1 2 0 2-1l1-2 6-4a15 15 0 014-5h-1l3-2c2-1 3-1 2-4-2-2-2-3-4 0h-2l-1-1-1 3h-1l-2-1-1-1-3-1-6-1c-2-2-2-2-3 0l-1 1c0-3-1-2-5 2l-2 2 2-4c2-2 3-5 1-3l-3-2-1-1h-5v-1l2-4-1 1h-1l-2-2-2-3-3-1v-3c-1-3-3-5-3-3m-152 7v6h4c2 0 3 0 2-1l-2-2-2 1v-3c0-6 1-7 4-6l1-1-3-1h-4v7m136 6l-1 1-2 2c-4 1-4 1-3 5a5 5 0 003 4c0 6 0 7 2 5l1-1c-1 1 0 2 1 3v5l-1-3-2-2c-1 0-1 4 1 5l-1 2c-1 1-1 1-3-1l-4-2c-3-1-3-2-3-9l-1-5-1 3-1 1-3 1-3 2-3 2c-3 3-2 7 1 6a1 1 0 110 2v2c4 4 4 7-1 9-5 1-5 1-6-4-2-4-4-5-4-2l-2 2-2 1 2 1c2 0 2 0 1 4v7c-1 1-1 1 1 2l5 4c9 9 10 9 12 8 1-1 1-1 0 0-1 2 0 5 2 4h2c-1 2 4 7 6 7l1 1v2l1-1 1-3c0-2 0-2-1-1-1 0-2 0-1-2l1-2-1-2c-1-2-1-2 1-2 1 1 2 0 1-1h-1l-1-1 1-2v-1l1-2c1-1 0-2-1-1-3 0-6-3-6-4h1l1 1h1c2 1 4 1 7-1 2-2 3-3 0-2l-1-1 3-1 3-2h4l3-1a1 1 0 112 1c-1 1-1 1 0 0 2-2 2-4 0-4v-1h3l1-2v2c-2 2-1 6 1 5l2-1h-1c-2 0-2 0-1-2 1-3 2-3 2-1s2 3 2 1l2-1-1 2c-3 1 0 4 4 3l2 1h1c0-2 0-2 1-1l3 2 1-2c-1-1-1-1 0 0 2 3 3 2 2 0v-4l1-3 2-1c2 0 1-2-2-5a23 23 0 01-6-8l-5-4c-2-3-5-5-7-5l-3-2h2l1-1-3-1h-1c0-2-4-4-7-4v-1c2 0 0-3-4-5l-3-1-2 1m86 0l-2 2-2 2-1 1c-1 0-8 5-8 7l-3 1-2 2-1 1-1 3v1l-1-1h-1l-1 2v1c-2-1-8 4-8 6h-1l-1 1v2h-2l-1 2c-2 0-2 1-2 6a5 5 0 01-2 5l1 1h1l2 1 1-2h3a4 4 0 014-3l-1 1-2 3v2l2-1 1-1c0-2 3-4 4-3l-1 2v1c2 0 3-2 4-4 0-3 1-4 2-2l-1 2v1l-1 3v1l2-1h1l1-1 2-1 1-1 1 1c2 2 2 2 3 1v-3l1-2c1-1 1-1 1 1-1 3-1 3 1 1s4-1 2 1l-1 2h2l1-1c0-2 4-3 5-1a3 3 0 002 0v-2l4 3c4 3 6 4 4 1-2-1-2-3-1-3v1l1 1c2-1 4 1 3 3l1 2 2 4c0 5 2 9 4 9v2c-3 2-4 6-1 5 2-1 3-2 2-18a105 105 0 000-18v-9c0-6-2-11-5-9l-1-1c0-2-4-6-8-8l-4-3-2-1-2-1h-1m-115 4v3l-1 2v4l-2-1a1 1 0 10-2 0l2 1c1 5 4 7 6 5v-2l1-2c3-2 5-3 3 0h1c1-2 2-3 1-5 0-2 0-2 1 0 2 1 2 1 4-1l1-2-1-1-4-1-5 1-1-1h-1l-1 2c-2 1-2 0-1-2v-2l-1 2m-63 2l-1 1c-1-1-4 1-6 3l-8 8c-4 2-4 3-3 7l1 4 1 2 1 2 2 1c0 2-2 1-4-2-1-2-1-2-1 2l1 4v1l-1 1 1 2v1c-1 0-2 1-2 3l-4 4c-2 0-3 1-3 2a2 2 0 01-4 0l2-4 2-6v-6c-3 0-3 0-4 3a8 8 0 01-1 4v2l-4 2c-3-1-3 0-2 1v2l2 3h2l1-1c2-1 2-1 1 1s2 5 3 3l2 1h2l1 2 6 6c8 6 8 6 8 3v-2c-2 1-2-2 0-4h2v1c1 0 1 2-1 6-1 2 0 3 1 3l2 2 3 1c2 1 2 1 1 2v2l2-1 2-1-1 3v1c1-1 1 0 2 1 0 3 1 3 2 2s1-1 1 1 0 2 1 1v-2l2-1c2 1 3 0 1-1v-1c2 0 10-7 9-7l2-3 4-3 1-2v-1l8-6 7-6 4-3 4-4h-5a6 6 0 01-7-2l-2-1 2-1c3 1 3-7 0-12l-1-3 1 2c0 3-2 4-3 2h1v-4c1-2 1-2-1-2s-3 1-3 2h-2c-1 0 1-3 3-3l1-1h-2l-1-1v-2c-1-1-2 0-2 3-1 3-3 5-3 2h-1c-1 0-1 1 1 2h-1l-3 1-2 1-2 2v1c-2-1-1 6 2 9s11 4 14 2h1l1 4 1-1c-1-1 0-1 0 0l2 2-1 1c-1-1-2 0-4 1l-3 2h-3l-2-1h-6c-1 1-1 1 0 0s0-2-2-4c-7-7-9-14-4-21l1-4 2-1c1-1 2-1 1-2l1-1h3l2-2c2-1 2-1-4-6-5-4-9-7-9-5s0 2-1 1c-1-2-2-2-2-1v1l1 1c0 2-2 1-2-1-1-1-2-2-5-2-2 0-3 0-2 2m-6 5l-1 2-2 2-1 1-3 2v1c1-1 2 0 3 1 1 2 0 2-4 2l-1 2c-1 0-1 1 0 0l1 2 1 5c2 4 2 21 1 22s0 1 1 1l2-2 1-2 1-1 1-5 2-5 1-1 1-1-1-1-1-4c0-4 1-5 4-3 2 2 3 8 1 7v5c-1 0-2 1-1 2l-2 1h-2l1 1-1 3c-3 3-4 7-3 7l1-1 3-3a2 2 0 013 0l3-3 2-1 1 1 1-2 2-5c2-4 2-5 0-11-2-7-2-8 0-9h-2l-1 2v1l-1-1-10-5-1-2v-1l-1-1 2-1c1-1 2-3 0-3l-1 1m-143 2a82 82 0 01-1 4h-4v2l1 1-2 1-2 1-1 2c-2-1-5 1-5 4l-1 1c-2-1-2 0 0 2h2l1-2v2c-1 3 5 1 7-3 1-2 2-4 4-4s2 0 0 1l-2 1 2 2c2 2 5 3 5 1l-1-1c-2-1-1-3 0-2l2 1 1 1c1 1 1 0 2-1l1-2 2 3h1c3-1 2-2-4-8l-8-7m101 2v2l-1 1 1 1 2 1 3 1c2 0 2 3-1 5l-3 2-3-2 2 2 4 5 2 2 1 1 1 1c2 0 2-1 0-3v-4c-2 0 2-3 5-3l3-3c3-3 1-6-3-5l-3-1h-3c-3 1-3 1-2-2 0-2-2-3-5-1m99 1c1 2 1 2-1 2h-5c-2 2-3 2-4 1-2-2-1 0 1 3s2 3 2 1l2-2v2l-1 3 1 1 2 4v2l3-2c3-4 5-4 2 0l-3 3c1 2 8-8 7-10v-2l-3-4-3-2m-116 3l-3 1-4 1h-11l-3 1c-2 0-7 6-6 7a2 2 0 01-2 3l-2-2-1 1v1c-1 1-1 1 1 3l3 1c2 0 2 0 2 2l1 2v-1c0-2 3-2 5 0 2 1 2 2 1 3v1l3-2c1-1 4 0 4 2h-1c-2-2-3-1-2 1l2 3c0 1 4 0 6-2h1l-2 3-1 2c1 0 2 1 1 2l-1 1v-1h-1v2l2 3h-1c-1-1-1-1-1 2l1 3 1 2c0 2 0 2 1 1h1l2 1 1 2h-3l-2 1h2l-1 1c-1 1-2 1-1 2h1v2l1 1c1-1 2 0 2 2-1 3 0 3-4-1l-3-2 1 1v2l-2 1h-1s1 2 3 2c2 2 2 2 0 2l-3-1h-4l-2-1 1 2v1l5 7 6 4 3-5a6 6 0 001-9l1-1v-1l1 2c-1 2 2 2 3 0h-1v-1l2-1a3 3 0 000-4l2 1 2-2 1-4 1-3v2h1l2-4 1-2c2 1 3 0 2-2v-1c2 1 4 0 4-3 0-2 2-3 2-1l2-1c2-2 1-5-2-5a1 1 0 010-3l1-3c-1-5-5-5-7-1l-2 3v-1c1-1 0-2-1-3s-2-2-1-3l-1-1h-1c0-2-4-5-7-5s-3-2-1-3 3-3 0-3l1-2v-2l-1-1 2-1c1 1 1 1 0 0-1-2-3-3-3-1m31 9c-3 1-4 3-2 5l1 2c-1 1 1 4 2 4l3-10-4-1M1 405l1 2v1c-2 2-1 6 1 6v1c-2 0-2 1-1 1l1 1-1 1c-1-1-1 0-1 1l1 2v1l-1 5c0 3 0 4 1 3v1c-1 3-1 6 1 6l1 2c-1 0-1 1 0 0v-3c-1-1 0-1 1-1 2 0 2 0 1-1l-1-2c1-2 0-4-1-3-2 0-2 0-2-2s1-3 2-3a2 2 0 001-2c-2 1-1-1 1-3v-3l3-1v-2l-2-2-1-1-1-1-1-1-1-3H1m76 14l1 6c0 4 3 7 5 4v-2l-1-8-1-2-4-1c-2 0-2 0 0 3m-42 1l-3 4c0 3 5 7 8 7h3l-3-3c-3-3-4-6-1-9 2-3-1-3-4 1m51 2c2 11 3 12 5 10 1-3 1-13-1-13-4-1-5-1-4 3m-67 1c-4 3-2 6 6 7 3 1 3 2 3 3-1 2-1 2 1 0 4-3 2-6-6-8-2 0-3-1-3-2h-1m232 0c-2 2-1 3 1 2l2 1c0 2-1 2-4 1h-3l-1 1c-2 0-12 9-11 10l-1 1c-1-1-2 0-2 1l2 1-1 1h-4 1l1-1c0-2-4 2-5 4l-2 2v1l-2 2a34 34 0 00-11 12v1c1 3 1 5-1 7s-2 2 1 3c2 2 4 2 4 1h1a2 2 0 003 0v-1l2 1 4 1c3 0 3 0 3-2v-2h5l-2 2c-5 1-1 2 12 2l13-1 1-1c1-1 2 0 1 1l5 1a8 8 0 007-2l1 1h3l6 1a12 12 0 008-3h-1l-1-1c0-1 0-2-1-1l-1-1-2-5v-2l2-2 1-3a3 3 0 000-5v2l-1-3-1-1c-1 1-2 0-1-1l-5-5-6-6-3-2 1 2c1 1 0 2-2 4l-1 3-1 1h-1l3-6c2 0 0-6-2-6-2-1-3-2-2-3l-2-1-2-2h-2l-1-1c1-3-3-5-5-4m-148 7l-3 5c-2 0 3 3 4 3l1-1 2-6 3-5-3-1-2-1-2 6m57-1c-2 3-1 6 1 5h1l-1 1v1l-2-1c-3-2-6-1-7 3l-2 2c-1-1-2 2-1 3l-1 1c-3 0-6 5-5 6v1l-3 1 1 1-1 1c-2 2-2 2-1 5 2 2 2 2 0 3l-1 5c1 2 1 2-1 2l-2-1 1-1c2 1 2 0 1-2-1-3-3-4-3-1v1h-1v3h-1c1 1 0 2-1 1-1 0-1 2 1 5h1l1-2v2l4 1c2 0 3 0 2-1v-1h3c-1 1 0 2 2 2 3 0 4-2 3-3h-3c-1-1-1-1 3-1 1 0 2 0 2 2s24 3 24 0c1-1 1-1 1 1h10v-5l2 4c1 2 1 2 1 0l1-2 1 2c-1 3 9 3 12 0v-2c-1 1-1-7 1-8l-3-5-1 3-2 3v-2c3-2-1-10-5-10l-1-1c1-1-8-9-10-9-1 0-2 1-1 3l-1 2c-1 0-2-5-1-6v-2c-1-2-1-2-3 0l-2 3 1-3c1-3-3-8-5-6l-1-1c0-2-4-5-5-5l-3 2m143-1c-3 0-3 0-3 6l3 15 1-3c-2-9-2-16 1-17 2 0 3 0 3 11l1 8 1-1v-10c-1-11-1-10-7-9m12 4c-1 1-2 4-1 6v3c-1 3-1 6 1 6 7 1 9 0 9-4l-2-3v-4c0-4-3-6-7-4m12 6l1 7v-5c0-6 0-6 2-6s3 1 3 5l2 6v-4l-1-7c0-1-1-2-4-2l-4 1 1 5m11-5v4c1 7 1 8 3 8 4 0 5-2 4-8 0-4-1-5-4-5l-3 1m1 2c0 5 1 9 3 9s3-6 1-9c0-3-4-2-4 0M5 442c-2 1-3 3-2 4l-1 1-1-1c-1-1-1 1-1 3v5l1-3c2-3 2-3 2-1l-2 5v2c1-1 2-2 3-1v1a5 5 0 00-3 9c-2 0-1 4 1 4a1 1 0 110 2l-1 1c-1 2-1 2 18 2l19-1h2a1 1 0 013 0l2 1c2 0 2-1 1-3h-2l-1-1c1-1 0-4-1-3l-1-2c0-2-2-4-4-3v-1c1-1 0-3-2-4l-2-1 1 1 1 1h-3l-1 1 1-3c1-2 0-5-1-3h-1c0-4-4-8-4-4l1 1 1 1-2-1c-2-3-3-3-3 1 0 3-1 3-5-1s-7-5-5-3l-1 1v-3c0-2 0-2-2-1-2 0-2 0-1 1v1c-2-1-2-1-2 1 1 0 1 1 0 0v-2l-1-2-1-1h1c2 1 3 1 3-1-1 0-1-1 0 0l1-1c0-2-3-1-5 1m392 3a15 15 0 01-5 7l1 1-2 1c-2-1-5 1-5 3l-1 1c-1 0-2 0-2 2l-3 3c-2 0-2 1-2 3h-4c-2 1-2 1-2-2 0-4-4-8-5-6 0 2-4 1-8-1-1-1-1-1-1 1h-1c-2-1-2-1-3 1l-2 1-1-1v1l-1 1-1-3h-3c-3-1-4 0-5 2l-2 2-1-1c1-3-2-4-3-1s-3 4-3 2h-1v-1c2-1 2-2 1-2-2 0-4 3-3 5l1 2c-2 1-3-2-3-5 1-1 0-2-1-2l-1 2c1 3-4 6-6 4v-2c2 1 5 1 5-1 1-1 0-1-6-1s-7 1-6 3h-1l-2-3-1-1v2a1 1 0 11-3 0h-2l-2-1c-2-1-2-1-1 1 2 0 2 1 1 1l3 2 1 2h-3l-4 3c-2 1-2 1 0 3s4 2 14 2c12 0 12 0 13-3l1-2v5h12c9 0 12-1 12-2h2l1 1 15 1 17-1h1l1 1 1-1c-2-2 0-4 2-3s2 1 0 3c-1 1-1 1 1 1l2-1h1l4 1c3 0 3-21 0-24-2-2-2-2 0-4l2-2v-2c2-5-1-3-3 2m-350-2h-1v1c2 2 1 4-1 2-3-3-4-3-3-1h-3l-1 1h-4c-1 2-1 2 2 5l3 4c-1 1 3 4 5 3v3l1 2 3 4c3 3 3 3 4 1v-4h1l2 1 1-1 1-3c1-1 2-2 1-3l2-1 3-2 1-2 1-1c-1-1 0-2 1-1a1 1 0 100-2v-1c0-1-1-2-3-2s-3 0-2 1c2 0 1 2-1 1v1l-1 2c-1 0-2-1-2-3-2-4-5-5-8-3h-1v-3l-1 1m35 2h-2c-2 0-16 14-16 16l-1 2-5 4-3 4-1 2c0 2 1 2 14 2a47 47 0 0017-1 17 17 0 0013 0 1 1 0 101-2v-1l2 2 2-1v-3l-1-1-1 1v-2l1-4v1c-1 2 1 3 3 4v2l-1 3c-2 2-2 2 8 2l11-1c1-2 0-5-2-5-1 1-1 1-1-1h-1c-2 0-2 0-1-1 1-2 1-2-2-5l-4-2c0 1-1 1-1-1v-2c1-2-6-4-7-3v2l2 2h-1c0-2-2-1-2 1v2l-1-3v-5l1-1v-1h-2c-2 1-8-1-8-3 0-1 0-2-1-1l-1 2c1 0 1 1 0 0v-2l-1-2-1 3-1 1-1-3-2-2-3 1" fill-rule="evenodd" tabindex="-1" itemprop="bold"></path></symbol></defs><defs class="gradients"><g class="radial"><radialGradient id="-posters-1652402845051-radial"><stop itemprop="radial" stop-color="hsla(0, 0%, 25%, 1.00)" offset="0%"></stop><stop itemprop="radial" stop-color="hsla(0, 0%, 29%, 1.00)" offset="15%"></stop><stop itemprop="radial" stop-color="hsla(0, 0%, 31%, 1.00)" offset="30%"></stop><stop itemprop="radial" stop-color="hsla(0, 1%, 39%, 1.00)" offset="45%"></stop><stop itemprop="radial" stop-color="hsla(0, 1%, 28%, 1.00)" offset="60%"></stop><stop itemprop="radial" stop-color="hsla(0, 0%, 29%, 1.00)" offset="75%"></stop><stop itemprop="radial" stop-color="hsla(0, 0%, 25%, 1.00)" offset="90%"></stop></radialGradient><radialGradient id="-posters-1652402845051-radial-background"><stop stop-color="hsla(0, 0%, 80%, 1)" offset="0%"></stop><stop stop-color="hsla(0, 0%, 80%, 1)" offset="15%"></stop><stop stop-color="hsla(0, 0%, 80%, 1)" offset="30%"></stop><stop stop-color="hsla(0, 1%, 80%, 1)" offset="45%"></stop><stop stop-color="hsla(0, 1%, 80%, 1)" offset="60%"></stop><stop stop-color="hsla(0, 0%, 80%, 1)" offset="75%"></stop><stop stop-color="hsla(0, 0%, 80%, 1)" offset="90%"></stop></radialGradient><radialGradient id="-posters-1652402845051-radial-light"><stop stop-color="hsla(0, 0%, 60%, 1)" offset="0%"></stop><stop stop-color="hsla(0, 0%, 60%, 1)" offset="15%"></stop><stop stop-color="hsla(0, 0%, 60%, 1)" offset="30%"></stop><stop stop-color="hsla(0, 1%, 60%, 1)" offset="45%"></stop><stop stop-color="hsla(0, 1%, 60%, 1)" offset="60%"></stop><stop stop-color="hsla(0, 0%, 60%, 1)" offset="75%"></stop><stop stop-color="hsla(0, 0%, 60%, 1)" offset="90%"></stop></radialGradient><radialGradient id="-posters-1652402845051-radial-regular"><stop stop-color="hsla(0, 0%, 40%, 1)" offset="0%"></stop><stop stop-color="hsla(0, 0%, 40%, 1)" offset="15%"></stop><stop stop-color="hsla(0, 0%, 40%, 1)" offset="30%"></stop><stop stop-color="hsla(0, 1%, 40%, 1)" offset="45%"></stop><stop stop-color="hsla(0, 1%, 40%, 1)" offset="60%"></stop><stop stop-color="hsla(0, 0%, 40%, 1)" offset="75%"></stop><stop stop-color="hsla(0, 0%, 40%, 1)" offset="90%"></stop></radialGradient><radialGradient id="-posters-1652402845051-radial-bold"><stop stop-color="hsla(0, 0%, 13%, 1)" offset="0%"></stop><stop stop-color="hsla(0, 0%, 13%, 1)" offset="15%"></stop><stop stop-color="hsla(0, 0%, 13%, 1)" offset="30%"></stop><stop stop-color="hsla(0, 1%, 13%, 1)" offset="45%"></stop><stop stop-color="hsla(0, 1%, 13%, 1)" offset="60%"></stop><stop stop-color="hsla(0, 0%, 13%, 1)" offset="75%"></stop><stop stop-color="hsla(0, 0%, 13%, 1)" offset="90%"></stop></radialGradient></g><g class="vertical"><linearGradient id="-posters-1652402845051-vertical" x1="0" x2="0" y1="0" y2="100%"><stop itemprop="vertical" stop-color="hsla(0, 0%, 26%, 1.00)" offset="0%"></stop><stop itemprop="vertical" stop-color="hsla(0, 0%, 28%, 1.00)" offset="15%"></stop><stop itemprop="vertical" stop-color="hsla(0, 1%, 37%, 1.00)" offset="30%"></stop><stop itemprop="vertical" stop-color="hsla(60, 1%, 30%, 1.00)" offset="45%"></stop><stop itemprop="vertical" stop-color="hsla(0, 0%, 29%, 1.00)" offset="60%"></stop><stop itemprop="vertical" stop-color="hsla(0, 0%, 25%, 1.00)" offset="75%"></stop><stop itemprop="vertical" stop-color="hsla(0, 0%, 30%, 1.00)" offset="90%"></stop></linearGradient><linearGradient id="-posters-1652402845051-vertical-background" x1="0" x2="0" y1="0" y2="100%"><stop stop-color="hsla(0, 0%, 80%, 1)" offset="0%"></stop><stop stop-color="hsla(0, 0%, 80%, 1)" offset="15%"></stop><stop stop-color="hsla(0, 1%, 80%, 1)" offset="30%"></stop><stop stop-color="hsla(60, 1%, 80%, 1)" offset="45%"></stop><stop stop-color="hsla(0, 0%, 80%, 1)" offset="60%"></stop><stop stop-color="hsla(0, 0%, 80%, 1)" offset="75%"></stop><stop stop-color="hsla(0, 0%, 80%, 1)" offset="90%"></stop></linearGradient><linearGradient id="-posters-1652402845051-vertical-light" x1="0" x2="0" y1="0" y2="100%"><stop stop-color="hsla(0, 0%, 60%, 1)" offset="0%"></stop><stop stop-color="hsla(0, 0%, 60%, 1)" offset="15%"></stop><stop stop-color="hsla(0, 1%, 60%, 1)" offset="30%"></stop><stop stop-color="hsla(60, 1%, 60%, 1)" offset="45%"></stop><stop stop-color="hsla(0, 0%, 60%, 1)" offset="60%"></stop><stop stop-color="hsla(0, 0%, 60%, 1)" offset="75%"></stop><stop stop-color="hsla(0, 0%, 60%, 1)" offset="90%"></stop></linearGradient><linearGradient id="-posters-1652402845051-vertical-regular" x1="0" x2="0" y1="0" y2="100%"><stop stop-color="hsla(0, 0%, 40%, 1)" offset="0%"></stop><stop stop-color="hsla(0, 0%, 40%, 1)" offset="15%"></stop><stop stop-color="hsla(0, 1%, 40%, 1)" offset="30%"></stop><stop stop-color="hsla(60, 1%, 40%, 1)" offset="45%"></stop><stop stop-color="hsla(0, 0%, 40%, 1)" offset="60%"></stop><stop stop-color="hsla(0, 0%, 40%, 1)" offset="75%"></stop><stop stop-color="hsla(0, 0%, 40%, 1)" offset="90%"></stop></linearGradient><linearGradient id="-posters-1652402845051-vertical-bold" x1="0" x2="0" y1="0" y2="100%"><stop stop-color="hsla(0, 0%, 13%, 1)" offset="0%"></stop><stop stop-color="hsla(0, 0%, 13%, 1)" offset="15%"></stop><stop stop-color="hsla(0, 1%, 13%, 1)" offset="30%"></stop><stop stop-color="hsla(60, 1%, 13%, 1)" offset="45%"></stop><stop stop-color="hsla(0, 0%, 13%, 1)" offset="60%"></stop><stop stop-color="hsla(0, 0%, 13%, 1)" offset="75%"></stop><stop stop-color="hsla(0, 0%, 13%, 1)" offset="90%"></stop></linearGradient></g><g class="horizontal"><linearGradient id="-posters-1652402845051-horizontal" x1="0" x2="100%" y1="0" y2="0"><stop itemprop="horizontal" stop-color="hsla(0, 0%, 27%, 1.00)" offset="0%"></stop><stop itemprop="horizontal" stop-color="hsla(0, 0%, 30%, 1.00)" offset="15%"></stop><stop itemprop="horizontal" stop-color="hsla(0, 1%, 30%, 1.00)" offset="30%"></stop><stop itemprop="horizontal" stop-color="hsla(30, 1%, 36%, 1.00)" offset="45%"></stop><stop itemprop="horizontal" stop-color="hsla(0, 0%, 27%, 1.00)" offset="60%"></stop><stop itemprop="horizontal" stop-color="hsla(0, 0%, 30%, 1.00)" offset="75%"></stop><stop itemprop="horizontal" stop-color="hsla(0, 0%, 26%, 1.00)" offset="90%"></stop></linearGradient><linearGradient id="-posters-1652402845051-horizontal-background" x1="0" x2="100%" y1="0" y2="0"><stop stop-color="hsla(0, 0%, 80%, 1)" offset="0%"></stop><stop stop-color="hsla(0, 0%, 80%, 1)" offset="15%"></stop><stop stop-color="hsla(0, 1%, 80%, 1)" offset="30%"></stop><stop stop-color="hsla(30, 1%, 80%, 1)" offset="45%"></stop><stop stop-color="hsla(0, 0%, 80%, 1)" offset="60%"></stop><stop stop-color="hsla(0, 0%, 80%, 1)" offset="75%"></stop><stop stop-color="hsla(0, 0%, 80%, 1)" offset="90%"></stop></linearGradient><linearGradient id="-posters-1652402845051-horizontal-light" x1="0" x2="100%" y1="0" y2="0"><stop stop-color="hsla(0, 0%, 60%, 1)" offset="0%"></stop><stop stop-color="hsla(0, 0%, 60%, 1)" offset="15%"></stop><stop stop-color="hsla(0, 1%, 60%, 1)" offset="30%"></stop><stop stop-color="hsla(30, 1%, 60%, 1)" offset="45%"></stop><stop stop-color="hsla(0, 0%, 60%, 1)" offset="60%"></stop><stop stop-color="hsla(0, 0%, 60%, 1)" offset="75%"></stop><stop stop-color="hsla(0, 0%, 60%, 1)" offset="90%"></stop></linearGradient><linearGradient id="-posters-1652402845051-horizontal-regular" x1="0" x2="100%" y1="0" y2="0"><stop stop-color="hsla(0, 0%, 40%, 1)" offset="0%"></stop><stop stop-color="hsla(0, 0%, 40%, 1)" offset="15%"></stop><stop stop-color="hsla(0, 1%, 40%, 1)" offset="30%"></stop><stop stop-color="hsla(30, 1%, 40%, 1)" offset="45%"></stop><stop stop-color="hsla(0, 0%, 40%, 1)" offset="60%"></stop><stop stop-color="hsla(0, 0%, 40%, 1)" offset="75%"></stop><stop stop-color="hsla(0, 0%, 40%, 1)" offset="90%"></stop></linearGradient><linearGradient id="-posters-1652402845051-horizontal-bold" x1="0" x2="100%" y1="0" y2="0"><stop stop-color="hsla(0, 0%, 13%, 1)" offset="0%"></stop><stop stop-color="hsla(0, 0%, 13%, 1)" offset="15%"></stop><stop stop-color="hsla(0, 1%, 13%, 1)" offset="30%"></stop><stop stop-color="hsla(30, 1%, 13%, 1)" offset="45%"></stop><stop stop-color="hsla(0, 0%, 13%, 1)" offset="60%"></stop><stop stop-color="hsla(0, 0%, 13%, 1)" offset="75%"></stop><stop stop-color="hsla(0, 0%, 13%, 1)" offset="90%"></stop></linearGradient></g></defs><defs class="filters"><filter id="light-filter"><feColorMatrix in="SourceGraphic" type="matrix" values="1.5 0 0 0 0
                0 1.5 0 0 0
                0 0 1.5 0 0
                0 0 0 1.5 0"></feColorMatrix></filter><filter id="regular-filter"><feColorMatrix in="SourceGraphic" type="matrix" values="1.5 0 0 0 0
                0 1.5 0 0 0
                0 0 1.5 0 0
                0 0 0 1 0"></feColorMatrix></filter><filter id="bold-filter"><feColorMatrix in="SourceGraphic" type="matrix" values="1 0 0 0 0
                0 1 0 0 0
                0 0 1 0 0
                0 0 0 1 0"></feColorMatrix></filter><filter id="emboss"><feConvolveMatrix kernelMatrix="1 0 0
                      0 0 0
                      0 0 -1"></feConvolveMatrix></filter></defs><g itemscope="" itemtype="/settings"><use itemprop="background" href="#-posters-1652402845051-background" style="fill: url(&quot;#-posters-1652402845051-radial-background&quot;);"></use><use itemprop="light" href="#-posters-1652402845051-light" filter="url(#light-filter)" style="fill: url(&quot;#-posters-1652402845051-vertical-light&quot;); stroke: url(&quot;#-posters-1652402845051-horizontal-background&quot;);"></use><use itemprop="regular" href="#-posters-1652402845051-regular" filter="url(#regular-filter)" style="fill: url(&quot;#-posters-1652402845051-horizontal-regular&quot;); stroke: url(&quot;#-posters-1652402845051-vertical-light&quot;);"></use><use itemprop="bold" href="#-posters-1652402845051-bold" style="fill: url(&quot;#-posters-1652402845051-vertical-bold&quot;); stroke: url(&quot;#-posters-1652402845051-radial-regular&quot;);"></use><use class="emboss light" tabindex="-1" href="#-posters-1652402845051-light" fill="gray" filter="url(#emboss)"></use><use class="emboss regular" tabindex="-1" href="#-posters-1652402845051-regular" fill="DimGray" filter="url(#emboss)"></use><use class="emboss bold" tabindex="-1" href="#-posters-1652402845051-bold" fill="gray" filter="url(#emboss)"></use></g></svg>