<svg id="-posters-1652403113260" itemscope="" itemtype="/posters" itemid="/+/posters/1652403113260" viewBox="0 0 512 693" preserveAspectRatio="xMidYMid slice" tabindex="0" xmlns="http://www.w3.org/2000/svg"><defs class="symbols"><symbol id="-posters-1652403113260-background"><rect itemprop="background" width="100%" height="100%" tabindex="-1"></rect></symbol><symbol id="-posters-1652403113260-light"><path d="M0 347v346h513V0H328L143 1h-32c1-1-13-1-55-1H0v347m0 0c0 191 1 269 1 173a141918 141918 0 00-1-173M194 76l2 5c2 2 1 5 0 3h-3l-3 2c-2 0-4 3-4 6s0 3-2 3-3 1-3 2c0 2 0 2 5 1h5v16l1-1 2-3c1-2 1-2 1 1l1 2 2 1c-1 1 0 1 2 1 3 0 3 0 2-1v-1l1-2 1-2c2 0 1-2-1-2s-2-1-3-3l-1-7a5 5 0 011-6l1-2v-3l1-1-2-2c-2 0-3-2-1-3h2c3 1 3 1 0-2l-2-2-1 2c-1 3-2 2-2-1v-4c-2-1-2 0-2 3m86 163l-2 1-6 4-4 3-2 4c-2 6 0 13 6 21 5 7 6 8 9 5 2-2 5-2 5 0h-1l-1 1c1 1 0 2-2 3l-2 1 4 4a35 35 0 0018 10c-3-1 4-6 8-6 2 0 2 0 0 2 0 2-2 3-3 4-3 0-1 2 1 2h2c0 2 3 1 6-1 5-4 1-24-6-27-5-2-10-2-11-1-1 2-6 3-6 1l3-4c4-5 0-11-5-7l2-2c5-6 1-16-7-18h-6m61 28c1 12 3 16 2 4 0-10 1-13 3-4 0 5 0 5 1 3 2-5 1-10-1-10-5-2-5-2-5 7m-51 9l2 7c2 4 2 4 4 4s2 0 1 1c-2 1 0 2 2 1 3-2 2-4-2-7-2-1-4-3-4-5l-2-3c-2 0-2 0-1 2m57 0l4 7c6 7 6 7 0 3-8-7-7-5 3 5l14 17c4 8 8 12 8 10l-8-14-10-16c-2-5-11-14-11-12m-287 3l-1 11-1 9h6l2-2-3-10-1 1v1l-1-2a15 15 0 00-1-8m271 7l-5 7c-3 4-3 4-2 6l4 6c2 4 3 4 6 4l6 1c2 0 2 0 2-6 1-7-1-12-3-9h-1l-3-6c-2-4-4-5-4-3m-49 11v4h1c1-1 1-1 1 1-1 1 3 20 4 20l8 5 8 6 7 5 7 5h2l1 1c-1 1 1 1 10-1 5-1 10 2 11 6 0 6 2 4 5-7 4-11 3-12-4-5-3 4-9 6-6 3l8-16-4 5c-5 6-13 14-16 14l-6-3a23 23 0 00-8-5l1-1h1l-2-2-6-4-10-4c-8-3-8-3-5-8s3-5-3-14c-4-7-7-9-5-5m-245 4l-2 2-2 1v2c2 1 2 2 1 3-3 2-3 5-1 5l1-1c-1-2 0-2 2-1 1 1 1 1 1-3-1-6 2-9 5-4l1 2 1-2c4-4 0-6-7-4m260 12l2 3 1 1c0 3 4 7 8 8l6 2c3 2 5 3 8 0v-2c-3-1-2-3 0-3l6-2-6 1c-9 2-18 2-18 0l1-1a5 5 0 013-1l-2-1-1-1-6-3-2-1m40 9l-13 8-7 4 3 1c0 1 10-1 14-3 3-2 4-3 4-5-1-1 0-2 1-3l3-5-5 3m-44 15l-1 4c0 3 0 3-1 1l-1-2v3l-2 15v13h2c2 0 3-1 3-4v-3h9c8 0 9-1 12-4 4-5 6-10 3-13a33 33 0 00-14-10h-2l-1 1h-3l-1 2-1 3-1-4-1-2M47 360l-3 3-1 4c-1 1 0 1 2 2 2 0 3 1 3 2l1 4c0 2 0 2-1 1h-1c0 2-2 1-3-1v2l2 2c2-1 2 1 0 2v2c1 1 5-3 7-7 1-3 1-4-1-4-3-1-3-4 0-3 2 0 2 0 2-3 0-5-2-7-7-6m-30 49l-3 18c0 5 1 13 3 14 1 1 0 1-1 1-4-1-6 1-3 3 4 3 8 2 9 0 0-2 1-3 2-3 6-2 8-24 2-31-2-3-7-4-9-2m68 1c-3 3-4 6-3 8a27 27 0 01-2 18v-6l-2 4a31 31 0 00-2 13l3-9-2 7c-2 8-2 9 7 14 6 3 13 4 14 1l-1-1h-1l-1-12-2-14v-4c3 0 8-14 6-18-1-3-12-4-14-1m-21 20l-1 2c0 2 0 2-1 1s-1 0-1 3l1 4h2l-1 1c-1-1-1-1-1 1l2 6c0 5 5 6 7 2l1-15-1 3-1 3-1-6c0-5 0-5-2-6l-3 1m49 8l-3 7c-2 3-3 5-3 8l-1 6v4c2 2 4 1 6-2 3-4 3-12 0-12l-1-2 2-4c0-2 1-3 2-3l1-2-1-2c0-2-2-1-2 2m-90 9v2c-1 1-1 2 1 4 1 1 1 1 3-1h1l1 3-7 13-3 4c-3 6-1 23 3 23 1 0 1-2-1-4l-1-4c1-1 2-1 3 2l2 4 1-3c2-4 2-5 0-8-3-3-3-4 1-11 5-11 8-12 8-3l2 5c2 1 2-3 0-8l-1-6 3 3c1 3 1 3 2 2h1c0 3 2 3 3 1 2-1 2-2-1-5l-4-3-2-2c-1-2-2-3-3-2s-3 0-6-4c-5-4-6-5-6-2m93 4l-1 6-2 7 1 3c2-1 6 1 6 2h-2l-2 1c-1 2 3 1 4 0l3-17h-2c-1 1-1 1-1-1-1-2-4-3-4-1m-27 15l1 2v5l-1 2c1 2-1 4-3 2-1-2-4 0-9 6l-5 6c-2 1-2 2-1 2l-1 4c-2 5-1 16 3 16l5-4 5-4c1-1 2-2 1-6l1-8 2-7c0-1 1-2 4-2l5-1h1l2-1 1-1 1 2 1-1 1-2c2 0 1-4-2-6-2-1-3-2-1-3s1-2-5-3c-5 0-6 0-6 2m0 43c-1 1 0 2 1 3l2 8v7l-1-8-2-7v6c0 11 2 17 9 20 2 0 4 2 4 4l3 3c3 0 6 5 6 7-1 1 0 2 3 3l4 4v1c-3-2-2-1 1 6 6 12 8 13 8 6a77 77 0 00-21-35c-3-2-6-6-6-10a29 29 0 00-5-17c1 0-3-3-5-3l-1 2m76 8c-6 3-10 13-5 15l5 4c3 2 4 3 4 1v-1l1 1 4 1 4-1c4 0 8-10 6-13l-1 2v1-4c3 0-2-3-7-5-7-2-6-2-11-1m38 2l-6 2c-4 1-9 6-9 8l-2 5c-3 4-4 5-2 4l1 2c-2 5 5 8 15 7 8 0 10-2 12-8l2-6 1-1h1c1-1 1 0 1 2 0 5 1 7 2 7l4 3c2 2 7 3 9 1l4-1 5-1h4l12 2 11 1 2-3 3-6c0-4-1-4-4 0-3 3-4 0-2-4 4-4 2-7-1-2-3 3-4 3-10-2-9-7-15-8-22-4-5 2-5 2-2 4l1 2-3-2c-1-2-3-4-6-5-3-2-6-2-12-3l-1-2c-1-3-4-3-8 0M83 530c-1 1 1 4 5 8 3 2 4 4 4 5l-1-1-1-1 1 2 8 7 6 5-7-9c-1-1-3-2-3-4-3-4-11-13-12-12" fill-rule="evenodd" tabindex="-1" itemprop="light"></path></symbol><symbol id="-posters-1652403113260-regular"><path d="M0 214l1 217v10c1 2 2 0 2-7a29 29 0 013-10c0-3 6-14 8-15l2-1 1-1c2 2 2-1 0-4-3-3-4-4-1-4 1-1 1-1 1 1-1 0-1 1 0 0l1-1c0-5 7-11 11-10l1-3c-1-2-1-2 1-2 3 1 4 0 2-1l-1-2h1c0 1 1 1 2-1h3v-2a28 28 0 012-17c0-3 11-5 14-3s2 14-1 21c-2 4-3 5-7 6l-3 2c2 1 2 1-3 14l-1 2-1 2c0 5-4 10-7 9v7l3 13 1 9c1 7 2 8 9 16 3 3 4 5 3 7a4 4 0 01-6 0l-3-2 1 4 1 9-1 3-2-2c0-2-2-3-3-3a3 3 0 01-4-4l-1-1-2 3c-1 4-1 5 1 8s2 4 1 10l-1 7 3 15c1 4 0 6-2 3v-4l-3-9 1 5c1 5 0 5-2 0l-3-5c-1-2-4-12-4-17l-2-6c-2-1-2-1-1-3l1-4 3-8c3-6 3-7 3-11 0-3-5 0-7 6-3 5-5 5-5-1l-1-4v-5l-1-1 1-1c2 2 3-1 1-2-2-2-2-2-3 0l-1 2-1 3c0 2-1 3-3 3s-3 1 0 3c1 1 1 7-1 10L0 575v106l2 1c2 1 2 2 1 4-1 3-1 4 4 6h116c6 2 78 1 78-1h35l29 1 2 1c5-2 21-2 21-1h2c2-1 3-2 5-1 1 1 2 0 4-1h21l1 1h1l4 1h3l12-1 6 1c0 2 13 1 14 0 2-3 8-3 8-1 1 2 1 2 3 0l2-1c-1 2 1 3 1 1l7-1c8 0 8 0 7 2l1 1 1-2h1c0 3 4 3 4 0h1c0 2 2 3 2 0h4l4-1 8 2c12 1 95 0 97-1l1-346c0-197 0-345-1-343h-1c0-3-81-3-85 0h-2l1-1c1-1-56-1-126-1a5007 5007 0 00-131 1l-3 1h-7l-11 1h-15l-6-1c-3-1-5-1-5 1l-1 1c-1-2-3-2-5-1-1 1-3 1-5-1H82c-1 1-1 1-1-1h-1l-7 1H59c-1-3-16-3-16 0l-1 1-1-1c0-2-3-2-21-2H0v214m0-50c0 89 1 126 1 81a30751 30751 0 00-1-81M511 37c0 3-2 4-2 1-1-1-1 0-1 3 0 4 0 4 2 3 1-1 1-1 1 2 0 2-1 2-2 2l-2 2c0 2 2 4 3 2h1l1-9V33l-1 4M193 74c0 3-2 5-6 4l-3 1c-1 1-1 1-1-1s-1-3-2-1l-1 15c1 2 1 2-1 0-4-2-4 0 0 4l2 4 1 2 1-1 4-1h3v8c-1 7-1 8 1 9s8 0 8-1l3-1 5-1c1-2 1-2-1-2-4 0-2-2 2-3 9 0 9-4 2-5-4-1-4-3-1-3 2 0 2 0 1-1-1 0-2-1-2-3s0-3-2-2c-2 0-2 0 0-3v-5c-3-1-2-2 0-1l2-1-1-2-1-1c0-2-10-11-12-11-1 0-2 1-1 3M62 130l-2 4c-2-1-1 3 1 5 4 4 6 1 4-7 0-3 0-4-1-2-1 1-1 1-1-2-1-3-1-3-1 2m219 86c-16 6-19 10-20 21 0 10 0 9 3-2l1-10 7-3 14-6c4-1 6-3 4-3l-9 3m22 2l9 3 8 6c16 10 16 9 19 25l2 21 1 8 7 7 10 9 8 11c6 10 10 14 10 13 2-1-7-20-9-20v-3c-1 1-2 0-3-2-1-3-1-4 1-1 3 2 3 1 2-3l-2-5c-1-7-1-7-5-7-4 1-9-1-11-3v-9c0-6 0-7-3-9a16 16 0 01-6-12l-2-4c-3-11-25-26-38-26-4 0-4 0 2 1M46 234c-3 2-8 20-5 20 2-1 2 2 0 2h3c6-1 8-4 10-12 1-8-3-12-8-10m230 2c-7 3-9 4-11 10-2 5-1 15 2 22 3 6 21 24 27 27 10 4 18 6 23 4 5-1 8 1 10 8 2 6 2 7 4 8l15-4v2l-2 1c-1-1-3 0-5 1-6 3-22 6-24 5l-3-2c-4 0-11-3-14-7l-5-3v-2c0-2 0-3-2-4l-9-9c-5-6-5-5-2 5l5 14 4 11c1 2 2 3 1 4l-3 34c0 10 0 11 2 12l3 2-1-2c-1-1-1-1 1-1l2-3c0-3 0-3 6-3 11-2 11-2 17-8 5-5 6-6 6-8-1-2-1-2 1-2h2c3-4 14 1 14 6s6-2 8-10l3-8 1-2 2-4 1-3-1-7-1-5c-2 1-3-4-3-8l-1-2-3-4-2-5-1-2c0-3-2-5-8-12-3-3-6-3-6 1 0 2 0 2-1 0l-2-3-2-2a6 6 0 00-4-6l-2-4-3-5-4-4c-3-1-4-2-4-6l-3-6-1-3c1-2 0-2-2-3-1 0-2 0-1-1s1-1-2-2l-4-2c-4-2-13-2-18 0m41-1l2 4 6 6c2 2 4 3 8 3h3l-14-10-5-3M48 259v2l-1 2-2 4c-2 3-3 4-6 5l-4 2-3 1-3 1c0 3-5 8-7 8v-1c2-2-1-1-5 0l-3 3a36 36 0 0022-2c3 0 8-5 7-8 0-2 0-3 2-5l3-4 1-3c1 0 2 11 1 14l2 3 2 4c0 4 2 4 2 1 1-1 1 2 1 7l1 12c1 4 1 5-1 2-2-4-4-3-6 1-1 4 0 11 4 17v2l1 1 1-2 1-4v-4l-1-4c-1-3-1-3 2 2 3 6 4 6 7 6l5 1h-4c-6 0-6 1-3 5l3 3 2-2c3-2 3-2 1-2-1-1-1-1 1-1l4-1 5-2c5-2 6-4 1-3-3 0-11-4-11-6l-1-9c0-7-1-11-3-15l-2-8-2-4-1-4-1-2 2 2 8 12 7 10 2 4 1 5-1-5c0-4-2-8-11-22-6-9-7-10-9-9l-2 1c-1 2-5-1-5-4 0-4-3-9-4-7m-7 25l-7 4c-3 1-3 1-1 1l6-2 4-1-3 2-2 2h3l3-2h2l1-1v-5c2-2-2-1-6 2m-21 13c-3 0-4 1-4 4-2 3-2 4-3 2-1-1-1-1-1 1 1 2-1 6-3 8l-2 4-3 4v1c1 1 9-3 9-4l3-1c3 0 3 0 3 4-1 5 0 5 4 2s6-3 6 0c0 4 2 5 4 2 2-2 3 0 0 2l-2 1c-2 0-4 5-2 6 1 1 5-1 11-6 3-2 8-17 8-22 0-8-3-9-11-6-5 1-11 0-13-2h-4m272 18c-3 5-2 7 2 3 2-2 2-2 4 2 4 5 5 5 2 0l-6-8-2 3m-204 4c0 3 0 3-5 5-6 4-14 10-14 12 0 3 5 6 6 4 0-2 1-2 5-1 6 0 18-3 18-5-2-5-5-14-7-16-2-3-4-3-3 1m249 0l-4 2-8 2c-2 0-3 0-1 1 2 0 3 3 1 3l-2 1 12-6c7-4 8-7 2-3M0 379c0 28 1 39 1 25a2761 2761 0 00-1-25m56-42l-2 7c0 2 3 4 4 2 1-1 0-15-1-15l-1 6m312 55l-4 2-2 1-6 1-8 2c-3 3-5 3-4 0 0-2 0-2-2-1l-7 2-5 2c0 2 5 2 8 0 4-1 7 0 7 2l-1 1-3 4c-3 5-12 14-13 14l-1-2-1-4-1-10a26 26 0 00-3-12c-2-6-3 1-2 11l2 13c2 13 7 16 22 12 5-1 7-4 2-3h-2l3-4c3-5 6-7 4-3 0 2 0 2 2 0l9-9c0-2 7-8 11-10 5-2 6-5 4-9s-5-4-9 0M88 404l-4 1c-3-1-8 2-13 7l-4 2c-3 0-9 8-8 10 1 1 15-5 15-7l1-1c2-1 4 2 3 5l1 5c1 2 1 2-3 1-12-1-17 0-17 5l-1 1h-1l-1 3c-4 4-2 12 2 9 3-2 4 4 1 7-2 1 6 2 10 1 2-1 3 0 6 2l4 3c2 0 3 5 2 7-1 1-1 1-1-1 0-3 0-3-1-2-2 2-2 3-1 5 2 1 1 4 0 4l-3 2-3 1-2 3-1 3-2 3-2 2-1 2h-2c-1-2-2-1-4 3-1 3-1 3-2-3-1-11-1-5-2 26v42c-1 13 0 15 1 5l2-9c4-10 5-24 2-29-1-3-1-3 1-3 3 0 5 1 4 2 0 1 1 2 4 2 3 1 4 1 3 3l1 1h2a13 13 0 008 8 16 16 0 009 11l2 1c1 1 0 1 0 0l-2 1 5 5 3 4c2 3 4 4 5 2v1l4 8c2 3 6 4 5 2v-2l2 3c0 3 3 4 4 2 1-4 2-2 3 6l1 8 2-4c4-10 3-17-3-26l-2-3h3l12-1 9-1 71-1h73c3-1 1-5-3-5-1 0-2 0-1-1v-4c0-4 1-6 3-3 1 1 1 1 1-5l1-8 2-4 3-1 2-1a74 74 0 0128 0l3 3c2 3 4 3 4 0 0-2 0-2 1-1l2 1-2-3-3-9v-7h-7l3 1 4 1h-5l-4-1-8-1a144 144 0 01-37 0l-18 1a4093 4093 0 00-120 2l-23 2h-5l-8-2c-4-1-5-1-4-3l-1 1-3 2v-1l-1-1-1 1-3 1c-3 0-4 0-6 4l-5 5v-3c-1-1 0-2 3-5 5-5 5-5 5-10a9 9 0 013-9v-2a3 3 0 017 1v-3l1-2 2-1c1-2 2-2 3 0h4c2-2 2-2 0-7l-3-8-1-3-2-4-1-2c-1 0-2-2-2-7-1-8 1-15 2-12 2 3 3 2 3-2l1-4v4l2 7 2 13-1 3c-1 1-1 1-1-1 1-4 0-6-1-4-3 5 4 15 11 14 4-1 5 0 1 2-4 1-4 3 0 3 7 0 11-13 7-24l-3-7c-2-1-4-8-4-11l-1-4c-1-1-1 0-1 2l-1 3v-2c0-4-4-13-6-12l-2 1 1-2c3-2 2-3 0-2l-2 3h-1l1-2v-3a22 22 0 00-13-10l-2 1m11 17c-2 6-2 7-1 7l2-1h6c4 2 3 0-1-4l-5-5-1 3m8 15l-3 5c1 3 4 5 4 2l1-1c2-1 3-4 2-7 0-2-1-2-4 1M0 518c0 28 1 39 1 25a2707 2707 0 00-1-25m105 0c-4 1-4 1-4 6l1 4v1l6 8 6 7 2 1c0-1 1-1 0 0l1 3c2 2 2 2 2 0h1c1 4 8 6 8 2l-2-2-1-2c1-5 0-10-1-10s-2-1-2-5l-1-5v4c0 4-1 6-3 6l1-6v-2l-1-5v-6h-4l-9 1m26 1l2 1 4 1c1 2 17 0 16-2h-3c-3 1-13 0-17-1l-2 1M0 630c0 14 1 20 1 13a630 630 0 00-1-13" fill-rule="evenodd" itemprop="regular" tabindex="-1"></path></symbol><symbol id="-posters-1652403113260-bold"><path d="M408 1l-1 4-1 3-1-1h-1l-2 1 1-2a1 1 0 10-2-1c0 2-2 1-3-1l-2-2c-15-1-22 0-22 4 1 1 0 2-1 2l-1 4c-1 2-1 2-1-1 1-5 0-6-1-4h-3l-1 4c1 6 0 9-4 9-2-1-2-1-2 1 0 3 0 3-2 3-3 0-3 0-3-4l-1-4v-4c0-4 2-6 2-2 0 2 2 1 3-2l1-3c0 1 3-1 3-3l-1 1h-2l-3-1-2 1h-3c0 2-1 2-4 2s-4 0-4 2l-4 1c-3 0-4 0-3-1h4c2 0 3-1 1-3h-3c-1 1-2 2-3 1l-2 1-2 2-1 4-1 4c-2 0-2-1-2-4l1-4 1-1-3-1-5-1c-4-3-10-3-8 0v2l-2 5-1 4-1-4a5 5 0 00-2-5h3l1-1c0-1-1-2-2-1l-3-1-1-2v1c0 1-2 2-9 1l-9-1h-11c-4-1-5 0-5 4 0 3 0 3 4 3s4 0 4 3 0 3-4 3h-4v16h-8V21h-4c-3 0-4 0-4 2l-4 1h-4v-8h-8v4l-1 4c-2 0-2-2-2-8 0-8-1-12-4-11h-1l-4-1a6 6 0 00-5 1l-1-1a2 2 0 00-4 0l-3 1c-3-1-3-1-4 1 0 2-3 3-3 1s-5-6-5-4l-2 2h-1V3c-2 0-4 3-4 5 0 4-4 0-4-4l-2-2-1 2v2l-2-1c0-3-2-3-4-1s-5 3-6 1c0-3-2-2-2 0l-2-1-2-1-2 1h-2c0 1-4 2-6 1-2-2-9-3-9-2l-10 1-10 1H98l-4 2h-3c0-2-4-2-6 0l-4 1h-1l-3 4-3 3-3 2-10 9a118 118 0 01-14 12c-3 3-6 3-11-2l-5-4-7-5h-5c-1 2 0 5 2 5 1 0 4 1 5 3l4 3c2-1 5 1 3 2-2 0-1 2 1 2l2-1 2-1 2 1c0 3 32 2 32 0l1 4 1 6v-6c0-6 2-7 2-1l1 5v-5c0-6 2-5 2 1v5h5l4-1-4-1c-4 0-4 0-4-2 0-3 0-3 4-3 3 0 4 0 4 2l1 2h1l1-2c1-6 3-6 3-1v5l1-4c1-7 5-7 5-1l1 4 1-4a4 4 0 016-4l-2 2-1 4c-2 1-1 2 1 2l2-2c1-2 1-2 2 0v4c1 0 2 1 2 3s1 3 2 3c1 1 2 4 0 4l-2-2c0-1-1-2-3-2l-4-2h-1c0 2-24 3-24 1l-1 2c-1 4-3 5-3 2l-2-3-1-1v3l-1-1h-1l-1 2a1 1 0 11-2 0l-1-1c-1-1-18-2-23-1h-4l1 19c0 16 0 19-2 18l-1 1 2 1 1 8-1 12-1 4c-2 0-2 1-2 4 0 4 2 6 3 2 1-1 1 1 1 5l1 7 1-4c-1-4-1-5 1-7 4-4 4-4 4 4v6h4c3 0 4 0 4-2h1l1-2 2-4 2-4c0-2 0-3 1-2l1 1 2 5 1 6 4-1h4l1-3c0-6 5-8 15-6l10 1c6 1 11 2 14 4l6 2 3 1 8 3c7 2 12 5 22 11 6 3 9 5 13 5a45 45 0 0121 4l6 2 5 2 7 4 9 4c3 1 4 1 4 5v5l-1 2c-2 1-2 1-1 2a13 13 0 01-1 12c-1 3-3 2-4-1l-2-4-2-4-2-1c-3 0-3-2 0-3l2-1h-6l-4 1c-1 1-2 0-3-1l-2-1-1-1c0-4-2-2-3 2 0 4 0 4-4 4l-5-2c-2-3-4-3-4 1l1 5c3 1 0 7-4 8l-2 3-1 1-2 2-4 1-4-1 2-2 1-4c0-4 0-4-3-4-4 0-5-1-2-3l2-3 2-2c4 0 4-6 1-10-4-3-3-7 1-8l2-3c0-4-3-7-4-5 0 2-3 3-4 1l-2 1c-2 2-3 3-3 0l-1 1c-2 2-2 5-1 6 2 0 1 12-1 12l-4 3c-2 2-3 2-7 2l-6 1-2 3c-2 0-3 1-3 2-1 2-1 1-1-2 0-4-2-6-2-2l-1-3v-9l-1-3-1-4-1-2-1-7c0-6 0-7-2-7-3 0-6 3-6 6 1 2 1 3-1 3l-1-2c1-3-3-7-5-5v5l-4 15c-1 7-2 8-4 8l-1-2c0-2-1-3-2-3-3 0-3 0-2-3l3-3 1-1c0-2-5-1-6 1l-4 2-5 2c-3 3-7 2-8-1l-2-3v5a5 5 0 010 4c-1-2-2 0-2 4l-3 9v-11l2-5-3-1h-3c-1 1 1 2 2 1v2c-1 2-4 3-5 1l-2-2-1-1h-1l-1 5c0 12 0 20-2 27l-1 8 2-4c1-6 2-8 5-9 5 0 7-1 5-2h4c4 0 4 0 6-2 2-3 3-3 3 2 1 3 1 4-1 5s-3 2-3 4c0 6-4 8-6 2s-12-7-12-1c-1 6 0 8 1 9l1-2c-1-2 0-2 4-2s5 1 2 3l-2 7-1 6c-2 1-1 23 0 25l1 6v2c0-2 2-1 2 1s0 2 1 1c0-2 0-2 3 0l2 3 3 7 5 11 3 5 1 3 1 4 1 4 3 5 3 2v-3l1-2 3 2 3 3-4 1c-3 0-3 1-2 2l4 1c1-1 1 0 1 2v4h1l2-1 3-1c2-2 5-2 6 0l5 1c4 0 6 1 3 3l-2 2-2 4-2 4-2 3-3 3-5 5c-3 2-5 5-3 5l1 2 2 1c2 0 2 0 1 1h-3l-2-1-2-2c0-2-1-3-2-3l-2-1-1-2v-1c2-1 1-4-1-4v2c2 1 2 1-1 1l-3-1-1-2-1 2a2 2 0 002 3c-1 1-4-1-3-3 0-2 0-2-1-1l-2 1h-1l-1 1c-2-1-2-1 0 3 1 2 1 3 3 2 1-2 3 4 1 5v9c2 1 2 1 2-2v-1c0 3 2 2 2-2 0-3 0-4 2-4s2 1 2 4 3 8 4 5l3-1 3-1a4 4 0 014 5l-1 2 1 2 1-2 2-1c2 1 9 0 9-1l-5-2c-4-1-4-2-2-3h3c1 2 2 0 2-4l1-3 1-4c0-4 0-4 4-4l4-1h2v1c-3 0-2 1 2 5l3 3h17l16-2c0-2 16-3 20-1l4 2 2 1 5 2c4 4 7 4 10 1 2-1 4-2 5-1l2-1c0-2 8-1 11 1l4 2c2 0 1 3-3 7-6 5-10 7-17 7-6 0-6 0-6 2 1 1 0 2-1 3v6c1 2 2 5 1 6l1 4c1 0 2 1 1 4v14c0 7 0 7 2 7 3 0 8 8 6 8h1c3 0 3 0 3 4l1 4v4a7 7 0 003 8c0 2 2 4 3 4 2 0 2 1 2 4 0 4-2 7-3 6l-1 2 1 2 2 1-2 1c-2 0-2 1-1 6v4l-1 3-1 3c-1 0-2-1-1-5v-7l-1-4c0-2-1-3-3-1l-5 2-5 1v1l3 1c0 2-3 6-3 4-1-3-3 0-3 3l1 2-2-2h-3l-4 1c-3 0-4 0-4 2l-1 2-1-1c1-3-1-3-3-1v2l1 4c-1 5-3 7-3 2 0-2 0-3-1-2l-1-3c1-3 0-5-1-3h-7l-2-2c-1-3-2-2-5 3v-2l-1-4c-1-1 0-3 1-6l1-8c-1-3-1-3-1 1s0 4-1-2c0-5-1-7-2-7-2 0-2 1-2 7v7l-3 1-4 1c-1 1-2 1-2-1l-3-2c-2 0-6 4-5 4v1c-2 1-2 0-2-1v-2l-1 2c-1 1-1 2-2 1l-2 1c-1 1-1 1-2-2-2-3-2-3-2-1s0 2-1 0c-1-3-3-3-3 0-1 4-1 4 1 4h-2l-3 1c1 1-1 2-4 2l-2 1v1c-2 1-5 0-5-2a1 1 0 00-2-1l4 8v3l1 2 1 2 2 4 14-1 4 1h4l9-4 1 1c0 4 20 4 23 1 2-2 2-2 3 0 0 2 0 2 2 0h1c0 1 2 2 8 2h14a322 322 0 0036-2h17l6 1c1 2 4-2 4-7l2-4c1 0 1 3-1 8 0 2 9 3 26 2 8 0 9 0 7 3v2l2-1 4-1 4-1 16-1 16-1v6l-1 7v1l3 6c2 10 2 10 4 10l2 1 4 2c4 0 6 2 9 8l4 5c2 1 2 12 0 15l-1 6v4h-12l4 1c0 2 9 1 12 0 2-2 5-2 7-1 2 2 1 3-1 3l-39 3c-7 2-35 1-35-1l-4-1-4 1c0 2-7 2-55 2a5018 5018 0 00-90 1c-14 0-15 1-15 4 0 6-4 19-6 19a3 3 0 01-1-4l1-2-1-2v-5l-2 2c-2 3-4 4-6 1l-6-1-6-2c-2-1-2-1-2 1-1 3 0 7 3 7l2 3c0 2 1 2 4 2l4 1a18 18 0 01-21-7c1-2-3-9-5-10-3 0-3 0-3-4 1-3 0-4-1-4l-1-4-1-4v4l-1 4c-2 0-2 1 0 3l1 5 1 5 1 2v2c2 1 6 14 6 19 0 3 0 4-2 4-3 0-3 2 0 9 3 9 5 23 3 23l-2 4c-2 4-4 5-5 2-2-2-3 11-2 20v6h-4c-5 1-5 1-5-3l-2-8-1-8-1-6-1-9-1-7-1-4-1-3v-8a15 15 0 011-13l-1-3c-2 0-3-6-1-7h2l2-3c0-1 0-2 2-2a19 19 0 004 0l1-2c0-2 0-2 2-1l2-1c0-3-2-4-6-5-3-1-4-1-4-6l1-5a51 51 0 00-3-29c0-3 0-3-1 0l-1 6-4 14c-1 6-2 9-3 8s-1-1-1 1v4l-2 9-2 7-1-17-1-20c-1-1-1-2 1-3v-3c-2 0-2-1-2-4l2-6c1-1 2-5 0-5l-1 2-1-2 1-3c1 3 3 1 3-3 0-7-2-8-3-1-1 1-1 1-1-1s-1-2-4-2l-4-1h4c4 0 4 0 5-3 0-4 2-5 2-3v1c1-1 0-5-1-5-1 1-2-9-2-15l-1-3-1 2 1 6c0 5-1 7-3 3 0-3-2-2-2 2l-1 2-1 2 2 2 2 1-2 1c-2 0-3 2-3 5l-2 5c-1 2-2 3-1 4 1 2 1 2-1 2-3 0-4-1-2-2 1-1-1-6-2-6l-3-5-3-4v3c0 4-1 4-1-1 0-4-2-10-3-10l-1-3-1-4-2-6c0-3 0-4-1-3 0 2-2 1-2-1l-2-1-3 1-1 2-1 2c-1 0-2 1-2 3l1 3 1-2c0-1 0-2 1-1 0 1-2 7-4 9l-1 5c1 5 1 5-1 4l-2-1 2 3c2 1 2 2 2 10l1 12v4c-1 2 0 5 3 5v2c-2 1-2 3-2 4v6l-2 6c-3 1-3 3 0 3s4 2 2 7c-1 4-1 4-2 2 0-3 0-3-1-1-2 3-1 11 1 11s3 2 0 3c-2 1-3 13-1 13v1l-1 2c2 2 6-4 6-9 0-4 0-4 2-3 2 2 2 9 0 9l-3 3-1 4 1 1 1 2h1l3-2v4l-2 3h5c1-1 1 1 1 4 0 4 0 5-2 5s-2 1-2 4l-1 4c-2 0-2-1-2-3 0-5-1-8-2-7l-1 2-1 3c-2 0-3 3-1 3l2-2c2-3 2 0 1 7v10c1 1 1 1 1-2l1-3c2 0 1 7 0 9H7l-1-1v2l1 2 1 3-1 4-2 2 1 3v2l1 5h1c0-3 3-5 5-4l1 7c-1 5 0 10 2 7l2-1 1 1 3 2c4 1 4 1 5 6l1 5v-5l1-5 1-2 2-2 2 2 2 1 3 1c1 3 4 1 4-3l2-3 1 1c-1 2 1 5 2 4l1 2 1 3c1 0 2-4 1-5v-27l1 4 1 4 1-8c0-8 0-8 3-8 2 0 2 0 2 6 0 7 1 10 2 10 2 0 4 8 4 13 0 2 1 3 2 3l1 2c0 5 4 6 8 3 2-2 2-2 1-3-1-2-1-2 1-2a2 2 0 013 2c1-1-1-4-3-4s-4-3-2-4l6-2h6v-4l1-4v4c0 3 0 4 2 4s1 7-1 9c-3 2-2 3 4 4h11l4 1 3 1h3c1-2 3-2 5-1h13c1-2 3-1 3 0-1 2 0 2 2 1h24c2-2 8-2 10 0h4c0 1 8 2 8 0 0-1 15-1 16 1a1 1 0 101-1l-1-1c0-2 10-1 12 1h4l6-1h3c1-1 13 0 18 1h11c1-2 2-2 4 0 5 2 18 2 20-1h2c1 1 11 2 13 0h11c1-1 16 0 16 1h2l5-1h7l7-1h9c1-2 2-2 2-1h1v-1l-1-2c1-1 1-1 0 0-2 0-4-2-2-3 1-1 5 0 6 3 1 2 3 1 5-1 1-2 3-2 9-3 6 0 6 0 4 1l-4 2c-2 0-2 1-1 4h2c1-1 2-2 5-2 2 0 3 1 3 2-1 1 5 3 7 1h2l2-1 4-2h2v2h6c1 2 6 2 6 1l2 1 1 2 2-3 1-2v3c0 2 0 3 2 3l2 1 2 1c2 0 2 0 0-1-2-2 0-3 3-1h2a1 1 0 112 1l2 1 7-1h-1v-3l2 1h10c3-1 3-1 4 1s1 3 4 2c4 0 6-2 3-2l-2-1 1-1 1-2c0-4 2-5 3-1l1 2 1 1h1l1-4c-1-1-1-2 2-2h7c5-1 5-1 5 1s1 3 2 3c2 1 2 1 2-1l1-3 1 3v4l1 2v1l1-2c0-4 0-4 1-3 2 1 4 0 3-1l-2-1c-2 0-4-7-2-8h1l2 2c1-1 2-2 2-7 0-6 1-10 1-4 0 3 2 6 3 5l2 2c1 4 3 4 4 0l1-3 3 3 2 3 1-3 1-5 1-1 1-18-1-19v-16l-1-22v-3l1-20v-7c-2-1-2-5-1-7v-15l-1-6v-3c2-3 2-44 0-45v-2c2-1 2-2 2-15-1-14-1-17-4-17l-1-3c0-2 0-2 2-1 2 0 2 0 2-4l-1-5c-2 0-2-1-2-4 0-4-1-5-3-4l-1-8v-8h3c3 0 3 0 3-3a12 12 0 01-1-9c-2 4-4-5-3-24 0-6 3-6 3 0l1 4 1-4-1-4-1-12v-12c-2 0-2-4-1-9l2-11 1-9V168l-1-56v-3a27 27 0 000-19c0 3-2 2-2-1l-1-3v-1c2 0 2-3 1-10-1-3-1-3 1-2v-1c-1-1-2-6-2-21 0-3 0-5-1-4l-1-1 2-1c1 0 2-3 0-3v-6c0-2 0-2 1-1s1 1 1-1l-1-2-1-2-1-6 1-4v-1a8 8 0 01-1-7c1 1 1 0 1-3l1-4 1-2-2 1-4 1-9 3-4-1h-20c-2-2-26-2-28 0h-3c-1-2-3-2-6-2l-6 1c-3 0 0 2 4 2 5 0 6 0 5 2-2 2-11 1-12-1-2-1-3-4-1-4l1 1c0 1 1 1 3-1 3-3 3-4 1-2l-4 1c-2-1-3-1-3 1h-2c-2-2-2-2-2 0h-1c0-2-6-5-7-4M217 8c-2 1 0 24 1 24l1-12c0-12 0-14-2-12m75 0c-4 0-4 0-4 4v4h18v-4c0-3 0-4-2-4h-12m110 12l-1 4c-2 0-1 2 1 3 3 0 4-1 4-7 0-3 0-4-2-4s-2 1-2 4M4 46l1 7 1 3 8 28 2 9c0 3 0 4 2 4h8v-1l-2-2-1-2-1-10-1-10v-2l-1-5c-1-2-1-2 2-2 2-1 2-2 1-3 0-2 0-2 4-2 6 0 7-4 2-5-6-1-7-2-8-3 0-2-2 0-2 3l-1 3-1-1v-5c-1-4-1-4-6-3l-5-1H4m189 22c0 1-1 2-3 1l-4 1c-1 1-2 2-3 1l-1 1c1 1-2 4-4 4l-1 2 1 2 1 4c0 2 0 3-1 2l-1-1v6c-1 1-1 8 1 9 1 1 1 1 0 0l1-2 1 7c0 2 5 6 6 4 2-2 3-1 2 3 0 5 2 7 8 6 3 0 3 0 2 1-2 1-2 1 0 1l3-1c2-2 4-2 4-1h1l-1-1c-1-2-1-2 1-2a1 1 0 013 1l1-2 2-2 2-1 2-2a6 6 0 00-2-9v-2c-2-1-3-4-2-5v-2c-2-3-1-3 2-3l3 1-3-2c-2-1-3-2-2-3 0-2-3-4-4-3h-1l-2-3-2-4c0-2-2-3-2-1l-4-2c-3-4-4-5-4-3m260 28c1 1 1 1-2 3-4 3-4 6 0 6 2 0 2 0 1 2-2 2-1 3 2 2 3 0 6 2 4 3-3 1-2 6 1 8l5 4c1 2 3 0 3-4 0-3 0-3 1-2a6 6 0 0010 0c2-1 3-9 1-9l-3-2c-1-3-5-4-5-2s-3 3-5 2v-1l-1-2c-1-1-1-1 1-1 3 0 6-2 6-4h-4c-4 0-6-1-2-2 1-1-1-1-3-1l-8-1c-2 0-3 0-2 1M19 99c-1 3 0 5 1 5l1 4c0 3 0 4 2 4l1 4 1 4 1 4 1 4 3 4 2 4v-4l-1-4-1-4-1-4-1-6c0-5 0-6-2-7l-3-4c0-3-4-5-4-4m-18 9c-2 3-1 4 1 4l2 2-2 1c-2-1-2 0-2 2 0 1 0 2 2 1l2 1-2 1-2 1h1l2 1h4c2 0 3 0 4 2a1 1 0 102-2c-2 0-2-2 0-2l1-2c0-2-2-3-2 0-1 1-2 0-3-3-2-8-5-10-8-7m65 11l3 9v1l-1 2c0 3 6 0 7-3 0-2-4-7-5-6l-1-2c-1-3-3-4-3-1m-45 33l-2 27c-2 2-3 1-3-5v-4c0 2-3 2-3-1l-2-1-3-1c0-2 0-2-2 0l-1 6 1 2c1-4 2-5 6-3s5 3 3 5-2 2-4-2c-2-3-2-3-3-1l1 5 5 12 1-3c1-4 1-4 4-4 2 0 3 1 3 2s-3 2-3 0l-1 2v6l-1 3v4l1 9 1 8 1 7 3 15 1-1 4-3 3-2c0-1 0-2 2-3 2-2 2-3 1-8l1-8v-23h-6v-12l-1-20v-8h-3c-3 0-3 0-3-4l-1 4m41-5c-1 2 1 4 3 4l4 1c1 1 6 0 6-1 0-3-12-7-13-4m26 0l-1 3-2 3-2 4-2 3h2l4 1h1v-8a29 29 0 000-6m-36 5c-2 0-2 1-2 5l2 10c0 3 1 5 2 5l1-2c-1-1-1-2 1-2l1 3c-1 3 0 5 2 5v-2l1-2h1l3 1c4 1 4-1 0-3-6-2-7-4-6-6s1-2-1-1l-1-1v-2l-1-1h2l1-1-3-3c-5-1-3-3 2-2v-1h-5m11 5l-3 2v2h2c1-2 3 0 3 2h5c-1 2 1 5 4 5 2 0 1-3 0-4l-2-1-5-5-2-2c-1-1-1-1-2 1m68 11l2 4c2 2 3 3 5 2l3 1c1 1 0 1-2 1l-3 1c0 1 1 2 4 2 4 0 4 0 4-4s0-4-4-5l-4-1a9 9 0 00-5-1m341 8l-1 5c-2 0-1 6 0 7 2 1 4 0 4-2l1-2v-9c-1-5-4-4-4 1m-425-1l-2 6-4 22-1 13c1 6 1 7-1 9v3h9l-3-1c-3-1-4-3-2-3l2-9c0-6 1-8 2-9l1-3v-4l2-4v-3l-1-9c0-8-1-9-2-8m-47 4l1 4 2 4 5 8a9 9 0 014 6l1 1c1 1 1 0 1-2 0-4-8-19-11-19-1 0-2-1-2-3-1-2-1-2-1 1m80 3l-2 2-2 1 8 5 2 3c1 3 4 5 5 3v-2l-1-3c0-2-2-4-4-4l-3-1v-2c2 0 2-1 1-3-2-2-4-1-4 1m360 7c-1 2-2 2-3 1-2 0-2 0-1 3l-2 8c-3 8-3 10 1 11l2 2c0 1 1 2 3 2l2 1-1 1v2c3 2 5 0 4-3a4 4 0 010-4c-2 1-5-1-5-3l-2-2c-2 0-2-1-2-3s2-7 2-4h7c1-1 1-4-1-4l-2 2c-1 2-2 1-2-3l2-5c3-3 3-5 0-5-1 0-2 1-2 3m-314 9c-2 3-2 3 0 4 3 0 3 3 0 5-2 0-2 1-1 1v1c-2 1-2 2-2 3 1 3 3 2 4-1 1-2 1-2 2 0l1 2c2 0 2-4 0-8l-2-7-1-3-1 3m165 11h-8c-4 0-4 2 0 2 2 1 3 3 0 3v-1l-1-1-2 1-7 5c-10 6-10 6-12 15-2 11-1 22 5 36l2 6 2 4 2 3 2 2 3 6 1 4c1 0 2 2 4 10 3 15 5 19 6 19 1 1 1 24-1 31s-1 18 1 20l2 3 2 3c2 2 3 8 1 8l-1 4 2 13a50 50 0 004 23l2 4 1 4 1 4 2 3c1 2 1 2 4-4l4-5c2 0 5-10 5-15 0-2 0-3-2-3s-2 0-1-2c3-2 6 1 9 9l4 9c3 2 13 2 17 0l4-1h1l1-1c1 0 2-1 1-2 0-2 10-12 11-12h4l3-1h-3c-3 1-4-1-1-2l1-2c-2-1 1-4 3-3l5-1h2c1 1 1 0 1-2-1-4 2-9 4-7l1-2c0-1 0-2-1-1l-3-2c0-2-1-4-3-5l-2-2-6 2-14 2-9 1c0 4-4 5-6 3l-5-2-2-1h-12c-2 0-3 1-3 2h1c1-3 2 0 2 7l-1 8-1-5c0-4-2-11-4-11l-1-2-1-4c-2-3-3-13-2-16l12-13c3-1 15-1 15 1l10-5 2-5 2-4 1 2v9l1-1 1-2 1-4c0-3 0-4 2-4l1-2 1-2 2 9 1 3 1 2 1 3c1 2 1 8-1 9l-2 2h6v17c3 0 4-2 3-4-2-4 0-6 4-4l3 1-1-2-1-4-1-6-2-7-2-9-1-9-2-9c-1-4-1-7 1-7s2 1 2 3l2 5c1 1 2 3 1 4 0 1 1 8 3 11v3c0 1 1 2 2 1l1 1 4 4 4 4c0 2 3 3 3 1l4-3c4-2 4-3 0-3-2 0-3-1-6-7l-2-5-1-4-2-4-1-3c0-4 0-5-4-16l-3-13c-4-15-12-35-14-36l-3-3-1-4c-1-2-2-4-1-5l-1-6c-2-2-2-2-2 0l-1-1v-5l-4-8c0-4-1-4-3-4h-3l2 2 2 5c-1 1-1 1-1-1l-1-2-3-2c-2-3-5-3-4 0 1 2 1 2-1 0l-8-7-5-4-1-1-2-1-1-1-3-2-12-2-10-1h9a17 17 0 0112 1l4 1c1 2 4 2 4 0l-1-1-5-1 2-1c1 0 1-1-1-2-4-1-10-2-21-1h-8l9-1c11-1 13-2 6-2l-12 1m-16 15c-3 0-4 1-4 4l-1 3v-2h-1c-2 3-2 3 5 2h7l-5-1c-4-1-4-1 4-1h20c2-2 1-3-1-3l-3-1c-1-1-18-2-21-1m205 27v9c0 4 0 4-1 1 0-3 0-3-1-1s-1 2-1-2c0-6-1-10-2-6l-1 4c2 3 2 10 0 10l-2-1-1 4-3 6-2 8-3 8c-2 3-4 14-5 18l-1 8c-2 9-1 19 2 22l2 4 3 3 2 4 1 3 2 3c2 2 8 7 9 6l-1-3c-2-1-2-3-2-8s0-6-1-3c0 3-1 4-2 4s-2-1-1-6 1-5-1-7l-2-2 3-1c4 0 7-5 7-13l1-3 1-12-1-12c-1 0-2-2-2-5l-1-8v-3l1-4c0-4 0-4 1-2 0 3 2 6 3 6l1-4-1-4v-24l-1 3M52 284l-1 1-2 1-1 2-2 1c-5 1-7 4-2 3h4l-1 1-2 1 2 1 1 1 1 3c2-1 2 3 0 12v6c2 4 3 4 2-1-2-4-1-12 2-12 1 0 1-20-1-21v1m-7 36c-2 5-3 6-8 10-6 5-6 5-6 10s0 5 1-1c1-4 7-5 8-2 0 2-2 5-4 5l-1 3c0 2 3 3 3 1s1-2 5-2c5 0 9-3 8-6v-2l1 3 1 2 1-3 1-2 1-4-1-4-1-3c-1-3-3-5-4-4l1 2 1 3c0 2 0 2-1 0l-2-5-1-3-1-2-2 4m14 10a21 21 0 002 9c0 4 2 6 3 4v-3l-1-4c0-2 0-3-1-2 0 3-2 2-2 0a4 4 0 013-6l-1-1h-1c0 2-2 1-2-1v4m7 14l-2 3c0-2 0-2-1-1-1 2 1 6 3 6l1 2 1 2 1-6c-1-5-3-9-3-6m140 14c-2 3-2 7 0 7l2 2 1 1 1-4a5 5 0 00-2-6h-2m-83 23v2l-2 1c-1-1-1 0-1 8v8h-8v-4c0-4 0-4 3-4 2 0 2 0 2-4s0-4-2-4-3 1-3 2l-4 1-4-1-1-2v11a8 8 0 001 7c0-3 3-3 3 1 0 5 1 7 2 8l1 3v2l1-1c1-3 1-1 1 3l1 7c1-2 3 1 2 3l1 5c1 2 1 2 1-2s0-4 1-1l1 1 1-1-1 2v4l1 4 1 3 2 7 3 5 1-2c-2-5-2-6 0-3l4 2 2 3v3c1 2 4 7 5 6l-1-2-1-7c0-5-1-6-3-6-2-1-2-2-2-17l-1-16c-2 0-2-2-2-12s0-12-2-12l-1-6c1-6-1-8-2-5m117 10l2 1 1 4-1 4c-2 0-2 1-2 4 0 4 0 4-4 4s-4 0-4-4c-1-3-1 3-1 11l2 17 1 8 1 8 1-4 1-4 1-4c0-4 0-4 3-4s3 7 0 8h7l8 1c0 2 1 2 4 1 2-2 2-2 0-2h-2l2-3c3-3 1-8-2-10a31 31 0 010-23c0-3 0-4 2-4l1-4v-4h-6l-7-1c0-2-1-2-4-2s-4 0-4 2m-8 4l2 2 1 2 3 1c2 0 2 0 2-2l-1-3-2-1-2-2c-2 0-3 1-3 3m104 9h-1v-1c-1 0-2 0-1 1l-2 1-1 5c1 6 1 7 4 4 3-2 4-6 3-6v-1l2-2 1-2c1-1 0-1-1-1l-4 2m-96 44l-1 4-1 4c-2 0-2 2-2 8a20 20 0 004 14c4 2 5 3 3 4v6l1-2c1-2 4-3 6 0 3 2 8-1 8-5l2-4 1-3c-1-2 0-2 2-2l3-1-1-2-1 1-2 1-4 1c-2 1-3-4-1-7v-4l-1-3c0-3-2-2-3 0l-2 3v-3l-1-2-2-2c0-1 0-2-1-1-2 0-2 0-2-2s1-3 2-3c1-1 0-1-3-1l-4 1m-92 30l2 3 2 6c0 2 0 3 2 3l5-2-1-3c0-1 0-2-1-1l-1 2-1 2-3-8c0-2-3-3-4-2M55 600c-2 6-2 32 0 32l1 6c0 4 0 5 2 5l2-1v-1l-1-1c-2 0-2-1-2-4l1-4v-10c-1 0-1-1 1-2v-3c-2 0-2-1-1-1v-5c-2-3-2-4-1-6v-5h-2m20 6l1 5 2 8c0 4 1 5 2 5 2 0 2-1 1-4l-1-7c-1-6-3-9-5-7" fill-rule="evenodd" tabindex="-1" itemprop="bold"></path></symbol></defs><defs class="gradients"><g class="radial"><radialGradient id="-posters-1652403113260-radial"><stop itemprop="radial" stop-color="hsla(28, 38%, 15%, 1.00)" offset="0%"></stop><stop itemprop="radial" stop-color="hsla(28, 32%, 12%, 1.00)" offset="15%"></stop><stop itemprop="radial" stop-color="hsla(27, 36%, 10%, 1.00)" offset="30%"></stop><stop itemprop="radial" stop-color="hsla(27, 39%, 11%, 1.00)" offset="45%"></stop><stop itemprop="radial" stop-color="hsla(31, 40%, 11%, 1.00)" offset="60%"></stop><stop itemprop="radial" stop-color="hsla(30, 30%, 8%, 1.00)" offset="75%"></stop><stop itemprop="radial" stop-color="hsla(28, 32%, 10%, 1.00)" offset="90%"></stop></radialGradient><radialGradient id="-posters-1652403113260-radial-background"><stop stop-color="hsla(28, 38%, 80%, 1)" offset="0%"></stop><stop stop-color="hsla(28, 32%, 80%, 1)" offset="15%"></stop><stop stop-color="hsla(27, 36%, 80%, 1)" offset="30%"></stop><stop stop-color="hsla(27, 39%, 80%, 1)" offset="45%"></stop><stop stop-color="hsla(31, 40%, 80%, 1)" offset="60%"></stop><stop stop-color="hsla(30, 30%, 80%, 1)" offset="75%"></stop><stop stop-color="hsla(28, 32%, 80%, 1)" offset="90%"></stop></radialGradient><radialGradient id="-posters-1652403113260-radial-light"><stop stop-color="hsla(28, 38%, 60%, 1)" offset="0%"></stop><stop stop-color="hsla(28, 32%, 60%, 1)" offset="15%"></stop><stop stop-color="hsla(27, 36%, 60%, 1)" offset="30%"></stop><stop stop-color="hsla(27, 39%, 60%, 1)" offset="45%"></stop><stop stop-color="hsla(31, 40%, 60%, 1)" offset="60%"></stop><stop stop-color="hsla(30, 30%, 60%, 1)" offset="75%"></stop><stop stop-color="hsla(28, 32%, 60%, 1)" offset="90%"></stop></radialGradient><radialGradient id="-posters-1652403113260-radial-regular"><stop stop-color="hsla(28, 38%, 40%, 1)" offset="0%"></stop><stop stop-color="hsla(28, 32%, 40%, 1)" offset="15%"></stop><stop stop-color="hsla(27, 36%, 40%, 1)" offset="30%"></stop><stop stop-color="hsla(27, 39%, 40%, 1)" offset="45%"></stop><stop stop-color="hsla(31, 40%, 40%, 1)" offset="60%"></stop><stop stop-color="hsla(30, 30%, 40%, 1)" offset="75%"></stop><stop stop-color="hsla(28, 32%, 40%, 1)" offset="90%"></stop></radialGradient><radialGradient id="-posters-1652403113260-radial-bold"><stop stop-color="hsla(28, 38%, 13%, 1)" offset="0%"></stop><stop stop-color="hsla(28, 32%, 13%, 1)" offset="15%"></stop><stop stop-color="hsla(27, 36%, 13%, 1)" offset="30%"></stop><stop stop-color="hsla(27, 39%, 13%, 1)" offset="45%"></stop><stop stop-color="hsla(31, 40%, 13%, 1)" offset="60%"></stop><stop stop-color="hsla(30, 30%, 13%, 1)" offset="75%"></stop><stop stop-color="hsla(28, 32%, 13%, 1)" offset="90%"></stop></radialGradient></g><g class="vertical"><linearGradient id="-posters-1652403113260-vertical" x1="0" x2="0" y1="0" y2="100%"><stop itemprop="vertical" stop-color="hsla(31, 37%, 14%, 1.00)" offset="0%"></stop><stop itemprop="vertical" stop-color="hsla(30, 35%, 10%, 1.00)" offset="15%"></stop><stop itemprop="vertical" stop-color="hsla(29, 38%, 11%, 1.00)" offset="30%"></stop><stop itemprop="vertical" stop-color="hsla(32, 37%, 10%, 1.00)" offset="45%"></stop><stop itemprop="vertical" stop-color="hsla(28, 30%, 8%, 1.00)" offset="60%"></stop><stop itemprop="vertical" stop-color="hsla(29, 37%, 14%, 1.00)" offset="75%"></stop><stop itemprop="vertical" stop-color="hsla(28, 33%, 10%, 1.00)" offset="90%"></stop></linearGradient><linearGradient id="-posters-1652403113260-vertical-background" x1="0" x2="0" y1="0" y2="100%"><stop stop-color="hsla(31, 37%, 80%, 1)" offset="0%"></stop><stop stop-color="hsla(30, 35%, 80%, 1)" offset="15%"></stop><stop stop-color="hsla(29, 38%, 80%, 1)" offset="30%"></stop><stop stop-color="hsla(32, 37%, 80%, 1)" offset="45%"></stop><stop stop-color="hsla(28, 30%, 80%, 1)" offset="60%"></stop><stop stop-color="hsla(29, 37%, 80%, 1)" offset="75%"></stop><stop stop-color="hsla(28, 33%, 80%, 1)" offset="90%"></stop></linearGradient><linearGradient id="-posters-1652403113260-vertical-light" x1="0" x2="0" y1="0" y2="100%"><stop stop-color="hsla(31, 37%, 60%, 1)" offset="0%"></stop><stop stop-color="hsla(30, 35%, 60%, 1)" offset="15%"></stop><stop stop-color="hsla(29, 38%, 60%, 1)" offset="30%"></stop><stop stop-color="hsla(32, 37%, 60%, 1)" offset="45%"></stop><stop stop-color="hsla(28, 30%, 60%, 1)" offset="60%"></stop><stop stop-color="hsla(29, 37%, 60%, 1)" offset="75%"></stop><stop stop-color="hsla(28, 33%, 60%, 1)" offset="90%"></stop></linearGradient><linearGradient id="-posters-1652403113260-vertical-regular" x1="0" x2="0" y1="0" y2="100%"><stop stop-color="hsla(31, 37%, 40%, 1)" offset="0%"></stop><stop stop-color="hsla(30, 35%, 40%, 1)" offset="15%"></stop><stop stop-color="hsla(29, 38%, 40%, 1)" offset="30%"></stop><stop stop-color="hsla(32, 37%, 40%, 1)" offset="45%"></stop><stop stop-color="hsla(28, 30%, 40%, 1)" offset="60%"></stop><stop stop-color="hsla(29, 37%, 40%, 1)" offset="75%"></stop><stop stop-color="hsla(28, 33%, 40%, 1)" offset="90%"></stop></linearGradient><linearGradient id="-posters-1652403113260-vertical-bold" x1="0" x2="0" y1="0" y2="100%"><stop stop-color="hsla(31, 37%, 13%, 1)" offset="0%"></stop><stop stop-color="hsla(30, 35%, 13%, 1)" offset="15%"></stop><stop stop-color="hsla(29, 38%, 13%, 1)" offset="30%"></stop><stop stop-color="hsla(32, 37%, 13%, 1)" offset="45%"></stop><stop stop-color="hsla(28, 30%, 13%, 1)" offset="60%"></stop><stop stop-color="hsla(29, 37%, 13%, 1)" offset="75%"></stop><stop stop-color="hsla(28, 33%, 13%, 1)" offset="90%"></stop></linearGradient></g><g class="horizontal"><linearGradient id="-posters-1652403113260-horizontal" x1="0" x2="100%" y1="0" y2="0"><stop itemprop="horizontal" stop-color="hsla(26, 36%, 14%, 1.00)" offset="0%"></stop><stop itemprop="horizontal" stop-color="hsla(29, 34%, 12%, 1.00)" offset="15%"></stop><stop itemprop="horizontal" stop-color="hsla(30, 37%, 11%, 1.00)" offset="30%"></stop><stop itemprop="horizontal" stop-color="hsla(27, 39%, 11%, 1.00)" offset="45%"></stop><stop itemprop="horizontal" stop-color="hsla(29, 40%, 10%, 1.00)" offset="60%"></stop><stop itemprop="horizontal" stop-color="hsla(27, 28%, 8%, 1.00)" offset="75%"></stop><stop itemprop="horizontal" stop-color="hsla(32, 31%, 10%, 1.00)" offset="90%"></stop></linearGradient><linearGradient id="-posters-1652403113260-horizontal-background" x1="0" x2="100%" y1="0" y2="0"><stop stop-color="hsla(26, 36%, 80%, 1)" offset="0%"></stop><stop stop-color="hsla(29, 34%, 80%, 1)" offset="15%"></stop><stop stop-color="hsla(30, 37%, 80%, 1)" offset="30%"></stop><stop stop-color="hsla(27, 39%, 80%, 1)" offset="45%"></stop><stop stop-color="hsla(29, 40%, 80%, 1)" offset="60%"></stop><stop stop-color="hsla(27, 28%, 80%, 1)" offset="75%"></stop><stop stop-color="hsla(32, 31%, 80%, 1)" offset="90%"></stop></linearGradient><linearGradient id="-posters-1652403113260-horizontal-light" x1="0" x2="100%" y1="0" y2="0"><stop stop-color="hsla(26, 36%, 60%, 1)" offset="0%"></stop><stop stop-color="hsla(29, 34%, 60%, 1)" offset="15%"></stop><stop stop-color="hsla(30, 37%, 60%, 1)" offset="30%"></stop><stop stop-color="hsla(27, 39%, 60%, 1)" offset="45%"></stop><stop stop-color="hsla(29, 40%, 60%, 1)" offset="60%"></stop><stop stop-color="hsla(27, 28%, 60%, 1)" offset="75%"></stop><stop stop-color="hsla(32, 31%, 60%, 1)" offset="90%"></stop></linearGradient><linearGradient id="-posters-1652403113260-horizontal-regular" x1="0" x2="100%" y1="0" y2="0"><stop stop-color="hsla(26, 36%, 40%, 1)" offset="0%"></stop><stop stop-color="hsla(29, 34%, 40%, 1)" offset="15%"></stop><stop stop-color="hsla(30, 37%, 40%, 1)" offset="30%"></stop><stop stop-color="hsla(27, 39%, 40%, 1)" offset="45%"></stop><stop stop-color="hsla(29, 40%, 40%, 1)" offset="60%"></stop><stop stop-color="hsla(27, 28%, 40%, 1)" offset="75%"></stop><stop stop-color="hsla(32, 31%, 40%, 1)" offset="90%"></stop></linearGradient><linearGradient id="-posters-1652403113260-horizontal-bold" x1="0" x2="100%" y1="0" y2="0"><stop stop-color="hsla(26, 36%, 13%, 1)" offset="0%"></stop><stop stop-color="hsla(29, 34%, 13%, 1)" offset="15%"></stop><stop stop-color="hsla(30, 37%, 13%, 1)" offset="30%"></stop><stop stop-color="hsla(27, 39%, 13%, 1)" offset="45%"></stop><stop stop-color="hsla(29, 40%, 13%, 1)" offset="60%"></stop><stop stop-color="hsla(27, 28%, 13%, 1)" offset="75%"></stop><stop stop-color="hsla(32, 31%, 13%, 1)" offset="90%"></stop></linearGradient></g></defs><defs class="filters"><filter id="light-filter"><feColorMatrix in="SourceGraphic" type="matrix" values="1.5 0 0 0 0
                0 1.5 0 0 0
                0 0 1.5 0 0
                0 0 0 1.5 0"></feColorMatrix></filter><filter id="regular-filter"><feColorMatrix in="SourceGraphic" type="matrix" values="1.5 0 0 0 0
                0 1.5 0 0 0
                0 0 1.5 0 0
                0 0 0 1 0"></feColorMatrix></filter><filter id="bold-filter"><feColorMatrix in="SourceGraphic" type="matrix" values="1 0 0 0 0
                0 1 0 0 0
                0 0 1 0 0
                0 0 0 1 0"></feColorMatrix></filter><filter id="emboss"><feConvolveMatrix kernelMatrix="1 0 0
                      0 0 0
                      0 0 -1"></feConvolveMatrix></filter></defs><g itemscope="" itemtype="/settings"><use itemprop="background" href="#-posters-1652403113260-background" style="fill: url(&quot;#-posters-1652403113260-radial-background&quot;);"></use><use itemprop="light" href="#-posters-1652403113260-light" filter="url(#light-filter)" style="fill: url(&quot;#-posters-1652403113260-vertical-light&quot;); stroke: url(&quot;#-posters-1652403113260-horizontal-background&quot;);"></use><use itemprop="regular" href="#-posters-1652403113260-regular" filter="url(#regular-filter)" style="fill: url(&quot;#-posters-1652403113260-horizontal-regular&quot;); stroke: url(&quot;#-posters-1652403113260-vertical-light&quot;);"></use><use itemprop="bold" href="#-posters-1652403113260-bold" style="fill: url(&quot;#-posters-1652403113260-vertical-bold&quot;); stroke: url(&quot;#-posters-1652403113260-radial-regular&quot;);"></use><use class="emboss light" tabindex="-1" href="#-posters-1652403113260-light" fill="gray" filter="url(#emboss)"></use><use class="emboss regular" tabindex="-1" href="#-posters-1652403113260-regular" fill="DimGray" filter="url(#emboss)"></use><use class="emboss bold" tabindex="-1" href="#-posters-1652403113260-bold" fill="gray" filter="url(#emboss)"></use></g></svg>