<svg id="-posters-1652403098702" itemscope="" itemtype="/posters" itemid="/+/posters/1652403098702" viewBox="0 0 512 842" preserveAspectRatio="xMidYMid slice" tabindex="0" xmlns="http://www.w3.org/2000/svg"><defs class="symbols"><symbol id="-posters-1652403098702-background"><rect itemprop="background" width="100%" height="100%" tabindex="-1"></rect></symbol><symbol id="-posters-1652403098702-light"><path d="M0 421v421h240c191 0 239 0 238-1l-1-8-3-20-3-18c-2-14-5-24-6-24-1 1-1 11 1 17v6l1 5 1 8c1 6 1 6-1 6-5 0-10-13-10-24-1-8-1-10-4-11l-5-1c-8-2-8-2-8 7a7523 7523 0 014 48c1 9 0 9-16 9-18 0-18 0-16-4l1-5 2-5v-8c-1-3 0-15 2-26 2-8 2-12 0-13s-15 20-15 25l-6 17c-1 2-5 3-6 1-2-1-1-6 1-13 1-2 3-7 3-12l5-18 4-16 3-13 3-9c1-3 1-3 6-3s6-2 3-4l-4-2c-2-1-3-5 0-6 2 0 2-1 2-3-1-5 2-5 5 0 2 4 5 5 7 3 0-2 3-1 5 1 3 3 3 0-2-26l-4-35c-1-25-4-28-10-11-3 9-6 13-13 17l-3 3-3 3c-10 4-22 13-24 19l-5 7-3 3 2 3 5 4 3 3 1 4c1 1 1 1-1 2a126 126 0 00-36 41c-2 4-4 5-9 5s-7-1-5-4l2-3 5-5 4-4c0-1-7 4-13 10l-5 4-11 1c-13 0-14 0-12-6 1-3 1-3-2-4s-3 0 1-7l3-8 3-5 10-14 8-13 7-11 11-13c7-9 1 3-9 18l-8 13-8 12c-4 6-7 13-4 10l2-2 4-7 4-6 6-8a202 202 0 0011-17l9-13 3-3 9 2c10 3 13 2 13-3 0-2-1-3-4-5-9-5-11-14-4-17 4-2 10-9 14-17 6-10 7-12 11-15 6-5 12-19 9-21v-1c1-1 1-1-1-1l-2-2h2c3 2 4 0 4-21a134 134 0 00-8-49 388 388 0 00-7-31c-2-8-3-9-7-4l-9 6c-4 2-5 5-2 4 6-1 15-2 16-1l-3 4-4 3 1 5c6 30 7 57 1 66l-6 10a77 77 0 01-12 18l-4 6-4 5-4 5c-6 5-5 10 3 13 3 1 3 1-3 15-5 9-9 13-13 13-3 0-3 0-2 2l1 3c0 2-11 21-19 31l-5 7a692 692 0 01-32 44c-2 2-3 2-17 2l-17-1-1-7-1-13c0-8 0-10 5-18l3-6 4-7 3-8 4-7c8-12 7-11 14-27l4-12 3-12c7-13 7-14 7-18l-2-6c0-4 9-27 11-27l20 17 4 3 8-17c0-3 3-3 4 0l2 6c0 3 1 4 4 6 4 2 5 1 1-3-1-2-2-12 0-13l5 8c5 10 7 12 9 12s6-8 6-10 1-4 4-7l4-5 3-6c6-9 4-10-4-3-9 9-12 12-14 12s-1-3 2-6l3-4 2-2 1-11v-9l1 1 2 1 1-4-2-11-2-13-1-10c1-5-2-8-6-5h-3l-6-3c-3 0-4-1-2-1 4 0 7-3 5-4h-4c-3 1-10-1-10-2l-1-3v-4c-1-3 2-4 4-2 3 1 5 1 13-1l18-5c3 0 11-6 11-9s-1-3-6 1a17 17 0 01-8 5c-4 2-28 4-29 3v-1c2 0 1-1-3-5s-4-4-5-2c-2 2-3 0-4-7l-1-10-3-34c2-6 2-7 6-4 3 3 4 3 5 2 3-2 2-5-3-7-5-3-7-7-7-17-1-9 1-17 4-20l2-5 4-7c2-4 3-9 1-15l-1-3c1 0 3 3 3 5l2 4c2 0 4 3 5 5 2 3 5 4 7 1h5c9 2 17 1 22-5 5-4 5-8 2-18l-5-16a228 228 0 00-17-49c-3-5-3-6-6-6-4 0-4-1-7-7l-9-14-8-12-6-10-6-8-1-1a1 1 0 100 3c2 1 1 2-2 2-2 0-5 5-2 5l4 7c5 8 10 15 9 11v-4c1-2 11 18 14 32l4 10c2 3 3 6 2 8v2l-2-2-2-2-1 2c-1 1-1 3 1 6 3 5 3 10 0 10s-3 2-2 5c2 3 4 16 4 22 0 7-1 6-13-17l-5-9-2-5-4-7c-4-8-3-12 2-6l4 3c2 0-3-6-17-20a324 324 0 01-23-25c-2-3-3-4-2-7l1-3-4 1c-6 1-10-9-4-14 3-4 13-8 17-8 3 0 3 0 2-2-2-2-1-4 7-8a517 517 0 0018-12l7-5 5-4 1-1 1-2 1-2c0-2-5-3-7-1l-4 2c-3 0-3 0-2-3l1-4c-1-2 2-6 3-5l3 1v-3c-1-1-2-2-2-5 0-6-1-7-5-1-5 7-6 11-6 14 0 4-4 11-7 15l-15 8c-1 0 1-6 5-12l9-15 4-6c2 0 4-4 3-4-2-1-4 0-5 3 0 2-1 3-2 3s-7 6-10 11c-4 3-5 2-4-5l5-8c4-5 8-9 11-15l6-9 6-10c3-7 11-18 12-18 3 0 6 3 4 5-2 3-1 5 1 5l3-2c0-2 1-3 2-3 2 0 3-2 5-5 6-11 12-15 13-7l4 6c2 2 3 4 2 5l1 4c2 2 2 2-1 5l-3 3-3 4c-3 4-2 6 7 9 11 4 11 4 7 12-2 6-2 8-1 9 1 3 1 3-2 3l-4 2c-1 1-2 2-5 2-5 0-4 2 2 5 4 2 9 1 9-1l1-3c2-1 4 1 4 4l7 9 7 8 3 1c4-1 7 1 4 4h-1l-1-1c-1 0-1 4 1 5l1 2 1 1v-1l1-2 2 3 1 3c2-1 3 2 2 4v3c1-1 4 2 4 4l1 3 1 4c-1 3 0 4 1 6 3 2 2 3-10 5l-12 3-30 3c-11-1-15-10-17-42-1-17-2-19-6-19s-5 10-2 13l2 6c0 12 4 28 9 37l1 5c-1 3 4 14 6 14 1 0 2-1 2-3 0-6 11-11 26-11h13c4-1 9 2 9 6l3 6c3 5 5 11 6 22l2 13c2 6 2 15 1 15l-3-4-1-3-1 6c0 6 1 15 4 25l1 7c-1 2-9 3-12 2-2-1-2 0-3 3-1 5-1 5 9 7 11 3 17 10 20 23l2 8 2 12a106 106 0 004 18l2 5c1 3 1 3-1 5-12 8-26 6-29-3-2-4-3-2-3 4l1 5-5 2c-6 2-15 2-17 1l-1-4v-5l-1-5-2-4-2-3c-2-4 2-6 11-6 5 1 7 0 7-1l6-2c6-2 9-4 9-7 0-2 0-2-10-2a777 777 0 01-38 2c-12 1-14 0-14-9 0-11 0-11-2-11-3 0-3 3-2 10 1 5 1 6-1 7-2 3 2 8 7 8 13 0 18 1 18 4l1 4 3 10a74 74 0 0013 33c2 3 4 4 7 2l14-4 3-3c0-4 2-6 8-7h7c1 2 9 2 11 0l6-2c2 0 3 0 3-2 0-3 6-13 7-13 3 1 3 30 1 39l-2 7c-2 5-3 6-5 4-4-4-5 1-3 9v6c-2 2-2 6-1 15l5 27 2 11 2 16c2 9 2 17 1 18s-4-1-4-4l-1-6c-2-3-3-8-4-14l-4-23-4-23-1-2-1-3-1-5-2-5-3-5-2-6-2-5-1-6c0-10-4-16-5-9-1 6-1 7 2 15l3 7 2 7c3 9 3 12 4 24 0 12 0 15 5 28l3 8 1 5 5 17-3 2c-3 1-2 4 2 3 3 0 6 5 6 13l2 8 5 18c1 7-2 5-5-5-4-13-7-13-5 0l-1 12c-3 3-2 5 3 5s5 0 5 3c0 6 2 13 7 17l5 10c0 5-1 3-2-2-1-3-5-6-6-4-1 0-1 3 1 7l1 7c-1 2 0 9 1 12l2 6c0 5 1 8 3 7l3 3c1 2 1 3-1 3l-1-2c-3-8-3 6-1 15l1 8 2 9 1 9 2 10 5 30 5 24 5 20 2 11c3 5 3 6 1 6-1 1 4 1 10 1a23 23 0 0015-2l2 1V0H0v421m0 1l1 420L0 1v421M155 2c-2 1-3 2-3 7l-2 9c-2 8 0 16 7 25 4 7 4 8-1 8l-5-1c-4 0-8-10-6-15v-9c0-2 0-2-2-1s-3 6-1 8c2 1 1 2-2 2s-5 1-11 8c-8 8-8 8-7 13 0 5-1 5-9 6-13 2-18 8-5 8h8c1 2-6 21-8 21l-1 1 1 1 2 2c1 4 7 5 13 3l6-2c2 0 11-9 11-11l2-6c2-3 2-4 1-6v-3l2-4c0-3 0-3 2-2 3 1 4 7 1 10-1 1-2 3-1 4v4c1 3 0 3 10 2l8-3c3-1 3-1 2-3l-4-1c-3 0-9-3-9-5l6 1c9 3 14 3 10-2-1-2 1-5 5-7l3-1 2-1 4-2 8-4c5-3 6-3 6-7 1-7-1-8-6-5-8 3-9 2-3-3l5-6c0-3-9-9-11-8-4 1-12 8-11 10 0 2-1 2-3 1-3 0-8-6-8-8l1-2c0-1 10-7 12-7v2l2 1c5 0 0-9-12-19-2-3-6-4-9-3m47 9l-5 4-7 7 6 6-1-2 1-4 2-3c0-3 2-2 3 2v4c1 1 3 1 4-1l4-8 1 4c1 4 3 5 7 3 3-2 4-3 1-4l-2-4c0-3-1-4-2-4l-2-2c0-4-5-2-10 2m-65 4v5c1 3 3 2 5-1 2-5-1-8-5-4m67 22c-3 2-2 11 2 11 3 0 5-2 5-6 2-5-1-7-7-5m15 21c-6 4-5 3-4 6v6l1 12a62 62 0 001 16l1 2c1 0 2-2 2-5l1-3 1-5v-7c1-2 1-3-1-5-4-3-4-4 0-5 5-3 11-9 11-13l-2-1h-1c2-1 1-2-2-2s-5 1-8 4m29 0l-5 2c-6 0-9 1-9 3l-2 3c-2 0-3 2-3 3l-1 3 1 10v12l1 7c2 4 3 12 1 13l-1 3c1 1 0 3-1 5v6c-2 0-2 1-2 3l-2 4c-1 2-1 2 1 3 4 3 5 10 1 8-2 0-2 0-2 3 0 2 0 3 2 3 0-1 1-1 0 0l1 1-1 2-13 1-9 1 1 3 20 3c1 2 3 9 2 10l1 5 1 10c0 5 1 6 2 7s2 2 1 5c-1 6-2 7-6 7l-9 2-19 6-4 3c0 2-1 3-3 3l-2 1c1 3 16 1 27-3 16-5 20-5 20 2 0 5 6 7 19 5 15-2 29-12 17-12-3 0-2-2 1-2s4-1 4-7c2-16 2-18 1-20-3-3-2-9 0-11l2-4 1-4 2-5c0-3 4-8 6-8l1-1 8-9 8-9c-1-2-2-2-11-4l-7-2-5-1c-5 0-16-4-20-8l-4-3 1-14 2-21c2-10 2-11 0-11-3-1-4-3-4-8s-9-8-11-4M77 66c-2 4 6 7 14 6 5-1 8-5 4-6H77m51 1c-1 2 2 3 8 3 7-1 7-2 1-4-7-1-9-1-9 1m149 6l-3 5-1 6c-3 8-2 9 4 9l8 3 13 5c3 1-6 1-11-1-6-1-11 6-9 12 1 3 1 4-1 4-7 0-5 6 3 7l5 2c2 2 11 1 11-2l4-4 5-2v2l3 3c4 2 7-1 10-8s2-8-3-7c-6 1-9-2-5-6s2-18-3-16c-2 0-3 0-4-2l-4-2c-1 0-4-1-5-3-3-1-4-2-6-1-3 0-3 0-4-2-1-3-3-4-7-2m-102 5l-5 5-6 4-3 1c-5-2-8 3-3 5 4 1 6 1 7-2 0-2 3-4 13-10l2-3h-5m147 12c-2 2-2 2-1 8l1 7 2-4c5-9 8-10 6-1-2 6-2 8 2 4 6-8 6-13 2-13l-4-1c-1-2-5-2-8 0m26 0l3 4 4 6 3 2c5 0 5 1 3 4-1 3 0 6 2 6l3 6 2 6 4 3 2 2 5-3c7-5 6-8-1-4-5 2-6 0 0-3 4-2 4-4 4-5 0-4 4-5 8-2l7 1c2-1 5 0 7 1 4 2 4 2 4 0l-4-3-4-2-2-4-4-4-6-4c-4 0-6-2-8-4l-4-2c-3 1-8 6-8 7l-4 2-2-3c-1-3-3-4-4-4l-3-2c-2-2-7-3-7-1m-200 4c-7 2-8 11-1 14 3 1 5 3 12 10l8 7 8 7a42 42 0 0014 9l6 2-1-2-1-2-1-1c-1-1-1 0 0 0l-1 2c-2 0-6-4-5-5l-3-5-3-4-3-2c-1 0-3-2-4-5s-3-6-5-7c-1 0-3-2-3-4-1-3-3-3-3 0s-4 5-6 3c-2-1-2-2 0-4 3-7-1-15-8-13m34 7l-3 3h3l5 3 4 1c2 0 2-2 0-2l-1-3c1-1 0-2-2-3-4-2-4-2-6 1m-58 0h-8c-3-1-7 0-7 2l-2 9-8 36-6 20-2 9-3 11c-3 13-2 18 1 9 2-5 5-6 6-2 3 8 4 8 6 6s8-17 8-20l2-5 3-6 4-8c3-6 5-11 6-19l2-7 2-6 2-6c3-2 4-5 6-21 0-5-2-5-12-2m217 4l-3 7c0 2-1 3-3 3-5 1-5 6 0 8 3 1 3 1 7-3l5-6 2-3c2-2 2-2 1-6-3-5-4-5-9 0m-123 6c1 11 3 20 4 20 2-1 2-7 0-14l-2-10c-1-8-2-5-2 4m-79 4l-2 8 1 3c2 0 5-4 5-6 1-2 2-2 3-1l4 1c1-1-8-11-10-11l-1 6m12 8c0 2 2 5 5 8l2 5c-1 2 1 2 3 0 2-1 2-2 1-3v-3l-2-3c-2 0-3-1-3-2s-1-2-3-2c-3-2-3-2-3 0m113 12c-1 1-3 6-3 10l-4 10-2 5c1 1 0 2-1 3-2 1-2 2-2 4v4l-2 7c0 5-2 13-3 14l-1 6v4h12l-1-11 1-13 3-7c0-3 1-4 2-5 1 0 2-1 2-3l1-5c1-1 0-3-1-3-2 0 0-10 2-16s0-8-3-4m-23 1c-1 2 0 16 1 20 1 2 2 2 4 2s2-1 2-5c0-16-3-23-7-17m-75 2c-2 2-2 3 3 4l3 2h4l-6-6c-3-2-3-2-4 0m160 6l-12 21-3 3a1 1 0 000 3c2 0 9-8 9-10l2-2 4-5 6-8c3-4 4-5 3-6l-1-2c0-4-5-1-8 6m-180 5a87 87 0 01-6 10c-2 3-3 7-2 9l-1 1c-1-1-3 5-2 7 0 2 0 2-2 2-2-1-3 0-2 1l-1 3-1 2-2 1-2 3-1 3-2 4-1 2c-1 0-2 5-1 6l1-1 2-2 1-2 3-4 3-5 3-6 3-5 1-1 6-11 3-6c3-2 7-10 7-11h-1c-1 1-1 1-1-1-1-3-3-3-5 1m23-1l2 2 1 3 1 1 3 3c0 2 3 6 5 8l4 6 3 1 1-2-2-6c0-4-1-5-12-13-5-4-6-5-6-3M45 166l-1 2 1 1 2 5 1 5a3 3 0 004 2 1 1 0 112 1l1 1 2-4c0-3 0-4 1-3 3 0 2-1-1-3s-3-2-3 1c-1 1 0 2 1 3 2 1 1 1-3 1l-1-1v-3l-1-6c1-5-1-5-5-2m168 3c-1 2-3 3-6 4-7 2-12 8-13 15-2 13-2 18-1 18s2-3 2-7c0-5 2-8 4-12l2-6 2-1 3-2c0-2 4-5 6-5h2c2-2 5-1 6 1l1 1c0-3-3-9-5-9l-3 3m-38 2l2 3 2 4c0 2 8 9 9 8v-3c-6-6-7-7-7-9l-2-3h-4m-105 7c-3 3-3 4-2 6 1 3 3 3 4 0l1-2c1 0 3-6 2-7 0-2-1-1-5 3m112 16c-7 4-17 16-16 18 3 1 2 2 0 4l-3 2-3 3-2 3-1 2-3 6c0 4-3 9-4 9l-10 13c-2 4-2 4-1 5 3 1 5-1 7-4 3-5 5-5 7-1 2 2 2 2 4 0 3-2 4-7 1-7-2 0-1-2 1-2 1-1 2 0 3 2s15-10 15-11l-2-1c-4 1-2-1 3-2 5-2 6-4 3-4l-5-2-3-1c0-3 3-4 6-3 5 2 9 0 9-5l-1-4v-6c3-16 2-19-5-14m-20 8l-1 1-2 3-3 6c-4 6-3 9 1 4 3-4 7-16 6-16l-1 2m88 7c-7 4-8 5-5 5l3 1c0 1 6 3 10 2s5-3 3-8c-2-4-4-4-11 0m-114 11l-2 4-3 5c-3 3-5 8-4 9l9-10c1-3 3-5 4-5 2-1 1-5 0-5l-4 2m-68 8l-2 3-1 1-2 3-4 7c-9 12 0 32 18 42 8 4 22 5 27 2l8-5 2-3 3-6c3-4 3-6-1-6-8 2-19 2-22 0a11 11 0 00-7-2l-5-4-2-4 3-4c7-7 6-6 4-7-3-1-3-3 0-5 2-2 3-6 2-6l-3 3c-4 2-9 2-9 0l-3-4-3-5c0-2-1-3-3 0m117 5l-3 3c0 4 1 4 6 0a20 20 0 017-4c1-1-6-1-10 1m-66 14l-3 5 3 2c3 4 4 4 4 1l1-2 1 2 1-1v-3l-2-4c0-5-1-5-5 0m121 12a702 702 0 00-6 32l-2 10-2 7-1 5-2 9c-2 5-2 5-5 5-4 0-7-3-8-7-1-3-2-4-4-2-2 3-3 2-2 0 0-2-5-10-7-11l-1-2a2 2 0 10-3 1l6 11c2 1 1 5-1 5h-2v2l4 1c4 0 5 1 5 6 0 4 3 8 8 9l4 1 5 2c5 1 5 1 4 4 0 4-8 13-13 17l-6 7-3 5v2l-1 2-3 5c-3 6-5 8-7 7-1-1-1-2 2-5 5-8 7-15 5-16-1-1-2-2-1-3 0-2-1-3-7-4h-7c-2-1-2-1-2 4l-1 14c-2 31 0 59 5 60 4 2 12 1 15-1 4-3 7-4 7-2 0 3-10 10-16 11-3 1-5 3-3 5l1 3 2 4c2 2 2 3 1 3s-4-2-7-7c-3-4-8-4-6 0 1 3 2 4 8 10l9 10a36 36 0 008 7l11 12c2 0 1-2-1-6l-4-3c-1 0-5-4-5-6l1-1c1 0 3 1 8 7l5 3c4 0 4 1 2 5l-2 19c0 4 4 13 6 13v-2c-2-2-1-8 1-9 1-1 1-2-1-3-2-2-2-3-2-7 1-5 2-6 6-3l6 3c3 1 3 3-1 8-3 5-4 13-2 13s4-2 4-4l2-2 1-2c-1-1 0-2 1-3s1-1 12 11l9 7c3 0 4 3 2 4l-2 1c0 2 6 10 9 13 3 2 4 4 4 8v4l-5 1c-2 2-5 3-5 2l-2 1-4 1c-3 0-4 1-6 3l-4 3c-3 1-2 3 0 2h4l2-2c1-3 2-4 4-2s3 12 1 16v4c4 1-1 6-7 6-4 0-5 1-5 3s0 2 10 0c3 0 5 2 1 4l-2 2-2 3-2 3c-1 3-7 2-7-2l1-4c2-2 1-2-6-3l-6 1 2 3-1 2-3 3c-1 2-6 3-6 1l2-4 1-4 3-5c4-4 4-5 2-6-1-2-1-2 2-4 2 0 4-2 3-2 0-1 3-5 5-5l1-2c1-5-1-3-9 5l-25 21c-3 2-4 5-2 6l2 4c1 3 1 3 6 3 3 0 4 0 3 1l-3 1c-3 1-2 3 1 4l3 2 3 1 2 1 2 1c2 1 2 1 2 3-1 3 0 3 2 3 3 0 3 0 3 2l-1 2-2 1s-2 1-2 3c-1 2-2 3-10 3-6 1-10-3-5-4 4-1 5-4 2-6s-4-5-2-5 3-1 2-4c-1-1-1-2-2-1l-1 1c1 3-2 3-4 1-2-3-2-3-1-5 2-3 2-3 0-6l-3-1h-1l-3 1-12 14-4 4-2-3c-6-7-5-8 15-28 38-39 51-52 47-52l-4-2-2-2-6 4-11 7a792 792 0 00-37 21c-1 2-4 2-6 1-2-2-2-2-3 2-1 3-8 9-14 12-2 0-6 2-9 5l-10 6-6 4-5 3-17 12-1 4c1 3 0 4-3 7s-5 8-4 8l14-8c14-12 38-26 26-16a94 94 0 01-28 20c-6 5-10 7-12 7-3 0-3 0 5 16l9 15c2 0 9-7 27-24 30-31 30-30 31-20 0 5-1 7-8 15l-2 2c0 2-13 17-24 28-8 9-10 11-9 12 1 2 0 2-3 5-3 2-4 3-3 5v8l12 1h75v-3a4 4 0 018 0c0 2 8 1 10-1 3-2 2-4 0-4-4 0-4-3 1-13l8-19 2-5a344 344 0 0023-50 466 466 0 0013-30c2-3 1-5-4-10-6-5-3-10 4-5 3 2 6 2 5-1l2-3c4-5 4-19-1-39a1528 1528 0 01-10-43l-2-4c1-4 1-4-12-5s-15-2-16-4c-1-3-5-8-7-8s-3-5-3-11c0-5-3-9-6-9l-2-1c-2-2-3-1-3 1 1 2 0 5-1 5l-1-2-5-5-5-5v-3l-2-2-4-3-6-3-2-2-3-1-3-2-2-5-3-3h-3c-3 1-4 4-1 6 2 1 1 2-3 2l-2-1v-6l1-5c6-1 13 1 15 5 1 2 3 3 6 4l6 3 4 2 12 9 11 7c1 1 2 0 2-3s0-3-1-2c-3 4-14-5-14-11l-3-1a4 4 0 01-4-4c-2 0-4-9-3-12l2-12c1-12 4-23 6-27 2-2 4-17 3-18 0-2 2-2 3 0h3l4-9v-3l1-4 1-4c0-2 0-2 3-2h11c15-3 17-4 18-5 0-3-3-7-5-7-5 2-12-4-12-11l-3-3c-2-3-2-5 1-5s3-4-1-12l-4-8-2-6-5-11c-2-6-4-7-4-4m24 0l4 15 2 7 4 18 2 7 3 14c0 7 5 10 5 3v-3l3 3 3 5 2 7c3 7 3 9 0 11-6 5-8 8-10 11s-3 4-5 1c-1-2-4-1-8 5a19 19 0 01-12 8c-4 2 0 13 9 22a36 36 0 017 11v7l1 7 2 10 2 6c0 4 0 4 4 4 7 0 15-11 19-25l2-9c1 0 2-4 2-9 2-9 7-21 11-25 2-2 3-4 3-7s1-3 5-4c3-1 4-2 2-2-1-2-2-6 0-10 0-3 0-3-2-3s-2 0-2-5c1-5 0-6-4-13l-6-11c-2-3-5-4-13-2h-10l-3-1c1 1-1 6-3 6l-3-7c-1-7-2-12-4-15l-3-8-2-10-4-13-2-8-1 2m-162 30l-6 2c-5 0-6 1-6 3l-1 5c-2 1-4 11-4 16 0 2 21 23 29 28 5 4 17 9 22 11 4 0 9-2 11-7l4-7c5-5 4-17-1-22-2-3-4-4-4-1-1 2-8 1-11-3-3-2-9-2-12 0-5 4-12 3-16-1-3-3-3-3-3-14 1-11 0-12-2-10m60 30c-1 2 0 9 2 12l1 3c0 2 15 18 17 18l2-1 1-1 1 2c0 2 1 3 3 4l9 3c5 2 9 2 11-1v-3c-1 0 0-2 2-3l2-3c0-1-7-3-9-2-8 1-12 1-14-1s-5-3-5 0h-2c0 3-4 2-5-1 0-3-1-4-3-5l-2-2-1-3-2-3-2-3-3-7c-1-4-2-6-3-3m-135 2a214 214 0 00-13 17c-4 5-5 20-2 23l2 2 5 5c6-10 7-13 5-16-3-4-3-14-2-15 7-5 12-14 11-16-2-4-3-4-6 0m196 9l-2 1c-4 0-4 1-3 5 2 4 11 5 11 0-1-5-4-8-6-6m23 9l-2 6c1 4-2 10-4 13-2 1-3 5-4 7l-4 12-3 14-3 10c-4 7 0 20 7 20 3 0 4 1 4 4 1 5 3 8 6 10s3 2 5-6c2-11 1-22-3-21-2 0-3-2 0-3 2-1 1-3-1-5l-2-2 2-11 4-11 5-21c0-5 3-10 5-11 2-2-1-6-4-6l-3-1c-1-3-3-2-5 2M54 356c-3 4-3 18 0 21 1 2 6 2 9 0l5-1c5-1 6-2 7-7l1-6c2-3 0-6-2-3-1 2-7 3-8 1l-3-1-4-2c-2-3-4-4-5-2m89 13c-1 3 0 14 1 16 2 1 4 12 5 21l2 6 1 8 1 12 1 14a56 56 0 003 17l3 12c3 4 3 5 2 9-1 8-3 8-6 0-2-7-4-8-9-3l-8 6-1-1c0-5-10 3-10 8l-2 3-2 4-2 6-2 7-7 17-8 16c-2 4-5 8-7 8l-2 2-3 4c-3 3-3 3-3 12l1 8c1 0 12-11 19-20l8-10 7-8a1865 1865 0 0119-23l10-12c16-16 22-23 16-22-2 0-2 0-2-3l-5-27-5-21-3-14-3-15-2-9a350 350 0 00-4-29l-3 1m291 18l1 4c1 2 3 10 2 11l2 8 2 8c1 6 1 7 2 6 7-2 3-23-5-36-4-6-4-6-4-1m-175 31c-4 1-5 5-4 16v13l1 6v4c-3 1 0 12 3 12 4 0 4 1 0 3-6 3-3 4 13 4l11 1-1-5-2-10-3-14-4-9-1-4c0-5-3-9-8-11-4-1-4-1-2-2s3 0 3 1h2c1-2 1-2-1-4s-3-2-7-1m-90 10l-2 8a165 165 0 006 25c0 4 3 10 5 9l4 2 3 2c3 0 4 2 3 5v3l1 4c0 3 1 4 2 4l1-2c-1-2 0-2 4-1s7 3 17 11c5 4 7 5 6 3l-1-2-13-12-19-18c-5-4-6-7-7-11l-3-8c-2-5-3-10-3-19-1-9-1-10-4-3m-36 0l-5 3c-1 1 3 6 4 6l2-1c2 0 6-7 6-10-1-3-2-3-7 2m-67 3l-3 6-4 8c-3 3-4 7-2 6a45 45 0 008-13c2-1 4-7 3-7h-2m55 12l-15 11a504 504 0 01-26 18c-4 3-6 6-4 10l2 4 3-2 3-3 1-3a30 30 0 0114-14 1683 1683 0 0122-19c4-3 4-5 0-2m20 4c-1 2-3 5-5 5l-2 4-1 4-1 2-1 2-2 4-5 9a31 31 0 00-5 9l-2 2-2 6-2 7-2 5-1 3-3 6-4 5-5 10-6 11c-1 2 0 8 1 8l8-15 4-8 3-8 4-7 2-3 1-3 3-3 2-4 8-15 4-6 7-14 1-3 3-7c2-10 1-13-2-6m209 3c-3 4 7 12 16 12l5 1-1-5c0-6-1-7-8-7l-9-2-3 1m-172 40l-7 7-4 6a58 58 0 00-12 17l-6 6-11 13-8 11-5 5c-3 1-4 2-3 3l-1 2-3 4-4 7c-4 6-3 6 2 1 8-9 15-17 16-20l3-2 2-3c2-3 5-8 15-17l8-9 4-4 6-5 1-2c1 0 2-1 2-3l2-3c2 0 8-5 8-8 2-9 2-10 0-10l-5 4m276 53a142 142 0 005 29l6 24 5 27c2 6 3 9 6 8 4-2-2-29-7-34l-2-6-2-8-4-14-4-18-1-4-1-4h-1m-258 12c-5 5-13 24-11 26 1 1 3-3 4-9 1-5 2-8 7-13 5-8 6-10 0-4m113 30l-1 6c-1 4-1 4 2 8 5 7 6 7 6 1a35 35 0 00-4-16c0-3-2-2-3 1m169 18l1 9c1 13 3 17 6 17l1-2c0-4-4-17-5-18l-1-4-1-3-1 1m-235 25c0 4 0 5-2 6-3 1-3 4-1 3l5-1c2 0 3-1 3-3l1-3c2-3 0-6-3-6s-3 0-3 4m241 3c-1 1 1 18 3 21l1 5 2 5c1 2 1 2 1-1l-1-13c-1-5-2-10-1-11 0-3-3-8-5-6m-8 7l1 8a347 347 0 015 30 256 256 0 005 30c5 26 6 32 8 32s1-7-2-22a169 169 0 01-4-27l-4-20c-3-24-4-26-6-29s-2-3-3-2m-265 19c-2 2 3 6 7 6 3 0 6-4 5-5-1-2-5-3-5-1h-7m145 52c-5 6-9 14-7 14s10-12 10-15c0-2-2-1-3 1m34 13v2l-2 2c-2 1-3 2-4 5l-6 9-6 9a124 124 0 00-12 31c0 2-2 3-3 1-1-4-3-2-4 5l-4 12c-5 8-6 11-3 15 4 8 12 3 18-10l3-7 5-13 4-11 1-5 3-6 2-6 2-5c6-7 9-19 8-23-1-1-1-2 1-2a3 3 0 10-3-3m8 23l-1 5-2 5-8 21a57 57 0 01-6 16c-3 6-5 6-5 1 2-9-1-6-9 13-4 10-3 12 1 8l3-3 1 3c1 3 6 6 8 4a121 121 0 006-21l2-5 1-6 3-11 4-17c4-11 5-19 2-13m99 24c-2 1 0 7 4 18a48 48 0 015 13l4 8 2 7v-6c0-5-5-22-9-29l-2-7c-1-5-2-5-4-4m3 50l1 5 1 2c-1 2 2 8 4 8s2 0 0-4l-2-5-1-3-1-4-1-4-1 5m-159 8c1 5 1 6 4 9l4 4 19 1 20-1-4-3-10-7c-6-6-8-7-23-8h-10v5" fill-rule="evenodd" tabindex="-1" itemprop="light"></path></symbol><symbol id="-posters-1652403098702-regular"><path d="M0 415v415l1-11c0-16-1-15 11-15 8 0 11 1 13 2 1 1 5 2 12 2 12 1 14 2 14 4 0 1 2 2 8 1 8 0 3 2-6 3-11 1-18 6-9 8 8 1 12 2 11 4l1 1h3c2 2 5 1 5-1-1-1 3-2 4 0l3 1 7 2h7c3-2 8 2 5 5v3l-2 1-4-2c-1 0-3 0-4 2l-9 1H43l155 1 157-1c-8 0-9-1-12-3l-3-3-1-1c0-2-3-5-10-10-4-4-3-4 13-4 18 1 21 2 26 3 5 0 9-1 8-2 0-2-6-4-10-3-4 0-5-2-2-8 3-5 2-8-1-2l-3 5c0 3-9 5-14 3l-7-1c-6-1-6-3-2-5l4-2 4-7c4-8 7-15 7-20l1-3c3 0 9-7 9-11l4-11 4-12c0-3 4-9 6-8l5-5 5-5c2-2 1-3-2-6-4-3-6-4-6-1l1 1c2 0 1 4-2 5l-20 17c-4 4-16 23-16 25 0 3-10 5-14 3l-12-1c-18 0-22 0-22-2 2-5 2-6 0-7-4-1-4-3-2-6 3-3 6-9 6-10 0-2 0-3 3-7l4-5 2-2 5-7a304 304 0 0110-16l13-19a49 49 0 007-10l5-8c2-4 3-6 5-6 3 0 3 1 0 5l-3 6-4 5c-3 3-3 8 0 6 2-2 2-2 7-1 13 3 14 3 15 2 3-2 2-5-2-6-5-3-11-13-9-17l2-2a28 28 0 0012-15l3-6 6-9 4-5h3c5 1 11-13 7-17-2-2-4-19-7-41-2-18-4-14-3 5 0 12 0 13-2 16-3 4-4 5-7 14-3 8-2 10 6 11l6 2c1 2-2 3-9 3l-7-1-3 6a329 329 0 00-8 13l-8 15c-7 13-11 19-15 20-2 0-2 1-2 4s-9 19-17 30l-6 9-12 15-6 9-16 20c-3 3-36 2-36-1l-1-7-1-11c0-7 1-11 6-19 4-7 4-10 0-8-6 1-11 0-13-2-2-3-5-3-5 0l-1 3h-89l-1-5v-6c-1 0 0-2 3-3 5-4 4-5-2-5-5 1-5 0 1-2 5-2 20-17 17-19-1-1-1-1 2-5l3-5 4-4c2 0 1 3 0 4-2 1-3 5-1 5a59 59 0 0015-18c9-10 9-10 7-15l-2-3c-2 0-23 22-46 46-4 4-6 5-9 4-1 0-7-10-9-16l-2-4c-2-2-5-10-4-12v-4l3-6c3-3 4-5 4-8 0-4 2-6 23-19l13-8 13-8c10-5 13-8 14-15 4-15 7-23 13-29 9-10 14-9 5 1-6 6-8 11-11 19l-2 8c-1 4 3 2 20-8l24-14 10-6c3-4 6-4 9-1 2 2 2 2 4 1 0-2 3-5 6-7l4-7 2-2c2-1 1-3-1-4l-3 1c-1 2-3 2-6 2l-8 1c-4 3-5 2-13-5-12-12-13-13-12-24 0-3 0-4-2-4l-10-7c-5-5-7-5-8-4 0 2-4 2-7 0-4-2-8-1-11 5l-11 12-9 9-4 4-7 8-8 8-6 7-6 7-23 26c-17 20-18 21-24 23l-5 1 9-17v-4c-2-1-2-2-2-5l-1-10c-1-9-1-9 2-9 3-1 4-4 1-7-3-4-1-12 4-21a97 97 0 0013-28v-1c-1-1-2-1-5 1-4 2-7 3-8 1-2-2-8-1-8 1-1 2-5 3-5 0l2-2 2-2c0-1 4-6 11-11l9-8 3-5 3-4 3-3 2-4c0-1 2-4 6-7l5-7c0-2 8-9 14-11 5-3 5-3 5-6-1-2-1-3 1-4 2-2 3-7 1-8l-1-7c0-8-1-17-4-24l-4-13-2-7 2-3c6-7 7-7 9 5a298 298 0 004 23l2 12 3 15 3 11 1 6 2 6 1 6 1 6 2 4c1 13 3 19 5 19s0-13-2-16l-1-6c0-5-2-19-4-22a12 12 0 011-13c0-1 0-2-1-1l-1 2c0 3-2 2-3-1-3-11-3-14 0-17l5-9 2-6c1 0 2 8 1 9l1 4c3 3 2 7 0 8-3 1-3 4 0 4 3-1 4 1 4 11 0 13 1 16 7 19l6 3c2 3 3 2 3 0s1-2 3-2c3 0 11-4 13-6 1-2 1-2-3 0h-9c-11-1-12-3-11-32 0-26 1-48 2-51s0-5-5-7l-7-7-8-8-2-4-2-4c-4-7-5-19-2-25 2-3 2-4 1-5-2 0-1-2 1-2l2 2h6l6-2 4-2c0-6 3-9 5-4l1 2 3 2c4 3 9 5 10 3h3c1 1 3 2 7 2 7 0 9 1 9 3l2 3c1 2 1 2-1 7-4 6-4 5 0 8 4 5 6 3 8-8l3-12c7-31 9-53 4-56-2-1-4-6-4-9s3-1 4 4l4 7 2 3 2 3c2 1 2 1 2-1l-1-5-2-6c-2-9 6-8 8 1l2 6 3 12 2 7 4 9 4 13 5 14c1 4-5 0-7-5 0-2-2-3-2-1l-2 3c-2 0-3 1 0 3l4 7c2 6 3 7 8 7l5 1c2 5 2-5-1-15a1131 1131 0 01-10-39l-2-9h6l3 1 4 1c1 1 2 0 1-3v-4h-4c-7 1-11-3-7-6l1-4c0-4 5-9 13-13l11-8 8-7 11-6 5-4 3-2 2-3c3-2 2-3-2-3l-5-1-2 2c-5 7-17 14-24 14-3 0-3 0-3-3l-1-5c-1-4-2-2-2 3l-1 6v3c3 3-10 10-21 11-18 3-22 2-22-4 0-7-4-7-17-2-13 4-25 6-30 5h-5l-3 2 3 1 9 2 5 1c0 2-1 4-4 4-2 0-6 4-6 6 0 3-3 2-8-2-2-2-6 1-12 8l-9 9-7 5c0 2-4 6-7 10l-8 11c-7 12-11 17-12 14-1-1 5-13 11-23 4-5 3-5 0-4a25 25 0 00-12 12c-2 0-1-2 3-8l3-7 4-7 7-9 6-11 12-19c2-2 2-3 1-3l-7 6c-7 9-9 9-5 1 10-18 15-29 13-30-1-1-1 0-1 1 0 2-1 2-4 3-4 1-5 1-4 4l-1 4-5 9c-4 8-9 15-16 22l-4 6c0 3 2 3 4 1s4-3 4-1l-10 21-7 16-2 3-2 8c0 5-2 10-5 9l-1 1v6c-1 5 2 7 7 7h5l5-2 5-3 4-2c2-2 7-4 8-3v4c0 5 2 8 4 3s2-9 0-12-3-9-2-9l1 1c0 2 1 3 3 2 2 0 2-1 1-4 0-5 1-7 3-5 2 1 2 3 1 6-2 10-2 16 1 15 3 0 4 8 2 35v17c-1 10-1 12-3 11l-1-12c1-12 0-13-3-8s-8 7-12 7c-13-4-26-12-39-25-11-12-13-12-15 1l-2 10c-1 3-1 4 3 7s4 10 0 15l-3 4c1 1-1 3-2 5-3 4-5 5-14 7-5 1-5 2-3 3h7l42-2 6 2c2 1 2 1 2-2 0-2 0-3 4-3l7-1c2-1 9 12 12 24 2 9 2 26-1 33-2 4-2 5-7 5l-5-1c-1-3-2-2-7 1-5 4-11 5-11 3l-1-2c-2 0-3-2-3-5l-1-2-1-1-1-2-12-10a163 163 0 00-8-8c-1-2-3-3-5-3-1 0-3-1-5-4a5 5 0 00-6-3c0-1 4-4 6-4l2-1 2-3c2-1 2-2 2-4-2-4-4-3-13 3l-8 5-6-5c-6-6-6-9-2-9l6 4 3 3c2-1 0-4-3-5l-2-3-1-3c-2-1-12 0-14 1h-2c-1-1 1-14 2-16l2-5 3-22c2-2 6-1 6 1l1 7c0 5 3 6 3 1 0-4 3-5 4-3 0 3 6 9 7 9 2 0 3-5 4-10 0-5 4-20 5-21l2-6 4-22c1-5 1-6-5-8-7-4-16-13-20-22l-3-5c-2 0-2-4-1-6 2-1 2-3 3-8 0-5 1-6 2-7l2-3c0-3 4-9 8-13 4-3 7-4 4-1a7 7 0 0012 6l5-4c3-4 7-5 5-2-1 7-4 11-8 12l-4 4c0 2 4 1 5-1s6-3 6-1l-2 5c-2 3-2 3-1 5 3 1 2 3-2 7l-3 6c1 2 4 0 8-5 4-4 4-4 8-3l5-1 6-1c5 0 8-2 4-3-3 0-4-3-2-4l5-8c4-10 13-24 19-30l5-8c2-6 7-12 10-12 3 1 5-1 2-4v-2l2-2 2-4 2-4 2-2c3 0 2-1-1-5-5-5-5-6 0-6 3 0 4 0 4-2l1-2c1-1-3-9-4-9s-6 7-6 10l-4 8-8 13-7 13-20 32-8 7-5 4v-4c1-5 6-13 9-13 2 0 3-1 3-4s0-6 2-8l3-6 4-8c6-8 20-35 20-37s-3-1-5 2l-3 3-3 8-3 4c-3 2-6 1-3-2l2-1 1-4 1-5v-9c-1 0-5 5-8 13l-5 12-3 6-1 3-7 18c-3 7-13 15-12 9 1-3-1-7-3-7 0 0-2 1-2 3l-3 3-1 2c2 5 0 11-3 12-2 0-2 0-1-6l1-6 1-5 2-9 2-8 6-21 3-12a693 693 0 018-37l2-10c-1-1 0-2 1-3 2-1 1-4-3-6-4-3-11-11-10-12l2 2c3 3 7 3 7 0 0-1 1-1 1 1l1 4 7-15v-3h-6c-7 0-20 3-20 4l2 2c1 1 0 12-3 19l-1 6-1 6-5 19-1 4-1 4-1 1-1 4c0 3-1 4-6 9-3 2-5 1-5-3v-5l-7-33-3-12-2-12v-7c1-3 1-3-1-4h-3c-1 2-2 0-2-4l1-4v3c1 3 2 4 3 2s-2-11-4-13v-4c2-1 2-3 1-10-1-10 0-12 8-14 4 0 9-5 7-6l-7 2c-7 2-10 3-10 1s2-3 16-8c3-2 3-2 2-3-3-2-3-2-2-3 1-2 1-2-1-2s-4 2-4 4c1 3-1 4-5 3h-3l2-2c3-1 4-2 2-3l-1-3-1-3c-2-2-1-4 1-5s1-1-3-1-5 0-4 1v2l-1 2c0 2-2 2-3 1l-1-4V0H0v415M70 2c1 2 1 2 2 0 2-2 4 0 4 4s-1 5-3 2l-3-2c-1 1 0 7 2 7l2 2c2 2 2 2 6 1s8 1 8 5c0 3 2 0 2-4 0-6 2-7 3-2l1 7c0 3 0 4-2 5-5 3-4 14 1 15 4 2 4 2 0 6-3 2-3 3-1 11l-1 2-1-1-1-2v5l5 1 12-1 8-2c3 0 5-2 5-6l2-6c1-2 0-3-2 0-5 3-5 0-1-5 2-3 3-6 1-6-3 0 0-7 7-14 5-5 6-5 6-1 0 3-1 5-5 8-6 6-6 7-2 6h2l-2 3c-2 5-2 7 1 3l5-6c8-9 9-11 5-14-4-4-1-11 5-13 3-2 5 0 5 6 0 5 0 5 1 3l2-9 4-8 2-2H69l1 2m95 1l8 6-2-3c-4-3-2-4 4-3 4 0 5 1 5 3 0 3 0 3 7 4s7 2 2 5c-2 2-5 2-7 2-4-1-5-1-2 2l1 4c0 1 1 2 3 2 3 0 13 8 14 12 0 3 2 4 2 2s8-4 13-4l7-1c2-2-1-2-9-3l-9-1c-1-2-3-2-5-1-2 0-3 0-6-3-4-4-4-4 3-10l6-5 10-5 4 2h8c9-2 11 3 1 7-2 1-2 8 1 11l1 3 2 5c2 4 1 5-2 4-1 0-3 0-4 2l-3 2-2 1-3 4-5 5c-2 1-2 1-4-1l-3-2-1 4c0 4-1 5-6 9l-5 5c0 2 6 1 7-1l3-2 1-1 2-1c3 0 0 3-7 7l-11 7c-1 2-5 6-9 8l-9 8-3 3c-2 2-3 3-3 5 0 3 0 3 2 2 2-3 5-2 8 2 4 4 7 4 7 1 0-2 0-3-2-2-3 0-3 0-3-2s1-4 3-5l2-3 10-10c6-1 4 5-2 8l-3 3-2 3-1 3 2-1c1-2 6-3 7-1l3 1h3l-3-2-2-3a7 7 0 0113 1c2 3 1 4-4 6s-6 4-3 5c3 0 1 3-3 4-3 0-13 6-16 8l10 9 4 2c2 0 2 0 1-1l-1-1-3-5-4-3 4-2c5-2 7-2 7 0-1 9 0 11 4 12 6 3 8 11 2 11-2 0-2 0-2 3 0 5-4 4-13-2-5-3-6-4-6-2s4 5 6 5 3 3 5 8c0 2 0 2-3 2h-3l3 3c3 3 3 4 3 10v7l-3-1c-5 0-5 2-1 7s5 4 10-1l10-7 6-5c4-4 10-1 10 4l2 11 2 13c0 9 1 11 3 11 2-1 3-7 1-9l-1-8-2-9v-6l-1-6c-1-4-4-6-16-7-7-1-9-3-7-6l5-1h9l6 1v-11c0-9-1-11-2-12-2-1-2-6-5-31l-2-31c-1-12-1-11-4-10-4 2-4-3 1-6a37 37 0 0126 2c0 2 6 2 8 0 3-2 12-1 15 3 2 2 3 3 6 3h4v4l-1 3h4c8 0 12 1 12 3s3 3 8 2c2 0 2 0 2 2 1 3 4 5 12 5 6 1 10 15 5 21-2 2-2 2-1 3 4 2 6-1 6-9 1-6 1-8 3-9 3-3 9-2 12 1l5 3c2 1 2 2 2 4l1 2 1 2h3c4 0 4 0 6 4l3 5c0 2 2 3 4 2 2-2 1-6-1-6l-3-3-3-6c-3-4-4-7-2-7h4c3-1 3 0 4 2s4 3 5 1c5-7 33-9 33-3 0 2-6 1-11-1-6-1-12 0-17 4-6 7-3 9 4 2 7-5 7-5 11-1l10 5c3 2 6 3 7 5 0 2 2 4 4 5l4 3 3 2 2 3a18 18 0 0011 10c1 1 1 1-1 1l-3-1-4-2-7-5c-4-4-5-4-10-4l-8-2c-3-2-5-1-5 3-1 3 0 3 3 4 6 2 6 6 0 6-2 0-5 0-8 2-5 4-8 4-9 1l-2-2c-3 0-3 4-2 6 2 2 3 4 1 4l-1 2-1 2-2 2c-1 2 0 2 2 2 4 0 6-2 6-5 0-4 7-6 11-2h4c1-2 7 1 7 3 2 5-6 16-10 15l-2 1c1 2 8 2 10 0s3-3 3 0-17 18-19 16l3-4c2 0 7-5 7-7h-2l-4 1c-2 0-3 1-4 3l-2 3v5l1 4c-1 2 0 4 1 6l2 5c0 1 7 9 9 9l3 3 6 3c2 0 3 1 6 9l10 25 1 5c4 2 2 5-5 6-10 2-11 3-10 5l5 2c3 1 3 1 3 5l1 6c3 5 9 37 10 53v9l-2-3c-5-6-5-1-1 15 2 8 2 9-5 11-9 2-9 4-1 7 10 3 21 14 21 21 0 2 2 4 3 3l-1-4c-2-6 3-3 9 7 7 12 11 31 8 37-4 8-25 17-34 14-3-1-4 0-8 2-3 2-5 2-14 3-11 0-11 0-12-7l-1-2c-2-1-2-1 0 8l5 12 2 4c2 3 4 4 10 2l3-4 2-2v-3c-1-4 5-8 10-6h7c3-1 6 0 7 1 1 2 10 2 12 0l4-2 4-5c5-11 9-12 11-2 1 9-1 31-3 38-3 8-4 9-6 9-3 0-3 2-2 7 1 3 0 4-1 5l-2 4 6 36 6 34c1 14 1 16-5 15-3-1-3-1-3 1l2 7 2 8 4 12c-1 3 2 11 4 11 4 0 2 3-3 4-4 0-4 0-5-4-2-8-4-12-5-12v16c-3 3-2 5 3 5 4 0 5 1 5 3l1 3 2 4 4 10c4 9 6 16 4 19-1 1 0 2 1 4l2 13 1 17c2 6 2 10 1 23 0 16 1 24 5 40l1 11 4 21 6 25c4 15 5 18 11 18l4-1-2-1-3-6-3-8c-3-6 0-10 4-8 3 2 3 1 2-4l-1-5c-1-6-5-20-7-21-2-4-6-18-6-25 0-9 1-11 4-9 1 1 2 1 1-2l-2-2-1-6-1-6c-3-1-6-18-4-22 1-4 3-3 5 2 2 7 4 4 2-4l-2-10a471 471 0 00-7-36l-3-15-1-6-2-5v-4l4-2 3-2 1-1c2-2 1-3-1-2-3 2-9 1-9-1l-2-9-3-15-3-15a654 654 0 01-11-57c-2-6-1-12 0-9l3 11 4 14 7 25c1 11 7 25 10 25v-11c1-4 1-4 4-4 4 1 6-1 4-4l-2-3v-2l-1 1h-2l-2-3-1-3c-1-2-1-2 1-3 2-2 1-11-2-14a2 2 0 113-2l1 3c1 1 3 3 3 6l5 12 4 11 2 4 2 4 10 21c2 4 1 6-1 6-5 2-5 1-5-2 1-3 1-4-1-6l-1-4c0-2 0-3-2-4l-2-4c0-3-1-5-3-7l-3-3-2 2c-2 3-2 9 0 15l2 8 2 4c2 1 3 8 3 21l2 17c0 8 0 8-2 11-3 2-3 11-1 15 1 1 2 5 2 11 0 9 2 21 5 31l1 8 3 15 2 15c0 9 1 13 3 18a122 122 0 015 16c1 1 1-152 1-397V0H162l3 3m96 16l-1 3c1 1 0 3-1 4l-1 4-2 6-2 5c0 2 4 6 6 6l4 1c3 1 8-2 8-4l4-7c5-8 2-14-5-9l-3 1-4-10h-3m210 3c-1 1-2 5-1 8 0 1 1 2 4 1l3 1c0 3 4 1 7-4s4-6 2-6h-15m-305 5c-3 3-4 4-1 7 2 3 3 3 8-2 6-5 6-6 2-5l-4-1c0-3-1-2-5 1M13 32c2 2 3 3 5 3 6 0 4-4-2-6h-4l1 3m134 5c-1 8 0 10 5 10 5 1 5 0 0-9-4-8-5-9-5-1m180 26c0 1 8 10 10 10s2-2 1-3c-1 0-2-1-2-4 1-4-2-5-4-2-2 1-2 1-2-1-1-2-3-3-3 0M47 79l1 14 2 21 3 11c2 2-1-26-4-31V79h-2m177 2v8l-1 2c-2 3-2 3 1 5l3 3V82c-2-3-2-3-3-1m-81 1l-2 4a29 29 0 01-13 12h4l5 1c2 3 2 2 5-2l6-5 7-4 2-3-4 1c-5 0-10-2-9-5l-1 1m188 25l-10 13c-4 8-6 10-7 6 0-3-3-2-4 2-2 4-1 6 1 6 3 0 2 1-1 8l-4 8c0 3-4 6-5 4v-5c1-5 1-5-4 0s-9 12-13 20l-3 5-2 8 3 2 2 2c1 3 2 3 3 0 0-3 0-4 3-7 2-3 2-4 1-6-1-3 0-6 6-12l4-4v4c-1 5 0 5 3-1l5-6 5-10 8-13 4-7 2-1 2-3c0-3 3-7 5-7l1-2 2-5c3-3 3-5 0-5-2 0-4 2-7 6m-309 1c-1 2 0 4 1 4l4 1c4 2 8 0 4-3l-2-3c0-2-6-1-7 1m247 4c-2 2-3 3-4 2-2 0-3 2-1 3l3 3 3 2c2 0 2 0 1-3-1-1 0-2 1-4 2-1 3-4 1-6l-4 3m-172 0l-2 6-5 18-2 2-3 3-1 5-2 5 2-2 2-6 1-3c1 0 1 3-1 20l1 5c1-2 8-26 10-38l2-11v-4c-1-2-1-2-2 0m63 12l3 2c3 2 3 2 2 5 0 4 0 4 3 3l3 1a2 2 0 103-2l-7-5c-6-5-7-5-7-4m-126 7c-1 3 1 17 2 19 3 5 4-2 2-16-1-6-3-8-4-3m14 0l-1 8c0 7 0 7-2 9l-3 3c0 1 2 2 2 0 1-1 5-2 5 0l-4 1-5 2c-2 3-4 16-3 17l1 3c0 5 6 10 10 9l1 1c-1 2 5 4 8 2 4-2 9-13 5-13-2 0-7-5-7-7l-1-6-3-6-1-10c0-9-1-16-2-13m195 7c-1 1 0 11 1 14 1 4 3 3 3-2l-2-8c0-5-1-6-2-4m162 3c-6 5-8 11-3 11 1 0 3-1 3-3l5-7c4-6 2-7-5-1m-78 4c-6 9-4 11 1 3 4-5 5-9 3-9l-4 6m-73 26l-2 9-2 10c-3 9-3 11 2 10 6 0 5 0 4-7l1-15 1-9c0-2-2-1-4 2m-185 7l-4 4 1 4 2 6 3 5 2 2 2-2c2-2 3-7 1-10-1-2 0-7 3-8l5-5-5-1c-5 0-6 1-10 5m146 2c0 5-3 5-4 0 0-5-2-3-3 3l-3 12-3 9c0 3-5 8-9 8-3 0-3 0-3 4 1 4 3 5 3 2 0-2 7-5 17-7l3-3c0-3 0-9 2-16 0-5 2-7 2-3a92 92 0 002 16l-3 1c-1 2-1 2 2 1 4-1 4-1 2-17-2-15-3-18-5-10m-35 8l-2 1-1 1c0 2-8 9-9 9v1l-1 2v1c1 1 1 0 2-1l2-3c2 0 14-9 14-11l-1-2c0-1-3 0-4 2m-125 2a4 4 0 104 4c4-5 2-6-4-4m230 4c-2 8 2 15 4 8l4-7 2-4-3 2c-2 3-3 3-5 0-2-2-2-2-2 1m50 1c-2 2-2 8-1 8l3 3 2 3v-7c0-5 0-6-2-7h-2m-82 14l-4 2 2 3c4 3 9 3 9-1l-3-6-4 2m250 4l-1 3-1 1-1-1h-2l-2 3-1 2c-3 0-2 1 0 3s2 2 0 4c-1 2-1 3 1 4s4-3 4-7c0-3 0-3 2-3 4 0 6-4 4-8 0-2-1-2-3-1m-260 18c-2 1-1 4 1 4 3 0 4 0 4 2 0 3 2 5 4 5 3-1 2-4-1-8-2-4-5-5-8-3m-20 5l-2 3-2 5c-2 4-2 7-2 13v9c-4 5-4 18-2 21 5 5 6 3 7-10a5845 5845 0 014-40c1-3-2-3-3-1m-27 6l-1 5-2 5-6 25v6c2 0 2-1 6-10 3-8 6-32 4-32l-1 1m131 16l2 5c3 5 7 17 7 19l3 9 3 9 2 8 5 11 4 8 1 4 1 2 1 4 3 6 3 6c2 1 3 7 1 7l-5-10-2-7-9-15c-3-8-8-16-9-17v3l2 7 3 8c4 7 5 15 3 15l-3-4c-3-6-4-5-3 5l-1 10c-1 1-7-5-7-8-1-4-5-8-6-6 0 2 0 4 4 10l1 5v4c1 1 3 3 3 6l3 4 3 4c2 4 4 5 6 2l5-1 8 2 9-3 7-3v-5c1-4 0-6-2-11l-2-8-1-7c-1-2-3-6-3-10l-5-14-4-12-8-17c-2-1-2-1-2 7v9l-1-3-1-2c-2-1-7-15-8-20-1-6-11-21-11-16m-50 4l1 2c4 3 13 26 14 37 1 12 0 11 10 11 8-1 8-1 11 2 5 5 5 3 0-8l-3-9c1-3-8-15-10-15l-19-19c-2-2-4-3-4-1m-72 4c-3 6-2 13 2 13l1-8c-1-10-1-11-3-5m43 1l1 4 3 7 3 8 3 5c0 2 3 6 3 5l-2-6-3-9-7-16-1 2m-66 30c-3 2-2 5 0 7s2 2 3 0c4-5 1-10-3-7M81 307c-4 9-8 29-5 29l6-13 1-12c2-12 2-12-2-4m-58 17a87 87 0 00-10 13c-5 6-6 17-3 24 4 7 12 12 12 7l2-5c4-6 4-9 2-11-3-4-3-12 0-16a45 45 0 0012-17c2-2 1-3-4-3h-5l-6 8m253 3l-6 2-8 2-6 2-3 1 3 1c2 0 3 0 3 2l3 3c1 2 1 5-5 19-5 11-6 16-3 13l3-2a20 20 0 0012-9c3-3 5-8 5-13 1-11 3-13 3-4 1 5 2 7 4 4 3-5-1-25-5-21m72 18c-2 1-1 5 1 7l4 6c2 5 4 9 6 10 3 0 2-5-3-12l-2-4c0-2-5-8-6-7m-133 12c-6 6-7 6-5 7 3 2 10-3 13-8 5-8 1-8-8 1m108 4l-1 3-2 4c-6 5-12 18-14 30l-2 9c-3 7-5 18-4 19 1 2-1 5-3 5l-1 2-2 1-5 3-7 3c-4 0-5 1-5 4 0 4 1 6 3 4l4-1c8 3 22-12 23-23l2-4c3 0 4 2 5 8a795 795 0 002 36l1 5-8 2c-8 1-16 2-18 1s-7-13-7-16c0-2-4-5-5-4l1 5 4 19 1 3 1 4 1 6 3 12a3592 3592 0 007 35c2 5 5 23 4 32l1 8 1 8c1 8 3 9 4 1l3-6c2-2 2-2 1-5-2-6-2-11-1-11 2-2 3 1 4 10l2 11 1 14c1 13 2 15 5 8 5-9 7-22 5-28l-2-12c2 0 6 7 8 13s3 8 5 9 5 6 11 16c2 6 4 6 6 2 3-5 1-11-3-13-3-1-4-2-2-6 2-3 2-3 0-5l-6-27-2-9 1-2c2 0 6 10 6 13s2 6 3 6l1-6v-10c0-5-1-19-3-24-1-4-4-6-9-6-2 0-3 0-3-2l-2-3-7-5-6-5-1-14-1-18c-2-8-4-34-3-38 2-6 2-7 6-4l4 2c1-1-1-3-3-4-8-3-9-30-2-38l2-5 3-6c5-5 0-21-5-16m-71 14c-3 2-7 17-5 17l1 3 4 11 2 1c3-1 6 0 11 2 4 2 4 2 4 6l1 7 2 4v-6l-2-9c-2-3-2-4-1-5 2-4 1-7-3-11l-11-15-3-5m248 10c-1 2-1 2 1 3 3 1 5 2 5 5 1 4 3 4 3-1a6 6 0 00-9-7m-156 16c0 2 5 4 14 5h10l2 5c2 6 4 8 4 4s5-7 10-7l4-1 7-1 11-2c6-2 3-3-10-2-24 2-43 2-47 0s-5-2-5-1m-208 4l-1 8c-1 9 1 11 3 5 2-5 0-17-2-13m-70 25l-4 6a85 85 0 01-8 13c0 3-13 19-15 19s-11 10-13 14c0 2-2 4-3 5l-4 5-4 7c-3 4-4 8-2 5a7792 7792 0 0118-24c3-6 5-8 5-7 2 1 1 3-6 13l-8 14c0 4 3 1 7-5l7-12a332 332 0 0014-19l4-7c17-24 17-24 15-27h-3m152 1l6 6 6 4h2c1-2-2-5-8-9s-7-4-6-1M65 450l-15 23c-9 15-17 29-16 30 0 1 5-4 7-9l4-5 3-4 3-5 7-12c14-23 13-22 16-22 4 1 6-1 4-2l-2-4c0-5-4-2-11 10m26-7l2 9c0 4 1 5 3 4 2 0 2-2 0-6v-3c2 0 5-3 3-3a126 126 0 01-6-1l-1-1-2-2c-2-1-2-1 1 3m158 0l-1 5c-2 1-2 2-1 4v4l1 4c2 2 2 2 1 3-2 1-1 4 0 4l4 2c4 4 3 0-1-5-1-2 0-8 1-8v-4l-1-4-2-9-1 4m-141 8c-16 12-16 12-18 10l-5-2c-4-1-6-3-5-5 0-2-1-3-3-1-1 2-1 3 1 3v1l1 3c1 1 1 2-1 4-3 5-5 12-3 21 0 6 1 7 6 1 6-5 21-20 26-23l9-8 8-6c2 0 3-3 1-3v-3c1-2 1-3-2-3l-15 11m375-9v2l-2 2c-2 0-5 2-4 4 0 2 1 2 3 1l3 1c2 1 3-2 3-7 0-3-3-6-3-3m5 18v2l-1 3-2 4-2 2 2 2c4 3 4 4 1 5-2 0-2 8-1 15 1 2 0 3-2 3s-5 6-4 11c0 8 11 33 14 33 1 0 1-2-1-35v-21l-1-11 1-5c2-6 2-8-2-9-2-1-2-1-2 1m-307 0c0 2 11 14 14 14l-6-8c-6-7-8-8-8-6m134 13l-1 4v6l-1 4-3-3c-1-1-3-3-5-3-2-1-2-1-2 4l2 7 3 8c1 4 4 8 5 9l3 5 3 12c1 1 1 2 2 1v-11c-2-1-3-12-2-14v-3l-2-13c0-12-1-15-2-13m-20 7c0 4 7 23 8 23v-3l-1-4c0-3-5-16-6-16h-1m-117 3c-2 0-7 10-7 11l11-11h-4m-11 14l-9 10-21 24-6 6c-3 3-6 8-4 8 1 0 5-3 7-7l5-3 3-3c0-1 7-11 14-18l5-7 5-6c3-3 4-5 2-5l-1 1m209 5c-5 4-3 7 2 5 3-1 3-2 3-4-1-4-2-5-5-1m52 1v3l1 8 1 10 1 6c-1 1-1 3 1 6l5 18c0 2 3 5 4 4l-3-13-1-5v-5l-5-23-1-4-1-4c0-2-1-3-2-1m-49 11c-3 3-3 3-2 9 2 9 2 9 4 7 1-3 3-1 3 3l1 5 2 15 8 42 1-15c-1-24-1-25-5-38l-5-20c-3-12-3-12-7-8m-262 39c-11 14-14 19-4 10a31 31 0 008-11l1-1c0-2-2-1-5 2m130 15l-32 32c-27 27-28 29-26 33 2 3 3 2 9-3l7-7 5-7 10-11 7-9c0-2 5-6 8-6 2 1 7-3 6-5-1-1 0-2 1-2 2 0 3-2 5-5 2-4 3-5 6-6s4-5 2-8c-2-2-4-1-8 4m36 8l4 5c6 4 6 6-9 37l-3 9-16 37c-11 20-12 22-15 32-3 7-4 8-2 8s5-5 5-8l1-2 1-2 1-3 2-6 4-6c2-2 1 4-1 10-5 9-3 11 3 4 7-8 10-17 13-32l9-21c5-9 6-14 3-14-1 0 1-10 4-18 7-16 8-17 14-11l5 3v-2l-3-6-5-5-3-4-5-4c-4-3-7-4-7-1m73 44c-12 15-14 18-10 21 3 3 5 2 6-2l4-5c2-2 3-3 4-8l1-7v-2c0-1-2 0-5 3M85 641a7 7 0 01-6 3l2 1 4 3c5 4 18 2 17-3l-1-2-2-1-2-1-3-1-4-1c-1-1-3 0-5 2m-38 6l3 2 5 3 7 4c2 2 6 2 15 0 7-1-1-5-12-6s-14-2-16-3l-4-2c-1 0-1 1 2 2m372 7l-2 7-3 6-3 5-1 1-6 2h5c2-2 1 4-1 6l-2 6c0 5-3 5-6-1-2-4-4-5-9-2-9 5-13 8-16 15l-5 7-2 2c0 2 8 6 10 5s6 1 7 4 3 4 5 2 4-11 3-11l-1-1 1-2 4-4-3-1c-5 0-5-2 0-5 10-4 12-2 9 7l-3 11c-2 9-2 11-4 12s-2 2-2 4c1 1 0 4-1 8l-3 8-3 5c-5 6-12 24-14 34-1 5 2 2 5-4l3-6 1-4 1-2c1 0 0 8-2 14l-1 4 2-3 5-12 5-14 2-7c1-4 8-16 9-16l2 2c2 1 6 1 6-1 0-3-3-6-6-5-4 1-7-4-3-7l1-4 1-4c1-2 2-3 1-4l2-6 3-9c3-15 8-28 11-28l1 2-6 24-2 5c-2 3-3 9-1 11 1 2 2 1 4-5 2-7 5-9 5-3l1 2 1 4c2 5 5 13 7 13s1-5-3-26l-1-13-3-33c-1-2-3 0-5 5m-299 35v3l-1 4c-1 2-1 2 4 2 8-1 8-1 3-5l-6-4m-5 19l-7 2-1 1c0 2 9 2 12 0l4-1c2 0 4-2 2-3s-5-1-10 1m288 36l-1 2-1 3-1 2-3 11-3 12-2 9-3 12-8 24-1 5-1 4c-3 1-1 4 6 8l6 5c-1 1 3 1 10 1 9 0 10 0 8-1v-4c5-9 3-18-4-13-3 1-3 1-4-3 0-5-1-6-1-2-2 6-8 10-12 6-1-2-1-10 1-13l3-14 5-20c2-4 4-12 4-17l4-12c2-5 1-7-2-5M2 754v26l11-1 21-1c17 0 23-2 17-5v-1c2 0 1-4-1-4l-2-1h2c4 0 1-2-4-2-4 0-4 0-3 3 1 4 1 5-2 6-4 1-5 0-4-8s2-7-7-8c-5 0-7-1-9-3l-6-2-4-2-5-3-4-1v7m253 17l-8 1c-6 0-9 2-7 4 3 2 16 0 20-4 4-3 0-4-5-1m188 11c-1 4 1 22 2 22 2 0 2-11 0-15l-1-7v-3l-1 3m-214 12c-6 3-1 5 10 4h4l-2-2-5-2-3-1-4 1m-109 3l2 3 2 1-2 1-2 3h6l3-2-2-3-3-2c-1-2-4-3-4-1m334 8l-2 14-3 14c-2 2-1 3 1 3 3 1 2 3-1 3l-5 2c-2 1-1 1 11 1h14l-4-3c-4-3-4-4-3-9l-1-6-1-4c0-4-3-8-4-6v-2c1-5 0-11-2-7m-276 26c-1 3-2 3-6 2-6-1-7 2-1 4 7 2 14-2 11-7-1-3-3-2-4 1m38 1l-7 4-6 1c-8 0 8 3 18 3s12-1 6-4c-2-1-2-2-2-4s-1-2-9 0" fill-rule="evenodd" itemprop="regular" tabindex="-1"></path></symbol><symbol id="-posters-1652403098702-bold"><path d="M9 3l1 4c2 2 6 13 6 15s0 2-2 1l-2 1 4 1c7 0 11 11 5 12-7 1-12-3-13-10l-2-8v-5c1 0 1-1-1-2L2 9V5L1 2 0 309l1 301v-6l10 1 14 2c2 2 7 3 11 4l17 6c0 2-12 13-20 18l-7 5h-7c-16-2-16-2-17-7l-1-5-1 55 1 46c0-10 1-12 6-10l15 1h12v6l-1 9c-2 4 1 7 5 7 8 0 10 4 5 12-1 2-1 2 1 4 3 3 28 2 34 0 3-2 6-2 8-1 2 2 1 3-3 3l-24 5-2 6-1 7-22 2-22 1H0v10l1 10c1-1 21 2 25 3l9 2 24 3 45 5c9 2 11 2 11 4l-3 1-6 1-8 1c-7 2-16 1-34-1H47c0 2 6 4 14 4l9 2 12 2 11 1 8 2 8 2c2 1 6 0 6-1 0-2-6-4-10-4l-3-1 4-1 12 1 11 1c1 1 2 0 3-1 2-1 3-2 4-1l4 1 4 2c1 2 7 2 8 0h-3l-3-1 7-1a7631 7631 0 0122 0l9 1 18 1 43-1 14-1c5-2 6-2 8 1 2 2 3 2 9 2 9 0 17 2 21 5l3 2 1-2c2-2 9-5 11-3h9c6 0 7 0 10 3l2 2 2-3c1-3 1-4-7-9-8-4-8-7-1-8l4-3c0-1 1-3 3-3 4-2 7-7 11-13 5-10 3-11-7-6s-15 5-8 1l9-8 10-6c5-2 7-5 5-7-1-1-6-2-15-2-48 0-49 0-47-5l2-3-4-1-6-2c-2 0-1-3 3-5l4-3 2-4c2-1 2-2 1-4s-1-2-6 4l-9 11-3 4h-17c-22 0-21 1-21-18v-14l3-6c4-7 5-10 2-9h-8c-4-1-6-1-8 1-2 1-83 2-91 0-3 0-4-4-3-6l1-2c-1-1-7 2-8 3l-2 1-8 2c-5 2-8 2-12 2-5-1-6 0-7 1-2 2-5 2-17 0-20-4-19-4-20-2-2 3-12 3-14 0-3-3-2-8 1-7h30c35-1 55-3 56-5l4-3 3-2h-8l-29 1 1-3c1-2 0-7-2-7-1-1-6 2-6 3l-2 3c-1 1-1 1 2 1l3 1c-1 1-7 0-9-1v-5l-1-3-1-2-2-3c-5-1-15-15-13-17l5-1c4-1 4-1 5 3l1 6 1 2c1-1 3 0 5 2 3 2 3 4 0 4-2 0-3 2-1 3 3 0 10-4 10-6 0-4 3-6 5-4 3 1 4 1 6-2 3-1 4-2 6-1v-4l-1-4-3-4-1-4v-5c2-1 0-4-2-4l-5 1c-4 4-22 9-33 11-8 1-8 1-10-1l-4-2-1-1-4-2-14-9 3-2 8-3 6-2 4-1 2-2 6-4c6-4 7-5 11-2l5 1 4 2 6 3 8 4 6 4 3 2c2 2 7-3 7-7 0-7 1-8 22-21l31-19c8-4 11-7 11-14 2-18 19-41 26-35 1 1 1 1-8 10a18 18 0 00-6 11c-2 4-5 15-3 15 3 0 38-23 37-24 0-1 1-3 8-8 5-5 7-5 8-2l3 1 4 2c2 1 2 1 1-2 0-2 0-3 2-3 4-1 7-4 5-5-1-1-1-1-3 1-3 1-9 3-9 1l2-2c2-1 2-1-1-1-5 1-8-1-15-9l-8-9-19-18c-8-9-15-11-18-6l-2 5-9 9-24 26-5 4-1 3-2 2-4 4-4 3-3 3c-1 3-9 11-17 20l-5 6-6 7-5 6-4 4-4 3c-3 3-4 10-2 12l1 3c0 1 1 2 3 2l2-1c0-3 7-3 12 0 5 2 9 8 6 10v3l-3 2-2 2-4-2-5-2-5-3c-1-3-3-4-4-4-3 0-10-3-13-5-4-3-4-5 0-8 2-2 3-5 1-5-1 0 2-7 4-9 6-6 6-14 3-37-2-8-1-13 1-13l1-1c-1-2 2-11 4-13l7-15h-3l-2-1c-1-1-6 0-6 1l-2 1-6 1c-5 2-7-4-4-13v-8c-2-3-2-4-1-6v-3l-2-6c0-6-1-12-2-10v6c1 7 0 18-2 21-2 2-11 3-22 1-7-2-7-2-4-5l1-4c0-2-1-2-3 0l-7 12-15 23-9 11a46 46 0 0110-18l4-7 3-8 3-4 2-4 2-3 3-5 5-9 6-10a965 965 0 0120-31c2-3 0-3-3 1l-3 3-2 5-4 4-2 2-3 6-3 5-3 5-4 5-5 7-6 10c-4 7-10 10-10 6 0-3-2-2-6 3-5 7-7 8-6 4l2-5 14-21v-5c-1-2 0-2 3-6 4-4 5-5 4-2l-1 2-1 1 9-8 5-4c2-1 4-2 4-4 1-2 2-4 4-4l2-4 2-4c3-3 6-11 6-12-1-1-3 1-7 6s-6 7-9 7c-2 0-3 1-3 2l-2 1-2 2-7 9-7 7-2-3c-2-3 5-15 8-14v-2c0-4 4-13 6-12h3c2 1 3 2 3 4 1 3 6 5 6 2l1-2 3-5c1-5 4-8 6-8l1-3c1-3 5-5 7-3v3c-3 2-2 4 0 4 3 0 6 3 6 6l2 2c1 0 2 0 2 2l4 4c4 5 6 7 6 9 0 3 2 5 3 5 3-1 1-10-2-14l-2-4-4-5-4-6-2-4-3-4-2-2-2-2-3-6-3-5 3-4 7-6c4-3 5-5 2-5l-2 1-3 2-6 4c-5 4-5 4-10-2-6-6-8-9-8-12s-3-3-6 0c-2 2-3 2-4 0s-3-2-7-3c-5 0-6-1-6-2 0-2 1-2 5-2 5 0 5 0 4-1-2-2-2-3 0-3l1-1-2-1c-2 0-4-2-2-3v-4l-2 2-2 3v4c0 3-5 3-7 0-2-2-2-2-7 1s-5 2-5-1l-2-9c-1-7-1-12 2-13l3-5 4-7c5-6 6-8 3-8-2 1-3 0-3-1v-2c-3-2-1-3 5-3 5 1 5 1 8-3l4-6c3-2 3-5 1-6s-1-3 2-3l3-1h5l-3 6c-3 5-3 6-1 5 6-3 6 3-1 11-3 5-2 7 2 3h2c1 2 3 0 5-4 0-2 3-4 5-5l4-4 3-4 5-5c0-2 2-3 2-3l3-1 2-2c2 0 1 2-3 6-2 2-4 4-4 6-1 2 1 4 2 3l2 2c0 2 1 2 3 2 1-1 2-1 2 1 1 2 4-5 4-11l2-7v-8c-1-1-1-2 1-3 3-2 4-5 2-5a33 33 0 01-22-15l-2-4c1-1-1-7-4-9s-3-5-2-7c2-2 2-3 1-3-4 0-3-4 0-5l2-4 4-7 3-6 5-5 4-6c-1-3 4-2 5 1l3 2c2 0 4-7 3-11-1-1-1-2 1-3l2-6 2-7 2-8c0-4 0-4-2-4-5 0-6 2-5 7l2 4-2 4c-4 4-4 5-3 6 2 3 1 7-1 8s-5-3-5-8l-1-3h-7c-9 0-10-1-14-7l-6-8-5-7-3-5-2-3-2-4c-4-3 0-7 3-4 4 3 5-2 3-8-2-4-4-17-4-26 0-7 1-7 3-8 5-2 7-1 4 2-3 2-3 3-2 4 2 2 4 10 4 18 0 4 0 5 2 5l2-1 1-14 1-14c1 1 2-3 1-10a4062 4062 0 01-6-51l1-6c2-2 2-4 1-9 0-7 0-8 2-10l2-2-3-2c-3-1-2-4 1-5 2-2 3-3 1-3l-4-2c-1-2-1-2 2-3 2-1 3-2 3-5 0-4-2-5-4-2l-3 2-4-9-3-1c-1 0-2 0-1 1l1 3c0 2 0 2-7 2S16 4 16 1l-4-1C9 0 9 0 9 3m90-1l-2 1c-2 0-3 0-3 2-1 2 1 13 2 16l1 14c1 11 1 11-2 13-2 1-2 2-2 5l2 7v3l5-1c9-1 9-1 9-3s0-3 2-3 2 0 2 2c-1 2-1 2 2 2 2 0 3-1 3-5s0-4-2-3c-5 5-6 2-1-5 2-4 3-6 2-7-1-3 0-10 2-12l1-6c-2-11 0-20 5-21l-12-1c-13 0-14 0-14 2m44 0l-2 2c-3 1-2 2 1 2h4c0 3 3 2 3 0l2-4c1-2 1-2-3-2s-5 0-5 2m42-1l3 1c4 2 1 4-5 4l-2 1c0 1 3 2 8 2 9 0 9 3-1 8l-6 3v2c1 2 4 3 4 1l6-7 7-5c6-6 13-8 15-5l3 2c2 0 8-5 6-5l-1-1c0-2-3-2-18-2l-19 1m78 0l2 1h-1l-15 3-5 3c-3 2-5 3-5 5-2 4-7 7-12 7-3 0-4 1-1 3l1 5c0 5 2 6 6 3l14-10 5-4c6-2 7-6 2-5-5 0-3-2 3-4 9-4 18-1 18 7l2 4 1 4 5 6 4 4-2 6a86 86 0 00-3 13c2 2 1 6-1 7l-3 2 7 5c2 1 2 2 2 4l1 3c1 1 6-8 7-16 2-9 3-10 6-8 1 1 2 2 3 1 3 0 3 2 1 4-1 1-2 2-3 1l-1-1-1 14-1 6c-2 4 0 5 6 5 4 0 5 1 8 4l3 4 3-4c2-2 3-3 2-4l-1-4a7 7 0 017 5l1 2 1 1 5 4 6 4 2 2c0 2 2 4 5 4 2 0 2 0 0-4-2-3-1-6 2-6 2 0 3-1 3-2 0-2-3-6-4-6a4 4 0 01-2-7c2 0 2-1 2-2l-1-3-2-1c-3 0-4-3-1-5 2-2 2-2 1-6l-1-12-1-7 2 4 2 6 3 12 3 12c1 6 3 3 3-4 0-5 0-6 2-6 3 0 4-3 4-8l1-5v-2c0-1 0-2 2-2l1 2c-1 1 0 2 1 4l1 4v3c3 3 6 16 4 16l-3 2-3 2c-1 0-2 1-2 3s-1 3-4 4c-3 2-4 4-2 7h3l2-2 7-3c12-5 30-3 28 4-1 2-2 2-5 2l-6-2c-7-1-3 5 5 8l6 2 3 2 7 4c6 3 12 10 8 8l-3 1c0 1 3 5 9 9 4 3 4 3 3 7l1 3c2 0 6 3 6 4 0 2-3 1-3-1-1-2-1-2-4-1h-7c-3 1-5 2-7 9a6 6 0 01-4 5l2 1c1 0 1 1-1 3l-1 3-1 3c-4 4-6 7-6 10 0 2 0 2-1-1s-1-3 1-5l2-5c-1-1 0-2 1-3s1-1-1-1l-3-1c-2 0-5 6-5 7l-1 2-1 2c0 2-3 5-5 5l-1 1-2 3c-2 2-2 5 1 8l2 5 2 4c2 1 2 2 2 6 0 5 0 5 2 5 4 0 5 1 8 9l6 12 3 6 2 5 1 3c-1 2 1 5 4 4 3 0 4 2 2 5-2 2-4 3-9 4-6 2-8 3-4 4 3 0 5 6 2 8v4l2 9 2 9 5 29c0 7 1 13 2 13l1 5 1 9 5 20 2 7c2 3 2 4 0 4s-1 2 2 3c3 0 15 17 15 21l2 8c2 7 3 16 2 19s2 7 5 7c2 0 3 16 2 38l1 4 1-2 2-2 4-1c2-1 6 0 5 2a36 36 0 005 20l1-8-1-10-1-3-1-11-3-15-1-9c0-4-3-21-5-23l-1-9a119 119 0 00-4-20l-2-8c-1-4-1-4 2-5 7-4 14 1 14 7 0 4 1 6 3 8a16 16 0 013 6l1 3 5-2 8-3c3-1 4-4 2-5s-1-4 1-4l1 1c0 1 2 1 9-1 3 0 3 0 4 4 2 6 1 42-1 49l1 3 1 11 1 15 1-227c0-228 0-231-2-231s-4 3-3 6c1 2 0 15-1 17-2 2-3-1-2-5l-1-4v-4a43 43 0 002-6c0-2 0-2-4-1-2 1-2 2-2 5 0 2 0 3-1 2-1-2-4 0-6 3-1 2-2 3-4 3-1 0-2 0-1 1l2 1 2 1-4 8-3 4-3 4-2 4c-1 2-2 5-4 6l-2 3-2 3-2 3c0 2-5 7-8 7-5-1-9 0-10 2-2 3 1 4 5 2s5-2 5 1c0 5-13 10-23 10a108 108 0 01-28-6c-3 0-2-3 0-3 3-1 4-4 1-4s-5-3-5-5c0-3 3-3 30-5l17-2c2-2 1-4-2-4l-3-1-2-2-5-1-6-2-4-1c0-2 4-5 5-5 2 1 4-1 6-4l2-2 7-7 1-1 4-2c2-1 3-2 5-1h22c0-2-5-4-9-4s-4 0-4-3c1-1 0-3-1-4V3l1-2-105-1c-57 0-103 0-102 1m211 2c2 3 5 3 9 0l3-3h-14l2 3M270 4l2 2 4 4c-2 2 3 3 5 2 1-1 1-2-3-5-3-4-8-5-8-3m180 2l-3 1c0-3-15-2-18 1-2 2 0 3 5 2h16c14-1 14-1 13-4-1-2-2-2-4-2h-5c-1-1-3 0-4 2M319 22c-1 2 3 19 5 22 2 2 2 2 0 3l-1 5 2 9c0 5 1 7 4 9 3 3 11 6 12 4 1-1-1-11-3-13l-3-9-8-25-1-3c2-2-1-4-4-4l-3 2m-65 3l-4 3-8 10-7 7c-2 1-3 3-2 3l-3 2c-4 1-5 1-2 1l4 1 14 2a54 54 0 0120 5c3 2 4 0 3-4-1-5-9-9-15-7h-4c-1-1-1-1 1-1 4 1 4 0 2-3-1-3-1-3 1-7l2-7 2-5c2-2 0-2-4 0m161-1l-5 1c-12 1-16 2-15 4s30 1 31-2c0 0-2-2-5-2l-6-1m38 9h-5l-3 1c0 2 6 3 14 2 5 0 7-2 3-2l-3-1h-6m46 6l3 3 2 3-3 2-2 2h3c3 0 3-1 4-5l1-5h-8M17 40c-2 1-1 6 2 9l2 4 4 8 3 6c0 2 4 4 6 3 2-2-1-19-5-23l-1-4c0-3-7-6-11-3m358 3l2 4c1 4 3 4 5 1s2-3-1-4c-3-2-6-3-6-1m44 0v5l1 3 10-1c10 0 16-2 14-3l-5-1-3-1-6-1-7-2-4 1M207 64l-7 4-8 5-7 5-9 7c-5 2-14 11-12 13 0 2 4 1 5 0l1-2c2 0 4-3 5-5l2-3 3-2c7-7 17-8 16-2-1 3-1 3 1 3l3-2c0-3 2-2 2 2 1 4 4 9 6 9l-2 3c-2 1-3 2-2 3 1 0 2 1 2 3l2 2a2 2 0 011 3c-2 0-2 1-1 3 0 2 0 3-4 4-3 2-4 2-3 3l2 1h2c2-1 5 1 5 4h-5c-1-2-7-2-7 0s2 3 7 5l6 2v12l-1 5c0 4 3 6 11 5 2 0 1-19-1-21l-2-10-2-13-3-27-1-12v-7c-1-2-1-2-5 0M23 70l3 8 4 9 2 5 2 4c0 3 2 5 4 5s0-5-6-15l-4-8c0-2-5-10-5-8m73 3c-3 1-3 3 0 4l1 2 2 4 2 1a1511 1511 0 014-12l-9 1m302 6c-4 0-3 4 1 4 3 0 4 0 4 2 1 6 47 11 47 5 0-2-3-4-5-4-3 1-12-1-18-3-9-3-24-5-29-4M91 91l-2 9c0 5-3 14-4 18l-2 7-2 6-1 6-1 5-2 5-2 4-1 5c0 3-5 11-7 13s-2 2-2-2-1-7-4-7c-2 0-4-2-4-4s0-2-1-1c-1 2-1 6 1 7l1 4c0 3 1 3 4 5 4 1 4 2 4 4-1 4 1 4 5-1l5-8 3-12a153 153 0 008-26l2-5 1-3c2 0 5-5 6-11s2-7 4-7 2 0 1 7l1 7c2-1 4-11 3-13s-1-2 1-4c1-2 1-4-2-4l-8-8-4-2-1 6m50-2l-4 4-3 3 2 1c3 1 5 1 6-3l5-3c5-1 6-4 2-3h-4l-1-1c0-2-2-1-3 2M24 102c-10 6-10 18 0 18l6-2 6-4c4-2 5-4 2-7l-3-4c0-2-4-5-6-5l-5 4m307 6c-3 3-7 9-7 11s4 1 5-1l3-5 2-4v-3l-3 2m54 6c0 2 1 3 4 5 2 0 4 2 5 4l2 5c2 1 3 5 2 8l-2 5c0 3-1 6-4 9l-1 2 2-1 3-2 2-2c1-4 12-11 17-13a8 8 0 006-5c2-1-1-3-5-1-3 2-4 1-3-1 1-4-9-12-16-12l-8-1c-3-2-4-2-4 0m113 9c-3 5-3 10-1 12 4 3 2 5-4 5h-6l-2 2c-3 0-4 2-3 4 2 1 0 3-4 3-2 0-2 0-2 5 0 6-1 7-5 9-4 0-5 2-2 4 2 2 2 3-1 3s-11-3-13-5l-6-1-4 1 6 2 16 7 5 4c0 2-7 1-14-3l-9-3-4-1-5-1c-2 0-4 3-2 4l10 8 5 4 5 2a14 14 0 008 3h4l5-4c2 0 4-2 5-3l5-4a20 20 0 0010-10l1-1 2-2 1-2 2-3 1-3 3-7c2-5 3-6 3-13l-3-16-2-1c-2-3-3-2-5 1m-442 2l2 9 2 9 1 2 1-2-1-6-1-6-1-3-1-3-1-4-1 4m265-1l-3 5-2 3-3 7c-4 7-7 14-6 15 0 1 5-5 5-7 0-1 8-17 11-20v-6l-2 3m-222 0l-2 6-2 11a517 517 0 00-8 29l1 2c1 0 4-6 4-9l2-6 2-8a280 280 0 013-19c2-5 1-9 0-6m-16 32l-3 6-1 2c1 1 0 2-1 2l-1 3 2 2c3 0 5-3 5-6l1-7c1-6-1-7-2-2m401-3l-2 2c-4 1-4 4 0 5h5c2-2 2-3 0-6-2-2-3-3-3-1m-332 5l-2 4-3 5-4 8-9 14-3 5-2 4-3 4-3 5-5 9c-3 6-5 9-8 9-2 0-3 2-4 4-3 3-6 4-7 1a39 39 0 017-18c1-2 3-3 5-3 3-1 3-1 2-4-1-1-1-3 1-7 4-6 4-8 1-5l-4 3-1 2-1 2c-2 0-13 8-14 10-1 4-3 2-2-3 1-6 1-7-1-8-1 0-3 4-2 6a12 12 0 01-2 11c0 2-4 4-6 4s-7 4-6 5c2 1 7-1 12-6 5-6 6-5 6 1l-3 8v5c2 1 2 1 0 5-2 3-2 3-1 5 2 1 2 3 1 5v1l1-1c1-1 2-2 5-2l9-1h4l-2-3c-1-3-1-4 1-4l6-6a75 75 0 0114-26l4-5 4-5 2-5 5-8 5-8 5-8c4-6 4-9 2-11-1-1-2 0-4 2m40 2l1 4 1 3c0 3 1 3 3-1 2-2 2-2 9-2h9c3-1 1-2-4-2-7 0-12-1-11-2 0-2 0-3-4-3s-4 0-4 3m184 18c-1 1 0 6 1 6l1 2c0 3 2 5 4 5s2-1 1-4l-2-4-1-2-1-3c0-2-2-3-3 0m123 4l-4 3v10l1 10-3-1c-2 0-3 0-2 1 3 0 2 4 0 5-3 2-4 5-2 5 1 1 0 1-2 1-4 0-5 2-2 4 2 2 1 7-2 7-4 0-5 13-1 14v9l-2 8v6l4 2 14 2 8 1 1-5v-14c1-8 1-10-1-12v-4l2-2c1-13 0-29-2-30h-3l-2-2c-1-2 1-13 2-13l1-4c0-5 0-5-5-1m-82 15c-3 7-3 12 0 11s5-3 3-5v-6c0-6-1-6-3 0m-108 3a50 50 0 01-17 11l-7 1-5 1 1 1c2 2 1 3-5 7-7 4-18 7-24 7-2 0-3 1-1 3h9l6-1c1-2 3-2 3-1h3c9-1 13-3 13-5l-6 2-6 1c-2-1 4-5 7-5h2l6-5a81 81 0 009-6l2-1 5-3c4-2 9-7 9-8s-3-1-4 1m-267 4c-4 2-5 3-3 5h3c2-2 2-2 3 0s-1 4-3 3c-3-2-4 2-3 7 2 8 7 8 6 0v-3l2 1c0 2 3 1 6-1l4-2c2-1 3-5 1-6-1 0-1-1 1-1 4-1 3-3-1-4-2 0-3 0-2 2 0 1-5 1-7-1h-7m109 6l-3 6-2 2-5 8-9 10c-5 6-6 10 0 5 4-4 5-5 7-3 1 1 1 1 1-1l1-2 1-3 3-5 2-4 2-3 1-3 2-4c3-3 5-9 4-9l-5 6m265 0l1 3 2 4 1 4 1-2c0-2 1-3 3-3 3-1 5-3 5-5s-3-1-4 2c-2 2-4 2-5 0 0-3-2-5-4-3m-197 11a80 80 0 01-18 4c-2 1-5 2-9 1h-7c-3 1 3 3 11 3s14 5 9 7c-3 1-3 2-3 6l-2 10-2 12-4 12-2 8c0 3-2 4-6 2-3-2-3-3-1-11 1-4 1-9-1-5 0 1-1 2-2 1h-14l1 1v1l-1 1h9l-1 2c-2 4-2 4 0 4l1 1c0 2 4 7 7 7l2 3 1 2 3 3c4 4 8 3 9-1s4-9 5-8v13h6c4 0 5-1 5-2 0-2 2-5 3-4l-1 2v1l1 2 1 3c1 0 2 2 1 3l1 3c2 1 2 2 1 4-1 5-1 11 1 11l1-2 1-2 1-5 1-6 1-4 1-7 3-11c0-7 0-7-2-7-3 0-7 4-7 7 0 6-5 7-9 2-3-4-2-19 1-21v-7a33 33 0 012-16l9-14 2 3c0 1 1 2 3 2s3 1 5 6c3 8 6 8 3-1v-4c3-2 2-7-2-9l-2-4c0-7-2-7-16-2m31 24c0 4 10 8 10 4l-2-2-2-1c0-2-6-3-6-1m-117 6l-4 8-3 5-4 9-1 3-2 3c0 2 2 1 3-2l3-4 6-11 4-8v-4l-2 1m37 1c-10 2-19 10-16 13 1 2 0 8-3 10-2 2-3 0-2-4 1-5-5 1-11 11l-2 4h8c3-5 7-9 7-8 0 2 2 3 3 1l2-1 3-3 2-4 4-2c1-1 2-3 4-3 2-1 2-1 1-4 0-2 0-3 2-5 6-7 6-8-2-5m32 2c-2 2-2 2-1 5s2 5 1 11c0 8 1 12 5 12 3 0 3-1 3-14l1-12-3 1c-1 0-2 0-2-2 0-3-1-3-4-1m60-1h-4l-4 1 3 10 1 3 2 6 2 5 4 12 1 5 3 8 2 7-10-5c1-1-1-3-3-3-1 1-1 1 1 3l3 4 2 3 1 3c0 3 0 3 5 3l5 1a60 60 0 00-5-20l-1-7-8-32c-2-5-1-7 3-5 3 2 10 1 10-1 0-1-12-3-13-1M36 276l-7 11 2 2c3 2 2 3-3 3-4 0-4 0-5 9-1 6 1 11 2 11l2-6c0-4 1-5 5-9l4-5 3-5c3-2 4-5 5-10l2-10c1-6-2-3-10 9m255 1l3 11 2 5v3c-1 0-1 1 1 3l1 5 1 2v2c-2 2 0 3 8 3h7l-1-3c-3-5-4-8-4-11 0-5-7-13-13-16l-4-4-1-1v1m-168 10l-4 4-3 1-3 11c0 1 0 2-2 1-2 0-3 6-1 8 1 2 4 1 5-1 2-6 4-10 7-10s4 2 2 6c-3 4-1 4 3 0 2-4 4-5 4-2l1 1 1-1 3-1c4-2 5-3 5-8 0-3 0-4-2-4l-3-3c-1-2-1-2-4 3s-4 6-6 6-2-1-2-3c0-6 1-9 2-10 2-1 3-3 1-3-1 0-3 2-4 5m381-1l-3 1c-2 0-2 0-2 4l-1 5c-2 0-4 2-3 4 0 3 9 0 9-3h1l1-4v-6c1-2-1-2-2-1m-82 7l4 11c2 3 2 6 2 10l2 10 5 12a47 47 0 006 14 12 12 0 0012 10c7 3 7 0 1-5l-3-5-2-6-4-9-6-14-4-9-7-12-4-9c-2-5-3-4-2 2m-78 8l9 23 3 9 1 2 2 5 3 6 4 8c0 3 1 3 3 3l3 1c3 3 2-1 0-7-3-7-4-11-6-22-4-13-5-16-8-12-2 2-4 1-5-1l-2-3-1-3-1-3-2-4c0-2-3-4-3-2M85 325c-3 17-3 18 0 19l4 3c0 2 2 3 3 3l5 2 3 2 5 1c3 2 5 2 11 2 11 0 16 1 16 3 0 4-3 6-9 8-4 0-7 2-8 3l-5 1-4 2-4 2c-2 0-3 1-3 2h2c20-1 31-4 33-7l2-1 5-3c4-3 4-3 2-6v-4c1-2 1-2-4-2-11 0-29-10-43-25-9-9-10-10-11-5m72 0l-1 27c0 23 0 25-2 26-4 3 0 29 4 29 2 0 6-5 6-7l2-7 3-10c0-4 1-5 2-5l1 11c0 14 0 17 3 17 2 0 3 1 3 9l1 10v11c2 2 2 4 1 4-2 0-1 2 1 2 0 0 2 1 2 3 2 3 4 5 7 3h4c3 1 6 0 6-1s-5-2-7-1c-4 1-10-7-11-15l-1-18 1-10-3 1h-4l1-6c0-13 3-25 5-23l3-14c1-4 1-4-3-7-6-3-17-16-20-24l-4-5m107 7c-4 1-4 3-1 5l5 4c4 4 5 3 6-3l1-7c2-2-6-1-11 1m-227 2l-1 2-2 1-1 1c-2 0-6 4-7 7s-1 4 2 6c2 2 2 2 1 5s-1 4 1 5c1 1 1 1 1-1l1-2c1 1 0 2-1 4v3l2-3 2-3c3-4 5-27 3-27l-1 2m456-1l4 4c3 2 4 4 4 6l2 5 3 6c0 4 2 6 3 5 2 0 1-8-1-11-4-9-15-19-15-15m-152 13v5c1 4-1 6-3 5l-2-3-1-1 1 3v5l1 3 4 4 2 4 3-2c4-2 5-5 2-8-3-2-5-10-3-11v-4c-2-4-3-4-4 0m-76 2c-1 3-2 5-2 12l-4 5c-4 3-5 4-2 4 8 0 20-19 14-23-3-3-4-3-6 2m150 1l-4 2c-2 0-3 0-2 1a5 5 0 013 7l5 3 4 3c1 0 1-5-1-10-3-7-3-7-5-6m-163 29c-4 6-1 20 4 21l5 1c8 4 10 1 2-7-6-7-9-12-9-14s-2-3-2-1m61 2c-1 1-5 12-6 20l-3 9c-3 5 1 8 10 9l1 8c0 7 2 10 3 3l-1-18c-1-11 0-18 5-24l2-5c0-3-4 2-6 7-3 8-5 6-4-2 1-6 1-8-1-7m126 50l-7 4-5 4h2c2-1 2-1 2 1a1 1 0 102 0l1-2 1 1c0 1 1 2 3 2 3-1 5-4 2-5v-2c2-2 3-4 1-4l-2 1m-145 7c-2 0-4 1-5 3l-6 2-4 2c0 2 3 3 6 1l6-3c7-3 9-6 3-5m90 5v2c1 1 2 3 1 4-1 4 3 9 6 9s3 0 2-1l-2-1c0 2-2 1-2-1l-1-2a3 3 0 010-3l1 1 1-1 1-4 3-1c2-2 2-2-2-2l-6-1-2 1M70 452c-1 10 0 22 2 23s2-20-1-22l-1-1m440 16h-8c-9-1-9-1-9 12l2 23c0 17 1 22 3 22l1-2c0-5 2-8 5-8 2 0 3-1 4-6s3-6 3-3c1 1 1-3 1-9 0-9 0-11-1-9s-1 2-2 1c-2-3-1-10 1-9 2 0 2-1 2-7 0-8 0-8-2-5m-225 5l1 7 3 13 4 15 1 6 4 22c2 4 3 10 4 21a120 120 0 003 20c0 2 1 3 3 2v-8c-2-15-2-21 0-22v-5l-2-4-1-4-3-10-2-11c-2-2-2-5-2-10a49 49 0 00-8-28l-5-10v6m173 2h-2l-2-1c-1 0-5 9-5 12 0 1 0 2-2 2-2-1-2 1 0 4l2 4 2 5c2 5 3 12 1 12-3 0-4-2-5-9-1-8-2-10-4-8a84 84 0 003 26l1-1 3-1c2-1 3-1 3 6l7 25 3 9 2 9 1 8c1 7 5 16 6 14 1-3 0-14-2-24l-3-14c-1-14-1-16-3-21l-3-6-2-3c-2-3-3-7 0-6l1 1 7 14 3 5c2 1 4 3 5 7l4 7 1 3 3 1c3 0 4-4 1-6v-8c-2-1-1-6 0-5 1 0 2-1 1-2l-1-3c-4 0-6-2-3-3l-4-19-2-9c-2-10-14-29-17-25m-137 35l2 7 1 8 1 13c2 13 2 14 1 17a86 86 0 0018 37 4 4 0 003 2l-1-1-1-5-1-6-2-18a115 115 0 00-3-28l-1-6c-2-16-2-17-4-18-2 0-4-2-6-4-5-5-7-4-7 2m-16 0l1 2 1 2v4l1 6 2 4c1 0 1-6-1-11l-1-7c1-2-2-3-3 0M66 520l-2 4-1 3c-2 0-1 4 2 7 5 5 6 4 6-4v-9a3 3 0 00-5-2m265 9l2 32c2 11 3 13 5 10 1-3 0-20-3-35-1-9-2-11-4-7m-21 4l1 5 1 7v11l3 6c2 4 4 26 4 37l1 10c1 0 2-4 3-15l1-12c2-1-2-12-4-10-2 1-2-3 0-6a58 58 0 00-3-30l-3-4-3-2-1 3m179 12c0 2 1 5 3 7l2 4 1 3c2 1 1 4-1 4l-5 1v-1c1-1-4-6-5-5-3 1 4 15 8 16 2 1 3 0 1-4-2-3-1-5 1-3h3l3 3 1 3 3 6c4 8 5 8 4 2l-1-6-1-3-2-5c-3-1-4-5-5-10l-2-3-1-1-2-4-2-4-2-2c-2-1-2 0-1 2m-33 33l-3 11v2c2 0 4 4 3 7v3c1-1 6 4 6 5l1 3c2 0 0-14-5-28-1-4-2-5-2-3m36 4l2 6 2 4 2 7 4 8c2 4 3 5 5 2 1-1 1-1-1-3l-3-4-1-4-1-6-1-5-1-4-2-3c-4-3-5-2-5 2m-281 24l-22 24c0 4 3 3 6 0a73 73 0 017-8c0-2 3-6 5-6v-1c0-2 0-2 1-1 2 0 9-6 12-10 2-5 4-7 10-13l5-6c0-3-5 2-24 21m82-20l-2 6-1 4c1 1 1 0 1-1 1-4 5-5 9-2 2 1 2 1 1-1l-8-8v2m92 7l-1 5c1 2 0 3-2 5-3 2-5 8-3 9l5-2c1-1 1 0 1 1-1 1 0 4 1 5l1 5c0 3 2 3 3 1 2-4 2-8 0-12l-2-8c0-6-2-11-3-9m126 20l-1 3c1 1 0 2-1 3l-2 2h1l1 2c-2 4-2 5 0 7l2 3v2c1 2 2-17 1-20l-1-2m-51 12c0 5 0 6-2 7-3 1-3 3 1 3 5 0 9-5 5-7l-1-3c1-2 0-5-2-5l-1 5m-91-3l-1 2-3 6-3 6-2 2-9 18-2 4-1 3 4-4c0-2 6-10 7-10v-1l2-3 2-2 6-10 4-4 2-4c3-2-3-5-6-3m132 15c-3 3-6 16-3 16 4 0 7-4 7-11s-1-8-4-5m-331 10c-7 6-11 11-11 12l2-1 4-1c2 1 3 0 3-1l4-3c6-2 12-10 11-14-2-4-1-4-13 8m97 3c-4 6-6 13-4 16v5c-2 3-2 5 0 4l1-2 2-5 1-8c0-4 1-6 2-6 2-2 3-7 1-7l-3 3m155 2l-6 14-2 6c1 1 5-4 5-6l2-4 1-4v-1c1 0 2-5 1-6s-1-1-1 1m45 2c-2 1-4 3-3 5l1 12v3c2 6 3 14 2 17v7l2 8c1 4 3 5 3 1 0-5 0-6 2-6l1-2c1-3 2-3 3 0l1 2c1 0 2 1 2 3l1 3 1-3a88 88 0 00-5-27l-2-4c-2 0-3-2-1-2 2-1-2-12-3-12l-1-3c-1-2-2-3-4-2m33 5l-1 6-2 5c-1 1-2 13-1 14 2 1 1 5-1 6a51 51 0 003 33c0 3 2 3 5 0s5-1 6 4l1 6c1 2 2-3 2-31 0-36 0-36-2-34-3 2-3 1-2-3 2-6-4-11-8-6m-149 15l-1 2-4 7 18 5c3-1 2-4-2-6l-6-6c-2-4-5-5-5-2m119 44v24l-1 4 2-3 2-4v-7a14 14 0 000-13c0-4-2-4-3-1m-371 3c-1 1-1 1 1 1l8 2c4 3 12 5 14 5 4-1 2-3-5-5l-8-2c-3-1-9-2-10-1m36 8l-5 1c-4-1-5 1-1 3 5 3 9 3 16 2 5-1 7-3 4-3l-3-1c-2-2-11-4-11-2m262 5a12 12 0 01-3 8c0 1 1 1 2-1l3-4 2-3c1-1 1-2-1-4l-3-2v6m-242 7c-9 0-8 1 5 10 10 7 11 7 15 2 2-2 2-2 4-1 3 2 5 1 9-2l5-3c2 0 5-3 5-4l-6-1h-8l-9 1c-5 1-7 1-10-1l-10-1m354 2l-1 6c1 4 0 5-3 3-1-1-1-1-1 1l2 2c3 0 3 1 1 5-2 3-2 10 0 12l1 5 2 7 2 4v-47l-3 2m-30 16c0 6-3 6-5 1-1-1-1-1-1 1v7l2 9c0 10 10 46 12 42l2-2a6 6 0 004-4l-1-6c0-4 0-6-2-8l-3-4-2-4c-2-2-6-13-5-14v-22l-1 4m-240 9v8c0 6-2 8-10 7-7-1-15 8-12 13 1 3 6 4 27 6 18 2 35 4 41 6 3 1 4 1 7-1 5-4 5-3-4-13l-9-8h-7c-7 0-8 0-9-2l-1-2-2 2c-4 5-16 4-16-1 0-2 8-5 16-7 3 0 4-1 5-2l3-3c6-4 3-4-13-5-14 0-15 0-16 2m-58 2c-2 2-3 4-1 6 2 1 5 10 6 19l2 11 1 5c-2 5 0 6 20 6 22-1 22-1 9-12a29 29 0 01-9-10l-1-1-2-3c-5-3-4-5 1-5 6 1 8 0 4-3l-3-2c0-2-5 0-5 2l-2 2-6-10c0-4-11-7-14-5m-91 2c-5 3-4 4 2 3 6 0 11-3 9-4-2-2-7-1-11 1m28 16c-7 1-11 5-10 11 0 2 0 2-3 2a3 3 0 10-1 6l4 1 8 3 8 3c7 3 9 0 8-11v-10c3-5-2-7-14-5m207 23l-9 1c-6 0-9 1-8 3 2 4 11 4 17 1 8-4 7-9 0-5m13 7c0 2 4 3 14 3l8-1c0-1-2-2-7-2h-15m-23 21c1 2 1 2-50 2l-29 1 53 1 56-1-6-2h-3c-1 2-8 1-10-1-3-3-11-3-11 0m-153 2h-30l-30 1 58 1 58-1-56-1" fill-rule="evenodd" tabindex="-1" itemprop="bold"></path></symbol></defs><defs class="gradients"><g class="radial"><radialGradient id="-posters-1652403098702-radial"><stop itemprop="radial" stop-color="hsla(25, 45%, 24%, 1.00)" offset="0%"></stop><stop itemprop="radial" stop-color="hsla(35, 32%, 48%, 1.00)" offset="15%"></stop><stop itemprop="radial" stop-color="hsla(33, 31%, 50%, 1.00)" offset="30%"></stop><stop itemprop="radial" stop-color="hsla(31, 24%, 60%, 1.00)" offset="45%"></stop><stop itemprop="radial" stop-color="hsla(29, 21%, 59%, 1.00)" offset="60%"></stop><stop itemprop="radial" stop-color="hsla(24, 22%, 36%, 1.00)" offset="75%"></stop><stop itemprop="radial" stop-color="hsla(19, 40%, 14%, 1.00)" offset="90%"></stop></radialGradient><radialGradient id="-posters-1652403098702-radial-background"><stop stop-color="hsla(25, 45%, 80%, 1)" offset="0%"></stop><stop stop-color="hsla(35, 32%, 80%, 1)" offset="15%"></stop><stop stop-color="hsla(33, 31%, 80%, 1)" offset="30%"></stop><stop stop-color="hsla(31, 24%, 80%, 1)" offset="45%"></stop><stop stop-color="hsla(29, 21%, 80%, 1)" offset="60%"></stop><stop stop-color="hsla(24, 22%, 80%, 1)" offset="75%"></stop><stop stop-color="hsla(19, 40%, 80%, 1)" offset="90%"></stop></radialGradient><radialGradient id="-posters-1652403098702-radial-light"><stop stop-color="hsla(25, 45%, 60%, 1)" offset="0%"></stop><stop stop-color="hsla(35, 32%, 60%, 1)" offset="15%"></stop><stop stop-color="hsla(33, 31%, 60%, 1)" offset="30%"></stop><stop stop-color="hsla(31, 24%, 60%, 1)" offset="45%"></stop><stop stop-color="hsla(29, 21%, 60%, 1)" offset="60%"></stop><stop stop-color="hsla(24, 22%, 60%, 1)" offset="75%"></stop><stop stop-color="hsla(19, 40%, 60%, 1)" offset="90%"></stop></radialGradient><radialGradient id="-posters-1652403098702-radial-regular"><stop stop-color="hsla(25, 45%, 40%, 1)" offset="0%"></stop><stop stop-color="hsla(35, 32%, 40%, 1)" offset="15%"></stop><stop stop-color="hsla(33, 31%, 40%, 1)" offset="30%"></stop><stop stop-color="hsla(31, 24%, 40%, 1)" offset="45%"></stop><stop stop-color="hsla(29, 21%, 40%, 1)" offset="60%"></stop><stop stop-color="hsla(24, 22%, 40%, 1)" offset="75%"></stop><stop stop-color="hsla(19, 40%, 40%, 1)" offset="90%"></stop></radialGradient><radialGradient id="-posters-1652403098702-radial-bold"><stop stop-color="hsla(25, 45%, 13%, 1)" offset="0%"></stop><stop stop-color="hsla(35, 32%, 13%, 1)" offset="15%"></stop><stop stop-color="hsla(33, 31%, 13%, 1)" offset="30%"></stop><stop stop-color="hsla(31, 24%, 13%, 1)" offset="45%"></stop><stop stop-color="hsla(29, 21%, 13%, 1)" offset="60%"></stop><stop stop-color="hsla(24, 22%, 13%, 1)" offset="75%"></stop><stop stop-color="hsla(19, 40%, 13%, 1)" offset="90%"></stop></radialGradient></g><g class="vertical"><linearGradient id="-posters-1652403098702-vertical" x1="0" x2="0" y1="0" y2="100%"><stop itemprop="vertical" stop-color="hsla(30, 38%, 32%, 1.00)" offset="0%"></stop><stop itemprop="vertical" stop-color="hsla(34, 29%, 53%, 1.00)" offset="15%"></stop><stop itemprop="vertical" stop-color="hsla(30, 22%, 59%, 1.00)" offset="30%"></stop><stop itemprop="vertical" stop-color="hsla(24, 25%, 30%, 1.00)" offset="45%"></stop><stop itemprop="vertical" stop-color="hsla(28, 39%, 30%, 1.00)" offset="60%"></stop><stop itemprop="vertical" stop-color="hsla(34, 30%, 53%, 1.00)" offset="75%"></stop><stop itemprop="vertical" stop-color="hsla(30, 23%, 59%, 1.00)" offset="90%"></stop></linearGradient><linearGradient id="-posters-1652403098702-vertical-background" x1="0" x2="0" y1="0" y2="100%"><stop stop-color="hsla(30, 38%, 80%, 1)" offset="0%"></stop><stop stop-color="hsla(34, 29%, 80%, 1)" offset="15%"></stop><stop stop-color="hsla(30, 22%, 80%, 1)" offset="30%"></stop><stop stop-color="hsla(24, 25%, 80%, 1)" offset="45%"></stop><stop stop-color="hsla(28, 39%, 80%, 1)" offset="60%"></stop><stop stop-color="hsla(34, 30%, 80%, 1)" offset="75%"></stop><stop stop-color="hsla(30, 23%, 80%, 1)" offset="90%"></stop></linearGradient><linearGradient id="-posters-1652403098702-vertical-light" x1="0" x2="0" y1="0" y2="100%"><stop stop-color="hsla(30, 38%, 60%, 1)" offset="0%"></stop><stop stop-color="hsla(34, 29%, 60%, 1)" offset="15%"></stop><stop stop-color="hsla(30, 22%, 60%, 1)" offset="30%"></stop><stop stop-color="hsla(24, 25%, 60%, 1)" offset="45%"></stop><stop stop-color="hsla(28, 39%, 60%, 1)" offset="60%"></stop><stop stop-color="hsla(34, 30%, 60%, 1)" offset="75%"></stop><stop stop-color="hsla(30, 23%, 60%, 1)" offset="90%"></stop></linearGradient><linearGradient id="-posters-1652403098702-vertical-regular" x1="0" x2="0" y1="0" y2="100%"><stop stop-color="hsla(30, 38%, 40%, 1)" offset="0%"></stop><stop stop-color="hsla(34, 29%, 40%, 1)" offset="15%"></stop><stop stop-color="hsla(30, 22%, 40%, 1)" offset="30%"></stop><stop stop-color="hsla(24, 25%, 40%, 1)" offset="45%"></stop><stop stop-color="hsla(28, 39%, 40%, 1)" offset="60%"></stop><stop stop-color="hsla(34, 30%, 40%, 1)" offset="75%"></stop><stop stop-color="hsla(30, 23%, 40%, 1)" offset="90%"></stop></linearGradient><linearGradient id="-posters-1652403098702-vertical-bold" x1="0" x2="0" y1="0" y2="100%"><stop stop-color="hsla(30, 38%, 13%, 1)" offset="0%"></stop><stop stop-color="hsla(34, 29%, 13%, 1)" offset="15%"></stop><stop stop-color="hsla(30, 22%, 13%, 1)" offset="30%"></stop><stop stop-color="hsla(24, 25%, 13%, 1)" offset="45%"></stop><stop stop-color="hsla(28, 39%, 13%, 1)" offset="60%"></stop><stop stop-color="hsla(34, 30%, 13%, 1)" offset="75%"></stop><stop stop-color="hsla(30, 23%, 13%, 1)" offset="90%"></stop></linearGradient></g><g class="horizontal"><linearGradient id="-posters-1652403098702-horizontal" x1="0" x2="100%" y1="0" y2="0"><stop itemprop="horizontal" stop-color="hsla(24, 45%, 21%, 1.00)" offset="0%"></stop><stop itemprop="horizontal" stop-color="hsla(30, 33%, 41%, 1.00)" offset="15%"></stop><stop itemprop="horizontal" stop-color="hsla(31, 32%, 45%, 1.00)" offset="30%"></stop><stop itemprop="horizontal" stop-color="hsla(30, 25%, 59%, 1.00)" offset="45%"></stop><stop itemprop="horizontal" stop-color="hsla(29, 22%, 59%, 1.00)" offset="60%"></stop><stop itemprop="horizontal" stop-color="hsla(26, 20%, 49%, 1.00)" offset="75%"></stop><stop itemprop="horizontal" stop-color="hsla(25, 36%, 21%, 1.00)" offset="90%"></stop></linearGradient><linearGradient id="-posters-1652403098702-horizontal-background" x1="0" x2="100%" y1="0" y2="0"><stop stop-color="hsla(24, 45%, 80%, 1)" offset="0%"></stop><stop stop-color="hsla(30, 33%, 80%, 1)" offset="15%"></stop><stop stop-color="hsla(31, 32%, 80%, 1)" offset="30%"></stop><stop stop-color="hsla(30, 25%, 80%, 1)" offset="45%"></stop><stop stop-color="hsla(29, 22%, 80%, 1)" offset="60%"></stop><stop stop-color="hsla(26, 20%, 80%, 1)" offset="75%"></stop><stop stop-color="hsla(25, 36%, 80%, 1)" offset="90%"></stop></linearGradient><linearGradient id="-posters-1652403098702-horizontal-light" x1="0" x2="100%" y1="0" y2="0"><stop stop-color="hsla(24, 45%, 60%, 1)" offset="0%"></stop><stop stop-color="hsla(30, 33%, 60%, 1)" offset="15%"></stop><stop stop-color="hsla(31, 32%, 60%, 1)" offset="30%"></stop><stop stop-color="hsla(30, 25%, 60%, 1)" offset="45%"></stop><stop stop-color="hsla(29, 22%, 60%, 1)" offset="60%"></stop><stop stop-color="hsla(26, 20%, 60%, 1)" offset="75%"></stop><stop stop-color="hsla(25, 36%, 60%, 1)" offset="90%"></stop></linearGradient><linearGradient id="-posters-1652403098702-horizontal-regular" x1="0" x2="100%" y1="0" y2="0"><stop stop-color="hsla(24, 45%, 40%, 1)" offset="0%"></stop><stop stop-color="hsla(30, 33%, 40%, 1)" offset="15%"></stop><stop stop-color="hsla(31, 32%, 40%, 1)" offset="30%"></stop><stop stop-color="hsla(30, 25%, 40%, 1)" offset="45%"></stop><stop stop-color="hsla(29, 22%, 40%, 1)" offset="60%"></stop><stop stop-color="hsla(26, 20%, 40%, 1)" offset="75%"></stop><stop stop-color="hsla(25, 36%, 40%, 1)" offset="90%"></stop></linearGradient><linearGradient id="-posters-1652403098702-horizontal-bold" x1="0" x2="100%" y1="0" y2="0"><stop stop-color="hsla(24, 45%, 13%, 1)" offset="0%"></stop><stop stop-color="hsla(30, 33%, 13%, 1)" offset="15%"></stop><stop stop-color="hsla(31, 32%, 13%, 1)" offset="30%"></stop><stop stop-color="hsla(30, 25%, 13%, 1)" offset="45%"></stop><stop stop-color="hsla(29, 22%, 13%, 1)" offset="60%"></stop><stop stop-color="hsla(26, 20%, 13%, 1)" offset="75%"></stop><stop stop-color="hsla(25, 36%, 13%, 1)" offset="90%"></stop></linearGradient></g></defs><defs class="filters"><filter id="light-filter"><feColorMatrix in="SourceGraphic" type="matrix" values="1.5 0 0 0 0
                0 1.5 0 0 0
                0 0 1.5 0 0
                0 0 0 1.5 0"></feColorMatrix></filter><filter id="regular-filter"><feColorMatrix in="SourceGraphic" type="matrix" values="1.5 0 0 0 0
                0 1.5 0 0 0
                0 0 1.5 0 0
                0 0 0 1 0"></feColorMatrix></filter><filter id="bold-filter"><feColorMatrix in="SourceGraphic" type="matrix" values="1 0 0 0 0
                0 1 0 0 0
                0 0 1 0 0
                0 0 0 1 0"></feColorMatrix></filter><filter id="emboss"><feConvolveMatrix kernelMatrix="1 0 0
                      0 0 0
                      0 0 -1"></feConvolveMatrix></filter></defs><g itemscope="" itemtype="/settings"><use itemprop="background" href="#-posters-1652403098702-background" style="fill: url(&quot;#-posters-1652403098702-radial-background&quot;);"></use><use itemprop="light" href="#-posters-1652403098702-light" filter="url(#light-filter)" style="fill: url(&quot;#-posters-1652403098702-vertical-light&quot;); stroke: url(&quot;#-posters-1652403098702-horizontal-background&quot;);"></use><use itemprop="regular" href="#-posters-1652403098702-regular" filter="url(#regular-filter)" style="fill: url(&quot;#-posters-1652403098702-horizontal-regular&quot;); stroke: url(&quot;#-posters-1652403098702-vertical-light&quot;);"></use><use itemprop="bold" href="#-posters-1652403098702-bold" style="fill: url(&quot;#-posters-1652403098702-vertical-bold&quot;); stroke: url(&quot;#-posters-1652403098702-radial-regular&quot;);"></use><use class="emboss light" tabindex="-1" href="#-posters-1652403098702-light" fill="gray" filter="url(#emboss)"></use><use class="emboss regular" tabindex="-1" href="#-posters-1652403098702-regular" fill="DimGray" filter="url(#emboss)"></use><use class="emboss bold" tabindex="-1" href="#-posters-1652403098702-bold" fill="gray" filter="url(#emboss)"></use></g></svg>