<svg id="-posters-1652403247029" itemscope="" itemtype="/posters" itemid="/+/posters/1652403247029" viewBox="0 0 512 682" preserveAspectRatio="xMidYMid slice" tabindex="0" xmlns="http://www.w3.org/2000/svg">
  <defs class="symbols">
    <symbol id="-posters-1652403247029-background">
      <rect itemprop="background" width="100%" height="100%" tabindex="-1"></rect>
    </symbol>
    <symbol id="-posters-1652403247029-light">
      <path d="M0 7c0 8 0 8 12 12l7 5 4 3 3 3 6 5 4 10 2 9c0 3-3 3-3 0-1-2-6-4-7-2l-3 1c-1-1-3 0-4 1l-3 2c-2 0-2 1-2 5s0 5-1 4l-4-1c-3 0-3 0-3-4 0-3 0-4-2-4l-3-1-2-2c-1-1-1 2-1 19v21l3 1 5 2h1c0 1 1 2 3 2l4 2 2 3v1c-1 0-2 1-2 3 0 3-2 5-5 5l-3 1-4 2H0v493h4c3 0 4 0 4-2s0-2 6-2l12 1c5 0 6 0 6 2l4 1 4-1c0-3 7-3 10 0h4l1 1 3 3 28 1c33-1 97 1 98 2 1 3 6 7 10 7l8 2 8 1 4 1 3 2 3 3c-1 2 2 2 3 0v-2l1 2 2 2c1 0 6-4 6-6l2-2 3-2 6-1c11 2 14 2 22 7l14 6 7 3v45h15l15-1 1-15 1-16 8 4 9 4 6 2c2 1 5 2 18 2 18 0 30-2 42-8a67 67 0 0026-22l1-1 3-2 1-1 4 1c3 0 4 0 4 2l3 1 5 2c1 1 4 3 7 3l3 3 4 4 3 4c-1 1 0 2 2 4 3 2 3 3 2 8-1 4 0 6 1 7 2 1 2 3 2 8 0 4 0 7 1 6h4l17 1h18v-66l1-341V0H0v7m248 0l-7 2-12 1-12 2-7 1-9 2-7 2h-4a2 2 0 10-1 3l3 1c0 2 3 3 8 5 3 0 3 0 4-2 1-3 1-3 5-3s5 0 5-2 2-2 5-1 3 1 2 4c0 2 0 2 3 2 4-1 17 1 19 3 1 1 1 1 1-1-1-2-1-2 1-2l3 1h1l6 2c3 1 5 2 6 1 3 0 3 0 5 5l4 5 2-1c-1-3 2-2 4 0h1a2 2 0 014 1c-1 2 0 3 1 2l1-1 1-3c0-3-5-5-10-5v-1c1-1 2-2 1-3 0-1 1-1 4 1l5 3c3 2 6 7 9 12a23 23 0 0012 15l3 2 2 2c1 2 1 2 3 1 2 0 3 0 4 2 1 3 1 3-1 3v1l2 1 3 2 3 1 8 8 3 2c2 0 2 0 1-1-2-2-3-3-1-3 1 1 2 0 1-4-1-5 0-7 1-4l4 5 1 2c-2 0 0 5 2 5l2 2v1c2 0 5 3 4 4h-4c-3-1-8 0-12 1-2 0 2 5 4 5l4 2h2c2-1 4-1 4 2l3 1c3 0 4 1 3 3l-1 2 2-1c1-2 3-1 4 2l1 1 1-1c2 1 0 4-2 4s-2 0-2 2c1 3-1 5-4 5l-4 1c0 1-16 1-18-1-2-1-13 0-17 1h-6l-6-1-11 1c-8 0-9 0-9 2-1 3-2 2-6 0l-4-3-1-1 3-1c2-1 1-2-4-1-5 0-7-1-9-2s-3-2-6-1c-5 1-6 1-19-9l-14-8-13-4c-18-7-41-9-58-6l-20 5-17 5-3 3c-1 2-1 2-3 2-3-2-4 0-2 2 3 3 4 3 6-1 3-2 3-2 7 0l8 1c5-1 5-1 5 1-1 1 0 2 1 2l4 2 4 2 4 1h2v-2c-3-2-1-2 7-1l8 1 1 2c0 1 2 2 7 1l2 1 1 2c2 2 1 2-4 0l-6-2-3-1c-2-2-6-3-6-2l2 2c1 1 1 1-1 2-1 0-2 1-2 5s2 5 5 3h7c-2-2 1-1 4 2s5 3 9 4c4 0 6 0 7 2 2 3 3 3 2 0s-1-4 2-2l1 4c-1 2 1 4 5 5h2c0-2 3-3 4-1 0 2 7 2 7 1a70 70 0 0124 2l4 2 4 2 3 2c3 2 4 1 4-1s0-3 4-3 4-1 2-2l-4-1v-3c-2 0-5-4-6-7l-2-2v-1c0-2 3-1 3 0l2 3c1 1 2 2 1 3l2 2c2 0 3 2 3 2l2 1c2 0 8 3 13 8l4 2c2 0 1 6-2 8-2 1 0 4 3 4 2 0 4 2 2 3l-4-1c-2-2-2-2-2 0l-1 1-1 2h1l2 1 3 1c5-1 1 2-7 5a5 5 0 00-4 4l-2 5-2 4h2l4-1c2 0 2-1 2-2-1-1-1-2 1-2l2-3 4-3a7 7 0 007-4l1-3 5-1c6 1 6 2 5 4-3 4-2 4 3 4 7 1 8 3 1 3-4 0-6-1-7-2h-3c-5 2-4 5 1 4l-1 1c-3 2-1 5 2 4l2-1 1-3h2l2 2 5 2h3l-1-2-3-2 3-1c5-2 11 2 8 6l4 1c4 0 5 1 2 3l-4-1c-2-2-3 0-1 3 2 2 3 3 5 0l5-3 1-1c-2 0-2-1-1-2 0-2 0-2-2-2-1 0-3-1-3-3-1-1-3-3-5-3-2-1-2-1-1-3l3-1v-1c0-2 0-3 3 0 2 2 3 4 0 4v2l3 2c2 0 2 0 1-1-2-1 0-2 2-1 2 0 3 2 3 3 0 2 3 1 9-2 20-11 21-11 26-11 4 1 6 0 4-1l-1-3-2-4c-2-3-3-4-1-3l2 1 5 4 7 1h6l12-1c13 0 13 2 0 3l-20 4a81 81 0 01-14 3v2h-3l-3 2-3 1c-1-1-3 0-15 8l-9 5-6 6a74 74 0 00-18 19l-5 6c0 3 0 3-1 2l-3 2-1 1 2 1h2c4-1 11-1 11 1l5 1c2 0 3 0 2 1-2 0-1 2 1 2l1 1c-1 1 0 1 2 1 3 0 4-1 4-2 1-2 1-2-1-2l-4-1 4-1c4-1 6 1 4 3-1 2 3 7 5 7l1 1 2 1c2 0 3 2 1 2-3 1-5 0-4-2l-1-1h-2l-7-3c-1 1 1 5 3 5l3 3c0 2 1 3 2 3a6 6 0 014 3c-2 0-2 3 1 3s3-1 3-3-1-3-2-3l-1-1c0-2 3-1 4 1l6 1c4 1 6 1 7 3 1 1 2 2 4 1 2 0 1 0-1 1-3 2-5 2-10 0l1 2c3 2 2 4-2 4-3-1-4-1-2-3v-1h-1l-2 2c-4-1-9-3-10-6l-2-2-2-2c0-1-1-2-3-2l-2-1c1-2 0-2-1-2l-2-1-3-1c-3 1-2 4 1 3l3 1-1 1h-1l3 1 5 2c1 1 1 1-2 1h-3c-1 1 0 1 1 1 2 0 11 6 14 9l4 1h3l2 2 4 2 2 1v-6l1 1 2 4 1-2h7l6 2c2 2 2 2 3 1l1-1 1 1c-1 1 0 2 3 1a10 10 0 016 2l3 1c3 1 4 3 1 3l-3 2c-2 1 1 2 4 0h3l1 1h1c1 1-2 2-5 1l-2 1c0 1 3 3 4 2l3 2c1 3 3 4 4 2h-1l-1-1c1-2 3-2 4-1l3 2c2 1 3 3 1 3a1 1 0 101 2l1 2 1 1v3c-1 3 3 7 6 7l2 1-2 1 1 1c1 1 3 2 4 1 2 0 5 2 4 4h1c2-1 4 1 2 2v2c1 1 1 2-1 2-2 1-2 5-1 6 2 1 6-1 6-3s3-1 4 2v3l2 2c2 0 2 4 0 5-2 0-2 1 0 3l3 1v-2h4c5 0 6-1 4-4-1-1-1-1 1-3 2-1 2-2 1-2v-4l-1-1 1-2 3 4c0 2 1 2 6 3h1v-2l-1-1h-2c-3-1 0-3 3-2l2-1c0-3-3-4-5-3h-1l-4-1c-5 1-5 1-5-1l-1-2-2 1a2 2 0 01-4 0c0-1 0-3-2-5s-2-3-1-3c1-1 3 0 3 1 1 1 2 2 3 1l2 1c1 1 0 1-1 1l-2 1 2 1 4-2 2-1h2l2-1c2-2 5-1 5 1-1 1 0 1 2 2l2 2-3-1h-2c-1 0 4 5 6 5l1 1 3 1c2-1 2-1 3 2 0 4 2 5 4 3 1-2 1-2-1-4v-2c1 0 2-1 1-2 0-2 2-1 5 1s3 2 6 1 3-2 3-7c-1-5-1-6 1-6l1-10c0-7-4-13-7-11-3 0-3-2-2-4 3-3 0-18-8-39a221 221 0 00-23-46l-7-9c-5-6-5-9 0-4l5 4 3 3 3 2-2-3-3-5c-1-2-2-5-4-6a92 92 0 01-20-24c-3-2-2-4 1-5l4 3a9 9 0 008 6l2-2c1-2 1-2 4-1 2 2 3 4 0 5a3 3 0 103 4c1-2 0-23-1-27-3-11-13-24-23-32-3-1-5-3-5-4l-9-4-9-3c-4-2-14-3-21-3s-9-1-10-6c-6-35-25-56-62-67-18-5-34-6-49-4m25 37l2 2 1 2 3 1 5 3 5 2 3 1c0 2 3 6 4 5s-5-8-7-8c-1 1-3 0-4-2l-4-2c0 1-1 1 0 0l-1-2c-3 0-1-2 1-1l2-1c0-2-1-2-4-1h-5c-2-1-2-1-1 1m31 3l-1 1c2 0 3 2 1 2l-2 2h5c3 2 3 2 3 0l2-1h3c0-1-2-3-4-3l-2-1c-1-2-3-2-5 0M0 73c0 11 1 16 1 10a414 414 0 00-1-10m35-14l-2 3c3 0 0 2-4 2l-4 1-1 6c0 4 1 6 2 6 3 2 6 9 6 14s0 5 3 5c2 0 2 0 2 8 0 6 0 8 2 8l1 2 4 1c3 0 4 0 4 2l3 9c1 0 2-1 2-3l3-3 1-6-1-8-1-2c-2 0-2-1-2-4s0-4 2-4l1-4 1-4 1-4-1-4-1-2-2-5-2-5a21 21 0 00-12-11c0-2-1-1-5 2m62 44c-5 2-6 3-3 3 2 1 3 3 0 5-1 1-1 1 4 1l5-1v-3l-1-4c-1 0-2 0-1-1v-1l-4 1m22 1c-1 3-1 6 1 7 1 1 2 5 0 5l-2-3-1-2c-1-1-2-2-1-3l-2-1c-1 0-2 1-2 3l-1 3c-1 1 1 2 4 2l2 1 3 2c2 0 3 1 3 2v2c3 0 2 2 0 2-1 1-2 0-2-1l-2-1-2-1h-1l2 3 2 2 3 1 2 1 1 1 1-2c-1-3 0-3 4-1l-3-4-5-7c1-2 0-3-1-5a2 2 0 111-3l3 1c2 1 3 0 2-1-1-2-9-4-9-3m62 4l-2 1a1 1 0 10-1 2l3 4 4 4h3v-1l-2-2c-1 0-2-1-3-5l-2-3M0 362c0 135 1 191 1 123a71607 71607 0 00-1-123m169-243c0 2 6 6 11 5 5 0 4-2-2-2l-2-2c0-2-1-2-3-2l-4 1m-155 1c-2 0-3 1-3 2 1 2-1 7-4 10a11 11 0 001 17l5 6 3 4c-1 1 0 2 1 1l4 2c0 2 1 2 3 2s2 0 2 3v3l1-1 2-1 1-1 1-1c2 1 5-2 5-4l4-6 5-7 3-2 1-2 3-5 1-1-2-1 3-1v-1l-1-3c-1-2-2-2-3-2-1 1-2 0-2-1 0-2-1-2-4-2l-4-1c0-2-1-2-4-2l-4-1-4-1-4-1-4-1h-4l4-1 5-1h-4l-7 1m328 16c0 1-1 2-3 2-4 2-3 2 5 2 3 0 6-2 5-3l-7-1m-16 5l-2 1h2c2 1 2 1 1 2l-3-1h-7l-6 3c-3 1-3 1-2 2h7c0 2-2 3-7 4l-7 2-7 2-5 3h-4c-3 0-4 0-3 1 0 3 18 1 18-1 0-1 3 0 5 2l3 1c2 0 1-3-1-4l-2-1c0-1 4-4 6-4l5-3 4-3 4-1h5c3 1 4-1 2-4-1-2-2-2-6-1m-6 14l-2 2 2 1 2 2c0 1 3 5 5 5l4 2c3 3 5 4 4 2l1-2 2-1c0-1-3-2-4-1a1 1 0 01-1-2c1-1-6-9-9-9-1-1-3 0-4 1m18 0c0 2 4 4 6 4h7l6 1-4-2c-2-1-5-2-6-1l-5-1c-3-2-5-2-4-1m-69 28l3 3v1l-2 1v1l2 1c1 2 2 2 4 1s2-1 3 1c1 3 1 3-1 3-3 0-2 1 2 3 3 2 4 3 2 5v2l2 4 1 3 2-1c2-1 2-1 0-3-1-1-1-1 1-1 3 0 3-1-3-6-4-5-5-8-3-12v-1h-2l2-1h-3c-4 0-7-2-3-3 3 0 1-2-2-2l-5-1c-2-1-2-1 0 2m20 1l1 1c1 0 2 3 1 4s-1 2 1 3l2 3 1 1 1 2-1 1c-2 0 0 1 2 2 1 0 2-1 1-2 0-2 2-3 4-1h1l-3-2-2-1c-1-1 1-1 6 1 1 0 2 0 2-2l-1-2c-1 1-12-3-12-4l2-2 2-1-2-1-2-1c-1-2-4-1-4 1m-32 13c-3 1-3 1-1 2h4v1l3 4c1 1 3 2 2 3l1 1c2 1 1 3 0 3-4-2 0 3 5 6 5 2 6 1 2-2l-1-1c2 0 3-1 1-2l-2-2-5-8-3-3c0-2-1-3-2-3l-4 1m-41 22c-2 0-3 2-1 4l1 2-2-1c-2-2-2-2-5-1l-2 1 2 1 5 2h5a6 6 0 01-7 2c-1 0 2 3 4 3a6 6 0 004-2c-1 1 0 2 2 3 3 3 3 5 0 5l-2 1 1 1 2 2h4c1-1 1-1 3 1 3 2 2 2-2 0l-2 1c0 1 1 3 3 3l3 2c0 3 6 6 8 6h3c1 1 0 2-4 3s-6 3-2 3l1 2 2 2c2 0 2 0 1-1l-1-2c1-1 11 2 12 4 1 3 3 3 4 1l-3-4c-2-2-2-3-1-3h2c0-1-5-5-6-4l-1-1 2-2c2 0 1-5-3-9-2-3-4-6-4-11l-1-1v-1l-1-1-2-3-3-2c-1 1-1 0-2-1 0-2-5-4-9-4h-3c0-2-1-2-5-1m-42 9c-2 1-5 2-6 4-1 1-2 2-3 1l-6 4h1c2-1 3-1 3 1 1 2-2 5-4 5h-1c0 3 3 3 3 1l1-1 1 2c0 3 2 6 5 6l2 1 8 3-2-3-1-2 4 3c4 4 6 5 6 3l2-1 2 2h-2l-2 1 3 2c3 0 3 0 2 2-3 1 1 4 5 3 3 0 3-2 0-2l-2-1 2-1c2 0 2 0 1-2-1-4 2-1 4 3l4 5c2 2 2 2 1 3-2 1-5 0-5-1 1-1-4-3-5-3l2 3 2 2c0 1 1 2 3 1l3 1c0 1 1 2 2 1 3 0 8 2 6 3-3 1-2 3 0 3h3l2 1 8 3c2 3 6 3 8 1l3-2v-4l-3-1c-1 1-4-1-3-2h4l3-1-1-1-1-1-2-2v-1c2 0 0-5-2-6-1 0-2-1-2-3a17 17 0 00-7-12l-9-9-5-3-5-4-3-3-3-1-5-1c-3-2-14-2-19 0m1 4v4c0 4-3 4-5 1-1-2-2-3-3-2-2 1-3 4 0 4l1 1 4 2c3 0 4 1 4 2h1l3-2 1-1h-2c-2 0-4-2-2-4v-4l1-1h-3m55 2l-2 1c-1-1-2-1-2 1l3 1c2-1 3 0 5 2l3 4 2 1h1l-3-3-1-3v-2c-2-1-2-2-1-2l1-1c-2-2-6-1-6 1m67 21a1 1 0 11-1 1l-3-1c-4 0-2 4 2 6 3 1 4 0 2-1h3c2 1 2 1 1-1l-2-3-1-2-1 1m116 4c-1 0-2 1-1 2l-1 2-2 1 1 1c3 0 9 7 8 8s-2 0-3-1c-2-1-3-1-3 1a2 2 0 11-4-3l1 1c0 2 2 1 2-1 1-2 1-2-5-3-5-1-6 0-5 1s-1 2-5 1h-5c-4-1-4-1-5-3 0-2 0-2 3-1l2-1-4-1-4-2c-1-2-6-2-6-1l1 2 5 5a6 6 0 007 4v2c1-1 2 0 3 1h4l2-1h4l4 2 4 3 2 6c0 2-2 3-2 1l-2-1-5-4c-4-4-4-4-6-3l-1 2v2l2 1h2c0 2 1 2 3 2 4 0 4 1 3 6-1 3-4 3-3 0v-2l-1 1-2 2c-3 2-3 3 1 3l2 2c0 2 3 1 3-1v-2l1 2c1 2 2 3 4 0 2-1 2-1 1-3s-1-2 1-4c1-1 2-2 3-1l-1 1-1 2c0 2 1 3 2 3l4 2c1 1 1 1-1 1-2-1-2-1-1 2 2 2 3 3 3 0l1-1-1-6v-1c2-1 0-5-2-4-2 0-2-1-2-2 0-3 3-5 4-3 1 1 10 6 11 5l1-1v3l-1 2 3-2 3-2h3v-2l-2 1-2-1c-2-2-5-3-5-1 0 1-1 2-2 1v-2l2-1v-1l-1-1-2-1-3-2-3-1 2-1h4l2 2 5-5 2-2v-1h-20c-1-1 0-2 1-3v-3l-1-2c-1 0-2 0-1-1h-5m-244 2c0 2-1 3-3 4l-2 1h5l2 1c2 0 3 2 1 2-3 0 3 3 5 3h3l-2-2c-3-3-2-5 1-3l4 1 3 2 2 2v4c4 1 4-2 1-5l-3-4-2-1c-3 0-5-1-5-2l2-1c0 1 1 1 0 0l-1-1h-6c-2 1-4-1-2-2 1-1 1-1-1-1l-2 2m-20 6c0 2 5 3 12 4l1 3 1 3 1-2c-1-2-1-2 2-2l4 1-3-3-8-2-7-1c-1-2-3-2-3-1m98 2c2 2 2 3 1 3v1c2 0 0 2-2 2l-1-2-1-3-2-1v3c-2 0 0 3 6 6l1 2 1 1h3c1 2 3 1 2-1 0-1-1-2-3-2l-2-1c0-2 3-2 5-1 2 2 5 1 5 0l-2-1c-1-1-2-2-1-3 0-1-1-2-4-2l-6-2c-2-2-3-1 0 1m70 5l1 2c2 2 0 3-4 3l-3 1 4 3c5-2 10-2 10 0h9c0 2 4 4 8 5l7 2 4 2c1-1 6 0 9 3l4 2 2 1 2 1 1 1 4 3 2 1v1l2 1h2l2 1 1 2c0 1 0 2 2 1 2 0 1 2-1 3h1l3 1 2 1v2h2c2-1 5 1 6 3 0 3 3 5 5 5l4 2h3c0-2 2-1 2 2l1 2c2 0 5 3 3 4v2c0 2 2 1 2-1l3-1 7 1c-1-1 0-2 3-2 1 0 0 3-2 4l-2 2h2l2 2c0 1 0 2 3 2s3 0 1-1l-2-2h7l1 1-2 2c-1 0-1 1 2 2 2 2 3 2 4 0a3 3 0 013-2l2-1c5-1 6-1 6 2 0 2 2 3 2 0 0-5 1-6 2-6 2 0 2-1 1-4l1-4c1 1 2 0 1-1 0-2 0-2-2-1l-3 2-1 5v5h-5c-6 1-6 0-6-6 1-3 0-4-2-1-1 1-1 1-4-1-2-3-9-4-11-1h-4l-6-1c-2 0-5-3-3-3 3-1 0-4-4-4-2-1-5-2-6-4l-4-2-3-2-4-2c-3 0-7-2-7-3s1-1 4 1 4 0 1-3l-2-2 3 1 3 2 2 2 4-3 3-3-2 1h-2l-2 1c-1 2-3 1-3 0l1-2v-1l3-1h2c-3-2-6-2-6-1-1 1-1 1-2-1s-1-2-3-1l-2 1 2 1c4 1 4 3-1 3-4 0-5-1-3-2 1-1 0-1-2-2-3 0-4-1-2-3h4l2 1c1-2-2-3-6-3-3 0-4-1-6-3-4-4-3-4 2-1 3 2 3 2 1 0l-3-4-3-2h-5c3 2 1 4-1 3l-9-3-2-1-2-2-5-2c-2-1-5-2-7-1-3 0-4 0-6-2-1-2-3-2-10-2s-8 0-10-2l-2-1m-141 2l3 3 4 1 3 1c3-1 2-1-3-3v-1c2-2 2-2-1-2-5-1-6-1-6 1m200 4l3 3c2 1 2 2 1 2l-3-1c-2-2-4-2-5-1l1 1c1-1 7 2 8 4l1-1c-1-2 1-4 2-2h4l3 1 2 1c2 0-2-3-4-3l-10-4h-3m-117 2l-4 3c-2 2-2 2-3 1s-1-1-1 1c1 2-1 4-4 5-2 1-2 1 1 1 2-1 3 0 2 2 0 3 3 3 3 0l1-4 2-2c2 0 2 0 1-2h1c2 0 2 0 1-2v-1c1 1 2 0 2-1 1-2 0-2-2-1m37 1h-9v1c2 2 9 2 10 1s1-1 2 1c0 1 1 2 7 2l9 1h3l-2-2-4-3c0-1-2-2-3-1h-3l-2 1c-1 3-3 2-3 0 1-3-2-4-5-1m42 1c2 2 9 4 10 3h2c3 2 4 2 3 0-1-3-4-4-8-3-2 2-3 2-4 0l-3-1v1m98 8c-3 4-2 7 1 4 1-3 2-2 1 0l1 3h4l2-2c3-1 4-3 3-5s-4 0-4 2c0 4-4 0-4-3s-2-3-4 1m-148-1l-2 1c0-1-1-1 0 0l2 1 4 1c4 3 9 3 6 0l-2-3c-1-2-7-2-8 0m190 22l-1 3c0 4-5 14-7 14s-3 2-2 2c2 2 0 8-3 9-2 0-2 1-1 1l2 3c0 3 2 3 4 0l3-3 3-1 3-2v-4c0-3 2-5 2-3l1 2 1-4-2-11c0-7-1-8-3-6m-35 17l2 1c2-1 3 0 5 2 4 4 6 4 6 0-1-4-13-7-13-3m37 16c-4 6-21 15-32 17-9 2-5 4 6 3 4 0 9-2 9-3l5-3 7-3 6-2c3-1 5-7 3-9s-2-2-4 0m-5 23c-5 5-4 8 3 7 2 0 3-1 4-4 1-7-1-8-7-3m-50 25c-2 1 3 6 6 5 1-1 2-1 2 1l2 1 2 2 2 2c2 0 2-1 1-2-2-2-1-3 2-3l4-2-2-1c-1 1-3 0-4-1l-5-1-6-1h-4m26 4c-2 2-3 2-1 3v2c-2 1-2 3-2 8l-1 7c-2 0-1 2 1 3l1 1h-1l-4 2-2 1-1-1-2-2-2-2-1-1h-1c-2 0-2 0 0 4 4 3 4 4-1 3-4 0-4 0-3 2h-1c-2-1-8-2-9-1l3 1c2 0 3 1 5 3 2 3 3 3 3 2l1-3c2 0 2 1 4 6l2 4 3 4 1 1 2 2c1 2 0 2-3 2l-6-2-2-2v1c2 2 1 4-1 7l-2 3c1 1 3 0 2-2l1-1 2 2 1 2 1-1 3-1a5 5 0 005-3v2c0 2 0 2 2 2 3-1 5 0 5 2-1 3-3 2-3 0 1-3-2-3-3 0 0 2 0 2-2 0s-3-2-3-1c0 2-1 2-2 2h-5l-2-1 1 2c2 0 8 7 8 9l2 2c2 0 3 1 2 2h-4c-4 0-4 0-3 2 1 3 5 4 6 3h2c1 1 0 3-1 2l-4 4h4c1-2 3-1 3 1v2l3-2 1-2 1 2c-1 2-1 2 1 2l4 2c2 2 6 3 5 1 0-1-1-2-3-2l-3-2c-1-3 1-4 3-1s4 2 2-2l-1-11-1-8c-3-1-2-9 0-11 3-2 4-7 1-6v-3c0-4 1-5 2-3l2 1-1-2c-3-1-2-4 0-4 3 0 3-6 1-7-4-3-5-3-3-4s0-8-2-11l-4-7-3-5c-1-1-2-2-1-3 2-2 1-2-2-1m-6 69c-1 0 1 3 3 3l1 2c-1 2 0 3 1 5l2 2 3-2 3-4c0-3-2-3-2-1-1 2-3 3-4 1v-1l2-1-2-1c-1 1-2 0-3-1-1-3-2-3-4-2m-47 13c-3 1-3 2-1 3h3c2-1 10 0 12 2s2 2 0 3c-1 2-1 3 2 3l2-1c-1-2 1-5 3-5l1-1h-3l-3-1-2-1-3-1c-1-1-7-2-11-1m38 60c-1 2 0 5 2 5l1 1v1h1c0-2 3-3 4-1l-2 1v2c2 2 4 1 4-2-1-5-7-10-10-7"
      fill-rule="evenodd" tabindex="-1" itemprop="light"></path>
    </symbol>
    <symbol id="-posters-1652403247029-regular">
      <path d="M2 1c21 9 35 18 48 32l8 7 1 1a6 6 0 0010-1l2-4c2-5 2-7-2-10l-2-3-4-3C58 18 44 5 43 2c0-2-1-2-22-2C5 0 0 0 2 1m259 1c-1 1 0 2 1 2 19-1 52 10 68 22 14 10 25 28 29 46 3 9 3 10 6 10a110 110 0 0138 8c2 0 22 16 25 20l7 13c6 12 7 30 4 41l-2 6 3 6 4 7 4 14 6 14c9 18 16 38 20 58l2 9c5 3 6 8 5 30l1 7c2 10 2 22 1 24-2 3-2 4-1 4 5 0 4 12-1 14l-4 3c-2 2-3 2-6 2l-2 1c0 1-5 4-7 3l-2 1-4 1c-1 0-2 0-1 1l1 2h-1c-2-1-2 7 1 14l1 6v2l7 11 7 11c3 2 3 3 1 9-2 3-3 8-3 15-1 12-2 17-4 17-1 0-1 1 1 3v7l-1 16c2 18 2 23 0 24l-1-2c0-3-2-6-3-4h-2a2 2 0 10-3 1c1 2 0 3-2 0h-2c-2 2-2 2-4 1-1-2-1-2-2-1h-1l-3-1-2-1 3-1c2 0 2 0 2-2-1-3-4-4-4-1h-2c-3-2-3-2-3 0l2 4 1 2-3-2-5-2c-4-1-4-1-3 2 0 2 0 2-2 2h-2c-1 2-9 1-9 0l-4-4-4-1c0 2-3 1-5-1-1-1-1-1-3 1-3 2-6 1-5-2l-2-2-3-2-3-1c-2 2-3 1-3-1l2-2 2-1c0-2 3-4 5-4l3-2c1-1 1-1-1-1h-2c-1-1 4-2 6-1h3v-5l2 1c0 2 2 1 2 0-1-3 0-2 3 1 2 2 2 2 5 1 2-2 5-2 6 1 1 1 4 2 4 0l-1-2c-1 0-1-1 1-1 1-1 0-1-3-1h-6c0 1-4-2-4-4 0 0-1-2-3-2-4-2-4-2-4 0 1 2-4 3-7 1a1 1 0 10-1 1c2 2 1 4-1 4-3 1-6-1-3-2 2-1 2-1 0-2-5 0-6 1-4 4 3 3 3 5 0 5l-4-1-1-1c0-2-3-2-6-1-1 1-2 1-5-1-2-2-2-2 0-2l3 1c0 2 2 1 2 0l2-2 3-2c2-2 2-2 3-1h1c0-2 0-2 1-1 2 2 4 1 4-1s0-2-5-1c-4 0-5 0-7-2-2-1-2-1-2 1 2 4-2 2-5-4-1-3-1-3 1-2 2 0 2 0 0-3-1-3-2-3-5-3-2 1-3 1-3-1l-1-1-3-2-3-2c-2 0-3-1-3-2l1-2c1 1 2 0 2-1l3-1 1 1c-1 1 3 4 4 4 1-1 10 5 11 7l1 3v-3l-1-2-1-3 2 1c3 2 7 3 7 1 1-1 0-2-1-1l-3-2c-2-2-2-2 2-2 3 0 5 1 5 2s1 1 3-1 3-4 0-4v-1a4 4 0 014 0l6-1h2l2-2a16 16 0 00-9-9l-1-2 1-2 1 2 1 1 3 2h5l4-2a1 1 0 10-1-3l-4-1c-2 0-2 0-1 1 2 3 1 4-2 2-3-3-3-3-1-4v-2l-1-1-1-3c-2-1-2-1 0-3 1-1 1-1-1-1h-4c-3-1-7 0-6 2v3l3 2c2 2 2 2 0 2h-1l-1-1-3-1-1-1-2-2-5-2c-4 0-8-2-7-4v-1l-3 3c-2 3-3 4-5 3l-2 1-2 1h-7l2 3 4 2 2 1h5l4 1h5c4-2 3-3-3-3-4 0-6-1-2-2l2-1h-3c-2 0-2 0 0-1l2-2 1 1c1 2 2 2 6 1 4-2 6 1 4 4l-2 3 3-1 2-2v5c-2 0-1 3 1 3h4c0-1 2-2 4-1 2 0-4 5-6 5s-6-3-6-5h-5c-2-1-4-1-5 1h-5l1 2c1 1 1 1-1 1h-2l2 1c3 0 4 2 2 4h-2l-2-1-2-2c0-3-2-3-4 0-1 3-5 4-6 3l1-1 2-1-1-1-2-1 1-1 2 1c1 2 3 1 2 0l1-2v-1h-1c-1 1-5 0-5-1s7-3 9-2l1-1-5-3-6-2c-2 0-2 0-2 2v2l-1-1h-7c-1-2-1-3 1-3l3-2 5-4 7-4 19-14 6-4c3-3 7-4 9-3l3-2h1c2 2-1 4-4 3h-3l2 2c5 3 11 2 8-2v-1l3 1 2 2c1 2 2 3 5 3s5-2 2-3c-3 0-7-2-7-4 1-1 0-1-1-2l-2-1h4l9 5 1 2c0 3 5 6 5 2l-2-2c-1 0-2-3-1-4 4-4 2-5-7-7-5 0-6-1-4-1h5c3 0 3 0 2-1v-2c2 0-3-2-5-3-4 0-6-1-5-3h2c1 2 2 2 5 1s6 1 6 4l2 1v-1l2-2c3 0 2-2 0-2l-4-1-4-2-2-2-3-1c-3 0-4 0-4-2l-2-4c-3-2-1-5 2-4h2c0-2-5-2-7-1h-1l-1-1c-3 0-3-2-2-3v-1c-3 0-5 1-4 2 1 2-7 0-9-1h-7l1-2c1-1 1-1-1-1s-3 0-3-2l-1-2-1 1c1 2 0 2-4 0l-6-1-1-1-2-2-2-2-1-1c-3-1-3 2 0 6 3 2 3 3 2 4-1 2-12-10-12-12h-3c-4 0-6-1-3-2 2-1-1-3-3-3-4 0-6 2-3 4 2 1 2 1 0 3v3c2 2 1 2-2 1l-7-3v2c1 2-3 1-4-2l-2-2 6-1c6 0 8-1 5-3-2-2-5-1-5 1l-3-1-1-3 1-2-2 1c-2 2-2 2 0 3v3l-2-1-2-1-2-1 2-1 1-1-1-1-4-2-5-2c-1 0-2 0-3-2l-3-2c-2 0-2-5 0-6l1 1c0 2 1 2 6 0l5-2c2 0 1-2-1-2-3 0 2-3 5-3l4-1a35 35 0 0126 4v-3l-1-2c1 0 12 4 14 6l6 4 6 2 6 2c3 0 3 0 2-2l-2-3c1-2 3-1 2 1-1 4 5-1 7-5 1-4 1-5-3-5l-5-2c-2-3-7-4-10-3-3 0-4 0-6-3-3-3-8-5-10-4h-4l-5-2-4-1-2-1c-1 1-2 0-2-1-1-3-3-2-2 1l-1 2-1-3h-4l-1 2-2 1-2-1a3 3 0 00-4-1 3 3 0 01-6 1c-2-3-4-4-6-3v2c3 3 2 5-1 6l-5 1h-2l-12-1c-4 0-6-1-7-2-1-2-2-2-3 0l-1 1c2-1 4 1 4 3l2 2v2l-1 2v1l-1-1-4-5-4-6c0-3-1-3-2 0-1 2-1 3 1 2l1 1 1 2 1 2 1 2 2 1c-1 2-4 2-6 0s-4-3-4-1l-1 1c-2-2-3 0-2 2v1c-3-1-2 1 0 3 3 2 1 4-4 4-4 0-5-2-2-3v-4c-3 1-10-4-10-6s-2-4-6-4l-4-1 3 2c3 1 4 2 4 5 0 4-2 5-4 3h-1c-1 0-9-5-8-6l-2-1-3 1a1 1 0 100 2c2-1 3 0 7 6 2 3 6 4 8 2h1l-2 1v3l3 1h2c0 2 4 1 5 0 1-2 1-2-3-2s-4 0 1-1c2-1 3 0 5 1 3 3 4 4 1 4l-1 1c1 1-3 2-5 1h-2c-1 1-3 0-6-3-4-4-7-5-5-2 1 2 1 2-1 1-3 0-5-3-5-5 0-1-6-6-8-6l-1 1c0 2-2 1-5-2l-6-3c-3-1-3-2 1-1l3-1-1-1-1-1 2-1h1l-5-2-5-4-3-2-2-1 3-1 4 2c0 3 1 3 5 0l2-3-2-1h-4l-3-1v-3l-2-2c-2-2-4-2-2 0 2 3 0 2-2 0h-3l1 2c4 2 3 4-2 3-4 0-4 0-3 1l4 2c2 0 3 4 1 4v3l2 3 2 1 2 2 2 3c1 1 1 1-1 1-1 1-2 0-3-1-2-2-5-2-5 0l-1 1c-2 0-1-3 1-3 3-2 2-3-3-4-6 0-9-2-11-7 0-2-2-3-3-3l-3-1c0-1-2 0-1 1h-1c-1-2-2-2-2-1h-6c-1 1-1 1-3-1s-3-2-5-2c-3 1-5 0-6-3-1-2-2-2-5-2-2 0-3 0-3-2-1-2-1-2 1-1h3c3-1 1-2-4-2h-4l2-2c2-1 2-2 1-2-3 0-5-3-4-4v-5l3 2h3v-4c-2-2-2-4 0-3s6-1 5-2c0-2-1-2-2-1l-3 1c-1-1 3-5 6-6l2-2 2-2 2-3 3-1 2-1 5-3 5-3c5-4 21-6 27-3h4l3-2c2 0 12-4 12-6l5-1 6-2c1-1 2 0 2 2l2 2 4-1h4l-1 1c-2 0-2 1 0 3 2 1 4 3 4 5 1 2 5 4 5 2l2-1c3 0 4-5 1-5l-4-3c-3-3-3-6 0-5h2l-2-1c-2 0-2 0-2-2l1-2 4-4c4-2 6-7 4-7l-3 1c-2 1-3 1-5-1-3-3-4-6-3-6l4-3 6-4c2 0 3-2 1-2v-4c-2 1-6-1-6-2 2-4-5-7-10-6l-2-1 3-1c3 0 2-2-2-3l-5 1-3 3c-2 0-2 0 1 1 5 0 9 5 5 5l-2-1-1-2-1 1c1 2 1 1-2-1l-3-2c-3 0-6-4-5-5h2l4 2c3 0 3 0 2-1l-3-2-2-1 7-1c5 1 6 0 6-1l-1-2-1 1-1-1c1-2-2-3-10-4l-6 1c0 2-5 0-5-2s0-2-4-3a10 10 0 01-9-9l-2-1h-2c-1-2-1-3 1-3l2-1h-6l-6-1c-2-2-3-2-3-1 0 3 4 5 6 4s2-1 3 1 0 2-5 1c-6-2-8-3-9-6 0-2-5-3-5-1 0 3 8 8 10 7l2 1c0 1 1 2 3 2 3 1 4 4 1 4-2 1-2 0-2-1 1 0 0-1 0 0l-3-1c-1-2-5-3-5-1l1 2c2 2 0 1-3-1-2-2-2-2-4-1l-3 2c-3-1-2-3 1-4 4-1 4-3 1-3s-7-2-7-3c0-2-3-4-5-4l-1-1c1-2 0-2-1-2l-2 1-2-1c-2-1-2-1-2 1 1 2-1 3-3 1l-2-1h-3c-3-2-3 3 0 5 3 3 3 4 0 4l-3-3c-2-3-3-3-3 0 1 3 0 3-2 0-1-3-7-5-9-5v3c3 3-1 3-4 0l-6-4-3-1h6v-1c-1-3-6-6-8-5s-2-1-1-2c2-1 1-2-1-4-4-3-6-3-3 0l2 3c0 2-3 1-4 0-2-3-3-2-3 0a2 2 0 01-3 1h-7c0 1 4 5 6 5 1-1 2 0 2 2a2 2 0 11-4 2l-3-2-2-3c1-2-4-8-5-6l-5 1a4 4 0 00-6 4l-2 3-4 1-6 4c-4 4-4 5 1 5 3 1 6 3 2 3l-3 1-3 2c-6 0-9 2-12 6l-4 5 3-1 4 1-1 1-2 2h-3a2 2 0 10-2 1v3a21 21 0 00-16 17l-5 15c-3 5-5 11-5 15l-2 5-2 6c-1 6-2 6-7 3l-3-1v131l1 131 4-2c5-2 16-3 23-1 11 3 28 1 28-3l1-2 9-18 4-10 2-4 2-8c7-12 5-22-4-25l-4-1-6-3-12-5c-2-4 6-16 11-16l10 4 10 4 8 4c7 3 21 6 24 4l8-1 8-1c1-1 7 4 7 6 0 1 7 9 9 9l5 6c4 5 8 7 14 7 2 0 6 7 6 10l2 5 3 8 6 20 2 8 1 5 2 10a264 264 0 004 23l1 10v56c-2 20-2 30 0 31 3 3 19 5 24 4 5-2 37-2 40 0l5 2 17 8 13 6v23l-1 22h28v-17l1-17 12 6 6 3 9 2c5 2 27 2 36 1 25-5 43-19 58-47 3-7 4-8 2-8l-2 1c0 3-2 3-4 1l-2-2-2 2c-3 3-4 4-7 2l-3-1c0 1 1 4 3 4l1 2c0 2-2 1-3-1-2-3-3-3-6-3l-6-1v-1l2-2 2-1 4-1h2c0 2 3 4 5 4v-3c-3-3-2-5 1-5 4 0 6-1 6-2s2-3 5-4l8-7a10 10 0 016-4l1-4c0-7 8-14 11-9l20 2 7 1c0 2 2 2 8 2l9 1h-9l-8 1h14l10-1V0H386C265 0 261 0 261 2m-63 41l-2 2-1 3v2c0 2-2 4-3 2-2-3-4-2-3 0l-1 3c-1 1-1 0-1-2 0-4-2-4-5-1l-2 2 2 2c2 2 3 4 1 4-3 1-5 0-5-2l-1-2v-1c2-1-1-7-3-7s-2 0 0 3c1 3 1 5-1 6-3 0-3 2 1 2 3 1 2 3-2 3l-3 1h-1l-2-2c-2-1-3-2-3-4-1-4-3-5-6-5l-1 2c1 2 0 3-1 3l-1 4c0 2 0 2-2 1-2 0-2 0 0 2l2 2-2-1c-3 0-3 0-5 2-1 2-5 3-10 3l-5-2c-3-2-3-2-5-1-1 2-2 5 0 5l1 2c0 2 0 2-4 2-5-1-6 0-3 3 1 1 2 2 1 3-1 0-3-1-3-3l-3-1c-3 0-5 2-5 4 1 0 0 2-2 3l-3 4-5 7-5 6c0 1 6-1 11-5l7-3 14-4c23-10 63-8 89 3l7 2 6 3 6 2 4 2v2c1 2 4 4 5 3l-1-3v-3c2 0 3 1 3 3s0 2 1 1h2c0 2 3 3 4 2s2 0 4 1 3 2 4 1c3-1 7 0 9 1h3l3-1-3-1-6-1-2-1c0-1 4-2 6-1s6-1 6-3h1c1 2 3 4 5 4l2 2a3 3 0 007-3l6 2c0 3 3 4 7 5 2 0 3-1 3-2-1-2 1-2 4-1h5c2-2 2-2 4 0 2 1 2 1 3-1 0-2 0-3-2-3-1-1-1-1 1-2a2 2 0 10-2-3c0 1-1 2-3 1l-1 1c1 2 0 2-3 1-2-1-5-1-5 1 1 1 1 1-2 1l-2-2c-1-2-3-2-2 0a1 1 0 11-3 1c1-3-1-3-5-2s-8 1-8-1l3-1c3 0 3-2 0-2-3-1-5-4-7-8l-1-2-4-2-3-3c-2 0-1 2 0 3l3 3 5 6 3 3c0 2-2 1-3-1-1-1-3-2-7-2-3 0-4 0-6-2-2-3 0-4 3-1 3 2 4 1 2-2-1-3-8-6-13-6l3-1h4c1 2 2 1 1-2 0-1-1-2-3-2l-4-1-3-2-3-4 9 3h5c2 0 1-1-4-3-6-3-8-4-9-2l-2 1v-4l-6-3-4-1-3-1 5-1h5l-12-3c-4 0-4 0-4-3s-2-4-6-1h-3l-1 1c-1 1-2 1-3-1v-1a1 1 0 001-2l-4-1-3 1c0 3-3 1-4-1 0-2-3-3-3-1l-2 1c-3 0-3 0-3-2 0-4-4-7-9-5m106 19l2 1c2 1 2 1 1 2s0 5 2 5c1 0 2 2 1 3h-3l-1 1h14l-1-1c-1 0-4-2-6-5-5-5-9-8-9-6m8 16l-2 1c0 2 7 4 11 5 9 1 9 0 10-1h-2l-4-1c-2-1-3-2-4-1 0 1-4 0-5-3h-4m-14 3h-2l-3 2h-4c0 1-1 2-3 2s-2 1 2 3c4 3 11 3 7 1-2-1 1-5 4-4 3 0 4-2 2-4h-3m36 22c-3 2-4 4-1 3h4c4 1 1 4-4 4-5 1-7 3-4 6a41 41 0 0023 0c3 1 5 0 3-3l-2-4c-1-2-6-6-6-4s0 3-2 3c-3 0-5-2-3-3l1-1h-1l-3-1h-5M73 135l1 2 1 3c0 1 4 4 7 4l1 1 2 1c2 0 3-1 1-3v-1c1-1-4-3-6-2l-3-3c-2-3-2-4-4-2m16 2c-1 0 0 2 2 2 3 2 3 4 0 3-2 0-2 0-2 2l2 1 4 2 4 3c2 0 2 0 1-1v-3c1 0 1-1-1-1-2-1-2-1-1-4 0-3 0-3-4-4h-5m26 2h-3c0 3 8 6 13 6l7 1h4l-2-2c-2-2-3-2-8-2h-5l-3-3c-3-2-3-2-3 0m29 8l2 6 2 4c1 2 6 5 7 4l-2-3c-4-3-4-5-1-5 2 0 2 0 1-1l-5-1c-3 0-3 0-2-1l4-2c3 0 2-1-3-3l-3-1v3m113-2l2 5c3 4 3 7 0 5l-1-2c0-3-4-6-7-7-4 0-4 2 0 2l3 2-2 1c-2-1-2-1-2 1 0 4 2 7 4 7l-1 1c-2 1-3 5 0 6 1 0 1 1-1 4v1c1-1 2 0 3 1h2l2-1 1-1 2-1 2-1c0-1-3-3-4-2-2 0-3-1-2-3l3-1c4 0 5-2 4-5l-1-4v-2l-1-2c1-3-5-6-6-4m-38 2c0 3 3 5 5 3l3 2 5 3-3 1-4 1h3l5 1c4 3 6 1 2-2-1-1-1-1 1-3 1-1 1-1-1-1-5 0-8-1-8-3h7c1-1 0-1-2-1l-5-2c-5-2-8-1-8 1m-27 5h-5l-2 2c-1 1 0 2 1 2l4 1 2-1c-1-2 0-3 2-2 1 1 2 2 1 3l1 1c2 0 2-1 0-3l-1-3h-3m80 20l-3 3-2 2c-2 2-2 2 0 2l3 1h1c-1-2 5-3 7-2l2-1-3-1c-2 0-2 0 0-1 3-1 4-3 1-3h-6m69 0l-10 6c-4 2-9 5-9 7-2 2-1 3 2 0l8-5 6-4 4-2 3-2h-4m-83 16c0 2-4 4-6 2s-2-1-1 2c0 4 3 4 7 0 3-2 3-2 2-4h-2m7 0l1 2 1 2c-1 1 2 7 5 11 2 1 3 4 3 6l2 5c3 2 4 6 1 5v1c2 2 1 3-1 3-1-1-2 0-2 1-1 2-1 2-2 1l-3-1c-3 0-5-2-2-3 1-1 0-5-2-5l-1-1c0-3-6-3-8-1-1 1-1 2 1 4l3 3h-1l-2-1h-5l2 1 2 1-1 1-2 1 2 1c2-1 6 2 6 4v4c1 3 1 4-2 2-3-1-4-1-2 2 2 2 0 2-2 0s-2-2-2 0l-2-1-3-2 1 1v3l-3-2c-3-5-5 0-2 6 1 2 7 5 11 5l4 1a10 10 0 01-9-1l1 3 1 5c0 2 1 3 2 3l2 2c0 2 2 3 3 3v-4l-1-1c-2 0-1-2 1-2l2-3c0-2 0-3 2-3l3-1h3l-1-1c-1-1-2-2-3-1l-4-2c-2-2-2-2 2-1 3 2 9-5 7-7-2-1-2-2 1-1l3-1c2-1 2-1 0-3-1-2-1-2 1-2s9-6 9-8l2-1 2-2 3-3c4-2 2-3-2-1h-3c0-1-2-3-5-4-5-2-7-4-5-6v-3c-1-1 0-1 4-1l-2-2c-2-1-4-2-4-4l-3-2c-2 0-3-1-3-3-1-3-4-4-4-2m49 2c-1 1-2 2-3 1l-1 2-2 2-1 1-3 4-3 2c-2 3-6 2-8-1l-3-4c-1-1-1-1 1-1l2-1-1-1-2-1-3-1c-3 1-4 1-1 3v2c-2 0-2 2 4 8 5 5 7 5 17-4a264 264 0 0113-12c0-2-4-1-6 1m-78 11l-3 2c-4 2-3 4 0 4 3 1 4 0 4-1l2-3h1l-1-2v-1l-3 1M0 356c0 72 1 102 1 66a19876 19876 0 00-1-66m301-113l-3 3c-1 1-1 1 1 3l3 4 3 1c4 0 4 0 4-4-1-4-1-5-3-5l-2-2h-3m-27 18l-2 1c-4 1-4 6 0 6a1 1 0 11-2 2h-2c-2 2-1 3 1 2 2 0 2 0 0 2-3 2-2 4 1 4 2 0 2 0 1-1-2 0-3-2-1-2s6 3 5 4l2 1c2 1 3 3 1 3v1c0 2 5 3 6 2h3c3 1 1-1-3-3s-6-5-4-7c1 0 4 1 4 3l2 2c3 1 3 1 3-1-1-1-1-1 1-1l6 1 6 1c4 2 2 0-3-3l-6-3 1-1c2-1 3-1 5 1 1 2 3 3 3 2v-4a2 2 0 10-3-2l-3 1c-2 0-2-1-1-2 2-2-4-4-9-2-2 1-3 0-4-2l-2-2v5l-2 1c0 2 0 2-2 0-2-1-2-3 1-2v-3h-6c-1-1-1-1 1-1l2-1h2l3-1h-1l-2-1h-2m41 2c-1 1 0 2 1 3 4 3 3 4-2 2h-5c-1 0 2 2 3 1l3 1c2 2 8 1 9-1 0-1-3-5-5-5l-1-1h-3m26 0l-1 1c-1 0-2 1-1 2 0 3 2 3 8 1 1 0 2 0 3 2l5 5-1-3c-1-2-1-2 2-2l3-1-2-1c-1 1-3 0-5-2l-3-1a4 4 0 01-7-2l-1 1m20 13c0 3 2 4 3 4h2c0 2 3 5 5 5v-2c-2-1-2-1 0-2l1-1-2-1-3-3h-6m-187 3l-1 1 2 2c0 1 0 2 2 2s3 1 2 2c0 2 0 2 2 2h2l2 1 1-1-5-5-1-1-4-4-2 1m64 8c-2 3-1 6 2 7l4 2c2 1 4 1 4-1l-2-2c-1 0-3-1-3-3 0-3-3-5-5-3m82 24l-1 1-1-1-1-1c-4 0-2 2 4 4 6 3 12 8 11 10l-4-1-5-2-3-2c-1-1-3-2-4-1-3 0-3 2-1 3v-1l2 1 3 4c0 2 5 4 9 4 1 0 2 0 1-1 0-2 1-2 5-2s4 0 3-1-2-2-1-3c1-2 0-4-2-4-4 0-7-2-3-3 3-1 2-3-1-3h-3c-2-2-8-3-8-1m21 3l2 2 1 2h-1c-2-2-5-1-3 1 1 1 2 2 1 3l3 1h7l6-1 3 1a3 3 0 004 0l-2-1-2-1-3-1h-2c1-2 0-3-5-5-4-2-5-2-3 1l1 2-2-1c-2-3-5-4-5-3m-54 8c-1 1 3 3 4 3 1-1 3 2 3 4h3c2 0 2 0 1 1-2 1 0 4 3 4l1 1-3 1h-3c0 2 9 2 11 1 1-2 1-4-3-6-2 0-3-2-2-2 0-1-1-2-3-2l-3-2-1-2-2-1h-6m-6 2v1h1l1 2-1 2h1l2 1v2l2 1c1-1 3 0 4 1h3l-1-1-3-3-3-4-3-2c-2-2-2-2-3 0m190 26l-6 1-5 2-9 5-7 4c0 1 9-1 16-4l8-3 4-4c2-2 2-3-1-1m-109 6h-5c-4 0-9 0-9 2 0 1 7 2 15 2 7 0 8 0 8 2l1 2 1-1c0-1 1-2 3-2h7l-3 1-2 1 3 1 3 1 2 1c1 0 2-2 0-2-3-1 0-4 3-3l2-1c0-2 0-2 2-1h1c-1-2-9-3-9-1h-3a4 4 0 00-6 2v-1l-1-1-2-1-2-1h-9m113 11l-5 4-3 3c0 1-1 2-3 2-4 0-3 6 1 9 2 2 4 1 3 0-2-2-2-8-1-8l1 2 4 5c3 3 4 5 3 5-2 1 1 3 4 3s6-23 3-27c-2-2-3-1-7 2m-155 8c-1 0-2 1-1 2 0 3 0 3-3 0-2-2-7-1-7 1l-2 1v2l6 1c4-1 5 0 9 2s4 2 4 0h7l6 2-4 1c-3 0-3 0-3 3l3 5 2 4a1 1 0 003 0c0-2 0-2 2 0s3 3 0 3h4l6-1 5-1c5 0 4-2 0-2l-5-1c-2-1-2-1-1 1 1 3 1 3-2 2l-5-3-4-2c-2 0-3-1 0-2h1a1 1 0 003-1c-1-1-1-1 1-1 1 1 1 1 1-1h1l4 1h3l3 1h3c1-2 1-2-3-2l-3-1 2-1 3-1h2c3 2 8 1 6-1l-5-1-4-3-3-2c-1 1-2 0-2-1 0-2-1-2-4-2s-4 1-4 2h-1l-3-1-2-1c0-2-1-2-4-2h-15m53 26c-2 2-3 4-1 3 1-1 4 2 3 3l4 1c4-1 5-1 6 1l2 1v-3c-1-1-1-1 1-1s3-1 1-3l-3 1c-1 1-6 0-9-2-2-1-3-2-4-1m-4 29c-2 1-2 1 0 3s2 2 1 3v1l3 2c2 2 2 2 4 0 3-2 2-3 0-3s-3-1-4-3c-2-4-2-4-4-3m-30 3l-4 2c-4 2 0 4 6 4l7 1h2v-2c-2-2-2-2-1-3 1 0 1-1-2-1l-5-1h-3m70 15v2l-3 1c-1 0-2 0-1 1l4 1 3 1 3 1h1v-2l1-2h-6l1-1v-2h-3m-61 13l3 4 2 3 2 1 2 1 3 1c2 0 3 0 3-4l-2-4v3c0 4 0 4-4 1-5-3-5-4-2-6 2-1 2-1 0-1h-3c-2-2-5-1-4 1m-8 6v3l-1 2-1-1-2-1c-5 0 1 5 6 5 1 0 2 0 1 1-3 1 4 5 8 4h6a12 12 0 007 2l2 2c2 2 3 2 2 0l1-1 2 1h13l-2-3c-1-2-2-3-3-2l-2-1h-3c-1 1-1 1-3-1-1-3-4-3-7 0s-7 3-11-2l-5-3 1 2c3 1 2 3 0 3-1 1-2 0-1-1l-3-2c-2-1-3-2-4-5l-1-2m115 60l-2 4 2 3c3 2 4 3 3 4 0 2 1 3 3 1 1-2-1-11-3-11v-2l-1-3-2 4m-20 9a10 10 0 01-4 8l2 1 2 2c0 2-2 1-5-1-2-2-2-2-3-1l-1 1-4 2-2 2 3 1c2 1 5 2 6 5l4 3c1 0 3-2 1-3l-1-1-1-2-1-1c1-1 3 0 5 1 2 2 5 3 7 3s3 1 5 4 2 3 4 2c1-2 1-2-1-4-1-1-2-3-1-4 0-2 0-4-2-5v-4c2-2 1-3-5-5a16 16 0 01-7-5l-1 1m-25 14c-5 1-5 1-2 4s5 3 7 2c2 0 2 0 0-2v-2l2-1-1-1h-6"
      fill-rule="evenodd" itemprop="regular" tabindex="-1"></path>
    </symbol>
    <symbol id="-posters-1652403247029-bold">
      <path d="M297 2c2 2 3 6 1 6l9 4c27 11 46 32 53 60l3 9h9c21 2 40 11 55 26 12 13 18 38 13 58-1 7-1 10 4 15l6 18 6 14c8 17 14 34 19 56l4 11c3 3 4 14 3 25l2 16v23c4 3 2 13-3 16-3 1-3 3 1 5 3 3 3 7 1 22l1 7c6-1 12 0 10 1s1 1 8 1h10V0H295l2 2m-75 62l1 4 1 5c-1 1-7-3-7-5s-7-2-8 1c-1 1-1 1-2-1-3-3-4-3-4 0 1 3-1 3-3 2-5-3-11-3-10 0 0 2 0 2-5 2l-3 1c0 4-12 2-13-2l-2-1c-2 1-2 1 0 4 3 3 4 4 1 4s-6-1-7-3c0-2-2-3-4-3-3 0-3 0-2 2 2 3 1 3-5 3-10-2-9-2-10 2s-6 6-5 2c0-2-2-3-4-1l-6 3-7 4h-4c-1 0-9 7-9 9l5-1 11-4c7-2 10-3 8-4-1-1-1-4 1-4l2 2c0 2 2 3 3 1l2-2 1 1h7c18-3 45-2 58 2a23 23 0 009 2l3 2c3 2 5 2 7 1h3c2 1 6 0 7-2 2-2 3-2 7-2h5c0-2 1-2 3-2 5 0 10-1 9-2h-3l-4-1h-4c-3-1-7 0-7 2l-2 1c-2-1-3 0-3 1s-5 3-7 2c-2-2-1-3 2-3h2c-1-2 0-4 2-4 2 1 4-1 4-2l-2-1h-2l-2-3-2-3-1-1c-1 0-1-1 1-2 2-3 2-3 1-5s-6-3-7-1m15 5c-7 2-7 3-1 5l7 2 1-1c-1-1 0-2 1-2 3-3-2-5-8-4M79 126v2l-4 3-6 4c0 2 3 1 3 0 1-3 4-2 5 0 1 3 4 4 6 3 1-1 1-2-2-2-3-1-3-2 0-3 2 0 3-1 3-3 0-3-5-7-5-4m61 11c0 1 2 2 3 1h1v1c-2 1 2 6 4 6h2l2 1 1 1c0 6 4 9 8 5 1-2 2-2 5 0 4 2 7 2 7 0l-3-1c-3 1-7-2-5-4 2-3-1-5-4-4l-2-1-2-2c-2 0-2-1-2-2l-1-2c-2 0-2 1-2 4 1 3 1 4-2 4-4 0-5-2-1-3 3-1 2-3-1-3l-3-2-3-1-2 2m-71 3l-1 3-3 2-4 3h-4a1 1 0 10-1 1c1 0 2 1 2 3 0 5 7 2 9-4 1-3 12-2 12 1-1 1-1 2 1 1l2-1h2l2-1-4-2-4-2-1-1-3-2c-2-2-3-2-5-1m42 4l-1 3-1 1c-1-1-2 0-2 1l-2 1h-3l-3 1c-2-1-2-1-1 1l-1 3a5 5 0 00-1 5l1 1a2 2 0 01-3 0l-1-1-1-1c1-2 0-3-3-2-2 0-2 0-1-2s1-4-2-4v2c0 1-4 2-5 0h-6c-1-2-4-1-3 1 0 2 5 4 8 2 1-1 1-1 2 1s2 3 4 3 3 0 3 3c0 2 1 3 3 3l3 2 1 2c2 2-4 0-8-2l-5-1c1 2-4 2-6 1-2-2-1-3 1-3 5-1 2-3-4-3-5 0-5 0-5-2 0-3-5-4-7-1l-3 1-2 3c-1 3-1 2-6 0l-4-2-3 3-2 2 2 2c2 1 3 5 1 5l-3-2c-2-6-12-2-14 7l-7 17-6 16-1 5-3 11-3 16c-3 9-3 28-1 35 2 4 2 6 2 15 0 8 5 23 8 24 3 0 5 6 3 9-2 2 2 8 5 8s3 0 1 1c-3 2-3 2 1 6l7 9c0 2 8 5 14 6 5 1 4 2-2 2-3 0-3 0-3 2l-1 3a2 2 0 101 2l4-1c4 1 4 2 1 4l-2 2 2 2 2 4c0 1 1 2 5 2h8c-1-3 12-3 14 0 1 3 0 3-5 3-4-1-5 0-4 2h2c4-2 6-1 5 2 0 3 0 4 3 5l3 2-1-5c0-3 0-5 1-3l5 5 5 4c1 1 5 3 9 3l6 3 6 2h5l-1-3-4-4c-1 0-2-3 0-3l8 4-2 1c-3 2 2 4 7 4l7 1c4 4 6 2 4-3-3-6-1-6 4-1l1 3 1 3c2 2 5 1 5-2-1-1 1-2 2 0l2 1c2 0 8 9 7 10-2 0-5-2-5-4 1-1-1-2-2 0l3 6 1 1c-1 1 0 2 1 3l2 2c0 2 2 4 4 4l4 6c1 4 3 6 4 6l1 3c-1 1 0 3 1 5l3 5 2 2 2 2 2 1 1 1-1 1c-2 0-1 8 1 8h1l-1-4 1-3 2 3c3 2 3 2 2 3v1c2 0 1 3-1 3-2 1-2 1-2 3 1 3-1 3-1 0-2-4-2 0-1 4s1 4 3 3l2-2 1-3c2-1 4 2 2 4v1l-1 2v2l1 2c0 2 0 2-1 1l-3-2-1-1-1-1c-2 0 0 6 2 9l1 3c-1 1 0 13 2 19l1 9c0 2 1 3 2 3l-1 64a57 57 0 00-1 27v3h6l2 1v-2c-3-2 1-3 4-2l4 1h11c2 3 5 3 4 0 0-2 0-2 4-1h5l4 1 10 3 10 3 8 2c9 2 9 2 9 4h1c1-2 1-2 4-1l2 2c-1 2 0 4 3 4h2v-2c1-1-1-7-3-9v-1l3 2 4 6c2 1 2 1 0 3-1 1-1 1 2 1l12 3 1 8 1 8a11 11 0 0011-1l-1-2c-2-1-1-2 3-3l3 1c0 2 0 2 4 2l2 2 3 2 2 1c0 2 0 2 1 1l2 1c1 2 8 3 7 1l1-4c1-1 4-2 4 0l-1 1-2 1 2 1c7-3 11-3 13-2 3 1 2 1-4 2l-3 2-2 1c-2 0-2 0-1 1h2a6 6 0 019 1l1-1v-1l1 1 2 1c2 0 2 0 1-1-2-1-2-2-1-2l3 1c3 2 4 1 2-2-2-2 1-5 3-5l3-2c1-3 1-3 4-2l5-1c1-2 1-2-1-2l-5-1-3-1h3l5-1h3c0 2 5-3 5-5s0-2 1-1l2 2 2 2-2 1c-2-1-3 0-3 2l2 2 1-2 3-2c2 0 3-1 3-2l2-1c2-1 1-4-1-4-4 0-5-2-2-3 1 0 2-1 1-2l1-2 1-1 1-2c3 0 3 2 1 3l-2 3c0 2 4 1 4 0l3-2c3 0 3-1 0-3l-2-1h3l6 2c2 1 3 0 6-2l3-3-3-1h-4c-1 0-2 0-2-2l3-1h1l-1-3a10 10 0 00-13 0l-3 2h-6c0-2-4-2-4 0a1 1 0 11-2-1l1-1c0-2 1-2 4-2l3-1h3l3-1c1-1 0-1-1-1-2 0-2-1-2-3l-1-5c-2-1-3 1-1 3v2c0 1-2 0-3-2a10 10 0 00-12-5c0-1 5-4 8-4l1 1c-1 2 2 2 4 1h2c1 2 1 2 3 1h5c5 1 5 1 6-1l2-2h7l7-1c1 1 4-1 3-2-1-2 1-3 3-2 1 1 2 1 3-1 2-3 6-5 9-5 2 0 2 0 2-4l1-7v-5c-1-3-4-4-4-1l1 1 1 2c0 2-5 6-6 5l1-1 1-2-1-2c-3 0-2-3 1-5l2-3h-9l-4-1c-1 0-3-1-3-3l-3-2c-4 0-8 6-4 6 3 0 3 2 1 2-3 1-10-1-9-2l3-1c2 0 2 0 1-1h-8c1-1-2-2-3-1v1c2 0 1 2-2 3-2 1-3 0-6-2l-4-2 2 2 1 2c0 2-1 1-4-2-1-1-2-3-1-4 0-3 0-3 4-2 3 1 4 2 5 1h3l3-1-3-1c-1 0-6-4-6-6l3 1c1 2 3 2 3 1v-1c-1 0-2-3-1-5h2c2 1 2 2 1 2v1l5 1c3 2 6 2 6 0l-1-1c-2 1-2 0-2-1l-2-2v1l-1 1c-2 0-3-2-2-2 2-2 1-3-2-3h-6c-2-2 2-4 4-3 2 0 2 0 1-1-2-3 1-2 4 1s4 3 3 0l1-3 1-2h3l4 2 3 2h8l4-2c4-1 4-1 7 3 2 4 5 5 5 3 0-3 2-2 2 0v3c1 2 1 2-1 2s-3 4 0 5v8l2-2 4-6 2-4-2-1c-1 0-2 0-1-1h1c2 0 0-7-2-9-6-4-6-4-4-5 2-2 3-7 2-8l-1-2v-2c-2 0-1-2 1-2l2 2c0 2 8-5 8-8 0-6-1-9-3-8l-2 1-3 1c-4-1-5 0-7 3s-5 7-7 7l-1 2-3 2v-3l1-2 2-1 3-2 3-2c1-1 1-1-1-1h-4l-6-1c-3 0-5-1-5-2 0-2-3-2-5 0h-3l-4-1-4-2-3-1-4-1c0-2-3-1-3 1l-2 1h-2a1 1 0 11-3-1c1-1 0-2-2-2-5-1-6-1-6 1l-2 2c-3 0-7-4-6-7l-1-1-1 2c0 2-4 2-5 1-1-3-2-2-2 1 1 2 1 2 4 2l5 1-1 1c-2 0-4 3-3 5s-1 3-3 0h-7l5 3c5 4 5 4 1 3h-6l-2-2h-3c-1 1 3 4 8 4 2 1 7 5 5 5v2c1 1 1 1-1 1-2-1-2-1-2 1 1 2-1 4-3 4s-4-2-2-3c1-1 1-1-1-1-3-1-3-3-2-5 1-1 1-1-1-1-3 0-6 1-7 3l-1 1c0-2-2-3-2 0a2 2 0 01-4 0c0-2-2-2-5 0h-3l-1-7 1 2c0 3 3 2 5-1l3-3v1c-2 1-3 4 0 4l1-1a4 4 0 013-3l3 1 4-1c-1-3-3-4-5-3h-3l-4-1c-4 1-7-1-6-4 1-2 1-2-1-2l-2-2c0-2 1-2 3-2 1 0 2 0 1 1l1 3 2 3 2-3 3-3c1 0 1-1-1-1l-2-2 3-1c3-1 4-1 4 2l2 4c2 1 2 1 1 2s-1 2 1 2h4l-1-2a2 2 0 110-3l2 2 1 1 1-1-1-1c-2-2-1-4 2-5 5-2 3-3-5-3-3 0-3 0-2-2 1-1 1-1 0 0-2 1-8 1-8-1l-2-1h-4l-2 1 2 1c5 1 7 3 2 3a9 9 0 01-7-3l-3-1c-1-1-1-1 1-3s2-2 1-3l-1-4c0-3-1-4-3-2v3c1 0-2 4-4 4v-4l-2-2 6-4c2 1 2-1 0-3l-8-2c-7 0-8-1-6-2s2-1 1-3h4l3 1c2 2 4 2 4 0h-2c-2 0-2 0-1-3 0-2 0-3-1-2 0 2-9 1-9 0s-1-2-3-2l-2-1c0-1 1-2 7-2 7 0 12-1 12-3l-9-1-5-2-1-1a2 2 0 01-3 2l-1-2v-2c2-2 1-3-2-2-2 0-2 0-1-1l2-3 2-1 1-1 3-2c5 0 12-5 9-5l-5-2-5-2a2 2 0 112-4c1 1 2 0 3-1l7-1c5 0 5-1 6-2 0-2 0-3 2-3l4-2 4-2 1-1 3-3 6-3a51 51 0 0114-11c4-3 5-5 5-3v1l1-2c0-2 4-3 5-3l3-1c1-1 2-2 4-1v-5c0-3 0-3 7-2h4c1-2 0-3-2-2v-1c2-2 2-2-1-5l-4-3-1-1a1 1 0 10-2 1c0 2-4 3-6 2l-2-2c1-2-3-3-5-2l-4-1h-6l-3-1c0-2-4-4-6-3v2l-2 1c-4 1-5 0-5-2l-2-2c-2-1-2-1-2 1-1 4-3 3-4 0l1-5v-1c-4 0-6 2-5 5h-1c-1-2-3-2-6 0h-2l-1-1-4-2c-3-2-5-2-3 1 2 1-1 2-3 0l-2-1 1 2 2 2-1 1c-4-6-14-10-14-6 0 2-4 3-6 1h-5l1-2-4-1a4 4 0 01-6-2l-1 2c0 5-1 5-6 3l-5-1c0 2-3 1-4 0l-3-2c-2 0-2 0-2-3v-3l-1-5 3 4c2 3 5 4 5 2l-1-1-2-1v-6l3 4a4 4 0 007 2h1l2 1 2 1v-1c0-3-2-4-4-6-2-1-2-1 0-1 3-1 3-1 2-3-2-1-5-1-5 1h-2l-4-1-3-3c1-1 1-1 0 0l-1-1c1-1 0-2-1-2s-4 2-4 4-2 1-3-1l4-6c5-4 7-5 7-3l1 1 1-2c0-1 0-2 1-1l2-2c1-2 1-2 2-1 0 2 1 2 3 0h3l2-1 3-1c2 0 4-5 2-6v-2c0-1 1-1 2 1l2 1c-1-2-1-2 2 0 3 1 6 1 4-1l-2-1c-2 1-5-1-3-2h1c1 2 10 0 9-2 0-2 2-3 3-1 0 2 3 1 3 0 0-2 1-2 2-1h3l-2-1c-2-1-3-1-2-2s8 0 7 1h1c3-3 20-2 29 1l4 2 4 2 4 2 1 3c0 2 0 2 2 1h1c0 2 1 2 4 2l3-1c-1-2 1-3 5-3h1l-1-2h-2c-2 3-7 2-9-1l-3-3 2-3 2-2-3 1c-3 0-4 0-6-2-3-3-9-5-15-5l-5-2c-4-2-4-2-7 0h-7c-1 2-7 2-8 0h-10c1 1 0 2-2 2l-5 3c-2 2-5 2-8 0-2 0-3 1-1 3 3 2-3 1-7-2l-5-3c-2 0-1 3 0 3 3 1 2 7-2 6-3 0-5 3-3 6h-2c-5-1-8 2-7 6 1 2 0 3-2 2-1-2-10 1-11 3l-2 2-4 2c-3 3-6 2-3-1 1-1 0-2-1-3-3-1-6 0-5 2 0 1-2 1-5-1-3-1-3-1-4 1s-4 3-5 1c0-2-5-2-5-1l1 3c1 0 1 1-1 1h-2l-1-3v3l-1 2h-6a14 14 0 00-5-1l-7-2a2 2 0 012-3l2 1 3 1h3c4 0 4-4 0-5-3-1-3-2-1-3 1-1 1-1-1-1l-4-1v-2l1 1h1c0-2 6-1 10 1h6c1-1 1-1-1-1l-3-3c-1-3-4-4-6-2h-4l-5 1-4 2h-5c-2 1-2 1-3-1l-2-2c-2 0-2 0 1-1 2-1 3-1 4 1 1 1 4 0 4-2 0-1 0-2 1-1l1 2v2l1-2 1-4v-2l-2-3h-2c-1 2-8 5-11 5-2 0-3 0-2-1 2-1 1-10-1-12l-2-4c-1-2-1-3-4-3h-2l2 3 2 4v3c-1 3-1 3-3 2v-2l-2-2c-1 0-2-1-1-2 0-3-1-6-2-5-3 2-6 1-9-2-2-3-4-4-4-1l-2 3v1l1 2 1 1h4c1 1 1 1-2 1l-4 1c-1 2-3-1-2-3l-1-2c-2-1-1-4 1-4v-1h-3c-3 0-3 0-2-1 2-1-1-4-4-4l-2-1c0-2-2-1-3 1 0 3-2 3-3 0l-1-3c-1 1-2-4-1-5l2-1c1 1 4 0 4-1 0-2-6-1-8 2s-3 3-3 0l2-4c2-2 2-2 1-3-2-1 0-2 3-1 2 0 2 0 1-1-2-3 0-4 3-3 3 0 4-1 2-2s2-10 5-11c2 0 3-1 3-2-1-1 0-1 2-2l4-3 3-2 1-1 4-2 5-3c3-3 12-5 22-5a41 41 0 0013-1l2-1 1-2c1-2 1-2 2 0 0 2 1 2 2 1 2-1 2-1 1-2v-3c1-1 1-1 0 0-2 2-5 1-2-1h5a12 12 0 0012-2l2-1-1-1h-1a39 39 0 0111-11h-2v-1l2-3 3-3 6-6c0-1-2-2-3-1v1l-1 3h-2l-3-1-4-2c-2-2-4-2-7-2h-2c2-1 2-1 0-3l-3-2-1-1c0-2 5-2 7 1v-2l-3-3-2-1-1-1c-4 1-6-1-2-2 1-1 1-1-1-1s-3 1 0 5l1 2h-5l-1 1c-2 0-2-2-1-2 2-1-1-4-3-4v-2l-3-1h-1v-2l-1-2c1-2 1-2 3-1l3 1h2l2 1-1-1-1-1 2-2 4-1h-2c-3 0-4 0-5-2l-5-2-2-1-1-1v2c1 3 0 5-3 3-1-2-2-2-2-1l-3 1c-2 0-2 0-1 1l3 1c2-1 4 3 3 4-2 2-8-2-8-6 0-1-5-1-7 1h-3c-1-2-1-2-4 0-3 1-3 3 0 2l2 1h-1l-1 1c1 2 1 2-2 0-4-2-5-1-2 2s2 3-2 2c-4-2-5-5-2-6v-3c2 0 2-1-1-3l-1-2c2 0 2 0 1-1s-6 0-6 1l2 1 1 3v2c1 3 0 6-1 5-2-1-2-2-2-4 1-2-2-4-5-2-2 2-7-1-8-5l-2-2c-1 0-1 5 1 6l1 3h-2a13 13 0 00-7-8l-2-1-2-2 2-1h1c-2-2-9-2-9-1 0 2-1 2-3 1-1-1-1-1 2-2l3-2-3-1c-1 1-8 0-11-1l-3-2-2 1m18 9c-2 0-2 1-1 1 1 1 1 1-1 2l-1 4c-1 2-1 2-4 1s-3-3 0-3h3l-3-1c-3-1-5 0-7 4-3 3 1 8 5 7 4 0 4 0 7 4l5 5c1 0 2-3 0-4l1-2h2l3 1 2 1c1 2 1 2-2 3-2 1-2 1 2 1l5-1v-8h2c2 2 5 1 5-1s-3-4-5-2h-4l-4 2-2 2-2-2c-3-3-3-9-1-9l2-1-2-1c-3 0-4-2-2-3v-1l-3 1m55 17l4 3c3 2 3 2 1 3-3 1-2 3 1 2l3 3c2 3 2 4-1 3-2 0-1 1 1 3 1 1 7 2 6 0-2-1 3-3 5-1h2l-1-3c0-2-3-3-4-2h-1c0-3 0-4-1-2-1 3-3 3-3 0-1-1 0-2 1-2v-1l-2-4c0-3-5-5-5-1l1 1 1 1-3-1c-3-3-5-4-5-2m-19 11v2l6 1c-1-1 4-3 6-3 4 0 1-1-4-2-4 0-5 0-4 2h-2c-2-2-2-2-2 0m98 42h-5l2 2c3 1 4 3 3 9l1 4 1-1h1l3-1 2-2h3v-1a3 3 0 01-2-3 2 2 0 10-1-3h-4c-4-1-5-3-3-3a1 1 0 10-2-1m-90 95l2 2c1 1 1 4-1 4v-1l-1-2-2 1c-1 1-2 2-3 1-2 0-2 0-1 2 3 3 1 5-7 5-1 0-2 1-2 3h1c2-2 5-1 4 1l1 1 2-1c0-2 2-3 4-3l1 1c0 1 1 2 3 2 4 1 4 0-1-3-4-3-3-4 6-5l7-1c1-1 1-1-1-1h-4l-3-3-2-3a1 1 0 00-3 0m-31 10a12 12 0 0011 6l1 1v-1l1-2c1 0 2 0 1-1h-1c-1 1-2 0-3-1-2-2-2-2 0-2v-1l-2 1a4 4 0 01-7-1l-1 1m-1 4c2 2 1 4-1 4-3 1-2 3 1 4l3 2 2 2c1-1-3-12-5-13v1m40 2l-1 3-2 1c-5-1-6 1-3 4l3 2c-1-3 1-5 4-5 2 0 2 0 2 2-1 2-1 2 1 2s3 2 1 2c-1 1 0 1 1 1l2-1c0-1 1-2 5-2 6 1 10 2 8 3h-1l-1-1-2 1-2 1-3-1h-1c-2 1-1 3 1 2h8c3 0 5 0 5-2v-3h-1c-2 1-8-1-6-3h-2c-4 2-7 0-5-1l1-2 1-1 2-1-5-1c-3 0-4 0-3 1s0 6-1 6l-1-2c0-1 0-2-2-2s-2-1-1-2c0-2 0-2-2-1m108 2l1 2 2 3c3 0 3 6 0 6-2 0-3 3-1 4v2l2 1 1-2 1-2 1 1h1v-2c0-2 0-2 3-2 3 1 3 1 2-1s0-3 3-3a4 4 0 015 2v-2c0-1 1-2 3-2 3-1 3-1 2-2-2-2-8-4-7-2 1 1-1 3-3 2l-1 1c1 2-6 2-7 0l-2-2-3-1-3-2v1m-140 5c-2 0-1 2 1 2l2 2h-4l2 2 4 3 1 2c0 2 2 1 2-1a1 1 0 113 0c-3 4 15 9 18 5l4-1c2 0 2 0 1-3-1-4-2-5-11-6l-8-1c-2-2-8-4-8-2h-2c-2-2-3-3-5-2M1 408l1 65 3-2c3-2 15-1 22 2h7l4 1 3-1c2 0 3-2 4-4l2-5 2-5 3-7 2-3 1-1 1-2 2-3 2-3 2-6 2-5c0-2-5-7-8-7l-3-1-3-1h-2l-1-1c-1 1-14-1-19-3-4-2-4-2-4-7 1-5 4-14 7-15s0-10-3-10c-2 0-7-6-8-11l-3-5-7-8-5-8-2-4c-2-4-2-1-2 60m327-59c-1 1 0 3 1 2 2 0 5 2 5 4l3 1h3l-3-2c-2-2-3-3-1-3l2-1c1-2-4-2-5-1h-5m-77 3c-2 3-1 4 4 4 4-1 5 0 6 1 4 4 5 3 2-2-1-3-2-3-7-3l-2-1c-1-1-3-1-3 1m218 14c-3 2-5 3-6 2-1 0-8 6-8 8 0 1 3 3 4 1l7-5c10-7 11-8 9-8l-6 2m-416 1c-1 2 0 4 3 3l3 1 2 1 2 2 2 1c3-1 4-3 1-3l-3-1c0-4-7-7-10-4m274 4c0 1-1 2-4 2a4 4 0 00-4 1l-2 1h-10v2l-3 2c-5 1-7 1-7-3l-2-3-1 2v2l-1-2c0-1-1-2-6-2h-7l-2-1c-2 1-1 5 2 5l1 2 2 4c4 2 5 2 5 1l-1-2-1-1c1-3 2-2 5 1s3 3 1 4v2l1 1h-2c-3-2-4 0-2 2l2 3s1 2 3 2c2 2 3 3 2 4l2 5 2 2-2 2c-2 1-2 1 0 1 4 0 8 2 5 3v2l1 2h5c3 0 5 1 5 2 1 2 4 1 5-1h3c1 1 2 1 2-1l4-3 3-1c1-2-3-2-4-1-2 2-4 2-4 1a1 1 0 00-3 0c1 1 0 1-2 1l-7-3c-7-1-12-8-10-14l-1-4c-2-2-2-2 2-4l2-2-1-1 3-1 2-1 5-1 5 1 2 1 3 3c0 1 1 2 3 2l2-1c0-2 1-1 3 1 1 2 0 3-1 2-2-1-1 1 2 3 2 0 3 1 3 2-1 1 1 4 3 4 1 0 1 1-1 3-1 1-2 2-4 1-4 0-6 2-4 4h2c0-2 3-3 3-1l1 1c1-1 3 0 5 1 4 1 8 1 5-2l-1-2h1c1 1 1 1 3-1 1-1 2-2 5-2l3-1c-1-1 0-1 1-1l7-3h-1l-2-1 5-2a6 6 0 006-4h3c2-1 1-6-2-6l-1-1c0-2 2-3 5-3s3-3 0-4c-4-2-15-3-23-4l-8-1c-2-1-2-1-2 1 0 3 0 3-2 2l-2-3-4-1-5-1c-3-1-4-1-4 1m128 11c2 5 5 9 5 6l1-1c3 0 0-6-2-6-4-1-4-1-4 1m-216 0c-1 1 0 2 2 2s5 2 5 3l-2 1c-2-1-3-1-2 1l2 1 1 1h2l1 1c0 1 1 2 3 2l3 2c0 2 4 5 6 5l6 2c2 0 2 1 2 2-1 2-1 2 2 2h2c-1 3 1 3 2 2 1-2 8 4 8 7l4 3c5 2 7 4 7 6l1 2c1-1 2 0 2 1h2c1-2 1-2-11-12l-8-7c-4-4-10-8-12-8l-1-1c1-2 0-2-4-2-3 0-5-2-3-5 2-2 0-4-2-2l-1-1v-1l-3-2c-3-4-13-7-14-5m228 10c0 3 0 4-3 4-1 1-2 1-1 2h1l1-1 1 1c-1 1 0 3 1 3l2 5c1 3 6 3 7-2 2-5 2-6-2-10l-4-5-1-1c-2 0-2 1-2 4m-124 33v2l1 1c0 1-5 2-6 1-2-2-3-1-4 2-1 4 1 4 5 1l3-1h5l2 2v-2l-2-5c-1-3-4-4-4-1m-12 19l-2 1 2 1a4 4 0 005 2l-2 1c-2 1-2 1 0 1s3 1 4 3l3 2-1-2-1-3c1-1-4-7-5-7l-3 1m12 5l1 2c1 2 2 3 1 4s-1 1 2 2l10 1 1-3c0-2 0-2-2-1-3 3-9 1-9-3a3 3 0 00-4-2m-43 10l-1 1h1c1-1 1-1 3 1 4 2 4 3 1 3l-5 1c-1 2-1 2 2 2l7-1c4 1 6 0 4-2-3-4-11-7-12-5m25 24l1 5c1 1 1 2-1 2-6 0-11 2-11 3h14v-1l1-1 1 1c0 2 2 4 5 3 3 0 4-1 1-4v-2l1-1c0-2-2-1-4 1h-4l-1-1v-1l-1-4-1-3-1 3m25 50l2 2 4 3 3 2 2 2c2 1 3 1 4-1 0-2 0-2-2-2h-2l1-1c3-1 2-4-2-4h-5l-2-1-2-2c-2 0-2 0-1 2m25 2l-2 1c-4-1-4 1 0 3l2 2 1 1c1 0 2-1 1-2 0-2 3-4 4-2h2l-3-2a7 7 0 01-5-3v2"
      fill-rule="evenodd" tabindex="-1" itemprop="bold"></path>
    </symbol>
  </defs>
  <defs class="gradients">
    <g class="radial">
      <radialGradient id="-posters-1652403247029-radial">
        <stop itemprop="radial" stop-color="hsla(34, 54%, 31%, 1.00)" offset="0%"></stop>
        <stop itemprop="radial" stop-color="hsla(39, 43%, 30%, 1.00)" offset="15%"></stop>
        <stop itemprop="radial" stop-color="hsla(35, 46%, 33%, 1.00)" offset="30%"></stop>
        <stop itemprop="radial" stop-color="hsla(34, 45%, 36%, 1.00)" offset="45%"></stop>
        <stop itemprop="radial" stop-color="hsla(35, 36%, 43%, 1.00)" offset="60%"></stop>
        <stop itemprop="radial" stop-color="hsla(35, 33%, 44%, 1.00)" offset="75%"></stop>
        <stop itemprop="radial" stop-color="hsla(53, 19%, 25%, 1.00)" offset="90%"></stop>
      </radialGradient>
      <radialGradient id="-posters-1652403247029-radial-background">
        <stop stop-color="hsla(34, 54%, 80%, 1)" offset="0%"></stop>
        <stop stop-color="hsla(39, 43%, 80%, 1)" offset="15%"></stop>
        <stop stop-color="hsla(35, 46%, 80%, 1)" offset="30%"></stop>
        <stop stop-color="hsla(34, 45%, 80%, 1)" offset="45%"></stop>
        <stop stop-color="hsla(35, 36%, 80%, 1)" offset="60%"></stop>
        <stop stop-color="hsla(35, 33%, 80%, 1)" offset="75%"></stop>
        <stop stop-color="hsla(53, 19%, 80%, 1)" offset="90%"></stop>
      </radialGradient>
      <radialGradient id="-posters-1652403247029-radial-light">
        <stop stop-color="hsla(34, 54%, 60%, 1)" offset="0%"></stop>
        <stop stop-color="hsla(39, 43%, 60%, 1)" offset="15%"></stop>
        <stop stop-color="hsla(35, 46%, 60%, 1)" offset="30%"></stop>
        <stop stop-color="hsla(34, 45%, 60%, 1)" offset="45%"></stop>
        <stop stop-color="hsla(35, 36%, 60%, 1)" offset="60%"></stop>
        <stop stop-color="hsla(35, 33%, 60%, 1)" offset="75%"></stop>
        <stop stop-color="hsla(53, 19%, 60%, 1)" offset="90%"></stop>
      </radialGradient>
      <radialGradient id="-posters-1652403247029-radial-regular">
        <stop stop-color="hsla(34, 54%, 40%, 1)" offset="0%"></stop>
        <stop stop-color="hsla(39, 43%, 40%, 1)" offset="15%"></stop>
        <stop stop-color="hsla(35, 46%, 40%, 1)" offset="30%"></stop>
        <stop stop-color="hsla(34, 45%, 40%, 1)" offset="45%"></stop>
        <stop stop-color="hsla(35, 36%, 40%, 1)" offset="60%"></stop>
        <stop stop-color="hsla(35, 33%, 40%, 1)" offset="75%"></stop>
        <stop stop-color="hsla(53, 19%, 40%, 1)" offset="90%"></stop>
      </radialGradient>
      <radialGradient id="-posters-1652403247029-radial-bold">
        <stop stop-color="hsla(34, 54%, 13%, 1)" offset="0%"></stop>
        <stop stop-color="hsla(39, 43%, 13%, 1)" offset="15%"></stop>
        <stop stop-color="hsla(35, 46%, 13%, 1)" offset="30%"></stop>
        <stop stop-color="hsla(34, 45%, 13%, 1)" offset="45%"></stop>
        <stop stop-color="hsla(35, 36%, 13%, 1)" offset="60%"></stop>
        <stop stop-color="hsla(35, 33%, 13%, 1)" offset="75%"></stop>
        <stop stop-color="hsla(53, 19%, 13%, 1)" offset="90%"></stop>
      </radialGradient>
    </g>
    <g class="vertical">
      <linearGradient id="-posters-1652403247029-vertical" x1="0" x2="0" y1="0" y2="100%">
        <stop itemprop="vertical" stop-color="hsla(34, 52%, 31%, 1.00)" offset="0%"></stop>
        <stop itemprop="vertical" stop-color="hsla(37, 44%, 31%, 1.00)" offset="15%"></stop>
        <stop itemprop="vertical" stop-color="hsla(34, 46%, 35%, 1.00)" offset="30%"></stop>
        <stop itemprop="vertical" stop-color="hsla(35, 36%, 44%, 1.00)" offset="45%"></stop>
        <stop itemprop="vertical" stop-color="hsla(47, 20%, 32%, 1.00)" offset="60%"></stop>
        <stop itemprop="vertical" stop-color="hsla(34, 51%, 31%, 1.00)" offset="75%"></stop>
        <stop itemprop="vertical" stop-color="hsla(37, 44%, 31%, 1.00)" offset="90%"></stop>
      </linearGradient>
      <linearGradient id="-posters-1652403247029-vertical-background" x1="0" x2="0" y1="0" y2="100%">
        <stop stop-color="hsla(34, 52%, 80%, 1)" offset="0%"></stop>
        <stop stop-color="hsla(37, 44%, 80%, 1)" offset="15%"></stop>
        <stop stop-color="hsla(34, 46%, 80%, 1)" offset="30%"></stop>
        <stop stop-color="hsla(35, 36%, 80%, 1)" offset="45%"></stop>
        <stop stop-color="hsla(47, 20%, 80%, 1)" offset="60%"></stop>
        <stop stop-color="hsla(34, 51%, 80%, 1)" offset="75%"></stop>
        <stop stop-color="hsla(37, 44%, 80%, 1)" offset="90%"></stop>
      </linearGradient>
      <linearGradient id="-posters-1652403247029-vertical-light" x1="0" x2="0" y1="0" y2="100%">
        <stop stop-color="hsla(34, 52%, 60%, 1)" offset="0%"></stop>
        <stop stop-color="hsla(37, 44%, 60%, 1)" offset="15%"></stop>
        <stop stop-color="hsla(34, 46%, 60%, 1)" offset="30%"></stop>
        <stop stop-color="hsla(35, 36%, 60%, 1)" offset="45%"></stop>
        <stop stop-color="hsla(47, 20%, 60%, 1)" offset="60%"></stop>
        <stop stop-color="hsla(34, 51%, 60%, 1)" offset="75%"></stop>
        <stop stop-color="hsla(37, 44%, 60%, 1)" offset="90%"></stop>
      </linearGradient>
      <linearGradient id="-posters-1652403247029-vertical-regular" x1="0" x2="0" y1="0" y2="100%">
        <stop stop-color="hsla(34, 52%, 40%, 1)" offset="0%"></stop>
        <stop stop-color="hsla(37, 44%, 40%, 1)" offset="15%"></stop>
        <stop stop-color="hsla(34, 46%, 40%, 1)" offset="30%"></stop>
        <stop stop-color="hsla(35, 36%, 40%, 1)" offset="45%"></stop>
        <stop stop-color="hsla(47, 20%, 40%, 1)" offset="60%"></stop>
        <stop stop-color="hsla(34, 51%, 40%, 1)" offset="75%"></stop>
        <stop stop-color="hsla(37, 44%, 40%, 1)" offset="90%"></stop>
      </linearGradient>
      <linearGradient id="-posters-1652403247029-vertical-bold" x1="0" x2="0" y1="0" y2="100%">
        <stop stop-color="hsla(34, 52%, 13%, 1)" offset="0%"></stop>
        <stop stop-color="hsla(37, 44%, 13%, 1)" offset="15%"></stop>
        <stop stop-color="hsla(34, 46%, 13%, 1)" offset="30%"></stop>
        <stop stop-color="hsla(35, 36%, 13%, 1)" offset="45%"></stop>
        <stop stop-color="hsla(47, 20%, 13%, 1)" offset="60%"></stop>
        <stop stop-color="hsla(34, 51%, 13%, 1)" offset="75%"></stop>
        <stop stop-color="hsla(37, 44%, 13%, 1)" offset="90%"></stop>
      </linearGradient>
    </g>
    <g class="horizontal">
      <linearGradient id="-posters-1652403247029-horizontal" x1="0" x2="100%" y1="0" y2="0">
        <stop itemprop="horizontal" stop-color="hsla(36, 43%, 37%, 1.00)" offset="0%"></stop>
        <stop itemprop="horizontal" stop-color="hsla(40, 35%, 36%, 1.00)" offset="15%"></stop>
        <stop itemprop="horizontal" stop-color="hsla(36, 42%, 35%, 1.00)" offset="30%"></stop>
        <stop itemprop="horizontal" stop-color="hsla(35, 45%, 34%, 1.00)" offset="45%"></stop>
        <stop itemprop="horizontal" stop-color="hsla(35, 38%, 38%, 1.00)" offset="60%"></stop>
        <stop itemprop="horizontal" stop-color="hsla(35, 34%, 41%, 1.00)" offset="75%"></stop>
        <stop itemprop="horizontal" stop-color="hsla(51, 22%, 30%, 1.00)" offset="90%"></stop>
      </linearGradient>
      <linearGradient id="-posters-1652403247029-horizontal-background" x1="0" x2="100%" y1="0" y2="0">
        <stop stop-color="hsla(36, 43%, 80%, 1)" offset="0%"></stop>
        <stop stop-color="hsla(40, 35%, 80%, 1)" offset="15%"></stop>
        <stop stop-color="hsla(36, 42%, 80%, 1)" offset="30%"></stop>
        <stop stop-color="hsla(35, 45%, 80%, 1)" offset="45%"></stop>
        <stop stop-color="hsla(35, 38%, 80%, 1)" offset="60%"></stop>
        <stop stop-color="hsla(35, 34%, 80%, 1)" offset="75%"></stop>
        <stop stop-color="hsla(51, 22%, 80%, 1)" offset="90%"></stop>
      </linearGradient>
      <linearGradient id="-posters-1652403247029-horizontal-light" x1="0" x2="100%" y1="0" y2="0">
        <stop stop-color="hsla(36, 43%, 60%, 1)" offset="0%"></stop>
        <stop stop-color="hsla(40, 35%, 60%, 1)" offset="15%"></stop>
        <stop stop-color="hsla(36, 42%, 60%, 1)" offset="30%"></stop>
        <stop stop-color="hsla(35, 45%, 60%, 1)" offset="45%"></stop>
        <stop stop-color="hsla(35, 38%, 60%, 1)" offset="60%"></stop>
        <stop stop-color="hsla(35, 34%, 60%, 1)" offset="75%"></stop>
        <stop stop-color="hsla(51, 22%, 60%, 1)" offset="90%"></stop>
      </linearGradient>
      <linearGradient id="-posters-1652403247029-horizontal-regular" x1="0" x2="100%" y1="0" y2="0">
        <stop stop-color="hsla(36, 43%, 40%, 1)" offset="0%"></stop>
        <stop stop-color="hsla(40, 35%, 40%, 1)" offset="15%"></stop>
        <stop stop-color="hsla(36, 42%, 40%, 1)" offset="30%"></stop>
        <stop stop-color="hsla(35, 45%, 40%, 1)" offset="45%"></stop>
        <stop stop-color="hsla(35, 38%, 40%, 1)" offset="60%"></stop>
        <stop stop-color="hsla(35, 34%, 40%, 1)" offset="75%"></stop>
        <stop stop-color="hsla(51, 22%, 40%, 1)" offset="90%"></stop>
      </linearGradient>
      <linearGradient id="-posters-1652403247029-horizontal-bold" x1="0" x2="100%" y1="0" y2="0">
        <stop stop-color="hsla(36, 43%, 13%, 1)" offset="0%"></stop>
        <stop stop-color="hsla(40, 35%, 13%, 1)" offset="15%"></stop>
        <stop stop-color="hsla(36, 42%, 13%, 1)" offset="30%"></stop>
        <stop stop-color="hsla(35, 45%, 13%, 1)" offset="45%"></stop>
        <stop stop-color="hsla(35, 38%, 13%, 1)" offset="60%"></stop>
        <stop stop-color="hsla(35, 34%, 13%, 1)" offset="75%"></stop>
        <stop stop-color="hsla(51, 22%, 13%, 1)" offset="90%"></stop>
      </linearGradient>
    </g>
  </defs>
  <defs class="filters">
    <filter id="light-filter">
      <feColorMatrix in="SourceGraphic" type="matrix" values="1.5 0 0 0 0
                0 1.5 0 0 0
                0 0 1.5 0 0
                0 0 0 1.5 0"></feColorMatrix>
    </filter>
    <filter id="regular-filter">
      <feColorMatrix in="SourceGraphic" type="matrix" values="1.5 0 0 0 0
                0 1.5 0 0 0
                0 0 1.5 0 0
                0 0 0 1 0"></feColorMatrix>
    </filter>
    <filter id="bold-filter">
      <feColorMatrix in="SourceGraphic" type="matrix" values="1 0 0 0 0
                0 1 0 0 0
                0 0 1 0 0
                0 0 0 1 0"></feColorMatrix>
    </filter>
    <filter id="emboss">
      <feConvolveMatrix kernelMatrix="1 0 0
                      0 0 0
                      0 0 -1"></feConvolveMatrix>
    </filter>
  </defs>
  <g itemscope="" itemtype="/settings">
    <use itemprop="background" href="#-posters-1652403247029-background" style="fill: url(#-posters-1652403247029-radial-background);"></use>
    <use itemprop="light" href="#-posters-1652403247029-light" filter="url(#light-filter)" style="fill: url(#-posters-1652403247029-vertical-light); stroke: url(#-posters-1652403247029-horizontal-light);"></use>
    <use itemprop="regular" href="#-posters-1652403247029-regular" filter="url(#regular-filter)" style="fill: url(#-posters-1652403247029-horizontal-regular); stroke: url(#-posters-1652403247029-vertical-light);"></use>
    <use itemprop="bold" href="#-posters-1652403247029-bold" style="fill: url(#-posters-1652403247029-vertical-bold); stroke: url(#-posters-1652403247029-radial-regular);"></use>
    <use class="emboss light" tabindex="-1" href="#-posters-1652403247029-light" fill="gray" filter="url(#emboss)"></use>
    <use class="emboss regular" tabindex="-1" href="#-posters-1652403247029-regular" fill="DimGray" filter="url(#emboss)"></use>
    <use class="emboss bold" tabindex="-1" href="#-posters-1652403247029-bold" fill="gray" filter="url(#emboss)"></use>
  </g>
</svg>
