<svg version="1" xmlns="http://www.w3.org/2000/svg" width="682.667" height="682.667" viewBox="0 0 512.000000 512.000000"><path d="M127.8.7c70.5.2 185.9.2 256.5 0C454.8.6 397.1.5 256 .5 114.9.5 57.2.6 127.8.7zM62.8 65.7c-1 .2-1.8.9-1.8 1.4 0 .5-1.1.9-2.5.9-1.6 0-2.5.6-2.5 1.5 0 .8-.7 1.5-1.5 1.5s-1.5.7-1.5 1.6c0 .8-.4 1.3-.9 1-.5-.4-1.2.7-1.6 2.4-.4 1.6-1.1 3-1.6 3s-.9 17.3-.9 42.5c0 27.1.4 42.5 1 42.5.5 0 1.2 1.1 1.6 2.5.3 1.4 1 2.5 1.5 2.5s.9.7.9 1.5.7 1.5 1.5 1.5 1.5.4 1.5 1c0 .5 1.1 1.2 2.5 1.6 1.4.3 2.5 1 2.5 1.5s35.1.9 83 .9 83-.4 83-.9 1.1-1.2 2.5-1.5c1.4-.4 2.5-1.1 2.5-1.6 0-.6.7-1 1.5-1s1.5-.7 1.5-1.5.4-1.5.9-1.5 1.2-1.1 1.5-2.5c.4-1.4 1.1-2.5 1.6-2.5.6 0 1-15.4 1-42.5 0-25.2-.4-42.5-.9-42.5s-1.2-1.4-1.6-3c-.4-1.7-1.1-2.8-1.6-2.4-.5.3-.9-.2-.9-1 0-.9-.7-1.6-1.5-1.6s-1.5-.7-1.5-1.5c0-.9-.9-1.5-2.4-1.5-1.3 0-2.6-.6-2.8-1.3-.4-.9-17.6-1.2-81.4-1.3-44.5-.1-81.7 0-82.6.3zM290.3 65.8c-2.4.2-4.3.7-4.3 1.3 0 .5-.7.9-1.5.9-.9 0-2.1.5-2.8 1-5.2 4.4-6.7 6.2-6.7 8 0 1.1-.5 2-1.1 2-.5 0-.7.4-.4 1 .3.5.1 1-.4 1-.8 0-1.1 12.5-1.1 40.1 0 34.3.2 40.3 1.5 41.5.8.9 1.5 2.6 1.5 4 0 1.5.6 2.4 1.5 2.4.8 0 1.5.7 1.5 1.5s.5 1.5 1.1 1.5c.6 0 1.7.7 2.5 1.5.9.8 2.7 1.5 4.2 1.5 2.1 0 2.4.2 1.2 1-1 .6 27.4 1 81 1s82-.4 81-1c-1.2-.8-.9-1 1.2-1 1.5 0 3.3-.7 4.2-1.5.8-.8 1.7-1.5 2-1.5 1.4 0 4.6-4.2 4.6-5.9 0-1.1.7-2.6 1.5-3.5 1.3-1.2 1.5-7.2 1.5-41.5 0-27.6-.3-40.1-1.1-40.1-.5 0-.7-.5-.4-1 .3-.6.1-1-.4-1-.6 0-1.1-.9-1.1-2 0-1.8-1.5-3.6-6.7-8-.7-.5-1.9-1-2.7-1-.8 0-1.6-.5-1.8-1-.3-.9-148-2-159.5-1.2zM66.3 209.8c-2.4.2-4.3.7-4.3 1.3 0 .5-.7.9-1.5.9-.9 0-2.1.5-2.8 1-5.2 4.4-6.7 6.2-6.7 8 0 1.1-.5 2-1.1 2-.5 0-.7.4-.4 1 .3.5.1 1-.4 1-.8 0-1.1 12.5-1.1 40.1 0 34.3.2 40.3 1.5 41.5.8.9 1.5 2.6 1.5 4 0 1.5.6 2.4 1.5 2.4.8 0 1.5.7 1.5 1.5s.5 1.5 1.1 1.5c.6 0 1.7.7 2.5 1.5.9.8 2.7 1.5 4.2 1.5 2.1 0 2.4.2 1.2 1-1 .6 27.4 1 81 1s82-.4 81-1c-1.2-.8-.9-1 1.2-1 1.5 0 3.3-.7 4.2-1.5.8-.8 1.7-1.5 2-1.5 1.4 0 4.6-4.2 4.6-5.9 0-1.1.7-2.6 1.5-3.5 1.3-1.2 1.5-7.2 1.5-41.5 0-27.6-.3-40.1-1.1-40.1-.5 0-.7-.5-.4-1 .3-.6.1-1-.4-1-.6 0-1.1-.9-1.1-2 0-1.8-1.5-3.6-6.7-8-.7-.5-1.9-1-2.7-1-.8 0-1.6-.5-1.8-1-.3-.9-148-2-159.5-1.2zM286 211c0 .5-.7 1-1.5 1-.9 0-2.1.5-2.8 1-5.2 4.4-6.7 6.2-6.7 7.9 0 1.1-.7 2.6-1.5 3.5-1.3 1.2-1.5 7.1-1.5 40.4 0 35.3.2 39.4 1.8 42.3.9 1.8 2.3 3.9 3 4.7.6.7 1.2 2 1.2 2.8 0 .8.5 1.4 1.1 1.4.6 0 1.7.7 2.5 1.5.9.8 2.7 1.5 4.2 1.5 2.1 0 2.4.2 1.2 1-1 .6 27.4 1 81 1s82-.4 81-1c-1.2-.8-.9-1 1.2-1 1.5 0 3.3-.7 4.2-1.5.8-.8 1.9-1.5 2.5-1.5.6 0 1.1-.6 1.1-1.4 0-.8.6-2.1 1.3-2.8.6-.8 2-2.9 3-4.7 1.5-2.9 1.7-7 1.7-42.3 0-33.3-.2-39.2-1.5-40.4-.8-.9-1.5-2.4-1.5-3.5 0-1.7-1.5-3.5-6.7-7.9-.7-.5-1.9-1-2.8-1-.8 0-1.5-.5-1.5-1 0-.7-28-1-82-1s-82 .3-82 1zM285.4 354.5c-.4.8-1.7 1.5-3 1.5-1.5 0-2.4.6-2.4 1.5 0 .8-.5 1.5-1.1 1.5-1.6 0-3.7 2.5-4.5 5.4-.3 1.4-1 2.6-1.5 2.6s-.9 18.3-.9 42.5c0 27.1.4 42.5 1 42.5.5 0 1.2 1.1 1.6 2.5.3 1.4 1 2.5 1.5 2.5s.9.7.9 1.5.6 1.5 1.4 1.5c.8 0 1.6.7 2 1.5.3.8 1.5 1.5 2.6 1.5s2 .4 2 1c0 .7 28.3 1 83 1s83-.3 83-1c0-.6.9-1 2-1s2.3-.7 2.6-1.5c.4-.8 1.2-1.5 2-1.5s1.4-.7 1.4-1.5.4-1.5.9-1.5 1.2-1.1 1.5-2.5c.4-1.4 1.1-2.5 1.6-2.5.6 0 1-15.4 1-42.5 0-24.2-.4-42.5-.9-42.5s-1.2-1.2-1.5-2.6c-.8-2.9-2.9-5.4-4.5-5.4-.6 0-1.1-.7-1.1-1.5 0-.9-.9-1.5-2.4-1.5-1.3 0-2.6-.7-3-1.5-.5-1.3-10.6-1.5-82.6-1.5s-82.1.2-82.6 1.5zM62 355c0 .5-.7 1-1.5 1-.9 0-2.1.5-2.8 1-5.2 4.4-6.7 6.2-6.7 7.9 0 1.1-.7 2.6-1.5 3.5-1.3 1.2-1.5 7.1-1.5 40.4 0 35.3.2 39.4 1.8 42.3.9 1.8 2.3 3.9 3 4.7.6.7 1.2 2 1.2 2.8 0 .8.5 1.4 1.1 1.4.6 0 1.7.7 2.5 1.5.9.8 2.7 1.5 4.2 1.5 2.1 0 2.4.2 1.2 1-1 .6 27.4 1 81 1s82-.4 81-1c-1.2-.8-.9-1 1.2-1 1.5 0 3.3-.7 4.2-1.5.8-.8 1.9-1.5 2.5-1.5.6 0 1.1-.6 1.1-1.4 0-.8.6-2.1 1.3-2.8.6-.8 2-2.9 3-4.7 1.5-2.9 1.7-7 1.7-42.3 0-33.3-.2-39.2-1.5-40.4-.8-.9-1.5-2.4-1.5-3.5 0-1.7-1.5-3.5-6.7-7.9-.7-.5-1.9-1-2.8-1-.8 0-1.5-.5-1.5-1 0-.7-28-1-82-1s-82 .3-82 1z"/></svg>