<svg version="1" xmlns="http://www.w3.org/2000/svg" viewBox="0 0 128 128"><path d="M37.8 7.9c-3.1 2-6.1 4.4-6.8 5.4-.9 1.5-.9 1.8.2 1.2.7-.5-.4 1-2.6 3.3-2.5 2.7-3.7 4.6-3.2 5.7.3.9.2 1.4-.3 1.1-1.5-1-4.1 8.2-5.6 19.4-2.1 15-3.8 24-4.7 24-.4 0-.8.8-.8 1.7-.1 1.8-2.2 5.3-3.3 5.3-1.3 0-5.7 5.2-5.2 6.1.6.9 0 1.1-3.5 1.3-1.3.1-1.5 3.5-1.8 22.9L-.1 128h35.9c30.7 0 35.9-.2 35.9-1.5 0-.8-.4-1.2-.9-.9-.4.3-.9-.5-.9-1.8-.1-1.3-.2-3-.3-3.8-.1-.8.3-2.1.7-2.7 1.3-1.8.1-4.3-2.2-4.3-2 0-3.1-1.8-3.1-5 0-1.4 1.7-2.4 6.8-4.1 6.7-2.2 7.4-3.9.9-2.1-2.7.8-3.8.6-4.9-.5-.8-.8-2.4-1.5-3.6-1.6-1.9-.1-2.1-.6-1.7-4.1.3-2.2 1-4.3 1.7-4.7 1.6-1 .2-6.7-2.2-8.7-2.2-1.9-2.6-5.7-1.5-13.7.9-6.4-.9-15.7-3.6-18.1-1.1-1-3-1.9-4.2-2.1-1.2-.2-3.9-.8-6-1.4-3.7-1-3.7-1-3.6-6 .1-2.7.6-5.2 1.1-5.5 1.4-.9.9-5.2-.9-6.9-1-1-1.2-1.9-.6-2.3.5-.4 1.3-2 1.7-3.5.4-1.5 1.6-3.1 2.9-3.6 1.2-.5 4.6-2.3 7.5-4 5.9-3.4 6.9-3.6 14.3-2 3.4.8 6.4 2.3 9 4.6 2.2 2 3.9 3.2 3.9 2.7 0-.4 1.2.3 2.6 1.7l2.7 2.4-.7-3c-.4-1.7-.9-3.8-1.3-4.9-.4-1.3-.2-1.6.8-1 2.5 1.5-3.3-5.6-6.4-8-4.6-3.4-7.1-3.9-11.3-2.1-2.2.9-5 1.3-6.6 1-2.6-.6-3.3 0-3 2.6.2.9-5.8 2-6.9 1.3-.5-.3-.9-1-.9-1.5 0-.6.5-.7 1-.4.6.3 1.5.3 2.1 0 1.7-1.1-2.2-3.2-6.7-3.6-3.2-.3-5.1.2-9.6 3zM47.5 54c.3.5-.7 1.3-2.2 1.7l-2.8.7 3 .8c2.2.5 1.7.6-1.5.2-5.3-.6-5.7-.9-4-2.9 1.4-1.7 6.5-2 7.5-.5z"/><path d="M82.6 22c.4.8 1.3 2.2 2 3 .7.8 2.4 3.7 3.9 6.5 1.4 2.7 2.3 3.9 1.9 2.5-1.2-4.5-2.3-6.5-5.4-10-1.8-1.9-2.8-2.8-2.4-2zM74.6 42.7c-1.2 1.2-.6 2.5 1 1.9.8-.3 1.2-.2.9.4-.3.6.1 1 .9 1 .9 0 1.6-.4 1.6-1 0-1.2-3.5-3.1-4.4-2.3zM72.1 50.1c-1.7 1-3.1 2.4-3.1 3.1 0 2.3 1.7 4.1 3 3.3.8-.5 1.1-.4.6.3-.7 1.1 4.6 4.2 7.3 4.2 1.4 0 1.4-.2.1-1-1.2-.8-1.1-1 .6-1 1.1 0 2.6-.6 3.3-1.3.6-.6 2.4-1.2 3.8-1.2s2.7-.6 2.9-1.3c.1-.7 0-.8-.2-.4-.5 1-7.2-1-8.3-2.4-.3-.5-2-1.6-3.8-2.5-2.9-1.6-3.3-1.6-6.2.2zm1.4 1.9c.3.5-.1 1-1 1s-1.3-.5-1-1c.3-.6.8-1 1-1 .2 0 .7.4 1 1zM94.3 55.5c0 2.2.2 3 .4 1.7.2-1.2.2-3 0-4-.3-.9-.5.1-.4 2.3zM100.6 75.7c-.4 3.8-.9 9.5-1.1 12.8-.8 10.3-3.1 23.9-4.7 27-.9 1.9-1.3 4.7-1 7.7.4 4.2.7 4.8 2.7 4.8 2.1 0 2.4-.5 2.3-3.9 0-2.2.3-4.5.7-5.2.5-.7.4-1-.2-.6-1.6 1-2.3-4.2-1.3-8.8 1.6-7.4 3-18.9 3.6-29.8.7-11.8 0-14.6-1-4zM69 83c0 .5.7 1 1.5 1s1.5-.5 1.5-1c0-.6-.7-1-1.5-1s-1.5.4-1.5 1zM90.1 123.5c-2.3 4-2.5 4.5-1.3 4.5 1 0 4.5-7 3.9-7.7-.3-.2-1.4 1.2-2.6 3.2zM123.7 125.7c-1.4 1.3-.6 2.3 1.9 2.3 2.2 0 2.5-.2 1.4-1.5-1.4-1.6-2.3-1.9-3.3-.8z"/></svg>