<svg xmlns="http://www.w3.org/2000/svg">
  <style>
    #background {
      fill: transparent;
    }
  </style>
  <defs id="symbols">
    <symbol id="add" viewBox="0 0 16 16">
      <path fill-rule="evenodd"
        d="M8 2a6 6 0 1 0 0 12A6 6 0 0 0 8 2Zm-5.657.343a8 8 0 1 1 11.314 11.314A8 8 0 0 1 2.343 2.343Z"
        clip-rule="evenodd" />
      <path d="M11.5 7.1h-7a.5.5 0 0 0-.5.5v.75a.5.5 0 0 0 .5.5h7a.5.5 0 0 0 .5-.5V7.6a.5.5 0 0 0-.5-.5Z" />
      <path d="M8.88 11.5v-7a.5.5 0 0 0-.5-.5h-.75a.5.5 0 0 0-.5.5v7a.5.5 0 0 0 .5.5h.75a.5.5 0 0 0 .5-.5Z" />
    </symbol>
    <symbol id="animation" viewBox="0 0 64 64">
      <path
        d="M42.27,1.14c-12,0-21.73,9.73-21.73,21.73c0,12,9.73,21.73,21.73,21.73c12,0,21.73-9.73,21.73-21.73   C63.99,10.87,54.27,1.15,42.27,1.14z M42.27,42.23c-10.69,0-19.36-8.67-19.36-19.36c0-10.69,8.67-19.36,19.36-19.36   c10.69,0,19.36,8.67,19.36,19.36C61.62,33.55,52.96,42.21,42.27,42.23z">
      </path>
      <path
        d="M11.64,31.11c0.01,0,0.02,0.01,0.02,0.01c0.62,0.22,1.29-0.11,1.51-0.73c0-0.01,0-0.01,0.01-0.02   c0.85-2.38,2.23-4.53,4.05-6.28c0.46-0.47,0.45-1.22-0.02-1.68c-0.45-0.44-1.16-0.45-1.63-0.03c-2.08,2.01-3.67,4.47-4.64,7.2   C10.71,30.2,11.03,30.88,11.64,31.11z">
      </path>
      <path
        d="M12.25,36.18c-0.01-0.65-0.55-1.17-1.21-1.16c-0.65,0.01-1.17,0.55-1.16,1.21c0.07,3.4,1.07,6.71,2.88,9.58   c0.22,0.35,0.6,0.56,1.01,0.55c0.65,0,1.19-0.53,1.19-1.18c0-0.22-0.06-0.44-0.18-0.63C13.18,42.04,12.31,39.15,12.25,36.18z">
      </path>
      <path
        d="M40.28,47.09c-0.02,0.02-0.03,0.03-0.05,0.05v-0.01c-2.06,2.14-4.66,3.67-7.52,4.43c-0.63,0.17-1.01,0.82-0.84,1.45   c0.17,0.63,0.82,1.01,1.45,0.84c3.28-0.87,6.26-2.63,8.62-5.07c0.47-0.46,0.48-1.21,0.02-1.68C41.5,46.64,40.75,46.63,40.28,47.09z">
      </path>
      <path
        d="M26.87,52.03L26.87,52.03c-2.95-0.3-5.76-1.39-8.13-3.17c-0.52-0.39-1.27-0.29-1.66,0.24c-0.39,0.52-0.29,1.27,0.24,1.66   c2.71,2.04,5.94,3.3,9.32,3.64h0.12c0.65,0.03,1.21-0.47,1.24-1.13C28.03,52.62,27.53,52.06,26.87,52.03z">
      </path>
      <path
        d="M2.77,53.28c0-0.1-0.01-0.2-0.04-0.3l-0.01,0.01c-0.24-0.95-0.36-1.93-0.36-2.92c0-0.46,0.03-0.91,0.08-1.37   c0.07-0.65-0.4-1.25-1.05-1.32c-0.65-0.07-1.25,0.4-1.32,1.05C0.02,48.98,0,49.53,0,50.07c0,1.18,0.14,2.35,0.43,3.49   c0.13,0.53,0.61,0.9,1.15,0.89C2.24,54.46,2.77,53.93,2.77,53.28z">
      </path>
      <path
        d="M2.1,45.11c0.58,0.29,1.28,0.06,1.58-0.51c0.67-1.28,1.56-2.43,2.64-3.39c0.46-0.46,0.46-1.21,0-1.68   c-0.43-0.43-1.11-0.46-1.58-0.09c-1.29,1.15-2.36,2.53-3.16,4.07C1.29,44.1,1.52,44.81,2.1,45.11z">
      </path>
      <path
        d="M23.21,57.96L23.21,57.96c-0.95,1.07-2.09,1.97-3.37,2.65c-0.59,0.28-0.84,0.99-0.56,1.58c0.28,0.59,0.99,0.84,1.58,0.56   c0.03-0.01,0.06-0.03,0.09-0.05c1.53-0.8,2.89-1.87,4.04-3.16c0.44-0.49,0.39-1.24-0.1-1.68C24.4,57.42,23.65,57.47,23.21,57.96z">
      </path>
      <path
        d="M7.62,59.95c-0.02-0.01-0.04-0.03-0.06-0.04V59.9c-1.19-0.81-2.22-1.84-3.05-3.02c-0.38-0.54-1.11-0.67-1.65-0.29   s-0.67,1.11-0.29,1.65c0.99,1.42,2.22,2.64,3.65,3.62c0.53,0.39,1.27,0.28,1.66-0.25C8.26,61.08,8.14,60.34,7.62,59.95z">
      </path>
    </symbol>
    <symbol id="arrow" viewBox="0 0 17 13">
      <path fill-rule="evenodd"
        d="M10.859 2.059V3.83a1.75 1.75 0 0 1-1.75 1.75H1.5v1.095h7.609a1.75 1.75 0 0 1 1.75 1.75v1.796l3.535-4.081-3.535-4.081ZM10.12.077a1.17 1.17 0 0 1 1.292.329v.001l4.303 4.967c.184.213.285.485.285.766v.022l.1.085-.127.146a1.17 1.17 0 0 1-.258.513l-4.303 4.968a1.17 1.17 0 0 1-2.053-.766V8.425a.25.25 0 0 0-.25-.25H1.167A1.17 1.17 0 0 1 0 7.005V5.25a1.17 1.17 0 0 1 1.17-1.17h7.939a.25.25 0 0 0 .25-.25V1.173A1.173 1.173 0 0 1 10.12.077Z"
        clip-rule="evenodd" />
    </symbol>
    <symbol id="ascending" viewBox="0 0 16 13">
      <rect width="12" height="1.75" rx=".25" />
      <rect width="7" height="1.75" y="5" rx=".25" />
      <rect width="6" height="1.75" y="10" rx=".25" />
      <path fill-rule="evenodd"
        d="M11.076 11.546c0 .33.267.596.596.596h.893a.595.595 0 0 0 .595-.596V7.38h1.492a.595.595 0 0 0 .39-1.045l-2.528-2.189a.595.595 0 0 0-.78 0l-2.527 2.19a.595.595 0 0 0 .39 1.044h1.48v4.167Z"
        clip-rule="evenodd" />
    </symbol>
    <symbol id="background">
      <rect width="100%" height="100%" />
    </symbol>
    <symbol id="camera" viewBox="0 0 18 15">
      <path fill-rule="evenodd"
        d="M4.635 1.912c.21-.69.85-1.162 1.573-1.162h5.55c.759 0 1.42.518 1.599 1.255l.225.936h.996a2.666 2.666 0 0 1 2.672 2.66v5.989c0 1.47-1.198 2.66-2.672 2.66H3.422A2.666 2.666 0 0 1 .75 11.59V5.6c0-1.47 1.197-2.66 2.672-2.66h.9l.313-1.029Zm1.704.653-.471 1.547a.91.91 0 0 1-.871.644H3.422c-.471 0-.85.38-.85.845v5.989c0 .466.379.845.85.845h11.156c.471 0 .85-.38.85-.845V5.6a.848.848 0 0 0-.85-.845h-1.713a.91.91 0 0 1-.886-.696l-.36-1.495h-5.28ZM10.5 8a1.5 1.5 0 1 1-3 0 1.5 1.5 0 0 1 3 0ZM12 8a3 3 0 1 1-6 0 3 3 0 0 1 6 0Z"
        clip-rule="evenodd" />
    </symbol>
    <symbol id="circle" viewBox="0 0 120 120">
      <circle cy="60" cx="60" r="60" />
    </symbol>
    <symbol id="collapse" viewBox="0 0 14 14">
      <path fill-rule="evenodd"
        d="M1.124.587a.5.5 0 0 1 .707 0l2.475 2.475.879-.88a.5.5 0 0 1 .852.39l-.2 2.801a.5.5 0 0 1-.464.463l-2.801.201a.5.5 0 0 1-.39-.852L3.07 4.3.594 1.824a.5.5 0 0 1 0-.707l.53-.53Zm12.382.537a.5.5 0 0 1 0 .707l-2.475 2.475.88.879a.5.5 0 0 1-.39.852l-2.801-.2a.5.5 0 0 1-.463-.464l-.201-2.801a.5.5 0 0 1 .852-.39l.886.887L12.269.594a.5.5 0 0 1 .707 0l.53.53ZM.586 12.262a.5.5 0 0 0 0 .707l.531.53a.5.5 0 0 0 .707 0L4.3 11.024l.886.886a.5.5 0 0 0 .852-.39l-.2-2.8a.5.5 0 0 0-.464-.463l-2.8-.201a.5.5 0 0 0-.39.852l.879.879-2.475 2.475H.586Zm12.383 1.244a.5.5 0 0 1-.707 0l-2.475-2.475-.879.88a.5.5 0 0 1-.852-.39l.2-2.801a.5.5 0 0 1 .464-.463l2.801-.201a.5.5 0 0 1 .39.852l-.887.886 2.475 2.475a.5.5 0 0 1 0 .707l-.53.53Z"
        clip-rule="evenodd" />
    </symbol>
    <symbol id="color" viewBox="0 0 120 120">
      <circle cy="60" cx="60" r="60" fill="url(#rainbow)" fill-opacity="0.66" />
      <use href="#opacity" />
    </symbol>
    <symbol id="date-picker" viewBox="0 0 150 150">
      <rect x="1" y="1" rx="8" width="114" height="114" />
      <path
        d="M130.019 110.44H117.56V97.98a3.558 3.558 0 00-3.56-3.56 3.56 3.56 0 00-3.559 3.56v12.46h-12.46a3.558 3.558 0 100 7.119h12.46v12.46a3.56 3.56 0 107.119 0v-12.46h12.459a3.559 3.559 0 100-7.119z" />
      <path
        d="M88.544 88.544c-14.059 14.059-14.059 36.853 0 50.912 14.059 14.059 36.853 14.059 50.912 0 14.059-14.059 14.059-36.853 0-50.912-14.059-14.059-36.853-14.059-50.912 0zm45.999 46c-11.345 11.344-29.741 11.345-41.086 0-11.346-11.346-11.346-29.741 0-41.087 11.345-11.346 29.741-11.346 41.086 0 11.346 11.346 11.346 29.741 0 41.087z" />
    </symbol>
    <symbol id="decending" viewBox="0 0 15 12">
      <path
        d="M11.75 0H.25A.25.25 0 0 0 0 .25V1.5c0 .138.112.25.25.25h11.5A.25.25 0 0 0 12 1.5V.25a.25.25 0 0 0-.25-.25Zm-5 5H.25a.25.25 0 0 0-.25.25V6.5c0 .138.112.25.25.25h6.5A.25.25 0 0 0 7 6.5V5.25A.25.25 0 0 0 6.75 5Zm-1 5H.25a.25.25 0 0 0-.25.25v1.25c0 .138.112.25.25.25h5.5A.25.25 0 0 0 6 11.5v-1.25a.25.25 0 0 0-.25-.25Z" />
      <path fill-rule="evenodd"
        d="M12.171 4.293a.596.596 0 0 0-.595-.596h-.893a.595.595 0 0 0-.595.596v4.166H8.596a.595.595 0 0 0-.39 1.046l2.528 2.189a.595.595 0 0 0 .78 0l2.527-2.19a.595.595 0 0 0-.39-1.045h-1.48V4.293Z"
        clip-rule="evenodd" />
    </symbol>
    <symbol id="download" viewBox="0 0 16 16">
      <path fill-rule="evenodd"
        d="M2 8a6 6 0 1 1 12 0A6 6 0 0 1 2 8ZM0 8a8 8 0 1 1 16 0A8 8 0 0 1 0 8Zm8.88-4.5a.5.5 0 0 0-.5-.5h-.75a.5.5 0 0 0-.5.5V7H5.877a.5.5 0 0 0-.327.878l2.123 1.839a.5.5 0 0 0 .654 0l2.123-1.839A.5.5 0 0 0 10.123 7H8.88V3.5ZM5.5 10.62a.5.5 0 0 0-.5.5v.75a.5.5 0 0 0 .5.5h5a.5.5 0 0 0 .5-.5v-.75a.5.5 0 0 0-.5-.5h-5Z"
        clip-rule="evenodd" />
    </symbol>
    <symbol id="edit" viewBox="0 0 15 14">
      <path fill-rule="evenodd"
        d="M.5 0a.5.5 0 0 0-.5.5v13a.5.5 0 0 0 .5.5h9a.5.5 0 0 0 .125-.016.5.5 0 0 0 .125.016h.75a.5.5 0 0 0 .5-.5V6.773l3.102-4.35a.5.5 0 0 0-.117-.697l-.61-.436a.5.5 0 0 0-.698.117L11 3.76V.5a.5.5 0 0 0-.5-.5h-.75a.5.5 0 0 0-.125.016A.5.5 0 0 0 9.5 0h-9Zm8.75 1.75h-7.5v10.5h7.5V9.227l-.173.242a.5.5 0 0 1-.106.109l-.994.748a.5.5 0 0 1-.777-.553l.384-1.184a.5.5 0 0 1 .069-.136l1.597-2.24V1.75Z"
        clip-rule="evenodd" />
    </symbol>
    <symbol id="expand" viewBox="0 0 14 14">
      <path fill-rule="evenodd"
        d="M5.422 5.96a.5.5 0 0 1-.707 0L2.24 3.485l-.879.879a.5.5 0 0 1-.852-.39l.201-2.8A.5.5 0 0 1 1.173.71l2.801-.2a.5.5 0 0 1 .39.851l-.886.886 2.475 2.475a.5.5 0 0 1 0 .707l-.53.53-.001.001Zm2.711-.537a.5.5 0 0 1 0-.708l2.475-2.474-.879-.88a.5.5 0 0 1 .39-.852l2.8.201a.5.5 0 0 1 .464.463l.2 2.802a.5.5 0 0 1-.852.389l-.886-.886-2.474 2.475a.5.5 0 0 1-.707 0l-.531-.53ZM5.96 9.378a.5.5 0 0 0 0-.707l-.53-.53a.5.5 0 0 0-.708 0l-2.475 2.474-.886-.886a.5.5 0 0 0-.852.39L.71 12.92a.5.5 0 0 0 .463.463l2.801.201a.5.5 0 0 0 .39-.852l-.88-.88L5.96 9.378Zm2.71-1.245a.5.5 0 0 1 .708 0l2.475 2.475.879-.879a.5.5 0 0 1 .852.39l-.201 2.8a.5.5 0 0 1-.463.464l-2.801.201a.5.5 0 0 1-.39-.852l.886-.886L8.14 9.37a.5.5 0 0 1 0-.707l.53-.53Z"
        clip-rule="evenodd" />
    </symbol>
    <symbol id="finished" viewBox="0 0 16 16">
      <path fill-rule="evenodd"
        d="M8 2a6 6 0 1 0 0 12A6 6 0 0 0 8 2Zm-5.657.343a8 8 0 1 1 11.314 11.314A8 8 0 0 1 2.343 2.343Z"
        clip-rule="evenodd" />
      <path fill-rule="evenodd"
        d="M10.916 5.051a.5.5 0 0 0-.705.06L6.96 8.963l-1.05-.885a.5.5 0 0 0-.704.06l-.484.572a.5.5 0 0 0 .06.705l2 1.69a.5.5 0 0 0 .704-.06l.469-.556a.5.5 0 0 0 .043-.045l3.55-4.204a.5.5 0 0 0-.059-.705l-.573-.484Z"
        clip-rule="evenodd" />
    </symbol>
    <symbol id="galaxy" viewBox="0 0 18 16">
      <path fill-rule="evenodd"
        d="M14.189 1.236c-.106-.15-.08-.195.056-.071.308.28.857.852 1.085 1.15 2.087 2.813 2.218 6.412.392 9.16-1.37 2.027-3.457 3.172-5.74 3.172-2.805 0-5.055-1.635-5.675-4.089-.163-.687-.195-1.7-.098-2.257C4.666 6.306 6.231 4.9 8.025 4.9c1.924 0 3.229 1.145 3.294 2.912 0 .13.228-.066.326-.23.587-1.177-.228-2.78-1.891-3.597C6.85 2.512 3.1 4.572 2.122 8.17c-.62 2.356-.023 5.047 1.64 7.239.027.04-.027.086-.063.052l-.207-.192C1.6 13.37.72 10.853 1.079 8.367c.39-2.715 2.348-5.136 4.794-5.954 3.391-1.112 6.946.491 7.761 3.533.555 2.094.033 3.925-1.467 5.103-1.533 1.178-3.979.916-4.925-.523-.326-.458-.554-1.145-.554-1.636 0-.13-.228.066-.359.294-.391.753-.065 1.93.718 2.716 2.446 2.387 6.522 1.373 8.316-2.061 1.337-2.584.913-5.823-1.174-8.603Z"
        clip-rule="evenodd" />
      <path fill-rule="evenodd"
        d="M15.316 2.644c1.261 2.446 1.366 5.09.228 7.289-1.839 3.52-6.069 4.622-8.64 2.113l-.002-.002a3.33 3.33 0 0 1-.851-1.462c-.14-.519-.129-1.057.097-1.492l.004-.008c.076-.132.18-.257.275-.336a.59.59 0 0 1 .08-.056.326.326 0 0 1 .112-.043.234.234 0 0 1 .273.243c0 .444.212 1.09.516 1.518l.005.006c.43.656 1.216 1.059 2.093 1.152.876.093 1.816-.125 2.536-.678 1.424-1.12 1.933-2.86 1.395-4.89-.778-2.902-4.193-4.475-7.5-3.391-2.367.792-4.276 3.145-4.656 5.789-.27 1.872.18 3.766 1.257 5.387-.863-1.834-1.093-3.843-.613-5.665v-.002c1.002-3.686 4.87-5.86 7.92-4.314.865.426 1.519 1.06 1.88 1.752.36.694.432 1.459.103 2.119l-.004.007-.004.007a1.09 1.09 0 0 1-.25.282.56.56 0 0 1-.078.05.32.32 0 0 1-.112.038.234.234 0 0 1-.265-.24c-.031-.831-.352-1.504-.88-1.97-.532-.47-1.288-.743-2.21-.743-1.678 0-3.174 1.318-3.616 3.237-.09.528-.06 1.508.096 2.168.595 2.351 2.753 3.934 5.477 3.934 2.21 0 4.236-1.107 5.57-3.082 1.731-2.605 1.658-6.002-.236-8.717Zm-.934-1.63c.314.285.872.866 1.11 1.177l.002.002c2.135 2.878 2.274 6.571.398 9.395l-.001.001c-1.405 2.08-3.553 3.262-5.909 3.262-2.886 0-5.227-1.687-5.873-4.243v-.003c-.17-.711-.203-1.752-.101-2.339l.002-.01c.474-2.069 2.107-3.56 4.015-3.56 1.002 0 1.86.299 2.48.844.535.473.88 1.121.986 1.891.226-.504.175-1.105-.129-1.688-.316-.607-.9-1.183-1.698-1.575l-.002-.001c-2.758-1.399-6.389.547-7.343 4.056-.602 2.287-.024 4.914 1.606 7.063l.006.009a.243.243 0 0 1-.046.324.244.244 0 0 1-.325-.009h-.001l-.212-.197c-1.933-1.94-2.839-4.52-2.47-7.075.4-2.786 2.407-5.274 4.931-6.118h.001c3.476-1.14 7.17.492 8.022 3.673.572 2.159.037 4.08-1.538 5.316l-.002.002c-.813.624-1.861.864-2.828.76-.964-.102-1.874-.549-2.39-1.33a3.516 3.516 0 0 1-.555-1.375.89.89 0 0 0-.01.016c-.163.317-.184.743-.063 1.195.12.451.38.91.746 1.278 2.32 2.264 6.242 1.337 7.991-2.01 1.294-2.5.894-5.656-1.156-8.387l-.004-.004a.763.763 0 0 1-.075-.127.328.328 0 0 1-.024-.08.217.217 0 0 1 .242-.257.274.274 0 0 1 .097.034.652.652 0 0 1 .12.09Z"
        clip-rule="evenodd" />
    </symbol>
    <symbol id="gear" viewBox="0 0 16 16">
      <path fill-rule="evenodd"
        d="M8 15c.412 0 .817-.036 1.21-.104l.217-.961a1.167 1.167 0 0 1 1.76-.73l.833.526a7.037 7.037 0 0 0 1.71-1.71l-.525-.833a1.167 1.167 0 0 1 .73-1.761l.96-.217a7.04 7.04 0 0 0 .001-2.42l-.962-.216a1.167 1.167 0 0 1-.729-1.761l.526-.833a7.04 7.04 0 0 0-1.71-1.71l-.833.525a1.167 1.167 0 0 1-1.761-.73l-.218-.96a7.045 7.045 0 0 0-2.418 0l-.218.96a1.167 1.167 0 0 1-1.76.73l-.834-.526a7.04 7.04 0 0 0-1.71 1.71l.526.834c.43.681.057 1.583-.73 1.76l-.961.218a7.045 7.045 0 0 0 0 2.419l.962.217c.786.177 1.16 1.08.73 1.76l-.527.834a7.042 7.042 0 0 0 1.71 1.71l.834-.526a1.167 1.167 0 0 1 1.76.73l.218.96c.392.07.797.105 1.209.105Zm0-4a3 3 0 1 0 0-6 3 3 0 0 0 0 6Z"
        clip-rule="evenodd" />
    </symbol>
    <symbol id="corner" viewBox="0 0 8 8">
      <rect x="1" y="0" width="2" height="7" rx="1.333" />
    </symbol>
    <symbol id="grid" viewBox="0 0 18 14">
      <path fill-rule="evenodd"
        d="M4.25 0a.5.5 0 0 1 .5.5V6H13V.5a.5.5 0 0 1 .5-.5h.75a.5.5 0 0 1 .5.5V6h2.75a.5.5 0 0 1 .5.5v.75a.5.5 0 0 1-.5.5h-2.75v5.75a.5.5 0 0 1-.5.5h-.75a.5.5 0 0 1-.5-.5V7.75H4.75v5.75a.5.5 0 0 1-.5.5H3.5a.5.5 0 0 1-.5-.5V7.75H.5a.5.5 0 0 1-.5-.5V6.5A.5.5 0 0 1 .5 6H3V.5a.5.5 0 0 1 .5-.5h.75Z"
        clip-rule="evenodd" />
    </symbol>
    <symbol id="hamburger" viewBox="0 0 16 12">
      <rect width="16" height="1.75" rx=".25" />
      <rect width="16" height="1.75" y="5" rx=".25" />
      <rect width="16" height="1.75" y="10" rx=".25" />
    </symbol>
    <symbol id="heart" viewBox="0 0 16 16">
      <path fill-rule="evenodd"
        d="M8 4.448a1.75 1.75 0 0 1-1.386-.683l-.877-1.138c-.784-1.017-2.166-1.16-3.117-.37-.991.823-1.17 2.37-.357 3.426l.019.024 5.753 8.034 5.68-8.03.022-.028c.813-1.057.634-2.603-.357-3.426-.95-.79-2.333-.647-3.117.37l-.877 1.138A1.75 1.75 0 0 1 8 4.448Zm1.115-3.171a4.09 4.09 0 0 0-.238.283L8 2.698 7.123 1.56a4.165 4.165 0 0 0-.238-.283C5.468-.259 3.131-.443 1.501.911-.224 2.344-.503 4.959.877 6.75l6.08 8.492c.11.153.25.281.41.378l.072.042a1.218 1.218 0 0 0 1.62-.34l6.064-8.572c1.38-1.792 1.1-4.407-.624-5.84-1.63-1.355-3.967-1.17-5.384.366Z"
        clip-rule="evenodd" />
    </symbol>
    <symbol id="home" viewBox="0 0 16 16">
      <path fill-rule="evenodd"
        d="M7.442 2.044 2.188 5.647a.701.701 0 0 0-.234.252.606.606 0 0 0-.079.301v7.2c0 .18.057.327.229.484.176.16.374.241.646.241h2.245v-4.8h6.01v4.8h2.262a.895.895 0 0 0 .625-.238l.004-.003c.172-.157.229-.304.229-.484V6.2c0-.103-.024-.2-.079-.3a.701.701 0 0 0-.234-.253l-.007-.005-5.247-3.598a.991.991 0 0 0-.556-.169h-.004a.991.991 0 0 0-.556.169ZM8 .125a2.741 2.741 0 0 0-1.54.47L1.208 4.196a2.45 2.45 0 0 0-.79.865A2.355 2.355 0 0 0 .125 6.2v7.2c0 .7.285 1.307.799 1.776a2.64 2.64 0 0 0 1.826.699h3.995v-4.8h2.51v4.8h3.987a2.65 2.65 0 0 0 1.836-.7c.513-.47.797-1.076.797-1.775V6.2c0-.403-.1-.787-.293-1.14a2.45 2.45 0 0 0-.79-.864L9.545.598 9.54.595A2.741 2.741 0 0 0 8 .125Z"
        clip-rule="evenodd" />
    </symbol>
    <symbol id="location" viewBox="0 0 14 17">
      <path fill-rule="evenodd"
        d="M7 0C3.134 0 0 2.708 0 6.049c0 3.123 3.246 7.497 6.356 10.375a.941.941 0 0 0 1.285-.001C10.517 13.732 14 9.153 14 6.049 14 2.708 10.866 0 7 0Zm0 10a3 3 0 1 0 0-6 3 3 0 0 0 0 6Z"
        clip-rule="evenodd" />
    </symbol>
    <symbol id="message" viewBox="0 0 14 14">
      <path fill-rule="evenodd"
        d="M0 0h14v11h-1.25a.619.619 0 0 0-.496.248l-1.384 1.85a.996.996 0 0 1-.8.402h-.008a.989.989 0 0 1-.787-.402l-1.24-1.69A1.001 1.001 0 0 0 7.228 11H0V0Zm1.75 1.75v7.5h5.478a2.752 2.752 0 0 1 2.217 1.122l.634.863.773-1.033a2.37 2.37 0 0 1 1.398-.899V1.75H1.75Z"
        clip-rule="evenodd" />
    </symbol>
    <symbol id="opacity" viewBox="0 0 16 16">
      <path fill-rule="evenodd"
        d="M1.75 8A6.25 6.25 0 0 1 7.5 1.77c.275-.022.5.204.5.48v11.5a.471.471 0 0 1-.5.48A6.25 6.25 0 0 1 1.75 8ZM8 16a8 8 0 1 1 8-8v.044a7.973 7.973 0 0 1-2.462 5.729A7.973 7.973 0 0 1 8.038 16H8Z"
        clip-rule="evenodd" />
    </symbol>
    <symbol id="picker" viewBox="0 0 14 17">
      <path fill-rule="evenodd"
        d="M1.938 9.5h10.137c-.25-.902-.77-1.993-1.553-3.197-.972-1.492-2.234-2.983-3.516-4.24-1.195 1.19-2.45 2.677-3.443 4.185C2.75 7.48 2.205 8.595 1.938 9.5ZM7 16.677c3.866 0 7-2.708 7-6.049C14 7.504 10.754 3.13 7.644.253a.94.94 0 0 0-1.285.001C3.483 2.944 0 7.523 0 10.628c0 3.34 3.134 6.049 7 6.049Z"
        clip-rule="evenodd" />
    </symbol>
    <symbol id="play" viewBox="0 0 13 16">
      <path fill-rule="evenodd"
        d="M1.75 3.132 9.66 8l-7.91 4.868V3.132ZM10.7 7.36l.004-.003ZM0 1.79A1 1 0 0 1 1.523.937l10.092 6.211a.998.998 0 0 1 0 1.704L1.529 15.059l-.002.002A1 1 0 0 1 0 14.21V1.79Z"
        clip-rule="evenodd" />
    </symbol>
    <linearGradient id="rainbow">
      <stop offset="0" stop-color="red" />
      <stop offset="0.2857" stop-color="#ff0" />
      <stop offset="0.4286" stop-color="#0f0" />
      <stop offset="0.5714" stop-color="cyan" />
      <stop offset="0.7142" stop-color="blue" />
      <stop offset="0.8571" stop-color="#f0f" />
      <stop offset="1" stop-color="red" />
    </linearGradient>
    <symbol id="remove" viewBox="0 0 16 16">
      <path fill-rule="evenodd"
        d="M2 8a6 6 0 1 1 12 0A6 6 0 0 1 2 8ZM0 8a8 8 0 1 1 16 0A8 8 0 0 1 0 8Zm4.5-.9a.5.5 0 0 0-.5.5v.75a.5.5 0 0 0 .5.5h7a.5.5 0 0 0 .5-.5V7.6a.5.5 0 0 0-.5-.5h-7Z"
        clip-rule="evenodd" />
    </symbol>
    <symbol id="search" viewBox="0 0 14 15">
      <path fill-rule="evenodd"
        d="M11.25 6.5a4.75 4.75 0 1 1-9.5 0 4.75 4.75 0 0 1 9.5 0Zm-.915 5.249a6.5 6.5 0 1 1 1.261-1.214l2.295 2.295a.25.25 0 0 1 0 .354l-.884.884a.25.25 0 0 1-.354 0l-2.318-2.32Z"
        clip-rule="evenodd" />
    </symbol>
    <symbol id="share" viewBox="0 0 1200 1200">
      <path
        d="m936 622.8c-13.199 0-24 10.801-24 24v321.6h-19.199l-218.4-223.2-1.1992-1.1992c-1.1992 0-1.1992-1.1992-2.3984-1.1992s-1.1992-1.1992-2.3984-1.1992c-1.1992 0-1.1992-1.1992-2.3984-1.1992-1.1992 0-1.1992 0-2.3984-1.1992h-2.3984-2.3984-2.3984-2.3984-2.3984c-1.1992 0-1.1992 0-2.3984 1.1992-1.1992 0-1.1992 0-2.3984 1.1992-1.1992 0-1.1992 1.1992-2.3984 1.1992s-1.1992 1.1992-2.3984 1.1992-1.1992 1.1992-2.3984 1.1992c-1.1992 0-1.1992 1.1992-2.3984 1.1992l-49.223 51.602-175.2-170.4s-1.1992-1.1992-2.3984-1.1992c-1.1992 0-1.1992-1.1992-2.3984-1.1992-1.1992 0-1.1992-1.1992-2.3984-1.1992s-1.1992-1.1992-2.3984-1.1992-1.1992 0-2.3984-1.1992h-1.1992-2.3984-1.1992-3.6016-1.1992c-1.1992 0-2.3984 0-2.3984 1.1992h-1.1992c-2.4141-0.003907-3.6133 1.1953-3.6133 1.1953s-1.1992 0-1.1992 1.1992c-1.1992 0-1.1992 1.1992-2.3984 1.1992l-1.1992 1.1992-150 157.2v-492h397.2c13.199 0 24-10.801 24-24s-10.801-24-24-24h-421.2c-13.199 0-24 10.801-24 24v724.8c0 13.199 10.801 24 24 24h732c13.199 0 24-10.801 24-24v-346.8c-1.1992-13.199-10.801-24-25.199-24zm-519.6 346.8h-187.2v-115.2l166.8-175.2 157.2 152.4-133.2 133.2c-1.1992 1.1992-2.3984 3.5977-3.6016 4.8008zm67.203 0 172.8-172.8 170.4 172.8z" />
      <path
        d="m278.4 452.4c0 54 44.398 98.398 98.398 98.398s98.398-44.398 98.398-98.398-44.398-98.398-98.398-98.398c-53.996 0-98.398 43.199-98.398 98.398zm150 0c0 27.602-22.801 50.398-50.398 50.398-27.602 0-50.398-22.801-50.398-50.398 0-27.602 22.801-50.398 50.398-50.398 27.602 0 50.398 22.801 50.398 50.398z" />
      <path
        d="m810 189.6c-9.6016-9.6016-24-9.6016-33.602 0-4.8008 4.8008-7.1992 12-7.1992 19.199v2.3984 102c-111.6 13.199-294 111.6-294 321.6v2.3984 2.3984c0 1.1992 0 1.1992 1.1992 2.3984 0 1.1992 0 1.1992 1.1992 2.3984 0 1.1992 1.1992 1.1992 1.1992 2.3984s1.1992 1.1992 1.1992 2.3984c0 0 1.1992 1.1992 1.1992 1.1992 0 1.1992 1.1992 1.1992 2.3984 2.3984l1.1992 1.1992c1.1992 0 1.1992 1.1992 2.3984 1.1992 1.1992 0 1.1992 1.1992 2.3984 1.1992 1.1992 0 1.1992 1.1992 2.3984 1.1992s1.1992 0 2.3984 1.1992h1.1992 4.8008 4.8008c1.1992 0 3.6016-1.1992 4.8008-1.1992s2.3984-1.1992 3.6016-2.3984c0 0 1.1992-1.1992 1.1992-1.1992 1.1992-1.1992 1.1992-1.1992 2.3984-2.3984 117.6-124.8 193.2-138 252-139.2l0.011719 99.609v4.8008c0 1.1992 0 1.1992 1.1992 2.3984 0 1.1992 0 1.1992 1.1992 2.3984 0 1.1992 1.1992 1.1992 1.1992 2.3984 0 0 0 1.1992 1.1992 1.1992 1.1992 1.1992 2.3984 2.3984 2.3984 3.6016 1.1992 1.1992 2.3984 1.1992 3.6016 2.3984 1.1992 0 1.1992 1.1992 2.3984 1.1992s1.1992 1.1992 2.3984 1.1992 1.1992 0 2.3984 1.1992h2.3984 4.8008 4.8008c1.1992 0 1.1992 0 2.3984-1.1992 1.1992 0 1.1992 0 2.3984-1.1992 1.1992 0 1.1992-1.1992 2.3984-1.1992s1.1992 0 2.3984-1.1992l3.6016-3.6016 201.6-202.8c9.6016-9.6016 9.6016-24 0-33.602zm7.1992 364.8v-67.199c0-13.199-10.801-24-24-24h-3.6016c-61.199 0-140.4 0-259.2 105.6 34.801-139.2 177.6-210 262.8-210 13.199 0 24-10.801 24-24v-70.801l144 145.2z" />
    </symbol>
    <symbol id="silhouette" viewBox="0 0 17 16">
      <path fill-rule="evenodd"
        d="M11.186 3.82a2.582 2.582 0 0 0-.037-.566C10.82 1.34 9.971 0 7.953 0 5.936 0 5.087 1.34 4.757 3.254a2.575 2.575 0 0 0-.037.565c.076 1.524.764 2.961 1.952 3.812.76.543 1.803.543 2.562 0 1.188-.85 1.876-2.288 1.952-3.812Zm4.373 8.883c.415.714.577 1.534.577 2.307H0c0-.773.146-1.593.56-2.307.366-.63 1.734-1.594 2.578-2.188l.307-.218c.766-.547 1.307-.76 2.308-1.056.566-.167.864-.062 1.213.06.267.095.564.2 1.034.2.465 0 .782-.103 1.072-.196.386-.124.724-.233 1.296-.064 1 .296 1.541.51 2.307 1.056l.307.218c.844.594 2.212 1.557 2.577 2.188Z"
        clip-rule="evenodd" />
    </symbol>
    <symbol id="star" viewBox="0 0 16 16">
      <path
        d="M10.532 4.79h-.002c.154.288.389.524.678.677L16 7.998l-4.792 2.532a1.626 1.626 0 0 0-.676.676h-.002L8.002 16l-2.531-4.792a1.624 1.624 0 0 0-.678-.677L0 7.998l4.792-2.531c.289-.153.525-.389.677-.678L8.001 0l2.531 4.79Z" />
    </symbol>
    <symbol id="starburst" viewBox="0 0 16 16">
      <path
        d="M7.314 5.511h-.001c.1.189.254.343.443.443l3.133 1.655-3.133 1.655c-.189.1-.343.254-.442.442h-.001L5.66 12.84 4.005 9.707a1.061 1.061 0 0 0-.443-.442L.428 7.609l3.133-1.655c.189-.1.343-.254.443-.443L5.659 2.38l1.655 3.131Zm6.754-3.791c.048.09.122.165.213.213l1.512.8-1.512.798a.512.512 0 0 0-.213.214l-.8 1.512-.799-1.512a.512.512 0 0 0-.213-.214l-1.512-.799 1.512-.799a.512.512 0 0 0 .213-.213l.8-1.513.799 1.513Zm-.391 10.146a.511.511 0 0 0 .214.214l1.512.799-1.512.799a.512.512 0 0 0-.214.213l-.799 1.513-.799-1.513a.511.511 0 0 0-.213-.213l-1.513-.8 1.513-.798a.512.512 0 0 0 .213-.214l.8-1.512.798 1.512Z" />
    </symbol>
    <symbol id="working" viewBox="0 0 430 130" preserveAspectRatio="xMidYMid meet">
      <circle cy="64" cx="64" r="64" />
      <circle cy="64" cx="213" r="64" />
      <circle cy="64" cx="365" r="64" />
    </symbol>
    <symbol id="realness" viewBox="-20 -20 232 232" preserveAspectRatio="xMidYMid meet">
      <rect fill="hsla(300,  1%, 33%, 0.75)" width="88" height="54" rx="8" />
      <rect fill="hsla(136, 47%, 57%, 0.75)" width="88" height="54" rx="8" x="104" />
      <rect fill="hsla(136, 47%, 57%, 0.75)" width="88" height="54" rx="8" y="69" />
      <rect fill="hsla(203, 58%, 57%, 0.75)" width="88" height="54" rx="8" x="104" y="69" />
      <rect fill="hsla(203, 58%, 57%, 0.75)" width="88" height="54" rx="8" y="138" />
      <rect fill="hsla(353, 83%, 57%, 0.75)" width="88" height="54" rx="8" x="104" y="138" />
    </symbol>
  </defs>
  <defs id="filters">
    <filter id="rough-it-up">
      <feTurbulence baseFrequency="0.1" type="fractalNoise" numOctaves="2" seed="83" in="flood" />
      <feFlood flood-color="rgba(0,0,0,0.5)" flood-opacity="0.91" result="flood" />
      <feBlend in="flood" in2="SourceGraphic" />
    </filter>
    <filter id="stage-filter" color-interpolation-filters="sRGB" y="0">
      <pattern id="tile" patternUnits="userSpaceOnUse" preserveAspectRatio="xMidYMid slice" width="21" height="34"
        viewBox="0 0 192 192">
        <rect fill="hsla(300,  1%, 33%, 0.75)" width="88" height="54" rx="8" />
        <rect fill="hsla(136, 47%, 57%, 0.75)" width="88" height="54" rx="8" x="104" />
        <rect fill="hsla(136, 47%, 57%, 0.75)" width="88" height="54" rx="8" y="69" />
        <rect fill="hsla(203, 58%, 57%, 0.75)" width="88" height="54" rx="8" x="104" y="69" />
        <rect fill="hsla(203, 58%, 57%, 0.75)" width="88" height="54" rx="8" y="138" />
        <rect fill="hsla(353, 83%, 57%, 0.75)" width="88" height="54" rx="8" x="104" y="138" />
      </pattern>
      <radialGradient id="l" cx="50%" cy="200%" fy="0" r="201%">
        <stop offset="0%" style="stop-color: #fff; stop-opacity: 0.1" />
        <stop offset="10%" style="stop-color: #000; stop-opacity: 0.1" />
        <stop offset="30%" style="stop-color: #000; stop-opacity: 0.3" />
        <stop offset="90%" style="stop-color: #000; stop-opacity: 0.55" />
        <stop offset="100%" style="stop-color: #000; stop-opacity: 0.6" />
      </radialGradient>
      <rect id="gradient_rect" fill="url(#l)" width="100%" height="100%" />
      <rect id="tile_rect" fill="url(#tile)" width="100%" height="100%" />
      <feImage href="#background" result="bg" />
      <feImage href="#tile_rect" result="tile" />
      <feImage href="#gradient_rect" result="waves" />
      <feMerge>
        <feMergeNode in="bg" />
        <feMergeNode in="tile" />
        <feMergeNode in="waves" />
      </feMerge>
    </filter>
    <rect id="stage" filter="url(#stage-filter)" width="100%" height="100%" />
  </defs>
  <defs id="patterns">
    <pattern id="realness-pattern" x="4" y="4" width="66" height="66" patternUnits="userSpaceOnUse"
      viewBox="0 0 206 206">
      <use href="#realness" width="192" height="192" />
    </pattern>

    <pattern id="light-screen-tone" x="-201.833" y="575.5" width="9" height="9" patternUnits="userSpaceOnUse"
      viewBox="0 -9 9 9">
      <path d="M9-7.875C9-7.254,8.496-6.75,7.875-6.75S6.75-7.254,6.75-7.875S7.254-9,7.875-9S9-8.496,9-7.875z"
        fill="hsla(300,  1%, 33%, 0.75)" />
      <path
        d="M4.5-3.375c0,0.621-0.504,1.125-1.125,1.125S2.25-2.754,2.25-3.375S2.754-4.5,3.375-4.5S4.5-3.996,4.5-3.375z"
        fill="hsla(300,  1%, 33%, 0.75)" />
    </pattern>
    <pattern id="medium-screen-tone" x="-201.833" y="575.5" width="18.403" height="9.366" patternUnits="userSpaceOnUse"
      viewBox="0 -9.366 18.403 9.366">
      <path
        d="M4.601-6.982c0,1.27-1.03,2.3-2.3,2.3S0-5.713,0-6.982c0-1.271,1.03-2.301,2.3-2.301S4.601-8.254,4.601-6.982z"
        fill="hsla(300,  1%, 33%, 0.75)" />
      <path
        d="M13.802-2.383c0,1.271-1.03,2.301-2.3,2.301s-2.3-1.029-2.3-2.301c0-1.27,1.03-2.3,2.3-2.3S13.802-3.652,13.802-2.383z"
        fill="hsla(300,  1%, 33%, 0.75)" />
    </pattern>
    <pattern id="dense-screen-tone" x="-201.833" y="575.5" width="9" height="9" patternUnits="userSpaceOnUse"
      viewBox="0 -9 9 9">
      <path d="M9-6.75C9-5.508,7.993-4.5,6.75-4.5S4.5-5.508,4.5-6.75S5.507-9,6.75-9S9-7.992,9-6.75z"
        fill="hsla(300,  1%, 33%, 0.75)" />
      <path d="M4.5-2.25C4.5-1.008,3.493,0,2.25,0S0-1.008,0-2.25S1.007-4.5,2.25-4.5S4.5-3.492,4.5-2.25z"
        fill="hsla(300,  1%, 33%, 0.75)" />
    </pattern>
    <g id="screen-tone-mix" stroke="black">
      <rect id="square" x="0.5" y="53.167" fill="url(#light-screen-tone)" width="145" height="145" />
      <circle fill="url(#medium-screen-tone)" cx="158.167" cy="72.5" r="72" />
      <polygon id="triangle" fill="url(#dense-screen-tone)" points="348.432,163.662 255.256,27.481 170.144,163.662 " />
    </g>
    <pattern id="realness-animated-pattern" width="100%" height="100%">
      <rect width="100%" height="100%" fill="url(#light-screen-tone)">
        <animate attributeName="opacity" values="0;0.5;0" dur="13s" repeatCount="indefinite" />
      </rect>
      <rect width="100%" height="100%" fill="url(#medium-screen-tone)">
        <animate attributeName="opacity" values="0;0.5;0" dur="8s" repeatCount="indefinite" />
      </rect>
      <rect width="100%" height="100%" fill="url(#dense-screen-tone)">
        <animate attributeName="opacity" values="0;0.5;0" dur="5s" repeatCount="indefinite" />
      </rect>
      <rect width="100%" height="100%" fill="url(#realness-pattern)" />
    </pattern>
  </defs>

  <!-- <rect id="realness-extra" width="100%" height="100%" fill="url(#realness-animated-pattern)" /> -->
  <use href="#realness" viewBox="0 0 1 1" preserveAspectRatio="xMidYMid meet" />
</svg>
