<?xml version="1.0" encoding="UTF-8"?>
<svg width="1200pt" height="1200pt" version="1.1" viewBox="0 0 1200 1200" xmlns="http://www.w3.org/2000/svg">
  <g>
    <path
      d="m936 622.8c-13.199 0-24 10.801-24 24v321.6h-19.199l-218.4-223.2-1.1992-1.1992c-1.1992 0-1.1992-1.1992-2.3984-1.1992s-1.1992-1.1992-2.3984-1.1992c-1.1992 0-1.1992-1.1992-2.3984-1.1992-1.1992 0-1.1992 0-2.3984-1.1992h-2.3984-2.3984-2.3984-2.3984-2.3984c-1.1992 0-1.1992 0-2.3984 1.1992-1.1992 0-1.1992 0-2.3984 1.1992-1.1992 0-1.1992 1.1992-2.3984 1.1992s-1.1992 1.1992-2.3984 1.1992-1.1992 1.1992-2.3984 1.1992c-1.1992 0-1.1992 1.1992-2.3984 1.1992l-49.223 51.602-175.2-170.4s-1.1992-1.1992-2.3984-1.1992c-1.1992 0-1.1992-1.1992-2.3984-1.1992-1.1992 0-1.1992-1.1992-2.3984-1.1992s-1.1992-1.1992-2.3984-1.1992-1.1992 0-2.3984-1.1992h-1.1992-2.3984-1.1992-3.6016-1.1992c-1.1992 0-2.3984 0-2.3984 1.1992h-1.1992c-2.4141-0.003907-3.6133 1.1953-3.6133 1.1953s-1.1992 0-1.1992 1.1992c-1.1992 0-1.1992 1.1992-2.3984 1.1992l-1.1992 1.1992-150 157.2v-492h397.2c13.199 0 24-10.801 24-24s-10.801-24-24-24h-421.2c-13.199 0-24 10.801-24 24v724.8c0 13.199 10.801 24 24 24h732c13.199 0 24-10.801 24-24v-346.8c-1.1992-13.199-10.801-24-25.199-24zm-519.6 346.8h-187.2v-115.2l166.8-175.2 157.2 152.4-133.2 133.2c-1.1992 1.1992-2.3984 3.5977-3.6016 4.8008zm67.203 0 172.8-172.8 170.4 172.8z" />
    <path
      d="m278.4 452.4c0 54 44.398 98.398 98.398 98.398s98.398-44.398 98.398-98.398-44.398-98.398-98.398-98.398c-53.996 0-98.398 43.199-98.398 98.398zm150 0c0 27.602-22.801 50.398-50.398 50.398-27.602 0-50.398-22.801-50.398-50.398 0-27.602 22.801-50.398 50.398-50.398 27.602 0 50.398 22.801 50.398 50.398z" />
    <path
      d="m810 189.6c-9.6016-9.6016-24-9.6016-33.602 0-4.8008 4.8008-7.1992 12-7.1992 19.199v2.3984 102c-111.6 13.199-294 111.6-294 321.6v2.3984 2.3984c0 1.1992 0 1.1992 1.1992 2.3984 0 1.1992 0 1.1992 1.1992 2.3984 0 1.1992 1.1992 1.1992 1.1992 2.3984s1.1992 1.1992 1.1992 2.3984c0 0 1.1992 1.1992 1.1992 1.1992 0 1.1992 1.1992 1.1992 2.3984 2.3984l1.1992 1.1992c1.1992 0 1.1992 1.1992 2.3984 1.1992 1.1992 0 1.1992 1.1992 2.3984 1.1992 1.1992 0 1.1992 1.1992 2.3984 1.1992s1.1992 0 2.3984 1.1992h1.1992 4.8008 4.8008c1.1992 0 3.6016-1.1992 4.8008-1.1992s2.3984-1.1992 3.6016-2.3984c0 0 1.1992-1.1992 1.1992-1.1992 1.1992-1.1992 1.1992-1.1992 2.3984-2.3984 117.6-124.8 193.2-138 252-139.2l0.011719 99.609v4.8008c0 1.1992 0 1.1992 1.1992 2.3984 0 1.1992 0 1.1992 1.1992 2.3984 0 1.1992 1.1992 1.1992 1.1992 2.3984 0 0 0 1.1992 1.1992 1.1992 1.1992 1.1992 2.3984 2.3984 2.3984 3.6016 1.1992 1.1992 2.3984 1.1992 3.6016 2.3984 1.1992 0 1.1992 1.1992 2.3984 1.1992s1.1992 1.1992 2.3984 1.1992 1.1992 0 2.3984 1.1992h2.3984 4.8008 4.8008c1.1992 0 1.1992 0 2.3984-1.1992 1.1992 0 1.1992 0 2.3984-1.1992 1.1992 0 1.1992-1.1992 2.3984-1.1992s1.1992 0 2.3984-1.1992l3.6016-3.6016 201.6-202.8c9.6016-9.6016 9.6016-24 0-33.602zm7.1992 364.8v-67.199c0-13.199-10.801-24-24-24h-3.6016c-61.199 0-140.4 0-259.2 105.6 34.801-139.2 177.6-210 262.8-210 13.199 0 24-10.801 24-24v-70.801l144 145.2z" />
  </g>
</svg>