<?xml version="1.0" encoding="UTF-8"?>
<svg width="1200pt" height="1200pt" version="1.1" viewBox="0 0 1200 1200" xmlns="http://www.w3.org/2000/svg">
  <path
    d="m761.02 218.57c37.648 0 70.391 25.812 79.18 62.422l15.879 66.152h69.637c78.109 0 141.43 63.316 141.43 141.43v351.43c0 78.109-63.32 141.43-141.43 141.43h-651.43c-78.109 0-141.43-63.32-141.43-141.43v-351.43c0-78.109 63.32-141.43 141.43-141.43h63.332l21.441-70.758c10.406-34.336 42.055-57.816 77.93-57.816zm0 77.145h-324.03c-1.8867 0-3.5547 1.2344-4.1016 3.043l-29.738 98.141c-4.9297 16.266-19.922 27.387-36.914 27.387h-91.949c-35.504 0-64.285 28.781-64.285 64.285v351.43c0 35.504 28.781 64.285 64.285 64.285h651.43c35.504 0 64.285-28.781 64.285-64.285v-351.43c0-35.504-28.781-64.285-64.285-64.285h-100.04c-17.836 0-33.344-12.227-37.508-29.566l-22.977-95.719c-0.46484-1.9258-2.1875-3.2852-4.168-3.2852zm-161.02 115.71c115.98 0 210 94.02 210 210 0 115.98-94.02 210-210 210s-210-94.02-210-210c0-115.98 94.02-210 210-210zm0 77.141c-73.375 0-132.86 59.484-132.86 132.86s59.48 132.86 132.86 132.86 132.86-59.48 132.86-132.86-59.48-132.86-132.86-132.86z"
    fill-rule="evenodd" />
</svg>