<svg version="1.1" xmlns="http://www.w3.org/2000/svg" xmlns:xlink="http://www.w3.org/1999/xlink" preserveAspectRatio="xMinYMax meet">

  <path id="head" d="M65.722 192C92.862 192 261.899-6.15 208.97-15.919c-20.26-3.739-34.4 122.629-30.617 169.311 3.783 46.683 93.885-63.09 90.556-83.35-6.552-39.869-132.3 128.353-132.124 109.44.176-18.911 40.204-112.635 40.204-130.98 0-18.752 53.273-63.815 40.187-64.42-13.085-.607-81.52 38.442-86.523 43.018C103.856 51.61 103.42 2.155 78.072 2.155c-4.097 0-25.892-2.797-35.563 4.983C17.697 27.1 4.626 48.503-1.687 100.684-3.67 117.077 134.306 49.46 135.176 52.909c.87 3.448-133.412 81.51-134.643 87.633C-1.687 151.591 31.04 192 65.722 192z"/>

  <g id="left-eye">
    <path      id="left-eye" fill="blue" d="M60.32 63.63c10.164 0 21.272-4.572 21.272-14.597 0-10.026-7.374-15.414-17.538-15.414-7.077 0-14.375 3.037-19.27 5.808-4.894 2.77-5.736 4.898-5.736 7.943 0 10.026 11.108 16.26 21.272 16.26z"/>
    <ellipse id="left-ris"  cx="59.476" cy="48.017" rx="9.952" ry="9.817"/>
  </g>

  <g id="right-eye">
    <path fill="green" d="M136.322 60.627c10.349 0 21.659-4.49 21.659-14.333s-7.508-15.133-17.858-15.133c-7.205 0-14.636 2.981-19.62 5.701-4.983 2.72-5.84 4.81-5.84 7.8 0 9.844 11.31 15.965 21.659 15.965z"/>
    <ellipse cx="137.009" cy="45.25" rx="10.133" ry="9.638"/>
  </g>

  <g id="mouth">
    <ellipse  fill="white" transform="rotate(-20 83.717 116.158)" cx="83.717" cy="116.158" rx="45.783" ry="14.387"/>
    <ellipse fill="red" stroke-opacity=".8" stroke="white" transform="rotate(-16 82.753 113.943)" cx="82.753" cy="113.943" rx="45.167" ry="12.167"/>
  </g>
</svg>
