<svg version="1" xmlns="http://www.w3.org/2000/svg" viewBox="0 0 128 128">
  <path d="M0 28c0 27.6 0 28 2.1 28 2.8 0 6.1 1.9 5.4 3.1-.4.5-2.2.7-4.1.3-2.9-.5-3.4-.3-3.4 1.3 0 1.4.7 1.9 2.3 1.9 1.6-.1 2.1.4 1.9 1.8-.3 1.5 0 1.8 1 1 .8-.5.6-.2-.4.8-1 .9-1.8 2.1-1.8 2.7 0 .6-.4 1.1-.9 1.1-.6 0-.6 1.2-.1 3.1.8 2.6.7 2.9-.5 1.9C.2 73.9 0 77.3 0 100.9V128h48.8c37.7 0 49.1-.3 50.1-1.3 1.1-.9 1.4-.9 1.8 0 .3.7 1.4 1.3 2.5 1.3 1.5 0 1.9-.5 1.5-1.9-.3-1.2.1-2.2 1-2.5 1.1-.4 1.3 0 .9 1.7-.3 1.2-.3 1.6 0 .9.3-.6 1-.9 1.6-.6.5.3.8-.2.6-1.2-.3-1.6.3-1.8 4.2-1.6 7 .4 12.4 1.3 13.8 2.4.9.8 1.2-4.5 1.2-26 0-17-.4-27.3-1-27.7-.5-.3-1-1.5-1-2.6 0-1.9-.1-1.9-1.6-.4-1.5 1.4-1.9 1.4-4.9-.4-1.8-1-4.7-2.2-6.4-2.6-1.7-.4-3.1-1-3.1-1.5 0-1.2-5.8-1.8-6.9-.7-.9.9-3 1.4-7.2 1.6-1.2.1-1.5 1.2-1.1 5.9.3 4.7-.1 6.9-2 11.3-1.4 3-3.1 7.1-3.8 9.2-.7 2.2-1.8 5.1-2.6 6.5-.8 1.5-2.1 6-3 9.9-2.2 10.1-4 12.1-10.6 12.2-8.6.1-17.1-3.3-22.9-9-2.7-2.8-4.9-5.4-4.9-5.9s-1-1-2.2-1.2c-1.5-.2-2.8-1.9-4.7-6.4-1.5-3.4-3.7-7.6-5.1-9.4-1.4-1.8-2.6-4.5-2.6-5.9-.2-3.1-2.6-8.6-5.6-12.3-1.5-2-2.3-4.8-2.8-10.9-.7-7.8-.6-8.4 1.6-10.8 1.6-1.7 2.2-3.2 1.8-4.8-.4-1.3-.2-2.3.3-2.3s.8-2.1.8-4.8c-.1-8.9 2.4-13.5 10.2-18.7 6.8-4.5 9.3-7.3 8.6-9.4-.2-.9.3-.6 1.3.6 1.2 1.7 2.7 2.3 5.8 2.3 2.2 0 8.8 1.3 14.4 2.9 14.3 4 16.7 6.5 21 21.7 1.8 6.7 1.9 7.1.2 6.7-.9-.2-3.3.2-5.2 1-2.9 1.2-3.9 2.4-5.2 6.4-2 6.1-1.4 8.3 2.4 8.3 2 0 3.1-.6 3.5-2.1.5-1.4 1-1.7 1.9-1 1.9 1.6 5.6.9 5.6-1 0-.9-.7-1.9-1.5-2.3-.8-.3-1.5-.1-1.5.4 0 .6-.7 1-1.5 1s-1.5-.5-1.5-1.1c0-.5-.3-.8-.7-.6-.5.3-1.7.1-2.7-.2-1.6-.6-1.1-1.2 3.2-3.9 4.2-2.5 5.1-2.8 5.6-1.5.3.8.3 2-.1 2.6-.4.7 0 .8 1.3.2 3.5-1.5 14.7-3.6 16.2-3 .8.3 2.1 0 2.8-.6 1.1-.9 1-2-.7-6.2-2.9-7.5-4.8-14.8-4.2-16.5.3-.8.1-1.7-.5-2.1-.6-.3-1.8-2.6-2.7-5.1-1.6-4.3-2-6.3-2.3-12.3C100 .3 99.6 0 96.5 0H93v28.1l-2.6-2.8c-1.4-1.5-3.2-4.1-4-5.8-.8-1.6-3.6-6.6-6.2-11l-4.8-8L37.7.2 0 0v28zm18.3 53.4c1.2 1.7 1.3 2.6.4 3.5-1.5 1.5-4.7 1.4-4.8-.2 0-.6-.2-2.2-.3-3.5-.4-3 2.7-2.9 4.7.2zM98 125.1c0 1.1-.4 1.7-1 1.4-.5-.3-1-1.5-1-2.6s.5-1.7 1-1.4c.6.3 1 1.5 1 2.6z"
  />
  <path d="M112 27.7c0 10.5 1.1 16.4 2.9 16.1 2.3-.5 2.7-18.1.5-20.3-2.7-2.6-3.4-1.7-3.4 4.2zM44.5 46.4c-3.5 1.6-7.1 5.3-6.2 6.3.4.3 1.6-.2 2.7-1.2 4.6-4.1 23-2 23 2.8 0 .6-1.6.7-4 .4-2.1-.3-4-.1-4.2.4-.2.5-2.7 1-5.6 1.3-4 .3-5.7.9-6.8 2.5C41.9 61 42 61 47.9 61c4.8 0 6.1-.3 6.1-1.5 0-1.8 3.6-2 4.4-.3.3 1 .8.9 1.8-.3.7-.9 2.4-1.9 3.7-2.4 2.1-.6 2.3-1.1 1.8-5.2-.2-2.4-.8-4.7-1.2-5.1-1.3-1.4-16.9-1.2-20 .2zM64 79c0 1.4 3.2 4.2 6.5 5.5 6.1 2.5 7.1 2.6 9.9.4l2.7-2.1-3.3-1.7c-2.5-1.4-3.9-1.6-6.4-.8-2.4.7-3.9.6-6.3-.6-1.7-.8-3.1-1.2-3.1-.7zM86 79.7c.1 2.5 2.6 5.6 3.9 4.8 1.6-1 1.3-3-.7-4.8-2.4-2.2-3.2-2.1-3.2 0zM57.5 81c-1 1.7-7.8 4.3-10.7 4.1-1.4-.1-3.9.4-5.4.9l-2.8 1.1 2.1 2.1c1.9 1.8 2.5 1.9 5.7.8 3.2-1 14.2-9.9 12.4-10-.4 0-1 .5-1.3 1zM83.2 89c-1.2 1-1.8 2.1-1.4 2.4 1 .6 4.8-3.1 4.1-3.8-.2-.2-1.4.4-2.7 1.4zM77.9 90.7c-.8.2-6.6.7-12.9 1.1-6.9.4-11.5 1.1-11.7 1.8-.5 1.5 4.8 2.9 5.7 1.5.3-.6 3.3-1.3 6.6-1.6 10.1-.8 14.4-1.6 14.4-2.6 0-.5-.1-.8-.2-.8-.2.1-1 .3-1.9.6zM73.8 99.7c.7.3 1.6.2 1.9-.1.4-.3-.2-.6-1.3-.5-1.1 0-1.4.3-.6.6zM67.9 107.6c1.7.7 4.5 1.1 6.2.7 5.3-1 4-2.1-2.8-2.1-6.4 0-6.5.1-3.4 1.4z"
  />
</svg>
