<svg version="1" xmlns="http://www.w3.org/2000/svg" viewBox="0 0 128 128">
  <path d="M76.7 1.1c.7.7 1.5 1 1.8.7.3-.3-.2-.9-1.2-1.2-1.4-.6-1.5-.5-.6.5zM73.1 2.3C71.2 4.2 63.8 6 62.4 4.9 61.1 3.8 58 4.7 58 6.2c0 1.1-4 .1-5.5-1.4-.6-.6-.3-.7 1-.3 1.1.3.7-.1-1-.9-4.2-2.1-5.7-2-9.9.9C40.6 5.9 38.5 7 38 7c-1.9 0-9.1 7.9-11.8 13-3.8 7.2-5.9 14-6.7 22-1.1 11.9-3.4 16.4-8.8 17.6-1.7.3-4.8 2-6.9 3.7l-3.8 3V128h37.1c35 0 37.1-.1 36.4-1.8-1.5-3.4-1.7-6-.7-9.5.9-3.2.8-3.6-1.1-3.9-2.3-.3-4.8-5.9-2.9-6.6.6-.2 1.4-.3 1.8-.2.4.1 1-.3 1.4-1 .4-.6 2.5-1.8 4.6-2.6l3.9-1.5-5.4.4c-7.3.6-12.4-2.2-11.5-6.1.4-1.5 1.1-3.1 1.5-3.7 1.9-2 1-7.3-1.6-9.3-2-1.6-2.5-2.8-2.4-6.3.5-19.2-1.4-27.3-6.8-28.4-7.2-1.6-8.1-2.8-7.4-10.5.2-1.4.4-5 .6-8 .2-3 .4-5.8.4-6.3.1-.4.9-.7 2-.7s2.1-.9 2.4-2.1c.3-1.2 1-1.8 1.7-1.4.6.3.9.1.8-.5-.2-.7 1.3-2.1 3.2-3.2 2.8-1.6 4.5-1.9 8.9-1.4 3 .4 6.9 1.6 8.7 2.6 4.3 2.7 10.9 11.5 13.9 18.6l2.6 5.9-.6-5c-.3-2.8-.7-7.1-1-9.6C89.9 18.1 81.3 4 77.3 4c-1.3 0-2.2-.4-1.8-.9.9-1.5-1-2.2-2.4-.8zM45.5 55c-.3.5-1.3 1-2.1 1s-1.4-.5-1.4-1c0-.6.9-1 2.1-1 1.1 0 1.7.4 1.4 1zM84.5 7c1 1.1 2 2 2.3 2 .3 0-.3-.9-1.3-2s-2-2-2.3-2c-.3 0 .3.9 1.3 2z"
  />
  <path d="M73.4 43.5c-.3.8-.3 1.9.1 2.5.4.6-.5 2-1.9 3.1S69 52 69 53c0 2.8 1.1 5.1 2.1 4.4.5-.3.9.6.9 2 0 2.4 2.4 4.7 8 7.6 2.4 1.2 2.4 1.2.9-.6-1.8-2.1-1.5-4.4.7-4.4 2 0 1.7-2-.3-2.1-1.4 0-1.5-.2-.3-.6.8-.3 2.3-1.2 3.2-2 1.3-1.1 2.1-1.2 3.7-.3 1.2.6 2.6.8 3.2.4 1.1-.6 3.1 1.7 6.1 7 2.2 3.9 2.3 2.1.2-1.9-.9-1.7-1.7-5.6-1.8-8.8-.3-7-1.6-8.9-1.6-2.4 0 4.4-.7 5.6-2.4 4-.8-.8-1.2-.9-5.8-1.1-1.8-.1-2.8-.8-2.8-1.7 0-.8-.7-1.5-1.5-1.5s-1.5-.7-1.5-1.5-.4-1.5-1-1.5c-.5 0-1-.5-1-1 0-.6.9-1 2-1 2.5 0 2.5-.9.3-2.6-2.4-1.8-6.2-1.8-6.9.1zM78 63c0 .5-.7.7-1.5.4-.8-.4-1.5-.8-1.5-1 0-.2.7-.4 1.5-.4s1.5.4 1.5 1z"
  />
  <path d="M83.8 44.7c.7.3 1.6.2 1.9-.1.4-.3-.2-.6-1.3-.5-1.1 0-1.4.3-.6.6zM100.2 67.2c-.5.7-1 7.3-1.1 14.7-.1 7.4-.3 13.7-.6 14-.2.4-.8 4.3-1.5 8.8-1 7.5-3.4 13.7-7.6 19.7-2 2.9-1.8 3.6 1 3.6 1.5 0 2.6-.7 2.9-1.8.4-1.6.5-1.6.6 0 .1 1.2.9 1.8 2.6 1.8 2 0 2.5-.5 2.6-2.8.1-1.5.1-3.3 0-4-.1-.6.3-1.2.9-1.2.5 0 1-1.8 1-4 0-3.1-.3-3.8-1.5-3.4-1.9.8-1.9-.3-.1-3.7.7-1.4 1.4-4.8 1.4-7.5.1-2.7.4-11.8.8-20.2.4-8.3.5-15.2.2-15.2s-1 .6-1.6 1.2zM69 83c0 .5.9 1 2.1 1 1.1 0 1.7-.5 1.4-1-.3-.6-1.3-1-2.1-1s-1.4.4-1.4 1zM105.1 88.6c0 1.1.3 1.4.6.6.3-.7.2-1.6-.1-1.9-.3-.4-.6.2-.5 1.3zM104.1 92.6c0 1.1.3 1.4.6.6.3-.7.2-1.6-.1-1.9-.3-.4-.6.2-.5 1.3zM83.3 100.7c.9.2 2.5.2 3.5 0 .9-.3.1-.5-1.8-.5-1.9 0-2.7.2-1.7.5zM102.2 111c0 1.4.2 1.9.5 1.2.2-.6.2-1.8 0-2.5-.3-.6-.5-.1-.5 1.3zM103 124.3c0 2 .4 3.7 1 3.7.5 0 .7-1.4.3-3.3-.8-4.5-1.3-4.7-1.3-.4zM118.9 122.8c.7 1.3 1 2.8.7 3.5-.2.7-.5.4-.5-.6-.1-.9-.5-1.7-1-1.7s-1.8-.3-2.8-.6c-1.3-.4-1.4-.3-.5.3.7.6 1.2 1.6 1 2.4-.2 1.1 1.2 1.5 6 1.7 4.9.2 6.2 0 6.2-1.2 0-.8-1.4-1.7-3.2-2.1-1.8-.4-4.2-1.5-5.2-2.4-1.8-1.5-1.8-1.5-.7.7zM108 123.4c0 .8.5 1.8 1 2.1.6.3 1-.3 1-1.4 0-1.2-.4-2.1-1-2.1-.5 0-1 .6-1 1.4z"
  />
</svg>
