<svg xmlns="http://www.w3.org/2000/svg" preserveAspectRatio="xMidYMid meet">
  <style>
    #background {
      fill: transparent;
    }
  </style>
  <defs>
    <linearGradient id="rainbow">
      <stop offset="0" stop-color="red" />
      <stop offset="0.2857" stop-color="#ff0" />
      <stop offset="0.4286" stop-color="#0f0" />
      <stop offset="0.5714" stop-color="cyan" />
      <stop offset="0.7142" stop-color="blue" />
      <stop offset="0.8571" stop-color="#f0f" />
      <stop offset="1" stop-color="red" />
    </linearGradient>
    <symbol id="background">
      <rect width="100%" height="100%"/>
    </symbol>
    <symbol id="description" viewBox="0 0 74.74 70.48">
      <path d="M19.09,55.34a.24.24,0,0,0,.31.31l17.77-6.77,30.2-30.2L56.05,7.37l-30.2,30.2Z"></path>
      <path d="M63.43,26.63V62.07A2.42,2.42,0,0,1,61,64.48H8.41A2.42,2.42,0,0,1,6,62.07V9.46A2.42,2.42,0,0,1,8.41,7h44L53.46,6h0l1.87-1.87.72-.72h0L58.37,1h-50A8.42,8.42,0,0,0,0,9.46V62.07a8.42,8.42,0,0,0,8.41,8.41H61a8.42,8.42,0,0,0,8.41-8.41V20.63l-.65.65Z"></path>
      <path d="M72.4,2.34a8,8,0,0,0-11.32,0L57.47,6,68.78,17.28l3.62-3.62A8,8,0,0,0,72.4,2.34Z"></path>
    </symbol>
    <symbol id="opacity" viewBox="0 0 32 32">
      <path d="M15.996 1.004c-8.272 0-15 6.727-15 15 0 8.272 6.728 15 15 15 8.273 0 15-6.728 15-15 0-8.273-6.727-15-15-15zm0 1.992v26.008c-7.191 0-13-5.809-13-13 0-7.192 5.809-13.008 13-13.008z" />
    </symbol>
    <symbol id="edit-color" viewBox="0 0 120 120" >
      <circle cy="60" cx="60" r="60" fill="url(#rainbow)" fill-opacity="0.66" />
      <use href="#opacity" />
    </symbol>
    <symbol id="animation" viewBox="0 0 64 64">
      <path d="M42.27,1.14c-12,0-21.73,9.73-21.73,21.73c0,12,9.73,21.73,21.73,21.73c12,0,21.73-9.73,21.73-21.73   C63.99,10.87,54.27,1.15,42.27,1.14z M42.27,42.23c-10.69,0-19.36-8.67-19.36-19.36c0-10.69,8.67-19.36,19.36-19.36   c10.69,0,19.36,8.67,19.36,19.36C61.62,33.55,52.96,42.21,42.27,42.23z"></path>
      <path d="M11.64,31.11c0.01,0,0.02,0.01,0.02,0.01c0.62,0.22,1.29-0.11,1.51-0.73c0-0.01,0-0.01,0.01-0.02   c0.85-2.38,2.23-4.53,4.05-6.28c0.46-0.47,0.45-1.22-0.02-1.68c-0.45-0.44-1.16-0.45-1.63-0.03c-2.08,2.01-3.67,4.47-4.64,7.2   C10.71,30.2,11.03,30.88,11.64,31.11z"></path>
      <path d="M12.25,36.18c-0.01-0.65-0.55-1.17-1.21-1.16c-0.65,0.01-1.17,0.55-1.16,1.21c0.07,3.4,1.07,6.71,2.88,9.58   c0.22,0.35,0.6,0.56,1.01,0.55c0.65,0,1.19-0.53,1.19-1.18c0-0.22-0.06-0.44-0.18-0.63C13.18,42.04,12.31,39.15,12.25,36.18z"></path>
      <path d="M40.28,47.09c-0.02,0.02-0.03,0.03-0.05,0.05v-0.01c-2.06,2.14-4.66,3.67-7.52,4.43c-0.63,0.17-1.01,0.82-0.84,1.45   c0.17,0.63,0.82,1.01,1.45,0.84c3.28-0.87,6.26-2.63,8.62-5.07c0.47-0.46,0.48-1.21,0.02-1.68C41.5,46.64,40.75,46.63,40.28,47.09z"></path>
      <path d="M26.87,52.03L26.87,52.03c-2.95-0.3-5.76-1.39-8.13-3.17c-0.52-0.39-1.27-0.29-1.66,0.24c-0.39,0.52-0.29,1.27,0.24,1.66   c2.71,2.04,5.94,3.3,9.32,3.64h0.12c0.65,0.03,1.21-0.47,1.24-1.13C28.03,52.62,27.53,52.06,26.87,52.03z"></path>
      <path d="M2.77,53.28c0-0.1-0.01-0.2-0.04-0.3l-0.01,0.01c-0.24-0.95-0.36-1.93-0.36-2.92c0-0.46,0.03-0.91,0.08-1.37   c0.07-0.65-0.4-1.25-1.05-1.32c-0.65-0.07-1.25,0.4-1.32,1.05C0.02,48.98,0,49.53,0,50.07c0,1.18,0.14,2.35,0.43,3.49   c0.13,0.53,0.61,0.9,1.15,0.89C2.24,54.46,2.77,53.93,2.77,53.28z"></path>
      <path d="M2.1,45.11c0.58,0.29,1.28,0.06,1.58-0.51c0.67-1.28,1.56-2.43,2.64-3.39c0.46-0.46,0.46-1.21,0-1.68   c-0.43-0.43-1.11-0.46-1.58-0.09c-1.29,1.15-2.36,2.53-3.16,4.07C1.29,44.1,1.52,44.81,2.1,45.11z"></path>
      <path d="M23.21,57.96L23.21,57.96c-0.95,1.07-2.09,1.97-3.37,2.65c-0.59,0.28-0.84,0.99-0.56,1.58c0.28,0.59,0.99,0.84,1.58,0.56   c0.03-0.01,0.06-0.03,0.09-0.05c1.53-0.8,2.89-1.87,4.04-3.16c0.44-0.49,0.39-1.24-0.1-1.68C24.4,57.42,23.65,57.47,23.21,57.96z"></path>
      <path d="M7.62,59.95c-0.02-0.01-0.04-0.03-0.06-0.04V59.9c-1.19-0.81-2.22-1.84-3.05-3.02c-0.38-0.54-1.11-0.67-1.65-0.29   s-0.67,1.11-0.29,1.65c0.99,1.42,2.22,2.64,3.65,3.62c0.53,0.39,1.27,0.28,1.66-0.25C8.26,61.08,8.14,60.34,7.62,59.95z"></path>
    </symbol>
    <symbol id="grid" viewBox="0 0 120 90">
      <rect id="vanishing-point" width="1" height="1" x="30" y="30" />
      <rect id="foreground" width="100%" height="1" y="45" />
      <rect id="left" width="1" height="100%" x="30" />
      <rect id="right" width="1" height="100%" x="90" />
    </symbol>
    <symbol id="date-picker" viewBox="0 0 150 150">
      <rect x="1" y="1" rx="8" width="114" height="114"/>
      <path d="M130.019 110.44H117.56V97.98a3.558 3.558 0 00-3.56-3.56 3.56 3.56 0 00-3.559 3.56v12.46h-12.46a3.558 3.558 0 100 7.119h12.46v12.46a3.56 3.56 0 107.119 0v-12.46h12.459a3.559 3.559 0 100-7.119z"/>
      <path d="M88.544 88.544c-14.059 14.059-14.059 36.853 0 50.912 14.059 14.059 36.853 14.059 50.912 0 14.059-14.059 14.059-36.853 0-50.912-14.059-14.059-36.853-14.059-50.912 0zm45.999 46c-11.345 11.344-29.741 11.345-41.086 0-11.346-11.346-11.346-29.741 0-41.087 11.345-11.346 29.741-11.346 41.086 0 11.346 11.346 11.346 29.741 0 41.087z"/>
    </symbol>
    <symbol id="silhouette" viewBox="0 0 16 16" preserveAspectRatio="xMidYMid slice">
      <path d="M14 12.5c-1-.4-2.4-1.5-4.5-1.9.5-.6 1-1.5 1.4-2.6.2-.6.2-1.2.2-1.9 0-.6.1-1.5 0-1.9C10.6 2.5 9.4 2 8 2s-2.6.5-3 2.2c-.1.5 0 1.4 0 1.9 0 .8 0 1.3.2 1.9.4 1.1.8 2 1.4 2.6C4.4 11 3 12 2 12.5c-2 .9-2 1.9-2 1.9V16h16v-1.6c0-.1 0-1-2-1.9z"/>
    </symbol>
    <symbol id="search" viewBox="0 0 192 192">
      <path d="M74.764.21C33.67.21.21 33.668.21 74.763s33.46 74.555 74.555 74.555c17.98 0 34.55-6.51 47.444-17.156h.212l59.305 59.305 9.743-9.743-59.305-59.305v-.212c10.646-12.894 17.156-29.465 17.156-47.444C149.319 33.67 115.859.21 74.764.21zm0 13.555c33.77 0 61 27.23 61 61 0 33.768-27.23 60.998-61 60.998-33.77 0-61-27.23-61-60.999 0-33.77 27.23-61 61-61z"/>
    </symbol>
    <symbol id="fullscreen" viewBox="0 0 100 100">
      <path d="m16.07 90.71 13.57-13.57-6.78-6.78L9.29 83.93 2.5 77.14V97.5h20.36l-6.79-6.79zM83.93 90.71 70.36 77.14l6.78-6.78 13.57 13.57 6.79-6.79V97.5H77.14l6.79-6.79zM16.07 9.29l13.57 13.57-6.78 6.78L9.29 16.07 2.5 22.86V2.5h20.36l-6.79 6.79zM83.93 9.29 70.36 22.86l6.78 6.78 13.57-13.57 6.79 6.79V2.5H77.14l6.79 6.79z"/>
      <rect x="29.64" y="29.64" width="40.71" height="40.71" rx="6.79"/>
    </symbol>
    <symbol id="play" viewBox="0 0 73 73">
      <path stroke-linejoin="round"
            stroke-width="5"
            transform="rotate(90 35.5 36.5)"
            d="M35,3
               L70,70
               L3,70
               L35,3 Z"/>
    </symbol>
    <symbol id="hamburger" viewBox="0 0 192 192">
      <rect width="192" height="32" rx="8"/>
      <rect y="80" width="192" height="32" rx="8"/>
      <rect y="160" width="192" height="32" rx="8"/>
    </symbol>
    <symbol id="heart" viewBox="0 0 92 84">
      <path d="M67 35.2h-2.6v11.6H52.7v2.5h11.7V61h2.5V49.3h11.7v-2.5H66.9V35.2z"/>
      <path d="M83.5 30.2a25.4 25.4 0 00-2.3-2 21.4 21.4 0 00.7-5.5c0-11.8-9.6-21.4-21.5-21.4A21.3 21.3 0 0048.2 5a21.4 21.4 0 00-6.5 7.3A21.4 21.4 0 0035 5a21.3 21.3 0 00-12-3.7A21.4 21.4 0 001.4 22.7 21.4 21.4 0 004.7 34l.8 1.2.5.7 34.6 46a1.3 1.3 0 002 0l9.5-12.5c4 2.6 8.7 4 13.5 4a25.1 25.1 0 0017.9-7.5 25.1 25.1 0 000-35.7zm-53.3-18c-.4.6-1.1.8-1.8.4a11.4 11.4 0 00-5.8-1.6A11.4 11.4 0 0012 26.7a1.3 1.3 0 11-2.3 1 13.9 13.9 0 01-1-5.3 14 14 0 0121-12 1.3 1.3 0 01.5 1.8zm35.4 58.6a22.7 22.7 0 110-45.5 22.7 22.7 0 010 45.5z"/>
    </symbol>
    <symbol id="add" viewBox="0 0 114 114">
      <path d="M16.695 16.695c-22.26 22.26-22.26 58.35 0 80.61 22.26 22.26 58.35 22.26 80.61 0 22.26-22.26 22.26-58.35 0-80.61-22.26-22.26-58.35-22.26-80.61 0zm72.832 72.833c-17.964 17.962-47.09 17.963-65.054 0-17.964-17.964-17.964-47.09 0-65.055 17.964-17.964 47.09-17.964 65.054 0 17.964 17.965 17.964 47.09 0 65.055zm0 0"/>
      <path d="M82.364 51.364H62.636V31.636a5.636 5.636 0 00-11.272 0v19.728H31.636a5.636 5.636 0 000 11.272h19.728v19.728a5.636 5.636 0 0011.272 0V62.636h19.728a5.636 5.636 0 000-11.272zm0 0"/>
    </symbol>
    <symbol id="remove" viewBox="0 0 114 114">
      <path d="M16.695 16.695c-22.26 22.26-22.26 58.35 0 80.61 22.26 22.26 58.35 22.26 80.61 0 22.26-22.26 22.26-58.35 0-80.61-22.26-22.26-58.35-22.26-80.61 0zm71.978 71.98c-17.769 17.767-46.578 17.767-64.346 0-17.77-17.77-17.77-46.58 0-64.348 17.769-17.77 46.577-17.77 64.347 0 17.768 17.77 17.768 46.578 0 64.347zm0 0"/>
      <path d="M83.273 62H31.727C28.564 62 26 59.538 26 56.5s2.564-5.5 5.727-5.5h51.546C86.436 51 89 53.462 89 56.5S86.436 62 83.273 62zm0 0"/>
    </symbol>
    <symbol id="finished" viewBox="0 0 17 17">
      <path d="M2.585 2.445a8.444 8.444 0 1011.941 11.94A8.444 8.444 0 002.585 2.444zm10.747 10.747A6.755 6.755 0 113.78 3.638a6.755 6.755 0 019.552 9.554z"/>
      <path d="M7.77 12.505a.854.854 0 01-.557-.206l-2.99-2.57a.854.854 0 011.113-1.296l2.258 1.94L11.33 4.77a.854.854 0 111.422.948L8.48 12.125a.855.855 0 01-.71.38z"/>
    </symbol>
    <symbol id="download" viewBox="0 0 512 512">
      <path d="M78.006 73.782C12.166 137.849-14.09 232.396 9.285 321.239c23.375 88.843 92.763 158.226 181.608 181.594 88.845 23.368 183.39-2.897 247.452-68.743 97.783-99.795 96.968-259.719-1.826-358.513-98.794-98.794-258.717-99.608-358.513-1.825v.03zM402.314 398.09c-51.473 51.63-126.6 71.838-197.03 53C134.857 432.25 79.85 377.234 61.027 306.8c-18.824-70.433 1.401-145.556 53.041-197.019 79.652-79.377 208.538-79.259 288.044.264 79.506 79.523 79.597 208.409.203 288.044z"/>
      <path d="M282.552 249.54l18.782-17.515c10.117-9.435 25.968-8.881 35.403 1.237l1.366 1.465c9.435 10.118 8.882 25.968-1.236 35.403l-62.287 58.083c-5.313 4.956-12.209 7.156-18.925 6.662-6.717.494-13.612-1.706-18.925-6.662l-62.287-58.083c-10.118-9.435-10.671-25.285-1.236-35.403l1.366-1.465c9.435-10.118 25.286-10.672 35.403-1.237l20.474 19.093V104.204c0-13.835 11.215-25.05 25.049-25.05h2.004c13.834 0 25.049 11.215 25.049 25.05V249.54zm81.158 107.141v36.102a8 8 0 01-8 8H158.294a8 8 0 01-8-8V356.68a8 8 0 018-8H355.71a8 8 0 018 8z"/>
    </symbol>
    <symbol id="camera" viewBox="0 0 1000 1000" preserveAspectRatio="xMidYMid slice">
      <path class="st0" d="M903 323.6v492c0 14.1-11.3 25.5-25.5 25.5H145c-14.1 0-25-11.3-25-25.5v-492c0-14.1 10.9-25.6 25-25.6h181.9l51.7-115h265.3l41.4 115h192.2c14.2 0 25.5 11.4 25.5 25.6z"/>
      <circle class="st0" cx="500" cy="555" r="156.3"/>
    </symbol>
    <symbol id="working" viewBox="0 0 430 130" preserveAspectRatio="xMidYMid meet">
      <circle cy="64" cx="64" r="64"/>
      <circle cy="64" cx="213" r="64"/>
      <circle cy="64" cx="365" r="64"/>
    </symbol>
    <symbol id="gear" viewBox="0 0 270 270">
      <path d="M166 39l15 6 24-18c5-3 11-2 14 1l22 22c4 4 4 10 1 14l-17 25 6 15 30 5c5 0 9 5 9 10v31c0 5-4 10-9 11l-30 5-6 15 18 24c3 5 2 11-1 14l-22 22c-4 4-10 4-14 1l-25-17-15 6-5 30c-1 5-6 9-11 9h-31c-5 0-10-4-10-9l-5-30-15-6-25 17c-4 3-10 3-14-1l-22-22c-3-3-4-9-1-13l18-25c-3-5-5-10-6-15l-30-5c-5-1-9-6-9-11v-31c0-5 4-10 9-10l30-5c1-6 3-10 6-15L27 64c-3-4-2-10 2-14l22-22c3-3 9-4 13-1l25 18 15-6 5-30c0-5 5-9 10-9h31c5 0 10 4 11 9l5 30zm-31 39c-31 0-57 26-57 57s26 57 57 57 57-26 57-57-26-57-57-57z"/>
    </symbol>
    <symbol id="message" viewBox="0 0 67 100" preserveAspectRatio="xMinYMax meet">
      <path d="M8.05 65.33l45.4-.3h.16l.23.02.26.04c.44.07.86.2 1.25.4l.29.15.18.11.22.15.11.09a4.7 4.7 0 011.16 1.32l.1.2 12.76 28.52a3 3 0 005.7-.72l4.75-27.35A26 26 0 0081 63.5V8a8 8 0 00-8-8H8a8 8 0 00-8 8v49.33a8 8 0 008.05 8z" />
    </symbol>
  </defs>
  <use href="#background" />
  <svg id="realness" viewBox="0 0 192 192" preserveAspectRatio="xMidYMid meet">
    <rect fill="hsla(300,  1%, 33%, 0.69)" width="88" height="54" rx="8"/>
    <rect fill="hsla(136, 47%, 57%, 0.69)" width="88" height="54" rx="8" x="104"/>
    <rect fill="hsla(136, 47%, 57%, 0.69)" width="88" height="54" rx="8"         y="69"/>
    <rect fill="hsla(203, 58%, 57%, 0.69)" width="88" height="54" rx="8" x="104" y="69"/>
    <rect fill="hsla(203, 58%, 57%, 0.69)" width="88" height="54" rx="8"         y="138"/>
    <rect fill="hsla(353, 83%, 57%, 0.69)" width="88" height="54" rx="8" x="104" y="138"/>
  </svg>
</svg>
