<svg viewBox="0 0 266 149" xmlns="http://www.w3.org/2000/svg" xmlns:xlink="http://www.w3.org/1999/xlink" preserveAspectRatio="xMinYMin meet"><symbol id="a" preserveAspectRatio="xMinYMin meet"><path d="M132 88c-1-6-5-12-9-16-37-26 6 5-11-7-2-1-3-2-4-3-8-5-15-10-24-13h-2"/><path d="M132 88c0-4-3-8-5-11-7-8-16-13-25-19m30 30c-1-7-10-16-15-20"/><path d="M132 88c1-5-7-11-11-14-15-12-9-11-26-23-18-13-20-15-30-21m67 58c-1-7-7-17-11-23"/><path d="M132 88c1-3-3-8-4-9-8-10-17-19-29-27"/><path d="M132 88c-9-22-34-34-56-47-8-4-49-22-51-20"/><path d="M132 88c1-7-4-13-7-18-4-6-6-11-10-18"/>
<path d="M132 88c-1-15-12-37-21-48-4-5-8-9-13-14-3-2-25-15-28-16"/>
<path d="M132 88c0-2 0-4-1-6-1-9-14-21-23-28-17-14-37-26-58-38C39 11 29 5 15 2 11 1 1 1 0 1m132 87c3-12-11-31-17-40"/><path d="M132 88c-1-6-5-12-9-16-37-26 6 5-11-7-2-1-3-2-4-3-8-5-15-10-24-13h-2"/><path d="M132 88c0-4-3-8-6-11-6-8-15-13-24-19m30 30c-1-7-10-16-15-20"/><path d="M132 88c0-5-7-11-11-14-15-12-9-11-26-23-18-13-20-15-30-21m67 58c0-7-7-17-11-23"/><path d="M132 88c1-3-3-8-4-9-8-10-18-19-29-27"/><path d="M132 88c0-22-34-34-56-47-8-4-49-22-51-20"/><path d="M132 88c1-7-4-13-7-18-4-6-6-11-10-17"/>
<path d="M132 88c0-4 0-2-4-10-1-3-4-8-6-11-5-8-4-7-11-16-2-4-7-8-10-11-5-3-10-8-16-11-1-1-8-6-14-9C55 9 36 0 32 0"/><path d="M132 88c-1-15-12-37-21-48-4-5-8-9-13-14-3-2-24-15-28-16"/></symbol>
</svg>
