<svg xmlns="http://www.w3.org/2000/svg" viewBox="0 0 232 232" role="img" aria-label="realness logo seed 11"><title>Realness - seed 11</title><desc>seed=11 scheme=light</desc><defs></defs><rect width="232" height="232" fill="oklch(0.94 0.01 100)"/><rect x="20" y="20" width="192" height="192" fill="oklch(0.89 0.01 107)" rx="4"/><path d="M12.52 13.85 L25.77 16.74 L39.03 19.63 L51.81 15.62 L64.55 10.96 L77.92 9.27 L91.46 8.43 L93.95 21.53 L94.82 34.99 L94.14 48.54 L92.44 62.00 L81.49 65.25 L67.93 65.63 L54.41 66.74 L40.92 68.13 L27.44 67.60 L13.96 66.05 L11.15 54.48 L10.97 40.93 L11.45 27.37 Z" fill="oklch(0.62 0.07 196)" transform="translate(118.9 128.6) rotate(90) scale(0.861) translate(-52.9 -38.3)"/><path d="M89.37 124.55 L102.72 122.06 L116.09 119.66 L129.54 121.11 L142.97 123.90 L156.30 127.22 L169.55 128.26 L177.45 137.59 L177.47 151.59 L178.38 165.56 L178.90 179.38 L165.89 179.62 L152.88 178.86 L140.04 175.59 L127.21 172.13 L114.78 175.50 L101.30 179.32 L99.95 166.38 L97.06 153.45 L97.28 140.06 Z" fill="oklch(0.51 0.13 21)" transform="translate(108.6 136.0) rotate(180) scale(0.844) translate(-134.1 -149.6)"/><path d="M94.91 11.61 L108.94 12.60 L122.96 13.63 L136.47 17.55 L149.97 21.47 L163.23 17.02 L175.64 13.77 L178.19 27.60 L178.85 41.63 L182.30 55.03 L176.83 61.63 L162.85 63.16 L148.91 64.95 L135.02 67.17 L121.11 68.99 L107.05 68.54 L95.85 65.97 L99.49 52.39 L101.05 38.47 L100.04 24.71 Z" fill="oklch(0.55 0.08 257)" transform="translate(93.0 103.0) rotate(90) scale(0.748) translate(-138.6 -40.3)"/><path d="M14.99 128.56 L27.99 129.38 L40.99 130.12 L53.41 125.12 L65.81 120.12 L78.16 120.83 L90.52 121.58 L90.98 134.98 L92.22 148.32 L94.79 161.37 L98.10 173.79 L85.72 171.47 L73.27 169.48 L60.85 170.03 L48.43 170.87 L35.93 172.80 L23.41 175.48 L15.69 163.45 L17.67 149.19 L16.10 135.00 Z" fill="oklch(0.35 0.01 101)" transform="translate(125.3 125.2) rotate(90) scale(0.875) translate(-56.5 -147.8)"/><path d="M8.53 68.99 L21.45 71.80 L34.38 74.61 L47.50 73.85 L60.66 72.49 L73.74 70.59 L86.80 68.49 L86.18 78.97 L85.14 91.95 L86.64 105.09 L89.35 118.03 L76.49 115.72 L63.54 113.71 L51.34 118.80 L39.07 123.64 L25.89 124.73 L18.22 119.86 L18.29 106.64 L17.41 93.44 L14.50 80.79 Z" fill="oklch(0.62 0.07 196)" transform="translate(140.4 95.1) rotate(180) scale(0.953) translate(-48.9 -96.6)"/><path d="M92.06 71.36 L106.05 73.56 L120.02 75.37 L133.89 73.69 L147.74 71.20 L161.36 67.74 L175.21 64.63 L184.64 74.06 L186.01 88.45 L185.05 102.43 L184.55 116.41 L172.95 113.81 L160.27 111.71 L148.25 112.78 L136.21 114.76 L123.98 117.74 L111.78 121.15 L96.41 113.15 L92.30 100.58 L91.33 87.13 Z" fill="oklch(0.51 0.13 21)" transform="translate(138.8 175.3) rotate(90) scale(0.776) translate(-138.7 -92.9)"/></svg>