<svg xmlns="http://www.w3.org/2000/svg" preserveAspectRatio="xMinYMin meet">
  <symbol id="background">
    <rect width="100%" height="100%"/>
  </symbol>
  <symbol id="date-picker" viewBox="0 0 150 150">
    <rect x="1" y="1" rx="8" width="114" height="114"/>
    <path d="M130.019 110.44H117.56V97.98a3.558 3.558 0 00-3.56-3.56 3.56 3.56 0 00-3.559 3.56v12.46h-12.46a3.558 3.558 0 100 7.119h12.46v12.46a3.56 3.56 0 107.119 0v-12.46h12.459a3.559 3.559 0 100-7.119z"/>
    <path d="M88.544 88.544c-14.059 14.059-14.059 36.853 0 50.912 14.059 14.059 36.853 14.059 50.912 0 14.059-14.059 14.059-36.853 0-50.912-14.059-14.059-36.853-14.059-50.912 0zm45.999 46c-11.345 11.344-29.741 11.345-41.086 0-11.346-11.346-11.346-29.741 0-41.087 11.345-11.346 29.741-11.346 41.086 0 11.346 11.346 11.346 29.741 0 41.087z"/>
  </symbol>
  <symbol id="silhouette" viewBox="0 0 16 16" preserveAspectRatio="xMidYMid slice">
    <path d="M14 12.5c-1-.4-2.4-1.5-4.5-1.9.5-.6 1-1.5 1.4-2.6.2-.6.2-1.2.2-1.9 0-.6.1-1.5 0-1.9C10.6 2.5 9.4 2 8 2s-2.6.5-3 2.2c-.1.5 0 1.4 0 1.9 0 .8 0 1.3.2 1.9.4 1.1.8 2 1.4 2.6C4.4 11 3 12 2 12.5c-2 .9-2 1.9-2 1.9V16h16v-1.6c0-.1 0-1-2-1.9z"/>
  </symbol>
  <symbol id="realness" viewBox="0 0 192 192">
    <rect fill-opacity=".73" fill="#5A585A" width="88.615" height="53.76" rx="8"/>
    <rect fill-opacity=".8" fill="#4E8D53" x="103.385" width="88.615" height="53.76" rx="8"/>
    <rect fill-opacity=".8" fill="#4E8D53" y="69.12" width="88.615" height="53.76" rx="8"/>
    <rect fill-opacity=".69" fill="#52A0D1" x="103.385" y="69.12" width="88.615" height="53.76" rx="8"/>
    <rect fill-opacity=".69" fill="#52A0D1" y="138.24" width="88.615" height="53.76" rx="8"/>
    <rect fill-opacity=".8" fill="#EC364C" x="103.385" y="138.24" width="88.615" height="53.76" rx="8"/>
  </symbol>
  <symbol id="search" viewBox="0 0 192 192">
    <path d="M74.764.21C33.67.21.21 33.668.21 74.763s33.46 74.555 74.555 74.555c17.98 0 34.55-6.51 47.444-17.156h.212l59.305 59.305 9.743-9.743-59.305-59.305v-.212c10.646-12.894 17.156-29.465 17.156-47.444C149.319 33.67 115.859.21 74.764.21zm0 13.555c33.77 0 61 27.23 61 61 0 33.768-27.23 60.998-61 60.998-33.77 0-61-27.23-61-60.999 0-33.77 27.23-61 61-61z"/>
  </symbol>
  <symbol id="hamburger" viewBox="0 0 192 192">
    <rect width="192" height="32" rx="8"/>
    <rect y="80" width="192" height="32" rx="8"/>
    <rect y="160" width="192" height="32" rx="8"/>
  </symbol>
  <symbol id="heart" viewBox="0 0 92 84">
    <path d="M67 35.2h-2.6v11.6H52.7v2.5h11.7V61h2.5V49.3h11.7v-2.5H66.9V35.2z"/>
    <path d="M83.5 30.2a25.4 25.4 0 00-2.3-2 21.4 21.4 0 00.7-5.5c0-11.8-9.6-21.4-21.5-21.4A21.3 21.3 0 0048.2 5a21.4 21.4 0 00-6.5 7.3A21.4 21.4 0 0035 5a21.3 21.3 0 00-12-3.7A21.4 21.4 0 001.4 22.7 21.4 21.4 0 004.7 34l.8 1.2.5.7 34.6 46a1.3 1.3 0 002 0l9.5-12.5c4 2.6 8.7 4 13.5 4a25.1 25.1 0 0017.9-7.5 25.1 25.1 0 000-35.7zm-53.3-18c-.4.6-1.1.8-1.8.4a11.4 11.4 0 00-5.8-1.6A11.4 11.4 0 0012 26.7a1.3 1.3 0 11-2.3 1 13.9 13.9 0 01-1-5.3 14 14 0 0121-12 1.3 1.3 0 01.5 1.8zm35.4 58.6a22.7 22.7 0 110-45.5 22.7 22.7 0 010 45.5z"/>
  </symbol>
  <symbol id="add" viewBox="0 0 114 114">
    <path d="M16.695 16.695c-22.26 22.26-22.26 58.35 0 80.61 22.26 22.26 58.35 22.26 80.61 0 22.26-22.26 22.26-58.35 0-80.61-22.26-22.26-58.35-22.26-80.61 0zm72.832 72.833c-17.964 17.962-47.09 17.963-65.054 0-17.964-17.964-17.964-47.09 0-65.055 17.964-17.964 47.09-17.964 65.054 0 17.964 17.965 17.964 47.09 0 65.055zm0 0"/>
    <path d="M82.364 51.364H62.636V31.636a5.636 5.636 0 00-11.272 0v19.728H31.636a5.636 5.636 0 000 11.272h19.728v19.728a5.636 5.636 0 0011.272 0V62.636h19.728a5.636 5.636 0 000-11.272zm0 0"/>
  </symbol>
  <symbol id="remove" viewBox="0 0 114 114">
    <path d="M16.695 16.695c-22.26 22.26-22.26 58.35 0 80.61 22.26 22.26 58.35 22.26 80.61 0 22.26-22.26 22.26-58.35 0-80.61-22.26-22.26-58.35-22.26-80.61 0zm71.978 71.98c-17.769 17.767-46.578 17.767-64.346 0-17.77-17.77-17.77-46.58 0-64.348 17.769-17.77 46.577-17.77 64.347 0 17.768 17.77 17.768 46.578 0 64.347zm0 0"/>
    <path d="M83.273 62H31.727C28.564 62 26 59.538 26 56.5s2.564-5.5 5.727-5.5h51.546C86.436 51 89 53.462 89 56.5S86.436 62 83.273 62zm0 0"/>
  </symbol>
  <symbol id="finished" viewBox="0 0 17 17">
    <path d="M2.585 2.445a8.444 8.444 0 1011.941 11.94A8.444 8.444 0 002.585 2.444zm10.747 10.747A6.755 6.755 0 113.78 3.638a6.755 6.755 0 019.552 9.554z"/>
    <path d="M7.77 12.505a.854.854 0 01-.557-.206l-2.99-2.57a.854.854 0 011.113-1.296l2.258 1.94L11.33 4.77a.854.854 0 111.422.948L8.48 12.125a.855.855 0 01-.71.38z"/>
  </symbol>
  <symbol id="download" viewBox="0 0 512 512">
    <path d="M78.006 73.782C12.166 137.849-14.09 232.396 9.285 321.239c23.375 88.843 92.763 158.226 181.608 181.594 88.845 23.368 183.39-2.897 247.452-68.743 97.783-99.795 96.968-259.719-1.826-358.513-98.794-98.794-258.717-99.608-358.513-1.825v.03zM402.314 398.09c-51.473 51.63-126.6 71.838-197.03 53C134.857 432.25 79.85 377.234 61.027 306.8c-18.824-70.433 1.401-145.556 53.041-197.019 79.652-79.377 208.538-79.259 288.044.264 79.506 79.523 79.597 208.409.203 288.044z"/>
    <path d="M282.552 249.54l18.782-17.515c10.117-9.435 25.968-8.881 35.403 1.237l1.366 1.465c9.435 10.118 8.882 25.968-1.236 35.403l-62.287 58.083c-5.313 4.956-12.209 7.156-18.925 6.662-6.717.494-13.612-1.706-18.925-6.662l-62.287-58.083c-10.118-9.435-10.671-25.285-1.236-35.403l1.366-1.465c9.435-10.118 25.286-10.672 35.403-1.237l20.474 19.093V104.204c0-13.835 11.215-25.05 25.049-25.05h2.004c13.834 0 25.049 11.215 25.049 25.05V249.54zm81.158 107.141v36.102a8 8 0 01-8 8H158.294a8 8 0 01-8-8V356.68a8 8 0 018-8H355.71a8 8 0 018 8z"/>
  </symbol>
  <symbol id="camera" viewBox="0 0 1000 1000" preserveAspectRatio="xMidYMid slice">
    <path class="st0" d="M903 323.6v492c0 14.1-11.3 25.5-25.5 25.5H145c-14.1 0-25-11.3-25-25.5v-492c0-14.1 10.9-25.6 25-25.6h181.9l51.7-115h265.3l41.4 115h192.2c14.2 0 25.5 11.4 25.5 25.6z"/>
    <circle class="st0" cx="511.3" cy="559.2" r="156.3"/>
  </symbol>
  <symbol id="working" viewBox="0 0 430 130" preserveAspectRatio="xMidYMid meet">
    <circle cy="64" cx="64" r="64"/>
    <circle cy="64" cx="213" r="64"/>
    <circle cy="64" cx="365" r="64"/>
  </symbol>
  <symbol id="gear" viewBox="0 0 270 270">
    <path d="M166 39l15 6 24-18c5-3 11-2 14 1l22 22c4 4 4 10 1 14l-17 25 6 15 30 5c5 0 9 5 9 10v31c0 5-4 10-9 11l-30 5-6 15 18 24c3 5 2 11-1 14l-22 22c-4 4-10 4-14 1l-25-17-15 6-5 30c-1 5-6 9-11 9h-31c-5 0-10-4-10-9l-5-30-15-6-25 17c-4 3-10 3-14-1l-22-22c-3-3-4-9-1-13l18-25c-3-5-5-10-6-15l-30-5c-5-1-9-6-9-11v-31c0-5 4-10 9-10l30-5c1-6 3-10 6-15L27 64c-3-4-2-10 2-14l22-22c3-3 9-4 13-1l25 18 15-6 5-30c0-5 5-9 10-9h31c5 0 10 4 11 9l5 30zm-31 39c-31 0-57 26-57 57s26 57 57 57 57-26 57-57-26-57-57-57z"/>
  </symbol>
  <symbol id="message" viewBox="0 0 81 98">
    <path d="M8.05 65.33l45.4-.3h.16l.23.02.26.04c.44.07.86.2 1.25.4l.29.15.18.11.22.15.11.09a4.7 4.7 0 011.16 1.32l.1.2 12.76 28.52a3 3 0 005.7-.72l4.75-27.35A26 26 0 0081 63.5V8a8 8 0 00-8-8H8a8 8 0 00-8 8v49.33a8 8 0 008.05 8z" />
  </symbol>
  <g fill="hsla(136, 0%, 0%, 0.9)" stroke="hsla(136, 0%, 0%, 0.2)">
    <use href="#background" height="100vh"/>
    <use href="#date-picker" height="100vh"/>
    <use href="#silhouette" height="100vh"/>
    <use href="#realness" height="100vh"/>
    <use href="#search" height="100vh"/>
    <use href="#hamburger" height="100vh"/>
    <use href="#heart" height="100vh"/>
    <use href="#add" height="100vh"/>
    <use href="#remove" height="100vh"/>
    <use href="#finished" height="100vh"/>
    <use href="#download" height="100vh"/>
    <use href="#camera" height="100vh"/>
    <use href="#working" height="100vh"/>
    <use href="#message" height="100vh"/>
  </g>
</svg>
