 <svg xmlns="http://www.w3.org/2000/svg" xmlns:xlink="http://www.w3.org/1999/xlink" preserveAspectRatio="xMinYMin meet">
  <symbol id="background">
    <rect width="100%" height="100%"/>
  </symbol>
  <symbol id="date-picker" viewBox="0 0 150 150">
    <rect x="1" y="1" rx="8" width="114" height="114"/>
    <path d="M130.019 110.44H117.56V97.9805C117.56 97.0364 117.185 96.131 116.517 95.4635C115.85 94.7959 114.944 94.4209 114 94.4209C113.056 94.4209 112.151 94.7959 111.483 95.4635C110.816 96.131 110.441 97.0364 110.441 97.9805V110.44H97.9807C97.0367 110.44 96.1313 110.815 95.4637 111.483C94.7962 112.15 94.4211 113.056 94.4211 114C94.4211 114.944 94.7962 115.849 95.4637 116.517C96.1313 117.184 97.0367 117.559 97.9807 117.559H110.441V130.019C110.441 130.963 110.816 131.869 111.483 132.536C112.151 133.204 113.056 133.579 114 133.579C114.944 133.579 115.85 133.204 116.517 132.536C117.185 131.869 117.56 130.963 117.56 130.019V117.559H130.019C130.964 117.559 131.869 117.184 132.536 116.517C133.204 115.849 133.579 114.944 133.579 114C133.579 113.056 133.204 112.15 132.536 111.483C131.869 110.815 130.964 110.44 130.019 110.44V110.44Z" />
    <path d="M88.5442 88.5442C74.4853 102.603 74.4853 125.397 88.5442 139.456C102.603 153.515 125.397 153.515 139.456 139.456C153.515 125.397 153.515 102.603 139.456 88.5442C125.397 74.4853 102.603 74.4853 88.5442 88.5442ZM134.543 134.544C123.198 145.888 104.802 145.889 93.4566 134.544C82.1109 123.198 82.1109 104.803 93.4566 93.4566C104.802 82.1109 123.198 82.1109 134.543 93.4566C145.889 104.803 145.889 123.198 134.543 134.544Z" />
  </symbol>
  <symbol id="silhouette" viewBox="0 0 16 16" preserveAspectRatio="xMidYMid slice">
    <path d="m14 12.5c-1-.4-2.4-1.5-4.5-1.9.5-.6 1-1.5 1.4-2.6.2-.6.2-1.2.2-1.9 0-.6.1-1.5 0-1.9-.5-1.7-1.7-2.2-3.1-2.2s-2.6.5-3 2.2c-.1.5 0 1.4 0 1.9 0 .8 0 1.3.2 1.9.4 1.1.8 2 1.4 2.6-2.2.4-3.6 1.4-4.6 1.9-2 .9-2 1.9-2 1.9v1.6h16v-1.6c0-.1 0-1-2-1.9z"/>
  </symbol>
  <symbol id="realness" viewBox="0 0 192 192">
    <rect fill-opacity=".73" fill="#5A585A" width="88.615" height="53.76" rx="8"/>
    <rect fill-opacity=".8" fill="#4E8D53" x="103.385" width="88.615" height="53.76" rx="8"/>
    <rect fill-opacity=".8" fill="#4E8D53" y="69.12" width="88.615" height="53.76" rx="8"/>
    <rect fill-opacity=".69" fill="#52A0D1" x="103.385" y="69.12" width="88.615" height="53.76" rx="8"/>
    <rect fill-opacity=".69" fill="#52A0D1" y="138.24" width="88.615" height="53.76" rx="8"/>
    <rect fill-opacity=".8" fill="#EC364C" x="103.385" y="138.24" width="88.615" height="53.76" rx="8"/>
  </symbol>
  <symbol id="search" viewBox="0 0 192 192">
    <path d="M74.764.21C33.67.21.21 33.668.21 74.763s33.46 74.555 74.555 74.555c17.98 0 34.55-6.51 47.444-17.156h.212l59.305 59.305 9.743-9.743-59.305-59.305v-.212c10.646-12.894 17.156-29.465 17.156-47.444C149.319 33.67 115.859.21 74.764.21zm0 13.555c33.77 0 61 27.23 61 61 0 33.768-27.23 60.998-61 60.998-33.77 0-61-27.23-61-60.999 0-33.77 27.23-61 61-61z"/>
  </symbol>
  <symbol id="hamburger" viewBox="0 0 192 192">
    <rect id="top-bun" x="0" y="0" width="192" height="32" rx="8"></rect>
    <rect id="patty" x="0" y="80" width="192" height="32" rx="8"></rect>
    <rect id="bottom-bun" x="0" y="160" width="192" height="32" rx="8"></rect>
  </symbol>
  <symbol id="heart" viewBox="0 0 92 84">
    <path d="M67 35.2h-2.6v11.6H52.7v2.5h11.7V61h2.5V49.3h11.7v-2.5H66.9V35.2z"/>
    <path d="M83.5 30.2a25.4 25.4 0 0 0-2.3-2 21.4 21.4 0 0 0 .7-5.5c0-11.8-9.6-21.4-21.5-21.4A21.3 21.3 0 0 0 48.2 5a21.4 21.4 0 0 0-6.5 7.3A21.4 21.4 0 0 0 35 5 21.3 21.3 0 0 0 23 1.3 21.4 21.4 0 0 0 1.4 22.7 21.4 21.4 0 0 0 4.7 34l.8 1.2.5.7 34.6 46a1.3 1.3 0 0 0 2 0l9.5-12.5c4 2.6 8.7 4 13.5 4a25.1 25.1 0 0 0 17.9-7.5 25.1 25.1 0 0 0 0-35.7zm-53.3-18c-.4.6-1.1.8-1.8.4a11.4 11.4 0 0 0-5.8-1.6A11.4 11.4 0 0 0 12 26.7a1.3 1.3 0 1 1-2.3 1 13.9 13.9 0 0 1-1-5.3 14 14 0 0 1 21-12 1.3 1.3 0 0 1 .5 1.8zm35.4 58.6a22.7 22.7 0 1 1 0-45.5 22.7 22.7 0 0 1 0 45.5z"/>
  </symbol>
  <symbol id="add" viewBox="0 0 114 114">
    <path d="M16.695 16.695c-22.26 22.26-22.26 58.35 0 80.61 22.26 22.26 58.35 22.26 80.61 0 22.26-22.26 22.26-58.35 0-80.61-22.26-22.26-58.35-22.26-80.61 0zm72.832 72.833c-17.964 17.962-47.09 17.963-65.054 0-17.964-17.964-17.964-47.09 0-65.055 17.964-17.964 47.09-17.964 65.054 0 17.964 17.965 17.964 47.09 0 65.055zm0 0"/>
    <path d="M82.364 51.364H62.636V31.636a5.636 5.636 0 0 0-11.272 0v19.728H31.636a5.636 5.636 0 0 0 0 11.272h19.728v19.728a5.636 5.636 0 0 0 11.272 0V62.636h19.728a5.636 5.636 0 0 0 0-11.272zm0 0"/>
  </symbol>
  <symbol id="remove" viewBox="0 0 114 114">
    <path d="M16.695 16.695c-22.26 22.26-22.26 58.35 0 80.61 22.26 22.26 58.35 22.26 80.61 0 22.26-22.26 22.26-58.35 0-80.61-22.26-22.26-58.35-22.26-80.61 0zm71.978 71.98c-17.769 17.767-46.578 17.767-64.346 0-17.77-17.77-17.77-46.58 0-64.348 17.769-17.77 46.577-17.77 64.347 0 17.768 17.77 17.768 46.578 0 64.347zm0 0"/>
    <path d="M83.273 62H31.727C28.564 62 26 59.538 26 56.5s2.564-5.5 5.727-5.5h51.546C86.436 51 89 53.462 89 56.5S86.436 62 83.273 62zm0 0"/>
  </symbol>
  <symbol id="finished" viewBox="0 0 17 17">
    <path d="M2.585 2.445a8.444 8.444 0 1 0 11.941 11.94A8.444 8.444 0 0 0 2.585 2.444zm10.747 10.747A6.755 6.755 0 1 1 3.78 3.638a6.755 6.755 0 0 1 9.552 9.554z"/>
    <path d="M7.77 12.505a.854.854 0 0 1-.557-.206l-2.99-2.57a.854.854 0 0 1 1.113-1.296l2.258 1.94L11.33 4.77a.854.854 0 1 1 1.422.948L8.48 12.125a.855.855 0 0 1-.71.38z"/>
  </symbol>
  <symbol id="download" viewBox="0 0 512 512">
    <path d="M78.006 73.782C12.166 137.849-14.09 232.396 9.285 321.239c23.375 88.843 92.763 158.226 181.608 181.594 88.845 23.368 183.39-2.897 247.452-68.743 97.783-99.795 96.968-259.719-1.826-358.513-98.794-98.794-258.717-99.608-358.513-1.825v.03zM402.314 398.09c-51.473 51.63-126.6 71.838-197.03 53C134.857 432.25 79.85 377.234 61.027 306.8c-18.824-70.433 1.401-145.556 53.041-197.019 79.652-79.377 208.538-79.259 288.044.264 79.506 79.523 79.597 208.409.203 288.044z"/>
    <path d="M282.552 249.54l18.782-17.515c10.117-9.435 25.968-8.881 35.403 1.237l1.366 1.465c9.435 10.118 8.882 25.968-1.236 35.403l-62.287 58.083c-5.313 4.956-12.209 7.156-18.925 6.662-6.717.494-13.612-1.706-18.925-6.662l-62.287-58.083c-10.118-9.435-10.671-25.285-1.236-35.403l1.366-1.465c9.435-10.118 25.286-10.672 35.403-1.237l20.474 19.093V104.204c0-13.835 11.215-25.05 25.049-25.05h2.004c13.834 0 25.049 11.215 25.049 25.05V249.54zM363.71 356.681v36.102a8 8 0 0 1-8 8H158.294a8 8 0 0 1-8-8V356.68a8 8 0 0 1 8-8H355.71a8 8 0 0 1 8 8z"/>
  </symbol>
  <symbol id="camera" viewBox="0 0 1000 1000" preserveAspectRatio="xMidYMid slice">
    <path class="st0" d="M903,323.6v492c0,14.1-11.3,25.5-25.5,25.5H145c-14.1,0-25-11.3-25-25.5v-492    c0-14.1,10.9-25.6,25-25.6h181.9l51.7-115h265.3l41.4,115h192.2C891.7,298,903,309.4,903,323.6z" />
    <circle class="st0" cx="511.3" cy="559.2" r="156.3" />
  </symbol>
  <symbol id="working" viewBox="0 0 430 130" preserveAspectRatio="xMidYMid meet">
    <ellipse ry="64" rx="64" cy="64" cx="64"/>
    <ellipse ry="64" rx="64" cy="64" cx="213"/>
    <ellipse ry="64" rx="64" cy="64" cx="365"/>
  </symbol>
  <symbol id="mock-poster" viewBox="0 0 322 272">
    <path fill-rule="evenodd" d="M113.438 257.502C113.808 259.19 114.534 260.04 115.339 259.731C116.097 259.44 116.898 260.195 117.258 261.539C118.165 264.926 118.046 265.549 116.653 264.712C115.804 264.202 115.843 264.503 116.775 265.653C117.53 266.584 117.853 267.345 117.491 267.345C117.13 267.345 117.314 268.245 117.903 269.345C118.944 271.291 119.997 271.345 156.764 271.345H194.554C200.813 264.687 192.249 269.809 191.387 255.41C191.071 250.12 191.366 247.123 192.41 245.031C193.231 243.385 193.608 241.017 193.266 239.655C192.666 237.264 193.405 235.238 198.531 225.198C199.836 222.642 200.903 219.209 200.903 217.57C200.903 215.931 201.578 214.03 202.403 213.345C203.228 212.66 203.903 211.207 203.903 210.116C203.903 209.025 204.967 207.296 206.268 206.273C207.568 205.25 209.103 203.16 209.679 201.629C213.015 192.753 216.127 181.456 216.084 178.373C216.039 175.109 216.381 174.678 220.219 173.165C222.52 172.258 227.778 170.549 231.903 169.368C246.542 165.177 256.899 160.72 272.904 151.723C282.878 146.116 285.061 144.302 290.598 137.019C293.18 133.623 297.454 128.446 300.098 125.514C302.741 122.583 304.904 119.375 304.904 118.387C304.904 115.933 307.306 110.377 309.678 107.345C312.513 103.721 316.904 94.7221 316.904 92.5351C316.904 91.5031 317.809 88.0274 318.916 84.8114C321.487 77.3384 322.154 59.4625 320.346 46.4985C319.017 36.9635 318.621 35.8451 316.571 35.8451C315.929 35.8451 314.054 33.1244 312.404 29.7994C308.494 21.9204 305.984 18.3452 304.362 18.3452C303.64 18.3452 302.228 17.3322 301.225 16.0952C300.221 14.8582 297.973 12.7202 296.228 11.3452C294.483 9.97025 291.026 7.12833 288.546 5.02933C284.265 1.40633 283.917 1.29062 281.695 2.74662C279.542 4.15762 278.971 4.09634 274.596 1.98734C267.393 -1.48366 258.108 -0.336313 251.284 4.86869C249.406 6.30069 245.907 8.34135 243.506 9.40335C241.106 10.4654 238.45 12.3494 237.605 13.5894C236.761 14.8304 231.79 20.2964 226.559 25.7354C216.85 35.8314 216.638 36.1914 211.792 50.8334C209.304 58.3504 209.57 63.7261 212.447 64.1371C214.759 64.4681 221.284 58.3781 237.741 40.5311C249.992 27.2461 256.105 23.4996 262.608 25.2876C269.234 27.1096 278.605 35.9201 282.878 44.3451C283.854 46.2701 285.458 52.0504 286.443 57.1894C288.032 65.4824 288.086 67.4509 286.92 74.6889C285.304 84.7219 279.143 102.639 274.707 110.209C272.89 113.309 267.129 120.057 261.904 125.205C253.651 133.337 251.091 135.193 242.404 139.339C236.904 141.964 230.828 144.431 228.903 144.82C226.978 145.21 222.23 146.431 218.352 147.533C211.834 149.386 211.021 149.421 207.612 147.997C205.168 146.975 203.36 145.275 202.254 142.956C201.337 141.031 199.366 138.951 197.876 138.334C196.385 137.716 193.644 135.625 191.784 133.687L187.104 127.56C185.738 122.592 185.267 120.641 182.493 115.908C180.986 113.337 178.55 110.708 177.078 110.065C174.724 109.036 167.672 102.531 162.703 96.8041C161.768 95.7271 160.546 94.3951 159.986 93.8451C153.816 87.7841 151.607 84.3451 153.884 84.3451C154.423 84.3451 155.134 83.1071 155.463 81.5951C155.791 80.0821 156.464 77.9446 156.96 76.8446C160.213 69.6296 161.472 62.8965 160.392 58.4965L159.815 56.1484L157.556 58.4965C154.154 62.0325 152.848 61.8973 153.573 58.0863C153.913 56.3033 154.333 54.6752 154.507 54.4682C154.681 54.2612 154.156 52.7982 153.338 51.2182C152.521 49.6382 152.201 48.2763 152.627 48.1933C153.054 48.1093 153.853 47.9365 154.403 47.8085C154.953 47.6805 155.945 47.5244 156.608 47.4604C157.27 47.3974 158.125 45.6785 158.507 43.6425C158.896 41.5685 160.566 38.5202 162.302 36.7152C166.512 32.3392 169.723 24.4757 167.795 23.2647C166.176 22.2487 164.565 22.6466 156.403 26.0796C153.103 27.4676 146.128 29.1784 140.903 29.8814C135.678 30.5844 130.413 31.4724 129.201 31.8564L126.997 32.5541L129.079 35.3695C130.537 37.3415 130.966 38.9575 130.513 40.7655C130.021 42.7225 130.247 43.3451 131.444 43.3451C132.416 43.3451 132.75 42.8651 132.315 42.0951C131.851 41.2731 131.943 41.1871 132.582 41.8451C133.117 42.3951 134.085 44.6451 134.732 46.8451C137.624 56.6741 140.925 66.5553 141.842 68.1293C142.706 69.6113 142.846 69.5132 142.873 67.4042C142.902 65.0582 142.958 65.0385 144.312 66.8905C145.225 68.1395 145.414 69.3906 144.847 70.4486C143.96 72.1066 144.509 73.3446 146.13 73.3446C146.62 73.3446 146.762 72.926 146.446 72.414C146.129 71.902 146.288 71.2246 146.799 70.9086C147.31 70.5936 147.576 71.1247 147.392 72.0897C147.207 73.0547 147.022 74.8566 146.98 76.0946C146.937 77.3326 146.496 78.3451 145.998 78.3451C144.544 78.3451 136.937 71.6448 137.617 70.9638C137.958 70.6238 137.599 70.3408 136.82 70.3368C135.044 70.3268 132.5 65.3613 134.247 65.3153C134.883 65.2983 134.607 64.8203 133.633 64.2533C132.659 63.6863 132.123 62.8006 132.442 62.2846C132.761 61.7676 132.346 61.3456 131.521 61.3456C130.696 61.3456 129.7 60.8253 129.308 60.1903C128.865 59.4753 129.033 59.3074 129.748 59.7504C132.209 61.2704 130.729 58.9932 127.236 55.8852C124.893 53.8002 123.526 51.6693 123.452 49.9833C123.389 48.5323 123.54 47.3451 123.788 47.3451C124.036 47.3451 126.862 50.1581 130.068 53.5951C133.273 57.0331 135.896 59.3154 135.899 58.6664C135.901 58.0184 135.287 56.8725 134.535 56.1205C133.782 55.3675 132.829 53.6483 132.417 52.2983C132.004 50.9493 131.001 49.0866 130.187 48.1586C129.373 47.2306 129.011 45.9822 129.38 45.3832C129.75 44.7852 129.681 44.3604 129.227 44.4394C127.174 44.7954 126.534 44.2223 127.904 43.2543C129.033 42.4553 129.095 42.0674 128.154 41.6864C127.466 41.4074 126.904 40.0973 126.904 38.7753C126.904 36.9603 126.02 36.0031 123.297 34.8651C121.313 34.0361 119.339 33.5752 118.91 33.8412C118.48 34.1062 118.191 33.5414 118.266 32.5844C118.37 31.2614 119.584 30.7261 123.343 30.3451C128.051 29.8681 128.198 29.7632 126.52 28.0952C124.005 25.5942 121.717 25.9177 117.347 29.3897C115.24 31.0647 110.903 33.8272 107.71 35.5292C105.81 36.5418 102.44 40.3451 100.345 40.3451C99.4206 40.3451 99.0764 40.8154 99.4984 41.5004C99.9204 42.1824 99.7754 42.3845 99.1434 41.9935C98.5554 41.6305 97.8462 41.8982 97.5672 42.5892C97.0659 43.8338 95.4988 45.3451 94.7394 45.3451C93.8706 45.3451 91.8456 45.8452 90.9743 46.8451C90.6997 47.1602 83.8786 54.4416 82.7272 56.4902C76.7636 67.0993 81.3553 59 78.0485 64.7274C77.8535 65.3424 77.5682 66.5201 77.4152 67.3451C77.2304 68.3417 75.6606 73.3768 75.0544 73.7518C74.5694 74.0508 74.2973 75.4317 74.4503 76.8207C74.9055 80.9697 72.5035 81.0918 73.1081 80.7181C74.0711 80.1231 73.6673 83.3282 72.5553 85.1112C69.7582 89.5931 68.7026 87.5307 68.8713 94.0385C68.8893 94.6955 68.0063 95.8603 66.9093 96.6283C65.8133 97.3963 65.2133 98.3224 65.5763 98.6854C65.9393 99.0484 65.9365 99.3451 65.5705 99.3451C65.2035 99.3451 64.1165 98.5344 63.1535 97.5434C-103.176 153.922 111.414 248.307 113.438 257.502ZM78.9782 179.599C78.8522 181.384 78.6524 184.195 78.5334 185.845C78.4144 187.495 78.8943 189.834 79.5993 191.043C80.4593 192.517 80.5394 193.452 79.8434 193.882C79.1434 194.315 79.1862 194.981 79.9772 195.934C80.6212 196.71 80.8135 197.345 80.4035 197.345C79.9935 197.345 80.227 198.03 80.922 198.868C81.995 200.161 81.9001 200.284 80.2941 199.681C78.6571 199.066 78.5781 199.186 79.7101 200.579C80.8421 201.972 80.7473 202.117 78.9963 201.659C77.8843 201.368 76.3121 201.793 75.5021 202.603C74.2061 203.9 74.4105 204.433 77.2165 207.066C83.0365 212.526 86.5431 212.396 86.3551 206.725C86.2841 204.587 86.7691 202.95 87.5641 202.645C88.2941 202.365 88.643 201.733 88.338 201.24C88.034 200.748 88.2624 200.345 88.8444 200.345C89.4264 200.345 89.8503 200.008 89.7853 199.595C89.4723 197.615 90.0331 196.996 90.9171 198.345C91.6111 199.404 91.7184 198.816 91.2794 196.345C90.6604 192.854 83.1441 179.62 80.5661 177.48C79.4731 176.573 79.1622 176.988 78.9782 179.599ZM95.465 215.244C94.707 216.471 95.7875 225.539 96.9065 227.351C97.4905 228.295 98.5915 227.922 101.284 225.869C104.403 223.49 104.86 222.608 104.728 219.235C104.589 215.693 104.329 215.345 101.822 215.345C100.307 215.345 98.4002 215.089 97.5862 214.777C96.7722 214.464 95.817 214.675 95.465 215.244Z" />
  </symbol>
  <g fill="hsla(136, 0%, 0%, 0.9)" stroke="hsla(136, 0%, 0%, 0.2)" >
    <use xlink:href='#silhouette' height="100vh"/>
    <use xlink:href='#realness' height="100vh"/>
    <use xlink:href='#search' height="100vh"/>
    <use xlink:href='#hamburger' height="100vh"/>
    <use xlink:href='#add' height="100vh"/>
    <use xlink:href='#remove' height="100vh"/>
    <use xlink:href='#finished' height="100vh"/>
    <use xlink:href='#working' height="100vh"/>
    <use xlink:href='#create-event' height="100vh"/>
  </g>
</svg>
