 <svg version="1.1" xmlns="http://www.w3.org/2000/svg" xmlns:xlink="http://www.w3.org/1999/xlink" preserveAspectRatio="xMinYMin meet">
  <symbol id="silhouette" viewBox="0 0 16 16" preserveAspectRatio="xMidYMid slice">
    <path d="m14 12.5c-1-.4-2.4-1.5-4.5-1.9.5-.6 1-1.5 1.4-2.6.2-.6.2-1.2.2-1.9 0-.6.1-1.5 0-1.9-.5-1.7-1.7-2.2-3.1-2.2s-2.6.5-3 2.2c-.1.5 0 1.4 0 1.9 0 .8 0 1.3.2 1.9.4 1.1.8 2 1.4 2.6-2.2.4-3.6 1.4-4.6 1.9-2 .9-2 1.9-2 1.9v1.6h16v-1.6c0-.1 0-1-2-1.9z"/>
  </symbol>
  <symbol id="realness" viewBox="0 0 192 192">
    <rect fill-opacity=".73" fill="#5A585A" width="88.615" height="53.76" rx="8"/>
    <rect fill-opacity=".69" fill="#4FBF6D" x="103.385" width="88.615" height="53.76" rx="8"/>
    <rect fill-opacity=".69" fill="#4FBF6D" y="69.12" width="88.615" height="53.76" rx="8"/>
    <rect fill-opacity=".8" fill="#52A0D1" x="103.385" y="69.12" width="88.615" height="53.76" rx="8"/>
    <rect fill-opacity=".8" fill="#52A0D1" y="138.24" width="88.615" height="53.76" rx="8"/>
    <rect fill-opacity=".8" fill="#EC364C" x="103.385" y="138.24" width="88.615" height="53.76" rx="8"/>
  </symbol>
  <symbol id="search" viewBox="0 0 192 192">
    <path d="M74.764.21C33.67.21.21 33.668.21 74.763s33.46 74.555 74.555 74.555c17.98 0 34.55-6.51 47.444-17.156h.212l59.305 59.305 9.743-9.743-59.305-59.305v-.212c10.646-12.894 17.156-29.465 17.156-47.444C149.319 33.67 115.859.21 74.764.21zm0 13.555c33.77 0 61 27.23 61 61 0 33.768-27.23 60.998-61 60.998-33.77 0-61-27.23-61-60.999 0-33.77 27.23-61 61-61z"/>
  </symbol>
  <symbol id="hamburger" viewBox="0 0 192 192">
    <rect id="top-bun" x="0" y="0" width="192" height="32" rx="8"></rect>
    <rect id="patty" x="0" y="80" width="192" height="32" rx="8"></rect>
    <rect id="bottom-bun" x="0" y="160" width="192" height="32" rx="8"></rect>
  </symbol>
  <symbol id="heart" viewBox="0 0 92 84">
    <path d="M67 35.2h-2.6v11.6H52.7v2.5h11.7V61h2.5V49.3h11.7v-2.5H66.9V35.2z"/>
    <path d="M83.5 30.2a25.4 25.4 0 0 0-2.3-2 21.4 21.4 0 0 0 .7-5.5c0-11.8-9.6-21.4-21.5-21.4A21.3 21.3 0 0 0 48.2 5a21.4 21.4 0 0 0-6.5 7.3A21.4 21.4 0 0 0 35 5 21.3 21.3 0 0 0 23 1.3 21.4 21.4 0 0 0 1.4 22.7 21.4 21.4 0 0 0 4.7 34l.8 1.2.5.7 34.6 46a1.3 1.3 0 0 0 2 0l9.5-12.5c4 2.6 8.7 4 13.5 4a25.1 25.1 0 0 0 17.9-7.5 25.1 25.1 0 0 0 0-35.7zm-53.3-18c-.4.6-1.1.8-1.8.4a11.4 11.4 0 0 0-5.8-1.6A11.4 11.4 0 0 0 12 26.7a1.3 1.3 0 1 1-2.3 1 13.9 13.9 0 0 1-1-5.3 14 14 0 0 1 21-12 1.3 1.3 0 0 1 .5 1.8zm35.4 58.6a22.7 22.7 0 1 1 0-45.5 22.7 22.7 0 0 1 0 45.5z"/>
  </symbol>
  <symbol id="add" viewBox="0 0 114 114">
    <path d="M16.695 16.695c-22.26 22.26-22.26 58.35 0 80.61 22.26 22.26 58.35 22.26 80.61 0 22.26-22.26 22.26-58.35 0-80.61-22.26-22.26-58.35-22.26-80.61 0zm72.832 72.833c-17.964 17.962-47.09 17.963-65.054 0-17.964-17.964-17.964-47.09 0-65.055 17.964-17.964 47.09-17.964 65.054 0 17.964 17.965 17.964 47.09 0 65.055zm0 0"/>
    <path d="M82.364 51.364H62.636V31.636a5.636 5.636 0 0 0-11.272 0v19.728H31.636a5.636 5.636 0 0 0 0 11.272h19.728v19.728a5.636 5.636 0 0 0 11.272 0V62.636h19.728a5.636 5.636 0 0 0 0-11.272zm0 0"/>
  </symbol>
  <symbol id="remove" viewBox="0 0 114 114">
    <path d="M16.695 16.695c-22.26 22.26-22.26 58.35 0 80.61 22.26 22.26 58.35 22.26 80.61 0 22.26-22.26 22.26-58.35 0-80.61-22.26-22.26-58.35-22.26-80.61 0zm71.978 71.98c-17.769 17.767-46.578 17.767-64.346 0-17.77-17.77-17.77-46.58 0-64.348 17.769-17.77 46.577-17.77 64.347 0 17.768 17.77 17.768 46.578 0 64.347zm0 0"/>
    <path d="M83.273 62H31.727C28.564 62 26 59.538 26 56.5s2.564-5.5 5.727-5.5h51.546C86.436 51 89 53.462 89 56.5S86.436 62 83.273 62zm0 0"/>
  </symbol>
  <symbol id="finished" viewBox="0 0 17 17">
    <path d="M2.585 2.445a8.444 8.444 0 1 0 11.941 11.94A8.444 8.444 0 0 0 2.585 2.444zm10.747 10.747A6.755 6.755 0 1 1 3.78 3.638a6.755 6.755 0 0 1 9.552 9.554z"/>
    <path d="M7.77 12.505a.854.854 0 0 1-.557-.206l-2.99-2.57a.854.854 0 0 1 1.113-1.296l2.258 1.94L11.33 4.77a.854.854 0 1 1 1.422.948L8.48 12.125a.855.855 0 0 1-.71.38z"/>
  </symbol>
  <symbol id="download" viewBox="0 0 512 512">
    <path d="M78.006 73.782C12.166 137.849-14.09 232.396 9.285 321.239c23.375 88.843 92.763 158.226 181.608 181.594 88.845 23.368 183.39-2.897 247.452-68.743 97.783-99.795 96.968-259.719-1.826-358.513-98.794-98.794-258.717-99.608-358.513-1.825v.03zM402.314 398.09c-51.473 51.63-126.6 71.838-197.03 53C134.857 432.25 79.85 377.234 61.027 306.8c-18.824-70.433 1.401-145.556 53.041-197.019 79.652-79.377 208.538-79.259 288.044.264 79.506 79.523 79.597 208.409.203 288.044z"/>
    <path d="M282.552 249.54l18.782-17.515c10.117-9.435 25.968-8.881 35.403 1.237l1.366 1.465c9.435 10.118 8.882 25.968-1.236 35.403l-62.287 58.083c-5.313 4.956-12.209 7.156-18.925 6.662-6.717.494-13.612-1.706-18.925-6.662l-62.287-58.083c-10.118-9.435-10.671-25.285-1.236-35.403l1.366-1.465c9.435-10.118 25.286-10.672 35.403-1.237l20.474 19.093V104.204c0-13.835 11.215-25.05 25.049-25.05h2.004c13.834 0 25.049 11.215 25.049 25.05V249.54zM363.71 356.681v36.102a8 8 0 0 1-8 8H158.294a8 8 0 0 1-8-8V356.68a8 8 0 0 1 8-8H355.71a8 8 0 0 1 8 8z"/>
  </symbol>
  <symbol id="camera" viewBox="0 0 1000 1000" preserveAspectRatio="xMidYMid slice">
    <path class="st0" d="M903,323.6v492c0,14.1-11.3,25.5-25.5,25.5H145c-14.1,0-25-11.3-25-25.5v-492    c0-14.1,10.9-25.6,25-25.6h181.9l51.7-115h265.3l41.4,115h192.2C891.7,298,903,309.4,903,323.6z" />
    <circle class="st0" cx="511.3" cy="559.2" r="156.3" />
  </symbol>
  <symbol id="working" viewBox="0 0 430 130" preserveAspectRatio="xMidYMid meet">
    <ellipse ry="64" rx="64" cy="64" cx="64"/>
    <ellipse ry="64" rx="64" cy="64" cx="213"/>
    <ellipse ry="64" rx="64" cy="64" cx="365"/>
  </symbol>
  <g fill="hsla(136, 0%, 0%, 0.9)" stroke="hsla(136, 0%, 0%, 0.2)" >
    <use xlink:href='#silhouette' height="100vh"/>
    <use xlink:href='#realness' height="100vh"/>
    <use xlink:href='#search' height="100vh"/>
    <use xlink:href='#hamburger' height="100vh"/>
    <use xlink:href='#add' height="100vh"/>
    <use xlink:href='#remove' height="100vh"/>
    <use xlink:href='#finished' height="100vh"/>
    <use xlink:href='#working' height="100vh"/>
  </g>
</svg>
