 <svg version="1.1" xmlns="http://www.w3.org/2000/svg" xmlns:xlink="http://www.w3.org/1999/xlink" preserveAspectRatio="xMinYMin meet">
  <symbol id="silhouette" viewBox="0 0 16 16" preserveAspectRatio="xMidYMax">
    <path d="M14,12.5c-1-0.4-2.4-1.5-4.5-1.9c0.5-0.6,1-1.5,1.4-2.6c0.2-0.6,0.2-1.2,0.2-1.9c0-0.6,0.1-1.5,0-1.9
         C10.6,2.5,9.4,2,8,2C6.6,2,5.4,2.5,5,4.2c-0.1,0.5,0,1.4,0,1.9c0,0.8,0,1.3,0.2,1.9c0.4,1.1,0.8,2,1.4,2.6C4.4,11,3,12,2,12.5
         c-2,0.9-2,1.9-2,1.9V16l16,0v-1.6C16,14.3,16,13.4,14,12.5z"/>
  </symbol>
  <symbol id="realness" viewBox="0 0 192 192">
    <rect id="wat" fill-opacity=".73" fill="#EC364C" width="88.615" height="53.76" rx="8"/>
    <rect id="relations" fill-opacity=".69" fill="#52A0D1" x="103.385" width="88.615" height="53.76" rx="8"/>
    <rect id="feed" fill-opacity=".69" fill="#52A0D1" y="69.12" width="88.615" height="53.76" rx="8"/>
    <rect id="events" fill-opacity=".8" fill="#4FBF6D" x="103.385" y="69.12" width="88.615" height="53.76" rx="8"/>
    <rect id="groups" fill-opacity=".8" fill="#4FBF6D" y="138.24" width="88.615" height="53.76" rx="8"/>
    <rect id="profile" fill-opacity=".8" fill="#5A585A" x="103.385" y="138.24" width="88.615" height="53.76" rx="8"/>
  </symbol>
  <symbol id="search" viewBox="0 0 192 192">
    <path d="M74.764.21C33.67.21.21 33.668.21 74.763s33.46 74.555 74.555 74.555c17.98 0 34.55-6.51 47.444-17.156h.212l59.305 59.305 9.743-9.743-59.305-59.305v-.212c10.646-12.894 17.156-29.465 17.156-47.444C149.319 33.67 115.859.21 74.764.21zm0 13.555c33.77 0 61 27.23 61 61 0 33.768-27.23 60.998-61 60.998-33.77 0-61-27.23-61-60.999 0-33.77 27.23-61 61-61z"/>
  </symbol>
  <symbol id="hamburger" viewBox="0 0 192 192">
    <rect id="top-bun" x="0" y="0" width="192" height="32" rx="8"></rect>
    <rect id="patty" x="0" y="80" width="192" height="32" rx="8"></rect>
    <rect id="bottom-bun" x="0" y="160" width="192" height="32" rx="8"></rect>
  </symbol>
  <symbol id="heart" viewBox="0 0 92 84">
    <path d="M67 35.2h-2.6v11.6H52.7v2.5h11.7V61h2.5V49.3h11.7v-2.5H66.9V35.2z"/>
    <path d="M83.5 30.2a25.4 25.4 0 0 0-2.3-2 21.4 21.4 0 0 0 .7-5.5c0-11.8-9.6-21.4-21.5-21.4A21.3 21.3 0 0 0 48.2 5a21.4 21.4 0 0 0-6.5 7.3A21.4 21.4 0 0 0 35 5 21.3 21.3 0 0 0 23 1.3 21.4 21.4 0 0 0 1.4 22.7 21.4 21.4 0 0 0 4.7 34l.8 1.2.5.7 34.6 46a1.3 1.3 0 0 0 2 0l9.5-12.5c4 2.6 8.7 4 13.5 4a25.1 25.1 0 0 0 17.9-7.5 25.1 25.1 0 0 0 0-35.7zm-53.3-18c-.4.6-1.1.8-1.8.4a11.4 11.4 0 0 0-5.8-1.6A11.4 11.4 0 0 0 12 26.7a1.3 1.3 0 1 1-2.3 1 13.9 13.9 0 0 1-1-5.3 14 14 0 0 1 21-12 1.3 1.3 0 0 1 .5 1.8zm35.4 58.6a22.7 22.7 0 1 1 0-45.5 22.7 22.7 0 0 1 0 45.5z"/>
  </symbol>
  <symbol id="add" viewBox="0 0 114 114">
    <path d="M16.695 16.695c-22.26 22.26-22.26 58.35 0 80.61 22.26 22.26 58.35 22.26 80.61 0 22.26-22.26 22.26-58.35 0-80.61-22.26-22.26-58.35-22.26-80.61 0zm72.832 72.833c-17.964 17.962-47.09 17.963-65.054 0-17.964-17.964-17.964-47.09 0-65.055 17.964-17.964 47.09-17.964 65.054 0 17.964 17.965 17.964 47.09 0 65.055zm0 0"/>
    <path d="M82.364 51.364H62.636V31.636a5.636 5.636 0 0 0-11.272 0v19.728H31.636a5.636 5.636 0 0 0 0 11.272h19.728v19.728a5.636 5.636 0 0 0 11.272 0V62.636h19.728a5.636 5.636 0 0 0 0-11.272zm0 0"/>
  </symbol>
  <symbol id="remove" viewBox="0 0 114 114">
    <path d="M16.695 16.695c-22.26 22.26-22.26 58.35 0 80.61 22.26 22.26 58.35 22.26 80.61 0 22.26-22.26 22.26-58.35 0-80.61-22.26-22.26-58.35-22.26-80.61 0zm71.978 71.98c-17.769 17.767-46.578 17.767-64.346 0-17.77-17.77-17.77-46.58 0-64.348 17.769-17.77 46.577-17.77 64.347 0 17.768 17.77 17.768 46.578 0 64.347zm0 0"/>
    <path d="M83.273 62H31.727C28.564 62 26 59.538 26 56.5s2.564-5.5 5.727-5.5h51.546C86.436 51 89 53.462 89 56.5S86.436 62 83.273 62zm0 0"/>
  </symbol>
    <symbol id="finished" viewBox="0 0 17 17">
    <path d="M2.585 2.445a8.444 8.444 0 1 0 11.941 11.94A8.444 8.444 0 0 0 2.585 2.444zm10.747 10.747A6.755 6.755 0 1 1 3.78 3.638a6.755 6.755 0 0 1 9.552 9.554z"/>
    <path d="M7.77 12.505a.854.854 0 0 1-.557-.206l-2.99-2.57a.854.854 0 0 1 1.113-1.296l2.258 1.94L11.33 4.77a.854.854 0 1 1 1.422.948L8.48 12.125a.855.855 0 0 1-.71.38z"/>
  </symbol>
  <symbol id="working" viewBox="0 0 430 130" preserveAspectRatio="xMinYMin meet">
    <ellipse ry="64" rx="64" cy="64" cx="64"/>
    <ellipse ry="64" rx="64" cy="64" cx="213"/>
    <ellipse ry="64" rx="64" cy="64" cx="365"/>
  </symbol>
  <g fill="hsla(136, 0%, 0%, 0.9)" stroke="hsla(136, 0%, 0%, 0.2)" >
    <use xlink:href='#silhouette' height="100vh"/>
    <use xlink:href='#realness' height="100vh"/>
    <use xlink:href='#search' height="100vh"/>
    <use xlink:href='#hamburger' height="100vh"/>
    <use xlink:href='#handshake' height="100vh"/>
    <use xlink:href='#add' height="100vh"/>
    <use xlink:href='#remove' height="100vh"/>
    <use xlink:href='#finished' height="100vh"/>
    <use xlink:href='#working' height="100vh"/>
  </g>
</svg>
