<svg id="16282281824-posters-1720553470329" itemscope="" itemtype="/posters"
  itemid="/+16282281824/posters/1720553470329" viewBox="0 0 769 512" preserveAspectRatio="xMidYMid meet" tabindex="0"
  class="animate landscape" xmlns="http://www.w3.org/2000/svg">
  <!---->
  <defs class="graphic">
    <pattern id="16282281824-posters-1720553470329-pattern" width="769" height="512" viewBox="0 0 769 512"
      patternUnits="userSpaceOnUse" preserveAspectRatio="xMidYMid meet">
      <rect itemprop="background" width="769" height="512" tabindex="-1"
        id="16282281824-posters-1720553470329-background" fill-opacity="1"
        fill="url(#16282281824-posters-1720553470329-radial-background)"></rect>
      <!---->
      <path id="16282281824-posters-1720553470329-light"
        d="M43 1c0 4 9 5 13 2q6-4-5-3zm69 0c0 3 9 5 12 3q6-4-4-4zm648 4c-9 3-5 18 5 17h4V4h-3zm-64 0-4 1q-5-1-6 5a9 9 0 0 0 17 7 9 9 0 0 0-7-13m-76 2c-6 5-3 16 4 16q12 0 12-9c0-8-9-12-16-7M487 7q-10 6-3 15 9 8 15-3c4-7-5-15-12-12m64 2a9 9 0 1 0 14 13 9 9 0 0 0-14-13M416 9c-5 3-5 10-1 13a9 9 0 1 0 1-13m-65 0q-11 6-3 14c6 7 17 3 17-7 0-4-9-9-14-7m-71 3a9 9 0 1 0 13 0q-6-6-13 0M80 12a9 9 0 0 0-5 15 9 9 0 1 0 5-15m64 1a9 9 0 0 0 10 15q6-2 5-8c0-7-9-11-15-7M8 13q-9 8-1 15a9 9 0 1 0 1-15m713 16q-5 3-6 8l-3 7q-7 10 5 13l8 5c7 6 10 5 19-4q9-6 5-12l-2-6q0-11-11-8l-5-1q-5-3-10-2m-206 2q-5 2-5 8l-4 7-2 6q2 6 9 7 3 0 8 5c6 6 9 5 17-3 7-7 8-8 6-12l-2-6q0-3-3-7c-2-4-2-4-8-4l-9-1q-4-3-7 0m66 1-3 6-3 6q-9 11 7 14l4 2 3 4q6 8 17-3 11-9 5-14l-1-5q-1-11-11-10-3 1-7-1-8-4-11 1m68 0q-3 2-3 5l-2 7q-8 11 6 15 4 0 6 3 4 5 10 5c4 0 16-13 16-16l-3-12q-1-7-11-8l-8-1q-5-3-11 2m-203-1q-4 3-5 9l-2 6-3 5q2 6 8 8 3 0 7 4c7 7 10 6 19-2q9-9 4-14l-1-6q0-9-10-9-4 1-7-1zm-69 3-3 5q0 3-3 7-5 14 6 15l6 4c7 7 10 7 18-1l6-5q3-1 2-8l-4-9q-1-9-9-8-5 1-7-1-7-2-12 1m-69 1-2 4-3 9q-3 6-2 8c0 2 6 6 8 6q2 0 6 5 9 9 16 0l7-7q5-4 2-7-2-3-3-11-3-8-11-7h-6q-9-4-12 0m-136 2q-3 2-3 5t-3 7c-5 7-2 15 7 15q3 0 6 4 8 8 15 1l7-7c3 0 4-6 2-10l-3-8q0-8-10-7l-8-1q-6-4-10 1m68 0-2 5-3 7q-7 10 4 14 3 0 7 3 9 9 17 2l5-4q6-2 3-13l-3-10q-1-6-10-4l-6-1q-7-4-12 1M37 37q-3 2-5 9l-3 5c-4 6 0 14 6 14q4 0 7 4c7 7 10 6 19-2q9-10 5-13l-2-6q-1-11-10-10l-9-1c-5-2-5-2-8 0m66 1-2 5q0 3-3 7-7 12 7 14l6 3c6 8 9 8 18 0q10-9 6-15l-2-7q0-9-10-8-5 1-7-1c-3-2-11-1-13 2m555 3c-2 1-5 8-5 9l3 1 5 2q5 4 8-2 3-7-4-9l-4-1zm67 1-2 4q-4 4 3 5l5 3q2 4 6-1 5-10-3-11l-6-1q-1-2-3 1m-275 3q-4 6 0 7l6 3q4 5 7-1 5-3 2-7l-1-3q-1-3-3-1-1 1-4-1-4-3-7 3m69-3-2 5q-3 5 3 5l5 3q3 4 5 0 7-10-2-12l-6-2zm67 2q-3 7 3 7l4 3q6 3 8-6 1-4-5-5l-6-2q-1-1-4 3m-203 3q-4 6 1 7l5 2q8 5 8-7 1-5-4-4l-6-1q-1-2-4 3m-137 2q-4 8 3 8l3 2q3 5 7-1c4-4 2-13-3-11l-3-1q-5-4-7 3m-69 1q-3 7 3 7l4 3 3 2 2-3c5-5 3-12-2-12l-4-1q-3-3-6 4m138-3q-4 7 0 9l5 3q4 3 7-2 5-9-3-10l-3-1q-4-2-6 1m-205 3q-6 7 1 7 2 0 5 3 3 5 6-1 5-8-2-11l-6-1q-1-1-4 3m-68-1-2 4q-5 4 3 5 4 0 5 3 1 5 4 1c5-6 5-13-1-13l-6-2q-4 0-3 2m717 25c-7 3-6 13 3 16q8 4 7-8 1-14-10-8m-136 0c-6 1-8 11-3 15 8 7 20-3 15-12a15 15 0 0 0-12-3m67 0a9 9 0 1 0 10 16 9 9 0 0 0-10-16m-138 2a9 9 0 1 0 12 14 9 9 0 0 0-12-14m-135 0c-5 3-7 11-2 14 7 7 16 4 16-5q-2-13-14-9m67 1c-7 7-3 16 6 16a9 9 0 1 0-6-16m-133 0c-4 1-8 9-6 13q6 8 14 4c10-6 4-20-8-17m-69 1c-6 2-7 10-3 15q8 6 15-1c6-7-3-18-12-14m-69 2c-5 2-6 10-2 14q12 7 17-6c1-8-8-13-15-8M79 80a9 9 0 1 0 11 4q-3-6-11-4m67 0a10 10 0 1 0 10 15c7-7 0-18-10-15M8 81c-8 5-6 17 4 18q10 0 10-9-2-13-14-9m710 19q-3 3-3 7l-2 5q-7 9 6 14l7 4q6 9 17-2c7-7 8-9 6-14l-2-6q1-8-10-8l-7-1q-6-4-12 1m-271-1q-5 3-6 9l-3 7q-6 5 0 9 2 3 6 4l7 4a10 10 0 0 0 17-1l2-2q10-6 5-12l-2-8q0-8-11-8l-12-3zm65 1-3 7q0 4-3 7c-4 5-1 12 7 13l7 5q8 8 17-1l6-6v-10l-1-5q-1-10-10-9l-8-1q-7-4-12 0m69 0-3 5-3 8q-8 11 8 14l6 5q7 8 13 0l8-7q5-4 2-8l-2-6q0-12-11-11l-8-1q-4-2-10 1m67 1-2 6-1 5c-7 4-4 13 5 15q5 2 7 5 6 6 12 2l4-4 4-3q6-5 4-11l-3-7q0-10-10-9l-7-1c-2-2-11-1-13 2m-248-1-4 2h-9q-6-4-10 1-3 2-3 5l-2 5q-8 10 1 15l6 2 5 4q10 8 16 0l4-5q6-4 5-8-4-6 0-13l3-5-3-2q-3-3-9-1m-89 3q-6 3-6 8l-2 6q-5 5-2 9 4 4 9 5l6 4q6 10 17-2c7-7 8-9 6-14l-2-7q-1-10-10-8l-8-1c-4-2-4-2-8 0m-70 2q-3 2-3 6l-3 6q-7 11 5 14l8 5q7 9 17-2c8-8 8-9 7-13l-3-8q-1-10-10-9-4 1-8-1-8-3-10 2m-202-1q-6 3-7 10l-1 3-2 4q-4 8 7 12l8 5c6 6 8 5 17-3 7-7 7-9 5-14l-2-7q0-8-11-8l-6-1q-2-2-8-1m67 1q-5 2-5 9l-3 6-3 5c0 2 7 8 10 8l7 5c6 6 8 6 17-3q10-9 6-14l-2-6q1-10-10-9l-7-1q-5-3-10 0m65 1-2 4-3 8q-6 11 5 14l9 5c6 6 8 6 18-4q9-8 5-11l-2-5v-5q-2-7-10-7h-8q-9-4-12 1m555 3-1 2-1 3q-4 3 1 5l5 3q4 5 7-1 4-9-2-11l-6-1zm-276 4-2 3c-3 0 0 5 3 5l6 3 2 2 3-3 4-3-2-4q-1-5-4-5l-5-1q-3-3-5 3m70-3q-6 12 2 11l3 2c4 3 9-3 8-9q0-4-5-3l-4-1zm67 2-2 4-1 2q0 3 3 2l6 3 3 3 3-3q6-10-3-12l-6-1q-1-1-3 2m70-2c-2 1-5 7-4 8q0 2 3 2l6 2c4 4 8-1 7-7q0-4-3-4l-5-1zm-273 3-2 4q-4 6 2 6l5 2c4 5 10 0 8-7q0-5-5-5l-6-1q-1-1-2 1m-70 4q-6 8 2 7l4 3 3 2 3-3c5-4 4-12-2-12l-6-1q-1-2-4 4m-67-2-1 2-3 6 3 1 5 3q5 6 8 0c4-4 3-13-2-12q-3 1-5-1-3-2-5 1m-69 3q-5 7 0 8l6 3q4 5 7-2 5-9-4-11l-6-1zm-136-2-2 4q-4 6 3 6l4 3q3 4 6 0c5-5 3-12-2-13l-6-1zm68 3q-6 8 0 7 4 0 6 3 3 6 6 0 6-10-2-13h-6q-1-1-4 3m514 23q-11 7-3 16a9 9 0 1 0 3-16m65 2c-7 6-4 15 6 15 9 0 12-8 5-14q-5-7-11-1m69 0c-6 5-3 13 5 14q8 3 6-9v-7l-4-1q-5-1-7 3m-341 1c-8 5-6 15 3 17q7 0 11-6c4-8-6-17-14-11m70-1q-11 6-4 15 9 8 17-3c3-7-5-15-13-12m65 1c-7 5-2 16 6 16q10-1 10-10c-1-7-10-11-16-6m-202 1c-2 1-6 8-5 10 3 10 17 11 19 0 2-7-7-13-14-10m-135 1c-2 1-7 7-7 9q1 5 5 8c5 4 15-2 15-8s-7-11-13-9m66 0q-5 4-4 10c3 10 19 9 19-2 0-7-9-11-15-8m-202 1q-7 3-7 9a9 9 0 1 0 7-8m65 0c-4 3-6 11-2 14a9 9 0 1 0 2-14M7 151q-7 9 3 16 11 2 12-9c0-8-9-12-15-7m646 15q-6 1-7 7 0 5-3 8c-4 6-1 13 5 13q5 0 9 5 7 9 19-3 9-8 4-12l-1-5q0-12-11-11l-8-1q-4-3-7-1m-209 3q-3 2-3 5l-1 6c-5 8-5 8-4 11q3 5 9 5l6 3c2 3 8 6 10 6l16-14-2-6-2-8q1-8-10-8l-9-1q-5-4-10 1m68-1-3 6q0 4-3 8-7 10 9 14l5 3c7 6 10 6 18-1q11-9 6-14l-2-6q0-9-9-9l-8-1q-7-4-13 0m68 1-2 5-3 8q-5 7-2 9 5 4 11 5l4 3q7 11 19-3c7-7 7-7 4-13q-2-4-1-6c0-1-3-8-5-8h-5l-8-1q-7-4-12 1m138-1-3 5-2 7q-7 10 6 14l8 5q6 7 15-2c8-8 8-9 7-11l-2-8q-2-9-5-10l-6-1-11-1q-5 0-7 2m-408 3q-4 2-4 6c0 2-2 8-5 10q-5 7 8 12l4 1c0 1 10 7 12 7q3 0 9-7l7-7-2-5-3-9q1-8-10-7l-7-1q-3-3-9 0m67 0q-3 3-3 7l-3 7c-5 5 0 14 8 14l6 4c6 6 9 6 18-3 8-7 8-7 5-13l-3-8q0-8-9-7l-8-2q-7-3-11 1m-203 0q-5 3-5 8l-3 6q-7 11 6 15l7 5q8 8 18-3 11-9 6-11l-2-8q-2-13-11-10l-8-1q-6-3-8-1m67 2q-3 2-3 6l-3 7q-7 9 4 13l9 5c6 6 9 6 17-2s8-6 5-20q-3-11-11-9l-7-1q-7-4-11 1m-204 0q-5 4-5 9l-2 6q-6 10 5 14 6 0 8 4 8 9 16-1c10-9 10-8 7-15l-2-8q0-7-10-7l-8-2zm68 0c-1 0-4 6-4 10l-1 3q-9 10 3 15l9 5c6 6 9 6 17-3q10-9 6-13l-2-7q0-9-10-9-4 2-7-1zm619 7q-5 7 1 7l4 2q5 6 9-1 6-9-5-11l-7-2zm-67-3-1 2-1 3q-4 4 0 5l5 3c5 3 5 3 8 0 3-4 2-12-1-11l-6-1zm-70 4q-5 8 2 8l4 2c3 5 9-1 9-8q0-4-6-4l-6-1zm-137 1q-4 6 2 7l5 2q3 4 5 0c2-2 3-10 1-10l-3-1-5-1q-3-2-5 3m70-3q-6 9 2 10l3 2q6 4 8-5 0-7-5-7zm-342 4-2 4q-3 6 2 6l5 2q4 6 7 0 4-2 2-7 1-5-5-4l-4-1q-4-3-5 0m68 2q-4 7 0 7l6 3q5 5 6 1l2-3c3-3 1-10-4-10l-5-1q-3-3-5 3m69-1-3 4q-2 3 3 4 3 0 5 3 5 5 6 0l2-3c2-1 0-8-1-8h-3l-4-1q-3-3-5 1m69-1-3 4q-2 3 3 5 3 0 5 3 2 5 6-1 7-10-2-12h-6q-3-2-3 1m-272 0-3 4q-4 6 2 8l6 3q2 5 6-2c3-5 2-12-2-11l-6-1q-3-3-3-1m-71 5q-5 8 1 7l6 2q7 4 7-8 1-5-4-4l-5-1q-2 0-5 4m718 22c-8 5-4 17 5 17h5v-17l-4-1zm-137 2c-9 4-5 16 5 16 9 0 13-11 5-16q-5-4-10 0m69-1c-8 4-6 15 3 17q4 1 7-3c8-8-1-19-10-14m-208 3c-8 9 3 21 13 14a9 9 0 0 0 3-12c-1-2-7-5-10-5zm69-1a9 9 0 1 0 13 1q-7-6-13-1m-135 0q-10 11 2 17 7 3 12-6c5-7-7-16-14-11m-66 1c-5 2-10 11-6 11l1 1q1 5 9 5a9 9 0 0 0 4-17zm-139 4c-9 9 4 21 13 12 6-5 2-15-6-15q-5 0-7 3m67-1a10 10 0 1 0 14 0c-3-3-11-3-14 0m-201 0q-11 7-2 16 9 7 14-3c5-7-4-17-12-13m65 1q-8 9 4 17a10 10 0 1 0-4-17M8 218c-7 3-7 12 0 16a9 9 0 1 0 0-16m710 18-2 6q-1 4-4 7-5 11 4 13 4 0 10 6 7 8 18-3c7-8 7-9 4-15l-2-5q1-2-1-5 0-4-9-3l-7-1q-8-4-11 0m-205 1q-3 1-3 7l-2 5-4 8c0 2 4 7 6 7q7 0 9 4c7 7 10 7 19-1q10-9 6-13l-2-8q0-8-10-8l-9-1q-4-4-10 0m68 1q-3 2-3 5l-2 7q-7 12 7 14l4 2c1 3 7 7 10 7l9-7q10-9 5-13l-1-5q-1-9-8-10-5 1-9-1-8-5-12 1m68-1-3 5-1 6c-6 8-3 16 6 16l6 4q8 8 16-1l6-5q3-2 2-8l-3-8q0-10-10-9l-6-1c-2-2-11-1-13 1m-205 2-3 6-2 6-3 6q2 6 8 8 3 0 8 5 9 8 16-1l5-4c3 0 4-8 2-12l-2-6q-1-10-9-9-5 1-9-1-8-3-11 2m-203 1q-3 3-3 7l-4 8-2 6q2 6 8 7 3 0 7 5 5 4 9 4l8-4 5-5c2 0 4-6 3-9l-3-8q-1-12-11-9-2 1-8-2c-6-3-5-3-9 0m68 1q-3 2-4 6 0 4-3 7-6 10 6 14l8 4q8 9 16 0l7-7c2-3 2-3 0-11l-3-8q0-8-10-5l-7-1q-7-4-10 1m68-1-3 6-3 7q-6 12 8 14l5 3q6 10 17 1l6-6q5-4 2-8l-3-8q-1-11-11-9-4 2-7-1-7-2-11 1m-269 1q-6 1-7 10l-2 4-3 7q1 6 8 8 6 1 7 4c3 6 12 6 17-1q3-4 6-5c2-1 3-7 0-10l-1-6q1-10-10-9l-8-1q-2-2-7-1m65 0q-3 3-4 8l-3 6c-5 7-1 15 7 15l7 4c6 6 9 5 18-4q9-8 5-10l-2-6q0-12-9-11l-10-1q-5-3-9-1m-137 1-4 8-3 7q-6 10 8 13l6 5c6 6 9 6 18-2 7-7 8-9 6-14l-3-7q0-10-10-8l-8-2zm688 7q-5 8 1 7l5 3q3 5 7-1 6-8-2-11l-5-2q-4-3-6 4m-136-1-3 4q-2 5 4 6l4 3q4 4 5 1l3-3c4-4 1-11-4-11l-5-2q-3-3-4 2m68 0-2 4q-3 4 4 5l4 3c2 4 8-1 8-7q0-6-3-4c-2 1-7-1-7-3q-1-3-4 2m-206 3q-4 6 2 7l4 3q4 5 7-1 3-4 2-7-2-7-3-4-1 2-6 0-3-4-6 2m69 0q-4 7 2 7l5 3q2 3 4 0c5-4 4-13-1-13l-6-1q-3-1-4 4m-135-1-2 5q-3 5 2 5l5 2c3 5 10 0 8-7q-1-5-4-4l-5-1q-3-4-4 0m-137 3-3 5q-4 3 2 3l6 3q5 5 7-1 5-11-2-11l-5-1q-4-2-5 2m67 1q-5 7 1 7l6 2 2 2 3-3q4-2 2-5l-1-4q0-2-3-2h-5q-3-2-5 3m-204 2q-6 7 1 7l6 3q5 4 7-4t-4-8l-5-2q-2-2-5 4m68-2-2 4q-2 4 5 5l3 3c3 5 8-1 8-8q0-5-4-5l-5-1q-2-3-5 2m-135 0-1 3-1 2q-4 3 1 4 4 1 6 4l3 2 2-3a7 7 0 0 0-6-12zm578 27c-7 6-3 16 7 16q8 0 8-9c0-9-9-13-15-7m68 0c-7 6-3 15 7 15 8 0 12-10 5-16q-6-5-12 1m69-1c-6 6-2 17 7 16h4v-17l-5-1q-4 0-6 2m-203 0q-6 2-6 9a9 9 0 1 0 11-9zm-137 2c-9 4-6 17 4 17q11 0 9-12c0-5-8-9-13-5m66 1c-8 8 2 20 12 14 8-5 5-16-5-17q-5-1-7 3m-132 0c-3 0-8 6-8 9 0 2 5 8 8 9 4 2 12-3 13-8 1-6-6-11-13-10m-74 3c-4 4-3 13 1 13l2 2c4 4 15-1 15-8 0-9-13-13-18-7m-200-1q-6 4-6 9a10 10 0 1 0 6-9m65 2q-6 6-1 13c4 3 12 4 15 0 8-9-6-22-14-13m69 0c-6 5-2 15 7 15 8 0 12-10 6-15q-6-6-13 0M8 288a9 9 0 1 0 10 15 9 9 0 0 0-10-15m712 15q-5 3-5 9 0 3-3 5c-4 6 0 14 7 14l6 4c7 7 10 6 19-2 6-7 7-9 5-14l-2-6q0-9-10-9l-9-1q-3-3-8 0m-205 1q-4 2-5 9l-3 7q-5 5-2 8 4 5 10 5 3 0 5 4c6 7 9 6 18-2q10-9 6-13l-2-6q0-6-4-9l-7-1-7-1q-3-3-9-1m68 0q-4 3-5 9l-3 6-3 7c1 2 8 7 11 7q3 0 4 3 7 9 16 1c11-9 12-11 9-17l-2-5q-1-7-5-9h-6l-7-1q-4-3-9-1m66 1-2 6-3 8q-3 2-3 5 2 6 8 7 3 0 7 5 9 10 19-3 10-8 6-13l-3-7q-1-11-10-8h-6q-7-4-13 0m-205 2-3 6-2 6-2 9c0 2 6 5 9 5l5 3c7 8 10 8 18 0s9-9 6-13l-2-8q0-11-10-9h-7q-7-4-12 1m-67 2-3 6-2 6c-6 6-2 15 7 15l6 4c6 5 8 5 14 0l7-6q5-4 3-8l-2-6q0-11-10-11l-9-2q-6-3-11 2m-202-1q-6 3-6 9l-3 6q-6 12 5 14 3 0 7 4 10 9 18-1l4-3q5-3 3-10l-2-8q-1-8-11-9-5 1-8-1zm66 2q-3 2-3 5t-3 7l-3 6c0 3 6 9 9 9l7 4q8 10 18-2c8-7 8-8 6-12l-2-7q-1-9-11-10l-8-1q-6-4-10 1m67-1q-2 1-2 5 0 5-3 8-8 10 6 14l8 5c7 6 8 6 18-4 6-6 7-7 4-12l-2-7q0-10-11-9l-7-1c0-2-8-1-11 1m-202 1q-3 1-4 6l-3 7q-7 9 5 15 6 1 7 4 6 9 17 0l5-6q5-4 2-10l-2-7q-1-8-10-8l-8-1c-6-2-6-2-9 0m-71 2-3 7-2 6q-5 6-2 9l9 5 6 4c7 6 10 6 18-3 7-7 8-8 5-12l-2-8q0-9-10-8l-7-1q-6-4-12 1m622 2-1 2-1 3q-4 4 0 5 6 1 7 4t6 0c4-4 3-13-2-12l-5-1q-2-3-4-1m68 1-2 4q-2 4 2 5l5 2q9 6 8-9 0-4-3-3h-6q-3-2-4 1m-273 0-1 3-1 2q-4 4 1 7 4 0 6 3l3 2 3-3c4-3 4-13-1-12q-3 1-6-1t-4-1m136 1-1 3a4 4 0 0 0 2 7l5 2q6 5 7-7 1-6-3-5l-4-1q-4-2-6 1m-68 3-3 4q-3 1 4 2l4 4 2 3 3-2q4-4 3-10c-1-5-11-6-13-1m-273 3q-4 9 0 8l5 2q3 6 7 0 2-2 2-6 1-7-5-6l-5-2q-2-3-4 4m138-3-1 2q-5 5 0 7l5 3q4 3 7-1 5-8-4-10l-5-2zm-274 3-2 5q-4 3 3 4l4 3c0 3 6 2 8-2q3-9-3-10l-6-1q-3-4-4 1m66 2q-4 7 2 6l4 3q4 5 7 0 6-11-2-12l-4-1q-3-3-7 4m137-2q-4 7 1 7 3 0 5 3l3 3 2-3q7-9-1-12h-5q-2-1-5 2m-271 0-1 3-1 2q-4 4 1 5l6 2c5 6 11-2 8-10q-1-2-5-2zm648 25c-6 2-7 11-2 15a9 9 0 1 0 2-15m67 1c-7 6 0 18 9 16 2-1 2-1 2-10v-8h-4zm-272 1q-5 3-5 8a9 9 0 0 0 19 2 10 10 0 0 0-6-11q-2-2-8 1m66 1c-6 5-3 14 4 15a9 9 0 0 0 8-15q-7-6-12 0m69-1c-6 5-2 16 6 16q8-1 9-9c0-7-9-12-15-7m-201 0q-11 6-6 13a9 9 0 1 0 6-13m-138 2c-3 2-6 9-5 12a10 10 0 1 0 5-12m67 1a9 9 0 1 0 14 12c5-9-6-18-14-12m-203 1a9 9 0 1 0 14 9q-3-12-14-9m66 2q-5 5-3 9c5 9 17 8 19-2 1-8-10-14-16-7m-202-1c-8 4-9 14-2 17a10 10 0 1 0 2-17m65 2q-8 10 4 15a9 9 0 1 0-4-15m644 17q-3 2-3 6 0 3-3 7c-5 5-2 13 6 13q2 0 6 5c7 6 10 6 18-2q10-9 6-13l-2-6q0-11-9-10l-11-2q-5-3-8 2m-136-1q-4 3-5 9l-3 7c-3 4-3 4-2 8 1 2 7 5 10 5l5 3q6 6 11 5c8-4 17-16 13-18l-2-6q0-12-12-11l-9-2zm68 0q-5 3-5 9l-2 5q-7 11 6 15 6 1 8 5 6 7 13 1l9-10q3-4 0-8l-1-6q1-10-11-10l-8-1zm-207 3-3 6q0 4-3 8l-3 4c0 2 7 8 11 9l6 3q6 11 18-1c8-7 8-8 5-15l-2-8q0-6-10-6l-8-1q-5-4-11 1m69 0q-3 2-3 7l-1 5c-8 5-3 15 7 15l4 3q5 11 18-1 11-10 6-14l-2-5q1-11-10-10l-8-2q-5-3-11 2m-204 2-4 7-3 6q-4 7 2 13l5 2 7 4c6 6 9 6 18-3l7-7-1-3-3-9c-2-9-2-9-10-9l-8-1q-4-4-10 0m68 0-3 7-3 7c-5 4-1 12 7 13l7 5c6 5 8 5 15-1 10-9 10-9 9-11l-2-10q-3-14-11-10h-7q-7-4-12 0m-203 1q-4 1-5 8l-3 6q-8 10 5 14l9 5q7 8 15-1l6-5q5-5 2-8l-1-5q-2-14-11-13-5 1-9-1l-4-2zm69-1q-4 1-6 8 0 4-3 8-6 9 8 13l7 5q7 8 16-3c8-7 8-9 6-15l-3-8q1-6-8-6l-10-1zm-208 4-3 5q0 4-3 8-4 12 7 13l7 5 8 4q4 0 7-4l5-5c4 0 6-8 4-12l-2-5q0-9-10-9l-8-2q-7-3-12 2m68-1-2 6-2 7q-6 11 6 15l7 4q7 7 15 0l6-6q5-4 2-11l-2-7q0-8-11-8l-6-1c-2-2-10-1-13 1m553 4-2 4q-3 5 2 5l6 3 3 2 2-3q4-2 2-8 0-2-3-2l-6-1q-3-3-4 0m68 2q-4 6 2 7l5 3c4 4 10-4 8-11-2-5-13-4-15 1m-274 1q-4 7 2 7l4 2q2 3 5 2c6-2 6-13-1-13l-5-1q-2-2-5 3m71-3c-5 3-6 11-1 11q3 0 5 3l3 2 3-2q4-3 3-8v-5h-4q-4 2-5-1zm67 1-2 3-1 2q-1 3 2 3l7 4q6 3 7-7 1-6-4-5l-5-1q-4-2-4 1m-205 5q-5 7 1 7l4 2q5 5 8-1c3-4 2-10-2-10l-5-1-4-2zm-136-1q-8 11 1 10l3 2q4 4 8 0 7-9-4-12l-5-2zm68 2q-4 7 2 7l4 3 2 3 3-4q7-9-2-11l-6-1q-1-1-3 3m-203-2q-6 11-1 11 3 0 5 3 3 3 5 0c5-4 5-12 0-12l-6-1q-1-3-3-1m68 0-1 2-1 3q-5 3 2 5l5 3c1 5 9-2 7-7q0-5-4-4l-5-1q-2-3-3-1m-139 5q-5 7 3 7 3 0 4 3 3 5 7-4 4-7-4-9l-5-1q-1-2-5 4m720 21a9 9 0 0 0 5 17l3-1v-8q1-12-8-8m-138 1a9 9 0 0 0 3 18q5 1 7-3c7-7 0-19-10-15m68 0c-6 2-7 10-3 15q6 5 14-1c8-7-1-18-11-14m-204 1a10 10 0 1 0 7 18c8-4 9-14 1-17-3-2-3-2-8-1m66 0c-4 3-5 11-2 15 3 3 11 3 14 0 8-8-2-20-12-15m-135 1c-7 3-8 12-1 16 9 5 18-2 15-10q-5-8-14-6m-66 2a10 10 0 1 0 5 18 10 10 0 0 0-5-18m-69 1a9 9 0 1 0 11 3q-5-5-11-3m-137 1q-4 1-6 9c-2 7 12 13 17 6 6-7-1-17-11-15m69 0a9 9 0 0 0 3 17c9 0 13-8 7-14q-5-6-10-3m-205 1c-8 3-9 11-3 16a9 9 0 1 0 3-16m68 0q-9 5-4 13a9 9 0 1 0 4-13m575 16q-6 3-6 9l-1 5c-8 4-4 15 5 15l6 4q8 10 18-2l7-7-1-4-2-9q1-9-11-9l-8-1q-3-3-7-1m66 2q-3 2-4 6 0 4-3 7-3 5-1 8 3 5 9 6l6 4c6 6 9 6 17-2s8-8 6-13l-2-7q0-9-9-9l-9-1q-6-4-10 1m-135-1q-5 2-6 10l-3 5-3 6c0 2 6 7 8 7q5 0 10 6 6 7 15-1l5-5c3 0 5-9 2-11l-2-6q-1-11-9-9l-12-2zm-71 3q-3 4-3 7l-4 7q-4 4 0 8l9 5 5 3c7 7 10 6 19-2 6-6 7-8 5-14l-2-7q-2-9-10-7l-7-1q-7-4-12 1m-68 0-2 3-4 9q-8 13 9 15l3 3c1 3 7 6 10 6l8-7c8-6 8-7 5-20-2-8-3-9-11-9l-12-2q-5 0-6 2m-136 2q-5 3-4 7v1l-1 3-2 3q-5 6 1 11l6 3 6 3q8 11 18-1l5-4q4-1 1-9l-2-8q0-9-9-8l-8-1c-1-2-8-2-11 0m68 0-2 6-3 7q-7 11 5 14l9 5c6 6 8 5 18-4 6-6 7-7 5-12l-2-5q0-11-11-10l-7-1q-6-4-12 0m-203 1q-5 2-5 8l-2 6c-5 6-2 14 3 14q4 0 10 6 8 8 18-4c8-8 8-7 5-13l-2-7q-1-9-9-8-4 1-8-1-6-3-10-1m67 1q-3 2-3 6l-3 7-3 6q2 7 8 8 3 0 7 4c8 7 10 6 20-3q9-8 5-11l-3-7q-2-12-9-9l-8-1q-7-4-11 0m-203 0c-2 0-6 7-6 11q0 2-3 5-3 4-1 7 4 5 9 6l7 5q4 4 7 4t8-4l5-5c3 0 5-8 3-12l-2-6q0-9-10-9l-8-2zm65 2-2 6-2 6q-7 10 6 14l7 4q8 9 14 1l6-5q6-7 2-12l-1-6q-1-9-9-9-4 1-7-1-11-4-14 2m623 0-1 3-2 3q-4 6 2 6 3 0 5 3c4 5 11-1 10-9q0-5-5-4l-5-1q-2-3-4-1m-69 2-1 2-2 3q-3 4 2 5l6 3 3 2 3-3q4-3 1-10-1-3-3-1l-4-1zm-206 2-2 4q-2 5 3 6l5 2q8 5 9-6-1-7-6-6l-3-1q-6-2-6 1m68 1q-4 8 2 9l4 2c5 5 10-2 8-10q0-2-4-2l-4-1q-3-3-6 2m68 1q-4 6 1 7l4 2q5 5 10-4v-3l-1-2q0-2-3-2l-4-1q-4-3-7 3m-273 4q-4 7 2 7l4 3q3 5 6-1 7-8-1-11l-5-2q-3-3-6 4m69-1q-4 9 3 8l4 2c3 5 9-2 7-8q1-5-3-4-3 1-5-1-3-3-6 3m-205 3q-4 6 0 6 3 0 5 3 4 5 7-1 6-9-1-10l-5-1q-3-4-6 3m69-3-2 4c-3 3 0 9 4 8h4q2 4 6 0c3-3 3-14 0-12h-7q-3-4-5 0m-203 0-3 5q-3 6 2 5 4 0 7 4 1 4 4-2 6-9-3-10l-5-2zm67 2-3 4q-3 4 4 4l5 3q3 4 7-1 3-5 1-6l-1-3q0-3-4-2l-4-1q-3-3-5 2m512 24q-10 6-2 15 6 6 11 1c9-7 2-20-9-16m67 1c-6 4-5 12 2 15a9 9 0 1 0-2-15m70-1c-9 3-5 16 6 16h3v-17h-4zm-208 3a9 9 0 1 0 14 10c6-9-6-18-14-10m-134-1a9 9 0 1 0 9 17 9 9 0 0 0-9-17m67 1c-6 4-5 13 2 16 9 4 17-7 10-14-2-2-11-4-12-2m-135 2c-4 2-5 10-2 14a9 9 0 1 0 2-14m-66 0q-3 0-5 3a9 9 0 1 0 5-3m-206 2c-9 6-7 15 3 17a9 9 0 0 0 6-17q-6-3-9 0m134 1c-5 5-4 13 3 15s14-4 13-11a9 9 0 0 0-16-4m-199-1-3 1c-9 0-8 13 0 17 8 3 16-5 13-12-3-5-9-9-10-6m709 16-4 3-2 2h15c13 0 14 0 13-2h-7l-7-1q-4-3-8-2m-139 1q-10 4 11 4 14 0 12-1l-6-1-9-1c-4-2-4-2-8-1m66 2-2 2h14l15-1q-1-2-7-1l-7-1q-8-4-13 1"
        mask="url(#16282281824-posters-1720553470329-horizontal-mask)" itemprop="light" fill-opacity="0.90"
        fill-rule="evenodd" stroke="none" fill="url(#16282281824-posters-1720553470329-vertical-light)"></path>
      <!---->
      <path id="16282281824-posters-1720553470329-regular"
        d="M45 3q5 4 10 0 6-3-5-3h-7zm67-2 7 4 5-2 3-3h-8zm649 4q-10 5-3 13 5 4 9 3c3-1 3-16 1-16zM621 8c-7 6-4 14 5 14a8 8 0 0 0 1-16q-2-2-6 2m72-2q-11 5-5 14c7 6 18-1 16-9l-7-6zM553 8a9 9 0 1 0 9 0c-5-2-5-2-9 0m-67 0q-6 3-4 9a9 9 0 1 0 4-9m-70 2a9 9 0 1 0 13 1q-6-6-13-1m-134 1q-7 5-3 12a9 9 0 1 0 3-12m67 0q-7 6-1 13 10 6 15-3c4-8-7-16-14-10m-202 1a9 9 0 0 0 2 17c4 0 10-5 10-9s-8-10-12-8m65 2q-6 5 0 11 7 6 14-1c6-9-7-18-14-10M12 13q-13 5-5 14c7 8 20-3 13-11q-3-5-8-3m64 1q-8 6 1 14 6 5 11-1c8-8-2-19-12-13m576 16q-5 3-5 8l-3 7c-5 5-2 12 5 13q4 0 8 4 7 10 18-2 9-9 4-14l-1-6q-1-8-10-8l-9-1q-6-3-7-1m67 1-3 5-2 6q-8 12 4 15 5 1 8 4 6 9 17-2c6-6 7-8 5-14l-2-6q-1-8-9-7-3 2-8-1-7-5-10 0m-204 0q-4 1-4 7l-4 8q-6 10 6 12l8 5c6 6 8 5 17-3l6-6-1-5-2-7q-1-9-9-9-4 1-9-1c-5-2-5-2-8-1m67 0-3 6-4 9q-6 8 5 11l8 5c6 7 9 6 18-2q9-8 5-14l-2-6q-2-11-11-7l-5-1q-8-3-11-1m-137 2-3 6-3 7q-6 8 5 12l9 6q6 8 18-5l5-5-1-5-2-7q-1-10-11-9h-5c-3-3-10-2-12 0m-67 2-3 4-3 8q-6 11 5 14l7 4q7 9 17-2l6-5q3-1 1-7l-3-8q-1-10-9-8l-9-2q-7-3-9 2m-137 2-3 6-3 7q-6 11 5 12l6 3q10 10 16 3l6-4q6-3 2-13l-2-8q0-6-9-6l-9-1q-5-4-9 1m67-2-2 6-3 8q-5 8 4 12l3 1 6 4c6 6 8 6 16-2 9-7 9-7 6-14l-2-7q1-7-9-6l-8-2zm-203 2q-3 3-3 7l-3 6q-7 9 5 14l8 4q6 8 15 0l7-7q3-2 0-9l-2-8q-1-7-9-6l-8-1q-7-4-10 0m68-1q-3 3-4 8l-3 6q-7 10 6 13 6 1 7 4 6 10 18-2 9-7 5-13l-2-7q-1-8-10-8h-7q-6-3-10-1M37 38l-3 6-3 7q-7 10 4 13l8 5c6 6 8 5 16-1 8-7 8-9 6-15l-2-9c-2-4-2-5-8-5l-9-1c-6-2-6-2-9 0m619 4q-6 9 1 10l5 2q4 5 7-3 4-7-4-9l-4-1q-2-4-5 1m67 2q-5 7 2 7l5 3q3 6 7-1 6-10-2-12l-5-1q-3-3-7 4m-274 1q-5 8 1 8l5 2c7 5 13-1 10-10q-1-3-5-3l-6-1q-2-2-5 4m70-3-2 4q-4 6 3 7l4 3q3 3 8-2c4-5 2-12-4-12l-6-1q-1-2-3 1m67 2q-4 7 2 7l5 3q2 5 6-1c5-4 3-11-3-11l-3-1q-3-3-7 3m-202-1-1 3-1 2q-4 5 1 6 3 0 5 3 4 5 8-1c4-5 2-13-3-12h-5q-2-3-4-1m-139 6q-5 9 3 8l4 3q3 5 7-1 7-11-3-14h-6q-2-2-5 4m70-4q-7 9 1 11l4 3q4 4 8-2 4-9-4-11l-6-1zm-205 4q-6 7 1 9 3 0 5 3l3 3 3-4c5-5 4-14-1-12l-5-1c-4-2-3-3-6 2m67 1q-5 7 1 7l5 3 4 3 2-2q8-11-1-14l-6-2q-2-1-5 5M42 47l-2 5q-4 5 1 7 7 1 7 4 2 5 6-3 7-10-3-12l-7-1zm718 27c-9 4-5 17 5 16h4v-8q1-13-9-8m-140 2a9 9 0 1 0 15 9c3-8-8-15-15-9m68 1q-5 6 1 11 8 7 14-3c1-4 1-4-2-8s-10-4-13 0m-204 1c-8 8 3 20 11 13q6-4 4-9-6-11-15-4m67-1a9 9 0 1 0 13 0q-7-4-13 0m-135 2c-8 8 4 20 12 11 6-5 3-13-5-14q-3-1-7 3m-134 0a9 9 0 0 0 8 15c7-3 7-11 0-15-5-2-4-2-8 0m68-1c-2 1-5 7-5 9 0 6 8 9 14 7 10-6 2-20-9-16m-136 2a9 9 0 1 0 13 7q-1-10-13-7M9 82c-9 4-6 16 4 16a8 8 0 0 0 4-16q-3-3-8 0m67 1q-6 6-1 11 8 6 13 0c8-9-4-20-12-11m68-2q-6 6-2 14c6 5 16 1 16-6s-8-12-14-8m576 19q-3 2-4 6l-3 7c-4 5-1 12 5 12q3 0 8 5c6 6 9 5 17-3q9-7 4-13l-1-6q1-8-8-8-4 1-9-1c-7-2-6-2-9 1m-206 0-4 5-3 9q-4 5-2 8c1 2 8 6 11 6l4 3q9 8 15 0l5-5q6-3 3-10l-2-7q-1-8-10-8-3 1-8-1-6-3-9 0m69 0q-3 1-4 5l-4 9-3 5 2 3 6 4 9 5q6 8 14 0l7-6q3-2 1-10l-2-7q0-8-10-7l-8-1c-5-2-5-2-8 0m67 0q-3 3-3 7l-2 5-3 4q-3 7 7 10 5 1 8 4 8 10 18-2c6-6 6-7 4-15l-2-8q-1-5-9-4l-8-1q-6-4-10 0m-202 0q-5 0-6 8l-4 7q-6 8 6 12 6 2 8 5 6 9 17-3c7-7 8-7 5-12l-2-8q-2-9-8-7-5 1-8-1-4-2-8-1m-51 2c-4 2-4 2-9 1l-7-2q-6 2-7 8l-2 6q-7 10 5 14l7 4q8 7 15 1l6-6q5-3 2-10l-2-5 3-5q5-13-11-6m-84 1q-6 1-7 7l-2 7q-7 10 5 13l8 5c5 6 7 5 15-2s8-8 6-13l-2-8q-1-8-9-8-3 1-7-1zm-141 3-3 5q0 3-3 7l-2 7q2 5 6 6 4 0 10 6c6 5 8 4 17-4l6-8-2-9c-3-10-3-10-11-10l-10-1q-6-4-8 1m69-1-3 5q0 3-3 7-6 11 5 14l8 4q7 10 17-2c7-7 7-8 5-14l-2-7q0-7-9-7h-7q-7-4-11 0m-203 0q-4 1-5 8l-2 6q-7 9 4 13l9 5c6 6 9 5 17-3 7-7 7-7 5-12l-3-9q-1-8-10-6l-7-1q-4-3-8-1m68 0q-4 2-4 8l-3 7-3 5 2 3 7 4 8 6q6 8 16-3c6-7 7-8 5-14l-2-7q0-8-9-8h-8q-6-3-9-1m343 8q-5 9 2 8l5 3q3 5 7-1c5-4 3-12-3-12l-4-2q-3-3-7 4m71-4q-6 11-1 12l5 2q4 5 7-1c5-4 4-11-3-11l-4-1q-2-3-4-1m67 3-3 4-1 2q0 3 5 3 3 0 5 3 4 5 7-2 6-11-4-12l-4-1q-3-3-5 3m67 1-3 4q2 4 6 4l5 2q3 4 7-2 4-9-4-11l-3-1q-3-3-8 4m71-4-2 4q-4 6 2 7 3 0 5 3 3 3 5 1c6-4 6-15-1-14l-3-1zm-410 3-1 3-1 3q-4 5 2 6l5 3c4 5 11-1 9-8q0-7-4-6h-5c-4-2-3-2-5-1m68 2-3 4q-3 6 4 5l4 2q5 6 9 0l1-4v-4q0-5-5-4l-4-1q-4-3-6 2m-138 3q-6 9 1 8 3 0 5 3 5 6 9-1c3-3 3-4 1-11q0-2-4-2-3 1-5-1-3-3-7 4m-203-1-3 5q-3 4 3 5l5 4q4 5 8-2 5-10-3-12l-5-1q-4-3-5 1m69-1-1 2-2 4q-5 4 3 6 3 0 5 3 3 5 7-1c3-6 2-15-2-13h-4q-4-3-6-1m66 3q-6 8 2 8l4 3c4 4 4 4 8-1q7-10-4-12l-3-1q-3-3-7 3m583 24c-8 5-6 15 4 15l5 1v-7q0-14-9-9m-135 1a8 8 0 0 0-3 15q4 5 9 0a8 8 0 0 0-6-15m64 2c-8 6 0 18 10 13q7-5 1-13-5-6-11 0m-271 0a9 9 0 1 0 7-1c-4-1-3-1-7 1m134 1q-6 6 0 11c8 8 20-3 12-11a8 8 0 0 0-12 0m-68 1q-6 5 0 12a9 9 0 1 0 0-12m-202 1c-8 4-5 15 4 15q8 1 9-6c2-7-6-13-13-9m65 2q-3 6 1 10a9 9 0 1 0-1-10m-131-2q-9 5-6 12 7 8 14 2c7-6 1-17-8-14m-136 1a8 8 0 0 0 0 16 9 9 0 0 0 7-15q-4-3-7-1m63 1c-6 6-3 15 6 15a9 9 0 0 0 1-17zM8 151q-8 8 1 14 6 4 10-1 7-9-3-13c-5-2-4-2-8 0m505 17-3 7-3 7q-6 9 5 12l9 5c7 5 9 5 16-2q11-8 7-11l-3-7q-1-10-9-10l-9-1q-6-3-10 0m70 0q-3 1-4 5l-5 11q-4 7 7 11l8 4q7 9 16-2c7-6 8-8 5-14q-2-5-1-7 0-6-10-7l-9-1q-4-3-7 0m67 0-3 6-4 8c-3 5-3 5 0 8q2 3 6 4 4 0 8 4 8 9 18-2 9-7 5-13l-2-7q-1-8-10-8h-7q-7-4-11 0m68 0-2 5-2 7q-8 9 6 14 5 1 6 3 5 10 17-2c7-7 7-6 5-12l-2-7q-1-8-9-8h-8q-7-4-11 0m-274 1-2 5-2 6q-5 9-3 10 2 4 9 6l5 3q6 10 19-2c7-6 7-6 5-12l-2-8q-2-8-9-8h-9q-8-4-11 0m-66 2q-3 2-4 7 0 5-3 7-7 9 7 13l7 4c5 7 8 6 18-3 7-6 7-7 4-12l-2-7q0-8-10-8l-9-1c-4-2-4-2-8 0m-135 0q-5 3-5 9l-2 5c-5 6-2 14 5 14l7 5c7 5 7 5 16-2 8-7 8-7 5-20-2-8-3-8-10-9l-9-1q-3-3-7-1m68 0q-5 2-5 8l-2 6c-4 5-3 12 2 12l10 4c1 3 8 6 10 5l14-13-2-6-2-8q0-7-10-7h-7q-5-3-8-1m-138 1-3 5-2 7c-6 9-6 9-3 12l6 3 9 5c6 6 8 6 18-4l5-5-1-4-2-10q-2-9-10-7l-7-1q-6-3-10-1m-135 2q-4 0-5 7l-3 8q-7 7 6 12l7 4c6 7 8 6 17-1 7-7 8-8 6-12l-2-8q0-11-10-9l-9-1q-3-3-7 0m67 0-3 6q0 4-3 7-7 11 7 14 4 1 6 4a9 9 0 0 0 13 2l5-5c6-6 6-7 4-12l-2-7q1-8-9-8l-9-1q-5-4-9 0m618 5q-5 9 1 9 3 0 5 3 6 5 10-3c2-4 1-11-3-11l-6-1-4-2zm-67-2q-7 11-1 11l6 3q4 5 7-1c5-5 3-13-2-13zm-206 5q-5 7 0 7l6 3q4 5 7-1 3-3 2-6 1-5-5-5l-5-2q-3-3-5 4m68 0q-3 7 2 7l4 1c5 6 12 0 9-8q-1-4-4-3l-4-1q-3-3-7 4m68-1q-5 8 2 8l5 3 3 2c3 0 7-7 7-11q1-5-6-5h-6q-2-2-5 3m-408 0-1 3-2 4q-2 6 4 6 3 0 4 3 3 5 8-1l3-4-1-5q-2-5-5-4l-6-1q-2-3-4-1m68 4q-5 7 2 8l5 4 2 2 4-4q4-4 3-7-1-8-5-5l-6-1c-3-3-2-3-5 3m68 0q-6 8 0 7l6 3q4 5 7-1c3-5 2-13-2-11l-5-1c-4-2-3-3-6 3m68-1q-6 8 1 8l5 3q9 4 10-8 0-6-5-5l-7-1q-1-2-4 3m-271-1-3 5q-5 7 3 7 3 0 5 3 4 5 8-2 6-12-5-12l-3-1zm-70 5q-5 8 1 7 3 0 5 3 5 5 8-3 5-9-3-10l-7-1q-1-2-4 4m720 22a9 9 0 0 0 5 16h3v-8q1-12-8-8m-69 1c-6 2-8 9-3 13a8 8 0 1 0 3-13m-204 1c-9 3-9 15 0 17s16-11 8-15q-6-3-8-2m68 0c-7 1-9 10-4 14 3 3 10 3 13 0 5-7-1-16-9-14m64 1a9 9 0 1 0 12 0q-5-5-12 0m-204 2c-4 4-4 11 1 13 9 5 19-5 12-13-3-3-10-3-13 0m-65 0c-6 1-8 8-3 13 5 7 17 2 16-6q-3-10-13-7m-136 1q-10 6-3 14 9 8 15-3c3-7-4-14-12-11m67 0q-8 5-3 14a9 9 0 1 0 3-14M9 219c-7 3-7 12 0 15 10 4 17-5 11-13q-5-6-11-2m67 1a9 9 0 1 0 13 11c6-10-5-18-13-11m68-2c-6 4-5 12 3 16 5 2 13-4 12-10-2-5-10-9-15-6m576 17q-3 1-4 7-1 5-3 7c-5 5-1 13 6 13l7 5c7 6 9 6 17-3 6-7 7-8 4-13l-2-7q1-8-9-7l-9-1q-3-3-7-1m-136 1q-5 3-5 7l-2 7q-7 10 5 14l6 2q7 12 18 0c7-7 7-7 4-18q-3-11-9-9-2 2-8-1c-7-3-7-3-9-2m66 1q-3 2-3 5l-2 6c-4 8-4 9-1 12l6 3q4 0 8 4 7 8 14 1l6-6c3-3 4-4 1-11l-2-8q-1-6-9-6h-7q-5-4-11 0m-137 0-2 6-3 7q-7 12 4 14 4 0 8 4 7 8 16-1c8-7 9-8 7-14l-2-8q-1-7-9-7h-8q-6-3-11-1m-69 3-2 5-2 6c-5 5-1 14 6 14l7 5 7 4 2-1 6-5 6-6q3-3 1-8l-2-6q0-9-9-9-5 1-9-1-8-3-11 2m-66 0-3 6-4 8q-6 9 7 13l6 3q6 10 19-2c7-7 7-6 4-13l-2-8q0-7-10-6l-8-2q-5-2-9 1m-135 0q-4 2-4 6l-3 7q-7 13 5 15l7 4c6 6 9 6 17-1 7-8 7-8 5-15l-2-8q-1-6-9-5l-7-1q-6-3-9-2m66 2-3 6-3 6q-7 10 5 13l9 5c6 5 8 5 15-2 8-7 9-8 7-13l-2-8q0-8-9-8-5 1-9-1-7-3-10 2m-135-1q-3 2-4 7l-4 8c-4 5-2 12 5 13l9 4c6 6 9 6 17-2l6-7-1-4-2-8q0-10-10-9l-11-2zm-69 2-2 4-5 11c-2 1-1 7 1 8l5 3q6 0 9 6 6 6 14-2 4-5 6-5 4-1 1-10l-2-9q-1-7-9-5l-8-1q-6-3-10 0m-69 0-3 6-3 8q-6 8 6 12l8 6c5 6 7 5 16-2 8-7 8-8 6-14l-2-7q-1-8-9-8-5 1-8-1zm687 6q-4 8 3 8l4 2c3 4 10 0 10-7q1-6-6-6l-6-2q-3-1-5 5m-135-3-3 4q-4 8 2 8 3 0 5 3 4 5 8-1c5-5 3-12-3-13l-6-2zm67 4q-5 7 1 7l5 3 4 2 3-3q7-8-1-11l-6-1q-4-4-6 3m-205 0q-5 8 1 9l6 3q2 5 5-1c5-5 5-14-1-13h-5q-4-4-6 2m70-3q-7 10 0 11 3 0 5 3 4 5 7-1 5-10-3-12l-4-1zm-136 2q-8 12 0 11l5 3c4 6 11-4 8-11q0-2-4-2l-4-1zm-138 3-3 5q-3 4 4 5l5 3c4 3 4 3 8-1q6-10-4-13l-6-1q-2-2-4 2m69-2q-8 11 0 11l5 3 3 2 3-3c5-5 4-12-2-12l-6-1zm-205 3-2 5q-4 5 2 5 4 0 7 3l2 3 3-3q8-11-3-13l-3-1q-4-2-6 1m67 2q-7 8 3 8l4 3q2 6 6 0c5-6 3-13-2-13l-4-1q-3-3-7 3m-135-1-2 4q-3 4 2 6 3 0 5 3 4 5 7-1c4-5 3-12-3-12l-3-1q-4-2-6 1m719 25c-9 5-7 17 3 16h5v-7q0-13-8-9m-140 3c-6 5-2 14 6 14a8 8 0 0 0 1-17q-3-1-7 3m71-2q-11 6-2 14 5 5 11-1c7-6 0-17-9-13m-206 2a9 9 0 0 0 7 16c9-2 9-14 1-17-4-1-4-1-8 1m66 1c-6 5-2 14 6 14q8 0 9-8c0-8-9-12-15-6m-135 0q-9 8 1 15a9 9 0 1 0-1-15m-138 3q-9 9 3 14c7 4 15-3 13-10-2-6-12-8-16-4m69 0q-4 3-3 7a9 9 0 0 0 19 0c1-9-10-13-16-7m-133-1q-9 6-4 13a9 9 0 1 0 4-13m-136 1a9 9 0 1 0 5 17 9 9 0 0 0-5-17m64 2q-6 6 0 11c9 8 22-3 13-11q-7-6-13 0m577 16q-4 2-4 6 1 2-3 7-3 6-2 8c1 2 7 6 10 6l6 4c5 6 7 5 15-1 8-8 8-8 6-13l-2-8q0-9-9-8l-9-1q-4-3-8 0m-136 1q-3 2-4 5l-4 9-3 7c1 3 7 6 10 6l6 4q6 10 17-2c8-8 8-8 6-12l-3-7q0-10-9-9l-9-1c-4-2-3-2-7 0m66 0-3 6-3 8q-3 5-2 6 4 5 9 6 3 0 6 4 8 10 18-2 9-7 4-13l-2-7q0-9-9-7l-8-1q-5-4-10 0m-204 1q-3 3-4 7l-3 7q-6 8 5 12 5 1 8 5 8 9 17-2 10-9 5-12l-1-7q1-10-8-9-4 1-9-1-7-4-10 0m68 0q-3 3-3 5l-3 8q-7 12 6 13 3 0 7 5c6 6 8 6 18-4l6-6-2-4-2-8q0-10-10-8l-6-1q-7-3-11 0m-136 2q-3 3-3 7l-2 5-4 8q1 4 8 7l8 4q7 9 16-2c8-7 8-7 7-12l-2-7q0-10-11-9l-7-1q-5-3-10 0m-69 1q-4 2-3 6 0 4-3 8-6 7 2 11l5 2 7 4c7 5 8 5 16-2 7-7 8-8 6-13l-2-7q-1-10-10-8l-8-1q-5-3-10 0m-133 0q-6 3-7 8l-2 7q-5 5-2 9t8 4l6 4q7 9 15 0l7-6q4-3 0-9l-1-7q0-8-10-8h-7q-4-3-7-2m65 2-3 5-3 7q-5 10 6 13l7 5c6 6 9 6 17-2 8-7 8-7 5-13l-2-7q-1-11-9-8-3 2-7-1-8-5-11 1m-136 0-2 5-3 7c-5 6-2 14 5 14 2 0 7 3 7 5s7 4 9 3l9-7 6-6-2-5-2-8q0-7-10-8l-7-1q-4-3-10 1m-67 0q-5 3-5 7l-2 6q-8 9 5 14l7 4q7 11 19-3 7-7 4-12l-2-5q0-10-9-10-5 1-7-1zm619 2-2 3-2 4q-2 4 3 5l5 3q4 6 7 0c5-6 3-14-2-13l-5-1q-3-2-4-1m66 4q-4 7 3 8l5 2q1 4 6-1c5-5 3-12-3-12l-4-1q-3-3-7 4m-135-1-3 5q-2 4 3 5 2 0 5 3 4 5 7-1c4-5 2-14-2-13l-5-1q-5-2-5 2m-137 1c-4 7-4 7-3 8l3 2 5 3q6 4 10-2c2-4 0-12-4-11l-6-1q-4-4-5 1m68 3q-5 7 1 6 3 0 5 3 1 6 7 0 3-3 2-7 2-7-7-6l-6-1zm-272-1-2 5q-4 5 3 7l5 3c1 3 9-2 9-5q1-11-5-9l-5-1q-3-4-5 0m135 3-2 5 3 1 4 2q8 6 11-2 2-6-4-9l-9-2zm-205 1q-4 8 2 8l4 2c4 6 13-3 10-10q-1-3-6-3l-6-1q-1-2-4 4m137-1q-5 7 0 7l6 3q3 6 7 0 6-10-3-12l-6-1q-1-1-4 3m-203-2-2 4q-4 6 2 8l5 3q4 5 7-1 7-10-3-13l-6-2zm-69 3-2 4q-4 4 1 5l6 3q5 5 8-1 3-5 1-11c-1-2-13-2-14 0m649 24c-8 4-6 16 4 16 9 0 12-10 5-15q-4-3-9-1m69 0q-4 3-5 8c0 5 7 9 12 7 3 0 3-15 0-15zm-137 1q-8 4-2 13 5 6 11 1c7-6 0-17-9-14m-137 2c-7 4-6 14 3 16q7 1 10-5c3-9-6-16-13-11m-69 2q-9 7 1 13c8 6 18-7 11-14q-6-5-12 1m-65-1q-10 6-3 15c8 7 20-4 12-12q-4-5-9-3m-70 1c-8 6-6 15 3 17a9 9 0 0 0 6-16q-6-3-9-1m-69 3q-8 7 1 14 11 4 12-8c1-7-8-11-13-6m-67-1c-8 3-8 13 1 16q6 1 10-4c5-7-3-15-11-12M8 356c-6 4-6 12 1 15a9 9 0 1 0-1-15m68 1q-7 9 3 14a9 9 0 1 0-3-14m643 16-2 6-3 6q-8 9 4 13l9 6c5 6 8 5 18-5 6-6 6-5 3-11l-2-8q1-7-8-6l-6-1c-3-2-11-2-13 0m-204 1q-4 2-4 7 0 4-3 7-7 10 5 13l8 4q6 10 18-3c6-6 6-6 5-9l-2-9q-2-10-10-9-4 1-9-1l-5-2zm67 0-3 6-3 8q-7 11 6 12l6 4c7 7 10 6 19-3l6-6-2-5-2-8q-1-8-9-7l-8-1q-7-3-10 0m68 0-3 6-3 8q-3 4-2 6 2 5 8 6t8 5q6 10 16-3c7-7 8-8 6-14l-2-6q1-8-10-8l-12-2q-5 0-6 2m-204 0q-3 2-4 8l-3 6q-6 9 6 13l7 4q7 9 18-2 9-7 5-13l-2-7q-1-8-9-8-5 1-9-1zm-135 3q-5 2-5 7l-2 6q-8 10 5 14l8 5q6 8 16-3 10-9 6-13l-2-7q0-9-11-8l-7-1q-4-3-8 0m67 0q-3 1-3 7l-3 7q-6 8 5 12l8 5c6 6 8 5 16-2s8-7 6-14l-2-9q0-6-9-5l-9-1q-5-4-9 0m-204 1q-3 1-4 7l-5 9q-5 8 6 11l9 6q6 7 16-2c7-7 8-8 6-14l-2-9q0-7-10-6l-8-1q-4-3-8-1m67 0-3 7q0 5-4 9-4 8 8 11l7 4c6 7 8 6 15-1 8-8 9-9 6-15l-2-7q1-7-8-6l-8-1q-6-3-11-1m-203 2q-4 2-5 6l-3 9q-5 8 5 11l9 5q8 8 14 0l5-5c4 0 5-7 3-11l-2-6q-1-8-9-8-4 1-9-1c-5-2-5-2-8 0m68 0q-3 0-5 8l-2 7q-6 7 5 11l8 6q8 6 14 0l6-6q6-4 3-10l-2-5-2-7q-1-4-10-3l-6-1q-5-3-9 0m617 5q-5 9 4 9l4 2q2 5 7-1 4-3 2-8c-1-5 0-5-8-5l-7-1zm-137 2q-5 7 2 7 4 1 6 4t4 0c6-5 6-13 0-14l-6-1q-2-2-6 4m69 0q-6 7 2 7l5 2q2 5 6-1 7-9-3-11l-4-1q-3-3-6 4m-205 0q-4 7 2 8l5 3q3 5 6-1c5-5 4-12-2-12l-6-2q-3-1-5 4m68 1q-5 7 1 7l6 3 3 3 4-3q4-3 3-8v-5h-5l-4-1q-4-3-8 4m-136 1q-4 8 2 9l5 2q4 4 7-1 6-9-2-12l-7-1q-2-2-5 3m-135-2q-6 9-4 12l4 1 5 2q4 5 8-1c3-4 3-4 1-8q-1-4-5-5l-6-1zm67 4q-3 7 2 7l4 3 4 2c2-1 6-7 5-10q0-6-5-5l-6-1q-1-2-4 4m-271-2-1 2-2 4q-5 5 1 6l7 3q1 5 6-1c5-5 4-12-2-12l-5-1q-2-3-4-1m67 3q-4 10 3 9l4 3 2 2 2-2c6-5 6-14 0-13l-5-1q-4-4-6 2m68-1-2 4q-2 4 4 5l4 2q4 5 9-4 1-6-6-8l-3-1q-4-3-6 2m513 26a9 9 0 0 0 8 15c6-2 7-11 1-15-4-2-4-2-9 0m67 1c-5 5-2 14 5 13q7 2 6-9v-6l-4-1q-4-1-7 3m-135-1q-8 4-5 11a9 9 0 1 0 5-11m-136 1a9 9 0 1 0 11 13c5-7-1-15-11-13m65 1a9 9 0 1 0 12 13 9 9 0 0 0-12-13m-136 2c-6 6-2 14 7 14q4 0 6-3c8-9-5-19-13-11m-67 2c-7 7 0 18 10 13 5-2 7-9 2-13q-7-6-12 0m-69 0q-7 11 5 15 7 2 10-6c3-8-9-15-15-9m-65 0c-9 1-6 16 3 16 8 0 12-8 6-14q-3-4-9-2M9 424q-9 6-2 14c6 6 15 2 15-6 0-7-8-11-13-8m66 2q-2 2-2 6a9 9 0 1 0 2-6m67 0q-5 7 0 11c8 7 19 1 16-9-2-6-12-8-16-2m511 14q-5 1-5 8l-2 5q-9 8 4 14l9 6q6 7 14-2l6-5q3-1 1-9l-2-8q0-7-9-7l-13-3zm66 1-2 4-3 7-3 7q1 6 8 8l9 5q4 4 6 4l2-1 14-13-2-5-2-8q-1-9-9-7l-8-1q-7-4-10 0m-203 0q-4 3-5 7l-3 8q-7 10 5 12l8 5c6 6 9 6 18-3 6-6 6-6 5-9l-2-9q-2-10-10-9-3 1-8-1c-5-2-5-2-8-1m67 0q-3 2-4 6 0 5-4 9-6 9 8 12l7 5q6 8 15-1c9-9 10-10 6-14l-1-6q0-10-10-9l-7-1q-6-3-10-1m-138 2-2 5q0 3-3 7-7 12 5 14 4 0 8 5 6 8 16-2c7-6 8-8 6-14l-2-7q-1-8-9-8h-9q-6-4-10 0m-67 2-3 7-4 8q-5 9 5 11 6 1 12 7 3 5 14-4c8-7 8-6 4-18q-1-12-10-10l-9-1q-5-4-9 0m-70 1-2 4-2 8q-6 13 5 14 3 0 7 4c6 6 9 6 18-2 6-7 7-8 4-12l-2-8q0-8-9-8l-7-1q-7-2-12 1m-269 1q-5 3-6 10l-3 6q-4 10 7 12 2 0 6 5c7 6 9 6 18-3 7-7 8-8 6-12l-2-6q0-9-10-10-4 1-9-1-4-3-7-1m66 1-3 5-3 8q-6 10 6 13l8 5c6 5 7 5 16-2 8-7 8-8 5-14l-2-7q0-7-9-7l-8-1q-5-3-10 0m68-1-3 6-3 8q-6 10 5 13l8 5c6 5 9 5 18-3l6-7-2-6-2-9q0-6-9-5l-7-1q-6-3-11-1m68 1-3 5-2 6c-5 7-2 15 6 15l6 4c6 6 9 6 18-3q10-7 4-13l-2-8q0-6-9-6h-7q-6-4-11 0m484 2-3 5q-3 6 3 6l5 3c4 4 4 4 8 0q3-3 2-8 0-7-5-6-3 1-5-1-3-2-5 1m-67 0c-3 2-6 9-5 10l4 2 5 3c3 3 10-2 9-8q0-7-5-6l-5-1zm-208 3-1 4q-3 4 3 6l5 3q3 4 7-1c5-4 2-14-3-13h-5q-5-4-6 1m136 2q-3 8 3 8l4 2q3 4 8-2 5-9-4-11l-6-1q-2-2-5 4m-68-1q-4 8 3 9l4 3q4 5 7-1 4-3 2-7 1-6-4-6l-6-1q-4-1-6 3m-203 0-1 3-2 4q-3 5 3 5l5 3q3 5 8-1 5-9-3-12l-5-2zm67 4q-4 7 3 8 3 0 5 3 2 5 6-2 6-10-3-12l-5-1q-3-1-6 4m-134-1q-5 6-4 10 2 6 3 4h7c2 4 8-2 8-9l-1-4h-4l-6-2q-1-2-3 1m-138 4q-5 8 1 8l6 3c5 5 10-1 8-9q1-5-5-5l-6-1q-1-2-4 4m68-2-3 4q-2 4 3 5l5 2q5 5 8-1 6-8-2-11l-4-1q-4-3-7 2m-135-1-2 5q-5 6 3 6 4 0 4 2c2 6 9 1 9-7q1-5-5-4l-5-1q-3-3-4-1m648 27c-8 4-4 15 4 15a8 8 0 0 0 3-16q-4-2-7 1m69-1q-9 8 0 15 9 5 9-7 1-13-9-8m-206 2q-9 6-3 12c6 6 16 2 16-5 0-6-8-11-13-7m69-1q-9 6-2 13 6 6 12 0c7-7-1-18-10-13m-207 4c-7 9 6 20 13 11 3-4 3-4 2-8-3-7-11-8-15-3m69-2q-5 5-3 10c4 8 14 8 17 0 2-6-9-14-14-10m-134 2q-9 6-2 13a9 9 0 1 0 2-13m-136 1q-5 3-6 8c0 7 10 11 15 6 8-6 0-18-9-14m66 2q-6 4-2 10a9 9 0 1 0 2-10m-205 1c-6 6-2 15 6 15a9 9 0 1 0-6-15m67 0q-6 6 1 12c8 8 20-4 12-12q-6-6-13 0m-132-1c-11 2-7 17 4 17 7 0 10-11 5-16q-3-3-9-1m639 17-2 3h13q15 0 13-1l-5-1q-4 1-8-1-6-5-11 0m70-1q-9 4 11 4c12 0 13 0 12-1q-2-2-6-1-3 2-8-1t-9-1m-136 1-3 2 12 1q13 0 12-1l-5-1h-8c-4-2-4-2-8-1"
        mask="url(#16282281824-posters-1720553470329-radial-mask)" itemprop="regular" fill-opacity="0.90"
        fill-rule="evenodd" stroke="none" fill="url(#16282281824-posters-1720553470329-horizontal-regular)"></path>
      <!---->
      <path id="16282281824-posters-1720553470329-medium"
        d="M758 7c-5 6 2 16 9 13q2 0 2-7 1-9-6-8zM621 9c-7 7 1 16 10 12 7-4 5-14-4-15q-4-1-6 3m73-2-4 1-3 3c-3 8 7 15 14 9 5-6 0-17-7-13M552 9q-5 5-1 11a8 8 0 1 0 1-10m-136 1c-7 6 0 16 9 13q10-5 3-13-6-6-12 0m68-1q-4 6 1 11a8 8 0 1 0-1-11m-132 0q-10 5-3 14a8 8 0 1 0 3-14m-70 1a8 8 0 1 0 8 15 8 8 0 0 0-8-15m-70 2q-6 8 4 14c5 2 12-4 11-10-2-6-10-8-15-4m-67 0q-5 4-4 9 5 9 12 5c10-6 2-19-8-14M10 14c-5 2-7 10-3 13 7 6 18-1 14-9q-5-6-11-4m65 1a8 8 0 1 0 14 1c-2-4-10-4-14-1m508 16q-3 2-4 8l-2 4-4 8c0 2 6 6 9 6l7 5c6 6 8 6 16-2q10-9 5-13l-1-6q-2-9-9-8h-7q-6-3-10-2m67 1-2 4c0 2-3 9-5 10-4 3 1 11 6 11q5 0 9 5c2 3 8 5 10 3q15-10 11-19l-2-6q0-7-9-7l-8-1q-6-3-10 0m69 0-2 5-4 7q-6 9 5 12l9 5 6 4c4 0 16-12 16-15l-2-4-2-7q1-8-8-6l-7-1q-7-4-11 0m-274 1-2 6-4 7q-5 8 5 12 6 2 9 5 6 8 16-3 9-7 5-13l-2-6q0-7-9-7l-8-1q-5-4-10 0m68 1-2 5-3 7q-6 10 4 12 5 1 9 4 7 7 14 1l6-6q4-3 1-10l-2-5q-1-9-9-8l-8-1q-6-4-10 1m-135 1-3 5q0 3-3 7-4 12 6 13l6 4q8 9 15 0l7-6q4-3 1-8l-2-6q-1-10-10-9h-7q-7-4-10 0m-69 1-3 6-2 7q-5 7 4 11l9 6c6 6 7 6 17-4l6-6-1-3-3-8q0-9-9-8l-8-2q-8-2-10 1m-68 1-2 5q0 3-3 7-6 8 2 12l10 5 8 4 7-3 6-5q3-3 1-10l-2-6q0-10-9-8l-8-1q-6-4-10 0m-136 1-3 5q0 4-3 7c-4 6-1 13 5 13q4 0 9 5 5 7 16-3 8-7 5-12l-2-7q0-8-9-8h-8q-6-4-10 0m67 0-2 5-3 7q-8 9 6 13 4 0 7 4 6 10 16-3c7-6 8-7 6-11l-2-6q-2-9-5-9h-3q-7 2-9-1-7-2-11 1M36 40l-2 5-3 7q-6 8 2 11l4 1 6 4c6 6 9 6 17-2 7-7 7-7 4-14l-2-7q0-7-9-6h-6q-8-4-11 1m553 0c-5 1-7 12-2 12l5 3 4 2 4-3c4-5 3-12-3-12l-4-1zm67 0q-7 10 0 12l5 3 4 2 3-2q7-11-3-14l-6-1zm68 2-3 5q-2 4 5 5l3 3q4 5 8-1c5-6 3-14-3-14l-6-1q-3-1-4 3m-274 0-3 4q-3 4 3 7l6 3c6 4 12-2 10-9q-1-6-5-5l-4-1q-4-2-7 1m67 2-2 6q1 3 5 4l4 2q4 4 8-2 6-10-3-12l-7-2q-3-1-5 4m-134 1c-4 7-4 7-3 8l4 2 5 3q4 5 7-1c5-6 2-15-4-13l-3-1q-4-3-6 2m-138 3-3 6q2 3 6 4l4 3q3 5 8-3c5-6 2-13-3-13l-6-1q-4-3-6 4m69-2q-5 11 1 11 3 0 5 3 4 4 8-3c4-5 2-12-5-12l-3-1q-3-3-6 2m-137 1-2 5q-3 4 3 5l5 4q4 5 7-1 7-11-3-14l-6-2q-2-1-4 3M41 48l-2 5q-4 5 2 6t7 5 7-3c4-6 2-13-3-13l-5-2q-4-3-6 2m68 1q-6 10 3 10l4 2c4 5 11-3 9-10q0-4-5-4l-6-1q-2-2-5 3m651 26c-8 4-4 15 5 14h4v-7c0-7 0-7-3-8s-2-1-6 1m-139 1c-7 7 1 18 9 13 6-3 7-11 0-14q-4-2-9 1m69 0a8 8 0 1 0 10 12 8 8 0 0 0-10-12m-136 0q-4 2-5 8c0 6 11 10 15 5 6-7-1-16-10-13m-136 2q-4 1-4 6-1 9 9 8c9-1 10-11 2-15-4-1-3-1-7 1m66 0q-5 7 1 12a8 8 0 1 0-1-12m-133 0q-8 6-3 14 7 4 12 0c7-7 0-17-9-14m-67 1c-9 4-7 16 3 15 9 0 11-11 3-15l-4-1zm-70 2q-6 3-4 9a8 8 0 1 0 4-10M77 83q-7 6-1 12t11 1c8-8-2-19-10-13m68-1q-4 2-4 8a8 8 0 1 0 4-8M9 82q-7 5-3 12c3 4 11 4 13 1 5-7-1-16-10-13m711 18-3 5-4 8-2 5c0 3 6 7 9 7q3 0 6 4 7 10 21-6 4-5 1-8l-2-6q1-9-9-8l-8-1q-6-3-9 0m-207 1-2 5q0 3-3 7-7 10 5 13l7 4q8 10 18-2 7-7 4-12l-2-6q0-9-9-8l-8-1q-6-4-10 0m69-1-2 5-4 9-3 7 9 5 7 4q8 9 14 0l6-5q3-1 2-9l-3-8q-1-7-9-7h-7q-6-3-10-1m68 1-2 5-3 7q-8 9 6 13l7 4q6 9 16-2c7-6 7-8 5-14l-2-7q0-6-9-6h-7q-6-4-11 0m-251 1q-6 4-10 1-14-3-14 6l-3 7q-6 10 5 12l8 5c6 6 8 5 16-2q11-9 6-11-3-4 0-12 6-12-8-6m45 1-2 6-2 6q-7 8 4 11l8 6c6 5 9 4 17-3q9-7 5-13l-2-6q-1-8-10-7l-6-1q-8-5-12 1m-203 2-2 6-2 6q-7 11 4 13l8 5c6 6 8 5 15-2q10-9 6-13l-2-6q1-9-9-8l-9-1q-6-4-9 0m70-1q-5 3-5 7l-3 7-2 5 2 3 6 3 8 5q7 8 13 0l6-5q4-3 2-10l-2-6q1-8-10-8l-10-1zm-138 1-3 5-3 9q-7 10 7 12l5 4q5 7 10 4c5-3 14-13 13-15l-3-12q0-6-9-5l-8-1q-7-3-9-1m-137 2-2 5-2 7q-7 10 4 13l7 4c7 6 9 6 17-2q9-7 5-13l-2-5q-1-11-11-9h-5q-7-4-11 0m69-1-2 6-3 7q-7 10 5 13l7 4q6 9 17-2c7-7 7-7 5-12l-2-7q0-9-10-8h-7q-6-3-10-1m620 2-1 2-2 4q-4 4 3 6l4 3q4 4 8-1 7-10-3-13l-6-1zm-275 1-1 3-2 3q-4 5 3 7l6 3q4 5 7-2c5-5 4-12-2-13l-5-1zm68 4-3 5 5 4 5 2 3 2 4-3q7-10-4-13l-6-1q-1-2-4 4m69-2-3 5q-3 5 4 5l5 3q3 4 7-1 6-11-4-14l-5-1q-3-1-4 3m67 1-3 6q2 3 6 4l4 2q4 3 8-2 5-10-4-13c-7-2-8-1-11 3m-407 0q-10 15-1 14l6 3q4 6 9-1 5-11-3-14l-6-2zm66 4q-6 10 2 9l5 2q3 3 5 2c7-4 7-16-1-17h-6q-3-2-5 4m69-2-2 4q-2 5 4 6l5 3q4 5 7-1 8-11-7-14-7-2-7 2m-340 1-2 3-2 3q-3 4 4 6l5 4q4 5 7-2c5-6 3-15-2-13l-5-1q-4-3-5 0m136-1-4 7q-1 5 4 6l6 3 3 4 4-4q8-12-4-15l-6-1zm-70 5q-6 9 3 9 2 0 5 3l3 3 4-4q4-4 2-9 0-8-4-5l-4-1q-4-4-9 4m650 25c-5 6-1 13 7 13h4v-7q1-7-2-7-5-2-9 1m-136 1q-7 7 1 13c8 5 16-6 10-13q-6-5-11 0m68-1c-7 5-4 14 5 14q7-1 8-7c0-5-9-10-13-7m-272 1a9 9 0 1 0 11 3q-4-6-11-3m70 0a8 8 0 0 0 3 16q6 0 7-6c3-6-3-12-10-10m65 0-3 5a8 8 0 1 0 3-5m-204 4q-7 12 6 14c7 0 11-9 5-14q-6-6-11 0m-67-1a8 8 0 1 0 11 2q-5-4-11-2m-134 1q-9 3-7 10c3 10 17 7 17-3l-1-4c-2-2-8-4-9-3m66 0q-4 3-5 8c0 2 6 7 9 7q7-1 9-8c1-6-7-10-13-7m-137 2c-6 3-4 12 3 14a8 8 0 1 0-3-14m-67 0c-6 2-7 9-2 13a8 8 0 1 0 2-13m642 16q-4 2-4 6l-3 8q-7 11 5 12 4 1 6 4 8 10 19-2c6-6 7-7 3-13l-1-6q1-7-9-7l-9-1q-3-3-7-1m-139 2-2 4q0 6-5 11c-3 3 0 9 8 10l6 4c8 6 9 6 16-1 8-7 9-8 7-11l-3-8q0-8-8-8l-8-1q-7-3-11 0m69-1-2 6-4 7q-5 12 6 13 3 0 5 3 9 11 19-1 9-9 3-13l-1-6q0-9-8-7l-9-1q-6-3-9-1m137 1-2 3-3 8c-5 8-4 9 8 14l6 4q5 7 15-4 6-6 5-8l-2-8c-2-8-3-9-11-9l-11-2q-4 0-5 2m-275 2-2 5-2 6-3 6q1 6 7 7 4 0 9 5 6 6 14-1l6-5q4-3 1-10l-2-8q0-7-10-6l-8-1q-6-3-10 2m-66 1q-2 2-3 7l-3 7q-5 8 6 12l7 4q7 8 14 0l6-5q5-5 2-10l-2-7q-1-8-9-7l-9-1q-5-3-9 0m-137 2-2 4-2 6q-7 11 3 14l9 5c6 6 8 5 15-2q10-9 6-13l-2-6q1-8-9-8l-8-1q-6-4-10 1m69-2q-2 2-3 7l-3 7q-6 9 5 11l6 3 4 3 2 2q2 4 12-5l7-7-2-5-2-8q-1-8-9-7-4 2-7-1zm-137 1-3 6-4 8q-6 9 5 11l9 6q7 7 15-2l6-5q3-1 0-8l-2-8q1-7-10-7l-10-2zm-134 1q-4 1-6 7 0 4-3 8-6 10 5 11 4 0 8 5c6 6 9 6 17-2q9-7 4-13l-1-7q1-7-9-7l-9-1q-4-3-6-1m67 0-3 6-3 8-3 6q1 5 7 6 4 0 9 5 6 9 15-3c8-7 8-7 5-11l-2-8q1-9-8-7l-8-1q-6-3-9-1m618 3-3 4q-3 6 2 7l7 3q4 6 7 1c5-6 5-15 0-16l-6-1q-6-2-7 2m-69 2q-6 9 2 10l3 2c5 6 13-1 11-10q0-5-6-4l-6-1q-2-1-4 3m-135-2q-7 11-1 12l6 3 3 2 3-2c5-3 3-15-2-14q-2 1-4-1zm68 0-1 1-2 4q-4 7 3 8 3 0 5 3l3 3 4-4q4-4 3-9v-4l-5-1-7-1zm-139 4-3 5q1 3 5 4l5 3c4 3 3 3 7-1q8-10-3-13l-6-1q-2-2-5 3m-65-1-3 5-3 5 2 1 4 2 4 3q5 5 8-2c5-6 3-14-2-13q-2 1-5-1zm-207 2-2 5q-3 6 3 7 3 0 5 3c3 5 12-1 11-9q-1-7-6-6h-5q-4-3-6 0m68 3q-4 9 2 9 3 0 5 3l4 2c2 0 6-7 6-10q1-8-5-7l-7-2q-3-1-5 5m69-2-3 5q-2 4 4 5l5 3q5 5 8-3c4-5 0-13-4-11h-3q-5-4-7 1m-205 3q-6 8 1 9l6 4q5 5 8-2 5-12-4-14l-6-1q-2-2-5 4m-67-2-3 5q-5 7 3 7l5 2q5 4 8-1 3-7 1-11c-2-2-14-4-14-2m718 27c-8 3-4 16 6 15l3-1v-7q1-12-9-7m-137 1c-8 3-5 15 3 15 9 0 12-10 5-14q-3-3-8-1m69 0c-8 4-5 14 4 14q4 0 5-2c5-8-2-16-9-12m-207 3a8 8 0 1 0 10-1q-6-4-10 1m68-2c-7 4-4 15 5 15q9 1 8-8-1-10-13-7m-135 1c-3 1-5 7-4 10 3 8 15 6 17-2 1-5-7-10-13-8m-66 1a8 8 0 1 0 4-1zm-138 2c-5 2-5 9-1 12a8 8 0 1 0 1-12m66 1c-5 6-1 14 7 14 7 0 11-9 6-13q-7-6-13-1m-202 1c-8 4-5 15 4 15q8-2 9-8c0-5-9-10-13-7m64 2c-2 4-2 4 0 8 4 9 17 4 16-5-2-8-11-9-16-3M8 220c-8 5-2 17 7 14 7-1 9-8 4-13q-4-5-11-1m711 17q-2 1-2 5l-3 7q-8 10 5 13 5 1 7 4 6 9 17-2c7-8 7-8 4-13l-2-7q1-7-8-6l-9-1q-5-3-9 0m-202 0q-6 1-6 6l-3 8q-6 6-1 9 2 3 6 3 3 0 7 4c6 7 9 6 18-2 5-6 6-7 4-13l-2-8q1-5-9-5l-8-1zm65 0-2 6-3 8-3 5c0 2 6 7 8 7l7 4c6 6 9 6 17-2 6-7 7-8 5-12l-2-4-1-7q-1-4-7-2-5 1-9-2-6-3-10-1m68 0-2 4-3 8-3 7q2 5 9 7l6 3c6 7 9 7 17-1q9-7 5-13l-2-7q0-7-8-7-5 1-7-1zm-204 1-4 7q-1 5-3 7-5 8 7 12l5 3 4 3q8 5 12-1l5-5q5-4 2-11l-2-6q0-9-10-7l-8-1q-6-3-8-1m-135 2-5 9-2 5q-7 9 4 13 4 0 9 4c6 6 8 5 16-2q9-7 5-12l-2-6q0-10-9-9l-9-1q-4-3-7-1m67 1-2 5-3 6q-7 12 5 14 3 0 7 4c6 6 8 5 16-1 8-7 8-8 6-11l-2-7q0-12-10-9l-7-1q-6-3-10 0m-137 1-2 5q0 4-3 8-6 10 4 12l9 5c5 5 7 5 15-1q10-8 6-14l-2-6q1-8-9-8l-9-1q-7-4-9 0m-67 0-3 6-4 7c-5 6-1 14 7 14l7 4c5 5 6 5 14-2s9-7 7-12l-2-6q0-10-10-9l-8-1c-6-2-6-2-8-1m-135 1q-5 1-5 6l-4 9-2 5 3 3 5 3 7 5q9 7 14 1l6-5q6-4 2-12l-2-7q0-6-9-6l-8-1q-3-3-7-1m66 1-3 6-3 7q-5 8 6 12 4 0 7 4 7 9 14 0l6-5q5-4 2-10l-2-6q-1-9-9-8-4 1-7-1-7-2-11 1m617 4q-4 9 2 9 3 0 5 3 4 5 8-1c5-5 3-15-2-14q-2 1-4-1-5-3-9 4m-135-1-3 5c-3 1 1 7 4 7l4 3q5 5 9-2c3-4 3-4 2-9q-1-6-6-5l-4-1q-4-3-6 2m70-2-2 2-1 3q-5 6 4 9l4 2c3 3 9-2 9-8q1-7-5-5l-4-1q-3-4-5-2m-137 1q-7 12 0 13l5 2q5 5 8-1 6-10-4-13l-6-1zm-71 4q-4 10 3 10l5 3 2 2 4-3c5-6 4-14-2-14l-4-1q-4-3-8 3m-65-2q-8 12 0 13l4 2q4 5 8-1c5-4 3-14-2-13q-4 1-6-1zm-69 1q-8 11 1 13l4 3 3 1c2 0 7-6 7-8l-1-3q-1-5-5-4l-3-1q-4-2-6-1m-68 1-1 2-3 4q-4 7 4 7 2 0 5 3 4 5 8-3 6-10-3-12l-5-1zm-138 5q-7 9 2 9 3 0 5 3 4 5 7-1c5-5 3-13-3-14l-5-1q-3-3-6 4m67 0q-5 7 2 8l5 4q5 5 9-2 6-10-5-13l-6-1q-1-2-5 4m-134-1-3 4q-3 6 5 7l4 3 2 2 4-4c5-5 4-14-2-12l-4-1q-4-4-6 1m581 27q-6 3-4 10c3 5 11 6 14 2 6-7-2-16-10-12m135 0c-6 7 1 17 9 13 3 0 3-14 0-14q-5-2-9 1m-204 1c-7 4-6 13 3 15a8 8 0 1 0-3-15m-135 0a8 8 0 1 0 11 6q-2-8-11-6m67 0a9 9 0 1 0 9 15 9 9 0 0 0-9-15m-134 2a8 8 0 1 0 5 16 8 8 0 0 0-5-16m-74 2c-5 5-1 13 7 15 8 1 14-10 7-15q-8-3-14 0m-134 2c-6 6-2 13 6 13s11-8 5-13q-6-6-11 0m70-2c-5 3-5 10 0 13a8 8 0 1 0 0-13m-138 2c-5 4-3 11 2 13q12 5 12-8c-1-7-9-10-14-5m-65 0a8 8 0 0 0 2 15 8 8 0 1 0-2-15m708 17q-2 1-2 5t-3 8q-8 8 5 12 5 0 8 5 6 7 16-3c6-6 7-7 5-12l-2-7q-1-9-9-7l-8-1q-5-3-10 0m-134 0q-5 2-5 5l-3 9-3 7c0 2 6 5 8 5l6 3c6 8 9 8 17 0q10-9 6-13l-2-4q0-12-9-10l-8-1q-5-3-7-1m65 1-2 5q0 4-3 8l-3 4q1 5 8 7 5 1 8 5 6 9 15-1l6-5q3-1 0-9l-2-7q-1-9-9-7h-7q-6-4-11 0m-205 1-2 5-2 6q-8 12 4 13l8 5q7 9 15-1 10-7 6-12l-2-8q1-9-8-7l-8-1q-6-4-11 0m68 0-2 6q0 4-3 7-6 9 6 11 4 1 7 5 9 8 14 0l6-5q4-2 1-8l-2-8q1-8-8-7l-8-2q-5-3-11 1m-134 1q-3 1-4 7 0 4-3 6-6 10 6 13l8 5q6 8 13 0c10-9 10-9 7-15l-1-4c1-1-1-8-3-9l-7-1-6-1q-4-2-10-1m-135 1q-5 2-5 7l-3 7q-7 10 6 13l7 4q6 9 16-2 8-7 5-13l-2-5q0-10-8-9-5 2-9-1l-5-2zm65 1q-2 1-2 5t-3 8q-6 6 0 10l5 2c2 0 11 6 11 7l4 1q3 1 10-7l6-6-1-3-3-8q-1-11-9-8l-7-1q-5-3-11 0m-203 1q-3 3-3 5l-2 7q-7 12 6 14l4 3q7 10 18-2l6-5-1-4-2-9q-1-8-9-8l-9-1c-5-2-5-2-8 0m66 0-2 6-4 8-1 4q1 7 7 7l6 4q10 9 17 0l4-4c3-3 3-3 1-15q-1-10-10-9l-8-2q-6-2-10 1m-133 0q-6 3-6 8l-2 6q-7 9 5 12l8 5q7 9 16-1c8-9 7-8 5-14l-2-6q0-10-9-8l-8-1c-6-2-5-2-7-1m686 2-2 3-2 3q-3 5 4 7l5 2c4 4 11-2 10-9q0-7-5-6-2 1-5-1-4-2-5 1m-69 0-1 2-2 4q-4 7 3 7 3 0 5 3 5 4 9-2c3-6 1-14-4-13h-4q-4-3-6-1m-204 1-1 1-3 5q-5 5 3 8l5 3q3 3 6 0 8-4 4-10-2-8-5-5l-4-1q-3-2-5-1m134 4-3 5 2 2 4 2 4 2c4 5 10-1 9-9-1-5 0-4-11-7q-2 0-5 5m-65-3-2 2-2 4q-4 5 2 5 2 0 6 4l3 3 3-3c6-5 5-14-1-15zm-273 2-5 11q0 3 5 3l4 3q3 5 8-2c5-5 3-13-4-13l-4-1q-1-3-4-1m-71 5q-6 10 3 10l4 2q3 4 7-1c5-6 3-13-2-13l-6-1q-4-4-6 3m138-4-1 3-2 2q-3 4 3 7l6 4 2 3 3-4c5-5 4-16-2-14l-4-1zm67 3q-4 8 1 8l6 3q3 2 4 1c9-4 8-12-1-15q-9-3-10 3m-272 1-3 5q-2 4 4 5l4 3q4 5 9-1c4-5 2-15-3-14q-3 1-5-1-4-3-6 3m-70 3q-5 9 1 8l5 2c7 6 14-2 10-12q0-2-4-2h-7q-1-2-5 4m721 23c-9 3-4 16 5 14q4 2 3-7 1-13-8-7m-70 0a8 8 0 1 0 7 14 8 8 0 0 0-7-14m-137 1c-7 4-6 13 1 15q4 2 7-1c9-5 1-18-8-14m67 1q-4 4 0 10a8 8 0 1 0 0-10m-203 2q-9 5-1 12c7 6 18-4 13-11q-5-6-12-1m67-1q-7 9 4 14c5 2 11-4 10-9q-5-11-14-5m-202 1q-4 3-6 9c0 6 11 10 15 5 6-6-1-17-9-14m66 2q-7 8 3 13a8 8 0 1 0-3-13m-137 1q-5 6 1 12a8 8 0 1 0-1-12m-202 0c-9 5-7 16 3 16q6 1 8-5 3-7-4-10-3-3-7-1m66 2q-6 6 0 11a8 8 0 1 0 0-11m67 0q-6 4 0 9c5 6 13 4 15-3 1-8-10-13-15-6m578 15q-3 2-4 8l-3 6q-7 8 5 12 3 0 7 5c7 6 9 5 17-3q9-8 5-12l-2-6q1-8-8-8l-14-3zm-138 2q-3 2-3 6-1 5-4 7-6 10 6 13l7 4q7 8 14 0l7-6q5-1 0-10l-2-8q0-5-9-5l-10-1c-4-2-3-2-6 0m69-1q-4 2-4 6 0 3-3 7-6 12 7 14 2-1 8 6 3 8 14-4c7-7 7-7 6-11l-2-8q-1-10-10-9h-8q-5-3-8-1m-137 1q-3 2-4 8l-2 6q-7 10 5 12l7 5c6 6 8 5 16-2q10-9 6-13l-2-4q-1-12-10-10-3 1-7-1c-6-2-6-2-9-1m-71 2-2 6q0 4-3 6-5 9 6 12 4 1 6 4 9 9 17 1l5-5q4-1 1-10l-2-8q1-5-9-6l-12-2q-6-1-7 2m-133 1q-4 3-5 9l-2 4a8 8 0 0 0 6 14l6 4q7 7 13 1l7-7q6-5 3-8l-3-6q0-10-9-9l-9-1q-4-3-7-1m68 0q-3 0-4 7l-4 9c-3 4 2 10 8 10l6 5c6 5 7 5 16-2 8-7 8-8 6-14l-2-7q0-7-9-7h-8q-5-3-9-1m-206 2-3 6-4 8q-6 9 6 12l8 5c6 5 7 5 15-2s9-7 7-12l-2-5q0-12-10-11h-7q-6-3-10-1m68 0-2 5q0 6-4 11-5 6 6 10l7 4q7 9 16-2c8-7 8-8 5-15l-1-5q2-7-11-7l-11-2zm-205 2-2 5-2 7q-6 12 4 13 3 0 8 5 7 8 13 0l6-5q6-3 2-11l-2-7q1-6-8-6l-9-1q-6-4-10 0m69-1-3 6-2 8q-6 10 6 12l6 4c6 6 8 6 17-2 6-6 7-7 5-12l-2-7q-1-8-9-8h-7q-7-3-11-1m620 2q-6 7-3 10l3 2 5 3 4 2 4-3c6-6 3-15-4-15h-6q-2-2-3 1m-136 0-6 9q0 3 5 4l5 3q3 5 8-2c4-5 2-12-4-13l-6-1zm67 0q-6 11-1 12l6 3 4 2 3-3q5-3 3-10-2-4-5-3-2 1-5-1zm-206 4q-6 8 1 9l5 3q4 5 8-1 7-10-4-13l-6-1q-1-1-4 3m68 0q-6 10 2 10 3 0 4 3c4 5 11 0 11-9v-5l-5-1-5-1q-3-3-7 3m-134-1-3 5q-3 8 2 8l6 3 3 2 4-3q8-12-3-14l-6-1zm-138 2-1 3-2 3q-3 6 3 7 3 0 5 3c5 3 5 3 9-2 5-5 3-12-4-13l-6-1zm67 3q-3 8 4 9l3 3q4 5 7-1 8-10-3-13l-6-2q-2-1-5 4m-201-2-3 5q-4 8 2 8l5 3q4 4 8-2c3-5 2-12-2-12l-6-1q-2-2-4-1m67 0q-7 10-3 10l3 2q3 0 4 3 2 5 8-1c6-4 4-11-4-12l-5-2zm-137 3-4 5q-3 5 5 6 3 0 5 3 2 5 7-2 6-10-3-13l-6-2q-3-1-4 3m718 26q-8 4-2 11 4 5 10 2c2-3 1-14-1-14q-3-2-7 1m-69 0c-6 2-6 11-1 14a8 8 0 1 0 1-14m-203 1a8 8 0 0 0 3 16q4 1 7-4c5-6-1-14-10-12m66 1q-3 1-3 3l-1 3 1 4a8 8 0 1 0 3-10m66 1q-3 4-1 8c2 5 11 6 15 2 5-9-7-18-14-10m-200-1c-7 2-8 10-2 14a8 8 0 1 0 2-14m-68 2q-9 6-3 13a8 8 0 1 0 3-13m-69 1a8 8 0 1 0 11 4c-1-2-7-5-8-5zm-66 1a8 8 0 1 0 2 15 8 8 0 0 0-2-15M9 425a8 8 0 1 0 8 14 8 8 0 0 0-8-14m68 0a8 8 0 1 0 11 13 8 8 0 0 0-11-13m67 0q-7 6-1 11a8 8 0 1 0 1-11m506 18-2 5-2 6c-5 6-2 13 6 13l6 4q7 9 14 0l6-5q4-2 1-10l-2-7q0-8-8-7h-8q-8-4-11 1m69-1-2 5-3 7q-6 11 6 12l7 5c6 6 8 5 16-2 6-7 6-7 4-13l-2-7q1-8-8-7-4 1-7-1-8-3-11 1m-204 0q-4 3-4 10l-3 5q-6 8 7 12l6 3c7 7 8 6 16-1 7-7 8-8 5-13l-2-7q-2-9-8-7-3 1-7-1-6-3-10-1m67 1-2 3q0 6-4 10-6 7 5 11l8 5c7 5 8 5 16-2q11-8 5-13l-1-6q1-8-10-8l-11-2zm-137 1-2 5q0 3-3 7-7 11 6 12 4 1 7 5 6 9 16-2c6-6 7-7 5-14l-2-7q-1-7-9-6h-7q-8-4-11 0m-65 1q-3 1-4 6l-4 8q-5 11 5 12 4 0 10 6 4 7 13-2l7-6v-10l-2-7q-1-6-9-6l-10-1q-4-3-6 0m-72 2-2 5-2 7q-6 11 6 12l6 5c6 6 9 5 17-2q9-8 5-12l-2-7q0-9-10-8l-11-2q-5 0-7 2m-202 1q-3 2-4 6 0 5-3 8-6 9 7 12l7 4q4 4 9 4l7-6 6-6-1-4-2-9q-1-9-9-8l-9-1q-5-3-8 0m68 0q-3 1-3 5l-4 8q-6 9 6 13l8 4c6 6 8 5 16-3l6-6-1-4-2-9q0-8-9-7l-9-1q-4-3-8 0m67 1-2 4-2 6q-8 11 3 14l8 4c6 6 9 6 17-2q9-7 5-13l-2-6q0-8-9-7l-8-1q-7-4-10 1m-203-1q-3 2-4 9l-3 6-2 5c0 2 5 7 9 7l6 4q7 9 14 1l6-6q5-1 2-10l-3-8q-1-7-9-6l-7-1c-6-2-6-2-9-1m688 0q-10 14-1 14 3 0 4 3c5 7 14-2 11-12q0-4-5-3l-5-1q-3-3-4-1m-276 5-2 5q-3 4 4 6l5 3c3 5 12-2 10-8q-1-8-6-7l-6-1q-4-4-5 2m138-3q-5 9-3 11l3 2 4 3 4 2c1 0 7-6 7-9 1-2-3-8-5-8q-2 1-4-1zm68 0q-6 11-1 12l6 3c4 3 4 3 8-1q7-11-3-14l-6-1zm-137 3-3 5q-1 4 4 5l5 4 3 2 4-4c4-4 4-4 3-8q-1-6-6-5l-6-1q-1-1-4 2m-204 0-1 3-2 3q-3 6 3 8l5 3q3 5 8-1c5-5 3-15-3-14q-2 1-5-1-4-2-5-1m68 4q-6 9 3 10l3 2c3 5 10 0 10-7q0-7-6-7l-6-1q-1-2-4 3m-271-1q-10 12-2 13 5 0 6 3c5 6 12-1 10-9q-1-7-6-5l-4-1q-3-3-4-1m66 2-3 4c-3 2 0 7 4 7l5 2 3 2 4-3q7-10-3-13l-6-2q-4-1-4 3m69-2-1 3-1 2c-4 3-1 12 3 10q3-2 5 1 9 3 9-11v-4l-5-1zm-206 5-3 6q1 3 4 2c1-1 6 1 6 2q2 7 8-1 5-9-3-11l-6-2q-3-2-6 4m582 24c-8 4-5 14 4 15q8 0 8-8-1-9-12-7m68 0c-6 4-5 12 1 14a8 8 0 1 0-1-14m69 0c-6 3-5 11 2 14q8 3 7-8-1-10-9-6m-207 2c-5 5-3 13 4 14q8 0 9-8c0-7-8-11-13-6m-136 2q-6 5 1 12 6 5 11-1c7-7-4-18-12-11m68-1q-6 5 0 12c8 8 19-3 11-10-2-2-9-4-11-2m-135 2a8 8 0 1 0 10 13 8 8 0 0 0-10-13m-69 2a8 8 0 1 0 12 1q-6-7-12-1m-66-1c-8 3-6 15 3 15q8-1 9-7-1-11-12-8m-139 2c-5 5-3 13 5 14q6 1 9-4c4-8-6-16-14-10m68 1q-6 4 0 10a8 8 0 1 0 0-10M9 493c-7 4-4 13 4 15q8 0 9-8c0-7-8-10-13-7m642 17-2 2h13q16 0 7-1l-9-2q-6-2-9 1m68 0-2 2h13q13 0 12-1h-6l-6-1q-6-4-11 0"
        mask="url(#16282281824-posters-1720553470329-vertical-mask)" itemprop="medium" fill-opacity="0.90"
        fill-rule="evenodd" stroke="none" fill="url(#16282281824-posters-1720553470329-vertical-medium)"></path>
      <!---->
      <path id="16282281824-posters-1720553470329-bold"
        d="M762 6c-9 3-7 15 3 14h4v-6q0-11-7-8M621 9c-4 4-2 12 4 12q11-1 9-10-6-7-13-2m72-1q-9 2-4 11c7 6 17-2 12-10q0-3-8-1m-208 3q-6 4 0 9a7 7 0 1 0 0-9m68-1c-6 3-2 13 4 13 3 0 9-5 9-8 0-5-8-9-13-5m-136 1c-6 5-3 13 5 12q7 0 8-5c1-8-7-12-13-7m-68 1c-6 5 1 16 8 13q10-5 3-12-6-5-11-1m-68 1q-4 4-1 10c5 6 14 2 14-5 0-6-8-9-13-5m-69 1q-5 5 0 10c5 5 14 2 14-4 0-7-8-11-14-6M77 15q-6 6 0 11 11 7 12-5c0-7-7-10-12-6m67 1q-6 4 0 9a7 7 0 1 0 0-9M7 17q-4 4 0 10c6 5 16-1 13-8-1-6-9-7-13-2m643 15-2 5-2 7q-6 12 5 13l6 3q6 6 11 4l12-12-2-4-2-8q1-8-10-7l-6-1q-4-3-10 0m70 0q-3 2-3 5t-5 10q-2 6 4 8l4 1 2 1 5 4q6 8 15-3 7-7 5-9l-2-9-2-6-6-1-9-1q-3-4-8 0m-206 1-3 6q0 3-4 9-3 8 6 9l8 5 7 4c2 0 7-3 7-5l4-3q6-3 3-9l-2-6q0-9-8-9-5 2-9-1c-6-2-6-2-9 0m68 0-2 5-3 7q-8 8 4 11l9 6c6 6 7 5 16-4l5-5-2-7-2-9q-3-5-8-3-1 2-7-1-7-4-10 0m-136 0-3 6-3 8q-5 7 5 10l8 5c5 6 7 5 16-2l6-7-2-5-2-8q0-6-9-5l-6-1q-4-3-10-1m-67 2-3 5-3 8c-4 7-3 8 4 11q6 3 7 5 6 6 14 0l6-5q5-4 1-10l-1-6q0-7-9-7l-9-1q-5-3-7 0m-70 1-1 5-4 8q-5 7 2 10l6 2 4 4q6 8 14 0l6-6q3-3 0-9l-1-6q1-7-8-6l-8-1q-6-3-10-1m-203 1-3 7-4 7c-4 4 1 12 7 12l6 3q7 9 16-1 9-7 5-13l-2-6q1-8-9-7l-8-1q-5-3-8-1m67 0-2 6-4 7q-6 8 5 12 6 2 9 5 5 8 15-3c7-7 7-7 4-12l-2-8q1-7-9-5l-7-1q-4-3-9-1m68 2-2 5-2 6q-7 9 3 11 4 0 10 6 5 5 12-1l5-3c3 0 4-8 2-12l-2-6q0-8-8-6l-7-1q-9-5-11 1M37 40l-2 4q0 4-3 7-5 11 4 12l7 5c7 6 8 5 16-2 7-7 8-8 5-11l-1-5q0-11-10-9l-6-1q-6-3-10 0m552-1c-7 3-7 14-1 14l3 1q4 6 9 0c5-5 3-13-3-13l-4-1q-1-3-4-1m67 0q-8 13 1 14l4 2q4 5 7-1 4-2 3-8 0-5-5-5l-5-1q-2-3-5-1m67 2-2 6q-3 5 4 6 4 0 5 2c3 8 13-2 10-11q0-5-5-4l-4-1q-4-3-8 2m-272-1q-6 6-5 10-1 3 4 4l6 3c4 3 4 3 8-1 6-5 4-14-4-15l-6-1zm69 0c-3 1-6 9-6 11l5 3 5 3q4 4 9-3l3-4-2-4q-1-5-5-5l-6-1zm-138 5-3 5q-2 5 5 6 3 0 5 3 3 5 7-1 4-2 3-8 1-8-7-7l-4-1q-1-4-6 3m-204-1-1 3-2 3q-5 6 3 9 3 0 5 3 3 5 8-1c4-6 3-17-2-15l-6-1q-3-3-5-1m68 0-2 5-3 5c0 2 6 5 8 5l3 3q3 5 6-1c6-5 6-6 5-11q-1-7-6-6l-7-1zm68 1q-8 11 1 13l5 2c4 5 12-2 10-9q1-6-7-7-8-2-9 1M42 46l-2 3-1 3q-5 6 3 8 3 0 5 3 5 6 9-3c4-6 1-13-4-13l-6-1q-2-3-4 0m67 2q-8 11 1 11 4 0 5 3 4 5 9-3c3-4 3-4 2-8q-2-5-6-5l-4-1q-3-3-7 3m651 28q-7 5 0 11 10 6 9-5 0-12-9-6m-138 1c-6 4-3 12 5 12q7 0 8-7c0-6-8-9-13-5m68-1c-7 5 0 15 8 13 3 0 6-7 4-10q-6-6-12-3m-205 3q-6 6 0 10 4 6 10 1c5-3 3-13-3-13l-3-1zm67-1q-5 10 6 12c7 0 11-8 5-12q-8-4-11 0m-133 0c-8 4-5 15 4 14a7 7 0 1 0-4-14m-67 1c-7 1-7 12 0 15 4 1 11-4 11-8q-2-7-11-7m-71 2q-3 5-2 9c4 6 15 4 15-4 0-6-8-9-13-5m-67 0q-6 5-2 12c6 5 14 1 14-6q-1-10-12-6M77 84c-5 5-2 12 5 12a7 7 0 1 0-5-12m68-2q-4 4-3 9c0 4 8 7 12 4 8-5-1-18-9-13M7 84c-5 6-1 13 6 13q7 0 7-7c0-7-8-11-13-6m507 18-3 5q0 4-3 7-4 6-2 7 4 5 9 5l4 3c7 7 10 6 18-1q9-8 4-11l-1-6q0-9-10-9l-9-1q-4-4-7 1m69-2-2 5-4 8q-7 9 5 12l8 5q6 8 12 0l7-6 2-2-1-7c-4-14-3-13-11-13l-9-2zm67 1-2 6-1 5-3 4q-4 6 6 9l8 5 4 3h3c2 1 15-11 15-13l-2-6-2-7q1-6-8-5l-9-1q-5-3-9 0m69 1-2 5-3 6q-5 11 7 11l5 4q6 8 14 1l5-6q5-4 2-8l-1-5q0-10-8-8l-9-2q-7-3-10 2m-320 1c-4 2-12 2-14 0-2-4-9 1-9 5q0 4-3 7-8 9 4 13l9 5q6 7 15-3 10-7 4-15-2-1 3-10c3-4-3-5-9-2m45 2-2 6-2 5q-5 9 5 10l6 4c7 7 9 6 17-1 7-7 8-8 5-11l-2-7c0-6-5-10-7-8q-4 2-8-1-8-4-12 3m-203 2-2 5-3 7q-4 10 3 10 6 1 11 6 5 6 11 1l5-6 4-4-1-4-2-9c-1-6-1-6-8-6l-8-2q-6-3-10 2m68-1-2 5-2 6q-6 10 5 12 3 0 6 4c6 6 8 6 15-1 8-6 8-7 6-14l-2-6q0-7-9-7l-10-1q-5-1-7 2m-272 1-2 4-4 9v9l5 2 8 5c6 5 8 5 16-3l6-6-1-4-2-5q0-10-9-10l-8-2q-5-3-9 1m69 0-2 4q0 3-3 7-8 10 4 13l8 5c5 6 7 5 15-2q9-10 5-12l-2-6q0-11-9-8l-8-1q-5-3-8 0m66-1-1 5-4 8q-6 9 5 11l8 5q6 8 13 0l6-5c3-2 3-12 0-14l-1-3q1-7-9-6l-8-1zm553 1-1 1-2 4q-5 7 3 9l5 3q3 5 8-2c5-5 3-15-3-14h-5l-3-2zm-275 1-1 3-1 3c-3 2-2 8 1 8l5 2c6 4 6 4 9 1a9 9 0 0 0-3-16h-4q-3-3-6-1m70 0q-9 13 0 14l5 3q3 3 5 0 7-5 5-10-2-7-7-6l-4-1zm67 0-1 4-3 4q-4 5 5 6 3 0 4 3 4 5 8-2 7-11-4-14l-6-1zm69 0-1 1-2 4q-6 8 3 9l5 2c4 4 10 0 10-8q1-6-5-7l-6-1zm-410 6-3 5-1 1q-2 2 1 6l4 1 5 3 4 3a14 14 0 0 0 7-8v-7q-2-5-5-5l-7-1-3-2zm69-3-4 6q-4 9 3 8l5 3q5 5 9-1 4-3 3-8 0-9-6-7l-5-1zm67 2-3 4q-4 6 5 8l5 3q3 5 8-2 7-11-4-14l-7-2q-3-1-4 3m-340 1-2 3-1 3q-5 6 4 8 2 0 3 3 4 5 9-2 8-12-3-14l-6-1q-2-3-4 0m136-1-1 2-2 5q-4 6 2 7l6 3q4 6 9-1c5-7 2-16-4-15h-5q-2-3-5-1m-68 1-1 3-2 4q-5 5 3 7 3 0 5 3 5 5 9-2c3-4 3-4 2-9l-2-5h-4l-4-1zm649 31q-7 7 3 11 8 4 7-6 1-6-3-7-3-2-7 2m-204 0c-7 2-6 11 1 14 4 2 10-2 10-7q-2-9-11-7m66 2q-5 7 2 10a7 7 0 1 0-2-10m68-1-2 5c0 6 9 9 14 3q5-3-1-7-6-6-11-1m-273 1c-5 5-1 13 5 13 8 1 12-8 6-13q-6-4-11 0m69 1q-6 6 0 10c6 5 13 2 13-6 0-7-8-10-13-4m-201 0q-5 2-6 8c2 8 16 8 16 0q0-9-10-8m65 2q-5 6 2 11 6 4 11-3c4-8-8-15-13-8m-133-1-4 3c-6 7 6 15 12 9 5-6-1-16-8-12m-70 1c-8 2-6 14 3 14q8 0 8-7 0-9-11-7m-69 1a8 8 0 1 0 10 1q-6-3-10-1m-70 2q-5 6 1 10 11 7 12-5c0-6-8-9-13-5m507 16-3 6-3 8-3 5q2 3 9 6l7 4q6 8 15-1l6-5v-7l-2-6q1-9-9-9l-7-1q-6-3-10 0m138-1q-3 1-4 7l-3 7q-6 8 2 10c3 0 10 3 10 4q1 4 8 5 3 1 9-6c6-6 7-7 5-12l-2-4q0-10-9-9l-8-2zm-206 2-3 6-3 7q-5 8 4 11l9 5q7 7 13 0l6-5q3-2 2-8l-2-6q1-10-9-9l-9-2q-5-3-8 1m136 0-3 6q0 4-3 7-7 7 6 11l6 3q6 10 17-2c6-6 6-6 5-9l-2-5-1-4q1-7-8-7l-8-1c-2-2-8-1-9 1m136 0-1 4-3 7-3 5 3 3 5 3q5 1 9 6 5 6 14-4l5-5-1-5-2-9v-4l-7-1-7-1c-2-2-10-1-12 1m-476 4-3 5-2 6q-6 12 5 13l6 4q8 8 14 0l6-5q4-3 1-10l-2-6q0-6-8-7-3 1-8-1c-7-2-6-3-9 1m69-1q-3 1-4 5 0 5-3 8-6 7 4 10 6 2 8 5l4 2 2 2q1 4 10-5c7-7 7-7 6-10l-2-5-1-4q1-8-10-7l-7-1q-3-3-7 0m67 0-2 5-4 7-2 5q1 4 9 7l7 5q6 8 12 0l7-6c2-1 3-7 1-10l-2-5q0-8-9-8h-7q-7-4-10 0m-272 2-2 5-2 6q-5 7-4 9l3 3 3 1 2 1q6 1 7 5c0 1 6 4 8 3l13-13-1-5-2-7q1-7-10-7l-7-2q-5-2-8 1m66-1-1 5-3 7q-8 10 4 12l7 4q8 9 15 0l7-6q2-1-2-9l-1-7q0-6-9-5l-6-1zm553 0-3 6q-4 8 2 9l5 3q4 5 9 0c6-7 4-16-4-17l-6-1zm-688 2-3 7-3 6c-4 3-2 10 5 11q5 0 9 5c5 5 6 5 14-2l7-7-1-3-2-8q0-11-10-9h-7q-5-3-9 0m483 1q-9 11-1 13l6 2c5 5 11-1 9-9q1-5-5-5l-5-2q-2-2-4 1m66 2q-6 10 2 11l6 4 2 3 4-5c7-7 5-15-3-15l-5-1q-3-3-6 3m68-1q-6 11 3 12l4 2q3 5 8-1 5-5 3-8l-1-4q1-2-5-2l-3-1q-4-3-9 2m-205 2q-6 11 3 11l4 3 3 3 4-4q9-12-3-15l-7-1q-1-2-4 3m-65-1-3 4-2 4q-3 5 4 6l5 4c3 6 11-1 11-10q1-7-7-7l-5-1zm-206 1-3 6q-4 8 3 9 3 0 5 3 3 5 8-2c6-5 4-14-3-15l-6-1zm69 0-3 6q-4 8 3 8l4 3q5 6 9-1c4-5 4-5 2-10q0-6-6-5l-6-1zm66 3-3 5q-1 5 5 6 3 0 5 3 4 5 8-2c5-6 2-15-3-14h-3c-2-2-8-1-9 2m-205 3q-6 10 2 10l6 3q3 6 8-1c5-8 3-16-4-15l-4-1q-2-4-8 4m-65-3c-2 1-6 9-6 10q1 4 6 4l4 2q4 4 8-2 7-12-3-13l-6-1zm649 30q-5 2-5 7c0 2 6 6 8 6a7 7 0 0 0 2-14q-2-1-5 1m66 1c-5 6 1 14 8 11q4 0 3-7v-6l-5-1q-4-1-6 3m-134-1c-8 3-6 14 3 13q6 1 7-6c1-5-5-9-10-7m-139 3q-7 7 3 12 9 1 10-6c0-8-8-12-13-6m67-1q-4 4 0 10c3 3 10 3 12 0 6-7-4-16-12-10m-136 2q-5 6 1 10a8 8 0 1 0-1-10m-64-1q-6 1-5 7c0 6 8 9 13 5 7-6 0-15-8-12m-138 2q-7 4-1 11c5 5 13 3 13-5q-1-10-12-6m68 0c-5 2-5 10 1 13a8 8 0 1 0-1-13m-203 1c-5 2-7 10-2 13s13-1 13-6c0-4-7-9-11-7m64 2q-3 5 0 9a8 8 0 1 0 0-8M8 220q-3 1-3 5c0 9 14 11 16 2 1-7-7-11-13-7m644 16q-4 1-4 6l-2 7c-5 5-2 12 4 11q3 0 7 4c7 7 9 7 17-1l6-6-2-6-2-8q1-6-7-5l-8-2zm67 1-2 5q0 4-3 7-6 9 4 11 5 1 8 4c4 4 12 6 12 3l9-10q3 0 0-6l-3-9q0-6-7-4l-8-1q-9-4-10 0m-205 0-2 6-3 6c-5 6-2 13 5 13l6 3c7 7 9 6 18-2l5-5-1-5-2-9q0-6-9-5l-7-1q-6-3-10-1m68 1-2 5-2 5q-8 10 4 13 5 2 7 5 6 4 10 3c5-3 12-11 12-14l-2-5q-1-12-8-11-4 2-8-1-7-5-11 0m-136 0-3 6-3 7q-5 8 5 12l8 4q10 8 14-1l4-3q6-4 2-9l-1-6q0-9-9-9h-8q-5-3-9-1m-67 2q-3 2-3 5l-3 8q-6 11 6 12l7 4c6 6 8 5 18-5l4-4-2-5-2-8q1-7-9-6l-9-1q-3-3-7 0m-68 0q-3 3-4 8l-2 5c-5 5-3 12 4 12l8 5c7 5 7 5 15-2 7-7 7-7 5-13l-2-8q0-6-10-6l-7-1zm-70 2-1 5-4 7q-5 10 4 11 3 0 8 5c7 6 9 6 16-1 6-6 7-8 5-14l-2-6q1-7-8-6l-8-2c-3-2-9-1-10 1m-135 1-2 4-4 8q-6 9 4 11l9 5q3 6 8 4 5-1 6-4t4-4q6-3 2-8l-2-7c-1-7-1-8-8-8l-9-1q-4-3-8 0m67 0-2 5-3 7q-7 8 5 12 5 1 7 4 6 8 15-1c8-7 8-8 6-11l-2-8q-1-10-9-7l-7-1q-6-4-10 0m-136 0-3 6-3 7q-5 8 4 11 5 2 9 6c6 5 8 5 14-1l6-5q4-3 1-9l-2-6q0-8-8-8-5 1-8-1zm552 0-3 3-3 5q-2 6 4 7l5 3c4 4 4 4 8-1 5-5 5-5 3-10q0-6-5-5l-5-1q-3-2-4-1m133 5q-4 9 3 9l4 2c4 5 12 0 12-8q0-8-6-8l-7-1q-4-1-6 6m-202-3q-9 11-1 14l6 2c4 5 13-4 10-10l-1-3-4-2-5-2c-4-1-3-1-5 1m135 0-3 5-2 3 2 3 5 2 4 2q6 6 11-5 2-9-6-9l-4-1q-4-4-7 0m-205 2-3 4q-3 6 5 9l4 2q3 4 8-2c5-6 3-14-2-14l-6-1q-4-2-6 2m-135 0q-9 12-1 14 3 0 5 3 4 5 8-1c5-6 3-16-3-14l-4-1q-3-3-5-1m66 5-3 5 2 2 4 2 5 2c4 4 10 0 10-7q1-9-6-8l-4-1q-3-4-8 5m-270-2-2 2-2 4q-4 8 5 8l4 3q4 5 9-4 5-10-4-12l-6-1q-1-3-4 0m67-1-1 2-2 5q-6 6 4 7l5 3c2 6 10 0 10-9q0-7-6-6l-4-1q-4-3-6-1m68 1-3 5q-4 6 4 8l5 2q4 4 7 0a9 9 0 0 0 3-13c0-3 0-3-9-3q-9-2-7 1m-203 1-2 2-2 4q-4 7 3 7 3 0 5 3c4 5 12-3 10-11q-1-5-5-4l-5-1q-2-3-4 0m717 29c-7 6-1 16 7 12 3-1 3-11 0-13q-3-3-7 1m-136 0q-8 5-3 12a7 7 0 1 0 3-12m67 1q-7 5 0 11 4 4 9-1c7-6-1-15-9-10m-136 0c-5 1-7 8-3 11 5 5 14 2 14-4q-1-9-11-7m-137 1c-7 5-4 14 4 14q7 0 8-6c1-7-7-12-12-8m66 2q-5 5 1 9c5 6 13 3 13-5 0-7-10-10-14-4m-132 0c-7 1-7 10-1 14a8 8 0 1 0 1-14m-137 2q-9 6-1 12a7 7 0 1 0 1-12m64 0q-4 7 0 10c6 6 15 3 15-5 0-6-12-10-15-5m-135 2c-5 4-2 11 4 12 8 1 12-7 7-12q-6-6-11 0m-68 0c-7 7 4 17 11 11 3-2 3-10 0-12-2-2-9-1-11 1m-68 1q-5 4-2 8a7 7 0 1 0 2-8m645 15q-4 1-5 8 0 4-3 6-6 8 6 10l7 5q5 9 15 0l5-6q4-2 0-8l-2-7q-1-8-8-6h-6q-6-3-9-2m66 1q-2 1-2 5t-3 8l-3 4q2 5 8 6 2 0 8 5c6 5 8 5 16-3q9-6 4-10l-1-4-3-10h-6l-7-1q-6-3-11 0m-273 1-2 5-2 5c-5 10-5 11 2 14l7 2c7 9 10 9 18 1 6-7 7-7 4-10l-1-7q1-10-9-9l-9-1c-5-2-5-2-8 0m68 0-2 6-3 8q-6 7 4 9 6 2 9 6c5 5 7 5 14-1l6-6v-7l-2-6q1-8-8-8l-8-2q-6-2-10 1m69 0-3 6-4 8q-5 8 5 9 4 0 7 4c6 7 9 7 17-1l7-7-1-3-4-9-2-6h-5l-8-1q-5-3-9 0m-273 3q-3 3-3 7l-2 6c-6 5-2 12 6 12l6 4c7 6 8 5 16-2l6-7-2-6-3-9c-1-3-1-4-8-4l-8-2q-3-2-8 1m68 0-2 5-2 6q-8 8 3 12l9 6q7 6 13-1l5-4q5-3 1-10l-1-4c1-1-1-8-2-9h-6l-7-1q-7-3-11 0m-135 0-3 5-4 8q-4 6 0 9 2 3 5 3t8 5c6 6 8 5 16-3q9-8 3-13l-1-5c0-6-5-10-7-7h-8q-5-4-9-2m-137 2-2 4-2 7q-8 10 4 13l7 4q5 9 15-1 9-7 5-13l-2-7q1-7-8-6l-8-1q-7-3-9 0m67 0-2 5q-1 5-4 7-5 9 4 11 4 0 10 6 7 6 12-1l5-5c3-1 4-3 1-15-2-7-2-7-9-7l-7-2q-6-2-10 1m552-1-2 4-2 4q-2 6 3 7l5 2q5 5 9-1c5-5 3-16-3-15q-2 1-5-1zm-688 3q-3 2-3 6l-2 5q-5 7 0 10l5 2 7 5c7 5 8 5 16-3 6-6 6-6 5-9l-2-7q0-11-10-9l-6-1q-5-4-10 1m620-2-4 6-3 5 2 2 5 2 4 2q2 7 9-2c4-6 2-15-4-13l-5-1q-4-3-4-1m-70 3-3 4q-3 6 5 9l3 1 6 3c7-3 7-18 0-18l-4-1q-4-3-7 2m-138 3q-6 10 2 10l4 3c4 5 14 0 13-8q-2-8-6-8l-6-1q-4-3-7 4m71-3-2 3-2 3q-3 4 3 6l5 3q4 6 9-1 5-6 2-8v-2c1-4-11-6-15-4m-272 1-2 2-2 5q-3 7 1 8l7 3 4 3 3-2q5-5 4-10-1-9-6-7l-5-1q-1-3-4-1m134 4q-4 9 2 10l5 2c4 4 11 0 10-7q1-7-6-7l-6-2q-2-1-5 4m-205-1-1 3q-5 11 3 11l4 2c5 5 14-5 11-12l-3-3-7-2q-6-2-7 1m137 0-2 4q-5 7 4 8l4 3q3 5 7-1c5-6 3-15-3-15l-5-1q-4-1-5 2m-205 2-2 4c-3 2 0 8 4 8l5 3q4 5 8-1c6-6 3-15-4-15l-4-1c0-3-5-1-7 2m-67 0-1 1-2 4q-5 7 4 8l3 1 3 2c6 4 12-9 8-15-1-1-12-2-15-1m720 27c-6 1-7 8-3 12a6 6 0 0 0 8 1c3 0 3-13 0-13zm-139 2q-4 2-3 6c2 10 15 9 14-1q-2-10-11-5m67 0q-6 11 5 12a7 7 0 1 0-5-12m-136 0a7 7 0 1 0 10 2q-4-3-10-2m-136 2q-8 6 1 12 5 4 10-2c4-7-4-15-11-10m66 1q-5 8 6 11a8 8 0 1 0-6-11m-133 0a8 8 0 1 0 7-1q-4-2-7 1m-68 0c-8 3-5 14 3 14a7 7 0 0 0 2-14zm-139 4c-7 6 3 16 11 10q4-5 0-11-6-5-11 1m69-1c-5 5-1 13 6 13 2 0 7-5 7-9 0-5-10-8-13-4m-202 0c-8 3-8 12 0 14a8 8 0 1 0 0-14m68 0c-7 3-7 11 1 14a7 7 0 1 0-1-14m642 17q-2 0-3 8l-4 6-3 4q1 4 8 6l8 5q6 10 16-3c6-6 6-6 5-9l-2-6-2-6q-1-4-8-3h-4a14 14 0 0 0-11-2m-138 1-2 6-4 8q-7 9 4 10l8 5q7 9 15 0l5-5q3-2 2-5l-4-13q1-4-8-4l-10-2zm67 1-2 5-2 6q-8 10 5 13l6 3 2 3q5 7 15-3c7-7 7-8 5-13l-2-7q0-7-8-7h-8q-7-4-11 0m-205 1-2 5q0 3-3 7-6 9 6 12 4 1 6 4 7 7 14 1l6-6q5-1 2-9l-2-7q-1-8-9-6l-8-1q-7-4-10 0m69 0-2 5q0 3-3 7-6 9 4 11l9 6q6 8 13-1l6-6c2-1 3-6 1-7l-1-5q-1-11-9-9l-8-2q-6-3-10 1m-135 2q-3 2-3 5l-3 8q-7 8 5 11l8 5c6 6 7 5 16-3q7-6 4-13l-2-6q1-7-8-6l-9-1q-5-3-8 0m-69 0q-3 2-3 7l-2 6q-6 11 4 12l6 3q7 8 9 5c3-1 15-12 15-13l-2-5-2-8q0-6-8-5l-7-1q-4-3-10-1m-201 2q-4-1-6 7l-2 7q-3 4-2 8l8 4 4 3q9 9 15 1l5-5q6-3 3-8l-2-5q0-10-10-10l-6-1q-2-2-7-1m64 0-2 6-4 7q-6 8 5 11l8 5c6 5 8 5 15-1 7-7 7-7 6-13l-3-8q0-7-8-5l-6-1q-7-3-11-1m67 1-1 6-3 7-3 4 2 2q2 3 6 4l5 2c8 8 11 8 18 0 7-6 7-8 4-14q-2-4-1-6 2-5-9-5l-12-2q-5 0-6 2m-203 1-3 7-3 6q-4 6 5 10l8 5q9 7 14 0l4-4q6-5 3-10l-2-6q0-8-10-8l-7-1c-2-2-8-1-9 1m687-1q-8 11 1 14l5 3q4 3 9-3t1-13c-1-2-15-2-16-1m-275 5q-6 8 1 10 4 0 6 3 4 5 9-2 3-4 2-6-1-9-4-7l-6-2c-4-2-4-2-8 4m71-4-4 6-2 5 2 2 4 2q3 0 5 3c4 5 11-1 11-10q1-8-6-6l-5-1q-2-3-5-1m65 4q-5 9 3 10 3 0 5 3 3 3 5 1c8-5 7-17 0-17l-4-1q-4-4-9 4m70-3-2 4q-4 6 3 8l6 3c2 4 12-5 10-9l-1-4q-1-2-5-2l-4-1q-4-2-7 1m-274 6q-4 10 2 10l6 2q10 5 10-10 0-5-4-5l-5-1q-4-4-9 4m-135-2-2 3-1 3q-5 6 4 8l4 2q5 4 10-2 7-11-6-14l-5-1q-2-1-4 1m68 1-2 2-4 2h1q3-3 2 2 0 4 4 5l4 3q5 5 9-2c4-5 3-13-2-13l-6-1q-5 0-6 2m-272 0-1 4-3 3-1 4q-1 2 6 3l4 3q3 6 8-1c5-6 3-16-2-15q-3 1-5-1zm66 4q-4 10 3 10 3 0 5 3 3 5 7-2 6-5 3-11-1-4-5-3l-4-1q-4-4-9 4m70-4-1 3-1 2q-5 6 4 8l3 2c2 4 12 0 12-5q0-8-7-9l-4-1zm583 29c-7 3-5 13 2 13q7 1 6-7 1-10-8-6m-137 1c-8 4-6 14 3 14 8 0 10-9 3-13q-3-3-6-1m66 0c-5 3-3 11 3 13q8 2 10-6-1-10-13-7m-201 1c-3 0-7 5-7 7 0 7 12 10 16 3 3-5-2-11-9-10m65 0c-6 3-3 14 4 14 6 0 10-9 6-12q-4-3-10-2m-137 3q-6 6 1 11 10 4 12-6c0-7-8-10-13-5m-66 0q-6 5-2 12c7 6 18-3 12-10q-4-3-10-2m-70 2q-5 6 1 11a7 7 0 1 0-1-11m-65 0c-8 3-6 14 2 14q6-2 8-8c0-4-6-8-10-6m-205 1c-6 1-8 8-4 12q6 6 11 1c7-6 1-15-7-13m65 1c-5 6 0 14 7 13q6-1 7-7c1-7-8-11-14-6m68 0c-5 5-2 12 6 12q11-1 5-12c-2-3-9-3-11 0m509 15q-4 3-5 8l-1 5c-2 0-4 6-3 8q1 3 8 4l6 5q9 9 16-2l3-3q5-4 2-6l-2-11q-1-7-8-6l-9-1q-4-3-7-1m67 1-3 6-3 7q-4 9 6 11l7 5c7 5 7 5 14-2 8-7 8-7 6-12l-2-5q2-9-9-9l-7-1q-7-4-9 0m-274 2-2 4c0 3-2 9-4 9-3 0-2 9 1 9q10 4 13 7 4 7 15-3l6-6-1-3-2-8c-1-8-2-8-9-8l-9-2q-5-2-8 1m69-1-2 3-5 11v8l5 2 9 5c6 5 8 5 14-1l6-5q3 0 0-8l-2-7q0-8-8-6l-7-1q-6-3-10-1m67 0-1 3q0 5-5 11l-2 4c0 1 5 5 7 5q5 1 11 7 4 5 14-4 8-9 5-11l-2-5q1-10-9-9l-11-2zm-201 2q-4 2-5 8l-3 7q-6 7 3 10 6 1 11 6 6 6 13-2l5-4c3 0 3-10 0-13l-1-4q1-6-8-6-4 2-8-1l-5-2zm-72 2q-2 1-2 5l-2 7q-6 10 2 11 5 1 10 6 6 7 15-2 9-8 5-14l-2-6q1-8-9-6l-7-2q-5-2-10 1m-202 1q-2 1-4 7l-3 7-2 3q0 6 7 8l7 4q9 9 15 0l6-5q3-1 0-8l-2-8q1-6-8-6l-9-1q-3-3-7-1m67 0-3 6-3 8q-5 9 4 11 4 0 8 4 7 8 15 0l5-5q3-1 2-6l-3-9-2-6-6-1-9-2zm68 1-3 5q0 4-3 7-6 9 5 11l8 5c6 5 8 5 16-3l6-6-2-5-2-8q1-6-8-5l-7-1q-6-3-10 0m482 1-3 5-2 3q2 4 6 5 3 0 5 3 4 5 9-2c3-4 4-5 2-11q0-5-5-4l-5-1q-4-3-7 2m-687 0-2 5-2 7q-6 10 4 12 5 1 6 4 4 5 9 5c2 0 8-6 8-7l1-1c4 0 6-8 3-11l-1-7q1-8-8-6l-8-2q-7-2-10 1m413 0-1 3-2 4-1 3q1 4 7 5l4 3q2 5 8-1c3-4 3-4 3-9q0-8-6-6l-5-2zm68 3q-7 9 3 12l3 1q2 5 9 0c5-5 4-14-2-14l-5-1q-5-4-8 2m69-3-1 3-1 3q-5 5 2 8 5 1 5 3 2 3 9-2c5-6 3-14-4-15l-5-1zm67 4-3 6 5 3 4 2q4 5 9-1 6-4 2-10l-3-4-7-1h-5zm-341 3-3 7q2 3 6 4l4 3q3 5 8-2c3-3 3-3 3-8q0-7-6-6l-5-1q-3-4-7 3m69 0-3 6q1 4 7 5l3 1q1 3 5 2c7-2 7-18 0-17h-5q-4-5-7 3m-134-2q-7 6-5 14 3 5 5 3 1-3 5 1c4 3 12-5 10-9l-1-3q2-5-5-6zm-206 3-3 5q-5 7 4 7 4 0 5 3 3 6 7-1 9-12-4-14l-4-1q-1-3-5 1m68 0-3 4q-3 5 3 8 4 0 6 3c7 6 14-3 10-13q-1-3-5-3l-7-2q-3-1-4 3m67-1-2 5-2 3q1 4 7 5 3 0 3 2c2 3 12-3 12-7l-3-8-3-1q-12-2-12 1m377 30c-4 3-5 10 0 12 9 4 16-5 9-11q-4-6-9-1m67 0q-4 7 3 12a8 8 0 1 0-3-12m69 0q-3 5-1 9c4 5 14 2 14-4s-9-10-13-5m68 1q-3 3 0 7 2 3 5 3 7 3 6-7v-6h-4q-5-1-7 3m-341 1a8 8 0 1 0 11 0q-6-4-11 0m67 2c-4 7 5 14 12 9 5-3 1-12-6-12q-5-1-6 3m-133-1q-4 2-3 8a7 7 0 1 0 3-8m-69 2a8 8 0 1 0 9 11 8 8 0 0 0-9-11m-205 2q-6 6 0 10a8 8 0 1 0 0-10m68-1a7 7 0 1 0 12 6c0-7-7-10-12-6m68 0c-4 4-1 13 5 13q6-2 8-8c0-6-7-9-13-5M8 494c-5 3-3 11 4 13s13-7 7-12c-1-2-9-3-11-1"
        mask="url(#16282281824-posters-1720553470329-horizontal-mask)" itemprop="bold" fill-opacity="0.90"
        fill-rule="evenodd" stroke="none" fill="url(#16282281824-posters-1720553470329-vertical-bold)"></path>
    </pattern>
    <rect id="16282281824-posters-1720553470329-pattern-render" fill="url(#16282281824-posters-1720553470329-pattern)"
      width="100%" height="100%"></rect>
  </defs>
  <radialGradient id="lightbar" cx="50%" cy="200%" fy="0" r="201%">
    <stop offset="0%" style="stop-color: rgb(255, 255, 255); stop-opacity: 0.1;"></stop>
    <stop offset="10%" style="stop-color: rgb(0, 0, 0); stop-opacity: 0.1;"></stop>
    <stop offset="30%" style="stop-color: rgb(0, 0, 0); stop-opacity: 0.3;"></stop>
    <stop offset="90%" style="stop-color: rgb(0, 0, 0); stop-opacity: 0.55;"></stop>
    <stop offset="100%" style="stop-color: rgb(0, 0, 0); stop-opacity: 0.6;"></stop>
  </radialGradient>
  <g class="radial">
    <radialGradient id="16282281824-posters-1720553470329-radial" gradientUnits="userSpaceOnUse">
      <stop itemprop="radial" stop-color="#c9c7c5" offset="0%"></stop>
      <stop itemprop="radial" stop-color="#c3c2c1" offset="15%"></stop>
      <stop itemprop="radial" stop-color="#c9c7c5" offset="30%"></stop>
      <stop itemprop="radial" stop-color="#c9c8c5" offset="45%"></stop>
      <stop itemprop="radial" stop-color="#c1c0be" offset="60%"></stop>
      <stop itemprop="radial" stop-color="#c4c2c0" offset="75%"></stop>
      <stop itemprop="radial" stop-color="#c1c0be" offset="90%"></stop>
    </radialGradient>
    <radialGradient id="16282281824-posters-1720553470329-radial-background" gradientUnits="userSpaceOnUse">
      <stop stop-color="#d3cdc5" offset="0%"></stop>
      <stop stop-color="#d3cec5" offset="15%"></stop>
      <stop stop-color="#d3cdc5" offset="30%"></stop>
      <stop stop-color="#d3cfc5" offset="45%"></stop>
      <stop stop-color="#d3cec5" offset="60%"></stop>
      <stop stop-color="#d3cdc5" offset="75%"></stop>
      <stop stop-color="#d3cec5" offset="90%"></stop>
    </radialGradient>
    <radialGradient id="16282281824-posters-1720553470329-radial-light" gradientUnits="userSpaceOnUse">
      <stop stop-color="#9c9a96" offset="0%"></stop>
      <stop stop-color="#9b9a97" offset="15%"></stop>
      <stop stop-color="#9c9a96" offset="30%"></stop>
      <stop stop-color="#9c9a96" offset="45%"></stop>
      <stop stop-color="#9b9a97" offset="60%"></stop>
      <stop stop-color="#9c9a96" offset="75%"></stop>
      <stop stop-color="#9b9a97" offset="90%"></stop>
    </radialGradient>
    <radialGradient id="16282281824-posters-1720553470329-radial-regular" gradientUnits="userSpaceOnUse">
      <stop stop-color="#83807c" offset="0%"></stop>
      <stop stop-color="#82807d" offset="15%"></stop>
      <stop stop-color="#83807c" offset="30%"></stop>
      <stop stop-color="#83817c" offset="45%"></stop>
      <stop stop-color="#82807d" offset="60%"></stop>
      <stop stop-color="#83807c" offset="75%"></stop>
      <stop stop-color="#82807d" offset="90%"></stop>
    </radialGradient>
    <radialGradient id="16282281824-posters-1720553470329-radial-medium" gradientUnits="userSpaceOnUse">
      <stop stop-color="#51504d" offset="0%"></stop>
      <stop stop-color="#51504d" offset="15%"></stop>
      <stop stop-color="#51504d" offset="30%"></stop>
      <stop stop-color="#51504d" offset="45%"></stop>
      <stop stop-color="#51504d" offset="60%"></stop>
      <stop stop-color="#51504d" offset="75%"></stop>
      <stop stop-color="#51504d" offset="90%"></stop>
    </radialGradient>
    <radialGradient id="16282281824-posters-1720553470329-radial-bold" gradientUnits="userSpaceOnUse">
      <stop stop-color="#2f2e2d" offset="0%"></stop>
      <stop stop-color="#2f2e2d" offset="15%"></stop>
      <stop stop-color="#2f2e2d" offset="30%"></stop>
      <stop stop-color="#2f2e2d" offset="45%"></stop>
      <stop stop-color="#2f2e2d" offset="60%"></stop>
      <stop stop-color="#2f2e2d" offset="75%"></stop>
      <stop stop-color="#2f2e2d" offset="90%"></stop>
    </radialGradient>
  </g>
  <g class="vertical">
    <linearGradient id="16282281824-posters-1720553470329-vertical" gradientUnits="userSpaceOnUse" x1="0" x2="0" y1="0"
      y2="100%">
      <stop itemprop="vertical" stop-color="#c9c7c5" offset="0%"></stop>
      <stop itemprop="vertical" stop-color="#c3c2c1" offset="15%"></stop>
      <stop itemprop="vertical" stop-color="#c8c7c6" offset="30%"></stop>
      <stop itemprop="vertical" stop-color="#c9c8c5" offset="45%"></stop>
      <stop itemprop="vertical" stop-color="#c1c0be" offset="60%"></stop>
      <stop itemprop="vertical" stop-color="#c4c2c0" offset="75%"></stop>
      <stop itemprop="vertical" stop-color="#c1c0be" offset="90%"></stop>
    </linearGradient>
    <linearGradient id="16282281824-posters-1720553470329-vertical-background" gradientUnits="userSpaceOnUse" x1="0"
      x2="0" y1="0" y2="100%">
      <stop stop-color="#ceccca" offset="0%"></stop>
      <stop stop-color="#cdcccb" offset="15%"></stop>
      <stop stop-color="#cdcccb" offset="30%"></stop>
      <stop stop-color="#cecdca" offset="45%"></stop>
      <stop stop-color="#cdcccb" offset="60%"></stop>
      <stop stop-color="#ceccca" offset="75%"></stop>
      <stop stop-color="#cdcccb" offset="90%"></stop>
    </linearGradient>
    <linearGradient id="16282281824-posters-1720553470329-vertical-light" gradientUnits="userSpaceOnUse" x1="0" x2="0"
      y1="0" y2="100%">
      <stop stop-color="#ae9d84" offset="0%"></stop>
      <stop stop-color="#aea084" offset="15%"></stop>
      <stop stop-color="#aea084" offset="30%"></stop>
      <stop stop-color="#aea284" offset="45%"></stop>
      <stop stop-color="#aea084" offset="60%"></stop>
      <stop stop-color="#ae9d84" offset="75%"></stop>
      <stop stop-color="#aea084" offset="90%"></stop>
    </linearGradient>
    <linearGradient id="16282281824-posters-1720553470329-vertical-regular" gradientUnits="userSpaceOnUse" x1="0" x2="0"
      y1="0" y2="100%">
      <stop stop-color="#83807c" offset="0%"></stop>
      <stop stop-color="#82807d" offset="15%"></stop>
      <stop stop-color="#82807d" offset="30%"></stop>
      <stop stop-color="#83817c" offset="45%"></stop>
      <stop stop-color="#82807d" offset="60%"></stop>
      <stop stop-color="#83807c" offset="75%"></stop>
      <stop stop-color="#82807d" offset="90%"></stop>
    </linearGradient>
    <linearGradient id="16282281824-posters-1720553470329-vertical-medium" gradientUnits="userSpaceOnUse" x1="0" x2="0"
      y1="0" y2="100%">
      <stop stop-color="#51504d" offset="0%"></stop>
      <stop stop-color="#51504d" offset="15%"></stop>
      <stop stop-color="#51504d" offset="30%"></stop>
      <stop stop-color="#51504d" offset="45%"></stop>
      <stop stop-color="#51504d" offset="60%"></stop>
      <stop stop-color="#51504d" offset="75%"></stop>
      <stop stop-color="#51504d" offset="90%"></stop>
    </linearGradient>
    <linearGradient id="16282281824-posters-1720553470329-vertical-bold" x1="0" x2="0" y1="0" y2="100%">
      <stop stop-color="#2f2e2d" offset="0%"></stop>
      <stop stop-color="#2f2e2d" offset="15%"></stop>
      <stop stop-color="#2f2e2d" offset="30%"></stop>
      <stop stop-color="#2f2e2d" offset="45%"></stop>
      <stop stop-color="#2f2e2d" offset="60%"></stop>
      <stop stop-color="#2f2e2d" offset="75%"></stop>
      <stop stop-color="#2f2e2d" offset="90%"></stop>
    </linearGradient>
  </g>
  <g class="horizontal">
    <linearGradient id="16282281824-posters-1720553470329-horizontal" x1="0" x2="100%" y1="0" y2="0"
      gradientUnits="userSpaceOnUse">
      <stop itemprop="horizontal" stop-color="#c9c7c5" offset="0%"></stop>
      <stop itemprop="horizontal" stop-color="#c6c5c3" offset="15%"></stop>
      <stop itemprop="horizontal" stop-color="#c3c2c1" offset="30%"></stop>
      <stop itemprop="horizontal" stop-color="#c3c2c1" offset="45%"></stop>
      <stop itemprop="horizontal" stop-color="#c8c7c6" offset="60%"></stop>
      <stop itemprop="horizontal" stop-color="#c3c2c1" offset="75%"></stop>
      <stop itemprop="horizontal" stop-color="#cbcac8" offset="90%"></stop>
    </linearGradient>
    <linearGradient id="16282281824-posters-1720553470329-horizontal-background" gradientUnits="userSpaceOnUse" x1="0"
      x2="100%" y1="0" y2="0">
      <stop stop-color="#ceccca" offset="0%"></stop>
      <stop stop-color="#ceccca" offset="15%"></stop>
      <stop stop-color="#cdcccb" offset="30%"></stop>
      <stop stop-color="#cdcccb" offset="45%"></stop>
      <stop stop-color="#cdcccb" offset="60%"></stop>
      <stop stop-color="#cdcccb" offset="75%"></stop>
      <stop stop-color="#cdcccb" offset="90%"></stop>
    </linearGradient>
    <linearGradient id="16282281824-posters-1720553470329-horizontal-light" gradientUnits="userSpaceOnUse" x1="0"
      x2="100%" y1="0" y2="0">
      <stop stop-color="#9c9a96" offset="0%"></stop>
      <stop stop-color="#9c9a96" offset="15%"></stop>
      <stop stop-color="#9b9a97" offset="30%"></stop>
      <stop stop-color="#9b9a97" offset="45%"></stop>
      <stop stop-color="#9b9a97" offset="60%"></stop>
      <stop stop-color="#9b9a97" offset="75%"></stop>
      <stop stop-color="#9b9997" offset="90%"></stop>
    </linearGradient>
    <linearGradient id="16282281824-posters-1720553470329-horizontal-regular" gradientUnits="userSpaceOnUse" x1="0"
      x2="100%" y1="0" y2="0">
      <stop stop-color="#968469" offset="0%"></stop>
      <stop stop-color="#968469" offset="15%"></stop>
      <stop stop-color="#968769" offset="30%"></stop>
      <stop stop-color="#968769" offset="45%"></stop>
      <stop stop-color="#968769" offset="60%"></stop>
      <stop stop-color="#968769" offset="75%"></stop>
      <stop stop-color="#968469" offset="90%"></stop>
    </linearGradient>
    <linearGradient id="16282281824-posters-1720553470329-horizontal-medium" gradientUnits="userSpaceOnUse" x1="0"
      x2="100%" y1="0" y2="0">
      <stop stop-color="#5d5241" offset="0%"></stop>
      <stop stop-color="#5d5241" offset="15%"></stop>
      <stop stop-color="#5d5441" offset="30%"></stop>
      <stop stop-color="#5d5441" offset="45%"></stop>
      <stop stop-color="#5d5441" offset="60%"></stop>
      <stop stop-color="#5d5441" offset="75%"></stop>
      <stop stop-color="#5d5241" offset="90%"></stop>
    </linearGradient>
    <linearGradient id="16282281824-posters-1720553470329-horizontal-bold" gradientUnits="userSpaceOnUse" x1="0"
      x2="100%" y1="0" y2="0">
      <stop stop-color="#2f2e2d" offset="0%"></stop>
      <stop stop-color="#2f2e2d" offset="15%"></stop>
      <stop stop-color="#2f2e2d" offset="30%"></stop>
      <stop stop-color="#2f2e2d" offset="45%"></stop>
      <stop stop-color="#2f2e2d" offset="60%"></stop>
      <stop stop-color="#2f2e2d" offset="75%"></stop>
      <stop stop-color="#2f2e2d" offset="90%"></stop>
    </linearGradient>
  </g>
  <g class="masks">
    <mask id="16282281824-posters-1720553470329-pattern-mask" maskUnits="userSpaceOnUse"
      maskContentUnits="userSpaceOnUse">
      <pattern id="pattern" x="0" y="0" width=".0133" height=".0144" viewBox="0 0 23.07 40">
        <path
          d="M17.62 0l-6.07 10.5m2.74 4.76L8.22 4.75m-5.48 0h12.13M.01 0h23.07M6.07 20L0 9.5m2.74-4.75l-6.07 10.5m-5.48 0H3.33m8.2 4.75L0 .02-11.54 20m40.68 0L23.07 9.5m2.74-4.75l-6.06 10.5m-5.49 0H26.4M34.6 20L23.08.02 11.53 20m-5.46 0L0 30.51m2.74 4.75l-6.07-10.5m-5.48 0H3.33m8.2-4.75L0 40l-11.54-19.98zM17.6 40l-6.06-10.5m2.74-4.76L8.2 35.25m-5.48 0h12.13M0 40h23.07L11.54 20.01m17.6 0l-6.07 10.5m2.74 4.75l-6.06-10.5m-5.49 0H26.4M11.53 20h23.08L23.07 40"
          stroke-linecap="round" stroke-width="3.5" stroke="white"
          fill="url(#16282281824-posters-1720553470329-horizontal-background)"></path>
      </pattern>
      <rect width="100%" height="100%" fill="url(#pattern)"></rect>
    </mask>
    <mask id="16282281824-posters-1720553470329-horizontal-mask" maskUnits="userSpaceOnUse"
      maskContentUnits="userSpaceOnUse">
      <rect width="100%" height="100%" fill="url(#16282281824-posters-1720553470329-horizontal-background)"></rect>
    </mask>
    <mask id="16282281824-posters-1720553470329-radial-mask" maskUnits="userSpaceOnUse"
      maskContentUnits="userSpaceOnUse">
      <rect width="100%" height="100%" fill="url(#16282281824-posters-1720553470329-radial-background)"></rect>
    </mask>
    <mask id="16282281824-posters-1720553470329-vertical-mask" maskUnits="userSpaceOnUse"
      maskContentUnits="userSpaceOnUse">
      <rect width="100%" height="100%" fill="url(#16282281824-posters-1720553470329-vertical-background)"></rect>
    </mask>
  </g>
  <use href="#16282281824-posters-1720553470329-pattern-render"></use>
  <g>
    <use href="#16282281824-posters-1720553470329-background"></use>
    <use href="#16282281824-posters-1720553470329-light"></use>
    <use href="#16282281824-posters-1720553470329-regular"></use>
    <use href="#16282281824-posters-1720553470329-medium"></use>
    <use href="#16282281824-posters-1720553470329-bold"></use>
  </g>
  <g itemprop="animation">
    <animate href="#16282281824-posters-1720553470329-light" attributeName="stroke-opacity" repeatCount="indefinite"
      dur="5s" values="0.9;0.0;0.9"></animate>
    <animate href="#16282281824-posters-1720553470329-regular" attributeName="stroke-opacity" repeatCount="indefinite"
      dur="4s" values="0.9;0;0.9"></animate>
    <animate href="#16282281824-posters-1720553470329-medium" attributeName="stroke-opacity" repeatCount="indefinite"
      dur="5s" values="0.9;0;0.9"></animate>
    <animate href="#16282281824-posters-1720553470329-bold" attributeName="stroke-opacity" repeatCount="indefinite"
      dur="3s" values="0.9;0;0.9"></animate>
    <animate href="#16282281824-posters-1720553470329-regular" attributeName="fill-opacity" repeatCount="indefinite"
      dur="8s" values="0.9;0.75;0.95;0.8;0.9;"></animate>
    <animate href="#16282281824-posters-1720553470329-radial-background" attributeName="cx" repeatCount="indefinite"
      dur="34s" values="0%;33%;100%;0%;100%;0%;"></animate>
    <animate href="#16282281824-posters-1720553470329-radial-background" attributeName="cy" repeatCount="indefinite"
      dur="55s" values="0%;100%;33%;100%;66%;0%"></animate>
    <animate href="#16282281824-posters-1720553470329-vertical-light" attributeName="x1" repeatCount="indefinite"
      dur="55s" values="0%;33%;100%;0%;133%;0%;"></animate>
    <animate href="#16282281824-posters-1720553470329-vertical-light" attributeName="y1" repeatCount="indefinite"
      dur="86s" values="0%;100%;33%;100%;66%;0%"></animate>
    <animate href="#16282281824-posters-1720553470329-horizontal-regular" attributeName="x1" repeatCount="indefinite"
      dur="34s" values="0%;100%;66%;0%;33%;133%;0%"></animate>
    <animate href="#16282281824-posters-1720553470329-horizontal-regular" attributeName="y1" repeatCount="indefinite"
      dur="55s" values="0%;66%;100%;33%;100%;66%;0%"></animate>
    <animate href="#16282281824-posters-1720553470329-vertical-medium" attributeName="x1" repeatCount="indefinite"
      dur="34s" values="0%;100%;66%;0%;33%;133%;0%"></animate>
    <animate href="#16282281824-posters-1720553470329-vertical-medium" attributeName="y1" repeatCount="indefinite"
      dur="55s" values="0%;66%;100%;33%;100%;66%;0%"></animate>
    <animate href="#16282281824-posters-1720553470329-vertical-bold" attributeName="x1" repeatCount="indefinite"
      dur="34s" values="0%;100%;66%;0%;33%;133%;0%"></animate>
    <animate href="#16282281824-posters-1720553470329-vertical-bold" attributeName="y1" repeatCount="indefinite"
      dur="55s" values="0%;66%;100%;33%;100%;66%;0%"></animate>
  </g>
</svg>
