<svg id="16282281824-posters-1720553832941" itemscope="" itemtype="/posters"
  itemid="/+16282281824/posters/1720553832941" viewBox="0 0 769 512" preserveAspectRatio="xMidYMid meet" tabindex="0"
  class="animate landscape" xmlns="http://www.w3.org/2000/svg">
  <!---->
  <defs class="graphic">
    <pattern id="16282281824-posters-1720553832941-pattern" width="769" height="512" viewBox="0 0 769 512"
      patternUnits="userSpaceOnUse" preserveAspectRatio="xMidYMid meet">
      <rect itemprop="background" width="769" height="512" tabindex="-1"
        id="16282281824-posters-1720553832941-background" fill-opacity="1"
        fill="url(#16282281824-posters-1720553832941-radial-background)"></rect>
      <!---->
      <path id="16282281824-posters-1720553832941-light"
        d="m0 201 1 201 1-6c0-5 0-5 9-6l9-2c6 0 18 2 20 4l1 16c0 18 2 17-20 16-18-1-19-1-19-8l-1-5q-1-1-1 30l1 31 1-17c0-19 0-19 7-19 8 0 8-2 8 39v37h10v-4q-1-7 7-6 8 0 8 7 0 4 5 3 5 1 4-4c1-6 1-7 19-6 17 0 19 1 19 7q-1 4 4 3 5 1 4-4 0-8 8-8 7 0 6 8l1 4h9v-35l-2-36 2-4 3-3 14 1c17 0 19 0 19 3l1 38v36h10v-4q-1-7 7-6 7 0 7 7v3h11v-5l1-4 13-1c18 0 20 0 21 6q0 5 6 4 4 1 4-2v-5c2-6 13-4 13 4q0 4 5 3h4v-66c-2-10-1-11 14-11q20-1 21 2l1 11v30l1 28v6h4q5 1 4-3 0-7 7-6 9-1 8 6c0 4 7 5 8 0 2-6 2-6 19-6 18 0 19 0 19 6v3h10v-3q0-6 7-6 6 0 6 6v3h10l-1-21 1-54q1-2 16-2c6 0 18 1 19 3l1 33v41h4q6 1 6-4 0-7 11-5l5 1v8h10v-3c0-7 3-7 19-7 16 1 18 2 18 8q-1 3 5 2 5 1 4-3 0-8 8-6 6 0 6 6-1 4 5 3h5v-48l1-27c1-2 35-2 37 0q2 1 2 15v60h11l-1-3q0-6 6-6 5 1 5 7 0 3 5 2h5l1-4 1-4 12-1c17-1 20 0 20 6v3h11v-3q-1-7 7-6 7-1 6 6-1 4 5 3 6 1 5-2c1-3 0-23-1-28v-8l1-20c1-21 0-20 19-20 12 0 14 0 15 2 1 1 2 8 2 39v37h9v-4c0-9 13-9 13 0v4h10v-4c0-5 1-6 12-6h9v5l1-8q0-12-1-10v3h-17c-25 1-25 1-26-4l-1-15c0-17-1-16 24-16h20v7l1-24q0-27-1-12v19l-9-1-10-1-1-50v-12c-1-5 1-16 3-18l9-1h8v19l1-182-1-186v16h-9q-14-1-11-9V9l1-9h-6q-6-1-5 3c-1 4-2 4-35 5l-36 1q-9 0-10-7 1-2-5-2h-6v14q1 16-2 16c-2 2-28 3-30 1l-1-16V0h-5q-7-1-6 3c0 3-5 7-6 5l-48 1c-26 0-30 0-31-6q1-4-6-3l-5 1v15c0 17 1 16-18 16l-17-1-1-16V0h-5q-7-1-6 3c0 6 0 6-43 6h-40l-1-5V0h-11v4l-2 28-19 1c-15 0-14 1-14-18V0h-10l-1 4c-1 6 1 6-41 6-41-1-40 0-40-7q1-4-5-3h-6v23c0 10-2 11-19 10-16 0-18-1-16-11V0h-7q-7-1-7 3c-1 6 0 6-41 6-41 1-39 1-39-6V0H87v15l-1 16c-3 2-23 3-29 2l-5-2-1-14V2q1-2-5-2-8-1-6 3c0 5-2 6-15 6Q7 10 12 3l1-3H0zm0 1c0 110 1 155 1 100zM661 19q-3 1-2 7c1 9 11 8 11-1q0-8-9-6m68 0c-6 1-4 12 3 12q7 1 6-7 0-8-9-5m-186 2c-2 1-2 77-1 79h30c9-1 9 1 8-42 0-30 0-36-2-37-2-2-33-3-35 0m50 0c-4 4-1 11 4 11q7-1 4-10-4-6-8-1m88 0-1 30v36l1 10 1 3h14c12 0 15 0 17-2l2-2V59l-1-39-16-1c-15 0-16 0-17 2m-303 0q-2 2-2 8 1 5 9 3c2-1 3-9 1-10q-5-3-8-1m30 0q-10-1-10 2c-1 3-1 76 1 77 2 2 31 2 33 1 2-2 3-77 1-79-1-1-12-2-25-1m40 0q-4 1-3 6 0 8 12 5c3-1 4-8 2-10q-5-2-11-1m71 0c-3 4 0 11 5 11q9-1 5-10c-1-2-8-3-10-1M29 22c-4 1-4 10 0 10q10 2 10-4 0-8-10-6m71 0q-2 2-2 6-1 4 5 4 7 1 6-6-2-8-9-4m21 0-1 17v11l1 46q0 5 4 5c4 2 24 2 28 0l3-1c2 0 2-9 2-43 0-32-1-33-2-35-3-1-33-2-35 0m49 1c-4 3-1 10 5 10 5 0 8-9 4-11q-6-2-9 1m69-1a6 6 0 1 0 10 0zm23 0c-2 1-2 73 0 77 1 2 2 2 14 2 17 1 19 1 19-4 1-15 0-74-1-74-1-2-30-2-32-1m44 0c-2 1-1 9 1 10h9c2 0 3-8 1-10zM9 23l-3 1q-3 2-3 30v27c-1 18 0 20 8 20q5 1 5-12l-2-64q-2-4-5-2m638 18-27 1c-21 0-26 1-27 2-2 2-3 29-1 32 2 2 12 3 22 3h15l25-1 15-1c2-2 2-31 0-33-1-2-21-4-22-3m83 1q-5-2-5 19c1 18-1 17 24 17h20V42zm-253 1-18 1-13 1c-2 1-2 31 1 33 2 2 79 2 82 1 1-1 2-32 0-34-1-2-17-3-23-2zm-157 1-14 1c-2 3-1 31 1 33 1 2 3 2 31 1h39c10 1 9 2 10-16 0-20 1-19-13-19zM28 45c-3 2-2 30 1 34 3 2 73 2 77-1l3-1V46l-3-1zm144 0c-5 2-6 27-2 32l2 3h37c45 0 41 2 41-17 0-12 0-15-2-17l-1-2h-37zm579 45-3 3v35c0 42 0 42 7 43l10 1h4V88h-8q-9 0-10 2m-275 0-4 1-1 71q-1 10 3 10h30c3-1 3-3 3-40 0-35 0-41-3-41-2-1-24-2-28-1m140 0h-3v15c-1 52 0 65 1 66s30 2 31 0q2 0 2-34V98l-1-7c-1-2-24-2-30-1m43 0c-2 1-3 7-1 9 3 2 11 1 11-1 2-7-4-12-10-8m70 0q-4 2-2 8c3 4 11 2 11-4q0-7-9-4M32 91q-5-1-5 6 1 7 9 5c8-3 4-12-4-11m22 0c-3 0-3 2-3 33 0 48 0 48 7 49s25 1 28-1 3-78-1-80c-2-1-28-2-31-1m47 0c-2 0-4 6-2 9l5 1q6 0 5-4 0-8-8-6m69 1q-6 8 6 9 5 0 5-4 1-6-5-7-4 0-6 2m25-1c-4 1-4 3-4 28l1 30v11c-2 12 0 13 19 13 13 0 15 0 16-3V94l-3-3zm112 1q-6 7 5 9 6 0 6-6c0-5-8-7-11-3m25-1c-2 1-3 25-3 40l1 38c0 4 2 4 19 4 16 0 17 0 16-11v-36c1-26 0-33-3-35zm46 1c-2 1-3 7 0 8q8 3 9-5-2-7-9-3m68-1v9h13v-9zm73 0a6 6 0 1 0 10 1c0-2-8-3-10-1m74 1q-3 7 4 8 6 0 4-7-3-5-8-1m-355 2q-2 6 6 7 8 0 5-8c-1-3-10-3-11 1m420 18c-1 3-2 32 0 35 0 3 77 3 79 1 2-3 2-34 0-36-3-3-77-2-79 0m-388 0h-16c-15 0-16 0-17 10 0 7 0 21 2 25q0 2 5 2h73c2-1 2-33 0-35l-19-2zm178 0h-36l-35 2c-2 1-1 33 0 35 3 2 77 2 80 0 4-3 5-33 2-36-2-1-10-2-11-1m71 2-2 2v16q0 15 2 16c1 2 80 1 81 0l1-17c0-16 0-17-2-18-2-2-6-2-40-2h-37zm-419-1q-2 0-2 8c-1 10 0 27 1 28l40 1c38 0 39-1 41-2v-35zm-91 1c-6 1-7 3-7 18 1 18 0 17 24 17h14v-17l-1-18zm439 47q-4 0-3 6l1 5h4q10 3 10-4-1-10-12-7m235-1c-3 1-3 2-3 33v36l1 8 1 3h15c12 0 15-1 17-2 2-3 2-75-1-77-2-2-25-3-30-1m44 1c-5 5-1 11 6 10q5 1 5-5-2-11-11-5m-627 0c-2 1-3 9-1 11q9 4 11-5 0-8-10-6m25 0-4 2v75q0 3 20 3 15 0 16-4c2-3 1-73 0-75-1-1-25-2-32-1m45 1a7 7 0 1 0 11 5q-1-11-11-5m70 0c-2 1-3 8-1 10s9 1 10-1c2-2 1-8-1-10q-5-2-8 1m23-1c-3 2-4 75-1 78 2 2 29 2 32 0 2-3 2-75 0-78zm146 0q-9 0-10 2l-2 21v16c-1 18 1 37 3 40 2 2 31 2 33-1 2-1 2-70 0-75q2-2-12-3zm112 0c-4 1-5 8-2 10 1 1 8 2 10 1l1-5q0-9-9-6m22 0q-2 1-2 5v72c2 3 35 3 38 0 2-3 2-74 0-76-1-2-32-2-36-1m50 0c-3 0-3 9 0 10q10 3 8-8-1-5-8-2m65 2q-3 8 6 9 8 1 5-8c-1-5-9-6-11-1M7 162c-5 0-5 2-5 40s0 37 8 37c6-1 6-1 6-39 1-35 0-39-4-39zm20 1c-3 7 4 12 11 9 3-1 3-9 0-10-3-2-11-1-11 1m278-1 1 10h10q3-1 2-6v-4l-6-1zm72 0-1 6 1 5h10v-5l-1-6zm356 20c-7 0-7 0-7 18s-2 17 23 17h20v-36h-15zm-516 1h-27c-24 0-22-2-22 16l1 17c2 2 76 3 79 1 2-1 3-20 2-28q0-5-5-5-9-2-28-1m93 0c-5 1-5 2-5 17-1 19-2 18 14 18l16 1 26-1 26-1c1-2 1-31-1-32l-36-2zm138 0c-3 2-4 5-4 21s-5 14 43 14l41-1c2-1 2-28 1-31-2-4-7-4-44-4zm145 1c-2 2-4 13-3 16l1 9 1 8h76c2-1 3-31 0-33-2-3-73-3-75 0m-541 0-25 1c-1 2 0 30 1 31 1 2 9 2 38 2l38 2 2-1 1-1c3 0 3-2 3-17l-1-16c-2-2-13-2-57-1m570 44c-10 1-11 3-11 19l2 36c0 28-1 26 17 26 13 0 14 0 15-2 3-3 3-76 1-78-2-1-14-2-24-1m130 0-3 2v52l1 15c0 10 1 11 11 11h8v-81h-7zm-723 1q-3 3-1 9c2 3 12 3 13 0q1-7-5-9zm25 1c-3 3-3 3-2 40l1 38c1 2 31 1 33-1s3-71 1-75c-1-3-3-3-17-3-14-1-14-1-16 1m46-1c-2 1-3 7-1 10 1 2 8 2 9 0 6-5 0-13-8-10m70 1q-3 5-1 9c2 2 11 1 11-1 3-7-5-14-10-8m26-1c-5 2-5 2-5 41l1 35 2 2c3 2 27 2 31 0l2-1v-37c0-45 2-41-16-41zm43 0c-2 2-3 8-1 10 3 3 12 0 12-4q-2-10-11-6m69 0c-3 1-5 7-2 10 5 4 13 1 13-5q0-8-11-5m22 0-1 41 2 38 17 1c15 0 16 0 17-2v-60q-3-3 0-6 3-5-1-11c-3-2-32-3-34-1m47 0c-2 3-1 10 2 11q8 4 8-5l-1-6zm69 1q-3 5-1 9c1 2 12 2 14 1v-11c-2-2-11-1-13 1m26-1c-2 3-2 75 1 78 2 3 31 3 33 0v-73c-1-5-4-6-19-6zm47 1q-6 10 5 10 7 1 6-6c0-6-8-8-11-4m73-1c-2 2-1 8 1 10 5 4 10-2 7-9 0-2-6-3-8-1m66 2a6 6 0 1 0 11-1c-1-4-9-3-11 1m69-1q-4 8 6 9 8 0 4-10c0-2-9-1-10 1m-605 21H99l-1 3c-1 7 0 30 2 32l41 1h39l1-3 1-3v-11q2-9-1-14l-1-5zm116 3c-2 5 0 31 1 32 3 2 78 1 79-1 1-4 1-31-1-33l-40-1h-38zm144-3-5 1c-2 1-1 32 0 33 1 2 79 3 82 1 2-1 2-32 0-34-1-1-67-2-77-1m142 0q-5-1-6 3v29c0 3 8 6 8 5q0-2 37-2h38c1-2 2-9 1-12v-10q2-14-6-13zm135 1c-2 2-2 27 0 31 1 4-3 3 41 3l37-1c2-2 2-33 0-34-3-2-77-1-78 1M6 253l-4 1v14c0 16 0 17 5 18h32c2-1 3-27 2-32l-1-3H25q-15 0-19 2m260 44c-5 1-5-1-6 23q-2 53 1 56c2 2 31 3 33 1 1-1 2-77 0-78-1-2-22-3-28-2m279 0c-4 1-5 3-4 31 0 44 0 48 2 49q1 2 15 2h16l4-1 3-1v-38c0-46 2-42-17-42zm147 0c-11 0-12 0-11 9v68l1 4h20q14 1 14-2v-64c0-17 1-16-24-15m-663 1q-4 5 0 9c7 5 16-2 10-8q-4-3-10-1m73 0c-6 2-5 11 1 11 7 0 9-7 4-11zm19 1c-1 6-1 76 1 78 3 3 32 2 35 0 2-2 2-76 0-78-2-1-5-2-18-2-17 0-17 0-18 2m48 0q-4 9 7 10 5 0 5-6 1-7-7-6-4 0-5 2m70-1-1 6q0 4 4 4c7 0 11-6 7-10zm67 0c-2 2-1 9 1 10q10 3 11-5 1-7-6-6zm72 0q-3 2-2 6l1 5h5q5 0 6-2c3-7-5-13-10-9m21 1c-2 1-2 72-1 77 2 3 4 3 18 3 16 0 17 0 18-5v-73c-1-3-4-4-19-4q-16 0-16 2m47 0q-3 1-1 6l1 4h5q10 1 9-6c0-6-9-8-14-4m73 0q-3 2-1 7 1 4 6 3 7 1 6-6c0-6-7-8-11-4m73 0c-3 4 0 10 5 10 2 0 6-5 5-7-1-5-7-7-10-3m66 0q-1 7 6 9c5 1 9-8 4-10-3-2-9-1-10 1m69 0q-3 10 7 9 5 0 4-6v-5h-5q-6 0-6 2M8 299l-5 1c-2 1-2 73 0 75 2 3 11 4 12 1l2-38c0-35 0-36-2-38l-3-2zm495 19-30 1-27 1c-2 1-2 31-1 34l42 1h42l1-16c1-20 1-19-11-20l-11-1zm-148 1h-24l-25 1c-2 3-2 32 0 34 1 2 79 2 80 0a95 95 0 0 0 1-32l-2-2-14-1zm266 0h-27l-1 3c-3 4-3 28 0 31 2 2 12 4 16 3l30-1 30-1c1-1 2-27 1-31l-1-3-11-1zm107 0-2 16c0 22-2 20 23 20h20v-18c0-18 0-18-2-18zm-700 1-1 17c0 14 0 15 2 16 4 3 79 3 81 0v-13c0-17-1-19-3-20zm141 0-1 17c0 14 0 15 2 16 3 2 75 3 78 1 3-1 3-29 0-33l-1-2h-38zm353 45q-5-1-5 7 0 9 8 8 7 0 5-10 0-7-8-5m208 0c-5 1-6 11-2 13 6 3 13-1 12-7q-1-9-10-6m-701 2c-5 4-2 11 4 12q9 0 8-7c0-6-8-10-12-5m24 0c-2 2-2 7-2 30l1 37c0 13-1 13 18 13l17-1 1-23v-38c0-21 1-20-18-20-15 0-16 0-17 2m49-1-2 1c-2 1-3 7-1 10 1 1 9 2 10 0q4-4 0-10c-2-2-7-3-7-1m67 0c-2 2-1 9 1 11s9 3 11 1q3-5 0-11c-1-2-9-3-12-1m24 1c-3 5-1 77 1 79 2 1 30 2 32 1l1-12v-65c0-4-2-5-18-5-14 0-15 0-16 2m46 0q-6 10 4 11 8 1 7-6c0-7-8-10-11-5m67-1c-2 1-1 11 1 12 3 1 10 0 11-1s0-9-1-10c-1-2-8-2-11-1m24 2q-2 2-2 8l1 9c-1 12 0 56 1 59l1 3h15c22 0 20 5 20-40 0-30-1-38-2-40s-2-2-17-2h-16zm47-1a7 7 0 1 0 9 10 7 7 0 0 0-9-10m69 0c-2 2-2 10 0 11 4 2 11 2 13 0 3-2 3-10 0-12-2-2-11-1-13 1m26-1-1 11v38c0 25 0 30 2 31 2 2 31 3 33 1s1-79 0-81c-2-2-32-2-34 0m122 1q-3 4-2 9c2 4 8 3 10-1 3-6-4-13-8-8m21 0c-2 1-2 5-2 38 0 37 0 40 3 41h30c2-1 2-76 0-79s-29-3-31 0m44-1c-4 5-1 13 5 13a7 7 0 1 0-5-13m-558 23-3 2v16l1 17 23 1h36q22 0 23-3c2-4 1-31-2-33h-11l-10 1c-2-2-54-2-57-1m138 1c-2 2-2 3-2 17 1 18 1 18 9 18h23c28 1 47 1 48-1 2-1 2-32 1-34l-49-1c-27-1-28-1-30 1m165-1h-18c-10-1-11 0-10 24 0 14-2 13 34 12 42 0 49 0 50-2l1-16c-1-20 1-19-26-19zm115 1c-4 4-2 33 1 35l40 1h39l2-2c2-3 2-30 0-33l-24-2h-39c-17-1-18-1-19 1m154-1c-16 0-16 0-16 19 0 12 0 13 3 15l2 3 19-1h37c20-1 23-1 21-5v-15l-1-15c-1-2-28-2-65-1M0 441l1 16zm729-7c-6 3-3 12 4 12q6 1 5-3 1-8-2-9zm-700 2c-6 6 0 13 10 10 5-1 3-9-3-10l-5-1zm71 1c-4 4-2 10 4 10q8 0 7-8c-1-4-8-5-11-2m69 0q-4 10 6 10 9-2 6-9c-2-4-10-5-12-1m71-1c-2 1-3 8-1 10l5 1q7 1 6-6-1-9-10-5m67 0c-2 1-3 8-1 10 2 1 10 2 11 0 2-2 1-8-1-10zm71 0c-4 2-3 11 1 11h5c4 1 7-5 4-10-1-1-7-2-10-1m69 0c-4 1-4 10 0 11h12c2-2 2-8 0-10-1-1-10-2-12-1m72 0c-3 2-3 8 0 10 2 3 9 2 11-1 4-6-4-13-11-9m75 0c-3 1-4 7-2 10 3 2 9 1 9-2q3-11-7-8m65 1q-3 2 0 7 0 4 6 3h5v-5q-2-12-11-5M29 459q-2 0-2 16c0 15 0 15 2 16 4 1 80 2 81 0l1-15c0-13 0-14-2-17l-2-2H69c-36 0-39 0-40 2m140-1c-2 2-2 31 0 33q1 2 67 1h13l1-3 1-16c-1-17 2-16-35-16l-30 1h-1c-1-2-15-1-16 0m139 0-3 2v15c0 20-3 18 31 18h37c16 0 16 1 16-16 0-19 0-19-18-19zm141 0c-4 1-5 4-5 17q0 18 3 17l27 1h39c19 0 18 1 18-18-1-15-1-16-6-17zm167 0h-22l-2 4c-2 6-1 28 2 30s73 1 75-1c3-3 2-31-1-33l-15-1zM1 500c0 11 0 12 2 12q3 0 0-8l-1-9q-1-12-1 5"
        mask="url(#16282281824-posters-1720553832941-horizontal-mask)" itemprop="light" fill-opacity="0.90"
        fill-rule="evenodd" stroke="none" fill="url(#16282281824-posters-1720553832941-vertical-light)"></path>
      <!---->
      <path id="16282281824-posters-1720553832941-regular"
        d="m0 129 1 129 1-3q-1-4 21-5c12 0 14 0 17 2l2 1v15c0 12-1 15-2 17l-2 3H25c-23-1-23-1-23-12q-2-23-2 27 0 71 2-1c0-3 9-6 13-3l2 1v33c1 47 1 46-7 45q-8 0-8-4l-1-3q-1-1-1 12c0 13 0 13 2 10 1-4 4-4 21-4 20 0 19-1 19 19 0 19 1 18-17 17-17 0-22-1-23-5q-2-7-2 9c0 10 0 10 2 8 3-2 12-3 14-1l1 39v37h9v-4q0-7 8-7t9 8q-1 4 4 3h4v-5c1-7 2-7 20-6 16 0 18 1 18 7q-1 5 4 4h4v-4q-1-9 8-8 8-1 7 8-1 5 4 4h4v-26c-1-36-1-48 1-50 1-2 1-2 17-2 22 0 21-2 21 22v56h9v-5q0-5 4-5 10-3 11 7-1 4 5 3h4v-4c0-7 2-7 19-7 17 1 18 1 18 8q-1 4 4 3 5 1 4-4a7 7 0 0 1 15 0q-1 5 4 4h3v-8c0-52 1-67 2-68q0-2 16-2c20 0 20 0 20 13v65h4q5 1 4-4 0-7 8-6 7 0 7 6 0 5 4 4 5 1 4-3c0-6 1-7 19-7s18 0 20 6q-1 5 5 4h4v-4c0-9 13-8 13 0q-1 5 5 4h4v-16l-1-45v-14l3-1c3-2 27-2 32-1 3 1 3 3 3 41v36h4q6 1 5-5 0-5 9-5 10-1 9 6-1 5 4 4 5 1 4-4c1-6 2-6 19-6q21-1 19 5 0 5 4 5 5 1 4-4 0-7 8-6 8-1 7 6 0 5 5 4h5l-1-37c0-45-2-40 20-41 17 0 19 1 20 4l1 38 1 36h4q6 1 5-3a6 6 0 1 1 12 0q-1 4 4 3 5 1 5-4c0-5 2-6 18-6 15 0 17 1 17 7q-1 4 5 3 5 1 4-3 0-7 7-7 8 0 8 7-1 4 4 3h5v-14c1-1-1-17-2-18v-4l2-20c0-24-1-22 19-22 14 0 15 0 16 2l1 39 1 37h4q5 1 3-2-1-8 6-8 10-2 9 8 0 3 5 2h4v-4c0-6 1-7 12-7h9v5q0 6 1-4v-9h-19c-28 0-26 2-26-19 0-19-2-18 23-18h21v-5l1-3-9-1-11-2-2-1v-38c1-46 0-42 12-43q12 1 10-5v-3h-19c-24 0-23 0-25-2-1-4 0-32 1-34q2-3 40-1c2 0 2 0 2 10l1-26q0-31-1-14v21h-9q-12 0-11-8l-1-37c0-40-1-37 12-38h9v16l1-113-1-114v16h-9c-12 0-12 0-11-18V0h-4l-5 1-2 4-2 3h-38c-42 1-41 1-41-6q0-2-4-2h-5v14c0 19 1 18-18 18-18 1-17 2-17-18V0h-5q-6-1-5 3c0 6 2 5-41 6-44 0-43 0-44-5q0-5-6-4h-5l1 14c0 20 2 19-27 19-11 0-10 1-11-28V0h-10v3c0 6-2 6-15 7h-54c-15 0-16 0-16-7q1-4-4-3h-5v4c0 15-1 27-3 28-1 2-3 2-16 2-19 0-18 1-18-19V0h-4q-6-1-5 4c0 7 1 7-39 7-42 0-44 0-44-8q1-4-4-3h-5v9l-1 15c0 9-1 10-17 10l-16-1-3-2V0h-5q-7-1-7 3c-2 7-1 7-41 7-41 1-41 1-41-7q1-4-4-3h-5v15c0 19 1 18-17 19q-20 0-20-4L50 6V0H40v4c-1 5-3 6-15 6Q7 11 11 2q3-2-5-2H0zm0 1 1 115 1-11c0 5 10 8 13 4 2-1 3-69 2-74-1-3-8-4-13-1-2 1-2 2-2 21l-1-82L0 1zM729 18c-6 4-5 12 2 14q8 1 8-7-1-11-10-7m-70 2a7 7 0 1 0 12 5c0-6-9-9-12-5m23 0-3 3v37l1 39c1 1 30 2 33 0s3-4 3-65c0-17 1-16-18-16-13 0-14 0-16 2m-305 1-2 3q0 14 11 8c2-1 3-9 1-11q-6-3-10 0m31-1-10 1-1 74c0 7 2 8 20 8 20-1 18 4 18-42l-1-39c-1-2-8-3-12-3zm41 0c-5 1-7 8-4 11 4 5 14 3 15-3q1-10-11-8m70 1a7 7 0 1 0 12 5c0-6-8-10-12-5m22 1v20c-1 12-1 53 1 56 1 3 1 3 23 3q14 1 14-2l2-19V48c-1-32 2-29-21-29h-17zm51-2c-2 2-1 9 1 11a7 7 0 1 0-1-11M99 22c-5 3-2 11 4 11q6 1 7-5 0-10-11-6m22-1c-2 3-3 77 0 80 2 2 26 3 32 1s6 1 5-71c0-11 0-11-19-11zm49 0a7 7 0 1 0 10 1c-2-2-8-3-10-1m69 1c-4 3-1 12 4 12q7-1 8-7c0-6-7-9-12-5m23 0c-2 1-3 11-2 70 0 9 1 10 16 11 15 0 19 0 20-3l-1-76q1-4-18-4-14 0-15 2m44 0c-2 2-2 9 1 11 3 3 12 1 12-3q1-6-2-8-6-4-11 0M27 23q-4 4 0 8c6 6 15 0 12-7-2-3-10-4-12-1M6 23c-4 2-4 7-4 47 0 31 0 30 7 31 8 2 8 2 8-38-1-42-1-44-11-40m639 18-28 1-25 1c-2 3-2 33 0 34q5 3 45 3l26-1c7 0 8-2 8-18 0-18 0-19-8-19-13-2-15-2-18-1m81 2c-1 2-2 29 0 33l2 2h20l21 1V41h-21c-16 0-20 1-22 2m-406 0c-17 0-16-1-16 19q0 15 2 16c1 2 5 2 40 2h40l1-3c2-5 1-31-2-33-3-1-42-2-65-1m140 0c-17 0-16-1-16 19s-5 18 44 18l42-1c2-2 2-32-1-35q-4-3-69-1M29 44c-4 1-5 23-2 32q3 6 16 5l34-1 29-1q3 1 4-15c0-15 0-19-4-20zm143 0c-3 1-4 3-4 18 0 13 0 15 2 16 3 3 75 3 79 1 3-3 3-30 0-34l-3-2h-36zm304 45-4 2-2 44-1 4 1 5 1 16c-1 15-1 14 18 14 20 0 18 3 19-33 0-50 0-50-6-51s-22-2-26-1m140 0-3 1-1 11v38c-1 28-1 32 3 33h29c3-1 4-5 4-41V94l-1-3c-2-2-2-3-15-3zm43 0c-2 1-3 9-1 11 3 1 10 0 12-1 4-6-5-14-11-10m68 2q-5 8 5 9a6 6 0 1 0-5-9m23-1c-2 3-3 75-1 79 1 3 2 3 11 3h9V88h-9q-10 0-10 2m-649 0a6 6 0 1 0 6 1q-2-3-6-1m69 1c-5 4-2 11 5 11q7 0 7-6c0-6-8-9-12-5m36-1q-12 0-14 2l-1 30v42c-1 8 1 9 17 10 15 0 18 0 19-3l1-62c0-21 1-20-22-19m104 0c-5 1-7 8-3 11a7 7 0 1 0 3-11m24 0c-5 0-5 2-6 42v37l2 3c4 3 32 3 34 0s2-78 0-80c-1-1-24-3-30-2m112 1q-6 9 7 11 8 0 8-5 1-7-8-8-5 0-7 2m73 0q-5 4 1 9a7 7 0 1 0 4-11zm74 0c-4 3-1 10 4 10q5 0 5-6-1-8-9-4M28 92c-6 6 2 14 10 10 3-2 3-9-1-11q-5-2-9 1m23 1c-1 3-1 75 1 78 2 4 31 5 35 1 2-2 2-75 0-79q-1-3-26-3c-9 0-9 0-10 3m188-1c-4 4-1 10 5 10s9-7 5-10c-2-3-8-2-10 0m138 0a6 6 0 1 0 10 5c2-6-5-10-10-5m294 18c-12 0-13 1-14 3v36c1 1 79 0 80-1 3-3 3-31 1-35l-2-3zm-147 1c-7 0-7 2-7 20s0 20 7 19h39c28 0 36-1 38-2s2-31 0-35l-2-2zm-424 1q-4 3-3 26c1 14-3 13 42 13 41-1 42-1 43-7s0-29-2-31-76-3-80-1m140 1q-5 2-3 23c0 13 0 13 6 14 8 2 71 1 74 0 3-3 4-34 0-37-2-2-75-2-77 0m138-1c-3 2-3 4-3 21 0 20-5 18 41 18 35 0 42 0 43-3 3-4 3-32 0-36zm-368 1c-8 1-8 1-8 17s0 18 7 19h31c2-3 1-33-1-35-1-2-22-2-29-1m675 46c-6 1-6 0-5 41l1 39c3 2 31 2 33-1q2-1 2-13v-15c1-15 0-47-2-49s-21-4-29-2m-584 1c-4 1-6 9-2 12 2 3 8 2 10 0 5-5-1-15-8-12m69 1c-3 2-3 10 0 12 2 2 9 1 11-2 5-7-4-16-11-10m70 0a7 7 0 1 0 11 5q-2-10-11-5m23-1c-3 2-4 17-3 58 0 24-1 22 15 23q20 1 20-3c1-2 2-64 1-70l-2-6c-2-2-28-4-31-2m184 0c-5 3-4 11 2 13q12 4 11-6l-1-6c-2-1-9-2-12-1m75 0q-5 1-5 7 0 5 5 6a7 7 0 1 0 0-13m23 0c-5 0-5 0-5 40s0 40 4 40c7 2 33 1 35-1s3-30 2-44v-12c1-7 0-21-2-22-1-1-27-2-34-1m47 1q-4 6 0 11 6 3 9-1c5-7-3-16-9-10m66-1c-2 2-1 11 1 12a7 7 0 0 0 11-9c0-3-9-6-12-3m68 1c-2 3-1 9 1 10 7 4 14-2 11-9-1-4-10-5-12-1m-699 1c-5 5 0 12 7 12 6 0 10-7 5-12-3-3-10-3-12 0m94 0c-2 2-2 69-1 75 1 4 2 4 18 4q18 2 20-3l1-54c0-26 2-24-20-24-14 0-17 0-18 2m184 0q-4 10 5 12 9 0 9-7 1-8-7-7-6 0-7 2m72 0q-3 3-1 9c1 4 9 4 11 1 4-8-4-16-10-10m22 0c-2 2-2 3-2 19 0 15 0 17-2 17v3q3 1 2 18c-1 19 0 22 6 23 8 1 29 0 31-2a522 522 0 0 0 0-74c0-5-3-6-20-6-12 0-13 0-15 2m334 19c-8 1-7 0-8 16 0 22-1 22 27 21l17-1v-37h-15zm-260 1c-29 1-29 0-29 6-2 31-1 32 13 31h37q35 0 35-2c2-1 2-27 1-31-2-4-10-5-57-4m-420 1c-21 0-24 1-26 2-2 3-2 28 0 31l2 3h20l56 1 3-2 3-2v-30l-3-2c-3-2-12-2-55-1m117 0-2 1c-1 19 0 33 2 34 1 1 72 2 77 0q4 1 4-17 1-19-8-18zm137 0c-5 3-5 34 0 35 4 2 78 1 80-1s2-30 0-33c-2-1-77-2-80-1m285 1-2 6-1 6v3l1 9 2 9c1 1 8 2 60 1 15 0 17 0 17-2 2-4 2-29 1-32l-2-2h-75zm-392 44c-10 1-9-2-9 41 0 32 0 37 2 38 3 3 30 3 34 0 2-2 1-75-1-77s-15-3-26-2m138 0q-9-1-9 3v70c-1 8 0 8 19 8l17-1c2-3 1-60-1-62v-4c3-3 3-10 0-13-2-2-8-2-26-1m41 0c-7 2-5 13 2 13q8 1 7-6-1-9-9-7m93 1c-3 3-2 76 1 79 1 2 25 3 30 2s5-4 5-42c-1-36-1-39-5-39-8-2-29-2-31 0m143-1c-4 2-4 5-4 33 1 41 1 46 3 47l26 1c8 0 8 0 8-38l1-34c1-2-2-8-5-9zm44 1c-3 2-3 9 1 11q8 3 10-3 1-14-11-8m68 0c-6 6 1 13 9 10 5-1 4-10-1-11q-6-2-8 1m-699 1c-3 3-2 9 2 10 10 3 16-4 9-10q-6-4-11 0m25 0c-2 2-2 4-2 26v38c0 12 0 14 2 15h33c3-1 3-4 3-43 0-33-1-35-2-37-4-2-32-2-34 1m45-1c-2 2-1 8 1 10 6 6 15-2 10-9-1-2-9-3-11-1m71 0c-2 2-1 10 1 11 8 4 16-5 10-10-2-2-9-3-11-1m69 1c-5 4-2 10 5 10q12 0 6-10c-1-3-9-3-11 0m68-1q-5 12 6 12 11-2 6-11c-2-2-12-3-12-1m139 1q-7 10 6 11 14 0 9-11c-2-3-13-3-15 0m73-1-1 6 1 5h5l7-1q2-4-1-9c-2-2-9-3-11-1m73 1c-1 3 0 9 2 9q8 3 9-5 1-7-6-6-4 0-5 2m-353 21c-2 3-2 34 1 36l39 1c46 0 42 2 42-18 0-18-1-19-8-19-15-2-72-2-74 0m143-1c-6 1-6 1-6 18q-1 19 3 19c3 2 80 1 81-1q2-1 2-17c0-21 4-19-33-19zm143 0c-7 0-7 1-8 17q-1 20 4 20l3 1h4l38-1 37-1c2-3 1-33-1-35-2-1-58-2-77-1m135 1q-3 0-2 15 0 21 5 21c5 1 74-1 76-2 2-3 2-32-1-34-3-3-76-3-78 0m-560 0c-3 3-3 33 0 36 3 2 79 2 82 0 1-2 2-4 2-20q0-14-4-16c-3-2-77-1-80 0M0 303l1 18zm121-4-1 40v37l2 2c3 2 30 2 34 0 3-2 3-2 3-41 0-34 0-37-2-38-3-3-34-3-36 0m49-2c-2 1-3 9-1 11s11 1 12-1v-9c-1-2-9-2-11-1m70 0q-5 5-2 11c3 4 13 0 13-5q-1-10-11-6m24 0c-4 1-4 2-5 40 0 47-2 42 19 42l16-1c2-1 2-10 2-72q0-7-3-9zm44 0c-5 1-5 10-1 11q12 3 12-5t-11-6m71 0c-2 0-4 6-3 9q2 5 9 3c9-2 2-15-6-12m20 0c-3 1-3 3-2 41 0 37 0 40 3 41 3 2 30 1 33-1 2-1 3-14 2-51 0-26 0-29-3-29-3-1-30-2-33-1m48 0c-6 3-4 11 3 12q10 2 10-3c2-7-5-12-13-9m73 0q-3 1-3 5-1 7 7 7 7 1 7-6-1-10-11-6m22 1-2 2v29c1 53 0 48 4 50 6 2 34 1 36-1s2-77 0-80c-3-2-35-3-38 0m51-1c-2 2-3 9-1 11a7 7 0 1 0 0-10m67-1c-4 3 0 12 5 12 6 0 9-6 6-10-2-2-9-3-11-2m24 0q-4-1-3 13v36l1 30c1 3 4 3 18 3 20 1 19 5 18-49 0-37 2-34-18-34zm45 0a7 7 0 1 0 8 11 7 7 0 0 0-8-11m-701 2c-4 7 6 14 12 9q4-5 1-9c-2-3-12-3-13 0m73-1q-3 5-2 9c2 3 9 3 12 0 4-5-5-13-10-9m256 20h-24c-30 0-27-2-28 17-1 16 0 20 3 21h71c11-1 10 0 10-18 1-20 2-19-16-20zm97 0q-10 0-9 7v28c0 3 5 4 44 3 45 0 39 0 41-2 2-1 2-4 2-17 0-21 4-19-38-19zm195 0h-27l-28 1c-2 2-3 15-2 28 1 10-1 10 41 9 40 0 39 0 39-8v-13q1-13-2-16zm-620 2c-2 2-2 4-2 15 0 15 1 18 4 19 3 2 75 2 78 1 5-3 4-33-1-36l-39-1c-36 0-38 0-40 2m141 0c-2 2-1 32 1 34s77 2 79 0c3-2 3-30 0-33-2-3-78-4-80-1m561 44c-9 3-6 17 3 15q8 0 7-7-1-8-6-9zm-668 1-10 1c-2 2-2 77 0 80 2 1 3 2 18 2 19 0 20 0 19-13v-35c0-28 0-32-2-33-2-2-13-3-25-2m39 1q-5 2-4 6a7 7 0 1 0 4-6m69-1c-3 1-3 11 0 13 5 5 13 1 13-6q-1-10-13-7m24 0c-3 1-3 2-3 29 0 37 1 51 3 53 3 2 29 2 32 0 2-1 2-1 2-30 1-28 0-49-2-50-1-3-27-4-32-2m45 1c-3 2-3 10 0 12 7 5 16-4 11-11q-5-4-11-1m92-1q-3 0-3 10v39l1 31 2 3h12c22 1 23 0 23-12 1-37 0-68-1-70-2-2-29-3-34-1m46 1a8 8 0 1 0 9 12 8 8 0 0 0-9-12m95 0c-2 2-2 34-2 68 1 15 0 14 19 15 13 0 16-1 17-2 3-2 3-79 0-81-2-2-32-2-34 0m47-1c-3 1-4 9-1 13 2 2 9 3 11 1 3-2 3-13-1-14zm97 0c-4 2-4 5-4 54 0 31-2 29 19 29 17 0 17 0 17-9 1-33 0-71-2-72-2-2-26-3-30-2m44 0c-6 3-3 15 4 15q8 0 7-8 0-11-11-7m-632 2c-7 7 5 17 12 11 3-3 2-10-1-12s-10-1-11 1m277 0c-4 8 2 15 11 12 4-2 5-9 2-13-2-2-13-1-13 1m140-1c-2 3-2 11 1 13s13 1 15-1c2-3 1-10-1-12s-14-1-15 0m148 1c-4 4-2 12 4 12q7 0 6-7c0-6-7-9-10-5m-419 21h-37c-44 0-40-2-40 16l1 17c1 5 2 5 46 5h35l2-3c2-2 2-3 2-17l-2-17zm505 0c-22 1-22 0-22 10v11q-1 11 2 15c3 3 77 3 79 0 2-2 2-32 0-34-1-2-25-3-59-2m-441 2c-2 2-2 31 0 34 2 2 4 2 25 2l25 1 15-1c12 0 14 0 15-2 2-2 2-32 0-34s-78-3-80 0m139 0q-2 2-2 25c1 12-3 11 44 11 31 0 40-1 41-2q2 0 2-16c0-22 4-20-44-20-31 0-40 1-41 2m141 0c-3 3-2 32 1 35 2 2 80 1 82-1 3-2 3-31 0-33-3-3-81-4-83-1m211 43q-4 2-4 7a7 7 0 1 0 4-7m-701 3c-6 6 2 14 10 11q6 0 4-7c-1-5-11-8-14-4m71 0a7 7 0 1 0 12 5c0-6-8-9-12-5m71-1q-3 2-2 9c0 5 12 5 14 0 3-7-6-13-12-9m69 1c-7 7 3 16 11 10 2-2 1-8-1-10-2-3-8-2-10 0m67 0c-4 3-1 12 5 12l3 2h1l2-3q4-5 1-11-6-5-12 0m72 0c-5 3-3 11 3 12q8 2 8-4c2-8-5-13-11-8m69-1-3 3v4q-1 2 2 5c5 5 17 2 16-4l-1-4c0-3-9-6-14-4m72 0a8 8 0 1 0 12 6q2-5-2-5-6-3-10-1m75 0c-3 1-4 9-2 12h9c5-7 0-14-7-12m65 1c-5 3-1 12 6 12q7 1 6-7 0-6-7-7zM63 457H28l-1 4v28c1 3 2 3 37 4 42 1 45 1 46-1 3-2 2-31-1-33-2-3-2-3-46-2m130 0h-24l-1 3-1 12v13c0 7 0 8 25 8 43 0 55 0 57-2 3-3 3-30 0-32-2-2-15-3-56-2m278 0c-30 1-29 0-28 23 1 14 1 14 21 14h42c28-1 26 1 25-19 0-18 1-18-15-18zm151 0c-34 0-31-2-31 19 0 14 0 15 2 16 2 2 8 2 38 2 42-1 41 0 40-10l-1-25c-2-2-12-3-48-2m-316 2c-1 1-2 19-1 31l3 3c4 2 77 1 80-1 1-2 2-26 1-31-2-4-4-4-44-4-34 0-38 0-39 2"
        mask="url(#16282281824-posters-1720553832941-radial-mask)" itemprop="regular" fill-opacity="0.90"
        fill-rule="evenodd" stroke="none" fill="url(#16282281824-posters-1720553832941-horizontal-regular)"></path>
      <!---->
      <path id="16282281824-posters-1720553832941-medium"
        d="m0 88 1 82q1-11 9-10c8 0 7-1 7 40l-1 38q-1 2-6 2-8 1-9-6-1-3-1 10v12l2-2c4-5 36-6 39-2l1 16c0 21 1 20-18 20-18-1-21-1-23-6q-1-5-1 10 0 13 1 10t6-4q10-2 10 2v77c-2 3-15 2-15-2l-1-1q-1-1-1 9c0 10 0 10 2 8 4-4 35-5 39 0l1 23c0 12 1 12-17 12l-17-1-5-3-3-2v9c0 9 0 9 2 8 3-3 13-3 15-1q2 3 1 56v20h3q5 1 4-3a9 9 0 0 1 18-1q0 5 4 4 4 1 3-5c1-7 2-7 21-7 17 1 19 2 19 8q-1 5 3 4 4 1 3-2-2-10 9-11 9 0 8 9-1 5 3 4h4l-1-27v-36c0-16 0-16 21-15 22 0 19-4 20 37v37q-1 5 4 4 4 1 3-4 0-7 8-7 9 0 8 7-1 5 4 4 5 1 4-3c0-8 2-8 23-8 13 0 15 1 16 7q-1 5 3 4 5 1 3-3-1-8 8-8 7 0 9 8 0 4 3 3h3v-72c0-6 1-6 18-6 15 0 16 0 18 2 2 1 2 4 2 39l1 37h3q3 1 3-2 0-6 4-8c6-3 13 1 13 7 0 5 5 5 6-1 2-6 3-7 20-7s19 0 20 7q0 5 5 4 4 1 3-3 0-5 4-7 9-4 11 7-1 4 3 3h4v-29c-1-26-1-46 1-47 3-3 34-3 37 0l1 39v37h4q4 1 3-3 1-8 10-8 10 0 10 8c0 5 6 5 7-1s2-7 18-7c18 0 21 1 21 9q-1 3 3 2 4 1 4-3 0-8 8-8 9 0 8 7-1 5 4 4h4v-37c0-46-3-41 21-41 19 0 21 1 21 8v33l1 32v4q-2 1 3 1 6 1 5-3-1-7 6-7 6 0 6 7-1 4 4 3 5 1 4-3c0-7 3-8 22-8q16-1 15 9 0 3 4 2 4 1 3-3 1-8 9-8 8 1 7 7-1 5 4 4h4v-25q-2-8-1-15l1-21c1-18 0-17 19-18 21 0 18-5 19 41v38h3q4 1 4-3 0-8 8-8 9 0 8 8-1 4 4 3 4 1 3-3c0-7 2-9 14-9h8v6q1 6 1-3v-9l-21-1c-24 0-24 1-25-8l1-25c2-5 1-5 34-5h10v-7h-9c-13-1-12 3-12-41 0-47-1-43 12-44q11 1 9-2l1-3c0-2-2-2-21-2l-22-1c-2-1-3-31-1-35 2-3 0-3 34-3h10v-6q0-5-1-4c0 2-15 3-18 1-2-1-3-15-3-52 0-32-1-30 11-30h10l1-8v-11q-1-1-1 5v6h-18c-26 1-27 1-26-14 0-26-2-24 24-24h20v-4l1-90-1-70v16h-9c-12-1-12-1-12-18V0h-4q-4 0-4 2l-2 4c-2 2-2 2-28 3h-36q-18 2-17-6 1-4-4-3h-5v15c0 19 1 18-18 18-18 0-17 1-18-18V0h-4q-5 0-4 2c0 7 1 7-43 8h-39l-3-2-2-5q1-4-4-3h-5v15c0 19 1 18-19 19-20 0-19 1-19-19V0h-5q-5-1-4 3 2 8-16 7h-69l-1-6q0-5-5-4h-4v15c-1 21 1 19-19 19s-20 0-19-15c2-16 1-19-4-19q-5-1-4 4c0 7-1 7-20 7-64 0-62 0-63-7V0h-9v15c0 16 0 18-6 19-5 1-25 1-28-1l-3-1V0h-5q-7-1-6 3l-3 6-3 2h-36c-41 0-40 0-41-7q0-5-5-4h-4v15l-1 17c-2 1-13 3-23 2-13 0-14 0-14-9l-1-14V0h-4q-5-1-4 3 1 10-20 7-15 0-10-7l1-3H0zm0 1 1 69 1-15c1 6 3 7 20 7 20 1 19 2 20-16q0-19-3-22H23q-22-1-21 5l-1-11q0-12 1-10 0 7 8 6 8 2 7-12c0-69 0-72-10-67-4 2-5 4-5 32 0 14-1 11-1-18 0-22-1-2-1 52m659-70c-5 5-1 14 6 14q7 1 6-8c0-7-8-11-12-6m22 0c-2 3-2 4-2 14v37c-1 34-2 31 17 31 22 0 20 4 21-42V22l-3-3c-3-3-29-3-33 0m46-1c-7 4 0 17 8 14s6-15-3-15zm-185 2c-3 3-3 77 0 80 2 2 33 3 36 1s4-12 4-45c-1-34-1-35-5-37s-32-1-35 1m50 0c-5 5-1 13 5 13q7 0 6-6-2-13-11-7m-468 0c-5 0-5 1-5 38s0 42 3 44c4 2 31 1 34-1l3-2V62c0-45 1-42-13-42zm139 0c-4 2-4 5-4 42 1 44-1 40 20 41l16-1c3-2 2-77 0-80-2-2-27-4-32-2m46 0c-6 1-7 11-2 13 3 2 10 1 11-1 5-7 0-14-9-12m67 1c-5 5-1 13 6 13q7 0 6-7c0-8-7-11-12-6m22 0c-1 1-2 5-2 40 1 47-2 42 20 42 16 0 17 0 19-3V22c-2-4-34-4-37-1m47 0c-5 5-1 13 6 13q14-1 9-11c-2-5-11-6-15-2m73-1c-2 2-1 10 0 12 2 2 10 2 12 0V20zM27 22c-5 5-1 13 6 12q11-3 5-12c-2-3-9-3-11 0m71 0c-2 1-2 9 0 10 2 2 9 2 11 0s2-8 0-10c-2-3-9-3-11 0m71 0c-5 5-1 12 6 12s10-9 5-13c-2-2-9-1-11 1m69-1c-2 2-1 10 1 11 2 3 8 2 10 0s3-9 1-11zm405 19-25 1c-31 1-28-1-28 19 0 16 1 19 6 20 7 1 69 0 72-1l3-2V61c0-21 1-20-16-21zm85 1q-4-1-4 20c1 19 0 18 20 18h25V40h-20zm-263 1c-23 1-22-1-22 20 1 19-1 18 19 18a41 41 0 0 1 18 2l45-2c6 0 6 0 6-18 0-22 2-20-26-20zm-263 1-33 1q-2 4-2 19c1 20-3 18 36 18 46 0 47 0 48-5s-1-30-2-32c-2-2-6-2-47-1m106 0q-6 0-5 16 0 18 4 20c2 2 77 2 79 0 3-2 3-32 0-34-2-2-5-2-39-3zM26 46v28c2 8 2 8 40 7 37 0 40 0 42-3 3-3 4-29 1-32l-2-3H27zm725 42c-3 1-3 3-4 33v33q-4 21 13 19h9V87h-8zm-304 1c-3 2-4 9-1 11 3 3 12 3 14 0 6-7-4-15-13-11m27 0c-4 1-7 9-4 15v10q-3 23 0 33v11c-2 7 0 15 3 16 5 1 31 0 33-2 2-1 2-4 2-39 0-42 0-43-6-44zm46 0c-6 3-3 13 4 13q8 1 7-7t-11-6m93 0c-2 1-2 81 0 83 3 3 32 2 34-1l1-40c1-48 3-43-18-43zm45 1c-4 3-2 10 4 11q13 0 7-11c-1-3-9-3-11 0m69 0c-5 7 3 14 10 9 6-4 3-11-4-11q-5 0-6 2M28 91c-6 6 0 14 8 12q6-1 5-7c0-6-9-10-13-5m24-1c-2 2-3 6-2 38 0 34 0 42 3 44 1 2 16 3 26 2q13 2 10-13v-8c1-3 0-58-2-61-1-2-32-4-35-2m47 1c-3 2-3 8 0 10q10 4 11-5-2-10-11-5m70 0c-6 7 4 16 12 10V91c-2-3-9-3-12 0m24-1c-3 3-4 8-2 50a82 82 0 0 1-1 26l1 3q-2 5 19 5c15 0 17 0 18-4v-40l1-37-3-2c-3-2-30-3-33-1m47 0c-6 4-4 12 4 12q8 1 7-6-2-10-11-6m66 1q-6 9 6 11 7 0 7-6c0-7-8-10-13-5m24-1c-1 2-2 3-2 13v20c-1 25 0 47 2 49 3 4 33 4 35 0 1-2 2-58 1-75 0-7-2-8-19-8zm47 1c-5 3-2 11 5 11q6 0 6-6-2-10-11-5m215-1c-3 4 0 12 5 12s8-9 5-12zm87 19h-20l-2 3c-2 3-2 34 0 37 2 2 78 2 80-1 2-1 2-3 3-17v-17l-2-2c-3-3-3-3-19-3zm-154 1q-9 0-9 9c-1 6 0 29 2 30 2 3 82 2 84-1s1-33-1-36c-2-1-5-2-28-2zm-269 1-17 1c-4 4-4 32-1 36l3 3h75l2-2c3-4 3-34 0-37l-22-1zm157 0-36 1c-2 2-3 6-3 20 0 21-3 19 29 19 53 0 55 0 57-3 3-4 3-31 0-35-2-2-5-3-47-2m-314 1-2 3-1 1q-3 1-1 2 2 0 2 15c0 20-4 18 42 18 45 0 43 1 43-11 1-12 0-26-2-27-1-2-78-3-81-1m593 46c-14 1-14-1-13 33 0 56-2 50 17 50 17 0 18-1 19-3 2-3 2-72 1-75q-2-7-24-5m-521 1c-4 3-6 10-2 13 2 2 9 3 11 1 3-2 3-9 1-12q-4-3-10-2m276 1c-4 3-5 10-1 13 4 2 13 1 14-2 3-9-5-16-13-11m280-1c-3 2-4 9-1 12 5 5 14 1 14-6 0-5-8-9-13-6m-700 2q-3 5 0 11c3 5 15 2 15-4 0-7-11-12-15-7m72 0c-5 5-2 13 5 13q7 1 7-7c0-7-7-11-12-6m23-1c-3 3-4 77-1 80 2 2 24 3 32 2 6-2 6-2 6-43l-1-38c-3-2-33-3-36-1m116 1c-2 2-2 10 0 12s10 2 12 0c2-3 2-11-1-13q-5-2-11 1m23 0c-2 1-2 12-2 55 0 27 0 27 20 26 17-1 17-1 17-10 2-22 1-69-1-71-3-2-32-3-34 0m47-1q-7 3-3 12c1 2 11 3 13 1 1-2 2-11 0-12-1-1-8-2-10-1m94 0c-5 0-5 2-5 20q0 17-2 17v5l1 12q-1 23 3 27c3 2 32 2 35-1s2-74-1-78c-2-2-22-4-31-2m116 1c-5 5-1 13 6 13q7 1 7-8c0-6-8-10-13-5m24-1c-2 1-3 9-2 45l1 35c2 2 27 3 34 1s7-2 7-41c0-33-1-39-3-40zm49 1c-5 5-1 13 6 13 5 0 8-8 4-13q-4-4-10 0m66 1c-3 8 4 15 11 11 3-2 4-10 1-12-2-3-11-3-12 1m-281 0c-2 1-2 10 0 11l6 1q7 0 6-4 3-9-6-10-4 0-6 2m-183 20-25 1c-2 3-1 32 1 34l2 2 36 1c36 0 42-1 43-3v-31c-2-4-7-5-57-4m118 0c-7 1-8 2-8 20 0 20-4 18 43 18 31 0 39 0 41-2 2-1 2-32 0-34-1-1-8-2-33-2zm137 0c-5 1-5 2-5 19 0 13 0 15 2 17s83 2 85-1l1-16c0-17 0-18-9-19zm144 1-3 6c-1 9 0 24 3 28 1 2-1 2 42 2 29 0 34 0 35-2 3-3 3-32 0-34-4-3-75-2-77 0m-561 0c-5 0-6 3-6 19l2 16 39 2 38 1 5-3 3-3-1-14-1-17c-2-1-68-2-79-1m311 44c-15 0-14-2-14 32v38c0 13-1 13 20 13 13 0 16 0 17-2 2-2 3-58 1-62q-3-2-1-4 4-6 0-12c-1-2-8-4-10-4zm130 2-3 2 1 30v35c0 13 0 14 18 15 14 0 18-1 20-4 1-3 0-73-1-76-2-5-30-7-35-2m143-2c-4 2-5 6-4 23v35c1 22 1 23 4 24h30c3-2 3-1 3-41 0-45 2-41-17-42zm45 1c-4 2-5 10-1 12q11 4 12-6-1-11-11-6m68-1c-6 3-4 12 3 13q10 1 9-6-1-9-12-7m-699 1c-8 3-2 15 6 14q7-1 7-7c0-6-7-9-13-7m25 0-3 3c-1 4 0 77 1 78 2 2 32 1 35-1 2-1 2 0 2-44 0-34 0-35-3-36zm46 0c-4 1-4 9-1 12 5 5 12 1 12-6q0-9-11-6m70 0c-6 3-2 14 5 14q7 0 7-8-1-10-12-6m26 0-4 2c-2 1-2 51-1 68l1 9 4 2h29l3-4c1-4 0-75-2-76-1-2-24-2-30-1m41 1c-6 7 2 15 11 11a8 8 0 1 0-11-11m71-1q-3-2-4 7c-2 6 11 9 15 5a8 8 0 0 0-11-12m68 2c-4 5 0 12 6 12q8 1 6-8c0-7-8-10-12-4m70-2c-3 2-4 11-1 13s13 1 15-2q4-6-1-11zm72 1c-5 5-2 12 5 12q9 1 8-6c0-7-8-11-13-6m73 0c-4 4 0 12 6 12 5 0 8-8 4-13-2-2-8-1-10 1m-39 20q-34 0-34 2c-3 3-3 30-1 35 2 2 8 4 10 3l37-1c42 0 41 0 39-12v-13c0-13-1-14-9-14zm137 0-31 1-1 15-1 14 4 8c4 3 75 1 78-2s3-31 0-34c-2-3-7-3-49-2m-589 1c-3 1-3 4-3 20l1 17 70 1c15 0 14 1 15-14q1-20-2-23c-2-2-76-3-81-1m138 1c-2 3-3 28-1 34 0 3 1 3 41 3 46 0 42 2 42-18 0-15-1-18-4-19l-39-2h-38zm141-1c-4 1-5 3-5 18 0 16 1 20 6 20 28 1 79 0 80-2 2-1 3-29 1-33-1-3-4-4-42-4zm-250 46c-10 0-9-3-10 42v39l2 2c4 2 34 1 36-1s4-73 2-78q-2-6-30-4m41 0c-3 2-4 9-2 11 4 5 13 3 15-2 1-7-7-13-13-9m71 0c-4 0-6 8-4 12h13a8 8 0 0 0-9-12m23 0c-5 1-5-2-5 53 0 34-2 31 19 31 20 0 19 0 19-16a19 19 0 0 1 1-13l-1-25c0-32 1-30-17-30zm136 0c-4 1-4 3-4 19 0 49 0 62 3 64 1 1 30 2 33 0 4-1 4-4 4-41 0-41 0-41-6-42zm143 0-3 4c-1 3 0 74 1 76 1 4 9 5 36 4l4-2c2-3 1-78 0-80-2-2-32-4-38-2m116 0q-4 5 0 11 4 4 10 1c3-2 3-10-1-11q-6-3-9-1m26 0c-6 0-6 1-6 42l2 40c3 3 31 3 34 0l3-2-1-38-1-39q-3-6-31-3m43 0c-6 3-3 13 3 13q9 0 9-7-1-10-12-6m-700 1c-3 1-3 9 0 11 2 2 10 2 12 0s3-8 0-10c-1-2-9-2-12-1m72 0q-5 5-1 11c3 4 12 1 12-4q-2-9-11-7m205 1c-3 3-1 11 4 11q12 2 11-7-1-7-8-6-6 0-7 2m72 0c-3 1-3 9 0 11 2 2 9 1 11-1 6-7-4-15-11-10m68 0q-4 3 0 10c1 2 11 3 14 1s3-10 0-11c-3-2-11-2-14 0m73-1c-2 2-2 9 0 11 2 3 10 3 12 0 2-2 2-9-1-11zm74 1a7 7 0 1 0 10 9 7 7 0 0 0-10-9m-125 19c-26 1-24-1-24 21 0 15 0 16 2 17 4 3 82 3 84 0 3-2 3-33 1-35-2-3-18-4-36-3zm-436 1-4 1c-1 2-2 26-1 31 1 6 2 6 44 6l38 1 2-3c2-2 2-3 2-16-1-17-1-18-5-19-2-1-69-2-76-1m139 0q-4 0-3 19c0 15 1 17 4 18l38 1c40 1 42 0 42-5 1-7-1-30-2-31-2-2-75-3-79-2m139 0c-5 1-6 3-6 20 0 21-5 19 41 19l41-1c3-1 4-3 4-14v-9c1-1-1-12-2-14-1-1-72-2-78-1m286 0q-5-1-5 21c1 16 1 17 10 18 11 1 69 0 70-2 2-1 3-26 2-32-2-5-2-5-40-5zM65 364c-16 1-15-4-14 42l1 41 18 1c22 0 20 5 20-42-1-35-1-39-3-40q-3-3-22-2m107 0c-5 1-7 9-3 14 1 2 11 3 13 1 5-7-2-18-10-15m26 0q-8 0-7 10l-1 45 3 27q1 2 16 3c15 0 15 0 17-2l3-3v-38c-1-46 1-42-16-42zm42 0c-5 2-6 11-1 14 5 5 13 1 12-6q-1-11-11-8m95 0h-3l-4 3-1 50 3 30 29 2c8-2 9-3 8-25v-37c-1-20-1-22-4-22-3-1-26-2-28-1m45 0c-5 0-8 8-5 14 3 5 14 2 14-5q0-11-9-9m91 1-2 3 1 8v62c1 11 1 11 20 11 13 0 16 0 17-2 2-2 2-79 0-81-3-3-33-3-36-1m46 0c-3 4-2 14 3 15 8 4 14-3 11-13-1-4-10-5-14-2m100-1c-5 1-5 2-6 39 0 33 1 42 3 44q1 2 16 2c20 0 19 5 18-43l-1-40c-2-1-23-3-30-2m45 0q-5 1-5 6-2 10 7 10 9 1 8-8 0-10-10-8m66 0-3 5q-3 11 7 11 10 1 8-8-1-12-12-8m-700 2c-6 4-2 14 6 14q9 1 8-7c0-8-8-12-14-7m72 0a8 8 0 1 0 12 6q-1-10-12-6m205-1q-4 7 1 13c2 3 10 3 12 0 3-3 3-10 0-12s-11-3-13-1m140 1q-2 1-2 6-1 9 9 9 13 1 10-12c-1-5-11-7-17-3m148 0c-3 2-3 10 0 12q6 5 10-3c3-7-4-14-10-9m-490 22c-6 0-6 2-6 19 0 15 0 18 3 18l40 1h39l3-3 2-1q3 3 3-2l-1-3-1 1-1 1-1-11q0-18-2-20zm136 0q-4 0-3 22c1 18-1 16 27 17l40-1c18 0 17 1 17-19 0-16 0-17-3-18s-75-2-78-1m157 0c-22 0-22 1-22 18 0 15 1 19 4 20s78 0 81-1q4 2 3-13 1-20-2-23c-2-2-18-2-64-1m123 0c-5 3-5 34-1 38l26 1h28q24 1 29-2c4-3 3-32 0-35-2-2-79-4-82-2m154 0c-17 0-17 0-17 19 0 20 0 20 21 20l38-1c23 0 23 0 24-2 2-4 1-35-1-36zm54 46c-2 1-3 8-1 11s10 3 13 0c5-7-4-17-12-11m-700 2q-5 11 8 12 10 0 7-10c-1-4-13-6-15-2m71 0q-4 11 6 12 11-2 6-11c-3-4-10-4-12-1m71-1q-3 5-1 11c3 3 11 4 13 1 2-2 2-8 1-10-2-3-10-4-13-2m69 0-1 6 1 6c2 2 10 1 12-1s2-9 0-11zm67 1q-6 6 6 13 6 3 5 1l2-3c7-7-5-18-13-11m72 0c-6 6-3 13 5 13q9 1 8-8c0-6-9-10-13-5m68 0q-4 6 0 11c3 3 13 3 15 0q4-5 0-11c-3-3-13-3-15 0m73 0q-4 5 0 11a8 8 0 1 0 12-12c-4-2-11-1-12 1m74 0c-4 6-1 13 5 13 5 0 8-9 4-13-2-3-8-2-9 0m66-1c-2 2-2 9 0 12 2 1 11 2 12 0 2-2 2-9 0-11s-9-3-12-1M99 456H64c-42 0-38-2-39 18 0 15 1 17 6 18 8 2 78 2 79 1 3-3 4-26 2-31s-11-9-13-6m117 0-23 1c-28-1-26-2-27 16v13l2 5 2 3h39c47 0 42 2 43-18 0-20 1-19-16-20zm277 0-24 1c-27-1-25-1-26 13q-1 20 2 23 5 2 66 1c22 0 21 1 21-18 0-18 0-19-10-19l-11-1zm151 0-29 1c-20 0-22 0-23 2-3 6-2 32 1 34l43 1c40 0 36 2 36-19 0-18-1-19-12-19zm-336 1q-6-1-4 19c0 13 0 14 2 16l3 2h39c45 0 41 1 42-12 2-22 0-25-16-25z"
        mask="url(#16282281824-posters-1720553832941-vertical-mask)" itemprop="medium" fill-opacity="0.90"
        fill-rule="evenodd" stroke="none" fill="url(#16282281824-posters-1720553832941-vertical-medium)"></path>
      <!---->
      <path id="16282281824-posters-1720553832941-bold"
        d="M0 42v42l1-29c1-31 1-31 5-33 11-4 13 1 12 29v26q4 29-9 25-9 0-8-7l-1 11q0 12 1 11c1-4 4-5 21-6 19 0 20 0 20 10q0 7 2 5l1 2-1 2q-2-1-2 9c0 13 0 12-20 12-19-1-21-1-21-8l-1 11q0 13 1 12c1-6 11-9 15-4 3 2 3 73 0 77-2 3-11 3-14-1l-2-2v18l3-2c3-2 4-2 20-2h17l2 3c2 3 2 20 0 29-1 6-2 7-19 6-17 0-20-1-22-4q-1-4-1 7 0 12 1 9l7-3q10-3 10 7v71c0 6-15 6-17 0q-1-1-1 7v9l4-2c3-2 6-2 18-2 21 0 21 0 22 22 0 18 0 18-20 17-16 0-19 0-22-3l-2-2v8q0 9 1 7c3-2 11-3 14-1 4 2 4 2 4 42v35h3q3 0 2-1l1-6c3-9 19-6 19 3q-1 5 3 4l2-2c0-10 3-11 21-11 17 1 19 2 20 8q4 10 5 1t10-10 8 9q-1 6 3 5c3 0 2 2 3-19l-1-32c0-23 0-24 2-26l2-2h17l18 1q5 4 3 13v47c-1 6 1 18 4 18q3 0 2-3 0-11 12-8 6 0 6 7-1 5 3 4 4 1 3-3l2-6 3-3h11c20 0 24 1 24 6q0 6 3 6 3 1 2-3-1-8 9-9 8 0 9 8-1 5 3 4h2v-9c-1-29 0-67 2-68 1-2 4-2 17-2 23 0 21-7 21 57 1 22 1 22 4 22q3 1 2-4-1-8 8-7 10 0 10 8-1 4 3 3 2 0 1-1l3-9 19-1c18 0 20 1 20 8q-1 4 3 3 4 1 4-4-1-8 7-7 8 0 9 7 0 5 3 4h3l-1-20v-42q-2-15 4-16c3-2 30-1 33 1 3 1 4 5 3 40 0 32 0 37 4 37q3 0 3-4-1-8 10-7 12 0 11 8-1 4 3 3 3 1 2-3c0-8 4-9 27-8q15 0 14 8-1 4 3 3 3 1 2-4-1-7 9-7t9 7q-1 5 3 4h4l-1-33v-34c-2-10 2-12 21-12 18 0 22 1 22 5l1 58v10q3 4 0 5-1 1 3 1h4v-4q0-7 7-7t7 8q-1 4 3 3 4 1 3-3c0-7 2-8 19-8s19 1 19 8q-1 4 4 3 4 1 3-4-1-7 9-7 9 0 8 8-1 4 3 3 6 1 3-23l-1-9v-4l1-21c1-24-1-22 21-22l16 1q3 4 3 51l-1 27h3q4 1 3-3c0-7 8-11 14-8 2 1 5 8 3 10l3 1q5 1 4-4-1-9 12-8 12-1 10-5l-20-1c-27 0-25 1-25-19-1-22-2-20 24-20h21v-7h-9c-14 0-13 3-13-42s0-45 12-44h8q2 1 2-3v-3h-19c-22 1-23 1-25-3s-1-30 1-34l2-3h20l21-1q4-6-8-5c-11 0-12-1-12-9l-1-7c-2-2-1-65 0-67l11-2h10v-6h-20c-26 0-26 0-25-17l-1-3v-2l1-6c0-11 0-11 24-11h21v-7h-9c-15 0-14 4-13-42 0-44 0-43 7-44q14-2 15 1c1 1 1-19 1-43l-1-29v17h-7c-14 0-15-1-15-19V0h-3q-3 0-4 4c-2 6-3 6-43 6h-37l-2-3-2-5q1-2-4-2-4 0-3 2v18q1 12-5 13l-5 1c-5 1-22 0-24-1l-2-2-1-15V0h-3q-4-1-4 3c-2 7 0 7-44 7-45 0-43 1-45-7q1-4-4-3h-4l1 5c1 8 0 21-1 26-1 3-3 3-19 4-21 0-20 1-20-20V0h-3q-5 0-5 5c0 6-1 6-46 6-44 0-42 1-41-10l-4-1h-3v13c0 22 0 22-20 22s-21-1-19-16q2-20-4-19-4-1-3 4c0 8 0 8-40 8-43 0-43 0-44-7q-1-6-5-5h-3v16c-1 16-1 16-4 18-5 3-32 2-34-2l-1-17V0h-4l-5 1-4 9-39 1c-42 1-40 1-42-7q-1-5-4-4h-3v15c0 17 0 18-7 19H53c-4-2-4-2-4-19V0h-4q-4 0-4 5 2 5-15 6l-14-1q-5-4-2-7T6 0H0zm0 0 1 21zm730-25c-6 1-8 10-4 14 3 3 10 3 12 0 5-5 0-16-6-15zm-186 1c-4 2-4 3-4 40-1 43-1 43 7 44h32l2-3c1-3 2-74 0-77-1-3-5-4-20-4zm48 1c-3 2-3 10-1 13q6 3 11-1c6-7-3-18-10-12m66 0q-4 6 1 12c2 2 9 3 11 1s2-10 1-12c-3-4-11-4-13-1m22 0-2 3v29c0 49 0 46 3 49 2 2 3 2 16 2 21-1 20 0 20-23V42c0-27 2-25-19-25-15 0-15 0-18 2m-580 1a8 8 0 1 0 6-1l-3-1zm24-1c-6 2-6 2-6 41 0 47-2 44 21 44 14 0 15 0 18-2l3-3-1-37c0-41 0-42-5-42-7-1-27-2-30-1m139 1c-5 2-5 3-5 40 0 46-1 44 22 44 19 0 17 3 18-34 0-42 0-41 2-41a2 2 0 1 0-2-2l-1-2c-2-5-5-6-17-6h-12q-3-1-5 1m42 1q-5 6 0 12c5 5 16 1 16-5 0-8-10-12-16-7m71-2c-6 7-3 16 6 16 7 0 10-11 4-16zm22 1c-2 3-2 3-3 37 0 50-2 47 21 47 22 0 20 5 20-43V22l-2-2c-4-3-33-3-36 0m48 0c-7 5-3 15 6 15q15-3 8-14c-2-3-11-4-14-1m71 1c-2 3-1 10 2 12 2 2 10 1 12-2 1-1 1-10-1-12-1-2-11-1-13 2m-347-1c-7 3-4 15 5 15 3 0 9-5 9-7q-2-11-14-8m69 0c-3 2-3 11 0 14a8 8 0 1 0 0-13M25 21c-4 6 1 14 9 13q10-4 5-13c-2-3-12-3-14 0m624 18h-28c-34 1-31-1-32 19 0 23-3 22 42 22 44 0 41 2 41-24-1-15-1-16-10-17l-9-1zm-140 1h-29c-30 0-34 1-36 4l-1 17c0 20-1 19 19 19 14 0 16 0 16 2h2l25-2c28 0 29-1 27-9V57c0-14-1-15-14-16zm216 3c-3 6-2 35 2 35h41l1-20V40h-43zm-549-2c-9 1-9 2-9 20 0 21-5 19 40 20 48 0 45 1 45-20 0-15-1-17-6-19-4-2-4-2-37-1zm131 1c-4 1-4 3-4 20 1 20-4 19 44 18l40-1c2-3 2-33 0-36-2-2-7-2-47-2-24-1-30 0-33 1M28 43q-4-1-4 18c1 14 2 18 6 20l60 1 16-1 3-2c2-3 2-4 2-17 0-21 5-19-42-19zm420 46c-8 3-7 11 1 14 7 1 8 1 11-1 6-7-3-17-12-13m25 0-3 2-1 19-1 22v11l1 14c0 15 1 18 9 18h8c24 1 22 3 22-33l1-30c1-1 0-15-2-20q2-4-18-5-13 0-16 2m139 0q-2 2-2 5v45c0 31 0 33 5 35h27c6 0 6-1 7-22l1-24-1-12v-16a9 9 0 0 0-1-9c0-5-32-6-36-2m45 0c-5 5-1 13 6 13q9 0 8-7c0-7-8-11-14-6m70 0c-7 6 1 16 9 12q5-3 4-9c-2-5-9-7-13-3m-626 0c-4 1-6 8-4 11s8 4 10 3c8-4 3-17-6-14m70 0c-3 0-5 6-4 9a8 8 0 1 0 13-9zm23 0c-4 2-4 3-5 25l1 31v16c-2 11 2 14 21 14s18 3 18-40c1-31 0-42-2-45-2-1-29-2-33-1m115 0c-6 1-8 8-3 12q9 7 14-3 1-7-3-9zm24 0c-6 0-6 1-6 43 0 45-1 42 12 43 11 1 23 0 26-1l2-2v-39c0-48 2-44-17-44zm185 1c-5 5-2 12 6 13q8 0 8-7 0-8-8-8zm75-1a7 7 0 1 0 9 11c5-7-2-15-9-11M27 91c-3 2-2 9 1 12 5 3 14 0 14-6 0-7-11-11-15-6m23 0c-1 2-2 71 0 77q1 6 6 7h8c8 2 22 0 24-2s2-4 2-37c0-37-1-42-4-45-4-3-34-3-36 0m187 1q-3 3 0 6c3 7 13 7 15 0 3-8-10-13-15-6m139-1a7 7 0 1 0 11 10 7 7 0 0 0-11-10m295 18c-17 0-16-1-16 22 0 17 0 17 2 18 3 2 71 3 78 1 4 0 5-3 6-18q0-20-3-22c-2-1-42-2-67-1m-399 1h-15c-22 0-22 0-22 21 0 14 0 15 2 18l3 3h63c6 1 14-1 16-3 2-3 3-25 1-32-2-6-3-7-25-7zm177 0h-35l-37 1c-3 2-3 5-3 23l-1 15 4 2c3 2 28 2 67 1 19-1 19-1 18-27 0-11-1-13-3-14zm71 0-4 4v32q2 7 6 5h39c48 0 43 2 43-19-1-17-2-21-5-22zm-420 1c-4 1-8 8-5 8l1 13c0 15 1 18 6 19s76 0 78-1c4-2 4-34 0-38-1-2-76-3-80-1m172 47c-14 0-14 1-14 18v35c0 24 1 28 4 30s30 1 33 0c2-2 3-12 3-46 0-33-1-36-9-37zm177 0q-9 5-4 14c2 3 12 4 15 1 6-6-2-18-11-15m236 0-5 2-2 2v75l3 3 2 2h15q17-1 17-3c3-3 3-76 0-80-2-1-25-3-30-1m43 0c-4 1-6 11-2 14 2 2 10 1 12-1 4-4 3-11-2-13zm-702 2c-7 8 5 20 14 13 2-1 3-8 1-11-3-4-11-5-15-2m72 1a7 7 0 0 0-2 8 8 8 0 1 0 2-8m22 0c-3 5-3 73 0 78l2 3h12l20 1c4 0 9-3 5-3v-1l1-18v-35c1-28 1-28-22-28h-16zm49 0q-5 6-1 11a8 8 0 1 0 1-11m69 0q-4 4-2 9a9 9 0 1 0 2-9m70-2c-5 2-7 11-3 14 6 4 14 2 15-4q0-13-12-10m94 0c-6 2-6 4-6 21q0 16-2 16v4l1 17c0 11 2 23 3 25q3 2 24 1c16-1 15 3 14-41 0-42 0-41-7-43zm115 1c-5 6-1 15 7 15s11-13 4-16q-6-2-11 1m24 0-2 3v37c0 47-3 42 21 42 25 0 22 6 22-58 0-28 2-26-22-26-16 0-17 0-19 2m50 0c-3 2-3 10 0 12q6 4 11 0c6-8-3-18-11-12m65 2q-2 8 3 11 12 4 12-6 1-10-8-9-6-1-7 4m-278-2c-5 2-6 12-2 14h11c8-6 0-18-9-14m83 21c-19 0-18 0-18 16l-1 13v5c3 5 6 6 18 5h39c32 0 32 0 32-6q1-30-2-31c-3-2-22-3-42-3zm130 2-2 6-1 6v4l1 9q-1 12 9 12h39l29-1q4 1 4-2c1-3 2-27 1-30-1-6-1-6-41-6-36-1-37-1-39 2m-561 0c-5 1-6 3-6 15q0 19 4 21l39 1 38 2 4-3 4-4-1-13c0-16 0-17-4-19s-72-2-78 0m137 0-1 17c0 20 0 20 19 20q64 0 65-2c2-1 3-21 2-28l-4-7-2-2h-39c-37 0-39 0-40 2m138 0c-2 2-2 3-2 18v15l4 4 4 2 37-1c38-1 39-1 41-5v-30c-2-5-4-5-45-5-36 0-37 0-39 2M57 227c-8 0-7-1-7 42l1 40c2 2 4 2 19 2 22-1 20 4 20-42 0-40 0-39-3-41-2-1-22-2-30-1m43 0c-4 0-5 10-2 14l6 1q9 0 8-9-2-9-12-6m98 0c-9 1-9-1-8 42l1 39q4 3 21 3 20 0 17-10v-38c-1-40 1-36-15-37zm42 0c-5 2-7 9-3 13 3 3 11 2 14-1 1-2 1-9-1-11-2-1-8-2-10-1m68 0-4 2-1 11 2 1c2 2 11 2 14-1 6-7-1-15-11-13m22 0c-3 2-3 5-3 31l1 31v7q-2 6 1 12c2 2 2 2 18 3 22 0 20 4 20-34l-1-32v-3c2-1 2-11-1-13-2-2-3-3-18-3zm46 1c-5 6-2 14 6 14q7 1 7-6c1-9-7-13-13-8m71-1q-4-1-4 8-3 8 8 7 12 2 11-8 1-10-15-7m25 1-3 2v37c0 40 1 42 5 43h32q4-4 3-13l-1-34c0-33 0-33-3-35-5-3-30-3-33 0m48-1c-8 3-6 15 4 15q9 0 8-8-3-9-12-7m71 1c-3 2-3 9 0 11q9 7 12-3c2-8-6-13-12-8m23-1c-4 2-4 5-4 27 0 17 0 21-2 21l1 3 1 3 1 5v9q-1 13 4 15l15 1c20 0 18 3 19-34l1-37q1-7-2-10l-3-3-14-1zm44 1c-4 2-3 12 2 13a8 8 0 1 0-1-14m67 1q-4 6 0 11c6 4 15 1 15-5 0-7-10-11-15-6m-700 2c-3 5 1 12 9 12q9 0 7-7c0-8-12-12-16-5m143-1c-5 5-2 13 6 13 7 0 11-8 6-14-2-2-10-1-12 1m548 19h-30c-34 0-31-2-31 18q-2 22 4 22c7 1 77-1 79-2 2-2 3-29 1-34-2-3-16-6-23-4m-480 3c-2 2-2 3-2 17 0 17 1 20 5 21h60c20 1 21 0 21-20q1-20-5-19l-39-1h-37zm144-2c-7 0-7 2-8 18 0 21 2 24 18 22h47c25 1 25 1 24-22 0-14 0-15-2-16-2-2-65-3-79-2m142 0c-7 0-8 2-8 20q-1 21 6 19l2 1 2 1 3-1 37-1c41 0 39 0 39-8 0-23 0-27-2-29l-2-2zm-425 1c-2 2-3 13-2 15v8c-1 0-1 7 1 11q2 6 13 5h45c15 1 27-1 27-3l1-1c1 0 2-19 1-28l-2-5-3-3h-40zm39 44-8 1-7 1-2 3c-3 6-3 76 0 79 2 3 27 4 35 2 5-2 5-1 5-43 1-42 1-42-13-42l-9-1zm274 0-6 1c-10 0-10-1-10 42 1 42 1 42 8 44 9 1 29 0 31-3l2-2v-76q0-5-16-5zm-383 2q-5 4-2 11c2 3 12 4 15 2v-12c-2-2-10-2-13-1m140 1a9 9 0 1 0 16 4c0-5-12-9-16-4m70-1c-5 6-2 14 5 14q12-1 8-11 0-4-7-4zm22 1c-2 3-2 4-2 12v38c0 29 0 29 2 31l3 2 20 1c1 1 12-2 13-4q3-1 1-12l1-12q3-1 1-3l-1-24c0-32 1-31-21-31-14 0-15 0-17 2m45 0q-4 3 0 11c2 3 11 3 14 0 7-7-5-17-14-11m72 0c-3 2-4 9-1 12s10 3 12 0c7-7-4-18-11-12m68 0c-3 2-3 9 0 12 2 2 11 3 14 1 4-2 4-10 0-13-3-2-11-3-14 0m73 1c-3 4-3 4-2 8 3 7 17 6 17-1 0-9-10-13-15-7m24-2q-3 3-4 11v26l1 10c0 32 1 35 5 37h36q4-4 3-7l-1-36v-37c0-4-4-5-22-5zm49 2a7 7 0 1 0 11 10 7 7 0 0 0-11-10m66-1c-3 6 1 13 7 13q9-1 7-10c-1-5-12-7-14-3m24 0-3 4v5l1 9v60c1 5 4 5 20 5 21 1 19 3 19-32v-38c0-15 0-15-20-15-14 0-16 0-17 2m45 0c-5 5-1 13 5 13 8 0 13-7 8-13-2-3-11-3-13 0m-240 18-20 1-20 1c-3 2-3 4-3 26v12l3 1c4 2 79 2 83 1 3-1 3-4 3-21 1-18 1-18-12-19l-22-1h-9q-1-3-3-1m-177 2c-5 1-6 3-6 18 0 18 0 20 3 21l80 1c3-2 4-6 4-20 0-20 1-19-18-20zm287 0c-6 2-7 4-6 21l1 17c2 2 15 4 18 3l30-1h30c3-2 4-5 4-20s-1-19-6-20zm-568 1c-4 3-4 33 0 37 1 1 6 2 41 2h40l2-3c4-5 1-34-3-36zm139 1c-2 4-1 34 1 35v1c0 2 71 3 78 1q6-1 6-9v-15c-1-16 4-14-44-15h-39zm563 44a9 9 0 1 0 11 6c-1-3-5-8-7-7zm-701 1c-4 2-5 12-1 15 4 4 13 2 15-3 2-7-6-15-14-12m28 0c-8 0-8 0-7 43l1 39c2 3 7 3 29 3l8-2 2-2v-39c0-47 2-42-16-43zm43 1c-7 4-5 14 3 15q10 1 10-7-1-13-13-8m68 0c-3 3-2 11 1 14 3 2 10 3 13 0 3-2 3-11 0-13-3-4-11-4-14-1m24 0c-2 2-2 1-3 33 0 21 0 20-2 18h-2q-1 1-1-8l-1-15c0-6 1-6-43-6h-40l-2 2c-2 3-2 4-2 15q0 20 4 22l39 1c39 0 41 0 43-4h5c2-2 4 6 4 13-1 12 0 13 20 14h13l3-3q4-3 3-7l-1-9v-55q1-10-5-12c-5-2-30-1-32 1m45 0c-5 6-1 15 7 15q11-1 7-11-5-10-14-4m68 0c-5 3-2 14 4 16q11 2 12-9c0-8-9-12-16-7m24 0c-3 3-3 5-2 68 0 16 0 16 18 17q20 0 22-5c2-4 1-77-2-80s-33-3-36 0m47 0c-3 3-4 10-2 13s10 4 13 1c3-2 4-10 2-13-3-3-10-4-13-1m71-1q-6 3-4 14c2 4 13 5 17 1l3-1 2 1v5q3 3 3-1l1-3 1 4-1 11q1 7-2 5v2c2 3 2 6 2 23v20l3 2 2 3h32l2-3q2-4 1-18v-31c1-27 0-32-3-34l-18-1c-19 0-19 0-19 9l-1 6q-3-1-4-7-4-11-17-7m70 1c-3 2-3 11 0 15a10 10 0 1 0 0-15m79-1q-6 1-6 8-1 9 8 8 11-3 5-13-3-5-7-3m18 1c-3 2-3 6-3 52 0 29 0 30 6 32h28l1-1c3 0 4-8 4-16l-1-22c1-39 0-44-3-45l-15-2c-14 0-15 0-17 2m44 0c-3 2-3 11 0 14q6 5 12 0l3-2-1-9c-1-5-9-7-14-3m-405 22c-19 0-18-1-18 19 0 15 1 19 5 21h23l23 1h3l15-1c18 0 17 1 17-20v-16l-3-2c-3-2-28-3-65-2m155 0c-34 1-33 0-34 9l-1 8v2l1 10c1 12-3 11 43 11s44 0 46-8c2-10 0-27-3-30-2-2-13-3-52-2m116 0c-8 0-9 1-9 18 0 20 1 21 9 22l41 1h34l3-3 3-3-1-15c0-22 4-20-39-20zm150 0c-18 0-18 0-19 18-1 21 1 23 20 22h63l2-3q2-2 1-4v-15c0-13-1-16-3-18zm54 46c-5 2-5 9-2 13q5 4 12 1a9 9 0 0 0-6-16zm-702 3q-3 3 0 9c3 6 18 4 18-3 0-8-12-13-18-6m72-1c-4 5-1 13 3 13 10 2 16-7 9-13-3-3-10-3-12 0m70 1c-5 7 1 16 10 13q10-4 4-13c-3-4-11-4-14 0m70-1c-5 7-1 15 7 14q11-2 6-14c-3-3-11-3-13 0m67 0a9 9 0 0 0 6 14l1 2c3 2 9-4 9-9 0-8-9-12-16-7m72-1c-3 3-4 11-1 14 2 2 9 3 12 1 3-3 4-10 1-13-2-3-9-4-12-2m68 0c-3 3-3 12 0 14 4 2 13 2 16 0 2-2 2-9-1-12-2-3-12-4-15-2m72 1c-5 5-1 15 7 15s13-12 6-15q-7-4-13 0m74 0c-3 3-2 11 1 13 5 4 12 1 12-6 0-8-8-12-13-7m68-1c-4 3-5 10-1 13 2 2 11 2 13 0 3-3 2-11-2-13zM28 457q-4 1-3 19c0 14 1 16 7 17 10 2 78 1 80-1l1-16v-15l-3-3-3-3H69c-31 0-39 1-41 2m143-1c-4 0-5 2-5 15l-1 15 1 3c0 5 0 5 67 5h16l2-3c3-6 3-29 0-33l-3-2zm138 0c-5 2-5 2-6 18 0 23-2 22 45 21h21l11-1c11 0 11 0 11-18v-15l-3-3c-3-2-4-2-17-2zm147 0q-14 1-13 7l-1 16 3 14q4 3 15 2h9l17 1 28-1c20-1 19 0 19-20 0-21 4-19-43-19zm160 0-24 1-3 11-1 8 1 2 1 8q0 11 12 9l66-1q6 2 5-19c0-14 0-14-3-17l-2-3h-14z"
        mask="url(#16282281824-posters-1720553832941-horizontal-mask)" itemprop="bold" fill-opacity="0.90"
        fill-rule="evenodd" stroke="none" fill="url(#16282281824-posters-1720553832941-vertical-bold)"></path>
    </pattern>
    <rect id="16282281824-posters-1720553832941-pattern-render" fill="url(#16282281824-posters-1720553832941-pattern)"
      width="100%" height="100%"></rect>
  </defs>
  <radialGradient id="lightbar" cx="50%" cy="200%" fy="0" r="201%">
    <stop offset="0%" style="stop-color: rgb(255, 255, 255); stop-opacity: 0.1;"></stop>
    <stop offset="10%" style="stop-color: rgb(0, 0, 0); stop-opacity: 0.1;"></stop>
    <stop offset="30%" style="stop-color: rgb(0, 0, 0); stop-opacity: 0.3;"></stop>
    <stop offset="90%" style="stop-color: rgb(0, 0, 0); stop-opacity: 0.55;"></stop>
    <stop offset="100%" style="stop-color: rgb(0, 0, 0); stop-opacity: 0.6;"></stop>
  </radialGradient>
  <g class="radial">
    <radialGradient id="16282281824-posters-1720553832941-radial" gradientUnits="userSpaceOnUse">
      <stop itemprop="radial" stop-color="#a8a7a4" offset="0%"></stop>
      <stop itemprop="radial" stop-color="#b2b0ae" offset="15%"></stop>
      <stop itemprop="radial" stop-color="#aaa9a7" offset="30%"></stop>
      <stop itemprop="radial" stop-color="#a5a4a1" offset="45%"></stop>
      <stop itemprop="radial" stop-color="#adaba9" offset="60%"></stop>
      <stop itemprop="radial" stop-color="#afaeac" offset="75%"></stop>
      <stop itemprop="radial" stop-color="#a5a4a1" offset="90%"></stop>
    </radialGradient>
    <radialGradient id="16282281824-posters-1720553832941-radial-background" gradientUnits="userSpaceOnUse">
      <stop stop-color="#d3cfc5" offset="0%"></stop>
      <stop stop-color="#d3cec5" offset="15%"></stop>
      <stop stop-color="#d3cfc5" offset="30%"></stop>
      <stop stop-color="#d3cec5" offset="45%"></stop>
      <stop stop-color="#d3cec5" offset="60%"></stop>
      <stop stop-color="#d3cec5" offset="75%"></stop>
      <stop stop-color="#d3cec5" offset="90%"></stop>
    </radialGradient>
    <radialGradient id="16282281824-posters-1720553832941-radial-light" gradientUnits="userSpaceOnUse">
      <stop stop-color="#9b9a97" offset="0%"></stop>
      <stop stop-color="#9b9997" offset="15%"></stop>
      <stop stop-color="#9b9a97" offset="30%"></stop>
      <stop stop-color="#9b9a97" offset="45%"></stop>
      <stop stop-color="#9b9a97" offset="60%"></stop>
      <stop stop-color="#9b9a97" offset="75%"></stop>
      <stop stop-color="#9b9a97" offset="90%"></stop>
    </radialGradient>
    <radialGradient id="16282281824-posters-1720553832941-radial-regular" gradientUnits="userSpaceOnUse">
      <stop stop-color="#82817d" offset="0%"></stop>
      <stop stop-color="#82807d" offset="15%"></stop>
      <stop stop-color="#82817d" offset="30%"></stop>
      <stop stop-color="#82807d" offset="45%"></stop>
      <stop stop-color="#82807d" offset="60%"></stop>
      <stop stop-color="#82807d" offset="75%"></stop>
      <stop stop-color="#82807d" offset="90%"></stop>
    </radialGradient>
    <radialGradient id="16282281824-posters-1720553832941-radial-medium" gradientUnits="userSpaceOnUse">
      <stop stop-color="#51504d" offset="0%"></stop>
      <stop stop-color="#514f4d" offset="15%"></stop>
      <stop stop-color="#51504d" offset="30%"></stop>
      <stop stop-color="#514f4d" offset="45%"></stop>
      <stop stop-color="#514f4d" offset="60%"></stop>
      <stop stop-color="#514f4d" offset="75%"></stop>
      <stop stop-color="#514f4d" offset="90%"></stop>
    </radialGradient>
    <radialGradient id="16282281824-posters-1720553832941-radial-bold" gradientUnits="userSpaceOnUse">
      <stop stop-color="#2f2e2d" offset="0%"></stop>
      <stop stop-color="#2f2e2d" offset="15%"></stop>
      <stop stop-color="#2f2e2d" offset="30%"></stop>
      <stop stop-color="#2f2e2d" offset="45%"></stop>
      <stop stop-color="#2f2e2d" offset="60%"></stop>
      <stop stop-color="#2f2e2d" offset="75%"></stop>
      <stop stop-color="#2f2e2d" offset="90%"></stop>
    </radialGradient>
  </g>
  <g class="vertical">
    <linearGradient id="16282281824-posters-1720553832941-vertical" gradientUnits="userSpaceOnUse" x1="0" x2="0" y1="0"
      y2="100%">
      <stop itemprop="vertical" stop-color="#a8a7a4" offset="0%"></stop>
      <stop itemprop="vertical" stop-color="#b2b0ae" offset="15%"></stop>
      <stop itemprop="vertical" stop-color="#aaa9a7" offset="30%"></stop>
      <stop itemprop="vertical" stop-color="#a5a4a1" offset="45%"></stop>
      <stop itemprop="vertical" stop-color="#adaba9" offset="60%"></stop>
      <stop itemprop="vertical" stop-color="#afaeac" offset="75%"></stop>
      <stop itemprop="vertical" stop-color="#a5a4a1" offset="90%"></stop>
    </linearGradient>
    <linearGradient id="16282281824-posters-1720553832941-vertical-background" gradientUnits="userSpaceOnUse" x1="0"
      x2="0" y1="0" y2="100%">
      <stop stop-color="#cdcdcb" offset="0%"></stop>
      <stop stop-color="#cdcccb" offset="15%"></stop>
      <stop stop-color="#cdcdcb" offset="30%"></stop>
      <stop stop-color="#cdcccb" offset="45%"></stop>
      <stop stop-color="#cdcccb" offset="60%"></stop>
      <stop stop-color="#cdcccb" offset="75%"></stop>
      <stop stop-color="#cdcccb" offset="90%"></stop>
    </linearGradient>
    <linearGradient id="16282281824-posters-1720553832941-vertical-light" gradientUnits="userSpaceOnUse" x1="0" x2="0"
      y1="0" y2="100%">
      <stop stop-color="#aea484" offset="0%"></stop>
      <stop stop-color="#ae9e84" offset="15%"></stop>
      <stop stop-color="#aea484" offset="30%"></stop>
      <stop stop-color="#ae9f84" offset="45%"></stop>
      <stop stop-color="#ae9f84" offset="60%"></stop>
      <stop stop-color="#ae9f84" offset="75%"></stop>
      <stop stop-color="#ae9f84" offset="90%"></stop>
    </linearGradient>
    <linearGradient id="16282281824-posters-1720553832941-vertical-regular" gradientUnits="userSpaceOnUse" x1="0" x2="0"
      y1="0" y2="100%">
      <stop stop-color="#82817d" offset="0%"></stop>
      <stop stop-color="#82807d" offset="15%"></stop>
      <stop stop-color="#82817d" offset="30%"></stop>
      <stop stop-color="#82807d" offset="45%"></stop>
      <stop stop-color="#82807d" offset="60%"></stop>
      <stop stop-color="#82807d" offset="75%"></stop>
      <stop stop-color="#82807d" offset="90%"></stop>
    </linearGradient>
    <linearGradient id="16282281824-posters-1720553832941-vertical-medium" gradientUnits="userSpaceOnUse" x1="0" x2="0"
      y1="0" y2="100%">
      <stop stop-color="#51504d" offset="0%"></stop>
      <stop stop-color="#514f4d" offset="15%"></stop>
      <stop stop-color="#51504d" offset="30%"></stop>
      <stop stop-color="#514f4d" offset="45%"></stop>
      <stop stop-color="#514f4d" offset="60%"></stop>
      <stop stop-color="#514f4d" offset="75%"></stop>
      <stop stop-color="#514f4d" offset="90%"></stop>
    </linearGradient>
    <linearGradient id="16282281824-posters-1720553832941-vertical-bold" x1="0" x2="0" y1="0" y2="100%">
      <stop stop-color="#2f2e2d" offset="0%"></stop>
      <stop stop-color="#2f2e2d" offset="15%"></stop>
      <stop stop-color="#2f2e2d" offset="30%"></stop>
      <stop stop-color="#2f2e2d" offset="45%"></stop>
      <stop stop-color="#2f2e2d" offset="60%"></stop>
      <stop stop-color="#2f2e2d" offset="75%"></stop>
      <stop stop-color="#2f2e2d" offset="90%"></stop>
    </linearGradient>
  </g>
  <g class="horizontal">
    <linearGradient id="16282281824-posters-1720553832941-horizontal" x1="0" x2="100%" y1="0" y2="0"
      gradientUnits="userSpaceOnUse">
      <stop itemprop="horizontal" stop-color="#a5a4a1" offset="0%"></stop>
      <stop itemprop="horizontal" stop-color="#b7b6b4" offset="15%"></stop>
      <stop itemprop="horizontal" stop-color="#a8a7a4" offset="30%"></stop>
      <stop itemprop="horizontal" stop-color="#afaeac" offset="45%"></stop>
      <stop itemprop="horizontal" stop-color="#b5b3b0" offset="60%"></stop>
      <stop itemprop="horizontal" stop-color="#a3a19e" offset="75%"></stop>
      <stop itemprop="horizontal" stop-color="#aaa9a7" offset="90%"></stop>
    </linearGradient>
    <linearGradient id="16282281824-posters-1720553832941-horizontal-background" gradientUnits="userSpaceOnUse" x1="0"
      x2="100%" y1="0" y2="0">
      <stop stop-color="#cdcccb" offset="0%"></stop>
      <stop stop-color="#cdcccb" offset="15%"></stop>
      <stop stop-color="#cdcccb" offset="30%"></stop>
      <stop stop-color="#cdcccb" offset="45%"></stop>
      <stop stop-color="#ceccca" offset="60%"></stop>
      <stop stop-color="#ceccca" offset="75%"></stop>
      <stop stop-color="#cdcccb" offset="90%"></stop>
    </linearGradient>
    <linearGradient id="16282281824-posters-1720553832941-horizontal-light" gradientUnits="userSpaceOnUse" x1="0"
      x2="100%" y1="0" y2="0">
      <stop stop-color="#9b9a97" offset="0%"></stop>
      <stop stop-color="#9b9a97" offset="15%"></stop>
      <stop stop-color="#9b9a97" offset="30%"></stop>
      <stop stop-color="#9b9a97" offset="45%"></stop>
      <stop stop-color="#9c9996" offset="60%"></stop>
      <stop stop-color="#9c9a96" offset="75%"></stop>
      <stop stop-color="#9b9997" offset="90%"></stop>
    </linearGradient>
    <linearGradient id="16282281824-posters-1720553832941-horizontal-regular" gradientUnits="userSpaceOnUse" x1="0"
      x2="100%" y1="0" y2="0">
      <stop stop-color="#968969" offset="0%"></stop>
      <stop stop-color="#968769" offset="15%"></stop>
      <stop stop-color="#968969" offset="30%"></stop>
      <stop stop-color="#968669" offset="45%"></stop>
      <stop stop-color="#968269" offset="60%"></stop>
      <stop stop-color="#968569" offset="75%"></stop>
      <stop stop-color="#968569" offset="90%"></stop>
    </linearGradient>
    <linearGradient id="16282281824-posters-1720553832941-horizontal-medium" gradientUnits="userSpaceOnUse" x1="0"
      x2="100%" y1="0" y2="0">
      <stop stop-color="#5d5541" offset="0%"></stop>
      <stop stop-color="#5d5441" offset="15%"></stop>
      <stop stop-color="#5d5541" offset="30%"></stop>
      <stop stop-color="#5d5341" offset="45%"></stop>
      <stop stop-color="#5d5041" offset="60%"></stop>
      <stop stop-color="#5d5241" offset="75%"></stop>
      <stop stop-color="#5d5241" offset="90%"></stop>
    </linearGradient>
    <linearGradient id="16282281824-posters-1720553832941-horizontal-bold" gradientUnits="userSpaceOnUse" x1="0"
      x2="100%" y1="0" y2="0">
      <stop stop-color="#2f2e2d" offset="0%"></stop>
      <stop stop-color="#2f2e2d" offset="15%"></stop>
      <stop stop-color="#2f2e2d" offset="30%"></stop>
      <stop stop-color="#2f2e2d" offset="45%"></stop>
      <stop stop-color="#2f2e2d" offset="60%"></stop>
      <stop stop-color="#2f2e2d" offset="75%"></stop>
      <stop stop-color="#2f2e2d" offset="90%"></stop>
    </linearGradient>
  </g>
  <g class="masks">
    <mask id="16282281824-posters-1720553832941-pattern-mask" maskUnits="userSpaceOnUse"
      maskContentUnits="userSpaceOnUse">
      <pattern id="pattern" x="0" y="0" width=".0133" height=".0144" viewBox="0 0 23.07 40">
        <path
          d="M17.62 0l-6.07 10.5m2.74 4.76L8.22 4.75m-5.48 0h12.13M.01 0h23.07M6.07 20L0 9.5m2.74-4.75l-6.07 10.5m-5.48 0H3.33m8.2 4.75L0 .02-11.54 20m40.68 0L23.07 9.5m2.74-4.75l-6.06 10.5m-5.49 0H26.4M34.6 20L23.08.02 11.53 20m-5.46 0L0 30.51m2.74 4.75l-6.07-10.5m-5.48 0H3.33m8.2-4.75L0 40l-11.54-19.98zM17.6 40l-6.06-10.5m2.74-4.76L8.2 35.25m-5.48 0h12.13M0 40h23.07L11.54 20.01m17.6 0l-6.07 10.5m2.74 4.75l-6.06-10.5m-5.49 0H26.4M11.53 20h23.08L23.07 40"
          stroke-linecap="round" stroke-width="3.5" stroke="white"
          fill="url(#16282281824-posters-1720553832941-horizontal-background)"></path>
      </pattern>
      <rect width="100%" height="100%" fill="url(#pattern)"></rect>
    </mask>
    <mask id="16282281824-posters-1720553832941-horizontal-mask" maskUnits="userSpaceOnUse"
      maskContentUnits="userSpaceOnUse">
      <rect width="100%" height="100%" fill="url(#16282281824-posters-1720553832941-horizontal-background)"></rect>
    </mask>
    <mask id="16282281824-posters-1720553832941-radial-mask" maskUnits="userSpaceOnUse"
      maskContentUnits="userSpaceOnUse">
      <rect width="100%" height="100%" fill="url(#16282281824-posters-1720553832941-radial-background)"></rect>
    </mask>
    <mask id="16282281824-posters-1720553832941-vertical-mask" maskUnits="userSpaceOnUse"
      maskContentUnits="userSpaceOnUse">
      <rect width="100%" height="100%" fill="url(#16282281824-posters-1720553832941-vertical-background)"></rect>
    </mask>
  </g>
  <use href="#16282281824-posters-1720553832941-pattern-render"></use>
  <g>
    <use href="#16282281824-posters-1720553832941-background"></use>
    <use href="#16282281824-posters-1720553832941-light"></use>
    <use href="#16282281824-posters-1720553832941-regular"></use>
    <use href="#16282281824-posters-1720553832941-medium"></use>
    <use href="#16282281824-posters-1720553832941-bold"></use>
  </g>
  <g itemprop="animation">
    <animate href="#16282281824-posters-1720553832941-light" attributeName="stroke-opacity" repeatCount="indefinite"
      dur="5s" values="0.9;0.0;0.9"></animate>
    <animate href="#16282281824-posters-1720553832941-regular" attributeName="stroke-opacity" repeatCount="indefinite"
      dur="4s" values="0.9;0;0.9"></animate>
    <animate href="#16282281824-posters-1720553832941-medium" attributeName="stroke-opacity" repeatCount="indefinite"
      dur="5s" values="0.9;0;0.9"></animate>
    <animate href="#16282281824-posters-1720553832941-bold" attributeName="stroke-opacity" repeatCount="indefinite"
      dur="3s" values="0.9;0;0.9"></animate>
    <animate href="#16282281824-posters-1720553832941-regular" attributeName="fill-opacity" repeatCount="indefinite"
      dur="8s" values="0.9;0.75;0.95;0.8;0.9;"></animate>
    <animate href="#16282281824-posters-1720553832941-radial-background" attributeName="cx" repeatCount="indefinite"
      dur="34s" values="0%;33%;100%;0%;100%;0%;"></animate>
    <animate href="#16282281824-posters-1720553832941-radial-background" attributeName="cy" repeatCount="indefinite"
      dur="55s" values="0%;100%;33%;100%;66%;0%"></animate>
    <animate href="#16282281824-posters-1720553832941-vertical-light" attributeName="x1" repeatCount="indefinite"
      dur="55s" values="0%;33%;100%;0%;133%;0%;"></animate>
    <animate href="#16282281824-posters-1720553832941-vertical-light" attributeName="y1" repeatCount="indefinite"
      dur="86s" values="0%;100%;33%;100%;66%;0%"></animate>
    <animate href="#16282281824-posters-1720553832941-horizontal-regular" attributeName="x1" repeatCount="indefinite"
      dur="34s" values="0%;100%;66%;0%;33%;133%;0%"></animate>
    <animate href="#16282281824-posters-1720553832941-horizontal-regular" attributeName="y1" repeatCount="indefinite"
      dur="55s" values="0%;66%;100%;33%;100%;66%;0%"></animate>
    <animate href="#16282281824-posters-1720553832941-vertical-medium" attributeName="x1" repeatCount="indefinite"
      dur="34s" values="0%;100%;66%;0%;33%;133%;0%"></animate>
    <animate href="#16282281824-posters-1720553832941-vertical-medium" attributeName="y1" repeatCount="indefinite"
      dur="55s" values="0%;66%;100%;33%;100%;66%;0%"></animate>
    <animate href="#16282281824-posters-1720553832941-vertical-bold" attributeName="x1" repeatCount="indefinite"
      dur="34s" values="0%;100%;66%;0%;33%;133%;0%"></animate>
    <animate href="#16282281824-posters-1720553832941-vertical-bold" attributeName="y1" repeatCount="indefinite"
      dur="55s" values="0%;66%;100%;33%;100%;66%;0%"></animate>
  </g>
</svg>
