<svg id="16282281824-posters-1720553636646" itemscope="" itemtype="/posters"
  itemid="/+16282281824/posters/1720553636646" viewBox="0 0 769 512" preserveAspectRatio="xMidYMid meet" tabindex="0"
  class="animate landscape" xmlns="http://www.w3.org/2000/svg">
  <!---->
  <defs class="graphic">
    <pattern id="16282281824-posters-1720553636646-pattern" width="769" height="512" viewBox="0 0 769 512"
      patternUnits="userSpaceOnUse" preserveAspectRatio="xMidYMid meet">
      <rect itemprop="background" width="769" height="512" tabindex="-1"
        id="16282281824-posters-1720553636646-background" fill-opacity="1"
        fill="url(#16282281824-posters-1720553636646-radial-background)"></rect>
      <!---->
      <path id="16282281824-posters-1720553636646-light"
        d="M717 4q4 11 7 3 2-7-4-7h-4zm12-1q0 6 3 7 4 1 5-7c0-4-6-5-8 0m13 0q-2 4 2 6 4-1 4-6-2-6-6 0m-36 3q0 3 2 4 4 4 5-1c0-5-5-7-7-3M308 9c-2 3-2 11 1 14l2 3 3-3q3-3 1-7-3-12-7-7m13 2q-7 8-3 13c2 1 7-3 7-7l1-3v-3q-2-4-5 0m229-1c-3 4-2 13 1 14q6 0 4-12-2-5-5-2m13 2q-6 6-3 11 6 4 8-7 0-8-5-4m-268 2c-2 4 3 11 7 11q5-1-1-9-4-6-6-2m244 3c-2 2-1 7 2 7q5-2 2-8-2-2-4 1m101 0c-2 3-3 12-1 15q6 6 7-6-1-16-6-9m-17 3 1 4 2 5c2 7 10 6 8-1q-6-14-11-8m28 6q-4 8 3 8 4-3 3-8zm-461 1c-2 2-1 15 0 17 6 4 9-8 4-16q-1-3-4-1m12 0c-5 6-2 22 4 17 2-3 2-17-1-18zm12 5c-3 3-3 12 0 13q4 1 5-5l1-5q1-4-3-5zm403-1q-2 3 1 5 5 3 6-1-1-6-7-4m-216 3c-4 6-1 19 4 14 3-3 3-15 0-16q-2-2-4 2m-223 1q-3 3 2 9 2 4 4 1c4-4-2-14-6-10m209 1c0 2 2 12 4 14 4 4 7-6 3-13-1-3-6-4-7-1m81 0v4l1 6q1 6 5 5c3-1 2-9 0-14q-3-5-6-1m272 0c-2 2-3 15-1 18 3 5 9 1 7-5l-1-8q0-11-5-5M62 37q-1 2-3 1-2 0-2 2l2 1q3-1 2 2c0 3 4 9 6 9q5-1 2-9-3-11-7-6m421 1c-5 6-1 16 3 10 3-3 3-13 0-13zm-258 1q-3 5-1 9c3 1 10-7 8-10q-3-2-7 1M76 42c-2 2-2 10 1 11 2 0 6-8 4-12q-1-2-5 1m335 0q-2 6 1 8 3 0 5-6-2-8-6-2m342 1c-2 6-2 13 1 13q5 1 5-9l1-7h-2q-3 0-5 3m-377 0c-2 4 3 10 7 9q4-3 0-9-4-4-7 0m345 0q-1 3 2 5l2 5c2 7 8 9 8 3 0-8-10-19-12-13m-230 2q-4 4 0 6 4 1 6-5-2-6-6-1M51 46q2 6 6 7 4-3 0-7t-6 0m714 1c-3 5-1 12 3 10 1 0 2-13 0-13zm-477 7v7l2 7q1 11 7 4c4-6-4-22-9-18m426 2q0 3 4 5 3-1 3-5c-1-3-6-3-7 0m-409 0c-4 6-5 16-1 17q4-1 7-13 1-6-2-5zm-176 8v4l-3-3q-7-6-6 0 2 10 8 7 5-3 11 0 1 2 4-1c4-5 2-10-3-7q-4 2-4-1c-1-5-6-4-7 1m185-1q-5 7-1 11 3 2 7-4c3-7-1-12-6-7m229 2c-2 2-9 3-12 1q-8-3-3 11 5 9 9 3v-4q-1-2 3-3l1 4q0 5 2 5 6 2 5-10t-5-7m91 1c-3 4-3 13 0 15q5 1 5-5l1-6q2-11-6-4m-356-1c-3 4 4 12 8 9q2-1-1-6-3-6-7-3m47 3c-4 4-1 9 3 7 3-1 3-7 0-8q-1-2-3 1m291-1 5 14 4 1c6 0 0-15-6-16zm29 4c-2 2-2 8 0 9 3 3 7-3 6-9q-2-4-6 0m-91 1c-4 4-3 10 0 10 4 0 7-10 3-11q-2-2-3 1M12 74c-3 4-4 12-1 14q5 5 5-6l1-6c2-5-3-7-5-2m644 1q-3 6 0 8 5-1 5-6-2-5-5-2M0 82q0 8 3 7c2 0 3-6 0-10q-3-9-3 3m22-2q-2 9 1 10 2 1 6-7c2-7-3-9-7-3m587 0q1 5 5 4c4-1 2-7-3-7q-2 0-2 3m-161-1-2 3-1 4q-4 9 5 4h4q5 1 5-2-1-5-4-3t-2-3q-1-6-5-3m-14 3c-2 4 4 12 7 10q3-3-2-9-5-5-5-1m-242 2v6q0 7-3 4-5-3-8-1c0 2 4 8 7 9q5-1 5-4v-1c3 4 9 2 9-2 0-6-8-14-10-11M33 86q-5 8 3 6 4-3 2-7-2-2-5 1m702 2 1 6 2 7c1 7 8 5 7-3-2-9-10-17-10-10m-530 1c-4 4-2 13 3 10 3-2 4-12 1-12zm548 2-1 3-1 1-2 3-1 2c-2 0-1 6 1 7 3 1 8-7 8-13q-1-4-4-3m-640 3c-2 4-1 15 2 16q3 1 4-9 1-14-6-7m249 0c-4 5-4 15 0 15q3 1 6-8 1-13-6-7M99 94v7l1 2c0 7 7 9 8 4 0-6-4-15-7-14zm248 0c-3 2 1 16 5 16q3-1 4-7c0-2-4-9-6-9zm-221 5c-5 5-3 13 2 10 2-2 5-10 4-11q-3-2-6 1m249 0q-6 5-4 9 3 4 6-1c4-6 2-13-2-8m352-1v8c3 2 7-3 4-7q-1-3-4-1m35 2c-2 2-3 7 0 7q4-1 5-7-2-3-5 0m-428 1v3c-1 2 3 8 5 9q5 0 3-8-5-7-8-4m-199 5q-4 5 0 7c2 1 7-3 7-5q-1-8-7-2m-45 0q-1 4 5 6 5-1 1-6-4-4-6 0m52 6q-2 4 3 4c4-1 4-7 1-7q-3 0-4 3m-64 0q1 3 6 5 4-1 1-5-4-4-7 0m494 1c-5 5-3 15 2 15q4-1 3-16-1-3-5 1m-16 0c-3 1 3 14 7 16 5 2 4-6-2-14q-3-4-5-2m-88 1v5l3 9q2 8 6 7 3-1 2-6c0-10-7-19-11-15m18 4q-4 10-2 12 2 5 6 2l3-16q-3-5-7 2m160-3v6c2 11 9 12 8 1q-2-12-8-7m-634 5 2 6q1 4-3 3-7 0-3 4 3 3 6 1l4-1c7-1 3-16-4-16q-2 0-2 3m14 1c-3 8-3 9-1 11 4 5 8-1 8-10q-1-10-7-1m636-3c-3 4-3 10 1 10q3-1 4-9-1-3-5-1m-422 1c-3 10 0 22 6 18 1-1 1-10-1-17q-2-3-5-1m257 5q-3 6 0 8 4 2 5-6c2-7-3-9-5-2m-273-2q-1 1 1 6l2 5q2 5 5 6 4-2 2-8c-3-7-9-13-10-9m358 0q-3 6-1 8c3 1 8-4 6-7q-1-3-5-1m-328 3c-3 4-4 11 0 11q4 0 4-8 1-7-4-3m205 1q0 5 4 8 7 1 4-6-5-5-8-2m-244 6q-3 3 2 8c5 4 8-3 3-7q-2-3-5-1m180 14 2 5 1 5q2 6 6 4 3 0 1-10c-2-7-10-10-10-4m17 4q-6 12 0 12 4 1 6-11c3-11-2-12-6-1m285-3c0 3 1 10 3 11q8 3 3-9-3-5-6-2m14 1c-4 5-2 15 3 12q2-2 4 2l3 2 2-2c3-3 3-10 0-10l-4 2q-2 2-2-2-1-9-6-4m-652 1c-3 5-1 17 4 16 2-1 3-12 2-16q-1-4-6 0m-14 1q-2 3 3 12c4 7 9 2 5-6q-5-10-8-6m96 1-1 6q0 7-4 2-6-4-7 0 1 4 5 6l1 1c0 1 8 2 10 1s2-14 1-17q-3-3-5 1m-70 5q-3 7-1 9 5 2 7-3c3-8-2-14-6-6m314-2q1 5 4 8 5 3 5-2c0-5-7-11-9-6m193 0c-1 3 3 15 6 16 5 1 5-10-1-16q-4-4-5 0m14 1c-4 6-2 15 2 15q4 1 4-8-1-14-6-7m96 1q-2 4 1 6 7 4 4-5-2-3-5-1m-537 3c-4 5-1 10 3 6q5-6 0-8zm149 5q2 11 6 12 5-3 3-8l-1-3q-1-6-6-7-2-1-2 6m15-5q-5 10-1 13 5 5 6-6l-1-7-1-1zm-277 1q-4 3 2 6c4 2 6-3 1-6zm45 2q-3 5 0 6 3 2 5-3 1-8-5-3m519 1q-1 6 4 7l4-8q-3-4-8 1m-114-1q-1 2 1 6l2 5c0 5 7 8 8 4 3-7-7-19-11-15m80 1q-3 4 2 7 5 5 7 2 2-4-3-9-6-4-6 0m-62 1c-3 5-4 12-1 13q5 1 6-6c1-8 1-8-2-9zm-181 0q-4 8 0 9 5 0 5-6t-5-3m289 1q-3 5 2 6c3-1 4-8 1-8zm-278 3q-3 4 0 5c2 3 7-2 5-5zm-48 2c-1 4 7 9 10 7q3-2-1-6c-3-2-9-3-9-1m196 4q-2 5 3 5 3 1 3-2c0-5-5-7-6-3m-273 4c-4 4-2 19 2 21q3 2 3-12 1-18-5-9m-16 6c-3 2 3 14 8 14 2 0 3-6 1-8l-2-3c0-2-6-5-7-3m28 3q-4 8-1 11 4 0 6-7 2-11-5-4m419 0c-3 2-3 14 0 16q6 6 6-7 0-16-6-9m-531 3c-2 4-3 12 0 13q4 1 5-5l1-3c1-1 0-6-1-7q-2-3-5 2m-15 0c-2 3 2 11 5 11q5-1 2-8-4-6-7-3m528 1c-2 3 4 16 8 16 5 0 2-11-3-15q-3-3-5-1m-440 1q-2 2 1 8 6 4 9 1c2-4-6-11-10-9m470 2c-4 4-2 11 2 9 5-2 4-11 0-11zm83-1c-1 2 3 12 6 13q9 0 0-11-4-5-6-2m15 2q-4 11 2 9c2 0 4-6 4-9q-2-6-6 0m-742 0 3 16c4 3 6-3 4-9q-3-11-7-7m111 1c-2 1-2 7 0 8q5 2 6-8-1-4-6 0m-98 1c-3 2-3 13 0 14l3-1h4q5 2 6-4 0-4-5-2l-3 2v-4q0-11-5-5m387 1-4 12c0 6 6 10 7 5 3-9 1-21-3-17m252 1c-3 4 1 10 4 7q5-6 0-8zm100 1q-3 4 1 6 4-1 5-6-1-4-6 0m-631 2c-2 1-3 7 0 8q4 0 5-6-1-6-5-2m189-1c-2 6 3 18 7 18q4-1 4-6c-2-9-9-16-11-12m69 1 2 5 4 6c1 5 7 8 7 3 1-8-10-21-13-14m229 0c-2 1-1 6 0 7q5 3 6-2c0-3-4-8-6-5M0 207c0 5 9 9 10 3q-1-4-8-6-2 0-2 3m420 0q-4 6-1 10c4 3 9-5 7-10q-3-6-6 0m-84-1c-5 7-5 15 1 14 2-1 5-8 5-11q-1-6-6-3m180 2c-2 2-3 11-2 13 5 5 11-6 6-13q-1-4-4 0m-15 4q2 11 8 11c2-2 0-11-3-13q-5-3-5 2m25 2q-4 5 0 9c3 3 7-5 5-10q-2-4-5 1m-214-1q-3 1-1 4 6 6 7 0-2-5-6-4m73 1c-3 2 2 9 5 7q3-2 0-6-2-3-5-1m152 2q-3 2-1 6 1 3 4 0a4 4 0 0 0-3-6m-334 15q-3 2-1 6l2 5q4 9 8 3c2-5-5-16-9-14m489 1c-1 3-2 12 0 14q6 6 7-6 0-13-7-8m-473 0c-3 1-3 11-1 12q5 0 6-7 0-7-5-5m-149 2c-1 3 0 15 2 16q6 4 5-7-1-15-7-9m605-1c0 4 6 15 8 15 4 0 4-8-1-14q-6-3-7-1m-447 2q-4 9 2 10 3-1 4-8-2-6-6-2m-173 1q-1 4 1 6l4 7c2 5 7 2 6-4-2-6-9-12-11-9m652 2q-5 6-2 9c5 3 11-7 7-11q-2-2-5 2m-621 0c-5 4-5 13 0 13q3 0 5-9 0-9-5-4m153 2q-3 3 0 6 4 2 5-5-2-5-5-1m328-1v5l3 6c3 8 9 11 9 3s-8-17-12-14m19 1c-6 9-3 20 3 14 2-2 2-15 0-16zm-393 1c-3 1 1 9 6 9q3 0 2-3-1-8-8-6m405 3c-2 1-4 7-4 10 2 5 8 3 8-3l1-4q1-6-5-3m70-1q-4 1 0 5 8 5 6-3l-4-3zm-621 1c-3 1 1 9 5 9q3 0 1-5t-6-4m561 5q-3 4 0 6 4 2 5-5-2-5-5-1m-49 1q-3 2 2 7 6 6 7-1c0-5-6-9-9-6m-121 2c-1 3 4 16 7 17q4 2 5-4c0-8-11-19-12-13m18-1c-3 5-4 13-1 15q7 6 7-8-1-11-6-7m-168 3c-3 4-2 17 2 17s6-18 2-19zm-18 3c-3 3 5 16 10 16q5 0 0-9-4-10-10-7m282 0c-4 2-1 7 4 7q4 0 2-5-2-3-6-2m-87 3q-4 7 0 8 5 0 6-7-1-6-6-1m-165 1q-4 6-4 10 4 5 7-1c4-7 1-14-3-9m-164 4q-2 2 1 9 2 8 6 6h7q2-3 3-1 3 2 5-1c4-3 1-10-3-6h-2l1-4c-1-3-6-3-7 1q-2 6-5-1-3-5-6-3m127 6c-2 3 4 8 8 6q5-1 0-5-5-5-8-1m459 0c-3 2 3 16 6 16 4-1 4-9-1-14q-3-4-5-2m17 0q-4 5-2 12 2 4 6-1c2-7 0-14-4-11m-387 3q-1 3 1 8l2 7q1 4 5 5c3 0 5-5 3-7l-2-6c-2-7-8-11-9-7m18 5q-5 9-2 13 4 7 8-8 2-20-6-5m-308-1c-3 2-2 17 1 18q5 1 5-11-1-12-6-7m-13 2c-3 2 2 16 6 16q4 0 2-8-3-11-8-8m713 0c-3 2-2 8 1 8q4-1 4-6-1-3-5-2m-382 4q-4 6-1 11 4 2 6-3l1-3 1-4q-1-7-7-1m-36 2c-2 4 4 11 7 9q3-1 0-7-6-6-7-2m226 6q0 11 5 12 4 1 4-3l1 1q6 5 8-4l1-4q3-4-2-5-2 0-5 5l-2 5-3-6q-2-8-5-7h-3zm-498-3q-4 4 1 6 4-1 4-6-1-3-5 0m134 0c-5 5-3 19 2 19q3 2 3-9v-11q-1-2-5 1m-165 1c-2 0-1 6 1 6q8 2 3-5l-2-2zm146 3v6l4 3q5 9 8 8 4-2 0-8l-4-5q-3-4-8-4m29 5-1 9c0 2 5 1 6-1 2-4 1-11-1-11q-3 0-4 3m344-1q-3 4 3 8 5 5 5-3c0-5-6-9-8-5m35-1q-4 3-3 7c1 4 8-1 7-5q-1-4-4-2m-369 5q-4 5 0 8c2 2 7-4 7-8q-1-6-7 0m429 4q-5 6-1 12l2 2 3-2q3-3 1-10-2-6-5-2m-546 1q-1 3 2 13 4 8 7 3c2-2-2-16-5-16zm530 1c-2 3 3 12 7 12q3-2 0-9-4-6-7-3m-164 3c-3 4-5 13-3 15q4 4 7-1 3-4 2-1c0 5 6 7 8 2 4-9-1-15-6-8l-2 3v-6q0-11-6-4m-349 2c-4 7-3 14 1 13q4-3 6-12-1-8-7-1m328-1c0 3 5 15 8 16 6 3 7-4 1-12q-6-9-9-4m210-1q-3 6 1 9 6-2 5-8-2-4-6-1m-388 3-1 4 2 6q3 11 9 6v-6l-1-4q-4-8-9-6m-101 2q-1 5 4 6 3-1 2-6c-1-2-6-3-6 0m116 0-2 8q-1 5 3 4c5-1 8-13 3-14zm-194 2c-1 3 5 10 8 8q4 0-1-7-4-5-7-1m628 0c-4 11-2 22 3 17 3-4 3-17-1-18zm-588 3c-3 2-3 8 0 8q3 0 5-4 1-9-5-4m162 3q-3 4 2 7 4-1 5-7-3-4-7 0m81-1a6 6 0 0 0 3 7l3 7q2 6 5 5 2 1 2-6l-1-6-4-5q-4-5-8-2m329 1c0 3 3 12 6 13q4 1 4-6c-2-7-8-12-10-7m-259 1c-3 2 1 8 4 6a4 4 0 0 0-4-6m286 0c-2 1-4 8-3 9q6 4 7-7 0-5-4-2m-469 1c-1 3 4 8 7 6q3-1 1-6zM0 330l2 10 2 6q1 3 5 0 2-2-1-11-6-14-8-5m399 0q-4 9 0 12c3 1 8-7 8-13q-2-7-8 1m191-3q-5 10-2 16h6c1-2 2-14 1-16zm-18 5c0 4 5 13 8 13 5 0 0-15-5-16q-4-1-3 3m-555 0c-3 3-6 12-4 14q4 4 6-1c4-10 3-19-2-13m581 6q-2 9 5 9c4-2 2-11-1-12q-3-1-4 3m-394 3c-2 3 0 11 2 13 4 4 7-4 3-10q-2-5-5-3m361 0q-2 3 1 5 5 3 5-3-1-5-6-2m-348 4q-4 9 0 10 2 1 6-7 3-7-2-7-3 0-4 4m-21 4q-3 1-2 5c2 4 7 4 7-1q0-5-5-4m32 0q-3 3-1 6 2 1 3-1c5-3 3-8-2-5m273 4c-2 3-3 10-3 12q3 6 7 1c4-6 0-18-4-13m-421 2c-3 2-4 10-1 15q5 9 6-4l1-7q2-8-6-4m404-1 1 5 3 7c2 6 8 6 8 0 0-7-10-17-12-12m179 0c-3 2-3 14 1 17q6 4 4-9 0-11-5-8m-601 5q-2 2 1 5l3 5q1 6 4 5 4 1 3-3c0-8-7-16-11-12m264 1-4 7-1 4-3-3-2-4c0-3-7-2-7 1l6 12q4 2 6-1l1-2 1 2c2 4 7 1 7-5l1-6q3-9-5-5m184-1v8q5 1 6-5-1-6-6-3m134 0c-1 1 0 6 1 6l3 4c4 6 10 6 8 0-1-5-11-13-12-10m-554 3c-2 3-1 10 1 11q4 0 5-8-1-8-6-3m586-1c-3 5-1 14 3 11q2-1 3-7t-2-5zm-623 9c-1 2 4 7 7 7q4-1 0-6c-2-2-7-3-7-1m585 2q-1 4 4 5c4 0 4-6 0-7q-3 0-4 2m-335 3q-2 6 7 7c2 0 1-5-1-6q-5-3-6-1m-159 1v11h-3q-3 0-3 2c0 6 11 7 13 2 3-6-3-19-7-15m424 5c-2 1-3 9-2 13q2 5 6 1c2-2 1-14-1-14zm-188 2c0 7 6 16 10 14a12 12 0 0 0-3-13c-1-3-7-4-7-1m17 1c-2 3-2 11-1 13q7 4 8-11-3-9-7-2m-240 1c-5 6 1 11 5 5q3-3 1-5-3-6-6 0m395-2c-1 3 1 13 3 15 5 4 7-7 2-14q-2-4-5-1m-143 5q-5 8 1 9 3 0 4-4 2-12-5-5m169 1q-4 5 1 7 4-1 5-8-2-5-6 1m-361 0c-2 4 3 16 6 16q4-1 3-8-6-14-9-8m16 1q-6 9 0 14c4 1 8-9 6-13q-2-3-6-1m186 2q-4 7 0 7c3 0 6-5 5-7q-2-4-5 0m-49 0c-3 1 4 11 8 11q6-2 0-8-2-6-8-3m-166 2c-3 2 3 13 7 13q3 0 2-4a8 8 0 0 0-3-8q-3-3-6-1m282 0c-3 6 4 16 8 12h2c3 3 9-2 9-8q-1-8-8 1l-2 3-2-4q-4-8-7-4m246 0c0 3 2 12 4 14q5 4 5-6c-1-8-7-12-9-8m17 2q-4 8-2 12 4 5 7-4l1-5c1-1-1-6-3-6q-2 0-3 3m-723 6q-3 2-4 6-1 8-3 3-5-10-11-8-4 0 2 9 7 10 10 6 1-3 3 0 6 5 8-13 0-9-5-3m736-2c-4 2-4 11 0 11q4-1 5-9-1-3-5-2m-41 1q-2 2 1 6 8 7 6-2c-1-4-6-6-7-4m-604 8c-3 5-3 13 0 14q5 0 5-6l1-5c2-6-4-9-6-3m511-2v6l1 4c1 5 8 7 8 1s-6-14-9-11m15 1c-3 3-3 12 0 13q6 1 5-8-1-11-5-5m-609 1c-4 5-3 13 2 10 2-1 4-8 3-10q-1-4-5 0m67 0c-1 1 2 12 5 15q5 4 5-4c-1-8-7-15-10-11m553 5q-5 8 3 6c3-2 3-8 0-8zm-525 1q-3 4-2 8 2 5 6-1c4-6 1-12-4-7m171 2c2 9 9 18 11 13q0-3 2 0 3 3 5-1l2-3c2-1 1-12-1-12q-6 2-7 11l-3-3q-9-15-9-5m-207 1q-4 2 1 6 4 4 6 2 3-3-3-8-3-3-4 0m45 3v6q4 1 4-3l1-1v-2q-3-4-5 0m187 2q-4 6 0 8c5 0 8-9 3-10zm72 12c-4 7-2 18 3 15 1-1 3-14 2-17q-2-3-5 2m167 0 1 3 1 4q2 5 6 3c3-2 0-13-5-13zm-80 2c-4 4-5 12-2 14q4 3 5-1l3-11-1-4q-2-2-5 2m274 0c-2 2 0 11 3 11q5 0 2-8-2-7-5-3m-377 0c-3 2 5 17 9 15 3-1 1-9-4-14q-2-3-5-1m84 0c-3 1 3 16 7 17 6 1 4-11-3-17zm113 1q-3 4 0 6 4 2 4-5 0-5-4-1m-358 2c-2 4 0 14 2 15 2 0 6-5 4-6l-1-5q-1-9-5-4m277 1q-7 9 0 12 4-1 5-10 0-8-5-2m-89 0c-3 3-3 10 0 10q6-1 5-8 0-6-5-2m-203 1c-1 3 6 15 8 15q4 1 3-3c0-8-9-17-11-12m27 2c-4 6-2 16 3 12l4-13c0-3-5-3-7 1m416 2c-4 6 0 20 4 15 1-1 3-13 2-15q-2-4-6 0m-141 0c-4 5-1 11 4 8q2-2 2-5-2-6-6-3m-51 3c-3 3 4 10 7 7v-4q-4-6-7-3m178-1c-4 4 3 17 7 14 2-1 1-10-2-13q-3-3-5-1m27 1c-3 2-4 10-1 11q7 2 5-10 0-3-4-1m-418 1a3 3 0 1 0 4 5q3-6-4-5m428 4q-4 4 0 6c3 2 7-3 5-6q-2-4-5 0m-529 3-1 7q0 9 5 8 2-1 4 1 5 4 7-6 1-11-6-6l-2 2-1-4q-2-7-6-2m481 0q-1 7 5 8 3 0 2-4c0-5-6-9-7-4m-494 1c-1 5 4 15 7 14 4-1 3-8-2-13q-4-3-5-1m168 8 2 13c4 8 8 3 6-6q-4-13-8-7m16 0q-4 4-4 11c0 7 6 9 7 3q5-22-3-14m-257 0c-3 2-6 17-4 20q4 3 7-6l1-6q3-6-1-8zm-21 4c-2 2 4 15 7 16q7 0 1-12-5-7-8-4m290 3c-5 3-5 14 0 14 4 0 7-13 3-14zm-258 3q-8 11-2 12c4-1 10-11 7-13q-2-2-5 1m220 0c-3 2 2 10 5 9q3-3 0-8-2-3-5-1m443 0c-1 1 0 12 2 14q5 3 5-8-3-10-7-6m13 2q-3 8-1 11 5 4 6-5l1-6a3 3 0 1 0-6 0m-719 0c0 2 4 10 6 11q7 3 3-7-5-10-9-4m491 1v5l2 5c0 8 7 9 8 2 0-8-8-17-10-12m16 2c-3 4-3 11 1 12q6 0 5-10-1-8-6-2m223 0c-3 4-2 12 2 9 3-2 4-9 2-10q-2-2-4 1m-209 2q-4 9 0 10c2 0 5-6 5-9q-2-5-5-1m-212 1q-3 4 1 7 5 1 5-7zm386 1c-1 4 4 9 6 6a5 5 0 0 0-6-6m-334 2 1 4 1 4q2 11 8 8 4-2 0-9-6-12-10-7m-312 0-1 4q2 6 6 1 1-9-5-5m432 1c-2 3 1 10 5 10q4-1 3-5-2-7-8-5m-103 1c-1 1-4 8-4 11 0 5 5 5 7-1 3-7 2-13-3-10m-191 2c-4 6-2 16 3 13 2-1 4-8 4-12q-2-6-7-1m-16 0c-2 2 3 13 5 13q7-2 1-11-4-5-6-2m215 5q-3 5 0 6 5-1 6-7-1-5-6 1m-188 1q-3 7 1 8c4 0 7-8 3-9zm156 1c-1 2 1 7 3 7q5 1 6-3c0-5-7-8-9-4m257 2c-2 4 2 12 5 10 3 0 3-7 0-10q-3-4-5 0m-510 2-2 6q-1 5 4 4h4v-5q0-12-6-5m525 0q-6 9 0 10 5-1 6-9 0-7-6-1m-543 3q-1 6 7 7 7 1 1-5-5-5-8-2"
        mask="url(#16282281824-posters-1720553636646-horizontal-mask)" itemprop="light" fill-opacity="0.90"
        fill-rule="evenodd" stroke="none" fill="url(#16282281824-posters-1720553636646-vertical-light)"></path>
      <!---->
      <path id="16282281824-posters-1720553636646-regular"
        d="M718 4c1 7 6 7 6-1q1-4-4-3h-3zm12-1q-1 6 2 7 3 0 5-6V0h-3q-4-1-4 3m-422 7c-1 3 0 12 2 13q4 2 4-8-2-11-6-5m242 0c-2 2-1 11 0 13q5 1 4-8 0-8-4-5m-230 3c-2 3-4 10-2 10q3 1 6-6c3-6 0-10-4-4m243 0q-4 5-3 8c1 5 6 1 6-5q1-8-3-3m-267 1c-2 2 2 11 6 11q3-1-1-9-3-5-5-2m343 5c-2 7-1 15 4 14 2-1 2-16 0-17q-2 0-4 3m-15 0c-1 2 2 10 5 12 6 6 6-2 0-10q-2-5-5-2m-421 9c-4 4-4 13-1 15q5 3 5-8 2-12-4-7m-13 0c-1 1-1 10 1 15 1 5 5 0 5-6q-1-11-6-9m23 6q-3 8 2 11 3 1 4-9c2-5-3-7-6-2m189 0c-4 6-2 16 2 14 1-1 3-12 2-15q-2-2-4 1m-223 1q-4 4 1 9 2 3 4 1c3-4-2-12-5-10m210 0c-1 2 0 12 2 14 3 5 6-5 3-12q-3-5-5-2m80 1c-2 2 0 11 2 13q4 4 5-2c0-7-5-15-7-11m15 1q-5 8-3 11 4 3 6-5 2-12-3-6m255 1c-3 9 2 24 6 16V41q-1-11-6-3M62 37c-1 2 0 11 2 13q5 4 5-5-2-11-7-8m164 3q-6 6 0 7 3 0 4-4 4-10-4-3M77 42q-5 7-2 10 5 1 5-6 1-9-3-4m679-1c-3 2-5 12-2 14q3 3 5-7t-3-7m-34 1q-3 2 2 6l2 5q1 5 4 5 5 0 0-9t-8-7m-345 2c-1 2 2 7 5 7q5-1 1-6t-6-1m389 3c-3 5-2 11 1 9q3 0 2-6 1-10-3-3m-478 9 1 4 2 8q0 7 3 6c4 0 4-10 0-17q-5-6-6-1m18 1c-2 1-5 11-4 13q2 5 7-4 5-14-3-9m-176 7q-2 4 1 5 4 3 5 0l2 1 2 3 2-3 2-4q-1-5-5-1-1 3-3-2-3-6-6 1m186-2-4 8c-2 4 4 5 6 1 4-6 2-12-2-9m-196 3c0 2 4 8 6 8q5-1 0-8-5-4-6 0m423 1c-2 2-9 3-11 1-4-4-8 1-5 7l3 5q4 6 6-1 1-5 4-6l1 3 1 6q5 5 5-9 2-12-4-6m91 1q-3 7-1 12 5 6 6-10 0-9-5-2m-355-1c-3 2 1 8 4 8q4 1 2-5-2-5-6-3m338 1q-1 2 4 12 5 6 6-1c0-5-9-14-10-11m-293 2q-3 5 3 6 4-1 2-6-1-3-5 0m322 2c-2 1-3 8 0 9q4 1 4-6t-4-3M13 73c-3 3-4 13-2 15q5 3 5-9 2-11-3-6m541 0c-2 2-3 8 0 9q3 2 4-6 0-9-4-3M0 82q0 7 2 6 4 1 2-8-4-9-4 2m24-4c-3 4-3 14 1 11l4-11zm424 2-4 10q2 3 7-1c4-4 1-12-3-9m-14 5q3 8 7 6v-4q-7-11-7-2m-242-1c-1 2 0 9 3 13 5 6 8-2 3-9q-4-7-6-4m543 4 1 3 2 6c1 10 7 11 6 1-1-8-7-14-9-10m-529 2c-4 3-4 9 0 9q4 0 4-7 0-6-4-2m546 5q-6 9-4 10 4 3 7-6 4-13-3-4m-637-1c-4 6-4 15 0 15q4-1 4-12-1-7-4-3m68 0c-2 3 5 9 7 7q4-4-2-7-5-3-5 0m179 2c-3 5-3 12 0 12s7-9 6-13q-2-4-6 1M99 96c0 8 5 16 8 13s-2-15-6-15zm247-1c0 2 3 13 5 14 4 1 5-7 2-13q-3-3-7-1m-220 5q-3 5-1 8 3 2 5-4 3-11-4-4m247 1q-3 6 0 8 5-1 6-8 0-6-6 0m-39 3q1 6 6 8c2 0 3-6 0-9q-4-5-6 1m-198 1c-4 5-1 10 3 6l2-4q-2-6-5-2m437 7c-4 2-5 11-1 14q4 5 4-7 1-10-3-7m-17 2c-1 2 3 11 6 13q4 2 4-2c-2-7-8-13-10-11m-88 1 2 7 2 7q1 5 4 5 6-2 0-14-5-9-8-5m20 0c-4 5-5 17-1 17q4 1 4-10 2-11-3-7m159 1c-1 2 1 10 3 12q3 2 4-3c0-7-5-13-7-9m-635 3 1 2 1 5q1 4-3 3-5 0-3 3c0 2 5 2 6 0h3c5 3 7-4 2-10q-5-7-7-3m14 4q-3 10 1 10 3 0 5-7c3-10-2-12-6-3m636-3q-3 4-1 7 3 3 5-4 2-10-4-3m-421-1c-3 4-1 18 3 18q3 1 1-10 0-11-4-8m256 5q-2 6 1 8c3 0 5-11 2-12zm-273-2c-1 3 5 16 8 16 4 0 2-9-3-15q-4-3-5-1m30 5c-2 3-2 9 0 9s5-7 5-10q-2-3-5 1m207-1q-2 2 1 6 7 5 4-4-2-3-5-2m-246 7q-1 1 1 4 5 7 6 1c0-4-6-8-7-5m181 12c-2 2 4 15 7 15s2-11-2-15q-3-3-5 0m19 0c-2 3-5 11-5 14q1 4 4 2l5-16q-1-4-4 0m283 2c-1 2 0 9 2 11q6 3 4-5t-6-6m13 3q-5 13 4 9h2q1 4 5 3c2 0 4-8 2-9h-4q-4 4-4-4-2-5-5 1m-650-1c-2 1-3 13-1 15q3 5 5-8 0-12-4-7m-16 3 5 12q4 2 4-4c-1-7-7-13-9-8m96-1-1 6v5l-4-3q-8-4-5 3 2 4 9 4 10 3 6-7l-1-7c1-2-3-2-4-1m-68 2-3 11q3 3 6-1c2-5 0-13-3-10m313 2q2 6 6 8 4-2-1-8t-5 0m192 0 3 12q3 4 6 0c0-2-2-10-4-12q-4-4-5 0m14 1c-3 6-1 15 3 13 3-1 3-15 0-15zm-277 5c-3 6-2 13 2 12q2 0 2-7 0-12-4-5m-15-1c-1 2 3 14 5 14q4 1 4-4c0-5-7-13-9-10m304 1q-3 8 2 8 4-3 3-8zm-115 1q-2 2 1 6l2 6q2 6 5 4 5-5-3-15-3-3-5-1m79 2q-2 4 4 7c5 3 7-2 2-6q-6-5-6-1m-243 2q-4 6 0 7c2 1 5-4 5-7q-2-6-5 0m180 2q-3 4-1 7c2 5 7 0 7-7q-1-10-6 0m-216 3q0 4 6 6 4-2 1-5-5-5-7-1m-78 8c-4 6-2 20 3 19q2 1 2-11 0-17-5-8m-17 6c0 2 5 11 7 12q7 1 1-9-6-6-8-3m30 1c-5 6-4 14 1 10 3-2 4-11 2-11zm418 2c-3 2-2 12 0 15q6 2 5-3v-8q-1-9-5-4m-530 1c-2 3-3 10-2 12q5 6 6-7 0-9-4-5m-15 1c-2 3 3 12 5 10q4-2 0-8-2-5-5-2m527 2c-1 4 5 14 8 14q3-1 2-6-6-11-10-8m-440 2c-2 3 4 9 8 7q5 0-1-6-4-5-7-1m569-1c-2 3-3 10 0 11q4 1 4-8 0-6-4-3m-99 2c-4 5-1 11 3 7 2-2 3-8 0-8q-2-2-3 1m83-1c0 3 5 11 7 11q4-1 1-6-5-8-8-5m-615 2q-3 5 0 8 3 0 4-6 0-7-4-2m-111 0c-1 1 1 12 2 14 5 4 6-8 2-14zm12 1c-2 3-2 12 0 13q5 3 4-8 0-9-4-5m386 5q-4 9-1 13 6 7 6-11 0-11-5-2m-88-1c-2 3 1 14 4 16q8 4 3-9-3-10-7-7m69 0q-1 1 2 5l3 7c2 5 7 7 7 2 0-6-9-17-12-14m-259 2c-4 4-1 8 3 4q3-4 0-6zM1 205q-3 3 2 6 10 3 4-4-4-4-6-2m420 1c-2 2-2 10-1 10 3 2 7-4 5-9q-1-3-4-1m-87 4q-4 8 1 9 3 1 5-5 3-15-6-4m182-2c-2 3-2 11-1 13q3 3 5-2c3-8 0-15-4-11m-14 2q-2 2 1 8c3 7 8 5 6-2q-3-8-7-6m24 5q-4 4 0 7 4 2 5-6 0-7-5-1m-323 17q-2 1 1 7l2 6q2 4 5-1c1-6-5-15-8-12m490 0c-1 2-2 13 0 14q5 6 5-7 0-10-5-7m-475 2c-2 3-1 9 1 10q4 0 4-7-2-8-5-3m458-1 2 6 2 6 2 2q4 1 3-4-4-13-9-10m-605 1v8q0 11 4 8c2-1 2-15 0-16zm157 3q-2 7 1 8 3-1 4-7 0-8-5-1m-173 0 1 5 6 8h2l1-3c0-6-8-14-10-10m652 2q-4 5 1 8 4-1 4-8-1-5-5 0m-622 1c-3 3-3 10 1 11 2 0 2 0 4-8q2-10-5-3m482 0 7 16c4 5 6-2 3-9q-7-11-10-7m18 3q-4 12 2 13c3 0 5-16 2-17q-3 0-4 4m-392-1c-2 3 4 9 7 7 2-2-1-8-4-8zm404 5q-4 8 1 9 3 1 4-5 1-14-5-4m-550-2c-1 1 2 7 4 7q5 1 1-5-3-5-5-2m513 5c-2 3 2 10 6 9q4-2-1-7-3-5-5-2m-122 4q4 15 10 14c4-2-2-17-8-17q-2 0-2 3m18-2c-2 3-2 12 0 14q5 4 6-8-2-10-6-6m-167 1c-3 4-3 17 0 17q4 1 4-9 1-12-4-8m-19 5c0 2 4 11 7 14q4 3 5-2c0-6-10-16-12-12m196 3q-5 5-1 7c1 0 6-4 6-6q-1-6-5-1m-167 2q-5 8 0 9 5-1 6-10-1-5-6 1m-163 2 2 13c2 2 12 3 13 0q1-4 2 0 3 3 6-2 1-6-4-3l-2 2v-4q-1-9-6-2-3 6-5 1-2-8-6-5m127 6q-1 3 4 5 7 3 3-4-4-5-7-1m459 1c0 3 3 12 5 13q4 4 4-3c-2-7-9-15-9-10m16 1c-2 3-1 11 1 12q3 1 3-8t-4-4m-385 1c-1 1-1 2 1 11q5 13 8 6c2-6-5-19-9-17m18 4q-5 10-3 13 5 5 6-3l2-7q2-13-5-3m-309 1c-2 4-1 16 2 16q4 0 3-11-2-11-5-5m-13 4c0 5 4 13 5 13 4 0 3-7 0-13q-4-6-5 0m333 0c-3 2-5 9-2 11q3 2 5-5 4-10-3-6m-38 4q2 6 5 8 3 0 2-5c-2-5-7-7-7-3m226 0c-1 2 2 14 3 16 4 4 7-1 5-7q-5-14-8-9m-364 2c-3 5-3 19 2 19 2 0 2-1 2-11q2-10-1-9zm377 5q-5 8-1 9 3 3 6-6 2-14-5-3m-396 0q-3 0 2 6l6 6q4 6 5 1c0-5-9-14-13-13m30 3q-3 9 0 11 4 0 5-8-2-8-5-3m343 1q-1 3 3 6 5 3 5-1c0-5-6-9-8-5m34 0q-3 3-1 6c2 1 6-4 6-7q-1-2-5 1m-365 1q-5 4-4 9 3 3 7-4 3-8-3-5m425 8q-2 8 1 10c4 2 6-4 4-10q-3-6-5 0m-545 0c-1 1 3 15 5 16h3q2-3-2-14-3-5-6-2m530 1c-2 3 5 12 8 10q3-2-2-7-3-6-6-3m-163 1c-6 8-5 23 2 16l2-5-1-12zm-350 3c-2 5-2 12 0 12q5 0 5-10 0-9-5-2m330-1c-2 2-3 1 2 9 6 11 12 8 6-3q-5-10-8-6m209 0c-2 2-3 7-1 7q3 2 5-3 2-9-4-4m-389 3v3l1 6q5 12 8 4c2-7-5-16-9-13m17 0c-5 7-5 16 1 11 3-2 4-10 2-11zm192 2q-4 5-3 10 4 6 7-4 2-11-4-6m-387 0q-3 2 2 6 9 7 5-2-3-6-7-4m628 1c-3 2-4 15-2 17q5 2 5-7l1-6q0-4-4-4m-589 4q-4 5 0 7 4-1 5-7-1-4-5 0m163 2q-4 4 0 6 3 2 5-5-1-4-5-1m81 0 2 6 3 7q1 3 5 4c5 0 3-9-3-15q-6-6-7-2m330-1c-3 2 1 13 5 13l1-4q-1-10-6-9m25 3q-4 6-2 8 3 3 5-4 2-9-3-4m-468 0q-1 5 5 6 5-1 1-5-3-3-6-1m132 4c-4 8-3 15 2 10 2-2 5-10 4-12q-1-3-6 2m191-1c-5 5-4 15 0 15q3 1 3-7 2-14-3-8M0 330l1 7 2 4q1 5 4 6 3-1 1-10c-2-9-8-14-8-7m572 1c-1 2 5 13 8 13q4-1 0-8-5-11-8-5m-556 2c-2 4-4 12-2 14q4 3 6-7 3-14-4-7m583 4c-2 4 0 10 4 9q2-1 2-5-1-9-6-4m-394 5v10q3 4 5 0c1-6-3-13-5-10m12 3q-4 9 0 9c2 0 6-8 6-11q-2-4-6 2m268 10c0 1 4 12 6 14 4 4 5-3 2-10q-5-9-8-4m16-1c-2 3-2 14 0 14q4-1 5-8 0-10-5-6m-421 2c-4 5-2 17 2 17 1-1 2-2 3-15q1-4-2-4zm582 0c-2 3-1 12 1 14q5 5 5-6-1-14-6-8m-599 3c-1 2-1 3 3 11q3 4 5 4 5-1-1-11-5-7-7-4m448 1q-4 4 0 7 1 1 3-2 3-3 1-5-2-3-4 0m-185 1c-5 6-5 16 0 16l2-2 2-5q2-14-4-9m318-1c-1 1 5 10 7 12q4 4 5-1c0-5-10-15-12-11m34 1c-2 1-4 8-2 9q3 3 5-2 3-9-3-7m-588 3q-2 7 1 8c3 0 6-7 5-10q-3-3-6 2m220 0c-2 2 5 13 8 13q3 1 2-3c0-5-8-14-10-10m-256 6q-1 3 3 5 7 4 3-3-4-5-6-2m90 7v6q1 5-2 4-5 1-2 5l3 1h4q5 1 4-6c0-7-5-14-7-10m237 5q-1 1 1 4l1 5q1 5 5 6 5-3-1-12-3-6-6-3m17 0q-3 6-2 14 3 3 6-2c3-6 0-16-4-12m169 2c-3 7 0 16 4 12 2-4 1-15-1-15zm-411 2q-2 6 2 6 5-1 4-7-1-5-6 1m396 1c1 9 6 14 7 7 1-4-2-11-5-11q-2-1-2 4m-143 2q-3 3-1 6c1 4 6 0 6-5q0-7-5-1m170-1q-3 5-1 8c2 1 5-4 5-7q0-4-4-1m-362 5q2 13 8 10c3-3-2-15-6-15q-2-1-2 5m16-1q-4 9 1 11 3 1 4-6 1-13-5-5m137 1c0 5 6 11 9 9q4-2-2-8c-2-2-7-3-7-1m-166 2c-1 3 4 11 7 11q2 0 2-3c0-5-7-12-9-8m282 2q1 8 5 9 6 0 1-8t-6-1m247-1q1 10 6 12v-11q-4-5-6-1m16 2q-3 9 0 11 3 0 5-7 1-13-5-4m-251 1q-3 7 1 7c4 0 8-10 3-11zm-471 3c-6 5-6 18-1 15 2 0 4-10 4-15q0-3-3 0m734-1c-2 2-1 8 1 9q3 2 3-6 1-6-4-3m-41 1q0 4 6 7 3 1 2-2c0-4-6-8-8-5M7 404l8 14q5 2 5-4c-2-7-13-15-13-10m111 3c-1 2-3 12-2 14h4c4-6 2-18-2-14m510 0c-2 2 2 13 5 14q6 1 2-8t-7-6m14 3q-3 9 2 10 4 0 4-8-1-9-6-2m-607 0c-4 3-5 9-1 9q4 0 4-7 1-6-3-2m66-1c-1 3 5 16 8 16 4 0 0-12-5-16zm29 7q-3 4-2 7c1 3 6-1 6-6q0-5-4-1m170-1c0 2 4 13 6 15q4 1 5-3l-7-12zm17 0-5 12q2 5 6 2c1-2 3-11 2-14zm-224 3q-3 1 2 6 5 3 5 1c1-3-4-8-7-7m232 5q-4 6 0 8c3 0 7-6 5-8q-1-3-5 0m241 11c-2 4 1 11 4 11q5-1 1-9-4-6-5-2m-167 0c-4 3-5 13-2 15q4 5 4-8 1-10-2-7m84 4c-2 4-3 13 0 13q4 1 5-8v-6q0-4-5 1m275-1c-1 2 0 9 2 10q2 2 3-3-1-10-5-7m-377 1c-1 3 6 15 8 14 4-2-1-15-6-15zm84 0c-1 3 5 15 7 15q4 0 3-4c-2-8-9-15-10-11m-244 2v12c0 3 4 2 4 0v-5l-1-4q0-4-3-3m276 2c-3 3-3 9 0 10l3-3c4-7 1-12-3-7m-89 0q-3 5-1 8 5 1 6-4-1-10-5-4m-174 1c-2 2-4 10-3 12 1 4 6-2 6-9q1-7-3-3m-28 1c0 2 5 12 7 13 4 1 3-6-1-12q-5-5-6-1m443 3c-4 4-2 15 2 14 3-1 4-16 1-17zm-142 1q-3 5 1 6c2 0 5-5 5-7q-3-2-6 1m127 1c-1 2 0 9 3 11 5 6 7-3 2-9q-2-5-5-2m26 3c-2 5 0 10 4 7 2-2 2-10-1-10zm-517 6c-3 7 0 15 4 12q2-2 2 1 3 5 7-2c3-9-2-13-6-5l-2 5v-5q-1-14-5-6m481-2c-2 1-1 6 1 7 4 4 7-1 3-6q-2-3-4-1m-495 4c0 3 4 11 7 11q3-1 0-8-6-8-7-3m169 6q-2-1 1 9t5 7c4-4-1-18-6-16m15 0c-3 2-4 13-2 16q3 5 5-7 3-13-3-9m-258 2c-4 8-4 18-1 18q4 2 6-16-1-8-5-2m-20 3 6 14q3 2 4-3c0-7-8-15-10-11m289 3c-4 6-3 14 2 11 2-1 5-10 3-11zm-258 6q-5 6-2 7 4 1 7-7c4-7-1-7-5 0m221-4q-3 2 1 6 6 4 6-2-3-6-7-4m443 0c0 2 1 12 3 14q3 2 4-5c0-6-5-12-7-9m14 1c-1 2-2 10-1 11 2 4 7-7 5-12q-1-3-4 1m-719 2c0 4 5 10 7 10q5-1-1-8-4-7-6-2m490 1 1 3 1 6c2 6 8 8 8 2 0-7-8-16-10-11m16 2q-4 6 0 9 4 5 5-5 1-11-5-4m222 2v5q3 2 5-3 1-11-5-2m-208 1q-3 6-1 7 2 2 5-5 3-8-4-2m-159 2q-1 2 1 5l2 7q2 7 6 3 3-1 0-5-6-13-9-10m119 3c-1 2 2 7 5 7q5-1 1-7-4-4-6 0m-292 1c-3 3-5 10-3 12q6 4 7-10 0-6-4-2m189-1c-4 6-4 15 1 12 2-1 4-9 3-11q-3-3-4-1m-207 2 4 11q4 1 5-3c0-5-7-12-9-8m183 6c0 2 3 7 5 7q5-1 3-5-5-5-8-2m257 2c-1 1 0 7 2 9q8 3 3-8-2-3-5-1m-510 2-1 6q-1 5 3 4 4 1 3-5 1-10-5-5m525 2c-5 8-1 11 4 4q4-7 0-8zm-541 1c-4 1 0 7 5 7h4l-4-4q-3-4-5-3"
        mask="url(#16282281824-posters-1720553636646-radial-mask)" itemprop="regular" fill-opacity="0.90"
        fill-rule="evenodd" stroke="none" fill="url(#16282281824-posters-1720553636646-horizontal-regular)"></path>
      <!---->
      <path id="16282281824-posters-1720553636646-medium"
        d="M718 3q1 5 4 6l1-4q1-6-2-5-4-1-3 3m13 0q-1 5 2 6 2-1 3-6c0-4-5-4-5 0M309 9v12q1 5 5 0c2-5-2-15-5-12m241 4v8q4 4 4-3 0-12-4-5m-229-1q-4 6-3 10c1 3 7-4 7-9q0-3-4-1m242 2q-6 9 0 9c2-1 4-9 3-11q-1-2-3 2m-267 0c-1 3 3 10 5 10q5 0-1-7-3-6-4-3m345 3c-2 1-3 13-1 15q5 3 5-7 0-12-4-8m-16 3c-1 1 4 12 5 12q4 2 3-4-6-11-8-8m-421 8c-3 1-5 10-3 13q3 6 5-5t-2-8m-14 7 1 8c0 4 5-2 5-6 0-3-3-9-5-9zm24-2c-2 4-1 12 1 12l3-6q3-12-4-6m188 2q-3 7 0 12 4 3 4-8 0-9-4-4m-224 2 4 8q3-1 2-6-4-6-6-2m211-1c-1 1 1 11 2 12 4 4 5-7 2-12zm352 0c-2 1-2 16 0 18q4 6 4-9 0-13-4-9m-272 1c-1 1 2 11 3 13 3 3 4-4 2-11q-3-5-5-2m14 1q-3 7 1 10 2 1 3-5 2-11-4-5M62 42c1 9 7 12 6 4q-1-8-4-9t-2 5m163-1q-4 5 0 5t6-6q-1-5-6 1m531 1q-4 6-3 11 5 7 5-8 0-5-2-3m-378 1q-2 3 1 7 8 2 3-6-2-3-4-1m344 1 2 4 2 4q1 6 5 6 3-2-1-8-7-12-8-6M289 56l1 4 1 7q1 11 5 4c2-4-3-17-6-17zm17 2c-4 4-5 12-3 14q3 1 6-8v-8zm-175 3q-1 8 2 9 5 0 3-6-3-6-5-3m183 4q-4 6-1 8t6-5q3-10-5-3m-194-1q0 5 6 8 5-1-1-6-4-5-5-2m159 3q0 4 4 7 5-1 0-7-3-4-4 0m264 0c-1 2-10 2-12 0h-4c-1 2 3 12 5 14q4 0 3-4 0-3 3-4 4-4 4 3 1 6 3 5c2-2 2-16 1-16zm91 0c-2 4-1 12 1 13q3 1 4-9 0-10-5-4m-17 1c0 3 6 13 7 13 4 0 1-10-3-13zM13 74c-2 2-3 12-2 14 3 2 6-7 5-15q-1-2-3 1m11 6q-3 8-1 9l2-1 2-5q3-10-3-3m425 0c-3 2-5 11-2 11q4-1 5-7 0-6-3-4m-14 2c-1 1 2 9 4 9q3-1 0-6-3-6-4-3m-243 3c-1 4 2 12 5 13q6 0 1-9-4-7-6-4m544 3 5 16c4 1 1-15-3-16zm-531 3q-3 5-1 7 6 1 5-8-1-5-4 1m546 6q-6 11 0 8c2-2 6-11 5-12q-1-3-5 4m-636-2c-2 2-2 14 0 14l3-5q2-14-3-9m67-1 7 7q4-2 0-6-5-3-7-1m181 2c-4 4-4 13 0 12 1 0 5-8 5-12q-1-4-5 0m-263-1c-1 2 2 10 3 13q4 3 4-1c0-7-6-16-7-12m247 0c-1 1 1 10 3 13q3 2 4-4-1-11-7-9m-220 4-3 8q3 3 5-3 4-8-2-5m247 2q-3 6 0 7c1 0 5-6 5-8q-2-4-5 1m-38 1v7q4 5 6 0c0-4-5-9-6-7m235 13q-2 7 1 11 4 4 4-8 0-10-5-3m-102 0 1 6 3 9q4 9 4-2c0-8-6-18-8-13m87 2c1 3 6 11 8 11q3 0 0-6c-3-7-9-11-8-5m-69 1c-2 4-2 13 0 14q4 0 4-10 1-11-4-4m160-2c-1 2 2 12 4 12q3 0 2-6-3-10-6-6m-618 2c-4 5-5 13-3 14q4 1 6-8 0-8-3-6m-15 5q1 11 6 8 3-1-1-8-6-10-5 0m227-2c-3 5 0 16 4 15l1-7q-2-15-5-8m-16 3q5 16 8 13c2-3-3-15-7-15zm171 22 2 6 2 5q1 3 4 2c1-2 0-9-3-13q-3-4-5 0m19-1c-4 5-5 16-3 16s6-10 6-15q0-3-3-1m284 3c-1 2 1 10 3 10q3 0 1-6t-4-4m13 0c-4 6-1 14 3 11q3-4 3 1 2 4 5-2 3-7-3-4-4 4-5-3v-3zm-652 1v8l1 7c3 0 5-9 4-14q-2-3-5-1m-14 3c-1 1 4 12 6 12q3-1 0-8-5-7-6-4m96 1-1 5q-1 7-6 2-8-5-2 3 3 3 7 3 8 2 5-9-1-9-3-4m-69 3q-3 8-1 9 4 0 4-7 1-8-3-2m313-1c0 2 4 7 6 7s1-5-1-7q-4-4-5 0m193-1q-1 2 1 6l1 5 2 3q4 2 3-5-4-12-7-9m14 2c-3 4-2 13 2 13q2 0 2-9-1-9-4-4m-292 5 3 12q3 2 4-2c0-6-5-14-7-10m14 1v10q4 1 4-7-1-10-4-3m174 1 1 5 2 5q1 4 5 5 4-2-1-11-6-8-7-4m18 2q-4 8-1 11c4 0 7-12 3-13zm61 0q1 4 7 6 5 0-1-5-5-5-6-1m-357 15c-2 5-1 16 2 17q3 3 2-10-1-15-4-7m-15 5q-3 1 2 8 5 6 6 3c1-3-6-13-8-11m29 2q-4 6-3 9 3 2 5-5 2-8-2-4m417 0c-2 3-2 15 1 17q5 2 3-10 0-10-4-7m-530 4q-3 8-1 11 4 2 4-7 1-9-3-4m-15 1q1 6 4 8 3-2 1-8-4-4-5 0m528 1c-2 3 4 12 7 12q5 0-1-8-5-8-6-4m-441 0c-2 3 5 10 9 8 1-1-2-7-5-8zm568 3q-2 7 1 7 4-1 4-8-1-5-5 1m-98 0q-3 4 0 6 4 3 4-5 0-6-4-1m84-1c0 3 5 9 6 10q4-1-1-8-4-5-5-2m-726 1c-1 1 0 11 1 13q3 4 4-2c0-6-4-14-5-11m12 2c-3 2-2 11 0 12 3 0 4-7 2-12q-1-3-2 0m386 3c-4 5-3 15 0 15 2 0 3-1 3-11q1-10-3-4m-89 2 3 13q7 5 5-6-6-13-8-7m70-1c-1 1 6 15 8 15q4 0 1-7-5-10-9-8M0 207q1 3 6 4 6 0 1-4-6-4-7 0m335 3q-3 7 0 9 4-1 5-9 1-7-5 0m86-3q-3 6-1 9 5 1 5-6-1-6-4-3m95 2c-2 3-2 11 0 12q4 0 4-8t-4-4m-14 3c-1 3 4 11 6 10 2-2-1-12-4-12zm25 3q-4 7 0 7 3-1 4-7-1-5-4 0m-324 18c-2 1 4 13 6 13q3-1 0-9-4-7-6-4m490 0c-2 2-1 13 1 14q4 1 4-6 0-11-5-8m-474 1c-2 2-2 8 0 9q4 0 4-6-1-5-4-3m458 0 4 11q2 3 4 0c0-5-7-14-8-11m-606 7 1 8q4 3 4-6 0-10-3-9-2-1-2 7m158-5q-2 6 1 8 2-1 3-8 0-4-4 0m-173 3c0 2 6 11 7 11q2-1 2-5c-2-5-9-11-9-6m651 1q-4 4 0 6 3 3 4-5 1-7-4-1m-622 1q-3 5-1 9 3 2 5-4 3-13-4-5m483-1 7 16q6 2 1-9t-8-7m19 1q-6 11-1 14 3 2 3-8 1-11-2-6m10 6q-3 5-1 7 4 5 5-6 1-9-4-1m-36 4c-2 2 2 9 5 8q3-4-1-7t-4-1m-122 2 1 5 2 5q2 4 5 5c5-2-2-17-7-17zm18 0c-4 5-4 12-1 13q5 1 5-7 0-12-4-6m-168 1c-3 4-2 15 1 15q3 0 3-10-1-8-4-5m-18 4c-2 2 6 14 9 14q5 0-3-11-4-6-6-3m29 5q-5 5-2 8t5-4q4-11-3-4m-163 3c-3 2 2 13 5 13h4q3 3 6-5 3-12-4-5-4 7-6 0-3-6-5-3m602 7c-2 2-2 9-1 11q2 2 3-2c3-6 1-14-2-9m-16 0c-1 1 4 12 5 13q3 1 2-4c-1-6-6-12-7-9m-370 2v5l3 8c2 7 7 7 6 0-1-8-7-17-9-13m18 5q-6 11 0 12 3 1 2-4l2-7q3-13-4-1m-308-1c-3 7-2 15 1 15s4-15 1-16zm-14 2c-1 2 3 14 6 14q3 0 1-8-4-10-7-6m333 3q-4 4-3 9 3 3 6-2 3-12-3-7m-37 4 2 5c3 4 6-1 2-6q-3-5-4 1m226-1c-1 1 1 12 2 14q3 5 5 0c0-6-6-17-7-14m-364 3c-3 3-3 14 0 17q2 3 3-7v-9q1-4-3-1m376 4q-4 8 1 9 2 0 4-11 0-5-5 2m-396 1 3 5 6 7q3 3 4 0c0-3-9-13-11-13zm31 2q-4 9-1 10t4-6q0-7-3-4m342 3c1 3 6 6 7 4s-2-7-5-7q-2-1-2 3m94 9q-1 12 5 5 1-6-2-9zm-545-2 4 14 2 2q3 1 2-5-2-15-8-11m531 1c-2 3 4 12 6 9v-5q-4-6-6-4m-163 2c-3 2-6 11-4 14 3 5 7-1 7-10q0-8-3-4m-351 4q-2 7 1 10c1 0 4-6 4-10q0-8-5 0m329-2 4 9q6 8 7 3c0-6-9-17-11-12m-178 6c1 11 8 17 8 8 0-5-4-12-7-12q-3-1-1 4m15 0q-4 8 0 8 4-2 4-9 0-6-4 1m192 0q-4 6 0 9 4 1 5-7 0-9-5-2m-386-1c-1 4 5 9 7 7 1-1 0-6-3-7zm627 3c-3 7-1 17 2 14 2-2 2-17 1-17q-2 0-3 3m-343 4c0 3 7 16 9 16 4 0 2-8-3-14q-5-6-6-2m329 3c1 5 4 10 6 7s-2-12-5-12zm-308 0c-2 1-5 7-5 10 0 6 6 1 7-6q1-5-2-4m188 2c-3 3-4 11-2 13q5 3 5-8 0-10-3-5M0 331l1 4 2 6 3 5c3 0 3-9 0-14q-5-8-6-1m573-1q-1 1 2 7 5 10 6 4c1-5-6-13-8-11m-557 5c-3 5-3 12 0 12 2 0 5-8 4-14q-1-3-4 2m583 3v5q3 6 5-2 0-8-5-3m-394 5q-1 9 3 11 3-1 1-8-4-6-4-3m12 2v9c2-1 6-10 6-11q-3-3-6 2M81 356c-4 3-2 20 1 16l3-16q-1-4-4 0m404-1 6 14q6 2 1-10c-2-4-7-7-7-4m16 0c-2 3-2 11 0 12q5-1 5-9-2-6-5-3m162 1c-3 4 1 17 4 14v-14zm-600 4c0 2 4 11 6 12q4 3 3-3c-2-7-9-13-9-9m581 0c-1 2 7 13 10 13l2-4-10-10zm-318 1c-2 3-4 11-3 13q4 7 6-4l2-7q-1-5-5-2m350 3q-2 7 2 7c1-1 4-7 3-9q-2-3-5 2m-366 0c-1 3 5 13 7 13q5-1 0-9-5-7-7-4m-165 19q1 6-3 5-3 0-3 2 0 3 7 2t4-11q-5-9-5 2m236 1 2 5q2 8 6 8c2-1 0-9-2-12q-6-6-6-1m17 0c-2 2-3 10-1 12q4 3 5-4c2-7-1-13-4-8m169 2v9q5 3 5-8-1-9-5-1m-15-2c0 1 1 8 3 11q4 5 3-3-2-11-6-8m-142 5q-3 5 0 8l4-8q-1-4-4 0m-193 0c-1 3 3 13 6 14l2-1c1-7-6-17-8-13m17 2c-2 3-3 10-1 11q3 2 4-6t-3-5m137 3q1 5 5 8 7 1 1-7-5-5-6-1m-167 1c0 1 4 10 6 10q6 2 0-7-3-6-6-3m283 0c-1 1 1 9 3 10q3 2 4-2c0-5-6-11-7-8m247 0c-1 1 1 11 3 12 3 3 4-5 1-11q-2-4-4-1m16 2c-2 4-3 11-1 11s5-8 5-11q-2-5-4 0m-251 1q-5 7 0 8c2 0 5-6 5-8q-1-4-5 0m-473 5c-2 3-4 11-3 13q2 4 5-4l2-8q0-6-4-1m-19 1c0 1 7 13 9 13 5 2 4-4-1-9q-6-7-8-4m111 5c-2 2-2 13 0 13 3 0 5-14 2-15zm510 2q4 12 8 8c1-1-2-10-4-11q-4-3-4 3m16-2c-2 3-3 10 0 11q2 2 3-6 1-9-3-5m-610 1q-3 6-1 8c2 1 6-4 6-7q-2-3-5-1m68 0 4 13q4 4 4-3c-1-7-6-13-8-10m199 5c0 3 4 14 6 14q5 3 1-7-6-11-7-7m14 4q-4 10 0 10 3 1 5-9 0-10-5-1m252 14v8q4 6 5 0c0-4-4-10-5-8m-169 3c-2 2-2 13 0 14q3 1 2-5l1-8q1-5-3-1m86 0-3 13q3 5 6-1c2-7 0-15-3-12m-103 2c0 2 4 11 6 12q6 4 1-7-4-8-7-5m85 0c-2 1 3 13 6 14 4 2 4-4-1-10q-4-6-5-4m-245 3c-1 1 0 11 1 12q3 2 3-4l-1-6q-2-5-3-2m275 3q-4 7 0 8 3 0 5-6 1-11-5-2m-289-1c-1 2 5 13 7 13q3-2-3-11-3-5-4-2m25 2q-3 9 1 10 2 0 4-10 0-7-5 0m417 2c-2 5-2 13 1 13q4-2 4-11-2-6-5-2m-15 4c0 6 5 14 7 10l-2-11q-4-2-5 1m27-1c-3 4-1 12 2 9q3-2 2-5-1-7-4-4m-37 6q-1 5 3 8 3 1 2-4-2-6-5-4m-481 2v12c4 4 7-5 4-11q-3-6-4-1m-13 1c-1 0 1 7 3 10q3 4 4-1c0-4-5-11-7-9m21 4-1 4q-2 7 3 5c3-2 3-10 1-11zm162 4c-3 5-3 16 0 16s5-16 3-17q-1-1-3 1m-257 2-4 15q3 4 5-3l2-7q2-13-3-5m242-1c0 7 3 15 6 13q2-2-1-11-3-8-5-2m-262 3c-1 1 5 13 7 14q3 0 0-8-4-7-7-6m287 6-1 6q4 7 7-5-1-8-6-1m-255 0c-3 3-5 9-4 10q2 1 6-6 4-9-2-4m663-1c-1 2 0 12 2 13 3 3 4-4 2-11q-2-5-4-2m13 2c-2 3-1 11 0 11q4-1 4-9 0-6-4-2m-719 1c0 2 5 9 7 9q4 0-1-7-4-6-6-2m491 1 1 4 1 5c0 4 5 7 6 4 2-5-5-16-8-13m15 3q-2 8 1 9 4-1 4-9-1-6-5 0m-144 4q-1 3 3 14 3 4 5 0c2-3-7-17-8-14m-174 3-3 11q4 6 7-7-1-6-4-4m189 1q-4 8-1 11 3 2 4-7 1-10-3-4m-206 1c-1 2 3 11 5 11q3-2 0-9-3-5-5-2m440 8c-2 2 1 9 4 9q3-2-1-8-1-3-3-1m-510 1c-2 3-2 11 1 11q2 1 2-5 1-8-3-6m525 2q-5 7-2 8 5-2 6-8 0-6-4 0"
        mask="url(#16282281824-posters-1720553636646-vertical-mask)" itemprop="medium" fill-opacity="0.90"
        fill-rule="evenodd" stroke="none" fill="url(#16282281824-posters-1720553636646-vertical-medium)"></path>
      <!---->
      <path id="16282281824-posters-1720553636646-bold"
        d="M309 10v9q2 7 4 2c2-5-1-14-4-11m331 11q-3 10 2 11 2 1 2-7 0-14-4-4m-15-1 4 10q4 4 3-1c-2-6-7-13-7-9M191 31c-1 4 0 12 2 13 3 1 2-13 0-15q-2-1-2 2m12-1c-1 1-2 11-1 13q4 2 4-9 0-9-3-4m12 4q-4 7-1 10 3 2 4-7 0-8-3-3m188 0c-2 2-3 12-1 12q2 4 3-6 1-9-2-6m-13 6q1 11 3 9c1 0 2-8 0-11q-4-5-3 2m80-3c-1 1 1 10 2 12q5 2 2-8-3-7-4-4m270 3q-2 9 2 14 3 3 2-4v-9q-1-9-4-1M63 41c1 7 5 12 5 7q0-9-4-10-3 0-1 3m660 2q-1 1 1 4l3 6q2 6 4 3c1-1-4-10-6-12q-2-3-2-1m32 1q-3 6-1 9 1 4 3-2c2-7 1-12-2-7M290 56v3l1 6q1 12 4 6c2-5-3-19-5-15m17 2c-2 2-5 11-5 12q3 3 5-4 4-11 0-8m8 7q-3 4-1 7c2 2 7-7 5-9q-2-2-4 2m228 2q-3 3-4 2h-8q-6-5-3 4l3 5q2 5 4-1 0-4 3-5 4-3 4 2 2 8 3 6l1-8v-7zm92 0q-2 6-1 11 1 6 4-4 1-13-3-7m-17 1 1 4 2 5q1 3 4 3 3-2-2-8-4-7-5-4M12 77v10q3 2 3-7l1-6-1-1zm436 4-1 3-1 3-1 2c2 3 8-2 6-6q0-5-3-2m-255 6q1 10 5 11l2-1-2-8q-5-9-5-2m543 1 1 4 2 6q3 9 4 2c0-4-4-12-6-12zm-621 7c-2 3-3 12-1 12q3 3 4-7 1-9-3-5m248 1c-2 3-3 11-1 11s5-8 5-12q0-2-4 1m-263 0c-1 2 3 13 5 13s1-8-1-11q-3-5-4-2m248 0 1 7 1 3 2 2c4-1 1-13-3-13zm224 19c-2 3-1 11 1 11q2 0 2-7 0-9-3-4m-15 0c0 3 5 12 6 12 3 0 1-7-3-11zm-87 1 2 8 1 3q0 6 3 6 3-1 1-6c-1-6-5-13-7-11m17 6q-3 9 0 9 3 2 3-9 1-12-3 0m-473-3v2l1 4q2 10 5 5c1-3-5-14-6-11m15 0-1 2-2 5c-2 5 1 9 4 4 2-3 1-13-1-11m213 2c-2 4-1 14 2 14v-7q0-12-2-7m-17 2 1 3 3 6q2 8 4 3c0-1-2-9-5-11q-3-3-3-1m191 22c-2 3-5 11-5 14q0 5 5-6 3-11 0-8m-20 1 3 7q5 10 4 1 0-8-5-9zm316 3q-2 6-1 10c2 3 5-2 4-7q0-8-3-3m-651 0v14q3 0 3-9 0-8-3-5m-14 3c-1 1 3 10 5 11q3 0-1-8-3-6-4-3m95 4q-1 10-6 5-5-3-5-1c2 4 13 8 14 4 1-1-1-13-2-13zm437 0q4 14 5 12c3 0 2-9-2-12q-3-4-3 0m14 2q-3 5 0 9l2 2 1-3v-9q-1-5-3 1m-291 3c-1 1 2 11 3 12 2 3 3-2 1-7q-2-8-4-5m188 2 1 5 2 6 3 3q5-1 0-8-5-10-6-6m17 4c-3 6-2 11 1 7 2-3 3-10 1-10q-2 0-2 3m-296 14c-2 5 0 18 3 16v-20zm-15 6c0 2 6 10 7 9q3-1-2-7t-5-2m447 1c-3 4-2 14 1 15q2 1 2-8-1-11-3-7m-18 6 5 10q5 2 2-5c-2-5-7-9-7-5m-614 4 2 6q0 7 2 5c2 0 3-5 1-5l-1-4-3-4zm13 1q-3 9 0 10t2-8q0-6-2-2m386 4c-2 4-3 12 0 12q2 3 2-9 1-12-2-3m-88 2c0 5 3 12 5 12q3-1 0-10-5-9-5-2m69-3 3 5 2 5q1 5 4 4 2-2-3-9-4-6-6-5m-56 9-2 6q3 3 5-3 4-12-3-3m182-1q-3 10-1 11 3 0 4-7-1-9-3-4m-313 25q3 12 6 10 2-1-1-7-6-8-5-3m473 0 6 11c3 0-1-11-5-12q-1-2-1 1m17-1-1 6q0 7 2 6 3 1 2-6-1-9-3-6m-622 1c-2 2 0 14 2 14l1-7q-1-11-3-7m-16 3 7 11q3-1-1-7t-6-4m31 2c-3 1-3 9-1 10q2-2 3-9 0-4-2-1m481 1 7 14h2a8 8 0 0 0-2-8c0-2-4-7-6-7zm18 3q-3 7-1 10 3 3 4-7t-3-3m-147 9 4 12q3 4 5 1 1-3-4-11-4-5-5-2m18 0c-1 2-2 10-1 12q4 4 4-6t-3-6m-167 2c-2 3-3 12-1 14q3 2 3-9 0-9-2-5m-18 4c-1 2 6 13 8 13q3-1-2-9-5-7-6-4m-135 8 3 11q13 2 12-8-1-6-5 1-1 6-6-1-3-7-4-3m216 8 1 5 2 6q1 5 4 6l1-4c0-6-6-17-8-13m19 4-3 11q3 5 5-5 3-15-2-6m-309 1v13q3 3 3-7 0-11-3-6m-13 4c0 4 4 12 5 10s0-10-2-12q-3-3-3 2m332 1q-4 6-2 8c2 1 6-6 6-9q-1-2-4 1m189 6q2 11 4 12 4-1 1-9-6-12-5-3m-364 0c-2 3-2 12 0 14q3 6 2-7 0-14-2-7m377 2q-3 6-2 9 3 3 4-4l2-6q0-4-4 1m-396 2 3 5 4 5 3 3q3 0-3-7-6-8-7-6m467 13v8q5 2 3-7 0-7-3-1m-545 1 2 7 2 6q1 2 3-1c1-2-3-13-5-14zm366 3c-4 5-4 16 0 14q3-3 3-11 1-9-3-3m-347-1c-2 1-4 7-4 10q1 5 4-3 4-11 0-7m327 1c0 3 7 14 8 14q3 0-2-10-5-7-6-4m-179 3 2 10q4 8 5 0c0-6-5-13-7-10m207 4q-3 7 1 7 3-1 4-9-2-3-5 2m241 1v7q0 11 2 1l2-8q-1-4-4 0m-343 3c0 1 7 16 9 16q1 2 1-3c-1-7-8-16-10-13m19 7c-2 3-3 10-1 10l4-6 1-5q0-4-4 1M0 330l1 3 4 10 1 3c2-1 2-9-1-13q-4-7-5-3m590 2q-3 8 0 9 3 6 3-8 1-9-3-1m-17-1 3 6q8 12 3-1-5-9-6-5m-556 3q-4 13-1 12c1-1 4-8 4-11q-1-3-3-1m470 21c-2 2 4 15 6 14q3-3-2-10-4-7-4-4m15 0q-3 9-1 11 4-1 3-8 0-6-2-3m-421 2c-2 2-3 11 0 13q2 6 2-7 2-11-2-6m581 1c-1 3 2 12 4 12v-12q-1-4-4 0m-598 3 1 4 3 4q0 3 2 3 3 0-1-7-5-9-5-4m263 1c-2 2-4 9-3 12q1 5 4-1l1-6q3-11-2-5m318-1c0 2 7 11 8 11q4 0-2-8-6-6-6-3m-334 6 1 2 2 3q2 5 5 4c1-1-1-6-2-7l-2-3q-3-4-4 1m-166 16q1 8-3 6l-2 1q0 2 4 2 10 1 5-9-4-12-4 0m237 0 4 12c5 3 3-9-1-12zm17 1c-3 2-2 12 0 12s4-9 2-12q-1-3-2 0m168 2q0 11 3 9c2-2 2-13 0-13zm-14 2q4 14 5 5-1-7-4-9zm-335 3c0 6 4 14 6 11q1-3-2-10-3-5-4-1m-13 5 4 8c4 3 4-2 0-7q-4-5-4-1m283-1c-1 1 0 7 1 9 4 4 5-1 2-7q-2-4-3-2m246 1c0 3 3 11 4 11 3 0 0-11-2-12zm16 2-2 6q1 6 4 0c2-7 0-13-2-6m-723 5c-2 2-4 11-3 13q2 5 4-9 2-9-1-4m-19 2 2 3 3 5q3 5 5 3 2-3-4-9-6-5-6-2m110 5c-2 3-1 11 0 11q3-1 3-10 0-5-3-1m510-1 1 1 1 4 3 5q3 2 1-5l-2-5zm-526 2 1 2 1 4 3 5 2 3v-4c0-4-4-11-6-11zm200 6c0 3 4 11 5 12q4 1 0-8-5-8-5-4m13 3q-3 8-1 9 4 1 4-5l2-6q0-5-5 2m83 18q-3 9 0 11 3 1 2-6l1-7-1-2zm86 2q-4 9 0 10 2 1 2-6l2-7c1-3-3-1-4 3m-102-1 5 11q4 3 1-7-5-8-6-4m84 0c-1 1 5 13 7 13q3-1-2-10-4-6-5-3m30 6v5q3 3 5-5 0-7-5 0m-262-2c-1 2-3 10-2 11q2 3 3-4 4-11-1-7m-27 1 2 5 2 5 2 1q3 1 0-5-4-9-6-6m443 3q-3 8-1 12 3 3 4-7 0-9-3-5m-16 3c0 3 4 11 5 11 2 0 2-6 0-9q-3-3-5-2m-491 9c-1 3 0 11 2 11q3-1 2-10-1-6-4-1m156 8c-1 2 2 13 4 14l1-6q-2-12-5-8m14 2c-3 4-2 13 0 13q2 0 2-7 1-13-2-6m-258 2c-2 4-3 14-1 14q3 1 3-8l2-8q0-4-4 2m-19 1c0 2 5 11 7 12 2 0 1-6-2-10q-4-5-5-2m287 6q-2 7 1 7c2 0 5-8 5-10q-3-3-6 3m408 3q2 13 4 4 0-8-3-9zm-215 0 2 7q3 8 6 4c0-2-2-9-5-11q-3-4-3 0m-129 7c0 4 5 15 6 15q5-1-3-14-3-3-3-1m-174 5q-3 8-2 9 3 2 4-6 1-9-2-3m-17-1c0 3 3 10 5 10q3 0 0-7-5-6-5-3"
        mask="url(#16282281824-posters-1720553636646-horizontal-mask)" itemprop="bold" fill-opacity="0.90"
        fill-rule="evenodd" stroke="none" fill="url(#16282281824-posters-1720553636646-vertical-bold)"></path>
    </pattern>
    <rect id="16282281824-posters-1720553636646-pattern-render" fill="url(#16282281824-posters-1720553636646-pattern)"
      width="100%" height="100%"></rect>
  </defs>
  <radialGradient id="lightbar" cx="50%" cy="200%" fy="0" r="201%">
    <stop offset="0%" style="stop-color: rgb(255, 255, 255); stop-opacity: 0.1;"></stop>
    <stop offset="10%" style="stop-color: rgb(0, 0, 0); stop-opacity: 0.1;"></stop>
    <stop offset="30%" style="stop-color: rgb(0, 0, 0); stop-opacity: 0.3;"></stop>
    <stop offset="90%" style="stop-color: rgb(0, 0, 0); stop-opacity: 0.55;"></stop>
    <stop offset="100%" style="stop-color: rgb(0, 0, 0); stop-opacity: 0.6;"></stop>
  </radialGradient>
  <g class="radial">
    <radialGradient id="16282281824-posters-1720553636646-radial" gradientUnits="userSpaceOnUse">
      <stop itemprop="radial" stop-color="#e9e8e7" offset="0%"></stop>
      <stop itemprop="radial" stop-color="#e6e6e5" offset="15%"></stop>
      <stop itemprop="radial" stop-color="#e6e6e5" offset="30%"></stop>
      <stop itemprop="radial" stop-color="#ebebea" offset="45%"></stop>
      <stop itemprop="radial" stop-color="#e9e8e7" offset="60%"></stop>
      <stop itemprop="radial" stop-color="#e9e8e7" offset="75%"></stop>
      <stop itemprop="radial" stop-color="#e6e6e5" offset="90%"></stop>
    </radialGradient>
    <radialGradient id="16282281824-posters-1720553636646-radial-background" gradientUnits="userSpaceOnUse">
      <stop stop-color="#d3cdc5" offset="0%"></stop>
      <stop stop-color="#d3cec5" offset="15%"></stop>
      <stop stop-color="#d3cec5" offset="30%"></stop>
      <stop stop-color="#d3cdc5" offset="45%"></stop>
      <stop stop-color="#d3cec5" offset="60%"></stop>
      <stop stop-color="#d3cec5" offset="75%"></stop>
      <stop stop-color="#d3cec5" offset="90%"></stop>
    </radialGradient>
    <radialGradient id="16282281824-posters-1720553636646-radial-light" gradientUnits="userSpaceOnUse">
      <stop stop-color="#9c9a96" offset="0%"></stop>
      <stop stop-color="#9b9a97" offset="15%"></stop>
      <stop stop-color="#9b9a97" offset="30%"></stop>
      <stop stop-color="#9c9a96" offset="45%"></stop>
      <stop stop-color="#9c9a96" offset="60%"></stop>
      <stop stop-color="#9c9a96" offset="75%"></stop>
      <stop stop-color="#9b9a97" offset="90%"></stop>
    </radialGradient>
    <radialGradient id="16282281824-posters-1720553636646-radial-regular" gradientUnits="userSpaceOnUse">
      <stop stop-color="#83807c" offset="0%"></stop>
      <stop stop-color="#82807d" offset="15%"></stop>
      <stop stop-color="#82807d" offset="30%"></stop>
      <stop stop-color="#83807c" offset="45%"></stop>
      <stop stop-color="#83817c" offset="60%"></stop>
      <stop stop-color="#83817c" offset="75%"></stop>
      <stop stop-color="#82807d" offset="90%"></stop>
    </radialGradient>
    <radialGradient id="16282281824-posters-1720553636646-radial-medium" gradientUnits="userSpaceOnUse">
      <stop stop-color="#514f4d" offset="0%"></stop>
      <stop stop-color="#514f4d" offset="15%"></stop>
      <stop stop-color="#514f4d" offset="30%"></stop>
      <stop stop-color="#514f4d" offset="45%"></stop>
      <stop stop-color="#51504d" offset="60%"></stop>
      <stop stop-color="#51504d" offset="75%"></stop>
      <stop stop-color="#514f4d" offset="90%"></stop>
    </radialGradient>
    <radialGradient id="16282281824-posters-1720553636646-radial-bold" gradientUnits="userSpaceOnUse">
      <stop stop-color="#2f2e2d" offset="0%"></stop>
      <stop stop-color="#2f2e2d" offset="15%"></stop>
      <stop stop-color="#2f2e2d" offset="30%"></stop>
      <stop stop-color="#2f2e2d" offset="45%"></stop>
      <stop stop-color="#2f2e2d" offset="60%"></stop>
      <stop stop-color="#2f2e2d" offset="75%"></stop>
      <stop stop-color="#2f2e2d" offset="90%"></stop>
    </radialGradient>
  </g>
  <g class="vertical">
    <linearGradient id="16282281824-posters-1720553636646-vertical" gradientUnits="userSpaceOnUse" x1="0" x2="0" y1="0"
      y2="100%">
      <stop itemprop="vertical" stop-color="#e9e8e7" offset="0%"></stop>
      <stop itemprop="vertical" stop-color="#e6e6e5" offset="15%"></stop>
      <stop itemprop="vertical" stop-color="#e6e6e5" offset="30%"></stop>
      <stop itemprop="vertical" stop-color="#ebebea" offset="45%"></stop>
      <stop itemprop="vertical" stop-color="#e9e8e7" offset="60%"></stop>
      <stop itemprop="vertical" stop-color="#e9e8e7" offset="75%"></stop>
      <stop itemprop="vertical" stop-color="#e6e6e5" offset="90%"></stop>
    </linearGradient>
    <linearGradient id="16282281824-posters-1720553636646-vertical-background" gradientUnits="userSpaceOnUse" x1="0"
      x2="0" y1="0" y2="100%">
      <stop stop-color="#ceccca" offset="0%"></stop>
      <stop stop-color="#cecdca" offset="15%"></stop>
      <stop stop-color="#cdcccb" offset="30%"></stop>
      <stop stop-color="#ceccca" offset="45%"></stop>
      <stop stop-color="#cecdca" offset="60%"></stop>
      <stop stop-color="#ceccca" offset="75%"></stop>
      <stop stop-color="#cecdca" offset="90%"></stop>
    </linearGradient>
    <linearGradient id="16282281824-posters-1720553636646-vertical-light" gradientUnits="userSpaceOnUse" x1="0" x2="0"
      y1="0" y2="100%">
      <stop stop-color="#ae9d84" offset="0%"></stop>
      <stop stop-color="#aea084" offset="15%"></stop>
      <stop stop-color="#ae9f84" offset="30%"></stop>
      <stop stop-color="#ae9d84" offset="45%"></stop>
      <stop stop-color="#aea084" offset="60%"></stop>
      <stop stop-color="#ae9d84" offset="75%"></stop>
      <stop stop-color="#aea084" offset="90%"></stop>
    </linearGradient>
    <linearGradient id="16282281824-posters-1720553636646-vertical-regular" gradientUnits="userSpaceOnUse" x1="0" x2="0"
      y1="0" y2="100%">
      <stop stop-color="#83807c" offset="0%"></stop>
      <stop stop-color="#83817c" offset="15%"></stop>
      <stop stop-color="#82807d" offset="30%"></stop>
      <stop stop-color="#83807c" offset="45%"></stop>
      <stop stop-color="#83817c" offset="60%"></stop>
      <stop stop-color="#83807c" offset="75%"></stop>
      <stop stop-color="#83817c" offset="90%"></stop>
    </linearGradient>
    <linearGradient id="16282281824-posters-1720553636646-vertical-medium" gradientUnits="userSpaceOnUse" x1="0" x2="0"
      y1="0" y2="100%">
      <stop stop-color="#514f4d" offset="0%"></stop>
      <stop stop-color="#51504d" offset="15%"></stop>
      <stop stop-color="#514f4d" offset="30%"></stop>
      <stop stop-color="#514f4d" offset="45%"></stop>
      <stop stop-color="#51504d" offset="60%"></stop>
      <stop stop-color="#514f4d" offset="75%"></stop>
      <stop stop-color="#51504d" offset="90%"></stop>
    </linearGradient>
    <linearGradient id="16282281824-posters-1720553636646-vertical-bold" x1="0" x2="0" y1="0" y2="100%">
      <stop stop-color="#2f2e2d" offset="0%"></stop>
      <stop stop-color="#2f2e2d" offset="15%"></stop>
      <stop stop-color="#2f2e2d" offset="30%"></stop>
      <stop stop-color="#2f2e2d" offset="45%"></stop>
      <stop stop-color="#2f2e2d" offset="60%"></stop>
      <stop stop-color="#2f2e2d" offset="75%"></stop>
      <stop stop-color="#2f2e2d" offset="90%"></stop>
    </linearGradient>
  </g>
  <g class="horizontal">
    <linearGradient id="16282281824-posters-1720553636646-horizontal" x1="0" x2="100%" y1="0" y2="0"
      gradientUnits="userSpaceOnUse">
      <stop itemprop="horizontal" stop-color="#e9e8e7" offset="0%"></stop>
      <stop itemprop="horizontal" stop-color="#e6e6e5" offset="15%"></stop>
      <stop itemprop="horizontal" stop-color="#e9e8e7" offset="30%"></stop>
      <stop itemprop="horizontal" stop-color="#e9e8e7" offset="45%"></stop>
      <stop itemprop="horizontal" stop-color="#e6e6e5" offset="60%"></stop>
      <stop itemprop="horizontal" stop-color="#e9e8e7" offset="75%"></stop>
      <stop itemprop="horizontal" stop-color="#e9e8e8" offset="90%"></stop>
    </linearGradient>
    <linearGradient id="16282281824-posters-1720553636646-horizontal-background" gradientUnits="userSpaceOnUse" x1="0"
      x2="100%" y1="0" y2="0">
      <stop stop-color="#ceccca" offset="0%"></stop>
      <stop stop-color="#cdcccb" offset="15%"></stop>
      <stop stop-color="#cecdca" offset="30%"></stop>
      <stop stop-color="#cecdca" offset="45%"></stop>
      <stop stop-color="#cdcccb" offset="60%"></stop>
      <stop stop-color="#ceccca" offset="75%"></stop>
      <stop stop-color="#cdcccb" offset="90%"></stop>
    </linearGradient>
    <linearGradient id="16282281824-posters-1720553636646-horizontal-light" gradientUnits="userSpaceOnUse" x1="0"
      x2="100%" y1="0" y2="0">
      <stop stop-color="#9c9a96" offset="0%"></stop>
      <stop stop-color="#9b9a97" offset="15%"></stop>
      <stop stop-color="#9c9a96" offset="30%"></stop>
      <stop stop-color="#9c9a96" offset="45%"></stop>
      <stop stop-color="#9b9a97" offset="60%"></stop>
      <stop stop-color="#9c9a96" offset="75%"></stop>
      <stop stop-color="#9b9a97" offset="90%"></stop>
    </linearGradient>
    <linearGradient id="16282281824-posters-1720553636646-horizontal-regular" gradientUnits="userSpaceOnUse" x1="0"
      x2="100%" y1="0" y2="0">
      <stop stop-color="#968369" offset="0%"></stop>
      <stop stop-color="#968669" offset="15%"></stop>
      <stop stop-color="#968769" offset="30%"></stop>
      <stop stop-color="#968769" offset="45%"></stop>
      <stop stop-color="#968669" offset="60%"></stop>
      <stop stop-color="#968369" offset="75%"></stop>
      <stop stop-color="#968669" offset="90%"></stop>
    </linearGradient>
    <linearGradient id="16282281824-posters-1720553636646-horizontal-medium" gradientUnits="userSpaceOnUse" x1="0"
      x2="100%" y1="0" y2="0">
      <stop stop-color="#5d5141" offset="0%"></stop>
      <stop stop-color="#5d5341" offset="15%"></stop>
      <stop stop-color="#5d5441" offset="30%"></stop>
      <stop stop-color="#5d5441" offset="45%"></stop>
      <stop stop-color="#5d5341" offset="60%"></stop>
      <stop stop-color="#5d5141" offset="75%"></stop>
      <stop stop-color="#5d5341" offset="90%"></stop>
    </linearGradient>
    <linearGradient id="16282281824-posters-1720553636646-horizontal-bold" gradientUnits="userSpaceOnUse" x1="0"
      x2="100%" y1="0" y2="0">
      <stop stop-color="#2f2e2d" offset="0%"></stop>
      <stop stop-color="#2f2e2d" offset="15%"></stop>
      <stop stop-color="#2f2e2d" offset="30%"></stop>
      <stop stop-color="#2f2e2d" offset="45%"></stop>
      <stop stop-color="#2f2e2d" offset="60%"></stop>
      <stop stop-color="#2f2e2d" offset="75%"></stop>
      <stop stop-color="#2f2e2d" offset="90%"></stop>
    </linearGradient>
  </g>
  <g class="masks">
    <mask id="16282281824-posters-1720553636646-pattern-mask" maskUnits="userSpaceOnUse"
      maskContentUnits="userSpaceOnUse">
      <pattern id="pattern" x="0" y="0" width=".0133" height=".0144" viewBox="0 0 23.07 40">
        <path
          d="M17.62 0l-6.07 10.5m2.74 4.76L8.22 4.75m-5.48 0h12.13M.01 0h23.07M6.07 20L0 9.5m2.74-4.75l-6.07 10.5m-5.48 0H3.33m8.2 4.75L0 .02-11.54 20m40.68 0L23.07 9.5m2.74-4.75l-6.06 10.5m-5.49 0H26.4M34.6 20L23.08.02 11.53 20m-5.46 0L0 30.51m2.74 4.75l-6.07-10.5m-5.48 0H3.33m8.2-4.75L0 40l-11.54-19.98zM17.6 40l-6.06-10.5m2.74-4.76L8.2 35.25m-5.48 0h12.13M0 40h23.07L11.54 20.01m17.6 0l-6.07 10.5m2.74 4.75l-6.06-10.5m-5.49 0H26.4M11.53 20h23.08L23.07 40"
          stroke-linecap="round" stroke-width="3.5" stroke="white"
          fill="url(#16282281824-posters-1720553636646-horizontal-background)"></path>
      </pattern>
      <rect width="100%" height="100%" fill="url(#pattern)"></rect>
    </mask>
    <mask id="16282281824-posters-1720553636646-horizontal-mask" maskUnits="userSpaceOnUse"
      maskContentUnits="userSpaceOnUse">
      <rect width="100%" height="100%" fill="url(#16282281824-posters-1720553636646-horizontal-background)"></rect>
    </mask>
    <mask id="16282281824-posters-1720553636646-radial-mask" maskUnits="userSpaceOnUse"
      maskContentUnits="userSpaceOnUse">
      <rect width="100%" height="100%" fill="url(#16282281824-posters-1720553636646-radial-background)"></rect>
    </mask>
    <mask id="16282281824-posters-1720553636646-vertical-mask" maskUnits="userSpaceOnUse"
      maskContentUnits="userSpaceOnUse">
      <rect width="100%" height="100%" fill="url(#16282281824-posters-1720553636646-vertical-background)"></rect>
    </mask>
  </g>
  <use href="#16282281824-posters-1720553636646-pattern-render"></use>
  <g>
    <use href="#16282281824-posters-1720553636646-background"></use>
    <use href="#16282281824-posters-1720553636646-light"></use>
    <use href="#16282281824-posters-1720553636646-regular"></use>
    <use href="#16282281824-posters-1720553636646-medium"></use>
    <use href="#16282281824-posters-1720553636646-bold"></use>
  </g>
  <g itemprop="animation">
    <animate href="#16282281824-posters-1720553636646-light" attributeName="stroke-opacity" repeatCount="indefinite"
      dur="5s" values="0.9;0.0;0.9"></animate>
    <animate href="#16282281824-posters-1720553636646-regular" attributeName="stroke-opacity" repeatCount="indefinite"
      dur="4s" values="0.9;0;0.9"></animate>
    <animate href="#16282281824-posters-1720553636646-medium" attributeName="stroke-opacity" repeatCount="indefinite"
      dur="5s" values="0.9;0;0.9"></animate>
    <animate href="#16282281824-posters-1720553636646-bold" attributeName="stroke-opacity" repeatCount="indefinite"
      dur="3s" values="0.9;0;0.9"></animate>
    <animate href="#16282281824-posters-1720553636646-regular" attributeName="fill-opacity" repeatCount="indefinite"
      dur="8s" values="0.9;0.75;0.95;0.8;0.9;"></animate>
    <animate href="#16282281824-posters-1720553636646-radial-background" attributeName="cx" repeatCount="indefinite"
      dur="34s" values="0%;33%;100%;0%;100%;0%;"></animate>
    <animate href="#16282281824-posters-1720553636646-radial-background" attributeName="cy" repeatCount="indefinite"
      dur="55s" values="0%;100%;33%;100%;66%;0%"></animate>
    <animate href="#16282281824-posters-1720553636646-vertical-light" attributeName="x1" repeatCount="indefinite"
      dur="55s" values="0%;33%;100%;0%;133%;0%;"></animate>
    <animate href="#16282281824-posters-1720553636646-vertical-light" attributeName="y1" repeatCount="indefinite"
      dur="86s" values="0%;100%;33%;100%;66%;0%"></animate>
    <animate href="#16282281824-posters-1720553636646-horizontal-regular" attributeName="x1" repeatCount="indefinite"
      dur="34s" values="0%;100%;66%;0%;33%;133%;0%"></animate>
    <animate href="#16282281824-posters-1720553636646-horizontal-regular" attributeName="y1" repeatCount="indefinite"
      dur="55s" values="0%;66%;100%;33%;100%;66%;0%"></animate>
    <animate href="#16282281824-posters-1720553636646-vertical-medium" attributeName="x1" repeatCount="indefinite"
      dur="34s" values="0%;100%;66%;0%;33%;133%;0%"></animate>
    <animate href="#16282281824-posters-1720553636646-vertical-medium" attributeName="y1" repeatCount="indefinite"
      dur="55s" values="0%;66%;100%;33%;100%;66%;0%"></animate>
    <animate href="#16282281824-posters-1720553636646-vertical-bold" attributeName="x1" repeatCount="indefinite"
      dur="34s" values="0%;100%;66%;0%;33%;133%;0%"></animate>
    <animate href="#16282281824-posters-1720553636646-vertical-bold" attributeName="y1" repeatCount="indefinite"
      dur="55s" values="0%;66%;100%;33%;100%;66%;0%"></animate>
  </g>
</svg>
