<svg id="16282281824-posters-1720553956018" itemscope="" itemtype="/posters"
  itemid="/+16282281824/posters/1720553956018" viewBox="0 0 769 512" preserveAspectRatio="xMidYMid meet" tabindex="0"
  class="animate landscape" xmlns="http://www.w3.org/2000/svg">
  <!---->
  <defs class="graphic">
    <pattern id="16282281824-posters-1720553956018-pattern" width="769" height="512" viewBox="0 0 769 512"
      patternUnits="userSpaceOnUse" preserveAspectRatio="xMidYMid meet">
      <rect itemprop="background" width="769" height="512" tabindex="-1"
        id="16282281824-posters-1720553956018-background" fill-opacity="1"
        fill="url(#16282281824-posters-1720553956018-radial-background)"></rect>
      <!---->
      <path id="16282281824-posters-1720553956018-light"
        d="M12 7q-6 14-1 24l3 7-3 7q-6 11-1 23 4 7-1 15c-3 5-3 17 1 23q3 5 0 13-6 12 0 23c3 7 3 6-1 13q-6 13 0 24c3 7 3 5-2 18q-3 9 2 18 5 8 0 16-6 11-1 23c4 6 4 7 0 13q-4 14 0 24 4 9-1 16c-2 2-2 16 1 22q3 8-1 15c-4 4-3 15 1 22q4 4-1 13-6 11 0 22c3 7 3 9 1 14-5 7-5 18-1 25q4 6 0 13c-5 8-5 19 1 25q3 4-1 12c-4 8-4 9-4 14 1 8 2 8 8 8h5l-1-3q-4-6 1-17c4-9 4-9 0-16q-6-12-1-22 5-8 3-13-9-13-2-24 6-9 1-15-7-12-1-22c4-8 4-10 1-17q-6-11-1-20c4-7 4-8 0-17q-5-13 1-21 5-7 0-15-6-10 0-21 4-10 1-15-7-12-1-23 5-8 0-17t1-23c3-5 3-8-2-17q-3-7 2-18 6-8 1-16-6-10 0-21c4-8 4-8 0-16q-6-12 2-23 2-4-1-12c-3-6-3-17 0-23q5-7 0-15c-3-6-3-15-1-19l5-10-5-1h-4zm25-4c-6 15-6 16 0 29 2 4 1 5-2 12a20 20 0 0 0 1 24c2 0 1 8-2 13q-4 11 0 23c4 7 4 6 0 13q-6 13 0 24l3 6-3 6q-6 13-1 24 4 7 1 14c-5 11-5 15 0 26l3 6-3 5q-7 11-1 25l3 6-3 6q-8 15 1 26v10q-9 12-1 28 4 5-1 12-6 11 0 22 4 8 0 16-6 12 0 22c4 6 4 6 0 14q-6 13 0 23 5 8-1 14c-4 6-4 17 0 23s4 7 1 14c-3 6-4 18-2 21 2 2 10 3 10 2l-2-5a20 20 0 0 1 3-17l2-5v-4l-1-3-1-3c-4-4-4-15 0-25 3-5 3-6 0-12-5-8-5-14 2-26q3-4-2-11c-4-9-4-16 2-29q2-1-2-8c-3-7-4-19-1-23 5-5 5-7 1-15q-5-12 0-23 5-8 2-11c-5-2-6-18-2-26 4-6 4-8 1-14q-6-12-1-23l3-7c0-3-3-10-4-10-3 0-1-15 2-20 4-7 4-8 0-15a20 20 0 0 1-1-20l3-5q3-3-2-13-5-9 1-20 5-10 0-16-6-10 2-24 4-8-2-16c-3-3-2-13 1-19 4-8 4-10 1-16q-6-9 0-20c4-8 4-8-2-8q-5-1-6 3m25 2-3 6q-3 7-1 13l2 6 2 4q3 0-2 9-5 11-2 20c4 7 4 17 1 17l-2 6q-2 9 3 19c1 3 1 11-1 12-3 2-5 14-3 18 6 12 6 13 2 20-4 8-3 23 2 27q3 1-2 10-6 10 0 23l3 7-3 7q-6 12-1 23 6 8 0 14c-4 6-4 17 0 24 4 6 4 6 0 13q-6 12 0 23c4 8 4 8 0 14q-6 12-1 24 4 7 1 13-6 12 0 25c3 6 3 6-1 12q-4 12 0 25l3 7-3 6c-3 8-4 19-1 23q6 8 1 15-5 11-2 19 0 4 6 3h5l-2-5q-3-7 2-17c4-7 4-8 0-15q-6-13 0-23l3-6-3-9q-6-11 0-21 5-9 2-13-9-11-2-24c4-8 4-10-2-21q-3-7 2-16t2-14q-7-14-1-26 4-6 0-13-6-11 0-23 4-7 0-15c-3-5-3-16-1-20q6-8 1-16-5-13 1-24 4-7-1-16t1-20c3-7 3-8 0-16q-5-10 1-22l3-7-2-5-3-6q-3-8 2-17 6-9 1-15c-4-10-5-13-1-21 4-9 4-12 1-17q-5-9 1-22 7-9-2-7-5-1-6 5m25-4-1 4q-6 11-2 22 4 12 1 15l-4 14 3 9c3 7 3 10 0 17-4 8-5 11-1 19 4 9 4 10 0 16q-6 13 2 28 1 2-2 8-6 14-1 24 5 7 1 13-6 11-3 20 7 12 3 16-8 17 0 27v12q-9 11-1 26c2 4 2 5 0 11l-2 5-1 3c-2 1-1 9 2 15 3 7 4 8 1 13q-7 13-1 25c4 7 4 8 0 15q-4 5-3 10l4 15q3 4-2 13c-3 5-3 14-1 19l2 4 1 3q3 3-2 11-6 11 3 26v8c-5 5-7 16-5 22q0 4 7 3h5l-2-4c-2-5-1-15 2-20q6-7 0-13-6-11 0-23c4-8 4-7 0-14q-6-12 0-23c4-7 4-8 0-14-3-6-4-16-2-20 5-10 5-10 2-17q-6-12 0-24c4-8 4-7 0-13q-4-12 0-24 6-6 0-15-4-9 0-22c4-6 4-7 0-16-3-8-3-12 1-20q5-9 0-17-6-10 0-20c4-8 4-9 0-18s-4-12 0-20c4-7 4-9 0-16q-4-10 1-21c4-6 4-8 1-15q-6-12 0-23l3-7-4-10-1-7q-1-7 5-16c1-3 1-4-3-15q-4-9 2-19 5-7-3-6zm22 7q-6 11 0 22 4 10 2 12c-5 3-7 17-2 25 3 7 3 8-1 14-3 6-4 17 0 23q5 7 0 14l-3 9c-1 5-1 7 3 17l2 5-3 7q-6 12-1 22 5 8 2 12-8 11-1 26c3 6 3 8-1 14q-6 10 0 22c4 9 4 9 0 15q-5 12 0 23c4 7 4 7 0 15q-6 12 0 23c4 7 4 6 0 14-4 9-4 14 0 23 4 8 4 7 0 13q-6 11 0 24l3 6-3 7c-5 9-4 15 1 29q2 2-1 8-7 15-1 25 5 8-1 16c-1 2-2 12-1 16q0 4 6 3 5 1 4-2-4-11 2-20 4-6-1-14-6-11 0-23c4-6 4-7 0-15a19 19 0 0 1-1-18l2-5c3-6 3-7-1-15s-4-13 1-23q4-5-1-13-5-12 2-24l2-5-3-7c-4-10-4-14 0-24l3-7-3-6-3-8q-2-6 3-17 4-9-1-16c-3-3-2-14 1-20 4-7 4-8 0-15q-4-11 0-20c4-8 4-10 1-17q-6-13 0-23 5-8 2-13c-5-6-5-21 0-25q3-4-1-15-6-10 0-21c4-6 4-6-1-17q-3-10 2-20c4-6 4-7 1-14q-5-10-1-19l3-6q3-5-4-5h-4zm29-4-1 5q-8 10-2 24c4 7 4 6 0 14q-6 11 0 24l3 6-3 6c-3 6-5 21-2 22l2 5c2 5 2 5-1 11q-7 13 2 27 2 3-1 8c-5 11-6 16-2 25q4 8 1 12c-4 11-4 17 1 29l1 5-3 6q-5 12 1 25l3 6-3 6q-7 13 0 25l3 6-4 8c-4 3-3 16 1 24l3 6-2 4q-10 15-1 26c4 6 4 6 0 11q-8 13-1 27 3 7 1 12-7 11-1 25c4 7 4 8 1 12-4 6-4 21 0 27l3 4-2 5q-5 11-5 16t6 4h5l-1-3q-2-5 3-15c2-3 3-10 1-12-5-5-6-16-1-25 2-5 2-6-1-16-4-10-4-12 2-27q2-1-2-9c-4-10-4-13 2-26v-8l-2-3-2-4a19 19 0 0 1 1-16l1-4q4-6 2-10c-4-5-6-18-4-22 5-10 6-11 4-15q-9-17 0-30 3-3-2-11a21 21 0 0 1 2-25c1-2 1-10-1-11-1-1-4-9-4-13l3-9q6-11 0-17-5-11 1-23 4-7 0-14-4-11 0-23 5-7-1-16c-1-4-1-19 1-20l2-5c2-4 2-4-1-10q-5-13 0-23 6-7 1-15a22 22 0 0 1 0-22q3-3 2-8 0-2-5-2-5-1-4 4m25-2-2 8c-4 8-4 12-1 22q3 14-1 17c-2 1-2 19 0 22q4 6 1 12-8 14-2 23 5 11 2 14l-3 5-1 5c-1 2 1 11 3 16 3 5 3 7-1 15q-5 13 1 23 3 4-1 13a26 26 0 0 0 1 25c2 0 2 6 1 9q-9 14-2 25 5 9 1 13-7 11-1 26c4 7 4 6 0 13-4 8-4 19 0 22 3 2 3 10 0 16q-6 11 0 22 5 8-1 16-5 11 1 22c4 7 4 7 0 15s-3 22 1 25q3 2-1 12-6 12 0 23c3 8 3 11-1 17l-2 9v5h10l-1-4q-1-5 3-11 5-10 2-13c-5-9-7-22-3-24l2-3 1-4q3-1-2-9-6-10 0-24l3-8-3-5q-6-12 0-24c4-8 4-8 1-14q-9-14-1-24c4-6 4-7 0-14q-6-11 0-24l3-6-3-5c-4-9-3-24 2-30q3-2-1-8-7-11-1-25c4-8 4-8 1-13q-6-12-1-23c4-7 4-9 0-15q-6-12 0-21c4-8 4-11 1-17-3-5-4-14-2-18l4-10q1-2-2-9-6-14 1-24 4-4 0-13l-3-7c-1-2 1-11 4-17 3-5 3-6 0-12s-4-16-2-20l5-13-5-1q-6 0-5 2m24 1-2 7-3 8q-3 7 2 16c4 6 4 7 0 15s-3 20 1 25c2 1 1 8-2 12q-4 11 0 21c4 7 4 9 0 14-4 6-4 18 0 26 3 5 3 6 0 13-3 6-3 16 0 22s3 6-1 15q-5 12 1 24c3 5 3 5-1 13q-5 11 1 24c3 7 3 6-1 14q-5 10 1 23l3 7-3 7q-6 13 0 24c4 5 4 5 0 12q-6 12 0 24 3 5-1 14-5 12 1 24c2 6 2 7-1 15-4 7-2 23 3 25q3 3-2 10-6 11 0 24 5 9 2 12-3 2-4 13l-1 6h9v-5l3-11q5-9-1-17c-2-3-2-16 0-19q6-8 2-13l-3-8-1-5c-1-1 1-12 3-15q4-4 0-12c-5-11-5-16 0-25 2-3 2-12 0-13l-2-6q-3-9 3-20 3-3-1-11-7-15 0-25 3-4-1-16l-3-10q2-9 4-10 3-6 0-13-7-13 0-24 4-7 1-13c-6-13-6-14-1-24 3-7 4-8 1-12-5-11-6-16-1-25 4-7 4-9 0-15q-4-11 0-22c4-8 4-8 1-16q-6-13 0-22 6-6 0-16c-4-7-4-11 0-20q6-9 0-17-5-10 2-21 7-12-3-11-6-1-5 3m25 1-1 6c-5 6-6 18-2 26 3 6 3 8 0 14-4 6-4 16 0 22 3 7 3 8-1 14q-4 13 0 24l3 6-3 7c-3 8-4 18-1 22 2 3 3 14 1 15l-4 12 4 13q3 4-1 14-6 12 1 24 4 4-3 18c-2 3 1 16 3 18q4 4 1 11-8 15-2 25 5 7 1 13-7 13-2 23c5 10 5 10 0 19-3 6-3 10 3 25q2 3-4 14c-2 4 0 19 3 21v10c-4 3-5 17-1 24q4 9 0 18-5 10 1 21l3 6-2 5q-4 9-4 14l-1 4h10v-4l3-11q5-9 0-15-6-7-1-18c4-11 4-13 0-20q-2-5-2-11c0-7 0-8 3-12q4-6 1-11-8-12-2-24c4-8 4-10 0-16q-6-10 0-22 5-11 0-17-6-10 0-20c4-9 4-9 0-15q-6-11 0-23c4-8 4-8 1-14q-8-15 1-26 3-4-1-12-7-13 1-24 3-6-2-14-5-10 0-22 6-8 1-16-6-9-1-19c4-8 4-9 1-18-3-10-3-14 1-22q5-7-1-16c-3-4-2-15 1-20q6-7 1-16-6-10 0-22 8-11-3-12h-5zm25-2-2 8c-6 12-6 17-2 25q3 7 1 13-7 10-1 24c3 7 3 9-1 17-3 5-2 16 2 21q3 5-2 14-4 10 0 22l3 7-3 8q-6 12 0 23c4 6 4 7 0 14-4 8-4 22 1 27q2 3-1 10-6 10-1 23c4 7 4 8 0 15q-5 12 1 23c3 6 3 7 0 14-4 9-4 14 2 27 1 3 1 3-2 8q-6 12-1 24c4 7 4 9 0 16q-4 10 0 22 6 11-1 17c-3 4-2 14 2 21l3 7-3 8q-4 14 0 23c4 6 4 6 0 14l-3 10v5h10v-5l2-10q5-7 2-11-8-15-2-27c4-6 4-7 0-15q-6-12 1-24 3-7-2-15c-2-2-2-17 0-20q6-6 1-13-6-13-1-24 6-9 1-16-6-12 0-23l3-6-3-6q-5-15 0-26c3-5 3-7-1-15-3-4-2-16 2-22l2-6-3-6q-6-13 0-25c4-6 4-6 0-13q-6-13 0-23c4-7 4-8 0-16q-6-10 0-21c4-7 4-9 1-16a23 23 0 0 1 2-24v-9q-9-15-2-25 5-8 2-15c-5-5-5-18-1-23q3-4 2-9 0-4-5-3-5 0-3 2m24 2-3 10q-6 10 0 20 5 7 0 16-6 10 0 21c3 7 3 9-1 15a25 25 0 0 0 2 25c2 4 1 5-2 11q-6 12 0 24c4 7 4 7 0 13q-6 12 0 25 3 7 2 9l-3 5c-3 7-2 18 1 25l3 5-3 5q-6 12 0 26l3 7-3 5q-6 15-1 24 6 6 2 11c-5 10-6 22-2 27s4 6 1 13q-6 12-1 22 4 9 1 13-6 17-1 24l2 5 1 2q2 1-3 11c-3 5-3 14-1 19 5 10 5 10 2 17s-4 17-2 21c6 9 5 9 3 14q-9 18 1 18h5v-5l2-10q4-9 0-16c-3-5-3-16 0-22q5-7-1-16-6-11 2-25c2-3 1-4-2-11-4-10-4-15 2-25q3-5-3-15c-3-7-2-19 2-22q4-4-1-14-3-6-3-10c0-4 3-12 4-13q4-4-1-14-6-12 0-21c4-8 4-7 0-17q-6-11 1-22 4-7 1-11-8-11-2-23 5-10 2-16-8-9-2-21 5-12 2-16c-3-3-5-14-4-15l1-3 3-7q3-8-1-15-6-8 2-23c3-5 3-6-1-12q-5-10 0-23c3-4 4-11 2-12-5-4-5-17-1-25q5-12-3-12-5-1-4 4m25 0q1 4-3 8-5 10-1 22 4 8 0 15-4 10 0 22 4 9 0 16-6 7 1 24v9c-6 11-6 16-1 28 2 5 2 5 1 9q-7 16-4 19l1 3 2 5q3 6-1 15l-3 8 4 15c2 0 2 7 1 10a23 23 0 0 0-4 19l2 7c4 7 4 7 0 15s-4 13 2 25q2 4-3 13c-2 4-3 12-1 16q8 14 3 18c-3 4-5 15-3 19q7 13 4 16c-4 6-7 21-4 22l1 4 3 4q3 2-4 16-2 7 1 17c4 8 4 9-1 20q-3 8 2 18c4 8 4 8 0 16l-3 10 1 5h9v-5l2-9c4-8 4-10 1-16q-6-12 0-23 5-9 0-15-7-10-1-22c4-8 4-10 0-16-3-5-4-17-1-20q6-7 1-17-6-12 0-25c4-6 4-5 0-12q-6-12 0-23c4-8 4-8 0-14q-6-11 0-23 6-9 0-15-6-11 2-26 3-4-2-13-6-10 0-21 6-6 0-15-4-12 0-21 6-7 1-16-6-10 0-22 6-8 0-17-5-8-2-15 8-13 3-19c-4-6-4-18 0-24q4-5 1-13-8-15-2-23 7-10-2-12h-4zm23 1-1 8-2 4-1 5q-2 7 3 17l2 4-3 7q-6 12 0 23 5 8-1 15-4 10 0 22c4 7 4 8 0 14q-4 12 0 23c4 7 4 8 0 14-4 9-4 14 0 23l3 9-2 6q-7 12-2 22c4 7 4 9 1 16q-6 10 0 21 5 12 1 14c-1 0-3 7-3 13 0 5 0 7 4 14 1 4 1 4-2 12q-6 12 0 23c4 6 4 7 0 13-4 8-4 19 0 25q5 7 2 9c-5 4-6 21-2 28 4 6 4 7 0 14q-6 12 0 24c4 5 4 5 0 12q-6 13 0 25c3 7 3 7 1 9l-1 4-1 5-2 6v4h10v-5l3-11c3-6 3-7-1-15-4-7-4-11 0-20s4-7 0-16q-6-11-3-16c6-11 6-14 3-20l-3-8c-1-5-1-5 3-18 2-5 2-7-2-15q-5-8 1-19c4-8 4-8 2-12q-5-13-4-17l1-4 3-7c3-6 3-7 0-11q-7-11-1-26c4-6 4-6 0-13q-5-11 1-24l3-6-3-6q-7-12 0-25l3-7-3-6q-6-12 0-24 5-9 2-11c-6-5-7-17-2-25 4-7 4-7 0-15q-6-12 0-23c4-7 4-7 0-15q-6-12 0-22 6-6 0-16-4-11 0-20l3-9V0h-10zm26-1-3 9q-5 11 0 23 5 6 0 14c-4 8-3 20 2 26q3 2-2 10-6 12-1 24c4 6 4 7 0 13q-5 12 0 24c3 6 3 8 0 14q-4 13 0 25c3 5 3 5-2 16q-4 12 2 20c2 2 2 9 1 11q-9 14 0 29l2 4-3 5c-4 7-4 21 0 27l3 4-2 6-3 8-1 3c-2 1 0 11 3 16s3 6-1 14q-5 10-1 19c5 9 5 9 2 15q-6 13 0 26c2 5 2 6 0 12l-3 8c-1 3 0 14 2 17q3 5 1 12-7 12 0 26 3 7 0 13c-2 1-4 12-3 13q0 2 5 2h4v-4l3-10c3-7 3-10-1-17q-5-11 0-22 5-9 2-13-7-10-1-24 5-7-1-16t0-22c4-6 4-7 0-13q-6-14 0-24 6-7 1-13-6-12-1-23c4-7 4-10 0-17q-5-8-1-17c5-9 5-13 2-20q-6-10 0-21 4-10 1-14c-5-5-5-16-1-23q5-8 0-17-6-9 0-20c4-7 4-9 1-15-4-7-3-18 0-24 4-5 4-5 1-11-5-11-5-16 0-27l2-5-3-7q-5-13 0-24c4-7 4-8 0-14-3-6-3-16 0-22l3-9V0h-10zm25 0q1 5-2 8-8 11 0 26l2 5-2 5c-6 11-6 16 0 27l2 6-2 4c-6 9-6 21-1 26 2 2 2 10 0 12q-8 10-1 26 4 7 0 11-7 11-1 24c4 8 3 10-1 18q-5 8 1 21 5 8 2 11-8 9-2 24c4 9 4 9 1 14-5 11-5 14 1 29q2 2-1 7c-5 12-5 17-1 26 4 6 4 7 0 15q-6 11 0 21c4 8 4 8 0 16q-6 10 1 25l2 4-3 8q-6 13 0 24c3 5 3 7-1 15q-4 9 1 21c3 6 3 8 0 16l-3 9v4h9v-5l5-13q3-2-2-11-5-11 0-24c4-7 4-6 0-14q-6-11 0-21c4-7 4-9 0-15q-6-12 0-25c3-6 3-7-2-18-2-4-1-14 3-19q5-6-1-12c-4-6-4-18 0-25 4-6 4-7 0-13q-4-12 0-23c4-7 4-9 0-15q-6-12 0-23 6-6 0-15-5-12 1-22 4-7 0-15-6-11-1-21c4-7 4-9 1-16q-6-13-1-21 6-6 2-16-6-10-3-16l3-7q4-8 0-13-8-12 0-24 4-7 0-13-6-10-1-20 7-18-3-17-4-1-2 4m24-1q1 5-2 11c-3 4-3 15 1 25 1 5 1 5-1 10q-8 13 1 28c2 4 1 4-2 11q-3 6-3 11t3 11c4 6 4 7 0 14q-6 11 0 23c3 7 3 8-1 15q-5 11-2 18 6 9 2 19-5 13 0 24c3 7 3 6-1 16-2 4-2 15 1 21q3 8-1 15-4 11 1 23 4 8-1 15c-3 3-2 16 1 22l3 6-3 6q-6 12 0 25l3 6-3 5q-6 13-1 25 5 8 0 15c-3 5-3 16 1 23 2 6 2 6-1 17q-4 8 0 18 4 11 0 17l-2 9v5h5q5 1 3-2l4-14c3 0 3-11 0-13l-2-5q-4-8 3-20l2-5-2-4q-8-15-1-26 4-7 1-12c-6-13-6-16-2-24q6-10 1-16l-3-6a15 15 0 0 1 2-14l1-3 2-4c1-4 1-6-5-17q-3-5 2-14c4-8 4-10 0-18l-3-10 3-10q6-10 1-16c-5-9-5-14 0-23q4-7 0-15-4-10 0-22c4-7 4-9 0-15q-5-12 2-24l2-5-3-7q-7-12 0-23c4-7 4-7 0-14q-4-12 0-23c4-7 4-9 0-16-3-6-3-16 0-22q6-7 0-15-5-10 1-21 8-13-3-14-5-1-4 3m23-2 1 3q2 3-1 9-6 14-1 24c4 6 4 7 0 13q-6 12 0 25l3 6-3 6q-6 13 0 25c2 6 2 7-1 15q-5 10 0 22 3 8 1 12-8 10-2 24c4 8 4 8 1 14l-2 5-1 3c-2 1-1 10 3 18l1 5q1 3-4 13a18 18 0 0 0 1 14l2 5c2 5 2 7-2 15q-5 9 1 20c3 6 3 8-1 17q-5 11 1 20 5 7 0 16-6 10 0 22c4 7 4 7 0 14-4 8-4 19 1 24q3 5-1 14a19 19 0 0 0-1 18l2 7c2 4 2 11 0 11a20 20 0 0 0-1 23c4 7 4 8 1 13-4 7-4 8-4 12v4h9v-5l2-7q6-6 1-16-6-14 0-23 6-8 0-15-6-10 0-22c4-6 4-8 0-15q-3-5-3-11l3-11c4-8 4-9 0-15q-6-10 0-21c4-8 4-11 0-17s-4-16 0-22q6-7 1-15-6-12-1-22c4-6 4-8 1-14-5-10-5-15 1-25q3-5-2-14-4-12 0-21 6-8 1-16-3-5-3-11 0-5 3-10 5-8-1-18-5-9 1-20c3-7 4-9 1-14q-5-12-3-17l3-8 3-6-3-7q-6-12-3-16l3-8c4-7 4-7 0-13q-6-11 1-23c3-7 3-7 2-11q-1-4-6-3zm27 2q1 4-3 9c-3 7-4 19 0 25q5 6 0 12l-2 5-1 4c-1 3 1 15 4 17q3 3-1 11l-3 8v12q6 13 3 17l-2 3-1 3c-2 2-2 13 1 19s3 6-2 18q-3 9 2 20c4 6 4 5 0 13q-6 10 0 23 4 8-2 18-3 8 2 20 5 9-2 16c-2 3-1 15 2 22l3 6-3 6q-6 14-1 24 4 9-1 17c-2 3-2 14 1 18l3 9-3 7c-3 6-3 18 1 24q5 6 0 12-6 14 0 26c3 5 3 5-1 14q-5 11 1 22 4 7 0 13l-3 10v6h4q5 1 4-3l4-13c3-5 3-6-1-13q-6-15 2-25c3-4 3-5-1-11q-5-11-2-20c4-10 4-12 2-16l-3-10-1-6 3-7c3-9 4-11 1-16-5-10-5-14 1-26l2-5-2-6c-6-12-6-16 0-26q3-7-1-12-6-9 0-24c4-7 4-7 0-14q-6-13 0-22c4-7 4-9 0-16q-6-10 0-23c4-6 4-8 0-14q-4-10 0-22 6-7 0-15-5-10 1-22c4-8 4-7 0-16q-6-11 0-22c4-6 4-8 0-14q-6-13 1-24 4-6 0-15l-3-9 3-10q6-14-3-15h-4zm24 1-3 13c-4 9-4 12 1 22l2 5-3 5q-6 13-1 24c4 7 4 8 0 15-3 6-3 17 1 24 3 6 3 6-1 14q-6 12 0 24l3 4-3 6c-4 11-4 17 1 27q4 7 0 10-9 12-2 26c4 7 3 6 1 11-5 12-6 16-1 26q5 6-1 15-4 11 0 21c4 7 4 9 1 16q-6 11 0 22l2 7-2 8q-6 12 0 23c3 7 3 8 0 14-4 6-5 22-3 24 5 5 5 6 2 12q-5 11 1 23c3 7 3 10 0 17q-6 10 0 20c3 6 3 8 0 15l-3 11v4h9v-4q0-4 3-10l3-8-3-7q-6-11 0-22c4-7 4-8 0-16q-6-11 0-21c4-7 4-9 0-17q-6-11 0-20 5-8 0-16-6-11 0-22c4-8 4-8 0-15-4-8-4-13 2-26 2-4 1-5-2-11q-6-12 0-21 5-9 2-14c-5-5-6-17-2-25q6-7 0-15c-4-9-3-21 2-25 2-1 1-8-2-13l-2-10 2-10q5-10 2-14c-5-5-5-16 0-25q3-7-1-15-5-10 1-22l3-7-2-5q-8-16-2-24l3-6 1-4-3-7q-6-11 0-23t-3-12q-4-1-3 4m24-3q3 3-1 10-6 15-1 26 3 6-1 15-5 10 0 22l3 6-2 5c-5 12-5 19 0 29q2 4-2 12-6 11 0 21c3 7 3 9-1 16-2 5-3 14-1 18 5 9 5 10 1 20l-3 8 5 16q2 4-1 12-3 6-3 11 0 6 3 11c3 7 3 9-1 15q-4 10 0 22c4 7 4 7 1 14-3 6-4 17-2 21l2 4q3 7-1 14-4 11 0 23c4 6 4 6 0 14q-7 12 0 22c3 7 3 8 0 15q-5 12 0 23 6 6 1 13-3 5-3 13 0 7 3 11 5 7 0 13l-4 10v6h10v-5l1-8c6-10 6-8 2-16q-6-11 0-23c4-6 4-7 0-14-5-11-5-13 0-24q4-6 0-13c-4-6-3-18 0-25q5-8-1-14-5-9 1-22 3-9-1-14-7-8 2-26l2-5-3-6q-6-11 0-23c4-7 4-8 0-16q-6-11 0-23l3-6-3-6q-6-13 0-24c4-6 4-8 0-14q-6-11 2-26v-9q-8-12-1-24c3-7 3-10-1-17-2-5-3-16-1-18l5-11-5-12q-3-7 2-17c4-7 4-9 0-16q-6-14 2-23l1-7V1l-5-1q-6 0-4 1m25 3q1 5-2 8-8 14 1 28 2 2-2 10c-4 8-3 22 1 27q3 1-2 10-4 11 0 23c4 8 4 8 0 13q-6 12 0 25l3 6-3 6c-4 7-4 19-1 24s3 7 0 15q-4 12 0 23 4 8 1 12c-5 5-5 18-1 25q3 8 1 12l-3 7q-3 11 3 20v11c-5 6-5 22-1 25 2 2 2 9 0 13q-7 12 1 27c1 4 1 4-2 11-4 9-4 12 2 26q2 5-2 13-5 10 1 22 3 8-1 15c-2 4-2 15 1 21q4 9 1 13-2 2-5 14-1 4 5 3h5v-4q0-5 3-10c4-7 3-10-1-17q-5-9 1-21 4-12 1-14a23 23 0 0 1-1-22l2-9-2-8c-4-7-3-20 1-25 2-1 1-8-1-12-5-8-3-23 1-25 2-1 1-8-2-13q-5-10 1-21c3-7 4-8 1-12l-1-7-1-6q-4-3 1-13 5-7 0-15-6-11 0-21 5-9 2-14c-5-7-6-18-2-24 3-4 3-12 1-15-5-5-4-17 1-24v-12q-7-12 0-26 3-5 0-11c-4-8-5-19-1-24q4-5 1-13c-3-7-4-17-1-22 3-8 4-11 1-17q-6-11 0-23 7-11-3-12h-4zm25-1-3 10q-6 12 0 24 3 7-1 14c-3 7-4 23 0 23 2 0 2 8 1 11-6 11-6 15-2 23q3 11 1 14c-4 6-5 18-1 25q4 9 1 14c-4 2-5 17-1 24q5 8-1 15-5 10 0 23 5 9 2 10l-1 2-2 5a22 22 0 0 0 2 22q4 5-1 11-4 10 0 25c2 6 2 6 1 11q-6 16-2 23 4 6 3 11c-6 13-6 17-2 28l3 8-3 5q-5 11-1 24c4 9 4 9 1 15q-5 12 0 24l3 6-3 7q-6 12 0 24 6 7 1 13l-4 10v5h10v-5q0-6 2-7l1-3 2-3c1-3 1-4-3-13q-5-9 0-20c4-7 4-9 0-16q-4-11 0-23c4-6 4-7 0-14q-4-12 0-23c4-6 4-7 1-13q-9-13 0-27c2-3 2-3-3-17q-3-8 3-20 3-3-1-13-5-10 1-22 4-9-1-14c-3-4-3-16 0-23 4-7 4-8 0-15q-5-12 1-22c4-6 4-7 0-14q-6-11 0-23c3-7 3-7-1-18-3-7-1-20 3-22v-9c-5-3-6-16-2-24 4-7 4-10 1-17q-6-11 0-21c4-7 4-7 0-17-4-8-4-11 0-18q7-16-2-16-5-1-3 3m23 2-1 6c-4 3-5 15-2 22 4 9 4 12 0 18q-5 11 0 23c3 6 3 6 2 10-4 10-5 12-5 17l3 10c3 7 3 7-1 15q-4 10 0 20c3 9 3 9 1 15q-6 13 0 25 3 7-2 15c-2 4-2 17 1 23 4 5 4 6 0 12q-6 12 0 25 4 6 1 9l-4 11q-3 5 2 15c4 8 4 9 1 14-5 9-5 15 1 27q2 4-1 13c-5 9-5 12 0 23q3 6 1 10-5 11-5 15c0 4 2 11 4 12q3 3 0 11c-5 11-5 15-1 25l3 7-2 5q-6 18 0 26 3 6 1 12-5 8-5 13-1 4 4 3 6 1 5-4l4-9q4-10 1-15-7-9-2-22 5-9 2-15-7-11-1-24c2-4 3-11 1-13-4-2-6-16-2-23 4-8 4-9 1-15q-7-17 1-26v-11a22 22 0 0 1-2-22c4-8 4-11 0-17q-4-9 0-20 6-8 0-18-4-10 0-21c4-7 4-9 1-16q-6-10 0-20 4-10 1-16c-5-9-5-14-1-23l3-6-1-5c-6-14-6-17-1-26 4-7 4-7 1-13q-6-12-4-18l5-11q2-3-1-9-6-12 0-22c4-7 4-8 0-15q-6-11 0-22 8-15-3-15h-4zm25-2-2 10q-6 12-1 24 5 9-1 17c-2 2-2 14 1 20 2 6 2 6 1 11-5 14-6 15-3 21 3 10 4 13 1 20q-5 14 1 22 3 5-1 15c-4 9-4 14 1 24 2 4 1 5-2 13q-5 13 0 22 5 6 2 11-8 14-2 26c4 7 4 7 1 14-4 9-4 21 1 26q2 3-1 11-6 10-2 22 5 11 2 14c-4 5-5 16-1 25q4 7 2 10c-6 12-6 18-2 27l2 7-2 7q-6 14 0 23 4 8 1 12c-5 6-5 19-1 28 4 6 4 5 0 13l-3 10v4h9v-5l3-10c4-7 4-7 0-16q-6-13 1-22 4-6 1-10-7-14-1-26 5-8-1-15-6-10 0-22 6-8 0-15-5-12 0-23 6-7 0-15c-4-7-3-23 2-25 2-1 1-8-2-12-2-5-3-15-1-19 5-9 5-11 2-18-4-8-3-21 1-26q3-4-1-12-6-12 0-22 5-7-1-15-5-11 1-23c3-6 3-7-1-16q-5-8 1-19 5-9 2-14c-5-9-5-12-3-18l3-7c2-2 1-10-1-15q-4-10 0-21c4-7 4-9 0-16q-5-11 1-22 8-12-4-13h-4zm24 2q1 6-3 10-5 10 1 22c3 5 3 7-1 14q-6 13 2 25 3 4-3 15-4 8 1 20c3 6 3 7-1 15q-5 10 1 21l2 8-2 7c-3 5-4 15-2 19 5 9 5 11 1 17q-4 11 0 24c4 8 4 8 0 14q-4 9 0 24a11 11 0 0 1 1 11l-2 6q-4 9 2 22l2 5-3 6q-6 13 0 25l3 6-3 7q-6 13 1 25l3 5-3 5q-8 12-3 23 5 12 2 16c-4 6-4 20-1 24q6 5 1 14-7 12 0 24 3 8-1 14c-1 2-3 10-2 12q-1 3 5 2 6 0 4-1c-1-2 1-11 4-15q4-4 0-12l-3-7-1-3c-1-2 1-11 4-15v-13q-7-9 0-25 3-6 0-12c-4-6-4-20 0-25v-12q-8-9-2-23 5-9 2-15-8-11 0-26 3-3-2-14-4-10 2-21l2-7-3-8-3-11v-3l1-2 3-8q4-7-2-15c-2-4-2-15 1-20q5-8 0-16-5-10 0-22c4-6 4-8 1-14q-6-12 0-22c4-7 4-9 0-14-4-7-4-19 0-24q6-6 0-15-5-10 1-21c4-6 4-10-2-20q-3-7 2-16 7-15-2-15h-5zm23-3 2 4q2 4-1 10c-4 4-4 18-1 25q4 5 0 14-6 12 0 22 4 9 1 12l-2 3-2 4c-2 3-1 14 2 20q3 6-1 14c-2 5-2 20 0 23 3 3 3 13 0 13s-3 18 0 25q3 4 0 11-6 12 1 26 2 6-1 12c-5 7-4 18 0 24q5 4 0 13-5 13-3 16l1 3 1 4q5 6 0 16l-3 12c2 12 2 15 1 21-3 8-2 19 1 25q6 8 0 17-5 10 1 22c3 7 3 9-2 18-2 4 0 21 3 23q3 1-2 9-6 13 0 25l3 6-2 6-4 9v3h5q6 1 5-3l3-9q6-8 0-13c-4-4-4-18 0-23 4-6 4-7 0-15q-6-12 0-23c4-5 4-7 0-14q-6-10 0-22l3-7-1-5-3-7c-2-2-2-15-1-20q3-12 1-17c-3-4-2-13 1-19 4-6 3-16-1-18-2-1-1-14 2-20l3-7-3-6q-6-12 0-24 6-9-1-16-5-10 1-21c4-8 4-8 0-15l-3-11c0-5 0-6 4-13q4-7 1-11-9-11-1-25 5-7 0-15c-4-5-3-15 1-22 3-6 3-8-1-16-3-4-2-14 1-21q6-8 0-14-6-9 1-22c4-7 4-8 1-14q-1-5-7-4-6 0-4 2m25-1c3 9 4 8 0 15q-6 13 0 25l3 6-3 6c-4 7-4 17-2 22q5 7 0 19l-3 8 3 10 3 10-2 4q-8 17 1 27 3 5-3 15-5 9 1 20 5 7-1 15-4 10 0 21 5 9 2 12-8 14-2 27c3 6 3 7-1 16-3 4-2 16 1 21q5 7 2 10c-5 3-7 19-3 29l2 8-2 7q-5 8 1 21c2 7 2 9-2 16-2 4-1 16 2 22q3 8-1 14-7 9 1 24 3 5-1 12l-2 6-1 3q-3 2 3 16c3 5 3 5-1 15s-4 9 2 9q6 1 5-2l3-8q5-10 1-16-7-12 1-24 3-5-4-19v-10c7-14 7-14 3-22q-6-11 0-23c3-7 3-7-1-17-3-6-3-15 1-19 2-2 1-9-1-13-3-6-2-18 2-25l3-6-3-7q-6-12-1-23 6-9 1-17-6-10 0-22c3-6 3-6-1-14q-5-11 1-23l3-7-3-7q-7-17 2-26 3-2-2-11-4-12 0-22 5-8 2-14-7-12-1-22t1-16q-5-12 0-24c4-6 3-7-1-16q-5-10 2-20 7-15-6-17zm25 0 2 4q3 5-1 10-6 10-3 21 5 12 1 18-6 10-1 21c4 8 4 10 1 16-5 9-4 20 0 25q2 4-1 14-6 11 0 22c3 6 3 6-1 13q-5 12 1 23c3 7 3 8 0 13q-6 10-2 22c4 9 4 10 0 18q-5 12 1 23l2 4-3 9a22 22 0 0 0 1 24q3 6-1 13c-4 6-4 18 1 25q3 6-1 14-6 12 1 22v13q-5 8-4 12l4 14q3 5-3 18v14l2 4 1 3v8a24 24 0 0 0-2 25c4 6 4 8 0 16q-6 11 2 10 6 1 5-3l3-9c4-7 4-6 0-14q-6-12 0-22c4-6 4-8 0-16q-6-11 0-20t0-16q-4-13 0-22c3-5 4-12 2-13-2-2-5-10-5-14l3-11c4-7 4-8 0-15q-5-11 1-23c4-7 4-7 0-15s-4-12-1-20q6-10 1-16-6-14 1-26c2-4 2-6-2-14q-4-10 0-19c4-7 5-9 1-16q-5-11 1-23l3-7-3-6c-4-8-4-19 0-24q6-7 0-15-5-11 1-22c3-7 4-8 2-12-6-11-6-16-2-24q6-8 0-17-5-9 1-21 7-15-5-17zm24 0 1 3q4 4 1 11c-6 11-6 16-1 26q3 6 0 11-7 13-1 26 5 7-1 13c-3 6-4 17 0 23q4 7 1 12-6 12-3 22c4 11 4 11 1 17q-5 12 0 23 4 7 0 15c-4 7-4 19 1 24q3 4-1 13-6 12 1 26v8c-6 11-6 17-2 27 4 7 4 6 0 13l-3 11c0 5 0 7 4 16q3 6-1 11c-4 5-4 17-1 23q5 8 2 10c-4 5-5 18-1 26l2 8-2 7q-6 13 1 28 2 2-1 8c-3 8-4 18-2 22q5 10 1 15-5 13 1 13c7 0 13-20 8-26a30 30 0 0 1 3-26q3-1-2-11l-3-12q0-6 3-11c4-7 4-6 0-13-3-6-4-20-1-22a10 10 0 0 0 1-15l-2-6q-3-6 2-18c4-7 4-9 0-15q-4-12 0-22c4-6 4-8 0-15q-5-12 0-22 6-7 0-16-4-11 0-22c4-7 4-8 1-15q-6-11 0-22c4-9 4-8-2-19q-3-7 4-21v-11q-8-10 0-27c2-4 2-4 1-8-6-13-6-16-1-27a8 8 0 0 0 1-10l-2-5c-3-6-2-16 1-22q6-6 0-13c-4-8-3-24 2-26 2 0 1-8-1-11q-1-4-6-3zm25 0 1 4q4 2-1 12-6 12 0 25l3 5-3 5c-4 8-4 20 0 26v12q-6 7 0 28c1 4 1 4-1 10q-8 14 0 26 3 4 1 8-9 15-3 26c4 7 4 7 1 15q-6 13-1 22 2 3 1 5l1 1q3 0-2 8-6 12 0 23c4 8 4 7 0 13q-6 12-1 25l3 8-3 6q-5 14 1 24 3 6-1 15c-3 6-2 16 1 22q3 6-1 14c-2 4-2 20 0 22q4 6 1 13-5 12-1 20 8 14-1 25-3 6 1 15 5 9 0 17l-2 7q-1 5 4 4l3-1 5-13q3-3-1-13-6-11 0-21l3-7-3-8-3-9c0-3 3-14 5-16v-11q-8-11-2-23 5-10 2-14-6-7-3-18l2-7q3-4 0-13-5-12 0-25 4-7 0-13-5-10 1-25 5-6-1-13c-3-6-3-16 0-22 4-7 4-7-1-18q-3-9 2-20 5-9-1-16c-3-3-2-13 1-20q5-9 2-12-9-14-1-26l3-7-2-5-3-6c-2-3-1-13 2-17 4-7 4-11-2-22a17 17 0 0 1 3-17q4-8 1-13-8-10 0-25c4-8 1-16-6-16zm24 0 2 3q3 5-4 19c-2 4-1 7 4 21v6q-9 16-2 27 5 10-2 17c-3 3-2 15 1 20 4 5 4 7 0 14q-7 12 2 28c1 3 1 3-3 11-3 5-3 15 0 21q4 8 1 14c-5 6-4 19 0 26 1 2 1 9-1 12-4 6-4 19 1 25q3 3-2 14c-4 8-4 12 2 24q2 4-1 10-6 10-3 19l3 7v12q-7 13 0 26c3 5 3 5-1 13l-3 10 4 13q4 5-3 18c-2 4-1 13 2 19q4 8 1 11c-3 3-5 19-3 21l4 13-2 6-3 8-1 3h5q6 1 5-3l3-9c2-6 2-8-1-15q-5-10 1-21c3-7 3-8 0-15q-6-12 0-23c3-6 3-8-1-15-3-5-2-18 1-23l3-4-1-5-4-8q-3-9 2-18 6-9 0-15-5-10 0-23c4-7 4-9 0-15q-5-11 1-21 5-9 0-17-6-10 0-21c4-8 3-10-1-17q-5-8 1-20c3-8 4-10 1-14q-7-13 0-26 5-5-1-15-4-10 2-21c3-6 3-7-1-15q-5-12 1-23c4-5 4-7 0-14q-6-10 0-22c4-6 4-8 0-14q-5-11 1-22c3-7 4-9 1-14q-1-5-6-4z"
        mask="url(#16282281824-posters-1720553956018-horizontal-mask)" itemprop="light" fill-opacity="0.90"
        fill-rule="evenodd" stroke="none" fill="url(#16282281824-posters-1720553956018-vertical-light)"></path>
      <!---->
      <path id="16282281824-posters-1720553956018-regular"
        d="m14 2-3 7q-5 11 1 21 5 9 0 15-6 9-2 20c4 9 4 11 1 17-4 5-4 15-1 22s3 9 1 15c-4 6-4 16-1 22q4 8 0 14-6 13-1 22 5 10 1 16c-4 4-4 16 0 24 3 5 3 7-1 14q-6 12 0 22c3 7 3 7-1 16q-5 11 1 21 5 8 0 15-6 12 0 26 3 3-1 11-6 11 0 21c4 8 4 8 0 16q-6 12 0 23l3 6-3 7q-6 14-1 24c4 6 4 7 0 14q-6 12 0 24l4 7-2 4q-6 8-4 18l1 6h9l-2-4q-2-8 3-17c3-7 3-9-1-15q-4-11 0-23c4-7 4-7 0-15q-5-11 1-23l3-6-2-6q-7-13-1-25l3-7-3-7q-6-12 0-22l3-6-2-5-2-7c-3-3-2-12 1-18q6-9 0-16-6-11 0-22c4-8 4-8 0-16q-5-11 0-21 6-8 0-16-5-10 1-23l3-6-3-8c-4-10-4-13 0-22 4-8 4-8 0-17q-5-8 1-20c4-8 4-9 1-15q-5-10-1-20c4-10 4-10 1-15q-5-12 0-23c3-8 3-9 1-15q-6-12-1-22 8-10 0-9-4 0-5 2m23 3q-6 12-2 22l4 8-3 9c-4 10-5 14-2 20 4 7 4 9 1 17-4 9-4 14 0 23q4 7 1 10c-5 13-6 18-2 26 4 6 4 7 0 16q-6 11 0 22l3 6-3 8q-6 13 0 24c4 6 4 7 0 12q-6 11 0 25l3 7-3 5q-6 12-1 25l3 6-2 5q-7 14 0 27 3 6-2 14-5 10 1 22 4 7 0 13-7 12 0 23c3 6 3 8-1 15q-4 12 0 24 5 8 1 11-8 11-1 25l3 7-3 7c-5 12-4 23 4 23q5 2 1-6-2-4 3-16 4-11 1-14c-5-2-5-15-1-24 4-8 4-7 0-15q-6-9 0-20c4-8 4-10 0-16q-4-12 0-24c3-7 3-7-1-16q-5-10 1-21c4-6 4-7 1-14q-7-10-1-21 5-10 1-15-8-12 0-25 4-6-1-14-5-12 1-22 4-8 0-14-5-12 0-23 6-8 0-15-5-11 1-24l3-6-3-7q-6-11 0-21 6-9 1-15c-2-5-4-14-3-16q9-15 4-21c-2-3-4-11-4-14l3-9c4-7 4-9 1-15q-5-11 0-21 6-9-1-8-4-1-6 5m26-3-1 3q-6 12-1 23c3 8 3 9-1 17q-6 10 0 19c3 8 3 11 0 17q-6 9-1 21c3 9 3 10 1 15q-7 11-1 23c4 8 4 8 0 15q-6 11-1 22c4 8 4 8 1 14-5 10-5 16 1 26l2 5-4 8q-6 12 0 22 5 7-1 15-5 11 1 23c3 7 3 7-1 15q-4 10 0 21c4 7 4 9 0 16-4 8-4 11 2 25l1 4-3 7c-4 9-4 14 0 23l3 7-3 7c-4 9-4 14 0 24l3 7-3 6q-6 13-1 23c4 7 4 8 1 14q-5 10-3 18l1 5h5q5 1 4-2-5-10 1-21 5-6-1-14-5-13 0-23 6-6 0-14-4-12 0-23c4-6 4-8 0-15q-5-11 1-23c4-7 4-6 0-13q-6-12 0-23 5-7 0-15-5-9-1-19c5-14 5-12 1-18q-6-10 1-24c3-5 3-4-2-17q-4-10 2-19c3-6 3-8 0-15q-6-12 0-22c3-7 3-9-1-16q-4-9 2-22 3-7-1-15-4-11 2-23c3-6 3-6-1-13l-3-10c0-5 0-5 5-15l2-4-3-8c-4-10-4-14 0-21q6-9 1-16-5-11 0-23 6-7-1-6-4 0-5 2m24 2c-5 11-5 14-2 24 3 9 3 10 0 15-3 6-4 16-2 20 5 9 5 10 2 18q-6 12-1 21t0 16q-6 11-1 22c4 7 4 7 0 15q-6 11 0 22c4 7 4 7 0 13-4 9-4 13-1 21 4 9 4 12 0 18q-5 12 0 22t2 14c-6 4-6 16-1 26l2 5-3 6q-6 13 0 23c4 7 4 8 0 14q-6 13 0 26l3 5-2 5q-7 14 0 28 3 4-2 13c-4 8-4 11 0 21l3 9-2 5q-7 13-1 24c5 9 5 9 2 13l-5 14q-1 2 1 6 0 5 6 4 5 1 3-2-3-10 2-22l3-7-3-6q-7-12-1-22c4-9 4-8 0-16q-6-12 0-23c4-6 4-7 0-14q-6-10 0-22l3-8-3-7c-4-9-4-12 0-22 4-9 4-8 1-13-5-11-5-17 1-27l2-5-3-7q-6-12 0-25c3-5 3-7-1-14-3-5-2-15 1-22l3-6-2-6q-6-14 0-25c3-6 3-7 0-14q-6-12 0-22c4-7 4-8 0-15-4-9-4-13 0-21s4-8 1-16q-5-11 0-23c4-6 4-7-1-18q-3-11 2-20c4-4 4-6 1-14q-6-10-1-20c4-8 4-8 0-8q-5-1-6 4m24 2c-5 12-5 14-1 25q4 8 1 12c-5 4-6 16-1 25 2 6 2 8-2 14-3 6-3 17 1 23q5 6-1 14-4 12 0 23l3 7-2 5c-5 10-5 16-1 27 2 4 2 4-1 10q-4 14 0 25c4 6 4 6 0 14q-6 10 0 22c3 7 3 9-1 17q-5 10 1 22c3 6 3 7 0 14q-6 13 0 22 5 8-1 15-6 10 0 22c4 9 4 8 0 16q-6 13 2 24 3 4-2 12c-4 8-4 14 1 26l2 4-3 7q-6 13 0 24c3 6 3 7-1 15-4 10-3 20 4 20q6 0 3-2c-2-2-1-14 2-19 3-7 3-9-1-15q-5-12 1-24c3-6 3-5-1-15l-3-8 5-15q3-4-2-13-5-11 1-22c4-8 4-7 0-15q-6-12 0-23c4-7 4-7 0-14q-6-11 0-23c4-7 4-6 0-15q-6-12 0-23c4-6 4-6 0-15-4-8-4-11 0-21 4-7 4-9 0-16q-4-9 0-19c4-9 4-10 1-18q-6-12 0-22c4-7 4-7 1-13q-4-13 0-24c4-6 4-8 0-14q-4-11 0-23c4-6 4-8 1-15q-6-9 0-21c4-8 4-9 1-15q-4-10 0-22c4-8 4-8-1-8q-4-1-6 6m28-3q0 3-3 7c-3 6-4 17 0 23 3 5 3 7-1 15q-6 12 1 25c3 4 2 5-1 11-3 7-4 18 0 23 3 6 3 8-1 15a21 21 0 0 0 0 20l2 5q3 2-2 14-6 9 0 20c3 7 3 7 0 15q-4 12 0 23c4 7 4 7 0 13-4 7-4 18 0 25 4 6 4 6 0 14q-6 12 0 23l3 7-3 8q-6 11 0 22 6 9 1 13-9 13 0 26 4 5 2 7l-4 7q-4 10 0 21 6 9 1 15-6 12 0 24l3 7-3 5q-6 13 0 25c4 7 4 8 0 15q-3 6-3 11v5h9l-1-5q-1-4 3-12c4-8 4-8 0-14q-6-11 0-24l3-5-3-7q-5-15 0-27c3-6 3-7 0-13q-6-9 0-22 4-10 1-12l-3-6c-2-8-2-13 2-23 2-4 2-4-1-10q-5-13 0-24c4-8 4-7 0-14q-5-13 1-25c3-6 3-7-1-13q-4-10 0-22 6-9 1-16-6-9 0-22c3-8 3-8-1-16q-5-11 1-22c4-6 4-8 0-14q-4-10 0-22 6-7 0-15-5-10 1-23 4-10 1-14c-4-5-4-16 0-23q4-7 1-13-6-12-1-23 6-11-1-11-5-1-4 3m25-1-2 7q-7 13-1 25 3 6-1 15-6 12 0 22 5 6-1 15-5 13 0 22c4 5 4 7 0 14q-4 11 0 23c4 7 4 7 0 14q-4 11 0 23c3 6 3 8 0 14-3 5-4 15-3 18l4 8 2 5-3 6q-6 13 0 25l3 6-3 6q-6 12-1 24c4 6 4 8 1 14-4 8-5 20 0 22 2 1 2 10 0 16-4 7-4 18 0 24q4 4-1 13-6 11 1 24l3 7-2 4q-9 13-1 27 4 5 0 12c-5 10-4 16 0 26 3 6 3 7-1 17q-6 11 2 12h4v-4q-2-5 2-10 5-10 1-16c-4-10-5-15-1-23s4-9 0-16q-4-10 0-24l3-7-2-5c-5-9-5-21 0-25q4-4-1-14-6-12 0-22c4-8 4-8 0-15s-3-19 1-24q3-4-1-14c-4-9-4-13 1-23l2-7-2-5c-5-10-5-10-3-17l3-10c3-5 3-6-1-12q-5-12 0-22c4-8 4-9 1-16q-6-12 0-22c4-7 4-7 1-13q-8-14 0-26 4-4 0-12-7-16 0-24c3-4 3-6 0-14q-6-12 0-22 6-7 1-16-6-9-1-19l3-9 1-4h-4q-6 0-4 2m24 0-3 9q-6 13 0 23c4 6 4 7 0 13q-5 12 0 24c3 7 3 9-1 16q-6 9 0 20 5 8 0 15c-3 5-3 18 0 24q4 7 1 12-7 11-1 25c2 5 2 6 0 12q-8 16 1 27 3 2-2 12-6 12 2 25 3 4-2 13a22 22 0 0 0 0 22c4 8 4 8 0 17-4 8-4 12 0 20q6 8 1 14c-5 8-4 21 0 25q2 5-1 14-6 11 0 22c4 7 4 7 0 15q-6 11 0 22 5 9 1 14c-4 8-4 19 1 25q2 5-1 14l-3 10v6h7v-5q0-5 3-10c4-7 4-9 0-16q-5-11-2-17l4-9 1-4-3-6q-6-14 0-26c4-6 4-5 0-13-4-9-4-14 0-23l3-7-3-8q-6-12-1-22c4-6 4-8 1-15a23 23 0 0 1 0-21c3-8 3-11-1-18q-5-10 1-22c3-5 3-7-1-14q-5-12 1-22l3-7-3-8q-6-12 0-21c4-8 4-9 0-17l-3-11 3-9c4-7 4-10 0-17q-5-11 0-20c4-7 4-9 1-17q-6-14 1-22 3-5 0-14c-4-9-5-13-1-21 5-10 5-11 1-17q-5-11 1-23 7-10-2-10-5 0-4 2m24 2q1 3-1 7-7 13-1 27 4 5 0 10-7 11-1 24l3 8-3 6q-6 12 0 24l3 6-3 7c-3 7-4 17-2 21q6 7 1 16-4 11 0 24l3 7-3 7c-4 9-4 14 1 26l2 5-3 7q-6 12 0 22c4 6 4 8 0 14q-6 12 0 23c4 7 4 7 0 14q-6 12 0 24c4 8 4 9 0 14q-6 9 0 23l3 8-3 6q-6 13 0 24 5 6 0 14-6 12 0 23 5 10 0 16c-4 6-4 16 1 22q5 6-1 14l-2 10-1 5h9v-5l2-10c4-6 4-8 0-14-4-8-4-13 0-23l3-8-3-6c-3-6-4-21-1-23q5-6 1-14-6-12 0-26l3-6-3-5q-6-14-1-26 4-7 0-16-5-10 1-21l3-6-3-6q-6-14 0-24c3-6 3-8-1-15q-5-11 1-23 5-7-1-15c-2-4-2-17 1-22 3-6 3-8 0-14q-6-13 0-24c4-6 4-8 0-14q-4-10 0-22c4-6 4-8 1-15q-6-12 0-22c4-7 4-7 0-17-4-9-3-12 1-21q5-8-1-15c-3-6-2-17 2-23l2-7V0h-9zm25-1q0 4-3 10-6 11 0 21c3 7 3 9 0 15q-6 10 0 23l3 7-3 7q-6 12-1 22c4 8 4 9 1 15q-8 12 0 25 3 5-2 15-4 10 2 22l2 6-2 4c-6 9-6 15-2 26l3 8-2 5c-4 11-4 12-3 17l3 9q3 6 0 11c-5 9-5 15 0 27q3 6-1 12-4 7-1 19c4 11 4 11 1 19q-6 11 0 22 5 8 2 12-9 12 0 29c2 4 1 5-2 11q-6 10 0 21c4 9 4 9 1 16q-6 13 0 24l3 7-3 6-3 11v5h4q5 1 4-4l3-11 3-7-2-6q-8-15-1-26 4-5-1-14-6-11 2-25v-8l-4-8q-3-7 2-18c4-8 4-8 0-15q-6-11-1-22c4-7 4-10 1-17q-6-10 0-21c3-8 3-8 1-11q-6-14-1-25 4-9 1-14-7-9 0-26c3-6 3-6-1-14q-6-10 0-21c4-8 4-9 0-15q-6-12 1-24l3-7-3-7c-5-10-5-13 1-26l2-4-3-6q-4-13 0-23c4-6 4-8 0-15q-5-12 1-23c4-7 4-7 0-15q-4-10 0-21 6-12-1-13-5-1-4 3m25-1-3 9c-3 7-4 19 0 24q5 6 0 12-6 12-2 22 6 10 1 19a22 22 0 0 0 0 20c3 7 3 9 0 15q-5 11-1 21c4 9 4 9 1 16-5 10-5 14-1 22 4 9 4 8 0 18-4 9-4 13 0 21 4 6 4 7 0 13q-6 12 1 25l3 6-4 8q-6 12 0 22l3 6-1 5-4 8q-3 9 2 19 6 7 1 13-6 12-2 21c4 8 4 10 1 17q-6 14 0 21 5 7 0 17c-4 9-4 14 0 23 4 8 4 8 0 16q-6 11 0 20l3 8-3 9-3 10v4h9v-5l2-10q6-7 0-16-5-10 0-22c4-7 4-7 0-14q-6-11 0-23c3-7 3-9-1-15q-4-11 0-22c4-7 4-9 0-16q-5-12 1-24l3-6-3-6q-6-12 0-23l2-8-2-8q-3-5-3-11 0-5 3-11l2-7-2-8q-6-10 0-23l3-6-3-6q-6-13 0-24c4-7 4-7 0-15q-6-12 0-23c4-7 4-8 0-15q-6-10 0-21c4-7 4-10 0-17q-5-9 1-20c4-8 4-8 0-17-4-8-4-12 0-20q4-9 1-16c-3-5-3-17-1-21q7-12-2-13-4 0-2 2m24 2-2 9q-7 11 0 24c3 4 2 5-1 12q-6 12 0 22 5 9 0 15-6 8-1 20l3 8-3 8q-6 12 0 25l3 6-3 6q-4 13-1 23c4 7 4 9 1 15q-5 13 0 25l3 6-2 4c-3 6-5 14-4 16l1 4 3 7c3 5 3 6-1 12q-4 10 0 24l3 7-3 6c-4 10-4 15 0 24l3 7-3 6q-6 13 0 26l3 5-2 4c-6 12-6 19 0 29l3 5-3 5q-7 12-3 21c4 11 5 13 3 16-5 10-6 16-1 27l3 6-3 7-3 11v5h8v-4l3-11c4-8 4-8 0-16q-6-11 0-23 5-8 0-13-7-10 0-25l3-7-4-8q-6-10 0-21 5-7 0-15-5-10-1-19c5-13 4-12 1-19q-4-11 0-22c3-7 4-8 1-13-5-10-5-15 1-26 2-5 2-7-2-15q-5-8 1-22l3-7-3-6q-7-13 0-24 4-5-1-14-5-10 1-21c4-8 4-8 0-16q-6-11 0-22c4-6 4-8 1-15q-6-10-1-21c4-8 4-10 1-17q-6-9 0-21l3-8-3-8q-6-11 0-22t-1-11q-5-1-4 4m24-2q2 5-2 11-6 12 0 25 3 5 2 6c-5 7-6 20-2 29 3 7 3 8 0 14l-3 7c-1 3 1 13 3 18q3 5 1 7c-6 14-6 18-2 27 3 7 3 10-1 17q-5 12 1 22 4 8 1 11c-4 3-5 19-1 26l2 7-2 8q-6 10 0 21 5 9 0 16c-4 8-4 11-1 19 3 10 4 12 1 18q-6 11-1 21 6 10 1 16-7 14 1 26 3 4 0 8l-5 15 4 12q4 6-1 14-4 11 0 22 5 9 2 13-7 11-2 26l3 8-3 9c-4 10-4 11 2 11q5 1 4-3 0-5 4-14c2-4 2-6-2-14-4-7-4-11 0-20s4-9 0-16q-6-12-1-21 6-7 1-15-6-12 0-23 5-8 0-16-6-9 0-22c3-7 3-8 2-11q-9-14-1-27c3-6 3-7-1-14q-6-12 0-22c4-7 4-8 0-17-4-8-4-12 1-22l3-6-3-7q-7-11-1-22c4-8 4-9 2-14q-7-13 0-27 4-6 0-10-8-11-1-24c4-6 4-7 0-15q-5-11 0-22c4-8 4-9 0-16q-5-12 1-22c4-7 4-7 0-14q-6-13 0-24 8-11-3-12-5 0-3 2m25 1q1 3-2 9c-3 7-3 18 0 24 3 5 3 7-1 15l-3 9 5 15q3 4-2 12-6 11-1 21 6 9 1 17-6 10 0 22c3 7 3 7 0 14a27 27 0 0 0 0 23c3 7 3 8-1 16-4 9-4 13 1 21 3 7 3 8-1 14q-6 13 0 24c4 6 4 8 0 14q-4 11 0 23c4 6 4 7 0 15q-4 12 0 23c4 6 4 6 0 14q-6 12 0 22c4 6 4 8 1 14-5 7-4 20 1 26q3 3-2 11c-3 7-4 18 0 25 3 5 3 7 0 14q-5 11 1 24l2 5-2 6q-7 18 0 17 5 1 4-4l3-10c4-9 4-9 0-16q-6-12 0-24c4-6 4-6 0-12q-6-12 0-24l3-7-3-7q-6-11-1-23 6-9 1-13c-4-7-4-19 0-26q5-6 0-12-6-13 0-24 4-7-1-15-5-9 1-22c4-8 4-8 0-15q-4-12 0-22c4-7 4-8 0-16q-6-11 0-21c4-7 4-9 1-15q-7-11 0-23l3-7-3-6q-6-12 0-23c4-8 4-8 0-16-4-9-4-14 2-26 1-3 1-4-2-11-4-10-4-13 0-21 3-8 4-10 2-14-5-8-5-19-1-25q6-10-2-12-5-1-4 3m25 1q1 4-2 10-6 11-1 22c4 6 4 8 0 14q-6 9 0 22c3 8 3 9 2 11-6 15-6 19-2 28 4 7 4 6 0 14q-6 11-1 22c4 8 4 8 1 14q-7 12-1 23c3 7 3 10-1 18q-4 10 1 21c4 7 4 7 0 13q-6 10 0 23c3 7 3 9-1 16q-3 9 1 21c2 6 2 8-1 18-2 6-2 15 1 19q5 7-1 17c-4 9-4 10 2 24l2 4-3 6c-3 7-4 18 0 25q4 7 1 12-8 15 0 26 3 5-2 15-5 9-2 14l3 8c2 6 2 8-1 15l-2 9q-1 5 4 4h4v-5l3-11 3-6-3-6c-5-11-5-16 0-26q4-6-1-13-6-12 0-21 6-6 0-17-6-12 0-22 5-8 0-15-5-12 0-22c4-6 4-8 0-14q-6-12 0-23 5-8 1-12-6-13 0-26c3-6 3-8-1-15-4-9-4-13 1-22q5-8 0-15-6-11 1-24c3-5 3-6-1-12q-5-12 1-24 3-7 1-9c-6-16-7-18-2-27 4-6 4-8 1-15q-6-11 0-23l3-7-3-7q-6-13 0-23 6-8 0-14c-3-5-4-16 0-23 3-7 3-7 1-10q-5-7-6 1m25-2q2 2-2 10c-4 9-4 13 0 24l2 8-3 5c-3 7-4 19-1 23q6 7 1 16-7 12 2 25c1 3 1 3-2 11q-6 13-1 22t0 17c-3 5-4 14-2 18 5 9 5 11 2 18a27 27 0 0 0 0 23c3 7 3 7-1 17-4 8-3 11 1 22l2 5-3 9c-4 9-4 13 0 21q5 9 2 13-8 11-2 24 5 9 2 12l-5 15 3 10c4 8 4 10 0 15q-6 9 0 22c3 8 3 9-1 18q-5 10 1 20c4 7 4 7 0 14q-6 14 1 26 3 5-1 12l-3 9v6h4q5 1 4-4c0-4 3-12 5-14q3-4-2-12-6-12 0-22c4-6 4-8 0-14q-6-12 0-23l3-7-3-7q-6-12 0-24c4-8 4-7 0-14q-6-13 0-22c4-7 4-8 0-16q-6-12 0-22c3-6 3-9-1-17q-4-9 1-22c4-6 4-6 0-13q-6-12 0-23 6-6 0-15-5-9 0-21c4-7 4-10 0-17q-5-11 1-22c4-7 4-6 0-13-4-10-5-13 0-22 3-8 4-9 1-13q-6-13 0-25 4-8 1-13c-6-12-6-17-1-26q5-6 0-13c-3-5-4-17-1-21 6-7 5-15-2-15q-4 0-2 2m23 0q3 5-1 12-5 10-1 22 6 8 1 15-6 9-1 21c4 9 3 9 0 19q-6 9 0 20l3 7-3 7q-6 12 0 23c3 7 3 8-1 14q-6 11 0 23l3 8-3 6q-5 12-1 22 6 10 1 16-6 10-1 22 4 11 0 17-5 9 1 21 4 9 0 15c-4 5-4 16-1 22 4 7 4 9 1 16q-6 10 0 22l3 7-3 6q-5 11 0 24c3 6 2 9-1 18q-5 9 2 23l2 4-3 7c-4 8-4 13 0 23l3 7-3 6-3 11-1 4h9v-4l2-8c3-7 3-9 0-16q-4-13-1-20c5-10 5-10 3-15-5-11-6-17-1-26q4-6 1-11c-6-10-6-15-2-25 4-7 4-9 1-15q-7-13 2-27c1-3 1-3-2-11q-6-11-1-21c4-9 4-9 1-15q-6-12 0-24c4-6 4-6 0-14q-6-12 1-24l2-6-3-6q-6-14 0-25c4-6 4-6 0-14q-6-11 1-23c3-6 3-7 0-14q-6-11 0-23c3-6 3-8 0-15q-6-10 0-22c4-8 4-7 0-15l-3-11 3-10c4-7 4-9 0-16-4-8-4-12 0-21q8-15-3-15-5 0-3 2m26 1q1 4-2 10-6 13-1 24c4 7 4 7 1 12-5 8-4 22 1 26q3 1-2 13-6 12 0 22c3 7 3 9-1 15-4 8-4 13 1 26 1 3 1 4-1 11q-6 13 0 23 5 6-1 16c-4 8-4 13 2 24 1 3 1 3-2 13-4 11-4 13 1 22 3 6 3 7 0 13q-7 14 0 26 3 3 1 9c-6 13-6 18-2 25q4 9-1 18-5 8 1 20l3 6-3 8c-4 10-4 12 2 28v6c-6 11-6 16-2 25s4 9 0 16c-4 8-4 12-1 20 4 9 4 10 1 17l-3 11v4h8v-5l3-11 3-6-3-6q-6-12 0-23c4-8 4-9 0-16q-6-10 0-22 5-7 0-16-6-9 0-22c3-7 3-7-1-16q-4-11 1-21c4-6 4-8 0-14q-6-11 0-23c4-7 4-7 0-15q-6-13 0-22 5-8 2-13c-5-7-6-18-2-25q6-7 0-15-6-11 0-21c4-8 4-10 0-18-4-7-4-11 1-20q5-8-1-16-5-10 2-24c3-4 2-5-1-12q-4-11 0-23 6-7 1-13-6-15 0-24 4-6 0-14-4-11 0-22 7-14-2-14-4-1-3 3m24 2q0 6-2 11c-3 6-3 16 0 22q4 6 0 11-6 11-1 24l3 8-2 4c-5 12-5 18 0 28q3 5-1 13-6 11 0 22c3 7 3 7 0 13q-7 15 1 26 3 5-2 12-6 10 0 24l3 7-2 4q-8 16-1 26 4 6 0 13-6 11-1 24c4 7 4 8 1 15q-6 10 0 23c3 6 3 7 0 13q-6 12 0 24l2 7-2 5-4 14c-1 10 0 11 3 14q4 3 0 11-4 9 0 23c4 7 4 9 0 15q-5 11 1 24l2 5-2 6-3 11q-1 6 3 5 5 1 4-4l3-10c4-7 4-9 0-15q-4-9 0-22c4-7 4-8 1-15q-6-11 0-23l3-7-4-8c-4-9-4-13 0-21 3-8 3-8 0-17-4-9-4-13 1-21 3-7 3-8-1-16q-6-9 0-22 5-7 1-12-7-12 0-26l3-6-3-6q-6-12 0-25l3-7-3-6q-6-13 0-23c4-7 4-8 0-14q-3-4-2-12 0-7 2-12c4-6 4-7 0-13q-5-12 0-23c4-7 4-8 0-16q-5-11 1-22c4-7 4-7 0-15q-6-10-1-21c4-9 4-10 1-16q-6-11 0-22 6-14-1-14-3-1-4 5m25-3-1 7c-5 15-5 15-1 31 1 5 1 5-1 11-4 9-4 14 0 23l3 6-3 7q-6 12-1 24l3 6-3 6q-6 14 0 24c3 7 3 8-1 16q-4 10 0 22c4 7 4 7 0 15q-6 9 0 22l3 7-2 6c-4 11-5 15-1 23q4 11 1 15-7 9-1 24c3 6 3 6 1 10-5 14-5 18-1 26q5 8-1 18-5 9 1 20 5 8-1 15c-4 6-4 16 0 22s4 8 1 15q-6 12 0 22 4 7 0 15-5 11 0 24l3 6-3 6-3 12v4h8v-5l2-9c5-6 5-8 1-15q-6-14 1-23 3-6-1-16-6-10 0-19 5-10 0-18-6-10 0-21c3-7 3-8-1-17q-4-11 0-19 6-8 1-17-6-9 0-22l3-7-3-7q-6-12 0-23c4-7 4-8 0-16q-6-10 0-22c3-7 4-8 1-11q-8-14 0-26 4-7 0-13c-4-8-4-12-1-20q5-13 2-15l-3-6-1-4c-1-1 1-11 3-17q6-8 1-12-7-12 0-25 5-6-1-14-5-12 1-23l3-7-3-6q-6-12 0-24 7-12-2-13-5 0-3 2m24 0q3 4-2 11c-3 7-3 18 0 23q4 7 0 12-6 13 0 26v11q-4 7-4 14 0 6 4 13 3 5-2 13-5 9 0 22c4 7 4 7 0 14-4 8-4 13 0 23l3 7-3 7c-4 10-4 15 0 24l3 7-3 5q-6 13 0 25l3 7-3 7q-6 12-1 23c4 7 4 7 0 14q-4 13 0 23c4 6 4 8 0 15q-4 11 0 24l3 6-3 6q-5 12 0 24 5 8-1 16c-2 4-2 16 1 22 4 6 4 7 0 14q-5 12 1 23 5 6 0 13l-4 11v5h9v-5l2-10q6-7 1-15-3-5-3-11 0-5 3-11c3-8 3-10-1-16q-4-10 0-22c4-6 4-7 0-15s-4-13 1-24l2-6-3-6q-6-13 0-24c4-6 4-7 0-13q-6-12 0-23c3-7 4-8 1-13l-1-7v-4q-4-5 1-15l2-6-2-7q-6-12 0-23 5-7-1-16-4-12 0-21 6-7 0-16-5-9 1-22c4-6 4-6 0-14q-6-13 0-23c4-6 4-7 1-14-5-10-5-14-1-21q5-10 2-15-7-10-1-23 5-9 0-16-5-11 0-23 7-11-2-12-5 0-3 2m25 2-3 11c-4 8-4 10 1 24l2 5-3 7q-6 12 0 23c3 6 3 7 0 13q-6 10-3 19c4 10 4 12 2 18q-6 11-1 24c4 7 4 7 0 14q-4 13 0 24 5 7 0 15c-3 5-3 16 0 22q4 7-1 17c-3 6-2 16 2 21q3 6-1 13-5 9-1 23l3 8-2 5q-6 12-1 23c4 7 4 8 0 17q-5 10 1 22c3 6 3 7 0 14q-6 9 0 23l2 7-2 7q-6 11-1 22c3 9 3 10 0 16q-5 10 1 22 5 8 0 15l-3 9v5h8v-4l3-11c3-7 3-7-1-16q-4-9 0-19c4-8 4-11 0-17q-4-10 0-22 6-7 0-15-5-10 0-22c4-7 4-9 0-15q-6-11 0-22c4-8 4-8 0-17q-6-11 0-21c4-6 4-8 0-16q-4-10 0-20 6-9 1-16c-4-7-4-19 1-25q3-4-2-13-5-12 1-21c4-7 4-8 0-16q-6-11 0-22 5-8 0-15-6-13 2-24 5-5-1-12c-4-6-4-17 0-24 4-6 4-7 0-13q-4-12 0-23c4-6 4-7 1-14q-6-12 0-23c3-7 3-8 2-11a4 4 0 0 0-7 1m24 0q1 5-2 9-6 10-1 22c4 8 4 9 0 16q-5 10 0 22c3 7 3 8 0 14q-6 12-1 24c4 7 4 7 0 15-4 9-4 11 0 21l3 8-3 7q-3 6-3 11c0 5 2 12 3 12 3 0 3 8 0 14q-6 13 0 25l3 6-3 5q-6 13-1 25 5 7 2 11l-5 16 3 10c4 7 4 8 0 14q-6 9 0 23 5 9-1 17c-2 4-2 14 1 21l3 7-3 6c-3 7-4 19 0 24q5 5 0 12-6 14 0 27l3 5-2 6q-5 13-2 20c4 13 4 13 1 18l-3 10v5h4q5 1 4-3 0-4 3-10c4-9 4-10 0-16q-6-10 0-23c4-6 4-7 0-15q-6-10 0-23c4-6 4-7 0-13q-6-11 0-23c4-8 4-9 0-15q-6-11 0-24l3-6-3-7c-4-9-4-13 0-22l3-8-3-7q-6-12 0-22c4-8 4-8 0-16-4-9-4-14 0-23 4-8 4-8 0-14q-4-11 0-23c4-7 3-8 0-18q-5-9 1-19c3-6 3-7 0-15q-6-11 0-22l3-7-3-8-3-11 3-11c3-8 4-9 1-13-5-10-4-15 1-26l3-5-3-6q-8-14 1-26 5-10-4-12h-4zm24 0-3 11q-5 11 1 21 5 7 0 16-6 10 0 22l2 6-3 8c-4 10-4 13 0 21 3 8 3 9-1 17q-5 12 1 21 4 6 0 16-6 10 0 24l2 6-2 4q-7 15-1 25 4 6-1 18c-3 8-3 11 1 18q5 8 0 16-4 11 0 24l3 6-2 5c-4 9-5 14-2 23 4 10 4 10 1 15-4 10-4 13-1 22l3 8-3 9c-4 12-4 15 1 24q2 5 0 12c-5 9-4 13 1 27 1 3 1 4-1 11q-6 12-1 22c4 9 4 9 1 16l-4 10v4h9v-4l2-11c4-7 3-10 0-17q-6-9 1-22c3-4 2-5-1-16q-3-8 1-20 4-7-1-15c-4-8-4-11 0-20 4-7 4-9 0-19q-5-11 1-20 4-7 1-13-9-10-1-24c4-8 4-7 1-13-5-9-5-15 0-26 2-5 2-5-2-15-3-7-3-11 1-20q5-10 0-16c-3-6-3-17 0-23 4-6 4-6 0-13-4-9-4-14 0-23l3-7-1-5c-5-12-5-12-4-17l4-10c3-5 3-6-1-13q-6-12 0-21c4-7 4-9 0-16-4-9-4-13 0-21s4-11 1-17q-6-10 0-20 7-15-2-15h-4zm25-1q2 4-3 13t0 20c4 7 4 8 0 14q-5 11 0 23 5 10 0 16c-2 2-4 11-3 12l1 4 2 6c3 5 2 7-1 14q-5 13 1 24 3 4-1 13c-4 9-4 13 0 22l3 8-3 7q-6 10 0 22c3 7 3 9 0 15-4 8-4 12-1 21 4 9 4 10 0 18q-5 12 1 22c3 6 3 8-1 14q-4 11 0 22 6 8 0 16c-3 5-3 16 1 22q5 7-1 15-5 11 0 23 5 7-1 15-5 12 1 22 6 6 0 14-6 13 0 23c4 6 4 6 0 15q-6 15 1 14h4v-5l3-10q6-8 0-15-4-10 0-22c4-7 4-7 0-15q-4-12 0-22c4-6 3-7 0-17-4-9-3-13 1-22 3-6 3-7-1-13q-6-12 0-23l3-7-3-8q-6-12 0-22c4-7 4-9 0-15q-4-10 0-22 6-9 0-16-6-9 0-22c4-6 4-8 0-15q-5-12 0-22c4-6 4-8 0-16q-4-11 0-21 6-8 1-16-6-10 0-21c4-7 4-9 0-15q-2-5-2-11c0-6 0-8 5-16 1-3 1-3-2-9q-6-13 0-22c4-7 4-9 1-16q-6-11 0-23t-3-13q-5-1-3 3m22-2 2 4 2 4-3 7q-4 13 0 24 4 9 0 14-6 10-1 22c3 8 3 9 0 16q-6 11-1 23 5 7 0 15-5 11 1 25l2 4-3 6q-6 12-1 24c4 7 4 7 1 14q-6 11 0 23l2 7-3 7q-5 14 0 23c4 6 4 7 1 14-4 9-4 13-1 23l3 8-2 5c-4 8-4 10-3 21 1 9 1 10-1 14q-4 12 2 26 5 9 0 16c-4 9-4 12 2 27 1 3 1 4-2 11q-5 12 1 24c2 4 2 6-2 14q-5 8 1 21c3 7 3 7 0 14-5 10-5 11 0 11q6 1 5-3l3-8c4-7 4-8 0-14q-6-11 0-23c4-6 4-8 0-15q-6-11 0-22c4-7 4-8 0-16q-5-11 0-21c4-7 4-7 0-16q-5-12-1-24 3-12-1-17c-1-3 0-12 3-18 4-7 4-8 0-15q-6-10 0-23c4-7 4-7 0-13q-4-12 0-24c4-6 4-8 0-15q-4-11 0-23c4-6 4-8 0-14q-5-11 1-23c3-7 3-8-1-15q-5-11 1-21 6-7 0-16-5-10 1-21c4-8 4-7 0-14q-7-14 2-25 3-6-1-13-6-9 0-21l3-7q1-2-2-7-2-6-6-5zm27 1q3 7-2 16l-3 8 4 15q3 4-1 12-6 12-1 23 5 10 2 13l-3 7c-2 7-2 9 2 19l2 6-3 6q-6 15 0 25c4 5 3 6-1 15-3 6-2 16 1 22s3 6-1 13q-5 11 0 22c3 6 3 9-1 17q-5 11 1 21c3 6 3 7-1 15q-5 12 1 24l3 5-3 7q-7 12-1 25c2 9 3 11 0 15-4 7-3 21 1 24 2 1 1 8-1 12q-5 12 0 24c3 5 3 5 1 9-6 17-6 16-2 25q5 12 1 14-7 11 0 27l2 5-3 9c-4 10-4 10 1 10q6 0 5-4l3-7q4-6 0-16-6-11 0-21c4-8 4-8 0-16q-6-11 0-21c4-7 4-9 0-16q-6-11 0-22c4-7 4-9 0-16q-6-11 0-22l2-4-2-8q-6-13 1-25 4-8 0-13-6-11 0-24 4-7-1-16-5-10 1-21c3-7 3-7-1-16q-5-10 1-21c3-8 3-7-1-18-3-8-2-12 1-20 4-7 4-8 1-13q-6-13 0-23c4-7 4-9 0-16q-4-11 0-21c4-7 4-8 2-13a25 25 0 0 1-1-25c4-7 4-8 0-16s-4-12 1-21c4-7 4-8 1-13-3-4-10-6-8-2m24 0 1 3c2 0 1 8-1 10-4 5-5 17-1 24q5 7 0 15-6 10 0 23c2 6 2 7 1 11-6 14-6 18-1 30q2 3-1 10c-4 12-4 17 1 26 2 4 1 5-2 11q-6 11 0 23l3 7-3 7q-6 11-1 22c4 8 4 9 1 16q-6 12-1 24l3 5-3 6q-4 13 0 26l3 6-3 6-3 11c0 5 0 7 5 18 1 4 1 4-1 9-5 9-5 12-3 19 5 12 5 12 2 18s-3 18-1 24q4 8 1 15-4 9 0 24l2 6-3 6q-6 12 0 24c4 6 4 6 0 13l-3 9q-1 4 4 3 5 1 4-4l3-8c4-7 4-8 1-13q-8-13 0-24c3-5 3-6 0-14-4-9-4-14 0-23l3-7-3-6c-4-10-4-16 1-26 3-6 3-6-1-13q-7-10 0-23l3-6-3-6q-5-13 0-25 6-7 0-15-3-5-3-10l3-11c4-8 4-9 0-15q-6-13 0-24c4-6 4-8 0-14q-4-12 0-22 6-7 0-15-5-11 1-23c4-8 4-7 0-15-4-9-4-13 0-22 4-7 4-9 1-14q-6-10 1-25c3-5 3-5-1-13q-5-12 1-23c4-5 4-7 0-14q-6-10 0-21 5-9 1-14c-2-5-8-6-8-2m24-1 2 5 2 4-3 7c-5 9-5 13-1 22 3 7 3 8 1 13q-7 15-1 26c3 5 3 6-1 14q-6 10-1 21c4 8 4 8 0 17-4 8-4 12 0 22l3 8-3 6q-6 11-1 21c4 9 4 9 1 15q-6 13 0 24c3 5 3 7-1 14q-4 10 0 23l3 7-3 7q-6 14 0 23 4 8 0 13-6 11-1 22c4 11 4 11 0 18q-6 12 0 22l3 7-2 6q-6 17 0 26 3 4-1 13c-3 7-4 11-1 20 4 9 4 10 1 18q-6 9 0 21l2 8-2 7q-6 11 1 11 3 1 3-2l3-8c3-7 4-9 0-18q-5-9 1-20c4-7 3-8-1-17q-5-10 1-20c4-8 4-8 0-16q-6-11 0-21c4-6 4-9 0-17q-6-9 0-18c4-9 4-11 1-18q-6-12 0-22c3-7 3-7-1-16q-5-13 1-21 5-5 0-14-6-12 0-24c4-8 4-7 0-15q-6-11 1-23c3-6 3-7-1-14q-5-11 1-23l3-7-3-7q-6-15 1-25 4-4 0-13-6-11 0-21 4-8 0-17-6-10 0-21c4-6 4-8 0-14q-6-12 1-23c4-7 4-8 1-13q-1-5-6-4zm26 4 2 5-2 6c-5 10-5 16-1 26 3 4 2 5-1 12q-6 11 0 23c3 7 3 8-1 14-3 7-3 12 1 23l2 8-3 5c-3 7-4 18 0 25q4 6 0 13-6 12-1 22 3 7 0 18c-3 6-3 15-1 19q4 8 0 16c-3 9-3 22 2 24q2 4-1 13-7 14 1 27c1 3 1 3-2 10q-5 11 0 24l3 7-3 8c-4 9-4 12 1 22l2 6-3 7q-4 14 0 23c3 7 3 8 0 15q-4 10 0 19c4 8 3 19-1 24q-3 5 1 15 5 9 0 16l-3 8v4h3q4 1 4-2l3-8c3-8 3-10 0-16q-4-12 0-22c4-6 4-8 0-14-3-6-3-17 1-24q5-7-1-16-4-10 0-21 6-7 0-16-5-11 2-22c2-5 2-6-1-14q-4-11 0-23c4-7 4-8 1-15q-6-11-1-21c4-8 4-10 0-16q-5-10 0-21c4-8 4-9 1-17q-6-12 0-21 5-7 0-16-6-10 0-21c4-8 4-8 0-16-3-9-3-13 1-21s4-8 0-15q-5-12 1-23c4-7 4-7 0-15q-6-11-1-21c4-7 4-8 1-15q-6-12 0-21 7-18-4-19h-4zm23-4c4 9 4 8 0 17s-4 13 1 23l2 6-2 5c-6 12-6 15-1 27l3 6-3 6q-6 11-2 21c4 8 4 8 1 16-4 10-4 15 1 26q3 7-2 12-5 10 0 22c3 6 3 8-1 15q-5 13 1 24c3 5 2 6-1 13q-4 13 0 24c4 6 4 6 0 13q-5 12 0 24c4 6 4 7 0 13q-4 10-2 19l3 9q2 3-1 9c-3 7-3 18 0 24 3 7 3 8 0 13-3 6-3 17 0 24q5 8-1 15-4 11 0 23l3 7-2 5c-4 11-4 16-1 24q4 8 0 16l-3 7q-1 4 4 3 5 1 4-3 0-3 3-7l2-8-2-9q-6-10 0-20 5-9 0-16-6-11 0-21 4-8 1-14-8-14 1-27 2-4-2-12-6-10 0-22c4-8 4-9 1-15q-6-12-1-22 5-8 1-16-4-11 0-21c3-7 3-9 0-16q-4-12 0-22 6-8 1-15c-4-6-4-17 0-23 3-6 3-8 0-15q-6-12 0-23c4-7 4-7 0-16-4-8-3-12 1-20 3-7 3-9 0-15q-6-11 1-24l3-6-3-6c-5-11-4-16 1-27l2-4-3-6q-6-12 0-23 7-16-4-18z"
        mask="url(#16282281824-posters-1720553956018-radial-mask)" itemprop="regular" fill-opacity="0.90"
        fill-rule="evenodd" stroke="none" fill="url(#16282281824-posters-1720553956018-horizontal-regular)"></path>
      <!---->
      <path id="16282281824-posters-1720553956018-medium"
        d="m14 3-1 6c-4 5-4 16 0 21q3 6-1 16c-4 7-4 11 0 21l2 8-3 6c-4 9-4 14 0 24l3 8-3 6q-6 11 0 22c3 6 3 7 0 14-5 10-5 15-1 23 3 7 3 9 0 16-3 6-3 16-1 20q6 8 2 15-7 12-1 25l3 6-3 6q-6 14-1 23t-1 18 1 21q4 6-1 15-5 10 1 22 4 7 1 10c-6 14-6 18-1 27q5 6-1 14-6 12 0 23c3 6 3 7-1 15q-5 10 1 22c3 8 4 9 2 11a29 29 0 0 0-4 25h4q5 1 3-2c-2-4-1-13 1-18q6-8 0-17-4-10 0-21 6-7 1-16-6-12 0-22l3-6-1-5c-6-14-6-18-2-27 4-7 4-8 1-14q-7-11-1-22l3-6-2-8q-6-18 0-23 5-6 0-13-6-13 0-25c3-6 3-7-1-16q-4-11 1-20 5-7 0-15-6-11 0-23c4-8 4-9 1-15q-6-11 0-22c4-7 4-8 0-15a21 21 0 0 1 0-22q6-7 1-16-6-9 0-20 5-9 0-16c-2-5-3-14 0-19 3-10 3-12 1-17q-6-12 0-22 8-10 0-9-5-1-5 3m25-2-2 7q-6 9 0 21c3 7 3 9 0 15q-8 15 0 23 3 5-2 14-5 11 1 23 3 8-1 15-6 7 1 24l2 5-2 4c-5 12-6 16-2 25 4 7 4 8 0 16-4 9-3 13 1 22 3 7 3 9-1 16q-6 9 0 20c4 8 4 8 0 16q-6 11 0 23l3 6-2 4q-8 14-1 27 4 6 0 14c-4 8-5 11-1 21q5 13-1 19c-2 2-2 15 0 18q6 5 1 15-6 13 0 26c3 5 3 5-1 13q-6 11 0 21c4 8 4 8 0 16-4 10-2 22 4 22h3l-2-4q-3-9 3-19 5-6-1-14-2-5-2-11 0-7 2-12c4-6 4-8 0-14q-6-11 0-21c5-10 5-9 1-16q-6-11-1-23c4-7 4-9 1-15q-6-11 0-24l3-6-3-6q-6-12 0-24c4-8 4-7 0-15q-6-10 0-23c3-6 3-7-1-16q-5-9 1-21c4-6 4-7 0-13q-5-11 1-24c3-6 3-7-1-16q-4-10 2-22l3-6-3-6q-6-11 0-23c4-7 4-7 0-14q-5-12 0-23l3-7-4-13c-2-2-1-13 2-18 4-7 4-8 1-14q-6-10-1-20 6-10 0-9zm23 6c-4 10-4 13 0 23l2 7-2 6c-5 8-5 13-2 23 3 7 3 8 1 12-5 12-5 16 1 29 2 4 1 4-2 11q-6 10 0 23l3 6-3 8q-7 12-1 22c4 7 4 9 0 14q-6 10 0 24l3 7-3 7q-6 12 0 23 5 7-1 15-5 11 1 23l2 6-2 5c-5 12-5 17-1 26 4 6 4 7 1 13-6 10-6 15-1 25q4 5-1 14-5 10 1 22c3 7 2 8-1 17-4 7-4 10 0 19q5 11 2 14-8 12-2 25c4 6 4 8 0 14-6 10-4 22 3 22h4l-2-4q-3-9 3-20c2-5 2-6 0-11q-9-14-1-26c3-5 3-7-1-15q-5-10 1-21l3-7-3-6q-6-13 0-24c4-7 4-7 0-15q-6-10 0-22l3-9-3-9q-5-11 1-22 5-6 0-11c-4-6-4-17 0-23q5-7 0-15-6-11 0-23c4-8 4-7 0-14q-4-12 0-24c4-6 4-7 0-14q-5-11 1-23c3-6 3-7-1-15q-4-10 1-21c4-8 4-8 0-17-4-8-4-11 1-19 4-8 4-8 0-16q-5-11 1-22l3-7-3-7q-4-14 0-23 6-8 0-7-4-2-6 7m26-5-1 4c-5 8-5 12-1 23l2 9-2 6c-5 9-5 13-1 21s4 8 0 17q-6 12 0 21 5 7-1 15-4 11 0 23l3 6-2 5q-9 17-1 26 4 5 0 12-6 12-2 21c4 8 5 11 1 18q-6 11 0 22 5 10 0 16l-3 6q-1 10 3 16c3 5 3 7-1 16q-6 12 1 21c3 5 3 7-1 15q-4 12 0 22c4 6 4 8 0 16q-5 11 1 23c3 5 3 6-1 13q-6 11 0 23c3 7 3 9 0 15q-6 11 0 22 5 9 2 13c-4 2-6 13-5 20q0 5 6 4h4l-1-3q-4-9 1-20c4-8 4-7 0-14q-7-12-1-23c4-7 4-8 0-15q-4-12 0-21c4-6 4-9 0-17q-4-11 0-22c4-6 4-7 0-15s-4-12 1-21q5-7 0-15-5-12 0-23l3-7-3-7q-6-12 0-23c4-7 4-7 0-15-4-9-4-13 1-22q3-7 1-10l-3-9q-3-11 3-20c3-5 3-6-1-13q-6-12 0-21t1-15q-6-12 0-23c4-7 4-7 0-15q-4-13 0-22 6-7 0-18-4-10 2-21c3-6 3-6 0-14q-5-10 0-21l3-7zm23 5q-6 13-1 23 6 8 0 14c-3 6-4 17 0 24 3 5 3 7-1 15q-6 10 0 21 5 6-1 17-5 11 1 21 5 6-1 14-6 10-1 22 6 8 1 14c-4 6-4 17 0 24 4 6 3 8-1 14q-4 9 0 23c4 7 4 8 0 14q-5 12 0 23c4 7 4 8 0 14q-5 13 0 24 6 6 1 12c-6 11-6 13 0 27l2 6-2 5q-9 12 0 26c3 4 3 4-2 13l-3 7 1 7q1 6 4 10l2 5-3 7q-7 13-1 22 5 10 0 16-3 7-2 16 1 6 5 5 4 1 2-2-2-9 2-20c4-6 4-7 0-13q-6-13 0-24c4-6 4-6 0-14-4-9-4-14 0-24 4-7 4-6-2-18q-4-9 3-20 5-5 0-12-6-12-1-24c4-6 4-7 0-14q-5-11 0-23c4-6 4-8 0-15q-5-11 1-22 5-7-1-16-5-10 1-22c4-6 4-7 0-14-4-8-4-12 0-20a17 17 0 0 0-1-21q-3-11 2-19 5-6 1-12-8-14 0-26 4-5-1-14-5-10 1-22l3-7-2-6q-6-13 0-24c3-6 3-7 0-15q-4-10 1-21 5-9-1-8-2-1-6 7m29-5-3 8q-6 12-1 23c4 6 4 7 0 14q-6 11 0 23l3 7-2 5q-6 14-2 24 5 7 0 18c-4 7-4 10-1 17l3 8q2 3-1 8-7 13-2 24c4 6 4 8 1 14q-6 10-1 22c4 8 4 10 1 15q-6 13 0 25 4 6-1 14-6 12 1 24l3 6-3 7c-5 9-5 14 0 24l3 7-3 6q-7 13 0 24c4 6 4 6 0 13q-7 12-1 24 4 7 2 9l-3 9c-3 8-3 10 1 18s4 10 1 15c-4 5-3 17 0 25l3 6-3 6q-7 18 0 18h4v-6l2-11q6-7 0-15-6-11 0-23l3-6-3-7q-4-15 0-25 5-7 0-14-6-8-1-21 5-10 2-14-7-12-1-26 3-6 0-11-6-12 0-25 4-8 0-14c-3-7-3-20 0-25q4-5 1-11c-6-10-6-15-1-25 4-6 4-7 0-14q-6-11 0-23c4-7 4-8 0-15q-4-11 0-22c4-7 4-8 0-16q-5-11 1-23 5-6 0-13-4-12 0-23 6-7 0-15-5-11 1-22 6-7 1-13-7-12 1-24l1-6q1-5-4-4-4 0-2 2m24 0q1 2-2 7-5 11-1 22 3 10 0 16c-4 10-4 14 1 28 1 3 1 3-1 9q-7 13-1 23c4 7 4 7 0 14q-6 15 1 25 3 6-2 14-4 10 0 22c4 8 4 8 0 14q-6 13 0 24c4 6 4 7 0 14q-6 12 0 21 6 10 0 16-6 11 0 24c4 6 4 7 0 14q-6 12-1 20 6 6 1 17-6 12 0 23c4 6 4 6 0 14-4 9-4 14 0 23q5 9 2 11c-5 4-6 19-2 27 4 6 4 8 0 14q-2 5-2 12t2 12c4 6 4 8 0 16q-6 14 1 14 4 1 3-5l2-9c4-8 4-10 1-17q-6-13 0-24l3-6-3-7q-6-13 0-24c3-7 3-7-1-14q-5-13 1-24l3-7-3-6q-6-13-1-23 6-9 0-16-4-10 0-22c4-7 4-7 0-15q-4-9 0-22c4-9 4-11-1-16-2-3-2-14 1-21 4-8 4-8 1-15q-6-12 0-23c3-7 3-8-1-16q-5-10 1-20c4-8 4-9 0-16q-6-13 2-24 2-4-1-12-6-16 1-26c3-3 3-4-1-12-3-9-3-14 1-23 4-8 4-7 0-13q-4-12 0-23 6-11-1-11-4 0-3 2m24 0q1 2-2 8-6 14-1 23 6 8 0 15-5 11 0 23c4 7 4 8 0 15q-6 11 0 21 5 8-1 15-4 11 0 23c3 6 3 9 0 17q-4 10 0 20 3 7 1 12-7 13-1 26 5 7 0 14-6 9 0 23l3 8-3 6c-4 8-4 13 0 23 3 8 3 8-1 17q-5 11 1 21c4 6 4 6 0 12q-5 13 0 25c3 6 3 7-2 18q-4 9 2 19c3 7 3 8-1 17-4 8-4 12 1 21 4 6 4 8 0 14q-4 10 0 23 6 9 1 13l-3 11v7h3q3 1 3-6 0-5 3-11c4-7 4-6 0-13q-6-13 0-24l3-7-3-6q-6-13 0-25c3-6 3-7-1-14q-4-12 0-23 6-7 1-13-5-12-2-20c4-12 4-11 1-18q-4-12-1-21c4-9 4-10 1-17q-5-13 0-23c4-7 4-8 0-14q-5-11 1-24l3-6-3-7c-4-9-4-14 0-23 4-8 4-8 0-15-4-9-4-14 0-23 4-7 4-7 0-14q-6-12 0-22 6-9 1-15-6-13 0-23c3-5 3-7 0-14-4-10-4-14 2-25q2-7-1-12-6-10 1-24 5-11-2-10-5 0-4 2m25 1-2 9q-6 12-1 24l3 6-3 6q-4 13 0 25 5 6 0 14-7 12-1 21c4 8 3 10 0 17q-5 10-1 18 5 10 1 18-6 11 0 22c3 8 3 9-1 16q-4 9 0 22c4 7 4 8 1 15q-7 13 1 24 3 4-1 13-7 13-1 22c4 6 4 8 0 16q-4 11 0 21c4 8 4 10 1 15q-6 9-2 19l3 8q3 2-2 11-5 11 0 22c4 7 4 8 0 15q-5 13-2 19l4 7q3 5-2 13-5 11 1 23l3 6-3 6-3 11v5h7v-5l3-11 3-6-3-6c-4-9-4-13-2-20 5-12 5-12 2-19q-6-10-3-17v-4l1-2q6-3 1-14-6-12-1-22c4-8 4-9 1-16q-6-10 0-23c3-8 3-9-1-16q-5-10 1-21l3-7-3-7q-6-12 0-22 5-9 0-16-6-11 0-22c3-7 3-9 0-16-4-8-4-13 1-24q3-7 0-12-7-9 0-25l3-6-3-6c-4-10-5-12-2-19 5-12 5-11 2-19q-5-12 1-23l3-6-2-5-3-8q-3-8 2-17c4-7 4-9 1-14q-6-13 0-25 6-10-2-11-5-1-3 3m24 1-2 9c-5 9-5 12-1 20q5 11 1 14-7 11-1 24c4 9 4 8 0 16q-6 11 0 22c3 7 3 7-1 15-3 8-2 21 2 25q3 3-2 12-5 12 1 23 5 7-1 13-5 10-1 22c3 9 4 11 1 17q-5 12 0 23c4 6 4 7 0 13-3 6-4 17 0 23q4 7 0 15-5 11 0 23l3 7-2 5q-7 12-1 25l3 7-2 5c-6 12-6 16 0 28l2 5-2 5q-5 12-4 17l3 8 3 7-2 6q-6 15-1 25 6 6 1 14-7 14 0 15 4 1 3-4l3-10c4-8 4-8 0-16q-6-12 0-23c4-6 4-7 0-14q-6-11 0-23l2-6-2-6q-6-15-1-25 6-7 0-16-4-11 0-22c4-7 4-8 0-15q-4-12 0-22c4-6 4-8 1-15q-6-11 0-23c3-6 3-7-1-14q-5-11 0-23c4-7 4-9 1-14q-6-11 0-23c3-7 3-9 0-15q-6-11 0-22c4-7 4-8 0-15q-6-11 0-23c4-6 4-7 1-14q-6-11 0-21 4-12-2-21c-2-2-1-12 2-18 4-7 4-7-1-18q-3-9 2-20 7-11-2-11-4-1-3 4m25 0-2 8c-5 9-5 13 0 26 2 4 2 4-1 11q-6 12 0 23c3 6 3 8-1 15q-5 11 0 21c4 8 4 8 1 15q-6 11 0 23c3 7 3 8-1 14q-5 11 0 23c3 6 3 9-1 17q-4 12 1 21 5 7 0 13-5 12 1 26 4 6 1 7l-1 3-2 5q-5 10 0 19t1 14q-7 14 1 27l2 5-3 6c-3 8-4 19-1 23q5 5 0 15-5 12-1 19c5 10 5 10 0 23-2 6-2 9 2 18 3 7 3 10-1 17q-5 11 1 21 5 8 0 14c-2 3-4 13-3 14q0 2 4 2 4 1 3-4l3-11c4-8 4-8 0-15q-6-12 0-24c3-5 3-7-1-15q-6-9 0-22 4-7 0-14-5-9-1-21c4-8 4-11 0-19q-4-10 1-21c4-7 4-7 0-14q-5-11 0-22c3-8 3-9 0-15q-5-11 0-23 4-7 0-15-4-10 0-23l3-6-2-6q-7-12-1-23 5-10 1-14-7-11 1-27l2-5-2-5c-6-10-6-16 0-27 3-5 3-6-1-12q-6-11 1-24l3-6-3-7q-6-10 0-22c3-8 3-9 0-15q-5-12 0-22l2-10c0-5-6-4-6 1m25-2q1 5-3 12-4 9 0 20c3 6 3 8-1 16q-5 11 1 22 3 8-1 15c-4 5-3 21 1 24q2 3-1 12-6 12 0 23c3 7 3 7 0 14a27 27 0 0 0 0 23c3 7 3 9 0 14q-6 15 1 26 3 4-1 11-3 4-3 10c0 7 0 8 3 15l3 6-3 6q-6 11-1 22c3 9 3 9 0 17-4 9-4 13 0 21q5 10 1 13c-4 4-5 16 0 25 3 6 3 8-1 15q-6 15 2 25 3 4-2 13-6 10-1 21c4 8 4 9 1 15q-5 12 0 23c4 7 4 9 1 15q-7 16 0 16 5 1 3-4l3-10c4-9 4-9 0-17q-6-12 0-22c4-7 4-8 0-15q-6-12 0-23c4-7 4-7 0-16q-6-11 0-21 4-8 0-14c-5-9-5-15 1-26 2-6 2-6-2-14q-5-11 0-21c4-6 4-8 1-14q-6-11 0-24c4-6 4-7 0-14q-6-11 0-22c4-9 4-9 0-16q-6-13 1-23 4-6 1-11-9-10-2-24c4-8 4-9 0-16q-6-11 1-21c4-9 4-9 0-17q-6-9 0-22c4-7 4-8 0-14q-4-10 0-21c4-8 4-10 0-17q-4-11 0-22 6-10-1-11-4 0-2 2m24 2q1 5-2 8-7 12 0 25l3 6-2 4-4 7q-3 7 2 19l3 7-3 8q-6 10 0 22l3 7-3 6q-6 12-1 24c4 7 4 8 0 15q-5 11 0 23 5 9 1 13c-4 6-4 18-1 24q5 7 0 15-4 10 0 21c4 8 4 10 1 15-5 8-5 13 1 28q2 2-2 9-5 12 0 23c4 8 4 8 0 15q-6 12 1 24l3 6-3 6q-7 12-1 25c4 6 4 7 0 13-4 7-4 18 0 24s4 6 0 14q-4 12 0 25l3 6-3 6-3 11v4h3q5 1 4-5l4-10c3-6 3-8-1-15q-6-10 0-21 5-9 0-15-6-11 0-23c3-7 3-8-1-14-3-6-3-17-1-21 4-7 4-10 1-17q-4-12 0-23c4-6 4-8 0-15q-5-12 1-23l3-7-3-6q-6-12 0-25l3-6-3-7q-6-12 0-23c4-7 4-7 0-14q-6-11 0-22c4-8 4-10 0-15q-6-11 0-23 6-9 2-13-9-9-1-24l3-7-3-7q-6-12 0-24c3-7 3-9-1-16q-5-10 1-21c4-7 4-8 0-15q-6-11 0-21 7-14-3-14-3-1-1 4m25 0-2 9q-6 11 0 23c3 6 3 6-1 13q-6 12 0 24c4 6 4 6 0 14q-6 11 0 22c3 7 3 9-1 16q-4 11 0 21c3 6 2 9-1 19q-4 11 2 21 3 5-2 15-5 8 0 18 5 11 2 14c-1 1-4 11-4 15l3 11 3 7-3 7q-6 12 1 24 3 5 1 8c-6 17-7 20-2 29q5 6 0 14-6 13 0 21 5 7 0 15c-4 8-4 20 1 25q3 4-1 13-6 11-1 23c3 7 3 8 2 11q-7 12-3 22l3 7q3 3-1 13-6 15 1 14h3v-5l2-9c4-7 4-9 1-14q-7-13 0-27c3-5 3-6-1-13q-4-12 0-22c4-7 4-7 0-14q-6-12-1-22c4-8 4-8 1-14q-6-14 0-26c3-6 3-7 0-13q-6-12 0-22c4-8 4-9 0-16q-6-12 2-24 3-6-2-14-5-9 1-22l3-7-3-6q-6-12 0-24l3-7-3-7q-6-12 0-22c4-8 4-8 1-15q-6-12 0-23 5-6-1-15-5-11 1-23c3-7 3-7-1-15q-5-10 1-22l3-7-2-5q-7-13-1-24 6-12-1-13-4-1-3 4m25 0q1 4-3 10-4 10 0 22 5 8 0 14c-4 8-5 12-1 20q5 12 2 16-8 16 0 26 3 5-2 14-6 10 0 22l3 7-3 6q-6 12-1 23c4 8 4 9 0 16q-5 9 0 22 6 9 1 15-6 8 0 22c3 7 3 8 0 15l-3 11 3 11c3 8 3 7-1 15q-4 12 0 23 6 8 0 14-6 10 0 21c4 8 4 10 0 17s-3 13 2 27q2 2-2 11c-4 10-4 14 1 22 3 6 3 7-1 15-3 7-4 16-1 19q5 7 2 16l-3 10-1 6h4q4 1 3-4c0-5 1-6 3-12 4-5 4-5 0-13q-6-11 0-23c3-7 3-9-1-15q-5-12 0-21 6-6 1-16-6-11 0-23c3-7 3-8-1-15q-4-13 0-22 6-6 1-14-6-11 0-23 5-7 0-15-6-10 0-22c3-8 3-8-1-16q-5-10 1-21c4-8 4-9 0-16q-6-12 0-22 6-7 0-15-5-11 1-22c3-6 2-9-1-17q-6-10 0-19 6-8 1-16-6-11 1-25c3-4 2-5-1-12q-6-13 2-25 4-6-1-10-7-12 0-27 3-4 0-9-4-6-4 2m24 0-2 12-3 7 2 8c3 14 3 14 1 19q-6 11-1 23c4 7 4 8 0 16q-6 9 0 21l4 7-4 7q-6 12 0 23c3 6 3 8 0 15-4 9-4 12-2 20q5 12 2 16-7 11 0 27l2 5-2 6c-4 8-5 12-2 20q5 12 1 18-6 11-1 21 5 9 2 15-7 10 0 25l2 6-3 6q-5 12 0 23 4 9 0 15-6 10-1 22c3 8 3 11 0 17q-4 10 0 20 5 9 2 15-6 8-2 22c3 9 3 12 0 17l-2 8v6h3q5 1 4-4t4-14l2-5-2-4q-9-14 0-27 4-4 0-10-8-15-1-26 5-6-1-13-6-13 0-24c4-7 4-8 0-14q-6-11 1-23l3-7-3-7q-8-13 1-25 3-5-2-14-4-8-1-18c4-12 5-12 2-16q-3-6-3-13-1-6 4-13 4-6-2-14c-3-4-2-16 1-23 4-6 4-7 0-14q-5-11 0-22c4-7 4-8 0-16q-6-11 0-21c4-5 4-8 0-17q-4-11 0-19 6-7 1-16-6-12 0-22c4-8 4-9 0-15q-4-12 0-22 7-13-1-14-3-1-3 4m23-2q3 5 0 11-6 12 0 24c3 7 3 8 0 14q-7 10-1 22l3 8-3 7q-6 14-1 23c4 6 4 8 0 16q-5 15 1 24c2 1 1 8-2 13q-4 10 0 21c4 7 4 9 1 15q-5 11-1 21c3 8 3 10 2 14-6 12-6 13-2 23 3 10 3 10 0 18q-6 11 1 21 3 9 1 13c-5 3-6 17-2 25l3 6-1 5-4 8q-3 8 2 17c4 7 4 9 0 15q-4 12 0 23c4 6 4 7 0 16-4 8-4 10 0 19 4 10 4 12 0 18-4 8-4 12 2 23q3 5-1 12l-4 10v5h3q5 1 4-4l2-7c4-9 4-10 1-17-5-10-4-16 2-26q2-5-1-11-7-8-1-23c4-7 4-7 0-14q-6-12-1-22c4-9 4-9 1-16q-6-12 0-21c3-8 4-10 0-17q-6-11-1-21c4-7 4-9 1-15q-5-12 0-23 6-7 0-15-6-10 0-21c3-8 4-9 2-13q-9-15-2-26c4-6 4-8 1-15-5-9-5-13 0-23q4-6 0-14c-4-8-4-13 1-25l2-5-2-6c-5-11-5-15-1-23s4-8 0-15c-3-8-3-19 1-24q4-6 0-13-6-11 0-22 8-14-3-15-4 0-3 2m27 2q1 4-3 9-5 12 0 23 5 7 0 14c-4 6-4 18 1 25q4 2-2 15c-4 9-4 11 0 20l3 8-3 6q-6 13 0 24l2 6-2 6q-6 14-1 25c4 6 4 7 0 14q-4 10 0 24l3 6-3 6q-4 14 0 26 5 6-1 14c-3 4-2 15 1 22 4 7 4 7 1 11q-7 13-2 26c3 7 3 10 0 17q-5 8 0 19c4 7 4 9 1 14q-5 12 0 26l3 6-2 4c-5 11-6 16 0 27l2 5-3 8q-6 12 0 24l3 5-3 6-3 11v6h3q4 2 3-6l4-10c3-6 3-6-1-13q-5-12 1-24l3-6-3-6q-6-12-1-25c3-7 3-7 0-15q-5-11 0-22c4-6 4-7 0-14q-6-11 1-24 3-6 2-8-9-18-3-28 6-8 0-15-5-11 0-22c4-6 4-9 0-17q-5-11 1-22 6-6 0-13-6-11 0-23c4-7 4-7 0-15q-6-11 0-23c4-6 4-7 0-15q-6-10 0-21 5-8 2-13-7-14-1-25 5-6 0-15-6-11 0-22c4-7 4-8 1-15q-6-11-1-21 7-13-1-14-4-1-2 4m24 1-2 10q-6 12 0 23l2 6-2 5q-7 12-1 24c3 7 3 7-2 18q-3 11 2 21c3 5 3 6-1 14q-6 12 1 23c2 5 2 5-3 17q-3 8 3 22c3 5 3 5-1 12q-6 10-1 22c4 7 4 9 0 15q-6 9-1 20c4 9 5 11 1 17q-7 12 2 27c1 3 1 4-2 11q-6 12 0 23 5 7-1 16-4 9 1 21c3 6 3 8 0 14-4 9-5 21-1 26l3 4-3 7q-5 12 1 22c3 7 3 9 0 16q-6 11-1 21c4 7 4 8 2 12l-3 7-1 7q-1 5 4 4 4 1 3-4l2-9c4-8 4-9 1-15q-6-12-1-22c4-9 4-9 1-16-4-9-4-14 0-23 4-7 4-7-2-19-3-7-2-9 2-18 3-7 3-9-1-15q-4-11 0-21c4-8 4-9 0-17s-4-11 1-21q5-9 0-15-6-12 0-22c4-7 4-8 0-15q-6-14 2-26 3-3-2-12l-3-12 3-10c4-7 4-8 0-15q-5-12 0-22c4-6 4-8 1-14q-6-12 0-24l3-7-3-7c-4-9-4-13 0-23l4-7-3-6q-6-12-2-22c5-12 5-10 2-17q-6-12 0-24 6-11-2-12-3-1-2 5m25-2-2 8c-4 10-5 15-2 24l3 9-3 8c-4 9-3 13 1 21 3 6 3 8-1 14-4 8-3 24 1 27q2 2-1 10c-4 10-5 15-1 23 4 7 4 8 0 15q-6 12 0 23c4 7 4 6 1 12-6 12-6 12-2 22 4 11 4 11 1 18a26 26 0 0 0 0 22q5 8 0 14-8 10 1 25l2 5-3 6q-5 12-1 22 5 10 1 19-6 12 0 23 4 6 0 12-7 13 0 25 3 5-1 14-5 10 0 21 5 7 0 16-5 10 1 22c3 6 3 8 0 14q-3 4-3 10l-1 5h7v-6l4-10q5-6-1-13c-4-8-3-19 2-24q4-5-2-14-5-12 0-21 6-7 0-15-5-12 0-23c4-7 4-8 0-15q-5-13 0-23c4-6 4-8 0-14q-6-10 0-24c4-6 4-8 0-14-3-6-3-16 0-22 4-6 4-8 1-15q-6-11 0-23c3-6 3-7 0-14q-6-11 0-24l3-6-3-7c-4-9-4-14 1-24q3-6 1-9c-6-11-6-17-2-26 4-8 4-9 0-16q-7-14 2-24 3-4-1-14-6-12 0-21c3-7 3-9 0-16-3-5-3-15-1-20 5-9 5-9 4-12-2-5-7-4-6 0m24-1q1 6-2 12c-4 5-4 15-1 22q5 9 2 11-8 9-3 24c3 9 3 10 1 16-4 7-4 18-1 23q4 6 0 14-6 13 0 25c3 5 3 5-1 13q-5 10 0 21c3 6 3 9 0 17-4 9-4 12 1 22 2 7 2 7 1 10-6 11-6 16-2 26 4 9 4 8 0 17q-6 11 0 22l3 6-3 6q-6 14 0 24c3 7 3 9-1 17q-4 10 1 22 5 6-1 13c-2 5-3 15-1 19l2 5q4 5 0 13-6 11 0 24l3 7-3 7q-6 14 2 26 2 4-2 10-3 7-3 13-1 4 4 3 4 1 3-4l3-11q5-7-1-16-4-9 0-20 5-10 2-15-7-9-1-23 5-8 0-16c-4-7-5-10-2-18 4-11 5-13 2-18q-6-12-1-22c4-8 4-9 0-18-4-8-4-12 0-20q5-8 2-14-2-4-1-6l-1-4q-4-6 1-14c3-6 3-8 0-14-3-5-3-17 0-22q4-9 1-14-8-15-1-25 4-7 1-13-7-9 0-26l3-5-3-6q-6-12 0-24l3-7-3-7c-4-10-4-14 0-23l3-7-2-5q-6-14 0-26c3-6 3-8 0-14q-6-12 0-22 6-12-2-13-4 0-2 2m25 2q1 4-2 8c-5 8-5 12-2 23l3 9-3 8q-6 13 0 20 5 8-1 17-5 9 1 23l2 6-2 6q-6 12-1 25l3 7-3 5q-6 13 0 24c4 8 4 7 0 14q-6 12 0 24c2 6 2 9-2 17q-3 9 1 19c4 8 4 8 1 15q-6 11-1 23l2 8-2 6c-3 5-3 17 0 22 3 6 3 8 0 16-4 9-4 12 0 22l3 8-2 5c-4 9-5 20-1 25q3 5 0 14-5 12 0 24l3 7-3 6q-4 11 0 23c4 7 4 9 1 15q-6 12 0 14c3 0 3 0 4-8l1-5q6-7 3-13-8-14-2-26c4-6 4-8 0-14q-6-11 0-23c4-7 4-7 0-15-4-9-4-14 0-23l3-7-3-7q-6-12 0-23l3-6-2-5-3-7q-3-8 2-20l3-6-3-8q-6-12 1-23c3-7 3-8-1-14q-3-5-2-12c0-5 0-7 4-14 2-4 1-5-2-11q-6-13 0-23 6-6 0-14-5-12 0-22c4-7 4-10 1-17q-6-10 0-21c4-7 4-9 0-14q-6-11 0-22c4-8 4-8 0-17s-3-14 2-23c3-5 2-6-2-15q-3-9 1-20 6-12-2-14-3-1-1 4m23 0v7c-6 11-6 15 0 28 2 4 1 5-2 11q-6 11 0 23c3 7 3 8-1 15q-4 13 0 24c4 5 4 5 0 12q-5 10-2 20c4 11 5 12 2 17-4 9-5 20-1 24q4 4 1 14-7 14 0 26 3 4 0 10c-5 12-5 16-1 25l3 6-3 8q-6 13 0 22 5 8-1 16-5 8 1 22c3 7 3 9 0 15-3 5-3 17 0 23 3 5 3 7-1 14-4 10-4 14 0 21 4 8 4 9 0 16q-3 5-2 12 0 6 2 11c4 6 4 8 1 15a25 25 0 0 0 0 22c3 7 3 9 0 15q-6 14 0 14 4 1 3-3l3-11c4-8 4-8 0-16q-4-10 0-20c4-9 4-9-2-23-2-3 0-12 3-17q3-8 0-13c-3-3-5-16-3-19l3-6 3-6-3-6q-7-13 0-26 4-4 0-12c-5-10-5-15 0-24 3-5 2-7-1-14l-2-10 2-10c4-8 4-10 0-17q-4-12 0-21c4-9 4-9 1-15q-6-14 1-27 3-4 0-10-7-14 0-26c3-4 3-5-1-11q-5-13 1-25l3-6-3-7q-4-12-3-18c5-10 6-14 3-20-4-8-4-12 1-21l3-8-3-7q-6-12 0-23 7-13-2-14h-3zm25-1-2 10q-6 12-1 22 5 8 0 17-4 10 0 20 3 7 0 15c-4 12-4 15 0 25 2 5 2 5-1 16q-5 12 1 19 3 5 0 13c-5 11-5 16 0 27q3 6 1 9c-5 7-6 19-2 26 3 5 3 7-1 15q-4 13 0 22c4 6 4 8 0 15q-5 12 1 23c3 6 3 7 0 14q-6 10 0 23l2 7-2 6q-6 13-1 24l3 7-3 7q-5 13 0 23 4 7 1 12-7 15 0 26c2 6 3 5-2 18q-4 10 2 20c3 6 3 7-1 15q-6 13 1 13 4 1 3-4l3-11 3-7-2-5-3-7c-2-3-1-12 3-19l2-6-3-7q-4-12 0-23c4-8 4-8 0-15q-6-11 0-22c4-7 4-7 0-15q-6-12 0-22c4-7 4-8 0-15q-6-12 0-22c4-7 4-9 0-15q-6-11 0-22 5-11 2-14-8-11-1-26c3-7 3-7-1-14q-5-12 1-22c3-6 2-7-1-16-4-8-4-12 0-20s4-10 0-17q-5-11 2-23c3-5 2-6-1-15-4-8-4-11 1-21l3-6-3-8q-6-12 0-22c4-8 4-9 0-15q-5-12 1-22 7-14-2-14-5-1-3 3m24 3-2 10q-6 6 0 19c3 7 3 9 0 16q-6 12 0 22 5 8-1 16-4 10 0 21c4 7 4 7 0 14q-5 11-1 20c4 10 4 11 1 18-4 8-4 13 0 23l3 7-3 6q-5 11-1 22c3 9 3 10 1 16-5 9-5 12 0 26 2 4 2 6-2 16q-4 9 2 21c3 5 3 5-1 11q-6 12 0 24c4 7 4 7 0 14q-5 12 0 24 5 7 0 13c-4 7-4 19 1 26q3 4-2 12-5 12 1 23 4 7 0 14-7 13 1 24 3 5-1 13-4 10-3 13c1 3 7 3 7 0-1-3 1-11 4-14q5-6 0-12-7-12-1-26 4-5 0-13-6-11 0-23l3-6-3-6q-6-14 0-27l3-5-3-6q-6-13-1-24c4-6 4-8 1-14-5-10-4-14 1-25l2-5-3-7q-6-13 0-25c4-6 4-8-1-14q-5-7 2-24l2-6-3-6q-6-12 0-25c3-5 3-5 2-9-5-10-5-13-5-18l3-9c4-6 4-8 0-14q-5-11 1-23c3-7 3-8-1-15q-6-12 2-24 4-6 1-10c-2-1-5-9-5-13q0-3 4-11c3-7 3-7-1-17q-5-11 1-20 6-14-1-14h-3zm23-5 1 4q4 3 0 12-6 12 0 23c3 7 3 7-1 15q-6 11 0 22c3 7 3 9-1 15q-4 12 0 23 4 6 0 14c-3 6-3 20-1 23q5 6 2 11-9 12-1 27l2 6-3 7q-6 13 1 24 3 4-1 14-6 14 1 23 3 4-1 13-6 12 0 23l2 8-2 7q-5 10-2 22 2 4-1 10-4 15 2 28c4 7 4 7 0 15-4 9-4 14 0 23l3 7-3 7c-4 9-4 14 0 23 3 7 3 7 0 14-3 5-4 15-1 22q3 8 0 15-6 12 0 11 4 1 4-2l3-8q5-10 1-14c-5-6-4-18 1-26q3-4-1-13-6-11 0-22l3-7-3-8q-6-11 0-21 4-9 1-14-6-7-2-32v-10q-5-8 1-19c4-8 4-10 0-17q-6-9 0-21 5-9 2-13l-4-7q-2-10 4-19 3-6-2-15-4-10 0-21 5-8 1-15-7-15 1-25 4-3 0-11-7-14 0-24 5-7 0-14c-4-5-4-17 0-23s4-8 0-14q-5-9 1-23c4-8 4-7 0-14q-6-10 1-22l3-8-2-5a5 5 0 0 0-9-4m26 1 2 5-3 10c-4 8-4 13 1 24l2 6-3 7q-6 11-1 21 4 9 1 14c-5 13-5 17-1 24 3 6 3 8 0 15a27 27 0 0 0 0 22q5 6-1 17-5 11 1 23l2 5-3 7q-6 12 0 22l2 8-2 8q-6 11-1 22 4 7 1 13-7 13 0 26 4 5 0 12-7 13-1 27 3 7-1 14c-2 4-2 15 1 22 2 5 2 6-1 16q-4 10 1 20c2 6 3 7 0 12q-6 14-3 20 6 11 3 18-7 13-1 24c3 7 3 8 0 16q-6 12 0 10 4 1 4-4l4-9 2-5-2-6c-5-12-5-17 0-25 3-6 3-7-1-15-4-9-4-13 1-22l3-7-3-7q-6-10 0-24l3-7-3-7q-6-13-1-22 4-4 0-13-5-13 1-24c4-7 4-9 0-15q-6-10 0-22c4-9 4-9 0-17q-6-12 0-21 6-7 0-15-4-11 0-22c4-7 4-8 0-16q-4-11 0-21 6-9 1-15-6-10 0-21 6-10 1-16-5-12 0-23 6-6 1-13-6-12-1-23c4-7 4-10 0-17q-5-11 1-21a12 12 0 0 0 0-16l-3-1q-4 0-3 2m24-2 2 4q2 5-2 12-6 11 0 23c3 7 3 9-1 15q-6 10 0 22l3 8-3 7q-6 12 0 23l2 7-3 7q-4 13 0 24l3 6-3 7q-6 13 0 24 5 6 0 13c-4 9-5 13-1 21q4 11 1 15-7 12-1 25c2 5 2 6-1 15q-4 10 1 23l2 6-3 7q-5 13 0 23c4 8 4 10 1 16-5 8-5 12-1 20l3 8-2 5q-7 16 0 27 3 7-2 17c-3 7-2 10 1 20l3 7-3 6q-6 12 0 24l3 6-3 7q-6 12 0 12 4 1 4-4l3-8q4-8 1-11c-5-4-5-18 0-27 3-5 3-5-1-13q-6-12 0-22c4-8 4-8 0-16q-6-9 0-22c4-7 4-8 0-15q-6-11 0-23 4-7 2-9c-6-14-6-20-1-30 4-5 4-5-1-12q-6-10-1-19c5-10 5-12 3-17q-9-13 0-27l2-5-3-6q-6-13 0-23c4-8 4-8 0-14-4-7-4-18 0-24s4-8 0-15c-3-7-3-17 1-22q6-6 0-15-4-11 0-21 6-8 1-16-6-11 0-20c4-8 4-10 2-14q-9-15 0-27c3-5 3-6 0-11a5 5 0 0 0-8-4m24 0 2 5c3 5 3 5-1 13q-6 11-1 21 5 9 1 13c-4 10-5 16 0 26 3 6 3 6-1 13q-7 11-1 22c3 6 2 9-2 20l-2 8 3 9 3 10-3 6q-4 11 0 22c4 7 4 9 1 14q-7 12-1 23c4 7 4 7 1 12-5 11-5 16-1 25 3 8 3 8-1 16a27 27 0 0 0 0 22c4 8 4 7 0 14q-5 12 0 24c4 8 4 8 0 15q-6 10 0 22c3 6 3 8 0 14q-4 11 0 23c3 6 3 8 0 15q-3 6-3 10l3 11c3 9 3 9 0 14q-5 12-1 23 5 9 0 16-4 10 0 11 3 0 4-3l3-9c3-6 3-6 1-10-4-13-5-18 0-26q4-7 0-15-6-12-1-22 6-7 1-15-6-13 0-23c4-6 4-8-2-18-2-4-1-13 2-19 4-7 4-7 0-15q-6-12 0-22c4-7 4-7 0-15l-3-12 3-10c4-7 4-9 0-15q-6-11 0-22c4-8 4-9 0-17q-5-11 1-22 5-6-1-14-5-11 1-24l3-6-2-5q-6-17 0-26c3-5 3-6 0-14q-6-12 0-22c4-6 4-8 0-14q-5-13 1-24c3-5 3-7-1-14q-5-10 1-22 7-15-4-17zm25 1 2 3q3 5-2 13-4 11 0 22 5 8 0 14-6 15 0 25 3 4-1 13-5 9 0 22 3 10 1 13c-5 3-6 17-2 25s4 7 0 15q-6 11 0 22c3 6 3 7-1 16q-5 13 0 21 4 7 0 16-5 11 0 20 5 7 0 16-5 11-1 21c3 9 3 10 1 15q-6 11-1 23c3 8 3 11 0 17q-4 9 0 20c3 8 3 9 0 19q-4 11 1 20 4 6 0 13-4 11-1 18 7 12 0 26-3 6 0 14c3 7 3 10 1 17q-6 12-1 12 3 1 4-5l3-9c2-4 2-6-2-15-3-7-2-11 2-20l3-6-3-6q-6-12 1-27 5-6 0-11-7-12-1-23 4-8 1-13-6-15 0-27 4-5 0-12c-4-6-3-18 0-26l3-6-2-5q-7-12-1-24c4-8 4-8 0-15q-6-12 0-23 5-7 2-10a27 27 0 0 1-2-27c4-6 4-8 0-14q-5-10 1-23l3-7-3-7q-6-13 0-22t1-16q-6-10 0-22 6-7 1-13c-5-11-5-15 0-25 3-5 3-6 0-13q-6-13 1-24c4-7 1-16-5-16zm25 2q3 7 1 13-7 15 0 25 3 4-2 13-6 11 0 23c4 8 4 8 0 15q-6 12-1 21 6 8 1 14-6 11-1 22l3 9-3 8q-5 9-1 20c3 9 3 9 0 17-4 10-4 15 1 23q3 6-1 15-6 11 0 22 5 8 0 15c-4 8-4 14 1 26q3 3-1 10-6 12-1 22t0 16q-4 12 0 23 6 7 0 15-5 7 1 22l2 8-2 6q-7 12-1 24l3 7-2 6q-6 12-2 22c4 9 4 10 1 17q-6 11 0 10 3 1 3-2l3-9 3-7-3-7q-4-13 0-23 6-8 0-15-4-12 0-23 6-6 1-14-6-11-1-22c4-7 4-9 1-15-5-10-5-13 1-26l2-5-3-6q-6-11 0-22 4-9 0-17-6-10 2-24 2-5-1-10c-5-10-5-16 1-26 2-6 2-8-2-15q-5-10 1-21c4-8 4-8 0-14q-3-5-2-12-1-7 2-12c4-6 4-8 0-15q-5-12 1-22c4-6 4-8 1-14q-6-11 0-24c4-6 4-6 0-13q-6-11 0-23c4-7 4-7 0-15s-4-13 1-23l3-6-2-5q-1-5-5-5h-4z"
        mask="url(#16282281824-posters-1720553956018-vertical-mask)" itemprop="medium" fill-opacity="0.90"
        fill-rule="evenodd" stroke="none" fill="url(#16282281824-posters-1720553956018-vertical-medium)"></path>
      <!---->
      <path id="16282281824-posters-1720553956018-bold"
        d="m16 1-3 8q-6 11 0 21 5 9 0 15-6 11-1 21c3 8 3 9 0 16q-6 11-1 21l3 8q1 2-2 6-7 15 0 25 3 5-1 15-6 11 0 21 4 8 0 17-6 10-1 20 6 8 0 16-6 10 0 22c3 7 4 8 2 12q-8 14-2 26 5 6 0 15c-4 6-4 17 0 24 3 5 2 6-1 13q-5 11 0 20c4 8 4 8 1 15q-6 12-1 24c4 7 4 7 1 12q-8 14-2 23c4 8 4 10 0 18a19 19 0 0 0 0 21c3 3 5 10 4 11q-5 2-5 8l-1 2v12q1 4 5 3 4 1 2-2c-3-3-2-13 1-19 4-7 4-9 0-14l-3-10c0-5 0-7 5-18 1-4 1-4-2-10-4-8-3-23 2-25q3-4-1-12-6-13 0-24 5-8-1-14-5-11 0-22 5-7 2-12-7-16-1-24 6-7 0-16-6-12 0-22c4-8 4-8-2-20q-3-7 2-17c4-7 4-9 0-16q-6-13 2-24 3-4-2-14t2-22c3-7 3-7-1-15q-5-11 1-21c4-8 4-8 0-15q-4-9 0-22c4-7 4-8 1-15q-6-12 1-24l1-3v-1q2-1-3-11t1-19q7-10 1-9zm22 4c-5 11-5 15 0 26q3 6-1 14-7 12-1 19c4 8 4 10 0 17q-6 11 0 22c3 7 3 7 2 11-6 12-6 17-3 25 4 8 4 9 1 15q-6 12-1 24 5 7 2 10-9 16-1 28 5 7-1 13-7 10 2 27 2 4-1 9-8 12-1 25c2 5 2 6 0 11q-4 11-4 16 2 9 4 10 3 6-1 16l-3 9c0 4 0 5 4 13q3 5-2 15t1 19q5 8-1 17-4 11 0 22 5 9 2 12-8 10-2 25c4 7 4 7 0 15-5 9-3 22 3 22q3 1 1-5c-3-5-3-7 2-18q3-8 0-14c-5-5-4-16 0-24q3-6 1-12-9-9-1-22c4-9 4-9 1-15l-3-7-1-4c-1-2 1-11 3-13 2-3 2-11 1-13-4-6-4-23-1-25q5-6-1-15c-2-4-1-16 1-22 4-7 4-8 1-14q-6-10 0-24 3-7-1-15-4-9 0-21c4-7 4-8 0-15q-5-12 1-23c4-6 4-8 0-14q-6-10 1-23l3-7-3-6c-3-6-4-15-2-19l3-6q3-6-1-12c-1-3-3-14-2-15l1-3 2-6q5-7 0-15-4-12 0-23c4-6 4-7 1-13q-6-11 0-21c4-8 4-8 0-8q-2 0-5 5m27-3-5 10v13l2 4 1 3q2 4-1 12-6 10-1 22 5 11-1 15c-3 4-2 16 1 23s3 8 1 12q-8 12-1 25c3 6 3 6 0 12q-8 12-2 22l3 9q1 2-2 8-7 14 0 24 4 5 1 11c-6 11-6 14-2 24 4 8 4 8 0 16q-6 11 0 22c4 8 4 7 0 15q-6 11 0 23c4 7 4 6 0 14q-6 12-1 22c4 6 4 8 0 15q-4 12 0 23c4 6 4 7 0 14q-4 12 0 23c4 7 4 9 0 15q-6 12 0 23 6 7 0 13-4 8-3 18 0 6 5 5 4 1 2-2-4-10 2-21 5-6-1-14-6-11 0-22c4-7 4-8 0-15q-6-12 0-22 5-9 1-13l-2-5q-4-9 1-19 6-9 1-15-8-12 1-25 3-5-1-13-6-12 0-22 4-9 0-15c-4-6-3-22 1-24v-11c-1-1-4-11-4-15l3-10q5-7 2-12c-5-10-5-11-4-17l3-10q4-5 0-12a17 17 0 0 1-2-17l3-8q4-7-2-14c-2-4-1-16 2-23l3-6-3-6q-6-13 0-22c4-8 4-9-1-21-2-3-1-13 2-17q4-7 1-14-6-11 1-25 5-6-1-5-3 0-3 2m23 2-2 5c-2 2-2 12 0 19q5 12 0 17l-2 5-1 4q-1 3 3 13 3 6 1 13l-3 6q-3 5-1 11l5 13-5 12c-2 1-1 12 2 17q5 7-1 16-6 13 0 22 6 6 0 14-5 10-1 19c4 9 5 11 1 18q-6 12 0 25c3 7 3 8 0 14-4 5-4 16-1 21 2 4 3 12 1 15q-7 9 0 25 3 5-2 14c-2 5-2 16 0 19 4 6 4 16 1 16-1 0-4 12-3 13l2 6 2 6v12c-6 10-6 13 0 27q2 5-1 10-5 12-3 19c7 13 7 14 4 19l-3 5-1 3v12q1 3 5 3 4 1 2-2c-2-4-2-16 1-21q5-7 1-12-9-13 0-28l2-4-2-6-4-12c0-3 1-10 3-12q4-7 1-13c-5-10-5-15-1-26q3-7 0-11c-5-10-5-12 0-23l3-9-3-6q-4-12 0-24c4-7 4-8 1-14-4-7-4-18 0-23 3-6 3-8 0-14q-6-13 0-22 4-7 0-16-5-12 0-22c4-6 4-8 0-15-4-10-4-14 0-21q5-9 2-14-7-15 0-25 4-5 1-10c-6-12-5-19 0-29q5-4-1-13-5-12 1-22c3-7 4-7 1-11-4-9-4-21 1-27q3-5-2-5-3 0-4 4m26-3-3 7c-4 9-4 13 1 25q2 6 1 9c-5 3-7 18-3 25 4 6 4 8 0 15q-6 13 0 23 4 6-1 16-4 10 1 22c3 5 3 6 0 12-5 10-6 16 0 26 1 3 1 4-3 15q-5 9 1 18c4 8 4 10 0 17-4 6-4 18 1 23q3 5-1 14-6 13 2 25c2 3 1 4-2 12q-6 13-1 22 5 7 2 13l-3 5c-3 2-2 13 1 19q6 9 0 15-5 10 0 22 6 9 0 15-6 11 1 25 4 5-1 12c-4 7-4 18 0 24 4 5 4 6 1 12-5 10-5 22 1 23h3l-2-3q-3-8 2-18 6-7 0-15l-2-10c-1-6 2-14 3-14 3 0 2-7-1-13q-7-14 2-25 3-5-2-14-6-10 0-21c4-6 4-8 0-15q-5-11 1-23 5-7 0-13-8-13 0-24 4-6-1-16t1-22q5-7 0-15c-4-8-4-12 1-23l3-6-3-6c-5-10-5-11-1-22 5-10 5-9 1-16-3-6-4-19-1-21q6-5 2-16c-4-8-3-22 2-26q2-3-3-13-5-9 1-20c4-7 4-9 1-14-3-6-3-17 0-23q4-8 0-16-4-9 1-22 6-9 0-7zm27 1-4 9-2 7q-2 9 3 15v13q-8 11-1 23 5 8-1 15-4 12 0 23 5 7 0 16-6 8 0 21l3 8-3 6q-6 12-1 23c4 6 4 8 1 15q-6 11 0 23c3 7 3 8-1 14-3 5-3 19-1 22q7 7 1 16-6 12 1 23c4 6 4 6 0 14q-7 12-1 23 6 8 1 13-9 13 0 25c4 6 4 5 0 13l-4 9q-2 4 4 18l2 5-3 6q-4 12 0 24 5 8 2 10c-4 2-6 18-1 27q5 8 0 13c-5 8-5 18-1 18q3 2 3-6 0-6 2-10 6-10 1-16c-4-5-4-17 0-23 3-5 3-8-2-18-2-4-2-15 1-20q6-7 0-13-2-4-2-11c0-6 0-8 4-15v-10c-7-12-7-16 0-29 1-3 1-3-2-9q-6-12 0-25 5-9 2-10c-5-2-6-18-2-27 4-7 4-8 0-14q-6-10 0-21c4-8 4-10 0-17q-5-11 0-21 6-9 1-16-6-10 0-22 4-7 1-14c-4-7-4-8-4-13l4-11q3-6 0-13a19 19 0 0 1-2-19l2-6q3-6 0-13-5-11 1-24l3-6-2-5q-7-12-1-24 6-11 0-11-3 0-2 2m24 1-1 5c-2 2-5 11-5 14l4 13q3 4-2 13-5 12 0 23c4 6 4 7 1 13q-8 14 0 25 3 6-1 13c-3 4-4 20-1 23q5 6 0 16t0 20q5 8 0 16-5 12 0 24l3 6-2 4c-5 11-5 17-1 26q4 8 1 13c-5 5-5 16-1 24q5 7-1 16-4 11 0 18 5 8 1 19c-4 7-4 19 1 23q3 4-2 15c-4 8-4 11 1 20q4 11 1 14c-5 6-5 21 0 26q3 3-2 17-4 10 1 19 5 8-1 18-5 11 1 13h3v-5q-2-5 1-8c4-8 4-11 1-18q-4-14 0-23 5-7 0-15-4-11 0-23 5-8 0-14l-2-6-1-4c-1-2 1-10 4-15s3-5 0-11q-9-15 0-27 3-6-1-11c-4-6-4-19 1-25v-11c-3-6-5-14-4-16l1-4 2-4c2-5 2-13 0-16l-2-4-1-3c-1-1 1-16 3-17q4-3 1-12c-4-7-4-18 0-25q3-6-1-14-5-11 1-23l3-6-3-7q-6-11 0-24 5-8 2-10c-5-6-6-21-1-28q5-4 0-13a23 23 0 0 1 0-23q4-4 1-12c-5-11-5-16 0-25q4-9 0-10t-3 3m24-1q1 2-2 8-6 14-1 24 5 8 1 13c-4 4-4 20 0 25v12q-8 9-2 23l3 8-3 8c-4 8-3 20 1 25 2 1 1 8-1 11l-2 5q-3 8 2 18 4 8 1 11c-4 4-5 18-1 26q5 8-1 16a25 25 0 0 0 0 22l2 3c2 0 1 7-2 11a25 25 0 0 0 1 25l1 1c3 0 1 9-3 16q-3 7 2 19l3 6-3 6q-6 14-1 24c4 7 4 8 0 15q-4 12 0 23c4 6 4 8 0 15s-3 22 2 25c2 1 2 9 0 10-5 3-5 15-1 25 3 7 3 7 2 11q-9 18-3 20 3 1 3-5 0-5 3-11c3-7 3-9 0-16q-5-9-1-20l3-7q1-3-4-13c-2-4-1-14 2-19q5-9 0-16-6-11 0-21c3-7 3-10-1-17q-4-10 0-21 5-7 2-11-5-9-4-14-1-6 2-10c3-8 4-11 1-18q-6-11-1-21c4-8 4-9 0-16q-5-11 1-22 4-9 1-13c-2-2-4-10-4-14q-1-3 4-12c2-5 2-7-2-15q-5-9 1-21c4-7 4-6-1-18-3-8-3-10 2-19l3-7-3-6q-6-14 0-24c4-6 4-8 1-14q-7-11-1-22c4-8 4-9 1-17q-6-10 0-20 6-12 0-12-4 0-3 2m24 2v6c-4 5-6 18-4 22 5 9 5 11 1 18q-4 12 0 22c4 7 4 8 0 16q-6 12 0 22c4 5 4 6 0 13-3 6-4 16-2 19q6 9 2 19-6 11-1 22 5 8 0 16c-3 5-3 15-1 20 4 8 4 10 1 18-4 10-4 12 2 23l2 5-3 7q-7 13 0 25c3 5 3 5 0 12q-6 12-1 23c3 8 3 10 1 14-5 9-5 14 1 29q2 2-2 9-5 12 0 23 4 8-1 17c-2 4-2 14 0 19 4 8 4 9 3 13l-3 6c-2 4-1 15 2 21l3 6-3 7q-6 15 0 16 3 1 2-5l3-10c4-7 4-7 0-14a24 24 0 0 1 1-26l2-5-3-6c-4-8-4-21 0-26q5-4-1-13-5-12 0-22 6-8 0-14-6-9 1-27l2-5-3-7c-4-10-3-16 2-26q2-3-2-10-5-13 0-24 6-6 0-13c-3-7-4-18 0-24q6-6 0-14-5-11 0-23c4-7 4-9 0-15q-6-9 1-23c4-7 4-7 0-14q-6-10 0-21c4-8 4-9 0-17q-5-12 1-21 5-6 0-16c-3-8-3-18 0-22q6-6 1-13-5-12-1-23l3-4 1-4V0h-7zm25-1q1 2-2 9-6 12-1 23c4 7 4 7 1 13-6 12-6 14 0 26l2 5-2 6c-6 10-6 14-1 25q4 6 0 13c-5 9-5 13 0 25q4 6-2 15-4 9 1 21c4 7 4 7 0 13-4 9-4 22 1 27q2 4-1 12-7 13 1 24 2 5-1 13-6 10 0 22c3 7 3 8 0 15-4 8-3 21 1 26q3 3-2 11-4 12 0 22c4 7 4 9 0 16-4 9-4 12 2 27q2 6-3 12c-2 3-2 15 1 20 4 6 4 9 1 17q-6 11 0 21c3 7 3 9-1 16q-5 12 1 14 4 1 3-5 0-5 3-11l3-6-3-6q-7-13-1-25c4-6 4-7 0-15q-6-11 0-22 4-6 0-14c-3-6-3-18 0-23q5-8-1-16l-2-8c-1-2 0-10 3-15q4-6-1-14-4-11 0-21 6-8 1-16-4-12 0-23 4-7 1-12a28 28 0 0 1-1-26c3-6 3-7-1-15q-4-10 1-21 5-8 0-14-6-12 2-26l2-4-3-7q-6-12 0-25l3-6-3-6q-6-12 0-23 5-8 2-11c-5-5-6-20-2-27q5-7 3-11-7-16-4-19l1-4 2-4 2-9q-5-5-6 1m24 1-2 9q-4 11 0 21 4 8 1 13-8 10-2 23c4 9 4 10 0 17-4 8-4 12 0 21l3 8-3 7q-6 12 0 22c4 8 4 8 0 16q-6 11 0 22l2 8-2 8q-6 11 0 22l2 7-2 7q-6 12 0 24 5 9 2 9l-2 3-2 5c-2 4-2 14 1 19q6 7 0 15c-3 6-3 17 0 23 4 6 4 7 1 13s-4 20-2 22l4 9-3 6q-5 12-1 21 7 11 1 18c-3 6-3 16 0 21q4 7 3 10 1 2-4 9-3 9 2 20c3 7 3 8-1 16q-4 11 0 14 4 1 3-4l3-11q4-11 0-14l-1-3-1-2c-2-2 0-17 3-20q3-6-2-14-6-11 2-26 3-3-2-11-5-11 0-23c4-7 4-9 0-15q-4-13 0-22 5-9 2-13c-5-4-6-17-1-25 3-6 3-8-1-14a26 26 0 0 1 2-26q3-2-2-11c-2-6-3-16-1-20l2-5 2-5-2-5-2-5q-3-8 1-19c4-8 4-10 0-17q-5-10 1-21 4-10 1-13c-5-3-5-17 0-27 3-5 2-7-1-14-4-9-4-14 2-23q3-4 0-10-7-16-1-25 5-6 0-15c-3-6-3-16 0-21 3-6 3-13 0-13q-3-1-3 4m25 1q0 5-2 9-6 8 0 20 4 8 1 11-9 14-1 27 3 8-1 14c-3 4-3 16-1 22q4 8 0 15c-3 6-2 18 1 24q3 7-1 13c-2 4-3 17 0 22q5 8 0 17c-3 5-3 15 1 22 2 6 2 8-1 14l-2 6-1 4v2l1 4 3 8 3 6-2 5c-6 9-6 15-1 26q3 8-1 14l-2 6q-3 9 3 17 3 4 0 11l-4 9 3 16c2 0 3 9 1 13q-7 16 0 26 3 6 0 12-9 12 0 26v12c-5 6-5 18-1 24q5 4 0 14-6 16 1 16 3 1 2-5 0-5 3-11 5-8 2-9l-1-2-2-5c-3-5-3-15 1-21q5-7-1-15-4-11 0-24c4-6 4-7 0-14l-3-7c-1-2 1-13 3-16q3-5 0-14c-4-11-4-15 1-27 2-4 2-4-1-10q-4-13 0-24c4-6 4-7 0-13q-4-11 0-23c4-7 4-9 0-15-2-6-3-16-1-20 4-8 5-11 2-17l-3-7-1-4v-1l1-4q0-3 3-7c3-6 3-7 0-14q-6-12 0-23l3-7-3-7a23 23 0 0 1 0-22q6-9 0-16-6-10 0-22 6-7 0-16-4-10 0-20 6-9 1-17c-4-7-4-18 1-23 2-3 2-10-1-10q-3-1-3 5m25-1-2 8q-7 15 0 27l3 3-3 5c-6 13-6 17 0 28q3 4-2 15-5 10 1 21 3 6 1 11-9 16-1 26 3 4-1 14-5 11-2 18l2 5c2 3 3 12 1 12-4 3-5 18-1 25l2 8-2 7q-5 9-2 17c6 10 6 14 1 22l-2 8q0 5 4 15 3 5-1 12a24 24 0 0 0 1 24l2 5-3 8q-6 16 2 26 3 2-2 11-6 11 0 22 5 9-1 16-5 10 1 23 5 8 2 11-9 13-1 29 3 5-3 17-3 8 1 9 3 1 4-6l4-11 2-5-3-7q-6-12-3-18 7-12 2-20-6-10-1-22 6-7 0-15-4-10 0-22c4-7 4-9 0-16q-4-11 0-22 6-6 0-16-4-11 1-21c3-7 3-8 0-15q-6-13-1-22c4-6 4-8 1-15-4-10-4-15 2-25l2-5-3-6c-5-11-5-17 1-27l2-4-2-5q-9-16 0-28 4-6 0-9c-5-5-6-17-1-25 4-7 4-7 0-14q-4-12 0-24c4-6 4-7 0-15q-5-12 1-22 4-7 0-15-6-12 0-22t1-11l-2-1-2-1zm25-1-3 11q-6 10 0 21 5 9 0 15-5 8-2 18l3 7c2 0 1 8-1 12q-7 11-1 22c4 8 4 9 0 15q-4 11 0 23c3 6 3 7-1 15q-5 13 1 24c3 5 3 6-1 15q-4 9 0 18 5 9 1 17-6 11 0 24l3 7-3 4c-4 7-4 20 0 27l3 4-3 7q-6 14 0 25 5 7 0 13c-4 6-4 17-1 22 5 9 5 8 1 15q-6 12 0 24c3 6 3 7 0 14q-6 12-1 23 4 7 0 15-5 12 0 23c3 6 3 8 0 16-3 6-3 13 1 13q3 1 2-4l2-10c4-8 4-9 1-16q-6-11-1-23a13 13 0 0 0 0-16l-1-2c-2-2-1-15 1-19q6-8 0-14-4-10 0-24c4-7 4-7 0-12-2-5-2-6-2-13 0-8 0-9 2-13q5-6 2-11-9-14-2-23c4-8 4-10 1-16q-6-11 0-23l3-8-5-11q-3-7 2-18c4-8 4-8 0-16q-6-11 0-21 5-7 0-16c-4-8-4-20 1-23q3-4 0-12-6-12-1-23 5-9 1-14-6-12 0-26 4-5 0-13-5-11 0-23 4-7 2-9c-3-9-4-12-4-17l2-10q7-13-1-13-3-1-1 3m25 1q1 4-3 10-6 11 0 21 5 9-1 16-4 9 0 21c4 7 4 9 0 16q-4 12 0 22c4 6 4 8 0 15-5 11-5 13 0 24 3 5 3 6 0 11-5 11-5 15-1 23l2 9-2 9q-6 9 0 21 4 10 0 14-6 8 1 26 3 6-1 12-5 8-1 18c3 10 4 13 0 21q-5 10 1 20 5 8 0 15-5 11-2 17l3 7c3 6 3 6-1 14q-6 12 1 24 3 5-2 16-4 13 2 21 3 5-2 14-5 11 1 22 5 6 0 16-6 13 0 13 3 2 3-6 0-5 3-10l3-5-3-6q-8-16 0-27 3-5 0-12-8-11-2-21 6-8 1-17c-3-6-3-17 0-23q5-6-1-16-5-11-2-13l1-3 2-5q5-5 0-13c-3-8-4-19 0-24q5-8 0-15-5-11 1-23 3-8-1-14a29 29 0 0 1 2-27l2-4-3-6c-3-6-4-20-1-22l4-8-3-8q-6-11 0-24c4-6 4-5 0-12q-6-13 0-23c4-7 4-9 1-15q-6-10 0-22 5-9 0-15c-4-6-4-17-1-21q6-11 2-14c-5-4-5-16-1-25q3-7 1-10-4-7-3 1m24-3v8c-5 10-6 15-2 29 2 6 2 6 0 11q-7 15 0 26 3 5-1 14-6 11 0 21 4 6 3 8-10 17-4 29c3 7 3 8-1 17q-5 11 2 23v9a29 29 0 0 0 1 30v6c-6 12-6 17-2 27q4 9 1 12c-4 2-5 17-1 25q5 7 0 16-6 10 0 22 4 7 2 10-9 14-2 26l2 9-2 7c-4 5-3 21 1 26q2 2-1 11-6 12-1 23 6 6 1 14c-4 9-4 12-1 22q4 13-1 18l-1 6q-1 7 3 6 3 1 2-5l1-5 1-3 1-4q5-4 0-12a23 23 0 0 1 0-24q5-3 0-14c-3-6-4-17-2-19q6-6 1-18-4-12 0-23 6-6 0-15-5-10 1-21c4-8 4-8 0-15q-6-12-1-22 6-9 0-16-5-11 1-22l2-8-2-8q-6-10 0-21 4-9 1-14t-4-12q0-5 5-15 2-6-1-10-7-15 1-26v-11q-8-10-2-22 5-9 2-15-6-13 0-25c3-6 3-8-1-15-4-8-2-22 3-25q1-3-2-12-6-11 0-22 6-12-2-13-3 0-1 1m23 0q3 5-1 14t-2 17c6 12 6 12 2 19-4 8-3 21 1 26q3 4-3 15c-2 4-1 14 2 19q4 7 1 11-8 15-3 23 4 11 1 16c-4 7-4 19-1 24q4 6 1 14c-3 5-4 20-1 25 2 3 3 10 1 13-5 6-5 17 0 25q2 6-1 14-4 10 0 20c2 5 3 13 1 15-4 3-5 17-1 24q4 8 0 15c-4 6-3 16 0 22 4 6 4 8 0 14-3 6-4 16 0 22q3 8 1 15c-5 9-5 14 0 26 3 5 3 6 0 11-6 10-6 14 0 26 2 4 1 11-1 11l-2 5-2 8q-1 3 3 2 4 1 4-5l2-10c4-6 4-6 0-13q-6-13 1-24l3-6-3-7q-6-12-1-23c4-6 4-8 0-15q-6-10 0-24c4-6 4-7 1-13a27 27 0 0 1 1-26l2-5-3-6q-6-12-1-22c4-7 4-9 1-15q-6-12 0-25l3-6-3-6q-6-11 0-24l3-7-3-6a27 27 0 0 1 2-28q3-1-2-10-6-12 1-25c2-5 2-5-2-15-3-8-3-12 1-20q5-9 2-14-8-11-1-23 5-8-1-16c-3-7-3-17 1-22 3-5 3-7 0-14-4-9-4-14 1-23a10 10 0 0 0 1-12q0-2-4-2t-2 1m27 3q1 4-3 10-6 10 0 22c3 7 3 7 0 14-5 8-4 20 2 26q2 3-3 12l-3 8c-1 5-1 6 4 16q3 5-2 15-5 9-2 16 6 12 3 16c-4 5-5 17-1 25 2 5 3 12 1 13a25 25 0 0 0-1 26c2 3 3 9 1 10-4 5-5 20-1 26l2 8-2 7q-4 4-3 10 0 7 3 12c3 6 3 8-2 20-2 3-2 15 0 16a14 14 0 0 1 2 15l-2 4c-3 3-3 12 1 19q6 9 1 15c-5 7-4 18 1 25q3 4-2 13-4 11 0 22 6 7 1 15-3 6-3 11 0 6 3 11c3 6 3 8-1 15q-6 13-1 15 4 2 3-6l4-10c3-5 3-6-1-13q-6-13 2-26 3-4-1-12c-4-7-4-18 1-24q3-5-2-13a24 24 0 0 1 2-24q2-6-1-12-7-14 1-26 3-4-1-13-7-14 0-22c2-3 3-11 1-12l-3-7q-3-10 2-19 4-5-1-17c-2-7-2-16 0-19 5-5 5-7 2-14-5-10-5-15-1-24 4-7 3-8-1-17q-4-9 2-21l3-7-2-5q-9-14 0-27c3-4 3-5-1-12q-4-13 0-23 6-8 0-14-5-11 0-23 6-7 1-16t-2-16q6-11 4-15-4-7-4 1m24-2v3c1 1-1 8-4 13q-5 10 2 21 3 6-1 11-6 13 1 26 3 4-2 12-4 12 0 23c4 6 4 6 0 15q-6 12 0 23c3 5 3 5-1 15q-4 10 1 23c4 6 4 6 0 12q-7 11-1 24c4 7 4 7 0 13l-2 6-1 3c-1 1 1 11 4 17l2 4-2 5c-6 15-6 16 0 28l2 6-2 3c-6 10-6 16-1 28 2 4 2 11 0 12s-5 15-3 17l1 2 2 7 2 5-3 8q-6 17 0 25c3 3 2 5-1 15-2 6-2 7 1 17 4 10 4 10 2 15q-7 12-2 22c4 9 4 10-2 23q-2 5 3 8 2 1 2-5l3-10c4-6 4-7 0-14q-6-11 0-21c4-8 4-10 0-16q-6-10 0-21c4-8 4-11 0-17q-5-11 0-23c4-6 4-6 0-13-4-9-4-14 0-23 4-8 4-8 0-15q-6-11 0-23c4-7 4-8 0-14q-6-12 0-23 6-6 1-14-6-11 0-24 4-10 1-11a25 25 0 0 1 0-28c2-1 1-8-2-12q-5-11 1-23c4-7 4-6 0-13l-3-12q0-5 3-11c4-8 4-8 0-15q-6-10 0-21c4-9 4-9 2-14q-7-14-4-20c6-11 6-14 3-20q-5-12 0-24 4-7 2-9c-2-4-6-4-4-1m24 1q1 3-2 11c-4 10-4 14 0 23 2 8 2 8-2 16-2 4-2 14 1 21 4 7 4 7 0 13-3 6-4 17 0 25q3 6-1 15-5 10-1 19 6 8 0 17-5 12 2 23 3 5-2 15c-4 8-4 13 2 23q3 5-2 13-5 11 0 22c4 7 4 9 0 15q-6 10 0 22c4 7 4 8 1 14q-7 15 0 26 3 4 1 10a24 24 0 0 0-1 26c3 6 3 7-1 14q-6 10-1 22 6 8 1 15-6 11 0 22c4 7 4 6-1 18q-3 10 2 20c3 6 3 8-1 14-3 6-4 15-1 15q3 1 4-7l3-8q3-6 1-13c-5-8-5-10-3-17l2-7q5-3-1-17-6-11 2-22c1-2 1-10-1-13q-7-12 1-24 3-5-1-12-7-13 0-25c3-5 3-8-3-19a15 15 0 0 1 1-13l2-6q4-7 0-13-6-8 0-23a10 10 0 0 0 0-14c-3 0-3-17 0-23q4-8 1-13c-4-6-4-19 0-26 3-4 3-5-1-12q-4-11-1-20c4-9 4-10 2-15q-6-13 0-25l3-7-3-6c-4-9-4-24 2-27q3-3-2-12-6-13 0-23 6-6 0-14a26 26 0 0 1 1-24q3-1 2-9 0-3-3-3-2-1-2 3m24-2 1 3c1 1-1 8-3 11-2 2-2 19 0 22q4 6 0 11a28 28 0 0 0 0 26c2 4 2 11 0 11-1 0-4 11-4 15l3 9q5 9 0 16c-4 6-4 16 0 22q5 6-1 14-4 10 0 23c4 7 4 7 0 16-4 10-4 13 2 27q2 2-1 7-6 11-2 23c4 10 4 10 1 17q-6 12 0 24 3 5 2 7c-5 9-6 24-3 28l2 3 1 3c1 1-1 8-4 12-2 3-1 17 1 20q4 6 0 15-5 9 0 21 5 9 0 16c-3 6-2 17 1 25l3 5-3 5c-4 8-4 20 1 26q3 5 1 6l-1 4-1 3-3 8q0 9 2 7 4 1 3-5l3-10c4-6 4-8 0-15q-5-11 0-23 5-9 2-12c-5-3-6-16-2-25q6-10-1-16c-3-3-2-15 1-22l3-6-3-7c-3-7-4-20-1-22l4-8-3-8q-6-11 0-23 4-7 2-9l-2-9-2-6q-3-4 2-14c4-7 4-7 0-13q-6-11 0-23c4-6 4-8 0-15q-4-13 0-23c4-6 4-8 1-14q-6-11 0-23l3-7-3-6q-6-11 0-24c3-8 3-7 2-11q-7-16-4-21c5-10 5-12 4-16-5-9-5-21-1-26q3-6 0-14-5-12 0-24 5-11-1-12zm25 4-2 9c-4 7-5 10-1 19 3 11 3 11 0 18q-5 12 0 23 5 6 0 13-6 12-1 23c2 5 2 14 0 15l-2 5-1 6 3 14q3 6 1 11c-3 3-5 15-4 17l1 3 2 5q4 8 1 12-9 11 0 28c1 3-1 13-4 16-2 3-1 13 3 21 3 4 2 4-1 12l-3 10 4 16q2 3-1 11-6 11 0 20c3 7 3 10 0 17q-5 11-2 18c5 9 5 12 2 19-3 5-4 16-2 17 2 3 5 17 3 17l-4 13c0 6 2 14 4 16q3 4-1 12-6 10-1 20c4 9 4 10 1 17q-6 13-1 14 4 0 4-7l3-9 3-6-2-5c-6-12-6-16-1-26q3-5 0-11-7-14-1-24l3-8-3-8q-6-14 2-25 3-3-2-12-6-12 0-23l3-6-2-6-3-7c-2-3-1-12 2-19l3-6-3-9q-5-12 1-23 3-6 0-12-5-10-3-18l2-7 1-1c2 0 2-7 0-11q-8-13 1-25c3-5 3-5 0-12-6-10-5-15 0-26 2-5 2-7-1-14q-5-11 1-22 4-8 1-11c-5-4-5-17-1-26l3-7-3-6q-6-13 0-22c4-7 4-9 0-16q-4-11 0-21c4-7 4-15 0-15q-2 0-2 5m24-1q1 4-2 10-4 10 0 22 4 7 1 12c-6 14-6 15 0 29 1 3 1 4-2 11q-6 12 0 23l2 6c0 3-3 11-4 11-2 0-1 14 2 20 3 7 3 7-1 15q-3 6-3 10c0 4 2 11 3 11 3 0 3 9 0 15q-6 13 0 24c4 6 4 7 0 13q-6 12 0 24l3 7-2 5q-7 13-2 25c4 6 4 8 1 14q-6 10 0 23 4 11-2 17c-2 2-1 16 2 22q3 6-1 13-6 15 0 23 4 5 0 14c-3 6-3 17 0 24q5 7 0 16c-2 3-2 15 0 18q4 10 1 16-6 14 0 15 3 1 2-4l3-10c4-8 4-8 0-15q-6-11 0-22c4-8 4-8 0-14q-6-12 0-24 4-10 1-12c-3 0-5-18-3-23l4-6 1-4-3-6q-6-13 0-24 5-6-1-15-5-11 1-23l3-6-3-7q-6-11 0-23c4-7 4-6 0-14q-6-13-1-23c4-8 4-8 1-16q-6-11 0-23c3-6 4-7 1-11q-7-13-1-24c4-7 4-8 1-14q-7-12-1-23t1-15c-4-5-4-15-1-22s4-10 0-18q-3-9 2-19c4-8 4-9 0-15q-6-11 0-23 7-13-2-14-3-1-1 4m25-1-3 11c-4 9-4 12 0 20q5 10 0 18-5 10 0 22 4 6-2 17-3 8 1 20l3 6-3 9c-4 10-3 13 1 22 2 5 2 5 1 10-6 14-6 18-1 29v8c-4 9-4 12-4 17l2 10q5 8 0 14c-3 6-4 17-1 21q5 8 2 16l-4 12q0 6 5 15c1 3 1 3-2 11-4 9-4 13 0 21 3 9 3 12-2 21-2 3-1 11 2 16 3 8 3 10-1 18q-5 10 1 21c2 6 2 7 0 14-4 12-4 15-1 22q5 10 2 15l-2 4-1 3c-2 1-1 11 2 16q5 9 0 17-6 12 0 13 4 1 3-5l2-9q5-9 0-17-5-10 1-22l2-8q-8-15-3-28c4-7 4-9 0-15q-5-10 0-22c4-7 4-8 0-15q-5-12 1-24l3-7-2-4q-9-13-1-27c4-5 4-5 0-11-3-6-4-17-2-21 5-10 5-10 2-17q-6-14 0-26l3-5-3-7q-6-14 0-25c4-5 4-5 0-11q-6-12 0-24c3-7 3-8 2-11q-8-14-2-26 6-8 1-15-6-11 0-22c4-7 3-8-1-17q-5-10 1-19 5-10 1-15c-5-9-5-15 1-26q5-10-2-11-4-1-2 3m24-1v8l-3 6q-4 9 1 20 4 7 0 13c-5 9-5 14 0 24 2 7 2 9-2 18q-3 8 1 19 5 7-1 16-4 10 0 20c4 8 4 11 1 17-5 9-5 13 1 23q3 5-2 14c-4 8-4 13 1 24q3 4-1 13-6 9 0 22l3 7-3 7q-4 13 0 25l3 6-3 6q-6 12 0 23 5 8 0 16-6 10 0 23l3 6-3 7c-5 11-5 15 1 29q2 2-1 8c-4 7-4 18 0 24q5 7-1 15-4 11 0 21c4 6 4 8 1 15q-7 15 0 15 3 1 2-3 0-8 5-14v-10c-6-8-6-20 0-28 2-3 1-4-2-12q-6-11 0-22c3-7 4-7 1-12l-2-6-1-2c-3-2-1-14 4-21q2-4-3-13-5-10 1-21 5-7 0-15-6-13 2-25 3-3-2-12-3-5-3-10c0-4 3-13 4-14q4-5-1-14-6-12 2-26 2-2-3-13l-2-9c0-4 3-13 4-13 2 0 2-7 0-11l-4-13c0-4 3-12 4-13 2-1 2-8 0-12q-7-15 0-22 6-8-1-17c-3-5-2-18 3-25q3-3-1-10c-4-6-4-17 0-23q6-8 0-15-6-11 0-22 7-14-1-14-4 0-2 2m22-1 2 2q2 6-1 13c-3 7-3 22 0 24 2 1 2 10 0 14q-6 12-1 23 5 10 2 12l-3 4-1 4c-2 1-1 13 2 18 3 6 3 8-2 17-2 4-1 16 2 21q5 6-1 13-6 10 0 24c3 6 3 5-1 14-2 5-2 18 0 21q5 7 0 16c-2 5-2 19 0 22q5 6 3 9-8 17-3 27 3 8 0 18c-2 5-3 7-2 20v12c-4 6-2 20 3 27v12c-6 10-6 15-1 26q3 7 1 11-9 15 0 27 3 3-2 13c-4 8-3 20 1 25l1 4-1 4-4 12c0 4 5 2 6-2l3-9q5-7 0-12l-2-5-1-6v-4l3-9 3-6-2-5q-7-16 0-27 5-4-1-12-4-12 0-23c3-6 3-9-1-17q-3-9 0-23 3-11 0-15c-2-4-1-15 2-21 4-7 4-7 0-13q-3-6-3-12l3-12c4-7 4-7 0-13q-2-4-2-12 0-7 2-12c4-7 4-8 0-15a23 23 0 0 1 0-22l3-7-3-8c-4-10-4-15 2-25q3-4-2-12-5-11 1-22c3-8 3-8-1-17q-5-9 2-21c3-7 3-8 0-13q-5-12 0-24c4-7 4-8 1-13q-6-11 0-23c4-7 4-8 1-14-2-4-8-6-8-3m27 1q3 7-2 16t0 20c4 8 4 10 0 16-3 5-4 17-1 20q5 8 2 16-7 14-2 22 4 12 0 16c-2 2-2 20 0 23q5 6 0 15c-3 6-3 17 0 23 3 5 3 8-3 19-2 4 0 14 3 18q4 5-3 18c-2 4 0 17 3 21q3 4-3 15c-2 4 0 17 4 22q3 3-2 12-6 11-1 24l2 6q1 4-2 10c-2 4-3 16-1 17l1 2 2 4v8q-8 14-2 27l3 7-4 9c-2 1-2 17 0 19q5 8 1 15c-3 6-4 18-1 24 2 5 2 14 0 16l-2 6q-1 5 2 4 3 0 3-4l4-8c3-5 3-7-1-15q-4-10 0-21 5-9 2-14-9-8-1-24c4-7 4-7 0-15q-6-14 1-23 3-5-1-15-6-12 0-22l2-3-2-8q-6-14 1-26l3-7-2-5c-6-12-6-15-2-22q5-10 2-16c-6-12-6-15-1-25 4-6 4-6 0-13-2-3-4-11-4-13l4-10c4-9 4-8-1-16q-4-11 1-23c4-7 4-6 1-12-5-8-3-24 1-26q3-3-1-12-6-12 0-22c4-6 4-9 0-17q-5-10 1-21 5-7 0-17-6-11 2-22c3-5 3-6 0-11-3-4-8-6-6-2m24-1 2 4q2 5-2 12c-3 5-4 15-1 22q4 8 1 14-7 12-1 25 3 6 1 11c-6 12-6 14-3 22q4 10 1 19-6 11 0 21c3 7 3 9-1 15q-5 11 0 22c4 6 4 8 0 15q-5 11-2 18c5 8 5 11 2 18q-6 12-1 24l3 6-3 7q-3 13-1 21c5 10 5 10 1 18-3 6-3 16 0 22q5 9 0 16l-2 6-1 3q-2 1 3 13 4 7 0 14c-3 5-3 17 0 23q4 9 0 15-6 9-1 20c4 10 4 10 0 18q-3 6-3 10t3 10c4 8 4 9 0 17q-6 11 0 10 4 1 3-5l2-5q7-5 1-15c-4-7-4-18 0-24 4-5 4-7 0-14q-4-12 0-22 6-7 0-15-4-11 0-23c3-4 4-12 2-12l-2-4q-5-12 0-22c4-5 4-7 1-14q-6-11 0-23l3-8-3-6q-3-5-3-11t3-12c4-7 4-7 0-14q-7-14 2-27 3-3-2-11-6-11 0-22c4-7 4-8 1-14q-7-12-1-21c3-9 4-12 1-17q-5-12 1-24c4-6 4-5 1-12q-8-13-1-25c4-6 4-7 0-13q-6-12 0-22c5-9 5-8 1-15-4-9-4-14 0-23q5-10 0-15-4-3-5-1m24-1 2 5c2 5 2 5 0 10-6 11-6 14-2 23q4 10 1 15l-2 5-1 3c-2 1 0 13 3 17q3 6-2 14-6 8-1 21 5 10 2 12c-1 1-4 11-4 16l2 11 3 7-3 6c-3 7-4 18-1 22q6 9 0 17c-3 3-2 17 1 22 4 6 4 6 1 11-5 11-5 15-1 29 2 4 2 6-2 14-2 5-3 13-1 16l2 5c2 3 2 10 1 13q-6 10-1 23 5 10-1 16-4 11 0 21 6 8 0 15-5 10 0 22c4 8 4 9 0 15a23 23 0 0 0 0 21l2 5c2 4 1 5-2 11s-3 16-1 20c4 9 4 11 1 17q-4 12 0 12 2 1 2-3l1-5q8-8 3-17-6-11 0-23 4-7 0-15-6-11-1-21 6-9 1-16-5-11 0-23c3-6 3-6 2-9-6-15-6-18-2-28 4-7 4-8 0-15q-5-11 1-23l3-6-3-7c-4-7-4-20-1-24q6-5 1-14-6-13 0-25c4-5 4-5 0-13q-6-11 0-23c4-6 4-7 0-13q-6-12 2-27v-9a27 27 0 0 1-3-20l1-4 1-3q5-2 0-13c-3-7-5-17-3-17 4 0 8-19 4-19l-2-6q-3-9 3-19 5-5 0-11-7-14 1-26 4-6 1-10l-2-3c0-2-6-3-6-2m25 1 2 3q3 4-2 13-6 12 0 23 5 6-1 14-5 10 0 24l3 7-3 5q-5 11 0 24 3 9-1 14c-4 5-3 19 1 24q3 5-1 13-7 11 0 24l2 5-3 9q-4 13 0 21t0 17a23 23 0 0 0 0 20l2 8-2 9q-3 6-3 11l3 12c3 7 3 7 0 13q-6 12 1 28c1 2-1 11-3 13-2 3-1 14 2 19l2 8-2 7q-6 12 0 23l2 6-2 6q-5 13-2 18 7 17 3 21l-1 2-1 5c-2 2-3 10-1 12l2 6c2 6 2 6 0 11q-6 12-1 13 2 0 2-4l3-8q3-8-1-14-4-12 1-23c4-6 4-7 0-13q-4-10 0-23c3-5 4-13 2-13l-3-4c-3-5-2-15 1-21q6-8 1-15-6-11 0-21l2-8-2-8q-6-12 2-27v-7q-9-15-1-28 4-6-1-13-5-10-2-17 8-14 3-20c-5-5-5-17 1-24q2-5-1-12l-2-6-1-3c-1-1 0-9 4-16l2-6-2-5c-4-10-3-25 2-29q3-1-2-9-6-13 0-24 6-6 0-16t0-21q6-7 1-15-6-10 0-21c3-8 4-10 1-14-1-4-6-6-6-3m26 3q2 6-2 15-4 8 0 21l3 7-2 4c-6 13-6 18-1 28q4 5-1 15-6 11 0 18c4 7 4 10-2 21a21 21 0 0 0 2 17l1 5c2 1 1 8-2 12-2 4-3 15-1 18s4 11 3 13c-5 9-6 22-2 27q3 7-1 16-5 10 1 22 3 9-1 15-5 10 1 24c3 6 3 5 0 12-3 6-3 20-1 25q3 6 0 12c-3 4-3 19 0 24q4 8 1 14c-4 5-4 16 0 24v13q-7 11 0 26 2 5-1 10-6 14 0 26 3 6-1 15-6 10 0 9l2-2 3-9c4-7 4-7-1-19q-3-10 2-19 3-6 0-12-6-14 0-26 4-5 0-12-6-12 1-27l2-4-2-6c-6-12-6-15 0-26 3-5 3-6 0-12q-6-12-1-22t0-17q-5-10 1-21 5-8 0-15-5-12 0-23c4-6 4-8 0-14q-6-10 0-23c4-8 4-8 1-15q-3-5-3-11 0-8 3-11c3-6 3-9-1-17q-4-10 1-21 6-7 1-13c-4-7-3-19 0-25 4-6 4-7 0-13-3-6-3-17 0-23 4-6 4-8 1-14q-6-11 0-23c4-8 3-17-3-17h-3z"
        mask="url(#16282281824-posters-1720553956018-horizontal-mask)" itemprop="bold" fill-opacity="0.90"
        fill-rule="evenodd" stroke="none" fill="url(#16282281824-posters-1720553956018-vertical-bold)"></path>
    </pattern>
    <rect id="16282281824-posters-1720553956018-pattern-render" fill="url(#16282281824-posters-1720553956018-pattern)"
      width="100%" height="100%"></rect>
  </defs>
  <radialGradient id="lightbar" cx="50%" cy="200%" fy="0" r="201%">
    <stop offset="0%" style="stop-color: rgb(255, 255, 255); stop-opacity: 0.1;"></stop>
    <stop offset="10%" style="stop-color: rgb(0, 0, 0); stop-opacity: 0.1;"></stop>
    <stop offset="30%" style="stop-color: rgb(0, 0, 0); stop-opacity: 0.3;"></stop>
    <stop offset="90%" style="stop-color: rgb(0, 0, 0); stop-opacity: 0.55;"></stop>
    <stop offset="100%" style="stop-color: rgb(0, 0, 0); stop-opacity: 0.6;"></stop>
  </radialGradient>
  <g class="radial">
    <radialGradient id="16282281824-posters-1720553956018-radial" gradientUnits="userSpaceOnUse">
      <stop itemprop="radial" stop-color="#b2b1ae" offset="0%"></stop>
      <stop itemprop="radial" stop-color="#b2b1ae" offset="15%"></stop>
      <stop itemprop="radial" stop-color="#b2b1ae" offset="30%"></stop>
      <stop itemprop="radial" stop-color="#afaeac" offset="45%"></stop>
      <stop itemprop="radial" stop-color="#adaba9" offset="60%"></stop>
      <stop itemprop="radial" stop-color="#aaa9a7" offset="75%"></stop>
      <stop itemprop="radial" stop-color="#adaca9" offset="90%"></stop>
    </radialGradient>
    <radialGradient id="16282281824-posters-1720553956018-radial-background" gradientUnits="userSpaceOnUse">
      <stop stop-color="#d3cfc5" offset="0%"></stop>
      <stop stop-color="#d3cfc5" offset="15%"></stop>
      <stop stop-color="#d3cfc5" offset="30%"></stop>
      <stop stop-color="#d3cfc5" offset="45%"></stop>
      <stop stop-color="#d3cec5" offset="60%"></stop>
      <stop stop-color="#d3cfc5" offset="75%"></stop>
      <stop stop-color="#d3cfc5" offset="90%"></stop>
    </radialGradient>
    <radialGradient id="16282281824-posters-1720553956018-radial-light" gradientUnits="userSpaceOnUse">
      <stop stop-color="#9b9a97" offset="0%"></stop>
      <stop stop-color="#9b9a97" offset="15%"></stop>
      <stop stop-color="#9b9a97" offset="30%"></stop>
      <stop stop-color="#9b9a97" offset="45%"></stop>
      <stop stop-color="#9b9a97" offset="60%"></stop>
      <stop stop-color="#9b9a97" offset="75%"></stop>
      <stop stop-color="#9b9a97" offset="90%"></stop>
    </radialGradient>
    <radialGradient id="16282281824-posters-1720553956018-radial-regular" gradientUnits="userSpaceOnUse">
      <stop stop-color="#82817d" offset="0%"></stop>
      <stop stop-color="#82817d" offset="15%"></stop>
      <stop stop-color="#82817d" offset="30%"></stop>
      <stop stop-color="#82817d" offset="45%"></stop>
      <stop stop-color="#82807d" offset="60%"></stop>
      <stop stop-color="#82817d" offset="75%"></stop>
      <stop stop-color="#82817d" offset="90%"></stop>
    </radialGradient>
    <radialGradient id="16282281824-posters-1720553956018-radial-medium" gradientUnits="userSpaceOnUse">
      <stop stop-color="#51504d" offset="0%"></stop>
      <stop stop-color="#51504d" offset="15%"></stop>
      <stop stop-color="#51504d" offset="30%"></stop>
      <stop stop-color="#51504d" offset="45%"></stop>
      <stop stop-color="#514f4d" offset="60%"></stop>
      <stop stop-color="#51504d" offset="75%"></stop>
      <stop stop-color="#51504d" offset="90%"></stop>
    </radialGradient>
    <radialGradient id="16282281824-posters-1720553956018-radial-bold" gradientUnits="userSpaceOnUse">
      <stop stop-color="#2f2e2d" offset="0%"></stop>
      <stop stop-color="#2f2e2d" offset="15%"></stop>
      <stop stop-color="#2f2e2d" offset="30%"></stop>
      <stop stop-color="#2f2e2d" offset="45%"></stop>
      <stop stop-color="#2f2e2d" offset="60%"></stop>
      <stop stop-color="#2f2e2d" offset="75%"></stop>
      <stop stop-color="#2f2e2d" offset="90%"></stop>
    </radialGradient>
  </g>
  <g class="vertical">
    <linearGradient id="16282281824-posters-1720553956018-vertical" gradientUnits="userSpaceOnUse" x1="0" x2="0" y1="0"
      y2="100%">
      <stop itemprop="vertical" stop-color="#b2b0ae" offset="0%"></stop>
      <stop itemprop="vertical" stop-color="#b2b1ae" offset="15%"></stop>
      <stop itemprop="vertical" stop-color="#b2b1ae" offset="30%"></stop>
      <stop itemprop="vertical" stop-color="#afaeac" offset="45%"></stop>
      <stop itemprop="vertical" stop-color="#adaca9" offset="60%"></stop>
      <stop itemprop="vertical" stop-color="#aaa9a7" offset="75%"></stop>
      <stop itemprop="vertical" stop-color="#adaca9" offset="90%"></stop>
    </linearGradient>
    <linearGradient id="16282281824-posters-1720553956018-vertical-background" gradientUnits="userSpaceOnUse" x1="0"
      x2="0" y1="0" y2="100%">
      <stop stop-color="#cdcccb" offset="0%"></stop>
      <stop stop-color="#cdcdcb" offset="15%"></stop>
      <stop stop-color="#cdcdcb" offset="30%"></stop>
      <stop stop-color="#cdcccb" offset="45%"></stop>
      <stop stop-color="#cdcccb" offset="60%"></stop>
      <stop stop-color="#cdcccb" offset="75%"></stop>
      <stop stop-color="#cdcdcb" offset="90%"></stop>
    </linearGradient>
    <linearGradient id="16282281824-posters-1720553956018-vertical-light" gradientUnits="userSpaceOnUse" x1="0" x2="0"
      y1="0" y2="100%">
      <stop stop-color="#ae9e84" offset="0%"></stop>
      <stop stop-color="#aea484" offset="15%"></stop>
      <stop stop-color="#aea484" offset="30%"></stop>
      <stop stop-color="#ae9f84" offset="45%"></stop>
      <stop stop-color="#aea284" offset="60%"></stop>
      <stop stop-color="#aea284" offset="75%"></stop>
      <stop stop-color="#aea484" offset="90%"></stop>
    </linearGradient>
    <linearGradient id="16282281824-posters-1720553956018-vertical-regular" gradientUnits="userSpaceOnUse" x1="0" x2="0"
      y1="0" y2="100%">
      <stop stop-color="#82807d" offset="0%"></stop>
      <stop stop-color="#82817d" offset="15%"></stop>
      <stop stop-color="#82817d" offset="30%"></stop>
      <stop stop-color="#82807d" offset="45%"></stop>
      <stop stop-color="#82817d" offset="60%"></stop>
      <stop stop-color="#82817d" offset="75%"></stop>
      <stop stop-color="#82817d" offset="90%"></stop>
    </linearGradient>
    <linearGradient id="16282281824-posters-1720553956018-vertical-medium" gradientUnits="userSpaceOnUse" x1="0" x2="0"
      y1="0" y2="100%">
      <stop stop-color="#514f4d" offset="0%"></stop>
      <stop stop-color="#51504d" offset="15%"></stop>
      <stop stop-color="#51504d" offset="30%"></stop>
      <stop stop-color="#514f4d" offset="45%"></stop>
      <stop stop-color="#51504d" offset="60%"></stop>
      <stop stop-color="#51504d" offset="75%"></stop>
      <stop stop-color="#51504d" offset="90%"></stop>
    </linearGradient>
    <linearGradient id="16282281824-posters-1720553956018-vertical-bold" x1="0" x2="0" y1="0" y2="100%">
      <stop stop-color="#2f2e2d" offset="0%"></stop>
      <stop stop-color="#2f2e2d" offset="15%"></stop>
      <stop stop-color="#2f2e2d" offset="30%"></stop>
      <stop stop-color="#2f2e2d" offset="45%"></stop>
      <stop stop-color="#2f2e2d" offset="60%"></stop>
      <stop stop-color="#2f2e2d" offset="75%"></stop>
      <stop stop-color="#2f2e2d" offset="90%"></stop>
    </linearGradient>
  </g>
  <g class="horizontal">
    <linearGradient id="16282281824-posters-1720553956018-horizontal" x1="0" x2="100%" y1="0" y2="0"
      gradientUnits="userSpaceOnUse">
      <stop itemprop="horizontal" stop-color="#adaca9" offset="0%"></stop>
      <stop itemprop="horizontal" stop-color="#b7b6b4" offset="15%"></stop>
      <stop itemprop="horizontal" stop-color="#aaa9a7" offset="30%"></stop>
      <stop itemprop="horizontal" stop-color="#adaca9" offset="45%"></stop>
      <stop itemprop="horizontal" stop-color="#b7b5b4" offset="60%"></stop>
      <stop itemprop="horizontal" stop-color="#aaa9a7" offset="75%"></stop>
      <stop itemprop="horizontal" stop-color="#b2b0ae" offset="90%"></stop>
    </linearGradient>
    <linearGradient id="16282281824-posters-1720553956018-horizontal-background" gradientUnits="userSpaceOnUse" x1="0"
      x2="100%" y1="0" y2="0">
      <stop stop-color="#cdcccb" offset="0%"></stop>
      <stop stop-color="#cdcdcb" offset="15%"></stop>
      <stop stop-color="#cdcccb" offset="30%"></stop>
      <stop stop-color="#cdcccb" offset="45%"></stop>
      <stop stop-color="#cdcccb" offset="60%"></stop>
      <stop stop-color="#cdcccb" offset="75%"></stop>
      <stop stop-color="#cdcccb" offset="90%"></stop>
    </linearGradient>
    <linearGradient id="16282281824-posters-1720553956018-horizontal-light" gradientUnits="userSpaceOnUse" x1="0"
      x2="100%" y1="0" y2="0">
      <stop stop-color="#9b9a97" offset="0%"></stop>
      <stop stop-color="#9b9a97" offset="15%"></stop>
      <stop stop-color="#9b9997" offset="30%"></stop>
      <stop stop-color="#9b9a97" offset="45%"></stop>
      <stop stop-color="#9b9a97" offset="60%"></stop>
      <stop stop-color="#9b9a97" offset="75%"></stop>
      <stop stop-color="#9b9997" offset="90%"></stop>
    </linearGradient>
    <linearGradient id="16282281824-posters-1720553956018-horizontal-regular" gradientUnits="userSpaceOnUse" x1="0"
      x2="100%" y1="0" y2="0">
      <stop stop-color="#968969" offset="0%"></stop>
      <stop stop-color="#968b69" offset="15%"></stop>
      <stop stop-color="#968569" offset="30%"></stop>
      <stop stop-color="#968969" offset="45%"></stop>
      <stop stop-color="#968669" offset="60%"></stop>
      <stop stop-color="#968969" offset="75%"></stop>
      <stop stop-color="#968569" offset="90%"></stop>
    </linearGradient>
    <linearGradient id="16282281824-posters-1720553956018-horizontal-medium" gradientUnits="userSpaceOnUse" x1="0"
      x2="100%" y1="0" y2="0">
      <stop stop-color="#5d5541" offset="0%"></stop>
      <stop stop-color="#5d5641" offset="15%"></stop>
      <stop stop-color="#5d5241" offset="30%"></stop>
      <stop stop-color="#5d5541" offset="45%"></stop>
      <stop stop-color="#5d5341" offset="60%"></stop>
      <stop stop-color="#5d5541" offset="75%"></stop>
      <stop stop-color="#5d5241" offset="90%"></stop>
    </linearGradient>
    <linearGradient id="16282281824-posters-1720553956018-horizontal-bold" gradientUnits="userSpaceOnUse" x1="0"
      x2="100%" y1="0" y2="0">
      <stop stop-color="#2f2e2d" offset="0%"></stop>
      <stop stop-color="#2f2e2d" offset="15%"></stop>
      <stop stop-color="#2f2e2d" offset="30%"></stop>
      <stop stop-color="#2f2e2d" offset="45%"></stop>
      <stop stop-color="#2f2e2d" offset="60%"></stop>
      <stop stop-color="#2f2e2d" offset="75%"></stop>
      <stop stop-color="#2f2e2d" offset="90%"></stop>
    </linearGradient>
  </g>
  <g class="masks">
    <mask id="16282281824-posters-1720553956018-pattern-mask" maskUnits="userSpaceOnUse"
      maskContentUnits="userSpaceOnUse">
      <pattern id="pattern" x="0" y="0" width=".0133" height=".0144" viewBox="0 0 23.07 40">
        <path
          d="M17.62 0l-6.07 10.5m2.74 4.76L8.22 4.75m-5.48 0h12.13M.01 0h23.07M6.07 20L0 9.5m2.74-4.75l-6.07 10.5m-5.48 0H3.33m8.2 4.75L0 .02-11.54 20m40.68 0L23.07 9.5m2.74-4.75l-6.06 10.5m-5.49 0H26.4M34.6 20L23.08.02 11.53 20m-5.46 0L0 30.51m2.74 4.75l-6.07-10.5m-5.48 0H3.33m8.2-4.75L0 40l-11.54-19.98zM17.6 40l-6.06-10.5m2.74-4.76L8.2 35.25m-5.48 0h12.13M0 40h23.07L11.54 20.01m17.6 0l-6.07 10.5m2.74 4.75l-6.06-10.5m-5.49 0H26.4M11.53 20h23.08L23.07 40"
          stroke-linecap="round" stroke-width="3.5" stroke="white"
          fill="url(#16282281824-posters-1720553956018-horizontal-background)"></path>
      </pattern>
      <rect width="100%" height="100%" fill="url(#pattern)"></rect>
    </mask>
    <mask id="16282281824-posters-1720553956018-horizontal-mask" maskUnits="userSpaceOnUse"
      maskContentUnits="userSpaceOnUse">
      <rect width="100%" height="100%" fill="url(#16282281824-posters-1720553956018-horizontal-background)"></rect>
    </mask>
    <mask id="16282281824-posters-1720553956018-radial-mask" maskUnits="userSpaceOnUse"
      maskContentUnits="userSpaceOnUse">
      <rect width="100%" height="100%" fill="url(#16282281824-posters-1720553956018-radial-background)"></rect>
    </mask>
    <mask id="16282281824-posters-1720553956018-vertical-mask" maskUnits="userSpaceOnUse"
      maskContentUnits="userSpaceOnUse">
      <rect width="100%" height="100%" fill="url(#16282281824-posters-1720553956018-vertical-background)"></rect>
    </mask>
  </g>
  <use href="#16282281824-posters-1720553956018-pattern-render"></use>
  <g>
    <use href="#16282281824-posters-1720553956018-background"></use>
    <use href="#16282281824-posters-1720553956018-light"></use>
    <use href="#16282281824-posters-1720553956018-regular"></use>
    <use href="#16282281824-posters-1720553956018-medium"></use>
    <use href="#16282281824-posters-1720553956018-bold"></use>
  </g>
  <g itemprop="animation">
    <animate href="#16282281824-posters-1720553956018-light" attributeName="stroke-opacity" repeatCount="indefinite"
      dur="5s" values="0.9;0.0;0.9"></animate>
    <animate href="#16282281824-posters-1720553956018-regular" attributeName="stroke-opacity" repeatCount="indefinite"
      dur="4s" values="0.9;0;0.9"></animate>
    <animate href="#16282281824-posters-1720553956018-medium" attributeName="stroke-opacity" repeatCount="indefinite"
      dur="5s" values="0.9;0;0.9"></animate>
    <animate href="#16282281824-posters-1720553956018-bold" attributeName="stroke-opacity" repeatCount="indefinite"
      dur="3s" values="0.9;0;0.9"></animate>
    <animate href="#16282281824-posters-1720553956018-regular" attributeName="fill-opacity" repeatCount="indefinite"
      dur="8s" values="0.9;0.75;0.95;0.8;0.9;"></animate>
    <animate href="#16282281824-posters-1720553956018-radial-background" attributeName="cx" repeatCount="indefinite"
      dur="34s" values="0%;33%;100%;0%;100%;0%;"></animate>
    <animate href="#16282281824-posters-1720553956018-radial-background" attributeName="cy" repeatCount="indefinite"
      dur="55s" values="0%;100%;33%;100%;66%;0%"></animate>
    <animate href="#16282281824-posters-1720553956018-vertical-light" attributeName="x1" repeatCount="indefinite"
      dur="55s" values="0%;33%;100%;0%;133%;0%;"></animate>
    <animate href="#16282281824-posters-1720553956018-vertical-light" attributeName="y1" repeatCount="indefinite"
      dur="86s" values="0%;100%;33%;100%;66%;0%"></animate>
    <animate href="#16282281824-posters-1720553956018-horizontal-regular" attributeName="x1" repeatCount="indefinite"
      dur="34s" values="0%;100%;66%;0%;33%;133%;0%"></animate>
    <animate href="#16282281824-posters-1720553956018-horizontal-regular" attributeName="y1" repeatCount="indefinite"
      dur="55s" values="0%;66%;100%;33%;100%;66%;0%"></animate>
    <animate href="#16282281824-posters-1720553956018-vertical-medium" attributeName="x1" repeatCount="indefinite"
      dur="34s" values="0%;100%;66%;0%;33%;133%;0%"></animate>
    <animate href="#16282281824-posters-1720553956018-vertical-medium" attributeName="y1" repeatCount="indefinite"
      dur="55s" values="0%;66%;100%;33%;100%;66%;0%"></animate>
    <animate href="#16282281824-posters-1720553956018-vertical-bold" attributeName="x1" repeatCount="indefinite"
      dur="34s" values="0%;100%;66%;0%;33%;133%;0%"></animate>
    <animate href="#16282281824-posters-1720553956018-vertical-bold" attributeName="y1" repeatCount="indefinite"
      dur="55s" values="0%;66%;100%;33%;100%;66%;0%"></animate>
  </g>
</svg>
