<svg id="16282281824-posters-1720560138473" itemscope="" itemtype="/posters"
  itemid="/+16282281824/posters/1720560138473" viewBox="0 0 769 512" preserveAspectRatio="xMidYMid meet" tabindex="0"
  class="animate landscape" xmlns="http://www.w3.org/2000/svg">
  <!---->
  <defs class="graphic">
    <pattern id="16282281824-posters-1720560138473-pattern" width="769" height="512" viewBox="0 0 769 512"
      patternUnits="userSpaceOnUse" preserveAspectRatio="xMidYMid meet">
      <rect itemprop="background" width="769" height="512" tabindex="-1"
        id="16282281824-posters-1720560138473-background" fill-opacity="1"
        fill="url(#16282281824-posters-1720560138473-radial-background)"></rect>
      <!---->
      <path id="16282281824-posters-1720560138473-light"
        d="M505 1c0 5 8 7 10 3q5-5-4-4zm13 0c0 2 5 6 7 6l3-1h23l5-3c6-3 3-3-17-3zM261 11a4 4 0 1 0 7 3 4 4 0 0 0-7-3m376 7h-15l-6 1h-10l-5 1q-8 2-5 7l11 2 37 2h9q7-2 10-1l5-1q2-3 5-1h10q1 4 7 1 4-3 2-6-1-2-9-2l-6-1-5 1h-3l-7-1-7-1c-3-1-6-2-18-1m-163 3q-1 3-3 1c-1-3-7 0-7 3 1 3 6 4 7 2q1-2 4 1t6 1l6-1 4-2q2-7-7-6l-3-1q-3-3-7 2m22 0q-3 2 0 4a4 4 0 1 0 0-4m-42 0q-4 3 0 7 3 3 5 0c4-3 0-9-5-7m133 0a4 4 0 1 0 7 4q0-6-7-4m-184 2q-5 6 4 7c6 0 8-5 4-7q-4-3-8 0m17-1a3 3 0 1 0 4 1q-1-3-4-1m24 0q-4 2 0 6 1 3 4 0c4-3 0-9-4-6m319 0q-3 4 0 6 7 4 5-5-1-3-5-1m-633 9-19 2c-29 1-39 1-40 3h-5c-5-2-16-3-19 0l-6 1c-3-1-9 2-9 5q1 6 9 5l6 1c3 1 15 0 19-2q2-2 4 1c4 2 38 1 54-1l14-1c26 0 32-1 35-4q6-3 1-7c-2-2-2-2-17-3zm117 1c-16 1-16 11-1 12q26 2 29-2 5-5 2-9c-2-1-20-2-30-1m-51 2q-4 3 0 6c5 2 9-3 6-7q-3-2-6 1m17-1q-8 1-7 4 1 4 7 5l5 1h4l6-1q3 1 4-2 2-5-4-5l-6-2-4-1zm68 1q-4 4 0 8c3 2 9 3 9 1h4q9 4 11-3 0-7-8-6-4 1-6-1-6-2-10 1m31 1c-6 1-7 7-1 10 4 3 10-2 9-7l-6-4zm11 1c-4 3-2 9 4 9a5 5 0 1 0-4-9M9 39H7l-4-1q-4-1-3 5l1 4q5 1 6-2 1-2 4 1 2 3 6 1h6c5 2 10-3 7-8-1-2-19-3-21 0m664 15q-5 5 1 8c4 4 11-2 7-7q-4-4-8-1m-32 0a4 4 0 1 0 6 6 4 4 0 0 0-6-6m9 2c-3 3 3 7 6 5q2-2 3 1c3 4 9 1 9-4q-2-5-9-1l-2 1c0-3-5-5-7-2m34-1c-2 0-1 6 1 8q5 2 6-4a5 5 0 0 0-7-4m63 4v6q8 1 6-5-2-3-6-1M0 68q0 8 2 5l3-1h6c1 2 16 1 19-1l5-1q4 0 5-2 1-3-5-4l-6-2c-4-1-18-2-20 0H5q-5-4-5 6m44-4q-4 6 5 7 5-1 3-6-3-3-8-1m74 0v7c3 1 9-3 7-6 0-2-5-3-7-1m394 7q-3 5-1 9h11l4-1q7-2 1-7c-4-4-12-4-15-1m137 27-4 2q-1 3-4 0-3-2-5-1h-5q-7-1-11 3-1 2-4-1c-4-3-17-4-20-1q-4 3 0 7c3 4 17 4 20 1q2-3 4 0c4 3 17 3 21 0q2-3 5 0 5 4 10 0l3-3 1 3a6 6 0 0 0 9 0l2-2q1-2 4 1 6 5 8 2h5q12 0 5-9-2-3-5-1h-5q-4-2-8 1-2 3-5 0-7-5-9 1-2 5-5 0-3-4-7-3m51 2q-4 6 3 8 8-1 4-8-2-5-7 0m13-1q-2 6 3 8 4-1 5-5a4 4 0 0 0-8-3m-240 1c-3 2-2 9 2 9q5-1 6-6-2-5-8-3m102 0h-11q-3 0-5 2h-2q-1-3-6 0-5 5 4 6h11q4-2 6 1c4 2 17 1 19-2q5-10-16-7m-444 2q-2 6 4 6l3-2a4 4 0 1 0-7-4m11-1-2 4c1 4 7 4 8 0q-1-4-4-5zm19 0q-3 4 2 7a5 5 0 1 0-2-7m21 0a4 4 0 1 0 7 6l3 1q2 3 6 3l6 1h11q6 3 7-5-2-7-8-5h-22q-1 2-4 0-4-3-6-1m321 0a4 4 0 1 0 2 7 4 4 0 0 0-2-7m-109 2-5 1-5 1h-4q-5-2-9 1-1 3-3 0c-3-2-15-4-18-2l-7 2q-5-1-6 2c-2 4 4 9 8 6h7l6-1 4-1q3 2 6-1 1-3 4 1l5 2 14-1c10 1 20 0 22-3q3-3 5 0 4 3 8-2c3-6-6-10-9-5l-2 2-2-2c-1-3-15-3-19 0m143 0q-2 3 3 5 6 0 4-5-3-4-7 0m204 0q-3 2-1 3 4 4 7 0c2-4-3-7-6-3m-515 0a6 6 0 1 0 10 5q-1-7-10-5m14 2q-2 3 1 6 6 4 7-2-2-8-8-4m49 0a5 5 0 1 0 3-1zm34 2q-1 3-3 1-6-4-8 2c0 4 5 5 7 2q2-2 5 1a6 6 0 1 0-1-6m-49-1c-3 0-3 6 0 7a4 4 0 1 0 0-7m-18 2q1 4 4 5 4-1 3-6-4-2-7 1m45-1a4 4 0 1 0 6 6 4 4 0 0 0-6-6m258 14h-6c-6-2-11 3-7 8q4 4 8 0h4c1 1 21 3 37 2h16q10 1 10-5c0-5-2-5-27-6h-28q-5-1-7 1m66 2c-5 4-1 10 5 8 4-1 5-7 1-8l-2-1q-2-1-4 1m13 0c-6 3-2 10 4 8q7-4 1-8-2-3-5 0m-118 1q-1 4 3 6 3-1 4-5c0-3-5-4-7-1m13-1a4 4 0 1 0 6 6 4 4 0 0 0-6-6m-315 2-13 3c-1-1-12 2-14 4h-4c-2-1-7 0-7 2h-22l-13 2h-21l-48 2q-13-2-12 4 0 11 13 8h8c3 1 39 0 40-1 2-2 9-1 11 1h9q2-3 3 0 4 2 9-1l3-2 3 2q4 5 6-4 0-7 2-4c0 2 6 1 7-1l2-1q3 4 8 0l9-1 10-1h7c12 3 24-5 17-11-2-2-12-3-13-1m19 2c-4 2-1 8 3 6q5-1 1-5l-1-2zm-45 15-4 1-5 4c-3 5 1 6 20 7 7 1 7 1 10-1q2-4 4-1 6 5 8-2-1-8-7-4-3 2-5-1c-3-2-20-5-21-3m120 0-7 1q-8 0-8 5c0 2 5 6 6 4l5 1c10 2 18-2 14-7q-1-3-3-3l-4-1zm-141 2q-3 6 5 7 7-1 3-6-3-3-8-1m158 0-3 4c0 5 14 8 17 3 4-5-7-10-14-7m26 1q-1 3-3 1-6-3-6 2 2 5 6 3 1-1 3 1c6 3 18 1 18-4 0-4-16-7-18-3m52 0q-2 4-4 1l-5-1-6-1c-5-1-8 4-4 7 2 2 13 3 15 2l2-2v-2l1 2 3 2c2 1 15-2 16-3q1-2 2 1l2 3c2 2 13 1 15 0q1-2 3-1a4 4 0 1 0-1-6h-2l-4-1-3-1h-12l-9-2c-8 0-8 0-9 2m-132 1q-4 4 0 5 6 3 7-2-1-7-7-3m14 0q-4 6 3 6 5-3 1-7-2-2-4 1m87-1v6a5 5 0 1 0 0-6m117 0q-3 7 5 8 6-1 3-6-4-5-8-2m13 1q-6 5 0 8c6 0 10-7 5-9q-2-1-5 1m11 0c-4 5 2 11 7 8h6l6-1q6-6-5-7l-6-1q-3-2-8 1m-263 1q-1 1 1 4c2 4 7 2 7-3 0-3-6-4-8-1m287 0q-6 6 10 8 10 2 10-3c2-5-16-9-20-5m24 1q-3 3-1 5 4 8 9 3t-1-8q-3-4-7 0m175 0q-3 2-1 4c3 5 11 2 9-3q-3-5-8-1m16-1q-3 4 2 7 8 0 4-6-3-3-6-1m-149 1h-15c-15 1-16 1-16 5 0 3 2 4 15 5q24 3 23-6c0-3-5-6-7-4M0 167q0 6 5 2 4-4-2-6-4-1-3 4m563-2q-6 4-3 8c5 4 13 1 11-4q-1-7-8-4m139 0-22 2-35-1q-6 1-7 6 2 5 8 6l5-1 12 1 14-1h5l5 2 9 1c5 1 6 1 11-1q5-3 6-1a167 167 0 0 0 48-2h8v-10h-5l-50-1zm-77 2c-4 3-1 9 4 9 2 0 7-4 7-5 0-2-5-6-7-6zm-32 1q-2 2 1 5 5 5 9 1c4-5-5-11-10-6m16-1q-4 5 0 8c7 5 16-2 10-7-2-2-8-2-10-1m-32 1q-3 4 2 7 6 0 7-3c0-4-6-6-9-4m-375 4c-3 2-2 9 2 9 5 0 8-6 5-10q-3-2-7 1m38 1-3 4c0 4 8 7 12 3q2-2 5 1 6 5 10 2h3q2 2 22 2l7 1c2 2 16 2 21 1h14l7 1 25 2 14 1q3 1 7-1 5-3 6-1l8 1h7q9-2 2-8l-4-1h-7l-7 1-2-1q0-2-8-2l-11-1-22-2-22-1c-17-1-55-2-57 0l-3-1q-4-4-9-2-2 3-4 1-5-4-11 0m-26 0a4 4 0 1 0 7 6 4 4 0 0 0-7-6m13 1q-5 6 4 7 3 1 4-3c1-4-5-8-8-4m354 6q-6 4 0 7 4 2 8-4c3-4-4-6-8-3m-398 0-4 1c0-2-8-1-9 1h-9l-4-1q-3-2-7 1t-4 1c-2-2-9-3-9-1h-3q-6-1-8 4 0 5 8 5h8l4-2q2-3 4 0 4 4 7 0 2-4 4-1t6 0q1-3 5 0t7 0q2-3 3-1 3 2 6-1 3-5 0-6zm-103 2q-4 3 0 7 3 3 7 1 1-3 4 1 4 2 6 1h6q5 1 8-4 1-2 3 1 5 4 8 0c5-5-2-11-8-6l-2 2-2-2c-2-3-15-3-18 0h-4q-4-3-8-1m484 0a4 4 0 1 0 6 6 4 4 0 0 0-6-6m-496 1-2 4c0 5 9 5 10 0q0-6-8-4m346 0q-4 4 1 7c6 0 8-5 3-7zm-403 2-2 3 2 2c4 5 12 5 12 0q-1-6-7-7zm413-1c-2 1-1 6 1 7 3 3 9-2 7-6-1-2-7-3-8-1m13 0q-3 8 5 6c2 0 3-6 0-6zm23 18q-3 4 2 5 4-1 4-5-3-3-6 0m79-1h-7l-6 1q-2 2-5 1h-5l-4-1h-5l-6 1q-6 1-5 4l4 1 5 1h11q7 3 7 0 1-3 4 1l5 1 7 1 9 1 8-1c25 1 31-1 29-6l-6-3-7-1-8-1zm50 3c-4 5 1 11 6 8q5-4 2-8-4-6-8 0m12-1a6 6 0 0 0 11 5c2-5-8-10-11-5m19 2q-4 2 0 6a5 5 0 1 0 0-6m13 0q-3 6 5 8 7-1 4-7c-1-2-7-3-9-1m17 2q-2 2 1 4c3 4 10-1 6-5q-3-5-7 1m-519 12c-2 2-3 8-1 10 3 3 11-2 11-6 0-5-7-8-10-4m46 2q-5 7 8 9l6 2 20 1h29q12 0 13-2 2-3 4 0 8 6 14 0 2-2 1-5c-4-6-13-7-17-1q-1 3-1 0-1-2-6-2l-7-1c-2-1-8-2-29-2l-30-1q-4 0-5 2m-23 1a4 4 0 1 0 6 3 4 4 0 0 0-6-3m10 0q-2 5 4 6 3 0 4-2 0-9-8-4m114 1c-7 3-3 13 4 10a6 6 0 1 0-4-10m16 2c-5 2-5 8 1 9 5 2 10-5 7-8q-2-4-8-1m16 1c-7 1-6 10 1 10q6-1 7-5-1-6-8-5m14 0c-6 3-2 13 5 11q9-4 4-9-4-5-9-2M0 231v5h4q6 0 10-4 3-5-8-5l-6-1zm340-3q-4 4 0 8c5 5 15-2 10-7q-5-5-10-1m30 1-3 3-3-3c-6-6-15 2-9 8 2 3 8 3 10 0q2-3 3 0c2 2 25 3 28 0q6-6-7-7l-8-2q-6-4-11 1m31 2q-3 5 2 8 6 2 7-4c0-4-6-7-9-4m27 1h-7q-11-1-9 5 1 6 7 4 3-2 6 1l8 1 26 1c37 3 47 2 50-2q4-8-21-8l-9-1-23-1-22-1q-2-2-6 1m94 6q-4 4 2 7 3 0 4-2 2-3 3 0a4 4 0 1 0 0-4h-3q-3-3-6-1m-345 13c-5 6 7 13 14 8q2-2 4-1l3-1q2-3-3-4l-4-1q-8-4-14-1m26 3q-3 2 0 6c2 2 18 3 21 1q2-3-1-7c-2-2-19-2-20 0m28-1q-9 4-1 9 6 2 9-2l2-1c0 5 10 8 14 4l1-3 3 3c3 3 9 1 9-3s-6-6-9-3q-1 2-3-1c-3-4-12-5-14-1q-2 3-3 1-2-5-8-3M0 258c0 5-1 5 25 6l26 2c12 1 28 2 32 1l9 1q10 2 10-6-1-6-10-4H81l-19-1-57-3H0zm274-1c-5 3-1 10 5 7q5-3 0-7-2-3-5 0m31 5q-3 5 3 6 5 0 3-5-1-3-6-1m46 1q-3 7 4 5a3 3 0 1 0-4-5m88 2q-5 5 4 6l6 1q5 3 10 0h5q8 5 13 1 3-3 3-1c1 4 23 6 28 2l3-1 3 1c5 2 9-4 6-7-2-2-9-1-10 1h-2c-2-3-26-4-28-1q-2 1-5-1-7-3-13 1-1 1-4-1-5-5-8-1h-4q-4-3-7 0m140 1-4 4-2-2q-5-4-8 0-3 2-5 0h-25q-6-4-10 0c-6 6 3 12 9 7q4-3 4-1l2 3h27q5 1 6-2l2-2 3 2c3 3 14 5 20 3h18c5-2 11-2 33-2l30-1h4l5 1 12 1q7 2 16 1h38l15 1v-13h-21l-23 1h-7l-13-1-49-1h-64q-7-4-13 1m-154 0q-2 3 2 5c4 3 8-3 4-6q-3-2-6 1m-299 5q-1 3 5 3 8-1 5-4c-2-2-9-1-10 1m35 0q-2 3 3 4 6 0 6-3c-1-2-7-3-9-1m19 0q-6 1-3 4c3 2 13 1 15 0q3-6-12-4m114 3q-5 3 1 4h5q5-2-1-5c-3-1-2-1-5 1m33 0q-3 6 8 5 9 0 6-4c-1-1-13-2-14-1m51 3c1 2 18 5 21 3q9-5-12-5-11 0-9 2m28 0q-2 3 3 4 14 2 15-3c-1-2-17-3-18-1m49 1q-7 2 0 3l27 1q9 0 5-4zM23 294q-4 3-1 6c2 2 4 2 17 2l18 1c4 4 11-1 8-5-2-2-3-3-19-3l-18-1zm329 0q-5 3-5 6c0 7 17 10 23 5l2-2 3 2c4 3 16 3 19 0q4-3 0-7c-3-2-18-2-20 1q-1 1-4-2l-7-2-4-1zm-113 1c-6 2-3 9 4 9 6 0 8-7 2-9zm-145 1H83q-19-1-15 8c2 2 2 3 18 3l59-1 1-1c3 2 73 3 75 1l3-1c4 0 8-7 6-9zm399 0q-4 5 2 6 7 1 9-2c4-3-7-7-11-4m14 2q-1 5 8 6 15-3 8-7c-2-2-13-1-16 1m142-1-17 1c-9 0-10 0-13 2q-7 8 7 10a470 470 0 0 0 79-3l7-1h44q7 2 9-3h3q1 2 1-3v-4h-57zm-249 2q-6 6 6 8l7 2q3 2 6-1 3-4 5-2c2 2 7 3 7 0 3-6-6-12-9-7q-2 3-4 1c-2-2-15-3-18-1m170-1-3 2-4 1-3 1-6 1q-4-1-5 3-3 5 8 5c6 1 6 1 8-2l3-2 2 2c1 2 16 2 18 0h4q6 4 10 0 2-3 3 0c4 3 11 1 11-4s-8-8-11-4q-2 3-4-1-5-4-10 3-1 4-4-2-4-5-17-3m-134 2c-3 4 4 11 9 7q5-3 0-7-4-4-9 0m-129 1c-5 2-5 8 0 10 7 4 14-5 9-10q-3-3-9 0m144 0c-3 3 0 9 4 9q4-1 5-6c0-3-6-5-9-3m12 2q-5 3 1 6c4 3 9-3 5-6q-3-3-6 0m53 3q-2 3 1 4c5 4 10 0 7-4q-5-4-8 0m21-1q-2 6 4 8 5-1 4-7-3-3-8-1m-252 2c-4 2-3 9 3 9q8-2 3-8-3-3-6-1M5 314q-4 4 1 8 4 4 7 1c4-6-3-15-8-9m15 0c-5 3-2 10 5 11q9 2 8-5c-1-6-8-10-13-6m37 28H46q-7 0-5 5 2 6 10 5l11 1c4 1 60 2 73 1l1-2c0-5-3-6-21-6l-27-3q-19-3-31-1m625 0q-5 3-2 7 2 2 8 1 12-1 9-6c-1-3-10-4-15-2m-377 2a5 5 0 1 0 7 0zm11 0c-2 3 1 10 5 10q5-1 6-5c0-4-8-8-11-5m339 1c-11 6 5 12 17 6q6-3 2-6c-4-2-17-2-19 0m-322 1c-4 4 0 9 6 7l6 1q6 1 8-4c0-3-9-8-10-5a4 4 0 0 1-6 0q-1-2-4 1m263-1-10 2-8 1c-3 2-13 2-14 0l-5-1h-8c-6-2-10 6-5 10 2 3 18 3 19 1h4c1 1 7 2 8 0h15a32 32 0 0 0 19-1l7-2h9q2-3 5 0h6l4-1q5 0 5-5-3-5-12-3l-5 1-12-1-12-1zm-240 2c-3 4 3 9 8 8h4q0 2 21 2l22 1h9l12-2 12-1h2c2 3 6 4 31 3l39-1 5 1h13l7-1q2-4-1-7l-4-2h-21c-2-2-67-2-70-1q-2 3-3 1l-4-1q-12 3-18 0c-4-2-17-1-20 1h-4l-17-1h-15c-1-2-7-1-8 0m-217 2q-4 3 1 5 7 1 4-6-3-2-5 1m157 2q-2 3 3 5 4-1 3-6c0-2-5-1-6 1m-67 13v9q4 4 6-3v-3q2-1 1-6l-4-1q-4-1-3 4m502 3v7a24 24 0 0 0 18-2c1 2 13 3 17 2 5-1 4-7 0-7l-9-1q-6-1-7 2h-3c-2-1-15-2-16-1m-145 4q-1 3-4 1-4-3-8-1h-5q-3-2-5 1c-4 4 0 9 6 7l7 1q8 4 8-4v-2l1 2c2 4 9 4 10 0 0-5-6-9-10-5m40-1h-12q-18-1-15 6 1 7 14 5l17-1q11 0 12-5 0-5-7-4l-5-1zm19 1q-5 3 1 7c7 6 21 0 17-7-2-3-15-3-18 0m-129 0q-3 7 5 8 6-2 2-7-4-3-7-1m12 1q-3 3-1 6 5 2 8-1 1-2 3 1 3 3 9 1l4 1q6 2 8-2c3-5-4-10-8-7q-2 3-5 1c-2-3-8-2-9 0l-2 2-1-2q-4-4-6 0m138-1q-3 5 2 6 7-1 4-5-3-3-6-1m-162 2c-2 1-1 7 1 8 3 2 7-3 6-6-1-2-6-4-7-2m-130 5c-3 0-4 5-1 7a5 5 0 1 0 4-8zm-120 2-73 1c-3 0-10 6-10 8q0 3 4 2l5 1q2 2 11 2l69-1 34-3q8 1 8-2h3q6 2 7-1c0-4-7-6-8-2q-1 2-3-1c-2-2-3-2-11-3q-24 0-28-2t-8 1m103 0q-4 6 3 7 6-1 3-7zm-43 4q0 9 10 4 6-3 0-6-8-3-10 2m-277 6-6 1h-5c-3-2-10 1-10 5q1 5 10 6 3-1 8 1l8 1h37l17 1 18 1q3 2 14-4c5-2 3-7-1-7l-4-1-37-2-40-1c-6-2-6-2-9-1m98 7q-3 3 2 6 2 2 4-1c3-4-2-9-6-5m17 3q0 6 6 4 4-1 2-3-5-5-8-1m323 4a3 3 0 1 0 3-3q-4-1-3 3m14 1-2 2c0 5 10 5 11 1 1-5-6-7-9-3m29-1v8c4 4 11-1 7-6q-3-3-7-2m-14 1q-2 6 5 6 4-1 1-5-3-3-6-1m123 13c-2 1-1 6 2 7q6 1 7-3-1-6-9-4m-336 3-13 1-10 1q-10 0-11 2h-3c-3-4-10-1-8 4 1 3 8 3 9 0q0-3 2 0c3 4 31 5 51 3l15-2q11 0 8-7-1-2-6-2zm354 0c-3 1-2 6 0 7a4 4 0 1 0 0-7m95 2q-7 9 3 11 6 0 7-6c2-5-6-10-10-5m-79 0a4 4 0 1 0 6 5 4 4 0 0 0-6-5m-235 2q-1 6 4 8 5-1 6-5c0-5-8-7-10-3m-192 1a5 5 0 1 0 9 0c-2-3-8-3-9 0m-98 12q-3 5 0 8 8 2 9-5c0-4-6-7-9-3m-78 5-6 1-7 1h-5q-8-1-9 3h-1q-3-3-10-2l-4-1c-2-2-9-1-11 1l-3 2-1-1-1 3q1 5 2 1 1-2 1 1 2 7 12 4h6q8 3 10-2 0-3 4 0c2 2 17 3 20 1l13-1h11l1-3q3-4-1-8c-2-2-18-2-21 0m29-1q-6 3-2 8t9 1c5-4-1-12-7-9m367 1q-3 3-1 5 4 5 7-1c3-5-2-8-6-4m-355 1q-5 6 4 7 5 1 4-3-2-9-8-4m203 8q-1 2-18 2l-17 2h-7q-6-2-7 1-2 3-4 0-4-4-8 0h-5q-5-2-8 1-4 4 0 8 9 5 11-4 0-3 1 0c2 4 11 6 11 2l4 1 4 3h50l53-2q6-6 0-8l-4-1q-3-2-26-2l-13-1zm-186 5-1 2c0 3 6 5 8 2 3-2-2-6-7-4m97 2q-1 3-3 1c-2-2-7-3-7-1q-1 2-4 1-6-2-8 3c0 5 7 7 9 3q2-3 4-1c2 2 7 1 7-1l2 1c4 6 12 5 12-2 0-5-8-8-12-4m-46 1c-3 2-1 7 2 7q6-1 2-7zm11 0v7c2 3 9 1 9-3s-6-7-9-4m336 3q-3 5 2 8t7-1q2-1 3 1 5 4 8 0 2-2 5 1h6q2-3 3 0l8 2 13 1q18 3 23 0 4-5-2-9c-3-2-37-3-41 0q-1 2-4-1t-7-1-5 0c-1-1-6-1-7 1h-2c0-4-7-5-10-2m105 0-1 3q0 3-1 2l-4-1-8-1q-9-3-10 5-1 5 10 5l7 2c4 3 9-3 7-7q0-3 1-1 5 0 3-6-1-3-4-1m38 0-3 3q-2 4-3 1-1-4-6-3-6 1-5 11c2 3 11 3 11-1h2l4 3c6 4 10-5 6-13q-2-3-6-1m68 1-36 1h-16c-5 0-8 6-4 10q4 4 43 3l32 1h25v-15zm-100 4-2 4c0 6 10 8 12 2 2-4-5-9-10-6m-179 15-20 1-22 2-15 1-13 1q-1 3-3 1-5-2-7 1h-4q-4-4-21-2h-13c-2-2-13-1-16 1q-4 2-5 1c-5-3-10 3-6 6q4 2 7-1h2c4 4 13 5 17 3h4l15 1q19 1 18-6 1-2 1 1 4 4 8 2 1-2 4 1c3 2 0 2 53 2l29-1q2-2 5-1 5 0 4-2l2-4q2-5-2-5-5 1-5 4t-2-1c-2-3-13-8-15-6m-219 5c-3 2 1 8 5 8q5-2 1-7-4-4-6-1m52 0-4 1-5 1q-3 3-2 0c-1-2-18-1-19 1q-3 5 9 6 11 3 10-1h3c0 2 13 0 15-2 4-4-2-9-7-6m11 1q-4 5 3 7 8-1 3-7-5-4-6 0M15 506q-9 6 2 6 10-1 5-5-3-3-7-1"
        mask="url(#16282281824-posters-1720560138473-horizontal-mask)" itemprop="light" fill-opacity="0.90"
        fill-rule="evenodd" stroke="none" fill="url(#16282281824-posters-1720560138473-vertical-light)"></path>
      <!---->
      <path id="16282281824-posters-1720560138473-regular"
        d="M506 1c0 4 6 5 9 3q3-4-4-4zm13 0 1 2c4 5 38 2 38-2l-19-1zm114 18-15 1h-13l-5 1q-5 2-3 6l9 1h10l9 1 14 1h14l9-1 7-1q3-2 4-1h7q2-2 3 0a4 4 0 1 0 1-5h-5q-3-3-6 0-2 2-5-1l-6-1h-7c-3-1-14-2-22-1m-158 1q-3 3 0 7c3 3 16 1 16-3l-1-3c-2-1-13-2-15-1m-21 2q-4 3 0 5 5 3 6-1-1-6-6-4m-50 1c-5 3 0 8 5 6q6-2 1-6zm-277 9-22 1c-27 1-32 2-34 3h-7q-6-3-12-1l-11 2q-8 1-8 5c0 4 6 6 10 4q2-1 3 1c3 2 15 1 19-1h6c3 2 22 2 41 0l30-2c24 0 28-1 31-4q6-7-9-8zm130 0h-8c-11 1-12 2-13 5q-1 4 8 6l12 1c8 1 19-1 20-4q3-5-1-7zm-61 2c-3 4 1 8 5 4q2-1 1-3-2-3-6-1m17 0q-8 1-6 4 4 5 19 4l4-1 1-2q1-3-5-3l-7-3zm69 0-2 4q0 6 8 5 5-2 8 1 3 2 6-1c6-4 1-11-6-8l-5-1zm27 3q-4 4 2 8a5 5 0 1 0-2-8m15-1c-4 2-1 9 3 9q3 0 5-4c2-4-4-8-8-5M10 39H5q-5-2-5 4 0 7 6 2 2-3 4 0t6 2h9q3 1 5-2 2-7-5-8h-9zm664 16q-4 2 0 7a4 4 0 1 0 0-7m-13 2q-4 8 5 5 4-4 0-6-3-2-5 1m22-1q-1 4 2 6a4 4 0 1 0-2-6M0 68q0 8 5 3h5c3 2 14 2 19 0l6-1q7-2 1-5l-7-2-16-1-13 1zm45-3q-4 2 0 5a4 4 0 1 0 0-5m74 0q-3 3-1 5c2 2 7-1 7-4q-1-5-6-1m394 7q-5 6 1 8c3 2 15-2 15-4 0-6-11-9-16-4m83 28q-3 4 1 8c4 3 20 1 20-2l3 1c3 3 18 3 21 0q2-3 5 0c4 4 11 2 11-3 0-6-7-8-11-4q-3 4-4 1c-2-2-16-2-19 0q-6 3-7 1c-1-2-11-4-16-4zm65 1q-3 11 7 8l4-4c1-5-9-8-11-4m15-1c-3 1-2 6 0 7 2 2 15 2 18 0v-6c-1-2-16-2-18-1m25 1q-3 2-1 6a4 4 0 1 0 1-6m12 0q-1 4 3 5 4-2 4-5c-1-3-6-2-7 0m-551 1q-4 4 2 6a4 4 0 1 0-2-6m310 0q0 6 3 6 5 0 5-6c0-3-7-3-8 0m88 0h-9q-3 6 5 5h3l7 1 13 1q16 0 11-8h-19q-3 3-4 0-4-2-7 1m-419 1q-2 4 3 5a3 3 0 1 0 0-7zm52-1-2 4q1 5 18 5 15 2 13-4t-8-4h-4c-2-1-14-2-17-1m205 0-5 2-4 1-5 1h-6c-6-4-10 3-4 7h6q3-3 4-1c3 2 25 1 28-2 7-5-2-10-14-8m19 2c-2 5 4 8 7 4q3-1 1-4-5-4-8 0m-192 1q-3 3 0 7 4 3 10-1c4-5-5-11-10-6m127-1-7 2q-7 0-7 2c-3 4 2 8 7 6l8-2 14-1c4 0 0-6-5-6l-5-1zm-111 2-1 3q1 4 7 2 3-6-6-5m48 0a4 4 0 1 0 5 0zm34 1c-3 5 3 10 9 7q3-3 1-7-4-4-10 0m-50 0q-2 3 1 5 5 4 6-2-2-6-7-3m29 1q-3 2-1 4c2 3 7 2 7-2q-1-5-6-2m11 0q-2 2 1 4a3 3 0 1 0-1-4m245 13q-1 3-6 1-3-2-5 1c-4 4 1 9 6 6h7q6 2 8 1h50c3-2 3-7 0-7-8-2-26-3-34-2l-13-1zm67 3q-4 5 3 7c5 0 7-5 3-7q-3-3-6 0m13-1q-4 1-2 6 3 3 8 1c3-4-2-9-6-7m-421 3-6 1q-4 2-6 1l-6 1-6 2-3 1h-4q-4-1-5 2c-4 4 3 8 7 4l20-1c16-1 18-1 21-3 9-5 0-11-12-8m-61 9-14 1-57 3q-2 1-8-1-13-3-12 4 0 10 12 7h8c5 2 7 2 26 1l15-2q5-1 12 2 3 2 6-1h5q3 4 8 0l3-3 3 2q5 5 5-3t4-5q6 4 6-3c-1-3-6-4-7-1h-3q-5-3-12-1m34 8q-18 8 10 11 15 1 14-6c0-4-17-7-24-5m123 0h-7c-11 1-13 8-3 8l7 2c10 1 18-7 8-10zm-141 1-1 3c0 4 6 6 8 2s-4-8-7-5m160 0q-11 3-2 7 13 4 14-3l-8-5zm24 1q-5 7 4 7l11-1 1-3q1-2-7-3l-5-2zm52 0c-5 3-1 9 5 8l8-2q9-3-1-6l-7-1q-2-1-5 1m21 1q-4 2-1 5c1 3 1 3 8 3q7 1 8-2h3q5 2 6-2l-1-3q-4-1-6 1h-2l-5-2-6-1q-2-1-4 1m-211 0a4 4 0 1 0 5 0zm158 1c-2 3 3 7 6 4q4-4-2-6-3 0-4 2m12-1q-3 6 8 7 12 1 7-5c-2-2-14-4-15-2m105 1q-2 4 1 5a4 4 0 1 0-1-5m12 0c-4 2-2 7 3 7l5-5q-2-5-8-2m13 0c-5 4 1 9 7 6h5q6 2 7-3c0-3-1-4-11-5q-7 0-8 2m24 0q-5 6 5 7l5 1h6q6-7-4-8zm198 1q-3 5 3 6 7-1 3-7-2-2-6 1m-174 1a5 5 0 1 0 7 6 5 5 0 0 0-7-6m190 0q-2 4 3 5 5-1 3-6-4-2-6 1m-150-1-13 1c-15 0-16 0-16 4 0 3 1 3 12 4q23 3 24-3c2-3-5-8-7-6m124 16-17 2c-10 0-27 0-32 2l-4-1h-25l-6-1q-4-1-5 2-5 9 5 9h37c3 3 19 3 25 1q4-3 6 0l6 1 16-1 15-1 11-1h7v-5c0-5-1-5-21-5zm-167 2c-5 2-4 8 2 8a5 5 0 1 0-2-8m32 2q-4 4 1 7c5 3 9-3 5-7q-2-3-6 0m15-1q-3 3-1 8c2 3 11 1 11-4 0-4-6-6-10-4m14 1c-3 4 4 10 8 6q5-4 1-6-4-4-9 0m-46 1-1 3c0 3 7 3 8 0 0-3-5-5-7-3m-377 4q-2 6 3 7 7 0 5-7-3-4-8 0m40 0c-7 5 0 12 8 7q3-2 6 1t7 2h6q2 3 6 1h6l9 1 9 1c4 2 19 1 22 0l4 1h7q4-3 6 0 3 2 19 2l14 1c11 1 12 1 15-1q3-3 5-1l6 1h7q5 1 6-4-1-5-7-3h-10q-4 2-5-1l-8-1-10-1-21-2-20-1h-10l-28-1c-19 0-25-1-27-2h-12q-6-3-10 0m-25 0c-3 2-2 7 2 7l4-4q-1-4-6-3m11 1q-2 3 1 6 5 1 6-2 0-6-7-4m355 6q-5 2-2 6 3 2 7-1 5-7-5-5m-411 2q-4 4 2 6 6 1 7-3c0-5-6-7-9-3m11 0q-1 4 3 5 4-1 4-5c0-3-6-3-7 0m-84 0q-6 0-7 2h-3c-2-4-9-2-9 1q1 8 7 5 3-3 6 0 2 2 6 1h5a5 5 0 1 0 3-10zm40 0-5 1q-5-1-6 4 1 5 7 3h4a5 5 0 1 0 0-8m12 0a4 4 0 1 0 8 5l2-1c0 4 8 3 8-1q-1-5-6-3zm-35 2q-3 2 0 4a4 4 0 1 0 0-4m-47 0q-2 3 1 6 6 2 7-4c-1-3-7-4-8-2m345 0q-3 3 2 5t5-4q-3-3-7-1m12 0-2 3c0 4 6 6 8 2q2-8-6-5m-414 2q-2 2 1 5c5 4 12 2 10-3q-4-6-11-2m529 15q-4 2-8 1l-6 1q-2 3-3 1c-2-1-15-2-17-1l-5 1h-4q-4 4 10 4l11 1h4q2-3 5 0 3 2 5 1l8 2h23q21 0 22-4 0-3-2-3l-20-3-17-1zm50 3q-3 4 0 6c3 3 9 0 7-4q-3-7-7-2m12-1c-4 3 2 10 7 8q4-3 0-8zm18 3-2 2 2 2c4 4 10 0 7-5q-3-2-7 1m15-1c-2 1-3 6 0 6 5 3 10-1 6-5q-3-3-6-1m16 2v4a3 3 0 1 0 0-4m-519 12c-6 4-2 12 4 9q6-2 2-8-3-6-6-1m45 3q-4 5 6 7c11 3 14 4 27 3h26c17 0 19-1 17-6q1-3-6-3l-7-1c-2-2-62-2-63 0m83 0c-7 3-3 12 5 12q6-1 6-7-3-6-11-5m17 3q-4 6 3 8 7-1 5-8c0-3-6-2-8 0m17 0c-4 2-3 9 2 9s8-7 4-9zm13 3q-3 4 2 7c4 2 10-4 7-8-2-2-8-1-9 1m15 0q-3 6 3 8t9-4c1-5-8-8-12-4m49 1c-5 5-3 11 3 9h12q12 0 11-4 0-4-7-3-2 1-10-4-5-3-9 2M0 231q0 6 2 5l5-1q7-2 6-6l-7-2H0zm341-2q-5 6 3 8c6 0 10-6 4-9q-5-2-7 1m14 0q-3 4 1 8c5 5 12-1 9-6-2-3-8-4-10-2m46 3q-3 6 4 7 5 0 5-4c0-3-7-5-9-3m26 1h-6q-8-3-9 4 0 5 8 3l6 1 17 2 15 1 24 1c22 0 23 0 25-2q7-7-16-8l-15-2h-38l-5-1q-3-1-6 1m96 5q-4 2 0 6 3 2 4-1 4-7-4-5m-345 14c-5 5 7 11 12 6l5-1q5-1 1-3l-4-2q-10-3-14 0m26 2q-4 4 1 6c4 2 17 1 18 0q4-6-6-7h-7q-4-2-6 1m26 0-3 2c-3 4 7 8 11 5 4-4-2-9-8-7m13 1q-5 4 1 7c5 5 12 2 12-4 0-4-9-7-13-3M0 258q-1 5 4 4l47 3 26 2 18 1q8-1 6-7c-2-3-9-4-11-2H80l-26-2-44-1-10-1zm260-1c-5 3 0 9 5 6q5-2 1-5-4-4-6-1m14 1q-3 2-1 4c2 4 8 1 7-3q-2-4-6-1m308 7-5 4-2 2 3 3 3 3h16q16 1 22-1h46l12-1h7c4 2 21 3 36 2h28l21 1v-12h-20c-15 0-20 0-23 2q-3 2-9-1l-15-1-17 1h-20q-25-3-29-1h-13l-15-1-20-1q-2-1-6 1m-143 0c-3 4 2 8 6 5q1-1 5 1c5 4 11 2 10-3q-3-5-10-3zm28 1q-9 2-2 6 12 5 13-3l-8-4zm14 1q-2 3 0 6c3 2 21 3 25 2q6-3 1-7c-2-2-24-3-26-1m31 1q-3 1-1 4 5 4 8 0c3-4-4-8-7-4m14 0c-5 4 1 11 7 7q4-3 7 0c3 2 20 3 22 1h10c5-4-1-11-7-8l-3 1h-27q-4-4-9-1m-346 4q-6 1-1 3c5 1 13 0 13-2q-1-3-12-1m147 3q-2 4 6 4t8-4zm59 1q-3 0-3 2l14 2q8-2 0-4zm23 1q-6 2 1 3c5 1 13 0 13-2l-3-1zm43 2q-2 1 20 3 20 1 15-2c-1-2-35-2-35-1M23 295l-2 3q-1 3 18 3c14 0 15 0 18 2q5 4 6 0 8-7-11-7c-24-2-28-2-29-1m328 0c-5 2-4 9 2 11 12 4 25-4 14-9-4-2-13-3-16-2m-223 1-37 1c-21 0-23 0-23 5q1 4 7 4h10l34 1h6c8-2 32-2 44-1l33 1c18-1 22-1 26-5l4-3-3-2c-2-2-30-2-69-1zm109 0q-3 6 6 7 7-1 4-7zm257 0q-5 5 3 6 11-1 4-5-3-3-7-1m-120 3-2 2 2 3c4 3 19 3 20 0v-5c-3-3-17-3-20 0m48 0q0 4-4 1c-3-2-16-3-18-1-3 3 0 8 5 7l7 1q4 3 7 0 2-3 5-1 7 4 7-2 0-4-3-5-4-3-6 0m86-1q-1 2 2 4c3 2 14 0 14-2 0-3-15-4-16-2m137 0h-11c-9 1-11 1-14 3q-16 11 44 8l23-1 9-1 35-1 34-2 2-2q2 1 2-2v-3h-62zm-207 2q-4 6 3 8 9-1 1-9-1-2-4 1m129 0-2 2q-2-1-5 1l-6 1q-7-1-4 5c2 3 13 3 15-1l2-2 3 3q3 3 7 1h6q10 0 3-9c-4-4-15-5-19-1m27 1c-4 4-3 10 3 10 5 0 7-7 4-10q-3-3-7 0m-288 1q-5 7 4 9 7 0 7-5c0-6-7-8-11-4m146-1q-3 5 2 8a4 4 0 1 0-2-8m153 1c-3 6 6 11 10 5q2-2-1-5-4-5-9 0m-141 1q-4 4 1 6c4 1 7-4 3-6zm74 2c-3 4 1 9 5 6q3-2 0-6zm-253 3q-4 4 1 7 4 2 6-3 0-7-7-4M5 314q-4 3 0 7 8 5 9-3c0-4-6-6-9-4m15 1q-4 3 0 7c3 3 10 4 12 2 5-5-6-14-12-9m33 28c-11 0-12 1-12 3q0 5 10 5l11 1c4 2 11 2 38 2 36 0 38 0 34-5-1-2-3-2-19-3l-30-3zm629 0c-5 2-2 7 5 6 10-1 10-1 10-4q1-3-6-3zm-364 2q-3 2 0 6 5 4 8-2-2-7-8-4m338 0q-9 8 4 8c6 0 14-2 15-4 4-4-12-8-19-4m-352 0q-2 3 1 5c3 4 10 0 7-4q-4-4-8-1m29 1-1 3q-1 4 7 4l7 1c6 1 8-5 3-8l-5-1-8 1zm265 0-10 1q-19 2-20 4l-3-1q-2-3-6-2h-7q-11-1-6 8c3 3 15 4 19 0l2-2 3 3q3 3 4 1h23q3 2 11-1l13-3 7-1h4c6 4 16 0 14-5-1-3-11-3-15 0h-4l-8-2zm-240 1q-5 6 5 7l13 2h24l26 1 11-1 5-1q3-3 5 0 3 2 10 3l20 1 20-1 16-1h21q10 1 7-5c-1-2-7-4-9-3h-6l-5-1h-6c-15-2-66-2-69 0q-2 3-4 1-1-3-5-1c-3 1-15 1-24-1h-10l-8 2c-6-2-25-2-27-1h-4q-4-3-6-1m-128 15v7q-3 4 2 5l2-4 1-4c2 0 1-5-1-5q-3-2-4 1m521 5q-7 6 7 7 12 1 11-3 1-3-5-3l-8-2zm-21 2q-2 5 9 5 12 0 8-5c-3-3-16-3-17 0m-80 1q-5 1-6 4c0 5 11 8 16 4 7-6 0-10-10-8m-112 1c-3 4 3 10 8 8q3-3 4 0 8 4 9-4-1-5-8-3h-6q-5-3-7-1m49 0q-3 3 2 7h5c5-3-1-10-7-7m15 1q-4 3 1 8h24c9 1 18-4 14-7l-20-2h-10q-7-1-9 1m-86 0q-1 5 3 6t6-2c0-3-7-6-9-4m12 1q-4 3 1 5c4 2 8-2 4-5q-2-3-5 0m36-1c-4 4 2 9 6 7q4-3 5 0c5 4 12 1 9-5-2-2-2-2-10-2zm-60 1a4 4 0 1 0 6 6 4 4 0 0 0-6-6m-131 6a4 4 0 1 0 5 6 4 4 0 0 0-5-6m-119 1-12 2h-56q-6-2-10 2-9 7 1 7c15 3 78 4 83 2 3-2 18-3 31-3q16-1 10-6-3-2-5-1l-6-1h-8l-11-1-11-1zm62 3q-3 1-1 4c2 3 13 1 11-2-1-3-8-5-10-2m-282 8-8 1c-8-2-12 4-6 8q4 3 7 1h5c2 1 6 2 22 2l28 1 16 1h14q5 2 11-1 11-3 6-7c-2-3-15-4-52-5l-33-1zm456 14q-5 5 4 6 5-3 1-7-3-2-5 1m28 0q-2 3 1 7 8 2 6-6-3-3-7-1m110 13c-4 2-1 7 3 7q6-2 2-6-3-3-5-1m-324 2-10 1-16 2-13 1q-11-1-7 5c2 3 28 4 47 2l16-1q10-1 10-5 1-4-12-4zm342 1c-5 2-3 7 2 7q5 0 3-5 0-3-5-2m94 2a6 6 0 1 0 8 8c5-6-2-13-8-8m-492 1a4 4 0 1 0 4 6 4 4 0 0 0-4-6m179 0q-2 3 1 6a4 4 0 1 0 5-6l-3-1zm-191 1q-4 2 0 5 3 3 5 0c4-3-1-8-5-5m-100 13q-3 6 4 8 4-1 5-5c0-3-6-5-9-3m-77 5-5 1-7 1q-4 2-7 1-10-2-6 7c3 3 44 2 46-3q2-6-3-7zm27 1c-5 4 2 11 7 7q4-3 2-6-4-4-9-1m13 0v6a4 4 0 1 0 0-6m-93 2q-6 3-1 8t11 1h5c5 3 11 1 9-4q0-5-8-5-5 1-8-1t-8 1m293 8-8 1-17 1h-14c-8-2-11 5-4 9 3 3 4 3 17 2h29l17-1 2 1h27q16-1 17-5c0-2-9-6-12-6l-38-2zm-57 2c-5 3 1 11 6 9q6-2 0-8-4-3-6-1m-13 3q-4 3 0 6c4 4 10 1 10-4 0-3-8-5-10-2m-25 0c-4 4 2 9 6 6q2-3-1-5-3-3-5-1m9 1c-2 4 5 10 9 8q5-4 1-8-6-4-10 0m-33 0q-6 4 0 7 5 2 6-3-1-6-6-4m13 1c-2 2 0 7 4 7 2 0 4-5 3-7-1-1-6-2-7 0m322 3a5 5 0 1 0 7 6 5 5 0 0 0-7-6m141 2q-6 9 2 11c5 2 8-7 4-12q-2-5-6 1m-130-1c-4 4 4 9 8 5q1-2 5 1c5 2 10-1 6-5q-5-4-8 0l-1 1-2-1q-3-3-8-1m47 0h-11q-15 0-14 4 1 5 8 4h4c4 2 29 4 32 2q2-3-1-7c-3-3-15-5-18-3m69 1c-4 3-2 11 3 11q6 0 6-6-1-10-9-5m46-1-10 1q-12 0-10 5c0 5 8 7 36 6l18 1h34l8 1h5v-14h-21l-35 1-14-1zm-92 3q-2 9 8 8h7q8 4 8-4 0-4-8-4l-4-1c-2-2-9-1-11 1m29 1q-6 6 5 8 8-1 3-8-4-4-8 0m-177 14-29 2-19 2-14 1q-8-2-9 1l-3 1c-2-2-8-1-8 1-2 3 3 6 7 4h3c2 3 7 4 44 4h37l2-3q3-3 4 0 3 3 5-2l1-4v-3q-3-2-5 3l-2 4-2-4-3-4-5-1zm-221 6q-1 5 5 6 5-1 0-6-5-3-5 0m49 0q-10 3-5 6 1 2 4 2l7-2q6-2 3-7 0-2-9 1m14 0q-3 4 2 6c4 2 7-4 3-6zm21 1-4 1q-4-3-7 2 1 5 7 2 2-2 4 1c3 2 46 3 50 1q4-4 0-7c-2-2-46-2-50 0m-61 1q-4 3 8 6l9 1c2-1 1-7-1-8-3-2-15-1-16 1M13 508q-4 5 3 4 9 0 6-4-4-4-9 0"
        mask="url(#16282281824-posters-1720560138473-radial-mask)" itemprop="regular" fill-opacity="0.90"
        fill-rule="evenodd" stroke="none" fill="url(#16282281824-posters-1720560138473-horizontal-regular)"></path>
      <!---->
      <path id="16282281824-posters-1720560138473-medium"
        d="M520 2q3 4 7 3c2-1 12-1 17 1l5-1 5-2 3-2-18-1c-18 0-19 0-19 2m101 18c-18 1-23 2-24 4q-1 5 9 3h8l13 2 15 1h9l10-2 8-1h4c3 2 8-1 7-3-1-3-8-4-8-1l-4-1q-4-3-6-1h-6c-4-2-6-2-35-1m-146 1q-2 3 0 6 5 2 14-1 4-1 0-5zm-71 3q-3 2-1 3c5 4 11 0 7-3q-3-3-6 0m280-1q-2 3 1 6l6-2c1-3-5-7-7-4M129 33l-48 2-9 2h-8c-3-2-11-2-16 0h-7q-6 1-8 6 1 4 8 3h6c3 2 14 2 18-1h6l9 2h10l30-2 25-2c19 0 24 0 27-2q4-3 1-7c-2-1-36-2-44-1m118 0q-11 1-11 5c0 5 34 8 40 3v-7c-2-1-19-2-29-1m35 2c-5 3 0 9 7 7h6c6 4 12-1 8-5q-2-3-6-2h-8q-4-3-7 0m-73 0q-3 2-1 3c2 3 13 5 15 3h5q4 0 3-4c-3-2-20-3-22-2m100 2c-3 3 0 9 5 8q6-3 4-8zm14 0c-3 4 2 9 6 7 5-2 3-8-2-8zM10 39H0v3q1 7 6 2h4q2 2 6 2h7c5 2 9-4 6-7zm663 17q-2 5 3 6 8-1 3-6-3-4-6 0m-12 2q-3 2-1 3c2 4 8 1 7-3q-2-4-6 0M0 67v6l4-2q4-3 6 0c3 1 5 1 25-2q7-1 1-3l-7-2q-7-2-21-1H3l-3-1zm513 5c-6 6 0 9 10 7q10-2 3-6c-3-4-10-4-13-1m84 28-2 3c0 7 22 8 22 1 0-4-17-7-20-4m48 2q-2 2 1 5c4 3 11 2 11-3s-9-7-12-2m17-1c-5 5 1 10 6 7q7-6-2-8-3-2-4 1m15-1q-9 6 8 8 11 1 9-5 1-3-6-3zm25 0q-3 3-1 7c2 1 7-1 7-3q-1-6-6-4m-229 3v4q6 2 7-3c0-5-6-5-7-1m88-1h-6q-5-1-4 2 0 3 6 2l3 1h12c6 3 19 1 19-3s-10-5-20-2h-5q-3-3-5 0m60 0q-7 7 10 7 15-1 11-7c-3-3-18-3-21 0m-428 1c-6 3 3 8 14 8h8q8 1 6-5-1-3-7-3zm204 0-5 2h-3l-5 1q-2 3-4 0c-6-3-11 1-7 5q2 3 5 1h28q11-3 6-8-5-3-15-1m21 0a4 4 0 1 0 5 5 4 4 0 0 0-5-5m-192 2q-4 3 0 6c3 3 9 1 9-3s-6-6-9-3m125 1-7 1q-9 0-6 5 4 4 8 0h11l6-1c3 1 7-2 4-5-2-1-13-2-16 0m-26 1q-4 4 1 7a5 5 0 1 0-1-7m234 14q-1 3-6 1-8 0-6 5c1 2 6 3 7 1h4c5 2 57 3 61 1q5-6-6-7l-45-1zm65 3q-1 4 2 7 5 0 6-4-2-6-8-3m13 0q-3 4 2 6 6 1 5-5-4-3-7-1m-418 2-8 2-6 1q-6 0-13 4h-5q-9-1-6 6 3 3 7-1 2-2 9-2h18c9 2 18-2 16-8q-1-4-12-2m-62 10-11 1h-20l-25 1-15 1H76q-12-2-10 4 0 8 10 6h11c4 1 31 0 42-2l8 2h13q2 2 6-1l5-2 2 2q5 5 5-4l1-5q1-2-2-3c-4-2-4-2-10 0m30 9q-9 3 2 7c16 3 29 0 23-5-3-4-18-5-25-2m118-1c-11 1-9 6 3 7q15 1 14-3 0-6-17-4m-133 1q-2 2 1 5 5 2 6-3 0-4-7-2m159 0q-4 2-4 5c2 1 11 3 13 2 8-3-1-9-9-7m25 0q-3 6 5 6h6q6 0 4-4c-2-2-13-3-15-2m52 1c-4 3 0 8 6 6l6-1q6-1 4-4c-2-3-14-3-16-1m-20 1q-1 4 5 5l6 1 5-1c1-5-14-9-16-5m40 0q-1 3 2 6c2 2 11 1 13 0q1-3 5-1 5 1 4-2-1-5-5-2-1 2-8-1-10-3-11 0m91-1q-4 3 0 7h4l7-1 6-1q2-5-6-5zm-301 1q-3 3 2 6 4 0 4-4c0-2-5-4-6-2m287 1q-4 3 1 5 5 0 6-4c0-3-5-4-7-1m37 1q-4 4 8 5 10 1 10-3 2-3-10-3-8-2-8 1m24 0-1 3c0 4 7 6 9 1 1-3-6-7-8-4m42 0h-15c-15 1-17 1-15 5 1 2 20 4 27 3q10-1 7-7zm93 18h-9q-4-2-8 1h-7l-8-1h-21a5 5 0 1 0 0 9h35c2 3 19 4 24 2q4-3 7-1c2 1 36 0 49-2h6v-4q1-4-5-4c-8-2-45-2-48 0h-7l-4-2zm-139 0q-3 3-1 6c3 3 11-1 9-5q-2-3-8-1m64 1c-4 4 2 9 6 5q4-2 0-5-3-4-6 0m-31 0a4 4 0 0 0 6 6c5-2 0-9-6-6m15 0c-4 2-1 8 3 8q6-1 7-5c0-3-6-5-10-3m-406 4c-4 0-4 6 0 7q4 0 5-4-1-4-5-3m36 2q-4 3 0 5 4 3 9 0 1-2 6 1 5 5 8 2h3l9 2q21 0 24 2h38q1 2 21 3l20 1q1 1 6-1 5-3 6-2c2 2 17 2 18 0q3-5-11-5-10 1-12-1l-9-1h-8l-36-2c-3-1-9-2-43-2l-25-2q-3-2-9 0h-5q-4-4-10 0m345 6c-6 1-7 6-2 6q5-1 6-5 0-2-4-1m-414 3q-2 4 4 5a3 3 0 1 0 0-7zm-90 0q-4 4 1 6 5 1 6-2-1-7-7-4m11 1c-5 4 2 9 7 6h3c3 2 9 0 9-4s-15-6-19-2m23-1q-3 7 6 6 4-2 0-5-2-3-6-1m23 0h-5a3 3 0 1 0-1 7h12c5-5 0-11-6-7m12 0q-2 5 3 6c3 0 7-5 5-6zm-81 2q-3 3 2 5 4-1 4-6-3-2-6 1m355 0q-1 4 3 6 5-2 4-5c-1-2-6-3-7-1m-413 2q0 4 7 5 4 1 4-2c0-4-9-7-11-3m529 15-8 1q-6-2-7 3c0 2 5 4 7 4q3-1 7 1h21c3 1 23-1 24-2 4-3 0-4-22-6l-15-1zm51 2q-4 5 1 7 7-2 4-8-2-3-5 1m11 0c-2 5 4 9 8 6q3-4-1-6-5-4-7 0m-96 0-5 1-4 1 11 2h5l6 1q5 0 3-4c-1-1-15-2-16-1m114 2q-2 5 3 5 4 0 4-3c0-3-5-4-7-2m14 1q-1 4 3 4 7 0 4-4-4-4-7 0m-502 13c-4 3-1 10 3 9q7-4 3-9-4-4-6 0m46 2q-7 5 10 8c9 2 62 2 65 0q3-6-6-6l-6-1-43-2h-16q-3-2-4 1m80 2q-5 4 1 7 6 4 10 0c5-5-6-12-11-7m20 1c-4 4-1 9 4 7a5 5 0 1 0-4-7m15 2q-3 5 2 7c3 1 8-4 6-7q-3-4-8 0m15 1c-4 3 0 8 5 6q6-2 2-6-3-3-7 0m16-1q-3 3-1 8c3 2 11 0 11-4 0-3-7-6-10-4m47 3q-4 3-2 5c1 3 2 3 26 2l1-2q1-4-6-4l-8-2c-7-3-8-3-11 1M0 231v4l5-1c11-1 11-6 0-6H0zm340 0c-2 5 4 8 9 4q5-6-4-7-5-1-5 3m16-1q-4 2-1 6c4 5 13 0 10-4q-4-5-9-2m46 3q-3 3 1 5c5 2 8-4 4-6q-3-2-5 1m12 1c-4 3 0 8 5 6h7l8 2h13l48 2q17 1 12-5c-1-2-11-4-17-3l-10-2h-18q-22 1-27-1h-15zm-237 19c-1 5 8 8 13 5q3-2 5-1l2-1-2-1-4-2c-4-3-13-3-14 0m27 2q-6 5 9 5 12 2 10-4 1-2-6-2h-9q-3-2-4 1m25 1q-4 3 1 5 6 2 8-2c2-4-6-7-9-3m14-1c-3 3 2 9 7 9q7-3 5-8c-2-2-10-3-12-1M0 258c0 4 0 4 21 5l25 1 26 2 23 2q7-1 5-6c-1-3-1-3-11-3l-15-1-30-1-31-1-9-1q-5-1-4 3m261-1q-4 4 1 6 8-1 3-5-1-3-4-1m320 8q-8 5-1 11h38l17-1a258 258 0 0 0 48-1c3 1 16 2 50 3h36v-10h-20l-23 1h-9l-32-1h-22l-34-1-16-1-11 1h-11c-7-2-6-2-10-1m-142 1q-3 4 5 4 4-1 7 1c5 3 11 0 7-4q-3-3-9-1zm26 1q-5 4 4 6 7 2 8-3c1-3-8-6-12-3m16 1c-5 5 19 10 26 5q4-2-2-6c-3-1-23-1-24 1m30 1a4 4 0 1 0 9 0c0-2-8-3-9 0m16-1c-3 1-2 6 0 7q4 2 7-1l2-2 3 2c4 3 19 4 22 1h4c4 3 11-1 8-5q-3-3-8-1h-5c-5-1-20-1-22 1q-1 1-4-1-4-3-7-1m-142 9-2 1h2c8 2 17 2 15-1zm22 1q-2 2 6 2 10 0 10-2zM23 296l-1 2c0 2 1 2 16 2s17 0 19 2q4 5 7 0t-8-5c-16-1-31-2-33-1m216 0q-4 2 0 5 5 4 8 0 1-7-8-5m111 0q-7 8 9 10 18-2 8-9c-5-2-14-2-17-1m-229 2H70v7l24 1h75c21 1 50 0 55-3q7-3 6-6c-2-1-99-1-109 1m373-1q-3 4 4 4 7-1 4-4zm-113 1q-10 0-6 6c4 3 17 2 19-1q0-5-5-6zm128 0q-3 5 9 4 8-2 3-4zm141 0-14 1q-17 0-17 4v4a360 360 0 0 0 86-2h28l6-1 5 1h13q5 2 7-1 2-4 4-2 1 2 1-2 1-4-2-2zm-249 1q-6 6 5 7l9 2q3 1 4-2 2-4 5 0c3 3 8 1 7-4-1-4-9-5-9-1h-4l-8-2zm172 0-5 2-3 1-5 1-6 2q-5 1-5 4c4 3 17 1 17-3q0-2 4 1c3 4 19 3 19-1l-3-4q-3-4-13-3m-135 1q-3 4 2 7 2 2 4-1l2-2-2-2q-4-5-6-2m-131 2q-5 4 1 8c5 3 12-3 8-8q-5-3-9 0m286 1-2 4 2 1q7 5 9-3c0-6-6-7-9-2m13-2-1 4c0 4 7 6 9 2 2-5-4-9-8-6m-154 1a4 4 0 1 0 5 5 4 4 0 0 0-5-5m-168 7q-2 3 1 4 4 4 6 0c2-4-4-7-7-4M6 314l-2 2c-2 3 6 9 8 6 3-4-1-10-6-8m14 1c-2 0-1 5 1 7s8 3 10 2c5-4-4-12-11-9m34 28H42v3q0 5 11 5l12 2h61q11 2 8-3l-2-2-11-1q-15 0-43-4l-8-1zm632 0q-8 0-5 4c1 2 14 2 15 0q2-3-3-5zm-380 2q-4 3 0 6 5 2 6-3-1-4-6-3m12 0q-2 3 0 6 5 3 7-2c0-3-5-7-7-4m337 1q-6 2-1 5c3 2 17 1 20-1q2-5-3-5l-8-1zm-57 0-24 3q-7 1-6 4 1 5 8 4 8-2 21 1l12-2 12-2 7-1h5c4 2 13 0 13-3 0-4-9-5-14-2h-4l-17-1-6-1zm-265 1q0 7 6 5 2-2 6 1 9 2 6-5c-2-2-8-3-10-1zm132 0h-13q-4-1-6 2t-3 0h-6l-25-2-10 1q-4 3-7 1l-17-1h-15q-3-2-6 1-2 4 7 5h6c2 2 20 2 24 1h6q12 3 20 2l12-2 11-1q1-3 4 0c5 4 45 5 54 2h33c5 2 10-2 5-5-3-1-4-2-23-2l-18-1c-18-2-24-2-33-1m81 3q-5 8 10 8 15-1 8-8c-2-2-18-2-18 0m205 18-2 2 2 2 4 1h5c3 2 9 0 9-3q1-2-5-2l-9-1zm-20 2q-1 3 9 4 9 0 6-4c-1-3-15-3-15 0m-83 1c-6 2-1 10 6 8q12-2 7-8zm-131 1q-2 5 4 6 5-1 1-5-3-3-5-1m20 1c-1 4 5 7 9 5h12c3-4-3-8-8-5h-4q-7-4-9 0m38-1h-5q-9 0-6 5 3 4 7 1h5q5 4 8-1c1-4-5-8-9-5m11 1q0 4 6 5 5-1 2-6-5-2-8 1m15-1q-5 8 10 8l17-1q14 0 13-5c0-2-1-2-20-3zm-97 3v3a3 3 0 1 0 0-3m-249 6-40 1-36 1-4 3-3 4c3 2 62 5 70 3h18c9-3 23-4 32-4q14 0 8-4c-1-2-4-2-18-3l-20-2c-4-1-3-1-7 1m118 0q-1 4 2 4 5 0 5-4c-1-3-7-2-7 0m-58 3q0 7 8 3 6-2 0-4-6-3-8 1m-282 8h-8q-6 0-7 2-2 6 8 7l10 1h30l43 2c12 1 23-3 20-6-2-3-13-4-46-5l-37-1zm457 13v5a4 4 0 1 0 0-5m28 2c0 5 6 7 7 3q0-5-5-5zm109 12q-2 2 1 5c4 2 9-1 5-4q-2-3-6-1m-334 3-19 2h-11l-5 1q-6 10 61 4 15-1 11-5-1-2-8-2zm352 0v4a3 3 0 1 0 0-4m96 2q-4 5 0 8 5 2 8-3c2-6-5-9-8-5m-494 1v3q3 5 5 2c5-3 0-8-5-5m180 0c-2 3 2 8 5 7a4 4 0 1 0-5-7m-290 13q-3 5 2 8c4 0 6-5 3-7q-2-3-5-1m-78 6-6 1-7 1q-3 3-5 1-9-3-8 4c2 4 7 4 26 2h12l8-1v-8zm27 0q-2 3 1 6c4 4 10 0 7-5-1-2-7-3-8-1m13 1q-1 6 5 6c3-1 3-6 0-7q-4-2-5 1m-93 2c-6 4 2 13 9 8h7q6 2 8-2c2-4-6-9-11-6q-1 1-4-1-5-2-9 1m285 8-18 2h-12q-13 0-5 8c3 2 5 2 32 1l31-1q1-2 2 1h30q12 0 13-4-2-6-35-7zm-50 2q-1 4 4 8 4 1 6-3c0-5-7-8-10-5m-11 1c-4 3 0 10 5 8q6-3 0-8zm-15 1c-4 2 0 9 5 9q4-1 4-6c0-2-7-4-9-3m-36 3q-2 3 1 5a4 4 0 1 0-1-5m14-1v3c1 4 7 3 7 0 0-4-5-5-7-3m322 3v6q6 3 8-4c-1-3-7-4-8-2m141 2q-5 6 1 10c5 3 8-5 5-11q-2-5-6 1m82-1-34 1c-32-1-40 1-35 8q1 2 8 2l67 1 25 1v-13zm-212 1q-1 5 3 5 5 1 5-3c-1-3-7-4-8-2m11 1c0 4 7 6 9 2q1-4-6-4-4 0-3 2m19-1q-9 0-7 4 0 3 8 2l7 1c4 1 23 3 26 2q4-1 1-7-4-3-35-2m86 1a5 5 0 1 0 8 1q-4-6-8-1m-44 1q-5 6 7 8l9 1q4 1 4-3 1-5-6-5l-6-1q-5-3-8 0m27 2q-3 3 0 5 8 4 9-2c0-4-6-6-9-3m-184 15-21 1-17 1-13 1q-12 0-13 2h-4q-6-3-7 2 0 5 6 2 3-1 5 2c3 2 4 2 12 2h68l2-2q4-7-4-10l-5-1zm-162 4-4 1-4 2c-2 2 2 6 5 4l5-1q6-1 5-6zm38 0q-6 1-8 4 0 4 18 4c30 1 32 0 34-1q9-7-15-7zm-61 1q-15 2 2 6 11 3 10-3 0-4-12-3M14 508q-4 4 3 4 6 1 5-2-2-6-8-2"
        mask="url(#16282281824-posters-1720560138473-vertical-mask)" itemprop="medium" fill-opacity="0.90"
        fill-rule="evenodd" stroke="none" fill="url(#16282281824-posters-1720560138473-vertical-medium)"></path>
      <!---->
      <path id="16282281824-posters-1720560138473-bold"
        d="M521 1q2 5 6 3h11a30 30 0 0 0 18-2c1-2-1-2-17-2zm116 19-15 1q-23 0-24 3-5 3 10 2l22 2q21 3 26 0l6-1q3 2 6-1l3-1-3-2q-3-3-6-1l-7-1c-4-1-16-2-18-1m-163 3q-1 4 8 4l7-1c2 0 1-4-1-4-4-2-13-1-14 1M128 33l-18 1c-27 1-36 2-39 4h-6c-3-3-15-3-18 0l-6 1q-7 0-6 5c1 2 6 3 7 1h5c3 2 16 2 19-1h4c2 3 18 3 36 1l36-2q40 0 31-8c-2-2-34-3-45-2m114 1c-8 2-7 7 2 7l6 1c3 2 19 1 23-1q6-4 0-7zm40 1c-4 4 1 8 7 6h6q6 4 8 0 2-6-6-5-5 1-7-1zm-73 1q-2 4 6 4c6 1 15 0 15-1 0-3-18-5-21-3m101 2q-4 5 2 6c5 0 8-5 4-7q-4-2-6 1m14-1q-2 5 2 6t5-3c0-4-5-5-7-3M11 39q-4 2 0 5t7 1h5q5 2 6-3 1-4-6-3zM0 68q1 6 4 3t8 0h10l7-2 7-1h2l-2-1-5-2-17-1-14-1zm514 5q-4 3-2 5c1 2 2 2 12 0l5-2-3-3q-7-6-12 0m84 27q-6 7 8 8 10 0 10-4 1-2-8-3l-6-2zm49 1q-4 3 1 6a5 5 0 1 0-1-6m15 0c-4 4 1 9 5 6q6-4 0-6zm15 0q-4 2 0 6h11q6 0 5-4 0-3-6-2zm-116 2q-5 3 6 4h12q12 1 11-3 1-2-9-2l-10 1q-1 2-5-1-3-2-5 1m60-1q-5 6 10 6 14-1 10-5c-2-2-18-3-20-1m-428 2q-3 4 5 5l6 1h11q5 2 6-3 1-3-6-3l-18-1q-2-1-4 1m206-1-7 3h-3l-4 1h-7q-3-3-5-1c-4 4 2 8 7 5h4c2 1 23 1 26-1q5-2 1-6-3-3-12-1m-172 2q-3 2-1 6c4 3 10-1 7-5q-1-3-6-1m124 2h-7q-9 0-4 5 2 3 5 0l6-1h7q3-2 4-1 5 2 5-1c0-3-13-5-16-2m-26 0a4 4 0 1 0 6 6 4 4 0 0 0-6-6m235 15q-4 3-8 1t-5 3q3 5 7 1h4q4 3 37 2h17q10 0 7-5c-2-1-4-2-23-2l-27-1zm-335 4-5 1-8 2-8 1-9 2-10 2q-4 0-3 2 1 5 6 1c1-1 3-2 19-2q27 1 25-5c0-3-6-6-7-4m-67 10-44 2-28 2h-7q-13-3-12 3 0 7 6 6 12-3 12-1c2 1 35 1 39-1q7-2 13 1h19a6 6 0 0 1 8 0q2 4 3-5 2-11-9-7m32 8q-17 7 10 8c12 0 12 0 12-2q2-5-9-5l-7-1zm114 1q-6-1-5 2c1 3 14 6 19 4q5-2 1-6zm25 2c-3 3 8 7 12 3q3-1 0-3c-3-3-10-3-12 0m27 0q-2 4 7 4 14-1 3-5-8-2-10 1m51 0c-1 4 6 7 9 4l4-1q5 0 3-3c0-3-15-3-16 0m22-1q-4 7 7 7 14-1 3-6l-5-1zm-40 1c-2 3 11 7 14 4q1-3-5-4l-6-1zm131 0q-4 1-1 5h11q5 1 6-2t-6-3zm24 1q-5 3 2 5l6 1c5 2 10-2 7-5-1-1-12-2-15-1m22 2q-3 4 3 5 6-1 2-6-2-2-5 1m42 0h-15c-25 1-15 7 11 7q8 0 8-5-1-2-4-2m121 16-23 1-24 2h-4c-3-1-18-2-23-1h-7q-10 0-7 6 1 2 14 1l15 1h6q6-3 8 1c2 2 21 1 24-1h5a221 221 0 0 0 55-2c1 0 2-6 0-6l-17-1-18-2zm-168 3q-1 4 3 4 6 0 6-4c-1-3-8-3-9 0m65-1a4 4 0 1 0 6 5 4 4 0 0 0-6-5m-32 2c-1 3 5 6 8 3v-3q-5-3-8 0m15-1q-1 5 4 6 6-1 5-5c0-2-7-3-9-1m-369 5v4q3 5 8 1 4-3 5-1 4 5 10 3h4l8 2 23 2h38q3 3 30 4c17 0 17 0 19-2h5l7 1h6q6 0 4-4-2-3-6-1h-15l-9-2-9-1-20-1-21-2h-9l-28-1c-22 0-25 0-28-2h-6q-4 3-6 1-4-3-10-1m-137 9h-4q-7 0-8 4-1 3 10 3 12-1 8-6-4-3-6-1m37 0-6 1q-7 0-6 3-1 2 5 2h7q7 1 5-5-3-3-5-1m10 1q0 8 6 3 3-2 0-4-4-2-6 1m-138 3 2 3q6 4 7 0c0-4-6-7-9-3m527 16-6 1h-6q-3 4 5 5l9 2h8l13-1c17 0 21 0 22-2s-2-3-17-4l-21-2zm63 2q-1 4 5 5 5-1 2-6-4-2-7 1m-100 0-4 1 3 1h10q2-2 6 1h4q5-5-19-3m-371 16v6c4 3 9-2 7-6q-4-5-7 0m47 1c-4 5 9 9 28 9 24 0 45-1 46-2q4-3-6-5l-6-1c-1-1-61-2-62-1m82 2c-6 2-2 8 5 8q9-2 2-8-4-3-7 0m18 2q-4 4 3 6 4-1 4-6-3-3-7 0m16 1q-4 5 3 6a4 4 0 1 0-3-6m14 1q-3 3 1 5 5 3 6-2c2-3-4-6-7-3m16 1q-3 1-1 4c2 4 10 2 10-2q-1-3-5-4zm48 1c-5 4-3 9 3 7h12q8 0 8-2 1-4-4-3l-11-3q-4-3-8 1M0 231v4l5-1 6-2 2-1-2-2-7-1q-5-1-4 3m341 0q-2 5 5 5 6-3 2-7-5-3-7 2m15 0q-3 1-1 4c3 5 9 3 9-2q-2-6-8-2m58 3c-4 2 1 7 5 5h6l8 2 22 1c6 1 46 2 49 1q6-1 1-5l-14-2-13-1c-2-2-26-1-29 0q-1 2-10-1zm-236 19q-1 5 6 5 7 1 8-3c0-4-12-6-14-2m26 4 1 3h18v-2q-1-5-7-3h-4q-7-3-8 2m26-2q-4 3 0 5c5 3 11-2 7-5zm13 1q-2 2 1 5 5 4 9 0t0-5l-2-1q-4-2-8 1M0 258c0 3 0 3 8 3l27 1 43 4h15q10 1 6-6H78l-18-2c-9 1-43-1-53-2H0zm450 9q-3 1 0 2c5 4 12 2 8-2q-5-4-8 0m132-1-1 1q-3 1-4 5c0 3 14 6 21 4h19c5-2 15-2 20-2 11 1 35 1 40-1h7c2 2 18 3 29 3h41l15 1v-9h-14l-29 1h-9l-32-2h-57l-15-1h-8c-3 2-13 2-14 0zm-118 3q-1 3 6 4 10 0 6-5c-3-2-11-1-12 1m17 0q-2 4 12 5 18 2 14-5c-2-2-25-3-26 0m45 1c-3 3 3 6 7 3q4-1 1-3-4-4-8 0m14 0-3 1 2 2c2 2 3 2 12 2h16q8 0 4-5-2-3-7 0h-12l-8-1q-1-1-4 1M23 297q-5 3 17 3c14 0 16 0 18 2q4 3 4 0 5-4-4-5zm102 1H82q-13-2-12 3 0 6 5 4l12-1 38 1h62c31 1 42-1 42-7l-14-1h-79q-2-1-11 1m113 0q0 4 6 5 3-2 2-6-5-3-8 1m111 0c-3 6 10 11 18 6q9-5-9-8-9 0-9 2m32 1q-7 0-7 2c0 2 6 5 7 4h6q10-1 6-6l-4-1zm127 0c-1 2 8 3 14 1v-1zm147 0h-16c-17 1-20 2-20 5q0 3 5 3l7 1h40l14-2 13-1 7-1h52q5 2 6-1 3-3 4-2 3 2 2-1c0-2-1-2-57-2zm-254 2q-3 5 5 5l8 1q4 1 5-2l1-2-2-2c-3-2-17-2-17 0m22 0q-2 3 2 4 5 3 5-1c0-5-6-7-7-3m145 0q-2 3-13 4-5 0-5 2l1 2h6c6 1 6 1 8-2l2-3 2 2c3 3 3 3 10 3q14 0 6-7c-3-4-13-5-17-1m27 1q-6 6 2 7 4 0 4-4-1-7-6-3m-288 1q-5 5 1 6 6 2 8-3 0-8-9-3m299-1q-2 2 1 5t6 0c4-3-3-8-7-5M5 315q-1 4 3 6t4-2q-1-7-7-4m16 0q-4 3 1 7c6 5 13 1 7-5q-4-5-8-2m33 29c-11 0-12 0-12 2q0 4 11 4l9 1c3 2 72 2 72 1 0-4-2-4-20-4l-19-2-26-3zm629 0q-3 1-1 4h3l6-1q7 1 4-2c0-2-8-3-12-1m-365 2c-1 1 1 6 3 6q5-1 3-5-3-4-6-1m337 1q-6 5 5 5l12-2 3-2c0-3-16-4-20-1m-312 0h-6q-5 0-4 2 2 4 6 2 1-2 5 1 6 2 7-1c0-3-6-5-8-4m254 0-11 1q-6 0-8 2h-2c-2-1-8 1-8 2q2 6 8 5 8-3 21 0h7l18-4 6-1h4c5 3 16 0 13-4-2-2-13-1-14 1h-3l-12-1-13-1zm-136 1q-15 0-14 2-2 2-5-1h-41l-5 1c-7-2-24-2-28-1h-4q-4-2-6 1-1 3 6 3l7 1c2 2 23 1 25 0h3l6 1 7 1h7l12-1q10 0 11-2 2-2 6 1c4 3 47 5 53 2l13-1 11 1c14 0 14-1 15-2q-1-4-8-4h-6l-5-1h-18c-4-1-25-2-42-1m85 3c-3 6 13 9 18 4q5-6-6-5l-5-1q-4-3-7 2m185 19c0 2 0 2 8 3q9 1 7-2c-1-4-15-4-15-1m20-1q-3 3 7 3 11 1 11-1c0-3-17-4-18-2m-213 4q-1 5 6 5l10-1 4-1q1-2-7-2l-7-2q-4-2-6 1m64-1q-5 8 10 7l16-1q11 1 11-2 5-3-4-3l-7-1h-4l-6 1c-4-2-15-2-16-1m44 1q-1 5 8 5 8-1 8-5c-1-3-14-3-16 0m-75 0q-8 0-6 4h7q1-2 4 1 7 4 7-2 0-4-5-4zm-317 9-10 1h-56q-7-2-12 3-5 4-1 4h5c3 2 5 2 45 2h34l13-2 11-2h3c2 1 14 1 15-1q2-3-11-4l-30-2q-4-1-6 1M34 392q-5 2-10 1-9 0-4 6 4 4 7 1h6l8 2c5-1 36 0 56 1 19 1 22 1 26-1q25-8-49-8l-30-2zm258 31-21 2-13 1q-1 4 11 4l11 1h4l10-1 18-1h11l3-1 1-1q3-1 2-3c-1-2-25-2-37-1m449 2q-4 6 2 7a5 5 0 1 0-2-7m-604 14v6q4 2 6-4-1-4-6-2m-80 6-4 1-5 1h-9l-6 1q-2 6 12 5c32 0 39-2 34-8zm29 0c-3 3 3 8 6 5q4 0 2-4c-1-2-7-3-8-1m-81 3c-4 4 6 10 10 6h5q8 3 9-1 2-6-9-6h-5c-2-2-8-1-10 1m294 7-17 2h-23c-6-1-8 4-2 7 2 2 3 2 52 2q9 0 10-2 3-2 3 1c0 1 21 2 23 0h5c7 2 18-3 11-5l-4-2-21-1-22-2zm-56 2c-4 2-1 7 4 7q5 0 2-5-2-3-6-2m-13 2c-4 1-1 7 4 7 2 0 5-5 3-6q-3-2-7-1m-16 2q0 5 5 6t4-3c0-5-7-7-9-3m301 3q-3 7 6 6 5-3-1-6zm143 1c-4 1-5 10 0 11q7 0 4-9-1-4-4-2m-85 1-11 1q-16-1-12 3-1 2 6 2l13 1c10 2 22 2 23 0q0-5-7-6l-7-2zm69 1q-3 8 4 8 4 0 4-3 0-10-8-5m79-1-31 1c-18 0-20 0-20 2q-4 9 41 7l11 1c2 1 5 1 28-1l9 1 6 1h4v-12zm-123 2v6l7 1h9q4 1 4-2 0-5-7-4h-5q-3-3-8-1m28 2q-4 1 0 4c4 4 10 0 6-4q-2-3-6 0m-184 17h-2c-1-1-26-1-39 1l-15 1q-5-2-8 1l-3 2 2 2c3 3 17 4 56 4 24-1 27-1 27-5 0-6-16-12-18-6m-162 3-5 1c-4 0-6 4-1 4q12-1 11-6-1-2-5 1m38 0h-4q-7 3-1 5c4 2 43 2 46 1q5-4 1-5c-2-1-40-2-42-1m-66 1q-3 1 0 3c2 1 13 3 14 2q3-3-1-5z"
        mask="url(#16282281824-posters-1720560138473-horizontal-mask)" itemprop="bold" fill-opacity="0.90"
        fill-rule="evenodd" stroke="none" fill="url(#16282281824-posters-1720560138473-vertical-bold)"></path>
    </pattern>
    <rect id="16282281824-posters-1720560138473-pattern-render" fill="url(#16282281824-posters-1720560138473-pattern)"
      width="100%" height="100%"></rect>
  </defs>
  <radialGradient id="lightbar" cx="50%" cy="200%" fy="0" r="201%">
    <stop offset="0%" style="stop-color: rgb(255, 255, 255); stop-opacity: 0.1;"></stop>
    <stop offset="10%" style="stop-color: rgb(0, 0, 0); stop-opacity: 0.1;"></stop>
    <stop offset="30%" style="stop-color: rgb(0, 0, 0); stop-opacity: 0.3;"></stop>
    <stop offset="90%" style="stop-color: rgb(0, 0, 0); stop-opacity: 0.55;"></stop>
    <stop offset="100%" style="stop-color: rgb(0, 0, 0); stop-opacity: 0.6;"></stop>
  </radialGradient>
  <g class="radial">
    <radialGradient id="16282281824-posters-1720560138473-radial" gradientUnits="userSpaceOnUse">
      <stop itemprop="radial" stop-color="#dcdcda" offset="0%"></stop>
      <stop itemprop="radial" stop-color="#dad9d8" offset="15%"></stop>
      <stop itemprop="radial" stop-color="#dad9d8" offset="30%"></stop>
      <stop itemprop="radial" stop-color="#d5d4d2" offset="45%"></stop>
      <stop itemprop="radial" stop-color="#d7d7d5" offset="60%"></stop>
      <stop itemprop="radial" stop-color="#dcdcda" offset="75%"></stop>
      <stop itemprop="radial" stop-color="#dfdedd" offset="90%"></stop>
    </radialGradient>
    <radialGradient id="16282281824-posters-1720560138473-radial-background" gradientUnits="userSpaceOnUse">
      <stop stop-color="#d3cec5" offset="0%"></stop>
      <stop stop-color="#d3cec5" offset="15%"></stop>
      <stop stop-color="#d3cec5" offset="30%"></stop>
      <stop stop-color="#d3cec5" offset="45%"></stop>
      <stop stop-color="#d3cec5" offset="60%"></stop>
      <stop stop-color="#d3cec5" offset="75%"></stop>
      <stop stop-color="#d3cec5" offset="90%"></stop>
    </radialGradient>
    <radialGradient id="16282281824-posters-1720560138473-radial-light" gradientUnits="userSpaceOnUse">
      <stop stop-color="#9c9a96" offset="0%"></stop>
      <stop stop-color="#9c9a96" offset="15%"></stop>
      <stop stop-color="#9c9a96" offset="30%"></stop>
      <stop stop-color="#9c9a96" offset="45%"></stop>
      <stop stop-color="#9c9a96" offset="60%"></stop>
      <stop stop-color="#9c9a96" offset="75%"></stop>
      <stop stop-color="#9b9a97" offset="90%"></stop>
    </radialGradient>
    <radialGradient id="16282281824-posters-1720560138473-radial-regular" gradientUnits="userSpaceOnUse">
      <stop stop-color="#83817c" offset="0%"></stop>
      <stop stop-color="#83817c" offset="15%"></stop>
      <stop stop-color="#83817c" offset="30%"></stop>
      <stop stop-color="#83817c" offset="45%"></stop>
      <stop stop-color="#83817c" offset="60%"></stop>
      <stop stop-color="#83817c" offset="75%"></stop>
      <stop stop-color="#82807d" offset="90%"></stop>
    </radialGradient>
    <radialGradient id="16282281824-posters-1720560138473-radial-medium" gradientUnits="userSpaceOnUse">
      <stop stop-color="#51504d" offset="0%"></stop>
      <stop stop-color="#51504d" offset="15%"></stop>
      <stop stop-color="#51504d" offset="30%"></stop>
      <stop stop-color="#51504d" offset="45%"></stop>
      <stop stop-color="#51504d" offset="60%"></stop>
      <stop stop-color="#51504d" offset="75%"></stop>
      <stop stop-color="#514f4d" offset="90%"></stop>
    </radialGradient>
    <radialGradient id="16282281824-posters-1720560138473-radial-bold" gradientUnits="userSpaceOnUse">
      <stop stop-color="#2f2e2d" offset="0%"></stop>
      <stop stop-color="#2f2e2d" offset="15%"></stop>
      <stop stop-color="#2f2e2d" offset="30%"></stop>
      <stop stop-color="#2f2e2d" offset="45%"></stop>
      <stop stop-color="#2f2e2d" offset="60%"></stop>
      <stop stop-color="#2f2e2d" offset="75%"></stop>
      <stop stop-color="#2f2e2d" offset="90%"></stop>
    </radialGradient>
  </g>
  <g class="vertical">
    <linearGradient id="16282281824-posters-1720560138473-vertical" gradientUnits="userSpaceOnUse" x1="0" x2="0" y1="0"
      y2="100%">
      <stop itemprop="vertical" stop-color="#dcdcda" offset="0%"></stop>
      <stop itemprop="vertical" stop-color="#d7d6d5" offset="15%"></stop>
      <stop itemprop="vertical" stop-color="#d7d7d5" offset="30%"></stop>
      <stop itemprop="vertical" stop-color="#d5d4d2" offset="45%"></stop>
      <stop itemprop="vertical" stop-color="#d7d7d5" offset="60%"></stop>
      <stop itemprop="vertical" stop-color="#dcdcda" offset="75%"></stop>
      <stop itemprop="vertical" stop-color="#dfdedd" offset="90%"></stop>
    </linearGradient>
    <linearGradient id="16282281824-posters-1720560138473-vertical-background" gradientUnits="userSpaceOnUse" x1="0"
      x2="0" y1="0" y2="100%">
      <stop stop-color="#ceccca" offset="0%"></stop>
      <stop stop-color="#cdcccb" offset="15%"></stop>
      <stop stop-color="#cdcccb" offset="30%"></stop>
      <stop stop-color="#ceccca" offset="45%"></stop>
      <stop stop-color="#ceccca" offset="60%"></stop>
      <stop stop-color="#ceccca" offset="75%"></stop>
      <stop stop-color="#cdcccb" offset="90%"></stop>
    </linearGradient>
    <linearGradient id="16282281824-posters-1720560138473-vertical-light" gradientUnits="userSpaceOnUse" x1="0" x2="0"
      y1="0" y2="100%">
      <stop stop-color="#ae9f84" offset="0%"></stop>
      <stop stop-color="#ae9d84" offset="15%"></stop>
      <stop stop-color="#aea284" offset="30%"></stop>
      <stop stop-color="#ae9f84" offset="45%"></stop>
      <stop stop-color="#ae9f84" offset="60%"></stop>
      <stop stop-color="#ae9f84" offset="75%"></stop>
      <stop stop-color="#ae9f84" offset="90%"></stop>
    </linearGradient>
    <linearGradient id="16282281824-posters-1720560138473-vertical-regular" gradientUnits="userSpaceOnUse" x1="0" x2="0"
      y1="0" y2="100%">
      <stop stop-color="#83817c" offset="0%"></stop>
      <stop stop-color="#82807d" offset="15%"></stop>
      <stop stop-color="#82817d" offset="30%"></stop>
      <stop stop-color="#83817c" offset="45%"></stop>
      <stop stop-color="#83817c" offset="60%"></stop>
      <stop stop-color="#83817c" offset="75%"></stop>
      <stop stop-color="#82807d" offset="90%"></stop>
    </linearGradient>
    <linearGradient id="16282281824-posters-1720560138473-vertical-medium" gradientUnits="userSpaceOnUse" x1="0" x2="0"
      y1="0" y2="100%">
      <stop stop-color="#51504d" offset="0%"></stop>
      <stop stop-color="#514f4d" offset="15%"></stop>
      <stop stop-color="#51504d" offset="30%"></stop>
      <stop stop-color="#51504d" offset="45%"></stop>
      <stop stop-color="#51504d" offset="60%"></stop>
      <stop stop-color="#51504d" offset="75%"></stop>
      <stop stop-color="#514f4d" offset="90%"></stop>
    </linearGradient>
    <linearGradient id="16282281824-posters-1720560138473-vertical-bold" x1="0" x2="0" y1="0" y2="100%">
      <stop stop-color="#2f2e2d" offset="0%"></stop>
      <stop stop-color="#2f2e2d" offset="15%"></stop>
      <stop stop-color="#2f2e2d" offset="30%"></stop>
      <stop stop-color="#2f2e2d" offset="45%"></stop>
      <stop stop-color="#2f2e2d" offset="60%"></stop>
      <stop stop-color="#2f2e2d" offset="75%"></stop>
      <stop stop-color="#2f2e2d" offset="90%"></stop>
    </linearGradient>
  </g>
  <g class="horizontal">
    <linearGradient id="16282281824-posters-1720560138473-horizontal" x1="0" x2="100%" y1="0" y2="0"
      gradientUnits="userSpaceOnUse">
      <stop itemprop="horizontal" stop-color="#dad9d8" offset="0%"></stop>
      <stop itemprop="horizontal" stop-color="#dad9d8" offset="15%"></stop>
      <stop itemprop="horizontal" stop-color="#d5d4d2" offset="30%"></stop>
      <stop itemprop="horizontal" stop-color="#dad9d8" offset="45%"></stop>
      <stop itemprop="horizontal" stop-color="#dcdcda" offset="60%"></stop>
      <stop itemprop="horizontal" stop-color="#d2d1d0" offset="75%"></stop>
      <stop itemprop="horizontal" stop-color="#dcdbdb" offset="90%"></stop>
    </linearGradient>
    <linearGradient id="16282281824-posters-1720560138473-horizontal-background" gradientUnits="userSpaceOnUse" x1="0"
      x2="100%" y1="0" y2="0">
      <stop stop-color="#ceccca" offset="0%"></stop>
      <stop stop-color="#ceccca" offset="15%"></stop>
      <stop stop-color="#ceccca" offset="30%"></stop>
      <stop stop-color="#ceccca" offset="45%"></stop>
      <stop stop-color="#ceccca" offset="60%"></stop>
      <stop stop-color="#cdcccb" offset="75%"></stop>
      <stop stop-color="#cdcccb" offset="90%"></stop>
    </linearGradient>
    <linearGradient id="16282281824-posters-1720560138473-horizontal-light" gradientUnits="userSpaceOnUse" x1="0"
      x2="100%" y1="0" y2="0">
      <stop stop-color="#9c9a96" offset="0%"></stop>
      <stop stop-color="#9c9a96" offset="15%"></stop>
      <stop stop-color="#9c9a96" offset="30%"></stop>
      <stop stop-color="#9c9a96" offset="45%"></stop>
      <stop stop-color="#9c9a96" offset="60%"></stop>
      <stop stop-color="#9b9997" offset="75%"></stop>
      <stop stop-color="#9b9a97" offset="90%"></stop>
    </linearGradient>
    <linearGradient id="16282281824-posters-1720560138473-horizontal-regular" gradientUnits="userSpaceOnUse" x1="0"
      x2="100%" y1="0" y2="0">
      <stop stop-color="#968669" offset="0%"></stop>
      <stop stop-color="#968669" offset="15%"></stop>
      <stop stop-color="#968669" offset="30%"></stop>
      <stop stop-color="#968669" offset="45%"></stop>
      <stop stop-color="#968669" offset="60%"></stop>
      <stop stop-color="#968469" offset="75%"></stop>
      <stop stop-color="#968669" offset="90%"></stop>
    </linearGradient>
    <linearGradient id="16282281824-posters-1720560138473-horizontal-medium" gradientUnits="userSpaceOnUse" x1="0"
      x2="100%" y1="0" y2="0">
      <stop stop-color="#5d5341" offset="0%"></stop>
      <stop stop-color="#5d5341" offset="15%"></stop>
      <stop stop-color="#5d5341" offset="30%"></stop>
      <stop stop-color="#5d5341" offset="45%"></stop>
      <stop stop-color="#5d5341" offset="60%"></stop>
      <stop stop-color="#5d5241" offset="75%"></stop>
      <stop stop-color="#5d5341" offset="90%"></stop>
    </linearGradient>
    <linearGradient id="16282281824-posters-1720560138473-horizontal-bold" gradientUnits="userSpaceOnUse" x1="0"
      x2="100%" y1="0" y2="0">
      <stop stop-color="#2f2e2d" offset="0%"></stop>
      <stop stop-color="#2f2e2d" offset="15%"></stop>
      <stop stop-color="#2f2e2d" offset="30%"></stop>
      <stop stop-color="#2f2e2d" offset="45%"></stop>
      <stop stop-color="#2f2e2d" offset="60%"></stop>
      <stop stop-color="#2f2e2d" offset="75%"></stop>
      <stop stop-color="#2f2e2d" offset="90%"></stop>
    </linearGradient>
  </g>
  <g class="masks">
    <mask id="16282281824-posters-1720560138473-pattern-mask" maskUnits="userSpaceOnUse"
      maskContentUnits="userSpaceOnUse">
      <pattern id="pattern" x="0" y="0" width=".0133" height=".0144" viewBox="0 0 23.07 40">
        <path
          d="M17.62 0l-6.07 10.5m2.74 4.76L8.22 4.75m-5.48 0h12.13M.01 0h23.07M6.07 20L0 9.5m2.74-4.75l-6.07 10.5m-5.48 0H3.33m8.2 4.75L0 .02-11.54 20m40.68 0L23.07 9.5m2.74-4.75l-6.06 10.5m-5.49 0H26.4M34.6 20L23.08.02 11.53 20m-5.46 0L0 30.51m2.74 4.75l-6.07-10.5m-5.48 0H3.33m8.2-4.75L0 40l-11.54-19.98zM17.6 40l-6.06-10.5m2.74-4.76L8.2 35.25m-5.48 0h12.13M0 40h23.07L11.54 20.01m17.6 0l-6.07 10.5m2.74 4.75l-6.06-10.5m-5.49 0H26.4M11.53 20h23.08L23.07 40"
          stroke-linecap="round" stroke-width="3.5" stroke="white"
          fill="url(#16282281824-posters-1720560138473-horizontal-background)"></path>
      </pattern>
      <rect width="100%" height="100%" fill="url(#pattern)"></rect>
    </mask>
    <mask id="16282281824-posters-1720560138473-horizontal-mask" maskUnits="userSpaceOnUse"
      maskContentUnits="userSpaceOnUse">
      <rect width="100%" height="100%" fill="url(#16282281824-posters-1720560138473-horizontal-background)"></rect>
    </mask>
    <mask id="16282281824-posters-1720560138473-radial-mask" maskUnits="userSpaceOnUse"
      maskContentUnits="userSpaceOnUse">
      <rect width="100%" height="100%" fill="url(#16282281824-posters-1720560138473-radial-background)"></rect>
    </mask>
    <mask id="16282281824-posters-1720560138473-vertical-mask" maskUnits="userSpaceOnUse"
      maskContentUnits="userSpaceOnUse">
      <rect width="100%" height="100%" fill="url(#16282281824-posters-1720560138473-vertical-background)"></rect>
    </mask>
  </g>
  <use href="#16282281824-posters-1720560138473-pattern-render"></use>
  <g>
    <use href="#16282281824-posters-1720560138473-background"></use>
    <use href="#16282281824-posters-1720560138473-light"></use>
    <use href="#16282281824-posters-1720560138473-regular"></use>
    <use href="#16282281824-posters-1720560138473-medium"></use>
    <use href="#16282281824-posters-1720560138473-bold"></use>
  </g>
  <g itemprop="animation">
    <animate href="#16282281824-posters-1720560138473-light" attributeName="stroke-opacity" repeatCount="indefinite"
      dur="5s" values="0.9;0.0;0.9"></animate>
    <animate href="#16282281824-posters-1720560138473-regular" attributeName="stroke-opacity" repeatCount="indefinite"
      dur="4s" values="0.9;0;0.9"></animate>
    <animate href="#16282281824-posters-1720560138473-medium" attributeName="stroke-opacity" repeatCount="indefinite"
      dur="5s" values="0.9;0;0.9"></animate>
    <animate href="#16282281824-posters-1720560138473-bold" attributeName="stroke-opacity" repeatCount="indefinite"
      dur="3s" values="0.9;0;0.9"></animate>
    <animate href="#16282281824-posters-1720560138473-regular" attributeName="fill-opacity" repeatCount="indefinite"
      dur="8s" values="0.9;0.75;0.95;0.8;0.9;"></animate>
    <animate href="#16282281824-posters-1720560138473-radial-background" attributeName="cx" repeatCount="indefinite"
      dur="34s" values="0%;33%;100%;0%;100%;0%;"></animate>
    <animate href="#16282281824-posters-1720560138473-radial-background" attributeName="cy" repeatCount="indefinite"
      dur="55s" values="0%;100%;33%;100%;66%;0%"></animate>
    <animate href="#16282281824-posters-1720560138473-vertical-light" attributeName="x1" repeatCount="indefinite"
      dur="55s" values="0%;33%;100%;0%;133%;0%;"></animate>
    <animate href="#16282281824-posters-1720560138473-vertical-light" attributeName="y1" repeatCount="indefinite"
      dur="86s" values="0%;100%;33%;100%;66%;0%"></animate>
    <animate href="#16282281824-posters-1720560138473-horizontal-regular" attributeName="x1" repeatCount="indefinite"
      dur="34s" values="0%;100%;66%;0%;33%;133%;0%"></animate>
    <animate href="#16282281824-posters-1720560138473-horizontal-regular" attributeName="y1" repeatCount="indefinite"
      dur="55s" values="0%;66%;100%;33%;100%;66%;0%"></animate>
    <animate href="#16282281824-posters-1720560138473-vertical-medium" attributeName="x1" repeatCount="indefinite"
      dur="34s" values="0%;100%;66%;0%;33%;133%;0%"></animate>
    <animate href="#16282281824-posters-1720560138473-vertical-medium" attributeName="y1" repeatCount="indefinite"
      dur="55s" values="0%;66%;100%;33%;100%;66%;0%"></animate>
    <animate href="#16282281824-posters-1720560138473-vertical-bold" attributeName="x1" repeatCount="indefinite"
      dur="34s" values="0%;100%;66%;0%;33%;133%;0%"></animate>
    <animate href="#16282281824-posters-1720560138473-vertical-bold" attributeName="y1" repeatCount="indefinite"
      dur="55s" values="0%;66%;100%;33%;100%;66%;0%"></animate>
  </g>
</svg>
