<svg id="16282281824-posters-1720558170904" itemscope="" itemtype="/posters"
  itemid="/+16282281824/posters/1720558170904" viewBox="0 0 769 512" preserveAspectRatio="xMidYMid meet" tabindex="0"
  class="animate landscape" xmlns="http://www.w3.org/2000/svg">
  <!---->
  <defs class="graphic">
    <pattern id="16282281824-posters-1720558170904-pattern" width="769" height="512" viewBox="0 0 769 512"
      patternUnits="userSpaceOnUse" preserveAspectRatio="xMidYMid meet">
      <rect itemprop="background" width="769" height="512" tabindex="-1"
        id="16282281824-posters-1720558170904-background" fill-opacity="1"
        fill="url(#16282281824-posters-1720558170904-radial-background)"></rect>
      <!---->
      <path id="16282281824-posters-1720558170904-light"
        d="M223 13c0 13 0 13 3 15q7 5 7-10c0-11 3-19 6-15l5 3 5 3 5 3q16 4 5-8l-4-4h-32zM375 0l5 12 3 6 1 3h-12c-14 0-17 1-17 6s3 6 21 6c21 0 23-1 23-8l-1-5-3-5-5-9-3-6zm79 10q-4 18 0 19 8 2 10-13 3-8 5-9l7 6q11 12 16 7c2-3 2-3-7-16l-3-4h-26zm100-8-2 1c-2 0-9 6-9 8q2 6 9 3l18-9 6-4c0-2-21-1-22 1m203-1q1 3 8 3 4 1 4-2 1-2-6-2zM12 18c-2 2-2 3 0 14v10H8l-5-1-3-1v13l6 1 9 3q4 2 6-1l4-2-1-10-2-14c0-6-4-14-7-14zm277 20q-3 5-3 23 0 15 12 11l21-8q6-2 8-6c0-5-9-6-18-1l-4 1-2 1-3 1-1-11c0-13-1-14-5-14q-3 0-5 3m392 17q-6 7 11 9 19 1 8 12l-2 3-1 1c-2 0-5 9-4 11q4 11 25-21 7-12-2-13l-7-1c-8-2-25-2-28-1m-77 1q-6 3-9 29c-1 10-1 11 4 11q6-1 9-13 1-9 4-10l7 5q8 10 13 6c3-3 3-5-9-16-13-13-14-14-19-12m-442 8c-6 2-24 12-27 15q-2 4 1 7c2 1 15-4 15-6l9-3v12q-1 18 5 16 5 2 5-22l1-15-2-2q-3-4-7-2m362 3c-7 3-22 13-24 15q-4 5 0 9c2 2 15 7 18 7l5 2c5 2 13 3 14 0q3-5-9-9-11-4-9-7 2-4 5-5c1 0 9-8 9-10q-1-4-4-5zM423 85c-9 9-17 21-17 24q1 10 13-2c10-13 11-13 15-1q3 11 8 10 3 1 2-7l-1-8-4-14q-4-12-16-2M67 84q-21 0-13 14l4 6 3 6 2 4c0 1 5 7 7 7q7-2 1-14c-6-11-6-11 9-13q21-3 13-9c-2-2-6-2-26-1m151 14q-7 3 6 13 10 6 6 9l-3 3c-4 0-15 8-15 11q1 8 17-1l12-6q15-9 2-16l-7-5-8-4q-7-6-10-4m96 22q-6 6 1 17l2 5c2 5 7 12 10 13q10 1 3-13-8-15 3-14 14 0 18-3l2-2-2-2c-2-3-2-3-18-3-14 0-17 0-19 2m345 25c-4 2-2 13 3 17l2 4q2 5-12 3-17-3-17 5-1 5 16 6c24 3 28 2 29-4 0-3-3-12-5-13l-7-13c0-4-6-7-9-5m-96 4c-3 0-10 9-14 18l-6 11q-4 6 0 11c3 2 34 3 36 0q7-8-11-9-15 2-8-10c10-19 10-18 7-20q-1-3-4-1m173 3c-3 3 5 24 13 33q5 6 15-3l5-4v-7q2-12-6-2c-7 6-8 5-13-6q-8-17-14-11m-268 5q-5 3 6 14 13 10 0 13-18 6-13 11c2 2 19 0 24-3l4-1q8-2 9-8 0-5-19-23-8-6-11-3m-330 17-9 2-10 2q-15 1-13 9c1 3 20 22 24 24 7 3 10-4 4-9l-10-13q2-3 9-4l17-4q3-4-1-7zm-93 4-7 10-3 4c-4 4-5 4-13-5q-15-12-13-1c1 5 19 22 22 22q7 0 8-5l1-1 1-1 4-8q10-13 7-16-2-4-7 1m159 9q-7 3-15 14l-5 6-1 3-1 1v7c4 3 7 1 17-11q6-9 9 0 7 13 11 15 5-1 6-6c0-4-11-25-14-27q-3-4-7-2m182 6q-3 5-1 8l1 2 3 6c3 8 3 9-9 9q-23 2-14 10c3 3 28 3 33 0 7-3 7-7 0-23l-2-7c0-2-5-7-8-7zm-89 8-9 6-10 10q-11 10 4 19l11 6q12 7 14-1 1-4-9-9c-12-6-12-7-4-15 9-9 10-11 9-14q-2-3-6-2m317 36-9 10-8 13q-7 9 0 11 4 1 9-7l5-6 2-3 2-2q4-3 9 8 7 17 13 9c1-2-1-11-6-19l-3-5q-6-11-14-9M64 247q-4 3 6 12 12 9 3 11-22 10-16 13 2 5 21-5c17-8 18-9 7-19q-17-17-21-12m457 0q-3 3 2 13l4 9q5 4-13 4l-14 1q-10 9 25 10c13 1 16 0 18-4a24 24 0 0 0-7-18l-7-15zm175 1q-12 0-10 9c0 5 18 27 22 27 5 0 7-7 4-10l-9-14q-1-1 12-3 15-2 12-6c-1-4-14-5-31-3m-271 27-3 5-6 18q-4 11 3 13a78 78 0 0 0 29-3c6 0 11-6 7-9-2-1-4-1-17 1q-10 2-10-3l4-11c2-3 3-11 2-13q-4-3-9 2m-272 6q-26 2-11 19l7 9q10 12 13 8 3-2 0-8l-3-4-2-4q-9-9 0-10l7-2 6-1q8-1 4-6c-2-2-5-2-21-1m181 7-7 8-8 11q-10 10-5 12c4 3 5 2 14-6q11-14 12-6l7 14q3 4 6 2 5-4 2-9l-3-9-3-8-1-2c0-6-8-10-14-7m430 9q-6 5-2 8 7 6 7-4 1-9-5-4m-537 4q-3 3 3 13c8 12 7 13-8 15q-13 2-11 7 1 6 18 3l12-2q11-1 10-6c1-3-1-10-3-12l-5-5-9-13zm330 28c-2 2-6 21-7 33l1 9c2 2 9 3 10 1l4-1 11-5 12-5q10-4 5-9c-3-2-4-2-11 1q-10 5-16 5-4 0-1-12c2-6 2-16 1-18q-4-2-9 1m99 19q-2 5 5 15c6 10 5 11-8 12q-18 0-16 8c2 3 5 4 18 4q26 0 26-9c0-3-8-20-13-27q-7-9-12-3m-186 9-5 6-7 11q-15 18-4 23c5 2 18 4 26 4 16-1 13-10-3-11-15-1-15-4-3-21l5-9q-1-8-9-3m-352 4-16 26q0 6 4 7t11-11q8-16 11-4 10 18 15 12c2-3 2-5-5-16q-12-25-20-14m-78 8c-11 9-20 20-20 24 0 5 2 6 14 9 13 3 24 3 25 0q1-6-13-8c-13-3-13-3 0-17q7-6 4-9-2-5-10 1m702 9-6 8-8 12q-7 11-4 14 5 7 15-8 6-12 8-10 4 1 5 5c0 2 6 13 9 15q4 5 6 0c3-3 2-6-5-19l-5-12c0-5-10-9-15-5m-459 2q-3 3-1 6l14 9 3 3q3 5 0 6c-4 0-18 12-18 16q0 7 15-2l9-6c17-10 15-15-6-27-12-6-13-7-16-5m104 7c-2 1-6 3-17 14-15 13-14 15 4 24l13 7c8 4 17-1 11-6-2-3-13-8-20-11q-6-2 8-14 11-12 6-13-1-3-5-1m-183 14-8 9-4 9-4 11q-1 3 3 4 4-1 5-4l3-5 3-5q2-4 6-6l14 16c3 5 9 4 9-1 0-3-4-10-7-12l-2-3-4-7-5-6zm380 42-17 9c-2 1-7 7-7 9q-1 3 11 14c12 12 15 14 20 12q8-3-5-15-10-10-6-13 16-9 16-12 2-9-12-4m75 9q-7 7 10 12c14 5 14 5 7 12-9 10-9 11-9 15q-1 6 4 5c3 0 4 0 12-8 20-22 20-26-1-33l-13-4q-7-2-10 1m-516 10q-3 3-1 4l1 4 4 6c4 8 4 8-9 8q-12 0-13 2-6 5 7 8l8 1c7 2 21 2 23 0q4-3 0-10l-6-13q-10-20-14-10m343 0c-5 1-9 6-16 25q-7 15 1 15c2 0 8-6 8-7l8-16 3 2 12 15h9q3-3-5-15l-6-10-11-10zM49 476q-8 7 11 9c11 1 12 2 6 11q-8 13-1 14c2 0 8-5 8-7l4-6c14-19 13-22-10-23-13 0-16 0-18 2m249 11q-13 3-4 17l2 5c1 3 1 3 8 3q10 2 4-6l-3-6c0-3-1-3 17-3q17-1 8-8c-2-3-20-4-32-2M0 500v8l4 2q2 2 12 2 14 0 6-4l-5-4-14-9-3-2zm383-2-2 4-1 6v4h5c6 0 7 0 8-8s-5-12-10-6m-161 8-8 3-5 3h25l-1-2q-1-6-11-4"
        mask="url(#16282281824-posters-1720558170904-horizontal-mask)" itemprop="light" fill-opacity="0.90"
        fill-rule="evenodd" stroke="none" fill="url(#16282281824-posters-1720558170904-vertical-light)"></path>
      <!---->
      <path id="16282281824-posters-1720558170904-regular"
        d="M223 12q0 17 5 16 4 1 5-13c1-15 2-16 13-9q11 8 14 7 7-1-2-9l-4-4h-31zm154-9 3 7 3 8 1 4h-13l-13 1-2 2q-6 9 20 8c19-1 23-2 23-7 0-3-1-6-9-19l-4-7h-5q-6-1-4 3m78 5-2 10q-1 7 2 10 5 3 8-11c4-13 5-13 15-3q7 7 10 6 9 1-3-14l-4-6h-24zm101-7-4 3q-14 9-4 10c3 0 27-12 27-13l-9-1zM12 18q-2 3 1 15 4 13-10 9l-3-1v11l6 2c11 3 14 3 17 0 2-2 2-2 0-16q-4-26-11-20m278 19c-3 4-5 28-3 32q3 5 14 0l15-5q13-4 9-8-2-4-15 1c-12 5-11 5-12-9q0-20-8-11m392 19q-8 5 11 8c14 2 15 3 8 12q-13 17-5 17 7-1 21-23c7-11 5-12-17-14-15-2-15-2-18 0m-78 1c-3 1-4 3-6 16-4 18-4 23 1 23q4 0 7-11c4-14 4-14 14-6q8 7 12 4c2-3 1-5-9-15-13-12-14-13-19-11m-443 8c-12 5-27 15-27 18q0 7 15-2c12-8 13-7 12 9q-1 18 5 14 2-1 3-13c2-25 1-29-8-26m366 1-20 11q-17 12 1 17l15 5c11 4 13 4 14-1q1-3-10-7c-12-5-12-6-4-12q13-10 8-12-1-3-4-1m-98 15c-3 0-23 24-23 28q0 4 5 4 4 0 10-10 10-13 13 0 4 17 10 12 3-2-2-15l-5-13q-2-8-8-6M61 85q-8 1-8 6c0 4 7 17 14 27l3 2q7-1 1-12c-6-12-6-13 8-14q19-2 14-8c-1-2-22-3-32-1m156 14q-3 4 8 12c10 7 10 9-2 14q-11 6-10 10c1 2 7 2 10 1q23-12 24-14 3-6-4-11l-5-2-4-3-7-5q-8-5-10-2m98 21q-7 2 2 19c6 14 8 15 11 15q8-2 0-16c-4-9-4-9 10-11q20-1 12-6c-1-2-31-3-35-1m344 27q-4 3 2 12 9 14-6 11c-11-3-21-1-20 4q1 5 22 6 22 2 22-3c1-2 2-1-9-22q-7-14-11-8m-102 8c-4 6-7 10-14 25q-7 11 18 10 20 1 19-5 0-3-11-4c-14 0-14-2-6-17q9-15 2-15-3-1-8 6m180-2c-3 3-2 4 3 16 9 18 11 20 18 17q11-5 11-15v-7l-6 5c-7 6-8 6-13-5q-9-18-13-11m-269 6c-1 3 0 4 7 12q7 6 7 8c-1 3-8 7-11 7-4 0-10 4-10 6q0 5 11 3c29-7 31-10 14-27q-16-17-18-9m-332 16-13 2c-13 3-14 3-16 6s-1 5 11 17q14 14 17 10 3-2-3-10c-12-12-11-14 3-16q14-2 15-5 2-7-14-4m-91 4-7 10c-6 8-7 8-16 0q-10-11-13-5-2 2 10 14c13 12 16 13 21 2l6-9 6-13q-2-4-7 1m157 10q-7 4-14 15l-4 5c-2 0-3 6-1 8q3 5 9-3c13-16 13-15 17-7q10 20 15 11c1-3 1-3-4-14-9-17-12-19-18-15m183 6q0 5 4 14 7 11-7 10-22 0-16 8c2 2 15 3 26 2q17-1 9-17l-4-11q-8-15-12-6m-89 7-12 10c-9 9-10 10-10 13 0 6 1 6 22 18q7 4 10 0t-9-11c-11-5-12-7-3-16q13-12 7-13-2-3-5-1m315 39c-6 6-17 23-17 26l2 3q1 3 16-13l5-6 3 3 4 8q6 11 10 10 6-1 1-10-13-35-24-21m-547 6q-4 1 7 12c9 8 9 9-1 13q-16 8-12 11 0 4 18-5c19-8 19-9 8-19q-16-16-20-12m458 1c-3 2-2 3 3 15 6 11 5 11-11 11-11 0-12 0-14 2l-2 2 2 2q3 3 29 3c16 1 17-2 7-21-8-16-11-18-14-14m174 1c-13 1-13 4-3 19 11 14 12 15 15 15q9-1 1-12c-9-12-8-13 5-14q10-1 11-3 10-8-29-5m-270 26-5 8-2 7-4 13q-1 14 29 5 14-2 12-6 1-4-14-2l-12 1q-4-2 1-15 6-12 1-13-3-2-6 2m-276 7q-21 2-7 19c11 13 14 16 17 16q9 1-6-18-8-9 10-10 11-1 10-4 4-6-24-3m184 8c-2 1-19 22-20 25q-2 5 4 5c2 0 12-9 16-15q4-6 9 7 7 17 11 9 3-2 0-7l-3-9q-6-22-17-15m431 8a4 4 0 1 0 4 3q1-7-4-3m-538 3q-3 2 4 13c8 13 7 14-6 15q-19 2-12 9c2 2 10 2 15 0l9-1q21-2 12-15l-7-10q-11-16-15-11m331 28q-3 3-3 8l-2 9c-7 32-4 33 38 13l3-4q0-7-11-1l-13 4-5 1c-3-1-3-3 0-16q4-13-2-15c-3-1-2-1-5 1m99 19c-2 2-1 4 5 15 5 12 5 12-9 12q-16 0-16 6t24 5c20-1 22-5 15-20-10-20-14-23-19-18m-188 11-5 7-7 9c-11 16-10 21 5 24 18 3 32 1 26-5-1-2-8-4-11-4h-6c-9-2-9-6 3-22q7-10 1-12zm-349 1c-3 2-17 26-17 29q1 11 13-6 9-16 13-3c2 3 9 12 11 12q8 0-2-16l-4-8-4-5q-5-6-10-3m-76 8c-4 2-21 18-23 21q-6 9 11 12c20 5 24 5 26 2q3-6-14-9c-11-2-11-4 0-16q9-9 5-11-2-2-5 1m697 13-17 26q-2 5 4 6 3 2 11-10c8-13 10-13 16 0q6 13 11 12c3-2 2-6-5-21-8-16-8-17-13-17q-4 0-7 4m-459 1q-1 3 8 9c14 8 14 10 4 17q-13 8-12 11c0 6 4 5 20-6 17-10 18-14 8-21q-24-16-28-10m104 6-14 12c-16 15-16 15 3 24l12 7h12c2-3 1-5-13-12-13-6-13-7-2-18q13-12 7-13zm-181 13-5 5-7 12-4 6c-1 3-1 9 1 9q3 2 9-10c7-13 8-13 19 1q8 12 12 7c1-2-3-13-5-13l-5-7q-8-13-15-10m382 42-9 5c-6 0-17 9-17 13 0 6 23 27 28 26q11-3-3-15c-11-9-11-11 1-18q13-8 8-11c-2-2-2-2-8 0m72 10q-5 5 10 10l13 6-7 9q-10 12-9 15 6 10 26-17c9-12 7-14-10-20q-21-7-23-3m-516 9c-1 3-1 4 3 12 6 10 5 11-9 11q-14 0-13 4c0 2 1 2 11 4 29 6 34 3 24-15l-6-11q-6-12-10-5m342 1q-6 0-14 23-7 16 0 15c2 0 8-6 9-10s6-11 8-12q2 0 6 5 9 12 12 13 9 0 0-15c-13-19-14-21-21-19M49 476q-5 7 12 9c11 1 11 1 6 11-6 10-6 11-3 13q3 1 8-6l8-12q8-11 3-14c-3-2-32-3-34-1m245 12c-5 3-4 6 1 17l3 7h12l-3-6q-9-12 10-10 21 0 13-7c-3-2-31-3-36-1M0 501l1 7 4 2c3 2 4 2 12 2h9l-11-8c-16-12-15-11-15-3m384-4q-2 3-3 11l-1 4h11v-5q1-14-7-10m-168 12-5 3h10c13 0 13 0 11-4q-4-5-16 1"
        mask="url(#16282281824-posters-1720558170904-radial-mask)" itemprop="regular" fill-opacity="0.90"
        fill-rule="evenodd" stroke="none" fill="url(#16282281824-posters-1720558170904-horizontal-regular)"></path>
      <!---->
      <path id="16282281824-posters-1720558170904-medium"
        d="M224 2c-2 6 0 22 2 24q6 5 6-9 0-15 6-16l8 5q13 8 16 5 3 0-4-6l-5-5h-15c-13 0-14 0-14 2m153 0 1 5c10 14 9 16-9 16q-14-2-13 4c0 4 4 5 20 5 26 0 27-2 12-28-3-5-11-6-11-2m80 0-2 10q-3 16 1 16 5 0 6-10 4-20 16-5 9 11 13 6 2-5-10-17c-3-3-24-3-24 0m100-1-6 3c-7 4-10 10-4 10l16-7 6-3q12-4-3-4zM12 19v10l2 11v3l-7-1H0v10l9 2c10 2 11 2 14 0 3-4-3-37-8-37zm278 20c-2 5-3 26-2 29q0 6 18-1l13-5q9-2 5-6c-3-2-3-2-9 0l-11 3c-6 3-6 2-7-11V37l-3-1q-4-1-4 3m393 17c-6 1 0 7 7 7q12 1 15 4c1 2 1 2-7 14-6 7-5 14 1 11 2-1 12-13 17-21q7-11 2-12c-5-2-31-4-35-3m-80 3c-3 3-9 31-7 34q1 3 6 1l3-6 3-10q2-10 11-1 7 7 10 6 11 1-14-22-9-7-12-2M155 69q-21 11-20 15t12-3q9-5 12-5l3 1v12c0 13 0 15 3 15q3 1 4-17c2-23 0-26-14-18m367 0c-29 17-30 20-4 28 14 4 16 5 18 2q2-3-6-6l-8-4q-9-3-1-9c10-8 11-10 11-12q-2-3-10 1m-93 13c-2 0-11 11-19 20q-6 8 0 10 4 0 10-9 10-16 16 4 3 9 5 8 6-1-1-18l-3-10q-1-4-5-6zM71 85c-19 1-21 3-14 14l2 5c0 2 8 14 10 15 5 3 5-4 0-13-5-10-4-11 10-13q15-2 15-5c0-3-4-4-23-3m146 17q0 2 8 8c10 8 10 10-1 16q-9 4-10 8-1 6 19-4c19-10 19-12 7-20l-10-6q-13-9-13-2m101 18q-10 1-1 19 8 16 12 15 6 0 0-13c-6-11-5-12 4-14l11-1 6-2 2-2-2-1c-3-2-20-2-32-1m340 29q-2 1 4 10c6 12 5 13-14 11q-11-2-11 4-1 4 16 5c21 2 26 2 26-3 0-3-6-16-9-18l-1-3c0-6-9-12-11-6m-95 1q-5 3-16 22c-8 16-8 17 14 17l17-1q7-5-10-7-12 0-12-4l6-13 6-12q0-3-5-2m174 3q-3 2 4 16c9 17 11 19 18 15q10-4 10-13v-6l-6 4c-7 7-8 7-14-4q-8-17-12-12m-268 5q-4 2 6 11 9 9 7 11c0 2-8 6-10 6-4 0-10 4-10 6q2 6 22-1c17-6 17-7 2-23-11-10-13-12-17-10m-328 17-9 1-14 3q-21 1-1 19 15 16 17 12 5-1-5-12c-10-11-8-13 8-15q17-2 12-8zm-96 6-5 6q-4 7-9 9l-9-7c-9-7-10-8-12-6-2 3 0 5 10 15 12 12 14 12 23-3l9-17q-3-3-7 3m151 13q-17 19-13 23 4 3 11-6 12-18 15-5 7 14 11 14 8 0-3-20l-3-6-2-3q-5-8-16 3m191 0c-3 2-3 3 3 16q8 11-13 10-9 0-10 2-7 7 19 7c19-1 20-4 13-22q-7-19-12-13m-102 18c-14 14-14 17 0 24l10 6q12 5 11-2-1-3-9-7c-12-6-13-8-2-19q12-11 4-12c-3 0-5 1-14 10m327 28c-7 8-19 27-17 29q3 4 13-9l9-9q3 1 10 13 6 11 9 5a71 71 0 0 0-10-25c0-1-5-6-8-6q-2-1-6 2m-547 8q-3 1 6 10c10 9 10 10-3 16q-16 7-9 9c4 2 31-11 32-15 1-5-23-23-26-20m457 0q-3 2 4 14c5 12 5 11-11 12-14 0-16 1-16 4 0 4 38 7 41 3q4-3-1-12l-10-21zm182 1c-22 2-22 3-8 22q11 15 14 11 4-2-3-13c-7-10-7-11 5-13q14-1 14-4l-2-2c-2-1-16-2-20-1m-278 27c-2 3-9 18-10 25q-5 13 16 9 20-2 23-8 1-3-9-2l-11 2q-13 3-6-13c5-13 6-14 4-15q-4-3-7 2m-270 6c-20 2-22 6-10 21q12 17 16 13 4-1-8-16-10-10 9-12 12-1 11-4t-5-3zm179 7-6 6-6 8q-11 13-8 16 5 1 8-3l13-13q4-1 6 6c2 5 6 13 8 13q6 2 3-9l-4-11-2-6-1-3q-2-6-11-4m431 8q-6 4-3 7 5 4 6-4v-4zm-538 4q-3 3 2 10c10 16 9 17-9 19-8 1-12 7-6 9 3 1 31-4 34-6s1-12-2-13l-5-7q-9-14-14-12m330 29c-2 2-6 18-7 32-1 13 4 13 29 1l10-4 4-5q-2-4-11 1l-7 2-5 2q-8 4-8-5l1-7c2-3 2-16 1-17q-3-3-7 0m100 18q-3 3 5 18 9 10-10 10-22 1-12 9c3 2 26 1 32-1 9-3 9-5 1-20q-12-22-16-16m-189 12-4 5-2 4c-4 4-12 17-13 20q-2 7 12 9c15 3 27 2 27-2q-1-5-12-5c-6 0-13-2-13-5-1-1 3-10 8-16q7-10 5-13-3-3-8 3m-349 1c-3 3-17 26-17 28l1 3q4 3 12-10c7-12 9-12 15-2q6 11 10 11 4-2-1-12l-6-10q-8-14-14-8m-79 9c-11 8-21 21-20 26 2 4 36 10 37 6q1-4-12-7c-14-3-14-5-3-17 9-9 8-15-2-8m701 10-17 27q-2 5 3 5 6 0 7-4l10-15q4-3 10 9 5 13 10 12 6-1-2-15l-3-6-7-14q-6-3-11 1m-458 1q-5 3 7 10c13 9 14 10 4 16q-13 9-12 12-1 5 8 1c20-12 25-17 24-22 0-1-11-10-13-10l-7-3q-9-6-11-4m98 10c-26 23-26 24-9 32 19 10 22 11 25 7q5-2-12-10c-14-7-14-8-3-19q9-8 9-11-1-5-10 1m-179 13-6 7-8 17v4q3 3 10-9c8-14 8-14 20 2q8 10 10 6 3-5-4-13l-7-8q-8-14-15-6m383 40-6 4-3 1c-3 0-14 7-15 10q-3 3 9 14 18 18 21 12 4-3-8-13c-9-9-9-11 0-17q15-8 11-11-2-3-9 0m73 9q-6 5 16 12c10 3 10 4-1 15q-12 15-3 15 7-1 21-20c8-11 7-13-10-19-15-5-20-5-23-3m-515 9q-3 3 2 11c7 11 6 12-9 12l-12 2q-2 4 6 5l5 1 14 2c16 1 17-1 9-16l-6-12q-7-11-9-5m337 5c-4 4-13 25-13 29 0 7 7 4 10-4q5-12 9-14 2 0 10 9 9 12 12 8 4-1-2-11c-14-22-19-25-26-17M50 477l-2 2 2 2q1 2 10 3c13 1 13 2 7 13-8 15-3 17 7 3 15-23 15-24-7-25-14 0-15 0-17 2m253 11c-13 1-14 3-9 14l3 8q1 3 7 2 9 2 2-7c-3-5-3-5-2-8 2-2 2-2 14-2q15 0 14-3c0-3-13-5-29-4M0 501l1 6 4 3c4 2 5 2 12 2h8l-10-8-14-9zm383-1-1 5-1 4q-3 4 5 3h5v-15h-4q-3-1-4 3m-166 9-6 3h10c10 0 11 0 11-2q-1-7-15-1"
        mask="url(#16282281824-posters-1720558170904-vertical-mask)" itemprop="medium" fill-opacity="0.90"
        fill-rule="evenodd" stroke="none" fill="url(#16282281824-posters-1720558170904-vertical-medium)"></path>
      <!---->
      <path id="16282281824-posters-1720558170904-bold"
        d="M225 2c-1 3 0 23 1 24q5 3 6-11l2-12q4-4-4-3-5 0-5 2m22 4q13 9 14 5 2-1-4-6c-5-5-5-5-12-5h-6zm131-4 1 5 3 5 2 2 1 4q1 7-15 6-14-1-13 3-1 5 20 5c18-1 21-2 20-7 0-4-5-13-9-19l-3-5-3-1q-4 0-4 2m80 1-2 8q-3 13-1 16 4 1 6-9 4-21 16-7 11 11 13 8 3-3-9-16l-1-2-11-1h-11zm100-2-4 3q-14 8-7 9c3 0 12-4 15-6l3-2 2-1 2-1 3-2q5-1-6-1zM13 19v8q3 15 1 16c-1 1-9 2-9 0q-4-4-5 3v5l6 1 11 2 6 1v-5c0-7-4-27-6-31zm279 18q-4 4-4 21c0 15 0 15 19 8l11-4q9-3 6-5-4-4-19 3l-5 1h-2l-1-11q1-18-5-13m390 20q-1 5 9 5 25 2 10 15-10 14-5 15c3 0 14-12 16-16l4-7c6-8 5-9-9-11q-24-4-25-1m-79 2q-2 3-3 11l-3 13q-2 10 1 12c3 1 7-7 9-16q1-13 13-1c10 8 16 6 8-3q-18-20-25-16M156 69c-18 9-22 13-20 15q3 2 11-4c14-9 15-8 15 10 0 12 0 13 2 13 3 0 4-4 5-20 1-19-1-21-13-14m361 4-10 6c-7 3-9 10-4 12l11 4 11 3c13 5 16-1 2-6-13-5-13-7-4-15 14-11 9-14-6-4m-92 12-5 6-12 15q-2 5 2 6c2 0 3-1 13-12q9-11 13 4l5 11a14 14 0 0 0 0-14l-2-5-2-6c0-8-7-11-12-5M64 86l-5 1q-8 0-2 11l2 5 3 6 3 5q2 3 6 5c2 0 1-7-2-12Q59 91 82 92q8 0 12-4c4-3-26-5-30-2m154 15c0 3 0 3 9 10q15 9-4 16-11 5-8 8 3 2 14-4l11-6q12-7 3-12l-9-5-10-7q-6-4-6 0m102 20q-9 0-7 5c0 3 8 21 12 25 6 6 7-1 2-11-5-11-4-13 10-14q17-1 12-5zm339 29q0 4 3 8c8 13 7 14-13 13-8-1-9-1-11 1l-2 2 2 1c3 2 10 3 30 5q11 1 10-5l-5-11-7-14q0-3-5-3-3 0-2 3m-98 2-2 3-1 1-10 17-4 6q-5 5 1 8c3 3 29 3 33 0l2-2-3-1-10-2q-16 1-9-12l4-7 3-5q4-11-4-6m176 3c-2 4 13 31 17 31q5 0 11-7 5-3 4-9v-5l-5 5c-8 7-9 7-14-4l-6-10c-2-4-7-4-7-1m-268 4q-4 0 6 10c9 9 10 10 7 13l-12 5c-10 3-11 8-2 7 13-1 27-7 28-11 0-2-7-11-14-17l-6-6q-3-3-7-1m-331 17-7 1-8 2c-19 2-20 5-6 18q14 15 16 13 5-1-5-12c-7-8-7-8-5-10q0-4 11-5 17-3 15-5c-1-3-2-3-11-2m-94 7-5 7-8 7-11-8q-7-8-9-5c-3 2 16 22 21 22 3 0 8-5 8-7l5-8q8-12 5-13zm158 7q-4 2-16 18c-4 6-4 6-2 8q1 6 13-10c7-8 9-8 14 1q7 14 10 12c2 0 3-8 1-8l-1-3-2-3-4-7q-6-14-13-8m185 5q-1 4 4 15c4 8 3 10-12 11-20 1-18 7 3 7q15 0 20-3 2-4 0-9l-3-7-3-7-1-2c0-5-7-9-8-5m-94 11c-21 17-22 22-9 29l10 6q8 3 11 1 2-3-9-9c-13-6-13-9 1-21 8-8 4-13-4-6m319 35-16 26q1 5 7-2l13-15q4 1 10 11 7 14 9 9c1-3 0-5-5-18q-10-20-18-11m-547 9q1 3 7 8c10 9 10 10-5 17q-9 4-9 7t17-4q10-6 13-6 2 0 2-5c0-1-10-11-17-16q-7-5-8-1m457 1 4 11 1 3 2 4 1 2q1 4-15 4-19-1-15 4c2 1 21 4 31 4q18 2 3-21l-2-6-1-3q-2 0-2-3l-4-2q-4-1-3 3m186-2-8 1q-22-1-6 17l4 5q8 12 12 9c3-1 3-2-3-11l-6-10q0-4 14-5 20-3 4-5l-8-1zm-281 27c-2 2-6 12-9 21-4 12-3 14 13 12q22-2 24-7 0-3-10-1h-18q-3-3 2-13 6-14 1-14zm-269 6-7 1q-21 3-7 17l6 7q8 12 12 8a7 7 0 0 0-4-8l-4-6-4-7q1-7 15-7 9-1 8-3c0-2-14-3-15-2m179 7q-4 1-10 10l-4 5-9 13c0 3 7 2 9-1 1-3 13-15 14-15q3 0 7 11l5 9q4 1 5-2l-8-25q-1-5-9-5m-109 13a6 6 0 0 0 2 8l3 5q13 15-9 16-11 0-11 5c0 2 9 3 16 1l11-2 9-2c2-2 0-9-3-12l-6-10c-1-2-8-10-10-10zm331 28c-2 2-3 6-6 24-2 14-2 15 1 16 2 1 10 0 14-2l22-10q3 0 3-4c0-2-7-1-9 1l-18 5q-5 0-3-13c3-15 3-16 1-17q-3-3-5 0m99 19q-2 1 4 13c7 13 6 14-8 14q-16 0-15 5c0 4 13 6 29 3q16-2 8-14l-3-7-5-8q-6-12-10-6m-189 12-4 6-7 9q-8 12-7 16c2 6 33 10 37 5 3-2-5-6-14-6q-19 0-3-21 7-8 6-11-2-4-8 2m-350 1-15 27q1 8 11-7c8-13 9-13 16-1q7 11 10 9 4 0-2-10l-5-10q-8-14-15-8m-77 8c-4 3-17 16-19 20q-4 7 2 8l6 1c7 3 23 5 25 4 4-2-3-7-9-7-4 0-12-3-13-5q-2-3 9-14l6-8q-1-2-7 1m701 10-5 7-8 12c-7 8-6 17 1 12l10-14q2-4 6-5 4 0 9 10 4 11 9 11c3 0 3-3-4-17l-6-13c0-4-9-6-12-3m-459 2v2l10 8 5 4q8 6-1 10l-4 3-5 3q-6 5-6 8c0 2 6 1 7 0l2-2 5-3 8-4q18-10 3-18l-5-4-2-1-6-3q-8-5-11-3m101 8-8 7-9 8q-7 7-6 11c1 2 27 14 31 14q11 0-5-9-13-5-13-7-4-2 9-14 12-11 5-12zm-183 15-4 7-5 8-3 8v3q-2 1 1 1c1 0 9-10 9-13 0-1 6-7 8-7l5 4 6 7 3 5 6 3q3-4-4-12l-7-9q-8-13-15-5m384 40-5 3-6 2-5 3c-3 0-8 6-8 8q0 2 10 12 16 16 18 12 5-2-5-12c-12-11-11-12 3-21l7-6q-1-5-9-1m74 8-1 3c0 2 8 6 16 8q13 3 6 10-19 20-10 21c4 0 25-24 25-29q0-4-6-6l-5-2c-8-3-22-6-25-5m-515 9q-3 2 3 11c5 12 4 13-11 13q-23 2-3 6c27 4 29 4 29-2 0-2-2-8-4-10l-5-9q-6-13-9-9m338 4q-5 4-12 23c-3 8-3 8-2 10q4 4 11-11c6-14 7-14 20 2q9 9 10 3a62 62 0 0 0-12-21l-3-4q-6-7-12-2M50 478q-3 5 14 6c9 0 10 2 2 15-2 4-3 10-1 10l7-7 2-5q3-2 6-9c7-11 5-12-18-12q-11 0-12 2m245 12q-4 3-3 5l4 9 3 8h10l-2-4q-12-15 9-13 23 0 11-5c-4-3-28-3-32 0M0 502q0 6 2 5l5 3q3 2 10 2h7l-7-5-8-6c0-1-6-5-8-5zm384-2-2 8-1 4h9v-6q1-10-3-9zm-164 8-6 3q-4 1 8 1l10-1c0-4-7-5-12-3"
        mask="url(#16282281824-posters-1720558170904-horizontal-mask)" itemprop="bold" fill-opacity="0.90"
        fill-rule="evenodd" stroke="none" fill="url(#16282281824-posters-1720558170904-vertical-bold)"></path>
    </pattern>
    <rect id="16282281824-posters-1720558170904-pattern-render" fill="url(#16282281824-posters-1720558170904-pattern)"
      width="100%" height="100%"></rect>
  </defs>
  <radialGradient id="lightbar" cx="50%" cy="200%" fy="0" r="201%">
    <stop offset="0%" style="stop-color: rgb(255, 255, 255); stop-opacity: 0.1;"></stop>
    <stop offset="10%" style="stop-color: rgb(0, 0, 0); stop-opacity: 0.1;"></stop>
    <stop offset="30%" style="stop-color: rgb(0, 0, 0); stop-opacity: 0.3;"></stop>
    <stop offset="90%" style="stop-color: rgb(0, 0, 0); stop-opacity: 0.55;"></stop>
    <stop offset="100%" style="stop-color: rgb(0, 0, 0); stop-opacity: 0.6;"></stop>
  </radialGradient>
  <g class="radial">
    <radialGradient id="16282281824-posters-1720558170904-radial" gradientUnits="userSpaceOnUse">
      <stop itemprop="radial" stop-color="#e4e3e2" offset="0%"></stop>
      <stop itemprop="radial" stop-color="#e6e6e5" offset="15%"></stop>
      <stop itemprop="radial" stop-color="#e6e6e5" offset="30%"></stop>
      <stop itemprop="radial" stop-color="#e4e3e2" offset="45%"></stop>
      <stop itemprop="radial" stop-color="#e6e6e5" offset="60%"></stop>
      <stop itemprop="radial" stop-color="#e6e6e5" offset="75%"></stop>
      <stop itemprop="radial" stop-color="#e1e1df" offset="90%"></stop>
    </radialGradient>
    <radialGradient id="16282281824-posters-1720558170904-radial-background" gradientUnits="userSpaceOnUse">
      <stop stop-color="#d3cec5" offset="0%"></stop>
      <stop stop-color="#d3cdc5" offset="15%"></stop>
      <stop stop-color="#d3cdc5" offset="30%"></stop>
      <stop stop-color="#d3cdc5" offset="45%"></stop>
      <stop stop-color="#d3cdc5" offset="60%"></stop>
      <stop stop-color="#d3cec5" offset="75%"></stop>
      <stop stop-color="#d3cec5" offset="90%"></stop>
    </radialGradient>
    <radialGradient id="16282281824-posters-1720558170904-radial-light" gradientUnits="userSpaceOnUse">
      <stop stop-color="#9c9a96" offset="0%"></stop>
      <stop stop-color="#9c9a96" offset="15%"></stop>
      <stop stop-color="#9c9a96" offset="30%"></stop>
      <stop stop-color="#9c9a96" offset="45%"></stop>
      <stop stop-color="#9c9a96" offset="60%"></stop>
      <stop stop-color="#9c9a96" offset="75%"></stop>
      <stop stop-color="#9c9a96" offset="90%"></stop>
    </radialGradient>
    <radialGradient id="16282281824-posters-1720558170904-radial-regular" gradientUnits="userSpaceOnUse">
      <stop stop-color="#83817c" offset="0%"></stop>
      <stop stop-color="#83807c" offset="15%"></stop>
      <stop stop-color="#83807c" offset="30%"></stop>
      <stop stop-color="#83807c" offset="45%"></stop>
      <stop stop-color="#83807c" offset="60%"></stop>
      <stop stop-color="#83817c" offset="75%"></stop>
      <stop stop-color="#83817c" offset="90%"></stop>
    </radialGradient>
    <radialGradient id="16282281824-posters-1720558170904-radial-medium" gradientUnits="userSpaceOnUse">
      <stop stop-color="#51504d" offset="0%"></stop>
      <stop stop-color="#514f4d" offset="15%"></stop>
      <stop stop-color="#514f4d" offset="30%"></stop>
      <stop stop-color="#514f4d" offset="45%"></stop>
      <stop stop-color="#514f4d" offset="60%"></stop>
      <stop stop-color="#51504d" offset="75%"></stop>
      <stop stop-color="#51504d" offset="90%"></stop>
    </radialGradient>
    <radialGradient id="16282281824-posters-1720558170904-radial-bold" gradientUnits="userSpaceOnUse">
      <stop stop-color="#2f2e2d" offset="0%"></stop>
      <stop stop-color="#2f2e2d" offset="15%"></stop>
      <stop stop-color="#2f2e2d" offset="30%"></stop>
      <stop stop-color="#2f2e2d" offset="45%"></stop>
      <stop stop-color="#2f2e2d" offset="60%"></stop>
      <stop stop-color="#2f2e2d" offset="75%"></stop>
      <stop stop-color="#2f2e2d" offset="90%"></stop>
    </radialGradient>
  </g>
  <g class="vertical">
    <linearGradient id="16282281824-posters-1720558170904-vertical" gradientUnits="userSpaceOnUse" x1="0" x2="0" y1="0"
      y2="100%">
      <stop itemprop="vertical" stop-color="#e4e3e2" offset="0%"></stop>
      <stop itemprop="vertical" stop-color="#e6e6e5" offset="15%"></stop>
      <stop itemprop="vertical" stop-color="#e6e6e5" offset="30%"></stop>
      <stop itemprop="vertical" stop-color="#e4e3e2" offset="45%"></stop>
      <stop itemprop="vertical" stop-color="#e6e6e5" offset="60%"></stop>
      <stop itemprop="vertical" stop-color="#e6e6e5" offset="75%"></stop>
      <stop itemprop="vertical" stop-color="#e1e1df" offset="90%"></stop>
    </linearGradient>
    <linearGradient id="16282281824-posters-1720558170904-vertical-background" gradientUnits="userSpaceOnUse" x1="0"
      x2="0" y1="0" y2="100%">
      <stop stop-color="#ceccca" offset="0%"></stop>
      <stop stop-color="#cdcccb" offset="15%"></stop>
      <stop stop-color="#cdcccb" offset="30%"></stop>
      <stop stop-color="#ceccca" offset="45%"></stop>
      <stop stop-color="#ceccca" offset="60%"></stop>
      <stop stop-color="#ceccca" offset="75%"></stop>
      <stop stop-color="#cecdca" offset="90%"></stop>
    </linearGradient>
    <linearGradient id="16282281824-posters-1720558170904-vertical-light" gradientUnits="userSpaceOnUse" x1="0" x2="0"
      y1="0" y2="100%">
      <stop stop-color="#ae9d84" offset="0%"></stop>
      <stop stop-color="#ae9f84" offset="15%"></stop>
      <stop stop-color="#ae9f84" offset="30%"></stop>
      <stop stop-color="#ae9d84" offset="45%"></stop>
      <stop stop-color="#ae9d84" offset="60%"></stop>
      <stop stop-color="#ae9d84" offset="75%"></stop>
      <stop stop-color="#aea084" offset="90%"></stop>
    </linearGradient>
    <linearGradient id="16282281824-posters-1720558170904-vertical-regular" gradientUnits="userSpaceOnUse" x1="0" x2="0"
      y1="0" y2="100%">
      <stop stop-color="#83807c" offset="0%"></stop>
      <stop stop-color="#82807d" offset="15%"></stop>
      <stop stop-color="#82807d" offset="30%"></stop>
      <stop stop-color="#83807c" offset="45%"></stop>
      <stop stop-color="#83807c" offset="60%"></stop>
      <stop stop-color="#83807c" offset="75%"></stop>
      <stop stop-color="#83817c" offset="90%"></stop>
    </linearGradient>
    <linearGradient id="16282281824-posters-1720558170904-vertical-medium" gradientUnits="userSpaceOnUse" x1="0" x2="0"
      y1="0" y2="100%">
      <stop stop-color="#514f4d" offset="0%"></stop>
      <stop stop-color="#514f4d" offset="15%"></stop>
      <stop stop-color="#514f4d" offset="30%"></stop>
      <stop stop-color="#514f4d" offset="45%"></stop>
      <stop stop-color="#514f4d" offset="60%"></stop>
      <stop stop-color="#514f4d" offset="75%"></stop>
      <stop stop-color="#51504d" offset="90%"></stop>
    </linearGradient>
    <linearGradient id="16282281824-posters-1720558170904-vertical-bold" x1="0" x2="0" y1="0" y2="100%">
      <stop stop-color="#2f2e2d" offset="0%"></stop>
      <stop stop-color="#2f2e2d" offset="15%"></stop>
      <stop stop-color="#2f2e2d" offset="30%"></stop>
      <stop stop-color="#2f2e2d" offset="45%"></stop>
      <stop stop-color="#2f2e2d" offset="60%"></stop>
      <stop stop-color="#2f2e2d" offset="75%"></stop>
      <stop stop-color="#2f2e2d" offset="90%"></stop>
    </linearGradient>
  </g>
  <g class="horizontal">
    <linearGradient id="16282281824-posters-1720558170904-horizontal" x1="0" x2="100%" y1="0" y2="0"
      gradientUnits="userSpaceOnUse">
      <stop itemprop="horizontal" stop-color="#e6e6e5" offset="0%"></stop>
      <stop itemprop="horizontal" stop-color="#e4e3e2" offset="15%"></stop>
      <stop itemprop="horizontal" stop-color="#e4e3e2" offset="30%"></stop>
      <stop itemprop="horizontal" stop-color="#e6e6e5" offset="45%"></stop>
      <stop itemprop="horizontal" stop-color="#e1e1df" offset="60%"></stop>
      <stop itemprop="horizontal" stop-color="#e6e6e5" offset="75%"></stop>
      <stop itemprop="horizontal" stop-color="#e6e6e5" offset="90%"></stop>
    </linearGradient>
    <linearGradient id="16282281824-posters-1720558170904-horizontal-background" gradientUnits="userSpaceOnUse" x1="0"
      x2="100%" y1="0" y2="0">
      <stop stop-color="#cecdca" offset="0%"></stop>
      <stop stop-color="#ceccca" offset="15%"></stop>
      <stop stop-color="#ceccca" offset="30%"></stop>
      <stop stop-color="#ceccca" offset="45%"></stop>
      <stop stop-color="#ceccca" offset="60%"></stop>
      <stop stop-color="#ceccca" offset="75%"></stop>
      <stop stop-color="#ceccca" offset="90%"></stop>
    </linearGradient>
    <linearGradient id="16282281824-posters-1720558170904-horizontal-light" gradientUnits="userSpaceOnUse" x1="0"
      x2="100%" y1="0" y2="0">
      <stop stop-color="#9c9a96" offset="0%"></stop>
      <stop stop-color="#9c9a96" offset="15%"></stop>
      <stop stop-color="#9c9a96" offset="30%"></stop>
      <stop stop-color="#9c9a96" offset="45%"></stop>
      <stop stop-color="#9c9a96" offset="60%"></stop>
      <stop stop-color="#9c9a96" offset="75%"></stop>
      <stop stop-color="#9c9a96" offset="90%"></stop>
    </linearGradient>
    <linearGradient id="16282281824-posters-1720558170904-horizontal-regular" gradientUnits="userSpaceOnUse" x1="0"
      x2="100%" y1="0" y2="0">
      <stop stop-color="#968769" offset="0%"></stop>
      <stop stop-color="#968369" offset="15%"></stop>
      <stop stop-color="#968369" offset="30%"></stop>
      <stop stop-color="#968369" offset="45%"></stop>
      <stop stop-color="#968369" offset="60%"></stop>
      <stop stop-color="#968369" offset="75%"></stop>
      <stop stop-color="#968369" offset="90%"></stop>
    </linearGradient>
    <linearGradient id="16282281824-posters-1720558170904-horizontal-medium" gradientUnits="userSpaceOnUse" x1="0"
      x2="100%" y1="0" y2="0">
      <stop stop-color="#5d5441" offset="0%"></stop>
      <stop stop-color="#5d5141" offset="15%"></stop>
      <stop stop-color="#5d5141" offset="30%"></stop>
      <stop stop-color="#5d5141" offset="45%"></stop>
      <stop stop-color="#5d5141" offset="60%"></stop>
      <stop stop-color="#5d5141" offset="75%"></stop>
      <stop stop-color="#5d5141" offset="90%"></stop>
    </linearGradient>
    <linearGradient id="16282281824-posters-1720558170904-horizontal-bold" gradientUnits="userSpaceOnUse" x1="0"
      x2="100%" y1="0" y2="0">
      <stop stop-color="#2f2e2d" offset="0%"></stop>
      <stop stop-color="#2f2e2d" offset="15%"></stop>
      <stop stop-color="#2f2e2d" offset="30%"></stop>
      <stop stop-color="#2f2e2d" offset="45%"></stop>
      <stop stop-color="#2f2e2d" offset="60%"></stop>
      <stop stop-color="#2f2e2d" offset="75%"></stop>
      <stop stop-color="#2f2e2d" offset="90%"></stop>
    </linearGradient>
  </g>
  <g class="masks">
    <mask id="16282281824-posters-1720558170904-pattern-mask" maskUnits="userSpaceOnUse"
      maskContentUnits="userSpaceOnUse">
      <pattern id="pattern" x="0" y="0" width=".0133" height=".0144" viewBox="0 0 23.07 40">
        <path
          d="M17.62 0l-6.07 10.5m2.74 4.76L8.22 4.75m-5.48 0h12.13M.01 0h23.07M6.07 20L0 9.5m2.74-4.75l-6.07 10.5m-5.48 0H3.33m8.2 4.75L0 .02-11.54 20m40.68 0L23.07 9.5m2.74-4.75l-6.06 10.5m-5.49 0H26.4M34.6 20L23.08.02 11.53 20m-5.46 0L0 30.51m2.74 4.75l-6.07-10.5m-5.48 0H3.33m8.2-4.75L0 40l-11.54-19.98zM17.6 40l-6.06-10.5m2.74-4.76L8.2 35.25m-5.48 0h12.13M0 40h23.07L11.54 20.01m17.6 0l-6.07 10.5m2.74 4.75l-6.06-10.5m-5.49 0H26.4M11.53 20h23.08L23.07 40"
          stroke-linecap="round" stroke-width="3.5" stroke="white"
          fill="url(#16282281824-posters-1720558170904-horizontal-background)"></path>
      </pattern>
      <rect width="100%" height="100%" fill="url(#pattern)"></rect>
    </mask>
    <mask id="16282281824-posters-1720558170904-horizontal-mask" maskUnits="userSpaceOnUse"
      maskContentUnits="userSpaceOnUse">
      <rect width="100%" height="100%" fill="url(#16282281824-posters-1720558170904-horizontal-background)"></rect>
    </mask>
    <mask id="16282281824-posters-1720558170904-radial-mask" maskUnits="userSpaceOnUse"
      maskContentUnits="userSpaceOnUse">
      <rect width="100%" height="100%" fill="url(#16282281824-posters-1720558170904-radial-background)"></rect>
    </mask>
    <mask id="16282281824-posters-1720558170904-vertical-mask" maskUnits="userSpaceOnUse"
      maskContentUnits="userSpaceOnUse">
      <rect width="100%" height="100%" fill="url(#16282281824-posters-1720558170904-vertical-background)"></rect>
    </mask>
  </g>
  <use href="#16282281824-posters-1720558170904-pattern-render"></use>
  <g>
    <use href="#16282281824-posters-1720558170904-background"></use>
    <use href="#16282281824-posters-1720558170904-light"></use>
    <use href="#16282281824-posters-1720558170904-regular"></use>
    <use href="#16282281824-posters-1720558170904-medium"></use>
    <use href="#16282281824-posters-1720558170904-bold"></use>
  </g>
  <g itemprop="animation">
    <animate href="#16282281824-posters-1720558170904-light" attributeName="stroke-opacity" repeatCount="indefinite"
      dur="5s" values="0.9;0.0;0.9"></animate>
    <animate href="#16282281824-posters-1720558170904-regular" attributeName="stroke-opacity" repeatCount="indefinite"
      dur="4s" values="0.9;0;0.9"></animate>
    <animate href="#16282281824-posters-1720558170904-medium" attributeName="stroke-opacity" repeatCount="indefinite"
      dur="5s" values="0.9;0;0.9"></animate>
    <animate href="#16282281824-posters-1720558170904-bold" attributeName="stroke-opacity" repeatCount="indefinite"
      dur="3s" values="0.9;0;0.9"></animate>
    <animate href="#16282281824-posters-1720558170904-regular" attributeName="fill-opacity" repeatCount="indefinite"
      dur="8s" values="0.9;0.75;0.95;0.8;0.9;"></animate>
    <animate href="#16282281824-posters-1720558170904-radial-background" attributeName="cx" repeatCount="indefinite"
      dur="34s" values="0%;33%;100%;0%;100%;0%;"></animate>
    <animate href="#16282281824-posters-1720558170904-radial-background" attributeName="cy" repeatCount="indefinite"
      dur="55s" values="0%;100%;33%;100%;66%;0%"></animate>
    <animate href="#16282281824-posters-1720558170904-vertical-light" attributeName="x1" repeatCount="indefinite"
      dur="55s" values="0%;33%;100%;0%;133%;0%;"></animate>
    <animate href="#16282281824-posters-1720558170904-vertical-light" attributeName="y1" repeatCount="indefinite"
      dur="86s" values="0%;100%;33%;100%;66%;0%"></animate>
    <animate href="#16282281824-posters-1720558170904-horizontal-regular" attributeName="x1" repeatCount="indefinite"
      dur="34s" values="0%;100%;66%;0%;33%;133%;0%"></animate>
    <animate href="#16282281824-posters-1720558170904-horizontal-regular" attributeName="y1" repeatCount="indefinite"
      dur="55s" values="0%;66%;100%;33%;100%;66%;0%"></animate>
    <animate href="#16282281824-posters-1720558170904-vertical-medium" attributeName="x1" repeatCount="indefinite"
      dur="34s" values="0%;100%;66%;0%;33%;133%;0%"></animate>
    <animate href="#16282281824-posters-1720558170904-vertical-medium" attributeName="y1" repeatCount="indefinite"
      dur="55s" values="0%;66%;100%;33%;100%;66%;0%"></animate>
    <animate href="#16282281824-posters-1720558170904-vertical-bold" attributeName="x1" repeatCount="indefinite"
      dur="34s" values="0%;100%;66%;0%;33%;133%;0%"></animate>
    <animate href="#16282281824-posters-1720558170904-vertical-bold" attributeName="y1" repeatCount="indefinite"
      dur="55s" values="0%;66%;100%;33%;100%;66%;0%"></animate>
  </g>
</svg>
