<svg id="16282281824-posters-1720553677482" itemscope="" itemtype="/posters"
  itemid="/+16282281824/posters/1720553677482" viewBox="0 0 769 512" preserveAspectRatio="xMidYMid meet" tabindex="0"
  class="animate landscape" xmlns="http://www.w3.org/2000/svg">
  <!---->
  <defs class="graphic">
    <pattern id="16282281824-posters-1720553677482-pattern" width="769" height="512" viewBox="0 0 769 512"
      patternUnits="userSpaceOnUse" preserveAspectRatio="xMidYMid meet">
      <rect itemprop="background" width="769" height="512" tabindex="-1"
        id="16282281824-posters-1720553677482-background" fill-opacity="1"
        fill="url(#16282281824-posters-1720553677482-radial-background)"></rect>
      <!---->
      <path id="16282281824-posters-1720553677482-light"
        d="M182 10q1 12 3 12 8 5 6-17l-1-5h-10zm33-8q1 8 6 9 3 0 4-7V0h-5q-6 0-5 2m204-1q-6 1-6 5l-1 5q-2 3 1 5l2 3-4 8q-8 14-3 17 3 2 8-9l5-9 1-2 2 2q8 6 9-5 0-5 3-1 8 3 8-4c-2-7-19-17-25-15m111 1c0 5 5 7 7 4q5-6-2-6-5 0-5 2m91 0q-1 3 7 2 6-1 3 5-2 5 5 5l4-1 2 7c4 14 4 19-2 23q-3 3-5 0-3-2-6 1l-2 1 2 2 5 2q3-1 5 2c2 2 9 3 11 1l4-2c5 0 7-7 3-11q-3-5-4-11l-1-2-1-7-3-8 3 1q3 4 5 1 4-3-2-11c-2-3-33-3-33 0m76 2q-3 11 7 5l3-2 2 3q3 5 6 22 1 9 6 8c3-1 3-4 1-18q-3-18 0-13c4 4 9-1 5-6-2-2-2-3-15-3h-13zm-85 1-7 1q-8 1-4 7v6q-3 10 4 7l4-4q2-1 3 16 1 14 5 13 6 0 4-13l-3-20q1-3 4-1 5 4 6-3c0-5-11-11-16-9m-347 5 2 4q3 3 1 9-1 11 5 10c4 0 4 0 5 12 3 15 3 14 6 14q4 1 4-3c0-3-1-18-3-25q-1-4 3-3c4-1 5-12 2-15-3-2-3-2-10-2l-5-1zm209 1q-2 5 2 7 4 0 0 5-7 12 4 8l3-2v6l-2 12q0 11 4 11 4 1 6-12c2-18 3-20 5-15q3 5 8 3 3-3-1-8l-2-4c9-4 5-11-6-11l-7-1c-2-2-12-1-14 1M0 20v10l4 1q6 3 7 0c1-2-1-8-3-8q-3-1 1-6 4-6-5-7H0zm359-8-3 1-9 1q-8 0-7 3l1 4q2 2-1 5c-3 5 2 9 6 5q4-3 6 3l6 21a5 5 0 0 0 7 1c2-3 2-3-1-11q-6-15-1-15 5-1 3-6-2-3 1-3l3-1c4-5-4-11-11-8m214 2-6 1c-9-2-19 12-11 15l2 1v12c-1 14-1 16 3 16 4-1 5-2 6-16q0-15 3-11l2 3c1 2 12 2 14 0v-9l-2-7q-1-9-11-5m-338 1c-3 2 0 7 3 7q3 0 1 5c-2 3-3 11-1 12q4 1 7-4 3-7 2 15c-1 17-1 19 3 18s5-6 6-23c0-14 0-14 3-15 3-2 3-2 2-10l-2-5zM86 20l-2 5-2 7-2 6q-1 5 4 4h3v8q0 13 4 12 5 1 5-14v-7l4 1q5 1 6-3 0-3 2-3 4-1 5-5-2-7-14-11l-4-1c-1-2-8-1-9 1m60 2h-6c-7-3-15 4-9 8l2 2-3 3c-7 7-3 14 4 8q7-5 7 4l3 18q1 3 5 2c2-1 2-2 1-15 0-14 0-14 4-11 5 4 8-1 5-7q-2-4-1-7c1-5-6-9-12-5m617-1-2 1-8 1c-9 0-14 5-7 8l3 1-2 4q-3 10 6 5 4-6 4 9 2 17 7 17t3-8c-2-8-2-23-1-23q3-1 3 12v10l1-9q2-33-7-28M44 43q-2 3-9 3-9 1-5 6 3 2 0 6-4 4-2 7 1 4 7-1 5-4 5 3c1 20 1 23 4 23q6 1 5-16V62l3 2c8 6 9-5 2-11q-3-2 0-5c3-6-3-9-10-5m579 10-5 3-6 6-2 3 2 3q3 3 5 1t5 2 5 3q4-3 7 9 4 15 9 8c2-2-3-20-6-22q-2-3 1-5 5-4-3-8l-5-3zm-434 4h-8q-10 1-8 6 3 3 1 7-4 8 2 9l4-1q3-5 3 4c-2 13-2 14 0 15q5 5 9-9 1-7 4-6 6-2 2-12-3-4-1-5l3-2c4-4-5-10-11-6m543 3q-4 3-8 3-11 2-6 8l3 2-3 5-3 6c0 4 6 5 8 2q2-3 5 0 5 2 6-3c0-5 3 4 4 11q1 13 4 14 8 1 5-18c-2-8-2-8 0-10q4-6-2-12-2-2-1-4 0-8-12-4m-295 5q-3 2 0 6v3c-2 1-5 7-4 9 1 1 6 2 7 0l2-1q3-1 2 7 1 15 6 16 4 1 4-12v-9l2 2c5 5 10-1 7-8q-3-5-1-5 1 1 3-2 2-2-1-5c-4-3-23-4-27-1m236 6-9 1c-6 0-11 5-7 8q2 1-1 6 0 5 7 4c4 0 3-2 3 14q1 20 8 12c2-2 2-4 2-15s0-12 2-11c5 3 9-2 5-7q-2-2 1-4c6-6-2-12-11-8m-127 6-8 7c-6 4-4 11 2 9q4-1 3 3-2 6 4 6 3 0 4-3c2-3 4 3 4 9q0 7 2 9c6 6 10-2 7-16-2-10-2-11 1-13q5-4-1-9l-6-4q-3-7-12 2m-143 5-6 4c-6 1-11 8-9 13s12 11 15 8q2-4 3 6 4 16 9 9c2-2 1-12-1-19q-2-5 1-3 5 0 6-4l-4-5q-5-5-3-7c3-7-5-8-11-2M19 83l-8 1C1 84 0 86 0 99c0 11 0 11 2 11q3 0 3-3l1-1q1 4 7 5 5 0 8 11 1 11 5 12 5 0 5-5l-5-19q-3-5 0-6l3-1v-9q-2-1-3-7t-7-4m77 1q-6 2-7 8 2 5 6 3l3-1h2l-2 2q-5 4-4 9 2 3 6 1 4-7 1 19 0 11 5 11t5-8l1-15q2-13 3-9 9 4 6-11c-2-8-2-8-9-8h-8q-4-3-8-1m249 2q-17 8-11 15 1 3 4 3l2 2a4 4 0 0 0 8-1c0-5 4 3 6 12q3 20 10 13c1-2 1-11-1-13q-3-4 0-10c2-3 2-15 0-18q-4-10-18-3m153-1-6 1c-9 0-16 7-11 12l2 3q0 4 6 4l3 1 4 21q4 3 7-1 2-3-1-18 0-4 2-6 3-1 3-4l2-4q4-6-5-8l-4-1zm-224 9q-6 4-2 7l2 5q1 3 5 4 2 0-1 21 0 8 5 9c3 0 4-2 7-20q1-8 3-5 5 3 6-5v-5l2 1q6 2 4-6-2-7-12-6l-6-1c-2-2-10-1-13 1m-56 0c-6 2-6 10 0 10q2 0-1 3c-6 11-1 20 6 10 3-5 4-5 6 11q1 10 5 10 5 2 4-13-2-12 1-10l4-4 3-4q5-3-1-9-2-3-11-3l-11-1zm-56 10-4 1-6 1q-14 1-8 9 3 2 1 5-2 11 6 7 4-4 4 1l1 6 1 8q2 11 8 7c2-2 3-9 1-11l-1-9-1-8 4-1q4-2 3-4l-2-6q-1-7-7-6m440 2c-7 1-9 9-4 13l3 3v13l1 13h2q4 0 6-13 0-8 3-7l3-2h3q4 4 7-2 1-6-4-11l-15-7zm162 17c-5 2-4 7 1 7h4v-4q1-7-5-3M60 136l-3 4q0 3-5 3c-8 2-15 8-13 12q2 4 7 1 4-1 1 2c-2 1-1 7 1 8q4 3 8-4 0-3 2-3c2 0 5 8 5 13q2 14 9 8c1-2 1-2-1-12-3-14-3-16 1-15 7 1 7-9-1-10l-4-3q-2-6-7-4m367 5-11 2c-9 0-16 8-9 11q2 1 2 5t7 4c1 0 2 0 2 11q1 20 8 16c2 0 2 0 2-16q-1-18 4-11 3 4 6 0 4-3-2-10-5-4 0-5 8-3-1-9c-4-1-3-1-8 2m191-1q-4 4 1 6 4 2 1 4c-4 3 5 15 9 13q4-3 6 13 1 9 7 8 4-1 1-10-3-12 2-13l2-4 1-3 1 1 2 1q3 0 2 3c0 2 2 8 4 8q3 0 5-4l2-1q4 0 5 4l1 3 2 8q2 11 5 11 9-1 2-21-5-11 1-7c4 2 7-4 3-7v-2q3-4-2-8-6-4-13 0-11 7-19 1-5-3-10-3l-9-1q-8-4-12 0m-297 8q-3 3-8 3c-8 1-14 8-13 13l4 1q4 0 1 4v8q3 3 7-3 3-6 5-6c2 0 3 8 4 16q0 15 4 15 4 1 5-2c1-4 0-18-1-21q-2-7 2-6 6-1 2-9-2-3-2-9-1-10-10-4m388 0q-7 5-1 9 3 0-1 4-6 8 4 7l3-2q5-5 6 15 2 18 8 11 3-3 0-25v-5l3 2c7 6 12 2 7-6q-3-4-1-6c3-5-6-9-12-4h-6q-6-3-10 0m-473 4q-3 2-4 5l-5 4c-7 2-14 10-11 13q3 4 6 1 2-3 2 2 1 6 5 7 3-1 5-5 1-5 4 5l1 5 3 13q1 16 6 14c4-2 4-15 1-27-3-7-5-20-5-21l4 1q5 3 6-2 1-4-6-8-5-2-3-4c1-5-5-7-9-3m131-1q-2 2-1 7 2 2-1 3-6 3-7 8 1 5 6 3 6-6 5 6l-1 12q-1 8 4 9 6 2 7-18 0-14 3-10c6 6 11 0 6-7q-3-4 0-5v-5c-1-3-8-6-10-3zm142 1-9 1q-11 1-11 7t6 4 1 7q-1 13 8 7l2-3 1 2c2 3 4 9 3 10-1 2 3 7 6 7q5-2 2-15l-2-11 4 2c7 4 9-1 3-7q-4-4-2-6 2-11-12-5m46 1q-7 2-6 7v6c-1 1 2 6 4 6v3q-5 18 1 18 4 0 7-9 2-6 5-5 7 0 7-5l1-2h1q1 2 5 1 2-1 2-5c0-10-16-18-27-15M7 171q-3 2-5 1c-3 0-3 18 0 20l1 13c0 11 0 12 2 14q4 4 6 0c2-2 3-23 0-29 0-2 0-3 8 0 5 1 5-7-1-10q-2-1-2-5 0-9-9-4m163 0h-3q-5-1-6 4l-2 3-4 4c-5 8 1 11 7 5q6-4 3 2c-4 8-5 11-7 23l-2 9q-1 6 2 10 6 7 8-11 4-27 9-26 3 3 6 0h4q3 3 6 0c4-4 0-13-8-18l-5-5q-4-4-8 0m-94 0-1 5q2 3-1 4l-2 5v6q-3 9 9 4 5-1 0 14-3 11 5 7c4-2 5-7 6-25q1-3 3 2c3 7 9 6 9-1l1-8q0-8-9-10l-9-2q-8-3-11-1m500 37q-11 7-2 14l5 3q2-1-1 10c-3 13 0 25 5 19l2-6 2-9 1-8q1-6 3-7l3 5c4 9 10 3 7-8v1l2 4 3 2q6-1 2-12c-4-6-5-7-13-8l-11-1q-5-2-8 1m74 4-5 2h-4q-8 3-9 14v10q-2 3 1 4 4 4 7-6 7-14 5-2c-2 5-1 24 0 26 4 5 9-1 7-10l1-14q3-13 5-5 4 9 8 5c2-3 0-11-3-14q-3-1-1-5 0-11-12-5m50 1-9 5c-13 6-16 21-4 21q4 0 6-4l3-4c2 1 6 17 6 24q0 13 7 10c2 0 3-13 0-18l-1-7-1-7q-3-7 0-4 6 5 10-6c3-10-9-17-17-10m58-1q-9 3-4 10l1 6q2 10 8 0 3-8 4 7 2 18 2-7v-16zm-644 6q-3 2-6 1c-7-3-16 9-9 11q2 2 1 3-3 11 5 9l3-1v7q-1 18 5 20 6 1 5-12v-12l1-4 3 4c5 8 12 3 7-5q-3-6 1-6c6 0 5-7-1-11l-4-5q-2-5-11 1m398 7q-6 3-4 8l1 8c0 2 5 1 7-1 4-4 4-3 5 13 0 12 1 14 4 14q6 1 5-13 0-10 2-9 3 0 2-7-1-6 1-7 2-7-5-7l-13 1zm-62 1-10 3q-4 6 2 7 7-1 2 4c-3 2-3 4-5 15l1 6 1 3q0 5 5 1a4 4 0 0 0-1-8l1-1 4-8q0-3 3-5l2-2v2c-2 9 8 8 10-1q1-6 2-2c3 7 9 4 7-3-3-10-8-12-24-11m-404 3-3 2h-8c-8-3-12 5-5 12q3 2 2 4a4 4 0 0 0 9 3l2-2 2 2 4 7q3 11 9 8c3-1 0-16-6-22l-2-3 3-1q10-1 4-9-5-4-11-1m290 2-9 3c-8 3-10 11-2 10h4l-1 5 1 7q2 4 6 1 2-3 2 4l3 14q2 8 6 5 3-1 1-12l-2-23 4 2q9 4 8-6-1-9-10-10l-6-2zm50 1-5 1h-11q-3 3 1 7l2 5q0 4 5 6 8 1 9 11 0 11 5 11t3-13c-1-11-1-11 1-11q8 0 3-8l-3-5q2-2-3-5-1-2-7 1m-111 10-2 3-1 5-2 9c-1 7-1 7 2 9 3 3 3 3 3 10q-3 20 4 16 3 0 3-3l1-8 2-8c0-12 0-13 2-13l2 1q2 5 6 4 4-2 2-8-4-6 1-5 8 1 6-4-2-6-13-6l-6-2q-5-3-10 0m-60 1-4 2h-4q-15-4-7 6l2 3-3 3q-6 9 1 11l4 2 4 1q3-1 4 9 2 16 9 12c1-2 2-18 0-25l-2-5 3-2q5-1 3-6l2-3q3-1 1-4-2-7-13-4m523 21a14 14 0 0 0-3 17q3 11 9 2l3-5-1 16c0 18 0 20 4 20q3 2 4-13l2-12h6l4-1q4 0 3-7 1-7-2-6t-1-2q4-4-1-8c-3-2-24-2-27-1m-253 5-6 3q-10 1-10 6l1 9q0 10 5 8 4-4 3 5 0 26 8 18c2-2 2-3 2-14 0-13 0-13 3-16l4-3c2 0 3-5 2-7q-3-3 0-4 1-5-1-6-5-3-11 1m126 7-6 2c-6 0-13 6-9 8l1 6c0 4 0 4 3 8q6 5 8 1c2-2 3-1 3 11q2 13 7 9c2-2 2-20 0-25q-2-6 1-11 3-1 1-3l-1-3q-1-4-5-6zm-445 0-9 1q-13 0-8 7v5q-1 7 3 8h3l-1 11c0 12 0 14 5 14q4 1 6-16v-9h3q6 0 7-6 0-3 2-3 3-1 2-6-4-8-13-6m461 1q-2 2-2 5v3q-2 4 1 6 2 3 4 1 3-2 1 3c-2 5-3 21 0 24q5 5 5-5c0-12 4-22 8-19q1 3 7 1 11-1 5-9l-3-5-2-4c-2-3-21-4-24-1m-593 7q-21 3-16 11l3 4q2 5 6 4 4-2 1 9-3 12-1 18 8 10 9-7 0-16 6-15 7 0 5-10-1-4 1-6l2-4q-1-4-6-5zm653 2c-9 7-6 17 3 12q3-1 4 4c-2 5-1 28 0 29q7 6 7-7l1-14q-1-3 2-3l4-1 3-1q7 1 6-5a20 20 0 0 0-16-13q-9-6-14-1m-631 1-1 5-1 3-3 2c-4 5-1 12 3 9q5-2 2 1l-1 3-1 4-6 18c2 5 11 1 11-6l3-8 3-8 1-2 1 1 2 4q5 3 6-4l2-5c3-2-1-9-5-9l-3-4q-7-8-13-4m469 0-5 2q-6 0-7 9-2 8 5 11l5 2v9c1 11 2 13 4 14q6 3 4-16v-13h3q8-1 4-7l-2-3 2-1q3-3-1-6-6-3-12-1m-129 1-6 1q-18 3-8 15 5 4 4 10c0 17 0 19 5 19q5-1 2-9v-6l2-8q1-7 3-5c3 0 11-3 12-6 3-5-9-14-14-11m28 8q-13 4-11 9v5q0 4 4 7c3 2 3 2 3 11s0 9 3 10q5 2 5-10 0-20 3-20l4-2h3q6 1 5-5l-8-7h-2q-2-1-9 2m-299-1-1 3-3 4q-10 6-3 9l2 6q0 6 4 6 4 2 1 12-2 4 1 6c4 7 9 0 10-11q0-11 4-10 7 2 4-9-2-3 1-4c4-3 1-9-5-9l-7-2q-6-3-8-1m221 2-6 4-8 1-9 2q-5 8 4 8 3-2 2 3-3 11 0 13 6 5 7-3 1-7 4-7l3 12 6 13c0 4 6 6 8 3q1-3-2-9-3-4-5-12l-1-7q-3-7 5-2c8 6 11 0 4-8q-6-5-4-6 4-3 0-6-3-2-8 1m-108 12-6 5-11 7q-1 3-9 2-14-2-17 9-1 3 1 5l2 4q1 5 7 6 3-2 2 6c2 14 2 16 5 18q2 2 4-1c2-1 2-2 2-15 0-14 0-15 3-12 4 3 9-4 5-7q-3-3 2-7 4-5 4-2-1 6 4 8 4 0 4 5l2 6 1 5q1 8 5 9 7-1 1-24-2-8 1-8l3-2 3-2q4 0 4-4c0-2-5-8-7-8l-3-3q-4-6-12 0m327-1-7 2q-18 3-13 8 3 2 1 5c-3 9 3 15 7 6q5-12 2 13 0 13 5 12 4 2 5-15 0-18 3-13h4q4-1 0-8l-2-6q2-4-1-5-3-2-4 1m179 24-4 3h-6c-9-1-16 6-11 10q5 5 2 8c-2 1 1 6 4 6l4-4q5-12 3 8-1 18 4 16c3 0 3-1 5-16 1-15 1-16 5-12l4 2c4 0 3-7-2-11q-3-2-1-3 4-4-1-7zm-75 6q-4 2-7 1-8-1-15 6l-6 4-5 1-6 2q-9 2-4 6 3 2 1 7-1 10 6 5 4-6 4 10 1 17 6 10 2-1 2-15v-13h5q7 1 12-8 3-10 6 8c3 19 4 23 6 24q5 3 5-4-1-5 3-5 4-1 3-7-2-5-5-2t-3-4l-2-8q-1-6 3-1 5 4 8 3 3-3-3-10l-2-4q3-4-1-8-3-3-11 2m-223 8-3 3-3 4q-3 3-1 5v6l-1 6-3 9q-2 11 4 9c2 0 6-8 6-10l4-11 2 2q6 7 8-5v-3l2 3q3 3 6 1c6-4 0-15-8-15l-4-2q-4-3-9-2m55 8q-5 3-4 8 0 2 9-1 6 0-1 5-8 6-6 11 2 4 7 0l4-3-1 4-1 6c-3 8 0 19 4 17q4-1 4-8l1-9 2-7q0-7 5-3c6 6 10 1 6-7q0-3 2-2 5-1 3-5c-3-4-4-4-11-3-7 0-7 0-10-2q-6-5-13-1m-473 3q-2 2-10 1c-9 0-15 4-10 9v5q-4 6 0 7c3 1 2 1 6-2q7-6 6 2c-2 9-2 12-1 17q1 6 4 7 6 3 5-10l2-19 4 1q10 2 3-7l-2-3 2-2c6-5-1-11-9-6m357 0q-3 3-7 3-12 0-7 12 2 6 8 3 3-1 5 12 1 21 8 16a15 15 0 0 0-1-16v-7q-2-6 1-4 7-1 4-8l-2-3h2q10 2 3-7-6-6-14-1m213 1-7 2a9 9 0 0 0-8 14q4 1 2 7c-2 9-1 21 1 23q5 3 5-5c0-5 3-18 4-19h2a4 4 0 0 0 7 0h2c2 4 7 2 7-2q-1-5-6-11l-3-2 2-2q4-3 0-6-3-3-8 1m-310 3-4 1-5 1c-7-2-8-2-11 0q-4 2-2 5v10l1 7h3q3 1 4-2c3-6 4 6 1 19-2 11-2 11-1 13q5 4 9-4l4-30q0-5 2-3l4 1q4 1 3-4l1-5q4-3 0-8-3-3-9-1m-172 4q-3 3 0 5 2 2-1 5c-4 3-5 10-3 12q3 1 2 13c0 12 1 14 5 14q4 1 5-17 1-16 4-10 3 5 8-2 10-11-1-16l-7-4q-8-4-12 0m201 0q-3 3-1 7 2 2-1 4c-6 4-3 10 3 8l3-1v6l-2 7c-2 3-5 14-5 16 3 10 14-6 15-21q0-8 4-5c5 5 9 0 6-6q-3-5 0-3l1 2q1 3 5 0c6-4-1-12-11-13l-8-1zm-156 3q-2 4 1 6t-3 7-3 10q3 4 8-2 7-11 6 10 1 19 6 18c4 0 4-2 5-25v-7l3 2c6 5 10-2 5-8l-2-6-1-5c-2-1-9-2-9 0l-4 1-3-1zm-87 21q-3 3-9 3-8-1-8 9 0 12 7 9 3-3 3 11 1 15 8 18 6 1 3-12-4-20 2-15c6 5 9-5 5-11q-5-5-1-8v-6q-4-3-10 2m143 17-8 1c-7 0-11 6-7 10v1a5 5 0 0 0 8 8l-2 15q-1 9 6 8c2-2 5-10 5-14q0-11 5-10t4-3l-2-6q-3-1 1-3c8-5-1-12-10-7m125 1-6 5c-1 2 0 7 2 7l1 4q-2 6 4 7 3 1 1 3c-1 5 0 22 2 24q6 8 7-13 1-27 6-20 6 11 8-6c0-10-1-11-6-11l-7-1q-6-4-12 1m417 0-7 2q-9 2-8 8v5q-2 8 4 9l4 2q3 3 6-1 2-3 2 1l1 5v8q-1 6 2 8l2 2 2-2c2-2 3-15 1-24v-6c1-2 1-8-1-10v-5q1-8-8-2m-294 3-2 5c-2 10-2 10 0 11h4c2-1 2 0 2 12q0 15 2 16 5 6 6-8l1-13q2-12 4-6 5 3 6-5 0-4 3-7l2-2-2-2c-3-3-22-3-26-1m191 6q-11 1-13 11c-1 6 5 8 7 2q3-5 2 1l-4 11c-2 2-3 17-1 20q4 5 6-3l2-9q2-12 4-7 4 4 6 0l4-4q7-4 1-16c-4-7-4-7-14-6m28 0-7 12 3 4 2 6q1 6 6 6c2 0 2 0 2 9q0 16 4 17 7 3 4-24c-1-4 0-15 1-15l4 3q4 5 7 1c2-1-1-7-4-8q-2-3 0-5 3-1-1-5c-2-2-18-3-21-1m-108 4-7 6q-8 4-9 9 0 5 4 6l3 2q1 4 4 5c2 0 5-5 5-7q1-5 3-3c1 1 2 2 4 16 3 11 3 12 6 13 5 0 6-1 2-21q-3-9-1-12 2-4-2-6l-4-5q-1-7-8-3m-148 6-7 5c-8 4-10 19-2 17l3 2q3 6 6 0l2-3 2 7 2 10q1 10 6 8c2 0 3-12 1-18l-3-12v-1c0 2 5 1 6 0q3-4-5-12c-7-7-7-7-11-3m-386 4-8 3q-9 1-6 7v6q0 7 3 8l3 3c2 4 8 5 8 2l1-1 1 3c0 4 2 14 4 16q3 3 6-2c2-5 1-10-3-27q-2-2 1-1c5 1 6-7 1-11q-4 0-2-4c3-5-5-7-9-2m481 0-7 3q-7 1-9 6c0 5 9 14 10 10 2-4 4 5 4 16q0 10 5 7 3-1 2-14c0-8 0-8 2-8q5-2 2-9-2-2 1-4c6-4-3-10-10-7m-398 2q-4 4 1 6 3 1 0 5-4 7 1 10c2 1 2 2 2 13q-1 18 6 17 4 1 4-15-1-16 2-19l3 1q6 4 6-9 1-11-8-9l-11-2q-5-1-6 2m259 0c-3 2-5 15-2 15 5 2 5 1 4 13q-2 17 2 16 5 3 5-12c1-11 1-11 5-10q6 0 6-6 0-3 1-2l3-2c4-3-3-11-10-12-10-2-11-2-14 0m-79 7q-13 3-11 10l2 2 4 3 4 2c2 0 2 0 2 11q0 13 2 16c3 9 10 7 8-1-2-11 0-25 4-25l4-3 5-3q3 0 2-4t-8-5l-6-1q-7-3-12-2m-40 2-9 1q-17 0-12 16 0 4 5 3c6 0 6 1 6 13q0 17 6 13c3-2 4-5 3-17 0-10 0-11 2-11q4 1 5-2l2-3q7-3 3-8-6-8-11-5m-75 6-8 4-8 4q-9 2-10 9 0 4 5 4 4 0 3 2 1 7 7 4l2-3 1-1c1 0 4 11 5 19q1 9 6 8c4-1 4-14 1-25q-3-6 1-3 7 2 5-5v-5c3 0 4-5 2-7q-6-6-12-5M87 487l-6 3q-6 1-10 4-5 6 2 8 3 0 2 3 1 9 8 2 5-7 7 1 1 5 6 4h4l-1-5q-2-10 3-7l5-1-3-7-7-5q-6-6-10 0m559-1q-10 1-5 12l1 5q3 6 11 5 2-1 3 2c2 4 8 3 8-1q0-4 1-2c3 2 8-1 6-4l2-2c4-3-1-10-8-12l-13-3zm-190 2c-4 2-4 2-12 0l-7-1-3 2q-5 7 3 8l5 1-3 2q-8 7 0 10l2 1 5 1q5 1 5-2 2-8 7-3c6 6 10 1 5-6q-4-5 1-7c5-1 3-6-2-7q-3-1-6 1m-104 5-5 4q-3 4-8 4c-3 0-10 5-11 8l-1 3h17c19 0 19 0 14-7q-6-7 2-6 7-3 1-7-4-3-9 1m51 3-9 2q-11 1-11 9l-1 3q-6 3 16 2h16l-3-4-3-3 3-2c8-4 0-10-8-7m296 1-6 4q-3 3-7 3-6 0-9 6l-2 2h18q29 1 10-5-4-2 3-5l4-2c1-4-7-6-11-3m-164 0-3 3-7 1q-10 1-13 6 0 4 8 3 3-2 4 1c0 2 24 2 24 0l-1-2-3-2q-3-2-1-3 4-4-1-7zm-274 3-3 5-5 3c-8 4-5 4 22 4 24 0 26 0 25-2l-5-1q-26 1-26-7-1-8-8-2m316 1q-5 2-8 8v3h17l18-1q-1-5-5-8c-3-2-19-4-22-2m158 2q-4 2-2 6v3h15l14-1 2-1q7-3 1-7-7-3-13-1-3 3-7 0-6-3-10 1"
        mask="url(#16282281824-posters-1720553677482-horizontal-mask)" itemprop="light" fill-opacity="0.90"
        fill-rule="evenodd" stroke="none" fill="url(#16282281824-posters-1720553677482-vertical-light)"></path>
      <!---->
      <path id="16282281824-posters-1720553677482-regular"
        d="m182 3 1 10q0 8 2 8 8 3 5-16 0-5-5-5-5-1-3 3m34 1c2 9 8 8 8-1q1-4-4-3h-4zm315-2c0 6 5 6 7 1l1-3h-4q-5 0-4 2m90-1q0 3 8 2h3v4q-1 7 4 6t7 8c4 16 4 17-2 22q-4 4-6 2-3-3-6-1-2 4 5 4 4 0 6 3 5 4 9 1l3-2q6-1 7-7l-2-4q-3-1-6-15c-4-15-4-16-1-13 6 5 10-2 4-8l-3-3h-15zm78 1q-7 12 4 7l4-2 2 3q3 3 3 5l5 22c0 3 5 3 5 0 1-2 0-12-1-13l-1-14 1-2q12 2 5-6c-4-3-25-3-27 0M417 2q-3 2-3 5l-1 3q-2 3 1 7c2 1 2 1-3 10q-7 15-3 16 3 2 8-9c6-11 6-11 9-8q7 4 8-7 0-4 3 0 4 3 7-2c1-7-19-18-26-15m190 4q-11 1-5 7 2 2-1 6-3 10 5 5l4-2 3 20q1 9 4 8 5 1 3-17l-2-15 5-1q6 1 5-3c-1-5-11-9-21-8m-341 4 2 5q2 2 1 9-1 9 5 8 5 3 6 19 0 10 5 7 3-2 1-23c-1-8-1-8 1-8q4 2 4-7 1-10-11-9l-7-1zm211 0q-4 4 0 7 5-1 0 6-7 11 3 6 5-4 3 10-2 17 1 17 5 6 6-12 2-15 4-16l3 3q1 3 4 3 6-1-1-12l2-2c7-2 1-10-7-9h-8q-7-3-10-1M0 19v9l3 2q11 5 5-7l-3-3 3-3q5-4-4-6H0zm359-6-10 1q-12 1-7 7v4c-4 4-1 9 4 6q5-5 8 8 3 17 8 18 4-1 3-8-7-19-3-19 5-1 3-6-2-4 2-4 7-1 1-6-3-4-9-1m214 1q-4 2-6 1c-8-2-18 12-11 15 2 1 3 1 3 14l1 14q5 2 5-6l3-20q1-5 4 1 1 4 4 3h5c4 2 6-5 4-12l-2-5q0-8-10-5m-338 2q-1 4 4 6v6q-3 8-1 10 4 2 7-3l2-2q3 3 0 23-2 11 2 12 6 2 7-27l1-11q5-2 4-5l-1-5c0-4-1-5-13-5-11-1-11-1-12 1M88 19q-3 2-3 5l-2 7-2 7q-1 4 3 4h4v9q0 10 2 10 4 4 5-10 1-16 4-10 4 3 6-3 0-3 3-3 4 0 4-6c-1-4-4-6-21-10zm58 3h-7c-8-1-12 5-7 8l2 2-3 3c-6 6-4 13 3 7q8-9 9 12 0 15 6 12c1-1 2-13 1-22q-1-8 3-4 9 6 5-6-2-4-1-7 0-8-11-5m615 1q-3 3-8 1c-7-2-12 3-6 6q4 2 0 6-1 9 5 5 5-6 5 6 2 18 7 19c3 0 3 1 1-17q-2-15 2-13 2-1 2 10V22q-2-2-8 1M45 44l-8 2q-9 0-6 5 2 4-1 7-4 11 5 5c4-4 6-1 6 17q1 11 5 9 3-1 2-18 0-13 4-7h6q1-5-5-11-3-2 0-5c3-5-3-9-8-4m577 11-5 2q-6 4-6 9 3 4 7 2 1-2 5 4l4 1c4 0 5 1 9 12q2 9 6 6c2-2-2-18-5-22q-3-4-1-5 4-1 3-4c-1-5-15-8-17-5m-434 3h-7q-10 0-7 6c2 3 2 3 0 8a4 4 0 1 0 5 5q7-6 4 9-2 12 2 11 2 1 6-8 1-7 4-7 5-2 3-9-3-9 0-9 3-2 1-6-5-3-11 0m545 3-6 2q-12 2-8 8l2 2-3 5q-5 14 4 8 3-4 6-1 3 2 5-1 4-7 5 10 2 13 5 13 4 0 4-10c-2-17-2-17-1-18q4-3 0-10-3-2-3-6 0-6-10-2m-296 4q-2 2 1 5 2 2-1 4-8 12 3 8 5-5 5 10 1 11 3 11 6 6 5-10 0-12 3-7c4 4 9-1 6-7q-3-7 0-6 5-2 1-6c-2-3-24-4-26-2m237 6-7 1q-13 1-9 8v4q-3 7 4 6c5-1 5-1 5 12q0 16 4 15 4 2 4-16 0-17 3-11c3 3 8-1 5-5q-2-5 1-6c2-1 1-6-1-7q-4-3-9-1m-126 6-8 7c-6 4-7 10 0 9l3-1v5q1 9 7 3l3-3c1 0 3 6 2 9-1 8 4 15 8 10V99c-1-9-1-9 1-11q4-4 0-7c-11-9-11-9-16-4m-145 5-6 4q-7 3-8 10-1 6 6 9 5 4 7 1 3-4 5 7t5 10q6 0 3-16-4-9 1-8 8-1 0-8-5-5-3-7c4-6-4-7-10-2M18 84l-7 1C2 85 1 86 0 99c0 10 0 10 2 10l3-2q-1-3 3 0 5 5 6 2c0-5 5 5 8 15q2 12 6 9c3-2 1-14-2-23q-3-7 0-7 6-1 2-9-3-3-3-7-3-7-7-3m331 2-8 2c-2 0-8 6-8 9q1 5 4 6l3 2q4 8 8 0 2-6 5 8c5 19 6 20 10 16l2-2-2-8c-2-8-2-9-1-12 2-3 2-15 0-18q-1-3-7-6zM94 85q-6 5-3 8 3 2 4 1 8-3 2 4-7 9 3 7h3v13c-1 12-1 14 1 16q5 5 7-9 0-27 5-22 1 3 4 0 3 0 0-10l-2-6-7-1-10-1zm399 1q-16 4-11 12l2 3q0 5 5 3c4 0 4 0 5 10q1 14 5 13 6 0 3-17-2-6 1-8l4-5 1-4q3-3-1-5-5-3-14-2m-219 8q-5 5-1 8l1 2q1 5 4 5c3 0 3 1 2 15-1 11-1 12 1 14q4 5 7-9c2-16 2-15 6-14q7 0 4-7l-1-3h3c6 2 7-4 2-8q-2-2-8-3l-9-1q-5-3-11 1m-57 1q-6 4 0 8l3 1-3 5c-5 9 0 15 6 7q4-7 5 2c3 18 3 19 7 19 1-1 2-2 2-11v-11l2-1 3-3 3-4q6-4-1-9c-4-3-22-5-27-3m-59 11-6 1c-6-2-11 4-7 8q3 1 1 4-4 12 5 7 5-6 6 9 2 19 8 12v-13c-2-13-2-15 2-15q5-1 2-5l-1-5q0-7-10-3m441 1c-4 3-4 10 0 12l3 3v11q-2 12 1 14 4 4 6-8c0-10 1-11 3-11l4-2q2-3 3-1c2 3 7 1 7-3 0-5-7-11-11-11l-5-2q-7-5-11-2m165 16q-7 5 2 7 4 0 3-4 1-6-5-3M60 138l-2 3q-1 3-6 3-9 2-12 7-1 7 6 4 4-3 1 4-2 5 1 6l2 3 3-4 3-4 2-1q3 0 6 13 3 12 6 8t-1-19q-4-11 2-9 5 0 6-3-1-4-6-6-3 0-5-4-3-5-6-1m558 2c-2 0-1 5 1 6q7 1 3 2-6 5 1 11 4 5 7 3c3-1 3-1 5 9q2 16 7 12 3-1 0-12l-1-8 2-2q3-2 3-5-1-4 5-1 3 1 3 5 0 11 8 3 7-7 11 15 3 14 8 7 3-3-3-20-4-10 1-6 9 1 5-5-3-1-1-5 0-10-14-5-13 6-19 1-3-2-10-3l-10-2zm-193 2q-5 2-8 1-9 0-12 6-1 5 3 5l1 3q0 5 6 5 5 1 4 5c-1 1 1 20 2 22l4 1h3v-15l1-15 2 2c7 5 11-1 5-8q-5-6 1-6 4-2 1-7c-2-2-9-1-13 1m-103 7-8 3c-9 1-17 9-13 11q2 2 4 1 3-1 1 3-2 16 7 5 5-6 6-2l3 19q0 10 4 10 6 1 3-21l-2-9h3q7-1 2-9-4-5-2-8c3-5-3-7-8-3m403-1h-6q-6-2-10 1-6 4 1 7h3l-4 4q-8 11 4 7 7-7 8 12 1 20 7 12c1-1 1-23-1-26q0-5 5-1c6 5 10 0 5-6q-3-4-1-6c3-5-4-8-11-4m-490 6-3 4-5 3q-13 8-10 14h4q4-4 4 2c0 6 5 8 7 3l3-4c2 0 8 24 8 32l2 6c6 5 8-6 4-20l-6-23q-1-4 3-3 6 3 7 0 2-4-5-9-4-1-4-4-2-7-9-1m132-2v6q1 3-2 4c-2 0-7 5-7 7q1 3 7 2l4-2v19q-2 13 6 9c1-1 3-10 3-18l1-8 1-2 3 2q10 5 5-6-4-5-1-6c4-5-2-9-9-7zm142 1-9 1q-6-1-9 2-5 9 4 7 6-2 2 7v8q5 3 8-3c1-2 6 7 6 11 0 7 5 11 7 5 1-3 1-3-2-15q-5-13 3-7c7 4 10-1 3-6q-4-4-2-6 2-6-4-6zm46 1q-7 1-6 9 1 9 4 8 4 0 1 6c-3 4-3 13-1 14q5 2 6-4l5-10 2 1q5 3 6-4 1-5 5-2 5 2 5-4c0-9-17-17-27-14M7 172l-5 1c-3-1-3 17 0 18l2 12q-1 21 5 16c4-1 5-18 2-26q-3-7 5-5 11 2 2-7-4-2-3-5 2-8-8-4m164-1-4 1-5 1-3 6q-7 7-5 9 1 4 7-1 7-5 3 4c-7 17-9 38-5 40q6 3 6-12c1-8 5-23 7-26q1-2 4 1t6-1h3q3 4 7 0 2-7-6-14l-7-6q-5-5-8-2m-95 1v4q2 2-1 4l-2 5v6q-2 8 5 5l4-2c2 0 1 9-1 14q-1 9 3 8 6-1 7-17-1-16 5-6 5 9 7-1l1-6c4-4-2-10-10-11l-8-3zm500 37q-10 7 0 14c5 3 5 4 2 18-1 6-1 13 2 13q4 2 5-10 4-30 10-16 0 4 3 4 4-1 2-11-2-3 1-2l2 3c1 6 6 7 6 1q0-12-13-14l-11-2q-6 0-9 2m75 3-8 3q-10 2-10 11l-1 10 1 6q5 0 6-4c0-3 4-10 6-10v8q-2 26 4 25 3-1 2-12c0-8 2-22 5-22l3 4 3 5c5 2 6-7 1-12q-5-5-2-8c3-4-4-6-10-4m48 3-6 3q-6 1-11 9c-5 10 5 17 11 7 3-6 4-6 8 10l2 12q0 10 5 9 5 1 0-24l-2-13 3 1q6 1 6-3l1-2c2-2 1-8-2-10q-7-6-15 1m56-1q-5 4-1 7l1 6c0 6 5 7 7 1q3-10 6 9 1 7 1-10v-15h-6zm-639 3q-4 3-9 3c-8 0-14 8-7 10q4 3 1 4l-1 4q0 6 5 3 5-4 3 6c-1 14 2 24 7 20 2-2 2-3 2-11q0-15 2-16l4 4c4 8 10 3 6-5q-4-8 0-7c6 0 6-6 0-9l-4-5q-3-5-9-1m395 9q-3 1-2 9 0 10 7 4l4-1 2 21q0 7 2 7 6 4 5-11c0-9 0-10 2-11q5-2 2-8v-5q4-7-6-5zm-67 2c-6 2-7 8-1 8q5 0 1 4-4 6-4 15 0 6 2 4 3 0 1 2-4 4 0 5 5-2 3-8-2-1 1-4l2-6 6-8 1 4c-1 9 7 5 9-4q1-5 3 1l3 2q7-3-2-13l-4-4h-9zm-401 3q-2 3-6 1c-10-3-14 5-6 11q3 3 2 4c-1 5 6 7 8 2q3-5 8 8 6 13 10 6c0-4-3-15-7-19q-5-7 2-6 6-1 3-7-5-5-14 0m293 1-6 2q-6 1-9 5-1 5 5 5h3v6l1 7 3-1c5 0 4 0 7 16q1 9 4 8 5 1 3-11l-2-15q-2-13 5-7 7 4 6-6-1-8-9-9l-6-2zm50 1h-6q-13-3-9 6l3 6q-1 3 6 5c6 3 7 5 8 14q1 9 4 8 5-1 3-9l-1-9q-1-7 3-6 5-1 1-6l-2-6q0-8-10-3m-111 9-1 3-1 4-2 10c-1 7-1 7 2 9 3 3 3 3 2 9q-2 15 1 16 7 5 7-18 1-21 7-11c5 6 9 1 6-5q-5-7 2-5 5 1 6-2 0-6-12-7l-8-2q-5-3-9-1m-62 3h-8c-1-2-6-1-7 1q-2 1 2 5l3 3-3 3q-6 9 1 11l5 1 4 2q3 1 2 5c0 5 2 14 4 16q4 1 6-5l-3-23q-1-3 3-4t3-5 2-4q3-1-1-6c-2-2-10-2-13 0m527 19a13 13 0 0 0-4 17q2 10 8 1c4-9 4-6 2 19l1 10q6 7 6-7l1-10q1-8 3-6t9-1q4 0 3-6 1-8-2-5-5 2-2-3 4-5-2-8c-5-1-20-2-23-1m-254 5-5 3-6 2-5 1 1 8c0 11 0 11 4 11h4v11c1 13 1 14 4 14s4-2 4-15c0-14 1-16 8-20q4-3 0-7-2-1 1-3 4-6-6-7zm124 7q-3 3-7 3-9 1-6 7v6q-1 3 4 7c5 5 4 5 7 2q4-6 4 8 0 9 2 11 7 5 4-21c-2-10-2-11 0-13 2-3 2-3 0-8q-3-7-8-2m-445 1h-8c-7-1-11 4-7 7v6q-3 2 2 6l3 2v10c-1 10-1 11 1 13q6 5 9-19v-7h4q6 1 5-3 0-4 2-4 3 0 3-4-2-9-14-7m463 0q-2 1-2 5l-1 5q-1 4 5 4 2-1 2 5l-2 9c-2 7 1 17 4 14q2-1 2-10 2-19 8-15 2 3 7 1 10-1 4-8l-3-6-3-4zm-602 8q-10 5-6 11l1 3q1 4 6 3c3 0 3-1 2 9q-4 19 3 22c2 0 2 1 4-15 1-8 4-16 4-11q1 2 5-1 3-4 1-9-1-2 1-5 4-5 1-7zm661 2c-5 3-6 13-1 12l4-2c4-1 5 2 4 18-1 14 0 17 3 17s3-1 3-13c1-12 1-13 9-14q10 1 7-5-3-8-11-11l-6-3q-6-2-12 1m-630 1-1 3-3 6q-9 10 2 8c3 0 3-1-1 10q-8 18-2 19 5 0 6-7c2-6 7-19 9-19l2 2q2 6 6-2 5-10-2-12l-4-4c-2-5-9-7-12-4m470 0-5 1c-10 0-13 15-4 19 5 3 6 4 6 14q2 15 6 11l1-15v-13h3q6-1 3-8-3-2 0-4l3-2-3-2q-6-5-10-1m-135 1q-20 4-10 15c4 4 4 4 4 15q0 16 5 14c2-1 3-9 1-11v-2l1-6q2-12 6-10l5-1 3-2q3-1 2-6-3-9-17-6m35 7-7 1q-6 3-7 7l1 6q-1 4 3 6 4 0 3 10-1 12 4 11c3 0 3-2 4-16q0-15 3-13l3-2 4-1q5 1 4-4-5-9-15-5m-302 2-4 5q-8 4-3 8 2 1 2 5 0 6 4 6 4-1 2 9-1 13 3 12 5 0 6-12 0-12 6-11 6-1 3-8-3-3 0-5 6-7-5-8l-6-2q-7-5-8 1m218 2q-5 3-11 3-10 0-10 5 0 3 4 3 5-1 4 2-3 11-1 14 5 4 6-3 2-8 4-7c1 0 4 8 4 12 0 3 6 15 9 17q7 3 3-7c-3-5-7-19-7-24q0-5 6 1c7 6 9-1 3-8l-5-5 2-2q3-2 1-3-4-4-12 2m-104 10-9 6-7 4q-4 4-15 3-10-1-12 8v6l4 5q1 4 5 4 4-1 3 3 0 21 5 22c3 0 4-2 4-17 0-12 0-14 2-14l1 1q2 3 6 1v-6q-3-3 1-7 6-6 5-2 0 7 5 7c3 0 3 1 6 16q2 9 5 9c4 0 4-3 1-22l-2-9h2l3-2 4-3q6-1 0-8l-7-6q-4-6-10 1m325-1-6 2q-14 1-12 7l1 5c-3 8 1 13 5 6q6-10 5 6c-2 12 0 21 4 18 2-1 4-19 4-27l4-1q6 2 2-6l-2-8q1-6-5-2m177 26q-3 3-7 1-5-1-10 3-4 4 0 6t2 6 1 6q1 5 6-3l3-4 1 14c0 12 0 14 2 14 3 2 4 0 6-21q0-13 6-7 3 4 5 1 1-4-5-9l-2-2 2-2q3-1 1-4-4-5-11 1m-71 3-9 2q-10 0-15 7-3 3-4 2l-4 1-7 2q-9 2-4 6 3 2 1 6-2 11 5 5 4-4 4 10c1 11 1 12 4 12q3 1 3-17c-1-14 0-15 6-13q5 2 11-6 5-12-6-4l-4 2c-1-2 6-7 8-7 6 0 9 7 13 32q1 9 4 8 3 1 3-5-1-5 3-5 3 0 3-4 0-6-5-4-3 4-5-8-3-14 5-5 3 3 4 2 5-2-1-9-4-3-2-6 1-9-11-4m-225 10-2 3-2 3q-3 2-1 4c1 3-2 18-4 21q-2 3-1 8c3 4 10-5 10-11s4-12 6-8c2 5 8 2 8-5v-3l2 2q4 5 7 2c3-4-1-11-8-13l-7-3q-5-4-8 0m58 6q-8 3-5 8 2 2 5-1h6q2 2-3 5c-7 6-9 13-3 12l4-3q4-2 4 1c-3 9-4 21-1 23 3 3 4 0 9-23q1-7 6-3 5 6 5-1v-5q-2-2 1-2 5 0 3-5-2-4-11-3-6 2-10-2l-5-3zm-113 2-5 2-7 2c-7 1-12 6-7 9l1 3q0 5 5 2 6-2 6 7c3 20 4 24 8 21q3-2 0-15c-2-11-2-12 2-12q5-2 1-7l-1-3h4q6-2 2-6t-9-3m-360 1-3 2h-7c-8-2-15 2-12 8v6q-3 10 7 3 7-5 5 3c-1 5 0 20 1 22l3 1c2 0 3-1 3-11 1-17 1-17 7-17q9 1 3-6-6-4 0-6c4-4-1-8-7-5m569 1-7 2q-8 2-9 8-1 5 2 6 3-2 0 10c-1 9-1 19 2 19q4 1 4-7c0-6 2-16 4-17q1-2 3 1l2 3 2-3 3-2 2 2q2 3 4 1 3-5-4-12-6-5-1-8l2-1-2-2q-3-3-7 0m-312 4q-6 3-10 1c-8-2-14 3-10 8v12q4 4 6-1l3-2c2 0 1 19 0 25q-3 9 0 11 4-1 6-5l1-5 2-17c1-14 1-14 5-12l5 2v-7q-2-1 1-3c8-4-1-10-9-7m-170 3q-3 2-1 6 2 2-1 4-5 6-2 12 2 1 2 13l1 12q6 6 7-11c0-13 3-22 5-15 1 4 8 0 12-7q2-7-7-11l-7-3q-5-3-9 0m202 0q-5 3-3 6 3 2-1 6-6 8 5 6c2-1 2 11 0 13-2 3-6 15-5 17q1 3 6 0l7-22 1-5q2-3 4-1 8 5 5-6-2-6 2-1c3 5 8-1 5-6q-3-5-12-5l-7-1q-3-3-7-1m-158 4q-2 2 1 5l2 2-4 5q-7 7-3 11 2 2 6-3 8-12 8 10c0 12 1 14 3 16q5 5 6-8-2-27 4-20l4 1q6-1 0-9l-2-7v-3h-12l-7-1zm-85 19-3 3-6 1q-9 0-9 6v6c-2 4 3 8 6 4 3-2 3-2 4 11q2 24 9 19v-9q-3-22 3-19c6 5 8-3 3-10l-2-3 2-4 2-4-2-1q-3-3-7 0m140 19-8 1q-8 0-6 5v7q0 9 5 6 5-4 3 9c-2 10-2 10 0 12q5 7 8-13l1-9h4q9-2 2-8l-2-3 3-1c8-4 0-10-10-6m128-1c-3 1-8 7-8 8l2 4q3 3 2 5-1 5 2 6 5-1 3 9-1 15 2 20 5 3 5-12c0-18 4-31 7-23q6 12 7-6v-8l-6-2q-13-3-16-1m417 0-3 2-6 2q-9 1-7 7v6q-2 8 3 8l4 1q4 4 6-1 3-6 3 11 1 17 6 12c2-2 2-22 0-26q-2-3 1-4 3-4-1-9l-1-6q-1-6-5-3m-295 5q-3 2-3 5l-1 5q0 5 5 5h3l-1 11q0 19 4 18t4-7c-1-5 1-20 2-22q1-3 3 0 5 4 6-5-1-4 1-5 4-2 1-6c-3-1-21-1-24 1m229 5-6 1q-5-3-8 5-6 7 0 10l2 5q0 6 5 6 3-1 3 11 0 14 3 15c4 1 4-2 3-20 0-20 0-21 6-15 6 5 9 0 4-6q-3-4-2-5c4-4-3-9-10-7m-39 1q-10 1-13 10c-1 5 4 7 7 2l2-3h1l-2 8c-3 9-6 24-4 26q3 6 6-7 3-16 6-12 4 4 6 0l4-4q6-4 0-16c-3-5-3-5-13-4m-81 6-5 3-5 3q-7 8-1 11l4 3q6 7 7-1l1-5q4-5 8 13c3 16 3 16 6 16s3-2 1-14c-3-14-3-17-2-17q3-3-2-7l-3-5-4-4zm-148 4-5 5c-7 3-9 15-3 16l4 2q3 4 5-2 2-8 6 14 1 11 4 9 8 3-2-30 0-3 2-1 3 3 5 1 3-4-5-12c-6-6-7-6-11-2m-382 1-4 3-7 2c-5 1-6 2-6 11q0 11 5 10l2 3q3 5 7 1 2-3 3 4 1 14 5 15 7-1 2-21c-3-10-3-10 1-10q6-3 0-8-4-2-2-5l-1-5zm474 4c-12 4-13 5-9 12q3 5 6 4c4 0 4 1 6 16q0 9 2 8 4 1 4-13 0-12 2-10 4 0 1-7-2-3 1-5 5-3-1-6c-3-1-4-1-12 1m-394 1q-3 2 0 4l3 3-2 4q-5 6 1 8c3 2 3 2 3 14q-1 18 5 16c3 0 3 0 3-16 1-18 1-20 6-17q5 3 5-5v-6q4-6-13-6c-9-1-10-1-11 1m259 0c-4 3-3 15 1 15 2 0 2 1 1 13l1 15q6 2 6-13 1-13 4-10 5 2 6-5 0-3 2-3 6 0 1-8c-4-5-18-8-22-4m-80 7c-8 1-13 8-7 11l4 2 4 2q4 0 2 7c-1 6 0 21 3 24q5 5 5-2-2-27 5-28l4-2 4-3c6-2 2-8-4-8l-7-1q-6-3-13-2m-41 2-9 1q-13-1-10 14 1 7 7 3 6-1 5 16 0 13 5 11 5-1 3-20l-1-8h3q4 0 5-3l2-3c6 0 4-8-2-11q-3-3-8 0m-75 6-7 4-5 3-6 2c-6 3-7 11-1 10q3 0 4 3 3 7 7 2 3-7 5 7 4 23 9 16l2-2-1-11-3-13q-3-3 3-1 6 3 4-4-2-6 2-6 4-2-3-8-6-4-10-2M88 487q-2 3-9 4-14 4-6 11 3 1 3 4 1 8 7 0 6-7 8 4 0 3 4 2h4v-3l-2-7v-3h4c7 2 7-4 0-8l-7-5q-2-5-6 1m555 1q-5 2-2 9l2 5 2 4 4 1h4q4-1 4 3 0 3 3 2 5 1 3-3-1-4 4-3 4 0 4-2l2-4q3-6-8-11l-8-2q-9-2-14 1m-187 1h-12c-7-1-7-1-9 1q-4 6 2 6 9-1 2 5-7 7 0 8 3 0 3 2c0 3 8 1 9-2q2-8 7-3 10 8 5-4-6-7 0-8 5-2 1-6-3-2-8 1m-103 4-6 5-6 3c-4 0-12 6-12 9 0 2 1 2 16 2h15v-3l-4-5q-4-4 2-5 9 0 5-5-4-4-10-1m49 5-7 1q-11 0-12 10l-1 3h16c16 0 17 0 13-4q-5-5-2-5l3-2c4-4-4-7-10-3m298-1-5 4q-3 3-8 3-7 2-10 6c-1 2-1 2 16 2h18l-3-3-5-2q-5-1-2-4l4-1q6-1 2-5zm-163 1-4 2-8 2q-15 1-12 7h6l5 1q-1 2 12 2h12l-3-3q-5-5-1-7 2-1-1-3-2-3-6-1m-278 5a17 17 0 0 1-9 8c-1 1 2 1 18 1q28 1 13-2-12-2-13-9t-9 2m318-1q-6 3-7 7v3h16c19 0 20 0 15-6-4-5-18-7-24-4m176 1q-3 3-8 0-13-3-11 6v3h14q15 1 12-2l3-1c6 2 7-4 0-6q-4-3-10 0"
        mask="url(#16282281824-posters-1720553677482-radial-mask)" itemprop="regular" fill-opacity="0.90"
        fill-rule="evenodd" stroke="none" fill="url(#16282281824-posters-1720553677482-horizontal-regular)"></path>
      <!---->
      <path id="16282281824-posters-1720553677482-medium"
        d="M183 8q0 15 4 14 4-2 3-14l-1-8h-7zm34-5c0 6 6 9 6 3q1-7-3-6-4-1-3 3m405-1 4 1q8-1 7 5v5l3-1c5 0 5 1 8 10q6 17-3 21l-4 4-3-2q-2-3-3-1-4 4 4 4l5 2q5 4 8 1l5-2q7-3 3-9c-2-3-3-5-6-20q-5-16 1-9 3 3 5 1 3-4-4-10c-3-3-30-3-30 0m78-1-1 3c-5 4-1 8 4 4q8-7 12 17c2 12 3 14 5 14q3-1 0-20c-2-12-2-12 1-11h4q5 1 1-5l-2-3h-12zM416 4l-2 3-1 4q-2 3 1 5 4 2 1 5c-2 2-8 16-8 19q2 8 8-5l6-10 2-2 2 2q7 6 7-4 0-6 5-3 3 3 5 0c4-7-21-20-26-14m191 3q-9 1-5 5v7q-1 9 4 5 6-8 7 14 2 15 6 11V27q-4-15 3-11 5 2 5-1 2-3-6-7c-5-2-6-2-14-1m-340 4 1 4q4 3 2 9-1 9 3 8 6-2 7 18 1 9 4 8c2 0 2 0 2-12l-2-15q0-5 2-4 6 0 4-5v-4q3-4-9-6l-10-1zm209 1q-4 4 2 5 4 0-1 6-6 10 2 7 6-7 5 7c-2 16-2 19 1 20q4 2 4-11 3-25 8-16 5 7 6 1l-1-6q-4-4 1-6c5-2 0-8-8-7h-8q-6-4-11 0M0 19v9l4 2q5 3 6 1 2-2-2-6-6-6-1-7 6-6-4-7H0zm358-5-10 1q-10-1-6 6v5q-4 5 1 5l4-1h4l3 9q4 15 7 17c3 2 5-4 3-8l-4-14q0-5 2-5 5-1 2-6-2-2 1-3 8-1 3-6-3-3-10 0m215 1-7 1c-9 0-16 10-9 13q3 1 2 4v11q-2 15 2 14 4 2 4-15 1-20 7-11 1 4 4 3h5c4 3 6-5 3-12l-1-4c1-3-6-6-10-4m-337 1q-3 3 2 5 5 0 2 6-5 15 4 8 6-9 5 9l-2 15c-2 8 3 11 6 3l2-18c0-14 0-14 3-15q3-1 2-4l-1-5-1-4zM87 21q-2 2-1 4l-2 5c-5 6-4 14 1 11 3-1 3-1 4 11q0 11 3 9 2 2 2-10c1-12 2-13 5-11q5 2 6-3 0-3 3-3c5 0 5-6 0-9l-18-6zm60 2h-8c-6-2-11 3-6 6l2 3-3 3c-7 6-5 11 2 6q9-7 9 13 0 12 4 12c2 0 2-1 2-14q-1-21 5-12 8 4 3-6l-1-6q1-2-2-5c-3-2-2-2-7 0m614 0-8 2q-12 0-7 4 6 1 2 7-4 8 4 4 6-5 6 9c1 8 4 17 6 17q3 2 0-18V37q3-3 4-1 1 1 1-6v-8h-3zM48 43l-4 2-7 2q-11 1-5 5 3 0-2 7-5 9 5 4 7-6 7 15 0 10 2 10 4 4 4-14c0-14 0-15 4-11q3 3 5 1c1-2-1-8-4-10q-4-3 0-7 2-6-5-4m573 13q-13 7-8 11 2 3 4 1 3-3 5 2 2 4 5 3 5-2 8 10 3 11 7 8v-4c-1-6-4-16-6-18q-4-4 1-6 5-3-3-7c-7-3-8-3-13 0m-433 2-8 1q-9 1-5 6 3 1 0 6-3 11 4 5l3-1q4 0 1 14c-2 10 4 11 6 1q3-9 6-9 6-1 2-10-4-6-1-7l3-1c4-4-6-8-11-5m545 3q-4 3-9 3-9 3-4 7l2 2-2 4q-7 14 3 8 2-4 4-2 4 4 6 0c3-4 6 3 6 12q1 11 4 11 5-3 2-18c-1-6-1-6 1-8q5-4-1-10-3-4-2-6 1-3-2-4c-2-1-2-1-8 1m-279 4h-9q-9 0-8 2l1 3q3 2-1 6-6 10 3 5 6-4 5 8 2 15 5 15t3-11q-2-13 4-8 9 5 4-7-3-6 0-6 5-1 2-5c-2-2-8-4-9-2m219 7-8 1q-10 0-7 6 3 3 0 5-3 6 4 5c6-1 6 0 6 14q0 13 2 13 4 5 5-15c0-14 0-14 3-12q8 3 4-5-2-3 1-5c5-6-3-10-10-7m-125 5-7 7q-11 9 1 8l1 4q1 10 7 2 5-6 6 9 0 10 4 10 3 2 2-10V93q-2-4 2-5 5-5-1-8l-5-4q-4-5-10 1m-143 5-8 5q-14 9-3 17 6 4 8 1 4-4 5 7 3 10 5 11 5 0 1-17-2-9 3-7 6-1-1-9-5-5-3-6 3-3 0-4-3-2-7 2M18 84q-3 2-7 1-9 0-9 7l-1 3-1 7q1 12 4 4l2-2 2 2q1 4 5 3 3-3 6 5l3 11q3 12 7 6c1-3-3-21-5-24q-3-3 1-4 6-1 2-9l-2-6q0-7-7-4m334 1-4 2-4 1c-6 0-13 8-10 12l3 3q2 0 3 3l4 2 3-2q3-9 8 12 4 14 6 12 6 0 0-15v-7c3-4 2-18 0-20q-5-4-9-3M93 86c-5 4-3 9 2 7q11-3 2 5-7 7 2 6h4v15c0 14 0 16 3 16q4-1 4-7l2-25q1-3 4 0 2 2 4-1 2-2 1-4l-1-5q-1-9-9-7zm399 1c-5 1-12 5-12 7l2 3q3 2 2 4 0 3 5 2 5-2 6 13l3 10q7 3 4-14l-2-7 3-3q3-2 3-5l2-4c5-4-4-8-16-6m-218 8q-5 3-2 6l3 4 3 3q5-1 3 11-2 18 1 19 4 3 4-6l2-12 2-6h8l-1-5q0-6 2-5l3 1q4 0 2-5c-2-4-2-4-22-7q-4-1-8 2m-56 1q-7 4-1 6 6 1 1 7-3 7-1 11c1 0 6-4 6-6q1-2 4-2l4 18q0 9 5 6v-10q-2-13 3-13 3-1 3-3l3-4q8-8-12-10l-9-1q-3-1-6 1m-60 11-8 1q-11 0-4 6 3 3 1 6-5 10 4 5 6-4 6 5l3 16q0 2 3 2 5-1 2-9c-2-8-2-19 0-20q5-2 4-3l-1-5q-1-9-10-4m442 0c-4 2-5 9 0 12l3 2-1 13 1 13q4 0 5-8 0-11 5-12l3-3h3q5 5 6-2-1-8-6-9l-8-3-7-4zM58 141q-1 4-6 4l-8 3q-8 9 1 7 5-3 3 3-2 8 2 8l2-1 3-4q3-4 5-1c2 2 5 10 5 14q1 5 4 6c3 0 2-10-1-20q-4-10 4-9c6-1 4-8-3-8l-3-3q-3-6-8 1m561-1q-4 4 1 6 6-1 1 4-5 4 1 7l3 4h6q2-3 4 9 2 13 6 13t0-12 3-11q3 0 2-4-2-5 5-2 5 3 4 7 0 8 6 2l4-3c3 0 7 9 9 17q2 13 6 9 3-4-3-19-4-12 2-9 7 2 4-4-2-2-1-5c3-6-5-8-13-4q-12 6-20 0-3-2-10-3l-10-1q-7-3-10-1m-193 2-9 2q-10 0-11 6 0 3 2 3l2 4q0 6 5 5c4-1 4-1 5 13 0 12 0 13 3 14q6 5 4-15 0-20 5-12 3 3 5 1 3-4-2-9t1-6l2-3q-1-8-12-3m301 6q-5 2-8 1-6-2-11 1-5 5 3 5 6 0 0 3c-7 5-6 13 1 8l5-2c2 1 5 10 5 18q0 13 5 9c2-1 2-14 0-23q-2-9 5-5c7 6 10 0 3-7v-4q4-7-8-4m-405 2-6 2c-7 0-16 6-15 10l4 1q5-2 1 6-3 14 6 3 5-7 7-4c1 2 4 16 4 23q0 8 5 7c1 0 1-20-1-25q-2-5 3-5 7 1 1-8c-3-5-3-5-2-8q3-8-7-2m-86 3-5 6-5 3q-7 3-9 8 0 6 4 4 6-2 4 3l4 6 3-4 3-4c2 0 7 17 8 27q0 12 4 12 8 1 0-26l-3-12q-3-10 1-9 9 3 8 0 0-5-7-8-4-1-3-3c2-5-3-7-7-3m142-1-7 1q-6-2-4 3 3 5-1 6-6 3-7 6 1 5 5 2 8-6 6 10-2 21 3 17c3 0 3-2 4-14q1-20 6-12l4 1q4 0 0-8-3-4-1-6a4 4 0 0 0-3-6zm132 1q-4 2-9 1-10 1-11 6 0 3 5 3 6-2 2 10-1 9 6 4l3-3c2 0 6 10 6 13q1 7 4 6 4-1 0-16-5-15 3-9 7 5 6 1 2-1-3-6-4-4-3-5 3-4-1-6-3-2-8 1m43 2q-2 1-2 6l-1 6q0 3 4 4 3-1 0 7-3 10-1 13 4 2 6-6 2-9 8-8 4 1 5-3 1-5 4-3c7 5 6-8-1-13-5-3-17-5-22-3m-382 17-4 1q-4-1-6 3 0 3-2 3c-1 0-5 6-5 8q1 4 7 0 8-7 5 1c-6 12-11 39-8 42q7 5 7-13c0-8 6-25 8-25l2 1q2 3 6 0l2-2 2 2q3 3 5 0c4-3 0-11-6-15l-6-5q-4-5-7-1M7 173l-5 1c-3 0-3 13 0 17 2 2 2 3 3 14v13q4 2 6-1v-24q-3-8 5-6c7 3 8-2 1-6q-3-2-3-6c1-4-4-5-7-2m70-1v4q1 2-2 4c-3 4-2 16 1 15 8-1 7-1 8 3l-1 9q-3 8 1 8 6 1 6-19 0-15 8-1 5 5 5-4l1-7q1-7-9-9l-9-2q-7-3-9-1m502 36q-13 7-3 14c5 4 6 4 4 13q-4 18 1 19l3-4c2-14 2-17 4-22q3-10 8 0c2 7 6 3 4-4q-2-9 1-5l2 3q1 5 5 4 3-3-2-10c-3-6-5-6-15-7l-8-1zm73 5-8 2q-10 1-10 11l-1 10c-2 9 3 8 6-1q4-10 6-7v16q-1 18 3 16 3 1 3-9 1-37 9-18 3 6 6 1 0-5-3-10-5-5-3-7 2-8-8-4m49 1-9 5c-9 4-14 13-9 17q5 4 9-2t6-4c2 3 5 18 5 24q0 11 5 11c3-1 1-20-4-35q0-4 4-2 5 3 6-1l2-4q3-4-3-9-6-6-12 0m56-1q-6 3-3 8l2 7q2 8 6 0 3-9 6 4 1 5 1-8c0-10 0-11-2-11l-5-1zm-641 5q-3 3-8 2c-9 0-14 6-8 10q3 2 1 5-3 8 4 6 5-6 4 6-1 22 5 19 3 2 2-10c0-7 2-17 3-17l4 4c4 8 9 4 5-5q-4-8 2-7l3-1c1-2-3-7-5-7l-3-4q-4-5-9-1m396 8q-4 1-3 9 0 9 6 4 8-8 7 13l2 13q5 4 4-10c0-9 0-9 3-11q3 0 2-7v-7q2-5-6-4zm-62 1q-9 2-10 6 0 3 3 2 5-1 2 6c-3 3-5 12-5 17 0 4 7-3 8-9 1-4 6-10 7-9l1 4c0 7 5 5 7-2q3-8 5-3 2 6 5 3 2-6-6-13c-4-3-7-3-17-2m-405 4q-4 3-9 1-15-1-5 10l3 6 1 4 5-2 2-3q5-1 8 9 2 8 6 9c4-1 1-12-4-20q-4-8 0-8 6 1 5-3-1-8-12-3m290 1-7 3c-7 2-9 8-2 8h4l-1 6q0 10 5 7c3-2 4-1 5 11q3 16 7 12v-10l-2-19q-2-7 6-4 9 4 5-8c-2-5-15-9-20-6m51 1q-2 2-8 1-11-3-6 5l2 5q-1 4 6 6 9 3 8 12 2 12 6 8v-8l-1-8q0-8 2-6 6 0 3-6-3-2-3-6-1-6-9-3m-109 9-3 4-1 4c-3 4-2 15 1 18 2 3 2 3 2 13q-2 14 3 13 3 1 4-20t7-11c3 7 8 2 4-5q-3-8 4-5 5 2 5-2t-11-6l-8-1q-3-4-7-2m-64 3c-5 2-5 2-9 1q-10-3-3 4 5 4-1 8-6 8 1 9l4 2 4 1q4 0 4 8 1 17 7 12 2-3-1-23c-1-6 0-6 3-8q4 0 3-4-2-3 1-4 4-1 0-6-4-4-13 0m529 19q-11 6-6 14l1 5 4 3 2-4q6-15 5 11c-1 17-1 20 2 20q2 0 3-7c1-18 1-21 4-18q1 2 7-1l5-1v-5q1-6-3-4-6 0-1-5 3-1 1-4 0-3-12-3l-8-1zm-257 6q-3 3-7 3-10 1-7 7l1 8q-2 9 4 5c3-1 3 0 4 13q0 13 2 12c4 0 4-2 4-14v-13l6-5c5-5 5-5 3-8v-5c3-5-4-7-10-3m126 7-8 3q-7 1-6 5l1 6q-1 4 3 7 5 6 7 2 4-6 4 10 1 9 4 10 3-2 1-21c-1-10-1-11 1-14q3-1 0-6-3-7-7-2m-461 3-2 2 2 2q3 2 1 6-3 4 2 6l3 1v23q7 3 7-12c0-5 2-14 3-14l3 1q5 2 5-4-1-1 2-3c7-4 0-12-8-11l-13 1q-2-1-5 2m477-2v4l-1 3q-2 5 3 6 6-3 2 9-3 16 2 19 3 1 2-6c0-13 5-23 9-19q2 2 7 1 9 0 2-10l-4-7-10-1zm-601 8q-10 4-5 10l1 3q0 3 6 2 3 0 1 10c-1 3-2 16-1 19l3 2q4 1 3-7c2-16 3-19 7-18q6 1 5-8-2-6 1-8 6-6-10-6zm663 0c-3 1-7 8-7 11h8c4-2 5 0 4 17 0 16 0 19 4 17q3 1 2-11l1-12q5-4 11-3 5 1 3-5a22 22 0 0 0-15-12c-6-3-7-3-11-2m-631 2-2 4q0 3-3 5-6 7 1 8c5 0 5-1 0 10q-8 20-2 18 4-1 5-5c0-3 8-21 9-21l3 2q2 6 6-3 4-7-2-10-3-1-5-5-5-6-10-3m468 1-5 1q-7 0-7 9c0 6 0 6 5 9s6 4 6 13q0 12 3 11c2 1 3-1 3-14s0-14 2-14h3c2 0 1-5-1-7q-2-2 1-4c6-4-3-8-10-4m-134 1q-19 4-9 13c3 4 4 5 4 11l1 17c0 2 4 1 4-1q1-5-1-8v-2l1-2 1-6 2-6q-1-4 3-3c4 1 11-3 11-6q-3-9-17-7m-266 6-1 3-4 4q-8 4-2 8l2 6q1 6 4 5 3-2 2 10v9q5 7 8-11c0-10 1-11 5-11q5 1 3-7-2-4 1-6l2-3q-1-3-6-3l-7-2c-6-3-5-3-7-2m296 1c-7 3-8 4-8 11q1 6 4 7 2 1 3 10 0 13 3 12c2-1 3-4 4-17l1-12 4-2q3-2 5-1 7 0 1-7c-5-4-7-4-17-1m-78 2-3 3-6 1-9 1c-6 2-5 7 2 7q4 0 3 2c-2 4-2 14-1 15q4 2 5-5c0-7 5-8 7-1q3 14 7 19c5 8 10 5 5-3-2-2-4-12-6-21q-2-8 6-2c8 6 9 0 0-8l-3-3 2-2c5-4-2-7-9-3m-105 12-10 6-6 4c-1 2-9 4-13 3-8-3-18 8-12 14l2 3q1 4 6 5 3-1 3 6 0 15 3 18 5 7 5-17c-1-14 0-15 3-13q5 4 6 1l-1-5q-2-4 2-7 5-7 6-1 0 5 5 6c3 0 3 1 5 14q3 13 7 10c2-2 1-5-1-18-3-12-3-13 1-13l2-2 3-2q7-2 1-8l-7-5q-5-6-10 1m323-1-7 2q-11 0-8 7v5c-2 7 1 11 5 4q1-3 4-3 3 2 1 20-1 5 1 6 5 7 5-12c1-13 2-15 6-14q6 1 2-6-3-4-2-8 1-6-7-1m180 25q-3 3-8 2c-8-2-14 5-9 8q4 2 2 6c-2 7 2 10 4 4q4-8 7-4l1 3c-2 4-2 23-1 24 3 1 4-1 5-15 2-16 3-17 8-13q10 5 1-6l-4-4 2-2q4-3 0-5-3-3-8 2m-72 3q-5 3-8 2-9 0-15 7-3 4-5 3l-6 1-6 2q-7 1-3 5 3 2 1 7-1 9 5 4 4-6 5 9 0 16 4 12l1-15c0-16 0-17 6-15q6 3 10-4 7-13-4-5-7 5-2-2c6-7 14-2 15 9l2 7 2 9q3 20 6 6 0-5 3-5 6-1 3-6h-4q-4 3-5-7-3-10 0-10 2-2 5 2l4 3q4-2-2-9-4-3-2-5 3-4-2-6c-3-1-3-1-8 1m-224 9q-8 10-5 13v4l-2 6-2 8q-3 10 1 10 3-1 6-12 4-12 5-10l2 1 2 2q5 2 5-6 0-6 5 0 2 3 4 1c4-4-1-11-7-12l-7-4q-5-4-7-1m57 7q-6 3-4 7h4q12-5 2 7l-6 7q3 3 7 1 3-3 5-1l-1 8q-4 15 0 16 4 3 4-5c2-9 5-22 7-23l4 2q8 5 5-3-2-6 2-6 5-1-1-6-2-2-11 1l-5-2q-7-5-12-3m-471 3-5 2h-8q-14 0-10 8v5q-3 11 6 3l3-3 2 3q3 2 1 5c-3 7-1 22 2 22q4 2 4-15c1-14 1-13 7-13q8-1 2-6t0-6q4-3 1-5zm357 0-3 2-8 2q-13 1-6 9c3 6 2 5 5 4q7-4 8 19 2 9 5 9 3-2 1-14l-2-9v-5h2q6 1 3-5-3-5 2-5 8 1 2-5-5-5-9-2m211 1-10 3c-7 2-10 11-4 13q3 1 1 3c-3 7-3 26 1 26q2 2 3-12 2-18 7-12l3 2 2-2q1-4 4 0 4 4 4-3 0-4-4-7-7-5-2-7l1-3c0-2-6-3-6-1m-314 5q-6 3-9 0c-7-2-14 2-9 7v6l-1 6q3 4 6-1c5-10 6 13 2 26q-2 8 2 8c4 0 8-13 8-30q0-13 4-9 7 5 6-2-2-5 1-5c3-1 3-6 0-7q-4-2-10 1m-169 2v6q2 1-1 4-5 8-3 12 2 1 2 14c0 11 1 12 3 12q4 2 5-15 0-11 2-12 2-5 3-2 1 6 7 0 9-10-1-15l-7-3q-6-3-10-1m202 1-3 2 1 3q2 3-1 6l-3 5q1 3 6 1l3-1v7l-1 8c-5 6-7 17-3 17 3 0 11-22 9-24q-1-1 2-4 2-4 4-2 8 5 5-3l-2-4q1-4 5 1 1 3 3 0 3-2 0-5-2-6-10-5l-7-2zm-157 3q-2 2 1 5l2 2-4 5q-5 5-5 8 2 6 8-1 8-13 8 12 0 17 5 16c2 0 2-2 2-18 1-15 1-15 5-12 6 4 8-1 3-7l-2-6q2-7-9-4-2 3-6 0zm-84 19-4 3-7 2q-8-1-8 8-1 12 5 6 4-4 4 9c0 11 3 21 7 22q4 1 1-10c-2-13 0-22 4-18q2 3 4 1 5-2-2-12-3-3 0-6 4-7-4-5m139 19-7 1q-11 0-7 8v3q-3 7 4 6h4v7c-2 14-2 15 1 16q4 1 6-13c1-11 1-11 6-11l3-1q1-3-3-6-3-3 1-5 6-1 2-5-4-3-10 0m128 0-6 3q-4 6 0 8l1 5q-1 5 3 6l3 1-1 11 1 14q5 9 5-11 1-22 6-24 2 0 3 3 1 5 5 3v-17l-5-1-5-1q-5-3-10 0m413 1-5 2q-8 1-8 7v6q-1 6 3 7 3-1 4 1 2 5 6-1l2-2 1 2 1 12q0 15 5 11c2-2 2-13 0-23v-7q4-3 0-8-2-2-2-6 0-6-7-1m-291 3q-4 1-4 9-1 6 3 5c4-1 4 0 4 13q0 19 4 16 2 0 2-12 2-23 6-18 6 5 5-3-1-6 3-6v-4zm223 6c-6 0-6 0-8 4q-6 9-1 10l2 6q1 6 5 6h3v12l2 13c3 3 4 0 4-19 0-20 1-22 6-17 6 6 8 2 3-4q-4-4-1-6 4-6-15-5m-40 2c-5 2-7 10-5 12q2 2 4-2 8-9 2 6l-3 12-1 8q-1 6 3 6l2-4c0-9 5-20 7-16q3 4 6-1 0-2 4-3 5-4 0-15l-3-5h-7zm-74 3-6 4c-9 5-12 14-5 14l3 3q4 7 6-1 5-17 10 8c3 13 3 15 5 16 4 1 4-1 0-22v-10q1-6-5-8l-1-3q-3-5-7-1m-148 5-2 3-2 2q-6 1-8 8-1 8 3 7l3 2q4 4 6-2c1-7 5 1 7 16q1 10 4 8c2-1 2-10 0-15l-1-6-2-6q-1-8 2-5 4 4 5-1 1-2-5-8-6-8-10-3m-386 4-7 3q-8 1-6 6v7q-1 6 3 6l4 4q2 6 5 1 4-4 4 2c0 6 3 16 5 17 4 1 4-10 1-23q-3-10 2-9 6-2-2-8-3-2-1-4c3-5-3-7-8-2m84 1q-4 4 1 6l2 2-2 3q-5 7 1 9l2 3q0 30 5 27 2 0 2-14c1-17 2-21 5-20q7 3 7-6 1-11-8-9l-10-2zm395 1-6 1-5 2-2 3 2 4q5 9 6 5 5-6 6 13 1 14 5 9v-8c-1-13-1-12 2-13q5-2 1-8-2-2 2-5c5-4-4-7-11-3m-137 0c-3 3-2 13 1 14 3 0 3 1 2 13q-2 17 2 15c2 0 3-1 3-12 1-11 2-11 6-11q5 2 5-6l1-2h3q3 0-2-7c-4-4-18-7-21-4m-87 11-3 3 2 2 5 4 4 2c2 0 3 0 3 13q0 19 5 20c1 0 2-2 2-14v-14l3-3 5-4 4-3c6-1 2-7-5-7l-6-1c-5-4-15-2-19 2m-32-2-8 1q-15 0-12 13l1 5 4-1c5 0 6 1 7 13 0 12 0 13 3 13s3-2 3-15l1-12 3-1q3 0 3-3l4-3c4-1 2-7-4-10zm-81 9-10 5c-8 2-12 10-5 11h3l1 2a3 3 0 1 0 7 1q1-2 4 1l2 11 4 13c6 2 7-9 2-22q-3-10 2-5 8 3 5-5-3-5 1-5 4-2-2-8-7-5-14 1m-96 37-6 3c-9 0-15 7-8 10l2 4q2 7 6 1 6-8 9 3 0 4 4 3h4l-2-6q-3-9 4-7 9 0 1-7l-7-5q-3-5-7 1m558-1q-9 2-4 8l1 6q0 6 8 5 6 1 6 3 5 7 6-1-1-4 4-2l3-1q0-5 2-5c4-1-1-8-7-10l-15-4zm-211 4q-4 4 2 5h5q3 0-3 5-6 7 0 8l4 1q3 5 8-2 3-8 8-2c5 6 7 1 2-6q-4-5 2-7 5-1 2-4-4-2-9 1h-11q-9-3-10 1m-86 6-9 5c-4 0-11 5-11 9h9c1 1 22 2 22 0l-4-7q-6-5 4-6 5 0 2-5-5-4-13 4m52 2-8 1q-9 0-9 7l-1 4q-3 1 14 1l15-1-3-4q-3-5 2-5 2-1 1-3c0-2-9-3-11 0m295 2q-5 4-8 4-9 1-11 6l16 1h17l-3-2-4-2c-5 0-4-5 1-7q7 0 4-3-4-3-12 3m-433-1-4 4q-1 3-5 5l-4 3h27q11 0 4-1-12-4-13-8-1-7-5-3m271 0-9 2c-11 1-16 6-7 7q9 0 7 2l12 1h12l-4-3q-5-4-3-6c4-4-3-7-8-3m44 2q-6 3-7 8v2h16c18 0 18 0 13-6-3-4-17-7-22-4m159 1q-5 0-2 7c0 2 1 2 13 2l12-1q0-2 3-2l4-2c1-4-8-6-13-4q-5 3-10 1z"
        mask="url(#16282281824-posters-1720553677482-vertical-mask)" itemprop="medium" fill-opacity="0.90"
        fill-rule="evenodd" stroke="none" fill="url(#16282281824-posters-1720553677482-vertical-medium)"></path>
      <!---->
      <path id="16282281824-posters-1720553677482-bold"
        d="m183 2 1 9q0 11 3 10 5-1 1-19 0-2-3-2-4 0-2 2m34-1c0 8 5 11 6 3q1-5-3-4zm406 1 5 1h5v4q-1 6 4 5c4 0 5 0 7 9q8 19-5 25-2 1 1 3 4 5 8 2l5-2q7-3 3-9-3-3-4-7l-6-24q2-2 5 1l3 2q3-3-2-9l-2-3h-14q-16 0-13 2m76 2-2 4c0 2 5 1 6 0q4-4 7 1l2 2 2 4 1 7 2 9q0 7 2 7c2 0 2 0 2-11l-2-12q-4-9 6-7 5 0 0-5c-3-3-3-3-13-3h-10zM417 4l-2 3q1 1-1 4t1 5l3 2-3 5-5 8c-2 4-3 10-2 10q3 3 7-7l6-10 2-2 2 2q5 4 6-2 1-9 6-4t4-2c-1-8-20-17-24-12m188 4q-5 1-3 4l2 4-2 6q1 4 4 1 7-7 8 15 0 14 5 10l1-6-2-14-1-10q-1-4 6-3 9 1-2-6c-3-2-11-3-16-1m-337 3 1 4q3 2 1 9v7h3c5 0 6 2 9 21q0 6 2 6c2 0 2-11 0-21q-2-12 3-11 4 2 2-6 2-9-7-7l-9-1q-4-3-5-1m209 1q-3 3 0 4 6 1 2 6-8 10 0 7c6-4 7-2 4 19l1 7q5 5 5-13 1-13 4-15 4 0 6 4c0 2 4 3 4 1l-2-6q-3-8 2-8l1-1q0-4-8-4l-10-1c-6-2-6-2-9 0M0 19v8l4 2q9 4 3-5l-3-4 3-3q5-5-4-5H0zm357-4-7 1h-6q-3 1-1 6v3q-5 7 3 4 6-5 9 10 3 16 7 16 4 1 1-6c-4-14-5-18-3-20l2-1c2 2 3-2 2-4q-2-5 2-5 5-1 2-5-5-2-11 1m-120 1q-3 2 1 4 5 0 3 6-5 15 3 8 3-4 4-2c2 1 3 14 1 18-2 5-2 16 0 16q5-1 5-18 0-19 3-19 3-1 2-5l-1-5-1-2c-2-1-19-2-20-1m335 0h-5q-7 0-11 7-3 5 2 6l2 1-1 13 1 15q3 1 4-10l1-7 1-5q1-11 6-4c2 3 12 4 12 1l-1-10-2-7zM88 21q-3 2-2 3 1 4-3 9l-1 4q-1 4 3 4h4l1 10c1 12 1 11 3 9l1-10q0-15 6-10 3 3 4-2 0-4 4-4 6-2 0-7l-7-4q-9-5-13-2m58 2-5 1h-8q-4 2 0 5 5 1-1 7c-7 6-4 10 3 4q9-6 9 15 0 11 4 11l1-13V39q1-4 6 0l2 2q3-2-1-8l-1-5c1-5-6-9-9-5m615 1q-3 2-7 1c-7-1-12 2-6 4q4 1 1 7-4 7 3 3 6-6 7 10 2 15 5 16 3-1 1-6c-2-4-2-21-1-23q2-3 3-1 3 3 2-6 1-11-8-5M47 44q-6 4-10 4-8-2-4 4 2 2-1 6-7 10 3 4 7-7 7 12 0 17 4 13l1-12q0-22 5-13l3 2q4-1-1-9-6-4-2-7 3-7-5-4m574 13-6 4q-3 3-1 7l2-1q4-3 6 2 1 3 5 3 8 0 9 12 3 8 5 6c1-1 0-9-2-12l-1-3-2-6q-5-5 0-6 7-3-6-8-4-2-9 2m-433 2h-7q-9 0-5 5 3 4-1 7-4 10 4 5 9-6 5 13l-2 6 2 1q3 1 5-8 2-8 6-8 4-1 1-9t0-8 2-4zm548 2-5 2-7 2q-7 1-4 5 5 2 0 9-6 11 3 5l2-3 3 2 2 2 2-2q6-6 7 9 1 16 5 13c2-1 3-12 1-14q-3-6 0-11 4-5-1-11-4-3-2-5 1-3-3-4zm-298 5 1 4q2 3-1 6-5 6-2 7l2-1 4-2c3 0 4 0 5 11 0 11 1 12 3 12q3 2 2-10 0-16 5-9c4 5 7 0 3-6q-3-7 1-6 5-1 1-5-1-2-6-2h-13zm238 6-9 1q-12 1-8 6v6q-3 5 4 3 6-5 5 13l1 14c4 4 5 0 5-21q-1-8 2-7l3 1a2 2 0 1 0 3-3q-3-3 0-7 4-3 0-5-4-3-6-1m-128 6-8 7c-6 4-5 9 1 6q4-2 4 6 0 7 5 1 5-8 7 9 0 12 4 9c2-2 3-11 1-16q-3-9 1-13 6-3-3-9c-6-5-6-5-12 0m-141 3-5 4-4 2c-2 0-8 6-8 9q1 7 3 7l3 2q3 2 6-1 5-3 6 6 2 15 5 11 3-3 1-13-5-11 1-10 6-1-1-8-4-3-2-5 2-7-5-4M17 85q-2 2-6 1-8-1-9 6l-1 4-1 6q1 10 4 4 3-4 4-1 1 5 5 3h3a34 34 0 0 1 7 17l1 4q3 6 5 0l-5-19q-3-8 1-8 6-2 2-7l-3-7q-1-6-7-3m77 2q-7 6 2 5 11 0 3 6-7 7 0 6h5v15c0 15 0 15 2 15q3 0 3-4 2-33 6-28 4 2 5-1c1-1 0-7-1-7l-1-4v-3h-5q-6 1-8-1-7-2-11 1m250 1q-16 8-7 14l4 4h5q1-5 4-3c2 2 6 11 6 14 0 9 7 17 7 8l-1-6c-2-2-2-11-1-14q3-2 1-5v-4q3-3-2-8-3-6-16 0m148 0c-8 0-14 7-9 9l2 4q-1 3 4 2t5 5l2 9q1 8 3 9 4-1 2-14l-1-8 3-3q3-2 3-5l2-4q2-5-16-4m-215 6q-7 3-3 8l2 3 3 3 3 1v28q3 4 4-8 3-21 8-16 4 3 3-4-2-7 3-5 6 1 3-5 0-3-8-3l-10-2zm-59 2q-5 4-2 5 8 0 3 8t-2 9q3 2 5-4 6-11 9 13 4 20 4-3v-10l3-1 3-3 2-3c8-4 1-11-10-11zm-58 11-8 1q-11 2-6 6 4 1 0 7-1 8 5 4 6-8 7 12 1 12 4 10c3 0 3-2 1-16q-2-15 4-13 3 1 1-4l-1-6q-1-5-7-1m440 1q-2 0-3 5 0 3 4 6c3 3 3 3 2 9q-2 20 2 18 2 0 2-7 0-11 5-13 3 0 3-2 2-2 4 1 4 3 5-4 1-5-8-8l-6-3q-4-3-10-2M61 138l-2 3q0 4-6 4c-5 0-12 5-12 8q1 4 5 1 3-3 4 2-4 15 3 6 8-11 12 7 1 9 3 11 5 0-1-22-3-8 5-8 3 1 3-2-1-3-6-4-2 0-3-3-3-5-5-3m558 3q-1 3 2 4 5 0 0 6-5 3 2 6l2 3 4 1q7-2 7 11c0 4 3 11 4 11q3-1 2-6-3-14 0-17 3 0 3-4 0-6 7-2c4 3 4 3 4 8q0 7 4 1 10-8 14 12c2 11 2 11 4 11q4 1 0-17l-3-9v-3l4 1q7 0 4-3c-2-1-3-6-1-7q1-3-5-5l-7 2c-8 4-21 4-21 1 0-1-7-3-11-3l-8-2zm-193 2-9 2-8 1q-5 5 0 8l2 2q-1 6 3 5 7-2 6 8l2 18q0 2 2 2c2 0 3-1 3-14q-1-22 5-13c5 4 7-3 3-8q-6-5 0-7 7-4-3-6zm301 6h-9c-2-3-12 1-11 4q1 3 4 2 6-1 0 5c-6 4-5 9 1 6q9-8 10 13 1 18 5 12v-12c-1-19-1-21 6-16l4 2q3-3-2-8-3-3-1-5 4-3 0-4-3-2-7 1m-405 2-7 2c-5 0-13 5-13 8q0 3 3 2 4-1 2 4-3 15 5 4l5-5q5 0 7 24 0 9 3 8 4-1 1-16-3-17 1-14 6 1 1-8c-3-5-3-5-2-8q3-8-6-1m-85 2-4 5q-2 3-7 5-8 3-8 8t4 2q5-2 5 5l1 3q3 0 4-3 1-4 4-3c3 3 7 18 8 30q1 9 4 9c3 0 2-15-2-25q-7-27 2-22 4 4 4 0-2-6-8-8l-1-3q-1-6-6-3m142 0h-8q-6-1-3 4 1 4-1 5l-5 3q-6 6 3 4c6-2 6-1 6 14l1 14c3 0 5-9 5-18q0-16 7-9 7 6 2-5-3-6-1-7 4-3-1-5l-2-1zm130 1q-5 2-8 1c-6-1-12 3-10 7h4q6-3 4 8-3 12 5 5 2-3 4 0 4 6 5 13l2 4q3-2 2-9l-3-9q-4-13 5-6c7 4 8-1 1-6q-3-2-1-5 3-7-10-3m46 1q-5 1-4 5l-1 7q-1 2 3 3 5 1 2 8c-2 3-3 13-1 13q3-1 4-6l1-2 1-3q0-4 5-3 6 2 7-5 0-5 4-1 4 3 4-1 2-10-14-14l-7-2zM7 173q-3 2-5 1c-3-1-3 14 0 16 2 2 3 3 3 15l1 13h5l-1-12v-16q-2-6 6-3 9 1 2-5-4-4-4-7-1-6-7-2m72-1q-4 1-2 4 2 2-1 4l-2 6-1 7q-1 3 3 2 9-3 8 0c1 2 0 12-1 13-2 1-1 7 1 7q5-1 5-16 2-16 6-10 5 9 6 7l1-5v-4l1-4q-1-7-9-7-8-1-11-4zm92 0-4 1q-6 0-5 3l-3 4c-3 3-5 9-3 9l5-3q10-7 5 4l-6 19c-2 6-2 19-1 21q4 4 5-9l4-19q3-14 7-9 4 3 6-1l2-2 2 2q4 4 6-1 0-8-8-13l-6-6zm405 39q-8 6 1 11c5 4 6 4 4 12-3 7-3 19 0 19q2 1 2-6l4-20c2-6 8-6 9 1l2 3q3 0 0-11c-1-6 5-3 6 3q3 5 3-1-1-6-5-11l-8-1-6-1c-2-2-9-1-12 2m79 1-5 2-7 2q-9-1-9 16-2 11 1 9l3-3c3-15 10-16 9-2q-3 20 0 23 3 5 3-11l3-18q1-8 7 1 4 8 4-1 0-4-3-8-4-3-2-5 3-3 0-4zm45 3-7 4c-8 2-14 14-9 17q5 4 7-2 9-14 13 21l1 9h2q4-2 0-23c-4-15-4-16 2-14l3 2 2-4q5-7-1-10-6-6-13 0m55 0q-3 3-1 5l2 6 1 4q3 3 4-2l2-3q3-4 5 5 1 5 1-6v-10h-3q-8-2-11 1m-638 3q-4 3-9 3c-8 0-13 6-7 8q3 1 1 3-2 12 3 7 6-6 5 11 0 17 4 16l1-10c0-8 2-17 4-18l4 5 4 4q3-3 1-8-4-7 1-9l3-1v-2l-4-4-4-4q-2-6-7-1m395 9q-2 0-2 8-1 8 5 3 7-5 7 4l1 7v9l2 7q3 3 2-10c0-8 0-8 3-11q4-3 2-7v-6q3-6-5-4zm-65 1c-7 2-9 7-2 7q6-1 0 6c-3 5-5 18-3 17l6-11c3-8 10-12 8-4-1 7 5 5 7-3q3-7 6-1t4 1l-5-10-3-1c-1-2-12-2-18-1m-402 4q-2 2-10 2-13-1-4 7l4 6q0 6 3 4l2-3 2-2q5 1 9 10 2 9 5 8c2-1 2-8 0-10l-1-3-3-6q-6-8 1-8 6 0 2-5-4-4-10 0m292 0-6 3q-9 2-9 6 1 4 5 1 5-3 3 7 0 9 4 6 5-3 5 6l1 6 1 6 3 5q3 2 2-6l-3-27q3-2 7 1 6 3 5-4 0-9-9-9l-3-1zm35 2v4l3 6q0 5 5 5 7 1 9 13 1 13 4 7 3-1 1-6l-1-9q-1-7 3-7 5-1 0-5l-1-5q-2-6-9-3-2 3-7 0zm-98 13-2 9-1 6q-1 2 3 6l3 3-1 10 1 12h3l3-20c0-12 1-13 4-13l4 3 3 3c2 0 1-6-1-9q-3-5 4-5 11 1 1-5-3-3-6-1-4 2-7-1-8-6-11 2m-62-1q-4 3-6 1c-6-4-10-1-4 3 3 3 3 3-1 8q-6 6 1 8l3 2 2 1q6 0 6 6c0 5 3 16 4 16 4 0 4-3 1-27q-1-4 3-5t3-4 1-4 1-4q-3-6-14-1m529 19c-3 0-7 8-6 11l2 5q2 9 6-1 2-5 5-3v13q-1 24 2 22 2 1 2-11 1-20 6-14h6q5-2 5-6 1-5-3-3-4 1-3-3 0-3 2-3 3-2-2-5c-2-2-17-3-22-2m-255 5q-2 3-6 3-13 3-8 8l1 6-1 6h8l1 12q0 13 2 12h2l1-13v-14l4-4q8-6 4-9v-3q2-4-1-5-3-2-7 1m125 7-7 4q-10 0-6 4l1 7q-1 4 3 6 4 6 6 1 4-6 5 9 1 13 4 10 2-2-2-26 0-5 2-6 3-3 0-7-2-7-6-2m-445 1-7 1h-7q-4 1-1 6 3 2 0 4-3 6 2 6l3 1v13c0 11 0 11 2 11q3 0 3-2l1-4 1-11q1-13 5-9 5 3 5-2-2-5 3-5 3-3-1-7-5-3-9-2m462 1v3q1 2-2 4-2 4 3 4 6-2 4 7c-2 8-2 20 0 21q2 1 2-9c1-13 6-21 10-16q1 3 5 1 9 1 4-6l-4-7-2-3c-9-1-19-1-20 1m-602 8q-10 6-6 8l2 3q0 3 5 3h4l-1 5-1 8c-2 7-1 18 3 18q2 2 2-12 1-10 4-15l2 1q8 2 5-9-2-3 1-6 3-8-6-5h-4q-6-2-10 1m663 0c-7 4-8 13-1 10q9-4 7 9-2 23 1 24 3 3 3-6l1-14c0-4 7-7 12-6 7 1 0-12-7-13l-7-3q-5-3-9-1m-159 1-4 2-6 1q-5-1-5 4c-2 8-1 9 4 12s6 4 6 15q1 11 3 10t2-12c0-17 0-16 3-16q5 0 3-5-3-4 0-6c4-3-1-6-6-5m-473 1v3l-3 5-3 5q-2 2 3 2c6-1 6-1 1 13-6 13-6 15-3 15q4 0 5-7l3-7 3-8q3-7 6-1t5-1l2-5c1-2-3-7-5-7l-4-4c-2-4-8-6-10-3m335 2c-5 0-12 4-12 6 0 1 4 8 6 9l1 8 1 8v6l2 4c2 0 3-8 0-10v-3l2-6q1-11 7-10l4-1 3-2q5-1 1-6-2-6-15-3m-267 8q0 3-4 5-5 2-2 7l2 5q0 5 4 5l3 1v10l1 10q5-1 5-14 0-10 6-10 4 1 3-3l-1-3q-2-4 1-6 6-4-4-6l-7-2q-5-4-7 1m302-2-5 2q-9 0-7 7v4l3 5q4 1 3 9 0 12 3 12c2 0 2-2 3-16 0-12 1-13 3-13l3-2 5-1q6 0 0-6c-2-2-10-3-11-1m-80 2-5 3-10 2q-15 3-5 6h4l-1 7v9q3 4 4-3 4-15 10 3 2 12 7 17 7 7 2-6-3-4-4-10l-2-8v-6q2-2 8 1 4 4 5 0l-4-5q-8-6-3-7 3-7-6-3m-107 11-4 4-7 3-5 4q-2 4-14 4-9-2-12 4-3 5 0 8l3 4q1 3 4 3c4 0 5 1 5 13q0 15 4 13 3-1 2-12c-2-14 0-23 4-18q5 3 5-1c-2-7-2-6 1-11q6-7 8 0 0 6 3 5l4 2 3 1 1 1-1 1q-3 2-1 5l2 7q0 9 4 8 2-1-1-17c-3-12-3-14 0-14l3-2 4-3 3-3c0-1-5-6-7-6l-3-3c-3-4-3-4-8 0m325-1c-1 2-7 4-10 4q-9 0-8 4v10q0 10 4 1 8-11 8 3c-2 17-2 18-1 19q4 8 5-13c1-13 1-13 6-13q6 1 0-6-2-4-1-6 2-6-3-3m177 26q-3 3-8 2c-8-1-13 5-8 8q3 1 1 6 0 11 4 4 10-18 7 13-1 10 2 10l4-23q0-13 8-6l3 3v-2q0-3-4-6-7-6 0-7 2-3-3-4zm-72 4q-4 3-9 2-9 1-14 7-2 3-5 3l-5 1-5 1q-8 0-4 5l2 5-1 7 4-2q5-5 6 15 0 9 3 5l1-14c-1-15 0-17 6-15q7 3 10-4 5-10-2-4-6 5-7 1 1-4 8-7c8-1 11 6 15 33l2 6q2 2 3-2-1-6 3-7 5-1 3-6-1-2-3 1-6 2-6-4l-2-8q-2-4 1-6 2-5 6 1l4 3q4-1-2-7-7-5-2-7c4-5-4-6-10-3m-224 10-2 2-2 4q-3 1-1 4v7l-2 8-1 5c-2 2-2 8-1 8q4-2 7-11l4-12 3 3q5 4 6-2 0-10 6-3 2 3 4 1 4-6-8-11l-7-3q-4-3-6 0m55 7q-5 6 4 4 9-1 3 6c-8 6-10 14-3 9q9-8 5 10v13q3 3 4-6c0-6 4-20 6-21q3-2 5 1 7 7 3-5 0-2 2-3c7-2 2-6-7-5q-6 0-9-2-6-5-13-1m-473 3q-3 3-8 1h-6q-8 3-5 7c2 1 1 6 0 7q-2 1 1 4l5-3 3-3 2 2c2 2 2 2 1 8q-2 8 1 17l2 2q2 1 2-8 0-22 6-21 5 3 6 0l-3-4q-6-5 0-6 4-2 2-4-3-2-9 1m358 0-9 3-6 2q-1 3 1 5l1 2q0 4 5 2 5-3 7 8l1 6 1 7q-1 8 3 7t1-9l-2-14q-1-5 3-4 5-1 1-6-3-5 3-4 7 0 2-5-6-4-12 0m211 1-7 2c-5 0-9 10-4 11q3 2 0 15c-2 5 0 17 2 15l2-9q2-23 8-16 3 5 5 0l2-2 2 2q3 3 3 0 1-5-3-8-6-7-2-9 2-2-1-3-1-2-7 2m-311 4h-10c-6-3-11 2-7 6v4q-3 8 1 9l3-2c5-11 7 11 3 27v6c1 2 5-2 5-4l1-4 2-16c0-14 1-15 3-15l3 1q6 4 4-3-2-3 2-4c5-5-3-10-10-5m-170 3 1 3q3 2-1 6-5 7-1 11l1 14c0 10 0 11 2 11q3 0 4-13 0-20 7-14 3 5 8-3l3-5-2-3q-1-4-6-5l-6-3c-2-2-9-1-10 1m204 0-4 1 2 3q2 3-2 6-5 9 3 5h3c1 2 0 14-1 16-4 4-6 15-3 15 2 0 6-8 6-12l1-3 1-6q0-5 2-5l1-2q1-3 5 0l3 1v-6q-3-4 0-5 1-1 3 2 6 4 4-3-2-6-11-6l-7-1q-2-3-6 0m-158 3 1 3q4 3-2 8-7 7-4 10 2 2 6-3 8-8 9-1l1 13c0 13 0 15 3 15 2 0 2-1 2-12q0-21 3-19l3 2 3 1q5-2-1-8l-2-6c1-4 1-4-10-3zm-87 21q-2 3-8 2-9 0-8 9 1 10 4 6 4-5 5 2 0 16 4 24t4-1c-2-25-1-29 4-24s7-3 2-8q-4-5 0-8l1-3q-2-5-8 1m141 17-8 1q-7 0-5 5l1 6q-1 7 2 5 7-5 5 9-3 13 1 13 4 1 5-13c1-10 2-10 6-10q6-1 1-7-4-4 1-5t1-5q-2-2-10 1m129-1c-6 2-10 11-5 11l1 4q-1 5 3 6c4 2 3 1 1 14l3 15 3-15q1-21 5-22 4 0 5 5l2 1q2 0 2-7v-7q2-2-7-4l-7-1zm413 2-6 2q-8 1-6 6v12h3l4 2q3 2 4-1t4-2l2 13q0 13 2 12 3 1 2-18v-13q3-2 0-6-5-5-2-8c2-2-4-1-7 1m-289 2q-5 0-5 8l-1 5h8v13c0 14 0 16 3 16l1-8 2-18q1-6 6-2 4 3 3-5 0-4 2-5 3-1 1-3c-2-1-17-2-20-1m193 7h-7q-8 1-10 8 0 8 5 2 0-2 3-2 4-2-2 13c-3 8-5 19-3 21q3 4 4-8 3-17 7-11 2 3 5-1l4-3q3-1 2-6c0-8-5-16-8-13m20 4q-6 8 0 9l2 5q0 7 4 6l3 1 1 13q1 13 3 12l1-19q-1-30 8-16l4 2q3-1-2-6t-2-8q4-4-10-4h-9zm-106 1q-2 4-6 4c-7 3-11 12-6 12q3 0 5 4 3 7 5-3 1-6 4-5 4 0 7 14c2 15 3 17 6 16 1-1 1-1-2-14q-3-15-1-18 1-4-3-5l-2-3q-1-8-7-2m-147 5-6 5q-6 3-7 10v4h3q3-2 3 1 3 4 5-1c2-8 7 2 9 17q0 7 3 6c2 0 2-10 0-14l-4-16q0-5 4-1 3 3 4-1-1-5-5-8-2 0-3-3-3-5-6 1m-384 2-5 3-3 1q-7 1-8 5l1 8q-1 5 3 6l3 3q2 6 5 1 4-5 6 8l1 9q3 4 4 0c0-6 0-16-2-19q-4-11 2-11 6-1 0-6-4-1-3-4 2-9-4-4m477 2-8 3q-8 2-2 9 3 6 5 3 4-5 5 13l2 10q4 3 3-12l-1-9 3-1q5-1 1-5-2-5 1-7c5-4-2-6-9-4m-396 1q-3 0 2 5l2 2-2 3q-5 7 0 9l3 1v12q0 18 4 16c2 0 2-1 2-12 0-18 1-21 4-22l3 1q2 3 3-1v-4l1-5q4-5-11-5zm258 2v3l-1 5q-3 3 2 3c2 1 3 1 3 14v15q4 1 4-12-1-14 6-11 3 1 3-2 0-7 3-6 6-1 1-6c-4-5-20-7-21-3m-80 6c-6 1-10 6-8 7l5 4 5 2c2 0 2-1 2 14q0 19 5 19 3 1 1-5-3-21 5-27l4-3 3-2c5 0 5-5-1-6l-8-1c-7-3-8-3-13-2m-41 2-6 1q-12-1-12 8 1 9 3 8 4-2 7 1 2 1 2 12 1 17 5 11l1-13v-12l3-1q3 0 4-3t3-3 2-3c0-5-8-9-12-6m-75 7q-4 1-6 4l-7 3q-7 0-8 5-2 5 3 4 3-1 3 3l3 4q1 1 4-4 4-4 7 14 2 13 6 12l1-5c0-7-2-18-3-20q-2-6 3-3 7 2 4-3-2-4 1-6 4-3-2-7c-5-3-5-3-9-1m-99 38q-2 3-9 4-14 4-6 8 3 2 3 5 1 7 5 1 6-9 10 2 1 4 4 4t0-9q-2-7 4-5 10 1 0-6l-6-5q-2-4-5 1m557 0q-7 1-4 7l2 6q1 6 10 5 3-1 4 3 4 6 5-1 0-6 3-3 4 1 4-2v-2q6-7-7-11l-5-1q-4-2-12-1m-189 2h-12q-12-2-11 3 0 2 5 2 9 0 1 7-7 7 0 5 4-1 4 2 2 7 6-1 3-8 9-2 9 6 1-6-2-6 1-7 5-1 3-3-3-3-7 0m-108 7q-5 6-8 5-9 2-11 8 1 3 6 1h3l11 1h10l-2-3-3-5q-3-5 1-6 9 0 6-3-6-5-13 2m53 2-7 1q-10 0-10 6l-1 5q-2 1 13 1h15l-3-4q-5-7 2-7v-3q-4-2-9 1m297-1-4 4q-3 3-7 3-7 2-10 5c-1 2-1 2 15 2h17l-3-2-5-2-3-2q-2-4 5-5 4 0 3-3zm-438 5-7 7-4 2h17l13-1q-12-2-13-9-1-6-6 1m272-2-8 2q-9 1-11 4 1 3 5 1 5-1 6 2c0 2 1 2 11 2h11l-3-3q-5-4-3-6 4-4-2-4zm41 4c-6 7-5 7 13 7h16l-2-3q-1-6-15-7h-8zm163-1-3 2 1 3 1 3h12c10 0 11 0 11-2l3-1q4 1 4-2c0-4-8-5-13-2h-8c-6-2-6-2-8-1"
        mask="url(#16282281824-posters-1720553677482-horizontal-mask)" itemprop="bold" fill-opacity="0.90"
        fill-rule="evenodd" stroke="none" fill="url(#16282281824-posters-1720553677482-vertical-bold)"></path>
    </pattern>
    <rect id="16282281824-posters-1720553677482-pattern-render" fill="url(#16282281824-posters-1720553677482-pattern)"
      width="100%" height="100%"></rect>
  </defs>
  <radialGradient id="lightbar" cx="50%" cy="200%" fy="0" r="201%">
    <stop offset="0%" style="stop-color: rgb(255, 255, 255); stop-opacity: 0.1;"></stop>
    <stop offset="10%" style="stop-color: rgb(0, 0, 0); stop-opacity: 0.1;"></stop>
    <stop offset="30%" style="stop-color: rgb(0, 0, 0); stop-opacity: 0.3;"></stop>
    <stop offset="90%" style="stop-color: rgb(0, 0, 0); stop-opacity: 0.55;"></stop>
    <stop offset="100%" style="stop-color: rgb(0, 0, 0); stop-opacity: 0.6;"></stop>
  </radialGradient>
  <g class="radial">
    <radialGradient id="16282281824-posters-1720553677482-radial" gradientUnits="userSpaceOnUse">
      <stop itemprop="radial" stop-color="#ceccca" offset="0%"></stop>
      <stop itemprop="radial" stop-color="#cdcccb" offset="15%"></stop>
      <stop itemprop="radial" stop-color="#cbcac8" offset="30%"></stop>
      <stop itemprop="radial" stop-color="#d0cfce" offset="45%"></stop>
      <stop itemprop="radial" stop-color="#cdcccb" offset="60%"></stop>
      <stop itemprop="radial" stop-color="#c8c7c6" offset="75%"></stop>
      <stop itemprop="radial" stop-color="#d0cfce" offset="90%"></stop>
    </radialGradient>
    <radialGradient id="16282281824-posters-1720553677482-radial-background" gradientUnits="userSpaceOnUse">
      <stop stop-color="#d3cec5" offset="0%"></stop>
      <stop stop-color="#d3cdc5" offset="15%"></stop>
      <stop stop-color="#d3cdc5" offset="30%"></stop>
      <stop stop-color="#d3cdc5" offset="45%"></stop>
      <stop stop-color="#d3cdc5" offset="60%"></stop>
      <stop stop-color="#d3cec5" offset="75%"></stop>
      <stop stop-color="#d3cdc5" offset="90%"></stop>
    </radialGradient>
    <radialGradient id="16282281824-posters-1720553677482-radial-light" gradientUnits="userSpaceOnUse">
      <stop stop-color="#9c9a96" offset="0%"></stop>
      <stop stop-color="#9b9997" offset="15%"></stop>
      <stop stop-color="#9b9997" offset="30%"></stop>
      <stop stop-color="#9b9997" offset="45%"></stop>
      <stop stop-color="#9b9997" offset="60%"></stop>
      <stop stop-color="#9b9a97" offset="75%"></stop>
      <stop stop-color="#9b9997" offset="90%"></stop>
    </radialGradient>
    <radialGradient id="16282281824-posters-1720553677482-radial-regular" gradientUnits="userSpaceOnUse">
      <stop stop-color="#83817c" offset="0%"></stop>
      <stop stop-color="#82807d" offset="15%"></stop>
      <stop stop-color="#82807d" offset="30%"></stop>
      <stop stop-color="#82807d" offset="45%"></stop>
      <stop stop-color="#82807d" offset="60%"></stop>
      <stop stop-color="#82807d" offset="75%"></stop>
      <stop stop-color="#82807d" offset="90%"></stop>
    </radialGradient>
    <radialGradient id="16282281824-posters-1720553677482-radial-medium" gradientUnits="userSpaceOnUse">
      <stop stop-color="#51504d" offset="0%"></stop>
      <stop stop-color="#514f4d" offset="15%"></stop>
      <stop stop-color="#514f4d" offset="30%"></stop>
      <stop stop-color="#514f4d" offset="45%"></stop>
      <stop stop-color="#514f4d" offset="60%"></stop>
      <stop stop-color="#51504d" offset="75%"></stop>
      <stop stop-color="#514f4d" offset="90%"></stop>
    </radialGradient>
    <radialGradient id="16282281824-posters-1720553677482-radial-bold" gradientUnits="userSpaceOnUse">
      <stop stop-color="#2f2e2d" offset="0%"></stop>
      <stop stop-color="#2f2e2d" offset="15%"></stop>
      <stop stop-color="#2f2e2d" offset="30%"></stop>
      <stop stop-color="#2f2e2d" offset="45%"></stop>
      <stop stop-color="#2f2e2d" offset="60%"></stop>
      <stop stop-color="#2f2e2d" offset="75%"></stop>
      <stop stop-color="#2f2e2d" offset="90%"></stop>
    </radialGradient>
  </g>
  <g class="vertical">
    <linearGradient id="16282281824-posters-1720553677482-vertical" gradientUnits="userSpaceOnUse" x1="0" x2="0" y1="0"
      y2="100%">
      <stop itemprop="vertical" stop-color="#cdcccb" offset="0%"></stop>
      <stop itemprop="vertical" stop-color="#cdcccb" offset="15%"></stop>
      <stop itemprop="vertical" stop-color="#cbcac8" offset="30%"></stop>
      <stop itemprop="vertical" stop-color="#d0cfcd" offset="45%"></stop>
      <stop itemprop="vertical" stop-color="#cdcccb" offset="60%"></stop>
      <stop itemprop="vertical" stop-color="#c9c8c5" offset="75%"></stop>
      <stop itemprop="vertical" stop-color="#d0cfce" offset="90%"></stop>
    </linearGradient>
    <linearGradient id="16282281824-posters-1720553677482-vertical-background" gradientUnits="userSpaceOnUse" x1="0"
      x2="0" y1="0" y2="100%">
      <stop stop-color="#cdcccb" offset="0%"></stop>
      <stop stop-color="#cdcccb" offset="15%"></stop>
      <stop stop-color="#cdcccb" offset="30%"></stop>
      <stop stop-color="#ceccca" offset="45%"></stop>
      <stop stop-color="#cdcccb" offset="60%"></stop>
      <stop stop-color="#cecdca" offset="75%"></stop>
      <stop stop-color="#cdcccb" offset="90%"></stop>
    </linearGradient>
    <linearGradient id="16282281824-posters-1720553677482-vertical-light" gradientUnits="userSpaceOnUse" x1="0" x2="0"
      y1="0" y2="100%">
      <stop stop-color="#aea284" offset="0%"></stop>
      <stop stop-color="#ae9d84" offset="15%"></stop>
      <stop stop-color="#ae9d84" offset="30%"></stop>
      <stop stop-color="#ae9f84" offset="45%"></stop>
      <stop stop-color="#ae9d84" offset="60%"></stop>
      <stop stop-color="#aea284" offset="75%"></stop>
      <stop stop-color="#ae9d84" offset="90%"></stop>
    </linearGradient>
    <linearGradient id="16282281824-posters-1720553677482-vertical-regular" gradientUnits="userSpaceOnUse" x1="0" x2="0"
      y1="0" y2="100%">
      <stop stop-color="#82817d" offset="0%"></stop>
      <stop stop-color="#82807d" offset="15%"></stop>
      <stop stop-color="#82807d" offset="30%"></stop>
      <stop stop-color="#83817c" offset="45%"></stop>
      <stop stop-color="#82807d" offset="60%"></stop>
      <stop stop-color="#83817c" offset="75%"></stop>
      <stop stop-color="#82807d" offset="90%"></stop>
    </linearGradient>
    <linearGradient id="16282281824-posters-1720553677482-vertical-medium" gradientUnits="userSpaceOnUse" x1="0" x2="0"
      y1="0" y2="100%">
      <stop stop-color="#51504d" offset="0%"></stop>
      <stop stop-color="#514f4d" offset="15%"></stop>
      <stop stop-color="#514f4d" offset="30%"></stop>
      <stop stop-color="#51504d" offset="45%"></stop>
      <stop stop-color="#514f4d" offset="60%"></stop>
      <stop stop-color="#51504d" offset="75%"></stop>
      <stop stop-color="#514f4d" offset="90%"></stop>
    </linearGradient>
    <linearGradient id="16282281824-posters-1720553677482-vertical-bold" x1="0" x2="0" y1="0" y2="100%">
      <stop stop-color="#2f2e2d" offset="0%"></stop>
      <stop stop-color="#2f2e2d" offset="15%"></stop>
      <stop stop-color="#2f2e2d" offset="30%"></stop>
      <stop stop-color="#2f2e2d" offset="45%"></stop>
      <stop stop-color="#2f2e2d" offset="60%"></stop>
      <stop stop-color="#2f2e2d" offset="75%"></stop>
      <stop stop-color="#2f2e2d" offset="90%"></stop>
    </linearGradient>
  </g>
  <g class="horizontal">
    <linearGradient id="16282281824-posters-1720553677482-horizontal" x1="0" x2="100%" y1="0" y2="0"
      gradientUnits="userSpaceOnUse">
      <stop itemprop="horizontal" stop-color="#ceccca" offset="0%"></stop>
      <stop itemprop="horizontal" stop-color="#cbcac8" offset="15%"></stop>
      <stop itemprop="horizontal" stop-color="#cdcccb" offset="30%"></stop>
      <stop itemprop="horizontal" stop-color="#c9c8c5" offset="45%"></stop>
      <stop itemprop="horizontal" stop-color="#d2d1d0" offset="60%"></stop>
      <stop itemprop="horizontal" stop-color="#c6c5c3" offset="75%"></stop>
      <stop itemprop="horizontal" stop-color="#cdcccb" offset="90%"></stop>
    </linearGradient>
    <linearGradient id="16282281824-posters-1720553677482-horizontal-background" gradientUnits="userSpaceOnUse" x1="0"
      x2="100%" y1="0" y2="0">
      <stop stop-color="#ceccca" offset="0%"></stop>
      <stop stop-color="#cdcccb" offset="15%"></stop>
      <stop stop-color="#cdcccb" offset="30%"></stop>
      <stop stop-color="#cecdca" offset="45%"></stop>
      <stop stop-color="#cdcccb" offset="60%"></stop>
      <stop stop-color="#cdcccb" offset="75%"></stop>
      <stop stop-color="#cdcccb" offset="90%"></stop>
    </linearGradient>
    <linearGradient id="16282281824-posters-1720553677482-horizontal-light" gradientUnits="userSpaceOnUse" x1="0"
      x2="100%" y1="0" y2="0">
      <stop stop-color="#9c9a96" offset="0%"></stop>
      <stop stop-color="#9b9997" offset="15%"></stop>
      <stop stop-color="#9b9997" offset="30%"></stop>
      <stop stop-color="#9c9a96" offset="45%"></stop>
      <stop stop-color="#9b9a97" offset="60%"></stop>
      <stop stop-color="#9b9a97" offset="75%"></stop>
      <stop stop-color="#9b9997" offset="90%"></stop>
    </linearGradient>
    <linearGradient id="16282281824-posters-1720553677482-horizontal-regular" gradientUnits="userSpaceOnUse" x1="0"
      x2="100%" y1="0" y2="0">
      <stop stop-color="#968669" offset="0%"></stop>
      <stop stop-color="#968469" offset="15%"></stop>
      <stop stop-color="#968469" offset="30%"></stop>
      <stop stop-color="#968969" offset="45%"></stop>
      <stop stop-color="#968969" offset="60%"></stop>
      <stop stop-color="#968769" offset="75%"></stop>
      <stop stop-color="#968469" offset="90%"></stop>
    </linearGradient>
    <linearGradient id="16282281824-posters-1720553677482-horizontal-medium" gradientUnits="userSpaceOnUse" x1="0"
      x2="100%" y1="0" y2="0">
      <stop stop-color="#5d5341" offset="0%"></stop>
      <stop stop-color="#5d5241" offset="15%"></stop>
      <stop stop-color="#5d5241" offset="30%"></stop>
      <stop stop-color="#5d5541" offset="45%"></stop>
      <stop stop-color="#5d5541" offset="60%"></stop>
      <stop stop-color="#5d5441" offset="75%"></stop>
      <stop stop-color="#5d5241" offset="90%"></stop>
    </linearGradient>
    <linearGradient id="16282281824-posters-1720553677482-horizontal-bold" gradientUnits="userSpaceOnUse" x1="0"
      x2="100%" y1="0" y2="0">
      <stop stop-color="#2f2e2d" offset="0%"></stop>
      <stop stop-color="#2f2e2d" offset="15%"></stop>
      <stop stop-color="#2f2e2d" offset="30%"></stop>
      <stop stop-color="#2f2e2d" offset="45%"></stop>
      <stop stop-color="#2f2e2d" offset="60%"></stop>
      <stop stop-color="#2f2e2d" offset="75%"></stop>
      <stop stop-color="#2f2e2d" offset="90%"></stop>
    </linearGradient>
  </g>
  <g class="masks">
    <mask id="16282281824-posters-1720553677482-pattern-mask" maskUnits="userSpaceOnUse"
      maskContentUnits="userSpaceOnUse">
      <pattern id="pattern" x="0" y="0" width=".0133" height=".0144" viewBox="0 0 23.07 40">
        <path
          d="M17.62 0l-6.07 10.5m2.74 4.76L8.22 4.75m-5.48 0h12.13M.01 0h23.07M6.07 20L0 9.5m2.74-4.75l-6.07 10.5m-5.48 0H3.33m8.2 4.75L0 .02-11.54 20m40.68 0L23.07 9.5m2.74-4.75l-6.06 10.5m-5.49 0H26.4M34.6 20L23.08.02 11.53 20m-5.46 0L0 30.51m2.74 4.75l-6.07-10.5m-5.48 0H3.33m8.2-4.75L0 40l-11.54-19.98zM17.6 40l-6.06-10.5m2.74-4.76L8.2 35.25m-5.48 0h12.13M0 40h23.07L11.54 20.01m17.6 0l-6.07 10.5m2.74 4.75l-6.06-10.5m-5.49 0H26.4M11.53 20h23.08L23.07 40"
          stroke-linecap="round" stroke-width="3.5" stroke="white"
          fill="url(#16282281824-posters-1720553677482-horizontal-background)"></path>
      </pattern>
      <rect width="100%" height="100%" fill="url(#pattern)"></rect>
    </mask>
    <mask id="16282281824-posters-1720553677482-horizontal-mask" maskUnits="userSpaceOnUse"
      maskContentUnits="userSpaceOnUse">
      <rect width="100%" height="100%" fill="url(#16282281824-posters-1720553677482-horizontal-background)"></rect>
    </mask>
    <mask id="16282281824-posters-1720553677482-radial-mask" maskUnits="userSpaceOnUse"
      maskContentUnits="userSpaceOnUse">
      <rect width="100%" height="100%" fill="url(#16282281824-posters-1720553677482-radial-background)"></rect>
    </mask>
    <mask id="16282281824-posters-1720553677482-vertical-mask" maskUnits="userSpaceOnUse"
      maskContentUnits="userSpaceOnUse">
      <rect width="100%" height="100%" fill="url(#16282281824-posters-1720553677482-vertical-background)"></rect>
    </mask>
  </g>
  <use href="#16282281824-posters-1720553677482-pattern-render"></use>
  <g>
    <use href="#16282281824-posters-1720553677482-background"></use>
    <use href="#16282281824-posters-1720553677482-light"></use>
    <use href="#16282281824-posters-1720553677482-regular"></use>
    <use href="#16282281824-posters-1720553677482-medium"></use>
    <use href="#16282281824-posters-1720553677482-bold"></use>
  </g>
  <g itemprop="animation">
    <animate href="#16282281824-posters-1720553677482-light" attributeName="stroke-opacity" repeatCount="indefinite"
      dur="5s" values="0.9;0.0;0.9"></animate>
    <animate href="#16282281824-posters-1720553677482-regular" attributeName="stroke-opacity" repeatCount="indefinite"
      dur="4s" values="0.9;0;0.9"></animate>
    <animate href="#16282281824-posters-1720553677482-medium" attributeName="stroke-opacity" repeatCount="indefinite"
      dur="5s" values="0.9;0;0.9"></animate>
    <animate href="#16282281824-posters-1720553677482-bold" attributeName="stroke-opacity" repeatCount="indefinite"
      dur="3s" values="0.9;0;0.9"></animate>
    <animate href="#16282281824-posters-1720553677482-regular" attributeName="fill-opacity" repeatCount="indefinite"
      dur="8s" values="0.9;0.75;0.95;0.8;0.9;"></animate>
    <animate href="#16282281824-posters-1720553677482-radial-background" attributeName="cx" repeatCount="indefinite"
      dur="34s" values="0%;33%;100%;0%;100%;0%;"></animate>
    <animate href="#16282281824-posters-1720553677482-radial-background" attributeName="cy" repeatCount="indefinite"
      dur="55s" values="0%;100%;33%;100%;66%;0%"></animate>
    <animate href="#16282281824-posters-1720553677482-vertical-light" attributeName="x1" repeatCount="indefinite"
      dur="55s" values="0%;33%;100%;0%;133%;0%;"></animate>
    <animate href="#16282281824-posters-1720553677482-vertical-light" attributeName="y1" repeatCount="indefinite"
      dur="86s" values="0%;100%;33%;100%;66%;0%"></animate>
    <animate href="#16282281824-posters-1720553677482-horizontal-regular" attributeName="x1" repeatCount="indefinite"
      dur="34s" values="0%;100%;66%;0%;33%;133%;0%"></animate>
    <animate href="#16282281824-posters-1720553677482-horizontal-regular" attributeName="y1" repeatCount="indefinite"
      dur="55s" values="0%;66%;100%;33%;100%;66%;0%"></animate>
    <animate href="#16282281824-posters-1720553677482-vertical-medium" attributeName="x1" repeatCount="indefinite"
      dur="34s" values="0%;100%;66%;0%;33%;133%;0%"></animate>
    <animate href="#16282281824-posters-1720553677482-vertical-medium" attributeName="y1" repeatCount="indefinite"
      dur="55s" values="0%;66%;100%;33%;100%;66%;0%"></animate>
    <animate href="#16282281824-posters-1720553677482-vertical-bold" attributeName="x1" repeatCount="indefinite"
      dur="34s" values="0%;100%;66%;0%;33%;133%;0%"></animate>
    <animate href="#16282281824-posters-1720553677482-vertical-bold" attributeName="y1" repeatCount="indefinite"
      dur="55s" values="0%;66%;100%;33%;100%;66%;0%"></animate>
  </g>
</svg>
