<svg id="16282281824-posters-1720558121129" itemscope="" itemtype="/posters"
  itemid="/+16282281824/posters/1720558121129" viewBox="0 0 769 512" preserveAspectRatio="xMidYMid meet" tabindex="0"
  class="animate landscape" xmlns="http://www.w3.org/2000/svg">
  <!---->
  <defs class="graphic">
    <pattern id="16282281824-posters-1720558121129-pattern" width="769" height="512" viewBox="0 0 769 512"
      patternUnits="userSpaceOnUse" preserveAspectRatio="xMidYMid meet">
      <rect itemprop="background" width="769" height="512" tabindex="-1"
        id="16282281824-posters-1720558121129-background" fill-opacity="1"
        fill="url(#16282281824-posters-1720558121129-radial-background)"></rect>
      <!---->
      <path id="16282281824-posters-1720558121129-light"
        d="M126 4q0 5-5 6c-9 2-9 8-1 8q7-1 6 6 0 8 5 9 5 0 5-10-1-5 7-5c7 0 9-5 4-7l-6-2q-5 0-5-4 1-5-6-5h-4zm139-1q0 6-5 6l-5 2c-5 2-3 7 2 7q8-1 8 7c1 11 7 11 9 0q0-8 6-6 6-1 8-5 0-3-9-5-6 1-5-6 1-4-4-3-6-1-5 3m138 1v4l-6 2c-11 2-11 9 0 9q6-1 6 7c1 8 7 10 8 3q0-11 8-11c9-1 9-8-1-8q-8 1-7-6V0h-4q-5-1-4 4m139-2-1 4q1 4-6 4-5 1-6 4 0 6 6 5 7-1 6 7c0 10 9 11 9 1q0-8 8-8c8-1 10-7 2-8q-9 0-9-5 1-7-5-6-4 0-4 2m139 0-1 4q0 5-8 6c-7 0-8 6-1 7 9 2 8 2 9 8 1 10 7 11 9 1q0-9 4-7c10 0 13-8 3-10q-8-1-8-8c0-3-6-4-7-1M0 14v4h5c7 0 10-5 4-7q-9-6-9 3m59 52-1 5q0 6-5 6-7 0-7 5-1 4 5 4 8 1 7 9 1 4 4 6 4-2 5-8-1-8 6-7 8 0 9-3 0-5-8-6-8 1-7-6-2-10-8-5m276-1-1 4-2 6q0 3-4 2-6 0-7 5 2 4 8 5 7 2 5 8-1 4 3 6 5 1 6-8 0-6 3-6 10-1 10-5t-7-5-7-7c0-4-5-7-7-5m-138 3-2 5q0 4-5 4-7 0-7 5-1 3 6 4l6 2v4c1 11 10 12 10 0q-2-5 10-7c7-1 5-8-3-8q-6 0-7-5-2-10-8-4m276 0-1 4q1 5-7 5c-10 2-8 10 2 10q5 1 5 10 1 6 6 4 3-1 3-8-1-7 6-6c6 0 11-4 7-7l-6-2q-6 1-7-6-3-10-8-4m139 0-2 6q0 5-5 4-10 1-7 8l6 1q7-1 6 8c0 11 9 10 9-2l1-4 5-1c12-2 11-8-1-10l-4-1-1-4q-1-11-7-5m139 0-2 5q0 6-8 7c-9 1-7 8 3 8q5 0 5 8 0 5 2 6 6 3 6-8 1-7 7-6 6 0 5-4 1-4-2-4h-3q-6-1-6-7-2-9-7-5m-624 65-1 6q0 6-4 5c-11 1-13 8-3 10q8-1 7 6 1 7 4 7 5-1 5-7-1-6 7-7 9 0 8-3-1-6-8-6-7 1-6-3c1-5-6-11-9-8m138 1-1 6-3 4c-11 0-14 8-3 10q6 0 6 7c0 10 8 10 10 0q0-7 5-8 9 1 8-2 3-5-6-6-9-2-7-6-3-11-9-5m139-1-2 6q-1 6-4 6-16 3-3 9 7 1 7 7 1 8 4 7 5-1 5-8 1-5 7-6c8 0 9-7 1-8q-8 0-8-7-1-9-7-6m138 1-2 6q0 6-6 6-7 1-6 5-1 2 8 4 5 0 4 6 1 7 5 7 3 1 4-7l2-5 5-1q11-2 6-7-2-2-7-2-5 1-5-3-3-13-8-9m139 1-2 5c-1 7-1 6-6 7-11 1-11 7 0 9q6-1 5 3c0 12 9 14 10 2q-1-7 5-5c2 0 7-2 7-4q3-5-11-6l-1-4q0-9-7-7M0 150v4h4c11-1 11-9 0-9H0zm197 51-2 6v4l-6 1c-11 2-10 10 2 10q4-1 4 6 1 7 4 8 4-1 5-8-1-7 7-6c12-2 11-8-1-10q-5 0-5-3-1-10-8-8m137 1-2 6q1 5-4 4c-10 2-11 9-1 10l4 1 1 5c2 11 9 11 10 0l1-5 5-1q9-1 8-5 1-2-8-5l-5-1-1-4q-2-12-8-5m139-1-2 6q0 6-6 6-14 6 1 9 4 0 4 4c1 13 8 15 10 3l2-6 5-1c11-1 10-8-2-9q-4 0-5-5-2-10-7-7m-415 1-1 5q0 5-5 5c-11 0-10 9 0 10l5 1v5q5 14 8 3c2-10 2-9 7-9q8 0 9-5 1-3-8-4-7-2-6-5-2-10-9-6m553 2-2 6q0 4-7 4c-8 1-8 8-1 8q8 0 8 7c0 9 6 11 8 3l2-7q-1-3 6-3c9-1 9-7 1-7q-7-1-8-5l-1-4q-1-7-6-2m137 4-2 5-5 2q-7 0-6 4-1 4 3 3l9 3 1 5c2 10 8 11 8 1q0-8 6-8 7 0 7-4 1-4-6-4-7-1-7-7t-4-5q-3-1-4 5m-621 60-1 5q-1 9-6 7l-6 3-2 2 2 3 6 2q4 0 5 8 4 11 9 1c1-9 1-8 7-9l7-2 2-3-2-2q-2-3-7-3h-5l-1-5q-3-10-8-7m138 1-2 6-1 4-5 1c-10 2-9 9 2 10l4 1v5q1 8 5 8t5-8l1-5 5-1c10-1 11-8 1-10q-8 1-7-5-2-10-8-6m138 1q-2 1-2 5 0 6-7 6-6 1-6 6 2 2 9 3 4 0 4 5c1 12 8 12 9 0l1-5h4q10 0 10-4 0-5-6-5-8 1-8-6-2-10-8-5m138 1-1 4q-1 6-6 6-6 0-7 5 1 4 7 4t6 7q1 7 3 7 5-1 5-8-1-7 6-6 8 0 8-5-1-3-8-4-4 1-5-7-4-8-8-3m139 0-2 6q1 4-6 4c-10 1-11 8 0 9q7 1 6 7 1 11 7 5l2-5q-1-7 7-7c8-1 9-6 0-7q-8 0-7-7-1-10-7-5M0 284q0 6 2 5c11 0 13-7 3-9H0zm58 52-1 5q1 6-6 6-6 2-8 6 2 3 9 4 4-1 5 10c1 7 7 5 9-3q0-8 6-7 8 0 9-5 0-3-9-5-4 1-6-5-3-11-8-6m138 0-2 6q0 5-3 5l-3 1-4 1q-5 3-1 7l5 1q6-1 6 8c2 10 10 6 10-4q1-3 7-4c5 0 9-6 6-8l-7-1-5-2-1-4q-2-10-8-6m138 1-2 5q1 6-5 5c-11 2-12 10-2 10q7 0 7 8 1 11 7 5l2-5q0-8 7-8c10 0 11-7 2-9-8-1-8-1-8-6q-2-11-8-5m138 1-2 5q0 6-7 6-6 0-6 4 1 4 7 4 5-1 6 6c1 11 9 11 9 0q-1-7 7-6c9-1 10-7 1-8q-9 0-8-7-1-10-7-4m138-1-1 6q-1 9-6 6-8 0-8 5-1 2 8 4 6-1 6 6c0 8 6 9 7 1q1-7 7-7 9-1 8-4 0-5-8-5-7 0-6-6-1-9-7-6m139 1-2 6q0 6-5 5c-8 0-12 6-6 9l7 1q4 0 4 8 1 5 5 6 3-1 4-9l1-4 5-1q8 0 7-5 1-3-8-5-5 1-5-5-1-10-7-6m-623 68q-2 3-1 4 1 4-6 6c-10 1-10 8 0 9q6-1 5 6 1 9 4 8 5 0 6-7-1-8 6-7c11 0 11-8 0-9q-6 0-7-10c-1-4-6-4-7 0m138-2-1 6v4l-6 1c-10 2-10 10 0 10q7-1 6 6c0 10 6 11 9 2l2-7 4-1q8 0 9-4-1-5-8-5t-6-5q-4-11-9-7m139 1-3 6q0 6-5 5-6 1-8 4 1 5 7 5 7-1 6 6 0 7 5 8 4-1 5-9 0-5 6-5 7 0 8-4-1-5-7-5-7 0-7-5-1-10-7-6m137 2-2 6-3 3q-6 0-7 4-3 5 5 5l4 1 2 5q2 11 6 8 3-1 2-5 0-9 7-9c11 0 11-7 0-9q-8 1-6-5l-2-6q-4-5-6 2m139-1-2 5q0 5-5 6-10 0-9 5c1 3 1 3 11 5l3 4q0 10 5 9 3 1 4-7 0-8 11-8 4-1 2-6l-6-2c-5-1-5-1-7-8q-3-8-7-3M0 421v4h4c8-2 8-9-1-9q-4-1-3 5m196 51-2 5q-1 7-6 6c-11 0-10 8 0 10q5 0 5 6 4 17 10 0l2-5 4-1q10-1 8-7-1-3-9-3-3 1-5-6-3-11-7-5m137-1-2 6q0 7-5 6c-9 0-10 7-2 9q8 2 7 9 0 5 5 6 3 0 5-8 0-7 5-6c10 0 11-8 1-10q-7 0-6-5-2-10-8-7m138 2-2 6q2 4-7 4-11 5 1 9l6 1v4c0 12 7 13 9 2q1-7 5-6 8-2 9-5 0-4-5-4-8 0-8-6-2-10-8-5m-414 0-1 5q-1 5-6 5c-10 1-10 7-1 9q8 1 7 7 0 8 5 8 4 0 4-8-1-7 7-6c10 0 11-8 1-10q-9 1-8-5c0-5-6-9-8-5m552 1-2 5q1 6-5 5-6 0-7 2l-2 2 3 3 6 2 4 1 2 6q2 9 6 5 2-1 2-5-1-7 6-7 8 0 8-5-1-4-8-4-5 1-6-7c-1-5-6-7-7-3m138 1-1 4q0 6-6 5-8 1-7 6 1 4 5 3 8-1 8 6c0 8 7 10 9 2q1-9 6-8c10 0 9-8-1-9q-3 1-5-5-3-13-8-4"
        mask="url(#16282281824-posters-1720558121129-horizontal-mask)" itemprop="light" fill-opacity="0.90"
        fill-rule="evenodd" stroke="none" fill="url(#16282281824-posters-1720558121129-vertical-light)"></path>
      <!---->
      <path id="16282281824-posters-1720558121129-regular"
        d="M126 5q0 5-5 5c-9 2-7 8 2 8q4-1 3 4c2 10 2 10 5 10q3 0 4-8-1-7 8-7 7 0 6-4l-5-3q-9 0-9-6 0-4-4-4-5-1-5 5m140-2q0 7-7 7c-8 1-8 8 0 8q7-1 7 7c1 10 6 10 7 0q1-8 6-7 7 0 8-4-1-3-9-4-5-1-5-5 1-6-3-5-5-1-4 3m138-1-1 4q1 4-9 5c-7 1-4 7 3 7q7-1 6 6 0 8 4 8t4-6q-1-7 9-9 6 0 5-3 0-3-7-3-8 1-7-7 1-5-3-4-4 0-4 2m139 0-1 4q0 5-7 5c-9 0-8 7 2 8q4 0 4 5 2 11 5 9 3 1 3-5c2-8 2-8 8-9 10-1 10-8 0-8q-7 0-7-7 1-5-3-4-4 0-4 2m137 3q1 7-7 7c-8 1-8 7-1 7q9 0 8 7c1 10 7 11 8 1q-1-8 7-7c8-1 9-8 0-8q-7 0-7-8 1-5-3-4-5-1-5 5M0 14v4h4c10-1 9-8-1-8q-4-1-3 4m60 52-2 6q0 5-5 6c-9 1-10 6-1 7q7 0 6 8c2 9 8 9 8 0q-1-8 9-8 5 1 6-2 0-5-6-5-8 1-9-6t-3-7zm275 1-1 5q0 6-7 6-4-1-5 3t6 5q6 0 7 8 0 8 2 6 6 0 5-8-1-5 8-6 14-5-3-8-5-1-5-6c0-6-5-9-7-5m-137 1-2 5q0 3-7 5c-8 1-8 7 0 7q6 0 7 8c0 10 7 10 9 0q0-8 8-8c7 0 8-5 1-7l-6-1q-3-1-3-5-3-10-7-4m275 1-1 5q0 4-6 4t-7 5q1 2 7 3t6 7q0 10 5 7 4-1 3-6 0-8 7-8c10 0 11-6 1-8q-9-1-7-6c0-1-3-6-5-6zm140-1-2 6q-1 5-6 5-15 3 0 8 6-1 6 8c1 10 6 10 7-1q1-8 7-7c9 0 9-6 1-7-7-2-7-2-8-8q-2-8-5-4m138 1-2 5q0 6-7 6c-8 0-7 6 1 7l6 2v5q0 9 4 8t4-9q-1-7 9-6 4 1 3-3 0-4-4-4-8 0-8-7-1-8-6-4m-484 65-2 2q0 7-4 9c-11 0-12 6-1 9 4 1 4 0 6 11 1 6 6 2 7-6q0-7 8-6c8 0 8-6 0-7q-9-2-8-8-1-7-6-4m-140 1-1 5q1 4-3 5-10 1-9 4-1 4 5 4 7 0 7 5 1 7 4 8 4 0 4-6-1-8 7-7 9 0 9-4-2-3-8-4-6 2-7-5-3-11-8-5m277-1-1 4q0 7-6 8-14 3-2 8 8-1 8 7 3 13 8-1-1-7 7-7c8-1 7-7-1-7q-6 1-7-6-2-10-6-6m138 1-1 4q0 7-6 7-6 1-7 4 1 4 7 4t6 7c0 9 6 9 7 0q0-8 7-7 17-2 0-8-5 1-6-6-3-8-7-5m139 2-1 5-3 4c-11 3-10 2-11 5q-1 4 4 3 9-1 9 7 1 8 4 8 4 0 4-7 0-8 5-7 8 0 8-4-1-3-9-4-4-1-3-6 0-4-5-6zM3 146q-4-1-3 4-1 4 4 3 7 0 7-4-1-5-8-3m195 55-2 6-2 5-4 1c-10 2-11 8-1 8q6 0 6 5c0 3 2 9 4 9q3 0 4-7 0-6 8-7c9 0 10-6 0-8q-7 0-6-4-3-11-7-8m137 1-2 5q1 5-6 6-12 5 1 9 4 0 4 2 3 12 4 11 5 0 5-6-1-8 8-8 14-4 0-7-8-1-8-6-1-11-6-6m-276 0-1 6q-1 4-6 5-8 1-7 4 1 4 7 4t6 6q0 9 6 7l1-4q0-9 7-9c10 0 11-6 2-7q-8-2-8-6c0-5-5-9-7-6m414 0-2 5q1 6-6 7-14 6 3 8 3-1 3 6 0 9 4 8 3 1 5-8l1-5 4-1c11-1 12-8 1-8q-6 1-6-5-1-10-7-7m138 4-2 6q-1 2-6 3-6 0-6 3 0 4 6 4 6-1 6 7c2 10 8 10 8 0q0-7 6-7c10 0 11-6 2-7q-8-1-8-8-1-8-6-1m139-2-2 5q0 6-7 6l-4 2q-4 5 5 5 6 0 7 8c1 10 7 9 7-2q-1-6 7-6c9-1 7-7-1-7q-6 1-6-5-1-9-6-6m-623 66-1 5q1 5-6 6-9 2-5 6l5 2q5 0 6 8 3 12 8-1-1-8 6-7 9 0 8-3 0-5-6-5-8 1-8-6-1-10-7-5m138 0-2 6q1 5-5 5-6 1-7 4 1 4 7 4 6-1 5 6c2 11 9 11 9 1q0-7 7-7l6-2 3-2-3-2-6-2q-6 0-6-4c0-7-5-12-8-7m138 0-1 6q0 5-5 5l-8 3q-1 4 6 5 8-1 7 6 0 8 4 8 4-1 4-9-1-5 8-5c10-2 9-8-1-8q-6 0-7-6-1-9-7-5m139 1-2 5q1 4-6 6c-7 1-7 7 0 7q6 0 6 5 0 9 4 9 3-1 4-9 0-5 7-5c8 0 9-5 2-7q-8-1-9-5-1-12-6-6m138 0-1 6-1 5-6 1c-9 1-9 7 0 7q7 0 6 5c0 11 7 11 8 0q0-5 8-6c8-1 7-6-1-6q-6 0-7-7-1-8-6-5M0 285v3h5c8-1 8-7-1-7q-5-1-4 4m59 52-2 6q0 5-5 5-7 0-8 5 1 2 7 3 6 0 6 7 1 7 4 7 4 0 4-7-1-7 7-6 15-5 2-8-9-2-9-7-2-9-6-5m275 0-2 6q1 5-6 5c-10 2-10 8-1 9q8-1 7 6 0 8 4 8t4-6q1-8 7-8 7 0 8-4 0-4-7-4t-7-6q-1-10-7-6m-138 0-1 6-3 5q-11 1-10 5-1 3 6 3l5 2 1 5q5 14 8 2c2-8 2-8 7-8q15-5 2-8-9-2-8-8c0-4-5-7-7-4m276 2-1 4q0 6-7 6-8 1-6 5l7 3 5 1 1 5q1 9 4 8 3 0 3-8-1-6 6-6t8-4q0-4-6-4-8 1-7-6c0-5-6-9-7-4m138-1-1 5q0 8-6 7-7 1-8 4 0 3 8 3 6-1 6 6c0 10 6 9 8-1q-1-6 8-5c9-1 7-7-1-7q-8 0-8-7 0-6-3-6zm139 1-2 6q0 4-5 4-16 5-2 9 8 0 7 5 2 11 6 8l2-6c1-6 1-6 9-7 6-1 6-7 0-7q-8 0-9-7-1-10-6-5m-622 65-2 6q1 6-6 6-14 4 1 9 5 0 5 4 0 10 3 9 5 0 5-7-1-6 7-7c9-1 11-6 2-7-8-2-8-2-9-7l-2-6zm138 1-2 6q2 5-7 5c-7 2-7 8 0 8q7 0 7 6c0 11 7 12 9 1l1-5 5-2q15-4 2-7-8 0-9-7-2-9-6-5m136 5q-1 7-7 7c-8 0-7 6 1 7q7 1 6 9l2 4q5 4 6-4t6-9c8-1 8-1 8-3q0-4-7-4-7-1-7-6-2-12-8-1m139-3-1 5q-1 5-6 5-3 0-4 3-3 4 5 5l5 1 1 5q3 15 6 2 0-9 9-9c10-1 9-6-1-7h-5l-1-5q-3-13-8-5m139-1-1 4q0 7-7 7-14 5-1 8c6 1 7 1 8 8 1 10 6 9 7 0 1-7 2-7 8-8 8-1 8-7 0-7q-6 0-8-8-1-7-6-4M0 421q1 6 8 1 4-4-5-5-4-1-3 4m196 52-2 5q1 5-6 6c-10 1-9 8 1 8q6 0 5 7c1 9 7 9 8 0q0-8 8-7c10 0 9-7-1-9q-6 1-6-4-3-12-7-6m138 0-2 4q0 6-7 7-12 3-1 8 8 0 8 8 0 7 3 6 6 1 5-9 0-5 6-5c10 0 9-7 0-8q-7 0-6-7 0-5-4-6zm-275 0-2 4q0 6-7 7c-9 1-9 6 0 7q7 0 7 9 0 7 3 6 4 1 5-6-1-9 6-8 8 0 8-4t-6-4q-8 1-8-5-1-8-6-6m412 1-1 5q-1 6-7 5c-8 0-8 6 0 7q7 1 7 8c0 6 5 10 6 5 3-12 2-11 9-13q12-3 0-7-8-1-7-7c0-5-5-7-7-3m139-1-2 5q0 7-7 7-6 0-6 3 1 3 7 4 7-1 7 7 3 13 6 0 0-7 8-7 12-3 0-7-8-1-7-6-1-9-6-6m138 0-2 6q0 6-7 6-6 0-6 5 1 3 5 2 8 0 9 8c1 7 7 7 7-1q0-6 8-7 5 0 6-3-1-4-6-4-7 0-8-6-1-10-6-6"
        mask="url(#16282281824-posters-1720558121129-radial-mask)" itemprop="regular" fill-opacity="0.90"
        fill-rule="evenodd" stroke="none" fill="url(#16282281824-posters-1720558121129-horizontal-regular)"></path>
      <!---->
      <path id="16282281824-posters-1720558121129-medium"
        d="M128 4q0 7-7 7-10 3 0 6 7 1 7 10c0 8 5 6 6-2q0-8 8-8c8 0 9-5 0-6q-8-2-8-8c0-5-6-4-6 1m138-1q0 8-7 8-7 1-6 4t5 2q8 0 8 8c0 10 7 8 7-3q0-5 7-5c9 0 9-5 0-6q-9-1-7-8 1-4-3-3-5-1-4 3m139-1-1 4q-1 5-7 5t-6 3q0 4 6 3 7 1 7 9c0 8 5 7 6-1q2-8 9-8 5 0 6-3-1-2-9-3-7 1-6-7 1-5-2-4-3 0-3 2m137 2q1 7-6 7c-8 1-9 7 0 7q6 0 6 6 0 8 4 8 3 0 3-7-1-6 9-7 13-3-1-6-8-1-8-8 1-5-3-4-4-1-4 4m139 1q-1 8-9 8c-7 1-5 6 2 6q7 0 7 7t3 7q3-1 4-9 0-5 7-5c6 0 8-6 3-6q-11-1-11-11l-2-2q-3 0-4 5M0 14q-1 4 4 3 8 0 6-4l-6-2q-5-1-4 3m61 52-2 5q-1 7-5 7-6 0-7 4 0 3 6 3 6 1 6 7 1 7 4 7 2-1 3-8 0-7 7-6 7 0 7-3 1-4-8-4-6 0-6-7-1-5-5-5m274 3-1 4q1 6-6 5-7 1-6 4t7 3c5 1 8 7 6 10v4q6 4 7-8-1-5 6-6c8-1 10-6 2-6q-7 0-9-9-2-8-6-1m-137-1-1 3q0 7-7 7l-5 2q-4 4 4 5 7 0 7 7c1 10 7 10 8 1q0-8 6-8 7-1 8-3-1-3-8-4-4 1-6-7-2-5-6-3m276 1-1 4q0 6-8 6-4 0-5 2-2 3 6 5 7 0 7 9 0 5 3 5 3-1 4-7-1-8 8-8 5 1 6-3 0-3-7-3-6 0-7-7-1-8-6-3m139-1-1 2q0 9-7 9c-9 2-9 7 0 7q7-1 6 8c0 9 5 10 6 0q1-9 9-8 6 0 6-3 0-2-7-3-6-1-7-6 0-8-5-6m138 2-2 5q0 4-7 6-10 3-1 5c8 2 8 2 9 7q3 18 6 0 0-7 8-7 6 0 5-2-1-3-5-4-6 0-7-4-1-11-6-6m-623 65-1 5q1 5-6 6-13 3-1 6 7 1 7 8l1 5q5 3 6-7-1-7 9-6 5 1 6-2t-7-4q-8 1-8-6-1-9-6-5m138 0-1 5q0 6-6 6c-8 0-9 5-1 7q7 0 7 7 1 7 4 7 3 1 4-7t7-8 6-1q1-5-6-5-8 0-8-8-1-8-6-3m139-1-2 5q-1 7-5 7c-9 0-10 5-2 7q9 2 7 7c0 9 5 9 7 1q1-8 6-8c9 0 10-5 2-6q-8-1-9-9-1-6-4-4m138 1-1 5q-1 6-6 7c-7-1-10 4-4 6l5 1q5 1 5 8c0 8 5 6 7-2l1-5 6-1q12-4 0-6-8-3-8-8-1-8-5-5m137 5q0 9-7 8-7 1-6 4 0 3 5 2 8 0 8 7 1 8 4 7 2-1 2-6 0-9 7-8l6-1q2-5-6-5-6 0-6-6c0-8-5-9-7-2M0 150v3h4q8-1 7-3 0-4-7-4-5-1-4 4m198 53-2 5q0 6-7 6-7 1-6 4 1 2 5 2 8 1 8 7 0 7 3 7t4-7q0-6 8-7c9-1 9-6 0-6q-8 0-8-7-1-8-5-4m137 0-1 4q-1 6-6 7c-8 0-9 5-2 7 7 0 7 1 8 7 1 11 7 8 7-3q1-5 8-5 8 0 5-4-1-2-5-2-7 0-8-5-1-11-6-6m-276 0-1 5q1 5-7 6c-7 1-8 6-2 6q10 0 10 8 0 6 3 6t3-6q0-7 7-8 9 0 8-2 0-4-6-4-8 1-8-6-2-9-7-5m413 5q-1 6-6 6c-8 2-9 7-1 7q6-1 7 6 1 9 3 8 4 1 4-8 1-7 7-6c10 0 10-6 0-7q-7 0-6-4-4-15-8-2m139-2-1 5q0 3-7 5-10 3-3 5c9 2 9 1 11 12l2 2q3 1 4-7 0-7 7-7t7-2-6-3q-8 0-8-8-1-9-6-2m139 0-1 5q-1 4-10 5-7 2 3 6 8 0 7 8l1 5q4 4 5-5 0-8 7-8 8 0 6-4l-5-2q-8-1-8-6-2-10-5-4m-621 63-3 7q0 5-7 6-11 3 1 7 6 0 6 8 4 10 7-2 0-8 8-7 7 0 7-3 1-2-8-3-7-1-6-6-1-7-5-7m137 0-1 6q-1 7-8 7-4 0-5 2-1 4 5 4 7 1 7 5c0 11 6 13 7 3q0-8 8-7 8-1 7-4 0-3-6-3-8 0-8-6-1-9-6-7m138 2-2 5q0 6-7 6t-6 4l4 2q10-1 9 8c2 10 7 9 7-1q-1-7 8-7 8 0 7-3 0-3-7-3-7-1-8-8t-5-3m138 1-1 4q-1 5-6 6-6 1-7 4 2 2 8 3 4 0 5 8 3 12 6-1 0-8 7-7 14-3 1-6c-5-1-6-1-7-8q-3-8-6-3m139-1-2 5q0 7-8 7-7 0-5 5l5 1q8 0 8 7c0 9 6 9 7 0q-1-7 8-7 4 1 5-2 0-3-7-4-7 1-6-6l-2-5q-1-3-3-1M1 282l-1 3q2 6 9 1c3-2-3-6-8-4m58 55-1 5q-1 7-8 7c-6 0-7 5 0 7q9 0 7 7c2 9 8 8 8-1q0-7 7-6l6-2q4-5-6-5-6 0-7-7t-6-5m138 0-1 6q0 5-9 6c-7 2-6 7 2 7q6 0 6 8c1 8 7 7 7-1q-1-6 8-7c8-2 9-7 1-7q-8 1-8-6 1-5-2-6zm138 1-2 4q0 7-7 7-9 1-6 6l6 1q6 0 7 8 0 9 5 5l2-5q0-7 7-8c11-1 10-7 0-7q-7 0-7-7-1-8-5-4m137 3c-2 7-2 7-7 8q-13 4-1 7 8 1 7 6 0 7 4 8 2-1 3-9 0-5 7-5 7-1 7-3 0-3-7-3t-7-7q-1-11-6-2m139-2-2 5q0 8-7 7-12 3 0 5c7 1 6 1 7 7q4 13 6 1 1-9 7-7c9 0 11-5 2-6q-8-1-8-7-2-8-5-5m138 0-1 4q0 7-7 8c-9 1-9 6-1 6q8 0 8 8c0 9 6 9 6 0q0-8 8-8c8-1 8-6 0-6q-7 0-7-7-1-9-6-5m-622 67-1 5q0 5-7 6c-7 0-8 5-1 6q8 0 8 8 0 7 2 7 4 0 5-7-1-8 8-7c8-2 8-7 0-7q-7 1-9-8-2-8-5-3m138-1-1 5q0 7-8 7c-6 0-7 5 0 7 8 1 7 0 8 9 2 7 7 6 7-2q-1-6 7-7c10-2 10-7 1-7q-8 0-8-7-1-7-6-5m137 3q-1 9-6 9-7 1-7 4t6 3q6-1 7 7 3 14 6 0 0-6 9-7c8-2 7-7-2-7q-5 1-6-7-3-9-7-2m139-1-1 5q-1 6-6 5l-5 2q-3 5 5 5 6 0 6 7 1 7 4 7 3-1 2-5-1-8 9-9 12-3-2-7-5 1-6-3-1-13-6-7m139-1-2 5q0 7-6 7-7 0-7 3-1 4 6 4 7-1 7 7 1 8 4 7 2-1 3-8 0-6 8-7 11-2 0-6-9-1-8-7-1-8-5-5M0 420q-1 4 3 3 8-1 5-5-7-3-8 2m197 53-3 5q2 6-6 6c-8 2-9 7-2 7q9-1 8 7 3 15 8 0 0-7 8-7 7 0 6-3 0-3-4-3c-9-2-9-2-10-6q-2-10-5-6m138-1-3 5q0 7-6 7-5 1-6 4 0 3 6 3t7 10q3 11 6-3 1-7 9-7a3 3 0 1 0 1-6q-9 0-9-6-1-8-5-7m137 1-1 5q-1 7-9 7-7 1-4 5l6 1q6 0 6 7c2 10 7 10 7 1q1-8 7-8l5-2q4-4-4-4-6 0-7-7-2-8-6-5m-414 2-1 5q-2 5-10 5-5 1-1 5l4 1q7-1 7 8c1 10 7 9 7-1q0-7 9-7 7 0 5-4l-5-2q-8 0-9-7-1-8-6-3m552-1-1 3q0 8-7 8c-9 0-9 5 1 7l5 1 1 5q3 15 6 1 0-8 7-7 13-3 1-6-8-1-8-8-1-6-5-4m137 3q-1 9-6 8-6 1-7 4 0 3 6 3 8 0 8 9l2 4q4 0 4-6 0-7 6-7 8 0 7-4l-4-2q-8 0-9-7c0-7-5-8-7-2"
        mask="url(#16282281824-posters-1720558121129-vertical-mask)" itemprop="medium" fill-opacity="0.90"
        fill-rule="evenodd" stroke="none" fill="url(#16282281824-posters-1720558121129-vertical-medium)"></path>
      <!---->
      <path id="16282281824-posters-1720558121129-bold"
        d="M128 3q1 8-6 8-12 5 1 6 6-1 5 7 0 7 3 7t3-8q0-6 4-6l10-3-7-3q-6 0-7-7 1-5-3-4-4-1-3 3m139 0q-1 8-6 8l-6 2q-3 4 5 4 7-1 7 8 0 8 4 5l1-6q-1-8 7-7c3 0 8-2 7-3l-6-2q-9-2-8-8 1-5-2-4-4-1-3 3m138 1q0 8-8 8-8 1-5 3l6 2q7-1 7 8 3 12 4 1 1-10 9-9l5-2q4-2-5-3t-9-5c1-8-3-11-4-3m138 1q0 8-7 7c-8 0-8 5 1 6 5 1 5 1 7 10 1 7 5 3 5-4q0-6 5-6 16-2 4-5-10-1-9-9 1-5-2-4-4 0-4 5m140-2-1 4q-1 6-8 6t-6 3 5 2q9 0 9 9 0 6 2 5 3 0 3-7 0-6 9-7 8-3-1-5-9-1-8-7-1-10-4-3M0 14q-1 4 4 3c8 0 8-5 0-6q-5-1-4 3m61 53-2 6q0 6-8 6-5 1-3 4l4 1q7 0 8 8 3 12 5 0 0-8 8-8t7-3q-1-2-6-2-9 1-8-6-2-9-5-6m138 1-2 4q0 7-8 7-4 0-4 2-2 3 4 3 7 0 8 8c1 9 6 9 6 1q0-7 8-9 8-1 6-3-1-2-5-2-8 0-9-8 0-4-4-3m136 5-1 6h-5q-10 3-3 5 12 3 10 11v4q4 2 5-7 0-8 9-8l4-1q2-4-6-4-7 1-8-8-2-9-5 2m140-5-1 5q-1 7-7 6-12 2-2 6 8 0 8 7 0 10 5 7l1-5q0-9 8-10 13 0 0-5-8 0-7-6-2-7-5-5m138 1q0 11-10 12c-6 0-5 4 2 4q7 0 7 8t3 7l2-8q0-7 8-6 13-2 0-5-8-1-8-8c0-4-4-7-4-4m139 0-2 5q0 7-8 7-11 3 0 5 8-1 9 9 2 12 5 0 0-11 8-9c7 0 7-4 1-4q-7-2-9-5-1-12-4-8m-485 67-2 6q0 5-7 5-4 0-5 2 0 3 6 3t6 6c2 10 7 11 7 1q-1-7 9-7 10-2 0-5-9-1-9-7l-2-5q-2-3-3 1m-138-1-1 3q1 9-9 9-8 2 1 5 8-1 7 7l2 5q3 2 4-3 0-10 7-9 11 0 8-4l-6-1q-8 0-8-5c0-5-3-10-5-7m276 1-1 3q0 8-7 8-13 2 0 5 7 1 7 9 2 11 5 0 1-9 9-9 4 0 5-2 2-2-6-3-8 0-8-8-2-8-4-3m138 0-1 4q0 7-6 7-11 2-2 6 9 0 8 7 2 12 5 0 1-7 9-8 10-1 1-4-9 1-10-10 0-4-4-2m139 4q-2 9-8 8-6 0-7 4l6 1c6 1 6 1 8 10q3 9 5-2 1-9 7-8 2 1 4-1 4-4-5-4-6 1-6-7-2-9-4-1M0 150c0 2 7 3 9 1q3-4-5-4-5-1-4 3m60 53-1 5q0 5-7 6c-8 1-9 6 0 6q7 0 7 7 1 8 4 6l1-5q-1-8 8-8 14-2 1-5-8 0-8-7-3-9-5-5m138 1-2 5q1 6-6 5-6 1-6 4 1 2 5 2 7 0 7 5l3 9c1 0 4-6 4-9q0-5 7-5 14-1 0-6-7 0-7-6 0-5-4-6zm137-1-1 5q1 6-6 6-12 5 0 6 5-1 6 7 5 14 6 1 0-8 7-8 10 0 6-5l-6-1q-7 0-7-7-2-7-5-4m139 1-1 3q1 6-8 8-10 3-1 5 10 0 9 10 0 4 2 5 3 0 3-6-1-9 11-9 5-3 1-4c-11-2-11-2-12-11q-2-5-4-1m138 2-1 4q0 5-8 6-11 3 0 5 8-1 8 8 2 12 5 1-1-10 8-9 8-1 6-3-1-2-5-2-8 0-9-7t-4-3m139-1-1 3q0 8-7 8-6 0-7 3l2 1q12 0 12 11c0 8 4 4 5-3q0-7 8-7 10-2-2-5-7 0-6-7-2-6-4-4m-622 65-2 5q0 7-7 7-9 2-1 5 7 1 8 9 3 9 5 0 2-7 5-9 9 1 10-2t-6-3q-9 0-8-7 0-7-4-5m137 0-1 5q0 7-6 7-7 1-6 4l4 1q8 1 8 8 1 8 3 8 3-3 3-8-1-7 8-7l7-2q1-3-8-4-6 1-7-6-1-9-5-6m138 1-2 6q2 5-9 6-6 3 0 4 10-1 10 10l2 5q3 0 4-8 0-6 8-7 10 0 5-3l-5-2q-8 0-8-7-1-6-5-4m139 0-1 3q0 8-7 8l-5 3q-4 1 6 4 6 0 6 8 1 10 5-2l1-5 6-2q12-2 1-5-9-1-8-7-1-6-4-5m137 4-1 5q-1 4-8 4l-5 1q-1 4 7 4 7-1 7 7 2 12 5 0c2-6 2-7 8-7q11-3-1-5-6 1-6-5l-2-5q-1-6-4 1M0 285q-1 3 4 2 8 0 4-4-7-3-8 2m59 57q-2 9-8 8l-5 1q-2 3 6 4 6-1 7 9 3 11 5-3 0-6 9-6 7 0 6-4l-6-1q-8 0-9-8-2-10-5 0m138-4-1 5q0 7-7 7-6 0-6 3 1 2 5 2 8 0 8 8 0 6 3 6 3-1 2-5 0-8 8-9 14-3 2-5-7 0-9-7-1-9-5-5m137 1-1 5q0 6-7 6-7 1-6 4l5 1q8 1 8 7 1 7 3 8 1 1 4-9 1-6 10-6l4-2q1-3-7-3-6 0-7-6t-3-7zm138 4q-1 8-6 7-12 2-3 5 9 0 8 6 2 11 5 8l1-6q0-8 9-8 4 1 5-2 2-2-6-3c-6-1-6-1-8-7q-2-9-5 0m138 0q-1 8-3 8h-5q-5 1-6 3l6 1q8 1 8 7 0 7 3 7 2 0 2-6 0-7 8-7 7 0 6-3t-6-2q-8 1-8-8-2-9-5 0m139-1-1 4q0 5-7 5-12 2 0 5 7 1 7 7l2 6 2 3 1-3 1-5q-1-5 3-6l6-1q9-4-5-6-4 0-4-8-2-7-5-1m-621 64-1 4q-1 7-6 7c-8 0-9 5-1 6q7 0 7 9 0 7 3 4 2 0 2-6 1-7 9-7 4 0 5-2 0-3-7-4-7 0-7-7t-4-4m137 3q0 8-6 8l-6 2q-4 4 4 4 7 0 7 7 3 15 6 0 0-6 8-7 14-2 0-5-8-2-8-8 0-5-3-5t-2 4m138-1-1 5c-1 3-1 3-8 5q-9 4 0 5 9 0 8 7c0 5 3 10 4 6l1-3 2-6q0-4 10-4 6-2-1-5c-8-1-8-1-10-7q-2-9-5-3m139-1-2 6q0 4-5 5-12 4 0 6 6 1 6 7 1 13 4 1 0-9 9-9 12-3 2-4-8 0-9-7-2-9-5-5m138 0-1 4q0 8-8 8-6 0-6 3 1 3 5 2 9 0 9 9 0 4 2 5 3 0 3-6 0-8 9-8 4 1 5-2 2-2-6-3t-8-9q-1-4-4-3m-483 66-2 5q0 7-7 7-6 0-6 3l4 2q9 0 9 8c1 8 6 10 6 2q1-10 10-10 9-2 0-5-11 1-10-9 0-4-4-3m137 1-1 4q0 7-8 7-5 1-5 4l5 1q7 0 8 9 3 10 5 3 1-13 10-12l4-1q1-4-6-4-7 1-7-8-2-6-5-3m138 0-1 5q0 6-7 6-7 1-6 4l5 1q8 0 8 8 2 14 5 0 1-8 9-8 7 0 3-4l-5-1q-6 0-6-7 0-4-2-4zm139 0-1 3q0 8-9 9-11 2 1 5 9 1 8 10 1 9 4-3 1-7 9-7 7-2 4-3-13-3-12-8 0-8-4-6m138 0-1 4q0 7-6 8-8 1-8 3l9 3q6 0 5 8 0 4 2 4 3 0 3-6t6-6l6-2q6-2-5-4-7-2-7-8 0-5-4-4m-690 2-1 3q-1 5-9 6-6 1-4 4l5 1q8 0 8 9l1 6q4 2 4-6 0-9 9-9 5 1 6-2t-7-3-8-8q-1-5-4-1"
        mask="url(#16282281824-posters-1720558121129-horizontal-mask)" itemprop="bold" fill-opacity="0.90"
        fill-rule="evenodd" stroke="none" fill="url(#16282281824-posters-1720558121129-vertical-bold)"></path>
    </pattern>
    <rect id="16282281824-posters-1720558121129-pattern-render" fill="url(#16282281824-posters-1720558121129-pattern)"
      width="100%" height="100%"></rect>
  </defs>
  <radialGradient id="lightbar" cx="50%" cy="200%" fy="0" r="201%">
    <stop offset="0%" style="stop-color: rgb(255, 255, 255); stop-opacity: 0.1;"></stop>
    <stop offset="10%" style="stop-color: rgb(0, 0, 0); stop-opacity: 0.1;"></stop>
    <stop offset="30%" style="stop-color: rgb(0, 0, 0); stop-opacity: 0.3;"></stop>
    <stop offset="90%" style="stop-color: rgb(0, 0, 0); stop-opacity: 0.55;"></stop>
    <stop offset="100%" style="stop-color: rgb(0, 0, 0); stop-opacity: 0.6;"></stop>
  </radialGradient>
  <g class="radial">
    <radialGradient id="16282281824-posters-1720558121129-radial" gradientUnits="userSpaceOnUse">
      <stop itemprop="radial" stop-color="#e9e8e7" offset="0%"></stop>
      <stop itemprop="radial" stop-color="#ebebea" offset="15%"></stop>
      <stop itemprop="radial" stop-color="#ebebea" offset="30%"></stop>
      <stop itemprop="radial" stop-color="#ebebea" offset="45%"></stop>
      <stop itemprop="radial" stop-color="#ebebea" offset="60%"></stop>
      <stop itemprop="radial" stop-color="#ebebea" offset="75%"></stop>
      <stop itemprop="radial" stop-color="#ebebea" offset="90%"></stop>
    </radialGradient>
    <radialGradient id="16282281824-posters-1720558121129-radial-background" gradientUnits="userSpaceOnUse">
      <stop stop-color="#d3cec5" offset="0%"></stop>
      <stop stop-color="#d3cec5" offset="15%"></stop>
      <stop stop-color="#d3cec5" offset="30%"></stop>
      <stop stop-color="#d3cec5" offset="45%"></stop>
      <stop stop-color="#d3cec5" offset="60%"></stop>
      <stop stop-color="#d3cec5" offset="75%"></stop>
      <stop stop-color="#d3cec5" offset="90%"></stop>
    </radialGradient>
    <radialGradient id="16282281824-posters-1720558121129-radial-light" gradientUnits="userSpaceOnUse">
      <stop stop-color="#9c9a96" offset="0%"></stop>
      <stop stop-color="#9c9a96" offset="15%"></stop>
      <stop stop-color="#9c9a96" offset="30%"></stop>
      <stop stop-color="#9c9a96" offset="45%"></stop>
      <stop stop-color="#9c9a96" offset="60%"></stop>
      <stop stop-color="#9c9a96" offset="75%"></stop>
      <stop stop-color="#9c9a96" offset="90%"></stop>
    </radialGradient>
    <radialGradient id="16282281824-posters-1720558121129-radial-regular" gradientUnits="userSpaceOnUse">
      <stop stop-color="#83817c" offset="0%"></stop>
      <stop stop-color="#83817c" offset="15%"></stop>
      <stop stop-color="#83817c" offset="30%"></stop>
      <stop stop-color="#83817c" offset="45%"></stop>
      <stop stop-color="#83817c" offset="60%"></stop>
      <stop stop-color="#83807c" offset="75%"></stop>
      <stop stop-color="#83807c" offset="90%"></stop>
    </radialGradient>
    <radialGradient id="16282281824-posters-1720558121129-radial-medium" gradientUnits="userSpaceOnUse">
      <stop stop-color="#51504d" offset="0%"></stop>
      <stop stop-color="#51504d" offset="15%"></stop>
      <stop stop-color="#51504d" offset="30%"></stop>
      <stop stop-color="#51504d" offset="45%"></stop>
      <stop stop-color="#51504d" offset="60%"></stop>
      <stop stop-color="#51504d" offset="75%"></stop>
      <stop stop-color="#51504d" offset="90%"></stop>
    </radialGradient>
    <radialGradient id="16282281824-posters-1720558121129-radial-bold" gradientUnits="userSpaceOnUse">
      <stop stop-color="#2f2e2d" offset="0%"></stop>
      <stop stop-color="#2f2e2d" offset="15%"></stop>
      <stop stop-color="#2f2e2d" offset="30%"></stop>
      <stop stop-color="#2f2e2d" offset="45%"></stop>
      <stop stop-color="#2f2e2d" offset="60%"></stop>
      <stop stop-color="#2f2e2d" offset="75%"></stop>
      <stop stop-color="#2f2e2d" offset="90%"></stop>
    </radialGradient>
  </g>
  <g class="vertical">
    <linearGradient id="16282281824-posters-1720558121129-vertical" gradientUnits="userSpaceOnUse" x1="0" x2="0" y1="0"
      y2="100%">
      <stop itemprop="vertical" stop-color="#e9e8e7" offset="0%"></stop>
      <stop itemprop="vertical" stop-color="#ebebea" offset="15%"></stop>
      <stop itemprop="vertical" stop-color="#ebebea" offset="30%"></stop>
      <stop itemprop="vertical" stop-color="#ebebea" offset="45%"></stop>
      <stop itemprop="vertical" stop-color="#ebebea" offset="60%"></stop>
      <stop itemprop="vertical" stop-color="#ebebea" offset="75%"></stop>
      <stop itemprop="vertical" stop-color="#e9e8e7" offset="90%"></stop>
    </linearGradient>
    <linearGradient id="16282281824-posters-1720558121129-vertical-background" gradientUnits="userSpaceOnUse" x1="0"
      x2="0" y1="0" y2="100%">
      <stop stop-color="#cecdca" offset="0%"></stop>
      <stop stop-color="#cecdca" offset="15%"></stop>
      <stop stop-color="#ceccca" offset="30%"></stop>
      <stop stop-color="#cecdca" offset="45%"></stop>
      <stop stop-color="#cecdca" offset="60%"></stop>
      <stop stop-color="#cecdca" offset="75%"></stop>
      <stop stop-color="#cecdca" offset="90%"></stop>
    </linearGradient>
    <linearGradient id="16282281824-posters-1720558121129-vertical-light" gradientUnits="userSpaceOnUse" x1="0" x2="0"
      y1="0" y2="100%">
      <stop stop-color="#aea084" offset="0%"></stop>
      <stop stop-color="#aea084" offset="15%"></stop>
      <stop stop-color="#ae9d84" offset="30%"></stop>
      <stop stop-color="#aea084" offset="45%"></stop>
      <stop stop-color="#aea084" offset="60%"></stop>
      <stop stop-color="#aea084" offset="75%"></stop>
      <stop stop-color="#aea084" offset="90%"></stop>
    </linearGradient>
    <linearGradient id="16282281824-posters-1720558121129-vertical-regular" gradientUnits="userSpaceOnUse" x1="0" x2="0"
      y1="0" y2="100%">
      <stop stop-color="#83817c" offset="0%"></stop>
      <stop stop-color="#83817c" offset="15%"></stop>
      <stop stop-color="#83807c" offset="30%"></stop>
      <stop stop-color="#83817c" offset="45%"></stop>
      <stop stop-color="#83817c" offset="60%"></stop>
      <stop stop-color="#83817c" offset="75%"></stop>
      <stop stop-color="#83817c" offset="90%"></stop>
    </linearGradient>
    <linearGradient id="16282281824-posters-1720558121129-vertical-medium" gradientUnits="userSpaceOnUse" x1="0" x2="0"
      y1="0" y2="100%">
      <stop stop-color="#51504d" offset="0%"></stop>
      <stop stop-color="#51504d" offset="15%"></stop>
      <stop stop-color="#514f4d" offset="30%"></stop>
      <stop stop-color="#51504d" offset="45%"></stop>
      <stop stop-color="#51504d" offset="60%"></stop>
      <stop stop-color="#51504d" offset="75%"></stop>
      <stop stop-color="#51504d" offset="90%"></stop>
    </linearGradient>
    <linearGradient id="16282281824-posters-1720558121129-vertical-bold" x1="0" x2="0" y1="0" y2="100%">
      <stop stop-color="#2f2e2d" offset="0%"></stop>
      <stop stop-color="#2f2e2d" offset="15%"></stop>
      <stop stop-color="#2f2e2d" offset="30%"></stop>
      <stop stop-color="#2f2e2d" offset="45%"></stop>
      <stop stop-color="#2f2e2d" offset="60%"></stop>
      <stop stop-color="#2f2e2d" offset="75%"></stop>
      <stop stop-color="#2f2e2d" offset="90%"></stop>
    </linearGradient>
  </g>
  <g class="horizontal">
    <linearGradient id="16282281824-posters-1720558121129-horizontal" x1="0" x2="100%" y1="0" y2="0"
      gradientUnits="userSpaceOnUse">
      <stop itemprop="horizontal" stop-color="#eeeded" offset="0%"></stop>
      <stop itemprop="horizontal" stop-color="#e9e8e7" offset="15%"></stop>
      <stop itemprop="horizontal" stop-color="#e9e8e8" offset="30%"></stop>
      <stop itemprop="horizontal" stop-color="#eeeded" offset="45%"></stop>
      <stop itemprop="horizontal" stop-color="#e9e8e7" offset="60%"></stop>
      <stop itemprop="horizontal" stop-color="#e9e8e7" offset="75%"></stop>
      <stop itemprop="horizontal" stop-color="#eeeded" offset="90%"></stop>
    </linearGradient>
    <linearGradient id="16282281824-posters-1720558121129-horizontal-background" gradientUnits="userSpaceOnUse" x1="0"
      x2="100%" y1="0" y2="0">
      <stop stop-color="#ceccca" offset="0%"></stop>
      <stop stop-color="#ceccca" offset="15%"></stop>
      <stop stop-color="#cdcccb" offset="30%"></stop>
      <stop stop-color="#cecdca" offset="45%"></stop>
      <stop stop-color="#cecdca" offset="60%"></stop>
      <stop stop-color="#ceccca" offset="75%"></stop>
      <stop stop-color="#ceccca" offset="90%"></stop>
    </linearGradient>
    <linearGradient id="16282281824-posters-1720558121129-horizontal-light" gradientUnits="userSpaceOnUse" x1="0"
      x2="100%" y1="0" y2="0">
      <stop stop-color="#9c9a96" offset="0%"></stop>
      <stop stop-color="#9c9a96" offset="15%"></stop>
      <stop stop-color="#9b9a97" offset="30%"></stop>
      <stop stop-color="#9c9a96" offset="45%"></stop>
      <stop stop-color="#9c9a96" offset="60%"></stop>
      <stop stop-color="#9c9a96" offset="75%"></stop>
      <stop stop-color="#9c9a96" offset="90%"></stop>
    </linearGradient>
    <linearGradient id="16282281824-posters-1720558121129-horizontal-regular" gradientUnits="userSpaceOnUse" x1="0"
      x2="100%" y1="0" y2="0">
      <stop stop-color="#968369" offset="0%"></stop>
      <stop stop-color="#968369" offset="15%"></stop>
      <stop stop-color="#968669" offset="30%"></stop>
      <stop stop-color="#968769" offset="45%"></stop>
      <stop stop-color="#968769" offset="60%"></stop>
      <stop stop-color="#968569" offset="75%"></stop>
      <stop stop-color="#968369" offset="90%"></stop>
    </linearGradient>
    <linearGradient id="16282281824-posters-1720558121129-horizontal-medium" gradientUnits="userSpaceOnUse" x1="0"
      x2="100%" y1="0" y2="0">
      <stop stop-color="#5d5141" offset="0%"></stop>
      <stop stop-color="#5d5141" offset="15%"></stop>
      <stop stop-color="#5d5341" offset="30%"></stop>
      <stop stop-color="#5d5441" offset="45%"></stop>
      <stop stop-color="#5d5441" offset="60%"></stop>
      <stop stop-color="#5d5241" offset="75%"></stop>
      <stop stop-color="#5d5141" offset="90%"></stop>
    </linearGradient>
    <linearGradient id="16282281824-posters-1720558121129-horizontal-bold" gradientUnits="userSpaceOnUse" x1="0"
      x2="100%" y1="0" y2="0">
      <stop stop-color="#2f2e2d" offset="0%"></stop>
      <stop stop-color="#2f2e2d" offset="15%"></stop>
      <stop stop-color="#2f2e2d" offset="30%"></stop>
      <stop stop-color="#2f2e2d" offset="45%"></stop>
      <stop stop-color="#2f2e2d" offset="60%"></stop>
      <stop stop-color="#2f2e2d" offset="75%"></stop>
      <stop stop-color="#2f2e2d" offset="90%"></stop>
    </linearGradient>
  </g>
  <g class="masks">
    <mask id="16282281824-posters-1720558121129-pattern-mask" maskUnits="userSpaceOnUse"
      maskContentUnits="userSpaceOnUse">
      <pattern id="pattern" x="0" y="0" width=".0133" height=".0144" viewBox="0 0 23.07 40">
        <path
          d="M17.62 0l-6.07 10.5m2.74 4.76L8.22 4.75m-5.48 0h12.13M.01 0h23.07M6.07 20L0 9.5m2.74-4.75l-6.07 10.5m-5.48 0H3.33m8.2 4.75L0 .02-11.54 20m40.68 0L23.07 9.5m2.74-4.75l-6.06 10.5m-5.49 0H26.4M34.6 20L23.08.02 11.53 20m-5.46 0L0 30.51m2.74 4.75l-6.07-10.5m-5.48 0H3.33m8.2-4.75L0 40l-11.54-19.98zM17.6 40l-6.06-10.5m2.74-4.76L8.2 35.25m-5.48 0h12.13M0 40h23.07L11.54 20.01m17.6 0l-6.07 10.5m2.74 4.75l-6.06-10.5m-5.49 0H26.4M11.53 20h23.08L23.07 40"
          stroke-linecap="round" stroke-width="3.5" stroke="white"
          fill="url(#16282281824-posters-1720558121129-horizontal-background)"></path>
      </pattern>
      <rect width="100%" height="100%" fill="url(#pattern)"></rect>
    </mask>
    <mask id="16282281824-posters-1720558121129-horizontal-mask" maskUnits="userSpaceOnUse"
      maskContentUnits="userSpaceOnUse">
      <rect width="100%" height="100%" fill="url(#16282281824-posters-1720558121129-horizontal-background)"></rect>
    </mask>
    <mask id="16282281824-posters-1720558121129-radial-mask" maskUnits="userSpaceOnUse"
      maskContentUnits="userSpaceOnUse">
      <rect width="100%" height="100%" fill="url(#16282281824-posters-1720558121129-radial-background)"></rect>
    </mask>
    <mask id="16282281824-posters-1720558121129-vertical-mask" maskUnits="userSpaceOnUse"
      maskContentUnits="userSpaceOnUse">
      <rect width="100%" height="100%" fill="url(#16282281824-posters-1720558121129-vertical-background)"></rect>
    </mask>
  </g>
  <use href="#16282281824-posters-1720558121129-pattern-render"></use>
  <g>
    <use href="#16282281824-posters-1720558121129-background"></use>
    <use href="#16282281824-posters-1720558121129-light"></use>
    <use href="#16282281824-posters-1720558121129-regular"></use>
    <use href="#16282281824-posters-1720558121129-medium"></use>
    <use href="#16282281824-posters-1720558121129-bold"></use>
  </g>
  <g itemprop="animation">
    <animate href="#16282281824-posters-1720558121129-light" attributeName="stroke-opacity" repeatCount="indefinite"
      dur="5s" values="0.9;0.0;0.9"></animate>
    <animate href="#16282281824-posters-1720558121129-regular" attributeName="stroke-opacity" repeatCount="indefinite"
      dur="4s" values="0.9;0;0.9"></animate>
    <animate href="#16282281824-posters-1720558121129-medium" attributeName="stroke-opacity" repeatCount="indefinite"
      dur="5s" values="0.9;0;0.9"></animate>
    <animate href="#16282281824-posters-1720558121129-bold" attributeName="stroke-opacity" repeatCount="indefinite"
      dur="3s" values="0.9;0;0.9"></animate>
    <animate href="#16282281824-posters-1720558121129-regular" attributeName="fill-opacity" repeatCount="indefinite"
      dur="8s" values="0.9;0.75;0.95;0.8;0.9;"></animate>
    <animate href="#16282281824-posters-1720558121129-radial-background" attributeName="cx" repeatCount="indefinite"
      dur="34s" values="0%;33%;100%;0%;100%;0%;"></animate>
    <animate href="#16282281824-posters-1720558121129-radial-background" attributeName="cy" repeatCount="indefinite"
      dur="55s" values="0%;100%;33%;100%;66%;0%"></animate>
    <animate href="#16282281824-posters-1720558121129-vertical-light" attributeName="x1" repeatCount="indefinite"
      dur="55s" values="0%;33%;100%;0%;133%;0%;"></animate>
    <animate href="#16282281824-posters-1720558121129-vertical-light" attributeName="y1" repeatCount="indefinite"
      dur="86s" values="0%;100%;33%;100%;66%;0%"></animate>
    <animate href="#16282281824-posters-1720558121129-horizontal-regular" attributeName="x1" repeatCount="indefinite"
      dur="34s" values="0%;100%;66%;0%;33%;133%;0%"></animate>
    <animate href="#16282281824-posters-1720558121129-horizontal-regular" attributeName="y1" repeatCount="indefinite"
      dur="55s" values="0%;66%;100%;33%;100%;66%;0%"></animate>
    <animate href="#16282281824-posters-1720558121129-vertical-medium" attributeName="x1" repeatCount="indefinite"
      dur="34s" values="0%;100%;66%;0%;33%;133%;0%"></animate>
    <animate href="#16282281824-posters-1720558121129-vertical-medium" attributeName="y1" repeatCount="indefinite"
      dur="55s" values="0%;66%;100%;33%;100%;66%;0%"></animate>
    <animate href="#16282281824-posters-1720558121129-vertical-bold" attributeName="x1" repeatCount="indefinite"
      dur="34s" values="0%;100%;66%;0%;33%;133%;0%"></animate>
    <animate href="#16282281824-posters-1720558121129-vertical-bold" attributeName="y1" repeatCount="indefinite"
      dur="55s" values="0%;66%;100%;33%;100%;66%;0%"></animate>
  </g>
</svg>
