<svg id="16282281824-posters-1720558192031" itemscope="" itemtype="/posters"
  itemid="/+16282281824/posters/1720558192031" viewBox="0 0 769 512" preserveAspectRatio="xMidYMid meet" tabindex="0"
  class="animate landscape" xmlns="http://www.w3.org/2000/svg">
  <!---->
  <defs class="graphic">
    <pattern id="16282281824-posters-1720558192031-pattern" width="769" height="512" viewBox="0 0 769 512"
      patternUnits="userSpaceOnUse" preserveAspectRatio="xMidYMid meet">
      <rect itemprop="background" width="769" height="512" tabindex="-1"
        id="16282281824-posters-1720558192031-background" fill-opacity="1"
        fill="url(#16282281824-posters-1720558192031-radial-background)"></rect>
      <!---->
      <path id="16282281824-posters-1720558192031-light"
        d="m31 9 1 13c0 6 1 7 18 6 17 0 18 0 18-3q2-4-15-4c-15 0-14 0-14-11V0h-8zm92 3c0 17-1 16 17 16q20 0 18-3 2-4-15-4c-13-1-13-1-13-12V0h-7zm92 1c0 16-1 15 20 14 18 0 18 0 18-3q1-4-16-4c-15 1-15 0-15-12V0h-7zm89-2c-1 10 0 12 1 14l2 3 18-1c19 0 19 0 19-3q1-4-17-4c-15 0-15 0-16-12V0h-7zm94-4v12c-2 8-1 9 18 8 16 0 20-1 20-3q0-4-16-4c-13 0-14 0-14-12V0h-8zm94 5c0 15-1 15 18 15 15 0 17-1 17-4q2-4-13-3c-14 0-15-1-15-12V0h-7zm92-1c0 16 0 16 20 16 16-1 18-1 18-4s-2-3-15-3c-16 0-16 0-16-12V0h-7zm96 0c-1 16-1 15 13 16q17 0 18-4 1-3-12-3c-13 0-13 0-14-12q1-9-3-8c-2 0-2 0-2 11M262 37l-1 18v16l3 2h20c16 0 17-1 17-3 0-3-2-3-27-4-6 0-6-1-6-14l-1-14q-2-5-5-1m370 0v30c0 4 4 5 20 5 14 0 16 0 16-3q1-3-17-3c-14 0-14 0-14-14l-1-13q-2-6-4-2m-278 2c-1 2-2 20-1 30 0 4 1 5 19 4 17 0 20-1 19-4q-1-3-18-3c-14 0-14 0-14-16q1-15-2-13-2-2-3 2M78 39c-2 3-1 32 1 34 1 2 3 2 17 1 16 0 19-1 19-3q1-4-16-4c-16 0-15 0-15-14l-1-14q-3-4-5 0m91-1-1 32q-1 4 13 4 32 0 25-6l-13-1c-19 0-18 1-18-17l-1-12zm277 5-1 16c-1 15-2 14 19 14 18 0 20-1 19-5-1-2-1-2-27-2-4 0-4 0-5-17 0-11-1-12-3-12q-2-2-2 6m93-4v17c-1 17-1 17 18 17q23 0 17-5 0-2-13-2l-13-1-3-17-1-10q-3-3-5 1m185 3v14l1 12 3 3c3 2 4 2 14 2q16 0 15-4c0-2-1-3-12-3-14 0-14 0-14-13q0-14-4-13zM8 67H0v7h9q15 1 13-3 0-5-14-4m297 9v39c2 2 29 3 38 2l3-3c-1-3-4-4-19-4-17 0-16 1-16-17l-1-16q-2-3-5-1m95 7c-1 3-2 19-1 26 2 8 2 8 19 8q20 0 18-3 1-4-14-4c-17 0-16 1-16-17l-2-12q-3-2-4 2m-276-1-1 17v17l3 1c3 1 31 2 34 0q5-2 0-5l-14-1c-16 0-16 0-16-16q0-15-4-14zm92 0c-2 2-2 33 0 35l17 1q21 0 19-3 1-4-14-4c-16 0-16 0-16-15q1-13-2-13-2-3-4-1m277 0c-1 2-2 32 0 33 1 1 32 2 34 0v-5l-12-1c-16 0-16 0-16-14q0-19-6-13m92 2c-2 4-1 29 1 31l16 1c15 0 17 0 17-2q4-5-13-5c-15 0-15 1-15-12q-1-21-6-13M33 84l-1 16c0 20-1 19 17 18 15 0 18-1 18-3q1-4-14-4c-13 0-14-1-14-13q0-18-6-14m647 0c-1 3-1 29 1 30 3 3 30 2 31 0q5-4-12-4c-13-1-13-1-14-10q-1-22-6-16m-510 41q-2 0-2 15v16q-2 5 3 6c2 2 33 1 37 0v-2c0-3 0-3-15-4-18 0-18 1-18-16 0-15-1-17-5-15m184 0-1 18c-1 20-1 22 8 20h17c13-1 15-1 15-4q2-4-18-4l-13-1q-3-4-3-18 0-16-5-11m92 2v14l-1 14q-2 6 7 7h17q20 1 13-5c-2-2-4-2-15-2-16 0-15 1-15-14l-1-13q-3-6-5-1m-184 0c-2 3-1 32 1 35q4 3 27 1c9-1 9-1 9-4s-1-3-16-3c-15-1-15 0-15-15q0-20-6-14m278 1c-2 4-2 31-1 33 2 2 32 2 35 0v-4c-1-1-3-2-14-2l-13-1-1-16-2-11q-3-2-4 1m185-1c-2 2-1 31 0 33 4 3 36 3 36-1s-2-4-14-4c-16 0-16 0-16-14l-1-13q-2-3-5-1m-646 1c-2 3-1 33 1 35 3 2 33 0 34-2q5-5-19-5c-10-1-10-1-11-15q0-18-5-13m552 2v30c2 3 34 3 35-1q2-4-14-4c-15 0-15 0-15-13q0-16-3-15zM4 157q-5-1-4 4-1 4 4 3l18-1q4-3 0-5c-4-1-13-2-18-1m302 12q-2 0-2 17c0 16 1 19 4 21s36 1 38 0q6-6-18-6c-18 0-17 1-17-17q1-15-2-15-1-3-3 0m94 1v37c3 3 36 2 39-2q5-4-15-4l-15-1c-2-2-4-17-3-23 1-7-3-12-6-7m93 1-1 18c0 21-2 19 20 19 15-1 18-2 18-5 0-2-2-2-15-3-17 0-16 1-16-16q1-13-2-13-3-3-4 0m-461 0c-3 4-1 33 2 36 4 5 37 4 37-1 0-3-1-3-15-3-18 0-17 0-17-15 0-11 0-13-2-15q-2-5-5-2m185 1c-3 5-1 36 2 36 4 2 34 0 36-1q4-6-14-6h-14q-5 0-5-18 0-19-5-11m369-1c-1 1-2 4-2 17 0 21-2 20 20 19 12 0 15-1 17-2q6-4-14-5c-16 0-16 0-16-15q1-18-5-14m-461 2-1 18c0 18 0 19 7 19l16-2 14-1c4-2-3-7-7-5h-4l-10-1c-9 0-9 1-10-14l-1-14zm555 4v12l-1 12q-1 1 1 4l2 3h13q18-1 17-5 2-4-13-3c-13 0-13 0-13-13l-1-11q-4-2-5 1m-234 37v14l-2 17q0 4 2 5h38c4-4-1-5-28-6-4 0-4-1-5-16q0-20-5-14m-277 3c-1 12 0 33 2 34 5 4 37 2 37-1q2-4-15-4c-17 0-17 0-18-15v-14c-1-3-6-3-6 0m93-1-1 14v16c-1 6 2 6 21 6l18-1q6-5-13-5-13 0-16-2l-3-1v-13l-1-13q-2-3-5-1m92 1c-1 2-1 25 1 31 1 4 4 5 20 5 13-1 14-1 16-3q6-5-15-5c-17-1-16 0-17-16v-13q-3-3-5 1m277 0v33h35q5-6-16-6c-13 0-13 0-13-14q-1-21-6-13m-552 1c-2 2-2 32 0 34 1 2 34 1 36-1q5-5-18-5c-14 0-13 1-13-15q0-20-5-13m461-1c-3 4-2 30 1 33 1 2 30 1 32 0q4-3 0-5l-13-1h-12l-1-5-2-13q-1-14-5-9m185 3-1 15c0 17-1 17 17 16 15 0 17 0 17-3q1-4-14-4c-12 0-13-1-13-14q0-12-3-12zM0 249v4h11q17 1 12-5 0-2-12-2H0zm305 7-1 18c0 15 0 17 2 19l2 3h17c18 0 21-1 20-5 0-1-2-2-16-2-18 0-17 1-18-17 0-16 0-17-3-17zm188 4c-2 3-1 34 0 35 2 1 35 0 36-2q5-4-10-4-16 0-19-3l-1-13-1-13q-3-4-5 0m-92 0-2 10-1 15c0 10 1 11 19 11q21 0 19-4 2-4-12-3c-17 0-17 0-19-19q0-15-4-10m183 4 1 24q1 9 7 8l15-2q16 0 13-4 1-2-16-2c-13-1-13-1-13-14s0-14-4-14zm-552-1-1 16c0 17 1 20 8 19l16-1c12 0 13 0 14-2q3-5-15-5l-14-1-2-13-1-14q-3-2-5 1m92 2-1 16c0 17-1 16 19 16 16 0 19-1 19-4s-2-3-16-3c-15 0-15 0-15-13 0-14-3-21-6-12m93-1v30c1 3 32 3 35 1q6-6-15-6-18 1-13-7l-1-3v-7q0-11-4-11-2 0-2 3m464 1c-2 2-1 28 1 29 1 1 25 0 28-1l1-2q1-3-14-3c-10-1-11-1-11-11q0-18-5-12m-513 40-1 17c0 21-1 20 20 20 19 0 22-1 21-5-1-2-1-2-18-2-16 0-16 0-16-16q0-22-6-14m186 0-1 18c-1 17 0 19 14 18h11q15 0 14-3 2-4-16-4c-15-1-15-1-16-8-1-23-1-22-4-23q-2 0-2 2m92-1-1 32c1 4 4 5 21 4q25 1 16-5c-2-2-4-2-15-2l-13-1c-1-1-3-12-3-19q0-13-5-9m94 1c-2 5-2 32 0 33 2 3 35 2 36-1q4-4-15-4c-16 0-16 0-16-16l-1-13q-3-3-4 1m92 0c-1 2-2 30 0 33 1 2 1 2 17 1q23 0 16-4-1-2-11-2c-17 0-17-1-17-15q0-18-5-13m-554 2v34c2 2 34 2 37-1q5-5-15-5c-16 0-16 0-16-15q1-13-2-13-3-3-4 0m185 1-2 14c0 19 1 20 22 19 15 0 16 0 16-3q2-5-16-4c-15 0-15 0-15-14l-1-12q-3-4-4 0m462 0c-2 2-1 26 1 29 3 5 33 4 32-1q-2-4-11-3h-9q-7 0-7-17l-1-8zM1 335l-1 4v3h6q13 0 13-4c-1-3-16-6-18-3m304 14-1 18c0 21-1 20 22 20 17 0 21-1 21-3q2-4-18-4c-19 0-18 1-18-16v-16q-3-5-6 1m281 0c-2 1-2 4-2 18 0 19 0 20 10 19l18-1q12 0 12-2 3-4-16-4c-18 0-18 1-17-22q0-14-5-8m-185 0-1 15-2 16 2 4c3 3 3 3 20 3s19 0 19-4c0-3-1-3-15-3l-15-1q-3-4-4-20v-10zm-185 2c-2 3-1 25 1 30 3 7 3 7 20 7q21 0 19-3 2-4-16-4c-18 0-18 0-18-17 0-13-1-15-4-15zm277 0v32c2 5 36 5 37 0q3-3-15-3c-17-1-16 0-16-15l-1-14q-2-4-5 0m-369 1v35c2 2 37 2 39-1q6-4-15-5c-19 0-18 1-18-16 0-13-1-15-4-15zm557 1c-2 2-2 29 0 31q0 3 16 1c16 0 16 0 16-3s-2-3-14-3l-11-1-1-11q-1-19-6-14m-649 2c-2 4-1 32 0 33s28 0 33-1q3 0 2-3v-2l-13-1c-16-1-15 0-16-14l-1-13q-4-2-5 1m136 39-1 36q3 3 17 2l16-1q10 0 9-4-2-2-11-2h-13c-10-1-11-2-11-17l-1-14c0-3-5-3-5 0m94-1c-2 2-1 34 1 36q6 5 11 3l10-1q18 1 11-5 0-2-13-2c-15 0-14 1-15-16q1-21-5-15m185 0-1 12-1 16q-2 5 1 7l2 3 17-1q25 0 19-4 0-2-15-2c-17-1-16 0-17-12q-1-25-5-19m185 0-1 17c0 21-1 20 18 20 16 0 19-1 19-4s-2-3-15-3c-16 0-16 1-16-18l-2-12zm-278 1-1 18c0 20-1 19 18 19 17 0 20-1 20-4 0-2-1-3-14-3-18-1-17 0-18-17l-1-13zm187 0-2 11v15c-1 11-1 11 18 10 17 0 20-1 19-4q-1-3-18-3h-10l-1-3-2-14q0-16-4-12m184 2c-2 3-1 28 2 33h29q6-4 1-5l-12-1c-13 0-14-1-14-14q0-18-6-13m-647 6-1 16c1 14 1 16 9 14h14q16-1 12-5 0-2-13-2c-15-1-15 0-15-14q0-15-4-13-2 0-2 4M0 429v4h7q12 0 14-4 2-3-12-4H0zm305 9c-2 2-1 31 1 35l2 3h15q23 0 23-4 3-3-15-4c-20 0-20 0-20-17q0-19-6-13m-89 1-1 18c0 19 1 21 9 20l16-1q12 1 13-2 7-5-12-5c-19 0-19 0-19-18q0-18-6-12m277 1c-1 4 0 29 1 31 2 3 31 4 34 1q6-4-13-5c-16 0-16 0-16-15q0-15-4-14zm92 3c-2 10-1 26 2 29 2 3 34 2 35-1q3-4-15-4c-16 0-16 0-16-15l-1-12q-3-4-5 3m-184-3-1 12-1 15c-1 7 0 7 19 7 18 0 21-1 17-5-1-2-3-2-14-2l-13-1q-2-2-2-13 0-13-2-13zm-369 1c-2 2-2 32 1 34 2 3 32 2 33-1q6-6-13-5c-15 0-15 0-15-13q0-18-6-15m649 2c-2 7-2 28 0 29 2 2 29 2 32 0q6-6-14-6h-11l-1-11-2-12q-2-4-4 0m-557 1-1 16c0 14 0 15 2 16 3 1 31 0 32-2q5-6-12-5c-14 0-14 0-14-12l-2-12q-2-3-5-1m137 39v25q-1 5 4 4 5 1 3-2v-14q0-12-2-13-3-4-5 0m93 0-2 5 1 14v10h7l-1-14q1-24-5-15m187 0-2 15v14h4q7 1 4-3l-1-9q0-20-5-17m-94 1-1 20v8h5q4 0 3-1l-1-13-1-13q-2-3-5-1m185 0v28h8l-1-2q-2-2-2-13l-1-12q-1-3-4-1m93 0-1 15v13h12l-2-3c-3-2-3-3-3-13q0-18-6-12m-556 2q-2 2-2 14v12h8l-1-12q0-22-5-14m-91 2-1 13v11h8l-1-4v-11l-2-9c0-2-4-3-4 0"
        mask="url(#16282281824-posters-1720558192031-horizontal-mask)" itemprop="light" fill-opacity="0.90"
        fill-rule="evenodd" stroke="none" fill="url(#16282281824-posters-1720558192031-vertical-light)"></path>
      <!---->
      <path id="16282281824-posters-1720558192031-regular"
        d="m32 12 1 14c2 3 30 3 34 1q5-5-14-5c-15 0-15 0-15-13V0h-6zm92 0 1 14c2 2 30 2 32 0v-2l-16-3q-13 3-12-13l1-8h-6zm92-3-1 11q0 4 2 5c3 3 31 3 35 1q6-5-15-5c-15 0-15 0-15-12V0h-6zm89-7v12c-1 13-1 13 14 13q25 0 24-3c0-3-2-3-15-3-16 0-17 0-17-11-1-10-1-10-3-10q-3 0-3 2m94 4v12c-2 9-2 9 18 8 17 0 19-1 17-3q0-2-13-2c-16-1-16-1-16-13V0h-6zm94-5q-3 27 6 25h14q15 0 14-3t-15-3c-13 0-13 0-14-10V2c0-2-5-3-5-1m92 11c0 15-1 14 20 14l16-2q3-3-5-3-20 0-24-2l-2-10c0-9 0-9-3-9-2 0-2 0-2 12m95 0c0 15-1 14 16 14q28-3 3-6c-13 0-14-1-14-12 0-8 0-8-2-8h-3zm-47 24c-2 3-1 32 1 34s31 2 33 0 0-2-14-3c-17-1-16 0-17-17q-1-18-3-14m-370 2-1 13-1 14c-2 6 1 8 17 8q23 0 22-3 2-3-18-3c-15 0-14 1-15-15V37q-3-2-4 1m-93 0c-2 2-1 32 0 34 3 2 33 2 35-1q6-3-14-4h-14q-3-2-3-19-1-15-4-10m184 4c-1 8 0 29 1 30h33q9-5-15-5c-14-1-14 0-14-14q0-18-3-16-2 0-2 5m93-3-1 17c-1 17 0 18 8 17l13-1 15-1q2-2-1-3c-1-2-3-2-14-2-17 1-16 1-16-14l-1-13q-2-4-3 0M79 40c-2 8-2 31 0 33 3 2 34 0 35-2 0-3-2-3-15-3-16 0-15 0-16-15l-1-13q-2-4-3 0m461 6-1 15c0 11 0 11 17 11 16 0 18 0 18-3q1-3-15-3c-14 0-13 0-14-14q0-15-4-14zm186-5-1 14c0 17 0 17 17 17q13 0 14-2 5-3-12-4c-13 0-13 0-14-13q0-16-4-12M8 68H0v6h8q13 0 13-3c0-2-5-5-5-4zm297 22-1 19c0 6 1 7 16 7q24 1 25-2c0-3-2-3-17-3-18 0-17 1-18-17 0-16 0-18-3-18-2 0-2 1-2 14m96-8c-2 4-2 16-1 24 1 11 1 11 13 10h15q7 1 7-2 2-3-13-3c-17 0-17 0-17-15q0-16-3-15zm-276 6q-3 25 0 28c1 1 7 2 29 1q6 1 7-2c1-2-1-3-15-3-17-1-16 0-17-16 0-13 0-14-2-14q-2 0-2 6m91-5c-1 4-1 32 1 33h33q2-2 0-3l-13-1c-15-1-15 0-15-15l-2-13q-3-3-4-1m278 0c-1 3-2 31-1 32 2 2 31 1 34 0q6-4-13-5c-16 0-16 0-15-12l-1-12q-3-6-4-3m91 3v15c1 16 0 15 17 15 14-1 17-1 17-4q2-2-12-2c-16 1-17 0-17-15l-1-10q-2-4-4 1m96-1v29c3 2 27 2 31 0q4-3-11-3c-15-1-16-1-16-18q0-13-4-8M33 86c-1 3 0 29 1 30 1 2 29 2 32 0q5-4-13-4c-14-1-14-1-15-14q-1-20-5-12m137 40-1 18v16l2 2c4 1 36 0 37-2q3-3-16-3c-18 0-18 0-18-17 0-15-1-17-4-14m185 0c-2 2-2 34-1 35 2 2 35 2 37 0q8-5-17-5c-15 0-14 0-15-15q0-21-4-15m92 0c-1 2-2 33 0 34 2 3 33 2 36 0q3-4-16-4c-16 0-16 0-16-17q0-18-4-13m94 1c-2 1-2 33 0 34h17c15 0 16-1 16-2 0-2-1-3-13-3-15-1-15-1-16-14 0-15-1-17-4-15m185 0-1 16v15l2 2c3 1 28 2 31 0l2-2c0-3-2-3-14-3-16 0-15 0-16-14l-1-13q-1-3-3-1m-464 1 1 34h24c11 0 12-1 12-2 0-2-1-3-14-3-17-1-17 0-17-15l-2-13q-1-3-4-1m-182 1-2 16c0 19-1 18 13 17h16q7 1 7-2 3-3-14-3c-16-1-15-1-16-15q-1-19-4-13m552 1-1 16c0 17-1 16 19 15 17-1 15-1 15-2q-2-3-11-4c-17 1-18 0-18-15l-1-11q-2-3-3 1M0 160q-1 4 16 3 8 0 7-2 0-4-16-4H0zm306 9-1 17v17l3 3c2 2 2 2 19 2q17 0 18-2 5-3-16-4c-20-1-19 0-19-19l-1-14zm95 0c-2 2-1 36 0 38 2 1 36 0 37-2q5-3-15-3l-15-2q-3-3-3-19t-4-12m93 3c-2 5-2 33-1 34 2 2 34 1 35-1q4-4-12-4c-18 0-17 1-17-16q-1-16-4-15zm-462 0c-1 4 0 31 2 34l2 3h16q26 1 18-5l-16-1-15-1-1-14-1-14q-3-5-5-2m185 0c-1 2 0 33 1 35 2 2 34 2 36-1q5-4-15-4c-17 0-16 1-17-16q-1-20-5-14m369 2c-2 10-2 30 0 31 2 2 32 1 34-1q5-3-14-4c-16 0-15 0-16-14l-1-13q-2-5-3 1m-460 0-1 17c0 18 0 19 5 18l17-1c11 0 13 0 14-2q3-3-14-4c-18 0-17 1-17-15q0-18-4-13m555 2-1 15c0 17-1 16 15 16 14-1 16-1 16-4 0-2 0-2-17-2-9-1-9-1-9-13q0-16-4-12m-234 39c-2 5-1 34 0 35h36q6-4-15-5c-18 0-17 0-17-16l-1-14zm-278 1c-1 4 0 33 2 34 2 2 34 2 36 1q4-5-14-5c-19 0-18 0-19-17v-13zm94 0-1 12-1 16c0 7 0 7 16 8q23 1 23-3 1-3-16-3c-16 0-16 0-16-14l-1-14q-2-4-4-2m92 1c-2 1-1 32 1 34 2 1 33 0 35-1q6-4-15-4c-17-1-17-1-17-16q0-17-4-13m277 0v32c1 2 32 2 33 0q5-3-14-4l-13-2-1-13-2-13q-1-2-3 0m-553 1v32l1 3h14q22 0 21-3 2-3-18-3c-14-1-14 0-14-16q0-19-4-13m461 0v15c-1 19-2 18 17 17 16 0 17 0 17-2q0-3-15-3c-13 0-13 0-14-13l-1-13q0-3-4-1m186 2v29q0 2 10 2l15-1q7 1 6-2 2-4-13-3c-12 0-13-1-13-11q0-13-3-15zM2 247q-2 0-2 3v3h11q14-1 12-4-1-2-6-2zm303 26c0 24-1 22 19 22q23 1 21-3c0-2-1-2-16-2-19-1-18 0-18-18-1-15-1-16-4-16-2 0-2 1-2 17m189-14-1 17c-1 20-1 21 9 19l15-1q14 1 12-2c0-3-2-3-15-3q-13 1-13-2c-2-2-4-16-3-22q-1-9-4-6m-93 3c-2 7-2 30 0 32s32 1 34-1q5-3-13-4c-17 0-16 0-17-16q0-15-2-13zm184 2 2 30c1 1 29 0 31-1q7-3-12-4c-15-1-15-1-15-13q0-15-3-16zm-552-2c-2 3-2 32 0 34h34l1-3c0-1-2-2-14-2-16 0-16 0-16-16q-1-18-5-13m185 0c-1 1-2 32 0 33h32l2-2q2-3-15-3c-14-1-14-1-15-15q0-16-4-13m-93 2-1 16c0 18-1 17 19 17 15-1 18-1 17-4q0-2-13-2c-17 0-18-1-18-13l-1-13q-1-5-3-1m556 2c-2 2-1 24 1 26 2 3 26 3 28 1q3-4-11-4c-11-1-13-2-14-6v-10q0-12-4-7m-326 38-1 15-1 15q-5 8 26 6c11 0 12-1 12-3s1-2-15-3c-16 0-16 1-17-15q0-18-3-16zm-186 2c-2 4-1 32 1 34s35 2 37-1q4-4-17-4c-17 0-16 1-16-14l-1-13q-2-6-4-2m278-1-1 17c0 15 0 16 2 17 3 2 32 1 34-1q5-4-14-4c-17 0-16 0-17-15q-1-20-4-14m94 0c-1 3-2 32-1 33 1 2 33 2 35 0q5-4-12-4c-18 0-18 0-18-15q0-16-3-15zm91 1c-1 2 0 31 1 32l3 1c22 0 28 0 29-2q3-3-12-3c-16-1-16 0-17-15q0-20-4-13m-553 1c-2 5-2 32 0 33 2 2 33 1 35 0q5-5-15-5c-16 0-15 0-16-14l-1-13q-1-3-3-1m185 0-2 15c0 19-1 19 20 18 15 0 18-1 17-3q-2-3-20-3c-11 0-11 0-11-14q-1-17-4-13m462 1-1 15c1 17 0 16 18 16 13 0 14-1 14-3s1-2-13-2c-12-1-12-1-13-14q-1-17-5-12M0 338v3h8c14-1 14-6 0-6H0zm306 10c-1 3-2 33-1 35 2 3 5 3 22 3s19 0 19-3c0-2-2-2-17-2-19-1-18 1-18-17q0-19-3-18zm280 1c-1 2-2 33 0 35 1 2 37 1 37-1s-1-3-15-3c-18 0-17 1-18-18q0-18-4-13m-185 1c-2 2-1 34 0 35 3 2 36 1 37-1 2-2 0-3-15-4-18 0-18 0-18-20q0-12-2-11zm-184 2c-3 7 0 32 4 35 4 2 33 1 34-2q3-4-17-4c-16 0-16 0-16-10-1-19-1-21-3-21zm277 0c-2 3-1 30 0 32 2 2 32 2 34 0q6-4-13-4c-17 0-16 0-17-15l-1-13q-1-4-3 0m-369 1c-2 4-1 32 1 34l17 1c17 0 20-1 20-3 0-3-2-3-16-3-18-1-18-1-17-14l-1-13q-3-6-4-2m-92 1-1 17v17h13q23 0 22-4 2-2-13-2c-17-1-17-1-17-18q0-13-4-10m648 1c-2 3-1 28 1 29 1 1 26 2 29 0q3-3-2-4c-24-1-23 0-23-11q0-20-5-14m-512 38v37h37c2 0 3-4 0-4-35 0-32 1-33-18l-1-15zm278 0c-2 2-2 33 0 36 2 2 34 1 36-1q5-4-13-4c-15 0-17 0-18-3l-1-15q0-17-4-13m-184 1-1 17c0 21-1 20 17 20q18 0 17-3c0-3-2-3-14-3-15 0-15 0-15-17l-2-14zm370 0c-2 1-1 34 0 34h34q4-5-16-4c-14 0-14 0-15-15q0-21-3-15m-278 2c-2 6-1 32 1 33 2 2 32 2 34 0q6-4-15-5c-16 0-16 0-16-16l-1-12q-2-4-3 0m186-1c-1 2-2 32 0 33 1 2 32 1 34 0q5-4-13-4c-16 0-16 0-17-15q0-18-4-14m184 4c-1 3 1 26 2 28 2 3 31 3 31-1q2-2-13-3c-14 0-14 0-14-12q0-14-4-15zm-646 1c-2 4-1 29 0 30q1 2 16 1c16 0 16 0 16-3q2-2-10-2c-17 0-17 0-18-16q0-12-2-11zM0 429v3h10q14-1 10-4 0-2-11-2H0zm306 10c-2 1-1 30 0 33l2 3 18-1 19-1q5-4-16-4-15 0-16-2-2-1-2-15-2-18-5-13m-89 2c-2 3-1 32 1 33 2 3 36 1 36-2q1-3-16-3c-16 0-16 0-16-12q0-17-3-18zm277 1c-1 12 0 28 1 29 2 2 30 3 33 1q4-4-13-4c-16 0-16 0-16-13q0-17-3-16-3 0-2 3m91 5c0 9 0 23 2 25 2 1 31 1 33-1q5-3-12-4c-18 0-17 1-18-15 0-12 0-13-2-13zm-183-6c-2 2-2 30-1 31q0 2 16 2 21 0 19-3 2-4-15-3c-16 0-15 1-16-15q-1-17-3-12m-370 1c-2 1-1 30 1 32 3 4 33 3 33-1q0-4-9-4c-20 1-20 1-20-13q0-19-5-14m649 0v30c2 3 33 1 33-2q0-3-13-3c-15 0-15 0-15-13q-2-17-5-12m-555 2-2 15c-1 17-1 19 9 17l14-1q10 1 10-2 2-3-10-4h-11q-6 0-6-8c0-11-3-20-4-17m135 40 1 26q0 3 3 2 4 1 2-3v-13q0-14-4-14zm93-1v26q-1 4 3 3h3l-1-14q-1-22-5-15m93 1-1 15v13h4q5 1 3-2l-1-12q0-20-5-14m94 0-1 14v14h3q5 1 3-3l-1-13q0-16-4-12m92 0v26q0 2 3 2 4 1 2-2l-2-14q0-18-3-12m93 1-1 14v13h5q5 1 3-2-2-2-2-12l-1-12q-2-3-4-1m-557 1-1 14v12h6v-10q0-21-5-16m-91 3v22l3 1h3l-1-9q-1-24-5-14"
        mask="url(#16282281824-posters-1720558192031-radial-mask)" itemprop="regular" fill-opacity="0.90"
        fill-rule="evenodd" stroke="none" fill="url(#16282281824-posters-1720558192031-horizontal-regular)"></path>
      <!---->
      <path id="16282281824-posters-1720558192031-medium"
        d="m33 12 1 14c1 2 30 2 32 0q4-4-14-4c-15 0-15 0-15-13 0-9 0-9-2-9s-2 0-2 12m91 0c0 14 0 15 11 14l22-1q-1-3-18-3c-9 0-10-1-10-13 0-9 0-9-3-9h-2zm93-12c-1 3 0 24 1 25 1 2 32 1 33 0q5-3-13-3c-16 0-17-1-17-13q1-10-2-9zm88 10v12l1 3c1 2 35 1 36 0q5-3-13-3c-18 0-19-1-19-16q1-7-3-6c-2 0-2 0-2 10m95-2-1 12c-1 6 0 6 11 6h12l12-2c0-2-11-3-16-3q-14 3-13-13c0-8 0-8-2-8-3 0-3 0-3 8m93 4c1 14 1 14 8 14l15-1 10-1q1-3-13-3c-13 0-15-1-15-13-1-8-1-8-3-8s-2 1-2 12m93-10q-1 18 1 21c2 2 32 3 34 1q3-2-13-3c-18 0-18 0-18-11l-1-8q-1-4-3 0m95 5-1 11c-1 7 1 8 15 7q13 0 14-2c2-1 2-1-12-2-11 0-12-1-13-12q-1-18-3-2M263 38l-1 14-1 15c-1 5 2 5 21 5l18-1q4-3-16-3c-18 0-17 0-18-16V38l-1-2zm370-1v31c2 2 5 3 19 3q18 0 15-3h-13c-18-1-18-1-19-19q0-16-2-12m-278 2c-2 5-1 32 0 33 2 1 32 0 34-1 2-2 0-3-14-3-17-1-17-1-17-17q1-15-2-14zm93-1-2 30c0 4 1 4 18 3 19 0 18 0 18-1q2-4-16-3c-15 1-15 1-16-16q0-17-2-13m-278 1c-2 1-1 31 1 32 1 2 31 2 34 0q5-3-14-3c-18 0-17 1-18-15 0-15-1-17-3-14m-91 3-1 16c0 17-1 16 16 15 16 0 20-1 20-2q-1-3-18-3c-13 0-13 0-13-14l-1-13q-2-4-3 1m461 12 1 16c2 1 31 2 33 0q3-3-13-3c-15 0-16-1-16-11q0-18-3-17c-2 0-2 1-2 15m185-8c-1 7 1 22 3 24s28 1 28-1q1-2-12-2c-13-1-14-1-14-10 0-14-3-21-5-11M0 71c0 2 0 2 9 2l11-1q3-4-11-4c-9 0-9 0-9 3m305 6v20l1 18h38q6-3-15-4c-20 0-20 1-20-20l-1-14zm95 7c-1 2 1 28 2 30s1 2 16 2q23-1 15-4l-13-1c-15 0-15 0-15-14 0-12-2-19-5-13m94 6-1 21q-3 6 19 4c13 0 15-1 15-2 0-2-1-2-12-2-17 0-17 0-17-14q0-14-3-15zm-369 9v17c1 1 29 2 33 1q4-2 1-4l-13-1c-17 0-17 0-17-13q0-16-3-16zm92-15c-2 2-1 31 0 32 2 1 32 1 33-1q3-3-13-3c-16 0-16 0-16-15l-1-12q-1-3-3-1m369 0c-1 2 0 28 1 30l14 1c14 0 17-1 17-3l-11-1c-17 0-17 0-18-16q0-14-3-11m95 2-1 15c1 15-1 14 17 14q16 0 15-2-2-2-12-2c-15-1-14 0-15-14q-1-17-4-11M34 86v30c1 2 27 1 30 0q8-4-12-4c-13 0-13 0-15-16q0-15-3-10m321 41c-2 3-1 34 0 35 2 1 35 0 36-2q4-4-18-3c-13 0-15-3-15-19q0-18-3-11m-186 5v24q-1 1 1 4c1 2 2 2 17 2q41-2 5-5c-18 0-17 1-18-17 0-12-1-14-2-14q-2-1-3 6m278-5c-2 3-1 32 1 34 4 2 34 0 34-3l-21-1c-10-1-10-1-10-16q0-18-4-14m94 1c-2 2-1 31 0 32h28l5-1q2-3-15-3c-13 0-14-1-14-12q-1-21-4-16m185 0-1 16v15l2 1c5 1 31 1 32-1q5-3-12-3c-18 0-16 3-18-28zm-463 1c-1 2 0 30 1 32l16 1c17 0 19-1 18-3q0-2-13-2c-18 0-18 0-19-17q-1-17-3-11m370 0v31c1 1 31 0 31-2q2-2-13-2c-15 0-15 0-16-17q0-15-2-10m-553 1c-2 1-1 31 0 32 2 1 30 0 32-1q7-4-12-4c-16 0-16 0-17-16q0-15-3-11M4 158q-4-1-4 3c0 2 0 2 10 2l12-1q3-4-6-4zm302 12-1 14c0 24 0 24 23 23l17-1q2-3-16-3c-20-1-20-1-19-18v-14q-2-4-4-1m95 0-1 18c0 20 0 21 9 19h6c2 1 23-1 23-3 0-1 2-1-15-2h-15l-2-3-1-15q0-19-4-14m-369 3 2 32 2 3c4 1 32 1 33-1q5-3-15-4c-18 0-17 1-17-16l-1-15q-3-2-4 1m186-1v33l1 3h17l17-2q5-3-12-3c-19 0-20-1-20-19q0-16-3-12m276-1-1 17c0 17 0 17 2 18 3 1 31 0 33-1q6-3-13-3c-16 0-17 0-17-15q0-18-3-16zm92 3v17c-1 17-3 15 17 15 18-1 17-1 17-2q1-3-15-3c-13 0-13 0-15-8l-1-11q1-10-1-10zm-460 1c-2 1-1 32 0 33 2 1 32 0 34-1q6-4-14-4c-16 0-16 0-17-14q0-20-3-14m555 3-1 14c1 16 0 15 17 14q16-1 14-4l-22-1q-4 0-4-13l-1-11q-3-2-3 1m-234 38-1 18c0 18-2 16 19 16q23 1 18-3l-14-1c-18 0-18 0-19-17q0-19-3-13m-277 2c-1 4 1 31 2 32s33 2 34 0v-1q0-2-13-2c-19 0-19 0-19-19q0-13-2-12zm93 8-1 12c-2 13-2 13 20 13l17-1q3-3-9-3c-24-1-23 0-23-16q0-16-3-15zm92-9v27l2 7h16c13 0 16 0 17-2q4-3-14-3c-12 0-13 0-15-2s-2-2-2-15q-1-15-4-12m278 0c-2 3-2 31-1 32h33q3-3-14-4c-15 0-15 0-15-15 0-10-2-17-3-13m-553 1c-2 2-1 32 0 33h33q3-2-1-3-24 0-27-2-2-1-2-14-1-18-3-14m461 0-1 15q-1 21 6 18l14-1 13-1 1-1q-1-2-13-2c-16-1-16 0-17-16q0-16-3-12m185 2-1 14c0 15 1 18 7 17l14-2q15 1 10-2l-17-2q-10 2-9-12 0-17-4-13M1 248l-1 2q-1 3 9 2 15 1 13-3l-4-1zm305 9v34c2 4 3 4 21 4 17-1 18-1 17-3q0-2-15-2c-19 0-18 1-19-18l-1-15zm188 3v34l9 1 16-1 9-2c2-1 0-2-14-2-17-1-17-1-17-26l-1-5zm-93 1-1 17c0 19-2 17 19 17q19-1 16-4l-14-1c-16-1-16-1-16-14q0-19-4-15m185 3v18q0 10 2 11c1 2 29 1 30-1q5-3-13-3c-15-1-15 0-15-15l-1-11q-2-4-3 1m-553 2c-1 28-1 27 1 29q2 3 6 2l15-1 13-1q2-4-15-4c-16 0-16 0-16-15 0-12 0-14-3-14zm184-2v17l1 14h15c16 0 19 0 19-3l-17-1c-13-1-14-2-13-20q-1-14-5-7m-92 8q-1 23 1 23h31q5-1 1-3l-13-1c-17 0-16 1-17-25l-1-3q-2-1-2 9m556 7 2 14c1 2 27 0 27-2q1-2-11-2c-14-1-14-1-14-12q1-14-3-12zm-326 26-1 16c0 15 0 16 2 17 3 2 31 2 34 1q6-3-14-4-14 0-15-2-2-1-2-15-2-18-4-13m-186 2c-1 4 0 31 1 32 2 3 33 3 36 1q5-4-15-4c-18 0-18 0-18-15l-1-14q-1-4-3 0m278 0c-2 3-1 29 0 31 2 2 32 2 34 0q4-3-11-4c-18 1-19 1-20-16l-1-12q-1-2-2 1m94 0-1 16c-1 13-1 14 1 15h34v-1c0-3-2-3-15-3-15 0-15 0-16-16q-1-19-3-11M79 322v17c2 3 35 2 35 0 0-3-2-3-14-3q-12 1-14-2l-3-1v-12q0-15-3-15zm554-15v31h15c17 0 18 0 16-3l-12-1c-16 0-16 0-17-24q0-6-2-3m-369 1c-2 1-1 29 1 30 2 2 32 3 33 0q3-3-15-3c-15 0-15 0-16-11q0-21-3-16m461 2 1 5v12q-1 10 2 10c2 2 26 2 28 0q3-3-11-3l-11-1q-4-4-3-15c0-8-4-14-6-8M1 336l-1 3 9 1q11 0 8-3c-1-1-14-2-16-1m306 12c-2 5-2 34 0 36 2 3 38 3 38-1q1-2-12-2c-23 1-23 1-23-17v-15q-2-3-3-1m95 2-1 17-1 17 2 1c4 2 34 1 35-1 2-2 0-3-14-3q-15 0-16-2l-3-14c1-9-1-18-2-15m185 0c-2 2-2 32-1 34 1 1 35 0 36-1q2-3-15-3c-16 0-17 0-18-18v-12zm-462 16v18l1 3h16c18 0 21 0 21-2q2-4-18-3c-16 1-16 1-16-15q0-18-3-16zm92-13q-1 27 4 33c2 2 31 1 33-1s0-2-15-3c-18-1-18-1-18-15q0-17-3-16zm277 14c0 19-1 18 17 18 15 0 18-1 18-3l-9-1-16-1c-6 0-6-2-7-16 0-14 0-13-1-13-2 0-2 2-2 16M32 357v21c-2 10-1 10 13 9 17 0 21-1 21-3 0-1-1-2-16-2-12 0-13-1-13-14l-1-12q-2-4-4 1m650-2-1 28c1 2 2 2 14 1 14 0 17-1 17-2q-1-2-12-2c-15-1-14 0-15-12q0-19-3-13m-513 40-1 18v17l3 1 36-2q5-3-14-3c-20 0-20 0-20-18l-1-13q-2-4-3 0m279-1c-1 1-2 31-1 33 0 2 34 3 36 1q2-3-14-3c-18 0-18 0-18-18q-1-17-3-13m-185 1v33c2 3 30 4 32 0 1-2 0-2-11-2-17 0-17 0-18-18q0-18-3-13m92 1c-1 3-1 31 1 32 1 2 33 2 34 1v-2c-1-2-3-2-14-2-17 0-18-1-18-20q0-14-3-9m278-1v32c2 2 33 1 34-1q0-2-14-1c-15 1-17-1-18-15v-11q0-6-2-4m-92 1-1 17 1 16h16l17-1q4-3-7-3c-21 0-22-1-22-17q-1-16-4-12m185 16c1 18 0 17 17 16q18 0 15-3l-12-1c-15-1-15-1-15-13-1-12-2-14-4-14zm-647-7v25c1 1 30 1 31-1q4-3-12-3c-13 0-15-1-15-10l-2-16q-2-4-2 5M0 429c0 2 0 2 10 2q9 1 10-2 2-3-11-3c-9 0-9 1-9 3m306 10c-2 3-1 31 1 34 2 2 35 2 37 0q5-3-15-4c-19 0-18 0-19-16q-1-18-4-14m-88 1c-2 1-2 32 0 34h34q8-4-12-4l-18-2-1-14c-1-15-1-15-3-14m369 0c-2 2-1 28 0 30 2 3 33 3 33 0 0-2-1-2-13-2-16 0-17-1-17-11q-1-20-3-17m-185 1-1 10v14c-1 8-1 8 17 8 16 0 17 0 17-3l-6-1c-26-1-23 1-24-15q0-13-2-13zm92 13c0 20-1 18 18 18h16q2-3-12-4c-14 0-14 0-16-2s-2-3-2-12c0-12 0-14-3-14zm-462-8c-1 13 0 27 2 28 2 2 30 2 32 0q2-4-14-4c-15 0-15 0-16-15q0-15-2-13-2 0-2 4m650-3-1 28c1 1 31 2 32 0q2-4-12-3-13 0-15-2l-1-12q-1-15-3-11m-557 15v16c1 3 32 1 32-1q2-4-13-3c-13 0-15-1-15-10 0-20-4-22-4-2m137 40v14h3q4 1 2-2l-1-16c0-10 0-11-2-11s-2 1-2 15m92 0c0 14 0 14 2 14 3 0 3 0 2-13 0-15 0-16-2-16s-2 2-2 15m93-14v22q-1 8 3 6 4 1 2-4l-1-13q0-15-4-11m94 1-1 14v13h6l-1-10-1-14q-1-5-3-3m91 0 2 25q0 2 3 2 3 1 1-2-2-1-2-13 0-18-4-12m94 0v27h4q5 0 3-1-3-2-3-16 0-15-4-10m-557 2-1 13v12h6l-1-11q0-20-4-14m-91 3v13q0 11 3 9c2 0 2 0 2-11l-1-13q-3-3-4 2"
        mask="url(#16282281824-posters-1720558192031-vertical-mask)" itemprop="medium" fill-opacity="0.90"
        fill-rule="evenodd" stroke="none" fill="url(#16282281824-posters-1720558192031-vertical-medium)"></path>
      <!---->
      <path id="16282281824-posters-1720558192031-bold"
        d="m33 9 1 14 1 4 15-1h16q1-3-9-3l-19-2-1-11q1-12-2-10-2-1-2 9m92 3 1 13c2 1 28 2 29 0 1-1-10-3-17-3q-12 1-10-14l-1-8c-2 0-2 1-2 12m92-3v12q-1 2 1 3c2 3 33 2 33 0q1-2-13-2c-17 0-17 0-18-13q0-10-2-9zm89-6v15c-2 7-2 8 18 7h18q4-3-14-3c-17 0-18-1-19-14q-1-13-3-5m95-2v9l-1 11q-2 4 1 4c3 1 31 0 32-2l-11-1c-16 0-18-1-18-14l-1-8zm93 10v12c0 2 6 3 8 2l12-1q13 1 11-1l-11-1c-15 0-17-1-17-15l-1-7q-3-1-2 11m92 0c1 14 0 14 14 13h15c11 0 4-2-8-2-17-1-17-1-18-13l-1-9q-2 0-2 11m96 0c-1 15-2 14 13 13q24-1 4-2c-14 0-15-1-15-13q-1-18-2 2M264 39c-2 8-2 31 0 32h35q3-3-16-3c-18 0-17 1-17-18q0-19-2-11m369 13c0 19-1 18 16 18l17-1-13-1c-18-1-18 0-18-18l-1-12q-1-1-1 14M355 39v31c1 2 2 2 17 2l17-1q2-3-15-3c-17 0-16 0-17-16q1-18-2-13m93 0v5l-1 25c0 3 34 3 34 0l-13-1c-19 0-18 1-18-22 0-6-2-11-2-7M80 40c-2 1-1 32 0 32l33-1c1-1-19-3-21-2l-5-1c-4-1-5-5-5-20q0-10-2-8m90 15 1 17h15q22 0 18-3l-13-1c-18 0-18 1-18-16l-1-9-1-4zm371-5-1 13 1 5 1 3h15l16-1c1-2 0-2-13-2-16-1-16-1-16-16l-1-11q-2-6-2 9m185-5c-1 4 1 23 2 24 1 2 26 2 27 1q3-3-11-2c-14-1-14-1-15-15q0-17-3-8M8 69q-8-1-8 2l10 1 10-1q0-2-12-2m299 9-1 13-1 18v5h39q-1-2-17-2c-18 1-18 0-18-20q0-18-2-14m95 5c-2 3-2 16-1 24l2 8h30q5-3-12-3c-17-1-17-1-17-15q0-17-2-14m93 1-1 16v15h14c16 0 18-1 18-3l-13-1-13-1-2-2-1-12q0-16-2-12m-370 2v29c2 1 26 2 33 0q8-2-11-2c-19 0-18 0-19-16l-1-13zm92 13c-1 16 0 19 6 17l12-1 15-1-12-1c-17 0-18-1-18-18l-1-11q-3-1-2 15m370-12c-1 5 0 25 1 27 1 1 25 1 29-1q3-2-7-2c-21 1-21 0-21-15q0-16-2-9M33 92l1 18c0 7 0 7 14 7q20-1 17-3l-11-1c-16 0-16-1-17-16q-2-20-4-5m649-7v29h29q2-2-11-3c-15 0-16-1-16-14 0-7-1-14-2-12m-326 42c-2 2-2 33-1 34 2 1 32 0 35-1q6-3-13-3c-19 0-19 0-19-16q0-16-2-14m-186 16v17c1 1 35 2 37 0l-17-2c-17 0-17 0-17-25l-1-6q-2-2-2 16m278-14c-2 3-1 30 0 31 2 1 33 0 33-1q0-2-17-2c-14 0-14 0-14-17q0-17-2-11m94-1-1 16v16h16l16-1q0-2-13-2c-16-1-16-1-16-13q0-17-2-16m185 0-1 16c-1 14-1 14 2 15h31q2-3-14-3c-16 0-16 0-16-18q0-15-2-10m-464 3v12l1 14v4h17q31-1 3-3l-14-1c-4-4-4-6-4-17q0-16-3-9m370 13v15h30q3-3-13-3c-14 1-15 0-15-16q-1-24-2 4M80 131v30c2 1 31 0 32-1q4-2-12-2c-16 0-17-1-17-15q-1-17-3-12M4 159q-7 2 0 3c7 1 20-1 18-2-1-1-14-2-18-1m302 28c1 21-1 20 21 19l17-1q3-1-14-2c-22 0-21 0-21-19 0-12 0-14-2-14zm95 1 1 19 17-1c22 0 26-3 4-4-19 0-18 1-19-18q0-14-2-14zm94-16-1 33c0 1 29 2 32 0q7-3-12-3c-17 0-17 0-17-17q0-17-2-13M33 187c0 16 1 20 4 21l32-1q3-3-14-3c-19 0-18 1-18-16q0-18-3-16zm186-14v32c0 2 1 2 17 2q21 0 18-3h-13c-19 0-20-1-21-19 0-13 0-14-1-12m368 2v9l-1 13q-3 12 7 8h13q14 0 14-2l-12-1c-18 0-18 0-19-17q0-17-2-10m-461 15v17c2 1 32 0 34-1 1-2 0-2-14-2-17-1-17-1-17-14q-1-31-3 0m556-12v9l-1 11q-4 9 11 8c9 0 18-2 18-3l-10-1c-15 0-16-1-16-13q0-16-2-11m-234 38-1 17v16h12c13 1 24 0 24-1l-14-1c-17 0-20-2-19-12 0-5-1-20-2-19m-277 1c-2 3-1 31 1 32 1 1 33 2 34 0q3-1-14-2c-18 0-18 0-18-18q-2-17-3-12m93 2-1 24q-2 7 1 7h35q3-2-15-3c-18 0-18 0-18-17l-1-13q-1-1-1 2m91-1c-1 3 1 30 2 31h32q5-2-12-2c-19 0-19-1-19-17q0-13-3-12m278 2v10l-1 11q-1 10 6 9l14-1q18 0 9-2l-8-1c-17 1-18 0-18-17l-1-12zm-553-1c-2 1-1 31 0 32l15 1c19-1 18-1 18-2q-1-2-15-2c-16-1-16 0-16-17q-1-17-2-12m462 0c-2 2-1 27 0 29q1 2 4 2l15-1 12-1-10-1c-17 0-19-2-19-17q0-14-2-11m185 4v25c1 2 2 2 15 1l14-1q2-1-9-2c-17 0-17-1-18-16q0-15-2-7M0 250q-2 3 10 2l11-1q4-3-11-3-12 0-10 2m306 8c-1 4 0 34 2 35h34q8-2-12-2c-21 0-20 0-21-19q0-21-3-14m188 18c0 19 0 20 6 18l14-1q29-2-2-3c-15-1-15-1-15-16q0-16-2-15zm-92-11-1 28c1 1 31 1 33-1q2-2-16-2c-13 0-14-1-14-17q0-17-2-8m-368-2c-2 1-1 31 0 32l33-1q1-2-10-2-17 0-19-3l-1-13q-1-15-3-13m185 0-1 31h32q4-3-12-3c-16 0-17-1-17-16q0-16-2-12m368 2c-1 5 0 26 1 28l3 1 13-1q15 0 14-2l-12-1c-16 0-17-1-17-17q0-17-2-8m-461-1v31c2 1 31 0 32-1q4-2-14-2c-16-1-16-1-16-15q0-15-2-13m556 14 1 14c1 1 26 0 26-1l-10-1c-14 0-15-1-15-14l-1-10q-1-1-1 12m-512 29-1 17c1 17 1 18 6 17l17-1 14-1c0-3-3-3-17-3-17 0-17 0-17-14l-1-17zm185 9-1 17v5h6l20 1h4c1 1 6-1 6-2l-12-1c-19 0-20-1-20-17q1-15-2-14zm92 4c0 19 0 19 9 18 21 0 26 0 25-1q-1-2-13-2c-18 0-18 0-19-25l-1-5zm95-14-1 16v16h15l18-1q3-2-10-2c-19 0-20 0-20-17q-1-16-2-12M79 321v19h17q22 0 17-3l-14-1c-17 0-16 0-17-14q0-16-2-15zm554 1v16h15q20 0 15-3l-12-1c-15 0-15 0-16-15q-1-24-2 3m-369-1c-1 17 0 17 3 17l2 1c1 1 25 0 28-1q6-2-13-2c-17 0-17 0-18-16q-1-24-2 1m463-11v15c-1 2 0 10 1 12 2 1 26 2 28 0q1-3-10-2c-14 1-16-1-16-16q-1-16-3-9M0 338c0 2 0 2 8 2q19-3-1-4-8 0-7 2m307 24-2 16q-1 2 2 5c4 4 37 4 37 0l-14-1q-21 1-20-5v-15q-2-28-3 0m95-11-1 17v16l4 1h22c1 1 9 0 10-2l-8-1c-24 0-25-1-25-19zm185 0-1 17 1 16h17l17-1q4-2-14-2h-12l-3-3c-3-3-3-3-3-16q0-15-2-11m-369 0v27c2 8 2 8 19 8 16 0 18 0 16-3l-15-1c-19 0-18 1-18-22l-1-9zm276 15 1 17 16 1q30-1 5-2c-19-1-18-1-19-17q0-13-2-14zm-368-13v33h36q3-4-16-3c-18 0-17 0-18-17q0-17-2-13m-92 2-1 31c0 1 30 1 32-1q4-2-10-2c-18 0-18-1-19-15q0-16-2-13m648 2v26h25q11-2-7-2c-16-1-16-1-16-16 0-9-2-16-2-8m-512 38-1 13-1 15c-1 7 0 7 18 7 17 0 21-1 21-2l-14-1c-20 0-21-1-21-20q0-19-2-12m278 1-1 18 1 15 16-1h18q3-2-14-3c-18 0-18 0-18-16l-1-13-1-2zm185 14 1 17c1 1 32 0 32-1l-13-1c-17 0-18-1-18-19q-1-24-2 4m-370-10v10q-2 2 1 3v3c-2 2-2 10 1 12 1 2 28 2 30 1q2-3-12-2c-16-1-17-1-18-19q0-21-2-8m93 0v28c0 2 33 1 33 0q1-2-5-2c-27 0-26 0-26-17q0-20-2-9m186-3-1 13-1 13c-1 5 1 6 16 6l16-1q6-3-10-3c-17 0-18-1-18-16q0-14-2-12m185 2-1 10 1 12q0 9 9 7l13-1q17-1-3-2c-16-1-15-1-16-15q-2-18-3-11m-647 2-1 15 1 14h14q15 0 16-2l-11-1c-16 0-16 0-18-20q0-10-1-6M0 429c0 1 18 2 19 0q2-2-11-2-8 0-8 2m306 11c-1 3 1 31 2 32 1 2 34 2 36 0q2-2-15-2c-19 0-20-1-20-19q0-15-3-11m-88 1v32c1 3 35 2 35-1l-14-1c-18-1-18 0-19-18q0-15-2-12m277 3v16q-1 7 1 9l1 3h15l15-1-11-2c-19 0-18 0-19-16 0-11-1-17-2-9m92 0v25l1 3h16q15 0 16-2t-15-2c-15 0-15 0-16-16 0-11-2-17-2-8m-185 8-1 15 1 5 33-1q3-1-13-2h-14q-4-2-4-18l-1-9zm-369-5v17l1 11h13q21 0 17-3l-9-1c-18 0-19-1-20-18q0-18-2-6m649 9v15c1 2 29 1 30-1 0-2-1-2-12-2-16 0-16 0-16-15q-1-21-2 3m-557 4v15h13c15-1 18-2 18-3l-15-1q-13 1-12-9c0-6-2-17-3-17zm138 24c-2 3 0 28 2 28s2-26 0-28zm91 0v13l1 13 2 2c2 0 1-26-1-28zm94 1v19c0 8 0 8 3 8q3 1 1-2l-1-13q-1-15-3-12m94 0-1 14v13h3q3 0 1-2l-1-12q0-17-2-13m91 10q0 18 3 17 3 1 1-2-2-2-2-14l-1-11zm94-8-1 14 1 11h3q4 1 2-2c-2-1-3-11-3-22q-1-6-2-1m-557 1v12c-1 11-1 12 1 12q3 1 2-2l-1-12-1-11zm-91 12c0 12 0 12 2 12q2 1 2-3l-1-5-2-16z"
        mask="url(#16282281824-posters-1720558192031-horizontal-mask)" itemprop="bold" fill-opacity="0.90"
        fill-rule="evenodd" stroke="none" fill="url(#16282281824-posters-1720558192031-vertical-bold)"></path>
    </pattern>
    <rect id="16282281824-posters-1720558192031-pattern-render" fill="url(#16282281824-posters-1720558192031-pattern)"
      width="100%" height="100%"></rect>
  </defs>
  <radialGradient id="lightbar" cx="50%" cy="200%" fy="0" r="201%">
    <stop offset="0%" style="stop-color: rgb(255, 255, 255); stop-opacity: 0.1;"></stop>
    <stop offset="10%" style="stop-color: rgb(0, 0, 0); stop-opacity: 0.1;"></stop>
    <stop offset="30%" style="stop-color: rgb(0, 0, 0); stop-opacity: 0.3;"></stop>
    <stop offset="90%" style="stop-color: rgb(0, 0, 0); stop-opacity: 0.55;"></stop>
    <stop offset="100%" style="stop-color: rgb(0, 0, 0); stop-opacity: 0.6;"></stop>
  </radialGradient>
  <g class="radial">
    <radialGradient id="16282281824-posters-1720558192031-radial" gradientUnits="userSpaceOnUse">
      <stop itemprop="radial" stop-color="#e6e6e5" offset="0%"></stop>
      <stop itemprop="radial" stop-color="#e1e1e0" offset="15%"></stop>
      <stop itemprop="radial" stop-color="#e1e1e0" offset="30%"></stop>
      <stop itemprop="radial" stop-color="#e6e6e5" offset="45%"></stop>
      <stop itemprop="radial" stop-color="#e1e1e0" offset="60%"></stop>
      <stop itemprop="radial" stop-color="#e1e1e0" offset="75%"></stop>
      <stop itemprop="radial" stop-color="#e6e6e5" offset="90%"></stop>
    </radialGradient>
    <radialGradient id="16282281824-posters-1720558192031-radial-background" gradientUnits="userSpaceOnUse">
      <stop stop-color="#d3cec5" offset="0%"></stop>
      <stop stop-color="#d3cec5" offset="15%"></stop>
      <stop stop-color="#d3cec5" offset="30%"></stop>
      <stop stop-color="#d3cec5" offset="45%"></stop>
      <stop stop-color="#d3cec5" offset="60%"></stop>
      <stop stop-color="#d3cec5" offset="75%"></stop>
      <stop stop-color="#d3cec5" offset="90%"></stop>
    </radialGradient>
    <radialGradient id="16282281824-posters-1720558192031-radial-light" gradientUnits="userSpaceOnUse">
      <stop stop-color="#9c9a96" offset="0%"></stop>
      <stop stop-color="#9b9a97" offset="15%"></stop>
      <stop stop-color="#9b9a97" offset="30%"></stop>
      <stop stop-color="#9b9a97" offset="45%"></stop>
      <stop stop-color="#9b9a97" offset="60%"></stop>
      <stop stop-color="#9b9a97" offset="75%"></stop>
      <stop stop-color="#9b9a97" offset="90%"></stop>
    </radialGradient>
    <radialGradient id="16282281824-posters-1720558192031-radial-regular" gradientUnits="userSpaceOnUse">
      <stop stop-color="#83817c" offset="0%"></stop>
      <stop stop-color="#82807d" offset="15%"></stop>
      <stop stop-color="#82807d" offset="30%"></stop>
      <stop stop-color="#82807d" offset="45%"></stop>
      <stop stop-color="#82807d" offset="60%"></stop>
      <stop stop-color="#82807d" offset="75%"></stop>
      <stop stop-color="#82807d" offset="90%"></stop>
    </radialGradient>
    <radialGradient id="16282281824-posters-1720558192031-radial-medium" gradientUnits="userSpaceOnUse">
      <stop stop-color="#51504d" offset="0%"></stop>
      <stop stop-color="#514f4d" offset="15%"></stop>
      <stop stop-color="#514f4d" offset="30%"></stop>
      <stop stop-color="#514f4d" offset="45%"></stop>
      <stop stop-color="#514f4d" offset="60%"></stop>
      <stop stop-color="#514f4d" offset="75%"></stop>
      <stop stop-color="#514f4d" offset="90%"></stop>
    </radialGradient>
    <radialGradient id="16282281824-posters-1720558192031-radial-bold" gradientUnits="userSpaceOnUse">
      <stop stop-color="#2f2e2d" offset="0%"></stop>
      <stop stop-color="#2f2e2d" offset="15%"></stop>
      <stop stop-color="#2f2e2d" offset="30%"></stop>
      <stop stop-color="#2f2e2d" offset="45%"></stop>
      <stop stop-color="#2f2e2d" offset="60%"></stop>
      <stop stop-color="#2f2e2d" offset="75%"></stop>
      <stop stop-color="#2f2e2d" offset="90%"></stop>
    </radialGradient>
  </g>
  <g class="vertical">
    <linearGradient id="16282281824-posters-1720558192031-vertical" gradientUnits="userSpaceOnUse" x1="0" x2="0" y1="0"
      y2="100%">
      <stop itemprop="vertical" stop-color="#e6e6e5" offset="0%"></stop>
      <stop itemprop="vertical" stop-color="#e1e1e0" offset="15%"></stop>
      <stop itemprop="vertical" stop-color="#e1e1df" offset="30%"></stop>
      <stop itemprop="vertical" stop-color="#e6e6e5" offset="45%"></stop>
      <stop itemprop="vertical" stop-color="#e1e1e0" offset="60%"></stop>
      <stop itemprop="vertical" stop-color="#e1e1e0" offset="75%"></stop>
      <stop itemprop="vertical" stop-color="#e6e6e5" offset="90%"></stop>
    </linearGradient>
    <linearGradient id="16282281824-posters-1720558192031-vertical-background" gradientUnits="userSpaceOnUse" x1="0"
      x2="0" y1="0" y2="100%">
      <stop stop-color="#cecdca" offset="0%"></stop>
      <stop stop-color="#cdcccb" offset="15%"></stop>
      <stop stop-color="#cecdca" offset="30%"></stop>
      <stop stop-color="#cdcccb" offset="45%"></stop>
      <stop stop-color="#cdcccb" offset="60%"></stop>
      <stop stop-color="#cdcccb" offset="75%"></stop>
      <stop stop-color="#cdcccb" offset="90%"></stop>
    </linearGradient>
    <linearGradient id="16282281824-posters-1720558192031-vertical-light" gradientUnits="userSpaceOnUse" x1="0" x2="0"
      y1="0" y2="100%">
      <stop stop-color="#aea084" offset="0%"></stop>
      <stop stop-color="#ae9f84" offset="15%"></stop>
      <stop stop-color="#aea084" offset="30%"></stop>
      <stop stop-color="#ae9f84" offset="45%"></stop>
      <stop stop-color="#ae9f84" offset="60%"></stop>
      <stop stop-color="#ae9f84" offset="75%"></stop>
      <stop stop-color="#ae9f84" offset="90%"></stop>
    </linearGradient>
    <linearGradient id="16282281824-posters-1720558192031-vertical-regular" gradientUnits="userSpaceOnUse" x1="0" x2="0"
      y1="0" y2="100%">
      <stop stop-color="#83817c" offset="0%"></stop>
      <stop stop-color="#82807d" offset="15%"></stop>
      <stop stop-color="#83817c" offset="30%"></stop>
      <stop stop-color="#82807d" offset="45%"></stop>
      <stop stop-color="#82807d" offset="60%"></stop>
      <stop stop-color="#82807d" offset="75%"></stop>
      <stop stop-color="#82807d" offset="90%"></stop>
    </linearGradient>
    <linearGradient id="16282281824-posters-1720558192031-vertical-medium" gradientUnits="userSpaceOnUse" x1="0" x2="0"
      y1="0" y2="100%">
      <stop stop-color="#51504d" offset="0%"></stop>
      <stop stop-color="#514f4d" offset="15%"></stop>
      <stop stop-color="#51504d" offset="30%"></stop>
      <stop stop-color="#514f4d" offset="45%"></stop>
      <stop stop-color="#514f4d" offset="60%"></stop>
      <stop stop-color="#514f4d" offset="75%"></stop>
      <stop stop-color="#514f4d" offset="90%"></stop>
    </linearGradient>
    <linearGradient id="16282281824-posters-1720558192031-vertical-bold" x1="0" x2="0" y1="0" y2="100%">
      <stop stop-color="#2f2e2d" offset="0%"></stop>
      <stop stop-color="#2f2e2d" offset="15%"></stop>
      <stop stop-color="#2f2e2d" offset="30%"></stop>
      <stop stop-color="#2f2e2d" offset="45%"></stop>
      <stop stop-color="#2f2e2d" offset="60%"></stop>
      <stop stop-color="#2f2e2d" offset="75%"></stop>
      <stop stop-color="#2f2e2d" offset="90%"></stop>
    </linearGradient>
  </g>
  <g class="horizontal">
    <linearGradient id="16282281824-posters-1720558192031-horizontal" x1="0" x2="100%" y1="0" y2="0"
      gradientUnits="userSpaceOnUse">
      <stop itemprop="horizontal" stop-color="#e4e3e2" offset="0%"></stop>
      <stop itemprop="horizontal" stop-color="#e1e1df" offset="15%"></stop>
      <stop itemprop="horizontal" stop-color="#e4e3e2" offset="30%"></stop>
      <stop itemprop="horizontal" stop-color="#e1e1e0" offset="45%"></stop>
      <stop itemprop="horizontal" stop-color="#e6e6e5" offset="60%"></stop>
      <stop itemprop="horizontal" stop-color="#e4e3e2" offset="75%"></stop>
      <stop itemprop="horizontal" stop-color="#e6e6e5" offset="90%"></stop>
    </linearGradient>
    <linearGradient id="16282281824-posters-1720558192031-horizontal-background" gradientUnits="userSpaceOnUse" x1="0"
      x2="100%" y1="0" y2="0">
      <stop stop-color="#cdcccb" offset="0%"></stop>
      <stop stop-color="#cecdca" offset="15%"></stop>
      <stop stop-color="#cecdca" offset="30%"></stop>
      <stop stop-color="#cdcccb" offset="45%"></stop>
      <stop stop-color="#cdcccb" offset="60%"></stop>
      <stop stop-color="#cecdca" offset="75%"></stop>
      <stop stop-color="#cecdca" offset="90%"></stop>
    </linearGradient>
    <linearGradient id="16282281824-posters-1720558192031-horizontal-light" gradientUnits="userSpaceOnUse" x1="0"
      x2="100%" y1="0" y2="0">
      <stop stop-color="#9b9a97" offset="0%"></stop>
      <stop stop-color="#9c9a96" offset="15%"></stop>
      <stop stop-color="#9c9a96" offset="30%"></stop>
      <stop stop-color="#9b9a97" offset="45%"></stop>
      <stop stop-color="#9b9a97" offset="60%"></stop>
      <stop stop-color="#9c9a96" offset="75%"></stop>
      <stop stop-color="#9c9a96" offset="90%"></stop>
    </linearGradient>
    <linearGradient id="16282281824-posters-1720558192031-horizontal-regular" gradientUnits="userSpaceOnUse" x1="0"
      x2="100%" y1="0" y2="0">
      <stop stop-color="#968669" offset="0%"></stop>
      <stop stop-color="#968769" offset="15%"></stop>
      <stop stop-color="#968769" offset="30%"></stop>
      <stop stop-color="#968669" offset="45%"></stop>
      <stop stop-color="#968669" offset="60%"></stop>
      <stop stop-color="#968769" offset="75%"></stop>
      <stop stop-color="#968769" offset="90%"></stop>
    </linearGradient>
    <linearGradient id="16282281824-posters-1720558192031-horizontal-medium" gradientUnits="userSpaceOnUse" x1="0"
      x2="100%" y1="0" y2="0">
      <stop stop-color="#5d5341" offset="0%"></stop>
      <stop stop-color="#5d5441" offset="15%"></stop>
      <stop stop-color="#5d5441" offset="30%"></stop>
      <stop stop-color="#5d5341" offset="45%"></stop>
      <stop stop-color="#5d5341" offset="60%"></stop>
      <stop stop-color="#5d5441" offset="75%"></stop>
      <stop stop-color="#5d5441" offset="90%"></stop>
    </linearGradient>
    <linearGradient id="16282281824-posters-1720558192031-horizontal-bold" gradientUnits="userSpaceOnUse" x1="0"
      x2="100%" y1="0" y2="0">
      <stop stop-color="#2f2e2d" offset="0%"></stop>
      <stop stop-color="#2f2e2d" offset="15%"></stop>
      <stop stop-color="#2f2e2d" offset="30%"></stop>
      <stop stop-color="#2f2e2d" offset="45%"></stop>
      <stop stop-color="#2f2e2d" offset="60%"></stop>
      <stop stop-color="#2f2e2d" offset="75%"></stop>
      <stop stop-color="#2f2e2d" offset="90%"></stop>
    </linearGradient>
  </g>
  <g class="masks">
    <mask id="16282281824-posters-1720558192031-pattern-mask" maskUnits="userSpaceOnUse"
      maskContentUnits="userSpaceOnUse">
      <pattern id="pattern" x="0" y="0" width=".0133" height=".0144" viewBox="0 0 23.07 40">
        <path
          d="M17.62 0l-6.07 10.5m2.74 4.76L8.22 4.75m-5.48 0h12.13M.01 0h23.07M6.07 20L0 9.5m2.74-4.75l-6.07 10.5m-5.48 0H3.33m8.2 4.75L0 .02-11.54 20m40.68 0L23.07 9.5m2.74-4.75l-6.06 10.5m-5.49 0H26.4M34.6 20L23.08.02 11.53 20m-5.46 0L0 30.51m2.74 4.75l-6.07-10.5m-5.48 0H3.33m8.2-4.75L0 40l-11.54-19.98zM17.6 40l-6.06-10.5m2.74-4.76L8.2 35.25m-5.48 0h12.13M0 40h23.07L11.54 20.01m17.6 0l-6.07 10.5m2.74 4.75l-6.06-10.5m-5.49 0H26.4M11.53 20h23.08L23.07 40"
          stroke-linecap="round" stroke-width="3.5" stroke="white"
          fill="url(#16282281824-posters-1720558192031-horizontal-background)"></path>
      </pattern>
      <rect width="100%" height="100%" fill="url(#pattern)"></rect>
    </mask>
    <mask id="16282281824-posters-1720558192031-horizontal-mask" maskUnits="userSpaceOnUse"
      maskContentUnits="userSpaceOnUse">
      <rect width="100%" height="100%" fill="url(#16282281824-posters-1720558192031-horizontal-background)"></rect>
    </mask>
    <mask id="16282281824-posters-1720558192031-radial-mask" maskUnits="userSpaceOnUse"
      maskContentUnits="userSpaceOnUse">
      <rect width="100%" height="100%" fill="url(#16282281824-posters-1720558192031-radial-background)"></rect>
    </mask>
    <mask id="16282281824-posters-1720558192031-vertical-mask" maskUnits="userSpaceOnUse"
      maskContentUnits="userSpaceOnUse">
      <rect width="100%" height="100%" fill="url(#16282281824-posters-1720558192031-vertical-background)"></rect>
    </mask>
  </g>
  <use href="#16282281824-posters-1720558192031-pattern-render"></use>
  <g>
    <use href="#16282281824-posters-1720558192031-background"></use>
    <use href="#16282281824-posters-1720558192031-light"></use>
    <use href="#16282281824-posters-1720558192031-regular"></use>
    <use href="#16282281824-posters-1720558192031-medium"></use>
    <use href="#16282281824-posters-1720558192031-bold"></use>
  </g>
  <g itemprop="animation">
    <animate href="#16282281824-posters-1720558192031-light" attributeName="stroke-opacity" repeatCount="indefinite"
      dur="5s" values="0.9;0.0;0.9"></animate>
    <animate href="#16282281824-posters-1720558192031-regular" attributeName="stroke-opacity" repeatCount="indefinite"
      dur="4s" values="0.9;0;0.9"></animate>
    <animate href="#16282281824-posters-1720558192031-medium" attributeName="stroke-opacity" repeatCount="indefinite"
      dur="5s" values="0.9;0;0.9"></animate>
    <animate href="#16282281824-posters-1720558192031-bold" attributeName="stroke-opacity" repeatCount="indefinite"
      dur="3s" values="0.9;0;0.9"></animate>
    <animate href="#16282281824-posters-1720558192031-regular" attributeName="fill-opacity" repeatCount="indefinite"
      dur="8s" values="0.9;0.75;0.95;0.8;0.9;"></animate>
    <animate href="#16282281824-posters-1720558192031-radial-background" attributeName="cx" repeatCount="indefinite"
      dur="34s" values="0%;33%;100%;0%;100%;0%;"></animate>
    <animate href="#16282281824-posters-1720558192031-radial-background" attributeName="cy" repeatCount="indefinite"
      dur="55s" values="0%;100%;33%;100%;66%;0%"></animate>
    <animate href="#16282281824-posters-1720558192031-vertical-light" attributeName="x1" repeatCount="indefinite"
      dur="55s" values="0%;33%;100%;0%;133%;0%;"></animate>
    <animate href="#16282281824-posters-1720558192031-vertical-light" attributeName="y1" repeatCount="indefinite"
      dur="86s" values="0%;100%;33%;100%;66%;0%"></animate>
    <animate href="#16282281824-posters-1720558192031-horizontal-regular" attributeName="x1" repeatCount="indefinite"
      dur="34s" values="0%;100%;66%;0%;33%;133%;0%"></animate>
    <animate href="#16282281824-posters-1720558192031-horizontal-regular" attributeName="y1" repeatCount="indefinite"
      dur="55s" values="0%;66%;100%;33%;100%;66%;0%"></animate>
    <animate href="#16282281824-posters-1720558192031-vertical-medium" attributeName="x1" repeatCount="indefinite"
      dur="34s" values="0%;100%;66%;0%;33%;133%;0%"></animate>
    <animate href="#16282281824-posters-1720558192031-vertical-medium" attributeName="y1" repeatCount="indefinite"
      dur="55s" values="0%;66%;100%;33%;100%;66%;0%"></animate>
    <animate href="#16282281824-posters-1720558192031-vertical-bold" attributeName="x1" repeatCount="indefinite"
      dur="34s" values="0%;100%;66%;0%;33%;133%;0%"></animate>
    <animate href="#16282281824-posters-1720558192031-vertical-bold" attributeName="y1" repeatCount="indefinite"
      dur="55s" values="0%;66%;100%;33%;100%;66%;0%"></animate>
  </g>
</svg>
