<svg id="16282281824-posters-1720553745649" itemscope="" itemtype="/posters"
  itemid="/+16282281824/posters/1720553745649" viewBox="0 0 769 512" preserveAspectRatio="xMidYMid meet" tabindex="0"
  class="animate landscape" xmlns="http://www.w3.org/2000/svg">
  <!---->
  <defs class="graphic">
    <pattern id="16282281824-posters-1720553745649-pattern" width="769" height="512" viewBox="0 0 769 512"
      patternUnits="userSpaceOnUse" preserveAspectRatio="xMidYMid meet">
      <rect itemprop="background" width="769" height="512" tabindex="-1"
        id="16282281824-posters-1720553745649-background" fill-opacity="1"
        fill="url(#16282281824-posters-1720553745649-radial-background)"></rect>
      <!---->
      <path id="16282281824-posters-1720553745649-light"
        d="M0 2q2 5 8 6l6 2c7 3 28 9 35 9q5-2-1-5L24 7l-9-4Q2-3 0 2m51-1 2 1 7 2 7 2q5 2 8-1c1-2-7-5-16-5zm54 1q-7 3-8 10-1 3-15 7l-11 4-6 1c-3 0-17 8-21 11q-3 4-9 3-9 0-14 6c-2 3-9 6-12 6q-10-2-9 10v8l5-1q8 0 15-8 9-9 13-7 4 3 11-3l7-6 3-1 3 2q3 5 11-2c3-3 20-12 22-12l1 2q-3 8-1 7a9 9 0 0 0 6-6l3-1q2 1-1 25c0 5 0 5 3 9 3 3 3 3 2 8-5 22-5 22 0 27q3 3 2 5l-1 6-3 7v13c3 3 3 6-8 27q-6 10-1 13c3 2 3 3-3 14q-8 17-5 20 2 4-8 17c-10 14-15 25-11 25 3 0-2 9-10 16l-5 6v5l1 5-5 2-7 4-5 4c-6 1-18 10-19 14l-4 3-4 1-4 1q-4-1-3 4-2 8 10 5 27-3 46 6 8 4 9 2 3-2 1-4-3-5 2-2l4 2 13 8 17 11q6 1 18 15l7 9 5 7 6 6c4 3 11 18 11 23q1 3-3 2-2 0-6-8-6-12-16-21t-10-7l-6-4-13-7-18-10-1-1a104 104 0 0 0-30-15l-20-7q-4 2 0 5l7 2 10 5 12 5 33 19 4 3 5 3c9 4 23 16 29 25 11 16 12 18 1 19l-5 1-8-8-13-12-15-11-27-17a165 165 0 0 0-37-17l-21-6-1 3q0 3 5 4l36 15a217 217 0 0 1 41 25c12 8 29 26 27 29l-4 2-10 3-6 1-6-3-18-10c-1-2-37-19-39-19-6 0-11-6-8-10q1-3-8-4-5-1-4 3t-3 3-3 2c0 3-1 2 20 11l44 22q12 9 5 11l-2 1a27 27 0 0 1-28-1l-4-1-2-1-22-11-7-2-4-2v4q-1 6 3 5l25 12q10 5 7 8l-2 1-4 1q-12 8-24 3l-5-2v15l1 14 1-1 4-4 6-8q3-4 7-5l4-1 4-2 6-1c4-4-2 8-10 18l-5 8-4 5-2 3-2 3c-9 10-10 12-10 17l1 5 1-1 2-3 16-19 2-3 2-3 5-7 7-9 7-10q7-13 16-14l11-2-7 15-6 10-25 40-3 6-3 4h4q5 1 6-2l7-11 8-12 14-22 14-21q6-12 18-14 15-5 10 5l-10 22-3 7-2 5-3 4-7 16-1 3-1 4-5 8c-4 8-4 8 0 8q4 0 4-2l3-5 9-18 23-49c6-12 9-15 15-17 9-2 9-2 4 22l-2 11c0 4-4 15-7 22l-1 4-3 7-8 19-3 6h3q5 0 6-3l2-5 2-6 1-2 13-33 5-15 1-7 1-3 1-3 4-15q3-6 8 1c5 5 5 7-1 15a68 68 0 0 0-9 66q3 5 1 7-3 4 4 3 6 1 8-2 7-6 7 0-1 3 5 2 11 0 5-11c-3-6-5-7-18-5-6 1-8-13-6-31 2-14 5-19 18-32 14-14 15-16 12-24q-4-10-12-11-6-1-8-6l-5-5c-5-6-5-8 0-14q13-15 41-9 9 3 18-6l5-5 1-13c1-23 5-28 19-32l11-10q5-6 9-5c7 0 7 1 2 11a21 21 0 0 1-17 15l-7 2q-12 4-11 6c0 2 10 5 12 2l3-1 5-2q8-3 5 5l-3 9a27 27 0 0 1-10 16c-3 7-46 25-60 25q-7 0-4 5c2 2 29-3 41-8l7-3 9-5q12-7 5 6c-1 4-9 13-10 13l-10 7-10 8c-2 1-2 0-13 10-13 12-17 15-17 18s6 2 10-2l7-6 7-6c3-4 27-20 28-18l-2 9-2 9-17 16-32 28-4 3c-8 4-13 11-9 11l19-10q4-2 22-19 15-13 14-9l-3 10-1 5-2 7-2 4a38 38 0 0 1-16 28c-2 0-17 17-17 19 0 3 8 1 13-4q11-9 5-1l-3 5 13 1h12v-3l-4-20c-1-5-1-5 1-14l9-26c0-3 4-14 6-16q1-3 3 1l2 5 7 24 2 6 1 5 1 3 1 8 2 14q1 17 5 8c1-3 0-32-2-37l-4-14-12-35c-2-6 2-22 5-22s9 14 11 23l10 44q4 5 5-1l-1-11-5-26q-2-18-12-34c-5-10-5-10-3-16q4-13 9-5l4 3a138 138 0 0 1 20 47l2 7q0 12 5 7v-3l-2-11c-3-22-3-21-8-32l-12-21c-3-3-9-16-9-19l6-18 4-8c2 0 8 9 13 19l4 7 1 5 1 4 3 6q1 7 4 8c3 0 2-14-2-23l-2-5c-1-6-8-19-13-24q-6-8-2-17c3-6 15 4 18 15q2 12 8 18c8 7 13 20 9 27l-2 4-12 16q-4 9-1 17l16 12q5 3 4 9l-1 3 3 17q-1 8-6 9l-6 2q-4 3-9 1h-8c-5 4-5 4-4 23l-1 25c-3 9-3 9 3 9q7 1 7-11-1-6 4-10 5-5 9-14 8-15 11-14l3 30c0 19 0 19 4 19h4l-1-10-1-14v-28c2-1 10 4 16 10l6 5q15 12 16 23l1 7c3 7 3 7 17 7h12v-3l-2-6-4-8-2-4q-3-7 0-17l2-8a48 48 0 0 1 18-30l2-6q1-6 9-13l12-11 53-54 11-5q14-8 11 0-1 6-13 9-14 5-17 9-1 3 5 2l16-5q6-1 1 6l-3 8c0 5-5 7-28 13l-5 2-7 4-9 5c-6 3-14 11-14 12 1 3 9 1 13-3l26-12 12-4h6v3l-3 7-1 4-1 3-1 2c0 5-4 7-21 11l-13 5-5 2-8 4-7 4c-2 0-18 16-18 18h5a119 119 0 0 1 42-23c3-2 15-5 17-5l-2 7-1 3q-2 12-9 18a260 260 0 0 0-41 22l-8 8q-3 1-1 3h2l5-3 6-4 9-5 9-5c7-3 17-7 18-6s1 3-2 15c-3 11-2 10-19 18l-22 12c0 2 9 1 12 0q5-4 15-6 7-1 4 2c-4 4 5 7 10 4h3l4 1h4l-4-8-3-7 1-6 4-11 3-6q3 1 11 22c5 16 5 16 9 16q5-1 2-4l-1-3-1-5-4-11c-2-8-4-12-9-23-4-7-4-9 0-19 4-12 5-13 8-11 3 1 9 11 13 18l3 7q7 12 13 36c3 12 3 13 6 11l1-2a177 177 0 0 0-10-42c0-4-14-29-21-37q-5-5-1-14l3-7 4-7q3 1 12 11l14 28 6 19q4 13 7 13 3 1 0-9l-2-10-1-3-1-5a158 158 0 0 0-28-51q-6-6 0-16c4-7 5-7 16 10l9 20q8 18 10 17c5 0-3-22-15-42l-4-7-5-7q-5-6-3-9l5-14c2 0 9 10 10 15 3 9 10 13 10 5l-2-7-3-5-1-2q-3-3-5-9l-4-4q-5-3 1-19l3-13q1-14 4 4l3 22 3 19 3 15 1 11 2 26 2 28 3 38-4 38q-4 8 6 6 8 1 6-2 1-6 4-5l2 1q2 5 18 6h9l-3-3-8-7c-6-4-9-6-13-14-4-7-4-5-6-32l-2-27-2-18-1-11-2-17-3-31-4-22-4-34q4 0 15 20l6 10q7 11 3 17-5 12-5 16l-2 9q0 14 5 3 6-21 10-23l2 4 4 6c3 7 3 10-7 32l-7 25c-2 9-3 25-1 27q5 7 6-12c2-16 3-23 9-35l5-11q2-8 8 6c6 12 5 20-2 35l-1 5-2 5c-3 4-7 40-6 44q4 16 8-23a102 102 0 0 1 11-36q2-6 9 9c4 9 5 11 5 16l-4 15-1 4-2 8c-1 7-2 29 0 30q4 3 4-7c-1-11 6-38 9-38l10 18c3 8 2 29-2 33q-8 5 7 4l9-1q1-4 4-1l5 2q6 2 0-6-8-19 4-10 6 6 7 2 0-2-7-8l-4-4q-1-5-8-5h-4l-4-9q-11-22-6-19c10 3 24 11 30 17q13 12 13 6c0-7-29-27-48-33-2-1-8-10-8-12l-1-2-1-2-1-5q-4-5 0-5a76 76 0 0 1 31 13c1 0 14 9 21 16q12 11 11 5c0-5-30-27-51-38l-11-5-5-1q-4-1-8-10-13-24 7-12l10 3 3 1 7 5 25 15 20 15h3c1-3-14-16-23-22l-10-6-6-4-15-9-25-11q-6 0-12-13l-4-9c-2-3 3-7 4-4l5 1c5 1 24 11 36 19 27 17 26 17 26 14v-3l-13-10-8-5-18-11-5-4-8-3-13-6q-15-4-15-6c-2-6-11-23-13-24l-5-11 23 12a190 190 0 0 0 39 24l6 3 10 7c5 3 9 6 28 25q12 12 12 15 3 7 7 8 4-1 4 9 2 11 6 12c3 2 3 3 5 15a49 49 0 0 1-2 29l-1 3-2 11v10l-5 4q-11 7-12 13c-3 10-3 11-6 12q-6 3 6 3c10 0 10 0 11-8q0-8 8-11l6-4c2-2 4-16 4-20l4-17 3-12q-1-12 7 0 8 10 11 11c3 1 0 7-4 9q-8 2-6 13c0 7 0 8-3 11q-6 6-6 19l-1 7q-3 3 6 2h7v-3q-1-5 4-4c5-1 6-3 5-14v-8l3-1q3-2 3-6 3-23 7-23 7-1 9-18l3-8c3-8 4-8 7-8q11-1 12-29c1-10 1-11-1-11q-1 1-6-3-8-8-14-11-4-1-6-8-8-16 7-5l9 5 6 5q5 8 5 2c0-3-12-16-18-19l-4-3-10-5-4-3-3-6q-6-8-1-7a75 75 0 0 1 28 11l9 6q3 1 3 4t1 0q0-7-6-11l-4-3-3-1-5-4c-3-3-17-10-22-11q-12-1-13-12-1-3 4-3l6 1 9 2a80 80 0 0 1 25 11l7 4 1 1q1 1 1-3 0-5-1-4l-6-3q-9-8-14-8l-4-1c-3-3-24-8-31-8-5 0-13-6-13-10 0-2 17-3 24-1l12 3 15 5q11 7 10 2c0-4-13-11-27-15-15-4-17-4-27-4-13 0-23-4-21-9 2-4 26-3 41 1 14 3 13-2 0-7q-6-3-32-4-23-2-23-5c0-5 10-10 19-10 18 0 35 2 35 4q2 6 12 12 7 3 8 7 1 3 9 8c6 5 7 5 7 10l3 7q2 4 3 1c2-4 0-21-4-27-4-8-4-8 1-13 3-4 3-4 3-11v-6l-2 2q-12 14-16 15-5-1-6-6t-5-6l-3-2-4-1q-5 0-5-8c-2-9-3-23-3-33l-3-19-3-15-1-12-2-13-2-22-1-11 3-5q9-14 11-11c2 2 8 22 11 33l9 27 1 5 1 2 1 7q4 10 4 19l2 6 1 9q-1 13 3 13c2 0 3-14 1-17l-1-6v-10l-3-12-3-13-5-18-2-6-8-29c-6-21-6-24-2-30 5-7 6-6 16 10l12 22q4 12 4 0c0-9 0-9-11-32l-7-16q2-5 12 1l6 2V28l-5-1-7-3-5-1q-7 0-7-15V0h-11q-16 0-8 2 3 1 3 4l2 5q2 5-3 2l-11-2-23-3c-15-2-21-2-29 0l-17 3c-16 2-18 1-15-5q4-7-5-6-8 0-7 2l-2 4-1 6c0 18-13 33-29 34l-4 1V0h-7v10l-1 23q1 22-5 22a45 45 0 0 1-20-23l-2-3-1-5V3l1-3h-6q-8-1-8 3t-7 3-15 6q-10 8-13-7V0h-12v4q1 13 7 19c7 5 19 5 24 0q6-5 11-5c4 1 4 1 6 8l9 20 4 5c6 8 3 13-16 28-7 5-15 13-17 16-3 6-9-1-7-9l4-11 11-22 7-10q9-11-5-1c-4 4-18 24-18 27l-2 3-2 3-7-1-11-3q-6 1-5-4l-1-5 3-36q1-25-5-26-4-1-3 11l-4 48q-1 14-5 14h-6a38 38 0 0 1-9-17l-1-29V0h-9l1 19q1 36-9 13l-6-9-7-10q-5-14-12-13c-5 0-5-1 2 13l3 5q3 2 5 7l9 14 3 5 4 8q7 8-8 3c-10-2-39-15-56-25l-24-18q-7-6-9-2a88 88 0 0 0 23 22l11 7 13 8 15 7q23 11 39 14 7 0 11 8l2 3-4 5q-6 10-16 3l-4-1-2-1-4-2-7-2-7-4-33-17c-7-4-14-4-10 0l7 5q13 8 9 10l-3 1-3 1-6 2-4 2-3-2-11-8c-12-8-35-31-35-35l-3-7-3-10c0-4 3-16 5-18q2-1-6-1-9 0-8 2h-1c-2-3-20-3-20 0q1 4 7 7c4 1 6 4 8 20q0 8 7 8 7 1 7 23-1 16 6 15 4-2 2 16l-2 15c-2 2-11 0-12-3v-2l-4-1q-7 0-14-7l-7-5c-11-9-11-8-4-15l9-8q3-4-1-4a154 154 0 0 0-38 37q-10 17-5-12c2-15 5-21 14-35 6-9 16-24 18-24q2-4-1-4c-2 0-12 10-18 18l-4 5 4-17 3-10 6-19h-3c-4 0-6 6-12 26-3 9-6 20-8 22q-3 5-6-9l-7-23c-1-6-6-6-5 0l5 24q4 11 4 18v6l-4-1q-5-1-8 3-6 5-7 2l-2-3-5-8q-3-4-5-4-3 0 2 8 10 17-2 17l-8 1q-2 2-6-2c-5-5-6-5-12-3q-5 2-8 1-4-1-5 2c-1 3-13 9-16 9V76l2-7q0-9 5-10l3-2 4-2 6-1q4-3 7-1 6 3 7-2l4-20q0-10 11-9c9 1 9 1 12-5q3-6 5-7 9-4 10-9l-9-1-10 1q0 3-6 3l-6 3-6 2q-5-1-8 12c-5 17-4 15-8 15q-5 1-6 3-4 3-6 0c0-2-5-1-7 2l-3 2q-7 2-8 17 1 16-11 23-13 9-12-2 4-19 0-25l-3-4 1-15c0-12 1-15 3-19l2-6 16-9 4-2c0-2-26-1-31 1m446 0q-1 6 1 13 0 7 3 7 2 2 3-15l1-7h-4q-4 0-4 2m50 4 1 8 1 6q0 8 3 7c2-1 2-2 2-11l-1-13q1-4-3-3h-4zm66 11-17 3c-7 0-18 2-20 3l-1 4-2 5-2 3-2 3q-5 6 5 4 11-4 21-4l9-2c28-7 53-8 67-3l12 3q4 0 2-5-3 0-3-2c-8-6-10-7-30-10-19-3-38-4-39-2m27 20-11 1-11 2-12 2-29 5c-1-1-10 2-16 5l-6 2-5 1-9 3q-9 2-12 9-4 8-11 5-6-3-2 2 5 4-3 12c-13 13-15 17-16 26v6l7 2q7 1 13 4c8 4 7 4 24-4a226 226 0 0 1 46-18l14-4 27-6c6-1 20-4 23-6 3-1 13-14 13-17s-3-4-17-5a232 232 0 0 0-107 21l-6 2-3 2c-7 5-16 9-18 8-3-3 14-14 35-22l13-6 8-3 5-1 7-2 10-2c15-3 48-5 68-4 13 0 13 0 17-6q4-5-1-7c-8-4-12-5-20-6l-11-1zM77 51l-8 11q-10 14-11 7 0-6-3-6-3-2-4 13c0 9 0 11-3 15l-9 13c-2-1-1-29 1-34q2-5-3-2c-3 3-6 23-6 39 0 10 0 12-2 16l-12 20c-2 0-3-28-1-41l1-13 2-7c4-5 2-10-2-6l-2 5q1 4-1 6c-4 8-8 41-6 59q1 14-2 17c-6 12-6 11-6 23v12l7-4a185 185 0 0 0 36-21l5-5q0-4-7 0a122 122 0 0 1-32 17H4c0-5 12-26 15-26l30-15c9-5 35-29 35-33q-1-4-6 1l-3 4-4 3-4 3c-10 10-42 28-42 23l4-7 4-7c0-3 7-10 14-13 14-8 41-30 41-35q0-4-5 2l-5 4-7 5-22 13q-8 4 1-7l6-8q1-3 5-5l12-8 11-7q5-4 6-8 0-3-11 5-18 12-6-4c12-15 15-26 4-14m251 20c-1 5 0 12 2 13l5 3q4 3 7 1l5-2q2 0-1-3zm-100 9-4 9c-2 5-2 5 0 9q5 14 6-10 1-18-2-8m244 4q-12 1-15 7l-7 9c-11 14-22 12-41-7-9-9-11-10-20-9q-13 2-20 9c-7 5-8 6-16 6a36 36 0 0 0-28 13l-3 4 2 2q11 12 25 2a112 112 0 0 1 61-16q2 3-2 4l-9 2q-8 4-15 4l-24 10c-14 6-14 7 4 16l9 3 4 2c0 2 6 1 10-1l12-6a182 182 0 0 1 46-18l26-4h6q14 2-5 5-19 2-25 6l-5 1-4 1-22 10c-6 3-16 10-17 13q-3 1 7 6 9 6 15 1a163 163 0 0 1 53-16l14-1c7-1 24-2 26-1q2 4-4 4l-26 4-24 6c-13 3-30 9-30 11q0 3 14 8c6 1 7 1 12-1l26-8 33-6c18-3 42 0 42 4 0 2-1 2-17 2l-31 3-32 7q-15 6-7 8l4 2 2 1 7 3 15 6 7 2 11 5 9 3h3c5-4 32-4 45 0q16 6-11 5-29-2-15 4l7 3 13 6 4 1 3 1 9 4 11 5q10 4 10-2 3-5 0-9l-1-6c1-4-5-13-12-15-4-2-19-14-21-18q-8-9 4-20t-5-27q-6-6-11-7l-6-1c-3-2-35-5-38-3-2 1-10-1-13-5q-5-5-1-11c3-5 3-5 1-9l-2-9q-1-7-7-9-9-2-20 1m-304 5-4 1-11 4q-20 10-21 1c0-5-12 2-14 8q-4 9 0 9 5 1 4 7l1 6c2 2 2 6 2 20a123 123 0 0 0 3 34l1 5 1 2c0 2 5 10 6 10l7-7c4-4 4-7 0-22-3-15-3-43-1-48l2-5q1-3 3-3v18a63 63 0 0 0 3 29l4 12c2 0 8-7 11-12 2-3 2-5 2-26 0-25 0-29 4-29 1 0 2 2 2 19s1 19 2 19l3-2 1-2 6-9 9-14 9-15 4-7c0-2-13-2-16 0q-8 4-14-1-4-6-9-2m371 0q-10 9-4 18 1 4 7-6l6-9q3 0-1-4-2-2-8 1m-285 5c-6 8-16 26-19 36-4 10-3 25 2 25l19-18 23-22q9-7 2-10l-6-4-6-3-8-5q-4-5-7 1m423 7-8 1-4 1-7 1-7 2-13 4-32 12-19 9q-4 0-3 6c1 4 6 17 8 17l7-3 34-15 43-13c7 0 20-14 20-22 0-2-11-3-19 0m-475 12-7 11-8 13c-10 15-10 15 6 15 10 0 11 1 11 2q0 2-3 2l-27 3c-2 0-12 14-12 16 0 3 15 4 31 2 12-2 12-2 12 0q-2 3-12 5l-8 2-18 1-14 1-2 3q-6 8-4 11c2 1 37 0 39-1l13-3q4 4-6 6l-4 2-5 1-6 1-22 2c-17 1-18 2-19 3l-4 6q-6 9-5 11c3 4 50 1 57-3q4-1 4 1l-4 3c-16 7-16 7-40 8-26 0-25 0-30 7q-4 7 2 9c5 2 29 2 35 1 16-3 29-2 18 3q-12 6-43 5h-22l-3 6c-4 9-3 10 11 9q8 0 7 3-4 4-17 4c-8 1-9 1-11 3l-8 18q-1 5 4-1t11-4c3 2 3 2 8-1l5-4 10-6c16-11 33-20 39-20q6-2 15-8 2-3 10-7 13-9 18-17l11-13q9-9 7-10c-5-8-5-8 2-17 6-8 6-10 3-15-4-5-4-5-3-13 0-7-2-16-5-16l-1-1-1-3c-4-4-8-19-9-31q1-19-6-5m498-1-9 15 1 9 2 14 1 8 1 41v22q3 5 16 5h9l1-3q2-5-1-12l-2-10-4-33-8-44-2-7-1-4q0-4-4-1m-421 11c-17 16-36 37-40 43q-5 6 1 11 3 5 2 14-2 6 7-1l7-4 4-3 5-3 6-4 6-4 5-3 8-4 4-4 2-1 2-1c1-2 6-2 7 0 0 2-6 6-9 6l-4 3-6 4-5 4-14 9-14 11q-14 9-14 14l-5 12-11 11q-8 6-8 11l8-2 4-2c15-7 27-10 44-13l11-2q7-1 7 3-3 3-17 6c-14 2-51 17-59 23q-6 5-1 6 3 0 3 2c2 2 12 3 18 2l17-1q27 1 35-15 4-5 6-5 5 1 15-8 8-4 5-9-1-4 2-7v-3l-10-3-2-2c-3-3-2-4 8-14 9-9 9-10 6-13q-5-3 1-10 7-12-6-24-12-13-9-26 2-9-3-13c-6-3-7-3-19 9m33 6q-2 9 7 17c6 7 8 10 9 17q1 10 9 13l7 3 10 2c22 3 24 4 31 14q4 7 0 22a50 50 0 0 0 1 39l4 4q8 11 16 3l8-5q8-4 9-9c0-6 9-13 17-13 6 0 9 2 20 15q13 15 19 18l5 3 8 3 10 2c7 2 23 1 27-1l3-1v-9q1-13 7-14l3-1q3-4 21 5c7 4 8 4 14 4 16-1 33-9 29-13-1-2-14-8-19-10l-23-9-4-1c-7-4-19-7-19-6-3 3 12 20 23 27q10 7 6 7c-3 0-11-2-14-4a105 105 0 0 1-27-29l-5-6q-3-4-13-8l-16-6-17-6-5-2c-6-3-4 1 11 21a145 145 0 0 1 25 43c2 4-3 5-5 2l-9-16-28-39q-13-19-17-20l-9-3q-11-6-11-2a168 168 0 0 0 19 34l11 17q7 12 4 12a46 46 0 0 1-19-21l-20-31-1-1-2-4-6-9q-6-10-16-13-7-2-6 2l6 14 3 11 3 10 3 18q3 24-2 25-2 0-2-7l-2-13-2-13-5-18a88 88 0 0 0-17-35l-7-6-15-6q-10-4-9 0l1 5c1 1 2 17 1 21q-1 3-5 1l-1-10-3-12q-1-11-14-20c-13-8-13-8-15-2m355 4-8 2-35 13-5 2-8 3-7 3-6 3-6 3-7 6q-11 8-2 14c8 8 11 9 17 4a352 352 0 0 1 55-27c13-5 12-4 18-16q9-15-6-10m-553 7v2l-3 6q-6 5-3 12 2 7-3 16v16l2 8c2 7 10 23 12 23l9-13 2-4-3-7-4-10-1-5-1-8-2-14v-17l-1-4q-1-3-4-1m566 7c-7 10-7 10-7 25l1 24q0 15-3 12c-2 0-2-1-4-19l-3-13-5 4-3 5q-4 8-1 15l4 23q0 9 3 10 6 6 8-9 0-10 2-9 3 0 2 2l2 6q0 5 5 3 13-1 10-11l-2-24-2-34q-1-14-4-15zm-29 21-5 2-4 1-9 4-12 6q-16 8-18 12c-1 1 8 13 10 14l4-3q4-4 7-4c7 0 24-10 26-15l3-6q6-12-2-11M54 183a182 182 0 0 1-53 30l-1 4 1 4 26-12 25-19 3-2 4-2c4-5-1-7-5-3m277 6-6 8q-12 12-4 10 13-1 10 10-3 5-1 6 2 5-5 12l-16 12-6 5q-12 9-21 32l-2 6 2 3a9 9 0 0 0 16 2l3-2 3-1c3 0 6-5 5-7-2-6 15-16 27-16l15-5q4-3 10-3 11-1 2-9a61 61 0 0 1-18-42l-1-4-4-8-2-6a4 4 0 0 0-7-3m23 11q4 12 4 18c0 6 10 26 12 24l1-18 2-9c3-2 4-11 1-11l-6-2-10-4q-5 0-4 2m-291 5-5 7-7 8-20 15-9 5-7 4-13 6q-2 1-2 5t2 2l23-13 11-7 6-4 10-8 10-10q6-7 6-9 0-6-5-1m581 4c-3 4-3 4 1 8q7 7 4-3-2-14-5-5m-548 4q-6 9 0 22l2 7 3 2q3 4 7-4l3-4-3-8-3-9c-5-12-5-12-9-6m521 2c-2 3-1 24 1 26q4 5 7-5l3-6c2-3 1-11-2-13q-6-5-9-2m17 13-3 6-2 5-3 6-3 9q-8 13 6 0 8-8 10-7 4 1 10-4 4-3 1-6c-2-4-11-12-13-12zM87 244q-9 11 0 20l1 2q2 4 6-4c4-6 3-8-1-14q-4-8-6-4m348 4-2 4-2 5c-3 7-2 7 11 7 13-1 13-1 11-4l-5-1q-11 0-5-5l4-3-2-2q-6-4-10-1m218 5-2 4-2 7q-5 12 2 32c6 16 8 24 10 39 2 16 2 16 7 15 6-1 8 3 11 20q0 7 5 7l5 6 3 6 1 4 4 5q4 4 6 10c1 6 2 7 5 11q5 2 8 8c8 11 19 11 23-1l4-10q3-7-2 0l-11 10q-3 0 0-5 9-15 11-29 3-16-4-3l-5 8-11 10c-2 0-1-5 1-7 7-10 15-30 13-37-1-5-4-10-5-7l-4 11c-4 9-14 23-17 23q-4-1 2-9a90 90 0 0 0 11-25c2-7 2-19 0-24q-3-6-3-2l-13 27-10 13c-4 4-5-1-2-6a94 94 0 0 0 17-35c2-3 1-16-2-20l-2-4-8 15c0 6-14 26-16 23q-2-1 4-10l2-5 3-7c5-9 7-25 4-30q-3-6-5 0l-3 5-1 5c0 4-13 26-15 26q-3-1-1-5c12-19 16-52 8-52q-3 2-5 12c-2 7-10 23-12 24-3 0-3-2 1-14 5-17 6-22 5-26l-1-7q-5-13-14-6m-614 3-3 2-6 4-13 8c-17 9-16 8-16 12q0 4 2 2l4-2a197 197 0 0 0 34-24q6-4 2-5zm32 7q-2 2-1 6 1 6-1 10c-3 4 0 27 3 24l7-12q8-16 3-19l-4-6q-2-8-7-3m108 9c-7 5-9 6-18 9q-13 3-25 12l-9 6c-12 7-32 23-30 24 1 1 12 2 17 1q3-1 4-5l4-5 5-6c2-4 9-10 11-10v5c-2 2-8 12-8 15q-1 4 3 3c2 0 3-1 11-11 10-11 28-27 32-27q6 0-3 9c-26 24-28 28-16 27 5-1 6-1 15-10a98 98 0 0 1 25-21l8-4q5 1-7 10c-11 8-22 18-22 21q-1 3 7 2c10-2 12-2 20-10q12-13 15-11 2 1-3 5-9 10-7 11c3 0 12-3 13-5 3-3 10-7 12-7 4 0 0-11-6-16s-22-12-34-14c-8-1-8-1-14 2m181 0-21 8c-6 1-14 4-14 5l1 2q1 7-6 10c-15 7-15 7-15 15l-1 7q-5 4 4 15l8 10q2 4 7 6l9 5c7 4 7 4 16 0 10-5 10-5 7-8-5-5-18-12-28-16q-8-2-6-5c1-3 28 6 38 14q10 6 12 5l4-2q2 0 5-3l3-3-4-3-9-6-4-2-1-1-9-4-13-5q-8-2-6-6c3-2 33 8 44 16q9 7 14 7c3 0 16-8 17-10 1-5-26-21-43-25q-18-6-5-6c13 0 23 5 50 21q11 7 16 4l3-2q3-1 5-5l-4-5-19-13-4-2-6-2-8-4c-9-4-9-5-9-7 0-5-2-6-15-6zm209 1 4 4q6 7 1 8l-2-1c0-1-6-4-7-3l-5 2q-8 1 3 7l11 5 19 10 14 3c7 2 30 4 33 4q4 0 4-3c0-2-3-9-4-8q-3 0-12-9c-9-8-11-8-16-4l-4 3q-4-1 3 9 3 5 0 5-4-1-5-4l-31-29-4-1q-4 0-2 2m20 0c-1 0 11 13 13 13s1-12-1-12zm-328 1-15 1-7 1v6c2 10 2 11 9 6 5-4 6-5 13-5q12 1 13-7 1-4-3-3zm149 2q-8 3 1 7l19 10 10 6q9 8 13 5 17-6-2-16l-6-4c1-2 8-1 11 0l3 2 6 3q8 6 14 0 9-5-4-10l-5-3c-3-2-4-2-26-2h-26q-5-2-8 2m212 2 5 7 9 8q6 7 2-4 0-10-8-10l-6-2zm-127 13-8 5-5 2-1 1q-5 0-5 9l-5 26q-3 10-7 10-3-1 0-12 6-25-2-22l-4 1q-3 0-5 11l-1 9-5 17-1 5q-11 23-13 17-2-1 4-14c6-14 9-31 7-34q-1-3-7 0c-6 3-7 4-9 16a120 120 0 0 1-9 32 88 88 0 0 1-21 31q-3-1 2-7l3-4 4-10 8-18 4-23q3-11-12-3l-8 4v4c0 8-6 27-13 40-7 14-17 28-20 28q-5 1 6-16l4-7c3 0 13-27 14-37 0-7 0-8-9-4q-9 3-11 13l-17 36c-3 5-14 17-16 17q-4-1 2-9l4-5 3-6a72 72 0 0 0 13-28c2-1 1-7-1-7-7 0-18 7-22 14l-14 24c-6 8-6 9-3 14l3 6 1 1 1 2q2 6 22 7l15 2h10c20-4 24-7 59-43l20-19 20-23 22-34c3-3 9-15 9-18q2-6-6-1m12 17-5 7-3 5-3 5-4 8q-7 8 0 4l6-2q6 0 9-9l4-24zm110 14 1 1 6 3 9 6 8 5q7 8 9 7c3-1 0-19-4-21zm-433 2q-8 2 5 8l10 3q7 2 6 5c-2 1-14-1-19-3l-6-2-8-5c-6-3-7-3-13-3q-20 1 13 15 6 4 3 5l-20-6q-4-1-10-6c-7-4-17-6-17-3q2 5 14 12l9 4a95 95 0 0 0 55 0q9-2 7-13l-1-4-8-5q-12-6-20-2m-70 13 15 16c4 4 4 4 11 5q13 1 11-3l-2-1-9-3-7-4-9-6c-6-6-15-10-10-4m205 17v12h2q6-2 7-5zm5 19a33 33 0 0 0-20 14l-3 5q-1 5 4 8 5 6 8 0l12-19q4-6 3-8zm425 4c-2 7 10 20 13 14q3-4-4-10-8-7-9-4m-583 32c-2 3 0 10 4 9q3-3 1-8-2-3-5-1m163 28-1 6q-1 8 10 14l6 4 10 8 12 10 2 2 2-5 3-12c1-7 4-16 7-19q3-4-2-4h-20l-10-2-11-1q-7-3-8-1m414 43q0 3 3 5l12 14c11 15 11 15 11 8 0-5 0-6-5-11l-11-12q-9-10-10-4m-398 6-4 5q-4 6-5 1c-1-8-7-5-5 2v18h10v-4l4-12q7-15 0-10m-42 12 4 11q1 4 5 3 5 0 0-4l-1-5c-2-10-9-15-8-5m43 10-4 4h4q10-1 8-6c-2-2-2-1-8 2"
        mask="url(#16282281824-posters-1720553745649-horizontal-mask)" itemprop="light" fill-opacity="0.90"
        fill-rule="evenodd" stroke="none" fill="url(#16282281824-posters-1720553745649-vertical-light)"></path>
      <!---->
      <path id="16282281824-posters-1720553745649-regular"
        d="M0 2c0 2 0 2 12 7a124 124 0 0 0 35 9h3q1-3-5-4l-6-1L12 2Q2-2 0 2m52-1c3 2 22 6 22 4 0-1-7-4-8-3l-1-1-7-1zm56 1-4 1q-5 2-6 8 0 5-34 14L45 35q-3 4-10 3-6 0-12 5-7 9-15 8-9-1-8 9 0 9 2 6h5q6 0 12-7 7-9 15-7 6 1 9-3 11-11 14-5 3 4 9-2l21-12q6-2 4 4-3 4 0 4l4-4c6-5 6-4 5 14l-1 14 3 4 3 3-2 9c-4 15-4 19 0 22 4 4 4 4 0 16-3 8-3 9-2 12q3 9 0 17l-6 12q-6 12-2 14 3 3-4 16c-4 9-5 11-4 22l-5 9c-13 20-16 25-15 30q4 6-9 16-6 6-5 10c1 6 0 6-5 9l-5 3-7 4c-7 4-16 10-18 13q-2 5-10 6-7 0-6 5c0 4 1 4 17 3 19-1 29 1 38 6q12 6 10-1c-2-6 3-4 23 9l14 9q5 1 21 19l15 18c8 9 14 23 11 26q-4 3-10-8a72 72 0 0 0-31-32l-11-6-19-10a128 128 0 0 0-32-17c-3-2-20-7-21-6v2l19 8a447 447 0 0 1 55 32q17 10 27 23c11 16 12 19 3 21q-7 3-16-8l-14-12-6-5-7-5a269 269 0 0 0-53-30c-1-1-24-9-29-9q-5-2-4 1 0 3 2 3l29 10a221 221 0 0 1 52 31c11 6 30 27 27 30l-20 5-5-1-20-12-39-18q-13-4-9-11 2-2-3-3-9-3-7 3 0 3-3 2c-9 0-2 6 12 10 7 2 46 23 51 27q10 8 0 10l-5 2c-9 4-11 4-29-5l-21-9-6-3-6-2v3q-1 4 4 5l8 4 13 6c15 7 15 9 2 14-11 4-13 4-20 2l-6-2-1 14 1 13 10-12q2-4 13-7 11-4 11-2c0 1-5 11-11 19l-8 11-10 13q-7 9-6 12l1 3 5-6c14-16 18-22 23-29l6-8c3-4 10-14 10-16 0-3 8-8 15-9l8-3q7-3-7 20l-4 8-2 4-9 15-13 20-5 7q-2 3 2 2c4 0 7-4 26-35l19-29c12-16 17-20 29-20h4v4l-4 11-14 31-7 16-7 15-4 7h3c3 0 5-4 22-39l8-16 7-16c6-14 9-18 17-20q11-6 7 14l-3 17c-2 9-9 28-16 45-8 16-7 15-4 15q3 0 4-3l8-19 3-6 6-17 7-24 8-26q2-2 7 3 9 6 0 15a56 56 0 0 0-13 43q-1 18 5 26v5q-3 4 3 3 5 0 8-3 7-6 7 0 0 4 5 3 10-1 4-12-4-6-11-4-14 6-13-19c0-21 3-28 19-44 11-12 13-16 13-21q-2-10-12-13-8-2-9-6l-4-6c-6-6-6-8-2-14q11-14 39-10c12 1 15 1 21-5 5-5 5-7 6-23 1-18 3-21 15-27q7-3 13-9 6-7 10-7 13-3 3 15-6 12-30 16-7 3-3 5t15-1q15-5 7 7l-1 5c0 12-17 26-42 35-14 5-18 6-25 7-9 1-9 2-8 4q4 2 17-1l11-3c9-2 14-4 25-9l11-6c2 0 0 8-2 12q-2 6-9 11l-6 4-11 9c-15 10-33 27-33 30q0 5 8-2l36-28q8-5 8-1l-2 8c-2 8-3 10-20 26s-25 23-35 30c-11 7-14 13-4 8 11-6 20-12 35-26 11-11 13-12 14-10v4l-3 11-3 8-4 15c-2 7-3 8-14 18-8 7-16 16-16 18h7l13-11q3 0-2 6c-4 6-4 6 9 6h12l-1-7-2-12c-3-10-2-15 5-35l5-14q2-11 6-13 3 1 5 11l6 18c5 18 7 28 7 38q0 13 3 11c4-2 2-33-2-45l-3-10-9-27-4-11 2-7q3-21 11-3 4 9 7 22 10 47 13 39l-3-23-3-14-6-22-9-19-3-5 2-5q4-10 6-10c4 0 14 14 18 25l3 5c3 6 8 22 9 31q1 11 4 7v-4l-2-16-3-16c-3-8-13-27-16-31q-5-5-8-14l-2-4 3-10c5-15 6-17 8-17 5 0 17 23 22 42q3 8 5 5c4-3-8-37-17-48-6-7-6-8-5-14q2-12 10-5 10 7 10 14 1 11 10 20 5 5 7 12c3 11 3 12-6 24-15 19-14 25 4 36q11 6 8 12-3 1-1 7c3 8 2 19-2 21-11 5-13 6-16 5q-16-3-13 16c1 4 0 32-2 37q-1 4 4 3l5-1q0-14 6-21l9-14q8-16 11-13c1 1 2 11 4 48l3 1h3l-1-9-1-16c-1-14 0-27 2-27q5 0 17 11l6 4q11 9 15 22 1 8 3 11l1 4h25v-4l-3-6-5-10c-3-8-3-7 3-33 1-5 10-18 15-22 4-3 4-3 4-8q-2-4 7-10l15-16q47-49 58-54l14-7c6 0 1 11-6 13q-24 9-21 11l6-1q15-4 17-3c1 1-6 19-8 21l-11 3c-13 3-14 4-19 6-18 8-31 18-28 21q1 2 8-3c16-10 24-13 38-17 11-2 11-2 6 13-5 12-5 13-12 14q-42 12-60 32-6 7 2 3c3-4 15-11 21-15 7-4 32-12 36-12q4-1 2 5l-5 13-2 9-7 3c-14 5-35 17-42 23q-8 9 4 2c8-6 34-18 39-18q3 0-1 14c-3 12-4 13-11 16l-29 15q-2 2 2 2l8-2c6-3 17-7 18-6q3 0 1 4v4h4l6-2h3c2 2 7 3 7 1l-3-5c-4-7-4-12 0-23l5-10q4 0 15 33 1 7 4 6 4 1 2-3c-1-7-9-31-14-40-5-11-5-12 1-26q5-18 14-1 14 23 22 51l2 9 1 4q0 3 2 2c2-1 2-3-2-22-3-18-16-45-28-59l-3-5c0-5 8-23 11-24a73 73 0 0 1 21 28 90 90 0 0 1 9 27l3 9q4 10 6 7l-1-6-3-12q-8-30-29-58c-5-6-5-8 0-17q3-11 12 3l14 27q7 17 10 16c3-3-14-41-24-53-6-7-6-8-4-14 4-16 6-16 16 3q7 15 9 8c0-3-6-16-10-20l-1-3-4-5c-4-4-4-8 1-23l3-13q1-11 3-2l8 49 1 9 2 16 3 26 1 20 3 29c2 14-1 53-4 61q-3 3 5 2 8 1 7-5 1-6 6-2c7 6 8 7 17 7q14 1 3-6l-8-6-10-11-4-7-1-15-1-22-7-71-4-34-3-14-1-7c-2-3-3-24-1-24 3 0 26 37 26 42l-3 8c-5 10-9 30-5 30l4-9 4-12q5-11 10 1c5 11 5 12 0 24-10 24-13 32-14 48q-1 16 2 16l4-13a83 83 0 0 1 7-32l6-13q3-11 9 5c6 13 6 14 0 33-9 26-14 58-8 58l2-6 1-9 1-9c0-10 11-40 14-40 1 0 10 17 12 23 1 2 0 12-2 19-6 15-7 43-3 43l1-7c0-12 7-39 10-39s12 21 12 27q1 21-4 26l-3 3h9c9 0 9 0 10-2q1-6 5 0l4 2h3l-4-8q-9-18 5-9 6 6 6 2l-5-5-6-7q-2-3-6-3-6 2-10-10c-10-20-10-22 2-17 14 6 19 9 25 15q10 10 10 5c0-5-15-16-34-26l-14-6c-4-2-11-17-11-23q-1-4 4-3a93 93 0 0 1 29 13c5 2 16 11 22 17q8 7 8 5c1-1-9-11-19-19-11-9-30-20-44-25l-7-2-5-10q-15-26 13-10l8 3 7 4 18 11 20 14q16 10 4-1a164 164 0 0 0-33-24c-7-5-32-18-40-21a19 19 0 0 1-12-12q-8-17-3-15c4 0 16 4 21 7 18 10 17 9 35 21q15 9 14 6c0-2-2-3-20-16q-27-18-53-26l-6-2-5-11-8-14c-4-5-8-13-7-13 1-2 22 10 32 17l17 11 30 17c8 4 38 34 41 41q3 6 7 8 4 1 4 5 1 13 5 16 5 2 5 13l2 14q1 6-2 12c-2 5-5 21-4 24q1 5-8 11-10 7-10 13 0 7-5 11-4 2 5 2h8l1-4 1-6q1-5 9-10c6-3 8-6 9-17q0-13 4-22l3-11q1-16 10-1 5 7 8 8c4 3 2 11-3 11q-6-1-5 12v8l-4 5-4 6-3 19q-1 3 6 2h6v-3q0-4 4-4c6-2 6-2 6-13l1-10 3-2 2-6c3-19 3-20 7-22q7-2 8-14c1-10 7-20 11-21h4c2 0 7-13 8-18 1-17 1-19-1-19l-8-5-11-8q-6-3-7-8c-6-14-5-15 13-5l9 7q5 7 5 3c0-4-19-21-30-25q-6-1-9-10l-3-8h7l11 4 11 5q8 7 12 8c4 0-3-8-9-10l-6-4q-9-6-23-11-13-4-14-12 0-4 2-4a58 58 0 0 1 25 5l21 11 3 1 2 1q1 1 1-2 0-4-1-3-1 2-2-1c-6-7-33-17-53-20-6 0-14-6-14-10 0-6 35-2 51 6q16 8 9 0c-9-8-38-16-58-16-9 0-18-5-15-10 2-4 25-2 48 3q5 0-2-5c-7-3-14-5-30-6-22-2-28-2-30-4q-3-4 6-10l6-3h16c21 1 26 2 27 6q4 6 12 10 6 3 8 9l9 7c6 5 7 5 7 9 0 5 4 11 5 9s0-20-2-22q-9-11-1-19 4-3 3-10v-5l-5 6q-10 11-13 11-5-1-6-6 1-4-9-8c-8-4-9-5-10-22l-3-27-2-19-4-25-1-12-3-19V95l4-6q7-12 10-10t12 33l12 39 1 7 1 6 2 8q0 8 4 8v-14l-4-16-9-34c-14-49-14-50-9-57q6-11 15 8l8 12 6 13 3 7v-7l-1-9-8-16c-13-26-12-25-4-25l9 2 4 2V29l-6-2-10-3-6-3c-2-3-4-14-3-18V0h-9q-11 0-8 1l2 4 2 5q5 5-2 4l-32-5c-9-2-28-2-36 0l-18 3c-13 0-13 0-11-7l2-5h-12l-1 5-3 14-3 11a34 34 0 0 1-30 17c-2-1-2-2-2-24l1-23h-6v20q0 33-3 35-3 3-12-7a47 47 0 0 1-15-40c1-8 2-8-5-8q-7 0-6 2 0 4-7 4-8 0-15 6c-6 6-14 2-15-7V0h-6l-5 1 4 18q3 5 14 6 7 2 17-6 10-6 14 8l8 18 4 5c7 9 5 13-14 28l-19 17q-3 6-7-2-3-3 0-10c6-16 18-37 22-41q5-5-1-3-7 4-23 33c-2 3-2 3-8 3l-7-2-6-1q-9 0-6-12c1-7 2-43 1-52q1-9-2-8c-3 0-3 0-3 14-1 23-5 57-7 59q-5 2-9 1l-9-14-2-54V0h-7v20c0 19 0 23-3 22l-8-12-4-6-7-11-5-8-2-4-4-1-4 1 9 17 6 9 5 8 12 21c0 3-12 0-25-5l-48-24-8-6-12-9q-6-5-6-2c0 4 22 22 35 29l9 6 11 5 16 7 26 10 7 1c2 0 9 8 9 10 0 4-8 13-11 13a255 255 0 0 1-51-22l-13-7q-21-10-5 2c13 9 14 10 5 13l-9 4q-2 3-8-3l-5-4c-6 0-39-33-41-40l-2-6q-5-8 1-24l2-4h-6q-7 0-7 2h-3q1-2-9-2l-10 1c0 2 5 7 7 7q6-1 7 14c2 12 3 14 7 14q8 1 8 22-1 15 5 16l4 2-1 14c0 16-1 18-6 18-3 0-9-3-9-5q2-3-4-3-4 1-11-5c-9-6-18-14-19-16 0-1 12-14 14-14l1-2c0-3-1-3-12 7-11 9-17 15-26 27-10 13-10 11-6-17 2-11 12-31 20-40l12-16q2-6-19 18l-4 4c-1-1 1-13 4-19l3-10 5-17-5 1-4 13-5 15-3 8-2 6-2 5c-3 5-5 3-9-14l-4-10-1-6q-1-5-3-5-3 1 0 7l1 7 1 5c7 25 8 32 1 31q-4-1-7 3l-6 3c-2 0-8-7-10-12l-3-4q-4 0 1 7l5 10 2 5-3 2q-1 2-10 2c-7 1-7 1-11-2q-4-5-12-2-4 2-7 1t-5 3l-6 4-4 1q-9 7-7-7l2-11c1-5 9-12 14-12l6-2q3-2 6 1l4 1c2-1 5-10 6-18 1-14 2-14 13-14h8l2-6q3-5 7-7 6-3 8-9h-9q-10 0-10 2 0 3-4 3l-7 2-5 2c-5 0-7 5-12 24q1 4-5 4l-6 3q-4 3-4 1-1-4-10 1l-5 3q-3 1-4 13c-1 16-3 19-11 25q-10 8-12 3-3-2-1-6c2-9 1-21-1-25-2-3-2-3-1-19q0-14 2-17l1-5c1-3 2-4 12-8l10-6c0-1-26 0-28 2m444 1c-1 3 0 12 1 16q2 4 3 0l1-11 1-8h-3q-3 0-3 3m49 1 4 22c1 3 3-2 2-5l-1-12c0-9 0-9-3-9q-3-1-2 4m63 13-14 2c-6 0-19 3-21 4l-1 4-4 8q-8 11 3 7l17-3 23-4c31-6 47-6 64 1q9 3 9-1v-3l-4-4c-7-5-11-7-22-8l-15-3c-10-2-27-2-35 0m24 20-57 9h-3l-7 3-12 4-12 4c-10 2-11 3-14 9q-4 9-9 6h-7l2 2q6 2-7 16c-11 13-11 13-11 21v7l4 1 18 7q6 3 8 1l4-2 6-2 12-6 9-4 13-5q26-9 55-15c27-5 27-6 34-16 5-8 6-9 4-11l-32-3-20 2-25 4c-14 2-18 4-36 11-13 4-17 6-27 12q-18 11-7 0c12-10 49-26 67-29 24-4 31-5 66-6h22l4-5q3-4 2-6c-3-6-29-11-44-9M78 51l-7 10-12 12q-2 0-2-5l-1-4q-4-3-4 13c0 10-1 13-9 23q-10 15-5-19c2-13 2-12 1-13-4-2-8 21-8 42v12l-4 6-4 8-7 7c-3-4-2-44 1-51 1-2 0-8-2-6q-6 8-6 51l-1 25-4 6-4 7v11l1 11 8-4c13-7 37-22 38-25q1-3-8 2c-11 8-25 14-34 17q-4 2 0-7l10-19 14-7 25-14c12-9 29-26 29-29q1-6-7 4-14 15-39 28-20 9-9-4l6-11c4-7 4-7 13-11l18-12c8-5 22-20 22-22l-3 2-8 6-10 7c-7 5-18 11-21 11q-3-1 4-9l5-8 8-7 22-14q6-5 5-8l-6 4-9 6q-12 7-1-9c10-13 13-22 5-13m249 24a10 10 0 0 0 7 12q3 3 11 0c5-2 5-3-7-11-11-7-11-7-11-1m-99 2-3 8c-4 9-4 9-1 16q4 7 4 5l2-9c2-12 1-28-2-20m245 6q-14 2-20 12-15 26-42-1c-11-10-14-12-23-10-10 2-13 3-20 9-7 5-9 6-20 6q-13 1-21 10-9 8-1 11c10 7 13 7 23 0 9-5 14-7 27-11 13-3 32-6 33-4q2 2-4 3l-4 1-16 5q-18 5-31 12l-5 4 2 4 8 4c18 10 26 10 41 0l8-4 31-12c6-3 30-6 37-5q11 1 1 2a149 149 0 0 0-35 8c-10 3-34 15-41 21q-8 6 5 10c9 5 9 5 19 0 13-6 30-11 42-13 17-3 43-5 46-4q4 3-8 5l-23 3c-22 3-50 12-52 17s19 11 28 7c29-12 83-19 97-12q8 4-15 3l-34 4c-11 1-28 6-35 9q-10 4 0 7l15 7 12 5 10 4c13 6 17 6 25 4 10-2 26-2 36 1q19 4-5 4-22-2-21 3c0 1 14 8 27 13l15 6c15 6 17 7 19 5s3-12 1-13l-1-5q0-10-13-18l-6-4-7-5c-13-10-13-16-4-27 6-7 7-8 4-16q-6-13-21-18c-15-4-24-5-37-5-14 0-17-1-20-6q-2-5 1-9 3-7 0-9l-1-6q0-9-5-12zm-309 6-14 6q-15 8-17 1-2-6-8-1c-10 6-13 17-5 18q3 1 2 6l1 7 2 22 1 22 2 9q2 10 6 16l2 3 5-6c6-7 7-8 3-24-4-23-3-55 2-56 2 0 2 0 1 9-1 22-1 24 4 45q2 12 13-6l4-5v-24c0-24 0-30 3-27q2 0 1 17 0 30 7 18l4-6 2-3 3-5 6-10 9-15 5-9c0-1-12-1-19 1q-11 3-13-4 0-5-12 1m373 2c-4 4-4 4-4 9q1 10 4 9l12-19c0-5-7-4-12 1m-284 4c-16 22-26 48-20 57 3 5 4 4 24-16l24-22q10-6-4-12l-14-8c-7-5-6-5-10 1m421 5c-26 6-36 9-49 14l-9 3-6 2-6 3c-2 0-20 9-21 11l4 14 2 5q1 4 10 0c4-3 7-4 20-9l11-5c6-3 26-9 39-12 17-5 17-5 20-10l5-8q11-14-20-8m-473 12-4 8-7 11c-12 19-11 18-10 20 2 1 16 3 20 2l3 1q1 3-17 3l-12 1c-3 0-14 18-12 19 4 2 31 1 40-1l2 1-7 3c-13 4-20 5-32 5h-11l-4 3q-6 7-4 12c2 2 35 1 44-2h9q-1 4-7 4l-4 1c-4 2-26 5-38 5h-12l-3 4-4 7q-7 10 0 10c13 3 35 1 51-3q15-3-2 5c-11 4-18 5-40 5l-19 1-3 3q-6 8-5 12c2 3 26 4 45 2 15-2 15-2 15 0 0 4-26 8-50 8-19-1-19-1-22 7q-7 10 11 9 10 0 6 3l-18 3c-7 0-8 0-13 11q-10 21 1 9 8-6 11-2c3 1 3 1 19-10 23-15 34-21 46-23l9-6 13-9q12-8 19-17 3-6 10-13c8-8 9-10 6-14q-4-4 3-12 8-9 5-14c-5-7-5-7-4-15 0-7 0-8-2-11a77 77 0 0 1-14-38q0-22-8-8m499 0c-9 10-10 12-7 34l1 20 2 12v15c-1 29-1 30 4 32 3 1 19 2 21 1 2-2 3-10 1-16l-2-9c0-8-4-37-8-56-7-36-8-37-12-33m-421 10-23 23c-22 23-23 26-17 32q5 8 2 15-3 6 8-1l22-14 19-12 4-2c2-3 8-5 10-5q3 2-5 5l-8 5-3 3-7 4-7 4-7 6-14 11q-16 10-15 16c-1 4-8 16-10 16-1 0-11 9-13 13q-3 7 6 2c23-11 67-21 67-16q1 2-14 6c-30 7-64 22-64 28 0 5 15 9 26 7l17-2q24 1 32-13 5-8 8-7c5 0 21-12 20-15q-3-6-1-7 6-5-4-7c-10-3-10-5 1-17 10-10 10-10 7-12q-5-3 1-12 5-11-6-23-13-14-9-26 3-9-4-14c-6-3-7-3-19 9m34 3-2 12 7 10q9 9 9 16 1 16 31 19c14 2 19 4 23 10 6 8 7 12 3 26q-9 27 7 44 8 9 14 3l9-6q9-4 9-10c0-6 8-12 16-12 7 0 9 1 18 11 13 15 15 17 21 21 10 7 29 11 44 10 9-1 10-3 11-12q-1-14 6-14c7-3 11-2 21 3 9 4 10 4 16 4 15 0 35-9 31-13-1-2-16-10-18-10l-23-8q-28-12-27-8c0 5 14 20 25 28q13 8-3 3-11-2-29-27c-11-14-11-14-25-19l-15-6c-9-4-21-7-22-6s7 13 18 28c13 16 26 44 18 40l-11-18c-2-5-11-19-18-26l-9-13a55 55 0 0 0-32-27q-10-5-3 9c7 15 6 13 23 40q10 14 8 15-3 3-14-13l-11-16-5-8-4-7-6-10c-8-15-12-19-19-22q-16-8-10 3c8 20 11 32 13 53q2 19-1 21l-1-4c0-16-12-60-19-70-9-14-10-16-22-20l-12-5q-8-5-5 7c2 7 3 20 1 22q-4 1-4-4c0-5-4-21-7-27q-3-9-19-16-4-3-6-1m349 9-9 2-20 7-9 4-17 7-16 8c-2 0-13 11-13 14q2 6 11 12c5 3 7 2 16-4 7-5 30-17 52-25 9-4 12-6 17-16q11-19-12-9m-548 5-1 4-2 4c-3 2-6 9-4 12 1 5 1 6-2 15-2 8-2 10 0 22 3 12 10 26 14 27q3 0 11-16l-2-7q-8-15-8-49l-1-12zm566 6c-8 10-8 12-8 31l1 18v13c-3 3-4-2-7-24q0-16-8-2c-5 8-6 11-4 17l4 26q0 10 7 11 5-1 6-12 1-13 3-2 0 10 14 4c4-2 5-4 1-47-3-39-4-41-9-33m-30 23-3 1-3 1-15 7-12 6q-13 7-15 10c0 2 10 15 12 15l1-1q2-4 9-6 19-4 28-20 9-17-2-13M52 185c-8 8-46 29-51 29l-1 3c0 4 1 4 14-2 14-7 20-11 33-21l10-8 3-3q-1-3-8 2m706 3q-1 11 2 12c2 0 3-13 0-17q-3-3-2 5m-427 1c-5 4-14 15-14 17q-1 3 6 2 11 0 7 10-3 2-1 6 3 5-10 15l-15 12c-14 11-28 35-24 41q6 7 11 8c5 0 20-12 20-15q-3-10 22-15 10-2 16-5l12-4q11 0 4-7a67 67 0 0 1-19-37c0-10-8-28-11-29q-2-1-4 1m23 11 1 4 2 9 2 12 11 18 2-22 2-7c2-2 4-10 2-10l-13-5q-10-5-9 1m-290 5-5 6c-7 10-31 28-51 38q-8 4-8 6-1 5 12-3c25-15 36-24 48-37 9-9 11-16 4-10m580 2q-5 8 4 13 4 4 2-8-3-11-6-5m-547 4q-9 10 0 29 4 11 10 3c5-6 5-6 1-18-6-18-7-19-11-14m520 3c-2 3-2 24 0 27q4 7 9-6c5-12 5-15-1-19q-5-5-8-2m16 14-2 6-3 8q-17 31 1 13 8-8 10-7h4c11-8 11-9 3-17q-10-10-13-3M85 246q-6 7 0 16 6 10 10 0 5-6-3-17-4-6-7 1m351 1c-3 3-8 15-6 16 2 3 25 1 25-1q0-5-8-4-9 0-3-3 4-3 0-7-5-4-8-1m219 4q-4 1-7 13c-3 11-3 18 2 30 4 13 10 35 10 40l3 17h4q8-3 11 17-1 8 6 10 4 3 9 16l3 4q6 4 6 12 1 4 7 10l10 10q7 9 15 3 5-2 5-5l4-11q5-15-1-4c-3 5-10 12-12 12q-3 0 1-5 10-15 11-32 2-12-8 3-6 10-9 12-10 8-1-5 8-12 11-26l2-7-2-5c-4-8-4-8-8 3-4 9-10 20-15 24q-8 6 0-6l5-9 2-5c5-9 7-27 4-34q-3-9-6 0c-3 11-18 35-22 37q-6 2 2-8c10-16 14-26 15-40q0-16-5-17c-2 0-7 10-9 17-3 9-13 23-15 21l3-7c13-27 16-48 7-48-2 0-7 11-7 14l-11 21q-8 8-1-5c8-15 12-39 8-46q-4-10-9 10c-3 12-10 25-13 23l3-8q7-21 6-30-2-20-14-16m-615 5-4 3-6 3c-2 3-22 13-27 15-2 1-3 7-1 7l23-14 12-9 6-5q3-2 0-2zm31 7q-4 3-2 6v8c-4 9-2 28 3 27 1-1 13-22 13-25l-2-5-4-9q-3-8-8-2m557 4q-3 4 2 6 6 2 6-2c0-4-6-6-8-4m-450 5q-7 5-16 7c-16 5-45 23-63 39q-8 7 6 7 11 1 15-7l7-9c4-7 12-12 12-9l-4 7q-11 14-2 15 1 2 10-9 10-12 25-24 8-8 9-5 3 1-4 7c-22 20-26 25-23 28q7 6 23-10c12-13 30-26 32-24 2 1 1 2-14 14q-15 12-16 17c0 2 13 2 18-1q4-1 11-9 11-11 14-10 0 2-4 5-10 12-4 11 6 0 12-5l9-5q9-3 3-10-11-15-29-20c-20-5-19-5-27 0m391-1q-2 1 4 7 6 9-2 5-5-5-7-2l-5 1q-10 2 4 8l9 5c10 7 25 13 36 14q36 5 37 1c1-3-3-10-6-10l-8-6-14-10-4 3-6 3q-5-1 2 7 5 8 2 8l-9-9-22-20q-9-8-11-5m-214 2q-8 5-18 6-13 2-12 9c0 6 0 7-10 11q-13 5-10 12 1 4-2 8c-3 5-2 7 5 16l6 8c0 4 20 15 25 15 4 0 18-7 18-9 0-3-13-12-24-16l-13-6q0-3 15 2c15 5 17 6 25 12 8 5 11 6 18 1q13-5-12-16l-11-6-11-5q-9-3-6-4c3-3 31 8 48 19 8 5 7 5 14 2q20-8 9-14-17-13-40-21-20-8 4-3c10 2 15 4 33 15 19 11 18 11 26 7 10-5 10-6-7-18-10-7-15-9-34-18q-4-1-3-3 5-7-15-6c-12 0-14 0-18 2m234-1q-2 2 5 9 10 9 9 2 1-9-2-10c-4-2-12-2-12-1m-336 2c-15 1-15 1-14 7q0 17 8 8 9-7 17-6 10 1 10-7c0-3 1-3-21-2m155 2c-5 3-5 3 9 10l14 8 9 6c9 7 10 7 14 4q17-6-4-17c-10-6-1-5 11 1 12 5 16 5 21-1q6-1-7-9l-7-4h-28c-28 0-28 0-32 2m213 2 18 19c2 0 0-13-2-16-2-2-14-5-16-3m-129 14-8 4c-7 4-8 5-10 17q-4 28-10 30-3 1 2-18 3-15-1-17c-2 0-10 4-11 6l-2 16-2 8c-5 18-15 37-17 32l5-15 2-5 3-9c4-10 3-21-1-21q-12 1-14 16c-3 21-12 44-23 56l-3 6-3 2q-4 1 1-5l3-6 3-5c6-8 14-35 14-46q2-11-9-4l-8 3q-4 1-5 11c-2 19-28 68-33 63q-1-1 12-22c6-10 7-12 11-26q9-25-8-15-8 3-10 11l-4 11-4 9-3 7-5 9c-2 4-10 13-14 16q-8 4-2-4c15-20 24-40 23-48l-1-2-8 3q-13 4-16 13l-8 14-6 9c-7 9-7 11-4 14l4 8c4 7 8 8 26 10l13 2c7 2 23-2 33-9 6-4 23-19 27-24l24-24q29-30 41-52l10-15q15-26-4-14m14 15-19 33 5-2 7-3c6-1 8-4 11-19q4-21-4-9m110 14c0 1 4 4 20 13l8 7q9 10 8-4c-1-14-2-15-19-15l-14-2zm-433 2q-7 3 6 9l10 4q7 2 4 4c-4 1-23-5-33-11-5-4-18-3-20 1 0 1 8 7 17 10l8 5c2 2-9 0-16-3l-7-3-8-4-10-5q-14 1 6 13l9 5a87 87 0 0 0 57 1q9-1 8-12v-6l-8-5q-14-6-23-3m-72 11 11 12 12 12h9q10 0 9-2 0-2-3-2c-5-2-20-9-24-13q-14-11-14-7m207 21 1 12c1 2 9-3 9-5 0-3-10-10-10-7m4 18c-14 5-18 9-21 18s9 16 13 9l8-14c9-15 9-16 0-13m427 3v6c3 10 14 16 14 7q1-5-6-10c-6-4-6-5-8-3m-584 34q-2 4 1 7 5 4 7-2c2-6-5-10-8-5m164 26-1 7c-1 7 0 8 9 14l31 24c2 0 6-13 6-19q0-5 4-13l4-8h-10l-15-1-10-2-15-2zm414 44 6 8 12 14 2 2 3 5 3 2v-4c0-4-1-5-11-17-11-12-13-14-15-10m-400 9-3 5q-1 3-4-3-4-9-4 9v12h4q5 1 4-3l4-12q8-18-1-8m-39 10 2 7 2 4q0 3 3 2 5 0 2-3l-3-6c-2-9-7-13-6-4"
        mask="url(#16282281824-posters-1720553745649-radial-mask)" itemprop="regular" fill-opacity="0.90"
        fill-rule="evenodd" stroke="none" fill="url(#16282281824-posters-1720553745649-horizontal-regular)"></path>
      <!---->
      <path id="16282281824-posters-1720553745649-medium"
        d="M0 2v2l9 3c18 7 23 8 31 9l10 1-10-4-4-1-9-3-14-6Q1-3 0 2m55-1c6 3 15 5 17 4q2-2-6-3l-2-1-6-1q-6 0-3 1m56 0-4 2q-6 0-8 8c-2 5-5 6-29 13-9 2-23 9-26 13q-1 2-9 2c-6 0-6 0-13 6-7 5-8 6-12 6q-11-1-10 9v6l5-1c7 0 8 0 14-6q10-10 15-8c5 1 4 2 10-4q9-9 12-4t10-1c6-5 21-13 24-13q3 0 1 5-1 6 4 0 3-3 5-3c1 1 1 21-1 29l3 5c4 4 4 4 0 21l-2 10 3 4 4 6-2 4-2 9-3 7 2 4c3 7 3 9-7 28-5 9-5 9-2 13 3 3 3 5-2 15q-7 13-6 19 3 3-4 13c-15 23-18 28-15 30q4 3-10 17-7 6-4 11 2 4-4 7l-8 4-6 4c-3 0-16 10-18 13q-2 4-9 6-9 0-7 4v3h19c21-1 24-1 37 6q5 3 8 2v-7q2-1 12 5l26 16a52 52 0 0 1 17 15l10 12 9 11c8 9 14 22 11 26q-4 7-11-9a66 66 0 0 0-30-30l-16-9-21-12-24-12c-12-5-25-8-21-5l20 9 5 1 9 6 16 9 11 6 6 4 9 6q16 8 31 32 8 12-7 12c-5 0-5 0-13-8l-16-14-11-9a242 242 0 0 0-84-40q-2 0-2 2l4 3 35 13 3 1 10 5 16 10 15 11c9 6 23 20 27 26 2 5 1 6-12 9l-9 2-5-2-22-12c-5-4-29-15-36-18q-13-4-10-9t-4-5q-6 0-5 2 1 4-4 4-8 0 6 6l32 14 25 15c10 7 9 9-4 14-11 4-12 4-18 0l-8-3-5-3c-4-3-28-13-30-13s-1 5 1 6l27 12q9 4 7 9l-17 8c-4 1-5 1-12-1l-7-3v13c0 15 0 15 8 5q4-7 12-9 26-13 6 14l-9 13-16 20-1 4 1 3 8-9 19-26 6-7c4-5 11-15 11-17q2-6 17-10 14-3 8 5l-2 3-2 4-6 12-27 43c-6 8-6 8-3 8q3 2 21-28c10-17 24-37 33-49q3-5 16-7 15-5 4 16l-4 9-10 21-7 16-6 14c-5 9-5 8-2 8 2-1 6-7 17-31l21-43q7-17 19-19c6-1 7 3 3 23l-2 11a185 185 0 0 1-13 37l-9 22q2 2 6-4l6-14q7-14 9-24l13-46q1-5 4-7l2-2 3 2q5 4 7 10 1 2-5 9l-8 12c-7 15-7 43 0 55q3 3 1 5c-3 5 5 6 9 1 4-4 10-4 9 0 0 5 9 4 10 0 1-7-5-14-12-13l-6 2q-11 0-8-30c2-16 4-21 18-35 12-13 13-15 13-20q0-11-13-14-4-1-6-4l-6-7c-6-7-6-9-1-15 7-11 16-13 42-11l11 1 4-4c7-5 7-6 8-20 1-22 5-28 16-32q5-1 12-8 10-10 16-7 6 0-1 13-2 7-8 10c-4 3-16 8-20 8-2 0-7 3-6 4 0 1 8 1 14-1 10-2 10-2 11 0l-2 7-2 10q-4 16-39 31l-30 8q-10 1-3 3c8 2 41-8 55-16q11-8 6 4-2 11-11 17l-29 21c-17 15-21 19-21 21q0 3 10-5c10-9 28-22 35-26q11-6 7 4l-3 9c-1 5-2 6-24 27q-19 17-32 26-8 5-8 8c2 2 30-17 38-26l8-7q14-13 8 4l-2 8-2 7c-2 2-2 4-6 16q0 6-7 12-17 15-19 19l-3 4h2l9-5q16-15 6 2l-2 3h23v-4l-4-19v-10c15-50 17-54 22-43l2 6 3 11 6 20 4 28q0 10 3 6c4-8-3-47-15-77-4-12-4-13-2-22q2-11 5-11c3 0 10 16 13 29l5 20 3 14 2 6q5 3 0-16l-3-17q-3-22-13-39l-5-9c-1-4 5-17 8-17 4 0 17 19 23 35l4 10 1 5 2 5 1 8 2 6q1 2 1-4l-4-24a90 90 0 0 0-13-30l-8-14-3-5c-4-6-4-9 1-22q5-19 11-12c6 7 14 25 20 42q2 8 3-1c-2-13-11-35-19-44-5-7-6-17-1-20s18 7 19 15q1 12 8 19 7 6 10 19c1 7 0 10-7 18-14 17-14 26 1 35q15 9 10 15v7q3 10 1 17c-1 5-16 10-23 8-6-2-12 5-10 13v34q-4 10 2 9c4 0 5 0 6-11q0-7 3-10 5-3 12-17 12-29 13 9c2 27 2 29 4 29s2 0 2-11c-2-34-2-41 0-42q4-1 15 9l9 7c7 4 14 15 15 22l3 11 2 4h23v-3l-2-6-6-12-2-7 2-9 3-14q3-12 15-24 6-5 5-8c0-5 1-7 14-17l7-7c5-7 27-30 40-42l7-6q3-5 23-15 6-3 6 3 0 8-13 13-16 5-16 7h4c3-2 17-5 18-4q3 1-5 19-3 4-12 6c-17 3-49 20-49 26q2 2 6-2l2-1 5-3q14-9 33-13c11-3 12-2 7 13-5 13-5 13-19 17l-23 7c-8 3-35 24-33 26l3-2c12-10 38-23 55-26q9-2 5 6l-4 13q-2 9-6 9c-29 14-42 22-47 27q-3 5 5-1c11-8 36-19 39-17q2 0 2 3c0 4-5 20-6 23-1 2-28 15-30 15l-4 3-4 3h3l4-1 21-8q5-1 3 6-2 4 3 3l5-1q3-3 5 0l4 1h2l-3-7c-5-7-5-8-1-20q4-16 7-12c3 2 8 14 13 27 3 11 4 12 6 12h2c0-3-12-36-16-44-5-10-5-8 1-25q6-17 15-2c11 18 17 31 22 51l5 15 1-3-2-10q-4-30-24-58c-10-16-10-14-5-24 6-16 7-17 13-10q17 18 26 49 7 26 7 14l-2-8-3-10c-4-15-13-35-24-48-7-10-7-11-7-15q3-12 9-14l9 11 4 7 6 11q9 22 11 22c3-3-13-38-25-53-5-7-5-7-3-14q5-23 17 3l6 10q4 0-2-12l-11-18q-6-3 0-19l4-15 3-8 6 32 2 14c5 31 6 37 8 63l3 37c1 15 2 32 0 39l-1 12-2 16-1 4h5l5-1q3-13 9-5c8 6 8 6 17 6h9l-3-3-8-5c-6-4-8-7-14-15l-5-7v-16l-4-40-1-11-2-19-1-20-8-53c-3-15-4-28-2-29q3-2 16 22c13 20 13 21 8 30-3 6-7 23-6 27l1 3 1-3 3-9q4-15 9-16 2 0 5 7 7 12 2 20l-4 11-4 9c-6 12-10 47-6 47l3-13c0-7 4-23 7-30l6-13q4-12 10 2c7 14 7 14 1 34-6 19-8 23-9 34-2 10-2 23 0 24 1 0 2-5 4-26 2-13 11-37 14-37 2 0 4 2 9 14 5 11 5 13 2 24l-5 20c-2 8-1 26 1 26l1-4c-2-9 7-43 10-41q4 2 10 17c4 10 4 30-1 36l-3 3h8q11 1 9-2 1-7 6-1 8 9 3-4c-7-12-4-18 5-10q5 5 6 2l-5-5-6-6q-1-3-5-3c-5 0-8-2-13-14-9-19-8-20 8-12l11 4 10 8q9 9 9 7c4-3-12-15-35-27l-15-7-3-7q-10-17-6-19h4l5 1a112 112 0 0 1 39 22l9 8q7 7 7 4a165 165 0 0 0-45-34l-3-1-12-6c-12-5-12-5-17-17q-7-13-1-13a95 95 0 0 1 32 13q12 6 31 21 23 15 6 0l-28-20c-5-4-32-17-43-22-6-2-7-4-12-15q-6-13-1-13a86 86 0 0 1 31 12l10 7 11 7c15 9 15 10 17 10q5 0-20-16c-22-15-32-20-46-25-12-4-13-5-16-11l-11-20c-2-1-6-11-5-12 1-2 27 13 43 25l4 2 8 5 9 4 6 4 9 6c8 4 38 33 41 40q4 9 7 8 5 0 5 11 2 10 5 11 3 0 5 11l1 11q3 8-1 17c-3 6-5 18-5 25q1 5-8 11-8 4-10 14-1 7-4 8l-3 3h15l1-5 1-7q1-5 10-8c5-3 6-6 8-24l3-14 3-12q0-17 12-1l7 8q7 8-2 11-7 1-6 13c0 8 0 8-4 13-4 4-4 4-4 14l-2 11q-2 1 5 1h6v-4q0-4 4-4 7 0 5-12v-8l3-3c3-2 3-3 4-12q3-16 7-17 7-3 8-17 0-4 5-13 2-5 7-5c4 0 4-1 8-10 4-10 5-26 2-26l-9-6-10-8q-6-3-9-11-6-14 6-8 16 9 19 14 4 6 4 2 1-2-2-4l-8-7c-5-5-17-13-18-13-5 0-15-12-15-18 0-5 23 2 35 11q6 5 7 4 2-2-8-7l-7-5c-4-3-15-9-24-11q-10-3-12-10-4-6 1-8c3-1 12 1 17 3l4 1 22 10 7 4 1 1q1 1 1-2t-1-2-2-1a53 53 0 0 0-23-13l-28-7q-9 0-14-7-6-5-1-6c7-4 36 1 52 8q12 6 6 0c-9-7-31-14-47-15l-16-1q-12-5-10-11c1-2 26-2 39 1l11 1c-3-4-26-10-33-8-4 0-26-2-29-4q-6-5 7-12 6-3 31-2c13 1 15 2 17 6q3 7 11 9 6 3 8 9l9 8q9 5 7 8c0 5 4 12 5 10s0-20-2-21c-1-1-6-11-6-14l4-6q5-4 4-10v-5l-2 3q-18 23-23 7c-1-3-1-4-8-6-8-3-8-4-9-11q-1-6-3-4l-1 5q2 7-12 5c-17-2-16-1-16-27l-3-62c-2-12-2-12 3-20q7-11 9-8l2 3 1 6 11 57 2 23 4 15 1-7-2-18-6-46-2-16-3-23v-9l5-8q8-11 10-8c2 1 10 23 15 43l8 26 5 23q1 6 3 8 3-1 1-10l-2-7-5-22-6-22-9-30c-5-17-5-22-1-28q6-13 16 5l7 13 7 12 3 8v-6l-3-12-8-15c-8-18-9-21-8-23q4-2 13 1 8 6 6-6v-8h-4l-6-2-6-3q-10-1-10-18V0h-8q-9 0-7 1l2 4 2 5q3 5-3 5l-9-2-17-2a122 122 0 0 0-50 0l-10 1q-16 5-10-10 1-2-5-2-7-1-6 3l-1 3-1 5-3 16c-1 4-9 13-13 16-7 4-19 6-21 4l1-43q1-5-2-4-4-1-3 5v24q-1 26-4 27c-3 3-18-10-23-21-6-11-6-18-4-30V0h-5q-5-1-6 3t-5 4c-9 0-11 1-16 5-8 7-16 4-16-7V0h-10v5q3 18 9 18l3 1h14l6-4q12-9 17 7l6 15 4 6c5 7 6 8 5 11q-2 7-14 17c-9 6-20 16-22 19q-2 6-6 2-7-4-1-17c5-13 15-31 19-36q8-10-4 0-6 7-18 29c-2 3-2 3-12 1l-9-1c-7 0-8-2-6-17 2-25 1-56-2-56-1 0-2 2-2 21-2 29-5 51-8 53-6 3-8 2-14-7-4-5-4-6-4-16l-2-44V0h-6l1 17q2 39-9 19l-7-11-7-11c-7-12-8-14-12-14h-3l3 6 6 11 6 9 6 10q16 23 8 22a93 93 0 0 1-28-9l-37-18-23-17q-14-10-1 3a136 136 0 0 0 34 25l26 13c10 5 24 10 27 10 8 0 20 8 20 14 0 3-9 12-12 12-7 0-46-18-66-30q-9-5-9-2l6 5q11 7 11 10l-4 3-8 3c-5 3-6 3-12-2l-13-9c-9-7-31-29-32-33l-3-8c-3-8-3-13 3-26 1-3-11-3-12 0l-1 2-2-2q-1-2-10-2h-9l1 3q4 5 8 5 4-1 6 14c2 12 3 14 7 14q8 2 8 24c0 11 0 12 5 14 4 2 5 4 3 20-2 13-2 14-7 14q-8 0-9-5 0-2-4-2l-8-3-8-6-14-11c-1-2 6-11 13-16l2-3c-1-1-1-1-10 7q-15 11-28 29-6 9-8 7t1-17l2-13c0-4 6-17 9-21l5-8 5-6 5-6 6-7 1-3-19 19q-10 13 0-17l3-12 2-8 3-6h-2q-3 0-4 5l-4 12-3 11q-11 40-17 10l-5-19q-2-6-3-5v3l1 7 4 20c3 6 4 15 3 18q1 4-4 2-5-1-8 3l-6 3c-2 0-8-7-11-12l-3-5q-3-1 1 5l7 14q4 7-9 7c-11 1-11 1-14-2q-4-5-11-1l-8 1q-3-1-5 2c-1 2-13 8-16 8q-4-1-2-9l2-8q0-8 6-12l3-2q0-2 5-2l7-2h6q7 5 10-16c1-14 3-16 13-15l7 1 3-6q2-6 7-7 6-4 7-8l-8-1q-9-1-9 3-1 3-6 2l-5 2q-4 3-7 3-4-1-6 9l-3 9q0 9-5 9-4 0-7 3-4 3-5 1-6-2-8 1l-4 3q-7 2-7 18-1 19-18 25-6 2-7-7c3-17 2-21 0-25l-3-3V38c1-13 2-16 3-19l2-6c0-2 1-3 11-7l10-6zm441 4q0 14 3 15l1-3 1-10 1-7h-3q-4-1-3 5m50 0 3 19q0 2 1 1V12c0-12 0-12-2-12q-4-1-2 5m67 10-20 4c-1-1-17 2-19 3l-2 4-2 5q-13 16 3 11l24-4 24-4q26-6 48 0 18 6 16 0 2-1-7-7c-7-5-9-6-18-8l-18-2q-21-3-29-2m17 21-40 7-13 2-18 5-22 7q-6 0-11 9-3 8-9 5-10-1-4 3 5 3-3 11c-13 15-15 17-15 22l-1 7q-2 6 4 6 8 1 18 6 9 4 19-2l9-5 15-6a336 336 0 0 1 65-19c24-5 28-7 34-16 7-10 7-12 0-14a215 215 0 0 0-85 7 250 250 0 0 0-51 21c-10 5-10 6-10 4 0-3 21-15 37-21l11-5 32-8c18-3 49-5 65-4 11 0 12 0 14-2q7-6 5-11c-1-3-14-7-23-8l-11-1zM77 54l-6 8c-3 5-11 12-12 12l-2-5q-1-7-3-3l-1 11c0 10-1 11-8 21q-8 12-9 2l3-28q-1-8-3-1l-1 9c-3 10-3 17-3 29s0 14-10 28q-6 11-7 4c-2-4-2-39 0-45q3-11 1-9c-5 4-9 43-7 65 1 7 1 8-1 11l-5 7-2 4-1 11v11l6-2 6-3 28-17q7-5 6-7l-7 4a139 139 0 0 1-31 16q-8 3-5-4l3-6 3-6 2-5 7-8c4 0 36-18 42-24l23-23c0-2-5 1-6 4l-11 9-12 9c-4 4-27 15-28 14q-3-1 0-6l8-13c3-7 4-7 12-12l20-12 9-8q11-11-4 0c-9 6-25 14-27 13q-2 0 6-11l4-7 7-5 27-20q2-4-12 6c-7 6-12 4-7-4l4-5c3-2 9-13 8-13zm250 16v11q1 4 6 6l6 3 5-2q8-3 3-6c-19-14-19-14-20-12m-99 6c-7 16-7 19-4 26q3 8 5 2c4-12 3-37-1-28m244 6q-13 3-19 12c-12 18-23 18-41 0-11-11-13-11-21-11q-14 1-23 9c-7 5-8 6-17 6q-16 1-24 11-9 7-4 10 12 11 24 3c14-9 40-17 58-17q9 0 1 2l-9 3-11 3c-16 4-35 13-37 16s0 5 17 13c12 6 18 6 30-1a174 174 0 0 1 66-23h20l-12 2c-22 3-57 17-68 27-7 6-6 7 4 12 9 4 11 4 16 1a174 174 0 0 1 66-17l20-1h6l-4 2-10 2-27 4-12 3-19 6q-24 7-2 14c9 4 12 4 19 1 22-10 57-16 80-15 9 1 20 3 17 4h-16c-16 1-19 1-41 6l-26 6q-15 6-1 10l12 6 28 11c10 4 14 4 24 3q17-3 30 0 20 4-6 4-35-2-6 10l18 7 15 6c17 7 19 6 19-4q0-22-16-29c-8-3-22-17-22-21q1-7 5-12 7-5 7-14-2-9-8-14l-4-4c-5-5-33-11-52-9-13 1-20-7-14-16l2-4-2-4-2-9q1-15-28-10m-310 7-12 6c-3 2-12 4-14 4l-3-4c-3-6-14 0-17 10l-2 5 2 2 4 2q2 1 1 5l1 6 2 19q0 36 8 50 4 6 9-1c7-9 7-9 6-17-5-19-5-24-5-42l2-19q4-6 3 1c-1 10 0 36 1 40l3 10q1 9 6 3l4-3q6-8 7-14v-22l1-22q3-11 3 14c0 21 1 24 6 19l5-6 2-4 3-5 7-12 9-15q9-10-2-10l-13 2q-11 3-12-2l-4-4zm377-1c-7 5-10 15-5 20l2 2 3-3q11-15 9-19-3-4-9 0m-283 2c-3 3-11 15-17 27l-6 13-2 11c0 9 0 10 2 12 4 4 5 4 18-10l21-20c14-13 14-13 14-15q0-3-18-12l-7-4q-4-4-5-2m426 8-9 2-11 2a334 334 0 0 0-60 20c-2 0-19 9-19 11q-1 4 4 15l2 5q0 3 9-1c24-11 50-21 70-25 19-5 18-5 24-14l3-6q3-5 1-9zm-480 12-6 10-7 13c-14 20-13 20 8 21 11 0 3 2-11 3h-13l-4 5q-10 13-7 16c3 1 22 2 30 0q12-3 11-1c0 3-28 8-40 8l-9-1-4 4q-5 3-5 9c0 4 1 5 13 5q24 0 36-4c3-1 7 0 4 1-4 3-26 7-43 8l-18 1-4 6-7 14c0 3 33 4 48 1q25-6 4 2c-11 4-18 5-34 5-23 0-23 0-26 3-5 5-8 12-6 13 2 3 32 5 41 3l19-1c0 4-17 6-42 7h-24l-3 3c-2 3-5 10-4 12a28 28 0 0 0 18 3h3l-4 2-13 2c-11 0-11 0-17 12q-9 22 3 9c6-5 6-5 10-2 3 2 5 1 28-15q17-11 30-15t20-11l11-7q12-8 17-18l11-12c9-8 9-9 6-13q-4-6 3-13l6-11-3-5c-3-4-3-5-3-13s0-9-3-14a64 64 0 0 1-12-37q-1-21-8-8m72 16c-38 38-42 44-35 52q4 4 1 15v3l33-20q22-15 19-9l-4 3-21 14-14 11q-18 12-16 17c0 3-7 15-9 16-7 2-18 18-13 18l13-5c10-5 12-6 28-9q28-8 31-5 3 2-11 5l-25 6-12 5c-5 1-18 8-24 12q-7 4-6 7c8 7 13 7 41 5 25-2 30-4 36-15q3-5 5-5 6 1 16-8 7-4 6-10l1-7q3-4-7-6c-9-3-8-4 2-15 9-10 10-12 7-14-3-3-3-3 1-10q6-13-4-22l-7-8-3-5v-25l-4-3c-6-6-8-5-25 12m-55-5c1 8 3 15 4 13q2-2-1-16 0-4-2-4zm93 4q-6 9 5 22c7 7 8 9 10 18q3 12 16 15l4 1 4 1c6 0 21 3 24 5q4 1 7 7c5 7 5 8 1 24q-7 29 5 42 11 13 18 5l9-6q7-3 9-9 2-9 8-11c10-5 16-2 28 13q15 19 27 23c15 5 37 5 43 2q5-4 4-14-2-7 5-10c7-3 11-2 22 4l11 5 7-1c16-2 29-8 29-13q0-4-10-7l-5-3-6-2-16-6q-30-14-32-9c0 6 12 20 24 28q12 7 0 3c-9-2-16-8-30-26-11-15-11-15-26-21l-13-5-11-4-10-3q-13-7 15 29c8 10 11 16 16 28 8 18 2 13-9-8l-3-5-4-6-11-15-14-18c-7-11-10-13-21-17q-11-6-14-3c0 1 5 13 8 17l2 4 3 5 18 28q6 10 4 10c-2 1-10-8-15-16l-8-14-19-30c-6-11-17-20-25-20q-5 0-3 4a171 171 0 0 1 16 67l-2 9-1-6-1-10c-5-26-6-30-12-46q-4-14-16-25l-13-7-6-3q-16-8-10 5c1 4 2 21 1 23q-4 1-4-6c0-6-3-18-6-25-3-6-4-7-11-12q-13-8-16-5m352 7-11 4a160 160 0 0 0-35 13l-21 9c-11 6-20 15-19 19 0 3 7 9 12 12q5 4 13-4l13-7 12-6 33-14c7-3 20-22 17-25q-5-3-14-1m-551 6-1 5-2 4q-6 6-3 13c1 4 1 4-1 12q-5 13-1 25l3 8c2 9 8 18 11 19q1 1 6-7l5-8q3-2-1-9-8-15-9-44 0-19-3-18zm565 9c-7 10-7 11-7 29l1 21c1 6 0 12-1 10l-3-16c-3-21-3-21-11-9q-7 12-4 17 3 3 4 22c2 19 14 21 14 2q1-11 3-1 1 7 6 6 16-2 12-15l-1-13-1-18-2-23q0-28-10-12m-36 23-27 13q-12 7-13 10c0 3 9 15 11 15l4-3 8-4a42 42 0 0 0 29-22l2-8c1-6-1-6-14-1M54 185l-23 15-29 14c-2 1-3 6-1 6l28-14 16-11c15-12 16-13 14-13zm272 8c-12 14-12 16-2 16q10 1 6 7-3 2-1 8 1 6-13 17l-11 8q-16 12-24 34-5 10 5 15c5 3 6 3 13-2l5-3q7-1 7-9-1-9 23-13l15-5q8-4 12-4 12 0 4-9l-15-22-2-11q-1-11-6-21l-2-6q-3-12-14 0m27 5 1 7 3 12c1 11 13 32 14 26l2-21 2-8c3-4 3-11-1-12l-7-2q-11-5-14-2m-288 7-5 6a164 164 0 0 1-54 39q-7 2-6 5c0 3 0 3 12-4l12-7 12-8c16-11 38-34 29-31m579 0q-6 9 1 13 7 8 6-3-2-15-7-10m-547 6c-7 7-7 12-2 25q6 18 13 6c5-5 5-6 0-19-6-16-7-17-11-12m520 3c-3 3-4 25 0 28q4 4 7-1l6-15q1-5-4-11-6-4-9-1m17 12-4 7-3 8-2 5-2 5q-10 19 7 4 7-8 10-7c3 1 10-3 12-7q2-4-9-13c-6-5-6-5-9-2M84 246q-4 5-3 8c1 5 6 13 8 14 5 1 10-9 8-15-2-4-7-12-9-12zm351 1q-3 2-3 6l-3 6q-5 7 13 6t13-6q-2-2-8-2h-5l2-2c7-6-2-13-9-8m220 3q-4 3-6 11l-2 5c-3 4-1 22 4 34 4 8 8 25 9 39 1 12 2 13 7 13q8-3 9 11c2 12 3 13 7 15q3 1 7 10 3 9 7 11l5 10q1 8 5 10l8 9q10 12 18 7l6-5 8-23q-3 0-4 3c0 2-11 14-13 14q-3 0 1-4c6-5 13-24 12-34q-1-9-8 2c-4 8-12 17-13 17q-3 1 3-8l4-7 2-4c5-8 7-20 4-27q-4-10-7 0c-3 10-12 24-17 28q-6 4 0-4c10-13 17-41 12-51q-3-9-6-1l-13 27-10 11q-3 3 3-7c11-17 15-25 16-41 0-11-4-19-8-16-1 1-6 11-7 16-3 7-13 23-15 22l4-9c9-18 12-27 12-37 0-5-4-11-6-10s-7 11-7 13c0 3-10 21-12 24q-6 6 1-7c9-17 12-38 7-45q-5-11-10 10c-2 9-11 27-11 22l3-11c6-16 6-22 5-30q-4-18-14-13M32 262 9 275l-8 6q-1 4 6 0c11-6 31-20 31-22q-1-1-6 3m39 1q-4 2-2 7l-1 8c-4 9-1 28 4 27 2-1 13-22 13-26s-8-19-10-19zm557 4q-5 4 1 6 11 3 6-5-3-5-7-1m-447 3-4 2-3 2-11 5q-15 4-29 13l-12 9c-9 5-26 19-26 20q-2 4 9 4 13 0 14-4l8-11 1-2 8-8q4-2-2 7-8 10-5 14 3 6 12-6c13-14 32-31 35-31q5-1-11 14c-19 17-21 21-11 22 7 0 9-1 18-10a120 120 0 0 1 27-22q5-5 6-2l-15 13c-8 6-16 15-16 17l7 1c12 0 14 0 23-9q11-12 13-11l-4 5q-7 8-6 10c1 2 11-1 14-4l9-5q11-4 4-12c-6-8-8-10-17-15-16-7-31-10-36-6m387 0q-1 2 3 6l4 7q1 2-5-2-3-3-6-1l-7 2q-8 2 8 10l12 6c9 8 35 14 58 14l10 1v-4l-2-7-3-7c-1-14-2-16-12-18q-15-3 3 13 18 19-1 2l-10-7-4-2-3 3-6 3q-5-1 1 9t0 4c-11-14-33-33-38-33zm-207 1-9 3q-6 3-13 4c-13 3-14 4-14 11v5l-10 4c-11 5-12 7-11 13q1 4-2 8c-3 5-2 7 4 15q6 6 7 10c2 3 4 5 16 11 10 5 10 5 19 1 11-5 12-6 6-12q-11-8-26-14l-7-3c-1-4 27 7 38 14q11 8 20 2 8-4 2-9c-6-5-29-17-37-19q-10-3-5-4l18 5 28 14c8 5 10 5 19 0q12-5 10-7c0-4-25-20-38-24l-11-4-5-2h4q15 0 35 12l22 13 4 2 6-3q12-5 7-9l-25-19-7-3-12-5q-7-2-5-5c1-5-13-8-28-5m227 1q-2 3 9 12 6 5 6 2c2-3 1-12-1-13-2-2-13-3-14-1m-328 1c-10 0-21 2-22 3-1 2 1 14 3 15q1 4 7-2 9-7 18-5 6 3 8-6c2-6 2-6-14-5m149 2c-6 4-6 5 8 12l23 14q8 6 12 5c4-1 11-7 11-9q-1-4-12-10l-4-3q0-3 15 5c11 5 15 5 21-1q6-3-8-10l-8-5h-48q-7-2-10 2m86 14-10 6c-9 5-9 6-10 11q-5 31-9 35-6 8 0-13 7-26-8-18-6 2-6 15l-5 20c-2 7-10 24-12 24v-4l2-5 4-13c6-15 6-28 1-28-6 0-14 7-14 12l-1 6-3 11c-3 17-12 37-18 42q-4 5 0-5l10-21c3-9 5-26 4-33 0-2-18 5-21 8l-2 7c-2 17-14 46-28 62-5 7-3-1 3-10 12-17 22-46 19-52q0-4-11 2l-7 4-3 7c-6 17-18 40-26 48q-12 11-5 0l12-18q5-6 9-19 7-19-11-9c-8 2-10 5-15 14l-13 22c-7 10-7 9-4 13l5 8 3 6c2 1 14 4 25 5l15 2q15 1 33-12c9-8 66-65 72-73l28-43q8-13 3-15-2-2-6 1M39 299c0 1 3 6 5 7q4 0 1-6-3-5-6-1m471 2q-3 3-14 23l-8 12q-4 6 2 3l9-3 6-3c2-2 6-18 7-26q1-9-2-6m105 20 3 3 24 16q12 11 9-3 1-12-3-14c-3-2-33-4-33-2m-432 1q-6 3-2 6c2 3 13 8 18 9q6 1 2 2c-7 0-20-5-28-10-6-3-7-3-12-3s-12 2-12 4l17 11q15 7 2 4-12-4-25-12l-9-4q-6 1-7 3c0 2 8 10 14 13l8 4c7 5 37 6 50 2l8-2q6-1 7-7c1-11-1-14-9-17l-5-2q-6-3-17-1m-72 11c0 2 4 8 6 9l7 7c8 9 10 10 19 10q14 0 8-5l-4-2c-3 0-16-7-21-11q-14-12-15-8m207 21c-2 0-1 13 1 14s9-3 10-5c1-3-8-10-11-9m4 18q-20 8-22 20c-1 9 11 16 14 9l5-9 10-16q3-7-7-4m427 4c-4 4 5 18 11 18q4-1 3-8c-1-5-12-13-14-10m-583 32q-6 4 1 10 2 3 4 0 6-6 1-9-3-3-6-1m162 28q-4 12 5 19c10 6 25 18 29 23q8 6 8 2l2-5 2-10q0-10 6-18 8-9-8-7h-13l-15-3-12-2zm-38 32c-2 1 0 9 2 9q4-1 4-6-2-5-6-3m454 12q1 3 7 8l16 21 2 2v-3c0-4-1-5-6-11l-8-9q-10-12-11-8m-402 12q-4 8-6 0-4-6-4 1v19h4q4 1 4-4l4-12c5-9 5-9 3-9zm-37 5c0 7 4 15 7 15h2l-3-4-2-6-2-5-2-3zm67 5q3 10 6 7c1-1-3-9-5-10q-3-1-1 3"
        mask="url(#16282281824-posters-1720553745649-vertical-mask)" itemprop="medium" fill-opacity="0.90"
        fill-rule="evenodd" stroke="none" fill="url(#16282281824-posters-1720553745649-vertical-medium)"></path>
      <!---->
      <path id="16282281824-posters-1720553745649-bold"
        d="M0 1q1 3 10 6l7 2a89 89 0 0 0 30 7C36 14 9 3 7 1c0-2-7-1-7 0m112 0-7 3q-5 2-6 8-1 4-9 7l-4 1-5 1-5 2-8 2-22 11q-4 4-10 3-6 0-13 5-7 8-14 8-10-1-9 8l1 6 1-1 4-1 9-2c0-4 15-14 18-12q5 3 10-3 10-9 14-5t10-2l12-7q19-10 12 3l3-2q6-6 7-2c1 1 1 20-1 27q-1 3 2 5 5 5 2 17c-4 13-4 16 0 19q4 2 3 6l-4 13q-3 6 0 10c2 5 0 19-3 19l-1 2-3 9c-5 8-5 9-2 12s3 5-2 14c-6 12-8 16-6 20l1 3c0 2-6 13-9 16l-7 10-5 8q-2 1 1 6 4 3-9 16l-6 6v5q1 8-6 9l-6 4-5 3c-2 0-14 9-18 13q-6 6-14 7-3 0-3 2c0 4 1 4 20 3 17-1 23 0 34 5q11 6 9 0 0-6 5-3l5 3 3 1 5 3 4 3 16 10a59 59 0 0 1 22 20l9 11 9 10c6 7 12 21 9 25q-5 6-13-11a79 79 0 0 0-29-28l-12-7-24-14a96 96 0 0 0-25-12l-5-2-2-1-2-1-5-2-6-1q-2 0-1 1l18 7 11 5 10 5 12 8 9 5 10 7 9 5 1 1 5 3 3 3c3 0 20 23 22 28q2 6-6 8c-7 1-9 1-19-9l-15-12-9-8-11-8-10-6-2-1a184 184 0 0 0-36-18c-11-5-28-9-28-7l3 2 3 1 3 1 26 10a196 196 0 0 1 35 19l13 9 6 5c2 0 15 13 19 19q8 10-6 12c-12 3-16 2-21-1l-19-11-42-20-5-2v-4l1-4-4-1q-5-1-4 2 1 4-4 3-7 0-1 3l12 5 43 20q26 15 7 21l-6 2q-7 3-16-2L8 415q-7-3-8 0l3 3 9 3 13 6q19 9 10 14-17 9-26 6l-6-2-3-1v25l2-2 7-8 5-6 6-2 6-2 3-1 4-1q7 1-2 12l-10 15-19 25-2 4c1 3 19-19 27-31l8-11 5-6c0-2 8-13 11-14 2-2 10-5 16-6q11-3-3 19l-7 12-27 43q-3 4 0 3 4-1 5-5l1-1 12-19 8-12 1-1 3-6 13-19 5-7q7-12 16-13c17-5 19-3 10 16l-5 12-12 25-4 11-1 2-4 9q-6 9-3 8l2-1 1-3 13-25 3-6 8-18 9-20c3-8 10-17 17-19q13-6 10 8l-2 12c-3 19-4 22-9 33l-2 8-3 8-4 7-6 14q-2 3 1 2l3-3 6-14 6-14 3-10 5-14 4-16 2-8 2-7c0-4 4-11 7-11 2 0 8 5 10 8q3 6-4 13a52 52 0 0 0-11 20c-3 3-2 32 0 40l3 8v7q-2 1 2 1t6-3q9-7 11 0-1 4 3 3c6 0 6-9 1-14-2-2-9-2-10 0-6 6-13-6-12-20 0-22 3-30 18-46 12-12 14-15 13-21q-2-8-10-11-6-1-8-4l-7-8q-11-13 10-24c7-4 24-4 33-2 7 2 20-5 21-11v-13l2-17a22 22 0 0 1 16-14l10-8q11-11 17-8 6 2-1 15-7 15-30 19l-4 1h14q16-5 11 4l-3 10c-2 10-4 12-14 20a106 106 0 0 1-29 15c-4 2-20 7-27 8q-7 0-3 1c7 2 36-6 51-14q14-9 12-1c0 6-6 17-12 20l-8 7-12 9-20 16-5 4-5 7 6-3 7-6 29-21q11-6 10-1c0 8-6 20-11 25l-17 15a247 247 0 0 1-37 31q-3 3 1 1l4-2 6-4c8-5 13-9 24-19 12-11 15-13 17-13q4 3 1 7l-2 8-5 14-1 5-2 5q0 8-11 17l-16 16q-6 9 5 0 11-10 12-7v3l-3 6-2 3h22l-1-4-4-20c-1-4 4-26 7-30l2-5 1-5 1-3 1-5 3-6q5-10 10 6l5 16 3 11 2 5 1 7 1 5 1 12q0 16 3 10l-2-32-3-11-6-20-1-5-2-6q-7-12-5-21 5-25 15-3l3 7 4 18 2 7 1 4 2 6 1 7 2 7 2 4v-4l-5-24-5-25c-4-12-5-15-9-21q-7-10-2-19 4-10 8-7a74 74 0 0 1 16 22 139 139 0 0 1 14 46l-1-18-1-8-4-13a143 143 0 0 0-17-31l-1-1c-1-1-6-11-6-14s8-24 10-26q3-5 10 7a89 89 0 0 1 14 28l1 4 4 8a94 94 0 0 0-19-49c-7-8-5-21 2-22 4 0 16 11 16 16l1 5q4 12 8 16c12 11 13 26 2 37s-12 26-3 31l3 2 1 1c6 0 13 10 11 14v9q4 16-1 19c-5 4-15 7-20 6q-14-3-11 13c1 6 0 35-2 40q-1 3 3 2c3 0 4-1 5-11q0-8 5-11l9-14q8-16 12-15c2 1 2 4 4 32 1 17 2 19 3 19 2 0 3-12 1-17-1-3-2-33-1-35q2-6 17 7l8 6c3 0 16 16 16 19l5 19 11 1h11v-3l-3-8-3-6-2-5c-1-4-1-15 1-17l2-8c1-9 8-23 15-28q6-3 5-9l2-5 5-5 15-14 43-44c0-2 7-8 13-11l10-6q13-6 10 5-1 7-11 10-15 4-13 5l7-1q18-8 9 10c-5 12-7 14-20 16l-6 1-2 1-15 6-2 1-6 4q-15 9-11 11l2-1 4-3 5-3c1-2 12-7 21-10 22-7 24-6 19 8q-6 21-15 19l-27 9c-8 2-31 19-30 21l10-6 28-14 5-1 5-2 3-1c0-2 9-1 10 0l-2 7-3 9q-2 14-11 15c-3 0-28 13-35 19q-14 10-2 3a135 135 0 0 1 33-16h7c1 4 0 11-2 13l-1 5-2 6c-1 4-1 4-22 14l-14 7-2 2h2l3-1 8-4 4-1q14-8 14 2 0 5 2 4l4-1q4-3 7 0 3 2 4 0l-3-5q-6-9 1-26c3-8 3-8 5-8 3 1 9 12 13 24q5 17 7 16l1-2-8-25-8-18c-4-8-4-11 1-22q5-17 11-11a174 174 0 0 1 27 55l1 5 1 2 3 10v-1l-1-7a123 123 0 0 0-9-35l-3-7-5-8-12-19c-5-5-5-7-1-17q5-16 8-15c5 0 15 14 25 33l4 11 1 2 2 5 1 6 1 4 3 8 1 1-6-26-7-17c0-2-10-18-16-27-8-10-8-11-3-21 4-10 6-9 15 5 7 9 9 13 13 24 4 9 8 17 8 14a74 74 0 0 0-11-27c0-2-9-16-14-23q-7-11-1-23 4-8 8-1 5 5 10 17l3 4q4 0 1-4l-3-6-5-8-2-4-4-5-4-5 1-6 5-18 2-9 1-7h2l4 14 4 28 2 13c2 7 4 27 5 43l4 45c3 17 1 67-3 74q-2 1 4 1 6 1 5-2 1-6 5-8l5 4 5 3 1 2 9 1q13 1 0-7c-9-6-11-8-16-16l-5-7v-21l-2-22-2-16-5-52-3-27-1-9-1-4-1-4-1-9c-2-6-3-23-1-24q3-3 16 20c14 23 14 22 9 32q-4 7-5 20l-1 6v1l3-8c1-7 6-17 8-18q3-3 8 8 6 11 1 21l-6 16-5 15c-2 6-5 28-4 31 1 4 3-1 3-6l1-10c2-14 3-16 8-27l5-10q3-14 12 5 7 15 3 20l-1 3-1 4-2 7-2 5c-3 4-11 49-8 49 1 0 2-2 5-27 1-10 9-31 13-34q2-4 9 11c7 14 7 15 3 31-4 12-6 25-5 29v5l1-5q2-15 5-21 5-22 12-3l5 9c2 5 3 9 2 21-1 11-1 12-3 15l-3 3h7c8 0 8 0 9-3q2-6 7 0 7 8 2-3-7-10-3-14 1-5 7 2l6 4-9-9-2-2q0-4-4-3-7-1-11-9l-5-11c-3-6-4-13-2-13 7 0 27 11 35 19q11 10 6 2c-4-6-38-27-44-27q-4-1-9-12l-5-11c-3-6 5-9 13-5l6 3 11 5 7 4 4 3 3 3 9 7q15 13 4 2c-15-14-47-34-54-34l-2-1-3-1q-5 1-11-15c-8-18-2-18 27-3 12 6 15 7 29 18l19 12-26-20a182 182 0 0 0-40-22l-10-5q-8 0-12-13l-5-10q-1-4 2-6c2-1 14 2 17 4l46 27 6 3-23-16-15-10a152 152 0 0 0-34-14q-6-2-7-5l-13-24q-9-13-5-14a123 123 0 0 1 31 17l3 2 8 5 7 4 9 5 7 4 5 3 9 5 11 9 6 6c3 0 23 23 26 28q3 7 4 6 6 0 6 8c0 7 4 15 7 15l3 9q3 24 1 29-3 7-5 22c-1 9-2 11-9 16q-8 3-9 11-1 9-5 11t4 2h7l1-4 1-7q1-5 9-10 9-2 8-16 1-15 5-22l3-12q1-15 9-4l9 10q9 9 0 14-8 2-7 14 1 7-3 10c-3 3-4 5-4 14l-2 9-1 4h5q6 1 5-3 0-5 5-6 6 1 5-11c-1-9-1-10 3-12q2 0 5-19 1-9 5-9 5 1 8-14l4-14q2-6 9-8c3-1 4-1 7-8l1-5 2-4c2-3 2-18 0-17l-7-4c-9-9-10-10-12-10q-6-1-10-13-6-16 12-4l8 4a23 23 0 0 0-10-9l-8-5c-8-4-9-5-11-8l-4-8q-3-10 13-3l5 1 5 2q4 3 2 0-8-6-23-11-13-4-13-14-1-7 9-5l7 1 3 1 5 2a96 96 0 0 1 29 14c2 0-11-10-17-12l-6-3-6-2-10-3-14-2c-8-1-9-2-14-8l-3-4 2-2c3-2 18-3 25-1l12 3 15 5q17 8 0-3c-7-3-12-5-24-7l-7-2-14-1c-12-1-14-1-17-4q-7-6-4-10c4-3 32-1 45 3q8 2 2-2-12-6-29-5l-9-1-11-2q-18-1-11-9c6-8 15-9 37-7l15 1q4 1 5 6-1 2 13 9l5 5c2 5 9 11 11 11q5 2 6 9c0 4 4 12 4 8q1-15-3-20l-2-3-2-6q-4-6 3-12 4-5 4-9v-4l-2 3q-11 15-17 13-6 0-6-6l-2-4-10-4q-4-1-6-9-1-8-2-1 1 7-11 7c-18 0-18 0-19-29 0-21-2-53-4-66-1-7-1-8 6-17q7-11 10-5a559 559 0 0 1 14 79q2 20 4 21c1 0-1-23-3-32l-1-12-1-5-4-26-1-12-2-17V93l4-6c10-13 11-13 16 0l3 9 6 18 6 22q8 23 9 33 0 10 2 8c1 0 1-7-1-12l-3-14-5-18-11-41-6-25c0-6 9-15 13-12a159 159 0 0 1 23 39q1 3 1-2c0-5 0-5-13-32-8-15-8-19-4-20l12 3q6 4 5-6v-6l-6-2-7-3-3-1q-5 0-7-4c-3-5-5-15-3-19q2-2-7-2-8 0-6 1l1 5 2 4q5 7-7 5l-10-2-11-2-12-1-9-1h-16c-16 3-33 5-36 4q-3 0 0-10 1-4-4-3-6-1-6 3l-1 5-2 8q-3 27-26 32-13 2-11-8V0c-3 0-3 2-3 25 0 30-1 35-8 32a65 65 0 0 1-22-27l-1-5c-2-3-3-15-1-20q2-5-4-5-4-1-5 3-1 5-11 5-4 0-9 4c-10 8-19 3-19-9q1-4-4-3h-5l1 5c2 13 3 15 8 17 6 3 17 3 21-1 8-8 19-5 19 5 0 3 6 16 11 22 9 11 7 15-12 30l-20 18c-4 8-13-1-10-10a182 182 0 0 1 21-42l2-3q-8 6-12 15l-4 6-4 7c-4 7-5 8-13 6l-17-3c-1-1-2-8-1-13V1c-1-2-2 0-2 16q-3 50-8 56-6 7-13-2c-8-10-7-8-8-41V0h-5v20c1 22 0 24-4 23l-8-11-6-8-6-10q-6-13-11-14-3 0-1 4l2 4 4 7 8 11 6 10 5 9 5 7q2 4-1 6a21 21 0 0 1-13-2l-8-3-8-3-37-18-15-11-4-2-2-1-10-8a85 85 0 0 0 23 21l8 5 9 5 36 18c5 2 14 5 18 5l3 1 4 1q9 3 12 12c1 3-6 12-10 13-3 2-22-5-33-11l-8-4-22-11q-14-8-13-6l6 4q12 8 11 12l-5 2-9 4c-5 3-5 3-10-2l-13-9c-14-10-31-28-34-35l-3-7c-2-5-2-18 1-21l1-4q2-4-3-3-5 0-6 2-4 5-5 0 1-2-8-2-11 0-8 2 1 4 6 5c5 1 6 3 8 18q1 11 6 10 4-1 7 9l2 14c0 13 0 13 4 15s5 3 4 19c-1 12-1 14-3 15-4 4-15 1-15-4q0-2-2-1-4 1-15-8l-16-12q-4-3 4-10 7-6-2-1l-24 27q-9 11-10 8-2-4 1-18l2-12a32 32 0 0 1 6-15l3-6 4-7 10-14 3-3 1-2-10 10-9 9c-2 0 0-10 2-17l7-22 2-5q0-9-3 2l-5 12-3 10q0 5-3 10l-2 7-3 5q-5 7-10-13-5-19-5-12l5 21 2 11v8h-5q-6-1-9 3-4 6-10-1t-1 3q6 9-11 10l-9 1-3-3q-4-5-12-1l-7 1q-2-2-5 3l-5 3-6 2q-11 4-7-11l2-8c0-4 1-5 8-11 4-4 15-6 21-5 3 1 5-2 7-17 2-12 3-13 13-13h8l3-6 4-6q6-1 8-6l2-3h-7q-9 0-8 2-2 4-7 4l-6 2-6 2-4 1-6 21q0 6-6 6l-6 3q-5 4-5 1-4-2-9 1l-3 2q-4 0-6 13-3 24-8 24l-2 1-11 7-3-2-3-3 1-8q3-16-1-21c-4-5-3-31 0-37l3-7c1-2 12-9 16-9l2-2q4-1-9-1zm441 7 1 11 1 2v-2l1-14q2-5-1-5-2-1-2 8m49-5 2 13q2 13 2 4c0-9-1-20-3-20zm62 13-15 2q-24 2-22 8l-3 7q-9 12 0 11 7 1-1 2l-20 8-5 1-2 1-4 1q-6 0-10 8-4 9-10 5-5-1-6 2l2 3q5 2 0 7l-12 14c-6 7-6 7-6 15-1 9-1 9 7 10l11 4 9 3c2 1 10-1 14-4l5-2 3-2 1-1 12-5a68 68 0 0 1 23-8l46-12c26-5 27-6 35-18q12-13-10-13a229 229 0 0 0-60 3c-11 2-28 7-37 11l-4 1-2 1-4 1-23 12q-14 9-1-2l27-14 13-5q5-3 10-3l5-2c6-3 42-7 70-7q27 0 27-2c3-2 7-10 7-12-3-6-38-13-49-9l-11 2-31 5h-12l7-2 7-1 5-1 11-1c20-5 28-6 43-6 7-1 9 0 23 4q12 3 14 1 3-4-1-7l-6-4-5-3-1-1-19-5q-33-5-45-1M78 53l-5 6q-15 23-17 9-1-4-2-1l-1 11v10l-6 8c-7 10-8 11-11 9-1-1-2-14 0-17l1-17-1 4-2 9-1 20c0 18 0 16-9 32-8 13-9 13-11-3-1-13 1-38 3-41v-5l-3 9c-3 14-3 19-3 41l-1 25-3 5-4 7c-2 2-3 21-1 21l36-20q5-4-5 1a62 62 0 0 1-21 10c-1 2-9 2-9 1v-4l2-4 10-18 18-10 20-11 7-6 16-15-5 3-10 8c-8 7-30 18-34 18q-5-1-1-7l8-14 3-3q1-4 8-7l12-7 9-6 14-13-4 2c-6 6-26 17-30 17q-6 1 4-12l6-9 8-5 13-9 4-3 5-3q2-1 1-4l-1 1c-1 2-14 10-16 10q-6-1-1-7c7-8 15-22 10-16m248 23q0 11 6 11l3 2c3 2 3 3 9 0q13-4-2-12l-8-5q-8-8-8 4m-98-2-1 4-5 11v9l2 4 1 3 1 2 1 1q2 0 3-8l2-13c2-9-1-17-4-13m248 7c-14 3-19 5-24 13q-16 27-42-3-7-8-13-8a44 44 0 0 0-21 3l-9 6-7 5-9 1c-12 1-25 6-25 10l-2 3q-7 5 2 11c11 7 11 7 28-3l19-8 8-2 28-4-3 1-5 2-6 2a87 87 0 0 0-30 10l-11 5-2 1q-2 0-3 3-2 6 4 7l2 1 20 9c1 2 12 2 13 0l1-1 12-6 9-4 10-5 7-3 4-1c2-2 31-8 40-8q6 1-5 2c-4 0-14 2-18 5l-5 1c-3 0-5 1-26 11q-19 9-20 16-1 2 7 5c10 6 11 6 23 1l27-10c6-2 33-6 49-7q18 0-5 3c-43 7-70 15-69 22 1 5 23 12 28 8l8-3 8-3 7-2 6-1 6-1 9-2a127 127 0 0 1 54 0h-16l-35 4c-18 3-33 7-37 11q-4 3-2 5l4 2 2 1 4 2 7 2 11 5 21 9 5 1 3 1q1 2 13-1c8-2 30-1 35 1 2 2 2 2-8 1q-16 0-21 3-4 3 16 11l13 5 6 2 17 7q12 6 14-4v-9l-2-5c0-6-6-15-12-17a103 103 0 0 1-24-19v-5l1-4 3-5q8-8 8-12c0-4-5-16-8-17l-5-5-4-2a133 133 0 0 0-43-7h-15l-3-3q-3-7-1-12 3-3 1-9l-2-7q0-8-5-10c-3-2-14-3-20-2m-305 4-10 4-9 4q-16 9-18 2t-10-1q-8 4-10 13-1 6 3 7 5 1 4 6l1 6 1 18 3 34c1 9 7 20 10 20q2 0 6-5l4-5c2-1 2-9 1-15-5-17-6-43-3-54q3-12 2 0c-1 12-1 30 1 37l3 10q2 12 10 1 11-11 9-21c-1-11 0-42 2-40v17c0 15 0 17 2 19l2 3 5-6 5-7 4-6 4-6 10-18c2-1 6-10 6-12-1-2-15-2-20 1q-7 3-12-3-5-5-6-3m365 5q-6 6-4 14 2 10 8 3 18-23 4-21-4 0-8 4m-286 7-17 31-2 12c-1 9-1 10 1 13 4 5 6 4 18-8l32-31c8-7 6-9-13-18l-7-5q-4-7-12 6m429 1-24 5-6 2-3 1-12 4-16 5-10 4-5 2-16 8q-7 3-5 7l1 5 2 4 2 5 3 6 26-11 7-3 44-15 5-1 3-1 6-2 5-1c1 0 12-18 12-21 0-4-9-5-19-3m-477 11-6 10-8 14c-9 13-10 16-10 17q2 4 11 4c9 0 3 2-7 3q-13 0-13 4l-2 3q-8 10-6 14c2 2 24 2 33 1h3l-7 2-10 2-16 1c-11 0-12 0-13 3l-4 2-1 2-1 4v7a182 182 0 0 0 53-4l-7 3-4 1c-3 2-21 4-35 5-14 0-17 1-17 4l-2 2c-6 7-9 16-5 17a196 196 0 0 0 56-3l-2 2-4 1c-9 4-12 4-33 5-26 0-26 0-31 8q-6 10 0 11a138 138 0 0 0 51 1c13-2 0 2-18 5h-23c-21 0-20 0-23 6l-5 5 1 1 1 2q-1 5 12 5l9 1-4 1-14 2q-9 0-10 3l-9 18c-2 0-1 5 0 6l4-2 3-2 1-2q2-5 9-1c3 1 3 1 10-3l8-6 8-5 16-10 10-4 8-4 4-1q5 0 12-7c4-4 14-10 15-10l15-15q0-2 12-13c8-9 8-10 6-14q-4-5 1-12 12-11 4-19-5-5-2-11 2-6-4-15-10-15-12-35 0-24-8-10m71 17-29 31c-10 12-11 15-6 20q4 6 2 16-2 8 12-3l4-2 3-2 20-13 7-5h4l-3 2-8 5-5 3-8 6-11 8-3 3-11 8-4 7c0 4-8 17-10 17s-10 8-12 12q-7 12 8 5c17-8 20-9 41-14 22-4 31-4 11 1l-32 9-4 2-2 1-25 12-3 6c0 5 22 12 26 8l15-1 17-2 5-1q9-2 14-11a11 11 0 0 1 10-7c3-1 16-10 17-12v-6l1-6q6-5-7-8-6-1-6-4l9-10c9-10 10-12 7-14q-5-3 1-10 6-12-7-26l-7-10c-2-5-2-6 0-19 0-4 0-4-4-8-7-7-8-7-27 12m-54-12v10l2 6q3 13 3-3 0-18-5-13m92 12q-5 10 7 23 8 7 8 14-2 17 40 22 9 0 14 7 8 9 5 14l-2 8-1 6q-2 1-2 15c-2 18 14 38 25 32l3-3 5-3q11-5 11-12 3-10 17-11c5 0 7 1 17 14a93 93 0 0 0 22 20c4 5 29 9 43 8 9-1 10-3 11-12l1-10c1-5 14-7 22-3 10 6 13 7 18 7a72 72 0 0 0 26-6c2 0 8-7 7-9q-4-6-21-12l-13-5-9-3-11-5-13-3c-9-1 7 21 22 30q6 4 2 3-13-1-29-23l-8-10c0-4-10-10-22-15q-6-1-10-4l-11-4c-22-8-22-4 0 24l14 20 3 7 4 8v5l-1-1-4-8-8-14-4-5c-2-5-12-18-16-22l-8-11c-6-8-13-16-16-16l-5-2q-23-13-13 6l7 12c1 3 4 9 17 28l8 13c0 5-13-11-26-32l-7-12-8-14q-7-13-18-18-16-8-10 7l4 10q3 5 5 19l3 11v17l-2-13a182 182 0 0 0-13-42l-3-5c0-2-11-14-14-16l-7-4-16-6c-5-3-7 3-3 10 1 5 2 20 0 20l-3-11q-4-25-12-28l-5-4q-13-9-17-3m351 7-9 2-23 8-8 3-18 8-8 4-5 3-10 8q-7 7 0 14c10 9 14 10 21 4a293 293 0 0 1 48-24l2-1 12-5q5-1 11-13 11-20-13-11m-549 5-1 4-1 4c-4 1-7 11-5 14q2 3-1 12c-5 12-1 33 9 49q5 9 12-4c6-9 6-11 3-17l-3-10-3-10-2-20c0-19-1-23-5-23zm569 3c-2 2-8 10-10 15-2 4-3 37-1 38l1 9q0 8-2-3c-3-30-5-32-14-19q-7 12-3 20l4 22q1 13 7 13 7 0 7-10l1-6q1-1 1 1 0 8 8 7l9-3 3-2v-9l-2-20-1-21-2-19q-1-18-6-13m-35 27-4 1-37 19q-10 5-3 10l5 7q4 7 9 1 3-4 7-4c8 0 25-10 28-17l3-6c1-2 3-10 2-12 0-1-7-1-10 1m-318 21-7 8q-13 13 2 13 9 0 5 6-3 7-1 9c3 1-6 12-18 20l-4 3-1 1a65 65 0 0 0-26 36q-3 5 2 9 10 12 17 4l3-2 1-1 2-1q8-3 7-9c-1-5 8-12 15-12l2-1 1-1a44 44 0 0 0 21-5q9-4 13-4 7 0 6-4l-5-7-7-10q-9-12-9-23 0-9-5-19l-2-5c0-7-8-10-12-5m-288 6L6 213q-6 3-6 5-1 3 4 0l10-5 6-3q13-6 19-12 18-14 2-3m323-2c-2 2 5 6 8 6q2-1-1-6zm-11 5v4l3 13a38 38 0 0 0 7 22l2 2 1 1 2 3q6 6 5-13c1-11 1-13 3-16 4-5 2-13-4-13l-4-1q-13-6-15-2m281 4q-3 3-1 7c3 2 9-4 7-7zm9 4q-5 7 2 13 8 8 6-6-2-16-8-7m-546 4q-11 10-2 28 6 16 14 4l4-5-2-6c-8-25-9-27-14-21m519 4-1 7-1 10c-1 5 2 14 6 14q4-1 5-5l1-2 2-4 1-3q1 1-3 10l-2 5-3 8q-7 16 6 4 10-10 13-9c3 2 13-6 13-10 0-3-12-15-15-15q-4 0-6 4-1 1-1-3 1-7-5-10-6-5-10-1M87 241c-3 2-7 10-7 14 1 4 7 13 9 14 4 1 9-7 9-13 0-5-8-17-11-15m-68 3-3 2-15 7a1 1 0 1 0 1 2l19-11zm416 2c-4 4-8 17-6 18 2 2 24 2 26 0q4-7-8-7-5 0-4-1 8-3 2-9t-10-1m218 5q-4 2-9 24l1 7 6 20c2 3 6 21 9 37 1 13 2 15 7 14q8-2 8 9 0 12 7 17 6 2 8 12 2 7 5 8 5 4 6 11c0 3 3 9 5 9l7 7c0 2 9 10 13 10q10 2 14-9l5-12q5-16-3-4c-4 6-11 13-12 12l2-2c8-9 15-36 11-40q-2-4-8 7c-4 7-12 16-13 16l4-7 5-9c2-2 5-11 6-18q0-15-6-17-3 2-4 6c0 3-6 15-11 22q-8 10-6 4l4-5 2-3 3-6c8-18 9-41 2-44q-2-3-7 9c-4 12-18 33-20 33l2-4 3-4 2-4c4-5 9-15 10-22 4-14 1-32-4-31-2 0-8 10-10 17-1 4-6 12-9 16q-6 7-1-2l4-6 3-8c4-9 4-10 5-18q1-13-3-16-5-5-11 13c-2 7-10 23-12 23l2-6c7-13 12-33 10-42l-6-8c-3 0-7 9-7 14l-2 6-8 16 6-18c2-6 2-20 0-27q-4-13-15-7M70 262q-4 4-2 7v7c-3 4-3 20 0 25q4 10 10-4l5-9q5-6-1-19c-6-12-6-12-12-7m558 4-2 4q1 5 10 4 3-2-1-8-4-3-7 0m-605 2-9 5c-12 7-13 7-13 9h3l4-3 14-8 3-2 2-1-1-1zm158 1-18 9a63 63 0 0 0-23 10l-11 7-15 10-16 12-1 2-1 1-1 2c0 6 22 6 24 0 1-3 12-18 16-20q6-3 1 1-10 12-8 18 3 8 18-9l8-10 7-6 14-11q1 1-12 13c-15 15-17 18-14 21q5 4 12 1 4-1 13-11a107 107 0 0 1 26-21l4-2-10 9q-37 28-5 23c7-2 7-2 16-10l9-9-3 4q-6 6-5 10c2 2 14-2 17-5 1-2 9-6 11-6q3-1 4-5c0-2-9-14-12-16q-11-7-32-13-9-2-13 1m181 1-8 2q-12 6-17 6l-8 2q-5 2-5 8c-1 6 0 5-12 11-8 4-8 4-9 12l-1 8q-6 4 4 16l7 10c2 6 29 17 31 13l4-2 3-1 1-1 5-2 3-3-3-3-19-12-13-5-3-1q2-2 9 1l8 3 17 7c12 9 15 10 24 4q9-6-5-14l-32-15q-8-2-3-3l3 1 3 1 5 1 5 2 27 14 4 2c6 4 7 4 17-1q12-5 10-8-1-6-18-15l-5-3c-2-2-12-6-20-9l-7-2h7l6 2q3-1 13 5l11 7 11 6 13 6c5 0 15-7 15-10a28 28 0 0 0-11-10l-19-13-7-3-9-3q-6-2-4-5 1-6-16-7zm206 0v4l7 9-4-2q-4-4-7-2l-5 2q-5 1-5 5l7 4 10 6c7 4 19 10 28 12 9 3 35 6 43 5l4-1-1-4-1-6-3-11q-4-13-9-14l-7-1h-4c-2 3-1 4 7 12l8 9-8-7-11-7-5 3-6 3q-4 0 0 6l1 2c-1 1-8-6-10-9-6-8-27-21-29-18m20 1c-3 2 9 17 14 17 4 0 4-13 0-16-2-1-13-3-14-1m-337 2c-14 1-14 1-13 9l2 9q3 4 5 1c0-3 11-7 18-7h9l2-5c4-9 4-9-23-7m158 1-1 1q-3 1-4 4 0 2 14 9l17 10 5 4c8 6 10 7 19 1q11-6-4-14l-6-5s6 1 7 3l3 1 6 3q9 6 18-2 6-5-6-11l-6-3-4-3h-28c-22 0-28 1-30 2m87 14-7 4-5 3q-8 4-10 9l-1 8-1 8-1 7-3 9q-4 8-4 4l1-7c4-11 4-25 1-26-5-2-14 5-14 11a126 126 0 0 1-10 39l-3 6-4 6 1-5 2-5 1-4c7-15 10-30 6-35q-1-5-9 1c-7 3-8 5-10 15-3 22-14 50-20 53q-3 2 2-5l3-8c6-12 11-34 10-39-1-8-2-9-13-3-10 4-11 5-11 10 0 14-16 49-28 63l-3 4 3-6 3-6 7-12 3-3 2-5 1-4c3-7 8-23 8-27q-1-4-6-4-16 5-17 14l-19 39c-2 4-12 15-14 15v-2l6-8 6-8a79 79 0 0 0 12-26v-11l-9 2q-14 4-18 15l-15 24c-4 3-5 10-3 12l5 8c4 8 8 10 29 12l11 1q15 3 32-8c16-10 78-74 87-89l11-20 12-20q3-10-7-6m-457 9q-3 2 2 7 5 6 6-1-2-9-8-6m467 9-19 30q-2 3 0 5l5-2 8-2q6-2 8-8l1-4 4-20q0-11-7 1m109 14q1 4 3 5l8 5 7 4 4 3q11 10 15 9c2-2 1-19-3-24l-14-1-16-2zm-428 1q-7 2-9 5c0 2 12 9 20 11l4 1-6-1c-6 0-22-6-26-10q-3-4-14-1-16 3 7 14 9 4 4 4l-9-4-6-2-7-5c-7-5-16-6-18-2-2 2 6 11 9 11l2 2 3 1 2 1 3 2 2 1c0 5 44 7 49 3l6-1q15-2 12-16c-1-6 0-5-10-11-9-4-10-4-18-3m-77 12c0 2 5 9 7 9l6 7 8 8c3 2 17 3 20 2 4-2 2-7-3-7l-2-1-4-2-3-1-1-1q-5-1-11-6-15-13-17-8m207 20v12q1 6 10 0 7-3-4-10-5-4-6-2m7 18-8 4c-7 2-8 4-14 11-1 1-3 9-2 11 1 4 8 8 11 8 3-2 19-29 19-32q-1-5-6-2m424 4c-3 3 0 12 5 16q9 6 11 0c2-7-11-20-16-16m-584 33c-3 4 1 13 6 12q7-3 4-11c-2-2-8-3-10-1m165 27q-3 0-3 8 0 10 11 15l5 4 10 8 11 9q3 4 5 3c3 0 6-11 7-19l3-12q6-9 4-11c-1-2-1-2-12 0l-12-1-13-2-14-3zm-39 32v8c1 4 6 1 6-3q-1-8-6-5m455 13 6 8q7 6 11 14 8 12 7 5l-3-6-5-6q-14-17-16-15m-401 10-3 4q-4 5-6-1-1-5-3-2l1 5v16h3l3-1c-1-1 1-9 4-15l3-8zm27 10c-1 1 3 10 5 11q4 1 2-6-4-10-7-5"
        mask="url(#16282281824-posters-1720553745649-horizontal-mask)" itemprop="bold" fill-opacity="0.90"
        fill-rule="evenodd" stroke="none" fill="url(#16282281824-posters-1720553745649-vertical-bold)"></path>
    </pattern>
    <rect id="16282281824-posters-1720553745649-pattern-render" fill="url(#16282281824-posters-1720553745649-pattern)"
      width="100%" height="100%"></rect>
  </defs>
  <radialGradient id="lightbar" cx="50%" cy="200%" fy="0" r="201%">
    <stop offset="0%" style="stop-color: rgb(255, 255, 255); stop-opacity: 0.1;"></stop>
    <stop offset="10%" style="stop-color: rgb(0, 0, 0); stop-opacity: 0.1;"></stop>
    <stop offset="30%" style="stop-color: rgb(0, 0, 0); stop-opacity: 0.3;"></stop>
    <stop offset="90%" style="stop-color: rgb(0, 0, 0); stop-opacity: 0.55;"></stop>
    <stop offset="100%" style="stop-color: rgb(0, 0, 0); stop-opacity: 0.6;"></stop>
  </radialGradient>
  <g class="radial">
    <radialGradient id="16282281824-posters-1720553745649-radial" gradientUnits="userSpaceOnUse">
      <stop itemprop="radial" stop-color="#b7b5b4" offset="0%"></stop>
      <stop itemprop="radial" stop-color="#9e9c9a" offset="15%"></stop>
      <stop itemprop="radial" stop-color="#a8a6a4" offset="30%"></stop>
      <stop itemprop="radial" stop-color="#b5b3b0" offset="45%"></stop>
      <stop itemprop="radial" stop-color="#a3a19f" offset="60%"></stop>
      <stop itemprop="radial" stop-color="#afaeac" offset="75%"></stop>
      <stop itemprop="radial" stop-color="#adaba9" offset="90%"></stop>
    </radialGradient>
    <radialGradient id="16282281824-posters-1720553745649-radial-background" gradientUnits="userSpaceOnUse">
      <stop stop-color="#d3cec5" offset="0%"></stop>
      <stop stop-color="#d3cfc5" offset="15%"></stop>
      <stop stop-color="#d3cec5" offset="30%"></stop>
      <stop stop-color="#d3cec5" offset="45%"></stop>
      <stop stop-color="#d3cec5" offset="60%"></stop>
      <stop stop-color="#d3cec5" offset="75%"></stop>
      <stop stop-color="#d3cec5" offset="90%"></stop>
    </radialGradient>
    <radialGradient id="16282281824-posters-1720553745649-radial-light" gradientUnits="userSpaceOnUse">
      <stop stop-color="#9b9a97" offset="0%"></stop>
      <stop stop-color="#9b9a97" offset="15%"></stop>
      <stop stop-color="#9b9a97" offset="30%"></stop>
      <stop stop-color="#9c9a96" offset="45%"></stop>
      <stop stop-color="#9b9997" offset="60%"></stop>
      <stop stop-color="#9b9a97" offset="75%"></stop>
      <stop stop-color="#9b9a97" offset="90%"></stop>
    </radialGradient>
    <radialGradient id="16282281824-posters-1720553745649-radial-regular" gradientUnits="userSpaceOnUse">
      <stop stop-color="#82807d" offset="0%"></stop>
      <stop stop-color="#82817d" offset="15%"></stop>
      <stop stop-color="#82807d" offset="30%"></stop>
      <stop stop-color="#83817c" offset="45%"></stop>
      <stop stop-color="#82807d" offset="60%"></stop>
      <stop stop-color="#82807d" offset="75%"></stop>
      <stop stop-color="#82807d" offset="90%"></stop>
    </radialGradient>
    <radialGradient id="16282281824-posters-1720553745649-radial-medium" gradientUnits="userSpaceOnUse">
      <stop stop-color="#514f4d" offset="0%"></stop>
      <stop stop-color="#51504d" offset="15%"></stop>
      <stop stop-color="#514f4d" offset="30%"></stop>
      <stop stop-color="#51504d" offset="45%"></stop>
      <stop stop-color="#514f4d" offset="60%"></stop>
      <stop stop-color="#514f4d" offset="75%"></stop>
      <stop stop-color="#514f4d" offset="90%"></stop>
    </radialGradient>
    <radialGradient id="16282281824-posters-1720553745649-radial-bold" gradientUnits="userSpaceOnUse">
      <stop stop-color="#2f2e2d" offset="0%"></stop>
      <stop stop-color="#2f2e2d" offset="15%"></stop>
      <stop stop-color="#2f2e2d" offset="30%"></stop>
      <stop stop-color="#2f2e2d" offset="45%"></stop>
      <stop stop-color="#2f2e2d" offset="60%"></stop>
      <stop stop-color="#2f2e2d" offset="75%"></stop>
      <stop stop-color="#2f2e2d" offset="90%"></stop>
    </radialGradient>
  </g>
  <g class="vertical">
    <linearGradient id="16282281824-posters-1720553745649-vertical" gradientUnits="userSpaceOnUse" x1="0" x2="0" y1="0"
      y2="100%">
      <stop itemprop="vertical" stop-color="#b7b5b4" offset="0%"></stop>
      <stop itemprop="vertical" stop-color="#9e9c9a" offset="15%"></stop>
      <stop itemprop="vertical" stop-color="#a8a7a4" offset="30%"></stop>
      <stop itemprop="vertical" stop-color="#b5b3b0" offset="45%"></stop>
      <stop itemprop="vertical" stop-color="#a3a19f" offset="60%"></stop>
      <stop itemprop="vertical" stop-color="#afaeac" offset="75%"></stop>
      <stop itemprop="vertical" stop-color="#adaba9" offset="90%"></stop>
    </linearGradient>
    <linearGradient id="16282281824-posters-1720553745649-vertical-background" gradientUnits="userSpaceOnUse" x1="0"
      x2="0" y1="0" y2="100%">
      <stop stop-color="#cdcccb" offset="0%"></stop>
      <stop stop-color="#cdcccb" offset="15%"></stop>
      <stop stop-color="#cdcccb" offset="30%"></stop>
      <stop stop-color="#cecdca" offset="45%"></stop>
      <stop stop-color="#cdcccb" offset="60%"></stop>
      <stop stop-color="#cdcccb" offset="75%"></stop>
      <stop stop-color="#cdcccb" offset="90%"></stop>
    </linearGradient>
    <linearGradient id="16282281824-posters-1720553745649-vertical-light" gradientUnits="userSpaceOnUse" x1="0" x2="0"
      y1="0" y2="100%">
      <stop stop-color="#ae9f84" offset="0%"></stop>
      <stop stop-color="#aea284" offset="15%"></stop>
      <stop stop-color="#aea284" offset="30%"></stop>
      <stop stop-color="#aea084" offset="45%"></stop>
      <stop stop-color="#aea284" offset="60%"></stop>
      <stop stop-color="#ae9f84" offset="75%"></stop>
      <stop stop-color="#ae9f84" offset="90%"></stop>
    </linearGradient>
    <linearGradient id="16282281824-posters-1720553745649-vertical-regular" gradientUnits="userSpaceOnUse" x1="0" x2="0"
      y1="0" y2="100%">
      <stop stop-color="#82807d" offset="0%"></stop>
      <stop stop-color="#82817d" offset="15%"></stop>
      <stop stop-color="#82817d" offset="30%"></stop>
      <stop stop-color="#83817c" offset="45%"></stop>
      <stop stop-color="#82817d" offset="60%"></stop>
      <stop stop-color="#82807d" offset="75%"></stop>
      <stop stop-color="#82807d" offset="90%"></stop>
    </linearGradient>
    <linearGradient id="16282281824-posters-1720553745649-vertical-medium" gradientUnits="userSpaceOnUse" x1="0" x2="0"
      y1="0" y2="100%">
      <stop stop-color="#514f4d" offset="0%"></stop>
      <stop stop-color="#51504d" offset="15%"></stop>
      <stop stop-color="#51504d" offset="30%"></stop>
      <stop stop-color="#51504d" offset="45%"></stop>
      <stop stop-color="#51504d" offset="60%"></stop>
      <stop stop-color="#514f4d" offset="75%"></stop>
      <stop stop-color="#514f4d" offset="90%"></stop>
    </linearGradient>
    <linearGradient id="16282281824-posters-1720553745649-vertical-bold" x1="0" x2="0" y1="0" y2="100%">
      <stop stop-color="#2f2e2d" offset="0%"></stop>
      <stop stop-color="#2f2e2d" offset="15%"></stop>
      <stop stop-color="#2f2e2d" offset="30%"></stop>
      <stop stop-color="#2f2e2d" offset="45%"></stop>
      <stop stop-color="#2f2e2d" offset="60%"></stop>
      <stop stop-color="#2f2e2d" offset="75%"></stop>
      <stop stop-color="#2f2e2d" offset="90%"></stop>
    </linearGradient>
  </g>
  <g class="horizontal">
    <linearGradient id="16282281824-posters-1720553745649-horizontal" x1="0" x2="100%" y1="0" y2="0"
      gradientUnits="userSpaceOnUse">
      <stop itemprop="horizontal" stop-color="#adaba9" offset="0%"></stop>
      <stop itemprop="horizontal" stop-color="#a8a6a4" offset="15%"></stop>
      <stop itemprop="horizontal" stop-color="#adaba9" offset="30%"></stop>
      <stop itemprop="horizontal" stop-color="#adaba9" offset="45%"></stop>
      <stop itemprop="horizontal" stop-color="#a8a7a4" offset="60%"></stop>
      <stop itemprop="horizontal" stop-color="#adaba9" offset="75%"></stop>
      <stop itemprop="horizontal" stop-color="#afaeac" offset="90%"></stop>
    </linearGradient>
    <linearGradient id="16282281824-posters-1720553745649-horizontal-background" gradientUnits="userSpaceOnUse" x1="0"
      x2="100%" y1="0" y2="0">
      <stop stop-color="#cdcccb" offset="0%"></stop>
      <stop stop-color="#cdcccb" offset="15%"></stop>
      <stop stop-color="#cdcccb" offset="30%"></stop>
      <stop stop-color="#cdcccb" offset="45%"></stop>
      <stop stop-color="#cdcccb" offset="60%"></stop>
      <stop stop-color="#cdcccb" offset="75%"></stop>
      <stop stop-color="#cdcccb" offset="90%"></stop>
    </linearGradient>
    <linearGradient id="16282281824-posters-1720553745649-horizontal-light" gradientUnits="userSpaceOnUse" x1="0"
      x2="100%" y1="0" y2="0">
      <stop stop-color="#9b9a97" offset="0%"></stop>
      <stop stop-color="#9b9a97" offset="15%"></stop>
      <stop stop-color="#9b9a97" offset="30%"></stop>
      <stop stop-color="#9b9a97" offset="45%"></stop>
      <stop stop-color="#9b9a97" offset="60%"></stop>
      <stop stop-color="#9b9997" offset="75%"></stop>
      <stop stop-color="#9b9a97" offset="90%"></stop>
    </linearGradient>
    <linearGradient id="16282281824-posters-1720553745649-horizontal-regular" gradientUnits="userSpaceOnUse" x1="0"
      x2="100%" y1="0" y2="0">
      <stop stop-color="#968669" offset="0%"></stop>
      <stop stop-color="#968669" offset="15%"></stop>
      <stop stop-color="#968669" offset="30%"></stop>
      <stop stop-color="#968669" offset="45%"></stop>
      <stop stop-color="#968969" offset="60%"></stop>
      <stop stop-color="#968569" offset="75%"></stop>
      <stop stop-color="#968669" offset="90%"></stop>
    </linearGradient>
    <linearGradient id="16282281824-posters-1720553745649-horizontal-medium" gradientUnits="userSpaceOnUse" x1="0"
      x2="100%" y1="0" y2="0">
      <stop stop-color="#5d5341" offset="0%"></stop>
      <stop stop-color="#5d5341" offset="15%"></stop>
      <stop stop-color="#5d5341" offset="30%"></stop>
      <stop stop-color="#5d5341" offset="45%"></stop>
      <stop stop-color="#5d5541" offset="60%"></stop>
      <stop stop-color="#5d5241" offset="75%"></stop>
      <stop stop-color="#5d5341" offset="90%"></stop>
    </linearGradient>
    <linearGradient id="16282281824-posters-1720553745649-horizontal-bold" gradientUnits="userSpaceOnUse" x1="0"
      x2="100%" y1="0" y2="0">
      <stop stop-color="#2f2e2d" offset="0%"></stop>
      <stop stop-color="#2f2e2d" offset="15%"></stop>
      <stop stop-color="#2f2e2d" offset="30%"></stop>
      <stop stop-color="#2f2e2d" offset="45%"></stop>
      <stop stop-color="#2f2e2d" offset="60%"></stop>
      <stop stop-color="#2f2e2d" offset="75%"></stop>
      <stop stop-color="#2f2e2d" offset="90%"></stop>
    </linearGradient>
  </g>
  <g class="masks">
    <mask id="16282281824-posters-1720553745649-pattern-mask" maskUnits="userSpaceOnUse"
      maskContentUnits="userSpaceOnUse">
      <pattern id="pattern" x="0" y="0" width=".0133" height=".0144" viewBox="0 0 23.07 40">
        <path
          d="M17.62 0l-6.07 10.5m2.74 4.76L8.22 4.75m-5.48 0h12.13M.01 0h23.07M6.07 20L0 9.5m2.74-4.75l-6.07 10.5m-5.48 0H3.33m8.2 4.75L0 .02-11.54 20m40.68 0L23.07 9.5m2.74-4.75l-6.06 10.5m-5.49 0H26.4M34.6 20L23.08.02 11.53 20m-5.46 0L0 30.51m2.74 4.75l-6.07-10.5m-5.48 0H3.33m8.2-4.75L0 40l-11.54-19.98zM17.6 40l-6.06-10.5m2.74-4.76L8.2 35.25m-5.48 0h12.13M0 40h23.07L11.54 20.01m17.6 0l-6.07 10.5m2.74 4.75l-6.06-10.5m-5.49 0H26.4M11.53 20h23.08L23.07 40"
          stroke-linecap="round" stroke-width="3.5" stroke="white"
          fill="url(#16282281824-posters-1720553745649-horizontal-background)"></path>
      </pattern>
      <rect width="100%" height="100%" fill="url(#pattern)"></rect>
    </mask>
    <mask id="16282281824-posters-1720553745649-horizontal-mask" maskUnits="userSpaceOnUse"
      maskContentUnits="userSpaceOnUse">
      <rect width="100%" height="100%" fill="url(#16282281824-posters-1720553745649-horizontal-background)"></rect>
    </mask>
    <mask id="16282281824-posters-1720553745649-radial-mask" maskUnits="userSpaceOnUse"
      maskContentUnits="userSpaceOnUse">
      <rect width="100%" height="100%" fill="url(#16282281824-posters-1720553745649-radial-background)"></rect>
    </mask>
    <mask id="16282281824-posters-1720553745649-vertical-mask" maskUnits="userSpaceOnUse"
      maskContentUnits="userSpaceOnUse">
      <rect width="100%" height="100%" fill="url(#16282281824-posters-1720553745649-vertical-background)"></rect>
    </mask>
  </g>
  <use href="#16282281824-posters-1720553745649-pattern-render"></use>
  <g>
    <use href="#16282281824-posters-1720553745649-background"></use>
    <use href="#16282281824-posters-1720553745649-light"></use>
    <use href="#16282281824-posters-1720553745649-regular"></use>
    <use href="#16282281824-posters-1720553745649-medium"></use>
    <use href="#16282281824-posters-1720553745649-bold"></use>
  </g>
  <g itemprop="animation">
    <animate href="#16282281824-posters-1720553745649-light" attributeName="stroke-opacity" repeatCount="indefinite"
      dur="5s" values="0.9;0.0;0.9"></animate>
    <animate href="#16282281824-posters-1720553745649-regular" attributeName="stroke-opacity" repeatCount="indefinite"
      dur="4s" values="0.9;0;0.9"></animate>
    <animate href="#16282281824-posters-1720553745649-medium" attributeName="stroke-opacity" repeatCount="indefinite"
      dur="5s" values="0.9;0;0.9"></animate>
    <animate href="#16282281824-posters-1720553745649-bold" attributeName="stroke-opacity" repeatCount="indefinite"
      dur="3s" values="0.9;0;0.9"></animate>
    <animate href="#16282281824-posters-1720553745649-regular" attributeName="fill-opacity" repeatCount="indefinite"
      dur="8s" values="0.9;0.75;0.95;0.8;0.9;"></animate>
    <animate href="#16282281824-posters-1720553745649-radial-background" attributeName="cx" repeatCount="indefinite"
      dur="34s" values="0%;33%;100%;0%;100%;0%;"></animate>
    <animate href="#16282281824-posters-1720553745649-radial-background" attributeName="cy" repeatCount="indefinite"
      dur="55s" values="0%;100%;33%;100%;66%;0%"></animate>
    <animate href="#16282281824-posters-1720553745649-vertical-light" attributeName="x1" repeatCount="indefinite"
      dur="55s" values="0%;33%;100%;0%;133%;0%;"></animate>
    <animate href="#16282281824-posters-1720553745649-vertical-light" attributeName="y1" repeatCount="indefinite"
      dur="86s" values="0%;100%;33%;100%;66%;0%"></animate>
    <animate href="#16282281824-posters-1720553745649-horizontal-regular" attributeName="x1" repeatCount="indefinite"
      dur="34s" values="0%;100%;66%;0%;33%;133%;0%"></animate>
    <animate href="#16282281824-posters-1720553745649-horizontal-regular" attributeName="y1" repeatCount="indefinite"
      dur="55s" values="0%;66%;100%;33%;100%;66%;0%"></animate>
    <animate href="#16282281824-posters-1720553745649-vertical-medium" attributeName="x1" repeatCount="indefinite"
      dur="34s" values="0%;100%;66%;0%;33%;133%;0%"></animate>
    <animate href="#16282281824-posters-1720553745649-vertical-medium" attributeName="y1" repeatCount="indefinite"
      dur="55s" values="0%;66%;100%;33%;100%;66%;0%"></animate>
    <animate href="#16282281824-posters-1720553745649-vertical-bold" attributeName="x1" repeatCount="indefinite"
      dur="34s" values="0%;100%;66%;0%;33%;133%;0%"></animate>
    <animate href="#16282281824-posters-1720553745649-vertical-bold" attributeName="y1" repeatCount="indefinite"
      dur="55s" values="0%;66%;100%;33%;100%;66%;0%"></animate>
  </g>
</svg>
