<svg id="16282281824-posters-1720559937265" itemscope="" itemtype="/posters"
  itemid="/+16282281824/posters/1720559937265" viewBox="0 0 769 512" preserveAspectRatio="xMidYMid meet" tabindex="0"
  class="animate landscape" xmlns="http://www.w3.org/2000/svg">
  <!---->
  <defs class="graphic">
    <pattern id="16282281824-posters-1720559937265-pattern" width="769" height="512" viewBox="0 0 769 512"
      patternUnits="userSpaceOnUse" preserveAspectRatio="xMidYMid meet">
      <rect itemprop="background" width="769" height="512" tabindex="-1"
        id="16282281824-posters-1720559937265-background" fill-opacity="1"
        fill="url(#16282281824-posters-1720559937265-radial-background)"></rect>
      <!---->
      <path id="16282281824-posters-1720559937265-light"
        d="M0 8v7h3l6-2q4-4 10-1l9 3 7 2c1 2 11 1 16 0 5-2 12-8 13-12q4-6-6-5l-7 1c0 7-23 7-26 1q0-2-13-2H0zm81-7c-7 1-9 10-4 14 7 5 18-3 13-10-1-2-8-5-9-4m30 2c1 7 10 15 17 15 6 0 13-8 13-15V0h-30zm51-1c-9 4-11 17-4 26 2 3 11 8 14 8q4 2 5 6 1 5 10 6c8 0 11-8 5-15q-4-3-4-10c-2-15-16-26-26-21m49 0c-15 17-8 38 15 43 22 6 43-19 33-39l-3-6h-22c-19 0-22 0-23 2m66 1q0 6 6 11c3 3 12 3 17-1q8-3 8-9V0h-31zm57 0c-4 7 1 19 9 24q17 7 29-5 9-9-1-18l-3-4h-33zm54-1q-2 4 1 6c6 6 16 1 12-6-1-3-12-3-13 0m21-2c0 1 6 13 8 14a47 47 0 0 0 30 15c5 2 15 1 20-1q17-9 14-23l-1-5h-11v5q1 13-15 13-19 0-30-14-3-5-9-4zm121 2c-5 5-8 20-5 26l1 4 1 5 4 8c2 6 13 22 17 27 10 11 32 10 37-1 4-8-1-30-9-42l-4-7-3-5-6-6c-8-10-11-11-21-11q-10 0-12 2m146-1q-2 3 1 6c4 4 11 2 11-4V0h-6zm77 0c0 2 8 8 13 9q4 3 3-4V0h-8zM228 5c-10 2-15 15-10 23q8 11 22 4a13 13 0 0 0 2-25q-6-3-14-2m487 1c-4 0-12 8-12 12a11 11 0 0 0 7 12c7 6 18 5 25-2q6-8-2-18-4-6-18-4M348 7q-3 8 6 10 11-1 2-9-6-3-8-1m227 3c-4 3-1 9 5 9q8-1 3-9-3-4-8 0m-261 1q-5 5 1 9t9-1q6-3 0-7-4-5-10-1m331 0a6 6 0 1 0 8 8 6 6 0 0 0-8-8m-105 0q-4 2-4 11c2 16 16 42 24 45 16 7 20-8 7-29l-3-7-14-16-7-5zm65 3c-21 4-20 27 0 43 7 5 22 2 28-5 7-9 2-26-9-34-5-4-14-6-19-4m-113 3q-5 2-4 8c4 8 17 5 14-4-1-2-7-6-7-5zm225 1q-2 4 6 5 4 1 4-5c-1-2-8-3-10 0m-439 5q-5 9 4 11 14 0 6-10-4-6-10-1m325 3c-6 8 3 23 14 23q9 0 9-12 0-9-9-10l-2-1c-1-2-11-1-12 0M39 29c-7 5-3 14 5 12q8-1 9-6c0-6-9-9-14-6m74-1q-19 7-6 38 15 25 41 10c3-2 8-13 8-17 0-12-9-26-19-29-6-3-19-3-24-2m563 0c-10 2-13 12-7 20l3 5c10 21 30 28 42 16q3-3 2-10-2-22-27-31zm86 3q-8 4-9 14-1 19 13 30 4 5 4-9 0-9-1-8 0 4-2-2-4-11 0-14 3-1 2-7 1-9-7-4m-457 1c-14 3-21 21-14 34l2 6q3 8 13 12l6 3-2 3q-6 5-1 8a7 7 0 1 0 11-9l10-1q13-1 17-4a5 5 0 0 1 9 0l-1-2q-2-1 2-5 5-7 0-20a52 52 0 0 0-38-25zm80 2c-5 3-1 10 6 10s8-6 3-10q-4-3-9 0m31 0c-5 5 4 13 10 8q5-3-1-7-5-5-9-1m262 3c-4 3 1 13 9 21 10 10 22 7 18-4-4-9-22-20-27-17m-320 1c-6 3-5 10 1 13 6 4 13-2 10-8q-5-8-11-5m114 3q-8 8-2 17c8 15 29 15 29 0 0-14-19-26-27-17m-218-1c-7 2-7 10 0 13 9 5 15-4 8-11q-5-4-8-2M16 41Q5 44 4 54l-1 4c-3 1-3 15 0 15l2-1a7 7 0 0 1 11-2q14 7 22-4c9-13-4-28-22-25m103 0c-4 1-5 13-1 18q15 18 23 5c4-7 0-17-8-19l-2-2-3-1-4-1zm185 5c-3 3-3 3-3 10l2 7 2 4q7 10 29 8 16-1 13-12c-1-5-11-14-19-16-19-5-20-5-24-1m342 0q-3 5 5 8 8 1 8-5c0-6-11-9-13-3M71 45q-6 4-4 11c6 9 20 4 15-6l-8-6zm658 6q-5 3 1 8c5 5 12 3 12-4s-9-10-13-4m-283 0q-5 7 4 10c8 2 12-7 4-11q-5-2-8 1m65 0c-5 4-2 11 5 11q8 1 8-5c0-6-8-10-13-6m-104 4q-6 3-4 5l-2 1c-2 1-1 8 1 12 2 5 13 11 18 11 17 0 19-23 2-30q-8-4-15 1m-189 0q-10 4-9 16-1 11 10 18l4 3c2 3 12 3 17 0l8-2c11 0 13-10 2-13q-7-2-8-7c0-3-7-13-10-15q-8-3-14 0m57 3q-7 1-6 6c0 5 9 9 14 5 5-3-1-13-8-11m-106 3c-7 3-7 11 0 12q12 1 9-8l-7-5zm244 6q0 3 5 5 4 0 3-5c0-3-7-3-8 0m-190 2q-3 8 5 12 6 0 2-10-4-7-7-2m157 1q-6 3 0 8a7 7 0 1 0 0-8m293-1c-7 4-6 12 3 13q8 0 8-7-2-8-11-6m53 3c-10 6-16 18-12 25 12 21 32 21 46 0q12-17-13-26-12-5-21 1m-227 2q-9 5-13 16-6 17 22 33 16 9 25-4a25 25 0 0 0 0-24c-4-14-22-25-34-21m118 2c-9 4-7 19 4 28 14 11 33 0 25-16-5-11-19-17-29-12M99 77q-6 9 5 11 7 1 7-5c0-6-8-10-12-6m361 2q-3 4 0 10 5 5 11 1c6-6-4-16-11-11m-306 4q-12 4-10 15c0 8 0 9 8 14 17 12 42-9 28-23-11-10-15-11-26-6m37 0c-5 7 5 16 13 11q6-4 0-10c-4-4-11-4-13-1m544-1c-12 4-11 18 2 18q12-1 14-12c0-6-8-8-16-6m-189 2q-5 4-1 10c2 3 10 3 11-1 2-6-4-12-10-9M40 86c-9 4-12 25-5 38q8 17 20 11a21 21 0 0 0 11-10l1-1 2-5c3-6-1-23-7-29-5-6-16-8-22-4m233 0q-10 6-3 20c6 15 32 12 32-3a22 22 0 0 0-13-18c-2-2-12-1-16 1m230 1q-5 3-5 8a22 22 0 0 0 12 17q8 5 12 0c3-3 2-14-1-19-4-5-14-9-18-6m122 0q-4 2 2 8 5 4 7 0c5-4-2-11-9-8m-273 2q-4 2-6 8c0 6 17 7 18 1 2-6-5-11-12-9m236 2a8 8 0 1 0 14 6c0-7-11-11-14-6m-428 1q-5 4-3 8c1 4 10 4 12 1 3-6-4-13-9-9M12 97q-7 6 5 8 12-1 6-9-5-5-11 1m63-1c-6 3-3 12 4 12q8 0 8-6c0-6-7-10-12-6m206-1a5 5 0 0 0 8 7c3-4-5-10-8-7m168 2c-13 9-12 26 3 30l8 4c6 4 17 4 21 1 10-6 6-22-6-30q-17-10-26-5m232 1c-6 4-2 12 6 12q6 1 6-5c0-7-7-11-12-7m-305 1q-14 8-8 21c4 6 5 8 13 8q17 0 17-13c0-11-14-21-22-16m35 0c-5 4-1 12 5 12 7 0 11-7 6-12q-6-4-11 0M47 99c-5 4-2 22 3 22 6-1 8-16 3-21q-4-3-6-1m82 6c-8 4-5 15 4 14 9-2 11-9 4-13-4-3-4-3-8-1m428 1q-7 4-7 16l2 10c1 10 12 23 20 23 6 0 14-9 17-17 2-9-5-23-15-32q-9-6-17 0m-318 1-3 1-14 4c-28 7-33 11-33 25q0 11 6 17 5 8 0 9c-2 0-8 5-8 7s5 7 8 7q9 2 7-9 0-4 13 2c14 7 36 4 45-4q16-16 16-28-5-31-28-32zm86 0c-7 5-7 6-7 13s0 7 4 11l8 5c5 2 5 2 3 8-3 7-3 7-8 5-15-7-29 10-17 22q11 9 26-5 4-5 12 0c1 2 19 2 23 2 6-1 12-8 12-13 0-10-13-20-30-23-3-1-3-1-3-8q0-10-8-15c-3-2-12-3-15-2m130 1c-6 3 0 11 9 13l4 1c1 3 7-2 6-5q-1-6-5-8c-3-2-12-2-14-1m-361 6c-14 7-9 27 7 28a16 16 0 0 0 14-3c3 0 5-9 2-15q-10-16-23-10m546 1q-5 4 1 10 5 5 9 0c5-6-4-14-10-10m110 1-4 3c-11 7 2 27 19 29q9 4 0 7c-14 3-18 5-22 13q-6 13 4 22l16 12 3 3-5 3q-7 3-10 0c-6-3-13 1-13 6q-1 4 6 6 9 5 9 11v2l-7-2c-18-5-31 1-31 14-1 25 36 46 52 31 3-4 3-24-1-31l-1-4q4 0 4 4v-53l-4-3q-9-5-10-9-4-10 9-13 6 1 5-4v-28c-1 4-11 1-12-4q0-5 10-1 3 2 2-6v-6l-4-1c-5-2-13-2-15-1m-343 1c-6 2-17 23-20 35-2 11 16 33 29 36q7 0 2 5-10 12 3 25l4 4-4 1c-8 1-9 1-13 3-11 6-13 22-4 35 5 8 21 12 28 8l10-2c21-1 27-18 13-34q-6-7 1-6l4-1 4-5c10-11 4-28-13-36q-9-2-5-6c7-7 8-11 5-24-1-6-9-17-15-22l-7-7q-12-11-22-9m157 2c-2 4 0 14 3 19 6 7 14-7 8-16-3-4-10-7-11-3m-407 0c-21 13-16 52 7 52q20 0 20-22c0-17-17-36-27-30m77 2-6 2-7 2c-16 3-19 5-19 12 0 15 19 28 37 24q27-6 24-27c-1-13-15-19-29-13m471 2q-4 6 5 10c6 2 12-3 9-8q-6-9-14-2m-606 3q-2 4 4 5 6-3-1-6zm195 2q-3 3-2 5c1 6 12 8 16 4 5-8-7-15-14-9m312 0-6 2-2 2q-3 2-4 9t6 15c5 5 15 5 22 1 10-7 7-24-6-28l-5-2zm56 4q-24 12-6 32c7 8 26 8 32 1 16-19-5-45-26-33M8 131l-6 2-1 15v16l3 3c14 13 33 3 32-16q-3-23-28-20m401 0q-10 18-7 28 7 19 22 16 30-5 7-33c-7-10-19-15-22-11m-249 2c-6 6-4 22 3 26l3 2 3-4c5-5 4-15-1-21q-5-6-8-3m375 3q-5 2-5 6c0 2 7 8 10 8 9 0 9-10 1-14zm-48 1-4 2-5 4a8 8 0 0 0-4 7c-4 4-5 18-1 26 7 15 22 23 36 19q8-5 6 3a30 30 0 0 0 6 21 57 57 0 0 0 28 21q9 3 18-3c5-3 8-20 5-21l-1-4-1-3-5-9c-8-12-14-16-27-17q-10-1-12 2-7 3-4-4a36 36 0 0 0-4-30 28 28 0 0 0-13-12c0-2-14-3-18-2m-33 4q-6 8 5 11c4 0 10-5 8-8q-6-10-13-3m-328-1q-8 2-6 10c1 8 16 7 16-1q0-10-10-9m482 1q-3 5 2 6c5 3 10-3 6-7q-5-2-8 1m60 0q-14 9-1 17 7 5 13-3 7-7-3-14c-5-2-4-2-9 0m-321 4q-7 6 6 10 15 6 14-5c-1-4-15-8-20-5m-337 3q-2 7 4 9 7 3 7-4 3-8-7-8-4-1-4 3m723 0a8 8 0 0 0 5 14q13-5 4-14-4-4-9 0m-651 1c-6 8 5 17 12 10q5-4-1-9-6-6-11-1m409 1q-8 4-8 12a24 24 0 0 0 5 16c0 4 14 8 18 5q6-4 6-16 1-12-10-16c-7-3-7-3-11-1m213 6q-6 4-1 10c7 6 17-2 11-8q-5-6-10-2m-653 2c-6 4-3 12 3 14 9 1 13-7 7-12q-6-5-10-2m590 3q-9 2-4 9a6 6 0 1 0 4-9m-523 1-5 1-6 2-5 1-6 4q-8 8-2 19l4 7 6 8 5 4q4 1-3 7t-6 15q1 5-6 1-10-4-22 5a22 22 0 0 0-3 35l17 15c0 1 9 5 13 5q8 1 11-3 8-7 8-17l-4-16c-4-4 1-6 6-3l7 1c22 0 32-21 17-36q-7-9 3-12l11-11c3-7-1-21-8-26-8-5-28-9-32-6m470 2c-3 4-3 4 1 8 4 5 12 6 14 1q2-7-6-10-6-2-9 1m101 6a45 45 0 0 0-19 16c-3 3-6 11-5 13l1 5 2 4 1 1 2 2 1 2 4 5 5 5 3 2 2 2 2 1 1 1c0 2 9 4 16 4 19 0 31-15 28-34a28 28 0 0 0-13-14l-2-2-8-5q-11-10-21-8m-138 4q-5 7 4 12c1 1 8-2 9-4 2-6-8-13-13-8m-435 1q-12 2-11 8c0 12 15 18 30 13 25-8 6-28-19-21m218-1q-22 8-22 31 0 14 8 20c6 4 21 4 30 0 8-5 17-14 18-20s0-16-3-19c-5-9-23-15-31-12m-74 1c-12 3-13 19-3 29 5 4 24 0 24-5l2-3c4-4 0-16-7-19-3-2-13-3-16-2m117 1c-6 4 1 13 8 11 3 0 6-6 4-7l-1-2a8 8 0 0 0-11-2m-338 1-5 2c-12 5-13 6-18 11l-2 8q-4 28 34 36 8 1 2 2c-7 3-7 11-1 15 4 2 4 2 8 0q9-4 2-12l-3-3 8-5c12-5 20-16 18-23-1-8-16-24-26-29q-8-3-17-2m130 3c-5 3 1 14 7 12q10-3 2-12-4-4-9 0m30-1-4 1c-5 1-13 11-15 17s-1 18 2 22c5 7 24 11 34 7 16-7 23-32 12-43-4-3-28-7-29-4m406 1q-23 5-25 22a32 32 0 0 0 4 21l4 7 4 9q2 4 12 12l5 4 17 9c14 6 23 6 35-1 6-4 11-20 9-29l-2-9q-2-8-11-26-6-10-15-15l-8-4c-6-3-20-3-29 0m-309 3q-7 5 3 11 9 3 11-3c1-8-7-12-14-8m392 1c-18 9-6 37 15 37a12 12 0 0 0 10-3c3-1 8-9 8-13 0-10-23-25-33-21m-355 4c-3 1-8 7-8 9l-1 7q0 16 21 8 16-7 10-19c-2-5-15-8-22-5m-295 2q-12 4-13 12c0 6 7 15 12 15l6 2a17 17 0 0 0 15 1q5-1 9-6c9-11-12-28-29-24m167 1q-14 3-13 16c2 12 20 10 27-4q5-14-14-12m407 0q-28 4-15 32c8 17 16 25 33 31q15 6 25-3l3-4v-11l-1-14-5-9c-10-21-18-25-40-22m-178 5q-14 8 1 16 14 6 19 0 6-6 0-12-9-9-20-4m97 1q-3 2-3 5 1 12 16 23c14 11 22 1 13-18q-11-20-26-10m-133-1c-6 2-8 9-4 13 5 4 16 1 16-4s-7-11-12-9m-157 7q-3 4-1 7c4 9 16 6 16-3 0-7-11-10-15-4m249 1q-7 5 2 10c9 5 15-6 7-11q-4-4-9 1m-204 5c-22 10-24 41-2 48 7 2 21-4 21-9l2-3c7-6 3-30-7-37q-5-5-14 1m-197 1q-3 2-3 5c1 6 10 10 14 6 6-6-4-16-11-11M1 233v16l2-5c3-7 2-20 0-24-2-3-2-3-2 13m232-15c-9 2-23 14-24 20l-2 5c-1 5 4 18 9 22a28 28 0 0 0 34-1c2 0 8-7 10-11 4-9-1-24-10-32q-7-6-17-3m-114 3q-10 6-2 14c11 11 26 6 21-7q-7-13-19-7m166 2c-6 5-6 17 1 20q6 3 11-6c6-11-2-20-12-14m-119 3c-5 1-4 9 2 11q5 4 9 0c5-6-3-13-11-11m195 3c-12 3-17 17-9 26 12 13 30 0 25-17q-3-13-16-9m134 0q-4 1-10 7c-5 7 5 23 14 23l4 1c8 3 19-10 18-19-1-4-8-11-12-11q-10-2-14-1m-26 1c-8 3-6 11 3 14 3 0 9-3 10-5 1-6-7-12-13-9m-238 2q-10 6-10 14c0 13 19 16 26 4 7-13-4-25-16-18m-41 3q-6 4-1 9c5 5 13 2 13-4 0-7-7-10-12-5m487-1q-5 3-5 6c0 2 6 7 9 7l2 2q1 4 3 2l2-6q-1-15-11-11m-261 2q-5 2-5 5-3 19 14 18l13-2q16 1 12-11-2-8-16-11c-11-1-13-1-18 1m-405 1q-5 9 5 11 6-1 8-7c0-5-9-8-13-4m313-1q-7 5-1 12 6 6 11 1c5-6-3-17-10-13m177 5q-4 3 0 6a4 4 0 1 0 0-6m31 2c-6 6 1 13 8 10a7 7 0 1 0-9-11m199 0c-3 1-4 9-1 13l14 11c9 6 19 2 18-7q-2-9-11-15c-3-2-16-3-20-2m-642 1-3 1q-7 2-10 12-1 7 12 16 15 11 17 0l1-2v-6l-1-5c-1-6-7-14-12-16zm78 10q-7 2-9 10c-3 7 0 20 5 26l10 5c14 3 21-11 13-27q-9-17-19-14m416 0c-6 5-3 13 5 12 11-2 11-13 0-13zm-557 2c-3 2-8 8-8 10l-1 1c-2 0-1 7 0 8 12 9 29 9 32-2 4-12-12-24-23-17m515 4c-7 3-10 13-6 20 5 12 19 23 28 23 10 0 22-16 16-21l-2-2-3-5q-16-20-33-15m-272 3c-7 4-3 13 5 13 6 0 8-7 4-12q-4-3-9-1m39 1c-20 5-25 40-9 59l5 4c0 2 14 10 19 11 15 5 22 4 29-3 6-6 11-18 11-23l-1-6-3-8c-12-26-32-39-51-34m-171 1q-5 3-3 11 5 5 12 1c6-4-2-15-9-12m64 0-2 1-2 1c-3 1-6 10-5 14q6 17 20 11 18-6 3-24-4-6-14-3m191 1c-6 6 3 14 9 8q5-4 0-8t-9 0m310 0q-4 9 6 11c6 0 9-7 5-11q-6-4-11 0m-29 2-3 3c-5 7 2 12 10 8 7-3 1-14-7-11m-504 2q0 11 6 12 6-3 0-11-4-5-6-1m185-1q-4 4-3 9a7 7 0 1 0 3-9m161 3q-3 3-1 6c3 5 10 6 12 2 5-7-4-14-11-8m33 0q-4 5 6 15c4 3 12 4 13 1 4-8-14-23-19-16m-67 0q-22 12-1 30c8 6 8 6 23 9q17 2 17-15c-3-17-25-30-39-24m-245 3q-4 1-4 7c0 5 7 9 12 7 6-5-1-17-8-14m73 2q-10 5-7 24c2 13 5 17 18 24 20 10 34 3 31-18-2-19-30-38-42-30m284 1q-10 7-10 13 4 19 19 16c7-2 12-13 9-18l-2-4c0-5-12-10-16-7m-540 6c-5 4 0 10 7 10q8 0 8-6c0-7-11-9-15-4m573 0q-2 8 7 8t6-7c-2-5-10-6-13-1m-138-1c-11 3 3 17 17 16 4 0 2-10-3-14q-6-3-14-2m-81 2c-21 5-15 32 7 32 6 0 17-6 19-11a20 20 0 0 0-15-20q-3-2-11-1m332 4c-5 6 0 13 8 13 6 0 9-6 6-10q-7-7-14-3m-86 1c-11 6-13 18-3 28 14 14 39 2 31-16-4-9-19-15-28-12M4 290l-3 1-1 16v16h3c10 2 12 2 16 1a15 15 0 0 0 7-26q-10-11-22-8m442 2q-5 10 7 13 8 0 8-7c0-8-10-12-15-6m257 2q-4 4 0 9 9 7 11-4c0-5-7-8-11-5m-295 2q-3 3-2 4c1 6 8 8 12 4 6-6-4-13-10-8m-328 1q-5 6 1 11c8 6 17-2 10-9q-6-6-11-2m98 2q-11 6-9 13c2 8 10 14 15 11l3-1c4 0 9-9 7-14q-6-14-16-9m-60 1-6 1c-12 0-21 16-18 30q4 19 25 20c32 1 46-45 15-51-10-2-12-2-16 0m156-1c-6 3-4 10 3 12q11 0 5-10-3-5-8-2m98 1q-5 9 6 11 7 0 7-6c0-6-9-10-13-5m388 0q-15 11-16 26 0 18 19 22l6 3q1 1 1-6 1-8-2-7c-12 0-16-14-7-24l6-4q3 1 2-6 2-10-9-4m-530 1c-17 8-7 31 14 35 12 2 23-6 23-16a19 19 0 0 0-11-18c-1-3-20-4-26-1m427 1c-4 4 1 10 7 10q7 0 6-6c-1-5-10-8-13-4M5 304q-3 2-1 6c1 3 10 3 11 0 3-6-5-11-10-6m545 3q-6 4 0 8c7 6 15 4 15-2 0-8-9-12-15-6m56 2c-11 5-14 21-6 28 14 12 28 5 28-13 0-12-12-21-22-15m-557 2-3 1c-4 0-12 9-10 13l1 5c2 11 19 16 27 8 9-10 2-28-11-28zm69 1-5 1q-8 3-8 13c0 21 35 16 35-5 0-9-11-13-22-9m118 0c-5 4 2 11 11 11q8-1 6-4l-1-3c0-4-12-7-16-4m467 0c-16 6-14 28 3 30 14 2 21-8 16-20q-6-14-19-10m-244 2c-12 6-19 20-15 34l2 8 2 8 3 6q5 11 17 15c15 5 36 5 41 0 6-5 6-20 2-29l-3-5c0-4-25-33-32-36q-8-4-17-1m152 7c-4 4 1 12 6 8 3-3 1-9-3-9zm-409 4a7 7 0 1 0 12 5c0-6-8-10-12-5m262 0q-6 2-8 11a81 81 0 0 0 6 30c0 7 32 16 38 10 4-4 3-16-2-21l-1-2-4-6-5-8c-2-4-19-16-21-15zm55 1c-10 2-8 13 2 13 8 0 10-7 5-12q-3-3-7-1m124 4c-6 3-4 11 3 12q11-2 4-11-2-3-7-1m37 2q-4 2-3 7c3 8 14 8 14 0q1-5-6-8-2-2-5 1m-287 2q-6 4-6 10 2 5-10 3-17 0-20 14c-1 9 13 23 24 24l5 1 9 1c18 0 25-15 14-27-5-5-5-5 0-9q12-7 3-15c-4-5-14-6-19-2m163 0c-8 4-16 17-11 17v1q-1 4 3 12l1 3c0 4 15 15 22 15 10 0 20-14 17-26-1-5-7-17-10-19-5-5-17-6-22-3m-401 1c-5 5 0 12 8 12q9-2 2-11-5-6-10-1m142 2q-3 4-1 9 6 4 12 0c6-6-2-13-11-9m134 2c-5 4-1 11 5 11q6 0 6-6c0-5-7-8-11-5M1 346v7h4c10 2 21 10 22 17q1 6-4 7-8 3-17-3-7-7-6 3c0 7 0 7 3 9 12 7 28 3 35-7 10-13-9-35-32-39l-5-1zm200-5-6 3c-4 1-16 13-17 17a27 27 0 0 0 5 21c1 3 7 10 10 12l3 1-5 2q-22 10-7 25l13 9q5 1 1 6c-5 7 7 22 22 26l6 2-3 2-4 2q-6 1-14 8-12 14 0 32l2 3h29c32 0 37-1 43-6 15-12 9-31-12-38l-8-3-12-1h-10l3-4c3-4 3-3 2-10-2-8-14-19-24-21q-6 1-2-7 4-6 0-14c-2-3-9-10-11-10q-3-1 5-3a29 29 0 0 0 16-13 21 21 0 0 0 5-21l-1-5c0-9-19-19-29-15m58 2q-8 3-3 11 7 4 13 2c7-4-2-15-10-13m472 1q-6 5-1 11c5 4 12 2 12-4q-2-9-11-7m-169 1c-8 5-2 26 7 24q12-2 6-17c-2-6-10-10-13-7m94 5q-15 7-7 24c10 26 44 25 44-2 0-8-7-20-12-20l-1-1c-1-4-17-5-24-1m-574 3q-5 4 1 8a6 6 0 1 0-1-8m203-2-3 1q-4 1-8 8c-4 7 0 19 7 23 9 6 27 0 27-10a28 28 0 0 0-21-23zm56 1c-9 6-1 16 10 11 5-2 4-9-1-12q-5-2-9 1m-135 2q-20 3-14 23 9 14 22 3c12-12 7-28-8-26m-155 2-4 4c-3 8 7 13 13 7 7-5-2-15-9-11m572 1q-4 6 1 8c7 6 16-1 10-7q-7-6-11-1m-250 2q-4 2-2 8c3 8 32 14 32 6 0-6-8-13-15-14zm289 2c-6 3-2 17 7 20 12 4 17-15 5-20q-8-3-12 0m105 0q-3 5 0 13l1 4 1-5c0-7 0-14-2-12m-481 3c-5 5 3 14 8 9v-10q-4-3-8 1m243 0c-7 3-4 13 4 13q10-1 6-9-3-7-10-4m-410 2c-8 1-15 9-15 15q1 6 9 11c4 2 13 0 19-6 9-7-2-23-13-20m591 2q-3 9 7 11c8 0 7-12-2-13q-4 0-5 2m-465 2c-7 3-4 12 4 12q12-2 2-11-4-3-6-1m-94 1c-5 4-2 11 5 11q6 1 6-5c0-5-7-9-11-6m597 6c-3 7 7 14 11 8q4-4 0-8-7-4-11 0m-427 1q-6 5 0 10c7 5 15-3 8-9q-4-6-8-1m103 7c-3 4 3 12 9 9q5-2 2-9-5-4-11 0m158 1c-4 4-1 10 5 10q7 0 7-5c0-6-8-10-12-5m-211 0q-7 5-1 10 4 5 9 1c6-4-1-14-8-11m251 2c-2 2-2 8 0 10 4 4 14 1 14-4 0-7-10-11-14-6m-109 1c-4 4-1 11 6 11 6 0 8-6 3-10q-5-6-9-1m-444 0c-7 4-5 12 3 13 8 0 12-8 5-12q-5-3-8-1m396 3q-3 1-2 7c2 7 12 6 13-1q-2-8-11-6m265 1c-5 2-12 11-12 16 0 7 13 18 22 18 22 0 28-25 7-33-5-2-14-3-17-1m-462 6c-10 10-6 26 7 30q12 5 17-3c9-10 5-25-8-29-8-3-10-3-16 2m272-3q-9 4-5 15c4 13 21 18 31 9 10-10-11-30-26-24m-526 2q-4 7 4 8 8-1 4-8-4-4-8 0m83 0c-5 1-12 11-10 15 4 15 26 20 35 8q7-12-6-20c-5-3-15-4-19-3m299 3c-6 3-9 14-6 20 3 7 13 15 18 15q14 0 14-13c0-16-15-28-26-22m206-1q-8 4-7 12a30 30 0 0 0 23 23q6 1 13-5 4-3 3-9a18 18 0 0 0-6-13q-10-12-26-8m90 1q-4 3 0 8c7 6 16-2 10-8q-6-4-10 0m-349 2q-6 3 0 9c5 4 12 0 10-6q-3-6-10-3m-117 4q-5 11 6 12 14 0 6-12-6-6-12 0m432-1c-4 2-4 9-1 11 6 4 14 1 14-4 0-7-7-11-13-7m74 1c-2 2 1 8 6 9 7 1 13-3 9-7-3-4-12-6-15-2m-692 2q-7 9 5 10c8 0 11-7 5-11q-7-5-10 1m444-2c-9 2-12 14-6 20q14 12 23 3c3-3 4-9 2-10l-1-3a13 13 0 0 0-8-9c0-1-8-2-10-1m-334 2q-3 5 0 9c4 5 14 1 14-4 0-6-10-10-14-5m44 0q-4 7 6 9 4 1 4-3c0-5-6-10-10-6m82 2q-2 6 4 7 6 0 4-9c0-2-7-1-8 2m-173-1c-2 0-1 5 1 6q4 1 6-3 0-5-7-3m506 2c-1 3 5 12 9 12q3-1 2-6c-1-5-9-9-11-6m-303 3q-5 4-1 8c4 5 13 3 13-3 0-3-5-7-7-7zm-292 2q-17 7-12 24 7 19 22 26 13 6 19-1c12-12 0-43-19-48l-5-2zm420 2c-5 5 6 13 11 8l3-2-2-3c-2-4-9-6-12-3m138 4-2 3 2 4c3 6 13 6 13-1s-7-10-13-6m-242 3c-12 1-16 2-22 8q-8 9-5 23a65 65 0 0 0 30 31c7 4 19 8 28 9q11 0 7 4l-2 6-1 5h7q8 1 7-2l2-2 4 2c2 2 14 3 14 2 0-2-5-8-8-10l-3-3-1-1q-6-1-1-6a32 32 0 0 0 11-17c3-2 2-17-2-23-2-4-18-20-20-20l-3-1q-7-7-42-5m193 1a35 35 0 0 0-19 53l9 11q7 9 24 12 9-1 2 5l-3 4h6l12-1h39l-5-2-11-5-9-4c-10-2-10-2-6-9l4-8v-10q-3-13 0-9 6 3 10-1c5-6-5-14-11-8l-2 3-2-3c-4-6-18-25-21-26q-8-3-17-2m-505 4c-8 2 1 23 11 25 7 2 8-10 1-17l-1-2q-3-7-11-6m50 0c-6 5-2 14 6 14 3 0 8-5 8-7 0-6-10-10-14-7m633 0c-6 3-4 10 3 11q7 1 7-4c0-5-6-8-10-7m-602 3q-4 4-3 9c2 4 13 5 14 0a10 10 0 0 0-8-10zm152 2q-3 3-1 8c5 3 13 1 13-3 0-5-7-9-12-5m418 2q-14 9-14 32 0 26 14 24 16 0 22-27c7-24-5-39-22-29m-338-1q-24 1-13 23a50 50 0 0 0 27 22c10 5 27 5 35 0 7-5 9-21 4-28-10-15-23-19-53-17m-173 1q-11 4-5 17l4 6c5 11 17 15 24 9q12-10-1-27c-4-4-15-7-22-5m364 2a18 18 0 0 0-10 14c-5 2 4 26 12 33 5 4 17 7 19 4l2-1q5-1 8-7c4-11-3-28-17-42q-6-7-14-1m224 0c-7 3-3 11 5 11h5l-1 5a35 35 0 0 0 13 32c1 0 1-15-1-21l1-8 1-11v-6l-5 3-5 2q-3-5-7-7-3-3-6 0m-259 0q-10 4-3 10a7 7 0 1 0 3-10m-371 3q-14 9-5 25 11 18 21 17c14 0 22-18 13-30l-3-5-1-2h-3c-2-3-12-7-15-7zm98-1q-4 3 3 8c7 3 15 2 11-3l-2-2c0-2-9-5-12-3m188 2q-3 3-2 7c1 4 7 6 10 4 7-5 0-14-8-11m232 0c-5 7 5 16 11 11q4-4 0-10-6-3-11-1m-200 2q-4 6 0 9 6 4 11 0c5-6-6-15-11-9m278 2c-17 8-8 30 11 26 9-1 14-15 9-21q-9-8-20-5m-38 3c-8 10-9 31-2 28 7-2 13-31 7-31q-3 0-5 3m-509 0 5 8 4-3c0-4-7-8-9-5m302 2c-18 3-16 29 2 35 20 7 33-10 20-26q-10-12-22-9m-410 2c-13 8 0 30 17 30q13 1 13-11c0-6-6-16-10-16l-6-2q-8-6-14-1m66-1c-4 3 1 17 7 19q3 2 5-2c3-7-6-21-12-17m159 1c-5 5-3 13 4 13q11-1 8-9-4-9-12-4m314 2q-11 4-13 13a22 22 0 0 0 1 20l2 4 2 2 1 1q2 4 12 12c5 3 6 3 15 3h11l4-4c14-10 12-32-3-46-8-7-22-9-32-5m-401 6q-8 6 1 11c10 3 15-8 5-12q-3-2-6 1m228 1q-14 4-13 14c0 8 8 16 16 16q5-1 2 8c-5 10-5 10 2 10q8 1 9-3c2-4 12-5 18-3l4 2 4 2q2 2 9 2h6l-2-3c-4-7-18-15-31-17q-6 0-4-2a19 19 0 0 0-20-26m46 2c-5 4 0 12 8 12q7 0 4-7c-2-6-9-9-12-5m132 1q-15 8-1 26 15 18 27 3 6-9-4-25c-4-5-15-8-22-4m-588 7c-6 7 1 14 9 9 4-1 4-7 1-9-2-3-8-2-10 0m226 1-6 1q-20 3-20 17c0 11 4 14 20 14 10 0 34-5 38-8 7-6 1-19-13-24zm185 1q-4 3 1 6c5 3 9-2 5-6q-3-4-6 0m-268 4c-8 4-4 14 5 14s10-11 2-14q-4-3-7 0m581-1q-4 4 0 8c5 6 14-1 8-7q-4-4-8-1m-688 4c-7 6-2 14 6 12q11-4 3-12-5-4-9 0m251 2c-6 3-3 9 4 9q4 0 4-4-1-6-8-5m-281 4-7 3c-11 3-12 4-12 13v7h5q6 1 5-3 1-6 13-7 8-1 10 7 0 4 7 3h6l-1-3-7-17c-3-2-15-4-19-3m86 2c-5 3-1 11 6 11s11-8 6-12c-2-2-9-1-12 1m376 4q-6 5 0 9c5 4 14 1 14-5 0-7-10-10-14-4m228-1q-8 1-17 7-7 5-8 2c0-1-6-5-8-5s-6 5-6 7q-1 6 15 7h10l3-3c8-6 23-7 36-1 7 4 9 4 15 4q13 1 4-5a59 59 0 0 0-44-13m50 1q-4 9 6 10h4v-5c0-7-7-10-10-5m-602 2q-16 2-24 11l-3 4h7l12-1c8-4 27-4 31-1q2 2 11 2 11 1 6-3-12-11-22-11c-9-2-11-2-18-1m161 0-15 4c-3 0-11 7-11 11l26-3q4-3 9 1c4 3 28 3 28 0 0-5-10-9-12-5q-2 3-7-2-10-8-18-6m-231 7-7 4-3 4h17c19 0 20 0 12-5-4-3-13-5-19-3m319 2q-8 7 7 6 11 1 9-2c0-7-11-9-16-4m95 3q-10 3 6 3 15 0 5-3c-4-2-5-2-11 0m148 0q-9 3 5 3h10c0-3-10-4-15-3"
        mask="url(#16282281824-posters-1720559937265-horizontal-mask)" itemprop="light" fill-opacity="0.90"
        fill-rule="evenodd" stroke="none" fill="url(#16282281824-posters-1720559937265-vertical-light)"></path>
      <!---->
      <path id="16282281824-posters-1720559937265-regular"
        d="M0 7v7h3l7-2 3-2 6 2c24 8 35 7 42-4q8-9-2-8l-7 1c0 4-11 8-18 5Q24 3 23 1L12 0H0zm112-5c-3 6 10 16 19 15 5-2 11-11 9-16 0-2-28-2-28 1m97 3q-15 25 10 37c25 12 52-15 38-37l-2-5h-43zm68-2a15 15 0 0 0 30 1V0h-30zm58 0c-6 9 3 23 16 25q14 2 21-6 8-8-2-18l-2-3-16-1h-16zm54-2q-2 4 1 7c6 5 13 0 10-6-1-2-10-3-11-1m21-1c0 3 7 14 11 17a52 52 0 0 0 31 12c17 3 32-11 28-25q0-5-6-4h-5l1 5c2 20-32 18-48-1q-2-5-7-4zm121 3q-9 8-6 24a96 96 0 0 0 15 33q12 20 26 19 25 1 19-26c-2-15-20-43-32-51-6-3-18-3-22 1m146-2v6c4 3 12-1 11-5-1-2-10-3-11-1m77 0q2 4 9 8t6-4V0h-7zM80 2a7 7 0 0 0 2 14c9 0 11-9 3-14l-2-1zm82 0c-4 2-8 11-8 16q2 12 17 17 7 3 6 5c0 5 8 9 13 7q8-5 0-14-4-3-3-9c0-14-14-26-25-22m62 4c-10 5-12 19-4 25q11 9 26-2c14-10-6-32-22-23m124 1q-5 7 5 10c7 2 10-5 4-9q-6-5-9-1m362 2q-14 11 0 20c15 11 34-1 25-16-5-8-17-10-25-4M577 9q-5 4-1 8c4 5 11 0 8-5q-3-5-7-3m-262 2c-5 4-2 10 4 10 7 0 9-8 2-11q-3-2-6 1m222 2c-5 8 9 46 21 54 3 3 13 3 15 1 7-7-1-29-17-47q-13-17-19-8m109-2q-4 3 0 7a5 5 0 1 0 0-7m-47 6c-14 7-10 28 7 39 11 7 28 1 30-11 3-21-20-38-37-28m119-1q-4 3 1 7c5 3 11-2 7-6q-4-3-8-1m-228 3c-5 5 2 12 9 8 5-3 3-10-4-10zm-211 5c-5 3 0 11 7 9q8-2 2-8-5-5-9-1m326 1q-7 2-4 11c6 17 25 19 25 2 1-9-9-16-21-13M38 31c-6 5 0 12 8 9q8-2 5-8c-2-5-9-5-13-1m74-2q-10 4-9 17l1 9c9 22 10 23 22 26 7 2 18-2 23-7 2-2 6-11 6-15 0-11-10-28-16-28l-3-1c-1-2-20-2-24-1m562 0q-13 8-3 20l1 2 11 17c13 12 33 7 33-9 0-19-25-36-42-30m90 2q-11 3-10 16 0 17 10 26l5 3V59c-1 4-4-4-4-11q0-6 2-7 3-1 2-7 1-7-5-3m-463 3q-19 10-8 35c4 10 5 11 14 15l6 3-2 3q-4 4-2 7c2 5 10 4 12 0q1-4-2-8-4-1 6-1c12 0 26-4 31-10 2-3 2-16 0-22-2-4-17-18-21-19-12-5-28-6-34-3m117-1c-6 3-2 11 5 10q8-4 0-9-3-3-5-1m-33 2q-3 2-1 5 5 6 11 2c5-5-4-12-10-7m292 2c-4 1 2 15 10 22 12 10 24 5 17-7-4-9-21-18-27-15m-320 3q-6 5 0 9c6 5 13 2 12-4q-4-11-12-5m120-1c-8 1-11 10-7 19 8 14 28 15 28 1 0-13-10-22-21-20m-358 2q-10 6 3 23c9 11 21 7 21-7 0-5-4-12-7-12l-4-2q-6-5-13-2m133 1q-4 4-2 7c4 7 14 6 14-1 0-6-9-10-12-6M13 42q-7 2-8 11l-3 6c-1 0-2 14 0 14l4-3 4-3 7 3q13 6 19-3c12-13-4-30-23-25m292 2c-8 5-5 23 5 29 10 5 34 4 37-2 5-9-7-22-22-26l-9-2q-6-2-11 1m343 0q-3 3-1 8 6 3 10 0c5-4-3-12-9-8M70 46q-4 4-2 10c4 7 14 5 14-2s-7-11-12-8m660 5q-3 3 0 7c3 5 12 2 12-3s-9-8-12-4m-283 0q-4 5 0 8c5 4 12 0 11-5-1-3-8-5-11-3m64 1c-5 3-1 10 5 10q10 0 7-8-5-6-12-2m-101 2a14 14 0 0 0-8 8c-4 3 0 13 8 17 12 8 26 2 23-11-2-10-14-18-23-14m-194 3c-12 9-9 24 7 34q7 6 17 0l9-2c9 0 10-10 1-12q-7-1-8-5l-6-12q-8-10-20-3m56 2q-4 4-2 7c4 6 13 5 15 0 1-5-8-9-13-7m-106 4c-5 6 4 14 10 8q5-4 0-8-6-4-10 0m247 3q-3 4 4 6 7 1 5-4c-1-4-7-6-9-2m-190 2q-4 7 4 13c6 3 7-8 2-13q-4-4-6 0m157 2c-4 4 0 10 7 10q10-1 3-9-5-5-10-1m291 1q-5 9 5 10 7 0 7-5c0-7-7-10-12-5m57 1q-17 10-13 26c2 4 11 12 15 14 17 5 39-18 31-32-5-8-25-13-33-8m-232 5q-14 11-8 26c2 5 15 17 23 21 17 8 31-10 22-29-10-19-25-26-37-18m123-1c-7 2-9 12-5 20 9 14 26 16 32 4s-14-30-27-24M99 78c-4 4-1 10 5 10q11-1 5-10-5-4-10 0m361 3q-3 2 1 8c3 4 11 2 11-3 0-6-9-9-12-5m-296 0c-16 2-24 13-19 23 9 17 38 12 38-6 0-8-12-19-19-17m572 0q-10 3-10 11c0 8 12 12 19 7 12-10 5-23-9-18m-543 1-3 4c-1 6 8 11 14 8 6-5-3-15-11-12m352 4q-5 4 1 8c4 4 10 2 10-3 0-6-7-9-11-5M39 87q-9 5-6 26c3 22 17 30 29 17 10-12 9-33-3-42-5-3-15-4-20-1m234 0q-5 1-5 12c1 15 16 22 28 13q11-9 0-21l-5-5-7-1q-8 0-11 2m229 0c-9 4-5 16 6 24q11 7 14 1c10-12-7-33-20-25m123-1q-4 1-2 5c4 8 14 8 14 0 0-4-7-7-12-5m-276 6c-4 4-1 11 5 10l5-1c5 0 6-6 3-10q-7-5-13 1m240-1c-5 4-2 12 4 12 8 0 11-7 5-12q-4-4-9 0m-431 1q-2 3-2 7l1 4h6q7 1 7-3c3-7-6-13-12-8M14 96c-6 3-4 9 3 9q11-1 6-9-3-4-9 0m266-1q-3 4 1 7 5 5 8 0c4-4-5-11-9-7M74 97q-5 5 1 9a7 7 0 1 0-1-9m375 1c-14 8-11 24 5 30l8 3q2 3 10 2c8 0 8 0 11-4 5-7 2-19-6-25-10-7-23-10-28-6M46 99c-4 4-3 15 1 22q3 3 7-3c6-9-1-26-8-19m366 0q-4 5-1 9c5 5 12 3 12-4q-2-10-11-5m268 0q-3 3-1 6c3 7 15 6 14-1-2-6-9-9-13-5m-307 2q-9 5-6 14 5 18 21 11 10-3 9-12c0-12-14-20-24-13m187 3c-7 4-9 6-8 19 0 12 1 17 7 24q14 15 25-1 9-13-1-29-11-17-23-13m-431 1q-8 6-1 12c4 2 11 0 12-5s-6-9-11-7m198 2c-13 6-13 19-1 27l6 2q4-1 1 9c-2 7-2 7-8 4-12-5-23 3-20 15 2 12 17 13 28 2l4-4 3 1c12 7 30 6 36-1 10-9-2-25-21-29q-9 0-7-8c1-11-12-21-21-18m-93 2-14 4-24 9c-8 6-9 23-1 31l3 6 1 4q3 2-2 1-4-1-6 2-6 5 0 8 9 7 11-5l-1-4 3 1 9 3c20 9 40 6 52-9q13-15 9-26l-2-8q-3-10-11-16-10-6-27-1m220-1q-6 10 13 15c8 1 11-6 5-12-3-4-15-6-18-3m-361 7c-9 5-9 19 1 25 14 7 28-3 23-15q-9-15-24-10m547 1q-5 3 1 8 5 5 8 1c5-6-2-14-9-9m-76 1c-5 3 1 24 7 24 5 0 9-12 5-18-2-5-9-8-12-6m185 1c-12 9-3 27 15 30q6-1 5 4 1 3-3 3c-15 3-20 6-23 15-4 9-2 14 10 23l11 10 3 3-2 1c-9 4-10 4-13 3q-8-4-11 0-6 6 4 10 6 3 7 7 3 6 0 7c-20-8-37-3-37 11 0 23 34 44 50 31l4-3v-11c0-12 0-12-3-16q-6-8-1-6 3 0 4 5v-53l-4-2q-10-7-12-14 1-9 13-10c4 0 4-3 4-20q0-12-1-11c-1 6-13 1-13-6 0-1 8-2 11 0q3 3 2-4 1-7-3-7c-5-2-14-2-17 0m-343 1-9 10-7 17c-7 13 8 35 26 41q7 1 1 8c-5 7-2 19 6 24q6 3 0 4c-8 0-18 4-21 9-5 6-2 25 5 32 5 6 22 7 30 3l7-1c18 0 24-18 10-33q-5-6-2-6l4-1c2 1 8-5 11-9 5-9-3-25-15-30q-11-4-4-10a21 21 0 0 0 2-24q-4-9-18-24-18-17-26-10m-170 0-8 3-11 3q-17 2-15 12c0 16 19 29 38 25q28-8 24-29-4-18-28-14m-78 1c-10 4-17 24-12 36 11 26 41 15 37-12-2-14-16-28-25-24m548 2q-5 6 1 9c9 5 16-2 9-8q-5-6-10-1m-607 3v6c3 3 10-1 7-5-1-1-6-2-7-1m196 3c-5 4-1 10 6 10q7 0 7-5c0-6-8-9-13-5m311 1c-14 2-16 22-2 29 4 2 13 1 17-2 15-9 3-30-15-27m-196 1c-2 2-10 17-10 21-2 6 7 20 14 24 4 2 5 2 11 1q28-6 9-32c-8-12-19-18-24-14m252 2c-20 9-16 33 6 37a20 20 0 1 0-6-37M7 132c-6 1-6 1-6 16 0 16 0 17 7 21 14 8 27-1 27-17 0-15-12-23-28-20m152 1c-5 5-4 19 1 24q9 9 12-7c2-12-8-24-13-17m376 4c-6 1-4 9 3 12q4 2 6-1c6-5 0-13-9-11m-49 1q-14 7-14 27t21 29q8 4 20-2 5-2 3 3c-5 19 21 46 42 45 24-2 16-42-11-55a36 36 0 0 0-26 2v-5c4-4 3-21-3-30-6-11-24-19-32-14m-31 2c-6 7 2 15 9 9q6-4 0-8-4-6-9-1m153 0q-4 5 1 8a5 5 0 1 0-1-8m59 1c-8 4-9 12-2 16 8 6 18 2 18-8 0-7-9-12-16-8m-544 1q-5 6-1 11c3 3 14 0 14-4 0-7-8-11-13-7m224 3q-7 7 4 11 15 5 17-4 0-5-9-7c-8-2-9-2-12 0m-337 1q-6 9 6 11 5 1 6-4 2-4-1-6-5-5-11-1m723 2q-4 3-5 8c0 6 8 8 14 3 7-6 0-15-9-11m-652 2c-3 6 3 12 10 10 5-1 5-8 1-11q-6-2-11 1m408 0c-14 8-5 35 12 35 10 0 16-19 9-29-4-6-16-10-21-6m-208 6c-6 8 4 15 10 8l2-2-2-4c-2-5-8-6-10-2m423 1c-5 5 0 12 7 10q8-3 1-10-5-4-8 0m-652 1c-7 4-4 12 4 13 8 0 10-7 3-12q-3-3-7-1m586 5c-4 2-1 8 4 10 5 1 9-5 5-9q-4-5-9-1m-519-1-5 1q-15 2-20 12c-4 7 4 25 14 31q6 4-1 9-7 7-7 16 2 6-7 1-13-4-23 7c-11 14-10 22 3 35 10 10 11 11 18 14 18 9 32-7 24-29l-3-8v-3l2 1c8 6 24 3 31-4q12-11-4-32-3-5 4-8c15-7 17-28 4-36-6-5-28-9-30-7m470 3q-4 3 2 8c7 6 14 3 11-5-1-5-10-6-13-3m99 6a41 41 0 0 0-18 15c-4 0-5 17-1 22l4 6c1 3 10 11 12 11l3 2a28 28 0 0 0 43-31c-2-3-13-13-15-13l-7-6c-10-7-14-8-21-6m-571 3q-20 4-8 18 8 11 25 5c15-4 18-14 7-21-5-3-16-4-24-2m218 1q-23 7-23 31 1 21 19 22c24 1 44-21 35-40-4-9-21-16-31-13m216 0q-3 3-1 7c4 6 14 4 13-3q-4-10-12-4m-296 4q-6 4-4 13c1 14 21 18 30 6 8-11 0-23-16-23-6 0-6 0-10 4m122-2q-3 4 0 7c5 7 15 1 10-6-2-4-8-4-10-1m-342 2c-17 7-21 12-21 25 0 16 9 23 36 29l6 2 8-4q16-9 18-21c0-7-14-23-25-30-6-3-16-4-22-1m163 1q-10 3-15 11c-6 9-4 28 5 32q27 13 42-13l3-7-1-8c-1-7-1-8-5-11-5-5-21-7-29-4m415-1q-45 8-28 44c9 18 10 20 18 26 10 9 16 12 30 18 17 6 35-5 37-23 1-14-10-43-20-53-9-9-24-14-37-12m-443 1q-4 3 0 9c1 2 8 3 10 1 5-5-4-13-10-10m127 3q-6 4-1 10c6 3 14 1 14-3 0-6-7-10-13-7m389 2q-14 10-5 23c11 16 29 18 38 4q8-10-9-22c-12-9-17-10-24-5m-355 3q-6 5-6 10l-2 7c-1 7 7 12 16 10q25-8 16-23c-5-6-18-8-24-4m-293 1q-18 6-12 20 5 7 9 8l6 2c15 7 32-2 29-14-3-10-22-19-32-16m572 2q-31 5-9 41c14 23 44 33 55 18 4-5 3-22 0-30-11-27-22-34-46-29m-406 0c-16 3-17 24-1 24q8 0 16-11 7-16-15-13m330 3q-10 3-3 19c8 12 23 20 29 15 5-6-2-26-11-32-3-2-11-3-15-2m-101 2q-13 8 1 16 14 7 20 2c12-11-7-26-21-18m-36 1c-8 3-5 13 4 13q7 0 7-6-2-9-11-7m-154 5c-5 4-2 13 3 13q9-1 10-8c-1-6-8-9-13-5m248 2c-6 4-3 10 5 10 7 0 9-7 3-10q-4-3-8 0m-205 5c-20 9-23 37-5 46q8 4 15 0 8-3 9-8l2-2c5-5 3-22-2-30-6-9-9-10-19-6m-198 2q-4 5 2 9c7 5 15-2 9-9q-6-5-11 0m146 7c-16 5-28 19-26 31q3 21 26 20c16 1 28-14 26-28-2-10-10-23-16-23zM1 232c0 14 0 14 2 11q3-9 0-19l-2-6zm119-13q-12 7-3 17 9 9 18 4c12-8-1-27-15-21m166 3q-10 9-3 19c4 6 12 3 16-7s-5-18-13-12m-122 7c-2 4 4 10 9 10q3-1 5-6c0-6-12-10-14-4m70 1c-13 4-18 16-10 24 6 6 9 6 18 1 14-8 7-30-8-25m123 1c-15 7-8 31 8 28 9-1 14-11 11-22q-4-12-19-6m134 0c-12 8-6 26 11 28 11 2 21-11 17-20-4-8-20-13-28-8m-23 0c-8 4 0 14 9 11q8-5 0-11zm-277 4q-7 7 3 11a6 6 0 1 0-3-11m229-1q-13 3-10 13 1 17 22 12l10-2q7 0 9-4c4-8-5-17-19-19zm255 2q-5 7 5 10l4 2 1 3q3-2 2-5v-4c1-7-7-11-12-6m-664 2q-3 3-1 5a6 6 0 1 0 1-5m313-1c-4 1-4 7 0 10q7 6 11-2c2-4-7-10-11-8m-277 2c-4 5 0 12 6 12q11-2 6-11c-3-4-10-4-12-1m452 2q-3 6 4 7 7-1 4-6-3-3-8-1m230 1q-8 9 12 24c17 11 28-5 13-20-6-5-20-8-25-4m-197 1q-6 8 5 11c5 1 8-6 4-11q-5-5-9 0m-448 0q-16 9-6 22c17 20 34 15 26-7q-7-19-20-15m498 11c-7 6 2 14 10 8q4-3 1-8-5-3-11 0m-418 1c-15 8-6 39 11 39 12 0 16-12 10-27q-9-17-21-12m-142 3q-14 13 1 19c19 9 34-5 21-18-5-5-5-5-11-5s-6 0-11 4m518 2c-7 3-9 14-5 22a65 65 0 0 0 22 18c2 4 15-1 19-7 10-13-20-41-36-33m-272 3c-6 2-2 11 5 11 6 0 8-6 3-10q-2-3-8-1m-69 2c-14 8-7 28 8 27q18-4 11-19-8-14-19-8m105 0c-13 7-18 25-12 45 5 15 26 29 45 29q14 0 21-17c8-16-7-45-29-56-6-3-20-4-25-1m87 0q-4 7 2 9 12 0 6-9-5-4-8 0m311 0c-6 6 2 14 9 9q6-3 0-8-5-6-9-1m-567 0-3 6c0 6 11 8 14 4 3-6-5-14-11-10m32 4c-2 5 4 14 9 13 2-1 1-9-2-13q-4-6-7 0m505-1c-5 2-5 9 0 11a6 6 0 1 0 0-11m-319 1c-6 5 1 14 8 11q4-5 0-11zm194 1c-6 6 4 19 14 19l6 1v-5c0-9-15-21-20-15m-32 2q-4 7 6 8 7-2 4-8c-1-2-7-3-10 0m-37 1q-7 5-9 12c0 13 27 29 41 24 13-5 9-24-6-34q-14-8-26-2m-167 1c-5 0-11 7-11 12q-1 15 3 26c1 3 9 9 15 12q32 14 33-15c0-18-23-38-40-35m-78 2q-5 5 1 9c7 7 15-1 8-8q-4-6-9-1m357 3q-11 6-5 19a13 13 0 1 0 23-13c0-6-12-10-18-6m-536 2c-5 2-4 8 1 10 5 3 12 0 12-4s-8-8-13-6m438 0h-4c-11 3-6 12 9 17q11 4 9-5c0-7-9-14-14-12m136 0q-4 3-2 8 6 3 10 1c5-5-2-11-8-9m-224 4c-14 6-14 22 0 29 12 6 29-4 27-15-2-10-17-18-27-14m335 4c-5 3-1 11 7 11q6 1 6-5c0-6-8-10-13-6m-292 2q-7 10 6 13 12-2 5-12-5-6-11-1m201 3q-12 11 3 24c11 10 31 3 30-11-1-10-12-18-23-18q-6-1-10 5M3 291H0v31h3l8 1c21 3 26-20 7-30-5-3-7-3-15-2m702 3q-5 1-2 8c2 3 8 4 10 1 3-4-1-10-8-9m-298 2c-6 6 2 13 10 9q6-3 1-9c-2-3-9-3-11 0m-326 2c-5 5 2 14 9 11q6-4 0-10-6-5-9-1m93 4c-7 6-6 16 2 20 10 5 23-8 16-18q-9-11-18-2m200-2q-6 4 0 9 5 5 9 0 5-6-3-10c-4-1-3-1-6 1m388 0q-17 9-17 26 0 19 19 22 5 0 5 2 1 1 1-5 2-7-7-7-10-4-7-17c1-4 9-12 12-12l1-5q2-9-7-4m-649 1q-19 5-19 24 1 23 24 26c20 1 39-22 31-38q-4-10-16-12c-9-2-9-2-20 0m124-1c-22 2-19 28 5 35q12 3 19-4c8-8 7-20-3-27q-3-3-12-4zm36 1-2 4c0 4 10 7 12 3a6 6 0 0 0-10-7m383 1c-4 4 3 12 10 11q9-3 3-10c-4-4-11-4-13-1M3 305q-3 7 8 8 5 0 6-5c0-6-10-8-14-3m551 0q-9 5-4 10c6 4 15 3 15-1s-5-11-8-10zm53 4c-11 6-14 19-6 27 10 11 22 8 26-6s-8-27-20-21m-370 2c-5 2-4 9 3 11q15 6 13-4-1-7-8-7zm-191 2q-12 5-9 15c5 19 30 18 30-1 0-12-10-19-21-14m69-1c-12 3-15 16-6 24q5 6 15 4c12-1 21-18 14-26-2-3-2-3-11-3zm586 2c-8 4-12 14-6 21 13 15 35 3 26-14q-7-12-20-7m-243 1q-23 12-8 51 6 18 27 20 23 4 30 0c4-3 7-12 6-19a79 79 0 0 0-19-34l-11-12q-12-12-25-6m153 6c-4 2-2 10 3 10s6-9 2-11q-2-2-5 1m-408 4q-6 5-1 8a6 6 0 1 0 1-8m260 0q-11 4-5 28c3 18 10 24 31 25 9 0 10 0 12-2a18 18 0 0 0-1-18l-1-3-1-1-12-19c-4-5-19-12-23-10m242 0q-3 5 3 6 7-1 3-6-2-4-6 0m-190 3q-5 8 5 11c7 1 11-6 6-11q-6-4-11 0m127 4q-4 3 0 7c5 5 11 2 10-4q-3-7-10-3m37 1c-4 3 0 11 6 11 7 0 8-8 1-11q-4-3-7 0m-285 1q-6 3-6 9 1 7-10 5c-24-2-27 23-5 34 6 3 21 5 26 4q10-2 13-9c3-7 3-9-4-17q-6-6 1-9 9-6 5-12-6-11-20-5m165-1q-20 7-10 31c4 12 17 19 27 16q17-9 9-31-9-22-26-16m-403 3c-4 3-1 9 5 10q10 2 4-9-4-5-9-1m141 3q-4 6 5 8 9-1 6-8c-1-3-9-3-11 0m134 2q-4 4 1 7c4 4 11 1 10-4s-8-7-11-3M1 346v6l5 1c10 2 22 12 22 18 0 8-13 10-22 4q-7-7-6 3l1 5 4 3c11 5 26 3 33-6 8-12-4-30-25-37-11-4-12-4-12 3m200-4c-10 4-21 13-23 19-2 11 7 28 18 33l5 3h-4l-7 2-5 2-4 4c-5 8 2 19 16 25q7 1 2 7c-4 8 5 20 18 24l7 3 3 2-3 1-8 4c-16 6-21 23-10 38l2 3h28c36 0 41-1 48-12 4-8 4-13-3-23q-9-9-35-13h-10l3-3q8-10-6-23-9-7-15-8-6 0-3-7c5-9 0-20-12-25q-3-1 0-2c23-5 34-22 26-42-4-9-18-15-28-12m55 3q-5 4 1 8c8 8 18 2 11-6q-7-7-12-2m305-1c-6 4-4 19 2 25 3 2 10 1 13-2 8-8-6-29-15-23m169 2c-4 4-1 10 5 10q11-1 5-10-5-4-10 0m-74 5q-11 6-8 16c5 21 20 31 34 23 26-14 0-53-26-39m-574 2q-3 6 2 8c5 4 12-1 9-6q-5-6-11-2m201-1c-3 0-9 6-10 10-2 12 6 23 17 23q23-2 15-20-9-15-22-13m59 0c-6 2-6 11 1 11q8 1 9-2c5-5-3-12-10-9m-142 3q-16 7-7 24c6 11 20 8 27-7 7-13-6-24-20-17m425 1c-4 2-4 8 1 10q13 2 6-9-2-3-7-1m-575 2c-3 2-3 8 0 10 4 3 12 0 12-5 0-6-7-9-12-5m321 1q-3 4-1 9c4 7 26 12 32 8 5-4-4-16-12-17l-7-1q-7-2-12 1m290 2c-7 7 5 25 14 20 9-4 9-17 0-21q-9-3-14 1m-374 1q-5 4-2 9c3 7 12 4 11-3q-2-9-9-6m241 4q-5 4 1 9c7 6 15-2 9-9q-5-4-10 0m-415 2c-10 5-10 18-1 23 7 3 22-3 22-10 1-12-9-18-21-13m598 0q-4 4 1 8c6 7 13 0 8-7q-5-6-9-1m-467 3q-4 3 0 8c3 4 11 3 11-2s-7-8-11-6m-94 1c-3 3 1 10 7 10q4-1 5-5c0-4-9-8-12-5m600 5c-4 3-1 9 4 9q10-1 3-9-3-3-7 0m-429 1q-3 3-2 8c4 5 12 4 12-2 0-5-6-9-10-6m105 7c-4 3-1 9 5 9q7 0 4-6-3-7-9-3m158 0c-7 3-4 11 4 11q5-1 6-5c0-4-6-8-10-6m-214 3q-5 3 1 8c6 5 13-2 7-8q-3-3-8 0m254-1c-5 3-4 10 2 12q7 2 9-3c1-7-6-12-11-9m-110 2c-5 2-1 11 5 11 5 0 6-7 2-10q-3-3-7-1m-447 3q-3 3-1 5a6 6 0 1 0 1-5m397 1q-2 4 1 8c5 5 14-1 9-6q-6-5-10-2m267 0c-12 4-15 18-7 26 13 13 35 7 35-9q2-14-21-17zm-462 6c-11 10-7 27 8 30 9 1 11 0 16-4q5-7 2-18c-4-10-18-14-26-8m272-2c-16 6-2 30 16 26 18-3 10-26-8-27zm-526 2c-4 3 0 8 4 6a4 4 0 1 0-4-6m80 1c-3 2-8 9-8 12s6 11 9 12c17 8 33-2 26-16-4-8-20-13-27-8m599 0q-6 4-1 9 6 3 8 0c6-4-1-12-7-9m-300 3q-10 12 3 26c15 15 31 2 22-16-6-13-18-17-25-10m206-1q-11 8 4 25c10 11 30 8 30-5 0-5-8-17-14-20-5-3-16-3-20 0m-257 1q-5 3 1 9 5 3 8-1c3-5-3-10-9-8m-114 2q-4 3-5 8c0 5 11 8 14 4 5-5-3-16-9-12m504 0q-4 2 0 9c4 5 16 3 16-2 0-6-9-10-16-7m-75 1c-3 2-4 9 0 11q5 3 10 0c8-5-2-15-10-11m-616 1c-7 4-5 12 4 12q6-1 7-7c0-2-8-6-11-5m109 2-2 4c0 7 10 9 14 4 3-6-6-13-12-8m125 0q-4 4 0 8 8 6 9-4-1-9-9-4m205 0q-5 3-6 10c0 10 18 18 25 11 10-10-6-28-19-21m66-1c-3 2 3 7 7 5v-4c-1-2-6-3-7-1m-444 2c-5 4 1 9 6 6a4 4 0 1 0-6-6m90 0c-2 5 6 12 10 9a7 7 0 1 0-10-9m415 3c-1 2 3 8 6 10 6 5 9-3 4-9-3-3-9-4-10-1m-206 2c-1 3 4 8 6 5 2-1 0-6-3-7zm-96 1c-4 3-1 9 5 9q6 1 6-5a6 6 0 0 0-11-4m-295 3q-17 9-3 32c7 13 26 22 33 16 19-15-8-58-30-48m425 0q-4 4 0 7c5 4 11 1 9-3q-2-7-9-4m137 5c-4 3 0 10 6 10s7-9 1-11q-3-2-7 1m-257 5c-23 13-14 43 18 59 10 5 24 9 32 9q5-1 2 7-5 9 4 8 7 1 7-2 0-2 3-2l4 2c1 2 12 3 12 2 0-4-8-12-13-14-4-2-4-2 3-9 9-9 12-24 7-35-2-6-15-19-21-22-11-5-15-6-34-6h-18zm204-1c-6 2-15 11-18 20q-7 21 12 44c5 5 18 10 25 10q6 0 1 6l-3 4h5l11-1h13l18 1c11-1 11 0-4-7l-18-5q-6-1 0-10t2-23q-3-7 3-3 7 3 9-2c3-7-6-11-11-6l-3 3-1-2c-2-6-19-27-22-28-4-2-14-2-19-1m-502 2c-6 2-4 13 4 22 11 12 18 1 9-14q-7-12-13-8m53 1c-7 2-7 11 0 12 7 2 12-4 8-9q-3-5-8-3m630 1c-6 2-4 9 3 10q10-1 3-9-3-3-6-1m-601 3c-2 0-4 6-3 7 0 2 6 4 9 4q3-1 4-5c0-4-6-8-10-6m150 1q-3 7 7 9 8-2 3-8-5-3-10-1m89 0-11 1c-21 0-18 24 4 39 21 14 46 14 53 1 7-14-3-34-19-38q-16-5-27-3m336 0q-15 4-19 26c-2 9 1 24 5 29q6 6 15 1c16-10 22-50 9-55q-6-3-10-1m-515 2q-6 1-9 8c0 2 5 14 8 18 14 17 34 4 24-15q-6-13-23-11m361 2c-21 14-6 54 18 52 20-2 21-21 2-46q-9-14-20-6m224 1c-5 3-1 10 6 10s9-6 3-10q-5-3-9 0m-531 0q-4 5 2 9c7 5 15 3 12-3q-6-8-14-6m270 1q-5 4 1 8 5 4 9 0c6-6-4-14-10-8m-368 2q-17 10 2 33c9 11 22 10 28-3 8-16-14-38-30-30m287 1q-5 3-2 8c7 5 16-1 10-7q-4-4-8-1m232-1q-4 7 3 11c7 2 11-5 6-10q-5-3-9-1m129 1q-12 9-8 24 4 12 9 16l4 4v-8l-2-13v-8c2-4 3-17 1-17zm-328 0q-7 6 1 11c7 3 11-3 7-8q-5-5-8-3m238 5c-5 5-8 17-6 26q0 4 4 4 3 2 7-10c2-3 3-13 3-17q-2-8-8-3m36 0c-12 6-6 24 9 24 8 0 8 0 11-5 9-13-5-26-20-19m-544 0q-3 2 2 7 3 4 4 2c5-4 0-12-6-9m301 4c-15 3-17 19-5 30 11 9 32 5 32-7 0-14-15-27-27-23m-345 1c-3 5 2 17 8 19 4 2 8-4 6-10-2-8-12-14-14-9m-65 1q-9 7 1 20c9 13 29 11 29-3 0-11-22-23-30-17m226 0c-7 5 0 15 7 10q7-4 2-9-4-6-9-1m315 1q-13 4-16 16c-2 7-1 8 3 17q6 11 17 19c6 4 22 5 26 1l5-4c11-9 9-29-4-42q-14-13-31-7m-403 6c-6 3-3 11 4 11q5 1 6-5c2-4-5-8-10-6m273 2c-5 5 0 13 9 13q9 0 5-8-6-10-14-5m-49 1q-8 3-8 8-4 13 13 19c8 2 8 2 5 8l-3 8-1 3h6q5 1 6-2c3-8 19-8 29 0 3 2 13 3 13 1 0-5-16-14-28-17-8-2-8-2-8-5 0-9 0-12-3-17q-8-11-21-6m181 1c-5 3-6 4-7 11q1 12 13 22c19 13 32-12 16-30-4-4-4-4-12-5q-8-1-10 2m-534 0q-1 1 1 4 6 5 7 2c1-5-5-9-8-6m-53 7q-6 9 5 10c6 0 9-6 4-10q-4-4-9 0m227 0-9 2q-24 7-18 25c3 6 19 9 33 6 25-6 28-7 28-16 0-6-1-7-8-12q-12-8-26-5m183 1q-4 6 6 8 4 1 3-3 0-6-5-6zm-267 5q-7 5-1 11 7 5 11 1c5-6-2-15-10-12m581 1q-4 2 0 6a5 5 0 1 0 4-8zm-688 3c-5 4-3 10 5 10q10-1 5-10-5-4-10 0m251 2q-5 2-1 6 4 3 7 1c5-3 0-9-6-7m-283 5c-16 4-17 5-17 14v7h4q6 1 5-3 1-6 13-8 10 0 12 8-2 4 6 3c6 0 6-1 2-11q-6-16-25-10m88 0q-3 3-1 6c3 8 15 5 15-3 0-5-9-7-14-3m377 3c-6 5-2 13 6 12q6-1 6-7c0-6-7-9-12-5m226 1q-7 1-16 7-6 4-7 2c-8-6-9-6-12-3-4 4 0 11 6 10h4c1 3 12 1 15-2 6-8 29-8 40 1 3 2 4 2 11 2h8l-3-3a58 58 0 0 0-46-14m51 0c-3 4 2 11 8 10 3-1 3-9 0-10zm-605 3c-8 1-23 10-23 13 0 2 14 1 17-1q1-2 15-2l12-1 4 2c5 3 20 4 19 2s-14-11-18-12c-5-1-19-2-26-1m159 1c-14 4-16 5-18 8l-2 4c0 2 12 1 16 0 6-3 16-4 19-1 4 3 28 3 27 0l-1-2c0-2-6-4-10-3-5 1-5 1-8-1-7-7-12-8-23-5m-222 5q-8 2-11 5l-2 3h33l-2-2q-7-8-18-6m316 2q-9 6 6 6 14 0 6-7-6-5-12 1m95 3q-11 4 4 3 15 0 5-3zm146 1q-4 2 6 2t8-1c-2-2-12-2-14-1"
        mask="url(#16282281824-posters-1720559937265-radial-mask)" itemprop="regular" fill-opacity="0.90"
        fill-rule="evenodd" stroke="none" fill="url(#16282281824-posters-1720559937265-horizontal-regular)"></path>
      <!---->
      <path id="16282281824-posters-1720559937265-medium"
        d="M0 7v7l4-1 7-2q3-3 7-1c22 10 40 8 45-6l2-4h-6q-6 0-7 2c-3 8-20 8-28 0-2-2-3-2-13-2H0zm112-6c-2 4 7 14 13 15q12 1 15-12V0h-13zm99 2q-6 7-7 14c-5 17 22 35 39 25 15-8 22-23 16-34-5-8-4-8-26-8h-20zm67 0c0 15 25 16 28 0l1-3h-29zm58-1c-5 8-1 19 9 24q15 6 26-5c6-6 5-9-2-17l-3-4h-14c-14 0-15 0-16 2m52 1q0 5 7 6 6 0 5-6c-2-4-11-5-12 0m23-2c0 3 7 13 11 17 13 10 33 14 44 9q17-8 14-22l-1-5h-5q-6-1-4 3c5 13-8 19-27 15-10-3-23-13-23-17l-4-1zm121 1c-11 8-8 32 7 55 11 18 19 24 32 21q20-3 13-28c-3-15-24-45-33-48l-2-1c0-2-14-1-17 1m145 0a5 5 0 1 0 10 1q1-4-5-3-5 0-5 2m78-1c0 2 6 7 10 8l4 1V0h-7zM160 4c-10 9-6 24 10 30q7 2 7 6c3 7 11 9 15 5q5-5-3-13-4-3-3-8c0-15-16-28-26-20m66 0c-15 7-15 24-2 31 8 4 24-4 27-13 2-11-14-23-25-18m121 3q-4 6 3 10a6 6 0 1 0 8-9q-7-5-11-1m368 0q-13 6-11 15c1 3 10 10 14 11 10 1 20-6 19-13-2-10-12-16-22-13m-176 3c-8 3-3 28 11 49q10 14 20 11 6-3 7-10a86 86 0 0 0-23-43q-8-10-15-7m37 1c-4 4 2 10 6 6q3-2 1-5-4-5-7-1m-260 0c-2 0-4 5-2 7 2 4 11 2 11-3q-1-6-9-4m329 2q-3 5 5 6 4 0 4-3c1-5-7-7-9-3m-44 3q-12 3-10 17c1 12 13 24 24 25 9 1 19-5 20-14 2-19-17-35-34-28m116 0q-5 5 3 8c6 3 11-5 6-8q-4-4-9 0m-550 1q1 6 5 7 3-2 1-7-4-4-6 0m325 2q-4 1-3 5c1 4 8 5 11 2 5-5-2-11-8-7m-211 4c-5 1-5 8 0 10 8 2 12-6 5-10l-3-1zm325 1c-13 5-3 26 11 26q9-1 10-8c1-11-1-14-11-17q-7-3-10-1m-493 5q-18 7-4 37c13 27 53 13 44-15q-5-17-17-20c-8-2-19-3-23-2m564 0q-13 3-9 14 22 42 43 27c4-5 4-5 4-11q0-16-15-25l-18-6zM38 31q-5 8 5 9 8 0 8-5c0-6-9-8-13-4m726 1q-10 5-10 15c0 10 5 22 11 25l4 3V59c-1 4-4-3-5-10q0-6 2-8 3-2 3-7 0-6-5-2m-460 1c-14 5-18 20-11 36 5 10 5 10 15 15q7 3 6 4c-7 2-6 12 1 12q10-1 3-11-3-2 6-2 34 0 33-20-1-24-34-32c-13-3-14-3-19-2m82 2q-4 6 4 8 9 0 4-7-3-4-8-1m31 0q-3 2-1 4c3 4 9 4 10 0q-1-8-9-4m260 2q-6 4 7 19c11 13 26 11 22-2-3-9-23-21-29-17m-317 2-4 4q-3 3 1 5c4 5 11 4 11-3q-1-7-8-6m-241 1c-5 1-7 10-3 16 3 7 11 15 15 15 11 0 17-15 9-23-5-6-15-10-21-8m353 2c-9 10 2 27 16 26q10 0 9-10-1-16-17-19c-5 0-5 0-8 3m-219-1c-5 3-3 10 3 12 6 3 10-5 4-10q-2-4-7-2M10 44q-5 3-5 12 1 3-2 3-2-1-2 7 0 10 5 4 3-6 9-1c16 8 30-3 23-17-4-9-19-13-28-8m293 1c-8 9 0 27 13 31h23c19-4 8-27-15-32-14-3-18-3-21 1m344 0q-3 6 5 8c5 1 8-4 4-7-1-2-7-3-9-1M70 48q-5 9 5 11 11-2 5-11-7-4-10 0m661 2a6 6 0 1 0 8 9 6 6 0 0 0-8-9m-283 1c-5 3-3 9 3 9 7 0 8-6 3-8q-4-3-6-1m63 1q-5 3 0 7c3 5 12 3 12-2s-8-8-12-5m-294 5q-15 12-1 28 12 13 24 6l7-2q7-1 9-4-1-5-8-8-5 0-8-8-8-20-23-12m189 0q-10 10 0 19c13 12 30 7 26-8-3-12-17-19-26-11m-134 3-2 3c0 5 7 8 12 6 6-5-3-13-10-9m-105 3q-3 3-1 8c3 3 11 1 11-4 0-4-6-6-10-4m246 1c-3 4 2 10 7 9 3-1 4-7 1-9zm-190 3c-4 4-2 12 4 14 8 3 7-10 0-15q-2-2-4 1m159 3c-5 2-2 10 4 10 7 0 8-7 2-11q-3-2-6 1m292 0q-5 2-4 8c3 4 13 3 13-3q-1-7-9-5m60 1c-14 2-23 16-18 27 10 19 31 18 44-2q9-13-8-22-10-4-18-3m-237 6q-14 9-10 24c3 10 23 24 33 24 22 0 19-35-4-48q-10-6-19 0m122-1c-7 2-9 12-4 19 7 13 25 16 30 6 7-13-12-30-26-25m-519 2q-5 8 4 9 10-1 3-9-4-4-7 0m361 2q-4 3 0 8c3 4 11 2 11-3 0-3-8-7-11-5m276 0q-14 4-11 14c2 10 16 11 23 1s0-18-12-15m-576 2c-18 4-23 20-9 29 12 8 31-1 31-13 0-8-13-18-22-16m31 1c-4 4 1 11 8 11q7-1 5-7c-2-4-10-7-13-4M42 86c-10 3-13 24-5 40 12 24 40-3 28-28q-7-16-23-12m232 1q-9 5-3 20c5 13 32 9 30-6-2-12-16-20-27-14m227 0q-5 2-4 8l2 6 1 2c0 3 14 13 18 13l4-3c6-5 4-20-4-25-5-3-14-4-17-1m44-1q-3 8 6 9 4 0 4-3c0-5-6-9-10-6m79 0q-3 0-1 5c3 7 11 9 14 3s-4-11-13-8m-466 6q-8 11 5 12c8 0 11-7 6-13q-5-5-11 1m194-2q-5 4-4 8c3 5 14 3 15-2q-2-8-11-6m237 2q-5 6 2 10a6 6 0 1 0-2-10m-308 2c-4 4 0 11 5 11q4-1 5-5c0-5-7-8-10-6M14 97c-5 2-3 7 3 7q10 0 5-7-2-3-8 0m62 0c-6 2-3 10 4 10q9-1 4-9-3-4-8-1m375 0a15 15 0 0 0 1 29l8 4c18 9 31-1 23-18-5-10-24-19-32-15M46 98c-6 4-2 27 5 25 6-2 8-19 3-24q-5-3-8-1m635 1c-4 3-1 10 5 10q9-1 4-10-5-4-9 0m-269 0a6 6 0 1 0 9 1q-4-3-9-1m-39 3q-12 9-1 21c7 8 25 2 25-7 0-13-14-21-24-14m187 3c-9 4-10 8-6 30 1 7 10 17 17 19 4 1 13-6 16-13 6-15-14-42-27-36m-433 2q-6 9 6 10 10-1 5-10-5-4-11 0m327 0q-9 9 11 16c12 3 15-10 4-15-4-2-13-2-15-1m-214 1-25 7q-28 6-25 24c1 7 1 8 6 15l3 7q0 3 6 4l10 4c17 8 38 4 49-9 10-11 12-19 8-33s-18-23-32-19m85 1q-9 4-6 16 3 7 13 11 6-1 2 9c-3 8-2 8-8 5q-19-7-21 12c0 13 16 15 27 4 5-5 5-5 12-2 17 7 36 2 36-9 0-9-13-19-26-22q-8 0-7-9c-1-12-12-20-22-15m54 2q-2 2 1 4 5 4 6-1-1-7-7-3m-286 5q-6 4-5 12c1 15 26 18 29 4 3-11-13-22-24-16m471 1c-5 5 1 25 7 25 7 0 10-15 4-22q-8-7-11-3m77-1a6 6 0 1 0 10 5c0-4-6-7-10-5m-405 3-8 2-12 4c-12 2-14 4-14 12-1 25 39 35 57 15a20 20 0 0 0-23-33m170 0c-4 3-6 6-12 19-6 14-7 17-2 27 6 12 12 17 26 22 4 2 4 2 0 8q-7 14 6 24 7 3-4 5-23 3-20 20 3 31 33 24l10-2c18 0 24-18 11-32q-8-9 1-8 3 0 7-4c10-11 6-26-9-34-10-5-10-6-6-12q4-5 5-9a43 43 0 0 0-8-24c0-2-20-21-25-24q-9-4-13 0m341 2c-9 8 0 22 17 26q6 1 5 5 1 4-4 4c-14 4-16 5-20 10-7 12-4 18 15 33 10 7 10 6-1 11q-3 2-11-1-3-2-6 1-6 5 3 9 8 4 9 12 3 6-7 2c-5-2-19-2-23-1-22 9 2 48 29 48q9-1 14-6c4-4 3-22-1-27q-5-8-2-8 4 0 5 5v-51l-5-3q-11-8-12-14c0-5 8-11 15-11q3 2 3-19 0-11-1-10 0 3-4 2-10-3-9-9c1-2 8-2 11-1q3 3 2-4 2-8-13-7-6-1-9 4m-593 2-3 4-3 5c-8 11-1 34 12 37 24 8 32-31 9-46q-9-6-15 0m553 0c-5 3-1 9 6 9q5 0 5-5-2-9-11-4m-608 1a5 5 0 1 0 7 1q-5-3-7-1m196 5c-6 4 4 12 10 8q6-3 1-7-4-5-11-1m114 1c-7 9-11 22-8 30q10 25 34 13 12-7 6-18c-9-19-25-32-32-25m198-1c-9 1-15 11-11 19 6 16 31 14 31-2q-1-17-20-17m54 4q-19 10-7 28c8 9 26 11 33 2 16-17-4-41-26-30m-651-1c-9 2-9 1-9 16 0 17 2 20 15 23 19 4 26-28 8-37-6-3-8-3-14-2m148 0c-6 8-3 24 4 28 11 5 16-19 5-27q-5-3-9-1m330 6c-13 4-20 25-14 38q12 24 35 17l7-2 1 8c0 7 0 9 3 15 8 16 32 30 43 25q17-10 1-37-15-26-40-15-7 4-3-6t1-20c-2-5-8-16-10-16l-4-3q-9-6-20-4m45 1c-4 6 7 13 11 8q4-3 0-8-6-4-11 0m75 1c-5 5 1 12 8 8q4-2 1-7c-1-4-7-4-9-1m60-1c-3 1-9 9-9 12q2 4 9 9c6 2 14-2 15-9q2-6-5-10c-5-3-5-3-10-2m-212 2c-5 5 1 12 7 8q6-3 1-8-5-4-8 0m-333 2q-7 9 4 11 12-1 5-11-4-6-9 0m-113 2q-6 7 2 13 9 3 11-7c1-6-8-11-13-6m336 0q-7 8 8 12 18 3 14-8c-3-5-18-8-22-4m145 3c-16 7-10 34 8 38 11 2 20-17 12-29-4-6-15-11-20-9m-408 2q-5 9 5 10c9 0 8-10 0-12q-4 0-5 2m649-1q-4 4-3 9c2 7 15 3 15-4 0-5-7-8-12-5m-451 8q-4 4 0 7c4 4 11 1 11-3q-1-6-6-7-3 0-5 3m423 1q-2 2-1 4c1 5 9 6 11 2 3-5-7-11-10-6m-653 2c-6 6 3 14 10 9q5-3-1-8-5-6-9-1m70 3-6 1c-7 0-17 5-20 10-4 7 1 22 11 30 7 6 7 6 2 11q-7 6-7 15 0 6-7 3-14-5-25 9c-9 11-8 19 6 33q29 28 40 4 4-9-1-22-6-14 2-7c5 2 18 2 23 0 13-7 14-21 4-33-6-7-5-8 3-13q9-6 11-13c1-4-1-14-4-18-4-6-23-12-32-10m517 0q-3 8 6 9 6-2 3-8-5-3-9-1m-48 1c-5 4 0 10 7 10q6 2 5-3c0-6-8-10-12-7m-396 1q-7 3-3 9 9 6 11-4-1-6-8-5m487 11-11 11q-8 9 2 25c4 5 11 12 13 12l4 3c7 8 24 7 34-1q9-9 9-22c0-8-3-12-14-20l-13-8c-6-5-7-5-12-5s-6 0-12 5m-566-2q-15 3-10 14 10 18 35 8c21-10 1-28-25-22m219 1q-21 8-21 30-1 12 6 18l4 4 10-1c12 0 16-1 26-10 12-10 12-28-1-35q-14-10-24-6m217 1q-2 7 6 9 8-1 3-9-4-4-9 0m-291 0c-14 4-9 29 5 29 16 0 24-18 12-26-3-3-12-4-17-3m118 1c-5 3 1 12 8 9q5-2 0-9-4-4-8 0m-342 2c-15 6-20 11-22 23q0 10 7 19c5 5 9 7 28 12l7 1 7-3q14-7 18-18 4-7-12-22c-14-13-21-16-33-12m134 2q-4 3 0 8 9 5 10-3c0-5-6-8-10-5m25 1q-20 12-13 33c5 14 31 16 42 3q12-16 6-30c-4-8-24-12-35-6m418-2q-27 2-31 21c-5 18 18 52 39 60l8 4q14 5 26-1c18-8 19-31 2-61a42 42 0 0 0-44-23m75 3q-16 10-9 23 7 11 15 15c18 8 37-14 23-26q-20-17-29-12m-392 1c-5 4 1 10 8 10 5 0 7-6 3-9-2-2-9-2-11-1m38 2c-10 5-15 20-8 27 5 5 9 5 20 0q15-7 11-20c-3-6-16-10-23-7m-297 3c-13 3-17 17-8 25 11 10 33 10 40 0 8-12-15-30-32-25m581 0q-29 2-27 21c1 5 6 17 10 22l2 4c0 3 11 12 20 16q21 12 32 0l4-5v-12c-1-13-2-16-8-27-10-17-16-20-33-19m-416 2c-16 4-15 25 1 25q8 0 16-11c8-11-1-19-17-14m233 3q-8 4-9 10c0 8 22 16 28 10 11-10-4-25-19-20m95 2q-6 5 0 16c11 19 32 24 32 8 0-5-5-17-9-22-6-6-18-7-23-2m-135 3q-6 9 6 10 5 1 6-2c4-7-6-13-12-8m-151 3q-6 4-1 9c6 7 16 0 11-7-2-2-8-3-10-2m248 2q-6 3-2 8c7 6 16-1 9-7q-3-5-7-1m-200 4q-18 5-22 20c-5 25 20 38 35 19 10-14 1-42-13-39m-203 3q-4 4 0 8 9 6 11-3c0-6-7-9-11-5m33 7q-16 7-6 19 11 11 21 2c9-8-3-25-15-21m111 1c-17 6-27 19-24 31 4 14 8 18 23 19 9 0 9 0 13-3l6-4c12-8 11-27-1-39q-7-7-17-4M1 232q-1 19 3 6c1-5-1-19-3-19zm283-9c-8 6-5 22 4 22s16-16 10-23q-6-5-14 1m-118 5q-4 4 2 8 8 5 9-3c0-5-8-9-11-5m64 3c-12 6-14 18-4 25 11 9 29-7 23-21q-7-9-19-4m131-1c-11 3-15 14-9 24 7 10 25 4 25-9q-1-19-16-15m133 0c-12 4-11 20 1 26 16 9 33-10 19-22q-9-6-20-4m-27 3c-5 5 3 11 10 9q4-2 3-6c-1-5-10-7-13-3m-275 2c-5 4-4 10 3 10s9-9 2-11c-3-1-2-1-5 1m225-1c-6 3-7 4-8 11 0 7 0 7 4 11l4 4h8c19-2 22-3 25-6q3-5-1-13c-4-6-23-10-32-7m259 2c-4 3-1 9 5 9q4 0 3 2l1 2q1 2 1-6-1-12-10-7m-664 2c-5 5 2 12 8 7q5-3 0-7t-8 0m35 2q-5 3 1 8c3 4 12 4 12-1 1-9-8-14-13-7m275-1v4c2 8 13 8 13 0 0-4-11-8-13-4m178 1q-4 1-2 5 2 5 8 3c6-4 1-11-6-8m228 2c-9 6 9 28 24 28 12 0 13-14 2-24-6-6-20-8-26-4m-643 0c-10 3-14 15-8 23 4 6 16 14 21 14a14 14 0 0 0 7-20c0-6-12-20-15-18zm448 2q-5 8 5 9a5 5 0 1 0-5-9m49 11q-4 3 0 7c2 2 8 1 10-1 6-5-3-11-10-6m-555 1c-4 1-11 11-11 14 0 5 14 11 22 9q17-6 4-21-8-7-15-2m136 0c-11 7-6 31 7 37q8 3 14-4c3-3 3-3 3-10-1-18-13-29-24-23m378 4q-8 3-7 12-1 10 10 19 18 17 31 3c11-12-20-42-34-34m-274 4c-3 4 1 10 6 10 4 0 7-6 3-9q-5-3-9-1m39 1q-11 5-15 19c-6 25 10 48 37 54q21 5 29-15c13-26-26-70-51-58m397 0c-5 4-2 10 4 10 7 0 8-8 1-11q-2-2-5 1m-566 0a6 6 0 1 0 9 7c0-4-6-8-9-7m62 1c-12 6-8 25 6 25s18-10 10-21q-7-10-16-4m193-1c-5 3 0 10 6 8 3-1 3-7-1-8zm-224 2c-5 4 2 17 7 15 4-1 3-9-1-14q-4-5-6-1m185 3c-5 3-1 10 5 10q5 0 5-6-1-5-6-6zm193 0q-5 7 5 15c12 11 23 5 14-8-6-8-16-12-19-7m124 1q-3 4 0 6c3 3 11 1 11-3 0-6-7-8-11-3m-151 0c-7 1-5 10 2 9a5 5 0 1 0-2-9m-40 2c-17 8-8 28 15 35q22 5 23-10c1-18-22-33-38-25m-169 1q-10 1-11 15-1 22 12 31c24 16 41 12 40-10q0-18-19-31c-3-3-15-7-17-7zm-76 3c-5 4 2 13 8 10q4-4 0-10-5-4-8 0m358 2q-12 7-7 18c5 10 19 11 23 2 3-6 0-17-5-19l-4-2q-4-2-7 1m-106 2c-5 2-5 9 1 13q20 12 20 0c-1-10-12-17-21-13m-433 2q-5 3 1 7 6 5 10 0c5-5-4-12-11-7m574-1q-4 7 6 8 4 0 4-4c0-4-7-7-10-4m-225 5c-16 9-4 33 15 28 4-1 13-8 14-10 3-12-17-25-29-18m339 1c-7 3-3 12 6 12q4-1 5-7-4-7-11-5m-89 3q-12 8-7 18c8 18 35 17 35-1 0-12-18-23-28-17m-205 1q-5 9 7 11 9-1 4-10-5-6-11-1M1 292l-1 15v15l6 1q15 2 20-4c9-11-2-28-18-28zm407 2c-4 2-5 9 0 12q6 3 11-2c5-6-3-13-11-10m295 3q-2 2 1 5c3 4 9 3 9-2 0-6-8-8-10-3m-623 3c-3 4 3 11 9 8q6-2 1-8t-10 0m98-1q-12 6-5 18c7 12 25 1 19-11q-6-10-14-7m195 2q-4 3 0 7c6 5 14 0 10-6q-4-4-10-1m283 0a9 9 0 1 0 16 8c2-7-12-13-16-8m109-1q-21 8-20 27c2 13 5 17 18 20l6 2q1 1 1-4 0-7-2-6c-17 0-17-25-1-30 2-1 3-10 1-10zm-652 2q-16 4-18 18c-4 21 16 36 36 28q14-6 19-23c4-18-14-29-37-23m118 0c-16 10-6 31 15 33s28-23 9-32c-6-3-20-4-24-1m42-1c-4 4 3 11 9 8 3-3 0-9-4-9zM4 303q-5 5 1 9c5 4 12 2 12-5 0-5-9-8-13-4m548 3c-6 3-2 11 6 11q10-1 4-10-4-3-10-1m53 4c-12 9-11 24 3 31 12 6 23-11 17-26-3-6-13-9-20-5m-369 1c-5 3-3 10 3 12l4 1c1 2 7 1 9-1 7-7-7-17-16-12m-119 0q-14 3-14 16c5 22 35 17 38-6q2-14-24-10m-72 2c-14 7-7 28 9 28q6 1 9-4c11-13-2-30-18-24m658 0c-10 3-13 15-7 23 11 12 30 3 26-11q-6-14-19-12m-244 3q-23 11-8 51 3 8 10 14c5 4 34 8 42 6q11-4 10-20c-1-6-9-22-14-27l-7-9q-7-9-16-15c-3-2-13-3-17 0m151 5c-4 4-1 10 4 10q6 0 5-6-1-9-9-4m-149 4q-9 5-5 26c4 18 8 22 24 27q25 6 24-11c-1-9-15-33-23-37l-8-4c-6-4-7-4-12-1m243 0q-3 5 4 6 8-1 4-6-3-4-8 0m-501 0a6 6 0 1 0 9 0zm314 3q-6 3-1 8c6 4 14 0 11-5q-4-7-10-3m125 5c-4 4 2 9 7 8q4-2 2-7-4-5-9-1m37 0v8c2 3 9 3 10 1 3-5-5-13-10-9m-284 1q-6 3-7 10 1 6-11 5c-20-1-25 18-7 30 9 7 30 9 37 4q11-9 2-21c-6-7-6-7 0-12 7-7 7-9 3-14q-5-5-17-2m165 0q-7 1-11 7a11 11 0 0 0-2 12 24 24 0 0 0 32 25q15-10 4-31c-6-12-11-15-23-13m-404 2q-3 2 0 7c2 3 8 4 10 1 4-5-5-14-10-8m142 2c-5 4 1 10 8 8q4-3 1-8zm134 2c-4 2-1 9 4 9q5 0 5-5c0-3-6-6-9-4M1 346q-1 6 6 6c6 1 17 10 20 14 6 11-8 17-21 9q-7-6-6 2v6l5 2c12 6 28 2 34-8 5-11-8-28-26-34-13-4-12-4-12 3m202-4c-11 4-22 13-24 20-3 12 11 33 23 33a29 29 0 0 0 27-40c-2-8-18-16-26-13m357 3c-7 7-1 26 8 26 3 0 9-3 10-6 3-6-2-18-8-21q-7-5-10 1m-303 0q-5 7 6 10c7 2 9-4 3-9q-5-5-9-1m473 1q-4 8 5 9 6 1 6-5c0-4-8-7-11-4m-69 3q-13 4-13 15c1 20 20 34 35 25 16-10 10-33-10-39-6-2-7-2-12-1m-577 4a5 5 0 1 0 6 8 5 5 0 0 0-6-8m258 0c-6 3-4 10 3 10q8 0 8-5a8 8 0 0 0-11-5m-140 1q-18 6-11 23c6 12 19 12 27 0q9-13 0-21-5-7-16-2m80-1c-11 3-11 22 0 29 9 6 25 0 24-9 0-13-13-23-24-20m-229 4c-7 2-6 12 2 12q6-1 7-6 0-3-3-5-2-3-6-1m572 0c-4 2-1 9 4 9s7-6 3-8q-4-3-7-1m-254 2q-2 2-2 7c0 9 32 17 35 8a17 17 0 0 0-19-16c0-2-12-1-14 1m290 1c-7 6 0 21 10 23 7 1 13-8 11-15-3-9-15-13-21-8m-376 3c-4 5-1 12 6 12 6 0 8-7 3-12q-5-5-9 0m243 4q-4 4 1 7 9 5 10-3c0-5-8-8-11-4m-410 0c-14 5-17 19-5 23 8 3 21-3 21-10 0-9-9-16-16-13m593 2q-3 7 6 9c7 0 5-10-2-11q-3 0-4 2m-560 4q-5 3 1 6c6 5 12 0 7-6q-4-4-8 0m92-1c-3 4 3 10 8 9q6-3 1-8-5-3-9-1m507 5a5 5 0 1 0 10 5c0-4-7-7-10-5m-427 1c-6 4-4 10 3 10q8-1 2-8-3-4-5-2m103 8q-3 2 0 5c4 6 11 2 8-4q-4-5-8-1m156 1-2 3q1 4 7 5 6 0 6-5c0-5-7-7-11-3m-212 1q-4 8 5 9 8-2 3-9-4-4-8 0m253 1q-2 1-2 5c2 5 9 7 12 3 4-6-4-13-10-8m-555 2c-4 4-1 10 4 10 7 0 9-6 4-10q-5-4-8 0m445-1c-4 4 3 11 8 8a6 6 0 0 0-8-8m-48 4c-4 2 0 8 5 8s7-6 3-8q-5-3-8 0m266 0c-10 3-14 14-8 22a22 22 0 0 0 32 3c4-4 5-13 2-17-4-6-19-10-26-8m-459 4c-10 7-10 24 0 29 14 6 26-2 23-16q-2-11-12-13c-7-2-8-2-11 0m-256 0c-3 1-3 6 0 7 5 1 9-5 4-7zm175 1c-16 5-14 21 4 29 7 4 8 4 5 8-5 8 4 20 20 26q14 3-1 8-27 12-14 37l3 5h27c35 0 43-2 49-14q6-9-4-21-9-11-38-12-10-1-4-4c10-6-6-30-19-30q-7 0-5-7 6-12-4-21-8-9-19-4m348-1q-9 9 1 20c8 7 24 7 26-2 2-6-3-15-10-18zm-441 1q-9 3-10 13c0 14 27 20 33 7q6-15-11-19l-6-1zm298 3c-10 8-6 23 7 31 5 3 15 1 17-5 6-14-14-34-24-26m205-1c-8 4-6 17 5 27s28 6 27-7c-2-14-19-25-32-20m92 1q-5 5 4 7t4-7q-3-4-8 0m-351 2c-3 4 3 10 8 8q4-3 0-7-4-3-8-1m393 0q-8 2-2 11c7 6 20 1 16-7a15 15 0 0 0-14-4m-508 3q-5 9 5 11 8-1 8-6c-2-7-9-9-13-5m432-1c-6 3-3 12 4 12 8 0 10-8 3-11q-3-3-7-1m-382 2c-6 4-1 14 5 11 3-1 5-7 3-10q-3-4-8-1m269-1q-2 3 1 5 11 5 8-3-4-5-9-2m-504 1c-6 3-4 10 3 10s9-6 4-9q-5-3-7-1m151 1q-5 4 1 8 7 6 11 1c4-7-6-15-12-9m-91 0q-4 6 4 8c5 0 7-6 4-8zm49 1q-4 4 0 7c4 4 12 2 12-3s-9-8-12-4m329 0c-9 8-1 22 13 22q5 1 7-3c9-11-9-27-20-19m129 1c-4 3 3 14 9 14q7-2 1-11c-2-3-9-5-10-3m-207 3v4q8 9 6-2-2-6-6-2m-96 2c-3 4 3 10 8 8q3-3 1-8zm-295 4q-17 8-2 32 8 13 24 16c11 2 17-11 12-27-5-15-24-27-34-21m424 0v4c3 6 12 5 9-2q-3-5-9-2m138 4c-4 5 3 12 9 9q4-3 0-8c-1-2-7-3-9-1m-243 3q-21 0-26 17c-6 21 25 49 57 52q12-1 8 6l-2 7-1 3h6l6-1q0-3 4-4l4 3q2 3 7 2h5l-2-3q-4-6-12-11c-3-2-3-2 4-10a27 27 0 0 0 8-13c6-12-6-35-24-43-12-6-17-6-42-5m188 2c-3 2-11 10-14 15q-9 18 4 38c8 12 13 16 27 19q12 1 5 7l-3 4h6l9-1q7-3 15 0l15 1h10l-12-6-14-5q-6 0-8-4l3-6q5-9 3-25-2-7 2-3c6 3 14-3 8-7q-5-4-9 1l-3 3-3-5c-5-10-16-23-20-25s-16-3-21-1m-502 2c-6 6 4 25 13 27q12 0 4-18-9-16-17-9m52 2c-4 4-1 10 5 10q11-1 5-9-5-6-10-1m632 0q-4 6 3 8 8 2 6-5c0-4-6-5-9-3m-601 4q-4 6 2 7 8 3 8-2c0-6-7-9-10-5m153-1q-4 4 2 8c7 2 10-3 6-7q-4-3-8-1m78 0q-18 0-16 14c0 29 58 51 71 27 8-14-1-33-18-39q-13-4-37-2m192 3q-14 8-11 25c3 23 27 37 40 23 6-6 5-20-2-31q-15-27-27-17m153-2q-18 5-18 33 0 31 18 22 12-6 16-34 2-24-16-21m-517 2q-11 3-1 19 11 19 23 11t0-24c-4-6-14-8-22-6m54 3q-3 6 9 11 7 2 9-3c0-7-15-13-18-8m532 0c-4 5 6 12 11 7q5-3 0-7-6-4-11 0m-260 1q-4 7 6 8 5 1 5-5c0-5-8-7-11-3m-367 1q-12 8-7 20c10 21 27 26 35 12 9-16-12-39-28-32m519 1c-5 5 1 12 7 9q6-2 0-8-4-5-7-1m128 1q-7 3-8 10c-2 9 3 24 10 29l3 2v-6l-1-10c-2-4-2-12 0-14l1-8v-6zm-361-1q-5 3-1 7c5 4 11 2 10-3l-6-5zm31 2a6 6 0 0 0 10 7c4-5-5-12-10-7m239 3c-9 12-8 35 1 30 3-2 9-18 9-26s-6-10-10-4m-507 0-2 2 2 3q3 6 7 4 4-3 0-8-3-5-7-1m548-1c-15 3-12 25 4 25q12 0 14-11c2-10-7-16-18-14m-592 5q-5 8 4 18 6 6 9 0 5-9-4-16-6-7-9-2m345 0c-18 4-15 28 4 34q11 2 18-3c12-11-5-35-22-31m-408 1c-10 4-5 23 8 28 14 5 25-6 16-18-5-7-18-12-24-10m223 3q-4 4 0 7c4 4 13 0 11-5q-4-9-11-2m317-1q-16 4-17 22a41 41 0 0 0 15 25q8 8 20 8a14 14 0 0 0 14-5c11-7 11-26 0-40q-12-15-32-10m-405 8q-4 5 2 8 8 3 9-5c0-5-7-7-11-3m273-1c-6 8 5 19 14 14 4-2 1-11-4-13q-6-3-10-1m134 2q-9 5-9 14c0 5 8 16 14 20 19 13 33-13 16-31-4-5-15-7-21-3m-534 0q-3 4 2 7 6 4 6-1c0-4-6-8-8-6m351 1q-7 4-7 11-1 11 13 14c9 3 9 3 5 9q-7 12 2 11 5 1 6-2 2-6 8-7c6 0 18 4 22 7q2 3 7 2h5l-3-5c-6-6-21-13-29-13q-8 0-5-6c5-15-10-28-24-21m-173 6c-24 4-32 8-34 18q-2 25 46 14c14-4 16-5 17-12 1-9-8-18-19-19l-6-1zm-231 1q-4 5 0 8 5 3 9-1c4-5-3-10-9-7m409 1q-4 4 1 7c6 5 12-2 7-7q-4-4-8 0m-268 7q-5 7 4 10c8 3 12-6 5-11q-4-2-9 1m581-1q-1 4 4 7 8 0 5-7c-1-1-8-2-9 0m-686 3q-5 4-2 7c4 5 12 3 12-2s-6-8-10-5m249 3q-3 4 2 6 6 0 6-3-2-7-8-3m-281 4q-19 3-18 15v6h5q5 0 3-1-1-7 14-11 10 0 12 8 0 5 6 4l5-1c0-3-6-16-9-18-2-2-12-3-18-2m89 0q-3 1-2 5 2 8 11 4c6-5-1-12-9-9m375 4q-4 5 0 9c4 3 12 0 12-4 0-6-7-9-12-5m229 0-7 2-11 5-7 4-3-3c-5-4-12-3-12 2 0 2 6 5 9 5q2-1 3 1c1 2 11 1 13-2 7-9 29-9 43 1q3 3 11 2h6l-3-3c-8-9-32-17-42-14m49 0q-2 3 1 8 6 3 8-3-1-7-9-5m-602 3q-16 2-24 11l-3 3h7l9-2c6-4 28-5 34-1 5 4 19 5 16 1-7-8-23-13-39-12m162 0-11 3c-9 2-11 4-14 8l-2 3h6l8-1 7-2 7-2c3 0 9 2 9 4l12 1c11 0 12 0 12-2l-3-4q-2-2-10 1l-5-3q-9-7-16-6m-232 7q-7 3-9 6l16 1h16l-4-3q-8-7-19-4m320 0-4 7h9q13 1 6-6-5-3-11-1"
        mask="url(#16282281824-posters-1720559937265-vertical-mask)" itemprop="medium" fill-opacity="0.90"
        fill-rule="evenodd" stroke="none" fill="url(#16282281824-posters-1720559937265-vertical-medium)"></path>
      <!---->
      <path id="16282281824-posters-1720559937265-bold"
        d="M0 6v6h4l6-2q3-2 14 2l11 3c11 4 26-3 28-13q2-2-5-2l-5 1c0 5-11 9-20 6-5-1-12-5-12-6L11 0H0zm113-3 2 4 1 2 3 4a12 12 0 0 0 20-9q3-4-5-4-6 0-5 2l-1 2-2-2q1-2-6-2-9-1-7 3m97 3c-6 11-7 15-4 23 6 12 26 19 37 13q24-15 14-36l-3-6h-40zm69-3c0 10 11 15 21 9q6-4 6-9V0h-27zm57 0q-4 6 1 14 5 11 20 10h8l4-5q10-8 1-17l-4-5h-28zm53 0c-1 4 5 8 9 5q5-6-4-8-4-1-5 3m26 4 9 11q8 7 20 8l10 2c11 4 29-11 25-21l-1-5q0-2-4-2h-4l1 6q1 18-24 13-20-4-27-17-1-2-5-2h-4zm117-4q-12 10-3 33l3 7c5 12 17 30 24 33 8 3 21 2 26-4 4-4 3-21-2-32-16-32-35-47-48-37m145-1q0 4 4 5 5 0 5-4c0-4-7-5-9-1m79-1q1 4 7 6 8 5 6-2V0h-6zM80 3c-6 3-5 12 2 12 6 0 10-8 4-10l-2-2zm82 1c-11 8-7 24 7 29q11 3 9 7l3 5c11 5 17-4 8-12q-4-2-3-8c0-14-15-28-24-21m62 1-2 1c-4 0-8 10-8 16 1 13 15 18 28 11q20-13-1-28c-3-3-15-3-17 0m123 1q-5 10 7 13c9 1 11-7 4-12q-8-6-11-1m366 3q-16 10-2 19c12 8 26 2 25-9-2-10-14-15-23-10m-176 2c-3 5-2 18 2 28 11 24 17 31 27 31 13 1 15-14 3-34l-4-7-5-6-7-8c-5-6-13-8-16-4m39 0a4 4 0 1 0 7 4q-1-8-7-4m-261 2q-3 2 0 5 6 5 9-1c1-5-6-8-9-4m331-1q-3 4 3 6 5 0 4-2c0-4-5-6-7-4m71 4q-5 6 5 9 10 0 5-9c-1-2-8-3-10 0m-550 1c-2 4 4 9 6 6q3 0 0-5-3-6-6-1m437-1-9 4c-4 3-5 12-3 16l1 4c2 7 14 17 21 17 20 2 27-14 14-32-5-7-17-12-24-9m-113 4c-4 4 1 9 7 6q3-3 2-7-4-2-9 1m-210 4q-3 1-2 6c2 3 9 3 10-1q0-6-8-5m321 1c-8 7 2 25 14 26q11 2 12-13c0-7 0-7-3-9q-14-10-23-4m-487 5c-11 2-15 16-9 28l4 7a21 21 0 0 0 15 14c1 3 15 0 21-4s11-20 7-22l-1-5-4-7-2-4-12-7zm562 0c-9 1-12 9-7 16l3 5 1 2 3 5c6 10 18 17 27 15 26-8 3-46-27-43M38 33q-3 2 0 5c5 4 16-1 12-6-3-3-10-3-12 1m726-1q-8 4-8 10c-3 9 2 24 8 29q6 7 6-5 0-7-1-6c-1 4-5-3-5-11-1-5-1-5 2-8l3-7q1-5-5-2m-460 2c-4 0-13 10-13 14q-3 9 2 20c5 11 7 12 20 17q5 2 2 3c-5 0-7 9-2 11q9 3 6-8-6-6 7-5a52 52 0 0 0 26-6l3-4c4-6 1-20-5-25l-6-6c-4-4-13-9-17-9l-7-2zm82 1q-3 4 2 7c5 3 10-3 5-6q-4-3-7-1m31 1q-3 4 5 5 4 0 4-2c1-4-6-7-9-3m259 0q-4 6 6 19c10 13 25 14 25 2 0-11-25-28-31-21m-558 4q-4 0-4 8c0 8 0 9 7 17q7 9 15 6 16-10 4-24l-8-5q-5-5-14-2m240 1q-2 2-2 6c0 2 6 4 8 3 6-2 3-11-2-11zm115 1c-6 6-3 19 6 23 14 7 24-4 15-17q-10-13-21-6m-220 1c-5 4 2 12 8 9q5-3-1-8-4-5-7-1m51 0c-8 7-5 23 4 30 8 6 30 7 38 1 11-8-4-28-24-31l-6-1c-1-2-9-1-12 1M12 44q-6 4-7 14l-2 2q-2-1-2 6 0 10 5 2 4-4 8-1c13 9 28 1 24-13-3-10-16-15-26-10m637 1q-4 6 2 7 7 2 6-3-2-6-8-4M69 50v5a6 6 0 1 0 0-5m412 1q-3 6 4 8a4 4 0 1 0-4-8m250 0c-3 2 1 9 4 9q4-1 6-5c0-3-8-7-10-4m-284 1a5 5 0 1 0 9 5q2-3-2-4-5-3-7-1m65 1c-5 5 3 11 9 6q5-2 0-5-5-5-9-1M20 54q-3 1-1 4a4 4 0 1 0 1-4m393 1a11 11 0 0 0-10 7l-1 5c0 11 21 20 28 11a16 16 0 0 0-17-23m-193 1q-15 8-7 25c6 10 18 14 27 9l7-2c10 0 11-8 1-10q-6-2-8-8l-1-2-1-3c-2-7-12-12-18-9m52 5q-4 2 0 6 6 4 10 1c5-5-4-11-10-7m-105 3c-5 5 2 11 8 6l3-2-3-3q-4-5-8-1m245 1q-3 6 5 8 11 1 6-8c-2-3-10-3-11 0m-189 2c-7 5-1 16 8 15a11 11 0 0 0-1-14c0-3-5-4-7-1m159 3q-5 2-1 7 5 3 9 1c5-3-2-10-8-8m289 2q-3 8 5 8 8-1 5-7c-1-4-7-4-10-1m56 2c-11 6-15 19-10 25l3 4c5 9 20 10 30 3l4-3c2-1 8-12 8-14q1-10-9-14-16-7-26-1m-229 3q-12 8-11 23a49 49 0 0 0 18 19c0 2 9 5 15 5 22 0 18-35-5-47q-9-4-17 0m120 0c-12 10 1 32 18 29 14-2 13-18-2-28-3-2-14-3-16-1m-517 1q-5 6 1 8 7 2 7-3-2-8-8-5m636 2q-19 7-9 19c6 6 17 4 23-5q7-10-5-14c-3-2-3-2-9 0m-276 1q-3 2-1 5c3 4 9 5 10 1 2-5-5-9-9-6m-306 4q-11 5-10 12c-1 19 29 23 36 5q5-7-6-15c-7-6-11-6-20-2m38-1c-6 4 3 13 9 9q6-4 0-8-5-5-9-1m308 2c-9 5-5 18 7 26q12 9 18-2c1-5 1-7-2-16-4-8-16-12-23-8m122 0q-5 1-2 4l3 3c1 3 7 7 9 6 3-1 6-7 5-10q-4-7-15-3m-77 0c-3 4 2 10 6 8q6-2 1-7-4-3-7-1M43 87c-15 5-12 42 4 47 10 4 22-11 20-26q-5-26-24-21m231 0c-8 4-6 22 4 25q9 4 17-1 11-7 0-19-9-9-21-5m-117 6q-7 12 8 12 11-2 5-13c-3-5-10-5-13 1m194-1q-8 7 5 8 7 0 7-4c0-5-8-8-12-4m240-1c-3 2-4 9-1 8l1 1q-1 2 6 1 6-3 0-9-3-3-6-1m-311 3c-4 4-1 11 6 11s8-8 1-12q-4-2-7 1M13 98q-3 2 0 4c3 3 10 2 10-1 0-5-6-7-10-3m33-1c-6 2-4 23 2 26q5 3 8-7c4-11-1-22-10-19m29 1q-4 3 0 6t9 1a6 6 0 0 0-9-7m374 1c-9 6-10 17-1 24l5 3 10 5c2 2 15 1 18-1q6-6 1-18c-5-11-24-18-33-13m-35 0q-6 4-1 10 7 3 9-3 0-9-8-7m267 1q-3 3 1 8 11 3 9-6-5-6-10-2m-307 2q-9 5-4 17 3 7 11 7 16 0 15-12c-1-12-13-18-22-12m-245 5q-5 5-2 8 5 5 10 0 6-4 0-7-4-5-8-1m326-1c-7 2-6 10 1 14q20 9 20-3c0-8-10-14-21-11m101 2c-7 8-4 31 6 40q11 10 20-1l5-5v-17l-5-7q-15-20-26-10m-323 3-13 3c-20 5-25 8-28 16-3 6-1 18 4 24q3 3 3 5-1 4 7 6l10 4c15 7 37 3 47-9 12-13 13-20 7-37-5-13-20-18-37-12m90 0c-9 7-4 21 9 24q7 1 4 7l-3 7q0 5-4 3c-11-8-26 0-23 12 3 11 15 12 25 2q7-7 10-4 5 3 20 4h10l4-4c10-9 1-21-21-28-8-2-8-3-8-8a15 15 0 0 0-11-17q-4-3-12 2m56-1q-3 3 1 7c4 3 9-3 6-7zm-284 5a13 13 0 0 0 1 24c0 1 10 2 13 1q11-5 6-15-6-14-20-10m467 2c-3 5 0 18 4 23 6 6 13-1 13-12 0-8-13-17-17-11m78 1q-1 6 6 8 4-1 4-5c0-5-9-7-10-3m-403 0-4 1c-8 3-10 4-14 4q-21 2-18 14 0 14 13 22c11 5 16 6 29 3a31 31 0 0 0 20-14 19 19 0 0 0 1-18c-1-9-15-15-27-12m513 0c-13 6-3 26 15 29q5-1 4 4v5l-7 1c-13 4-13 4-17 11-6 12-4 16 12 28 12 9 13 10 8 12-8 4-10 4-15 2l-5-2-2 2q-6 4 2 9 8 3 9 9 3 9-2 6l-5-1-4-1h-17c-22 6-3 44 24 46q10 2 16-4c5-5 5-19 0-27-4-6-4-6-3-8s6 0 6 3v-43a5 5 0 0 0-3-7l-1-1-7-5c-11-10-6-21 8-21q3 0 3-4v-24c-1 5-14-1-14-7q2-6 12-3 3 2 2-3 1-5-5-6zm-342 1q-6 3-10 11l-4 10c-6 12-6 18 1 29q8 11 18 15l9 5-3 6c-5 6-4 16 2 21q12 8-1 9-21 1-20 19 3 30 31 23l12-2c17 1 23-15 12-29l-5-5q-3-4 3-5h4l1-1 1-2c5 0 9-13 7-19-2-7-9-15-15-16l-8-6 3-5q6-9 5-15l-1-5a21 21 0 0 0-7-14c0-1-19-20-23-22q-7-3-12-2m-249 2q-6 3-11 13l-2 4c-5 9 5 30 15 31q20 3 21-22c1-12-15-29-23-26m547 3q-4 5 6 8 4 0 6-5c0-5-9-7-12-3m-608 0v8c3 3 10 0 10-4s-8-7-10-4m198 5q-6 7 6 8 8-1 3-8-4-4-9 0m114 0c-7 6-13 24-11 29l2 4c0 3 8 12 13 14 13 7 34-7 28-20-5-14-20-29-28-29zm197 1c-17 2-15 26 3 28q16 1 16-13-1-16-19-15m-449 2c-9 9-1 32 9 29 7-2 9-19 3-26q-7-8-12-3m511-1c-11 2-20 11-19 19a20 20 0 0 0 20 18h8c16-4 19-24 6-33-3-3-10-5-11-5zm-659 2c-9 1-9 1-9 15 0 16 2 19 15 22 14 4 24-17 15-29q-7-10-21-8m526 5c-6 1-3 9 4 10q4 0 6-5l-7-6zm71 2q-4 4 0 8a7 7 0 1 0 0-8m-119-1c-9 2-16 14-15 27 0 12 10 24 23 28 3 1 7 0 20-4q3-1 1 6a35 35 0 0 0 14 31c11 10 24 15 31 12a14 14 0 0 0 9-13c3-3-8-29-15-34l-4-3c-4-4-21-6-26-3q-6 3-8 2l1-5q5-12 3-16l-1-7a31 31 0 0 0-13-17c0-2-15-6-20-4m178 0c-2 2-8 10-8 12q2 5 9 9c7 4 16-1 18-9 1-9-11-16-19-12m-209 2c-6 3-1 10 5 8q6-2 2-6-4-5-7-2m-334 2c-5 6-1 12 7 10q6-1 4-6-4-9-11-4m224 0c-9 5-3 14 10 16 12 1 18-9 8-13q-11-6-18-3M9 145q-6 12 8 14c6 0 9-10 5-13-3-4-11-4-13-1m481 3q-9 4-9 15a25 25 0 0 0 6 17c1 2 11 7 13 7q13-1 14-19 1-14-12-19c-6-3-7-3-12-1m-406 2c-5 3 0 12 6 9 5-1 5-8 0-9l-3-2zm649 0q-4 2-3 9c1 3 8 3 11 0 6-6 0-14-8-9m-451 7c-5 6 3 12 8 6l2-2-2-3q-4-5-8-1m423 1q-4 6 3 8 9-1 4-8-4-4-7 0m-654 2c-3 4 0 10 5 10q6 0 7-4c0-4-9-9-12-6m588 3c-4 3 2 10 6 8q4-3 0-7-3-3-6-1m-522 1-15 5q-13 4-5 22 5 11 14 16 4 3-2 8-7 5-8 15 1 8-8 3c-16-6-36 17-27 31 4 6 18 19 23 22q19 11 26-9c2-6 2-6-2-19q-5-14 2-10c15 8 34-1 34-15q0-8-7-17-8-7 2-12 20-9 9-31c-3-6-22-11-36-9m473 1c-4 3 2 10 8 10 3-1 4-7 2-9q-6-3-10-1m-398 1q-6 8 5 9 4 0 4-4-1-8-9-5m495 7a32 32 0 0 0-16 14q-9 9 1 24 9 12 14 12l2 2c0 3 9 7 15 7q18 0 26-16 12-18-13-31l-9-7q-11-10-20-5m-575 1q-13 5-6 17 11 16 34 5c23-11-3-31-28-22m223 2q-21 7-22 27-1 14 7 20c5 4 19 5 28 0q21-11 18-29c-1-8-3-10-12-15q-12-6-19-3m218-1q-3 3-1 8 6 3 9-2-1-8-8-6m-295 3q-11 9-2 23c4 4 14 4 20 0 5-4 9-13 6-14l-1-3c0-6-18-10-23-6m119 0q-2 6 6 8 4 0 4-4c0-5-6-8-10-4m-338 1q-22 6-24 22-1 20 20 27l10 3c12 4 26-2 34-15q7-9-11-25-17-16-29-12m161 2-5 1-2 2-2 1q-2 0-6 5l-3 5v11l1 11 1 2 5 3 6 3c3 2 13 1 18-1 17-5 25-32 13-40-6-3-22-6-26-3m413 0q-32 2-31 27c0 7 0 7 11 29 4 6 15 16 25 21q39 21 49-8c4-10 0-29-8-43l-5-9q-4-8-17-14c-11-5-12-5-24-3m-442 0q-3 2 0 7c2 3 9 3 9-1s-6-8-9-6m516 2q-19 12-3 31 18 18 34 2 11-12-4-24l-4-4-10-6c-3-1-10-1-13 1m-391 2q-3 3 3 7c7 3 13-2 8-6-2-2-9-3-11-1m38 0a19 19 0 0 0-11 17q-3 5 3 11 5 8 22 0c13-5 15-20 3-25l-5-3zm-68 2q-5 3 1 6 7 1 4-5-2-3-5-1m-233 2q-10 5-9 13c0 11 4 15 22 20 9 3 22-2 25-10 4-14-22-30-38-23m578 0q-20 4-21 18c0 11 13 33 24 41q28 19 42 4l4-4-1-12a32 32 0 0 0-3-20c0-2-9-16-12-20q-10-11-33-7m-412 2c-14 7-11 25 3 25s26-18 17-25c-3-3-15-3-20 0m236 3q-11 4-9 12a15 15 0 0 0 10 8q14 7 21-2c7-11-9-24-22-18m95 1c-8 8-2 21 14 31 14 10 25 0 17-15l-3-6c-6-13-20-17-28-10m-135 5q-4 8 6 9 6 1 6-5c0-6-7-8-12-4m-153 4a6 6 0 1 0 11-1c-2-2-10-1-11 1m251 0-3 2c-3 4 3 8 9 6 3 0 3-5 0-7q-3-3-6-1m-206 6q-16 7-16 25c-1 21 21 28 33 11 5-6 5-8 4-18-1-9-2-10-7-17q-5-6-14-1m-197 2q-4 4 1 7c6 5 12-2 7-7q-4-4-8 0m30 7q-15 7-3 19c12 11 29 2 22-12q-7-12-19-7m645 0q-2 4 1 10l3 3v-7q0-10-4-6m-535 2-5 3-3 1c-2 0-10 10-12 15-2 7 2 20 7 24 2 2 12 5 18 5 10 0 27-17 24-24l-1-5q-1-9-8-17-8-7-20-2m55 0c-10 7-7 24 4 24 4 0 10-5 10-8l1-2 1-5c0-10-8-14-16-9M1 232q0 11 1 9c2-3 2-15 0-17q-1-3-1 8m165-4q-3 4 2 7 8 4 9-2c0-4-9-8-11-5m66 1c-8 3-15 14-13 20 4 11 15 14 24 7 15-11 7-32-11-27m127 3q-9 3-8 13 0 13 12 13 14-1 12-20-3-12-16-6m134-1c-13 6-7 24 9 27a13 13 0 0 0 9-25c-4-3-14-3-18-2m-26 2q-5 7 7 8 10-1 3-8-5-4-10 0m-51 1q-7 2-7 7-3 10 4 16l4 4h7c23-2 24-3 27-7q4-8-2-14c-7-7-24-10-33-6m-224 1q-3 4-2 7c2 3 9 3 10 0 3-5-4-10-8-7m484 2q-5 6 6 7 6-2 2-7-3-4-8 0m-664 1q-3 7 5 8c6 0 5-8-1-9zm312 0c-5 2-1 11 5 11 7 0 7-7 0-11zm-276 1-1 6c0 7 13 7 13 0 0-5-9-10-12-6m452 1q-6 3-1 8 4 5 9 0 5-3 0-7-2-5-8-1m231 0c-10 1-6 18 7 25q23 13 24-5c0-13-14-23-31-20m-646 2-3 1c-6 0-11 13-8 19s16 16 21 17c13 3 16-17 6-31-5-6-14-10-16-6m448 2q-4 7 4 8 6-2 2-8-2-4-6 0m50 11q-3 2-1 6c1 3 7 3 9 0 3-2 2-7-1-7l-3-1zm-553 0q-4 0-10 8-8 7 3 13 13 5 21 0c4-4 4-12 0-16l-9-6zm135 0c-15 7-7 37 10 37 11 1 15-11 8-25q-8-16-18-12m375 6q-11 7-3 21a49 49 0 0 0 21 17c2 3 14-2 17-7q4-9-5-19l-3-3q-3-5-14-9-7-3-13 0m-372 5c-6 6 2 21 8 17q6-6-2-15-5-7-6-2m36-1q-10 1-11 12 1 14 15 13 16-3 7-19c-4-6-5-7-11-6m64 0c-2 1-1 6 1 7 6 3 11-2 7-6-1-2-7-3-8-1m38 1q-12 6-13 15l-1 3c-3 2-2 18 1 26 7 17 32 31 49 28 8-2 19-20 18-28l-2-7a68 68 0 0 0-20-30c-8-8-24-11-32-7m398-1q-6 3 0 8 7 4 8-3-1-7-8-5m-569 1c-5 7 4 14 9 8q3-2 0-5-5-6-9-3m256 1q-2 6 7 5 3-1 1-6-5-3-8 1m155 2c-7 7 5 23 17 22h5v-5q0-13-13-17-7-3-9 0m-192 2q-5 4 1 7 7 3 8-2-1-10-9-5m319-2c-7 4-2 12 5 8a5 5 0 0 0-5-8m-187 3c-18 3-20 18-4 29 13 9 28 10 33 3 7-8-7-31-19-31l-2-1zm30 1q-3 2 0 4 4 5 8 0c3-5-5-8-8-4m-209 1q-9 4-8 18c0 21 3 26 28 37 4 2 13 2 17-1 8-6 11-20 6-30a79 79 0 0 0-20-21c-4-5-17-6-23-3m-104 2c-1 6 5 9 7 4q2-3-1-4-4-4-6 0m31 1q-2 3 1 8c5 5 11 0 7-6q-5-4-8-2m358 3q-8 4-8 12a12 12 0 1 0 24-4l-1-3c-2-5-10-8-15-5m-108 2c-7 5 0 14 15 18 10 3 13-7 4-16-5-5-15-6-19-2m-431 1c-4 5 5 10 11 7 4-2 0-8-6-8zm575 0-1 3q-1 4 4 3 8 0 5-5c-1-2-7-3-8-1m-224 4c-13 6-12 20 2 26q9 4 17-2l4-3c7-5 2-17-10-21q-7-3-13 0m335 3q-3 8 8 9 6-1 2-8-6-6-10-1m-90 5c-13 13 5 32 22 25 13-6 11-21-4-28q-10-5-18 3M3 292l-3 1v28l8 1c10 1 13 0 18-4 10-11-8-31-23-26m444 2q-3 3 1 6 6 6 11 0c3-7-8-13-12-6m-40 0q-6 6 0 12c5 4 14 1 14-6 0-6-8-10-14-6m298 1c-4 3-1 9 4 9a5 5 0 1 0-4-9m-624 5c-3 5 3 11 8 7q6-3 0-7-4-6-8 0m574 0q-4 5 2 11 7 6 14 0l2-3-2-4c-3-6-12-8-16-4m-480 2q-9 8 0 18c7 6 20-3 17-13q-6-12-17-5m589-1c-9 3-20 17-19 24l1 6a17 17 0 0 0 17 16l6 1q1 1 1-3 1-6-4-5c-15-3-16-22-2-31q6-2 5-6v-4zM7 301c-9 2-7 12 2 13 10 1 13-9 3-13zm107 1c-10 3-12 5-16 10-4 7-4 19 1 26 7 13 27 16 38 5l3-2c1 0 6-5 6-7l2-4c4-9 0-22-8-26l-17-4zm161-1c-2 1-3 7 0 7 6 3 11-3 6-6q-4-3-6-1m98 1v4c1 3 8 4 10 1 3-4-6-10-10-5m-141 0c-12 5-10 21 2 28 17 10 33 2 30-16l-2-6c-8-6-9-6-19-7zm321 5q-7 4 2 9c8 2 11-4 5-9l-3-2zm53 4-5 4c-2 3-4 13-3 14l1 3c0 4 9 9 15 9 9 0 15-13 11-24-3-7-12-10-19-6m-485-1q-22 4-17 21c7 19 38 10 38-11q0-13-21-10m114 1c-7 5 1 14 12 14q10 1 7-8c-1-7-13-11-19-6m-189 3q-7 3-8 12c2 18 28 20 28 2q0-18-20-14m656 0q-9 5-8 16c1 9 16 14 23 8 12-10-1-30-15-24m-244 3q-13 7-13 23l1 8 1 6 5 13 1 3c0 2 6 8 10 11 7 5 40 8 44 3 9-8 5-28-8-43l-7-9q-18-24-34-15m151 4q-4 5 0 8c5 5 12 2 11-5q-3-10-11-3m97 2q-6 5-1 8 7 2 9-3 0-7-8-5m-244 1c-6 2-9 18-6 30l2 5q4 20 33 20 12 2 14-8a29 29 0 0 0-6-18l-4-7-5-8a28 28 0 0 0-16-12q-7-5-12-2m-259 2q-3 4 2 7 8 3 7-5c-1-3-7-4-9-2m314 2c-5 3-3 9 4 9q6 0 5-5-1-7-9-4m126 5q-4 6 4 7 5 0 3-6-3-5-7-1m-245 1q-7 2-9 8 0 9-10 8c-11 0-12 0-16 4-10 11 2 27 21 30q23 4 26-6 6-9-4-19-6-4-1-7c10-8 11-10 6-15q-5-4-13-3m282 0c-2 1-1 7 1 8 6 3 11-2 6-7-1-2-6-3-7-1m-125 2c-5 3-10 11-8 14v5l5 15c2 4 15 10 20 10q7-2 12-8c7-9-1-33-12-37q-9-2-17 1m-399 0q-2 5 4 9 6 2 6-4c0-5-7-8-10-5m142 3c-4 2-1 7 5 7q5 0 4-6-3-3-9-1m134 3q-4 2 0 5 4 5 7 0c4-4-3-10-7-5M1 345q0 7 7 7c4 0 16 8 19 14q6 6 0 10-7 7-21 0-7-6-6 1c0 5 0 5 5 8 7 3 23 3 24 0l2-1c2 0 9-9 9-13l-3-8q-9-17-33-21l-3-1zm560-2q-10 10 0 25c3 4 11 4 16 0 4-4 2-17-4-22q-7-7-12-3m-361 1c-11 4-21 14-21 21a32 32 0 0 0 8 20q1 3 4 3l1 1c0 2 6 6 9 6 8 0 20-7 25-14 6-10 4-28-4-34q-11-8-22-3m58 1q-5 3 1 8c7 5 13 1 9-5l-3-3zm473 1v7c0 3 6 2 8 0 4-4-4-11-8-7m-70 4q-18 4-11 22 4 11 7 12l5 4c11 9 30 0 30-16a26 26 0 0 0-31-22m-577 4q-5 6 4 7 8-3 1-8c-3-1-2-1-5 1m114 0q-14 8-7 24c7 14 22 11 31-6 6-14-9-26-24-18m144-1q-6 4 0 9c4 2 10 0 10-4q-1-7-10-5m-63 2c-6 5-6 18 0 24 9 9 27 5 27-7l-1-4-1-3c-3-9-17-15-25-10m92 4c-6 5-1 15 9 17l8 2c7 2 15 0 16-4 2-7-8-16-16-16l-3-1c-2-2-12-1-14 2m256-2q-7 3 0 8c2 1 7-1 7-3q-1-6-7-5m-577 2q-3 3-1 5c2 5 11 4 12-1s-7-8-11-4m615-1c-13 1-9 22 6 25a12 12 0 0 0 12-15q-5-11-18-10m-380 4q-4 5 0 12c5 5 14 0 12-7q-5-11-12-5m244 5q-5 6 5 8 5 1 4-3-1-10-9-5m-412 1-3 1-1 1c-5 0-8 12-4 17 6 9 28-1 24-11q-5-11-16-8m595 0c-3 2 0 10 4 10q4-1 5-4c0-4-6-8-9-6m-468 4v5c1 3 9 4 10 1 1-5-7-9-10-6m-92 1q-4 3 1 6 4 3 6 0c4-3-2-9-7-6m598 5q-1 5 3 6 5 0 6-2c0-4-8-7-9-4m-427 1q-4 2-3 6c3 4 10 2 10-2l-5-5zm103 7c-3 2 1 7 5 7 5 0 4-7-2-8zm159 0q-4 2-4 4 2 4 6 5c5 0 7-7 2-9zm-213 2q-2 0-2 3 1 8 8 5 3-2 1-5-2-5-7-3m251 2q-3 8 6 8 7-2 4-8c-3-3-9-3-10 0m-554 1a5 5 0 1 0 8 1q-3-2-8-1m444 1q-1 5 6 6c7-1 5-8-2-8zm-48 3v4c1 3 8 3 10 0 1-4-7-8-10-4m263 1c-11 7-9 20 2 26 16 8 34-5 26-19-3-8-21-12-28-7m-459 5c-9 10-5 23 8 26q12 4 16-5c9-15-12-33-24-21m271-3c-9 5-4 20 8 24 15 4 24-7 14-18-5-6-16-9-22-6m-346 1c-18 4-17 20 1 28l5 3q3 3 1 7-4 4 3 15c2 3 13 9 15 9 3 0 9 3 9 5l-5 3c-10 4-12 5-15 8q-7 8-7 17a25 25 0 0 0 7 16l1 2h26l27-1 5-2q12-1 17-13c3-7 2-9-4-18q-7-10-33-12-18-1-9-6c9-7-5-26-22-29q-6-2-2-7c2-4 2-13-1-17-4-6-13-10-19-8m-100 2c-11 10-5 22 13 25a13 13 0 0 0 13-20c-3-6-20-9-26-5m302 1c-10 8-5 26 9 31 7 3 15-2 15-10 0-14-15-27-24-21m206 0c-9 2-7 16 5 26 10 9 25 5 25-6 0-6-6-15-11-18-3-2-14-3-19-2m91 1q-3 2 0 4c2 3 8 3 8 0 2-5-5-8-8-4m38 2c-6 6 5 16 14 12q9-3 4-10c-4-4-14-6-18-2m-388 0a5 5 0 1 0 9 3c0-3-7-6-9-3m-116 3q-4 9 6 10c6 0 8-7 3-11q-5-4-9 1m-34 0q-6 8 4 12c8 3 13-4 8-10q-7-6-12-2m82 1a7 7 0 1 0 12 3c0-6-8-8-12-3m270-2c-3 3 4 9 9 7s2-8-4-8zm114 0c-3 1-3 7 0 9q5 2 9-1c5-3-2-11-9-8m-557 2c-5 5 0 11 6 8q6-3 3-7-5-5-9-1m-61 1q-3 3 0 6c3 4 10 1 10-3s-7-6-10-3m111 0c-5 6 3 11 9 6q4-2-1-5-5-5-8-1m330 0q-10 6-3 15c9 9 19 9 22 2l1-4-1-5c-2-7-13-12-19-8m127 0c-5 3 1 14 7 16 9 1 8-11 0-15q-5-3-7-1m-208 4q-1 4 1 5l1 2c0 2 6 1 7-2 1-6-6-10-9-5m-95 3c-4 1 1 7 6 7 4-1 4-7-1-8zm-295 4c-7 3-12 14-8 17l1 2c0 3 7 15 9 15q1-2 1 1c-1 3 10 10 19 11 13 3 17-15 8-33-1-3-12-12-16-14q-8-2-14 1m426-1q-4 6 5 7c3 0 3-6 0-7zm136 6q0 8 8 6c3 0 3-6 0-7q-6-2-8 1m-243 2q-23 0-26 20c0 6 0 7 2 12l10 14a79 79 0 0 0 47 21q10 0 7 6l-3 7v4h5q6 1 5-2c1-4 7-4 10-1q2 3 6 3h4l-2-3c-1-3-7-9-11-10q-6-2 2-10l8-11 2-5c1-2 0-11-1-17-2-6-16-22-20-22l-4-1q-8-7-41-5m-311 1c-9 2-7 15 4 26 10 10 18-1 10-16q-7-11-11-11zm501 1c-10 3-18 16-18 30-1 22 17 41 38 41q7 1 1 7l-3 4h5l8-2c4-1 17-1 19 1l11 1q10 0 9-1l-18-7-6-2c-2 0-8-2-8-4q-2-1 4-10c2-4 2-5 2-12-1-15-3-18-11-29l-5-7q-10-16-28-10m-450 3q-3 1-3 4c0 6 11 8 13 2q0-4-5-7c-3-1-2-1-5 1m630 1q-2 3 1 6 7 3 8-2-1-7-9-4m-359 0-10 1q-15 1-16 8c-11 24 36 55 63 42 6-3 13-13 11-15l-1-8c-1-6-1-7-4-12-8-9-9-10-19-13-6-2-23-4-24-3m181 4c-17 11-17 32 0 49 10 10 26 8 32-3a28 28 0 0 0-1-20c0-3-5-12-8-15l-4-5q-8-13-19-6m-423 0q-2 5 3 6 6 1 7-2c0-5-9-8-10-4m152-1a5 5 0 1 0 10 4c0-5-7-7-10-4m418 3q-5 2-8 12l-3 6c-3 9 0 31 5 34 7 4 21-5 24-15l1-4c4-7 4-26 0-32-3-5-12-5-19-1m-511 0c-12 4 1 30 15 30 8 1 14-7 11-15q-8-20-26-15m55 0c-7 3 1 14 11 14q9-1 4-9-6-8-15-5m532 2q-3 6 5 8c6 1 8-5 2-9q-4-2-7 1m-261 2v4c2 4 11 3 11-1 0-5-9-7-11-3m-364 0-3 1q-5 1-7 9c-2 13 13 32 24 29 5 0 12-7 12-11q2-14-6-20c-5-6-19-11-20-8m515 2v4c3 7 12 5 10-1q-3-8-10-3m129 0c-6 4-7 6-7 15q-1 13 8 23l4 4v-7l-1-7c-3-1-3-15 0-18l1-7v-5zm-362 1q-2 6 4 6 10-1 4-6-6-4-8 0m34-1q-3 4-1 8c2 2 9 1 9-1 1-5-5-9-8-7m236 4-4 8-2 7c-2 25 13 21 17-6q2-20-11-9m-506-1q-5 3 1 9 5 6 7 1 4-3-2-10-3-3-6 0m547 1c-10 3-11 17-2 21 10 5 21-1 21-11 0-7-9-12-19-10m-592 3c-4 4 0 15 7 21 6 6 13-4 8-13-3-7-11-11-15-8m341 3c-14 10-4 31 14 31q21 0 14-19c-5-12-19-17-28-12m-403 0q-10 6 0 20c10 13 32 7 26-7a22 22 0 0 0-13-11q-8-3-13-2m508 0q-4 3 1 7 6 3 7-3-2-6-8-4m-284 1c-4 3-2 9 3 9 8 0 9-9 2-10zm315 1-5 3-2 1c-4 0-12 18-8 20l1 4q4 11 20 23c6 3 22 5 22 2l2-2 1-1 2-2c7-2 10-19 5-30-7-15-23-23-38-18m-130 5c-3 1-4 8-2 11 5 7 18 7 18 0s-9-14-16-11m-273 2q-6 6 5 8 8-3 2-8-4-3-7 0m409-1q-5 1-9 5-3 2-3 9c0 6 0 7 5 13q15 22 28 9c15-14-1-42-21-36m-538 2q-4 4 4 9 5 2 6-3c0-5-7-9-10-6m353 1c-13 7-9 22 7 25q10 2 5 8l-4 8v4h4q4 1 5-3l3-5c5-3 23 0 29 6l6 2h4l-2-3c-3-6-20-14-31-15-4-1-4-2-3-12 1-4-4-12-9-15q-7-3-14 0m-186 7q-22 5-22 18 0 11 7 14c4 3 25 3 34 1l12-4c8-2 10-3 11-11q2-7-9-15-13-7-33-3m192-1q-8 4-2 9 8 6 11-2c1-4-5-9-9-7m-411 2q-4 7 4 8 5-1 6-5c0-3-8-5-10-3m143 6q-7 5-2 9 8 5 11 0c2-6-4-12-9-9m580 1q-1 4 4 5 6 0 3-4-3-5-7-1m-687 3q-5 7 4 8 9-2 3-8-4-4-7 0m57 7q-3 3-1 7c5 4 15-2 11-6q-4-4-10-1m-93 1c-13 4-14 5-14 13v6h4l4-1q-3-7 11-11 13-4 16 8 1 5 5 4 5 1 3-3-2-9-7-15c-3-3-13-4-22-1m469 2q-7 8 4 9 8-1 5-7-3-5-9-2m226 1q-7 1-18 8l-5 3-4-3c-5-5-5-5-8-2l-3 3 2 2 6 2q4 0 5 2c1 3 9 1 13-3 8-8 27-8 41 0q6 4 12 4h6l-5-4q-5-5-11-7l-8-3q-9-4-23-2m51 0q-3 2 2 6 6 4 7-2-1-6-9-4m-603 3q-13 1-22 10l-3 3h5q5 1 10-2c4-2 6-3 17-4h12l5 3c6 4 17 5 15 1l-2-2-4-2c-9-6-17-8-33-7m160 0-6 2-3 1c-4 0-11 4-12 7l-2 3h5l5-1c1-1 10-4 15-4q9-1 11 4l12 1c11 0 11 0 11-2q-2-6-9-4-5 3-7 0-7-8-20-7m94 6q-5 1-6 5-1 3 8 2 8 1 7-2-1-5-9-5m-325 1-5 4-2 2h15c14 0 15 0 14-2-4-4-15-6-22-4"
        mask="url(#16282281824-posters-1720559937265-horizontal-mask)" itemprop="bold" fill-opacity="0.90"
        fill-rule="evenodd" stroke="none" fill="url(#16282281824-posters-1720559937265-vertical-bold)"></path>
    </pattern>
    <rect id="16282281824-posters-1720559937265-pattern-render" fill="url(#16282281824-posters-1720559937265-pattern)"
      width="100%" height="100%"></rect>
  </defs>
  <radialGradient id="lightbar" cx="50%" cy="200%" fy="0" r="201%">
    <stop offset="0%" style="stop-color: rgb(255, 255, 255); stop-opacity: 0.1;"></stop>
    <stop offset="10%" style="stop-color: rgb(0, 0, 0); stop-opacity: 0.1;"></stop>
    <stop offset="30%" style="stop-color: rgb(0, 0, 0); stop-opacity: 0.3;"></stop>
    <stop offset="90%" style="stop-color: rgb(0, 0, 0); stop-opacity: 0.55;"></stop>
    <stop offset="100%" style="stop-color: rgb(0, 0, 0); stop-opacity: 0.6;"></stop>
  </radialGradient>
  <g class="radial">
    <radialGradient id="16282281824-posters-1720559937265-radial" gradientUnits="userSpaceOnUse">
      <stop itemprop="radial" stop-color="#a5a4a1" offset="0%"></stop>
      <stop itemprop="radial" stop-color="#a8a6a4" offset="15%"></stop>
      <stop itemprop="radial" stop-color="#9b9a97" offset="30%"></stop>
      <stop itemprop="radial" stop-color="#a8a7a4" offset="45%"></stop>
      <stop itemprop="radial" stop-color="#a8a6a4" offset="60%"></stop>
      <stop itemprop="radial" stop-color="#a8a6a4" offset="75%"></stop>
      <stop itemprop="radial" stop-color="#a8a6a4" offset="90%"></stop>
    </radialGradient>
    <radialGradient id="16282281824-posters-1720559937265-radial-background" gradientUnits="userSpaceOnUse">
      <stop stop-color="#d3cec5" offset="0%"></stop>
      <stop stop-color="#d3cec5" offset="15%"></stop>
      <stop stop-color="#d3cfc5" offset="30%"></stop>
      <stop stop-color="#d3cfc5" offset="45%"></stop>
      <stop stop-color="#d3cec5" offset="60%"></stop>
      <stop stop-color="#d3cec5" offset="75%"></stop>
      <stop stop-color="#d3cec5" offset="90%"></stop>
    </radialGradient>
    <radialGradient id="16282281824-posters-1720559937265-radial-light" gradientUnits="userSpaceOnUse">
      <stop stop-color="#9b9a97" offset="0%"></stop>
      <stop stop-color="#9b9a97" offset="15%"></stop>
      <stop stop-color="#9b9a97" offset="30%"></stop>
      <stop stop-color="#9b9a97" offset="45%"></stop>
      <stop stop-color="#9b9a97" offset="60%"></stop>
      <stop stop-color="#9b9a97" offset="75%"></stop>
      <stop stop-color="#9b9a97" offset="90%"></stop>
    </radialGradient>
    <radialGradient id="16282281824-posters-1720559937265-radial-regular" gradientUnits="userSpaceOnUse">
      <stop stop-color="#82807d" offset="0%"></stop>
      <stop stop-color="#82807d" offset="15%"></stop>
      <stop stop-color="#82817d" offset="30%"></stop>
      <stop stop-color="#82817d" offset="45%"></stop>
      <stop stop-color="#82807d" offset="60%"></stop>
      <stop stop-color="#82807d" offset="75%"></stop>
      <stop stop-color="#82807d" offset="90%"></stop>
    </radialGradient>
    <radialGradient id="16282281824-posters-1720559937265-radial-medium" gradientUnits="userSpaceOnUse">
      <stop stop-color="#514f4d" offset="0%"></stop>
      <stop stop-color="#514f4d" offset="15%"></stop>
      <stop stop-color="#51504d" offset="30%"></stop>
      <stop stop-color="#51504d" offset="45%"></stop>
      <stop stop-color="#514f4d" offset="60%"></stop>
      <stop stop-color="#514f4d" offset="75%"></stop>
      <stop stop-color="#514f4d" offset="90%"></stop>
    </radialGradient>
    <radialGradient id="16282281824-posters-1720559937265-radial-bold" gradientUnits="userSpaceOnUse">
      <stop stop-color="#2f2e2d" offset="0%"></stop>
      <stop stop-color="#2f2e2d" offset="15%"></stop>
      <stop stop-color="#2f2e2d" offset="30%"></stop>
      <stop stop-color="#2f2e2d" offset="45%"></stop>
      <stop stop-color="#2f2e2d" offset="60%"></stop>
      <stop stop-color="#2f2e2d" offset="75%"></stop>
      <stop stop-color="#2f2e2d" offset="90%"></stop>
    </radialGradient>
  </g>
  <g class="vertical">
    <linearGradient id="16282281824-posters-1720559937265-vertical" gradientUnits="userSpaceOnUse" x1="0" x2="0" y1="0"
      y2="100%">
      <stop itemprop="vertical" stop-color="#a5a4a1" offset="0%"></stop>
      <stop itemprop="vertical" stop-color="#a8a7a4" offset="15%"></stop>
      <stop itemprop="vertical" stop-color="#9b9a97" offset="30%"></stop>
      <stop itemprop="vertical" stop-color="#a5a4a1" offset="45%"></stop>
      <stop itemprop="vertical" stop-color="#a8a6a4" offset="60%"></stop>
      <stop itemprop="vertical" stop-color="#a8a7a4" offset="75%"></stop>
      <stop itemprop="vertical" stop-color="#a8a7a4" offset="90%"></stop>
    </linearGradient>
    <linearGradient id="16282281824-posters-1720559937265-vertical-background" gradientUnits="userSpaceOnUse" x1="0"
      x2="0" y1="0" y2="100%">
      <stop stop-color="#cdcccb" offset="0%"></stop>
      <stop stop-color="#cdcccb" offset="15%"></stop>
      <stop stop-color="#cdcccb" offset="30%"></stop>
      <stop stop-color="#cdcccb" offset="45%"></stop>
      <stop stop-color="#cdcccb" offset="60%"></stop>
      <stop stop-color="#cdcccb" offset="75%"></stop>
      <stop stop-color="#cdcccb" offset="90%"></stop>
    </linearGradient>
    <linearGradient id="16282281824-posters-1720559937265-vertical-light" gradientUnits="userSpaceOnUse" x1="0" x2="0"
      y1="0" y2="100%">
      <stop stop-color="#ae9f84" offset="0%"></stop>
      <stop stop-color="#aea284" offset="15%"></stop>
      <stop stop-color="#aea284" offset="30%"></stop>
      <stop stop-color="#ae9f84" offset="45%"></stop>
      <stop stop-color="#ae9f84" offset="60%"></stop>
      <stop stop-color="#aea284" offset="75%"></stop>
      <stop stop-color="#aea284" offset="90%"></stop>
    </linearGradient>
    <linearGradient id="16282281824-posters-1720559937265-vertical-regular" gradientUnits="userSpaceOnUse" x1="0" x2="0"
      y1="0" y2="100%">
      <stop stop-color="#82807d" offset="0%"></stop>
      <stop stop-color="#82817d" offset="15%"></stop>
      <stop stop-color="#82817d" offset="30%"></stop>
      <stop stop-color="#82807d" offset="45%"></stop>
      <stop stop-color="#82807d" offset="60%"></stop>
      <stop stop-color="#82817d" offset="75%"></stop>
      <stop stop-color="#82817d" offset="90%"></stop>
    </linearGradient>
    <linearGradient id="16282281824-posters-1720559937265-vertical-medium" gradientUnits="userSpaceOnUse" x1="0" x2="0"
      y1="0" y2="100%">
      <stop stop-color="#514f4d" offset="0%"></stop>
      <stop stop-color="#51504d" offset="15%"></stop>
      <stop stop-color="#51504d" offset="30%"></stop>
      <stop stop-color="#514f4d" offset="45%"></stop>
      <stop stop-color="#514f4d" offset="60%"></stop>
      <stop stop-color="#51504d" offset="75%"></stop>
      <stop stop-color="#51504d" offset="90%"></stop>
    </linearGradient>
    <linearGradient id="16282281824-posters-1720559937265-vertical-bold" x1="0" x2="0" y1="0" y2="100%">
      <stop stop-color="#2f2e2d" offset="0%"></stop>
      <stop stop-color="#2f2e2d" offset="15%"></stop>
      <stop stop-color="#2f2e2d" offset="30%"></stop>
      <stop stop-color="#2f2e2d" offset="45%"></stop>
      <stop stop-color="#2f2e2d" offset="60%"></stop>
      <stop stop-color="#2f2e2d" offset="75%"></stop>
      <stop stop-color="#2f2e2d" offset="90%"></stop>
    </linearGradient>
  </g>
  <g class="horizontal">
    <linearGradient id="16282281824-posters-1720559937265-horizontal" x1="0" x2="100%" y1="0" y2="0"
      gradientUnits="userSpaceOnUse">
      <stop itemprop="horizontal" stop-color="#a8a6a4" offset="0%"></stop>
      <stop itemprop="horizontal" stop-color="#9e9c9a" offset="15%"></stop>
      <stop itemprop="horizontal" stop-color="#a8a6a4" offset="30%"></stop>
      <stop itemprop="horizontal" stop-color="#a8a6a4" offset="45%"></stop>
      <stop itemprop="horizontal" stop-color="#a8a6a4" offset="60%"></stop>
      <stop itemprop="horizontal" stop-color="#afaeac" offset="75%"></stop>
      <stop itemprop="horizontal" stop-color="#a5a4a1" offset="90%"></stop>
    </linearGradient>
    <linearGradient id="16282281824-posters-1720559937265-horizontal-background" gradientUnits="userSpaceOnUse" x1="0"
      x2="100%" y1="0" y2="0">
      <stop stop-color="#cdcccb" offset="0%"></stop>
      <stop stop-color="#cdcccb" offset="15%"></stop>
      <stop stop-color="#cdcccb" offset="30%"></stop>
      <stop stop-color="#cdcccb" offset="45%"></stop>
      <stop stop-color="#cdcccb" offset="60%"></stop>
      <stop stop-color="#cdcdcb" offset="75%"></stop>
      <stop stop-color="#cdcccb" offset="90%"></stop>
    </linearGradient>
    <linearGradient id="16282281824-posters-1720559937265-horizontal-light" gradientUnits="userSpaceOnUse" x1="0"
      x2="100%" y1="0" y2="0">
      <stop stop-color="#9b9a97" offset="0%"></stop>
      <stop stop-color="#9b9997" offset="15%"></stop>
      <stop stop-color="#9b9a97" offset="30%"></stop>
      <stop stop-color="#9b9a97" offset="45%"></stop>
      <stop stop-color="#9b9a97" offset="60%"></stop>
      <stop stop-color="#9b9a97" offset="75%"></stop>
      <stop stop-color="#9b9a97" offset="90%"></stop>
    </linearGradient>
    <linearGradient id="16282281824-posters-1720559937265-horizontal-regular" gradientUnits="userSpaceOnUse" x1="0"
      x2="100%" y1="0" y2="0">
      <stop stop-color="#968669" offset="0%"></stop>
      <stop stop-color="#968369" offset="15%"></stop>
      <stop stop-color="#968669" offset="30%"></stop>
      <stop stop-color="#968669" offset="45%"></stop>
      <stop stop-color="#968669" offset="60%"></stop>
      <stop stop-color="#968b69" offset="75%"></stop>
      <stop stop-color="#968669" offset="90%"></stop>
    </linearGradient>
    <linearGradient id="16282281824-posters-1720559937265-horizontal-medium" gradientUnits="userSpaceOnUse" x1="0"
      x2="100%" y1="0" y2="0">
      <stop stop-color="#5d5341" offset="0%"></stop>
      <stop stop-color="#5d5141" offset="15%"></stop>
      <stop stop-color="#5d5341" offset="30%"></stop>
      <stop stop-color="#5d5341" offset="45%"></stop>
      <stop stop-color="#5d5341" offset="60%"></stop>
      <stop stop-color="#5d5641" offset="75%"></stop>
      <stop stop-color="#5d5341" offset="90%"></stop>
    </linearGradient>
    <linearGradient id="16282281824-posters-1720559937265-horizontal-bold" gradientUnits="userSpaceOnUse" x1="0"
      x2="100%" y1="0" y2="0">
      <stop stop-color="#2f2e2d" offset="0%"></stop>
      <stop stop-color="#2f2e2d" offset="15%"></stop>
      <stop stop-color="#2f2e2d" offset="30%"></stop>
      <stop stop-color="#2f2e2d" offset="45%"></stop>
      <stop stop-color="#2f2e2d" offset="60%"></stop>
      <stop stop-color="#2f2e2d" offset="75%"></stop>
      <stop stop-color="#2f2e2d" offset="90%"></stop>
    </linearGradient>
  </g>
  <g class="masks">
    <mask id="16282281824-posters-1720559937265-pattern-mask" maskUnits="userSpaceOnUse"
      maskContentUnits="userSpaceOnUse">
      <pattern id="pattern" x="0" y="0" width=".0133" height=".0144" viewBox="0 0 23.07 40">
        <path
          d="M17.62 0l-6.07 10.5m2.74 4.76L8.22 4.75m-5.48 0h12.13M.01 0h23.07M6.07 20L0 9.5m2.74-4.75l-6.07 10.5m-5.48 0H3.33m8.2 4.75L0 .02-11.54 20m40.68 0L23.07 9.5m2.74-4.75l-6.06 10.5m-5.49 0H26.4M34.6 20L23.08.02 11.53 20m-5.46 0L0 30.51m2.74 4.75l-6.07-10.5m-5.48 0H3.33m8.2-4.75L0 40l-11.54-19.98zM17.6 40l-6.06-10.5m2.74-4.76L8.2 35.25m-5.48 0h12.13M0 40h23.07L11.54 20.01m17.6 0l-6.07 10.5m2.74 4.75l-6.06-10.5m-5.49 0H26.4M11.53 20h23.08L23.07 40"
          stroke-linecap="round" stroke-width="3.5" stroke="white"
          fill="url(#16282281824-posters-1720559937265-horizontal-background)"></path>
      </pattern>
      <rect width="100%" height="100%" fill="url(#pattern)"></rect>
    </mask>
    <mask id="16282281824-posters-1720559937265-horizontal-mask" maskUnits="userSpaceOnUse"
      maskContentUnits="userSpaceOnUse">
      <rect width="100%" height="100%" fill="url(#16282281824-posters-1720559937265-horizontal-background)"></rect>
    </mask>
    <mask id="16282281824-posters-1720559937265-radial-mask" maskUnits="userSpaceOnUse"
      maskContentUnits="userSpaceOnUse">
      <rect width="100%" height="100%" fill="url(#16282281824-posters-1720559937265-radial-background)"></rect>
    </mask>
    <mask id="16282281824-posters-1720559937265-vertical-mask" maskUnits="userSpaceOnUse"
      maskContentUnits="userSpaceOnUse">
      <rect width="100%" height="100%" fill="url(#16282281824-posters-1720559937265-vertical-background)"></rect>
    </mask>
  </g>
  <use href="#16282281824-posters-1720559937265-pattern-render"></use>
  <g>
    <use href="#16282281824-posters-1720559937265-background"></use>
    <use href="#16282281824-posters-1720559937265-light"></use>
    <use href="#16282281824-posters-1720559937265-regular"></use>
    <use href="#16282281824-posters-1720559937265-medium"></use>
    <use href="#16282281824-posters-1720559937265-bold"></use>
  </g>
  <g itemprop="animation">
    <animate href="#16282281824-posters-1720559937265-light" attributeName="stroke-opacity" repeatCount="indefinite"
      dur="5s" values="0.9;0.0;0.9"></animate>
    <animate href="#16282281824-posters-1720559937265-regular" attributeName="stroke-opacity" repeatCount="indefinite"
      dur="4s" values="0.9;0;0.9"></animate>
    <animate href="#16282281824-posters-1720559937265-medium" attributeName="stroke-opacity" repeatCount="indefinite"
      dur="5s" values="0.9;0;0.9"></animate>
    <animate href="#16282281824-posters-1720559937265-bold" attributeName="stroke-opacity" repeatCount="indefinite"
      dur="3s" values="0.9;0;0.9"></animate>
    <animate href="#16282281824-posters-1720559937265-regular" attributeName="fill-opacity" repeatCount="indefinite"
      dur="8s" values="0.9;0.75;0.95;0.8;0.9;"></animate>
    <animate href="#16282281824-posters-1720559937265-radial-background" attributeName="cx" repeatCount="indefinite"
      dur="34s" values="0%;33%;100%;0%;100%;0%;"></animate>
    <animate href="#16282281824-posters-1720559937265-radial-background" attributeName="cy" repeatCount="indefinite"
      dur="55s" values="0%;100%;33%;100%;66%;0%"></animate>
    <animate href="#16282281824-posters-1720559937265-vertical-light" attributeName="x1" repeatCount="indefinite"
      dur="55s" values="0%;33%;100%;0%;133%;0%;"></animate>
    <animate href="#16282281824-posters-1720559937265-vertical-light" attributeName="y1" repeatCount="indefinite"
      dur="86s" values="0%;100%;33%;100%;66%;0%"></animate>
    <animate href="#16282281824-posters-1720559937265-horizontal-regular" attributeName="x1" repeatCount="indefinite"
      dur="34s" values="0%;100%;66%;0%;33%;133%;0%"></animate>
    <animate href="#16282281824-posters-1720559937265-horizontal-regular" attributeName="y1" repeatCount="indefinite"
      dur="55s" values="0%;66%;100%;33%;100%;66%;0%"></animate>
    <animate href="#16282281824-posters-1720559937265-vertical-medium" attributeName="x1" repeatCount="indefinite"
      dur="34s" values="0%;100%;66%;0%;33%;133%;0%"></animate>
    <animate href="#16282281824-posters-1720559937265-vertical-medium" attributeName="y1" repeatCount="indefinite"
      dur="55s" values="0%;66%;100%;33%;100%;66%;0%"></animate>
    <animate href="#16282281824-posters-1720559937265-vertical-bold" attributeName="x1" repeatCount="indefinite"
      dur="34s" values="0%;100%;66%;0%;33%;133%;0%"></animate>
    <animate href="#16282281824-posters-1720559937265-vertical-bold" attributeName="y1" repeatCount="indefinite"
      dur="55s" values="0%;66%;100%;33%;100%;66%;0%"></animate>
  </g>
</svg>
