<svg id="16282281824-posters-1720553718869" itemscope="" itemtype="/posters"
  itemid="/+16282281824/posters/1720553718869" viewBox="0 0 769 512" preserveAspectRatio="xMidYMid meet" tabindex="0"
  class="animate landscape" xmlns="http://www.w3.org/2000/svg">
  <!---->
  <defs class="graphic">
    <pattern id="16282281824-posters-1720553718869-pattern" width="769" height="512" viewBox="0 0 769 512"
      patternUnits="userSpaceOnUse" preserveAspectRatio="xMidYMid meet">
      <rect itemprop="background" width="769" height="512" tabindex="-1"
        id="16282281824-posters-1720553718869-background" fill-opacity="1"
        fill="url(#16282281824-posters-1720553718869-radial-background)"></rect>
      <!---->
      <path id="16282281824-posters-1720553718869-light"
        d="m37 4-3 8c-1 13-12 28-20 28q-7 0-5 5c0 2 5 5 7 5q3 1 3 11c0 8 6 10 9 3q5-11 5-20-1-7 6-10l5-8c4-7 5-9 11-11q7-4 7-8l2-5c0-2 0-2-12-2H40zm59-2-3 6q-3 8-8 9l-3 2-7 2q-6-1-7 12c-1 10-2 12-8 14-3 1-8 7-8 9 0 6 7 7 12 3l6-4 4-7c6-14 18-23 23-15 4 6 0 26-6 28a14 14 0 0 0-10 9l-3 5-4 5c-8 8-10 11-10 22q-1 9-3 13c-3 5-3 4-1 6 2 3 16 2 19-1 2-2 3-9 1-10l-1-4 1-4 1-3 2-5 2-5 3-5 12-16 1-1 5-12c6-13 6-18 2-26q-6-8 0-16 5-7-1-10-6-5-11-1m36 1 1 5c2 1 3 9 2 13-2 7-1 23 1 25q8 7 11-9 1-8 7-12l4-5c0-4 6-8 9-6q3 2 8-6l4-5q6-4-6-3-9 0-9 2-4 4-15 4-5 1-5-3 1-4-6-3h-6zm103 1-5 10q0 2-4-1c-5-4-16-1-21 7l-4 6c-8 2-8 16 0 20q4 4 9-8c2-8 11-16 14-13l3 7q2 6 6 8 6 4 8 15-1 8 8 12l6 5q3 4 11 7c6 2 17-13 14-20l-1-6c0-11-11-11-13 0q-2 11-10 4-6-5-6-12c0-3-3-10-4-11a18 18 0 0 1 4-26q14-8-5-8h-10zm40-3 2 3 1 12q1 20 10 18c3-1 4-3 3-19V0h-8zm34 3q2 4-1 5c-5 5-4 12 2 12q6 1 10-12l3-8q3-1-7-1h-7zm53-2-8 3q-5 1-8 5-5 5 5 7 8 1 9 10l2 5 1 5 2 6c2 1 1 7-1 8q-7 5-15 2l-6-2c-4 0-3-11 0-20q6-13-4-14c-4 0-10 11-10 19l-2 4-3 6c-2 5-11 17-13 17q-6 1-7 8l-4 6q-8 10 11 10c12 1 12 1 13-12 1-5 7-16 9-16l4-3 3-1 5 5 4 6c0 2 7 4 9 3q5-3 12 3l5 4c5 0 6-9 2-15-3-3-3-5-1-16l-4-20c-3-9 2-19 10-20l3-2 2-1 1-1c0-2-23-1-26 1m72 1-5 3-3 2q-2 2-4-1-4-3-7 2 0 4-3 0c-4-5-11 1-10 9q1 8-6 14l-5 5 1 5 4 10q9 9 11-7l2-8 4-11 4-4 5-6q3-6 3-3c2 2 1 25 0 28v4c2 2-4 15-8 19l-3 2-4-4q-9-9-12 5-3 15 17 15h8l3-4c4-4 4-5 4-11q-1-8 9-16c4-5 4-8 0-19q-5-11 6-18 8-7 9-12c0-4-16-3-20 1m44 0q0 5-10 8c-6 2-8 3-7 11q0 16 11 9l7-2q10-1 9-9c0-9 10-18 15-14q6 3 8-4l1-2h-34zm82-2-3 2-6 4-4 3-4-2-4-4-3-1q-5-1-6 10t7 9q8-1 9 3l5 6q6 7 3 14l-3 8q-2 6-6 5-9 1-10 7c0 2-5 8-8 10q-3 1-5 5-4 10-8 9l-5 2q-6 3-9-3-5-8-11-2-5 7 4 17 3 4 0 16-3 8 5 6 2-1 8-16c2-4 2-5 8-6q10-3 18-13c10-12 14-15 23-16q8 0 9-13l4-12q3-8 6-5c4 2 8-3 6-6q-3-6-8-1l-2 2-3-2c-4-4-5-6-5-15q-2-15 13-14 10 1 9-5c-1-3-22-4-24-2m42 4-5 6v8q2 15-8 21-8 6-3 9 8 5 17-6 5-9 12-11l5-4c2-2 3-13 1-18l-2-7q0-4-6-3c-5 0-6 0-11 5m70-2q-6 6-14 4c-7-1-8-1-8 10q-2 16-5 16-8 0-10 13c-1 10-14 21-21 17-7-5-13 0-7 7 2 3 2 4 2 12q1 23 12 4l6-6q12-8 14-19 2-10 10-13a15 15 0 0 0 9-13l2-6q2-10 8-6 7 5 10-5 2-6 9-9l10-8-12-1c-12 0-13 0-15 3m85 0q-8 12-14 6-7-9-13 1c-3 9-4 9-9 11q-16 6-15 14c0 8 13 7 20-1 9-10 12-12 17-9q3 4 10 0l4-3 11-5 1-9V0h-5q-5-1-7 3M507 27l-6 3q-4 1-4 9 0 12-5 13-10 5-1 12 4 5 4 8c0 11 7 9 9-2l3-9V50q-3-3 0-7l1-4 3-5q5-6 1-9-2-2-5 2m15-2q-9 3-7 10c0 14 12 17 13 4q5-20-6-14m-348 7c-3 3-3 13 0 18l1 4c0 11 11 13 12 2l2-5q3-3-1-8-2-1-1-3c0-3-2-9-5-10q-4-3-8 2m117 7c-4 5-2 13 3 13 4 0 7-11 4-14q-4-2-7 1m166 0-4 1q-11 1-5 14l5 9q2 6 6 5 7 1 6-12l-1-11-1-6zm240 1-3 4q-2 4-5 4-5 4-5 12l-3 8c-3 7-3 10-1 18q5 9-3 17l-4 7c-5 21-4 26 5 26q7 0 7-9 2-15 6-22c2-5 2-7 0-17q-1-6 5-13 6-6 6-14l2-8q3-12-1-13zm40 2q-6 8-8 15 0 4-4 9-8 8-6 11l1 8c1 10 9 11 11 2l2-7 2-6 2-3 1-1 1-2 4-11 4-11c0-6-7-8-10-4m15-1q-2 4 4 6 5 0 3-5c0-2-6-3-7-1m-539 5q-5 6-2 13 9 14 11-6-1-13-9-7m-88 2q-4 8-4 15c3 12 3 11-3 16q-8 7-9 16-1 14-9 21l-4 8-3 5c-6 4-5 11 1 11a8 8 0 0 1 8 5l1 1 4 8q8 10 2 22c-3 6-4 6-11 9q-10 2-8 8c2 5-7 19-11 19q-7 1-11 8l-2 5-6 3q-8 3-7-7v-11q-2-11 6-14 8-5 8-14a6 6 0 0 0-13-2q-2 5-6 6l-4 1q-5 5-5-3l-1-9v-10q4-10-5-10l-6-1q-3-3-10 6-5 9-8 5-6-3-8 8c-2 12 6 15 13 5q-1-3 6-1 11 2 11 15 0 7 10 22c3 6 3 22 0 29q-5 9-1 12c3 2 5 2 10-8q6-9 11-7l5 9q1 6 7 7 5 0 5-15 1-14 10-16 10-3 10-12l3-9c0-3 6-8 9-8a16 16 0 0 1 12 15l1 5-3 5-8 7-2 1q-9 3-9 14c-1 10-2 11-9 14q-13 2-13 6-4 6 0 10 3 6 9 1 8-5 13-2 9 5 9-9a33 33 0 0 1 9-23l4-2 6-7c6-9 7-10 12-6q7 8 14-4l5-7 4-3 3 2 9 5q7 1 7 5 4 12 10 5 8-10-3-13c-4-1-4-14-1-20 3-5 5-6 18-7q11-1 9-13-2-18 15-27l7-6 3-3c5 0 8-9 5-19-3-8-12-12-17-8l-2 3 2 5q6 18-8 20l-4 2-1 1c-3 0-13 12-13 15q-1 8-6 12l-7 6-4 5c0 2-10 11-14 13l-5 4c-3 9-3 9-7 9-7 0-17 3-20 6q-9 5-10-9c0-5-1-6-6-13l-3-4v-10l4-17q2-3 8 2 4 3 4 9c0 5 0 5 5 11q13 12 17-6 2-13 15-14 8 1 8-11a15 15 0 0 1 2-12l2-3 5-4 4-4 4 2c4 3 11-1 11-5l3-6q6-10 2-15l-4-3c-2 0-8 7-8 9l-3 5-4 3-4-3q-13-7-12 9l1 7-5 3-8 3q-5 1-5 10 0 7-10 13-6 5-9-2-4-8 4-21c7-11 4-23-5-19l-6 2q-7 0-6 9c5 22-13 34-19 13l-3-9c-2-5 2-16 8-22q5-6 6-13l3-8 2-3 3 2q13 7 6-16l-2-13q-1-20-10-12m640 3c-3 4-3 13 1 14 5 2 4 7-1 7-7 0-29 21-29 29 0 6 9 12 11 7l4-7q6-13 14-13c4 0 5-2 5-16q0-29-5-21m-611 6c-5 5 2 17 9 17l3-2c7-7-5-21-12-15M2 60c-2 3-1 22 0 22 3 0 8-10 8-18 0-5-7-9-8-4m184 8c-4 3-5 14-2 14q5 2 9 9c5 10 14 8 13-4l1-8q4-10-7-9-6 1-8-1-4-3-6-1m39 3q-5 4-2 8c2 6 10 4 12-3 2-6-7-10-10-5m225 3q-16 10-11 19l1 7q1 6-2 6-10 2-3 12 4 6 10 4l6 1 7 2c11 0 15 10 9 21q-3 6 2 8 6 3 6 7l1 6 7 13q3 3 8-2 7-6 2-13-3-2-4-8 0-9-7-8-4 1-4-4v-6c2-3 1-15-2-21-4-7-3-6-11-4q-10 0-13-18 0-9 7-14c10-5 1-13-9-8m-67 1q-2 1-3 8 0 6-2 7-5 2-6 10 1 3-5 8c-6 6-7 6-11 0q-6-9 0-16 7-15-12-6a8 8 0 0 0-4 12q1 6 7 15c4 7 3 22-3 22q-5 1-8 6-3 4-10 0c-6-3-7-6-4-18q3-13-4-12-12 1-10 19 4 23 12 21 3 0 7 4 3 4 8 3l7 1q11 4 10-7c-1-7 8-20 16-23q9-3 8-7 0-3 7-14l4-6q3-3 3-11l2-10c1-6-5-10-9-6m272 0q-4 6 2 8 4-1 5-6-1-6-7-2m-188 4v6c4 6 13 4 12-4q-5-12-12-2m110-2-4 1c-6 0-9 14-4 19 2 2 2 2 11 2 10-1 10-1 11 2q3 7 8 4c5-3 1-11-5-10h-3c1-3-1-16-3-18-1-2-8-3-11 0M39 79l-6 1q-6 1-7 7-1 4-4 5-4 1-5 7c0 9 13 21 19 18 3-1 3-1 3-11q0-15 4-16c2 0 4-7 2-10q-3-3-6-1m193 7c-4 3-5 11-2 14 4 6 12-2 12-12 0-6-6-7-10-2m-68 1-7 2c-3 0-7 6-6 8q3 4 6 3 5-3 9 2l6 3c4 0 4 1 5-8q2-19-13-10m164 3q-7 3-7 11 1 9 6 9c5-2 12-18 9-20q-3-3-8 0m315 2q-1 6 3 7 4-1 5-6c0-4-6-6-8-1m-380 5c-4 4-1 11 5 11q10 1 5 19-1 5-4 6c-15 6-18 9-18 16l-3 9-3 5c-1 1-4 7-4 10q1 4-11 10c-8 4-7 2-7 19 0 12 0 12-7 13a8 8 0 1 0 6 13l7-5 4-3v-8q1-15 9-19 8-6 9-14t9-8 10-6l3-10 3-12c0-6 0-6 3-8a35 35 0 0 0 13-13q3-2 0-8l-3-6q-6-9-14-10l-4-1q-4-4-8 0m131-1c-4 3-2 9 4 10q3 1 4-2c4-6-3-12-8-8m166 5-2 1-1 1c-3 0-8 7-8 9l-1 6q-4 8 2 9 7 1 4 4c-2 4-5 14-5 20q1 5-3 7l-3 4q0 5 2 5l6 3q4 4 7 2c5-3 8-13 5-14l-1-8q0-12 7-19t1-11l-4-3c-2 0-2-7 0-11v-4q-2-3-6-1m148 6q-3 3-1 8 3 7-1 12c-3 4-10 11-13 11q-5 1-4 13c0 10 1 11 7 12q8 1 8-9c0-8 6-18 11-18a14 14 0 0 0 7-15v-9l-4-3q-6-7-10-2m-286 0a5 5 0 1 0 7 1c-1-2-6-3-7-1m206 2c-9 0-11 2-15 16l-2 7q-3 5 5 19 7 11 2 18l-4 8q-2 9-3 0c0-4-8-12-13-13-10-2-12 5-3 10l6 5 3 7 2 8c0 6 10 11 15 8q4-2 3-9c0-11 1-13 7-19l6-8c0-3 3-10 4-10 4-3-1-8-5-6q-11 2-12-13c1-5 1-6 7-11 9-9 11-18 4-18zm-222 2q-6 4-4 10t-2 6l-7 4-7 5c-6 2-6 18 1 21l3 1-5 2c-9 4-6 13 4 13q4 1 9-5c4-5 4-5 4-14q0-8 8-18 3-3 2-7l2-7q3-6 3-11-3-4-11 0m360 2c-1 2-9 4-13 4q-11 1-4 11c6 9 8 9 15 2 5-4 5-4 5 9l1 7-2-34zm-248 2q-3 4-4 10t-5 7c-5 0-12 6-12 12 0 8 7 10 13 5q3-5 9-4c7 0 7-1 8-9l3-12q4-5 2-7c-2-3-11-4-14-2m-467 8c-7 3-8 4-8 11l-1 8q-3 8 3 12c5 4 11-2 10-9q-1-5 1-11l2-8-1-3zm-48 2c-2 1-2 2-2 14q0 15 2 10l1-5 1-2q17 0 16-7 0-4-6-7l-4-3q-3-3-8 0m429 3q-4 2-5 13l-1 10q-1 12 9 5l7-2q9 0 8-4-1-6-6-7-3-1-4-7-2-9-8-8m152 1q-3 2-2 6l1 7c2 16 13 14 15-2q1-7-2-9c-3-2-10-3-12-2m65 8c-9 11-5 23 7 17 6-3 6-3 6-9-1-10-8-13-13-8m-567 1-6 4-3 2c-4 0-9 7-10 11-1 8 6 13 11 8l4-1q5-1 6-4l5-12q3-11-7-8m647 0q-4 3 1 10 4 6 1 8l-2 4q-2 8-5 9-4 1-6 10l-3 7c-3 3-3 3-3 8l1 9q0 10 6 12 5 2 6-10c1-8 2-10 8-15q4-4 5-10 2-17 14-18 7-3 7-11 1-6-9-5-8 0-8-3c0-4-9-7-13-5m-279 16q-3 4-1 14 1 4-2 4l-4 1q-2 2-9 2-12 0-10 8c0 5-1 6-11 11h-4q-10-6-9 6 3 8-2 12l-3 4-5 4-5 3-2-3c-2-3-8-3-10 0q-5 3 4 13l4 7c0 7 17 5 18-2l7-10 7-8 3-6 3-6c0-5 9-11 12-8q3 1 8-4 1-3 10-3c8-1 9-3 10-16l1-11c2-2 1-11 0-13-3-2-9-1-10 1m129 3c-9 9-11 14-7 23q5 13 10 0l3-8q6-9 4-15-3-7-10 0m-282-1c-2 2-3 19-1 21 3 4 10 2 11-2 2-5 1-15-1-18-1-4-7-4-9-1m229 1-2 3-3 4-5 5c-2 5-7 10-8 7q-3-6-7-3-2 4 3 6 2 0 2 3c1 5 7 11 10 11a25 25 0 0 0 13-13l3-5c5-11 0-25-6-18m-166 1c-7 4 3 13 12 10q9-4 1-9-9-4-13-1m55 4c-4 4-1 14 5 14q5 1 5-8c1-7-6-10-10-6m262 1-3 9c-3 11-4 12-11 12-6 0-6 0-10 4-6 6-3 12 6 10 5-1 17 2 19 5 3 4-5 22-11 26q-9 5-4 15 6 10 11-1 1-4 8-11l7-11c3-3 3-18 0-26q-2-3-2-16c0-10 0-12-2-15q-4-5-8-1m-353 12c-17 18-20 24-20 34q0 18 10 13 4 0 5-11c0-11 2-13 12-19q17-10 3-18-6-5-10 1m-39 5-6 4c-11 2-13 20-2 20 2 0 14-13 17-17 5-8-2-14-9-7m479 0-3 4-3 5-3 4-1 3q-2 2-2 9l-1 10-1 5v3l-2-2q-2-2-9-2-19 0-7 12 11 11 15 0l2-4 2 4q5 9 11 2 3-4 4-2 3 5 3-4 0-11-3-5-3 4-5-11 0-8 5-10 4-2 3 1v-22q0-6-5 0m-220 10-9 2q-10-1-4 7 9 17 20 5l4-2q4 6 8 3c4-3 1-11-5-9q-2 1-2-2-1-11-12-4m26 0c-4 4 2 10 7 7q4-1 1-6c0-2-6-3-8-1m-98 2-2 9-2 8c-2 3-1 10 1 11 2 2 8 0 8-2 0-1 7-8 9-8q3-1 2-6l-4-3q-4-2-5-5-3-9-7-4m-109 2q-3 2-3 9c0 7 0 7-3 8q-12 5-14 9c-2 2-2 3-10 3-8 1-9 1-13 6l-5 7c0 2-6 10-8 10q-3 1-4 7 0 6 6 6 5 0 8 3c6 7 14-1 9-10v-2l1-3q2-9 11-11l6 2q7 4 9-2 1-6 6-14l3-4 4-5 4-5q1-3 5-1 9 0 10-9c0-6 1-6-11-6-8-1-9 0-11 2m220 3-2 5 2 7 1 8q1 5-3 3l-9 2q-7 3-9 1c-7-5-13 5-8 11 4 6 5 9 6 21 0 13 0 13 6 24q3 6-5 18l-6 11q-4 12-10 12c-15 3-16-20-1-26q4-2 6-5c6-11 2-18-6-11l-6 5a36 36 0 0 0-17 22v9c5 5 5 21-1 22l-5 4-6 4q-4 1-4 4l-2 6q-4 4-6 16 1 9-9 12-9 1-8 7c0 2 10 10 13 10q6-1 8-6l2 1c2 4 7 2 7-2q0-4-3-3a2 2 0 0 1-2-4l1-2 2-6c6-14 6-15 13-11q4 3 7 1l2-1v-8c-1-11-1-12 1-17q7-12 16-5 9 8 10-5l4-11c2-7 10-7 13 0q6 13 11 3c1-3 1-3-1-9l-3-11-1-5-1-4 2-9 2-10q3-6-3-6-4 0-6-3c-5-6 0-28 8-34l2-6v-4l2 6q5 10 8 11 5 2 4-16l-1-12-4-8q-5-8-8-8zm-91 6q-3 4-1 9l3 7q3 9 12 2c5-2 6-3 4-11-1-9-12-13-18-7m149 0q-3 2-3 5l-2 4q-6 3-7 8 1 4 5 5 9-1 4 17l1 5q5 1 6-4l2-5q6-3 4-10l-1-14c0-10-1-11-2-13q-3-2-7 2m-381 0c-4 3-2 10 3 10q5 0 5-6 0-9-8-4m-247 7q-3 2-1 9c1 9 1 10-2 14q-5 6-1 7c3 4 13 0 13-5l1-3c3-2 2-19-1-22q-4-6-9 0m420 9-2 5 1 13v10l4 4q5 3 5 10t3 7q7 6 7-10c0-12 1-15 9-20q6-4 5-6 1-2-8-2c-8 0-8-1-9-5a9 9 0 0 0-15-6m83 3-1 5c3 18 3 20 5 21l5 2q6-1 8 6 9 13 8-3-3-17-8-19-3-1-3-6 1-8-8-8zm-236 2q-5 4 1 13 8 13-6 24-5 7-12-2-12-10-18 18-4 12-7 12-7 1-12 12l-6 10-3 6-4 7-5 8-6 5q-6 2-7 6c0 2-9 14-12 16a8 8 0 1 0 11 8q3-8 10-5 7 6 9-6 1-11 11-15 7-3 6-13-1-15 10-19 9-3 10-15 1-9 8-12l6-4 3-2c1 1 5 14 5 19l2 5 3 2 2-2q2-2 2-10c1-10 3-15 10-26 5-10 6-13 4-19l-2-11q1-11-7-11-3-2-6 1m339 1-2 3q0 5-5 10c-6 5-1 11 8 10q6-1 8-13c1-9-4-15-9-10m-359 2-6 1h-5q-9-3-14 4c-1 4 0 16 2 19q7 9 12-4c2-9 3-10 11-10q11-2 11-8-1-2-5-3zm209 0q-6 5 0 11 6 5 8 2l1 4q0 12 9 13c10 2 15-5 9-13l-3-5c0-3-7-5-11-2q-5 2-5-4c0-2-4-7-5-7zm-314 11c-3 5 0 12 5 12q7-1 6-9-6-10-11-3m548 0q-7 1-10 7c-4 10-4 10-9 11q-15 3-6 19c6 9 6 13-2 20l-4 4v10q0 17-5 17-5 2-6 9l-3 10c-3 6-4 26-1 32 4 10 14 6 12-5 0-5 2-13 5-16 2-3 2-4 2-15-1-7-1-7 2-9l6-4q4-1 3-10l-2-11v-6l6-8 6-7v-7l-2-9q-2-8 11-14 8-5 8-14 1-7-11-4m-489 3-2 3q0 6-6 5-9 1-7 11c2 3 2 12 1 15-3 4-5 14-5 16 1 4 12 5 14 1q7-16 7-21t3-10c6-10 3-24-5-20m385 0c-2 1-5 10-5 14l-2 6q-5 8 3 9c4 0 11-12 13-22 2-5-4-10-9-7M0 255q0 24 4 1c2-11 2-11 0-13-4-3-4-2-4 12m134-7q-2 2-2 8 0 11-5 20l-2 6-3 4a4 4 0 1 0 5 3q-1-3 3-1l8-4 7-6c2 0 5-6 5-8l-2-6-3-9q-3-12-11-7m494 0-1 6-1 7q-4 6 1 11t8-1l3-4 3-3q6-5-1-9l-4-5c0-4-6-6-8-2m112 0q-3 2 0 14 1 8 6 9 18 7 14-11-3-12-9-12c-9-2-9-2-11 0m-367 1-5 4q-3 2-7 2-9-2-12 6c-5 11 0 17 8 10l8-1c11 0 22-15 15-20q-4-3-7-1m140 3h-3a5 5 0 0 0-5 9 18 18 0 0 1-2 22c0 2-7 11-10 12q-13 3-8 12l3 4 2 3c0 3 7 10 9 10 5 0 8-10 4-13-3-3 1-13 7-17l5-6q2-5 5-7 6-4 3-11l-2-10q0-11-8-8m-342 2c-3 3-3 5-4 16 0 10 0 10 3 12q6 5 10-3c2-3 1-22-1-25q-4-4-8 0m235 1c-1 3 0 13 2 16 6 9 17 4 15-8-2-7-14-13-17-8m-381 8c-6 6-7 6-9 13l-3 7c-2 1-7 12-7 14q0 3 3 4l6 4q12 10 12-9-1-13 6-17c9-7 9-7 9-11q0-17-17-5m442 5-7 2c-7 0-13 12-8 18q1 3 8 2c5 0 6 0 11-4 13-12 10-25-4-18m-139-1c-3 3 1 10 5 10 6-1 4-11-1-11zm402 2c-2 0-7 6-7 9l-3 6-5 7-3 9-3 8q-1 7-9 9-12 4-5 14t13 2l5-3 6-1 2-1q5 0 1-7c-4-6-2-15 3-16q7 0 6-10l3-13q4-13 0-13zm-125 4v14q-2 3-2 9 1 6-4 10c-6 6-6 9-1 20q4 8 10 8 6 1 7 7l1 4a36 36 0 0 1 1 26c-1 9 13 18 17 11 1-3 1-18-1-29-2-8-2-9 2-17 3-5-3-9-8-4q-5 5-8-3l-7-4c-6-2-6-5 1-17q7-9 6-13l1-5 2 1q7 3 9-3l1-4q2-4-1-6l-13 6q-2 4-2-5 0-11-6-10-3 0-5 4m-556 0q-6 4 2 13 7 9 12 3c4-5 0-14-8-17q-3-2-6 1m717 4-3 5q-2 12-9 17l-4 2v9q-2 13-11 19-4 1-4 4-1 4 4 4 4 0 7 4c6 8 13 4 11-6-2-7 0-10 6-19l6-6v-35zm-372 0-3 3-6 5a35 35 0 0 0-13 11q-6 9-12 10l-5 3-8 4c-8 3-9 4-9 16q0 16 6 16 8-1 9-11 0-6 8-14 6-7 12-1 11 9 12-7 0-13 12-16 9-3 8-8-1-8-6-11zm-52 3c-6 5-4 13 3 13 6 0 8-11 3-15q-2-3-6 2m-183 0-2 3-10 11c-5 5-5 5-9 4-10-1-9 9 1 16 10 6 12 5 16-5l4-10 3-6 3-5 2-6q-2-6-8-2m500-1q-10 4-12 13 0 9-7 14c-5 5-1 23 5 25q9 2 6-10-3-16 8-21 9-4 8-12 2-13-8-9m-357 8-6 5c-11 4-19 21-14 27l2 9q2 22 11 18l4-4c1-4 0-18-3-23q-5-8 2-15 10-12 13 4 5 12 12 8c3-2 5-10 3-10l-1-3q-1-6-8-12l-7-5q-4-6-8 1m140 0q-3 1-4 10t-6 10l-4 2q-1 2-3-1-6-5-14 1c-4 3-10 12-10 14 0 3-7 12-10 12-2 0-7 13-8 20q-2 9-5 9-6 1-6 7c0 6-8 10-15 9q-9-1-9 6c0 8 14 11 22 4q4-4 7-2 7 1 10-5l2-3q4-1 4-12l1-9 2-5 7-7 8-9 1-5 3-7q2-4 5-6l6-5 1-3 3 2q10 5 17-6c7-11 4-24-5-21m-368 3q-8 5-2 14 10 18-2 28c-5 3-5 3-11-1q-11-9-6 8l3 7q2 4 9 1l10-4q8-2 10-8l2-6 1-3 4-7q9-15-3-23l-4-2c0-4-8-7-11-4m112 4q-7 3-8 12-2 12-9 14-5 2-16 16l-5 5q-11 2-11 14 2 8-12 21l-5 6 1 10c1 22 15 22 15 0q0-6 5-11l4-6 8-6c8-4 9-6 9-17 0-8 0-9 2-12 3-4 11-9 15-10l4-1 2-1q5 1 5-11l2-10q4-8 3-12-3-6-9-1m447 0q-4 2-4 7c0 5 6 8 9 4 3-6-1-13-5-11m-119 11c-4 3-1 9 4 7q4-2 0-6-2-3-4-1m-45 3c-4 2-7 19-4 23q3 6 7 5 3 0 1 1l-1 11q0 10 3 10c3 1 3 1 10-3q23-13-7-19-3 0-2-2c1-2 0-24-2-26zm-212 4q-3 2-4 15 0 17-7 17-8-1-8 11-1 8-3 9l-7 6-7 3q-7 0-8 8-2 6-6 5-9 2-5 12c4 9 20 5 23-6q0-2 6-8 14-10 17-23l2-8q0-6 5-5 10-1 10-9l1-5c2 0 1-14-1-18q-2-7-8-4m-209 2c-5 5 1 16 6 12q3-6 1-12-3-4-7 0m-18 2-3 4c0 2-7 8-10 10q-11 3-11 19c-2 18-2 17 0 19 6 6 16-2 16-12l2-9 3-5c9-11 14-23 10-27q-2-5-7 1m300 11a4 4 0 1 0 7 5q-1-7-7-5m121 0q-4 3-3 8c2 5 11 2 11-4q0-6-8-4m-339 6-3 6a13 13 0 0 1-9 9l-3 1q-8 3-9 10-3 10 11 9c8 0 8 0 10-7q4-10 12-13 12-6 4-16-6-8-13 1m462 0-3 7-9 11-7 6q-2 6-11 11-11 5-11 8-2 6 4 9c2 1 7 0 7-2 0-1 8-8 12-10l8-8q7-10 13-9l4-1 1 2c2 6 12 10 16 6 2-3 1-11-1-14q-5-4-9 0t-5-6q-2-14-9-10m-262 11q-3 2-3 5c0 10 15 9 16 0q-1-12-13-5m17 4c-3 3-4 5-1 14 2 10-3 19-12 19q-8 1-9 10c0 3-6 10-8 10q-4 2-13 12-7 8-10 2l-5-5c-4-5-5-15-1-21l12-15c3-4 3-5-3-11q-10-13-15 6l-7 15-3 5q-3 3-3 11-1 13 6 13l6 4q11 8-1 17-6 5-3 11v3q-1 2-2-2-5-9-12-3c-4 3-1 15 5 17 3 2 9-1 9-5q0-3 2 0l4 2 1 1 4 2q7 4 4-6-4-21 16-23 9 0 9-8 1-13 14-16 7 0 13-7l3-8 4-8 2-4q6-5 7-15l2-10q-1-6-7-8l-4-1zm369 0q-11 7-3 13c3 3 13-2 15-6q3-12-12-7m-272 0-6 13-2 8-3 6q-4 4 0 10 3 4 1 10-1 8 2 8 3 4 10-3 8-6 3-13-3-7 1-15l2-7q0-8 5-5c4 4 12 3 12-2q3-11-14-11zm290 5q-5 1-3 9 1 11-3 17c-2 2-9 3-13 0q-3-2-7 1l-6 3q-4 2-6 5l5 13q4 4 7 1 5-5 8-3 20 11 21-11 2-11 9-19 8-6 3-13-4-7-15-3m-667 1-7 7q-13 16 6 18 10 2 18 8 7 6 13 6c5 0 7 13 3 18l-2 4q0 2-11 7-6 3 0 9l8 7q11 11 12-8c0-11 1-12 4-16q14-16 1-28l-7-8-3-3h-7c-7 1-8 1-13-2-6-3-6-3-6-9q-1-13-9-10m694 5c-5 5 1 14 6 10q3-6 1-11-4-3-7 1m-289 3q-3 5 2 8 3 3 0 16-2 8-10 6-15-1-9 12 6 12 13 4 3-4 5-4 6-2 10-8l5-8c8-12 5-26-5-21q-4 3-3 0-2-8-8-5m298 13-6 10c-4 7-11 15-14 15-5 0-9 21-4 25q4 4 9 1 6-3 4-10c-1-10 9-21 19-20q11 2 5-13-5-15-13-8m-583 2-2 9c-1 5-2 6-8 14q-4 4-4 7l2 23q-1 10-7 4c-7-6-11 1-6 10q6 14-5 21l-11 7q-4 3-4 8l-3 8-1 4q-1 5-8 8a7 7 0 0 0-6 10q-1 3 9 2 10 1 10-2l4-6q7-9 6-13 3-12 13-14 13-4 13-23c0-7 0-7 3-12q5-6 1-22 0-6 7-13c5-4 6-6 7-18 0-9 0-10-2-12q-4-5-8 0m433 2q-11 9-13 14c-1 4 1 16 2 19 4 6 14 2 14-7q1-8 7-14c11-11 2-21-10-12m-40 1q-3 4 0 8v14l-7 1q-14 0-3 11 9 8 7 15-1 3 5 8l5 5v8l-1 8c-2 3 0 10 3 10l5-5 4-5c5-7 9-18 6-19l-1-4q-2-8-8-9-4 0-6-12v-9c3-5 4-22 1-25q-6-5-10 0m-40 10q-7 2-3 14l2 5 1 2 1 1q2 5 6 3c6-4 6-16 1-21q-4-6-8-4m121 2c-2 2-6 15-6 18q-1 6-9 9-8 1-8 10c-2 11-9 23-14 23l-9 6-3 9-5 10q-3 4-1 7l1 5q0 9 3 12l4 7 2 4h12q13 1 10-2-4-6-9-7c-3 0-8-12-9-23q0-15 10-16 4 1 5 11 5 15 14 11 5-4-2-13-10-18 3-23c8-3 8-3 7-14 0-11 0-13 9-17q12-6 6-11l-1-9q-1-13-10-7m-617 0-2 3-2 2q-2 1-6 11-1 9 5 15 4 5 8-5c4-7 5-8 12-4 10 6 15-1 6-10l-4-3-6-5c-6-5-7-5-11-4m314 13q-5 2-7 12l-3 12q-3 7 0 12c2 2 10 1 14-1l4-2v-8c0-7 0-8 2-11 7-9-1-20-10-14m48 3q-4 7-1 15 6 11 0 19-5 6-1 10 13 12 16-11 0-13 4-16 4-4-3-9l-5-6q-4-7-10-2m-16 1c-6 4-3 12 4 12q7-1 9-8c0-6-8-8-13-4m307 0q-10 3-12 13-1 6 7 4 3-2 9 1 15 7 12-8t-16-10m-551 2v4a4 4 0 1 0 0-4m99 2c-5 3-5 5-1 14q2 3 1 10 1 14 10 8c3-3 3-26 0-30q-4-4-10-2m241 2q-3 3 7 13c6 7 7 9 8 16 1 11 10 12 10 2q0-9 6-14a10 10 0 0 0-11-17l-10-1q-7-4-10 1M0 428q0 13 3 4c3-5 2-13-2-13zm187-7-8 5-3 1c-6 0-7 8-2 12q11 7 15-2 3-6 5 2l-3 7-3 8q3 12-11 19-10 3-7 13l2 8q1 5 9 0l7-4c5-3 5-3 7-14q5-20 17-1l3 6q1 4 4 6 5 2 6-19 3-25-7-16-4 2-10-3-8-9 0-21 7-10-9-9zm559 0-2 2 2 5q3 5 3 12 0 6 2 9c4 6 5 8 3 15q-2 11-8 12-11 2-7 15l1 8q1 11 7 8l6-12q2-7 12-14c3-2 4-11 1-16-1-3-1-15 1-20q4-11-2-14l-8-7q-8-7-11-3m-322 1q-3 3 1 14l-1 11q-3 10-9 11-4 1-12 12-3 6-8 5-8 1-9 7a23 23 0 0 1-6 13l-4 2-5 1-3 1q-2-3-8-2-9 5-10 13-1 2 7 2l7-1 2-3 2-4q0-3 5 4l3 4h12l1-4q7-17 14-17 9 0 11-9 3-13 14-14 5 1 5-6a27 27 0 0 1 9-19q7-6 0-13l-4-6c-2-3-12-4-14-2m97 1q-5 4-2 11l2 6c0 7 8 9 14 3l4-4v-7q0-8-3-8c-4-2-12-2-15-1m-405 6-14 11-6 4q-6 1-7 10c1 8 0 11-7 19-8 8-8 10-5 16 1 4 2 15 1 20l-1 3h15v-20q-2-10 8-17c4-3 6-5 7-14q0-11 10-15 9-3 8-10-1-10-9-7m581 1c-4 2-3 10 2 16q5 7 12 1 6-6-1-13-7-8-13-4m24 3q-3 6 2 9 3 1 3 6c2 11 1 13-2 15-8 4-8 12 0 14q10 5 13-15 3-24-5-24l-3-3q-4-5-8-2m-667 1-6 4q-6 4-17 6-6-1-9 6a8 8 0 1 0 14 8q0-2 5-2l6 3q8 6 10-3c4-16 4-20 2-21zm-36 4q-6 4-1 6 7 4 7-3-1-6-6-3m303 0-5 6-12 12q-6 4-2 7h-3q-10-1-10 6-1 8-6 12l-4 6-5 7-4 3q-15 0-15 11l-1 4h8l9-1 2-4 2-4 4 2q6 5 9 2l1-4 1-5 1-5 4-9q3-10 10-14l3-4 1-1 3-2q4-3 8 3c7 13 14 10 10-4q-3-9 0-18c1-4-5-8-9-6m33 5q-2 1-2 6c3 18 2 20-4 19q-3-3-12 4c-10 6-7 17 3 13q8-4 11 0 6 5 10-2 6-4 5-16-1-8 3-11 6-11-3-12l-5-1q-3-3-6 0m103 0c-7 2-5 15 5 22q8 9 12 2 5-6-2-11l-4-7q-2-9-11-6m207 5q-6 2-6 14 1 8-2 10-6 6-11 7-12 0-6 14 5 10 2 17-3 3 6 2h7v-4l2-9q0-7 7-8 7-2 7-14 2-14 13-9c4 2 15 2 17 0 4-3 1-10-5-10q-3 0-6-4t-8-5l-8-2q-5-2-9 1m-120 3v10c0 11-1 15-7 20q-14 10-2 16l5 6q3 6 8 6c3-1 7-9 4-9l-1-2-2-4c-3-7 3-15 9-10q8 4 11-8 0-8-7-10-7 0-9-8-5-12-9-7m-50 4c-4 2-2 10 3 10q4 0 2 11v10l6 16q3 3-2 7l-2 3h20l3-7q10-18-5-15-8 2-8-9c0-5 0-5 5-9q8-4 7-12 0-8-6-5-8 5-15 1-5-5-8-1M8 462l-5 1c-5 0-5 11 0 13q11 5 13-8 0-11-8-6m697 9q-4 4-2 10c1 5 8 6 11 1 6-8-2-18-9-11m-460 4-10 7c-10 5-12 7-11 14l1 6 1 6v4h13v-8q-1-14 8-13 8 0 8-7l-1-7q0-5-4-6zm-222-1c-4 4-1 10 4 8 3-1 4-7 1-9q-3-2-5 1m31 3-1 1-3 3-4 5-3 2-4-2q-7-4-12 0l-5 4q-10 7-3 15 4 6 9 0c4-3 4-3 9-3q14 3 20-12l4-5q3-4 1-8c-1-1-8-2-8 0m417 5q-4 2-1 17l2 9v4h10v-15l-1-16q-4-2-10 1m-25 0-5 2c-4 2-9 9-9 12l4 6 4 8q-1 3 6 2h7l-1-3q-2-6 6-13 9-6 2-13c-2-2-11-3-14-1m251 8-2 5q-4 7-10 8-4 0-5 5l-1 4h10c15 0 17-3 15-22zm-386 2-1 11-1 9h7q18-2 9-11l-3-4c0-5-7-9-11-5m399 7q-4 3-4 7-1 7 12 6h8l-1-2q-3-3-3-7-3-10-12-4m-136 3-7 9 10 1h10v-3c1-8-8-13-13-7m-374 0-2 6v4h8q12 2 5-7-6-7-11-3m-36 0q-4 1-6 4-8 8 7 6h9v-3q0-9-10-7m253 1-3 5v4h5q7 1 6-3-1-10-8-6m-79 6-4 2 6 1q11 1 7-3c-3-2-3-2-9 0"
        mask="url(#16282281824-posters-1720553718869-horizontal-mask)" itemprop="light" fill-opacity="0.90"
        fill-rule="evenodd" stroke="none" fill="url(#16282281824-posters-1720553718869-vertical-light)"></path>
      <!---->
      <path id="16282281824-posters-1720553718869-regular"
        d="M39 3q-5 6-5 12c0 9-12 24-19 25q-11 3-1 8c4 2 5 3 6 11q1 12 5 8c3-2 7-16 7-22q0-7 5-10l6-8c4-8 5-10 11-12q9-4 8-11l1-4H41zm57 0-2 4c0 6-13 16-19 15q-6-3-6 11c-1 10-2 12-8 15-8 3-10 10-5 13 4 2 18-8 18-14l4-7q12-17 20-7c3 8-2 29-8 29q-4 0-10 10l-7 10q-8 4-8 18 0 9-3 14-6 9 5 8c12 0 13-1 13-14 0-9 0-10 2-14l3-6 6-7 7-11 7-14c7-14 7-17 3-25q-6-11-2-18c4-6 4-7 0-11q-5-5-10 1m37-1 2 9c2 5 2 6 0 11-2 8-1 21 1 24q8 6 10-8 2-11 7-14l4-4c0-3 6-8 9-7q4 3 9-5l5-7-7-1q-9 0-9 2-2 4-14 4-5 1-6-3c-2-4-11-5-11-1m103 0-2 6-3 6-2 2-3-2q-3-3-5-2-13 2-16 10l-4 5q-8 3-4 14c3 7 11 6 11-1 0-6 10-16 15-16q2 0 5 7 1 6 6 8 6 4 7 15c2 7 2 8 8 12l7 6c1 3 9 7 12 7 5-1 11-11 11-17 0-16-8-23-12-10q-1 9-6 8-9 0-12-14-1-8-4-12c-5-7-5-19 2-24q10-8 8-8c-1-3-19-3-19 0m41 0 1 12q1 17 7 19c5 3 5 1 6-15 0-19 0-18-8-18q-9 0-6 2m32-2 1 4q2 3-1 6-5 5-2 9 6 6 12-9l2-5q5-6-5-5zm55 2q-4 3-10 4c-5 0-10 6-8 9l5 1q8 1 11 12l3 11q2 11-1 13-8 5-16 1-11-5-4 6l5 6q3 4 11 3l5-1 4 4q7 6 9 3 3-4-2-12-4-5-3-9c2-11 2-13 1-19q-4-16-3-21c1-3 8-9 10-9l4-2 3-2h-12q-12 0-12 2m72 1-6 3q-7 0-4 10l1 15-1 14c0 7-8 21-12 21l-4-3q-9-9-11 4l-2 5 4 4c4 4 4 5 12 5q17 2 16-13-1-9 8-17c5-4 5-7 2-17q-6-15 7-22 6-3 7-10c2-3-14-3-17 1m43 0q0 5-12 9-7 2-6 12 3 13 11 7 3-3 7-3 9 0 8-7t6-12q3-5 10-4 7 2 7-1c2-4 2-4-15-4h-16zm82-2-4 2-6 4c-4 5-4 5-9 0-8-6-9-5-11 6q-1 12 7 8 7-1 8 2l4 6c6 6 7 9 4 17-4 12-5 13-10 13q-6-1-9 8-5 8-9 9l-3 4q-5 10-10 10l-5 2q-6 1-8-2c0-2-5-6-6-6-6 0-8 9-3 16 4 5 6 13 4 14l-1 6q0 6 2 5 3 0 4-3 5-8 5-13 1-7 9-7 12-3 23-18c2-5 13-11 17-11q8 2 10-12 1-8 7-19l2 1c4 3 9-3 6-6q-5-3-8 2c-1 3-8-5-10-11q-5-19 14-21 9 0 8-4c0-2-1-3-11-3zm42 5-6 6v7c1 11 0 15-7 21q-8 7-2 9 8 3 15-9 3-5 10-8c10-6 11-9 6-25l-2-7h-4q-4-1-10 6m70-4q-7 8-15 6-8-3-7 7 0 16-7 19-7 1-7 11c-1 6-1 6-7 12-8 8-11 9-17 6q-13-5-6 7c3 4 3 4 3 12-2 13 5 17 10 6q1-6 10-11 8-6 10-16 2-9 11-14 7-5 9-14l2-6q2-8 10-4 6 3 8-5 1-5 7-8l11-9-11-1c-11 0-12 0-14 2m85 2q-8 12-15 5-8-9-13 4-3 10-10 10c-9 1-16 9-13 15q8 7 21-7c8-8 10-9 14-6q5 3 10-1l8-4c9-3 9-3 9-12V0h-4q-6-1-7 4M416 8q-1 5-4 2l-4-2q-5 0-5 11v6l-6 6-6 7 6 13c4 6 10 2 10-7 0-6 6-21 10-23q7-4 5-12-3-6-6-1m-80 11q-4 4-6 13l-2 7-4 7q-7 15-12 17-6 1-7 7l-4 6q-6 12 11 11c10 0 11-1 11-8q0-13 14-24c3-2 3-2 3-10q1-11 4-18c4-4-3-12-8-8m171 9-5 3q-4 0-5 10 0 10-6 13-7 4 0 10l4 6c0 10 6 11 8 1l4-12c1-5 1-5-1-8l-2-4 2-5 5-9q5-4 2-7-2-3-6 2m14-1q-9 5-4 16 8 10 11-6 4-18-7-10m-346 5q-6 5 1 22 6 19 12 0l2-7-3-3-2-4c2-7-5-13-10-8m116 8q-5 10 3 11c4 0 7-9 3-12q-3-4-6 1m163 0q-13 2-4 16l4 8q1 3 5 4c4 0 7-11 5-15l-1-8c-1-6-1-7-9-5m241 3-5 6q-5 3-5 10l-2 7q-6 10-2 19 5 10-4 18-5 6-5 15l-1 7q-2 7 4 10 9 5 10-12 2-11 6-21 3-4 1-7l-1-9v-6l4-6q5-4 6-12l3-12q3-10-4-10-3 0-5 3m43-1q-4 2-8 15-1 7-6 11l-4 4v8c0 15 10 18 11 4q1-7 4-10l4-9q1-5 4-9c5-11 3-20-5-14m-524 4q-4 5-3 12 6 9 9 2 4-18-6-14m-88 3q-5 5-3 18v8l-6 6c-5 5-6 6-7 12-3 13-5 19-11 26l-2 4-4 7q-8 10 0 9 7 1 10 6l4 8c9 12 4 30-10 33q-7 1-6 7l-3 10c-4 7-5 8-11 10q-8 4-9 9 0 6-9 7c-6 0-6 0-7-11v-11q-3-7 7-12c9-6 11-20 2-20q-2-1-6 6-6 7-14 8-2 1-2-4l-2-10v-10q3-10-4-9l-8-2q-3-2-7 6c-4 5-4 6-9 6q-8-1-7 4l-2 6q0 7 6 7c2 0 7-4 7-6s11 0 13 1c2 2 5 9 5 13q0 5 5 13c9 16 8 15 8 25q-1 10-3 14c-6 13 1 17 8 5q11-19 18 1 2 6 6 7 4-1 4-13-1-15 12-19 8-3 8-8c0-9 9-22 14-21 6 2 12 12 12 20q0 8-13 15-9 3-8 11 0 14-9 16-20 5-14 14 2 7 10 1c5-2 5-2 10-1q11 6 10-7 0-7 3-13c3-10 4-10 9-13l7-6c7-11 8-12 13-8q7 7 11-1l12-12 5 2q2 3 6 3 8 3 8 6c0 8 7 10 11 4q5-8-3-10l-4-3-1-5q-1-3 1-8 3-13 13-12c5 0 14-3 16-5v-7q-3-18 14-28l6-5 5-5c6-4 6-5 5-14q-2-14-14-13-5 1-2 10c3 7 0 19-6 19s-20 12-21 18c-1 7-1 8-4 11l-12 12q-10 12-15 14-4 1-5 7-2 6-6 5c-6 0-18 4-21 7l-3 2-3-2q-3-2-4-11l-6-11-4-6v-9q2-18 9-18 8 1 8 11c0 5 0 5 6 11q11 11 14-1 5-19 17-19 8 1 8-11-1-10 8-18l5-4 4 2q5 3 9-3l4-8q7-12 1-16-4-3-8 5-2 5-6 7l-3 3-3-2q-12-7-12 9v7l-5 2q-4 3-7 3-5 1-5 10 1 3-6 9-10 11-13 4-7-9 3-25c6-10 2-20-6-16q-2 2-5 1-7-1-5 10c2 12-3 24-8 24-3 0-9-3-10-5q-12-24 0-37 8-8 8-13 1-14 10-11 9 7 5-11l-3-17-1-12q-3-2-7 1m640 2c-5 3-4 14 1 14q3 0 2 4 1 4-3 3c-6 0-10 3-21 16-9 10-10 13-6 18 3 4 9 3 9-1 0-6 9-17 16-18q6 1 5-5V49zm-611 7q-4 4 2 12c7 7 14 0 9-8q-6-8-11-4M2 60 1 71v11l3-3c8-7 7-23-2-19m183 10q-6 7 3 13l4 5 3 6q4 4 7 2c2-1 3-1 3-9l2-10q3-7-7-6l-8-2q-4-3-7 1m40 1q-4 5-1 9c4 5 13-3 10-9q-3-4-9 0m226 4c-5 2-12 8-13 10l2 9q4 12-2 12-9 1-4 10 3 7 11 6l8 2 7 1q16 2 7 22-2 5 4 7 4 1 5 8 7 26 15 15 6-4 1-12l-4-8q-1-8-6-8-7 0-4-11t-2-17l-2-5q-1-4-6-3-9 5-14-7-7-18 5-25 4-1 3-4-2-6-11-2m-68 1-2 7q0 5-4 8-5 3-5 11c0 3-9 12-12 12l-4-5q-6-8-1-18 6-12-9-5c-8 4-8 8 0 24l5 11-1 5q-1 10-7 10l-6 5c-4 3-4 3-8 2q-13-3-9-17 6-20-6-13c-6 3-6 7-4 20s3 16 10 18q4 0 7 3 2 4 9 3l9 2q7 0 6-7c0-3 3-11 5-13l3-4q6-7 11-7 4 0 6-8l3-8 3-5 2-3c5-4 9-25 6-29q-4-2-7 1m271 0q0 6 3 6c3 0 6-5 4-7q-4-3-7 1m-184 1c-5 4-3 11 3 11q5 0 5-8-2-7-8-3m104 2q-8 2-7 10-2 11 13 9c10 0 11-1 11-6l-3-15q-5-3-14 2M38 80l-5 1q-6 0-7 6 0 4-3 5c-9 4-6 15 5 22q12 8 10-6-2-11 4-18c6-6 3-15-4-10m198 4c-6 2-9 12-5 16q5 6 9-6t-4-10m-71 3-6 2q-6 2-8 8 2 3 8 2 4-2 8 3t8 2c1-2 2-15 1-17-1-3-8-3-11 0m161 4c-6 5-7 16-1 18 5 1 14-15 10-19q-4-2-9 1m319-1q-4 3 0 7c3 3 7-3 4-7zm-381 7c-5 4-2 10 4 10q11 1 6 18-1 10-5 9l-6 3-7 3q-5 2-5 10 0 5-3 9-6 10-6 14 1 4-11 10c-8 4-8 3-8 18 0 14 0 14-7 14-8 0-10 9-4 14q3 5 8-1l8-5c4-3 5-4 5-15 1-10 2-11 9-16q8-7 9-15 1-7 9-6 7 1 10-8l3-8 2-10q1-8 4-9c7-6 14-15 14-19l-2-5-3-3c0-4-8-10-13-10l-5-2q-3-3-6 0m328-1c-3 3 1 9 5 9q6-3 1-8-4-3-6-1m-198 1a5 5 0 1 0 9 3q-1-5-9-3m165 5q-8 4-10 11l-2 7q-2 5 5 7 4 1 1 10l-3 12q0 9-4 10-7 4 3 9 14 8 14-8a31 31 0 0 1 5-28q8-10-1-14c-4-2-5-2-2-9q3-12-6-7m-137 6v3c2 4 8 1 7-3q-3-4-7 0m287 0q-3 2-2 5c3 10 3 11-4 18l-10 9c-3 2-3 2-4 10q-1 14 8 12 7 1 6-8 1-12 13-20c5-3 6-5 5-14 0-7 0-8-4-11q-5-5-8-1m-78 1h-5q-6 1-10 9l-3 11c-3 8-2 12 3 21q8 11 2 21l-4 8q-1 8-3 0c0-8-12-17-19-14q-7 3 3 8 6 3 7 8l3 6 1 5q2 9 11 10 8 1 6-10-1-12 8-19l5-7 3-8q4-9-3-7c-14 2-17-15-5-26 10-8 10-20 0-16m-223 2q-8 4-5 10 1 6-5 7l-6 5-5 4q-4 1-4 10 0 10 5 9 6 1-2 4-11 6-1 12 6 3 12-4l5-5v-9c0-7 0-8 3-13q8-10 6-14l1-4 5-10q-1-6-9-2m357 4-9 2q-13 0-6 11c4 8 6 8 15 0 4-3 4-3 4-9v-6zm-245 0q-4 2-5 9 0 7-8 9-9 3-9 10 2 12 12 5 3-4 9-3 7 2 7-9l4-11q3-9-1-9-6-2-9-1m-469 9-4 2c-3 2-4 2-4 8l-1 11c-2 8 4 12 10 7q3-1 2-9l2-11q4-12-5-8m-48 2c-3 2-3 2-3 13q0 17 3 7l1-4 6-1q11-1 10-6 1-5-3-6l-5-2q-5-6-9-1m427 4-2 10-1 10c-4 7 2 11 8 6q2-2 7-2 7 0 7-4-1-6-6-7-3-1-4-7 0-4-3-6-3-3-6 0m153 1c-1 3 2 18 4 20q5 2 9-3c1-3 2-14 0-16-2-3-12-4-13-1m66 7c-4 5-5 14-2 16s3 2 8 0q11-4 4-16c-1-3-7-2-10 0m81 0q-4 3 0 9c3 4 3 6 0 14q-3 9-6 8-3 1-4 9l-4 7-3 3 1 11q0 17 5 15 5 1 5-10 1-9 8-15 5-3 6-10c2-12 3-14 14-18q5-1 6-9 2-5-8-6-8 1-9-4-5-6-11-4m-650 3-8 4c-7 4-11 13-7 17 3 2 3 2 11 0q9-3 9-9l3-6q4-13-8-6m370 14q-2 2-2 7c2 9 2 9-3 12-5 2-6 2-12 2q-11-2-8 7v5l-5 3q-8 6-12 2-8-3-8 5c2 12 3 10-4 17-8 8-10 9-14 6q-4-6-9-1-5 3 4 13l4 6c3 7 14 6 18-2l6-9q6-5 13-19 5-11 12-10 4 2 7-2 6-6 13-5 8 2 8-16l1-12q4-9-2-11-3-2-7 2m-152 1c-3 2-3 16-1 21 2 4 8 2 10-3 4-11-2-24-9-18m279 4q-10 9-5 19 4 13 9 0l4-8c3-4 4-12 3-15q-2-6-11 4m-52 0-5 5-4 6-6 6q-6 4-1 10 8 14 21-10c7-13 2-29-5-17m-165-1q-4 2 0 6c5 5 16 3 16-2 0-4-13-8-16-4m55 3c-3 4 1 14 5 14q5-1 5-8c0-5-6-9-10-6m262 2-2 8q-1 14-12 13c-6 0-6 0-9 3q-8 11 5 9c5-1 17 2 20 6s-5 22-12 27q-7 4-3 14c3 7 10 4 10-4l6-7q15-16 8-37c-2-5-2-8-2-17 0-13-1-16-5-17zm-353 12c-19 21-19 22-19 34q1 13 7 12 5 1 6-11c1-11 3-14 11-19q16-8 7-15-6-7-12-1m-38 4-8 4c-9 4-10 19-1 19 3 0 16-14 18-19q1-11-9-4m480-1-12 17-3 32c2 9 10 10 12 1l1-1q5 8 5-2v-6l-3 2-2 3c-2-2-4-10-4-14 0-7 8-15 9-9v-22q0-5-3-1m-218 10q-7 4-12 3-9-1-4 8l5 7q9 4 16-5l1-2 3 3q7 7 7-3-1-4-6-3-2 2-2-1-1-10-8-7m23 2q-4 5 3 6a4 4 0 1 0-3-6m-99 2-1 5-2 10q-3 10 1 12 5 2 7-4l7-6q8-4 0-8-5-3-5-6-3-8-7-3m-109 1q-3 4-3 13 1 5-3 5c-6 1-14 6-14 9q1 3-11 3-12 1-17 14-2 6-6 8-12 9 0 12 6 0 8 4 11 8 9-7c-3-12 9-24 17-18q3 3 5 2 4 1 5-7l5-10 12-15q2-3 4-1c5 2 12-6 10-11-1-3-1-3-10-3q-9 0-11 2m221 4c-2 2-2 6 1 20 5 21 15 28 14 9-2-16-2-17-6-23l-3-7q-3-2-6 1m-89 3q-6 3-2 13c4 10 5 11 13 7q7-3 3-12-5-11-14-8m146 2-2 6q-1 3-5 5c-6 4-5 11 2 11l3 1c1 2 2 12 0 14q-2 3 1 6 3 2 5-4l2-4q6-5 3-13-2-4-1-11 0-18-8-11m-380 0q-4 5 0 9a5 5 0 1 0 0-9m-248 8c-2 4-2 4 0 10q2 7-3 12-5 6 1 8 8 4 12-11c5-14-3-30-10-19m420 9q-3 2-1 6l1 12c0 8 0 8 4 12q4 5 4 10 1 9 6 8c3 0 3-1 3-11q0-15 8-19 9-4 6-6-1-4-8-2-7 3-8-4 0-5-7-8-6-2-8 2m84 2v9l1 11q1 7 8 8 6 0 8 6 1 4 5 5 4 0 1-11l-3-10q-1-3-4-5-4-2-4-7c0-7-8-11-12-6m56 0-6 2-4-1c-7-3-11 5-6 12q4 6 4 21c0 8 3 18 6 20 4 3 1 14-5 22l-5 10q-5 14-14 13c-12 0-12-21 1-27 9-4 13-18 6-18l-5 4-6 3c-2 0-12 10-14 15q-5 10-1 19c3 9 2 20-3 20l-4 3-6 4-5 5-3 7-3 9q0 14-12 18-13 3 0 12c7 5 8 5 14-3q2-3 2 0 1 5 6 3 3-4-3-6h-3l3-9c6-17 8-19 14-15q11 5 9-8-3-13 6-22 5-4 14 1 6 7 8-5c3-18 13-23 18-10 4 9 11 5 9-4l-1-5-2-6-1-7c-2-2-2-3 0-14 3-15 3-15-1-16q-5 0-6-4c-4-8 0-24 8-34q9-14-9-9m157-1q-4 3 2 9 11 12 15 0 7-9-8-10zm-450 4q-4 3 2 11c3 6 4 8 2 15l-7 10-6 5-3-2-6-5c-4-7-14 2-16 17q-2 12-10 15-7 3-11 13l-4 6-3 7c-2 7-12 20-16 21q-5 1-6 6-2 5-12 15-8 9-1 14 7 4 10-5 4-12 10-6 9 4 10-7 1-9 10-15 8-3 6-10c-1-10 4-20 11-22q7-1 9-11 2-12 9-15l6-5q4-6 6 4l2 8 1 6q0 5 5 5 2-2 3-11 0-11 8-23c6-11 6-11 4-29q-1-12-3-12-6-4-10 0m339 0-2 4q0 5-4 9-8 9 4 9 10 0 10-15-1-11-8-7m-360 3-11 1q-11 0-11 2c-4 5-2 19 3 22q8 4 8-6 0-11 11-11c11 0 16-8 5-9zm209 1q-5 3 1 8c7 6 11 1 6-7q-3-5-7-1m14 8q-6 2-3 11c2 8 3 9 11 9q15-1 4-15-6-10-12-5m-326 1q-4 5 0 10c5 4 11-1 9-7q-4-8-9-3m549 0q-8 1-12 10t-11 9c-8 0-9 9-3 18q9 10-4 22-4 3-2 7 2 18-6 23-6 3-6 10l-3 8-2 8v12q1 21 9 17 5-2 3-10-1-9 5-16 4-3 2-8v-15l5-4q10-4 6-13c-3-13-3-15 6-26l5-5-1-8-2-10q2-6 11-12c7-3 11-13 7-16q-1-3-7-1m-105 3q-3 2-5 14l-3 8-2 3 2 2q4 6 11-9 8-14 3-16-4-4-6-2m-385 1-3 4q0 4-5 3-11 1-6 11 3 5-3 20c-3 11-3 13 4 14h5l2-5 4-9 3-9q0-5 3-11 5-9 1-16-2-5-5-2M0 254q0 19 2 5l2-10v-6c-4-2-4-1-4 11m629-6-1 6-1 6q-4 8 0 11 4 5 10-4 11-8 3-12l-4-4c0-4-5-6-7-3m113-1q-5 2-2 10l1 7c0 6 12 11 17 7 5-5 0-21-7-22l-6-2zm-608 2q-2 2-2 8 0 11-4 19-6 17 9 8l7-6q8-5 2-16l-2-6c0-7-6-11-10-7m240 0-2 1q-4 5-12 5-9-1-12 10-3 12 9 6 5-3 9-2c9 1 19-12 15-18q-3-3-7-2m-203 6c-2 2-2 3-3 11v10c-2 6 6 9 10 5 3-3 3-23 0-27q-3-5-7 1m342-2h-3q-8-1-4 9 6 7-1 18c-6 12-7 14-13 16q-13 3-4 13l3 7c0 3 7 7 10 6s3-2 1-13q-1-8 6-14l6-8 5-6q6-3 3-12l-2-10q0-10-7-6m-106 2c-2 1-1 12 1 15q6 8 14 2c1-3 1-10-1-13-3-3-12-6-14-4m-380 9q-11 7-10 11l-1 5-9 14-1 3 3 3 5 4q13 10 12-7c0-11 2-15 10-21q9-6 4-14-4-6-13 2m302 3q-3 3 1 7 8 4 6-5-3-5-7-2m140 0-8 4q-10 2-10 12-1 7 8 7h6l6-5q7-6 7-10 0-11-9-8m139 3q-2 1-3 10c0 19-1 21-6 26-5 7-5 10 0 19q3 9 8 8c6 2 7 3 10 12l3 11v10c-3 8-3 10 3 15q7 6 9 2c2-2 3-15 1-23-2-13-2-15 0-20q5-15-6-7-5 5-9-3-2-4-4-4-7 0-6-7-1-3 7-15 6-7 2-15l-2-11q0-12-7-8m119 2-3 6-4 7q-3 2-4 7l-3 8q-3 4-3 8-2 7-9 9-12 3-5 14 4 7 10 3 4-4 12-6 8 0 3-7-5-13 4-16 7-2 6-11l2-13q3-7 2-11c0-2-6-1-8 2m-678 2q-5 5 5 15c5 4 13-3 10-9-4-7-12-10-15-6m717 4q-3 3-3 8-2 10-8 13-6 2-4 8c0 7-6 20-11 22-6 1-6 6 0 7l7 5q11 10 9-7a16 16 0 0 1 2-12l6-8 5-7v-31zm-375 3-9 7q-6 3-10 9-3 6-8 8l-9 5-9 4q-9 1-7 16 0 14 5 14 6 0 8-9c3-14 15-24 20-17q10 9 12-6a17 17 0 0 1 13-18q13-2 4-14-3-6-10 1m-232 0q-14 20-21 18-4-1-6 2c-2 5 10 16 16 16q2 1 5-5c3-9 3-11 6-14l3-6 2-4q4-5 1-8-3-4-6 1m183 0q-6 5-1 9 8 6 9-5-1-11-8-4m281 0-5 4v3c0 2 6 4 9 3 5-2 7-14 2-13zm35-1c-4 1-10 8-10 11q0 9-7 16c-6 5-1 23 5 23q7-1 4-12c-3-6 2-16 8-18q8-3 9-11 2-13-9-9m-356 7q-1 3-6 5c-10 5-17 17-14 26l3 13q1 17 9 14c5-1 7-15 2-24q-6-12 2-19 9-7 13 3l2 7c2 6 11 5 12-1 2-6-3-16-9-19l-5-5q-6-6-9 0m-180-1q-4 1-3 6 3 4 7 0 2-7-4-6m319 3-2 7q-1 10-8 11-9 7 9 7c4 0 10-12 10-20q-2-10-9-5m-368 2q-4 5 0 14 8 18-4 27-4 5-12-2-3-3-4-1v6l2 5q1 12 11 6l9-4q7 0 10-11l7-13a13 13 0 0 0-4-21l-4-4q-7-7-11-2m114 3c-5 1-9 8-9 13q-1 9-9 14-5 3-14 14l-9 8q-10 4-8 13c1 5-1 9-12 20-5 6-5 6-5 11l1 10q-1 5 3 8 7 9 10-11 1-9 5-13l5-7q2-3 7-5c8-4 9-6 9-17q0-18 19-23 12-2 10-11l3-14c2-9 2-8 0-9q-1-3-6-1m445 2q-4 4-1 8 6 5 7-5-1-8-6-3m-220 13q-6 5-11 16-2 6-9 11c-4 3-9 15-9 21q1 5-5 7-4 2-5 7c-2 7-11 12-17 10q-6-2-7 4c0 8 12 11 20 5q5-5 9-3c5 0 5 0 11-7q3-3 3-9 0-15 10-24c6-5 7-7 11-18q4-9 9-11 6-4 2-10-5-5-12 1m58 0c-4 1-8 17-5 22q4 5 9 4c4-2 2-28-2-27zm-214 6-2 11q0 19-8 18-7-2-7 11c-1 8-1 8-10 15q-5 4-9 4-5-1-6 6-2 8-7 7c-6 0-8 8-3 12q11 10 20-6 2-6 8-10 11-7 16-25 3-13 6-10 6 0 9-6c3-4 3-23 1-27q-4-6-8 0m-208 0c-3 3-2 9 2 10q2 2 4-1c5-6-1-15-6-9m-17 1-4 5c-2 3-10 10-12 10s-7 7-7 12l-2 10q-3 15 2 15c7 3 14-4 14-13q0-9 5-15l11-18q2-10-7-6m419 13q-4 3 0 6 4 4 8-2c3-5-4-8-8-4m-120-1q-2 2 1 5 6 2 5-3t-6-2m-216 3-4 8c-3 6-3 6-10 10-10 5-11 5-11 11q-1 9 10 8h6l4-8q6-11 11-13 12-4 5-14-6-7-11-2m461 3q-2 1-4 7-2 5-8 10l-8 8q-6 9-15 12-10 3-6 12 4 5 12-3l9-8 9-7q8-11 13-10l4-2q2-2 2 2 2 9 11 10c4 0 6-12 2-15q-4-3-9-1-4 4-4-2-1-15-8-13m-102 4c-2 3-1 17 1 18 4 3 6 2 18-7q5-5-1-8l-8-3zm-158 5c-9 5-7 13 3 12a6 6 0 1 0-3-12m386 5q-14 6-6 12 2 3 5 1l5-2q4-2 5-8-1-6-9-3m-373 1v12a16 16 0 0 1-12 21q-7 1-8 7 2 6-9 12-7 5-11 11-8 10-13 4l-4-6q-4-3-4-8c0-8 1-11 9-21l7-12c0-2-9-10-11-10q-4 2-6 6c0 3-3 11-6 16l-3 4-2 4q-3 3-4 12-1 11 6 11c4 1 11 7 11 10q2 5-5 11-6 6-4 10v6q-1 3-3-2-4-9-10-4t2 15c3 4 11 0 11-5l2 1 7 5q9 5 6-4-4-23 14-24 9 1 11-11 4-12 13-13l8-3c6-4 6-4 9-13l5-10q6-6 7-16l2-10q1-5-6-7t-9 1m97 1-4 10q-4 14-6 15v10q2 2 2 9-1 16 11 5c5-4 5-5 2-12l-2-4 2-10 3-10q1-6 6-3c9 5 16-3 10-10-4-3-21-3-24 0m290 4q-3 2-1 8c1 5 0 15-3 18q-5 4-13 0-6-1-9 2l-4 2q-9 1-4 12 4 10 11 3 3-3 4-1c2 2 10 4 14 4q7 2 8-13c2-10 4-14 9-20q8-8 3-15c-3-3-12-3-15 0m-665 1-2 1-6 7q-12 12 5 15 12 2 19 9 5 4 10 4 15 2 5 23-4 7-10 7l-4 2q-3 5 6 10l5 5q4 5 8 1 2 0 2-10 0-12 5-17 6-6 6-15c0-5 0-5-5-10l-8-9q-3-4-6-3c-10 2-10 2-16-1s-7-4-7-12q-1-10-7-7m693 5a5 5 0 1 0 6-1q-3-4-6 1m-289 3q-1 5 3 7 2 2 1 3l-1 9q0 14-11 11-16-1-7 13 4 9 10 1l6-4q4 0 9-7l5-9c8-10 6-24-3-20q-5 4-5 0c0-4-5-7-7-4m300 11-6 9c-5 8-12 17-14 17q-5 2-6 8l-1 7a7 7 0 1 0 13 1c-1-10 11-22 21-20q5 1 5-2c1-4-3-18-7-20zm-583 3-3 7q0 7-9 16-5 6-3 9v27q-3 2-7-1c-6-7-10-1-6 7q7 15-2 23c-17 10-16 9-17 16q-2 17-14 20-5 1-4 6l1 5h8c8 0 8 0 9-3l6-8 4-8c0-7 6-16 12-17q15-3 14-21c0-7 0-7 4-13l3-6-1-7c-2-14-2-16 5-22 6-5 7-9 7-24q-1-11-7-6m435 0c-13 9-16 13-16 23q0 12 4 14 9 1 11-11 0-6 7-13c7-9 3-19-6-13m-43 3q-4 4 0 10l1 7q-1 8-8 7-13-1-3 10 9 7 7 15-1 3 5 8c6 5 6 9 4 21v8q5 1 6-2l4-7 6-9c3-7-2-20-8-22q-5-1-6-8l-1-6v-6l3-13 1-9-2-3q-5-6-9-1m-43 12q-6 3 0 13l3 7q2 3 6 2 3-1 4-10c0-6 0-6-4-10q-5-7-9-2m125-1q-3 1-6 14-4 15-13 15-5 1-6 9c0 9-6 20-12 23q-12 4-14 16l-3 9-3 6 1 7q1 9 5 13l3 6 1 3h22l-1-3-8-6c-5 0-11-17-9-27 1-15 13-17 15-4q3 12 8 14 12 1 3-14-11-18 6-23 7-2 5-9-5-16 9-21 10-4 6-12l-2-9q0-10-7-7m-618 1c-5 2-12 17-10 24q5 15 12 0 3-9 15-1c2 2 7 0 7-3q-1-6-9-11l-6-5q-5-6-9-4m314 13q-6 3-7 11l-2 9q-8 19 7 16 10-2 8-9t4-15q4-7-3-12-3-3-7 0m48 3q-6 7-1 16 6 11 1 17-9 8 0 13 11 5 12-14l3-14q5-7-1-10l-5-5q-4-8-9-3m-15 0c-6 2-5 11 0 12q7 0 9-4 3-11-9-8m302 3c-5 3-10 11-8 13q1 3 6 1l8 1c4 3 11 4 12 1 2-3 0-12-3-15q-6-6-15-1m-207 3q-4 3 6 14 7 7 7 11l4 12q5 3 6-6 0-6 7-14c6-8-1-18-11-16q-6 2-10-1-8-4-9 0m-242 0q-4 2-1 11l2 11q1 15 9 8c2-4 3-23 1-27q-3-6-11-3M0 427q0 13 3 4 2-9-1-11-2-1-2 7m188-6-6 4-6 3q-4 1-5 6 1 4 9 7 6 3 9-4 2-4 4-3c2 2 1 9-1 12q-3 3-3 11c-1 9-2 11-11 16-8 4-8 4-7 12q1 15 10 8l7-4c4-2 4-2 6-12q6-25 21 2 9 19 10-15c-1-14-1-15-8-12q-3 3-7 0-12-10-3-24 7-8-8-8zm558 0c-1 2 0 8 2 10l1 7q-1 8 3 11c6 9 2 28-7 28q-9 2-6 12l2 9c0 13 7 12 10-3q3-6 11-13c5-3 5-5 4-17q-3-15 1-25 3-6-3-9l-8-7q-7-6-10-3m-321 1q-3 2-1 11 6 16-8 25-5 3-11 10c-5 7-6 8-11 8q-7 1-8 8c0 3-5 12-7 13l-4 1q-5 0-5 4c5 9 6 10 12 10h5l3-7c5-11 7-13 17-16q5 0 6-8 3-13 14-13 6 0 6-8 1-9 8-17 7-7 1-12l-3-5c0-4-10-7-14-4m95 3q-3 2-1 8l2 7c3 11 18 5 18-7q1-10-10-10-7-1-9 2m-409 8-7 6-8 6-5 3-1 6q1 12-7 19c-8 7-9 9-6 15q3 10 2 21l-1 3h13l1-3-1-16q-1-12 6-16c7-6 8-6 8-13q3-18 12-19 6-2 7-8 1-13-13-4m586-2q-5 5 1 13 6 9 13 1c4-4 4-4-1-9q-8-11-13-5m25 3q-5 4 1 7c6 3 7 19 1 22q-9 5-4 11c3 4 10 4 12 1 2-2 5-16 5-25 0-7 1-6-8-14-5-5-4-4-7-2m-670 3q-12 6-19 7c-11 2-17 12-10 17q5 5 11-1 6-8 13-2l5 3q3 0 5-9l2-8q4-12-7-7m-34 2a3 3 0 1 0 4 0q-3-4-4 0m301 1-5 7-9 8q-9 6 0 8h7q7-3 10 4c4 8 10 8 9-1l-2-5q-2-4-1-13c2-9-4-13-9-8m35 3-1 7c3 16 2 18-6 19-4 0-12 4-15 8s1 9 6 7q8-3 12 0 6 4 9 0 6-6 6-18 0-8 3-11 7-9-6-11zm101 2c-1 1-1 11 1 14s11 10 14 10c6 0 7-8 1-14l-4-6c0-5-9-9-12-4m207 6q-4 3-3 10c0 10-7 19-15 19q-11 0-4 14 5 10 1 16l-1 2h14v-7q0-13 8-15 7-1 8-13 2-16 13-10c4 2 16 2 17 0q4-7-5-8l-6-4q-5-5-9-5l-6-1q-6-4-12 2m-118 2v7q3 14-7 21-12 9-2 15 4 3 5 6 6 10 11 3 2-2-1-8c-5-11 0-19 9-14l4 2 2-2q8-12-5-17-6 0-8-8-4-11-8-5m-51 3q-2 5 4 8l3 1v13c1 11 1 13 3 19q6 10 1 13l-2 2h18l4-8c4-9 5-10 3-12q-1-3-7-1-10 4-9-10c0-6 1-6 5-9q6-4 7-10 0-10-6-6c-2 3-12 3-15 0q-6-4-9 0M8 462l-5 2c-5 0-4 9 1 11q9 6 11-7 1-11-7-6m284 2-2 6-6 10q-4 5-6 11l-3 6-8 1c-8 0-9 1-11 7q-5 9 6 7h8l2-4c3-6 3-6 8-2q7 5 8-4l3-11 4-10 7-10q8-6 4-6c-5-2-13-2-14-1m415 6c-6 3-5 15 1 15q6-2 7-9 0-9-8-6m-462 6-9 6c-12 6-13 9-10 20l1 8q-2 3 6 2l6-1-1-5q-3-12 9-16 9 0 6-10-1-13-8-4m-221-1c-3 2-2 7 2 7q4-1 3-6-2-5-5-1m28 5-6 6-3 3-5-2q-6-5-11 0l-4 3-3 3q-6 6-1 12 4 5 10-1 4-4 9-2c7 0 18-6 18-11l3-5q6-8-1-9-4-1-6 3m422 1q-7 2-4 14l3 15q0 3 4 2h4v-22q3-11-7-9m-30 3-9 7c-3 5-3 6 2 12q3 2 3 6t6 3h6l-1-4q0-7 7-13c11-9 0-18-14-11m253 8-2 5c0 1-6 6-8 6q-5 1-7 6v3h9c14 0 16-4 14-22q-1-3-6 2m-385 1q-2 1-2 10v9h6q16-1 9-10l-5-7q-4-6-8-2m47 6q-8 4-8 10-1 4 6 3h6l2-4q6-8 1-9-3-3-7 0m352 0q-7 4-4 10 0 3 10 3h8l-1-3-3-6q-3-9-10-4m-137 3-6 9 9 1h9v-4c0-7-7-11-12-6m-373 0q-2 3-2 8-1 2 7 2 11 2 4-6-4-6-9-4m-36 1q-7 1-9 6l-1 3h18v-4q0-7-8-5m251 2q-3 7 4 7 5 1 4-3 0-5-4-6z"
        mask="url(#16282281824-posters-1720553718869-radial-mask)" itemprop="regular" fill-opacity="0.90"
        fill-rule="evenodd" stroke="none" fill="url(#16282281824-posters-1720553718869-horizontal-regular)"></path>
      <!---->
      <path id="16282281824-posters-1720553718869-medium"
        d="m39 4-3 4c0 14-12 32-22 33q-7 3 0 7 7 1 6 10 0 11 5 8c2-2 6-13 6-19q0-9 6-13 3-2 6-9 4-9 14-13 3-1 4-5l2-6-10-1H42zm58-2-3 6c-1 7-11 14-18 14q-7-2-6 10c-1 12-2 12-8 15q-13 9-6 13 3 2 9-3c6-4 6-5 10-13a38 38 0 0 1 12-14q12-6 12 13 0 18-10 20c-3 1-10 9-10 13l-5 6c-7 7-9 10-9 19l-2 13q-8 10 6 7 8 0 9-2c2-3 2-3 0-12-1-6 5-19 13-28l6-7 6-14c8-16 8-19 4-27-4-9-5-12-1-18 3-7 3-8-1-11q-5-3-8 0m36-1 2 9q3 6 1 11c-1 6-2 21-1 23 3 6 10 3 11-6q0-10 7-14a10 10 0 0 0 5-8l3-3h5q4 1 6-3l5-6 3-4h-6c-7 0-7 0-10 3l-4 3-6 1q-9 3-11-4-1-4-6-3zm103 3q-3 14-11 10c-5-4-16 0-19 7l-5 6q-6 4-5 9l1 4c2 7 8 7 10 0q3-11 10-14 9-7 11 5l6 8q9 9 8 16 0 7 8 11l6 5c3 4 12 8 14 7s9-12 9-15c0-17-8-23-11-10-4 14-17 8-19-9l-3-8a18 18 0 0 1 4-29q4-2 4-5c0-2 0-2-9-2h-9zm41-2 2 14q1 18 7 17 6 1 4-8l-1-14 1-10-7-1h-7zm34 2q0 5-2 7-6 8 2 9 4-1 8-12l3-8h-12zm54-3c0 1-6 5-10 5-10 2-12 10-3 10 6 0 8 3 12 19 4 15 4 18-5 20-5 1-5 1-10-1q-15-5 0 9c4 5 5 6 13 3q4-1 7 4 8 7 9 1c1-2-1-8-3-10q-3-2-1-15v-9c-4-16-5-20-3-24 1-4 9-10 12-10l2-1q3-2-9-2zm72 2-7 4-4 1 1 5v30q0 7-4 13-7 17-15 6-6-7-9 5-3 13 15 14h8l3-4q5-4 4-10 0-9 8-16 6-4 1-18t8-22q6-4 7-10c0-2-13-1-16 2m43 0q-1 5-11 9-10 2-7 13 1 11 10 5l6-2q10 0 9-8-2-5 6-12c3-3 3-3 10-3q9 0 8-4l-15-1h-16zm82-2-4 2-6 5c-4 4-5 4-11-1q-9-8-10 6c0 7 0 8 8 7 5 0 5 0 8 3l5 7c5 6 5 7 2 17-4 11-5 13-11 13q-5-1-8 6-3 6-7 9l-5 6q-4 9-11 10l-5 2q-4 3-9-5-6-7-10 3 0 4 5 11c3 4 3 4 3 9-2 12-2 14 0 14q4-1 9-15 1-9 7-8 10 0 22-16 10-13 20-14 9 0 9-9c0-4 2-12 5-15q3-7-2-11-6-4-6-14 0-17 16-16 8 0 7-4c-1-3-1-3-11-3zm46 0-5 6-5 4v8c1 11 0 15-7 21q-9 7-3 9 7 3 16-10 3-5 9-8c9-5 10-10 6-23q-3-9-6-8zm67 1q-5 7-17 6-9-1-6 5l-3 16 1 3 2 1-4 1q-11-1-11 12c0 5 0 5-6 11q-11 11-17 7-12-6-6 6c3 5 3 5 2 13q0 9 2 9 4 3 7-5l9-9q9-8 11-17 4-9 11-14 6-3 9-12c4-14 5-15 11-13q8 3 8-1 1-7 8-12 10-5 11-8c0-2-22-1-22 1m83 2q-9 13-16 4-6-6-11 5-5 10-11 10-10 0-13 11c-1 7 12 7 18-1 10-11 12-12 18-9q4 3 7 1l6-4 8-3 5-2V0h-4q-5-1-7 4M418 7l-2 2q0 4-4 1-8-7-9 9v7l-6 6-5 5 1 5q4 12 10 11 2 0 4-11l3-10 2-6q1-3 4-4c7-5 9-19 2-15m-82 13c-2 2-5 10-5 14l-2 6-5 7q-7 15-12 17-6 1-7 6l-3 7q-8 10 8 9c12 0 12 0 12-9q2-11 12-20l6-5v-6q-2-6 1-13 5-13 0-14-4-2-5 1m185 7c-4 3-4 3-4 9 0 14 9 14 11 0q3-16-7-9m-15 2-4 2q-4 0-4 9 0 10-6 14-7 4 0 10 4 4 4 7 0 6 3 6 3 1 5-10c4-14 3-13 1-17l-2-3 3-6 6-10q3-8-6-2m-331 4c-2 2-2 12-1 16l3 8q4 11 9 2l1-5q3-9 0-10-2-1-2-5c0-7-6-11-10-6m117 7c-4 6 0 14 4 9 3-4 2-11-2-11zm165 0-4 1q-6 1-7 6l4 7 4 8q1 4 5 5 6 1 3-20-1-11-5-7m238 4-3 4q-5 1-6 10-1 7-4 10-3 8-1 17c3 5 1 17-2 17-5 0-10 27-6 31q9 6 11-6c0-6 3-17 6-23l2-9-2-8q0-6 5-12a23 23 0 0 0 7-18c2-14 2-15 1-16q-4-3-8 3m42 0q-4 5-7 15l-6 9-4 5v7q5 24 11 2 1-5 4-9l4-9 3-9q5-9 3-12-3-4-8 1m-524 4c-4 4-1 15 4 15s5-18 0-18zm-86 1q-6 6-4 17 4 9-6 16c-5 5-6 6-6 11q-3 13-8 22l-6 9-5 8q-5 7 3 7 6 1 8 6l5 8c9 13 4 30-10 33q-7 2-6 6c1 5-8 21-12 21-5 0-12 6-12 11q0 5-9 5c-7 1-7 1-7-15l-1-13 3-3 7-6c5-4 7-12 4-15q-5-5-10 5l-8 6q-10 4-9-3l-1-10v-10q2-8-3-8l-6-2q-6-3-10 5t-10 6q-5-1-6 8-1 14 9 5l4-4 5 1q12 2 12 17 0 5 7 16 11 17 3 33-5 12 0 12 2 1 6-6 12-19 19-1c4 12 10 10 10-5 0-10 5-19 12-19q6-1 7-6c0-4 4-14 7-18q12-12 20 11 3 12-11 20c-8 4-9 4-9 12-1 12-3 13-15 17q-13 4-9 12 0 6 11 0c5-2 5-2 9-1q11 7 9-7c1-11 8-25 12-25q4-1 8-8 8-13 14-6l7 2 3-4 7-8 5-4 3 2 12 5q2-1 5 7 4 9 9 2t-1-9-6-6c-3-11 3-22 12-23 16-2 19-4 17-11q-4-17 12-27l10-8 6-7c3-2 3-2 3-9q-1-12-9-13-12-4-6 8 5 15-9 20c-7 3-17 11-18 16q-1 10-6 13l-11 12c-6 8-8 10-16 14l-5 7q-1 6-4 4c-4 0-19 4-22 7q-8 6-11-10-1-6-5-11l-4-5v-9q0-24 12-20 5 3 5 11c1 11 16 21 18 12l2-7c2-8 12-16 17-14q7 1 7-10-2-12 9-20l5-4 4 2q5 5 12-8t4-16q-5-6-10 5l-6 6-3 3-4-3q-12-7-10 10v6l-4 2-8 4q-5 0-5 8c0 5 0 5-6 10q-12 13-16 2-4-9 4-21 6-11 2-16c-1-2-6-3-6-1l-4 1c-7 0-7 0-6 11 0 12-1 15-6 20q-10 8-17-13c-5-12-3-19 7-31l5-9q2-17 10-11 10 5 5-9l-3-18q0-19-7-12m638 3c-2 4-1 11 2 12q3 1 2 5 1 5-3 4c-5 0-7 1-14 8-14 15-16 18-14 24q7 8 10-1 6-15 16-17 5 0 5-3c2-7 1-34-1-34zm-611 7q-1 4 2 9c6 8 14 3 9-6-2-5-9-7-11-3M3 60c-2 1-3 21-1 21s7-11 7-17q-1-6-6-4m183 10q-6 5 1 12l6 7c5 11 12 9 12-2l1-9q3-8-6-7h-8q-3-3-6-1m39 2q-4 5 0 9 6 2 8-4c2-6-4-9-8-5m229 2c-2 0-13 7-14 9q-2 4 1 10l1 8q1 6-3 5-9 1-4 11 3 6 10 4l7 1 8 2q9 1 9 5 4 7 0 16l-2 6 2 1 4 2q2 0 3 8c1 5 6 17 9 17q2 1 5-1 7-5 1-12l-3-8q-1-8-6-8c-5 0-5-2-5-14 1-10 1-11-1-15l-3-6c-1-2-1-2-8 0q-7 1-11-8-7-16 3-25 7-5 3-8zm-70 2-2 7q1 5-4 8t-5 9-6 9q-7 8-10 3-9-10-2-21 5-10-6-6c-11 5-11 10-1 28 5 9 3 22-4 24l-7 4q-4 5-7 3-14-3-10-17c2-13 2-14 0-15q-7 0-10 6-2 1 1 19 1 11 9 13l7 4c4 3 4 3 8 3h7q10 6 9-6c0-7 9-21 16-23q7-1 8-7c0-3 7-16 11-20q3-2 3-10l2-11c1-5-5-8-7-4m271 1a3 3 0 1 0 5 2c2-5-3-7-5-2m-186 1c-3 6 3 13 7 9V77q-4-2-7 1m107 0q-9 3-8 11c0 8 1 9 12 8 11 0 11-1 9-10q-1-16-13-9M38 80l-6 2q-4 0-4 4-3 7-6 7l-3 2q-4 7 5 15 16 15 13-3-1-11 5-17c5-7 3-14-4-10m196 5c-6 2-6 16 0 16q3 1 6-8 5-11-6-8m-67 2-8 3-6 3q-2 8 7 5 2-2 7 3t7 3c2-1 3-15 1-17q-4-3-8 0m161 3q-6 3-6 10 2 17 11-1 6-13-5-9m-64 7c-4 3-2 9 3 9q12 1 8 20c-2 7-2 7-8 9q-15 5-15 15l-5 12q-4 6-4 10 1 6-11 11c-9 4-9 4-8 18 0 13 0 14-7 15-7 0-11 7-6 12q4 5 11-1l5-4q5-1 5-11 0-14 7-19c8-6 9-6 12-17q2-7 9-6 7 2 8-6l3-8q3-6 3-12 1-7 4-8 17-14 13-21-9-17-17-16l-4-1q-2-3-6-1m131 1q-3 2 0 5c2 3 7 2 7-2q-1-4-4-5zm198-1q-2 3 1 7c4 3 8-3 4-6q-2-3-5-1m-35 6q-7 4-8 9l-2 7q-2 7 4 7 5 0 2 7l-4 17q1 8-4 9-5 6 0 7l5 3c7 5 14-1 11-10-3-10 0-23 6-29q7-6-1-11l-4-2v-5q4-15-5-9m152 4q-3 2-1 9l-1 10c-1 3-10 11-14 13q-6 1-4 12 0 12 7 11 6 0 6-9 0-13 13-19 6-2 5-14c0-7 0-7-4-10q-5-6-7-3m-79 3h-6q-6-1-10 13c-3 13-4 16-1 22 8 16 8 15 7 19l-3 7-3 7q-2 10-5 1c-1-7-9-14-15-14q-11 2 0 8 8 6 12 20l1 4 3 3q12 8 12-10c0-9 1-11 8-18l5-8 3-8q3-7-3-5c-6 3-13-3-13-12q0-8 7-14c10-7 11-19 1-15m-224 2-4 2v6q2 8-3 8l-7 5-5 4q-5 1-5 11 1 8 5 7 6 3-1 5c-9 4-7 12 3 12 3 0 11-8 11-11v-8q0-9 8-18 3-3 2-7l2-7 2-7q1-6-8-2m359 3q-3 3-14 3-8 0-1 12c4 5 5 5 12-1l6-4v-12zm-247 1q-3 2-4 11-1 4-5 5l-6 4q-9 5-4 12 4 6 8 0 5-6 12-4 7 1 6-8 0-5 3-10l2-7c0-3-8-5-12-3m-469 9q-7 3-6 9v8q-4 11 4 12 5 2 6-12l1-12q5-9-5-5m-48 2c-2 2-2 3-2 12l1 10 1-3q0-7 8-6c10 0 14-6 7-10l-5-3q-6-3-10 0m428 4-1 11-2 10c-3 5 3 8 8 3q3-2 7-2c8 1 9-5 1-9q-4-2-4-7-3-12-9-6m154-1v10q2 12 7 11c6 0 9-18 3-20q-8-3-10-1m66 9c-9 9-5 19 6 14l5-3v-5q-3-13-11-6m80 0q-4 2 1 8c3 5 3 6-1 15q-2 8-6 8l-4 6q0 7-4 10c-2 1-2 21 0 25q6 7 7-3 0-10 8-18c5-6 6-7 6-12q1-14 12-17 9-2 8-9c1-4 1-4-11-6q-4 0-5-3-4-6-11-4m-650 2-8 4q-7 4-7 11-2 11 11 5 8-2 8-7l3-8 2-5q-3-4-9 0m371 14q-3 2-2 7c2 10 2 9-4 12q-6 3-12 3h-7l-1 5v6c0 1-11 8-13 8l-3-2q-10-5-8 7c3 6 2 7-4 14q-11 12-14 6-5-4-10 0-4 1 5 12l5 8c2 5 13 2 16-5l5-7c4-3 14-19 14-22l4-5q3-5 8-4c4 1 4 1 8-3q4-3 10-4c8 0 9-1 9-13l2-12c4-9-2-18-8-11m128 4-6 7a14 14 0 0 0 0 15c2 6 7 6 7 0l4-9q6-14 3-17-2-3-8 4m-281-2c-2 3-3 14-1 18q2 5 8 2c2-2 3-15 1-19q-4-5-8-1m229 1-2 2-4 5-4 5-4 6q-8 6-3 12 4 7 11 0l8-11c6-9 3-25-2-19m-166 0c-6 5 4 12 11 9q7-4-2-8-7-3-9-1m54 7c-2 6 4 12 7 9 5-4 2-12-3-12q-4-1-4 3m263-1-2 6q-2 17-13 15-11 1-11 9l1 3h7q18 1 20 9c0 6-7 20-11 23q-10 7-3 17 4 5 7-5l5-7q8-6 9-13l3-8c1-4 0-13-3-18l-1-16q-1-23-8-15m-356 15-6 8c-12 11-15 32-5 35q7 1 6-14 0-8 12-17c10-6 11-7 9-11-3-8-12-8-16-1m445-1-12 18c-3 8-4 32-2 36 5 8 12-2 8-11-3-9-1-19 5-21l3-1v-22zm-481 3-7 4c-7 2-11 12-6 17q3 4 14-8 9-12 8-15-4-3-9 2m259 10-9 2-5 1c-1 1 2 8 5 11 7 9 24-5 17-15q-1-4-8 1m27 0q-3 2-1 5 8 1 6-5zm-99 2-2 7-1 8c-5 10 1 16 7 8q2-4 7-6 8-5-2-9-3 0-4-4-1-7-3-6zm-109 1q-3 2-3 13c-1 4-1 4-10 8l-7 4q-1 7-12 6c-6 0-7 0-11 4l-4 5c0 3-4 10-7 12q-13 9 0 11l7 4q10 8 8-6c-1-14 10-26 19-18 2 2 7 2 7 0q3-12 14-24l4-6q1-3 5-1 11-1 9-11 1-2-7-2h-8q-3-1-4 1m193 4q-2 2 1 5 7 5 5-4-2-3-6-1m27 1-1 5 2 11 2 7 2 5q2 9 6 10c2 0 2-1 2-13v-13l-4-7q-6-10-9-5m-90 4q-4 3-3 5l6 13 2 3 5-3q7-3 6-6c0-10-10-17-16-12m-233 1c-3 2-2 8 2 8s6-6 2-9q-1-2-4 1m381 0-3 5q-1 4-4 5c-6 2-6 8 0 10q9 1 4 19 2 7 5 0 0-2 3-5 5-5 2-12l-1-11q1-18-6-11m-628 7q-2 2-2 6c2 12 2 12-1 16q-5 7 0 7h1q1 3 6-1c5-3 8-24 3-28q-4-4-7 0m420 9q-3 2-1 7v12c0 7 0 7 3 10q7 5 6 12 0 7 5 7c2 0 2 0 3-11q0-14 7-19 9-5 7-6 0-3-7-1-9 2-10-7 0-4-5-5c-6-1-6-1-8 1m296 2c-4 3 6 13 12 13 4-1 8-9 6-13-3-3-16-3-18 0m-213 1v8l2 11q0 7 6 7 7 0 10 7 4 6 5 2 1-2-1-11c-3-9-3-10-6-12q-4-2-4-6 0-8-7-8-4 0-5 2m55 0q-9 3-9 1l-3-1q-7 2-5 9c6 9 6 11 7 24s1 13 6 21c2 5 0 15-6 22l-5 9q-8 20-20 11c-7-6-3-21 7-26q8-4 8-13 0-7-7 0l-6 4-9 8q-11 12-5 26c3 9 2 19-2 19l-5 3-7 4q-3 2-4 5l-2 5q-5 7-5 14-1 14-12 15-5 1-6 5c0 2 10 10 13 10q6-1 11-17 5-15 8-17 5-2 8 1l4 1q6 0 3-10c-2-6-1-8 1-14q8-16 19-7 7 8 8-4 3-14 10-17 7-1 9 7l4 4q8 3 3-14l-2-8-1-4v-12c4-18 4-17 0-17q-8 0-8-11c0-9 4-22 10-28q8-13-10-8m-291 1q-4 4 1 12 8 12-5 26c-6 5-8 5-14-1l-6-4c-3 0-9 9-11 18q-3 16-9 16-6 1-10 11l-5 8-4 7c-3 9-11 19-16 21q-6 1-5 5-3 7-13 17-6 7-2 11 7 6 11-4l2-6q5-2 9 1 6 4 8-5c0-6 7-17 11-17q6 0 6-13-1-15 12-20 7-2 8-11 0-10 9-15 5-2 6-5 3-4 5 0l5 21 2 3q4 2 4-10c1-10 3-16 10-27q8-12 3-20l-1-8q0-10-4-11zm339 2-2 3q-1 6-5 9-7 7 4 8 10 0 9-12 0-14-6-8m-365 3h-8c-10-1-11 1-11 11q0 10 5 13 5 5 7-10 2-8 12-8 9 0 9-5c0-2-11-3-14-1m213 0q-2 4 1 7c4 5 9 4 7-1q-2-10-8-6m-310 8q-5 2-2 9c4 7 12 1 8-6q-2-5-6-3m324 1q-4 0-3 8 3 16 16 9 6-3-1-11-6-13-12-6m224 0-4 1q-7 2-9 9-1 8-9 9-7 1-8 8c0 4 0 4 5 12q7 9-3 18l-5 5 1 6c1 6 0 8-2 15q-1 5-4 6-6 3-6 8l-3 9c-3 7-3 30 0 35q8 9 9-8 0-11 5-15c2-3 2-4 1-13v-10l6-4c7-5 7-6 5-14l-2-8q-1-6 8-15c6-7 6-7 4-17q-5-14 10-20c10-5 11-20 1-17m-490 4-2 1q-1 6-7 7-11 0-6 10c3 7 3 9-1 17q-7 18 2 17 6-1 7-5l3-7 3-10q0-7 3-12c5-8 3-20-2-18m384 0c-2 1-5 10-5 13l-2 6q-5 7 1 8 3 2 9-10c5-11 6-13 3-16q-3-3-6-1M0 254l1 11 1-5 1-10q3-7-2-7zm630-7-1 7-2 7q-4 6 1 10l3 2 6-6c7-7 7-8 2-11l-4-5q-1-6-5-4m111 2q-3 2 1 17c3 9 19 7 18-2q-3-14-9-15l-6-1q-2-1-4 1m-607 0-1 8q0 10-5 20c-4 8 2 13 8 6l6-4q10-5 4-17l-3-8c0-5-6-8-9-5m236 4q-4 4-9 3-8-2-11 5-4 10 2 11l5-2q1-2 8-2c11-1 19-10 14-17q-3-4-9 2m145 0-6 1q-6 0-3 7 5 8-1 21c-6 11-7 12-12 14q-13 3-5 13l3 5c0 4 8 9 10 8s2-1 0-14q0-7 7-13l6-8 6-7q5-4 2-10l-2-9q0-9-5-8m-343 2c-3 2-5 24-3 26q10 8 11-12 0-22-8-14m235 0c-3 3 0 16 5 18q10 4 10-7 1-6-7-9-6-5-8-2m-375 5-6 5-5 3-3 5q-3 10-9 19-3 6 0 8l4 3q13 11 13-6-2-14 10-22c5-4 5-4 5-8q-2-10-9-7m436 8-8 3q-8 3-9 11 0 7 9 7c11 0 22-16 15-21q-3-3-7 0m-139 0c-3 4 3 10 6 7v-5q-2-5-6-2m399 4q-3 2-4 7 0 4-4 6l-4 7-3 8-3 8q0 7-10 11-7 1-6 5a7 7 0 0 0 3 8q5 6 9 1 2-3 6-4 14-1 9-8a13 13 0 0 1-1-13q0-2 5-4l5-2v-9l3-14q4-10 0-9-2-2-5 2m-121 0-1 7q1 5-1 9v9q1 5-4 8c-6 7-7 10-3 19q5 10 10 9c5 0 7 2 10 15l3 8c1 4 1 4-1 10-3 8-2 10 3 14q15 12 10-19-3-16 0-21 4-13-6-6-4 5-9-3l-5-5q-7-2-6-6c0-4 5-13 6-14 4-2 6-11 3-17l-1-10q-1-10-5-9zm-557 2q-4 5 1 11 10 9 13-1c1-6-11-14-14-10m342 7-5 4c-2 0-12 8-15 13q-2 5-9 8l-22 12c-3 2-3 20 0 23q7 7 10-6 2-10 11-17 5-6 10-1 11 10 12-6 2-16 13-17c7 0 9-8 3-15q-3-5-8 2m374-2-3 7q-2 10-8 14c-3 1-4 1-4 8 0 9-6 20-12 22q-6 3 1 6l7 4c4 7 13 3 9-4q-4-7 9-24l4-6v-14q0-21-3-13m-607 3-12 14q-4 5-9 4-8-2-5 5c1 4 11 12 15 12 2 0 6-7 6-11l2-5c5-7 10-19 10-20q-3-4-7 1m182 0q-4 4 0 8 9 5 8-7-3-7-8-1m283 0q-9 4-4 7 8 5 11-5 3-8-7-2m36-2c-5 0-11 8-12 12q0 8-6 15-6 5-1 16 2 7 5 6 7 0 4-8-5-13 9-22 8-4 7-13 0-9-6-6m-357 7-7 6q-17 10-13 26l3 13q1 14 7 13 5 0 5-7v-7q0-4-3-10-5-14 4-20 9-8 13 7 3 10 9 8c7-2 4-20-5-24l-5-4q-6-6-8-1m-182 0a3 3 0 1 0 5 2q-2-4-5-2m320 2-2 7q-1 10-7 12c-6 1-4 6 4 6q12-2 13-18 0-12-8-7m-367 3q-6 4 0 12c5 9 4 23-4 29q-5 5-11-1l-5-3q-2 2 1 9l1 5a4 4 0 0 0 8 3l3-1 6-3c4 0 10-4 10-7l9-19c5-6 3-15-3-18l-6-5q-5-7-9-1m111 4q-5 3-6 9 0 12-10 17-4 2-10 9c-8 9-8 9-14 12q-7 4-6 13 0 8-12 21l-5 4v10q1 15 5 16 6 2 8-14l2-8c7-11 10-14 15-17 8-4 8-5 9-15q-1-19 20-25 9-1 8-10c0-5 2-15 4-17 4-4-2-9-8-5m447 1c-4 3 0 11 4 8l1-4q1-9-5-4m-218 12c-5 2-12 12-12 15q-1 5-6 9-11 9-13 25 0 5-4 6-6 3-6 8c0 5-9 11-16 10q-12-1-6 7c4 4 13 4 18 0q4-3 9-3 7 0 8-3l3-4q3-2 2-9 0-15 11-24 6-4 8-9 4-15 9-18 11-8 2-12-2-2-7 2m55 1q-3 1-4 13c0 8 0 8 3 10q9 6 7-7v-9q1-10-6-7m-213 5q-2 2-2 13l-2 14q-3 6 4 5 7 0 8-11c4-16-2-30-8-21m-207 0q-4 4 0 9 2 3 4 1 4-6 0-10 0-3-4 0m-17 1-4 5-10 9c-8 6-9 8-12 23l-1 12 2 2q3 4 10-2c4-4 4-4 4-9q0-10 5-15c3-3 11-17 12-20q0-8-6-5m419 13c-2 1-3 6 0 7 4 1 9-5 5-8q-2-2-5 1m-336 2-4 8c-4 7-4 7-11 10q-11 6-11 11-1 9 13 7 5 1 6-5 4-11 13-16 8-4 6-9-5-9-12-6m458 6-2 5q-1 4-10 11l-5 5c-2 4-10 12-14 13-8 2-11 9-6 12q4 4 9-4l9-7q5-2 10-8 7-10 12-9 8 1 6-9-1-12-5-12zm-99 1v18c4 3 20-7 20-11-1-3-3-4-16-8zm-161 7q-6 5 0 9 8 2 11-6-1-10-11-3m-72 2-2 8a15 15 0 0 1-10 15q-4 4-8 4-7 1-7 7 0 5-7 6-5 1-5 6 0 8 7 9 9 1 14-9 2-7 9-11c9-7 19-27 18-35-1-2-7-3-9 0m462 1q-13 4-10 10c3 6 16 1 16-7q0-5-6-3m-374 1v13q2 17-13 21-8 0-8 8 1 6-6 9-10 5-15 14-7 11-16-2c-4-6-4-6-4-13s0-8 9-19c7-10 7-11 2-16q-9-10-13 5-1 6-6 15-6 9-7 16l-1 7 2 3 5 2 6 4c7 7 7 10 0 17q-6 6-4 9v7c0 4 0 4 6 8q11 8 7-3-3-14 7-21 3-4 8-3 8 2 10-8 4-16 15-16 10 0 15-13c3-8 3-9 7-13 4-6 4-7 6-15l1-10c2-4-9-9-13-6m96 2-3 6-1 6-1 6-4 6c-3 4-3 4 0 10q3 4 1 9-2 14 10 5c6-5 6-5 3-10a20 20 0 0 1 1-19l4-12q2-1 4 1c7 5 13 1 10-6-1-4-1-4-12-4-9-1-10-1-12 2m161 0c-5 4-2 11 6 13q6 0 6-7-1-11-12-6m130 3c-2 1-2 1-2 8q1 27-15 19-6-3-9 1l-5 2q-5 2-5 6 4 16 11 10 4-5 7-2c2 2 13 4 16 3q4-3 4-13c0-5 4-14 9-19q8-9 2-14c-2-2-9-3-13-1m-672 7q-8 8-6 13 0 2 10 4 11 1 20 9 4 4 9 4 14 1 5 22-2 6-9 8-12 3-1 11l7 6q9 8 9-12 0-9 5-14 12-13 1-24l-8-9-3-3-6 1c-11 1-21-5-21-14q1-14-12-2m700-1q-5 6 3 8 5-1 3-7-3-5-6-1m-290 6q0 3 3 4 4 0 1 12-2 15-12 12-14-3-8 10 5 11 11 3l5-4q6 0 9-7l6-9 4-9q2-13-7-10-7 3-6-2 1-4-3-3-4-1-3 3m299 10-2 2c0 4-12 19-17 23-6 3-6 3-6 12q-2 14 5 13 7 1 7-10 0-10 7-15l5-5 8-1c7-1 7-2 4-11q-4-14-11-8m-582 2-2 6q-1 8-9 16l-4 5 1 14c1 15 1 17-3 18q-3 1-5-2c-5-6-9 0-4 8 2 5 2 6 2 11q-1 11-7 12-16 7-15 13c0 4-4 16-6 18l-7 4q-7 3-5 8c1 4 15 4 16 1l4-7q6-7 7-12c0-6 8-16 14-16q3 1 7-5l5-5v-9c0-9 0-10 3-14q5-6 2-18-3-11 6-18c5-4 6-7 6-20q0-10-2-9-3-2-4 1m429 4c-10 8-10 8-9 18q-1 14 5 14c3 1 8-5 8-9s5-14 6-14c2 0 5-7 5-10q-1-11-15 1m-37-2q-2 3 1 10c3 8-1 16-9 14q-7 0-7 3l5 6q9 9 8 15-1 7 5 9c4 0 6 12 3 22q-2 13 7 3l5-6q4-5 4-12c1-6-4-17-7-17q-6-1-7-8c-2-11-2-12-1-14l2-8 1-7c2-8-5-14-10-10m-43 13q-5 3 4 19 2 3 6 1l2-9q1-7-3-10-5-5-9-1m124 0-4 9q-4 20-12 18-6 1-8 10-1 17-14 23c-8 4-9 6-11 15q-1 7-4 9c-2 4-2 4-1 13l4 12 4 7 1 3h10l10-1q-2-4-8-7c-10-4-14-30-6-39q9-7 13 8 4 13 9 13 8-2 0-15-10-19 5-23 7-1 7-7c-3-14-2-18 9-23q10-4 6-10l-2-7q-2-15-8-8m-620 3q-11 14-5 24 5 8 10-4 3-9 11-4t10 1c2-2-3-8-7-11l-8-6q-6-7-11 0m316 10q-5 5-6 12l-1 4c-3 5-4 13-3 16q1 3 7 2 11 1 9-9-1-10 5-15 3-4-2-9-3-6-9-1m49 3q-5 5-1 14 7 13 0 19-6 6 0 10 11 7 12-10 0-11 5-17 3-6-1-8-5-2-8-8-2-4-7 0m-16 1c-5 3-2 10 3 10s9-7 6-11q-4-2-9 1m304 2c-10 4-12 16-3 13h7q14 7 13-3-1-18-17-10m-208 3q-2 3 7 13c6 5 6 6 7 14q3 15 7 8l2-5q0-7 6-13t0-13q-3-6-10-3c-5 1-5 1-10-1q-8-4-9 0m-243 0q-3 3 1 11 2 4 2 11 0 12 7 7c2-3 3-24 0-28-1-2-8-3-10-1M0 427q0 12 3 2v-7q-3-6-3 5m192-6q-5 1-9 4l-6 3q-4 2-6 6c0 5 14 9 16 5q5-9 5-6 5 6 0 14l-3 7c1 4-1 12-3 14l-8 5-6 4v6q-2 18 10 9l6-3q3 0 5-11 2-14 9-13 7-1 13 13 8 19 9-10c1-17 0-19-5-16q-4 3-9 0-12-9-4-23 9-12-14-8m555 0q-2 2 1 8 3 4 2 9c-1 5-1 6 2 11 8 11 3 29-7 29q-8-1-5 15l1 6c-1 2 1 7 3 7q4 1 7-11 3-7 12-14c3-2 4-4 1-21l1-12c2-12 2-15-1-17l-6-4q-9-10-11-6m-322 2q-3 2 0 8v18q-1 6-10 10-5 3-7 7-8 11-14 11-7 0-7 6l-3 8q-3 8-10 7c-7 1 0 14 7 14q6 1 8-6 6-15 16-17 6 1 8-8 3-13 14-14h4l2-9 3-10 5-6c5-5 5-6 1-11l-5-6c-2-3-9-4-12-2m96 2q-3 1-1 6l2 8c3 13 17 6 16-8v-5l-6-2c-7-1-8-1-11 1m-408 7-9 8-8 5c-5 3-5 3-5 11s-1 10-9 19c-7 7-7 7-3 16l1 13-1 8h12v-18q-2-15 8-20 6-2 6-13c1-8 7-17 13-17 5 0 8-10 3-14q-2-3-8 2m585 0c-4 3-2 12 4 15q3 4 7 0c5-5 5-6 0-12q-7-8-11-3m24 2q-3 4 2 7 3 0 4 9c1 9 1 11-4 14q-10 6 0 12 9 5 11-13 5-18 0-21l-6-5q-5-6-7-3m-669 2-6 4c-3 2-11 5-15 5-8 0-15 9-11 14q7 8 13 0 5-7 13-1 8 7 9-5l3-10q3-10-6-7m267 4-3 5a43 43 0 0 1-16 13c-2 3 8 6 12 4q5-3 9 5 5 7 8 4 2-1-1-10-3-7-2-10 3-10-2-12c-3-1-2-1-5 1m-74 4c-6 5 4 19 9 14q4-3 1-11-5-8-10-3m108 1v6q5 20-6 18c-10 0-20 9-15 14l2 2 5-2c5-3 6-3 11 1q11 6 13-16 0-9 3-13 6-10-4-10l-2-1c-1-2-7-1-7 1m102 0c-4 4-1 15 7 20 6 4 6 4 8 3q6-5 0-12l-5-6q-3-11-10-5m207 6q-4 5-3 12c1 7-9 18-17 18q-9 0-3 12c3 5 4 15 2 18q-2 1 5 1c7 0 7 0 7-9q1-14 9-14 5-1 6-11 0-14 12-12c5 1 16 3 18 2 4-1 2-8-4-8l-4-2c0-3-6-7-10-7l-6-2q-7-3-12 2m-118 1v11q1 13-7 19-12 8-3 13l6 8c7 9 13 5 8-6-4-11 1-19 9-15q7 4 9-4 4-9-8-11c-5-2-5-2-7-8q-5-12-7-7m-50 4q-5 3 2 8l4 2v8q-2 14 4 24 2 9-1 12-5 3 7 2h9l4-9q9-14-4-11-10 1-9-11-1-6 2-8 10-7 9-12 0-9-4-5-11 6-17 1c-4-4-3-3-6-1M8 463l-7 2-1 4q-1 6 4 6 11 3 10-9-1-7-6-3m284 2-2 6-5 9-8 12-2 6h-8q-11 1-11 11v3h13l3-5q3-8 7-2 8 6 9-5l3-9 4-10q1-4 6-9 11-9-2-7zm413 8q-4 4-1 9c2 4 9 1 11-4 1-8-5-11-10-5m-459 3-10 7c-12 6-13 10-9 21v6q-1 2 5 2h6l-1-6q-1-17 12-17 6 1 4-9 0-13-7-4m-223 0q-1 5 2 6 4-1 4-5-2-6-6-1m30 3-5 6q-4 6-10 2-6-6-19 7-4 5 0 10t10-1q2-2 10-2 12 0 16-10l5-7c4-6-2-10-7-5m418 5-2 4 3 13c2 11 2 11 5 11q3 0 3-2v-28q-4-3-9 2m-27 0c-4 2-11 9-11 12l3 4q5 6 5 10 0 3 5 2h5v-4q0-11 8-14 6-4 1-9-7-6-16-1m255 6-2 4q-3 7-11 10-4 1-5 4l-1 4h9c12 0 14-2 14-14q-1-12-4-8m-386 3q-2 1-2 10v9h5q15-2 8-11l-4-5c0-4-5-6-7-3m398 7q-12 11 7 12h7l-2-3-3-5q-1-6-4-7zm-353-1q-5 4-7 10v3h6q6 1 7-2c4-9 4-9 3-10q-2-3-9-1m218 2-5 6-3 5h8q12 1 10-5c0-4-7-8-10-6m-375 2q-3 4-1 7c0 2 12 3 12 1s-4-8-6-9q-3-2-5 1m-42 3q-8 7 5 6c8 0 8 0 9-2 1-8-7-10-14-4m258-2-2 5q-1 4 4 3l4-1q0-10-6-7"
        mask="url(#16282281824-posters-1720553718869-vertical-mask)" itemprop="medium" fill-opacity="0.90"
        fill-rule="evenodd" stroke="none" fill="url(#16282281824-posters-1720553718869-vertical-medium)"></path>
      <!---->
      <path id="16282281824-posters-1720553718869-bold"
        d="M39 4q-3 4-3 10c-2 13-14 28-23 28q-7 1 1 5 7 2 7 12c0 16 8 4 10-14 1-7 1-7 5-11l7-9q6-12 13-13 4 0 5-8l1-4H43zm61-3-2 1-3 5q-2 9-8 12l-4 2-6 2c-6 0-7 1-7 11 0 9-1 11-9 15-7 3-9 11-3 11 3 0 13-8 14-10l9-17c0-2 10-6 13-5q7 5 6 13l-1 8q0 11-9 14l-6 4-9 15c-4 0-9 10-9 20l-3 12q-7 9 6 7 12-1 9-8c-1-7 2-21 4-21l1-3 7-10 7-8 8-18c5-10 5-15 1-23q-6-9 0-18 3-5 1-7c-1-2-7-5-7-4m34 1 2 9q3 7 1 9c-1 3-2 16-1 23q1 4 5 3c2 0 5-8 5-12q1-5 6-11 3-1 5-4 3-9 9-7 6 1 7-4l4-6q4-2-3-2c-6 0-6 0-9 4-3 3-4 3-12 3l-8 1-2-4c-3-5-9-6-9-2m103 0-1 4c0 7-6 12-10 9-5-4-15-1-18 5q-4 7-8 8-2 1-3 6c0 10 8 15 10 6a27 27 0 0 1 11-16q6-4 11 6l6 9q7 6 7 14 1 9 7 11l7 6c4 5 11 8 13 7 4-1 9-10 9-16 0-16-7-20-11-5q-1 6-8 5c-4 0-10-7-10-10l-4-16q-5-6-5-13c1-9 4-12 12-17l2-3c0-3-16-3-17 0m40-1 1 2 1 11q1 18 8 18 3 0 2-3V0h-6zm34 4-2 7q-4 5 1 8 4-2 8-9l2-6q3-5-4-5h-5zm54-3q-3 5-10 5-6 1-8 6 0 3 4 2 8 1 11 9l1 4 2 6 1 5c2 2 2 9 1 12-3 5-13 6-21 3q-6-3-2 4c7 9 8 9 16 9l6-1 4 4q5 6 7 3 2-5-3-11-2-3-2-9c2-10 1-15-1-24l-2-12a15 15 0 0 1 12-14l3-1q3-2-8-2t-11 2m75-1c-1 1-7 6-10 6l-2 1-1 21v21l-3 6q-7 18-15 7-6-6-8 1l-1 3q-3 4 2 10c4 3 4 3 12 3q15 0 14-13 0-7 7-15 8-9 4-14c-2-1-4-12-4-14q2-7 10-12 7-5 7-10c0-2-11-3-12-1m40 0c3 3-7 12-13 12q-5 0-5 8 1 14 10 8l6-2q9 1 8-7c0-10 11-19 19-16q4 1 5-3l-15-1zm82 1-3 2-7 4-4 4q-4 0-9-5-6-6-6 3l-1 8q-2 2 6 2c7 0 7 0 10 4l5 6q6 7 2 17l-2 5q-1 8-10 9-4-1-7 6l-6 8-7 7q-4 9-9 9l-5 1q-5 4-11-3c-8-9-13 2-5 12q6 7 2 16v6q2 3 5-2l2-6 2-6q1-8 9-8 9-1 22-17 9-11 18-12 8 1 10-13l2-9q7-8 0-13c-4-3-4-4-5-11q-4-20 15-20 9 0 6-4c0-3-17-3-19 0m48-1-6 5-5 4v11q1 15-7 19-7 5-5 8 6 4 15-7c5-7 6-8 12-11q10-5 4-23-2-8-5-7zm66 0-6 6c-6 3-6 3-12 2h-5v6l-2 10q-2 6 1 7 2 2-2 3-11-4-13 11c0 6-1 6-6 12-9 8-12 9-17 6l-5-2q-4 1-3 4 6 4 5 15v10q4 3 6-2 5-8 11-12 8-5 11-16 1-6 7-13l3-1q7-3 9-11 5-20 12-15 6 5 8-4 2-5 10-10l7-4 2-3h-10zm84 2q-10 15-18 7-6-7-10 1l-2 6c0 2-7 7-10 7q-7 0-10 5-4 8 0 9 11 2 17-8l7-7 3-2 5 2q6 4 10 0l5-3 10-5c2-1 3-10 1-13q-3-4-8 1m-343 7q-2 6-5 1-8-6-8 8v7l-6 5q-9 10-1 18 8 9 9-5c0-8 7-24 10-24 2 0 5-6 5-9q-1-7-4-1m-81 11q-2 1-5 14l-3 7-3 5-1 3-5 8q-4 7-7 7-6 1-7 7l-1 3q-10 11 8 11 13 0 9-7c-1-4 6-17 12-22 6-4 6-5 5-11l2-12q6-14 0-15zm189 5-2 1q-6 1-7 7 1 12 8 11c3-2 5-20 2-20zm-18 3-5 3q-4 0-3 7 0 11-7 16l-4 3q1 4 4 5l5 7q1 13 5 1l3-10q3-9-1-10c-2-2 1-14 5-18l3-4q0-4-5 0m-331 4q-4 8-2 15l3 7q3 7 5 8l4-8 2-5q2-3-2-6-2-1-2-5-2-12-8-6m116 7c-3 4-1 10 2 10a8 8 0 0 0 3-10zm162 1q-12 3-4 13l5 9q3 5 7 2V52l-1-7q2-6-7-4m243 1-2 3q0 3-4 4l-3 2-1 4q-2 11-4 12c-2 3-2 15 0 21q3 7-4 15l-4 5-1 8-2 8c-4 2 1 10 5 10q7 1 7-10l2-13 3-7c3-7 4-8 2-12q-5-11 6-20 2-3 3-13l3-11 1-5c-1-2-6-3-7-1m40 3c-3 3-6 11-6 13q0 4-7 11c-3 3-3 3-3 11q4 21 9 4 1-6 4-11l4-8 3-8q5-9 3-13-3-4-7 1m-522 2q-4 4-3 10 4 8 7 5c2-2 2-15-1-15zm-88 2q-4 2-3 17c0 10 0 10-3 13l-4 3c-1 0-5 7-6 12q-2 16-9 22l-4 7-4 8q-6 8 0 7c4 0 10 5 10 8l1 2a26 26 0 0 1 5 30c0 2-6 7-8 7l-2 1-3 1q-6 0-4 5c1 5-8 20-13 22q-8 2-11 8-1 9-10 8-10 1-7-10l-1-10q-3-11 6-15l8-9c3-9-4-14-8-6a16 16 0 0 1-13 9q-7 5-7-7l-1-7v-10q3-5-2-8l-6-1q-5-2-8 3-4 9-12 8-6-1-6 10c0 6 7 7 10 0 0-2 9-3 13-1q7 6 8 18l1 5 3 6 5 8c3 4 4 25 1 30q-5 9 1 11l4-6q13-21 20 0c2 10 9 6 8-5 0-9 4-18 10-19q8-3 9-6c0-7 8-22 12-24 5-1 15 6 15 11l1 5a9 9 0 0 1-1 10q-1 5-12 11-7 3-6 7c0 6-3 16-5 17l-8 4q-13 3-12 8 0 10 11 4 6-3 10 0 8 6 8-10 2-20 12-23l6-6q10-17 16-9 5 7 10-2l8-8 4-4 4 3 9 4q7 2 7 5 1 6 5 8 4-1 5-8 2-2-5-5c-7-2-6-17 1-25 3-3 4-4 11-4l10-3 4-1v-11c0-11 0-13 5-18l11-8 4-4 6-5q6-2 4-13c-2-8-3-9-9-11q-9-1-4 9c4 6-1 18-9 20-8 1-17 10-18 17q-2 10-6 12-3 1-10 10c-9 10-10 12-16 15-3 2-4 2-7 8q-1 5-6 4l-4 1-7 2q-5 0-8 3-10 7-12-8l-3-8c-7-10-7-10-6-20 0-11 3-21 7-21q10 1 11 13c1 8 10 17 15 14l2-4 1-4 1-4q4-9 16-12c6 0 7-1 7-11l2-9 1-3c1-2 10-10 12-10l4 2q5 3 11-8 10-17 1-17-3 0-5 5-7 12-13 9-3-3-9-3-2 0-2 9v9l-4 2-7 3q-6 1-6 9c0 6-11 17-17 17-5 0-10-16-6-18l1-4 3-7q5-7 3-12-2-6-6-2l-6 1h-4v11c0 13 0 15-6 20l-3 3-4-2q-7-3-8-7l-3-8-3-10c0-4 4-14 6-16q7-8 9-14 2-17 12-11 7 4 4-5l-2-10-2-13q1-17-6-11m639 3c-2 3-1 12 2 12l1 5q1 7-3 4-4-1-14 9-12 12-14 17 0 7 5 9c2-1 2-1 6-9q7-12 16-13 5 1 4-5c2-8 1-30-1-30zm-610 6c-4 2 0 12 5 14 7 2 7-10 0-13q-3-3-5-1M3 61c-2 1-3 19-1 19 3 0 8-17 5-19zm182 11v8c1 0 8 7 10 11q2 4 5 4 4 2 4-9l1-7 1-4q1-3-7-2l-7-2q-4-2-7 1m42 0c-5 4-3 10 2 8 2 0 5-6 4-7q-2-4-6-1m225 3q-15 7-12 15 6 15-1 17-9 1-3 10c3 4 3 4 8 4h8l8 3q15 1 11 18c-3 10-3 9 1 11q4 2 5 6c1 7 5 18 7 19 6 3 11-6 7-11q-4-5-4-12 0-5-5-5l-5-1v-16c1-5-2-15-6-20l-3 1q-10 7-15-8-8-16 4-25c7-4 3-9-5-6m-68 2-2 7q1 5-4 8-4 3-4 8c-1 9-12 17-16 13q-10-10-4-23 4-9-6-4l-5 2c-4 0-1 13 6 26 5 8 2 21-6 24l-6 4c-7 9-23-5-18-15l2-8v-6h-3q-8-1-8 15 1 22 10 21 3 0 7 4c5 4 5 4 8 3h7q9 6 8-5c0-6 9-21 15-23q9-3 10-8l9-18c4-4 7-23 5-26q-3-3-5 1m86 1q-3 5 0 7 4 4 6 0c3-6-3-12-6-7m105 1q-8 4-7 10-2 9 12 8 10 1 9-2c1-1-1-15-3-17q-2-2-11 1M39 81l-5 1q-6-1-7 6 0 4-2 5-9 2-4 12c2 4 9 10 13 10l3 1v-9c0-10 0-13 4-17 5-5 4-13-2-9m127 6q-4 3-7 3-6 1-6 6-1 3 5 2c6-1 6-1 11 4q5 7 6-6 2-16-9-9m66 1q-4 6 0 11 4 4 6-2l1-4 1-4c1-5-5-6-8-1m93 5c-5 6-4 14 2 14 2 0 8-11 8-14q-2-6-10 0m-60 4c-5 3-3 9 4 9q11 1 7 19c-2 9-3 9-8 11q-5 1-7 3l-4 2q-3 0-4 8 0 6-6 14l-3 7q-2 11-13 15c-6 1-7 3-6 15 0 14-1 16-7 16q-8 0-8 7 2 10 11 3l4-3q7 0 7-13-1-13 9-19 7-5 8-12 1-10 12-10l5-1 2-4 1-4 1-2 5-17q-1-6 4-8a27 27 0 0 0 12-12q3-3-1-7l-3-5q-2-7-11-8l-7-3q-1-3-4-1m130 1c-3 1 0 6 4 6q3 1 2-3-1-5-6-3m162 7q-4 3-6 7l-2 6q-2 7 4 8 5 0 3 6-4 7-5 18-1 10-4 9a4 4 0 0 0 0 7l4 2q10 7 10-7c-1-19 0-25 6-31q6-7 0-11-6-2-5-6l2-6q1-9-7-2m153 3q-3 3-1 7l1 6c0 5 0 5-6 11l-8 7q-6 0-6 12l1 9h10v-5q2-15 13-21c5-3 6-4 6-13 0-7 0-8-3-11q-5-4-7-2m-84 3q-10 2-10 11l-1 6c-3 7-2 18 2 21 6 4 6 18 0 24l-1 6q-3 11-6-1c-1-8-13-16-19-12v4l4 2c4 0 13 15 13 22q1 5 8 7 7 0 7-10v-9c1-4 9-13 11-13l1-3c0-3 3-10 4-11l1-2q0-4-5-1c-3 2-10-3-12-8q-4-12 10-22c2-1 5-8 4-10s-2-2-11-1m-219 2-3 1v7l1 6-5 1-7 6-5 4q-6 2-3 14 0 4 4 3 8 2-3 6-7 4-1 9c5 3 6 2 11-3l4-4 1-8c0-9 0-9 5-16q5-7 4-12l1-4c1 0 4-6 4-9q1-6-8-1m358 3-9 2q-13 1-5 10 4 8 9 3c8-6 9-7 9-12v-5zm-247 2-2 6q0 7-8 10-9 4-9 10 1 10 11 3 3-5 8-4c7 0 7 0 8-9l2-9q5-9-4-9-5-1-6 2m-468 8-5 2v8l-2 11c-2 4 4 8 8 5l1-7c0-5 2-14 4-18q3-5-6-1m-47 1c-3 3-3 3-3 13q0 9 1 8 0-9 8-8c11 0 14-8 5-10l-4-3q-3-4-7 0m428 4-1 6-2 12q-2 13 7 5 2-3 7-2h6c1-1-2-7-3-7q-7-1-7-8-1-10-7-6m154 0c-1 1 1 14 2 17q3 4 7 1l2-15c-1-3-10-5-11-3m65 8c-2 2-5 11-3 14 3 3 13-1 13-7q-1-12-10-7m-569 2-7 5c-8 4-12 12-7 16 3 3 16-3 16-7l3-8q5-12-5-6m648 0 2 6c4 6 4 6 0 15q-4 9-6 9-3 0-3 5-1 7-6 11-2 2-2 6l1 11q1 11 6 9 3-1 2-6c0-9 1-11 7-17 5-5 6-6 7-14q2-13 12-15 6-1 8-8 3-5-8-5l-7-3c-4-6-11-9-13-4m-278 14-1 10c1 8 1 7-7 11q-5 3-10 1-12-3-7 8 2 3-6 8t-12 1q-8-3-6 8c3 5 3 6-3 12q-12 14-17 8-4-5-7-1-4 3 3 10l4 8 2 2c4 4 14 0 14-5q0-3 6-8l9-13 4-7q6-12 13-10 5 1 7-3 7-5 13-5c6 0 7-2 7-14l2-13v-7q-3-3-8-1m127 5c-8 10-9 11-3 23q2 4 4-3l6-11 1-7q2-12-8-2m-280-2q-3 2-1 10 1 15 7 8c2-1 3-14 1-18-1-3-6-3-7 0m229 1-2 3-3 3-5 6q-4 6-8 8c-3 0 2 11 6 12 2 0 11-7 11-9l3-6c5-9 3-24-2-17m-166 1q-3 2 0 5c3 2 12 2 13 0q3-2-3-5-7-3-10 0m55 5c-2 6 3 12 6 8l2-4c0-6-7-10-8-4m262-1-2 7c-1 9-7 17-11 15q-11-3-12 8-1 5 6 2 9-2 19 5 4 2 2 6c-1 10-10 24-14 24-2 0-3 6-2 10q4 12 9 0 1-5 5-8 8-5 9-13c3-7 3-19 1-21q-3-5-3-22-1-19-7-13m-353 12-3 5-5 5c-12 10-16 34-6 35q5 2 6-12c1-10 3-13 12-18q13-7 7-12-5-8-11-3m441 4-10 15c-4 7-5 35-1 38l2 2 2-2q6-4 2-12-6-16 5-22l3-1v-10c0-11 0-11-3-8m-481 2-5 3c-4 0-9 7-9 12q1 4 5 5c2 0 12-10 16-15 5-7 0-11-7-5m261 9q-4 3-9 2-10-1-3 8 7 12 17 1 7-7 2-12l-3-2zm-73 3-1 7-3 10q-2 6 1 7l2 3 3-4q7-8 9-8l2-2q0-4-4-5-4 0-4-5-1-7-5-3m-110 2-1 7q0 10-5 10c-3 0-12 5-13 8q0 4-10 4-12-1-18 13-3 7-7 10-10 8 1 9 4 0 7 3c4 5 10 3 8-3-4-13 9-28 18-21q6 6 10-5a31 31 0 0 1 8-14l3-5q2 0 3-4 2-6 8-3 7 1 8-8v-3h-9c-8 0-9 0-11 2m221 3-1 4 2 9 3 11 2 7 3 5q6 5 4-8l-1-12-3-9-3-6q-2-3-6-1m-88 3q-5 3-4 8l3 6q2 9 9 4 6-2 5-6c0-8-7-14-13-12m146 2-3 6q0 3-4 5-3 3-3 5-1 3 3 3c7 2 10 11 5 17q-2 5 1 6l3-4 3-6c3-2 3-9 1-12l-1-8q1-20-5-12m-381 1a3 3 0 1 0 6 3q-1-7-6-3m-247 6q-2 2 1 15l-2 6q-5 7-2 7l2 1c1 3 7-1 8-6l1-5c2-1 1-14 0-17q-4-3-8-1m420 9v27l4 4q4 3 4 7 0 8 5 9c2 0 2 0 2-9q-1-16 9-21 10-8-2-6-7 3-9-6-1-4-4-5zm296 2c-1 2 0 7 2 7l4 3q6 7 10-2 5-10-7-9zm-213 6 2 11q1 10 7 10 5-1 9 6l4 4v-6l-1-4c0-5-3-13-5-13q-4-1-5-7 0-7-7-7h-4zm57-5q-6 3-10 2-11-3-8 7c6 9 6 10 6 21q0 14 4 21a13 13 0 0 1 2 17l-5 8-5 11c-6 16-24 17-26 1-1-7 7-19 13-19q4-1 5-5l1-2 1-5q-1-6-6 0-3 4-6 4c-12 6-21 26-14 35 3 4 1 17-3 19q-2 0-5 3l-6 4-5 5-3 6q-2 3-3 11-2 17-14 17-6 2-3 6 13 13 16 2l2-2 1-2 2-4 1-5 8-16q5-2 9 2 8 5 6-9c-3-6-2-8 1-14 4-8 5-10 12-10q5-1 8 3l4 3 3-9 2-7q9-17 17-3 4 8 7 6v-13l-2-7-2-6v-9l3-17q1-3-3-3-8-2-8-10c0-9 6-26 10-29 6-5 0-12-7-8m-293 2q-4 3 1 10l3 5 1 3v3l-2 6c0 4-11 15-13 15l-7-4-7-5c-3 0-9 9-10 16q-2 15-9 17-6 1-11 12l-4 7-4 8c-5 11-13 21-18 21q-4 1-5 7l-11 14q-8 11 1 12 6 1 6-5 4-11 12-6 6 4 8-5 2-12 10-16 7-3 6-12c0-10 6-21 12-21 4 0 9-8 9-16q1-6 9-11 5-2 5-4 5-7 8 4l2 8 1 7 1 4q5 2 5-10c0-9 2-15 9-26q6-9 5-12l-2-14-2-10q-3-5-9-2m339 1-1 3c0 3-4 9-6 10-4 2-2 7 4 7q9 0 9-13-1-11-6-7m-364 3q-2 2-9 1-12-1-11 9 0 12 6 13 4 3 5-5 1-13 12-12 9 0 10-6zm213 0c-3 4 3 12 7 9v-2l-1-3q-1-6-6-4m13 9q-5 2-1 12 0 6 5 5 17 2 9-9l-4-6q-2-6-9-2m-325 1q-2 4 1 8c4 4 8-3 5-8q-2-4-6 0m543 2-6 8q-5 9-11 9-11 2-2 18 8 9-3 19-7 8-3 15c2 4-4 18-8 18q-3 1-5 9l-2 8c-3 4-3 6-3 17q-1 21 6 19h4v-9c1-11 1-12 5-17q4-3 2-7v-15l6-4q9-8 5-13l-2-14 7-10c6-7 6-9 3-20q-2-10 12-18 7-3 7-11v-4h-5zm-486 4q-1 5-9 6-7 0-3 9 3 8 1 12-11 21 0 21c3 0 3 0 7-8q4-9 4-15l4-10c4-7 3-18-2-18zm384 2-2 8-3 7q-3 6 2 7l7-10c4-8 4-8 4-11 3-7-6-9-8-1m33 1-1 5-2 7q-5 8 1 11 2 2 7-5 10-7 3-10l-4-5q-2-5-4-3m-496 2q-2 1-2 9 0 9-4 19c-5 8 1 11 8 4l5-4c5 0 7-10 3-15l-2-7q-2-10-8-6m606 0-1 5 2 7q1 6 7 8 12 4 9-8-3-13-8-12l-3-1q-3-2-6 1m-371 3q-3 3-10 3l-6 1-3 5q-7 14 6 8 4-3 10-3 5 1 9-4c8-9 3-18-6-10m-198 1q-2 2-2 11l-1 11c-2 3 4 7 7 5s3-25 1-27zm341 0q-12 1-6 7c5 8 4 10-5 27q-4 8-9 9-12 2-5 12l5 8c5 9 12 5 8-4q-3-10 7-19l4-5q3-7 6-9 7-4 3-9l-1-9q-1-8-4-9zm-105 1c-2 2-1 10 1 14q3 5 10 4c2-1 3-10 1-13-2-2-11-6-12-5m-380 9-7 5-3 5q0 4-5 13-7 12-4 12l5 4c7 6 14 3 11-7q-2-13 12-23c5-3 3-13-2-13zm442 4-2 1-6 3c-10 3-14 13-6 16q6 3 14-4 11-11 5-15-3-3-5-1m139 3q-2 0-2 9l-1 8-1 8c0 6 0 6-4 11-6 6-6 9-1 18q3 8 8 7 8 0 9 11l4 10q2 7-1 15t4 13q8 5 9-1l-2-25c-2-3-1-11 0-15q5-12-3-6-5 4-10-3l-5-4q-6-1-7-6c0-4 4-13 7-15q6-7 2-18l-2-16q-1-2-4-1m120 0-4 8-3 5-6 11-2 6q-3 4-3 7-1 8-10 11-10 3-5 9l1 2c0 5 6 6 9 2l4-3 8-2 5-1-3-4c-4-7-2-17 4-19q5 1 5-10l2-10c4-9 3-16-2-12m-680 4q-3 4 3 10 9 9 11-2c0-7-11-13-14-8m718 4-3 6q-2 12-9 15l-4 2v7c0 9-6 20-11 21q-6 3 0 5t8 6l2 2q6 2 5-7c-1-8 0-11 4-18l7-8 1-3 1-1 1-15c0-13-1-14-2-12m-374 2-7 6q-8 4-15 13-3 5-7 6l-8 4-8 5q-11 2-8 14 0 15 4 14 6 0 7-9t9-16q6-6 13-1 10 8 10-6 3-16 15-18 8-1 3-11-3-7-8-1m-234 2q-14 20-21 17c-8-1-7 6 2 12q10 9 13-4l3-8 4-7 3-6q4-5 2-6-2-4-6 2m183-1q-4 4 0 7 6 5 7-3 0-11-7-4m286-2-5 3q-6 3-2 6 5 3 9-3 1-10-2-6m32 1c-5 0-11 7-10 10l-1 6-2 4-4 5c-5 5-5 8-2 17q2 7 6 6 3 0 2-4c-1-18-1-18 4-22l7-6q6-3 6-12 0-6-6-4m-357 7-5 5c-12 5-18 17-15 25q2 3 3 13c2 12 3 13 7 13 5 0 6-13 1-24l-2-8c0-7 10-16 15-14 2 0 6 7 6 10 0 6 8 10 11 4a20 20 0 0 0-4-16l-5-4-5-4q-4-6-7 0m139 1-3 11q-1 6-6 8-5 1-3 4c8 5 19-4 19-16q-1-11-7-7m-368 3q-5 4 1 13 8 18-5 28a5 5 0 0 1-8 1l-4-2q-7-5-4 4l2 5a5 5 0 0 0 7 4l6-2 7-2q4 1 8-11l6-12q9-14-2-20l-6-5q-4-6-8-1m112 4q-6 4-7 12 0 9-10 14l-8 7q-8 12-15 14-8 4-7 13c1 5 1 4-5 14l-7 8q-6 5-5 8l1 10q1 10 6 10 5-1 5-15 1-6 3-8l6-7q6-9 11-9 6 0 6-15c0-8 0-9 3-13a30 30 0 0 1 16-11l4-1q7-1 6-10 0-8 3-14 4-13-6-7m446 1c-2 1-1 7 1 7q3 1 4-5-1-5-5-2m-219 13c-4 2-10 11-12 17q-2 6-8 9l-4 6-3 7-2 8q0 8-4 8-5 1-6 7-3 10-17 10-8 1-7 3c-1 7 11 9 19 3q5-4 9-2 7 0 8-4l2-3q3-2 2-8 0-6 5-18 0-3 4-5 8-5 12-17c3-9 5-11 10-14q6-6 0-9c-3-1-3-1-8 2m55 2-1 6-1 5q-3 4 3 10 8 5 5-7v-9c2-6-3-10-6-5m-212 4-1 12q1 8-2 13c-3 6 3 8 8 3 3-4 4-25 2-30q-4-3-7 2m-207-1c-2 2-1 8 1 9q2 2 4-1c2-5-1-11-5-8m-20 5a28 28 0 0 1-12 12q-9 4-9 15l-1 9q-3 11 2 11c3 2 3 2 8-3q3-2 4-9c0-7 0-8 7-17 5-7 9-16 9-19q-1-7-8 1m422 10q-2 5 1 5 5 0 5-5c0-2-5-3-6 0m-335 1c-2 1-6 8-6 11q0 3-11 8c-9 5-9 5-9 10q0 7 7 7 9 0 10-4 3-11 13-17 12-5 3-13-2-4-7-2m459 5-3 5c-1 4-3 6-14 15l-2 3a33 33 0 0 1-17 13q-6 3-4 9 4 6 10-2l9-8q6-2 9-7 7-9 13-10 7 1 5-9-1-14-6-9m-101 4c-1 3 0 14 1 16q2 2 9-3 18-9 1-13c-10-2-10-2-11 0m-160 5q-6 5-1 8c2 1 10-1 10-3l1-2q-2-4-5-6zm-72 2-3 9q0 11-5 11l-5 4-7 4q-7 0-7 6-2 8-7 7c-6 0-8 7-3 11q2 2 7 2c6-1 7-2 11-9q2-5 5-7c10-8 12-10 15-16 3-8 7-20 6-22-1-3-6-2-7 0m87 3-1 6q6 25-13 28-6 1-7 10 1 3-7 7-9 7-15 15c-6 9-20-3-20-17v-7l7-9 7-11c1-2 1-7-1-7l-4-2q-7-6-8 4l-1 4-1 2-6 11c-6 9-6 10-6 17v8l4 2q21 9 7 23-6 6-4 8l1 6c0 5 0 5 6 8q8 6 6 0c-5-12 3-27 15-26q9 1 9-9 4-13 15-15 10 0 16-14l6-12c5-7 6-10 7-20v-9l-4-1q-6-4-8 0m369 0q-7 4-3 9c3 4 15-3 14-8q-2-5-11-1m-271 0q-2 2-6 14-1 6-4 10c-3 5-3 6 0 11q3 4 1 10-2 13 8 4c6-5 6-5 3-11q-3-5-1-10l4-17q2-6 8-2l6 2c4 0 5-10 1-10-6-2-19-2-20-1m160 1c-4 1-4 8 1 11q8 3 9-4 0-10-10-7m129 4q-2 1-2 4l2 6c1 5-2 14-5 17q-4 5-13 0l-5-2-3 3-6 2q-4 0-3 7 5 13 9 7 3-4 11 0 16 8 16-11c1-7 5-16 9-19a10 10 0 0 0 2-15q-9-2-12 1m-671 7q-13 13-1 14c13 2 17 4 24 11q4 3 8 3a11 11 0 0 1 9 17l-1 4-2 3q-1 5-9 8-9 2-2 9l7 5q5 5 7 3l2-10c0-10 1-13 6-18q10-13 1-22l-7-7q-4-7-13-4-2 1-9-2-10-4-10-13 0-13-10-1m698-1a4 4 0 1 0 6 0c0-3-5-3-6 0m-288 3q-1 4 1 5 4-1 3 10c-1 11-7 19-11 16q-6-2-10 1-3 1 1 7 4 12 10 3l6-4c2 0 8-5 9-8l4-7c4-4 4-5 4-12v-7h-3l-3 1q-4 3-6-2 0-3-2-3zm299 12-3 4-1 2-3 5c-3 5-10 13-14 15q-3 1-3 3l-2 8q-2 18 9 11 4-2 2-7-1-10 9-18 9-8 12-5 9 3 2-14-3-9-8-4m-148 2-9 8-6 5v8q0 15 6 14 5-1 7-9 0-9 5-13 9-9 4-13-2-3-7 0m-435 0-1 5c-2 8-3 10-10 18l-4 5 1 5c1 7 2 21 1 23l-3 3q-3 3-6-1t-5-2q-5 0 1 8c5 9 3 20-5 25-14 8-14 8-15 17l-2 6-1 2c0 2-6 8-11 10q-6 2-3 8c1 3 15 3 15 0l4-7q6-6 7-16c1-5 9-12 12-12a17 17 0 0 0 12-22l2-8c7-12 7-10 5-18-3-11-2-14 5-20 4-5 5-6 6-12v-16c0-2-5-3-5-1m394 2q-5 3-2 9c5 7 1 16-8 16l-5 1c-1 1 1 6 2 6 4 0 10 11 10 16q-2 4 1 6l5 5 3 3v9l-1 11q-1 5 3 3l2-3 4-6a20 20 0 0 0 1-27l-2-1c-8 0-13-21-7-31 2-2 1-14-1-16q-2-3-5-1m-44 12q-4 3 1 14 7 16 10-4c1-6-7-13-11-10m124 2-3 4-1 6-2 7q-2 7-11 10c-6 2-6 1-7 9q-4 20-14 24c-4 1-10 6-10 9l-2 7q0 4-3 7c-2 2-2 4-1 14q1 6 4 11l4 8c1 2 19 3 19 1q-1-4-6-6-7-2-9-10l-2-9c-4-14 4-26 12-23q5 3 6 11c0 6 6 13 9 12 2-1 2-11 0-12q-5-4-5-14-1-9 10-13l5-1v-7l-1-8q-1-8 10-13l7-6-4-17q-1-6-5-1m-619 0-6 9-1 9c-1 12 5 14 9 5q4-12 14-4 4 3 6 1c4-2-1-9-8-13l-6-5q-3-5-8-2m313 14-4 7-2 9c-4 9-3 18 2 17l6-2 5-1v-8c0-7 0-8 3-13l3-5-2-4q-5-6-11 0m35 2c-5 2-4 9 2 9 5 0 9-7 5-10q-3-2-7 1m15 0c-2 2-2 9-1 11l4 9 1 6-2 4-5 6q-3 4 5 7 8 4 9-14 1-9 3-13c4-6 4-6-1-9l-5-5q-3-6-8-2m291 1q-7 2-9 6l-2 4q-3 4 5 3l8 1c5 3 12 3 12 0s-2-12-4-13c-1-2-7-2-10-1m-210 4q-2 4 6 12 9 6 8 17 4 14 7 0c1-5 6-15 8-15s1-8-3-12h-9q-9 0-10-2c-1-2-6-2-7 0m-243 1q-5 2 1 9l2 12q0 10 5 7 3-3 2-23-1-10-10-5m-36 6q-5 0-8 3l-7 4c-7 3-4 10 6 11q4 3 6-4 4-8 7 0 3 6-2 11-4 3-3 10 0 13-11 17l-7 4-1 4 2 7q0 9 8 3l4-3q6-1 7-7c0-5 3-14 5-16q8-8 19 13 7 16 7-14c1-14 1-15-4-12-4 2-10 1-10-1l-1-1c-2 0-7-10-7-12q0-4 5-12l2-4q-3-3-17-1m556 0q-1 1 2 7 3 4 1 10-1 6 3 9c8 11 2 31-9 31q-7 0-4 10l2 11c0 8 5 8 7-1q2-10 8-14c8-7 9-8 9-11l-2-10c-1-7-1-19 1-21 3-4 1-12-3-12l-4-3q-8-9-11-6m-321 2q-3 3 0 7a28 28 0 0 1-1 19q0 5-10 10-4 2-6 5-7 13-14 12-6 0-7 7l-4 9q-3 7-8 6a4 4 0 0 0-4 5l3 4q8 9 12 0 8-19 16-19 8-1 9-8 1-11 15-15l5-1v-6q0-9 8-16 7-8 1-11l-3-5c0-4-9-7-12-3m95 2q-3 2-1 5l2 7q0 3 3 5l2 3 4-2q7-3 7-11 2-8-9-8-6-2-8 1m-406 6-4 2-5 5-10 7-5 2v5q2 12-6 19c-9 9-9 11-8 14 4 8 4 10 4 16l-2 8q-1 3 5 2h6v-17c0-12 1-15 8-21q5-3 6-7c2-13 2-15 6-19l6-4q7 0 7-8 0-9-8-4m582 1c-4 8 6 18 12 13q6-4 0-10l-3-4c0-2-8-1-9 1m25 4q0 3 3 4t3 7l2 8q1 5-6 9-9 6 2 11 6 1 7-7c5-23 4-26-4-31l-2-3-2-1q-4-1-3 3m-669 0-4 3q-8 5-15 5a12 12 0 0 0-11 7q-4 4 2 9 5 3 9-2 5-8 13-2 7 5 8-3l2-9q5-12-4-8m268 3-4 5a40 40 0 0 1-14 13l-2 2 4 1q4 3 7 1 7-5 11 4 4 8 6 5c1-2 0-8-1-10l-1-12q0-14-6-9m-74 3q-4 3-1 10 4 9 9 4c5-4-3-18-8-14m107 6c3 19 2 21-6 21-9 0-19 9-15 12q3 3 7 1c2-2 8-2 10-1q5 6 10-2c3-4 3-5 3-12q-1-7 3-13c4-8 3-9-6-11h-6zm103-3q-4 4-2 6l1 4c0 2 6 8 10 11q7 2 8-5l-4-6-4-6c0-5-6-8-9-4m207 4q-4 4-4 12c0 10-9 20-18 20q-8 1 0 12c2 4 3 15 1 17q-2 1 4 1h6v-7q0-15 8-16 7-1 8-13 1-15 13-10c7 2 18 2 18-1q0-5-5-5-3 0-5-3-6-7-10-6l-7-1q-4-3-9 0m-118 3v11c-1 12-1 14-9 19q-10 7-1 12l5 6c5 10 12 7 8-3-5-11 1-21 10-16q6 4 7-5 2-8-6-9-6-1-10-10-3-8-4-5m-50 3c-4 0-2 5 2 7l4 3v12c0 11 0 14 4 21q3 8-1 11-5 3 6 2h8l4-8q7-15 0-13-12 5-14-8-1-7 7-13 6-3 5-9 0-7-4-4c-4 3-14 3-15 1q-3-3-6-2M8 463l-5 2c-4 0-5 7 0 9q7 3 10-3 2-12-5-8m283 5-1 5-5 8-7 12-3 6h-7c-8 0-8 0-10 5q-6 9 5 8l6-1c0-2 5-10 7-10l3 2q7 7 8-2l3-10 4-11q1-4 7-9l5-5h-4c-8-2-9-1-11 2m415 5c-4 5-1 11 3 10 4 0 6-6 4-10-1-3-6-2-7 0m-461 4-9 6q-14 6-10 18l2 7v4h9v-5q-1-17 10-18 7 2 5-9 0-11-7-3m-192 3-4 5q-5 7-11 3-7-5-12 1l-2 2c-5 0-8 10-4 13q2 4 8-1 4-4 10-2c6 0 17-5 17-10l3-6 3-5q-3-4-8 0m394 4-6 2c-3 0-8 11-6 13 2 1 7 8 7 11q-1 2 4 2h4v-4q1-11 9-15 4-3 0-8-5-4-12-1m25 0q-3 2-1 7l2 13c1 8 1 8 4 8h3v-22c2-8-4-11-8-6m225 9-1 5c0 2-7 6-10 7q-4 0-4 4l-1 3h8c8 0 8 0 11-3q5-5 2-7v-8l1-2q-2-4-6 1m-385 1-1 10v8h5c9 0 13-7 7-11l-3-4q-2-7-8-3m400 6q-7 5-2 10c3 3 15 3 13 0l-2-4q-2-7-5-8zm-355 1q-4 3-5 10l5 1c5 0 6 0 9-8q1-8-9-3m218 2-2 3-2 3-3 3h8q9 1 8-2c3-6-4-12-9-7m-374 2q-4 7 6 7 8 2 2-6-6-7-8-1m-39 0-4 4-2 3h16v-4q0-4-4-4zm255 0q-4 6 3 7 4 1 3-3-1-5-3-5z"
        mask="url(#16282281824-posters-1720553718869-horizontal-mask)" itemprop="bold" fill-opacity="0.90"
        fill-rule="evenodd" stroke="none" fill="url(#16282281824-posters-1720553718869-vertical-bold)"></path>
    </pattern>
    <rect id="16282281824-posters-1720553718869-pattern-render" fill="url(#16282281824-posters-1720553718869-pattern)"
      width="100%" height="100%"></rect>
  </defs>
  <radialGradient id="lightbar" cx="50%" cy="200%" fy="0" r="201%">
    <stop offset="0%" style="stop-color: rgb(255, 255, 255); stop-opacity: 0.1;"></stop>
    <stop offset="10%" style="stop-color: rgb(0, 0, 0); stop-opacity: 0.1;"></stop>
    <stop offset="30%" style="stop-color: rgb(0, 0, 0); stop-opacity: 0.3;"></stop>
    <stop offset="90%" style="stop-color: rgb(0, 0, 0); stop-opacity: 0.55;"></stop>
    <stop offset="100%" style="stop-color: rgb(0, 0, 0); stop-opacity: 0.6;"></stop>
  </radialGradient>
  <g class="radial">
    <radialGradient id="16282281824-posters-1720553718869-radial" gradientUnits="userSpaceOnUse">
      <stop itemprop="radial" stop-color="#b2b0ae" offset="0%"></stop>
      <stop itemprop="radial" stop-color="#a3a19f" offset="15%"></stop>
      <stop itemprop="radial" stop-color="#a8a6a4" offset="30%"></stop>
      <stop itemprop="radial" stop-color="#adaba9" offset="45%"></stop>
      <stop itemprop="radial" stop-color="#a8a7a4" offset="60%"></stop>
      <stop itemprop="radial" stop-color="#a5a4a1" offset="75%"></stop>
      <stop itemprop="radial" stop-color="#a8a6a4" offset="90%"></stop>
    </radialGradient>
    <radialGradient id="16282281824-posters-1720553718869-radial-background" gradientUnits="userSpaceOnUse">
      <stop stop-color="#d3cec5" offset="0%"></stop>
      <stop stop-color="#d3cfc5" offset="15%"></stop>
      <stop stop-color="#d3cec5" offset="30%"></stop>
      <stop stop-color="#d3cec5" offset="45%"></stop>
      <stop stop-color="#d3cfc5" offset="60%"></stop>
      <stop stop-color="#d3cec5" offset="75%"></stop>
      <stop stop-color="#d3cec5" offset="90%"></stop>
    </radialGradient>
    <radialGradient id="16282281824-posters-1720553718869-radial-light" gradientUnits="userSpaceOnUse">
      <stop stop-color="#9b9a97" offset="0%"></stop>
      <stop stop-color="#9b9a97" offset="15%"></stop>
      <stop stop-color="#9b9a97" offset="30%"></stop>
      <stop stop-color="#9b9997" offset="45%"></stop>
      <stop stop-color="#9b9a97" offset="60%"></stop>
      <stop stop-color="#9b9997" offset="75%"></stop>
      <stop stop-color="#9b9a97" offset="90%"></stop>
    </radialGradient>
    <radialGradient id="16282281824-posters-1720553718869-radial-regular" gradientUnits="userSpaceOnUse">
      <stop stop-color="#82807d" offset="0%"></stop>
      <stop stop-color="#82817d" offset="15%"></stop>
      <stop stop-color="#82807d" offset="30%"></stop>
      <stop stop-color="#82807d" offset="45%"></stop>
      <stop stop-color="#82817d" offset="60%"></stop>
      <stop stop-color="#82807d" offset="75%"></stop>
      <stop stop-color="#82807d" offset="90%"></stop>
    </radialGradient>
    <radialGradient id="16282281824-posters-1720553718869-radial-medium" gradientUnits="userSpaceOnUse">
      <stop stop-color="#514f4d" offset="0%"></stop>
      <stop stop-color="#51504d" offset="15%"></stop>
      <stop stop-color="#514f4d" offset="30%"></stop>
      <stop stop-color="#514f4d" offset="45%"></stop>
      <stop stop-color="#51504d" offset="60%"></stop>
      <stop stop-color="#514f4d" offset="75%"></stop>
      <stop stop-color="#514f4d" offset="90%"></stop>
    </radialGradient>
    <radialGradient id="16282281824-posters-1720553718869-radial-bold" gradientUnits="userSpaceOnUse">
      <stop stop-color="#2f2e2d" offset="0%"></stop>
      <stop stop-color="#2f2e2d" offset="15%"></stop>
      <stop stop-color="#2f2e2d" offset="30%"></stop>
      <stop stop-color="#2f2e2d" offset="45%"></stop>
      <stop stop-color="#2f2e2d" offset="60%"></stop>
      <stop stop-color="#2f2e2d" offset="75%"></stop>
      <stop stop-color="#2f2e2d" offset="90%"></stop>
    </radialGradient>
  </g>
  <g class="vertical">
    <linearGradient id="16282281824-posters-1720553718869-vertical" gradientUnits="userSpaceOnUse" x1="0" x2="0" y1="0"
      y2="100%">
      <stop itemprop="vertical" stop-color="#b2b0ae" offset="0%"></stop>
      <stop itemprop="vertical" stop-color="#a3a19f" offset="15%"></stop>
      <stop itemprop="vertical" stop-color="#a8a6a4" offset="30%"></stop>
      <stop itemprop="vertical" stop-color="#adaba9" offset="45%"></stop>
      <stop itemprop="vertical" stop-color="#a5a4a1" offset="60%"></stop>
      <stop itemprop="vertical" stop-color="#a5a4a1" offset="75%"></stop>
      <stop itemprop="vertical" stop-color="#a8a7a4" offset="90%"></stop>
    </linearGradient>
    <linearGradient id="16282281824-posters-1720553718869-vertical-background" gradientUnits="userSpaceOnUse" x1="0"
      x2="0" y1="0" y2="100%">
      <stop stop-color="#cdcccb" offset="0%"></stop>
      <stop stop-color="#cdcccb" offset="15%"></stop>
      <stop stop-color="#cdcccb" offset="30%"></stop>
      <stop stop-color="#cdcccb" offset="45%"></stop>
      <stop stop-color="#cdcccb" offset="60%"></stop>
      <stop stop-color="#cdcccb" offset="75%"></stop>
      <stop stop-color="#cdcccb" offset="90%"></stop>
    </linearGradient>
    <linearGradient id="16282281824-posters-1720553718869-vertical-light" gradientUnits="userSpaceOnUse" x1="0" x2="0"
      y1="0" y2="100%">
      <stop stop-color="#ae9f84" offset="0%"></stop>
      <stop stop-color="#aea284" offset="15%"></stop>
      <stop stop-color="#ae9f84" offset="30%"></stop>
      <stop stop-color="#ae9e84" offset="45%"></stop>
      <stop stop-color="#ae9f84" offset="60%"></stop>
      <stop stop-color="#ae9e84" offset="75%"></stop>
      <stop stop-color="#aea284" offset="90%"></stop>
    </linearGradient>
    <linearGradient id="16282281824-posters-1720553718869-vertical-regular" gradientUnits="userSpaceOnUse" x1="0" x2="0"
      y1="0" y2="100%">
      <stop stop-color="#82807d" offset="0%"></stop>
      <stop stop-color="#82817d" offset="15%"></stop>
      <stop stop-color="#82807d" offset="30%"></stop>
      <stop stop-color="#82807d" offset="45%"></stop>
      <stop stop-color="#82807d" offset="60%"></stop>
      <stop stop-color="#82807d" offset="75%"></stop>
      <stop stop-color="#82817d" offset="90%"></stop>
    </linearGradient>
    <linearGradient id="16282281824-posters-1720553718869-vertical-medium" gradientUnits="userSpaceOnUse" x1="0" x2="0"
      y1="0" y2="100%">
      <stop stop-color="#514f4d" offset="0%"></stop>
      <stop stop-color="#51504d" offset="15%"></stop>
      <stop stop-color="#514f4d" offset="30%"></stop>
      <stop stop-color="#514f4d" offset="45%"></stop>
      <stop stop-color="#514f4d" offset="60%"></stop>
      <stop stop-color="#514f4d" offset="75%"></stop>
      <stop stop-color="#51504d" offset="90%"></stop>
    </linearGradient>
    <linearGradient id="16282281824-posters-1720553718869-vertical-bold" x1="0" x2="0" y1="0" y2="100%">
      <stop stop-color="#2f2e2d" offset="0%"></stop>
      <stop stop-color="#2f2e2d" offset="15%"></stop>
      <stop stop-color="#2f2e2d" offset="30%"></stop>
      <stop stop-color="#2f2e2d" offset="45%"></stop>
      <stop stop-color="#2f2e2d" offset="60%"></stop>
      <stop stop-color="#2f2e2d" offset="75%"></stop>
      <stop stop-color="#2f2e2d" offset="90%"></stop>
    </linearGradient>
  </g>
  <g class="horizontal">
    <linearGradient id="16282281824-posters-1720553718869-horizontal" x1="0" x2="100%" y1="0" y2="0"
      gradientUnits="userSpaceOnUse">
      <stop itemprop="horizontal" stop-color="#aaa9a7" offset="0%"></stop>
      <stop itemprop="horizontal" stop-color="#a8a6a4" offset="15%"></stop>
      <stop itemprop="horizontal" stop-color="#aaa9a7" offset="30%"></stop>
      <stop itemprop="horizontal" stop-color="#a5a4a1" offset="45%"></stop>
      <stop itemprop="horizontal" stop-color="#a5a4a1" offset="60%"></stop>
      <stop itemprop="horizontal" stop-color="#a8a6a4" offset="75%"></stop>
      <stop itemprop="horizontal" stop-color="#adaba9" offset="90%"></stop>
    </linearGradient>
    <linearGradient id="16282281824-posters-1720553718869-horizontal-background" gradientUnits="userSpaceOnUse" x1="0"
      x2="100%" y1="0" y2="0">
      <stop stop-color="#cdcdcb" offset="0%"></stop>
      <stop stop-color="#cdcccb" offset="15%"></stop>
      <stop stop-color="#cdcccb" offset="30%"></stop>
      <stop stop-color="#cdcccb" offset="45%"></stop>
      <stop stop-color="#cdcccb" offset="60%"></stop>
      <stop stop-color="#cdcccb" offset="75%"></stop>
      <stop stop-color="#cdcccb" offset="90%"></stop>
    </linearGradient>
    <linearGradient id="16282281824-posters-1720553718869-horizontal-light" gradientUnits="userSpaceOnUse" x1="0"
      x2="100%" y1="0" y2="0">
      <stop stop-color="#9b9a97" offset="0%"></stop>
      <stop stop-color="#9b9a97" offset="15%"></stop>
      <stop stop-color="#9b9a97" offset="30%"></stop>
      <stop stop-color="#9b9a97" offset="45%"></stop>
      <stop stop-color="#9b9a97" offset="60%"></stop>
      <stop stop-color="#9b9a97" offset="75%"></stop>
      <stop stop-color="#9b9997" offset="90%"></stop>
    </linearGradient>
    <linearGradient id="16282281824-posters-1720553718869-horizontal-regular" gradientUnits="userSpaceOnUse" x1="0"
      x2="100%" y1="0" y2="0">
      <stop stop-color="#968b69" offset="0%"></stop>
      <stop stop-color="#968669" offset="15%"></stop>
      <stop stop-color="#968969" offset="30%"></stop>
      <stop stop-color="#968969" offset="45%"></stop>
      <stop stop-color="#968969" offset="60%"></stop>
      <stop stop-color="#968669" offset="75%"></stop>
      <stop stop-color="#968569" offset="90%"></stop>
    </linearGradient>
    <linearGradient id="16282281824-posters-1720553718869-horizontal-medium" gradientUnits="userSpaceOnUse" x1="0"
      x2="100%" y1="0" y2="0">
      <stop stop-color="#5d5641" offset="0%"></stop>
      <stop stop-color="#5d5341" offset="15%"></stop>
      <stop stop-color="#5d5541" offset="30%"></stop>
      <stop stop-color="#5d5541" offset="45%"></stop>
      <stop stop-color="#5d5541" offset="60%"></stop>
      <stop stop-color="#5d5341" offset="75%"></stop>
      <stop stop-color="#5d5241" offset="90%"></stop>
    </linearGradient>
    <linearGradient id="16282281824-posters-1720553718869-horizontal-bold" gradientUnits="userSpaceOnUse" x1="0"
      x2="100%" y1="0" y2="0">
      <stop stop-color="#2f2e2d" offset="0%"></stop>
      <stop stop-color="#2f2e2d" offset="15%"></stop>
      <stop stop-color="#2f2e2d" offset="30%"></stop>
      <stop stop-color="#2f2e2d" offset="45%"></stop>
      <stop stop-color="#2f2e2d" offset="60%"></stop>
      <stop stop-color="#2f2e2d" offset="75%"></stop>
      <stop stop-color="#2f2e2d" offset="90%"></stop>
    </linearGradient>
  </g>
  <g class="masks">
    <mask id="16282281824-posters-1720553718869-pattern-mask" maskUnits="userSpaceOnUse"
      maskContentUnits="userSpaceOnUse">
      <pattern id="pattern" x="0" y="0" width=".0133" height=".0144" viewBox="0 0 23.07 40">
        <path
          d="M17.62 0l-6.07 10.5m2.74 4.76L8.22 4.75m-5.48 0h12.13M.01 0h23.07M6.07 20L0 9.5m2.74-4.75l-6.07 10.5m-5.48 0H3.33m8.2 4.75L0 .02-11.54 20m40.68 0L23.07 9.5m2.74-4.75l-6.06 10.5m-5.49 0H26.4M34.6 20L23.08.02 11.53 20m-5.46 0L0 30.51m2.74 4.75l-6.07-10.5m-5.48 0H3.33m8.2-4.75L0 40l-11.54-19.98zM17.6 40l-6.06-10.5m2.74-4.76L8.2 35.25m-5.48 0h12.13M0 40h23.07L11.54 20.01m17.6 0l-6.07 10.5m2.74 4.75l-6.06-10.5m-5.49 0H26.4M11.53 20h23.08L23.07 40"
          stroke-linecap="round" stroke-width="3.5" stroke="white"
          fill="url(#16282281824-posters-1720553718869-horizontal-background)"></path>
      </pattern>
      <rect width="100%" height="100%" fill="url(#pattern)"></rect>
    </mask>
    <mask id="16282281824-posters-1720553718869-horizontal-mask" maskUnits="userSpaceOnUse"
      maskContentUnits="userSpaceOnUse">
      <rect width="100%" height="100%" fill="url(#16282281824-posters-1720553718869-horizontal-background)"></rect>
    </mask>
    <mask id="16282281824-posters-1720553718869-radial-mask" maskUnits="userSpaceOnUse"
      maskContentUnits="userSpaceOnUse">
      <rect width="100%" height="100%" fill="url(#16282281824-posters-1720553718869-radial-background)"></rect>
    </mask>
    <mask id="16282281824-posters-1720553718869-vertical-mask" maskUnits="userSpaceOnUse"
      maskContentUnits="userSpaceOnUse">
      <rect width="100%" height="100%" fill="url(#16282281824-posters-1720553718869-vertical-background)"></rect>
    </mask>
  </g>
  <use href="#16282281824-posters-1720553718869-pattern-render"></use>
  <g>
    <use href="#16282281824-posters-1720553718869-background"></use>
    <use href="#16282281824-posters-1720553718869-light"></use>
    <use href="#16282281824-posters-1720553718869-regular"></use>
    <use href="#16282281824-posters-1720553718869-medium"></use>
    <use href="#16282281824-posters-1720553718869-bold"></use>
  </g>
  <g itemprop="animation">
    <animate href="#16282281824-posters-1720553718869-light" attributeName="stroke-opacity" repeatCount="indefinite"
      dur="5s" values="0.9;0.0;0.9"></animate>
    <animate href="#16282281824-posters-1720553718869-regular" attributeName="stroke-opacity" repeatCount="indefinite"
      dur="4s" values="0.9;0;0.9"></animate>
    <animate href="#16282281824-posters-1720553718869-medium" attributeName="stroke-opacity" repeatCount="indefinite"
      dur="5s" values="0.9;0;0.9"></animate>
    <animate href="#16282281824-posters-1720553718869-bold" attributeName="stroke-opacity" repeatCount="indefinite"
      dur="3s" values="0.9;0;0.9"></animate>
    <animate href="#16282281824-posters-1720553718869-regular" attributeName="fill-opacity" repeatCount="indefinite"
      dur="8s" values="0.9;0.75;0.95;0.8;0.9;"></animate>
    <animate href="#16282281824-posters-1720553718869-radial-background" attributeName="cx" repeatCount="indefinite"
      dur="34s" values="0%;33%;100%;0%;100%;0%;"></animate>
    <animate href="#16282281824-posters-1720553718869-radial-background" attributeName="cy" repeatCount="indefinite"
      dur="55s" values="0%;100%;33%;100%;66%;0%"></animate>
    <animate href="#16282281824-posters-1720553718869-vertical-light" attributeName="x1" repeatCount="indefinite"
      dur="55s" values="0%;33%;100%;0%;133%;0%;"></animate>
    <animate href="#16282281824-posters-1720553718869-vertical-light" attributeName="y1" repeatCount="indefinite"
      dur="86s" values="0%;100%;33%;100%;66%;0%"></animate>
    <animate href="#16282281824-posters-1720553718869-horizontal-regular" attributeName="x1" repeatCount="indefinite"
      dur="34s" values="0%;100%;66%;0%;33%;133%;0%"></animate>
    <animate href="#16282281824-posters-1720553718869-horizontal-regular" attributeName="y1" repeatCount="indefinite"
      dur="55s" values="0%;66%;100%;33%;100%;66%;0%"></animate>
    <animate href="#16282281824-posters-1720553718869-vertical-medium" attributeName="x1" repeatCount="indefinite"
      dur="34s" values="0%;100%;66%;0%;33%;133%;0%"></animate>
    <animate href="#16282281824-posters-1720553718869-vertical-medium" attributeName="y1" repeatCount="indefinite"
      dur="55s" values="0%;66%;100%;33%;100%;66%;0%"></animate>
    <animate href="#16282281824-posters-1720553718869-vertical-bold" attributeName="x1" repeatCount="indefinite"
      dur="34s" values="0%;100%;66%;0%;33%;133%;0%"></animate>
    <animate href="#16282281824-posters-1720553718869-vertical-bold" attributeName="y1" repeatCount="indefinite"
      dur="55s" values="0%;66%;100%;33%;100%;66%;0%"></animate>
  </g>
</svg>
