<svg id="16282281824-posters-1720558180037" itemscope="" itemtype="/posters"
  itemid="/+16282281824/posters/1720558180037" viewBox="0 0 769 512" preserveAspectRatio="xMidYMid meet" tabindex="0"
  class="animate landscape" xmlns="http://www.w3.org/2000/svg">
  <!---->
  <defs class="graphic">
    <pattern id="16282281824-posters-1720558180037-pattern" width="769" height="512" viewBox="0 0 769 512"
      patternUnits="userSpaceOnUse" preserveAspectRatio="xMidYMid meet">
      <rect itemprop="background" width="769" height="512" tabindex="-1"
        id="16282281824-posters-1720558180037-background" fill-opacity="1"
        fill="url(#16282281824-posters-1720558180037-radial-background)"></rect>
      <!---->
      <path id="16282281824-posters-1720558180037-light"
        d="M58 5c0 7 1 8 12 9q14 0 15-3 0-4-11-4-8 0-9-6l-3-1h-4zm66 0c0 8 1 8 14 9q13 1 13-2 5-5-9-5h-8l-1-4q0-4-5-3h-4zm69-2q1 7 3 10h21c5-1 1-6-5-6q-9 0-10-4c-1-4-9-5-9 0m68 3c0 7 1 8 11 8q13 0 12-3t-9-4q-6 0-7-5 0-2-3-2h-4zm68-1c0 7 2 9 15 9q11 0 11-2 2-3-7-5-11 0-11-4t-4-3h-4zm68 0c1 8 3 9 14 9l12-1q3-5-8-5-10 1-10-5 1-4-4-3h-4zm69-4q-3 5 2 11c4 4 22 4 22-1q1-2-9-3-8-1-8-6c0-2-5-3-7-1m66 4q0 7 3 9c2 2 19 1 21 0q6-4-6-6-9 1-9-5-1-4-5-3h-4zm70-1q-2 12 16 11c12 0 13-6 1-7q-8 1-9-5 0-4-4-3-5-1-4 4m67 2q0 8 5 9 25 3 21-5l-8-1q-10 0-10-6 1-4-4-3h-4zm70-3q1 8 4 11c2 2 19 1 20-1q2-3-8-4-11-1-10-8 2-1-3-1-4-1-3 3M0 9q1 7 13 4c9-1 7-6-3-6L2 6Q0 5 0 9m25 11c-2 3-3 19-1 22 2 6 27 7 27 1q0-3-10-3-12 2-10-10 0-11-4-12zm68 0c-3 2-4 22-1 25 4 4 26 2 26-2q1-3-10-3c-8 0-9 0-9-10l-1-9q-2-2-5-1m67 2c-2 3-2 15 0 20 3 6 25 7 25 1q0-3-11-3c-7 0-7 0-7-9q1-7-2-9c-3-2-2-3-5 0m270 2-1 11c0 13 4 15 22 12 9-1 4-6-6-6q-9 2-8-10c0-9-4-14-7-7m-66 0-1 10q-1 16 9 14l10-1q7 1 6-2 1-4-8-4-10 1-9-8-1-16-7-9m-136 1c-2 3-1 17 1 20s20 3 23 0q2-4-8-5-9 1-8-8l-1-7c-1-3-6-3-7 0m272 0q-2 3-2 10c0 12 1 13 18 12 10 0 8-6-1-6q-9 2-9-9-2-13-6-7m69 1c-3 3-3 18 0 20s14 2 19 1q8-4-6-6-7 0-7-7 0-13-6-8m68 0-1 7c-1 13 1 14 12 15 14 0 17-5 3-6q-9 0-7-6c0-9-4-15-7-10m69 0c-3 3-3 19 0 21s20 1 21-2q1-2-6-2-11 0-10-10 0-12-5-7m-410 1c-2 2-1 15 1 18s17 3 19 0q2-4-7-5-7 1-7-9-1-8-6-4M125 53c-2 3-2 25 0 27s23 3 26 1q7-5-9-6-13 1-10-12c0-8-3-14-7-10m-66 2c-3 2-2 22 1 25s25 3 25-1q1-4-10-4c-10 0-10 0-10-12l-2-9q-2-2-4 1m203 0-1 13c0 15-1 14 13 14q15 1 13-3 0-3-10-4c-9 0-9 0-9-10q0-14-6-10m135 2c-1 3-2 20 0 23s25 4 27 0q2-3-9-3-12 2-11-10l-2-10q-2-4-5 0m-202 1c-2 2-2 21 0 23 3 1 22 2 24 0q4-5-11-6c-7 0-7 0-7-11q-1-11-6-6m270 1c-4 7 0 23 6 23l4 1c1 2 16 0 16-2q0-4-9-4-10 2-10-9 0-12-3-11zm69 0q-2 2-2 11c0 11 1 12 12 12 13 0 13 0 13-2q1-3-7-3-11-1-10-7l-2-12q-3-2-4 1m135-1v21c2 5 21 7 25 3q4-5-8-5c-8 0-9 0-10-10l-1-9zm70 1v22c6 3 18 4 22 1q5-4-6-5-12 1-10-10-1-12-6-8m-409 1c-2 1-2 19 0 21s19 2 21 0q3-3-7-5c-8-1-8-2-8-9q1-6-2-7zm273 0c-3 5-2 20 3 22 4 2 19 0 19-2q1-3-8-3-7 1-7-10-1-10-7-7M0 78q-1 5 4 4c13 0 15-6 2-7l-6-1zm90 10c-3 6 0 25 5 27 4 1 22 1 23-1q5-4-9-5c-11-1-11-1-11-11q-1-18-8-10m70 1c-4 5-2 25 3 26h22q6-5-8-6-12 2-10-10-1-17-7-10m269 0c-1 3 0 23 2 25 3 3 24 4 26 1q3-4-10-5c-10 0-10-1-10-11l-2-10zM24 90c-1 2-2 16-1 20q0 7 14 6c14-1 16-7 3-7q-12 2-10-10l-1-9zm205 1q-3 0-2 11c0 14 1 14 16 14q12 0 10-3 2-4-9-4-11 2-9-10 0-12-6-8m67 0c-2 2-1 19 1 22 4 5 24 4 24-1q-1-2-11-3-9 2-8-10 0-9-3-9zm203 1q-2 2-1 12c1 12 1 12 14 13 12 0 13 0 13-3q2-3-10-3t-10-11q-1-15-6-8m204 1c-1 6 0 19 3 20 4 4 18 6 22 3q3-5-8-5-10 1-9-10 1-10-5-10zm-135 0c-2 3-1 18 1 21 5 4 22 4 22 0q1-4-8-4-10 1-9-10 0-8-3-8zm69 2q-2 1-2 10-1 15 9 13l8-1 7-1q3-5-7-5-9 1-10-10-1-10-5-6m-273 0c-2 1-1 17 1 19s16 3 19 2q5-5-6-6-9 0-8-9-1-10-6-6m-240 26-1 11c0 16 3 18 19 18 15 0 16-6 1-7-11-1-12-1-12-11q0-17-7-11m71 3-1 8c0 17 0 18 13 18l11-1q6-6-9-6-11 1-8-10c1-7-4-13-6-9m66 1c-2 4-1 20 0 22 3 4 23 5 25 1q4-4-8-5-12 2-10-9 0-12-4-11-3 0-3 2m204 0c-2 3-2 21 0 24 2 2 18 3 24 2 6-2-1-7-11-7q-8 2-7-10 1-8-2-9-1-3-4 0m-407 1c-2 1-2 13-1 18s13 8 22 5c6-2 1-7-6-7q-10 2-9-9-1-12-6-7m271 0c-2 3-1 19 1 22s21 3 23 1q4-5-8-5c-9-1-9-1-9-9 0-9-4-15-7-9m204-1c-1 2-2 14-1 19 1 6 3 7 14 7q23-2 3-6c-10-1-10-2-10-10q-1-15-6-10m137 1q-2 0-2 11c1 13 1 14 14 14q23-1 2-6l-7-1-1-8q-1-15-6-10m69 1-2 18q1 6 16 6c14 0 14-6 0-7-8 0-8 0-8-8l-1-8q-3-3-5-1m-343 2-1 9q-1 14 12 12c11 0 12 0 12-2q1-4-8-4-9 2-9-10-1-11-6-5m206-1-1 10c0 13 2 14 18 12 9-1 4-6-6-6q-4 0-4-9 0-11-7-7M0 146q-1 5 4 4 10-1 11-5l-1-2H0zm159 11c-2 2-2 21 0 24 3 4 23 4 26 1q5-4-9-5-12 0-10-7-1-21-7-13m-136 2c-3 6-1 21 3 24h19q8-5-7-6-9 2-8-9-1-17-7-9m68-1q-2 2-2 11c0 13 1 15 14 15q13 0 13-4 1-3-8-3-12 2-10-9 0-15-7-10m137 1c-2 3-1 19 1 23l1 3h11c12-1 13-2 13-5q1-2-9-3c-10-1-9 0-10-10l-1-9q-4-2-6 1m271-1c-2 1-3 21-1 25 3 3 27 3 27 0q1-3-7-3l-9-2-3-1-1-9q-1-15-6-10m-203 2c-2 2-2 21 1 23 2 2 21 2 23 0q4-5-8-5-12 1-10-8-1-16-6-10m68 0-1 14c0 10 1 11 10 11q12 0 14-3 1-3-8-4-10 2-9-10 1-8-2-8zm65 3c-2 4-1 18 2 20 2 3 20 3 21 0q4-3-7-4c-8-2-9-2-9-11 0-8-5-12-7-5m138-2c-2 3-1 19 1 22 4 3 23 3 23 0q1-4-8-3c-8-1-9-1-10-11q-1-13-6-8m136 0c-1 3 0 20 2 22 3 3 21 3 22 0l1-2-9-2q-9 1-8-9l-2-8q-3-3-6-1m-67 1c-2 2-1 19 1 21s17 3 20 1c5-2-1-6-9-6q-6 2-6-9-1-11-6-7m-511 29q-2 0-2 12c0 15 0 15 14 15q15 1 13-3 2-4-9-3c-9-1-10-2-11-11q0-14-5-10m136 0-1 18v6l4 2c5 2 20 3 22 1q6-6-10-6-10 1-9-11l-1-10zm-67 1c-2 3-2 21 0 24 3 4 27 4 27 0q1-4-11-4-11 1-10-9v-5l-1-2q-1-7-5-4m-137 2v19c2 5 22 7 25 4q1-4-2-5h-7q-10 0-9-10l-1-9q-5-3-6 1m271 0v20c2 5 23 7 25 3q4-4-8-4c-9-1-9-1-10-10q0-16-7-9m68-1c-2 2-1 19 1 23l2 3h11q14 0 12-2 0-4-10-4-12 1-10-11 0-10-3-10zm135 6v10l1 5 1 3c3 4 25 4 25 0q0-3-10-3-10 2-10-10c0-11-1-12-3-12q-3-1-4 7m71-3q-2 1-2 8c0 15 1 16 14 16q12 0 11-3 3-2-4-3c-12-1-13-1-13-10q0-14-6-8m66 0c-2 4-1 18 1 21 3 3 23 3 24 0q2-3-8-4-11 0-9-6c2-7-4-16-8-11m69 2c-3 6-1 19 4 21 6 2 21 1 21-2q1-3-9-3-10 1-9-10-1-13-7-6m-271-1c-4 0-4 18 0 20 2 2 12 3 17 2 7-1 3-6-5-6q-7 1-7-8 1-10-5-8M0 214v4h5c10 0 10-5 0-7H0zm90 11c-2 2-1 22 1 24 3 3 24 3 25 0q1-3-8-4t-11-3v-8q-1-14-7-9m137 1c-2 5-1 22 3 25 3 2 21 3 23 0q5-4-8-5c-9 0-10-1-10-12q-2-14-8-8m203-1c-3 2-4 20-1 25l1 3h12q17 0 13-4 1-2-8-2c-11 0-13-2-12-14q0-9-5-8m-272 4v22h24q7-4-8-5c-8-1-9-2-9-11l-1-8q-4-3-6 2m137-1c-2 4-1 19 1 22 3 3 22 4 24 1q3-4-8-4c-10-1-11-2-11-11l-1-9q-4-2-5 1m-272 1c-3 3-3 19 0 21 2 2 19 2 21 0q4-3-10-6-5 0-5-8l-2-7-2-2zm339 2c-1 6 1 19 3 21s19 1 22 0q3-4-4-5l-8-1h-5v-8q-1-11-5-11zm204-2c-1 5-1 21 1 23s20 3 24 1c5-3-2-6-11-6q-8 2-7-9 0-11-4-11zm138 0-2 8q-2 13 5 16c2 1 17 1 19-1 3-2-3-5-10-5q-7 1-6-7-1-13-6-11m-70 3c-1 7 0 19 2 21 2 1 19 2 22 0q6-3-4-4-10 0-12-4c-1-15-1-16-5-16zm-136-1-1 18q0 7 18 4c8-1 5-6-4-6q-7 1-7-8-1-12-6-8m-375 29c-2 7 0 22 2 24 3 1 20 2 23 1 7-2-2-7-10-6q-9 2-8-9 1-12-5-12zm137 0v22c3 5 20 7 25 3q5-4-8-4c-10-1-9 0-10-11q0-9-2-11-4-2-5 1m68 0v23c3 4 21 5 24 3q4-4-1-5h-8c-8-1-8-1-9-11q0-16-6-10m68 1-1 8c-2 15 1 18 16 18l10-1q3-5-8-5c-10 0-11-1-11-9q0-12-4-12zm-203 2c-2 3-1 17 0 19 4 5 24 6 24 1q0-3-9-3-10 1-9-10-1-13-6-7m270 0c-1 7 0 20 3 22 4 3 21 3 22 0q2-4-9-4-11 2-9-10 0-11-4-10zm137 0c-2 3-1 20 1 23q1 3 6 2c18 0 25-3 12-6l-9-2q-2 0-2-3l-1-14q-3-4-7 0m67 0c-2 5-1 20 2 22 3 3 21 4 23 1q4-3-7-4c-10-1-11-2-11-11l-1-9q-4-3-6 1m-610 1c-3 2-3 16 0 19 2 3 21 3 22-1q1-3-9-4-7 2-7-7-1-13-6-7m474 1c-2 4-1 19 1 21 3 3 18 2 20 0q4-4-6-5-10 1-9-9-1-14-6-7m206 0c-2 4-2 18 1 20 3 3 21 3 22 0q2-4-9-4c-7 0-6 1-8-9q-1-14-6-7M0 282v3h6q8 0 7-3 2-2-9-3l-4-1zm159 13c-3 2-3 19 1 21 4 5 24 5 24 1q-1-3-10-4c-8 0-9 0-9-9q-1-15-6-9m136-1c-1 2-2 20-1 23q2 4 15 4 14 0 12-4-1-2-9-2c-10-1-10-1-11-11q-1-15-6-10m133 0-1 13c0 15 0 14 18 14 14 0 14-6 0-6a9 9 0 0 1-11-12q1-13-6-9m-406 1c-2 2-1 20 1 22 2 3 21 3 23 1q3-4-9-5c-7-1-8-1-8-10q-1-12-7-8m340 1c-2 5-1 20 2 22 3 3 20 4 22 2q7-5-6-5c-11 0-11-1-12-12q0-11-3-9zm-273 1c-2 5-1 19 0 21 2 2 21 2 23 0q3-3-7-5c-8-1-9-1-9-9l-1-7c-1-3-6-3-6 0m139 0q-2 1-2 11v10l3 2 7 1 8-1c9 0 8-5-1-6q-11 0-9-10-1-12-6-7m269 0v20c2 5 20 7 24 3q5-4-8-5-12 1-10-8-1-18-6-10m137 1c-2 3-1 18 1 21s2 3 13 3l12-1q4-5-9-5c-9-1-9-1-10-10q-2-15-7-8m68-1v21q2 4 14 4c13 0 15-5 2-6q-12 2-10-10 0-10-3-10zm-136 3-1 9q0 11 7 12l6 1c11 1 14-5 2-6q-8-1-8-8-1-14-6-8m-238 28c-3 3-3 22 0 25 2 2 23 2 25 0q2-3-4-4c-13 0-15-2-15-12q1-7-2-9l-2-2zm67 1c-3 12-2 23 2 25 5 2 24 1 25-2q2-3-10-3-12 1-11-11 0-12-4-11zm-338 0c-3 2-3 18 0 21q1 5 13 4 14 1 9-5-1-2-6-2-10 2-10-10-2-12-6-8m611 0c-4 2-3 22 1 25 3 3 22 3 24 0q3-4-9-4c-9 0-10-1-10-11q-1-14-6-10m-546 1c-3 3-1 21 3 23 3 2 20 1 22-1q2-4-9-5-9 1-8-8-1-13-8-9m71 1c-2 4-1 19 1 21 4 4 22 3 22-1q1-3-10-4-8 1-7-9l-1-8q-4-2-5 1m66 0v19c2 4 3 4 15 4q11 0 10-2 1-3-8-4-11 1-10-8-1-15-7-9m204-1v22q1 4 15 3c14 0 15-6 1-6-8 0-9-1-9-11l-1-8zm68 1c-2 3-2 12-1 19q3 7 11 5h4q-1 2 9-1l2-2q0-3-11-3-9 1-8-10-1-15-6-8m204 0c-1 3 0 21 2 23 2 3 22 3 23 0q3-4-8-4-11 1-10-11l-1-8zm-135 4-1 9q-2 9 1 9c3 2 16 3 20 2q6-5-7-6-8 0-6-8c1-5-5-11-7-6M0 351v3h5c14 0 15-7 0-7H0zm21 10c-2 3-1 23 1 25 4 4 24 6 27 2q4-5-3-5l-5-1h-5c-7 0-7-1-8-11l-1-11q-4-3-6 1m67 3-1 12c0 13 1 13 14 13l12-1q5 0 1-4l-7-1q-12 1-11-11-3-17-8-8m274-1-1 8c0 20-1 19 15 19q17 0 13-4 1-2-9-2c-12-1-12-1-12-11q0-17-6-10m-135 0-1 17c0 6 0 6 3 8 5 3 20 3 22 0q4-5-9-5-11 1-9-10-1-13-6-10m270 1c-4 6-2 24 2 26h22c7-2 1-6-9-6-9 0-9-1-10-12q0-15-5-8m69 0c-3 2-1 23 2 25 1 1 20 2 22 1 4-3-2-6-10-6s-9-1-9-11q1-10-2-9zm135 2c-2 8-1 20 1 22 4 5 30 4 27-1l-8-1c-12-1-13-2-13-11q0-13-4-12-3 0-3 3m-544-1v19q0 7 14 5 12 0 11-3 0-3-10-3-8 1-8-10l-1-7q-3-3-6-1m137 0c-2 5-1 21 1 23 3 3 19 3 22 0q5-3-6-4-13 1-12-9 2-11-3-11zm340 5c-2 9 1 20 5 20h16l2-2q1-3-11-3c-5-1-5-1-6-8l-1-8q-4-2-5 1m-206 1-1 8c0 10 2 12 17 11q12 1 12-2 2-4-10-4-13 1-12-8-1-10-6-5M56 396c-2 1-3 20-1 23s2 3 14 3q14 1 14-2 3-3-10-5c-10 0-11-1-11-10q0-13-6-9m202 11c0 15 0 15 14 15q14 0 12-4c-1-1-8-3-13-3q-7 1-6-11 1-10-5-9c-2 0-2 0-2 12m136-10-1 12c1 13 1 13 19 13q10 1 10-2 3-3-10-4c-11 0-11-1-12-10v-9q-4-4-6 0m-272 0-1 11c0 13 1 14 14 14q12 1 12-2 3-3-9-5-12 0-10-9 2-12-6-9m205 0c-2 2-1 20 1 23s23 3 23 0q1-4-8-4-11 1-10-11-1-12-6-8m136 1-1 9q-2 15 5 15c6 1 20 1 21-1q2-3-7-4-11 0-12-5v-4c1-1-1-10-2-11q-3-2-4 1m67 0c-2 2-1 20 1 23 2 2 23 2 24 0q4-4-10-4c-8 0-9-1-9-13q0-11-6-6m206-1c-2 1-3 24 0 26 4 3 26 1 26-2q2-4-10-3c-10-1-11-2-11-11q1-13-5-10m-137 3c-2 3-1 16 0 19q1 5 13 4c13 0 17-4 4-5-9-1-9-1-10-9q-2-17-7-9m-407 1c-2 3-1 16 1 19s20 3 21 0q3-4-8-5-10 1-7-8c1-6-4-11-7-6m475-1c-1 2-2 15-1 19 0 3 2 4 14 4q13 0 9-3l-4-2q-13 1-12-10-1-11-6-8M0 419v3h5q9 0 9-3 0-4-9-4H0zm88 9-1 13c0 16 0 16 16 16 14 0 16 0 16-3q1-3-13-4c-10 0-10 0-11-11l-1-11q-4-4-6 0m-67 0c-2 3-1 24 1 26 3 4 24 4 26 1q2-5-11-5c-8 0-9-1-9-12l-1-10zm406 2-1 12c0 15 0 16 16 15q19 1 13-3-1-2-10-2c-11 0-11 0-11-13q0-11-2-11-3-3-5 2m-270 2c-2 5-2 18 0 22l2 3h11q16 0 12-4l-13-3q-5 1-6-8l-1-9q-3-5-5-1m339-1-1 12c0 15 0 14 13 15 13 0 15 0 15-3q1-3-10-3c-10 0-11-1-11-11q-1-15-6-10m272 0c-2 2-1 23 0 24q1 2 1-12c0-13 0-14-1-12m-474 2c-3 4-3 20 0 23 2 2 21 2 24 0q3-4-6-4l-10-2-3-1v-8q0-15-5-8m-67 1q-2 1-3 10c0 13 1 14 14 13q20-2 3-6c-8-1-8-1-8-9q1-7-2-8-2-3-4 0m134 0c-2 4-1 18 1 20 4 5 24 5 24 0q1-1-9-3l-9-1v-7l-1-9c-1-2-6-3-6 0m204-1-1 11c-1 14 0 15 18 14 12 0 12-6 0-6-10 0-11-1-11-10q-1-15-6-9m69 1c-2 2-3 22-1 24 3 2 21 1 24-1q6-5-7-5c-10 0-10-1-10-10q-1-13-6-8m68 0c-1 1-3 16-2 20 1 6 25 7 25 1q0-3-10-3-8 2-8-10 0-10-5-8m-580 27-1 14v13l3 1c5 3 23 3 26 1q6-4-10-6c-11-1-12-1-12-12q0-17-6-11m-66 3q-2 0-2 12c0 14 0 14 13 14q16 1 15-3 2-4-9-3a9 9 0 0 1-11-11q-1-14-6-9m406 0c-2 2-1 22 1 25s24 3 25-1c0-2 0-2-8-2-11 0-12-1-12-13q0-10-3-10zm68 0a36 36 0 0 0-2 22l2 5h12c11 0 13 0 14-2q2-3-10-3c-9 0-10-1-10-12q0-9-3-10zm-204 2c-1 4-1 21 1 23s18 3 22 1q7-3-6-5l-9-2-1-7c0-10-4-16-7-10m340 1c-3 4-3 20 0 23 5 4 25 4 25-1q1-3-9-3-10 2-9-10 1-9-2-10l-3-2zm-407 0c-3 2-3 20 0 22 2 2 19 3 22 1q4-4-7-6c-9-1-9-1-9-9q0-10-4-10zm135 0c-2 2-2 18 0 22 3 3 25 3 25 0q1-3-8-4c-10-1-11-2-11-11q-1-13-6-7m205-1c-2 3-2 22 1 24 2 2 20 2 23 1q5-5-8-5c-9 0-10-1-10-11q-1-14-6-9m-407 2-1 10c-1 13 0 13 13 13 15-1 17-7 2-7q-9 1-8-7l-1-8q-3-5-5-1m543 1-1 10v9l3 3q3 2 6 1h4c3 2 10 0 10-2q1-4-7-4-10 0-9-8-1-14-6-9M0 486v4h5q8 0 6-4l-2-2-5-1H0zm88 11-2 8v7h9v-5q-1-15-7-10m68-1-1 9v7h3q4 1 5-3l1-4-3-9zm-135 2q-2 3-3 11-1 4 5 3h4v-6q-2-10-6-8m204 1-1 7v6h8v-5q-1-11-7-8m202 0-1 7-1 6h8v-5q-2-12-6-8m69 0-1 7-1 6h8l-1-6-1-7zm69 0-2 7v6h8l-1-5v-6q-4-3-5-2m-205 3-1 6q-1 5 4 4h4v-5c0-7-5-11-7-5m340-1-1 6v5h9l-1-5q-1-12-7-6m-407 1-1 5-1 5h4q5 1 4-4l-1-5c0-2-5-3-5-1m340 0-1 5v5h4q4 1 3-4-1-10-6-6"
        mask="url(#16282281824-posters-1720558180037-horizontal-mask)" itemprop="light" fill-opacity="0.90"
        fill-rule="evenodd" stroke="none" fill="url(#16282281824-posters-1720558180037-vertical-light)"></path>
      <!---->
      <path id="16282281824-posters-1720558180037-regular"
        d="M59 5c1 7 1 7 10 8q14 1 15-2 2-3-9-3-9 0-10-6 0-2-3-2h-4zm66 0c0 8 1 8 14 8l12-1q3-4-9-4h-8l-2-4q0-4-4-4-4-1-3 5m69 0q-1 10 14 9 14-1 10-4l-6-2q-9 0-10-5 0-3-4-3h-4zm67 0q-2 11 13 9c12-1 14-6 2-6q-8 0-8-6 0-2-3-2h-4zm68-1q0 12 20 9 12-3-4-5-7 0-9-5 0-4-4-3-4-1-3 4m68-1q-2 12 16 11c13 0 14-5 1-5q-11-1-10-7 0-2-3-2-5-1-4 3m69-2q-2 14 13 13 12 0 10-3-1-2-5-2-11 1-11-5c-1-4-7-6-7-3m67 3c0 9 1 10 11 10q15 1 13-2 0-3-7-3-9 0-10-6 0-3-4-3-4-1-3 4m70 1c0 7 1 8 12 9l11-1q3-3-7-4-9 0-9-7 0-2-3-2h-4zm67 1q-2 11 13 9 16-1 11-5l-6-1q-11 1-12-5 0-5-3-4h-4zm70 0q0 5 3 7c2 1 19 2 20 0q-1-2-8-3-9 0-10-6a3 3 0 1 0-5 2M0 10v3h7q21-2 1-5L0 7zm25 10-1 10q-2 14 4 15h20q5-2-3-4c-14-1-15-1-15-12q0-13-5-9m67 3c-2 7-1 20 1 21 2 3 24 2 24-1q0-3-10-3c-8 0-8 0-9-10q0-12-4-10-2 0-2 3m69-1c-2 1-2 18 0 21 4 4 23 5 23 0q1-2-10-2c-7-1-8-1-8-10q0-12-5-9m270 2c-2 5-1 18 1 21s22 3 22 0q0-3-10-3c-6 0-7-1-8-11q0-11-3-9zm-202 0c-2 2-1 18 1 21q0 3 10 2c14 0 17-5 4-6-8-1-8-1-9-9q-1-12-6-8m135 0c-1 3 0 18 2 21 1 2 1 2 11 2q21-3 4-5-12 1-11-11-1-12-6-7m136 3c-2 4-1 17 1 19 4 2 21 1 21-2q0-2-7-2-11 1-10-11-1-11-5-4m69 0v19c2 2 20 1 21-1q2-2-7-3-10-1-9-10-1-10-5-5m69 0-1 9c0 10 1 11 13 11q17-2 2-4-10-1-9-8 0-10-3-10zm68 0c-2 5-2 17 0 19s15 3 19 1q5-4-5-4-10 1-9-8-2-14-5-8m-409 0c-2 3-2 15 0 18 3 3 19 2 19-1q0-3-7-3t-7-7q0-10-5-7M126 54l-2 13c0 11 0 12 2 13 3 2 24 2 26 0q3-3-10-4c-10-1-11-2-11-12q0-12-4-11zm-67 1v22c2 4 3 4 13 4q15 1 13-3 1-2-11-2c-9-1-10-2-10-12q1-14-5-9m203 2c-2 2-2 20 0 23 1 2 2 2 12 2q16-1 12-4-1-2-8-2c-10 0-10-1-10-10q-2-15-6-9m136 0c-2 2-1 22 0 23 2 3 25 2 25 0q2-3-9-3c-11 0-11 0-12-20zm-203 2v20q1 3 13 3 21-3 2-6-12 1-10-11v-7q-3-3-5 1m271 1c-2 4-1 18 1 20q4 3 16 2 16-3-3-5-9 2-9-10v-9q-2-3-5 2m204-2c-2 3-1 19 1 21 3 4 20 5 23 2q4-3-8-3t-10-9l-1-10q-2-3-5-1m-136 2q-3 16 2 21h20q3-4-8-4-9 2-9-10l-1-8q-3-2-4 1m205 1c-2 3-1 17 1 19 4 4 22 4 22 0q0-2-7-2-12 0-10-10-1-13-6-7m-409 0c-2 1-1 17 1 19 4 4 22 2 20-2l-6-1q-10 0-9-7-1-13-6-9m273 6c-2 13 0 15 12 15q19-1 3-4-10-1-9-9t-3-9-3 7M0 78q-1 4 6 3 15-2 2-5c-8-1-8-1-8 2m91 11c-2 2-1 19 1 23s27 4 26 0q-1-3-12-3c-8 0-9-1-9-12q0-16-6-8m69 1v21q0 4 13 4 12 1 13-2t-11-4c-9 0-9-1-9-10l-1-9q-3-4-5 0m271-1c-3 2-2 22 0 25 3 2 24 3 26 1q1-4-11-4c-9 0-9-1-10-10q0-16-5-12M24 91v20c2 4 3 4 14 4 13-1 14-6 1-6l-7-1c-2-2-3-10-3-12 2-3-3-8-5-5m205 0c-1 1-2 15-1 20 0 6 25 7 25 2q1-3-8-3-11 1-10-10-2-13-6-9m67 2c-2 5 0 20 3 22h19q6-5-7-5-10 0-9-7-1-16-6-10m203-1v19c2 5 4 5 16 5q18-3-1-5-10 2-9-10 0-14-6-9m205 1v15q0 7 11 9c13 1 18-4 5-5-9-2-10-3-10-11s-4-14-6-8m-135 1c-2 2-1 18 1 20 3 3 20 3 21 0q3-2-7-3-11 0-10-8-1-13-5-9m-205 2c-2 4-1 14 2 17 3 4 16 4 18 1q3-3-6-3-8 0-8-7-1-14-6-8m272 0c-1 5 0 19 2 20s19 0 20-1q3-3-6-3-10 0-10-10-1-13-6-6m-511 26v22q2 5 16 5 12 0 11-3 1-3-11-3-12 1-10-7-1-19-6-14m70 3c-2 4-1 20 1 22 3 3 23 3 23-1q1-2-10-3c-9 0-9-1-9-9q0-15-5-9m66 0c-2 3-1 21 1 23 4 3 24 2 24-1q1-3-9-3c-8 0-9-1-10-11q-1-15-6-8m205 1c-2 3-3 18-1 21q3 5 16 3 19-2-1-5c-9-1-10-2-9-11q0-14-5-8m-408 1c-2 3-1 19 1 20 2 2 19 2 21 0q2-4-7-4-10 1-9-8l-1-7q-3-5-5-1m272-1-1 11c0 13 0 13 13 13q21-3 4-6c-10 0-11-1-11-9q0-10-3-10zm203 0-1 10c0 14 2 16 17 14q9 1 8-2 0-2-8-2-12 0-10-10-1-15-6-10m137 1-1 10v10l3 2c4 2 18 2 20 0q3-3-8-3-10-1-9-9 1-13-5-10m69 0-1 11c0 9 0 9 3 10 4 2 16 3 19 2q7-3-7-5c-8-1-9-1-9-9q0-13-5-9m-341 1c-3 3-3 17 0 20 3 2 18 3 20 1q2-3-6-4-11 1-10-9 0-11-4-8m206 0c-2 1-3 17-1 20s19 2 20 0q1-1-6-3c-8-1-9-2-9-11q0-7-4-6M0 146q-1 4 5 3c9-1 9-1 9-3q0-3-9-3-6-1-5 3m159 11c-3 6 0 26 4 26 22 1 33-4 12-5-9-1-10-2-10-12q-1-14-6-9m-135 2c-2 2-2 20 0 22 4 3 24 2 24-1q0-2-10-3-10 2-9-10 0-14-5-8m68-1q-2 0-2 11c0 13 0 14 13 14 15 0 18-5 4-6-10 0-10-1-10-9q0-13-5-10m137 1c-2 2-2 20 1 24q1 3 6 1h10c11 0 10-5-1-6-10-1-9 0-10-10q-2-15-6-9m269 1v11c-1 13 0 14 14 14s18-5 4-5q-13 2-12-13l-1-7q-2-4-5 0m-202 0c-2 2-1 19 1 21 2 3 18 4 22 2q4-5-9-5-10 2-9-10 0-9-3-9zm68 1-1 11c0 13 0 13 13 12q20-3 2-5-10 0-8-9c1-7-3-13-6-9m340 0-1 11c0 8 0 9 2 11 4 2 18 3 20 1q4-4-5-4-11 1-10-9-1-14-6-10m-275 1c-1 3 0 18 2 20 2 3 15 4 19 2q6-3-5-4-10-1-9-9 0-9-4-10zm138 0c-1 3 0 18 2 20 3 3 17 4 20 2q4-4-7-4-10 2-9-9 0-10-3-10zm69 3c-2 5-1 15 2 18q1 3 10 2 20-5 0-6-6 1-6-8 0-8-3-9zm-512 28c-2 3-1 20 1 22s22 3 24 1q2-3-9-4c-9 0-9 0-10-10q-1-17-6-9m137 0-1 11c0 13 3 15 18 14 14 0 12-5-2-5q-10 2-9-12l-2-9c0-2-4-1-4 1m-203 0c-2 1-1 21 1 22 3 3 23 3 23 0q1-3-9-3c-9 0-10-1-10-11q0-11-5-8m136 0c-2 6-1 21 1 23 2 3 25 2 25 0q1-3-11-4c-9 0-9-1-10-10q-1-14-5-9m135 1c-1 3-1 20 1 22 3 3 22 3 23 0q0-2-5-2-9-1-12-3l-2-9q-1-15-5-8m68-1c-2 3-1 22 2 24 2 2 17 2 22 0q3-2-8-3c-10 0-11-2-11-10q0-15-5-11m136 0c-3 4-2 22 1 25 3 1 20 2 23 0q4-3-9-4c-10 0-10-1-11-9v-9q0-5-4-3m136 3c-2 4-1 18 1 21 4 4 25 3 23-2l-8-1q-11 2-10-10-2-14-6-8m-68 0c-1 3 0 20 1 22 2 1 20 2 22 0q4-2-6-3-12 0-10-8-1-15-7-11m137 1v18q1 6 14 4c13 0 12-5 0-5q-9 2-9-10-1-13-5-7m-273 2-1 9c0 8 0 8 3 9 4 3 18 3 19 0q1-3-7-3-9 0-9-10 0-7-3-7zM0 214q-1 4 5 3 14-2-1-5-5-2-4 2m90 12c-2 3-1 21 2 23 4 3 23 3 23 0q1-3-8-3c-10-1-11-2-11-11q-1-14-6-9m138 0c-2 3-1 22 2 24s21 2 23 0q4-3-9-4c-9 0-10-1-10-11q-1-14-6-9m202 0c-3 2-2 24 0 26 3 2 21 2 23 0q5-4-6-4-16 2-13-15 1-9-4-7m-271 1c-1 2-2 18 0 22 0 3 23 3 24 0q1-3-9-3-10 2-10-10 0-13-5-9m136 0c-1 3 0 20 2 22 3 3 22 4 23 1q1-2-7-2l-9-2q-3-1-4-12 0-12-5-7m69 1-1 11c0 13 0 13 12 13q22-1 4-4c-9-1-10-2-10-11q-1-11-5-9m203 1-1 11c0 12 1 13 14 14 14 1 18-4 3-6-10-1-11-2-11-11q1-7-2-8-2-3-3 0m-544 1v20h20q4-3-6-4-10 0-9-11 1-6-2-6-2-2-3 1m613 0c-2 3-2 20 0 22s19 3 22 1q5-3-7-4-12 0-10-9 0-14-5-10m68 0c-2 3-1 19 0 21 3 3 21 3 22 0q3-2-7-3c-9-1-10-1-10-8q-1-15-5-10m-206 3c-2 3-1 17 1 18 2 3 19 3 20 0q3-2-7-3-10 0-9-8-1-13-5-7m-374 26c-1 1-2 18 0 21 1 4 22 7 25 4q2-3-9-4c-9 0-10-1-11-11q-1-12-5-10m137 0c-2 2-1 22 1 24 4 4 23 4 23 1q0-3-10-3-10 2-9-12 0-14-5-10m68 1v23c2 3 19 4 23 2q5-3-8-4c-10 0-10 0-10-10q1-10-2-10-1-3-3-1m67 2c-2 4-1 18 1 21s21 4 23 2q2-3-7-4-13 2-12-10 0-15-5-9m68 0c-1 2 0 19 1 21q3 5 16 3 15-3-1-4-11 1-10-8-1-16-6-12m137 0v23q1 4 16 2 16-3 1-4c-10-1-11-3-12-12q0-13-5-9m68 0c-3 3-3 19 0 22 2 3 22 4 23 1q1-3-7-2c-10-1-11-1-11-11q-2-13-5-10m-475 2v18c2 2 19 5 22 3q2-3-7-4-11 0-10-10c0-7-3-12-5-7m-137 1c-2 3-1 16 1 18 2 3 18 3 20 0q3-3-6-3-10 0-10-10 0-8-3-7zm681-1-1 10c-1 11 0 12 8 12l9 1 5-2q3-3-7-3-10 1-9-9-1-11-5-9m-207 1c-1 2 0 19 1 21 2 2 21 1 21-2q0-2-7-2-10 1-9-9-1-12-6-8M0 282q-1 4 5 3 15-2 1-5l-6-1zm158 14v18q2 5 15 5t9-4l-8-1q-10 2-10-10-2-16-6-8m137 1c-2 8-1 19 1 21 4 3 24 3 24 0q1-3-10-3-11 1-10-10-2-17-5-8m69-1c-3 2-3 19 0 22 3 2 20 3 23 1q3-3-8-4c-11 0-11 0-11-10q0-14-4-9m65-1-1 11c0 15-1 15 17 14l9-1q1-3-11-4c-8 0-9-1-9-11q0-10-4-10zm-407 1c-1 3 0 19 2 21s17 3 20 1q4-3-6-4-11 1-10-10l-1-7q-2-3-5-1m68 0c-2 2-1 21 1 22 3 2 20 1 21 0q3-4-7-4-10 1-9-8-1-13-6-10m408 0c-2 2-1 21 1 23 3 3 23 2 23-1q1-1-11-3c-9 0-9-1-9-10q0-12-4-9m-270 2-2 10c0 11 1 12 11 12q23-2 6-5c-9-2-9-2-10-11q0-12-5-6m407 1-1 10c0 12 1 13 15 12q21-1 3-4c-11-1-11-1-12-12q0-9-3-8zm67-1c-1 2-1 18 1 20 2 3 18 5 21 2q5-3-6-3-12 2-10-10 0-15-6-9m-135 2-1 9q-1 9 3 10 6 3 15 2 6-2 0-4-15 0-13-11 1-6-2-6zm-239 29c-2 4-1 21 1 23 2 3 22 3 24 1q3-4-9-4c-9 0-10-1-11-12q0-14-5-8m67 1v21c2 3 23 5 26 2q2-4-9-4c-11 0-12-1-12-13q-1-14-5-6m273-1q-2 1-2 10 0 16 5 15c5 2 20 1 21 0q3-3-7-3-13 2-12-13 0-12-5-9m-612 3c-1 3-1 15 1 18q1 4 14 3c12 1 12-4 1-5q-10 0-10-9l-1-8q-2-5-5 1m67-1c-2 2-1 18 1 21 3 2 20 2 22 0q2-4-8-4-10 1-9-9-1-13-6-8m137 0c-2 4-1 20 2 21 2 3 20 3 21 0q1-3-8-3-11 1-10-11 0-13-5-7m204-1-1 11c0 13 0 13 13 13 15 0 17-4 4-4-9-1-11-2-11-12q0-9-3-9zm67 2-1 11q0 14 10 11l15-1q1-3-10-3c-8-1-7-1-8-10q-2-17-6-8m-338 0c-2 4-1 16 2 19 2 3 2 3 11 3q19-2 3-5-9-1-10-4l-1-7q0-13-5-6m543 1c-2 4-1 19 1 20 4 4 23 4 23 0q1-2-6-2-14 1-12-10l-1-8q-3-4-5 0m-135 1c-1 2-2 18-1 19 2 1 15 2 19 1q7-3-5-4-8 0-8-7 0-12-5-9M0 350q-2 4 7 3 7 1 8-2 2-2-8-3-9 0-7 2m22 11-2 11c0 15 0 16 16 16l13-1q4-4-9-4c-12 0-12 0-12-11l-1-10q-3-3-5-1m68 2c-2 2-3 22-1 24h26q2-3-12-4-8 1-8-9 0-16-5-11m272 1v22c1 4 2 4 15 4q24-3 2-6c-11-1-11-1-11-8q-1-18-6-12m-135 0c-2 2-1 20 1 22 1 3 20 4 22 2q5-3-7-5-12 1-10-6-1-16-6-13m270 1c-2 5-1 22 1 24 3 3 25 2 25-2l-12-2c-8-1-9-2-9-12l-1-8q-3-4-4 0m205 0-1 11c0 14 1 15 15 15q14 0 12-4l-8-1q-15 2-13-12l-1-9q-3-4-4 0m-544 0-1 11c0 13-1 13 21 12l3-1q1-3-8-4-10 2-9-9-1-13-6-9m137 0c-2 1-1 21 1 22 1 2 18 3 21 1q3-3-9-4c-8 0-9-1-9-11q0-12-4-8m270 2c-1 3 1 19 2 21 3 3 23 3 23 0q0-3-11-3c-8 0-9-1-8-11q0-10-4-10zm69 10c0 11 1 12 12 13q13 0 10-3l-6-1q-11 1-10-8 0-10-4-9c-2 0-2 0-2 8m-206-5c-2 4-1 14 3 17 3 2 24 1 24-2q1-2-9-2-14 0-12-7 0-8-3-8zm-169 25-1 11c1 14 2 14 13 14q22-1 4-6-12 2-10-10-1-14-6-9m136-1v23c2 3 24 5 26 1q3-2-10-3-14 1-11-11 0-14-5-10m-339 1-1 12c0 12 0 13 14 13 17 0 20-5 3-6-10-1-10-1-10-9q-1-15-6-10m67 1v20c1 4 11 5 20 3q9-4-5-5-11 0-10-9 0-13-5-9m204 1c-3 7 0 21 4 22h19q2-4-6-4-12 1-11-9-1-16-6-9m137-1c-2 2-2 21 0 22 2 3 23 3 24 0 1-2 0-2-13-3q-7 1-7-10v-9zm67 1c-3 11-1 21 3 22 3 2 20 1 20-1q3-2-8-2-12 0-10-10 0-11-4-11zm205-1c-1 4-2 23-1 24 2 2 25 1 26-1q1-3-9-3c-10 0-12-1-12-11l-1-8q-2-3-3-1m-136 2c-2 3-1 15 0 19 1 2 2 3 11 3l11-1q3-3-7-3-9 1-10-10-1-15-5-8m-407 1-2 8c0 8 0 8 2 10 4 4 21 4 21 0q0-3-7-3-10 0-9-8c1-6-3-11-5-7m474 0c-2 2-1 18 1 20 1 2 20 2 21 1q1-3-7-4-11 1-10-10 0-11-5-7M0 419q-1 3 5 2 9 0 8-3 0-3-7-2-7-1-6 3m22 10c-3 3-2 23 1 25 5 4 25 3 25 0q0-3-10-3c-9 0-10-1-10-11q-1-17-6-11m66 3c-1 26-1 25 16 25q13 0 13-2 4-3-10-4c-12 0-12-1-13-11 0-12-1-13-4-13q-2-1-2 5m340-2c-2 4-2 21 0 24l2 3h12q17 0 12-3l-10-2c-11 0-11-1-11-12q0-13-4-12zm-272 8q0 13 2 17c3 3 21 3 23 0q3-3-8-3c-9-1-10-2-11-12q1-11-3-9-2-1-3 7m339 0q0 13 2 17c2 3 25 3 25 0q0-3-6-2l-8-1q-7 2-7-10c0-10-1-11-3-11q-2-1-3 7m-201-4-1 11c0 11 1 12 13 12q23-2 3-5-12 0-10-10c0-8-4-14-5-8m67 1c-2 7-1 17 2 20 4 3 21 3 22 0q1-3-9-3c-8 0-9-1-9-11 0-8-4-13-6-6m205-1q-2 3-2 11c0 12 1 12 14 12 14 0 17-4 4-4-12-1-12-2-12-12q-1-11-4-7m-339 1c-2 4-3 18 0 20 1 2 17 3 20 1q4-3-6-4c-8-1-8-1-9-10q0-13-5-7m408 0c-2 2-4 20-2 22h24q3-4-7-4c-10-1-11-2-11-10q0-13-4-8m67 0c-2 1-3 19 0 21 1 1 16 2 20 1 5-1 1-4-4-4q-13 1-12-12 0-7-4-6m-580 28c-2 4-1 24 2 25 2 2 22 3 25 1q4-3-8-4c-13-1-13-1-13-12q-1-18-6-10m-67 1-1 11c0 14 1 15 15 15 15 0 19-5 5-6-12 0-12-1-12-11q-2-14-7-9m408 1c-2 2-1 22 1 24s18 3 22 1q5-3-7-4c-10 0-11-1-11-12q0-13-5-9m67 0c-2 3-2 22 0 24 2 3 22 3 24 1q5-4-9-4c-9 0-9-1-10-11q0-15-5-10m-203 1c-2 1-1 20 1 23 4 3 24 2 22-2l-4-1c-12 0-14-2-14-11q0-9-3-10zm340 0q-2 0-2 11c0 14 0 15 14 15 15 0 17-5 3-6-9 0-10-1-10-11q0-11-5-9m-475 3c-2 4-1 16 1 19q0 2 10 2 22-2 3-5-11 0-9-9-1-15-5-7m66 0c-2 4-1 17 1 19s17 3 21 1q4-4-4-4-12 2-11-9l-2-8q-2-4-5 1m136-1c-1 3 0 19 1 21 3 2 20 3 23 1q2-3-6-4-15 2-13-13-2-11-5-5m205-1c-2 2-1 20 1 22 2 3 22 3 23 0 0-2 0-2-8-3-10 0-10-1-10-10q0-10-3-10zm136 3c-2 4-1 18 1 20 3 2 19 2 21 1q3-3-7-4-11 1-10-10 0-14-5-7M0 486q0 4 7 3 10-3-3-5-5 0-4 2m88 13-1 8v5h7v-6c0-9-4-14-6-7m69-2c-1 3-2 12-1 14a4 4 0 0 0 6-3q0-12-4-12zm-136 2-2 7-1 6h4q6 0 5-4c0-7-5-14-6-9m475 0-1 7q-1 8 3 6h3l-1-6q0-11-4-7m-270 1-2 6v6h7v-5q0-10-5-7m201 0-1 6v6h4q4 1 3-3-1-12-6-9m138 1-1 6q-1 6 3 5 4 1 3-4c0-6-4-11-5-7m136 0-1 6v5h7l-1-5q-1-12-5-6m-340 0-1 6v5h4q5 1 2-8-2-6-5-3m-68 2-1 5q-1 5 4 4h3v-4q-2-11-6-5m340 0q-3 8 2 9 4 1 3-4-1-11-5-5"
        mask="url(#16282281824-posters-1720558180037-radial-mask)" itemprop="regular" fill-opacity="0.90"
        fill-rule="evenodd" stroke="none" fill="url(#16282281824-posters-1720558180037-horizontal-regular)"></path>
      <!---->
      <path id="16282281824-posters-1720558180037-medium"
        d="M59 5q-1 9 11 8 13 0 13-2 0-3-10-3-7 1-8-6-4-6-6 3m66 0c1 7 2 8 14 8q14 0 11-3-1-2-9-2h-8l-1-4q-1-5-4-4h-3zm69 0c1 7 2 8 13 8q12 0 11-2 1-3-9-3-8 0-8-6 0-2-4-2h-3zm68 0q-2 9 10 8 20-2 4-5-9 0-9-6l-2-2q-4-1-3 5m68-1q-2 8 13 9l10-1q4-3-7-3-10-1-10-6 0-3-3-3-4-1-3 4m68 1c1 7 2 8 11 8l12-1q3-3-7-3-11 0-11-7 0-2-3-2-3-1-2 5m68-1q0 9 11 9 14 2 11-3l-7-1q-9 0-9-6 1-4-3-3-4-1-3 4m68 2q-1 9 11 8 20-1 5-4-11-1-10-6-1-5-4-4h-3zm69-2 1 6c2 4 22 6 22 2q0-3-9-3-7 1-8-6c-1-5-6-4-6 1m67 2c1 8 2 8 13 8q12 0 11-2 1-2-8-2-11 0-10-7 1-4-3-3h-3zm70-1q0 11 13 9 15-1 2-3-10-1-10-8 1-4-3-3-2-1-2 5M0 10q0 2 5 2 11 1 12-2C16 7 0 7 0 10m26 10c-2 1-2 21 0 23 2 3 23 3 23 1l-1-2c-17-1-18-1-18-12q0-12-4-10m66 2v12c-1 12 0 12 14 11q21-3 2-4c-9 0-10-2-11-11q-1-15-5-8m69 1c-2 5-1 18 1 20 3 2 16 4 20 2q5-3-6-3c-9-1-10-2-11-12q0-9-2-8zm271 0c-3 9-2 22 2 23 2 1 19 0 20-1q1-1-8-3-12 2-10-10c0-8-3-14-4-9m-67 2v3c-1 2 0 16 1 17 1 2 19 1 20 0q3-2-7-3-11 1-10-11 0-12-4-6m-136 0c-2 3-1 17 1 19 3 3 20 2 21 0q1-2-6-2-11 0-11-11t-5-6m271 3c-1 5 0 15 1 16 2 3 20 3 20 1l-1-2-6-1q-10 1-9-8 0-9-3-9-2 0-2 3m138 0c-2 4-1 14 1 16q2 3 18 2c5 0 0-3-5-3q-10 0-10-10 0-13-4-5m-68-1-2 9v9l3 1h15c7 0 3-4-5-4q-7 1-7-9-1-9-4-6m135 1v10l1 7 3 2c4 1 16 0 17-2l-6-2q-11 1-10-8c0-8-3-13-5-7m-408 2c-2 4-1 12 1 14 2 3 16 3 17 0q1-2-5-2-8 1-9-8 0-12-4-4M126 54c-1 2-2 24 0 25 1 1 25 2 26 1q1-3-10-4-14-1-12-10c2-8-1-15-4-12m-67 1c-1 2 0 21 1 23 1 3 24 3 24 1q-1-3-12-3c-8 0-9-2-9-14q0-11-4-7m203 3v22c1 1 21 2 23 0q4-3-7-3c-10 0-11-1-11-11l-1-8c0-3-4-2-4 0m136-1c-2 2-1 21 0 23 2 2 19 2 22 1q7-3-6-3c-11-1-12-2-12-12q0-13-4-9m-203 3c-1 4-1 18 1 19 1 2 15 2 20 2q7-3-6-4c-9 0-10-1-10-11 0-8-3-13-5-6m476-2-1 3q-3 15 2 19c4 3 25 3 22-1h-6c-11-1-12-2-13-11q0-11-2-10zm-205 2c-2 4-1 17 2 19 3 3 21 4 21 1q1-2-8-2c-9-1-9-1-10-11q-2-14-5-7m68 6q-2 12 1 14c2 1 17 2 19 1q4-3-3-3-14 2-12-12l-1-6-2-1q-3-1-2 7m-204-5c-1 3 0 17 1 19 2 1 13 2 18 1q5-3-5-4-10 1-9-9-1-11-5-7m274 0-1 9c0 12 1 12 13 11q12-1 6-2l-7-1q-6 0-6-8-1-13-5-9m136 0v19c1 2 21 3 21 1q0-2-4-2-14 1-13-11 0-11-4-7M0 78q-1 3 6 2 10 0 7-3c-2-2-13-1-13 1m92 10c-2 1-1 22 1 24s23 3 24 1q2-3-10-3c-9 0-10-1-10-11q0-12-3-12zm68 1c-1 2 0 22 1 24l21 2q9-4-9-5-8 2-8-12t-5-9m270 2v20q1 6 13 5 23-1 4-5-12-1-11-5-2-24-6-15M25 91c-2 2-2 16-1 19l2 4h10l11-1q1-3-8-3-11 1-10-11 1-8-2-8zm204 2c-2 4-1 19 1 20 4 3 22 2 22 0q1-3-9-3-10 1-9-10-1-13-5-7m67 0c-1 6 0 19 3 21s19 1 20-1q1-2-6-2-13 1-12-10-1-15-5-8m203 0c-1 7 0 19 3 21 2 2 15 3 17 1h2l2-1q-1-2-8-2a9 9 0 0 1-11-12l-1-7q-2-4-4 0m206 1v15c1 6 13 9 21 6q5-2-6-3-12 1-10-11c0-7-4-12-5-7m-136 0v18c2 4 17 5 21 3q4-3-9-4-8 0-8-11 0-8-4-6m69 1-1 10c0 11 0 12 11 11 12 0 14-4 3-4q-10 1-9-10-2-12-4-7m-273 1c-2 1-1 16 1 17 2 2 15 3 17 1q2-3-6-3t-8-9q0-10-4-6m-240 27c-3 5 0 22 3 24h24q3-2-10-3c-11-1-12-1-12-12q0-16-5-9m71 2v21c1 2 2 2 11 2q23 0 3-4c-10 0-10-1-11-11q0-12-3-8m65 1c-1 4-1 18 1 20 2 3 2 3 12 3l11-1q4-3-7-3-12 2-12-13l-1-7q-1-2-4 1m-203 2c-2 4-1 16 1 18 2 3 20 3 21 1q1-4-9-4-8 1-8-9 0-14-5-6m272-2c-2 2-1 19 1 21 2 3 21 2 21 0q0-2-7-2c-9-1-10-2-11-11q0-13-4-8m136 1c-2 3-1 19 0 21 2 1 18 2 22 1q5-2-6-3-15 0-12-12c1-7-3-12-4-7m67 1v14q-1 12 21 7 6-2-5-3c-10 0-11-1-11-13q-2-13-5-5m137-1c-2 3-1 18 1 21 3 2 17 3 20 1q3-3-7-3-10 1-9-9 0-14-5-10m70 1-2 9c0 9 0 9 3 11 2 2 16 3 20 2q3-3-7-4-12 0-10-10 0-11-4-8m-342 1c-2 3-1 17 0 19 3 2 20 2 20 0q1-3-8-3-9 2-9-10-1-10-3-6m205 1c-1 2-1 16 1 18 1 2 17 2 19 0q2-1-7-2-9 0-8-10-1-11-5-6M0 146c0 2 11 3 13 1q2-3-8-3-5 0-5 2m160 11-1 11c0 14 0 15 12 15q24-2 5-5c-10-1-11-2-11-10q-1-15-5-11m-136 2v20q1 4 16 3 14-3-3-4-8 1-8-9 0-13-5-10m67 0v7c-1 17 0 17 14 16q10 0 10-2 1-1-10-3c-8 0-8 0-9-10l-1-8zm138 0c-2 3-1 21 1 23 2 3 23 1 23-1q1-2-8-2c-9-1-10-2-11-12q-1-13-5-8m270 2-1 11c0 12 0 12 14 12q22-1 4-4c-12-1-13-2-13-14q1-8-2-7zm-203 1c-1 4 0 18 2 19 1 2 18 3 21 1q4-3-8-3-12 2-11-12 0-11-4-5m68 0c-1 3 0 19 1 21 2 1 21 0 21-2l-3-1-9-1q-6 0-5-10c0-7-2-12-5-7m204 1c-2 4-1 17 1 19s18 3 21 1c2-1-6-3-10-3q-7 3-8-10 0-12-4-7m136 0c-2 3-1 17 1 19 2 1 21 3 21 1q0-3-8-3-10 1-9-9 0-14-5-8m-274 1c-3 6 0 19 4 19h17q2-3-6-3-10 0-10-9 0-10-3-9zm207 1c-2 3-1 16 1 17 2 3 19 2 19-1l-6-1q-11 0-10-8c1-6-3-12-4-7m-375 27-2 18q0 8 16 7h10q3-3-7-3-15 2-13-12 0-15-4-10m-137 1-1 21q0 4 15 3 21-2 0-5-10 2-10-10l-1-9zm70 0c-2 2-2 20 0 22s23 3 25 1q3-2-10-3c-10-1-11-2-11-10q-1-12-4-10m-137 1v19c2 4 22 6 23 2q1-3-8-2-12 2-10-12-1-10-5-7m271 0c-1 2 0 20 1 22 2 1 14 2 19 1q8-2-4-3c-10-1-11-2-11-12q0-13-5-8m67 3v10c1 11 3 12 24 10 5 0-3-3-9-3q-11 1-10-11l-1-8q-2-4-4 2m137-1v20c0 2 22 4 24 2q2-2-9-3c-10-1-10-1-11-12q0-11-2-10-2 0-2 3m69 1c-2 3-1 18 1 20 2 3 19 3 21 1q1-4-3-3c-2 1-12-1-13-3l-1-6q-1-16-5-9m67-1c-1 5-1 18 1 20s20 3 22 1q2-3-9-3-10 1-9-11c0-6-3-11-5-7m69 2c-3 8 0 19 5 21l18-1q1-3-8-3-11 1-10-10-1-13-5-7m-272 0c-2 1-1 18 1 19 3 1 16 2 18 1q2-3-7-4-8 1-9-10 0-8-3-6M0 214q-1 4 4 3 13-2 1-5-6-1-5 2m91 12v21l3 3h19q5-3-8-4-11 1-9-10 0-13-5-10m138 0c-2 1-1 21 1 23 2 3 23 2 23 0q0-2-7-2c-11 0-13-2-12-14q0-7-5-7m201 1c-2 2-1 21 0 23s2 2 12 2q24-1 4-3c-11-1-12-2-12-12q0-15-4-10m-271 6q-1 14 1 17c3 2 21 1 22 0q3-2-9-4-10 1-9-10-2-16-5-3m136-4c-1 6 0 19 3 20 2 2 16 3 20 2q6-2-6-3-13 0-12-10 0-12-3-11zm68 1c-1 4 0 19 2 20 1 1 20 2 21 1q1-3-6-3-13 1-12-11l-1-7q-2-4-4 0m204 0c-1 4-1 19 1 21 2 1 20 3 22 1q3-3-8-3-12 0-10-10 0-15-5-9m-544 0c-1 2 0 18 1 20 1 1 17 1 19-1q2-2-7-3-8 1-8-9 0-12-5-7m681 0c-2 2-1 18 1 20 1 2 19 3 21 1q2-1-8-2c-8-1-9-2-10-11q0-11-4-8m-68 2-1 10c0 10 1 11 14 11q15-1 6-3c-13-1-14-2-15-12q-2-13-4-6m-137 0v19c1 2 18 2 19 0q3-2-6-2-10-1-9-8-1-12-4-9m-375 29v18q0 5 14 6l10-1c2-2-4-4-9-4q-11 3-10-11l-1-9q-3-3-4 1m136 0v12c1 12 1 12 15 12q18-2 2-3c-10-1-11-2-11-12q0-11-4-11zm69 1-1 10c0 13 1 13 14 13q19-2 3-3c-11-1-12-1-11-11l-1-9q-3-4-4 0m68 0c-2 1-1 20 1 21 2 2 19 3 21 2q4-3-7-3a9 9 0 0 1-12-12q0-12-3-8m-202 1-1 7c0 12 0 12 3 14 6 2 21 1 19-2l-7-1q-12 1-11-13-1-8-3-5m270 0-1 10c1 12 1 13 14 13q17-1 2-3c-10-2-11-2-11-12q0-10-2-9zm136 0v18c1 6 2 6 14 5q17-1 1-3c-9-1-9-2-10-12q-1-13-5-8m67 0c-1 3 0 19 2 21s20 3 22 2q1-3-8-3c-10 0-11-1-11-11q0-14-5-9m-611 2c-1 3-1 16 1 18 2 1 15 2 19 1q5-3-6-4-10 1-9-9-1-12-5-6m475 1c-2 4-1 18 1 19 3 2 19 1 19-1l-2-1c-12-1-14-2-14-11q0-12-4-6m206-1-1 10c0 10 1 11 13 11q16-2 4-3c-9 0-10-1-12-11l-1-8zM0 282q-1 3 6 2 6 0 6-2t-6-2q-7-1-6 2m159 14v17q1 6 13 5c13 1 14-3 1-4q-10 2-9-9-2-16-5-9m137 0-1 10c0 13 1 14 14 13q21-1 1-3c-9-1-10-2-11-12q-1-13-3-8m133-1c-2 2-1 21 1 23 2 3 23 3 23 1q1-3-9-3-12 1-10-11 0-13-5-10m-406 2c-2 3-1 18 1 19 1 2 19 3 20 1q1-3-8-3-9 1-8-9-1-14-5-8m340-1c-1 3-1 19 1 21s18 4 21 2q4-3-6-3l-9-1c-2-1-4-11-2-14 1-3-3-8-5-5m-273 2c-2 3-1 16 0 19 2 1 18 2 21 0 3-1-2-3-7-3q-10 1-9-9 0-8-3-9zm408 0c-2 3-1 19 1 20 3 3 22 3 22 1l-2-2c-16-1-17-1-17-10s-2-15-4-9m-270 1-1 10c0 10 1 11 12 10q18-1 3-4-11 0-9-10l-1-6q-3-4-4 0m407-1c-1 3 0 19 2 21s14 3 21 1q5-2-8-3-12 0-10-10 0-12-5-9m68 1-1 9c0 11 1 12 12 13q21-2 3-3-10 0-10-10l-1-9q-1-4-3 0m-136 2-1 8q-2 12 13 11 14-1 1-3-10 0-9-9 0-11-4-7m-239 39c0 11 0 12 2 13 3 1 21 1 22-1 2-1 2-1-8-2-10-2-11-3-12-12 0-10 0-10-2-10s-2 1-2 12m68-10-1 20q1 4 15 4c14 0 15-4 1-4-10-1-11-2-11-12l-1-8q-2-4-3 0m-339 0c-2 3-1 18 1 20 2 3 17 4 20 2q3-4-7-4-10 1-9-10 0-11-5-8m67 0c-2 2-1 19 1 21s15 3 19 1q4-2 0-3l-14-2-2-9q-1-11-4-8m544 0c-1 2-2 16 0 20q0 4 3 4h21q2-3-9-3c-9 0-10-1-11-13q-1-12-4-8m-474 1c-2 2-1 18 1 20s18 3 20 1q1-3-6-3-12 1-11-11 0-9-4-7m66 1v17q0 4 13 4 19-1 2-4-11 0-10-8-1-15-5-9m204-1c-2 3-1 19 2 22 2 2 19 2 21 0q2-2-1-2c-15-1-17-2-17-9q0-16-5-11m68 0c-2 1-1 20 1 21 2 2 21 3 21 1q0-2-7-2-12 0-11-11 0-13-4-9m205 1-1 16q-1 8 12 7 15 0 11-3l-7-1q-12 1-11-11 0-13-4-8m-136 4c-2 3-1 16 0 17h19q0-2-5-2-10 0-10-10l-1-6q-1-2-3 1M0 351c0 2 0 2 12 1l2-1q1-2-7-2t-7 2m22 11v23c2 3 26 5 27 1q2-3-14-3c-7 0-7-1-8-11l-1-11q-4-2-4 1m67 3c-2 4-1 19 1 21s22 2 24 1q1-3-7-3-13 1-13-11-1-17-5-8m139 0c-2 5-1 19 0 21 2 3 23 3 23 0q-1-2-13-2-6 0-6-10c0-9-3-15-4-9m135-1v23c1 3 23 3 25 1q2-3-8-3-15 1-13-11 0-15-4-10m135 0-1 12c0 14 0 14 14 13q23-1 3-4c-12 0-12 0-13-13q0-11-3-8m69 2c-3 2-2 18 1 22 2 2 21 2 21 0q1-2-7-2c-11 0-12-1-12-12q0-13-3-8m135 0c-2 24-1 24 13 24q25-1 3-4c-10-1-12-2-12-13q0-10-2-9zm-544 1c-2 3-1 16 1 19 1 2 20 3 22 1q-1-2-9-3-10 1-9-9 0-15-5-8m137 1-1 10c0 10 1 11 13 10q13 1 10-2l-8-1q-13 0-11-10c1-9-2-14-3-7m340 2v8c0 10 1 11 12 11q17-1 2-3-11 0-10-9 0-11-4-7m-206 1c-2 0-1 13 1 16 1 2 2 2 12 2q16 0 13-3l-10-1c-10 0-11-1-12-8q-1-8-4-6M57 397c-2 2-2 19-1 21 3 4 28 4 26 0l-7-1c-12 0-14-2-14-11q0-13-4-9m202 11q0 11 2 12c3 2 21 1 21-1q0-2-7-2c-9 0-10-2-11-10q0-12-3-11c-2 0-2 0-2 12m136-10c-2 4 0 20 2 22 3 2 23 1 23 0q0-2-4-2l-11-1q-6 0-6-12 0-13-4-7m-272 1c-1 2 0 17 1 19q0 4 13 3 18-2 1-4-12-1-11-10c1-7-3-14-4-8m341-1-1 11c0 13 1 13 14 13q21-2 2-4c-11-1-11-1-11-11q0-12-4-9m-137 1c-1 3 0 19 2 20 1 2 19 3 20 1q0-3-8-3-10 1-9-10l-1-7q-1-3-4-1m204 3-1 8q0 8 3 10c2 1 20 2 21 1q2-3-10-3-9 1-9-12 0-9-2-8-2 0-2 4m205-1c-2 6-1 20 0 21h23q6-3-7-3-14 1-12-11l-1-8q-2-4-3 1m-136 0v9c0 11 1 12 13 12q15-2 2-3c-8-1-9-2-10-11q-1-13-5-7m-407 1c-2 3-1 15 1 17q0 2 9 2 21-1 4-4-11 0-10-10-2-11-4-5m475-1c-2 3-2 16 0 19q0 2 10 2 21-1 2-3-8 0-8-10 0-11-4-8M0 418c0 2 11 3 13 1q3-2-7-3-7-1-6 2m89 10c-2 1-1 25 1 27 3 1 24 2 27 0q3-3-11-3c-12-1-12-1-12-13q1-15-5-11m-68 2c-2 8-1 23 3 25h22q3-3-8-4c-10 0-11-1-11-12q0-11-4-11zm407 0-1 12c0 14 1 15 14 15q24-1 4-4c-12-1-12-1-12-13q-2-18-5-10m-271 2c-1 3 0 20 2 22s17 3 21 1q4-2-8-3-11 2-10-12 0-12-5-8m340 3c-2 7-1 17 1 20 1 2 2 2 12 2q14 0 12-3l-10-1c-11 0-11-1-12-21q-2-3-3 3m-202-2-1 10c-1 13 0 14 12 13q21-1 3-4c-10-1-11-2-11-10q0-13-3-9m66 6q0 14 3 16c4 2 18 3 20 1q4-3-8-4c-9 0-9-1-10-11q0-8-2-8-2-1-3 6m205-4c-2 4-1 19 1 20 3 3 25 2 22-1l-8-1a9 9 0 0 1-12-12q-1-11-3-6m-339 0-1 11q-1 10 3 10c2 1 11 1 17-1q5-2-6-3-10 0-9-10 1-11-4-7m408 0c-2 4-2 20-1 21 1 2 21 1 22 0q3-2-4-2-15 0-14-10c1-7-2-14-3-9m67 2c-4 17-2 20 11 20q21 0 3-4-12 0-10-10-1-12-4-6m-579 25c-2 2-1 24 0 26 2 1 25 2 26 0q2-2-9-3t-12-3l-1-9q0-16-4-11m-67 3c-2 3-1 21 1 22 2 3 24 2 24 0q1-2-8-2-13 1-12-9 0-17-5-11m407 1-1 12c1 12 1 12 15 12q18-1 2-3c-10-1-11-2-11-10q-1-17-5-11m67 2-1 11c1 12 1 12 14 11q23-1 1-3-10 0-9-9-1-19-5-10m-271 0c-2 3-1 19 0 20 3 2 19 2 21 0q4-2-6-3-11 1-10-8-1-15-5-9m68 1q-3 15 2 20h19q5-2-6-3-11 1-11-11l-1-8q-2-3-3 2m68-2v21q1 2 13 2 19 0 2-4c-9-1-11-2-11-11q0-11-4-8m205 0-1 18q-1 7 12 6 15 0 11-3l-8-1q-10 2-10-10t-2-11zm67 1c-2 4-1 20 0 21 2 2 21 3 23 1q2-2-7-3c-11-1-12-2-12-13q-1-12-4-6m-474 0c-1 3-2 15-1 18s2 4 13 3q18 0 1-4-10 1-9-7c0-8-3-14-4-10m543 2q-2 1-2 9c0 11 1 12 13 12q16-2 4-3-11 0-11-10-1-12-4-8M0 486q-1 4 4 3 13-1 1-4-6-2-5 1m89 12-1 7q-1 9 3 7 4 1 2-9-1-8-4-5m68 1-1 8q-1 6 3 5 4 1 3-5c0-8-4-14-5-8m-136 1-1 7-1 5h7v-5q0-6-2-7-2-3-3 0m406 1-1 6q-1 6 3 5 4 1 3-5l-2-6q-2-3-3 0m70-1-1 7q-2 6 2 5 3 2 2-6-1-10-3-6m-271 1-1 6q-1 6 3 5 4 1 3-5-1-10-5-6m135 1-1 6q-1 5 3 4 4 1 3-4 0-7-3-8zm204 0-1 6q0 5 2 4 4 1 3-4l-1-6q-2-4-3 0m136-1-1 6q-1 6 3 5 4 1 3-4 0-11-5-7m-407 2q-3 10 1 9 5 1 2-8-1-3-3-1m340 0-1 5a3 3 0 1 0 5 1q0-10-4-6"
        mask="url(#16282281824-posters-1720558180037-vertical-mask)" itemprop="medium" fill-opacity="0.90"
        fill-rule="evenodd" stroke="none" fill="url(#16282281824-posters-1720558180037-vertical-medium)"></path>
      <!---->
      <path id="16282281824-posters-1720558180037-bold"
        d="m60 5 1 6c1 1 21 2 21 0q1-2-8-2T64 2l-2-2q-4-1-2 5m66 0 2 6h22q1-2-8-2c-9 0-10 0-11-5q-4-10-5 1m69-2c0 8 1 9 12 9l10-1q2-2-6-2-9 0-10-6-4-7-6 0m67 2 1 6h20l-1-1-14-3-2-4q-3-7-4 2m69-4q-3 12 13 11l9-1c0-1-6-2-8-1q-7-1-10-7c0-3-4-4-4-2m68 3c0 7 1 8 11 8l11-1-6-1q-12 0-12-7 1-3-2-3-2 0-2 4m68 0 2 6c3 3 20 4 18 1l-5-1q-10 0-11-7-3-7-4 1m67 1c0 7 1 8 11 8l10-1q2-2-6-2-9 1-10-6-4-9-5 1m70-1q-2 9 10 9 13 0 11-2l-7-1q-10 0-9-7 1-4-2-3-4-1-3 4m67 2c0 7 1 8 13 8q19-2 1-3-10-1-10-8 1-3-2-3-2-1-2 6m70-1q1 9 8 8h11q1-2-6-2-10 1-10-9l-2-2q-3 0-1 5M0 10q-1 3 7 2 20-1 0-3-8-2-7 1m26 11c-2 1-1 22 1 23h19q8-2-4-2-15 2-13-13 1-11-3-8m67 2-1 11v9l3 1c3 1 19 1 20-1q2-1-6-1-13 2-12-12 0-9-3-9zm68 1c-1 2-1 16 1 18 1 2 15 4 19 3q5-3-6-3c-9 0-10-1-10-11q0-12-4-7m271-1-1 11c0 11 1 12 11 12q17 0 4-3c-10-1-11-2-11-11q0-12-3-9m-202 3v18c2 3 19 2 20 0q1-2-6-2-11 1-10-11 0-10-4-5m135 7c0 13 0 13 12 13q15-2 2-3c-8-1-10-2-10-11q0-8-2-8-2-1-2 9m136-6-1 9c0 9 1 10 11 10q13 0 8-2h-2c-2 1-9-2-11-4l-2-7q-1-12-3-6m137 3q-1 9 2 14c2 2 18 3 18 1l-5-1q-12 0-12-12 0-11-3-2m-340-2c-2 2-1 14 1 16s12 2 14 1q4-3-4-3-8 1-8-8 0-8-3-6m271 6c-1 11 0 12 11 12l9-1-9-3q-7 1-7-9-1-11-4 1m137-2c-2 15-2 15 15 14q10-1-2-2-9 1-10-10-1-14-3-2M127 55c-2 2-2 22-1 24 1 1 25 2 25 0q1-2-11-3-12 1-10-10 0-14-3-11m-67 1-1 10c0 14 0 14 14 14q21-1-1-3c-8-1-8-1-9-12q0-13-3-9m203 1c-2 1-1 23 1 23h22c1-2-5-3-10-2q-10 2-10-13 0-12-3-8m136 1c-2 2-1 20 0 21 1 2 17 3 21 2q6-2-7-3-13 2-12-13 0-11-2-7m-203 7-1 11 1 4h11l11-1-7-1a9 9 0 0 1-12-11q-1-17-3-2m272-6c-2 2-2 13-1 17 1 5 2 5 14 5q16-1 0-2c-9-1-10-2-11-12q0-11-2-8m202 5q-1 13 3 16c2 1 20 2 20 0l-6-1q-13 1-12-11-2-16-5-4m-135-4-1 9c0 11 1 12 12 12q15-1 3-3-12 1-11-11-1-11-3-7m206 1-1 19c1 1 17 2 19 1q5-2-4-2-12 1-12-11 0-10-2-7m-410 1v16q0 4 13 3 10-2 0-3-10 0-9-8 0-11-4-8m273 8 1 10h19l-5-1q-11 1-11-9c0-12-4-13-4 0M0 78q-1 3 6 2l6-1-2-2-6-1q-5 0-4 2m92 11c-3 3-1 21 3 23 2 2 21 2 21 1q3-2-9-2c-10-1-10-2-11-13q0-13-4-9m68 4 2 19c0 3 22 3 22 1q1-2-8-2c-10-1-11-2-12-12l-1-9q-2-3-3 3m270-1c-1 2 1 20 2 22 1 1 23 2 23 0l-8-2c-10-1-12-2-12-11l-1-9q-1-3-4 0M25 92l-1 10c1 12 1 12 11 12q21-1 4-4c-9 0-10-2-11-10q-1-12-3-8m205 1c-2 7-2 17 0 19s18 3 21 2q3-3-7-3-12 0-10-9c1-7-3-15-4-9m67 4q-1 9 1 15c1 2 20 3 20 1q0-2-7-2c-9-1-10-2-11-12q-1-13-3-2m202-4c-1 4 1 17 2 20 2 2 2 2 12 2q17-2 5-2-10 0-14-4l-1-9q-1-11-4-7m206 9c0 12 1 13 14 13l8-1-7-1q-12 2-11-12 1-9-2-8-2-1-2 9m-135-7-1 15q0 6 12 5 15-1 2-3c-9-1-10-2-11-11q0-9-2-6m68 1-1 9q0 13 5 11l9-1 7-1-6-1q-11 1-11-11-1-9-3-6m-273 4v7q-2 8 10 8l8-1q3-1-7-2-7-2-7-8c0-7-4-11-4-4m-240 32c0 14 0 15 14 16q13 0 12-2l-9-1q-10-1-12-4l-1-10q1-10-2-9-2-2-2 10m138-7c-3 5-2 22 1 23h19q5-3-6-3-12 2-11-12-1-11-3-8m-67 7c0 11 0 13 2 15h17q6-2-4-2-15 1-13-12 1-7-1-8zm270-5c-2 3-1 18 1 20s22 3 22 1l-7-1q-15 2-13-13 0-12-3-7m-407 1c-2 3-1 16 0 17 2 2 19 3 21 2q1-3-8-3-10 1-9-10-1-12-4-6m272-1-1 10c0 12 0 13 13 12q18-3 0-4-10 2-9-10 0-12-3-8m202 2c-1 3 1 17 2 18 1 2 22 3 21 1l-7-1c-10 0-12-2-12-15q-1-10-4-3m137 7c0 13 0 13 13 13q16-1 1-2c-8-1-10-2-10-11q0-10-3-9zm-272-7-1 9c0 10 1 11 12 11q15-1 1-3c-9-2-9-2-9-9q0-11-3-8m206 0v19h18l-4-1q-11 1-11-11 0-9-3-7m135 8c0 11 1 12 13 12l9-1-6-1a9 9 0 0 1-12-12q1-8-2-7-2-1-2 9m-579 23-1 10q0 14 6 12h8l8-1q6-2-5-2-13 1-12-11l-1-9q-1-5-3 1m70 0q-3 4-1 16l1 7h11q13 0 11-3l-8-1q-12 1-10-11 0-13-4-8m-206 8c0 14 1 15 16 13q12-1-1-2c-9-1-11-2-11-11q0-10-3-9zm67 1c0 13 1 14 15 12q15-1 0-3-11 1-11-8c0-10 0-11-2-11q-2-2-2 10m409-9c-2 1-1 21 0 22l12 1q12 0 10-1l-7-1c-11 0-12-1-12-14q0-10-3-7m-203 2v18c2 3 18 5 21 2q3-3-8-3c-9 0-10-1-10-11q0-11-3-6m68 0v19q-1 3 9 2 15 0 8-2l-4-1c-3 3-12-6-10-9 2-4 0-12-3-9m66 1-1 8c0 12 1 12 15 12q11-1 1-2-11 1-11-11-2-10-4-7m137 8 1 11c2 1 14 2 18 1l4-1h-5l-7-1q-6 2-7-9 0-11-3-10zm137-8c-1 2 0 17 1 18 1 2 14 4 18 2q4-2-6-2-10 1-9-10 0-11-4-8m-68 10c1 11 0 11 13 10q13-1 1-2-11-1-10-9-1-9-3-8zm-375 22c-2 14-1 18 4 21 4 1 20 2 20 0q0-2-10-2-12 1-10-11-1-18-4-8m-203-1v19q-1 2 6 2 14 3 15 1 4-3-7-3c-9 0-10-1-11-10q-1-11-3-9m66 4-1 9c0 8 2 10 16 10q18-3-2-4-11 1-9-11 0-10-3-9zm70-4v20l1 3h10q25-1 4-3-13 0-12-11 0-12-3-9m135 0c-1 2 0 20 1 21 2 2 21 3 21 1l-3-1c-6 0-14-2-14-4l-1-9q-1-11-4-8m204 1-1 9v9q0 3 3 4h20l-6-1c-12 0-13-1-13-13q-1-13-3-8m-136 0v19c1 3 2 3 12 3q17-1 1-2-11-1-11-11 1-14-2-9m205 2c-2 1-1 20 1 20h20l-6-1q-13 1-12-12-1-10-3-7m67 4-1 9q-2 9 12 8 14 0 10-2l-8-1q-11 1-10-13-2-11-3-1m69-2c-1 3-1 15 1 17 1 2 20 3 20 1l-6-1q-13 1-12-13 0-9-3-4m-273 0c-2 0-1 15 0 17 2 1 13 3 17 2q5-2-5-3-9 0-9-10 0-8-3-6M92 227c-2 2-2 14-1 18 1 5 3 5 15 5q14-2 0-3c-9-1-11-2-11-11q0-14-3-9m137 0c-2 1-1 19 1 22 3 2 20 3 22 1q1-2-6-2-14 1-13-13-1-10-4-8m-69 1c-2 1-1 21 1 21h21l-2-1c-15 0-17-2-17-13q0-9-3-7m137 0-1 10c0 12 0 12 12 13q14 0 10-2l-9-1c-8 0-9-1-10-11q0-11-2-9m133 6 1 17c2 2 23 1 22-1h-7q-13 2-13-13l-1-9q-2-4-2 6m-65-5c-2 4-1 19 1 20 1 2 16 3 19 1l1-1-6-1c-12-1-13-2-13-12q0-9-2-7m203 1c-2 5-1 17 1 20 1 2 2 2 12 2l10-1-6-1q-15 1-14-12-1-12-3-8m-544 3v16h14q9-1-1-2-10 1-10-12-1-9-3-2m681-2c-2 2-1 16 0 19q0 3 10 2l10-1-3-1c-12 0-14-2-15-13q0-8-2-6m-206 9c-1 12-1 12 10 12l9-1-3-1q-12 1-13-12-2-13-3 2m137 0c0 13-1 12 12 12l10-1-3-1q-16 2-15-9 0-10-3-10zm-511 20c-2 1-1 19 1 21 2 3 22 5 22 2l-11-2q-8 2-9-12-1-12-3-9m137 1-1 11c0 12 0 12 13 12q17-1 0-2c-8 0-8-1-9-12q-1-14-3-9m68 1-1 9c-1 12-1 13 13 13q11 0 9-1l-8-1q-12 1-10-11l-1-8q-1-4-2-1m66 3c-1 4 0 16 2 17 2 2 21 4 21 2q-1-2-8-2c-10 0-11-1-11-10s-2-14-4-7m69 7v10l3 2c3 2 14 2 19 1l-7-2c-10-1-11-2-11-9q0-11-3-12zm137-9v23h9q18 0 5-2-11 0-10-12-1-12-4-9m67 0c-2 3-1 18 1 21 3 2 21 3 21 1l-6-1c-11 0-13-2-13-14q0-10-3-7m-474 1-1 8c0 11 1 11 12 12q17-1 3-2c-9-1-11-2-11-12q-2-10-3-6m-138 5q0 9 2 14c1 1 14 2 17 0q4-2-4-2-11 1-11-11-2-11-4-1m476-2c-2 4-2 13-1 16s1 3 10 3l9-1q2-2-7-2-9 1-9-12 0-10-2-4m205 0c-2 4-1 15 1 17 3 1 18 2 19 1l-8-2q-9 1-9-14 0-6-3-2m-578 29-1 9v9l3 2c4 2 19 3 19 1l-1-1h-9q0 2-6-3-2-1-2-9-1-10-3-8m136 7c0 17-2 16 22 15 4 0-1-1-6-2-12 0-12-1-14-13q-2-15-2 0m134-7-1 10c-1 13 0 14 14 14q17-2 3-3-16 1-14-14c1-5-1-10-2-7m-407 3c-1 4-1 14 1 17 1 2 10 2 17 1q6-1-4-2-10 0-10-10-1-13-4-6m341-1v18c2 2 21 3 21 2q0-2-7-2c-10 0-11-1-11-11q-1-13-3-7m135-1-1 11c0 11 1 12 13 12q17-1 1-3c-10-1-11-1-11-11q0-13-2-9m-408 1c-2 1-1 18 0 19h19q0-2-6-2-10 0-10-10 0-12-3-7m546 0c-2 2-1 19 0 21l12 1q17-1 1-3-11 1-10-8-2-14-3-11m-409 5v8c-1 8 0 8 13 7q13-1 3-2-13 1-12-12 0-7-2-6-2 0-2 5m475-3-1 9c1 10 2 11 14 11q15 0 1-2c-9 0-10-2-11-11v-8q-1-2-3 1m-135 1-1 8v8l4 1c4 2 14 3 14 1l-2-1-7-1q-6 0-6-10 0-9-2-6m-239 29-1 11c0 12 0 12 13 12l10-1c4 0-1-2-7-2-10 0-11-1-12-13q-1-12-3-7m67 6 1 15c1 2 19 3 22 1q2-1-4-1-18 1-15-11 0-11-3-12zm-339-5c-1 3-1 15 1 18s2 3 11 3c12 0 12-4-1-4q-7 0-7-10 0-11-4-7m68 0c-2 2-1 18 0 20 1 1 21 2 21 0l-8-2c-9-1-9-1-10-10q-1-11-3-8m340 0c-1 1 0 20 1 21h20q2-1-6-1c-10 0-11-1-12-11q-1-12-3-9m203 6c-1 15 0 17 10 17q24 1 5-2c-10-1-11-2-11-13q0-10-2-9-2-1-2 7m-475 1c-1 12 0 13 12 14l10-1-6-1q-13 1-12-13-1-13-4 1m68-5v17q3 3 5 2h15q3 0 0-1l-7-1q-10 1-10-11-1-12-3-6m271 0c-2 3-1 16 1 18 1 2 2 2 11 2l10-1-7-1q-13 2-12-12-1-13-3-6m205 0c-2 1-1 18 1 19 1 2 9 3 15 3l6-1c3 0-3-2-8-2-9-1-9-2-10-12q-2-10-4-7m-135 3c-2 8-2 16 0 16l16 1q5-1-3-2l-6-1c-2 0-5-6-5-9q1-11-2-5M22 373c0 12 0 12 3 13h24l-14-2q-9 2-9-12c0-10 0-11-2-11q-3-1-2 12m68-9v22h24l-4-1c-14 0-16-2-16-13l-1-8-2-2zm273 0c-2 2-1 18 0 22 2 3 2 3 12 3q24-1 2-4c-10-1-11-1-11-13q0-11-3-8m-135 2v19c2 3 22 4 22 1l-7-1q-12 2-12-10-1-16-3-9m270-1v21c1 3 2 3 12 3l11-1-7-2h-6q-8-1-8-13v-8zm205 0c-2 1-1 22 0 23l13 1 11-1-11-1q-11 1-10-13 0-11-3-9m-544 2c-2 3-1 18 0 19h21l-6-1q-14 0-11-13c1-4-3-9-4-5m137 1c-2 6-1 17 1 19h19c3 0-4-2-9-2q-10 1-9-11 0-13-2-6m270-1c-1 2 1 16 2 19 1 2 2 3 11 3l10-1-7-1q-14 2-13-12l-1-10zm70 4c-1 6 0 14 2 16 1 2 17 3 17 1l-6-1q-12 1-11-11l-1-6zm-207 1c-2 2-1 12 2 15 2 2 15 3 22 1h2l-2-1-6-1q-16 0-15-8 1-10-3-6M57 398c-2 1-1 20 0 21 2 1 23 2 24 0q1-2-9-2-13 2-12-12 0-12-3-7m66 1c-1 3 0 16 2 20l9 1q18-2 3-3-11 0-11-12 0-10-3-6m136 8c1 13 1 13 12 13q20-1 3-3-11 1-10-9 0-11-3-11c-2 0-2 0-2 10m136-8 2 20c2 2 21 3 22 1q2-1-3-1c-16-1-18-2-18-15q0-11-3-5m70 0c-2 2-1 19 0 20 1 2 22 3 22 1l-6-1c-12 0-14-2-14-13q0-9-2-7m-137 7q-4 16 12 15 18-1 0-3-8-1-8-9-1-18-4-3m203 2c0 12 1 13 13 13l9-1-7-1q-12 2-12-12 0-8-2-8zm70-7c-2 3-1 15 1 18q0 2 10 2t8-1l-7-1q-9 1-9-12 0-10-3-6m135 9 1 12h9q24-1 5-3a9 9 0 0 1-12-11q1-10-2-9zm-543-1c0 11 1 12 12 11q15-1 1-3-10-1-9-5v-6q0-5-2-5-2-1-2 8m475-6v16q-1 2 10 2 17-1 3-2-9 1-10-10 0-10-3-6M22 429l-1 12c0 13 0 14 15 14l10-1q0-2-10-2-11 1-10-14 0-13-4-9m67 4 1 19 1 3h13l13-1-8-1c-14 0-15-1-16-15q0-11-2-10-2 0-2 5m340-3-1 11c0 15 0 15 13 15q22-1 4-2c-12-1-13-1-13-14q-1-15-3-10m69 2c-2 1-1 23 1 23h22l-8-1c-11 0-12-1-13-13q0-13-2-9m-340 1v18q0 6 18 4 10-1-3-2-13 1-12-13 0-10-3-7m137 1-1 10c0 12 1 12 14 11q15-1 0-2-11 0-11-10 1-12-2-9m68 0c-2 1-1 19 0 20 2 1 17 3 20 2q2-3-9-3-9 1-8-11 0-11-3-8m-135 2-1 10c0 10 0 10 12 9q13-1 2-2-12 1-10-11-1-11-3-6m338 0-1 9c0 10 1 11 13 11q19-1 3-2c-10-1-11-2-12-12q-1-11-3-6m68 0v11l1 10h9q11 0 12-2 2-1-6-1c-11 0-12-1-12-11q0-11-4-7m68 8q-2 15 7 13l8-1q11-1-1-2-12 0-10-12l-3-6zm-580 20c-1 5 0 22 2 23 2 2 25 3 25 1q-1-2-10-2c-11-1-12-2-13-13v-10q-1-2-4 1m-65 1c-2 1-1 21 1 23 2 1 21 2 22 0q3-2-8-3c-10 0-11-2-12-12q0-12-3-8m407 1v22l15 1q15 0 0-1c-10-1-12-2-12-11q0-14-3-11m67 1c-2 5-1 21 0 22h23l-2-1c-17 0-17-1-18-11q0-13-2-12zm-203 0v20c1 2 21 3 21 1l-5-1q-15 2-13-13-1-9-3-7m-68 1c-2 1-1 19 0 20 2 2 20 1 20 0q0-2-7-2c-8-1-9-2-10-11q-1-10-3-7m135 2c-1 3-1 16 1 18 1 1 16 2 19 1l2-1c-17-2-19-3-19-13q0-11-3-5m205-2c-2 2-1 19 1 21 1 1 19 2 21 0q1-1-5-1-12 0-13-5v-4l-1-7q-1-8-3-4m67 1v20h22l-5-1-10-1q-3-3-4-14l-1-6zm-474 6v11l1 3h8q16 0 7-2c-13-3-12-2-14-14q-1-10-2 2m543-4v17c1 2 20 3 20 1l-6-1q-12 1-11-10 0-12-3-7M89 499c-2 4-1 13 1 13q4 1 3-9-1-9-4-4m69-1-1 7q0 8 2 7 3 1 2-6 0-12-3-8m-136 2-2 7-1 5h3q4 0 4-4c0-5-3-12-4-8m475 1c-2 4-1 11 1 11q3 2 1-6 0-9-2-5m-271 2q-3 8 2 9 3 1 2-4 0-12-4-5m202-2-1 6q-1 6 3 5 3 1 2-3 0-10-4-8m273 1v6q0 5 2 4 4 1 3-4-1-7-3-8zm-339 0-1 5q-1 6 3 5 3 1 2-3 0-9-4-7m203 5q0 6 2 5c2 0 3-8 1-10q-3-4-3 5"
        mask="url(#16282281824-posters-1720558180037-horizontal-mask)" itemprop="bold" fill-opacity="0.90"
        fill-rule="evenodd" stroke="none" fill="url(#16282281824-posters-1720558180037-vertical-bold)"></path>
    </pattern>
    <rect id="16282281824-posters-1720558180037-pattern-render" fill="url(#16282281824-posters-1720558180037-pattern)"
      width="100%" height="100%"></rect>
  </defs>
  <radialGradient id="lightbar" cx="50%" cy="200%" fy="0" r="201%">
    <stop offset="0%" style="stop-color: rgb(255, 255, 255); stop-opacity: 0.1;"></stop>
    <stop offset="10%" style="stop-color: rgb(0, 0, 0); stop-opacity: 0.1;"></stop>
    <stop offset="30%" style="stop-color: rgb(0, 0, 0); stop-opacity: 0.3;"></stop>
    <stop offset="90%" style="stop-color: rgb(0, 0, 0); stop-opacity: 0.55;"></stop>
    <stop offset="100%" style="stop-color: rgb(0, 0, 0); stop-opacity: 0.6;"></stop>
  </radialGradient>
  <g class="radial">
    <radialGradient id="16282281824-posters-1720558180037-radial" gradientUnits="userSpaceOnUse">
      <stop itemprop="radial" stop-color="#dfdedd" offset="0%"></stop>
      <stop itemprop="radial" stop-color="#dfdedd" offset="15%"></stop>
      <stop itemprop="radial" stop-color="#dfdedd" offset="30%"></stop>
      <stop itemprop="radial" stop-color="#dcdcda" offset="45%"></stop>
      <stop itemprop="radial" stop-color="#e1e1df" offset="60%"></stop>
      <stop itemprop="radial" stop-color="#e1e1e0" offset="75%"></stop>
      <stop itemprop="radial" stop-color="#dcdbdb" offset="90%"></stop>
    </radialGradient>
    <radialGradient id="16282281824-posters-1720558180037-radial-background" gradientUnits="userSpaceOnUse">
      <stop stop-color="#d3cec5" offset="0%"></stop>
      <stop stop-color="#d3cec5" offset="15%"></stop>
      <stop stop-color="#d3cec5" offset="30%"></stop>
      <stop stop-color="#d3cec5" offset="45%"></stop>
      <stop stop-color="#d3cdc5" offset="60%"></stop>
      <stop stop-color="#d3cec5" offset="75%"></stop>
      <stop stop-color="#d3cec5" offset="90%"></stop>
    </radialGradient>
    <radialGradient id="16282281824-posters-1720558180037-radial-light" gradientUnits="userSpaceOnUse">
      <stop stop-color="#9b9a97" offset="0%"></stop>
      <stop stop-color="#9b9a97" offset="15%"></stop>
      <stop stop-color="#9b9a97" offset="30%"></stop>
      <stop stop-color="#9c9a96" offset="45%"></stop>
      <stop stop-color="#9c9a96" offset="60%"></stop>
      <stop stop-color="#9b9a97" offset="75%"></stop>
      <stop stop-color="#9b9a97" offset="90%"></stop>
    </radialGradient>
    <radialGradient id="16282281824-posters-1720558180037-radial-regular" gradientUnits="userSpaceOnUse">
      <stop stop-color="#82807d" offset="0%"></stop>
      <stop stop-color="#82807d" offset="15%"></stop>
      <stop stop-color="#82807d" offset="30%"></stop>
      <stop stop-color="#83817c" offset="45%"></stop>
      <stop stop-color="#83807c" offset="60%"></stop>
      <stop stop-color="#82807d" offset="75%"></stop>
      <stop stop-color="#82807d" offset="90%"></stop>
    </radialGradient>
    <radialGradient id="16282281824-posters-1720558180037-radial-medium" gradientUnits="userSpaceOnUse">
      <stop stop-color="#514f4d" offset="0%"></stop>
      <stop stop-color="#514f4d" offset="15%"></stop>
      <stop stop-color="#514f4d" offset="30%"></stop>
      <stop stop-color="#51504d" offset="45%"></stop>
      <stop stop-color="#514f4d" offset="60%"></stop>
      <stop stop-color="#514f4d" offset="75%"></stop>
      <stop stop-color="#514f4d" offset="90%"></stop>
    </radialGradient>
    <radialGradient id="16282281824-posters-1720558180037-radial-bold" gradientUnits="userSpaceOnUse">
      <stop stop-color="#2f2e2d" offset="0%"></stop>
      <stop stop-color="#2f2e2d" offset="15%"></stop>
      <stop stop-color="#2f2e2d" offset="30%"></stop>
      <stop stop-color="#2f2e2d" offset="45%"></stop>
      <stop stop-color="#2f2e2d" offset="60%"></stop>
      <stop stop-color="#2f2e2d" offset="75%"></stop>
      <stop stop-color="#2f2e2d" offset="90%"></stop>
    </radialGradient>
  </g>
  <g class="vertical">
    <linearGradient id="16282281824-posters-1720558180037-vertical" gradientUnits="userSpaceOnUse" x1="0" x2="0" y1="0"
      y2="100%">
      <stop itemprop="vertical" stop-color="#dfdedd" offset="0%"></stop>
      <stop itemprop="vertical" stop-color="#dfdedd" offset="15%"></stop>
      <stop itemprop="vertical" stop-color="#dfdedd" offset="30%"></stop>
      <stop itemprop="vertical" stop-color="#dcdcda" offset="45%"></stop>
      <stop itemprop="vertical" stop-color="#e1e1e0" offset="60%"></stop>
      <stop itemprop="vertical" stop-color="#e1e1e0" offset="75%"></stop>
      <stop itemprop="vertical" stop-color="#dcdcdb" offset="90%"></stop>
    </linearGradient>
    <linearGradient id="16282281824-posters-1720558180037-vertical-background" gradientUnits="userSpaceOnUse" x1="0"
      x2="0" y1="0" y2="100%">
      <stop stop-color="#cdcccb" offset="0%"></stop>
      <stop stop-color="#cdcccb" offset="15%"></stop>
      <stop stop-color="#cdcccb" offset="30%"></stop>
      <stop stop-color="#ceccca" offset="45%"></stop>
      <stop stop-color="#cdcccb" offset="60%"></stop>
      <stop stop-color="#cdcccb" offset="75%"></stop>
      <stop stop-color="#cdcccb" offset="90%"></stop>
    </linearGradient>
    <linearGradient id="16282281824-posters-1720558180037-vertical-light" gradientUnits="userSpaceOnUse" x1="0" x2="0"
      y1="0" y2="100%">
      <stop stop-color="#ae9f84" offset="0%"></stop>
      <stop stop-color="#ae9f84" offset="15%"></stop>
      <stop stop-color="#ae9f84" offset="30%"></stop>
      <stop stop-color="#ae9f84" offset="45%"></stop>
      <stop stop-color="#ae9f84" offset="60%"></stop>
      <stop stop-color="#ae9f84" offset="75%"></stop>
      <stop stop-color="#aea284" offset="90%"></stop>
    </linearGradient>
    <linearGradient id="16282281824-posters-1720558180037-vertical-regular" gradientUnits="userSpaceOnUse" x1="0" x2="0"
      y1="0" y2="100%">
      <stop stop-color="#82807d" offset="0%"></stop>
      <stop stop-color="#82807d" offset="15%"></stop>
      <stop stop-color="#82807d" offset="30%"></stop>
      <stop stop-color="#83817c" offset="45%"></stop>
      <stop stop-color="#82807d" offset="60%"></stop>
      <stop stop-color="#82807d" offset="75%"></stop>
      <stop stop-color="#82817d" offset="90%"></stop>
    </linearGradient>
    <linearGradient id="16282281824-posters-1720558180037-vertical-medium" gradientUnits="userSpaceOnUse" x1="0" x2="0"
      y1="0" y2="100%">
      <stop stop-color="#514f4d" offset="0%"></stop>
      <stop stop-color="#514f4d" offset="15%"></stop>
      <stop stop-color="#514f4d" offset="30%"></stop>
      <stop stop-color="#51504d" offset="45%"></stop>
      <stop stop-color="#514f4d" offset="60%"></stop>
      <stop stop-color="#514f4d" offset="75%"></stop>
      <stop stop-color="#51504d" offset="90%"></stop>
    </linearGradient>
    <linearGradient id="16282281824-posters-1720558180037-vertical-bold" x1="0" x2="0" y1="0" y2="100%">
      <stop stop-color="#2f2e2d" offset="0%"></stop>
      <stop stop-color="#2f2e2d" offset="15%"></stop>
      <stop stop-color="#2f2e2d" offset="30%"></stop>
      <stop stop-color="#2f2e2d" offset="45%"></stop>
      <stop stop-color="#2f2e2d" offset="60%"></stop>
      <stop stop-color="#2f2e2d" offset="75%"></stop>
      <stop stop-color="#2f2e2d" offset="90%"></stop>
    </linearGradient>
  </g>
  <g class="horizontal">
    <linearGradient id="16282281824-posters-1720558180037-horizontal" x1="0" x2="100%" y1="0" y2="0"
      gradientUnits="userSpaceOnUse">
      <stop itemprop="horizontal" stop-color="#dfdedd" offset="0%"></stop>
      <stop itemprop="horizontal" stop-color="#dfdedd" offset="15%"></stop>
      <stop itemprop="horizontal" stop-color="#dfdedd" offset="30%"></stop>
      <stop itemprop="horizontal" stop-color="#e1e1e0" offset="45%"></stop>
      <stop itemprop="horizontal" stop-color="#dfdedd" offset="60%"></stop>
      <stop itemprop="horizontal" stop-color="#e1e1e0" offset="75%"></stop>
      <stop itemprop="horizontal" stop-color="#e1e1e0" offset="90%"></stop>
    </linearGradient>
    <linearGradient id="16282281824-posters-1720558180037-horizontal-background" gradientUnits="userSpaceOnUse" x1="0"
      x2="100%" y1="0" y2="0">
      <stop stop-color="#cdcccb" offset="0%"></stop>
      <stop stop-color="#cdcccb" offset="15%"></stop>
      <stop stop-color="#cdcccb" offset="30%"></stop>
      <stop stop-color="#cdcccb" offset="45%"></stop>
      <stop stop-color="#cdcccb" offset="60%"></stop>
      <stop stop-color="#cdcccb" offset="75%"></stop>
      <stop stop-color="#cdcccb" offset="90%"></stop>
    </linearGradient>
    <linearGradient id="16282281824-posters-1720558180037-horizontal-light" gradientUnits="userSpaceOnUse" x1="0"
      x2="100%" y1="0" y2="0">
      <stop stop-color="#9b9a97" offset="0%"></stop>
      <stop stop-color="#9b9a97" offset="15%"></stop>
      <stop stop-color="#9b9a97" offset="30%"></stop>
      <stop stop-color="#9b9a97" offset="45%"></stop>
      <stop stop-color="#9b9a97" offset="60%"></stop>
      <stop stop-color="#9b9a97" offset="75%"></stop>
      <stop stop-color="#9b9a97" offset="90%"></stop>
    </linearGradient>
    <linearGradient id="16282281824-posters-1720558180037-horizontal-regular" gradientUnits="userSpaceOnUse" x1="0"
      x2="100%" y1="0" y2="0">
      <stop stop-color="#968669" offset="0%"></stop>
      <stop stop-color="#968669" offset="15%"></stop>
      <stop stop-color="#968669" offset="30%"></stop>
      <stop stop-color="#968669" offset="45%"></stop>
      <stop stop-color="#968669" offset="60%"></stop>
      <stop stop-color="#968669" offset="75%"></stop>
      <stop stop-color="#968669" offset="90%"></stop>
    </linearGradient>
    <linearGradient id="16282281824-posters-1720558180037-horizontal-medium" gradientUnits="userSpaceOnUse" x1="0"
      x2="100%" y1="0" y2="0">
      <stop stop-color="#5d5341" offset="0%"></stop>
      <stop stop-color="#5d5341" offset="15%"></stop>
      <stop stop-color="#5d5341" offset="30%"></stop>
      <stop stop-color="#5d5341" offset="45%"></stop>
      <stop stop-color="#5d5341" offset="60%"></stop>
      <stop stop-color="#5d5341" offset="75%"></stop>
      <stop stop-color="#5d5341" offset="90%"></stop>
    </linearGradient>
    <linearGradient id="16282281824-posters-1720558180037-horizontal-bold" gradientUnits="userSpaceOnUse" x1="0"
      x2="100%" y1="0" y2="0">
      <stop stop-color="#2f2e2d" offset="0%"></stop>
      <stop stop-color="#2f2e2d" offset="15%"></stop>
      <stop stop-color="#2f2e2d" offset="30%"></stop>
      <stop stop-color="#2f2e2d" offset="45%"></stop>
      <stop stop-color="#2f2e2d" offset="60%"></stop>
      <stop stop-color="#2f2e2d" offset="75%"></stop>
      <stop stop-color="#2f2e2d" offset="90%"></stop>
    </linearGradient>
  </g>
  <g class="masks">
    <mask id="16282281824-posters-1720558180037-pattern-mask" maskUnits="userSpaceOnUse"
      maskContentUnits="userSpaceOnUse">
      <pattern id="pattern" x="0" y="0" width=".0133" height=".0144" viewBox="0 0 23.07 40">
        <path
          d="M17.62 0l-6.07 10.5m2.74 4.76L8.22 4.75m-5.48 0h12.13M.01 0h23.07M6.07 20L0 9.5m2.74-4.75l-6.07 10.5m-5.48 0H3.33m8.2 4.75L0 .02-11.54 20m40.68 0L23.07 9.5m2.74-4.75l-6.06 10.5m-5.49 0H26.4M34.6 20L23.08.02 11.53 20m-5.46 0L0 30.51m2.74 4.75l-6.07-10.5m-5.48 0H3.33m8.2-4.75L0 40l-11.54-19.98zM17.6 40l-6.06-10.5m2.74-4.76L8.2 35.25m-5.48 0h12.13M0 40h23.07L11.54 20.01m17.6 0l-6.07 10.5m2.74 4.75l-6.06-10.5m-5.49 0H26.4M11.53 20h23.08L23.07 40"
          stroke-linecap="round" stroke-width="3.5" stroke="white"
          fill="url(#16282281824-posters-1720558180037-horizontal-background)"></path>
      </pattern>
      <rect width="100%" height="100%" fill="url(#pattern)"></rect>
    </mask>
    <mask id="16282281824-posters-1720558180037-horizontal-mask" maskUnits="userSpaceOnUse"
      maskContentUnits="userSpaceOnUse">
      <rect width="100%" height="100%" fill="url(#16282281824-posters-1720558180037-horizontal-background)"></rect>
    </mask>
    <mask id="16282281824-posters-1720558180037-radial-mask" maskUnits="userSpaceOnUse"
      maskContentUnits="userSpaceOnUse">
      <rect width="100%" height="100%" fill="url(#16282281824-posters-1720558180037-radial-background)"></rect>
    </mask>
    <mask id="16282281824-posters-1720558180037-vertical-mask" maskUnits="userSpaceOnUse"
      maskContentUnits="userSpaceOnUse">
      <rect width="100%" height="100%" fill="url(#16282281824-posters-1720558180037-vertical-background)"></rect>
    </mask>
  </g>
  <use href="#16282281824-posters-1720558180037-pattern-render"></use>
  <g>
    <use href="#16282281824-posters-1720558180037-background"></use>
    <use href="#16282281824-posters-1720558180037-light"></use>
    <use href="#16282281824-posters-1720558180037-regular"></use>
    <use href="#16282281824-posters-1720558180037-medium"></use>
    <use href="#16282281824-posters-1720558180037-bold"></use>
  </g>
  <g itemprop="animation">
    <animate href="#16282281824-posters-1720558180037-light" attributeName="stroke-opacity" repeatCount="indefinite"
      dur="5s" values="0.9;0.0;0.9"></animate>
    <animate href="#16282281824-posters-1720558180037-regular" attributeName="stroke-opacity" repeatCount="indefinite"
      dur="4s" values="0.9;0;0.9"></animate>
    <animate href="#16282281824-posters-1720558180037-medium" attributeName="stroke-opacity" repeatCount="indefinite"
      dur="5s" values="0.9;0;0.9"></animate>
    <animate href="#16282281824-posters-1720558180037-bold" attributeName="stroke-opacity" repeatCount="indefinite"
      dur="3s" values="0.9;0;0.9"></animate>
    <animate href="#16282281824-posters-1720558180037-regular" attributeName="fill-opacity" repeatCount="indefinite"
      dur="8s" values="0.9;0.75;0.95;0.8;0.9;"></animate>
    <animate href="#16282281824-posters-1720558180037-radial-background" attributeName="cx" repeatCount="indefinite"
      dur="34s" values="0%;33%;100%;0%;100%;0%;"></animate>
    <animate href="#16282281824-posters-1720558180037-radial-background" attributeName="cy" repeatCount="indefinite"
      dur="55s" values="0%;100%;33%;100%;66%;0%"></animate>
    <animate href="#16282281824-posters-1720558180037-vertical-light" attributeName="x1" repeatCount="indefinite"
      dur="55s" values="0%;33%;100%;0%;133%;0%;"></animate>
    <animate href="#16282281824-posters-1720558180037-vertical-light" attributeName="y1" repeatCount="indefinite"
      dur="86s" values="0%;100%;33%;100%;66%;0%"></animate>
    <animate href="#16282281824-posters-1720558180037-horizontal-regular" attributeName="x1" repeatCount="indefinite"
      dur="34s" values="0%;100%;66%;0%;33%;133%;0%"></animate>
    <animate href="#16282281824-posters-1720558180037-horizontal-regular" attributeName="y1" repeatCount="indefinite"
      dur="55s" values="0%;66%;100%;33%;100%;66%;0%"></animate>
    <animate href="#16282281824-posters-1720558180037-vertical-medium" attributeName="x1" repeatCount="indefinite"
      dur="34s" values="0%;100%;66%;0%;33%;133%;0%"></animate>
    <animate href="#16282281824-posters-1720558180037-vertical-medium" attributeName="y1" repeatCount="indefinite"
      dur="55s" values="0%;66%;100%;33%;100%;66%;0%"></animate>
    <animate href="#16282281824-posters-1720558180037-vertical-bold" attributeName="x1" repeatCount="indefinite"
      dur="34s" values="0%;100%;66%;0%;33%;133%;0%"></animate>
    <animate href="#16282281824-posters-1720558180037-vertical-bold" attributeName="y1" repeatCount="indefinite"
      dur="55s" values="0%;66%;100%;33%;100%;66%;0%"></animate>
  </g>
</svg>
