<svg id="16282281824-posters-1720554028121" itemscope="" itemtype="/posters"
  itemid="/+16282281824/posters/1720554028121" viewBox="0 0 769 512" preserveAspectRatio="xMidYMid meet" tabindex="0"
  class="animate landscape" xmlns="http://www.w3.org/2000/svg">
  <!---->
  <defs class="graphic">
    <pattern id="16282281824-posters-1720554028121-pattern" width="769" height="512" viewBox="0 0 769 512"
      patternUnits="userSpaceOnUse" preserveAspectRatio="xMidYMid meet">
      <rect itemprop="background" width="769" height="512" tabindex="-1"
        id="16282281824-posters-1720554028121-background" fill-opacity="1"
        fill="url(#16282281824-posters-1720554028121-radial-background)"></rect>
      <!---->
      <path id="16282281824-posters-1720554028121-light"
        d="M740 19q-4 4 0 5l15 1h14v3q0 3 1 2v-7l-1-5h-14zm-153 1c-24 1-26 1-23 5 3 3 58 3 62 0 6-5-1-6-39-5m84 0c-15 0-18 1-17 3 1 3 4 3 28 3h26q9 0 9-3c0-4 1-4-46-3m-342 1c-26 0-29 1-29 5q-1 4 19 3h26c16 0 19 0 19-3 2-5-3-6-35-5m61 0q-4 0-4 3c0 4 1 4 13 4l53-2q3-3-2-5zm86 0v6c2 1 57 0 60-1q5-3 2-5c-2-2-60-2-62 0m-264 1q-5 2-1 6c2 2 23 2 54 1q16-1 10-7zm-83 1q-9 1-7 5c2 2 61 3 64 1q6-5-2-6zm-84 1q-13 2-6 7c3 2 60 0 62-2q2-2-1-4c-1-2-42-3-55-1M1 28q0 7 8 4 9-6-4-8H1zm442 33q-15 0-14 4c0 3 2 3 33 3 29 0 32 0 32-4 0-3-14-4-51-3m77 0q-4 3 0 6h61q5-2 2-5c-2-2-59-2-63-1m95 0q-9 2-6 6c1 1 58 2 63 0q4-1 1-5c-2-1-48-2-58-1m87 0q-8-1-8 2c-1 5 1 5 31 5 32 0 35-1 32-6-1-1-38-2-55-1m-444 2q-6 2-1 5c4 3 56 2 60 0q5-3-1-6c-4-2-55-1-58 1m85-1q-4 4 1 6c5 2 61 1 63-1q4-3 0-5c-3-2-62-1-64 0m-243 2c-21 1-24 1-22 5 0 3 5 3 35 3 27 0 31-1 31-4 0-5-4-5-44-4m67 0q-4 2-1 5c4 3 62 3 64 0q3-2 0-4c-1-2-58-3-63-1M0 69v4h27c26 0 27-1 29-3l2-2-3-2c-3-2-5-2-29-2H0zm518 33-8 2-15 1h-11c-7-2-13 4-7 7 3 1 58 0 60-1q6-6-6-7l-7-2zm143 2q-11 2-6 6c3 2 60 1 63-1q2-2-1-4c-2-2-36-3-56-1m78 1q-6 4 15 5h15v3l1 2v-6l-1-6h-14q-16 0-16 2m-321 0h-14c-15 0-18 1-18 4 0 4 1 4 30 4s37-1 38-3q4-6-23-6zm147 0q-5 6 5 7l57-2q3-3-1-5zm-239 1c-22 0-24 0-25 2-3 6-1 6 33 6 30-1 30-1 30-4 0-4-3-5-38-4m-181 1h-20l-2 3c-3 5-2 5 32 5 32-1 35-1 33-5q0-4-13-4zm67 0q-4 4 2 7l4 1 28-1c28-1 30-1 30-5 0-2-1-3-31-3zm-130 1H61c-21 1-24 2-24 5s3 3 32 3l31-1q5-4-1-6zm-81 4v4h6c9 0 9-6-1-7H1zm440 34-11 1q-1 4 2 5c3 2 59 1 61 0v-5c-2-1-39-2-52-1m81 0q-6 2-2 6c2 2 60 2 62 0q4-4 1-6zm90 0q-5 2-2 6c2 2 60 2 62 0q4-4 1-6zm91 0q-12 2-8 6c3 1 56 2 61 0q6-3 0-6zm-446 2q-3 4 1 6c7 1 59 0 61-2v-4c-1-3-60-3-62 0m85-1q-3 3 1 5a215 215 0 0 0 53 0c6 3 16-1 13-4-2-2-65-3-67-1m-173 1q-5 3-2 7h61q7-3 1-7zm-69 1c-19 0-20 0-21 2-4 5-2 6 32 5 31 0 33 0 33-4s-1-4-44-3M0 153v5l26-1c26 0 31-1 32-3 1-5-1-5-30-5H0zm753 33c-14 0-16 1-16 3 0 3 3 4 18 4h14v3q0 2 1 1l-2-12zm-274 1q-7 3-2 7c2 1 58 0 60-1q3-2 0-5c-1-1-51-2-58-1m87 0q-2 1-2 4v3h30c31 0 34 0 34-4l-2-3zm87 0q-2 4 4 6h31c30 0 33-1 30-5-1-2-62-3-65-1m-389 1-27 1c-25 0-28 0-28 4 0 3 2 3 33 3s34-1 34-4-10-7-12-4m80 0h-18c-21 0-25 1-26 4 0 4 1 4 32 4 30 0 33 0 33-4l-2-3c-2-1-18-2-19-1m43 1q-3 2 0 6l21 1 32-1q12 1 13-2l2-2-2-2c-3-3-63-3-66 0m-259 1q-9 1-4 7h54q13-2 10-6c-1-1-48-3-60-1m-89 2q-4 4 0 7c6 1 60 0 61-2q4-3 0-6c-3-2-57-1-61 1m-38 3v4h4q8 0 8-4-1-4-9-4-4-1-3 4m443 33q-22 1-13 7c4 2 59 1 61-1 5-4-2-8-10-6zm76 0q-5 4 1 7c3 1 56 1 60-1q6-2 0-5c-3-2-57-2-61-1m91 1q-5 2-1 5c1 2 53 2 60 1q8-3 2-6c-5-2-59-2-61 0m86-1q-6 3-2 6c3 2 58 2 61 0q3-3-3-5c-3-2-51-2-56-1m-416 1c-24 0-26 0-25 5 1 2 6 2 44 2 16 0 20-1 20-3 0-4-4-5-39-4m63 0q-5 2-2 6c2 2 63 2 66-1q3-2 1-4c-2-2-59-3-65-1m-150 1c-27 0-28 0-28 5 0 3 1 3 34 3 28 0 29-1 31-3v-3c-2-2-4-3-37-2m-89 1c-26 1-27 1-27 4 0 4 1 4 33 4 30 0 33 0 33-4s-4-5-39-4M0 236v4h27c28-1 31-1 31-4 0-4-3-4-31-4H0zm672 34c-17 0-20 1-20 4s4 3 30 3c34 0 40-1 36-6-2-2-8-2-46-1m67 0-1 3c0 3 0 3 21 3h10v3q0 3 1 2v-7l-1-5h-14zm-261 1q-6 3-2 6c3 3 59 2 61-1q3-2 1-4c-2-2-3-2-30-2zm86 1q-3 4 1 5c4 1 59 0 61-1q5-2-1-5c-5-2-58-1-61 1m-325 0c-27 0-27 0-28 2q-4 7 11 7l29-1c23-1 25-2 25-5s-2-4-37-3m156 0-8 1v2q0 6 8 5l29-1c29 0 31 0 30-5l-3-2zm-93 2q-3 3 1 6h22c42-1 39 0 39-4s-1-4-31-4c-26 0-29 0-31 2m-177 0q-5 2-1 6c2 2 46 2 58 0q8-1 5-5c-1-2-3-2-30-2zm-82 1q-8 2-5 6c1 2 59 2 62 0q4-4-1-6zm-42 4v4l5-1q9 0 7-3 0-4-7-4H1zm452 33c-20 0-22 1-23 2v4c4 3 61 2 63-1 3-5-5-6-40-5m-195 2q-3 3 1 6l57-1q6-1 2-5c-2-3-57-3-60 0m85 0c-5 5-2 6 31 6 31 0 34-1 35-3 3-5 0-5-34-5-28 0-31 0-32 2m176-1c-2 0-1 5 1 5l30 1c31 0 34 0 33-5-1-1-2-2-32-2zm90 0v4c1 3 60 3 63 1q4-4 0-5c-3-2-62-1-63 0m85 1c-2 5 0 5 32 5 31-1 32-1 31-5-1-3-61-3-63 0m-503 0c-28 1-25 0-25 3 0 5 1 5 33 5 28 0 30 0 32-2l3-2-3-2c-2-3-4-3-40-2M0 319v5h26l2-3c2-6 1-6-14-6H0zm33-3c-4 3 2 7 10 8q19 0 13-7c-2-2-22-3-23-1m47 0q-4 3 0 6c4 2 62 1 64-1v-4c-1-2-61-3-64-1m577 38q-7 2-4 6l56 1q13-2 6-6c-3-1-52-2-58-1m82 0q-4 4 0 6h30v3q0 4 1 1v-7l-1-4h-14zm-249 1c-14 1-16 1-15 5 1 3 59 3 62 0 7-5-6-7-47-5m75 0q-4 1-1 5c2 3 56 2 61 0q5-2 0-5zm-339 1q-18 1-16 4c0 4 2 4 32 4 31-1 34-1 34-5s-9-5-50-3m87 0q-15 1-13 4c0 4 1 4 30 4 32 0 38-1 34-7-2-2-26-2-51-1m75 0-3 2q-2 5 10 5l31-1c28 0 30-1 26-5-2-2-3-2-32-2zm-262 2q-6 2-3 5c2 3 61 2 64-1q3-2 1-3c-1-2-57-3-62-1M1 362v5h4c12-1 11-9-1-9q-4-1-3 4m38-2q-3 3 1 6c3 1 53 0 58-1q6-2 3-6c-2-2-59-2-62 1m408 36c-15 0-18 1-18 4s4 3 33 3c30 0 31 0 31-4s-3-4-46-3m72 0-1 2 1 4h63q3-4-3-6zm93 0q-6 2-3 5c1 2 50 3 60 1q7 0 4-5c-2-1-55-2-61-1m98 0c-15 1-17 1-17 4 0 2 5 3 32 3s32-1 32-3q1-6-47-4m-452 1q-4 3 0 6c3 2 55 1 58 0q5-2 2-6zm84 0q-3 4 2 6l32 1c29 0 29 0 32-3q3-2 1-3c-3-2-65-3-67-1m-156 1c-20 0-22 1-21 5 1 2 5 3 40 2 24 0 25 0 26-2 3-5-1-6-45-5m-88 1c-18 1-20 1-20 4q-1 5 12 4l30-1c21 0 24-1 24-4 0-4-1-4-46-3m-98 4v5l27-1c26 0 31-1 31-4 0-4-3-4-31-4H0zm477 37q-10 7 14 6c40 0 47-1 47-4s-4-4-31-4-28 0-30 2m86 0q-3 2-1 4l32 1c29 0 33-1 33-3 0-3-4-3-33-4-27 0-29 0-31 2m91-1-2 4c1 1 2 2 30 2 30 0 35 0 35-3 0-4-4-4-33-4zm84 0-1 2q-1 5 18 4l14-1v3q0 3 1 2v-7l-1-4h-15zm-513 1q-20 1-15 6c1 2 62 2 65 0v-6zm98 0c-21 1-23 1-23 4 0 4 3 4 32 4 31 0 34-1 32-5-1-3-10-4-41-3m67 0q-5 0-5 5c1 3 4 3 23 2h30q22-1 14-6c-2-2-4-2-31-2zm-266 3c-6 6-2 6 31 6 34-1 33-1 33-5v-2l-31-1c-30 0-31 0-33 2m-80 0c-6 0-8 5-4 7 3 1 58 0 60-1q4-3 0-6zm-43 4v4l5-1c10-1 9-7-2-7q-4-1-3 4m347 33q-10 1-7 5l3 3 62-2q4-3-1-5c-5-1-49-2-57-1m83 0q-5 4 1 7c4 1 52 0 57-1q7-2 2-6zm88 0q-4 3 0 5c3 2 57 3 61 1q4-3 0-6zm-260 1q-5 2-1 6c1 1 50 2 57 0q7-1 3-5c-1-2-50-3-59-1m349 1q-2 1 1 3c2 2 4 2 32 2 29 0 33 0 33-3 0-4-4-4-34-4-27 0-31 0-32 2m86 0q-3 2-1 3c2 3 60 3 62 0 5-5 3-5-31-5-24 0-29 0-30 2m-524 1q-6 3-2 5c2 2 57 2 61 1q4-3 0-6c-2-2-54-2-59 0M0 487v4h27c28 0 31 0 31-4 0-3-4-4-32-4H0zm80-2q-5 3 0 5c2 1 58 1 62-1q3-1 2-5c-2-2-61-2-64 1"
        mask="url(#16282281824-posters-1720554028121-horizontal-mask)" itemprop="light" fill-opacity="0.90"
        fill-rule="evenodd" stroke="none" fill="url(#16282281824-posters-1720554028121-vertical-light)"></path>
      <!---->
      <path id="16282281824-posters-1720554028121-regular"
        d="M740 21q-6 4 15 4l14-1v3l1 3v-6l-1-5h-14q-15 0-15 2m-335 0c-17 1-19 1-19 4q0 3 13 3l30-1c16 0 21-1 23-2q4-3-12-4zm72 1q-3 2-1 3c1 2 4 2 29 2 34-1 36-2 32-6-2-2-57-1-60 1m88 0c-3 4 0 4 30 4s34-1 31-4c-2-3-59-3-61 0m91-1c-5 4-1 4 29 4s34 0 32-4c-1-2-59-1-61 0m-330 1c-20 0-24 1-25 2-3 4 0 5 33 4 29 0 33-1 29-4-2-2-10-3-37-2m-114 1q-4 2-1 5h32c31 0 35-1 32-4-1-2-58-3-63-1M59 24c-19 1-21 1-21 4 0 2 1 3 29 3l31-1q4-3 2-5c-1-1-20-2-41-1m65 0q-4 3 0 5c3 1 59 1 62-1q5-3 0-4c-5-2-60-1-62 0M1 28q0 5 6 3c8-1 6-6-2-6q-5-1-4 3m525 33q-9 1-7 3c1 3 5 4 35 4 26-1 29-1 29-4-1-2-7-3-28-3zm-95 2v3c1 1 3 2 30 2 31 0 34-1 31-5-1-2-58-2-61 0m183-1q-8 2-3 5c2 1 58 1 61-1q4-2 0-3c-4-1-53-2-58-1m83 0q-4 2 0 5c3 1 56 1 58-1 2 0 3-4 1-4zm-439 1q-4 2 0 5c3 2 58 1 60-1v-4c-3-1-55-2-60 0m85 0-1 3c1 2 60 3 64 1q4-3 0-4zm-174 1q-5 2-1 6c2 1 60 0 62-1q3-3-1-5zm-87 2q-3 0-3 3c0 2 62 3 63 0 3-4 0-4-29-4zM0 69v3h27c29-1 33-1 28-5-2-2-5-2-29-2H0zm518 34c-3 2-26 4-36 3-7-1-10 4-4 5 5 2 58 0 60-1q3-5-7-5l-6-1q-3-3-7-1m175 1h-17c-18 0-21 1-21 4s6 3 34 2 31-1 28-4c-1-2-23-3-24-2m47 0q-7 7 16 5h13v3l1 3v-6l-1-6h-14zm-170 1c-7 1-8 6-2 6 11 1 57-1 59-2q2-2-1-3c-2-1-48-2-56-1m-169 1c-11 0-13 1-14 2-3 4 1 4 30 4 31 0 36-1 37-3l-2-3zm-182 1q-12 1-7 6c2 1 55 0 59-1q7-2 3-5zm84 0-2 3c1 4 4 4 34 3 29-1 31-1 27-5-1-2-54-3-59-1m-168 1q-13 0-12 3l1 2c2 2 60 1 62 0q4-2 0-5zm-74 1c-22 1-25 1-22 5 1 2 5 2 35 1 27 0 30-1 27-5-2-2-6-2-40-1m-60 4q-1 4 4 3l6-2q4-4-6-5-5-1-4 4m264 34q-11 0-8 5c1 2 57 2 60 0q5-2 0-5zm78 1v3c1 2 42 3 48 1q4-3 6-1c4 3 12 2 12-1 0-4-4-4-34-4-27 0-31 0-32 2m88 0q-2 1 1 3c1 2 2 2 30 2 31-1 35-1 31-5-2-3-60-3-62 0m88 0q-2 4 5 4l57-1 2-2c-1-3-62-4-64-1m91-1c-4 5-2 5 31 5 31 0 35-1 32-4-2-2-61-3-63-1m86 0q-2 4 1 4h58q5-2 1-4c-3-2-59-1-60 0m-527 2q-5 3-2 5h60q7-2 1-5zM0 153v4h27c27-1 30-1 30-5 0-2-2-2-30-2l-27-1zm82-3q-5 1-3 5c2 2 60 2 63-1q3-2 1-3c-1-2-53-3-61-1m573 37q-3 2-1 5c2 2 60 1 62 0q8-6-20-5zm84 0q-7 5 17 5h13v3q0 3 1 2v-7l-1-4h-14zm-327 1c-24 0-26 0-26 4 0 3 2 3 34 3 32-1 34-1 34-4s-6-4-42-3m65 1q-3 2-1 3c2 2 57 3 60 1q5-3 0-5c-4-2-57-1-59 1m88-1q-3 2-1 5h31c31 0 35-1 31-4-2-2-57-3-61-1m-329 1c-25 1-28 1-25 5l31 1c30 0 34-1 34-3 0-4-1-4-40-3m77 0q-20 2-11 6c3 1 57 1 60-1q4-2 1-5zm-166 1c-22 1-25 1-24 5 1 1 2 2 22 2 37 0 48-2 42-7zM1 195q0 6 8 3 9-4-3-6l-5-1zm39-3q-5 4-1 6c3 1 45 0 55-1q9 0 6-5c-2-2-56-2-60 0m328 37c-27 0-30 1-26 5 2 1 13 2 59 1q10 0 7-4c-2-2-9-3-40-2m64 0q-5 2 0 5h57q5 0 3-4c-1-2-56-2-60-1m89 0q-2 0-2 3c0 3 0 3 33 3l30-2q2-3-2-4zm90 0q-5 4 4 5h58v-4c-2-2-60-2-62-1m86 0q-5 1-1 5h30c30 0 34-1 28-4-3-2-49-3-57-1m-438 1q-3 2-1 5h59q5-4-2-5zm-75 1c-17 0-18 0-18 3 1 3 3 4 36 3 24 0 27-1 28-2 3-4-5-5-46-4m-90 1q-18 0-16 3c0 3 5 4 34 3 27 0 33-1 32-3-2-4-3-4-50-3m-94 3v4h27c30 0 32 0 29-5-1-1-4-2-28-2H0zm746 35q-11 1-7 4c1 1 2 2 27 2q4-1 3 3l1 2v-6l-1-5-8-1zm-166 1c-15 1-18 1-17 5h63q6-6-46-5m78 0q-7 2-3 5c4 2 60 1 62-1 3-4 0-4-28-4zm-180 1q-5 1-1 5c2 2 58 1 60-2v-2c-1-2-52-3-59-1m-253 1q-15 0-14 2c-2 5 1 5 54 4l10-2c4-5-4-5-50-4m83 0q-11 2-5 6c3 1 57 0 59-1q4-2 0-5zm79 1q-5 5 9 4c56 0 62 0 57-4-4-3-64-3-66 0m-236 0c-26 0-28 0-28 4 0 3 1 3 32 2 29 0 33-1 33-3 0-4-1-4-37-3M1 279v3h5q7 0 7-4-1-2-9-3-4-1-3 4m39-3q-3 2-1 4c0 2 0 2 30 2 33-1 36-1 32-6-2-2-59-1-61 0m238 37c-19 1-22 1-21 4s4 3 32 2c28 0 30 0 30-3s-6-4-41-3m83 0c-17 0-20 1-19 4 1 2 64 3 66 1q2-3-1-4c-2-1-25-2-46-1m71 0q-4 3 0 5c4 2 57 1 60-1l2-1-2-2c-3-2-57-3-60-1m88 0q-4 2 0 5h55q10 0 7-4c-3-2-59-3-62-1m90 0q-2 3 1 5c2 1 58 0 61-1q4-2 0-3c-3-2-60-2-62-1m87 0q-6 2 0 5c6 2 57 1 59-1v-3c-1-2-54-2-59-1m-507 2c-23 0-27 1-23 5 3 2 62 2 64 0q3-6-14-6zM0 319v4h13c13 0 15-1 15-5 0-2 0-2-9-2l-14-1H0zm39-3q-8 0-5 4c3 5 23 4 23-1l-2-2q-7-2-16-1m46 0q-8 1-6 3c1 3 3 4 35 3 25 0 28-1 29-2 3-4 0-4-29-4zm495 39c-15 0-17 0-17 3s2 3 33 3c29-1 31-1 30-4-1-2-3-2-15-2zm78 0q-6 1-4 4h62v-4zm81 1q-7 4 13 4c15-1 17-1 17 3q0 2 1 1v-6l-1-4h-14q-16 0-16 2m-262 1c-5 4-1 5 27 5 30 0 37-1 33-5-2-3-57-3-60 0m-251 0c-14 0-15 0-15 4v2h31l33-2v-4zm79 0q-7 1-4 5c2 1 54 2 60 0q4-1 2-4c-1-1-49-2-58-1m83 0q-3 2-1 5c3 1 63 0 65-2v-3c-2-1-59-2-64 0m-259 1q-9 2-5 5c1 2 3 2 20 2l29-1q17 0 15-4c0-3-4-3-29-3zm-83 1q-8 1-8 4-1 3 19 3l28-1q22 1 16-5c-2-2-40-2-55-1m-45 3v4l5-1c11 0 8-6-3-6q-2-1-2 3m279 35-22 1v5h12c19 1 47 0 48-2 4-4-3-5-38-4m166 0q-18 0-16 2c-1 4 3 4 32 4 22-1 29-1 30-3 4-4-6-4-46-3m73 0q-2 1 1 4c3 2 61 1 62-1l-2-3zm93 0q-6 1-1 4c2 1 57 2 60 0q3-1 1-3c-2-1-57-2-60-1m97 0c-12 0-14 0-15 2-1 3 1 3 31 3s35-1 31-4c-2-1-25-2-47-1m-366 1q-2 3 1 4l32 1c31 0 34 0 32-5 0-1-64-2-65 0m-176 2c-4 4 1 5 35 5 28-1 31-1 28-5-1-2-61-3-63 0m-70 0c-16 0-17 0-18 2q0 5 7 5l29-1c23 0 25 0 27-2 6-5 1-5-45-4m-97 3v4l25-1c33 0 31 0 32-2 1-4-2-4-30-4H0zm566 36q-6 2-3 5c1 1 54 2 60 0q8-3-3-4c-11-1-50-2-54-1m89 1q-6 2 1 4c3 1 54 0 58-1q4-1 1-4c-2-1-57-1-60 1m83 0q-6 4 17 4l14-1v3l1 3v-6l-1-5h-15q-16 0-16 2m-261 1c-5 4-2 4 29 4 28 0 31 0 31-4 0-2-2-2-30-2-26 0-28 0-30 2m-254 0q-12 0-12 2c-3 5 0 5 40 4 24-1 27-2 24-5-1-2-25-2-52-1m82 0q-6 1-4 4c1 2 3 2 30 2 32 0 36-1 32-5-2-1-48-3-58-1m82 0q-2 3 1 5h33c31-1 34-1 31-4-1-2-61-3-65-1m-254 1q-11 1-10 4c0 2 2 2 31 2 32 0 38-1 33-6zm-67 1c-27 1-31 1-26 5 1 2 4 2 30 1 31 0 35-1 31-4-2-2-7-3-35-2m-64 1q-3 5 2 6 7-1 8-3c0-3-9-5-10-3m525 36q-12-1-8 5c1 1 56 2 60 0q5-2 1-4c-2-1-38-2-53-1m-259 1q-12 0-11 2l1 3h58q5-3 2-5zm75 0q-3 2-1 4c1 2 45 3 60 1q8 0 5-4c-1-2-62-2-64-1m87 0q-1 4 2 5c5 2 56 0 59-2q3-1 1-3c-2-2-60-2-62 0m180 0q-3 2-1 3c2 3 63 3 64 0l-1-2c-1-2-60-2-62-1m86 0q-3 1-2 4c1 2 59 2 61 0 3-4 0-4-29-4zm-525 2q-6 1-4 5c3 2 60 1 63-1v-3c-2-1-48-3-59-1m-153 1H0v7h27c28-1 30-1 30-4s-4-4-39-3m66 0q-6 3-4 5h62q4-3-1-5z"
        mask="url(#16282281824-posters-1720554028121-radial-mask)" itemprop="regular" fill-opacity="0.90"
        fill-rule="evenodd" stroke="none" fill="url(#16282281824-posters-1720554028121-horizontal-regular)"></path>
      <!---->
      <path id="16282281824-posters-1720554028121-medium"
        d="m741 20-1 2c0 2-1 2 16 2h13v3-2l-1-5zm-166 1q-14 1-9 4h55q8-1 4-3c-1-1-36-2-50-1m92 0q-15 1-12 3h60q8-6-48-3m-269 1q-16 0-10 4l3 2 30-2c29 0 33-1 30-3-1-1-35-2-53-1m79 1c-3 3 0 3 30 3 29-1 31-1 30-3-1-3-58-3-60 0m-264 0q-3 1-2 4h61q5-1 2-4zm92 0q-4 0-3 3c0 1 0 2 28 2l31-1c3 0 3-4 0-4zm-176 1q-8 1-6 4c1 2 61 1 63-1q3-1 0-3zm-71 1c-19 1-22 1-19 5l29 1c31-1 32-1 32-4s-2-3-14-3zM1 28q-1 4 4 3l6-1q2-5-6-5-5-1-4 3m520 34q-5 3 2 4c7 2 58 1 59-1 3-2-1-3-21-3l-28-1zm-259 1q-6 1-5 4c0 2 58 2 60 0q3-1 1-3c-2-1-46-2-56-1m81 1q-2 1 1 3c4 3 64 1 64-2s-61-4-65-1m89-1q-3 3 2 4l57-1 1-2c0-2-1-2-30-2zm179 0c-5 4-1 4 31 4 29-1 35-1 31-4zm85 0c-2 4 3 4 31 4s31-1 30-4c-2-2-61-1-61 0m-528 2q-4 2 0 4c3 2 60 1 62-1v-2c-2-2-58-2-62-1M0 69v3l27-1c28 0 31-1 28-4l-28-1H0zm81-3c-3 0-2 4 0 4 7 2 58 1 60-1 5-4 2-4-29-4zm436 38-9 2h-19q-15 0-13 2c0 3 1 3 31 3 24 0 29 0 30-2q3-4-7-4l-5-1zm157 1c-22 1-20 0-20 2 0 3 6 3 38 3 25-1 25-1 25-3q1-2-9-2zm66 1q-4 3 15 3h14v3l1 2-1-5v-5h-14q-15 0-15 2m-172 0q-5 1-2 4c3 2 57 1 59-1q3-1 0-3zm-227 1h-19c-15 0-18 0-20 2-3 4 0 4 29 3 30 0 32 0 32-2l-2-3zm47 1c-4 4-2 4 31 4 33-1 38-1 33-5-2-2-62-1-64 1m-172 0-5 2q0 4 12 3l27-1c21 0 26-1 25-3s-50-2-59-1m-92 1v3c1 2 4 2 31 2 32-1 32-1 32-4s-59-3-63-1m-78 1q-9 1-7 3c1 2 45 3 56 1q10-2 3-4zm-45 3q-1 3 5 2 5 1 6-2t-7-3q-5-1-4 3m344 34q-6 3-1 5a285 285 0 0 0 52-1c2 2 11 1 12-1l-1-2c-1-1-57-2-62-1m92 0q-8 1-5 4c3 2 57 1 60 0v-3c-1-1-39-2-55-1m84 0-2 2c0 3 6 3 36 3 27-1 30-1 27-4-1-1-57-2-61-1m91 0-2 2c0 3 2 3 32 3 30-1 36-1 30-4-2-2-58-2-60-1m85 0q-4 3 0 4c3 2 59 1 60-1q1-1-1-3zm-438 1q-4 2 0 5c7 1 57 0 59-2l1-3zm-88 1q-5 1-4 4c1 2 61 2 63 0q3-3-1-4zm-72 1c-22 1-20 1-20 2 0 3 3 3 31 3 29 0 33 0 33-3s-1-3-44-2m-99 3v3h27c29-1 32-1 29-4-1-2-5-2-29-2H0zm740 34c-1 0-1 4 1 4h28v3l1 3v-6l-1-5h-14zm-235 1c-28 0-31 1-28 4 1 2 5 2 29 1 28 0 32-1 31-3 0-2-3-3-32-2m67 0q-10 1-8 3c1 2 55 3 60 1q5-2 2-3c-1-1-44-2-54-1m84 0q-5 3 1 4 65 2 61-4zm-268 2c-5 4-2 4 31 4s38-1 33-4c-2-2-62-2-64 0m-174 0q-6 3 0 5l60-2q3-2-1-3zm91 0q-5 1-3 4l52 1q14-1 9-5c-2-1-50-2-58 0m-171 1q-14 0-10 5l14 1 27-1q28 1 22-5zm-88 1q-8 1-8 3c0 3 3 3 32 2 30 0 33-1 30-4-2-2-41-2-54-1m-45 3q-1 4 5 3c8-1 7-6-1-6q-5-1-4 3m483 34h-26c-27 0-29 0-27 4 1 2 59 2 61 0v-3zm50 0c-14 1-16 1-15 3s59 3 62 1q3-3-4-4zm78 0q-4 2-2 4c3 2 61 1 63 0 3-3-1-4-30-4zm110 0c-26 1-29 1-27 4 2 2 58 2 60 0 1-2-6-6-7-5zm-441 1-24 1q-1 2 2 3c3 2 57 1 59 0 5-4-3-5-37-4m63 0-2 2c0 3 3 3 35 3 25 0 30-1 31-2 2-3-2-4-32-4zm-177 2v3c2 3 60 3 62 0 4-4 1-4-30-4zM0 236v3h27c27-1 30-1 30-4 0-2-4-2-31-2H0zm81-3q-3 3-1 4h59q5-1 3-4zm661 38q-3 0-3 2c0 1 2 2 15 2h15v3l1 3v-6l-1-5h-12zm-258 1q-10 1-8 4c0 1 56 2 59 0 2 0 3-4 1-4zm82 0-2 3c1 2 58 2 61 1q2-4-1-4c-5-2-57-1-58 0m88 0c-3 4 1 4 26 4 33 0 39-1 37-4-2-2-61-1-63 0m-389 0-26 1-27 1q-2 3 1 5c4 1 59-1 61-2q2-4-3-4zm130 1q-12 1-8 4l24 1c37 0 44-1 41-4-1-2-42-2-57-1m-89 1q-8 1-2 5l58-1q2-3-1-4zm-180 1q-3 1-2 4c1 2 60 1 62-1q3-1 1-3zm-71 1c-14 0-16 0-16 3s0 3 29 2c30 0 33 0 33-3-1-3-6-3-46-2m-54 3q2 5 9 2 6-4-5-5-5-1-4 3m452 34c-18 0-21 0-22 2-1 3 2 3 30 3 29 0 32 0 32-2 0-3-9-4-40-3m169 0q-16 1-12 3c2 3 60 2 62 0s0-2-18-3zm-344 1c-19 0-22 1-20 4 2 1 58 1 60-1 4-3-2-4-40-3m82 0q-17 0-18 2c-1 2 5 3 34 3 29-1 32-1 32-3 0-3-12-3-48-2m159 1c-1 3 2 3 32 3 29-1 35-1 30-4-3-2-61-1-62 1m177-1q-2 1 1 3c5 2 56 1 57 0 5-3 1-4-28-4zm-528 3c-4 3 0 4 30 3h31q4-1 0-4c-3-2-59-1-61 1M0 319v3h13c12 0 13 0 14-2 2-3 0-4-14-4H0zm34-2q-2 6 12 5 14 0 10-4c-2-2-21-3-22-1m46 1q-2 1 1 3h61q3-3-1-4c-3-2-59-1-61 1m660 37-2 2q-1 3 17 2h14v2-6zm-250 1c-13 1-15 1-14 3 1 3 58 2 60 0q3-4-10-3zm75 0q-3 1-1 4l59-1q5-1 1-3zm90 0c-5 4 0 4 30 4 29-1 33-1 31-4-2-2-59-2-61 0m-415 1c-26 0-29 1-29 3 0 3 3 3 32 2 30 0 35-1 31-4-1-1-4-2-34-1m153 0q-9 0-6 4l32 1c33-1 33-1 33-4l-5-1zm-91 1c-3 4 0 5 28 5 27 0 33-1 33-4-1-2-59-3-61-1m-177 1q-4 3 0 4c2 1 51 0 58-1q7-1 4-3zM2 360q-4 4 4 5 9 0 5-4c-1-1-8-2-9-1m41 0q-4 0-3 3c0 1 0 2 27 2l31-1 4-1-2-2c-2-2-49-3-57-1m483 37-7 1c0 3 3 3 32 4 29 0 32-1 30-4-1-1-37-2-55-1m-268 1v3c1 2 48 3 56 1q6-1 3-4c-3-2-56-1-59 0m85 1c-3 3 0 3 30 4 30 0 35-1 35-4-1-2-63-3-65 0m88-1c-3 4 0 4 30 4 28 0 32 0 31-3-1-2-59-3-61-1m179 0c-4 3 3 4 33 4 28-1 31-1 29-4-1-1-61-2-62 0m85 0c-3 3 0 4 28 4 29 0 34-1 32-4-2-2-57-2-60 0m-508 1c-23 1-21 0-21 2 0 3 2 3 32 3 28 0 33 0 33-3 0-2-10-3-44-2M0 403v3h27c24 0 28 0 29-2 3-3-1-4-29-4H0zm80-2c-4 5-2 5 30 5 32-1 33-1 33-4-1-2-61-3-63-1m485 39q-4 1 0 4c2 1 50 1 58-1q5 0 2-2c-1-1-57-2-60-1m90 0-2 2 30 1c30 0 34 0 32-2-1-2-56-2-60-1m84 0q-4 3 15 3h15v3l1 2v-5l-1-4h-15zm-491 1h-18q-26 0-19 4c3 3 61 2 63-1q6-4-14-3zm75 0c-20 1-24 1-21 4 1 1 58 2 60 0l1-1c0-3-10-4-40-3m67 0q-4 0-3 3c0 3 64 3 65-1l-2-2zm86 0c-1 4 1 4 29 4 28-1 32-1 32-3-1-2-60-2-61-1m-350 2q-4 2-1 4c1 1 57 1 60-1l2-2c-1-2-56-3-61-1m-83 1q-5 1-4 3c1 3 58 3 61 1v-3c-1-2-49-3-57-1m-42 2q-1 4 5 3 11-2 0-5-6 0-5 2m437 35q-9 0-7 3c0 3 55 3 60 0 5-4-24-5-53-3m81 0c-3 4 1 5 31 4 29 0 33 0 30-3-2-2-59-3-61-1m-259 1q-6 2 2 4h55q3-3-1-4zm83 0-1 2c0 2-1 2 41 2 23 0 27-1 23-4-2-1-62-2-63 0m266 0c-1 3 2 4 30 4h31q4-2 1-4zm86 0-1 2c1 2 4 2 30 2 29 0 32 0 31-3-1-2-57-3-60-1m-587 2c-27 1-31 1-28 4 1 2 61 1 62 0q2-4-3-4zm60 1c-3 3 0 3 31 3 30 0 32 0 30-3-1-3-59-3-61 0M0 485v5h27c28-1 32-1 29-4-1-1-54-2-56-1"
        mask="url(#16282281824-posters-1720554028121-vertical-mask)" itemprop="medium" fill-opacity="0.90"
        fill-rule="evenodd" stroke="none" fill="url(#16282281824-posters-1720554028121-vertical-medium)"></path>
      <!---->
      <path id="16282281824-posters-1720554028121-bold"
        d="M742 20q-3 2-1 3c3 1 28 0 28-2 0-1-24-2-27-1m-261 2q-3 0-3 2c0 2 49 2 56 0q9-2-10-2zm85 0c-4 2 3 3 30 3s31-1 30-3zm100 0-10 1 30 1 29-1c0-2-29-2-49-1m-451 1-2 1q-4 2 1 3c3 1 56 0 59-1q3-1 1-2c-3-2-58-2-59-1m110-1-8 1q-15 0-15 3 0 2 13 2l26-1 20-1c5-2-3-4-11-4zm63 1c-3 3-1 3 28 3 35 0 36 0 35-3-2-2-60-1-63 0m-263 2-1 2c1 2 59 2 62 0q2-2-1-2zm-83 1q-5 1-2 4l39-1c18 0 21-1 21-2 0-2-51-3-58-1M0 28q1 3 7 2 8-3-3-4-4 0-4 2m348 35q-6 1-5 3c2 2 64 1 64-1q2-3-19-2zm84 1c-2 2 0 2 30 2 31 0 31 0 30-2-1-3-58-3-60 0m89-1c-3 3-1 3 29 3s35 0 30-3zm93 0-4 2 31 1q41 0 30-2c-4-1-54-2-57-1m83 0-1 2 30 1c25 0 30-1 30-2s-55-3-59-1m-435 1q-6 0-4 2c1 2 51 2 56 1q8-2 0-3zM82 66q-6 3-1 4l60-1v-2c0-2-54-2-59-1m85 0c-1 3 3 3 32 3 26 0 31-1 31-2 0-2-61-3-63-1M0 69v2h24c26 0 31 0 31-3 0-1 1-1-30-1H0zm516 36c-2 2-17 3-31 2l-8 1 1 2c3 1 57 0 58-1q3-2-5-3l-9-1zm226 0q-4 2 0 3l8 1 12-1q8 0 7-2c0-2-1-2-13-2zm-173 1q-8 4 1 4c22 1 56 0 56-2s-49-4-57-2m87 0c-3 3-1 3 28 3 27 0 34-1 33-3-2-2-58-1-61 0m-421 2c-20 0-23 1-23 2 0 2 1 3 32 2 21 0 28-1 29-2q3-3-9-3zm79 0c-11 0-12 0-12 2 1 2 58 2 60 0 3-3-2-3-48-2m74 0c-4 3 1 3 29 3s35-1 35-2c1-2-62-2-64-1m-261 1-3 2 4 3 28-1 29-1 1-2c0-2 0-2-28-2zM2 111l-2 2c0 2 6 3 9 1q4-2 0-3zm40 0q-5 1-2 3c2 1 57 0 59-1l1-1c0-2-49-3-58-1m238 37c-21 0-22 0-22 2 0 3 55 3 59 1 4-3 0-4-37-3m66 0q-4 0-2 3c1 2 45 1 48-1h4c4 3 15 1 12-2zm90 0q-7 0-3 3h59c3-3-31-5-56-3m84 0c-3 2 2 3 30 3s33 0 32-3zm90 0c-1 2 3 3 31 3s35-1 31-3zm87 0c-4 2 1 3 27 3q39 0 32-3zm-526 2q-3 0-3 2c0 2 58 3 61 1l1-3zM1 151l-1 2c0 2 1 2 27 2 27 0 31 0 28-3 0-1-52-2-54-1m81 0q-6 2-1 4l60-2q4-1 0-2zm658 37q-5 3 15 3c13 0 14 0 14-2s-1-2-14-2zm-324 1h-13q-19 0-16 4l32 1c31-1 37-2 32-4-3-1-22-2-24-1zm62 1c-3 3 0 3 30 2 24 0 29-1 29-2 0-2-57-3-59 0m88-1c-4 3 0 3 28 3 30 0 32 0 32-3 0-1-57-2-60 0m88 0c-1 3 2 3 30 3s33-1 33-3zm-506 2c-22 0-26 1-24 4 1 1 56 0 61-1q6-2-3-3zm65 0q-3 2-1 3c2 1 57 0 61-1l2-1c-1-2-58-2-62-1m90 0q-2 2 1 4c6 1 59-1 59-3 0-1-56-3-60-1m-258 2q-7 0-6 2c0 2 0 2 29 2 30 0 36-1 31-4zm-45 2q0 3 7 2 9-2-2-4-5 0-5 2m458 35q-27 0-27 2c0 2 4 2 32 2 26 0 31-1 28-3-1-1-6-2-33-1m75 0c-12 0-13 0-13 2 1 2 44 3 57 1q8-1 1-3zm79 0q-5 2 3 3c11 1 56 1 57-1v-1c-2-1-58-2-60-1m111 0c-27 0-30 0-27 2 2 2 8 2 30 1q37 0 27-2c-4-2-4-2-30-1m-462 1q-3 0-3 2c1 1 3 2 29 2 28 0 33-1 31-4zm82 0c-4 3 1 3 27 3h31q8 0 6-3zm-162 1q-18 1-13 3c1 1 56 2 60 0q4-1 0-3zM0 236v2h27c27 0 29 0 29-2 0-3-3-3-30-3H0zm80-2c-5 3 1 4 30 3 31 0 33 0 33-2-1-2-61-2-63-1m501 38q-20 0-17 3h58q7-1 1-2c-5-1-27-2-42-1m75 0q-5 3 4 3c16 1 55 0 55-1 3-3-1-3-28-3zm83 0q-2 3 16 3c13 0 14 0 14-2s-28-3-30-1m-256 1q-10 2-5 3l19 1 27-1q17 0 12-3zm-246 1c-23 0-28 1-25 3 2 2 59 1 61-1 3-2-1-3-36-2m78 0q-16 1-13 3h60q6-5-47-3m73 0v2c1 1 6 2 32 1 29 0 33-1 32-3zm-220 1h-19c-20 0-25 1-25 3s3 2 33 1c27-1 33-1 28-4zm-127 2-2 2 24 1h30q8 0 7-2c0-2-1-2-28-2zm-41 2c0 2 8 3 11 1q3-3-6-3-5 0-5 2m438 35q-10 0-6 3h58q4-2-2-3zm84 0q-5 0-2 3c2 1 59 0 60-1l1-2zm93 0-5 1c1 1 8 2 30 2 26 0 34-1 32-2-1-1-51-2-57-1m96 0q-16 0-15 2c0 1-2 1 27 1 33 0 32 0 32-1q1-2-11-2zm-452 2c-1 2 0 2 30 2 25 0 29-1 29-2 0-2-58-3-59 0m85-1c-2 3 1 3 31 3s35-1 32-3zM1 317l-1 2c0 3 25 3 26 0l1-2zm83 0q-3 0-3 2c0 2 48 3 58 1q8-1 1-3zm84 1c-1 2 0 2 31 2 30 0 33 0 31-3-1-2-61-1-62 1m-133 1q-1 3 9 2 16 0 12-3c-2-2-21-2-21 1m645 37q-37 1-21 3c6 1 56 0 57-1 2-2-7-3-36-2m61 0q-3 1-1 2c3 1 29 0 29-2zm-263 1q-5 2 1 3h29c25 0 31-1 28-3zm87 0c-4 2 1 3 27 3q38 0 33-3zm-342 1q-15 2-11 3h36c27 0 28 0 26-3zm83 0q-5 1-3 3 1 3 5 1h29c24-1 29-1 24-4zm82 0c-4 3-1 3 31 3 30 0 35-1 32-3zm-325 2c-20 0-24 1-24 3h60q2 0 1-2c-1-2-7-2-37-1m61 1c-1 3 2 3 28 2q36 0 35-3c0-2-62-1-63 1M0 362q0 3 5 2 9 0 5-3-8-2-10 1m289 36h-16c-12 0-14 1-14 2q-1 2 8 2h47q6-2 2-3zm58 0q-6 2-1 3h59q5-2-1-3zm85 0c-4 3 1 3 29 3 29 0 35-1 29-3zm88 0c-2 3 2 3 30 3 29 0 34 0 30-3zm92 0q-4 1 1 2h58v-1c-1-1-57-2-59-1m85 1c-4 2 0 2 28 2 27 0 34-1 29-3-3-1-55-1-57 1m-529 1-1 1q-2 4 37 3c24-1 29-2 25-4zM2 401q-2 0-2 3c0 2 0 2 8 2l9-1h3c3 1 33 1 35-1 3-2-2-3-26-3zm87 0q-13 1-8 4l6 1 29-2 26-1c5-3-16-4-53-2m651 39-1 2 15 1c14 0 15 0 15-2s-1-2-14-2zm-263 1c-2 3 0 3 30 3 27 0 30-1 29-3-2-2-57-1-59 0m88 0c-2 3 1 3 29 3 27-1 32-1 30-3zm89 0c-2 3 3 3 32 2 27 0 29 0 29-2s-59-1-61 0m-424 1c-17 0-19 1-19 2 0 2 0 2 20 2h27l15-2c5-3-4-3-43-2m93 0c-18 0-21 1-21 2 0 3 58 3 60 1 2-3-8-4-39-3m67 0q-3 0-3 2 2 3 51 0 20 0 12-2zm-244 1c-16 0-20 0-21 2v2c3 1 60-1 61-2 3-3-1-3-40-2m-56 0-25 1c-25 1-27 1-25 4l24 1 29-1q8 0 6-3zm437 38q-11 1-6 3h60c1-2-1-2-19-3zm-88 1q-12 0-7 3c3 2 59 0 59-2s-27-3-52-1m-180 1c-2 3 1 3 28 3 28 0 33-1 30-3zm83 0c-1 3 4 3 33 3 28 0 33-1 31-3zm268 0 2 1h59c4-1-2-2-30-2zm85 0c-2 2 2 2 29 2s31 0 31-2zm-524 1q-5 2-1 3h57q4-1 0-3zm-63 1c-24 0-27 1-27 2 0 2 59 2 61 0 3-2-1-3-34-2M0 487v3l27-1 28-1c3-3-1-3-28-3H0z"
        mask="url(#16282281824-posters-1720554028121-horizontal-mask)" itemprop="bold" fill-opacity="0.90"
        fill-rule="evenodd" stroke="none" fill="url(#16282281824-posters-1720554028121-vertical-bold)"></path>
    </pattern>
    <rect id="16282281824-posters-1720554028121-pattern-render" fill="url(#16282281824-posters-1720554028121-pattern)"
      width="100%" height="100%"></rect>
  </defs>
  <radialGradient id="lightbar" cx="50%" cy="200%" fy="0" r="201%">
    <stop offset="0%" style="stop-color: rgb(255, 255, 255); stop-opacity: 0.1;"></stop>
    <stop offset="10%" style="stop-color: rgb(0, 0, 0); stop-opacity: 0.1;"></stop>
    <stop offset="30%" style="stop-color: rgb(0, 0, 0); stop-opacity: 0.3;"></stop>
    <stop offset="90%" style="stop-color: rgb(0, 0, 0); stop-opacity: 0.55;"></stop>
    <stop offset="100%" style="stop-color: rgb(0, 0, 0); stop-opacity: 0.6;"></stop>
  </radialGradient>
  <g class="radial">
    <radialGradient id="16282281824-posters-1720554028121-radial" gradientUnits="userSpaceOnUse">
      <stop itemprop="radial" stop-color="#dfdedd" offset="0%"></stop>
      <stop itemprop="radial" stop-color="#dcdcda" offset="15%"></stop>
      <stop itemprop="radial" stop-color="#dcdcda" offset="30%"></stop>
      <stop itemprop="radial" stop-color="#e1e1e0" offset="45%"></stop>
      <stop itemprop="radial" stop-color="#dfdedd" offset="60%"></stop>
      <stop itemprop="radial" stop-color="#dcdcda" offset="75%"></stop>
      <stop itemprop="radial" stop-color="#dfdedd" offset="90%"></stop>
    </radialGradient>
    <radialGradient id="16282281824-posters-1720554028121-radial-background" gradientUnits="userSpaceOnUse">
      <stop stop-color="#d3cec5" offset="0%"></stop>
      <stop stop-color="#d3cec5" offset="15%"></stop>
      <stop stop-color="#d3cec5" offset="30%"></stop>
      <stop stop-color="#d3cec5" offset="45%"></stop>
      <stop stop-color="#d3cec5" offset="60%"></stop>
      <stop stop-color="#d3cec5" offset="75%"></stop>
      <stop stop-color="#d3cec5" offset="90%"></stop>
    </radialGradient>
    <radialGradient id="16282281824-posters-1720554028121-radial-light" gradientUnits="userSpaceOnUse">
      <stop stop-color="#9b9a97" offset="0%"></stop>
      <stop stop-color="#9c9a96" offset="15%"></stop>
      <stop stop-color="#9c9a96" offset="30%"></stop>
      <stop stop-color="#9b9a97" offset="45%"></stop>
      <stop stop-color="#9b9a97" offset="60%"></stop>
      <stop stop-color="#9c9a96" offset="75%"></stop>
      <stop stop-color="#9b9a97" offset="90%"></stop>
    </radialGradient>
    <radialGradient id="16282281824-posters-1720554028121-radial-regular" gradientUnits="userSpaceOnUse">
      <stop stop-color="#82807d" offset="0%"></stop>
      <stop stop-color="#83817c" offset="15%"></stop>
      <stop stop-color="#83817c" offset="30%"></stop>
      <stop stop-color="#82807d" offset="45%"></stop>
      <stop stop-color="#82807d" offset="60%"></stop>
      <stop stop-color="#83817c" offset="75%"></stop>
      <stop stop-color="#82807d" offset="90%"></stop>
    </radialGradient>
    <radialGradient id="16282281824-posters-1720554028121-radial-medium" gradientUnits="userSpaceOnUse">
      <stop stop-color="#514f4d" offset="0%"></stop>
      <stop stop-color="#51504d" offset="15%"></stop>
      <stop stop-color="#51504d" offset="30%"></stop>
      <stop stop-color="#514f4d" offset="45%"></stop>
      <stop stop-color="#514f4d" offset="60%"></stop>
      <stop stop-color="#51504d" offset="75%"></stop>
      <stop stop-color="#514f4d" offset="90%"></stop>
    </radialGradient>
    <radialGradient id="16282281824-posters-1720554028121-radial-bold" gradientUnits="userSpaceOnUse">
      <stop stop-color="#2f2e2d" offset="0%"></stop>
      <stop stop-color="#2f2e2d" offset="15%"></stop>
      <stop stop-color="#2f2e2d" offset="30%"></stop>
      <stop stop-color="#2f2e2d" offset="45%"></stop>
      <stop stop-color="#2f2e2d" offset="60%"></stop>
      <stop stop-color="#2f2e2d" offset="75%"></stop>
      <stop stop-color="#2f2e2d" offset="90%"></stop>
    </radialGradient>
  </g>
  <g class="vertical">
    <linearGradient id="16282281824-posters-1720554028121-vertical" gradientUnits="userSpaceOnUse" x1="0" x2="0" y1="0"
      y2="100%">
      <stop itemprop="vertical" stop-color="#dfdedd" offset="0%"></stop>
      <stop itemprop="vertical" stop-color="#dcdcda" offset="15%"></stop>
      <stop itemprop="vertical" stop-color="#dcdcda" offset="30%"></stop>
      <stop itemprop="vertical" stop-color="#e1e1e0" offset="45%"></stop>
      <stop itemprop="vertical" stop-color="#dfdedd" offset="60%"></stop>
      <stop itemprop="vertical" stop-color="#dcdcda" offset="75%"></stop>
      <stop itemprop="vertical" stop-color="#dfdedd" offset="90%"></stop>
    </linearGradient>
    <linearGradient id="16282281824-posters-1720554028121-vertical-background" gradientUnits="userSpaceOnUse" x1="0"
      x2="0" y1="0" y2="100%">
      <stop stop-color="#cdcccb" offset="0%"></stop>
      <stop stop-color="#ceccca" offset="15%"></stop>
      <stop stop-color="#ceccca" offset="30%"></stop>
      <stop stop-color="#cdcccb" offset="45%"></stop>
      <stop stop-color="#cdcccb" offset="60%"></stop>
      <stop stop-color="#ceccca" offset="75%"></stop>
      <stop stop-color="#cdcccb" offset="90%"></stop>
    </linearGradient>
    <linearGradient id="16282281824-posters-1720554028121-vertical-light" gradientUnits="userSpaceOnUse" x1="0" x2="0"
      y1="0" y2="100%">
      <stop stop-color="#ae9f84" offset="0%"></stop>
      <stop stop-color="#ae9f84" offset="15%"></stop>
      <stop stop-color="#ae9f84" offset="30%"></stop>
      <stop stop-color="#ae9f84" offset="45%"></stop>
      <stop stop-color="#ae9f84" offset="60%"></stop>
      <stop stop-color="#ae9f84" offset="75%"></stop>
      <stop stop-color="#ae9f84" offset="90%"></stop>
    </linearGradient>
    <linearGradient id="16282281824-posters-1720554028121-vertical-regular" gradientUnits="userSpaceOnUse" x1="0" x2="0"
      y1="0" y2="100%">
      <stop stop-color="#82807d" offset="0%"></stop>
      <stop stop-color="#83817c" offset="15%"></stop>
      <stop stop-color="#83817c" offset="30%"></stop>
      <stop stop-color="#82807d" offset="45%"></stop>
      <stop stop-color="#82807d" offset="60%"></stop>
      <stop stop-color="#83817c" offset="75%"></stop>
      <stop stop-color="#82807d" offset="90%"></stop>
    </linearGradient>
    <linearGradient id="16282281824-posters-1720554028121-vertical-medium" gradientUnits="userSpaceOnUse" x1="0" x2="0"
      y1="0" y2="100%">
      <stop stop-color="#514f4d" offset="0%"></stop>
      <stop stop-color="#51504d" offset="15%"></stop>
      <stop stop-color="#51504d" offset="30%"></stop>
      <stop stop-color="#514f4d" offset="45%"></stop>
      <stop stop-color="#514f4d" offset="60%"></stop>
      <stop stop-color="#51504d" offset="75%"></stop>
      <stop stop-color="#514f4d" offset="90%"></stop>
    </linearGradient>
    <linearGradient id="16282281824-posters-1720554028121-vertical-bold" x1="0" x2="0" y1="0" y2="100%">
      <stop stop-color="#2f2e2d" offset="0%"></stop>
      <stop stop-color="#2f2e2d" offset="15%"></stop>
      <stop stop-color="#2f2e2d" offset="30%"></stop>
      <stop stop-color="#2f2e2d" offset="45%"></stop>
      <stop stop-color="#2f2e2d" offset="60%"></stop>
      <stop stop-color="#2f2e2d" offset="75%"></stop>
      <stop stop-color="#2f2e2d" offset="90%"></stop>
    </linearGradient>
  </g>
  <g class="horizontal">
    <linearGradient id="16282281824-posters-1720554028121-horizontal" x1="0" x2="100%" y1="0" y2="0"
      gradientUnits="userSpaceOnUse">
      <stop itemprop="horizontal" stop-color="#dcdbdb" offset="0%"></stop>
      <stop itemprop="horizontal" stop-color="#dcdcda" offset="15%"></stop>
      <stop itemprop="horizontal" stop-color="#dfdedd" offset="30%"></stop>
      <stop itemprop="horizontal" stop-color="#dcdbdb" offset="45%"></stop>
      <stop itemprop="horizontal" stop-color="#dfdedd" offset="60%"></stop>
      <stop itemprop="horizontal" stop-color="#e1e1df" offset="75%"></stop>
      <stop itemprop="horizontal" stop-color="#dfdedd" offset="90%"></stop>
    </linearGradient>
    <linearGradient id="16282281824-posters-1720554028121-horizontal-background" gradientUnits="userSpaceOnUse" x1="0"
      x2="100%" y1="0" y2="0">
      <stop stop-color="#cdcccb" offset="0%"></stop>
      <stop stop-color="#ceccca" offset="15%"></stop>
      <stop stop-color="#cecdca" offset="30%"></stop>
      <stop stop-color="#cdcccb" offset="45%"></stop>
      <stop stop-color="#cdcccb" offset="60%"></stop>
      <stop stop-color="#ceccca" offset="75%"></stop>
      <stop stop-color="#cdcccb" offset="90%"></stop>
    </linearGradient>
    <linearGradient id="16282281824-posters-1720554028121-horizontal-light" gradientUnits="userSpaceOnUse" x1="0"
      x2="100%" y1="0" y2="0">
      <stop stop-color="#9b9a97" offset="0%"></stop>
      <stop stop-color="#9c9a96" offset="15%"></stop>
      <stop stop-color="#9c9a96" offset="30%"></stop>
      <stop stop-color="#9b9a97" offset="45%"></stop>
      <stop stop-color="#9b9a97" offset="60%"></stop>
      <stop stop-color="#9c9a96" offset="75%"></stop>
      <stop stop-color="#9b9a97" offset="90%"></stop>
    </linearGradient>
    <linearGradient id="16282281824-posters-1720554028121-horizontal-regular" gradientUnits="userSpaceOnUse" x1="0"
      x2="100%" y1="0" y2="0">
      <stop stop-color="#968669" offset="0%"></stop>
      <stop stop-color="#968669" offset="15%"></stop>
      <stop stop-color="#968769" offset="30%"></stop>
      <stop stop-color="#968669" offset="45%"></stop>
      <stop stop-color="#968669" offset="60%"></stop>
      <stop stop-color="#968369" offset="75%"></stop>
      <stop stop-color="#968669" offset="90%"></stop>
    </linearGradient>
    <linearGradient id="16282281824-posters-1720554028121-horizontal-medium" gradientUnits="userSpaceOnUse" x1="0"
      x2="100%" y1="0" y2="0">
      <stop stop-color="#5d5341" offset="0%"></stop>
      <stop stop-color="#5d5341" offset="15%"></stop>
      <stop stop-color="#5d5441" offset="30%"></stop>
      <stop stop-color="#5d5341" offset="45%"></stop>
      <stop stop-color="#5d5341" offset="60%"></stop>
      <stop stop-color="#5d5141" offset="75%"></stop>
      <stop stop-color="#5d5341" offset="90%"></stop>
    </linearGradient>
    <linearGradient id="16282281824-posters-1720554028121-horizontal-bold" gradientUnits="userSpaceOnUse" x1="0"
      x2="100%" y1="0" y2="0">
      <stop stop-color="#2f2e2d" offset="0%"></stop>
      <stop stop-color="#2f2e2d" offset="15%"></stop>
      <stop stop-color="#2f2e2d" offset="30%"></stop>
      <stop stop-color="#2f2e2d" offset="45%"></stop>
      <stop stop-color="#2f2e2d" offset="60%"></stop>
      <stop stop-color="#2f2e2d" offset="75%"></stop>
      <stop stop-color="#2f2e2d" offset="90%"></stop>
    </linearGradient>
  </g>
  <g class="masks">
    <mask id="16282281824-posters-1720554028121-pattern-mask" maskUnits="userSpaceOnUse"
      maskContentUnits="userSpaceOnUse">
      <pattern id="pattern" x="0" y="0" width=".0133" height=".0144" viewBox="0 0 23.07 40">
        <path
          d="M17.62 0l-6.07 10.5m2.74 4.76L8.22 4.75m-5.48 0h12.13M.01 0h23.07M6.07 20L0 9.5m2.74-4.75l-6.07 10.5m-5.48 0H3.33m8.2 4.75L0 .02-11.54 20m40.68 0L23.07 9.5m2.74-4.75l-6.06 10.5m-5.49 0H26.4M34.6 20L23.08.02 11.53 20m-5.46 0L0 30.51m2.74 4.75l-6.07-10.5m-5.48 0H3.33m8.2-4.75L0 40l-11.54-19.98zM17.6 40l-6.06-10.5m2.74-4.76L8.2 35.25m-5.48 0h12.13M0 40h23.07L11.54 20.01m17.6 0l-6.07 10.5m2.74 4.75l-6.06-10.5m-5.49 0H26.4M11.53 20h23.08L23.07 40"
          stroke-linecap="round" stroke-width="3.5" stroke="white"
          fill="url(#16282281824-posters-1720554028121-horizontal-background)"></path>
      </pattern>
      <rect width="100%" height="100%" fill="url(#pattern)"></rect>
    </mask>
    <mask id="16282281824-posters-1720554028121-horizontal-mask" maskUnits="userSpaceOnUse"
      maskContentUnits="userSpaceOnUse">
      <rect width="100%" height="100%" fill="url(#16282281824-posters-1720554028121-horizontal-background)"></rect>
    </mask>
    <mask id="16282281824-posters-1720554028121-radial-mask" maskUnits="userSpaceOnUse"
      maskContentUnits="userSpaceOnUse">
      <rect width="100%" height="100%" fill="url(#16282281824-posters-1720554028121-radial-background)"></rect>
    </mask>
    <mask id="16282281824-posters-1720554028121-vertical-mask" maskUnits="userSpaceOnUse"
      maskContentUnits="userSpaceOnUse">
      <rect width="100%" height="100%" fill="url(#16282281824-posters-1720554028121-vertical-background)"></rect>
    </mask>
  </g>
  <use href="#16282281824-posters-1720554028121-pattern-render"></use>
  <g>
    <use href="#16282281824-posters-1720554028121-background"></use>
    <use href="#16282281824-posters-1720554028121-light"></use>
    <use href="#16282281824-posters-1720554028121-regular"></use>
    <use href="#16282281824-posters-1720554028121-medium"></use>
    <use href="#16282281824-posters-1720554028121-bold"></use>
  </g>
  <g itemprop="animation">
    <animate href="#16282281824-posters-1720554028121-light" attributeName="stroke-opacity" repeatCount="indefinite"
      dur="5s" values="0.9;0.0;0.9"></animate>
    <animate href="#16282281824-posters-1720554028121-regular" attributeName="stroke-opacity" repeatCount="indefinite"
      dur="4s" values="0.9;0;0.9"></animate>
    <animate href="#16282281824-posters-1720554028121-medium" attributeName="stroke-opacity" repeatCount="indefinite"
      dur="5s" values="0.9;0;0.9"></animate>
    <animate href="#16282281824-posters-1720554028121-bold" attributeName="stroke-opacity" repeatCount="indefinite"
      dur="3s" values="0.9;0;0.9"></animate>
    <animate href="#16282281824-posters-1720554028121-regular" attributeName="fill-opacity" repeatCount="indefinite"
      dur="8s" values="0.9;0.75;0.95;0.8;0.9;"></animate>
    <animate href="#16282281824-posters-1720554028121-radial-background" attributeName="cx" repeatCount="indefinite"
      dur="34s" values="0%;33%;100%;0%;100%;0%;"></animate>
    <animate href="#16282281824-posters-1720554028121-radial-background" attributeName="cy" repeatCount="indefinite"
      dur="55s" values="0%;100%;33%;100%;66%;0%"></animate>
    <animate href="#16282281824-posters-1720554028121-vertical-light" attributeName="x1" repeatCount="indefinite"
      dur="55s" values="0%;33%;100%;0%;133%;0%;"></animate>
    <animate href="#16282281824-posters-1720554028121-vertical-light" attributeName="y1" repeatCount="indefinite"
      dur="86s" values="0%;100%;33%;100%;66%;0%"></animate>
    <animate href="#16282281824-posters-1720554028121-horizontal-regular" attributeName="x1" repeatCount="indefinite"
      dur="34s" values="0%;100%;66%;0%;33%;133%;0%"></animate>
    <animate href="#16282281824-posters-1720554028121-horizontal-regular" attributeName="y1" repeatCount="indefinite"
      dur="55s" values="0%;66%;100%;33%;100%;66%;0%"></animate>
    <animate href="#16282281824-posters-1720554028121-vertical-medium" attributeName="x1" repeatCount="indefinite"
      dur="34s" values="0%;100%;66%;0%;33%;133%;0%"></animate>
    <animate href="#16282281824-posters-1720554028121-vertical-medium" attributeName="y1" repeatCount="indefinite"
      dur="55s" values="0%;66%;100%;33%;100%;66%;0%"></animate>
    <animate href="#16282281824-posters-1720554028121-vertical-bold" attributeName="x1" repeatCount="indefinite"
      dur="34s" values="0%;100%;66%;0%;33%;133%;0%"></animate>
    <animate href="#16282281824-posters-1720554028121-vertical-bold" attributeName="y1" repeatCount="indefinite"
      dur="55s" values="0%;66%;100%;33%;100%;66%;0%"></animate>
  </g>
</svg>
