<svg id="16282281824-posters-1720560278625" itemscope="" itemtype="/posters"
  itemid="/+16282281824/posters/1720560278625" viewBox="0 0 769 512" preserveAspectRatio="xMidYMid meet" tabindex="0"
  class="animate landscape" xmlns="http://www.w3.org/2000/svg">
  <!---->
  <defs class="graphic">
    <pattern id="16282281824-posters-1720560278625-pattern" width="769" height="512" viewBox="0 0 769 512"
      patternUnits="userSpaceOnUse" preserveAspectRatio="xMidYMid meet">
      <rect itemprop="background" width="769" height="512" tabindex="-1"
        id="16282281824-posters-1720560278625-background" fill-opacity="1"
        fill="url(#16282281824-posters-1720560278625-radial-background)"></rect>
      <!---->
      <path id="16282281824-posters-1720560278625-light"
        d="M16 3c-5 10 1 22 13 25 15 3 25-9 21-24l-1-4H18zm123 0q-4 9 5 20c12 12 35-2 31-18l-2-4-16-1h-17zm123 1a17 17 0 0 0 1 16c0 7 19 10 26 5 6-4 9-15 5-22l-1-3h-30zm126-1a18 18 0 1 0 32 1l-1-4h-29zm121 0c-5 10 0 22 10 26 15 4 29-13 21-26l-1-3h-29zm123 0q-9 13 3 23c16 11 36-6 28-23l-1-3h-14c-15 0-15 0-16 3m122-1a17 17 0 0 0-2 17c0 3 9 11 13 11h4v-6q1-6-2-7-6-4-1-10l3-5c0-3-13-3-15 0M152 4a6 6 0 1 0 8 9 6 6 0 0 0-8-9M29 5c-4 3-2 12 4 12l4-3c6-5-2-13-8-9m491 2q-3 2-1 6-1 6 6 5 11-2 4-11-4-6-9 0M273 7q-3 4 0 7c5 7 16 0 11-6-2-4-9-4-11-1m370 0a6 6 0 1 0 7 10 6 6 0 0 0-7-10M399 8a6 6 0 1 0 11 2c-1-4-8-5-11-2M92 26c-10 1-17 12-15 21 1 7 11 14 19 14 10 0 20-17 16-25q-8-13-20-10m492 1c-16 5-20 19-10 30 5 5 5 5 11 5 13 0 22-11 19-22-2-9-12-16-20-13m-252 2c-13 7-14 25-2 30 14 6 28-2 28-16 0-11-16-20-26-14M90 38q-5 10 5 11 8-1 6-10c-2-4-9-4-11-1m246 1c-4 1-4 8 0 11q9 5 10-5 0-8-10-6m246 1c-5 5 0 11 6 10q6-1 5-7c0-5-7-7-11-3M0 63v5h3q8 0 6 8 0 6-7 5c-3 0-3 9 0 10q6 2 14-6 12-10 0-22c-5-5-5-5-10-5H0zm178-3c-13 7-13 25 0 31 16 9 34-11 24-25-5-8-16-10-24-6m61 1c-13 6-13 22-1 30q9 5 20-1c20-11 2-40-19-29m430 0c-18 9-13 32 7 32 7 0 9-1 14-8 12-14-5-33-21-24m-242 1c-13 10-13 25-1 30a18 18 0 1 0 1-30m54 3c-11 9-9 22 4 28 15 7 31-8 24-23q-4-9-15-10h-7zm251-4c-4 1-11 8-12 13-1 10 7 20 17 19 14 0 23-11 18-23q-5-13-23-9m-547 8c-5 2-5 11 0 12q9 1 8-8-2-6-8-4m60 1q-7 4-1 10l4 3 3-2c8-5 2-16-6-11m428 0q-4 3-2 8a6 6 0 1 0 2-8m-184 2q-3 1-1 9c1 4 8 3 10-1q4-5 0-8-5-4-9 0m245 0q-3 5-1 9 5 5 11 0c4-8-4-15-10-9m-302 0q-4 3-2 8c2 5 9 5 11 0 3-6-3-11-9-8m-97 18q-14 4-15 17c0 17 20 23 31 10q12-15-5-26c-6-2-6-2-11-1M83 93c-13 8-12 24 0 30 20 9 38-17 20-30-5-4-15-4-20 0m496 4c-5 1-12 8-12 12v4c-1 12 13 21 24 16 14-7 15-25 3-31q-10-4-15-1m-245 5q-6 5-1 9 6 6 10 0 5-5-1-10-4-5-8 1m-246 1c-5 6 0 13 7 10q4-2 3-8-4-8-10-2m493 4q-3 2-2 7a6 6 0 1 0 2-7M26 126c-15 4-19 22-6 31 8 5 21 2 26-6 9-15-4-31-20-25m122 0c-14 4-18 22-6 30 9 6 21 3 27-6 3-5 3-15-1-19q-8-8-20-5m120 1q-17 12-6 27c10 11 27 8 32-7a16 16 0 0 0-10-20zm125 1c-10 7-12 19-4 27a19 19 0 0 0 31-18l-1-1c0-2-6-8-9-9-4-2-13-1-17 1m124 0c-15 7-15 24 0 32q11 5 22-9c10-13-6-30-22-23m122 0c-10 5-16 17-11 23l3 4q4 6 15 6a17 17 0 1 0-7-33m121 3a17 17 0 0 0 6 33q4 2 3-6 1-7-2-6-4-1-6-7 2-6 6-7 3 0 2-4 1-8-9-3m-733 6a7 7 0 0 0 8 10c6-6-1-15-8-10m374-1a6 6 0 1 0 6 11c5-4 0-13-6-11m-252 2c-6 6 3 15 9 9q4-6 0-10-4-2-9 1m125-1q-4 2-4 6 0 7 5 6c8 0 10-6 5-10q-4-4-6-2m247 1a7 7 0 1 0 9 3q-2-8-9-3m119 1c-2 1-1 9 1 10 6 3 13-2 10-8q-4-4-11-2m-427 19c-15 4-19 21-8 29 12 9 29 1 29-13a18 18 0 0 0-21-16m243 2q-5 2-9 9l-1 8q0 15 18 16 12 0 16-13c3-14-11-26-24-20m244 1-2 1-1 1a17 17 0 1 0 20 28q9-6 8-15a19 19 0 0 0-9-14c-1-1-13-2-16-1m-485 7c-4 0-7 7-4 11a7 7 0 1 0 7-12zm246 1c-7 3-6 14 2 12q7-1 6-3 1-10-8-9m242 2c-4 2-3 12 1 12q8 2 9-6-1-9-10-6m-583 14-3 1c-2 0-8 5-10 9-4 11 6 24 18 24 19 0 25-24 8-33-4-2-12-3-13-1m-63 1q-10 5-12 18c0 3 6 12 9 14 8 4 21 0 25-7 9-15-4-29-22-25m244 2a17 17 0 0 0 11 31c6-1 15-9 15-14a18 18 0 0 0-10-17c-1-2-12-2-16 0m61 0c-18 7-13 33 7 33a18 18 0 0 0 17-23q-9-14-24-10m185 1c-10 3-15 16-10 24 11 16 39 6 34-12q-6-16-24-12m65 0c-13 2-18 19-9 28 12 10 29 5 31-10q0-19-22-18m-493 7q-4 7 3 12 4 2 8-3c4-3 0-11-5-11zm-57 0c-6 1-4 13 2 13 2 0 7-5 7-8l-3-4q-2-3-6-1m242 2q-4 5 0 9 6 4 11 0c3-8-6-15-11-9m61 0q-8 7 1 12c8 3 14-8 6-13-4-1-3-1-7 1m184 1c-4 4 0 14 5 13q11-4 4-12-5-6-9-1m64 0c-2 0-4 5-3 7q3 10 11 4c5-6 0-14-8-11m-402 16a17 17 0 1 0 18 27c12-11-1-31-18-27m244 0c-6 2-12 12-11 19 3 21 35 18 35-4 0-11-12-19-24-15m246 2c-12 2-19 17-11 26q14 14 28 0c12-12 0-29-17-26m-243 8q-5 5-1 11c5 4 12 1 12-5 0-5-7-9-11-6m-246 2a7 7 0 1 0 11 5c0-5-8-9-11-5m490-1q-8 6-1 13a7 7 0 1 0 1-13m-554 18c-13 5-17 17-9 28 8 12 26 7 32-8a12 12 0 0 0 0-11c-2-7-16-12-23-9m-126 2c-9 5-12 17-7 26a18 18 0 1 0 7-26m249 0q-6 2-11 9c-8 12 4 27 18 24 20-2 22-27 3-33-6-2-5-2-10 0m123 2q-10 6-10 17 0 12 13 16a18 18 0 1 0 3-35zm120 0c-9 5-13 16-7 24 8 11 25 10 31-3 6-15-9-29-24-21m121 1c-7 6-9 7-8 15 0 19 24 23 33 5 8-14-11-30-25-20m127-2c-19 7-16 33 3 33h4v-10h-3q-6 0-6-7 1-6 7-6 3 1 2-5 0-9-7-5m-612 8q-4 4-1 10a7 7 0 1 0 1-10m371 1a7 7 0 1 0 3 13 7 7 0 0 0-3-13m-495 2c-4 4-1 11 4 11s9-7 5-11q-5-4-9 0m245-1c-2 2-1 8 1 10 4 4 11 0 11-6 0-4-9-7-12-4m369 0a7 7 0 1 0 8 11 7 7 0 0 0-8-11m-243 1c-1 2-2 8-1 10 3 4 12 1 12-4 0-6-8-9-11-6M88 277c-12 4-18 19-10 28 11 13 32 5 32-12q1-6-4-10-8-9-18-6m244 2c-15 7-17 24-4 31a17 17 0 1 0 4-31m244 2c-13 8-13 23 0 30 15 8 33-11 23-24-5-9-16-11-23-6M87 291c-4 6 5 13 9 8a7 7 0 1 0-10-8m494 0q-6 4 0 10 7 5 10-3c4-6-4-12-10-7m-247 0c-5 3-1 12 4 12 6 0 9-8 5-11q-4-3-9-1M0 310q-1 7 3 6c8 0 7 11 0 12q-3-1-3 6v6l4-1q8 0 12-5c4-5 7-15 4-16l-1-3a21 21 0 0 0-17-11q-2-1-2 6m178-2c-18 8-13 32 7 32 9 0 19-9 19-17 0-13-14-21-26-15m59 0c-15 10-7 34 10 31 11-1 13-2 16-9q5-13-6-22c-5-3-15-3-20 0m251-1a18 18 0 0 0-9 29c8 8 22 6 29-6q6-11-7-21-5-4-13-2m178 2c-7 4-8 6-8 15v8l4 4 8 4c4 4 16-2 21-10 9-14-11-31-25-21m-238 0c-15 7-16 22-4 30 13 9 32-5 27-20a17 17 0 0 0-11-11c-1-2-9-1-12 1m303-1q-16 9-10 23c5 12 20 13 29 3 12-12-4-33-19-26m-549 9a7 7 0 1 0 8 10 7 7 0 0 0-8-10m60 1q-3 2-1 8 4 6 11 1c6-6-4-15-10-9m428 1q-3 4 0 8a6 6 0 1 0 0-8m-240 0a7 7 0 1 0 9 9 7 7 0 0 0-9-9m301-1a7 7 0 1 0 13 5c0-5-9-8-13-5m-244 1q-4 5 0 9c2 3 9 2 10 0 4-7-3-13-10-9M87 338a17 17 0 0 0-14 15c-4 6 8 20 17 20l4-1 4-1c7-2 15-17 11-19l-1-4c0-6-13-13-21-10m244 0c-5 1-11 9-12 16-2 6 6 16 14 17a18 18 0 0 0 13-3c3 0 9-9 9-14 0-11-13-20-24-16m246 5c-13 5-15 23-3 32 12 8 32-7 27-20q-7-16-24-12m-244 6q-7 9 3 11a7 7 0 1 0-3-11m-246 1c-3 2-3 8 0 10q5 3 9-1c5-6-2-14-9-9m492 5q-4 5 0 9c6 4 12 1 10-6q-2-8-10-3m-431 17c-5 1-13 8-14 11-7 18 20 32 33 17 4-4 4-14 1-20-4-6-14-10-20-8m-125 1c-17 9-13 34 5 34q20 0 19-22c0-8-17-16-24-12m246 1q-18 9-11 23c5 11 17 14 28 7 16-11 1-38-17-30m125 0c-17 9-14 30 5 33 14 3 26-16 17-28-5-6-15-9-22-5m126 0c-17 4-21 19-8 30q10 8 20 0c16-12 7-34-12-30m116 1q-8 4-10 13a17 17 0 0 0 4 14c4 9 20 8 28-2 11-14-5-33-22-25m122 4c-8 3-9 5-9 14q1 16 16 16h4v-5q1-6-2-4c-2 0-7-3-7-6q0-7 6-8 4 1 3-5 1-9-11-2m-487 6a7 7 0 1 0 5-2q-3-1-5 2m126 0a6 6 0 1 0 9 7c4-8-4-13-9-7m-371 0a6 6 0 1 0 10 4c-1-6-7-8-10-4m121 0q-3 4-1 7 2 5 7 3 6 1 5-6-2-10-11-4m373-1c-4 2-6 9-3 11 7 5 16-2 11-9q-2-4-8-2m121 1a6 6 0 1 0 7 10c5-5 0-12-7-10m-430 20c-14 4-18 20-9 30l14 4q7 0 14-7c11-12-4-33-19-27m247 0c-11 3-18 15-13 24a18 18 0 0 0 27 7c4 0 9-11 7-18-2-9-12-15-21-13m243 2a18 18 0 1 0 18 27c5-7 6-10 3-17q-8-13-21-10m-243 11c-4 3-1 11 4 11q7-1 7-7a6 6 0 0 0-11-4m243 1a6 6 0 1 0 9 0q-5-4-9 0M55 434a17 17 0 0 0 12 32q12-4 14-15c2-12-14-23-26-17m60-1c-3 2-9 9-9 14-3 16 20 25 31 12q11-12-1-22l-5-5h-7zm187 1q-13 5-13 17c0 14 20 21 31 11 13-13-1-35-18-28m58 1c-16 8-13 30 5 33 9 2 22-8 21-17q0-13-10-16l-4-1c0-1-9-1-12 1m184 2c-16 7-13 26 5 31 16 5 29-17 17-28-5-5-16-6-22-3m63 0c-13 7-13 24 0 31 7 3 19-1 24-8a13 13 0 0 0 0-15c0-8-15-13-24-8m-489 6c-3 2-3 8 0 10q6 5 11-1c5-7-4-14-11-9m-60 1q-5 10 5 11 6 0 6-6c0-7-8-10-11-5m246 0q-4 2-2 8a7 7 0 1 0 3-8m58 2q-5 8 4 11 6-1 7-7-1-4-6-6zm184 1q-4 3 0 8 5 6 10 0c7-6-3-14-10-8m63 0c-3 4-2 11 3 11q6 1 8-3 3-4 0-7-6-6-11-1m-153 14q-11 2-14 14c-4 11 8 22 21 19q12-3 14-14c1-12-10-22-21-19m-250 2c-6 3-12 12-12 18 0 3 5 11 9 13 6 3 18 3 22-1q10-10 5-23c-4-8-16-12-24-7m492 1c-11 4-17 16-11 25 10 16 37 7 34-11-2-10-14-17-23-14m-244 9c-4 4-1 11 5 11q6 0 7-5c1-7-7-11-12-6m-243 0q-4 3-4 8c2 4 10 5 12 1 3-5-2-11-8-9m488 2a7 7 0 1 0 10 5c0-6-6-9-10-5m-554 16q-10 5-12 16v5h13l-1-3q1-7 7-9c4 0 9 8 6 11q-2 1 5 1 7 1 7-3c2-13-13-23-25-18m-126 3q-7 6-9 14v4h6q8 1 6-2 1-5 6-8 5 1 6 7v3h12v-5q0-7-7-12c-6-4-16-4-20-1m246 0q-8 5-10 14v4h6q7 1 6-2c0-8 12-9 13-2v4h6q8 1 6-3c0-13-15-21-27-15m249-1c-6 2-12 10-12 16v3h6q6 0 5-1c-2-4 5-10 9-9q5 2 5 8-1 3 6 2 6 1 5-3c0-11-13-20-24-16m-122 1-4 3q-4 3-6 11l-2 4h7q7 1 6-2c0-7 13-7 13 0q-1 3 6 2 6 1 5-3c0-10-17-20-25-15m242 1q-9 6-11 15-1 2 6 2 8 0 6-1 1-5 4-8 7 0 10 6c1 5 11 5 11 0 0-11-15-20-26-14m125 0q-12 4-13 15-1 3 6 2 8 1 6-3 1-5 8-6 3 3 2-4 2-9-9-4"
        mask="url(#16282281824-posters-1720560278625-horizontal-mask)" itemprop="light" fill-opacity="0.90"
        fill-rule="evenodd" stroke="none" fill="url(#16282281824-posters-1720560278625-vertical-light)"></path>
      <!---->
      <path id="16282281824-posters-1720560278625-regular"
        d="M17 2q-5 18 10 25c14 5 27-7 22-22l-1-5H33C18 0 18 0 17 2m123 1c-5 9 2 22 12 24 13 1 24-10 22-22l-1-5h-32zm122 2c-2 5-2 5-1 10a17 17 0 1 0 33-11l-1-4h-29zm128-4a18 18 0 1 0 30 4l-2-5h-14zm120 0c-4 6-3 18 2 23 14 13 36-3 28-20l-1-4h-14zm122 3c-11 16 11 33 26 20q10-8 5-20l-2-4h-27zm122-1c-7 7 0 24 12 27h3v-5q1-6-3-8c-4-5-3-12 2-12l1-2c0-4-11-4-15 0M151 5q-4 5 1 9a7 7 0 1 0-1-9M29 4q-4 4-3 8a7 7 0 1 0 3-8m246 1c-6 2-5 11 2 13a7 7 0 1 0-2-13m244 2q-3 3 1 10a7 7 0 1 0 0-10m122-1c-4 5-1 13 4 13q7-1 8-7c0-7-8-10-12-6M400 6q-6 5-1 11c6 6 16-3 11-9-2-3-8-3-10-2M85 29c-12 9-11 24 3 29 12 5 23-3 23-16 1-14-14-21-26-13m251-1c-17 5-18 28-1 32 12 3 22-5 22-17 0-9-12-18-21-15m243 2a16 16 0 0 0-9 10c-4 8 5 22 15 22 15 0 24-18 15-29q-9-10-21-3M90 37a7 7 0 1 0 10 11 7 7 0 0 0-10-11m246 2c-7 3-4 13 4 13q7 0 7-8-3-9-11-5m247-1-3 3a7 7 0 1 0 3-3M0 63q-1 5 3 4a7 7 0 0 1 1 15q-5-1-4 5v4h5q9-2 14-9c6-10-3-24-16-24q-4-1-3 5m180-3c-5 2-11 9-11 12q0 21 18 20 11 1 17-11c6-12-11-27-24-21m59 1c-11 6-12 19-3 27 6 7 22 5 27-3 3-4 3-13 0-18-4-7-16-10-24-6m432-1c-15 6-16 27-1 32 10 3 24-6 24-16 0-11-13-20-23-16m-244 3a16 16 0 0 0 6 31c21 2 27-28 6-33-6-2-7-1-12 2m61-2a19 19 0 0 0-12 23q1 3 8 8c11 6 26-2 26-15 0-11-11-19-22-16m244 1q-16 7-9 22 7 13 23 7c20-10 7-38-14-29m-550 8a7 7 0 1 0 10 10 7 7 0 0 0-10-10m61 1-3 4c0 2 6 8 8 8q6-2 7-8c0-7-7-10-12-4m430-2q-7 6 0 12 5 4 9 0c5-6-1-15-9-12m63 1c-8 4-6 13 2 13 7 0 10-7 6-12q-4-3-8-1m-302 1q-10 3-3 11 4 6 10-1 5-4 0-8-3-4-7-2m54 1c-4 4-1 11 5 11q7 0 7-7c0-5-8-8-12-4M335 91a17 17 0 1 0 15 27c12-12 1-30-15-27M83 93c-12 8-12 23 0 29 19 9 37-14 20-28-5-4-15-5-20-1m496 4q-9 4-12 13c-3 20 24 26 34 7 6-11-9-24-22-20m-246 4q-4 6 0 11a7 7 0 1 0 1-11m-246 2c-5 4-3 11 4 11s10-7 4-12q-3-5-8 1m493 4q-6 3-3 9 5 7 12 2c6-7-1-16-9-11M27 126a17 17 0 1 0 13 30c16-12 7-35-13-30m120 2c-20 7-12 33 9 31 8-1 16-10 15-19-2-11-13-17-24-12m121 1c-13 6-13 23 0 29a17 17 0 1 0 1-29m125-1c-12 8-12 23 0 30 10 5 26-5 26-17 0-11-16-19-26-13m123 1q-14 8-9 21c5 13 22 14 30 1 10-14-6-30-21-22m121 0c-18 9-12 31 7 31h7l5-5c7-7 7-10 3-18q-8-15-22-8m123 3q-10 5-10 14 2 15 15 17 4 1 3-5 1-7-3-6-5-1-6-7c0-3 5-8 7-8q3 0 2-4 1-7-8-1m-735 4a7 7 0 1 0 12 6q-1-7-7-8zm122 1c-4 5-1 12 6 12q6-1 7-7c0-6-8-9-13-5m123 1a7 7 0 1 0 10 10 7 7 0 0 0-10-10m249 0q-7 6 0 12 9 3 11-7-1-10-11-5m120 1a7 7 0 1 0 10 10 7 7 0 0 0-10-10m-428 20c-17 7-17 26-1 30q10 3 16-2c10-8 9-22-3-28-6-2-6-2-12 0m246 1a17 17 0 1 0 21 20c3-12-10-25-21-20m243 1c-15 6-16 24-2 31 8 5 21-1 25-9 4-13-10-27-23-22m-489 8q-5 6 1 13a7 7 0 1 0-1-13m246 2c-5 6-1 14 7 11q6-3 5-9-4-8-12-2m245-1a7 7 0 1 0 9 1c-4-2-4-2-9-1m-582 15q-19 7-12 24c4 8 19 12 26 7 15-10 3-35-14-31m-65 2c-10 5-13 16-7 25 8 12 28 8 32-7 2-5-2-14-8-17-4-2-14-3-17-1m245 1c-10 5-13 17-6 25q14 14 27-1c12-13-5-31-21-24m61 1c-18 8-12 31 7 31q8 0 13-5l5-11-1-4c-2-9-16-15-24-11m189 0c-14 3-20 17-11 26 10 11 31 4 31-9 0-11-10-19-20-17m55 4c-10 9-9 21 2 26s22 1 25-10c4-15-15-27-27-16m-485 1a8 8 0 1 0 6 14 8 8 0 0 0-6-14m-60 1q-6 3-3 10c4 8 16 3 13-5l-7-6zm245 1a7 7 0 1 0 10 6q-3-8-10-6m59 2q-7 4-3 9c5 9 18 2 13-7q-3-6-10-2m184 1a7 7 0 1 0 8-1q-5-4-8 1m62 1c-5 5-2 12 5 12a7 7 0 1 0-5-12m-154 15a16 16 0 1 0 20 22c6-11-7-26-20-22m-249 2c-12 6-14 21-3 29 8 6 24 1 27-9 6-14-11-27-24-20m490 1c-17 8-12 31 6 31 14 0 23-15 15-25-4-6-15-9-21-6m-241 8q-7 7 2 12 9 3 10-7c0-7-7-10-12-5m-243-1q-7 3-4 11a7 7 0 1 0 4-11m485 3q-5 8 3 12c6 2 12-4 10-9q-4-10-13-3m-551 17c-12 4-16 16-8 26 9 14 32 4 31-13 0-10-12-17-23-13m-124 1c-12 4-15 23-4 31 7 5 21 2 26-6a17 17 0 0 0-16-26q-1-1-6 1m247 0c-10 4-15 14-12 22 6 14 23 15 32 3s-6-30-20-25m243 3c-12 7-12 22 0 28 14 7 30-8 23-22q-7-13-23-6m125-1q-15 7-11 22c3 10 19 13 28 5 13-13-1-35-17-27m-244 1c-16 8-14 27 2 31q15 3 20-11c5-13-10-27-22-20m367-1c-17 5-15 29 2 31l5 1v-4q1-6-3-5-6 0-7-6 1-8 7-9 4 1 3-4 1-7-7-4m-611 6c-4 2-5 9-2 12q9 6 12-4c1-6-5-10-10-8m369 1a8 8 0 1 0 7 2q-4-4-7-2m-494 2c-5 5-3 12 4 12q6 0 7-7c0-6-7-9-11-5m245 0a7 7 0 1 0 10 10 7 7 0 0 0-10-10m369 0c-5 5-2 14 5 14 2 0 7-5 7-8 0-6-8-10-12-6m-244 1a7 7 0 1 0 11 11 7 7 0 0 0-11-11M87 279c-12 5-16 17-9 25 10 12 27 8 31-8 4-11-11-23-22-17m497-1-4 1c-8 2-15 14-13 20 6 19 30 17 34-2q2-13-13-18zm-251 2q-8 3-11 9a17 17 0 1 0 11-10m-244 9a7 7 0 0 0 7 12c7-5 1-15-7-12m491 2q-6 6-1 11a7 7 0 1 0 1-11m-246 0q-4 2-4 6c0 9 13 10 15 0 1-5-6-9-11-6M0 310q-1 6 3 5 5 1 6 7-1 6-7 7-2 0-2 5 0 9 11 2c14-7 10-28-6-30l-5-1zm180-2c-14 5-17 20-6 28 11 9 30-1 29-15q-3-18-23-13m60 0c-17 8-12 31 5 31q13 0 17-9l3-6-2-6c-3-10-15-15-23-10m431-1c-21 6-16 35 6 33 9-1 17-12 15-21q-2-8-11-11c-6-2-6-2-10-1m-184 1c-10 3-15 16-10 24 8 17 38 4 30-14q-5-14-20-10m-59 1c-15 6-15 25 0 32 9 4 23-6 23-16 0-12-12-20-23-16m301 1c-15 8-10 30 7 30a16 16 0 1 0-7-30m-547 6a7 7 0 1 0 7 12 7 7 0 0 0-7-12m490 0q-6 5-2 11c3 3 9 3 10 0a7 7 0 0 0-8-11m-430 1a7 7 0 1 0 12 2q-6-5-12-2m489 1a8 8 0 1 0 11 0q-5-4-11 0m-301 0c-3 2-3 9 0 11q5 5 10-1c5-6-3-14-10-10m56 1a7 7 0 1 0 11 10 7 7 0 0 0-11-10m-154 19c-9 3-15 15-11 23 7 13 22 13 31 0 8-11-6-27-20-23m-249 2c-13 6-13 22-1 29q8 6 17 0c21-11 5-39-16-29m494 4q-15 10-8 24 5 9 15 8l5-1c3 0 10-9 11-12 3-12-12-25-23-19m-245 4c-5 6-1 14 5 12 7-1 10-8 4-12q-4-4-9 0m-244 1q-8 6-1 12c7 3 14-4 10-11q-3-3-9-1m491 4q-6 7 1 13c6 3 12-2 10-8q-3-9-11-5m-434 21q-11 5-11 15c0 19 29 24 35 6 4-14-11-28-24-21m249 1c-21 10-9 37 14 31 6-2 12-15 10-21q-6-17-24-10m-372-1c-7 4-11 14-8 22 6 17 33 11 33-8 0-10-15-19-25-14m247 0c-11 3-15 15-9 25a17 17 0 1 0 9-25m250 1c-15 4-19 21-6 29 16 10 35-11 23-24q-8-8-17-5m117 1c-12 6-13 23-2 30 7 5 23-1 26-10 5-14-11-27-24-20m122 3c-15 7-11 29 6 29h5v-4q1-5-3-4-6-1-7-8 1-6 7-7 4 1 3-4 1-7-11-2m-733 6c-6 7 2 16 9 10q5-4 2-9-5-7-11-1m123-1q-6 5 0 11c4 4 11 0 11-7q-2-9-11-4m123 0a7 7 0 1 0 9 11c6-7-3-17-9-11m125 1a7 7 0 1 0 10-1q-7-4-10 1m121 1-2 5c0 8 12 8 15 1s-8-13-13-6m123-1q-5 4-2 9 5 8 12 0c4-6-4-14-10-9m-431 21q-11 6-11 16c0 16 21 21 32 9s-6-32-21-25m243 3c-12 9-10 24 3 30 12 4 25-7 24-19-2-13-17-18-27-11m248-1c-13 4-17 20-7 28 9 8 23 5 29-7 5-11-9-26-22-21m-488 7a7 7 0 1 0 9 3q-4-5-9-3m245 3a7 7 0 1 0 11 9 7 7 0 0 0-11-9m244 1c-4 4-1 12 4 12a7 7 0 1 0-4-12M60 433c-20 4-20 30 0 32 16 2 27-16 16-26-4-4-12-7-16-6m57 0c-14 7-15 24-2 30 12 5 27-3 26-15 0-11-15-19-24-15m186 1c-23 9-13 38 10 31q7-2 11-11c4-12-9-24-21-20m57 1q-6 4-10 12c-3 10 7 21 17 21 18 0 26-24 9-32q-9-4-16-1m193 1h-5q-12 5-14 18c2 11 18 18 28 12 9-6 10-19 3-26l-10-5zm56 1c-17 7-13 31 4 31 14 0 23-12 17-23q-7-14-21-8m-491 5c-7 7 2 18 10 12q6-5 0-11-5-6-10-1m-59 0c-4 2-4 9-1 12a7 7 0 1 0 1-12m248 1a7 7 0 0 0 1 14q6 1 7-6 1-8-8-8m56 3q-6 5-1 8 5 5 9 2 6-5 0-11-3-5-8 1m185 0q-6 6-1 10 6 4 11 0c6-7-3-16-10-10m63 0q-5 5-2 11c3 5 14 1 14-5s-7-10-12-6m-402 17c-10 2-16 15-10 25s24 11 30 1c9-15-3-31-20-26m245-1q-8 4-11 14c-2 9 6 18 17 18l6-1 2-1 5-4c11-14-2-32-19-26m246 2c-11 3-17 15-12 24 8 16 35 9 33-9-2-10-12-18-21-15m-245 8q-5 9 3 13a7 7 0 1 0-3-13m-243 0c-4 2-6 9-3 12a7 7 0 1 0 3-12m486 3q-3 2-2 6a7 7 0 1 0 2-6m-551 17q-11 4-12 17v3h11l-1-3q0-4 2-6c6-6 14-2 13 5l-1 4h5q9-1 5-12c-3-7-14-11-22-8m-125 1c-4 2-10 12-10 16q-1 4 5 3 6 1 5-3a7 7 0 1 1 14 1q0 3 5 2h5v-5c0-11-13-18-24-14m245 1q-8 5-10 14v4h5q8 1 6-3 1-6 7-7 6 1 7 7-1 4 5 3h5v-5c-2-12-14-18-25-13m248 0c-6 2-12 10-12 16q-1 3 6 2h5v-3q1-6 8-7 6 1 7 8-1 2 5 2 8 2 4-7-7-15-23-11m125 0q-12 3-15 14v4h11l1-4c1-7 11-7 13 1q1 4 6 3 5 1 4-4c0-9-10-16-20-14m-249 2q-7 5-8 13l-1 3h6q8 1 6-2 1-6 7-7 6 1 7 7 0 3 5 2 5 1 4-3c0-12-16-19-26-13m370-1q-12 3-13 14-1 4 6 3 7 1 4-2 0-6 8-7 4 1 3-4 1-7-8-4"
        mask="url(#16282281824-posters-1720560278625-radial-mask)" itemprop="regular" fill-opacity="0.90"
        fill-rule="evenodd" stroke="none" fill="url(#16282281824-posters-1720560278625-horizontal-regular)"></path>
      <!---->
      <path id="16282281824-posters-1720560278625-medium"
        d="M17 3q-3 11 3 19c3 3 4 4 13 6 8 2 18-10 16-20-1-8 0-8-16-8H19zm123 0c-4 10 4 23 14 23 14 0 24-13 19-23l-1-3h-31zm123 1c-7 15 9 28 23 21 8-3 11-14 8-21l-2-4h-27zm126 0c-6 13 1 25 15 25 12 0 21-13 15-24l-2-5h-26zm121-1q-4 11 1 18c12 16 37 2 29-16l-2-5h-27zm122 2q-7 12 5 20c14 10 34-8 25-22l-2-3h-26zm123-3c-7 8-1 25 10 27h4v-5q1-5-2-6c-6-3-6-11-1-13l3-3c0-3-12-3-14 0M153 2c-4 1-6 9-2 12 4 4 13 1 13-5q-2-9-11-7M31 3a8 8 0 1 0 4 15 8 8 0 0 0-4-15m244 1c-7 3-6 13 2 15q7 0 10-7c1-6-6-10-12-8m244 1a8 8 0 1 0 11 12 8 8 0 0 0-11-12m124 0a8 8 0 1 0 6-1c-4-1-3-1-6 1M398 8q-5 5 1 9a7 7 0 1 0-1-9M91 27c-18 5-18 25-1 31a17 17 0 1 0 5-32zm240 4c-14 11-9 29 9 29 17 0 23-22 8-29q-10-6-17 0m248-1q-11 8-9 20c6 18 34 12 33-8-1-11-13-18-24-12M91 35q-6 5-3 11 6 9 13 1c5-7-3-16-10-12m242 5c-4 4 0 13 7 13a8 8 0 1 0-7-13m249-1q-5 4-2 8c2 5 9 6 13 2 4-5 1-12-6-12zM0 63q0 5 2 4 8-1 9 7 0 8-7 8H0v5q0 5 2 4c4 0 12-4 15-8 8-9 0-24-12-24H0zm177-1q-8 7-8 15c3 16 22 21 32 7 11-15-8-32-24-22m68-2q-17 3-14 19c2 11 15 16 27 10 15-9 5-33-13-29m244 1q-11 5-13 14 0 6 2 5v1c-6 5 12 15 20 12 15-7 15-27 0-31l-5-2zm178 3c-14 9-8 28 9 27 7 0 7 0 11-4q8-8 6-14c-3-13-16-17-26-9m68-2c-21 5-15 35 6 30q13-4 14-15-2-19-20-15m-305 0c-17 7-14 31 5 31 16 0 23-19 11-28-4-3-13-5-16-3m-184 6-4 2a8 8 0 1 0 4-2m-65 2a7 7 0 1 0 11 0q-5-4-11 0m490 0a8 8 0 1 0 14 6c0-7-9-11-14-6m-183 2q-5 3-2 8c4 8 14 5 14-4 0-6-7-9-12-4m245-1a8 8 0 1 0 11 0q-5-5-11 0m-302 1q-6 5-1 10 5 6 11 1c6-7-3-17-10-11M84 93c-11 6-13 21-3 27 13 8 29 0 28-15-1-11-14-18-25-12m245 1q-15 13-1 26c14 11 34-8 24-22-5-7-16-9-23-4m247 5c-14 9-9 29 8 29 12 0 20-11 16-23-2-7-17-10-24-6m-243 2c-6 6-2 14 6 14s9-13 2-16q-5-2-8 2m-246 1q-3 5-1 10a7 7 0 1 0 1-9m493 4a8 8 0 1 0 10 11 8 8 0 0 0-10-11M24 128q-10 4-10 15c0 20 30 20 33 0 2-12-11-21-23-15m124-1-8 6c-4 4-4 4-4 10q1 14 17 15h7l4-4c14-13 2-32-16-27m120 2c-15 8-11 28 7 31q11 0 17-13c6-13-10-25-24-18m126 0c-10 6-12 17-4 24 10 11 27 4 29-11 2-10-15-19-25-13m122 1c-12 6-12 22 0 28 13 7 30-9 23-21-3-8-14-12-23-7m120 1c-15 10-8 29 11 29 7 0 15-9 15-16 0-13-15-21-26-13m125 1c-12 6-13 23-1 29q11 5 9-3 1-6-2-5-6-1-7-8 1-7 7-8 3 0 2-3 1-7-8-2m-735 4q-7 9 3 13c7 3 13-5 8-12q-5-6-11-1m124 0q-8 5-2 11t11 0q6-8-3-12-3-2-6 1m247 2-2 7q1 4 7 5c7 0 11-8 6-14q-6-5-11 2m-126 0c-7 6 0 16 8 12q8-5 2-12-5-6-10 0m248 0c-6 5-3 13 5 13q8-1 8-9c-1-7-8-9-13-4m122-1q-4 3-4 8c3 9 16 7 16-2 0-5-7-8-12-6m-428 22a15 15 0 0 0-1 30l3 1c3 3 14-3 17-10 6-12-7-25-19-21m247 1a16 16 0 1 0 19 12c-1-3-7-11-10-11q-6-3-9-1m243 1-9 6-4 4v6c1 14 15 21 26 13 15-10 5-33-13-29m-492 7q-5 7 1 13a8 8 0 1 0-1-13m250 0q-5 2-6 8a8 8 0 1 0 6-9m241 3c-7 4-2 16 6 15a8 8 0 1 0-6-15m-584 17c-15 6-13 27 4 30 15 3 25-11 17-23q-8-12-21-7m-61 0c-11 3-14 19-5 28 6 5 20 3 26-4 9-12-4-29-21-24m247 1c-20 6-13 35 8 30q10-3 13-11c3-12-10-23-21-19m59 2c-14 4-15 21-2 28 9 5 21 0 24-10 4-11-9-23-22-18m183 1c-12 6-13 22 0 28q8 3 17-2c17-11 2-34-17-26m69-1q-7 0-10 4c-14 13 3 33 20 25 15-8 7-32-10-29m-495 4a8 8 0 1 0 9 14 8 8 0 0 0-9-14m183 3a8 8 0 1 0 12 0q-6-4-12 0m61 1c-7 6-3 15 6 14 7-2 10-10 4-14q-5-6-10 0m185 0q-6 5-1 12 5 6 11 0 8-8-3-13c-4-2-3-2-7 1m61 2q-5 6 1 11 7 5 13-3c4-8-8-16-14-8m-397 16c-16 3-20 21-7 30 6 4 20 1 24-6 8-12-4-27-17-24m244 0q-13 4-12 17c2 17 24 19 32 4 5-11-8-25-20-21m243 2c-12 4-16 18-7 26q13 12 27-4c7-11-6-26-20-22m-244 8a8 8 0 1 0 12 10 8 8 0 0 0-12-10m-246 0c-4 5 0 14 6 14 4 0 8-6 8-9q-5-11-14-5m492-1c-6 2-8 10-2 14a8 8 0 1 0 2-14m-554 20c-11 4-15 15-8 25 7 12 26 8 30-6 4-13-9-23-22-19m-122 1c-10 2-16 17-10 26q8 11 21 5c20-9 9-36-11-31m244 1q-12 6-11 17c3 19 31 19 34 0 1-12-13-22-23-17m249 1c-11 3-17 15-12 22 10 15 35 7 31-11a18 18 0 0 0-13-12q-2-1-6 1m120 0c-17 8-15 29 3 31 8 2 18-7 19-15 0-12-12-20-22-16m-246 2c-15 10-8 30 10 30a17 17 0 1 0-10-30m367-1c-13 5-13 25 1 29q9 3 8-3l-1-4h-4c-9-1-6-16 3-16q2 0 2-3 0-6-9-3m-611 6c-5 5-2 13 5 13s10-7 5-12q-5-5-10-1m123 1a8 8 0 1 0 8 13 8 8 0 0 0-8-13m246 0c-7 6 0 18 8 14a8 8 0 1 0-8-14m-493 1c-4 3-2 11 3 13 7 1 12-7 8-12q-5-5-11-1m372 0a8 8 0 1 0 8-1c-4-1-4-1-8 1M89 278c-11 4-17 18-11 26 10 12 31 5 31-11 0-10-11-18-20-15m490 2c-19 9-13 33 7 31q12-1 14-15c2-11-11-20-21-16m-251 3c-13 10-8 27 8 29q11 0 16-10c8-14-11-29-24-19m-238 4a8 8 0 1 0 6 1q-4-3-6-1m243 3q-7 4-2 11a8 8 0 1 0 2-11m245 0q-6 7 2 13a8 8 0 1 0-2-13M0 310q-1 5 3 4 6 1 7 8-1 6-7 7-4-1-3 5v4h4l8-3c13-8 8-27-7-29H0zm180-2c-13 4-16 20-5 28 14 10 35-9 25-22q-7-9-20-6m58 1c-15 9-8 30 10 29q19-2 15-20c-3-10-16-14-25-9m432-1q-12 4-12 18 0 8 9 11c16 9 33-12 21-24q-8-8-18-5m-241 1c-16 7-15 28 1 32 9 1 21-8 21-16 0-11-12-20-22-16m57 0c-11 6-14 18-7 26 8 8 21 5 28-5 7-11-9-27-21-21m247 0c-17 6-17 26 0 30q9 2 17-6c10-11-3-29-17-24m-553 8-3 5q2 6 8 8 7-1 9-7c1-7-10-12-14-6m62-1q-5 6-1 11 8 7 14-3c2-6-8-12-13-8m427 2q-5 11 6 12c7 0 11-9 5-13q-6-5-11 1m63-1c-4 2-5 9 0 13q5 4 11-1c7-7-3-17-11-12m-301 0q-4 2-4 7a7 7 0 1 0 4-7m54 3q-4 3 0 8c5 7 18 0 14-8-2-4-11-4-14 0m-155 20c-9 4-12 15-7 23 7 11 21 10 29-2 8-13-8-28-22-21m-247 1a16 16 0 1 0 15 28c12-6 14-18 5-26-4-4-14-5-20-2m492 5q-12 8-7 20c5 12 19 13 28 3 12-13-6-33-21-23m-244 3q-5 6 0 10a8 8 0 1 0 0-10m-244-1a8 8 0 1 0 10 12c6-7-2-16-10-12m492 6q-7 8 2 12c8 5 14-5 7-12l-4-3zm-432 20q-21 10-8 26 14 12 27 0c3-4 4-16 1-20q-9-10-20-6m-122 0q-8 1-11 12c-3 10 4 20 14 20a17 17 0 0 0 7-32zm369 1c-16 7-11 31 7 31 12 0 20-14 15-24q-7-13-22-7m-126 0c-6 2-11 10-11 15 0 13 16 21 27 14 17-11 3-36-16-29m369 1c-13 6-14 22-2 30 6 3 16 0 22-6 11-13-5-31-20-24m-121 0q-14 7-8 21c8 16 29 11 31-7 1-11-11-18-23-14m246 2q-13 5-12 14 1 15 15 16 5 1 4-3 1-4-3-4-10-4-6-12 4-5 7-4 2 0 2-4 0-6-7-3m-735 4q-5 4-4 11c1 7 13 5 14-2q0-13-10-9m122 1a8 8 0 1 0 7-1q-4-2-7 1m121 1q-5 6-1 11c4 6 15 1 14-6q-4-11-13-5m127-1q-6 5-1 12 6 5 10-1c7-8-2-17-9-11m122 0c-2 1-5 7-5 10q5 8 14 2c7-6 0-16-9-12m119 3a8 8 0 1 0 11 10 8 8 0 0 0-11-10m-430 21c-6 3-11 12-10 18 3 13 22 16 32 5s-7-31-22-23m249 0q-7 3-11 11c-6 13 9 26 23 19 18-10 8-36-12-30m244 1c-19 6-16 32 4 32a16 16 0 1 0-4-32m-491 8a7 7 0 1 0 10 11 7 7 0 0 0-10-11m247 1q-4 6 0 11a7 7 0 1 0 0-11M60 434c-14 3-19 16-10 26l4 4h7q18 0 19-15c0-10-11-17-20-15m56 0c-14 6-11 28 4 30 15 1 26-13 18-23-5-7-15-10-22-7m184 2c-20 10-5 37 15 27q9-3 8-13c1-12-12-20-23-14m60 0q-13 8-9 20c8 18 34 13 34-6 0-11-14-19-25-14m189 1c-19 3-18 25 0 30a16 16 0 1 0 0-30m61 0c-4 0-11 8-12 12-1 11 9 21 19 18q20-6 13-22-5-11-20-8m-549 4a8 8 0 1 0 9 3q-5-4-9-3m56 1q-6 5 0 11c5 6 13 4 15-4 1-7-9-12-15-7m188 1c-8 3-6 15 3 14 7 0 10-7 6-12q-4-3-9-2m58 3q-6 5 0 10a7 7 0 1 0 0-10m185 0c-6 4-3 13 4 13 4 0 10-5 9-8l-1-3c0-2-5-5-7-5zm62 0a8 8 0 1 0 6-2q-2-2-6 2m-400 17c-10 2-16 16-11 25q4 7 16 7a16 16 0 1 0-5-32m244 0c-5 2-11 11-11 15q2 8 6 12c12 8 29 0 28-13q-2-14-15-15zm244 2a16 16 0 1 0 11 31 16 16 0 0 0-11-31m-241 5c-6 4-7 12 0 15q5 3 8-1c7-6 0-18-8-14m-246 2q-6 6-2 12a7 7 0 1 0 2-12m487 3q-4 3-2 8c2 6 9 7 13 2 7-8-3-17-11-10m-551 17q-11 4-11 16v4h5q6 1 4-2 0-12 10-10 6 3 6 9-3 4 4 3h4v-5c0-13-10-19-22-15m-122 1q-10 3-12 16l-1 3h5q6 1 5-3 1-5 7-8 6 1 8 9-1 2 5 2 5 1 4-4c0-10-11-17-21-15m243 2q-10 5-11 15-1 3 5 2 6 1 5-2 1-5 5-8c5-3 12 3 10 8q-1 3 4 2 6 2 5-6c-1-10-15-16-23-11m249-1q-12 5-13 15-1 4 5 3 7 1 4-2 2-8 8-9 7 1 8 8-1 4 5 3h4v-4q-5-16-21-14m-123 2q-7 2-9 9-5 8 3 7 6 1 5-2 1-6 8-7 6 1 7 7-1 2 5 2 7 1 2-8c-4-8-14-12-21-8m243-1c-4 1-11 9-11 12l-1 3q0 2 5 2 6 1 5-2 0-9 11-7 5 2 5 7 0 3 5 2 5 1 4-3c0-10-12-17-23-14m120 2q-7 3-9 11v4h5q6 1 5-3 1-6 8-7 4 2 3-3v-4h-4z"
        mask="url(#16282281824-posters-1720560278625-vertical-mask)" itemprop="medium" fill-opacity="0.90"
        fill-rule="evenodd" stroke="none" fill="url(#16282281824-posters-1720560278625-vertical-medium)"></path>
      <!---->
      <path id="16282281824-posters-1720560278625-bold"
        d="M18 6q-4 16 11 20c14 3 24-9 19-23l-2-3H19zm123-3c-4 7 1 19 10 22 12 4 24-8 22-20l-1-5h-14l3 2a8 8 0 1 1-8-1q1-1-4-1-8-1-8 3m123 1c-5 12 2 22 14 22q20-2 15-23l-1-3h-26zm126 0a16 16 0 1 0 28 0l-2-3-12-1h-11zm121-2-1 4-1 3q-3 3 2 11c10 16 36 2 28-15l-2-5h-12c-12 0-13 0-14 2m122 2c-7 12 1 24 14 23a15 15 0 0 0 15-10c2-2 2-10-1-14l-1-3h-24zm122-1c-6 9-1 23 11 25q4 3 3-4 1-5-2-5a8 8 0 0 1 0-16q6-2-4-3-6-1-8 3M30 2q-9 6-4 13c7 8 17 1 14-8a6 6 0 0 0-10-5m242 4a8 8 0 1 0 14 9 8 8 0 0 0-14-9m247-1a9 9 0 1 0 6-2zm122 1q-4 5-1 10 6 8 14 0c6-8-7-18-13-10M398 7q-5 4-1 9 6 9 14 0 4-4-1-9-5-6-12 0M90 28c-10 2-15 17-8 25 11 11 25 6 28-10 3-9-9-18-20-15m243 3q-8 4-9 13c-1 20 28 21 32 1q2-10-13-16c-5-1-5-1-10 2m246 0c-14 9-10 29 6 29q10 0 16-9a10 10 0 0 0 0-13q0-2-5-6-7-7-17-1M88 37c-5 5-1 14 7 14s11-9 6-14q-6-6-13 0m248 0c-9 2-6 16 4 16 8 0 11-8 5-14q-3-4-9-2m245 2c-7 7 1 16 10 11q6-3 4-8-5-10-14-3M0 63q-1 4 3 3 9 0 9 8 1 8-8 9-5-1-4 4 0 3 2 3c8 0 18-8 18-15 0-8-8-16-16-16q-5-1-4 4m181-2-7 4a16 16 0 1 0 26 19c10-12-4-30-19-23m62 0c-13 3-16 19-5 27 7 6 24 2 26-7 3-13-7-23-21-20m246 1c-4 1-11 7-12 11q-2 7 1 6 3 1 1 2-4 3 3 8 12 8 21 0c5-6 6-7 6-11 0-11-10-19-20-16m181 0c-10 4-13 16-6 25 4 5 21 5 22 0l3-2c6-3 4-19-4-23zm68 0c-18 4-22 20-8 28 11 7 30-7 24-18l-1-3c-2-4-11-9-15-7m-312 3c-13 11-7 27 9 27 7 0 7 0 12-5l4-10q1-2-1-6c-4-9-17-12-24-6m-182 3q-8 5-2 12c6 7 14 4 14-5q-1-13-12-7m-62 1a8 8 0 1 0 9 13 8 8 0 0 0-9-13m490 0q-7 7 0 13a8 8 0 1 0 0-13m-182 0-5 4c-1 3-1 3 2 10 2 3 10 2 13-2a8 8 0 0 0-10-12m243 2q-6 6 0 12c8 6 19-5 12-12q-6-6-12 0m-303 1c-6 5-2 14 6 13 7 0 11-8 5-13q-5-6-11 0M86 93c-13 4-15 21-3 27 11 6 22 2 25-10 3-11-10-21-22-17m247 0c-12 5-15 16-7 24q8 8 14 5 13-4 14-16c0-9-12-17-21-13m-1 8c-8 9 4 20 12 12 3-3 4-10 2-10l-1-1c0-5-10-5-13-1m246-2c-13 5-13 24 1 28 18 5 31-19 15-27q-9-3-16-1m-488 1c-8 3-8 14 1 16q4 0 9-5c4-5-4-14-10-11m489 7a8 8 0 1 0 12 0q-6-6-12 0M21 130c-12 9-6 28 9 28 12 0 21-16 14-26-4-6-16-7-23-2m128-2a14 14 0 0 0-6 27c17 12 36-12 20-25-2-2-10-3-14-2m124 0c-12 3-17 14-11 23q5 8 14 7c12 1 21-14 14-23q-7-9-17-7m124 0q-6 3-10 10c-5 10 5 22 17 20 5-1 13-8 14-11l1-5c2-8-14-18-22-14m120 2q-11 6-9 17c4 13 18 16 28 5 12-12-2-29-19-22m123-1q-17 10-9 24c4 5 4 5 12 6 7 0 9 0 14-5 11-11-2-31-17-25m123 3c-16 7-13 30 4 30q3 0 2-4 1-4-2-4a9 9 0 0 1 0-18q3 2 2-3 2-4-6-1m-737 3c-6 6-3 14 5 15 6 2 11-8 6-14q-5-5-11-1m373-1c-6 3-6 12-1 15 6 4 14-1 12-8a9 9 0 0 0-7-7zm-250 1-4 5a9 9 0 0 0 15 7c6-8-2-16-11-12m374 0c-6 1-10 9-6 14q7 8 14-1c5-6-1-14-8-13m-252 1c-6 5-4 14 4 15q9 1 9-8c0-6-8-11-13-7m370 1c-6 3-6 12 1 14 10 3 16-9 8-14q-5-3-9 0m-431 24q-8 4-9 13 0 12 9 14l5 1c10 3 21-9 17-20-3-8-14-12-22-8m248 0c-9 2-14 17-8 25 4 5 13 7 19 5a16 16 0 0 0-11-30m245 1c-13 3-17 16-8 26 9 9 28 3 28-10 0-11-10-19-20-16m-492 6q-6 7 0 13c6 5 14 2 14-6s-10-12-14-7m247 1c-8 8 0 19 10 13 4-2 4-10 1-13q-6-4-11 0m247 0a8 8 0 1 0 9 8q1-11-9-8m-585 18c-18 6-14 30 5 30 18 0 22-23 5-30-5-2-4-2-10 0m-63 1c-14 6-12 26 3 29 9 2 20-6 20-14q0-9-7-13c-3-2-13-4-16-2m244 2c-12 6-11 22 1 27 7 3 19-2 22-9 1-4 0-12-2-15-4-5-15-6-21-3m60 1q-5 3-8 9c-3 11 7 21 18 18 20-3 18-28-2-28zm186 1c-14 7-13 23 2 27 8 3 20-4 21-12 1-12-12-21-23-15m65-1c-7 1-13 11-11 17 3 17 31 15 31-2q-2-17-20-15m-491 2a9 9 0 1 0 7 16 9 9 0 0 0-7-16m184 2c-3 0-5 7-5 10 3 10 19 7 18-3q-3-10-13-7m58 2q-8 8 1 14a9 9 0 1 0-1-14m185 0q-5 8 1 15c5 4 12 0 13-7 0-8-9-13-14-8m62 2c-6 7-1 15 9 14l4-3c7-9-5-19-13-11m-401 19c-17 8-12 30 6 29 7-1 8-1 14-7 11-11-5-29-20-22m245 0c-15 8-9 28 8 28q9 1 14-9c6-13-9-26-22-19m247 1c-9 1-15 12-11 20 5 10 19 12 27 3 10-11 0-26-16-23m-243 4a9 9 0 1 0 7 16 9 9 0 0 0-7-16m-248 3q-6 5-1 10a8 8 0 1 0 1-10m490-1q-9 7-1 15a9 9 0 1 0 1-15M24 247c-15 7-12 31 4 31q21-1 18-21-1-9-16-11-1-1-6 1m121 0c-11 5-10 24 2 28 11 5 24-5 23-17a11 11 0 0 0-8-11c-2-2-12-2-17 0m123 2c-3 1-9 10-9 13l2 6c5 11 18 13 27 4 12-12-4-31-20-23m252-1c-9 2-17 14-13 21 6 11 24 11 29-1 6-10-4-23-16-20m123 0c-8 1-15 9-15 15 0 17 23 21 31 6 5-10-5-23-16-21m-248 1a17 17 0 0 0-9 11c-2 0-1 7 1 11q1 6 9 7c7 3 9 3 15-3 5-4 5-5 6-11 1-11-12-20-22-15m366 1c-11 4-13 15-6 23 6 6 14 7 14 2q1-3-2-2l-5-2c-7-5-4-16 4-16q4 1 3-3 1-7-8-2m-612 4q-3 2-3 7a8 8 0 1 0 3-6m122 1c-6 6-2 16 6 15 8-2 10-17 1-17l-2-1zm246 0q-5 4-2 11c3 8 16 4 16-5q-3-13-14-6m-491 0c-5 2-4 13 1 14 8 2 15-7 9-13q-3-5-10-1m613 0a9 9 0 1 0 6-2q-4-1-6 2m-243 1a8 8 0 1 0 12 1q-8-6-12-1M89 279q-12 5-13 18c0 10 17 17 26 9q8-8 6-17c-1-4-8-10-10-10zm487 4c-12 8-10 24 4 27 16 3 27-16 15-26q-10-7-19-1m-247 0q-8 5-7 13-1 12 11 14a15 15 0 1 0-4-27m-243 5a9 9 0 1 0 15 6c0-7-10-10-15-6m247 1c-7 4-4 16 4 16 6 0 11-8 8-13-1-2-8-6-8-5zm245 1c-9 9 4 20 13 11a9 9 0 0 0-13-11M0 310q-1 3 3 3a8 8 0 0 1 0 17q-4-1-3 4v4l4-1a16 16 0 0 0 7-28l-6-2H0zm185-2q-15 5-17 15c0 8 8 15 16 15 13 0 22-14 15-24q-6-7-14-6m59 0c-15 3-18 19-6 28 7 4 19 2 23-6 7-12-4-25-17-22m242 2c-11 4-13 20-4 26 4 4 13 3 19-1 15-10 2-33-15-25m182-1-2 2c-7 2-9 16-5 21 6 7 17 9 24 3q13-15-2-26c-3-1-15-2-15 0m65 1c-12 4-16 18-7 25 10 8 26 1 26-11 0-11-9-17-19-14m-304 0c-13 5-15 21-4 28q10 6 21-4c6-6 4-20-3-23q-8-2-14-1m-248 5a8 8 0 1 0 9 14 8 8 0 0 0-9-14m60 2c-7 7 3 19 11 12q6-6 3-10-8-8-14-2m431-2c-5 2-7 10-3 14a8 8 0 1 0 3-14m-243 3a8 8 0 1 0 10-1q-6-4-10 1m302-2-4 7c0 4 6 10 10 10l5-3c9-7 0-19-11-14m-246 2q-4 5 0 12c7 6 18-1 15-9-2-5-11-7-15-3M84 341c-7 4-8 6-8 14q-1 7 3 10c11 12 32 2 28-14q-6-16-23-10m245 0a16 16 0 1 0 22 20c8-13-8-27-22-20m247 5c-10 6-11 20-2 27a16 16 0 0 0 19-3q3-1 5-5c6-13-10-26-22-19m-490 3c-7 5-2 15 6 13 7-1 9-8 4-13q-4-6-10 0m495 2q-10 6-3 14c6 6 14 3 13-5q-1-10-10-9m-435 24q-11 5-11 15c1 12 16 19 28 12 8-6 7-22-2-27q-9-3-15 0m254-1c-14 3-20 17-11 26q15 14 26-5c6-11-4-24-15-21m-378 2q-8 5-8 15c0 8 9 17 14 13h2c2 6 16-7 16-16s-16-18-24-12m246 1q-12 6-10 17a16 16 0 0 0 13 11c2 4 15-2 18-8a16 16 0 0 0-21-20m370-1a16 16 0 0 0-7 25c2 7 15 7 24 0 12-11 0-30-17-25m-124 2c-14 7-7 28 8 28q15-2 16-17a11 11 0 0 0-6-11c-1-3-13-2-18 0m249 1c-10 3-13 5-12 14q0 14 14 14 8-2 1-5a9 9 0 0 1 0-18q4 1 3-3 2-5-6-2m-738 4c-4 4-4 12 1 14 8 5 16-7 10-14q-6-4-11 0m122 0a8 8 0 1 0 13 9q3-5-1-8-6-6-12-1m122 2q-6 5 0 11 5 5 9 2 9-7 2-15-5-5-11 2m126-1c-4 5-1 13 6 13q7-1 9-9c0-6-11-10-15-4m124-2c-7 4-7 13 0 16q5 2 9-1c8-7 0-20-9-15m122 1a8 8 0 1 0 6 15 8 8 0 0 0-6-15m-431 24c-16 6-14 27 2 29q19 1 20-13l-1-5-1-3c-1-7-12-12-20-8m246 1q-6 2-9 9-5 12 6 19c4 2 13 3 14 1l4-3q4-1 5-6c5-14-6-24-20-20m243 2c-19 9-11 32 10 29a15 15 0 1 0-10-29m-489 6a8 8 0 0 0 9 13l2-1 1-1 1-2 1-3-1-4-1-1c0-4-9-5-12-1m248-1c-5 3-5 11 0 15 8 4 17-6 11-12q-5-6-11-3m243 1c-7 6-3 17 6 15q11-3 4-13-5-5-10-2m-582 18c-5 0-11 7-12 12-2 16 17 23 28 12q12-11-3-23-4-2-13-1m-64 2q-11 5-8 18c3 11 20 14 29 4 11-12-5-29-21-22m247 0c-16 6-15 25 2 28 10 2 19-5 19-14a14 14 0 0 0-11-15q-2-2-10 1m60 0c-6 1-13 11-11 16 6 22 34 19 33-3q-3-16-22-13m250 1c-14 4-17 20-5 28 10 7 29-7 24-17l-2-4c-2-5-11-9-17-7m-68 2c-13 7-9 25 5 28q13 2 18-10c7-13-10-26-23-18m-425 1q-9 6-2 14c6 6 16 2 16-7 0-5-10-10-14-7m-62 3c-5 6-2 14 6 14a8 8 0 0 0 0-17q-4-1-6 3m246 0a8 8 0 1 0 10 0q-4-4-10 0m60 2a8 8 0 1 0 8-1c-4-3-4-2-8 1m183 1q-4 2-2 6a9 9 0 0 0 17-1c0-8-9-11-15-5m63 0c-6 6-3 14 6 14s12-8 6-14q-6-6-12 0m-150 16-4 1q-4 1-9 7c-2 3-2 11 0 15 3 6 16 11 19 7l2-1 6-4a15 15 0 0 0-14-25m-253 3c-14 9-10 29 7 30q15 0 18-15c2-13-14-22-25-15m490 2q-4 2-5 5l-2 2c-2 0-1 12 1 15 4 8 16 9 24 3 14-12-1-34-18-25m-241 5a8 8 0 1 0 11 12 8 8 0 0 0-11-12m-245 0a8 8 0 1 0 10 12l3-3q3 0 1-1l-2-3c0-6-8-9-12-5m488 2q-6 6-1 12c5 5 16 1 16-6 0-6-10-10-15-6m-551 19c-6 1-11 9-11 16q-1 4 4 3 7 1 4-3a9 9 0 1 1 18 0q-2 4 2 3 9-1 3-13-6-9-20-6m-122 1q-5 0-9 8-6 10 1 10 5 1 4-3a8 8 0 1 1 17 1q0 2 4 2 4 1 3-4c0-10-11-17-20-14m246 0-3 1-2 1q-5 3-8 12v4h4q6 1 4-2c-1-3 5-9 9-9q9 2 8 9-1 2 3 2 7 1 4-8-4-11-19-10m243 2q-8 4-9 13-1 4 4 3 5 1 3-2a10 10 0 0 1 8-10c1-4 10 5 10 9 0 5 6 4 7 0 1-10-13-18-23-13m126-1q-12 4-13 14l-1 3h5q5 1 4-3 1-10 11-6 6 2 5 6t4 3q5 1 4-3 0-7-8-12c-6-3-5-3-11-2m-247 1q-7 5-9 12v4h4q5 1 4-2a8 8 0 1 1 16 1l4 1q7 1 2-8-8-12-21-8m362 3q-4 3-5 7-3 8 3 6 5 1 4-3 2-7 9-8 4 2 3-2c0-4-8-4-14 0"
        mask="url(#16282281824-posters-1720560278625-horizontal-mask)" itemprop="bold" fill-opacity="0.90"
        fill-rule="evenodd" stroke="none" fill="url(#16282281824-posters-1720560278625-vertical-bold)"></path>
    </pattern>
    <rect id="16282281824-posters-1720560278625-pattern-render" fill="url(#16282281824-posters-1720560278625-pattern)"
      width="100%" height="100%"></rect>
  </defs>
  <radialGradient id="lightbar" cx="50%" cy="200%" fy="0" r="201%">
    <stop offset="0%" style="stop-color: rgb(255, 255, 255); stop-opacity: 0.1;"></stop>
    <stop offset="10%" style="stop-color: rgb(0, 0, 0); stop-opacity: 0.1;"></stop>
    <stop offset="30%" style="stop-color: rgb(0, 0, 0); stop-opacity: 0.3;"></stop>
    <stop offset="90%" style="stop-color: rgb(0, 0, 0); stop-opacity: 0.55;"></stop>
    <stop offset="100%" style="stop-color: rgb(0, 0, 0); stop-opacity: 0.6;"></stop>
  </radialGradient>
  <g class="radial">
    <radialGradient id="16282281824-posters-1720560278625-radial" gradientUnits="userSpaceOnUse">
      <stop itemprop="radial" stop-color="#d5d4d2" offset="0%"></stop>
      <stop itemprop="radial" stop-color="#d2d1d0" offset="15%"></stop>
      <stop itemprop="radial" stop-color="#d2d1d0" offset="30%"></stop>
      <stop itemprop="radial" stop-color="#d5d4d2" offset="45%"></stop>
      <stop itemprop="radial" stop-color="#dad9d8" offset="60%"></stop>
      <stop itemprop="radial" stop-color="#d2d1d0" offset="75%"></stop>
      <stop itemprop="radial" stop-color="#d2d1d0" offset="90%"></stop>
    </radialGradient>
    <radialGradient id="16282281824-posters-1720560278625-radial-background" gradientUnits="userSpaceOnUse">
      <stop stop-color="#d3cec5" offset="0%"></stop>
      <stop stop-color="#d3cec5" offset="15%"></stop>
      <stop stop-color="#d3cec5" offset="30%"></stop>
      <stop stop-color="#d3cec5" offset="45%"></stop>
      <stop stop-color="#d3cec5" offset="60%"></stop>
      <stop stop-color="#d3cdc5" offset="75%"></stop>
      <stop stop-color="#d3cdc5" offset="90%"></stop>
    </radialGradient>
    <radialGradient id="16282281824-posters-1720560278625-radial-light" gradientUnits="userSpaceOnUse">
      <stop stop-color="#9c9a96" offset="0%"></stop>
      <stop stop-color="#9c9a96" offset="15%"></stop>
      <stop stop-color="#9c9a96" offset="30%"></stop>
      <stop stop-color="#9c9a96" offset="45%"></stop>
      <stop stop-color="#9c9a96" offset="60%"></stop>
      <stop stop-color="#9b9997" offset="75%"></stop>
      <stop stop-color="#9b9997" offset="90%"></stop>
    </radialGradient>
    <radialGradient id="16282281824-posters-1720560278625-radial-regular" gradientUnits="userSpaceOnUse">
      <stop stop-color="#83817c" offset="0%"></stop>
      <stop stop-color="#83817c" offset="15%"></stop>
      <stop stop-color="#83817c" offset="30%"></stop>
      <stop stop-color="#83817c" offset="45%"></stop>
      <stop stop-color="#83817c" offset="60%"></stop>
      <stop stop-color="#82807d" offset="75%"></stop>
      <stop stop-color="#82807d" offset="90%"></stop>
    </radialGradient>
    <radialGradient id="16282281824-posters-1720560278625-radial-medium" gradientUnits="userSpaceOnUse">
      <stop stop-color="#51504d" offset="0%"></stop>
      <stop stop-color="#51504d" offset="15%"></stop>
      <stop stop-color="#51504d" offset="30%"></stop>
      <stop stop-color="#51504d" offset="45%"></stop>
      <stop stop-color="#51504d" offset="60%"></stop>
      <stop stop-color="#514f4d" offset="75%"></stop>
      <stop stop-color="#514f4d" offset="90%"></stop>
    </radialGradient>
    <radialGradient id="16282281824-posters-1720560278625-radial-bold" gradientUnits="userSpaceOnUse">
      <stop stop-color="#2f2e2d" offset="0%"></stop>
      <stop stop-color="#2f2e2d" offset="15%"></stop>
      <stop stop-color="#2f2e2d" offset="30%"></stop>
      <stop stop-color="#2f2e2d" offset="45%"></stop>
      <stop stop-color="#2f2e2d" offset="60%"></stop>
      <stop stop-color="#2f2e2d" offset="75%"></stop>
      <stop stop-color="#2f2e2d" offset="90%"></stop>
    </radialGradient>
  </g>
  <g class="vertical">
    <linearGradient id="16282281824-posters-1720560278625-vertical" gradientUnits="userSpaceOnUse" x1="0" x2="0" y1="0"
      y2="100%">
      <stop itemprop="vertical" stop-color="#d5d4d2" offset="0%"></stop>
      <stop itemprop="vertical" stop-color="#d2d1d0" offset="15%"></stop>
      <stop itemprop="vertical" stop-color="#d2d1d0" offset="30%"></stop>
      <stop itemprop="vertical" stop-color="#d5d4d3" offset="45%"></stop>
      <stop itemprop="vertical" stop-color="#dad9d8" offset="60%"></stop>
      <stop itemprop="vertical" stop-color="#d2d1d0" offset="75%"></stop>
      <stop itemprop="vertical" stop-color="#d2d1d0" offset="90%"></stop>
    </linearGradient>
    <linearGradient id="16282281824-posters-1720560278625-vertical-background" gradientUnits="userSpaceOnUse" x1="0"
      x2="0" y1="0" y2="100%">
      <stop stop-color="#ceccca" offset="0%"></stop>
      <stop stop-color="#cdcccb" offset="15%"></stop>
      <stop stop-color="#ceccca" offset="30%"></stop>
      <stop stop-color="#cdcccb" offset="45%"></stop>
      <stop stop-color="#ceccca" offset="60%"></stop>
      <stop stop-color="#cdcccb" offset="75%"></stop>
      <stop stop-color="#cdcccb" offset="90%"></stop>
    </linearGradient>
    <linearGradient id="16282281824-posters-1720560278625-vertical-light" gradientUnits="userSpaceOnUse" x1="0" x2="0"
      y1="0" y2="100%">
      <stop stop-color="#ae9f84" offset="0%"></stop>
      <stop stop-color="#aea284" offset="15%"></stop>
      <stop stop-color="#ae9f84" offset="30%"></stop>
      <stop stop-color="#ae9d84" offset="45%"></stop>
      <stop stop-color="#ae9b84" offset="60%"></stop>
      <stop stop-color="#ae9d84" offset="75%"></stop>
      <stop stop-color="#ae9d84" offset="90%"></stop>
    </linearGradient>
    <linearGradient id="16282281824-posters-1720560278625-vertical-regular" gradientUnits="userSpaceOnUse" x1="0" x2="0"
      y1="0" y2="100%">
      <stop stop-color="#83817c" offset="0%"></stop>
      <stop stop-color="#82817d" offset="15%"></stop>
      <stop stop-color="#83817c" offset="30%"></stop>
      <stop stop-color="#82807d" offset="45%"></stop>
      <stop stop-color="#83807c" offset="60%"></stop>
      <stop stop-color="#82807d" offset="75%"></stop>
      <stop stop-color="#82807d" offset="90%"></stop>
    </linearGradient>
    <linearGradient id="16282281824-posters-1720560278625-vertical-medium" gradientUnits="userSpaceOnUse" x1="0" x2="0"
      y1="0" y2="100%">
      <stop stop-color="#51504d" offset="0%"></stop>
      <stop stop-color="#51504d" offset="15%"></stop>
      <stop stop-color="#51504d" offset="30%"></stop>
      <stop stop-color="#514f4d" offset="45%"></stop>
      <stop stop-color="#514f4d" offset="60%"></stop>
      <stop stop-color="#514f4d" offset="75%"></stop>
      <stop stop-color="#514f4d" offset="90%"></stop>
    </linearGradient>
    <linearGradient id="16282281824-posters-1720560278625-vertical-bold" x1="0" x2="0" y1="0" y2="100%">
      <stop stop-color="#2f2e2d" offset="0%"></stop>
      <stop stop-color="#2f2e2d" offset="15%"></stop>
      <stop stop-color="#2f2e2d" offset="30%"></stop>
      <stop stop-color="#2f2e2d" offset="45%"></stop>
      <stop stop-color="#2f2e2d" offset="60%"></stop>
      <stop stop-color="#2f2e2d" offset="75%"></stop>
      <stop stop-color="#2f2e2d" offset="90%"></stop>
    </linearGradient>
  </g>
  <g class="horizontal">
    <linearGradient id="16282281824-posters-1720560278625-horizontal" x1="0" x2="100%" y1="0" y2="0"
      gradientUnits="userSpaceOnUse">
      <stop itemprop="horizontal" stop-color="#d2d1d0" offset="0%"></stop>
      <stop itemprop="horizontal" stop-color="#d2d1d0" offset="15%"></stop>
      <stop itemprop="horizontal" stop-color="#d5d4d2" offset="30%"></stop>
      <stop itemprop="horizontal" stop-color="#d5d4d2" offset="45%"></stop>
      <stop itemprop="horizontal" stop-color="#d7d6d5" offset="60%"></stop>
      <stop itemprop="horizontal" stop-color="#d5d4d2" offset="75%"></stop>
      <stop itemprop="horizontal" stop-color="#d2d1d0" offset="90%"></stop>
    </linearGradient>
    <linearGradient id="16282281824-posters-1720560278625-horizontal-background" gradientUnits="userSpaceOnUse" x1="0"
      x2="100%" y1="0" y2="0">
      <stop stop-color="#cdcccb" offset="0%"></stop>
      <stop stop-color="#cdcccb" offset="15%"></stop>
      <stop stop-color="#ceccca" offset="30%"></stop>
      <stop stop-color="#ceccca" offset="45%"></stop>
      <stop stop-color="#cdcccb" offset="60%"></stop>
      <stop stop-color="#ceccca" offset="75%"></stop>
      <stop stop-color="#ceccca" offset="90%"></stop>
    </linearGradient>
    <linearGradient id="16282281824-posters-1720560278625-horizontal-light" gradientUnits="userSpaceOnUse" x1="0"
      x2="100%" y1="0" y2="0">
      <stop stop-color="#9b9997" offset="0%"></stop>
      <stop stop-color="#9b9997" offset="15%"></stop>
      <stop stop-color="#9c9a96" offset="30%"></stop>
      <stop stop-color="#9c9a96" offset="45%"></stop>
      <stop stop-color="#9b9997" offset="60%"></stop>
      <stop stop-color="#9c9a96" offset="75%"></stop>
      <stop stop-color="#9c9a96" offset="90%"></stop>
    </linearGradient>
    <linearGradient id="16282281824-posters-1720560278625-horizontal-regular" gradientUnits="userSpaceOnUse" x1="0"
      x2="100%" y1="0" y2="0">
      <stop stop-color="#968469" offset="0%"></stop>
      <stop stop-color="#968469" offset="15%"></stop>
      <stop stop-color="#968669" offset="30%"></stop>
      <stop stop-color="#968669" offset="45%"></stop>
      <stop stop-color="#968469" offset="60%"></stop>
      <stop stop-color="#968669" offset="75%"></stop>
      <stop stop-color="#968669" offset="90%"></stop>
    </linearGradient>
    <linearGradient id="16282281824-posters-1720560278625-horizontal-medium" gradientUnits="userSpaceOnUse" x1="0"
      x2="100%" y1="0" y2="0">
      <stop stop-color="#5d5241" offset="0%"></stop>
      <stop stop-color="#5d5241" offset="15%"></stop>
      <stop stop-color="#5d5341" offset="30%"></stop>
      <stop stop-color="#5d5341" offset="45%"></stop>
      <stop stop-color="#5d5241" offset="60%"></stop>
      <stop stop-color="#5d5341" offset="75%"></stop>
      <stop stop-color="#5d5341" offset="90%"></stop>
    </linearGradient>
    <linearGradient id="16282281824-posters-1720560278625-horizontal-bold" gradientUnits="userSpaceOnUse" x1="0"
      x2="100%" y1="0" y2="0">
      <stop stop-color="#2f2e2d" offset="0%"></stop>
      <stop stop-color="#2f2e2d" offset="15%"></stop>
      <stop stop-color="#2f2e2d" offset="30%"></stop>
      <stop stop-color="#2f2e2d" offset="45%"></stop>
      <stop stop-color="#2f2e2d" offset="60%"></stop>
      <stop stop-color="#2f2e2d" offset="75%"></stop>
      <stop stop-color="#2f2e2d" offset="90%"></stop>
    </linearGradient>
  </g>
  <g class="masks">
    <mask id="16282281824-posters-1720560278625-pattern-mask" maskUnits="userSpaceOnUse"
      maskContentUnits="userSpaceOnUse">
      <pattern id="pattern" x="0" y="0" width=".0133" height=".0144" viewBox="0 0 23.07 40">
        <path
          d="M17.62 0l-6.07 10.5m2.74 4.76L8.22 4.75m-5.48 0h12.13M.01 0h23.07M6.07 20L0 9.5m2.74-4.75l-6.07 10.5m-5.48 0H3.33m8.2 4.75L0 .02-11.54 20m40.68 0L23.07 9.5m2.74-4.75l-6.06 10.5m-5.49 0H26.4M34.6 20L23.08.02 11.53 20m-5.46 0L0 30.51m2.74 4.75l-6.07-10.5m-5.48 0H3.33m8.2-4.75L0 40l-11.54-19.98zM17.6 40l-6.06-10.5m2.74-4.76L8.2 35.25m-5.48 0h12.13M0 40h23.07L11.54 20.01m17.6 0l-6.07 10.5m2.74 4.75l-6.06-10.5m-5.49 0H26.4M11.53 20h23.08L23.07 40"
          stroke-linecap="round" stroke-width="3.5" stroke="white"
          fill="url(#16282281824-posters-1720560278625-horizontal-background)"></path>
      </pattern>
      <rect width="100%" height="100%" fill="url(#pattern)"></rect>
    </mask>
    <mask id="16282281824-posters-1720560278625-horizontal-mask" maskUnits="userSpaceOnUse"
      maskContentUnits="userSpaceOnUse">
      <rect width="100%" height="100%" fill="url(#16282281824-posters-1720560278625-horizontal-background)"></rect>
    </mask>
    <mask id="16282281824-posters-1720560278625-radial-mask" maskUnits="userSpaceOnUse"
      maskContentUnits="userSpaceOnUse">
      <rect width="100%" height="100%" fill="url(#16282281824-posters-1720560278625-radial-background)"></rect>
    </mask>
    <mask id="16282281824-posters-1720560278625-vertical-mask" maskUnits="userSpaceOnUse"
      maskContentUnits="userSpaceOnUse">
      <rect width="100%" height="100%" fill="url(#16282281824-posters-1720560278625-vertical-background)"></rect>
    </mask>
  </g>
  <use href="#16282281824-posters-1720560278625-pattern-render"></use>
  <g>
    <use href="#16282281824-posters-1720560278625-background"></use>
    <use href="#16282281824-posters-1720560278625-light"></use>
    <use href="#16282281824-posters-1720560278625-regular"></use>
    <use href="#16282281824-posters-1720560278625-medium"></use>
    <use href="#16282281824-posters-1720560278625-bold"></use>
  </g>
  <g itemprop="animation">
    <animate href="#16282281824-posters-1720560278625-light" attributeName="stroke-opacity" repeatCount="indefinite"
      dur="5s" values="0.9;0.0;0.9"></animate>
    <animate href="#16282281824-posters-1720560278625-regular" attributeName="stroke-opacity" repeatCount="indefinite"
      dur="4s" values="0.9;0;0.9"></animate>
    <animate href="#16282281824-posters-1720560278625-medium" attributeName="stroke-opacity" repeatCount="indefinite"
      dur="5s" values="0.9;0;0.9"></animate>
    <animate href="#16282281824-posters-1720560278625-bold" attributeName="stroke-opacity" repeatCount="indefinite"
      dur="3s" values="0.9;0;0.9"></animate>
    <animate href="#16282281824-posters-1720560278625-regular" attributeName="fill-opacity" repeatCount="indefinite"
      dur="8s" values="0.9;0.75;0.95;0.8;0.9;"></animate>
    <animate href="#16282281824-posters-1720560278625-radial-background" attributeName="cx" repeatCount="indefinite"
      dur="34s" values="0%;33%;100%;0%;100%;0%;"></animate>
    <animate href="#16282281824-posters-1720560278625-radial-background" attributeName="cy" repeatCount="indefinite"
      dur="55s" values="0%;100%;33%;100%;66%;0%"></animate>
    <animate href="#16282281824-posters-1720560278625-vertical-light" attributeName="x1" repeatCount="indefinite"
      dur="55s" values="0%;33%;100%;0%;133%;0%;"></animate>
    <animate href="#16282281824-posters-1720560278625-vertical-light" attributeName="y1" repeatCount="indefinite"
      dur="86s" values="0%;100%;33%;100%;66%;0%"></animate>
    <animate href="#16282281824-posters-1720560278625-horizontal-regular" attributeName="x1" repeatCount="indefinite"
      dur="34s" values="0%;100%;66%;0%;33%;133%;0%"></animate>
    <animate href="#16282281824-posters-1720560278625-horizontal-regular" attributeName="y1" repeatCount="indefinite"
      dur="55s" values="0%;66%;100%;33%;100%;66%;0%"></animate>
    <animate href="#16282281824-posters-1720560278625-vertical-medium" attributeName="x1" repeatCount="indefinite"
      dur="34s" values="0%;100%;66%;0%;33%;133%;0%"></animate>
    <animate href="#16282281824-posters-1720560278625-vertical-medium" attributeName="y1" repeatCount="indefinite"
      dur="55s" values="0%;66%;100%;33%;100%;66%;0%"></animate>
    <animate href="#16282281824-posters-1720560278625-vertical-bold" attributeName="x1" repeatCount="indefinite"
      dur="34s" values="0%;100%;66%;0%;33%;133%;0%"></animate>
    <animate href="#16282281824-posters-1720560278625-vertical-bold" attributeName="y1" repeatCount="indefinite"
      dur="55s" values="0%;66%;100%;33%;100%;66%;0%"></animate>
  </g>
</svg>
