<svg id="16282281824-posters-1720553628663" itemscope="" itemtype="/posters"
  itemid="/+16282281824/posters/1720553628663" viewBox="0 0 769 512" preserveAspectRatio="xMidYMid meet" tabindex="0"
  class="animate landscape" xmlns="http://www.w3.org/2000/svg">
  <!---->
  <defs class="graphic">
    <pattern id="16282281824-posters-1720553628663-pattern" width="769" height="512" viewBox="0 0 769 512"
      patternUnits="userSpaceOnUse" preserveAspectRatio="xMidYMid meet">
      <rect itemprop="background" width="769" height="512" tabindex="-1"
        id="16282281824-posters-1720553628663-background" fill-opacity="1"
        fill="url(#16282281824-posters-1720553628663-radial-background)"></rect>
      <!---->
      <path id="16282281824-posters-1720553628663-light"
        d="M208 4c2 8 9 18 13 18q9-2 1-14l-3-6q-1-2-6-2h-5zm24 0q2 11 5 15 8 3 8-9l-1-6V0h-13zm26-1-2 7c-2 3-1 9 1 10q9 0 11-15V0h-5q-6-1-5 3m273-2c0 1 7 8 9 8q4 0 5-4 1-5-8-5zm79 0q-2 5 3 7l7-7zM510 2c-5 5 7 18 12 13q3-1 1-5c-3-6-10-11-13-8M283 5l-8 13q-2 6 3 8 6-1 10-12l1-4c3-3-3-7-6-5m346 1q-6 5-4 8 3 4 8-1c6-6 2-12-4-7m-451 6 7 15 1 3c0 9 12 15 16 9q4-4-2-12l-4-6c0-1-8-8-11-9zm316 3c-3 4 2 9 6 7q5-1 0-6-4-3-6-1m149 6q-3 2-1 4 4 4 7-1c4-5-2-8-6-3m-348 6q-6 5-3 9 4 5 7-1 4-5 1-8zM156 41q-4 4 1 8c7 4 11-2 5-7q-4-3-6-1m508 4-2 15c0 12 0 12 2 14q6 4 7-4l-1-26q-4-2-6 1m-37 1-2 2 3 6 9 13c5 11 13 10 11-2-2-7-18-23-21-19m66 6-5 8-3 6c-2 4-2 11-1 13q10 5 15-24 1-9-6-3m-240 2q-4 5-4 9l-1 6c-2 4-3 24-2 27l3 3c6 0 7-3 7-19l1-18q3-14-4-8m-37 3q-2 0 1 11l4 10c2 14 8 24 13 21q6-4-5-24l-1-4c0-3-5-12-7-13q-3-3-5-1m190 8c0 2 1 4 10 14 5 5 11 3 9-4-3-8-19-17-19-10m-132 8c-3 3-10 21-10 25 0 7 10 4 12-4l2-11c3-10 1-16-4-10m231 2q-3 1-2 4 2 7 6 4 4-6 0-9-1-2-4 1m-481 1c-2 1-1 8 1 10l2 6q5 26 12 24c5-2 4-13 0-21l-5-9c-2-8-8-13-10-10m35 7-2 6-2 6c-6 11-5 21 0 21q6 0 7-9l5-22c2-8-4-10-8-2m139-2q-3 5 9 21c4 6 11 3 10-4a28 28 0 0 0-9-13q-1-3-6-5-2-1-4 1m195 1a5 5 0 1 0 8-1c-2-2-8-1-8 1M8 88q-4 5 1 8 3 2 5-1c5-6-1-13-6-7m20 9a4 4 0 1 0 5 7 4 4 0 0 0-5-7m347 0q-3 2 2 9 8 13 14 7c3-6-11-20-16-16m-100 5q-8 7-6 12 4 8 13-6 8-19-7-6m213-4c-6 6-6 13 0 13 3 0 8-9 6-12q-2-3-6-1m-279 8q-1 5 3 9 9 4 8-5-6-6-11-4m86 3a4 4 0 1 0 6 3q0-5-6-3m454 6-2 7-1 7c-2 5-1 20 2 22q8 7 8-22c0-16-1-17-3-17zm-249 2q-4 5 2 7 7-2 4-8-2-2-6 1m-141 1c-5 3 2 12 8 10 2-1 1-7-2-9q-4-3-6-1m-257 1-6 14-3 8c-1 1-3 14-2 16q2 5 5 5c4 0 6-4 11-35l-1-7q-1-3-4-1m91 1q-5 1 1 6 4 6 9 3 3-4-3-7-4-7-7-2m-139 2c-1 1 0 9 2 9l9 18c6 14 8 16 11 14q8-4-2-21-14-28-20-20m661 0q-4 3 5 14l3 7c0 3 4 9 6 10 8 4 8-9 1-17l-2-3c0-3-11-12-13-11m52 15-1 6-1 4q-2 3 1 5 4 6 3-8 0-12-2-7m-645 8q-13 14-8 20t12-8l6-11c3-7-4-8-10-1m-83-3q-3 4 3 12l4 8q4 4 8 3c5-1 2-11-6-19q-6-7-9-4m473 3q-1 5 1 8c1 2 6 18 7 26q3 16 9 9c3-3 2-13-1-21l-3-9q-7-18-13-13m42 5-2 5-1 2-1 5-2 7c-3 4-3 14 0 16q6 6 9-14l3-15q2-14-6-6m150-2q-3 5 2 11c8 7 12-2 5-10q-4-3-7-1m-19 11c-5 4 1 13 7 10q5-4-1-9-4-3-6-1m-662 2c-6 4 4 18 11 15q2 0 2-4c0-6-9-14-13-11m116 2q-7 8-1 11c2 2 7 1 7-3l1-1c1 0 2-6 1-8q-4-2-8 1m351 1v5l4 9q6 17 13 12v-10l-3-6q-8-13-14-10m86 4q-11 19-6 21 6 8 13-17c3-10-2-13-7-4m-275 3-1 8-1 15v9l1 6q-1 4 3 6 10 4 6-26l-2-12q-2-10-6-6m25 7c-7 8-11 32-5 36 4 3 9-6 9-18l2-12 1-6q-3-4-7 0M2 178q-2 2 1 5 8 5 6-4-3-4-7-1m271 1 1 6 3 9c0 6 6 20 9 20q5 1 6-4c1-3-1-13-4-16q-3-3-3-7c-2-8-10-14-12-8m200 6-2 3 1 2c0 6 12 12 14 7 1-7-9-17-13-12m121 5q-4 6 0 9 7 2 8-7-2-8-8-2m-252 5-3 6-3 8c-3 8 5 10 9 3 5-8 2-22-3-17m113 4c-3 4 2 11 7 13 6 1 8-6 4-10q-8-6-11-3m-193 5c-4 4 5 15 10 12q4-2-2-9-5-6-8-3m-15 12c-1 4 4 10 8 7a5 5 0 0 0-7-8m297 18v14c-1 5 1 17 3 20h7c3-3 0-24-4-31q-3-6-6-3m29 3-3 5-4 10q-6 14-1 17 5 2 7-4l2-4 4-20q0-8-5-4m-433 12q-3 2 4 14 4 9 4 20 1 15 8 8c4-4 0-31-6-37l-1-2c0-3-7-5-9-3m557 4q-3 1-3 9l-2 9c-2 3-1 15 2 20q2 6 6 3c4-1 4-39 0-42q-2-2-3 1m-109 3q-7 9-3 14c4 4 13-11 9-16q-2-3-6 2m-411 3-3 4-5 11q-8 18 1 18 6-2 11-20l1-3c3-2 4-9 1-11q-2-5-6 1m350 0c-3 1 1 10 5 10l1 1q2 3 5-1c5-5-4-13-11-10m196 4c-2 4-6 16-6 22q-2 11 3 10 6 1 7-14l2-13q1-11-6-5m-67 2q-2 1 1 4l12 24c0 2 5 5 7 4 6-1 2-14-9-26q-7-10-11-6m-269 4-1 8 2 20c0 15 1 18 4 18q7 1 6-16-3-37-11-30m-27 7q-1 3 6 20l2 7c0 7 6 13 9 9q5-5-4-21l-6-13q-4-6-7-2M8 277l-4 6-3 6c-2 1-1 10 1 11 5 1 14-13 13-22q-3-5-7-1m412 2a86 86 0 0 0-13 24q-3 9 4 10c2 0 3-1 7-11l5-11c2-3 3-11 2-12q-1-4-5 0m-291 1c-3 5 6 17 12 14q6-3-4-13-5-6-8-1m63 1c-5 4-2 11 3 8 2-1 6-8 5-10q-3-3-8 2m554 1-2 2-3 6q-6 10 0 13 6 1 7-6l1-3 2-5q0-9-5-7m-532 3c-4 2-2 9 2 9s6-6 3-9q-2-3-5 0m427 1 2 6 4 5q3 6 8 6 6-2-1-11l-6-7q-6-5-7 1m-621 7c-5 4-4 11 2 11 4 0 10-9 7-13q-3-3-9 2m93 2q-4 1-2 7 5 8 10 2c3-4-4-10-8-9m316 6q-6 8 1 10 4 0 6-7c2-6-3-8-7-3m196 1c-3 3 1 11 6 11q7-1 1-9-5-5-7-2m-274 3q-4 4 2 9l3 2 2-2c3-4-2-11-7-9m-118 12c-5 5-9 37-6 40q9 6 11-19l2-15q0-12-7-6m-37 0q-2 2 1 7 5 7 6 22 4 17 10 11 5-5-1-19-9-28-16-21m312 15-2 6-1 5c-1 1-2 15-1 18 1 7 8 3 9-4l1-22q-1-11-6-3m-35-1q-3 0 2 14l3 12c0 8 6 13 10 8 7-7-9-41-15-34m-296 1q-3 3-1 5l1 3c1 5 7 14 11 17q5 3 7-3a23 23 0 0 0-7-15q-4-6-9-8zm77 3-2 4-1 2c-2 1-6 19-5 22q1 4 7 2c3-2 6-11 6-16l1-4c2-2 1-9-1-10q-2-3-5 0m276 9c-6 7-8 18-4 21q7 5 10-12 3-19-6-9m-79 2c-2 4 3 18 8 19 8 3 7-10-1-19q-4-4-7 0m-287 7q-2 3 1 9 10 9 11 0c0-2-5-9-7-9zm542 4-2 7-2 14c-2 13 2 20 7 13 2-5 3-36 0-36zm-438 3c-4 4-3 10 1 10 6 0 9-10 5-12q-3-2-6 2m163 0c-3 4 3 14 9 14q6 0 3-7-1-5-6-7-5-4-6 0m238 1q-2 5 2 9l4 7c8 15 9 17 13 17q4 1 3-5t-6-12l-4-6q-9-13-12-10M0 383l1 21c3 0 3-3 3-22 0-20 0-21-3-21zm546-17c-5 6-4 15 2 12 4-3 8-12 6-15q-2-3-8 3m-401 1q0 8 9 8 5-3 0-7c-2-2-8-3-9-1m143 3q-5 3-2 6c2 5 7 3 7-2q-1-6-5-4m127 4q-4 2 2 7 5 5 7 1c3-5-5-13-9-8m-393 2-2 3-1 1-3 6-3 6c-3 5-2 13 1 14q6 3 10-13 8-24-2-17m111 1q-5 5 2 9 4 2 4-1c2-5-3-10-6-8m589 1c-5 4-8 12-4 14q5 4 8-6 4-13-4-8M36 397c-3 2-3 8 1 8q6-1 5-8-1-4-6 0m518 24-2 24q0 12 4 11 6 2 6-18 0-13-2-15-2-5-6-2m-36 7 2 6 3 6 6 14c3 7 9 5 9-3-1-13-17-31-20-23m63 1c-2 2-7 12-8 19-1 6 5 10 9 6 6-7 5-29-1-25m-536 3-2 4-1 4-1 16c0 14 0 15 2 17q7 6 9-4c2-20 0-39-5-39zm211-1v5l3 8c5 16 7 20 11 20 5 0 6-10 1-18l-4-7-6-7q-3-3-5-1m32 1q-6 6-7 24c0 8 0 8 2 10q8 5 9-15l2-13q-1-11-6-6m476-1c-2 1-1 7 2 10l3 4v-8q1-9-2-7zM73 441l-4 9-1 3c-4 4-6 19-3 22q7 4 10-9c4-23 4-23 3-24q-2-3-5-1m-64 7 1 5 4 9 3 9q1 6 7 8 6 0 4-11c-2-9-4-12-11-20q-6-5-8 0m588 1q-4 6 2 8 2 1 5-2c3-6-2-11-7-6m-94 1c-2 5 3 12 8 12q8-2 1-11c-2-2-9-3-9-1m-408 3c-7 5-15 23-12 28q5 6 11-7l3-6 2-8q0-10-4-7m206 4q-6 7-1 10 6 3 8-6c3-8-2-11-7-4m-59 1c-3 3 3 10 8 10s5-6-1-10q-4-4-7 0m244 5q-4 1 0 7 6 4 7-1-1-7-7-6M0 476q0 10 5 9c5 0 5-7 0-13q-5-7-5 4m106 3q-6 9 2 11c1 0 6-5 7-8 1-7-5-9-9-3m19 9q-4 5 1 8 5-1 6-7-3-5-7-1m281 5-3 12v7h4c5 0 5-1 6-12q0-18-7-7m288-3v7l1 8v7h10l-1-6c-2-12-7-20-10-16m-329 3q-3 2 3 9l4 8q1 3 5 2 6 0 3-2l-1-3c0-7-11-18-14-14m355 10-3 5-2 4h4q6 2 6-7 0-7-5-2"
        mask="url(#16282281824-posters-1720553628663-horizontal-mask)" itemprop="light" fill-opacity="0.90"
        fill-rule="evenodd" stroke="none" fill="url(#16282281824-posters-1720553628663-vertical-light)"></path>
      <!---->
      <path id="16282281824-posters-1720553628663-regular"
        d="M209 3c0 5 8 19 12 19q8 0 0-15c-4-7-4-7-8-7q-5-1-4 3m23 0 4 14c3 5 9 1 9-5q1-13-8-12-6-1-5 3m25 4q-3 12 2 12 6 0 8-16l1-3h-9zm275-6c0 4 10 9 11 5q3-6-6-6zm78 2q1 6 7 2 5-5-3-5-5-1-4 3M510 3q-2 3 4 10 10 7 8-3-6-10-12-7M282 7c-8 9-9 19-3 18 3-1 11-14 10-18q-2-4-7 0m346 1q-5 3-2 7 2 2 5-2 6-6 2-8zm-449 4 6 14 1 3c0 3 4 10 6 11q18 3 5-16c-6-9-18-16-18-12m316 3a4 4 0 0 0 6 6c2-2-3-7-6-6m150 4q-3 3-1 6 3 3 5-2t-4-4M294 29q-5 4-2 7 6 3 8-6-2-5-6-1M155 42q-1 3 3 7c6 3 9-2 5-6q-5-3-8-1m509 5-1 14q-1 19 6 13c2-2 2-2 2-15l-1-14q-4-3-6 2m-37-1q-3 2 4 11l7 10c4 8 10 9 10 1q1-6-10-15c-8-8-9-8-11-7m67 5c-4 3-12 23-10 26q7 7 13-17 3-14-3-9m-241 3-3 6-2 11c-2 9-3 25-1 27q6 2 8-4V83c0-7 1-20 3-25q0-5-5-4m-37 4q-1 2 1 7l4 15q6 19 11 19 4 0 4-7l-13-31q-5-6-7-3m191 6q-2 2 10 15 5 4 8-1c1-6-14-18-18-14M474 74c-7 10-10 25-7 27q8 4 12-24-1-9-5-3m231 2q-3 4 0 6 5 1 6-5-2-5-6-1m-481 1q-2 3 1 8l3 9q5 24 12 20 5-3-2-19l-4-9c-2-7-8-12-10-9m38 3-5 10-2 6q-7 18 0 19 5 2 7-12l4-15q2-14-4-8m137 1q-3 2 3 13 9 16 14 9c3-6-13-27-17-22m195 1q-2 5 3 6c4 1 6-4 2-7q-4-2-5 1M9 88q-6 6 2 8c4 0 6-7 2-9q-1-1-4 1m18 10q-3 4 2 6 5-1 5-4-3-5-7-2m249 4q-12 14-2 14c4-1 12-15 10-18q-2-3-8 4m99-4c-2 3 8 16 12 16 6-1 4-9-3-14q-7-5-9-2m114 0q-6 6-4 12 3 3 6-3 7-11-2-9m-279 8q-3 1 2 7 6 6 8-1c0-3-7-7-10-6m84 5q-1 5 2 6 4-1 5-6c-1-3-6-3-7 0m457 3q-4 3-5 21c0 14 0 16 4 16s4-3 5-19v-16l-2-4zm-250 4q-4 4 1 6c3 0 6-5 4-7q-2-2-5 1m-142 1c-3 2 2 9 6 9q5-2 1-8-4-3-7-1m-257 1-2 4-5 13-4 15q2 13 8 7c2-2 6-22 7-34q1-8-4-5m92 0c-5 1 1 9 6 9q6-1 0-7-3-4-6-2m-140 4 4 9 7 15 3 7q3 10 8 7 9-2-7-28-14-19-15-10m661-1q-2 1 5 13l4 10c4 10 11 12 10 1 0-8-15-27-19-24m52 17q-3 11 0 13t2-13l-1-4zm-644 4c-11 10-13 25-4 21 3-1 14-20 12-23q-2-4-8 2m-84 0c-1 2-1 3 6 13q8 12 11 6 1-6-8-17-6-6-9-2m474 2q-2 1 1 9 5 8 6 21 3 17 9 11c6-7-10-48-16-41m42 4c-3 3-9 27-8 32 2 9 8 3 10-11l2-13v-9q-2-2-4 1m149-1c-3 4 5 14 9 12 3-2-1-13-5-13zm-19 11c-4 3 1 10 6 8q6-2 0-7-4-3-6-1m-662 2c-4 3 4 14 10 14q3 0 3-4c0-5-10-14-13-10m117 1c-4 3-5 10-1 11 5 2 11-9 6-12q-2-2-5 1m351 1c-3 4 8 26 12 26q5 0 5-4c0-3-7-16-11-19q-4-6-6-3m85 5-4 7-2 4c-2 3-1 9 2 10 5 0 14-21 10-26q-2-3-6 5m-275 2-1 16c0 24 0 25 3 27q9 7 5-28-1-19-7-15M3 179c-2 2 3 7 5 5q3-1 1-3-3-6-6-2m272-1v8l2 7c0 6 7 21 10 21 6 0 6-11 0-19l-2-5-5-11q-2-3-5-1m51 1c-6 6-10 28-7 32q7 9 10-11l2-14q2-13-5-7m147 6c-3 1 1 10 6 13 6 3 8-3 4-9q-5-7-10-4m121 6q-3 5 0 7 3 3 7-3c3-6-3-9-7-4m-253 6q-7 19-1 19c4 0 10-15 7-19q-3-4-6 0m114 4q-1 1 2 5 6 9 10 2c3-5-9-12-12-7m-193 4c-1 3 4 11 7 11q9 0 1-8-5-6-8-3m-14 10q-1 4 3 7 8 1 4-6-4-3-7-1m298 19c-1 1 0 27 1 30q4 6 7 2c5-6-3-38-8-32m27 4-2 6-2 6q-6 9-4 16 3 5 7 0l4-14 2-7c3-8-1-14-5-7m-431 11q-3 1 3 11c3 6 3 8 4 17q0 15 5 14c5 0 7-11 3-23l-3-9-5-9q-4-3-7-1m557 3c-2 1-4 7-3 9l-2 8c-3 10 1 27 7 24 2-1 2-2 2-20q0-28-4-21m-108 2c-5 4-8 13-5 15q5 1 8-7 4-11-3-8m-411 3q-2 0-11 20c-4 8-4 9 0 12l2 2 2-2 4-5 4-12q6-14 2-15zm349 1q-3 3 2 8t8 2c3-5-6-14-10-10m196 4c-4 5-9 27-7 30q4 4 7-2c2-3 4-15 4-25q0-6-4-3m-67 2q-1 2 2 6l7 14c5 11 7 12 10 12 4-1 1-13-6-22q-11-15-13-10m-269 4v24c1 19 1 21 5 21q7 0 3-24-2-28-8-21m-28 7 6 20 3 9c3 10 9 11 9 1s-15-36-18-30M9 277l-4 7-4 5-1 6q-1 5 3 4c5 0 10-9 10-18q2-9-4-4m411 2q-5 6-11 22l-3 8 2 2q1 3 4 1c2-1 13-27 13-31q-1-6-5-2m-227 1q-4 4-3 8 4 3 8-3 3-10-5-5m-63 0c-3 1 1 10 6 13 6 3 8-3 3-9l-7-5zm512 7c1 6 8 15 12 15q8-1-3-12-10-12-9-3m100 3q-6 11-2 12 5 3 8-7 5-13 0-12-2 0-6 7m-529-3q-3 4 2 6c4 1 7-5 4-8q-3-3-6 2m-192 6q-4 2-3 6c1 7 10 4 10-4q0-6-7-2m90 4c-1 4 4 10 8 8q5-2 0-7t-8-1m320 3q-5 5-4 9 3 4 8-2 2-10-4-7m194 4q-2 6 7 8 5-2-1-8-4-4-6 0m-275 4q0 4 6 6c5-1 2-8-3-8q-3 0-3 2m-116 9c-5 5-10 33-7 38q4 5 8-1c1-2 3-16 3-33q1-9-4-4m-37 1v4l7 22q3 14 5 14c7 2 7-13-1-30q-6-13-11-10m313 12c-4 5-8 30-5 33q7 6 9-19 0-19-4-14m-37 2 2 11 4 15q3 13 9 6c4-5-7-33-13-33zm-297 1c-1 4 6 18 11 22 6 5 9-1 5-8-5-11-14-18-16-14m79 3q-5 7-6 13l-2 6v9q6 6 11-11l2-11c1-5-2-10-5-6m277 7c-6 6-9 20-5 22q5 3 8-10 5-18-3-12m-80 3c-3 4 4 19 9 19q8-1-1-15-5-7-8-4m-288 8c-3 1 2 10 7 12 6 1 5-8-1-11q-4-3-6-1m543 3c-3 3-6 26-4 32 1 8 7 0 7-9v-14q2-15-3-9m-439 3q-5 8 1 9c4 0 8-7 6-9q-3-4-7 0m163 0c-2 3 6 15 10 14s1-11-4-13q-4-3-6-1M0 382q0 29 3 19c1-3 0-38-1-39-1-3-2 1-2 20m669-20q-1 5 2 6l4 8 6 11q4 8 8 7 5-2-1-12-18-25-19-20m-123 5q-6 9 0 10 4 0 6-4c5-9 0-14-6-6m-399 0q-2 3 1 5c2 2 7 2 7 0 2-3-6-8-8-5m139 5c-2 4 2 8 5 4q3-1 1-4-3-4-6 0m129 2c-3 1 2 9 6 9 5 0 4-7-1-9zm-393 3c-4 5-11 22-10 26s7 3 9-2l7-24q-2-4-6 0m110 2c-2 3 3 8 6 7q3-4-1-7-3-3-5 0m589 1q-6 7-3 12 5 3 7-6 5-14-4-6M36 398q-3 4 0 6 5 1 6-5-1-5-6-1m519 24c-2 9-3 30-2 32q4 3 7-2c2-5 1-24 0-29q-4-5-5-1m-36 6 2 5 3 9 4 8q3 9 6 7c7-1 3-17-7-27q-6-6-8-2m59 8q-8 19 1 19 3-1 4-5c5-19 2-28-5-14m-533-3c-5 7-5 38-1 41q9 6 8-28-2-21-7-13m212-1v4l4 12q6 17 8 15c6 0 6-9 1-16l-2-5c0-4-9-11-11-10m31 1c-4 4-8 25-5 30q6 9 8-10l2-15q0-10-5-5m476-1c-2 1 1 9 4 10q1 2 1-5 1-8-2-6zM73 442c-4 5-11 26-9 30l3 3c5 1 6-2 10-25q2-13-4-8m-63 7c2 8 9 26 11 28q7 4 7-4c0-11-10-27-16-27q-2-1-2 3m588 0q-4 6 1 8c5 0 7-8 2-10zm-94 1c-3 1 0 9 5 11q3 2 5-1c3-5-4-13-10-10m-410 5c-10 10-14 26-8 27q6-1 7-7l2-4q6-15 3-17-2-2-4 1m208 2q-6 8-1 10 6 0 7-9-1-7-6-1m-60 1q0 4 5 9c6 3 8-3 3-7q-5-5-8-2m244 6q-2 3 1 5c4 4 8 0 4-4q-3-3-5-1M0 476c0 7 0 7 2 8q11 1 3-11-6-8-5 3m108 1q-6 8-3 11c5 4 12-8 8-12q-3-2-5 1m17 11q-4 5 1 7 5 0 5-6-1-5-6-1m281 5-2 11v8h7l1-8q1-13-2-14zm289 1v18h9l-1-4q-2-16-8-18zm-329-1q-3 0 2 8l4 7c3 5 9 6 7 1-2-8-9-18-13-16m356 9-3 5-3 5h3q6 0 6-9-1-4-3-1"
        mask="url(#16282281824-posters-1720553628663-radial-mask)" itemprop="regular" fill-opacity="0.90"
        fill-rule="evenodd" stroke="none" fill="url(#16282281824-posters-1720553628663-horizontal-regular)"></path>
      <!---->
      <path id="16282281824-posters-1720553628663-medium"
        d="M210 3c1 9 8 18 11 18q6-2 2-9l-5-9c-2-5-10-5-8 0m23 0c0 4 4 14 5 15q7 3 6-11l-1-7h-10zm25 2q-4 15 1 14 4-1 6-9l2-7q1-4-4-3-4-1-5 5m276-2q8 10 9 1V0h-11zm-23 1c-3 3 6 14 10 11q2-4-4-11-4-3-6 0M283 7c-4 4-8 13-8 16q4 6 12-10 3-11-4-6m346 1q-5 4-1 7l7-7q-2-3-6 0m-449 6 4 8 3 8c0 9 11 13 15 7q2-4-10-18c-5-6-12-9-12-5m114 16q-3 3 0 6c2 2 6-3 6-6q-2-3-6 0M155 44c0 4 8 7 9 3a5 5 0 0 0-9-3m509 3c-1 4-2 22 0 25 1 5 6 1 6-5q0-32-6-20m-37 0q-1 3 3 8c3 3 9 12 9 14 0 3 6 5 8 3q4-6-9-18-11-11-11-7m66 5c-2 3-7 14-8 19-3 11 6 9 9-2l2-9q4-12-3-8m-240 4-2 4-2 10q-6 30 2 27 4-1 4-16V67q4-18-2-11m-37 2 3 11 3 10c0 5 6 18 9 19q9 4-2-22-10-26-13-18m191 7c-1 2 12 16 14 16l3-2c3-5-14-19-17-14m-132 9c-4 4-11 23-9 25q6 8 10-12 5-20-1-13m-250 3q-3 2 1 9l5 15q4 18 10 11c2-2 0-11-4-16l-4-10q-4-11-8-9m36 5-8 22q-3 10 2 10c4 0 4-1 6-11l4-13 1-8q-1-6-5 0m139-1c-3 3 6 21 11 23 8 2 6-9-4-19q-6-7-7-4M9 89c-4 3 0 9 3 6 2-2 2-7 0-7q-2-2-3 1m367 9q-2 2 3 9 7 9 10 5l2-2-2-3-11-10zm-100 4q-8 8-5 12 4 6 10-7 6-14-5-5m211-1c-3 2-3 8 0 9 4 0 9-10 5-11q-2-2-5 2m-277 6c-1 3 4 8 7 8l2-2c0-5-8-9-9-6m541 8c-4 4-6 31-3 34q6 9 6-19c0-17 0-19-3-15m-392 5c-2 3 5 9 8 7a5 5 0 0 0-8-7m-259 4-3 9-3 7c-4 9-3 20 2 20q5 1 6-13l2-13q3-13 0-14-3 0-4 4m93-2c0 3 5 7 7 7q3-2 0-7-6-4-7 0m-139 2 3 6 5 10 6 14q6 12 10 6c3-6-15-38-22-38zm661 0 5 11 5 10q6 14 9 3c0-6-13-25-18-25zm-591 20c-7 6-13 20-9 21q4 3 11-11 10-20-2-10m-84-1q-4 2 7 16 5 8 8 5c3-3-1-12-8-18q-5-6-7-3m473 4 1 6c2 5 6 17 7 25q4 15 8 9c4-10-12-48-16-40m192 2c-2 3 2 11 6 11q5 0 1-7-5-6-7-4m-151 1c-6 19-9 35-4 35q4 1 5-10l4-16v-9zm131 11c-3 2 1 7 5 7q5-2 1-6-3-3-6-1m-662 2c-3 2 3 11 8 12q4 1 5-3c0-5-10-12-13-9m116 1q-3 5-2 8 4 4 7-1c4-6 0-12-5-7m352 2 1 5 3 8c4 9 12 14 12 7 0-8-14-26-16-20m86 1-8 19q0 3 3 3c5 0 7-4 11-21l-1-3q-2-2-5 2m-276 8-1 10v12l2 16q5 3 6-4c2-5-1-35-3-37q-3-3-4 3m26 4c-7 7-11 29-6 33 4 4 8-6 8-19l1-9q2-11-3-5m-53 1 1 4 2 9c1 6 7 19 10 20 5 3 5-15-1-19l-2-5c-2-9-8-14-10-9m199 6c-2 4 5 12 9 12q6-2-1-11-5-3-8-1m122 5q-4 4 0 7c3 3 8-6 5-9q-2-3-5 2m-254 7-2 6-1 5c-2 0-1 6 0 6 4 2 10-9 9-16q-2-5-6-1m115 3c-1 1 2 7 4 8q6 5 7-3c0-4-10-8-11-5m-193 4q-3 2 2 8 4 4 6 2 4-2-1-7-4-5-7-3m-15 12q1 5 5 6 5-2 1-6-5-5-6 0m298 18v12q0 25 8 19c2-2 0-21-3-27q-3-7-5-4m27 3-2 7q0 4-3 7c-4 6-4 17 1 15 3-1 7-13 9-27q0-8-5-2m-431 12 3 9q6 11 5 22-1 10 5 10c8-2-2-43-11-43zm556 4-2 6-1 8c-3 5 0 25 3 25 4 0 5-1 4-20 0-21 0-24-4-19m-108 2c-5 6-6 13-1 12 2-1 6-9 6-11q-2-5-5-1m-411 3-12 24q0 6 3 7 4 0 8-12l5-12c3-7 0-13-4-7m350 0q-2 2 3 7 4 5 6 2c4-4-4-12-9-9m196 5-2 4-1 4c-3 5-5 19-2 21q5 3 6-11l2-11q3-14-3-7m-66 1c-1 1 0 2 6 13l4 9c4 8 10 12 10 6 0-10-17-33-20-28m-271 6 1 8 1 18q-1 17 3 15c5 3 6-11 3-32q-5-19-8-9m-26 5c0 3 3 14 6 19l3 8q2 11 7 7c1-2-1-12-3-17l-5-9q-7-16-8-8M9 278l-4 6-4 6c-2 2-1 8 2 8q5 1 7-7c5-11 4-20-1-13m412 1c-3 2-14 27-14 31q2 4 6 1l11-27q2-8-3-5m-229 3q-4 5 1 6 5-1 6-8-1-3-7 2m-62-1c-2 5 7 15 11 12q3-3-3-9t-8-3m513 3c-3 4 8 19 12 17q5-1-4-11c-7-8-6-7-8-6m101 3-4 6q-2 6 1 9 3 1 6-6c4-11 2-18-3-9m-530-1c-2 3 0 8 3 6q4-1 3-6zm-193 8q-5 5-2 8c4 3 9-3 9-8q-1-6-7 0m90 3c-1 3 4 8 6 8q5-3 1-7-4-3-7-1m319 5q-5 6 0 8 4 0 5-8 0-6-5 0m195 2q0 8 8 8 3-2-1-7-5-3-7-1m-274 3c-2 4 4 9 7 6q2-1-1-4-4-5-6-2m-117 11c-4 4-8 27-7 34 2 11 9 3 9-11l2-14q2-15-4-9m-37 1 1 5q4 6 6 20 3 18 9 12c3-3-2-26-7-32q-8-11-9-5m313 12c-2 3-4 14-5 23v9h2q7-1 7-24 0-11-4-8m-37 1 3 13 4 15q1 5 5 6 4-1 4-7c0-9-13-33-16-27m-296 1c-2 3 8 23 13 24q9 0-2-17-9-10-11-7m77 5q-4 4-8 22c-1 4 4 6 7 3s8-24 6-26q-3-4-5 1m278 6c-6 6-9 18-5 20 4 3 9-7 9-18q0-7-4-2m-80 4c-1 4 4 15 8 17 5 2 5-8-1-15q-5-8-7-2m-288 7c-1 2 3 8 5 9 6 3 8-2 3-7q-5-5-8-2m543 2c-3 3-5 32-3 34 2 3 5-3 5-10l1-16q0-12-3-8m-439 5q-3 5 0 6c3 2 7-3 7-6q-2-6-7 0m163 0c0 5 8 13 11 11q3-2-1-7c-4-6-10-8-10-4M0 383c0 18 0 20 1 19 2-3 2-39 0-40zm669-19 2 4 5 7q8 17 11 18 9 0-5-19-13-18-13-10m-122 3q-5 7-2 9c3 3 11-8 8-11q-2-4-6 2m-401 1c-1 2 4 6 6 6 5-1 2-7-3-7zm269 8q2 5 6 6 4-1 2-6c-2-3-8-3-8 0m-393 2c-6 6-11 23-8 26q4 6 9-12 8-23-1-14m700 2q-6 8-4 11 4 3 7-6 4-12-3-5m-167 43-1 7-1 9c-3 7 2 20 6 15 3-5 1-33-2-33zm-35 5 1 5 2 4 7 16q6 9 7-2c0-9-14-28-17-23m62 2c-2 1-6 11-7 16q-2 6 1 7 5 7 8-8c2-9 1-18-2-15m182 2c-1 2 1 8 3 10q3 3 2-5-1-9-5-5m-719 3c-2 4-4 18-4 24q2 21 7 14c4-4 4-40 0-41zm212-1 2 8 5 12q2 10 6 9c4-2 4-10 0-16l-4-6c-3-7-9-12-9-7m31-1c-4 6-7 28-4 31q6 7 7-18 2-20-3-13M72 446l-4 9c-5 11-4 22 1 19 3-1 8-20 8-30q-1-6-5 2m-61 1c-1 2 7 25 9 29q6 5 8-3c0-10-15-32-17-26m587 3q-4 4 0 6 3 2 5-3 2-8-5-3m-93 0c-4 3 3 12 7 11 3-1 2-7-1-9q-4-4-6-2m-413 9c-8 10-11 20-7 22q5 1 6-2l3-7c4-7 5-18 3-18zm210-2q-5 6-1 8 3 4 6-3 4-12-5-5m-58 1c-3 2 2 9 6 9q6-2-2-8-4-3-4-1M0 476q0 9 6 7 5-1-1-9-5-8-5 2m107 2q-3 6-1 10c3 2 9-6 7-10q-1-4-6 0m19 10a3 3 0 1 0 4 5c3-4 0-9-4-5m568 4 1 5q2 4 1 9v6h7l-1-6c-1-10-6-19-8-14m-287 1c-1 2-3 16-2 18l3 1q3 1 3-8v-11q-1-4-4 0m-41 1q-2 2 4 8l3 7q1 3 4 3h3l-2-5c-3-10-10-17-12-13m354 12q-6 8 0 6 3 1 3-3l2-5q0-5-5 2"
        mask="url(#16282281824-posters-1720553628663-vertical-mask)" itemprop="medium" fill-opacity="0.90"
        fill-rule="evenodd" stroke="none" fill="url(#16282281824-posters-1720553628663-vertical-medium)"></path>
      <!---->
      <path id="16282281824-posters-1720553628663-bold"
        d="M210 2c0 5 8 19 11 19l2-1c3-4-6-20-10-20q-4 0-3 2m23 1 2 9c5 13 11 4 7-10q1-2-5-2-5-1-4 3m26 1-2 6-1 5q3 6 7 0l2-5 1-6q1-5-3-4-4-1-4 4m276-1c3 5 9 5 7 0q0-4-5-3h-4zm-23 1q-4 2 3 8 4 6 6 0c0-4-6-10-9-8M283 8c-3 3-7 11-7 14 0 7 9-4 11-12q0-7-4-2m-103 6 7 12 1 5c0 7 9 12 13 6q3-3-4-10l-2-4c0-1-7-8-10-9zm485 34v25c2 3 5-3 5-9l-1-13q1-7-2-6-2 0-2 3m-37 1 2 5 9 13q2 4 6 5l1-5c0-4 0-5-8-12q-12-12-10-6m65 5c-7 10-10 24-6 24q6 0 10-23 0-6-4-1m-241 3-2 8-1 7c-1 1-2 22-1 24q2 2 5-1l1-14 1-18q3-13-3-6m-35 2 2 8 5 15q5 21 10 14 2-5-7-21l-1-4c0-5-8-15-9-12m191 6c0 3 11 15 13 15q5-1 0-8c-4-5-13-10-13-7M475 75l-3 5-3 7q-5 11-2 13 5 6 9-16 4-15-1-9m-250 3q-2 1 2 8l3 11 3 10c2 9 8 9 7 0q0-4-4-12l-4-10c0-4-6-9-7-7m36 6-2 5-1 4c-6 10-7 21-3 21q5 0 5-8l5-20q3-5-1-6zm139-2q-3 1 4 12 6 11 8 9c6 0 3-9-6-18q-5-6-6-3m-24 18c0 2 6 11 9 12q7 2 3-5c-4-6-12-11-12-7m-100 4q-9 9-3 11 4 0 8-10 4-12-5-1m211-2q-4 7 0 7t6-7q-1-6-6 0m-277 6 4 6c4 3 6-2 2-5q-5-3-6-1m540 10c-4 10-4 31 0 32 3 0 3-3 3-20q2-25-3-12m-391 3c0 2 5 6 6 6q4-2 0-6-5-5-6 0m-258 2-1 4c-7 17-9 33-4 33q3 1 5-11l5-24q-1-7-5-2m-46 2 3 6 8 16 4 9q1 4 4 5 11 3-7-28c-6-9-13-14-12-8m661 0 4 9 5 10q4 9 6 8c6 0-1-16-11-26q-4-3-4-1m-591 18c-6 5-13 18-10 21q3 4 11-11 9-17-1-10m-85 1c-1 2 4 12 6 13l1 1c0 2 5 6 6 6q3-3 1-8l-2-3c0-1-8-10-10-10zm473 3 3 8 3 10 1 5 2 7q1 11 5 11l2-1a44 44 0 0 0-5-25c0-5-9-18-11-15m192 5q2 6 6 8l1-3c0-7-7-11-7-5m-151 2-4 12c-3 9-3 18 0 18s4-2 6-18c3-18 3-16 1-16zm-531 9c-2 2 5 12 9 12q6-1-1-10-5-5-8-2m118 0q-5 6-3 10 2 2 5-2c5-5 3-12-2-8m350 2 5 14c0 3 6 10 8 10q4-1 1-8l-3-6q-5-9-9-10zm87 2-3 7-4 6q-2 8 1 9 4 0 7-11c3-9 3-16-1-11m-276 8-1 13v11q-1 14 4 15 3 0 3-16c-2-19-2-23-4-25q-3-3-2 2m25 5c-6 7-10 31-6 32q7 1 7-17l1-11q3-10-2-4m-52 1 1 4 2 9c1 6 7 18 9 19 5 1 4-10-1-19l-3-6c0-3-4-9-6-9zm199 5c-3 2 4 11 8 11q3 1 2-3c-1-5-8-11-10-8m122 5c-3 2-3 7 0 7s5-8 2-9zm-254 7q-6 16-3 17 4-1 5-5l1-3 1-9q-1-4-4 0m114 3q0 7 9 9c2 0 1-6-1-7q-6-4-8-2m-193 6q1 6 7 8 5-1-1-7-5-5-6-1m284 28c-1 1 1 27 1 29q2 4 6 1c2-3-1-24-5-28zm28 3-3 6-3 8-2 4-1 5q-2 6 3 6c2-1 6-12 6-16l2-8q3-9-2-5m-433 12 5 12q2 4 3 15 0 15 5 13c4-1 3-23-2-28l-1-3c0-3-6-11-8-11zm556 5-1 6-2 8c-3 7 0 23 4 23 2 0 2-1 2-19q1-27-3-18m-108 1-4 10h5c4-5 3-14-1-10m-411 4-4 8-5 9q-4 10 0 12 3 2 7-9l4-12c4-9 3-15-2-8m350 0c0 4 7 10 9 7q1-3-2-7-6-2-7 0m196 5c-7 18-8 34-1 26q2-3 2-12l3-14q-1-6-4 0m-66 1 3 5 6 12c5 10 6 11 8 12 4 0 0-13-5-20l-5-5q-6-7-7-4m-270 4v6l1 19q0 22 5 16c4-2 0-43-4-43zm-27 6 6 18 3 8q1 7 4 8 8-1-8-31-4-5-5-3m-352 2-4 7-5 6c-2 1-1 6 1 7q4 1 7-5c5-10 6-21 1-15m184 3q-6 6 0 6 3 1 4-5 0-6-4-1m224 3-8 19q-4 6-1 8 3 1 5-5l8-17 1-6q1-8-5 1m-288-2q1 6 6 9c6 4 7-1 2-7q-7-5-8-2m513 4 3 6 2 5q2 3 6 4 6-1-4-11-8-9-7-4m101 1c-5 10-5 11-5 13 2 3 7 1 7-3l2-4v-9zm-722 7q-5 4-2 8 4 1 7-5 2-8-5-3m90 4q0 4 5 6 5-2 1-6-5-4-6 0m318 4q-4 6 0 7 3 0 5-6 0-6-5-1m-196 17c-5 6-9 36-4 37 4 0 4-2 5-14l2-15q3-14-3-8m-36 1 1 4 3 7 1 5 1 6c2 14 7 20 9 10 1-3-4-21-8-27q-6-10-7-5m312 12-1 4c-6 14-4 35 2 24 2-4 3-28 1-29q-1-1-2 1m-36 2 6 21 1 5q2 7 6 4 4-7-5-23-8-13-8-7m-296 0c-2 3 9 22 12 22q6-3-1-13-9-13-11-9m76 6q-3 3-4 7l-2 7q-2 12 4 9c2-1 5-9 5-15l2-7v-4q-2-3-5 3m279 4c-5 6-9 18-6 19 4 3 8-6 8-16q0-7-2-3m-79 3c-3 3 3 17 7 17 3 0 3-7-2-13q-4-7-5-4m-289 8c-3 2 3 9 7 9q5-1-1-7-5-5-6-2m541 6c-2 7-3 26-2 29l1 2 2-2 2-10v-16q1-13-3-3m-437 0q-3 4-1 7c1 2 6-3 6-6q0-6-5-1m163 0q-1 3 5 10 4 4 5 0c1-4-7-13-10-10M0 382c0 19 0 20 2 18v-37c-2-1-2 1-2 19m670-18 2 4 11 20c3 5 8 6 6 1 0-3-4-10-6-12l-4-4q-8-14-9-9m-121 1c-2 1-5 9-4 10 2 3 7-2 7-8q1-3-3-2M23 377c-5 4-12 26-9 27q4 2 9-12 6-19 0-15m699 3q-5 7-3 11 4 1 5-4l1-2v-7zm-166 44q-6 30 1 30c3 0 5-24 2-29q-3-6-3-1m-36 5 2 4 2 5 9 18c6 0 3-13-6-24q-6-6-7-3m60 6c-5 9-6 19-2 19q5 0 6-14 0-16-4-5m-535 0a67 67 0 0 0-1 33q1 12 6 0c3-12-1-43-5-33m212-2 2 5 5 14q4 13 7 9c4-4-7-28-13-28zm29 7-2 10-1 7q-1 4 1 6 4 7 7-14c1-17 1-16-1-16zm-213 5-4 8-2 6-1 4c-2 1-1 10 1 10l3 1 5-18 1-8q2-3-1-6zm-62 3 1 4 3 8q4 16 9 17c6 0 2-17-6-25q-7-7-7-4m494 3c-3 2 1 8 5 9 4 2 4-5 0-8q-3-3-5-1m-413 8-6 11q-4 9 1 11c2 0 7-9 9-18q4-14-4-4m211-1q-5 5-1 8 3 1 5-7 0-7-4-1m-59 1q-1 3 3 7 8 2 3-5-4-4-6-2M0 476q1 7 4 7 6-1-1-10-3-4-3 3m107 4c-4 5-2 10 3 6q2-1 2-5 0-7-5-1m300 14-1 6q-2 11 1 12c3 0 3 0 3-9l1-11q-3-3-4 2m289 1v17h4q4 1 3-2l-2-6q-2-12-5-13-3 0 0 4m-330 0 3 6 5 8q4 7 4-1l-8-13z"
        mask="url(#16282281824-posters-1720553628663-horizontal-mask)" itemprop="bold" fill-opacity="0.90"
        fill-rule="evenodd" stroke="none" fill="url(#16282281824-posters-1720553628663-vertical-bold)"></path>
    </pattern>
    <rect id="16282281824-posters-1720553628663-pattern-render" fill="url(#16282281824-posters-1720553628663-pattern)"
      width="100%" height="100%"></rect>
  </defs>
  <radialGradient id="lightbar" cx="50%" cy="200%" fy="0" r="201%">
    <stop offset="0%" style="stop-color: rgb(255, 255, 255); stop-opacity: 0.1;"></stop>
    <stop offset="10%" style="stop-color: rgb(0, 0, 0); stop-opacity: 0.1;"></stop>
    <stop offset="30%" style="stop-color: rgb(0, 0, 0); stop-opacity: 0.3;"></stop>
    <stop offset="90%" style="stop-color: rgb(0, 0, 0); stop-opacity: 0.55;"></stop>
    <stop offset="100%" style="stop-color: rgb(0, 0, 0); stop-opacity: 0.6;"></stop>
  </radialGradient>
  <g class="radial">
    <radialGradient id="16282281824-posters-1720553628663-radial" gradientUnits="userSpaceOnUse">
      <stop itemprop="radial" stop-color="#e6e6e5" offset="0%"></stop>
      <stop itemprop="radial" stop-color="#ebebea" offset="15%"></stop>
      <stop itemprop="radial" stop-color="#e9e8e7" offset="30%"></stop>
      <stop itemprop="radial" stop-color="#e1e1df" offset="45%"></stop>
      <stop itemprop="radial" stop-color="#f0f0ef" offset="60%"></stop>
      <stop itemprop="radial" stop-color="#e9e8e7" offset="75%"></stop>
      <stop itemprop="radial" stop-color="#e6e6e5" offset="90%"></stop>
    </radialGradient>
    <radialGradient id="16282281824-posters-1720553628663-radial-background" gradientUnits="userSpaceOnUse">
      <stop stop-color="#d3cec5" offset="0%"></stop>
      <stop stop-color="#d3cec5" offset="15%"></stop>
      <stop stop-color="#d3cdc5" offset="30%"></stop>
      <stop stop-color="#d3cec5" offset="45%"></stop>
      <stop stop-color="#d3cec5" offset="60%"></stop>
      <stop stop-color="#d3cec5" offset="75%"></stop>
      <stop stop-color="#d3cdc5" offset="90%"></stop>
    </radialGradient>
    <radialGradient id="16282281824-posters-1720553628663-radial-light" gradientUnits="userSpaceOnUse">
      <stop stop-color="#9c9a96" offset="0%"></stop>
      <stop stop-color="#9c9a96" offset="15%"></stop>
      <stop stop-color="#9c9a96" offset="30%"></stop>
      <stop stop-color="#9c9a96" offset="45%"></stop>
      <stop stop-color="#9c9a96" offset="60%"></stop>
      <stop stop-color="#9c9a96" offset="75%"></stop>
      <stop stop-color="#9c9a96" offset="90%"></stop>
    </radialGradient>
    <radialGradient id="16282281824-posters-1720553628663-radial-regular" gradientUnits="userSpaceOnUse">
      <stop stop-color="#83817c" offset="0%"></stop>
      <stop stop-color="#83807c" offset="15%"></stop>
      <stop stop-color="#83807c" offset="30%"></stop>
      <stop stop-color="#83817c" offset="45%"></stop>
      <stop stop-color="#83807c" offset="60%"></stop>
      <stop stop-color="#83817c" offset="75%"></stop>
      <stop stop-color="#83807c" offset="90%"></stop>
    </radialGradient>
    <radialGradient id="16282281824-posters-1720553628663-radial-medium" gradientUnits="userSpaceOnUse">
      <stop stop-color="#51504d" offset="0%"></stop>
      <stop stop-color="#51504d" offset="15%"></stop>
      <stop stop-color="#514f4d" offset="30%"></stop>
      <stop stop-color="#51504d" offset="45%"></stop>
      <stop stop-color="#51504d" offset="60%"></stop>
      <stop stop-color="#51504d" offset="75%"></stop>
      <stop stop-color="#514f4d" offset="90%"></stop>
    </radialGradient>
    <radialGradient id="16282281824-posters-1720553628663-radial-bold" gradientUnits="userSpaceOnUse">
      <stop stop-color="#2f2e2d" offset="0%"></stop>
      <stop stop-color="#2f2e2d" offset="15%"></stop>
      <stop stop-color="#2f2e2d" offset="30%"></stop>
      <stop stop-color="#2f2e2d" offset="45%"></stop>
      <stop stop-color="#2f2e2d" offset="60%"></stop>
      <stop stop-color="#2f2e2d" offset="75%"></stop>
      <stop stop-color="#2f2e2d" offset="90%"></stop>
    </radialGradient>
  </g>
  <g class="vertical">
    <linearGradient id="16282281824-posters-1720553628663-vertical" gradientUnits="userSpaceOnUse" x1="0" x2="0" y1="0"
      y2="100%">
      <stop itemprop="vertical" stop-color="#e6e6e5" offset="0%"></stop>
      <stop itemprop="vertical" stop-color="#ebebea" offset="15%"></stop>
      <stop itemprop="vertical" stop-color="#e9e8e8" offset="30%"></stop>
      <stop itemprop="vertical" stop-color="#e1e1df" offset="45%"></stop>
      <stop itemprop="vertical" stop-color="#f0f0ef" offset="60%"></stop>
      <stop itemprop="vertical" stop-color="#e9e8e7" offset="75%"></stop>
      <stop itemprop="vertical" stop-color="#e6e6e5" offset="90%"></stop>
    </linearGradient>
    <linearGradient id="16282281824-posters-1720553628663-vertical-background" gradientUnits="userSpaceOnUse" x1="0"
      x2="0" y1="0" y2="100%">
      <stop stop-color="#cecdca" offset="0%"></stop>
      <stop stop-color="#cecdca" offset="15%"></stop>
      <stop stop-color="#cdcccb" offset="30%"></stop>
      <stop stop-color="#ceccca" offset="45%"></stop>
      <stop stop-color="#ceccca" offset="60%"></stop>
      <stop stop-color="#cecdca" offset="75%"></stop>
      <stop stop-color="#ceccca" offset="90%"></stop>
    </linearGradient>
    <linearGradient id="16282281824-posters-1720553628663-vertical-light" gradientUnits="userSpaceOnUse" x1="0" x2="0"
      y1="0" y2="100%">
      <stop stop-color="#aea084" offset="0%"></stop>
      <stop stop-color="#aea084" offset="15%"></stop>
      <stop stop-color="#ae9f84" offset="30%"></stop>
      <stop stop-color="#ae9d84" offset="45%"></stop>
      <stop stop-color="#ae9e84" offset="60%"></stop>
      <stop stop-color="#aea084" offset="75%"></stop>
      <stop stop-color="#ae9d84" offset="90%"></stop>
    </linearGradient>
    <linearGradient id="16282281824-posters-1720553628663-vertical-regular" gradientUnits="userSpaceOnUse" x1="0" x2="0"
      y1="0" y2="100%">
      <stop stop-color="#83817c" offset="0%"></stop>
      <stop stop-color="#83817c" offset="15%"></stop>
      <stop stop-color="#82807d" offset="30%"></stop>
      <stop stop-color="#83807c" offset="45%"></stop>
      <stop stop-color="#83807c" offset="60%"></stop>
      <stop stop-color="#83817c" offset="75%"></stop>
      <stop stop-color="#83807c" offset="90%"></stop>
    </linearGradient>
    <linearGradient id="16282281824-posters-1720553628663-vertical-medium" gradientUnits="userSpaceOnUse" x1="0" x2="0"
      y1="0" y2="100%">
      <stop stop-color="#51504d" offset="0%"></stop>
      <stop stop-color="#51504d" offset="15%"></stop>
      <stop stop-color="#514f4d" offset="30%"></stop>
      <stop stop-color="#514f4d" offset="45%"></stop>
      <stop stop-color="#51504d" offset="60%"></stop>
      <stop stop-color="#51504d" offset="75%"></stop>
      <stop stop-color="#514f4d" offset="90%"></stop>
    </linearGradient>
    <linearGradient id="16282281824-posters-1720553628663-vertical-bold" x1="0" x2="0" y1="0" y2="100%">
      <stop stop-color="#2f2e2d" offset="0%"></stop>
      <stop stop-color="#2f2e2d" offset="15%"></stop>
      <stop stop-color="#2f2e2d" offset="30%"></stop>
      <stop stop-color="#2f2e2d" offset="45%"></stop>
      <stop stop-color="#2f2e2d" offset="60%"></stop>
      <stop stop-color="#2f2e2d" offset="75%"></stop>
      <stop stop-color="#2f2e2d" offset="90%"></stop>
    </linearGradient>
  </g>
  <g class="horizontal">
    <linearGradient id="16282281824-posters-1720553628663-horizontal" x1="0" x2="100%" y1="0" y2="0"
      gradientUnits="userSpaceOnUse">
      <stop itemprop="horizontal" stop-color="#e9e8e7" offset="0%"></stop>
      <stop itemprop="horizontal" stop-color="#e9e8e7" offset="15%"></stop>
      <stop itemprop="horizontal" stop-color="#e6e6e5" offset="30%"></stop>
      <stop itemprop="horizontal" stop-color="#ebebea" offset="45%"></stop>
      <stop itemprop="horizontal" stop-color="#e6e6e5" offset="60%"></stop>
      <stop itemprop="horizontal" stop-color="#eeeded" offset="75%"></stop>
      <stop itemprop="horizontal" stop-color="#e9e8e7" offset="90%"></stop>
    </linearGradient>
    <linearGradient id="16282281824-posters-1720553628663-horizontal-background" gradientUnits="userSpaceOnUse" x1="0"
      x2="100%" y1="0" y2="0">
      <stop stop-color="#ceccca" offset="0%"></stop>
      <stop stop-color="#cecdca" offset="15%"></stop>
      <stop stop-color="#ceccca" offset="30%"></stop>
      <stop stop-color="#cecdca" offset="45%"></stop>
      <stop stop-color="#cecdca" offset="60%"></stop>
      <stop stop-color="#cecdca" offset="75%"></stop>
      <stop stop-color="#cecdca" offset="90%"></stop>
    </linearGradient>
    <linearGradient id="16282281824-posters-1720553628663-horizontal-light" gradientUnits="userSpaceOnUse" x1="0"
      x2="100%" y1="0" y2="0">
      <stop stop-color="#9c9a96" offset="0%"></stop>
      <stop stop-color="#9c9a96" offset="15%"></stop>
      <stop stop-color="#9c9a96" offset="30%"></stop>
      <stop stop-color="#9c9a96" offset="45%"></stop>
      <stop stop-color="#9c9a96" offset="60%"></stop>
      <stop stop-color="#9c9a96" offset="75%"></stop>
      <stop stop-color="#9c9a96" offset="90%"></stop>
    </linearGradient>
    <linearGradient id="16282281824-posters-1720553628663-horizontal-regular" gradientUnits="userSpaceOnUse" x1="0"
      x2="100%" y1="0" y2="0">
      <stop stop-color="#968369" offset="0%"></stop>
      <stop stop-color="#968769" offset="15%"></stop>
      <stop stop-color="#968369" offset="30%"></stop>
      <stop stop-color="#968769" offset="45%"></stop>
      <stop stop-color="#968769" offset="60%"></stop>
      <stop stop-color="#968769" offset="75%"></stop>
      <stop stop-color="#968769" offset="90%"></stop>
    </linearGradient>
    <linearGradient id="16282281824-posters-1720553628663-horizontal-medium" gradientUnits="userSpaceOnUse" x1="0"
      x2="100%" y1="0" y2="0">
      <stop stop-color="#5d5141" offset="0%"></stop>
      <stop stop-color="#5d5441" offset="15%"></stop>
      <stop stop-color="#5d5141" offset="30%"></stop>
      <stop stop-color="#5d5441" offset="45%"></stop>
      <stop stop-color="#5d5441" offset="60%"></stop>
      <stop stop-color="#5d5441" offset="75%"></stop>
      <stop stop-color="#5d5441" offset="90%"></stop>
    </linearGradient>
    <linearGradient id="16282281824-posters-1720553628663-horizontal-bold" gradientUnits="userSpaceOnUse" x1="0"
      x2="100%" y1="0" y2="0">
      <stop stop-color="#2f2e2d" offset="0%"></stop>
      <stop stop-color="#2f2e2d" offset="15%"></stop>
      <stop stop-color="#2f2e2d" offset="30%"></stop>
      <stop stop-color="#2f2e2d" offset="45%"></stop>
      <stop stop-color="#2f2e2d" offset="60%"></stop>
      <stop stop-color="#2f2e2d" offset="75%"></stop>
      <stop stop-color="#2f2e2d" offset="90%"></stop>
    </linearGradient>
  </g>
  <g class="masks">
    <mask id="16282281824-posters-1720553628663-pattern-mask" maskUnits="userSpaceOnUse"
      maskContentUnits="userSpaceOnUse">
      <pattern id="pattern" x="0" y="0" width=".0133" height=".0144" viewBox="0 0 23.07 40">
        <path
          d="M17.62 0l-6.07 10.5m2.74 4.76L8.22 4.75m-5.48 0h12.13M.01 0h23.07M6.07 20L0 9.5m2.74-4.75l-6.07 10.5m-5.48 0H3.33m8.2 4.75L0 .02-11.54 20m40.68 0L23.07 9.5m2.74-4.75l-6.06 10.5m-5.49 0H26.4M34.6 20L23.08.02 11.53 20m-5.46 0L0 30.51m2.74 4.75l-6.07-10.5m-5.48 0H3.33m8.2-4.75L0 40l-11.54-19.98zM17.6 40l-6.06-10.5m2.74-4.76L8.2 35.25m-5.48 0h12.13M0 40h23.07L11.54 20.01m17.6 0l-6.07 10.5m2.74 4.75l-6.06-10.5m-5.49 0H26.4M11.53 20h23.08L23.07 40"
          stroke-linecap="round" stroke-width="3.5" stroke="white"
          fill="url(#16282281824-posters-1720553628663-horizontal-background)"></path>
      </pattern>
      <rect width="100%" height="100%" fill="url(#pattern)"></rect>
    </mask>
    <mask id="16282281824-posters-1720553628663-horizontal-mask" maskUnits="userSpaceOnUse"
      maskContentUnits="userSpaceOnUse">
      <rect width="100%" height="100%" fill="url(#16282281824-posters-1720553628663-horizontal-background)"></rect>
    </mask>
    <mask id="16282281824-posters-1720553628663-radial-mask" maskUnits="userSpaceOnUse"
      maskContentUnits="userSpaceOnUse">
      <rect width="100%" height="100%" fill="url(#16282281824-posters-1720553628663-radial-background)"></rect>
    </mask>
    <mask id="16282281824-posters-1720553628663-vertical-mask" maskUnits="userSpaceOnUse"
      maskContentUnits="userSpaceOnUse">
      <rect width="100%" height="100%" fill="url(#16282281824-posters-1720553628663-vertical-background)"></rect>
    </mask>
  </g>
  <use href="#16282281824-posters-1720553628663-pattern-render"></use>
  <g>
    <use href="#16282281824-posters-1720553628663-background"></use>
    <use href="#16282281824-posters-1720553628663-light"></use>
    <use href="#16282281824-posters-1720553628663-regular"></use>
    <use href="#16282281824-posters-1720553628663-medium"></use>
    <use href="#16282281824-posters-1720553628663-bold"></use>
  </g>
  <g itemprop="animation">
    <animate href="#16282281824-posters-1720553628663-light" attributeName="stroke-opacity" repeatCount="indefinite"
      dur="5s" values="0.9;0.0;0.9"></animate>
    <animate href="#16282281824-posters-1720553628663-regular" attributeName="stroke-opacity" repeatCount="indefinite"
      dur="4s" values="0.9;0;0.9"></animate>
    <animate href="#16282281824-posters-1720553628663-medium" attributeName="stroke-opacity" repeatCount="indefinite"
      dur="5s" values="0.9;0;0.9"></animate>
    <animate href="#16282281824-posters-1720553628663-bold" attributeName="stroke-opacity" repeatCount="indefinite"
      dur="3s" values="0.9;0;0.9"></animate>
    <animate href="#16282281824-posters-1720553628663-regular" attributeName="fill-opacity" repeatCount="indefinite"
      dur="8s" values="0.9;0.75;0.95;0.8;0.9;"></animate>
    <animate href="#16282281824-posters-1720553628663-radial-background" attributeName="cx" repeatCount="indefinite"
      dur="34s" values="0%;33%;100%;0%;100%;0%;"></animate>
    <animate href="#16282281824-posters-1720553628663-radial-background" attributeName="cy" repeatCount="indefinite"
      dur="55s" values="0%;100%;33%;100%;66%;0%"></animate>
    <animate href="#16282281824-posters-1720553628663-vertical-light" attributeName="x1" repeatCount="indefinite"
      dur="55s" values="0%;33%;100%;0%;133%;0%;"></animate>
    <animate href="#16282281824-posters-1720553628663-vertical-light" attributeName="y1" repeatCount="indefinite"
      dur="86s" values="0%;100%;33%;100%;66%;0%"></animate>
    <animate href="#16282281824-posters-1720553628663-horizontal-regular" attributeName="x1" repeatCount="indefinite"
      dur="34s" values="0%;100%;66%;0%;33%;133%;0%"></animate>
    <animate href="#16282281824-posters-1720553628663-horizontal-regular" attributeName="y1" repeatCount="indefinite"
      dur="55s" values="0%;66%;100%;33%;100%;66%;0%"></animate>
    <animate href="#16282281824-posters-1720553628663-vertical-medium" attributeName="x1" repeatCount="indefinite"
      dur="34s" values="0%;100%;66%;0%;33%;133%;0%"></animate>
    <animate href="#16282281824-posters-1720553628663-vertical-medium" attributeName="y1" repeatCount="indefinite"
      dur="55s" values="0%;66%;100%;33%;100%;66%;0%"></animate>
    <animate href="#16282281824-posters-1720553628663-vertical-bold" attributeName="x1" repeatCount="indefinite"
      dur="34s" values="0%;100%;66%;0%;33%;133%;0%"></animate>
    <animate href="#16282281824-posters-1720553628663-vertical-bold" attributeName="y1" repeatCount="indefinite"
      dur="55s" values="0%;66%;100%;33%;100%;66%;0%"></animate>
  </g>
</svg>
