<svg id="16282281824-posters-1720553729312" itemscope="" itemtype="/posters"
  itemid="/+16282281824/posters/1720553729312" viewBox="0 0 769 512" preserveAspectRatio="xMidYMid meet" tabindex="0"
  class="animate landscape" xmlns="http://www.w3.org/2000/svg">
  <!---->
  <defs class="graphic">
    <pattern id="16282281824-posters-1720553729312-pattern" width="769" height="512" viewBox="0 0 769 512"
      patternUnits="userSpaceOnUse" preserveAspectRatio="xMidYMid meet">
      <rect itemprop="background" width="769" height="512" tabindex="-1"
        id="16282281824-posters-1720553729312-background" fill-opacity="1"
        fill="url(#16282281824-posters-1720553729312-radial-background)"></rect>
      <!---->
      <path id="16282281824-posters-1720553729312-light"
        d="M505 1c-46 1-48 1-48 4 0 2 1 2 48 2 51-1 53-1 50-5-1-2 4-2-50-1m79 1 1 3h38c41 0 42 0 42-3 0-2-1-2-41-2h-40zm124-1c0 3 1 3 31 3 28 0 30-1 30-2 0-2-2-2-30-2zM311 4c-2 0-3 5 0 5h79c21-1 25-1 22-5zm-44 0-34 1-36 2c-3 4 0 4 25 4l35-1c23 0 22 0 22-2q0-3-2-3zM85 7c-19 1-23 1-20 5 2 2 78 1 80-1 5-5-8-5-60-4M15 8H0v7l18-1 20-1q5-4-5-6zm687 6q-8 1-6 4l37 1h36v-6h-31zm-85 1c-13 0-14 0-14 2q2 4 8 3h20q24 1 23-2 1-4-13-4zm-138 2c-14 1-16 1-15 4 1 2 101 2 104-1s1-3-37-3zm-51 1c-12 3 4 7 18 4 2 0 3-4 0-4zm-69 0-21 1c-24 0-26 1-26 3 0 3 0 3 44 2 44 0 46 0 44-4-1-2-2-2-21-2zm-157 3q-12 0-13 2c-3 4 2 5 73 2 20 0 23-1 21-4zm-85 2-7 1H54l-2 2c0 2 5 4 7 3l25-1 24-1h39c2 0 1-4-1-4zM0 27v3h7q9 0 10-3T7 24H0zm697 4q-6 0-5 3c0 1 0 2 38 2h39v-6h-33zm-78 1-1 2q-1 3 6 2 25 1 19-3c-1-2-20-3-24-1m-133 1q-14 1-13 3c0 3 5 3 38 2h52c16 0 19 0 20-2 4-4 2-4-28-4l-54 1zm-73 2-1 2c0 2 1 2 19 2 19 0 20-1 20-2 0-2-1-3-18-3zm-79 1h-8q-12 1-8 4l36 1c36 0 39-1 38-4-1-2-57-3-58-1m-150 2q-9 2 1 5h29l31-1c36 0 44-1 44-3 0-1-88-2-105-1m-79 1H77c-29 1-33 1-30 5l52 1c53-1 54-1 52-5 0-2-45-3-46-1m625 7c-22 0-26 1-26 3l7 3 28-1c30 0 30 0 30-3q1-2-6-2zm-100 1q-6 3 0 5c6 2 11-2 6-5zm29 0c-5 4 7 7 22 5q7 0 4-4c-1-2-23-2-26-1m-142 2c-35 0-38 0-33 4 2 2 111 1 113-1l1-2c-1-2-4-2-24-2zm-74 0-19 1c-20 0-23 1-21 4 0 2 46 3 51 1q4-3 1-4zm-71 2h-25c-26 0-28 0-28 3s4 3 34 2c25 0 29 0 29-2v-2c-1-1-9-2-10-1m-179 2c-19 1-21 1-19 5l52 1 60-1q14 0 11-5zM85 55c-18 0-21 1-19 4 1 2 2 2 35 1h40q15 0 15-3c0-3 0-3-71-2m-54 1c-8 3 4 8 14 5q3-1 2-5zm702 6q-15 1-12 3c1 2 4 2 24 2h24v-2c0-3 0-3-9-3zm-84 3c-3 3 0 3 24 3 23 0 27-1 25-4-2-2-47-1-49 1m-95 0-51 1c-13 0-14 0-14 2 0 3 2 3 50 2 50 0 49 0 49-3 0-2-1-3-17-3zm-151 2q-5 1-5 4 4 2 21 1h28c18-1 20-1 18-5zm-78 1c-6 4 4 7 15 5h21c16 0 17-1 18-2l-1-3zm-102 1-43 1v2c0 4 3 4 29 3l81-1q12 0 13-2c4-4-3-4-80-3m-118 2c-24 1-22 0-22 3s3 3 41 2c36 0 39 0 36-4-2-2-10-2-55-1m-69 1c-12 0-14 1-15 2q-4 4 8 4c15 1 30 0 31-2 3-4-2-5-24-4m609 6q-3 3 3 5h19c21 0 24-1 24-3s-1-2-22-2zm50 0q-5 4 4 4 16 1 12-3c-1-2-13-3-16-1m50 0q-5 4 13 4h11v-5h-11zm-206 2-30 1c-11 0-12 0-12 2s-3 2 42 2c21 0 26 0 27-2 4-3-2-4-27-3m70 0v2c0 3 9 3 10 0 1-2-6-4-10-2m-211 2c-13 4 13 6 52 4l14 1q14 1 12-5c-1-1-71-2-78 0m-60 1c-13 0-14 1-14 3v2h24c24 0 25 0 26-2v-2c-1-1-23-2-36-1m-86 1h-32l-33 1q-4 3 2 5c5 1 109-1 117-2 2 0 1-4-2-4zm-126 2-26 1q-2 3 4 4c7 1 57 0 59-1 4-2-2-5-9-5zm-91 1q-12 0-11 2l1 3c3 2 45 1 48 0q7-8-38-5m575 8q-8-1-7 2-1 3 11 3 11 0 13-3-1-2-8-3zm152 0q-5 2 3 4 5 0 4-2 0-5-7-2m-111 1c-4 4 0 5 35 4 36 0 39 0 39-3s-70-3-74-1m-134 1q-13 0-12 2-1 4 24 2c17 0 18-1 18-2 0-3-5-3-30-2m-112 1q-13 0-13 2l1 2c2 1 90 0 91-1 5-4-13-5-79-3m-76 1q-3 1-4 4l21 1c20 0 24-1 22-4 0-2-32-3-39-1m-89 1-48 1 1 5h24l47-1 43-1c2 0 3-4 1-4zm-122 2q-3 2-1 5l55-1 1-2c0-2-1-3-27-3zm-84 1c-9 0-9 1-9 3s13 3 28 3l19-1q16 0 13-4c-1-1-33-2-51-1m626 8q-6 1-5 3c1 2 8 3 48 2 34-1 38-1 34-5zm-68 3c-1 3 2 3 21 3s20-1 20-2c0-3-40-4-41-1m-159 0-34 1q-10 0-10 2c-1 4 0 4 34 3l37-1c21 0 24 0 25-2 1-4-6-4-52-3m-100 2q-4 4 1 5c22 1 36-1 33-5-2-1-31-2-34 0m-77 1h-27c-29 0-31 0-31 3q1 2 7 3l51-1 51-1q3-3-1-4zm-167 1-33 1c-31 1-36 1-36 4q1 5 15 3l35-1c28 0 30 0 26-5-1-2-6-3-7-2m43 1q-2 3 1 4c1 2 4 2 21 1 20 0 22-1 22-4 0-2-42-3-44-1m551 8c-24 1-22 0-22 2 0 4 3 4 42 4 46-1 49-1 46-6zm-55 1-34 1q-12 0-10 2-2 3 10 2h22c25 0 24 0 24-2l-1-2zm-108 2q-4 3 2 5h16q21 0 16-5zm-116 1c-20 1-18 1-18 3q0 5 19 3l38-1q15 0 10-4c-1-2-24-2-49-1m-108 2-45 1c-37 0-45 0-46 2-3 3 0 4 25 3h52c27 0 31-1 31-3q0-3-8-3zm43 0c-2 0-1 4 1 4l13 1q17 0 14-4c0-2-24-3-28-1m-187 2q-4 2-2 5c2 2 33 2 34-1 2-4 0-4-15-5zm-102 1-16 1q-24 0-18 4c2 1 83 2 86 0q5-3 0-5zm644 7c-19 0-22 0-23 2-1 3 1 4 46 3 47 0 47 0 47-3l-2-2zm-114 3c-3 4-1 4 34 4 34 0 38-1 35-4-2-3-67-3-69 0m-73 0c-22 1-24 1-23 3s3 2 37 2c19 0 25-1 26-2 4-3-3-4-40-3m-122 3q-7 4 14 4 20 0 15-4c-1-2-26-3-29 0m-40 0q-4 4 8 5 11 0 11-3c0-3-15-4-19-2m-128 1q-3 1-1 4c3 2 96 1 98-1q3-2 1-3zm-84 1q-10 1-9 3c0 3 19 4 23 2q4-6-14-5m42 1q-3 4 9 4 11 0 8-4-1-2-8-2-8 0-9 2m-96 0H46c-32 0-37 1-37 4 0 2 5 3 45 2 47 0 47 0 47-4l-2-2zm609 7q-13 1-10 4c1 2 50 2 80 1h11v-6h-36zm-113 2c-5 4-2 4 39 4 39 0 43 0 43-4 0-2-80-2-82 0m-105 1c-20 1-24 1-20 5l36 1 43-1q9 1 8-2c2-4-3-5-67-3m-97 2q-2 2 1 5l10-2c1-3-6-5-11-3m-104 1-20 1c-25 0-23 0-23 2 0 3 0 3 47 2 43 0 46 0 42-4-1-1-45-2-46-1m-138 2h-14q-8 1-6 4c2 2 48 3 52 1q5-2 2-5zm58 0q-1 4 5 4t5-4c0-2-9-1-10 0m-154 1-21 1q-11 0-7 4c3 2 77 1 79-1 4-5-8-6-51-4m661 6q-15 0-11 4c1 1 8 2 38 1 39 0 41 0 41-3s-4-3-43-2zm-129 2c-4 4-1 5 17 5 86-1 81-1 81-4 0-2-1-2-48-2zm-48 0-57 1c-60 1-61 1-56 5 2 2 4 2 28 2l60-1c35-1 37-1 37-4 0-2-10-4-12-3m-205 3-48 1c-53 0-59 0-59 3s-1 3 58 2c59 0 59 0 59-3 0-2-8-5-10-3m-250 3-31 1c-27 0-30 0-30 4l4 1 66-1q4-2 0-5zm36 0-4 3c0 3 4 3 29 3l36-1q16 0 14-4c-1-2-69-3-75-1m224 3q-3 6 2 8 3 0 3-7-2-3-5-1m367 6-1 3c1 2 4 2 30 2 32 0 34 0 34-3 0-2-1-3-31-3zm-86 1c-40 0-47 1-47 3 0 3 4 3 46 2h55q16 0 15-3c0-3-2-3-15-3zm-108 2h-31c-36 0-47 1-48 3-1 3 3 3 50 3 56 0 60 0 60-4v-2zm-132 2q-6 5 7 5c27 0 31 0 30-4-1-3-35-3-37-1m-129 1c-34 0-37 1-38 2l-1 3c2 1 124 0 126-2 4-4-3-4-87-3m-123 1c-28 1-30 1-30 4 0 2-5 2 51 2l36-1q5-3 2-5zm-67 0-18 1c-18 1-21 1-20 4 1 2 4 2 28 2 29-1 32-1 29-5-1-1-18-3-19-2m617 10-55 1c-58 0-59 0-59 3s4 3 20 3l59-1 48-1q5 0 4-4c-1-1-15-2-17-1m36 0q-8 6 31 5 15 1 11-5zm-194 2h-36c-36 0-40 0-40 3s1 3 41 3h42c8 0 15-3 11-6zm-156 2q-14-1-14 2c-2 2 0 3 23 3q49 1 50-2c1-4-3-4-59-3m-78 1h-40c-40 1-44 1-41 5 1 1 116 1 125-1q3-1-1-4zm-119 0-38 1c-39 1-40 1-40 4s5 3 26 3l37-1c20 0 25-1 25-3l-2-2-5-1zm-125 2c-17 0-18 0-18 3 0 2 1 3 19 3 21 1 25 0 26-2 3-4-1-5-27-4m675 7q-4 3 0 5c5 2 14 1 14-2l-1-2c-3-1-11-2-13-1m61 1q-3 3 3 4 4 2 3-2-1-7-6-2m-185 1c-36 1-38 1-38 4s2 3 48 2l68-1c26-1 30-1 27-5zm-112 2c-25 0-28 0-26 4 0 1 9 3 13 2l43-1c21 0 25-1 23-4-1-1-15-2-53-1m-103 1c-25 0-29 1-29 4s87 3 88 0c3-5-1-5-59-4m-85 1-47 1c-52 0-50 0-50 3 0 4 2 4 38 3l58-1 37-1q4-2 0-5zm-262 3q-13 2-8 6c3 1 24 1 28-1 7-4-7-7-20-5m50 0q-4 4 1 5l85-1 2-2v-2l-43-1zm574 7h-51c-46 0-50 0-52 2q-3 2-1 4l27 1 107-2q17 0 15-3c0-2-1-2-23-2zm75 1q-7 5 11 6 15-1 10-6zm-261 3q-12 1-8 4c1 1 3 2 26 2 37 0 44-1 44-4v-2l-27-1zm-175 1-52 1c-53 1-55 1-55 4l1 3 66-1 68-1q4-3 1-4zm50 1q-2 2 1 5c3 1 74 1 88-1q9 0 8-2c0-2-1-3-49-3zm-208 1-37 1c-31 0-34 0-32 4 1 2 88 2 90 0 5-4-6-6-21-5m591 10c-11 0-12 0-12 2l1 3h45q3-3 1-5zm-149 1c-21 1-19 0-19 3s1 3 63 3c59-1 64-1 63-5-1-2-63-2-107-1m-99 2q-16 0-12 4c1 1 23 2 51 1q6-1 4-4c-2-2-9-2-43-1m-129 1q-10 1-9 3c0 3 1 3 41 3 59-1 62-1 63-3v-3zm-44 1h-59c-62 0-66 0-66 3 0 4 2 4 31 4l68-2c39 0 42 0 40-4-1-1-13-2-14-1m-242 2h-7q-23 0-22 3l1 3h50c59 0 62 0 62-4v-2l-42-1zm674 8-40 1q-4 3 3 5c5 1 79 0 81-1q5-4-4-6zm-132 2c-32 0-35 1-35 3 0 4 5 4 65 2 24 0 24 0 24-3q1-3-14-3zm-79 1q-5 2-2 5c2 1 20 1 22-1q4-3-3-4zm-54 1v5l31-1 1-2c0-2-1-3-15-3zm-107 1c-30 0-33 0-30 5l32 1 49-1q45 2 39-4c-1-2-4-2-31-2zm-89 0-49 1c-51 1-54 1-51 5l70 1c72-1 73-1 70-5-1-1-39-3-40-2m-206 3c-37 0-39 1-40 2q-2 2 1 4c3 2 94 1 96-2q5-5-10-5zm80 0q-4 3 1 5c6 2 11-2 6-5zm571 8c-47 1-49 1-46 5 1 2 22 2 75 1l24-1c9 0 9 0 9-2 0-4-3-4-62-3m-139 2q-8 2-4 5l24 1c24-1 27-1 24-5-1-2-34-3-44-1m-174 2h-37c-39 1-42 1-42 4s3 3 24 3l60-1 44-1q6-2 2-5zm99 0c-5 5 0 6 26 5s28-1 28-4c-1-2-52-3-54-1m-214 1-59 1c-59 1-63 1-63 3 0 4 2 4 52 4l63-1 17-1q3-4-3-5l-5-1zm-243 3-11 1q-12 0-11 2c0 4 4 4 40 4 36-1 39-1 39-5 0-3 0-3-43-2zm88 0q-4 6 7 5 9 0 8-3 1-3-7-3zm544 8q-6 2-4 5l50 1 52-1q4 1 3-3v-3h-49zm-35 1-2 3c1 3 16 2 17-1q1-2-5-2zm-66 1q-3 2-1 5h17q4-3 0-5zm-86 1q-6 3-2 5h36c35 0 37-1 36-4-1-2-63-3-70-1m-144 2c-18 0-21 1-19 4 0 2 5 3 48 2l62-1c23-1 26-1 25-4q-3-3-116-1m-91 0-41 2c-43 0-42 0-42 3s3 3 23 3l57-1c43 0 46-1 41-5-1-2-37-3-38-2m-223 3q-9 1-7 5c2 1 47 2 53 0q6-2 2-5zm87 0q-3 3-1 4c2 2 26 2 28 1l2-3-2-2zm565 9q-9 0-6 5h100v-6h-44zm-56 1q-14 0-13 4-1 3 27 3c18-1 21-1 21-3 2-4-5-5-35-4m-122 2-28 1q-6 1-1 4h80q4-2 0-5zm-57 1h-65c-70 1-71 1-67 6 2 2 135 1 137-2 2-2-3-6-5-4m-244 2-22 1q-6 1-4 4h117q5-1 1-5zm-168 2q-13 0-7 5c2 1 27 2 30 0 7-4-4-6-23-5m61 0q-3 2 3 5h20c32 0 35 0 32-4-1-2-51-3-55-1m592 8q-4 3 0 4l38 1 43-1h7v-6h-43q-44 0-45 2m-48-1-21 1c-21 0-25 1-22 5 1 2 66 2 69 0q6-6-11-5zm-108 3h-31c-32 1-35 1-32 5 1 2 74 2 82 1q6-2 3-6zm-175 2h-29l-30 1q-3 3-1 5c2 1 140 0 144-2l2-2v-2l-43-1zm-172 2q-2 4 1 5c3 2 57 1 60 0q5-3 1-5c-3-2-61-1-62 0m-107 1q-4 3 0 5c4 2 79 1 81-1v-4c-2-1-77-2-81 0m-48 1q-7 0-5 4c1 2 17 2 18-1q1-1-2-3zm606 7h-24c-31 1-35 1-35 5 0 2 5 2 50 2 47-1 50-1 46-6-2-1-29-2-37-1m60 0-2 2q-1 5 18 3h38c24-1 27-1 26-4-1-2-75-3-80-1m-235 3-2 2c-2 4 1 4 46 4 47-1 48-1 47-5-1-2-86-3-91-1m-76 1h-29c-37 0-45 1-46 3l1 3 114-1q13 0 7-5c-1-1-46-2-47 0m-184 2q-9 0-6 5c1 1 35 2 38 0q4-2 0-5zm-127 1c-18 0-19 1-19 3 0 3 0 3 59 3 56-1 57-1 57-4 0-2-1-2-40-2zm685 8-27 1c-27 0-29 0-27 4 0 2 62 2 64 0 2-3-5-7-10-5m-166 2c-17 1-21 1-20 4 1 2 7 4 9 3l47-1 49-1q4-3 1-5zm-53 1-48 1c-43 0-46 1-42 4 1 2 97 1 100 0 6-3-1-6-10-5m-178 2c-28 1-30 1-30 4 0 2 6 2 45 2 46 0 49 0 46-5-1-1-24-2-61-1m-85 1-19 1c-19 0-19 0-19 3q0 3 3 2h22q25 2 25-3c0-2-10-5-12-3m-180 2c-35 0-37 0-34 5l60 1c60 0 63 0 64-4 2-3-3-3-30-3zm104 0q-4 6 10 5 13 0 12-4c-1-2-20-3-22-1m-178 1q-8 4 6 6c10 0 16-3 10-6zm601 8-26 1c-28 0-30 0-30 3s3 3 67 2c55-1 56-1 53-5-1-1-63-3-64-1m88 0c-4 5-1 5 25 5 24 0 28-1 27-4-1-2-50-3-52-1m-229 2c-36 1-40 1-40 4s4 3 54 2c48 0 51 0 52-2 5-5 3-5-66-4m-106 2c-25 0-29 0-27 4 1 2 61 2 63-1 3-3-1-4-36-3m-137 1c-16 1-18 1-18 4 0 2 4 3 49 2 43 0 46 0 48-2q3-2 1-3c-1-2-49-2-80-1m-96 1-39 1c-32 0-36 0-37 2-1 3 1 3 37 4 75 0 87-1 82-5-2-2-6-2-20-2zM0 393v3h14q16-1 16-3 5-3-16-4H0zm717 5q-4 0-4 2-1 4 15 3 14 1 12-5zm-139 1c-16 0-17 0-17 4v2h63l63-1 1-3v-2l-49-1zm-131 2-27 1q-1 3 1 5c3 1 114-1 118-2q5-1 0-4zm-82 1q-4 1-3 4c1 3 36 3 39 0q2-2-2-4zm-144 2q-22 0-16 5c1 2 119 2 125 0q5-2 2-5zm-78 1-43 1-41 1c-3 1 1 6 5 5l54-1 55-1q5-1 0-5zM8 407H0v6h13q17 0 16-3 0-4-8-4zm463 6c-1 3-7 4-31 4-23 0-27 1-27 4q-1 3 18 2c121-1 114-1 114-5q0-3-10-3l-29 1-26 1q-2 2-4-2-3-5-5-2m149 1h-27c-26 1-29 1-29 5 0 2 3 2 49 2 48-1 53-1 53-3 2-4-2-5-24-5zm101 0q-4 4 4 5 9-1 5-5zm-349 5q-5 4 7 5 11 0 11-4c0-3-14-4-18-1m-101 0h-40c-39 1-43 1-41 4 0 2 10 4 16 3l95-1c44 0 46 0 47-2 5-5 3-5-39-5zm-193 2c-22 0-25 1-22 5l37 1h51c17 0 21-1 21-4-1-3-21-3-87-2m-78 4v3h12q16 0 15-3 1-4-15-4H0zm725 4c-25 0-30 0-31 2-3 4-2 4 61 3q8 1 7-2c0-3-1-4-37-3m-146 1q-6 2-3 5c2 2 9 2 36 1 38 0 41-1 38-5-1-1-65-2-71-1m-37 0c-1 1-35 2-76 2-35 0-38 0-40 2q-3 2-1 4l58 1c65-1 70-2 70-5 0-2-10-5-11-4m-216 3-73 2c-70 0-76 1-76 3 0 4 1 4 75 3l111-2v-4c-1-1-36-3-37-2m-238 3c-30 0-34 1-36 2-3 4-1 4 45 4 39 0 45 0 46-2v-3c-2-2-7-2-55-1m-87 1-1 3v3h11l12-1q3-2 1-5zm678 8-2 3c-2 3 3 3 26 3l44-1h22v-6h-44zm-93 2q-1 4 6 5 11 1 11-4l-1-2zm-110 1-24 1-25 1q-3 3 2 4l94-1c31 0 36 0 37-2 5-4 2-4-42-4zm-148 1-144 2q-13 0-13 3c0 3 5 3 88 2 85 0 86 0 86-4 0-2-15-4-17-3m-192 3q-12 3-2 5c5 1 21 0 22-2q4-4-20-3M0 455v4h12q12 0 12-2 4-4-12-5H0zm54-2q-6 2-1 5h38q5-2 0-5zm554 9-4 3c1 5 17 5 17 0q0-6-13-3m44 1v3c1 1 4 2 52 2 66 0 65 0 65-4v-3h-25l-27 1h-4c-4-1-59-1-61 1m-108 1h-57c-60 0-63 0-63 4 0 2 1 2 68 2 69 0 70 0 70-4 0-2-16-4-18-2m-155 1q-8 3-5 6c2 1 15 2 18 1 10-5-1-9-13-7m-93 1-41 1-49 1h-27q-6 2-2 5c2 1 150 0 152-1q3-3-1-5c-2-1-31-2-32-1m-158 2-25 1-21 1q-2 5 11 5h25c19-1 22-1 19-5q-1-3-9-2M4 470q-5-1-4 3v3h9q13 0 10-4-2-3-8-3zm44 0c-3 0-3 5 0 6 8 2 19-2 15-5-1-1-11-2-15-1m667 7-39 1h-27v3l1 2h119v-4q0-3-1-2zm-145 3v3c1 2 50 2 53 0l1-3c-1-3-52-3-54 0m-46 0h-46c-49 0-49 0-49 4 0 3 1 3 40 3l56-1 21-1q3-3-1-5zm-154 1c-27 0-30 1-30 4s4 3 37 3l36-2q4-5-6-5zm-125 2h-26c-25 0-29 1-29 3 0 3 2 3 61 2 59 0 61 0 59-4-1-1-64-3-65-1m-174 1c-25 1-29 1-29 4s5 3 50 3c45-1 47-1 47-4s-19-4-68-3m-69 1q-2 0-2 3v3h6q7 0 6-3a7 7 0 0 0-10-3m755 7-46 1c-47 0-50 0-50 4q0 3 12 3l52-1h44v-3q1-4-5-3zm-156 1-39 2-4 2q-1 4 5 4h31c29-1 32-1 32-5q-1-3-9-2h-6zm-130 3c-33 0-36 1-37 4-2 3 4 3 52 2 50 0 51 0 48-5-1-2-7-2-63-1m-101 1h-23c-23 1-26 1-23 5l26 1c70 0 71 0 71-3s-4-4-27-4zm-153 2c-18 1-21 1-18 5l49 1c49-1 50-1 48-5v-2h-31zm-58 1v3c2 3 11 3 11 0 0-4-7-5-11-3m-94 1c-28 1-30 1-28 5 0 2 5 2 47 1 41 0 44-1 44-4s1-3-63-2m-65 4q-1 4 3 3c5-1 5-7 0-7q-4-1-3 4m725 3h-26l-26 1-1 2 49 1h48v-2q2-3-7-2zm-166 2-16 1 44 1c41 0 46 0 45-2zm-108 1 32 1 38-1z"
        mask="url(#16282281824-posters-1720553729312-horizontal-mask)" itemprop="light" fill-opacity="0.90"
        fill-rule="evenodd" stroke="none" fill="url(#16282281824-posters-1720553729312-vertical-light)"></path>
      <!---->
      <path id="16282281824-posters-1720553729312-regular"
        d="M586 1q-3 1-1 2c1 2 7 2 39 2 38-1 41-1 41-4 0-1-75-2-79 0m123 1 30 1c23 0 30-1 30-2l-30-1c-27 0-30 0-30 2M504 2l-47 1q-5 5 18 3h47c24 0 32-1 33-2q2-2-3-3zM380 4h-34c-35 0-37 0-37 2 0 3 2 3 32 2h49c21 0 24-1 21-4zM214 6c-15 0-18 1-17 4 1 1 79 0 81-2l1-2zM84 8 66 9c-3 4 2 4 38 4 38-1 41-1 41-4-1-2-16-2-61-1M8 9c-8 0-8 0-8 2v3h14c25-1 25-1 25-3 0-3-1-3-31-2m689 6c-2 3 2 4 27 3h35q12 0 10-2c0-3-70-3-72-1m-93 2c-2 2-1 2 24 2 24 1 26 0 25-2-1-3-47-3-49 0m-137 1c-5 4-2 4 38 3h50q15 0 13-3c0-2-99-2-101 0m-41 1q-4 3 11 3 11 0 10-2c0-2-18-3-21-1m-92 1c-18 0-21 0-21 2q-2 2 7 2l79-2c3-3-1-3-22-3zm-55 0-44 1-45 2c-3 3 0 3 33 3l46-1 13-1q0-3-3-4M63 24q-11 0-10 2 2 3 6 3l24-1c23 0 27-1 24-4zm48 1c-1 2 1 3 16 3q24 0 20-4c-2-2-35-2-36 1M0 27v3l6-1q11 0 10-3l-4-1H4q-5-2-4 2m623 5q-4-1-4 2c1 2 23 3 24 0v-2zm69 0q0 3 5 3h38c33 0 34 0 34-2s-1-2-38-2zm-118 0-78 2-22 1c0 3 2 3 55 3 54-1 57-1 55-5-1-1-9-2-10-1m-155 3q-5 0-5 2c0 2 34 3 36 1v-3zm-84 1q-22 1-16 4h61q12 0 11-3c-1-2-27-2-56-1m-139 2c-15 0-17 1-15 3h83c23 0 24 0 24-2s-56-2-92-1M78 40c-29 0-34 1-30 4h45c50 0 57-1 58-3 0-2 2-2-73-1m628 8c-3 3 1 3 30 3l30-1q3 1 3-2c0-2 0-2-31-2-25 0-31 1-32 2m-46 0q-6 4 12 4 17-1 13-3c-2-2-24-2-25-1m-85 1h-46c-52 1-46 1-46 2 0 3 4 3 47 2h53l12-1q4-2-1-3zm-152 2c-16 0-19 0-20 2v2l51-1q5-2-1-3zm-79 1c-23 0-24 0-24 2s-2 2 35 2c25 0 27 0 27-3-1-2-1-2-38-1m-113 1-29 1c-24 0-28 1-28 2 0 3 0 3 63 2 56-1 62-2 59-4zm-94 2h-35c-33 1-37 1-36 4 2 2 87 0 89-2v-1zM31 57q-4 1 0 3c6 3 17 0 16-3zm703 6q-12 0-11 2c0 1 2 2 20 2 23 0 26-1 26-3l-9-1zm-84 1c-4 3 0 4 22 4l23-1q4-1 0-3c-3-2-43-1-45 0m-128 2c-31 0-32 0-32 2s-1 2 27 2c66 0 72-1 71-3s-12-2-66-1m-111 1q-14 1-12 4h47c16 0 18 0 19-2l-1-2zm-87 2q-3 2 2 4h13l15-1q28 1 25-3zm-124 1c-22 1-20 0-20 2 0 3 4 3 29 3l58-2c33 0 37-1 36-3zM86 72l-3 3 37 1c36 0 41 0 39-4 0-1-68-2-73 0m-63 1q-12 5 20 5 23 0 16-5zm674 5-2 2c0 2 15 3 16 0s-7-4-14-2m50 0q-5 4 10 4 14 0 12-3c0-2-19-3-22-1m-102 2c-1 2 1 2 22 2 20 0 25-1 23-3-1-2-44-1-45 1m-117 1-20 1q-13-1-11 2c1 2 66 1 68-1l1-2zm-129 2q-3 0-3 2l39 1c37 0 42-1 40-3zm-102 1h-53c-55 1-58 1-58 3 0 3 4 3 23 3l97-3v-2zm33 0-5 1v2c0 1 47 1 48-1q6-3-19-3zm-223 3h-4q-4 1-2 2c1 2 6 2 30 2 29 0 33-1 32-4 0-1-52-2-56 0m-79 1c-4 0-4 4 0 4l43-1q4-1-1-3zm576 8q-4 3 11 3c11 0 12 0 11-2s-19-3-22-1m72 0c-23 0-27 1-24 3h72v-2c-1-2 0-2-48-1m-239 2c-48 1-44 1-44 3s88 2 90 0q4-3-7-4zm68 0c-1 2 3 3 20 3 19 0 21 0 21-3 0-1-40-2-41 0m-176 2q-3 0-3 2l19 1c19 0 23 0 23-2-1-1-33-2-39-1m-125 1q-15 0-11 4h75c37-1 40-1 40-4zm-73 1q-15 0-14 2c0 3 3 3 21 3 29 0 37-1 34-4-1-1-21-2-41-1m-104 2-2 2c1 1 3 2 29 2 29 0 32-1 31-4zm631 8q-3 1-1 3l39 1c37-1 41-1 41-3-1-2-77-2-79-1m-51 1q-18 0-14 2h39q2-2-7-3zm-189 2c-26 0-31 1-29 4 1 1 92 0 94-1q3-1 1-3zm-85 2q-10 5 19 3 18 0 15-3zm-121 1q-18 1-13 3l44 1c64 0 66 0 64-4zm-79 2-1 2c1 2 2 2 16 2l20-1q10 0 7-4c-3-1-39-1-42 1m-77 0q-34 0-34 2-3 3 5 3h36c26 0 32 0 33-2q2-3-4-4zm680 7h-36l-37 1q-2 1 1 3c2 1 83 0 84-1q3-3-6-3zm-129 2c-21 0-24 1-22 3 1 2 53 1 54-1 2-2-4-3-32-2m-64 0-11 1q-15 0-13 3-1 2 20 1c14 0 16-1 14-4-1-1-9-2-10-1m-146 3q-11 0-10 2-1 4 18 3l29-1c16 0 18 0 19-2l-1-2zm-54 1q-3 0-3 2c0 2 20 3 25 2q4-3 1-4zm-47 1h-45c-45 0-48 0-45 4 0 1 100 1 104-1q4-1 0-3zm-145 3q-6 4 16 3c16 0 18-1 16-3-2-3-30-3-32 0m-100 0H35c-16 0-19 1-18 4 0 1 72 2 81 0q6 0 5-4zm621 7c-1 4 1 4 42 4 48 0 49-1 49-3 0-3-90-3-91-1m-92 2c-1 3 3 3 34 3 32 0 35 0 35-2-1-2-68-2-69-1m-94 1c-3 4 0 4 29 4s34-1 32-4c-2-2-59-1-61 0m-139 2q-6 3 7 4 13 0 8-4zm39 0q-3 2 2 3c14 2 27 0 26-3zm-119 1h-25c-23 0-27 1-26 3 2 2 96 1 98 0v-3zm-136 2q-13 3 2 4c11 1 18-1 12-4zm44 1c1 2 10 4 14 2q7-3-6-4-9 0-8 2m-148 0h-7q-13 0-9 3c2 2 87 1 89 0v-3zm662 7q-15 1-9 3h83q7 1 6-2c0-2-1-2-35-2zm-103 1q-12 0-11 2c0 1 4 2 32 2 38 0 48-1 49-3 0-2-37-3-70-1m-116 2c-16 0-19 1-19 2 0 2 17 3 28 2h27q31 1 31-3c0-2-8-3-67-1m-96 1q-4 4 4 4l5-1q-1-3-5-4zm-125 2q-30 0-22 3c2 1 87 0 88-1v-1c-1-1-40-2-66-1m-116 2h-11q-12 0-10 2c0 2 4 3 29 2 23-1 25-1 24-3s-31-3-32-1m-104 1q-21 0-22 2c-3 2-1 3 56 2 21 0 24-1 22-4zm657 7c-4 3 0 3 37 3s42-1 40-4c-1-1-75-1-77 1m-66 0h-26c-26 0-28 0-28 3l19 1h47c30-1 35-1 33-4zm-142 2h-35c-36 0-38 0-38 3 0 2 7 2 31 2l57-1c35 0 39-1 37-4-1-1-51-2-52 0m-253 3-17 1v2c0 2 114 1 115-1 3-3 0-3-40-3zm-92 1c-35 1-37 1-36 4h69q8 0 8-2-2-3-5-3zM5 184c-4 4 0 4 28 4 35 0 40-1 41-3 0-3-65-3-69-1m687 8c-4 3 0 3 30 3s32 0 32-3c0-2-60-2-62 0m-129 1-4 2c1 1 14 2 50 2 54 0 64-1 64-3s-103-2-110-1m-119 2c-22 0-25 1-25 2 0 2-5 2 56 2 52 0 55 0 53-4zm-77 1q-6 1-3 4c2 1 35 0 36-1 4-4-21-6-33-3m-154 2c-13 0-15 1-15 2 0 2 3 2 61 2 61 0 66-1 64-4zm-110 1c-22 1-20 1-20 2 0 2 1 3 23 2l66-1v-3zm-75 1c-18 1-21 1-19 4l25 1c24 0 31-1 31-4-1-2-8-2-37-1m674 8q-6 1-3 4l19 1q24 0 22-3c0-2-31-3-38-2m-38 1h-56c-56 1-60 1-58 4 1 1 126 1 128-1q4-2-5-3zm-160 2h-37c-35 0-40 0-37 3 1 2 7 2 42 1 45 0 51 0 51-3l-1-1zm-147 1q-27 0-22 4c2 1 71 1 72-1 4-3-10-4-50-3m-87 1-39 1c-38 0-44 1-40 3q0 2 32 1h52q40 0 40-2l-2-2zm-142 2h-25c-26 0-30 1-28 4l27 1 42-1c14 0 16 0 17-2v-2zm-118 2v2c0 1 29 2 40 1q5-1 3-4c-2-1-41-1-43 1m692 6q-6 3 5 4 17-1 3-4zm-76 1-50 1c-31 0-36 0-36 3 0 2 4 2 23 2l68-2c50 0 55-1 51-4zm-184 3q-3 1-1 4h57q27 0 20-4zm-88 1q-26 1-19 4h86q3-3-3-5zm-82 1h-46q-41 0-44 2c-4 4 2 4 92 2 39 0 44-1 41-3-1-1-34-2-43-1m-177 2c-29 1-31 1-30 3 1 3 84 2 88 0v-2c-1-2-11-2-58-1m-80 1q-9 1-7 4c2 2 26 1 28-1 3-2-8-4-21-3m665 5-127 2q-15 0-16 2-6 5 32 3l62-2 53-1c1-2-3-5-4-4m36 3q-4 2 0 3c6 3 24 0 19-3zm-262 3q-8 0-8 2-1 3 12 2h30c22 0 28-1 28-3 0-1-36-2-62-1m-108 1q-24 0-16 4c2 1 93 1 94-1 5-4-12-5-78-3m-78 1h-47c-47 1-50 1-48 4 0 1 129 1 133-1l2-2c0-1-3-2-20-2zm-141 1H90c-35 1-39 1-38 4 2 2 87 1 89 0q4-3-7-4zm595 9-21 1c-2 4 2 4 24 4 25-1 22-1 22-3l-5-3zm-91 1h-43l-43 2q-5 4 22 3l102-2q6-4-21-4zm-157 2q-27 0-22 4c2 1 53 1 54-1 3-3-3-4-32-3m-50 0-48 1-49 2c-3 3 2 3 40 2h50q17 0 12-3zm-225 3c-31 0-34 0-32 4 2 2 135 0 137-2 3-3-1-3-38-3zm-74 1H73c-52 1-56 1-51 5 2 2 108 0 110-2s-5-5-7-3m577 9c-20 1-21 1-19 4l41 1c41-1 44-1 44-4q-3-3-66-1m-69 1h-33c-37 0-42 1-43 3 0 3 3 3 19 3l41-1c21 0 26 0 27-2v-2zm-121 2q-5 2-1 4c5 1 24-2 22-4zm-105 1h-42c-42 1-45 1-43 4 0 2 117 1 118-1q6-3-17-3zm51 0q-6 3 15 4 20 0 17-4zm-244 2c-51 0-54 0-51 4l44 1 69-1c25 0 26-1 26-2 0-3 1-3-88-2m-176 2c-21 1-23 1-22 3s3 2 17 2h18l62-2c4-4-11-5-75-3m648 8h-12q-16 0-13 3c1 2 4 2 30 2l54-1h24v-5h-42zm-82 1h-20c-19 1-23 1-20 4 1 1 43 2 46 0 4-1-1-6-6-4m-109 2q-3 3-1 4c2 1 51 0 52-1v-2c-1-2-48-3-51-1m-102 1h-33c-38 0-44 0-44 3l1 2 118-1q13 0 11-4zm-190 2c-43 1-49 1-45 4 2 1 126 0 129-1l2-2c-1-2-17-2-86-1m-177 2q-15 0-10 4l68 1q10-1 8-5zm98 0q-1 4 7 4t8-4zm644 6-51 1c-51 1-55 1-52 4 1 2 102 1 104-1zm-199 3-3 3c1 3 19 2 19-1s-9-4-16-2m63 0q-2 4 7 4 11 0 8-4c-2-2-14-1-15 0m-120 1-35 1q-1 2 3 4l69-2a2 2 0 0 0-2-3zm-141 2h-26c-26 1-30 1-25 5l16 1 64-2c43 0 51-1 52-2l-1-2zm-165 2c-42 0-45 0-42 4h120q3-3-1-4l-19-1zm-178 1-6 1q-8 1-3 4c2 1 40 1 49-1q6 0 3-4zm81 2c-1 2 0 2 14 3q20 0 15-4c-3-2-28-1-29 1m566 8q-6 0-6 2c0 3 5 3 69 1h24q8 0 7-2c0-2 0-2-44-2zm-64 1q-6 2-1 4c3 1 42 1 43-1l1-2c-1-2-35-3-43-1m-127 2-17 1q-1 2 2 3h78q4-3 1-4zm-97 1h-39c-38 1-41 1-39 4 0 2 134 1 135-1l1-2c-1-2-53-3-58-1m-190 2c-27 0-31 1-27 4 2 1 116 0 118-1l1-3-34-1zm-106 1q-5 1-2 4c2 1 53 0 54-1v-2c-1-2-48-2-52-1m-64 1-7 1c0 3 2 3 16 3q20 0 15-4zm741 5-43 1-44 1c-2 0-1 4 1 4h87zm-171 3q-9 1-7 3c1 2 5 2 34 2 33-1 36-1 35-5-1-1-45-2-62 0m-107 2c-27 1-29 1-28 4l36 1c40 0 49-1 50-3 1-3 1-3-58-2m-85 1-57 1-57 1c-5 4 16 5 130 2q19 0 14-3c-1-1-29-2-30-1m-209 2c-14 0-17 0-18 2-3 3 1 3 31 3 27 0 29 0 31-2l3-2-3-1zm-71 1H99c-26 0-29 0-29 3 0 2 2 2 14 2l67-1q6-4-13-4zm-106 2q-3 4 7 4 11 0 9-3c-1-2-14-3-16-1m727 6h-28c-28 0-30 0-30 3l44 1c34 0 37 0 36-3-1-2-21-3-22-1m-118 1h-21c-31 0-36 1-36 3q-1 3 16 3l43-1c34 0 39-1 35-4-1-1-36-2-37-1m-146 2-30 1v2q-2 3 19 2h43l30-2c4-4-5-4-62-3m-148 2c-29 1-32 1-30 4 2 1 120 1 121-1 5-4-6-5-91-3m-129 1c-16 1-18 1-18 3q0 3 22 3c16-1 18-1 18-4l-6-2zm-156 3q-2 4 6 3h55c52 0 56 0 54-4-2-2-112-1-115 1m704 7h-28c-25 0-28 1-27 4 1 2 59 1 62 0 3-2-2-5-7-4m-107 1h-37c-38 1-42 1-42 4l33 1h51c20 0 24-1 21-4zm-107 1-40 1c-56 1-55 1-55 3 0 1 5 2 46 2 46 0 54 0 54-3zm-195 3c-17 1-19 1-18 4 1 1 84 1 88-1q4-2-1-4zm-91 1c-19 1-22 1-20 4 2 2 44 2 47 0q9-6-27-4m-106 1h-45c-44 1-49 1-45 4 2 2 111 2 119 0q5 0 2-4zm48 1q-4 3 10 3 13 0 9-3-1-2-9-2-9 0-10 2m-179 1-2 2c1 3 19 2 19 0 0-3-12-4-17-2m702 7q-15 0-13 2c0 2 0 2 21 2 27 0 34-1 29-4zm-127 1c-28 1-30 1-29 4 0 2 108 2 115 0 15-4-10-5-86-4m-119 2c-34 1-36 1-35 4l52 1c53-1 54-1 54-4-1-2-13-2-71-1m-125 2q-3 0-3 2c0 1 4 2 29 2 30 0 35-1 33-4zm-115 1q-18 0-16 2c0 3 2 3 48 3 45-1 49-1 49-4-1-1-41-2-81-1m-169 2-1 2c1 2 5 2 58 2 58-1 62-1 60-4zm-63 3v2h14q34-3 0-5H0zm726 5q-16 0-12 4c2 1 21 1 24-1q9-5-12-3m-137 1c-26 1-29 2-27 5 1 1 124 0 126-1 4-5-35-6-99-4m-58 2h-54c-53 1-57 1-57 4q-1 2 10 2c89-1 110-1 110-4 0-2-6-4-9-2m-165 2q-6 1-3 3c2 3 36 2 37 0q4-4-17-4zm-57 1h-50c-51 1-54 1-54 4l62 1c65 0 69-1 64-5zm-164 2h-41l-43 1c-3 0-3 4 0 4l112-1c2 0 1-4-1-4zM0 410v2h13q18 0 15-3c-1-2-3-2-14-2H0zm471 5-3 3h-26c-26 0-28 0-28 2 0 3 5 3 38 3l61-1c27-1 32-1 32-4 0-2-3-2-35-1-37 1-34 1-36-3v-2zm123 0c-26 0-29 0-29 4 0 2 97 1 99-1 5-3 1-4-22-4zm-220 3q-8 4 7 5 9 0 8-2c0-3-11-4-15-3m-31 0-117 2c-34 0-37 0-35 4 1 2 1 2 88 1l69-2v-4zm-195 3h-45c-34 0-45 1-46 2-4 3-1 4 79 3 27 0 31-1 28-4-1-1-15-2-16-1M0 424c0 4-1 4 23 3q5-1 2-4l-13-1c-12 0-12 0-12 2m696 6c-5 4-1 4 32 4 34 0 37 0 33-4-2-2-63-1-65 0m-118 1q-4 3 1 5h21l32-1 16-1q4-2 0-3zm-36 0-106 2-10 1c-4 5-3 5 82 3 41 0 47-1 44-4zm-220 4h-70c-69 0-74 1-74 4l7 3 87-1c94-1 91-1 91-4 0-2-1-3-21-3zm-246 2c-21 0-26 1-24 4 2 1 89 1 90-1 4-4-13-4-66-3m-76 3v3h11q18 0 13-4 0-2-13-2H0zm765 4-43 1c-41 1-45 1-45 3s7 3 29 2l43-1c20 1 20 0 20-2a3 3 0 0 0-4-3m-177 3q-5 2 4 4 10 1 10-2-1-5-14-2m-109 1c-51 1-54 2-52 5l49 1c79-2 87-2 84-6zm-196 3h-55c-54 1-61 1-56 4 3 2 168 1 171 0q4-3 1-4zm-217 2q-17 1-14 4h38q4-2 0-3-4-3-24-1m64 0q-4 4 12 4c12 0 14 0 14-3 0-2-24-3-26-1M0 456v2h11q16-1 13-3 0-3-12-2H0zm693 6h-23c-16 0-19 1-18 3s5 3 23 2h48c39 0 46-1 46-3q1-2-8-2l-43 1-10-1zm-84 1c-7 0-4 5 4 5q10 0 7-4-2-3-11-1m-113 2h-31c-34 0-39 0-40 3s2 3 35 2l66-1c33 0 36 0 35-3-1-2-63-3-65-1m-107 1q-6 1-5 3c1 2 12 3 18 2q5-3 1-5zm-135 2h-37l-39 1q-5 1 1 4c4 1 148-1 149-2l1-3-38-1zm-112 1h-24q-25 0-25 2c-3 3 0 3 27 3 25 0 29-1 27-3 0-2-5-3-5-2M1 471l-1 3c0 2 0 2 8 2q11 0 11-3c0-3-13-4-18-2m47 0q-4 1 0 3c6 3 18 0 14-3zm640 7c-32 0-37 0-38 2-2 2 1 3 36 2h83v-4zm-75 0-21 1c-17 0-21 1-22 2q-2 4 12 3h22q19 0 19-3c1-2-8-5-10-3m-154 3c-29 0-29 1-29 3 0 1 0 2 30 2q86 0 86-3c0-3-22-3-87-2m-109 1q-10 0-9 3c0 2 4 2 28 2h30q17 0 14-5zm-155 2-4 2c0 2 3 2 57 2 56 0 63 0 62-3-1-2-109-2-115-1m-125 1-25 1q-4 1 1 4c4 1 90-1 91-2 4-4-8-4-67-3m-68 1q-2 0-2 3-1 3 9 1c2 0 3-4 1-4zm704 8c-43 1-45 1-44 3s5 2 38 2l53-1c16 0 16 0 16-2 0-3 4-3-63-2m-127 1c-19 0-23 1-20 4h64c2 0 3-4 1-4zm-117 2c-26 0-30 1-27 4 1 1 29 2 67 1 30 0 33-1 32-4-1-2-6-2-72-1m-133 1q-6 1-4 4h86q11 0 9-2c0-2-1-2-43-2zm-78 1-27 1c-24 0-27 0-24 4l38 1c62-2 60-1 57-5-1-2-35-2-44-1m-128 2H86c-41 0-48 1-49 3 0 3 4 3 46 2 43 0 45 0 45-2q-2-5-5-3m37 0q-2 4 5 4 4 0 4-2c0-3-8-4-9-2m552 8c-30 0-39 1-40 2l48 1c46 0 49 0 49-2s4-2-57-1m-144 1c-40 1-28 2 19 2 41 0 45 0 44-2z"
        mask="url(#16282281824-posters-1720553729312-radial-mask)" itemprop="regular" fill-opacity="0.90"
        fill-rule="evenodd" stroke="none" fill="url(#16282281824-posters-1720553729312-horizontal-regular)"></path>
      <!---->
      <path id="16282281824-posters-1720553729312-medium"
        d="M590 1c-10 3-3 3 34 3 39 0 40 0 40-3a216 216 0 0 0-51 0zm119 0q-1 3 18 2l28-1 14-1-30-1zM466 3l-8 1 38 1h48q12 0 11-2zM335 5c-21 0-25 0-25 2l2 1 93-1h4l2-1c0-2-2-2-26-2zm-65 0-35 1-36 2q-4 3 5 2l69-1 5-1-2-2-4-1zM134 7l-32 1c-30 0-37 1-35 3l38 1c35-1 42-2 40-4zM17 9C1 9 0 9 0 11s1 2 18 2c19 0 23-1 20-4l-3-1zm683 6-3 1 24 1h36l12-1c0-2-57-2-69-1m-78 1q-37 2 6 3l24-1q1-2-1-2zm-141 2q-18 0-16 2c0 1 100 1 102-1 3-2-3-2-37-2zm-120 2h-23c-22 0-26 1-25 3 1 1 84 0 85-1l1-2zm65 1 9 1 11-1q3-2-9-2t-11 2m-193 1-43 1q-3 3 12 3l42-1 34-1q8-1 0-2zm-115 2c-13 1-8 3 7 3q23 0 21-3zm-63 1q-10 4 23 3l26-1q6-1 2-3zM0 27c0 2 0 2 8 2q11-1 8-3l-9-1q-9 0-7 2m706 5-13 1c-4 1 4 1 37 1 42 0 39 0 39-1 0-2-24-2-63-1m-83 1q-9 2 6 2c9 1 16 0 13-2zm-110 1-39 1c-3 2 5 2 53 2 56 0 56 0 56-3l-16-1zm-96 2q-5 1-2 2l34-1v-1zm-88 1q-11 0-10 2c0 1 69 1 71-1q7-3-61-1m-61 1-44 1-43 1c-1 1 5 1 30 1q78 0 76-2zm-141 2H90c-35 0-43 1-42 3 1 1 96 0 101-1l2-1c-1-1-23-2-24-1m625 7h-23c-20 0-25 1-23 3l58-1 5-1c0-1-16-2-17-1m-93 3 13 1 13-1q2-2-13-2t-13 2m-141 0c-33 0-36 0-34 2 1 2 110 1 112-1 3-2-2-2-23-2zm-154 2h-25q-23 0-18 3c1 1 60 0 61-1q1-3-18-2m40 1c-1 1-2 1 12 1h25c12 0 14 0 14-2s-49-2-51 1m-201 1c-26 0-32 1-28 3h102c17-1 20-1 19-3zm-77 1-29 1c-29 0-30 0-30 3l16 1 42-1c25 0 32-1 29-3zm-94 2q-5 2 1 3c5 1 13 0 13-2l-1-1zm639 7c-24 1-23 1-21 2 2 2 45 2 46 0v-1zm53 0c-2 2 1 2 22 2l23-1c0-2-44-3-45-1m-158 2-38 1-38 1c-2 1 6 1 47 1 47 0 50 0 50-2-1-1-20-2-21-1m-160 2-6 2 31 1c30-1 35-1 33-3zm-67 1q-14 0-15 2c0 1 11 2 20 1h18q16 1 16-2-2-3-39-1m-48 0-50 1c-54 0-60 0-60 3l39 1 60-1c19-1 23-1 22-2zm-186 3c-19 0-22 1-21 3 1 1 73 0 74-1 4-3 0-3-53-2m-82 2q-4 1 0 3c6 1 37 0 37-2 0-1-32-3-37-1m725 4-2 1 2 1c3 1 20 1 21-1l-6-1zm-101 1-2 1q1 2 15 2c16 0 30-1 30-2-1-1-37-2-43-1m49 0q-5 2 5 2 11 1 9-2zm-141 1-51 2q-13 1 1 2c47 0 73-1 57-3h-5zm-146 3q-11 0-12 2h62c6 1 16 0 16-2zm-71 1q-12 0-13 2l2 1 45-1c6-2-10-3-34-2m-71 1h-40l-40 2c-4 2 2 2 34 2l58-1c23 0 29-1 27-3zm-141 2c-28 1-26 1-24 2 1 2 59 2 60 0 3-3-3-3-36-2M25 89c-1 2 3 3 23 3 22 0 24 0 24-3 0-1-45-2-47 0m579 8q1 2 11 2 9 0 10-2l-10-1zm56 0-8 1h71v-1zm-143 1q-23 1 1 2c25 0 27 0 27-2l-8-1zm-53 1h-35c-30 0-35 0-35 2h44c44 0 47 0 45-2zm-129 1q-7 0-9 2c0 2 38 2 41 0v-2zm-49 0-44 1c-47 0-49 0-49 3h85c26 0 32-1 29-3zm-167 3c-6 3-1 3 25 3 25 0 29-1 28-3zm-82 1q-13 0-11 2l26 1q38 1 31-3zm625 8c-10 1-2 4 8 3h32c32 0 36 0 34-2-1-2-66-2-74-1m-67 2-1 1c0 2 38 1 38 0-1-1-31-2-37-1m-144 1-30 1-30 1c-4 2 2 2 45 1 42 0 51-1 47-3zm-105 2q-13 0-14 2c0 1 33 2 34 0q3-3-20-2m-91 1h-28c-25 0-29 1-28 3 1 1 101 0 105-1l2-1c0-1-50-2-51-1m-164 1-33 1c-32 1-36 1-36 3 1 2 72 2 73 0 2-2-3-5-4-4m43 1c-3 3-1 3 18 3 21 0 23 0 23-3 0-1-40-2-41 0m563 8c-29 0-34 0-34 2 0 1-2 1 45 1 32 0 39 0 40-2q2-1-2-1zm-102 2-10 1 27 1 26-1c0-1-22-2-43-1m-63 1q-26 1 3 3l18-1q2-3-5-3zm-93 0-24 1c-23 0-29 1-27 3l26 1 32-1 6-1q0-2-3-2l-7-1zm-98 3q-4 1 0 2h23c7-2-15-4-23-2m-111 1q-30 0-23 3h64l25-1 15-1c0-2-12-2-81-1m-66 1q-13 0-12 2c0 2 24 3 29 1q4-1 0-3zm-139 2q-7 0-8 2l2 1 80-1 3-1c0-2-63-2-77-1m660 6q-16 0-12 3h70q25 0 19-3zm-103 2q-4 1 0 3l66-1c2-3-2-3-32-3zm-87 1q-12 0-9 2l30 1c26 0 32-1 30-3zm-109 2q-5 3 13 3c14 0 16-1 14-3zm-40 1q-4 2 6 3 12 0 10-3zm-125 1-4 1c1 1 11 2 44 2 44 0 52-1 53-3zm-45 2c1 2 11 3 14 1q4-3-7-3-8 0-7 2m-96 0-65 1q-4 0-4 2c0 1 84 2 88 0q4-2-3-3zm47 0q-4 3 9 3 12 0 10-3zm579 7c-24 0-28 1-27 3 2 2 90 0 90-2s-14-2-63-1m-121 2q-15 0-7 2c3 1 70 0 75-1l2-1zm-98 1c-33 0-37 1-36 3 1 1 84 0 85-1 3-2-5-3-49-2m-259 4c-5 2 3 2 41 2 43 0 46 0 46-2zm-183 2c-34 1-42 1-36 4l76-2-4-3zm82 0h-8q-10 0-7 2c1 1 49 0 52-1l1-1zm578 6h-10q-9 0-8 2l11 1h37c24 0 30-1 27-2h-47l-6-1zm-116 2-22 1c0 2 7 2 47 1 48 0 50 0 50-2zm-94 1-77 1q-13 0-12 2c0 1-1 1 30 1h58c34-1 38-1 34-4zm-193 2-47 1-47 1c-2 3 5 3 34 3l55-1c25-1 27-1 26-3-1-1-20-2-21-1m-196 3q-7 0-9 2l32 1c40 0 45-1 45-3zm-83 1q-22 0-18 2c1 2 67 1 69 0q5-4-19-3zm669 8c-4 3 0 3 28 3 31 0 33-1 33-3zm-44 1h-44c-42 1-45 1-44 3h99q15 0 13-2c0-2-1-2-12-2zm-134 1-47 1-47 2c-2 2 4 2 54 2 51-1 55-1 53-4-1-1-12-2-13-1m-147 3-3 1c1 2 36 2 36 0 0-1-26-2-33-1m-95 1h-37c-32 0-36 1-36 2 0 2 2 2 28 1h61c31 0 37 0 34-3zm-213 2H35q-24 0-25 2-3 2 9 2h20q27 0 26-3l-1-1zm29 0q-4 0-4 2l35 1c40 0 53-1 53-3zm612 9q-7 3 19 3c18 0 22-1 21-3zm-104 1-46 1c-2 3 4 3 35 2h62l31-1q6-3-19-3zm-164 2-2 1c1 2 90 2 92 0 3-2-4-2-44-2zm-80 1q-33 2 5 3c29 1 50 0 50-2s-23-2-55-1m-200 2-30 1H85q-13 1-7 3h58q23 0 24-2v-1zm50 0q-9 0-10 2h58c69 0 65 0 64-1-1-2-94-2-112-1m-176 1c-15 0-17 1-16 3h43q8-5-27-3m675 8q-2 2 6 3 9 0 8-3zm-60 1h-50c-47 1-52 1-50 4h54l45-1 41-1v-2zm-175 2c-29 1-27 0-25 3l20 1 38-1q22 0 19-3zm-126 2q-5 0-5 2l41 1c39 0 47-1 45-3zm-94 1h-31c-30 0-34 0-33 3l43 1 66-1c23-1 25-1 24-3zm-177 2q-5 1-3 2l37 1c41 0 50-1 50-3zm-57 1q-6 2-2 4l25-2c4-3-14-4-23-2m665 5-69 1c-58 1-70 1-71 3v1l61-1h42c40 0 45 0 44-3zm41 2q-9 2 7 3l10-1c0-3-9-4-17-2m-245 3q-27 0-27 2-1 2 12 2l33-1 24-1-1-2zm-56 0-44 1-44 2c-2 2 4 2 48 2 42 0 49-1 47-3zm-230 3q-13 0-14 2c0 1-4 1 47 1 84 0 88-1 88-3zm-93 1H73q-20 0-20 2c0 2 7 2 48 2 38 0 42-1 40-4-1-1-46-2-47 0m619 9q-16 0-11 2h44c3-2-4-3-33-2m-133 1c-32 0-36 1-35 3 1 1 117 0 121-1q3 0 3-2zm-114 2q-18 1-11 3c3 1 49 0 50-1q6-4-39-2m-101 1-37 1q-2 4 11 3l48-1c34 0 41 0 42-2 2-2 1-2-64-1m-74 1-118 1q-7 0-6 2c0 1-3 1 32 1l105-2q3-2-7-2zm-204 2H54c-26 0-32 1-32 2-1 2-1 2 63 2 43-1 48-1 47-4zm604 9q-8 0-8 2c0 1-3 1 42 1 35 0 42-1 43-3zm-100 1c-33 0-35 1-33 3 1 2 84 1 85-1 3-3-1-3-52-2m-132 2q-6 3 15 3 17 0 15-2c0-2-27-3-30-1m51 0q-3 3 11 2c10 0 11 0 11-2zm-110 1h-39c-34 0-40 1-39 2 1 2 111 1 116 0l2-1c-1-1-37-2-40-1m-106 0-65 1c-62 1-71 1-65 4l104-1 34-1-2-2-4-1zm-272 4q-11 2-1 3l91-1c3-3-1-3-43-3zm729 6-29 1q-61 0-60 3l33 1h44l30-2q1-2-7-2zm-181 3q-9 1-5 4c3 1 46-1 47-2l-1-2zm-76 2c-2 3 1 3 25 3 23-1 28-1 26-3-1-2-50-1-51 0m-152 1c-23 0-27 1-26 3l114-1c13 0 15 0 15-2zm-81 1-60 1c-40 0-45 0-43 3h81l49-1q6-4-27-3m-184 2H47c-30 1-36 2-29 4 4 2 69 1 72-1l1-2zm48 0q-1 3 7 3 6 0 6-2c0-2-11-3-13-1m572 8c-29 0-33 1-32 3 1 1 99 0 102-1l2-2zm-64 1q-2 2 2 3c4 2 15 0 11-2-2-2-11-2-13-1m-64 1-3 1c1 2 16 2 17 1 3-2-5-4-14-2m-85 1q-6 0-6 2l33 1c33 0 38-1 38-2s-49-2-65-1m-139 2-26 1v2l43 1 66-1c21-1 25-1 23-3zm-69 0-55 1-56 2c-3 3 0 3 24 3l60-1 36-1c1-2-7-5-9-4m-251 3q-9 1-7 3c3 2 53 0 53-2l-1-1zm86 0-2 1c1 2 29 3 29 1s-20-3-27-2m588 9-29 1c-1 3 4 3 32 3l46-1 21-1q0-2-3-2zm-81 1q-11 0-10 2c0 2-1 2 25 2 19 0 22-1 20-4zm-189 3h-59c-57 1-62 1-61 4h128q10-1 7-3zm44 0q-8 1-4 2h79v-2zm-221 2h-40c-39 0-45 1-41 4 2 1 115 0 117-2v-2c-1-1-35-2-36 0m-122 1h-23q-21 0-18 3h54q1-4-13-3m-110 2q0 3 14 3 17 0 17-3l-15-1zm693 6c-30 0-36 1-32 3h80q9 1 8-2c0-2-1-2-12-2zm-79 1-41 1-2 2c0 1-3 1 35 1 28 0 35-1 32-3zm-165 3q-9 1-7 3h83l2-2c0-2-2-2-36-2zm-102 1h-37c-37 0-42 1-38 4l14 1 69-2c56 0 61 0 60-3zm-184 2q-9 2-1 3c6 1 56 0 58-1v-2zm-94 1c-15 0-18 0-18 2-1 1-4 1 41 1 36 0 40 0 39-3zm-68 1q-4 2 0 3c4 1 13 0 13-2-1-1-8-2-13-1m739 5-35 1-36 2c-3 2 4 2 38 2 35 0 43-1 40-3zm-178 3q-15 1-10 3c2 1 91 0 92-1 3-3-1-3-36-3zm-117 2c-11 0-12 0-12 2l45 1c43 0 47 0 45-3zm-77 1h-41c-41 1-44 1-42 4h29c91-1 95-1 90-4zm-192 2q-13 1-5 3h33q4-1-1-3zm-129 1c-15 0-17 1-17 2l30 1h70q15 1 13-3zm653 9c-24 1-23 1-21 2l30 1c30 0 32 0 31-2 0-2-1-2-40-1m-76 0-35 1c-39 0-41 1-41 3l33 1 51-1q25 0 19-3zm-149 3-43 1q-11 0-8 2l49 1c46-1 50-1 50-3-1-2-5-2-48-1m-160 2q-7 0-9 2l42 1c44 0 47 0 47-3zm-94 1q-11 1-6 3l23 1c20 0 23-1 22-4zm-95 1h-43l-45 1c-7 3 2 3 60 3 57-1 63-1 61-4zm50 0q-3 3 8 3 13 0 10-3zm-181 2q-4 2 8 2 12 1 9-2zm646 7h-45c-47 0-56 1-54 4 2 1 117 0 118-2v-1zm45 0q-7 3 18 3 31 0 31-2c0-2-47-2-49-1m-182 2h-43c-38 1-46 2-44 4l97-1q18-2-1-3zm-170 2-10 1v1h61l-1-2zm-48 0-42 1c-43 0-47 0-47 3l45 1c46 0 50 0 50-2s-5-4-6-3m-185 3H92l-29 1c-2 3 2 3 57 3 55-1 59-1 59-3-1-1-57-2-58-1M0 393l14 1q17 0 15-2l-14-1c-14 0-15 0-15 2m717 6-3 1c1 3 25 2 25-1zm-132 1c-25 1-23 0-23 3 0 1 123 1 125-1q4-5-102-2m-75 2h-39c-45 0-50 1-50 2 0 3 3 3 19 3l57-2c39 0 45 0 43-3zm-147 2c-1 2 6 5 9 4l14-1c13 0 14-1 14-3s-35-2-37 0m-115 1c-39 0-43 1-43 3h126v-2c-1-2 4-2-83-1m-168 2c-19 0-23 1-20 3h106q9 0 8-2c0-2-50-2-94-1m-80 3c0 2 0 2 12 2q18 0 15-3l-14-1c-12 0-13 0-13 2m472 5c-3 3-5 3-33 3l-25 1c-2 3 5 3 56 2h61q13 0 13-3h-60q-9 1-10-3-1-3-2 0m150 0h-27c-26 1-30 1-30 3 1 2 84 2 95 0q9-2 2-3zm-249 4q-2 4 8 4 11 0 6-4c-3-2-13-1-14 0m-68 1h-56c-54 1-60 1-58 4h104c57-1 53-1 53-3 0-1-2-2-21-2zm-202 2H80c-19 0-22 1-22 2s4 2 38 2c51 0 68-1 68-3 0-1-60-3-61-1m-95 1q-9-1-8 2c0 2 1 2 11 2 12 0 14-1 14-2q-1-3-6-3zm695 7q-10 0-8 2c1 2 64 2 66 1 2-3-3-3-28-3zm-103 1c-19 0-22 0-23 2q-1 3 9 2h32l28-1q5-1 1-3zm-86 2-44 1c-46 0-45 0-44 2s7 2 59 1c60 0 66-1 66-3 0-1-36-3-37-1m-187 2-117 1c-29 0-33 1-31 4l27 1 90-1c66 0 70-1 66-4-1-1-34-2-35-1m-272 3-2 2 42 1c43 0 47 0 47-2-1-1-81-2-87-1m-55 2c0 2 0 2 12 2q13 0 12-2 1-2-12-2c-12 0-12 0-12 2m719 6c-29 0-40 1-41 2 0 1 2 2 47 1 43 0 44 0 44-2q1-2-5-2zm-122 1h-6q-6 1-4 3c1 1 14 2 14 0v-2q-1-2-4-1m-94 2h-36c-35 0-42 1-39 3 1 1 58 2 60 0h35c35 0 37 0 37-3 0-1-56-2-57 0m-169 2-80 1c-66 0-80 0-81 2-2 1-10 1 91 1 75 0 80 0 80-3 0-1-9-2-10-1m-200 2q-6 1 0 3c2 1 18 0 21-1 6-2-10-4-21-2M8 454q-8 0-8 2l3 1c12 1 23-1 21-2zm48 0q-3 0-3 2l19 1 19-1q0-2-3-2zm620 9q-23 0-24 2c0 1 5 2 29 1h55l33-1c0-2-7-3-31-2zm-70 1q-2 1 1 2c3 3 13 2 13-2 0-1-11-2-14 0m-61 1-58 1c-59 0-62 0-62 2l67 1c62 0 71-1 68-3zm-158 2-2 2c1 2 15 3 18 1 5-3-8-6-16-3m-85 1-108 1q-23 0-17 3h138q14 0 13-2 0-3-16-3zm-201 2q-10 0-8 2c0 2 51 3 53 1q4-4-11-4l-26 1zM0 473c0 3 16 3 18 1q4-4-9-3-10 0-9 2m47-1q0 3 8 3 9 0 8-3c-2-2-16-1-16 0m633 7-31 1c-5 2 34 3 89 1h24l7-1c0-2-23-2-89-1m-103 1q-10 1-4 4c6 1 50-1 50-3 0-1-26-2-46-1m-43 0-52 1-52 1v3h91c23-1 26-1 24-4-1-1-10-2-11-1m-189 3q-11 2 14 3h35c17 0 20 0 18-3zm-101 1h-26c-25 0-29 1-26 3 1 1 110 0 115-1l2-1c-1-1-62-2-65-1m-149 1-25 1c-25 0-28 0-26 2h89q15-3-16-3zm-95 3q0 3 5 2 6 0 6-2t-6-2-5 2m666 7q-7 1-3 2 2 2 6 1h52c45 0 48-1 48-2 0-2-3-2-51-2zm-102 1q-6 0-5 2l31 1c30 0 35 0 35-2-1-1-47-2-61-1m-86 1c-40 0-45 1-43 4 1 1 94 0 97-1q4-2 1-3zm-77 0-37 1c-39 0-39 0-39 3 0 2 1 2 25 2l47-1c21 0 25-1 22-4zm-174 3c-26 0-28 1-26 3 0 1 94 1 95-1v-1c-1-2-7-2-69-1m-136 2H64l-27 1c-2 3 6 3 80 3q11-1 10-4zm537 7-42 2-41 1h43c38 0 43 0 42-1zm46 1-1 1 48 1c41 0 48 0 48-2 0-1-94-2-95 0"
        mask="url(#16282281824-posters-1720553729312-vertical-mask)" itemprop="medium" fill-opacity="0.90"
        fill-rule="evenodd" stroke="none" fill="url(#16282281824-posters-1720553729312-vertical-medium)"></path>
      <!---->
      <path id="16282281824-posters-1720553729312-bold"
        d="m595 1-5 1c-14 1 21 1 46 1l28-1c-1-2-46-3-46-1h-7a8 8 0 0 0-9 1l-2-1-2-1zm115 0 59-1h-29zM531 3l-17 1h36l4-1-2-1zm-65 1c-14 0-6 2 9 1h26l11-1zm-66 1h-45q-44 0-44 2h76q24 0 23-2zM269 7h-35l-35 1v1c12 1 84-1 79-2zM82 9q-21 1-12 3l71-2c14-2-16-2-59-1m-65 1L0 11l19 1q25 0 17-2l-1-1zm683 6-3 1h3c7 1 49 0 49-1zm-95 1 24 1 23-1-23-1zm-131 2 41 1 52-1zm-102 1-37 1-21 1c-1 1 16 1 41 1l43-1q3-3-26-2m-170 3c-21 1-10 2 17 2l45-1 18-1zM67 25l-13 1h46l8-1zm46 0 4 1c8 1 29 0 29-1zm582 8c-1 1 15 1 36 1l38-1zm-120 0-49 2-49 1h92q15 0 13-2zm45 1h21q1-1-10-1zm-285 4-15 1 70-2c-2-1-37-1-55 1m79-1h35l-17-1zm-190 2-42 1c0 1 98 1 99-1zM78 41l-30 1 48 1q54 0 53-2zm630 7v1c2 1 61 0 61-1zm-47 1q-4 2 9 2 14 1 14-2zm-165 2-8 1h56l51-1zm-79 1h-6l-7 1 24 1 26-1-2-1zm-70 1-26 1h58c4-1 0-2-32-1m-81 0-45 1-45 2q-2 1 2 1l96-1 21-1-11-1zM72 57l-4 1h42l44-1zm-40 1-1 1c3 2 14 1 15-1zm630 7c-20 1-12 2 11 1 24 0 24 0 21-1zm61 0h46l-23-1zm-140 0c-1 1-24 2-57 2l-35 1 42 1c46 0 53-1 53-2q-1-2-3-2m-152 3-30 1c-3 2 53 2 61 0q3-1-1-2zm-92 2-14 1 10 1 25-1 17-1zm-135 1q-22 0-22 2h26l59-1 34-1zm-99 2-20 1h67c12-1 5-2-11-2zm-80 1-3 1c0 2 35 3 37 1q2-2-2-2zm621 6h44l-22-1zm-107 2q-30 1 1 1c21 0 25 0 22-1l-5-1zm-99 0-41 2-2 1 45-1h18c6 1 18 0 13-1zm-108 3c-14 1-4 1 19 1l21-1zm-105 1-34 1q-6 0-5 1h18l100-2-39-1zm-118 2c-21 2 11 2 51 1q3 0 2-1zm-83 1c-1 2 1 2 22 2s26 0 23-2zm671 8 11 1 15-1zm-258 2-36 1 32 1c46-1 49-1 46-2l-5-1zm68 0 18 1 19-1zm-172 2-8 1c0 2 36 1 39-1zm-118 1-23 1 30 1 55-1 28-1zm-82 1h-10q-6 0-6 2h43l6-1c-2-2-24-2-33-1m-102 2c-14 1-5 2 19 2 25 0 32-1 31-2zm628 8q-14 2 26 1h38l10-1zm-54 1q-21 1 6 1 19 0 18-1zm-186 2-31 1h92q1-1-2-1zm-87 2-1 1c0 2 31 1 32-1 1-1-28-2-31 0m-106 1-27 1c2 2 105 1 105-1zm-95 1v2c0 2 36 2 40 0q3-2 0-2zm-43 0-34 1-34 1c-1 2 2 2 21 2h36l16-1c1-2-4-4-5-3m574 10c0 1 82 1 84-1l-42-1c-34 0-42 1-42 2m-77 1q-1 1 24 1l27-1-25-1zm-66 1q-4 2 15 1 32-1 1-2zm-107 1-26 1q1 2 13 1h27l23-1q1-1-2-1zm-118 1-44 1-44 1-1 1 103-1c1-1-3-2-4-1h-7zm45 1h24q2-1-12-1-13 0-12 1m-189 2c-1 2 1 2 14 2q19 0 16-2zm-111 1-18 1-5 1c0 1 82 1 83-1v-1zm643 7c-24 1-7 2 28 2l44-1q7 0 6-1zm-76 1h-13l-13 1h63l1-1zm-116 2-6 1h52q8 0 7-1zm-90 1h-11l-3 1q-1 1 11 1l13-1q0-2-10-1m-94 1-45 1-45 1c0 1 8 2 15 1h43c42-1 39-1 37-2zm-271 4-25 1c1 2 81 2 88 0l-1-1-19-1zm668 7-25 1h81q30-2-56-1m-100 1-27 1 25 1 37-1 15-1zm-119 2-35 1h82q5-1-1-1zm-237 4c1 1 53 0 54-1h-28zm-122 2c-5 1-4 1 14 1s23 0 23-2c0-1-31-1-37 1m-47-1-34 1-36 1 36 1 38-1zm616 7-9 1 30 1 37-1 8-1zm-59 1h-35q-32 0-33 2h5l79-1 10-1zm-141 2h-44c-40 0-51 1-42 3h6l55-1c53 0 59 0 57-2zm-241 3-46 1 29 1 56-1 29-1-11-1zm-121 1-36 1c-3 2 27 2 67 1q11-1 7-2l-2-1zm-118 2q-21 1 8 1h32l17-1zm727 6-26 1c-28 1-28 1-24 2 6 1 59 0 59-1l-3-1zm-159 3-23 1c0 1 20 2 24 1l70-1 17-1zm-120 2-43 1h104q6-2-9-2zm-87 1q-17 0-9 2c5 1 30 0 31-1q2-1-1-1zm-163 2-15 1 29 1 62-1 32-1zm-110 1c-21 1-20 1-20 2l85-1 3-1zm-51 1H33l-22 1q-7 2 21 1h27l5-1c-1-1-10-2-11-1m648 9-2 1h2c7 2 40 0 38-1-1-2-35-1-38 0m-129 1-20 1 21 1 62-1 43-1zm-70 1h-35l-35 1q-2 1 2 1c29 1 92-1 88-2zm-162 2c-6 1 32 2 51 1l15-1zm-74 1c-4 1 11 2 28 2 21-1 20-1 19-2zm-114 1h-37l-37 1-2 1h2c8 1 83 0 82-1zm50 0-10 1h15c19 1 50 0 47-1zm-190 1-2 1c0 2 4 2 22 2 18-1 22-1 20-3zm665 7-55 1-77 2-3 1 20 1 68-2c50 0 52 0 51-2zm-232 4q-7 2 1 2c11 1 72-1 70-2zm-79 0-27 2-3 1c1 1 82 0 84-1q6-2-28-2zm-167 3-16 1 23 1h33l75-2zm-76 1H94c-31 1-28 1-27 2 1 2 85 1 85-1 0-1-28-2-29-1M9 234q-3 3 16 2l10-2zm598 6a468 468 0 0 0 76 0zm-69 2 61-1c1-1-12-1-29-1-23 0-31 1-32 2m178-1v1h18c0-2-16-2-18-1m-260 3-9 1 32 1c30 0 38-1 35-2zm-94 1-32 1h94c0-2-5-2-62-1m-95 1h-44l-47 1-3 1h110c25-1 24-1 24-2zm-194 2-20 1h86c9-2-1-2-66-1m578 8-52 1c-40 0-52 1-53 2-2 1-2 1 25 1q92 0 96-2h3l-3-1zm51 1a140 140 0 0 0 44 0l-22-1zm-246 3q-9 2 20 1h24l6-1zm-122 1-5 1h75l1-1zm73 0c1 2 20 2 21 0q1-1-10-1-14 0-11 1m-178 1-61 1c1 1 11 2 99 1l37-2zm-104 1-52 1-51 1c-1 1 6 1 51 1 58 0 60 0 58-3zm594 9-14 1h-17l-4 1c0 2 82 1 83-2zm-145 2q-15 0-15 2h67l17-2zm-61 1q-4 2 2 2l16-2zm-53 1 1 1c3 1 28 0 28-1zm-131 1c-11 1-5 2 10 2 62 0 101-1 101-2zm-71 1-4 1c1 2 47 1 47-1zm-86 1c-16 1-6 2 22 2l57-2zm-133 1c-17 0-21 1-22 2l39 1c47 0 56-1 56-3zm668 8q-44 0-44 2h19l87-1-4-1zm-106 1-33 1-4 1h46c2-2-7-4-9-2m-104 2-3 1 17 1c19 0 34-1 33-2zm-115 1-41 1-24 1 55 1 61-1q10 0 11-2zm-132 2h-45l-45 1c-5 2 5 2 56 1h62q10 0 9-2zm-202 2c-30 0-35 0-30 2 4 2 71 1 72-1q1-1-3-1zm639 8c-36 1-24 2 18 2 49 0 64-1 64-2zm-142 1-25 1q-41 0-41 2c0 1 65 1 68-1q3 0 1-1zm-175 3-50 1q-6 3 19 3l88-2 24-1-2-1zm-159 2c-50 1-47 1-46 2l119-1c2-2-2-2-73-1m-188 2c-11 1 5 4 18 3l14-1q15 0 15-2zm87 0 14 1 13-1q3-1-13-1zm565 9-5 1q1 2 16 1h43c34 0 40 0 40-2zm-58 1q-15 1-5 2h41c2-3-7-3-36-2m-132 2c-16 1-23 2-11 2l73-1v-1zm-84 1h-46c-38 0-44 1-44 2s17 2 30 1h16c52 0 88-1 87-3zm-127 1-78 1-24 1c-2 1-2 1 61 1 50 0 57 0 54-3zm-179 2-5 1 27 1 26-1-2-1zm-74 1q-1 3 17 2 25-1-3-3zm746 6-72 1-14 1 44 1c43 0 44 0 44-2q0-3-2-1m-157 2q-19 0-19 2h66c4-3-4-3-47-2m-145 3c-4 1 7 2 44 1l37-1zm-115 1h-30c-21 0-28 1-29 2h54c80 0 88-1 89-2s-82-2-84 0m-212 2-10 1h-1l-29-1c-30 1-27 1-27 2h79q3-3-12-2m41 0c0 2 11 2 58 1l3-1-30-1zm546 8-35 1 37 1 39-1q0-2-5-2zm-135 1q-46 3 27 3l47-1q5-3-19-2zm-104 2-33 1c-2 2 3 2 42 2 44 0 48 0 48-2-1-2-10-2-57-1m-84 1-49 1c-44 0-49 0-48 2 1 1 117 0 119-1v-1c-2-1-10-2-12-1zm-244 2-99 2-9 1h112v-2zm33 1-2 1 19 1c15 0 18 0 18-2 0-1-27-2-35 0m516 10-5 1c4 1 58 0 58-1zm-114 0-9 1q-15 0-16 2l19 1 51-1q33 0 33-2c1-1-7-1-38-1zm-125 3-23 1h97l1-1zm-124 1-17 2c0 1 84 1 86-1l1-1zm-147 2q-5 2 8 2 11 0 8-2zm38 0-2 1h44l3-1zm-175 2-2 1c7 1 117 0 118-1 6-2-1-2-47-2l-64 1q-2-1-5 1m659 7q-20 0-8 2c13 1 45 0 43-2zm-102 0-23 1q-33 0-31 2h99l18-1c-1-1-62-3-63-2m-112 3h-29c-29 0-38 1-38 2l44 1c46-1 60-2 59-3zm-157 2q-12 2 20 1c27 0 26 0 26-1zm-125 1q-6 1-5 2c0 1 88 1 92-1 7-2-1-2-41-2zm-146 2-13 1h111l3-1zm-77 1q0 2 8 2l14-1 7-1-14-1zm625 8h-30q-40 1-31 3h112q10 0 10-2l-1-1zm91 0q-2 1 9 1l13-1zm-277 3-17 1c0 2 55 2 91 1l19-1 7-1zm-72 1q-7 1-2 2c3 1 36 0 35-2zm-42 1h-57l-61 2-1 1h103q25-1 22-2-3-2-6-1m-260 3c-16 1 1 2 43 2 47 0 65-1 65-2zm-65 2 13 1q26-2 0-3-15 0-13 2m471 6c-3 2-4 3-30 3l-26 1c0 2 127 1 128-2l-16-1-31 1-16 1q-3 1-6-3 0-3-3 0m151 0h-19c-28 0-49 2-29 3h9l81-2q3-1-22-1zm-249 4q1 2 10 2 10-1-3-3zm-122 1-58 1q-3 0-1 1c2 2 155 0 155-2 0-1-95-2-96 0m-189 2-4 1c1 1 57 2 73 1l19-1 13-1zm-62 2 12 1q24-1 0-3-13-1-12 2m699 6q-5 1-2 1c5 2 64 1 63-1zm-120 1c-4 3-2 3 33 3 34-1 37-1 36-3zm-67 2h-43c-39 0-42 0-42 2 1 2 8 2 80 0 35 0 43-1 43-2zm-185 2-127 1c-18 0-21 0-21 2h74c118-1 109 0 109-2-1-1-34-2-35-1m-232 2H76q-30 0-19 2h84c2-2-2-3-23-3zm-95 2 12 1 11-1-11-1zm691 7-12 1 45 1c36 0 45-1 45-2zm-164 2-48 1c-46 0-52 0-51 2a1370 1370 0 0 0 127-2q4 2 5-1zm-244 3-100 1-10 1 75 1c81 0 94-1 95-3l-21-1-22 1-9-1zm-150 2-2 1h2l12 1 9-1 1-1zM0 456c0 1 13 2 20 0q9-2-8-2-13 0-12 2m54-1 19 1 18-1-19-1zm553 10q-2 2 7 2 6-1 4-3c-2-1-10-1-11 1m46-1q1 3 10 2h52l52-1q10-2-24-2l-27 1zm-123 2h-51l-53 2c-1 1 19 2 27 1h51c49 0 55 0 56-3 0-1-29-2-30 0m-144 2-1 1c0 2 18 1 19-1 0-1-15-2-18 0m-132 1-23 1h-26c-4-1-28 0-27 1h142q7 1 7-2zm-157 2-4 1c0 2 52 1 53-1zm-97 2q-1 3 8 2 12 0 10-3c-2-2-18-1-18 1m655 7c-9 1 11 1 76 1l38-1zm-84 2c0 1 43 2 49 0q11-2-23-2c-21 0-26 1-26 2m-94 0q-46 0-46 2h104l9-1c0-2-4-2-67-1m-123 1h-6q-6 0-6 2h33l27 1q17-1 5-3zm-137 2-25 1 54 1c56 0 63 0 62-2zm-124 1H73q-32 0-28 2h89l2-1c-1-1-42-2-43-1m635 9h-31l-32 1q-12 2 36 2l52-1 16-1c0-2-40-2-41-1m-167 2q-3 0-1 1l11 1h29l24-2zm-112 1q-13 0-13 2l42 1c49 0 55-1 55-3zm-48 0-38 1c-36 0-41 1-37 3h7l45-1c39 0 42 0 41-2zm-119 1-40 1-40 1c-3 3 2 3 28 3l46-1q20 0 19-2c0-2-11-3-13-2m-236 4q-12 0-5 2c3 1 82 0 84-1 5-2-2-2-35-2zm534 8-32 1h41l42-1zm94 0h68c1-1-13-1-33-1z"
        mask="url(#16282281824-posters-1720553729312-horizontal-mask)" itemprop="bold" fill-opacity="0.90"
        fill-rule="evenodd" stroke="none" fill="url(#16282281824-posters-1720553729312-vertical-bold)"></path>
    </pattern>
    <rect id="16282281824-posters-1720553729312-pattern-render" fill="url(#16282281824-posters-1720553729312-pattern)"
      width="100%" height="100%"></rect>
  </defs>
  <radialGradient id="lightbar" cx="50%" cy="200%" fy="0" r="201%">
    <stop offset="0%" style="stop-color: rgb(255, 255, 255); stop-opacity: 0.1;"></stop>
    <stop offset="10%" style="stop-color: rgb(0, 0, 0); stop-opacity: 0.1;"></stop>
    <stop offset="30%" style="stop-color: rgb(0, 0, 0); stop-opacity: 0.3;"></stop>
    <stop offset="90%" style="stop-color: rgb(0, 0, 0); stop-opacity: 0.55;"></stop>
    <stop offset="100%" style="stop-color: rgb(0, 0, 0); stop-opacity: 0.6;"></stop>
  </radialGradient>
  <g class="radial">
    <radialGradient id="16282281824-posters-1720553729312-radial" gradientUnits="userSpaceOnUse">
      <stop itemprop="radial" stop-color="#d0cfce" offset="0%"></stop>
      <stop itemprop="radial" stop-color="#c6c5c3" offset="15%"></stop>
      <stop itemprop="radial" stop-color="#cdcccb" offset="30%"></stop>
      <stop itemprop="radial" stop-color="#c3c2c1" offset="45%"></stop>
      <stop itemprop="radial" stop-color="#cdcccb" offset="60%"></stop>
      <stop itemprop="radial" stop-color="#cdcccb" offset="75%"></stop>
      <stop itemprop="radial" stop-color="#c3c2c1" offset="90%"></stop>
    </radialGradient>
    <radialGradient id="16282281824-posters-1720553729312-radial-background" gradientUnits="userSpaceOnUse">
      <stop stop-color="#d3cec5" offset="0%"></stop>
      <stop stop-color="#d3cec5" offset="15%"></stop>
      <stop stop-color="#d3cec5" offset="30%"></stop>
      <stop stop-color="#d3cec5" offset="45%"></stop>
      <stop stop-color="#d3cec5" offset="60%"></stop>
      <stop stop-color="#d3cec5" offset="75%"></stop>
      <stop stop-color="#d3cfc5" offset="90%"></stop>
    </radialGradient>
    <radialGradient id="16282281824-posters-1720553729312-radial-light" gradientUnits="userSpaceOnUse">
      <stop stop-color="#9b9a97" offset="0%"></stop>
      <stop stop-color="#9b9a97" offset="15%"></stop>
      <stop stop-color="#9b9a97" offset="30%"></stop>
      <stop stop-color="#9b9997" offset="45%"></stop>
      <stop stop-color="#9b9a97" offset="60%"></stop>
      <stop stop-color="#9b9a97" offset="75%"></stop>
      <stop stop-color="#9b9a97" offset="90%"></stop>
    </radialGradient>
    <radialGradient id="16282281824-posters-1720553729312-radial-regular" gradientUnits="userSpaceOnUse">
      <stop stop-color="#82807d" offset="0%"></stop>
      <stop stop-color="#82807d" offset="15%"></stop>
      <stop stop-color="#82807d" offset="30%"></stop>
      <stop stop-color="#82807d" offset="45%"></stop>
      <stop stop-color="#82807d" offset="60%"></stop>
      <stop stop-color="#82807d" offset="75%"></stop>
      <stop stop-color="#82817d" offset="90%"></stop>
    </radialGradient>
    <radialGradient id="16282281824-posters-1720553729312-radial-medium" gradientUnits="userSpaceOnUse">
      <stop stop-color="#51504d" offset="0%"></stop>
      <stop stop-color="#51504d" offset="15%"></stop>
      <stop stop-color="#51504d" offset="30%"></stop>
      <stop stop-color="#514f4d" offset="45%"></stop>
      <stop stop-color="#51504d" offset="60%"></stop>
      <stop stop-color="#51504d" offset="75%"></stop>
      <stop stop-color="#51504d" offset="90%"></stop>
    </radialGradient>
    <radialGradient id="16282281824-posters-1720553729312-radial-bold" gradientUnits="userSpaceOnUse">
      <stop stop-color="#2f2e2d" offset="0%"></stop>
      <stop stop-color="#2f2e2d" offset="15%"></stop>
      <stop stop-color="#2f2e2d" offset="30%"></stop>
      <stop stop-color="#2f2e2d" offset="45%"></stop>
      <stop stop-color="#2f2e2d" offset="60%"></stop>
      <stop stop-color="#2f2e2d" offset="75%"></stop>
      <stop stop-color="#2f2e2d" offset="90%"></stop>
    </radialGradient>
  </g>
  <g class="vertical">
    <linearGradient id="16282281824-posters-1720553729312-vertical" gradientUnits="userSpaceOnUse" x1="0" x2="0" y1="0"
      y2="100%">
      <stop itemprop="vertical" stop-color="#d0cfce" offset="0%"></stop>
      <stop itemprop="vertical" stop-color="#c6c5c3" offset="15%"></stop>
      <stop itemprop="vertical" stop-color="#cdcccb" offset="30%"></stop>
      <stop itemprop="vertical" stop-color="#c3c2c1" offset="45%"></stop>
      <stop itemprop="vertical" stop-color="#cdcccb" offset="60%"></stop>
      <stop itemprop="vertical" stop-color="#cdcccb" offset="75%"></stop>
      <stop itemprop="vertical" stop-color="#c3c2c1" offset="90%"></stop>
    </linearGradient>
    <linearGradient id="16282281824-posters-1720553729312-vertical-background" gradientUnits="userSpaceOnUse" x1="0"
      x2="0" y1="0" y2="100%">
      <stop stop-color="#cdcccb" offset="0%"></stop>
      <stop stop-color="#cdcccb" offset="15%"></stop>
      <stop stop-color="#cdcccb" offset="30%"></stop>
      <stop stop-color="#cdcccb" offset="45%"></stop>
      <stop stop-color="#cdcccb" offset="60%"></stop>
      <stop stop-color="#cdcccb" offset="75%"></stop>
      <stop stop-color="#cdcdcb" offset="90%"></stop>
    </linearGradient>
    <linearGradient id="16282281824-posters-1720553729312-vertical-light" gradientUnits="userSpaceOnUse" x1="0" x2="0"
      y1="0" y2="100%">
      <stop stop-color="#aea084" offset="0%"></stop>
      <stop stop-color="#aea084" offset="15%"></stop>
      <stop stop-color="#aea084" offset="30%"></stop>
      <stop stop-color="#ae9e84" offset="45%"></stop>
      <stop stop-color="#aea084" offset="60%"></stop>
      <stop stop-color="#aea084" offset="75%"></stop>
      <stop stop-color="#aea484" offset="90%"></stop>
    </linearGradient>
    <linearGradient id="16282281824-posters-1720553729312-vertical-regular" gradientUnits="userSpaceOnUse" x1="0" x2="0"
      y1="0" y2="100%">
      <stop stop-color="#82807d" offset="0%"></stop>
      <stop stop-color="#82807d" offset="15%"></stop>
      <stop stop-color="#82807d" offset="30%"></stop>
      <stop stop-color="#82807d" offset="45%"></stop>
      <stop stop-color="#82807d" offset="60%"></stop>
      <stop stop-color="#82807d" offset="75%"></stop>
      <stop stop-color="#82817d" offset="90%"></stop>
    </linearGradient>
    <linearGradient id="16282281824-posters-1720553729312-vertical-medium" gradientUnits="userSpaceOnUse" x1="0" x2="0"
      y1="0" y2="100%">
      <stop stop-color="#51504d" offset="0%"></stop>
      <stop stop-color="#51504d" offset="15%"></stop>
      <stop stop-color="#51504d" offset="30%"></stop>
      <stop stop-color="#514f4d" offset="45%"></stop>
      <stop stop-color="#51504d" offset="60%"></stop>
      <stop stop-color="#51504d" offset="75%"></stop>
      <stop stop-color="#51504d" offset="90%"></stop>
    </linearGradient>
    <linearGradient id="16282281824-posters-1720553729312-vertical-bold" x1="0" x2="0" y1="0" y2="100%">
      <stop stop-color="#2f2e2d" offset="0%"></stop>
      <stop stop-color="#2f2e2d" offset="15%"></stop>
      <stop stop-color="#2f2e2d" offset="30%"></stop>
      <stop stop-color="#2f2e2d" offset="45%"></stop>
      <stop stop-color="#2f2e2d" offset="60%"></stop>
      <stop stop-color="#2f2e2d" offset="75%"></stop>
      <stop stop-color="#2f2e2d" offset="90%"></stop>
    </linearGradient>
  </g>
  <g class="horizontal">
    <linearGradient id="16282281824-posters-1720553729312-horizontal" x1="0" x2="100%" y1="0" y2="0"
      gradientUnits="userSpaceOnUse">
      <stop itemprop="horizontal" stop-color="#cbcac8" offset="0%"></stop>
      <stop itemprop="horizontal" stop-color="#cbcac8" offset="15%"></stop>
      <stop itemprop="horizontal" stop-color="#c8c7c6" offset="30%"></stop>
      <stop itemprop="horizontal" stop-color="#cbcac8" offset="45%"></stop>
      <stop itemprop="horizontal" stop-color="#cbcac8" offset="60%"></stop>
      <stop itemprop="horizontal" stop-color="#cdcccb" offset="75%"></stop>
      <stop itemprop="horizontal" stop-color="#cdcccb" offset="90%"></stop>
    </linearGradient>
    <linearGradient id="16282281824-posters-1720553729312-horizontal-background" gradientUnits="userSpaceOnUse" x1="0"
      x2="100%" y1="0" y2="0">
      <stop stop-color="#cdcccb" offset="0%"></stop>
      <stop stop-color="#cdcccb" offset="15%"></stop>
      <stop stop-color="#cdcdcb" offset="30%"></stop>
      <stop stop-color="#cdcccb" offset="45%"></stop>
      <stop stop-color="#cdcccb" offset="60%"></stop>
      <stop stop-color="#cdcccb" offset="75%"></stop>
      <stop stop-color="#cdcccb" offset="90%"></stop>
    </linearGradient>
    <linearGradient id="16282281824-posters-1720553729312-horizontal-light" gradientUnits="userSpaceOnUse" x1="0"
      x2="100%" y1="0" y2="0">
      <stop stop-color="#9b9a97" offset="0%"></stop>
      <stop stop-color="#9b9a97" offset="15%"></stop>
      <stop stop-color="#9b9a97" offset="30%"></stop>
      <stop stop-color="#9b9a97" offset="45%"></stop>
      <stop stop-color="#9b9a97" offset="60%"></stop>
      <stop stop-color="#9b9a97" offset="75%"></stop>
      <stop stop-color="#9b9a97" offset="90%"></stop>
    </linearGradient>
    <linearGradient id="16282281824-posters-1720553729312-horizontal-regular" gradientUnits="userSpaceOnUse" x1="0"
      x2="100%" y1="0" y2="0">
      <stop stop-color="#968769" offset="0%"></stop>
      <stop stop-color="#968769" offset="15%"></stop>
      <stop stop-color="#968b69" offset="30%"></stop>
      <stop stop-color="#968769" offset="45%"></stop>
      <stop stop-color="#968769" offset="60%"></stop>
      <stop stop-color="#968969" offset="75%"></stop>
      <stop stop-color="#968769" offset="90%"></stop>
    </linearGradient>
    <linearGradient id="16282281824-posters-1720553729312-horizontal-medium" gradientUnits="userSpaceOnUse" x1="0"
      x2="100%" y1="0" y2="0">
      <stop stop-color="#5d5441" offset="0%"></stop>
      <stop stop-color="#5d5441" offset="15%"></stop>
      <stop stop-color="#5d5641" offset="30%"></stop>
      <stop stop-color="#5d5441" offset="45%"></stop>
      <stop stop-color="#5d5441" offset="60%"></stop>
      <stop stop-color="#5d5541" offset="75%"></stop>
      <stop stop-color="#5d5441" offset="90%"></stop>
    </linearGradient>
    <linearGradient id="16282281824-posters-1720553729312-horizontal-bold" gradientUnits="userSpaceOnUse" x1="0"
      x2="100%" y1="0" y2="0">
      <stop stop-color="#2f2e2d" offset="0%"></stop>
      <stop stop-color="#2f2e2d" offset="15%"></stop>
      <stop stop-color="#2f2e2d" offset="30%"></stop>
      <stop stop-color="#2f2e2d" offset="45%"></stop>
      <stop stop-color="#2f2e2d" offset="60%"></stop>
      <stop stop-color="#2f2e2d" offset="75%"></stop>
      <stop stop-color="#2f2e2d" offset="90%"></stop>
    </linearGradient>
  </g>
  <g class="masks">
    <mask id="16282281824-posters-1720553729312-pattern-mask" maskUnits="userSpaceOnUse"
      maskContentUnits="userSpaceOnUse">
      <pattern id="pattern" x="0" y="0" width=".0133" height=".0144" viewBox="0 0 23.07 40">
        <path
          d="M17.62 0l-6.07 10.5m2.74 4.76L8.22 4.75m-5.48 0h12.13M.01 0h23.07M6.07 20L0 9.5m2.74-4.75l-6.07 10.5m-5.48 0H3.33m8.2 4.75L0 .02-11.54 20m40.68 0L23.07 9.5m2.74-4.75l-6.06 10.5m-5.49 0H26.4M34.6 20L23.08.02 11.53 20m-5.46 0L0 30.51m2.74 4.75l-6.07-10.5m-5.48 0H3.33m8.2-4.75L0 40l-11.54-19.98zM17.6 40l-6.06-10.5m2.74-4.76L8.2 35.25m-5.48 0h12.13M0 40h23.07L11.54 20.01m17.6 0l-6.07 10.5m2.74 4.75l-6.06-10.5m-5.49 0H26.4M11.53 20h23.08L23.07 40"
          stroke-linecap="round" stroke-width="3.5" stroke="white"
          fill="url(#16282281824-posters-1720553729312-horizontal-background)"></path>
      </pattern>
      <rect width="100%" height="100%" fill="url(#pattern)"></rect>
    </mask>
    <mask id="16282281824-posters-1720553729312-horizontal-mask" maskUnits="userSpaceOnUse"
      maskContentUnits="userSpaceOnUse">
      <rect width="100%" height="100%" fill="url(#16282281824-posters-1720553729312-horizontal-background)"></rect>
    </mask>
    <mask id="16282281824-posters-1720553729312-radial-mask" maskUnits="userSpaceOnUse"
      maskContentUnits="userSpaceOnUse">
      <rect width="100%" height="100%" fill="url(#16282281824-posters-1720553729312-radial-background)"></rect>
    </mask>
    <mask id="16282281824-posters-1720553729312-vertical-mask" maskUnits="userSpaceOnUse"
      maskContentUnits="userSpaceOnUse">
      <rect width="100%" height="100%" fill="url(#16282281824-posters-1720553729312-vertical-background)"></rect>
    </mask>
  </g>
  <use href="#16282281824-posters-1720553729312-pattern-render"></use>
  <g>
    <use href="#16282281824-posters-1720553729312-background"></use>
    <use href="#16282281824-posters-1720553729312-light"></use>
    <use href="#16282281824-posters-1720553729312-regular"></use>
    <use href="#16282281824-posters-1720553729312-medium"></use>
    <use href="#16282281824-posters-1720553729312-bold"></use>
  </g>
  <g itemprop="animation">
    <animate href="#16282281824-posters-1720553729312-light" attributeName="stroke-opacity" repeatCount="indefinite"
      dur="5s" values="0.9;0.0;0.9"></animate>
    <animate href="#16282281824-posters-1720553729312-regular" attributeName="stroke-opacity" repeatCount="indefinite"
      dur="4s" values="0.9;0;0.9"></animate>
    <animate href="#16282281824-posters-1720553729312-medium" attributeName="stroke-opacity" repeatCount="indefinite"
      dur="5s" values="0.9;0;0.9"></animate>
    <animate href="#16282281824-posters-1720553729312-bold" attributeName="stroke-opacity" repeatCount="indefinite"
      dur="3s" values="0.9;0;0.9"></animate>
    <animate href="#16282281824-posters-1720553729312-regular" attributeName="fill-opacity" repeatCount="indefinite"
      dur="8s" values="0.9;0.75;0.95;0.8;0.9;"></animate>
    <animate href="#16282281824-posters-1720553729312-radial-background" attributeName="cx" repeatCount="indefinite"
      dur="34s" values="0%;33%;100%;0%;100%;0%;"></animate>
    <animate href="#16282281824-posters-1720553729312-radial-background" attributeName="cy" repeatCount="indefinite"
      dur="55s" values="0%;100%;33%;100%;66%;0%"></animate>
    <animate href="#16282281824-posters-1720553729312-vertical-light" attributeName="x1" repeatCount="indefinite"
      dur="55s" values="0%;33%;100%;0%;133%;0%;"></animate>
    <animate href="#16282281824-posters-1720553729312-vertical-light" attributeName="y1" repeatCount="indefinite"
      dur="86s" values="0%;100%;33%;100%;66%;0%"></animate>
    <animate href="#16282281824-posters-1720553729312-horizontal-regular" attributeName="x1" repeatCount="indefinite"
      dur="34s" values="0%;100%;66%;0%;33%;133%;0%"></animate>
    <animate href="#16282281824-posters-1720553729312-horizontal-regular" attributeName="y1" repeatCount="indefinite"
      dur="55s" values="0%;66%;100%;33%;100%;66%;0%"></animate>
    <animate href="#16282281824-posters-1720553729312-vertical-medium" attributeName="x1" repeatCount="indefinite"
      dur="34s" values="0%;100%;66%;0%;33%;133%;0%"></animate>
    <animate href="#16282281824-posters-1720553729312-vertical-medium" attributeName="y1" repeatCount="indefinite"
      dur="55s" values="0%;66%;100%;33%;100%;66%;0%"></animate>
    <animate href="#16282281824-posters-1720553729312-vertical-bold" attributeName="x1" repeatCount="indefinite"
      dur="34s" values="0%;100%;66%;0%;33%;133%;0%"></animate>
    <animate href="#16282281824-posters-1720553729312-vertical-bold" attributeName="y1" repeatCount="indefinite"
      dur="55s" values="0%;66%;100%;33%;100%;66%;0%"></animate>
  </g>
</svg>
