<svg id="16282281824-posters-1720553788313" itemscope="" itemtype="/posters"
  itemid="/+16282281824/posters/1720553788313" viewBox="0 0 769 512" preserveAspectRatio="xMidYMid meet" tabindex="0"
  class="animate landscape" xmlns="http://www.w3.org/2000/svg">
  <!---->
  <defs class="graphic">
    <pattern id="16282281824-posters-1720553788313-pattern" width="769" height="512" viewBox="0 0 769 512"
      patternUnits="userSpaceOnUse" preserveAspectRatio="xMidYMid meet">
      <rect itemprop="background" width="769" height="512" tabindex="-1"
        id="16282281824-posters-1720553788313-background" fill-opacity="1"
        fill="url(#16282281824-posters-1720553788313-radial-background)"></rect>
      <!---->
      <path id="16282281824-posters-1720553788313-light"
        d="m56 1-1 19-1 21c-2 1-3 2-28 2H0v18h108l8-1h37c2-1 7 1 7 4l1 22c-1 22-1 22-7 23l-134 2H0v9c0 11-1 10 20 9 15-1 31 0 32 2 3 3 3 42 0 45-2 3-7 4-30 4H0v17h7l74-1h43c35 0 34 0 35 9 1 7 0 36-2 39q0 4-22 4H34l-28 1H0v16h24c31 0 28-3 28 25 0 23 0 24-3 25-3 2-43 3-47 1q-2-1-2 8v9h76l79 1c3 3 3 46 0 48s-26 3-41 3H32l-32-1v17h28c21 1 20 1 21 4 3 6 1 45-2 47l-24 1H0v17h148c7 0 7 1 7 17v25h15v-20c1-16 1-20 3-21 2-2 7-2 109-3h83l2 2c2 2 2 2 2 22v20h16v-6l1-18q0-18 2-19l122-1h74l1 2c2 2 2 6 2 22v20h15v-19c1-21 1-23 7-24h126l35 1v-10q0-8-1-7v2h-19c-31-1-36-2-38-5-2-4 0-45 2-48l39-1c17 1 17 2 17-10q0-8-1-7c0 2-2 2-37 2-114-2-122-2-125-4-2-1-2-1-2-22 0-27 0-26 11-27l30-1h29l49 1h46v-9l-1-8c-2 3-51 1-54-2-2-3-2-38 1-45l1-4h15l26-1 12 1v-16l-45-1h-55q-55 1-61-2c-2-1-2-43 0-47 1-4-9-3 83-3h78v-16h-23c-23 0-29-1-30-4v-45c1-4 4-4 30-4l23 1v-9c0-9 0-9-2-9l-78-1c-84 0-80 0-80-6l-1-4v-2l1-18c1-22-1-21 31-21l128 1q1 2 1-8v-9l-23-1c-25 0-26 0-27-3l-1-20V0h-16v18c0 15 0 19-2 21-1 1-2 2-80 2-94 0-117 0-118-3l-1-17V2q2-2-7-2-9-1-7 3c1 4-1 36-2 37H288l-2-2-1-18V1l-7-1h-8v4l-1 18-1 16c-2 3-8 3-59 4l-90 1c-45 0-46 0-47-7V0h-8zm158 58c-32 1-33 1-35 4s-3 43-1 45c1 1 11 2 83 2h85l28-2q3-4 2-29c0-19 0-20-7-20zm184 0c-5 1-6 5-6 31 0 20-1 19 17 19h180c4-1 4-3 4-26s0-24-4-24zm-200 68-62 1-62 1c-3 2-4 5-4 26 0 25 0 24 13 24l183-1c2-2 3-32 1-44 0-7-1-7-24-7zm120 0c-33 1-32 0-33 7-2 10-1 41 0 43 2 1 10 2 91 2h91q12 1 17-4c3-4 3-43 0-46l-2-2zm200 0c-18 0-17-1-17 29 0 22 0 22 5 22 6 1 164 2 179 1 16-1 16 1 16-25 0-23-1-26-4-27zm-286 68-40 1c-17 0-16-1-17 23 0 29 0 29 13 28l7 1h5l73-1h96c4-2 5-4 5-27 0-21 0-21-2-24l-2-2-46 1zm164 0c-6 1-6 2-6 27 0 21 0 23 2 24l111 2 84-1q4-1 4-12v-19c1-18 1-20-8-20l-9-1zm-31 68h-42c-34 0-38 1-40 2-1 2-3 37-2 44 2 6-4 6 102 6 92 0 97 0 99-2l1-14v-16q1-18-2-18c-3-1-9-2-72-2zm234 0h-48c-56 1-51 0-52 13-2 10-1 37 1 38 1 2 184 3 192 1 6-1 6-2 6-26 0-19 0-22-2-23-1-1-10-2-48-2zm-364 1-82 1c-79 0-81 0-83 2-3 3-3 46 0 48s28 2 103 1l74-1h16l1-4c3-5 3-42 1-45-1-2-29-4-30-2m-15 68-21 1-22 1c-3 1-4 5-4 27 0 20 0 21 2 22l24 1 171-2c1-2 2-5 2-25v-23l-2-1c-4-2-64-3-86-1zm170 1c-3 4-4 46-1 49 3 2 194 3 198 1l2-2v-46l-3-2-23-1H434l-42-1zm-44 67h-31c-33 0-32 0-34 4-2 3-3 43-1 45s12 3 49 2h43l53 1c53 0 54 0 55-5 2-7 1-43-1-45l-2-2zm178 0c-23 0-25 1-26 3-2 2-3 43-1 46 2 2 13 3 104 3l92 1 1-2q2-2 2-22c1-22 1-26-3-27l-66-2zm-423 1H86c-21 0-20-2-21 28 0 19 0 20 2 22l95 1 94-1 3-1c4 0 4-2 4-25 0-20 0-23-2-24z"
        mask="url(#16282281824-posters-1720553788313-horizontal-mask)" itemprop="light" fill-opacity="0.90"
        fill-rule="evenodd" stroke="none" fill="url(#16282281824-posters-1720553788313-vertical-light)"></path>
      <!---->
      <path id="16282281824-posters-1720553788313-regular"
        d="m57 2-1 18c0 25 1 24-32 23L7 44H0v16h9l111-1c44 0 40-1 41 12 2 14 0 35-2 37-2 3-19 4-106 4H0v8q0 9 2 8h25q22 0 25 2c2 1 5 21 3 27l-1 11c0 12 1 12-29 12H0v17l22-1 39-1h61c32 0 34 0 37 4 2 4 1 42-1 46s-6 4-56 4H0v16h25c32 0 28-3 28 25 0 20-1 25-4 26l-25 1H0v15h5l24 1c35-2 121-1 124 0 5 2 5 4 5 27l-2 23q-4 3-65 3l-72-1-19 1v14h28q20 0 22 4v44c-2 6-3 6-28 6l-22-1v16h76c75 0 75 0 77 2s2 3 2 21v20h15v-18c0-19 1-23 3-25 2-1 123-2 190-1 7 0 7 2 7 25v19h15v-20c0-18 1-21 2-23 2-1 33-3 47-2h76l74 1 2 2c2 2 2 5 2 22v20h14v-20c0-18 1-20 2-22l2-2h82l82 1v-9q0-8-1-7c-1 4-52 2-56-2-2-2-3-35-1-43s5-9 35-8c19 1 22 1 22-1v-14c-1 2-38 2-96 1l-43-1c-21 0-25-1-25-5-1-4 0-43 1-45 2-3 5-3 39-3h97c31 1 28 2 28-9q0-7-1-6c-1 2-51 0-53-2-2-1-4-11-3-13l1-18c0-13 1-16 2-18q5-3 38-3l16 1v-8q0-8-1-7h-99q-58 2-62-4c-2-3-1-47 2-50h126l18 1h16v-9q0-8-1-7h-50l-2-3c-3-4-3-45 1-48 2-2 7-3 30-3l22 1v-16l-76-1-79-1c-6-1-7-5-6-37 1-14 2-14 26-14l17-1h8l57 1 53 1V43l-24-1c-30 0-28 1-28-21l1-16q3-5-9-5h-7v19l1 18-3 3-3 2h-84c-92 0-110-1-111-3l-1-20V0h-6l-7 1-2 36c-1 4-1 4-100 5l-98-1c-5-2-4-1-4-24V0h-14v21c-1 16-2 19-7 20-3 1-55 2-148 2l-42-1-2-2-1-20V0h-7q-7 0-7 2m287 56h-81l-82 2c-4 2-4 5-5 26 0 20 0 21 2 23 3 2 190 2 195 0 3-2 4-4 4-26 0-21 0-24-5-24zm56 0-6 2q-3 3-3 30c0 21-1 20 20 20l178-1c5-2 5-2 5-26 0-25 0-24-11-25zm-201 68-62 2-63 1c-4 2-4 5-4 27v20l2 2c4 3 191 2 194-1 2-2 4-29 2-42-1-9 0-8-34-9zm148 0h-30l-30 1q-4 2-4 29c0 19 0 20 4 22 3 2 192 2 195 0 4-2 4-4 4-26 0-21 0-24-4-26zm171 0c-15 1-16 1-17 7-2 8-1 42 1 45 2 1 5 2 98 2h96l3-2q3-5 2-41c0-11 0-11-23-11zm-173 67-79 1c-72 1-86 1-89 3-2 1-3 16-3 30 0 16 1 20 5 21l4 1h3c1-1 61-2 136-1h45c7-2 7-2 8-27v-22l-2-3c-2-2-26-4-28-3m48 2c-3 1-4 5-4 27 0 26 0 26 10 26h97l91 1 2-3c4-3 4-45 1-49l-2-2-97-1zm-99 68c-13 0-13-1-14 27 0 19 1 24 4 24l5 1 166 1c29 0 28 0 28-10q4-44-5-43zm215 0c-9 1-11 2-12 14l1 36c2 3 2 3 98 4 104 0 100 1 102-6l1-23c0-23 0-23-9-24-7-1-170-2-181-1m-377 0-31 1c-28 1-29 1-31 3-4 3-4 45-1 48 2 2 19 3 37 2l140-1c21 0 19 1 20-23q1-27-2-29l-48-1zm88 67-21 1c-22 1-24 2-26 6v45c2 3 8 3 49 3l98-1c49 0 51 0 51-4 2-5 2-42 1-45-2-5 4-4-86-4zm176 1c-8 1-9 2-9 27l1 24c2 2-7 2 102 2 101 1 98 1 99-5 2-7 1-44-1-46-2-1-7-2-83-2zm-261 69H71l-3 3-3 3v22c0 21 0 22 2 24l42 1h88c47 0 62-1 65-3q2-2 2-30c0-16-1-20-4-20zm151 0c-6 0-7 2-7 21l-2 20q0 9 7 10l48 1h144l3-2c2-3 2-3 3-23 0-22 0-25-5-27zm218 0c-8 0-8 0-9 25 0 26 0 26 10 27l55 1 84 1h48l2-2c3-3 3-3 3-18 0-31 0-32-5-33-3-1-180-2-188-1"
        mask="url(#16282281824-posters-1720553788313-radial-mask)" itemprop="regular" fill-opacity="0.90"
        fill-rule="evenodd" stroke="none" fill="url(#16282281824-posters-1720553788313-horizontal-regular)"></path>
      <!---->
      <path id="16282281824-posters-1720553788313-medium"
        d="m57 19-2 22c-1 3-5 3-26 3L5 45H0v15h58l100-1c3 2 4 5 4 26 0 20 0 23-4 25q-4 2-104 2H0v16h25c30 0 29 0 30 11 2 12 0 37-3 39-2 2-9 3-36 3H0v15l6-1h149c5 2 5 3 5 24l-1 24c-1 6 2 6-77 6l-77 1H0v14h25c32 1 29-2 29 25 0 31 2 28-25 29H4l-4-1v15h150c8 1 8 1 8 27 0 23 0 24-6 26l-97 1H0v14h22c31 0 30-1 29 22v20c0 13 1 12-27 12H0v7c0 8-3 8 32 7h103c23 1 21-1 21 24v20h13v-16q0-24 3-26c2-2 49-3 95-3h96c7 0 8 2 8 25v20h13v-6l1-20c0-21-4-20 46-19h114l39 1c4 1 4 4 5 24v20h12v-19c1-22 1-24 7-25 3-1 117 0 145 1 18 0 17 0 17-9q0-7-1-6c0 2-4 2-35 1l-19-1-3-2c-2-3-2-4-2-11v-10l2-27c2-4 5-4 32-4h26v-8q0-7-1-6l-57 1-66-2-39-1c-4-2-4-6-4-24 1-24 2-27 6-28l100-1h33l15 1h13v-8q0-8-1-7c0 2-38 2-49 0-7-1-8-5-7-34 1-21-1-20 34-20h23v-7q0-7-1-6H651c-22 0-41-1-43-4s-3-32-1-45l1-7 81 1h81v-14h-25c-34 0-31 2-30-28v-22l2-3 3-2h24l25 1 1-8v-8h-42c-100 0-115 0-117-2s-4-12-3-14l1-16c0-22 0-22 27-22l21-1 56 1 56 1c1 1 2-13 0-14q-1-2-24-2h-23l-3-2-2-2V19l1-18h-13l-1 18c-1 26 4 23-41 23h-35l1 3q0 4-1 2l-2-3c0-2-2-2-30-2-92 0-90 0-92-2-3-2-3-8-3-37q1-4-6-3l-5 1-1 5-2 32c-1 4-1 4-101 4h-97l-3-2-2-2V1l-6-1-6 1-1 18c-1 22-1 22-9 23l-38 1c-28 0-32 0-33 2l-2-1-56-1c-61 1-61 1-62-5V0H57zm361 38c-29 1-27 0-27 17v22c0 10 0 12 4 14l99 1h96l2-3c2-2 3-3 3-20 0-23-1-28-4-30-3-1-127-2-173-1m-216 1c-27 1-26-1-26 24v20q-1 4 1 7l3 2h95l97-1c5-2 5-4 5-26 0-23 0-24-4-26zm-2 68h-43l-84 3c-3 1-4 4-4 26v20l2 3 3 2h94l97-1c3-2 4-6 4-26 0-22-1-26-4-26zm104 0c-20 1-20 1-21 9-2 12-1 41 1 43 2 1 5 2 50 2 154 0 149 0 151-4s2-46 0-49c-2-2-131-2-181-1m203 0c-6 0-6 2-7 24-1 23-1 26 2 28 2 2 5 2 97 2h97c5-2 6-5 6-28 0-21 0-21-2-24l-3-2-93-1zm-300 68c-27 1-30 2-32 5l-1 23c0 24 0 26 5 26l4 2h4l116-1c71-1 69 0 71-6l2-23v-21l-2-3-3-2zm188 0q-6 1-6 9l-1 19q0 25 3 25c3 2 77 3 161 2 32 0 35 0 37-2s2-3 3-23c2-32 3-30-24-30zm-95 68q-15 0-17 2c-4 3-5 46-1 49 3 4 8 4 77 4h92l28-1c5-2 5-4 6-26 0-23 0-25-6-27-4-1-151-2-179-1m282 0h-39c-41 1-43 1-45 5l-1 24v22l3 2 2 2h47c88 1 142 0 145-1 5-2 5-4 6-25 0-22 0-25-5-27l-48-2zm-378 1h-66c-74 1-69 0-70 8-2 7-2 39-1 42 2 5 4 5 51 5l89-1 51-1c8-1 8-1 9-26 0-23 0-27-4-27zm-6 68-21 1-3 2c-2 3-2 3-3 28 0 23 0 23 15 23l13 1h3l19-1c123 1 151 0 151-4l1-27c0-20 0-22-5-23zm193 0c-4 2-5 7-5 29v20l3 2 2 3h50l145-1c4-1 4-4 5-24 0-20-1-26-4-28l-50-1zm-257 68-33 1H70l-3 2c-2 3-2 4-3 23-1 32-4 29 37 29h92c64-1 68-1 70-5 2-3 3-41 1-46-1-3-4-4-17-4zm152 0-7 4-1 6c0 19-1 33-2 34q-1 5 5 8c3 1 192 2 195 1 6-2 6-4 6-27s0-24-5-26zm223 0c-14 1-14 0-14 28-1 24-1 23 7 25 3 1 56 2 147 2 53 0 48 1 48-13l1-14c1-13-1-26-4-26-6-2-171-3-185-2"
        mask="url(#16282281824-posters-1720553788313-vertical-mask)" itemprop="medium" fill-opacity="0.90"
        fill-rule="evenodd" stroke="none" fill="url(#16282281824-posters-1720553788313-vertical-medium)"></path>
      <!---->
      <path id="16282281824-posters-1720553788313-bold"
        d="m58 3-2 38c-2 4-3 4-32 4H0v6l1 7h98c70 0 62-2 63 15l2 14-1 4-1 9c0 14 8 13-99 13H0v14h50l3 2q4 4 3 35c-1 18 0 18-49 18H0v13l30-1h76l3-1 13 1c42-1 39-3 39 26 0 22-1 25-5 28-2 2-7 2-71 2l-77 1H0v12h11l38 1c5 0 6 5 6 25 0 31 1 30-32 30H0v12l6 1 17-1h2l5 1c12-2 117-2 121-1 8 2 8 2 8 27s0 25-7 28c-3 1-71 2-96 1H0v12h8c42 0 42 0 44 6 1 4 0 41-1 45q-1 3-4 4H0v7q0 7 2 6h74c80 0 78 0 80 6l1 21-1 18h12v-20l2-21q0-4 22-4l16-1 1-2 1 1c-1 2 6 2 78 2h79l2 2c2 3 2 3 2 30v13h13v-20c0-21 1-24 5-25l46-1h94c55 0 57 0 59 5 2 3 3 29 1 34q-3 7 7 7h5v-20c0-24 0-24 11-25h136c24 1 22 2 22-8q0-6-1-5c0 2-2 2-24 2-37 0-36 1-35-28 0-30-1-29 26-29l23 1c10 0 11 0 11-8q0-6-1-5c-1 1-148 0-158-2-8-1-8-1-8-22 0-26 1-29 5-31 3-2 39-3 93-1l39-1h4c2 2 17 3 20 1h3q3 3 3-7v-5h-25c-36 0-34 3-33-34l-1-7v-2l2-5 2-6c3-2 3-2 37-2h18v-12l-78-1c-86 0-84 0-86-6l1-50h163v-12h-19c-36 0-38-1-38-17 0-15 0-18-1-17l-1-2 1-2q2 0 2-7l3-9c2-2 14-4 16-3h24l13 1v-14h-7l-152-2q-4-4-4-18l1-18c1-17 1-17 27-18l75 1h60V44h-18c-36 0-36 1-35-24V2h-12v17c0 17 0 18-2 21-3 3 1 3-52 3q-25 0-22 1v4q-2 0-3-3l-3-2h-57l-31-1c-38 0-34 3-34-22V2h-11v9q0 29-5 31l-69 1H297c-14-1-14-2-14-24l1-17h-6q-8-1-6 3v17c-1 23 3 21-45 22-31 0-34 0-36 2h-2c-2-2-6-2-58-2l-58-1q-4-1-3-25V2h-6zm308 51q-2 2 1 2c1 1-38 1-87 1-104 0-101 0-104 7-2 6-1 43 1 45 1 2 10 4 11 3h158l16-1c18-1 17 1 16-43q0-11-6-11-3 0-3-2-2-3-3-1m75 2h-23l-23 2c-4 1-5 5-5 27s0 24 4 26c4 1 195 0 197-1 5-2 5-6 5-27-1-28 1-26-22-27zm-241 69-52 1c-83 0-79 0-80 13v17c0 18 0 19 3 22l2 3h191l3-2 3-3v-22l-1-25c-2-4 0-3-35-4zm121-1-17 1c-19 1-20 1-21 8-2 10-2 37-1 41 2 7-4 7 102 7 102 0 98 0 102-5 1-2 3-37 1-44-1-8 3-8-83-7h-81zm186 1c-7 3-8 4-8 32l-1 18 3 3 3 3h96c95 0 96 0 99-2s4-8 4-31c-1-25 2-23-34-23zm-41 67-36 1-38 1c-4 3-4 5-5 27 0 21 1 25 5 27 2 1 74 3 110 2h48c34 0 37 0 39-2q4-4 4-12t2-6l2-1q0-2-2-2c-2 1-2 0-2-14 0-18 0-18-9-19l-60-1-55-1-1-1zm-256 1c-30 1-33 2-35 6-2 3-2 39-1 45q0 4 7 6 11 4 9 1l29-1 37-1 65 1c41 0 45 0 51-3 3-2 4-5 4-28v-21l-2-3-3-2zm373 67-55 1q-25 0-29 3c-4 5-5 47 0 51l6 2c89 2 184 2 188 0q6-3 7-10v-19c1-17 1-22-3-24q-5-3-67-3l-44-1q-2-3-3 0m-382 2-70 1c-61 0-60 0-62 3-2 2-3 3-3 24 0 32-5 29 48 29h40q0 2 2 3v-3c-2-1-8-1 53-2 51 0 53 0 55-2q3-4 4-15 0-4 2-4v-3q-2 2-2-12c0-20-1-20-24-20h-16zm136-1h-52l-2 2c-3 3-3 3-3 18l-2 17c-1 2 2 14 4 16 2 3 8 3 80 3l72 1 36-1c9 0 10 0 13-2l2-3v-23l-1-24c-3-4-20-5-147-4m215 67c0 2-16 2-65 2h-96c-5 3-5 5-5 29 0 28-2 26 19 26 70 0 84 0 86 2q1 3 2 1l17-2h52c31 0 29 2 29-30v-22l-3-2c-2-2-4-2-18-2s-16 0-15-1l-1-2zm-352 2c-22 1-25 1-28 6-2 4-2 43 0 47q2 3 18 3l9 1h3a106 106 0 0 1 33-1l47-1c91 0 86 0 89-2 3-3 4-48 1-52l-77-1zm367 68c-73 1-70 0-72 6l-1 41q1 7 9 8l49 1 45 1 1 2q2 0 1-2l28-1c76 2 71 3 71-14l1-15 2-2v-3q-2 1-2-6 0-14-6-14l-28-2zm-482 1c-17 1-18 1-20 5-2 5-2 46 0 48s13 4 22 3l124-1c51-1 51-1 53-6v-47l-4-2zm196 1-3 1-1 20-1 21c-1 2 1 8 4 10l100 1 97 1 2-3c5-5 6-48 1-52-4-2-195-2-199 1"
        mask="url(#16282281824-posters-1720553788313-horizontal-mask)" itemprop="bold" fill-opacity="0.90"
        fill-rule="evenodd" stroke="none" fill="url(#16282281824-posters-1720553788313-vertical-bold)"></path>
    </pattern>
    <rect id="16282281824-posters-1720553788313-pattern-render" fill="url(#16282281824-posters-1720553788313-pattern)"
      width="100%" height="100%"></rect>
  </defs>
  <radialGradient id="lightbar" cx="50%" cy="200%" fy="0" r="201%">
    <stop offset="0%" style="stop-color: rgb(255, 255, 255); stop-opacity: 0.1;"></stop>
    <stop offset="10%" style="stop-color: rgb(0, 0, 0); stop-opacity: 0.1;"></stop>
    <stop offset="30%" style="stop-color: rgb(0, 0, 0); stop-opacity: 0.3;"></stop>
    <stop offset="90%" style="stop-color: rgb(0, 0, 0); stop-opacity: 0.55;"></stop>
    <stop offset="100%" style="stop-color: rgb(0, 0, 0); stop-opacity: 0.6;"></stop>
  </radialGradient>
  <g class="radial">
    <radialGradient id="16282281824-posters-1720553788313-radial" gradientUnits="userSpaceOnUse">
      <stop itemprop="radial" stop-color="#b2b0ae" offset="0%"></stop>
      <stop itemprop="radial" stop-color="#c6c5c3" offset="15%"></stop>
      <stop itemprop="radial" stop-color="#b2b0ae" offset="30%"></stop>
      <stop itemprop="radial" stop-color="#b5b3b0" offset="45%"></stop>
      <stop itemprop="radial" stop-color="#b9b8b6" offset="60%"></stop>
      <stop itemprop="radial" stop-color="#c1c0be" offset="75%"></stop>
      <stop itemprop="radial" stop-color="#b5b3b0" offset="90%"></stop>
    </radialGradient>
    <radialGradient id="16282281824-posters-1720553788313-radial-background" gradientUnits="userSpaceOnUse">
      <stop stop-color="#d3cdc5" offset="0%"></stop>
      <stop stop-color="#d3cdc5" offset="15%"></stop>
      <stop stop-color="#d3cdc5" offset="30%"></stop>
      <stop stop-color="#d3cec5" offset="45%"></stop>
      <stop stop-color="#d3cec5" offset="60%"></stop>
      <stop stop-color="#d3cec5" offset="75%"></stop>
      <stop stop-color="#d3cec5" offset="90%"></stop>
    </radialGradient>
    <radialGradient id="16282281824-posters-1720553788313-radial-light" gradientUnits="userSpaceOnUse">
      <stop stop-color="#9c9996" offset="0%"></stop>
      <stop stop-color="#9c9a96" offset="15%"></stop>
      <stop stop-color="#9c9996" offset="30%"></stop>
      <stop stop-color="#9c9a96" offset="45%"></stop>
      <stop stop-color="#9b9a97" offset="60%"></stop>
      <stop stop-color="#9b9a97" offset="75%"></stop>
      <stop stop-color="#9c9a96" offset="90%"></stop>
    </radialGradient>
    <radialGradient id="16282281824-posters-1720553788313-radial-regular" gradientUnits="userSpaceOnUse">
      <stop stop-color="#83807c" offset="0%"></stop>
      <stop stop-color="#83807c" offset="15%"></stop>
      <stop stop-color="#83807c" offset="30%"></stop>
      <stop stop-color="#83817c" offset="45%"></stop>
      <stop stop-color="#82807d" offset="60%"></stop>
      <stop stop-color="#82807d" offset="75%"></stop>
      <stop stop-color="#83817c" offset="90%"></stop>
    </radialGradient>
    <radialGradient id="16282281824-posters-1720553788313-radial-medium" gradientUnits="userSpaceOnUse">
      <stop stop-color="#514f4d" offset="0%"></stop>
      <stop stop-color="#51504d" offset="15%"></stop>
      <stop stop-color="#514f4d" offset="30%"></stop>
      <stop stop-color="#51504d" offset="45%"></stop>
      <stop stop-color="#51504d" offset="60%"></stop>
      <stop stop-color="#51504d" offset="75%"></stop>
      <stop stop-color="#51504d" offset="90%"></stop>
    </radialGradient>
    <radialGradient id="16282281824-posters-1720553788313-radial-bold" gradientUnits="userSpaceOnUse">
      <stop stop-color="#2f2e2d" offset="0%"></stop>
      <stop stop-color="#2f2e2d" offset="15%"></stop>
      <stop stop-color="#2f2e2d" offset="30%"></stop>
      <stop stop-color="#2f2e2d" offset="45%"></stop>
      <stop stop-color="#2f2e2d" offset="60%"></stop>
      <stop stop-color="#2f2e2d" offset="75%"></stop>
      <stop stop-color="#2f2e2d" offset="90%"></stop>
    </radialGradient>
  </g>
  <g class="vertical">
    <linearGradient id="16282281824-posters-1720553788313-vertical" gradientUnits="userSpaceOnUse" x1="0" x2="0" y1="0"
      y2="100%">
      <stop itemprop="vertical" stop-color="#b2b0ae" offset="0%"></stop>
      <stop itemprop="vertical" stop-color="#c6c5c3" offset="15%"></stop>
      <stop itemprop="vertical" stop-color="#b2b0ae" offset="30%"></stop>
      <stop itemprop="vertical" stop-color="#b5b3b0" offset="45%"></stop>
      <stop itemprop="vertical" stop-color="#b9b8b6" offset="60%"></stop>
      <stop itemprop="vertical" stop-color="#c1c0be" offset="75%"></stop>
      <stop itemprop="vertical" stop-color="#b5b3b0" offset="90%"></stop>
    </linearGradient>
    <linearGradient id="16282281824-posters-1720553788313-vertical-background" gradientUnits="userSpaceOnUse" x1="0"
      x2="0" y1="0" y2="100%">
      <stop stop-color="#ceccca" offset="0%"></stop>
      <stop stop-color="#ceccca" offset="15%"></stop>
      <stop stop-color="#ceccca" offset="30%"></stop>
      <stop stop-color="#cecdca" offset="45%"></stop>
      <stop stop-color="#cdcccb" offset="60%"></stop>
      <stop stop-color="#cdcccb" offset="75%"></stop>
      <stop stop-color="#cecdca" offset="90%"></stop>
    </linearGradient>
    <linearGradient id="16282281824-posters-1720553788313-vertical-light" gradientUnits="userSpaceOnUse" x1="0" x2="0"
      y1="0" y2="100%">
      <stop stop-color="#ae9b84" offset="0%"></stop>
      <stop stop-color="#ae9d84" offset="15%"></stop>
      <stop stop-color="#ae9b84" offset="30%"></stop>
      <stop stop-color="#aea084" offset="45%"></stop>
      <stop stop-color="#aea084" offset="60%"></stop>
      <stop stop-color="#aea084" offset="75%"></stop>
      <stop stop-color="#aea084" offset="90%"></stop>
    </linearGradient>
    <linearGradient id="16282281824-posters-1720553788313-vertical-regular" gradientUnits="userSpaceOnUse" x1="0" x2="0"
      y1="0" y2="100%">
      <stop stop-color="#83807c" offset="0%"></stop>
      <stop stop-color="#83807c" offset="15%"></stop>
      <stop stop-color="#83807c" offset="30%"></stop>
      <stop stop-color="#83817c" offset="45%"></stop>
      <stop stop-color="#82807d" offset="60%"></stop>
      <stop stop-color="#82807d" offset="75%"></stop>
      <stop stop-color="#83817c" offset="90%"></stop>
    </linearGradient>
    <linearGradient id="16282281824-posters-1720553788313-vertical-medium" gradientUnits="userSpaceOnUse" x1="0" x2="0"
      y1="0" y2="100%">
      <stop stop-color="#514f4d" offset="0%"></stop>
      <stop stop-color="#51504d" offset="15%"></stop>
      <stop stop-color="#514f4d" offset="30%"></stop>
      <stop stop-color="#51504d" offset="45%"></stop>
      <stop stop-color="#51504d" offset="60%"></stop>
      <stop stop-color="#51504d" offset="75%"></stop>
      <stop stop-color="#51504d" offset="90%"></stop>
    </linearGradient>
    <linearGradient id="16282281824-posters-1720553788313-vertical-bold" x1="0" x2="0" y1="0" y2="100%">
      <stop stop-color="#2f2e2d" offset="0%"></stop>
      <stop stop-color="#2f2e2d" offset="15%"></stop>
      <stop stop-color="#2f2e2d" offset="30%"></stop>
      <stop stop-color="#2f2e2d" offset="45%"></stop>
      <stop stop-color="#2f2e2d" offset="60%"></stop>
      <stop stop-color="#2f2e2d" offset="75%"></stop>
      <stop stop-color="#2f2e2d" offset="90%"></stop>
    </linearGradient>
  </g>
  <g class="horizontal">
    <linearGradient id="16282281824-posters-1720553788313-horizontal" x1="0" x2="100%" y1="0" y2="0"
      gradientUnits="userSpaceOnUse">
      <stop itemprop="horizontal" stop-color="#b9b8b6" offset="0%"></stop>
      <stop itemprop="horizontal" stop-color="#b9b8b6" offset="15%"></stop>
      <stop itemprop="horizontal" stop-color="#b9b8b6" offset="30%"></stop>
      <stop itemprop="horizontal" stop-color="#b9b8b6" offset="45%"></stop>
      <stop itemprop="horizontal" stop-color="#bcbbb9" offset="60%"></stop>
      <stop itemprop="horizontal" stop-color="#b9b8b6" offset="75%"></stop>
      <stop itemprop="horizontal" stop-color="#b9b8b6" offset="90%"></stop>
    </linearGradient>
    <linearGradient id="16282281824-posters-1720553788313-horizontal-background" gradientUnits="userSpaceOnUse" x1="0"
      x2="100%" y1="0" y2="0">
      <stop stop-color="#cdcccb" offset="0%"></stop>
      <stop stop-color="#cdcccb" offset="15%"></stop>
      <stop stop-color="#cdcccb" offset="30%"></stop>
      <stop stop-color="#cdcccb" offset="45%"></stop>
      <stop stop-color="#cdcccb" offset="60%"></stop>
      <stop stop-color="#cdcccb" offset="75%"></stop>
      <stop stop-color="#cdcccb" offset="90%"></stop>
    </linearGradient>
    <linearGradient id="16282281824-posters-1720553788313-horizontal-light" gradientUnits="userSpaceOnUse" x1="0"
      x2="100%" y1="0" y2="0">
      <stop stop-color="#9b9a97" offset="0%"></stop>
      <stop stop-color="#9b9a97" offset="15%"></stop>
      <stop stop-color="#9b9a97" offset="30%"></stop>
      <stop stop-color="#9b9a97" offset="45%"></stop>
      <stop stop-color="#9b9a97" offset="60%"></stop>
      <stop stop-color="#9b9a97" offset="75%"></stop>
      <stop stop-color="#9b9997" offset="90%"></stop>
    </linearGradient>
    <linearGradient id="16282281824-posters-1720553788313-horizontal-regular" gradientUnits="userSpaceOnUse" x1="0"
      x2="100%" y1="0" y2="0">
      <stop stop-color="#968769" offset="0%"></stop>
      <stop stop-color="#968769" offset="15%"></stop>
      <stop stop-color="#968769" offset="30%"></stop>
      <stop stop-color="#968769" offset="45%"></stop>
      <stop stop-color="#968769" offset="60%"></stop>
      <stop stop-color="#968769" offset="75%"></stop>
      <stop stop-color="#968269" offset="90%"></stop>
    </linearGradient>
    <linearGradient id="16282281824-posters-1720553788313-horizontal-medium" gradientUnits="userSpaceOnUse" x1="0"
      x2="100%" y1="0" y2="0">
      <stop stop-color="#5d5441" offset="0%"></stop>
      <stop stop-color="#5d5441" offset="15%"></stop>
      <stop stop-color="#5d5441" offset="30%"></stop>
      <stop stop-color="#5d5441" offset="45%"></stop>
      <stop stop-color="#5d5441" offset="60%"></stop>
      <stop stop-color="#5d5441" offset="75%"></stop>
      <stop stop-color="#5d5041" offset="90%"></stop>
    </linearGradient>
    <linearGradient id="16282281824-posters-1720553788313-horizontal-bold" gradientUnits="userSpaceOnUse" x1="0"
      x2="100%" y1="0" y2="0">
      <stop stop-color="#2f2e2d" offset="0%"></stop>
      <stop stop-color="#2f2e2d" offset="15%"></stop>
      <stop stop-color="#2f2e2d" offset="30%"></stop>
      <stop stop-color="#2f2e2d" offset="45%"></stop>
      <stop stop-color="#2f2e2d" offset="60%"></stop>
      <stop stop-color="#2f2e2d" offset="75%"></stop>
      <stop stop-color="#2f2e2d" offset="90%"></stop>
    </linearGradient>
  </g>
  <g class="masks">
    <mask id="16282281824-posters-1720553788313-pattern-mask" maskUnits="userSpaceOnUse"
      maskContentUnits="userSpaceOnUse">
      <pattern id="pattern" x="0" y="0" width=".0133" height=".0144" viewBox="0 0 23.07 40">
        <path
          d="M17.62 0l-6.07 10.5m2.74 4.76L8.22 4.75m-5.48 0h12.13M.01 0h23.07M6.07 20L0 9.5m2.74-4.75l-6.07 10.5m-5.48 0H3.33m8.2 4.75L0 .02-11.54 20m40.68 0L23.07 9.5m2.74-4.75l-6.06 10.5m-5.49 0H26.4M34.6 20L23.08.02 11.53 20m-5.46 0L0 30.51m2.74 4.75l-6.07-10.5m-5.48 0H3.33m8.2-4.75L0 40l-11.54-19.98zM17.6 40l-6.06-10.5m2.74-4.76L8.2 35.25m-5.48 0h12.13M0 40h23.07L11.54 20.01m17.6 0l-6.07 10.5m2.74 4.75l-6.06-10.5m-5.49 0H26.4M11.53 20h23.08L23.07 40"
          stroke-linecap="round" stroke-width="3.5" stroke="white"
          fill="url(#16282281824-posters-1720553788313-horizontal-background)"></path>
      </pattern>
      <rect width="100%" height="100%" fill="url(#pattern)"></rect>
    </mask>
    <mask id="16282281824-posters-1720553788313-horizontal-mask" maskUnits="userSpaceOnUse"
      maskContentUnits="userSpaceOnUse">
      <rect width="100%" height="100%" fill="url(#16282281824-posters-1720553788313-horizontal-background)"></rect>
    </mask>
    <mask id="16282281824-posters-1720553788313-radial-mask" maskUnits="userSpaceOnUse"
      maskContentUnits="userSpaceOnUse">
      <rect width="100%" height="100%" fill="url(#16282281824-posters-1720553788313-radial-background)"></rect>
    </mask>
    <mask id="16282281824-posters-1720553788313-vertical-mask" maskUnits="userSpaceOnUse"
      maskContentUnits="userSpaceOnUse">
      <rect width="100%" height="100%" fill="url(#16282281824-posters-1720553788313-vertical-background)"></rect>
    </mask>
  </g>
  <use href="#16282281824-posters-1720553788313-pattern-render"></use>
  <g>
    <use href="#16282281824-posters-1720553788313-background"></use>
    <use href="#16282281824-posters-1720553788313-light"></use>
    <use href="#16282281824-posters-1720553788313-regular"></use>
    <use href="#16282281824-posters-1720553788313-medium"></use>
    <use href="#16282281824-posters-1720553788313-bold"></use>
  </g>
  <g itemprop="animation">
    <animate href="#16282281824-posters-1720553788313-light" attributeName="stroke-opacity" repeatCount="indefinite"
      dur="5s" values="0.9;0.0;0.9"></animate>
    <animate href="#16282281824-posters-1720553788313-regular" attributeName="stroke-opacity" repeatCount="indefinite"
      dur="4s" values="0.9;0;0.9"></animate>
    <animate href="#16282281824-posters-1720553788313-medium" attributeName="stroke-opacity" repeatCount="indefinite"
      dur="5s" values="0.9;0;0.9"></animate>
    <animate href="#16282281824-posters-1720553788313-bold" attributeName="stroke-opacity" repeatCount="indefinite"
      dur="3s" values="0.9;0;0.9"></animate>
    <animate href="#16282281824-posters-1720553788313-regular" attributeName="fill-opacity" repeatCount="indefinite"
      dur="8s" values="0.9;0.75;0.95;0.8;0.9;"></animate>
    <animate href="#16282281824-posters-1720553788313-radial-background" attributeName="cx" repeatCount="indefinite"
      dur="34s" values="0%;33%;100%;0%;100%;0%;"></animate>
    <animate href="#16282281824-posters-1720553788313-radial-background" attributeName="cy" repeatCount="indefinite"
      dur="55s" values="0%;100%;33%;100%;66%;0%"></animate>
    <animate href="#16282281824-posters-1720553788313-vertical-light" attributeName="x1" repeatCount="indefinite"
      dur="55s" values="0%;33%;100%;0%;133%;0%;"></animate>
    <animate href="#16282281824-posters-1720553788313-vertical-light" attributeName="y1" repeatCount="indefinite"
      dur="86s" values="0%;100%;33%;100%;66%;0%"></animate>
    <animate href="#16282281824-posters-1720553788313-horizontal-regular" attributeName="x1" repeatCount="indefinite"
      dur="34s" values="0%;100%;66%;0%;33%;133%;0%"></animate>
    <animate href="#16282281824-posters-1720553788313-horizontal-regular" attributeName="y1" repeatCount="indefinite"
      dur="55s" values="0%;66%;100%;33%;100%;66%;0%"></animate>
    <animate href="#16282281824-posters-1720553788313-vertical-medium" attributeName="x1" repeatCount="indefinite"
      dur="34s" values="0%;100%;66%;0%;33%;133%;0%"></animate>
    <animate href="#16282281824-posters-1720553788313-vertical-medium" attributeName="y1" repeatCount="indefinite"
      dur="55s" values="0%;66%;100%;33%;100%;66%;0%"></animate>
    <animate href="#16282281824-posters-1720553788313-vertical-bold" attributeName="x1" repeatCount="indefinite"
      dur="34s" values="0%;100%;66%;0%;33%;133%;0%"></animate>
    <animate href="#16282281824-posters-1720553788313-vertical-bold" attributeName="y1" repeatCount="indefinite"
      dur="55s" values="0%;66%;100%;33%;100%;66%;0%"></animate>
  </g>
</svg>
