<svg id="16282281824-posters-1720553451570" itemscope="" itemtype="/posters"
  itemid="/+16282281824/posters/1720553451570" viewBox="0 0 769 512" preserveAspectRatio="xMidYMid meet" tabindex="0"
  class="animate landscape" xmlns="http://www.w3.org/2000/svg">
  <!---->
  <defs class="graphic">
    <pattern id="16282281824-posters-1720553451570-pattern" width="769" height="512" viewBox="0 0 769 512"
      patternUnits="userSpaceOnUse" preserveAspectRatio="xMidYMid meet">
      <rect itemprop="background" width="769" height="512" tabindex="-1"
        id="16282281824-posters-1720553451570-background" fill-opacity="1"
        fill="url(#16282281824-posters-1720553451570-radial-background)"></rect>
      <!---->
      <path id="16282281824-posters-1720553451570-light"
        d="M0 8q0 8 2 7l6 3c7 8 10 7 20-2 6-6 7-7 4-13q-1-4-6-3h-5v3q2 4-1 6l-2 4q-1 3-3-2-2-4-9-4-4 0 0-4 4-3-2-3H0zm63-5q-3 8 7 11 6 1 7 4 8 11 18-1l5-3q5-3 2-10 0-5-7-4h-5l1 3v4l-3 4q-2 5-4 1-1-5-7-5-7 1-2-5l2-2h-6c-7 0-7 0-8 3m68-1q-2 8 7 12l8 5q6 8 17-3 11-7 7-13 0-3-7-3l-5 1 1 1q3 2-1 5l-3 4q-2 5-4 0t-8-4q-4-1-1-4 6-4-4-3-7 0-7 2m68 1q-2 3 2 7l6 3 6 3q10 11 15 3l7-6c7-5 5-13-3-13q-5 0-3 2l-3 7c-4 6-4 5-8-1l-4-1q-8 0-5-4 5-4-3-3-7-1-7 3m68-1q-1 9 8 11 3 0 7 4 8 11 18-2 8-6 7-10 1-5-6-5-6-1-5 3 2 3-1 4l-3 4-2 1-2-1q0-5-7-5-6 0-2-3t-5-3q-7 0-7 2m69 0q-3 4 2 7l6 4q3 0 7 5c7 6 9 6 18-3q10-9 6-13c-2-3-9-3-9 0l-2 5-3 5h-3q-4-7-8-6-7 0-3-4 3-2-4-2t-7 2m67 0q-1 8 11 10l5 4q4 5 9 5c2 0 17-14 17-16q-1-5-7-5-6-1-5 3l-1 3q-2 0-2 3-4 5-5 1 0-4-7-4-5 0-4-3c0-4-10-5-11-1m69 0q0 4 8 7l8 5c6 6 9 6 18-3q14-11 2-11-6-1-8 5-5 7-7 1-1-3-6-3t-5-2l-5-1q-5 0-5 2m68 0q1 5 9 7 4 1 6 4 6 11 19-3 12-11 1-10-6 0-10 7-2 5-5-1-1-4-6-3l-4-1q-1-2-6-2-6 0-4 2m67-1q2 4 9 6l7 5q7 10 19-2 12-11 1-10-5-1-8 4l-4 5-3-4-6-3-4-1zm69 0c0 2 6 6 9 6l6 4q8 9 16 0l7-6q6-5-3-5-7 0-10 7l-1 3-2-3-3-4c-2-2-19-4-19-2m69 1q4 5 10 5 3 0 5 3 3 5 8 6l1-4q1-5-2-5l-2-2q0-5-12-5c-9 0-9 0-8 2M616 50l-3 6-2 5c-5 7-2 15 7 15l6 5q6 9 16-2l5-4q5-5 2-11l-2-6q0-9-10-9l-9-1q-5-4-10 2m70-3q-4 3-5 9l-3 6q-4 5-2 7c1 4 7 7 10 7q3 0 5 3 4 6 10 5l8-6q10-9 5-12l-1-6q0-11-10-11l-9-1q-5-3-8-1m67 2-3 6-3 7-3 6c0 2 6 7 10 8l7 4q9 11 9-7 0-22-2-24l-5-1q-6-4-10 1m-272 0q-3 1-3 7-1 4-4 7c-4 5 0 14 6 14l8 4c7 7 9 6 18-3l7-7-2-5-2-8q-1-9-10-8l-7-1q-6-3-11 0m68 0q-3 0-4 8l-3 5c-5 6-2 14 5 14q4 0 8 5c6 6 9 6 17-2q11-9 5-14l-1-6q-1-11-11-9l-6-1q-6-3-10 0m-272 3q-4 2-5 8l-2 6q-6 7-1 12l6 3q3 0 7 5 9 9 16 0l5-5q6-3 4-10l-3-8q0-6-3-8l-3-3-4 2h-6q-7-3-11-2m69 0q-3 2-5 10-1 4-4 6c-4 4 0 12 7 13l7 5q8 10 18-2 11-10 5-15l-1-6q0-9-10-9l-8-1q-5-3-9-1M71 55l-4 7q0 3-3 7-8 10 10 15l4 3c1 6 10 6 16-1l5-4q6-2 2-11l-2-7q0-9-10-9l-9-1q-4-4-9 1m70-2q-6 3-6 8l-3 7q-6 12 6 14l6 4q9 11 18 0l5-4c3 0 4-7 1-13l-1-6q1-9-11-8l-8-1q-4-3-7-1m67 1-4 8-2 5q-7 12 5 15 3 0 7 4 8 11 21-4 8-6 2-13l-1-6q0-8-9-8l-8-2q-6-3-11 1m203 1-2 5q0 4-3 7-7 12 7 14l6 4q7 9 15 0l7-6q5-5 2-8l-2-7q-2-11-10-10-5 1-7-1-9-3-13 2M3 54c-3 2-3 30 0 30l6 5c7 6 10 5 19-5q9-8 3-14l-1-5q1-10-10-8l-6-1q-5-3-11-2m551 5q0 3-3 5-4 5 1 6 7 0 8 4 2 6 7-1c4-7 3-14-2-13l-8-2-3-2zm68 0-2 6q-7 5 4 5l4 3q3 6 5 2l3-4q2-2 1-8 1-6-3-4-6 1-8-1-4-4-4 1m68 0q0 3-3 5-3 5 1 5 7 0 9 4 3 5 4 2l3-4q4-5 1-8l-1-3q3-3-4-1l-6-1q-3-4-4 1m69-1q0 3-3 5-6 6 2 6 5 0 7 5 4 7 4-6v-8l-4-2q-7-4-6 0m-272 2-2 5q-6 5 0 5 7 0 8 5 1 4 4 0l2-4c2-2 2-13 0-11q-4 2-8-1t-4 1m-69 3-2 6q-6 6 3 6 4-1 7 6l3-2 2-3 2-4-1-5q1-4-4-3-3 2-6-1-4-4-4 0m-204 1-2 6q-5 6 2 5 3 0 5 3 3 8 6 0c3-4 4-14 1-13h-3q-2 1-5-1-4-4-4 0m68 1-2 5q-5 4 2 4 5-1 6 4 2 4 4 1l2-3 2-2v-2l-1-5q1-4-4-2l-6-1q-3-4-3 1m69 0q0 3-3 5-4 4 2 4 2-1 6 4 5 4 5 1l2-4q2-2 1-6 0-5-5-4l-5-1q-3-4-3 1M78 65l-3 5q-3 7 2 6 4 0 7 5 2 5 4 0l2-5q3-2 1-5-1-8-2-5-3 3-8-1-4-3-3 0M8 66l-2 5q-6 6 2 6 4-1 6 3 4 5 4 2l3-4q3-2 1-8-1-4-4-3-4 2-5-1-5-4-5 0m138 0-3 5q-6 4 3 4 4 0 5 4l2 4 2-3 2-3V65l-1 1c0 2-6 1-7 0q-4-4-3 0m471 51-4 6q0 3-4 10a6 6 0 0 0 3 10l4 1 8 5q10 8 16-1l4-5q6-3 3-10l-2-5q0-10-10-10l-8-2q-5-3-10 1m67 0-3 6-2 7q-7 11 6 14l7 5q8 9 15-2l4-3q6-4 3-11l-2-7q1-8-9-8l-8-1q-6-4-11 0m68 0-2 6-4 8q-6 8 6 12l7 4c4 5 10 7 10 4v-29c-1-6-12-9-17-5m-202 0-4 5-5 9q-6 11 6 15 5 1 9 5 3 4 7 3 6-2 8-6l4-3q6-5 3-12l-2-7q0-9-9-8-5 1-8-1zm-70 2-3 6q0 4-3 7-6 11 5 14c4 0 10 5 10 7l3 2q5 2 12-5l5-6q5-2 2-10l-3-9q-3-8-10-6l-5-1q-9-3-13 1m-65 1q-6 0-6 8l-4 7q-7 10 8 14l6 4q6 10 16 1l6-7q5-4 1-9l-1-6q0-12-11-10l-7-1q-4-3-8-1m-206 1q-4 2-5 9l-3 7c-5 5-2 12 7 13l7 5c6 6 9 6 17-2s9-9 6-14l-2-8q0-8-10-8l-9-1q-4-3-8-1m68 0q-4 3-5 10l-2 5q-4 3-3 8 2 4 8 6 3 0 7 5 9 9 17 0l6-7q5-3 2-8l-2-8q0-10-11-9l-7-1c-1-1-7-2-10-1m67 1q-3 1-3 6l-4 8q-5 11 7 14l7 4q7 10 19-3 11-10 2-16v-3q3-7-9-9l-8-2q-5-3-11 1m-269 0-2 1q-4 1-6 8l-2 6-2 3-1 2c-2 2 3 8 8 10l9 5q7 7 16-2l6-5q4-1 1-9l-2-8q-2-12-12-10h-8zm65 0q-5 1-5 9l-3 6c-5 4-2 13 5 14q4 0 7 4 7 6 11 5 3-1 7-6l4-3q8-4 3-12l-2-8q1-7-11-8l-9-1zM3 123c-3 1-3 27 0 29l7 5c6 6 7 5 18-4q9-8 4-13l-1-6q-1-10-10-10h-8q-6-3-10-1m756 1v2l-3 4q-5 7 3 8 4 0 5 3 5 9 5-5 1-10-2-9l-4-2q-4-3-4-1m-137 5-3 5q-3 2-1 3l5 2q5 0 5 3l3 4 3-4c3-4 3-5 3-11v-4l-4 1-6-1q-4-4-5 2m69-3-1 2-2 4q-6 7 2 6 5 1 6 4 1 5 6-1 6-5 3-8l-1-3q1-2-3-2l-7-1q-3-3-3-1m-204 3-3 5q-5 7 1 6 5-1 8 3 2 5 3 2l3-3c4-5 2-13-2-12l-6-1q-4-4-4 0m67 0-2 5q-4 5 2 5 4-1 6 3 3 6 4 2l3-3c2-4 2-13-1-13l-3 1h-3q-6-4-6 0m-203 2-1 3-2 4q-4 4 2 5 6 0 6 4 3 4 5 0l2-4q3-3 1-6 1-5-4-4-4 2-6-1zm68 1-3 5q-4 6 2 6 6 1 7 4 0 4 3 0l4-4q4-3 2-5l-2-4q1-3-3-1-3 2-6-1-5-4-4 0m-273 0-1 3-3 4q-4 5 3 5 4-1 6 3 2 6 5-1 4-4 2-8 1-5-3-3-2 1-5-1zm68 1-2 5q-6 6 2 5 3 0 5 3 5 6 5 3l2-4q5-5 2-6l-1-4q1-3-4-1l-5-1q-5-3-4 0m68 1-2 5q-6 4 1 4 6 0 7 5 2 4 5-1l3-4v-3l-1-4q1-4-3-2-3 2-5-1-5-5-5 1m-204 0-3 6q-5 6 1 4 4 0 8 6l1 3 2-3 3-4q3-2 1-6-1-8-4-5-3 2-5-1-4-5-4 0m-70 1-3 5q-6 5 2 5 6 1 7 4 1 5 6-1c3-4 3-4 2-9q-3-6-3-4c0 2-6 1-7 0q-3-4-4 0m745 50q-3 1-3 7l-3 7c-5 5-1 13 7 13q3 0 5 3 7 10 10 4v-28q0-5-2-5l-5-1q-5-4-9 0m-136 1-4 7-4 8-2 5c0 2 5 7 10 7l6 5q8 10 18-2c8-8 8-8 5-14l-2-7q0-9-9-8-4 1-8-1-6-4-10 0m66 0-2 6-3 7q-5 6-2 9 4 5 9 5l7 5c6 5 8 5 15-1l6-6q3-2 2-8l-2-6q0-11-11-11h-7q-6-4-12 0m-201 0q-3 1-4 7l-3 7q-7 10 5 14l7 4q7 12 19-2 11-10 3-15l-1-5q1-5-2-7-2-2-7-2-4 1-8-1zm67 0q-4 2-5 8l-2 6c-4 6-1 14 6 14q4 0 6 3 6 10 17 1l6-7q5-4 0-9l-1-6q0-9-10-9l-7-1zm-202 3q-6 1-7 9l-2 6q-8 10 8 15l3 1 6 6q5 5 15-6c6-7 7-8 5-12l-2-8q0-10-10-9l-7-1q-3-2-9-1m68 0q-6 1-6 7 0 4-3 7c-5 7-2 15 7 15q2 0 6 5c7 6 9 6 18-3q10-9 5-13l-1-7q0-9-10-9h-6q-5-3-10-2m-277 3-3 6q0 3-3 7t-3 7c0 2 6 7 9 7l7 4c7 7 10 7 18-1 8-7 8-9 6-15l-2-7q0-8-10-8l-8-2q-6-3-11 2m72-2q-5 2-6 8 0 4-3 7-5 5-2 9 4 4 10 5l6 5c6 6 9 6 19-4q7-6 4-13l-2-6q-1-9-11-9h-7q-4-3-8-2m64 1-2 6-2 5q-3 4-4 10c1 2 7 7 10 7l7 4c7 6 9 6 18-3 8-7 8-8 4-15l-1-6q0-8-10-8-4 1-6-1-8-3-14 1m-204 1q-2 2-3 9l-3 6a5 5 0 0 0-1 8q1 4 6 4 4 0 10 6 6 9 18-4c7-6 7-7 4-13l-2-10c0-3-6-6-10-6h-8q-7-4-11 0m-67 0c-3 2-3 29 0 29l5 3q11 10 17 0l5-4q7-5 1-12l-1-7q1-7-10-7l-6-1c-2-1-9-2-11-1m756 1-1 2-2 5q-6 6 2 6 4 0 8 6 3 4 3-8 1-9-2-8l-4-2q-3-3-4-1m-68 1-1 4-3 3q-5 4 3 6 5 0 6 3 3 6 4 2l4-5q3-2 1-4l-1-5q0-5-4-2-2 2-5-1-4-3-4-1m-136 1-1 4-3 3a3 3 0 1 0 4 5q3 0 7 6c2 4 7-6 6-12q-1-7-3-4-3 3-7-1zm67 2q0 3-3 5-4 4 3 5 6 1 6 4 1 4 4 2l3-5q4-2 2-5l-1-4q1-4-4-2l-5-1q-5-4-5 1m-135 1-3 4q-4 6 2 6t7 4q2 6 4 0l3-4v-6q0-7-2-4h-7q-3-4-4 0m-205 4q0 2-3 5-5 5 3 5 5-1 6 3l2 3 3-4c3-6 3-13 0-12q-5 1-8-2t-3 2m137-1-3 5q-6 6 3 5 5 1 6 4 0 6 5-1c4-6 4-15-1-13h-6l-3-2zm-205 1-3 5q-5 6 3 6 2 0 6 4l2 3 1-2 3-4 2-4-1-6q1-4-3-2h-5q-5-3-5 0m137 0q0 3-3 5-4 4 2 4 5 0 8 5 1 4 2 1l2-4q3-2 2-7v-5h-11q-2-2-2 1M8 204l-2 4q-6 5 2 6l4 1q5 9 6 5l3-5q4-2 2-5v-5q1-4-2-3l-2 1q-1 3-7 0-5-5-4 1m70-1-3 5q-5 5 1 4 4-1 8 5 2 4 3 1l3-4q3-1 1-4v-5q0-5-3-2h-6q-3-4-4 0m67 0-2 4q-6 5 2 5 5-1 6 4 2 6 4 1l3-4q3-2 1-4l-1-4q-1-5-3-2h-6q-3-4-4 0m472 50q-4 3-5 10l-1 3-4 9q2 4 9 7l7 4q4 5 10 4l5-3 6-7c5-4 5-4 2-9l-2-8-2-6c-2-2-2-2-9-2l-7-1q-4-3-9-1m66 1-2 5c0 3-3 10-5 11l-1 4q1 7 9 7l5 2 3 4c5 5 8 4 17-4 7-7 8-8 6-12l-2-7q0-10-10-9l-8-1q-7-4-12 0m69 1-3 6-2 6c-5 6-1 14 7 14q2 0 6 5c9 7 10 6 10-12 0-16 0-18-5-20q-8-5-13 1m-270 0q-5 2-5 8l-2 6q-7 10 5 14 4 1 7 5 7 9 19-4 9-7 4-12l-2-9q1-7-9-7l-8-1q-4-3-9 0m67-1q-3 2-4 8l-4 8q-6 8 6 12l9 5q6 7 13 2l6-6q6-8 2-12l-1-7q-1-11-11-8l-6-1q-5-3-10-1m-340 4q-7 2-9 14-4 13 8 15l7 5q7 8 14 1l4-4q7-6 6-9l-1-5-2-6q1-10-10-9l-8-1q-4-3-9-1m68 0q-4 2-5 8l-3 6-3 7q2 6 9 8l8 5q7 7 13 2l9-9q6-3 1-10-3-3-1-4v-4q-3-7-11-7l-8-1q-4-3-9-1m68 0q-3 1-4 7l-3 7c-5 7-1 15 7 15l5 3c7 8 10 8 19-1 7-7 8-9 6-14l-2-6q0-9-10-9l-7-2zm-274 3-3 3-3 9q-4 6-3 10 3 4 9 5 3 0 6 4c7 7 11 7 20-2 8-8 8-7 5-11l-2-9c-2-7-3-9-11-9l-10-1q-5-3-8 1m340-1-2 5q0 6-4 9c-5 3 1 13 7 13q3 0 8 5 9 9 16-2l3-3q6-5 4-9l-2-8q0-11-9-10-5 1-8-1-7-3-13 1M2 260l-1 15v13l3 1 6 5q6 8 17-4c8-7 8-9 4-14l-1-7q-1-8-11-8h-6q-6-3-11-1m142 0-4 1q-4 1-5 7l-3 6c-4 6 0 14 7 14q3 0 7 4 7 9 15 0l7-6q5-4 1-9l-2-7q1-9-11-9l-8-1zm547 2-1 3-2 4q-7 7 1 6 6 0 7 5 2 5 5 0l3-4q4-3 1-5l-1-4q1-4-4-2-4 1-6-2zm68 0v2l-3 5q-6 6 3 6 4-1 5 3 5 9 5-5 1-11-2-8l-4-2q-3-3-4-1m-205 4-3 5-2 3 6 3q3-1 5 3 2 6 5 0l3-3 1-6q0-9-4-5h-5l-2-2-3-2zm69-2-1 3-2 3q-6 5 0 5 7 1 8 4 1 5 4 2l4-4q3-3 1-4l-1-6q1-6-3-3c-2 2-7 1-7 0zm-136 2-2 5q-6 6 2 5 4 0 6 5t4-1l2-3 2-2c1-2-1-11-2-9s-8 1-9 0q-3-4-3 0m-68 2-1 3-2 4q-5 4-2 4c3-1 9 2 10 5q2 6 6 0l3-4 1-2-2-8q0-2-6 1l-3-2q-3-3-4-1m-205 2-2 5q-5 6 1 5 4 0 8 6c2 3 8-5 7-10q0-8-4-5l-6-1q-4-4-4 0m68 1-3 4q-4 5 2 5 6 1 7 4l1 2c2 1 9-8 7-9l-1-4q1-3-4-2l-5-1q-5-4-4 1m69 0-4 5q-5 4 3 4 4-1 6 4 3 5 4 2l3-5q4-3 2-4l-1-4q1-4-4-2l-5-1q-3-4-4 1M8 272q0 3-3 5-3 5 2 5 4-1 6 3l2 2c3 3 9-5 7-9l-1-5q-1-3-2-1h-5l-6-3zm70-2-1 2q1 1-2 4-6 6 1 5 7 0 8 5l2 3 3-5q3-5 2-9 0-6-4-3-3 2-5-1-4-3-4-1m67 1-3 6q-5 4 3 4 5 1 6 5t4 1l3-4q3-2 2-7 0-9-5-5h-6q-5-3-4 0m471 52-3 6-3 8q-7 10 6 13 6 2 8 5c4 8 7 7 17-3l7-7-2-5-2-8q1-8-9-8l-9-1q-4-3-10 0m68 0q-3 2-3 6l-2 7q-10 11 6 14l4 2c0 2 6 7 9 7s9-3 9-6l4-3q6-3 3-11l-2-8q-1-7-9-7l-8-2q-6-2-11 1m68 0-3 5q-1 9-4 10l-1 3q0 7 8 9l6 2c0 3 9 8 11 7l1-30q0-5-4-6l-4-1c-1-2-7-1-10 1m-271 1q-3 1-4 6 0 4-3 8c-4 6-1 13 6 13l7 5q10 9 15 0 3-4 6-5 5-5 2-12l-2-6q0-9-9-8l-9-1q-5-3-9 0m69-1q-5 1-5 9l-3 5c-5 5-1 14 6 14l6 4q8 8 15 1l6-5q6-5 3-12l-2-6q0-9-10-9-3 1-7-1zm-275 6q-3 2-3 6l-3 7c-4 6-1 14 7 14l5 3q9 11 17 2l6-6q5-3 2-11l-2-7q0-8-10-8l-8-1q-6-4-11 1m68-1-2 7-3 7q-7 8 6 13l7 5c6 7 9 7 18-2q11-9 5-14l-1-6q-1-7-5-9h-5l-7-2q-9-2-13 1m69 0-3 5-4 7c-4 7-1 15 4 15l9 3q2 5 9 6l8-4 6-7q6-4 1-10l-2-6q1-9-9-8l-8-2q-6-2-11 1m-341 1q-3 3-3 7l-4 8q-5 10 7 13 3-1 8 6 6 6 15-2l7-6q6-3 1-9l-3-8q0-8-10-8l-8-1q-6-4-10 0m67 0-3 6-3 8q-6 5 0 11l7 3q4 0 6 3 6 10 17 1l6-6c2-2 3-8 1-9l-2-6q0-11-10-10l-7-2q-7-3-12 1m70 0-4 7-4 8q-5 9 8 12l7 5c6 6 9 6 18-3 8-7 8-8 4-13l-1-7q-1-10-12-9h-5q-5-4-11 0M5 329l-3 1-1 13c0 13 0 14 2 15l6 4q7 8 15 0l6-6q6-2 2-10l-2-8q-1-8-9-8h-9zm686 2-1 2-3 5q-5 6 1 6 6 1 9 7 1 2 3-1l4-5q4-4 1-5l-1-4q1-4-4-2-3 1-6-2zm68 1-4 6q-4 6 3 6 4-1 6 3 5 9 5-5 1-11-2-8l-4-2q-4-4-4 0m-205 2-3 6q-6 5 2 5 5-1 6 3 1 6 6 0c4-3 4-3 3-9v-6l-5 1-6-1q-3-4-3 1m68 0q0 3-3 5-5 5 3 5 3 0 5 3 4 5 5 2l2-3q4-2 2-8l-1-4h-4l-5-1q-3-4-4 1m-135 1-3 5q-6 6 2 5 6 0 7 6h3l3-4c2-3 2-3 1-8v-6l-3 2q-3 2-6-1-5-5-4 1m-136 2-1 2-2 5q-5 5 3 5 4-1 6 3 2 6 4 1 0-3 2-3v-10q0-2-3-1-3 2-5-1-3-3-4-1m68 1-3 5q-6 6 3 6 5-1 5 3 2 6 6-1 3-4 2-8v-5l-4 1-6-1q-3-4-3 0m-274 2-2 6q-5 3 2 4 5 0 6 3 1 6 6 0l4-3-1-5q-3-8-4-5-2 3-7-1-5-5-4 1m69 0-4 5q-4 5 4 5 4 0 5 3 2 6 7-1 3-4 2-6v-5q1-3-6-1-2 1-4-1-4-5-4 1m68 0q0 3-3 4-6 4 2 5 4 0 6 3 5 5 5 2l3-4q3-2 1-4l-1-5q1-4-3-2h-5q-5-4-5 1M8 340l-3 6q-6 5 2 5 6 1 7 3 1 6 5 1l3-3v-6q0-9-4-5-2 2-5-1-6-4-5 0m70-1-1 2-2 5q-6 4 2 4 6 0 7 5 2 4 3 1l3-3q3-3 1-8c0-7 0-6-4-5h-5q-3-3-4-1m538 52q-3 2-3 6l-4 8-2 6c0 3 6 8 9 8q3 0 7 5c7 6 9 6 17-2s9-9 6-14l-2-8q0-8-10-8l-8-1q-4-4-10 0m69 0q-4 1-4 7l-4 8q-6 8 6 12l8 5q6 10 18-3c8-7 8-7 5-12q-3-4-3-8 0-9-9-8-4 2-8-1c-5-2-5-2-9 0m67 0q-2 1-3 7 0 4-3 7c-5 4-2 11 6 12l7 5q6 6 10 5v-30q0-5-2-5l-4-2q-6-3-11 1m-272 1-3 5q-1 8-4 9c-2 0-3 6-2 8q4 5 9 6l6 4q7 10 19-2 10-8 4-14l-1-7q1-9-11-8l-7-1q-6-3-10 0m68 0q-3 3-4 8l-2 7-3 6q2 5 8 6 3 0 8 5c6 6 9 6 17-2q10-9 5-13l-1-6q-1-10-8-10-6 1-11-1-5-3-9 0m-340 5q-4 1-4 8l-3 8q-5 10 7 12l6 4c6 6 9 6 18-2q10-9 6-14l-2-4q1-11-11-11l-8-1c-5-2-5-2-9 0m66 1-2 5q0 4-3 7l-3 6q2 6 9 9 4 0 8 4c3 4 11 6 11 3l1-1 6-5c7-6 7-6 4-15l-2-7q-1-7-9-7-3 1-7-1-9-3-13 2m69-1-2 5-3 8-3 6c0 3 6 8 10 8a7 7 0 0 1 7 6c5 5 8 4 17-4q10-9 5-13l-1-6q0-11-11-9l-6-1q-7-4-13 0m68 0-2 4q0 7-5 11c-4 3 1 10 8 12l8 5q7 7 14 0l7-7q5-3 1-8l-1-6q0-12-12-11h-5c-3-2-10-2-13 0m-340 1q-2 1-3 6l-4 9c-3 5 0 12 5 12q4 1 10 6 6 8 18-4c8-7 8-8 5-12l-2-8c-1-7-2-8-11-9l-9-1q-4-2-9 1m67 0-2 2-1 4q0 4-3 8c-4 6-4 6 0 10q2 3 5 3t8 5c7 6 10 6 18-2q11-9 6-15l-2-6q0-10-10-9-5 1-8-1-8-2-11 1M2 398l-1 15c0 13 0 14 2 14l6 4c7 7 9 6 19-3q9-8 4-13l-1-6q0-9-9-9-4 2-9-1-7-4-11-1m756 3q0 3-3 5-5 6 2 6 3 0 7 4 6 8 5-6l-1-8-4-2q-5-5-6 1m-136 1-2 5q-8 5 4 6l4 3q3 5 4 2l3-4q3-3 2-4l-2-9-2 1q-6 1-7-2l-2-1q-2 0-2 3m68 0-3 4q-5 6 3 7 5 0 6 3 3 5 5 1l3-4q3-3 1-4l-1-3q2-5-1-5c-2 2-8 1-9 0q-3-4-4 1m-136-1q0 4-4 7-4 4 2 5t7 3l4 4 3-4c5-6 2-17-2-13q-2 2-6-1t-4-1m-67 1-1 2-2 4q-4 5 2 5 4-1 6 3 1 6 6-1 3-3 2-8 1-8-3-3-3 2-6-1-4-3-4-1m-273 6-4 5q-4 5 3 5 4 0 6 3 2 7 6 1l3-4 1-3-1-5q0-2-5-2l-7-1q-2-3-2 1m68-1-3 5q-6 5 2 6 4 0 6 3 3 5 5 1l2-3q2-3 1-7v-4h-5l-5-1q-3-4-3 0m68 0q0 3-3 5-4 5 2 6 6-1 8 3 2 5 4 1l2-3c3-3 1-15-1-12h-7q-4-4-5 0m68 1-3 5q-4 5 3 4 6 1 7 6 1 3 4-1l2-4 2-4-1-4q1-4-4-2l-6-1q-3-4-4 1m-272-1-1 2-2 5q-4 5 1 5t7 5 3 1l3-4q5-4 2-6l-1-5q1-3-3-1-2 2-6-1zM8 410q0 3-3 5-5 5 3 5 4 0 7 5 2 3 4-1l3-4v-10h-4q-2 2-6-1-4-5-4 1m70-1-3 4q-6 5 2 6 6 1 7 5 2 4 3 0l3-4c2-3 2-12-1-12l-1 1q-1 2-6-1-4-2-4 1m540 50q-5 3-5 8l-3 7-3 6q2 6 9 8 3 0 5 3 8 10 18 1l6-6q4-4 1-10l-2-6q0-9-10-9l-9-1q-4-3-7-1m65 1-2 7-3 7q-8 9 8 13l3 2c0 2 6 7 10 7 3 0 9-5 9-7l1-1c4 0 7-7 5-11l-2-8q0-9-11-8l-7-1q-5-4-11 0m69 0-3 6-3 7c-4 6 0 14 8 14l5 3c3 4 9 7 10 6l1-30-1-5-5-1q-9-4-12 0m-271 0q-3 1-4 7l-3 8q-6 9 5 13l8 5c6 6 9 6 17-2q11-9 6-15l-2-5q-2-12-11-9l-5-1q-6-3-11-1m68 0q-5 2-5 8l-3 7-3 5c0 3 6 8 10 8l7 4c6 6 9 5 17-2q8-7 7-9l-1-3q-2 1-2-8-1-10-11-9l-8-1zm-138 4-2 6-3 7q-7 12 4 14l8 4 9 5q3 0 10-7 10-9 5-12l-1-5q-1-13-11-11l-7-1q-8-4-12 0m-134 0q-5 1-5 7l-3 8-3 6c0 3 6 8 9 8q3 0 6 4 8 10 19-2 10-9 5-13l-1-6q1-11-10-10l-7-1q-4-2-10-1m66 2-2 5-3 6-3 6q2 6 5 8 7 0 11 5 5 11 18-2 10-9 6-13l-2-6q0-10-10-10-6 1-7-1-7-3-13 2M3 466c-3 2-3 28 0 28q3 0 5 4 7 11 18-1l6-6q3-4 0-10l-2-6q1-9-10-8l-9-1q-5-3-8 0m134 1-2 6-3 7q-6 10 7 14l7 4q9 7 14 0l7-6q5-3 2-10l-2-7q0-9-10-9-4 2-7-1-8-3-13 2m69-1-3 7-1 5-3 3q-2 11 9 12 2 0 5 3 7 11 16 2l7-7q5-2 2-10l-2-7q-1-8-10-8-4 2-7-1-8-3-13 1m-134 0q-4 3-5 8l-3 7c-4 6-1 13 7 13q3 0 5 3 9 11 18 1l6-5q4-2 1-11l-2-8q0-6-10-7l-8-1zm619 2-1 2-2 5q-6 6 0 6t8 5q3 5 5 0l3-5q3-2 1-3l-1-5-1-4h-1q-1 3-8 0zm68 1-3 6q-6 6 4 6 3-1 4 3l3 3q3 2 2-9 1-9-2-8-2 1-4-1-4-5-4 0m-206 2-2 5c-4 3-3 8 1 5q5 0 8 5 2 5 3 1l4-4q3-4 1-5l-1-5q1-4-4-2l-6-1q-3-4-4 1m69-1-3 6q-4 7 2 5 4 0 7 5t4 1l3-4q3-2 1-8v-5l-4 1-6-1q-3-4-4 0m-135 1-2 4q-6 6-1 7 7 0 8 4 2 5 3 2l2-4q3-4 3-8 0-7-4-4h-5zm-273 3-1 3q0 2-3 5-5 6 4 5 4-1 6 3 1 6 5 0l3-4v-5q0-6-5-4-4 0-6-2-3-3-3-1m137 0-1 3-2 3q-7 5 4 6 4-1 4 3 2 6 6-1 3-4 2-8 0-8-2-5-3 2-8-1zm68 0-3 5q-6 6 0 5c3 0 9 4 9 6q1 3 4-2c4-5 4-15 1-13h-8q-3-3-3-1m-341 1-1 4-3 3q-4 6 2 5 4-1 6 3l3 4 4-4q4-3 2-8 1-8-3-4-3 2-6-1zm67 1-2 5q-5 5-2 5l6 1 4 3q1 6 6-1 4-5 2-6l-1-4q1-4-4-2l-6-1q-3-4-3 0m137 0-3 5q-7 6 4 6 3-1 4 3 2 5 5 1l2-3q2-3 1-7v-5l-4 1-6-1q-3-4-3 0M9 476l-1 3-2 3q-3 3-1 6h2q6-3 8 4 1 4 2 1l4-4q2-3 2-7v-4h-4l-7-1q-2-3-3-1"
        mask="url(#16282281824-posters-1720553451570-horizontal-mask)" itemprop="light" fill-opacity="0.90"
        fill-rule="evenodd" stroke="none" fill="url(#16282281824-posters-1720553451570-vertical-light)"></path>
      <!---->
      <path id="16282281824-posters-1720553451570-regular"
        d="M0 7q0 8 2 7l6 4c7 6 10 6 19-2q9-7 5-13-1-4-6-3h-4v8l-3 4-2 3-2-2-3-4-4-1Q0 8 6 3l2-3H0zm64-6-1 5q-1 6 9 8 4 1 6 4 4 5 10 4l15-14q0-8-8-8-5-1-4 3 2 3-1 6l-2 4q-1 4-5-2-1-4-6-3-8 0-3-5l2-2c0-2-11-1-12 0m68 0a10 10 0 0 0 7 13q5 1 7 5c5 5 8 4 17-3q10-9 6-13-1-4-6-3-5-1-3 3 0 3-2 5l-4 5q-1 3-5-4l-4-1q-8 0-4-5l2-2zm68 2q-1 9 10 10l4 3c6 7 9 7 19-2 6-6 7-7 5-11s-9-4-9 0q1 2-2 7-5 7-8 1 0-4-7-3-5-1-3-5 3-4-4-3-6-1-5 3m68-1q-3 8 8 10 4 1 7 5c6 6 9 6 17-3q10-8 6-12c-2-4-9-3-9 1l-2 4-3 4q-2 4-5 0 0-4-6-4-7-1-4-4 4-3-3-3-6 0-6 2m69 1q-1 5 7 9l8 5q7 9 15-1l6-5q3-2 2-8c-2-4-9-5-9-1 0 3-5 12-7 12q-2 0-2-3-3-4-8-4-6 0-3-5 2-2-4-2-5-1-5 3m68-2c-3 3 2 10 6 10q5 0 9 5 6 9 17-3 6-5 7-8-1-5-6-5-5-1-4 3l-1 3-3 4q-4 6-6-1-1-3-6-3-7-1-5-3l1-2zm67 0c0 3 5 7 7 7q5 0 10 6 6 7 17-3 12-11 2-11-5-1-8 5c-4 6-4 6-8 1q-1-2-6-3l-5-1c-1-2-9-3-9-1m68 1c0 2 5 6 7 6q6 1 8 4c1 3 7 5 10 5 3-1 14-12 14-15q0-2-4-2-6 0-9 7-3 5-6 0-1-4-7-4l-4-1c-1-3-9-3-9 0m68-1q1 4 8 6 5 1 8 5 6 9 16-1l6-6 1-2q1-4-4-3l-5 1-4 5-3 4-3-4q-2-3-6-3l-5-2zm69 1c0 1 7 5 10 5l4 4q7 8 16-1l6-5q5-5-2-5-7 1-10 7-1 4-5-1-1-4-6-4l-4-1c-2-2-9-1-9 1m69 0q2 4 9 4l5 3q4 5 9 6l-1-7-4-3q-2-5-14-5-7 0-4 2M617 50l-3 6-2 6q-7 10 5 13l7 5q6 7 14 1l7-6q6-4 1-10l-2-7q-1-9-9-8l-8-1q-7-4-10 1m68-1-3 5-3 8q-7 10 5 13 5 1 7 4 6 10 18-2 9-8 5-11l-2-8q-1-10-9-8l-8-1q-7-3-10 0m69-1-3 5-3 8q-7 10 5 14 5 0 8 5l6 3c3-1 4-13 2-27v-6l-5-1q-6-3-10-1m-273 2q-2 1-3 6l-3 8q-6 8 5 12l8 5c6 6 9 6 17-3 7-7 8-8 4-13l-1-7q-1-8-9-8h-7q-7-3-11 0m67 0-2 4c0 2-3 9-5 10-4 3 2 12 8 12q6 2 8 6c0 1 5 3 7 2 3 0 15-12 15-14l-2-5-2-8q1-7-8-6l-8-2q-6-2-11 1m-272 4-3 5-4 9-2 6q1 4 8 6l8 6q8 8 15-1l6-6q5-3 2-8l-2-8q-1-11-10-9h-8q-6-3-10 0m69 0-4 9-2 5q-7 8 5 12 5 2 8 6 6 8 17-3c7-7 8-8 6-13l-2-7q-3-9-10-9h-8q-6-3-10 0m69-1q-4 3-5 9l-2 6q-7 9 4 12 4 1 7 4c7 6 10 6 18-1l6-5V68l-2-7q-1-7-9-6l-9-1c-5-2-5-2-8-1M73 54q-4 2-5 8l-3 7-3 6q2 6 9 8 4 0 7 4c6 6 9 6 19-4q8-7 3-11l-1-7q1-9-9-9l-9-1q-5-3-8-1m67 0q-4 1-4 7l-3 8c-4 5-1 13 6 13l5 3q10 11 16 2l7-6q5-4 2-10l-2-4q0-14-11-11l-7-1q-4-3-9-1m68 1-3 6-3 7c-4 6-1 14 7 14l6 4c6 6 9 6 17-2q10-9 5-13l-1-6q0-11-11-10h-6q-7-4-11 0M3 55c-3 2-3 28 0 28l6 5c7 6 10 6 19-4q7-8 4-12l-2-6q1-10-9-9l-9-1q-5-3-9-1m618 4-2 5c-4 3-1 8 3 7q4-1 6 4 3 5 6-1l3-3c2-1 1-13-1-14l-2 1q-3 3-8-1-4-5-5 2m137-1q0 3-3 5-6 5 3 7 4 0 6 4 5 9 5-6 1-12-2-10l-4-1q-4-4-5 1m-204-1-1 4-3 4q-5 6 4 6a7 7 0 0 1 7 5q2 3 3 1l4-5q3-4 2-5l-1-5q1-4-5-3l-6-1q-3-3-4-1m136 1-2 5q-6 5 0 7l5 1q2 0 3 3 3 6 6 0l3-4 1-3v-6q-1-7-4-3c-1 2-6 1-7 0q-4-4-5 0m-204 2-3 6q-4 5 3 5 5 0 6 4 3 4 5 1l2-4q3-2 2-8 0-7-4-4-2 2-5-1-6-5-6 1m-68 1-1 3-2 4q-4 5 2 7 4 0 7 4l2 3 4-4q4-3 3-9 1-8-5-5l-6-2q-3-3-4-1M78 63l-1 4-2 3-2 2q-3 5 5 5 3 0 5 4 3 5 6-1l2-4q3-1 1-6 0-7-5-4-3 1-6-2zm136 2-4 5q-4 6 4 6 3 0 5 4 3 7 7-2 3-4 2-9v-4h-3l-6-1q-5-4-5 1m68-1q0 3-3 5-4 6 3 6 5 0 6 3 2 6 6 0 3-5 2-8 0-9-4-6-4 1-6-1-4-3-4 1m68 1-3 5q-4 5 3 5 4 0 6 3 3 6 7-1c4-7 3-16-2-13h-5q-5-4-6 1M8 65l-3 6q-6 6 2 6 7 0 7 5 1 4 6-2c4-5 4-5 3-10l-2-4q-6 2-8-1-5-5-5 0m137 0q0 3-3 5-4 7 2 6 4-2 7 4 2 6 5-1 3-4 3-9 1-8-4-5h-6l-3-2zm541 51q-3 3-4 7l-2 7q-7 11 5 14l7 4c6 6 8 5 16-2q9-8 5-14l-2-7q0-7-9-7l-9-1q-4-2-7-1m68 0q-4 3-4 10l-2 4q-7 10 5 13 4 0 7 4c2 3 8 6 9 4v-28q1-6-5-6l-6-2zm-138 2-2 6-3 7-3 6q1 4 8 7l8 4q9 7 14 1l6-6q7-4 2-9l-2-6q0-10-10-9l-7-1q-6-4-11 0m-136 2-2 5-3 8q-6 6-1 9 3 3 5 3 3 0 8 5c6 6 9 6 17-1l6-6v-9l-2-6q0-8-9-8l-8-2q-8-3-11 2m68-1-2 3-3 8q-8 12 5 15l8 5q5 7 16-3 10-9 6-12l-2-7q-1-10-9-9-5 1-8-1-6-2-11 1m-203 3q-3 1-4 6 0 3-3 7-6 11 5 14 5 1 8 4 8 9 18-1c7-8 7-9 4-14q-2-3-2-7 1-8-8-8-4 1-8-1-6-3-10 0m66 0-2 6-2 7c-5 6-3 13 4 13q2 0 8 5c7 6 10 6 18-2q9-8 5-14l-2-6q1-10-9-8l-8-2q-7-3-12 1m-203 1q-3 2-3 5 0 5-5 10c-4 4 2 12 9 12l5 3c6 7 9 7 19-2q9-8 4-12l-1-6q0-10-10-9l-8-1q-7-3-10 0m68 0-3 6-3 7q-7 10 6 14 4 0 7 5c7 6 9 6 17-3q11-10 6-12l-2-7q-1-10-10-10-3 1-7-1-7-2-11 1m-136 0q-5 3-5 10l-2 3q-7 10 6 15l7 4c5 6 13 5 15-1l4-3q7-5 4-11l-2-7q-1-10-9-9l-9-1zm618 1-1 3-2 5q-4 4 2 6 4 0 7 4 6 8 5-6 1-12-2-10l-4-2q-4-3-5 0M2 124c-2 2-1 27 0 27l7 5c7 6 8 5 17-2 7-7 8-9 6-14l-2-6q0-9-9-9-4 1-7-1zm69 1-3 6-3 6c-4 6-1 14 5 14q5 0 9 5 6 8 17-3c7-7 8-7 5-12l-2-8q0-9-12-9l-9-1q-5-1-7 2m620 0-1 2-2 5q-7 7 3 7 2 0 5 4 3 7 7-2 4-4 3-7l-1-4q1-5-4-3-4 2-6-1-3-3-4-1m-69 2-2 5q-7 7 4 8 3 0 4 3 3 5 6 1l2-4c2-2 3-10 1-13h-9q-6-4-6 0m-135 0-1 2-3 5q-4 5 3 6 5 0 6 4 4 4 5 1l3-4c2-3 2-3 1-8l-1-4h-3l-6-1q-4-3-4-1m67 2-3 5q-4 5 3 6 4 0 6 4 3 5 5-1l3-3c2-1 1-11 0-12h-3q-2 2-5-1-7-3-6 2m-340 2-1 2-2 5q-7 6 3 6 3 0 5 4 4 6 6 0l3-3v-7q0-8-4-5-2 2-6-1zm69 0-1 3-3 4q-5 5 1 6 5-1 7 4 3 7 7-2c4-6 3-13-2-12l-5-1zm67 1q0 3-3 5-4 6 2 6t7 4q2 7 7-2 8-13-3-12l-6-1q-4-4-4 0m69-1-1 2-3 4q-5 5 3 6 6 1 7 5 1 3 6-3 5-4 3-7l-1-4q-1-4-3-2h-7q-2-3-4-1m-341 1-1 3-3 5q-4 3-1 4l3 2q4-1 7 3 3 5 5 1l3-4q2-4 1-5l-1-5q1-2-4-2-4 2-5-1-3-3-4-1m67 2-4 6q-4 5 3 5 5-2 7 4 1 5 6-3c4-6 3-15-2-12q-4 1-6-2-3-3-4 2M7 135q0 3-3 5-6 5 5 6 3 0 5 3 2 6 7-1c3-4 3-4 2-9q-2-5-5-4l-6-1q-4-4-5 1m747 50q-3 2-3 5 0 6-4 10c-5 3 0 11 6 11q4 0 7 4 5 6 9 5v-28q0-5-2-5l-6-2q-4-3-7 0m-66 0q-6 1-7 7 0 5-3 8-6 9 5 12 4 0 9 5c6 6 8 6 17-3 6-6 6-7 4-11l-1-6q0-12-10-10-3 2-7-1l-5-2zm-71 1-3 7q-1 4-4 7-6 9 6 12l7 4q6 12 18-1c7-7 7-7 4-13l-2-8q0-7-8-6l-8-1q-6-3-10-1m-137 3-2 5-3 7-3 5c0 3 6 8 10 8l6 4c6 6 9 6 17-2q9-9 5-14l-2-6q0-9-9-8-5 1-7-1-8-3-12 2m67 0-2 4-2 7q-6 13 5 13 3 0 7 5c6 6 9 6 17-2q11-9 5-13l-2-8q1-7-9-7l-7-1q-8-3-12 2m-270 1q-4 3-5 9l-2 4c-5 5-3 13 5 15l8 4c7 6 10 6 18-2l6-7-1-5-3-8q0-8-9-8l-8-1q-5-3-9-1m67 1q-3 2-3 6l-3 8q-6 7 6 13 4 1 7 4 7 11 19-3c7-7 7-7 4-11l-2-8q-1-9-9-8l-7-1q-6-4-12 0m68 0-2 3-1 3-3 8-3 5c0 2 6 7 9 7q3 0 7 5l8 4c3 0 4 0 15-11v-9l-2-6q1-8-9-8l-8-2q-7-3-11 1m-273 1-4 7q0 4-3 6c-4 6 0 14 8 14q3 0 4 3c2 2 8 6 10 6 4 0 16-14 16-16l-3-9q-3-12-11-10l-7-1q-6-4-10 0m70-1q-4 1-4 7l-3 7q-7 9 6 13l7 5q6 9 16-1c7-7 8-8 6-14l-2-9q-2-8-10-6h-6q-6-3-10-2m-139 2-2 6q1 3-5 10c-3 4 2 10 8 10l7 5c7 6 9 6 17-1l6-6c2 0 1-7-1-9l-1-7q-1-8-9-8-4 1-8-1-7-2-12 1m688 0-1 4-1 3c-5 1-3 7 3 7q2 0 5 4 4 8 5-7 1-10-2-9l-4-2q-5-4-5 0M2 193c-2 2-1 27 1 27l6 4a9 9 0 0 0 16-1l3-3q8-3 3-11l-1-7q-1-8-10-8-4 1-7-1zm621 1-1 3-2 4q-7 6 2 7 5 1 6 4 1 6 6-1c6-7 4-18-2-15q-2 1-5-1zm67 1-3 6q-6 7 2 6 5-1 6 3 3 7 7 1l4-5v-3l-1-5q0-5-4-3h-6q-4-4-5 0m-137 2-2 5q-4 5 2 6 5 0 6 4 4 6 6 1l3-4q2-2 1-8v-5h-11q-3-4-5 1m-66-2-3 7-2 2q-2 5 6 5 3 0 5 3 3 5 4 2l3-5q3-4 2-5l-1-4q0-5-4-3h-6zm-68 4-1 2q0 3-3 5-4 4 3 6 5-1 6 3 2 6 7-1c3-4 3-4 3-9q0-8-5-5-3 2-9-2zm-205 1-1 2q0 3-3 5-5 6 3 7l6 3q5 4 6 0l2-3q3-2 1-7 0-10-2-6h-8q-2-3-4-1m68 1-3 5q-6 6 2 6 4 0 6 3 3 4 5 2l3-5q3-2 1-6-1-8-4-5h-5q-5-4-5 0m69 0-3 5q-6 6 3 6 5-1 5 3 2 6 7-1 3-3 2-8c0-7 0-6-4-5h-6q-4-4-4 0M7 203l-2 5q-5 4 1 6 5 0 8 4 3 6 5 1 0-3 4-5 3-1 1-3l-1-5q1-6-5-3-3 2-6-1-5-5-5 1m70 0-3 5q-6 7 3 6 2-2 6 3 3 4 4 2l3-4c3-3 3-14 0-14l-2 1h-6q-4-4-5 1m68-1-3 5q-4 6 3 6 5-1 5 4 2 6 5 1l3-5q3-2 1-5v-4q1-3-4-2h-6q-4-4-4 0m608 52q-3 3-3 7l-3 7c-4 4-4 4-1 8l6 4q4 0 8 4 7 7 9 4v-28q1-5-5-6c-7-2-7-2-11 0m-136 0q-3 2-4 8l-2 5q-7 11 5 14l8 5q6 9 16-3l7-7-2-5-2-9q0-7-9-7h-8q-5-3-9-1m67 1-3 6q0 4-3 7-6 10 6 13l7 4c6 6 9 6 18-3q8-7 5-12l-2-7q-1-10-10-8-3 1-7-1-8-2-11 1m-203 1-4 6q0 4-3 8-5 9 6 13 4 0 8 4 6 10 16-2 10-9 5-13l-1-6q1-10-9-9l-8-1q-6-4-10 0m67 0-2 6-3 7c-5 6-2 13 6 13q3 0 5 3c7 8 10 7 19-1 7-7 7-7 4-13l-2-8q1-7-9-7h-7q-6-4-11 0m-340 3c-5 4-6 6-8 14q-2 11 7 13l8 6q8 6 14 0l5-5q7-3 3-12l-2-8q-1-7-9-6-5 1-8-2-6-4-10 0m140-1q-6 1-6 7l-3 7c-5 5-2 14 5 14l5 2c8 9 11 9 20 0 8-8 8-7 5-12l-2-8q-1-8-9-8-4 2-8-1l-4-2zm-72 1-4 7-3 8q-5 9 6 12l8 5q9 9 16-1l4-4q7-3 2-11-2-3-1-5v-2l-1-3q0-4-9-4l-8-1c-2-2-8-2-10-1m137 0q-4 2-4 8l-2 6c-5 6-2 13 5 13q3 0 7 5c7 6 9 5 18-3l6-6-1-4-2-10q0-9-10-7l-8-1q-6-3-9-1m-340 1q-5 3-5 7l-2 6q-4 5-3 9c0 3 6 6 9 6q3 0 5 3 6 5 10 6c2 0 16-13 16-15l-2-4-2-9q1-7-9-7l-9-1q-6-3-8-1m-71 1-1 13c0 14 0 14 2 14l6 5c6 6 9 5 18-3q9-9 5-13l-2-6q-1-10-11-9h-5c-2-2-9-2-12-1m139 0q-4 2-5 7l-4 7c-3 4 2 13 8 13l7 4 6 4 9-5 4-4q6-4 2-10l-2-8q0-6-4-7l-6-1zm617 0v4l-3 4q-5 4 3 6l4 1 2 3q6 9 5-6 1-10-2-9l-4-2q-4-3-5-1m-68 1-1 3-2 5q-7 6 3 6 4 0 5 4 4 5 7 0l2-4q3-1 1-7 0-8-4-5-3 2-6-1-4-3-5-1m-136 3q-1 4-4 6-5 6 4 6 3 0 5 3 3 6 6 2l3-4q3-2 1-8 1-8-5-5-3 2-5-1-5-5-5 1m68 0-3 5q-3 5 1 6 6 0 8 4 2 6 5 0l3-3q3 0 1-7 0-11-4-6c-2 1-7 1-7-1l-2-1q-2 0-2 3m-136 1-3 6q-4 5 3 5 4-1 6 4 4 6 5 1l4-5q3-3 1-6l-1-4q1-2-2-2-6 2-9 0-3-4-4 1m-68 2-1 4-2 3q-5 4 3 6 5 0 6 4 2 6 5 1l4-5q2-3 1-4v-4q0-5-5-4-2 2-6-1-5-3-5 0m-204 2-3 6q-4 5 3 5 3 0 5 3 2 6 7 0c5-7 4-16-2-14l-6-1q-5-4-4 1m68-2-1 4-3 4q-5 5 4 5l4 1c4 6 4 7 8 1q4-4 2-8 0-8-4-5-2 2-6-1zm69 0-1 2-2 5q-6 5 0 5 7 0 8 5 2 5 5 0l4-4v-6q0-8-4-5-2 2-6-1-3-3-4-1M8 269v3l-3 5q-4 2-1 4l3 2q5 0 6 2 3 6 5 3l4-5q3-1 1-7-1-6-5-5-3 2-6-1-4-3-4-1m69 0v3l-3 5q-6 6 3 6 5 0 6 2 3 6 5 2l2-4q2-3 2-8 0-7-6-4-3 2-5-1t-4-1m68 1-3 6q-6 6 3 6 3 0 5 4 4 5 6 1l3-4q3-2 1-8c-1-6 0-6-7-4l-5-1q-3-4-3 0m609 53q-3 1-3 3l-1 5-3 6q-6 9 5 12 4 0 7 4c3 4 9 6 10 4v-29q0-4-5-5c-7-2-7-2-10 0m-138 1-2 6-3 7q-7 9 5 13 4 0 8 5l5 5 3-1 7-6 5-4q4-2 1-10l-2-8q0-7-9-7h-7q-6-4-11 0m68-1-3 7-3 8c-4 4 0 11 6 11l6 4c7 7 10 7 19-2q7-7 4-13l-2-6q0-9-9-7l-7-1q-6-3-11-1m-204 2q-2 3-2 8l-2 5c-5 6-2 13 5 13q3 0 6 4 8 9 15 0l4-4c4 0 6-7 4-11l-2-5q1-10-9-9l-8-2q-6-3-11 1m67 1-2 5q1 2-2 6-7 10 5 13l7 5q7 8 14 1l6-6q6-3 2-10l-2-8q0-7-9-7h-7q-6-4-12 1m-272 3-3 6-2 7q-5 9 6 14l6 3q10 10 15 1l6-5q6-4 2-11l-2-7q0-8-9-8h-7q-9-4-12 0m69-1q-3 2-3 9l-2 5c-5 4-2 12 3 12q4 0 10 6 7 9 16-2c8-8 9-9 6-14l-2-7q0-8-10-8l-8-1q-6-4-10 0m68 1-3 5q0 3-3 7-7 10 5 13l8 5q8 9 18-2 9-9 5-14l-2-5q0-9-10-9l-8-1q-6-4-10 1m-341 1-3 6q0 4-3 8-6 9 7 13l6 4q8 9 15 0l7-6q6-3 1-9l-2-6q0-10-11-9l-6-1q-7-3-11 0m68-1-2 5-4 8-3 6q1 6 9 8 5 1 6 4 8 10 15 1l6-5q6-4 2-10l-2-8q1-7-9-7l-8-2zm70 0q-4 1-4 7l-4 7c-3 6 0 13 7 13l7 5c7 6 8 6 17-3q10-9 5-12l-1-5q-1-12-11-11-4 1-6-1zM3 330c-3 2-3 27 0 27l6 4q7 9 15 0l6-5q6-4 1-10-2-3-1-7 1-7-10-8l-8-1zm687 0-1 3q0 3-3 5-5 6 1 7 6 0 8 4l3 3c2 0 9-9 8-10l-1-5q-1-6-6-4-2 1-5-1-3-3-4-2m68 1-1 4-3 3q-5 7 3 6 4-1 6 3 6 10 6-5 1-10-2-9l-5-2-3-2zm-271 1-1 3-2 4q-7 6 2 7 5-1 5 3c1 3 6 4 6 2l3-4q3-2 1-6v-5q0-4-4-2-3 2-6-1-4-3-4-1m66 2-2 5q-7 7 3 7 5-1 6 5 1 3 7-3 3-4 2-6v-6q0-5-4-3h-7q-4-4-5 1m69 0-4 5q-5 6 4 6 3 0 5 3 5 6 6 1l3-4q2-1 1-7 0-8-4-5h-6q-4-4-5 1m-271 2-1 2q0 2-3 5-4 6 3 6 5 0 6 3c3 7 10-1 8-10q0-7-2-4-4 3-7-1-3-3-4-1m68 0-1 2-3 5q-4 6 3 6 5-1 6 4 2 6 5 1l3-5c2-1 1-12-1-12l-2 1q-2 2-6-1zm-205 1-1 3-2 4q-7 6 3 7 3 0 5 3 2 6 7-1 4-3 3-9 0-8-7-5-1 1-4-1-3-3-4-1m69 0-1 3-3 4q-7 5 3 6 3 0 5 3 3 5 7-1 5-6 2-7v-4q0-5-3-3t-7-1zM8 338l-1 2-2 5q-7 6 3 7 5 0 6 3 2 6 6-1c5-7 4-17-2-14q-2 2-6-1t-4-1m69 0q0 7-2 7-7 4 2 6 5 0 6 3 2 8 7-1c2-4 3-15 0-14h-9q-3-3-4-1m68 2q0 3-3 5-4 5 1 5 6 0 8 4 2 6 5 1l3-3 2-4-1-4q1-7-5-5h-5q-5-4-5 1m337 51q-5 4-5 10l-2 4q-8 14 7 15l5 4c6 6 9 6 17-2 8-7 8-7 5-14l-1-7q0-8-10-7l-6-1q-5-3-10-2m135 1q-3 1-4 5l-3 8q-5 8 2 12l5 2q2-1 6 3c7 7 9 7 17-2 8-7 8-8 5-13l-2-7q0-8-10-7l-6-1q-5-3-10 0m69-1q-5 2-5 8l-3 7q-5 9 6 11l7 5c6 7 9 6 19-3l6-6-3-4-2-8q1-8-8-8-5 1-9-1-6-3-8-1m66 1-2 6-3 7-3 5q2 6 9 7 3 0 5 3c2 3 8 7 10 6q2 0 2-12c0-18-1-21-4-22l-4-1c-1-2-8-1-10 1m-204 1-3 5q0 4-3 8-6 11 7 13l5 4q6 5 11 4l14-13-2-5-2-8q-1-9-9-7l-8-1q-6-3-10 0m-272 4-3 6-4 8q-6 9 7 13l7 5q8 8 18-4 6-7 5-8l-2-9c-3-10-3-10-10-10l-10-1q-5-3-8 0m69 0q-3 2-4 6l-2 6q-7 11 4 14 5 1 8 5 7 9 16-1c10-9 10-8 7-14l-2-8q-1-8-10-7l-8-1q-4-3-9 0m69-1q-5 3-5 7 0 5-4 10-5 5 6 10l9 5q7 8 16-1c7-7 8-9 6-14l-2-7q0-9-10-8l-8-1q-5-3-8-1m-206 1q-3 2-4 11l-1 3c-6 3-3 13 5 13l6 4c7 7 9 6 24-8q2-1-1-6l-2-9q-1-8-10-6l-7-1q-6-3-10-1M4 398c-4 2-5 28-1 28l6 4c6 7 9 6 18-2q9-9 5-14l-2-6q-1-10-9-7-3 2-8-1-6-4-9-2m66 2-2 5-2 6-3 6q2 6 8 8l7 5c7 6 9 6 18-3q10-9 4-13l-1-7q2-8-9-8l-9-1q-7-3-11 2m69-2-3 6q0 4-3 8l-3 6c0 2 6 7 8 7q4 0 7 4c7 7 11 6 20-3 6-6 6-7 3-11l-2-8q-2-10-9-8-3 2-7-1zm619 1-1 4-1 2-2 3q-4 5 4 5a7 7 0 0 1 7 5q4 6 4-8l-1-9-4-2q-4-4-6 0m-137 3-3 6q-4 4 1 5 7 0 9 4 3 5 4 2l3-4q4-4 2-7l-1-4q0-4-2-3-4 3-7-1-4-4-6 2m69-3-1 3-2 4q-6 6 2 8 5-1 7 3 2 6 5 1l3-5c2-2 2-3 1-12h-5q-1 2-5-1-5-3-5-1m-136 1-1 3-3 4q-6 5 3 7l6 3q1 6 5 2l4-5q2-2 1-4l-1-5q1-5-6-3-1 1-4-1-3-3-4-1m-68 2-1 3-2 4q-4 5 3 5 3-1 7 5c2 3 8-5 7-11q1-9-4-5-2 2-5-1-5-4-5 0m-204 3-1 2-2 5q-7 5 3 6 3 1 4 4 4 6 6 1l3-5q3-1 1-6l-1-5-4 1q-5 1-6-2-2-4-3-1m68 1-3 5q-4 6 3 7 5 0 6 4 3 5 6 0l2-4c4-4 0-14-3-11q-2 2-6-1-6-4-5 0m68 0-3 6q-4 6 2 6a7 7 0 0 1 8 5q4 3 4-1l3-4q3-2 1-5l-1-4q1-4-5-2h-4q-4-4-5-1m-205 1-2 5q-7 7 3 7 3 0 5 4 3 7 7-2c4-6 3-18-1-14q-3 2-7-1-5-3-5 1M8 409q0 3-3 5l-3 4 4 2q4-1 8 4 2 6 5 0l3-4q3-1 1-6 1-8-5-5-2 2-6-1-5-5-4 1m69-1-3 6q-6 6 3 6 4-1 6 3 3 5 5 2l2-4c4-5 2-17-1-13h-8q-3-4-4 0m68 0-3 5q-4 6 3 7 3 0 5 3 3 5 5 2 1-3 4-5t1-5l-1-5q0-3-4-1l-5-1q-5-4-5 0m541 51q-4 1-4 7l-4 8q-6 8 6 12l6 4q8 11 18-1c7-7 7-8 5-13l-2-7q0-9-9-7-5 1-9-2t-7-1m-68 1q-4 2-4 7l-3 7q-7 10 5 13 4 1 6 4 8 9 16 0l6-5q4-3 1-10l-2-6q0-8-9-8l-8-1q-6-3-8-1m135 1-3 5-4 8-2 5c0 2 6 7 9 7q3 0 6 4 12 14 11-10c0-17 0-18-6-19q-9-3-11 0m-274 1-2 6-2 7-3 6c0 2 5 7 9 7l7 4c6 6 7 6 16-2 7-7 8-8 6-12l-3-7q-1-10-9-9h-7q-7-4-12 0m68 0-2 6-3 7q-7 10 6 12l5 3c2 3 9 6 11 6l6-5 5-4q5-4 2-9l-2-7q-1-7-3-7-1-2-6-2l-8-1q-6-2-11 1m-201 2q-4 3-4 7l-3 6q-7 12 5 14 4 0 7 5 7 10 18-2c7-8 7-8 6-12l-3-8q0-9-9-8l-9-1q-3-3-8-1m65 2-2 5-3 7q-7 11 7 13l6 3q7 11 16 0l6-5c2 0 2-6 1-9l-2-6q-1-9-9-8l-8-1q-8-5-12 1m-272 0-3 6-3 8q-6 9 6 13l7 4q8 8 14 0l7-6q4-2 1-9l-2-7q0-8-9-8l-9-1q-6-4-9 0m68 0-2 4-3 9q-6 11 4 13 5 0 9 5 6 9 15-1l6-5q4-1 1-10l-2-8q-1-7-9-6l-9-1q-7-4-10 0m69-1q-3 3-4 10l-2 4c-5 6-2 13 5 13q3 0 7 4 8 9 16 0l6-5q3-2 1-8l-2-9q-1-9-9-8h-8q-6-3-10-1M4 466q-4-2-3 16c0 11 1 12 3 12l5 4q8 9 15 0l7-6q6-3 1-9l-2-7q1-8-9-8l-9-1q-5-3-8-1m66 2-2 5-3 8q-5 12 7 13l6 4q8 9 15 0l6-6q5-3 1-9l-1-7q0-8-9-8-5 1-8-1-7-3-12 1m620-1-1 4-3 5q-5 5 1 5l4 2q3 0 5 3 2 6 5 1l3-4q3-2 1-8 1-9-5-6-2 2-6-1-3-3-4-1m69 0-1 3-3 4q-5 6 3 7 5 0 6 4 5 9 5-6 1-12-2-9l-4-2q-3-3-4-1m-206 3-2 5q-5 6-2 7l7 1 3 3q1 6 7-1c4-6 3-19-1-15q-3 3-8-1-4-5-4 1m69-2-1 2-3 5q-4 6 1 7 7 0 8 4 2 6 6 1l3-4q3-2 1-7 1-10-5-6-2 2-5-1-5-3-5-1m-136 3-3 5q-5 6 3 7 5 0 5 3 2 6 7-1c3-5 3-15 0-14h-8q-3-4-4 0m-135 2-1 3-3 4q-6 5 3 6 5-1 5 3c1 3 6 4 6 2l2-4c3-3 3-3 2-8l-1-5-4 1-6-1zm67 1-3 5q-4 6 3 6 5 1 6 4 3 5 4 2l2-4q4-2 2-8v-5l-4 1-6-1q-3-4-4 0m-205 2q0 3-3 5-4 6 3 6 5 0 6 3 3 6 6 1l3-4 1-6q-1-9-5-5-3 2-6-1-5-5-5 1m69-2-1 3-3 4q-6 5 3 6 4-1 6 4 2 7 7-2c3-4 3-4 2-9q-1-7-4-4-3 2-6-1-4-3-4-1M8 476l-1 3-2 3q-4 4 2 7h4q2 0 3 3 1 6 6-1c4-5 4-5 3-10l-1-4h-4l-6-1q-3-3-4 0m69 0-3 6q-6 7 2 6 4-1 6 4l3 3 4-4q5-5 3-7v-5q0-4-4-2-3 2-6-1-5-5-5 0m67 0-2 5q-7 6 3 6 3 0 5 4 3 6 7-1c3-4 3-4 2-9q0-5-2-5h-8q-4-4-5 0"
        mask="url(#16282281824-posters-1720553451570-radial-mask)" itemprop="regular" fill-opacity="0.90"
        fill-rule="evenodd" stroke="none" fill="url(#16282281824-posters-1720553451570-horizontal-regular)"></path>
      <!---->
      <path id="16282281824-posters-1720553451570-medium"
        d="M0 7q0 8 3 7l6 4c6 6 9 6 17-2 8-7 8-7 5-12-2-6-9-6-8-1q1 4-3 8l-3 5-2-2q-5-7-8-6-7 0-2-6l2-2H0zm64-4q-2 8 7 10l8 5q6 9 16-2c7-7 8-8 5-13-2-5-9-5-8 0q2 3-1 6l-4 5q0 2-4-2-3-4-7-4l-4-1q-1-4 2-5l1-1c0-2-10-1-11 2m67 1q0 6 8 9l8 5c6 6 8 5 17-4 6-6 6-7 4-12q-1-2-5-2-5 0-3 1 3 4-1 7l-3 4q-1 6-6-1-2-3-6-3l-4-1q-1-4 1-5l1-1-5-1q-6-1-6 4m70-2q-3 8 6 10 4 0 8 4c6 6 8 6 15 0l6-5c4-4 2-11-4-11q-3-1-2 3c0 3 0 4-6 11q-2 1-5-3-2-3-6-3-8-1-4-7 2-1-3-1t-5 2m67 1q-1 6 7 9 5 1 8 4c6 7 9 6 17-2q12-13 1-14-5-1-4 3 2 2-3 7l-4 5-2-3-3-4-4-1q-6 1-4-4 3-4-4-3-5-1-5 3m70-2q-2 3 1 8 2 2 8 3l3 2q5 8 11 6c3-1 14-12 14-13q0-6-5-7-4-1-3 3l-2 5-3 4q-2 5-6-1-3-3-5-3l-5-2q-3-3-1-4l1-1zm67 3q1 7 9 7 2 0 6 5c7 6 8 6 18-4q11-11-1-12-4 0-3 2c0 3-5 11-7 11q-2 0-3-3-2-4-6-3-6 0-6-5 2-2-3-2-5-1-4 4m68-3q0 5 8 7 6 1 8 5c5 6 8 6 18-4q5-5 4-8c0-1-8-2-8 0l-3 5q-4 6-7 2c-4-3-4-4-8-4l-4-2c-1-2-8-3-8-1m67 0c0 2 6 7 9 7l6 3c6 8 9 7 18-2q11-10 2-9-3 0-7 5-6 9-8 2-2-4-6-3-4 0-5-2c-2-2-9-3-9-1m69 1q2 3 8 4l4 3q9 12 17 2l6-5q6-5-1-6-3 0-7 5-6 7-9 1-1-4-5-3l-5-1c-1-3-8-3-8 0m69-1q2 4 8 5 3 0 6 4 6 8 13 1l6-5q6-5 0-6-6 1-8 6l-4 4-3-4q-3-4-7-4l-4-1-4-1q-4 0-3 1m68 0q1 3 7 4 3 0 7 5 8 7 9 2 0-3-2-3l-3-4q-1-3-4-3l-3-1zM483 49q-4 1-4 8l-3 7c-4 4-1 12 5 12q4 0 7 5c6 5 8 5 15-1 8-7 9-9 7-14l-2-7q0-8-9-8l-13-3zm66 1q-3 2-3 6l-3 7q-6 6-1 9l6 3q3 0 8 5 6 8 14-1l7-6v-8l-2-6q0-9-8-8l-9-1q-5-4-9 0m68 0-3 6-2 6q-7 9 5 13 5 1 7 5 6 8 17-3c6-6 7-7 4-12l-2-7q1-9-8-8h-7q-7-4-11 0m68 0-2 4q0 4-3 7-8 12 5 13 4 1 7 5 6 10 16-2 8-8 5-12l-2-6q1-10-8-9h-7q-7-4-11 0m68-1-2 6-3 8q-5 9 6 11l7 4q8 11 9-6c0-18 0-21-5-23zm-543 5c-2 0-5 6-5 9l-2 5q-7 10 4 13 5-1 9 6 6 6 16-4l7-6-2-4-2-9q0-9-8-8l-9-1q-4-3-8-1m64 2-1 6-2 5q-6 12 5 13 3 0 7 5c6 6 9 6 17-2 7-7 7-7 5-13l-2-8q-1-9-8-7-5 2-8-1c-4-3-11-1-13 2m71-1-3 6-3 7c-4 5-1 12 6 12l6 4q7 10 19-2 7-8 4-13l-2-6q-1-8-10-8l-7-1q-6-3-10 1m67 0-2 6-2 6q-7 10 4 13l7 4q8 8 14 0l7-5q5-2 2-9l-3-7q0-9-8-8h-8q-7-4-11 0M3 56c-3 2-3 26 0 27l7 4q6 9 16-2 8-9 5-14l-2-6q1-9-8-8-5 2-9-1-6-3-9 0m68 0-2 6q-1 4-4 7c-4 6-1 13 7 13l7 5 5 4 10-5 4-4q6-4 2-10l-2-8q1-9-9-7l-7-2q-6-3-11 1m68 0-2 5-4 7q-6 9 6 14 5 1 7 4 4 5 9 4 16-11 13-20l-2-6q0-8-9-8-5 1-7-1-7-2-11 1m483-1-1 4-3 6q-5 5 4 6 5 0 5 3 3 6 6 3l4-5c1-3 2-5 1-14h-6q-2 1-5-2c-4-2-3-2-5-1m137 1-2 4-2 3q-7 7 4 8l4 1q2 5 5 6l1-10c0-11 0-11-2-11l-4-1q-3-4-4 0m-205 0-1 3-2 5q-8 7 5 8l4 4q3 5 6 0l3-4q3-2 1-7 0-9-5-6-4 1-7-2t-4-1m136 0-1 3q0 3-3 5-5 6 6 7l3 3q4 6 7 0l4-5-1-12h-3q-5 3-7-1zm-204 4-2 5-3 4q2 3 6 2 3 1 5 5 1 3 4 2c6-7 6-8 6-13q1-8-5-6h-5q-6-4-6 1m-69 3-2 5q-7 7 3 8 4-1 5 3c3 7 11-1 11-10q1-9-6-6-2 2-5-1-6-5-6 1m-203-1-1 2-2 5q-6 9 3 7 3-1 5 3 3 8 7 0 3-5 3-10 1-8-5-5-2 2-5-1-4-3-5-1m68 0-1 2-2 5q-7 6 3 7 5 0 6 3 3 6 7-1 3-5 2-10v-4l-5-1-7-1zm68 2-3 6q-4 5 2 6 5-1 7 3 3 4 5 2l2-3 2-3v-7q-1-5-4-4l-6-1q-4-4-5 1M77 63l-1 3-2 5q-4 4 2 6 5 0 6 4 4 6 7 0l3-5q3-2 1-4l-1-4q-1-5-4-3t-6-1q-4-3-5-1m68 0v3l-3 4q-6 6 2 6 5-1 6 4 4 5 6 1l2-4c4-5 2-17-2-13q-2 4-8 0-3-3-3-1M8 64l-1 2-3 5q-5 6 4 7l5 2q2 7 7 1c4-5 4-5 3-10l-1-5h-4l-6-1q-2-3-4-1m611 53q-4 3-5 8l-3 6q-6 10 6 12l8 5q6 9 16-3c7-6 7-7 4-11l-2-8q0-7-8-7h-7q-5-3-9-2m66 1-3 6q0 4-3 7l-2 5c0 3 5 7 7 7q4 0 7 4 5 6 10 4c2 0 13-12 13-14l-2-3-1-7q1-8-9-8l-8-1q-4-3-9 0m69-1-3 6-3 8q-6 7 5 11l8 5q9 9 9-2 0-4-1-1-1 4-5-1-2-4-6-4-10-1-4-8 3-2 3-5 1-6 7-2l4 2q1-2 1 7 0 11 1 3c1-13 0-16-6-18q-8-3-10-1m-204 2q-3 1-4 4l-3 9q-6 10 5 12l8 5q6 8 13 0l7-6q4-3 1-9l-2-7q1-8-8-7l-9-1q-4-3-8 0m-69 1-2 5q0 3-3 7-7 12 5 13l7 5q6 10 16-2 10-9 6-13l-2-5q0-10-10-10l-11-2q-5-1-6 2m-68 2q-3 1-3 6l-4 8q-5 11 7 12l5 3c7 8 10 8 18 0q10-9 5-13l-2-7q1-9-8-8l-9-1q-4-3-9 0m-135 0q-4 1-4 7l-4 7-2 6q2 6 8 7l6 4c7 7 10 7 18-1 7-7 7-8 5-14l-2-8q0-6-9-6h-6c-1-2-7-3-10-2m67 1q-3 3-3 5l-2 7q-9 10 4 14l8 4q6 10 17-3c7-7 7-7 4-12q-3-4-2-7 1-7-8-7-4 1-7-1-7-4-11 0m-138 1-2 6-2 6c-5 6-2 13 4 13q3 0 8 5 7 8 15-1l5-4q5-3 2-10l-2-7q0-8-8-8-5 1-8-1-7-2-12 1M3 124q-2 0-2 9 0 10 2 7l4-5 1-4 4 2q4 3 6 1 4-4 5 6c1 5 1 5-1 8l-3 3q-1 3-4 0-5-5-8-5l-5-1q-1-2-1 2 0 3 3 4l6 5q6 8 16-3 9-8 5-14l-2-6q1-7-9-7l-8-1q-4-3-9-1m70 0q-2 1-5 8 0 4-3 6c-4 5 0 13 7 13l7 4q6 8 14 0l7-6q4-4 0-8l-1-6q1-11-12-11zm65 1-2 5-2 6q-7 11 5 14l8 5q7 8 14-1l5-5q4-3 2-10l-2-7q1-7-10-7l-6-1c-2-2-10-1-12 1m552-1-1 4-3 4q-4 7 2 7t7 4c4 7 12-1 11-10q0-11-5-7-3 2-6-1-4-2-5-1m-68 1-1 3-2 5q-7 6 4 7 3 0 4 4 4 5 7 1l3-5q3-3 1-8 1-10-5-6h-6q-3-3-5-1m-135 1-1 2-3 5-3 5q2 3 6 2 4 0 6 5 3 4 5 1l3-4c3-4 3-4 2-9l-1-5h-4q-3 2-6-1zm66 3-3 5q-4 5 4 6 4-1 5 3 3 5 5 3c6-7 6-8 6-13q-1-9-5-6h-6q-5-4-6 2m-203 1-1 3-2 4q-4 5 1 7 7 0 8 4 2 6 5 1l3-5q2-2 2-7-1-8-5-5-3 2-6-1-4-3-5-1m68 2-1 3-3 3q-4 5 5 6 4 0 5 3 2 7 8-2 5-4 3-6l-1-5q0-4-5-2l-6-1q-4-4-5 1m-206 2-2 4c-4 2-2 7 4 7q2 0 5 3 5 5 6 2l3-5 2-5-2-5q0-6-4-3h-5q-6-4-7 2m70-3-1 2-2 5-3 4 6 3q3-1 5 3 3 6 7-1c5-7 3-17-2-14q-2 2-5-1-4-3-5-1m-205 1v3l-3 4q-6 6 2 7 4 0 6 3 5 6 6 2l3-4q3-2 1-7 0-9-5-6l-5-1q-3-3-5-1m67 2-3 5q-5 5 3 6 6 0 7 5t6-3q4-4 2-9v-5h-9q-4-4-6 1m612 51q-5 1-5 6l-3 8-3 5c0 3 6 7 9 7q4 0 6 3c2 4 8 7 9 5 2-4 1-31-2-31l-3-1q-5-3-8-2m-138 2q-3 2-4 6l-2 7q-8 9 4 12l8 5c6 6 8 6 16-3 8-7 8-6 5-11l-2-7q1-9-8-8h-7q-8-4-10-1m66 0-2 5q0 4-3 7-6 10 6 13l7 4q6 10 16-2 9-8 4-12l-1-6q1-10-9-8l-7-2q-5-2-11 1m-201 0q-4 2-4 7l-3 6q-7 11 5 13 4 1 6 4c6 7 9 7 18-1q9-9 5-13l-2-6q0-9-9-8l-9-1q-5-3-7-1m66 0-3 5-3 8q-5 11 4 12 3 0 8 4c7 8 8 8 17-1q9-8 4-13l-1-6q-1-9-9-7l-7-1q-4-3-10-1m-201 3q-6 1-6 7l-3 7q-7 10 5 13l8 5c6 6 8 6 17-2q9-9 4-12l-2-8q0-8-10-8l-6-1q-3-2-7-1m66 0q-4 2-4 7 0 4-3 7c-4 6-4 6 0 10l6 3q4 0 6 3c3 6 13 7 15 1l4-4q7-4 4-9l-2-8q-1-9-10-8h-7q-5-4-9-2m-275 3-3 6-2 6q-7 9 4 13l8 4q7 10 16-1c7-7 8-8 6-13l-2-7q0-8-10-8l-8-1q-5-4-9 1m136-1-2 6-2 6c-5 5-3 13 3 13q4 0 11 6c5 4 7 4 15-3q9-9 5-14l-2-6q0-8-10-8h-7q-6-4-11 0m-203 0q-3 2-4 9l-3 6q-8 9 6 11l8 6q7 8 13 0l7-7q5-4 2-8l-2-6q0-10-10-9l-8-1q-5-3-9-1m135 1-2 6-2 6q-8 9 5 12l6 5q10 9 15 1l5-5q6-3 3-11l-2-7q-1-7-10-6l-7-1q-7-4-11 0m550 1-2 6q-6 7 5 8 3 0 4 3t3 3q3 2 2-10 0-11-1-9l-4-2q-7-5-7 1M3 193c-3 2-3 26 0 27q3 0 6 4 11 9 16-2l3-2q6-2 3-11l-2-7q0-7-8-7l-9-1q-6-3-9-1m687 0-1 3q0 2-3 5-5 6 4 7 4-1 5 3 2 5 6 2l4-5q4-4 1-6l-1-3q1-6-5-5h-6q-2-3-4-1m-136 1-1 4-3 4q-5 5 4 7l4 1 3 4q2 3 3 1l4-6q4-3 2-6l-1-5q1-5-5-2-3 2-5-1-5-3-5-1m68 0-1 2-3 6-3 3 2 2 4 2q4-2 6 3 3 6 8-2 5-4 3-7l-1-6q0-4-4-2h-5q-4-3-6-1m-136 3q0 3-3 5-7 7 3 7 5 0 6 4 4 5 5 1l4-5c3-4 2-13-2-12l-9-1q-4-4-4 1m-68 2v2l-3 4q-7 7 3 7 5 0 6 4 2 6 5 0l4-4q2-1 1-7 0-8-5-5-4 2-7-1-4-3-4 0m-136 0-1 2q0 3-3 5-5 6 4 7 4 0 5 3 3 7 7-2 4-5 3-9 0-7-4-4-3 1-6-1-5-3-5-1m69 0-1 2q0 3-3 5-4 4 3 6 5 0 6 4 2 6 6 0l2-3c2-1 2-13 1-14l-4 1h-7zm-274 1-1 4-3 4q-6 4 3 6 5 0 6 3 3 6 7 0c6-6 4-19-1-16-4 2-3 2-6 0q-3-3-5-1m68 2-4 5q-4 6 3 7h4l2 3q4 5 6 1l3-4q3-3 1-6l-1-5q0-3-5-1-2 2-4-1-4-5-5 1m68-1-3 5q-6 8 3 8 4-1 6 3 3 6 6 1l2-4 2-6q1-10-5-7h-5q-5-4-6 0M7 204l-2 3-2 2q-3 6 5 6 2 0 5 4 5 6 6 1 0-3 4-5 3-2 1-5v-5c-1-4-1-4-8-2l-4-1q-5-4-5 2m612 50q-5 1-5 7l-2 6q-7 11 4 14 4 1 7 4c6 6 9 6 17-2q9-8 5-13l-2-6q1-8-10-8l-7-1q-2-2-7-1m67 0q-3 2-4 7l-2 6q-7 12 4 13 3 0 7 5c6 6 8 5 16-2s8-8 6-13l-2-7q1-6-9-7l-10-2zm69 0q-3 2-4 5 0 4-4 9c-4 4-1 11 6 11l7 5q8 6 9 2c2-4 1-30-2-30l-4-1q-4-3-8-1m-272 2q-5 2-5 7l-2 6c-5 6-2 13 5 13q6 1 7 5l7 4c2 0 16-13 16-14l-1-3-2-8q-1-10-9-9l-9-1q-4-3-7 0m66 0-3 6q0 4-3 8-7 8 5 12 5 1 8 4 7 9 16-2c6-7 7-8 4-12l-1-7q1-8-10-8l-8-1q-5-4-8 0m-339 3q-7 3-8 10c-3 13-2 14 4 16l9 5c6 6 9 6 17-2 7-7 7-7 4-14l-2-8q-1-6-9-5-2 2-6-1-5-3-9-1m69 0q-5 1-5 4c0 3-4 11-5 11-4 3 1 12 7 12l7 5q9 7 13 1l8-8 3-3-2-4-2-8q0-8-9-8-3 1-8-1-4-3-7-1m67 0q-4 1-4 7l-2 6c-6 6-3 14 5 14q4 0 5 2 6 7 11 7l5-5 6-6q4-1 2-8l-3-7q-2-11-9-8-3 1-6-1-5-3-10-1m67 1q-2 0-3 8l-3 6c-5 4-1 12 6 12q3 0 7 4 3 4 7 4t7-4l4-4q6-1 3-11-2-5-1-7 1-6-9-6l-8-2zM3 261q-2 0-2 13v13l3 1 6 4c6 6 8 5 17-3q7-7 4-13l-2-6q0-7-10-7l-7-1q-5-3-9-1m69 0-3 6-3 8q-7 9 5 12l7 4c6 7 9 7 17-1 7-7 8-8 6-13l-2-6q0-10-10-9h-7q-6-3-10-1m70 0q-6 3-6 8l-2 6q-6 5 0 9 2 3 5 3t7 4c6 6 9 5 17-2q9-8 4-12l-1-7q0-8-9-8l-7-1zm548 0-1 3-2 4q-5 5-3 7 1 3 4 2 7-1 7 3 4 6 7 0l3-4c2-2 2-2-1-13h-3q-3 2-6-1-5-3-5-1m68 0-1 3-3 5q-6 6 6 7l4 4q4 8 5-7c0-10 0-10-2-10l-4-1q-2-3-5-1m-205 4-3 5q-5 8 4 8 2-1 5 3 4 7 7 1l3-4q3-3 1-6v-5q0-5-6-3-2 2-6-1c-4-3-3-3-5 2m69-2-1 3-2 4q-7 6 3 7l4 1 2 4 2 3 5-5c4-5 4-5 3-8l-1-6q1-6-5-2h-5q-3-3-5-1m-136 3-3 6-3 3 2 1 5 2q3-2 5 4 3 5 6 0l3-4c2-3 2-3 1-8-1-6 0-6-7-4l-4-1q-4-4-5 1m-272 1-1 2-3 6q-5 7 4 7 3 0 5 3 3 7 8-2c4-4 4-4 3-8q-1-8-6-6l-7-1q-2-3-3-1m68 0-1 3-3 5q-4 5 3 6l4 1 2 3q3 7 8-2 3-4 2-9l-1-4h-3l-7-2zm68 1-1 3-2 4q-8 5 4 6 3 1 4 4 4 6 7 0l3-5q3-2 1-4l-1-5q1-3-4-2-3 1-6-1-4-3-5 0m68-1-1 3q0 3-3 5-5 4 1 6l4 1q3 0 4 3 3 6 6 2l4-5q3-2 1-8l-1-5h-4l-6-1q-2-3-5-1M7 271q0 3-3 5-4 6 3 7 5 0 6 4 4 5 6 1l3-5q4-3 2-4l-1-5q0-4-4-3l-6-1q-6-4-6 1m70-2-1 2q0 3-3 5-6 6 3 7 6 0 7 3 2 6 6-1 5-5 4-10-1-8-4-5h-8q-2-3-4-1m68 0-1 2-3 4q-4 6 3 7 6 1 6 5a4 4 0 0 0 7-2l2-2q3-2 2-5l-1-5q-2-7-5-3h-6q-2-3-4-1m473 54q-3 2-4 8l-3 7-3 5q2 5 8 6 3 0 8 5 5 7 7 4l3-1 4-3 5-5q5-4 1-9l-1-6q1-10-8-9l-7-1q-6-2-10-1m69 0q-5 1-5 6l-2 7c-5 6-2 13 5 13l7 5q6 9 16-3 9-8 4-11l-1-6q1-10-8-9l-9-1q-5-3-7-1m66 0-2 6-3 7q-7 11 5 12 2 0 6 5 12 13 11-9c0-16-1-18-5-20q-8-3-12-1m-272 2q-2 2-2 6l-3 6q-7 10 5 13 5 1 6 4 9 9 14 1l5-5q7-2 3-9l-2-7q1-8-9-8l-8-1q-5-3-9 0m70-1q-5 3-5 8l-2 6q-5 4-3 8 0 2 6 3l7 5c7 6 10 6 18-2l6-6-1-5-3-9q0-7-8-6l-8-1q-4-3-7-1m-275 5-3 6q0 4-3 7-6 10 5 13l8 4c7 7 8 6 18-3q7-7 4-12l-2-6q1-8-8-8h-8q-6-4-11-1m69 0q-3 2-3 5 0 5-4 9-5 6 4 10 8 3 9 6 2 3 8 4 3 1 10-7c7-7 7-7 4-13l-2-7q0-7-8-6l-8-2q-7-2-10 1m68-1-3 5-4 8c-4 6-1 13 6 13q3 0 7 5c7 6 9 6 17-2 8-7 8-7 5-13l-2-7q0-9-8-7l-8-1q-5-3-10-1m-340 1q-3 2-4 8l-3 7q-6 9 5 11 5 2 8 6 6 8 14-1l7-6 3-2-3-5-2-9q0-7-9-7-4 1-8-1-5-3-8-1m66 0-2 6-3 7q-7 11 5 14 5 1 6 4 7 9 15 0l6-5q6-4 1-10l-2-8q0-6-8-6l-8-1q-6-3-10-1m70 1q-3 1-4 5 0 3-3 7-6 10 6 13l7 5c6 6 8 5 16-1q10-9 6-13l-2-7q-1-9-10-8l-8-1q-3-3-8 0M4 330l-3 1v17l3-3 3-4q-1-6 6-2h5q6-3 5 3l1 5q2 1-3 7c-5 6-5 6-8 2q-1-5-6-4-4 0-5-2t-1 2 3 5l6 4q6 9 14-1l6-5q4-2 1-8l-2-8q1-7-9-7a19 19 0 0 1-12-3zm685 0-1 4-2 4q-6 7 2 8 5-1 7 3 1 3 3 3c2 0 10-9 9-11l-1-5q0-7-5-4-3 2-6-1-4-3-6-1m69 0-1 2q0 3-3 5-6 6 3 8 5 0 6 3l4 3q3 2 2-9c0-10 0-10-2-10l-4-1q-2-3-5-1m-205 1-1 4-3 5q-4 5 4 6 5-1 6 4 3 5 6 1l4-5q3-2 1-4l-1-6q0-6-5-3-3 2-6-1t-5-1m69 0-1 2-3 6q-5 6 2 6 5 0 7 4 5 6 6 0l3-4q3 0 1-7 1-10-5-5-3 2-5-1-3-3-5-1m-136 1-1 3-2 5q-7 6 3 7 4-1 5 3l3 3c3 0 9-9 8-11l-1-5q-1-6-3-4h-7q-2-3-5-1m-136 3-1 4-2 4-3 3q1 4 7 4 2 0 5 3 2 6 7-1c4-6 3-16-1-14q-5 1-7-1-2-3-5-2m68 1-1 3-2 4q-8 6 4 7 4 0 4 3 1 7 7 0 6-6 3-13 1-4-4-3h-6q-2-3-5-1m-273 1-1 3-2 5q-4 5 2 6 4 0 6 4 3 5 5 1l4-4q4-3 2-5l-1-5q1-6-5-3-3 2-5-1-4-3-5-1m68 0-1 3-3 4q-5 6 4 7 4-1 6 3c3 7 11-1 10-10q0-9-5-6h-6q-3-3-5-1m69 0-1 2q0 2-3 5-6 5 3 7 4 0 6 3 4 3 6 0l4-4v-4l-1-5q0-6-4-3h-5q-4-3-5-1m-205 1-1 4-3 4c-5 1-2 6 3 5q6 0 7 5t6-1q5-4 4-10 0-10-5-6h-6q-5-3-5-1m405 54q-3 1-4 7l-3 7c-5 4-3 11 5 13l8 5c6 6 8 5 17-4l5-5-1-4-2-9q-1-9-9-8l-8-1q-5-3-8-1m66 1-2 5-3 8q-6 12 6 12l6 4q7 9 14 1l6-6q5-3 2-8l-3-6q0-10-7-9h-8c-7-3-8-3-11-1m68 0-2 5-4 8-2 5c0 2 6 7 9 7q3 0 6 4c6 6 9 6 17-2q9-8 4-12l-1-7q-1-8-9-7l-6-1q-7-4-12 0m68-1-2 6-3 7q-6 10 6 12l7 5q6 9 16-2c7-6 7-7 4-12l-2-8q1-7-8-6l-8-1q-5-3-10-1m68 0-1 6-3 6q-7 10 5 13l6 3q7 8 10 5v-27c-1-6-13-10-17-6m-476 6-2 5-4 7q-6 10 6 13l8 5q6 9 16-3c6-6 6-6 5-9l-2-9q-1-9-9-8l-8-1q-7-3-10 0m68 0-2 5-3 7q-6 10 6 13 4 1 6 4 6 10 18-2 10-7 4-12l-2-8q0-8-9-7h-7q-7-4-11 0m68 0-2 4q0 6-4 10-5 7 7 11 4 1 6 4c6 7 9 6 18-2 7-7 7-7 4-12l-2-8q0-7-8-7h-8q-7-4-11 0m-340 1q-3 2-3 5l-4 9q-5 8 6 11l8 6q3 3 7 3c3 0 3 0 15-11q2-4-1-7l-1-6q1-10-9-9l-9-1q-6-3-9 0m67-1-2 6-3 8q-7 9 4 12l8 5c6 6 8 5 16-1q10-8 6-14l-2-7q-2-9-9-7l-8-1q-6-3-10-1m68 1-2 6-1 5q-9 11 4 13l7 5c5 6 7 5 16-2 7-7 8-8 5-12l-2-7q0-9-9-8-4 2-7-1-8-2-11 1m483-1-1 3-3 5q-4 3-2 6 1 2 5 2t6 3q4 5 7 1l3-4q2-2 1-8 0-8-6-6-3 2-6-1zm68 0-1 3-2 5q-7 7 3 8 4-1 5 3l4 3c2 0 2 0 2-10l-1-10-3-1q-5-3-7-1M3 399q-2 1-2 10t1 7l3-3 2-4q1-5 5-2 2 2 6 2l5-1 1 5v6l-4 6q-3 6-7-1-2-3-5-3l-5-2q-2-2-2 3 0 4 3 4l6 4q6 9 16-3c8-7 8-7 5-12l-2-8q0-7-7-5-5 1-9-2-6-4-10-1m550 0-1 4-2 4q-7 7 4 8 3 0 5 4 2 6 6-1l4-5q3-2 1-3l-1-5q1-6-5-4-3 2-8-1-1-3-3-1m68 1-1 3-2 4q-6 7 3 7 4-1 6 3 3 6 7 0l3-4q2-1 1-3l-1-5q-1-6-6-4-1 1-4-1-4-5-6 0m-135 1-1 3-3 4q-4 6 4 6 3 0 5 3 3 6 8-1 4-4 2-7v-5q-1-4-3-2-3 3-8-1-4-3-4 0m-205 3-1 4-2 4q-7 6 5 7l4 4q2 6 6 0l2-4q3-2 1-7 0-8-6-4l-5-2q-3-4-4-2m69 0-1 3-2 4q-7 8 3 8 4-1 5 3 4 7 8-1c5-7 3-17-2-15q-3 2-6-1t-5-1m-137 1-1 3-2 4q-6 8 3 8 4-1 6 3 2 6 6 0l3-4q3-1 1-5 0-10-5-7l-6-1q-3-3-5-1m205 0-1 2-2 5-3 4 6 3q3-2 6 4t5 0l3-5q3-1 1-7l-1-4h-4l-6-2zm-341 1-1 3-3 4q-6 5 3 7 4 0 7 4 4 5 5 2l3-5c4-5 2-18-3-14q-4 3-7-1zm68 0-1 2q0 2-3 5-5 6 3 7 4 0 5 4 5 5 7 1l3-5q3-2 2-4l-1-4q-1-6-5-4-2 2-5-1-4-3-5-1m539 55-2 6-2 6c-5 5-2 13 5 13l6 4c6 7 9 6 17-2q9-8 4-11l-1-6q1-10-8-9-5 1-9-1-6-4-10 0m70-1-3 5-4 8q-6 10 6 12 4 1 7 5 11 13 10-10 0-19-3-18l-4-1q-3-2-9-1m-273 1-3 4q-1 10-4 11-4 6 6 11l8 5c6 5 8 5 15-2s8-8 6-13l-2-6q0-9-8-8l-9-1q-5-3-9-1m67 1-3 6-3 7q-6 9 5 11l8 5q8 8 15 0l5-5q4-1 1-9l-2-8q0-7-9-6l-7-1q-6-3-10 0m68 0-2 5q0 4-3 8c-3 4-4 4-1 8q1 3 6 4 4 0 7 4 7 8 13 1l4-3q10-8 4-12l-2-7q0-9-8-7l-7-1q-7-4-11 0m-204 4-2 4q0 3-3 7-9 11 7 14l5 3q6 10 17-1 8-8 6-12l-3-7q0-9-9-8l-8-1q-6-4-10 1m-68 0-2 6-3 6q-6 9 5 13 3 0 8 5c6 6 8 6 16-3 7-7 8-8 6-12l-3-6q0-10-8-9-5 1-8-1-7-2-11 1m-205 1-2 6-3 7c-5 5-2 12 4 12l7 4c7 6 9 6 18-2l6-6-1-3-2-9q-1-9-9-8l-8-1q-7-4-10 0m68 0-2 5-3 7q-6 11 6 13 4 0 6 4 5 10 18-2 10-7 4-13l-2-7q1-7-8-6l-8-2q-9-2-11 1m69-1-3 5q0 4-3 8-6 10 5 13 4 0 8 4 7 8 14 0l7-6q4-3 1-8l-2-5q0-12-10-10h-7q-6-3-10-1M3 467c-3 2-2 25 1 26l5 4q7 9 15 0l7-6q5-3 0-8l-2-8q0-7-9-7-4 1-8-1zm69 1-3 5-4 8q-6 9 6 12l8 4c6 7 8 6 17-2 6-6 6-6 5-9l-2-9q-2-11-10-8l-7-1q-6-3-10 0m549-1-1 3-2 5q-7 8 3 8 4 0 6 4 3 6 6 1l4-5q3-2 1-5l-1-6v-3h-4q-5 2-7-1-3-3-5-1m68 1-1 3-3 4q-5 5 4 8 4 1 7 4 3 6 5 0l4-5 1-6q1-10-6-7l-6-1q-4-3-5 0m69-1-1 3-2 5q-7 6 3 7 4 0 5 2 5 13 6-6c0-9 0-9-2-9l-4-1q-2-3-5-1m-205 1-1 3q0 2-3 5-4 6 3 7 5-1 6 3c2 4 7 5 7 1l3-4q3-3 1-6v-4q0-5-5-3-4 2-6-1-4-3-5-1m-67 1-1 2q0 3-3 5-4 6 3 7 4 0 6 3c3 7 10 0 10-10q0-8-5-5-2 2-5-1-5-3-5-1m-69 5q0 3-3 5-6 6 4 7 3 0 5 3 3 6 8-1 4-4 2-10l-1-4h-4l-6-1q-4-4-5 1m-204 0-1 3-3 4q-5 6 4 7 4-1 5 3l3 3q4 0 5-4l2-2q3-2 1-6l-1-5q0-4-4-2-5 2-6-1-5-4-5 0m69-1-1 2-3 5q-7 8 3 8 4-1 5 3 3 6 8-1c3-4 3-4 2-10v-5l-4 1q-5 0-6-2-3-3-4-1m68 0-1 2-2 5q-6 6 2 7 5-1 6 3 3 5 7 0l2-4q3-1 1-7v-5h-4q-4 1-6-1zm-273 1-1 3-3 5q-5 6 3 7 4 0 6 3 3 6 8-1c3-4 3-4 2-10q0-5-2-5-6 2-9-1t-4-1m67 0-1 4-2 3c-4 2-2 7 4 7q2 0 5 3l3 3c2 0 8-8 7-10v-5q1-4-6-3l-6-2zM8 475l-1 2-3 4q-5 7 4 8 5-1 5 3 3 6 8-1c4-5 4-5 3-9q-1-9-4-6-3 2-7-1z"
        mask="url(#16282281824-posters-1720553451570-vertical-mask)" itemprop="medium" fill-opacity="0.90"
        fill-rule="evenodd" stroke="none" fill="url(#16282281824-posters-1720553451570-vertical-medium)"></path>
      <!---->
      <path id="16282281824-posters-1720553451570-bold"
        d="M0 6q0 7 4 7l6 5q7 6 13 0l6-5c5-3 3-13-3-13q-4-1-2 3 1 4-3 8-5 8-8 2-2-4-7-4-6 0-2-7l2-2H0zm65-4q-2 10 4 10 6 1 11 6 6 7 13-1l6-5c5-2 1-12-4-12q-4-1-2 3 1 3-2 7l-3 5q-1 3-5-3l-5-3c-5 2-9-3-5-7l2-2h-5q-6 0-5 2m67 2q-1 5 7 8l8 6q6 7 15-3l7-9q-1-5-7-6-3 0-1 1 3 4-2 7l-3 5q-2 6-6-1-4-4-5-3l-7-3 2-4 2-2h-4q-6-1-6 4m70-2q-3 7 6 10l8 4q7 8 13 0l7-6c4-2 1-10-4-10q-2-1-2 3 1 3-2 7-6 9-11 0l-3-1q-10-1-6-8 2-1-2-1t-4 2m67 0q-3 7 7 9l8 5q6 9 16-2c6-7 7-8 5-11-2-4-8-4-7 0q1 2-2 6l-3 4c0 3-6 1-7-3q-1-2-5-2-8-2-5-5 5-4-2-3-5 0-5 2m70-1c-3 3 1 10 6 10l5 2c7 9 10 9 18 1q9-8 5-12-5-4-5 0l-3 6-3 5q-2 4-7-1-2-4-5-4c-5 0-9-6-5-7q1-1-2-1zm66 2q0 5 8 7l8 5c6 6 7 6 16-3q9-7 5-10c-3-3-8-3-7 0q1 2-2 5l-3 4c-1 4-7 3-7-1l-1-2-5-1q-6 0-6-5 2-2-2-2-5-1-4 3m69-1q1 4 4 4 7 2 10 6 7 10 18-3 7-6 4-7c0-3-5-2-7 0q-8 15-12 5l-4-2q-7 0-7-4l-3-1q-3 0-3 2m67-1c0 2 5 6 7 6q4 0 7 4 10 9 16-1l3-3q4-1 4-5 0-2-3-2l-4 1-4 6q-5 7-8 1-1-3-6-3l-6-3c0-2-6-3-6-1m69 0q1 4 7 5l6 3q7 10 13 3l7-6q6-5 1-6-5 0-10 8-3 5-7-1-1-3-5-3t-5-2c-2-2-7-3-7-1m68 0c0 1 7 5 10 5l4 4q6 8 15-1 11-10 5-9t-9 7q-4 6-8 0-1-3-4-4l-7-2-3-1zm69 0q0 2 3 2l5 2 5 3 8 6q2-2-1-5l-4-4q-2-3-5-3l-3-1c-2-2-8-1-8 0M551 49l-4 4q0 6-4 10c-4 5-1 12 6 12q3 0 7 4 6 8 13 1l3-4 2-1q5-3 2-9l-2-7q-1-9-9-7-3 1-7-2l-4-2zm67 1-3 6-3 7q-6 8 7 12l6 4c5 6 7 5 15-2q9-8 5-13l-2-5q1-8-9-8l-8-1q-4-3-8 0m68 0-2 4-3 8-4 6q2 4 8 6 2 0 8 5 6 8 12 0l6-5q4-1 1-9l-2-8q1-7-7-6l-9-1q-5-3-8 0m69-1-3 6-4 8q-4 10 8 11l5 4 6 3q3 2 3-9V57l-1-6-5-1q-8-3-9-1m-272 1q-4 2-4 8l-2 6q-7 8 3 11 4 0 8 5 7 8 16-2 9-7 4-12l-1-7q0-9-9-7l-6-1q-5-2-9-1m-207 5-2 6-4 7q-4 7 3 10l5 2 5 3c6 7 8 7 17-1 6-6 6-6 5-9l-2-9c-1-5-4-11-6-9-2 1-9 1-11-1q-6-3-10 1m70-1-4 9-3 6q-5 7 5 10l8 5q7 9 15-1l6-5q3-1 1-7l-2-6q-2-10-8-9l-9-1q-6-3-9-1m-205 1q-2 1-4 7l-4 7q-5 8 5 12 5 1 8 4c6 6 7 6 17-2 6-6 6-6 4-12l-2-7q0-9-9-7l-7-1c-5-2-5-2-8-1m68 0-2 3-5 11-1 5q0 5 8 6 4 1 6 4 6 11 17-1c7-7 7-8 4-13l-2-7q0-7-8-7h-7q-6-3-10-1m204 0-2 6-3 7q-6 9 2 10l11 6q6 6 13-1l6-5q3-1 1-7l-1-4-1-2-1-4q1-5-8-5l-8-1zm140 0-1 4-2 5q-7 8 4 8l3 1 2 3q6 6 8-1l2-3q3 0 2-7c-1-8-1-8-6-8q-4 2-7-1-4-3-5-1m68 1-1 4-2 4q-7 6 4 8 5 0 5 3c0 3 5 5 7 2l2-4 2-2 1-8q1-10-7-6-3 2-5-1-4-5-6 0m69-1-1 3-2 5q-8 7 4 8l4 3q3 8 7 2l4-5q3-3 1-8 0-11-5-7-3 3-6 0l-4-2zm67 3-3 4c-5 3-1 10 5 9l4 3q7 10 6-6 1-12-2-11l-3-1q-4-4-7 2M4 56q-4 0-3 10v7l3-2 2-5c0-4 6-5 7-1h6c4-3 8 10 4 13l-3 4q-4 6-7 0-1-3-5-3l-5-2q-2-2-2 1t3 4l5 4c4 5 13 6 15 1l4-5q6-5 3-10l-2-6q1-9-8-8h-8q-4-3-9-2m68 0-2 3q0 6-4 11c-5 4-1 11 5 11q3 0 8 5 6 8 16-2 8-7 5-11l-3-8q1-10-8-8h-7q-6-3-10-1m414 3-3 6q-6 7 3 7 5 0 6 4 3 6 6 0l3-4 2-4-1-6q0-6-6-3h-3l-6-3zm-69 1-1 3-2 4q-6 8 3 9 4 0 5 3c4 7 12 0 12-10q0-9-4-7-3 2-7-1t-6-1m-204 1-1 4q0 3-3 5-3 3-1 6l5 1q4 0 6 4c3 7 11-2 11-12v-5h-5l-7-2q-2-3-5-1m68 1-1 3-2 4q-6 6 3 7 5-1 6 3t5 3q5-4 6-12t-6-7l-5-1q-4-3-6 0m69 0-1 3-3 4q-6 6 3 7 5 0 6 3c2 3 7 4 7 2l3-5q3-3 1-7-1-8-5-6l-6-1q-4-3-5 0M76 62l-1 4-2 5q-5 6 4 7 3 0 5 4 4 6 7 0l3-5q3-1 1-6-1-9-6-7-3 2-5-1-4-4-6-1m69 1-1 2-3 5q-6 7 2 6 4 0 7 4 4 6 6 2l3-5 2-7q0-10-6-6h-5q-4-3-5-1m610 54q-4 4-4 9l-2 4q-6 8 2 11 6 1 11 6 6 6 8 0v-3l-1 1q-1 5-7-3 0-3-5-3-8-2-3-8l2-4q1-8 8-4 4 4 5-1 0-3-2-3l-4-1q-6-3-8-1m-137 1-3 6-3 7c-5 5-1 12 6 12l6 4q4 4 7 4t7-4l4-4c4 0 5-6 2-9l-1-6q-1-10-8-8-2 1-8-1-6-3-9-1m67 1-2 6-2 5c-5 5-2 13 6 13l4 3q5 5 9 5c2 0 13-12 13-14l-1-4-2-6q0-9-8-8-4 1-7-1-8-2-10 1m-136 1-2 3-2 6c-5 9-5 8-3 11q2 3 6 4l8 4q7 7 13 0l5-5q6-2 3-8l-2-6q1-9-7-8l-9-1q-6-3-10 0m-68 1-2 5-2 6q-7 9 3 12l8 5q9 9 14 0l5-5q4-1 3-6l-2-4-1-6q0-8-9-7l-6-1c-2-2-10-1-11 1m-69 2-2 6-2 7q-7 9 4 11l7 4q7 9 16 0c8-8 8-9 5-13l-2-9v-4l-6-1-10-2q-6-3-10 1m-204 2-3 6-2 5-2 7c0 2 6 6 9 6l6 4q7 8 13 0 2-3 5-4 6-3 2-10l-2-7q1-8-8-7l-9-1q-6-4-9 1m69-1-3 6-4 8-2 5q2 4 9 6l6 3c6 8 8 7 17-1q9-8 5-12l-2-7q1-7-9-7l-8-1q-5-3-9 0m67 1-2 6-2 5q-7 10 5 12 4 1 6 4a9 9 0 0 0 15 1l4-5q7-5 1-11-3-4-1-6 2-6-7-6l-8-1q-6-4-11 1m278-1-1 3-3 5-3 5q2 3 8 4 3 0 4 3c1 3 7 6 7 3l3-5c4-7 2-20-3-17h-7q-2-3-5-1m68 0-1 3-2 4-3 5q-1 4 7 4l4 4q4 5 7 1l4-5c4-4 0-18-4-15h-7q-2-3-5-1M2 125q-2 0-2 9t2 6 4-6 6-2 7 1q3-1 5 5l1 5-3 5-3 4c0 2-5 1-6-2q-2-3-6-3l-5-1q-1-2-1 1l3 3 6 5q6 7 14-1l6-5c2 0 3-6 1-8l-2-6q1-9-9-8l-7-2zm71 0-3 3c0 4-4 11-5 11q-5 6 7 11l7 4q7 7 13 1l6-6q5-2 2-9l-2-6q0-9-10-9zm65 1-2 5-2 6c-4 5-1 12 5 12l7 5q5 4 8 4 5-1 6-5l3-3q8-3 5-10l-2-7c-1-7-3-8-16-8-10-1-11-1-12 1m348-1-1 3-2 5q-7 8 3 8 4 0 5 4l3 3q4-1 5-4l3-3 1-4-1-5-1-4h-4l-7-2q-3-2-4-1m67 1-1 4-3 4q-5 6 5 7 4-1 5 3c3 7 12-1 11-11q1-9-5-7h-7q-3-3-5 0m-135 3-1 4-3 4c-2 1-3 6 0 7q11 1 9 4c2 4 8 3 8-1l3-3c2-1 3-6 1-7l-1-4q0-5-5-2-2 2-6-1t-5-1m-205 1-1 3-2 4q-7 6 3 8 4 0 5 3 4 6 7 2l4-5q2-3 1-5v-5q-2-5-5-4h-7q-2-3-5-1m68 0-1 4-3 4q-5 6 4 7 4 0 6 4 3 5 5 2c6-8 6-8 5-13v-5l-5-1-6-1q-3-3-5-1m68 2-2 5q-7 7 3 8 4-1 5 3 4 5 7 1l3-4c4-5 1-18-3-14h-7q-4-4-6 1m-272 0q-2 1-1 3l-3 4q-6 6 3 8 4 0 6 3c1 3 6 4 6 2l3-4c5-6 2-18-3-15q-3 2-6-1t-5 0m67-1-1 4-2 4q-6 6 4 7 3-1 4 3 5 6 8-1 6-6 3-12-2-6-6-3l-3-1q-5-3-7-1m542 55-4 7q-1 5-3 7-6 8 6 11l7 5c6 5 7 5 15-2 7-7 7-8 5-12l-2-6q1-9-8-8l-8-1q-5-3-8-1m68 1-3 6q0 4-3 6-6 9 5 11 6 1 7 3c0 2 4 6 5 4q0-2 2 1 3 5 3-12v-11l-1 9q-1 18-6 7-2-3-5-3-10-2-4-8l2-5q1-7 7-3 6 5 6-1 1-3-2-3l-5-1q-4-3-8 0m-136 0-3 6-3 7q-5 10 7 12l5 4q7 10 16-2 9-7 5-10l-2-7q-2-12-9-8h-5q-7-3-11-2m-137 2-2 6-2 5q-8 10 4 12l7 5q7 9 16-2 8-6 6-9l-2-4-1-4q1-9-8-8l-8-1q-6-4-10 0m68-1-2 3-3 8q-6 13 5 13 3 0 7 5 6 9 16-3c7-7 7-7 4-11l-2-7q1-8-8-6l-6-1c-1-2-9-2-11-1m-204 4q-3 1-3 5t-3 8c-4 5-1 12 7 12q2 0 6 5l6 4 8-4 5-5 4-5-2-4-2-6q1-10-8-9l-8-2q-5-2-10 1m68-1-2 6-3 7-3 6q1 5 7 6 6 0 8 5c3 5 11 5 14 0l4-4q6-3 3-10l-3-8q1-7-8-6l-8-1q-4-3-9-1m-274 2-2 6q-1 5-4 7-5 8 6 11l8 5q6 9 16-2l6-7-1-4-3-8q-1-9-9-7l-7-1q-6-4-10 0m71-1q-4 2-4 7l-2 5c-6 6-3 13 5 13q2 0 6 5 4 4 7 4t7-4l6-5c2 0 3-6 1-10l-2-6q0-7-8-7-6 1-8-1-5-3-8-1m65 3-2 6-2 4c-5 5-2 12 5 12l6 3c8 7 9 7 19-2q7-6 4-10l-2-7q0-9-10-8l-6-1-6-1q-6-1-6 4m415-3-1 3q0 3-3 5-7 8 3 8 4-1 5 3 4 8 7 3l4-6q4-3 2-6l-1-4q2-6-6-4-2 2-6-1-3-2-4-1m-618 1-3 6q-1 5-4 8-6 7 5 10 6 2 9 5 7 9 13 1l6-5q5-3 2-10l-2-4q-1-11-9-10-3 1-7-1zm481 0-1 4-1 4c-6 3-3 9 4 9l3 1q1 4 5 5c4 0 8-9 7-15q1-9-6-6-2 2-5-1-4-3-6-1m68 0v3l-3 5-3 4q1 4 7 5 3-1 5 3 3 6 8-1l3-4 1-7q-1-9-7-7h-5q-3-3-6-1M3 194q-2 1-2 9v7l3-2 2-5q1-6 6-2 3 3 6 1 6-4 6 3l1 5q2 2-2 6l-4 5c0 2-5 1-6-2q-1-4-5-3l-6-2q-1-2-1 1t3 4l6 4c3 6 12 6 14 0l4-4q7-3 2-10l-2-8q1-6-8-5l-8-1q-5-3-9-1m484 0-1 2-3 5q-7 9 3 9 5 0 6 4 4 6 6 0l4-5q3-2 1-5l-1-5q1-5-5-3-4 2-6-1-2-2-4-1m-69 4-1 2q0 3-3 5-6 6 3 8 6-1 6 3 3 6 8 0 0-3 2-3 2-2 2-5l-1-6q-1-7-4-3c-1 2-6 1-7 0q-2-3-5-1m-342 2-1 4-3 4q-5 6 4 7 4-2 6 2l3 4c2 0 9-8 9-10l-1-6q0-7-6-4-2 2-5-1-4-4-6 0m69-1-1 4-4 5q-5 5 4 6 4 0 5 2 3 8 7 2l4-5q3-2 1-5l-1-4q1-5-5-3-6 1-7-2zm68 0-1 3-2 4c-5 4-2 10 4 9l3 1q5 9 9 1l3-4v-12l-5-1h-5q-3-3-6-1m68 1-3 6q-7 7 3 7 4 0 6 4c3 6 11-3 10-12q0-8-4-5h-6q-4-4-6 0m69-1-1 2-2 5q-7 7 3 7 4 0 6 4 3 7 7-2c6-8 5-20-2-16q-3 3-6 1-3-3-5-1m266 58-2 5-2 6c-4 5-1 12 5 12l6 3 6 5c3 1 3 2 12-7l5-5-2-5-2-8q0-8-9-6l-7-1q-6-4-10 1m68 0-2 6-2 6q-7 8 5 10l8 6c5 5 6 5 14-3l7-7-2-4-2-9q0-7-9-5l-6-1q-8-5-11 1m69-1-2 5-3 7-3 4 2 3q2 3 5 3t8 5q11 12 10-8 0-21-4-19l-2-1c-2-2-9-1-11 1m-269 0q-5 1-5 6 0 6-4 9c-4 3 0 10 5 10q6 0 8 5 6 8 14-1 2-3 5-4 5-3 2-8l-2-8q0-8-9-7l-8-1q-4-3-6-1m65 1-2 5q0 4-3 7-7 10 5 12 3 0 7 4 6 10 16-2l6-6-2-5-2-8q0-7-8-6l-8-1q-7-3-9 0m-340 3q-7 3-8 13 0 11 4 11l3 1 2 1 5 4c6 6 8 5 15-1l6-5v-8l-2-6q1-9-8-8l-7-1q-5-4-10-1m67 0-2 7-4 7q-6 8 6 11l8 6q9 6 14-3l4-3q6-3 2-8l-1-6q1-10-9-9l-8-2zm69 0-3 6q0 5-3 7-5 9 7 12l7 5q7 8 13-1 3-4 6-5 4-3 1-8l-2-7c-2-8-2-7-8-7l-8-2zm69 1q-3 1-3 6l-4 7c-4 4-1 11 6 11q3 0 7 4 7 9 14 0l6-5q3 0 0-10l-1-6q1-6-8-6l-9-1q-5-3-8 0m-342 1-2 4q0 3-3 7-8 11 4 13l8 5q9 9 14 0l5-5q5-2 2-9l-2-7q1-8-8-7h-6q-7-3-12-1m616 2-3 5q-5 7 4 8 5 0 6 4 4 6 8 0l3-5c3-3 0-16-4-14h-7q-4-4-7 2m69-3v3l-3 4c-4 3-1 10 4 8l5 3q2 4 5 4l1-10q1-12-2-10l-3-1c-1-2-7-3-7-1M3 262q-2 1-2 9v7l2-2q3-2 3-5 1-6 7-2 3 3 5 1c6-3 9 9 4 14l-3 5q-1 3-6-1l-2-3-3-1-5-2q-2-2-2 2 0 3 3 3l6 4q6 9 16-2 9-8 5-11l-2-6q0-9-9-8l-7-2zm139 0q-5 2-5 7l-2 5q-5 10 4 12l8 5q5 5 8 3c3-1 14-11 14-13l-2-3-2-7q1-9-8-9zm410 3q0 3-3 5c-4 4 0 10 6 9q2-2 3 1 3 9 10 0c3-4 3-4 2-10l-1-6h-5l-5-1q-4-5-7 2m70-3-1 4-4 4q-5 5 4 8h4l1 2 2 4q1 2 7-4t4-8l-1-5q0-10-5-4l-3 1-3-1q-3-3-5-1m-136 2-1 3-2 4-3 4c0 2 5 4 7 4q2-1 4 2 6 8 8 0l3-3q4-4 1-7l-1-4q1-6-5-3-2 3-5 0-5-3-6 0m-68 2-1 3q0 3-3 5-6 6 2 8 7 0 7 4 2 5 6 2l4-6q4-3 2-6v-3c0-1-2-6-4-6l-3 1h-4q-3-3-6-2m-205 1-1 3-2 5q-4 6 3 7 4 0 5 2 4 6 7 3l4-5q3-1 1-7 1-8-6-6l-5-1q-4-3-6-1m68 0-1 3q0 2-3 5-5 6 4 7 5-1 6 3c1 3 6 5 6 2l3-4q2-3 2-8l-1-5-4-1-7-1q-3-3-5-1m69 0-1 3-2 4q-8 7 4 8l4 2c1 4 7 6 7 3l3-5c3-4 3-3 2-6l-1-5q0-4-5-2l-6-1q-2-4-5-1m-274 1-1 4-2 4q-7 7 3 8 5-1 6 3 3 7 8-2 4-4 3-10v-5h-6l-6-1q-2-3-5-1m68 0-1 3-2 4q-6 7 2 8 6 0 6 3c0 5 6 5 8 0l4-4v-6q1-10-6-7h-6q-2-3-5-1m610 56q-3 1-3 5c0 3-3 9-5 10q-3 6 6 8 3 0 7 4 9 10 11 3v-5q-1-1-1 1-1 5-6-2-2-4-6-3-9 1-4-8l4-5 1-3q4-1 6 2l3 1q3-1 2 8 0 10 1 1c0-12-1-15-7-17s-6-2-9 0m-137 1-2 6-2 5c-6 6-3 13 5 13l4 3 5 4q5 4 9-1l7-7c4-3 4-3 1-8l-2-7c0-6-6-10-10-7h-4q-8-4-11-1m68 0-3 6q0 4-3 7-6 7 5 10l8 5q6 9 15-2 9-7 5-12l-2-7q0-7-8-6l-8-1q-6-3-9 0m-204 1-2 6-2 6q-7 9 5 12 3 0 6 4 8 8 12 2 3-5 7-6 5-3 0-11l-1-6q1-7-8-6l-8-2q-5-3-9 1m70-1q-4 0-4 6l-4 8c-4 3-1 10 4 10q3 0 8 5c7 6 8 6 17-2l6-7-1-3-3-8q-1-9-8-7l-7-1q-3-3-8-1m-411 5-2 5-4 8-3 5q2 6 8 7 3 0 8 5c6 6 8 6 15-2l4-4 3-3-2-5-2-8c-1-5-7-9-9-6h-3q-9-5-13-2m72-1-3 1-3 6-3 7q-6 8 4 11 6 2 9 6 6 8 13-1l6-5q4-2 1-8l-2-8q-1-7-9-7-3 1-8-1zm63 2-2 6-2 6q-5 8 4 11l9 5c6 5 7 5 15-2s8-7 5-12l-2-7q1-8-8-7l-8-1q-6-4-11 1m69-1-2 6-2 6q-7 7 3 11l9 6c6 6 8 6 16-2q9-10 4-13l-1-5q0-10-10-9l-6-1c-2-2-9-1-11 1m68-1-1 5-4 7c-4 5-2 12 4 12q6 1 9 5 5 5 9 4l13-13-2-5-2-8q1-7-9-6l-6-1zm277 1-2 4-2 4c-4 1-3 8 1 8q7 0 9 4 2 7 9-2c4-5 4-5 3-8l-1-4q0-6-4-5h-6q-4-3-7-1m-616 0q-3 1-3 5 0 5-3 8l-3 6q2 5 8 6 2 0 6 5 8 9 15 0l6-6q4-5 0-9l-2-10q-2-4-8-3-4 2-7-1-6-3-9-1m480 0-1 3-2 6q-7 6 3 8 4 0 5 2c1 4 7 6 7 3l3-4c3-3 3-3 2-9q0-10-6-7-3 2-6-1l-3-2zm68 1-1 3-2 4q-7 7 3 8 4 0 7 5t5 0l4-5q3-2 1-8-1-11-6-6-3 2-5-1-4-4-6 0M4 331c-2 1-3 1-3 8v7q4-1 5-6 0-6 7-2 4 2 5 1 5-4 6 5c1 10-8 20-11 12q-1-4-6-3l-5-1q-1-2-1 1l3 3 6 4q6 9 16-2 9-8 4-11l-2-6q1-9-8-8l-8-2zm481 0-1 4-2 5q-5 5 3 7 4 0 6 4 2 6 6 1l4-4q3-2 1-9v-7h-11q-2-3-6-1m-136 6-2 6c-5 3-2 9 3 8q4-1 5 2 1 4 4 4l5-5c3-5 3-5 2-8l-1-5q-1-5-3-2-3 3-7-1-5-5-6 1m69-2-1 3-3 5q-6 5 3 7 6 1 6 5 0 2 3 2c2 0 9-8 9-11l-1-5q0-6-6-4h-4q-3-3-6-2m-274 1-1 4q1 2-2 5-6 6 3 6 2 0 6 4 3 6 5 2l5-5q3-2 2-5l-1-5q0-6-6-4-3 2-5-1-4-3-6-1m69 0-1 3-2 4c-5 4-2 10 4 9q3-1 4 3 4 5 7 1l3-4q2-2 2-8v-6h-6l-6-1q-2-4-5-1m68 1-1 3-2 3c-5 2-3 8 3 8q3 0 5 3 5 6 8-1l2-2q3-2 2-5l-1-5q0-6-4-4h-7q-3-4-5 0m-205 0-1 4-2 4q-6 3-1 6 3 2 5 1 3-1 5 3 3 7 8 0 4-4 3-10 1-11-5-7h-6q-4-3-6-1m407 56q-4 1-4 7-1 4-4 6c-4 5-2 12 5 12l7 5c7 6 8 5 16-2 7-7 8-8 4-13l-1-7q-1-8-8-6-5 1-11-3zm133 1-2 5-3 7-3 6 3 2q4 3 7 3l6 5q8 8 12 1l6-6q7-5 2-9l-2-7q1-7-9-7l-8-1q-5-4-9 1m69-1q-3 2-3 6l-2 7q-8 7 4 10 5 1 8 6 6 8 13 0l6-6q4-2 0-8l-2-7q1-8-7-7l-9-1q-5-3-8 0m68 0-2 5q0 4-3 8-7 7 5 10 3 0 7 4 9 9 10 0 0-4-1-1-2 4-6-1-1-4-6-4-9-1-3-9l2-3q1-9 8-4l3 2q2 0 2 8 0 9 1 4 1-16-3-18l-4-1c-2-3-8-2-10 0m-205 1-1 3-3 9c-4 8-4 9 3 11l9 5q6 9 14-1l6-5v-8l-3-9q-1-6-7-4h-6q-7-3-12-1m-270 3q-3 0-4 8-1 4-4 6-6 9 5 11l8 5q8 9 14 0l5-5q5-3 3-5l-3-9c-2-9-2-9-9-9l-13-3zm412 1-2 3-2 5q-7 8 3 8 2-1 5 3 6 7 8 2l3-4c3-3 3-13 0-15q-2-3-4-1-2 3-8-1-2-3-3 0m-481 0c-2 0-4 6-4 9l-1 4-3 7q1 4 7 5l6 3q7 9 12 3l7-6q6-4 3-10l-2-5q-1-9-9-8-4 1-8-1-4-3-8-1m135 1-2 5-3 8q-5 8 5 10 5 2 7 5 8 11 23-9 1-1-1-5l-3-8q2-7-9-6l-6-1c-2-2-9-1-11 1m68-1-1 6q-1 5-4 7-6 7 6 11l6 4q8 10 17-2c7-6 7-6 4-11l-2-8q2-7-9-6l-6-1zm209 0-1 4-3 4q-6 6 3 8 4 0 6 3c2 4 8 5 8 1l3-4q4-4 1-7l-1-3q1-5-5-4-3 2-5-1t-6-1m-548 1q-3 1-4 6t-3 7c-4 5-1 12 6 12q2 0 6 4 8 10 17-2 9-8 5-11l-2-7q0-9-9-7l-6-1c-2-1-8-2-10-1m67 0-2 5-4 9q-5 10 6 11l6 4q7 9 15-1c8-7 9-8 7-11l-3-7q0-11-8-9-4 1-8-1zm345 1-1 4-2 4c-4 3-1 8 4 6l4 3q4 8 9 0 4-3 3-10 0-8-6-5-2 2-6-1-5-6-5-1m68-1-1 3q0 2-3 5c-5 3-2 9 5 9q3 0 4 3 3 6 9-2c4-5 4-5 3-11l-1-5h-5l-6-1q-2-4-5-1M2 400c-1 2-2 15 0 15q4-1 4-5 0-6 5-3c5 2 5 2 8 1q5-3 6 5c1 10-9 20-12 12q-1-4-5-3l-4-1q-3-2-3 1 0 2 4 4 5 2 5 4 4 8 16-3 9-8 5-12l-2-6q0-8-7-7-4 2-8-1-7-4-12-1m278 6q0 3-3 5-6 6 3 8l6 3q1 4 4 5 2 0 5-6c3-5 3-5 2-10l-1-5-4 1q-5 0-6-2-5-5-6 1m69-1-3 6q-7 8 4 8 4 0 5 4 4 8 9-3c4-6 2-19-2-15h-7q-4-4-6 0m69-1-1 2q0 3-3 5-4 5 0 8 10 1 10 4 3 6 6-1l2-3q3-1 2-9l-2-4h-4l-6-1q-3-3-4-1m-341 2-2 3-2 5q-7 7 4 7 3 0 6 4c4 5 4 5 9-6 2-3 1-12-1-13l-4 1q-2 2-5-1t-5 0m67-1-1 4-2 4q-5 7 3 8 4 0 6 4 4 6 6 0l4-4q3-1 1-10-1-5-5-4-6 1-8-2zm68 1-3 6q-7 7 3 8 4 0 6 4 4 7 9-2c6-9 4-19-3-16h-5q-7-4-7 0m404 57-2 6-1 4q-8 9 1 13l5 1 5 4q4 4 6 4 6-1 8-6l2-2q7-3 4-10l-3-8q0-7-7-6l-8-1q-7-4-10 1m68-1-1 6q-1 4-4 6-6 7 6 11l7 5q5 8 15-2 9-8 5-12l-2-6q0-9-8-7-4 2-7-1-8-4-11 0m69 0-2 5q0 3-3 7-6 8 3 10 4 0 9 5 11 13 10-10l-1-10v10q0 18-6 6-1-3-6-3-9-2-3-8l3-5q1-6 6-2 6 4 6-1c0-5-14-8-16-4m-272 0-2 4-3 9-3 6q1 4 7 5 5 1 8 5 6 9 15-2 9-8 4-12l-1-6q0-9-8-7l-8-1q-6-3-9-1m68 0-3 6-3 6c-4 5-2 12 4 12l8 4 5 4h2q2 1 7-4l5-4q5-1 1-9l-2-8q1-7-8-6l-7-1zm-136 4-3 6q0 4-3 6c-4 5-1 12 6 12l7 4c6 5 8 5 15-1q9-7 5-13l-2-8q1-5-9-5l-7-1q-5-3-9 0m-272 0q-3 2-4 9l-2 4q-4 5-3 8 3 4 8 5l6 4c6 5 8 5 15-2 8-6 8-6 6-11l-2-7q1-9-9-8l-8-2zm68 0q-3 2-4 8l-2 6q-6 9 2 10l6 2 3 3q5 10 18-2 9-7 3-12l-1-5q1-8-9-8l-9-1q-4-3-7-1m67 0-2 6-4 8q-5 8 6 11l7 5q7 7 15-1l5-5q4-1 1-7l-2-8q0-9-9-7l-8-1q-5-3-9-1m69 1-2 6-2 4-3 3q-3 10 8 10l6 5c6 6 8 6 16-2 7-7 7-7 5-13l-3-9-1-4h-7l-7-1c-2-2-9-1-10 1m207 2-3 7q-4 5-2 6 1 2 6 2 4-1 5 3c1 4 7 5 7 1l3-5q3-2 2-6v-4q0-5-6-4-4 2-6-1-6-5-6 1m69-2-1 3-2 4c-5 4-2 12 3 10q4-1 5 2c0 5 7 6 8 1l3-3q3-2 1-8 1-9-6-7l-6-1q-2-3-5-1m67 0-1 4-2 4q-5 6 4 8 3 0 6 4 4 8 7 0l4-5c2 0 1-11-1-13q0-3-5-1h-5q-3-3-7-1M3 468q-2 1-2 9v7l3-2 2-5 1-3q5-1 6 1l5 1h5l1 5c1 6 1 6-3 10q-5 9-8 2-1-4-5-3l-6-2q-1-2-1 1t2 3 6 5q7 10 17-2 9-8 5-12l-2-6q1-9-8-8-5 1-8-1zm70 0-3 3-3 9q-7 11 4 12l8 5c6 6 8 5 16-2q9-8 5-12l-3-7q1-8-8-6l-7-1q-4-3-9-1m412 0-1 4-2 4q-5 6 3 8 4 0 5 2c3 9 13 0 11-11q0-8-5-5-2 2-5-1-5-3-6-1m-67 3-1 2-3 5q-7 8 6 9l4 3q2 6 7-1c6-9 4-19-3-16q-2 1-6-1-3-3-4-1m-274 2-1 4-2 4q-7 6 3 7 3 0 5 4 5 6 8 0l3-4 2-4-1-5q-1-6-6-4-3 1-6-1c-4-2-3-2-5-1m68 2-3 6q-6 7 3 7 5 0 6 3 3 6 7 3l2-4 2-2 1-6q0-11-5-8h-7q-4-4-6 1m69-2-1 3-2 4q-3 2-3 5-1 4 5 3 5 0 6 4 3 7 8-2c4-5 4-5 2-13v-2h-4l-6-1q-2-3-5-1m68 1-3 6-3 4q2 3 6 4 5-1 6 3 2 5 6 1l4-5q4-5 1-7l-1-4q1-4-5-3l-8-1q-4-1-3 2m-273 0-1 3-2 5q-6 7 4 8 2 0 5 3 3 6 8-1c6-7 4-19-2-16q-2 1-6-1-4-3-6-1"
        mask="url(#16282281824-posters-1720553451570-horizontal-mask)" itemprop="bold" fill-opacity="0.90"
        fill-rule="evenodd" stroke="none" fill="url(#16282281824-posters-1720553451570-vertical-bold)"></path>
    </pattern>
    <rect id="16282281824-posters-1720553451570-pattern-render" fill="url(#16282281824-posters-1720553451570-pattern)"
      width="100%" height="100%"></rect>
  </defs>
  <radialGradient id="lightbar" cx="50%" cy="200%" fy="0" r="201%">
    <stop offset="0%" style="stop-color: rgb(255, 255, 255); stop-opacity: 0.1;"></stop>
    <stop offset="10%" style="stop-color: rgb(0, 0, 0); stop-opacity: 0.1;"></stop>
    <stop offset="30%" style="stop-color: rgb(0, 0, 0); stop-opacity: 0.3;"></stop>
    <stop offset="90%" style="stop-color: rgb(0, 0, 0); stop-opacity: 0.55;"></stop>
    <stop offset="100%" style="stop-color: rgb(0, 0, 0); stop-opacity: 0.6;"></stop>
  </radialGradient>
  <g class="radial">
    <radialGradient id="16282281824-posters-1720553451570-radial" gradientUnits="userSpaceOnUse">
      <stop itemprop="radial" stop-color="#cdcccb" offset="0%"></stop>
      <stop itemprop="radial" stop-color="#cdcccb" offset="15%"></stop>
      <stop itemprop="radial" stop-color="#cdcccb" offset="30%"></stop>
      <stop itemprop="radial" stop-color="#cdcccb" offset="45%"></stop>
      <stop itemprop="radial" stop-color="#d5d4d3" offset="60%"></stop>
      <stop itemprop="radial" stop-color="#d5d4d3" offset="75%"></stop>
      <stop itemprop="radial" stop-color="#d7d6d5" offset="90%"></stop>
    </radialGradient>
    <radialGradient id="16282281824-posters-1720553451570-radial-background" gradientUnits="userSpaceOnUse">
      <stop stop-color="#d3cdc5" offset="0%"></stop>
      <stop stop-color="#d3cdc5" offset="15%"></stop>
      <stop stop-color="#d3cdc5" offset="30%"></stop>
      <stop stop-color="#d3cdc5" offset="45%"></stop>
      <stop stop-color="#d3cdc5" offset="60%"></stop>
      <stop stop-color="#d3cfc5" offset="75%"></stop>
      <stop stop-color="#d3cdc5" offset="90%"></stop>
    </radialGradient>
    <radialGradient id="16282281824-posters-1720553451570-radial-light" gradientUnits="userSpaceOnUse">
      <stop stop-color="#9b9997" offset="0%"></stop>
      <stop stop-color="#9b9997" offset="15%"></stop>
      <stop stop-color="#9b9997" offset="30%"></stop>
      <stop stop-color="#9b9997" offset="45%"></stop>
      <stop stop-color="#9b9997" offset="60%"></stop>
      <stop stop-color="#9b9a97" offset="75%"></stop>
      <stop stop-color="#9b9997" offset="90%"></stop>
    </radialGradient>
    <radialGradient id="16282281824-posters-1720553451570-radial-regular" gradientUnits="userSpaceOnUse">
      <stop stop-color="#82807d" offset="0%"></stop>
      <stop stop-color="#82807d" offset="15%"></stop>
      <stop stop-color="#82807d" offset="30%"></stop>
      <stop stop-color="#82807d" offset="45%"></stop>
      <stop stop-color="#82807d" offset="60%"></stop>
      <stop stop-color="#82817d" offset="75%"></stop>
      <stop stop-color="#82807d" offset="90%"></stop>
    </radialGradient>
    <radialGradient id="16282281824-posters-1720553451570-radial-medium" gradientUnits="userSpaceOnUse">
      <stop stop-color="#514f4d" offset="0%"></stop>
      <stop stop-color="#514f4d" offset="15%"></stop>
      <stop stop-color="#514f4d" offset="30%"></stop>
      <stop stop-color="#514f4d" offset="45%"></stop>
      <stop stop-color="#514f4d" offset="60%"></stop>
      <stop stop-color="#51504d" offset="75%"></stop>
      <stop stop-color="#514f4d" offset="90%"></stop>
    </radialGradient>
    <radialGradient id="16282281824-posters-1720553451570-radial-bold" gradientUnits="userSpaceOnUse">
      <stop stop-color="#2f2e2d" offset="0%"></stop>
      <stop stop-color="#2f2e2d" offset="15%"></stop>
      <stop stop-color="#2f2e2d" offset="30%"></stop>
      <stop stop-color="#2f2e2d" offset="45%"></stop>
      <stop stop-color="#2f2e2d" offset="60%"></stop>
      <stop stop-color="#2f2e2d" offset="75%"></stop>
      <stop stop-color="#2f2e2d" offset="90%"></stop>
    </radialGradient>
  </g>
  <g class="vertical">
    <linearGradient id="16282281824-posters-1720553451570-vertical" gradientUnits="userSpaceOnUse" x1="0" x2="0" y1="0"
      y2="100%">
      <stop itemprop="vertical" stop-color="#cdcccb" offset="0%"></stop>
      <stop itemprop="vertical" stop-color="#cdcccb" offset="15%"></stop>
      <stop itemprop="vertical" stop-color="#cdcccb" offset="30%"></stop>
      <stop itemprop="vertical" stop-color="#cdcccb" offset="45%"></stop>
      <stop itemprop="vertical" stop-color="#d5d4d3" offset="60%"></stop>
      <stop itemprop="vertical" stop-color="#d5d4d3" offset="75%"></stop>
      <stop itemprop="vertical" stop-color="#d7d6d5" offset="90%"></stop>
    </linearGradient>
    <linearGradient id="16282281824-posters-1720553451570-vertical-background" gradientUnits="userSpaceOnUse" x1="0"
      x2="0" y1="0" y2="100%">
      <stop stop-color="#cdcccb" offset="0%"></stop>
      <stop stop-color="#cdcccb" offset="15%"></stop>
      <stop stop-color="#cdcccb" offset="30%"></stop>
      <stop stop-color="#cdcccb" offset="45%"></stop>
      <stop stop-color="#cdcccb" offset="60%"></stop>
      <stop stop-color="#cdcccb" offset="75%"></stop>
      <stop stop-color="#cdcccb" offset="90%"></stop>
    </linearGradient>
    <linearGradient id="16282281824-posters-1720553451570-vertical-light" gradientUnits="userSpaceOnUse" x1="0" x2="0"
      y1="0" y2="100%">
      <stop stop-color="#ae9d84" offset="0%"></stop>
      <stop stop-color="#ae9d84" offset="15%"></stop>
      <stop stop-color="#ae9d84" offset="30%"></stop>
      <stop stop-color="#ae9d84" offset="45%"></stop>
      <stop stop-color="#ae9d84" offset="60%"></stop>
      <stop stop-color="#aea284" offset="75%"></stop>
      <stop stop-color="#ae9d84" offset="90%"></stop>
    </linearGradient>
    <linearGradient id="16282281824-posters-1720553451570-vertical-regular" gradientUnits="userSpaceOnUse" x1="0" x2="0"
      y1="0" y2="100%">
      <stop stop-color="#82807d" offset="0%"></stop>
      <stop stop-color="#82807d" offset="15%"></stop>
      <stop stop-color="#82807d" offset="30%"></stop>
      <stop stop-color="#82807d" offset="45%"></stop>
      <stop stop-color="#82807d" offset="60%"></stop>
      <stop stop-color="#82817d" offset="75%"></stop>
      <stop stop-color="#82807d" offset="90%"></stop>
    </linearGradient>
    <linearGradient id="16282281824-posters-1720553451570-vertical-medium" gradientUnits="userSpaceOnUse" x1="0" x2="0"
      y1="0" y2="100%">
      <stop stop-color="#514f4d" offset="0%"></stop>
      <stop stop-color="#514f4d" offset="15%"></stop>
      <stop stop-color="#514f4d" offset="30%"></stop>
      <stop stop-color="#514f4d" offset="45%"></stop>
      <stop stop-color="#514f4d" offset="60%"></stop>
      <stop stop-color="#51504d" offset="75%"></stop>
      <stop stop-color="#514f4d" offset="90%"></stop>
    </linearGradient>
    <linearGradient id="16282281824-posters-1720553451570-vertical-bold" x1="0" x2="0" y1="0" y2="100%">
      <stop stop-color="#2f2e2d" offset="0%"></stop>
      <stop stop-color="#2f2e2d" offset="15%"></stop>
      <stop stop-color="#2f2e2d" offset="30%"></stop>
      <stop stop-color="#2f2e2d" offset="45%"></stop>
      <stop stop-color="#2f2e2d" offset="60%"></stop>
      <stop stop-color="#2f2e2d" offset="75%"></stop>
      <stop stop-color="#2f2e2d" offset="90%"></stop>
    </linearGradient>
  </g>
  <g class="horizontal">
    <linearGradient id="16282281824-posters-1720553451570-horizontal" x1="0" x2="100%" y1="0" y2="0"
      gradientUnits="userSpaceOnUse">
      <stop itemprop="horizontal" stop-color="#cbcac8" offset="0%"></stop>
      <stop itemprop="horizontal" stop-color="#d0cfce" offset="15%"></stop>
      <stop itemprop="horizontal" stop-color="#d7d7d5" offset="30%"></stop>
      <stop itemprop="horizontal" stop-color="#cdcccb" offset="45%"></stop>
      <stop itemprop="horizontal" stop-color="#cdcccb" offset="60%"></stop>
      <stop itemprop="horizontal" stop-color="#dad9d8" offset="75%"></stop>
      <stop itemprop="horizontal" stop-color="#cbcac8" offset="90%"></stop>
    </linearGradient>
    <linearGradient id="16282281824-posters-1720553451570-horizontal-background" gradientUnits="userSpaceOnUse" x1="0"
      x2="100%" y1="0" y2="0">
      <stop stop-color="#cdcccb" offset="0%"></stop>
      <stop stop-color="#cdcccb" offset="15%"></stop>
      <stop stop-color="#ceccca" offset="30%"></stop>
      <stop stop-color="#cdcccb" offset="45%"></stop>
      <stop stop-color="#cdcccb" offset="60%"></stop>
      <stop stop-color="#ceccca" offset="75%"></stop>
      <stop stop-color="#cdcccb" offset="90%"></stop>
    </linearGradient>
    <linearGradient id="16282281824-posters-1720553451570-horizontal-light" gradientUnits="userSpaceOnUse" x1="0"
      x2="100%" y1="0" y2="0">
      <stop stop-color="#9b9997" offset="0%"></stop>
      <stop stop-color="#9b9997" offset="15%"></stop>
      <stop stop-color="#9c9a96" offset="30%"></stop>
      <stop stop-color="#9b9a97" offset="45%"></stop>
      <stop stop-color="#9b9a97" offset="60%"></stop>
      <stop stop-color="#9c9a96" offset="75%"></stop>
      <stop stop-color="#9b9a97" offset="90%"></stop>
    </linearGradient>
    <linearGradient id="16282281824-posters-1720553451570-horizontal-regular" gradientUnits="userSpaceOnUse" x1="0"
      x2="100%" y1="0" y2="0">
      <stop stop-color="#968469" offset="0%"></stop>
      <stop stop-color="#968469" offset="15%"></stop>
      <stop stop-color="#968669" offset="30%"></stop>
      <stop stop-color="#968969" offset="45%"></stop>
      <stop stop-color="#968969" offset="60%"></stop>
      <stop stop-color="#968669" offset="75%"></stop>
      <stop stop-color="#968969" offset="90%"></stop>
    </linearGradient>
    <linearGradient id="16282281824-posters-1720553451570-horizontal-medium" gradientUnits="userSpaceOnUse" x1="0"
      x2="100%" y1="0" y2="0">
      <stop stop-color="#5d5241" offset="0%"></stop>
      <stop stop-color="#5d5241" offset="15%"></stop>
      <stop stop-color="#5d5341" offset="30%"></stop>
      <stop stop-color="#5d5541" offset="45%"></stop>
      <stop stop-color="#5d5541" offset="60%"></stop>
      <stop stop-color="#5d5341" offset="75%"></stop>
      <stop stop-color="#5d5541" offset="90%"></stop>
    </linearGradient>
    <linearGradient id="16282281824-posters-1720553451570-horizontal-bold" gradientUnits="userSpaceOnUse" x1="0"
      x2="100%" y1="0" y2="0">
      <stop stop-color="#2f2e2d" offset="0%"></stop>
      <stop stop-color="#2f2e2d" offset="15%"></stop>
      <stop stop-color="#2f2e2d" offset="30%"></stop>
      <stop stop-color="#2f2e2d" offset="45%"></stop>
      <stop stop-color="#2f2e2d" offset="60%"></stop>
      <stop stop-color="#2f2e2d" offset="75%"></stop>
      <stop stop-color="#2f2e2d" offset="90%"></stop>
    </linearGradient>
  </g>
  <g class="masks">
    <mask id="16282281824-posters-1720553451570-pattern-mask" maskUnits="userSpaceOnUse"
      maskContentUnits="userSpaceOnUse">
      <pattern id="pattern" x="0" y="0" width=".0133" height=".0144" viewBox="0 0 23.07 40">
        <path
          d="M17.62 0l-6.07 10.5m2.74 4.76L8.22 4.75m-5.48 0h12.13M.01 0h23.07M6.07 20L0 9.5m2.74-4.75l-6.07 10.5m-5.48 0H3.33m8.2 4.75L0 .02-11.54 20m40.68 0L23.07 9.5m2.74-4.75l-6.06 10.5m-5.49 0H26.4M34.6 20L23.08.02 11.53 20m-5.46 0L0 30.51m2.74 4.75l-6.07-10.5m-5.48 0H3.33m8.2-4.75L0 40l-11.54-19.98zM17.6 40l-6.06-10.5m2.74-4.76L8.2 35.25m-5.48 0h12.13M0 40h23.07L11.54 20.01m17.6 0l-6.07 10.5m2.74 4.75l-6.06-10.5m-5.49 0H26.4M11.53 20h23.08L23.07 40"
          stroke-linecap="round" stroke-width="3.5" stroke="white"
          fill="url(#16282281824-posters-1720553451570-horizontal-background)"></path>
      </pattern>
      <rect width="100%" height="100%" fill="url(#pattern)"></rect>
    </mask>
    <mask id="16282281824-posters-1720553451570-horizontal-mask" maskUnits="userSpaceOnUse"
      maskContentUnits="userSpaceOnUse">
      <rect width="100%" height="100%" fill="url(#16282281824-posters-1720553451570-horizontal-background)"></rect>
    </mask>
    <mask id="16282281824-posters-1720553451570-radial-mask" maskUnits="userSpaceOnUse"
      maskContentUnits="userSpaceOnUse">
      <rect width="100%" height="100%" fill="url(#16282281824-posters-1720553451570-radial-background)"></rect>
    </mask>
    <mask id="16282281824-posters-1720553451570-vertical-mask" maskUnits="userSpaceOnUse"
      maskContentUnits="userSpaceOnUse">
      <rect width="100%" height="100%" fill="url(#16282281824-posters-1720553451570-vertical-background)"></rect>
    </mask>
  </g>
  <use href="#16282281824-posters-1720553451570-pattern-render"></use>
  <g>
    <use href="#16282281824-posters-1720553451570-background"></use>
    <use href="#16282281824-posters-1720553451570-light"></use>
    <use href="#16282281824-posters-1720553451570-regular"></use>
    <use href="#16282281824-posters-1720553451570-medium"></use>
    <use href="#16282281824-posters-1720553451570-bold"></use>
  </g>
  <g itemprop="animation">
    <animate href="#16282281824-posters-1720553451570-light" attributeName="stroke-opacity" repeatCount="indefinite"
      dur="5s" values="0.9;0.0;0.9"></animate>
    <animate href="#16282281824-posters-1720553451570-regular" attributeName="stroke-opacity" repeatCount="indefinite"
      dur="4s" values="0.9;0;0.9"></animate>
    <animate href="#16282281824-posters-1720553451570-medium" attributeName="stroke-opacity" repeatCount="indefinite"
      dur="5s" values="0.9;0;0.9"></animate>
    <animate href="#16282281824-posters-1720553451570-bold" attributeName="stroke-opacity" repeatCount="indefinite"
      dur="3s" values="0.9;0;0.9"></animate>
    <animate href="#16282281824-posters-1720553451570-regular" attributeName="fill-opacity" repeatCount="indefinite"
      dur="8s" values="0.9;0.75;0.95;0.8;0.9;"></animate>
    <animate href="#16282281824-posters-1720553451570-radial-background" attributeName="cx" repeatCount="indefinite"
      dur="34s" values="0%;33%;100%;0%;100%;0%;"></animate>
    <animate href="#16282281824-posters-1720553451570-radial-background" attributeName="cy" repeatCount="indefinite"
      dur="55s" values="0%;100%;33%;100%;66%;0%"></animate>
    <animate href="#16282281824-posters-1720553451570-vertical-light" attributeName="x1" repeatCount="indefinite"
      dur="55s" values="0%;33%;100%;0%;133%;0%;"></animate>
    <animate href="#16282281824-posters-1720553451570-vertical-light" attributeName="y1" repeatCount="indefinite"
      dur="86s" values="0%;100%;33%;100%;66%;0%"></animate>
    <animate href="#16282281824-posters-1720553451570-horizontal-regular" attributeName="x1" repeatCount="indefinite"
      dur="34s" values="0%;100%;66%;0%;33%;133%;0%"></animate>
    <animate href="#16282281824-posters-1720553451570-horizontal-regular" attributeName="y1" repeatCount="indefinite"
      dur="55s" values="0%;66%;100%;33%;100%;66%;0%"></animate>
    <animate href="#16282281824-posters-1720553451570-vertical-medium" attributeName="x1" repeatCount="indefinite"
      dur="34s" values="0%;100%;66%;0%;33%;133%;0%"></animate>
    <animate href="#16282281824-posters-1720553451570-vertical-medium" attributeName="y1" repeatCount="indefinite"
      dur="55s" values="0%;66%;100%;33%;100%;66%;0%"></animate>
    <animate href="#16282281824-posters-1720553451570-vertical-bold" attributeName="x1" repeatCount="indefinite"
      dur="34s" values="0%;100%;66%;0%;33%;133%;0%"></animate>
    <animate href="#16282281824-posters-1720553451570-vertical-bold" attributeName="y1" repeatCount="indefinite"
      dur="55s" values="0%;66%;100%;33%;100%;66%;0%"></animate>
  </g>
</svg>
