<svg id="16282281824-posters-1720560174174" itemscope="" itemtype="/posters"
  itemid="/+16282281824/posters/1720560174174" viewBox="0 0 769 512" preserveAspectRatio="xMidYMid meet" tabindex="0"
  class="animate landscape" xmlns="http://www.w3.org/2000/svg">
  <!---->
  <defs class="graphic">
    <pattern id="16282281824-posters-1720560174174-pattern" width="769" height="512" viewBox="0 0 769 512"
      patternUnits="userSpaceOnUse" preserveAspectRatio="xMidYMid meet">
      <rect itemprop="background" width="769" height="512" tabindex="-1"
        id="16282281824-posters-1720560174174-background" fill-opacity="1"
        fill="url(#16282281824-posters-1720560174174-radial-background)"></rect>
      <!---->
      <path id="16282281824-posters-1720560174174-light"
        d="M12 1v36l1 18 2 63 1 56c1 5 4 47 3 54v101q4 2 6-1a206 206 0 0 0 1-52l1-8 1-6q3-1 6 2v36l-1 43-2 51c-2 21-2 23 1 28q3 4 4 10l2 12c3 11 3 16 2 42v26h19v-22c0-25 0-24 7-23 8 1 11-6 6-10l-2-4-1-1q-2-2 3-12l2-18c0-6-7-9-11-5q-5 3-2-9c2-6 3-14 5-39l2-24c2-20 3-149 2-165l-2-33-3-57-2-19-2-19-4-38-1-14h-8c-8 0-8 0-5 10l3 17 2 14 1 11 1 13 2 24 2 27c1 12 2 34 0 35l-1-5-7-51-1-7-2-8c-2-5-6-22-7-38l-1-13-2-26V0H23zm106 23 2 40 2 13 1 12q-1 12 6 17l4 4v9l1 23 2 15 1 7q1 8 4 9 3-1 4 6c3 34 5 43 8 54q5 15 7 38l2 17 2 12-1 32v42l-1 40c-1 28-1 34-2 30l-4-45v-31l-1-34-3-41v-4c2-4-1-14-4-14q-5-1-5 15l3 73 3 78q1 21 9 16c2-2 2-1 2 15q0 30-4 32-5 4-5 7l10 1h9v-9c1-2 2 3 1 7q-1 3 8 2h9l-1-31-2-58-1-14-2-19-2-17-1-29c0-24 0-27-6-55l-4-27-1-13-2-11-2-9-1-10-1-36c-1-34-1-34-7-42q-3-5 0-17l1-25-1-37V0h-18v9l5 35c2 3 4 59 2 61q-1 4-3-16l-1-13-1-27q-1-24-8-28-3-3-4-14 1-8-5-7h-5zm42-22c-1 6 0 82 2 88l3 25 1 10 2 16 1 23 3 49a692 692 0 0 0 7 81q3 3 2 23c0 19 0 20 2 23q4 6 7 2c3-3 4-7 2-20-1-7 0-41 2-45a773 773 0 0 0-1-93l-4-17-2-10-7-34-1-7-1-8c-2-7-4-47-4-84V0h-7q-8 0-7 2m69 13 3 60 2 40 1 37c0 26 1 29 2 31q5 6 5-8 1-14 6-13l3 1 2 79 3 26q2 13 6 10c4-1 4-4 2-18l-1-34v-28q-1-12 2-4l3 9 1 6 1 8 5 40v16c2 15 4 52 3 54l4 29q0 10 4 10c6 1 6 0 2-48l-1-32-2-29c0-7 2-2 3 6l5 21q7 5 8-9l-5-38-2-10v-26q2-16 3-5l3 18 1 9 2 12 1 22 1 17 2 17c1 15 1 15-1 18-4 5-7 19-4 25l1 34 2 33 2 24c0 19 1 22 5 22q10-1 5-34l-1-31 2 7 3 15c1 10 4 38 3 45q0 5-4 7l-3 2 1 10 1 13 2 16v15h38v-7l1-7v14h11l-1-15-1-19-1-21-2-20-1-17c0-23-1-32-3-36-5-8-9 1-6 15 1 4 2 47 1 55q0 7-3 6-5-1-5 10c-2 28-2 29-5 24-2-5-8-5-8 0l-1 1c-3 0-1-7 3-11 5-5 6-13 4-33l-1-30v-28c-2-14-2-17-2-62a775 775 0 0 0-13-143l-4-37c-2-20-2-22-4-22q-3-1-3 6l-2 10-2 44q-1 5-2 3l-1-4v-10l-2-11-1-20-2-19c-3-13-3-106 0-124V0h-5q-8 0-6 2l-2 9v33q2 41-1 50-1 4-1-2l-2-8c-2-17-2-38 0-75l1-9h-10c-10 0-10 0-9 2l1 28 2 27 2 50 3 19 5 29 1 9c2 7 2 41 0 47 0 2-3-3-3-6l-5-19c-2-4-11-4-11 0l-2-22c-1-26-1-28 2-34q3-5 1-11-3-9-6-57c-1-22-1-23 1-25q4-5 2-11l-3-12c-2-16 0-14-16-14h-13zM362 1v75l-1 20-1 30-1 21-1 23c-1 24 0 42 2 42q3 1 3-8l1-13 1-20 1-20 2-31 1-32c0-12 2-75 1-82V0h-4zm28 4c2 9 2 65 1 72l-1 31c0 19-1 24-2 25l-2 33a611 611 0 0 1-8 98q0 6 4 7c4 0 6-7 8-39l1-27 3-32c0-7 2-16 3-19 3-13 5-57 5-121 0-35 0-33-7-33h-5zm12-3 2 16 1 16 2 29c1 58 2 78 3 84 5 13 7 29 6 35v162c-1 33-1 34 1 36q5 5 9-4c2-6 2-45-1-68v-43c0-30-1-40-2-41-1-2-2-14 0-14q4 0 10 36l3 16 1 34c0 27 0 28-2 35-3 9-4 13-5 22l-1 19-2 27v15h3q4 2 4-12 0-13 4-12 7-1 4 12-4 17 1 19l3 1 1 20 2 32v15l-2 12v11h26v-15l1-17 1-2v2l5 25v7h13l-1-12-2-24-1-25-4-43-2-18-1-10-1-16-5-34q-2-18-8-13-5 4-7-15l-2-13-2-24-4-46-3-23-4-38-1-15-2-19-2-37c-1-40-1-40-5-40q-3 0-4 14-1 3-1-3l-2-9c-1-4-2-38-1-41q1-3 1 4 2 12 7 9c1-1 1-11-1-19a4 4 0 0 0-7-1l-13-1c-12 0-13 0-13 2m87 0-1 33v103l1 7q0 8 5 7l2-2 1-5v-10l-2-66c0-77 0-69-3-69zm20 6v9l1 21 1 25 1 41a1691 1691 0 0 0 6 136c2 25 2 32 5 34 4 4 4 5 3 40-2 54-1 148 1 152l4 1q4 0 4-13l-2-16-1-10v-25c-2-4 1-109 2-111l2 4q5 11 10 2l1-14-1-157 2-28 1 1 1 9 1 19 2 14c2 2 2 8 2 33 1 34 1 39 4 50 2 10 2 107 0 115v10c-1 4-2 79-1 89q2 19 8 12c2-2 2-2 2-34l-1-84V221c-2-18-3-29-3-50l-1-30v-33c0-37 1-46 3-53v-5l-1-26-1-24h-11v9l2 13q1 5-4 4c-4 1-4 2-4-9 0-17 0-17-6-17h-4v23l2 40 1 44-1 43-3 81c0 12-2 28-2 23l-1-5c-4-6-4-8-6-24l-3-38-4-36-1-24-1-26c-1-7 0-39 1-40l2 6 1 10v3q2 10 8 5c2-2 1-19-1-41l-2-24q0-23-6-14l-2 10-2 25V27l-1-19V0h-7zm62 2c2 26 3 68 2 74s-2 20-1 57l-2 37 3 11q5 16-1 21c-2 4-2 5-2 19l1 17 1 97 2 53a518 518 0 0 1-2 94c-1 8 5 13 8 6 3-6 6-90 4-94-2-3-2-115-1-129q2-10 4 4l1 10 2 27c0 26 1 28 6 28 4 0 2 86-3 92v17q-2 7 1 51v10h6v-11c-1-18 0-41 3-46l2-7c0-6 3 5 4 16l2 14 1 10 1 14 1 10h20v-53q1-3 1 0 1 7 6 5c1-1 1-35-1-37l-3-44-2-20-5-12a312 312 0 0 1-4-117q4-20-2-72c-1-19-2-29 0-54l2-62V6l-1-6h-11l1 6-1 92-1 10q-3 4-3-57c0-30 0-32-2-34q-2-3-4-1-3 4-4-8l-1-7-6-1q-7 0-6 2c3 6 4 17 4 49 1 21 0 31-1 55l-1 16c0 14-2 9-2-6 0-18-1-23-3-24v-3c1-2 2-82 0-87q1-2-7-2h-6zm64-7v29q1 19 5 18c4 0 4-4 3-23l-1-23 1-4h-4q-5-1-4 3m33-1 2 71 2 50a404 404 0 0 1-1 79l-2 23-1 25-1 40c-1 25 0 30 6 27 1-2 2-3 2-13v-31l1-31 2-25a618 618 0 0 0 2-77l-2-35-1-34-1-65V0h-5q-5 0-3 2m87 10c-1 13 0 15 2 15q7 4 7-17V0h-9zM21 46l1 49q0 21 5 13c2-3 2-3 2-11l-2-31-1-19-4-38zm707-32-2 12-1 17v8c3 6 8 0 8-10l1-14c2-11-1-19-6-13m14 14-1 32-3 72q1 3 6 1 3-6 4-61c0-44 0-48-6-44m-503 9v21l1 15 1 33c1 33 1 32 7 37 2 2 2 2 2-10 1-11 0-31-2-38l-2-14c-4-37-6-47-7-44m453 11q-2 2 3 13l1 9v35l-1 61q0 4 3 4 4 0 4-9l1-82v-8q-2-5 2-4 6-1 4-7c-2-5-8-11-10-11l-4-1zM221 99c-1 2 0 40 1 44l1 13c0 15 1 18 4 18q3 1 3-7c2-11-1-65-3-68zm502 10c-2 2-2 3-2 29l-3 69-1 10q-3 3 0 4l1 7c-4 35-4 68 0 71 4 2 4-2 5-32l1-41 4-74 1-29 1-11-2-3-3-2zm-75 14q-3 3 0 10l2 4c2 6 8 4 7-2q-4-17-9-12m-48 6-1 11q0 19-9 19c-2 0-2-1-2 23a451 451 0 0 0 7 75c2 1 3-54 1-58q-3-6 1-12 8-6 6-44 0-18-3-14M33 147l1 11 2 22c0 18 1 22 4 28q2 2 2 12l1 10 1 13q1 21 4 11l1-9 1-7q1-7-2-14l-4-25-2-12-1-13-2-15-1-8q1-6-2-9l-3-2zm368 14q-1 4 2 84c1 22 0 81-1 89l-2 18-4 29c-2 6-2 25 0 33 4 11 12 26 14 26 4 0 8-7 5-8l-1-4-5-11q-5-13-2-39c4-24 6-74 5-123v-20a405 405 0 0 0-4-64q-1-13-7-10m211 16c-4 15-6 50-4 74q2 8-1 16c-2 8-2 24-1 25l2 10 1 11 2 20 1 24 2 33a326 326 0 0 0 4 64q6 64 6 10l1-31 1-13-1-8c0-20 0-22-3-35l-1-11-1-8-4-22-3-16a518 518 0 0 1 4-94l1-13-3-27q-1-19-3-9m-388 3-3 37q2 13 8 2c1-4 2-35 1-39 0-3-5-3-6 0m432 3c-3 2-3 16-2 19 4 6 8-1 8-11q-1-11-6-8m-225 5c-2 1 1 19 4 21l1 3 1 5 3 6v-6l-3-30zm-193 3c-2 2-3 14-3 20l1 31 3 48 11 44q3 10 0 20c-2 6 0 30 2 34q2 5 6 1l1-15q0-20 3-14l2 8q1 12 4 12 4 2 3-13 0-25-7-33c-5-5-6-9-9-24l-3-10c-4-15-8-44-9-75 0-28-1-35-4-35zm513 7c-2 2-2 18 0 26 4 23 5 27 5 39q1 17 4 18c4 1 5-2 5-18 0-12-1-19-3-33l-3-23q-2-13-8-9m-57 3c-1 2-3 30-2 33 2 8 8 1 7-8v-13q1-14-2-13zm-511 12c-1 6 1 21 3 23l-1-25-1-4zm-54-3c-1 2 1 46 2 49q5 9 6-8l-2-18-2-22q-1-3-4-1m190 48c1 50 1 55 5 79l3 20q1 18 3 16c3 0-2-118-5-134l-2-11q-1-13-3-14zm-261-7q-3 22 1 34c1 2 2-28 1-34q-1-7-2 0m634-2-2 27c0 24 0 25 2 26 4 2 5 0 5-25l-1-27q-2-5-4-1m-471 11c-2 2-3 14-3 16q3 5 7 2c1-2 0-17-1-18zm-90 9-1 25v105l1 29 1 80v4h10v-16l-1-33v-63l-2-12v-60c0-42-1-56-2-58q-3-4-6-1m247 8-1 10-2 11-1 15-2 21 1 12q6 4 8-11l4-48q0-12-4-12zm339 28c-2 4-1 20 2 22q6 4 5-11-1-18-7-11m-269 7-1 17q-3 16-1 22l2 9q2 18 6 17c3 0 3-18 0-33l-2-20-2-14-2-5zm-229 10-1 8 1 11c2 14 12 21 11 7q-3-37-11-26M51 334l-3 5-1 40c0 46 1 60 4 57l1-19 1-20 1-21v-41l-1-6zm708-4c-1 0-2 33 0 35l1 19 2 37 2 39c0 45 1 51 3 52 3 0 2-134-1-166-1-16-2-18-7-16m-42 5-1 25c0 23 0 24 2 25q4 2 6-4l2-3v6q1 14 6 11c3-2 3-18 0-26 0-2-6-3-6-1h-1l-2-16-1-18q-2-2-5 1m-174 5-1 22v27l-3 26c-1 1-2 9-1 11q4 2 7-1 3-2 5-16c2-9-1-66-3-70q-3-2-4 1m120 14-2 22-4 33q0 5-4 3-8-1-5 9l3 47 1 36v8h10v-3l-2-19c0-18 0-19 5-19h3v16l-2 20v5h11v-29l1-8 1-20 1-24q1-13-3-15c-3 0-4 3-4 19-1 16-3 29-4 24-4-12-4-20-2-50v-61l-2-2q-2-1-2 8m26-5v41c0 43 0 87-2 108v14h11v-34l2-49c1-41-1-76-5-80q-4-4-6 0m-219 13a587 587 0 0 0 3 74l2 21 2 5v-17l-1-17-1-24-1-22-2-11zm-187 22c-1 2 0 46 1 54l2 29 3 40v5h5q7 2 3-7l-1-11-1-18-4-26v-35l-2-31zm-15 17c-2 2-2 15 0 19l1 12-1 11 1 36v33h8l-1-13 1-19c2-5 2-9 4-50 0-11 0-11-3-18l-4-8q-1-7-6-3m-71 9c-3 5-1 23 3 23q4 0 4-10-2-17-7-13m257 6 2 8 3 6q3 7 2-5c-1-7-1-8-4-11l-3-3zm276 2-1 34-3 59 7 1h6v-13l-1-21-1-35c0-11-1-21-2-21l-1-3q0-3-4-1m-296 8-2 3v-2q-3-6-5-1c-2 5-2 13-3 36l-3 39 1 6 1 5h19v-15l1-29v-20l-1-14q1-11-5-11zm-235 18c-2 2-1 8 1 10q2 3 3 0c3-4 2-11-1-11zm233 8-1 12q1 18 2-4 0-14-1-8m-231 16c-2 2-2 7-2 24 0 19 0 20 5 20h4v-16l-3-25q-1-5-4-3m436 2v28l1 12q0 3 3 2h4v-15a70 70 0 0 0-3-25l-2-2zm-568 1c-1 2-2 6-3 25-1 16-1 16 5 16h5v-18q-1-30-7-23m175 10-1 14-1 15q-3 3 4 2h5v-13q0-23-7-18m319 1c-2 2-3 14-1 20v10h8v-18q-1-18-7-12m-254 1c-3 1-3 3-2 17v12h12v-6l-2-10-1-7-4-7z"
        mask="url(#16282281824-posters-1720560174174-horizontal-mask)" itemprop="light" fill-opacity="0.90"
        fill-rule="evenodd" stroke="none" fill="url(#16282281824-posters-1720560174174-vertical-light)"></path>
      <!---->
      <path id="16282281824-posters-1720560174174-regular"
        d="M13 12v18l1 29 2 67 1 54q3 27 2 62c-1 85-1 88 4 87q4-1 3-16v-29c0-24 0-25 5-23 4 2 4 6 3 26l-1 54-1 48c-2 20-2 28 1 33l4 11 2 14c3 9 3 21 2 48l-1 17h19l-1-9v-25c1-14 1-14 10-11 5 1 7-7 3-10q-5-6-1-15c2-6 4-20 3-22-1-5-11-6-11-1l-1 1q-3-2-1-11c3-9 4-17 7-57l1-15a2661 2661 0 0 0-4-257l-2-18-3-33-3-17-1-12H42v5l2 8 2 10 2 14 2 19 2 22 1 16 2 28v38l-2-6-5-43q-1-15-8-39a419 419 0 0 1-8-71L22 0H12zm105-1a798 798 0 0 0 7 89l4 5 5 5v16c2 35 3 44 8 46 2 2 3 2 3 9l4 26 3 21 6 22 2 14 2 20c3 12 3 36 2 63l-1 56-2 42c-3 3-4-15-7-106l-3-51c2-2-1-12-3-12q-5-2-4 13l3 88c1 45 1 56 3 70q2 13 7 9c4-1 4 1 4 25-1 22-1 22-6 25q-10 7 5 6h9v-8l1-13 1-4v6l1 12v7h15l-1-30a715 715 0 0 0-6-108l-2-34v-22l-2-9-5-27-2-7v-5l-1-12-2-13-1-9c-2-7-4-29-4-50 0-31-1-37-5-42q-5-6-2-21l1-14-1-106V0h-17v4l4 31 1 7 2 16c2 22 2 53 0 53-1 0-4-19-5-40l-1-15-1-7c2-8-3-25-7-28-2-1-4-10-3-12l-1-5q-1-5-5-4h-4zm42 20c1 39 2 50 4 69l4 45 4 52 1 24 1 17 1 18c1 14 4 32 6 39v14q-2 33 7 34c4 1 4-2 3-24l1-31c4-34 2-110-2-115l-2-9c-1-10-2-14-7-34-5-26-7-45-8-92V1l-7-1h-6zm70-26v9c1 14 2 36 1 37l1 6 1 8 2 43 1 56c0 18 1 21 4 19q2 1 2-8-1-14 6-13c5 0 5 2 5 18l2 81 3 11q0 8 5 5 4-3 1-15l-2-39-1-59c-2-25-2-29 2-35v-11c-4-20-7-79-4-81q3-3 0-13l-3-15V0h-26zm38-2 1 17 5 83 3 25 4 18 2 16c2 13 3 16 1 25l-1 17q0 21-4 4-5-24-11-25t-2 12q6 23 8 45l2 27 1 21 1 13 1 23 3 31q1 11 4 10 5 2 5-9l-6-89q0-28 4 0c3 14 4 17 7 17q9 2 0-43-6-30-1-49 1-5 2 4l5 24 1 9 1 8 1 21 2 23 2 15v11l-3 3q-6 6-3 25l1 36 2 35 2 30q0 12 5 10c5-2 6-7 4-31l-2-36q2 1 5 18l3 14c2 11 3 37 1 42l-3 3-3 2v8l4 41v5h36v-7l1-8q1-1 1 7v8h6q7 1 4-2l-1-15c0-14 0-25-3-48l-1-28c0-24-3-39-8-36-2 1-2 1 0 20l1 35v22h-3c-3 0-7 5-6 6 1 2-1 31-3 31l-1-2q-5-8-8-1-2 6-3-2-1-5 3-8c5-5 5-8 4-25v-39l-2-44-2-56a705 705 0 0 0-8-113q-4-19-7-48l-3-28q-1-5-3 3l-2 10-2 29-2 24q-1 3-2-14l-2-15-2-15c0-15 0-17-2-32l-2-35V38l1-24 1-14h-4q-6-1-5 3l-2 10v37l-1 46q-1 4-2-1c-4-14-6-39-4-56l2-27V0h-18zm94 4a1342 1342 0 0 1-2 134l-1 17-1 27c0 25 0 26 2 26l2-1 2-27 1-18 1-27 1-34 3-82-1-16V0h-7zm30 8v53l-1 40-2 25c-1 3-2 7-2 38a605 605 0 0 1-6 73l-1 19c-1 9 4 11 6 2q2-4 2-27l1-15 3-35c1-12 3-32 5-38 2-9 3-32 5-108 0-40 0-42-7-42h-4zm11-7 2 16 2 14v38l3 66 4 16c3 13 3 19 2 43v11l-1 14v8l1 32v83q-1 30 2 30c7 8 11-15 9-47-3-34-4-85-2-95l-1-9c-2-6-3-19-1-19s5 7 6 13l3 12 2 9 2 15c3 21 3 65-1 77-3 8-3 9-6 43l-1 35q1 3 4-1l1-11q1-15 7-11c4 1 4 3 1 18l-1 9 2 2 4 3c2 1 4 46 2 77v13h24v-3l2-31q2-2 3 8l3 12 1 10v4h11v-4l-3-33-1-22-5-57-1-17-2-13-2-16c-4-33-5-35-11-32-4 2-6-5-10-36l-1-20c-1-15-2-32-4-41l-3-27-9-113c-1-31-1-33-4-33q-2-1-3 8-1 18-4-4l-2-13V11c2-11 2-11-12-11h-12zm26-6c0 10 3 20 6 18 1 0 1-15-1-19q-3-2-5 1m61-1-1 31v110q1 12 6 8c2-2 2-2 1-34l-2-63c0-56 0-53-1-53zm19 14c2 27 2 54 3 106a2038 2038 0 0 0 8 131c0 17 1 18 5 24 3 4 3 3 0 73-1 31 0 104 2 112q1 6 4 5h3l-1-12-1-17a1100 1100 0 0 1 1-122c-1-1 1-29 2-28l1 3q1 13 8 10l1-87c0-80 0-95 3-119l1-7v6l1 10 2 18q0 17 2 21c2 5 2 9 2 32l4 58c1 11 2 53 1 79l-3 71v49l4 20q6 4 6-14l-2-86c2-34 2-123 0-138-4-20-5-145-2-150 1-3 2-19 0-34V14c0-13 0-14-6-14h-4l1 13v14h-3c-6 1-6 1-6-11 0-16 0-16-5-16h-4v16l3 49v86l-1 25-1 34-3 48-1-2-3-8-3-12-4-40-2-16-1-17c-3-14-5-105-3-107 1 0 2 1 4 15q2 21 7 14 3-3-1-39l-2-24q0-24-4-16c-2 2-4 26-3 41q0 7-1 5c-1-1-2-13-2-27l-1-25h-6zm64 7 1 29c1 9 0 31-1 37l-1 46v34c-1 9-1 11 1 18q5 17 0 25c-3 4-3 2-1 52l1 67v50l1 14c3 6 2 82-1 95q-1 8 4 9 4 1 5-12l1-10c1-4 0-68-1-83l-1-59 1-44c0-7 1-27 2-26q2 3 4 19l3 28v28l3 1c3 2 3 3 5 23v39c-2 24-3 28-5 32q-3 6-1 10 3 2 0 8v16l1 28v16h3l2-1v-27c0-19 1-25 2-26l3-8 2-6 1 6 3 19 5 42 9 1h9v-38l1-16h1l2 4q6 5 4-9v-14l-2-12-1-12c-1-35-3-48-7-62l-6-21-2-18c-2-13-1-53 2-83 2-16 2-43 0-58-3-23-3-59-1-88 1-10 2-65 1-75V0h-6l-5 1 2 10v37a394 394 0 0 1-2 61l-1 2q-4 2-4-64c-1-31-1-33-5-30q-5 4-5-8c-1-9-1-9-7-9-4 0-4 0-2 9a740 740 0 0 1-1 122q0 3-1 1l-2-17q0-22-3-24v-2c1-2 2-56 1-62l1-12c1-13-1-15-8-15h-5zm62-10c-1 14 1 34 3 36q6 7 5-12l-1-24V0h-7zm34-10 2 59 1 49c2 33 3 40 1 64l-1 30-4 53v58q2 4 5 1l1-28 2-53 2-29c2-21 1-80-1-98l-1-58c1-49 0-50-5-50q-4 0-2 2m87 8c-1 14-1 16 2 17 4 0 5-2 5-15V0h-7zM21 42q0 79 4 71 0-3 3-5 5-5-1-48l-1-20c0-8 0-13-3-28l-2-5zm707-28-1 14-2 18q0 8 5 6c2-3 5-37 3-38zm14 16c0 22-2 81-5 97-1 6 4 9 7 4 2-6 5-89 2-100 0-3-4-4-4-1m-504 7v7l3 65 1 28c2 4 8 10 8 8 2-3 1-37-1-49l-6-44-2-13q-2-5-3-2m454 13 3 9 2 6v28c-2 61-2 76 0 77q4 0 4-7v-11l1-46c0-36 1-40 2-39q5-1 4-7c-3-8-16-16-16-10m-470 53c-1 4 1 44 1 46l1 12q0 17 5 12c1-3 2-16 1-25l-1-16c0-9-1-26-3-31 0-4-4-3-4 2m501 7c-1 2-2 11-2 35l-2 67-2 5-2 2 2 2q3 1 2 4l-4 39c0 10 1 32 3 33h3l1-29 1-38 4-78q3-41 0-42-3-4-4 0m-298 14q0 11 1 9c2-3 2-15 0-18q-1-2-1 9m-402-1 2 57q2 32 3 2l-1-17-2-31c0-11-2-20-2-11m625 1c-2 2 2 16 5 16q5 0 2-10-4-10-7-6m-47 1-3 15c-1 15-2 18-8 18l-3 2c-1 5 1 55 4 77q5 35 6 11v-27q1-18-1-23t1-8c5-9 5-11 6-24 2-24 1-44-2-41M33 148l1 19 2 23c1 11 1 14 3 17 2 4 3 6 3 26 1 20 4 31 6 22q4-20 1-30l-3-10-3-25-2-13-1-15-1-12q1-5-3-8l-3-3zm368 14-1 12c2 26 3 71 4 113a539 539 0 0 1-8 95q-7 24 12 55 2 5 5 1c3-2 2-4-3-16-5-13-7-29-4-38l2-19 2-19 1-28 1-29v-19l-1-31a286 286 0 0 0-4-65q-1-18-6-12m211 10-2 10q-5 31-3 67v17c-3 6-3 19-1 31 3 14 6 58 6 86l3 54 3 28c1 14 4 29 5 27 2-3 4-99 2-106l-3-16-3-19c-5-21-6-28-5-61l3-49v-38l-3-32zm-386 7c-2 1-3 5-4 20-1 23 0 26 4 23 2-1 3-6 4-25 0-19 0-20-4-18m429 6c-1 4-1 17 1 18 4 2 7-12 5-18q-4-4-6 0m-224 2c-3 1-1 12 4 25q4 9 7 30l2 3v-6l-5-39c-1-14-3-15-8-13m-195 13v15l1 36c1 34 1 37 11 74l5 18-2 9c-2 8-1 33 2 37q5 8 6-16-1-17 2-15 4 3 4 12c0 7 4 12 5 7 2-3 1-19-1-28s-2-11-5-14q-7-6-11-28l-3-13q-6-27-8-77c0-20-1-25-3-26q-1-1-3 9m-54 9c0 19 2 34 4 24 1-5 0-25-2-33-2-6-2-6-2 9m569-10q-3 6 3 41c2 6 3 17 3 23l2 16q2 3 5-2c2-4 0-33-3-49l-3-19q-1-16-7-10m-56 4-3 24 1 9q5 4 5-14v-16q0-8-3-3m-566 8v6l1 22c1 21 2 22 4 22 3-1 1-47-2-50q-2-3-3 0m190 3v90l4 31 3 18 2 16 1 7 1 4 1-5c2-12-1-110-4-124l-3-19q-2-24-5-18M58 247l-2 22c0 12 4 24 4 14l1-15q0-25-3-21m634 3c-2 6-1 51 1 52 3 1 4-2 3-28l-1-25q-2-2-3 1m-471 11-1 8q-1 12 3 9c2-1 2-17 0-18zm-89 8-1 24v37c-2 37-2 53-1 60l2 63v57q1 2 6 2h4l-1-5c-1-10-2-37-1-49a527 527 0 0 0-2-85v-94q-2-15-6-10m247 8-2 11-1 10-2 19-1 21q0 12 6 6c1-4 5-66 4-68q-3-3-4 1m69 33-2 17c-2 16 2 49 6 50q8 3 2-42l-3-22q-4-19-3-3m270-5c-2 1-1 19 1 21q5 5 4-10 0-15-5-11m-497 17c-4 3 0 31 5 32q4 2 4-5c-4-27-5-31-9-27M50 334l-3 6v40c0 45 0 58 3 58q2 0 2-25l1-16c2-3 3-60 2-66q-1-7-5 3m709-3c-1 2-1 14 2 52l4 85c0 37 1 44 3 44 1 0 2-109 0-123l-1-20c-2-35-3-43-8-38m-41 5v48q3 3 6-5l2-5v6q0 13 4 15 4 1 4-14-1-17-7-13c-4 2-4 0-4-16 0-15 0-18-4-18zm-174 4-1 26c0 25-1 38-4 51q-2 10 2 9 10 2 9-36c0-32-3-56-6-50m120 7-1 11-2 23-3 22c-1 11-1 11-6 10q-6-2-4 3 3 9 3 58l1 37 5 1h4l-1-20c0-22-1-21 6-21h3l-1 7-1 20v14h4l5-1 2-41 1-44q1-10-3-9-2 1-2 10c0 11-3 35-4 35l-2-4-1-6q-3-8-1-38c2-29 2-62 1-66q-2-4-3-1m27 2c-2 2-3 46-1 54v17l-1 52-1 40h9v-10l1-20q5-145-7-133m-222 13c-1 3 1 55 2 58l2 28 5 17c1 0 1-14-1-28l-1-18v-11l-2-16-2-26q0-8-3-4m-185 22a341 341 0 0 0 2 66l4 57v5h5q5 0 3-1l-1-11q-1-14-5-33l-2-44c0-39-1-44-6-39m-16 18c-1 2 0 14 1 19v15l-1 12 2 61q-1 4 3 3 5 1 3-4c-1-15-1-21 1-27l3-56q0-7-3-11l-4-9q-2-8-5-3m-71 10v19h6c1-2-1-18-2-20q-3-2-4 1m257 4q0 6 4 13l4 10q2 0-1-17 0-5-4-9l-3-3zm277 10c-1 10-2 37-1 45l-1 16-1 18-1 7h11l-1-28c0-28-1-58-3-63q-2-8-3 5m-296-2-1 4q-2 3-3-1c0-2-4-3-4-1l-1 14-3 33v24q-1 17 3 15 3 0 3-4 1-6 2 1v3h10v-7l1-28q2-62-7-53m-4 23v41c2-3 3-51 1-52zm-231-2c-3 4-1 12 3 9l1-5q0-8-4-4m1 24-1 18c0 27-1 25 4 25h4l-1-16-2-22q0-6-4-5m437 2v29l1 10q0 3 3 2h3v-6l-1-7c2-14-3-34-6-28m-569 1-3 29v11h9v-7l-1-20q0-19-5-13m175 10-1 16v14h8v-13c-1-15-2-17-4-18q-2-2-3 1m320-1q-4 5-2 16l1 10v5h4q3 0 2-1v-15q-1-20-5-15m-257 6v10l1 10v5h11v-3l-5-24q-4-5-7 2"
        mask="url(#16282281824-posters-1720560174174-radial-mask)" itemprop="regular" fill-opacity="0.90"
        fill-rule="evenodd" stroke="none" fill="url(#16282281824-posters-1720560174174-horizontal-regular)"></path>
      <!---->
      <path id="16282281824-posters-1720560174174-medium"
        d="m14 29 1 36 1 53 1 61c3 23 4 47 3 57-2 17-1 91 1 92h3c1-2 2-5 2-34 0-34 0-34 4-34 6 1 6 5 4 42v44l-2 45c-2 20-2 26 2 31q3 3 3 11l3 15c2 8 3 26 1 45v19h17l-1-20c0-26 1-27 8-26q13 0 6-9-6-5-2-14c3-9 5-22 3-25-3-3-10-2-10 1q-1 5-3-2l1-10c2-7 3-12 5-42l2-27c2-10 2-173 1-184l-3-37-1-29-2-12-2-22-5-47-1-7H42l1 4 2 7 2 15 2 15 2 17 1 16 1 14 2 23c2 22 2 49 0 49-1 0-5-21-6-36a202 202 0 0 0-9-50l-2-5a468 468 0 0 1-7-65V0H13zm105-9c0 22 1 34 5 63l2 20 4 2c4 3 4 1 6 36 1 22 2 28 5 29q5 3 5 10l2 19 3 19c0 4 2 13 4 17s5 19 5 25l4 29c1 7 2 63 0 65l-1 28-1 58q0 11-3 4l-4-44v-27l-1-32-3-54c0-4-2-11-3-11-3 0-3 2-3 26l1 46c2 68 2 73 4 93q3 21 8 14l3-1c2 3 0 50-3 51q-5 2-6 6l8 1h8v-12c1-12 3-19 3-10l1 13 1 9h13l-1-42v-45l-5-41q-3-22-3-49c0-18 0-21-5-45l-4-19c0-11-2-28-4-34-3-17-4-31-4-57 0-29 0-31-6-37-2-4-3-8 0-24V0h-9q-9 0-8 2l2 11 3 19 4 47v23l-2 11-4-21-2-25c-1-29-3-39-8-45-3-3-3-5-5-16q1-7-3-6h-3zm42-17a720 720 0 0 0 2 78v7l4 35 2 20 4 71a727 727 0 0 0 8 80q2 6 1 19c-2 19 2 35 8 29l1-30v-22c1-1 2-30 2-61 0-35 0-42-5-63l-3-17-4-19c-3-12-6-29-7-41l-1-58V0h-6q-7-1-6 3m69 0 3 49 1 36 1 18 2 39c0 35 1 41 3 38l1-9q1-14 7-13l5 1 1 43c0 40 0 46 4 63q1 11 5 8 3 0 0-16l-1-39-1-38-2-27c0-20 0-21 2-25q4-5 1-14c-1-5-3-18-3-29-3-41-3-50-1-51q3-2 1-12l-3-12-1-10V0h-24zm38-3 1 3 2 23 1 38 2 29c1 23 1 24 5 42l3 18 2 13c2 7 2 10 1 25q-2 25-4 26l-2-9q-6-28-12-24-4 0 1 16 6 24 9 66 0 30 2 32l1 20c0 17 1 24 4 43q0 6 5 3v-20l-2-39-2-53q3-2 7 24 1 10 6 6 3 0 2-10c-1-11-4-32-7-42a118 118 0 0 1 1-38c0-9 5 1 5 11l2 8 2 15 2 12 1 17v18c3 18 4 33 2 36l-4 5c-1 2-2 13 0 25l1 29c0 22 0 28 2 41l1 20c1 15 2 18 5 17q6-5 3-35c-3-17-2-38 0-33l7 29c1 8 3 34 2 42q0 6-3 7c-4 2-4 4-2 18l2 25 1 13h34v-20l1-5q3-1 2 6l1 14v5h9l-1-8-3-49-2-33c0-32-2-39-6-39-2 0-2 4 0 21l1 28c0 27 0 29-4 29s-4-1-7 28q0 15-4 5-5-6-7 1-1 8-3-3-1-6 3-9 6-5 5-23l-2-43-2-41-1-53-3-65-1-16-2-16-3-21a289 289 0 0 1-7-55l-2-11-1-9c-2-3-4 20-5 50l-3 18-4-20-3-36-1-17c-3-17-3-106 0-122q1-4-4-3-5-1-5 3l-1 7-1 41c1 35 0 47-1 48-2 0-5-11-5-12l-1-8V21l1-20zm95 12c2 25 0 96-2 114-1 13-3 85-1 85q3 0 4-50l4-83 1-49V0h-6zm29-5c1 19 0 122-2 126q-2 2-2 28a635 635 0 0 1-8 98q-1 10 2 11c3 0 4-6 6-27l5-67c0-10 1-17 4-29 2-8 2-14 3-48l1-36c1-5 0-49-1-58V0h-9zm11-1 5 48 1 72a121 121 0 0 0 5 31c3 12 3 16 3 51l-1 25 1 34v74c-1 35-1 38 3 39q5 1 6-15c1-9 0-50-2-58v-42l-2-41c-2-3-1-16 1-16q3 2 7 17l2 10q2 1 2 11l4 18c2 15 1 58-3 69-2 9-3 15-5 42q-3 39 0 38 2 1 2-10c1-12 2-14 6-14q7 0 7 6l-4 22 3 3c4 1 4 2 5 20l1 24-1 30v18h23v-15l1-18q2-4 3 0c2 4 5 23 5 25q-1 9 6 8h5l-1-7-2-30-2-25-3-31-3-35v-8l-1-10-3-18c-3-28-5-34-10-29q-4 5-9-25l-2-11-1-24-2-23-4-39-2-22-3-27-3-30-1-36q-1-39-5-34l-1 7q-1 21-6-2l-2-13a116 116 0 0 1 1-37V0h-24zm26-4 1 5 1 6q0 7 3 7V5q-1-9-5-3m62 4-1 38-1 24v75q1 8 4 8t3-14l-2-65c0-59-1-72-2-72zm19 0-1 10c1 5 4 70 4 116l5 77 3 47c0 13 1 14 5 20l2 4v23l-2 34c-1 19 0 106 2 123q0 10 5 4c1-2 2-14 0-14l-1-5v-12a911 911 0 0 1-1-108q2-38 4-39l2 5q1 11 6 9c1-1 2-15 2-92v-95l2-17 1-11 2 10 1 18q2 12 1 17l2 10c2 6 2 8 3 39 1 27 1 35 3 48 2 16 2 65-1 133-2 56 0 91 5 91q3 1 3-15l-1-110c2-42 1-111-2-115l-2-96c0-27 0-50 2-56l1-11-2-28V0h-9l1 7v14l1 6-4 1c-6 1-6 0-7-12V2q0-2-4-2h-3v23l2 38 1 27-5 168-1 9q-1 4-1-6l-2-8c-5-8-4-6-8-42l-5-72-2-14-1-43q0-72-2-78-3-6-4 4m63 3 1 21 1 29-1 26c-2 12-2 20-1 49l-1 44 2 10q5 16 0 22c-3 4-3 20-2 35l1 77 2 73a554 554 0 0 1-1 95c-1 5 2 10 4 7 4-4 6-75 3-103-2-22 0-132 3-135v3l3 7 1 9 1 9 2 28 1 23 3 2c3 2 3 4 5 37 0 26-2 49-5 57-2 4-2 4-1 9v9c-1 3-1 8 1 46 0 12 0 14 2 14l2-24c0-23 0-26 2-33l3-8q1-6 2-2 4 6 7 44l3 21q-1 3 8 2c10 0 9 2 8-29l1-25q2-4 4 2 0 3 2 3c2-1 2-29 0-38l-4-46c0-10 0-13-3-18l-7-27-3-22c-2-15-1-54 3-76 2-14 2-46 0-63-4-30-4-27-3-60l2-22 1-20V44l1-15-1-17-1-12h-9l1 4v93l-2 9q0 6-2 6l-1-1-1-8-1-46c-1-40-1-43-5-40q-4 5-6-6c-1-11-1-11-5-11q-6-1-3 7l2 10 1 12a763 763 0 0 1-2 86l-3 21q-1 1-3-25a57 57 0 0 0-3-22q3-5 2-37V13q2-15-7-13h-5zm63 2c-1 23 2 41 6 37V28l-1-24q2-5-2-4h-3zm34-6 1 59 2 48a680 680 0 0 1-2 111l-1 20c-2 10-3 71-1 72 4 5 5 0 5-29l1-39 1-28 2-23c1-12 0-74-1-86l-1-40V13l-1-13h-6zm86-2v12q-2 12 2 11 4 4 5-14V0h-4q-4-1-3 3M522 7l-2 11v36c4 31 4 32 7 32q5 0 3-13l-5-68q-1-1-3 2M20 19c-1 67 1 104 5 94l3-5 3-3V92l-1-16-1-9-2-21-4-38q-3-8-3 11m709-5-1 13-2 16q-1 8 2 9c2 0 3-2 4-14l2-16c0-6-2-12-5-8m14 16-1 20c0 19-1 48-3 69q-2 18 3 13c3-2 6-57 4-92q-1-17-3-10m-506 6 1 9v16l1 12 1 32c0 31 1 33 6 38q5 5 5 2l1-20c0-9-1-26-3-31l-1-8-1-13-2-14q-3-28-8-23m456 14 3 11 1 26c-1 75-1 82 1 82s3-12 4-96l-1-5q-1-2 2-2 8 0 2-10-7-8-12-6m-471 50v27l1 15c1 8 2 10 2 23q0 9 2 8 3-3 2-22l-1-20-2-25q0-11-4-6m502 10c-2 2-2 6-2 27l-1 47c-2 33-1 32-4 33q-2 2 1 4 3 1 1 7a359 359 0 0 0-2 67q1 4 4 1l1-30 1-52 5-82c1-21 1-21-1-23q-2-2-3 1m-300 8 1 17q2 2 3-9c0-11-2-17-4-8m-401 0-1 20c0 15 4 60 5 60q2-2 1-14v-9l-1-12-2-26q0-22-2-19m578 6q-2 2-3 18t-7 15c-5 0-5 2-5 20 2 47 6 80 10 82 2 1 3-53 1-62-1-5-1-5 2-10 4-6 4-8 5-20l1-20c0-11-2-25-4-23m47 2 4 13c4 3 4-8 0-14q-3-5-4 1M32 139v11l2 30c2 19 2 22 4 26l3 12 1 14 1 12c0 7 2 15 4 15q2-1 4-15l1-9-2-9-3-17-4-21-1-14-1-11-2-15c0-5-5-12-7-9m370 24-1 19 2 30 1 21c1 2 2 88 1 90l-3 21-2 22-3 14c-3 15-1 33 5 45l4 7q2 8 6 7 5-2-2-16-8-19-4-42c2-13 4-51 5-75v-82l-1-23-2-20-2-14q-1-7-4-4m210 9c-6 25-8 56-5 77 1 9 1 10-1 16-2 7-2 23 0 37 2 12 3 18 3 36l2 18 1 20 1 49 2 15 2 20c4 33 5 38 7 32 3-8 3-100 0-113l-2-15-1-9c-4-14-6-25-7-44-1-17 0-51 2-61a325 325 0 0 0-1-78q-2-4-3 0m-387 10-3 39q2 5 5 0c1-2 3-36 2-40q-1-4-4 1m431 2v19c4 2 7-15 3-18q-1-3-3-1m-225 3c-3 2-1 17 5 30l3 9 6 28-1-22q-3-9-5-33 0-19-8-12m-194 8v12c1 61 1 73 4 85l12 48v9c-3 7-3 36 0 39q4 7 5-14t4-16c2 1 4 9 4 15q1 7 4 5c1-2 0-16-1-27-1-10-2-11-5-15q-7-8-10-22l-2-10-7-41-2-30c-1-33-4-50-6-38m-55-2v14c-1 3 0 26 2 29 3 6 4-12 1-30q-2-15-3-13m570 6c-2 1-2 19 0 25l4 21 2 17q0 18 3 18l3-4a309 309 0 0 0-6-65q-1-18-6-12m-57 4-2 29q0 4 3 3l1-17q1-22-2-15m-565 8-1 8 2 23q0 23 4 18l1-7-2-14c-1-28-2-32-4-28m188 3v28c-1 53 0 70 5 91l2 19c1 14 4 27 6 28 1 0 1-79-1-95-4-58-8-79-12-71m-292 8q0 15 3 9v-9l-1-9q-2-1-2 9m32 24q-5 14-2 31 1 13 4 9c1-1 2-31 1-36q-2-7-3-4m635 4c-1 4-2 48-1 50q2 3 3-1v-48q-1-6-2-1m-472 11c-1 1-2 11-1 16q1 3 4-1c3-5 0-18-3-15m-89 9-1 15 1 14v14c-2 32-2 72 0 87l1 50v62h8l-1-7v-75l-1-33-1-8v-59c-1-61-1-65-6-60m248 7-2 4-1 11-2 24-2 17c-1 12 2 18 5 10 3-7 6-66 3-67zm68 25q-5 40-2 53l2 13c1 10 7 14 9 6a343 343 0 0 0-8-75q-1-2-1 3m-396 9q0 9 5 4 5-1-1-7-4-7-4 3m665-3c-1 6 1 18 4 18 2-1 3-16 1-19q-3-4-5 1m-497 15c-2 6 3 31 6 31 4 0 4-2 0-25q-2-11-6-6m-168 5-1 1-3 6c-2 4-2 6-2 15v42c0 36 1 47 4 47q3-1 4-34l1-29q3-51-3-48m707 20 3 49 2 31 1 45 1 36q0 3 2 3V390q-2-6-2-32c-1-21-2-27-5-27-2 0-2 0-2 17m-41-12c-2 3-1 46 0 48q5 3 5-6 2-8 3-1 0 15 4 18 5-1 3-13l-1-9q0-7-5-4c-3 2-4 1-4-16-1-16-2-19-3-19zm-174 22c0 22-1 46-4 56q-3 11 2 12 2 1 4-5a290 290 0 0 0 0-76l-1-5q-3-1-1 18m120-8-2 23-2 24c-2 19-3 20-7 17q-6-5-4 8c2 7 2 17 3 49l1 40 4 1h3v-20l-1-20 4-1c6-3 6-3 5 20v21h8v-25c3-55 3-71 0-70l-1 13-4 33q-3 1-4-7l-2-11c-1-4-1-17 1-31v-64q-1-6-2 0m27 0v70l-1 38-2 39c-1 13 0 15 5 15h4v-52l2-50v-18l-1-17-3-22q-2-7-4-3m-223 11 1 23v24l1 6 1 12c2 23 2 27 4 33q5 13 5 3l-3-43q-3-59-7-59zm-184 24c-1 2 0 41 1 50l2 29 2 36c1 12 2 12 5 12h4l-1-4-2-19-3-22c-2-12-2-18-3-50l-1-32zm-15 16c-2 1-1 15 0 20q2 4 1 9c-1 7 0 79 1 82h5v-8q-2-18 1-25l2-21 1-27c0-10 0-11-3-18l-5-10q-2-5-3-2m184 15c1 7 2 9 5 15l2 6 2 4c2 0 1-21-1-24q-7-13-8-1m-256 4q0 14 4 12 3 0 2-10c-1-10-2-11-4-11q-3-1-2 9m534 5v29l-3 52v6h10l-1-22-2-52q0-20-3-19zm-295-1-2 4q-2 5-3 0l-2-3-3 10-2 35-1 25q0 17 3 17 2 0 2-4 2-9 3-2 0 7 5 6h4v-9l1-26c2-18 2-20 0-39q-1-19-5-14m-5 11-1 47q0 12 2 0c2-13 2-47 1-47zm-230 35c-1 3-2 38 0 40q0 2 4 2 4 1 3-4l-2-20q-2-25-5-18m436 2 2 32c0 8 0 8 3 8h2l-1-16q0-24-4-25zm-567 1-2 14c-2 26-2 25 3 25h4l-1-18-1-20q-2-3-3-1m174 9-1 16v14h7v-14q-1-23-6-16m320 1q-2 0-2 11l1 14q-1 5 3 4 4 1 3-4l-1-10q1-22-4-15m-255 1c-2 1-2 14 0 24v4h9v-5l-1-8-2-9q-2-9-6-6"
        mask="url(#16282281824-posters-1720560174174-vertical-mask)" itemprop="medium" fill-opacity="0.90"
        fill-rule="evenodd" stroke="none" fill="url(#16282281824-posters-1720560174174-vertical-medium)"></path>
      <!---->
      <path id="16282281824-posters-1720560174174-bold"
        d="m14 11 1 25v29l1 58c1 34 1 45 3 64 2 23 2 27 1 110v25q-2 4 1 5 5 4 4-12v-52q1-4 7-3c4 2 4 5 3 30l-1 57-2 63c-1 4 1 11 2 11 2 0 4 8 4 13l2 10 3 24v7l-1 20-1 17h17l-1-9v-23q-1-21 9-15c5 2 9-5 4-8q-6-4 0-18c2-4 3-17 2-19-2-3-8-3-9 0q-3 5-4-1v-10q2-3 5-32l2-38 1-23 1-18a3190 3190 0 0 0-3-172l-1-11c1-5-1-33-2-38l-2-20-2-26-4-29q2-2-6-2h-5l1 5 1 7 2 14 2 13 4 41 4 44 1 16-1 9-1 7q-1 9-3 3l-5-39-2-12a114 114 0 0 0-6-30c-5-25-6-26-8-60L31 3V0H13zm105 3a540 540 0 0 0 5 72q1 17 7 19c4 3 4 3 5 26 1 29 3 38 6 40 4 3 5 4 5 11l3 27 4 20q6 13 7 37l3 22c2 10 2 11 2 21v20l-1 41c-2 73-2 78-5 78q-2 0-2-7c-3-21-3-29-3-44l-1-24-1-35a315 315 0 0 0-3-53q-1-10-3-7c-2 0-2 2-1 22v13l3 108 1 16q2 26 8 17c4-3 4-1 4 23-1 25-1 28-6 30q-8 4 4 5h7v-6c0-9 2-21 4-21l2 14v13h13l-1-10v-12a778 778 0 0 0-5-96l-1-12-2-34-2-41-3-13-5-23v-13l-1-12-1-7-3-12-2-36-1-35c1-1-2-9-5-12s-3-16-1-21c1-3 2-30 1-32l-1-60V0h-15l1 6 1 8 1 8 1 10c5 20 6 82 2 82-2 0-4-12-4-26l-1-10-1-12-1-18q-1-15-4-14t0-3v-4l-1-1-3-4q-3-4-3-9l-1-7-1-4-2-2h-3zm42 18 2 49 2 17 2 19 2 13 1 14 2 38 1 15 1 26 1 16 1 15 1 13 2 9 3 18q2 11 1 14l-1 25q3 11 7 8l1-22 1-33 2-70a230 230 0 0 0-5-45l-2-14-1-4-1-6-5-20-2-9-1-10-3-36-1-38V0h-11zm70-27v13l4 91 2 24 1 25 1 24q2 3 2-9t7-13c6-1 6-2 6 48 1 42 1 43 4 58q3 14 5 10v-11l-2-55-3-63c0-12 0-12 2-16q5-6 2-11c-2-3-4-31-5-59l-2-15q-1-5 2-9c4-5 4-5 1-13-2-7-3-8-3-18V0h-24zm38-3 2 24 2 47 4 50 6 31 3 18v11l-1 17q-2 32-8 6l-6-21q-5-2-6 3l1 3 2 5 1 6c2 2 6 28 7 47l4 54 1 18 3 40q0 3 3 3c2 0 2 0 2-11l-1-17-1-23-2-19-1-19v-21l1-3q4-1 6 15c2 14 3 17 6 17 2 0 4-11 2-12l-1-7-1-11-2-12-2-10-1-34 2-6q1-5 4-2l1 9 4 20 3 42 2 23q5 23-1 28l-3 4v12l1 13v27l1 29 3 41 2 7q3 1 4-2l1-3q2-2-1-26-3-31 0-36l2-2 2 12 3 16 1 4 2 16c2 28 2 31-3 34-4 2-3-1-1 26l2 20 1 9h5l7-1h2l10 1h9v-13c0-12 0-13 2-13q2 0 2 5l1 13v8h7l-1-15-1-22-1-16-1-15-1-26c-1-28-2-34-6-34-2 0-2 0-1 11 2 11 3 64 1 66l-4 1c-3 0-3 0-4 10l-2 26q-1 2-5-3-4-7-5 0-4 10-5-3-1-6 4-9c3-4 3-4 4-14l-1-19-1-13-1-58-1-52a735 735 0 0 0-12-135q-2-6-4-33l-3-26q0-5-1 2l-2 10-2 26q0 30-3 28-3 1-3-16l-2-14-2-19-2-22a606 606 0 0 1-2-92l1-23 1-13h-4q-4-1-3 5l-2 10-1 13 1 67q-1 6-3 5l-5-13v-6c-2-17-3-26-1-52l1-23 1-5-8-1c-8 0-8 0-8 2m95 20c1 27-1 83-2 102-2 32-3 86-2 86l1-7 1-11 1-28 2-26 1-22 2-56V22c1-20 1-22-2-22-2 0-2 1-2 22m28-20c2 4 2 73 0 81v42l-2 9c-1 4-2 9-2 24a517 517 0 0 1-6 88l-1 12v8q1 5 3 1l1-3 2-17 1-19 1-11 1-18 2-21q0-17 3-25c2-8 3-18 4-42l1-41c1-18 1-64-1-68q0-2-4-2-5 0-3 2m13 6 2 23 1 23 1 22v26l1 22c0 11 1 21 2 21l1 5 2 7c3 12 3 13 2 49v82c2 12 2 23 0 46v29q0 16 2 16c5 5 9-20 6-48l-2-68c0-25 0-34-2-38-2-9-1-19 2-18 2 1 7 11 7 15l1 6q4 12 5 23l2 12c3 8 1 67-3 75l-2 10-1 10c-1 2-3 29-2 39l-1 10q-1 8 2 5l1-10q-1-17 9-13 6 0 3 12c-3 16-3 16 1 19 5 2 5 6 5 65v27h21v-11q0-24 3-25 3 0 5 11l2 10 1 9v6h5q5 1 4-2l-2-27-4-48-2-23-1-17-2-14-1-13-1-7-5-35q-2-11-6-7-4 3-7-9l-1-6-1-5-1-11-2-16c0-11-2-36-5-58l-1-15-2-13-1-11-1-8-2-20-2-28-1-21-3-47v-2l-2 2-1 8q-1 14-5 0c-4-21-5-29-3-50V0h-22zm25-2q2 14 4 14c1 0 1-10-1-17q-2-8-3 3m61 4-1 37-1 37v46c1 18 1 20 4 20l1-21V60c-1-48-2-76-3-50m20 7 4 134 2 31 4 60 1 26 3 6 3 6-2 72v60l1 28 2 25c4 3 5-13 2-30a1002 1002 0 0 1 1-124l2-25q2-3 3 2c0 8 4 15 6 11 1-1 2-168 1-186l1-6 1-12q0-12 2-11c2 0 2 1 2 11l2 11 1 15q0 15 2 20c2 5 2 11 2 35 1 28 2 42 4 51 2 11 2 97-1 134-1 18-1 78 1 84q3 9 5 3l-1-59v-42l1-10v-52c1-45 0-63-2-74l-1-33-1-29-1-78 2-10 1-22-1-27c0-11 0-12-5-12h-3v5l1 22-3 1-3 1c-3 4-6-4-6-15 0-14 0-14-2-14-3 0-4 2-3 19v16l2 27c1 18 1 99-1 111l-1 37-2 47q-1 13-3 9-2-1-2-7t-2-11c-3-5-3-7-4-14l-1-13-2-17-1-13-4-45-1-29q-2-33-1-55l-2-62h-2c-2 0-2 0-1 17m63 5 1 26v35l-1 44-1 47 1 12q4 16 0 26c-3 6-3 7-2 12l1 10 1 55v77l2 32c1 7 2 30 1 50l-1 26-1 10c-1 1-1 11 1 12 3 3 4 0 5-20a501 501 0 0 0 0-73V268l1-7q2-5 3 1l2 6 1 6 1 8 3 45q-2 13 4 13c3 0 4 9 5 44 0 19-3 47-5 50q-4 5-2 9 3 6 1 9-2 1 1 52c1 16 2 7 2-18s1-27 3-31l2-8q4-8 5 3l1 2 2 10 1 11 2 16 2 18v5h16v-25c0-31 0-31 2-31q1-1 2 3l3 3c2 0 1-28-1-36l-1-11-1-12-1-21c0-12-1-16-5-25l-1-4-1-3-2-8-4-29-1-54 3-25q3-33-1-63a373 373 0 0 1-1-67l1-19 2-62-2-20q1-4-4-3h-3l1 8v58a193 193 0 0 1-3 45q-1 4-3 0c-3-5-5-52-3-55v-8l1-6-2-14q0-13-2-10-3 3-6-1l-1-8q-1-10-5-9-5-1-2 9a640 640 0 0 1 0 114c-1 12-1 14-4 14l-1-8-1-12-1-12q0-11-2-12v-4l1-43c1-46 1-46-6-46h-4zm62-2q2 36 6 26v-6l-1-22V0h-5zm34-10 2 21 1 41c0 45 1 63 2 66 1 2 0 45-3 70l-4 87c0 18 0 20 2 20 2 1 2 1 3-27l1-30 1-21 1-22c2-8 2-94 1-98l-2-56c0-57 0-61-3-61q-3-2-2 10m86 1v13q3 3 5 1l1-13V0h-2c-3 0-3 0-4 11M20 12l-1 12v11l1 47c0 28 1 33 3 34q2 1 2-2l2-4c4-4 5-6 4-17V82l-1-10-1-11-2-18c0-19-3-36-5-37q-2-1-2 6m503-5a278 278 0 0 0 1 71q1 11 5 7c1-2 1-23-1-29-1-6-3-26-3-44q0-8-2-5m206 10-1 11-1 14q-1 10 1 10c2 0 2-3 4-22q2-22-3-13m14 24-3 65c-1 26-1 26 1 26q3 1 3-12l1-12c2-17 2-78-1-79zm-505-6v25l2 48c0 29 0 30 5 35 7 8 8 5 8-18l-2-27-3-18-2-14-1-13c-1-12-5-22-7-18m455 15 2 6 2 6 1 3v48l-1 16c-1 10 0 39 1 39 2-1 2-18 2-62q0-39 2-40h2c4 0 4-7-1-12-2-2-10-5-10-4m-138 5c-1 1 0 10 1 11q3 2 2-5-1-12-3-6m-332 46v24l1 14 1 21c0 11 0 12 2 12 2-1 2-31-1-63q-1-12-3-8m500 13-1 29c1 22 0 38-1 63l-3 11v3q3 2 2 8c-3 27-4 39-3 56q0 13 2 12c1 0 2-5 2-32l3-65 1-21 1-17 1-32v-17q-2-4-4 2m-299 1v20q4 3 4-3 1-20-2-19zm-402 3v41l1 18q2 22 4 22c2-1 3-8 2-13l-1-12-1-19-1-16v-12l-1-7q0-5-3-2m578 7-1 2-1 12q-1 18-7 18l-4 1a383 383 0 0 0 2 68l3 26q1 7 4 7c2 0 2 0 2-10v-54q-2-4 1-7l4-7c2-6 3-46 1-54q-3-7-4-2m48 0 4 13c3 3 4-3 2-7l-2-4q-3-5-4-2M32 138c-1 2 0 17 1 30l1 22c1 11 1 13 3 17 2 3 3 5 3 14l4 37q3 7 7-9l1-11q2-9-3-16l-4-30-2-11-1-9-1-12v-6l-1-2v-3c1-4-6-14-8-11m370 28-1 5 1 20 2 24 1 41 1 44-1 12-4 44-2 17-2 9a67 67 0 0 0 8 48l3 7q1 3 4 0l2-2-9-24c-2-4-2-15-1-22l2-17 2-20 2-36 1-30c1-2 1-4-1-21v-21l1-12-2-21-1-22-2-13q0-15-3-14zm209 5-1 8-2 11-3 35v8c2 14 2 29 0 33a88 88 0 0 0 2 40l1 12 2 48 1 10v14l1 19a237 237 0 0 0 5 47v7l4 29q1 3 4 1v-10l1-36c2-30 2-60 0-63l-2-10-4-26c-6-24-8-71-4-94 1-8 2-11 3-34l-1-26-2-16q-1-13-5-7m-385 10q-2 1-2 14l-1 16c-2 3 0 13 3 11 2-3 4-41 2-42zm205 4q-2 0-2 10l2 10 5 13 2 6 5 26q3 9 3 2 0-18-2-21l-3-18c-2-29-3-31-10-28m225 8q0 16 3 6c2-5 1-14-1-15q-2-2-2 9m-474 0c-1 2 0 36 1 41q2 8 4 0c1-4 0-23-2-34q-1-10-3-7m57 1-1 7-1 5 1 10 1 35a164 164 0 0 0 7 60c8 30 9 34 7 41-3 6-2 34 1 37q3 5 3-15c0-13 1-15 2-17q6-4 8 15 1 10 2 4l-2-32-4-8c-5-6-11-22-11-30l-1-6-2-6-1-3-1-8-3-16-1-16-1-10-1-22q0-31-2-25m513 5c-2 2-1 17 1 29q6 22 5 34 1 22 5 16c1-2 0-36-1-38l-2-9-2-13-1-10q0-13-5-9m-56 5c-2 6-3 29-2 30q3 3 3-10v-15q1-11-1-5m-566 18 2 22q0 18 2 16l1-11c-2-30-3-38-4-38zm-104 3 1 12q3 1 3-16 1-10-2-9c-2 0-2 1-2 13m292-11-1 13v46c1 34 1 40 5 61l2 14c0 12 4 32 7 32 2 0 2-2 2-30l-4-90-2-17a105 105 0 0 0-5-29c0-3-4-3-4 0M58 245q-4 13-3 28c2 14 3 16 6 14 1-1 2-30 0-38q-2-6-3-4m635 16-1 33q0 6 2 6v-51zm-471 1c-1 3-2 14-1 15q1 3 3-6 0-12-2-9m-89 9-1 23v35c-2 29-1 68 1 71v53c0 60 0 59 4 59h4l-1-12v-66l-1-29-2-70-1-63q-2-3-3-1m247 7-2 8-1 12-1 15-2 20v12c2 3 4-2 4-7l1-8 2-21 2-25q0-10-3-6m68 19c-2 5-5 56-3 57l1 9c2 14 8 21 11 12 2-3 1-22-1-34l-2-17-2-13-2-8q-1-9-2-6m-396 9v9q1 5 5 1 5-2-1-9-4-5-4-1m667 1c-2 4 0 18 2 18q2 1 1-8-1-16-3-10m-498 17v4l3 22q1 4 4 3l1-4-5-25q-2-4-3 0m-171 6-3 6-1 35-1 39 1 14q0 14 2 15c4 3 5-1 6-22v-17l1-27 2-27v-5l-1-6q-1-13-6-5m710 2c-1 5 0 31 1 32l1 19 1 19 3 49v45l1 9 1 7c1 0 1-107-1-120l-1-23-3-37zm-41 4-1 36q1 21 5 6 2-13 5 5 0 13 4 11c1-2 0-22-1-24q-2-4-5 0-5 6-5-26l-1-9zm-175 17c1 18-1 56-4 66q-1 9 4 5c5-5 6-38 3-66q-3-31-3-5m121-5-3 30-2 17-1 11q-1 13-6 9l-3-2q-3 1-1 4 2 2 2 17l1 7 1 32c0 39 0 39 4 39h3v-9c-3-33-3-33 5-33h5l-1 10-1 21v11h7v-12q0-27 2-31v-50l-3 26-3 16q-3 6-5-4l-1-9-1-35c2-18 3-76 1-65m26 1a499 499 0 0 0 1 64l-2 42-1 42c-1 3-1 3 1 11q-1 5 3 4h3v-15c0-34 2-83 3-90l-3-49q-3-12-5-9m-223 11c-2 2 0 36 2 63l2 16q0 20 5 27 3 2 4-3l-2-16-3-49-3-34q0-4-2-4zm-183 26a1325 1325 0 0 0 6 116v10h3l3-1q-2-4-2-17l-3-22c-2-10-2-18-3-48l-1-38zm-16 16c-1 1 0 14 1 16l1 28c0 65 0 66 2 66s2-1 2-15l1-20c1-4 2-9 2-24l1-21c2-1 0-12-3-19l-4-9q-1-5-3-2m184 8c-2 2 1 18 3 18 1 0 4 7 4 11l2 3c2 0 2-9 1-19-1-8-8-17-10-13m-255 9q-1 15 4 11c1-1 1-2-2-17q-2-7-2 6m533 19c0 41-1 68-2 71l-1 3h9l-1-24c-1-52-2-69-4-69zm-296-10-1 5-1 47q0 12-3 9a357 357 0 0 1 1-58l-1-3q-1-6-2 5l-2 14c-1 3-2 62-1 64q1 3 3-3 1-9 4-1 0 6 5 5h3v-32c2-31 1-54-2-55q-1-1-3 3m-233 42-1 41 3 1c2 0 2 0 2-16l-2-21q0-7-2-5m437 3v26l1 11q1 4 3 1v-15c0-13-1-17-3-23l-1-2zm-569 4-1 9-2 15v11h7v-17l-2-20q-2-4-2 2m175 8-1 15v12h3c2 0 2 0 2-16q-1-21-4-11m318 1v10l1 11q0 6 2 5 4 1 2-3l-1-12v-12q-1-6-4 1m-254-1-1 11c1 15 2 16 6 16h3v-5c0-5-3-20-5-22z"
        mask="url(#16282281824-posters-1720560174174-horizontal-mask)" itemprop="bold" fill-opacity="0.90"
        fill-rule="evenodd" stroke="none" fill="url(#16282281824-posters-1720560174174-vertical-bold)"></path>
    </pattern>
    <rect id="16282281824-posters-1720560174174-pattern-render" fill="url(#16282281824-posters-1720560174174-pattern)"
      width="100%" height="100%"></rect>
  </defs>
  <radialGradient id="lightbar" cx="50%" cy="200%" fy="0" r="201%">
    <stop offset="0%" style="stop-color: rgb(255, 255, 255); stop-opacity: 0.1;"></stop>
    <stop offset="10%" style="stop-color: rgb(0, 0, 0); stop-opacity: 0.1;"></stop>
    <stop offset="30%" style="stop-color: rgb(0, 0, 0); stop-opacity: 0.3;"></stop>
    <stop offset="90%" style="stop-color: rgb(0, 0, 0); stop-opacity: 0.55;"></stop>
    <stop offset="100%" style="stop-color: rgb(0, 0, 0); stop-opacity: 0.6;"></stop>
  </radialGradient>
  <g class="radial">
    <radialGradient id="16282281824-posters-1720560174174-radial" gradientUnits="userSpaceOnUse">
      <stop itemprop="radial" stop-color="#8f8d8a" offset="0%"></stop>
      <stop itemprop="radial" stop-color="#c9c7c5" offset="15%"></stop>
      <stop itemprop="radial" stop-color="#adaba9" offset="30%"></stop>
      <stop itemprop="radial" stop-color="#999794" offset="45%"></stop>
      <stop itemprop="radial" stop-color="#b2b0ae" offset="60%"></stop>
      <stop itemprop="radial" stop-color="#878582" offset="75%"></stop>
      <stop itemprop="radial" stop-color="#c3c2c1" offset="90%"></stop>
    </radialGradient>
    <radialGradient id="16282281824-posters-1720560174174-radial-background" gradientUnits="userSpaceOnUse">
      <stop stop-color="#d3cec5" offset="0%"></stop>
      <stop stop-color="#d3cec5" offset="15%"></stop>
      <stop stop-color="#d3cec5" offset="30%"></stop>
      <stop stop-color="#d3cfc5" offset="45%"></stop>
      <stop stop-color="#d3cec5" offset="60%"></stop>
      <stop stop-color="#d3cec5" offset="75%"></stop>
      <stop stop-color="#d3cec5" offset="90%"></stop>
    </radialGradient>
    <radialGradient id="16282281824-posters-1720560174174-radial-light" gradientUnits="userSpaceOnUse">
      <stop stop-color="#9b9a97" offset="0%"></stop>
      <stop stop-color="#9c9a96" offset="15%"></stop>
      <stop stop-color="#9b9997" offset="30%"></stop>
      <stop stop-color="#9b9a97" offset="45%"></stop>
      <stop stop-color="#9b9997" offset="60%"></stop>
      <stop stop-color="#9b9a97" offset="75%"></stop>
      <stop stop-color="#9b9a97" offset="90%"></stop>
    </radialGradient>
    <radialGradient id="16282281824-posters-1720560174174-radial-regular" gradientUnits="userSpaceOnUse">
      <stop stop-color="#82807d" offset="0%"></stop>
      <stop stop-color="#83817c" offset="15%"></stop>
      <stop stop-color="#82807d" offset="30%"></stop>
      <stop stop-color="#82817d" offset="45%"></stop>
      <stop stop-color="#82807d" offset="60%"></stop>
      <stop stop-color="#82807d" offset="75%"></stop>
      <stop stop-color="#82807d" offset="90%"></stop>
    </radialGradient>
    <radialGradient id="16282281824-posters-1720560174174-radial-medium" gradientUnits="userSpaceOnUse">
      <stop stop-color="#51504d" offset="0%"></stop>
      <stop stop-color="#51504d" offset="15%"></stop>
      <stop stop-color="#514f4d" offset="30%"></stop>
      <stop stop-color="#51504d" offset="45%"></stop>
      <stop stop-color="#514f4d" offset="60%"></stop>
      <stop stop-color="#51504d" offset="75%"></stop>
      <stop stop-color="#51504d" offset="90%"></stop>
    </radialGradient>
    <radialGradient id="16282281824-posters-1720560174174-radial-bold" gradientUnits="userSpaceOnUse">
      <stop stop-color="#2f2e2d" offset="0%"></stop>
      <stop stop-color="#2f2e2d" offset="15%"></stop>
      <stop stop-color="#2f2e2d" offset="30%"></stop>
      <stop stop-color="#2f2e2d" offset="45%"></stop>
      <stop stop-color="#2f2e2d" offset="60%"></stop>
      <stop stop-color="#2f2e2d" offset="75%"></stop>
      <stop stop-color="#2f2e2d" offset="90%"></stop>
    </radialGradient>
  </g>
  <g class="vertical">
    <linearGradient id="16282281824-posters-1720560174174-vertical" gradientUnits="userSpaceOnUse" x1="0" x2="0" y1="0"
      y2="100%">
      <stop itemprop="vertical" stop-color="#8f8d8a" offset="0%"></stop>
      <stop itemprop="vertical" stop-color="#c9c7c5" offset="15%"></stop>
      <stop itemprop="vertical" stop-color="#adaba9" offset="30%"></stop>
      <stop itemprop="vertical" stop-color="#999794" offset="45%"></stop>
      <stop itemprop="vertical" stop-color="#b2b1ae" offset="60%"></stop>
      <stop itemprop="vertical" stop-color="#878582" offset="75%"></stop>
      <stop itemprop="vertical" stop-color="#c3c2c1" offset="90%"></stop>
    </linearGradient>
    <linearGradient id="16282281824-posters-1720560174174-vertical-background" gradientUnits="userSpaceOnUse" x1="0"
      x2="0" y1="0" y2="100%">
      <stop stop-color="#cdcccb" offset="0%"></stop>
      <stop stop-color="#ceccca" offset="15%"></stop>
      <stop stop-color="#cdcccb" offset="30%"></stop>
      <stop stop-color="#cdcccb" offset="45%"></stop>
      <stop stop-color="#cecdca" offset="60%"></stop>
      <stop stop-color="#cdcccb" offset="75%"></stop>
      <stop stop-color="#cdcccb" offset="90%"></stop>
    </linearGradient>
    <linearGradient id="16282281824-posters-1720560174174-vertical-light" gradientUnits="userSpaceOnUse" x1="0" x2="0"
      y1="0" y2="100%">
      <stop stop-color="#aea084" offset="0%"></stop>
      <stop stop-color="#ae9f84" offset="15%"></stop>
      <stop stop-color="#ae9e84" offset="30%"></stop>
      <stop stop-color="#aea284" offset="45%"></stop>
      <stop stop-color="#aea084" offset="60%"></stop>
      <stop stop-color="#aea084" offset="75%"></stop>
      <stop stop-color="#aea084" offset="90%"></stop>
    </linearGradient>
    <linearGradient id="16282281824-posters-1720560174174-vertical-regular" gradientUnits="userSpaceOnUse" x1="0" x2="0"
      y1="0" y2="100%">
      <stop stop-color="#82807d" offset="0%"></stop>
      <stop stop-color="#83817c" offset="15%"></stop>
      <stop stop-color="#82807d" offset="30%"></stop>
      <stop stop-color="#82817d" offset="45%"></stop>
      <stop stop-color="#83817c" offset="60%"></stop>
      <stop stop-color="#82807d" offset="75%"></stop>
      <stop stop-color="#82807d" offset="90%"></stop>
    </linearGradient>
    <linearGradient id="16282281824-posters-1720560174174-vertical-medium" gradientUnits="userSpaceOnUse" x1="0" x2="0"
      y1="0" y2="100%">
      <stop stop-color="#51504d" offset="0%"></stop>
      <stop stop-color="#51504d" offset="15%"></stop>
      <stop stop-color="#514f4d" offset="30%"></stop>
      <stop stop-color="#51504d" offset="45%"></stop>
      <stop stop-color="#51504d" offset="60%"></stop>
      <stop stop-color="#51504d" offset="75%"></stop>
      <stop stop-color="#51504d" offset="90%"></stop>
    </linearGradient>
    <linearGradient id="16282281824-posters-1720560174174-vertical-bold" x1="0" x2="0" y1="0" y2="100%">
      <stop stop-color="#2f2e2d" offset="0%"></stop>
      <stop stop-color="#2f2e2d" offset="15%"></stop>
      <stop stop-color="#2f2e2d" offset="30%"></stop>
      <stop stop-color="#2f2e2d" offset="45%"></stop>
      <stop stop-color="#2f2e2d" offset="60%"></stop>
      <stop stop-color="#2f2e2d" offset="75%"></stop>
      <stop stop-color="#2f2e2d" offset="90%"></stop>
    </linearGradient>
  </g>
  <g class="horizontal">
    <linearGradient id="16282281824-posters-1720560174174-horizontal" x1="0" x2="100%" y1="0" y2="0"
      gradientUnits="userSpaceOnUse">
      <stop itemprop="horizontal" stop-color="#b2b1ae" offset="0%"></stop>
      <stop itemprop="horizontal" stop-color="#a5a4a1" offset="15%"></stop>
      <stop itemprop="horizontal" stop-color="#969592" offset="30%"></stop>
      <stop itemprop="horizontal" stop-color="#a19f9b" offset="45%"></stop>
      <stop itemprop="horizontal" stop-color="#b5b3b0" offset="60%"></stop>
      <stop itemprop="horizontal" stop-color="#9e9c9a" offset="75%"></stop>
      <stop itemprop="horizontal" stop-color="#c4c2c0" offset="90%"></stop>
    </linearGradient>
    <linearGradient id="16282281824-posters-1720560174174-horizontal-background" gradientUnits="userSpaceOnUse" x1="0"
      x2="100%" y1="0" y2="0">
      <stop stop-color="#cecdca" offset="0%"></stop>
      <stop stop-color="#cdcccb" offset="15%"></stop>
      <stop stop-color="#cdcccb" offset="30%"></stop>
      <stop stop-color="#ceccca" offset="45%"></stop>
      <stop stop-color="#cecdca" offset="60%"></stop>
      <stop stop-color="#cdcccb" offset="75%"></stop>
      <stop stop-color="#ceccca" offset="90%"></stop>
    </linearGradient>
    <linearGradient id="16282281824-posters-1720560174174-horizontal-light" gradientUnits="userSpaceOnUse" x1="0"
      x2="100%" y1="0" y2="0">
      <stop stop-color="#9c9a96" offset="0%"></stop>
      <stop stop-color="#9b9a97" offset="15%"></stop>
      <stop stop-color="#9b9a97" offset="30%"></stop>
      <stop stop-color="#9c9a96" offset="45%"></stop>
      <stop stop-color="#9c9a96" offset="60%"></stop>
      <stop stop-color="#9b9a97" offset="75%"></stop>
      <stop stop-color="#9c9a96" offset="90%"></stop>
    </linearGradient>
    <linearGradient id="16282281824-posters-1720560174174-horizontal-regular" gradientUnits="userSpaceOnUse" x1="0"
      x2="100%" y1="0" y2="0">
      <stop stop-color="#968769" offset="0%"></stop>
      <stop stop-color="#968669" offset="15%"></stop>
      <stop stop-color="#968769" offset="30%"></stop>
      <stop stop-color="#968669" offset="45%"></stop>
      <stop stop-color="#968769" offset="60%"></stop>
      <stop stop-color="#968969" offset="75%"></stop>
      <stop stop-color="#968469" offset="90%"></stop>
    </linearGradient>
    <linearGradient id="16282281824-posters-1720560174174-horizontal-medium" gradientUnits="userSpaceOnUse" x1="0"
      x2="100%" y1="0" y2="0">
      <stop stop-color="#5d5441" offset="0%"></stop>
      <stop stop-color="#5d5341" offset="15%"></stop>
      <stop stop-color="#5d5441" offset="30%"></stop>
      <stop stop-color="#5d5341" offset="45%"></stop>
      <stop stop-color="#5d5441" offset="60%"></stop>
      <stop stop-color="#5d5541" offset="75%"></stop>
      <stop stop-color="#5d5241" offset="90%"></stop>
    </linearGradient>
    <linearGradient id="16282281824-posters-1720560174174-horizontal-bold" gradientUnits="userSpaceOnUse" x1="0"
      x2="100%" y1="0" y2="0">
      <stop stop-color="#2f2e2d" offset="0%"></stop>
      <stop stop-color="#2f2e2d" offset="15%"></stop>
      <stop stop-color="#2f2e2d" offset="30%"></stop>
      <stop stop-color="#2f2e2d" offset="45%"></stop>
      <stop stop-color="#2f2e2d" offset="60%"></stop>
      <stop stop-color="#2f2e2d" offset="75%"></stop>
      <stop stop-color="#2f2e2d" offset="90%"></stop>
    </linearGradient>
  </g>
  <g class="masks">
    <mask id="16282281824-posters-1720560174174-pattern-mask" maskUnits="userSpaceOnUse"
      maskContentUnits="userSpaceOnUse">
      <pattern id="pattern" x="0" y="0" width=".0133" height=".0144" viewBox="0 0 23.07 40">
        <path
          d="M17.62 0l-6.07 10.5m2.74 4.76L8.22 4.75m-5.48 0h12.13M.01 0h23.07M6.07 20L0 9.5m2.74-4.75l-6.07 10.5m-5.48 0H3.33m8.2 4.75L0 .02-11.54 20m40.68 0L23.07 9.5m2.74-4.75l-6.06 10.5m-5.49 0H26.4M34.6 20L23.08.02 11.53 20m-5.46 0L0 30.51m2.74 4.75l-6.07-10.5m-5.48 0H3.33m8.2-4.75L0 40l-11.54-19.98zM17.6 40l-6.06-10.5m2.74-4.76L8.2 35.25m-5.48 0h12.13M0 40h23.07L11.54 20.01m17.6 0l-6.07 10.5m2.74 4.75l-6.06-10.5m-5.49 0H26.4M11.53 20h23.08L23.07 40"
          stroke-linecap="round" stroke-width="3.5" stroke="white"
          fill="url(#16282281824-posters-1720560174174-horizontal-background)"></path>
      </pattern>
      <rect width="100%" height="100%" fill="url(#pattern)"></rect>
    </mask>
    <mask id="16282281824-posters-1720560174174-horizontal-mask" maskUnits="userSpaceOnUse"
      maskContentUnits="userSpaceOnUse">
      <rect width="100%" height="100%" fill="url(#16282281824-posters-1720560174174-horizontal-background)"></rect>
    </mask>
    <mask id="16282281824-posters-1720560174174-radial-mask" maskUnits="userSpaceOnUse"
      maskContentUnits="userSpaceOnUse">
      <rect width="100%" height="100%" fill="url(#16282281824-posters-1720560174174-radial-background)"></rect>
    </mask>
    <mask id="16282281824-posters-1720560174174-vertical-mask" maskUnits="userSpaceOnUse"
      maskContentUnits="userSpaceOnUse">
      <rect width="100%" height="100%" fill="url(#16282281824-posters-1720560174174-vertical-background)"></rect>
    </mask>
  </g>
  <use href="#16282281824-posters-1720560174174-pattern-render"></use>
  <g>
    <use href="#16282281824-posters-1720560174174-background"></use>
    <use href="#16282281824-posters-1720560174174-light"></use>
    <use href="#16282281824-posters-1720560174174-regular"></use>
    <use href="#16282281824-posters-1720560174174-medium"></use>
    <use href="#16282281824-posters-1720560174174-bold"></use>
  </g>
  <g itemprop="animation">
    <animate href="#16282281824-posters-1720560174174-light" attributeName="stroke-opacity" repeatCount="indefinite"
      dur="5s" values="0.9;0.0;0.9"></animate>
    <animate href="#16282281824-posters-1720560174174-regular" attributeName="stroke-opacity" repeatCount="indefinite"
      dur="4s" values="0.9;0;0.9"></animate>
    <animate href="#16282281824-posters-1720560174174-medium" attributeName="stroke-opacity" repeatCount="indefinite"
      dur="5s" values="0.9;0;0.9"></animate>
    <animate href="#16282281824-posters-1720560174174-bold" attributeName="stroke-opacity" repeatCount="indefinite"
      dur="3s" values="0.9;0;0.9"></animate>
    <animate href="#16282281824-posters-1720560174174-regular" attributeName="fill-opacity" repeatCount="indefinite"
      dur="8s" values="0.9;0.75;0.95;0.8;0.9;"></animate>
    <animate href="#16282281824-posters-1720560174174-radial-background" attributeName="cx" repeatCount="indefinite"
      dur="34s" values="0%;33%;100%;0%;100%;0%;"></animate>
    <animate href="#16282281824-posters-1720560174174-radial-background" attributeName="cy" repeatCount="indefinite"
      dur="55s" values="0%;100%;33%;100%;66%;0%"></animate>
    <animate href="#16282281824-posters-1720560174174-vertical-light" attributeName="x1" repeatCount="indefinite"
      dur="55s" values="0%;33%;100%;0%;133%;0%;"></animate>
    <animate href="#16282281824-posters-1720560174174-vertical-light" attributeName="y1" repeatCount="indefinite"
      dur="86s" values="0%;100%;33%;100%;66%;0%"></animate>
    <animate href="#16282281824-posters-1720560174174-horizontal-regular" attributeName="x1" repeatCount="indefinite"
      dur="34s" values="0%;100%;66%;0%;33%;133%;0%"></animate>
    <animate href="#16282281824-posters-1720560174174-horizontal-regular" attributeName="y1" repeatCount="indefinite"
      dur="55s" values="0%;66%;100%;33%;100%;66%;0%"></animate>
    <animate href="#16282281824-posters-1720560174174-vertical-medium" attributeName="x1" repeatCount="indefinite"
      dur="34s" values="0%;100%;66%;0%;33%;133%;0%"></animate>
    <animate href="#16282281824-posters-1720560174174-vertical-medium" attributeName="y1" repeatCount="indefinite"
      dur="55s" values="0%;66%;100%;33%;100%;66%;0%"></animate>
    <animate href="#16282281824-posters-1720560174174-vertical-bold" attributeName="x1" repeatCount="indefinite"
      dur="34s" values="0%;100%;66%;0%;33%;133%;0%"></animate>
    <animate href="#16282281824-posters-1720560174174-vertical-bold" attributeName="y1" repeatCount="indefinite"
      dur="55s" values="0%;66%;100%;33%;100%;66%;0%"></animate>
  </g>
</svg>
