<svg id="16282281824-posters-1720559875533" itemscope="" itemtype="/posters"
  itemid="/+16282281824/posters/1720559875533" viewBox="0 0 769 512" preserveAspectRatio="xMidYMid meet" tabindex="0"
  class="animate landscape" xmlns="http://www.w3.org/2000/svg">
  <!---->
  <defs class="graphic">
    <pattern id="16282281824-posters-1720559875533-pattern" width="769" height="512" viewBox="0 0 769 512"
      patternUnits="userSpaceOnUse" preserveAspectRatio="xMidYMid meet">
      <rect itemprop="background" width="769" height="512" tabindex="-1"
        id="16282281824-posters-1720559875533-background" fill-opacity="1"
        fill="url(#16282281824-posters-1720559875533-radial-background)"></rect>
      <!---->
      <path id="16282281824-posters-1720559875533-light"
        d="M29 3q2 6 6 7 5-1 6-5 1-5-7-5-6-1-5 3m145-2c0 5 11 6 12 1q2-2-6-2zm47 1c-3 6 4 12 8 7q3-3 0-8-5-2-8 1m88 0q-1 6 4 7 6 0 6-6c-1-4-9-4-10-1m174 0q0 3 3 5 6 2 7-4 1-4-5-3-4 0-5 2m25 0a4 4 0 1 0 7 0q-3-3-7 0m105-1c-2 1-1 7 1 9 5 3 11-3 8-8-1-2-8-3-9-1m32 0a4 4 0 1 0 6 6 4 4 0 0 0-6-6m15 1q-1 5 2 7 6 1 8-6c0-3-9-5-10-1M57 2a7 7 0 0 0 4 14c5-2 8-9 5-12q-5-3-9-2m372 1q-4 3 0 7 4 6 7 1 5-4 0-9-4-2-7 1m-60 2q-2 5 2 6a4 4 0 1 0-2-6m18 0q-3 5 3 12t9 2c4-7-7-19-12-14m321 1q-4 6 2 7a4 4 0 1 0-2-7M206 6q-4 2 0 5 2 3 4 0c4-3 0-7-4-5m247 1a5 5 0 1 0 8 8 5 5 0 0 0-8-8M329 9a3 3 0 1 0 2-3q-3-1-2 3m389-1q-3 7 3 9 8 2 7-9c-1-3-7-3-10 0m-120 3q-1 5 3 5t4-4c0-2-6-4-7-1m-67 1q-2 7 4 7 8-1 5-7-5-4-9 0m221 0q-3 2 0 5 6 7 10-1c1-5-6-8-10-4m-640 0q-3 4-1 7 3 5 7 1c4-3-1-11-6-8m129 1q-2 3 1 8 4 3 7-1c5-5-3-12-8-7m54-1q-2 2-1 6a4 4 0 1 0 1-6m324 2q-3 6 0 11a8 8 0 1 0 0-11M37 13q-4 4 0 9c4 4 10 2 10-4 0-5-6-8-10-5m40 1c-2 1-3 7-1 9h8c4-5-2-13-7-9m203-1a5 5 0 1 0 6 8 5 5 0 0 0-6-8m276 2q-3 5 2 8a5 5 0 1 0-2-8m118 0-1 4a4 4 0 1 0 1-4m66 0q-3 3-1 8c3 3 9-1 7-6q-2-3-6-2m-159 1q-2 5 4 6 5 0 3-5c0-2-6-3-7-1m113 1c-3 3-1 9 3 9q4-1 5-6-2-7-8-3M20 19q-6 6 0 9a6 6 0 1 0 0-9m416 0q-5 6 4 5 4-3 0-6-3-2-4 1m62-1c-5 2-6 8-3 10 5 4 13 1 13-5 0-4-6-7-10-5m155 2a5 5 0 1 0 8 7 5 5 0 0 0-8-7m-240 1q-3 3 0 7t8 0a6 6 0 0 0-8-7m106-1a5 5 0 1 0 6 1q-3-3-6-1m-324 2q-8 5-1 12c6 6 18-3 13-10q-4-6-12-2m152 0c-6 7 5 17 13 11q4-5 1-11c-3-3-11-3-14 0m-185 1q-4 3 0 7c2 4 9 1 9-4q-1-7-9-3m293-1v4c1 2 6 2 7 0 0-4-5-7-7-4m149 0-1 5a5 5 0 1 0 1-5m-294 2c-2 1-1 6 1 6q5 2 5-3-1-5-6-3m59 1q-1 4 4 5c4 0 4-6 0-7q-3 0-4 2M0 29q0 9 4 4 3-3-2-7l-2-2zm633-2c-4 2-1 11 4 11q4-1 6-7c0-3-7-6-10-4m-62 2c-3 2-3 10 0 12 4 3 13-2 13-7 0-4-9-8-13-5M54 31q-1 5 3 5c5-1 5-7 0-7q-3 0-3 2m22 0q-4 8 5 8 9-2 4-8-4-4-9 0m180 0c-5 5 2 14 7 8q4-4 0-8t-7 0m14 0q-3 4 2 5 5 3 6-1c3-5-5-9-8-4m421-1q-3 3-1 7c4 3 9-3 5-6q-2-3-4-1m22 0-1 3q-1 4 3 3 4 0 4-3-1-5-6-3m-47 2q-4 3 0 7 5 5 9-3c1-5-6-8-9-4m-553 1q-3 5 0 8a6 6 0 1 0 0-8m536 0a4 4 0 1 0 5 4 4 4 0 0 0-5-4m102-1q-3 3 0 7 4 3 6 1c3-4-1-11-6-8m-311 3c-4 2-4 9 0 11q11 1 8-8-2-6-8-3m154 0q-2 6 3 7 4-1 3-6-2-4-6-1m136 0-1 6c1 7 10 5 10-1s-6-8-9-5m-557 1q-3 4 2 6l3 1q3 1 4-3c0-4-6-7-9-4m41 2q-3 3-1 7c3 4 9 1 9-4q-2-8-8-3m182 1a6 6 0 1 0 11 4c0-5-9-8-11-4m110-1v4a4 4 0 1 0 0-4m110 1q-1 4 2 6 5 0 6-4c0-4-6-6-8-2m149-1a8 8 0 0 0 0 16q5 1 2 1c-5 0-4 9 1 9 2 0 2 0 2-9l-1-14q1-5-4-3m-611 2q-4 4 0 8 4 5 7-1 4-4 0-7-4-4-7 0m164 0q-4 2-2 7 5 5 9 0 3-3 0-6-2-3-7-1m393 2q-4 4 1 8c5 3 10-3 8-7-1-4-7-4-9-1M43 43q-4 3 0 7a5 5 0 1 0 0-7m23 0q-5 6 4 7c3-1 4-6 1-7l-3-2zm24 1q-6 10 5 11 7 0 7-7c0-7-8-10-12-4m109-1q-2 3 3 5 4 1 3-3-2-6-6-2m49 3a5 5 0 1 0 8 4q-2-9-8-4m32 0a5 5 0 1 0 6 0c-4-2-3-2-6 0m207-1q-3 4 1 7a4 4 0 1 0-1-7m65 2c-3 4 2 10 7 7q5-4 1-8-4-5-8 1m-23 0q-4 3 0 7c4 4 12-1 8-7q-2-3-8 0m146 1q-6 9 7 11 5 1 7-3c4-8-8-15-14-8m-21 1q-4 4 0 7 6 5 8-4-1-8-8-3m-51 1q-7 7 2 9 4 2 6-3a6 6 0 0 0-4-8zm-369 1a4 4 0 1 0 6 0q-4-4-6 0m503 0a6 6 0 1 0 9 7 6 6 0 0 0-9-7m-268 0a5 5 0 1 0 6 0zm110 1c-2 2 3 7 5 5q4-4 0-6t-5 1m-454 1a5 5 0 1 0 6 0q-4-3-6 0m68-1c-3 1 0 9 4 9q4-2 5-6-1-5-9-3M2 53c-2 1-1 12 1 12q4 1 7-3c2-4-5-13-8-9m18 1a8 8 0 1 0 9 12 8 8 0 0 0-9-12m61-1-1 3c1 3 6 4 7 1q1-7-6-4m340 1a5 5 0 1 0 9 5c0-5-6-8-9-5M59 56q-3 3-1 7c2 3 9 3 10 0 3-6-4-10-9-7m304 2q-6 3-1 7 4 4 7-1c4-5-2-11-6-6m20-1q-4 3 0 6l3 2 4-5c0-2-5-5-7-3m21-1q-3 5 1 6a4 4 0 1 0-1-6m46 0a4 4 0 1 0 3-1zm56 1q-3 2-1 4a4 4 0 1 0 1-4m84 0q-5 6 4 8 5 0 5-5c0-5-6-7-9-3m106 0a4 4 0 1 0 8 2 4 4 0 0 0-8-2m-370 2c-4 4 1 10 6 7q5-3 1-7-3-4-7 0m394 0c-3 3 0 8 5 6a4 4 0 1 0-5-6m-415 2-2 2 3 4 5-5-4-3zm184-1a4 4 0 1 0 4 8 4 4 0 0 0-4-8m52 2c-7 4-3 13 6 13 3 0 9-5 9-7l-4-7q-5-2-11 1m95 0v5c3 5 9 4 9-2q-1-8-9-3m-20 1q-3 2-1 6a4 4 0 1 0 1-6m-441 2q-11 6-2 12c10 6 23-4 15-12-2-3-9-2-13 0m113 0c-4 5-1 13 6 14q3 1 1 4c-1 7 7 10 10 4q3-6-5-7-3 0 0-1c8-5 4-15-6-16q-5-1-6 2m462-1c-4 4 2 10 6 7q4-3 0-6-3-3-6-1m-642 2c-5 5 1 12 7 9 4-3 1-11-3-11zm559 0c-3 2-3 8 1 10q6-1 6-7-2-5-7-3m-392 2a3 3 0 1 0 5 6 3 3 0 0 0-5-6M17 69c-5 2-5 9-1 12q10 3 9-10-2-3-8-2m203 0q-4 2-1 7a5 5 0 1 0 1-7m297 1q-4 1 0 6 3 4 6 1c6-5 0-12-6-7M76 71q-4 4 0 7h4c4-5 0-10-4-7m501 0v7q4 3 7-2c2-3-3-8-7-5m151 1a6 6 0 1 0 7 0q-3-4-7 0M47 74a4 4 0 1 0 5 0q-2-3-5 0m327-1q-2 5 3 6 6-2 2-6zm225 0a4 4 0 1 0 7 2c-1-3-6-4-7-2m109 0v7q3 3 6-1c4-4-2-9-6-6m-255 1c-4 2-2 10 3 10q4-1 4-7-1-6-7-3m-250 1q-2 4 3 6 7-1 3-5-4-3-6-1m188 1q-3 2 0 6 2 4 6 0c5-5-1-11-6-6m42-1a4 4 0 1 0 5 5l-3-6zm-303 1q-3 6 4 8a4 4 0 1 0-4-8m188 0a4 4 0 1 0 7 5 4 4 0 0 0-7-5m366 0q-2 6 4 6 3 0 3-4 1-4-3-3zm-74 1q-3 5 2 8c5 4 10-4 5-8zm146 0q-2 2-1 6c1 4 8 1 8-3q-1-5-7-3m-255 1c-2 1-1 6 2 7 4 2 7-3 4-7zm-148 1c-3 4 1 10 5 9q4-2 4-8c-1-2-7-3-9-1m278 0q-3 4 0 6 3 4 6-1c3-4-3-8-6-5m24 1q-2 6 3 7 6-1 4-7c-1-3-6-3-7 0M61 81a6 6 0 1 0 10 1c-1-2-8-3-10-1m128 0q-5 2-1 6a4 4 0 1 0 1-6m44 3a3 3 0 1 0 3 5q4-5-3-5m462 1c-4 2-2 8 3 8q7-1 4-7-3-5-7-1m-594 1q-1 5 4 5 4-1 3-4-3-5-7-1m181 0a4 4 0 1 0 7-1c-2-2-7-1-7 1m136 0q-9 6 1 13 4 4 9-1 6-6 0-11-4-4-10-1m111 0q-4 6 2 7a4 4 0 1 0-2-7m-73 1a5 5 0 1 0 8 6c2-5-4-9-8-6m55 1c-5 3-1 10 5 9a5 5 0 1 0-5-9m77 0q-1 3 4 5 5-1 3-6-4-3-7 1m151 0c-2 5 3 9 7 6q2-3-1-6-3-4-6 0M41 88c-3 3 0 10 4 10s7-7 4-10zm74 1a6 6 0 1 0 6 0q-3-3-6 0m363 0c-4 4-1 10 4 9q6-2 3-8-3-5-7-1m191-1q-4 4-1 9 5 4 9-2c3-5-4-10-8-7M84 89a4 4 0 0 0 5 6c1-1 2-6 0-6zm128 1c-2 1-1 6 2 7q5 0 5-5c0-3-5-4-7-2m52 0a5 5 0 1 0 8 0zm135 1q-4 6 2 8c5 1 9-7 4-9q-4-2-6 1m244 0q-6 6 2 12c7 3 12-6 6-11q-4-5-8-1m-78 1v4c1 5 8 4 8-1q-2-8-8-3M28 94a4 4 0 1 0 6 3 4 4 0 0 0-6-3m147 0c-7 5-5 13 5 14q10 1 10-8c0-7-9-11-15-6m538-1q-2 5 4 6 3 0 3-3c0-4-5-6-7-3m-514 2q-2 2 1 6 6 2 7-3-2-6-8-3m172 1q-3 1-1 4c1 2 7 3 7 1a5 5 0 0 0-6-5m174-1c-2 1-3 7-1 9a5 5 0 1 0 1-9m-218 1a5 5 0 0 0 6 8 5 5 0 1 0-6-8m167 2a4 4 0 1 0 6 0q-3-4-6 0m104 0c-3 2-1 9 3 9 3 0 6-8 4-10q-3-2-7 1m-376 1q-5 4-3 8a6 6 0 1 0 2-8m-129 1a5 5 0 1 0 4 10 5 5 0 0 0-4-10m198 3q-2 6 4 4c2-1 3-6 0-6q-3-2-4 2m329-2q-1 4 3 6 7 0 4-6zm102 2c-8 8 4 19 13 11 3-3 3-10 0-12q-7-4-13 1m33-1q-4 4 2 6 4 0 4-5-1-3-6-1m-695 0q-2 3 1 5c3 4 8 1 6-4q-3-4-7-1m88 0c-2 2-1 8 1 9q10 0 7-8-3-4-8-1m426 2v6q5 2 6-3 0-5-6-3m-562 2c-3 3 0 10 4 10q4-1 6-6c0-4-7-8-10-4m263 2q-4 3 0 6 7 1 5-6-1-4-5 0m404 0q-1 4 3 5 4-1 3-6c0-2-6-1-6 1m-425 1q-4 4 1 9 6 1 8-5c0-5-6-8-9-4m244-1a6 6 0 1 0 10 5c0-5-7-8-10-5m24 1a4 4 0 1 0 6 4 4 4 0 0 0-6-4m33-1q-6 4-2 9c5 3 11-2 7-7q-3-4-5-2m-345 2q-3 3 0 5 5 2 6-4-1-5-6-1m157 1a5 5 0 1 0 9 6 5 5 0 0 0-9-6m95 1q-3 6 2 7 6 0 7-4c0-5-6-7-9-3m146-1c-5 3-3 11 2 11 4 0 6-6 4-10q-2-2-6-1m23 0q-2 5 1 8a5 5 0 1 0-1-8m-586 1q-2 3 0 6a4 4 0 1 0 0-6m542 2q-4 4 0 8c6 5 12-3 7-8q-3-4-7 0m-190 1q-4 3 0 7 8 7 9-3-1-8-9-4m339-1a4 4 0 1 0 7 4c0-4-5-7-7-4m-678 3q-3 2 0 5a4 4 0 1 0 0-5m285-1q-2 5 1 6 3 3 4 0c4-4-1-10-5-6m81 1c-3 3-1 10 4 10q4-1 5-6c0-5-6-7-9-4m106 2q-5 7 4 8 8-2 3-8-4-4-7 0m227-1q-3 2 0 7 1 4 6 0 4-2 1-5-2-5-7-2m-376 3-2 2 2 2a3 3 0 1 0 0-4m183 0a5 5 0 1 0 6 0q-2-3-6 0m-344 1a5 5 0 1 0 6 7 5 5 0 0 0-6-7m64 0q-2 5 4 6 5 0 4-6-3-4-8 0m-161 1q-4 4 0 7 8 5 9-3c0-5-7-8-9-4m555 0q-4 5 1 8 6 4 7-3c1-6-5-9-8-5m40-1a4 4 0 1 0 5 7 4 4 0 0 0-5-7m-682 4q-3 6 5 8 5 0 5-6c0-5-7-7-10-2m666-2a4 4 0 1 0 6 6 4 4 0 0 0-6-6m-213 2q-4 4 1 8 6 3 7-4-2-9-8-4m24 0c-4 4-1 10 5 10 7 0 9-6 5-10q-6-4-10 0m-321 2a4 4 0 1 0 6 6l1-3q-1-7-7-3m74-1a4 4 0 1 0 6 4 4 4 0 0 0-6-4m352 0a4 4 0 1 0 7 6 4 4 0 0 0-7-6m-20 2c-5 3-2 9 5 8q6-2 6-5-2-7-11-3m40 0q-4 4 0 7a5 5 0 1 0 0-7M4 130q-5 3-1 7c4 4 10-3 6-7q-2-3-5 0m241 0q-4 5 3 6l4-2c3-4-4-8-7-4m491-1c-3 2-1 10 3 10s7-7 4-10zm-636 1c-4 3-1 9 4 9l5-2c3-5-4-10-9-7m346 1q-5 7 4 8 6-2 3-8-4-4-7 0m102 0q-3 5 1 6a4 4 0 1 0-1-6m-315 0q-3 4 1 6 5 2 5-3l-3-4zm96 1c-5 3 0 13 6 10q7-6-1-11c-3-1-2-1-5 1m28-1q-11 8 1 15c4 2 12-3 12-8q-1-10-13-7m-220 3q-4 4 0 7a5 5 0 1 0 0-7m157 2c-6 5 0 13 6 8q3-3 1-8zm280 1q-3 5 2 8 8 3 8-4c0-6-7-9-10-4m137-1c-4 3-3 11 2 11q5-1 6-6c0-3-7-7-8-5m-437 2q-4 2 0 7a5 5 0 1 0 0-7m-197 1q-4 5 1 9 7 3 9-5c0-6-6-8-10-4m589 1q-1 11 8 9 4-4 1-10-6-2-9 1m22-1q-2 6 4 8 4 0 4-5a4 4 0 0 0-8-3m-194 3q-2 8 6 6a4 4 0 1 0-6-6m-35 0c-2 3 0 9 3 9q4-1 5-5-2-6-8-4m95 1c-5 5 0 11 6 8 3-1 3-7 0-9q-2-2-6 1m-451 1-4 4c-4 7 7 12 13 6 5-5-2-13-9-10m523 0-1 4a4 4 0 1 0 1-4m20 2c-4 5 2 12 7 8q6-4 3-9-5-5-10 1m-484-1v7c5 3 11-2 8-6q-3-3-8-1m569 1q-1 6 5 5a4 4 0 1 0-5-5m-707 1a5 5 0 1 0 6 7 5 5 0 0 0-6-7m26-1q-7 5-2 13l4 6c1 6 9 4 9-2l1-5c6-7-5-16-12-12m162 2q-1 5 3 8c3 0 7-5 6-7-1-3-7-4-9-1m22 2q0 7 5 3a3 3 0 1 0-5-3M7 150q-2 4 1 7a4 4 0 1 0-1-7m317 1q-5 6 3 8 8 0 4-7-3-5-7-1m212-1a5 5 0 1 0 9 4q0-5-5-5zm-153 3v5a5 5 0 1 0 0-5m54-1a4 4 0 1 0 6 6 4 4 0 0 0-6-6m329-1c-3 2-3 8 0 9q4 4 3-5 0-7-3-4m-351 3q-4 4 1 7c4 3 8-4 4-7q-3-3-5 0m92-1-1 4a4 4 0 1 0 1-4m170 1a4 4 0 1 0 6 5 4 4 0 0 0-6-5m-197 1c-4 2-2 9 3 9 4 0 6-6 2-8q-3-3-5-1m-116 1q-3 4 1 6a4 4 0 1 0-1-6m-330 2v4c1 5 8 3 8-1 0-3-7-5-8-3m684 2q-5 8 4 8 6-2 3-8-3-5-7 0m-275 2q-5 6 3 8 8-2 3-8-3-3-6 0m302 0c-3 3 0 8 4 7l1 2a5 5 0 1 0 5-5l-4-2q-3-6-6-2m-520 1q-2 6 4 6 3-2 2-6c-1-2-6-3-6 0m36-1q-3 5 2 6 6-2 3-5-2-3-5-1m-14 1c-3 2-2 8 1 9q6 1 6-5-1-6-7-4m376 0c-3 1-3 6 1 7q5 0 6-4-2-4-7-3m-158 1v6q3 3 5-1 2-7-5-5m-367 2q-4 3 0 6a5 5 0 1 0 0-6m564 0q-5 5 1 8 5 1 5-5-1-6-6-3M9 168q-4 4 0 6c5 2 8-3 4-6q-2-3-4 0m12-1q-4 7 6 9 5-3 2-9zm132 1q-3 2 2 5t6-4c0-3-6-4-8-1m33 2q-3 3 1 7a5 5 0 1 0-1-7m104-1a5 5 0 1 0 8 6 5 5 0 0 0-8-6m95-1a5 5 0 1 0 6 7 5 5 0 0 0-6-7m298 1q-2 6 2 8a5 5 0 1 0-2-8m-140 1q-5 8 3 9 6-1 7-6c0-4-7-6-10-3m-214 1a3 3 0 1 0 6 3 3 3 0 0 0-6-3m172-1c-7 4-4 12 5 12q8-1 7-6-4-10-12-6m-366 2c-4 4 0 11 5 8 3-2 2-9-1-10zm-68 1v5a5 5 0 1 0 0-5m337 0q-3 5 3 8a5 5 0 1 0-3-8m26 1q-2 2 1 4a4 4 0 1 0-1-4m44-1q-3 5 2 8 4 0 6-4-2-8-8-4m253 2c-1 2 0 7 3 7q5-1 6-5c0-5-6-7-9-2m-376-1a4 4 0 1 0 4 1q-1-3-4-1m17 0c-3 1 0 8 4 7a4 4 0 1 0-4-7m-102 2a5 5 0 1 0 5 0zm-50 2c-4 4 0 9 6 7l2-4q-2-8-8-3m353 0c-3 2-2 7 2 7q5-1 2-7zm-35 2q-2 6 5 6a4 4 0 1 0-5-6m68-1c-2 2-3 8 0 9q5 1 6-5-2-5-6-4m59 0v5a4 4 0 1 0 0-5m-518 2c-8 4-2 17 7 14q10-4 3-12-4-5-10-2m309 1q-4 4 0 7 3 4 6 0c5-5 0-12-6-7m188 1a5 5 0 1 0 8 5 5 5 0 0 0-8-5m-600 0q0 6 4 5a3 3 0 1 0-4-5m300 0q-3 3 0 5a4 4 0 1 0 0-5m173 0a3 3 0 1 0 5 3 3 3 0 0 0-5-3m-191 0c-4 2-1 10 3 10q3-1 5-6-2-6-8-4m301 0a4 4 0 1 0 6 5 4 4 0 0 0-6-5m-267 3q-2 4 1 7 6 5 8-3c0-5-6-8-9-4m222 1q-4 2-2 6a8 8 0 1 0 12-7l-3-1q-3-2-7 2M1 190q0 6 4 2 4-3 0-5-5-5-4 3m418-4q-9 3-5 10c4 6 14 2 14-5q0-7-9-5m-403 2c-3 2-1 9 2 9q4-1 6-5c0-4-6-7-8-4m78-1a3 3 0 1 0 6 4 3 3 0 0 0-6-4m200 1q-3 3 0 6a5 5 0 1 0 0-6m193-1a4 4 0 1 0 7 1c-1-2-6-3-7-1m-48 1c-2 1-1 6 1 6q4 1 5-3-1-5-6-3m265 1q-8 9 1 13 14 6 11-11c-1-4-8-5-12-2m-302 2q-3 3 0 6 3 4 8 0c4-4-4-11-8-6m148 0a4 4 0 1 0 6 3 4 4 0 0 0-6-3m-479 3q-3 2 0 4c3 4 8 1 5-3q-2-6-5-1m398 0a5 5 0 1 0 7 3q-1-8-7-3m-336 0-1 4c1 5 6 5 7 0q-1-6-6-4m541 0c-2 1-3 7-1 9a5 5 0 1 0 1-9m-435 1c-9 3-5 15 5 15 8 0 11-9 6-14-2-1-9-2-11-1m499 1q-3 2 0 7a5 5 0 1 0 0-7m-215 1a4 4 0 1 0 7 3 4 4 0 0 0-7-3m75 0a6 6 0 1 0 8 9 6 6 0 0 0-8-9m-517 2c-3 2-1 8 3 8q5-1 6-6c0-3-7-5-9-2m115 0q-2 3 1 6c4 4 10 1 8-5-1-4-7-4-9-1m-28 0-1 4c0 6 8 8 11 3s-6-11-10-7m329 1q-2 5 1 6c4 4 11-1 8-6q-4-4-9 0m-470 1c-2 3 1 9 5 9q5-1 6-7c0-3-8-5-11-2m625 0c-4 2-2 7 3 7a4 4 0 1 0-3-7m-540 0q-2 6 4 7c7 0 7-7 0-8zm647 0q-2 4 2 7a4 4 0 1 0-2-7m-712 1q-2 3 1 7h4q3-6-2-8zm170 1q-4 3 0 6c4 4 9 0 7-5q-3-5-7-1m227-1a4 4 0 1 0 5 1q-3-3-5-1m92 1a5 5 0 1 0 8 4q-2-9-8-4M9 205q-3 2 0 6c2 3 9 1 9-3q-1-3-6-5zm314 0q-2 6 4 8c3 0 6-5 5-7-1-4-8-4-9-1m-221 0q-4 5 0 8 8 2 6-7-2-3-6-1m198 2q-1 8 5 5 4-3 0-7-2-2-5 2m83-1v4a4 4 0 1 0 0-4m-194 1a4 4 0 1 0 4 6 4 4 0 0 0-4-6m289 1c-4 3 0 9 4 6q3-3-1-7-2-2-3 1m244-1a4 4 0 1 0 3-1zm-663 3q-2 5 4 6 4 0 4-3c0-6-6-8-8-3m346-1a3 3 0 1 0 5 0q-4-4-5 0m22-1q-3 8 5 6 4-2 0-5-3-3-5-1m264 0c-4 2-2 10 3 10 4 0 7-7 3-10zm-111 2q-4 2 0 6a5 5 0 1 0 0-6m-220 0a4 4 0 1 0 7 5 4 4 0 0 0-7-5m261 1q-3 7 2 10t8-5c0-6-7-10-10-5m-493 1q-2 5 3 6c4 0 6-5 2-7q-4-2-5 1m133-1q-4 9 4 11 8-2 4-9-4-5-8-2m195 1q-4 2-1 5a5 5 0 1 0 1-5m-419 2q-4 4 0 9a5 5 0 1 0 0-9m712 0c-4 3-1 10 4 7q3-2 0-7-1-3-4 0m-672 1c-4 3 1 8 5 5q4-2 1-6-3-2-6 1m164-1c-3 2-4 8 0 10 4 3 10-6 5-10zm269 2q-3 4 1 6 6 1 5-3-2-6-6-3m23 0q-3 5 2 8l5 4q7 5 8-3 0-3-3-4l-5-4q-5-3-7-1m-435 1a5 5 0 1 0 8 6q1-9-8-6m124 1v4q5 4 6 0 0-7-6-4m421 1q-3 3 0 6 6 6 8-4-3-8-8-2m-172 2q-9 9 3 14a8 8 0 1 0-3-14m24 0a3 3 0 1 0 6 4 3 3 0 0 0-6-4m66 1q0 3 3 5 4 2 6-2c1-4-7-7-9-3m170 0q-4 4 0 7a5 5 0 1 0 0-7m-593 1q-1 5 3 5 5-2 3-5-4-4-6 0m152-1a5 5 0 1 0 7 7 5 5 0 0 0-7-7m64 2a5 5 0 1 0 5-1c-3-1-2-1-5 1m81 0q-3 2-1 5 4 2 7-1 1-7-6-4M2 225q-5 5 1 8c4 5 10 3 10-3q-2-10-11-5m22 0v4a4 4 0 1 0 0-4m155-1q-4 9 4 10c4 0 7-6 5-10zm236 1q-2 7 4 8 5-1 6-5c0-5-8-7-10-3m272-1q-2 6 3 7l4-4c0-3-5-5-7-3m-56 2c-6 6 2 14 9 9 4-3 2-12-3-10h-1q-1-2-5 1m-115 2q-4 4 0 8 8 4 9-4c0-6-6-8-9-4m243-1v6q4 3 6-1 3-7-6-5m-639 4q-4 6 3 8a5 5 0 1 0-3-8m31-1q-3 3-1 8a5 5 0 1 0 1-8m117 1a4 4 0 1 0 6 4 4 4 0 0 0-6-4m-199 0q-1 5 3 6 5-1 4-5c0-2-6-3-7-1m142 0q-4 4 0 7 5 0 6-4-1-6-6-3m-123 3q-4 3 0 6 7 4 8-3-2-8-8-3m582-1v7a5 5 0 1 0 1-7m-319 4q-3 2-1 5a6 6 0 1 0 0-5m245-2c-5 3 1 12 7 9 3-1 3-8 0-9zm-404 3q0 4 4 4 3 0 3-4 1-4-3-3-5-1-4 3m297 0q-3 6 5 7 7-1 2-8-3-5-7 1m225-1q-4 5 2 8 4 0 6-4-2-9-8-4m-483 1c-5 3 0 11 5 8q5-4 1-8-3-3-6 0m92 0q-4 5 0 6 8 4 8-3-2-8-8-3m213-1q-2 2 1 5 5 3 5-2-2-6-6-3m-517 3q-3 4 2 5a3 3 0 1 0-2-5m21 1q-3 2-1 5c3 6 12 5 13-2 1-6-7-8-12-3m96-2a4 4 0 1 0 4 0zm439 0q-1 4 3 6a4 4 0 1 0-3-6m-134 2q-2 5 3 7c4 1 6-4 3-7q-4-4-6 0m115 0q-4 8 3 9 5-1 6-6c0-5-7-7-9-3m-49 0a4 4 0 1 0 6 5 4 4 0 0 0-6-5m190 1q-3 2 0 6a5 5 0 1 0 0-6m-528 0a4 4 0 1 0 6 1c-1-2-6-3-6-1m210 1c-8 4-6 14 3 13a8 8 0 1 0-3-13m26-1-1 3q-1 4 4 3 4 1 3-3-2-5-6-3m64 1a4 4 0 1 0 4 0zm182 1c-4 2-3 10 2 10s7-6 3-9q-1-3-5-1m-352 1v6q3 4 7 0 5-6-3-7zm456 1c-4 4 2 11 6 7q2-4-1-8-2-2-5 1m-702 3q-2 2 1 4a5 5 0 1 0-1-4m71-2v8q4 3 6-1c3-5-2-11-6-7m81 1q-4 6 3 8 6-1 4-7-3-5-7-1m160 0q-2 3 1 6c3 3 7-2 4-6zm364 1q-3 7 3 7l4-2q2-2-1-5-3-5-6 0m-624 1q-4 5 2 8a5 5 0 1 0-2-8m43 1c-3 2-3 8 0 9a5 5 0 1 0 0-9m32 1q-2 9 6 8c2-1 3-7 1-9q-4-3-7 1m-115 2q-2 3 1 5a5 5 0 1 0-1-5m480 0q-2 4 1 8c3 4 9 2 9-4 0-5-7-8-10-4m-526 0v6a4 4 0 1 0 0-6m251 0c-4 4 1 11 6 9 4-2 4-8 1-9zM3 255a5 5 0 1 0 4 9 5 5 0 0 0-4-9m506 1q-4 3 0 7 2 2 5-1c4-4 0-10-5-6m-194 1a4 4 0 1 0 5 5 4 4 0 0 0-5-5m136 0q-3 5 2 6a3 3 0 1 0-2-6m195 1q-3 3 0 5c3 4 7 0 5-4q-2-5-5-1m-237 1q-4 3 0 7 7 5 8-4-2-8-8-3m219 0q-4 3 0 6 3 3 5 0c4-4-1-11-5-6m85-1q-3 3-1 7a5 5 0 1 0 1-7m32 1q-5 8 4 9 4 0 4-4-2-10-8-5m-51 1a4 4 0 1 0 4 0q-2-3-4 0m-661 0q-4 3-1 8 4 3 7 1c5-4-1-13-6-9m58 0c-4 1-2 8 2 8q3-1 3-6-1-3-5-2m29 1c-6 1-8 8-4 11q5 4 9 3c11-5 6-17-5-14m306 0a4 4 0 1 0 4 6 4 4 0 0 0-4-6m-289 1q-4 5 0 8 10 2 5-7-3-3-5-1m76 2q-2 3 1 7 2 4 6 0 5-6-3-8zm154 0c-2 1-1 6 2 7q5 3 6-4-1-6-8-3m144 2c-4 3-2 10 3 10 6 0 7-6 2-10q-3-3-5 0m-187 1-1 4a4 4 0 1 0 1-4m-262 2a5 5 0 1 0 9 6 5 5 0 0 0-9-6m523 0a5 5 0 1 0 6-1q-2-2-6 1m95 0q-5 6 3 8l4-1 1-4q-2-8-8-3m-134 0-2 4q2 9 9 4c3-4-1-10-7-8m109 0q-9 6-1 13c5 4 13 0 13-7 0-6-7-9-12-6m-635 2q-1 4 5 5c4 0 4-6-1-7q-3 0-4 2m28 0q-3 3-1 5c4 3 8-3 5-6q-2-2-4 1m186 0q-4 3 0 7c3 3 10 1 10-3 0-5-7-8-10-4m489 0q-4 3 0 8 7 4 8-5-2-8-8-3m-640 1q-4 3 0 7 8 4 8-5-2-6-8-2m68-1c-6 2-6 12 0 13 6 2 12-6 9-10l-6-4zm100 0c-2 3 2 8 5 6q4-4-1-7zm57 1q-5 4 1 7c5 3 9-4 4-7q-2-3-5 0m129 1 1 3q5 2 6-3c-1-4-6-4-7 0m19-1q-3 2-1 5 2 5 6 0c4-5-2-9-5-5m74 0-1 4q1 7 7 2 3-7-6-6m228 1a3 3 0 1 0 6 3q-1-8-6-3m-656 0q-2 4 1 5a4 4 0 1 0-1-5m533 1q-4 4 0 8c6 5 12-3 7-8q-3-4-7 0m-219 0c-3 2-1 9 2 9l5-5q-1-6-7-4m73 3q-3 4 2 7 4 1 6-3c3-5-5-9-8-4m-199 0c-3 2-1 8 2 8q7-2 3-7-2-3-5-1m46 1c-5 5-1 11 4 8q6-4 2-8-3-4-6 0m-160 1q-4 3 0 7t9 0c5-6-4-12-9-7m201 1q-2 4 1 5 5 1 6-3c0-4-5-5-7-2m310-1v8a6 6 0 1 0 0-8m53 1q-9 4-3 11c5 5 14 2 14-5q-1-11-11-6m-119 0c-2 2 0 7 2 7 3 0 5-6 2-7zm-354 3a5 5 0 1 0 8 0q-5-4-8 0m-229 1c-2 1-1 6 2 7q7-1 3-6-2-3-5-1m387 0c-5 3-1 13 6 13 4 0 10-4 10-7 0-5-11-9-16-6m-218 1c-9 5-7 15 3 15 8 0 12-7 6-13q-4-5-9-2m304 0q-2 5 1 8c4 3 9-2 7-7q-3-4-8-1m-443 2a5 5 0 1 0 7 6 5 5 0 0 0-7-6m-47 0v8a5 5 0 0 0 8-8zm30 0c-6 2-4 12 3 12q6-1 8-7c0-4-7-7-11-5m481 0q-3 8 4 9 5-2 4-8-3-3-8-1m71 1q-4 6 2 8 5 1 6-5-1-8-8-3m68-1q-4 5 0 8a5 5 0 1 0 0-8m48 0c-2 1-1 6 1 6a4 4 0 1 0-1-6m-601 1c-2 1-1 6 0 7q7 3 7-5-3-5-7-2m128 0a3 3 0 1 0 4 0zm455 3v5q4 5 8 1c4-5-3-11-8-6m60 0q-5 6 1 8c4 2 8-3 6-7q-2-6-7-1m-623 0v5a4 4 0 1 0 0-5m145 1q-1 5 2 6 7 2 6-6c-1-3-7-3-8 0m32 1q-1 4 4 5 3 0 3-4 1-4-3-3zm74-1a4 4 0 1 0 4 8 4 4 0 0 0-4-8m-290 1q-2 3 1 7 7 2 5-6-2-3-6-1m128 0v7q6 3 8-3c0-4-6-7-8-4m121 0q-2 5 1 9 5 4 8-1c3-5-5-12-9-8m151 0q-3 5 2 8a4 4 0 1 0-2-8m157 0v7a4 4 0 1 0 0-7m-357 1c-2 2-1 8 1 9a5 5 0 1 0-1-9M4 296a4 4 0 1 0 2-1zm166 1c-1 3 4 7 7 4l1-4c-1-3-7-3-8 0m239 0q-1 5 3 5 5-2 3-5-4-4-6 0m74-1c-1 5 2 10 6 7a5 5 0 1 0-6-7m156 0q0 8 6 6 3-2 1-5-4-3-7-1m-169 2a4 4 0 1 0 6 3q-1-7-6-3m-50 1q-4 4 0 7 3 4 6 0c4-5-2-12-6-7m144-1c-2 3 0 9 4 9q3-1 5-6c0-3-6-5-9-3m57 3q-4 3 0 7 3 3 6 1 6-4 0-9-3-5-6 1m-88 0a5 5 0 1 0 8 7 5 5 0 0 0-8-7m-18 1a5 5 0 1 0 7 3q0-4-4-5zm-257 2a4 4 0 1 0 9 3 4 4 0 0 0-9-3m113-1q-2 3 1 4 5 4 6-1c0-5-5-7-7-3m215 1c-6 5-2 12 5 10q10-2 6-11-5-5-11 1m98-2a4 4 0 1 0 5 6 4 4 0 0 0-5-6m53 0c-4 2-2 11 3 11q4-1 5-6-2-5-5-6zm-523 1c-2 1-3 7-1 9q4 3 8-1c3-5-2-11-7-8m-61 1c-5 1-2 9 2 9a5 5 0 1 0-2-9m-29 2c-1 3-1 2 1 5a4 4 0 1 0-1-5m595 0q-1 4 3 5t4-5q-3-4-7 0m-639 0q-9 3-2 10c3 2 2 2 6 0 6-3 2-12-4-10m-21 2a4 4 0 1 0 4-1q-3-2-4 1m439-1c-9 2-10 12-2 14 3 0 9-2 9-5q1-11-7-9m170 1v4q6 7 8-2-3-7-8-2m-427 0c-2 1-1 6 1 6a4 4 0 1 0-1-6m202 1q-5 5 1 8t7-4q-1-9-8-4m203 1c-5 3-2 9 4 9 5 0 7-6 3-10q-4-5-7 1m-368 1q-1 5 3 5l4-2c1-4-5-7-7-3m36 1q-2 6 3 8 5 0 5-5c0-5-6-7-8-3M7 313v5a5 5 0 1 0 0-5m187 0q-2 5 2 8 4 0 6-5c0-4-6-5-8-3m154 1v5c3 5 10 0 7-5q-3-4-7 0m59-1q-2 5 3 6c4-1 4-6 0-7zm289 1q-4 6 3 8 4 1 5-2c3-6-4-11-8-6m-225 2a5 5 0 1 0 6 0q-4-4-6 0m-425 0q-4 2 0 7 3 4 6 1c6-4 1-13-6-8m213 0q-2 6 3 8 4-1 5-5a4 4 0 0 0-8-3m-230 2q-1 1 1 4a4 4 0 1 0-1-4m78-1c-2 1-1 6 1 7q5 1 5-5-2-4-6-2m118 0a5 5 0 0 0 6 7c4-4 0-10-6-7m139 2a5 5 0 1 0 6 6 5 5 0 0 0-6-6m249-1q-2 2-1 6c1 3 6 2 7 0q3-9-6-6m70 2q-4 1 0 6 2 2 5-1 3-4-1-6-1-1-4 1m-230 1q-3 1-1 4c2 5 10 4 10-1 0-4-6-6-9-3m115 0q-3 1-1 4 3 6 7 1 2-8-6-5m-403 0q-3 4 2 6 6 1 5-5-3-3-7-1m386 0a6 6 0 1 0 10 4c0-4-7-7-10-4m-315 3a5 5 0 1 0 9 4 5 5 0 0 0-9-4m92-1c-6 4 2 15 8 12 3-1 6-7 5-9-1-5-9-6-13-3m337 0v7q3 2 5-1c4-3 0-8-5-6m-584 1q-3 3-1 8c4 6 13-1 10-7q-3-3-9-1m340 1q-2 4 4 5 3 0 3-3c0-4-5-5-7-2m110 1q-3 4 0 6a5 5 0 1 0 0-6m183-1q-2 3 1 6 7 4 5-5-2-3-6-1m-316 3q-2 6 3 7 4 0 4-5-3-7-7-2m-127 1q-3 2 0 6c2 4 8 2 8-3q-1-7-8-3m34-1c-3 3 0 10 4 10q4-1 5-6c0-4-6-7-9-4m184 2q-4 6 4 7 6-2 2-8-3-4-6 1m210 1c-3 3 0 8 4 7l2-4q-1-6-6-3m27 1a5 5 0 1 0 6 0q-3-3-6 0m21-1q-2 5 2 6a3 3 0 1 0-2-6m-645 1q-5 4 1 8a5 5 0 1 0-1-8m-87 2q-4 7 3 8a5 5 0 1 0-3-8m164-1-1 5c0 3 7 1 7-3q-1-2-6-2m426 0q0 5 4 6 3-1 2-5c0-2-6-3-6-1m75 2q0 8 7 6c5-3 3-9-3-9q-3-1-4 3m-301 1q-3 2 0 6a5 5 0 1 0 0-6m-326 1q-2 1 1 3 3 5 5 0c2-4-3-7-6-3m294-1-1 4a5 5 0 1 0 1-4m226 0q-2 5 1 8a5 5 0 1 0-1-8m54 1v7c4 2 9-3 7-7-1-3-6-3-7 0m-591 1q-3 1-1 4a4 4 0 1 0 1-4m212 0c-5 5 1 12 6 8 3-2 3-8 0-9q-3-2-6 1m-115 1q-4 5 2 6c5-1 5-8 1-8zm-60 2a4 4 0 1 0 8 0c0-4-7-5-8 0m465-2c-4 6 1 12 7 8q5-3 0-7-4-3-7-1m-110 3q-3 3 0 6 4 5 7 0c5-7-2-12-7-6m334-2c-4 1 0 8 4 8q4 1 3-4-1-7-7-4m-672 2q-2 3 1 4 6 4 6-3-3-6-7-1m128 0a4 4 0 1 0 4 6 4 4 0 0 0-4-6m-68 2q-2 3 1 5 7 3 5-4-2-3-6-1m304 1q-4 2 0 6 3 3 5 0c4-4-1-9-5-6m183 0q-2 8 5 9 7-1 5-9c-2-3-9-3-10 0m75 0q-3 3-1 4a4 4 0 1 0 1-4m-478 1q-4 3 1 5 6 3 5-4-3-5-6-1m169 1q-4 4 1 8 3 2 5-1c5-6 0-11-6-7m95 0q-5 6 4 7 3 0 3-3-1-9-7-4m165-1a3 3 0 1 0 5 3q0-5-5-3M3 347c-3 2-2 7 2 7q5-1 2-7zm43 0c-6 2-5 10 2 10q5 0 5-5 0-8-7-5m57 1q-1 5 2 7a4 4 0 1 0-2-7m19-1a4 4 0 1 0 5 5 4 4 0 0 0-5-5m43 0q-3 3 1 6a4 4 0 1 0-1-6m102 0-1 4c0 6 8 8 11 3 2-5-6-10-10-7m293 1a4 4 0 0 0 6 3q2-5-2-5zm55 2q-4 6 0 10c5 6 14-4 10-11q-4-5-10 1m-552 1q-3 5 3 6a4 4 0 1 0-3-6m122-1a4 4 0 1 0 6 6 4 4 0 0 0-6-6m299 0c-2 1-1 6 1 6a4 4 0 1 0-1-6m207 2q-4 4 0 8c5 7 14 5 14-4 0-6-10-10-14-4m40-1c-2 5 5 8 7 4v-4q-5-4-7 0m-531 1c-4 2-2 8 2 8 3 0 5-6 3-7q-3-3-5-1m-173 2c-3 5 4 9 7 5q3-3 0-5-3-4-7 0m550-1c-3 2-3 8 0 9a5 5 0 1 0 0-9m-326 2-2 5c0 7 10 9 14 2 3-6-8-12-12-7m135 0a5 5 0 1 0 7 0l-2-1q-2-2-5 1m139-1a5 5 0 1 0 7 7 5 5 0 0 0-7-7m-444 2v7c4 3 10-1 8-6-1-2-7-3-8-1m334 2c-5 4-3 10 5 10 7 0 10-7 4-11q-4-5-9 1m132-1q-9 5-3 11 5 6 12 1c8-5 0-17-9-12m127-1q-2 3 0 8 8 3 8-6-3-4-8-2m-324 2c-3 2-1 9 3 9l5-5q-2-6-8-4m-233 2q-4 3-2 8 4 5 8 0c4-4-1-10-6-8m255 1q-3 2 0 4l2 2 2-2q3-2 1-4-2-3-5 0m-87 0q-3 3-1 8a5 5 0 1 0 1-8m349 0c-3 3 0 9 4 9q5-1 4-6-2-6-8-3m80 0-1 3a4 4 0 1 0 1-3m-702 1c-3 4 2 9 6 6q2-3-1-5-2-3-5-1m202 2q-3 5 4 7 8-1 3-7-4-4-7 0m-118 1q-1 4 2 5 4 1 5-3c0-4-5-6-7-2m-29 0q-2 4 1 6 8 1 3-5-2-3-4-1m104 1q-4 3 0 7 5 3 8-1c4-5-4-11-8-6m557 0q-6 9 5 8 6-3 1-8-3-3-6 0m31 0q-2 5 1 5 5 2 6-4-3-5-7-1m-283 1q-3 5 3 6 6-1 4-7-3-3-7 1m-287 1c-7 5 0 15 8 12q9-3 6-9-5-9-14-3m510-1q-3 4 2 9 6 2 7-5c0-4-6-7-9-4m-659 2q-3 3 0 5 3 5 5-1c4-4-2-8-5-4m111 0q-5 7 3 8c3 0 6-5 4-7q-4-4-7-1m537 1q-4 4 2 6 3 0 3-3 0-5-5-3m-667 1c-3 3 0 8 5 6q4-1 1-5-2-3-6-1m243 1c-1 3 4 7 6 4l1-3c-1-3-6-4-7-1m381-1c-4 3 0 9 4 8 3-2 2-9-2-9zm-127 3a5 5 0 1 0 8 0q-4-4-8 0m-397 2q-6 5-1 9c6 5 17-1 14-7q-6-9-13-2m462-1q-5 8 4 9c4 0 5-6 2-9q-3-4-6 0M1 376c-2 1-1 9 1 9q8 1 6-8-4-3-7-1m101 1q-4 3 0 6c4 4 11-1 8-6q-3-4-8 0m558-1c-3 1-3 7 0 8 6 3 11-4 5-8zm-606 2a6 6 0 1 0 9 6c3-5-3-10-9-6m371-1c-4 2-3 9 1 10 4 2 9-5 5-9q-2-3-6-1m331 2a4 4 0 1 0 5 6 4 4 0 0 0-5-6m-549 0a5 5 0 1 0 7 6 5 5 0 0 0-7-6m512 1a5 5 0 1 0 8 3q-2-8-8-3m-96 3c-3 5 2 9 6 5a4 4 0 1 0-6-5m-346 1q0 4 4 4a3 3 0 1 0-4-4m-38 0c-3 1 0 6 3 6q4-1 3-6zm218 1q-2 6 4 6c5-1 5-7 0-8q-3 0-4 2m145 0v6c4 5 11 1 8-5q-3-5-8-1m77-1c-3 3 0 10 4 9q4-3 3-8-3-3-7-1m-647 1c-3 3 1 10 5 9q5-3 3-8-4-3-8-1m266 1c-2 1 0 6 3 7q4 0 5-6-3-5-8-1m-211 0c-3 0-4 5-1 7a5 5 0 1 0 1-7m314 0c-4 2-2 8 3 8q4 0 4-4 0-7-7-4m302 2c-4 4 2 11 7 7q5-4 1-8-3-4-8 1m-525 0q-3 5 2 6 5-2 3-6-2-3-5 0m-167 1-2 4q1 3-2 1c-4-4-9 2-6 6q4 4 7-1 1-4 4-2 7 3 7-4-2-9-8-4m183-1q-4 3 0 6c4 4 7-1 4-5q-1-3-4-1m64 1c-3 2-2 8 3 8 3 0 5-6 2-9q-2-2-5 1m482 1a4 4 0 1 0 5-1q-3-4-5 1m-520 0q-3 2 0 4 4 6 7 0c2-5-4-8-7-4m261 0q-3 4 0 6a5 5 0 1 0 0-6m-110 0c-3 3 1 9 5 8 5-2 4-9-1-9zm153 1q-2 6 4 8c3 0 6-6 4-9-2-2-8-1-8 1m46-1q-2 5 4 6 4-1 3-5c0-2-5-3-7-1m-221 2q-5 7 4 12c6 3 12-5 7-11q-6-6-11-1m308 0q-2 4 1 7 6 3 7-4-2-8-8-3m-591 1a4 4 0 1 0 4 6 4 4 0 0 0-4-6m87 1-1 6a5 5 0 1 0 1-6m277 1q-9 4-2 12c7 8 17-3 10-11-3-3-3-3-8-1m72 0a4 4 0 1 0 5 7 4 4 0 0 0-5-7m-388 1q-3 3-1 8 6 3 9-2 1-9-8-6m642 1q-1 5 3 6 5-1 3-6-4-4-6 0m-420 0c-2 3 0 8 3 6a4 4 0 1 0-3-6m386 1q-2 1-2 4c1 4 7 4 8 0q-1-7-6-4m-266 1q-2 3 1 7 5 3 6-4-1-6-7-3m-285 3q-3 2 0 6 4 4 8 0c3-6-3-11-8-6m437-1q-5 3-2 7 4 4 6 0c4-4 0-10-4-7m83 0c-3 4 2 9 6 7q3-4-2-7zm-593 1q-2 3 1 6 5 1 5-2-1-7-6-4m150 1q-4 5 1 8c5 3 10-4 5-8q-2-4-6 0m26 0q-3 2 0 4 6 5 5-4-2-4-5 0m17 0q-3 3-1 5 7 3 6-5-1-4-5 0m337-1q-2 4 1 7c4 4 9 1 7-5q-3-5-8-2m-421 1q-3 2-1 6 4 2 6-1 1-6-5-5m179 1a3 3 0 1 0 6 4 3 3 0 0 0-6-4m283 0a3 3 0 1 0 6 4 3 3 0 0 0-6-4m-356 2a4 4 0 1 0 6 1q-3-5-6-1m392 1c-6 5-3 13 5 13a8 8 0 0 0 5-14q-5-4-10 1m-680-1a5 5 0 1 0 7 7 5 5 0 0 0-7-7m204 2q-1 5 4 6 5-1 3-7c-2-2-7-1-7 1m310-1-1 4c0 4 8 5 9 0q-2-7-8-4m38 1q-4 3 0 5a4 4 0 1 0 0-6m162 2q0 6 5 7 6-2 4-8c-2-3-8-3-9 1m-678 0q-4 7 3 8 4 0 4-4-1-9-7-4m-52 3a3 3 0 1 0 3-2q-4 0-3 2m331 1q-4 4 0 6a5 5 0 1 0 0-6m-234 1q-1 4 2 6 5 0 5-5c-1-3-7-4-7-1m357 1c-4 2-4 9 0 11a6 6 0 1 0 0-11m215 1q-4 4 0 7 5 4 9-1c3-6-6-11-9-6m-553 2c-6 7 2 15 11 10q5-3 1-11c-2-3-9-3-12 1m513-1q-1 6 3 5c5-1 5-7 0-7q-3 0-3 2m-546 0q-2 6 2 8 5 0 5-5-3-6-7-3m54 1q-3 2 0 5c2 4 7 2 7-2q0-7-7-3m226-1c-4 1-3 8 2 8q7-1 3-7-2-3-5-1m120 0q-7 4-4 11a8 8 0 1 0 4-11m237 2c-1 2 0 7 2 7 5 0 7-7 3-9q-3-2-5 2m-511-1a4 4 0 1 0 5 6 4 4 0 0 0-5-6m42 1q-3 4-1 8c2 2 9 1 9-1 3-6-4-12-8-7m22 0-2 3 2 2a4 4 0 1 0 0-5m410 1q-3 6 2 9c5 2 9-5 5-9q-4-4-7 0m-491 0-1 5a4 4 0 1 0 1-4m215-1-2 3q1 7 6 3c4-3 1-9-4-6m-175 3q-2 3 1 5a4 4 0 1 0-1-5m155-1a4 4 0 1 0 6 6 4 4 0 0 0-6-6m-321 1q-3 6 4 8 4-1 5-5c0-3-6-5-9-3m87 2q-1 6 4 8c3 2 8-4 5-8-1-3-8-3-9 0m274 0v5c2 5 10 5 11 0 1-6-7-9-11-5m-254 1q-1 5 4 5 4 1 4-5-3-4-8 0m-162 2q-4 5 4 6 3 1 4-3c1-4-5-7-8-3m574 0c-4 2-2 11 3 11a6 6 0 1 0-3-11m154 0-1 4a3 3 0 1 0 1-4m-36 2q-3 3-1 5 6 3 8-2-1-7-7-3m-139 0-1 4q1 5 6 3c5-2 0-9-5-7m-259 2q-2 1-2 5c0 4 6 5 8 0 2-3-3-8-6-5m315-1c-4 3-2 8 2 6q4-1 2-6zm-483 1a4 4 0 1 0 5 0zm-27 1q-3 6 4 7 5-1 3-6-3-3-7-1m331 1c-3 2-2 8 2 9q6 0 7-5c0-5-6-8-9-4m228 0q-3 7 4 8c4 0 7-6 4-9q-5-3-8 1m-625 1v5a4 4 0 1 0 0-5m55-1q-4 5 1 8 6 2 7-3-1-8-8-5m274 1v8c3 3 9 0 9-5 0-4-6-7-9-3m144 1v5c3 3 9 2 9-2 0-6-6-8-9-3m81-1c-8 6 1 16 9 10q5-4-1-9-5-6-8-1m-517 1q-3 1-1 4a4 4 0 1 0 1-4m412-1q-3 5 2 9a5 5 0 1 0-2-9m141 2c-3 6 4 11 9 6v-5q-4-6-9-1m84 0q-5 6 3 8 8-2 3-8-2-3-6 0m-521 1c-3 1 0 8 4 8l4-4q-1-6-8-4m42 0a5 5 0 1 0 7 2q-3-3-7-2m20 0c-6 4-6 11 0 13q13 4 13-6c0-6-8-10-13-7m158 1a5 5 0 1 0 7 6 5 5 0 0 0-7-6m-263 1q-4 4 0 6c4 4 10-1 7-6q-3-4-7 0m385 0c-3 3-3 10 0 11 6 5 14-4 9-11q-4-4-9 0m147-1q-1 5 3 6 5-1 4-5c-1-2-6-3-7-1M2 440q-2 6 3 7c2 0 4-5 3-7zm707 1c-4 2-2 10 3 10 4 0 7-7 3-10q-2-3-6 0m-518 0q-3 1-2 7 4 5 8 1 4-9-6-8m-117 3q-4 5 2 7 11 1 5-8-4-5-7 1m515 0c-3 4 2 8 6 5q2-6-3-8-2 0-3 3m171-1q-4 2 0 6 2 3 4 1c6-4 1-10-4-7m-392 2c-4 3-2 9 3 9q5 0 5-5a5 5 0 0 0-8-4m375 1q-3 4 3 6 5-1 2-6-2-3-5 0m-528 3a9 9 0 1 0 13-1c-3-3-10-2-13 1m129-1q-2 9 4 7a5 5 0 1 0-4-7m-290 1q-3 6 4 7 5-1 4-6-3-6-8-1m68-1q-2 6 4 8 3-1 4-5-2-5-8-3m415 0a6 6 0 1 0 5 0l-2-1zm-71 4c1 5 7 5 7 1q0-4-4-4-4-1-3 3m45-1q-2 3-1 4c3 6 9 4 9-2q-3-7-8-2m-410 1c-2 6 3 9 7 5q3-3 1-4-5-6-8-1m33 0q-2 7 4 8 5-1 6-5c0-5-7-7-10-3m594-1c-4 3 0 12 4 9 2-1 3-7 0-9zm-112 1a4 4 0 1 0 7 4q-1-6-7-4m-580 2q-3 3 0 5a4 4 0 1 0 0-5m49 0q-3 6 4 6c5 0 6-7 0-8q-3 0-4 2m237-1q-4 3 0 8 2 2 4-1c4-3 0-9-4-7m89 0-2 1-1 1q-5 1-2 8 6 8 14 2c6-6-1-14-9-12m219 1q-2 3 1 6a5 5 0 1 0-1-6m58 1c-1 6 5 10 9 5q4-4 0-6-6-5-9 1m-390-1c-2 3 0 10 4 10q4-1 5-5c0-5-6-8-9-5m378 1q-2 7 4 7 7-2 4-6-3-6-8-1M3 455c-3 2-4 11-2 12 7 5 16-6 9-11q-4-3-7-1m154 2a4 4 0 1 0 7 4 4 4 0 0 0-7-4m43-1c-3 4 1 10 5 7 3-2 2-8-2-8zm41 1q-3 5 3 8a4 4 0 1 0-3-8m-189 3c-5 3-1 11 5 8 3-1 3-7 0-9q-2-2-5 1m127 0a5 5 0 1 0 6 0q-2-3-6 0m381-1c-4 2-3 8 2 9q8 0 5-7-2-4-7-2m-491 1-1 5q3 6 8 1c2-5-4-10-7-6m407 1q-3 4 1 8 6 2 7-4-2-7-8-4m232 2a3 3 0 1 0 5 3 3 3 0 0 0-5-3m-357 1q-3 2-1 4 2 6 6 1c4-4-1-8-5-5m-235 1q-4 4 2 7 5 1 6-5c0-3-6-5-8-2m141 1q-2 6 4 7 4 0 5-3c2-5-5-10-9-4m242-1a4 4 0 1 0 7 3 4 4 0 0 0-7-3m82-1c-2 2-1 7 1 7q8 1 6-6-3-3-7-1m-559 1c-5 4 0 11 5 9q5-4 0-7-3-4-5-2m516 0-1 4c0 3 6 3 7 0q0-6-6-4m153 1q-4 5 1 8 5 1 7-4-2-10-8-4m-359 0q-4 4 0 9t8 0c5-6-1-12-8-9m187 0q-4 2-3 7a6 6 0 1 0 3-7m-308 3q-3 5 2 8 7 2 6-7-4-5-8-1m-61 3a5 5 0 1 0 8 4 5 5 0 0 0-8-4m496-1c-2 1-3 7-1 9 3 3 9 0 9-5q-1-8-8-4m-547 0c-2 2-1 8 1 9q7 1 7-4-2-8-8-5m134 2q-2 4 3 6 7-2 4-8-5-3-7 2m58-1a5 5 0 1 0 4-1q-2-2-4 1m148 0q-3 2 0 6 2 4 6 0 4-3 0-6-3-4-6 0m282 0c-1 2 1 7 3 7a4 4 0 1 0-3-7m15 0v4q4 5 6 1c4-5-3-10-6-5m-702 0c-3 1-3 6 0 7a4 4 0 1 0 0-7m52 0q-5 2-2 7c1 1 7 2 7 0l1-2q-1-6-6-5m-18 3c-4 5 4 10 8 6q3-3 0-7-4-5-8 1m70-2a4 4 0 1 0 5 6 4 4 0 0 0-5-6m51 2q-1 6 3 7 4-1 5-5c0-5-7-7-8-2m270-2q-2 6 3 7 4-1 3-6-2-3-6-1m-148 1q-4 4 0 9c6 2 10-5 5-8q-3-3-5-1m-41 2c-2 1-1 6 1 7a4 4 0 1 0-1-7m433 2c-5 5-2 12 5 11q10-3 4-12-5-5-9 1m57-1q-1 5 1 6 4 0 5-4c0-4-5-6-6-2m-593 2q-3 3 0 6 3 4 6 0c3-5-2-10-6-6m397 0q-3 2-1 6 1 4 4 3c7 0 9-7 3-10q-4-2-6 1M3 479q-4 3 0 7 3 3 5 1c5-4 0-12-5-8m668 3q-4 3 0 7a5 5 0 1 0 0-7m-311 1q-5 6 3 8l4-1 1-4q-2-8-8-3m328 1q-1 6 4 7 5-1 4-7-3-6-8 0m-643 2q-3 3 1 8 3 4 7-1 6-3 1-8t-9 1m273-2-1 3-1 4v5l4-2h5q6 3 8-2 2-9-7-6-1 1-4-1-3-3-4-1m190 0a5 5 0 1 0 6 2q-2-4-6-2m107 0c-3 3 0 10 4 9q5-3 3-8-3-3-7-1m-368 1q-3 7 5 6c4-1 3-7-1-7zm389 1c-5 5 2 12 7 7q3-3 1-6-4-5-8-1m-527 2-2 4q2 3 6 5 3-1 5-6c0-5-7-6-9-3m96-1-2 4q1 8 7 3c4-4 0-10-5-7m536 0c-4 2-2 10 3 10a5 5 0 1 0-3-10m-725 2q-3 4-1 6a5 5 0 1 0 1-6m113 0c-5 6 1 13 6 7q6-4 1-7-4-4-7 0m159-1c-2 3 0 9 3 9q3 0 5-4c2-5-4-8-8-5m291 1a4 4 0 1 0 5 1q-3-5-5-1m-400 2c-4 4-1 13 6 13 6 0 11-10 7-14-2-2-11-1-13 1m243-1q-3 5 1 8c3 3 9-4 6-8zm49 1q-2 5 4 6 5-1 4-6c0-3-7-3-8 0m-392 0q-4 7 4 9 6-1 4-8c0-2-6-2-8-1m68 0c-3 4 1 9 5 7q4-2 0-6-2-3-5-1m71 0c-2 1-1 6 1 7a4 4 0 1 0-1-7m-123 2q-3 3 0 5c3 4 8-2 5-6q-2-2-5 1m169 2v5c4 5 10 2 9-6 0-3-6-3-9 1m460-2q-3 10 4 7 3-3 1-7zm-415 2-1 2a3 3 0 1 0 3 1l1-2 1-2q-3-3-4 1m-277 1-2 3 1 2q1 3 6 1 4-4 0-7-4-2-5 1m368 1q-1 5 2 7 5 0 5-5c0-4-5-6-7-2m140 0q-1 5 2 7 7 2 7-7c-1-3-7-3-9 0m71-1c-3 2-3 8 0 9q6 1 8-4 0-8-8-5m-555 3v5c3 4 9 4 9-2q-1-8-9-3m328 1c-5 3-3 9 2 9q5-2 6-5-1-4-5-6zm296 0a5 5 0 1 0 7 0q-3-3-7 0m70-1q-3 5 2 8 6 2 5-6-3-5-7-2m-302 2q-6 3-4 8c1 4 15 4 17 1 6-8-4-14-13-9m112 0q-1 8 5 6a4 4 0 1 0-5-6M2 503c-1 1 0 6 3 7a4 4 0 1 0-3-7m237-1a4 4 0 1 0 7 0zm387 2q-7 8 3 8c7 0 7 0 8-3 1-7-7-11-11-5m37 0q1 5 4 6c2 0 4-5 3-7q-4-5-7 1m33-2a5 5 0 0 0 0 7 5 5 0 0 0 7 0 5 5 0 0 0 0-7 5 5 0 0 0-7 0m-116 2a5 5 0 1 0 6 6 5 5 0 0 0-6-6m154-1a4 4 0 1 0 7 3q-1-4-7-3m-715 3q-4 5 3 6 6 0 5-2-2-8-8-4m177 0q-4 6 3 6 7-1 4-6-4-4-7 0m-127 0q-4 5 4 6 6 1 5-2c0-4-6-7-9-4m151 1q-5 5 4 5l2-2q-1-7-6-3"
        mask="url(#16282281824-posters-1720559875533-horizontal-mask)" itemprop="light" fill-opacity="0.90"
        fill-rule="evenodd" stroke="none" fill="url(#16282281824-posters-1720559875533-vertical-light)"></path>
      <!---->
      <path id="16282281824-posters-1720559875533-regular"
        d="M30 2q-1 4 4 7 7 0 5-7c-1-3-9-3-9 0m145-1c0 4 9 6 10 1q1-2-5-2zm46 1c-2 5 3 10 7 7q4-2 0-7-3-4-7 0m89 0q-1 6 4 6a4 4 0 1 0-4-6m174 0q1 8 7 3 4-5-2-5t-5 2m129-1c-3 3 1 9 5 9q5-2 3-8-3-3-8-1m48 0q-2 4 1 7 6 2 7-5c0-3-6-4-8-2M57 3c-6 1-9 8-4 12q5 2 11-1c6-5 1-12-7-11m372 0c-2 3 1 9 4 9l5-5c0-3-6-6-9-4m-42 3c-4 4 6 17 11 13 4-3-2-14-7-14zm321 0q-2 4 1 6 6 1 5-5-2-3-6-1M453 7a5 5 0 1 0 8 6c3-4-4-9-8-6m267 1q-4 3 0 7c4 5 11-2 7-7q-3-3-7 0m-188 4c-3 3 0 8 4 7 5-2 5-8 0-8zm88 2c-4 4-3 11 2 12 10 5 16-9 5-14q-4-2-7 2m132-1q-1 4 4 7 4-1 5-7c-1-3-7-3-9 0M37 14q-3 2-1 5c2 5 8 5 10 1q2-2-1-5-3-5-8-1m74 0q-1 4 2 7c4 3 8-4 5-8q-4-3-7 1m130 0c-1 7 7 10 9 4a5 5 0 0 0-9-4m53 0q1 5 4 5 4-1 3-6-4-3-7 1M77 15a5 5 0 1 0 6 7 5 5 0 0 0-6-7m203 0q-4 2 0 6a4 4 0 1 0 0-6m277 1a4 4 0 1 0 7 4 4 4 0 0 0-7-4m-414 1c-4 5 1 9 5 5q3-3 0-5-4-4-5 0m596-1a4 4 0 1 0 7 3c0-3-5-5-7-3m-46 2v5q3 3 7 1c4-6-2-11-7-6M20 20q-6 7 2 8 9 0 4-8-2-4-6 0m476 0q-4 4 0 8 7 4 11-3c3-5-5-9-11-5m158 0c-4 2-2 8 3 8q8-1 3-7-3-3-6-1m-305 2c-6 4-2 12 5 12 8 0 11-7 6-12q-6-4-11 0m64-1v7c4 4 11-1 8-6-1-2-7-3-8-1m105 0q-2 5 1 8a5 5 0 1 0-1-8m-322 1q-8 5-2 11c2 3 10 2 12-1 5-6-3-14-10-10m410 0q-6 4 0 7 2 2 4-1 3-8-4-6m-443 2q-4 6 3 7a4 4 0 1 0-3-7m470 4q-3 4 0 6a5 5 0 1 0 0-6m-62 2c-2 1-3 8-1 10h10c7-5-2-15-9-10M77 31a5 5 0 1 0 7 6 5 5 0 0 0-7-6m195 0q-3 4 1 5a4 4 0 1 0-1-5m-16 1q-3 2 0 6a5 5 0 1 0 0-6m410 0c-3 4 2 9 6 7q5-5-2-8zm-553 1c-3 4 1 10 6 9q4-3 3-7-4-5-9-2m638 1q-1 5 2 6c5 0 5-7 1-8q-3-1-3 2m-20 2c-3 3-1 9 3 9a5 5 0 1 0-3-9m-557 1q-2 3 3 5 8 1 3-5-4-4-6 0m264 1v5a5 5 0 1 0 0-5m-225 1q-1 8 6 6l3-3c1-5-7-7-9-3m185-1a5 5 0 1 0 8 5q-2-7-8-5m219 1a3 3 0 1 0 6 1q-2-6-6-1m144 2c-5 4-2 12 5 12q6 1 0 3-5 3 1 7c3 1 3 2 2-12q1-21-8-10m-606 0c-3 2-1 8 3 8s6-7 2-9q-4-2-5 1m162 0q-2 6 3 8a4 4 0 1 0-3-8m395 1-2 4a5 5 0 1 0 2-4M43 43c-3 3 2 9 6 7q4-5-2-8zm24 0a4 4 0 1 0 4 6 4 4 0 0 0-4-6m23 1q-6 7 3 10a6 6 0 1 0-3-10m465 1a5 5 0 1 0 2 9 5 5 0 0 0-2-9m-308 2v5c2 4 9 2 9-2q-1-8-9-3m34 0a4 4 0 1 0 5 6 4 4 0 0 0-5-6m247 2q0 9 8 4 4-5-3-7-5-1-5 3m148-1c-6 6 4 14 10 10a7 7 0 0 0-10-10m-23 3q-2 2 1 4a4 4 0 1 0-1-4m-51 1q-3 2-1 5a5 5 0 1 0 1-5m136-1q-2 8 4 9l5-5c0-5-7-8-9-4m-613 2q-5 4 2 7 8 0 3-7-2-3-5 0m69 0q-4 4 2 7a4 4 0 1 0-2-7m274 0c-2 3 2 8 6 6a5 5 0 1 0-5-7M1 55l-1 6q-1 6 3 5 5-1 6-6c0-3-6-7-8-5m18 1c-7 7 3 16 10 10q5-5 0-10-5-4-10 0m401 0c-2 1-1 6 1 7q8 2 6-6c-1-2-6-3-7-1M59 57q-3 5 2 7c6 2 9-3 5-7q-3-5-7 0m532-1a5 5 0 1 0 6 8 5 5 0 0 0-6-8m-228 2a4 4 0 1 0 4 7 4 4 0 0 0-4-7m20-1q-3 4 1 6 5 2 5-4-2-3-6-2m-57 3q-2 3 1 5a4 4 0 1 0-1-5m163 1c-2 2 0 7 3 7q3-1 2-6-2-3-5-1m53 1q-6 4-4 7c3 8 18 5 17-3q-4-9-13-4m96 0a4 4 0 1 0 5 6 4 4 0 0 0-5-6m-460 3-2 1q-5 2-6 6c0 6 14 8 19 2 4-6-6-15-11-9m111 1q-6 4 0 9 8 7 12 1 7-7-3-11-7-4-9 1m461 0q-2 4 4 5 3 0 3-2c1-4-4-7-7-3m-641 1a5 5 0 1 0 6 7 5 5 0 0 0-6-7m558 0c-2 1-1 7 1 8 4 1 8-5 5-8zM16 71q-4 3 0 8c5 5 12-3 8-8q-3-3-8 0m203-1q-3 6 4 7c3 0 5-5 3-7zm298 1a4 4 0 1 0 7 4 4 4 0 0 0-7-4m211 1q-3 5 2 9 3 2 6-3c2-4-4-9-8-6m-129 2q-2 6 4 5 4-1 1-5-2-5-5 0m-349 0q-3 3 1 6 3 3 7-1c3-4-5-8-8-5m202 2c-1 2 1 7 3 7q3 0 4-4c0-5-5-7-7-3m-321 0q-3 5 3 7 4 1 3-3l-2-4zm260 0a4 4 0 1 0 6 6 4 4 0 0 0-6-6m40 1v4a4 4 0 1 0 0-4m71 1c-3 2-2 7 2 7q5-1 3-5t-5-2m108 0c-3 4 2 9 7 7q4-3 1-6-4-3-8-1m146 0c-2 1-1 6 1 7a4 4 0 1 0-1-7m-402 2a5 5 0 1 0 7 5 5 5 0 0 0-7-5m302-1c-3 3 0 9 4 7 3-2 2-8-1-8zM62 81c-3 3 0 9 4 9 5 0 7-7 3-9zm235 1q-2 9 5 7 5-3 2-7-5-4-7 0m398 3q-3 4 2 7 6 1 5-5-4-5-7-2m-412 1q-2 3 1 6 5 0 5-4-3-5-6-2m135 1q-7 4-1 10 5 6 10 1c8-7-1-17-9-11m111-1a4 4 0 1 0 5 5 4 4 0 0 0-5-5m-73 3c-2 3 2 8 6 6q5-3 0-7-3-4-6 1m55 0q-4 3 1 7c4 3 10-4 6-8q-3-2-7 1m229 0a3 3 0 1 0 5 3 3 3 0 0 0-5-3M41 90a5 5 0 1 0 8 0q-3-4-8 0m74 0a5 5 0 1 0 7 7 5 5 0 0 0-7-7m363-1q-4 7 3 8 4 0 4-3 0-6-4-6zm190 2v5a5 5 0 1 0 0-5m-455-1q-4 4 1 6 7-1 3-5-2-3-4-1m51 1a5 5 0 1 0 8 5q2-8-8-5m135 0c-4 4 2 9 6 5q5-3 0-5zm244 1q-3 3-1 7c4 6 12 4 12-3 0-2-5-6-7-6zm-78 0q-1 4 3 6 4 1 5-3c0-3-6-6-8-3m-390 2c-7 5-4 13 5 14q4 1 7-3c8-7-3-17-12-11m25 2v3a4 4 0 1 0 0-3m127 1c-3 4 3 9 6 5q3-1 1-5t-7 0m217-1c-3 3 0 9 4 9q5-1 5-5c0-4-6-6-9-4m-49 2v6a4 4 0 1 0 0-6m-273 2c-4 3-2 10 3 10a5 5 0 1 0-3-10m-132 1a5 5 0 1 0 8 6c3-4-4-9-8-6m634 0q-4 3-6 8l3 4c4 6 13 3 15-5q0-10-12-7m-576 2q-4 6 3 7c4 0 6-5 3-7q-4-3-6 0m-137 4v4a5 5 0 1 0 0-4m241 3q-2 6 5 8l5-5c0-4-8-7-10-3m245 0q-1 4 3 6a5 5 0 1 0-3-6m-129 1c-3 2-1 8 3 8 3 0 5-6 2-8q-2-3-5 0m94 1q-3 6 4 7c2 0 5-5 3-7zm145 0c-4 2-2 9 2 9q4-1 5-6-1-5-7-3m23 1q-2 6 4 6a4 4 0 1 0-4-6m-43 2a5 5 0 1 0 6 7 5 5 0 0 0-6-7m-191 0a5 5 0 1 0 9 4c0-4-6-7-9-4m-339 2v4q2 3 6 1c3-4-3-8-6-5m367 1a5 5 0 1 0 6 7 5 5 0 0 0-6-7m333 1c-4 2-2 8 3 6q5 0 3-5-2-4-6-1m-228 0a4 4 0 1 0 7 6 4 4 0 0 0-7-6m-245 2c-2 1-1 6 2 7q7 0 4-6-1-4-6-1m278 2a4 4 0 1 0 4-3q-3 0-4 3m-344-1a4 4 0 1 0 7 6 4 4 0 0 0-7-6m-96 1-1 4a5 5 0 1 0 1-4m555 1c-2 4 1 9 6 7q3-2 1-7-3-3-7 0m-640 1c-3 3-1 9 3 9 5 0 6-7 3-9q-4-3-6 0m451 2q-3 3 0 5a4 4 0 1 0 0-5m24-1c-3 3 0 10 5 10s8-6 4-9c-1-2-7-3-9-1m-321 2q-4 5 3 6 3 0 3-3-1-7-6-3m427-1a4 4 0 1 0 5 5 4 4 0 0 0-5-5m-372 3q-3 3 1 5 6 2 4-4-1-4-5-1m351 0q-4 4 0 6c5 3 12-2 10-6-1-3-7-3-10 0m41 0q-4 6 3 7 4 0 5-4c0-4-6-6-8-3m100-1q-5 3-2 8a5 5 0 1 0 2-8M4 130q-3 3-1 7 6 2 7-5-1-5-6-2m97 1q-3 3 0 6c4 4 10-1 7-5q-3-5-7-1m345 1q-3 7 5 6 6-4-1-8-2-2-4 2m102 0a3 3 0 1 0 5 3 3 3 0 0 0-5-3m-220 1c-3 6 4 12 8 7a5 5 0 0 0-8-7m29-1c-8 3-5 14 4 13q5 0 7-3c5-7-2-14-11-10m-219 3q-4 3 0 6 5 4 7-3-1-7-7-3m438 2a5 5 0 1 0 7 0q-3-4-7 0m-282 1q-4 6 3 7 4-1 5-6c0-3-6-4-8-1m416-1c-2 0-1 7 1 8 3 3 9-3 6-7q-4-2-7-1m-631 1q-4 3-2 8c1 3 7 2 9 0q3-9-7-8m195 0q-2 5 2 8 6 1 7-4c0-4-6-7-9-4m393 2q-3 5 2 8c5 3 10-5 5-8q-5-4-7 0m22-1q-3 5 2 7 7-1 3-6-3-3-5-1m-193 2c-3 2-2 7 2 7q3 0 3-3-1-6-5-4m-37 3v4c3 4 8 1 6-4q-2-4-6 0m96 0q-4 6 2 7a4 4 0 1 0-2-7m92 1c-4 6 1 12 6 9q6-5 1-9-4-4-7 0m-546 1c-6 7 4 14 10 8q5-5-1-9-5-2-9 1m62 0q-2 5 2 6a4 4 0 1 0-2-6m-139 1c-2 1-1 6 1 7q5 2 6-4c0-3-5-6-7-3m24 1q-5 4 0 10 3 2 4 6c2 7 8 5 8-1l2-4c5-8-7-18-14-11m165-1v7q4 1 7-2c2-4-3-8-7-5m323 4a5 5 0 1 0 8 6 5 5 0 0 0-8-6m-212 0v7c3 3 9 0 7-5q-3-5-7-2m60 1v7q3 3 8-1c3-4-2-9-8-6m200 1q-2 6 3 7 4 0 5-4c0-5-6-7-8-3m-169 1c-2 0-1 5 1 6 3 2 7-2 4-5q-1-3-5-1m92 1a4 4 0 1 0 6 3 4 4 0 0 0-6-3m-28 2a4 4 0 1 0 6 4 4 4 0 0 0-6-4m-444 1c-3 4 2 8 5 5l3-2-3-2q-3-3-5-1m684 2q-4 3 0 7a4 4 0 1 0 0-7m-276 2a4 4 0 1 0 6 6 4 4 0 0 0-6-6m302 0q-2 5 3 6 4 0 3 2c0 6 8 8 9 3q2-6-5-6-4 0-4-2-1-5-6-3m-499 5q3 8 8 2 1-6-5-6-4-1-3 4m-147-1q-5 6 2 7 4 0 4-3-1-7-6-4m-77 2q-3 4 1 7c5 3 9-3 5-7q-4-4-6 0m639-1q-2 4 1 6 6 0 6-5-3-3-7-1m-370 2a5 5 0 1 0 8 3q-1-4-5-5zm394-1q-4 3 0 8c3 2 8-3 6-6q-1-3-6-2m-499 2a4 4 0 1 0 7 5 4 4 0 0 0-7-5m198 0q-1 4 4 6a4 4 0 1 0-4-6m158 1q-1 6 3 8c4 1 9-5 6-9-2-2-8-1-9 1m-42 0q-3 2-2 6c4 8 15 6 14-2q-3-6-12-4m-365 1c-2 0-1 5 1 7q5 3 6-4-1-6-7-3m-68 2q-2 5 4 6 5 0 4-6-3-5-8 0m338 0c-4 4 1 10 5 5 3-2 1-7-2-7zm70-1a4 4 0 1 0 5 6 4 4 0 0 0-5-6m254 1q-5 8 4 6 4-2 0-6-2-3-4 0m-379 1q-2 4 1 6 5 1 5-5-2-4-6-1m-133 3c-4 2-2 7 2 7q4 0 4-4-1-7-6-3m50-1-3 2q0 9 8 5c5-3 1-9-5-7m269 3q-4 4 2 5 6-1 3-6-2-2-5 1m-393 2c-7 4-2 15 6 12a7 7 0 1 0-6-12m458 0q-2 7 5 4 3-2 1-4c-1-2-6-3-6 0m-149 1q-4 6 3 7c3 0 6-5 4-7q-4-4-7 0m188 1q0 6 6 5c2-1 3-6 0-7q-5-3-6 2m-319 0c-3 3 1 9 5 8q4-3 2-8zm35 4a4 4 0 1 0 9 3 4 4 0 0 0-9-3m223-1q-6 4 0 9 4 3 9-1c6-5-3-13-9-8m-284 1q-4 3 0 7 6 2 7-4-1-8-7-3m121 0q-6 5 0 9 4 5 9-1c8-6-1-14-9-8m71-1a4 4 0 1 0 6 5c2-4-3-8-6-5m-471 2q-3 1-1 5a4 4 0 1 0 1-5m688 1a8 8 0 1 0 13 5q-4-11-13-5m-302 1c-2 0-1 5 1 7h5c5-4 0-10-6-7m68 3a4 4 0 1 0 3-1q-1-2-3 1m204 1a5 5 0 1 0 7 7 5 5 0 0 0-7-7m-438 3q-3 3 0 7c4 8 18 4 15-4-2-7-11-8-15-3m502-2a5 5 0 1 0 7 7 5 5 0 0 0-7-7m-139 1a5 5 0 1 0 7 8 5 5 0 0 0-7-8m-518 1q-3 6 3 8 4-1 5-4-2-6-8-4m118 0q-6 3 0 8 5 1 6-4 0-6-6-4m-31 3q-2 6 5 7c5 0 7-7 1-9q-4-2-6 2m331-2c-2 1-3 7 0 7a4 4 0 1 0 0-7m-471 3c-2 5 3 9 7 6q5-7-4-8-3 0-3 2m85 1q-2 2 1 4a4 4 0 1 0-1-4m539-2a4 4 0 1 0 6 5 4 4 0 0 0-6-5m-434 3q-3 2-1 5 4 3 6-1c3-4-2-8-5-4m318-1q-2 2-1 6c2 4 9 2 9-3q-2-5-8-3m-212 1v7a5 5 0 1 0 0-7M9 205c-3 4 1 9 5 7q5-2 2-6-3-3-7-1m376 0a4 4 0 1 0 4 6 4 4 0 0 0-4-6m-283 1a4 4 0 1 0 4 6 4 4 0 0 0-4-6m-43 4a4 4 0 1 0 8 3 4 4 0 0 0-8-3m632 0q-4 6 3 7a4 4 0 1 0-3-7m-111 0a4 4 0 1 0 6 6 4 4 0 0 0-6-6m42 1c-5 3 0 12 6 9q6-4 0-9-3-3-6 0m-361 1c-3 3 0 10 4 10q4-1 5-6c0-4-6-7-9-4m195 0a4 4 0 1 0 5 0zm-419 3q-4 4 1 7 3 2 5-1c3-4-2-9-6-6m712 0q-3 3 0 5c3 4 7-2 4-6q-2-2-4 1m-510 1v6a5 5 0 1 0 0-6m294 2q-1 5 3 6l5 3a4 4 0 1 0 5-5l-6-4q-6-4-7 0m-435 0a4 4 0 1 0 7 1c-1-2-6-3-7-1m545 1v5c2 3 8 2 8-2q-2-8-8-3m-170 1q-4 3-6 8c0 6 12 9 16 4 5-7-2-15-10-12m90 2q-1 7 5 5 2-2-1-5-4-4-4 0m168 1a4 4 0 1 0 8 2q-2-8-8-2m-440-1q-3 6 2 8 5-1 6-5c0-3-6-5-8-3m-266 2a4 4 0 1 0 5 5 4 4 0 0 0-5-5m155 1c-3 3-1 9 3 9s7-7 4-10q-3-3-7 1m174-1q-2 4 1 7t5 0a4 4 0 1 0-6-7m62 0q-3 6 4 8 6-1 2-7-2-3-6-1M2 227c-3 5 3 10 9 7q5-5-2-9-4-3-7 2m630 0c-4 3-1 10 4 10 2 0 6-5 6-7 0-4-8-6-10-3m-115 1a5 5 0 1 0 6 0q-3-3-6 0m243 0q-4 3 0 4a3 3 0 1 0 0-4m-639 3c-4 3-1 10 3 7q6-3 2-7-3-3-5 0m29 1q-1 4 3 7 4-1 6-4c0-4-7-6-9-3m-61 2c-4 4 1 9 5 6q5-5 0-6-3-3-5 0m582 0q-3 3 0 6 4 4 6 0c3-6-3-10-6-6m-318 2q-3 3 0 7 4 4 8 0c3-5-4-12-8-7m244 0c-4 3-1 10 4 8q6-4 2-9-2-2-6 1m117 1-2 3 2 2q4 6 6 1c5-4-1-10-6-6m-224 0c-3 2-1 8 4 8q3 0 3-3-1-7-7-5m-259 2a4 4 0 1 0 6 5 4 4 0 0 0-6-5m92 0q-2 6 4 6 4 0 4-3c1-5-6-7-8-3m-282 1a5 5 0 1 0 8 0q-3-4-8 0m516 1q-3 3-1 7 5 2 8-2 0-9-7-5m-116 0v4c1 2 6 2 7 0 1-4-5-7-7-4m257 1c-4 3-1 8 4 7l3-2q1-5-2-6l-2-1zm-319 1c-7 3-5 13 3 13 3 0 9-4 9-7 0-5-7-8-12-6m90 1q-2 3 1 6a4 4 0 1 0-1-6m-168 1a4 4 0 1 0 4 0zm350 0q-4 5 0 8 5 3 6-4-1-7-6-4m104 1c-2 2-1 7 2 7q4 0 5-4c0-3-5-5-7-3m-700 2q-4 4 3 6 6-1 2-7-3-2-5 1m151 0a4 4 0 1 0 6 2q-1-6-6-2m-82 0a4 4 0 1 0 7 3c0-3-5-5-7-3m606 1a4 4 0 1 0 5 6 4 4 0 0 0-5-6m-625 1-1 5a4 4 0 1 0 1-5m77 1c-4 2-2 8 2 8q6-1 2-7-2-3-4-1m-34 2q-3 1-1 5 4 5 7-1c3-4-3-8-6-4m-81 1a4 4 0 1 0 6 6 4 4 0 0 0-6-6m479 1c-4 4 2 11 7 7q3-5-1-8-3-3-6 1m-276 1v4a5 5 0 1 0 0-4M1 256q-2 2 1 5c3 4 8 1 7-3q-3-5-8-2m507 2 1 4q6 1 5-5-3-5-6 1m-98 0q-5 5 1 8c4 2 8-4 4-7q-3-3-5-1m218 1q-2 3 0 6c4 3 8-3 5-6zm85 0a4 4 0 1 0 2-1zm32 0c-2 1-2 6-1 7q9 5 8-5-2-5-7-2m-713 3a5 5 0 1 0 8 5 5 5 0 0 0-8-5m89-1c-9 1-8 13 1 13q8-1 9-7c0-2-5-7-7-7zm16 3q-4 6 3 6c4-1 3-8-1-8zm77 0c-3 3 0 9 4 8q6-3 2-7-3-3-6-1m153 1q-3 5 4 6 3 0 3-4-1-6-7-2m144 2q-5 6 4 8 8-2 0-9-1-2-4 1m-446 1a5 5 0 1 0 6 4q-2-5-6-4m521 1a4 4 0 1 0 5 6 4 4 0 0 0-5-6m94 0c-4 4 1 9 6 7q5-6-2-8zm-446 2q-3 5 4 8 6 0 5-5c0-4-6-6-9-3m312 0q-4 3 0 6a4 4 0 1 0 0-6m107 0c-6 7 4 16 10 10l4-5c1-6-9-10-14-5m70 0q-2 4 1 7 2 4 6 0c3-4-3-11-7-7m-639 2q-3 3 0 5 2 3 5 0c4-4-1-10-5-5m67-1a6 6 0 1 0 5 11 6 6 0 0 0-5-11m157 0a4 4 0 1 0 4 0zm148 0v6q5 1 6-4-1-4-6-2m74 1q-2 3 1 6c4 2 7-3 4-6zm105 1q-2 5 1 8 6 2 7-3-2-8-8-5m-145 3q-3 8 5 6a4 4 0 1 0-5-6m-312 1a5 5 0 1 0 6 1q-2-3-6-1m112 0q-3 3 1 6a4 4 0 1 0-1-6m45 1v5a4 4 0 1 0 0-5m352 0a5 5 0 1 0 9 4c0-4-6-7-9-4m52 1q-8 6 1 12c7 3 14-5 9-11q-3-4-10-1m-471 4c-4 4 2 8 5 4q3-1 1-4-2-4-6 0m157 1c-4 4-1 12 6 12 4 0 10-5 9-8-2-5-11-8-15-4m88 0a4 4 0 1 0 4 8 4 4 0 0 0-4-8m-305 1q-4 1-6 6-1 6 8 7 12-2 6-11-2-4-8-2m-187 1c-3 4 1 10 6 8q5-1 2-7-4-3-8-1m47 0q-2 6 4 7 5-2 3-6-3-3-7-1m465 1q-3 5 2 7c4 1 7-5 4-8q-4-3-6 1m-483 1c-4 3-1 9 4 9q6-1 7-5c0-5-8-8-11-4m554 0q-4 4 1 6a4 4 0 1 0-1-6m66-1c-3 4 1 9 5 6q3-2 0-5-2-3-5-1m-553 2c-1 3 4 7 7 4l1-4c-1-3-7-3-8 0m585 1a4 4 0 1 0 6 5 4 4 0 0 0-6-5m59 1q-3 6 2 7 7-1 5-7-3-3-7 0m-477 0q-2 3 1 5 7 2 5-4c0-2-5-3-6-1m-57 1c-3 3 1 9 5 7a4 4 0 1 0-5-7m123 0c-4 3-1 10 3 10q6-2 2-8-3-4-5-2m38 1q-2 6 4 6a4 4 0 1 0-4-6m112 0q-4 8 3 6 5-3 1-6-2-3-4 0m157 0q-3 2-1 4c1 2 6 3 6 0q1-7-5-4m-358 2q-2 5 3 6 4 0 4-4c0-4-5-6-7-2m185 0a4 4 0 1 0 6 5 4 4 0 0 0-6-5m-14 2v6q3 3 5-1 2-7-5-5m95 1q-4 2 0 5 8 4 6-5-2-4-6 0m-146 2q-2 2 1 4 6 4 7-2-2-8-8-2m203 0q-4 3 0 7a4 4 0 1 0 0-7m-89 0q-2 3 1 7 5 4 8-2c1-4-6-8-9-5m-273 2q-2 8 4 6c3-1 2-6 0-7q-4-2-4 1m255-1q-3 2 0 6 3 5 6-1c2-3-2-8-6-5m73 1q-8 3-3 8c4 5 12 3 12-5q-1-7-9-3m149 1c-4 3 1 10 6 7q5-3 0-7-2-3-6 0m-524 2q-2 5 3 6a4 4 0 1 0-3-6m-61-1a4 4 0 0 0 6 6c4-3-1-8-6-6m-27 1a3 3 0 1 0 5 5 3 3 0 0 0-5-5m-48 1q-2 4 1 9 6 3 8-3-1-9-9-6m592 1q-1 4 3 6a4 4 0 1 0-3-6m-611 1q-1 5 2 6 4 0 5-4c0-4-5-5-7-2m436 1q-5 5-1 8c4 4 12 1 12-4q-2-11-11-4m-50 0q-4 6 3 7a4 4 0 1 0-3-7m202 0q-4 2 0 7 7 6 8-4-1-7-8-3M9 313q-4 6 3 7 6-2 1-8-2-2-4 1m306-1c-2 1-1 6 1 7q3 2 4-1c4-3 1-9-5-6m-120 1q-3 5 2 7 3 1 4-2 0-8-6-5m155 1a3 3 0 1 0 3 5 3 3 0 0 0-3-5m347-1c-4 2-2 9 2 9q5-1 5-5-2-6-7-4m-226 3q-3 3-1 8c4 3 10-2 8-6q-3-6-7-2m-425 0a5 5 0 1 0 7 6 5 5 0 0 0-7-6m214 1a4 4 0 1 0 4-1q-2-2-4 1m-154 2a4 4 0 0 0 6 3q2-5-2-5zm119 1a3 3 0 1 0 3-3q-4-1-3 3m389-1q-4 4 0 6c4 2 7-3 4-6q-2-3-4 0m-161 2v6c3 3 9 0 8-4q-3-5-8-2m99 0c-3 4 1 10 6 8q4-3 0-7-3-3-6-1m16 0q-2 5 2 6a4 4 0 1 0-2-6m-330 2-2 3 5 5c4 0 5-6 2-9q-2-2-5 1m92 0q-6 3-3 8c4 5 11 5 13-1s-4-10-10-7m-248 2c-3 3-1 9 3 9q4-1 5-6-2-8-8-3m583 0a3 3 0 1 0 5 3 3 3 0 0 0-5-3m-134 1q-2 3 1 7 2 2 5-1c3-5-2-10-6-6m-132 1a4 4 0 1 0 5 6 4 4 0 0 0-5-6m-127 3q-3 2 0 5 2 3 4 1 5-4 1-7-4-2-5 1m33 0a5 5 0 1 0 9 2c0-3-7-5-9-2m185-1c-3 2-1 7 3 7q6-2 2-6-3-3-5-1m236 4c-3 2-1 8 3 8l5-5-5-5zm-710 1a4 4 0 1 0 6 0q-4-4-6 0m85-1a4 4 0 1 0 7 5 4 4 0 0 0-7-5m580 1a4 4 0 1 0 8 4 4 4 0 0 0-8-4m-301 1a4 4 0 1 0 4 0zm193 2q-2 7 3 7 8-1 3-7-3-4-6 0m56 0q-3 4-2 6c1 2 6-1 7-4q-1-5-5-2m-282 0a4 4 0 1 0 6 6 4 4 0 0 0-6-6m-99 2q-2 8 6 6a4 4 0 1 0-6-6m290 1a5 5 0 0 0 0 7q6 3 8-3-2-6-8-4m-109 2q-4 4 0 6 6 3 7-3c2-4-4-7-7-3m333-1q-2 6 5 7 3 0 2-4 1-5-3-4zm-124 3c-3 4 1 11 5 9q5-2 3-8-3-4-8-1m75 1a3 3 0 1 0 5 3q-1-7-5-3m-259 0c-3 3 0 8 4 7 3-2 2-8-1-8zm-186 3q-3 7 4 8 8-1 3-8-4-4-7 0m135-1a4 4 0 1 0 8 4c1-4-5-7-8-4m95 0q-2 3 1 6c5 2 8-3 5-6zm-454 1q-2 5 1 8 5 2 8-3c1-4-6-8-9-5m571 3q-2 2-2 5c2 8 13 6 12-3q-1-9-10-2m78 0q-6 5 0 10c7 7 16-3 9-9q-5-6-9-1m-664 3q-3 3-1 5c4 3 9-1 6-5q-3-3-5 0m224 0a6 6 0 1 0 7 1q-2-3-7-1m274 0c-4 2-1 9 3 8q5-3 1-7-2-3-4-1m50 0q-5 6 4 8 4 0 4-3-1-8-8-5m-191 2a4 4 0 1 0 7 5 4 4 0 0 0-7-5m-305 0a4 4 0 1 0 7 6 4 4 0 0 0-7-6m593 1c-2 4 2 9 6 7q4-4 1-8-4-3-7 1m-258 0-3 4c-3 5 7 9 11 5 5-5-1-12-8-9m130 1q-5 3-3 8 4 6 13 2c7-5-2-15-10-10m-196 1q-2 3 0 6 8 3 6-5-3-3-6-1m-233 3q-4 4 1 7c4 2 8-4 5-8q-3-3-6 1m518-1q-2 5 1 8c5 2 8-4 4-7q-3-3-5-1m-351 1a4 4 0 1 0 6 6 4 4 0 0 0-6-6m-70 3q0 5 4 6 3 0 4-5c-1-3-7-4-8-1m-43 1q-2 6 4 8 4-2 5-5c0-3-6-5-9-3m557 1q-3 3-1 6c4 3 10-1 8-5q-3-5-7-1m-536 0-4 2c-6 6 3 14 11 9 8-4 2-14-7-11m129 2q-3 3 1 6a4 4 0 1 0-1-6m378 0q-2 4 3 7 5-1 6-5c0-4-6-6-9-2m-548 2q-2 3 1 5 6 1 6-5c-1-2-6-3-7 0m368 3a5 5 0 1 0 5 0q-2-3-5 0m-396 1q-7 5 0 11c8 4 15-7 7-11q-4-3-7 0m461 1a4 4 0 1 0 5 6 4 4 0 0 0-5-6M2 376q-2 1-2 5-1 5 3 4l4-1c3-4-1-10-5-8m101 1c-4 4 0 8 4 6a4 4 0 1 0-4-6m556 0q-2 6 4 8l4-4q-2-6-8-4m-606 2c-4 2-2 9 3 9q4 1 5-3c4-6-2-11-8-6m372-1q-5 5 1 8 2 2 4-1c4-4 0-10-5-7m-217 2c-3 4 1 9 5 6 2-2 1-8-3-8zm512 0q-5 4 0 6 4 4 6-1c2-5-3-8-6-5m35-1a4 4 0 1 0 7 4 4 4 0 0 0-7-4m-131 2q-3 6 1 8c5 1 8-5 4-7q-3-3-5-1m-166 3a4 4 0 1 0 5 5 4 4 0 0 0-5-5m-159 2q-3 3 0 4 4 4 6-1-1-8-6-3m304 0c-1 2 1 7 3 7q4 0 4-4c0-5-5-7-7-3m76-1v5a4 4 0 1 0 0-5m-647 2q0 6 5 6a4 4 0 1 0-5-6m54 0c-3 2 0 8 5 7 4-1 3-7-2-8zm314 1q-2 5 3 6c6 0 7-7 1-8q-3 0-4 2m304-1c-3 4 1 11 5 8a5 5 0 1 0-5-8m-693 2a5 5 0 1 0 7 7 5 5 0 0 0-7-7m248 0a4 4 0 1 0 4 1q-1-3-4-1m-39 1q-1 4 2 7 5 0 5-6-3-3-7-1m153 0a4 4 0 1 0 6 1q-3-3-6-1m108 0a4 4 0 1 0 6 6 4 4 0 0 0-6-6m43 1a4 4 0 1 0 7 5 4 4 0 0 0-7-5m-174 2q-3 1-2 5a7 7 0 1 0 2-5m308-1-1 2a4 4 0 1 0 1-2M2 395q-4 4 1 6c4 1 7-6 3-7q-1-2-4 1m151 0v6a4 4 0 1 0 0-6m277 0a7 7 0 1 0 6 13 7 7 0 0 0-6-13m-315 1c-4 2-2 9 3 9q7-2 2-8-2-3-5-1m386 1q-2 4 4 5 3 0 3-3c0-4-5-5-7-2m-43 2c-3 2-2 7 1 7q5-1 3-6-1-3-4-1m263 1q-1 3 4 5 3-1 3-5-3-4-7 0m-549 2a4 4 0 1 0 7 3q-1-7-7-3m434 1a4 4 0 1 0 7 4 4 4 0 0 0-7-4m-357 1a4 4 0 1 0 6 0q-3-4-6 0m380-1v6c4 3 9-1 7-5-1-2-6-3-7-1m-316 3c-2 0-1 6 1 7a4 4 0 1 0-1-7m393 1c-3 2-4 9-2 11 7 5 19-2 15-9q-6-6-13-2m-681 1q0 6 5 5c4-2 3-7-2-7q-3 0-3 2m205-1q-2 3 0 6c4 3 8-3 5-6zm309 1q-2 5 4 6 6-1 3-6-4-4-7 0m39 0q-4 5 2 6 6-1 3-6-3-3-5 0m163-1c-2 1-1 6 0 7 4 3 9-2 6-6q-3-3-6-1m-680 2c-3 4 1 10 5 7 3-2 2-8-2-8zm279 5v5c3 3 9-1 6-5q-3-4-6 0m339 2a5 5 0 1 0 6 0q-3-3-6 0m-553 2c-6 5-2 12 5 11q12-3 6-11-5-6-11 0m335-1v5q4 7 9 1c2-6-5-11-9-6m-369 1a4 4 0 1 0 6 4 4 4 0 0 0-6-4m191 0a4 4 0 1 0 4 0zm88 1q-2 5 3 6 5-1 3-6-2-4-6 0m119 0c-4 4-2 11 4 12 2 1 8-2 9-5 3-7-8-12-13-7m-231 1q-2 9 7 7c2 0 3-6 1-8q-5-3-8 1m434 1a4 4 0 1 0 6 6 4 4 0 0 0-6-6m-492 0a4 4 0 1 0 6 6 4 4 0 0 0-6-6m41 2q-3 2-1 3c3 4 9 1 6-3q-2-3-5 0m155 0q-3 5 1 6c4 1 7-4 4-7q-3-3-5 1m-322 2a4 4 0 1 0 7 3 4 4 0 0 0-7-3m88 0c-2 4 3 10 6 7q3-3 1-8-4-3-7 1m274 0c-3 4 3 10 7 8q6-3 1-8-4-5-8 0m-416 3q-3 5 2 6a4 4 0 1 0-2-6m573 2q-4 2 0 6 3 3 6 1c3-4-2-10-6-7m117 1a4 4 0 1 0 7 0q-4-4-7 0m-138 0q-3 5 3 6 3 0 3-2-1-4-3-5zm-453 2q-3 7 4 6c3-2 2-7-2-7zm25 1q-2 3 1 4 4 3 5-1c2-4-4-7-6-3m168-1a4 4 0 1 0 5 6 4 4 0 0 0-5-6m138 0c-4 2-3 9 1 10 5 1 8-5 5-8q-2-4-6-2m228 0c-3 4 0 10 5 8 4-2 2-9-2-9zm-624 2q-3 3 0 5c4 4 8-1 4-5q-2-3-4 0m473-1a4 4 0 1 0 5 7 4 4 0 0 0-5-7m-420 2q-4 3 1 6c4 2 9-3 6-7q-4-2-7 1m274 1c-3 5 4 9 7 4q3-3 0-5-4-4-7 1m224-1c-4 4-1 10 5 10s8-6 3-10q-3-4-8 0m-104 0a4 4 0 1 0 6 5 4 4 0 0 0-6-5m143 0-2 4q1 8 7 3c4-4 0-9-5-7m82 1c-3 4 1 10 5 8s2-9-2-9zm-520 2a4 4 0 1 0 5 5 4 4 0 0 0-5-5m221-1q-4 5 1 8a4 4 0 1 0-1-8m-181 1c-3 3 2 8 5 6q6-6-1-7zm19 1q-6 9 6 11 6 0 7-2c6-7-7-15-13-9m283 0q-6 6-1 11c7 4 13-4 8-11q-3-4-7 0m-385 1q-4 3 0 5 5 3 6-2-1-7-6-3m545 0-1 4q1 8 7 3c4-4-2-11-6-7m-519 1a5 5 0 1 0 7 6 5 5 0 0 0-7-6m-116 2q-3 7 4 7 4 0 4-3c0-5-6-8-8-4m515 0q-1 5 3 5a3 3 0 1 0-3-5m170 1a4 4 0 0 0 6 3q2-5-2-5zm-391 2q-3 2 0 5 4 4 7-2c2-4-4-6-7-3m-151 1q-6 5-1 10c4 5 13 3 15-4 1-6-9-10-14-6m128 0q-5 8 4 6 4-3 1-7-2-2-5 1m-289 0q-3 2-1 6c3 4 8 0 6-5q0-3-5-1m67 0c-3 4 2 9 5 5l2-2-2-2q-2-3-5-1m413 2q-4 6 2 9c6 2 10-8 4-10-3-1-2-1-6 1m-24 1q-3 4 1 6 7 2 5-6-3-4-6 0m-376 1c-4 4-1 9 4 7a4 4 0 1 0-4-7m-35 2q0 6 6 2a3 3 0 1 0-6-2m627-2a4 4 0 1 0 2-1zm-691 2q-3 2-1 4 3 4 6-1 0-6-5-3m49-1q-2 4 1 6t5-2q1-7-6-4m545 1a4 4 0 1 0 7 6 4 4 0 0 0-7-6m59-1v8q6 2 8-5c0-3-6-5-8-3m-281 2c-6 3-3 10 4 12q4 1 6-3c7-6-2-14-10-9m269 0c-4 3 0 8 4 6s2-8-2-8zm-379 1q-3 2 0 5a4 4 0 1 0 0-6M2 458c-3 3-3 9 1 10q7 2 9-7c0-4-7-7-10-3m156-1a4 4 0 1 0 5 5 4 4 0 0 0-5-5m43 1-1 3q2 5 6 2c2-3-3-8-5-5m41 1c-3 3-1 8 3 7q5-3 2-8-3-2-5 1m-190 3a4 4 0 1 0 5-1q-3-2-5 1m128-1q-3 3-1 7a4 4 0 1 0 1-7m380 0c-3 1-3 6 1 7q5 2 6-3 0-7-7-4m-491 1 3 7c4 0 6-6 2-7zm407 2q-2 7 5 5 3 0 2-3-3-6-7-2m-217 2q-4 5 0 7 9 2 5-7-2-4-5 0m323 0q-4 5 2 6a4 4 0 1 0-2-6m-466 1a4 4 0 1 0 6 3 4 4 0 0 0-6-3m-94 1q-4 6 3 7 6-1 2-7-2-3-5 0m669-1-1 4q2 7 8 2c2-5-3-9-7-6m-359 1v8q3 3 8-1c3-4-2-10-8-7m185 1v5a5 5 0 1 0 0-5m-306 2v5q6 5 8-2c0-5-6-7-8-3m-59 0q-3 3-1 7 6 2 8-3 0-6-7-4m493 3c-3 5 3 10 7 5q3-3 0-6-4-4-7 1m77-2a3 3 0 1 0 4 0zm-623 1q-2 5 3 8a4 4 0 1 0-3-8m135 1q-4 4 3 5 3 0 3-3-1-6-6-2m57 0q-3 3 1 6 3 2 4-1c4-4-1-9-5-5m149-1a4 4 0 1 0 4 6 4 4 0 0 0-4-6m-407 2a3 3 0 1 0 5 3 3 3 0 0 0-5-3m36 0q-3 2 0 6c3 5 10 0 7-5q-3-6-7-1m15-1q-2 2 1 5 4 4 6-1c1-4-4-7-7-4m106 0c-3 3 0 9 4 8 3-2 2-9-1-9zm121 2q-4 2 0 7h4c5-3 1-10-4-7m393 3-3 4a7 7 0 0 0 9 6c2 0 4-6 3-8q-4-6-9-2m-538 1q-1 7 3 7 5-1 3-6-3-3-6-1m398 0q-2 5 1 8 5 2 8-3c1-5-6-8-9-5M3 480a4 4 0 1 0 7 4q0-7-7-4m668 2a5 5 0 1 0 7 6 5 5 0 0 0-7-6m18 2c-2 4 2 9 5 5q3-4 1-7-3-3-6 2m-329-1a4 4 0 1 0 7 6 4 4 0 0 0-7-6m256 2q-3 3 0 6a4 4 0 1 0 0-6m-571 1a5 5 0 1 0 4-2zm273-1v3l-1 2v5l4-2h4q5 3 7-1 3-7-4-6-5 2-6-1zm189 1a4 4 0 1 0 5 0l-2-2zm128 1c-3 5 3 10 7 5q3-3 1-6-4-3-8 1m-430 1a4 4 0 1 0 6 3q-1-7-6-3m-96 1a4 4 0 1 0 7 5 4 4 0 0 0-7-5m181-1c-4 3 0 10 4 7q4-3 1-7zm450 1q-1 5 2 7c4 2 8-5 5-8q-4-3-7 1m-723 1q-4 6 3 7a4 4 0 1 0-3-7m113-1c-4 2-3 9 1 9q5-1 6-6-1-5-7-3m49 2q-5 5 0 9c4 6 14 2 14-5 0-6-9-8-14-4m244 0a4 4 0 1 0 6 3q-1-6-6-3m49-1a4 4 0 1 0 6 5 4 4 0 0 0-6-5m-391 1c-4 1-3 8 1 8q5-1 6-5-1-4-7-3m184 3a4 4 0 1 0 8 3c1-4-5-7-8-3m-233 3q-1 5 2 5 5-2 4-5c-1-3-6-2-6 0m510 0q-5 8 4 6 4-3 1-7-2-2-5 1m69 0a4 4 0 1 0 7 1q-2-5-7-1m-553 2c-4 4 2 10 6 6q2-3-1-6-2-3-5 0m327 1q-6 3-1 8a5 5 0 1 0 3-9zm295 1q-3 2-1 4 3 6 8 0c3-4-3-8-7-4m70-1q-3 8 5 6c2 0 3-6 0-6zm-303 3q-5 3-2 7c1 3 13 3 15 0 7-7-5-14-13-7M3 502v4c2 5 7 3 5-2q0-3-5-2m624 2q-3 2-3 5-1 4 5 3 12-1 6-9c-4-3-4-3-8 1m70-1q-4 4 3 6 4 1 3-3 0-7-6-3m-117 1a4 4 0 1 0 6 6 4 4 0 0 0-6-6m-561 2q-4 5 3 6 8-1 3-5-4-3-6-1m177 0q-2 5 2 6a4 4 0 1 0-2-6m-127 1q-2 5 4 5 5 1 4-3-3-5-8-2"
        mask="url(#16282281824-posters-1720559875533-radial-mask)" itemprop="regular" fill-opacity="0.90"
        fill-rule="evenodd" stroke="none" fill="url(#16282281824-posters-1720559875533-horizontal-regular)"></path>
      <!---->
      <path id="16282281824-posters-1720559875533-medium"
        d="M31 2q-1 5 4 6 6 0 5-5c-1-4-8-4-9-1m280 0q-1 5 2 6 4 1 4-5c0-4-5-5-6-1m174 0q1 7 5 3t-1-5q-4 0-4 2m128 1a4 4 0 1 0 4-3q-3 0-4 3m47 0c-1 4 4 7 7 3q5-5-3-6-3-1-4 3M223 2q-2 1-2 4 3 6 7 2 3-3 0-5-2-3-5-1m207 2c-4 4 2 9 6 6q3-4-1-6-3-3-5 0M54 5c-3 1-4 7-1 9 4 3 13 0 13-5q-1-9-12-4m334 2c-4 5 6 15 10 11q2-5-3-10-4-6-7-1m66 1c-4 4 2 9 6 6a4 4 0 0 0-6-6m266 1q-3 1-1 4 3 6 8 1c3-5-3-10-7-5m-187 3q-3 4 2 6a3 3 0 1 0-2-6m220 0a4 4 0 1 0 6 6 4 4 0 0 0-6-6m-641 1q-2 4 1 7c5 2 8-3 4-6q-3-3-5-1m131 0c-2 0-1 6 1 7 4 2 8-3 4-6q-1-3-5-1m377 2q-6 9 6 11c9 0 9-12-1-14q-2-1-5 3M38 14q-4 4 1 8c5 3 9-3 5-7q-3-3-6-1m39 1-1 5c1 5 8 4 8-1q-1-8-7-4m203 0q-2 3 1 6 5 1 5-4c0-2-5-4-6-2m277 1q-1 5 3 6a4 4 0 0 0 0-8zm-415 1v4c1 2 6 2 7 0 1-4-5-7-7-4m553 1a4 4 0 1 0 4-1q-3-2-4 1M19 21q-2 8 6 6a4 4 0 1 0-6-6m477 0q-4 3 1 7c5 3 12-2 9-7-1-3-8-3-10 0m159-1c-4 1-3 8 2 8a4 4 0 1 0-2-8m-242 1c-3 3 0 9 4 8a4 4 0 1 0-4-8m106 1q-4 6 2 7c4 0 6-6 3-8q-3-2-5 1m-322 0-4 3c-4 8 9 13 13 6q3-5 1-6-4-4-10-3m151 1q-5 4 1 8c4 5 13 3 13-3s-10-9-14-5m-184 0c-3 1-2 8 2 8q4-1 3-6 0-3-5-2m440 1q-1 4 4 5 4-1 3-6-4-3-7 1m31 4a5 5 0 1 0 4 8 5 5 0 0 0-4-8m-63 2a6 6 0 1 0 10 4c0-4-7-7-10-4M77 32q-2 4 1 6 7 3 7-4c0-4-6-6-8-2m179 1q-2 3 1 6c4 2 9-2 7-6q-5-4-8 0m411-1c-3 4 1 9 5 6a4 4 0 1 0-5-6m-553 2q-3 5 2 7c6 0 8-5 4-7q-4-4-6 0m617 3q-3 5 1 7c4 2 8-5 5-8q-4-2-6 1m-292 0q-2 6 4 8a5 5 0 1 0-4-8m-225 2q-2 5 3 6 6 0 4-5-4-6-7-1m183 1q-3 4 1 6 7 3 7-3c0-5-6-7-8-3m364 2-3 4 1 3 8 4q5 2 0 3c-3 1-2 6 1 7h2v-8l-1-12q-1-8-8-1m-443-1a4 4 0 1 0 6 5 4 4 0 0 0-6-5m394 1a4 4 0 1 0 7 5c3-4-3-8-7-5M44 44q-3 1 0 4a4 4 0 1 0 0-4m47 1q-6 7 4 9a6 6 0 1 0-4-9m158 2q-3 1-1 5c2 4 7 2 7-2q-1-7-6-3m304-1q-2 4 1 7 4 3 6-2c2-4-3-8-7-5m-272 1q-2 3 1 6c3 3 7-2 4-6zm249 1q-3 1-1 4c3 4 10 0 7-4q-2-3-6 0m146 0q-4 4 0 8c4 4 12 2 12-3 0-6-8-9-12-5m-73 3q-4 5 2 7 5 0 6-4l-5-5zm51-1a4 4 0 1 0 6 5 4 4 0 0 0-6-5m84 2a5 5 0 1 0 8 5 5 5 0 0 0-8-5m-268 0a4 4 0 1 0 4 6 4 4 0 0 0-4-6m-345 2q-3 7 4 5c3-1 2-7-2-7zm69-1c-2 0-1 5 1 6q5 3 5-4-1-4-6-2M21 54c-6 5-2 15 5 12q9-5 2-11-3-3-7-1M1 59q0 9 6 5c4-3 2-10-4-10q-2 0-2 5m420-4q-3 6 4 7 5-1 3-5-3-5-7-2M59 58c-3 3 4 9 7 5q3-2 0-5t-7 0m532-1q-4 4 1 6a4 4 0 1 0-1-6m-228 1q-3 4 1 7 5 0 5-5-1-5-6-2m-37 1q-2 4 3 6 7 0 3-5-2-3-6-1m216 4q-7 4 0 10c5 2 12-1 12-5q-1-10-12-5m96-1q-2 3 1 6c4 2 7-3 4-6zm-463 5c-7 4-4 10 5 10q8 0 9-5 1-12-14-5m114-1q-4 5 1 10c6 5 13 2 13-5 0-6-11-10-14-5m-180 1-1 4a4 4 0 1 0 1-4m558 0q-3 5 2 7 6-1 3-6-2-3-5-1M17 71q-7 8 3 9 6 0 4-7-3-5-7-2m501 0a4 4 0 1 0 6 4 4 4 0 0 0-6-4m211 2q-3 4 0 6c2 3 7 1 7-3 0-5-5-6-7-3m-477 1a4 4 0 1 0 4 6 4 4 0 0 0-4-6m202 1c-4 2-2 7 2 7q5-1 2-6-1-3-4-1m157 4q-3 3 0 4a4 4 0 1 0 0-4m-257 2a4 4 0 1 0 6 4 4 4 0 0 0-6-4M63 82q-3 9 6 7 4-3 0-7t-6 0m234 0q-2 5 3 7c4 1 7-4 4-7q-4-3-7 0m122 4q-9 6 1 13c7 3 13-8 6-12q-3-3-7-1m276 0v4a4 4 0 1 0 0-4m-238 2q-2 4 2 7a4 4 0 1 0-2-7M42 89q-2 4 1 7 5 1 6-3c1-4-4-7-7-4m437 0a4 4 0 1 0 5 0zm31 2q0 5 5 5c6-2 5-8-1-8q-3-1-4 3m160-2a4 4 0 1 0 5 7 4 4 0 0 0-5-7m-555 1c-2 1-1 6 1 7q9 2 5-6-1-3-6-1m285 2q-4 4 3 5 5-2 1-6-3-2-4 1m-136 1q1 7 6 4 5-4-2-6-5 0-4 2m379 1v5c3 5 10 4 10-1 0-7-8-10-10-4m-466 0c-8 4-6 12 3 13q4 1 6-2c7-6-1-15-9-11m369 2q-4 3 0 7 1 3 4 1c4-3 0-10-4-8m-218 1a3 3 0 1 0 6 3q-1-6-6-3m271 2q-3 1-1 4c2 4 8 1 6-4q-2-4-5 0m-508 3q-3 1-1 5a4 4 0 1 0 1-5m130-1a5 5 0 1 0 7 7 5 5 0 0 0-7-7m503 1c-3 0-5 6-4 9 4 8 15 5 15-4q-1-8-11-5m-576 2q-4 6 5 5 3-2 1-6-4-2-6 1m-136 2q-3 6 4 8c4 0 6-5 2-7q-4-3-6-1m241 3q-3 6 4 8c4 0 5-5 2-7q-4-3-6-1m245 1q-2 5 4 6 6-2 3-6-4-4-7 0m54 2q-2 2 1 4a4 4 0 1 0-1-4m-184 0q-3 2 0 4 5 4 6-2-1-6-6-2m95 0c-2 1-1 6 1 6a4 4 0 1 0-1-6m168 2v4q4 2 6-3-1-6-6-1m-25-1q-2 4 1 7 5 1 6-5-3-5-7-2m-209 3a4 4 0 1 0 6 6 4 4 0 0 0-6-6m189-1q-1 6 3 7 6-1 4-6c-1-2-6-3-7-1m-163 3q-1 6 3 7 6-1 4-6c-1-2-6-3-7-1m107 2q-4 4 3 6c4 0 6-5 2-7q-4-2-5 1m227 0q-3 2 0 4a4 4 0 1 0 0-4m-193 1c-3 2-1 8 2 8l4-4q-1-6-6-4m-441 2q-2 3 1 7c4 3 8-3 4-6q-2-3-5-1m95 1q-1 4 3 5 4-2 4-5c-1-3-6-2-7 0m460-1-1 5a4 4 0 1 0 1-5m-641 2c-3 2-1 8 3 8q6-1 4-7-3-3-7-1m476 1q-4 4 1 9c6 3 12-5 7-8q-5-3-8-1m-25 2a4 4 0 1 0 6 3 4 4 0 0 0-6-3m113 1q-6 1-4 6 3 2 8-1 6-5-4-5m38 0q-4 5 1 8a4 4 0 1 0-1-8M4 131q-4 5 1 6 6-1 4-7-2-2-5 1m732 0q-2 5 3 6 4 0 4-3c0-5-5-7-7-3m-635 1q-3 1-1 4c2 3 8 2 8-1q-1-7-7-3m346-1a4 4 0 1 0 4 6 4 4 0 0 0-4-6m-90 2c-7 3-4 12 4 12a7 7 0 1 0-4-12m-28 0c-3 4 2 10 6 8a5 5 0 1 0-6-8m-191 2a4 4 0 1 0 6 5 4 4 0 0 0-6-5m157 2q-3 3-1 7 2 2 5-1a3 3 0 1 0-4-6m280 1v4a4 4 0 1 0 0-4m-300 0-1 4q1 6 7 2c4-4-2-9-6-6m434 0q0 8 6 6a4 4 0 1 0-6-6m-631 2q-4 3 0 6 3 3 6 0c5-5-1-11-6-6m589 1q-1 6 5 7 3 0 3-3c0-5-6-8-8-4m-113 4a4 4 0 1 0 6 4 4 4 0 0 0-6-4m94 1q-3 3-1 7c4 3 10-2 8-6q-3-5-7-1m-546 1q-4 6 0 8c6 3 13-4 10-8q-6-4-10 0m61 0a4 4 0 1 0 6 3 4 4 0 0 0-6-3m-139 0a4 4 0 1 0 6 5 4 4 0 0 0-6-5m25 1q-5 1 2 13 7 14 9 2l1-5c5-7-5-15-12-10m165 0q-3 5 2 6c4 0 5-5 2-7q-2-2-4 1m111 3a4 4 0 1 0 4 6 4 4 0 0 0-4-6m212 0v6a4 4 0 1 0 0-6m-153 1c-3 3 1 9 6 7q4-2 0-6-2-3-6-1m201 0c-3 3 0 9 4 7 3-2 2-8-1-8zm133 10q-2 3 3 5a3 3 0 1 0-3-5m-471 2q-2 3 0 6a4 4 0 1 0-1-6m-148 4q-2 4 3 5 5-1 4-5-3-3-7 0m-76 1q-2 6 4 6 3 0 3-3c1-5-5-7-7-3m730-1c-2 1 0 6 3 7q5 2 5-4-2-5-8-3m-565 1q-3 4 2 7 7 0 3-6-3-3-5-1m103 1q-2 2 1 5a4 4 0 1 0-1-5m394-1a4 4 0 1 0 6 5 4 4 0 0 0-6-5m-140 2q-3 1-1 5a4 4 0 1 0 1-5m-408 1a4 4 0 1 0 5 1q-2-3-5-1m363 1c-3 5 4 10 10 8 2-1 3-7 1-9s-10-1-11 1m-430 1q-3 1-1 4c2 3 7 2 7-2l-4-4zm336 0q-3 5 3 6 3 0 3-3-1-6-6-3m324 0-1 3q2 5 6 2c2-3-3-8-5-5m-513 5q-3 5 3 6a4 4 0 1 0-3-6m49-1q-2 6 4 7 6-1 4-6-5-3-8-1m-121 4c-6 2-4 11 3 12a6 6 0 1 0-3-12m497 1q-1 5 3 6c3 0 5-5 3-7q-4-2-6 1m-189 0q-3 8 5 5 4-4-1-6zm-130 2v4c0 3 5 2 6-1 0-4-5-7-6-3m36 2a4 4 0 1 0 6 0q-5-3-6 0m59 0q-6 3-2 8 6 6 11-1 4-10-9-7m161 1q-3 3 0 6 6 7 11-1c2-6-6-10-11-5m-283 0-1 4a4 4 0 1 0 1-4m-279 2q-2 7 5 5c2-1 1-6-2-7q-3 0-3 2m688 1-2 5a7 7 0 1 0 12-6c-3-2-9-1-10 1m-302 2q-1 4 3 5c5 0 6-6 0-7q-3-1-3 2m68 2q-3 2-1 5c4 3 8-3 5-6q-3-2-4 1m205 0a4 4 0 1 0 2-1zm-437 1c-7 4-1 14 7 13q7-1 6-7c0-6-7-9-13-6m501 1q-4 5 3 6a4 4 0 1 0-3-6m-139 0a5 5 0 1 0 5 0zm-519 2-1 4a4 4 0 1 0 1-4m117 0-1 3q2 5 6 3c5-3 0-8-5-6m-29 1a5 5 0 0 0 6 7c5-3 0-10-6-7m329 0q-3 4 2 6 3 2 4-1c3-4-2-8-6-5m-469 1a4 4 0 1 0 6 0zm508 3q-3 4 0 6c4 3 8-4 4-7q-3-2-4 1m-212 0a4 4 0 1 0 4 0zM9 207q0 6 5 4l2-3c0-3-6-4-7-1m93 0-2 2 2 2q3 3 5 0 3-7-5-4m590 2c-4 2-2 9 3 8l2-4q1-6-5-4m-111 1q-3 5 2 7 5 0 3-6-2-4-5-1m41 2q-4 3 0 6c4 5 11-1 7-5q-4-5-7-1m-360 1a5 5 0 1 0 6 7 5 5 0 0 0-6-7m194 0a4 4 0 1 0 6 1q-2-3-6-1m-419 2q-2 4 1 7 3 2 5-2c2-5-3-8-6-5m204 1q-3 3 0 6c4 3 8-3 5-7q-2-2-5 1m-143 3q-1 5 4 4 3 0 3-3c0-3-5-4-7-1m435-1q-1 4 4 6l5 3q4 3 4 0 4-2-2-5l-5-3q-4-3-6-1m111 1-1 4q3 4 7 0c2-3-3-7-6-4m-173 4q-6 4 0 9c5 4 15 0 13-5q-4-12-13-4m261-1q-2 4 1 7 3 1 5-2c2-4-3-8-6-5m-441 2q-2 5 3 5 5-1 4-6c-2-2-7-1-7 1m64 0q-3 5 1 8c3 1 7-4 4-8zm-175 1-1 4q3 8 8 2 2-9-7-6m236 1q-2 7 5 5 3 0 2-3-3-6-7-2M2 228q-1 5 5 6 5 0 5-5c0-4-9-6-10-1m629 0a5 5 0 1 0 10 1c-1-4-9-4-10-1m-115 1q-2 5 3 8 4-1 5-5-1-7-8-3m-395 3a4 4 0 1 0 4 0q-2-3-4 0m29 1q-1 3 4 5 5 0 3-5c0-3-6-3-7 0m-61 2q-3 4 2 5a3 3 0 1 0-2-5m582-1c-3 3 0 9 4 7q3-2 2-6-2-3-6-1m-318 2c-2 3 0 9 4 9q3-1 4-5-2-7-8-4m244 1q-4 4 1 6 4 2 6-3c2-4-4-7-7-3m118 1-2 2a4 4 0 1 0 2-2m-391 0q-3 4 2 7 6 1 4-5-3-5-6-2m165 2a4 4 0 1 0 7 2 4 4 0 0 0-7-2m-258-1q-2 5 2 6t4-5q-1-4-6-1m-189 2c-5 5 1 10 7 7q4-4 0-7-3-4-7 0m514 1q-2 5 4 6 3 0 3-4-1-6-7-2m141 0q0 8 6 6a4 4 0 1 0-6-6m-320 3q-5 9 5 10 7-1 8-7c0-5-9-7-13-3m273 1c-3 3 1 9 5 7a4 4 0 1 0-5-7m-596 3q-1 3 4 5 4-2 3-6c-1-2-6-1-7 1m152 0q-3 2-1 5 4 3 6-4-1-5-5-1m-57 3q-4 4 0 7c4 2 7-4 4-6q-1-3-4-1m32 1q-2 4 3 6 3 0 3-6-2-4-6 0m-114 1a4 4 0 1 0 7 3q0-5-7-3m479 0v5q1 6 6 3c5-5 0-11-6-8m-275 1a4 4 0 1 0 6 6 4 4 0 0 0-6-6M2 257l-2 2 2 2q5 4 6-1c2-4-3-6-6-3m407 2a4 4 0 1 0 6 6 4 4 0 0 0-6-6m337 1c-4 3 1 9 5 7q2-5-1-8-3-2-4 1m-713 1-1 5a4 4 0 1 0 1-5m88 1c-7 1-8 8-2 11a7 7 0 1 0 2-11m248 2a4 4 0 1 0 4 6 4 4 0 0 0-4-6m-155 1a4 4 0 1 0 6 4 4 4 0 0 0-6-4m296 4a4 4 0 1 0 6-1q-4-4-6 1m-447 2q-1 7 5 5 5-3 1-6-4-4-6 1m524-2a4 4 0 1 0 4 6 4 4 0 0 0-4-6m94 1q-3 5 2 6 5-2 3-6-2-3-5 0m-134 0c-4 2-1 9 3 8q3-2 2-6-2-3-5-2m108 1q-6 6 0 10 4 3 9-1c6-6-2-14-9-9m-420 0v7c4 3 11-3 7-6q-3-2-7-1m488 4q2 6 6 2 4-5-3-6-4-1-3 4m-640-1a3 3 0 1 0 7 3 3 3 0 0 0-7-3m67-1c-2 1-3 7-1 9 3 3 10 0 10-5q-1-8-9-4m485 2q-2 6 4 7 5-1 3-6-3-3-7-1m-145 2q-3 5 2 6 5-1 4-5-2-3-6-1m-153 2q-3 3 0 6 4 2 6-3-1-5-6-3m-160 1q-3 4 2 7 4 0 6-4-1-8-8-3m511 0c-3 2 0 7 4 7 4-1 4-7-1-8zm54 0q-9 4-4 10c7 6 16-3 10-9q-1-3-6-1m-316 5q-3 3-1 9c3 4 11 3 14-2s-7-10-13-7m86 1q-2 4 1 6t5-1c2-4-3-8-6-5m-490 2a4 4 0 1 0 5 0q-2-3-5 0m47-1a3 3 0 1 0 5 1q-1-3-5-1m136 1q-6 5-1 9c4 4 12 2 14-3 1-7-8-11-13-6m-154 0q-5 3-1 7 3 4 8 2c5-4 0-12-7-9m482 0a4 4 0 1 0 5 5 4 4 0 0 0-5-5m71 1c-4 4 1 8 5 4q2-1 1-3-2-4-6-1m99 3q-3 2 0 4 4 3 6-1c1-4-4-6-6-3m60-1q-5 3-2 7h4c5-3 3-8-2-7m-374 2q-2 6 2 7 6-1 2-6-2-3-4-1m-39 1q-3 2 0 7t6-1c2-3-2-8-6-6m-50 1q-3 4 1 7a4 4 0 1 0-1-7m121 5q-4 5 2 6 5-2 2-7-2-2-4 1m144-1v4a3 3 0 1 0 0-4m-31 3q-3 2 0 4c2 5 7 3 7-2 0-4-5-5-7-2m87 0a4 4 0 1 0 7 4 4 4 0 0 0-7-4m-106 1q-3 3 2 6 4 0 4-4-3-5-6-2m73 0q-6 6-1 10c5 3 12-4 9-9q-3-3-8-1m-374 1c-3 3 0 9 4 8 3-2 2-9-1-9zm523 1q-1 5 3 6a4 4 0 1 0-3-6m-585 1q-2 5 4 6 3-2 2-5c0-2-5-3-6-1m-74 2q-4 4 2 8c4 2 8-4 4-8q-3-3-6 0m417 1q-5 3-2 9 4 5 9 0c7-4 1-12-7-9m152 1a5 5 0 1 0 5 7 5 5 0 0 0-5-7m-204 1q-1 4 4 6c2 0 4-5 3-7q-4-2-7 1m-128 1q-2 6 3 7 5-1 2-6-2-3-5-1M9 313a3 3 0 1 0 5 1q-1-3-5-1m688 2q-3 1-1 4a4 4 0 1 0 1-4m-650 2a4 4 0 1 0 5 5 4 4 0 0 0-5-5m424 0q-4 3 0 6 4 5 6 0c3-5-2-11-6-6m-107 2a4 4 0 1 0 4 0zm89 2a4 4 0 1 0 7 1q-3-3-7-1m99 1c-3 4 2 8 6 6q4-2 0-5-3-3-6-1m-314 1-1 3q2 5 6 3c4-3 0-8-5-6m92 0a6 6 0 1 0 9 1q-4-3-9-1m-248 3q-3 2-1 5 5 4 8-1c2-5-4-8-7-4m450 0q-2 4 1 6a4 4 0 1 0-1-6m-260 3q-3 4 1 7c4 1 7-5 3-7zm34 0q-3 4 1 7t5-1q2-9-6-6m-204 4a4 4 0 1 0 6 5 4 4 0 0 0-6-5m581 0c-3 2-2 7 1 7q4 0 5-4-2-5-6-3m43 0a4 4 0 1 0 6 5 4 4 0 0 0-6-5m-710 1a4 4 0 1 0 5 5 4 4 0 0 0-5-5m363 3q-2 2 1 4 5 3 6-2c0-4-5-5-7-2m-31 1a4 4 0 1 0 5 4 4 4 0 0 0-5-4m226-1q-3 5 3 6 3 0 3-2 0-7-6-4m-325 1-1 4c0 4 6 4 7 0q-1-6-6-4m180 4q-3 6 2 6 7-1 4-6-4-4-6 0m109 0q-1 5 3 6 6-1 4-5c-1-4-6-4-7-1m225 0a4 4 0 1 0 6 4 4 4 0 0 0-6-4m-125 3q-2 4 1 7c4 3 9-2 7-6q-3-3-8-1m-235 3q-3 5 3 6a4 4 0 1 0-3-6m95 0q-2 3 3 5 4 0 3-5-3-4-6 0m-230 1c-3 3 3 9 7 6q2-3-1-6t-6 0m-224 0q-2 6 4 7a4 4 0 1 0-4-7m573 1c-4 3-4 9 0 10 5 2 11-6 6-10q-2-4-6 0m76 1c-3 2-3 8 0 10q9 5 11-5c0-5-7-8-11-5m-441 5q-4 5 1 8a6 6 0 1 0-1-8m135-1v7a4 4 0 1 0 0-7m139 1q-1 5 3 5a3 3 0 1 0-3-5m51 0a4 4 0 1 0 7 0c-2-2-7-2-7 0m-496 2q-1 4 4 5c4 0 4-6 0-7q-3 0-4 2m594-1q-2 3 0 6 8 3 6-5-3-3-6-1m-260 2q-4 5 0 6c7 5 15-1 9-6q-5-4-9 0m131 0q-6 5 0 9c4 4 12 1 12-5 0-5-7-8-12-4m-429 3v6a4 4 0 1 0 0-6m518 0c-3 4 1 9 5 6q3-2 0-5-2-3-5-1m-420 2a4 4 0 1 0 6 5 4 4 0 0 0-6-5m-43 2a4 4 0 1 0 4 0zm555 3q0 4 3 5 5-1 5-5c-1-4-7-4-8 0m-538 0q-4 5 2 10c6 3 14-5 9-10q-4-5-11 0m511-1c-3 3 1 9 5 7q4-3 1-6t-6-1m-181 7a4 4 0 1 0 6 2q-2-6-6-2m-397 1a6 6 0 1 0 9 8 6 6 0 0 0-9-8m462 0c-3 2 0 7 3 7q3-1 2-6-2-3-5-1M1 377v7l2 1a4 4 0 1 0-2-8m102 1q-3 3 1 5 6 1 5-5-2-4-6 0m323 0a4 4 0 1 0 5 4q0-6-5-4m234 0c-3 2 1 7 5 6a4 4 0 0 0-5-6m-608 2v6c4 4 11 1 10-5-1-4-7-4-10-1m156 0v4a3 3 0 1 0 0-4m512 2q-2 5 4 5c2-1 3-6 0-7q-3-2-4 2m-687 4v4a3 3 0 1 0 0-4m53 1v5q4 3 6 0c3-4-3-8-6-5m315 0q-2 4 1 6 6 1 5-5-2-3-6-1m304 1-2 3c0 5 7 5 9 0 1-4-4-7-7-3m-694 4q1 6 6 4 3-4-3-7-4-1-3 3m362-1q-3 2-1 4 3 4 6-1 0-6-5-3m108 0v5c3 3 9-1 6-5q-2-4-6 0m44 1q-1 4 3 5 5-2 3-5-5-3-6 0m-175 1-2 3 2 3c2 5 9 5 10 1 3-6-5-11-10-7m308-1q-1 5 2 6a4 4 0 1 0-2-6m-229 5c-5 4-3 11 4 11q10-1 5-10-5-6-9-1m-314 1q-3 1-1 4c2 4 8 2 8-2l-4-4zm57 4q-2 6 3 7l4-4c0-3-5-5-7-3m435 0q-3 5 3 6 3 0 3-2-1-4-3-5zm22 1q-2 4 4 6 5-1 1-6zm-380 1c-3 2 0 7 3 7q3-1 2-6-2-3-5-1m456 4q-5 9 6 11 7-1 8-7c0-6-10-8-14-4m36 0c-3 2 2 8 5 6a4 4 0 1 0-5-6m-680 3a3 3 0 1 0 5 3 3 3 0 0 0-5-3m280 2q-2 4 1 7a4 4 0 1 0-1-7m122 4q-4 2 0 6t6 0c2-4-2-9-6-6m216 0q-4 5 1 6 5 2 6-3-1-7-7-3m-552 0-1 1-1 3q-3 2 0 5c4 5 13 2 13-4q-2-7-11-5m365 1a7 7 0 1 0 9 1q-5-3-9-1m-231 1c-5 3 0 10 4 8q6-3 1-7-3-3-5-1m432 2a4 4 0 1 0 6 6 4 4 0 0 0-6-6m-530 4q0 8 6 6 4-3 1-6zm275 0c-2 1-1 6 1 7q6 3 7-2 0-8-8-5m155 6q-1 5 4 6 4 0 4-4c0-3-6-5-8-2m-142 3a4 4 0 1 0 5 7 4 4 0 0 0-5-7m228 0a4 4 0 1 0 6 5 4 4 0 0 0-6-5m-296 2q-2 9 5 5 4-2 0-5-3-4-5 0m144-1v5q4 4 6 0c3-4-3-8-6-5m-420 2a4 4 0 1 0 8 0l-4-2zm396-1q-3 5 2 7 4 1 4-5-2-5-6-2m104 0q-4 4 0 8t8 0c5-5-3-12-8-8m38 2q-3 1-1 4a4 4 0 1 0 1-4m82 0q-3 5 3 6 4 0 4-2a4 4 0 0 0-7-4m-459 2c-4 1-4 7-1 9a7 7 0 1 0 1-9m159-1a4 4 0 1 0 5 5 4 4 0 0 0-5-5m122 1q-5 5-1 11a6 6 0 1 0 1-11m161 2a4 4 0 1 0 4 0q-2-3-4 0m-519 1a3 3 0 0 0-1 5l2 1q5 1 5-3-1-7-6-3m-117 1q0 8 6 6a4 4 0 1 0-6-6m294 3-1 2a4 4 0 1 0 1-3m-149 1q-6 2-4 8 5 10 12 3c7-5 1-14-8-11m125 2q-2 5 3 5a4 4 0 1 0-3-5m-289 0a3 3 0 1 0 5 5 3 3 0 0 0-5-5m481 1v8c4 3 11-3 8-7q-3-3-8-1m-25 2c-1 3 4 7 6 4l1-3c-1-3-6-4-7-1m-376 1v4q3 3 6 0c4-5-2-8-6-4m555 0c-3 4 1 11 5 8a5 5 0 0 0-5-8m37 1c-2 1 0 6 2 6q5-1 4-6-2-4-6 0m-96 0q-2 5 4 6 3 0 3-3c0-4-5-6-7-3m-332 1a4 4 0 1 0 5 6 4 4 0 0 0-5-6m109 1c-5 3-1 10 6 10 6 0 9-6 5-10q-5-4-11 0M3 457c-4 2-4 9 0 9 7 2 11-5 7-9q-3-3-7 0m238 2a4 4 0 1 0 6 3 4 4 0 0 0-6-3m-189 2c-3 3 0 8 4 6 2-1 2-6-1-7zm127 1c-1 1 1 6 3 6q4-1 4-5c-1-3-6-4-7-1m380-1a4 4 0 1 0 7 4 4 4 0 0 0-7-4m-82 1q-3 5 3 6 3 0 3-2-1-4-3-5zm-219 4q-2 6 4 6 3 0 3-3c1-5-5-7-7-3m324 0q-3 1-1 4c3 3 8-1 6-4q-2-3-5 0m111 0q-4 3 0 7 1 2 3-1c4-3 1-8-3-6m-671 1q-2 3 1 6c3 3 7-2 4-6zm311 0q-2 1-2 4c2 6 9 6 9 0q-1-7-7-4m186 0q-4 4 1 9c5 3 10-5 5-8q-4-3-6-1m-307 2q-2 1 1 7h4q4-4 0-6-3-3-5-1m-61 3a4 4 0 1 0 6 4 4 4 0 0 0-6-4m497-1-3 3c-1 5 5 8 7 3q3-7-4-6m-548 1a4 4 0 1 0 4 0zm-31 2a4 4 0 1 0 7 2q-3-5-7-2m242 2q-2 2 1 6c3 2 7-3 4-6zm392 4c-3 4 0 9 6 7a5 5 0 1 0-6-7m-139 0a4 4 0 1 0 7 6 4 4 0 0 0-7-6m108 2a4 4 0 1 0 5 6 4 4 0 0 0-5-6m18 1v6q5 2 5-3-1-5-5-3m-331 2q0 7 6 4 4-4-2-6-3 0-4 2m257 0q-2 3 1 6 4 2 5-4-3-5-6-2m-570 1v7a5 5 0 1 0 0-7m272 1q1 2-1 4-2 5 3 2 4-3 6 0 5 2 6-4 0-5-6-2h-4q-4-4-4 0m188 0q-2 5 4 5 4-1 3-5c-1-3-6-2-7 0m131 0q-3 3 0 6 4 2 6-4-1-6-6-2m105 1q-3 3-1 7c4 3 9-3 5-6q-2-3-4-1m-724 1a4 4 0 1 0 5 5q2-8-5-5m91 1q-1 4 4 5l3-2a4 4 0 1 0-7-3m180-1q-3 5 2 6 6 0 4-5-2-4-6-1m-160 1q-2 4 1 7c3 2 8-4 6-7zm55 0q-9 3-4 10a7 7 0 1 0 7-11zm-104 2q-2 6 3 7 4-1 4-6-3-3-7-1m187 1c-2 1-3 7 0 7q4 1 5-4-1-5-5-3m274 5v4c3 3 8-1 7-4s-6-2-7 0m70 0q-3 3 1 6a4 4 0 1 0-1-6m-553 1-1 2c0 5 5 7 7 2q1-6-6-4m325 2q-2 6 3 7 6-1 4-6-3-4-7-1m66 1q-4 2-4 8c1 3 13 3 15 0 5-7-2-13-11-8m231-1q-2 6 3 7c2 0 4-5 3-6q-2-4-6-1m-52 2c-2 0-4 6-4 8l6 1q6 1 6-3 1-8-8-6m-47 2a3 3 0 1 0 4 0q-2-3-4 0m-511 3q-3 4 3 4 4 1 4-2c0-4-6-6-7-2"
        mask="url(#16282281824-posters-1720559875533-vertical-mask)" itemprop="medium" fill-opacity="0.90"
        fill-rule="evenodd" stroke="none" fill="url(#16282281824-posters-1720559875533-vertical-medium)"></path>
      <!---->
      <path id="16282281824-posters-1720559875533-bold"
        d="M31 3a4 4 0 1 0 3-3q-4-1-3 3m583-1q-1 5 1 6 7 2 5-6-4-4-6 0m47 1q-1 7 5 3a3 3 0 1 0-5-3M222 3v4c1 2 6 2 7 0 1-4-5-7-7-4m208 1c-1 2 1 7 3 7q6-1 2-6-3-3-5-1M53 6c-5 4 1 11 8 8q5-3 4-7c-2-3-9-4-12-1m335 1q-2 6 6 11c5 3 5-6 0-10q-4-3-6-1m66 1q-2 2 1 5 7 3 5-4-1-3-6-1m267 0c-3 1-3 6 1 7q6 0 4-6 0-3-5-1m34 4a3 3 0 1 0 4 0zM38 15c-3 4 2 8 6 6q5-1 0-5-4-6-6-1m204 0q-1 4 4 5c4 0 4-6 0-7q-3 0-4 2m379 0q-4 5 0 9a6 6 0 1 0 0-9M77 16q-2 2 1 5a3 3 0 1 0-1-5m-57 4v7q4 1 6-3-1-8-6-4m477 1q-4 3 1 7c5 3 11-4 7-8q-4-3-8 1m157 0a4 4 0 1 0 5 5 4 4 0 0 0-5-5m-303 1q-4 0-4 7c2 6 13 6 14 0q-1-8-10-7m63 0q-2 5 3 6c4-1 4-6 0-7zm105 1q-3 3 0 4 5 2 6-3-2-5-6-1m-324 1c-4 3-1 10 5 10q5 0 6-6c2-5-6-8-11-4m439 5q-2 3 1 6 8 2 5-6-3-2-6 0M78 31a4 4 0 1 0 7 3c0-3-5-5-7-3m494 0q-2 4-1 7c0 2 7 3 9 1s1-8-1-8zm-315 1c-3 1 0 7 3 7l4-4q-1-4-7-3m-143 2q-3 3 1 6c4 2 8-3 5-6zm326 3v5c1 3 6 2 6 0q1-7-6-5m291 1q-2 6 4 5 3-1 2-5c0-3-6-3-6 0m-334 3q0 5 5 5 3 0 2-5c-2-3-7-3-7 0m365 0c-6 4-3 11 4 11q4 2 3-6 0-11-7-5m-49 1q-5 4 1 7c4 1 7-5 3-7zM91 45a5 5 0 1 0 8 7 5 5 0 0 0-8-7m463 1q-2 5 1 6 7 2 4-6zm-24 2q-1 5 2 6 5-1 4-5c-1-2-6-3-6-1m147 1c-5 4 1 10 8 8 5-2 2-10-4-10zm-74 2q-2 5 1 6 3 2 5-1c2-4-3-8-6-5m136 1a4 4 0 1 0 6 5 4 4 0 0 0-6-5M1 55l-1 4q1 6 7 4c5-3 0-10-6-8m20 1q-3 4-1 9c4 3 12-1 11-6-1-4-8-6-10-3m40 1q-4 5 1 6 8 0 3-5-1-3-4-1m531 0q-4 4 2 6 5-1 2-5-2-3-4-1m-49 5q-7 4-1 10c3 2 10 1 11-2 1-2-1-8-2-8zm-362 3q-13 4-7 10c7 6 20-2 13-9q-2-3-6-1m108 1c-5 7 6 16 12 10q5-5-1-9-6-3-11-1m-181 3q-1 4 4 5 4-1 3-5c-1-3-6-3-7 0m-91 3q-3 2-1 6 5 4 8-1c1-6-4-9-7-5m712 1q-3 6 3 7 3 0 3-3-1-8-6-4M63 82v6q3 2 6-1c3-3-2-7-6-5m357 5c-7 1-5 11 3 11 6 0 9-8 3-10l-3-2zM43 89c-2 0-1 6 1 6q6 1 3-5-1-3-4-1m469 1q-4 4 3 5 3 0 3-3-1-6-6-2m158 0q-3 2-1 4 4 5 6 1c3-4-2-7-5-5m-556 2a4 4 0 1 0 7 0q-4-4-7 0m530 0v8q6 3 8-2-2-9-8-6m-468 3c-6 4-3 11 5 11s10-8 4-11q-4-3-9 0m369 3q-1 7 5 5 4-2 0-5t-5 0m-322 3-2 4c1 4 7 4 8 0q-1-4-4-5zm499 3q-4 5 0 9c5 6 16-2 12-9-2-3-10-3-12 0m-710 3c-1 2 1 7 3 7l4-3c0-4-5-6-7-4m242 3q-3 3 1 6 2 2 5-3-1-4-6-3m143 6v6q5 3 7-2 0-6-7-4m-274 8q-2 3 1 6 5 0 5-3-1-5-6-3m555 0a4 4 0 1 0 5 5 4 4 0 0 0-5-5m-642 2q-2 5 4 6 5 0 3-5c0-2-6-3-7-1m477 1q-3 1 0 5c3 5 9 4 9-2 0-3-6-5-9-3m88 3q-7 3-1 5 6 0 6-3t-5-2m37 0a3 3 0 1 0 4 6 3 3 0 0 0-4-6m98 1q-1 4 3 6 4 0 4-5-3-3-7-1m-635 2q0 4 2 5 5-1 4-5c-1-2-6-3-6 0m256 1c-6 3-4 10 3 10s11-6 7-10q-3-4-10 0m-28 0v5q4 4 7 0c3-4-4-8-7-5m247 4a4 4 0 1 0 6 0q-4-4-6 0m-282 2q-2 5 3 4 5-2 3-6-3-3-6 2m-19-1q-2 1 1 5 2 3 4 0 4-6-5-5m-197 2q-2 5 1 6 9 0 6-7-4-2-7 1m591 0a4 4 0 1 0 5 0q-3-3-5 0m-566 6q-6 7 2 8 10-2 5-8-4-3-7 0m545-1c-2 1-1 6 1 7a4 4 0 1 0-1-7m-599 3q-4 4 1 9l3 6q3 6 5 2v-3l2-5c4-8-4-15-11-9m489 2q-2 2-1 4c1 4 7 2 7-2l-4-3zm-153 2a4 4 0 1 0 7 3c0-3-5-5-7-3m367 16q0 5 5 6 4-1 2-6zm-209 4 1 4q5 2 6-4c0-4-6-5-7 0m-43-1c-3 4 2 10 7 9 6-2 4-10-2-10zm-233 6q-4 4 2 6 6-1 2-6zm-124 6c-4 3 0 10 4 10 3 0 7-5 7-7 0-5-8-7-11-3m215 3a4 4 0 1 0 6 3c0-3-5-5-6-3m59 1c-6 3-1 12 6 9 5-2 5-10-1-10zm161 0q-3 3 2 7 2 3 6 1c6-3 4-9-3-9zm126 4c-5 5 1 11 8 9q4-1 3-6v-4l-5-1q-5 0-6 2m-29 5q-3 2 0 5h4q5-4 0-6-3-2-4 1m-437 0c-6 4 1 13 8 11q5-1 4-6c0-5-8-8-12-5m501 1c-2 5 4 7 6 3q3-5-3-5-3 0-3 2m-139 0c-3 2-1 8 2 8l5-5q-1-5-7-3m-431 3q-2 2 1 4 3 4 6 0c3-3-3-7-7-4m-141 2q-1 4 4 5c4 0 4-6 0-7q-3 0-4 2m593 11q1 6 6 5 5-3 2-6-5-5-8 1m-86 4q-3 2 2 5l4 3a3 3 0 1 0 3-4l-5-2q-2-5-4-2m-61 3q-9 4-3 10c5 5 14 2 13-5q-3-8-10-5m-292 4c-3 0-4 5-2 7q6 3 7-4-1-4-5-3m173 0c-2 0-1 5 1 6q1 2 3-1 5-7-4-5M3 227c-3 5 4 9 7 5q4-3 0-5-4-4-7 0m515 2c-4 3-1 8 3 7 4-2 2-9-2-9zm114-1-1 3c0 5 8 6 9 0q1-5-4-4zm40 7a3 3 0 1 0 4-1q-2-2-4 1m-319 4q0 7 5 4c4-1 2-7-3-7q-2 0-2 3m243-2q-1 5 3 6 6-1 5-6zm-552 3q-3 0-3 5 1 4 7 2c4-2 1-9-4-7m336 4c-6 2-5 11 1 11 7 0 11-9 5-11l-3-1zm166 11c-2 3 2 8 5 7q3-3 1-6-1-3-6-1m200 5-1 3c0 3 5 4 7 2 1-4-4-8-6-5m-628 3c-6 5 1 13 8 9 6-2 3-10-4-10zm392 6q0 7 7 4v-4q-4-5-7 0m145 2c-3 2-3 9 1 10 5 2 12-5 9-9q-4-3-10-1m-420 2q-1 4 4 5 5-1 3-6c-2-2-7-1-7 1m488 0q0 6 3 5 4 0 3-5c0-3-5-3-6 0m-574 1c-3 3 0 9 4 9q5-1 5-7-3-5-9-2m28 6-1 4a4 4 0 1 0 1-4m511 1a4 4 0 1 0 6 4 4 4 0 0 0-6-4m52 0q-6 5 0 9a6 6 0 1 0 0-9m-315 6c-2 6 4 11 10 8q5-3 3-8c-3-3-12-3-13 0m-217 0q-6 3-4 9c4 4 13 2 13-3q-1-8-9-6m-186 1c-1 2 1 7 3 7q3-1 3-5-2-5-6-2m28 2q-4 6 5 7 4-1 5-5c0-4-7-5-10-2m711 2q-2 5 3 6a3 3 0 1 0-3-6m-412 3q-2 1 1 4 2 6 5 1c2-4-3-8-6-5m185 7q-2 1 1 5 4 4 5-3-1-4-6-2m54 2c-6 3-3 10 4 8 4-1 6-7 2-9q-1-2-6 1m-510 4a5 5 0 0 0 5 7c5-3 0-9-5-7m417 2c-6 5 0 12 7 7a5 5 0 1 0-7-7m152 0q-4 3 0 7 5 3 6-3-1-6-6-4m50 5v5q5 2 6-2-1-5-6-3m-226 3a4 4 0 1 0 6 4 4 4 0 0 0-6-4m-141 6c-5 3 0 11 5 9q4-1 5-6c0-3-7-5-10-3m-249 2q-1 5 3 6 5 0 5-5c0-2-7-3-8-1m226 4q-4 3 0 5 5 3 5-2-1-7-5-3m331 16q1 5 4 6 4 0 4-5c0-2-7-3-8-1m-369 2v6q5 3 6-2 0-4-4-5zm-225 2q0 6 4 5t3-5q-4-4-7 0m573 1c-5 3-4 9 2 9 4 0 7-8 3-11q-1-1-5 2m75 1c-3 4 2 12 7 10 7-2 6-10-2-11zm-439 4q-4 4-2 6c2 4 10 2 10-2q-2-9-8-4m324-1v4c1 2 6 2 7 0 1-4-5-7-7-4m-161 4q-5 6 4 7 4 1 5-3 0-9-9-4m131 0c-5 4-3 10 4 10s9-8 2-11c-4-1-3-1-6 1m-358 12q-3 3-1 4c5 7 15 3 13-5-1-3-9-3-12 1m511-2q-1 5 3 6a5 5 0 0 0 3-7zm-578 8c-4 4 1 11 7 8q6-5 1-9t-8 1m396-1q0 6 4 5 3 0 2-4c0-4-5-4-6-1m-465 5q-2 5 4 6 4-1 4-6c0-3-6-3-8 0m652 7v5q3 4 5 0 3-8-5-5m-353 4q-3 2-2 6c2 7 10 7 10 0q-1-7-8-6m80 4c-8 2-7 11 1 11q8 0 5-8-1-4-6-3m276 11q-7 4-3 10c2 2 9 1 11-1a6 6 0 0 0-4-9zm-579 10-2 1-2 2q-3 4 3 7a6 6 0 1 0 1-10m334 0-1 4a4 4 0 1 0 1-4m216 1q-2 3 1 5 5 1 6-4c0-3-6-4-7-1m-187 1c-5 2-3 10 3 11 7 1 11-7 5-10q-5-3-8-1m-232 2q-1 5 4 6 3 0 3-6-3-5-7 0m178 6q-2 6 6 5 4-2 1-6c-2-2-7-1-7 1m13 8-1 3c0 3 5 4 7 1 1-3-4-7-6-4m156 3q-3 2-1 4c5 5 13 3 9-3q-3-6-8-1m-340 3q-5 8 6 9 10-1 5-8-5-6-11-1m284-1a5 5 0 1 0 2 10 5 5 0 0 0-2-10m-331 8c-7 1-5 12 2 12 6 0 11-10 5-12zm316 3a4 4 0 1 0 8 2c-1-3-7-4-8-2m154 4q-1 5 3 6 5-1 3-6-4-3-6 0m-281 1q-4 3 0 8a6 6 0 1 0 0-8M2 458c-2 2-3 7 0 7q8 3 9-5-1-6-9-2m330 11q1 4 4 6 4 0 4-4c0-4-6-6-8-2m187 0-2 2 5 5a4 4 0 1 0-3-7m127 4v4q4 4 6 0c2-5-4-8-6-4m58 6q-3 2-1 5a5 5 0 1 0 1-5m-139 2c-2 1 0 6 2 6q4-1 5-5c0-3-5-4-7-1m107 3a3 3 0 1 0 5 3 3 3 0 0 0-5-3m-625 3q-3 4 0 5a4 4 0 1 0 0-5m272 1-1 4q-3 2 2 0h11q3-5-4-5h-5q-4-4-3 1m-302 2a3 3 0 1 0 5 5 3 3 0 0 0-5-5m113 1q-3 3-1 5 6 2 7-5-1-2-6 0m54 0c-8 1-7 11 1 11q6-1 7-7l-5-5zm428 7q-3 2-1 5a3 3 0 1 0 1-5m-161 4c-9 4-8 10 2 10q8 0 8-7c0-2-5-5-6-5zm176 3q-6 7 3 7 6 0 5-3-2-10-8-4"
        mask="url(#16282281824-posters-1720559875533-horizontal-mask)" itemprop="bold" fill-opacity="0.90"
        fill-rule="evenodd" stroke="none" fill="url(#16282281824-posters-1720559875533-vertical-bold)"></path>
    </pattern>
    <rect id="16282281824-posters-1720559875533-pattern-render" fill="url(#16282281824-posters-1720559875533-pattern)"
      width="100%" height="100%"></rect>
  </defs>
  <radialGradient id="lightbar" cx="50%" cy="200%" fy="0" r="201%">
    <stop offset="0%" style="stop-color: rgb(255, 255, 255); stop-opacity: 0.1;"></stop>
    <stop offset="10%" style="stop-color: rgb(0, 0, 0); stop-opacity: 0.1;"></stop>
    <stop offset="30%" style="stop-color: rgb(0, 0, 0); stop-opacity: 0.3;"></stop>
    <stop offset="90%" style="stop-color: rgb(0, 0, 0); stop-opacity: 0.55;"></stop>
    <stop offset="100%" style="stop-color: rgb(0, 0, 0); stop-opacity: 0.6;"></stop>
  </radialGradient>
  <g class="radial">
    <radialGradient id="16282281824-posters-1720559875533-radial" gradientUnits="userSpaceOnUse">
      <stop itemprop="radial" stop-color="#d2d1d0" offset="0%"></stop>
      <stop itemprop="radial" stop-color="#d7d7d5" offset="15%"></stop>
      <stop itemprop="radial" stop-color="#d7d7d5" offset="30%"></stop>
      <stop itemprop="radial" stop-color="#dad9d8" offset="45%"></stop>
      <stop itemprop="radial" stop-color="#dcdcdb" offset="60%"></stop>
      <stop itemprop="radial" stop-color="#d7d7d5" offset="75%"></stop>
      <stop itemprop="radial" stop-color="#dad9d8" offset="90%"></stop>
    </radialGradient>
    <radialGradient id="16282281824-posters-1720559875533-radial-background" gradientUnits="userSpaceOnUse">
      <stop stop-color="#d3cfc5" offset="0%"></stop>
      <stop stop-color="#d3cfc5" offset="15%"></stop>
      <stop stop-color="#d3cfc5" offset="30%"></stop>
      <stop stop-color="#d3cfc5" offset="45%"></stop>
      <stop stop-color="#d3cfc5" offset="60%"></stop>
      <stop stop-color="#d3cfc5" offset="75%"></stop>
      <stop stop-color="#d3cfc5" offset="90%"></stop>
    </radialGradient>
    <radialGradient id="16282281824-posters-1720559875533-radial-light" gradientUnits="userSpaceOnUse">
      <stop stop-color="#9b9a97" offset="0%"></stop>
      <stop stop-color="#9b9a97" offset="15%"></stop>
      <stop stop-color="#9b9a97" offset="30%"></stop>
      <stop stop-color="#9b9a97" offset="45%"></stop>
      <stop stop-color="#9b9a97" offset="60%"></stop>
      <stop stop-color="#9b9a97" offset="75%"></stop>
      <stop stop-color="#9b9a97" offset="90%"></stop>
    </radialGradient>
    <radialGradient id="16282281824-posters-1720559875533-radial-regular" gradientUnits="userSpaceOnUse">
      <stop stop-color="#82817d" offset="0%"></stop>
      <stop stop-color="#82817d" offset="15%"></stop>
      <stop stop-color="#82817d" offset="30%"></stop>
      <stop stop-color="#82817d" offset="45%"></stop>
      <stop stop-color="#82817d" offset="60%"></stop>
      <stop stop-color="#82817d" offset="75%"></stop>
      <stop stop-color="#82817d" offset="90%"></stop>
    </radialGradient>
    <radialGradient id="16282281824-posters-1720559875533-radial-medium" gradientUnits="userSpaceOnUse">
      <stop stop-color="#51504d" offset="0%"></stop>
      <stop stop-color="#51504d" offset="15%"></stop>
      <stop stop-color="#51504d" offset="30%"></stop>
      <stop stop-color="#51504d" offset="45%"></stop>
      <stop stop-color="#51504d" offset="60%"></stop>
      <stop stop-color="#51504d" offset="75%"></stop>
      <stop stop-color="#51504d" offset="90%"></stop>
    </radialGradient>
    <radialGradient id="16282281824-posters-1720559875533-radial-bold" gradientUnits="userSpaceOnUse">
      <stop stop-color="#2f2e2d" offset="0%"></stop>
      <stop stop-color="#2f2e2d" offset="15%"></stop>
      <stop stop-color="#2f2e2d" offset="30%"></stop>
      <stop stop-color="#2f2e2d" offset="45%"></stop>
      <stop stop-color="#2f2e2d" offset="60%"></stop>
      <stop stop-color="#2f2e2d" offset="75%"></stop>
      <stop stop-color="#2f2e2d" offset="90%"></stop>
    </radialGradient>
  </g>
  <g class="vertical">
    <linearGradient id="16282281824-posters-1720559875533-vertical" gradientUnits="userSpaceOnUse" x1="0" x2="0" y1="0"
      y2="100%">
      <stop itemprop="vertical" stop-color="#d2d1d0" offset="0%"></stop>
      <stop itemprop="vertical" stop-color="#d7d6d5" offset="15%"></stop>
      <stop itemprop="vertical" stop-color="#d7d7d5" offset="30%"></stop>
      <stop itemprop="vertical" stop-color="#dad9d8" offset="45%"></stop>
      <stop itemprop="vertical" stop-color="#dcdcdb" offset="60%"></stop>
      <stop itemprop="vertical" stop-color="#d7d7d5" offset="75%"></stop>
      <stop itemprop="vertical" stop-color="#dad9d8" offset="90%"></stop>
    </linearGradient>
    <linearGradient id="16282281824-posters-1720559875533-vertical-background" gradientUnits="userSpaceOnUse" x1="0"
      x2="0" y1="0" y2="100%">
      <stop stop-color="#cdcccb" offset="0%"></stop>
      <stop stop-color="#cdcccb" offset="15%"></stop>
      <stop stop-color="#cdcccb" offset="30%"></stop>
      <stop stop-color="#cdcccb" offset="45%"></stop>
      <stop stop-color="#cdcccb" offset="60%"></stop>
      <stop stop-color="#cdcccb" offset="75%"></stop>
      <stop stop-color="#cdcccb" offset="90%"></stop>
    </linearGradient>
    <linearGradient id="16282281824-posters-1720559875533-vertical-light" gradientUnits="userSpaceOnUse" x1="0" x2="0"
      y1="0" y2="100%">
      <stop stop-color="#aea284" offset="0%"></stop>
      <stop stop-color="#ae9d84" offset="15%"></stop>
      <stop stop-color="#aea284" offset="30%"></stop>
      <stop stop-color="#aea284" offset="45%"></stop>
      <stop stop-color="#aea284" offset="60%"></stop>
      <stop stop-color="#aea284" offset="75%"></stop>
      <stop stop-color="#ae9d84" offset="90%"></stop>
    </linearGradient>
    <linearGradient id="16282281824-posters-1720559875533-vertical-regular" gradientUnits="userSpaceOnUse" x1="0" x2="0"
      y1="0" y2="100%">
      <stop stop-color="#82817d" offset="0%"></stop>
      <stop stop-color="#82807d" offset="15%"></stop>
      <stop stop-color="#82817d" offset="30%"></stop>
      <stop stop-color="#82817d" offset="45%"></stop>
      <stop stop-color="#82817d" offset="60%"></stop>
      <stop stop-color="#82817d" offset="75%"></stop>
      <stop stop-color="#82807d" offset="90%"></stop>
    </linearGradient>
    <linearGradient id="16282281824-posters-1720559875533-vertical-medium" gradientUnits="userSpaceOnUse" x1="0" x2="0"
      y1="0" y2="100%">
      <stop stop-color="#51504d" offset="0%"></stop>
      <stop stop-color="#514f4d" offset="15%"></stop>
      <stop stop-color="#51504d" offset="30%"></stop>
      <stop stop-color="#51504d" offset="45%"></stop>
      <stop stop-color="#51504d" offset="60%"></stop>
      <stop stop-color="#51504d" offset="75%"></stop>
      <stop stop-color="#514f4d" offset="90%"></stop>
    </linearGradient>
    <linearGradient id="16282281824-posters-1720559875533-vertical-bold" x1="0" x2="0" y1="0" y2="100%">
      <stop stop-color="#2f2e2d" offset="0%"></stop>
      <stop stop-color="#2f2e2d" offset="15%"></stop>
      <stop stop-color="#2f2e2d" offset="30%"></stop>
      <stop stop-color="#2f2e2d" offset="45%"></stop>
      <stop stop-color="#2f2e2d" offset="60%"></stop>
      <stop stop-color="#2f2e2d" offset="75%"></stop>
      <stop stop-color="#2f2e2d" offset="90%"></stop>
    </linearGradient>
  </g>
  <g class="horizontal">
    <linearGradient id="16282281824-posters-1720559875533-horizontal" x1="0" x2="100%" y1="0" y2="0"
      gradientUnits="userSpaceOnUse">
      <stop itemprop="horizontal" stop-color="#d5d4d3" offset="0%"></stop>
      <stop itemprop="horizontal" stop-color="#d7d7d5" offset="15%"></stop>
      <stop itemprop="horizontal" stop-color="#dad9d8" offset="30%"></stop>
      <stop itemprop="horizontal" stop-color="#dad9d8" offset="45%"></stop>
      <stop itemprop="horizontal" stop-color="#d7d7d5" offset="60%"></stop>
      <stop itemprop="horizontal" stop-color="#d5d4d3" offset="75%"></stop>
      <stop itemprop="horizontal" stop-color="#d5d4d3" offset="90%"></stop>
    </linearGradient>
    <linearGradient id="16282281824-posters-1720559875533-horizontal-background" gradientUnits="userSpaceOnUse" x1="0"
      x2="100%" y1="0" y2="0">
      <stop stop-color="#cdcccb" offset="0%"></stop>
      <stop stop-color="#cdcccb" offset="15%"></stop>
      <stop stop-color="#ceccca" offset="30%"></stop>
      <stop stop-color="#cdcccb" offset="45%"></stop>
      <stop stop-color="#cdcccb" offset="60%"></stop>
      <stop stop-color="#cdcccb" offset="75%"></stop>
      <stop stop-color="#cdcccb" offset="90%"></stop>
    </linearGradient>
    <linearGradient id="16282281824-posters-1720559875533-horizontal-light" gradientUnits="userSpaceOnUse" x1="0"
      x2="100%" y1="0" y2="0">
      <stop stop-color="#9b9a97" offset="0%"></stop>
      <stop stop-color="#9b9a97" offset="15%"></stop>
      <stop stop-color="#9c9a96" offset="30%"></stop>
      <stop stop-color="#9b9a97" offset="45%"></stop>
      <stop stop-color="#9b9a97" offset="60%"></stop>
      <stop stop-color="#9b9a97" offset="75%"></stop>
      <stop stop-color="#9b9a97" offset="90%"></stop>
    </linearGradient>
    <linearGradient id="16282281824-posters-1720559875533-horizontal-regular" gradientUnits="userSpaceOnUse" x1="0"
      x2="100%" y1="0" y2="0">
      <stop stop-color="#968969" offset="0%"></stop>
      <stop stop-color="#968969" offset="15%"></stop>
      <stop stop-color="#968669" offset="30%"></stop>
      <stop stop-color="#968969" offset="45%"></stop>
      <stop stop-color="#968969" offset="60%"></stop>
      <stop stop-color="#968969" offset="75%"></stop>
      <stop stop-color="#968769" offset="90%"></stop>
    </linearGradient>
    <linearGradient id="16282281824-posters-1720559875533-horizontal-medium" gradientUnits="userSpaceOnUse" x1="0"
      x2="100%" y1="0" y2="0">
      <stop stop-color="#5d5541" offset="0%"></stop>
      <stop stop-color="#5d5541" offset="15%"></stop>
      <stop stop-color="#5d5341" offset="30%"></stop>
      <stop stop-color="#5d5541" offset="45%"></stop>
      <stop stop-color="#5d5541" offset="60%"></stop>
      <stop stop-color="#5d5541" offset="75%"></stop>
      <stop stop-color="#5d5441" offset="90%"></stop>
    </linearGradient>
    <linearGradient id="16282281824-posters-1720559875533-horizontal-bold" gradientUnits="userSpaceOnUse" x1="0"
      x2="100%" y1="0" y2="0">
      <stop stop-color="#2f2e2d" offset="0%"></stop>
      <stop stop-color="#2f2e2d" offset="15%"></stop>
      <stop stop-color="#2f2e2d" offset="30%"></stop>
      <stop stop-color="#2f2e2d" offset="45%"></stop>
      <stop stop-color="#2f2e2d" offset="60%"></stop>
      <stop stop-color="#2f2e2d" offset="75%"></stop>
      <stop stop-color="#2f2e2d" offset="90%"></stop>
    </linearGradient>
  </g>
  <g class="masks">
    <mask id="16282281824-posters-1720559875533-pattern-mask" maskUnits="userSpaceOnUse"
      maskContentUnits="userSpaceOnUse">
      <pattern id="pattern" x="0" y="0" width=".0133" height=".0144" viewBox="0 0 23.07 40">
        <path
          d="M17.62 0l-6.07 10.5m2.74 4.76L8.22 4.75m-5.48 0h12.13M.01 0h23.07M6.07 20L0 9.5m2.74-4.75l-6.07 10.5m-5.48 0H3.33m8.2 4.75L0 .02-11.54 20m40.68 0L23.07 9.5m2.74-4.75l-6.06 10.5m-5.49 0H26.4M34.6 20L23.08.02 11.53 20m-5.46 0L0 30.51m2.74 4.75l-6.07-10.5m-5.48 0H3.33m8.2-4.75L0 40l-11.54-19.98zM17.6 40l-6.06-10.5m2.74-4.76L8.2 35.25m-5.48 0h12.13M0 40h23.07L11.54 20.01m17.6 0l-6.07 10.5m2.74 4.75l-6.06-10.5m-5.49 0H26.4M11.53 20h23.08L23.07 40"
          stroke-linecap="round" stroke-width="3.5" stroke="white"
          fill="url(#16282281824-posters-1720559875533-horizontal-background)"></path>
      </pattern>
      <rect width="100%" height="100%" fill="url(#pattern)"></rect>
    </mask>
    <mask id="16282281824-posters-1720559875533-horizontal-mask" maskUnits="userSpaceOnUse"
      maskContentUnits="userSpaceOnUse">
      <rect width="100%" height="100%" fill="url(#16282281824-posters-1720559875533-horizontal-background)"></rect>
    </mask>
    <mask id="16282281824-posters-1720559875533-radial-mask" maskUnits="userSpaceOnUse"
      maskContentUnits="userSpaceOnUse">
      <rect width="100%" height="100%" fill="url(#16282281824-posters-1720559875533-radial-background)"></rect>
    </mask>
    <mask id="16282281824-posters-1720559875533-vertical-mask" maskUnits="userSpaceOnUse"
      maskContentUnits="userSpaceOnUse">
      <rect width="100%" height="100%" fill="url(#16282281824-posters-1720559875533-vertical-background)"></rect>
    </mask>
  </g>
  <use href="#16282281824-posters-1720559875533-pattern-render"></use>
  <g>
    <use href="#16282281824-posters-1720559875533-background"></use>
    <use href="#16282281824-posters-1720559875533-light"></use>
    <use href="#16282281824-posters-1720559875533-regular"></use>
    <use href="#16282281824-posters-1720559875533-medium"></use>
    <use href="#16282281824-posters-1720559875533-bold"></use>
  </g>
  <g itemprop="animation">
    <animate href="#16282281824-posters-1720559875533-light" attributeName="stroke-opacity" repeatCount="indefinite"
      dur="5s" values="0.9;0.0;0.9"></animate>
    <animate href="#16282281824-posters-1720559875533-regular" attributeName="stroke-opacity" repeatCount="indefinite"
      dur="4s" values="0.9;0;0.9"></animate>
    <animate href="#16282281824-posters-1720559875533-medium" attributeName="stroke-opacity" repeatCount="indefinite"
      dur="5s" values="0.9;0;0.9"></animate>
    <animate href="#16282281824-posters-1720559875533-bold" attributeName="stroke-opacity" repeatCount="indefinite"
      dur="3s" values="0.9;0;0.9"></animate>
    <animate href="#16282281824-posters-1720559875533-regular" attributeName="fill-opacity" repeatCount="indefinite"
      dur="8s" values="0.9;0.75;0.95;0.8;0.9;"></animate>
    <animate href="#16282281824-posters-1720559875533-radial-background" attributeName="cx" repeatCount="indefinite"
      dur="34s" values="0%;33%;100%;0%;100%;0%;"></animate>
    <animate href="#16282281824-posters-1720559875533-radial-background" attributeName="cy" repeatCount="indefinite"
      dur="55s" values="0%;100%;33%;100%;66%;0%"></animate>
    <animate href="#16282281824-posters-1720559875533-vertical-light" attributeName="x1" repeatCount="indefinite"
      dur="55s" values="0%;33%;100%;0%;133%;0%;"></animate>
    <animate href="#16282281824-posters-1720559875533-vertical-light" attributeName="y1" repeatCount="indefinite"
      dur="86s" values="0%;100%;33%;100%;66%;0%"></animate>
    <animate href="#16282281824-posters-1720559875533-horizontal-regular" attributeName="x1" repeatCount="indefinite"
      dur="34s" values="0%;100%;66%;0%;33%;133%;0%"></animate>
    <animate href="#16282281824-posters-1720559875533-horizontal-regular" attributeName="y1" repeatCount="indefinite"
      dur="55s" values="0%;66%;100%;33%;100%;66%;0%"></animate>
    <animate href="#16282281824-posters-1720559875533-vertical-medium" attributeName="x1" repeatCount="indefinite"
      dur="34s" values="0%;100%;66%;0%;33%;133%;0%"></animate>
    <animate href="#16282281824-posters-1720559875533-vertical-medium" attributeName="y1" repeatCount="indefinite"
      dur="55s" values="0%;66%;100%;33%;100%;66%;0%"></animate>
    <animate href="#16282281824-posters-1720559875533-vertical-bold" attributeName="x1" repeatCount="indefinite"
      dur="34s" values="0%;100%;66%;0%;33%;133%;0%"></animate>
    <animate href="#16282281824-posters-1720559875533-vertical-bold" attributeName="y1" repeatCount="indefinite"
      dur="55s" values="0%;66%;100%;33%;100%;66%;0%"></animate>
  </g>
</svg>
