<svg id="16282281824-posters-1720558084949" itemscope="" itemtype="/posters"
  itemid="/+16282281824/posters/1720558084949" viewBox="0 0 769 512" preserveAspectRatio="xMidYMid meet" tabindex="0"
  class="animate landscape" xmlns="http://www.w3.org/2000/svg">
  <!---->
  <defs class="graphic">
    <pattern id="16282281824-posters-1720558084949-pattern" width="769" height="512" viewBox="0 0 769 512"
      patternUnits="userSpaceOnUse" preserveAspectRatio="xMidYMid meet">
      <rect itemprop="background" width="769" height="512" tabindex="-1"
        id="16282281824-posters-1720558084949-background" fill-opacity="1"
        fill="url(#16282281824-posters-1720558084949-radial-background)"></rect>
      <!---->
      <path id="16282281824-posters-1720558084949-light"
        d="m60 1 10 9c5 3 9-2 5-7-2-3-15-5-15-2m60 0q1 3 14 17l18 18q3 4 9 3 5-1-8-15l-8-9C134 1 133 0 126 0zm110 5q13 12 16 10 7-3-3-11l-5-5h-14zm64-5q1 4 14 18l16 16 9 8 6-3c0-2-8-12-17-21L310 6c-6-6-6-6-11-6zm112 0 12 10q9 3 3-8c-2-3-2-3-9-3zm65 1c-2 3 0 6 14 20 22 23 22 24 25 23 6-1 5-4-12-22-21-23-25-26-27-21m105-1 10 9q9 9 11 3 1-2-6-9-3-5-9-4zm62 0 11 14 24 27q6 6 9 2c1-3 0-5-13-19l-12-14-9-11h-5zm108 0c0 2 10 11 13 12q4 0 6-3l-4-5q-4-6-10-5zM44 29 14 55c-5 4-3 9 3 7l4-2 6-5 15-13q10-7 10-12-2-5-8-1m352 0c-3 1-31 28-34 31q-3 5 4 6c3 0 34-29 36-33q0-7-6-4m333 9-12 11q-18 14-13 17c3 2 5 0 16-9l23-21q5-6-1-7-2-1-13 9m-508-3-25 21c-2 0-6 7-5 9 0 2 5 3 6 1l5-4 18-15c9-8 10-9 10-12q-2-6-9 0m345-1-10 9-15 13q-7 7-6 9 1 8 13-3l10-10q17-14 16-17-1-6-8-1m51 1-3 7-10 24-2 7q-3 5-1 6 6 5 9-4l4-8 2-6 1-4c5-8 9-21 7-23q-2-4-7 1m-177 2-11 28-4 10q-3 7 0 10 4 1 7-2l11-30c2-3 4-13 4-15q-3-5-7-1M93 42l-4 7-5 15-1 4-1 5-2 4-1 3-1 4c1 5 7 5 9 1l3-9 4-10 6-17c4-11-2-15-7-7m176-2-6 13-10 29q-3 7 0 7 5 5 9-5l2-7 4-12 5-13c3-9 3-9 2-12q-2-3-6 0M115 68q-1 5 3 6l20 6 8 3 13 4q12 3 8-5l-11-5-2-1-4-1-5-1-9-4-10-3c-4-2-11-1-11 1m522 0c-1 4 0 4 10 9l5 1 5 2 4 1 6 3 5 1 2 1 6 3c12 5 19 0 9-6l-10-4-29-10q-11-3-13-1m-175 1q-3 5 3 6l5 2 20 6 5 2 9 3q13 3 13 0 1-5-8-8l-4-1-2-1-9-2q-30-11-32-7m-174 5q-4 4 6 8l5 1 5 1 5 2 4 1 6 2 6 2 9 2q9 2 8-3c-1-2-9-6-13-7l-5-1c-3-2-29-9-33-9zm272 4q-3 4-1 9l2 7 2 11 6 21q2 7 6 7 7 1 1-20l-5-20-2-7-1-3c0-2-4-7-6-7zm169 2c0 1 1 11 4 21l2 14 3 13c0 4 5 5 7 2q2-2 1-4l-1-8-2-10-4-20c0-7-8-14-10-8m-343 2q-2 2 1 9l8 36c1 7 8 9 10 3l-3-16-3-13c-4-19-5-21-9-21zM41 83v8l6 25 2 9q1 9 7 8 5-1 2-13l-3-15c-4-17-5-20-7-22q-4-4-7 0m176 4q-3 2-1 6l2 9 5 22q3 10 7 10c4 0 5-7 2-13l-2-7-5-23q-3-11-8-4m309 25-5 6-6 7-3 5-5 5-4 5-4 5q-5 7-2 9 4 3 12-7l13-16q18-22 9-22zm-507-1-2 2-5 6C1 130 0 131 0 139s0 8 14-8l5-6 5-7v-7zm676 2-6 7-22 26q-11 12-4 13 5-1 19-17l8-10q15-18 13-21-3-3-8 2m-386 0-6 3-5 2-6 3-6 3-19 10c-7 4-4 10 3 7l6-3 8-4 10-5q27-10 23-16zm43 7-26 31c-4 4-4 10 1 10 1 0 9-7 12-12l9-10c18-20 20-25 15-26-3-2-4-1-11 7m-172-5c-1 0-29 33-31 37q-3 5 2 6 4 1 13-11l15-18c10-10 10-18 1-14m466 4-4 1-6 4-5 2-16 7c-14 7-15 8-15 10l1 3c2 1 11-2 15-5l5-2 10-4 13-6q16-9 5-11zm-173 4-11 5-30 15c-4 4 3 7 9 4l9-5 15-7 10-4c2 0 9-5 10-7q1-7-12-1m-350 0-5 3-32 17q-4 5 3 5 3 1 22-9c22-11 24-12 24-15q-3-6-12-1m423 20q-7 1 17 22l14 11 5 5q5 4 8 4 7-2 1-8l-10-9q-30-28-35-25m169 2q-2 1-1 3a228 228 0 0 0 37 29q10 7 11 1 1-2-12-12l-9-7-23-16zm-515 1q-3 4 7 12l10 8 6 4 8 6q8 6 11 3 5-2-9-13l-12-10-16-11q-3-2-5 1m-168 2q-4 3 6 11l15 12 15 13c1 2 7 2 9 1q5-4-8-13l-10-8-16-13q-9-7-11-3m343-1q-3 4 8 12l9 7 7 6 8 7q9 7 13 6 7-2-5-11l-13-11c-19-16-24-19-27-16m86 23c-4 3-1 6 17 25l16 17q5 6 7 4 8-1 0-9l-13-14c-22-23-24-25-27-23m175 0q-3 2 3 9l4 5 15 18c6 7 14 14 15 14 5 0 4-7-2-13l-8-8c-13-16-25-28-27-25m-519 1q-6 3 14 22l15 15q12 13 13 5c0-3-1-5-17-22l-11-12-12-9zm176 0q-5 3 9 16l18 18q12 14 14 9c3-3 3-3-8-15l-7-8q-20-24-26-20m-74 27-22 18c-14 12-14 13-11 16q4 1 10-3l17-15q13-11 12-14-1-4-6-2m514 1-6 5-8 6-17 15c-7 6-3 11 5 6l22-18q12-10 13-14-3-3-9 0m-693 9-23 19q-8 6-6 9 3 6 14-4l10-9 6-4q18-13 12-16c-3-3-2-3-13 5m515-3c-16 14-31 31-30 32q3 4 11-2l9-8c20-19 23-21 20-25q-3-3-10 3m-286-1-3 4-2 7-4 10-2 9c-7 20-8 23-4 25q5 1 9-12l3-8 1-3 1-5c4-8 8-24 7-26q-2-3-6-1m123 5-5 5-11 10c-15 14-17 15-14 18 4 3 12-4 35-26 9-8 5-15-5-7m-299 1-3 6-11 32-1 6 2 2c5 4 7 0 14-21l6-15c5-7-2-17-7-10m344 3-2 4-4 12-2 7-1 4-2 3-1 5c-2 2-3 11-2 13q5 7 15-24c7-21 8-22 6-24q-4-4-7 0m175 0c-2 2-10 20-12 30l-4 13q-4 10-2 10 5 6 10-7l5-15 2-5 1-2 1-5 2-5q5-11 1-14zm155 26-2 5q-4 7 1 10h3v-9q1-14-2-6m-648-1q-5 5 9 9l5 2 9 3 14 4q15 6 17 3 4-6-11-9l-5-2-8-3-9-3q-17-7-21-4m342 4c-3 5 0 7 23 14l18 6c8 2 8 2 10 1 6-5-2-9-33-18l-10-3zm175 3q-3 3 11 8l28 10q14 6 17 2 5-4-16-12l-5-1-8-2q-25-8-27-5m-349 3q0 3 5 5l29 10c9 4 20 6 22 4q2-4-3-6l-7-3-30-11c-6-2-15-1-16 1m270 1q-2 2-1 5l10 39q2 7 6 7c5 0 5-2-2-26l-2-9q-5-23-11-16m-517 3c-1 3 0 9 4 28l4 13q2 12 6 11 6-1 4-9l-2-9c-5-25-6-31-8-34q-5-6-8 0m171-1q-2 1 1 9l4 21 4 13q3 13 8 10c3-1 2-7-3-31l-3-13q-5-16-11-9m516-1 2 20 3 14 2 9 1 6 3 3q8 3 3-20l-2-10-5-19q-4-6-7-3m-339 3-1 5 4 18c2 3 5 16 6 21q2 11 8 8 3-3 1-10l-2-6-1-6-1-2-6-24q-2-8-8-4M7 284q-8 6-7 15v7l3-4c12-13 15-17 12-20q-2-3-8 2m176 4-4 5-7 8-12 15-3 3q-6 7 0 9 2 2 16-15l7-7 11-17q-2-5-8-1m114-1-3 1-9 4-5 2-12 6q-12 5-11 9a10 10 0 0 0 12-1l6-2 22-10c3 0 10-6 10-7q-3-5-10-2m187 0-12 6c-31 15-33 16-32 19q1 6 22-5l19-9q12-6 12-10-1-3-9-1m212 4-6 7-8 10-4 5q-14 16-12 19 3 5 14-9l8-9c10-11 18-23 18-25q-2-7-10 2m-166-1-27 30q-8 10 0 11 3 1 16-15l11-13q10-11 7-14-4-2-7 1m-178 2c-4 3-21 24-26 31q-5 8 1 8c3 0 3-1 16-14l9-12 7-10q2-10-7-3m-218-1-5 2-21 11c-18 8-19 9-19 12 0 6 1 6 43-15q12-5 9-9-3-3-7-1m500 4-10 5q-30 11-30 17 1 6 13-1l7-3 6-2 17-9q10-6 5-9-1-1-8 2M23 314q-1 4 15 16l15 12 8 7q8 7 12 4 3-3-3-8l-5-5-22-19c-10-8-12-9-16-9q-5 0-4 2m526 1-2 1 3 4 7 8 22 19q9 9 12 7 7-3-10-18l-10-7c-7-8-18-16-19-16zm-170 1c-3 3-2 5 18 23l14 13q8 9 12 5 6-3-10-15l-11-10c-12-11-15-14-18-15-4-2-3-2-5-1m341 1q-5 2 6 12l8 7 10 9c11 10 13 12 15 11q7-3-4-13l-10-8q-20-18-23-19zm-518 2q-5 3 16 20l10 8c12 10 15 12 17 12q10-1-3-12l-7-6-25-21q-5-3-8-1m86 15a5 5 0 0 0 1 6l4 6 9 11 17 20q6 8 11 5 3-4-5-13l-9-10-8-10-9-10q-8-9-11-5m351 5q-3 2 4 10l6 8a163 163 0 0 0 26 29q2 2 5 0l-7-13-2-2-2-3-3-4-21-23q-5-5-6-2m-517 1q-4 2 9 17l9 10c13 15 16 18 20 18 8 0 4-7-20-32-12-14-14-15-18-13m343 1q-3 3 3 10l24 27q10 13 13 8l2-2-3-4-7-10-7-8q-21-25-25-21m152 23-4 9-5 15c-11 30-12 34-7 34q5 0 6-6l2-4 2-8 3-8 8-23q3-9 0-9-2-3-5 0m-573 7c-7 4-35 30-35 32l1 2q3 5 15-6l17-14q18-14 8-16zm695 0-9 9-17 15q-17 15-8 15c3 0 8-4 35-28q8-8 5-11zm-519 3-13 11-14 13c-4 5-5 5-3 8 4 3 6 1 22-12 14-14 16-16 16-19q-2-5-8-1m45 1q-3 4-4 10l-2 4-1 2-3 11-3 10-2 4q-3 7 3 9 4-1 6-5l4-11 2-5 1-5 7-21q0-8-8-3m117 9-16 14q-7 7-6 9 1 9 17-7l5-4 9-8q13-12 4-13c-3 0-4 1-13 9m181-4-6 5-5 4-9 7-6 6q-5 4-4 7 2 4 8 0l30-25c10-9 3-12-8-4m-471-1-4 8-12 36c-1 2 2 7 5 7q4-1 7-12l7-18 1-5 1-4c5-9 1-18-5-12m348 2c-2 2-9 20-10 27l-2 4-1 3-1 4q-4 9 0 12 6-1 10-14l6-17 5-17q-1-6-7-2m327 26-2 5q-2 4 1 6 4 4 3-7 0-9-2-4m-647 2q-3 5 4 7l5 2 8 3 18 6 7 3c3 2 10 1 11-2q0-3-7-6l-14-6-9-3-4-1-3-1-5-2c-9-2-10-2-11 0m518 0q-5 3 9 9c5 2 18 7 28 13q12 5 13 1 2-7-17-13l-6-3-13-5q-11-3-14-2m-171 3q-1 3 5 6l34 11 6 3q10 3 10-3c0-3-2-4-26-12l-17-6c-3-2-11-1-12 1m-176 2 1 3c1 2 13 7 18 8l5 1 14 5 5 2q8 3 11-2c0-3-2-4-31-14-16-6-21-6-23-3m-249 5v13l3 12c5 28 9 35 14 31 2-2 3-8 1-10l-1-5c-2-16-7-35-10-40q-3-3-7-1m518 2q-3 2-1 14l4 14 2 9 1 7q2 10 8 7c2-2 3-9 1-12l-2-7-5-23q-3-12-8-9m169 2 1 9 5 28q3 18 9 11c3-3-5-48-9-50q-5-3-6 2m-517 1c-1 3 1 19 4 24l2 8 2 9c0 9 6 16 10 12q4-2 0-13l-2-12-2-9-3-9q-1-7-3-9-5-3-8-1m176 2c-3 3-3 4 3 27s8 26 12 22q3-2 1-10l-3-12-6-23q-2-4-5-6zm307 31-10 10-18 21q-6 6 0 8 4 0 18-16l8-9c10-12 12-15 8-17q-2-1-6 3m-681-2-8 8-6 7v6l1 7 8-9 10-12q4-4 0-6-2-3-5-1m293 0-5 2-22 10q-20 9-20 11-3 9 11 3l21-10 22-11q5-7-7-5m-124 2-10 10-19 22c-4 5-1 12 5 8l3-2 10-11c7-9 16-21 16-24q-1-4-3-4zm299 2-14 6-28 13c-11 5-5 11 7 6l10-5 22-10q12-5 8-10zm157 4-19 8q-27 11-20 16c2 1 3 1 28-11l9-4 6-3q9-4 7-8-2-3-11 2m-508-1-16 7-2 1-4 2c-5 2-23 11-23 13q-2 6 5 4l34-14 12-7q3-1 2-6zm392 3-7 6-21 25-2 7q3 3 11-4l22-25q8-9 4-12-1-2-7 3m-169 1-10 10-9 11q-14 15-5 15 5 1 15-12l11-13q9-11 7-14-3-3-9 3m362 13-1 3c0 3 0 3 15 17s14 13 21 13h6l-4-4-28-25-7-5zm-169 4q-3 3 4 9l22 19 7 1h7l-2-2-6-5-10-8c-15-14-19-16-22-14m-517 3q-5 3 5 11l9 8c8 7 9 7 16 7h8l-3-2-13-11-20-15zm171 1q-6 1 13 16c13 10 12 9 20 9h8l-3-2-20-16c-3-5-16-10-18-7m180 1q-4 3 5 11l10 9 3 2c2 2 15 3 15 1l-13-12-7-5c-4-5-12-8-13-6m-90 15c-4 4 2 9 9 9h6l-4-5q-7-7-11-4m-172 3-1 3v3h7q10 1 4-4-5-3-10-2"
        mask="url(#16282281824-posters-1720558084949-horizontal-mask)" itemprop="light" fill-opacity="0.90"
        fill-rule="evenodd" stroke="none" fill="url(#16282281824-posters-1720558084949-vertical-light)"></path>
      <!---->
      <path id="16282281824-posters-1720558084949-regular"
        d="M63 3c6 7 13 9 13 4q0-7-10-7h-6zm57-2 35 37q4 3 6-1c1-2-1-4-12-17-19-21-17-20-23-20zm110 4q18 17 18 8c0-5-10-13-18-13h-5zm65-4c0 2 9 12 17 21l13 12q10 12 13 7c1-3-2-6-17-22L309 7q-6-8-10-7zm116 4q12 11 12 3-1-8-11-8h-6zm62-3c-4 2-2 4 15 22l14 15 7 6q4-1 4-4c-1-3-30-34-36-39q-3-3-4 0m104-1 6 6 6 5q3 3 6 2 5-1-3-9c-5-5-5-5-10-5zm62 0 10 12 22 26q9 9 11 4c0-2-13-18-20-25l-9-10q-7-9-10-8zm107 0 8 7c8 7 13 4 6-4q-5-5-9-4zM41 32C28 42 12 57 12 59q3 9 35-22c8-8 3-12-6-5m339 12c-18 17-18 17-18 19q0 3 3 2c4 0 36-30 36-34-1-4-5-2-21 13m354-9-12 11q-24 18-16 20 3 1 22-17l13-11q5-5 3-8-1-4-10 5m-170 1c-12 10-29 28-29 30q0 6 16-8c20-18 24-22 22-24q-1-4-9 2m-343-1c-13 11-30 27-30 29q1 3 4 2c4-2 28-22 32-27 5-5 1-9-6-4m396 1-6 15c-11 27-11 29-6 29q3 0 8-12l4-11c4-9 7-20 7-22q-3-4-7 1m-176 1c-2 1-17 41-17 45 0 6 6 3 9-3l7-18c3-7 7-22 6-24zM93 42l-3 9-10 26q-3 11 2 11 3 2 9-15l4-12q10-23 3-22-3 0-5 3m176-1-4 9-11 31q-4 7 1 9c3 0 5-3 11-21l4-9c6-15 6-25-1-19M115 69q1 3 5 5l8 2 31 10c7 2 12-1 7-4l-17-6-20-7q-12-4-14 0m522 0q-2 3 17 9l25 10q12 5 14 0c0-3-6-6-28-13q-27-10-28-6m-174 1c-3 3 0 4 27 12 22 7 27 8 27 5 0-2-7-7-10-7l-16-5-18-5zm-176 5q-1 4 5 5l40 12q8 2 9-1c0-3-4-5-40-16zm272 4 4 22 4 15c4 14 4 16 8 16q3 1 2-5l-1-11-5-20-5-17q-5-4-7 0m171 0-1 4 8 35q2 15 6 13c4 0 3-4-2-26l-2-13c0-9-6-17-9-13m-343 2q-2 3 2 17l2 10 1 7 3 10q2 11 8 7v-10l-5-21q-6-29-11-20M44 82q-6 1 4 34l1 7c0 3 3 9 5 10q8 2 2-18l-4-18q-3-17-8-15m173 5v7q8 46 14 39c3-2 2-4-1-20l-5-19q-3-14-8-7m311 24-16 20-4 5-5 5-3 4q-6 8 0 9 3 0 10-10l10-12c12-15 15-19 13-21q-1-3-5 0m-509 1-7 7c-13 15-12 13-12 20q0 6 1 5l23-27q2-8-5-5m673 6-14 17c-16 17-17 19-17 21q3 7 22-17l8-10 12-16q-3-6-11 5m-380-5-6 3c-8 3-41 19-42 21v3q3 3 19-6l20-10q16-7 13-10-1-2-4-1m45 3-6 6q-28 33-27 36 4 5 13-7l14-17q16-18 13-20-4-3-7 2m-178 1-30 36v3q3 5 13-8l13-16q13-13 11-16-2-4-7 1m462 5-15 7c-21 9-26 12-26 15 0 2 13 0 14-3l5-2c8-2 32-14 33-17v-3c-2-1-3-1-11 3m-171 3-15 7-22 11q-2 4 1 5l31-13 14-6q7-3 5-8c-2-2-3-1-14 4m-361 6c-22 11-25 13-24 15 2 4 7 2 27-8 22-11 22-12 22-14-1-4-4-3-25 7m436 13q-2 5 29 29l9 8q9 7 11 1a202 202 0 0 0-31-29q-16-14-18-9m170 2c-2 2 2 6 27 24 15 11 17 12 19 10 3-3 2-4-22-21-21-16-22-16-24-13m-515 1c-1 3 3 6 19 19 17 13 21 15 23 13q4-2-9-12l-23-19c-3-3-9-4-10-1m-168 2q-3 2 13 14l23 19q6 5 9 2 2-4-8-11l-13-11q-21-19-24-13m343 0q-2 2 8 9l8 7c5 5 25 20 27 20q9 0-6-13l-11-9q-23-20-26-14m261 21c-2 2-1 3 11 18 21 25 28 31 29 25q2-1-9-13l-7-8-5-6-7-8q-9-9-12-8m-175 1c-3 1 1 7 21 28l12 13q7 6 9 2c1-3 1-3-10-15-26-28-28-30-32-28m-345 2c-1 3 3 7 21 26q17 17 19 16 6 0-2-10l-22-23q-13-15-16-9m177 0c-1 2 0 3 7 11l24 25q7 8 10 4c2-2 3-1-12-18-20-23-26-27-29-22m440 27-6 5-23 19q-8 7-3 8 4 0 13-7l19-16q10-9 8-11-1-3-8 2m-517 0-29 26q-4 7 3 5c3-1 31-25 33-28q3-8-7-3m-167 3c-4 1-34 26-37 29q-3 7 6 4l29-22q9-8 5-11l-1-1zm506 3c-14 12-30 30-29 31 3 4 7 0 34-25 9-9 5-14-5-6m-285-2-3 6-3 8-3 9-5 16q-7 15-2 14 4 2 6-3l15-47q-1-5-5-3m122 6-6 6-12 11q-15 12-11 14 2 4 21-14c18-16 18-16 18-19q-1-4-10 2m-299 1-2 4-6 19c-5 15-6 19-5 21q4 9 13-18l5-15c5-11 1-19-5-11m344 3-14 42q0 8 5 3c4-3 17-41 16-45q-3-4-7 0m174 1c-2 2-2 3-7 20l-7 19q-5 12-1 13 3 3 8-11l6-16c7-19 8-25 5-26q-2-2-4 1m-491 23c-6 4 0 7 27 14l16 6q10 3 10-2 0-3-12-6l-20-7c-18-6-19-6-21-5m647 2q-4 10-3 13 5 5 5-7 1-12-2-6m-305 3q-5 4 14 10l8 2 13 4q17 6 16 1c0-3-5-5-37-16q-11-2-14-1m175 3q-3 3 11 6l25 9c14 7 24 6 17 0s-51-19-53-15m-348 1q-3 3 4 5l8 4 38 12q5-1 2-5l-39-15c-2-1-12-2-13-1m269 3q-3 0 0 13l3 9c6 25 8 29 12 27 3-1 3-2-4-26-6-24-7-27-11-23m-346 1q-2 1 2 18l5 19q4 23 9 14c2-1 2-1-1-17-8-31-8-33-10-35q-3-2-5 1m-171 0c-2 1-1 8 5 34l3 13c0 5 6 7 8 3q2-3-1-11l-3-14-1-9-3-9q-2-12-8-7m687 1 2 17 4 20q2 14 5 12c4 0 4-7-1-32l-5-17q-3-4-5 0m-340 3q-1 4 5 24l4 17q3 12 7 8l2-3-11-46c-1-2-6-3-7 0M8 284c-7 8-8 9-8 15v6l6-7q11-11 9-14-3-4-7 0m174 7-10 10-12 16-3 3q-6 5 0 7c3 0 4-1 17-16 14-17 17-21 16-23q-3-4-8 3m111-1-24 10q-14 6-11 9c2 3 3 3 16-4l24-10q11-5 8-8-2-3-13 3m192-2-22 10c-20 10-23 12-22 14q0 5 19-5l22-10 9-6c4-4-1-7-6-3m212 3-17 21c-7 7-15 18-13 19 3 3 7-1 33-33q9-10 3-11-1-2-6 4m-172 5-9 11c-14 15-18 20-16 23q3 4 11-6l11-13c16-19 18-21 12-22q-2-1-9 7m-171-5c-4 1-30 35-30 38 1 5 9 0 16-11l4-4 5-7 8-9c4-4 2-9-3-7m-220 1-44 21q-3 4 2 6c1 0 18-7 26-12l9-4q17-8 14-11zm502 3-11 5c-13 5-27 12-29 14-5 5 2 7 10 2l10-4 6-3 10-6q13-5 11-8-1-3-7 0M24 314q-1 2 3 6l7 5 23 19c1 2 11 9 13 9 4 0 5-6 1-7l-7-6c-30-26-37-31-40-26m526 1c-3 2 1 6 17 20l12 11c8 7 9 8 12 7 4-2 2-5-16-21l-12-10q-10-9-13-7m-171 2q-4 3 9 13l12 11c17 15 18 16 20 16q3 0 3-3c0-2-3-5-18-19l-19-17q-5-3-7-1m341 1q-4 1 12 16l17 15q7 7 10 6c5-2 3-4-10-16l-9-8q-16-16-20-13m-517 1q-6 2 21 23l5 5c2 3 15 12 16 12 5 0 4-7-2-11l-16-13c-20-17-21-18-24-16m86 15q-4 2 7 14l7 9 7 9 9 10q8 8 11 5 2-3-5-10l-9-11q-23-29-25-27zm351 6q-3 2 4 9l6 7 20 25c7 8 12 7 6-2s-5-8-19-24-16-17-17-15m-518 2q-2 2 4 9l21 23c9 10 10 11 12 11q9-1-6-17c-23-26-29-32-31-26m343 1q-2 1 8 13l15 17q14 17 17 13l1-2-11-15-11-13c-13-15-16-17-19-13m152 22-4 9-3 10c-7 17-12 35-11 37q4 5 10-12l6-15c4-13 8-27 7-29q-2-4-5 0m-572 6c-5 3-33 28-34 30q-1 4 2 5c2 0 11-6 16-11l11-9c12-9 13-11 13-14q-2-5-8-1m695 1-8 7-16 14q-19 17-11 16c5 0 40-32 40-35q-1-4-5-2m-524 6q-25 22-25 26 1 6 14-5l15-14q10-8 7-12-2-3-11 5m49-1c-2 2-8 19-14 40q-2 6 2 8 3-1 7-9l5-16q9-22 7-25c0-2-5-1-7 2m127-1-11 9-15 15c-10 9-5 14 5 5l12-11q15-13 15-16-1-5-6-2m167 8c-13 10-26 22-26 24 0 7 5 4 33-20q12-10 8-12c-2-2-3-1-15 8m-466-5c-3 2-17 45-16 47q2 4 6 1c2-2 16-42 16-46q-1-5-6-2m347 2-9 25-4 12q-5 12-2 12 4 3 11-13l2-7 8-27q-2-5-6-2m326 29q-3 6 0 7 4 5 3-6v-6zm-645-1q-4 4 4 7l19 6 3 1 21 8q7 0 3-6l-3-2-15-5c-25-10-30-11-32-9m517 1q-2 3 7 7c8 2 11 4 27 11q15 8 16 2 0-4-10-8c-30-12-39-15-40-12m-168 1q-3 1-1 5l49 16q4-1 3-4c-1-2-46-18-49-18zm-177 3c-3 3 3 6 34 16 15 5 15 5 17 3 3-4-2-6-33-16-15-6-16-6-18-3m-250 6q-2 2-1 5c7 43 12 55 17 49 1-2 1-14-1-17l-1-7c-2-10-6-28-9-30q-3-3-5 0m688 2c-2 2-2 3 0 15l4 17q3 21 8 17c2-1 2-1-3-32q-4-24-9-17m-172 1q-1 3 1 13l5 20q4 19 8 16c4-2 3-3-3-31l-3-11q-3-12-8-7m-346 2-1 3 11 47q2 3 6 2 4-2 1-14l-3-12q-5-22-8-26-4-4-6 0m175 1c-2 2-1 6 5 31l4 16c2 4 7 3 7-2l-2-10-4-15q-4-26-10-20M12 458l-7 8q-6 4-5 10c0 8 0 8 9-3l9-11q4-3 1-6t-7 2m292-1-32 15q-13 6-12 8 0 6 14-1 9-5 14-6 30-14 27-17c-1-1-8-1-11 1m386 6-25 30q1 7 17-11l8-9q18-19 10-18-3 0-10 8m-508-5-12 13-13 17q-7 7-2 9c2 1 2 1 8-5l19-23c7-7 7-15 0-11m292 5-36 16-2 4q1 6 21-5l16-7q18-8 14-10c-2-3-2-2-13 2m-343 0-15 7-12 5c-3 0-18 9-18 11q-2 7 22-5l18-8q14-5 13-9 1-4-8-1m505 2-10 5c-3 0-18 7-23 10q-9 7 3 6l43-22c4-4-4-4-13 1m-113 1-6 5-12 15q-17 18-8 17c3 0 3 0 17-16 15-17 17-20 17-22q0-2-4-3zm-171 2c-22 25-26 30-24 33q4 4 22-18l8-10q8-10 2-10-3-1-8 5m363 13c-1 2 2 5 16 18l14 13h11l-7-6-16-15c-13-12-16-14-18-10m-167 3q-4 2 10 13l14 12q2 4 8 3c7 0 7 0-2-8l-10-8q-17-15-20-12m-518 3q-5 1 9 13c15 12 15 12 21 12h6l-6-6-11-9-16-12zm172 0q-6 1 18 19l8 6h12l-5-4-11-9q-19-16-22-12m179 2c-2 2-1 3 7 11 12 11 14 12 20 12h6l-7-6-10-9q-13-11-16-8m-90 16q1 7 9 7h5l-3-4q-9-9-11-3m-172 2q-2 6 6 5h7l-4-3q-6-5-9-2"
        mask="url(#16282281824-posters-1720558084949-radial-mask)" itemprop="regular" fill-opacity="0.90"
        fill-rule="evenodd" stroke="none" fill="url(#16282281824-posters-1720558084949-horizontal-regular)"></path>
      <!---->
      <path id="16282281824-posters-1720558084949-medium"
        d="M65 5c7 6 14 5 9-2q-2-4-8-3h-5zm56-4c0 2 34 36 37 37 3 2 4-4 0-7l-9-10C130-1 131 0 126 0zm112 6q12 12 13 8 5-1-4-9c-6-6-7-6-11-6h-5zm64-4 11 14c27 27 27 27 29 23 1-2-1-5-14-18L307 5q-5-5-8-5h-4zm113 0q8 8 11 7c5-3-2-10-9-10h-5zm174 4q8 7 10 7 6 0-2-8c-5-6-5-6-10-6h-5zm56-5 11 12 4 5 8 10 8 9q7 9 10 6c2-2-1-6-19-26L651 6q-6-7-9-6-4 0-2 2m107-1c0 2 11 10 13 10q6 0-1-7c-4-4-12-6-12-3M472 4c0 4 35 41 38 40 5-1 4-3-25-34q-13-12-13-6M39 34 13 58c-1 7 2 6 21-10l12-10q5-5 5-8-1-5-12 4m355-2-13 12-14 13q-8 8-1 8c2 0 17-13 30-27 6-7 4-12-2-6m342 1-5 5-10 9q-23 18-14 18l13-9 12-11 12-13q0-4-8 1m-514 2-12 11c-18 15-21 19-17 20 4 0 36-28 36-31q-1-3-7 0m345 0c-6 4-31 28-31 30 0 5 7 0 30-21 9-9 9-15 1-9m51 0-7 17-7 19q-3 8 0 9 2 1 8-11l5-13c3-8 7-20 6-21zm-177 2q-3 3-6 15l-6 16q-6 16-3 16 4 3 6-6l4-9 9-24q2-12-4-8M94 42 79 83l1 4q4 3 9-11l7-20q6-16 2-17zm175 0-5 11-6 17-5 18q3 6 9-9l5-14 7-23q-2-4-5 0M115 68c-1 3 1 4 14 8l12 4c14 5 26 7 26 5q1-3-15-8l-21-7q-14-4-16-2m524 1v2l12 6 26 9q12 6 14 4 5-4-10-9l-7-3-9-3-9-3q-14-5-17-3m-176 2c-2 2-1 2 11 6 30 10 40 12 41 11q4-3-8-7l-9-3-26-8q-8-2-9 1m-175 5c-1 3-1 3 34 13 15 4 18 4 18 1-1-2-5-3-22-9-25-7-29-8-30-5m272 4v6l4 15 4 15c0 3 3 13 5 15 4 5 5-4 2-15l-5-20q-6-26-10-16m170 1 4 22 2 11 4 14q2 5 5 2l-4-22-2-12q-3-18-7-17zm-342 1c-2 2-2 2 0 12l5 22c4 15 4 16 7 16 4-1 4-5 0-20l-5-20q-3-16-7-10M42 84c-1 2 0 6 3 20 6 25 7 29 11 28 2-1 2-10 0-16l-4-14-5-19q-3-2-5 1m176 2v10l8 33q2 5 6 3c1-2 1-1-3-20l-3-14q-4-17-8-12m311 25c-1 0-16 18-16 20l-3 4c-4 4-13 15-13 17q1 3 5 1l27-33q7-11 0-9m166 4-12 14-2 3-9 10q-16 17-8 16c4 0 38-41 38-45q-2-4-7 2m-684 7L1 133l-1 6c0 6 0 6 11-6l8-10c2-1 5-8 5-10q-2-5-13 9m300-8-14 6c-28 14-33 16-33 19q2 4 20-6l12-6c10-4 20-9 20-11q0-4-5-2m46 2-6 7c-21 24-28 33-26 35q2 4 9-5l11-13 18-22 1-2c1-3-6-3-7 0m-177 0-13 15c-6 7-12 16-15 18q-6 8-1 8c3 0 5-3 17-17 16-19 18-22 17-24zm459 7-16 8q-24 11-22 14c1 1 10-2 13-4l8-3c10-4 29-14 30-17q1-5-13 2m-168 2-13 6c-12 5-25 13-25 14 0 4 5 2 33-11 16-7 18-9 18-11q0-4-13 2m-363 7c-21 10-24 13-22 15s6 0 27-11c18-8 22-11 21-13-2-2-7 0-26 9m438 12c-2 3 4 8 25 26l19 14q6-2-2-8l-23-20-9-8-4-2q-5-4-6-2m-345 3c-2 2 1 5 23 22q18 13 18 9 2-2-7-9c-28-23-32-25-34-22m514-1c0 2 1 4 14 13 26 20 32 24 32 19q1-2-19-17l-14-10q-12-8-13-5m-682 2c-2 3 0 5 17 19l15 12q9 8 10 5 6-1-8-13l-11-8q-20-19-23-15m343 0-1 2c0 2 40 34 42 35l3-2q3-1-4-6l-31-26q-6-4-9-3m260 23c-1 4 33 43 37 43q9 1-22-31-14-16-15-12m-342 2c-1 2-1 3 12 16 25 26 27 28 28 23v-3l-10-11q-29-33-30-25m167-1c-1 3 36 43 40 43q6 0-4-11l-19-20q-17-18-17-12m-344 2c0 3 2 5 21 24 16 17 19 19 20 14 0-2-26-31-34-37q-7-6-7-1m616 26-21 18q-15 12-12 13 2 3 12-6l16-13 12-11c2-4-3-4-7-1m-521 5-22 18q-6 8-2 8c4 0 36-27 36-30q-1-5-12 4m349-2c-3 1-35 31-35 33q2 5 12-4l15-14q15-14 11-14-1-2-3-1m-520 6c-13 10-29 23-29 25l1 2q4 3 16-8l14-12q12-9 10-12-2-4-12 5m229-4-6 14-8 22-2 9q-3 7 1 7 3 1 8-13l4-12q11-33 3-27m124 4-29 27q-5 7 2 5c6-3 34-29 34-32q0-4-7 0m-300 2-3 5-4 14c-7 21-8 24-6 26q4 4 12-20l6-17c2-3 1-10-1-10q-2-2-4 2m344 2-7 22-3 7q-7 18-3 18c3 0 5-3 12-24 6-18 7-22 4-23zm173 4-4 9-3 9c-4 9-10 30-9 31q4 4 8-9l7-18c8-22 8-25 4-25q-2 0-3 3m-492 22c-3 4 2 6 28 13l14 5q9 4 11 1 1-4-10-7l-20-7c-18-6-21-7-23-5m648 3q-4 9-2 11 4 2 4-8v-6zm-306 2q-2 3 12 7l21 7q20 7 18 2 1-3-14-8-35-11-37-8m176 3 14 6 23 8q19 9 17 2c-1-2-15-9-17-9l-8-2q-27-9-29-5m-348 1q-2 3 4 4l2 1 39 13c8 3 12-2 4-5l-9-4q-36-13-40-9m269 2q-3 0 3 18l5 22 4 9q4 0 4-4c0-3 0-5-5-22l-3-13q-4-14-8-10m-517 2q-1 4 3 21l4 15c3 14 3 14 5 14q8 5-2-32l-2-11q-4-12-8-7m171-1c-1 2 0 8 5 26l4 19 1 4q1 4 4 3c3-1 4-3 1-14l-3-12c-4-19-6-24-7-25q-2-3-5-1m516 1 4 23 3 16q3 15 6 8c1-2-2-25-6-38q-3-14-7-9m-338 2q-3 0 1 17l6 20c3 13 4 14 5 14q7 1-1-23l-2-8c-1-7-5-20-6-20zM5 288q-6 6-5 10-2 9 7-1c7-10 8-12 7-14q-2-3-9 5m294-1-18 9-11 4q-14 6-12 8c1 3 4 3 25-7l9-4c2 0 13-6 14-8l-1-2zm-117 5-12 12-9 11-4 5q-4 4-1 6 3 1 11-7l6-8q18-20 17-23-2-3-8 4m294 1-23 11q-15 7-10 9c2 1 5-1 22-9 25-12 26-12 27-15q2-5-16 4m223-4-11 13-15 19q-9 10-4 11l20-20 12-15c6-7 4-14-2-8m-167 1-27 30q-7 9-3 10 4 0 15-13l10-12q11-13 9-15zm-398 3-19 8-17 8-4 3c-7 4-3 9 5 4l28-14q16-7 13-10 0-2-6 1m215 4-9 10q-22 26-12 23c3-1 31-35 31-38s-6-1-10 5m284 0-9 4q-32 13-29 16 1 4 12-1l11-6q24-11 24-15 0-3-9 2M24 315c0 2 4 5 22 20l17 14 5 3c10 1 7-3-25-29q-18-15-19-8m526 0q-3 3 7 11l17 15c12 11 15 13 17 11q3-2-7-11c-29-26-32-28-34-26m-170 3c-2 1 0 4 17 20 22 20 21 19 24 19q6-2-7-13l-12-11q-19-19-22-15m340 0q-3 2 4 7l6 6 5 5 12 10q9 9 11 8c6-1 4-3-19-23-15-14-17-15-19-13m-517 2q-4 0 9 12 29 26 33 26 6 0 0-7l-25-21q-14-15-17-10m85 15q-1 2 13 20l15 17q10 11 12 9 4-1-2-9l-9-9-21-26q-5-5-8-2m-165 6q-3 1 4 9c31 35 29 34 33 34 6 0 3-4-16-25q-18-21-19-19zm516 0 3 5 12 15q26 33 24 22c-1-4-7-11-25-32-10-10-12-12-14-10m-174 3c0 3 35 42 38 42 5 0 1-6-17-26l-13-15q-7-5-8-1m153 20-5 15-7 19q-9 22-5 23 4-1 5-5l1-2 11-32c5-14 5-23 0-18m-574 9q-5 2-9 7l-13 11c-11 10-11 10-11 12q1 6 10-2l20-17q12-10 12-12-3-4-9 1m696-1-13 12-16 14q-9 7-7 10t11-6l30-28q-1-3-5-2m-523 6c-13 11-25 23-25 25q-1 10 30-21 12-15-5-4m48-1-13 39q-1 12 5 5c3-7 14-38 14-42q0-9-6-2m117 8-15 15q-9 7-4 9c2 0 19-14 29-24q9-8 2-9-2-1-12 9m183-5c-22 16-35 30-29 30 2 0 14-9 27-20l8-7c7-6 2-9-6-3m-472 0c-2 2-15 40-15 44q0 4 2 4c4 0 4 0 18-44q1-9-5-4m348 2-9 21-5 17c-6 12 0 15 5 3 5-10 14-40 14-41q-2-3-5 0m-320 28q-3 2 4 5l18 6 3 1c5 3 17 7 22 7q10 0-3-6l-16-6q-27-10-28-7m517 1c-1 2 0 2 11 6l11 5c15 8 28 12 28 8 0-3-16-11-39-18-10-3-10-3-11-1m-170 1c-1 3 1 4 34 15q19 6 19 2c0-2-11-7-24-10l-7-3c-10-4-20-6-22-4m-175 2q-3 4 11 7l15 6q27 9 25 4c0-2-8-6-11-6l-3-1-10-4-16-5q-9-3-11-1m-250 7c-2 1-1 3 3 25 6 27 7 30 12 27q3-1-1-17l-4-17q-4-28-10-18m688 2c-1 2 7 46 8 48q3 1 4-2c1-1-2-21-5-38q-4-14-7-8m-172 1 1 7 8 35q2 6 5 5t1-11l-6-26c0-7-7-15-9-10m-344 0c-3 2-2 11 1 19l3 13c4 18 5 21 8 21 5 0 5-3 1-18l-5-20c-2-12-2-13-5-15zm174 3q-3 2 4 27c4 19 5 21 8 21q5 2 0-16l-5-21q-4-16-7-11M13 457C2 469 0 472 0 477l1 5 9-11c9-11 10-13 8-15q-2-3-5 1m295-1-39 18q-11 4-8 7 1 3 13-3l15-6q24-11 25-15-1-3-6-1m389 0-16 18-8 9q-11 12-5 12c2 0 30-30 33-36q2-5-4-3m-514 2-15 17-7 8q-11 13-5 14 5 0 24-25 12-17 3-14m292 5-39 18v3q3 2 10-2l36-16q5-3 5-5-2-3-12 2m164 1-18 8q-22 9-21 12c0 4 5 2 37-13q13-7 12-9 0-3-10 2m-505-1c-3 0-19 8-37 16q-17 9-7 8c3 0 5 0 22-8l8-4c2 0 16-7 17-9q5-5-3-3m222 2-7 8-12 14q-13 14-7 14c3 0 12-8 19-19l6-7c3-1 7-8 7-10q-1-3-6 0m166 2-6 7-7 8c-16 17-18 21-12 21 4 0 35-36 34-39q-2-3-9 3m194 15c0 2 4 6 22 23 7 6 8 7 12 7q6 1 0-5l-7-6-7-6-9-9q-11-9-11-4m-168 3 3 6c4 2 15 12 21 18q3 3 8 3 10 2-3-7l-16-14q-15-12-13-6m-519 2q0 3 8 10c18 16 17 15 23 15h6l-3-3-10-8q-20-18-24-14m174 0q-6 1 13 16l12 9h11l-11-9c-19-15-23-18-25-16m179 2q-3 2 4 9 17 15 23 14h4l-11-10c-14-12-18-14-20-13m-90 15q-1 6 8 8 8 1 0-5-5-6-8-3m-173 4q-1 4 6 4h6l-4-3q-5-5-8-1"
        mask="url(#16282281824-posters-1720558084949-vertical-mask)" itemprop="medium" fill-opacity="0.90"
        fill-rule="evenodd" stroke="none" fill="url(#16282281824-posters-1720558084949-vertical-medium)"></path>
      <!---->
      <path id="16282281824-posters-1720558084949-bold"
        d="M66 5c6 6 11 5 7-2q-1-4-6-3h-5zm56-3 36 36q4 0-2-9L136 6q-6-7-10-6-7 0-4 2m106 0 1 1 7 6q10 9 11 4c1-3-11-13-16-13q-5 0-3 2m68-1c0 2 9 12 14 17l6 5q20 22 20 17c2-2 0-4-28-33l-5-6-3-1zm114 1q6 7 11 7c4-1-3-9-9-9h-4zm169 0 1 1 5 4q9 8 10 7c3-3-8-14-13-14q-4 0-3 2m62-1q3 6 10 12l6 7q-1 2 17 20l5 4q4-1-2-7l-20-23-7-8q-6-6-8-6t-1 1m112 4c8 9 13 8 5 0q-4-5-8-5h-3zM473 4c0 3 5 9 26 30 10 11 10 10 12 9s0-3-19-23C476 2 473 0 473 4M41 33c-10 8-28 24-28 26s6 2 7 0l25-21q4-4 5-8-1-3-9 3m346 6c-25 23-27 25-21 25 3 0 34-29 34-33q0-4-13 8m352-7-4 3-22 19q-11 9-6 10c4 0 38-31 37-33q-1-2-5 1m-171 3c-5 3-32 29-32 30q2 3 9-3l12-11c13-12 15-14 15-16q0-4-4 0m-348 3-6 5-7 6-10 8q-6 6-4 8c1 1 2 1 15-10l9-8c5-3 12-11 11-12q-1-3-8 3m399-2-8 17-9 23q1 5 5 1l2-3 1-4 12-30q2-3-1-6zm-178 3-6 15-3 8c-5 9-8 22-6 22q5-1 6-6l7-18 3-9 3-10c2-4-2-6-4-2M94 42l-4 13-1 3-3 7-3 8-1 5-2 4c-2 0-1 4 1 4 3 2 4-1 9-17l7-16 1-4 1-3q3-3-1-6zm175 0-2 4-13 36q-2 6 1 7c2 0 5-5 5-7l1-4 11-29 1-7zM116 70q0 2 19 7l5 2 5 2 5 1 5 1 5 2c1 2 6 1 6-1q2-1-15-6l-22-8q-12-3-13 0m523 0q1 3 13 6l7 3 5 1 4 2 2 1 5 2 12 4q8 1 2-4l-5-3-16-5q-30-10-29-7m-176 1c-1 1 14 7 25 10l5 1 20 6q4-1-1-4l-37-12q-11-3-12-1m-174 5q-2 1 16 7l15 4 19 5q4-2-8-6l-13-4-20-6zm271 4 4 21 5 17q4 16 6 13 3 0 1-11-3-8-4-5-1 2-1-1l1-2-2-12-1-6c0-8-7-19-9-14m171 4 3 13 3 18q2 17 6 15c1 0 1-12-1-18l-2-10c-4-20-5-23-8-23zm-343-2q-2 2 1 14l3 10c5 24 6 27 9 25q3 0 0-13l-3-13c-4-21-6-25-10-23M43 83v10l2 7c2 14 7 29 8 31 5 4 5-5 1-19l-4-18q-3-15-7-11m175 4q-2 2 4 22l2 13q2 10 6 10 3 2-1-15l-5-21q-1-13-6-9m304 32-8 10-1 2-4 6c-6 5-12 14-10 15q2 3 7-4l8-10 17-22q3-6-1-5zm175-5-6 6-13 16-6 7q-14 16-9 15c2 0 13-12 20-20l15-20c4-5 3-9-1-4m-683 5C0 135 0 134 0 139v5l4-4 14-17 5-8q-1-5-9 4m297-4-33 15q-12 5-13 9c0 1 4 2 4 0l4-2 9-4 11-5 10-5 7-3q4-1 5-5zm48 0-13 15-10 11c-11 14-13 17-9 17q4-1 14-14l8-10c13-14 14-16 14-18q0-3-4-1m-180 3-20 24-6 7q-5 4-3 7t11-9l18-21 6-9c0-2-5-1-6 1m467 3-6 3-13 6-21 9-4 4c0 2 8 0 11-2q4-3 7-3l25-12q9-4 7-6-1-2-6 1m-166 1-11 5-14 6q-20 10-21 12 0 3 7-1l6-2 32-15q9-6 1-5m-355 2-20 11c-16 7-19 10-18 11l8-1 5-2 32-17c4-4-1-5-7-2m421 21q-1 3 20 20l6 5c7 7 17 14 19 14q3-2-4-9l-6-5-28-23q-4-3-7-2m170 2c0 2 2 3 18 15l17 13q8 6 9 4t-11-11l-7-6-5-4-2-1-1-1-3-2-14-9zm-514 0a6 6 0 0 0 4 7c7 7 31 24 34 24 4 0 2-2-11-14l-6-4-14-11zm-169 3q1 3 13 13l16 13 7 5q5 5 8 2l-16-15c-24-21-26-22-28-18m343-1c0 2 11 11 24 22l9 7q7 7 9 6 6 0-10-14l-24-19q-7-5-8-2m85 23 8 11 18 18 14 14q5-1-5-11l-19-20c-12-12-14-14-16-12m175 0 2 3 9 10 17 21q10 10 10 7 3 0-10-16-28-31-28-25m-342 2 3 4 11 12c21 23 25 26 26 22 0-3-34-40-37-40zm-177 0c0 3 35 40 38 40q8 1-10-17l-14-15q-13-13-14-8m100 27-25 21q-6 6-5 8 3 1 8-4l10-8c15-12 18-15 18-17q-1-4-6 0m516 1-10 8-15 12-8 8c0 3 8-1 13-6l10-8 17-16q-1-3-7 2m-175 4-10 9-14 13q-10 10-6 10 3 0 11-8l13-12c12-11 12-11 12-13q-1-3-6 1m-518 4-26 21q-2 2-1 5l12-6 17-14q10-8 10-10 0-5-12 4m229-4-2 5-1 5-1 2-1 4-3 7-1 5c-2 3-7 21-6 22q4 0 7-8l7-20 6-22zm127 3-28 25q-6 5-4 6 2 3 9-4l11-10q16-14 16-16 1-4-4-1m-301 1-4 8-5 16c-5 15-6 19-5 21q3 6 11-19l6-16q4-13-3-10m342 6-1 5-1 5-3 8-6 15c-2 4-2 11-1 11q3 1 6-8l7-20 4-13q2-4-1-6-2 0-4 3m175 0-2 4-1 3-14 42 2 1q2 1 6-9l5-14 1-4 1-4c6-12 7-27 2-19m-493 25 12 6 5 1 10 3 14 5q11 4 12 1c-1-2-9-6-11-6l-5-1c-19-8-37-13-37-9m344 3q-6 2 18 9l20 7h11q0-2-10-6l-6-2-5-2-5-1-5-1-4-2-6-1-5-1zm175 2c-1 2 0 2 12 6l17 6c18 7 23 8 23 5a46 46 0 0 0-26-11l-17-5-7-1zm-349 2q-1 3 6 4l9 3 13 5 13 4 5 2q7 2 6-2a69 69 0 0 0-22-9l-8-3-9-3c-4-1-12-2-13-1m269 3c-1 1 6 29 8 35l2 7q0 5 2 5c5 1 4-2-2-26l-4-15q-3-10-6-6m-517 2 7 32 2 11q2 9 6 4v-6l-4-20-1-7-2-6c0-7-6-13-8-8m172-1c-1 1 2 14 5 30l3 12q2 11 5 9 5-1 2-9l-3-12-5-20c0-6-5-14-7-10m515 1v3l6 26c3 19 3 19 6 18q3-1-4-35-4-19-8-12m-338 2a65 65 0 0 0 4 26l4 10 1 7q1 5 4 6 5 0-3-23l-2-12q-5-20-8-14M5 289q-5 6-5 10v4l3-3 5-6q6-6 6-10-1-3-9 5m294-1-4 1-10 5-6 3-13 6-7 4q0 5 16-3l14-7 16-7q1-3-3-3zm188 0-2 1-1 1-17 8-19 9q-6 3-5 5c0 2 3 1 19-7l19-9q13-5 10-8zm-306 5-11 12-8 11-4 4q-4 5 0 6 2 2 18-19l11-13 2-4q-1-4-8 3m515 1-6 7-6 8-11 13q-11 16 2 4c12-13 29-34 29-36q-1-5-8 4m-171 4-22 25q-4 5 0 6c2 0 4-1 12-12l10-11q11-11 11-14-1-4-11 6m-172-6c0 2-9 11-12 15l-6 8-8 9q-4 5 0 6l4-3 5-6c11-12 22-26 22-28q-2-3-5-1m-217 1c-6 1-43 19-45 21q-2 4 1 4l28-13 18-10q3-2-2-2m499 3-12 6q-24 10-27 14 1 4 11-1l5-3 6-2c22-12 24-13 23-15q1-2-6 1M25 314q-3 2 18 18l21 17q7 5 8 1 1-2-14-13l-8-7q-22-19-25-16m526 2c-2 2 0 4 20 21l8 8c2 3 13 9 13 6l-4-6-16-14q-20-18-21-15m-171 2q-2 1 11 13l19 18c8 7 9 8 12 6 1-1-3-5-21-22-16-15-19-17-21-15m341 1c-2 2 7 11 17 18l7 6c7 8 15 13 15 9 0-2-31-30-36-33zm-518 1q-2 2 14 16l16 13q12 11 14 9c1-1-1-7-3-7l-5-4-29-25q-6-5-7-2m86 16 7 11 8 9 7 9 7 8q7 9 9 8 4-1-1-8l-8-8-9-12-8-9q-10-12-12-8m-166 6q-1 2 5 9l10 11 21 22q6 0-5-13l-6-7-15-17q-7-7-10-5m517 0 14 18 9 11c7 10 15 16 15 13l-4-7-6-7-9-11-10-11q-8-10-9-6m-175 1 10 13c27 31 29 33 29 28q0-4-23-30-15-16-16-11m153 23-3 8-4 10-2 6-8 22c-3 10 1 13 4 3l3-6 1-5 3-7 5-13q5-18 3-20zm-574 7-10 8-11 10q-15 13-11 13c3 1 14-7 21-14l5-4q14-11 14-14-1-4-8 1m697 0-11 9-14 12q-16 15-11 14 3 1 13-9 32-29 23-26m-518 2-4 2-9 9c-21 18-20 17-18 19s3 1 14-9c19-17 20-19 20-21q0-3-3 0m44 1q-3 3-7 17l-3 9-3 8-2 7q-2 5 1 6 4-1 5-6l1-4c3-4 12-33 12-36q-1-4-4-1m125 1-11 10-13 12q-6 5-6 7 0 6 11-4l9-8q14-12 15-16-1-3-5-1m175 2-26 22q-8 8-6 8 3 1 10-5l8-6 20-18c3-3-2-4-6-1m-474 2-3 5-1 4-1 4-2 6-8 25c0 6 7 1 8-6l7-20 5-18-2-2zm348 1-9 25c-7 20-8 22-5 22 2 0 8-11 11-22l1-4 6-21zm-319 28q-3 2 3 5l19 6 4 1 8 3 7 3c1 1 6 2 7 1q5-3-12-8l-14-5c-9-4-20-7-22-6m517 1 8 5 31 14q9 5 9 0 0-2-6-5l-17-7-24-8zm-169 1q-3 3 5 4l9 4 15 5 9 3c2 2 10 3 12 2 1-2 1-2-10-7l-13-4-12-4q-13-4-15-3m-176 2q-5 2 15 9l7 2 8 2 10 4q11 3 8-2l-39-14q-5-2-9-1m-250 7-2 4c1 2 4 13 5 23l2 8 3 9q2 11 6 8c1-2 0-16-2-17l-1-6-2-9-1-7c0-4-4-13-5-14q-2-1-3 1m516 4v6q3 7 7 30 3 10 5 9c3 0 3-1-1-21l-4-17-5-10q-2 0-2 3m171 3 2 14 3 14 5 15q3-1 0-16c-5-31-6-33-8-33q-2-1-2 6m-517-2c-1 1 1 14 3 21l2 8 5 18q0 3 3 3 5 0 1-13l-2-11q-5-32-12-26m174 5c2 16 10 44 13 44q3-1-1-16l-4-16q-2-16-6-16-2-1-2 4M10 461l-7 8q-3 3-3 8-2 8 7-3l8-10 3-6q-1-5-8 3m296-4-25 12q-27 12-17 12l9-3 21-9c7-4 18-9 19-11 2-2-3-3-7-1m389 2-11 13-10 11q-11 11-6 11c2 0 33-33 33-37q-1-3-6 2m-511 0q-5 3-14 15l-7 8q-14 15-7 14 3 1 22-23 12-15 6-14m294 4-6 2-31 14q-7 5-3 5l22-8c4-3 6-4 17-8q11-5 9-6 1-4-8 1m161 2-10 4-23 11q-8 3-5 5 3 0 22-8l9-5 6-2 7-4 4-3c0-2-6-1-10 2m-515 2-10 5-6 3c-16 6-25 12-18 12l19-8 10-4 16-7 3-3q1-4-14 2m232-1-11 13-7 7q-14 15-8 15c2 0 12-10 17-17l12-14q4-9-3-4m166 2-15 17c-4 4-12 14-12 16q0 7 20-17l8-10q6-4 6-8c2-4-3-3-7 2m195 13q-3 1 9 12l14 13q7 7 10 6c5 0 5 1-5-9-28-25-27-24-28-22m-169 4q1 3 7 8l14 13q8 7 11 6c5 0 5 0-6-9l-12-10q-12-11-14-8m-518 3q0 3 17 17c8 7 9 7 13 7h5l-3-2-10-9q-21-19-22-13m173 0c-2 1 0 4 14 14l10 9 6 1c6 0 7 0-7-10-17-14-22-16-23-14m179 3q1 3 7 8l9 8 3 2 2 2 5 1h5l-5-4-22-18q-5-2-4 1m-89 14c-2 2 3 7 8 7h3l-3-4q-6-6-8-3"
        mask="url(#16282281824-posters-1720558084949-horizontal-mask)" itemprop="bold" fill-opacity="0.90"
        fill-rule="evenodd" stroke="none" fill="url(#16282281824-posters-1720558084949-vertical-bold)"></path>
    </pattern>
    <rect id="16282281824-posters-1720558084949-pattern-render" fill="url(#16282281824-posters-1720558084949-pattern)"
      width="100%" height="100%"></rect>
  </defs>
  <radialGradient id="lightbar" cx="50%" cy="200%" fy="0" r="201%">
    <stop offset="0%" style="stop-color: rgb(255, 255, 255); stop-opacity: 0.1;"></stop>
    <stop offset="10%" style="stop-color: rgb(0, 0, 0); stop-opacity: 0.1;"></stop>
    <stop offset="30%" style="stop-color: rgb(0, 0, 0); stop-opacity: 0.3;"></stop>
    <stop offset="90%" style="stop-color: rgb(0, 0, 0); stop-opacity: 0.55;"></stop>
    <stop offset="100%" style="stop-color: rgb(0, 0, 0); stop-opacity: 0.6;"></stop>
  </radialGradient>
  <g class="radial">
    <radialGradient id="16282281824-posters-1720558084949-radial" gradientUnits="userSpaceOnUse">
      <stop itemprop="radial" stop-color="#dcdcda" offset="0%"></stop>
      <stop itemprop="radial" stop-color="#dcdcda" offset="15%"></stop>
      <stop itemprop="radial" stop-color="#dad9d8" offset="30%"></stop>
      <stop itemprop="radial" stop-color="#e1e1df" offset="45%"></stop>
      <stop itemprop="radial" stop-color="#e1e1df" offset="60%"></stop>
      <stop itemprop="radial" stop-color="#dcdcda" offset="75%"></stop>
      <stop itemprop="radial" stop-color="#dcdbdb" offset="90%"></stop>
    </radialGradient>
    <radialGradient id="16282281824-posters-1720558084949-radial-background" gradientUnits="userSpaceOnUse">
      <stop stop-color="#d3cec5" offset="0%"></stop>
      <stop stop-color="#d3cec5" offset="15%"></stop>
      <stop stop-color="#d3cec5" offset="30%"></stop>
      <stop stop-color="#d3cec5" offset="45%"></stop>
      <stop stop-color="#d3cec5" offset="60%"></stop>
      <stop stop-color="#d3cec5" offset="75%"></stop>
      <stop stop-color="#d3cec5" offset="90%"></stop>
    </radialGradient>
    <radialGradient id="16282281824-posters-1720558084949-radial-light" gradientUnits="userSpaceOnUse">
      <stop stop-color="#9c9a96" offset="0%"></stop>
      <stop stop-color="#9c9a96" offset="15%"></stop>
      <stop stop-color="#9c9a96" offset="30%"></stop>
      <stop stop-color="#9c9a96" offset="45%"></stop>
      <stop stop-color="#9c9a96" offset="60%"></stop>
      <stop stop-color="#9c9a96" offset="75%"></stop>
      <stop stop-color="#9b9a97" offset="90%"></stop>
    </radialGradient>
    <radialGradient id="16282281824-posters-1720558084949-radial-regular" gradientUnits="userSpaceOnUse">
      <stop stop-color="#83817c" offset="0%"></stop>
      <stop stop-color="#83817c" offset="15%"></stop>
      <stop stop-color="#83817c" offset="30%"></stop>
      <stop stop-color="#83817c" offset="45%"></stop>
      <stop stop-color="#83817c" offset="60%"></stop>
      <stop stop-color="#83817c" offset="75%"></stop>
      <stop stop-color="#82807d" offset="90%"></stop>
    </radialGradient>
    <radialGradient id="16282281824-posters-1720558084949-radial-medium" gradientUnits="userSpaceOnUse">
      <stop stop-color="#51504d" offset="0%"></stop>
      <stop stop-color="#51504d" offset="15%"></stop>
      <stop stop-color="#51504d" offset="30%"></stop>
      <stop stop-color="#51504d" offset="45%"></stop>
      <stop stop-color="#51504d" offset="60%"></stop>
      <stop stop-color="#51504d" offset="75%"></stop>
      <stop stop-color="#514f4d" offset="90%"></stop>
    </radialGradient>
    <radialGradient id="16282281824-posters-1720558084949-radial-bold" gradientUnits="userSpaceOnUse">
      <stop stop-color="#2f2e2d" offset="0%"></stop>
      <stop stop-color="#2f2e2d" offset="15%"></stop>
      <stop stop-color="#2f2e2d" offset="30%"></stop>
      <stop stop-color="#2f2e2d" offset="45%"></stop>
      <stop stop-color="#2f2e2d" offset="60%"></stop>
      <stop stop-color="#2f2e2d" offset="75%"></stop>
      <stop stop-color="#2f2e2d" offset="90%"></stop>
    </radialGradient>
  </g>
  <g class="vertical">
    <linearGradient id="16282281824-posters-1720558084949-vertical" gradientUnits="userSpaceOnUse" x1="0" x2="0" y1="0"
      y2="100%">
      <stop itemprop="vertical" stop-color="#dcdcda" offset="0%"></stop>
      <stop itemprop="vertical" stop-color="#dcdcda" offset="15%"></stop>
      <stop itemprop="vertical" stop-color="#dad9d8" offset="30%"></stop>
      <stop itemprop="vertical" stop-color="#e1e1e0" offset="45%"></stop>
      <stop itemprop="vertical" stop-color="#e1e1df" offset="60%"></stop>
      <stop itemprop="vertical" stop-color="#dcdcda" offset="75%"></stop>
      <stop itemprop="vertical" stop-color="#dcdbdb" offset="90%"></stop>
    </linearGradient>
    <linearGradient id="16282281824-posters-1720558084949-vertical-background" gradientUnits="userSpaceOnUse" x1="0"
      x2="0" y1="0" y2="100%">
      <stop stop-color="#ceccca" offset="0%"></stop>
      <stop stop-color="#ceccca" offset="15%"></stop>
      <stop stop-color="#ceccca" offset="30%"></stop>
      <stop stop-color="#cdcccb" offset="45%"></stop>
      <stop stop-color="#ceccca" offset="60%"></stop>
      <stop stop-color="#ceccca" offset="75%"></stop>
      <stop stop-color="#cdcccb" offset="90%"></stop>
    </linearGradient>
    <linearGradient id="16282281824-posters-1720558084949-vertical-light" gradientUnits="userSpaceOnUse" x1="0" x2="0"
      y1="0" y2="100%">
      <stop stop-color="#ae9f84" offset="0%"></stop>
      <stop stop-color="#ae9f84" offset="15%"></stop>
      <stop stop-color="#ae9f84" offset="30%"></stop>
      <stop stop-color="#ae9f84" offset="45%"></stop>
      <stop stop-color="#ae9d84" offset="60%"></stop>
      <stop stop-color="#ae9f84" offset="75%"></stop>
      <stop stop-color="#ae9f84" offset="90%"></stop>
    </linearGradient>
    <linearGradient id="16282281824-posters-1720558084949-vertical-regular" gradientUnits="userSpaceOnUse" x1="0" x2="0"
      y1="0" y2="100%">
      <stop stop-color="#83817c" offset="0%"></stop>
      <stop stop-color="#83817c" offset="15%"></stop>
      <stop stop-color="#83817c" offset="30%"></stop>
      <stop stop-color="#82807d" offset="45%"></stop>
      <stop stop-color="#83807c" offset="60%"></stop>
      <stop stop-color="#83817c" offset="75%"></stop>
      <stop stop-color="#82807d" offset="90%"></stop>
    </linearGradient>
    <linearGradient id="16282281824-posters-1720558084949-vertical-medium" gradientUnits="userSpaceOnUse" x1="0" x2="0"
      y1="0" y2="100%">
      <stop stop-color="#51504d" offset="0%"></stop>
      <stop stop-color="#51504d" offset="15%"></stop>
      <stop stop-color="#51504d" offset="30%"></stop>
      <stop stop-color="#514f4d" offset="45%"></stop>
      <stop stop-color="#514f4d" offset="60%"></stop>
      <stop stop-color="#51504d" offset="75%"></stop>
      <stop stop-color="#514f4d" offset="90%"></stop>
    </linearGradient>
    <linearGradient id="16282281824-posters-1720558084949-vertical-bold" x1="0" x2="0" y1="0" y2="100%">
      <stop stop-color="#2f2e2d" offset="0%"></stop>
      <stop stop-color="#2f2e2d" offset="15%"></stop>
      <stop stop-color="#2f2e2d" offset="30%"></stop>
      <stop stop-color="#2f2e2d" offset="45%"></stop>
      <stop stop-color="#2f2e2d" offset="60%"></stop>
      <stop stop-color="#2f2e2d" offset="75%"></stop>
      <stop stop-color="#2f2e2d" offset="90%"></stop>
    </linearGradient>
  </g>
  <g class="horizontal">
    <linearGradient id="16282281824-posters-1720558084949-horizontal" x1="0" x2="100%" y1="0" y2="0"
      gradientUnits="userSpaceOnUse">
      <stop itemprop="horizontal" stop-color="#dcdcda" offset="0%"></stop>
      <stop itemprop="horizontal" stop-color="#dad9d8" offset="15%"></stop>
      <stop itemprop="horizontal" stop-color="#dfdedd" offset="30%"></stop>
      <stop itemprop="horizontal" stop-color="#e1e1e0" offset="45%"></stop>
      <stop itemprop="horizontal" stop-color="#dad9d8" offset="60%"></stop>
      <stop itemprop="horizontal" stop-color="#dfdedd" offset="75%"></stop>
      <stop itemprop="horizontal" stop-color="#e1e1e0" offset="90%"></stop>
    </linearGradient>
    <linearGradient id="16282281824-posters-1720558084949-horizontal-background" gradientUnits="userSpaceOnUse" x1="0"
      x2="100%" y1="0" y2="0">
      <stop stop-color="#cecdca" offset="0%"></stop>
      <stop stop-color="#ceccca" offset="15%"></stop>
      <stop stop-color="#cdcccb" offset="30%"></stop>
      <stop stop-color="#cdcccb" offset="45%"></stop>
      <stop stop-color="#ceccca" offset="60%"></stop>
      <stop stop-color="#cdcccb" offset="75%"></stop>
      <stop stop-color="#cdcccb" offset="90%"></stop>
    </linearGradient>
    <linearGradient id="16282281824-posters-1720558084949-horizontal-light" gradientUnits="userSpaceOnUse" x1="0"
      x2="100%" y1="0" y2="0">
      <stop stop-color="#9c9a96" offset="0%"></stop>
      <stop stop-color="#9c9a96" offset="15%"></stop>
      <stop stop-color="#9b9a97" offset="30%"></stop>
      <stop stop-color="#9b9a97" offset="45%"></stop>
      <stop stop-color="#9c9a96" offset="60%"></stop>
      <stop stop-color="#9b9a97" offset="75%"></stop>
      <stop stop-color="#9b9a97" offset="90%"></stop>
    </linearGradient>
    <linearGradient id="16282281824-posters-1720558084949-horizontal-regular" gradientUnits="userSpaceOnUse" x1="0"
      x2="100%" y1="0" y2="0">
      <stop stop-color="#968769" offset="0%"></stop>
      <stop stop-color="#968669" offset="15%"></stop>
      <stop stop-color="#968669" offset="30%"></stop>
      <stop stop-color="#968669" offset="45%"></stop>
      <stop stop-color="#968669" offset="60%"></stop>
      <stop stop-color="#968669" offset="75%"></stop>
      <stop stop-color="#968669" offset="90%"></stop>
    </linearGradient>
    <linearGradient id="16282281824-posters-1720558084949-horizontal-medium" gradientUnits="userSpaceOnUse" x1="0"
      x2="100%" y1="0" y2="0">
      <stop stop-color="#5d5441" offset="0%"></stop>
      <stop stop-color="#5d5341" offset="15%"></stop>
      <stop stop-color="#5d5341" offset="30%"></stop>
      <stop stop-color="#5d5341" offset="45%"></stop>
      <stop stop-color="#5d5341" offset="60%"></stop>
      <stop stop-color="#5d5341" offset="75%"></stop>
      <stop stop-color="#5d5341" offset="90%"></stop>
    </linearGradient>
    <linearGradient id="16282281824-posters-1720558084949-horizontal-bold" gradientUnits="userSpaceOnUse" x1="0"
      x2="100%" y1="0" y2="0">
      <stop stop-color="#2f2e2d" offset="0%"></stop>
      <stop stop-color="#2f2e2d" offset="15%"></stop>
      <stop stop-color="#2f2e2d" offset="30%"></stop>
      <stop stop-color="#2f2e2d" offset="45%"></stop>
      <stop stop-color="#2f2e2d" offset="60%"></stop>
      <stop stop-color="#2f2e2d" offset="75%"></stop>
      <stop stop-color="#2f2e2d" offset="90%"></stop>
    </linearGradient>
  </g>
  <g class="masks">
    <mask id="16282281824-posters-1720558084949-pattern-mask" maskUnits="userSpaceOnUse"
      maskContentUnits="userSpaceOnUse">
      <pattern id="pattern" x="0" y="0" width=".0133" height=".0144" viewBox="0 0 23.07 40">
        <path
          d="M17.62 0l-6.07 10.5m2.74 4.76L8.22 4.75m-5.48 0h12.13M.01 0h23.07M6.07 20L0 9.5m2.74-4.75l-6.07 10.5m-5.48 0H3.33m8.2 4.75L0 .02-11.54 20m40.68 0L23.07 9.5m2.74-4.75l-6.06 10.5m-5.49 0H26.4M34.6 20L23.08.02 11.53 20m-5.46 0L0 30.51m2.74 4.75l-6.07-10.5m-5.48 0H3.33m8.2-4.75L0 40l-11.54-19.98zM17.6 40l-6.06-10.5m2.74-4.76L8.2 35.25m-5.48 0h12.13M0 40h23.07L11.54 20.01m17.6 0l-6.07 10.5m2.74 4.75l-6.06-10.5m-5.49 0H26.4M11.53 20h23.08L23.07 40"
          stroke-linecap="round" stroke-width="3.5" stroke="white"
          fill="url(#16282281824-posters-1720558084949-horizontal-background)"></path>
      </pattern>
      <rect width="100%" height="100%" fill="url(#pattern)"></rect>
    </mask>
    <mask id="16282281824-posters-1720558084949-horizontal-mask" maskUnits="userSpaceOnUse"
      maskContentUnits="userSpaceOnUse">
      <rect width="100%" height="100%" fill="url(#16282281824-posters-1720558084949-horizontal-background)"></rect>
    </mask>
    <mask id="16282281824-posters-1720558084949-radial-mask" maskUnits="userSpaceOnUse"
      maskContentUnits="userSpaceOnUse">
      <rect width="100%" height="100%" fill="url(#16282281824-posters-1720558084949-radial-background)"></rect>
    </mask>
    <mask id="16282281824-posters-1720558084949-vertical-mask" maskUnits="userSpaceOnUse"
      maskContentUnits="userSpaceOnUse">
      <rect width="100%" height="100%" fill="url(#16282281824-posters-1720558084949-vertical-background)"></rect>
    </mask>
  </g>
  <use href="#16282281824-posters-1720558084949-pattern-render"></use>
  <g>
    <use href="#16282281824-posters-1720558084949-background"></use>
    <use href="#16282281824-posters-1720558084949-light"></use>
    <use href="#16282281824-posters-1720558084949-regular"></use>
    <use href="#16282281824-posters-1720558084949-medium"></use>
    <use href="#16282281824-posters-1720558084949-bold"></use>
  </g>
  <g itemprop="animation">
    <animate href="#16282281824-posters-1720558084949-light" attributeName="stroke-opacity" repeatCount="indefinite"
      dur="5s" values="0.9;0.0;0.9"></animate>
    <animate href="#16282281824-posters-1720558084949-regular" attributeName="stroke-opacity" repeatCount="indefinite"
      dur="4s" values="0.9;0;0.9"></animate>
    <animate href="#16282281824-posters-1720558084949-medium" attributeName="stroke-opacity" repeatCount="indefinite"
      dur="5s" values="0.9;0;0.9"></animate>
    <animate href="#16282281824-posters-1720558084949-bold" attributeName="stroke-opacity" repeatCount="indefinite"
      dur="3s" values="0.9;0;0.9"></animate>
    <animate href="#16282281824-posters-1720558084949-regular" attributeName="fill-opacity" repeatCount="indefinite"
      dur="8s" values="0.9;0.75;0.95;0.8;0.9;"></animate>
    <animate href="#16282281824-posters-1720558084949-radial-background" attributeName="cx" repeatCount="indefinite"
      dur="34s" values="0%;33%;100%;0%;100%;0%;"></animate>
    <animate href="#16282281824-posters-1720558084949-radial-background" attributeName="cy" repeatCount="indefinite"
      dur="55s" values="0%;100%;33%;100%;66%;0%"></animate>
    <animate href="#16282281824-posters-1720558084949-vertical-light" attributeName="x1" repeatCount="indefinite"
      dur="55s" values="0%;33%;100%;0%;133%;0%;"></animate>
    <animate href="#16282281824-posters-1720558084949-vertical-light" attributeName="y1" repeatCount="indefinite"
      dur="86s" values="0%;100%;33%;100%;66%;0%"></animate>
    <animate href="#16282281824-posters-1720558084949-horizontal-regular" attributeName="x1" repeatCount="indefinite"
      dur="34s" values="0%;100%;66%;0%;33%;133%;0%"></animate>
    <animate href="#16282281824-posters-1720558084949-horizontal-regular" attributeName="y1" repeatCount="indefinite"
      dur="55s" values="0%;66%;100%;33%;100%;66%;0%"></animate>
    <animate href="#16282281824-posters-1720558084949-vertical-medium" attributeName="x1" repeatCount="indefinite"
      dur="34s" values="0%;100%;66%;0%;33%;133%;0%"></animate>
    <animate href="#16282281824-posters-1720558084949-vertical-medium" attributeName="y1" repeatCount="indefinite"
      dur="55s" values="0%;66%;100%;33%;100%;66%;0%"></animate>
    <animate href="#16282281824-posters-1720558084949-vertical-bold" attributeName="x1" repeatCount="indefinite"
      dur="34s" values="0%;100%;66%;0%;33%;133%;0%"></animate>
    <animate href="#16282281824-posters-1720558084949-vertical-bold" attributeName="y1" repeatCount="indefinite"
      dur="55s" values="0%;66%;100%;33%;100%;66%;0%"></animate>
  </g>
</svg>
