<svg id="16282281824-posters-1720553804591" itemscope="" itemtype="/posters"
  itemid="/+16282281824/posters/1720553804591" viewBox="0 0 769 512" preserveAspectRatio="xMidYMid meet" tabindex="0"
  class="animate landscape" xmlns="http://www.w3.org/2000/svg">
  <!---->
  <defs class="graphic">
    <pattern id="16282281824-posters-1720553804591-pattern" width="769" height="512" viewBox="0 0 769 512"
      patternUnits="userSpaceOnUse" preserveAspectRatio="xMidYMid meet">
      <rect itemprop="background" width="769" height="512" tabindex="-1"
        id="16282281824-posters-1720553804591-background" fill-opacity="1"
        fill="url(#16282281824-posters-1720553804591-radial-background)"></rect>
      <!---->
      <path id="16282281824-posters-1720553804591-light"
        d="m153 1 1 2c2 1 1 67-1 70s-7 3-54 3l-85 1H0v9h19c21-1 24-1 25 4 1 4-1 72-2 74-1 3-3 3-23 3l-19 1v4l1 5h53c81-1 95 0 98 2 3 3 3 66 0 70l-2 3H0v10h39l2 2c2 2 2 4 2 35 0 36-1 41-5 42l-20 1H0v11h44l83-1c17 0 22 0 24 3 2 2 1 65 0 68-2 4-5 5-49 4H47l-17 1H9l-7 1q-2-2-2 3l1 5h18c18 1 21 1 22 4l-1 57v14h6q9 1 6-2c-1-2-1-12 1-53 0-16 0-18 3-19l127-1c46 0 50 0 52 2 2 1 2 3 2 36l-1 35q-4 2 6 2 8 0 6-1c-2-3-2-70 1-72 2-2 4-2 90-2h91c7 0 7 1 6 39l-2 34q-2 3 6 2c8 0 8 1 6-11v-38l1-12c0-15-2-14 30-15h90c60 0 62 0 63 2 3 3 3 64 0 70l-1 4h15l-1-2c-3-4-3-70 0-72 1-2 6-2 46-2h81v-9l-16-1c-23 0-21 1-21-21v-21c-1-6 1-31 2-32 2-1 32-2 34-1q1 1 1-4c0-8-1-8-17-8H648c-4 0-4-3-4-31q-1-44 2-48c2-2 123-2 123 0q1 1 1-3c0-8 1-8-17-8-22 0-19 3-20-32 0-36 0-40 4-42 5-2 31-2 32 0q1 2 1-3c0-9 5-8-61-8h-62c-3-1-3-4-3-39 0-36 0-40 3-41a581 581 0 0 1 86 0c11-2 36-2 36 0q1 1 1-2c0-9 0-9-14-8q-21 1-21-3V2q3-2-6-2-10 0-7 2v55q2 14-5 16c-4 1-166 2-169 1-3-2-4-65-1-72q1-2-7-2-10 0-7 2c1 5 0 66-1 69-2 4-3 4-66 4-126 0-115 1-116-6-2-7-1-63 1-67q1-2-7-2t-7 2c3 7 3 13 2 47-1 25-1 26-7 26l-5 1H180c-16-1-15 2-15-37l1-32 1-4 1-3h-7zm409 83h-54l-55 1c-4 1-4 4-5 38 0 34 0 39 4 42h156q23 0 24-2c2-2 3-10 3-43 0-35 0-36-5-36zM76 85c-18 1-20 1-20 5-2 9-3 72-1 74 2 3 8 3 81 3 102 0 101 0 102-2s2-10 2-38c1-39 1-39-2-41-3-1-140-2-162-1m193 0c-16 0-16 0-18 3s-2 75 0 77l41 1h91c55 0 53 0 54-5l1-38-1-38zm237 89-105 1c-52 1-49 0-50 7v65q0 4 24 4l84-1c23 1 70-1 71-3 2-1 3-63 2-69-2-4-15-6-26-4m47 1h-4c-5 1-5 4-5 37 0 39-1 37 10 37l36 1h3l63-1c59 0 62 0 63-2q3-3 3-58c0-17 11-15-86-15zm-243 1h-69c-65 1-74 1-76 4l-1 35c0 38 0 35 9 36s159-1 162-2c3 0 3-2 4-21l1-31q0-21-4-20zm1 83-31 1c-26 1-30 1-31 3-2 2-2 71 1 75 1 4-3 3 49 3h85c45 0 50-1 51-2 2-2 2-6 3-35 0-36 0-41-3-43-3-1-56-2-104-1zm151 1h-6c-8-1-8-1-8 34-1 35-1 43 2 45 2 1 139 2 168 1 18-1 16 5 16-65 1-18 12-16-88-16zm-298 0-54 1c-49 0-53 1-55 2-1 2-2 5-2 38v37l3 2c3 3-9 3 109 2 72-1 72-1 72-4 2-5 3-69 2-74-2-3-1-3-48-3zm160 91h-62l-72 1h-15l-10 2-2 4c-1 8-1 65 1 67 1 2 2 2 27 2l30 1h6l54-1 53-1c3-2 3-6 4-38 0-38 1-36-9-37zm40 0c-16 1-15-1-16 40v32l2 2c3 2 4 2 89 2l88-1c4-1 4-1 4-36 1-38 0-39-7-39l-83 1c-3-1-62-2-77-1m185 0c-6 1-7 7-7 42 0 27 1 32 4 33 3 2 172 0 173-1 3-2 3-72 1-74z"
        mask="url(#16282281824-posters-1720553804591-horizontal-mask)" itemprop="light" fill-opacity="0.90"
        fill-rule="evenodd" stroke="none" fill="url(#16282281824-posters-1720553804591-vertical-light)"></path>
      <!---->
      <path id="16282281824-posters-1720553804591-regular"
        d="m155 2 1 36v34l-3 2-2 3H0v8h41l2 3c2 2 2 3 2 20l-3 56c0 3-3 4-23 4H0v9l56-1c88 0 93 0 96 3 4 3 4 68 0 71-2 2-36 3-125 3H0v8h14q24-1 28 2c1 2 2 68 0 75-1 4-4 5-24 5H0v9h74c86-1 78-2 79 10 1 9-1 60-1 62-2 4-5 5-54 4H28l-22 1H0v8h19c23 0 23 0 23 12 0 27 0 55-2 61q-1 3 6 2 6 0 5-1c-1-2 0-60 2-67 1-7-3-7 62-7l67-1h31c28 1 25-4 24 40l-1 35 6 1h6l-1-3c-2-5-1-69 1-72 1 0 23-2 24-1h65c100 0 97-1 99 4 2 3 1 67-1 70q-3 3 5 2h6v-68c2-8 2-8 30-9h28l35 1h47c48-1 47-1 47 11v14l-2 48-1 3h13l-2-3-1-36v-34l3-2c2-2 3-2 65-2l62 1v-4q0-5-3-5c-17 0-32-1-33-2-3-4-3-70 1-74l18-1 17 1v-4l-1-6h-57c-66 0-66 0-68-4s-2-70 0-74l2-4h123q1 2 1-3c0-6-1-7-16-6-16 0-19 0-20-5-2-7-2-66 0-68 2-3 6-4 22-4q15 0 13 2 1 1 1-3c0-8 5-7-62-7h-60l-2-2-2-2V87l2-3 3-2h35l40 1h45q1 1 1-2c0-7 1-7-17-7l-18-1c-1-2-3-31-2-32V25l1-20 1-5h-7l-6 1 1 22v34c0 15 0 16-12 17l-43 1h-83c-38 0-37 0-39-5-1-4-2-64-1-68q3-2-5-2h-6v32l-1 36c-1 8 2 7-63 8-117 0-118 0-120-3-2-1-2-60-1-69l1-4h-6q-8 0-5 2v54c-1 19-1 20-8 20l-4 1H169l-2-3c-3-2-3-64-1-70l2-4h-7q-9 0-6 2m407 81h-55c-51 0-55 1-57 2-3 4-3 77 0 80 4 2 177 1 181-1s4-3 4-42c0-35 0-35-2-37s-3-2-36-2zM87 84l-16 1c-13 0-16 1-17 7l-1 70c2 6 3 6 48 6 147-1 137 0 139-4 2-5 2-73 0-76-2-4 3-3-59-4zm240-1-37 1-39 2c-2 3-4 73-2 78 2 4 6 4 25 4l55-1 103-1c7 0 7 0 7-50 1-29 1-31-5-32h-91l-8-1zm180 90-76 1c-84 0-79 0-81 8s-2 62 0 65c2 5 2 5 53 4h48c60 0 78-1 80-4l2-35v-33l-2-2c-4-4-15-6-24-4m98 1c-59 0-59 0-61 5-2 3-1 64 0 67 2 4 2 4 89 4 79 0 85 0 87-2 4-5 4-69 1-73-2-2-4-2-116-1m-295 1-102 1-40 1-3 2-2 3v33c0 34 0 35 4 36h168c4-1 4-4 4-39l1-33-3-2c-2-2-26-4-27-2m210 84h-33l-35 1c-5 1-5 3-5 40s0 38 4 40l89 1h45c42 0 45 0 48-3 2-3 3-73 0-77l-1-2zm-355 1h-54c-40 0-53 1-55 2-3 2-4 6-3 42 0 34 0 34 2 37l2 2 89-1h89l2-2q2-2 2-11l1-65c-2-4-5-4-40-4zm99 0c-18 1-16-3-16 38-1 37-1 38 2 42 2 2 8 3 47 2l37-1h56c50 0 47 1 47-10 2-13 2-62 1-66l-3-5zm59 90-64 1c-78 0-91 0-94 2s-3 5-3 40c0 31 0 31 2 33 2 3 9 3 117 2 50-1 52-1 54-3s3-4 3-46l1-24-2-3-7-2-5-1zm234 0-12 1c-3 2-3 12-3 54 0 18 0 19 2 21s4 2 43 1h61l70-1c3 0 3-2 3-21 2-48 1-53-3-55zm-202 1c-7 1-7 2-7 40 0 32 0 32 2 34 2 1 6 2 30 2 43 1 146 0 149-1s3-5 3-41v-31l-3-2c-2-2-4-2-43-2l-42 1z"
        mask="url(#16282281824-posters-1720553804591-radial-mask)" itemprop="regular" fill-opacity="0.90"
        fill-rule="evenodd" stroke="none" fill="url(#16282281824-posters-1720553804591-horizontal-regular)"></path>
      <!---->
      <path id="16282281824-posters-1720553804591-medium"
        d="M155 2c2 2 2 65 0 70s-2 5-58 5l-75 1H0v7h20c20 0 21 0 23 2l2 2v36c-1 38-1 41-5 43H19l-19 1v7h84c69 0 68 0 70 5v66c-1 6-1 6-53 6H0v7h18l21 1c5 2 5 0 5 64-1 19-2 19-31 18H0v9l29-1 122 1c3 3 3 5 3 32l-1 31c0 8 0 8-3 11l-3 3H0v4l1 3h18c21 1 22 1 23 6 1 3 1 56-1 66v4h10l-1-20q0-51 4-53c2-2 3-2 40-3h87c55-1 55-1 57 5v59l-1 12h10l-1-5v-65q0-3 3-5c3-2 6-2 79-2l76-1h1l13 1c14 0 17 1 19 5s0 68-2 70q-3 2 5 2h6v-63c1-15 2-15 31-14l25-1h2l63 1c66 0 64 0 66 5 1 4 0 63-1 68l-2 4h7q8 1 5-2c-3-2-3-71 0-74l65-1h63v-7h-16c-23-1-21 0-22-19-1-21 0-54 1-56 2-3 5-4 21-4l15 1q1 1 1-3c0-7-2-7-20-6H648l-4-3-2-31v-22c1-22 2-25 5-27h116l7 1v-3c0-6 0-6-13-6q-19 1-23-1c-1-2-2-12-2-39 0-34 0-35 7-37 7-1 29-1 30 1q1 2 1-3l-1-5H648l-3-2-2-7c-1-42 0-70 2-72 2-3 18-6 21-4l29 1h56c17-1 18-1 18 1q1 1 1-1c0-8 0-8-13-7-17 0-21 0-23-4s-2-61-1-67l1-4h-10l-1 35-1 36c-2 3-9 4-30 4l-24 1H549l-2-3-2-2V3l1-3h-13l1 9v23l1 16v2l-1 11c0 11-1 13-7 15-7 1-173 0-176-1-3-2-3-4-3-41l1-34h-9v31c0 36 0 41-4 44-3 2-23 2-156 2-16 0-16 1-16-30V22l1-18 2-4h-7q-8 0-5 2m-27 81-27 1c-31 0-42 1-45 3-2 2-3 9-4 47 0 27 0 31 4 33 3 2 178 1 181 0 4-2 4-4 5-42V89l-2-2c-3-3-4-3-11-3zm222 0h-48c-49 1-51 1-53 5-1 2-2 57-1 68 1 14-6 13 66 12l85-1 36-1c4-1 4-5 5-42V88l-2-2-2-3zm116 0c-14 0-15 0-16 2-2 3-3 72-2 77 2 5 0 5 94 4 83 0 88 0 90-2 4-3 4-5 4-44V86l-3-2-2-2h-44l-46 1zm42 89c-5 1-23 2-79 2l-75 1c-5 2-5 4-5 39 0 33 0 33 2 35l2 3 81-1c97 0 94 0 97-3 2-3 2-4 2-15l1-33c0-25 0-25-11-27-8-2-8-2-15-1m42 2c-7 1-7 0-7 35-1 32 0 38 3 40 2 2 10 2 117 2 64-1 58 1 59-13l1-35c0-26 0-26-2-28s-6-2-85-2zm-255 0-59 1-64 1c-9 2-9 0-10 38v34l2 2 3 3 59-1h84l25-1 3-2q3-6 2-61c0-13 1-13-24-14zm-14 85-30 1-2 2c-3 4-4 72 0 77q2 6 24 4l116-1c52 0 48 1 49-12l1-37c0-31 0-31-5-33-3-1-101-2-153-1m177 0c-12 1-12-1-12 41 0 37 0 38 5 41 5 2 176 1 180-1s4-5 4-41c1-36 1-39-4-40zm-384 1c-18 1-19 1-21 6l-1 37v36l3 2 3 3 37-1h88c48 0 51 0 53-2 4-3 4-6 4-39l1-27c1-4-2-12-3-14-2-1-116-2-164-1m248 89-52 1c-56 0-96 1-102 2s-7 3-7 36c-1 30 0 36 3 39l2 2h27l87-1c56 0 55 0 57-5l2-53c0-19 0-19-8-20l-7-2zm242 0q-16 0-19 2c-3 2-3 7-3 42 0 30 0 31 2 33s3 2 43 2h86c44 0 45-1 47-2 3-3 4-72 1-75-2-2-117-3-157-2m-208 1c-8 2-8 1-8 37l-2 32q0 3 5 8c3 2 173 2 177 0s4-3 4-40l1-33-3-3-3-2-40 1z"
        mask="url(#16282281824-posters-1720553804591-vertical-mask)" itemprop="medium" fill-opacity="0.90"
        fill-rule="evenodd" stroke="none" fill="url(#16282281824-posters-1720553804591-vertical-medium)"></path>
      <!---->
      <path id="16282281824-posters-1720553804591-bold"
        d="M156 4q2 4 1 15v49q0 6-5 8c-3 2-18 2-78 2L0 79v5h20c28-1 25-6 25 41 0 43 0 42-9 44l-21 1H0v2c0 4 1 4 66 3 71-1 83 0 87 2l3 3v33c0 34 0 37-4 39-2 1-54 2-125 2H0v6h14q26-1 29 2c2 3 2 73 0 77-2 5-5 5-24 5H0v7h20l22-1h4c2-1 102 0 104 1 4 3 5 7 4 35 0 37-1 39-5 42l-3 2H98l-51-1-25 1H0v6h19c26 0 26 0 25 24l-1 21v18l-1 13h4q7 1 4-2l-1-23v-22l1-6 1-12c1-12-6-11 72-12h111l3 3 2 2v33l-1 36-1 3h9l-1-3c-1-4 0-59 1-66 1-9-5-8 81-8 75 0 76 0 76-2q0-5 3 0c1 2 2 2 14 2 13 0 13 0 16 2l3 3-1 18q0 49-2 52t4 2q6 1 5-2c-3-10 0-70 2-73q3-3 30-2l21-1 4-1h2c2 3 15 3 14 0a2 2 0 1 1 2-1c0 2 17 4 26 3l44-1c41 0 42 0 44 7 1 6 0 66-2 69q-2 3 4 2 6 1 4-2v-72c2-4 6-4 27-4h61l42 1v-6l-18-1c-14 0-17-1-19-2-2-3-3-40-2-64 2-14 1-13 22-13l17 1v-4l-2-4h-62c-69-1-63 1-64-11-2-26 0-68 2-72 2-2 124-3 125-1q1 1 1-1c0-6 0-6-18-6-21-1-20 0-20-16l-1-34c1-24 1-25 5-27s33-3 33-1q1 1 1-2-2-7-9-5c-4 2-112 1-115-1-2-2-5-10-4-14v-35c0-24 1-30 4-33 2-2 3-2 39-2l38 1h9c1-2 37-2 37 0q1 1 1-1c0-6 0-6-14-5-25 1-24 3-24-39l1-35q1-2-4-2h-4l-1 21v30c0 26 2 24-30 25l-26 1-60-1h-59l-3-2-2-3V3l1-3h-6q-6 0-4 2v23l1 23v3l-1 8q0 13-3 15c-2 2-34 3-69 3h-78c-31 0-34 0-36-4-2-2-2-67-1-71q3-2-4-2-6 0-4 2v66c-1 7-1 7-5 9l-49 1h-40c-41 1-76 0-79-2-4-3-4-7-4-63l2-8q4-6-4-5h-6zm-29 78-34 1c-42 1-39-1-41 19v58c0 9 6 10 36 10l24-1h107c25-1 22 4 23-40V90c-2-7 2-6-57-7l-54-1zm222 0-11 1c-35-1-85 0-87 2-3 3-5 31-4 67 0 16 3 18 20 17l116-1 52-1 2-2a10 10 0 0 0 3-9v-36c1-38 1-36-8-38zm130 0h-14c-20 1-18-5-18 50l-2 14 1 9q1 8 4 10l2 2h178l3-3 3-3v-37l1-38-3-3-3-2h-41l-85 1zm-184 89 1 2q2 1-7 1l-20 1-14-1h-3l-40 1c-43 0-46 0-49 5l-2 35v32l3 3 3 3h65c111 0 104 0 107-5 1-2 3-59 2-65-1-9-1-9-35-9q-8 0-8-2-2-3-3-1m214 1-80 1c-84 0-79-1-80 9-1 9-2 45-1 56 1 9 1 10 3 13l2 2h18l73-1h45l21-1c21 0 22-1 23-8v-66c-2-5-14-7-24-5m40 2q-5 0-5 2c-2 2-3 61-2 69 2 6 3 6 26 6l21 1h4l62-1c59 0 65 0 67-3q2-4 2-44v-27l-2-3-3-2h-83c-67 0-84 0-87 2m-226 84c-74 1-74 0-76 5l-1 37c0 46-1 44 18 43h90l80-1 3-2 2-3v-37c1-41 1-40-6-41-6-1-38-2-110-1m160 0h-32l-2 3q-3 3-3 8a4 4 0 0 1-3 5l1 1a158 158 0 0 1 1 46l1 8q0 11 4 12c3 1 176 2 180 0 6-2 6-4 6-32 0-47 0-46-2-49l-2-2zm-392 1H74c-17 1-17 1-20 3l-2 3-1 27c0 35 1 47 3 50l2 2h28c161 0 153 0 156-6 2-7 2-74-1-76q-3-4-27-3zm230 89c0 1-16 2-75 2-82 0-82 0-84 5l-1 37v33l3 3 3 2h57l22-1h64c27-1 27-1 28-7l2-36v-32l-2-2q-3-3-8-3l-5-1zm256 0-15 1c-18 0-17 0-20 5-3 7-2 69 1 72 2 2 25 4 45 3l66-1c77 0 68 2 69-17v-35c0-26 0-26-8-27l-70-1h-65l-1-1zm-223 2c-6 1-7 4-7 20-1 39-1 38-2 36q-2-2-2 1l2 2 1 6q0 11 5 12c4 2 91 2 92 1 2-1 8 1 8 2a1 1 0 1 0 1 1c0-2 10-3 51-2l21-1c9 0 9 1 9-40v-35l-3-2c-2-2-3-2-88-2z"
        mask="url(#16282281824-posters-1720553804591-horizontal-mask)" itemprop="bold" fill-opacity="0.90"
        fill-rule="evenodd" stroke="none" fill="url(#16282281824-posters-1720553804591-vertical-bold)"></path>
    </pattern>
    <rect id="16282281824-posters-1720553804591-pattern-render" fill="url(#16282281824-posters-1720553804591-pattern)"
      width="100%" height="100%"></rect>
  </defs>
  <radialGradient id="lightbar" cx="50%" cy="200%" fy="0" r="201%">
    <stop offset="0%" style="stop-color: rgb(255, 255, 255); stop-opacity: 0.1;"></stop>
    <stop offset="10%" style="stop-color: rgb(0, 0, 0); stop-opacity: 0.1;"></stop>
    <stop offset="30%" style="stop-color: rgb(0, 0, 0); stop-opacity: 0.3;"></stop>
    <stop offset="90%" style="stop-color: rgb(0, 0, 0); stop-opacity: 0.55;"></stop>
    <stop offset="100%" style="stop-color: rgb(0, 0, 0); stop-opacity: 0.6;"></stop>
  </radialGradient>
  <g class="radial">
    <radialGradient id="16282281824-posters-1720553804591-radial" gradientUnits="userSpaceOnUse">
      <stop itemprop="radial" stop-color="#d5d4d2" offset="0%"></stop>
      <stop itemprop="radial" stop-color="#e4e3e2" offset="15%"></stop>
      <stop itemprop="radial" stop-color="#dad9d8" offset="30%"></stop>
      <stop itemprop="radial" stop-color="#d7d6d5" offset="45%"></stop>
      <stop itemprop="radial" stop-color="#d7d7d5" offset="60%"></stop>
      <stop itemprop="radial" stop-color="#d7d7d5" offset="75%"></stop>
      <stop itemprop="radial" stop-color="#dfdedd" offset="90%"></stop>
    </radialGradient>
    <radialGradient id="16282281824-posters-1720553804591-radial-background" gradientUnits="userSpaceOnUse">
      <stop stop-color="#d3cec5" offset="0%"></stop>
      <stop stop-color="#d3cec5" offset="15%"></stop>
      <stop stop-color="#d3cdc5" offset="30%"></stop>
      <stop stop-color="#d3cdc5" offset="45%"></stop>
      <stop stop-color="#d3cec5" offset="60%"></stop>
      <stop stop-color="#d3cec5" offset="75%"></stop>
      <stop stop-color="#d3cdc5" offset="90%"></stop>
    </radialGradient>
    <radialGradient id="16282281824-posters-1720553804591-radial-light" gradientUnits="userSpaceOnUse">
      <stop stop-color="#9c9a96" offset="0%"></stop>
      <stop stop-color="#9b9a97" offset="15%"></stop>
      <stop stop-color="#9c9996" offset="30%"></stop>
      <stop stop-color="#9b9997" offset="45%"></stop>
      <stop stop-color="#9c9a96" offset="60%"></stop>
      <stop stop-color="#9c9a96" offset="75%"></stop>
      <stop stop-color="#9c9a96" offset="90%"></stop>
    </radialGradient>
    <radialGradient id="16282281824-posters-1720553804591-radial-regular" gradientUnits="userSpaceOnUse">
      <stop stop-color="#83817c" offset="0%"></stop>
      <stop stop-color="#82807d" offset="15%"></stop>
      <stop stop-color="#83807c" offset="30%"></stop>
      <stop stop-color="#82807d" offset="45%"></stop>
      <stop stop-color="#83817c" offset="60%"></stop>
      <stop stop-color="#83817c" offset="75%"></stop>
      <stop stop-color="#83807c" offset="90%"></stop>
    </radialGradient>
    <radialGradient id="16282281824-posters-1720553804591-radial-medium" gradientUnits="userSpaceOnUse">
      <stop stop-color="#51504d" offset="0%"></stop>
      <stop stop-color="#514f4d" offset="15%"></stop>
      <stop stop-color="#514f4d" offset="30%"></stop>
      <stop stop-color="#514f4d" offset="45%"></stop>
      <stop stop-color="#51504d" offset="60%"></stop>
      <stop stop-color="#51504d" offset="75%"></stop>
      <stop stop-color="#514f4d" offset="90%"></stop>
    </radialGradient>
    <radialGradient id="16282281824-posters-1720553804591-radial-bold" gradientUnits="userSpaceOnUse">
      <stop stop-color="#2f2e2d" offset="0%"></stop>
      <stop stop-color="#2f2e2d" offset="15%"></stop>
      <stop stop-color="#2f2e2d" offset="30%"></stop>
      <stop stop-color="#2f2e2d" offset="45%"></stop>
      <stop stop-color="#2f2e2d" offset="60%"></stop>
      <stop stop-color="#2f2e2d" offset="75%"></stop>
      <stop stop-color="#2f2e2d" offset="90%"></stop>
    </radialGradient>
  </g>
  <g class="vertical">
    <linearGradient id="16282281824-posters-1720553804591-vertical" gradientUnits="userSpaceOnUse" x1="0" x2="0" y1="0"
      y2="100%">
      <stop itemprop="vertical" stop-color="#d5d4d2" offset="0%"></stop>
      <stop itemprop="vertical" stop-color="#e4e3e2" offset="15%"></stop>
      <stop itemprop="vertical" stop-color="#d7d6d5" offset="30%"></stop>
      <stop itemprop="vertical" stop-color="#d7d6d5" offset="45%"></stop>
      <stop itemprop="vertical" stop-color="#d7d7d5" offset="60%"></stop>
      <stop itemprop="vertical" stop-color="#d7d7d5" offset="75%"></stop>
      <stop itemprop="vertical" stop-color="#dfdedd" offset="90%"></stop>
    </linearGradient>
    <linearGradient id="16282281824-posters-1720553804591-vertical-background" gradientUnits="userSpaceOnUse" x1="0"
      x2="0" y1="0" y2="100%">
      <stop stop-color="#ceccca" offset="0%"></stop>
      <stop stop-color="#cdcccb" offset="15%"></stop>
      <stop stop-color="#cdcccb" offset="30%"></stop>
      <stop stop-color="#cdcccb" offset="45%"></stop>
      <stop stop-color="#ceccca" offset="60%"></stop>
      <stop stop-color="#ceccca" offset="75%"></stop>
      <stop stop-color="#ceccca" offset="90%"></stop>
    </linearGradient>
    <linearGradient id="16282281824-posters-1720553804591-vertical-light" gradientUnits="userSpaceOnUse" x1="0" x2="0"
      y1="0" y2="100%">
      <stop stop-color="#ae9f84" offset="0%"></stop>
      <stop stop-color="#ae9f84" offset="15%"></stop>
      <stop stop-color="#ae9d84" offset="30%"></stop>
      <stop stop-color="#ae9d84" offset="45%"></stop>
      <stop stop-color="#ae9f84" offset="60%"></stop>
      <stop stop-color="#ae9f84" offset="75%"></stop>
      <stop stop-color="#ae9d84" offset="90%"></stop>
    </linearGradient>
    <linearGradient id="16282281824-posters-1720553804591-vertical-regular" gradientUnits="userSpaceOnUse" x1="0" x2="0"
      y1="0" y2="100%">
      <stop stop-color="#83817c" offset="0%"></stop>
      <stop stop-color="#82807d" offset="15%"></stop>
      <stop stop-color="#82807d" offset="30%"></stop>
      <stop stop-color="#82807d" offset="45%"></stop>
      <stop stop-color="#83817c" offset="60%"></stop>
      <stop stop-color="#83817c" offset="75%"></stop>
      <stop stop-color="#83807c" offset="90%"></stop>
    </linearGradient>
    <linearGradient id="16282281824-posters-1720553804591-vertical-medium" gradientUnits="userSpaceOnUse" x1="0" x2="0"
      y1="0" y2="100%">
      <stop stop-color="#51504d" offset="0%"></stop>
      <stop stop-color="#514f4d" offset="15%"></stop>
      <stop stop-color="#514f4d" offset="30%"></stop>
      <stop stop-color="#514f4d" offset="45%"></stop>
      <stop stop-color="#51504d" offset="60%"></stop>
      <stop stop-color="#51504d" offset="75%"></stop>
      <stop stop-color="#514f4d" offset="90%"></stop>
    </linearGradient>
    <linearGradient id="16282281824-posters-1720553804591-vertical-bold" x1="0" x2="0" y1="0" y2="100%">
      <stop stop-color="#2f2e2d" offset="0%"></stop>
      <stop stop-color="#2f2e2d" offset="15%"></stop>
      <stop stop-color="#2f2e2d" offset="30%"></stop>
      <stop stop-color="#2f2e2d" offset="45%"></stop>
      <stop stop-color="#2f2e2d" offset="60%"></stop>
      <stop stop-color="#2f2e2d" offset="75%"></stop>
      <stop stop-color="#2f2e2d" offset="90%"></stop>
    </linearGradient>
  </g>
  <g class="horizontal">
    <linearGradient id="16282281824-posters-1720553804591-horizontal" x1="0" x2="100%" y1="0" y2="0"
      gradientUnits="userSpaceOnUse">
      <stop itemprop="horizontal" stop-color="#dad9d8" offset="0%"></stop>
      <stop itemprop="horizontal" stop-color="#dcdcda" offset="15%"></stop>
      <stop itemprop="horizontal" stop-color="#d7d7d5" offset="30%"></stop>
      <stop itemprop="horizontal" stop-color="#dad9d8" offset="45%"></stop>
      <stop itemprop="horizontal" stop-color="#dad9d8" offset="60%"></stop>
      <stop itemprop="horizontal" stop-color="#dcdbda" offset="75%"></stop>
      <stop itemprop="horizontal" stop-color="#dad9d8" offset="90%"></stop>
    </linearGradient>
    <linearGradient id="16282281824-posters-1720553804591-horizontal-background" gradientUnits="userSpaceOnUse" x1="0"
      x2="100%" y1="0" y2="0">
      <stop stop-color="#ceccca" offset="0%"></stop>
      <stop stop-color="#ceccca" offset="15%"></stop>
      <stop stop-color="#ceccca" offset="30%"></stop>
      <stop stop-color="#ceccca" offset="45%"></stop>
      <stop stop-color="#ceccca" offset="60%"></stop>
      <stop stop-color="#ceccca" offset="75%"></stop>
      <stop stop-color="#ceccca" offset="90%"></stop>
    </linearGradient>
    <linearGradient id="16282281824-posters-1720553804591-horizontal-light" gradientUnits="userSpaceOnUse" x1="0"
      x2="100%" y1="0" y2="0">
      <stop stop-color="#9c9a96" offset="0%"></stop>
      <stop stop-color="#9c9a96" offset="15%"></stop>
      <stop stop-color="#9c9a96" offset="30%"></stop>
      <stop stop-color="#9c9a96" offset="45%"></stop>
      <stop stop-color="#9c9a96" offset="60%"></stop>
      <stop stop-color="#9c9a96" offset="75%"></stop>
      <stop stop-color="#9c9a96" offset="90%"></stop>
    </linearGradient>
    <linearGradient id="16282281824-posters-1720553804591-horizontal-regular" gradientUnits="userSpaceOnUse" x1="0"
      x2="100%" y1="0" y2="0">
      <stop stop-color="#968669" offset="0%"></stop>
      <stop stop-color="#968669" offset="15%"></stop>
      <stop stop-color="#968669" offset="30%"></stop>
      <stop stop-color="#968669" offset="45%"></stop>
      <stop stop-color="#968669" offset="60%"></stop>
      <stop stop-color="#968369" offset="75%"></stop>
      <stop stop-color="#968669" offset="90%"></stop>
    </linearGradient>
    <linearGradient id="16282281824-posters-1720553804591-horizontal-medium" gradientUnits="userSpaceOnUse" x1="0"
      x2="100%" y1="0" y2="0">
      <stop stop-color="#5d5341" offset="0%"></stop>
      <stop stop-color="#5d5341" offset="15%"></stop>
      <stop stop-color="#5d5341" offset="30%"></stop>
      <stop stop-color="#5d5341" offset="45%"></stop>
      <stop stop-color="#5d5341" offset="60%"></stop>
      <stop stop-color="#5d5141" offset="75%"></stop>
      <stop stop-color="#5d5341" offset="90%"></stop>
    </linearGradient>
    <linearGradient id="16282281824-posters-1720553804591-horizontal-bold" gradientUnits="userSpaceOnUse" x1="0"
      x2="100%" y1="0" y2="0">
      <stop stop-color="#2f2e2d" offset="0%"></stop>
      <stop stop-color="#2f2e2d" offset="15%"></stop>
      <stop stop-color="#2f2e2d" offset="30%"></stop>
      <stop stop-color="#2f2e2d" offset="45%"></stop>
      <stop stop-color="#2f2e2d" offset="60%"></stop>
      <stop stop-color="#2f2e2d" offset="75%"></stop>
      <stop stop-color="#2f2e2d" offset="90%"></stop>
    </linearGradient>
  </g>
  <g class="masks">
    <mask id="16282281824-posters-1720553804591-pattern-mask" maskUnits="userSpaceOnUse"
      maskContentUnits="userSpaceOnUse">
      <pattern id="pattern" x="0" y="0" width=".0133" height=".0144" viewBox="0 0 23.07 40">
        <path
          d="M17.62 0l-6.07 10.5m2.74 4.76L8.22 4.75m-5.48 0h12.13M.01 0h23.07M6.07 20L0 9.5m2.74-4.75l-6.07 10.5m-5.48 0H3.33m8.2 4.75L0 .02-11.54 20m40.68 0L23.07 9.5m2.74-4.75l-6.06 10.5m-5.49 0H26.4M34.6 20L23.08.02 11.53 20m-5.46 0L0 30.51m2.74 4.75l-6.07-10.5m-5.48 0H3.33m8.2-4.75L0 40l-11.54-19.98zM17.6 40l-6.06-10.5m2.74-4.76L8.2 35.25m-5.48 0h12.13M0 40h23.07L11.54 20.01m17.6 0l-6.07 10.5m2.74 4.75l-6.06-10.5m-5.49 0H26.4M11.53 20h23.08L23.07 40"
          stroke-linecap="round" stroke-width="3.5" stroke="white"
          fill="url(#16282281824-posters-1720553804591-horizontal-background)"></path>
      </pattern>
      <rect width="100%" height="100%" fill="url(#pattern)"></rect>
    </mask>
    <mask id="16282281824-posters-1720553804591-horizontal-mask" maskUnits="userSpaceOnUse"
      maskContentUnits="userSpaceOnUse">
      <rect width="100%" height="100%" fill="url(#16282281824-posters-1720553804591-horizontal-background)"></rect>
    </mask>
    <mask id="16282281824-posters-1720553804591-radial-mask" maskUnits="userSpaceOnUse"
      maskContentUnits="userSpaceOnUse">
      <rect width="100%" height="100%" fill="url(#16282281824-posters-1720553804591-radial-background)"></rect>
    </mask>
    <mask id="16282281824-posters-1720553804591-vertical-mask" maskUnits="userSpaceOnUse"
      maskContentUnits="userSpaceOnUse">
      <rect width="100%" height="100%" fill="url(#16282281824-posters-1720553804591-vertical-background)"></rect>
    </mask>
  </g>
  <use href="#16282281824-posters-1720553804591-pattern-render"></use>
  <g>
    <use href="#16282281824-posters-1720553804591-background"></use>
    <use href="#16282281824-posters-1720553804591-light"></use>
    <use href="#16282281824-posters-1720553804591-regular"></use>
    <use href="#16282281824-posters-1720553804591-medium"></use>
    <use href="#16282281824-posters-1720553804591-bold"></use>
  </g>
  <g itemprop="animation">
    <animate href="#16282281824-posters-1720553804591-light" attributeName="stroke-opacity" repeatCount="indefinite"
      dur="5s" values="0.9;0.0;0.9"></animate>
    <animate href="#16282281824-posters-1720553804591-regular" attributeName="stroke-opacity" repeatCount="indefinite"
      dur="4s" values="0.9;0;0.9"></animate>
    <animate href="#16282281824-posters-1720553804591-medium" attributeName="stroke-opacity" repeatCount="indefinite"
      dur="5s" values="0.9;0;0.9"></animate>
    <animate href="#16282281824-posters-1720553804591-bold" attributeName="stroke-opacity" repeatCount="indefinite"
      dur="3s" values="0.9;0;0.9"></animate>
    <animate href="#16282281824-posters-1720553804591-regular" attributeName="fill-opacity" repeatCount="indefinite"
      dur="8s" values="0.9;0.75;0.95;0.8;0.9;"></animate>
    <animate href="#16282281824-posters-1720553804591-radial-background" attributeName="cx" repeatCount="indefinite"
      dur="34s" values="0%;33%;100%;0%;100%;0%;"></animate>
    <animate href="#16282281824-posters-1720553804591-radial-background" attributeName="cy" repeatCount="indefinite"
      dur="55s" values="0%;100%;33%;100%;66%;0%"></animate>
    <animate href="#16282281824-posters-1720553804591-vertical-light" attributeName="x1" repeatCount="indefinite"
      dur="55s" values="0%;33%;100%;0%;133%;0%;"></animate>
    <animate href="#16282281824-posters-1720553804591-vertical-light" attributeName="y1" repeatCount="indefinite"
      dur="86s" values="0%;100%;33%;100%;66%;0%"></animate>
    <animate href="#16282281824-posters-1720553804591-horizontal-regular" attributeName="x1" repeatCount="indefinite"
      dur="34s" values="0%;100%;66%;0%;33%;133%;0%"></animate>
    <animate href="#16282281824-posters-1720553804591-horizontal-regular" attributeName="y1" repeatCount="indefinite"
      dur="55s" values="0%;66%;100%;33%;100%;66%;0%"></animate>
    <animate href="#16282281824-posters-1720553804591-vertical-medium" attributeName="x1" repeatCount="indefinite"
      dur="34s" values="0%;100%;66%;0%;33%;133%;0%"></animate>
    <animate href="#16282281824-posters-1720553804591-vertical-medium" attributeName="y1" repeatCount="indefinite"
      dur="55s" values="0%;66%;100%;33%;100%;66%;0%"></animate>
    <animate href="#16282281824-posters-1720553804591-vertical-bold" attributeName="x1" repeatCount="indefinite"
      dur="34s" values="0%;100%;66%;0%;33%;133%;0%"></animate>
    <animate href="#16282281824-posters-1720553804591-vertical-bold" attributeName="y1" repeatCount="indefinite"
      dur="55s" values="0%;66%;100%;33%;100%;66%;0%"></animate>
  </g>
</svg>
