<svg id="16282281824-posters-1720553553000" itemscope="" itemtype="/posters"
  itemid="/+16282281824/posters/1720553553000" viewBox="0 0 769 512" preserveAspectRatio="xMidYMid meet" tabindex="0"
  class="animate landscape" xmlns="http://www.w3.org/2000/svg">
  <!---->
  <defs class="graphic">
    <pattern id="16282281824-posters-1720553553000-pattern" width="769" height="512" viewBox="0 0 769 512"
      patternUnits="userSpaceOnUse" preserveAspectRatio="xMidYMid meet">
      <rect itemprop="background" width="769" height="512" tabindex="-1"
        id="16282281824-posters-1720553553000-background" fill-opacity="1"
        fill="url(#16282281824-posters-1720553553000-radial-background)"></rect>
      <!---->
      <path id="16282281824-posters-1720553553000-light"
        d="M169 6q1 11-5 6-7-3-6 3 3 6 11 6c6 0 7-1 7-12l1-9h-8zm509 1v7l-3-2q-6-5-8-2l3 6q4 4 7 2h6q4 2 6 1 5-2 0-5-4 1-3-7V0h-8zm64-4-1 7q1 5-2 3-6-4-7-1c0 5 8 10 10 6q0-2 4 1c5 2 12 1 12-3q0-4-5-3-4 4-3-6V0h-4q-4-1-4 3M77 4c-2 3-3 19-1 22q3 4 5 0c1-2 2-21 1-23q-2-2-5 1m204 5-1 8v7q-1 4-5 0-4-2-7 1c-1 5 8 9 14 6q5-3 7 0 6 3 7-3c0-2-5-3-7-1l-1-9V7l-3-1q-3-1-4 3m285 2-2 9q1 10-5 5-7-4-5 4 1 6 13 7 13 0 14-5-1-4-5-3t-3-10q0-10-3-9-3 0-4 2m-385 7-3 3c0 3 9 1 10-2q2-5-7-1m269 1-3 15v7l-4-2q-7-4-6 2c2 5 9 8 11 4q0-2 3 1 1 3 7 2c7-1 8-6 1-6h-3V31l-1-12zM63 23q1 6 7 7 10-1-1-7zm24 3q-7 6 5 3l3-3q-2-3-8 0m277 13-1 8q1 10-5 6t-6 0 4 6l1 1 6 1 9 2h6q10-6-1-6c-6 1-6 1-7-9q-1-14-6-9m264 2-1 11q1 15-6 6-9-5-6 4 4 7 10 4 3-3 4 0c4 4 18 1 14-3l-4-2q-5 1-5-11v-9zm-508 2c-4 4-3 28 1 28 5 0 7-23 3-28l-2-2zm95 0c-2 1-1 19 1 21q4 5 5-10 1-16-6-11m482 12c-2 2-3 16-2 20q4 11 13 4 4-4-2-5h-4V64q0-12-3-10zm-191 1q-2 2-3 10 0 13-4 10-8-3-5 3 4 6 8 3h4q6 2 5-14 1-17-5-12m-303 8c0 3 6 7 9 6q3-3-2-7-7-5-7 1m21 0q-5 4-2 6c3 2 12-3 10-6zM37 68c-2 4-3 20-1 22q3 2 6-1c2-2 2-19 1-22q-4-2-6 1m71-1q-1 4 3 6 10 0 3-5-5-3-6-1m20 2q-4 2-3 4c3 3 12-1 12-6q-1-3-9 2m555 7c0 3 6 8 9 8q4-1 4-4c-2-4-13-8-13-4m-347 4-2 8c0 12-1 13-3 11q-4-4-5-1-4 1 1 6 3 4 6 2h12q4-3 0-6-4 0-3-11-1-12-6-9m177 0q-2 0-2 3c0 2 8 2 9 0q2-5-7-3m48 3-1 7q0 10-5 7c-5-5-9 3-4 8 3 3 22 3 25 1q5-4-3-6h-5v-7q2-14-3-13-3 0-4 3m-300 1-1 10v9h-5q-9-1-5 4 2 5 12 2 5-3 6-1c3 4 11 0 9-4a7 7 0 0 0-9 2l-1-10q0-18-6-12M22 88c-1 2 5 7 9 7q8-2 0-6-7-5-9-1m416-1c-4 2-4 20 0 24 2 3 9 3 11 1q3-4-2-4-6 0-4-10 1-14-5-11M46 89q-5 1-2 4c3 2 10 0 10-3q-1-5-8-1m125 10c-1 2-3 14-2 17q5 7 8-2c2-11-1-20-6-15m-84 3q-2 1-2 7 0 16-5 10c-6-3-8 2-3 6q4 5 11 2 3-3 3-1 2 5 8 2 5-3 5-6c-1-1-6-2-6 0l-3 1c-2 1-2 1-2-9q1-17-6-12m337 3c0 6 9 9 10 5q-2-6-8-7zm190 6-2 13v11l2 1q7 5 6-12 0-19-6-13m126 3-3 10q1 13-5 7-7-3-4 5 5 6 9 4h5q4 2 10-1 9-7 2-7c-9 2-8 3-9-8v-11q-1-2-5 1m-581 1c-3 2 3 10 7 9q6-1-1-7-5-5-6-2m20 4q-4 2-3 4 3 4 8 0c5-4 0-7-5-4m324 7-1 18q-1 4 3 4 5 1 5-14-1-12-7-8m173 1q-3 2-2 14t-4 6c-6-4-8 1-3 6l3 4 3-2q6-3 8 0 4 3 10-2 4-5-4-4c-4 0-5-2-5-15q1-12-6-7m-570 1q-1 5 2 7a4 4 0 1 0-2-7m279 4q-2 1-2 9 1 14-5 10-5-2-6 1 1 6 10 7h8q3 2 7-1 4-5-3-6l-3 1-1-10q0-18-5-11M3 133q-3 1-3 5-1 4 4 2 5-3 4-7zm600 1c-2 4 5 10 9 7q3-4-3-7-7-3-6 0m20 1c-5 1-6 6-2 6l9-4a4 4 0 0 0-7-2m-398 3q-2 0-2 9 1 13-6 6-7-4-3 5c4 6 18 9 22 5q4-4-1-4-5 2-4-10 1-17-6-11m74 2q-2 1-2 10v9l-3-2q-4-5-5-1c-2 5 5 11 9 7h3q5 4 10 0 4-4-2-5h-4v-9q-1-13-6-9m191 2c-3 1 2 9 6 9q6-1 4-4c-2-2-8-6-10-5m19 5q-2 5 3 6c2 0 8-4 7-6zm-368 2c-2 3-1 24 1 25q6 5 5-13 0-18-6-12m-97 4-1 12v11l4 2q6 4 11 0 4-4-2-5l-4 1q-2 4-2-10 0-13-3-12zm422 4c-3 5-2 25 1 28q5 5 9 1 4-3 0-4c-3-2-3-3-3-12q-1-21-7-13m98 0-1 4-1 4-1 5q1 4-5 4-7-1-3 6c5 5 25 4 25-1q-1-3-5-4c-2 0-2 0-2-8q0-15-7-10m-433 12q-3 2 0 3c2 3 8 2 8 0 0-3-6-5-8-3m-101 1c-3 4 5 10 9 8q6-2-2-6-6-4-7-2m733 4c-2 8-2 17 0 17l3 1h1l1 2 1-12v-12h-2q-3 0-4 4m-133 4-1 6q0 10-4 10-10-2-5 5 1 3 6 3l5 1c0 2 9 1 10 0q2-4-3-5-2 2-2-7 1-19-6-13m-179 3q-4 5 5 6 7 1 6-2l-1-3zm298 6c-1 4 6 10 9 8q4-3-2-7-7-6-7-1m-336 5-1 10q1 17-5 12c-6-4-9 1-4 6 2 1 19 2 23 1q6-2-2-5-6 0-5-6l-1-15q-1-7-5-3m-324 1c-2 1-3 18-1 21q7 6 7-10 1-18-6-11m608 0q-2 1-2 10-2 13 3 12 3-1 2 1 0 5 7 3 4-1 4-4 1-4-5-3l-4 1v-10c1-9 1-10-1-11q-2-2-4 1m-364 1-1 10v9h-3q-7 0-6 2c0 7 11 7 15 1 2-3 2-21 0-22zm-146 6v11q1 10-4 6c-2-2-7-2-7-1-2 5 9 11 12 7h2c5 4 16 1 13-3l-4-2q-4 2-3-10-2-17-9-8m71-1-1 9q1 12-6 7-10-3-3 6c6 6 26 4 26-2q-1-3-6-2h-3v-19l-3-1q-3-1-4 2m253 1-1 9q0 12-5 8-6-2-7 2 2 5 9 6l6 2c5 2 12 0 12-4q0-2-3-2c-4 0-4-1-4-11q0-15-7-10m-212 4q-4 4 3 6 4 1 3-3-1-6-6-3m-224 6q-2 2 1 4 6 6 10 2c2-4-8-9-11-6m-74 3c-2 2-1 17 1 20q5 4 6-9 0-18-7-11m99-1q-4 2-3 5 0 3 7 0 5-3 2-5zm585 0q0 6 6 7 3 1 3-2c0-4-7-8-9-5m-342 4q-7 4 1 6 8 0 8-4-2-5-9-2m242 8-1 10c-1 10-1 9-4 7l-3-2q-3-2-5 2c0 4 10 9 11 5h2c3 2 13 2 14-1q0-2-3-2-5-1-5-12-1-15-6-7m-567 1-1 2-4 4q-7 4-2 6c5 1 13-4 13-7q-2-7-6-5m119 12c-2 2-3 18-1 23q3 6 10 5c6-1 6-7 0-7h-4v-10q1-17-5-11m322 1-2 10c-1 11-1 11-5 9q-6-2-6 2c0 4 8 7 10 4h4q8 5 11 0 4-5-3-5l-3 1v-9q1-17-6-12m193 6c-4 6-1 24 3 21l2 2q3 3 7-1 2-6-3-4-2 2-2-7 0-19-7-11m73-2c-2 3-2 18 0 20q5 6 10 3c9-4 7-9-2-6q-2 3-2-8 0-12-3-10zm37 0-2 4c1 2 8 2 8 0q-1-5-6-4m-380 3c-2 1-2 2-2 12q1 12-2 9l-3-2q-5-3-6 2c0 5 8 9 11 6l4-2 3-2 2-5c1-3-1-18-2-19q-2-2-5 1m-329 9v21q7 6 8-13v-9l-4-1q-3-1-4 2m174-1-1 13v11l4 2c6 3 15 0 14-5h-8q-3 3-2-9-1-18-7-12m-104 1q0 3 5 8 10 6 3-5-6-6-8-3m590 2c-2 4 3 9 7 9q6 0 0-6t-7-3m-418 2-2 8c0 9 0 9-3 9q-8 1-2 7c5 5 24 4 22-1l-3-2c-4 0-5-1-5-11q-1-17-7-10m204 3q-2 2 1 4 3 3 6-1c2-4-3-6-7-3m141 0c-1 2 3 7 7 7q8-1 0-7-6-4-7 0m-252 8q-2 3 3 4 4-1 5-4c0-3-6-3-8 0m-326 3q-4 3 0 6 3 1 8-3 0-5-8-3m-20 1q-2 4 4 7 5 1 6-4c0-2-9-5-10-3m173 1q1 5 6 5 7 0 1-5-7-4-7 0m333 6-1 10q1 13 4 12 2-1 3 1c0 2 5 3 7 1q2-5-3-5l-4 1v-8q0-17-6-12m-391 13q-2 1-2 6l1 8q1 6 4 6c4 0 4-21 0-22zm379 0q-3 3 2 7 6 5 7 1c1-4-6-10-9-8m-185 8c-1 6-1 18 1 19q1 2 4-1c2-2 2-5 0-17q-1-8-5-1m76-2c-3 3-4 22-1 26 4 4 13 4 13-1q0-3-4-3h-4l1-10q1-16-5-12m189 3c-2 4 0 20 2 21l5 1c4 2 10-2 7-5h-2q-5 3-6-11v-6q-1-4-6 0m100 1-1 12v8l-3-2q-10-7-6 3 4 6 9 2l4-1c4 0 7-13 4-21q-3-5-7-1m-569 6q-2 3 1 5 9 2 4-4-2-3-5-1m-65 2c-2 3-2 19 0 21q5 5 6-9 1-17-6-12m379 0q-3 6 5 5 4-4-2-6zm-125 3c-2 4 9 13 13 10q3-4-2-6l-5-4q-4-4-6 0m-116 2-1 9v8q0 6 4 5c3-2 2-23 0-24zm-56 0c-1 2 4 5 7 5q5-1 5-4c0-2-10-3-12-1m442 2c-2 3 3 8 7 7q4-1 1-5-6-3-8-2m-247 1q-4 4 1 5c3 0 8-3 7-5zm56 4q0 5 6 5 6-1 1-6-6-5-7 1m79 2v16q0 4-4 4l-5 1c-4 5 10 7 15 3 2-3 3-22 1-25q-4-3-7 1M7 328l-4 1q-4-1-3 3 0 4 4 3 8-1 6-6-2-3-3-1m277 2-1 6-1 10q-1 7 3 8l3 2q2 5 8 1 7-7-4-5l-4 1 1-3v-20zm-213 1q-3 3 3 6 6 2 5-3-3-5-8-3m17 3q-3 2-1 3c2 3 9 2 10 0 3-4-6-7-9-3m83 14-1 12q0 12 2 10l3-1 2-21q-3-4-6 0m334-1c-5 1-5 6 1 6q7-1 5-5-1-3-6-1m36 1c-2 4 3 6 7 3q3-2 1-4-5-3-8 1m108 2c-3 3-3 18-1 19l4 3c4 4 13 1 13-4q1-3-5-2-8 3-5-6l-1-10q-2-5-5 0m-379-1-1 2c0 5 11 8 12 3 0-3-7-7-11-5m-238 3v16q1 6 5 2c2-2 3-15 1-18q-3-4-6 0m706 3q-3 4-3 18 1 5 5 3c2-1 4-13 4-19q-1-5-6-2m-165 2-1 14q0 8 5 5c1-2 3-16 2-19q-3-4-6 0m-182 4c-1 2-3 14-2 17q2 6 8 6c9 0 14-6 6-7q-6 1-5-7-1-13-7-9m63 2-2 10q1 12-6 9-5-1-5 3c1 3 8 5 10 4h5q6 2 10-1 3-3-2-4-5 1-4-11 2-14-6-10m182 0q-3 3 2 7t7 1c1-3-6-9-9-8m-394 3-2 8c-1 10-2 10-5 10h-5v5l11 1h7q4 2 6-1 4-3-3-4l-3-1v-9q0-9-2-10-2-2-4 1m-227 3c-2 5 10 11 14 7q2-3-6-6l-4-2q-1-3-4 1m134-1q0 4 5 5l3 1q3 3 6 1 6-4-4-6l-7-1zm-104 3-3 1q-4 3 0 6c5 1 11-5 8-7zm51 1c-2 3-1 16 1 18q4 4 4-11l-1-9zm91-1-6 1q-5-1-4 3-1 3 5 2 6 1 8-3 1-4-3-3m371 0c-3 4 6 12 10 9q5-3-3-7c-6-4-5-3-7-2m-234 2c-2 2-1 21 1 23 2 3 10 4 11 2q1-3-2-4-4 0-4-10 1-15-6-11m197 1q-2 4-1 16-1 8 3 6l4 2q5 2 9-2t-4-4l-5 1v-9q-1-18-6-10m59 2q-4 4 0 6c5 1 9-4 5-6zm141 1q1 4 7 5 7-2 3-5c-2-2-9-2-10 0m-341 0q-2 4 5 5 5 0 2-5zm363 1q-3 2 0 4c4 3 14 0 13-4-1-3-10-2-13 0M81 389c1 5 11 8 11 3q-2-4-8-5-4 0-3 2m25 1q-7 5 1 6 8-1 8-5-1-3-9-1m205 0c-3 3 5 10 9 8q4-2-2-6-5-5-7-2m197 1c-3 3 2 9 7 7q5-2 0-6-5-3-7-1m-373 28q0 10 2 12l2 3 2-3c4-4 1-21-4-22-2 0-2 0-2 10m502-8q-8 6 0 12 4 2 3 7l2 3c5 2 9-16 4-21q-4-3-9-1m-590 2-1 10-1 9q-2 6 3 8c5-1 7-27 2-28zm681 0-1 12c0 10 0 11 2 11q5 0 5-15 0-10-3-9zm-265 4c-3 3-3 18 0 21q7 4 7-12 0-15-7-9m-266 1c-2 2-2 2-2 10q0 13-3 12-4 0-4 4 2 3 9 2h4q4 3 11 1 7-5-2-5c-7 0-8-2-8-14q1-16-5-10m365 0-2 8-1 8q-2 5 3 6c4 0 8-15 5-21q-2-4-5-1m-300 2v12c-2 7 2 13 6 8 2-1 2-17 0-20q-2-5-6 0m102 4-1 8q1 12-7 10-6 0-4 4v9q1 2 6-3l5-4 2-1 1-2q4 0 4-10-1-16-6-11m-240 5q1 3 6 5 6-1 2-6-5-2-8 1m22 0q-7 6 3 5 4-2 4-6-2-2-7 1m481 2q-3 3 2 6 10 0 6-4l-6-3zm83 1q-3 4 8 7 7 1 5-4c-3-2-12-5-13-3m-262 3c-3 3 5 7 9 5q4-3-2-5-5-3-7 0m285 0q-4 7 8 5c7-2 6-7-2-7zm-703 0c-2 0-1 5 1 6 6 3 13 1 9-3-1-2-8-4-10-3m621 0c-2 0-3 4 0 4 4 2 9 0 7-3q-3-2-7-1m-590 2-4 2c-7 1-7 6 0 6q8 0 8-7-1-4-4-1m481 0q-3 6 8 8c5-1 5-6 0-7l-6-2zm-293 3q1 4 6 5 5-1 5-3c0-4-9-6-11-2m223 0q-3 3 4 5 8 0 4-5-5-4-8 0m-200 0c-4 3 0 7 4 5q5-4 0-6zm295 0q-4 3 0 6c4 2 10 0 10-3s-7-5-10-3m-196 3q-3 3 2 5c4 2 12-2 8-4-1-1-8-2-10-1m-281 1-1 7q2 14-9 9h-5c-3 4 3 8 10 7l8 2c5 2 14 0 14-4q1-3-4-2c-7 0-7 1-7-9l-1-10zm418 12v16q2 8 6 7c2-1 3-18 1-22q-3-3-7-1m98 1q-3 1-2 12 0 15 4 13 5 2 3-15-1-17-5-10m74 0v18c4 6 9-10 6-17q-2-5-6-1m83 2q-3 1-2 10v9h-7q-12 0-7 4c5 5 19 3 21-3 2-4 1-19-1-20zM4 461c-2 1-2 21 0 23q3 3 5-6c2-9-1-20-5-17m405 3-2 4 1 6c0 11 5 10 6-2q1-16-5-8m-271 7c-2 4-1 16 2 17q4 0 4-12 0-8-3-7zm70 3c-2 3-3 19-1 21q6 4 6-11 1-16-5-10m456 1c-1 3 6 6 11 5q4-3 0-6c-3-2-10-1-11 1m-171 1q-2 5 8 6 9 0 5-5c-2-2-11-3-13-1m195 0q-3 5 4 6 7-1 5-6zm-384 4-1 18c0 6 7 2 7-6q2-14-3-14-3 0-3 2m89-1q0 4 8 6 7-2 1-6zm125 0q-3 5 5 6 9-1 5-6a9 9 0 0 0-10 0m70 2c-5 4 7 9 12 5q3-2 1-3c-2-2-12-4-13-2m-172 1q-2 6 7 6c4-2 2-7-3-7zm197 1v5c2 1 10 0 11-1 2-3-6-6-11-4m-486 1q-3 3 2 5 9 2 4-4-4-3-6-1m-116 1q-4 3 0 5c5 2 12-1 9-4q-2-3-9-1m183 6c-1 3 4 8 8 6q5-2-1-5-5-4-7-1m458 3q-2 1-2 10v8h7v-6q1-16-5-12m-367 5c-2 3 7 8 11 6q5-4-6-7zm25 1q-3 3 2 5c6 1 13-1 12-4-1-2-13-3-14-1m146 5q-4 6 3 7 4 1 3-4-1-6-6-3m291 3q-3 4 3 4l4-1q0-5-4-5-3 0-3 2"
        mask="url(#16282281824-posters-1720553553000-horizontal-mask)" itemprop="light" fill-opacity="0.90"
        fill-rule="evenodd" stroke="none" fill="url(#16282281824-posters-1720553553000-vertical-light)"></path>
      <!---->
      <path id="16282281824-posters-1720553553000-regular"
        d="M170 7q-1 11-6 6-8-4-5 3 6 8 15 3 2 0 2-10V0h-3q-4-2-3 7m509 0q-2 8 1 9 5 3 10 3 3-2-2-4-3 0-3-8 1-9-3-7-4-2-3 7m63-3v7q0 5-4 1-7-3-3 5 5 5 6 0 1-3 4 0c2 2 9 3 11 1q3-4-3-4h-4V0h-3q-4-1-4 4M77 5v20q1 4 4 0l1-12c0-10 0-10-2-10q-3 0-3 2m205 4-1 8q0 13-7 7-5-2-5 2c0 5 8 7 14 4l4-2V7q-3-3-5 2m285 1-2 9q-1 13-6 7-8-4-3 5 3 3 5 3l7 1q11 2 12-4 0-3-4-3-6-2-4-12 1-10-5-6m101 0c0 2 5 8 6 8q6 0 1-6-7-5-7-2M450 20l-1 11c-1 12-1 11-5 9q-6-4-6 0a6 6 0 0 0 11 4c0 3 10 5 13 3q3-4-2-4c-5 0-5-1-5-14q0-12-3-10zM64 25q3 4 8 5 4-2-2-5t-6 0m300 16-1 8q1 9-6 4-7-4-4 2t12 6q5-1 6 1c4 2 11 0 11-4h-12v-8c-1-11-1-10-3-11zm265 0-2 11v10l3 2q4 5 10 3 5-3-1-5-5 1-5-11 0-15-5-10m-508 3q-2 0-2 12c0 12 0 14 3 14q3 1 3-15 0-17-4-11m94 0c-1 2 0 18 1 19l2 1c3-1 2-20-1-21zm482 12-2 11c0 9 0 9 2 11q5 6 10 1 4-5-2-4c-4 0-4-1-3-11q0-14-5-8m-191 1-3 18q-1 4-6 1h-3c-3 3 4 8 8 6l5-1q3 2 3-9 1-20-4-15m109 2c-1 1 4 7 6 7q9-1 1-6-7-5-7-1m-412 4c0 2 5 6 6 6q6-1 2-4c-2-3-8-4-8-2m22 2q-6 3-3 5c4 1 11-3 9-6q-2-2-6 1M37 69c-3 4-1 22 2 22q4 1 4-12 0-19-6-10m92 0q-5 2-3 4c2 2 9-1 10-5q0-5-7 1m555 6c-2 2 4 8 8 8q6-2-1-7-6-3-7-1m-348 6-1 11q0 13-5 7-7-4-3 5 3 3 5 1h7c6 3 11-1 6-4q-5-1-4-10 0-16-5-10m225 2-1 9q0 9-5 6c-5-5-8 1-4 6 4 4 26 3 26-1q1-2-6-2-3 0-3-2V89q0-10-3-9-2 0-4 3m-300 2-1 9q1 12-6 9-7 0-2 5 3 3 7 1l5-2 3-1v-9q0-17-6-12M24 87c-3 2 2 7 7 7q6-1-2-6-5-3-5-1m414 1q-2 1-2 10c-1 9-1 10 2 12q6 5 11 2 2-3-2-4-5 2-5-11 1-14-4-9m-266 12c-4 5-3 19 1 19 3 0 5-9 4-16q-3-6-5-3m-85 3-1 9q0 12-5 8-6-3-6 1c-1 7 12 9 16 2 1-2 2-18 1-20zm338 1a5 5 0 0 0 9 6c1-2-7-8-9-6m190 8c-1 3-3 20-2 21q3 5 5 2c1-1 2-21 0-23zm125 2-2 11q0 13-5 7-7-3-4 3t7 4h6c6 2 14-1 14-5q0-4-4-1l-3 1-3 1-1-11q-1-15-5-10m-581 2c-2 3 4 8 7 8q4-2-1-6-6-5-6-2m-63 7q-5 2-3 5 2 2 7-1 8-6-4-4m408 4-1 11v10h2c4 0 6-13 3-20q-1-3-4-1m173 1c-5 3-3 25 2 25l4 2q2 2 5-1 8-5-1-4h-5v-12q0-17-5-10m-571 2c-1 4 4 7 7 4v-4c-1-3-6-3-7 0m279 3-1 7q1 14-6 12-5 0-5 2c0 4 20 7 23 3q4-5-3-3h-3v-14q-1-13-5-7m218 2c-1 3 4 7 7 6q4-3-1-7-6-2-6 1m-378 3-1 8q0 13-6 8-10-5-3 4c5 6 22 8 22 3l-2-1q-6 1-5-11 1-17-5-11m73 4c-1 6 0 17 3 20q4 4 9 1 4-4-1-4c-4 0-5-1-5-12q0-8-3-7zm192 1c-2 1 1 6 5 7q5 0 5-2c-1-2-8-6-10-5m21 4q-3 3-1 5c3 1 8-3 7-4q0-3-6-1m154 0q-1 2 3 6 5 4 6-1c0-3-8-7-9-5m-524 4c-1 4-1 21 1 22 4 3 6-6 4-19q-2-8-5-3m-97 4-1 11v9l4 2q6 5 10 1 6-3-2-4-8 2-6-9c1-9-2-16-5-10m246 0c-3 3 1 10 5 8q4 0-1-6-3-4-4-2m176 3-1 13q-1 18 8 16 6-1 2-5-2-1-3-9-1-22-6-15m98 0-2 7q0 12-6 9-6 0-2 6c1 2 17 3 21 1q4-3-2-5h-3l-1-8v-10c0-1-5-2-5 0M31 171c-2 3 4 8 8 6q4 0-2-5-7-3-6-1m734 1-2 3-1 8q-1 8 3 8t4-12-4-7m-134 7q-2 1-2 7 1 11-6 9-8-1-2 4c2 3 16 5 19 4q1-3-2-4-2 2-2-9 0-18-5-11m-180 3c-3 3 7 7 10 3q1-2-3-3l-4-1zm298 6q1 5 6 6 10 1 1-5-7-5-7-1m-336 4-1 6q2 22-6 16-5-3-5 1 1 5 10 6l8 1 9-3-5-2c-5-1-5-2-5-13q0-17-5-12m-324 1-1 11q0 12 3 10 5 0 3-15-1-10-5-6m608 1-1 11q-1 11 2 9c2 0 2 0 4-11v-10q-3-2-5 1m-364 1-1 10v9h-3l-6 1c0 6 11 6 14 1 2-4 3-17 1-20q-1-3-5-1m-144 4-1 10q0 14-5 8-7-5-6 1 2 7 9 5h5q5 4 10 0 4-4-3-5-3 2-3-12-1-12-6-7m70 0-2 6c0 12 0 12-2 12l-3-1q-4-2-6 1 0 6 15 7 13-1 12-5 0-2-4-2h-4v-9q0-16-6-9m252 2-1 9q0 12-4 8-6-2-7 1 2 5 8 5l5 2c6 2 14 0 13-3l-4-2c-3 0-4-1-4-13q0-9-3-8zM76 211c-2 2 3 6 6 6q7-1-1-6c-4-2-3-2-5 0m-75 3c-1 4 1 18 3 19 3 1 6-12 3-18q-2-6-6-1m98-1q-4 4 0 5 6 0 7-4-3-3-7-1m587 1q2 4 6 4 4-2-1-5t-5 1m17 0q-4 4 1 5 6-1 7-5-2-4-8 0m-360 3q-5 1-1 4c2 2 8 0 9-3q0-3-8-1m242 9-1 10q1 10-6 5-7-4-5 1c1 4 10 6 10 3l4 1q7 3 10 1 4-3-2-4-4 1-4-10-3-18-6-7m-568 2-4 3q-6 3-2 5c3 2 12-3 12-6q-1-8-6-2m120 10c-3 2-2 22 2 25s10 2 10-2q0-2-3-2h-4v-7c0-13 0-14-2-15q0-2-3 1m322 1c-2 3-2 22 0 23 7 3 7 3 10 2q6-3-1-4h-3l-1-11q-1-15-5-10m194 5c-3 3-2 21 1 21l4 2q2 2 4-1 4-4-2-3h-2v-8q0-17-5-11m73-1-2 6-1 8q1 6 8 8c3 0 9-3 9-5q-1-3-4-1-6 6-5-13-2-6-5-3m-344 2-1 11c-1 13-1 13-8 8q-5-2-3 4 5 7 9 3l5-2q5 0 4-14 0-15-6-10m-328 9-1 6v7q-1 7 3 8t4-13q0-12-3-10zm173 0c-2 3-1 21 1 23q8 6 14 0 4-3-4-3l-4 1-1-10q0-17-6-11m-103 2c0 2 5 7 8 7q4 0-1-6-6-5-7-1m590 1c-2 3 5 10 8 7q2-2-2-5-6-5-6-2m-419 1-1 9q1 11-3 8-7 0-3 7c3 3 15 4 19 2q5-3 0-4c-4 0-5-1-5-11l-2-11zm151 0 2 3q5 3 8 0c0-3-8-5-10-3m195 4q1 5 7 6 5-1 0-5-6-6-7-1M42 274c-1 3 5 7 8 5q3-3-3-5-5-3-5 0m174 0c-2 2 5 7 8 5q3-3-3-4-5-3-5-1m332 9-1 4 1 6q0 9 3 8 3 0 3-10-1-17-6-8m-391 11c-1 3 0 16 1 18q4 5 4-10c0-10 0-10-2-10q-3 0-3 2m379 1q0 4 6 7 6-1 0-6-5-5-6-1m-183 4c-3 1-3 20 0 21q4 2 4-11-1-13-4-10m74 1c-1 1-3 18-2 22 2 5 11 7 13 3q2-4-4-4c-3 1-3 0-3-11q0-14-4-10m190 2-1 10 1 9 2 1c4 0 4-1 3-11q0-16-5-9m101 1c-3 2-3 19 0 21q3 3 5-9 0-17-5-12m-635 9-2 10q0 11 2 9 6 4 5-10 0-12-3-10zm254 3c-2 3 8 11 11 9q3-4-2-6l-5-3q-3-4-4 0m-116 1v21h2c3-1 2-21 0-22zm385 4q1 4 6 5 5-1 0-5-6-4-6 0m100 0c-2 3 6 9 8 6q2-1-2-4-4-5-6-2m-290 1c-2 2 1 7 5 7q5-1 0-6-4-3-5-1m79 4-1 5v16l-4-1q-8 0-4 4 2 2 7 2 9-1 8-11 1-22-6-15M4 329c-5 1-6 6-1 5q8 0 7-3 0-4-6-2m280 1-1 11c0 13 0 12 2 12q3 2 4-6 1-23-5-17m-196 4q-2 3 3 4 5 2 6-3c0-2-6-3-9-1m84 13c-1 2-2 22 0 23q3 2 4-11 1-17-4-12m477 3c-1 3-2 13-1 17q4 9 13 5 9-6-2-5-5 3-5-9 0-16-5-8m-380 0c0 2 6 7 8 7q4 0 3-4c-1-3-11-6-11-3m-236 1v18l2 2q3 1 3-11 0-13-5-9m257 2q-4 4 1 5c3 0 8-4 7-5zm449 2c-2 1-4 18-3 20q4 5 7-9 2-14-4-11m-165 2c-2 4-2 18 1 19 4 0 5-19 1-21zm-182 4-2 10c-1 8-1 8 1 10 4 3 15 2 15-1q-2-4-5-3-4 3-4-7 0-12-5-9m63 3-2 9c-1 10-1 10-6 9l-5 1q-1 6 8 5l8 1q7 2 8-3 0-2-3-2-4 1-4-10v-9q-3-4-4-1m181 0c-1 4 4 9 7 8q3-1-1-6-5-5-6-2m-394 3-2 8q0 12-6 10-8 1-2 4h22q1-3-3-3-6 1-4-11l-1-9q-3-2-4 1m-227 2 2 3c3 4 10 6 11 4q1-3-1-4l-5-2q-7-3-7-1m135 0c0 2 9 6 12 5q4-1 0-4zm-105 3q-9 3-2 5 7 0 7-4-1-3-5-1m51 1c-2 7 0 18 3 17l3-16q-2-5-6-1m87-1q-9 1-5 3c2 3 12 1 12-2q0-3-7-1m375 1c-1 2 5 7 8 7q6-2-1-6t-7-1m-234 2c-2 3-1 19 1 20q6 4 10 3 3-3-1-3-4 1-4-11t-4-11zm197 0-1 11q0 13 5 9l2 1c2 3 10 1 10-2q0-3-7-1c-3 1-4 0-3-11q-1-13-6-7m202 1c-3 2 4 7 7 5l2-2c0-3-8-5-9-3m20 3q-3 3 5 3 6 0 7-4c0-2-10-2-12 1m-662 9c-1 2 5 6 8 6q5-1-1-5-6-3-7-1m26 3q-7 3-1 5 6 0 8-5 0-3-7 0m205 0c-2 3 4 8 7 6q4-2-1-5t-6-1m197 1q-2 4 2 6 8 0 5-5zm-373 18-1 10 1 8q1 4 5 3c2-2 1-14-1-18q-2-6-4-3m501 2q-7 6 0 11 3 1 4 5 3 10 6-5 2-15-10-11m92 1-2 17q-1 10 5 1c4-8 2-23-3-18m-681 1-1 5-1 10q-1 10 2 10c3 0 6-16 5-23q-2-5-5-2m415 3c-2 2-1 18 0 20q6 4 6-11 0-13-6-9m-266 2q-2 1-2 11v9l-4 1-3 3q1 3 8 2l6 1q9 2 12-2 1-2-4-2-6 1-6-1c-2-1-3-11-3-17q1-10-4-5m67 0c-2 1-2 18 0 21q3 3 4-3 1-20-4-18m298 0-1 8-1 8q-1 4 3 4c4-1 5-20 1-21zm-198 5-1 9q0 12-5 10c-3-3-7 2-4 4q2 1-1 3-2 4 1 4l4-3 3-3 5-3 4-3v-8q-1-14-6-10m263 8q-2 1 1 3 4 4 8 1c1-3-6-6-9-4m82 1q-1 3 7 5 13 1 1-5zm-260 2q-2 4 5 5 7 0 4-4c-2-1-8-2-9-1m284 0q-2 5 4 5 9 0 8-4c-1-3-10-3-12-1m-703 1q-3 2 2 5 6 2 9-1c1-2-9-6-11-4m29 3-4 1q-4 1-2 4 4 3 10-1 5-9-4-4m482-1c0 4 8 8 11 6q6-5-6-7zm-291 1c-2 3 4 6 7 5q4-3-1-5zm222 2c-1 3 5 6 8 2v-3q-5-2-8 1m95 0q-3 3 2 4 6 1 8-2c0-2-6-4-10-2m-477 5-1 8q1 10-7 7-7-2-7 2c0 2 7 4 11 4q3-2 6 1c3 1 13 1 15-1q1-4-7-3l-4-1-1-8q-1-19-5-9m280-2q-1 4 6 4 6-1 4-4zm138 14c-1 4 1 16 3 19q2 3 4 1c1-3 1-17-1-21q-4-5-6 1m99-1c-3 2-3 22 0 24q4 5 4-12 0-19-4-12m74-1c-2 3-1 19 2 19q2 1 2-7c2-9-1-16-4-12m82 5q-2 1-2 9c0 9 0 9-9 8q-8 0-6 2c0 4 16 5 20 1 2-2 2-3 2-11q0-16-5-9M4 462v22c3 2 5-7 4-17q-1-8-4-5m406 1q-2 2-1 9 2 19 5-1 0-12-4-8m-271 8c-2 2-3 13-1 15q5 5 5-9-1-11-4-6m70 4c-4 12-3 22 2 19 2-2 3-13 2-17q-3-5-4-2m456 1c0 3 10 5 11 1q2-3-6-3-5 0-5 2m-171 1c-2 4 8 7 12 4q2-2-1-4c-3-3-10-3-11 0m195 0q-3 2-1 3c4 3 11 1 8-3q-2-3-7 0m-384 3c-3 3-2 19 1 20q4 0 4-13t-5-7m89 0c0 3 7 6 9 4q4-2-2-5-7-2-7 1m124 1q0 4 5 4 7-2 4-5c-2-2-8-1-9 1m69 1c-2 3 10 7 13 4v-3c-1-2-11-3-13-1m26 2q-1 4 6 4t4-4c-2-2-10-1-10 0m-602 2q-4 1 0 4h6q7-6-6-4m641 10-1 9v7h6v-8q0-15-5-8m-367 4c0 4 11 7 12 3q1-3-8-5-5 0-4 2m24 1q-1 4 5 4 8 0 9-4c0-2-13-2-14 0"
        mask="url(#16282281824-posters-1720553553000-radial-mask)" itemprop="regular" fill-opacity="0.90"
        fill-rule="evenodd" stroke="none" fill="url(#16282281824-posters-1720553553000-horizontal-regular)"></path>
      <!---->
      <path id="16282281824-posters-1720553553000-medium"
        d="M171 1v5q-1 13-8 7-6-2-2 4 1 3 7 3c7 0 7 1 7-12 1-8 1-8-2-8zm508 6 1 8 9 4q3-3-1-3c-3-1-3-1-3-9V0h-6zm64 0q-2 8 2 9 5 5 10 2 4-4-2-4h-4V7q1-9-3-7-4-2-3 7M78 4c-3 2-2 22 1 22q3-2 3-15-1-10-4-7m205 5-1 8q1 15-8 8-7-2-3 3c4 5 14 3 16-2 1-5 0-18-2-19zm284 2-1 8q-3 14-7 8-3-4-4 0c0 6 14 10 22 7q6-4 0-5-6 2-6-10 0-13-4-8M450 21l-1 11c-1 11-1 11-6 8q-6-3-4 2 3 5 8 3 1-3 3-1 5 4 10 3 5-2-1-4c-4 0-5-3-5-20q-1-7-4-2m-86 22v5l-1 5-1 3-4-2q-5-4-5 0 1 5 11 6l7 1c0 2 6 1 9-1q4-3-2-2c-7 3-8 2-9-13q-1-6-3-5zm265 0-1 12 1 8 3 2q7 4 10-1 0-2-3-2-6 2-5-9c0-10-3-16-5-10m-508 1-1 24h3c2-2 2-22 1-24zm94 0 1 19q4 3 4-9c0-9-3-15-5-10m483 12-3 16 1 4c2 5 11 6 12 1q0-2-2-2-5 3-5-10-1-14-3-9m-192 3-1 5q0 13-4 14l-7-1c0 4 7 7 9 4l3-1q4 0 4-16-2-11-4-5m109-1c-1 3 4 8 9 7q5-1-3-5-6-4-6-2M38 69c-2 2-2 18 0 20q4 7 4-11 0-16-4-9m646 7q1 4 7 6 6 0 0-5-6-3-7-1m-347 5-2 7c-1 14-1 15-5 11q-3-4-4 1 2 6 8 4 1-2 4 1 6 2 8-1l-2-3-3-1-1-9q0-16-3-10m226 1-2 8q0 13-7 8c-5-3-6 3-2 7 3 1 22 1 24-1q2-3-3-3-7 3-6-9 1-16-4-10m-301 4-1 8q0 13-6 10-6-2-4 2 1 4 10 2l5-2V96q0-12-2-11zM24 88c-1 2 4 6 7 6q6 0-1-5-6-3-6-1m414 1-1 10q-2 14 8 13 7-2 2-3-6 2-5-12 0-10-2-9zm-266 11-2 16q3 5 6 0v-8q0-12-4-8m-85 4-1 5q2 16-6 12-7-3-4 2 3 4 8 4 8 0 7-14 1-16-4-9m528 8c-2 3-2 22 0 23q4 4 4-12 0-14-4-11m125 3-1 3-1 9q1 11-6 6-6-4-3 2 3 5 8 3 2-2 6 1 4 2 7-1c5-2 8-6 3-4-8 2-9 0-8-14q1-7-3-6zm-581 2q1 4 7 6 4-2-2-5-6-5-5-1m-63 7-4 2q3 3 8 0 7-6-4-2m408 3c-2 3-2 19 0 20q4 3 5-9 0-15-5-11m172 3q-2 3-1 11 0 12 4 11l3 2c3 2 9 0 9-3q0-3-6-1c-3 1-4-1-4-15q1-9-2-8-2 0-3 3m-291 2-1 10q-1 13-6 10-9-3-2 4 2 3 6 2h12q6-3-1-4c-4 0-4-1-4-13q-1-13-4-9m-159 6-1 9q-1 14-8 7-8-4-1 5c4 4 20 6 20 3l-2-2q-5 1-5-12 2-14-3-10m73 3c-1 3 0 18 2 20 2 3 8 3 10 1q3-3-4-3-4 0-4-13 0-9-4-5m366 6q2 6 6 7 6-1-1-6-5-3-5-1m-523 4v21l2 2q2 2 2-12c0-10-2-17-4-11m-97 3-1 11v9l3 3q7 4 10 0 4-4-3-2-7 3-5-10 0-14-4-11m422 4-1 12q-2 18 7 16 6 0 2-3c-3-2-3-3-3-13q-1-18-5-12m97 0-1 7q0 10-7 10-5-1-3 3c3 4 15 6 21 2q6-3 0-3c-5 0-5-1-5-11q-1-13-5-8m200 16c-3 9-2 20 3 16 2-2 2-18 0-19zm-133 6-1 4q0 14-7 11-5-2-3 3 1 3 7 3l9 2q7-1 1-4l-3-1 1-10c0-10 0-10-2-10zm119 7c-2 2 3 7 6 7q6 0-1-5zm-660 7c-3 2-3 17 0 19q3 4 4-10 0-15-4-9m323-1v11q1 15-6 11-6-3-5 0-1 5 13 5 14 1 12-2l-4-1c-4 0-5-2-6-14q0-15-4-10m285 0c-4 5-3 21 1 21l2-6v-9q2-10-3-6m-364 3-1 8q1 12-5 10-8 0-2 4c3 3 11 1 11-4 2-6 2-14 1-16q-2-6-4-2m-145 3-1 11q1 14-5 8-9-5-4 3 3 3 5 2h15q5-2 0-4-6 1-5-12-1-13-5-8m70 2-1 7q0 13-7 8-8-2-3 4c6 6 28 4 24-2l-4-1q-5 3-4-10 0-10-3-9-2 0-2 3m252 0v9q-1 12-6 8-5-2-6 1 1 4 8 4l6 2h9q4-2-1-3h-3l-1-10-1-11zM77 211c-3 2 3 7 7 6q3-3-2-5-5-3-5-1m-74 2c-2 1-1 18 0 19q4 3 4-9 0-14-4-10m583 13-1 11v8l4 1q8 2 9-1l-4-2c-3-1-3 0-5-15q-1-9-3-2m-568 2-4 4q-9 5 2 3 8-2 6-8-2-5-4 1m119 11-1 11q1 17 8 14c6-1 6-5 1-4-4 0-4-1-4-13q0-11-2-10zm323 0-2 10q-2 15 3 13l3 1c1 2 7 0 7-2l-4-1h-3l-1-9-1-13zm267 4c-2 2-4 14-3 17q3 4 8 5c2 0 8-5 7-6l-4 1q-6 3-5-9 0-11-3-8m-74 2-1 9q0 13 4 10c1-1 2-18 1-20q-3-2-4 1m-271 1-1 10v10q-1 5 5 2c3-4 3-23-1-23zm-327 7c-2 3-2 20 0 21q3 3 4-10 1-17-4-11m173 1-1 12c0 10 0 10 3 12 4 2 13 1 13-3h-6q-5 4-5-12 0-13-4-9m67 6-1 8q3 8-4 8-6 0-2 5c2 3 14 4 18 3q5-3 0-4-6 1-5-8-1-22-6-12m75 5c-1 3 6 8 9 7q3-3-4-6-4-3-5-1m178 17 1 18q4 1 4-4c2-9-3-21-5-14m-391 12c-2 3 0 18 3 18 2 0 3-19 0-20zm196 6c-2 4-2 18 0 19q3 2 3-7-1-16-3-12m74 3c-2 6-2 18-1 20q4 5 10 3 4-3-2-4h-3v-11c0-9-1-10-2-11q-2 0-2 3m191-1v19q5 4 3-10 0-13-3-9m100 1-1 20q3 2 4-1l1-9-1-9q-1-3-3-1m-635 9v19q4 2 4-9 1-15-4-10m254 4c0 3 6 7 9 7q6-2 0-5l-5-3q-3-2-4 1m-116 0c-2 2-1 20 1 21q3 2 3-11 0-14-4-10m275 9-1 6c0 13 0 14-4 15l-6 1c0 5 14 4 14 0 1-5 2-16 1-20q-1-5-4-2m-212 6v21q4 2 5-8c1-10-2-18-5-13m-112 18c-1 1-2 15-1 19q1 4 4-3c2-9 0-22-3-16m478 1q-2 1-2 10v8l4 3q6 3 11-1 4-3-5-2h-4v-9q-1-14-4-9m-380 0q2 5 8 6c5 0 1-5-5-7zm-237 2c-1 4 0 19 2 19s3-16 2-19zm705 5c-2 3-2 18-1 18 3 1 6-8 6-16q-2-6-5-2m-164 2v16q2 3 4-8 1-17-4-8m-182 3-1 4-1 7q-1 12 12 9 7-3 0-4-5 1-6-7 0-13-4-9m63 2-2 10q0 11-6 9-5-1-5 1 1 4 9 4h9q7 1 6-2l-3-1q-5 1-4-11 0-14-4-10m-213 3-2 9c0 9-1 9-6 9q-6 0-3 3h23q0-2-4-2-6 0-4-12v-7zm-91 2c0 2 7 5 10 5q4-1 3-3zm-135 1c0 2 8 7 10 7l2-1q3-2-5-5t-7-1m81 3c-2 3-1 16 1 16q2 0 2-5c2-9 0-16-3-11m462 0c-2 2 6 8 9 7q3-2-3-5-5-4-6-2m-234 2c-2 1-1 19 0 20q5 3 9 3 3-3-1-3-4 2-4-12 0-12-4-8m196 2c-2 5-1 18 2 18 4-1 4-21 1-21zm226 1q-7 2 0 4 6 0 7-4zm-611 41q0 15 5 11c1-2 0-16-2-19q-3-6-3 8m500-5q-5 4 1 8 3 2 4 6 2 6 3 2c2-2 3-13 2-16-1-2-7-3-10 0m93 1c-2 5-3 17-2 19q5 3 6-14-1-11-4-5m-682 1v12q-2 11 1 10 3 1 4-14c0-10 0-10-2-10zm417 1c-3 2-2 19 1 20q5-1 3-13 0-10-4-7m-267 3-1 9q0 13-5 12-2 0-2 2t6 2l8 1c2 1 8 0 10-2q2-1-4-1h-6l-2-5-1-12q2-12-3-6m366-1-1 7-2 9q1 5 4 3c2-1 3-12 2-17q-1-5-3-2m-299 1v20q4 5 4-9 0-15-4-11m100 5v8q1 11-7 10-6 0-3 4v4q-3 5 3 0l8-6c4-3 4-3 4-9q0-16-5-11m346 8q-1 3 7 5 11 1-1-5zm24 3q-3 1-1 3 5 2 11-1c3-3-6-5-10-2m-703 0q-3 2 2 4 7 2 7-1c0-1-8-4-9-3m29 2-5 2q-5 3 2 4 4 0 6-3 5-6-3-3m482 1q3 4 8 5 6-2-1-6-8-2-7 1m-451 7-1 7q0 13-10 8h-4q-1 5 9 5l8 1a12 12 0 0 0 13-2h-4q-9-1-7-5c1-2-1-16-3-16zm418 12c-2 4 2 20 4 20 2-1 3-11 1-17q-2-8-5-3m98-1c-2 1-3 22 0 23q5 4 3-12c0-11-1-12-3-11m74 0c-2 2-1 15 0 17q4 3 4-10 0-10-4-7m82 4-1 9q2 14-9 9-10-1-6 2c5 4 16 3 19-1 2-2 3-14 1-18q-1-3-4-1M4 465q-2 17 1 18 4 2 3-12 1-11-2-9-2 0-2 3m405 0c0 4 0 14 2 15q2 0 2-10 0-12-4-5m-270 7v15q3 1 3-9 1-12-3-6m70 3-2 10q0 12 4 8c1-2 2-16 1-18zm456 0q-1 3 6 3t5-2c-1-2-9-3-11-1m-171 3q0 3 9 3 5 0 1-4c-3-2-10-1-10 1m-189 3c-2 5-2 17-1 18q4 4 5-11c0-9 0-9-2-9zm283 1q0 4 8 4 4 1 4-2l-2-2-6-1zm64 14-1 9q-1 9 2 7 4 2 3-7 1-13-4-9m-367 4c0 3 9 6 11 4v-3zm25 1q-3 3 5 3 7 0 8-3c0-2-12-1-13 0"
        mask="url(#16282281824-posters-1720553553000-vertical-mask)" itemprop="medium" fill-opacity="0.90"
        fill-rule="evenodd" stroke="none" fill="url(#16282281824-posters-1720553553000-vertical-medium)"></path>
      <!---->
      <path id="16282281824-posters-1720553553000-bold"
        d="M171 4q0 16-8 10-6-3-1 3c3 4 10 4 12 1 2-4 1-18-1-18q-3 0-2 4m509 2v8c0 2 7 4 9 4q2-1-1-2c-3-1-4-1-4-8q0-9-2-8-2-1-2 6m64-3q-3 15 7 15 5 0 5-2t-3-1q-7 2-6-9 2-7-1-6-2 0-2 3M78 6c-2 5-1 22 2 20V4zm205 3-1 9q1 13-7 8-8-4-3 3 4 4 10 0l4-1V17q0-14-3-8m285 3-2 8q-2 13-8 6-3-2-2 3c2 4 17 7 21 4q4-3 0-3c-5 0-8-8-6-16q0-4-3-2m-117 9-1 12q-3 16 10 13 4-1-1-2-6 2-5-13 0-10-2-11zm-86 20-1 8q-1 11-6 6l-4-2c-3 1 5 7 9 7 5 0 6-1 5-11q0-11-3-8m265 3-2 11v8l3 1 6 2q6-2 2-3-7 1-6-9c0-10-2-16-3-10m-509 4c-1 7-1 20 1 21l2-20q-2-9-3-1m95 6 1 9q2-1 2-9 0-9-2-10zm482 3c-2 3-2 17 0 20q4 6 9 1 2-2-2-2-6 2-5-13 0-10-2-6m-192 4-1 10q-1 11-6 7-7-2-3 1 2 2 5 2l5-1h3V69l-1-11q-2 0-2 3M37 71c-1 8 1 21 3 18l1-17q-1-7-4-1m300 11-1 8q-1 18-6 10-2-4-3 0 1 5 6 4h6q4 3 6 1t-1-3q-4 0-4-11 0-13-3-9m226 0-1 8q-1 13-7 9-6-3-5 2 3 6 10 4h14q5-3-2-3c-5 0-5-1-5-11q0-13-4-9m-301 5v7q0 12-7 11-6-1-2 2 1 3 7 0l6-1v-9q0-13-3-12zm176 2c-2 3-1 19 1 21q5 4 9 1 2-1-1-1-7 1-6-12 0-13-3-9m-266 13v16q3 2 3-9 0-13-3-7m-84 2-1 8q1 14-7 10l-4-1c0 5 9 7 13 3 2-2 2-3 2-11q0-13-3-9m527 10c-1 4-1 20 1 21 2 0 2-1 2-11q0-15-3-10m126 2-2 10q1 14-6 8-6-3-2 2 1 2 5 2h7c4 1 11-1 12-4q0-2-3 1-8 6-8-11 0-14-3-8m-236 12c-2 2-1 19 0 19l2-3 1-4q2-2-1-11 0-3-2-1m172 0-1 12c0 12 0 12 4 12l2 1c0 2 7 1 8-1q1-3-4-1h-5v-18q0-8-4-5m-291 5-1 9q-1 15-8 10-4-2-3 1c0 4 17 7 22 4q3-2-3-2-4 1-4-5l-1-7q1-11-1-11zm-160 6-1 7q1 15-7 9l-5-2c-1 1 5 7 7 8l7 1h8l-2-1q-4 2-4-12 1-13-3-10m74 3c-2 1-1 18 1 19q5 3 9 1 2-2-2-2-5 1-5-11t-3-7m-158 15c0 15 0 17 2 15 3-2 2-21-1-22zm-97-2-1 10c0 9 0 9 3 11q4 3 9 1t-2-1c-6 0-6 0-6-12v-9zm422 4-1 13q1 15 7 14 4 0 1-4-3 0-3-13-1-16-4-10m98 0-1 7q-2 13-9 9-2-2-1 2c1 4 15 6 20 3q4-2-2-3t-4-11l1-6q-3-3-4-1m201 13c-2 2-4 16-3 17q3 4 5-8 1-12-2-9m-135 9-1 7q1 12-9 7-2 1 1 4l7 2 7 1 3-1-2-1q-4 0-3-7 3-13-1-14zM89 195c-1 5 0 18 2 18l1-2 1-3v-14q-3-2-4 1m324 8q1 19-8 12-5-2-1 3 2 2 7 2h7c2 1 8 0 8-1l-3-1c-5-1-6-3-6-14q0-12-2-11-2-2-2 10m285-9c-2 3-2 18 0 19q2 1 2-4l1-10q0-8-3-5m-364 5-1 9q0 10-5 7-5-2-2 2 5 3 9-1c3-2 3-20 1-21q-2 0-2 4m-74 0-1 9q-1 14-7 10-9-4-2 2c4 4 22 3 22-1l-3-1q-7 3-6-10 1-12-3-9m-71 2-1 10q1 13-5 7-6-3-5 1 3 5 8 3 2-3 5 0c3 2 10 1 10-1l-3-2q-4 1-4-11l-1-8q-1-2-4 1m322 1v5q3 15-7 12-6-3-3 2l5 2 7 2h9q4-3 0-3c-5 1-5 0-6-11q0-11-2-10zM3 214c-2 1 0 17 2 18l1-9q0-14-3-9m583 13c-2 5-1 16 1 18h10l-2-1q-4 1-6-12 0-13-3-5m-568 1q0 3-4 4-6 3 0 3l6-3 4-3-3-2-2-2zm120 10c-2 1-2 19 1 23q3 4 8 2 2-3-1-3c-5 1-5 0-6-12 0-12 0-11-2-10m322 2-1 11-1 9 4 2q7 3 8 0 0-2-3-2l-3 1-1-11q1-12-2-11zm267 4-2 8c0 8 0 8 2 10q5 4 9 0 5-3-1-2-5 5-6-8 0-12-2-8m-74 10 1 10c4 0 4-19 1-20q-2-2-2 10m-270-8c-1 2-2 21 0 22q4 1 4-10 0-16-4-12m-328 8v20q3 1 3-7l1-7c2-4-2-9-4-6m173 1v10q-2 18 12 13 5-3-3-3l-4 1-1-9q0-14-3-13zm68 6v8q0 8-6 8-5-1-2 4c3 2 14 3 18 2l3-1-3-1q-5 1-6-13 0-11-2-10-2 0-2 3m253 22v13l1 4q3 2 2-9 0-13-3-8m-392 11c0 2 1 17 3 17l1-9-1-9zm196 15q-1 12 2 10v-17l-1-2zm75-7c-2 2-2 19-1 22 2 3 10 3 10 0l-3-1c-4 0-5-1-4-12q1-14-2-9m190 1v16l2 2 1-9q0-14-3-9m100 0c-2 2-1 20 0 20q4 3 3-10 0-14-3-10M84 315c-2 7-2 15 0 16 2 0 4-14 2-17q-2-4-2 1m138 2v19q2 2 2-11 0-11-2-8m274 14v10q0 6-6 6-7-1-3 2c3 1 10 0 12-2 2-3 1-22-1-22q-2-1-2 6m-211 1c-2 4-1 20 0 20 2 0 3-8 3-15q-1-8-3-5m-112 17c-2 4-2 19-1 19q2 4 3-11 0-13-2-8m477 2-1 3v1l-1 6c0 8 8 14 14 10q4-3-2-3-8 2-7-7 0-16-3-10m-617 2c-1 3 0 17 2 17s2-17 0-18zm706 5c-2 5-3 15-2 16l3 1 1-8q2-8 1-10-2-2-3 1m-165 0c-1 4-1 16 1 17q2 1 2-11 0-10-3-6m-182 6-1 8q-2 12 8 10 9-2 3-3-7 2-7-13 0-6-3-2m63 1-1 9q0 13-7 10h-4q0 3 9 3l7 1c2 1 7 0 5-2l-1-1-3-1q-3 0-2-10 0-13-3-9m-212 2-1 8q0 13-7 10-7 0-1 3h19l-3-1q-7 1-4-14 0-7-3-6m-145 6-1 8q2 15 3-1 1-10-2-7m227 10c-1 12 0 14 8 14q3 0 0-1-5 0-4-11 0-11-3-11zm196-5 2 17q3 0 3-10-1-18-5-7m-385 42q1 12 4 10l1-8q-1-12-4-11zm500-5q-5 2 2 7 4 3 4 7 0 3 1 2l2-2 1-8v-7l-4-1zm-588 5-1 10q-1 8 1 8c2 0 5-18 4-22q-4-5-4 4m681-4c-1 3-2 17-1 18q4 1 4-12 0-12-3-6m-265 3c-2 3-1 16 0 17 3 2 5-6 3-15q-1-6-3-2m-267 1-1 10q0 14-4 12l-2 1 6 1 6 1h10q3-2-4-2c-7 0-7-1-8-14q0-14-3-9m366 0-1 6-1 8q-1 3 1 4 4-1 4-13 0-9-3-5m-299 10q0 9 2 10l1-10q0-9-2-10zm101-4v8q0 11-7 9-7 0-3 3v5l-2 1q1 3 4-1l7-6q8-5 4-16-2-6-3-3M91 447c-1 16-1 17-9 15q-9-1-3 2 2 2 6 2h8q3 2 8 1 9-2 0-2c-7 0-7 0-7-12l-1-8zm418 11v6l2 8c1 11 5 5 3-7q-1-13-5-7m97 1c-1 5 0 21 2 21q3 0 1-16 0-11-3-5m75-1c0 3 0 16 2 15v-16zm82 3-1 9c0 10 0 10-9 10q-10-1-3 2c5 2 16 0 17-3v-10q0-11-4-8M5 464v19q3-1 2-16 0-8-2-3m135 7v15q2 0 2-7v-5q0-5-2-3m70 5c-2 3-3 16-2 17q3 1 4-9 0-12-2-8m96 4c-2 3-1 18 0 19 1 0 3-7 3-13q-1-10-3-6m347 20c-2 11-2 12 0 12s4-12 2-15q-2-3-2 3"
        mask="url(#16282281824-posters-1720553553000-horizontal-mask)" itemprop="bold" fill-opacity="0.90"
        fill-rule="evenodd" stroke="none" fill="url(#16282281824-posters-1720553553000-vertical-bold)"></path>
    </pattern>
    <rect id="16282281824-posters-1720553553000-pattern-render" fill="url(#16282281824-posters-1720553553000-pattern)"
      width="100%" height="100%"></rect>
  </defs>
  <radialGradient id="lightbar" cx="50%" cy="200%" fy="0" r="201%">
    <stop offset="0%" style="stop-color: rgb(255, 255, 255); stop-opacity: 0.1;"></stop>
    <stop offset="10%" style="stop-color: rgb(0, 0, 0); stop-opacity: 0.1;"></stop>
    <stop offset="30%" style="stop-color: rgb(0, 0, 0); stop-opacity: 0.3;"></stop>
    <stop offset="90%" style="stop-color: rgb(0, 0, 0); stop-opacity: 0.55;"></stop>
    <stop offset="100%" style="stop-color: rgb(0, 0, 0); stop-opacity: 0.6;"></stop>
  </radialGradient>
  <g class="radial">
    <radialGradient id="16282281824-posters-1720553553000-radial" gradientUnits="userSpaceOnUse">
      <stop itemprop="radial" stop-color="#ebebea" offset="0%"></stop>
      <stop itemprop="radial" stop-color="#e9e8e8" offset="15%"></stop>
      <stop itemprop="radial" stop-color="#e9e8e7" offset="30%"></stop>
      <stop itemprop="radial" stop-color="#e9e8e7" offset="45%"></stop>
      <stop itemprop="radial" stop-color="#ebebea" offset="60%"></stop>
      <stop itemprop="radial" stop-color="#e9e8e7" offset="75%"></stop>
      <stop itemprop="radial" stop-color="#e9e8e7" offset="90%"></stop>
    </radialGradient>
    <radialGradient id="16282281824-posters-1720553553000-radial-background" gradientUnits="userSpaceOnUse">
      <stop stop-color="#d3cec5" offset="0%"></stop>
      <stop stop-color="#d3cec5" offset="15%"></stop>
      <stop stop-color="#d3cec5" offset="30%"></stop>
      <stop stop-color="#d3cec5" offset="45%"></stop>
      <stop stop-color="#d3cdc5" offset="60%"></stop>
      <stop stop-color="#d3cec5" offset="75%"></stop>
      <stop stop-color="#d3cec5" offset="90%"></stop>
    </radialGradient>
    <radialGradient id="16282281824-posters-1720553553000-radial-light" gradientUnits="userSpaceOnUse">
      <stop stop-color="#9c9a96" offset="0%"></stop>
      <stop stop-color="#9b9a97" offset="15%"></stop>
      <stop stop-color="#9c9a96" offset="30%"></stop>
      <stop stop-color="#9c9a96" offset="45%"></stop>
      <stop stop-color="#9c9a96" offset="60%"></stop>
      <stop stop-color="#9c9a96" offset="75%"></stop>
      <stop stop-color="#9c9a96" offset="90%"></stop>
    </radialGradient>
    <radialGradient id="16282281824-posters-1720553553000-radial-regular" gradientUnits="userSpaceOnUse">
      <stop stop-color="#83817c" offset="0%"></stop>
      <stop stop-color="#82807d" offset="15%"></stop>
      <stop stop-color="#83817c" offset="30%"></stop>
      <stop stop-color="#83817c" offset="45%"></stop>
      <stop stop-color="#83807c" offset="60%"></stop>
      <stop stop-color="#83817c" offset="75%"></stop>
      <stop stop-color="#83817c" offset="90%"></stop>
    </radialGradient>
    <radialGradient id="16282281824-posters-1720553553000-radial-medium" gradientUnits="userSpaceOnUse">
      <stop stop-color="#51504d" offset="0%"></stop>
      <stop stop-color="#514f4d" offset="15%"></stop>
      <stop stop-color="#51504d" offset="30%"></stop>
      <stop stop-color="#51504d" offset="45%"></stop>
      <stop stop-color="#514f4d" offset="60%"></stop>
      <stop stop-color="#51504d" offset="75%"></stop>
      <stop stop-color="#51504d" offset="90%"></stop>
    </radialGradient>
    <radialGradient id="16282281824-posters-1720553553000-radial-bold" gradientUnits="userSpaceOnUse">
      <stop stop-color="#2f2e2d" offset="0%"></stop>
      <stop stop-color="#2f2e2d" offset="15%"></stop>
      <stop stop-color="#2f2e2d" offset="30%"></stop>
      <stop stop-color="#2f2e2d" offset="45%"></stop>
      <stop stop-color="#2f2e2d" offset="60%"></stop>
      <stop stop-color="#2f2e2d" offset="75%"></stop>
      <stop stop-color="#2f2e2d" offset="90%"></stop>
    </radialGradient>
  </g>
  <g class="vertical">
    <linearGradient id="16282281824-posters-1720553553000-vertical" gradientUnits="userSpaceOnUse" x1="0" x2="0" y1="0"
      y2="100%">
      <stop itemprop="vertical" stop-color="#ebebea" offset="0%"></stop>
      <stop itemprop="vertical" stop-color="#e9e8e8" offset="15%"></stop>
      <stop itemprop="vertical" stop-color="#e9e8e7" offset="30%"></stop>
      <stop itemprop="vertical" stop-color="#e9e8e7" offset="45%"></stop>
      <stop itemprop="vertical" stop-color="#ebebea" offset="60%"></stop>
      <stop itemprop="vertical" stop-color="#e9e8e7" offset="75%"></stop>
      <stop itemprop="vertical" stop-color="#e9e8e7" offset="90%"></stop>
    </linearGradient>
    <linearGradient id="16282281824-posters-1720553553000-vertical-background" gradientUnits="userSpaceOnUse" x1="0"
      x2="0" y1="0" y2="100%">
      <stop stop-color="#ceccca" offset="0%"></stop>
      <stop stop-color="#cdcccb" offset="15%"></stop>
      <stop stop-color="#cecdca" offset="30%"></stop>
      <stop stop-color="#cecdca" offset="45%"></stop>
      <stop stop-color="#ceccca" offset="60%"></stop>
      <stop stop-color="#ceccca" offset="75%"></stop>
      <stop stop-color="#cecdca" offset="90%"></stop>
    </linearGradient>
    <linearGradient id="16282281824-posters-1720553553000-vertical-light" gradientUnits="userSpaceOnUse" x1="0" x2="0"
      y1="0" y2="100%">
      <stop stop-color="#ae9d84" offset="0%"></stop>
      <stop stop-color="#ae9f84" offset="15%"></stop>
      <stop stop-color="#aea084" offset="30%"></stop>
      <stop stop-color="#aea084" offset="45%"></stop>
      <stop stop-color="#ae9d84" offset="60%"></stop>
      <stop stop-color="#ae9d84" offset="75%"></stop>
      <stop stop-color="#aea084" offset="90%"></stop>
    </linearGradient>
    <linearGradient id="16282281824-posters-1720553553000-vertical-regular" gradientUnits="userSpaceOnUse" x1="0" x2="0"
      y1="0" y2="100%">
      <stop stop-color="#83807c" offset="0%"></stop>
      <stop stop-color="#82807d" offset="15%"></stop>
      <stop stop-color="#83817c" offset="30%"></stop>
      <stop stop-color="#83817c" offset="45%"></stop>
      <stop stop-color="#83807c" offset="60%"></stop>
      <stop stop-color="#83807c" offset="75%"></stop>
      <stop stop-color="#83817c" offset="90%"></stop>
    </linearGradient>
    <linearGradient id="16282281824-posters-1720553553000-vertical-medium" gradientUnits="userSpaceOnUse" x1="0" x2="0"
      y1="0" y2="100%">
      <stop stop-color="#514f4d" offset="0%"></stop>
      <stop stop-color="#514f4d" offset="15%"></stop>
      <stop stop-color="#51504d" offset="30%"></stop>
      <stop stop-color="#51504d" offset="45%"></stop>
      <stop stop-color="#514f4d" offset="60%"></stop>
      <stop stop-color="#514f4d" offset="75%"></stop>
      <stop stop-color="#51504d" offset="90%"></stop>
    </linearGradient>
    <linearGradient id="16282281824-posters-1720553553000-vertical-bold" x1="0" x2="0" y1="0" y2="100%">
      <stop stop-color="#2f2e2d" offset="0%"></stop>
      <stop stop-color="#2f2e2d" offset="15%"></stop>
      <stop stop-color="#2f2e2d" offset="30%"></stop>
      <stop stop-color="#2f2e2d" offset="45%"></stop>
      <stop stop-color="#2f2e2d" offset="60%"></stop>
      <stop stop-color="#2f2e2d" offset="75%"></stop>
      <stop stop-color="#2f2e2d" offset="90%"></stop>
    </linearGradient>
  </g>
  <g class="horizontal">
    <linearGradient id="16282281824-posters-1720553553000-horizontal" x1="0" x2="100%" y1="0" y2="0"
      gradientUnits="userSpaceOnUse">
      <stop itemprop="horizontal" stop-color="#e9e8e7" offset="0%"></stop>
      <stop itemprop="horizontal" stop-color="#e9e8e7" offset="15%"></stop>
      <stop itemprop="horizontal" stop-color="#e9e8e7" offset="30%"></stop>
      <stop itemprop="horizontal" stop-color="#ebebea" offset="45%"></stop>
      <stop itemprop="horizontal" stop-color="#e9e8e8" offset="60%"></stop>
      <stop itemprop="horizontal" stop-color="#e9e8e7" offset="75%"></stop>
      <stop itemprop="horizontal" stop-color="#e9e8e7" offset="90%"></stop>
    </linearGradient>
    <linearGradient id="16282281824-posters-1720553553000-horizontal-background" gradientUnits="userSpaceOnUse" x1="0"
      x2="100%" y1="0" y2="0">
      <stop stop-color="#cecdca" offset="0%"></stop>
      <stop stop-color="#ceccca" offset="15%"></stop>
      <stop stop-color="#cecdca" offset="30%"></stop>
      <stop stop-color="#ceccca" offset="45%"></stop>
      <stop stop-color="#cdcccb" offset="60%"></stop>
      <stop stop-color="#cecdca" offset="75%"></stop>
      <stop stop-color="#cecdca" offset="90%"></stop>
    </linearGradient>
    <linearGradient id="16282281824-posters-1720553553000-horizontal-light" gradientUnits="userSpaceOnUse" x1="0"
      x2="100%" y1="0" y2="0">
      <stop stop-color="#9c9a96" offset="0%"></stop>
      <stop stop-color="#9c9a96" offset="15%"></stop>
      <stop stop-color="#9c9a96" offset="30%"></stop>
      <stop stop-color="#9c9a96" offset="45%"></stop>
      <stop stop-color="#9b9a97" offset="60%"></stop>
      <stop stop-color="#9c9a96" offset="75%"></stop>
      <stop stop-color="#9c9a96" offset="90%"></stop>
    </linearGradient>
    <linearGradient id="16282281824-posters-1720553553000-horizontal-regular" gradientUnits="userSpaceOnUse" x1="0"
      x2="100%" y1="0" y2="0">
      <stop stop-color="#968769" offset="0%"></stop>
      <stop stop-color="#968369" offset="15%"></stop>
      <stop stop-color="#968769" offset="30%"></stop>
      <stop stop-color="#968369" offset="45%"></stop>
      <stop stop-color="#968669" offset="60%"></stop>
      <stop stop-color="#968769" offset="75%"></stop>
      <stop stop-color="#968769" offset="90%"></stop>
    </linearGradient>
    <linearGradient id="16282281824-posters-1720553553000-horizontal-medium" gradientUnits="userSpaceOnUse" x1="0"
      x2="100%" y1="0" y2="0">
      <stop stop-color="#5d5441" offset="0%"></stop>
      <stop stop-color="#5d5141" offset="15%"></stop>
      <stop stop-color="#5d5441" offset="30%"></stop>
      <stop stop-color="#5d5141" offset="45%"></stop>
      <stop stop-color="#5d5341" offset="60%"></stop>
      <stop stop-color="#5d5441" offset="75%"></stop>
      <stop stop-color="#5d5441" offset="90%"></stop>
    </linearGradient>
    <linearGradient id="16282281824-posters-1720553553000-horizontal-bold" gradientUnits="userSpaceOnUse" x1="0"
      x2="100%" y1="0" y2="0">
      <stop stop-color="#2f2e2d" offset="0%"></stop>
      <stop stop-color="#2f2e2d" offset="15%"></stop>
      <stop stop-color="#2f2e2d" offset="30%"></stop>
      <stop stop-color="#2f2e2d" offset="45%"></stop>
      <stop stop-color="#2f2e2d" offset="60%"></stop>
      <stop stop-color="#2f2e2d" offset="75%"></stop>
      <stop stop-color="#2f2e2d" offset="90%"></stop>
    </linearGradient>
  </g>
  <g class="masks">
    <mask id="16282281824-posters-1720553553000-pattern-mask" maskUnits="userSpaceOnUse"
      maskContentUnits="userSpaceOnUse">
      <pattern id="pattern" x="0" y="0" width=".0133" height=".0144" viewBox="0 0 23.07 40">
        <path
          d="M17.62 0l-6.07 10.5m2.74 4.76L8.22 4.75m-5.48 0h12.13M.01 0h23.07M6.07 20L0 9.5m2.74-4.75l-6.07 10.5m-5.48 0H3.33m8.2 4.75L0 .02-11.54 20m40.68 0L23.07 9.5m2.74-4.75l-6.06 10.5m-5.49 0H26.4M34.6 20L23.08.02 11.53 20m-5.46 0L0 30.51m2.74 4.75l-6.07-10.5m-5.48 0H3.33m8.2-4.75L0 40l-11.54-19.98zM17.6 40l-6.06-10.5m2.74-4.76L8.2 35.25m-5.48 0h12.13M0 40h23.07L11.54 20.01m17.6 0l-6.07 10.5m2.74 4.75l-6.06-10.5m-5.49 0H26.4M11.53 20h23.08L23.07 40"
          stroke-linecap="round" stroke-width="3.5" stroke="white"
          fill="url(#16282281824-posters-1720553553000-horizontal-background)"></path>
      </pattern>
      <rect width="100%" height="100%" fill="url(#pattern)"></rect>
    </mask>
    <mask id="16282281824-posters-1720553553000-horizontal-mask" maskUnits="userSpaceOnUse"
      maskContentUnits="userSpaceOnUse">
      <rect width="100%" height="100%" fill="url(#16282281824-posters-1720553553000-horizontal-background)"></rect>
    </mask>
    <mask id="16282281824-posters-1720553553000-radial-mask" maskUnits="userSpaceOnUse"
      maskContentUnits="userSpaceOnUse">
      <rect width="100%" height="100%" fill="url(#16282281824-posters-1720553553000-radial-background)"></rect>
    </mask>
    <mask id="16282281824-posters-1720553553000-vertical-mask" maskUnits="userSpaceOnUse"
      maskContentUnits="userSpaceOnUse">
      <rect width="100%" height="100%" fill="url(#16282281824-posters-1720553553000-vertical-background)"></rect>
    </mask>
  </g>
  <use href="#16282281824-posters-1720553553000-pattern-render"></use>
  <g>
    <use href="#16282281824-posters-1720553553000-background"></use>
    <use href="#16282281824-posters-1720553553000-light"></use>
    <use href="#16282281824-posters-1720553553000-regular"></use>
    <use href="#16282281824-posters-1720553553000-medium"></use>
    <use href="#16282281824-posters-1720553553000-bold"></use>
  </g>
  <g itemprop="animation">
    <animate href="#16282281824-posters-1720553553000-light" attributeName="stroke-opacity" repeatCount="indefinite"
      dur="5s" values="0.9;0.0;0.9"></animate>
    <animate href="#16282281824-posters-1720553553000-regular" attributeName="stroke-opacity" repeatCount="indefinite"
      dur="4s" values="0.9;0;0.9"></animate>
    <animate href="#16282281824-posters-1720553553000-medium" attributeName="stroke-opacity" repeatCount="indefinite"
      dur="5s" values="0.9;0;0.9"></animate>
    <animate href="#16282281824-posters-1720553553000-bold" attributeName="stroke-opacity" repeatCount="indefinite"
      dur="3s" values="0.9;0;0.9"></animate>
    <animate href="#16282281824-posters-1720553553000-regular" attributeName="fill-opacity" repeatCount="indefinite"
      dur="8s" values="0.9;0.75;0.95;0.8;0.9;"></animate>
    <animate href="#16282281824-posters-1720553553000-radial-background" attributeName="cx" repeatCount="indefinite"
      dur="34s" values="0%;33%;100%;0%;100%;0%;"></animate>
    <animate href="#16282281824-posters-1720553553000-radial-background" attributeName="cy" repeatCount="indefinite"
      dur="55s" values="0%;100%;33%;100%;66%;0%"></animate>
    <animate href="#16282281824-posters-1720553553000-vertical-light" attributeName="x1" repeatCount="indefinite"
      dur="55s" values="0%;33%;100%;0%;133%;0%;"></animate>
    <animate href="#16282281824-posters-1720553553000-vertical-light" attributeName="y1" repeatCount="indefinite"
      dur="86s" values="0%;100%;33%;100%;66%;0%"></animate>
    <animate href="#16282281824-posters-1720553553000-horizontal-regular" attributeName="x1" repeatCount="indefinite"
      dur="34s" values="0%;100%;66%;0%;33%;133%;0%"></animate>
    <animate href="#16282281824-posters-1720553553000-horizontal-regular" attributeName="y1" repeatCount="indefinite"
      dur="55s" values="0%;66%;100%;33%;100%;66%;0%"></animate>
    <animate href="#16282281824-posters-1720553553000-vertical-medium" attributeName="x1" repeatCount="indefinite"
      dur="34s" values="0%;100%;66%;0%;33%;133%;0%"></animate>
    <animate href="#16282281824-posters-1720553553000-vertical-medium" attributeName="y1" repeatCount="indefinite"
      dur="55s" values="0%;66%;100%;33%;100%;66%;0%"></animate>
    <animate href="#16282281824-posters-1720553553000-vertical-bold" attributeName="x1" repeatCount="indefinite"
      dur="34s" values="0%;100%;66%;0%;33%;133%;0%"></animate>
    <animate href="#16282281824-posters-1720553553000-vertical-bold" attributeName="y1" repeatCount="indefinite"
      dur="55s" values="0%;66%;100%;33%;100%;66%;0%"></animate>
  </g>
</svg>
