<svg id="16282281824-posters-1720560213431" itemscope="" itemtype="/posters"
  itemid="/+16282281824/posters/1720560213431" viewBox="0 0 769 512" preserveAspectRatio="xMidYMid meet" tabindex="0"
  class="animate landscape" xmlns="http://www.w3.org/2000/svg">
  <!---->
  <defs class="graphic">
    <pattern id="16282281824-posters-1720560213431-pattern" width="769" height="512" viewBox="0 0 769 512"
      patternUnits="userSpaceOnUse" preserveAspectRatio="xMidYMid meet">
      <rect itemprop="background" width="769" height="512" tabindex="-1"
        id="16282281824-posters-1720560213431-background" fill-opacity="1"
        fill="url(#16282281824-posters-1720560213431-radial-background)"></rect>
      <!---->
      <path id="16282281824-posters-1720560213431-light"
        d="m0 148 1 148h16q22 0 23 3c2 3 1 29-1 30q-4 2-27 1l-12-1v12h4l18 1c21 0 22 0 23 21v19c2 24 2 31 1 32-1 3-6 4-25 3l-19-1q-2-1-2 6v7l4 1c5 1 5 2 5 24s0 24-6 24c-5 0-4 13 0 13q6 1 6 13l1 8h12v-39c0-48-2-43 16-43h32c19 0 21 1 22 2 2 3 4 19 3 33l1 14 1 16c0 17 0 17 7 17h6v-6l-1-34q-2-9 1-10l1-3h21c28 1 26-1 27 25v23l1 5h13v-6q0-5 2-6h64c22-1 24-1 24 7v5h13l-1-12c-1-24-2-24 29-23 71 0 65-2 65 20v15h12v-9l-1-13q-1-8 4-11c7-3 48-1 51 2 1 1 3 16 3 26v5h12v-5c-2-16-2-20 0-24l2-3 12-2c33-3 34-3 34 16 0 17 0 17 7 18h6v-21c0-27-1-25 16-27 20-1 37 0 40 2 2 2 4 31 3 40v6h6q6 1 9-3l2-2h37c33 1 37 1 41 3s16 3 18 1l43-1 43 1v-12h-5l-11 1c-13 2-14 0-14-22l-1-23v-36q0-2 14-2c15-1 16-1 17 7v-7c0-14 0-14-3-12-3 1-14 1-22-1-6-1-7-4-7-19-1-18 0-19 21-18l11 1v-6q1-8-2-6c-4 1-27-1-29-2q-4-2-2-16c1-13 1-13 16-13l15 1q3 3 2-6 1-10-2-7c-4 2-25 0-29-2q-3-1-4-40 0-10 13-8l13 1c9 0 9-1 9 17l1-133-1-125v23h-2l-12-2c-15-1-14 1-14-24V0h-12v20c1 24 1 23-12 24-14 1-29 0-31-2-1-2-2-38 0-41l-4-1q-5-1-4 3l-2 6c-2 2-2 4-2 16 0 20 1 18-19 18-26-1-25-1-25-17l-1-14V4l1-4h-13l1 38v39l-2 1c-2 2-4 2-20 2-23 0-22 0-23-18V0h-6c-7 0-6-1-6 14 0 8-1 9-3 12l-2 2h-23l-23-1q-3 1-3-15V0h-12v11c0 14 0 15-4 16-3 1-16 1-24-1h-6q-2 0-5-3-4-2-1-20 1-4-6-3h-6v7q-1 14-3 17c-2 1-18 0-23-1q-6 1-7-14V0h-6q-7 0-6 2 5 18-8 19l-8-2-3-1V9l1-9h-6q-8 0-7 3l-1 8c0 9-2 10-14 9l-15-1-16-1-12-1q-3-1-4-12V0H134v3l-1 5c-2 1-17 3-18 2l-11-1C87 9 85 8 85 1l-6-1q-9-1-7 3c-1 6-3 6-31 5C11 7 9 7 7 3Q6 0 3 0H0zm0 1c0 81 1 114 1 73zM153 10c-5 1-5 2-5 15l3 30c1 15 1 15 16 14l21-1h17l21 1c18 0 18 0 17-38 0-16-1-16-3-18l-4-2-72-1zm125 1-11 2c-9 1-9 2-9 19-1 38-1 37 15 37q17 0 19-4c3-5 2-49-1-53q-3-2-13-1M8 21l-2 2-1 21c0 25-1 23 16 23l13 1c17 1 17 0 16-23 0-25 0-23-12-24-20-2-27-2-30 0m60 1c-4 2-4 5-4 23 0 20 0 20 4 22 2 1 5 2 22 4 10 1 44 0 46-1q3-6 1-27l-1-12c1-3-2-9-5-9zm244 10q-7 0-7 16c0 19 0 20 18 21 16 0 16 0 17-14q2-17-2-20c-2-2-19-4-26-3m45 2q-4 3-4 25c0 10 4 11 32 13 10 0 10 0 9-19 0-14-1-17-5-19zm52 4c-2 2-2 5-2 17q1 21 5 19c6 2 21 3 23 2h8c5 1 102 3 112 2q9 0 7-9l-1-15q0-11-2-14l-1-2h-37c-33 1-49 1-101-2-10 0-10 0-11 2m228 17-5 2c-2 2-1 51 1 53q3 4 27 4c20 0 18 2 20-24 2-34 2-34-16-34l-17-1zm59 4c-2 3-2 5-2 14 0 13 1 15 9 17 6 1 50 3 60 2h6V58l-5-1-35-1h-31zM8 83q-3 4-2 15v36q4 9 32 6l28-1 21-1c4-3 4-8 3-35-2-21-1-21-48-22-31 0-32 0-34 2m174-1c-6 0-7 2-6 19 0 24 1 32 4 36 2 3 5 4 23 4 31 1 35 1 38-1l2-1v-19c-2-33-2-34-4-36-3-2-43-4-57-2m85 0c-10 1-11 3-10 27v9q0 9 8 8l17 1 32 1 20 1 3-3 3-3V85l-3-2c-4-1-57-2-70-1m88 2c-2 2-3 35-2 42 1 3 4 4 21 4 23 0 22 1 23-21 1-21 0-23-22-25l-9-1c-1-2-9-1-11 1m-225 0-25 1q-3 3-2 9l1 30c0 28 0 28 3 29 6 2 53 2 54 0 2-2 4-15 4-17l-2-14-3-37-5-2zm282 6c-2 1-2 2-2 15l-2 24c0 14 0 14 15 15l39 3c10 1 10 0 10-16l1-24c1-14 0-17-4-17-32-2-55-2-57 0m81 0c-7 0-8 2-8 22-1 25 0 49 1 52 1 2 2 2 13 2q20 2 21-3c1-3 1-68-1-69l-1-2-4-2zm42 3c-2 2-3 8-2 28l-1 10v5l1 16 1 13c1 2 18 3 22 3 6-1 9-11 6-18l-1-7 2-26V96l-3-3-3-3h-10c-9 0-10 0-12 3m43-1-3 2-1 32c-1 35-1 37 3 41l2 2h19c23-1 23-1 22-15l-2-34c0-26 0-26-6-28zm116 11c-3 5-3 7-3 34 1 30 1 32 5 33q13 4 14-6l2-45c0-16 0-17-10-17zm36 0c-4 1-7 24-7 54q0 18 9 16h15q21-1 19-6v-61c-2-3-29-5-36-3m-96 24-3 1v15c1 28 0 27 26 27 24 0 23 0 23-14l-3-26q0-6-17-4h-17q-6-1-9 1m-373 14c-5 2-5 4-5 20 1 17 2 20 8 21a12 12 0 0 0 10-1q5-2 5-11v-9c1-6-1-16-3-19-2-2-11-3-15-1m35 1-3 3c-1 3 0 33 1 35 2 1 40 3 44 1 2-1 2-2 2-16 0-16-1-20-5-22-4-1-36-2-39-1m63 1c-6 2-7 2-6 20 0 19 0 19 11 21 7 1 24 0 27-2 3-3 3-6 4-21 0-15 0-15-2-16-3-2-27-3-34-2m-307 8-33 1c-15 1-14 1-14 20 0 17 1 19 7 21 5 2 65 2 70 1 5-2 6-6 6-23 0-22 2-21-36-20m134 3-7 1c-3 2-2 21 2 24 2 2 11 3 35 3 28 1 29 1 29-12 0-11-1-13-8-15-7-1-42-2-51-1m224 4c-3 2-4 21-1 24 4 3 15 3 19-1s4-20-1-24c-2-2-14-1-17 1m38 0-3 2-1 12c-2 15-1 46 1 60q-1 7 15 6c12-1 12 1 12-32l2-34c1-12-1-14-16-14zm-345 10c-2 3-2 54 0 57 2 2 9 3 34 4 32 1 29 3 29-27 0-25-1-30-4-32-4-3-57-4-59-2m387 11c-5 1-5 2-5 27 0 27 1 29 7 31h25l22 1 2-3c2-2 2-15 0-20l1-2v-18c-1-18 2-17-27-17zm67 1q-4 4-3 27c2 31 1 31 14 32s14-1 14-35l1-21-3-2c-3-3-21-3-23-1m42 1-2 2-1 21-2 32 1 12q2 3 20 3l17 1c13 2 14 1 15-15 2-18 1-50-1-54l-15-2zm64 3c-5 5-3 37 1 39 3 2 52 2 53 0 2-3 2-36 0-38-3-3-51-4-54-1m72 3q-6 6-2 44c2 17 3 19 7 19 9 2 23 3 26 2h3v-19l-1-28c0-18-2-20-20-20q-13 0-13 2m-435 8-4 1c-4 1-5 6-5 25l2 34 1 19q2 2 31 0c19-1 21-2 22-4a122 122 0 0 0 2-45l-3-23q0-3-4-4zm-119 3c-2 2-2 4-2 15 1 16 0 16 17 16 16 0 16 1 17-12 1-20 0-21-18-21-11 0-12 0-14 2m53-1-6 1c-2 2-3 69-1 74 2 4 4 4 30 4l22-1c1-2 1-37-1-65 0-14 0-13-22-14zm134 0c-7 1-8 3-8 15q0 19 4 22l18 1 28 2c21 1 22 0 21-22 0-14-1-16-5-18zM9 208l-4 1v72q-1 3 8 3l6 1h4l8-1q6 1 9-3l3-2v-23l-1-24 1-9q0-11-4-14c-2-1-24-2-30-1m50 0c-4 2-4 5-4 37 0 40-1 38 19 38 17 0 17 0 16-14l-1-32c-1-29-1-29-11-29zm622 28c-21 1-23 2-22 18l2 15c1 26 0 24 20 25l24 1c18 1 18 1 16-20l-1-24-2-12q-1-4-37-3m-574 6q-5 0-5 15l1 18 1 10c1 11 1 12 12 12 13 0 13 0 13-30-1-26 0-25-12-26zm39 0q-5 0-5 14l-1 23c-1 18 0 20 16 19 10-1 11-3 11-37-1-20-1-20-12-20zm36 1c-3 3-3 26 0 30 2 3 28 3 30 0 3-3 2-27-2-30-2-3-25-3-28 0m182 7c-3 2-4 13-2 17 2 5 7 5 32 5q33 0 37-4c2-2 2-14 0-16-3-3-10-3-37-4-27 0-29 0-30 2m99 0q-15 0-17 2a182 182 0 0 0 2 51c1 13 0 12 25 13 24 1 24 1 25-10 1-12-1-46-3-52-2-4-5-5-32-4m53 0c-6 2-6 2-6 17 0 25 0 25 18 25 15 0 15 0 15-13l-1-18c0-10-1-10-12-11zm41 2c-5 4-4 35 1 39 2 2 15 3 19 2q3 0 5-7v-2c1-2 1-16-1-26q2-8-13-8c-8 0-9 0-11 2m42 11c-4 2-5 4-5 16 0 15-2 15 28 15 28 0 27 0 27-12 0-17-1-18-26-19zm-258 22c-5 1-5 1-5 24 1 27-1 25 23 25h23l4 1 2-4 1-22c0-20-1-22-5-24zm63 3c-2 3-2 4-2 23v20l15 1c19 0 18 1 18-19 0-26-1-28-19-28-10 0-10 0-12 3m-106 0c-4 2-5 3-4 21l1 20 2 3h11c13 1 15 1 17-4s0-38-3-40zm-118 3c-2 3-1 66 1 73 2 5 1 5 26 6l37 2q36 2 38-1c1-2 2-47 0-50l-1-15c0-13 0-15-2-16-2-2-7-2-50-2h-47zm-113 4c-13 1-15 4-12 26 1 9 1 9 17 9 20 0 20 0 20-15 0-19-3-21-25-20m448 9-4 1a184 184 0 0 0-1 43c0 21 0 22 17 23 23 2 82 2 84 1 3-2 2-62-1-65-2-2-3-2-32-3zm130 1-16 1-2 3c-3 6-3 17 0 20 1 3 2 3 16 3 37 1 40 0 40-7q1-20-6-20zm53 2c-3 1-3 28-1 46 2 17 3 20 4 21 2 2 21 2 22 0s1-62-1-65c-1-3-3-3-14-3q-9-2-10 1m-586 3c-8 1-8 1-7 28 0 27 1 30 6 32 7 2 52 0 54-2 3-4 3-53-1-57-2-1-43-3-52-1m340 18c-4 1-4 2-4 42-1 43-1 44 5 44l43-3q4-4 2-61c-1-20-2-22-11-22zM58 343c-2 1-2 2-2 17l1 18 1 19c1 22 0 21 19 21h13l2-4c2-3 2-6 1-20-1-53 0-52-21-52zm323 0-33 2c-10 0-10 0-11 28-1 36-1 40 4 41 2 1 43 2 45 1q3-3 2-13v-50q-3-10-7-9m27 0-4 1c-5 1-5 5-5 37 0 37-2 33 19 34l16-1 1-26 1-30q3-12-5-14zm-110 2c-2 2-3 20-2 25 3 7 25 7 29 0l1-12c0-10 0-11-2-12-4-2-24-2-26-1m329 1c-2 1-2 2-2 11 0 17-1 17 33 18h25l1-3c3-7 2-25-2-27-4-1-53 0-55 1m-518 37c-2 2-2 2-4 28l1 15 1 11q0 8 7 8 13 3 18-1c2-2 2-2 2-30v-29l-7-1c-15-2-15-2-18-1m42 0-3 2-2 43c-1 20-2 19 30 19h24c8 0 9-5 9-36v-23l-3-3-3-3h-25zm363 2c-4 4-4 10-4 36 1 23 2 29 5 31h51l1-3 1-5 1-7-2-33-3-16c0-4-4-4-26-5h-22zm-289 0c-3 1-4 5-3 32 0 24 0 28 2 29l17 1c22 0 21 1 20-20-1-43 0-40-7-42zm362 0c-8 0-8 1-8 23l1 29 2 31c0 28 0 28 18 27 13 0 13 1 13-23v-31l-1-23c1-23 0-30-1-32-2-1-15-2-24-1m-310 1c-3 2-4 7-3 38 0 35 0 39 5 39 7 1 40 2 42 1 4-1 5-5 4-21v-33c-1-24-1-24-17-24zm350 1c-4 6-2 65 2 68h30q7 0 7-11l-1-48q0-9-8-9l-7-1c-21-1-22-1-23 1m52 2c-2 1-2 2-1 19 2 22 0 21 19 21h20c7 0 7 0 8-18 2-24 3-23-24-24-17 0-20 1-22 2m-194 35-27 1c-10 0-11 2-11 17 0 26-1 25 26 25 22 0 24-1 25-7 3-14 2-31-2-34-1-1-10-3-11-2m-78 3-23 3-2 2c-3 9-4 26-2 29 2 5 4 5 25 5l23 1c7 1 8-1 7-28 0-13 0-13-28-12m-68 2c-2 2-3 23-1 30 1 6 3 6 17 7 12 0 12 0 12-18 1-19 0-19-15-20zm343 11c-3 2-4 5-3 29 0 22 1 25 5 28 4 2 33 3 40 2l3-1v-26c-1-28-2-31-6-32-4-2-37-1-39 0m-446 18-30 1c-35 1-33 0-34 11q0 13 3 15c3 4 77 4 84 1 6-3 5-26-1-27-4-1-21-2-22-1m405 9c-14 1-13 0-14 8q-1 15 3 19c5 4 27 5 33 2l4-1v-11c0-19 1-19-26-17"
        mask="url(#16282281824-posters-1720560213431-horizontal-mask)" itemprop="light" fill-opacity="0.90"
        fill-rule="evenodd" stroke="none" fill="url(#16282281824-posters-1720560213431-vertical-light)"></path>
      <!---->
      <path id="16282281824-posters-1720560213431-regular"
        d="M0 148v148h17c26 0 25-1 25 19 0 17 1 17-24 16l-18-1v5c0 6 0 6 23 7 22 0 22-1 22 28l2 28c2 21 3 20-26 20l-21-1v11l4 1c5 1 6 4 6 19 1 22-1 29-7 30-5 1-5 11 0 13q7 1 7 15v6h12v-79l2-2c2-2 10-3 14-2h26c25 0 26 1 28 3q4 4 5 31l1 48 6 1h6v-14l-1-25c-2-15-3-15 20-14 31 0 30 0 31 21v32h12v-6c1-8 1-8 21-7h51c17-1 19 0 20 8v5h11l-1-13q0-22 4-21c9-2 19-2 58-1l29 1q5 2 5 21v13h5c6 0 6 1 5-16q-2-18 4-18h46c7 1 7 2 8 19v15h11l-1-14c-1-21-1-21 33-21 18 0 18 0 18 17s0 18 6 18h5v-33c1-13 1-14 11-15 21-3 47-1 48 4 1 3 3 25 2 35v9h5q7 1 7-2c2-4 6-4 28-4 56 2 52 2 55 4 4 3 14 3 16 0l44-1 43 1v-10h-13q-18 2-17-4v-16l-2-35c-2-29-2-28 15-29 14-1 17 0 17 7l1 4c1-2-1-23-3-22-1 2-24 1-27-1-3-1-3-2-4-14q-1-20 4-22c3-2 24-3 27-1q2 3 2-4v-6h-12c-20 0-24-2-23-17q2-15 6-16c4-1 22 0 27 1q3 3 2-5 1-9-2-6c-2 1-16 1-24-1s-9-5-9-28c-1-24-2-23 17-22 20 0 18-2 18 17l1-132-1-125v23l-12-1c-18-1-18 1-17-36V0h-11l1 12c1 25 0 29-4 31-4 3-32 3-37 1q-7-1-5-31l1-13h-3q-4-1-4 3 1 4-2 6l-1 16c0 19 1 18-20 18-27 0-26 0-26-25V0h-6c-6 0-6 0-5 11v37c1 37 3 33-22 33-23-1-23 0-24-17V2q3-2-5-2h-6v11c0 19 1 18-29 18-27-1-26 0-26-18V0h-10v11q0 17-5 17h-17c-21-2-21-2-20-17V0h-11v10c0 16-1 16-15 15q-15 0-16-4c-1-2-3-17-2-20l-5-1h-6l1 7q1 16-12 15-10 1-9-13V0h-11v5c0 16-2 17-26 15l-24-1q-17 0-13-16V0H135v2c0 8-4 9-25 9-22-1-24-2-25-8-1-5-13-5-13 0 0 6 0 6-30 6C12 8 8 7 6 3Q5 0 2 0H0zm0 1c0 81 1 114 1 73zM151 9l-3 5a241 241 0 0 0 3 46c1 11 1 11 29 9h36c20 1 24 1 26-3 2-3 2-41 1-48s-2-7-25-8h-31c-32-2-34-2-36-1m122 2-12 2q-4-1-4 24v23c0 9 5 12 23 9 13-1 14-1 14-16 1-21 0-38-3-41q-3-3-18-1M7 21q-3 2-2 42c0 4 4 5 22 5 26 1 25 2 24-23 0-27 1-25-24-26-16 0-18 0-20 2m61 0c-5 3-5 8-5 30 0 17 0 18 27 20l21 1h15q17 3 12-22l-1-17c-1-12-2-12-20-12zm239 13c-2 2-2 4-2 16 0 18 0 19 19 19 15 1 15 0 17-12 2-24 0-26-22-26-9 0-10 0-12 3m50 0c-4 3-7 22-4 30q2 7 13 7l12 1c17 3 17 2 17-18-1-20 0-20-17-21-16-1-18-1-21 1m57 2c-7 0-7 1-7 16 0 24 1 24 20 25h24c9 1 43 2 92 2h15l3-2q2-3 2-8l-1-16c-1-10-1-12-3-14l-2-2-25 1a833 833 0 0 1-111-2zm225 18q-9 0-9 8l1 48c3 3 8 4 26 5h18l2-2c3-3 3-3 3-15l1-14V60c-1-4-5-5-21-6zm59 2c-4 2-4 3-4 16-1 19-1 19 35 20l34 1h6V57h-5c-7-1-63-2-66-1M8 82l-3 3v24c0 25 0 28 4 30s74 1 78-1 5-12 2-43c-1-13-3-13-50-15H10zm175-1c-8 2-9 5-8 23l1 22c1 14 5 17 26 16h19c23 2 23 1 23-19-2-45-1-41-16-42zm86 0c-13 1-13 1-13 27l2 17c3 2 29 4 58 4h20l2-3c2-2 3-23 2-41 0-4-44-6-71-4m-138 2c-23 0-24 0-26 2l-3 3 1 31c0 36 0 35 8 35l26 1c23 1 24 0 27-4 3-8 0-59-5-66-1-3-1-3-28-2m224 1c-2 2-4 37-2 42 2 4 5 5 21 5 23 0 23 0 23-25 1-19 1-18-13-21q-25-5-29-1m56 6c-2 2-4 45-3 50 2 4 7 5 54 8 10 0 11-1 11-12v-28c2-21 5-19-32-20-27 0-29 0-30 2m84-1q-8 0-9 4c-1 4-3 42-2 54 0 20 0 20 18 20 20 1 21-1 19-23V94l-3-3q-5-3-23-2m47 1c-8 1-9 2-10 14v59q0 6 17 5c14 1 14 2 14-26v-27c1-24-1-27-21-25m42 1c-11 1-10 0-11 21v32c-1 14-1 19 3 23 2 3 38 3 42 0l2-1-1-27v-34q0-13-6-13c-4-1-17-2-29-1m112 11c-5 1-5 5-5 35 0 33 0 33 7 35 12 1 13 0 14-29 1-33 0-38-1-40-2-1-12-2-15-1m31 3c-2 4-3 8-4 30-2 40-2 39 21 39 18-1 22-2 23-7v-29l1-24c1-11 0-11-22-12h-18zm-94 21c-3 2-4 15-2 31 2 13 4 14 27 14s24-1 22-21c-1-17-2-22-5-24-2-1-38-2-42 0m-373 14c-4 2-5 4-4 30q1 15 14 13c8-2 10-5 10-19 0-20-2-24-11-24zm36 2-4 3c-1 2 0 33 1 34 2 2 6 3 26 4h18l2-3c2-2 2-3 1-17 0-19-1-20-11-21-14-2-30-2-33 0m68 0q-12 1-12 7c-1 4 0 29 1 31 3 6 33 7 39 1 3-3 5-32 2-36q-4-5-30-3m-324 9H25c-19 1-19 1-21 11-1 10 1 27 4 30 2 2 34 4 52 3h17c10 1 12-3 12-24 0-17-1-20-7-20zm141 3q-4 0-4 11c0 17 1 17 34 18 35 0 35 0 35-13q1-14-9-16zm232 2c-6 1-6 2-6 13 0 14 1 16 10 16q17 1 14-16-1-12-4-12-8-2-14-1m32 3c-2 2-4 35-3 42l1 16c0 17 1 20 6 21 6 2 18 0 21-3l3-3-1-15 1-18c1-3 2-36 1-38-3-4-25-6-29-2m-342 9c-2 3-3 22-2 47 0 14 0 13 33 14 29 0 31 0 32-3v-44c-1-15 0-14-24-15-34-2-38-1-39 1m385 11q-4 1-3 37c1 23-1 22 31 22 28 0 28 0 27-14v-25c-1-23 2-22-28-22-21 0-24 0-27 2m70 0c-4 2-4 3-4 19-1 37 0 41 13 42q12 0 13-5c2-3 4-22 4-30l-1-14c0-9 0-9-3-11s-18-3-22-1m44 1-5 1c-1 2-2 15-1 25l-1 19-1 16c0 10 0 10 22 11l22 2q5 1 8-5c3-6 4-61 1-65q-1-2-10-3l-12-1zm64 2c-6 1-6 2-6 20-1 19 0 21 7 23 7 1 48 0 49-1q3-3 4-22 0-19-5-19c-4-1-44-2-49-1m70 3c-5 3-7 26-4 45l2 12q0 10 8 9l14 2c14 2 13 4 13-30 0-31-1-33-5-37-4-2-25-3-28-1m-438 10c-8 1-8 4-6 55 0 26 0 26 10 26 19 0 45-3 46-6 5-7 2-68-3-72-3-2-41-5-47-3m-116 1c-3 2-3 3-3 17 0 16 1 17 19 17 14 0 15 0 16-16q0-15-4-17c-3-2-25-2-28-1m61 0-15 1-2 11-1 34v29l2 3 3 3h24c21 0 24 0 25-2 2-2 1-71-1-75q-2-6-35-4m143 0c-29 1-27-1-26 18 0 16 1 19 5 21 4 1 37 3 52 2 15 0 15 0 15-21 0-22 3-21-46-20M59 208c-5 2-5 3-5 38 0 40-1 38 21 38q12 1 14-2l2-1v-24c-2-43-2-48-6-49-7-2-23-2-26 0m-54 1c-2 1-3 16-2 54 0 23 0 22 18 22q20 1 22-5v-57c0-15-1-16-22-16q-16 0-16 2m689 26-15 1c-19 0-20 0-19 16l2 39c1 3 3 3 25 4l27 1h4q8-1 3-26l-1-17c0-17 0-17-11-17l-10-1zm-586 6c-6 1-6 3-6 27 1 30 1 30 15 29 13-1 12 1 12-28l-1-25q-5-5-20-3m37 1c-4 2-5 5-6 29v23l2 2c6 4 23 3 24-1l2-5 1-23c0-26-1-27-14-27zm37 0c-2 2-3 2-3 15 0 19-1 19 18 19 18 0 17 0 17-15 0-19-1-21-19-21q-12 0-13 2m184 6c-6 2-8 17-4 22 4 4 51 5 65 1 8-2 9-17 2-21-5-2-55-4-63-2m98 1c-18 1-19 1-20 6-1 7 2 55 5 58 2 4 43 7 47 3s4-26 1-53c-2-15-2-15-33-14m55 0-5 1c-5 1-5 2-5 18 0 21 2 25 13 25 20 1 21 0 21-14v-18q0-10-6-11c-3-1-16-2-18-1m39 2c-4 2-5 7-4 24 0 16 2 19 13 19 14 1 16-1 16-21q1-24-7-22-13-3-18 0m40 12q-4 0-5 15c0 10 0 11 2 14l3 2h23c30 0 28 1 28-13 0-18 0-18-28-18zm-260 22c-3 2-3-2-2 36 0 14 0 14 22 13l23 1q6 5 9-9v-14l-1-15c0-13 1-12-26-13zm70 0q-8 0-7 20l-1 20c0 7 1 8 17 8 13 0 16-1 18-4a126 126 0 0 0-1-37q0-4-3-5c-3-2-20-3-23-2m-111 3c-4 3-5 9-4 28 1 17 1 17 18 18 13 0 14 0 15-13 0-13-1-30-3-33s-21-3-26 0m-114 0c-4 1-5 4-4 36 0 49 0 47 17 47l63 2q23 2 24-3v-62c-1-22 2-20-36-20zm-127 9-3 3 1 12 1 16 2 3h14c18 0 20-1 21-7 1-3 0-19-1-26-1-5-30-6-35-1m456 8-3 6v47c2 14 1 14 35 15l46 1c23 0 24 0 23-8v-29l-1-27c-2-6-4-6-53-7h-46zm134-1-18 1c-3 2-5 13-4 19 2 8 3 8 18 9h19c8 1 19-1 21-3 2-1 2-14 0-22-1-5-5-5-36-4m50 2c-2 3-2 26 2 57v6q-1 8 16 8c11 0 11 1 10-32 0-31 0-36-3-39-3-2-22-2-25 0m-581 3c-11 2-12 4-12 18 0 16 2 38 3 40q5 4 11 5l23-2c23 0 25-1 27-4 1-2 2-26 0-28v-13c-1-17 1-16-28-16zm338 18c-5 1-5 1-6 23v47c0 17 1 19 8 18l22-1c19 0 20 0 21-7 1-5 2-36 1-43l-1-18c0-14-1-16-5-18-4-1-34-2-40-1M63 342l-5 1c-3 0-3 3-2 23l1 30q1 21 4 22c3 1 25 2 28 0 5-1 6-11 5-45-2-30-3-31-19-32zm318 1h-12c-22 1-29 2-30 5-3 3-4 60-1 64l3 3c16 2 43 2 46 0 1-1 2-2 2-34v-33l-3-3q-4-4-5-2m27 0c-9 1-10 2-10 47 1 27-1 25 19 26 20 0 19 1 19-24v-12l1-21c0-12-1-14-7-16zm-110 2c-3 2-4 12-3 20 2 10 3 10 18 10 12 0 12-1 13-16v-13l-3-1c-6-2-23-2-25 0m330 0q-4 1-4 16c1 14 1 14 34 15 29 0 27 1 28-14q1-17-6-18c-5-1-50 0-52 1m-473 37q-8 1-8 6l-1 5-1 26c0 26 0 26 7 28s52 1 54-1q5-4 3-35c0-25 0-25-4-28-3-2-36-2-50-1m-47 2c-3 3-4 29-2 48 2 11 2 12 5 13 4 2 20 2 22 0 3-3 4-57 0-60-3-3-22-4-25-1m408-1c-5 1-7 8-7 32q0 31 5 37l2 2 24-1q24 0 26-2c3-1 3-6 2-28q0-37-6-39c-2-1-42-2-46-1m-292 2c-4 4-4 6-3 25v23c-1 14 0 15 21 15 19-1 19-1 20-11l1-8-1-20-2-21c-1-3-5-4-20-5h-14zm365-1c-11 1-11 0-10 27 0 37 3 79 5 81 3 6 23 7 28 1 2-2 3-34 1-53v-38c1-15 0-16-7-18zm-309 1c-6 1-7 3-7 29 0 27 1 46 3 48 1 2 3 2 22 3 23 1 26 1 27-4 2-4 0-70-1-73-2-2-6-3-25-3zm347 1-2 3c-1 13-1 47 1 55 2 14 2 14 26 12 13-2 14-3 14-10 1-53 0-60-8-60l-25-2q-4 0-6 2m53 2c-2 1-2 1-2 18l1 20c2 3 8 4 27 3 21 0 19 1 19-21l1-17-3-2c-4-3-39-4-43-1m-215 36c-18 1-18 1-19 16q0 20 3 25l3 2h20c28 0 28 1 28-22 0-21-1-22-18-22zm-54 2q-26 1-29 5c-4 4-4 31-1 34 2 1 49 3 52 1q4-1 4-12l-1-15c0-14 0-14-25-13m-69 2c-5 0-5 2-5 18v15l2 3c5 3 25 3 28-1 2-3 2-27 0-31q-5-7-25-4m346 11c-10 1-11 2-10 21 0 33 1 35 7 38 5 2 37 3 40 1l3-2v-19c-1-28-2-36-4-38s-20-2-36-1m-466 18-22 1c-29 1-30 1-29 16q1 12 5 13c4 1 31 2 53 1 36 0 34 0 34-15 0-16 1-15-22-16zm422 9c-18 1-19 2-18 19 1 11 4 13 26 13 15 0 16-1 16-14q0-16-4-17-5-2-20-1"
        mask="url(#16282281824-posters-1720560213431-radial-mask)" itemprop="regular" fill-opacity="0.90"
        fill-rule="evenodd" stroke="none" fill="url(#16282281824-posters-1720560213431-horizontal-regular)"></path>
      <!---->
      <path id="16282281824-posters-1720560213431-medium"
        d="M0 148v147h17c15 0 18 0 21 2l4 2v12c1 20 1 21-15 21l-19-1H1l-1 4v5h10l18 1c15 0 17 2 18 18l2 40c1 14 0 16-4 18q-6 3-37 0H0v11h4c6 2 7 3 7 26 0 22-1 25-8 25q-4-1-3 5 0 6 2 5 8 1 9 18v5h10v-21c-1-41 0-57 2-60s65-4 69-1c4 4 5 21 6 64l1 14v4h10v-20l-2-24q0-5 2-8l3-2 14-1q23 0 30 3c3 2 4 5 4 27v25h11v-4l2-7 2-3 22 1h45c15-1 17-1 19 1 2 1 5 9 3 11l5 1h5v-15c0-18 0-19 5-20 4-2 35-2 71-1 20 1 21 2 21 22 0 15-1 14 5 14h4v-12c-2-25-4-23 28-23 31 0 29-2 31 22v13h9v-12c-2-22-1-22 23-23 28-2 28-1 29 14v21h10v-5c-2-9 0-40 2-42q5-2 34-2c26 0 25-1 26 28v21h5q6 1 5-2c2-4 4-4 42-4 36 1 42 1 44 5 0 2 11 2 13-1 2-2 16-2 57-1 33 1 31 1 31-5v-4h-4l-10 1q-10 2-15-2c-2-2-2-5-2-25l-1-27c-2-8-2-22-1-25 2-6 5-7 17-7 14 0 16 1 16 7l1 5-1-11v-11l-3 1c-7 2-23 1-27-2l-3-8q-3-23 4-29c2-1 26-2 28-1q1 2 1-4v-4l-13-1c-21 0-23-2-22-18 1-15 3-17 20-16l13 2q2 3 2-5v-6l-8 1q-18 0-23-4c-3-3-3-3-4-16l-2-20 1-9c2-3 8-6 10-5l12 1c15 0 14-1 14 17l1-132-1-124v24h-3l-13-2c-14-1-13 1-13-24V0h-10v19c2 27 2 27-23 26-18 0-20 0-22-3s-2-26-1-35l1-7h-3q-4 0-3 2t-1 6c-3 4-3 6-3 18 0 18 0 18-14 18-28 0-32-2-32-12l-1-23V0h-5l-4 1v76l-2 2c-3 3-5 3-35 2q-9 0-10-12V0h-10v16c-1 12-4 14-18 14l-20-1c-18 0-18 0-18-17V0h-10v11c1 18 0 19-18 18-26-2-26-3-25-16l1-11q0-2-5-2h-5v6c0 8-2 18-3 19l-13 1c-16-1-19-4-19-19V0h-9v7q0 18-14 15-9-1-8-13l1-9h-5q-7-1-6 9 1 17-24 12l-20-1-17-2c-2-2-4-12-3-15V0H136v3c0 8-6 9-35 8-13-1-15-2-17-7q0-5-6-4-6-1-5 3c0 6-3 7-24 6C12 9 8 8 6 3Q5 0 2 0H0zm0 0c0 81 1 114 1 74zM150 9q-4 5-4 12l1 11 2 18c2 23 1 22 27 20h36c34 1 32 3 32-28 1-34 3-31-28-32-61-2-65-2-66-1m121 2-13 3q-3 5-1 35l1 18 3 2c4 2 19 2 27 0 6-2 7-4 7-22 0-39 0-40-24-36M8 19c-3 2-3 2-4 24 0 27-2 25 21 26 19 1 25 0 26-4 1-1 0-36-1-41 0-4-5-5-23-5zm70 1c-15 0-17 3-16 29 1 16 1 17 6 19 11 5 64 6 68 2q4-3 1-35c-1-15 1-14-26-15zm233 11c-6 1-7 6-6 31q-1 7 14 8c21 2 21 1 23-21q1-17-7-17c-5-1-20-2-24-1m47 1q-7 4-7 24c1 12 3 14 15 15l15 2c14 2 15 1 15-15q0-19-3-23c-3-2-30-5-35-3m50 5q-2 2-2 15c0 23 2 25 21 25l26 1 59 1 46 1 3-2c3-4 2-35-1-39q-3-3-54-1c-13 0-34 0-87-3-9 0-10 0-11 2m226 17c-5 2-5 3-5 30l1 26c4 5 43 8 48 3 2-2 2-2 4-37 0-16 0-19-5-21-3-1-40-2-43-1m64 2c-8 4-8 30 0 34l52 4h19V57l-4-1c-11-2-63-2-67 0M9 80c-4 2-4 3-4 30-1 32-1 32 22 31l58-2c6-1 7-6 6-31-2-24-1-24-17-27-12-1-61-2-65-1m182 0c-17 1-18 2-17 25s2 29 5 33l3 4h28c37 1 35 2 34-21l-1-24c0-16-1-16-22-17zm97-1-13 1q-19 1-18 5c-2 6-2 26-1 32 1 10 2 10 15 11l20 1c17 1 45 1 47-1q4-6 3-14l-1-16c1-14 1-14-3-16-4-1-48-4-49-3m67 4c-3 3-3 4-3 17-1 32-2 31 22 31 20 0 20 0 23-6 2-5 3-31 1-35-2-3-2-3-13-5-23-5-27-5-30-2m-246 0c-7 1-7 1-7 36l2 34c2 2 23 3 43 3h14l2-4c3-4 3-25 0-47-2-25 1-22-28-22zm304 5q-5-1-5 15v23c-2 17 0 18 16 19l21 2q24 3 27 0c1-2 2-21 2-49 0-9-1-10-17-10zm76 1c-5 2-5 2-6 43 0 37-1 36 21 36 20-1 19 3 18-47-1-34 0-33-19-33zm46 2-3 3-1 32c0 45-1 42 16 43 15 1 17-1 16-12l1-38c0-30 0-30-17-30-9 0-10 0-12 2m50-1c-9 1-10 2-12 4v33c-2 9-2 30 0 35 2 8 3 8 25 8 21-1 21-1 22-6 1-4-1-67-2-70q-2-3-17-4zm109 13c-3 2-3 3-4 13v31l2 21c1 5 14 6 18 2l1-16 1-29 1-21-3-2q-9-5-16 1m35-1q-7 1-7 51c1 23 0 22 24 21 23-1 22 1 22-38 0-31 0-32-5-33s-32-2-34-1m-91 23q-7 0-8 4c-2 5 0 34 4 38 3 4 6 4 24 4 24 0 24 1 22-24q-1-22-5-22zm-377 14q-8 0-5 31 1 18 17 12c6-2 7-4 7-20 0-19-1-22-13-23zm34 2c-4 2-4 4-4 21 0 22-2 20 25 21 27 0 25 2 25-17q0-20-3-23c-4-3-37-4-43-2m64 1c-7 1-7 2-7 21 0 22 0 23 22 22 20 0 22-2 22-25 0-15 0-15-2-16-3-2-29-3-35-2m-318 8-33 2c-4 2-4 5-4 21 0 19 0 20 13 22 11 2 64 1 68-1q4-1 5-22c0-20-3-23-14-23zm143 3q-10 0-7 19c2 11 7 12 60 11q10 2 9-15c-1-15-1-15-39-15zm230 2q-9-1-8 14-1 20 15 17c8-2 10-4 11-14q2-21-18-17m34 2c-5 1-5 2-6 15-1 28 0 62 4 65 3 3 21 3 25-1l2-3v-25l2-41q0-5-3-8c-3-2-19-3-24-2m-336 9c-12 0-12-1-12 31 1 30 0 29 7 31l29 2h26l2-2 3-2v-23c0-37 1-36-24-37zm385 11c-12 1-12 1-13 12-1 12 0 40 1 44 2 5 7 6 31 6s28-1 28-10l-1-24c0-30 1-27-19-28zm65 1-6 2c-3 2-4 20-2 44 1 15 1 15 14 16 14 0 15-1 16-30 0-23 0-29-4-30-3-2-12-3-18-2m35 3c-2 2-2 4-2 24l-2 29c-1 17 0 18 22 18l21 2c7 0 7 0 9-3 4-4 5-25 4-52-1-19 1-18-22-19-26-1-27-1-30 1m69 0-4 2c-3 3-4 27-2 38l3 3c3 2 51 2 54 1q3-1 3-24c0-19 0-19-16-19-16-1-35-2-38-1m71 3c-6 2-6 5-6 26 0 20 2 36 5 39 2 3 25 6 30 5l3-1v-30c0-33 0-35-6-38-4-2-21-2-26-1m-554 11q-5 1-5 16c0 18 1 20 20 20 15 0 15-1 16-17 0-15 0-16-4-18-3-1-24-2-27-1m61 0c-18 1-18 1-18 15l-1 15v25c0 29-2 26 26 27 25 1 28 1 29-3 3-6 0-73-3-76q-2-4-33-3m49 1-2 3-1 14q0 57 3 62c3 2 8 2 26 1 26-2 29-3 30-7l3-30-2-16c-1-18-2-22-4-24q-2-4-32-5h-18zm98-1c-34 1-32 0-32 18 0 25-3 23 44 25 31 0 30 1 30-24-1-20 0-20-42-19M62 206l-5 3c-3 2-3 0-3 43 0 33-1 33 20 33 17 0 18-1 18-17l-1-28c-1-29-2-32-8-33s-18-2-21-1m-57 2c-2 2-2 3-2 38v35l2 3c5 4 30 3 36-2l3-2v-54c0-18-2-20-24-20-12 0-13 0-15 2m675 27c-21 1-23 2-22 19l2 19c1 22 1 22 19 22l25 1c15 1 18 1 19-5l-2-29-1-11q2-13-3-15c-3-1-19-2-37-1m-569 5q-7 0-9 5a224 224 0 0 0 1 47q-1 6 12 6c15 0 15-1 15-30 0-21-1-25-4-27-2-1-11-2-15-1m32 2-3 3-1 21c-1 28-1 28 3 31 3 3 20 3 22 0 5-4 6-49 2-54-3-4-18-5-23-1m38-1c-1 2-2 3-2 15 0 20 0 20 17 21 19 0 20-1 18-21 0-12-1-12-4-14-4-3-26-3-29-1m187 6q-8 1-8 13 0 9 3 10c8 6 64 5 69-1s1-19-6-20c-9-2-51-3-58-2m85 2-8 2q-4 5-1 29l2 20q0 13 5 16l39 2c8 0 9-3 9-24q0-36-5-43l-2-2zm64 0c-9 2-9 2-9 21 1 22 2 23 18 24 18 1 18 0 17-23 0-23 0-22-15-23zm39 2c-5 4-5 35 1 41 4 4 22 3 25-2 2-3 2-33 0-36-3-5-20-7-26-3m42 12q-5 0-6 15c0 17 0 17 28 17 29 0 30 0 30-13 0-16-3-19-16-20-27-1-33-1-36 1m-260 21c-4 2-4 4-3 18v19l1 10c1 2 7 5 8 4 4-1 31-1 36 1 9 2 12-4 11-28-1-18-2-21-6-23s-43-2-47-1m69 0c-6 2-6 5-7 27v20l2 1q1 3 16 2c20-1 20-1 19-26-1-21-3-23-19-24zm-104 2q-5 0-8 3l-3 3v14c0 26 1 27 19 28h12l2-3c3-5 2-40-2-43q-4-3-20-2m-113 1q-13 1-12 6c-1 12 0 32 1 50 1 31-2 28 29 29l53 1 19 1 2-2 3-3-1-21-1-48-1-5c-1-8-1-8-40-8zm-134 9a32 32 0 0 0-2 25c0 11 1 11 20 11 19-1 20-1 19-19-1-19-1-19-21-19-13 0-14 0-16 2m457 7c-4 1-5 5-4 34 0 29 0 31 4 33 3 2 39 4 79 4 24 1 22 4 22-32 0-41 2-38-29-39zm116 2c-6 3-8 19-3 25 2 3 5 4 32 4 20 0 21-1 24-3l3-2-1-7-1-13c0-6-3-6-28-6q-24 0-26 2m68 0c-3 2-3 4-3 24q2 42 7 46c4 3 18 3 22 1l2-2v-39c1-13-1-28-5-29-4-2-21-2-23-1m-587 4c-7 2-8 5-7 28 0 26 1 31 6 33 5 3 52 1 56-1 4-3 4-9 3-30v-19q0-8-6-11zm339 19-2 3-1 40c0 37 0 40 2 42s1 2 26 1c23 0 22 0 24-4 3-7 1-75-1-80-3-3-9-4-27-4-17 0-18 0-21 2M62 341c-8 0-8 2-7 24l2 30 1 19 3 3c3 3 3 3 15 3 13 0 16-1 18-7 2-8 0-62-3-67-2-4-15-7-29-5m347 1c-11 2-11 3-11 48 0 26-1 26 18 26 22 1 21 3 21-31v-32q0-10-7-10-10-2-21-1m-47 1c-27 1-25-3-27 46-1 29-2 28 33 28h18l2-3c1-3 2-11 1-62 0-4-4-10-7-10zm-65 1c-3 3-3 6-3 17 1 14 3 15 16 15 15 0 17-2 17-18 0-14 0-14-16-15zm330 0c-6 5-4 28 2 30 9 3 49 4 54 2 6-4 5-28-1-31-3-2-53-3-55-1m-471 37q-11 0-10 11l-1 11c-2 43-2 44 12 45 11 1 47 0 49-1q4-3 4-37c0-31 1-29-28-29zm-47 2q-4 2-3 6l-1 13c-2 15 1 42 3 43l20 2c7-2 8-3 8-35 0-29 0-28-9-29l-10-1q-5-2-8 1m410-1c-6 1-6 1-8 6-4 9-3 59 2 64 2 2 3 2 31 2s26 3 25-38c-1-27-3-32-11-34zm-296 4-3 2v28c1 35-1 32 21 32 15 0 17 0 19-2l3-2-1-27-1-29c-2-4-6-5-22-5h-14zm57-2c-7 1-8 4-8 30l1 35c1 17 0 16 25 17 30 0 29 2 28-23v-34c-1-25 1-24-21-24l-18-1zm302 0q-6 1-4 16l2 57 1 27c0 10 3 12 17 13 10 0 11 0 13-2l3-3V388l-3-2c-3-3-24-4-29-2m46 0c-4 2-4 5-4 29 0 36 2 46 10 45l14-2q24 1 19-14v-28l-1-23-3-3q-3-4-10-3l-15-1zm63 2c-15 1-15 1-15 13l1 16c0 15 4 17 24 15h14c10 0 11-1 11-22 1-23 1-23-35-22m-223 37q-23 1-21 6c-1 5-2 18-1 26 1 13 1 13 27 13h21l3-3q6-6 3-30c-1-13-2-14-32-12m-69 3-18 4c-2 3-4 25-2 32q0 5 17 5h24c18 1 17 3 17-19 0-23 0-22-17-23zm-56 1c-7 1-8 4-8 22 0 15 2 17 19 17 15 1 14 1 15-16 0-15-1-19-5-22-3-1-15-2-21-1m350 11c-11 0-11 1-14 3l-2 3v23c1 34 0 33 29 33 24 0 22 2 22-19 0-29-1-39-4-41-2-2-15-3-31-2m-465 19-30 1c-27 0-28 0-27 17 1 14 2 14 42 14q42 0 47-2 4-3 4-17-1-13-5-12c-5-1-23-2-31-1m428 8-14 1c-15 1-15 1-16 10q-4 21 12 22 26 3 30-4c1-4 0-24-2-26-1-2-9-4-10-3"
        mask="url(#16282281824-posters-1720560213431-vertical-mask)" itemprop="medium" fill-opacity="0.90"
        fill-rule="evenodd" stroke="none" fill="url(#16282281824-posters-1720560213431-vertical-medium)"></path>
      <!---->
      <path id="16282281824-posters-1720560213431-bold"
        d="M0 147v148h19c25 0 23-2 24 24 1 14-3 15-36 12H0v4c0 5 0 5 21 5 24 0 25 1 25 22l1 24 2 20q1 8-4 12c-2 1-28 2-39 0H0v4q0 6 2 5c7 0 9 4 9 23 1 22-1 28-8 30-4 0-5 9-1 9 5 0 11 11 9 16q-1 6 5 7h5l-1-38 1-41q1-6 14-5l40-1c19-1 22 2 23 32l1 33 1 20h9v-9l-1-24q-3-22 3-21l4-1h17l11 1c16 0 19 3 18 20l-1 9 1 13v12h5q4 1 4-2v-3c1-10 2-10 30-9h38c23-1 27 0 27 10v4h4q4 1 4-2v-16c0-13 1-14 3-16l2-2h87l3 2c2 3 3 4 3 19v15h9l-1-8c-2-30-3-28 28-28 33 0 32-1 32 23v13h8v-29l3-3 3-3 18-1c26-2 29-1 29 12l1 14v10h8v-22c0-20 1-23 2-24 4-4 43-6 53-3 7 3 7 2 9 37v12h4l4-1c0-5 5-6 38-5 42 0 47 1 49 4s10 3 13 0c2-2 8-3 26-2l38 1h24v-8l-13 1h-13l-3-2c-2-3-2-3-3-21v-20l-2-20v-18l2-3a49 49 0 0 1 32-2v-11l-3 2c-4 1-19 1-24-1-6-2-6-4-6-21 0-18 0-19 11-19l18-1 4 1v-7l-12-1c-22 0-25-3-24-18q2-15 6-17c3-1 25 0 27 1q4 3 3-5 0-6-1-4a57 57 0 0 1-28-1c-5-1-7-7-8-29v-20l3-2c3-2 4-2 17-2 18 0 17-1 17 18l1-132-1-123v24h-3l-10-1c-17-2-17-1-17-27V0h-8v20c0 24 0 23-8 25a96 96 0 0 1-32 0c-8 0-8-2-8-27l-1-18q-2 0-2 3l-2 6c-2 3-2 5-2 17v15l-3 2c-2 2-3 2-19 2-18-1-23-2-24-6a106 106 0 0 1-3-30V0h-8v39c1 48 3 43-23 43h-19l-2-3c-4-5-5-14-5-46l1-31q3-2-4-2h-5v25l-3 2-3 3h-23c-21 0-22 0-24-2q-6-6-5-22l1-6h-5q-4 0-3 1v12c0 16-1 17-17 16l-19-1-6-3-3-2V11l1-11h-8v11q-1 11-3 13l-2 3h-10l-12-1-4-2q-5-2-5-15V0h-8v7q-1 14-6 15l-4 1q-6 2-12-4c-2-2-2-3-2-11l1-8h-8l-1 9c-3 14-2 13-22 12h-25c-15 0-18-2-18-14V0H136v3c0 9-9 11-38 8-11-1-13-2-15-8-1-5-9-4-10 0-1 7-1 7-27 7C14 10 7 9 5 3L2 0C0 0 0 7 0 147m0 1 1 128 1-20v13c1 17 1 18 15 18q18 0 25-5l3-2v-28c0-36 0-40-4-43l-3-3H5l-2 3c-1 2-2-2-2-103C1 4 0 5 0 148M150 9l-4 3 2 33 1 10q-1 19 13 16h41c46-1 42 2 42-29 0-35 3-33-38-33l-42-2q-13-1-15 2m121 1-8 1q-10 0-8 30l1 20 1 7 4 2 15 1c20-1 20-2 20-30l-2-27q-3-7-23-4M11 18c-7 1-7 2-7 24-1 29-2 28 24 28s25 1 25-25c-1-23-1-23-6-25s-28-3-36-2m76 1h-7q-14 0-16 4c-2 7-3 11-3 21 0 21 2 25 13 27l9 1 27 1c30 0 29 0 29-13 1-15-1-34-3-37l-2-3h-20zm224 11c-6 2-7 4-7 21l1 15 3 2c3 2 23 4 28 2 4-2 5-4 6-17 1-17 0-20-8-22-6-1-19-2-23-1m52 1c-9 1-10 3-13 19 0 5 2 15 4 18q2 3 10 3l24 4q4 0 7-3V38q-2-7-12-6l-11-1zm45 5c-3 3-3 33 0 38l9 4h29l92 2c24 1 27 0 26-12-1-7-2-15-1-16v-2l-1-5c1-9-5-10-35-9-27 2-73 1-94-1q-21-3-25 1m226 18c-5 2-5 2-5 30s0 27 7 30q3 2 22 2h19l2-3q2-1 3-19c1-36 0-40-10-40l-7-1c-16-1-29-1-31 1m64 1q-5 0-6 17c-1 20 1 21 39 22h38V75l-1-20zM9 80c-5 3-5 4-5 30 0 27 0 30 7 31 7 2 73 0 76-2q8-3 5-27l-2-18c0-12-5-14-42-14l-26-1q-12-2-13 1m183-1c-17 1-20 4-19 16l2 21c0 25 1 26 20 27l28 1h15l4-2 3-3v-25l-2-25c-1-8-4-9-23-9l-17-1zm95 0-14 1c-19 1-18 0-18 23 0 25-1 25 18 25l29 2c41 2 39 2 40-26 0-26 5-23-45-25zm69 3c-4 2-4 3-4 13l-1 10v10q0 15 5 16c3 1 31 2 34 1 6-2 7-3 8-12 3-17 1-34-4-34l-4-1-30-5zm-248 0c-7 2-7 4-6 22l-1 37q0 12 6 14c5 1 53 2 55 0 3-2 5-11 5-18l-2-15q-1-36-6-39c-3-2-43-2-51-1m305 5c-4 1-5 4-6 21v23q-2 6 1 10c2 4 1 4 32 7l21 2c11 1 13-2 13-20l1-23q2-17-4-18c-3-2-52-3-58-2m77 1c-5 2-6 4-6 16v58q1 6 13 6 18 1 23-2 5-6 3-21l-1-27V94l-3-3-3-3-12-1zm51 1c-11 1-11 2-11 42l2 33q-1 5 16 6 19 3 16-14v-34c2-33 0-35-23-33m38 1c-6 1-7 3-7 19q1 18-1 41-1 12 5 18c2 2 2 2 21 2 21 0 21 0 23-3 1-2 2-38 0-48v-14c-1-11-1-13-8-15zm114 13c-4 4-4 13-4 43 1 26 2 27 13 27 9 0 10-2 11-23l1-30v-15l-2-2c-4-4-15-4-19 0m38-2c-7 1-8 8-10 47 0 20 0 23 6 26l5 1h13c20-1 23-3 23-10 0-64 1-61-3-63-3-1-30-2-34-1m-94 23c-8 1-8 2-8 21 1 26 4 28 29 27 24 0 25-1 24-19-2-29-2-29-25-29zm-380 17c-3 3-3 31 0 37 3 8 18 8 22 1 3-4 3-29 0-35-4-7-17-9-22-3m36 1-3 3v16c1 23-1 22 29 23h19l2-3c4-5 3-33-2-38l-2-2-20-1h-21zm68-1c-11 1-11 3-10 37 0 5 15 10 22 9l9-2c13-1 13-2 14-22 2-22 2-22-19-22zm-337 9c-21 1-21 1-21 22 0 26-2 25 53 24 36 0 34 1 34-24v-17l-3-3-3-3H61zm154 5c-5 5-3 22 3 26 4 3 9 3 42 3h18l3-3c5-6 4-23-2-26-4-2-6-2-34-3h-27zm235 0c-7 1-7 2-7 15v11l4 3c5 5 18 3 21-4 4-6 2-20-2-24-2-1-14-2-16-1m35 2-5 1c-2 0-3 31-1 60 1 22 1 22 16 21h10l3-3 3-3v-14l1-34c2-27 1-28-17-29q-6-1-10 1m-327 8h-8q-10 0-12 3c-2 3-1 56 1 58 3 3 7 4 35 4 26 0 26 0 28-2l3-2v-26c-1-35 0-34-24-34zm384 11-9 1c-13 1-12-1-12 29 0 35-3 33 32 33h23l3-3q4-3 3-8l-1-25c0-20 0-21-2-23l-3-3h-14zm52 2c-4 2-5 4-4 30 0 32 0 32 15 33s16-3 16-36c1-23 0-24-4-26s-19-3-23-1m40 2c-2 3-2 3-3 21l-1 25v22c2 4 6 5 26 5l20 2q7 0 9-9l1-4 1-28c0-35 1-34-20-34l-21-2c-9 0-10 0-12 2m65 1c-7 5-5 42 2 44l4 1c4 1 46 1 49-1q3-2 4-25 1-16-5-18c-4-2-51-3-54-1m73 3c-6 2-7 25-3 55 2 13 3 13 22 15 17 1 15 5 15-31 0-35 0-35-6-38-4-2-23-3-28-1m-438 10c-8 2-8 5-7 39 0 43 0 43 10 44h9l17-1 14-2q5 1 9-3c2-2 4-28 3-34l-2-17c0-17-1-21-6-23-6-3-39-5-47-3m-115 1c-4 2-4 3-4 17-1 18 0 19 19 19 17 0 17 0 17-20 1-16 0-16-17-17zm53 0c-8 0-9 2-10 14l-1 14c-1 8 0 48 2 51s6 4 28 4c31 1 28 4 27-38 0-33-1-40-4-43-2-3-23-3-42-2m140 0c-18 1-17 0-17 20 1 15 2 19 6 21l51 2c18 1 19-1 18-24 0-12 0-13-3-16l-3-3zM61 205c-8 3-8 2-8 40-1 40-1 39 19 40 22 0 22 1 20-36l-2-24c0-18 0-18-13-19l-9-1zm634 29-16 1c-21 0-21 1-21 18l1 28c2 15 1 15 27 15h21l13 1q6-3 2-30l-1-17q3-16-11-15l-11-2zm-587 6q-9 3-8 11l1 21c1 25 2 27 14 27q12 0 14-5l1-25c0-28 0-27-8-29s-9-2-14 0m39 0q-8 4-8 12l-1 26v17l2 2c4 3 22 4 25 0 2-1 4-13 4-17v-18c-1-19-1-21-7-23q-9-2-15 1m36 0c-4 2-5 5-5 19v13l3 2c3 3 4 3 16 3 19 0 20-1 18-21-1-15-2-16-18-16zm181 8q-5 1-4 13c0 11 1 12 21 13q48 2 53-6 3-14-6-19c-7-3-60-4-64-1m89 0c-9 1-10 2-10 18l3 39c2 13 1 13 30 14h18l2-3c5-5 5-16 3-46-2-22-3-23-25-23zm64 0-4 1c-6 0-8 17-3 40q-1 6 22 5c13 0 13 0 12-22 0-20 0-21-6-24-4-1-19-2-21 0m41 1c-5 2-6 6-6 23 1 12 1 15 3 18q3 5 9 5h5q4 2 8-1c7-3 8-5 7-23 0-21 0-21-16-22zm38 14c-3 3-3 3-4 15 0 18 0 18 29 18 30 0 31-1 29-20-1-14-3-15-31-15-20 0-21 0-23 2m-258 21c-4 1-5 4-3 33v15l3 2c3 2 5 2 21 2h22q5 2 6-1 6-8 4-20v-17c-1-8-1-9-3-12l-3-2-23-1zm69 0c-6 1-7 5-7 29-1 23-2 21 18 21 20-1 20-1 20-22-1-24-3-27-13-28zm-102 1-5 1q-12-2-8 34c1 13 2 14 18 14 18 1 17 1 17-22 0-21-1-24-7-26-4-2-12-2-15-1m-123 2c-5 1-5 3-5 41 1 39 1 39 8 43q3 3 8 1h10l31 1 34 1q13 1 16-3v-71c-1-15 2-14-54-14zm-127 9-3 3v12c1 21 2 22 20 22 20 0 22-1 21-19 0-20-1-21-21-21H58zm457 7c-3 3-4 11-4 33-1 26 0 31 4 34s9 3 66 5h18q15 1 18-3c1-2 0-62-1-64-2-4-6-5-34-6-55-1-64-1-67 1m116 1c-5 2-7 22-2 27 2 2 3 3 13 3h20q27 2 26-9c0-23 1-22-30-22zm67 2c-4 5 0 64 5 69 3 3 16 4 21 2s5-4 4-24l1-21c1-4-1-22-3-25-3-3-3-3-15-3-10 0-11 0-13 2m-583 2-4 1c-6 0-7 9-5 40 1 22 3 25 19 24l24-2 19-1q7-3 4-25l-1-21c0-17 0-17-31-17zm336 20c-3 4-4 81-1 85l2 3h9l25-1c17 1 17 0 17-30q0-52-4-56l-2-2-22-1h-22zM60 341c-6 1-6 2-5 26l2 33c0 20 1 20 20 20 18 0 19-1 18-27 0-38-1-45-5-49l-3-3-12-1zm319 1-19 1c-25 0-24-2-25 38v30l3 3 3 3h14l21 1c15 0 14 1 14-38v-31l-3-4q-4-5-8-3m25 0c-6 1-6 2-7 36 0 41-2 39 22 39 19 0 18 2 18-29l1-30q2-11-6-16zm-106 1q-6 0-4 15c0 17 2 19 18 18 15 0 15-1 15-17l-1-14c-2-2-22-3-28-2m330 0q-6 0-5 16c1 17 0 17 34 18 32 0 30 1 30-15q1-18-5-19zm-516 38a7 7 0 0 0-7 6v7l-1 15v17l2 12q-1 10 14 10 14 0 15-5c1-4 2-46 1-52-1-8-1-8-10-9l-10-1zm41 0q-7 0-7 10l-1 6-1 33c0 17 1 18 12 19 16 1 51 0 52-3q3-7 2-38c0-24-1-25-7-27zm360 3c-3 3-4 4-4 15l-2 13c0 7 3 36 5 39 1 3 10 5 16 4l21-1c21 0 21 0 21-16l-1-16v-5l1-7-2-12c-2-16-3-17-32-17h-21zm-290 0-3 3v29c0 36-2 33 21 33 16 0 17-1 19-3q4-5 4-21l-2-21c0-22 1-21-21-22h-15zm365-1c-11 1-11-1-10 38l2 55c1 18 2 20 12 21q19 3 22-5c2-4 2-35 1-49l-1-21c0-35 0-34-3-37l-6-2zm-311 1c-5 2-5 3-5 39 0 41 0 41 8 42 12 2 39 2 42 1 5-3 5 0 5-52-1-25-1-26-5-28s-41-3-45-2m349 1-2 2-1 24c0 23 0 32 3 41q3 6 8 7l7-2c22-1 21-1 24-4l3-2v-30l-1-30-4-4c-3-3-4-3-12-3l-15-1q-9 0-10 2m74 0-12 1c-13 0-13 0-12 22 2 25 0 23 28 23l20-2q3-3 3-23c0-14 0-15-2-17-3-4-17-6-25-4m-218 36-12 1c-21 2-24 2-24 9l-1 8c-2 5 1 23 3 27 2 2 3 2 24 2 30 0 29 0 29-22 0-17-1-21-7-23-4-2-11-3-12-2m-86 5c-17 2-18 3-18 22-1 21-2 20 31 20 27 0 27 0 28-5s0-33-1-35q-7-6-40-2m-56 1c-4 1-5 3-5 18 0 20 1 22 17 23s18-2 18-20c0-19-3-22-19-22zm365 10-12 1c-17 0-17 1-17 28 1 31 2 32 14 34h34c4-1 6-7 5-10l-1-25c-1-27 0-26-10-27l-9-2zm-478 19-27 1c-30 1-30 1-30 15 1 17 3 18 41 18 53 0 54 0 53-17q1-15-5-16c-4-1-21-2-32-1m410 10c-10 1-11 1-11 5l-2 8c0 4 2 15 4 16 4 4 33 6 37 3q6-5 5-11l-1-11c-1-13-5-14-32-10"
        mask="url(#16282281824-posters-1720560213431-horizontal-mask)" itemprop="bold" fill-opacity="0.90"
        fill-rule="evenodd" stroke="none" fill="url(#16282281824-posters-1720560213431-vertical-bold)"></path>
    </pattern>
    <rect id="16282281824-posters-1720560213431-pattern-render" fill="url(#16282281824-posters-1720560213431-pattern)"
      width="100%" height="100%"></rect>
  </defs>
  <radialGradient id="lightbar" cx="50%" cy="200%" fy="0" r="201%">
    <stop offset="0%" style="stop-color: rgb(255, 255, 255); stop-opacity: 0.1;"></stop>
    <stop offset="10%" style="stop-color: rgb(0, 0, 0); stop-opacity: 0.1;"></stop>
    <stop offset="30%" style="stop-color: rgb(0, 0, 0); stop-opacity: 0.3;"></stop>
    <stop offset="90%" style="stop-color: rgb(0, 0, 0); stop-opacity: 0.55;"></stop>
    <stop offset="100%" style="stop-color: rgb(0, 0, 0); stop-opacity: 0.6;"></stop>
  </radialGradient>
  <g class="radial">
    <radialGradient id="16282281824-posters-1720560213431-radial" gradientUnits="userSpaceOnUse">
      <stop itemprop="radial" stop-color="#b5b3b0" offset="0%"></stop>
      <stop itemprop="radial" stop-color="#aaa9a7" offset="15%"></stop>
      <stop itemprop="radial" stop-color="#aaa9a7" offset="30%"></stop>
      <stop itemprop="radial" stop-color="#a8a6a4" offset="45%"></stop>
      <stop itemprop="radial" stop-color="#adaba9" offset="60%"></stop>
      <stop itemprop="radial" stop-color="#a3a19f" offset="75%"></stop>
      <stop itemprop="radial" stop-color="#b7b5b4" offset="90%"></stop>
    </radialGradient>
    <radialGradient id="16282281824-posters-1720560213431-radial-background" gradientUnits="userSpaceOnUse">
      <stop stop-color="#d3cec5" offset="0%"></stop>
      <stop stop-color="#d3cec5" offset="15%"></stop>
      <stop stop-color="#d3cec5" offset="30%"></stop>
      <stop stop-color="#d3cec5" offset="45%"></stop>
      <stop stop-color="#d3cec5" offset="60%"></stop>
      <stop stop-color="#d3cec5" offset="75%"></stop>
      <stop stop-color="#d3cdc5" offset="90%"></stop>
    </radialGradient>
    <radialGradient id="16282281824-posters-1720560213431-radial-light" gradientUnits="userSpaceOnUse">
      <stop stop-color="#9c9a96" offset="0%"></stop>
      <stop stop-color="#9b9997" offset="15%"></stop>
      <stop stop-color="#9b9997" offset="30%"></stop>
      <stop stop-color="#9b9a97" offset="45%"></stop>
      <stop stop-color="#9b9997" offset="60%"></stop>
      <stop stop-color="#9b9997" offset="75%"></stop>
      <stop stop-color="#9b9997" offset="90%"></stop>
    </radialGradient>
    <radialGradient id="16282281824-posters-1720560213431-radial-regular" gradientUnits="userSpaceOnUse">
      <stop stop-color="#83817c" offset="0%"></stop>
      <stop stop-color="#82807d" offset="15%"></stop>
      <stop stop-color="#82807d" offset="30%"></stop>
      <stop stop-color="#82807d" offset="45%"></stop>
      <stop stop-color="#82807d" offset="60%"></stop>
      <stop stop-color="#82807d" offset="75%"></stop>
      <stop stop-color="#82807d" offset="90%"></stop>
    </radialGradient>
    <radialGradient id="16282281824-posters-1720560213431-radial-medium" gradientUnits="userSpaceOnUse">
      <stop stop-color="#51504d" offset="0%"></stop>
      <stop stop-color="#514f4d" offset="15%"></stop>
      <stop stop-color="#514f4d" offset="30%"></stop>
      <stop stop-color="#514f4d" offset="45%"></stop>
      <stop stop-color="#514f4d" offset="60%"></stop>
      <stop stop-color="#514f4d" offset="75%"></stop>
      <stop stop-color="#514f4d" offset="90%"></stop>
    </radialGradient>
    <radialGradient id="16282281824-posters-1720560213431-radial-bold" gradientUnits="userSpaceOnUse">
      <stop stop-color="#2f2e2d" offset="0%"></stop>
      <stop stop-color="#2f2e2d" offset="15%"></stop>
      <stop stop-color="#2f2e2d" offset="30%"></stop>
      <stop stop-color="#2f2e2d" offset="45%"></stop>
      <stop stop-color="#2f2e2d" offset="60%"></stop>
      <stop stop-color="#2f2e2d" offset="75%"></stop>
      <stop stop-color="#2f2e2d" offset="90%"></stop>
    </radialGradient>
  </g>
  <g class="vertical">
    <linearGradient id="16282281824-posters-1720560213431-vertical" gradientUnits="userSpaceOnUse" x1="0" x2="0" y1="0"
      y2="100%">
      <stop itemprop="vertical" stop-color="#b5b3b0" offset="0%"></stop>
      <stop itemprop="vertical" stop-color="#aaa9a7" offset="15%"></stop>
      <stop itemprop="vertical" stop-color="#aaa9a7" offset="30%"></stop>
      <stop itemprop="vertical" stop-color="#a8a6a4" offset="45%"></stop>
      <stop itemprop="vertical" stop-color="#adaba9" offset="60%"></stop>
      <stop itemprop="vertical" stop-color="#a3a19f" offset="75%"></stop>
      <stop itemprop="vertical" stop-color="#b7b5b4" offset="90%"></stop>
    </linearGradient>
    <linearGradient id="16282281824-posters-1720560213431-vertical-background" gradientUnits="userSpaceOnUse" x1="0"
      x2="0" y1="0" y2="100%">
      <stop stop-color="#cecdca" offset="0%"></stop>
      <stop stop-color="#cdcccb" offset="15%"></stop>
      <stop stop-color="#cdcccb" offset="30%"></stop>
      <stop stop-color="#cdcccb" offset="45%"></stop>
      <stop stop-color="#cdcccb" offset="60%"></stop>
      <stop stop-color="#cdcccb" offset="75%"></stop>
      <stop stop-color="#cdcccb" offset="90%"></stop>
    </linearGradient>
    <linearGradient id="16282281824-posters-1720560213431-vertical-light" gradientUnits="userSpaceOnUse" x1="0" x2="0"
      y1="0" y2="100%">
      <stop stop-color="#aea084" offset="0%"></stop>
      <stop stop-color="#ae9e84" offset="15%"></stop>
      <stop stop-color="#ae9e84" offset="30%"></stop>
      <stop stop-color="#ae9f84" offset="45%"></stop>
      <stop stop-color="#ae9e84" offset="60%"></stop>
      <stop stop-color="#ae9e84" offset="75%"></stop>
      <stop stop-color="#ae9b84" offset="90%"></stop>
    </linearGradient>
    <linearGradient id="16282281824-posters-1720560213431-vertical-regular" gradientUnits="userSpaceOnUse" x1="0" x2="0"
      y1="0" y2="100%">
      <stop stop-color="#83817c" offset="0%"></stop>
      <stop stop-color="#82807d" offset="15%"></stop>
      <stop stop-color="#82807d" offset="30%"></stop>
      <stop stop-color="#82807d" offset="45%"></stop>
      <stop stop-color="#82807d" offset="60%"></stop>
      <stop stop-color="#82807d" offset="75%"></stop>
      <stop stop-color="#82807d" offset="90%"></stop>
    </linearGradient>
    <linearGradient id="16282281824-posters-1720560213431-vertical-medium" gradientUnits="userSpaceOnUse" x1="0" x2="0"
      y1="0" y2="100%">
      <stop stop-color="#51504d" offset="0%"></stop>
      <stop stop-color="#514f4d" offset="15%"></stop>
      <stop stop-color="#514f4d" offset="30%"></stop>
      <stop stop-color="#514f4d" offset="45%"></stop>
      <stop stop-color="#514f4d" offset="60%"></stop>
      <stop stop-color="#514f4d" offset="75%"></stop>
      <stop stop-color="#514f4d" offset="90%"></stop>
    </linearGradient>
    <linearGradient id="16282281824-posters-1720560213431-vertical-bold" x1="0" x2="0" y1="0" y2="100%">
      <stop stop-color="#2f2e2d" offset="0%"></stop>
      <stop stop-color="#2f2e2d" offset="15%"></stop>
      <stop stop-color="#2f2e2d" offset="30%"></stop>
      <stop stop-color="#2f2e2d" offset="45%"></stop>
      <stop stop-color="#2f2e2d" offset="60%"></stop>
      <stop stop-color="#2f2e2d" offset="75%"></stop>
      <stop stop-color="#2f2e2d" offset="90%"></stop>
    </linearGradient>
  </g>
  <g class="horizontal">
    <linearGradient id="16282281824-posters-1720560213431-horizontal" x1="0" x2="100%" y1="0" y2="0"
      gradientUnits="userSpaceOnUse">
      <stop itemprop="horizontal" stop-color="#adaba9" offset="0%"></stop>
      <stop itemprop="horizontal" stop-color="#afaeac" offset="15%"></stop>
      <stop itemprop="horizontal" stop-color="#aba9a6" offset="30%"></stop>
      <stop itemprop="horizontal" stop-color="#a5a4a1" offset="45%"></stop>
      <stop itemprop="horizontal" stop-color="#b2b0ae" offset="60%"></stop>
      <stop itemprop="horizontal" stop-color="#aaa9a7" offset="75%"></stop>
      <stop itemprop="horizontal" stop-color="#b5b3b0" offset="90%"></stop>
    </linearGradient>
    <linearGradient id="16282281824-posters-1720560213431-horizontal-background" gradientUnits="userSpaceOnUse" x1="0"
      x2="100%" y1="0" y2="0">
      <stop stop-color="#cdcccb" offset="0%"></stop>
      <stop stop-color="#cdcccb" offset="15%"></stop>
      <stop stop-color="#cecdca" offset="30%"></stop>
      <stop stop-color="#cdcccb" offset="45%"></stop>
      <stop stop-color="#cdcccb" offset="60%"></stop>
      <stop stop-color="#cdcccb" offset="75%"></stop>
      <stop stop-color="#ceccca" offset="90%"></stop>
    </linearGradient>
    <linearGradient id="16282281824-posters-1720560213431-horizontal-light" gradientUnits="userSpaceOnUse" x1="0"
      x2="100%" y1="0" y2="0">
      <stop stop-color="#9b9997" offset="0%"></stop>
      <stop stop-color="#9b9a97" offset="15%"></stop>
      <stop stop-color="#9c9a96" offset="30%"></stop>
      <stop stop-color="#9b9a97" offset="45%"></stop>
      <stop stop-color="#9b9997" offset="60%"></stop>
      <stop stop-color="#9b9997" offset="75%"></stop>
      <stop stop-color="#9c9996" offset="90%"></stop>
    </linearGradient>
    <linearGradient id="16282281824-posters-1720560213431-horizontal-regular" gradientUnits="userSpaceOnUse" x1="0"
      x2="100%" y1="0" y2="0">
      <stop stop-color="#968569" offset="0%"></stop>
      <stop stop-color="#968669" offset="15%"></stop>
      <stop stop-color="#968769" offset="30%"></stop>
      <stop stop-color="#968669" offset="45%"></stop>
      <stop stop-color="#968569" offset="60%"></stop>
      <stop stop-color="#968569" offset="75%"></stop>
      <stop stop-color="#968269" offset="90%"></stop>
    </linearGradient>
    <linearGradient id="16282281824-posters-1720560213431-horizontal-medium" gradientUnits="userSpaceOnUse" x1="0"
      x2="100%" y1="0" y2="0">
      <stop stop-color="#5d5241" offset="0%"></stop>
      <stop stop-color="#5d5341" offset="15%"></stop>
      <stop stop-color="#5d5441" offset="30%"></stop>
      <stop stop-color="#5d5341" offset="45%"></stop>
      <stop stop-color="#5d5241" offset="60%"></stop>
      <stop stop-color="#5d5241" offset="75%"></stop>
      <stop stop-color="#5d5041" offset="90%"></stop>
    </linearGradient>
    <linearGradient id="16282281824-posters-1720560213431-horizontal-bold" gradientUnits="userSpaceOnUse" x1="0"
      x2="100%" y1="0" y2="0">
      <stop stop-color="#2f2e2d" offset="0%"></stop>
      <stop stop-color="#2f2e2d" offset="15%"></stop>
      <stop stop-color="#2f2e2d" offset="30%"></stop>
      <stop stop-color="#2f2e2d" offset="45%"></stop>
      <stop stop-color="#2f2e2d" offset="60%"></stop>
      <stop stop-color="#2f2e2d" offset="75%"></stop>
      <stop stop-color="#2f2e2d" offset="90%"></stop>
    </linearGradient>
  </g>
  <g class="masks">
    <mask id="16282281824-posters-1720560213431-pattern-mask" maskUnits="userSpaceOnUse"
      maskContentUnits="userSpaceOnUse">
      <pattern id="pattern" x="0" y="0" width=".0133" height=".0144" viewBox="0 0 23.07 40">
        <path
          d="M17.62 0l-6.07 10.5m2.74 4.76L8.22 4.75m-5.48 0h12.13M.01 0h23.07M6.07 20L0 9.5m2.74-4.75l-6.07 10.5m-5.48 0H3.33m8.2 4.75L0 .02-11.54 20m40.68 0L23.07 9.5m2.74-4.75l-6.06 10.5m-5.49 0H26.4M34.6 20L23.08.02 11.53 20m-5.46 0L0 30.51m2.74 4.75l-6.07-10.5m-5.48 0H3.33m8.2-4.75L0 40l-11.54-19.98zM17.6 40l-6.06-10.5m2.74-4.76L8.2 35.25m-5.48 0h12.13M0 40h23.07L11.54 20.01m17.6 0l-6.07 10.5m2.74 4.75l-6.06-10.5m-5.49 0H26.4M11.53 20h23.08L23.07 40"
          stroke-linecap="round" stroke-width="3.5" stroke="white"
          fill="url(#16282281824-posters-1720560213431-horizontal-background)"></path>
      </pattern>
      <rect width="100%" height="100%" fill="url(#pattern)"></rect>
    </mask>
    <mask id="16282281824-posters-1720560213431-horizontal-mask" maskUnits="userSpaceOnUse"
      maskContentUnits="userSpaceOnUse">
      <rect width="100%" height="100%" fill="url(#16282281824-posters-1720560213431-horizontal-background)"></rect>
    </mask>
    <mask id="16282281824-posters-1720560213431-radial-mask" maskUnits="userSpaceOnUse"
      maskContentUnits="userSpaceOnUse">
      <rect width="100%" height="100%" fill="url(#16282281824-posters-1720560213431-radial-background)"></rect>
    </mask>
    <mask id="16282281824-posters-1720560213431-vertical-mask" maskUnits="userSpaceOnUse"
      maskContentUnits="userSpaceOnUse">
      <rect width="100%" height="100%" fill="url(#16282281824-posters-1720560213431-vertical-background)"></rect>
    </mask>
  </g>
  <use href="#16282281824-posters-1720560213431-pattern-render"></use>
  <g>
    <use href="#16282281824-posters-1720560213431-background"></use>
    <use href="#16282281824-posters-1720560213431-light"></use>
    <use href="#16282281824-posters-1720560213431-regular"></use>
    <use href="#16282281824-posters-1720560213431-medium"></use>
    <use href="#16282281824-posters-1720560213431-bold"></use>
  </g>
  <g itemprop="animation">
    <animate href="#16282281824-posters-1720560213431-light" attributeName="stroke-opacity" repeatCount="indefinite"
      dur="5s" values="0.9;0.0;0.9"></animate>
    <animate href="#16282281824-posters-1720560213431-regular" attributeName="stroke-opacity" repeatCount="indefinite"
      dur="4s" values="0.9;0;0.9"></animate>
    <animate href="#16282281824-posters-1720560213431-medium" attributeName="stroke-opacity" repeatCount="indefinite"
      dur="5s" values="0.9;0;0.9"></animate>
    <animate href="#16282281824-posters-1720560213431-bold" attributeName="stroke-opacity" repeatCount="indefinite"
      dur="3s" values="0.9;0;0.9"></animate>
    <animate href="#16282281824-posters-1720560213431-regular" attributeName="fill-opacity" repeatCount="indefinite"
      dur="8s" values="0.9;0.75;0.95;0.8;0.9;"></animate>
    <animate href="#16282281824-posters-1720560213431-radial-background" attributeName="cx" repeatCount="indefinite"
      dur="34s" values="0%;33%;100%;0%;100%;0%;"></animate>
    <animate href="#16282281824-posters-1720560213431-radial-background" attributeName="cy" repeatCount="indefinite"
      dur="55s" values="0%;100%;33%;100%;66%;0%"></animate>
    <animate href="#16282281824-posters-1720560213431-vertical-light" attributeName="x1" repeatCount="indefinite"
      dur="55s" values="0%;33%;100%;0%;133%;0%;"></animate>
    <animate href="#16282281824-posters-1720560213431-vertical-light" attributeName="y1" repeatCount="indefinite"
      dur="86s" values="0%;100%;33%;100%;66%;0%"></animate>
    <animate href="#16282281824-posters-1720560213431-horizontal-regular" attributeName="x1" repeatCount="indefinite"
      dur="34s" values="0%;100%;66%;0%;33%;133%;0%"></animate>
    <animate href="#16282281824-posters-1720560213431-horizontal-regular" attributeName="y1" repeatCount="indefinite"
      dur="55s" values="0%;66%;100%;33%;100%;66%;0%"></animate>
    <animate href="#16282281824-posters-1720560213431-vertical-medium" attributeName="x1" repeatCount="indefinite"
      dur="34s" values="0%;100%;66%;0%;33%;133%;0%"></animate>
    <animate href="#16282281824-posters-1720560213431-vertical-medium" attributeName="y1" repeatCount="indefinite"
      dur="55s" values="0%;66%;100%;33%;100%;66%;0%"></animate>
    <animate href="#16282281824-posters-1720560213431-vertical-bold" attributeName="x1" repeatCount="indefinite"
      dur="34s" values="0%;100%;66%;0%;33%;133%;0%"></animate>
    <animate href="#16282281824-posters-1720560213431-vertical-bold" attributeName="y1" repeatCount="indefinite"
      dur="55s" values="0%;66%;100%;33%;100%;66%;0%"></animate>
  </g>
</svg>
