<svg id="16282281824-posters-1720560186792" itemscope="" itemtype="/posters"
  itemid="/+16282281824/posters/1720560186792" viewBox="0 0 769 512" preserveAspectRatio="xMidYMid meet" tabindex="0"
  class="animate landscape" xmlns="http://www.w3.org/2000/svg">
  <!---->
  <defs class="graphic">
    <pattern id="16282281824-posters-1720560186792-pattern" width="769" height="512" viewBox="0 0 769 512"
      patternUnits="userSpaceOnUse" preserveAspectRatio="xMidYMid meet">
      <rect itemprop="background" width="769" height="512" tabindex="-1"
        id="16282281824-posters-1720560186792-background" fill-opacity="1"
        fill="url(#16282281824-posters-1720560186792-radial-background)"></rect>
      <!---->
      <path id="16282281824-posters-1720560186792-light"
        d="M12 1 6 8c-6 6-6 7-6 13l1 6 12-13 7-9q5-5-3-5zm17 5L9 30l-9 9v6q0 8 4 2l5-4 23-26q11-13 7-6l-4 11a149 149 0 0 1-14 35q-6 7-8 13l-6 8-6 8-1 9 1 7 4-6 7-9 7-9 4-7 19-40 1-4 3-8 6-12q11-9-7-7H35zm55-3-4 5-4 5-3 6-6 9a245 245 0 0 1-28 36L22 84c-2 3 2 7 6 4 6-4 24-24 40-45l8-12 3-6 4-6 3-4 4-5 3-5q7-6-2-5-7-1-7 3m23 0-2 3c-2 0-11 15-10 15l2 2q3 2 9-3l13-19-5-1q-5-1-7 3m22-1-13 15-20 20-27 22-2 1-1 1-6 6-9 8-8 6-42 42c-1 1-2 15 0 15l5-6c5-6 6-8 24-26l25-23 8-7 7-6c11-11 25-22 27-22l19-18 4-4c2-2 17-18 20-23l2-3h-6q-6 0-7 2m22 0-14 23-25 40a797 797 0 0 1-67 64q-13 10-9 13c5 4 19-8 70-58l20-24 14-22 9-15 9-15c5-8 5-8-1-8zm21 2a131 131 0 0 0-21 28q-6 8-3 10 5 3 8-1 5-5 6-9l5-7 3-5 9-9c10-10 10-11 3-11q-6-1-10 4m39-3c0 5-14 32-24 46q-11 13-35 34-13 10-10 14 3 3 12-5l11-10 26-25 14-20 13-27c4-9 4-8-2-8zm29 5-4 6-1 1-1 3-4 8-6 13-5 12-6 12-4 10c0 4-3 12-4 14l-1 4-5 11-1 3-2 3-3 5-12 13q-9 8-10 11 1 4 5 4a112 112 0 0 0 28-28l1-2 3-7 5-12 2-3 1-5 1-6 2-5 1-2 2-4 3-10 9-19 4-11 13-19q7-7-2-6h-6zm22-3-2 4-10 18c-4 7-7 17-7 20l-1 3-1 2c0 3-4 13-7 17q-3 2-4 6l-2 4-3 5-8 10q-10 11 1 10c5-1 15-13 20-25l4-7 2-4 3-6q3-4 3-8l2-6 4-12a71 71 0 0 1 11-22l7-12h-5q-6-1-7 3m21 0-11 15q-8 10-3 11 4 1 11-9l10-11q10-10 1-9-5-1-8 3m16 4-14 19-1 2-1 2-14 21-10 14-18 21-15 16-35 34q-6 6 1 8a4 4 0 0 0 5-2c3 0 64-64 71-75l7-9 12-17 13-20 11-13c8-8 8-8 1-8h-6zm29-4-4 8-15 28-10 17-7 11-5 8c-9 10-18 22-18 25q2 8 12-3l23-31 13-24 3-6 14-24q9-13 1-12-5-1-7 3m25 0-8 8q-9 7-8 10 1 9 15-5l6-5 9-10q2-1-5-1-6-1-9 3m25-1-3 3-5 4-23 18-29 28q-6 6-4 8c1 4 9 0 16-9q8-9 26-23l14-13 6-4 10-8 7-5c0-2-13-1-15 1m16 3-3 7q0 2-3 2l-6 5q-7 9-25 24-12 10-3 10c7 0 39-29 39-36l2-2 13-13q2-2-5-2h-6zm28 0q-13 13-5 15l2 2-5 5-11 12q-13 13-14 19-1 5 3 6l11-11 3-4 13-15a173 173 0 0 1 29-24l6-5 4-3 1-1-6-1c-7 0-11 2-24 13q-3 3-1-1l8-11-5-1q-4-1-9 5m65-4-2 3-7 7q-5 6-3 7 5 7 18-10c5-8 5-8-1-8zm22 4-5 7-17 16-8 7-6 4-5 4q-12 7-4 10 6 0 14-7l2-2-16 16-30 27 8-13q6-11 0-12-2-1-11 12l-14 20-33 32c-18 17-35 38-35 45 0 5 7 4 10-1l9-14 7-7c5-7 23-25 30-31l10-9 8-9 3-2v3c-2 7 4 8 9 1q10-15 32-34l11-10 7-5 5-4 45-34 10-6q5-2 7-5l4-2 1-1h-14l-27 17-4 2-4 3q-12 9 0-4l12-15q4-3-2-4-4-1-9 5m64 4-9 8-8 9q1 3 4 4c3 0 33-26 33-29l-6-1h-5zm55-5-3 4-7 8-22 28q-7 8 0 9 2 1 8-6l18-23 5-6 14-17-5-1c-6 0-6 0-8 4m39 3-10 12-13 13a434 434 0 0 0-53 57l-4 5-3 4c-5 4-9 12-7 14 3 3 5 2 14-10l17-19 10-11c3-5 12-14 19-20l36-37c15-16 15-15 7-15-5 0-6 0-13 7m34-4-4 5c-5 6-8 15-5 16q5 4 12-9l8-11q5-4-3-4-6-1-8 3m59 0-16 13-19 15-18 15-31 34-1 1-5 6q-10 11-7 13 4 5 10-3l5-6 14-17c3-4 25-27 27-27l1-1 22-18 13-11 5-4c2 0 9-8 9-11s-7-3-9 1M588 21l-5 5-14 20-7 7-11 9-11 9q-14 10-8 11c6 1 9-1 17-8l7-5 30-30 3-4 3-5c3-3 5-11 2-12q-2-2-6 3m116 7-16 15a261 261 0 0 0-47 51l-8 12c-4 8-4 7-23 30l-9 12-16 20c-6 8-7 9-36 38q-19 18-8 18c4 0 39-35 50-49l4-4 14-19 5-5 4-6 5-7c6-6 14-17 16-21q4-9 13-18l7-9 8-9 11-12 14-13c28-27 31-31 28-34q-3-5-16 10m62 5-4 5c-2 2-1 7 2 7q6 1 5-9v-6zm-318-1q-1-1-15 18a83 83 0 0 1-31 27l-8 5-13 8-6 3-11 7a223 223 0 0 0-39 40l-1 1-5 8-5 7-8 11-3 6-1 1c-3 0 0 5 3 5q6 0 12-11l6-10 4-5c0-5 31-38 43-47q9-6-1 5-13 15-21 28-19 35-17 36l-2 3-7 11-12 18-7 9-13 14c-14 14-16 17-9 18l8-4 21-23 16-22c2-1 10-17 9-19l2-4q4-3 9-14l6-12 14-23 16-17q9-9 6-12t12-10l9-6c9 0 44-38 44-47a3 3 0 0 0-5-3m70 0c-7 3-40 36-46 47a256 256 0 0 1-71 75l-9 5-2 1q-5 3-2 8 3 2 10-2l19-14 5-5c9-6 10-7 16-13l16-16 8-10 7-9 1-1a126 126 0 0 1 19-28c4-6 21-21 32-30q5-5 1-8zm108 1q-5 3-17 16l-15 14-21 23-18 26-3 5-3 6-4 6-7 12a430 430 0 0 1-46 79l-5 9c0 5 7 3 10-2q0-4 4-6l25-39 20-37 7-12 6-10 7-12 4-6 15-20 3-4 4-4 23-21 13-14q8-7 3-10-2-1-5 1m-453 4-6 6q-5 8-22 25c-30 29-39 38-42 47l-1 2-1 2-3 5-8 12-8 12-5 7c-3 6-11 16-31 38q-5 7-2 10c2 1 9-3 11-6l9-11 9-12 12-16 5-6 4-7 11-16 8-14c9-13 11-15 23-26 14-14 40-40 43-45q3-4 0-7-2-4-6 0m204 7-14 16-5 7-19 30-11 15-6 7-20 21c-17 17-19 21-15 23 3 2 3 1 9-5l19-18 17-19 17-23 2-3 5-8 13-20 4-4 11-12c7-8 7-8 6-10q-3-7-13 3m209 12-4 3-14 13-24 23q-6 6-5 9c3 2 5 1 15-9l15-13c10-9 23-23 22-26zm181 2a123 123 0 0 1-40 34l-8 4-25 18a181 181 0 0 0-40 37q-18 21-16 27 5 5 17-13a221 221 0 0 1 61-56l5-3 4-3 9-5 20-14 12-11q3-6 3-2V58l-1-3zm-119 1-7 11q-17 25-36 39l-12 11-11 9c-6 4-30 28-30 30l-1 2c-5 4-28 37-28 39q2 3 6 2l14-17 6-9 7-8a253 253 0 0 1 48-47l8-7 8-7c5-4 16-15 21-22l14-20 1-4q0-7-8-2m69 4-9 9-20 17c-11 9-35 31-45 43l-23 27a465 465 0 0 1-46 44 221 221 0 0 0-35 38l-3 4-7 8q-5 6-2 9 4 5 16-13l6-7 5-5 15-18 17-16 5-4c3 0 43-41 51-51 7-10 21-25 32-34l8-9 8-6 10-8 14-12c17-15 17-16 15-19q-3-4-12 3m-205 7a58 58 0 0 0-16 16 472 472 0 0 0-51 53l-7 8-5 4-5 6-4 3-6 5-17 12-5 3-17 9a178 178 0 0 0-39 21l-6 5c-7 5-2 0 6-8l8-8 6-6 6-9 6-6 7-10c6-6 11-14 10-16q-4-6-10 2l-8 10-5 8-8 9-16 18-24 26-7 8-22 23-26 26c-26 26-29 31-20 32q2 1 7-5c3-5 16-18 21-23l12-12c32-34 39-41 41-39 3 3 5 3 22-13l10-8 19-11 21-10 7-4 6-4 22-15c14-12 16-14 26-25l8-8 6-7a498 498 0 0 1 55-56q13-9 9-11-2-7-17 7M76 73l-10 6-8 6q-15 10-24 24l-10 14q-11 15-5 17 4 3 13-13l13-17 2-3c0-3 18-18 23-20 3-1 19-12 20-14q2-5-4-6-3 0-10 6m249-4-21 13-6 5q-8 5-20 25c-10 14-13 18-46 49-18 17-20 19-18 22 2 5 7 2 24-16l11-11a161 161 0 0 0 30-32l2-3 7-9a103 103 0 0 1 37-33q12-5 10-9-3-6-10-1m-139 8-3 4-3 8-4 10-5 9-4 7q-12 19-38 43c-11 9-15 13-20 19l-14 15c-16 16-18 19-18 22 1 7 8 2 41-35l19-17 32-34 12-19 11-24q3-7 0-10-3-2-6 2m571 7-3 5c-4 7-32 37-41 43l-11 9-35 26c-2 2-17 13-21 14a201 201 0 0 0-33 33c-11 11-16 27-9 27a15 15 0 0 0 8-10l2-3 2-3 1-1 1-2 1-1 2-3 10-11c9-10 13-13 29-24l23-17 17-13a303 303 0 0 0 48-43l13-15q9-11 1-12zm-244 7-16 18-8 9-2 3-16 25c-2 4 4 7 7 3l4-5c5-11 24-35 37-47 8-8 9-9 8-11q-2-6-14 5m-373 16-3 3-10 17-11 14-5 7a369 369 0 0 1-45 44l-17 17-16 16-5 6-2 3-5 5-6 6-9 11c-6 8-6 8-6 15q-1 13 8-3l12-16 10-14 4-3 17-15 43-42 20-21 13-16 6-7c12-19 14-23 11-26q-2-3-4-1m106 1-9 8c-14 13-16 16-27 23l-31 28-7 8c-7 7-6 7-11 14l-16 18q-7 8-3 10 6 3 20-16l5-6 6-7 8-11 32-29q5-2 18-14l4-3 1-1 3-4q6-3 11-11l3-4-2-2q-2-3-5-1m519 7-15 18-1 2-5 7-9 10-7 8q-18 19-8 19 3 1 8-6l7-7 28-33 6-8v-8q1-11-4-2m-469 2a358 358 0 0 0-40 42l-31 30-26 21c-9 7-26 25-26 27l1 3q3 5 16-9l18-17 20-16 7-5 35-36c14-17 32-36 36-38q3 0 2-3-1-9-12 1m203 23-11 12-5 7-7 7-4 5-32 33-26 23a238 238 0 0 0-44 51l-7 11q-8 12-3 13 4 1 9-5l3-4-4 14c-2 3-4 20-5 34a121 121 0 0 1-10 49l-3 7-2 4-2 2-3 6-2 3-4 10-6 12c-1 5 5 7 8 2l2-3 6-11 6-13 16-37q3-10 4-34c0-16 1-19 3-29l12-24q5-9-4-8-5 1-1-2l1-2c0-5 40-48 44-48a610 610 0 0 0 66-68l6-9 8-9q8-7 2-9-2-1-11 10m29-6-17 21c-7 9-6 7-13 20l-9 13-6 10c-3 3-7 11-9 16l-7 12-5 7-7 12-6 9-5 7-4 7-12 15-13 16q-9 12-1 12c3 0 5-2 18-19l20-27c5-5 13-19 13-22l3-4 4-6 4-7 9-15 3-5 3-6 2-2 4-6 6-10 6-10 14-18 9-12c2 0 6-5 6-7q-1-9-10-1m238 5a204 204 0 0 1-28 31c-9 10-11 11-20 18q-13 10-7 12 4 1 13-6l5-4c3 0 39-36 40-39v-15zm-707 9-13 20-5 7-8 10-7 8-14 15-12 12v5c0 7-1 7 8-1l11-11 12-12 9-11 22-31q9-12 1-13zm385 7-4 4c-2 5-29 34-34 38l-7 4-3 3-5 4-11 8a104 104 0 0 0-21 22l-17 26q-2 6 2 7 5-1 6-4a165 165 0 0 1 50-56l15-13 8-7 28-31c5-7-2-12-7-5m-229 0c-3 2-30 27-33 32l-4 5-6 9-12 21-3 5-3 6q1 1-7 12l-5 8-3 5-23 29c-18 21-21 27-16 27q3 1 13-11l23-26 10-15 10-14 11-20a186 186 0 0 1 45-58l8-7q6-5 3-8zm367 0a412 412 0 0 0-55 58l-12 19-3 3-7 11-18 30-10 14q-2 0-6 7l-6 7-10 11-9 10-3 4q-6 9 1 10 3 1 6-5l14-16 12-15 15-16 5-8 6-10 16-27 8-12 7-10 4-6 5-6c6-8 30-33 40-42q10-7 5-10-1-3-5-1m185 1q-15 18-7 20 8 0 9-17v-5zm-52 0-41 41-13 15-8 9-5 7-5 8-4 5-4 7-3 5-6 7-15 17q-4 6-3 8 3 6 12-5l11-12 9-12 6-9 3-4 4-5 3-5c8-12 16-20 32-36l26-26q10-9 8-14c-1-2-7-3-7-1M18 167 5 185c-5 7-5 7-5 14q-2 15 10-5l9-14q11-13 7-16-2-3-8 3m127 1-2 3-1 1-3 5a161 161 0 0 1-27 28l-2 1-7 4-8 6-6 5-12 9-7 6q-6 5-11 12l-9 10-8 12-8 12q-10 15-8 19 6 6 16-15l5-8a133 133 0 0 1 37-42l11-9 16-12a193 193 0 0 0 33-31q6-7 8-13c2-4-4-7-7-3m109 17q-19 19-27 22a122 122 0 0 0-47 46l-2 3-9 12-3 4-3 4-2 4-3 5-3 5c-5 7-2 15 4 10l-6 9q-9 9-31 21c-25 13-26 14-33 21-9 9-5 16 5 7a85 85 0 0 1 26-18l5-2 9-5 4-2 3-3c1 0 10-6 15-11q10-7 2 0l-3 4-7 8-15 16-13 13q-22 17-13 18 3 1 11-7l10-7a334 334 0 0 0 41-44l20-24 5-6 13-15c4-5 9-15 9-17l-2-2q-6 0-8 4a163 163 0 0 1-22 30c-3 4-21 24-22 23l1-1c2-1 11-14 11-16q-1-7-9 0-6 6-2 0l4-8 5-8 5-6 15-21 1-2a135 135 0 0 1 43-37l1-1c3 0 33-28 33-31q-1-3-6-4zm185-1v6q4 1 7-2c3-4-4-7-7-4m-161 2q-5 3-11 14l-2 3-3 5-3 4-2 3-8 14-3 5-4 6-5 6-21 27-10 10q-7 7-6 9 0 7 7 2l3-3q3-1 4-6l2-2 6-5 19-23 7-8 5-7 3-5 3-4 9-16 4-6 2-3 1-1 4-6 6-8c4-5-1-9-7-5m154 5-9 8-14 13a571 571 0 0 0-48 49l-17 26-12 23-3 7-3 7-1 2-1 1-2 6-2 5-1 3-1 2a103 103 0 0 1-15 40l-2 4-7 9-9 10c-4 2-18 22-25 36q-4 8-4 5a137 137 0 0 1 14-42l1-4 5-8 24-35 5-7 10-16 5-10 6-10q2-7-1-9-5-1-8 5a171 171 0 0 1-20 35l-4 6-10 13-3 4-5 8-5 9-17 33-4 12-2 12q-7 32 0 30l2 2q1 4 4 4 8 0-15 14c-10 8-20 16-20 18 0 3 10 1 15-3l10-7 6-5 2-2a78 78 0 0 0 31-40l3-7 2-5c0-4 12-23 20-33q7-7 5-9-4-4-8 0-4 3-1-2l2-3 3-4a44 44 0 0 0 10-18q4-5 9-24l10-29 5-11q0-2 3-5l4-8 7-12 5-7 5-10 6-6c4-6 38-41 41-43l9-7c17-15 20-19 15-21q-2-2-5 1m331 8-8 9-8 7a329 329 0 0 0-43 46l-17 20-7 8-3 4-3 5q-6 6-2 10 3 5 11-8l7-7 1-3 1-2 4-5 10-10 16-21 34-35c11-8 13-11 13-17q2-10-6-1m-115 9-5 6-14 14-14 14-15 14c-11 8-45 44-49 50-3 7 4 9 9 3 11-13 23-25 24-25l-4 7-5 7-5 6-3 6-4 10-4 8-2 5-1 3-1 3-4 10-6 14-5 9-3 4c0 2-12 17-19 25q-14 13-7 4l3-5 4-6 6-10q13-19 6-21-6 0-7 5c0 1-15 27-19 31l-16 26-4 7-5 11c-2 4-4 13-3 15q5 7 12-12l12-26q7-8 6-5 1 3 6 2c3-1 7-5 23-21a150 150 0 0 0 23-40l9-22 1-4 1-3 2-5 5-9 3-5 4-7 6-7 22-26q6-6 5-10c0-5 0-4 20-23q26-25 22-29-3-4-10 2m62 4-11 17-11 17-3 6-10 17-1 3c-10 18-9 18-15 26l-10 14-3 4c0 2-25 28-27 28-4 0-27 25-27 29 0 6 7 5 12-2 4-6 15-17 23-22a179 179 0 0 0 34-37l10-14 3-5 1-2 1-1 23-45 2-4 4-6 5-8 1-2 3-5c5-5 2-12-4-8m-117 2-18 18-16 18c-8 7-16 16-17 18l-10 15-9 11q-4 7-10 12l-7 9-50 51-9 10q-7 10-6 4c-1-4-12 0-12 5l-1 2-10 15c0 5-28 36-39 43-12 7-35 36-34 40q4 9 16-9c7-10 18-22 25-26l17-15c9-9 9-9 17-21l6-8-1 2q-1 5 3 6 4-1 10-11l7-11 7-8 28-31a838 838 0 0 0 61-66l2-3 3-5q5-9 21-26l34-36q0-5-8-3m91 9-3 4-11 14a466 466 0 0 1-75 68l-6 6-2 3 2 2c3 2 3 2 10-3l12-9 21-17 17-17 13-11 31-36c1-2 1-7-1-7q-3-3-8 3m-243 3-9 16-16 22-20 26-14 25c-1 1-5 17-6 26l-2 15c-4 27-4 31 1 30 5-2 5-3 9-39a96 96 0 0 1 17-48l4-6 1-2 1-1 2-3 2-3 1-2 5-5 19-26 3-5 3-4 6-9 1-2v-7q-3-3-8 2m-175 1c-8 8-26 37-26 41l-2 4-7 11q-17 32-41 50c-8 7-34 32-40 40q-10 14 0 12l10-9 16-17 18-17a158 158 0 0 0 34-37l2-3 5-8 10-17 8-14c0-2 18-30 21-32q4-6-3-7-3 0-5 3m-132 3-3 4-4 7-28 37-6 5-18 15a119 119 0 0 0-36 51l-2 4-1 5-6 11-10 16q-4 4 0 9 4 3 10-7l4-7 2-3 3-5 2-4 2-4 2-5 7-16c12-22 18-30 35-43 19-16 23-20 35-35l7-11c4-4 13-19 13-20q-1-7-8-4m618 5-17 19-10 14-33 39c0 2-30 29-39 36a70 70 0 0 0-18 24q-10 16-2 15c2 0 9-6 9-8 0-5 15-23 26-31l12-11 10-8 4-5 5-5 5-6 8-10 12-14 6-8c6-9 5-9 25-31q12-12 8-14-2-5-11 4m2 16-15 22c-10 11-13 21-6 21l7-7 4-7 5-7 7-10 10-12 3-4v3q1 5 1-1l-2-16zm-259-15a33 33 0 0 0-10 13l-7 8-17 20-14 15c-25 23-35 35-43 49l-9 22-3 7-4 10-2 5-1 6-5 11c0 3-17 25-18 24l3-6q6-10 0-11c-2 0-8 5-8 8l-1 1-1 1a113 113 0 0 1-20 29l-7 8a127 127 0 0 0-26 42l-5 14h5q6 1 6-3l1-5 3-6 10-20 2-4 2-3 4-5c12-15 15-18 17-16 5 2 6 2 13-7l13-15 3-4 1-1 4-5 4-6a35 35 0 0 0 7-16l5-14 7-20c1-4 10-20 15-28 4-6 14-17 41-43a303 303 0 0 0 41-49c5-5 0-10-6-6m-163 1c-1 0-9 11-12 17l-8 14-8 16-3 5-3 6-6 8-15 20-6 9-10 13q-10 13-3 12 3 1 7-5 8-8 2 1l-3 6-3 4-4 8-5 10-7 17a60 60 0 0 0-6 23l-2 9a120 120 0 0 1-21 48c-2 1-18 27-18 30q3 9 11-3l4-6 4-6 3-4 7-11c6-7 19-41 20-54s13-41 23-59l6-10 10-13q5-9-4-8l-3 1 2-3 6-8 4-5 6-9c5-7 7-9 13-21l13-24 9-15 7-11q-1-5-7-2M3 240q-2 0-2 8l1 6 3-4q8-7 4-10-1-4-6 0m34 6-13 16-5 5-2 3-3 6q-7 8-2 11 4 3 11-9l7-9 5-6 7-9q8-10 3-12c-3-1-3 0-8 4m48 5c-10 11-14 15-19 24l-10 15c-8 12-9 13-18 31l-15 26c-7 12-8 14-17 22-6 5-6 6-6 11l1 5a101 101 0 0 0 27-31l14-22 3-6 2-5 6-10 9-15 3-4 3-5c2-5 12-18 23-30q11-12 8-13-2-6-14 7m491 6c-40 37-55 55-70 82-5 10-4 6-12 30a251 251 0 0 1-22 45c-2 4-17 23-30 36q-9 9-2 11c4 0 20-16 24-24l5-6a90 90 0 0 0 17-24l12-26 3-7 4-11 4-10 3-5q3-9 14-24l9-12 19-22c33-31 39-38 36-41-3-2-5-1-14 8m-274-5-9 12-17 24-15 17-21 17-6 4-9 7c-19 13-34 27-32 30q1 6 12-3l34-28 14-9 7-6 25-25c7-8 24-34 24-38l-4-4zm464 10-2 3a333 333 0 0 1-36 58c-7 7-16 19-16 21 1 6 12 1 18-10l7-9 8-11 5-6 8-13q11-16 11-27 0-12-3-6m-619 5-4 5-3 6-2 6-2 2-1 2-7 10-4 6-5 6q-10 13-27 25l-12 9c-18 12-46 38-46 44q2 5 6 3l6-6 22-22 11-8 7-4c26-18 43-36 60-65l9-16c3-5-3-8-8-3m348 26-20 27-10 10-5 5a165 165 0 0 0-39 38l-6 7-15 18q-13 16-10 19l2 2 4-2 6-7 12-16 6-8 9-10 2-3 37-35 7-6 14-15c7-8 19-26 19-29q0-3-5-4-2-1-8 9m152-5-14 15-25 28-20 21-19 22-7 9c-11 13-12 15-20 30a168 168 0 0 1-22 33q-9 9-2 11 3 1 9-6l9-12 1-2 11-17 4-7 3-4 5-8 7-9q9-15 23-30l14-14a424 424 0 0 0 42-47l6-7c5-5 1-10-5-6m-298 20q-2 0-13 26l-5 17-3 16-1 11q-1 12-6 22l-1 4c0 4-14 28-18 31l-4 7c0 2 5 3 7 2h2l-10 21c-8 11-31 34-34 33q-5-1-6 3 1 2-2 4l-7 6q-4 1 5 1 8 0 10-2l8-8 13-9q10-10-2 8l-7 11h5c6 0 8-2 14-12 7-13 7-15 3-17q-4 0 0-4l3-5 6-9 10-17 5-11 4-7 5-7q8-10-1-10-4 1 0-7l4-16 2-6 4-26c0-5 5-20 8-25l1-4 1-2 1-4 4-8q4-12-5-7m-327 9L3 345c-3 5-5 17-2 17l1-1 4-5 9-13 11-17c7-10 7-11 6-13q-4-3-10 4m244-2-7 7q-12 11-24 31l-6 10-6 8-6 10a195 195 0 0 1-42 40l-5 3-1 1-1 1-5 3-4 3-2 1-8 6q-14 7-11 10 3 5 14-3l11-6 6-5 8-5 4-3 4-4 7-5a212 212 0 0 0 53-64l5-9a121 121 0 0 1 24-25c5-5-3-10-8-5m497 7q-9 9-1 8 7 1 7-8 1-7-6 0m-66 2-5 3-8 6a154 154 0 0 0-41 45l-4 6-2 4-7 11-4 7-11 25-5 10-3 6-5 8-6 8-11 13c-10 10-18 22-16 24a5 5 0 0 0 9-1l3-4 8-9c15-15 25-31 36-57l9-18 6-8 5-7a148 148 0 0 1 36-50l21-15c7-5 3-12-5-7m-522 6-14 13-20 17a241 241 0 0 1-38 29l-5 2-28 14-3 2-17 10c-11 8-28 28-26 32q3 7 14-8a55 55 0 0 1 16-16l10-6 7-4 22-11 28-16 8-6 4-3c6-3 27-22 46-41 6-6 6-6 3-8q-3-3-7 0m563 10-3 2-7 6-11 11c-14 16-14 16-16 14l-4-1a30 30 0 0 0-13 14l-6 8-3 5-3 5-3 5-7 13-1 3-1 4-6 16-2 5-2 8-3 13-8 32c-3 9-3 9 2 9q6 1 7-7l1-5 3-11 5-21 2-9 5-13 4-14 2-3 1-4 5-9q8-14 3 1c-3 10 4 19 8 9l2-4 1-7 3-8a58 58 0 0 1 17-26l26-29c9-9 10-10 8-12zm-520 13-13 13a186 186 0 0 1-50 39c0 1-3 3-21 12l-32 18c-10 4-31 22-55 45q-15 15-11 18c3 2 5 0 20-15a367 367 0 0 1 46-38l29-16 18-10v1l-24 21a102 102 0 0 0-20 25l-9 13c-11 16-13 19-15 19l-2 2-4 5-5 4-3 3h13l6-6c6-6 10-11 19-24q20-32 47-52c10-9 11-10 10-12l-2-3q-3-1 22-17 6-3 28-25c16-15 16-16 15-19q-1-5-7-1m457 8q-6 8 1 9 5-2 6-8c0-3-5-4-7-1m87 1q-6 8 2 9 5 0 5-8t-7-1m-154 9-13 11a210 210 0 0 0-49 61l-3 5-13 20-9 11q-12 17-29 26l-10 7h7c8 0 16-3 16-6l4-2a133 133 0 0 0 29-33l10-14 15-25a208 208 0 0 1 44-49q17-13 12-16-4-3-11 4M56 384a281 281 0 0 0-49 59l-7 10v7l1 7 10-17 5-7 3-5 4-6 6-7c8-11 28-32 30-32 1 0 16-16 17-19v-3c-3-3-6-1-20 13m613-12-4 6-3 6-11 28-2 4-1 5-2 8-8 24-6 13-8 16-16 20c-9 10-9 10-2 10 5 0 5 0 10-7q6-6 7-10l6-7 4-5 4-7 6-12 6-14 1-3 1-4 3-8 5-19 3-9 3-7 10-22q2-5-1-6-2-3-5 0m86 0-4 3-3 4-2 2-7 12-8 13-1 3-2 3-1 2-1 4-4 6-3 6-1 5q3 8 9 2l2-3v2q0 3 3 3 4 2 10-13l5-8 1-2 2-4 3-4-2-2q-5-5-15 15-4 9 0-3 6-16 12-23l3-5q1-4 7-11c5-6 3-11-3-7m-26 10-5 7-3 6-12 27-4 12-7 16-2 6-5 11-11 22q-12 20-10 9l2-7 1-6 2-5 2-6 1-4 1-3 4-6q5-8-1-9-4-1-9 10c-8 15-9 20-12 36l-3 10-1 4h19l4-6 6-9c1 0 14-27 16-34l2-3 1-3 2-6 3-8 3-7 5-12 3-7a33 33 0 0 1 7-17l5-8 4-10q-3-4-8 0m-102 2-3 2-1 3-4 6c-5 8-16 20-25 26q-10 7-7 11t11-1l31-34 1-2 2-4c4-6 1-11-5-7m-394 10-8 9-14 14-39 25-1 1-14 8-25 20c-13 10-31 29-31 33q1 8 12-4l34-30q6-5 2 0l-3 4-12 16-6 8-5 8q-7 7 2 6 6 0 7-4l15-21 17-21-3-3-3-2 7-5 10-6 4-2 2-1 5-3c10-6 40-28 46-35q17-17 12-21-2-4-11 6m-117 1-2 3c0 2-6 11-11 16q-17 20-38 32l-15 10-7 6-9 6-10 7-15 11-4 3-4 3-1 5 1 5 13-9q0-2 5-4l6-5 10-7 8-6 18-12 1-1 3-1 2-2 1-1 5-3 6-3 16-12c18-18 32-37 29-42q-2-4-8 1m476 9-16 19-11 15-7 12-14 24-10 17-4 7-5 9q-5 6 2 5c6 0 7-2 13-13l8-14 8-14 3-5 9-18 31-40q4-3 4-8-2-5-11 4M2 406q-2 2-2 8 0 10 4 3l2-3 4-8q-2-5-8 0m524 5c-7 7-10 10-25 31l-15 22-5 7-4 8-2 5-9 20c-4 8-4 8 2 8h4l5-10 6-15 5-9 4-9 5-10 3-4 2-3 1-1 7-9 11-13 8-10 7-8q3-3 1-5-2-5-11 5m233 6a152 152 0 0 0-20 40l-5 12-3 8-2 5q0 4-3 7l-2 5q2 1-5 15l-1 3h5q7 0 7-6l2-5 2-6 1-3 3-7c4-16 17-45 26-61a21 21 0 0 0 4-20zm-473 1-4 6-6 9-9 16-2 5-1 4c-2 3-5 16-5 17 2 1 9-11 14-22l4-11 12-25q4-6-3 1m-68 10-48 45-15 15-14 19q-6 6 2 5c4 0 10-4 10-8a162 162 0 0 1 26-27l6-6a234 234 0 0 0 41-42q3-5 1-6-3-4-9 5m220 0-6 3-3 1c-11 4-35 27-46 46-8 13-8 13-12 23l-6 9q-2 3 4 2c6 0 6 0 9-6l5-10 8-15a80 80 0 0 1 23-28l18-12 7-4 3-2 2-1c4 0 8-6 4-8q-3-2-10 2m35 10q-4 2-16 15l-18 16a238 238 0 0 0-42 35l-6 8h4c5 0 5 0 13-8l37-30 5-4 3-2 12-13 8-7 6-7q-2-4-6-3m251 8q-8 13-2 14c3 0 9-9 9-14 1-5-4-6-7 0m41-1-10 32-5 13-1 5-1 3-2 6-1 5q-4 2 3 3h5l2-7 5-16q0-6 4-13l1-5 1-3c3-3 4-24 2-24zm-552 7q-3 1-5 6l-5 8-3 5-2 5-6 10-6 9-6 7-6 7q-5 4 3 3 5 1 9-4a127 127 0 0 0 21-32l12-22q-1-5-6-2m357 13-18 26-9 19c-1 3 8 2 9 0l24-38q6-5 2-9-2-4-8 2m144 2-6 11-5 10-2 5-2 4-2 4-4 10 4 1q6 1 6-5l11-24 3-8q6-12-3-8M70 477l-9 9-17 25 4 1q7 0 8-4l7-12 8-8c11-13 12-15 6-16q-2-1-7 5m530 6-23 28c0 2 10 1 11 0q0-2 5-6l8-9 7-8q14-12 10-15c-3-3-6-1-18 10m-159 18-9 9q-5 2 3 2c9-1 22-14 19-17q-3-6-13 6m-93 5q-16 7-2 6 15 0 16-7-1-6-14 1"
        mask="url(#16282281824-posters-1720560186792-horizontal-mask)" itemprop="light" fill-opacity="0.90"
        fill-rule="evenodd" stroke="none" fill="url(#16282281824-posters-1720560186792-vertical-light)"></path>
      <!---->
      <path id="16282281824-posters-1720560186792-regular"
        d="m8 7-7 8v11l5-5L16 9q10-10 2-9-4-2-10 7m21 0L18 21 6 34a13 13 0 0 0-5 15c1 0 18-17 24-25L41 6 27 45l-1 3-4 8-7 11-7 11-6 9c-2 1-3 12-1 12a171 171 0 0 0 32-47l10-26q4-13 8-19l5-6-10-1H36zm53-1-5 8-2 4-3 4c0 2-15 23-23 31l-5 7-5 5-17 20 2 2q3 4 13-8l8-8 21-27c4-4 12-17 12-18L91 7q8-9 0-7-4-1-9 6m22 2q-10 12-6 14 4 3 17-16 6-7-1-6c-4 0-4 0-10 8m27-7-18 20-19 18-27 22-21 18c-6 5-28 26-36 36-10 11-10 11-10 17q0 9 5 0a445 445 0 0 1 67-64q19-18 22-19c6-3 38-36 45-46l2-3h-5zm20 3-14 23-17 26c-9 13-13 19-21 27L88 91l-44 40q-9 7-8 10 3 3 11-3l8-7 38-35c23-22 34-37 55-73l10-16q8-9 0-7-5-1-7 4m22 0c-6 7-10 11-18 23s-8 14-4 15q5 1 9-8 9-15 20-25 12-10 2-9-4-1-9 4m39-2-8 17q-15 32-42 54c-18 15-22 19-19 22q2 3 9-5l13-11q19-16 31-32a224 224 0 0 0 22-42l3-5h-4q-5 0-5 2m27 7-6 9-15 32-1 4-2 6c-3 5-4 9-9 24-5 16-11 26-24 40q-17 16-5 14a108 108 0 0 0 28-31l3-7 4-8 3-7 1-5a198 198 0 0 1 15-40l8-16 8-14 6-9-4-1h-5zm20-1q-10 16-15 37-5 16-10 22l-3 5c0 2-9 15-13 20q-7 7-4 9c4 3 16-9 24-25l3-5 3-5 3-6 4-13 1-4 4-9 8-18 4-6 5-10h-4q-4-2-10 8m24-4-9 13q-10 12-4 11c3 0 10-7 13-12l4-5c10-11 10-11 4-11q-5-1-8 4m18 3a239 239 0 0 0-27 38l-4 5q-8 15-54 62l-28 29 4 2c4 0 5 0 22-18a564 564 0 0 0 60-67q5-4 12-18c10-16 15-23 24-32 8-8 8-8 2-8-5 0-6 0-11 7m28-4-4 9-12 21-21 36-5 7c-4 4-14 16-16 21q-3 3-1 4 3 5 11-6l7-9 22-32 7-14 11-18 4-9 1-2c2-1 6-9 6-10 0-3-8-1-10 2m19 6q-14 11-10 14 3 3 13-7l10-9q10-9 1-7c-4 0-5 1-14 9m26-4-31 26c-13 11-29 28-29 31q-1 11 21-14l14-12 13-11 28-23 2-2h-6c-5 0-6 0-12 5m22-3q-6 14-8 13-2 0-6 5l-15 15-9 8q-12 10-3 10c1 0 14-9 19-14a88 88 0 0 0 21-25c2 0 13-12 13-13 0-2-11-1-12 1m30-1-6 7q-9 11-2 11c4 0 4 1-9 14-18 20-22 26-19 29 3 2 4 1 14-12a201 201 0 0 1 34-33l11-9 9-7h-12l-21 15 6-8 5-8h-5zm56 7q-11 13-3 11c3 0 13-11 16-16l2-3h-4c-4 0-5 0-11 8m25 0c-11 13-26 27-38 34q-11 7-8 10 2 4 18-8l8-5q1 1-2 3l-7 6-13 11c-14 12-33 31-37 38-5 8 2 12 7 5l6-9a204 204 0 0 1 32-31 766 766 0 0 1 69-52l8-5 7-4-7-1-7 1-12 9a271 271 0 0 0-40 27c-2 0 2-4 4-6q3-1 7-6l9-10 6-8 3-4q4-3-2-3c-3 0-4 1-11 8m63 5q-18 16-10 16 5-1 24-19l9-10h-10zm52 0-25 31q-8 8-1 9 4-1 21-22l16-21c8-10 8-10 3-10h-5zm45-3-33 33a584 584 0 0 0-55 63l-2 5q2 5 12-7l19-22c13-16 23-26 37-40l40-41-5-1c-4 0-5 0-13 10m36-9-4 6q-10 14-6 17 3 2 9-7l6-9c6-8 6-8 0-8zm56 3-14 12c-11 8-13 9-31 25-10 8-25 23-34 35l-9 10q-10 12-8 14 4 3 9-3l7-8 8-10c15-17 38-39 58-55l9-7 10-8q9-9 2-9-4 0-7 4m-55 24-18 17a260 260 0 0 0-47 54l-7 10-18 23-5 6-9 12-10 13-8 10-28 29c-17 15-19 19-15 21 3 1 3 2 22-17a350 350 0 0 0 44-49l7-9 5-7 7-9q12-12 15-20l4-6 3-4q1-4 6-8l7-9c6-8 24-27 40-41 19-18 23-23 20-26-3-2-5-1-15 10m-117-6-6 9a109 109 0 0 1-30 31l-11 10q-9 5-8 9 3 3 10-2l13-10q27-21 39-45c4-6-2-9-7-2m178 13q-7 9-1 10t5-9v-5zm-318-2-11 15a98 98 0 0 1-41 34l-11 7-10 6c-16 7-39 31-57 57l-7 11-8 13c0 5 7 3 12-4l13-21c6-9 19-24 26-31l18-15q9-4-2 7c-15 16-39 58-38 64q2 2-1 2l-7 11q-15 23-34 43-16 15-9 16c7 3 54-54 54-67l3-5 11-20c9-18 17-29 31-43 9-10 10-12 8-15q-2-3 12-10 19-10 28-19c12-12 26-31 26-35q-2-3-6-1m65 4q-28 25-45 49c-19 30-46 57-72 72q-9 4-8 9 3 3 14-4l9-6 18-15a210 210 0 0 0 43-48 192 192 0 0 1 48-53q4-4 4-6-2-7-11 2m114-3q-4 1-17 15l-19 18-16 18-17 25-13 21-5 10a373 373 0 0 1-38 67l-7 9q-11 15-3 14 5-1 6-6l6-8 8-12 16-25 10-19a579 579 0 0 1 40-68l9-10q4-6 12-12l16-15 12-13q9-7 5-10-2-2-5 1m-452 3-5 5q-10 14-25 27c-26 25-32 32-44 52l-15 24-2 2-5 8-9 12-9 11-10 12q-10 9-6 12 5 1 11-6l8-10 8-9 7-10 7-10 4-5 5-7 3-6 8-12q16-26 30-38c22-21 44-44 45-48q1-6-6-4m207 4c-4 2-15 16-20 23l-9 13-10 16c-8 14-20 28-43 51q-19 18-11 18 3 2 4-1l19-19a227 227 0 0 0 41-51l6-9 9-12 14-17q11-11 8-12-2-3-8 0m203 18c-22 18-44 40-44 43q0 7 13-7l15-13c11-10 22-22 22-25q-1-3-6 2m183 0c-5 8-21 22-39 33l-29 19c-22 16-31 25-50 48-12 15-13 18-8 19q5-1 15-15l6-7 9-11c11-12 35-31 57-45q31-18 37-28 4-5 4-2V59l-1-3zm-118 1-9 11q-16 25-35 39l-12 10-11 10a301 301 0 0 0-39 42c-6 6-16 21-18 25q-2 3 1 5 1 4 13-12a264 264 0 0 1 55-61l8-7a214 214 0 0 0 47-49q9-12 7-15-3-3-7 2m72 1-32 28c-13 10-37 33-50 50a540 540 0 0 1-64 64c-10 8-24 23-32 34l-16 21q-1 3 3 4c2 0 15-15 22-25l38-38a400 400 0 0 0 52-51c13-18 32-37 66-65l21-19q0-8-8-3m-282 3-8 11-8 12q-12 15-27 29c-20 18-38 38-43 47-8 13 1 15 9 1l7-10 8-9 17-17a223 223 0 0 0 46-53q5-6 5-11-2-4-6 0m76 4c-13 11-48 47-57 58a240 240 0 0 1-92 70l-19 10-9 6-5 4q-12 9 5-8a264 264 0 0 0 34-39c11-13 12-16 9-18h-5l-4 5-6 8-5 6c-4 7-19 25-30 34l-11 13-19 20-21 22-25 26c-20 20-24 25-21 28q4 3 10-5l19-21 13-13 41-41 1 2q1 5 15-8a143 143 0 0 1 43-29l10-4 12-7c24-14 38-26 51-41l9-10 6-6c8-11 33-36 52-53 14-12 15-14 9-15q-2-1-10 6M82 69 45 95a178 178 0 0 0-22 31q-8 10-5 12 4 6 13-10l19-26q5-6 29-21 12-8 11-10-1-5-8-2m243 0c-25 15-34 23-48 45-6 9-11 14-35 38-27 27-30 31-26 32 2 1 6-2 22-17l18-18q13-11 32-38c9-14 25-27 38-33q9-4 8-8-1-3-9-1m-138 7-10 22-9 17-19 24-28 26-10 11-19 20c-14 15-15 16-14 19 2 4 4 2 26-21l27-28c19-14 43-43 49-57l10-21c4-9 4-10 2-11q-2-3-5-1m571 8-3 5a327 327 0 0 1-51 51l-11 9-27 19-15 11c-29 20-60 59-47 61q3 0 9-10c3-8 24-32 32-37l11-7 13-10 33-25c23-17 63-57 63-64q-1-5-7-3m-245 8c-15 14-43 52-42 57 2 3 9 0 9-4l4-6 4-7 2-2 4-5 3-5 6-8 15-15q14-13 6-12-3 0-11 7m-374 17-5 8c-18 27-31 42-56 65l-44 43-6 7-2 3c-2 1-12 11-20 22-6 7-6 8-6 14q-1 11 8-4l12-16 10-14 3-2 14-13 42-40a242 242 0 0 0 43-49l7-9c4-5 7-15 4-16q-2-2-4 1m102 4-29 26c-10 7-29 24-33 28l-6 7-12 15-13 16q-8 9-7 11 4 5 20-14l7-9 4-6c6-9 33-34 44-41l14-12 11-10c6-4 11-12 10-14q-3-5-10 3m523 4-12 16-7 8-26 31c-4 5 0 9 5 4l42-48q4-3 3-10v-7zm-462-4c-5 2-21 18-31 31l-23 24-33 31q-51 39-38 41 2 1 12-9l22-20 15-13 8-6c7-5 36-35 39-39 5-8 23-27 33-35q5-6-4-5m199 25-18 22-7 7-5 6c-7 9-28 30-45 44-13 11-17 15-24 23-15 15-33 37-33 41l-6 9q-6 9-4 10 3 6 12-8 3-4 3-1l-1 3c-2 2-7 21-7 28l-2 22-4 28c0 4-8 23-14 33-8 14-15 29-14 32h6c4-6 26-50 28-57l2-10q3-8 3-23c2-21 2-28 4-36l7-16 5-9c4-6 0-13-5-8q-3 2-1-2l2-3a232 232 0 0 1 48-51l13-12c9-8 34-34 41-43q14-16 16-21l7-7q8-7 2-8-2-1-9 7m27-3a357 357 0 0 0-35 48l-8 12-8 13-10 19-5 7-5 9-6 9-24 33q-22 26-14 26c3 0 5-2 15-15l11-14c10-12 26-36 26-40l4-6 6-9 19-32 3-5 4-6 7-11 11-15 7-8 4-6 3-3 4-4q0-11-9-2m234 10c-11 14-31 34-42 42q-10 8-9 10c0 5 9 2 15-5l7-5 11-10 14-15c11-11 11-12 11-20v-5zm-703 4-7 10-24 33-14 15C0 221 0 221 0 225q-2 9 7-1l11-10c10-9 27-31 41-51 9-13 9-13 6-15q-3-4-6 1m385 6-5 7-3 4-5 5q-14 17-30 30c-30 23-35 27-49 48-9 14-11 18-9 21q2 5 9-9 11-17 23-29c6-7 19-18 20-18q4-1 18-15l14-13 10-10 9-11q7-8 6-11-3-4-8 1m-228 0c-5 3-33 30-37 36l-6 10c-4 5-12 19-18 32l-26 39c-6 5-30 36-30 39 0 6 3 3 18-13l15-18 16-21 4-6 4-6 10-19a247 247 0 0 1 34-48q1-3 13-11 14-12 10-13-3-3-7-1m362 4-38 38-7 8-2 3-8 11-8 13c-6 8-17 25-24 38a154 154 0 0 1-27 35l-16 20c-7 9-8 10-7 12q4 6 11-6l14-17c25-27 26-29 36-46q5-11 10-17l12-19 15-21c8-10 34-38 43-45q9-8 4-11c-2-2-2-2-8 4m136-1-41 41a174 174 0 0 0-30 38l-3 4c0 2-8 13-14 19-19 22-21 26-15 26 3 0 3 0 11-9l8-9 22-30c12-18 18-25 44-50 24-24 28-28 25-32q-3-3-7 2m49 4c-7 9-7 9-5 11 4 6 11-3 11-12v-6zm-744 5L4 187c-4 6-6 18-3 18l9-12 13-19q5-8 3-8-3-4-7 1m127 1-6 9c-7 10-32 33-44 39l-9 7-8 6c-3 0-27 27-34 38-20 30-22 34-16 35q3 1 12-15c7-13 9-16 14-22l8-10q7-9 20-19l13-10 14-11c13-9 38-35 41-43q1-9-5-4m107 19-22 19q-30 17-43 36l-7 11-24 34-3 5q-4 8 1 8 3 1 10-10l6-10 5-7q1-4 8-12l9-13q9-14 37-32c13-9 19-14 28-23 11-11 12-13 10-15-3-2-5-1-15 9m26-1c-2 0-10 12-19 26l-11 18a363 363 0 0 1-43 53q-9 10-5 13c2 1 13-9 13-11l5-5 6-6 6-7 21-27 10-15 5-9 15-22q8-9-3-8m152 6-8 8-13 11-28 27-23 27q-9 11-24 41l-13 29-5 16a125 125 0 0 1-12 31l-3 4-7 10c-18 19-27 31-34 45q-4 11-6 9c0-2 3-19 6-26a235 235 0 0 1 41-70l3-5 6-9c12-18 17-33 13-34-2 0-7 4-7 6a166 166 0 0 1-21 37l-11 15-12 17c-9 16-21 42-22 46l-1 6-5 22-2 12q0 4 4 5 3 1 3 3c1 6 9 3 9-3a105 105 0 0 1 18-42l5-7q0-2 5-6l6-8q10-10-1 4a158 158 0 0 0-16 35l-5 10c-5 12-18 27-29 34q-14 8-21 16l-3 4h5q4 0 9-4l19-14 14-12a85 85 0 0 0 19-36l6-11c4-10 7-15 16-25q7-9 5-10-3-4-8 1l-4 3 10-16q4-2 12-22l4-14c0-4 5-19 10-28l9-20 4-8 14-22c9-15 31-39 49-54 28-25 30-26 26-29q-1-2-6 1m327 13-16 15c-7 6-21 22-33 36l-17 20-18 22q-5 6-2 10 4 4 10-8l6-6 2-4 4-5 4-5 7-8 13-15c7-10 29-33 37-40q15-11 14-17v-5zm-107 1-9 10-10 11-16 16-19 17c-10 8-37 36-41 41-8 9-3 16 4 7q16-19 25-26 8-6-1 4a141 141 0 0 0-24 40l-5 15-3 8-6 13-9 15c0 2-11 16-19 24q-15 15-7 3l16-25q9-16 2-16-4 2-6 6l-22 36c-19 28-29 53-22 54q4 1 8-14c7-19 17-35 19-29 3 7 26-14 39-35l6-12 4-9 9-19a110 110 0 0 1 15-34l24-32 6-6q7-5 6-11c0-4 1-6 19-23q28-26 23-30-3-2-6 1m58 8-2 3-7 11-9 15-8 14-12 23q-10 18-28 41c-4 6-16 17-21 21-23 18-35 34-26 34q4 1 10-7c4-7 14-15 22-22 7-5 24-22 27-27l14-21 14-26 15-27 10-17 3-6 3-4q6-5-1-7-3 0-4 2m-120 5-14 14-16 17q-12 12-17 21l-19 24c-7 9-14 17-37 40-23 24-33 34-39 43q-7 8-7 3c-1-7-14 6-20 19-6 12-25 34-37 43-19 13-41 40-36 44q4 4 16-16c4-6 15-16 23-22a153 153 0 0 0 40-45l2-1-1 3q-3 5 0 7 4 1 11-11l13-19 38-40 36-38q12-13 25-33l17-19 28-30c9-9 3-13-6-4m97 3-4 5c-3 6-19 23-37 41s-26 25-40 34q-20 14-15 18 2 2 9-4l29-22 13-12 17-16 27-30q8-10 9-14-3-4-8 0m-243 4-8 11c-6 11-9 15-19 28l-18 23a137 137 0 0 0-19 39l-2 13-2 14-1 9-2 12v10c2 2 7-1 7-5l5-36c2-18 7-31 19-48l8-13 11-14c9-12 28-40 28-42q-3-5-7-1m-177 2a163 163 0 0 0-24 38l-5 9-8 13-4 7-9 13-27 28c-18 14-43 41-43 46q1 8 10-3c5-7 25-27 37-37a162 162 0 0 0 34-37l17-27 9-17 20-31c4-5-3-6-7-2m486 8q-11 12-28 35c-19 25-49 56-66 69-14 10-32 39-26 41q5 0 10-10 9-15 29-31a265 265 0 0 0 41-42l13-17 9-11 16-20q16-18 12-19-1-5-10 5m-618-5-8 12c0 1-18 26-24 32l-15 14a143 143 0 0 0-49 65c-2 5-12 25-16 29l-3 6q2 11 11-3l4-7 2-3 2-4 4-9c15-35 27-51 49-68 8-5 21-18 24-22l11-15 9-13 1-1 3-5c4-6 1-12-5-8m622 19c-27 36-31 43-24 43q2 2 11-13l21-28 5-6v3l1 4v-4l-2-15zm-261-14-8 10-20 26-12 12-9 9-21 21-3 4a117 117 0 0 0-26 42l-4 11-5 14q-6 22-20 38-8 8-2-5 5-9-1-8-4 0-10 12a119 119 0 0 1-20 28l-7 8-9 12-7 10-10 21c-4 11-4 11 1 11 4 0 4 1 9-13l8-18 4-6 22-27 3 2q4 4 10-6l16-18 6-8 5-8 3-5 1-4c2-3 2-2 8-20 7-20 8-24 12-31q8-17 28-38l37-37 10-11 17-23c3-4-2-8-6-5m-167 7-8 13-8 13-6 11-11 19-9 14-26 34q-8 10-2 10l8-7q12-13 4-1l-12 22-5 8-4 11-5 12-5 21c-3 16-5 24-12 38l-15 23c-14 22-16 26-10 27 2 0 3-1 16-20q29-44 29-69c0-9 12-40 22-55l7-12 7-10q8-9 3-10h-4q-7 2 5-12l4-5 5-8 16-26 23-39q4-6 3-7-4-3-10 5M3 240q-2 0-2 7v6l4-5q7-6 4-8zm32 9-11 13-10 13-2 3-1 5q2 10 12-6l6-8 4-6 8-9c10-12 5-16-6-5m51 1a277 277 0 0 0-36 51q-3 2-14 26l-6 10-9 14q-6 10-13 17c-8 7-8 8-8 12q0 7 2 4l7-6c10-10 21-25 36-54l4-6 4-8 8-12 6-11q7-12 25-32 12-12 4-12-2 0-10 7m476 21c-28 27-40 42-52 63l-10 19-4 13-3 5a221 221 0 0 1-33 61q-3 1-8 9l-11 11q-6 7 0 8 6-1 21-21l7-9a204 204 0 0 0 34-65l5-11a90 90 0 0 1 14-24l10-15q5-8 32-35c24-24 27-27 26-29-2-4-5-3-28 20m-261-16-9 13c-12 18-32 41-44 49-31 22-55 41-55 45q1 7 12-3l18-16 17-12 7-6 4-2a156 156 0 0 0 33-32c7-8 20-27 23-33q3-12-6-3m-93 1-2 3-3 6-6 8-7 8-7 9c-18 22-52 59-63 68q-21 17-12 18c4 0 35-28 51-47l10-12 16-18 6-8 9-11c10-10 16-21 14-24q-1-3-6 0m559 5-6 11-6 13-6 8-4 7-6 10-16 20-6 7c-7 7-4 12 4 7l10-11 8-11 3-4 3-5 16-24c8-16 8-15 8-22q0-8-2-6m-619 5-3 5-5 9q-11 22-30 40c-8 8-14 13-36 29a142 142 0 0 0-37 36q-3 3-2 5 3 3 10-5 16-19 32-29c27-19 29-20 40-31q19-21 31-43c7-13 8-15 5-17q-2-2-5 1m351 22-15 22c-7 8-21 24-26 27q-16 11-29 27l-16 19-20 25-3 7q4 6 13-7a354 354 0 0 1 72-77l10-11 15-18c7-11 8-13 7-15q-4-5-8 1m145 4-9 9a280 280 0 0 1-33 37l-13 13-26 31-15 22-13 23-9 13c-11 12-11 13-11 14q4 9 25-22l6-9a176 176 0 0 1 21-33 312 312 0 0 1 37-43l14-14 32-37q6-6 3-8-4-3-9 4m-477 0-8 10c-11 14-19 19-46 34-16 9-16 9-23 15q-6 7-4 10 3 2 10-5c4-5 15-12 23-16l21-12a91 91 0 0 0 33-33q1-4-2-4zm181 18-5 9-4 10-8 29-4 20c1 1-3 18-6 26q-7 18-17 30c-7 7-5 13 2 9q5-4 0 7-8 19-33 42-7 7-10 6-6 0-5 4l-5 6q-10 5-1 4 8 1 31-20l8-7-6 13-5 7-4 7h4c5 0 7-2 14-14l4-8q2-4-3-6-3 0 4-9a201 201 0 0 0 22-38l3-7 5-7q8-11 0-9l-4-1 3-6 9-37c2-20 3-24 8-33l3-10 5-12q3-7 0-7-3-2-5 2m-322 3-10 14-12 18q-4 6-4 11 0 8 3 3l6-9 22-33q2-6-5-4m236 7a175 175 0 0 0-24 30 212 212 0 0 1-68 75l-6 4-16 11q-15 9-7 11c2 0 25-14 31-18 4-4 4-5 8-6l3-3 8-6a220 220 0 0 0 46-53l16-25 18-18q7-6 1-8-3-1-10 6m500 3q-8 10 4 5 4-1 3-5 1-7-7 0m-67 3-11 9a165 165 0 0 0-47 54l-5 9-12 23-5 12q-12 25-29 43l-12 15q-8 10-2 11 3 1 9-7l9-11 15-20c8-11 10-15 20-35q12-28 16-27l3-9c2-6 21-32 32-43l26-19 2-3c4-6-2-7-9-2m-530 14a296 296 0 0 1-82 60l-29 16c-11 7-30 27-30 31q1 9 14-7l7-8 24-17 24-12a244 244 0 0 0 40-25c9-6 29-24 45-40q9-9 1-9c-3 0-5 2-14 11m572 2c-6 4-15 12-19 17l-10 11-5 5-3-2-3-1-5 5-6 6-6 11c-11 16-14 20-15 24l-14 40-2 8-10 40q-4 7 2 6 5 1 5-4l2-7 8-33a246 246 0 0 1 20-52l4-9 2-2-1 8q-3 16 2 16 3 2 7-13 5-19 13-29l14-16 19-20q9-7 8-9-2-3-7 0m-528 21a235 235 0 0 1-66 50l-35 19-9 5-10 7-10 8c-12 9-42 38-42 42q-1 5 3 3l16-14a385 385 0 0 1 52-43l26-13 13-8 6-2h1l-4 3-10 9q-20 17-38 43c-13 19-14 20-25 31l-9 9h5c6 0 6 0 13-7l11-14 11-15a177 177 0 0 1 38-42l10-9q10-6 3-9l-2-1 2-2 26-18 3-2c7-5 37-35 37-38q0-9-16 8m466-1c-4 6 0 10 4 5q5-6 0-7zm87 1q-6 9 4 6 4 0 3-5 0-8-7-1m-161 14c-21 19-45 46-49 57l-5 8-4 7-12 19-10 12q-12 16-28 25l-10 7h6c6 0 7 0 12-3l8-6c9-7 32-34 41-50a229 229 0 0 1 52-67c9-6 17-15 17-17q0-7-18 8m-543 5c-15 16-34 36-40 46L6 445c-6 8-6 9-6 15q0 11 4 2c5-9 8-15 25-38 2-4 14-16 26-28 21-21 24-25 18-25q-1-1-15 11m611-9q-4 5-11 23l-6 14-5 15-14 40-5 11-13 18-11 13-3 5h4q5 1 7-3 9-9 11-14l3-5a133 133 0 0 0 21-38q5-10 10-31 3-13 13-33 7-15 4-16-2-3-5 1m87-1-4 3-4 5-2 3-6 10c-6 8-17 29-17 32l-3 4q-3 7 0 9 5 2 9-6l5-11c0-3 8-19 13-26l4-7 5-7q8-10 0-9m-26 10a157 157 0 0 0-21 42l-10 26-3 8-4 8c0 6-21 40-23 37-2-2 6-28 12-41q6-10 0-10c-5 0-16 27-21 51l-2 7c0 2 0 2 8 2s9 0 11-2a177 177 0 0 0 25-49l7-16 3-8 4-9q5-17 16-37l4-8q-2-5-6-1m-104 3-5 8q-10 16-27 30-10 7-5 10 2 4 20-13c19-19 29-36 21-37zm-390 7-11 12c-10 11-25 22-54 39l-25 17-15 12c-11 8-29 28-29 32q0 7 12-5a248 248 0 0 1 35-31q7-6 2 0l-7 9-7 10-14 21-3 4h9l6-9 22-29q10-11 2-11l-3-1 5-4 19-11 12-8 13-9q21-14 31-26c10-11 10-12 8-15q-2-3-8 3m-118 1-5 8c-7 14-34 39-48 46l-15 10-15 11-28 20q-9 6-7 10v4l3-2 7-6 8-6 36-24c10-8 22-15 25-16 11-4 45-42 45-52q0-5-6-3m475 11-11 12-6 8-13 18-7 12-21 37-7 12-4 9h3q6 2 12-13l22-39 5-9c4-7 12-19 18-25l7-8q2-5 7-9 7-7 3-9c-2-3-2-3-8 4M3 407c-3 3-4 12-2 12s9-12 8-14q-2-3-6 2m523 4q-6 5-10 12l-13 17a169 169 0 0 0-21 33l-9 17-6 15-4 7h8l9-19a290 290 0 0 1 39-63l8-10 7-8q5-6 0-7zm220-4-3 3-3 6q-14 22-8 22c3 0 5-2 12-15l6-12q3-7-4-4m21-1-1 1-3 6-8 11c-4 5-10 17-13 26l-12 32-4 8-1 3q1 3-3 10l-3 9h4l4-1 12-33q8-25 24-54c5-9 6-11 6-14q0-5-2-4m-549 22c-8 10-24 25-35 35-22 19-30 27-41 43q-6 8 1 6 5 1 7-3a144 144 0 0 1 35-38c2 0 34-32 37-37l3-5c5-8-1-8-7-1m220 0c-14 8-16 9-25 17-17 13-27 26-40 52l-7 14q-2 1 3 1h5l10-19q17-31 24-36l5-4q9-8 30-19 7-3 6-5-2-5-11-1m23 22-21 19-33 25-15 17 4 1q3 1 10-7l36-30c14-10 36-32 36-35q0-7-17 10m264-6c-4 5-6 14-4 15 3 1 10-9 10-13q-1-5-6-2m41 2-10 29-4 13-3 9-2 6-1 5q-2 5 2 4 5 2 7-7l10-37q4-11 4-17 1-8-3-5m-554 7-4 5-3 7-9 15a127 127 0 0 1-21 30l-2 2h3l7-2a127 127 0 0 0 23-32l5-8 6-12q3-10-5-5m358 12-15 22c-3 5-11 20-11 23q-2 3 3 2 4 1 6-5c5-10 15-27 21-34q8-9 3-10-4-3-7 2m145 2c-1 1-9 14-12 23l-4 10q-9 14-2 12 5 1 5-4l6-15c10-20 11-24 11-25q-1-3-4-1M67 481c-7 7-22 28-22 30l3 1q5 1 9-8l11-14c12-13 13-15 12-17q-2-4-13 8m534 3-18 20-6 8h5q5 1 6-2l22-25q11-11 7-12c-3-2-5-1-16 11m-156 14-7 7-5 5q-4 2 2 2c5 0 19-12 19-15q-2-6-9 1m-93 6-7 4q-9 4 1 4c8 0 17-5 16-8z"
        mask="url(#16282281824-posters-1720560186792-radial-mask)" itemprop="regular" fill-opacity="0.90"
        fill-rule="evenodd" stroke="none" fill="url(#16282281824-posters-1720560186792-horizontal-regular)"></path>
      <!---->
      <path id="16282281824-posters-1720560186792-medium"
        d="M13 1 6 9c-6 8-6 8-6 13l1 5 8-10 9-11q7-7 0-6zm18 5-9 11L6 35c-6 6-8 13-5 13a202 202 0 0 0 32-34l9-9-1 5-4 9-4 13-2 5-2 7-3 6-3 6-8 12-7 11-4 5-2 3q-2 2-2 7l1 5 6-8q12-14 20-30l6-11 9-23c5-14 5-15 10-21q7-7-6-6h-9zm55-5-4 6-5 8-20 29-18 22C25 81 23 83 23 85q1 11 31-26l6-8 19-27c2-5 8-14 13-19q5-5-2-5zm24 0-4 5q-13 16-7 16c3 0 11-9 17-18l2-4h-4zm21 0a251 251 0 0 1-42 43L61 67 46 80c-6 5-36 34-41 41-5 6-5 6-5 11l1 6 4-6c11-14 34-37 49-49l21-20 19-15c8-5 44-42 46-47l-4-1zm22 0-2 3-15 26c-13 22-24 37-46 59l-44 41q-11 9-9 11c3 2 3 2 23-15l32-30c11-10 21-21 23-24l32-48 10-16c5-8 5-8 0-8zm21 3c-13 13-27 35-25 37q4 5 13-11 7-12 19-23 9-8 1-7-5 0-8 4m38-2c-2 8-15 33-22 43-9 11-15 17-27 28q-21 18-20 19 1 6 9-2l17-14q28-23 46-64l4-9q3-3-3-3-3 0-4 2m28 5-7 14-8 17a286 286 0 0 0-19 48l-1 4a91 91 0 0 1-30 41l-3 6h3c4 0 19-14 25-23a138 138 0 0 0 15-33c0-4 10-31 19-48l3-8 11-17 5-8h-4c-4 0-4 0-9 7m20 1q-10 16-14 31l-4 12c0 3-5 13-8 17l-3 5c-1 4-9 15-13 20q-7 6-1 8c4 0 13-11 21-25l4-7 1-3 2-5 4-8 5-17 2-6 3-6 3-6 5-9q9-10 2-9-3-1-9 8m23-3-9 13q-9 10-4 10 3 0 19-19c7-9 7-9 2-9q-3 0-8 5m17 3-11 15-11 16c-14 22-14 22-26 36l-60 62q-5 4 0 6c4 0 15-10 59-56l22-28 13-20a150 150 0 0 1 26-33l3-4 2-2h-5c-5 0-5 0-12 8m30-6-12 22-5 10q-2 7-4 7l-1 3-6 11q-7 8-9 13l-6 8c-5 5-17 22-17 24q3 4 7-1l8-9 14-19c6-7 7-9 11-18l3-5 1-1 13-26 4-7 3-5q7-9 1-9zm26 1-9 8c-10 8-13 15-4 11l23-21c0-2-8-1-10 2m24-2-8 7-23 19-11 9c-1 0-24 24-24 26q2 6 12-5l8-9a493 493 0 0 1 54-45l4-3h-6zm15 5q-7 18 11-4l2-2h-10zm30-3-6 7q-7 8 0 9c4 0 4 0-8 13-18 20-23 26-21 29q3 4 15-12c5-8 24-27 30-31l22-17c0-2-9-1-12 2l-20 14q-3 1 2-5l6-8 2-4h-4q-4 0-6 3m63-2-7 8q-7 8-5 9 4 4 16-11 8-9 0-7zm24 2c-6 9-32 33-42 39q-14 10-6 10a93 93 0 0 0 30-21 142 142 0 0 0 26-28q3-3-2-3-4 0-6 3m31-1-18 12c-17 10-18 11-28 19l-18 15-16 14c-25 21-40 39-36 43q3 3 9-5c5-8 17-21 23-26l12-11 20-16 12-10 10-8 12-8 6-4 4-3 9-5 8-6 4-3h-6q-6 0-7 2m27 11q-12 11-13 14 3 3 9-1l26-26h-5c-4 0-5 0-17 13m60-11-33 43q-6 6-1 7 2 2 14-13l6-8 4-5 12-15 8-10c0-2-9-1-10 1m37 8-21 22c-31 30-37 36-45 47l-7 8-11 13c-3 3-6 10-5 11q2 3 9-5l15-18 11-13 25-27 47-48h-9zm36-8-5 7c-3 3-7 11-7 13 0 4 7 1 10-5l6-7 4-7 2-3h-4q-5 0-6 2m56 2-20 17-9 7-16 13a175 175 0 0 0-33 35l-13 15q-7 8-3 9 2 2 8-5l6-6 11-14 9-10 5-6 11-11 15-12 5-4 8-7 9-7 9-8q13-10 5-10-3 0-7 4M387 16l-5 5-14 14c-16 13-17 15-17 16 2 3 12-2 20-10l5-5c14-13 20-24 11-20m317 13-18 16a352 352 0 0 0-51 59q-5 12-15 22l-22 27q-4 7-16 19l-2 4-10 10c-31 31-35 36-29 37q1 1 12-10l16-15c8-7 33-36 34-40l18-23 7-8 5-6 6-10 4-6 3-4q1-4 6-8l12-14 7-8 21-21c26-24 31-30 26-31-3-2-3-1-14 10m-117-6-4 6c0 2-10 15-14 19l-7 6-9 8-12 9-9 9q2 3 8 0c15-10 42-35 47-44l5-8 2-6c2-5-3-4-7 1m178 12q-7 12 2 8 2-1 2-7v-5zm-320 1-10 14q-11 15-22 21l-11 8-9 5-9 5-9 6c-16 8-38 30-56 56l-9 13q-12 15-4 14 2 1 6-5l14-20c7-15 40-48 49-50q5-3-6 11c-11 11-20 24-32 49q-7 15-3 14c3 0 5-4 14-22s16-28 29-42c10-10 12-12 10-15q-3-3 11-10a113 113 0 0 0 44-37l10-16q-1-4-7 1m67 1c-8 7-31 31-35 37l-13 18a223 223 0 0 1-65 64q-12 7-11 9 0 7 17-6l8-5a303 303 0 0 0 45-43q7-8 15-21c5-8 22-29 30-36l17-15q6-5 0-6zm112-2-16 16-14 13c-4 0-27 30-38 49l-14 22-5 12-16 30-30 46q-5 8-1 8l5-4 6-8a457 457 0 0 0 40-67l6-10 5-11 18-27 12-18 5-6 10-9c19-18 35-34 35-36q-2-3-8 0m-451 3-5 6c-3 5-22 24-37 39-12 11-17 17-23 26l-16 26-10 14-4 6-5 8-10 12-12 14q-12 13-4 13c2 0 16-16 23-25l6-8 6-8 6-9 5-8 9-13 6-10q10-18 31-37c23-22 40-41 40-44q-2-5-6-2m209 3c-3 1-13 12-19 22l-13 18-6 10c-11 17-18 26-42 51-16 16-18 19-13 20 3 0 40-37 50-53l5-6 5-8 20-30 11-12q13-12 7-13c-2-1-1-1-5 1m205 16c-9 5-47 42-47 45q0 5 12-7l18-16 12-11q11-13 5-11m179 3c-5 8-20 22-33 29-17 11-20 12-30 20q-30 20-50 46l-10 13q-7 8-2 9 6-2 14-14a202 202 0 0 1 46-45l39-25 6-4 17-15 6-5V57zm-116-1-6 8c-10 16-30 38-39 44l-11 9-12 11a243 243 0 0 0-39 42c-7 7-18 25-18 26q1 7 10-4l20-28a255 255 0 0 1 43-42l10-8a181 181 0 0 0 38-41l3-4 4-6c4-6 2-11-3-7m70 4-7 5-18 17c-8 6-22 18-32 29-7 5-18 18-26 28-13 15-38 41-55 55q-23 21-42 44l-8 10q-6 7-4 9 1 7 18-16l9-11c5-7 27-27 41-39 8-7 39-38 42-43l9-11 3-4c4-6 30-30 46-44l24-20c8-8 10-9 7-11q-1-4-7 2m-286 8-7 11-4 5-6 8-32 32c-24 24-33 35-34 43q0 3 2 3 3 1 8-9l9-12 6-7 5-6 23-22q4-2 12-11l8-9c10-10 22-31 20-34q-2-4-10 8m85-6-6 6c-11 9-43 42-56 56-31 36-48 49-90 69a195 195 0 0 0-40 25q-5 2 16-18c16-18 39-46 39-50s-6-3-8 2l-7 9-5 6c0 2-18 23-27 32-5 5-13 12-16 17l-20 21c-8 8-18 18-22 24l-25 25q-19 19-18 22 2 7 12-7l11-11 16-17 26-27 15-15q3-4 4 0 2 3 11-4l19-16q7-6 21-13l24-11 11-7c19-12 32-23 52-45 21-24 47-51 63-64q8-7 9-10-1-4-9 1M81 71 60 85 43 98l-19 26q-8 10-5 14 3 3 11-9c12-20 22-32 41-43 17-12 18-13 18-15q-2-5-8 0m244-1-9 6c-16 8-25 17-35 33l-11 15-42 42q-17 17-12 17c2 1 6-1 20-15l21-20a319 319 0 0 0 32-41c9-12 25-25 37-30q8-3 8-7-2-4-9 0m-138 7-10 24a203 203 0 0 1-37 48c-18 16-23 21-38 37l-15 16q-10 9-8 12 1 5 9-5l13-13 14-15 15-15a255 255 0 0 0 46-51l5-9 7-15q8-14 2-15zm571 8-3 5c-3 5-6 7-14 16l-13 14-13 12-15 12-5 4-28 21-21 14c-4 2-26 23-33 31-5 7-12 20-12 22 1 5 7 3 9-2 3-11 29-38 47-50l26-19 18-14c22-15 51-44 63-62q1-7-6-4m-238 2q-9 6-22 22l-19 25c-7 12-8 14-6 16q3 2 6-5l14-20 4-5 8-10q4-7 13-14 12-11 6-11zm-384 27c-20 32-35 48-65 76-5 3-14 12-20 19l-16 16-6 7-2 3q-4 1-20 22c-6 8-7 9-7 13q-1 11 8-4l11-14 8-11 2-4 4-3 16-14 38-37c26-23 60-67 57-74q-2-4-8 5m105-1c-7 8-21 20-29 27-10 7-14 10-26 22-10 9-13 13-21 23l-16 20q-9 10-6 11c1 2 12-7 19-16l10-13c9-13 32-35 43-41l21-18 6-6q8-8 9-11-3-4-10 2m524 4-6 9q-4 2-6 7l-8 9-8 9-9 10q-16 18-7 17c1 0 10-9 18-19l12-14 6-7 6-8c6-7 6-7 6-12v-6zm-464-3c-4 2-19 16-30 30a470 470 0 0 1-48 49l-10 7-13 11c-15 12-27 25-25 28 2 2 4 1 14-9l14-13 7-6c5 0 53-46 64-61a178 178 0 0 1 32-33q4-5-5-3m200 24-20 24-6 8a516 516 0 0 1-66 63c-3 2-8 7-22 24q-8 8-17 25l-7 10q-6 9-2 9 3 0 7-6 10-15 4 3-7 19-7 39c0 9-3 29-4 34l-3 9-16 33-5 12c-5 10-5 10-4 12 3 2 4 0 12-14 21-40 25-52 26-86 1-16 4-33 7-36l5-9 5-10q2-6-5-4l-3 3v-2l3-7c0-4 32-39 39-44 15-9 68-64 79-83l7-7q6-6 2-7zm28-4a387 387 0 0 0-40 57l-13 19-13 24-6 10-15 23-18 23q-16 18-12 20c3 2 5 1 34-38l18-28q1-5 6-10l4-7 3-5 4-7 6-10 4-7 2-2 3-5 5-8 7-11 11-15 10-12 4-6q4-3 4-5-2-6-8 0m239 4c-1 4-36 41-47 49q-12 9-10 10c0 8 18-6 46-35 11-11 12-13 12-20zM60 148l-6 10q-17 26-42 52C0 221 0 221 0 226l1 4 11-11 26-28 20-27 8-14q-1-4-6-2m383 10c-11 14-29 33-40 42-31 24-36 28-44 40l-8 12q-11 14-8 17c2 2 3 1 12-13 10-14 13-18 23-28 9-9 11-10 17-14l5-4 1-1 12-10 15-14 10-12 8-9q9-9 3-11-3 0-6 5m-228-1a198 198 0 0 0-51 60 275 275 0 0 1-36 57l-21 25c-2 2-8 11-8 13q1 6 19-16l13-15a208 208 0 0 0 25-36l7-12 6-11c8-16 29-43 41-52l6-4q10-7 6-9-2-3-7 0m365 0a369 369 0 0 0-59 66l-33 53c0 2-15 20-22 28-11 11-26 30-25 32 2 4 10 0 10-4l13-16 17-18q10-11 21-32l9-15 16-25c5-7 16-22 28-34l23-23q14-12 8-13-1-2-6 1m185 4q-12 15-4 13 8-3 8-13v-6zm-51-2-39 39c-9 8-30 35-35 45q-3 7-19 24c-12 13-14 16-12 18q4 3 9-4l10-11 22-31c13-19 18-25 47-53 21-20 23-23 23-26q0-7-6-1M14 173l-8 13-5 6-1 7 1 7 7-12 13-19q8-10 2-10-2-1-9 8m132-5-6 9c-6 9-24 26-37 34l-29 24-12 11-9 10-7 10c-18 28-21 33-19 35q5 2 13-14 16-29 37-47l17-14 20-14c7-5 22-20 28-27 8-11 9-12 9-15q-2-5-5-2m109 18q-19 18-25 21a120 120 0 0 0-43 38l-32 47q-4 6 0 8 3 1 9-11l7-10 5-7 10-15 4-5q13-20 35-34c18-12 25-18 36-28 9-10 9-10 6-12-3-1-2-2-12 8m72-4-2 3c0 4-22 33-35 46-12 12-13 14-11 16 4 2 30-24 41-40l4-8q9-11 9-17t-6 0m-48 5a131 131 0 0 0-19 27l-7 11-18 26-29 33q-9 10-4 11 2 0 6-5l11-10a334 334 0 0 0 49-66l15-21c4-5 2-10-4-6m147 11c-39 34-60 56-72 76-8 11-8 11-9 15l-6 11-6 10-5 12-9 23c-3 15-5 19-10 30q-3 9-19 26c-16 19-22 28-29 41q-5 12-6 8c-1-1 2-19 5-25l2-5a214 214 0 0 1 21-42l1-1 2-3 6-8 6-7 8-13 9-13 11-23q0-4-4-3-3 1-8 13l-18 30-12 16-12 19c-16 25-21 41-26 73-2 12-2 14 2 14q4-1 3 3 0 3 2 3 4-1 7-11c1-10 9-28 17-38l5-8 9-9 10-13 6-8c6-7 18-34 18-41l8-23 7-17c3-9 25-43 33-52 7-9 37-38 42-42 10-8 23-21 23-23q-1-5-12 5m333 6-24 24-27 30-34 41q-3 5-2 8 3 5 11-9l22-26 14-17c6-9 23-26 42-43l8-8v-9zm-112 7-5 6-57 55q-41 38-31 39c1 1 3-1 17-15 8-10 17-18 18-16l-8 11-16 25-3 8-5 13-5 12-5 12-7 12c0 4-28 38-32 38q-3 0 2-7l19-30q5-7 2-9-4-3-7 4l-9 15-14 22c-11 17-16 25-21 39q-6 12-1 13 4 1 7-11 5-14 13-26 6-11 8-6 1 4 7 0c4-2 24-24 28-30l8-14 5-12 8-18a110 110 0 0 1 15-34c0-2 20-27 31-38 6-7 6-7 6-10q-2-5 8-14c11-9 29-28 31-32 7-9 1-11-7-2m62 4-9 14-8 12-11 20-18 33a199 199 0 0 1-55 60c-5 4-15 17-15 19q3 5 11-3a151 151 0 0 1 31-29l9-10 17-21 9-12 12-23 15-29 3-6 4-6 9-14q4-6 3-7-3-3-7 2m-120 5-12 11c-4 6-21 23-24 25l-12 17q-12 20-54 63c-21 21-31 30-40 42q-8 9-7 4c-1-7-11 2-20 19-8 14-26 34-38 43-16 11-40 39-35 42q3 4 16-14 7-11 17-18 4-5 6-5 0-2 5-4c7-5 20-20 27-31q14-20 9-8-2 5 1 7 4 0 10-11l12-18 37-40 14-13 34-39 14-18 12-16 17-17 16-18q7-7 5-7-1-5-10 4m97 3-5 7-7 8-10 12-18 18-14 13c-3 4-18 16-28 22-12 9-19 17-13 17 2 0 4-1 21-14l16-13 17-15 17-17c11-11 30-33 31-37 2-4-4-5-7-1m-243 3-7 11c-5 9-13 20-31 43a181 181 0 0 0-21 33c-2 4-6 19-7 28l-1 10-3 30 1 4q5-2 6-12l2-12 1-13a110 110 0 0 1 15-47l19-27c8-9 32-44 32-47l-2-2q-2-2-4 1m-177 3c-8 8-13 15-22 35l-11 18-4 7-3 6-4 4c-5 10-18 24-27 32l-21 19-11 10-7 7-7 9q-4 6-2 8 2 3 10-7a445 445 0 0 1 51-49l18-23 18-28 8-15 20-31q4-5 0-5-1-2-6 3m485 8-21 26c-19 26-46 56-62 70-22 17-20 15-28 28l-9 17q2 8 12-8 7-15 25-28l22-21 12-13 12-13 11-14c11-16 14-20 25-32q16-17 12-18c-3-2-3-1-11 6m-620-1-5 9-26 34-12 9q-25 20-33 34c-6 9-16 28-16 30l-16 31q-6 8-3 10c3 2 4 1 17-19l6-13 6-13 9-18c4-8 25-31 34-36a156 156 0 0 0 29-31c5-5 19-27 19-29q-1-7-9 2m633 4-10 13-22 32q-3 5-1 8 4 0 8-7 2-5 5-7l15-21 5-7 5-6v3-14zm-268-4-6 7-24 30-12 14-15 14-17 17c-9 10-20 27-25 42l-5 12-5 15q-5 17-19 35-12 13-4-3 5-9 2-8-4-3-9 8l-16 24-8 9-7 8-8 11-7 10c-3 4-9 18-11 27l-2 4h4q4 1 6-7l2-7 1-2 5-10 6-11 21-25q2-4 5-1 4 3 10-5l11-14 15-19 6-12 13-36c8-22 15-32 41-58a384 384 0 0 0 56-64q3-7-4-5m-166 5-5 6-12 22-6 11c-4 9-17 29-28 42l-11 15-9 12q-6 12 4 4a44 44 0 0 0 12-16q2 0 4-5l7-8 4-7 7-9q5-6 9-15l11-20 16-26 5-9q-3-3-8 3M2 241l-1 6v6l4-5q7-8 1-8zm31 11-17 21q-8 11-2 13 2 1 7-7l15-20 6-7q6-7 1-9-1-1-10 9m56-4q-24 24-50 73l-11 19-3 5-4 8c-4 6-11 15-16 19q-5 3-5 8l1 4a102 102 0 0 0 27-32l23-38 14-25c0-2 16-23 25-32q10-11 8-13-1-3-9 4m489 8c-44 43-50 50-60 67l-5 6-3 5-4 7-12 30a222 222 0 0 1-20 41c0 3-16 23-31 38l-5 8 1 2c0 4 17-12 25-25l4-4c3 0 23-33 28-48 16-40 15-40 29-58l10-15c2-4 16-18 30-32q26-25 25-27l-1-2q-1-2-11 7m-280 4-23 31a212 212 0 0 1-49 42l-4 4-4 2-7 6q-21 17-16 20c2 0 19-13 28-23l13-9 13-10c4 0 30-25 41-39 8-12 18-29 17-31q-2-5-9 7m-89-4-2 2c0 2-6 10-10 16l-16 18-22 26a407 407 0 0 1-40 42q-20 15-11 15l7-4 7-6a455 455 0 0 0 50-52l12-14 10-13 9-11 3-3c8-7 10-20 3-16m558 6-7 14-18 30c-11 16-12 17-24 30q-6 7-3 10c1 0 8-4 11-8l6-8 23-32 10-17a20 20 0 0 0 2-19m-618 4-8 12-8 15a169 169 0 0 1-36 40l-33 24c-7 4-25 23-28 29v4q2 3 11-7c8-10 22-24 30-28 27-17 46-34 63-61 13-20 17-33 9-28m347 28a213 213 0 0 1-38 43l-8 6c-11 9-42 45-57 66q-4 7 0 8 4 0 8-7l5-8 3-3 3-4 7-10c10-13 30-33 45-45l17-17 14-16q17-24 9-22-2-1-8 9m148-2-8 10-26 29-11 10-11 12-30 36-16 27-3 6-6 9-10 13-7 10q1 2 4 1a140 140 0 0 0 28-39l5-8 8-11 8-10c4-8 19-25 33-39a474 474 0 0 0 44-49q12-11 4-11-2 0-6 4m-481 5c-14 19-19 23-48 38q-30 17-30 24 1 5 11-5l14-10 14-7 26-16c11-8 24-25 22-28q-1-5-9 4m183 19c-11 22-16 39-18 60a95 95 0 0 1-9 34q-5 12-14 23-8 10-2 10l4-1q2-3 2 2c-4 16-39 57-47 55q-4-1-3 3 1 2-6 6l-5 4h4c6 0 11-3 31-21 12-10 26-30 33-45l4-9 3-7 6-8q8-9-1-8-6 2-1-6l3-12 3-11 2-13c4-22 4-23 12-44 8-19 8-20 5-20q-2-1-6 8m-320-2-14 20-11 16v10l9-12q23-33 21-33-2-3-5-1m235 8q-13 13-24 30c-21 33-35 50-56 66l-7 5-2 2-9 5-14 10-9 5q-3 4 2 5c3 0 21-11 30-19l8-5c2 0 39-35 43-42l5-7 10-14c0-4 18-28 27-36q12-11 9-12-1-4-13 7m503 0q-10 9-1 7 6-1 6-7v-3zm-66 3-7 5-9 7c-11 6-31 29-42 47l-7 13-12 24c-9 20-24 46-31 52-4 3-18 20-20 24v3q4 3 9-4l9-10c11-13 25-33 31-46l12-25q7-14 9-13c1 0 5-7 4-8-2-1 12-22 24-36a132 132 0 0 1 29-25q10-6 7-9-2-2-6 1m-531 14-11 11-29 24c-4 4-18 12-24 16l-10 5-14 7q-35 17-51 40-6 8-2 7 2 2 8-5a85 85 0 0 1 34-28l23-13a259 259 0 0 0 65-45c29-27 27-26 26-27q-1-6-15 8m114-3a238 238 0 0 0-35 63l-5 19c-5 24-5 25-12 41l-9 16-16 23q-7 10-4 12c3 2 5 0 14-14l9-14 3-6c10-14 18-35 20-51 2-17 11-41 24-61l6-11 6-8q7-7 4-10-2-2-5 1m455 7q-7 4-25 24c-8 8-8 9-10 8l-3-2c-3 0-13 11-16 18l-3 4-11 18-13 33-1 3-1 6q-2 3-3 12l-7 30-3 7q-3 9 1 8c4 0 4 0 7-13 14-55 18-69 27-84l6-10c3-5 3 2 0 9-2 5-1 14 1 15 3 1 7-7 7-14 0-6 9-24 16-30l12-15 18-19c10-9 11-15 1-8m-521 14-9 10-10 10-10 8-21 15-29 17-36 20c-17 10-63 52-63 57q0 8 14-7a287 287 0 0 1 43-37c14-10 18-13 35-22 24-12 29-15 31-17l22-14c2 0 43-39 43-41l-3-4zm461 5c-3 2-3 7 0 7q4-1 5-7-2-3-5 0m87 1q-5 6-1 6 5 2 7-5-1-7-6-1m-153 8-6 5a245 245 0 0 0-61 74l-12 18-9 12a99 99 0 0 1-34 29l-4 3h6q6 1 10-4l7-5c4-2 19-17 25-26a230 230 0 0 0 25-39l3-4 4-6c3-8 26-33 38-42 7-5 17-16 16-17q-3-3-8 2m-543 4-41 42-20 28c-5 9-6 10-6 15q0 9 4 1l10-17c14-20 21-30 42-50q21-20 19-21-1-4-8 2m602-2-12 27-5 11-1 5-1 2-2 5-2 7-1 4-2 7-5 15-2 5c-3 6-13 25-17 29l-10 12c-8 10-8 10-4 10s12-8 17-16l6-9 4-5 4-7 10-20 11-34c0-5 7-23 13-35q6-15 2-14zm83 3-7 10-4 6-18 32q-8 17 1 14c2-1 10-16 10-19a131 131 0 0 1 16-31l6-8 4-6q-1-4-8 2m-24 9-3 5-2 4q-6 8-10 20l-22 55a93 93 0 0 1-14 26c0 3-6 9-8 9-3 0 5-29 12-43q4-8 1-8c-4 0-14 18-18 34l-5 24 7 1c9 0 9 0 17-12l15-30 8-18 3-8q1-5 4-9l5-14 3-11 13-23c4-7-1-9-6-2m-101 0-2 2c0 4-19 27-28 33q-15 13-6 12c7 0 38-32 38-38l2-3q3-9-4-6m-398 16c-12 14-22 21-52 39a326 326 0 0 0-45 32c-5 3-28 27-29 29q-4 10 10-2a271 271 0 0 1 36-32l5-3c1 1 0 2-8 11l-23 33-2 4h4c3 0 4 0 9-9 8-11 17-24 24-31q9-9 0-8l-3-1 11-9 59-39 4-4c5-4 15-17 15-19q0-9-15 9m-111-6-5 8c-8 13-33 37-47 44l-14 9-30 22-14 10-7 5-1 4q-1 7 5 1l13-10 30-21 9-6c3-3 14-10 21-13 16-8 48-46 45-53q-2-4-5 0m184 8q-15 13-26 45c-8 21-17 33-37 46q-12 8-16 13l-4 5h3q5 1 9-4l12-9 14-11a84 84 0 0 0 26-42l6-12c5-9 7-13 18-27q8-13-5-4m291 1-8 9-8 11q-12 13-17 24l-17 29-5 9-9 17-5 9h3c3 0 10-6 10-9l6-12 21-37a216 216 0 0 1 25-35l7-10q9-9 4-10-3 0-7 5M2 408c-2 3-3 12-1 10s8-10 8-12q-1-3-7 2m531-2c-2 1-12 10-15 15l-6 8a246 246 0 0 0-33 50l-3 7-6 13c-7 14-6 13-3 13 4 0 4 0 8-10l25-49 13-17 6-7 9-11 8-9q3-3-3-3m230 7q-5 9-8 11a168 168 0 0 0-18 41l-1 4-2 4-1 2-3 8-3 8-1 3-3 9c-4 9-4 9 0 9q5 1 5-5l5-14 6-16c5-17 18-45 26-57q5-6 4-11v-4zm-18-5-12 21q-4 8-1 9 2 1 8-9l10-19c3-3-2-5-5-2m-591 10a264 264 0 0 0-39 35l-16 23c-11 18-19 26-27 33l-4 3h5c5 0 5 0 13-8l10-12 11-16q16-26 45-48l10-8-2-2q-3-3-6 0m68 6-6 6q-11 15-32 33a189 189 0 0 0-42 44l-3 5h4q4 0 9-7a145 145 0 0 1 25-28l12-10 20-18q19-19 17-25zm217 4a125 125 0 0 0-55 51l-12 21-6 12h4q4 1 6-5l23-41c8-11 25-23 43-32q10-4 6-7-2-3-9 1m20 25-18 16c-14 8-37 28-43 36q-9 9-1 7l3-1 16-16 45-36 9-10q12-10 5-10-3 0-16 14m265-5q-8 17 3 6 7-11 2-11-3 0-5 5m43-2c-2 1-4 7-11 30l-4 14-6 19q-2 4 2 3h4l3-11 6-22 2-5 3-10c4-9 4-20 1-18m-555 8-4 6-15 26q-4 8-17 22l-3 4h3q13-1 40-54c3-5 0-9-4-4m358 12c-6 7-19 29-24 40l-3 6h4q4 0 4-3l3-6 8-12 11-17c8-10 6-17-3-8m145 3-4 6-4 7-4 9-6 13c-4 8-4 8 0 8q4 0 5-5l5-13q12-23 11-26-1-2-3 1m-105 7q-13 10-23 24c-10 13-10 12-5 12l4-1 2-3 9-10 14-15q11-9 5-10-2-2-6 3m-543 6q-11 12-20 26l-2 4h3q4 0 6-5l16-20 10-13q-2-4-13 8m225 3-1 3-3 6-3 6-4 6-4 5 4 1 4-1 3-4c6-8 11-20 9-21q-2-3-5-1m156 11-10 9q-8 9-4 7c6 0 21-14 19-16q-2-3-5 0m-100 11-8 5h5c8 0 18-5 15-8q-1-3-12 3"
        mask="url(#16282281824-posters-1720560186792-vertical-mask)" itemprop="medium" fill-opacity="0.90"
        fill-rule="evenodd" stroke="none" fill="url(#16282281824-posters-1720560186792-vertical-medium)"></path>
      <!---->
      <path id="16282281824-posters-1720560186792-bold"
        d="m11 5-7 8q-4 5-4 8c0 5-1 6 10-6L20 3q3-3-2-3-3-1-7 5m22-1C26 14 11 30 4 38q-4 4-4 7l1 3 10-10c10-10 12-12 20-23q16-20 10-4l-2 7-2 4-1 2a151 151 0 0 1-19 42L9 78l-5 7-2 3q-2 2-2 6l1 4 6-8 12-16 13-22 2-5 5-12 1-4 1-4 3-9 6-10c6-8 6-8-4-8h-9zm51 2-7 10-12 18-4 6-4 5c-2 3-17 21-28 32q-7 10-3 10l17-16 13-16 6-7c4-4 13-18 17-25l8-13 2-3 1-1 2-3 2-3h-3q-4-1-7 6m21 3q-10 12-6 12 2 0 11-10l6-8q3-3-2-3-2-1-9 9m27-8c0 2-29 33-36 38l-8 7-27 22-19 16-10 9-17 18Q1 125 0 132q0 8 5-1c5-7 34-38 43-45l32-27 16-13 36-35 5-7 3-4h-4zm22 0-1 2-14 23-15 23-4 6-4 7-26 28-44 41q-11 8-8 9 1 3 11-5l9-8c13-11 56-53 56-54l3-4 24-36 5-8 13-22q3-2-2-3zm20 4a59 59 0 0 0-14 17l-3 4-3 5c-1 1-5 8-4 9q3 4 12-10 4-8 17-23l7-7h-4q-3 0-8 5m39-4-7 18-17 28-5 5-3 4-5 6-9 8-5 4-10 9q-10 8-7 11l3-1 20-18 14-13a173 173 0 0 0 36-57l2-5h-4zm30 4-13 23-6 12-2 6-6 14q-3 4-4 11l-3 7-1 4a89 89 0 0 1-32 49l-3 5c0 7 27-19 31-29l2-6 5-9 2-6 1-4 5-15 7-20 1-2 2-4 4-8 4-8q0-2 10-17c6-8 6-8 2-8q-4 0-6 5m22-4-1 3a114 114 0 0 0-17 32l-1 5-2 8c-4 11-18 36-25 43q-6 6-4 8 6 2 14-11l2-3 1-1 1-2 4-7a124 124 0 0 0 14-32l3-9 9-19 3-6 4-7 2-3h-4zm22 0-15 19q-5 7-2 7 3 1 14-14l9-10 1-1q0-2-3-2zm14 7c-6 6-22 29-22 31l-12 19c-8 11-30 36-61 66-16 15-18 18-14 19q2 1 22-20l32-33 4-4 16-19 7-8 16-26 6-9 8-10 9-9q8-5 0-5c-3 0-4 1-11 8m29-5-2 6-2 2-1 2-1 2-7 14-9 16-11 18-4 6-10 13c-2 1-12 16-12 18q1 4 8-4l3-4 1-1 5-7q8-8 7-9l8-10 5-8c6-14 19-39 26-48q6-10 1-9-2 0-5 3m26 0-10 9q-10 9-7 10 2 3 18-13l10-9h-4q-5 0-7 3m22 1-8 6-10 9-15 12c-18 15-33 31-28 33l18-18 8-7 7-6 37-30 4-3h-5q-5 0-8 4m20-2q-11 17 1 7t4-9q-4 0-5 2m28 1-6 7q-7 8 0 8 3 1 3-2l2-2 1-1 4-6q7-9 1-7-2 0-5 3m20-1-23 17-11 13c-18 20-23 26-21 28q2 4 14-12c5-7 26-28 29-30q6-3 19-15l4-3h-4zm43-1-6 8q-10 10-5 9 4 0 14-12 6-7 0-6zm25 0c0 5-41 44-47 44-3 0-7 7-4 7a57 57 0 0 0 19-11l3-2 2-2 3-3 4-3 5-4 7-8 8-10 6-7q3-2-2-2zm30 1-13 9-16 10-2 1-2 1-7 5-5 4-7 6-22 19-9 8c-14 11-32 30-33 35q-2 10 6 0a242 242 0 0 1 52-50l17-14 1-1 3-1 4-4 4-3 5-3 5-4 5-3 6-5 7-4 8-5 4-3h-5zm27 11q-14 14-12 14c2 2 7-2 23-17l10-10h-4c-4 0-5 1-17 13m59-10-2 4-3 4-4 5-4 6-6 6-3 5-8 10q-9 9-3 8 3-1 11-11l5-6 6-9 12-14 8-10c0-2-7-1-9 2m38 6-10 12-13 13q-31 29-42 43-4 7-10 12l-5 6-3 4q-7 8-6 11t9-7l14-16 10-12 25-26 46-48q2-1-3-1c-3 0-4 1-12 9m35-6-4 6c-3 3-8 13-7 13q2 3 7-3l8-11c6-8 6-8 2-8q-4 0-6 3m56 2-14 12-2 2-13 10-7 5-10 9q-16 13-37 40l-8 9q-7 8-2 8 3 0 11-10l14-17 8-9 10-10 10-9 5-5q0-2 3-2l6-5 10-9 16-12c3-2 10-9 10-11 0-3-6-1-10 4M383 21l-13 13-18 17q3 1 6-1l5-3 12-11c5-4 17-18 17-19q-1-4-9 4m206 0-7 11-14 18-26 21-9 9h6l3-2 4-3 15-13c6-4 22-21 26-28 8-13 9-15 5-15zm121 3-19 19a262 262 0 0 0-59 68l-10 14-24 30-11 13-3 4-7 8-8 9c-9 6-30 29-30 31q0 7 13-7l19-18c11-11 21-23 21-25l2-1 1-1 4-5 8-11 18-23 7-8 5-8 11-17 16-19c10-11 16-17 29-28 24-24 30-30 24-30q-3 0-7 5m55 13q-5 7-1 6 5 2 5-7v-4zm-319-2-9 13-12 15-21 15-9 5-11 7-8 5a156 156 0 0 0-47 43l-12 17-9 12q-7 10-3 11c2 0 10-9 10-10l22-32a209 209 0 0 1 32-31c0-1 7-4 8-3q2 1-7 11c-13 14-17 20-29 43q-11 22-7 21c2 0 6-7 17-29l14-21 12-15c10-10 11-11 9-13-2-4-1-5 14-13 20-11 28-18 38-31l8-10 3-5q5-11-3-5m68 1a286 286 0 0 0-56 66l-13 15a149 149 0 0 1-29 27c-5 5-16 13-22 16q-5 2-6 5c0 3 8 1 14-5l7-4 7-5c21-16 53-50 53-55l3-6 3-5 2-3 12-15c6-7 28-27 30-27q2-1 3-5-1-4-8 1m111-1-15 15-21 20c-10 10-14 15-20 24l-20 32-6 10-2 4a383 383 0 0 1-39 67l-9 14-3 5q-3 3-1 4 3 1 7-5l5-7 7-9 13-21 4-8 20-37 10-16 12-20 2-4 11-16 5-5 12-12q35-33 34-36-1-2-6 1m-452 4-3 5c-5 6-25 27-39 39a166 166 0 0 0-28 35l-4 7-3 5-2 2-4 5-6 10-8 14-2 2-7 9-14 16q-14 14-6 13c2 0 8-6 8-8l1-1 16-19 7-8 6-9 3-5 5-7 7-12 3-4 3-5 14-20 28-28 28-31q5-8-3-5m209 2-6 6-5 7-11 14-9 13c-13 23-27 39-52 65q-17 16-10 15c2 0 30-27 40-40 8-9 9-10 17-23l21-31 15-17 7-8a4 4 0 0 0-7-1m200 20c-10 8-41 38-41 40q2 4 5 0l21-21c3-1 17-15 20-20q5-6-5 1m66 1-3 4-14 20q-13 14-32 30l-9 9-7 5a258 258 0 0 0-54 63l-4 7q2 4 8-3l3-5 8-12 16-20a174 174 0 0 1 30-29l15-13a180 180 0 0 0 37-38l1-1 3-4 3-4 3-5c5-7 2-11-4-4m118-1a135 135 0 0 1-41 34l-1 1-7 4-9 6-7 5-16 12c-13 10-46 48-46 52q1 8 15-12l23-26 20-16 7-6 24-16 8-4 8-6c3-1 15-11 20-17q5-7 5-3v-8l-1-3zm-46 2-10 10-8 7-20 16c-9 7-33 31-37 37-15 19-43 49-68 70-10 8-26 25-34 36l-11 14q-6 7-2 8l2-1 4-4 5-7c9-12 33-39 42-44l4-5 2-2 13-10 12-12 25-27c7-9 12-15 28-31l31-28 15-12q16-15 14-16-1-4-7 1m-198 1q-4 2-28 26c-24 23-25 24-31 32a338 338 0 0 1-52 50l-34 20a178 178 0 0 0-45 27q-5 5-6 2c0-2 9-12 13-15l4-4 7-8 11-13 12-15q8-10 8-13c0-4-5-2-7 3l-4 5-10 14-24 26-18 20c-6 7-16 18-23 23l-10 12-30 30q-23 21-20 26c2 1 3 0 11-8q5-8 11-12l17-17 40-41q4-5 5 0c0 3 10-4 20-14l16-12 2-2 6-2 18-9 28-16 13-9c8-5 39-37 41-42 3-5 45-47 58-56q8-7 6-9t-5 1m-88 9-12 17-19 21c-40 39-52 52-52 59q1 7 10-6l9-12 5-7 28-27 9-8 11-12c9-10 22-31 20-34q-1-4-9 9M78 74l-8 5-5 3-5 3c-4 0-20 17-30 32l-5 6-3 5q-6 9-1 10c2 0 3-1 10-13l14-18q9-13 25-22 23-13 18-15c-2-3-1-3-10 4m251-5c-13 5-37 23-44 34-14 22-15 23-33 41-40 39-40 39-35 39q2 1 18-15l21-20 18-21 7-9 6-7c7-12 28-31 33-31l1-1 6-3c7-3 9-9 2-7M186 81l-9 20a186 186 0 0 1-53 64q-9 6-14 13l-13 14c-16 17-18 19-18 21q1 5 8-3l5-6 29-29q8-10 20-18l5-6 7-7 16-19 3-5 2-3 5-8 10-23q4-9 1-10-2 0-4 5m573 4-4 6-5 7-23 24-5 5-11 9-14 11-3 2-26 19-19 14c-3 0-24 20-35 33-5 5-13 21-12 22q3 5 8-6a165 165 0 0 1 45-47c2 0 6-4 23-16l17-14 6-4 5-4 6-4 7-6a175 175 0 0 0 34-34l4-5q7-7 7-11-2-3-5-1m-238 2a122 122 0 0 0-26 26l-6 7c-2 2-16 25-16 27l1 2q3 1 4-2a230 230 0 0 1 48-59q-1-3-5-1m-386 30-22 30c-2 4-17 21-30 32l-27 24-9 10-13 13q-8 10-1 7l23-21 30-28a286 286 0 0 0 50-58l8-16q-1-5-9 7m107-4q-17 18-35 31c-13 9-31 27-45 46l-14 17q-9 10-3 8 5-2 15-14l9-13c10-12 36-38 46-43 8-5 35-30 35-33q-1-4-8 1m526 1-9 12-8 10-6 7-8 9-14 16q-5 6-4 8 3 2 16-13l7-8 14-17q13-13 13-21zm-470 3c-5 3-20 19-27 28l-42 43-18 15-8 6-27 25q-2 5 2 5l10-9 14-13 6-5 2-2 4-2 9-8a335 335 0 0 0 52-52c8-11 26-29 30-30l2-2q-2-4-9 1m204 22-15 16a475 475 0 0 1-66 68l-11 10a197 197 0 0 0-40 50l-5 6-3 5q-3 5-2 6 2 3 8-5 11-15 6-1-6 13-7 25l-1 10-3 36-1 6-7 19-9 18c-1 1-12 23-12 26q-1 5 3 1c5-7 27-50 27-54l1-5 3-8 4-43c0-13 3-22 13-38q6-13-3-7c-11 8 1-12 16-28q17-19 26-25l22-21a513 513 0 0 0 47-51l8-11 6-5q8-7 3-7-1-1-8 7m27-3c-8 8-21 25-23 29l-21 33-2 2-5 8-14 27-5 7-8 12-5 8-1 2-1 1-2 2-15 20-6 8-6 7c-2 1-3 6-2 7q2 3 7-5l4-5 4-5 13-17 2-3 9-12 7-10 5-11 4-5 6-10 10-17 13-21 20-30 12-14 4-5q5-4 3-6-1-5-7 3m239 3-1 2-6 7c-7 9-31 33-39 40q-17 11-8 10 8 0 44-37c10-11 11-13 11-19zm-707 9-7 11-21 28-8 10-15 16q-12 10-10 13l1 3 12-12a275 275 0 0 0 33-38l20-29q-2-3-5-2m382 11-22 25-7 8-9 7-20 16-1 1a107 107 0 0 0-28 30l-10 14c-1 0-3 7-2 8q3 0 5-3l3-5 3-4c0-1 6-11 10-15a164 164 0 0 1 36-32l11-10 17-16 9-10 8-9 5-8q-2-6-8 3m-240 9-19 19-4 6-4 5-3 4-2 2-1 2-1 2-5 9-6 12-3 6-5 10-10 14-5 7-12 15-12 14q-13 16-10 17 3 0 7-6l19-22 17-21 10-16 1-2 10-16a208 208 0 0 1 34-50l8-8c2 0 16-12 16-13l-4-2c-2 0-4 1-16 12m374-8c-11 10-46 47-46 49l-11 16-1 2-2 4-3 4-5 8-15 25-11 17-7 8-11 13-12 14-8 9-2 3q-2 3 1 6 2 0 7-8l6-7 22-25q13-15 22-31l12-20 11-17c4-7 17-24 29-37l13-14 13-12q8-7 8-9 0-4-10 2m134 3-26 27a249 249 0 0 0-49 60l-3 4-5 7-6 6-6 6q-7 9-6 11 1 3 5-1l12-14q3 1 23-31l10-13q1-5 49-51 14-14 11-16 0-5-9 5m53 0c-7 10-6 16 1 7q4-4 4-9 1-9-5 2M15 174 4 190l-2 2q-2 2-2 7l1 6 7-11 8-13c3-3 10-14 9-15q-1-5-10 8m132-6-5 8-16 17-12 13q0-2-7 3l-2 3-6 4-15 11-9 7a94 94 0 0 0-19 20l-8 9-5 8-1 1-6 10q-11 18-8 18 3 3 12-15l5-7 1-4 3-4 5-6a188 188 0 0 1 43-41l6-4 8-6a173 173 0 0 0 34-33l6-11q-1-2-4-1m107 20-24 20-21 14c-2 0-15 13-17 17l-17 23a141 141 0 0 0-19 30q-4 7-1 7a10 10 0 0 0 7-7l3-6 6-8 3-5c0-2 17-25 26-35q14-15 37-29l19-15c11-12 13-14 11-15-2-2-3-1-13 9m74-6-5 8-7 11-8 12c-4 6-9 11-22 23q-10 9-6 11c3 1 38-35 38-40l3-3 2-4 2-2 1-1 3-6c5-8 4-16-1-9m-48 5-6 6-6 7-7 13-9 15-1 1-10 15-5 7-4 5-10 12-15 16q-8 8-5 10l5-3 11-11 25-30 12-17 3-4 5-7 2-4 1-1c0-2 10-17 15-23q6-9-1-7m147 10-39 38a266 266 0 0 0-40 48l-3 5-3 6-13 28q-8 15-11 30-5 26-23 44l-8 10-7 8-14 20-5 11-6 10a49 49 0 0 1 2-23l3-7 1-4 2-5 10-22c5-9 21-33 29-41l3-5 3-5 4-6 2-4 10-20c2-7-3-9-6-1l-13 26-5 7-8 11-19 28a235 235 0 0 0-24 57l-4 25q-1 6 4 5l2 2q0 5 2 5c2 0 5-5 5-7l5-17c0-3 8-18 13-24l5-8 14-16 5-7 5-7q8-8 10-14l3-8 5-16q5-18 12-32l7-18 4-7 5-9 9-14q12-18 24-29l8-9 23-21c7-5 23-21 22-23-2-2-2-1-10 5m334 7-13 12a283 283 0 0 0-38 41l-6 7-9 10-20 25c-1 0-3 6-2 7q2 5 8-6l8-9 4-6 4-6 7-7 13-15c7-10 27-31 44-46 8-7 8-8 8-11v-4zm-113 7-42 42-1 2-1 1-10 8c-37 36-44 44-40 47q2 0 5-4l29-29c2 0 3 4 1 4l-21 30-3 6-5 10-1 5-6 16-3 6-15 27c-5 9-8 12-18 22q-12 11-10 5l1-3 4-6 8-12 3-5 3-5 3-5q4-5 1-8t-7 5l-8 16-8 13c-9 12-19 29-22 37q-12 24-6 22 3 2 7-12c7-21 19-39 21-32q3 6 12-4l23-27 5-9 15-31 2-5 1-5 3-8 6-12 7-11 2-3 25-31q8-8 6-10-2-3 8-12l30-31 3-4q3-3 1-5c-2-2-2-1-8 5m58 9-10 16-21 38-3 5c-12 24-39 58-52 67-5 2-6 4-13 11-6 5-13 14-13 16q2 5 8-2l24-24q5-2 14-12c10-11 12-13 20-25l9-13 4-6 24-46 4-7 2-4 6-10 6-10q-2-4-9 6m-114-2-25 25-13 13-12 16-6 9-13 16c-11 13-18 21-36 39l-42 45q-6 6-5 2l-1-3q-3-4-10 8l-5 8-4 5c-8 15-26 36-39 44-8 6-22 20-30 31q-6 10-2 10l4-2c14-19 19-26 28-32l5-5 2-1c2 0 24-23 27-28l11-16q5-4 3 3-3 6-1 7 3 0 8-10a88 88 0 0 1 17-23l24-26 23-23a440 440 0 0 0 45-53l19-23 18-19 12-12q10-12-2-5m94 5-5 7-7 9-8 10-19 19-11 10c-14 13-22 20-37 30-5 3-11 12-8 12l35-27a642 642 0 0 0 57-56l8-11c4-5-1-7-5-3m-245 6-4 8c-6 10-14 23-22 31l-9 12a172 172 0 0 0-23 38l-2 5-1 5-1 7-2 17c-5 31-5 32-2 32q3 1 5-16l2-14 1-10a102 102 0 0 1 26-60l4-5 9-12 4-5 10-14 9-13q7-9 1-10-2 0-5 4m-174-1c-6 7-18 25-24 38l-6 11-8 13c-8 15-24 34-36 44q-5 3-15 13l-14 13-8 9-7 8q-4 6 0 7l8-8a537 537 0 0 1 49-48l17-20 3-3 2-3 4-7 8-14 12-20 14-22 7-10v-2q-1-2-6 1m-132 4-9 13-6 9-4 6-1 2q-2 0-4 5-7 10-24 23l-19 17a134 134 0 0 0-29 47c0 2-12 25-16 30q-5 6-2 8 2 4 9-9l6-10 4-8 5-9 1-4 2-3 1-3q0-3 3-7l4-7 3-5c3-6 25-28 32-33l15-13 15-19 4-5 7-10 7-11c3-4-1-6-4-4m618 4q-6 5-10 12l-9 10-4 6-5 6-6 8a438 438 0 0 1-61 64c-4 0-15 14-19 22l-4 7q-5 9-2 9t9-9l11-16 18-17 28-27 11-13 18-23c5-8 20-26 32-38v-6zm11 5-5 7-8 10-7 10-12 17c-2 2-1 7 1 7 1 0 6-6 6-8l4-5 6-9q5-9 10-13l6-8 4-5v4l1 4v-4l-1-9v-4zm-744 1-10 12-4 5-5 7-1 4q-1 10 7-3l11-15 2-3 4-6 3-4q4-3 0-3zm473-2-4 5-1 2-1 2-7 9-13 15-11 13-10 10a179 179 0 0 0-43 51l-5 14-6 13-4 14-8 19c-5 8-16 21-18 21q-4 1 1-8 5-10 1-9-2-1-8 11-8 14-16 22l-19 22-5 9-5 7-4 6-1 4-1 2-1 4-3 7-1 4q-2 2 1 3 5 0 5-4l1-4 3-8a161 161 0 0 1 33-48q4-3 5 0 2 4 9-4l12-14 14-19 4-6 3-7 4-11 7-20 2-6a110 110 0 0 1 15-28q1-4 12-15l8-9 7-6 12-12a320 320 0 0 0 41-48q6-7 1-7-3 0-6 4m-161-1-8 12-12 21-4 7-5 9-7 12q-5 9-17 23l-10 14-1 2-5 6q-9 10-5 10c4 0 14-11 21-24l7-8 3-4 4-7 11-16 4-7 3-6 7-12 8-14 6-10 5-8zM2 242l-1 5v5l4-5 4-5zm37 4-5 6-8 10q-19 23-12 24l8-9 6-9 6-8 7-9q8-11-2-5m48 5-14 15-6 9-5 8-6 9-4 7-11 20-16 29-3 4c0 2-12 17-14 18-6 3-11 13-7 13a102 102 0 0 0 24-28l14-23q3-3 13-22l5-9 6-10 3-4 1-2c0-2 14-20 24-31q11-10 5-10zm492 5-23 22c-16 16-21 21-26 28l-20 31c-2 1-8 13-9 19l-5 11-2 7-1 4-4 8a193 193 0 0 1-36 54l-11 13q-5 5-1 6 3 0 15-14l6-7 1-1 5-7c6-7 8-9 13-18l4-7a144 144 0 0 0 15-32l1-3 2-7 4-9q3-9 12-23l6-8c10-16 15-22 41-47 13-12 23-23 23-24q0-5-10 4m-281 5a211 211 0 0 1-65 68l-4 3-5 4-4 3-2 1-5 4c-7 5-19 18-19 19h5l19-17 23-17c16-12 17-12 26-22a209 209 0 0 0 37-46c6-11 1-11-6 0m-90-4-1 3c0 2-13 18-23 30l-25 30-15 17-14 14-8 7c-16 13-17 14-16 16q3 2 11-6l9-7a335 335 0 0 0 40-42l4-5 8-9 6-7 2-4 20-23 8-14c0-2-5-1-6 0m560 6-4 6-7 14-9 14-7 12-6 8-8 11c-13 14-14 15-12 16q5 2 14-11l7-9 5-6 4-6 4-6q0-2 6-9l6-12 3-3 3-6q3-4 2-9zm-620 5-4 6-1 3-3 5a120 120 0 0 1-21 31c0 1-17 17-23 21l-31 23c-1 0-16 14-21 21q-9 10-7 11c1 1 6-1 6-3a169 169 0 0 1 41-37l10-6q13-9 28-26l12-16 4-5 4-6 3-5c2-2 9-17 8-19q-2-3-5 2m353 18-3 6-4 5c0 2-10 15-22 28l-10 11a135 135 0 0 0-30 26l-5 6-11 12c-7 7-25 33-25 34 0 4 8 0 9-5l5-6 4-6 3-4 7-8c11-15 31-35 46-46l12-12 6-7 18-22q8-11 3-12zm144 5-16 21-16 16a437 437 0 0 0-55 62l-12 19-10 19-15 19q-6 8-2 8c2 0 4-2 13-14l8-10 2-4 2-4 4-7 5-8c1-3 13-20 25-34 4-6 16-19 26-29a336 336 0 0 0 40-44q8-8 8-11 0-4-7 1m-478 3-7 9c-11 14-17 19-48 35q-19 9-24 17-6 11 6 0a43 43 0 0 1 15-11l14-7a107 107 0 0 0 48-40c3-3 0-7-4-3m182 15a170 170 0 0 0-19 57l-2 14-3 15-1 5-2 4c0 4-16 32-19 32l-2 3q-1 6 5 3 7-5 1 8-7 16-27 36c-13 13-15 14-19 13q-3-1-2 2v3l-10 7q-1 1 3 1l6-2c2 0 22-17 31-26 8-7 20-26 26-39l5-10 3-5 5-7q9-11-1-8-4 0-2-5l5-15 3-14 2-11 1-8 2-7q2-11 6-20l3-7 1-4 1-2 3-6 2-7zm-324 7-2 3-10 15-12 17-1 5v4l2-2 4-5 7-10 10-15 4-7 3-6q-3-2-5 1m237 6c-11 10-26 30-26 33l-11 16c0 7-37 45-53 54l-9 6-13 9q-15 8-9 9 3 1 5-1l5-3 28-19 7-5 6-6q3 0 11-10l12-11 4-5 4-5 6-9 10-15q10-19 25-33c9-9 10-10 9-11-2-3-2-3-11 6m503 0q-9 7-2 7 6-2 6-6v-3zm-66 3-2 1-16 12q-9 6-22 22l-7 7a340 340 0 0 0-37 69c-6 12-23 36-26 38-2 1-19 23-19 25q1 5 9-3l10-12 12-15 7-10 1-1 3-6 3-5 3-6 4-9 3-6 5-10 3-6q3-7 7-9 2-1 3-7c0-2 9-18 11-19l1-2 1-1 2-2c3-8 20-24 35-35 12-8 15-14 6-10m-532 14-23 22a256 256 0 0 1-65 43q-37 16-49 36l-4 5q-2 3 1 4 3 0 10-10a51 51 0 0 1 17-16l9-5 11-7 9-4 37-21q21-13 46-38l8-7 8-10q-2-5-15 8m115-3-9 10-1 2-1 1-5 9-11 21-7 15-2 6q-2 2-4 17a165 165 0 0 1-16 49l-8 13-10 13-5 8c-2 1-3 8-2 9q3 1 5-2l9-13 9-16 4-5 5-10a143 143 0 0 0 15-52l2-7 6-14 2-6 10-18 7-13 7-9q8-10 0-8m457 6c-4 1-16 13-26 23-9 11-10 12-13 10q-3-3-7 2c-4 3-11 13-14 19l-5 8-6 11q-3 4-4 9l-4 8-1 4-1 3-2 8-3 9-3 13-1 5-1 2-8 29q-2 7 1 7 4 1 6-11l1-5 2-9 9-34 2-7 1-2 1-3 2-4 1-4 12-24q10-16 4 4c-1 4-2 14-1 15q4 1 5-4c2-11 10-31 13-34l7-8 25-28q19-16 8-12m-525 17-10 11-10 9-10 9-10 7-14 9-24 14-30 16-1 1-5 3-10 7-14 11c-11 8-40 37-38 39q1 4 11-7l26-24c15-13 48-35 53-35l1-1 3-2 26-14 2-1q-2 0 19-13c13-9 45-39 45-43q0-6-10 4m549 5q-4 5 0 5 5-1 6-6-1-5-6 1m-155 9-9 8a237 237 0 0 0-56 70l-1 1-14 20a117 117 0 0 1-38 37l-5 3h4l8-2 5-3 2-2 3-2c4-3 17-16 24-25l11-15 3-5 2-3 17-28 5-8 5-5c10-13 23-27 30-30l14-15q-1-4-10 4m-540 2-5 4c-1 0-29 29-36 38L5 448l-4 6-1 5q-1 10 6-3c5-10 6-10 12-19l7-9c7-11 16-20 31-35q18-17 19-20 0-3-7 2m601-1-10 21-5 14-8 24-11 32-10 18-4 6-14 17-5 6h3l5-2q8-8 11-15l6-8a151 151 0 0 0 24-49l3-9 1-4 5-17 2-5 2-5 4-9c5-12 6-14 5-15zm82 4-4 5-6 10-10 16-11 23q-2 5 1 6c2 0 8-6 8-8 0-3 12-28 16-35l4-7 6-8q8-9 3-7-3 0-7 5m-23 8-3 5-1 3a97 97 0 0 0-13 26l-1 5-1 3-1 2-2 4-1 4-2 7-3 6-3 8-5 11-10 19-3 6q-8 13-12 9l6-23 2-7 4-10 4-9q-1-2-5 1l-12 27-1 3-1 7-3 10-2 7q-1 3 7 2c7 0 7 0 10-4 6-6 19-30 21-38l6-12 1-4 1-2 2-6 5-12 3-8 2-4 1-4c0-3 13-29 16-32q3-3-1-4zm-100-1-5 7a110 110 0 0 1-25 29l-8 6c-5 5 1 7 7 2l7-6 24-27 1-3 2-3q3-6-3-5m-395 12-18 19-10 7-21 14-13 7c-10 6-14 10-23 17l-7 5-5 4-1 1-2 1-4 3q-12 11-23 24-7 11 5 0l13-12 21-17 21-17c2 0 29-17 31-19l9-6 3-2 5-4 10-8 14-13 5-9q-1-6-10 5m-116 0-2 3c0 7-38 44-49 48-2 0-16 10-23 16l-13 9-11 8-15 11-3 2-1 3q0 5 3 1l8-6 6-4 12-9 14-10 15-10 18-11c17-9 47-43 47-53q-1-3-6 2m186 6c-4 3-11 12-14 17l-11 24a99 99 0 0 1-23 38c-3 4-6 7-17 14q-9 5-14 11l-5 5h3q4 0 9-4l20-16 8-6 3-2 1-1 1-2a84 84 0 0 0 19-36l5-10 11-19q12-15 11-16-1-3-7 3m290 2a278 278 0 0 0-40 56l-3 6-4 7-4 7-4 7-4 7-4 8q-8 10-3 9 5 1 12-15l8-14 4-7 7-13 5-8a239 239 0 0 1 34-47c8-9 4-12-4-3M3 408l-3 7 1 4 3-5 4-7q-2-4-5 1m525 3q-6 5-10 12l-8 9-8 11-4 5-10 16-5 9-4 6-2 5-11 24q-3 4 1 4 5 0 12-19l6-13 6-12q7-14 12-19l3-5 4-5 2-2 5-7 13-16 4-4 2-3q0-3-8 4m236 2-5 7-2 4q-3 2-4 6l-3 5-7 16-3 8-4 9-3 10-2 6-3 5-1 5-2 6-3 8-2 4h3q5-1 6-9l1-4 4-9a275 275 0 0 1 33-74l2-7v-3zm-17-5a70 70 0 0 0-13 20q-5 9-2 9t9-11l6-11q6-11 0-7m-596 13-9 7a228 228 0 0 0-38 42l-12 18-4 5-16 17-3 2h4q10-1 28-27c10-17 17-26 26-35l8-9 4-3c11-8 22-18 21-20q-2-3-9 3m69 7-5 5a267 267 0 0 1-43 41l-24 25-4 6-3 5q-2 3 1 2 6-2 10-8a169 169 0 0 1 27-29l3-3 12-9 2-2 13-13q15-17 17-23-1-3-6 3m215 4a122 122 0 0 0-57 59l-5 9-5 9q-3 3 2 3 2 1 6-6l3-6 4-7c11-21 18-32 29-41l9-7 2-1 2-1 14-8q13-7 9-7-3-3-13 4m25 21-26 21-9 7-20 16-7 9-5 6h3l4-2c1-3 13-13 19-18a334 334 0 0 0 49-42q13-11 7-11-3 1-15 14m264-5q-7 17 3 5 5-9 1-9zm42-1-9 31-5 13-2 6-1 5q-4 10-1 10 3 1 5-7l7-23 2-7 1-2 5-15v-12zm-554 8-5 8c-13 24-16 28-22 35-10 12-11 14-9 14l5-2 3-3a116 116 0 0 0 20-29c3-3 13-23 13-24q-2-3-5 1m360 10-14 20c-5 7-12 21-13 25q-1 3 2 2 3 0 3-2l4-7 1-2 6-11q8-13 15-21l2-4q-2-3-6 0m-419 4-27 36q-7 9-1 7 2 1 8-8l8-12 2-3 7-8 9-10q5-5 3-6-3-3-9 4m560 2-9 20-9 19q-2 3 2 2 4 1 4-5l14-32q5-8 2-7zm-109 11-19 21-3 5q-6 4 1 4l3-1 3-4 10-13 11-11q8-6 6-9c-2-1-2-1-12 8m-534-2-14 15-4 7q-9 12-4 10 5-1 6-6l2-2 1-1c0-2 7-11 15-18l5-7 3-4h-3q-3-1-7 6m222 8-2 5-1 1-2 2c0 3-8 14-9 15q-1 1 2 1a5 5 0 0 0 6-4c5-5 13-20 12-22q-4-3-6 2m157 8c-3 1-17 16-15 16q5-1 11-6l5-6q6-6-1-4m-96 9-4 2-6 3-2 2h5l6-1 4-3 4-3z"
        mask="url(#16282281824-posters-1720560186792-horizontal-mask)" itemprop="bold" fill-opacity="0.90"
        fill-rule="evenodd" stroke="none" fill="url(#16282281824-posters-1720560186792-vertical-bold)"></path>
    </pattern>
    <rect id="16282281824-posters-1720560186792-pattern-render" fill="url(#16282281824-posters-1720560186792-pattern)"
      width="100%" height="100%"></rect>
  </defs>
  <radialGradient id="lightbar" cx="50%" cy="200%" fy="0" r="201%">
    <stop offset="0%" style="stop-color: rgb(255, 255, 255); stop-opacity: 0.1;"></stop>
    <stop offset="10%" style="stop-color: rgb(0, 0, 0); stop-opacity: 0.1;"></stop>
    <stop offset="30%" style="stop-color: rgb(0, 0, 0); stop-opacity: 0.3;"></stop>
    <stop offset="90%" style="stop-color: rgb(0, 0, 0); stop-opacity: 0.55;"></stop>
    <stop offset="100%" style="stop-color: rgb(0, 0, 0); stop-opacity: 0.6;"></stop>
  </radialGradient>
  <g class="radial">
    <radialGradient id="16282281824-posters-1720560186792-radial" gradientUnits="userSpaceOnUse">
      <stop itemprop="radial" stop-color="#adaca9" offset="0%"></stop>
      <stop itemprop="radial" stop-color="#aaa9a7" offset="15%"></stop>
      <stop itemprop="radial" stop-color="#a8a7a4" offset="30%"></stop>
      <stop itemprop="radial" stop-color="#a3a19f" offset="45%"></stop>
      <stop itemprop="radial" stop-color="#a5a4a1" offset="60%"></stop>
      <stop itemprop="radial" stop-color="#afaeac" offset="75%"></stop>
      <stop itemprop="radial" stop-color="#adaba9" offset="90%"></stop>
    </radialGradient>
    <radialGradient id="16282281824-posters-1720560186792-radial-background" gradientUnits="userSpaceOnUse">
      <stop stop-color="#d3cfc5" offset="0%"></stop>
      <stop stop-color="#d3cec5" offset="15%"></stop>
      <stop stop-color="#d3cfc5" offset="30%"></stop>
      <stop stop-color="#d3cfc5" offset="45%"></stop>
      <stop stop-color="#d3cfc5" offset="60%"></stop>
      <stop stop-color="#d3cec5" offset="75%"></stop>
      <stop stop-color="#d3cec5" offset="90%"></stop>
    </radialGradient>
    <radialGradient id="16282281824-posters-1720560186792-radial-light" gradientUnits="userSpaceOnUse">
      <stop stop-color="#9b9a97" offset="0%"></stop>
      <stop stop-color="#9b9997" offset="15%"></stop>
      <stop stop-color="#9b9a97" offset="30%"></stop>
      <stop stop-color="#9b9a97" offset="45%"></stop>
      <stop stop-color="#9b9a97" offset="60%"></stop>
      <stop stop-color="#9b9a97" offset="75%"></stop>
      <stop stop-color="#9b9a97" offset="90%"></stop>
    </radialGradient>
    <radialGradient id="16282281824-posters-1720560186792-radial-regular" gradientUnits="userSpaceOnUse">
      <stop stop-color="#82817d" offset="0%"></stop>
      <stop stop-color="#82807d" offset="15%"></stop>
      <stop stop-color="#82817d" offset="30%"></stop>
      <stop stop-color="#82817d" offset="45%"></stop>
      <stop stop-color="#82817d" offset="60%"></stop>
      <stop stop-color="#82807d" offset="75%"></stop>
      <stop stop-color="#82807d" offset="90%"></stop>
    </radialGradient>
    <radialGradient id="16282281824-posters-1720560186792-radial-medium" gradientUnits="userSpaceOnUse">
      <stop stop-color="#51504d" offset="0%"></stop>
      <stop stop-color="#514f4d" offset="15%"></stop>
      <stop stop-color="#51504d" offset="30%"></stop>
      <stop stop-color="#51504d" offset="45%"></stop>
      <stop stop-color="#51504d" offset="60%"></stop>
      <stop stop-color="#514f4d" offset="75%"></stop>
      <stop stop-color="#514f4d" offset="90%"></stop>
    </radialGradient>
    <radialGradient id="16282281824-posters-1720560186792-radial-bold" gradientUnits="userSpaceOnUse">
      <stop stop-color="#2f2e2d" offset="0%"></stop>
      <stop stop-color="#2f2e2d" offset="15%"></stop>
      <stop stop-color="#2f2e2d" offset="30%"></stop>
      <stop stop-color="#2f2e2d" offset="45%"></stop>
      <stop stop-color="#2f2e2d" offset="60%"></stop>
      <stop stop-color="#2f2e2d" offset="75%"></stop>
      <stop stop-color="#2f2e2d" offset="90%"></stop>
    </radialGradient>
  </g>
  <g class="vertical">
    <linearGradient id="16282281824-posters-1720560186792-vertical" gradientUnits="userSpaceOnUse" x1="0" x2="0" y1="0"
      y2="100%">
      <stop itemprop="vertical" stop-color="#adaca9" offset="0%"></stop>
      <stop itemprop="vertical" stop-color="#aaa9a7" offset="15%"></stop>
      <stop itemprop="vertical" stop-color="#a8a7a4" offset="30%"></stop>
      <stop itemprop="vertical" stop-color="#a3a19f" offset="45%"></stop>
      <stop itemprop="vertical" stop-color="#a5a4a1" offset="60%"></stop>
      <stop itemprop="vertical" stop-color="#afaeac" offset="75%"></stop>
      <stop itemprop="vertical" stop-color="#adaba9" offset="90%"></stop>
    </linearGradient>
    <linearGradient id="16282281824-posters-1720560186792-vertical-background" gradientUnits="userSpaceOnUse" x1="0"
      x2="0" y1="0" y2="100%">
      <stop stop-color="#cdcdcb" offset="0%"></stop>
      <stop stop-color="#cdcccb" offset="15%"></stop>
      <stop stop-color="#cdcccb" offset="30%"></stop>
      <stop stop-color="#cdcccb" offset="45%"></stop>
      <stop stop-color="#cdcccb" offset="60%"></stop>
      <stop stop-color="#cdcccb" offset="75%"></stop>
      <stop stop-color="#cdcccb" offset="90%"></stop>
    </linearGradient>
    <linearGradient id="16282281824-posters-1720560186792-vertical-light" gradientUnits="userSpaceOnUse" x1="0" x2="0"
      y1="0" y2="100%">
      <stop stop-color="#aea484" offset="0%"></stop>
      <stop stop-color="#ae9e84" offset="15%"></stop>
      <stop stop-color="#aea284" offset="30%"></stop>
      <stop stop-color="#aea284" offset="45%"></stop>
      <stop stop-color="#ae9e84" offset="60%"></stop>
      <stop stop-color="#ae9f84" offset="75%"></stop>
      <stop stop-color="#ae9f84" offset="90%"></stop>
    </linearGradient>
    <linearGradient id="16282281824-posters-1720560186792-vertical-regular" gradientUnits="userSpaceOnUse" x1="0" x2="0"
      y1="0" y2="100%">
      <stop stop-color="#82817d" offset="0%"></stop>
      <stop stop-color="#82807d" offset="15%"></stop>
      <stop stop-color="#82817d" offset="30%"></stop>
      <stop stop-color="#82817d" offset="45%"></stop>
      <stop stop-color="#82807d" offset="60%"></stop>
      <stop stop-color="#82807d" offset="75%"></stop>
      <stop stop-color="#82807d" offset="90%"></stop>
    </linearGradient>
    <linearGradient id="16282281824-posters-1720560186792-vertical-medium" gradientUnits="userSpaceOnUse" x1="0" x2="0"
      y1="0" y2="100%">
      <stop stop-color="#51504d" offset="0%"></stop>
      <stop stop-color="#514f4d" offset="15%"></stop>
      <stop stop-color="#51504d" offset="30%"></stop>
      <stop stop-color="#51504d" offset="45%"></stop>
      <stop stop-color="#514f4d" offset="60%"></stop>
      <stop stop-color="#514f4d" offset="75%"></stop>
      <stop stop-color="#514f4d" offset="90%"></stop>
    </linearGradient>
    <linearGradient id="16282281824-posters-1720560186792-vertical-bold" x1="0" x2="0" y1="0" y2="100%">
      <stop stop-color="#2f2e2d" offset="0%"></stop>
      <stop stop-color="#2f2e2d" offset="15%"></stop>
      <stop stop-color="#2f2e2d" offset="30%"></stop>
      <stop stop-color="#2f2e2d" offset="45%"></stop>
      <stop stop-color="#2f2e2d" offset="60%"></stop>
      <stop stop-color="#2f2e2d" offset="75%"></stop>
      <stop stop-color="#2f2e2d" offset="90%"></stop>
    </linearGradient>
  </g>
  <g class="horizontal">
    <linearGradient id="16282281824-posters-1720560186792-horizontal" x1="0" x2="100%" y1="0" y2="0"
      gradientUnits="userSpaceOnUse">
      <stop itemprop="horizontal" stop-color="#adaca9" offset="0%"></stop>
      <stop itemprop="horizontal" stop-color="#a8a6a4" offset="15%"></stop>
      <stop itemprop="horizontal" stop-color="#a5a3a1" offset="30%"></stop>
      <stop itemprop="horizontal" stop-color="#aaa9a7" offset="45%"></stop>
      <stop itemprop="horizontal" stop-color="#aaa9a7" offset="60%"></stop>
      <stop itemprop="horizontal" stop-color="#a3a19f" offset="75%"></stop>
      <stop itemprop="horizontal" stop-color="#b2b0ae" offset="90%"></stop>
    </linearGradient>
    <linearGradient id="16282281824-posters-1720560186792-horizontal-background" gradientUnits="userSpaceOnUse" x1="0"
      x2="100%" y1="0" y2="0">
      <stop stop-color="#cdcccb" offset="0%"></stop>
      <stop stop-color="#cdcccb" offset="15%"></stop>
      <stop stop-color="#cdcccb" offset="30%"></stop>
      <stop stop-color="#cdcccb" offset="45%"></stop>
      <stop stop-color="#cdcccb" offset="60%"></stop>
      <stop stop-color="#cdcccb" offset="75%"></stop>
      <stop stop-color="#cdcccb" offset="90%"></stop>
    </linearGradient>
    <linearGradient id="16282281824-posters-1720560186792-horizontal-light" gradientUnits="userSpaceOnUse" x1="0"
      x2="100%" y1="0" y2="0">
      <stop stop-color="#9b9a97" offset="0%"></stop>
      <stop stop-color="#9b9a97" offset="15%"></stop>
      <stop stop-color="#9b9997" offset="30%"></stop>
      <stop stop-color="#9b9a97" offset="45%"></stop>
      <stop stop-color="#9b9997" offset="60%"></stop>
      <stop stop-color="#9b9a97" offset="75%"></stop>
      <stop stop-color="#9b9a97" offset="90%"></stop>
    </linearGradient>
    <linearGradient id="16282281824-posters-1720560186792-horizontal-regular" gradientUnits="userSpaceOnUse" x1="0"
      x2="100%" y1="0" y2="0">
      <stop stop-color="#968969" offset="0%"></stop>
      <stop stop-color="#968669" offset="15%"></stop>
      <stop stop-color="#968369" offset="30%"></stop>
      <stop stop-color="#968969" offset="45%"></stop>
      <stop stop-color="#968569" offset="60%"></stop>
      <stop stop-color="#968969" offset="75%"></stop>
      <stop stop-color="#968669" offset="90%"></stop>
    </linearGradient>
    <linearGradient id="16282281824-posters-1720560186792-horizontal-medium" gradientUnits="userSpaceOnUse" x1="0"
      x2="100%" y1="0" y2="0">
      <stop stop-color="#5d5541" offset="0%"></stop>
      <stop stop-color="#5d5341" offset="15%"></stop>
      <stop stop-color="#5d5141" offset="30%"></stop>
      <stop stop-color="#5d5541" offset="45%"></stop>
      <stop stop-color="#5d5241" offset="60%"></stop>
      <stop stop-color="#5d5541" offset="75%"></stop>
      <stop stop-color="#5d5341" offset="90%"></stop>
    </linearGradient>
    <linearGradient id="16282281824-posters-1720560186792-horizontal-bold" gradientUnits="userSpaceOnUse" x1="0"
      x2="100%" y1="0" y2="0">
      <stop stop-color="#2f2e2d" offset="0%"></stop>
      <stop stop-color="#2f2e2d" offset="15%"></stop>
      <stop stop-color="#2f2e2d" offset="30%"></stop>
      <stop stop-color="#2f2e2d" offset="45%"></stop>
      <stop stop-color="#2f2e2d" offset="60%"></stop>
      <stop stop-color="#2f2e2d" offset="75%"></stop>
      <stop stop-color="#2f2e2d" offset="90%"></stop>
    </linearGradient>
  </g>
  <g class="masks">
    <mask id="16282281824-posters-1720560186792-pattern-mask" maskUnits="userSpaceOnUse"
      maskContentUnits="userSpaceOnUse">
      <pattern id="pattern" x="0" y="0" width=".0133" height=".0144" viewBox="0 0 23.07 40">
        <path
          d="M17.62 0l-6.07 10.5m2.74 4.76L8.22 4.75m-5.48 0h12.13M.01 0h23.07M6.07 20L0 9.5m2.74-4.75l-6.07 10.5m-5.48 0H3.33m8.2 4.75L0 .02-11.54 20m40.68 0L23.07 9.5m2.74-4.75l-6.06 10.5m-5.49 0H26.4M34.6 20L23.08.02 11.53 20m-5.46 0L0 30.51m2.74 4.75l-6.07-10.5m-5.48 0H3.33m8.2-4.75L0 40l-11.54-19.98zM17.6 40l-6.06-10.5m2.74-4.76L8.2 35.25m-5.48 0h12.13M0 40h23.07L11.54 20.01m17.6 0l-6.07 10.5m2.74 4.75l-6.06-10.5m-5.49 0H26.4M11.53 20h23.08L23.07 40"
          stroke-linecap="round" stroke-width="3.5" stroke="white"
          fill="url(#16282281824-posters-1720560186792-horizontal-background)"></path>
      </pattern>
      <rect width="100%" height="100%" fill="url(#pattern)"></rect>
    </mask>
    <mask id="16282281824-posters-1720560186792-horizontal-mask" maskUnits="userSpaceOnUse"
      maskContentUnits="userSpaceOnUse">
      <rect width="100%" height="100%" fill="url(#16282281824-posters-1720560186792-horizontal-background)"></rect>
    </mask>
    <mask id="16282281824-posters-1720560186792-radial-mask" maskUnits="userSpaceOnUse"
      maskContentUnits="userSpaceOnUse">
      <rect width="100%" height="100%" fill="url(#16282281824-posters-1720560186792-radial-background)"></rect>
    </mask>
    <mask id="16282281824-posters-1720560186792-vertical-mask" maskUnits="userSpaceOnUse"
      maskContentUnits="userSpaceOnUse">
      <rect width="100%" height="100%" fill="url(#16282281824-posters-1720560186792-vertical-background)"></rect>
    </mask>
  </g>
  <use href="#16282281824-posters-1720560186792-pattern-render"></use>
  <g>
    <use href="#16282281824-posters-1720560186792-background"></use>
    <use href="#16282281824-posters-1720560186792-light"></use>
    <use href="#16282281824-posters-1720560186792-regular"></use>
    <use href="#16282281824-posters-1720560186792-medium"></use>
    <use href="#16282281824-posters-1720560186792-bold"></use>
  </g>
  <g itemprop="animation">
    <animate href="#16282281824-posters-1720560186792-light" attributeName="stroke-opacity" repeatCount="indefinite"
      dur="5s" values="0.9;0.0;0.9"></animate>
    <animate href="#16282281824-posters-1720560186792-regular" attributeName="stroke-opacity" repeatCount="indefinite"
      dur="4s" values="0.9;0;0.9"></animate>
    <animate href="#16282281824-posters-1720560186792-medium" attributeName="stroke-opacity" repeatCount="indefinite"
      dur="5s" values="0.9;0;0.9"></animate>
    <animate href="#16282281824-posters-1720560186792-bold" attributeName="stroke-opacity" repeatCount="indefinite"
      dur="3s" values="0.9;0;0.9"></animate>
    <animate href="#16282281824-posters-1720560186792-regular" attributeName="fill-opacity" repeatCount="indefinite"
      dur="8s" values="0.9;0.75;0.95;0.8;0.9;"></animate>
    <animate href="#16282281824-posters-1720560186792-radial-background" attributeName="cx" repeatCount="indefinite"
      dur="34s" values="0%;33%;100%;0%;100%;0%;"></animate>
    <animate href="#16282281824-posters-1720560186792-radial-background" attributeName="cy" repeatCount="indefinite"
      dur="55s" values="0%;100%;33%;100%;66%;0%"></animate>
    <animate href="#16282281824-posters-1720560186792-vertical-light" attributeName="x1" repeatCount="indefinite"
      dur="55s" values="0%;33%;100%;0%;133%;0%;"></animate>
    <animate href="#16282281824-posters-1720560186792-vertical-light" attributeName="y1" repeatCount="indefinite"
      dur="86s" values="0%;100%;33%;100%;66%;0%"></animate>
    <animate href="#16282281824-posters-1720560186792-horizontal-regular" attributeName="x1" repeatCount="indefinite"
      dur="34s" values="0%;100%;66%;0%;33%;133%;0%"></animate>
    <animate href="#16282281824-posters-1720560186792-horizontal-regular" attributeName="y1" repeatCount="indefinite"
      dur="55s" values="0%;66%;100%;33%;100%;66%;0%"></animate>
    <animate href="#16282281824-posters-1720560186792-vertical-medium" attributeName="x1" repeatCount="indefinite"
      dur="34s" values="0%;100%;66%;0%;33%;133%;0%"></animate>
    <animate href="#16282281824-posters-1720560186792-vertical-medium" attributeName="y1" repeatCount="indefinite"
      dur="55s" values="0%;66%;100%;33%;100%;66%;0%"></animate>
    <animate href="#16282281824-posters-1720560186792-vertical-bold" attributeName="x1" repeatCount="indefinite"
      dur="34s" values="0%;100%;66%;0%;33%;133%;0%"></animate>
    <animate href="#16282281824-posters-1720560186792-vertical-bold" attributeName="y1" repeatCount="indefinite"
      dur="55s" values="0%;66%;100%;33%;100%;66%;0%"></animate>
  </g>
</svg>
