<svg id="16282281824-posters-1720558160581" itemscope="" itemtype="/posters"
  itemid="/+16282281824/posters/1720558160581" viewBox="0 0 769 512" preserveAspectRatio="xMidYMid meet" tabindex="0"
  class="animate landscape" xmlns="http://www.w3.org/2000/svg">
  <!---->
  <defs class="graphic">
    <pattern id="16282281824-posters-1720558160581-pattern" width="769" height="512" viewBox="0 0 769 512"
      patternUnits="userSpaceOnUse" preserveAspectRatio="xMidYMid meet">
      <rect itemprop="background" width="769" height="512" tabindex="-1"
        id="16282281824-posters-1720558160581-background" fill-opacity="1"
        fill="url(#16282281824-posters-1720558160581-radial-background)"></rect>
      <!---->
      <path id="16282281824-posters-1720558160581-light"
        d="m144 1 1 3q3 3-7 2-12 1-11 4 3 6 19 5c10 0 10 0 12-2V7l-2-5q1-2-6-2zm71 4q-25 18 0 23l10 1q7 1 6-2 0-6-7-7-10-1-1-8c9-10 3-15-8-7M20 6C5 14 3 17 12 26q18 17 19 7c0-3 0-3-6-9q-7-5-1-9c9-7 9-7 9-10q0-6-13 1m364 9c-5 3-17 16-17 19q1 7 13-3l5-3 1 2q6 15 9 15t4-2c2-2 1-5-4-22q-3-9-11-6m236 9q-5 2 7 9c10 6 10 7 1 13q-12 6-8 10a9 9 0 0 0 12-3l14-8q7-7-8-16-16-10-18-5m-150 7c-18 14-18 17 3 24q14 5 14 0 1-4-9-7-9-4-6-7l2-2 9-9q-1-8-13 1M68 33l1 9q4 10-2 6-13-5-14 1c0 4 16 13 24 13 9 0 9-4 2-23-2-7-9-11-11-6m233 1q-3 3-2 9l1 6c-1 3 0 3-10 1q-5 0-7 2-5 4 8 8l10 3q12 3 12-8-4-27-12-21m386 2c-2 2-1 15 1 17l1 3c0 9 8 12 14 6l4-3c2 0 12-11 12-13q0-9-16 3-6 5-7-4c-1-7-7-13-9-9m-138 2q-19 2-16 8 0 2 10 2 15-2 10 6-3 11 2 14 7 1 10-15c2-14 0-16-16-15m215 15q-7 3-7 7c0 3 5 5 6 3l4-1q3 1 2-5v-6zm-591 0c-10 2-10 2-10 5q-1 5 11 5 9-2 4 9-2 8 3 9 6 1 10-17 1-14-18-11m66 23q-3 2 0 6c7 10 7 11-2 14-18 5-9 12 10 7q16-2 5-17-9-16-13-10m176 0-2 7c-1 6-1 6-8 3-12-6-17 0-6 7l7 4q11 7 14 0c2-3 4-18 2-21q-3-5-7 0M116 87v9l4 13q1 6 7 7a19 19 0 0 0 13-11c2 0 7-13 6-14q-5-5-12 6-4 6-7-1c-4-9-4-9-8-10zm222 8c-22 8-22 12-4 24q11 9 14 2 1-2-9-10-5-5 1-7l3-1 3-2q7-2 3-7c-2-2-3-2-11 1m299 2c-3 4-3 5 3 22q3 10 8 6c2-2 2-2 0-14 0-5 0-5 10-3q10 1 10-2 2-3-10-7l-11-3q-6-3-10 1m-160 4-8 7q-7 7-3 9 3 2 11-4 6-6 8 2l6 10q7 1 5-9l-2-9q-5-16-17-6m-451-1-18 7q-4 8 12 4 9-4 8 6t3 10c7 0 9-23 3-28-2-1-2-1-8 1m44 8q-3 4 6 9l5 5q-1 3-7 4-9 2-8 8 1 5 13 0 23-7 15-14-19-18-24-12m488 2-3 7-1 8q-3 15 10 11l9-2q14-3 10-10l-9-1c-9 1-9 1-8-6 2-9-4-14-8-7m-369 6-3 5-3 6q-10 16 13 15 14 0 14-3 3-6-10-7c-7 0-8 0-4-8q6-9 1-10-5-4-8 2m527-2q-5 5 10 8 8-1 3 7-4 5-3 9 2 3 8-1l11-17c1-7-2-8-17-8-10 0-11 0-12 2m-434 19-2 6-4 7-5-5q-7-7-10-3-3 2 2 9l6 8c2 7 16 8 16 1l1-3 5-20q-3-9-9 0m95-2c-4 4-6 22-2 26q4 4 12 1l8-4q8-3 9-6c0-4-7-5-12-2q-8 5-7-6-1-13-8-9m-264 24c-3 1-4 3-5 14q-4 18 1 18 6-1 7-8c0-4 2-11 3-11l6 4q10 7 11 1c0-5-17-21-20-19zm373 7-7 1q-16 2-4 19 10 13 13 10l1-2-1-5-3-7-2-3 2-2 6-2q8-2 8-7c0-3-7-4-13-2m155 2-6 3-5 2-6 6q1 5 11 2 8-4 8 5c1 9 1 9 4 9q4 2 6-15 2-16-12-12m64 10-3 6-3 9q-6 13 16 10 18 0 14-6 0-2-9-2-14 1-9-8c4-9-1-15-6-9m-535 6q-2 2 2 5l4 3q5 1 6 5l-5 5q-5 4-5 7 2 6 10 0l15-15a11 11 0 0 0-10-8l-13-4zm239 5-1 9q0 12-9 4-7-6-10-3-5 2 6 11l8 6c1 2 7 3 10 2 4-2 7-21 4-28q-5-6-8-1m164 0q-3 2-5 7-4 9-7 4l-2-3-1-1-2-3c-2-5-10-5-10 0s9 19 14 21q7 3 10-3l7-11c5-8 5-8 4-11q-3-4-8 0m-532 1c-2 4-1 24 1 26q5 3 12 0l7-3q10-5 10-9-2-6-12 0-10 5-9-3l-3-12q-4-2-6 1m283-1q-10 0-10 3-1 4 6 5 16-1 10 9c-4 8 0 14 5 10 2-3 10-18 10-21q-1-8-21-6M0 190q-1 5 3 4 8 1 8-3 0-3-7-5H0zm245 2q-3 3 1 8 9 10-1 10c-8 0-14 5-10 8 3 4 27 0 29-4q4-3-6-13-9-14-13-9m-124 38c-3 5-6 23-4 27 1 4 3 4 17-1q20-6 15-11-3-2-11 1-12 3-10-4l1-6c2-4-5-9-8-6m342 2-5 2-7 3q-8 3-8 6 0 4 11 1 11-2 9 3-3 19 5 13l3-8 2-9q5-15-10-11m122 5q-4 2 0 6l8 2q13 0 4 10-6 7-2 10 2 3 8-4 15-17 8-22c-3-1-23-3-26-2m71 6c-2 3-3 22-2 25q1 8 19-1 13-6 10-10t-7-1c-11 5-12 5-12-5 0-8-5-14-8-8m73 0c-3 4-7 22-5 26a4 4 0 0 0 8-1l2-6q1-13 8-5 6 7 10 5t-2-9c-13-12-17-14-21-10m-523 6-4 3-13 10c-6 6 0 9 9 4 8-4 8-4 8 4q0 8 2 9 8 6 8-8l1-12q0-14-11-10M2 250q-2 4 7 8 16 3 5 11-9 6-6 10 4 3 10-3c17-14 18-17 6-22l-7-3c-4-2-15-2-15-1m350 1q-3 2 3 12c9 17 13 17 25 0q6-10 3-12-4-4-10 6-7 10-9 2-7-12-12-8m-291 4c-4 4-4 27-1 30q7 6 7-7-1-16 11-9 7 3 10 0l2-2-3-3-3-3-7-3c-13-6-13-6-16-3m216 0c-2 1-3 3-9 15q-3 6 0 8 2 2 8-4 4-6 6-6l3 6q8 9 11 2c0-5-9-21-13-22q-3-2-6 1m246 1c-6 3-17 15-17 18q0 6 11 8l9 2q12 3 11-2 1-4-8-6-14-3-5-9 9-12-1-11m-413 41q-3 2 4 10c5 7 5 7-3 9q-14 4-9 10c2 2 6 1 23-4q15-3-1-18-9-10-14-7m288 2c-3 4-5 20-3 24q2 4 6 1l2-7 3-6c1-1 8 2 10 4h7q2-3-11-12-9-8-14-4m-65 5q-19 13-15 18c1 3 19 11 23 11q10-1 0-9-14-4-3-12 7-7 2-10-1-2-7 2m-162 3c-3 2-3 23 0 25q5 4 14-1l7-4 3-2 3-3 1-3q-1-7-9-2c-10 6-11 6-11-2q0-14-8-8M0 322l1 14 1-15-1-13zm637-12q-5 6 14 9 8 0 0 7-7 7-4 10 5 2 10-4l6-8q13-13-15-14zm-383 2q-5 4 5 10 9 7 0 9c-11 4-14 10-5 10l23-8q7-4-14-19-5-4-9-2m306 4c-2 3-2 3 0 14q3 17 8 10 2-2 1-8-1-9 7-6 16 4 15-2c0-4-2-4-13-8-15-4-15-4-18 0m169-1c-5 3-15 18-14 21 2 5 5 6 23 5 11 0 10-8-1-8l-7-1c-2 0-3-4-1-4 3-2 7-11 5-14q-2-2-5 1m-252 14q-2 2 2 11c5 16 8 17 19 5q10-11 7-14-2-3-10 4-7 9-10 0-5-9-8-6m-430 5q-3 3 1 14l1 6c0 7 7 10 13 7 4-3 17-17 17-19l-1-2c0-3-13 4-15 8l-2 1q-3 2-6-9-3-9-8-6m352 9c-4 4-6 26-2 28s23-4 27-8q3-8-12-3-8 4-7-8 0-13-6-9m-106 10q-19 18-10 23c4 2 26 2 28 0q6-6-5-7c-3 0-10-1-11-3l3-5c8-11 4-17-5-8m-174 6c-12 12-11 15 2 22 15 8 21 4 9-6q-10-6-2-12 6-6 3-9-2-3-12 5m83-4q-3 2 3 9 8 9-3 8-8 0-9 7 0 6 17 0 21-5 7-16c-9-9-11-10-15-8m410 2c-2 5 8 20 13 20 6 0 15-18 11-21q-5-2-8 4c-3 4-2 4-7-1q-7-7-9-2m119 11-2 4q-2 4-6 4l-1-2c0-2-5-7-7-7q-8 1-2 13t10 11q6-1 7-5l1-2c4-4 8-15 7-16q-3-4-7 0m-249 20-4 5-2 4-3 2-3-3-4-5c-5-6-13-3-9 4s14 18 17 18q6-1 11-11l5-8c2-4 1-10-3-10zm111-3-7 1-6 2-2 1-5 3c-8 5-3 10 8 7q10-4 6 5c-3 13 6 14 10 1 4-10 4-12 4-14q-2-6-6-7zm58 2c-2 1-9 14-11 21q-4 8 15 8c16 1 18 1 19-2q0-5-5-5l-3-1h-7c-8 0-9 0-4-8q5-11 1-12-1-3-5-1m-308 1-3 1-14 5q-7 4-1 9 2 2 9-1 13-7 8 6c-3 7 5 12 9 4l4-20c0-3-11-7-12-4m-187 2q-4 2 6 9c8 6 8 5 3 10q-9 10-1 11l7-4 7-5 4-4q4-7-9-12l-9-5zm602 2-3 4-7 16q-3 7 2 11c2 1 4 1 15-1q4-1 4 2 1 1 1-5 1-10-2-7h-7q-2-1 3-9c4-10 4-11-1-13q-2-1-5 2m-508 10-4 4-3 6q-6 8-3 11 4 2 10-7 6-10 12-2l8 8q3 1 4-2 3-4-4-10l-8-9q-5-6-12 1m143-1q-6 2 0 14l2 7c0 6 7 11 11 8v-7c-1 0-3-10-2-11l6-1q15-2 8-8c-3-2-22-3-25-2m-376 6q-3 2-5 7-2 7-8 1l-3-3v8c0 7 0 7 3 10q8 8 15-7l5-9c3-7-2-13-7-7m89 3-2 2 2 5q5 10-1 9-12 3-10 8 1 4 10 1l10-1c10 0 9-11-2-23q-4-6-7-1m424 2-3 3-5 6q-9 10-7 14 2 5 10-4 9-10 10-1 4 15 11 9c1-2 1-2-1-10l-3-11q-3-6-7-8zm-235 14q-3 3 4 10c5 5 5 5 0 8-7 5-8 11-1 10 5 0 17-9 18-13 0-7-17-19-21-15m414 6q-3 5-1 12 3 8-5 8l-6-1c-2-2-7-1-7 2q-2 5 10 7 21 8 19-9-2-28-10-19m-111 3c-2 2-2 21 0 25 2 3 11 4 13 1l8-5q11-7 9-9-1-4-10 0-12 8-11-5-1-12-9-7m-410 6q-1-1-10 10-8 10-7 12 3 6 12-3 7-10 10-2l2 5q2 4 5 5c3 0 6-8 3-9l-1-3-3-9q-5-10-11-6m233 7-2 7 1 9c2 13 5 15 17 8q13-9 13-14-3-6-12 2c-1 2-7 4-7 3l-1-6q-3-14-9-9m-80 8q-3 5 7 9c7 4 7 5 1 12q-7 7-4 9 5 4 20-11 8-9-8-15l-7-4zm-229 2c-2 2-3 4-2 14q2 4-12 1-8 1-8 5 3 5 16 7l8 1q6 1 8-4a50 50 0 0 0-4-24zm-88 9c-14 16-14 21 0 24l6 1 6 1q7 0 6-3 1-4-7-6l-7-3 6-9q4-6 0-10-1-4-10 5m465-2-2 5q-1 3 3 10l2 6c0 3 0 3-12 5q-12 1-8 6c1 3 21 3 26 0 6-3 7-5 4-15q-8-24-13-17m-210 3-3 8q-1 9-10 2-10-4-12 1c-1 4 17 15 24 15q6 1 7-9l1-10c2-7-3-12-7-7m355 20c-3 2-8 16-8 21s7 5 9 0q5-14 8-5c6 8 6 8 10 8q11 0-6-18-9-11-13-6m97 3q-3 3-4 16v5h32v-2q-2-4-15-1-9 4-6-8 0-10-2-10-3-3-5 0m-172 8q-11 9-12 12c0 2 12 1 13-1l9-4 1 3q1 4 6 3l5-1-2-6q-5-19-20-6m-153 9q-10 4 0 4 11 0 5-5-2-2-5 1"
        mask="url(#16282281824-posters-1720558160581-horizontal-mask)" itemprop="light" fill-opacity="0.90"
        fill-rule="evenodd" stroke="none" fill="url(#16282281824-posters-1720558160581-vertical-light)"></path>
      <!---->
      <path id="16282281824-posters-1720558160581-regular"
        d="m145 3 1 4h-7q-15 0-10 5c2 2 21 4 24 4q7-2 4-10l-2-5-5-1h-5zm68 5q-21 16 4 20 14 3 14-2 1-2-7-5-11-2-3-9 5-4 5-7-1-7-13 3M19 7q-18 9-8 17 13 15 19 11 4-2-5-9c-6-7-6-8 2-14 11-9 5-12-8-5m364 10c-5 3-15 14-15 16q2 6 11-1 7-8 10 3 4 9 7 9 5-1 3-6c-6-23-8-26-16-21m237 8q0 3 2 5l7 4q12 6-1 12-11 6-8 10c4 3 28-11 28-16 0-6-26-21-28-15m-150 7c-17 12-17 15 0 21q17 7 16 2 2-3-9-7t-1-11q8-6 5-10c-2-2-3-1-11 5M69 33q-2 2 1 9 4 10-3 6-12-3-13 0c-2 6 24 18 28 12 2-2 0-14-5-24q-4-8-8-3m231 3v9c1 7 1 7-8 7-18-2-8 8 11 11q8 0 9-7c0-4-3-17-5-20q-4-4-7 0m386 3v5c5 24 8 25 23 12q10-8 10-10-1-6-12 1c-8 5-9 5-11-1-2-9-8-14-10-7m-143 1q-12 1-9 6 0 3 10 1c12 0 12 0 9 9q-3 11 2 12c3 0 7-6 8-10l1-6c2-4 1-11-1-12q-4-3-20 0m220 15q-12 8 1 7 6 0 5-6 2-7-6-1m-590-1c-13 0-14 8-2 8 10 0 11 1 8 12-2 8 4 9 7 2q13-25-13-22m243 22-2 5q0 5-3 8l-6-3q-14-6-11 1c1 3 10 9 17 12q8 3 9-7c4-12 1-23-4-16m-177 0q-3 1 3 9c5 9 5 9-9 13-8 2-6 8 2 7 21-3 24-6 17-19q-9-15-13-10M116 87q-2 2 1 12l3 9q3 7 7 8c5 0 18-17 18-23l-1-3c-2-2-3-1-12 9l-2 2c-2 0-5-6-5-9s-6-7-9-5m221 9c-19 7-20 11-5 22 14 9 21 5 9-4q-10-8 2-11 9-4 6-9c-2-2-3-1-12 2m301 2q-4 4 3 22c4 10 10 7 7-5-2-8-1-8 9-8q22 0 1-7-17-6-20-2m-156 0-5 3-7 7c-10 8-4 12 7 4q6-5 9 4c6 15 12 9 8-7q-4-14-12-11m-459 3q-16 5-15 8-1 4 11 2 12-5 9 7-1 8 2 8 4 1 6-5l1-10c0-12-1-13-14-10m47 7q-3 2 7 9 9 7 1 9-14 3-11 8c1 3 22-2 26-7q8-3-6-12-14-11-17-7m489 2c-2 3-5 16-5 21q-1 10 24 0c8-3 7-9-1-7h-8l-3 1v-7q-1-15-7-8m161 3c-8 1-6 6 3 7q14 1 6 9-4 7-1 10 3 1 12-11c8-12 7-14-8-15zm-530 1c-3 5-10 21-9 23 3 6 29 6 29 0q2-3-12-5-8 1-2-8 4-8 1-10zm94 16-3 9q-3 12-10 3c-7-8-15-5-8 3l4 7c5 8 13 11 16 6s8-23 7-26q-2-5-6-2m92 4c-3 5-3 22 1 24s24-5 26-10c1-4-6-4-12-1q-9 4-7-8c1-7-5-11-8-5m-265 24c-2 2-4 15-4 24q0 4 2 4 5 1 6-9 1-14 10-6c11 9 15 3 4-7q-13-14-18-6m372 5q-10 2-12 6c-2 5 13 25 17 23 2-2-1-11-5-15q-2-5 6-6 11-3 9-8zm153 4q-16 8-9 10 1 2 8-1 9-4 8 6 0 9 4 9 4 1 4-14 4-21-15-10m70 8q-3 2-3 5l-3 8v9l1 2h12q16 0 15-4 2-4-9-4-12 3-8-9 2-15-5-7m-535 5q-3 4 6 8 10 3 1 10t-4 9c4 2 22-13 22-17 0-6-22-14-25-10m240 5-2 5q1 17-9 9l-8-4q-9 0 3 10l9 7q8 6 12-4v-23q-2-4-5 0m162 0-5 7c-4 9-5 9-12-1q-4-6-6-5-7 1 0 12c10 16 14 17 22 4 9-13 10-15 8-16q-3-3-7-1m-532 3c-3 10 1 27 6 26q26-9 23-16 0-2-11 3-10 6-10-7-3-15-8-6m280-2c-12 1-8 7 4 7q12-1 5 10-3 9 1 10c4 0 14-18 13-23q-2-6-23-4M0 190v4h4q11-1 4-6-9-4-8 2m245 4q-1 1 3 7 8 10-5 10-9 2-8 6c2 2 5 2 17 1 14-3 15-5 6-17q-11-14-13-7m-123 36-2 5c-5 22-4 24 1 24l5-1 10-4q14-3 13-7-2-3-11-1c-11 3-11 3-10-7q1-13-6-9m333 5c-16 7-16 13 0 8 8-2 8-1 8 6q-3 14 2 12 4 0 8-22 2-12-18-4m130 3q-5 5 7 6 16 0 5 12-6 7 0 9 5-1 13-15 6-9 0-10c-4-2-23-4-25-2m72 6c-3 4-4 22-2 25q2 5 18-3 12-5 10-9-2-2-11 1-11 7-9-8 1-6-2-7-3-4-4 1m73 0c-2 1-2 2-4 12q-4 17 2 15 3 1 5-11 1-11 10-3 8 7 10 4 0-5-7-11l-6-5q-6-5-10-1M3 250l-1 2q-1 3 12 7c7 3 7 4 0 11q-10 9-3 9 4 1 15-11 9-7 2-12c-9-4-21-8-25-6m199 3c-17 10-20 21-4 12 8-4 8-4 8 1q0 16 6 13 4-1 4-16 1-23-14-10m151-1q-3 3 6 17 8 14 18-4 11-14 3-13-4-1-7 5-6 11-11 0-6-9-9-5m-292 4c-3 2-4 23-2 28q6 8 8-9 0-14 10-7 12 4 11-2c0-2-17-10-22-11q-3-2-5 1m216 0-10 19q0 6 8-2 4-5 6-5 3 2 5 6 2 3 6 5 8 1-3-17-7-12-12-6m247 1c-3 0-15 11-17 14q-4 8 14 11 15 4 15 1 4-4-9-7t-3-10q7-10 0-9m-414 43 5 8c5 6 5 6-4 9q-11 4-9 7c2 5 28-2 30-7 0-3 0-4-9-12q-13-14-13-5m289 0-2 3-1 3c-2 1-1 17 1 18q4 2 5-6 2-12 10-6 12 6 10 0l-15-13q-5-2-8 1m-65 4q-19 12-15 18c1 2 14 8 21 10 6 2 7-4 1-7-9-5-10-7-3-14q6-6 2-8-1-2-6 1m-163 3-2 12c0 10 0 10 2 13q4 4 10 0l7-4q10-6 11-10-1-4-12 2-9 6-8-2-1-15-8-11M0 322l1 12v-24q-1-1-1 12m638-11q-4 5 9 6 13 0 4 10-6 8-3 9l8-4 4-5q11-12 2-15c-4-1-23-2-24-1m-385 2q-2 4 7 9 10 6-2 10-11 4-8 7c1 2 8 2 12 0l8-4q14-3 1-14-14-13-18-8m308 3c-3 5 0 25 4 25q4 1 3-8c0-8 1-9 11-7q12 1 12-2 2-3-13-7c-14-4-16-4-17-1m167 0c-3 2-11 14-11 17q-4 8 14 7c13 0 14 0 14-3q1-3-9-3-13 1-5-10c5-7 3-13-3-8m-251 15c0 3 5 17 7 19q3 7 14-6 7-8 7-10-1-6-9 1-7 9-12 0-6-9-7-4m-430 4c-4 2 4 27 9 27 6 0 23-16 21-20q-2-4-8 2c-9 8-11 8-14-1q-3-11-8-8m351 9c-2 3-4 22-2 25q3 3 11 1l6-2 11-7q0-4-7-2l-8 1-4 1v-8q0-10-4-10zm-102 7-6 6-7 8q-11 12 17 12c16 0 18-7 3-8q-14 0-5-8 9-15-2-10m-178 10c-10 11-10 13 6 20 8 4 9 5 11 2q2-1-2-4c-12-10-12-10-5-17q6-6 0-8-2 0-10 7m84-4q0 3 4 7 5 7 1 7c-14 4-15 5-14 9q0 5 16-1c17-5 17-7 5-18q-11-10-12-4m411 0c-3 3 5 17 11 19 5 2 15-14 12-19q-3-3-8 4l-2 3-4-4q-7-6-9-3m118 12-2 4-4 5-3-3c-7-12-15-7-8 5 8 15 11 15 21-4 4-8 2-13-4-7m-246 17-5 5c-6 10-6 10-11 4q-8-9-11-5-4 2 6 14c10 11 13 11 22-5q9-17-1-13m103 1c-7 1-17 6-18 8q-5 6 14 2 6-1 4 7c-2 8 3 13 6 7 2-4 6-16 6-20q-1-7-5-6zm62 2c-2 3-10 19-10 22q-1 4 24 6l8-1q6-7-10-7-17 2-8-10 5-10 1-11-3-2-5 1m-313 2q-18 5-13 11h8c12-5 11-6 11 3-2 15 5 15 9 0q8-24-15-14m-181 0q-3 3 7 8c7 5 7 6 2 12-9 8-4 11 6 4 15-11 15-13-1-21q-13-6-14-3m602 2-3 5-3 7q-6 14-2 17c2 1 12 1 17-1q2 0 2 2 1 2 1-4v-7l-3 1q-10 3-5-9 5-11 3-13-3-3-7 2m-504 6c-4 2-14 17-14 21q2 6 9-4c6-8 7-8 14-1q9 9 11 3 0-2-7-10c-8-10-9-10-13-9m140 2q-6 1 0 16 5 15 8 14 6 0 2-10-5-11 6-11c14-1 13-7-1-8l-10-1zm-377 7-4 6q-4 9-9 2l-3-3v7c0 7 0 7 4 9q8 8 14-7l5-10c2-5-3-9-7-4m89 3q-1 2 1 6c3 8 3 8-5 11q-7 2-6 5c0 3 1 3 14 1s14-3 9-13q-11-18-13-10m425 2-4 3-7 8-5 9q1 7 10-2 8-12 11-1 5 15 9 8 2 0-2-12-4-20-12-13m-236 14q-1 3 4 9 6 6 3 7c-2 0-8 6-8 8q2 6 13-2c9-6 10-7 8-11-4-7-19-15-20-11m414 6v10c0 10 0 11-10 9q-10-2-10 1 0 4 12 7 17 5 17-4c1-4-1-20-3-23q-3-4-6 0m-110 3c-2 2-2 3-2 13 1 16 4 17 19 8q18-10 10-12l-9 3c-9 5-10 4-11-5q-2-12-7-7m-411 6-5 4-7 8q-10 17 7 5c7-7 7-7 11 0q4 12 8 8 3-2-1-14-5-17-13-11m233 7c-2 1-1 17 1 22q5 10 24-7c8-8 1-12-7-4q-6 5-9 3l-1-6q-2-12-8-8m-79 8q-4 3 6 8c8 4 8 5 2 11-9 10-4 14 7 5 14-12 14-15-5-23-9-4-8-3-10-1m-231 4v7q4 10-10 7h-8q-7 5 12 9c15 3 18 1 17-11q-2-14-7-15-3-1-4 3m-84 5c-6 5-13 14-13 17q-2 5 22 9 6 1 5-4l-11-5q-5-1 2-10c5-7 5-7 2-9q-1-4-7 2m461 1q-1 6 3 12l1 5q3 7-10 8-11 0-10 4 0 4 11 3c20-2 22-4 18-17q-8-25-13-15m-209 2-2 7q-2 9-10 4-10-6-12 0c0 3 17 14 23 14q4 0 5-4l2-10v-11q-2-5-6 0m354 20c-2 3-7 17-7 21q0 3 3 2 5 1 6-5 3-11 8-5l3 5q2 4 8 5 9 0-9-19-7-9-12-4m98 3-2 8-2 9v3h6q7 0 5-1l-1-10q0-16-6-9m-163 3c-5 1-20 13-20 16 0 2 10 1 11-1q8-6 12-1 1 4 5 3 7 1 2-7-4-13-10-10m179 14-7 3h9q10 1 9-2 1-5-11-1"
        mask="url(#16282281824-posters-1720558160581-radial-mask)" itemprop="regular" fill-opacity="0.90"
        fill-rule="evenodd" stroke="none" fill="url(#16282281824-posters-1720558160581-horizontal-regular)"></path>
      <!---->
      <path id="16282281824-posters-1720558160581-medium"
        d="m145 1 1 3q3 4-8 3-11 0-9 3t17 5c11 0 13-1 9-11q-1-5-6-4zm74 3q-17 11-15 18c2 4 23 9 26 5q1-4-5-5t-8-5l3-5c8-6 7-14-1-8M19 8Q7 13 8 18c0 5 17 19 20 17q4-2-3-9-10-8-1-13 9-6 8-8-1-4-13 3m365 9c-3 1-16 14-16 17q2 5 11-3 7-7 10 2 5 12 6 10 6 3 1-13c-4-14-5-16-12-13m237 7q-3 2 2 6c16 9 16 10 5 17q-12 8-6 9c3 0 4 0 16-7 12-8 12-10 0-18l-15-8zm-147 5-7 6c-13 9-12 12 4 18q15 6 15 2 1-4-8-6-7-2-8-6l6-7q6-6 5-7-1-4-7 0M69 34l2 8 1 7h-6c-3-3-12-3-12 0 0 5 23 15 27 11 3-2 3-4-1-15q-7-18-11-11m232 1v12q5 9-12 4l-5 1q-4 4 9 8c18 5 21 2 17-16q-4-13-9-9m386 2c-1 3 3 24 6 26 4 3 25-12 25-17q0-6-10 2c-9 5-10 5-12-3q-4-12-9-8m-143 3q-9 1-10 4-1 4 10 3c10-1 11-1 11 5q-3 14-1 15 7 2 10-18c2-10-2-11-20-9m221 14q-13 8-2 8 7-1 6-6v-4zm-598 1q-9 6 6 7 11-1 7 8-2 11 1 10c5 0 11-20 7-24-1-2-16-3-21-1m248 23-1 6q-1 8-9 3t-11-2q-2 3 10 9 12 7 14 4l4-18q-1-9-7-2m-176 0 1 3 5 11q0 3-7 5c-14 3-12 9 3 6 16-3 17-5 9-19q-6-9-9-8zM117 88c-2 2 3 21 7 25q7 6 18-13c6-11 1-15-5-5q-7 14-12-1-5-9-8-6m218 9c-17 7-17 10-1 21 12 8 18 5 6-4-7-6-7-7 2-12q7-2 7-5 0-5-14 0m303 1c-3 3 3 27 7 27q5 0 3-10-6-13 14-8 6 1 4-3l-16-6zm-161 5c-14 11-13 11-10 13q1 2 8-3c7-5 8-5 11 2l3 6c1 2 6 2 6 0 1-2-4-19-6-21q-3-4-12 3m-457 0q-13 4-12 7l5 1c17-3 16-3 16 8l1 6q6 4 6-16c0-10-2-11-16-6m51 5q-3 1 5 8 14 8-1 11-12 3-7 7c2 1 4 1 14-2q18-6 11-12l-17-12zm488 2-3 9c-3 17-1 19 14 14 17-5 17-11 1-8q-7 2-6-7 1-14-6-8m-367 4c-2 1-11 19-11 21q1 5 13 6 15 0 15-4 1-3-8-3c-10-1-10-1-6-9q4-10 0-11zm526 0c-6 1-1 6 7 6q11-1 4 11-3 5-2 6 3 4 11-8c10-14 8-16-10-16zm-434 17-3 8q-3 14-10 3-7-7-10-4c-1 1 1 7 3 8l4 6q9 13 14 6c3-4 8-21 8-24q-2-6-6-3m94 1q-3 1-4 14c0 9 0 9 2 11q7 3 22-6c8-4 4-8-5-4q-12 5-10-6 0-10-5-9m-266 26c-3 5-6 27-4 28q5 1 6-7 2-10 5-12l7 4c10 8 13 2 3-7q-14-12-17-6m372 6c-15 2-16 5-7 18q9 12 10 9c1-1-1-9-3-12q-7-7 6-9 9-3 8-6 0-3-14 0m158 1c-17 7-23 16-7 10q9-4 8 6 1 10 4 9c4 0 6-22 2-25-3-2-2-2-7 0m63 11c-4 5-6 20-4 22 2 1 21 0 25-1q7-3-6-5c-12 0-12 0-9-12q2-12-6-4m-533 5q-4 2 6 7c6 3 6 4 0 11-9 8-4 11 6 3 14-12 14-14 1-20-10-3-11-4-13-1m238 6-1 7q0 8-3 9l-7-4c-7-5-15-4-9 1l9 8q19 16 18-15c0-8-5-13-7-6m165-2-6 6q-6 13-10 5-9-14-12-8c-1 3 6 16 12 20q7 5 9-1l7-10q11-15 0-12m-533 3v20q0 8 10 3 19-8 18-11-1-4-11 1-11 7-10-5-3-15-7-8m273 0q-3 3 8 4 15 0 8 10-4 11 2 9c2 0 10-16 10-20s-2-5-15-5q-12 0-13 2M0 190c0 4 6 5 9 3q3-5-5-5-5-2-4 2m246 3q-3 2 3 8 8 10-3 10c-8 0-14 4-9 7 2 1 21-1 24-3q6-2-6-17-7-7-9-5m-124 39q-3 5-5 20c-1 8 2 8 21 2q11-4 10-7 0-3-8-1-17 6-13-4c3-9-1-16-5-10m338 3q-16 4-15 7-3 4 8 1c12-2 12-2 9 12l1 5q4 3 7-13c4-16 3-17-10-12m126 3q-7 3 6 6 17 0 6 12-7 7-1 9c3 1 15-16 15-21q1-5-10-5l-10-1zm71 6-2 12q-5 23 16 10c12-5 13-6 11-9h-5c-14 5-14 5-14-4q-1-16-6-9m74-1c-4 3-8 25-5 27q5 2 6-6t3-11q3-2 10 5 6 6 7 2 1-3-8-11c-9-7-10-8-13-6m-526 9-5 2-3 3-4 3-3 3q-5 9 8 2 9-8 9 5 1 10 4 9 4 2 4-15c1-10 1-11-1-13q-4-5-9 1M3 251q-1 4 7 6 17 4 5 13-7 5-7 7c0 5 18-6 22-13 2-5 1-6-12-11-6-3-15-4-15-2m350 1v5q10 24 19 14l4-5c7-8 9-16 4-14q-5 2-9 9-3 6-9-3-7-10-9-6m-76 4c-3 3-10 19-10 20q3 3 8-3 6-11 12 1c2 5 8 6 8 1l-10-19q-5-3-8 0m-216 1c-3 4-3 25 0 28q4 2 5-8c0-12 1-13 11-10 10 5 16 0 6-5q-19-10-22-5m454 7q-11 10-6 13c2 2 23 8 26 7q4-4-8-8-12-1-5-9l5-8q-2-5-12 5m-404 35q-2 2 5 9 8 7-4 9-12 4-9 7c2 3 3 2 15-1 16-5 17-6 5-18q-11-12-12-6m288 2c-3 3-5 17-3 21 1 5 5 0 7-6q0-11 10-4c11 7 12 2 1-7q-12-9-15-4m-65 4q-19 12-15 16c2 3 19 11 23 11q7-2-3-8-11-4-3-12c7-7 5-12-2-7m-162 3c-2 2-3 21-1 23q4 4 13-1l7-4c2 0 7-7 7-8q0-4-10 2c-9 5-9 5-10-6q-1-11-6-6m467 3q-6 4 8 6 15 1 5 10c-7 8-3 12 4 4 13-14 13-17 0-19s-15-2-17-1m-385 3q-1 4 8 10 9 4-4 9c-8 2-11 7-4 7 3 0 19-6 21-8q5-3-5-11-14-13-16-7m307 2c-3 5 0 24 4 24q3 1 3-9-1-8 9-6 16 2 12-3l-25-8zm167 1q-15 16-9 22c3 2 23 1 25-1q4-3-8-4-13-1-7-7 7-10 4-12-2-2-5 2m-250 13v3l1 3c0 7 6 17 10 16 4-2 16-17 16-19q-2-4-7 0-9 13-13 3-4-8-7-6m-431 6 2 12 2 8q2 6 8 5c4-2 18-15 18-17q0-7-9 1c-9 8-10 7-13-2q-4-9-6-8zm352 8c-3 4-4 24-2 26q4 3 19-4 16-9-2-5-12 5-10-8 0-14-5-9m-103 8c-4 3-15 16-15 19 0 4 3 5 17 5q13 2 14-3 2-3-9-3c-11-2-11-2-5-10q6-8 2-9-1-2-4 1m-175 7c-13 11-12 14 1 21s19 4 8-3c-9-6-9-7-2-16q4-4 2-6c-2-2-2-2-9 4m82-3q-3 1 3 7 10 10-5 10-8 2-8 6c2 5 29-3 29-9 0-4-17-17-19-14m409 2c-1 4 10 18 13 18s12-14 11-18q-3-3-7 3-4 5-6 2c0-4-9-8-11-5m118 13q-4 12-9 4c-2-6-9-8-10-4 0 4 10 20 12 20 3 0 14-17 14-21s-5-2-7 1m-249 20c-7 11-7 11-14 4q-4-6-7-6-7 0 6 16c8 10 10 9 20-8q7-11 1-11-3 0-6 5m104-3c-17 5-22 13-5 10 9-2 9-2 8 6q-1 9 2 8 4 2 6-6l3-9q6-16-14-9m-245 2q-19 6-16 11 2 3 12-2l7-1v10c-2 6 3 10 6 4l4-11 1-9-2-2q-3-3-12 0m310-1-6 12-4 9 2 3c3 2 28 4 30 2q5-5-14-6-12 2-4-10l3-9q-3-3-7-1m-492 2q-5 1 4 7c10 6 10 6 4 12q-12 14 6 3 11-7 9-11c-1-3-20-12-23-11m600 3c-3 4-10 21-10 24l3 4c2 1 4 1 14-1q5-2 4 1 1 2 1-3v-6l-4 1q-10 1-5-8c4-10 5-12 4-14q-3-3-7 2m-504 6c-5 2-15 19-13 21q2 2 6-3 8-15 17-3 4 5 7 5 7-1-5-12c-7-9-8-10-12-8m139 2q-4 2 0 11l3 9q4 11 9 6v-4q-8-17 6-15 10 0 7-4c-2-3-22-5-25-3m-376 6-4 7q-3 9-9 2l-3-3v6q-1 6 3 8c7 6 10 4 17-12q5-15-4-8m90 2q-2 0 1 9 5 7-5 9-10 5-7 6 3 2 5 1l11-2c10-2 11-3 6-11q-6-14-11-12m422 5-13 16c-3 6 3 6 9-1q8-11 11-1 3 12 6 11 4 0 1-14l-3-10c0-4-7-5-11-1m-233 12q-3 1 4 8 8 7 0 10-9 7-3 9c2 0 16-9 17-10 4-6-14-22-18-17m414 5-1 11c0 12-1 12-13 9h-6q-3 4 10 7 24 9 17-18-3-13-7-9m-112 5c-1 3 0 22 2 24q3 3 16-4l8-5 4-5q-3-3-12 2-10 7-10-5-2-13-8-7m-410 5c-2 1-16 18-16 20q1 5 11-4l6-6 2 2q3 2 4 6 3 8 6 6 4 0 0-10c-5-14-7-16-13-14m232 11v8l2 6q2 16 23-3 9-11-3-5c-12 8-14 8-14-2 0-9-6-12-8-4m-78 4q-3 2 5 7c11 5 11 5 4 13-10 11-5 13 7 3q18-13-2-19-12-6-14-4m-230 2-1 8q1 9-2 10l-6-1c-5-2-12-1-12 1 1 2 9 6 16 7 14 2 16 0 14-12q-2-18-9-13m-87 9q-11 12-11 16 1 4 15 7 13 2 12-1 1-2-8-6c-7-2-7-3-2-11q9-17-6-5m464-1q-2 3 1 10c6 12 4 14-8 15q-13 1-10 5l13 1c18-1 20-3 15-18l-5-13q-4-4-6 0m-210 3-2 7c-2 6-3 7-11 3q-13-5-10 1c4 5 20 13 24 12 2-1 3-2 5-19q0-7-2-6zm354 20-2 4-3 9c-3 9-3 9 1 9q4 1 5-6l4-6c2-2 2-2 10 8 5 6 11 4 7-2q-16-23-22-16m97 4-2 10v8h5q7 1 4-2v-8q1-12-3-11-3 0-4 3m-167 4-4 4-2 1c-2 0-8 6-8 8s7 1 9-1q9-8 14-1 0 4 4 3h4l-2-8q-4-14-15-6m183 12-4 2h7q10 0 9-3-3-2-12 1"
        mask="url(#16282281824-posters-1720558160581-vertical-mask)" itemprop="medium" fill-opacity="0.90"
        fill-rule="evenodd" stroke="none" fill="url(#16282281824-posters-1720558160581-vertical-medium)"></path>
      <!---->
      <path id="16282281824-posters-1720558160581-bold"
        d="M146 4c1 4 1 4-11 4q-10 1-1 4 28 6 22-5l-2-5q0-2-4-2-5-1-4 4m73 1c-6 3-15 12-15 15q0 5 12 6 13 3 14 1c1-2-4-5-7-5q-11-1-3-10 7-6 4-8-2-2-5 1M20 8C5 16 5 19 19 30c10 8 15 4 5-4q-10-9 3-16 8-5 2-6zm364 10c-5 3-16 15-15 16q2 2 10-3l6-4c2 0 2 1 7 11 4 10 8 4 4-6l-3-9q-2-11-9-5m237 7q-2 1 6 7 9 5 10 8-1 3-9 7-11 8-4 8c4 0 23-12 23-15 0-4-24-18-26-15m-151 8c-16 12-16 14 6 21q13 4 7-2l-3-2c-4 0-11-5-11-7l6-7 6-7c-1-3-2-2-11 4M70 36l2 7q4 11-7 6-17-5-5 5c4 3 16 7 18 7 5 0 5-11 1-17l-1-4c-2-7-8-10-8-4m231 0v9l1 8h-9q-21 1 10 8 11 4 6-14-3-16-8-11m386 4 1 7 2 8q4 13 12 6l8-7 8-8q-3-3-6-1l-2 2-6 3q-7 6-9-3-4-15-8-7m-138 0-5 1q-8 1-9 4l9 1 11 1c1 1 2 7 0 7-1 1-2 9-1 11h5l5-19q1-4-2-5c-3-2-11-2-13-1m215 15q-9 5-1 6 7 0 6-5v-3zm-598 1q-6 4 7 5 11 0 8 8l-1 10c5 2 12-18 8-23-1-1-18-2-22 0m73 22 1 3 6 12q-1 3-9 5-9 2-8 5a32 32 0 0 0 18-2q7-1 8-7l-11-17q-3-2-5 1m178-1-2 6q-2 10-10 5-18-7-3 5c14 8 17 7 19-9 0-8 0-8-2-8zM117 88q-2 0 1 10l4 10q0 5 5 6 5 0 14-13c7-12 2-14-6-2q-7 8-12-6-1-5-4-6zm225 7-6 3-4 1c-2 0-9 5-10 7-1 3 17 16 22 17q5-1-6-10c-5-3-4-10 0-10l11-5q0-5-7-3m297 3q-3 1-1 10c5 16 7 18 10 15v-4l-1-7v-5h9q20-1 3-6c-16-4-16-4-20-3m-162 5-6 6q-6 4-4 6t8-3q8-6 11 1 4 10 6 10 6-1-1-18v-2q-5-9-14 0m-455 0-7 2-4 2q-5 5 4 3 18-7 15 8-1 11 3 6 2-1 2-12v-10l-4-1zm49 6q0 3 6 7 13 8 0 11-10 3-10 6-1 3 15-2c17-5 16-8-3-21q-7-4-8-1m489 1q-3 3-3 16v9h3l7-1 5-2c5 0 11-5 9-7l-10 1q-7 4-7-9 0-11-4-7m-370 7-2 3-5 10q-3 5 2 9c4 2 21 1 23-1q3-3-8-4-13 1-5-11 4-8 0-8-2-2-5 2m527-2q-3 2 7 4 12 3 8 8l-3 4c-1 1-2 6 0 7q1 1 10-12 9-11 2-11zm-432 16-1 4-1 2q-1-1-1 1c0 3-3 9-5 10l-6-5-7-5q-5 0 3 12 11 17 16 5 4-6 3-9l2-5c1-1 1-10-1-11zm93 3-2 3c-2 19-1 20 5 20l6-1 7-3q9-4 6-7c0-1-9 1-12 3q-5 3-5-10-1-9-5-5m-265 24-2 6-3 11q-2 11 1 10 4 1 5-8 1-17 12-7 15 10 3-5-13-12-16-7m371 6q-20 3-9 14l4 6 7 7c2 0 0-8-3-12q-6-7 5-10c14-2 11-7-4-5m152 4q-9 4-9 7-2 4 7 0 11-5 10 7 1 9 4 7 2-1 2-11c0-16-1-16-14-10m70 8-2 5-3 8c-2 9-1 9 13 9 12-1 13-1 13-4l-8-1q-13 2-10-9c2-9 2-9 0-10zm-535 5 6 6q7 2 7 5c0 2-8 10-9 10l-1 2q0 6 13-6l8-8q-1-4-5-5l-7-2q-10-5-12-2m240 6-1 6q1 16-12 6l-6-3q-4 3 0 5l8 6q15 14 16-7v-12q-2-5-5-1m162 0-3 5q-7 13-11 4c-5-8-12-12-11-6 0 3 8 15 12 18q5 5 10-5l4-6c2-2 6-9 5-10q-2-3-6 0m-530 0c-2 3-1 24 1 25 4 1 25-8 25-12q-1-3-9 2-12 7-12-7-2-11-5-8m272 1q-1 3 9 4l9 1q1 3-1 10-3 6-1 8 4 0 8-9l3-7v-7zm-69 6q-2 1 3 7c5 8 5 9-5 11q-8 1-7 4c0 2 2 2 14 1 14-3 14-4 8-12q-11-15-13-11m-125 40-1 5-2 10c0 10 0 10 13 6q20-5 16-9l-15 3q-7 4-6-9 1-10-2-9-1-1-3 3m334 3q-10 3-10 5c0 2 7 2 11 0q11-5 8 8-2 10 1 10c2 0 6-14 6-22q3-9-16-1m131 2q-5 4 7 4 16 0 5 13-5 7-1 8 2 1 11-12c5-8 5-9 1-11-3-2-20-3-23-2m72 5c-2 1-3 19-2 23q1 6 14-1 13-6 11-8-1-3-9 2-10 6-9-7l-2-8q-1-4-3-1m72 1-3 9c-2 12-2 14 0 15q4 3 4-6 2-19 13-6c7 6 12 5 5-2q-15-16-19-10M4 251q-2 2 7 6 16 4 6 12-11 8-6 9 3 0 14-10c7-7 6-9-5-14q-13-5-16-3m199 3-13 10-1 1-1 1q1 3 10-2 11-8 10 8 0 8 2 6c4 0 4-1 5-14 0-11 0-12-2-13q-3-3-10 3m150 0c-1 4 10 20 14 19 5-1 17-18 15-20q-3-2-10 7c-4 6-5 6-11-2q-6-9-8-4m-75 3c-3 2-10 17-10 19q1 3 7-5 8-9 12 3c1 2 6 4 7 3q2-1-2-7-9-20-14-13m-218 2c-2 6-1 23 1 25q4 3 5-10 0-10 4-10l8 3c7 4 13 0 7-3q-21-12-25-5m455 6c-12 11-10 14 16 18q10 0-3-5-16-5-6-12 6-7 2-8zm-403 34q-3 2 2 6c8 9 7 10-2 13q-11 3-8 6c1 2 23-3 26-7 3-3-15-22-18-18m288 1c-4 3-6 23-2 23l3-3q2-16 12-9 16 8 0-5-10-10-13-6m-72 10q-14 10-5 13c7 5 19 9 20 8q3-2-3-5-13-6-5-14c10-9 5-11-7-2m-156-2c-1 1-2 19 0 22 0 2 7 3 9 1l3-2 2-1 3-2 6-4q6-7-4-3c-12 7-14 6-14-4q0-10-5-7m467 4q-3 3 7 4 17 1 6 12-10 14 5 1 17-15 0-16c-15-2-18-2-18-1m-385 3q0 3 6 6c10 7 9 8-6 14q-5 3-2 5c3 1 20-6 23-9q3-2-2-7l-6-5q-12-10-13-4m307 2c-1 3 1 19 3 21q3 4 3-5-1-13 15-8h6q4-3-5-5l-11-3c-9-2-9-2-11 0m168 0c-2 1-12 16-12 17q0 6 13 5 26-1 3-4-11-1-3-11c4-6 4-11-1-7m-251 14 2 7 2 7q2 5 6 6c3-1 16-14 16-16q0-6-8 1-9 10-12 1-5-10-6-6m-431 7 2 9 2 8q1 5 5 6c3 0 18-12 20-16s-3-5-6-1c-10 10-12 9-17-3q-4-10-6-3m352 9c-2 5-3 18-2 21q0 2 6 2c5-1 20-8 20-9q0-3-7 0l-9 1h-3v-9q0-10-2-9zm-104 6-7 8-5 6c-2 0-1 6 0 7 2 1 26 2 28 1q4-3-7-5-17 0-7-10 8-13-2-7m-174 7q-9 7-4 7v2h-2q-4-1-1 5c1 2 16 10 19 10q3-1-2-6l-4-2-3-3q-5-5 3-12 4-4 1-6zm82-3q0 3 5 8 7 6-5 9-13 4-7 7c2 0 21-5 24-8q5-2-6-11-10-9-11-5m410 2c-1 3 8 16 12 16 3 0 10-11 10-16q-1-4-6 2-4 7-6 3c0-2-6-7-7-7zm119 11-2 4q-1 3-6 5l-2-3q-4-6-8-6-5 0 0 8 8 17 12 10l11-19q-2-2-5 1m-247 17-5 6c-5 9-6 9-12 3-9-10-14-7-6 3q8 12 12 11c2 0 7-4 7-5l4-7q8-14 0-11m103 1-4 1-3 1-10 5q-1 5 11 1 8-2 8 4l-1 4c-2 1-1 8 2 8q3 0 7-16 5-12-10-8m62 3-8 18q-4 5 17 6c13 0 13 0 13-2q0-3-14-3-13 2-5-12l3-8q-2-4-6 1m-308-1c-7 2-17 6-17 8q-2 6 12 0 9-4 8 5l-1 7v3q3 5 6-6c5-17 3-20-8-17m-185 2q-1 2 8 7 6 3 5 6c0 2-5 8-7 8l-1 2q-1 6 9-2 19-10 1-16l-9-5zm602 2-3 5-2 6q-14 23 12 15 3 0 3 2 1 1 1-4v-5l-3 1q-6 1-9-2l3-8c5-12 4-18-2-10m-508 9-3 4-3 5q-6 10-2 9l5-5c6-10 8-10 16-2q8 9 9 5c0-2 0-4-8-12q-9-12-14-4m141 1 1 8 4 11q3 9 7 6 2-2-1-9c-3-9-2-10 6-11q17-3 1-6-17-2-18 1m-374 4-4 6q-4 10-10 3l-3-2v5q-1 5 3 7c4 4 11 4 11 0l1-1 1-1 3-8q7-14-2-9m89 5 2 5q3 9-3 10l-10 5q0 3 6 1l11-2q10 0 7-7l-3-6q-5-7-9-9zm422 3a45 45 0 0 0-13 17q0 6 9-4c8-8 9-8 12 3q3 7 5 7 3 0 0-12l-2-8q-2-10-11-3m-233 13q1 5 5 6l2 3c2 3 2 3-5 10l-3 3c1 2 7 2 8 0l5-3q12-6 2-13-13-13-14-6m415 4-1 10c0 11-1 12-8 11q-18-3-9 2c9 4 20 6 22 3 5-5 0-31-4-26m-112 5 1 22q4 3 15-3l8-5 4-4q-1-3-12 2-10 7-9-5 0-9-5-9zm-414 8q-12 13-12 16 1 4 9-5 6-5 8-5 5 3 6 9 1 4 5 5 3 0-2-12-6-19-14-8m238 5c-2 1-2 16 0 20q5 8 21-7 11-12-3-4-15 12-14-4 0-9-4-5m-81 8 5 4q15 6 5 13-6 6-5 8 1 3 11-6c11-9 11-11-1-16l-8-4q-6-2-7 1m-230 2v8q4 10-7 7H92c-2 3 9 7 19 8 10 0 10 0 9-11q-3-20-8-12m-88 9-7 9c-4 4 1 10 8 10l8 2q7 2 7-2l-6-3q-12-3-4-12 11-18-6-4m465-3c-1 2 1 9 3 13 2 2 2 9 1 10l-13 3q-8 0-7 3c1 2 2 2 14 1 16-2 16-3 13-14q-7-23-11-16m-209 3-3 8q-2 8-10 3c-8-4-14-3-8 2 5 4 17 10 20 10 4-2 7-25 3-25zm355 19q-3 1-4 10l-2 5-2 4q-1 5 2 4c2 0 6-6 6-10l5-4 5 5q7 10 9 9 4-2-4-12c-6-8-7-8-10-10q-3-3-5-1m96 3-1 8-2 9v3h4q7 1 4-2v-8q1-15-5-10m-168 6-4 4-5 4-4 4q2 4 8 0 11-10 14-1c1 3 7 5 7 3l-5-15q-4-2-11 1"
        mask="url(#16282281824-posters-1720558160581-horizontal-mask)" itemprop="bold" fill-opacity="0.90"
        fill-rule="evenodd" stroke="none" fill="url(#16282281824-posters-1720558160581-vertical-bold)"></path>
    </pattern>
    <rect id="16282281824-posters-1720558160581-pattern-render" fill="url(#16282281824-posters-1720558160581-pattern)"
      width="100%" height="100%"></rect>
  </defs>
  <radialGradient id="lightbar" cx="50%" cy="200%" fy="0" r="201%">
    <stop offset="0%" style="stop-color: rgb(255, 255, 255); stop-opacity: 0.1;"></stop>
    <stop offset="10%" style="stop-color: rgb(0, 0, 0); stop-opacity: 0.1;"></stop>
    <stop offset="30%" style="stop-color: rgb(0, 0, 0); stop-opacity: 0.3;"></stop>
    <stop offset="90%" style="stop-color: rgb(0, 0, 0); stop-opacity: 0.55;"></stop>
    <stop offset="100%" style="stop-color: rgb(0, 0, 0); stop-opacity: 0.6;"></stop>
  </radialGradient>
  <g class="radial">
    <radialGradient id="16282281824-posters-1720558160581-radial" gradientUnits="userSpaceOnUse">
      <stop itemprop="radial" stop-color="#e1e1e0" offset="0%"></stop>
      <stop itemprop="radial" stop-color="#e1e1e0" offset="15%"></stop>
      <stop itemprop="radial" stop-color="#e1e1e0" offset="30%"></stop>
      <stop itemprop="radial" stop-color="#e1e1df" offset="45%"></stop>
      <stop itemprop="radial" stop-color="#e4e3e2" offset="60%"></stop>
      <stop itemprop="radial" stop-color="#e4e3e2" offset="75%"></stop>
      <stop itemprop="radial" stop-color="#e4e3e2" offset="90%"></stop>
    </radialGradient>
    <radialGradient id="16282281824-posters-1720558160581-radial-background" gradientUnits="userSpaceOnUse">
      <stop stop-color="#d3cec5" offset="0%"></stop>
      <stop stop-color="#d3cec5" offset="15%"></stop>
      <stop stop-color="#d3cec5" offset="30%"></stop>
      <stop stop-color="#d3cdc5" offset="45%"></stop>
      <stop stop-color="#d3cec5" offset="60%"></stop>
      <stop stop-color="#d3cec5" offset="75%"></stop>
      <stop stop-color="#d3cec5" offset="90%"></stop>
    </radialGradient>
    <radialGradient id="16282281824-posters-1720558160581-radial-light" gradientUnits="userSpaceOnUse">
      <stop stop-color="#9b9a97" offset="0%"></stop>
      <stop stop-color="#9b9a97" offset="15%"></stop>
      <stop stop-color="#9b9a97" offset="30%"></stop>
      <stop stop-color="#9c9a96" offset="45%"></stop>
      <stop stop-color="#9b9a97" offset="60%"></stop>
      <stop stop-color="#9c9a96" offset="75%"></stop>
      <stop stop-color="#9c9a96" offset="90%"></stop>
    </radialGradient>
    <radialGradient id="16282281824-posters-1720558160581-radial-regular" gradientUnits="userSpaceOnUse">
      <stop stop-color="#82807d" offset="0%"></stop>
      <stop stop-color="#82807d" offset="15%"></stop>
      <stop stop-color="#82807d" offset="30%"></stop>
      <stop stop-color="#83807c" offset="45%"></stop>
      <stop stop-color="#82807d" offset="60%"></stop>
      <stop stop-color="#83817c" offset="75%"></stop>
      <stop stop-color="#83817c" offset="90%"></stop>
    </radialGradient>
    <radialGradient id="16282281824-posters-1720558160581-radial-medium" gradientUnits="userSpaceOnUse">
      <stop stop-color="#514f4d" offset="0%"></stop>
      <stop stop-color="#514f4d" offset="15%"></stop>
      <stop stop-color="#514f4d" offset="30%"></stop>
      <stop stop-color="#514f4d" offset="45%"></stop>
      <stop stop-color="#514f4d" offset="60%"></stop>
      <stop stop-color="#51504d" offset="75%"></stop>
      <stop stop-color="#51504d" offset="90%"></stop>
    </radialGradient>
    <radialGradient id="16282281824-posters-1720558160581-radial-bold" gradientUnits="userSpaceOnUse">
      <stop stop-color="#2f2e2d" offset="0%"></stop>
      <stop stop-color="#2f2e2d" offset="15%"></stop>
      <stop stop-color="#2f2e2d" offset="30%"></stop>
      <stop stop-color="#2f2e2d" offset="45%"></stop>
      <stop stop-color="#2f2e2d" offset="60%"></stop>
      <stop stop-color="#2f2e2d" offset="75%"></stop>
      <stop stop-color="#2f2e2d" offset="90%"></stop>
    </radialGradient>
  </g>
  <g class="vertical">
    <linearGradient id="16282281824-posters-1720558160581-vertical" gradientUnits="userSpaceOnUse" x1="0" x2="0" y1="0"
      y2="100%">
      <stop itemprop="vertical" stop-color="#e1e1df" offset="0%"></stop>
      <stop itemprop="vertical" stop-color="#e1e1e0" offset="15%"></stop>
      <stop itemprop="vertical" stop-color="#e1e1df" offset="30%"></stop>
      <stop itemprop="vertical" stop-color="#e1e1df" offset="45%"></stop>
      <stop itemprop="vertical" stop-color="#e4e3e2" offset="60%"></stop>
      <stop itemprop="vertical" stop-color="#e4e3e2" offset="75%"></stop>
      <stop itemprop="vertical" stop-color="#e4e3e2" offset="90%"></stop>
    </linearGradient>
    <linearGradient id="16282281824-posters-1720558160581-vertical-background" gradientUnits="userSpaceOnUse" x1="0"
      x2="0" y1="0" y2="100%">
      <stop stop-color="#cecdca" offset="0%"></stop>
      <stop stop-color="#cdcccb" offset="15%"></stop>
      <stop stop-color="#cecdca" offset="30%"></stop>
      <stop stop-color="#ceccca" offset="45%"></stop>
      <stop stop-color="#cdcccb" offset="60%"></stop>
      <stop stop-color="#cecdca" offset="75%"></stop>
      <stop stop-color="#cecdca" offset="90%"></stop>
    </linearGradient>
    <linearGradient id="16282281824-posters-1720558160581-vertical-light" gradientUnits="userSpaceOnUse" x1="0" x2="0"
      y1="0" y2="100%">
      <stop stop-color="#aea084" offset="0%"></stop>
      <stop stop-color="#ae9f84" offset="15%"></stop>
      <stop stop-color="#aea084" offset="30%"></stop>
      <stop stop-color="#ae9d84" offset="45%"></stop>
      <stop stop-color="#ae9f84" offset="60%"></stop>
      <stop stop-color="#aea084" offset="75%"></stop>
      <stop stop-color="#aea084" offset="90%"></stop>
    </linearGradient>
    <linearGradient id="16282281824-posters-1720558160581-vertical-regular" gradientUnits="userSpaceOnUse" x1="0" x2="0"
      y1="0" y2="100%">
      <stop stop-color="#83817c" offset="0%"></stop>
      <stop stop-color="#82807d" offset="15%"></stop>
      <stop stop-color="#83817c" offset="30%"></stop>
      <stop stop-color="#83807c" offset="45%"></stop>
      <stop stop-color="#82807d" offset="60%"></stop>
      <stop stop-color="#83817c" offset="75%"></stop>
      <stop stop-color="#83817c" offset="90%"></stop>
    </linearGradient>
    <linearGradient id="16282281824-posters-1720558160581-vertical-medium" gradientUnits="userSpaceOnUse" x1="0" x2="0"
      y1="0" y2="100%">
      <stop stop-color="#51504d" offset="0%"></stop>
      <stop stop-color="#514f4d" offset="15%"></stop>
      <stop stop-color="#51504d" offset="30%"></stop>
      <stop stop-color="#514f4d" offset="45%"></stop>
      <stop stop-color="#514f4d" offset="60%"></stop>
      <stop stop-color="#51504d" offset="75%"></stop>
      <stop stop-color="#51504d" offset="90%"></stop>
    </linearGradient>
    <linearGradient id="16282281824-posters-1720558160581-vertical-bold" x1="0" x2="0" y1="0" y2="100%">
      <stop stop-color="#2f2e2d" offset="0%"></stop>
      <stop stop-color="#2f2e2d" offset="15%"></stop>
      <stop stop-color="#2f2e2d" offset="30%"></stop>
      <stop stop-color="#2f2e2d" offset="45%"></stop>
      <stop stop-color="#2f2e2d" offset="60%"></stop>
      <stop stop-color="#2f2e2d" offset="75%"></stop>
      <stop stop-color="#2f2e2d" offset="90%"></stop>
    </linearGradient>
  </g>
  <g class="horizontal">
    <linearGradient id="16282281824-posters-1720558160581-horizontal" x1="0" x2="100%" y1="0" y2="0"
      gradientUnits="userSpaceOnUse">
      <stop itemprop="horizontal" stop-color="#e4e3e2" offset="0%"></stop>
      <stop itemprop="horizontal" stop-color="#dfdedd" offset="15%"></stop>
      <stop itemprop="horizontal" stop-color="#e1e1e0" offset="30%"></stop>
      <stop itemprop="horizontal" stop-color="#e6e6e5" offset="45%"></stop>
      <stop itemprop="horizontal" stop-color="#e1e1df" offset="60%"></stop>
      <stop itemprop="horizontal" stop-color="#e4e3e2" offset="75%"></stop>
      <stop itemprop="horizontal" stop-color="#e1e1e0" offset="90%"></stop>
    </linearGradient>
    <linearGradient id="16282281824-posters-1720558160581-horizontal-background" gradientUnits="userSpaceOnUse" x1="0"
      x2="100%" y1="0" y2="0">
      <stop stop-color="#cecdca" offset="0%"></stop>
      <stop stop-color="#cdcccb" offset="15%"></stop>
      <stop stop-color="#cdcccb" offset="30%"></stop>
      <stop stop-color="#ceccca" offset="45%"></stop>
      <stop stop-color="#cecdca" offset="60%"></stop>
      <stop stop-color="#ceccca" offset="75%"></stop>
      <stop stop-color="#cdcccb" offset="90%"></stop>
    </linearGradient>
    <linearGradient id="16282281824-posters-1720558160581-horizontal-light" gradientUnits="userSpaceOnUse" x1="0"
      x2="100%" y1="0" y2="0">
      <stop stop-color="#9c9a96" offset="0%"></stop>
      <stop stop-color="#9b9a97" offset="15%"></stop>
      <stop stop-color="#9b9a97" offset="30%"></stop>
      <stop stop-color="#9c9a96" offset="45%"></stop>
      <stop stop-color="#9c9a96" offset="60%"></stop>
      <stop stop-color="#9c9a96" offset="75%"></stop>
      <stop stop-color="#9b9a97" offset="90%"></stop>
    </linearGradient>
    <linearGradient id="16282281824-posters-1720558160581-horizontal-regular" gradientUnits="userSpaceOnUse" x1="0"
      x2="100%" y1="0" y2="0">
      <stop stop-color="#968769" offset="0%"></stop>
      <stop stop-color="#968669" offset="15%"></stop>
      <stop stop-color="#968669" offset="30%"></stop>
      <stop stop-color="#968369" offset="45%"></stop>
      <stop stop-color="#968769" offset="60%"></stop>
      <stop stop-color="#968369" offset="75%"></stop>
      <stop stop-color="#968669" offset="90%"></stop>
    </linearGradient>
    <linearGradient id="16282281824-posters-1720558160581-horizontal-medium" gradientUnits="userSpaceOnUse" x1="0"
      x2="100%" y1="0" y2="0">
      <stop stop-color="#5d5441" offset="0%"></stop>
      <stop stop-color="#5d5341" offset="15%"></stop>
      <stop stop-color="#5d5341" offset="30%"></stop>
      <stop stop-color="#5d5141" offset="45%"></stop>
      <stop stop-color="#5d5441" offset="60%"></stop>
      <stop stop-color="#5d5141" offset="75%"></stop>
      <stop stop-color="#5d5341" offset="90%"></stop>
    </linearGradient>
    <linearGradient id="16282281824-posters-1720558160581-horizontal-bold" gradientUnits="userSpaceOnUse" x1="0"
      x2="100%" y1="0" y2="0">
      <stop stop-color="#2f2e2d" offset="0%"></stop>
      <stop stop-color="#2f2e2d" offset="15%"></stop>
      <stop stop-color="#2f2e2d" offset="30%"></stop>
      <stop stop-color="#2f2e2d" offset="45%"></stop>
      <stop stop-color="#2f2e2d" offset="60%"></stop>
      <stop stop-color="#2f2e2d" offset="75%"></stop>
      <stop stop-color="#2f2e2d" offset="90%"></stop>
    </linearGradient>
  </g>
  <g class="masks">
    <mask id="16282281824-posters-1720558160581-pattern-mask" maskUnits="userSpaceOnUse"
      maskContentUnits="userSpaceOnUse">
      <pattern id="pattern" x="0" y="0" width=".0133" height=".0144" viewBox="0 0 23.07 40">
        <path
          d="M17.62 0l-6.07 10.5m2.74 4.76L8.22 4.75m-5.48 0h12.13M.01 0h23.07M6.07 20L0 9.5m2.74-4.75l-6.07 10.5m-5.48 0H3.33m8.2 4.75L0 .02-11.54 20m40.68 0L23.07 9.5m2.74-4.75l-6.06 10.5m-5.49 0H26.4M34.6 20L23.08.02 11.53 20m-5.46 0L0 30.51m2.74 4.75l-6.07-10.5m-5.48 0H3.33m8.2-4.75L0 40l-11.54-19.98zM17.6 40l-6.06-10.5m2.74-4.76L8.2 35.25m-5.48 0h12.13M0 40h23.07L11.54 20.01m17.6 0l-6.07 10.5m2.74 4.75l-6.06-10.5m-5.49 0H26.4M11.53 20h23.08L23.07 40"
          stroke-linecap="round" stroke-width="3.5" stroke="white"
          fill="url(#16282281824-posters-1720558160581-horizontal-background)"></path>
      </pattern>
      <rect width="100%" height="100%" fill="url(#pattern)"></rect>
    </mask>
    <mask id="16282281824-posters-1720558160581-horizontal-mask" maskUnits="userSpaceOnUse"
      maskContentUnits="userSpaceOnUse">
      <rect width="100%" height="100%" fill="url(#16282281824-posters-1720558160581-horizontal-background)"></rect>
    </mask>
    <mask id="16282281824-posters-1720558160581-radial-mask" maskUnits="userSpaceOnUse"
      maskContentUnits="userSpaceOnUse">
      <rect width="100%" height="100%" fill="url(#16282281824-posters-1720558160581-radial-background)"></rect>
    </mask>
    <mask id="16282281824-posters-1720558160581-vertical-mask" maskUnits="userSpaceOnUse"
      maskContentUnits="userSpaceOnUse">
      <rect width="100%" height="100%" fill="url(#16282281824-posters-1720558160581-vertical-background)"></rect>
    </mask>
  </g>
  <use href="#16282281824-posters-1720558160581-pattern-render"></use>
  <g>
    <use href="#16282281824-posters-1720558160581-background"></use>
    <use href="#16282281824-posters-1720558160581-light"></use>
    <use href="#16282281824-posters-1720558160581-regular"></use>
    <use href="#16282281824-posters-1720558160581-medium"></use>
    <use href="#16282281824-posters-1720558160581-bold"></use>
  </g>
  <g itemprop="animation">
    <animate href="#16282281824-posters-1720558160581-light" attributeName="stroke-opacity" repeatCount="indefinite"
      dur="5s" values="0.9;0.0;0.9"></animate>
    <animate href="#16282281824-posters-1720558160581-regular" attributeName="stroke-opacity" repeatCount="indefinite"
      dur="4s" values="0.9;0;0.9"></animate>
    <animate href="#16282281824-posters-1720558160581-medium" attributeName="stroke-opacity" repeatCount="indefinite"
      dur="5s" values="0.9;0;0.9"></animate>
    <animate href="#16282281824-posters-1720558160581-bold" attributeName="stroke-opacity" repeatCount="indefinite"
      dur="3s" values="0.9;0;0.9"></animate>
    <animate href="#16282281824-posters-1720558160581-regular" attributeName="fill-opacity" repeatCount="indefinite"
      dur="8s" values="0.9;0.75;0.95;0.8;0.9;"></animate>
    <animate href="#16282281824-posters-1720558160581-radial-background" attributeName="cx" repeatCount="indefinite"
      dur="34s" values="0%;33%;100%;0%;100%;0%;"></animate>
    <animate href="#16282281824-posters-1720558160581-radial-background" attributeName="cy" repeatCount="indefinite"
      dur="55s" values="0%;100%;33%;100%;66%;0%"></animate>
    <animate href="#16282281824-posters-1720558160581-vertical-light" attributeName="x1" repeatCount="indefinite"
      dur="55s" values="0%;33%;100%;0%;133%;0%;"></animate>
    <animate href="#16282281824-posters-1720558160581-vertical-light" attributeName="y1" repeatCount="indefinite"
      dur="86s" values="0%;100%;33%;100%;66%;0%"></animate>
    <animate href="#16282281824-posters-1720558160581-horizontal-regular" attributeName="x1" repeatCount="indefinite"
      dur="34s" values="0%;100%;66%;0%;33%;133%;0%"></animate>
    <animate href="#16282281824-posters-1720558160581-horizontal-regular" attributeName="y1" repeatCount="indefinite"
      dur="55s" values="0%;66%;100%;33%;100%;66%;0%"></animate>
    <animate href="#16282281824-posters-1720558160581-vertical-medium" attributeName="x1" repeatCount="indefinite"
      dur="34s" values="0%;100%;66%;0%;33%;133%;0%"></animate>
    <animate href="#16282281824-posters-1720558160581-vertical-medium" attributeName="y1" repeatCount="indefinite"
      dur="55s" values="0%;66%;100%;33%;100%;66%;0%"></animate>
    <animate href="#16282281824-posters-1720558160581-vertical-bold" attributeName="x1" repeatCount="indefinite"
      dur="34s" values="0%;100%;66%;0%;33%;133%;0%"></animate>
    <animate href="#16282281824-posters-1720558160581-vertical-bold" attributeName="y1" repeatCount="indefinite"
      dur="55s" values="0%;66%;100%;33%;100%;66%;0%"></animate>
  </g>
</svg>
