<svg id="16282281824-posters-1720560287862" itemscope="" itemtype="/posters"
  itemid="/+16282281824/posters/1720560287862" viewBox="0 0 769 512" preserveAspectRatio="xMidYMid meet" tabindex="0"
  class="animate landscape" xmlns="http://www.w3.org/2000/svg">
  <!---->
  <defs class="graphic">
    <pattern id="16282281824-posters-1720560287862-pattern" width="769" height="512" viewBox="0 0 769 512"
      patternUnits="userSpaceOnUse" preserveAspectRatio="xMidYMid meet">
      <rect itemprop="background" width="769" height="512" tabindex="-1"
        id="16282281824-posters-1720560287862-background" fill-opacity="1"
        fill="url(#16282281824-posters-1720560287862-radial-background)"></rect>
      <!---->
      <path id="16282281824-posters-1720560287862-light"
        d="M37 3c0 10 10 16 19 12q7-5 8-12 1-4-5-3-6 0-5 2 1 5-3 6-5-1-4-6 1-2-5-2-6-1-5 3m180 0q1 10 13 12 8-1 12-9 5-7-3-6l-5 1a4 4 0 1 1-7 2q1-4-5-3h-5zm181 2a13 13 0 1 0 26-1V1l-13-1h-13zm179-3q-2 5 4 11c7 7 20 2 22-8l1-5h-5q-8-1-5 3a4 4 0 1 1-7 0q1-4-5-3-5 0-5 2m179 1c-2 6 4 13 10 13q4 1 3-4l-1-4-1-5V0h-5q-7-1-6 3M408 3q-2 3 1 6a4 4 0 1 0-1-6M271 17a13 13 0 1 0 19 10c0-9-11-15-19-10m92 0c-13 4-14 16-2 23 9 5 22-8 17-17-2-4-10-9-11-8zm86 0a13 13 0 1 0 17 15c6-9-8-22-17-15m-269 0a13 13 0 1 0 17 15c4-10-7-19-17-15M1 18v9l1-1c0-2 7-1 8 2 1 4-4 7-7 4q-4-5-3 4v5h5a12 12 0 1 0-4-23m85 2c-8 7-2 21 8 21 12 0 19-14 11-21-5-4-15-4-19 0m453-1q-7 3-7 12c0 14 23 15 26 1 1-10-9-18-19-13m89 0c-11 7-7 23 6 23q13-1 13-12c0-10-11-16-19-11m88 2q-5 5-6 10a12 12 0 0 0 11 12c2 4 15-4 17-10 2-11-13-19-22-12M92 26q-4 5 3 6 7-1 4-6-3-4-7 0m182 0q-1 6 5 5 3-2 2-6-4-3-7 1m90-1-2 3c0 4 8 6 9 1q0-6-7-4m-182 2v3a4 4 0 1 0 0-4m269 1q-2 5 3 5 7 0 4-5c-1-3-6-2-7 0m91-1q-3 6 2 8 8-2 3-8zm88 2q0 9 7 4 4-2 0-5-5-4-7 1m92 0q-4 3 1 6c4 2 8-3 4-7q-3-2-5 1M136 40c-10 5-10 16-1 22s23-4 19-14a12 12 0 0 0-9-9q-2-2-9 1m178 1c-13 11-1 29 14 21a13 13 0 1 0-14-21m181 0q-8 4-8 12a13 13 0 1 0 8-12m180 0c-15 7-10 27 5 25 10-2 15-11 12-18q-8-9-17-7m-536 7q-2 4 1 7c4 2 7-3 4-6q-2-3-5-1m179 3q0 4 4 4a3 3 0 1 0-4-4m179-1q-4 8 5 6a4 4 0 1 0-5-6m179 0a4 4 0 1 0 7 1c-1-1-6-2-7-1M70 60c-12 3-12 18-1 22 13 4 24-8 15-18q-6-6-14-4m494 0c-9 3-12 15-4 22a15 15 0 0 0 15 0q6-2 7-11c0-8-9-14-18-11M23 61a13 13 0 1 0 19 11c0-9-11-15-19-11m178 0c-10 8-6 23 7 23 14 0 19-13 9-22-3-2-13-3-16-1m43 1c-5 3-7 11-5 16 9 16 34 6 26-10-3-7-15-11-21-6m140-1c-14 4-11 24 3 24a12 12 0 1 0-3-24m223 1c-8 5-9 16-2 21 12 8 28-5 20-16q-9-10-18-5m134-1c-14 4-9 24 6 24q7 0 11-7c6-9-5-21-17-17m-316 3q-9 9 0 18c7 7 22 1 22-9s-14-16-22-9M27 68a5 5 0 1 0 6 7 5 5 0 0 0-6-7m43 1a4 4 0 1 0 8 5 4 4 0 0 0-8-5m496-1q-3 6 3 8l4-4c0-3-5-6-7-4m-360 2q-2 3 3 5 4 0 4-4-3-5-7-1m224 1q-2 5 3 6 8-1 3-7-4-4-6 1m314-1q-4 3 0 5 5 3 6-3-1-6-6-2m-132 0a4 4 0 1 0 4 0zM315 81c-10 5-11 16-2 22 10 6 21-1 20-14 0-2-6-9-9-9l-3-1zm-179 0c-14 7-10 24 5 24 8 0 15-8 12-15 0-3-7-9-8-9zm359 0c-3 0-10 7-11 10-1 7 7 16 14 16 8 0 16-10 13-18-1-3-7-8-8-8zm178 3q-9 4-7 16c4 13 25 9 25-5 0-9-9-14-18-11m-355 5a4 4 0 1 0 6 1q-2-3-6-1m-180 2q-2 6 3 6 6-2 3-7-4-2-6 1m357 1a4 4 0 1 0 7 0q-4-4-7 0m180 2q0 4 4 4 5-2 3-5-5-4-7 1m-584 9a12 12 0 1 0 9 22c11-5 11-17 1-22-5-2-4-2-10 0m270 0c-9 1-13 14-6 21 8 9 24 2 24-9a15 15 0 0 0-18-12m87 1q-13 9-3 21c10 9 27-4 20-16q-5-9-17-5M0 109q-1 7 3 4 7-2 5 5a4 4 0 0 1-7-1q-1-1-1 5v6h5q7 0 11-6c5-9-1-19-11-19H0zm176-2c-10 12 2 27 16 19 11-7 7-23-7-23-6 0-6 0-9 4m93-1c-10 6-8 19 4 23a13 13 0 1 0-4-23m265 2c-7 8-4 19 8 20 13 1 20-15 9-22q-9-7-17 2m91 0c-10 10-1 24 13 20 10-3 13-13 5-20q-9-9-18 0m91-1c-11 8-6 23 8 23 6 0 13-7 13-13 0-10-13-16-21-10m-623 5q-2 1-1 4c1 3 7 3 8-1q0-7-7-3m268 2q0 5 5 4a4 4 0 1 0-5-4m91-2a4 4 0 1 0 4 6 4 4 0 0 0-4-6m88 1v5c4 4 10 0 7-5q-4-4-7 0m-358 0c-3 3 0 8 5 6a4 4 0 1 0-5-6m450 0a4 4 0 1 0 4 0zm-359 2q0 3 4 5 4 0 3-5c0-3-6-3-7 0m447 0v5c3 3 9-1 6-5q-3-4-6 0M45 127q-6 4-8 12c-1 9 13 16 21 10 2-1 6-8 6-11 0-8-11-14-19-11m358 1a13 13 0 1 0 19 16c6-11-7-22-19-16m-182 2c-12 12 0 28 15 20 6-2 8-11 5-17s-15-8-20-3m360 0c-14 10 0 30 15 22q14-10 0-21c-3-2-12-3-15-1m181 2c-9 6-10 17-1 22q8 6 8-2 1-5-2-5-2 0-2-3t2-3q3-1 2-6 1-8-7-3m-715 5q-3 6 5 6 5-1 1-6-3-4-6 0m179 1q-2 3 1 4a4 4 0 1 0-1-4m181 0a4 4 0 0 0 6 3q2-5-2-5zm179 0a4 4 0 1 0 6 1q-3-3-6-1m-114 11c-8 3-11 14-4 20 10 11 28-4 19-16q-6-9-15-4m-358 0c-13 6-9 24 4 24s19-15 10-22q-8-4-14-2m45 0a13 13 0 1 0 17 7q-6-9-17-7m179 0c-6 2-11 11-8 17 7 13 26 8 26-6 0-4-5-11-9-11zm176 2q-11 10-1 19a12 12 0 0 0 16 0q3 0 5-6c4-12-10-20-20-13m-221 1c-10 7-6 21 6 22q10 0 13-7c7-12-8-23-19-15m360-1q-15 7-4 21c3 4 13 3 18-2 9-9-2-25-14-19m47 0a12 12 0 0 0-9 7c-4 3-2 13 4 16 7 6 20-2 20-11 0-5-8-13-12-13zm-538 7a4 4 0 1 0 5 5 4 4 0 0 0-5-5m312-1v7c2 1 7-1 7-4q-1-5-7-3m-358 2q-2 3 1 4a4 4 0 1 0-1-4m224-1v7a4 4 0 1 0 0-7m179 1q-2 3 1 5c5 2 8-3 5-6q-4-2-6 1m-222 1q-3 5 3 6 7-1 5-6-4-4-8 0m357-1q-2 6 4 7 5-1 3-6c-1-2-6-3-7-1m45 1-1 4a4 4 0 1 0 1-4m-476 12q-9 7-5 17c6 13 24 8 24-6 0-10-10-16-19-11m-177 0c-6 1-11 10-9 16 3 10 19 10 25 0 5-8-6-18-16-16m536 2q-12 9-4 18c5 6 8 6 19 2l3-3c7-11-7-24-18-17m181 0c-12 6-10 24 3 24q4-1 3 4 0 5 1 3c1-3-1-16-3-16l-2-1q-1-5 2-6 2 1 2-5 2-8-6-3m-357 1c-13 1-12 24 2 24 15 0 20-17 6-23l-4-2zm-180 6v4a4 4 0 1 0 0-4m-180 1q-3 3 2 5 5 1 6-3-2-5-8-2m539 0q0 8 6 6 4-4-2-7zm-179 4q0 4 4 6 3-1 4-5c0-3-6-4-8-1M90 197c-8 3-11 12-8 18 4 8 14 9 22 2 11-9-2-25-14-20m183 0c-13 3-13 22 1 24 9 2 18-9 15-16q-6-10-16-8M1 202q0 5 1 4h6q3 7-6 7-2-3-2 4 0 9 10 3c12-6 9-23-5-23H1zm177-3c-13 8-9 23 6 23q7 1 12-7c7-10-7-22-18-16m180 0c-11 6-6 23 6 23q14-1 15-13c0-10-12-15-21-10m90-1c-7 3-10 14-5 20 7 9 24 2 24-8 0-8-11-15-19-12m88 2a13 13 0 1 0 15 21 13 13 0 0 0-15-21m90 1c-9 7-8 18 2 22 12 4 23-11 15-20q-9-8-17-2m93-1c-10 3-13 14-6 21 11 11 31-6 20-18q-3-3-5-3l-2-1q-1-2-7 1m-627 7q-4 5 3 5l4-2c1-4-4-7-7-3m181 0a4 4 0 1 0 8 2l-1-3c0-2-6-1-7 1m178-1c-3 3 0 10 4 7q5-3 2-6-4-3-6-1m-270 2q-2 4 3 5a3 3 0 1 0 0-7zm359 0c-3 3 1 8 5 7a4 4 0 0 0-5-7m90 0c-4 2-2 7 3 7q6-1 4-7zm-496 14q-9 6-6 16c6 10 20 9 25-1 2-5 2-5 0-10-3-6-12-9-19-5m184-1c-12 2-14 21-2 24 14 3 24-12 13-21q-5-5-11-3m175 2c-10 5-10 16-1 22a13 13 0 1 0 1-22m180 0-6 5c-10 12 8 26 20 16 11-9-1-27-14-21m-535 6a4 4 0 1 0 6 6 4 4 0 0 0-6-6m181 1q-5 6 1 7a4 4 0 1 0-1-7m176 2a4 4 0 1 0 7 0l-4-2zm179 1a4 4 0 1 0 8 0q-4-4-8 0m-605 7c-15 7-9 28 7 25a13 13 0 1 0-7-25m-45 1c-12 4-11 20 1 23q6 1 13-4 4-2 3-7-2-16-17-12m180 0q-6 1-9 10c-3 13 14 20 23 9 8-9-1-22-14-19m355 2c-7 5-6 18 2 21 17 6 28-15 12-22q-8-4-14 1m-315 1c-11 9-6 21 8 21q8 1 11-6c7-10-9-24-19-15m136 0q-12 8-3 18c8 10 28-2 23-12l-2-4c-2-5-13-6-18-2m47-1a13 13 0 1 0 11 23 13 13 0 0 0-11-23m181-1a13 13 0 1 0 9 24 13 13 0 0 0-9-24m134 0-4 1c-6 2-8 14-3 19 9 9 26 1 23-11-2-7-14-13-16-9m-717 7q-2 5 2 7c4 2 8-4 5-7zm44 0q-2 4 1 6 5 4 7 0c2-5-4-10-8-6m497 0q-4 5 0 8c4 1 8-5 4-8zm-362 3a4 4 0 1 0 8 0l-4-2zm43-1v4c2 4 8 2 8-3 0-2-6-3-8-1m137 1q-3 4 3 6l5-4c0-3-6-5-8-2m45 0q-2 6 4 6 5-1 3-6-4-4-7 0m315-1a4 4 0 1 0 4 7 4 4 0 0 0-4-7m-135 1q-2 3 1 6 9 1 6-6c-1-1-6-2-7 0m-471 9q-11 4-12 15 2 6 9 10c11 5 23-10 16-19-3-4-10-7-13-6m178 0c-15 5-12 26 3 26 6 0 14-8 14-14l-2-5c0-4-11-9-15-7m177 2q-7 3-9 10c-3 11 10 18 20 11 13-9 4-26-11-21m177 3c-10 8-6 22 6 22 14 1 19-14 8-22-2-3-11-2-14 0m-353 4c-3 2-2 7 2 7q7-1 3-6-3-3-5-1m-180 1q-3 5 3 7 5-1 4-6-3-3-7-1m358 0q-4 4 1 7c4 2 7-3 3-6q-1-3-4-1m178 4q-1 5 3 6 5 0 5-5c-1-3-7-4-8-1m-584 8q-11 9-6 19c4 7 14 8 21 2 11-10-3-29-15-21m92 1c-13 3-14 22-1 24 15 3 23-17 10-23q-4-3-9-1m177 0c-6 2-10 11-7 17 6 15 31 5 25-10-2-5-13-9-18-7M0 289q0 5 2 4 5-1 6 3-1 4-5 4-4-3-3 4v5h4c16-3 17-25 1-25H0zm267-1c-11 11 1 28 15 20a13 13 0 1 0-15-20m179-1q-7 4-6 10c0 10 15 15 22 8 10-11-3-27-16-18m91-1a12 12 0 1 0 15 18c9-10-3-25-15-18m92 0c-5 1-11 9-10 14 3 10 15 14 22 7 11-10 3-24-12-21m86 2c-6 3-8 12-4 17 8 11 26 4 24-9-2-8-13-13-20-8m-623 4q-3 5 2 6 5-1 4-5-2-3-6-1m89 2a4 4 0 1 0 6 5 4 4 0 0 0-6-5m91 0q-3 6 4 7 6-1 3-6-4-3-7-1m177 1q-2 5 4 5 5-2 3-5-4-4-7 0m89-1q-2 6 4 6 4 0 4-3c0-4-6-6-8-3m94 0-4 4q1 4 7 3c4-2 1-9-3-7m87 1q-2 4 1 7 9 0 5-6-4-3-6-1M47 307c-9 2-15 13-10 19q10 12 21 2c9-9 2-24-11-21m356 2c-9 6-10 16-2 21q11 6 19-4c7-10-6-24-17-17m-178 0c-15 4-12 24 3 24 9 0 16-10 13-17q-6-9-16-7m358 1c-9 4-12 15-5 21 5 5 17 4 22-3 6-9-6-23-17-18m179 3c-11 4-12 18-2 22q10 5 9-2 1-4-2-4l-3-2c-3-3 0-8 3-6q3 1 2-4 0-7-7-4m-716 5a4 4 0 1 0 7 0q-3-4-7 0m180 0q-3 3 0 5 4 4 6-2c2-4-3-7-6-3m180-1a4 4 0 1 0 5 6 4 4 0 0 0-5-6m180 2a4 4 0 1 0 4 6 4 4 0 0 0-4-6m-473 9c-13 6-10 25 3 25 16 0 20-20 6-24q-6-3-9-1m45 1c-7 2-11 12-7 17q7 9 18 5c14-7 5-27-11-22m180 0c-15 3-12 25 3 24a13 13 0 1 0-3-24m134 0c-15 5-13 24 3 24q6 1 9-4c9-10 0-24-12-20m-182 4q-7 8-2 15c4 8 18 8 23 0 8-14-10-26-21-15m224-2q-11 8-5 16c7 12 25 6 25-7 0-8-13-14-20-9m135 1c-8 6-8 18 1 23 10 5 23-8 19-17-4-8-14-11-20-6m47 0q-14 8-4 20 9 9 19-2c8-9-3-22-15-18m-581 5q-2 6 3 7 7-1 4-6-4-3-7-1m46 0a4 4 0 1 0 4 0zm312 1q-4 4 0 6 10 0 5-6-2-4-5 0m-135 2q-2 6 4 5 6-2 2-6-3-5-6 1m179-2c-3 4 1 9 5 6 5-2 3-7-1-7zm-220 1q-2 3 1 6 5 1 6-4c0-2-6-4-7-2m356 1q-2 5 3 6 3 0 4-3c1-4-4-7-7-3m45 1q-2 1-1 4a4 4 0 1 0 1-4m-474 10q-8 5-9 12c0 13 15 18 23 7 8-10-3-24-14-19m-180 1c-8 2-12 13-7 19 7 8 22 5 25-6 2-7-9-16-18-13m538 2q-12 6-7 16c7 13 29 6 25-8q-6-13-18-8m175 3q-5 5-4 9a8 8 0 0 0 4 8q4 5 10 4 2-1 2 4 0 3 1 2v-9q0-7-4-6a4 4 0 1 1 2-7l1-4q-1-10-12-1m-352-2c-9 3-13 13-7 20 9 11 28 0 22-12q-4-11-15-8m-359 6q-4 5 2 6 8-1 3-6-2-4-5 0m179 0q-2 5 3 6a4 4 0 1 0-3-6m360 1c-2 1-1 6 2 7 2 0 6-4 4-6q-2-3-6-1m-179 2q-3 4 1 7a4 4 0 1 0-1-7M3 376c-3 0-3 9 0 9 5 0 7 5 3 7H2q-2-1-2 4c0 8 7 7 13 0 7-8 0-23-10-20m85 1q-8 4-8 11c0 15 19 19 26 5 5-9-9-21-18-16m180 2c-11 7-5 23 7 23a13 13 0 1 0-7-23m179-1c-7 3-10 11-8 16q9 16 22 4c7-7 4-18-5-20l-4-1q-2-1-5 1m-268 0c-5 1-10 8-10 12 0 10 13 16 21 9 12-10 4-25-11-21m179 1q-13 7-3 20c6 7 19 3 22-7 2-10-9-18-19-13m181 0c-10 2-13 13-6 20q10 9 19 0c8-8-1-23-13-20m86 1q-10 7-5 17 9 15 22 1c9-10-5-25-17-18m91 1c-10 4-12 15-4 21 12 9 30-7 20-18q-8-7-16-3m-626 5c-3 4 2 9 6 6l1-6q-3-3-7 0m91 0a4 4 0 1 0 4 1q-2-3-4-1m91 1q-3 5 2 6 6 1 4-5-3-5-6-1m89-1v6c6 2 11-2 6-5q-3-3-6-1m89 1c-3 3-1 8 3 7q5-3 2-7zm179 1a4 4 0 1 0 3 0zm90 1q-4 5 0 6a4 4 0 1 0 0-6m-181 0c-2 3 2 8 6 6s3-7-1-7zm-403 11c-9 4-12 14-5 21 10 10 28-3 21-15q-6-8-16-6m180 1c-7 2-12 13-8 19 7 9 19 8 24-2s-5-20-16-17m175 2c-8 6-8 18 1 23q7 3 15-3c11-9-3-28-16-20m181 0c-14 7-8 27 7 25 15-3 16-20 3-25-5-2-5-2-10 0m-535 7v4a4 4 0 1 0 0-4m182-1q-4 5 0 8 4 1 5-4-1-5-5-4m175 2q-1 6 3 7c4 0 7-5 4-7zm179 3a4 4 0 1 0 7 2 4 4 0 0 0-7-2m-649 6c-11 6-12 19-2 23 13 6 25-7 17-18q-7-9-15-5m43 0c-15 7-7 27 9 24 10-2 13-11 8-19q-7-8-17-5m134 3q-9 6-6 14c4 12 23 10 25-2 2-10-10-18-19-12m41 3c-12 12 7 28 19 15 8-7 2-20-9-20q-6-1-10 5m139-3c-16 7-5 30 11 23a13 13 0 1 0-11-23m46 0c-16 5-8 27 9 23q12-4 8-16-5-11-17-7m130 2c-8 9-3 20 10 20q12-1 13-12c0-12-15-16-23-8m181-2q-12 7-5 17 9 11 20 2c12-10-3-27-15-19m-132 0q-4 1-4 4l-2 2q-3 2 0 11c4 8 15 10 22 2 9-10-2-23-16-19m-535 5c-4 1-3 7 1 8a4 4 0 1 0-1-8m-46 2q-4 5 4 6 5-1 3-6-4-5-7 0m179 1q-2 2 1 4a4 4 0 1 0-1-4m44 0q-4 3 1 6 4 3 6-2 0-5-4-6zm316-1c-3 3 0 8 5 6a4 4 0 1 0-5-6m-181 2a4 4 0 1 0 7 4 4 4 0 0 0-7-4m46 0q-2 5 3 6a4 4 0 1 0-3-6m312-1q-2 4 1 6 6 3 6-3-2-6-7-3m-133 1q-1 5 3 6 5 0 5-4c-1-3-7-4-8-2m-477 13c-12 11 4 29 16 19q11-9 2-19-9-9-18 0m180-2c-10 8-4 25 9 25 3 0 10-6 12-11 4-11-12-22-21-14m179 1q-8 6 3 7 11 2 7 6-4 3-9-1c-5-4-9 1-5 7 8 11 26 2 23-11-2-9-11-12-19-8m183 1-2 1c-5 0-10 10-7 16q3 8 12 7a12 12 0 1 0-3-24m-537 7a4 4 0 1 0 8 4 4 4 0 0 0-8-4m537 2c-3 1 1 8 4 7q4-3 3-7zm-580 9c-12 2-16 12-7 21s28-3 20-15c-2-4-8-8-9-7zm-92 5q0 8 2 4l3 1q6 6-2 7-4-1-3 5v4l4-1c14-2 16-20 2-24q-7-3-6 4m176-3c-13 8-7 26 8 24q9-3 12-11c1-11-11-19-20-13m181-1c-10 4-10 20-1 24 12 6 25-8 18-18q-6-9-17-6m92 0a14 14 0 0 0-10 18l2 2c3 8 15 7 21-1 7-10 0-20-13-19m-181 2c-7 3-10 14-6 17l2 3 3 2 1 1c0 2 7 2 11 0a13 13 0 1 0-11-23m267-1c-11 7-10 22 2 25 11 2 21-13 14-21q-8-7-16-4m92 1c-7 2-12 13-7 19 9 10 24 5 24-8a13 13 0 0 0-17-11m89 0c-14 4-11 25 4 25 7 0 14-8 13-15a16 16 0 0 0-12-10zm-59 4c-4 3 2 6 6 4q4-1 0-4-3-3-6 0m-565 1q-3 1-2 7 0 3 3 2a5 5 0 1 0-1-9m88 2c-2 1-1 6 1 7q6 0 5-4 0-5-6-3m181 0a4 4 0 1 0 4 6 4 4 0 0 0-4-6m-89 2q-3 3 0 5c4 3 8-2 5-6q-3-2-5 1m175 0q0 5 5 5 4-1 3-4-3-5-8-1m89 0q1 5 5 6a4 4 0 1 0-5-6m93 0a4 4 0 1 0 4 0q-2-3-4 0m88 0a4 4 0 1 0 5 6 4 4 0 0 0-5-6M43 488l-1 1c-6 0-9 12-4 18 9 12 30-2 21-15-3-4-16-8-16-4m179 1c-8 4-11 15-5 20 5 4 15 4 20-1 9-9-3-26-15-19m180 0c-8 3-10 15-5 20 4 4 16 4 20 1 10-12-2-28-15-21m178 2-3 3c-5 3-6 11-2 16 3 3 19 3 22-1 4-4 1-17-4-17l-2-1-5-1zm176 4q-6 6-4 14c1 4 17 5 17 1q0-5-3-2a4 4 0 1 1 1-6q3 2 2-4v-6h-4q-5 0-9 3m-710 2q-3 2-1 5a4 4 0 1 0 1-5m179 0c-2 1-1 7 1 8 4 1 7-4 4-7q-3-3-5-1m358 3c-2 1-1 6 2 7q5 0 5-5c0-3-5-4-7-2m-471 9q-10 3 6 3 15 0 3-3-6-3-9 0m45-1q-9 4 5 4 10 0 8-1l-9-4zm136 1-3 2q-3 1 7 1 15 0 4-3zm42 1q-7 2 5 2 13 0 4-3c-6-1-6-1-9 1m133 0q-7 3 6 2c9 0 9 0 8-2-3-2-11-2-14 0m44 0q-4 2 7 2 10 0 7-2z"
        mask="url(#16282281824-posters-1720560287862-horizontal-mask)" itemprop="light" fill-opacity="0.90"
        fill-rule="evenodd" stroke="none" fill="url(#16282281824-posters-1720560287862-vertical-light)"></path>
      <!---->
      <path id="16282281824-posters-1720560287862-regular"
        d="M37 2a13 13 0 1 0 26 1q1-4-4-3-6 0-4 2 1 5-3 6c-3 1-8-3-6-6q2-2-3-2t-6 2m180 1q3 12 13 11c5 0 12-6 13-11q1-4-4-3-5-1-4 3l-3 3q-5 2-6-4 1-2-5-2h-4zm182 1c-3 14 19 19 24 5q4-10-6-9-8-1-3 3 3 4-1 7c-6 2-9-5-5-8q4-2-3-2h-6zm178 0c0 15 24 15 26 0V0h-4q-6 0-4 2 0 5-5 6-5-1-4-6 1-2-4-2h-5zm180-1c-2 5 4 13 9 13 3 0 4-6 2-8l-2-5q1-4-4-3-6-1-5 3M272 17c-12 6-8 23 5 23s17-15 7-22c-5-4-6-4-12-1m91 0c-7 2-11 10-9 15 4 10 18 10 23 0 5-8-5-18-14-15m87 0c-8 3-10 14-5 20q2 2 8 3c9 1 17-9 13-17-2-6-11-8-16-6M1 18v8l2-1a5 5 0 1 1-1 7l-1-1-1 4q-1 6 3 5c5 2 12-3 14-7 3-9-7-19-16-15m89 0q-13 9-3 19a12 12 0 1 0 3-19m86 3q-7 7-1 15a12 12 0 1 0 1-15m362-1c-5 2-8 12-4 16 7 10 23 5 23-6 0-10-9-15-19-10m89 1c-12 10 0 26 13 19q12-7 3-19-8-6-16 0m93-2c-11 3-12 18-1 23 11 4 23-9 16-18q-5-8-15-5m-445 5q-3 3-1 7a4 4 0 1 0 1-7m89 0q-3 3-1 8 5 2 8-1c2-5-3-10-7-7M92 25q-4 5 2 8a4 4 0 1 0-2-8m91 1a4 4 0 1 0 5 0q-2-3-5 0m269-1c-4 2-2 8 3 8q4-1 5-5-2-5-8-3m89 1q-2 5 1 8a5 5 0 1 0-1-8m89 1q-2 4 3 7 6 0 7-4c0-4-8-6-10-3m91 0q-3 2 0 6c2 4 8 2 8-3q-2-7-8-3M136 40c-7 4-9 14-4 19 9 9 24 2 22-10q-4-13-18-9m179 1a12 12 0 1 0 19 11c1-10-12-17-19-11m181 0c-14 4-9 27 5 24a12 12 0 1 0-5-24m178 1c-12 6-9 23 5 23 12 0 18-14 8-21-3-2-10-3-13-2m-536 6a5 5 0 1 0 7 7 5 5 0 0 0-7-7m182 0c-5 1-3 8 2 8q7-2 3-7-2-3-5-1m176 2q-4 6 4 7 7 0 4-6-3-5-8-1m180-1q-3 3-1 8c5 3 12-3 8-6q-4-3-7-2M25 61c-8 2-11 14-5 19 11 9 27-1 20-13q-4-8-15-6m43 1c-12 7-7 20 6 20q11 0 12-9c1-10-10-17-18-11m134 0c-11 7-6 22 6 22q10 0 13-9c3-10-9-19-19-13m41 1c-7 7-4 20 7 22q10 1 15-7c5-12-11-24-22-15m319-1c-6 4-8 13-2 18 8 9 25-1 21-12-3-8-12-11-19-6m180-1q-8 4-8 12c1 14 20 16 25 2a13 13 0 0 0-17-14m-361 1c-3 2-6 9-6 13 2 10 15 13 22 5 9-10-4-23-16-18m49 0c-13 3-10 25 4 22 14-2 17-16 4-22zm177 0c-5 3-8 13-4 17 9 12 28 2 22-11-3-6-12-9-18-6M70 68q-5 4 1 7 5 3 8-1c3-6-4-11-9-6m496 0q-4 3 0 7t7-1c3-5-3-10-7-6M26 68v8c3 3 9 0 9-4q-1-6-9-4m181 0a4 4 0 1 0 5 7 4 4 0 0 0-5-7m42 1c-3 4 1 9 5 7q5-3 1-7zm135 1q-3 7 4 7 5 0 5-4c0-5-7-7-9-3m45 0q-3 7 3 7a5 5 0 1 0-3-7m182 0-2 3 5 5 5-5-5-5zm133-1a5 5 0 1 0 6 7 5 5 0 0 0-6-7M314 82a12 12 0 1 0 17 5q-8-11-17-5m-177 0q-7 3-9 11c-1 6 6 12 13 12 13-2 16-18 4-23zm357 0q-11 6-8 16c5 10 17 11 23 1 6-9-5-21-15-17m179 3q-7 3-7 13c2 11 14 13 22 4 8-10-3-23-15-17m-356 4c-4 5 3 11 7 6q4-3 0-6-3-4-7 0m-180 2a5 5 0 1 0 7-1q-3-5-7 1m359-1q-4 4 0 7 6 2 7-3 0-6-7-4m180 2q-4 6 3 7a4 4 0 1 0-3-7M92 103q-7 4-9 9 0 15 14 14c13-2 15-18 3-23zm-90 1q-2-1-2 5 0 5 2 3a5 5 0 1 1 0 8l-2-2v10l5-1q9 0 12-9a13 13 0 0 0-15-14m175 3c-11 11 1 27 14 19a12 12 0 1 0-14-19m181-3q-6 4-6 12c2 16 24 15 26 0 1-9-10-16-20-12m89 1a12 12 0 1 0 15 1q-7-6-15-1m96-1c-11 1-16 12-9 19 9 10 26 0 22-11q-4-8-13-8m-274 2c-11 7-6 22 8 22q8 0 11-9c4-10-9-19-19-13m358 1c-7 5-7 15-1 19 14 9 29-10 15-19q-8-5-14 0m88 2q-7 6-2 15c8 12 29 1 22-12-4-8-14-9-20-3m-623 2a5 5 0 1 0 7 6 5 5 0 0 0-7-6m270 1q-4 4 1 7 5 2 6-4-1-8-7-3m179 0q-5 6 4 8 6-3 1-8-3-3-5 0m-360 1q-2 6 3 7 7-1 5-6-3-6-8-1m269 0c-2 5 4 9 8 5q2-3-1-5-4-4-7 0m181 0q-5 8 4 8 6-3 2-8-4-3-6 0m-357 0v7c4 3 8-2 7-6q-3-3-7-1m446 1c-2 1-1 6 1 7a5 5 0 1 0-1-7M46 128q-5 2-7 9c-4 9 8 18 18 12 13-8 3-27-11-21m183 0h-4c-10 3-10 22 0 23q17 1 17-12c0-6-8-13-13-11m174 1a13 13 0 1 0 13 22 13 13 0 0 0-13-22m179 2c-13 8-2 28 12 21l6-5c7-10-7-22-18-16m180 2c-9 6-9 18 1 22q7 4 6-3 1-4-2-4c-3 0-4-5-1-7 7-6 3-13-4-8m-715 3q-3 3 0 6a5 5 0 1 0 0-6m180 1q-4 3 0 7c5 3 9-3 5-7q-2-3-5 0m180-1q-3 6 4 7 5-1 3-6-3-3-7-1m179 1c-2 1-2 6-1 7q4 4 8 1c3-4-2-11-7-8m-114 12q-9 6-7 16c5 12 22 8 24-5 1-8-9-14-17-11m-362 4q-7 5-2 14c8 12 28 2 23-11-4-8-14-10-21-3m45 0c-11 12 7 27 18 15 8-8 2-19-11-19q-3 0-7 4m180-1c-9 8-4 21 7 21q8 0 12-7c7-11-9-23-19-14m178 1c-10 9 1 24 13 18 13-6 9-22-5-22q-4 0-8 4m-219-1c-9 6-7 20 4 22 7 1 17-7 15-14-1-8-12-13-19-8m358-1q-10 6-5 17c6 11 25 4 22-9-1-7-10-11-17-8m47 1c-11 3-13 17-3 23 4 2 13-1 16-5 6-8-3-22-13-18m-584 7q-1 8 6 6 5-3 1-7-3-4-7 1m46-1q-4 2 0 6 6 3 8-3-2-7-8-3m312 0q-1 6 3 7 7-1 5-6-3-6-8-1m45 0q-3 5 2 7 6 1 6-4c0-5-6-7-8-3m-220 1q-4 5 2 7 9-1 4-7-3-4-6 0m41 1q0 9 7 4 3-1 1-4c-2-4-8-4-8 0m315-1q-2 6 2 8 8 1 6-8-4-5-8 0m44 1q-2 4 1 7c4 2 9-2 7-6q-3-3-8-1m-474 12c-8 3-9 17-1 22 4 4 15 0 18-6 5-10-6-20-17-16m-183 4c-10 9-1 23 13 18q12-5 7-14-8-14-20-4m540 0q-6 4-5 12c0 2 6 8 9 9 10 1 19-8 16-15q-8-13-20-6m183-2c-12 4-11 23 2 23q4-1 3 4l1 4v-8q-1-8-3-7c-5-1-4-9 1-9l1-4-1-4zm-361 3c-7 3-7 16 0 20 8 5 19-2 19-11 0-8-11-14-19-9m-177 3c-3 4 2 9 6 7q5-5-2-8zm-180 1q-3 3 2 7 2 2 5-1c4-5-2-10-7-6m539 1q-2 4 1 6 6 3 8-3c0-5-7-7-9-3m-179 3q-2 8 5 7 5-3 2-7-4-4-7 0M2 198l-1 4q0 5 2 3 4-1 6 2c2 4-4 9-8 6q-1-1-1 3v5h4a12 12 0 1 0-2-23m83 3c-11 11 2 26 16 18 12-7 7-22-6-22q-6-1-10 4m94-2c-13 7-9 23 5 23 13 0 17-17 5-23-5-2-5-2-10 0m89 2q-5 5-4 9c1 11 14 14 21 6 11-11-6-26-17-15m95-3q-17 7-7 20c10 9 28-3 21-15q-7-7-14-5m87 0c-14 6-10 26 4 23a12 12 0 1 0-4-23m90 1c-14 3-11 25 4 24q14-3 12-17-4-9-16-7m85 4q-9 9-1 17c5 5 15 3 19-3 8-12-8-24-18-14m95-3c-8 1-13 12-8 19 8 11 27 1 23-11q-5-9-15-8m-629 6q-3 7 5 7 5-2 3-7zm89 1c-2 3 2 9 6 6a4 4 0 1 0-6-6m92 0c-2 4 3 8 7 6q4-3 2-6-4-5-9 0m90 0q-2 6 3 7a4 4 0 1 0-3-7m88 1q-2 5 3 6 7-1 4-7-4-5-7 1m90 0a5 5 0 1 0 7 0q-5-3-7 0m90-1q-4 3-1 7t7 0c5-5-1-11-6-7m90 2c-4 4 0 10 5 7q5-3 1-7-4-3-6 0m-586 13q-10 9-3 18c3 3 3 4 10 4q10 0 13-11c1-9-12-16-20-11m181 0q-9 6-5 16c4 9 17 9 22 0 5-10-6-20-17-16m178 2q-11 6-5 16a12 12 0 1 0 5-16m181-1-6 4c-8 10 1 23 14 19 16-5 8-26-8-23m-537 6q-2 3 1 6t6 0q4-6-3-7zm181 1c-3 2-2 7 2 7a4 4 0 1 0-2-7m178 0-2 4q1 7 7 4c4-3 0-10-5-8m178 1c-3 3 0 9 3 9q5-1 6-5c0-4-6-6-9-4M24 242c-11 3-11 18 0 21 8 2 17-3 17-10q-2-15-17-11m42 0q-6 6-6 11c3 15 26 14 26-1 0-10-13-16-20-10m135 1a12 12 0 1 0 15 1q-7-6-15-1m359 0q-8 6-3 16c3 6 14 7 19 2 11-9-3-26-16-18m-316 2c-9 8-4 20 8 20 9 0 15-9 11-16s-13-9-19-4m137-2c-11 5-8 22 4 22 11 0 17-8 14-16-3-6-12-9-18-6m48 0q-6 1-9 9c-2 12 12 19 21 10 9-8 1-22-12-19m312 0c-7 1-11 10-8 16 7 12 27 6 24-7q-3-11-16-9m-136 1q-7 7-3 17c6 9 23 5 23-7 0-8-14-15-20-10m-579 4a5 5 0 1 0 6 1q-3-3-6-1m44 0c-4 2-1 9 4 9q7-2 2-8-2-3-6-1m495 1q-2 2-2 5a5 5 0 1 0 1-4m-360 0q-3 3 1 7a4 4 0 1 0-1-7m43 2q-2 7 6 5 7-6-2-8-3 0-4 3m137-1a5 5 0 1 0 6 6 5 5 0 0 0-6-6m46-1a5 5 0 1 0 7 4q0-7-7-4m179 2q-4 2 0 5a5 5 0 1 0 0-5m133 0q-3 3 0 4c3 4 9 1 8-3q-3-6-8-1m-608 11c-3 1-7 8-7 12 0 10 14 15 22 7 9-10-2-25-15-19m178 0c-7 4-7 16 0 21 11 6 24-5 19-16-3-6-13-9-19-5m177 3c-9 7-4 20 7 20q13-1 13-14c-1-9-13-12-20-6m185-1a12 12 0 1 0 14 15c4-9-3-17-14-15m-358 5c-4 4 0 9 5 7q5-3 1-7-4-3-6 0m-179 0q-2 5 1 8a5 5 0 1 0-1-8m357 1c-2 2 0 9 3 9q4-1 5-5c0-3-6-7-8-4m179 2v7q6 3 8-2c2-4-4-8-8-5M90 283a13 13 0 1 0 9 23 13 13 0 0 0-9-23m-88 2c-3 1-3 7 0 6q7 1 6 6-1 4-5 4-4-2-3 3 0 7 9 3c12-7 6-26-7-22m175 1q-11 9-2 19c7 7 21 1 21-9s-11-15-19-10m94-1c-8 4-11 14-5 20 4 5 14 5 19 0 8-10-2-25-14-20m85 0c-7 6-6 18 1 22 13 6 27-11 15-20-4-3-14-4-16-2m93 0c-8 3-11 12-6 18q9 10 19 0c8-8-1-21-13-18m87 2q-8 6-5 14 8 13 20 3c10-9-3-24-15-17m88 3q-9 10 3 19c8 4 18-3 18-12 0-11-13-15-21-7m97-3c-12 2-15 12-7 20 11 10 27-6 16-17q-4-5-9-3m-629 5c-4 2-1 9 4 7q6-3 2-7-3-3-6 0m89 1q-4 5 1 7c5 2 9-3 5-7q-4-4-6 0m181 0c-4 2-2 7 3 7a4 4 0 1 0-3-7m-89 0q-3 3-1 8h7c3-4-1-10-6-8m176 0a5 5 0 1 0 7 6 5 5 0 0 0-7-6m89 0q-2 4 1 7a5 5 0 1 0-1-7m91 2q-3 6 4 8l5-5c0-5-6-6-9-3m89 0q-3 4 2 7 3 3 6-2c3-4-5-8-8-5M44 309c-13 6-8 25 7 22 12-1 14-19 3-23q-6-2-10 1m359 1c-10 6-8 20 3 22 7 1 16-6 16-13 0-8-12-14-19-9m-181 1c-11 6-6 21 6 21a12 12 0 1 0-6-21m361 0q-8 3-9 11c0 13 22 16 26 3 3-9-8-18-17-14m179 2c-13 6-10 23 4 23q4 1 3-4l-1-3q-4 0-6-4 0-5 4-5 4 1 3-4 0-6-7-3m-716 3a5 5 0 1 0 7 7 5 5 0 0 0-7-7m179 2c-4 5 2 10 7 6q4-4 0-6-4-4-7 0m180 0c-2 5 4 9 7 5q3-3 0-5-5-4-7 0m180 0a4 4 0 1 0 5 1q-2-3-5-1m-472 11c-8 3-10 14-5 20 8 7 22 1 22-9 0-8-9-14-17-11m42 2c-9 6-6 19 4 21a12 12 0 1 0-4-21m138 0c-11 7-7 23 7 22q8 0 11-8l2-4-2-4q-7-12-18-6m42 0c-12 7-6 23 7 22q10-3 12-13c0-9-12-14-19-9m133 0q-5 3-5 11c0 11 14 15 21 7 10-11-4-26-16-18m48 0q-8 4-8 12c2 11 15 14 23 5 7-9-4-23-15-17m133 2c-11 6-5 23 8 22 11-1 16-16 7-22-3-2-12-2-15 0m44 2c-11 9 0 24 13 18q13-7 3-17-7-8-16-1m-578 2q-4 6 3 8 8-2 3-8-4-3-6 0m44 1a5 5 0 1 0 8 0q-3-4-8 0m313-1a5 5 0 0 0 7 7c4-4-1-10-7-7m45 1q-3 3 0 6a5 5 0 1 0 0-6m-221 2q0 9 7 4 3-2 0-5-5-5-7 1m42-2v7c4 3 10-3 7-7zm315 1q-4 4 1 7c5 3 8-2 6-7q-3-4-7 0m44 2q-2 4 3 7 7-1 4-7-3-4-7 0m-474 11q-10 5-5 18a12 12 0 1 0 5-18m-182 2c-7 6-7 16 0 19 11 6 25-6 18-15q-9-9-18-4m540 1c-14 9-2 28 12 20 8-4 9-13 3-19q-7-5-15-1m182-1c-13 4-12 23 1 23q6-1 5 4l1 3c1-2-1-14-3-14l-4-2q-2-6 3-7 4 1 3-4 2-5-6-3m-362 4c-13 11 1 27 14 18 8-5 7-14 0-19q-8-5-14 1m-177 2a5 5 0 1 0 8 0q-3-4-8 0m-180 1q-2 7 4 7 9-1 4-7-4-4-8 0m541 1c-3 2-2 7 2 7q5 0 5-4 0-7-7-3m-180 3c-3 5 3 10 7 5q4-3 0-6-4-5-7 1M2 377l-1 4q-1 5 3 4 6 1 5 6-3 3-7 2-2-2-2 3 2 11 12 0 7-7 2-14t-12-5m82 4q-8 9 1 17a12 12 0 1 0-2-17m96-3c-11 3-12 18-1 23 7 3 18-5 18-13 0-6-10-12-17-10m89 1q-5 3-5 11a12 12 0 1 0 5-11m91 0c-12 6-9 23 4 23 14 0 18-18 6-23-5-2-5-2-10 0m86 1q-11 11 0 20c9 7 23-5 19-15q-7-12-19-5m94 0q-5 2-8 6c-6 8 7 20 16 16 13-7 7-25-8-22m88 0c-12 4-10 22 3 24 6 0 15-7 15-13 0-8-10-14-18-11m89 2q-7 2-8 8c-2 14 17 20 24 7 6-10-6-21-16-15m-625 2q-5 3-1 8 4 4 6 0c4-4 0-10-5-8m181 1-1 3q1 9 8 4c3-4-2-9-7-7m89 1q-5 6 3 8 5 0 5-5v-3l-4-1q-3-1-4 1m-181 0a5 5 0 0 0 7 7c4-3-2-10-7-7m270 1c-4 4 1 11 5 7q5-5-1-8-3-2-4 1m89 1a5 5 0 1 0 8 4q0-7-8-4m89 1q-2 6 3 6 8-1 4-6c-2-3-7-3-7 0m90 0q-4 3 0 6a5 5 0 1 0 0-6m-406 14c-10 7-5 22 7 22a12 12 0 1 0-7-22m180 0q-12 7-6 17c6 9 17 8 22-2 3-5 0-13-6-15q-7-3-10 0m182 0q-10 3-11 13c0 10 15 15 23 6 8-8-1-22-12-19m-539 7a5 5 0 0 0 9 4q2-6-4-6-4 0-5 2m182 0q-4 4 0 7c5 3 9-3 5-7q-2-4-5 0m176 1q-2 6 2 7a5 5 0 1 0-2-7m179 1a5 5 0 1 0 7 6 5 5 0 0 0-7-6M20 423q-7 6-4 13c3 9 17 11 22 3 7-12-8-25-18-16m47-2c-9 4-10 18-1 21 4 2 13 1 15-2 10-8-3-24-14-19m134 2c-8 4-9 13-3 19 10 9 27-5 19-15q-6-9-16-4m46-1q-10 4-9 14c3 12 21 12 25 0 3-8-7-17-16-14m312 1c-8 5-9 14-1 19 10 7 22-1 20-12-2-7-12-11-19-7m-180 1q-8 7-6 13c3 11 17 12 24 3 7-11-7-23-18-16m48-1c-9 2-12 13-5 20 7 6 20 2 22-7 0-3-3-10-5-12q-4-2-12-1m310 0c-12 5-7 22 6 22 12 0 18-14 8-20-2-2-10-3-14-2m-133 1c-10 6-6 22 5 22q14-1 14-12c1-8-11-14-19-10m-535 4q-5 8 3 9 5-2 6-5-1-4-6-6zm-45 1q-3 4-1 6a5 5 0 1 0 5-8zm180 1c-4 3 0 9 4 8q4-1 3-4-1-10-7-4m43 0c-4 2-2 8 3 8q5 0 5-5-1-4-5-5zm315 0q-2 7 4 7 8-1 3-7-3-4-7 0m-179 0c-4 2-1 9 3 9a5 5 0 1 0-3-9m46 0c-3 2-2 9 2 9l5-5q-1-6-7-4m312 0q-4 5 0 8c4 2 9-4 6-8zm-134 1q-2 5 2 8 4 1 7-3c1-4-6-8-9-5m-297 13c-9 9-4 23 8 23 6 0 13-7 13-14 0-10-14-16-21-9m-177-1c-11 6-8 22 5 23a12 12 0 1 0-5-23m356 2q-5 4-2 5h5q12 1 6 8-2 4-8-1-11-6-5 5c9 12 28 0 21-13-2-6-12-8-17-4m182 1c-11 5-11 18-1 22 12 4 23-9 15-18q-5-9-14-4m-535 5q-5 6 3 7 6-1 4-6-3-6-7-1m179-1-1 4q3 5 8 1c2-4-4-8-7-5m357 3a4 4 0 1 0 7 6 4 4 0 0 0-7-6M87 465c-10 6-6 21 5 21q13 0 14-11c0-9-11-15-19-10m91 0q-11 6-7 17c5 10 22 7 24-5 1-9-9-17-17-12M0 468q0 5 2 3 5 0 6 6-1 4-6 4-2-1-2 3 0 7 9 2c10-7 6-22-6-22q-4-1-3 4m355-1q-8 7-4 14c7 15 30 6 23-9-3-8-13-11-19-5m90-1q-6 4-6 11c0 14 17 16 24 4 5-10-8-21-18-15m-177 0c-13 6-6 26 8 23q9-3 11-12c0-9-10-14-19-11m267 0c-7 3-9 13-4 19 9 10 26-1 21-13-2-5-11-8-17-6m88 4q-7 6-4 12c4 10 19 10 23 0 5-12-10-22-19-12m91-2q-6 2-6 11a12 12 0 1 0 6-11m-623 3q-6 7 2 9 7-1 5-7-3-5-7-2m89 2c-3 2-1 8 3 8q3-1 4-5-1-4-4-5zm180 0a4 4 0 1 0 5 7 4 4 0 0 0-5-7m-88 0a4 4 0 1 0 4 0zm176 1q-2 7 4 7 6-3 2-7t-6 0m89 0q-4 6 4 7 7-1 2-7-4-4-6 0m90 2c-3 4 3 9 7 5q4-3 0-6-3-4-7 1m89 1c-3 5 4 8 7 4q3-2 1-4-5-6-8 0M41 490c-10 6-6 21 6 21 15 0 18-19 4-23-5-1-5-1-10 2m181-1q-5 3-8 10c-2 9 10 16 19 12 13-7 3-28-11-22m179 1c-6 3-8 13-3 19 3 3 3 3 9 3 7 0 8 0 11-4 8-11-5-24-17-18m181 1q-12 6-7 18l2 3h8q15 0 14-10c0-7-11-14-17-11m177 3q-7 4-7 11-2 8 10 7 9 1 7-3 0-3-1-1a4 4 0 1 1-1-7q3 3 2-4t-10-3m-714 3c-3 3 0 9 4 7q7-3 3-8-3-4-7 1m179 0-1 3q1 8 7 5c5-5 0-11-6-8m181 1a4 4 0 1 0 6 5 4 4 0 0 0-6-5m177 2q-1 5 2 7 6 2 7-4c0-5-7-7-9-3m-469 9q-8 3 4 3 10 0 7-1-3-3-11-2m44 0q-7 3 5 3 14 0 3-3l-4-1zm310 1q-3 3 7 2 9 0 7-1c-2-2-11-3-14-1"
        mask="url(#16282281824-posters-1720560287862-radial-mask)" itemprop="regular" fill-opacity="0.90"
        fill-rule="evenodd" stroke="none" fill="url(#16282281824-posters-1720560287862-horizontal-regular)"></path>
      <!---->
      <path id="16282281824-posters-1720560287862-medium"
        d="M38 3c0 10 12 16 20 8q9-9 0-11-4-1-2 3-1 5-6 6-5-1-5-6 2-4-3-3-5-1-4 3m181 1c0 6 0 6 5 8q9 5 16-4 6-8 0-8-4 0-4 2c0 6-9 7-10 1q-1-4-5-3h-3zm181-2c-6 13 15 22 21 8q6-9-4-10-6 0-2 3 3 3-1 6-4 4-8 0a4 4 0 0 1 2-8c0-2-8-1-8 1m178 0q-1 10 11 13c5 0 5 0 9-4q9-9 1-11-5-1-4 3-1 5-5 6-5-1-5-6c1-4-6-4-7-1m179 2q1 10 9 11 6-1 1-7-3-2-1-5 1-4-4-3h-5zM271 18c-8 5-8 15 1 20q7 4 13-2c10-10-2-25-14-18m180-1a11 11 0 1 0 13 17c7-9-3-21-13-17M2 18q-2 1-2 5t2 2c4-4 12 1 9 6q-5 5-8 2t-3 3c1 9 17 3 17-7A12 12 0 0 0 6 17zm178 0a12 12 0 1 0 12 1q-7-4-12-1m181 1c-9 4-9 16 1 20q6 2 12-4c10-9-2-22-13-16M86 21c-7 8 0 20 11 18 14-2 13-21-2-21q-6-1-9 3m546-2a11 11 0 1 0 5 22 11 11 0 0 0-5-22m-94 1q-5 4-5 13c2 9 18 10 23 2 5-10-7-20-18-15m180 1q-6 4-6 10c0 12 16 15 23 5 6-10-7-22-17-15M92 24a6 6 0 1 0 6 9 6 6 0 0 0-6-9m181 1a5 5 0 1 0 8 5 5 5 0 0 0-8-5m90 0a5 5 0 1 0 8 7 5 5 0 0 0-8-7m88 0c-5 5 1 12 7 7 4-2 1-9-4-9zm-269 1q-4 6 3 8c4 0 7-6 4-9q-3-3-7 1m360-1q-3 1-2 7c1 4 9 4 10-1a7 7 0 0 0-8-6m88 0q-3 6 2 9c5 3 11-5 6-8q-5-3-8-1m91 1c-4 3-1 10 4 10q4-1 5-6c0-4-6-6-9-4M316 41c-5 3-8 11-6 16 5 8 19 8 22-1 5-10-7-21-16-15m-181 1c-11 7-3 23 9 20q9-3 9-11c0-9-10-14-18-9m361 0c-3 0-8 6-8 9q-2 10 8 13c8 3 19-9 14-17q-4-8-14-5m177 2c-7 3-8 13-2 18 10 8 25-3 19-14-3-5-12-7-17-4m-536 5a5 5 0 1 0 9 6 5 5 0 0 0-9-6m183-2q-5 5-2 9 5 3 8-2c2-4-2-9-6-7m176 2q-4 3 0 7c4 5 11-1 9-6q-3-5-9-1m179 1a6 6 0 1 0 8 7 6 6 0 0 0-8-7M69 61c-12 6-8 21 6 21 12 0 15-15 4-21zm179 0c-13 6-9 24 4 24 3 0 10-3 12-6a13 13 0 0 0-16-18m315 1c-9 4-7 20 2 20l4 1q11-1 12-12c0-8-10-14-18-9M26 62q-14 6-5 18c8 8 23 0 20-11-2-5-10-9-15-7m175 2c-8 7-3 19 8 19q11 0 12-11c0-10-12-15-20-8m183-2q-6 1-7 7c-4 12 10 20 19 11 9-8 1-21-12-18m359 0q-12 4-7 15c4 10 20 8 23-3 1-7-9-15-16-12m-315 1q-5 3-6 10c0 13 19 15 23 3 3-9-7-17-17-13m177 2c-8 9 0 22 11 19 4-1 10-7 10-10 0-10-14-16-21-9M74 66q-9 3-4 9c5 5 12-1 9-7q-2-3-5-2m-49 2c-3 5 1 11 6 9q8-3 3-9-4-5-9 0m182-1a5 5 0 1 0 5 1q-2-3-5-1m357 2a5 5 0 1 0 9 6 5 5 0 0 0-9-6m-179 0c-5 5 2 12 7 7l2-3c0-5-6-7-9-4m45 0c-6 4 0 12 7 8 4-2 1-10-3-10zm314-1q-4 3-2 7c3 5 11 2 10-4q-3-4-8-3m-495 1c-3 2 0 8 4 8l3-1q3-6-4-8zm362 0a5 5 0 1 0 6 8 5 5 0 0 0-6-8M315 82a12 12 0 1 0 8-1c-4-1-4-1-8 1m-182 3q-7 6-3 13c5 9 18 8 22-1 4-10-10-20-19-12m358-1c-10 7-5 21 7 21q8 0 12-8c3-11-9-19-19-13m181 2c-10 5-6 22 6 21q8-1 11-8c4-10-7-18-17-13m-353 1a5 5 0 1 0 3 9 5 5 0 0 0-3-9m-181 3a5 5 0 1 0 6 7 5 5 0 0 0-6-7m358-1a5 5 0 1 0 6 8 5 5 0 0 0-6-8m180 2a5 5 0 1 0 6 0q-3-3-6 0M90 105c-7 3-9 12-5 16q9 9 20 0c8-9-4-22-15-16m269-1c-7 3-8 14-3 20q7 5 15 1c14-8 3-27-12-21M1 105l-1 4q0 4 1 3 4-2 8 1c5 5-2 11-8 7q-1-1-1 3v4h5c5 0 12-6 12-11 0-8-9-14-16-11m177 2q-7 6-3 14c3 9 16 7 21-1 5-12-9-21-18-13m360-1q-7 5-7 11c3 11 17 13 23 4 6-10-6-21-16-15m92 0c-9 3-10 15-3 20 10 6 23-5 18-15-2-5-10-7-15-5m87 1a12 12 0 1 0 12 0q-8-4-12 0m-624 3a5 5 0 1 0 8 6q1-9-8-6m269 1a5 5 0 1 0 8 3q-1-4-5-5zm90 0a5 5 0 1 0 7 4q-1-4-5-5zm88 1q-3 4 0 7c5 5 12-2 7-7q-5-4-7 0m-359 0q-3 5 1 8c5 2 10-4 7-8zm93 1c-5 5 1 11 6 7q4-4 0-7-3-3-6 0m356 1c-5 5 2 11 8 6q5-4 0-7-4-5-8 1m90 0q-4 6 3 8 8-2 4-8-4-4-7 0M46 129c-7 2-10 13-5 17 9 8 21 3 21-8a12 12 0 0 0-10-10q-3-1-6 1m359-1a13 13 0 1 0 17 13c2-8-7-16-17-13m-183 2q-7 7-4 14c4 9 19 9 23-1s-10-20-19-13m361 1c-10 4-6 22 6 22 3 0 10-5 11-8 5-8-7-18-17-14m180 2c-10 5-9 20 2 22q5 1 4-3 0-3-3-4-6-5 1-8 3-1 2-5 1-6-6-2m-717 2c-3 4 0 10 4 10q5-1 6-5c0-5-7-8-10-5m362 0c-4 2-2 9 3 9l5-5q-2-6-8-4m-182 2a5 5 0 1 0 8 6 5 5 0 0 0-8-6m361-1c-7 4-2 12 5 10a5 5 0 0 0-5-10m-472 14q-11 6-7 16 8 12 20 1a10 10 0 0 0-9-17zm44 0a12 12 0 1 0 10 21 12 12 0 0 0-10-21m313 0c-7 3-9 13-4 18 8 9 25-2 19-13q-5-8-15-5m44 1c-9 5-9 15-1 19 11 6 23-5 17-15q-7-9-16-4m-220 1c-11 4-9 21 4 21q7-1 11-6c6-9-5-20-15-15m38 2c-6 6-3 16 6 18a11 11 0 1 0-6-18m315 0c-9 10 2 24 14 18 11-6 7-21-5-21q-6-1-9 3m47 0q-6 3-6 12c2 9 13 12 21 5 9-9-4-24-15-17m-535 3q-4 4 0 8 7 3 8-5-1-7-8-3m313 0q-3 3-1 6a5 5 0 1 0 1-7m-359 1a5 5 0 1 0 9 1c-1-2-7-3-9-1m224 0q-3 4 1 8c5 4 11-3 6-7q-4-3-7-1m179 0q-2 5 1 8a5 5 0 1 0-1-8m136 1q-5 4 1 8 5 4 8-4-1-9-9-4m-357 2c-4 5 3 10 8 5q3-2 0-6-4-5-8 1m401-1-1 4a5 5 0 1 0 1-4m-474 14c-10 7-8 21 3 22 14 1 20-16 8-22-6-3-7-3-11 0m-180 1c-13 7-6 24 9 20 11-3 12-16 1-20q-4-3-10 0m542 0-3 2-2 1c-2 0-5 6-5 9a13 13 0 0 0 19 8c12-5 4-23-9-20m175 3c-8 7-4 20 5 20 4 0 4-5 0-7-4-3-3-10 2-10l1-3q-1-6-8 0m-360 2c-3 3-3 3-3 9q0 11 11 9 10 1 12-8c2-11-12-18-20-10m-176 2q-2 6 5 7c4 0 6-7 3-9q-5-3-8 2m-180 1q-3 5 3 6a5 5 0 1 0-3-6m540-1a6 6 0 1 0 7-1q-3-2-7 1m-178 2a5 5 0 1 0 5 1q-3-3-5-1M89 199q-12 9-4 18 9 7 19-1c9-9-4-24-15-17m183 0c-12 5-9 21 3 21 10 0 16-11 11-17q-6-9-14-4M1 199v6l2-1a5 5 0 1 1 1 10q-5-1-4 3 0 4 7 3c10-3 13-12 5-19-2-2-10-4-11-2m178 1c-12 7-9 20 4 21a11 11 0 1 0-4-21m182-1c-9 3-11 14-4 20 3 2 11 2 15-1 12-7 2-23-11-19m89 0c-8 3-10 14-5 19 6 6 18 2 21-7 1-7-9-15-16-12m89 1c-11 2-8 22 4 22q15-1 12-15-3-10-16-7m86 3q-8 9 1 17c8 6 22-4 18-13-3-7-13-9-19-4m90 0c-9 8-4 21 8 20s17-16 6-22q-8-3-14 2m-624 3-2 3c0 4 7 6 9 3 5-5-2-11-7-6m181 0q-2 4 1 6a5 5 0 1 0-1-6m90 0q-5 8 4 9a5 5 0 1 0-4-9m89-1q-4 4-1 8t7 0c5-5-1-12-6-8m-271 3q-2 5 3 6 6 0 6-4c0-5-7-7-9-2m359-1c-3 3 0 9 5 9q4 0 4-5t-5-5zm90 1c-5 4 1 11 6 8q5-3 3-8c-1-3-7-3-9 0m90 1a5 5 0 1 0 7-1q-4-4-7 1m-584 13c-11 6-7 21 5 21 12 1 18-14 9-19q-8-4-14-2m179 2c-5 2-7 11-3 16a11 11 0 1 0 4-16m180-1q-9 3-9 14c4 13 26 9 24-4q-3-12-15-10m177 1q-8 6-5 16c4 9 21 8 23-2 2-11-9-19-18-14m-534 4q-3 3-1 8c3 2 10 0 10-4 0-3-6-6-9-4m179 2q-4 4 0 6c3 3 9 1 9-3s-6-6-9-3m177 2v5a5 5 0 1 0 0-5m180-1c-4 3-1 9 4 9 6 0 7-7 2-10q-2-2-6 1M66 243c-9 6-6 18 5 20a12 12 0 1 0-5-20m-43-1q-6 5-7 12c3 13 24 11 24-1q-2-14-17-11m183 0c-13 3-14 19-1 22 9 2 18-8 14-16q-4-8-13-6m41 1c-6 2-9 12-5 17 8 10 26 1 21-10-2-5-11-9-16-7m134 1c-9 5-9 17 1 20s20-6 16-15q-5-9-17-5m179 0c-8 5-5 17 4 20 13 3 20-11 11-19q-7-6-15-1m180 0c-10 4-9 18 2 21 11 2 18-8 14-17q-6-7-16-4m-314 1c-9 6-6 19 5 21 7 1 15-6 14-13-2-8-11-13-19-8m179 0c-9 7-3 22 9 20 11-1 14-14 4-20q-7-4-13 0m-536 3q-4 5 2 9 4 2 6-1 5-4-1-8-3-4-7 0m-44 1q-4 4 0 7a5 5 0 1 0 0-7m541-1c-5 2-5 8-1 9q9 1 8-6-3-5-7-3m-361 1q-4 5 0 8 6 2 8-3-1-8-8-5m43 1q-3 3-1 7c3 2 10 0 10-4s-6-7-9-3m135 1a5 5 0 1 0 9 5c3-5-6-10-9-5m45 0q-3 5 3 8 9-2 6-9-4-3-9 1m180 0c-4 4 1 10 6 8q6-3 2-8-4-4-8 0m134 0q-4 3 0 6 4 4 7 0c5-5-2-11-7-6m-609 13-3 4-1 3-1 4a12 12 0 1 0 5-11m178 1a12 12 0 1 0 9-3q-6-1-9 3m179 1q-6 3-5 9c0 12 18 15 23 3 4-10-8-19-18-12m182 0a11 11 0 1 0 14 17c8-9-3-22-14-17m-356 4a5 5 0 1 0 7 7 5 5 0 0 0-7-7m-180 1q-3 8 5 8 5-2 4-7c-1-3-7-4-9-1m358-1q-4 4 0 8c5 5 11-1 7-6q-4-5-7-2m180 2a5 5 0 1 0 6 0zM92 283q-7 4-10 12c-1 10 12 15 20 8q6-6 3-15c-2-4-10-6-13-5m268 2a12 12 0 1 0 13 4l-5-4zM0 288q0 4 2 3 4-1 7 3c2 4-3 9-6 7q-4-2-3 3v4h4c15-3 15-23 0-23q-5-1-4 3m177-1c-6 6-7 8-3 16 5 11 25 1 21-10-2-8-13-11-18-6m93 0q-6 4-6 11c0 14 20 14 24 0 2-9-10-16-18-11m177 0c-10 6-8 18 5 21 5 1 14-8 13-14-2-7-11-11-18-7m88 2c-6 5-6 14 1 17a11 11 0 1 0-1-18m93-1c-10 5-11 15-2 20 9 6 20-2 19-12-2-7-11-11-17-8m88 1q-7 5-6 12c2 11 17 12 22 3 6-10-5-19-16-15m-624 3q-4 3 0 8c3 3 10-4 7-7q-3-3-7-1m88 2q-3 8 4 9 4-2 5-6c0-5-7-7-9-3m181-1q-3 5 0 8 6 3 8-3c1-4-5-8-8-5m89 0a5 5 0 1 0 7 6q2-8-7-6m89 0c-4 2-2 10 3 10a5 5 0 1 0-3-10m-267 2a5 5 0 1 0 7 7 5 5 0 0 0-7-7m357 0q-4 4 0 7 4 4 8-1c4-5-3-11-8-6m90 0q-3 3-1 8c3 3 10 0 10-4 0-3-6-6-9-4M42 311c-10 8-5 20 8 20a11 11 0 1 0-8-20m361-1c-9 8-7 19 2 21 7 2 16-5 16-11 0-9-12-15-18-10m-180 1c-9 5-9 15 0 19q9 4 15-4c6-10-4-21-15-15m361 0q-8 2-9 11c0 11 16 15 23 6a11 11 0 0 0-14-17m177 3c-10 5-9 18 2 21q7 2 6-3 0-4-1-2c-2 1-7-3-7-5q1-5 6-6 3 1 2-3 1-5-8-2m-715 2c-5 3 0 11 6 8 3-3 2-10-3-10zm179 1q-3 4 0 7a5 5 0 1 0 0-7m180 0q-3 3-1 5c3 5 10 3 10-2q-1-7-9-3m179 2q-3 4 2 8a5 5 0 1 0-2-8m-474 13c-10 10 0 24 13 18 8-4 9-16 0-20q-7-3-13 2m47-1q-7 4-6 10c-1 11 16 15 22 5s-6-21-16-15m179-1c-11 5-8 22 5 22s18-16 5-22zm134 1c-11 5-8 21 5 21a11 11 0 1 0-5-21m-175 0c-8 3-10 14-5 19 6 4 16 3 19-2 7-10-3-22-14-17m222 0q-10 4-8 14c5 13 27 7 23-7-2-6-10-10-15-7m133 2q-10 8-3 17a12 12 0 1 0 3-17m45 1q-11 8-3 17c8 9 24-1 20-12q-6-10-17-5m-581 3q-2 6 2 8 9 1 7-8-6-4-9 0m45 0a5 5 0 1 0 8 7 5 5 0 0 0-8-7m313 0q-4 4 0 8 6 3 8-2c2-6-4-11-8-6m-134 1q-3 2-1 6c2 4 10 1 10-3l-5-5zm179 0a5 5 0 1 0 8 7 5 5 0 0 0-8-7m-221 0c-4 4 2 11 7 8q4-3 0-7-4-3-7-1m356 1c-3 5 3 11 7 8q4-3 1-8c-1-3-7-3-8 0m45 1a5 5 0 1 0 7 7 5 5 0 0 0-7-7M44 353c-10 3-10 18 0 21 15 5 23-15 8-21zm176 3c-4 4-4 4-4 8 2 12 13 14 21 5 9-11-7-23-17-13m365-2c-13 2-13 20 0 22a11 11 0 1 0 0-22m176 2c-10 7-8 21 4 21q5-1 4 3l1 3c1-2-1-13-3-12l-3-2q-5-7 2-9 3 0 3-3-1-6-8-1m-360 3c-11 10 0 24 13 18 10-6 7-20-5-21q-5-1-8 3m-176 0c-4 3-2 9 4 9q8-1 3-9-3-4-7 0m-180 1a6 6 0 1 0 7 8 6 6 0 0 0-7-8m539 1a5 5 0 1 0 7 8 5 5 0 0 0-7-8m-179 2c-3 4-1 10 3 10a5 5 0 1 0-3-10M1 381q0 3 2 3 9 1 5 8-1 3-5 2-4-2-3 3-1 4 4 3c10 0 15-14 7-20q-9-7-10 1m86-2q-10 6-4 15a12 12 0 1 0 4-15m183 0c-11 6-8 20 4 22a12 12 0 1 0-4-22m178 0q-14 9-4 19 8 9 17-2a11 11 0 0 0-6-17q-3-3-7 0m-269 0q-7 2-8 11c0 13 19 15 23 2 3-9-5-15-15-13m179 1q-10 6-5 15c7 14 28 3 22-11q-6-10-17-4m270 0q-6 2-8 9c-3 13 13 19 21 8 7-8-1-20-13-17m-93 2q-9 7-1 16a11 11 0 1 0 1-16m183-1c-10 4-13 13-6 19 10 9 27-3 20-13q-5-9-14-6m-628 4a5 5 0 1 0 7 0q-4-4-7 0m182 0a5 5 0 1 0 6 0q-3-4-6 0m-91 0c-5 3-3 10 2 10s7-7 2-10zm179 0q-3 6 2 9 6 2 7-3c2-5-6-10-9-6m89 2q-3 3 0 6a5 5 0 1 0 0-6m89 1c-3 3-1 9 4 9q5-1 6-6c0-4-7-6-10-3m89 0a5 5 0 1 0 9 6 5 5 0 0 0-9-6m90 0q-4 7 3 9a5 5 0 1 0-3-9m-582 14c-11 5-9 21 3 21 13 0 19-15 7-21q-6-3-10 0m181 0a12 12 0 1 0 12 4q-4-6-12-4m175 2c-11 8-4 25 8 21s13-16 3-21q-6-4-11 0m179 1c-11 8-7 21 6 21q12 0 12-11c0-10-11-15-18-10m-534 3q-3 3-1 8c2 2 8 1 9-1 3-6-3-10-8-7m180 1c-5 5 0 12 6 9q6-5-1-10-2-2-5 1m177 2q-4 4 0 7 4 4 7 0a5 5 0 1 0-7-7m179 0q-3 8 4 9 8-1 3-9-5-4-7 0M20 424c-9 7-4 19 7 19s17-10 10-17q-8-11-17-2m48-3c-10 4-11 16-2 21 6 2 15 0 17-5 4-9-6-20-15-16m134 2c-12 5-9 21 4 21 11 0 17-13 9-20-2-1-11-2-13-1m44 0c-6 1-10 11-6 17 8 12 29 0 21-12q-4-8-15-5m312 2c-8 7-5 17 7 19 9 1 16-8 12-16-4-6-14-8-19-3m-180 0q-9 9 0 18c8 7 21 0 20-10-1-9-12-13-20-8m46 0c-8 5-6 19 4 20 7 1 15-4 15-10 0-10-10-15-19-10m181-1c-8 4-8 15 0 20a12 12 0 1 0 0-20m129 2c-8 9 2 23 13 18q14-7 5-18c-5-4-14-4-18 0m-710 3c-5 4 0 11 6 8q6-4 0-9-3-5-6 1m44-1c-4 3-1 9 4 9q6-1 6-6-3-8-10-3m134 2q-2 7 5 8 7-1 4-7t-9-1m44 0q-4 3 0 7c4 4 10 1 10-4 0-4-7-6-10-3m316-1a5 5 0 1 0 8 7 5 5 0 0 0-8-7m-180 2c-4 4 1 10 6 8q5-4 2-8-4-4-8 0m45 0q-3 7 5 8 5-1 3-7-3-5-8-1m181-1a5 5 0 1 0 7 1q-4-3-7-1m131 0c-3 3 1 9 5 9q6-2 4-8c-1-2-7-3-9-1m-604 13c-3 0-8 7-8 11 0 11 13 15 21 7 8-9-1-21-13-18m176 0c-7 6-7 18 1 22 12 6 25-10 15-20-4-3-12-4-16-2m179 2q-7 5 2 5 11 0 8 7-4 6-11 1t-5 2c5 9 18 8 22-1 5-10-8-20-16-14m183 1-3 1-4 4c-8 11 6 22 17 14q8-6 3-14c-4-5-12-8-13-5m-538 4-2 4q2 4 6 5c5 0 7-7 3-9q-3-4-7 0m180 0c-4 3 0 9 5 8 4-2 3-10-2-10zm357 3q-4 2 0 7 2 4 6 0c5-5 0-11-6-7M88 465c-14 7-4 25 10 20q12-6 6-16-6-9-16-4m91 0q-11 7-8 16c5 12 23 7 23-5 0-9-9-15-15-11m180 0c-8 3-11 14-7 19 10 11 27 1 22-12q-6-10-15-7M0 468q-1 4 3 3a5 5 0 1 1-1 10q-2 0-2 3-1 5 5 3c10-3 13-14 5-19q-9-6-10 0m271-2-6 3a12 12 0 1 0 6-4m173 3q-9 8-2 16l5 4c12 1 21-11 14-19-4-5-13-5-17-1m88 2c-7 7-4 17 6 19 12 2 19-16 9-21q-9-5-15 2m95-2c-7 2-10 10-6 16 5 7 17 7 21-1 4-9-5-20-15-15m89-1a12 12 0 1 0 8 22 12 12 0 0 0-8-22m-626 4q-3 5-1 9c4 3 10-1 10-5 0-5-6-8-9-4m88 2a5 5 0 1 0 9 6 5 5 0 0 0-9-6m181 0q-4 6 4 8c5 0 7-6 3-8q-4-4-7 0m89 0c-4 2-2 8 3 8 6 0 7-6 2-9q-2-2-5 1m-177 1c-5 5 1 11 6 7q4-4 1-8-3-3-7 1m265-1c-3 3 1 9 5 9 6-1 5-9-1-10zm92 1q-3 4-1 8 4 3 8-1 4-3 0-7t-7 0m90 0q-7 6 0 9c6 1 9-5 5-8q-3-3-5-1M41 490c-11 8-3 23 10 20s12-20-1-22q-6 0-9 2m184-1c-6 1-11 9-10 15a12 12 0 1 0 10-15m174 3q-5 6-3 13c4 11 21 9 24-2 2-11-13-19-21-11m179 2q-8 8-2 15c4 5 17 4 20 0 7-12-7-24-18-15m180 1c-5 3-8 11-5 15q1 3 9 2 8 1 7-2l-4-1q-6 0-5-3 0-6 6-6 4 2 3-3-2-6-11-2m-713 1c-4 3-1 9 4 9 4 0 7-7 4-10q-4-3-8 1m178 1c-3 6 4 13 8 7q4-4 0-7-5-4-8 0m182 0a4 4 0 1 0 7 6c2-5-3-9-7-6m178 1c-4 2-2 10 3 10q4-1 6-5-1-7-9-5"
        mask="url(#16282281824-posters-1720560287862-vertical-mask)" itemprop="medium" fill-opacity="0.90"
        fill-rule="evenodd" stroke="none" fill="url(#16282281824-posters-1720560287862-vertical-medium)"></path>
      <!---->
      <path id="16282281824-posters-1720560287862-bold"
        d="M39 4c0 9 11 13 19 7q7-8 1-11-4-1-3 3-1 6-6 7c-3 0-6-5-6-7q2-4-2-3-4-1-3 4m180 0c0 6 8 11 14 9l8-8 1-3q1-2-3-2-4-1-3 3 0 5-7 5-3-1-5-6l-2-2q-4-1-3 4m181-1q-3 8 5 12 10 5 16-6 4-9-4-9-5 0-3 2c3 1 3 7 1 8-6 4-12-1-9-7l1-3h-3q-3 0-4 3m179-1c-3 10 12 16 19 9q6-9 1-11-4-1-3 3-1 6-7 7-5-3-5-7c1-4-4-4-5-1m178 0c-1 5 3 12 9 13q6 0 0-7-2-2-1-5c0-4-7-5-8-1M275 17c-13 5-11 22 2 21a11 11 0 1 0-2-21m176 1c-13 5-8 24 6 21q8-3 9-11c0-7-9-13-15-10M2 19q-2 0-2 3 0 4 1 2c5-4 13 2 11 7q-4 5-9 3-4-2-3 2 1 6 9 2c13-6 7-22-7-19m89 0c-13 4-7 23 7 19 11-3 11-18-1-19zm88 0c-5 2-8 10-4 15 5 9 17 6 21-4 3-8-7-15-17-11m182 0c-9 4-8 16 2 19s19-10 12-17c-3-2-11-4-14-2m178 1c-6 4-8 16-2 18l2 1c0 2 9 1 12-1 6-3 7-12 1-16q-6-5-13-2m89 1c-5 4-6 13-1 17 8 8 23-3 18-12q-8-11-17-5m91 0q-7 3-6 11t8 9q10 1 13-5 6-9-6-16c-4-1-4-1-9 1m-445 2c-2 1-3 7-1 9q4 3 9-2c3-5-3-10-8-7m90 0c-5 2-5 8 0 10q8 4 9-4-1-8-9-6M90 24c-3 3 1 11 5 11q5-1 6-5c2-5-7-10-11-6m92 1c-3 2-2 8 1 9q5 1 8-4c1-5-6-9-9-5m269 0q-4 5 1 9 5 3 8-3c3-6-5-11-9-6m91 0q-6 4-2 8a6 6 0 1 0 2-8m87 0q-2 9 5 11 6-1 7-6c0-6-9-9-12-5m91 1q-4 4 0 8a6 6 0 1 0 0-8M316 42c-12 6-3 26 10 19q7-2 6-9c1-9-8-15-16-10m-182 2c-10 10 3 24 15 15 3-2 4-11 1-15s-12-4-16 0m364-2a11 11 0 1 0 3 22 11 11 0 0 0-3-22m176 2c-7 3-8 12-3 17 5 6 17 3 19-5 3-9-8-17-16-12m-537 5q-3 4 2 9 5 1 8-5c2-6-7-10-10-4m181-1c-5 5 0 12 6 9a5 5 0 1 0-6-9m177 0q-4 5 0 9 4 5 8 0 6-4 1-8-4-6-9-1m179 2q-5 8 5 9c6 0 9-8 3-10q-5-4-8 1M71 62c-7 1-11 9-7 14 6 8 19 6 21-3q0-13-14-11m134 0q-9 3-7 12c3 13 22 11 22-2q-2-12-15-10m43 0a12 12 0 1 0 8 22 12 12 0 0 0-8-22m315 0c-5 2-7 10-5 15 4 7 18 7 21-2 4-9-5-17-16-13M22 64q-8 9 1 17c9 5 20-3 17-11-2-7-12-10-18-6m359 0c-8 7-5 19 6 19q13 0 12-13c-2-7-12-11-18-6m48 0q-11 6-3 16c7 8 24-2 18-11q-7-10-15-5m176 2q-8 11 4 17c13 5 22-12 10-19q-8-5-14 2m134-2q-5 5-3 12c4 11 22 8 22-4 0-8-12-13-19-8M71 66l-3 3a6 6 0 1 0 3-3m494 1a6 6 0 1 0 8 9 6 6 0 0 0-8-9M25 68q-4 4 1 9 8 4 10-5c0-6-8-8-11-4m181-1q-3 3-2 7a6 6 0 1 0 2-7m179 1q-4 5-1 8 9 7 10-3c0-6-6-9-9-5m44 0q-4 6 0 9c7 5 14-3 9-8q-5-6-9-1m-181 0c-3 3 0 10 4 10q5-1 6-5c0-5-7-8-10-5m363 1q-4 3-1 8 3 4 8 0c5-5-2-13-7-8m132-1q-4 5 0 9a6 6 0 1 0-1-9M317 82a11 11 0 1 0 11 1c-2-1-9-2-11-1m-181 2q-5 3-5 10a11 11 0 1 0 5-10m358 0q-10 5-5 15c6 11 24 4 22-8-2-7-11-11-17-7m182 1c-7 1-11 14-5 19s16 2 19-6c3-7-5-15-14-13m-358 3c-6 6 2 14 8 8q5-4 0-8t-8 0m-180 1a6 6 0 1 0 8 0q-4-4-8 0m359-1c-5 3-4 11 3 11q5-1 6-7-3-5-9-4m179 3c-3 3-1 10 3 10q5-1 7-6c0-4-7-7-10-4M90 105c-8 4-8 18 1 19 11 3 21-9 13-17q-6-5-14-2m270 0c-11 4-8 21 4 21 15 0 18-20 3-22zm89 0c-3 1-7 7-7 10 0 13 18 15 22 3 3-9-6-17-15-13M0 109q0 5 3 2c2-3 8 1 8 5 0 5-7 8-10 5q-1-2-1 2-1 4 5 3 7 1 10-6c4-7-2-15-10-15q-6-1-5 4m178-2c-8 8-4 19 6 19a11 11 0 1 0-6-19m92-1c-6 4-8 13-3 18 4 3 14 4 17 0 9-9-2-24-14-18m266 2q-4 3-3 11c3 11 22 8 22-4 0-9-11-13-19-7m93-1q-6 5-7 11c3 9 14 12 21 5 8-8-3-21-14-16m90 0c-11 5-8 20 4 21 13 1 17-17 4-21zm-625 2c-4 1-5 9-1 11q6 2 9-4 1-8-8-7m266 2a6 6 0 1 0 5-2zm91-1q-2 1-2 7a6 6 0 1 0 2-7m88 2c-5 6 2 13 8 8q6-4 1-9t-9 1m-358 0q-4 4 0 7 3 4 8 0a5 5 0 1 0-8-7m92 1c-3 3-1 9 4 9s7-9 2-11q-3-2-6 2m358-2c-5 4-4 11 3 11s9-8 2-11zm89 2a6 6 0 1 0 6 1q-3-4-6-1M45 129q-5 4-6 11a11 11 0 1 0 6-11m181 0c-7 2-10 12-6 17a9 9 0 0 0 12 3c5 2 11-8 8-15-2-2-9-7-10-6zm177 1q-5 3-5 11c2 10 16 13 22 5 6-11-6-23-17-16m183 1c-9 2-11 13-4 19s21-2 18-11c-1-5-9-10-14-8m178 2c-11 5-10 19 2 21q4 2 3-2 1-3-2-3c-5 0-6-7-1-10q3-1 3-4 1-4-5-2m-718 2c-4 3-2 10 4 10q6 0 6-6-1-9-10-4m180 1q-4 4 0 9c6 3 12-3 8-8q-3-5-8-1m181 0q-3 1-1 6 3 3 9 1a5 5 0 1 0-8-7m178 1a6 6 0 0 0 9 8c4-6-4-14-9-8m-472 15c-8 4-7 14 1 19 8 4 20-7 16-15q-7-10-17-4m43 1c-8 9 1 23 12 17 9-4 10-13 2-18q-8-5-14 1m182-2q-11 8-4 17a11 11 0 1 0 4-17m133 0c-2 1-6 7-6 10a11 11 0 0 0 22 1c3-8-6-15-16-11m44 2c-7 4-7 13 1 17l5 2 4-2q8-2 8-10c0-9-10-13-18-7m-219-1q-9 6-6 15c5 10 22 5 22-6 0-7-10-13-16-9m356 1c-10 6-6 19 5 19 12 0 16-14 5-19q-5-3-10 0m42 3a11 11 0 1 0 16-1q-9-5-16 1m-579 0q-3 5 0 8a6 6 0 1 0 0-8m45 1q-4 5 1 8l3 2 3-2c5-4 3-10-3-10zm179 0c-3 4-1 10 3 10a6 6 0 1 0-3-10m133 0q-3 10 7 8 6-2 3-8-5-5-10 0m46 0c-5 6 3 13 8 8q4-4 0-8-4-5-8 0m136 0a6 6 0 1 0 6-1q-4-2-6 1m-357 1q-4 6 1 9c7 3 12-6 7-9q-5-4-8 0m400 2c-3 5 2 11 7 8q6-3 3-7c-2-4-8-4-10-1m-472 13c-10 4-8 22 3 22s17-14 9-20q-6-3-12-2m-182 2c-8 6-5 19 4 19q13 0 14-10c0-9-10-14-18-9m540 1-4 3c-5 5 0 16 8 16 13 0 18-12 7-19q-6-4-11 0m182-1c-8 3-11 12-5 18q8 6 9 1 0-3-2-3-3 0-4-5 0-5 5-6l1-3q1-4-4-2m-360 2c-7 2-9 14-3 18 3 3 11 3 15-1 9-7 1-20-12-17m-179 2q-4 4 0 9a6 6 0 1 0 0-9m-180 1c-4 4-1 10 4 10q4-1 6-6c0-5-8-7-10-4m539 0c-5 6 1 14 7 9q6-5 1-9-4-4-8 0m-179 3c-4 4-2 10 4 10s8-6 3-10q-3-4-7 0M90 199q-6 3-8 11 2 9 11 10c16 0 18-20 3-22zm184 0c-12 4-12 18 0 21q12 0 13-13c0-5-7-10-13-8M0 201q-1 4 3 2 4-1 6 2c4 4 1 11-6 10q-4-2-3 2 1 6 10 1c10-5 6-19-5-19q-6-1-5 2m177 1q-6 4-4 12c2 6 12 9 17 5 13-10 0-27-13-17m181-1c-8 5-4 19 6 19q12-1 13-11c0-8-11-13-19-8m89 0c-8 7-5 19 5 19a11 11 0 1 0-5-19m94-1c-13 4-11 21 3 21 12 0 16-16 4-21l-3-1zm87 1q-5 4-6 11c0 12 19 13 22 0 1-8-9-15-16-11m88 2c-12 8-1 25 12 18q6-4 7-10c0-7-12-13-19-8m-623 1c-6 2-5 10 2 10q5-1 6-5-1-7-8-5m180 1q-4 4-1 8a6 6 0 1 0 1-8m89 0c-4 4-2 11 4 11 5 0 7-8 3-11q-4-4-7 0m-182 1c-4 6 2 12 8 7q4-3 0-7-6-4-8 0m269 1-2 3c0 2 5 6 7 6 1 0 6-4 6-6 0-6-7-8-11-3m90 0q-5 4 1 8c3 4 9 2 9-4 0-5-7-7-10-4m90 0q-6 4-1 8 8 6 11-4c2-5-6-8-10-4m90 1q-4 4 0 8c4 4 10 1 10-5 0-4-8-6-10-3m-582 14c-8 2-11 15-3 19 8 5 18 0 18-9q-2-12-15-10m178 2c-5 3-7 12-3 17 9 9 25-3 18-14q-5-8-15-3m179 0q-10 4-5 16c2 5 15 6 19 0 6-9-3-19-14-16m179 1c-8 3-9 15-1 19a11 11 0 1 0 1-19m-535 3q-6 4-1 8c6 6 13-2 8-8q-4-3-7 0m179 1a5 5 0 1 0 8 8q5-4 0-8-4-4-8 0m179 0q-4 2-3 7c2 5 10 4 11-1q0-8-8-6m177 1q-2 4 1 9c5 5 13-2 9-7-2-3-8-4-10-2M69 242c-11 4-8 21 4 21 14 0 16-20 2-21zm-47 2q-6 4-4 12c2 8 13 9 20 2 7-8-5-20-16-14m180 0q-10 7-3 16a11 11 0 1 0 3-16m359 0q-9 8-1 17a11 11 0 1 0 1-17m-316 1c-9 7-4 18 6 18 16 1 16-19 0-20zm137-1c-8 3-9 15-2 19 4 2 12 1 15-3 9-8-2-21-13-16m358 0c-6 3-8 12-4 17 4 3 12 4 16 2 7-5 5-19-3-19zm-315 3a11 11 0 1 0 8-3q-5-1-8 3m179-1a11 11 0 1 0 19 9c1-9-12-14-19-9m-579 2c-4 2-2 11 3 11q6-1 7-6-1-8-10-5m43 0q-5 4 1 8 9 5 10-4c0-6-7-8-11-4m137 0c-5 4-3 11 3 11q5-1 6-6c0-4-6-7-9-5m43 0c-4 3-2 11 3 11 2 0 7-4 7-6 0-4-7-7-10-5m136 1a6 6 0 1 0 6 0q-3-3-6 0m179 0q-4 4 0 8c4 4 11 1 11-4 0-6-7-8-11-4m-133 0q-7 6 1 11a6 6 0 1 0-1-11m178 2q-5 8 5 9 5-1 6-6c0-4-8-7-11-3m133 0q-3 8 5 8 5 0 5-5c0-5-8-7-10-3m-606 13q-4 1-5 4l-1 4c-4 2 1 11 7 12 14 3 21-15 8-20-4-2-4-2-9 0m179 0a11 11 0 1 0 15 4q-7-9-15-4m177 2c-8 4-8 15 1 18q6 3 12-2c11-8 0-23-13-16m182 1q-3 0-5 4c-7 13 10 22 18 11 3-5 4-5 1-10q-4-9-14-5m-357 2a6 6 0 1 0 7 0q-4-3-7 0m-179 0a6 6 0 1 0 7 10 6 6 0 0 0-7-10m356 2c-3 4 1 11 5 10q4-1 4-4c4-5-6-11-9-6m181 0a6 6 0 1 0 5 0zM91 284a11 11 0 1 0 7 0zm-89 2q-2 0-2 3-1 3 3 1 6 1 7 7 0 5-7 5-4-1-3 2-1 4 3 3a11 11 0 1 0-1-21m174 2q-4 3-3 8c0 11 11 15 19 6 9-10-5-23-16-14m95-1c-10 6-9 18 1 20a11 11 0 1 0-1-20m85 0c-9 7-4 20 8 19 13 0 16-15 4-20q-7-2-12 1m94-1c-11 5-12 15-2 20 9 4 20-6 14-15-1-2-8-6-9-6zm90 1q-3 0-6 4c-8 9 2 20 14 14 11-5 5-19-8-18m89 1a11 11 0 1 0 11 17c9-9 1-21-11-17m85 3c-9 9 2 23 14 16 5-3 7-12 2-17-4-3-12-3-16 1m-623 0q-5 5 1 9 6 1 9-5c1-5-5-8-10-4m89 1a6 6 0 1 0 8 8 6 6 0 0 0-8-8m182-1q-5 3-2 8 3 4 8 1 4-4 0-8-3-3-6-1m87 1c-5 3-2 10 4 10s8-6 3-10q-3-4-7 0m90-1a6 6 0 1 0 5 0zm89 3q-4 4 0 8c4 4 11 1 11-5 0-5-7-7-11-3m90 0c-5 6 1 13 8 8q5-4-1-8-4-4-7 0M45 310q-9 5-7 14c3 7 14 8 19 3 9-9-2-23-12-17m357 2c-9 8-2 22 9 18q9-5 10-11-2-8-11-10-5-1-8 3m-178-1c-8 3-9 15-1 19 7 4 17-3 17-11 0-5-10-11-16-8m356 3c-7 5-4 18 3 18q14 2 16-7c3-10-10-18-19-11m-535 2q-3 3 0 7a6 6 0 1 0 0-7m182-1c-4 1-5 7-2 10a6 6 0 1 0 2-10m532 1c-8 7-3 19 7 19q3 1 3-2 1-3-2-2-4-1-6-7 1-5 6-6 3 1 2-2-1-4-10 0m-354 1q-4 4 1 8 6 3 8-3c2-6-5-10-9-5m178 1c-4 4-1 10 5 10 5 0 8-7 3-10q-3-5-8 0m-473 15c-5 4-4 14 1 17 11 5 22-6 16-16-3-5-12-6-17-1m47-2q-5 3-6 10c0 10 15 13 21 5 6-9-4-19-15-15m179 0a11 11 0 1 0 7-1zm133 1c-11 7-1 25 11 19 6-4 9-13 4-18q-7-5-15-1m-178 2c-11 11 6 25 16 15q8-7 1-15c-3-4-12-5-17 0m225-2-2 1c-6 2-6 14 0 17 11 7 24-7 15-16-3-3-13-5-13-2m134 2q-3 1-5 7c-3 10 12 17 19 9 9-10-2-23-14-16m46 0c-6 2-8 13-4 17q8 6 17-1c8-8-2-21-13-16m-582 2a6 6 0 1 0 8 9 6 6 0 0 0-8-9m44 0q-3 5 2 10c2 2 8-1 9-5s-7-8-11-5m179 2q-4 8 4 9c5 0 8-7 4-10q-4-4-8 1m134-1a6 6 0 1 0 9 7 6 6 0 0 0-9-7m45 1c-5 6 3 12 9 7q4-3 0-8t-9 1m-221 1c-3 7 6 11 10 5q2-2-1-5-5-6-9 0m357-1q-4 5 0 8c6 5 13-1 8-8q-4-4-8 0m44 1c-3 3 1 11 5 11 1 0 6-5 6-7 0-4-8-7-11-4M44 354q-6 3-7 10c0 10 13 14 20 5 7-8-1-18-13-15m178 1q-7 4-4 13c3 11 22 5 21-6-1-8-10-12-17-7m358 2q-5 3-4 8c0 9 12 14 19 7 10-10-4-24-15-15m182-1q-12 7-4 18c3 3 11 3 11 0q0-3-2-3-5-1-6-6 0-5 5-5 4 1 3-3 1-6-7-1m-358 1c-5 2-8 10-6 15 3 8 16 7 21-1 4-8-6-18-15-14m-358 1q-6 5-1 11c6 4 13-4 8-10q-3-3-7-1m179 1c-3 2-3 9 0 10q6 1 9-3c3-6-5-12-9-7m360 1-2 3c-4 6 4 10 9 5 4-4-2-10-7-8m-181 3q-3 7 2 10 5 1 8-3c3-6-6-12-10-7M2 378q-5 3 2 6c8 0 8 10 0 10q-5 0-4 2 1 7 10 1 9-9-1-18-3-3-7-1m87 1q-10 6-6 15c6 9 21 6 21-5 1-8-8-13-15-10m181 0q-6 3-6 11a11 11 0 1 0 6-11m-93 2c-10 6-6 20 6 19q6 0 9-5c6-10-5-21-15-14m181 0c-10 6-6 20 6 20 8 0 14-10 10-17-2-5-11-6-16-3m88 0c-6 4-7 13-1 18 8 7 22-4 17-14-2-5-11-8-16-4m93 0a9 9 0 0 0-5 17c9 8 23-1 18-12-1-2-7-6-9-6zm87 1c-7 3-8 13-1 19 6 5 18-1 18-10s-10-14-17-9m93 0q-17 7-5 19c7 6 20-1 19-11-1-6-9-10-14-8m-630 3q-5 8 4 9 6 1 6-5c0-5-7-8-10-4m271 0c-5 3-1 11 5 11a7 7 0 0 0-1-13zm-181 1c-5 7 3 13 8 7q4-4 0-7-5-4-8 0m269 0q-4 4 0 8 5 4 8 0c6-6-2-14-8-8m89 2q-5 8 4 9 9-1 6-9c-1-3-7-3-10 0m90 0c-3 7 5 12 9 6q3-3 1-5c-2-4-9-4-10-1m90 0q-5 8 3 9a6 6 0 1 0-3-9m-582 14c-7 1-9 14-3 19 9 7 23-5 17-15q-4-6-14-4m179 1a11 11 0 1 0 16 13c3-8-7-17-16-13m176 3-3 4-1 1q-2 2 1 8c7 12 25 3 20-9q-6-11-17-4m178 1c-9 9 0 22 12 18s9-20-3-21q-4-1-9 3m-532 0c-4 1-3 9 2 11q7 1 7-5-1-9-9-6m180 2a6 6 0 1 0 7 0q-4-4-7 0m178-1q-7 8 1 12c6 1 10-6 5-11q-4-3-6-1m177 3q-3 5 2 9a6 6 0 1 0-1-9M21 423c-8 5-8 14 0 18a11 11 0 1 0 0-18m46-1c-8 2-10 12-4 18 5 4 18 1 19-5 1-9-6-16-15-13m135 1q-11 6-5 17c5 7 18 3 20-6 1-8-8-14-15-11m45 0c-14 4-11 22 3 21 12-1 16-16 5-20-5-2-5-2-8-1m313 0c-6 3-9 12-5 16q10 9 18 1c8-8-2-21-13-17m-180 1q-13 7-4 17c5 6 14 5 19-2 5-8-5-19-15-15m356 0c-10 6-6 20 6 20q10-1 12-11c0-7-11-13-18-9m-312 1c-2 1-6 7-6 9 0 8 11 13 19 8 12-7 0-22-13-17m181 0c-2 0-7 6-7 8 0 3 3 10 6 11 6 3 16-2 18-9 1-6-8-12-17-10m-537 2c-5 2-5 8 0 10q4 2 7-1c6-5 0-13-7-9m-46 1c-3 4-1 11 4 11q5-1 7-6c0-6-7-9-11-5m180 1a6 6 0 1 0 9 8 6 6 0 0 0-9-8m43 1q-6 4-1 7a6 6 0 1 0 1-7m316-1c-5 6 2 13 7 8q4-3 1-8-5-4-8 0m-180 1a6 6 0 1 0 7 0q-3-3-7 0m47-1c-5 3-3 11 2 11q5-1 6-6-2-7-8-5m311 0a3 3 0 0 0-3 4c0 2 4 7 7 7 1 0 6-5 6-7q-1-6-10-4m-134 2q-1 5 1 8c4 3 10 0 10-5s-9-7-11-3m-296 14a11 11 0 1 0 16 17 11 11 0 0 0-16-17m-176-1q-10 7-4 17c5 7 20 3 20-7 0-8-9-14-16-10m356 2-3 3h5q16 3 6 11c-2 1-9 0-9-2-1-2-5-2-4 1 1 7 14 9 19 2 8-9-5-22-14-15m183 0-2 1c-3-1-6 5-6 10q-1 9 8 10c15 1 19-16 6-21zm-537 3q-8 7 1 10c6 3 11-6 5-10q-3-3-6 0m179 0q-6 4-1 8 4 5 8 0 5-4-1-8-3-3-6 0m357 3c-5 4-3 10 3 10s8-6 4-10q-4-4-7 0M88 465c-8 4-8 17 1 20 4 1 11-1 13-4 8-9-3-20-14-16m-88 3q-1 3 3 2 6 2 7 6c0 3-5 6-7 6q-4-1-3 3 0 5 8 0c7-3 8-12 2-17q-9-6-10 0m177-1c-10 6-7 20 4 20a11 11 0 1 0-4-20m179 0c-10 9-3 25 9 20q12-3 8-16c-2-5-12-8-17-4m90 0c-10 5-7 20 4 20a11 11 0 1 0-4-20m-177 0q-10 6-5 16a12 12 0 1 0 5-16m266 1c-9 5-8 18 3 19q12 1 14-11a12 12 0 0 0-17-8m93 0q-6 2-9 8c-1 6 7 14 13 13a11 11 0 0 0 9-16c0-3-9-7-13-5m88 0c-7 1-9 13-4 18 7 7 20 1 20-9 0-6-9-11-16-9m-624 1c-4 1-6 8-3 11q2 3 7 0c7-3 3-13-4-11m87 3a6 6 0 1 0 7 0q-4-3-7 0m180 0a6 6 0 1 0 7 0q-3-4-7 0m89 0a6 6 0 1 0 5-1q-2-2-5 1m89 0a6 6 0 1 0 6 0zm-267 1c-2 1-1 8 1 9a6 6 0 1 0-1-9m357 0c-3 3-1 11 4 11q5-1 6-7c0-4-7-7-10-4m90 1c-5 4-3 10 3 10q6-1 5-6-3-8-8-4M42 490c-10 7-6 20 7 19 12 0 15-16 3-19-6-2-6-2-10 0m182 0c-9 3-11 13-4 19q5 5 11 1c10-4 9-17-1-20zm175 3a11 11 0 1 0 16-1c-4-3-12-3-16 1m182 0q-11 7-5 15c5 6 16 6 19 0q7-11-5-15c-7-2-6-2-9 0m-536 2a6 6 0 1 0 8 9 6 6 0 0 0-8-9m712 2q-6 7-3 13c1 2 15 3 15 1q0-2-3-1-6 0-7-5 1-5 7-6 4 1 3-2c0-5-7-4-12 0m-534 0q-3 4 0 7c4 5 10 3 10-4 0-5-7-7-10-3m181 0q-4 6 3 8 6 1 6-5c0-5-6-7-9-3m179 0a6 6 0 1 0 6 11 6 6 0 0 0-6-11"
        mask="url(#16282281824-posters-1720560287862-horizontal-mask)" itemprop="bold" fill-opacity="0.90"
        fill-rule="evenodd" stroke="none" fill="url(#16282281824-posters-1720560287862-vertical-bold)"></path>
    </pattern>
    <rect id="16282281824-posters-1720560287862-pattern-render" fill="url(#16282281824-posters-1720560287862-pattern)"
      width="100%" height="100%"></rect>
  </defs>
  <radialGradient id="lightbar" cx="50%" cy="200%" fy="0" r="201%">
    <stop offset="0%" style="stop-color: rgb(255, 255, 255); stop-opacity: 0.1;"></stop>
    <stop offset="10%" style="stop-color: rgb(0, 0, 0); stop-opacity: 0.1;"></stop>
    <stop offset="30%" style="stop-color: rgb(0, 0, 0); stop-opacity: 0.3;"></stop>
    <stop offset="90%" style="stop-color: rgb(0, 0, 0); stop-opacity: 0.55;"></stop>
    <stop offset="100%" style="stop-color: rgb(0, 0, 0); stop-opacity: 0.6;"></stop>
  </radialGradient>
  <g class="radial">
    <radialGradient id="16282281824-posters-1720560287862-radial" gradientUnits="userSpaceOnUse">
      <stop itemprop="radial" stop-color="#d5d4d2" offset="0%"></stop>
      <stop itemprop="radial" stop-color="#d2d1d0" offset="15%"></stop>
      <stop itemprop="radial" stop-color="#d5d4d3" offset="30%"></stop>
      <stop itemprop="radial" stop-color="#d7d7d5" offset="45%"></stop>
      <stop itemprop="radial" stop-color="#d0cfce" offset="60%"></stop>
      <stop itemprop="radial" stop-color="#d2d1d0" offset="75%"></stop>
      <stop itemprop="radial" stop-color="#dad9d8" offset="90%"></stop>
    </radialGradient>
    <radialGradient id="16282281824-posters-1720560287862-radial-background" gradientUnits="userSpaceOnUse">
      <stop stop-color="#d3cec5" offset="0%"></stop>
      <stop stop-color="#d3cec5" offset="15%"></stop>
      <stop stop-color="#d3cdc5" offset="30%"></stop>
      <stop stop-color="#d3cec5" offset="45%"></stop>
      <stop stop-color="#d3cfc5" offset="60%"></stop>
      <stop stop-color="#d3cec5" offset="75%"></stop>
      <stop stop-color="#d3cec5" offset="90%"></stop>
    </radialGradient>
    <radialGradient id="16282281824-posters-1720560287862-radial-light" gradientUnits="userSpaceOnUse">
      <stop stop-color="#9c9a96" offset="0%"></stop>
      <stop stop-color="#9c9a96" offset="15%"></stop>
      <stop stop-color="#9b9997" offset="30%"></stop>
      <stop stop-color="#9c9a96" offset="45%"></stop>
      <stop stop-color="#9b9a97" offset="60%"></stop>
      <stop stop-color="#9c9a96" offset="75%"></stop>
      <stop stop-color="#9c9a96" offset="90%"></stop>
    </radialGradient>
    <radialGradient id="16282281824-posters-1720560287862-radial-regular" gradientUnits="userSpaceOnUse">
      <stop stop-color="#83817c" offset="0%"></stop>
      <stop stop-color="#83817c" offset="15%"></stop>
      <stop stop-color="#82807d" offset="30%"></stop>
      <stop stop-color="#83817c" offset="45%"></stop>
      <stop stop-color="#82817d" offset="60%"></stop>
      <stop stop-color="#83817c" offset="75%"></stop>
      <stop stop-color="#83817c" offset="90%"></stop>
    </radialGradient>
    <radialGradient id="16282281824-posters-1720560287862-radial-medium" gradientUnits="userSpaceOnUse">
      <stop stop-color="#51504d" offset="0%"></stop>
      <stop stop-color="#51504d" offset="15%"></stop>
      <stop stop-color="#514f4d" offset="30%"></stop>
      <stop stop-color="#51504d" offset="45%"></stop>
      <stop stop-color="#51504d" offset="60%"></stop>
      <stop stop-color="#51504d" offset="75%"></stop>
      <stop stop-color="#51504d" offset="90%"></stop>
    </radialGradient>
    <radialGradient id="16282281824-posters-1720560287862-radial-bold" gradientUnits="userSpaceOnUse">
      <stop stop-color="#2f2e2d" offset="0%"></stop>
      <stop stop-color="#2f2e2d" offset="15%"></stop>
      <stop stop-color="#2f2e2d" offset="30%"></stop>
      <stop stop-color="#2f2e2d" offset="45%"></stop>
      <stop stop-color="#2f2e2d" offset="60%"></stop>
      <stop stop-color="#2f2e2d" offset="75%"></stop>
      <stop stop-color="#2f2e2d" offset="90%"></stop>
    </radialGradient>
  </g>
  <g class="vertical">
    <linearGradient id="16282281824-posters-1720560287862-vertical" gradientUnits="userSpaceOnUse" x1="0" x2="0" y1="0"
      y2="100%">
      <stop itemprop="vertical" stop-color="#d5d4d2" offset="0%"></stop>
      <stop itemprop="vertical" stop-color="#d2d1d0" offset="15%"></stop>
      <stop itemprop="vertical" stop-color="#d5d4d2" offset="30%"></stop>
      <stop itemprop="vertical" stop-color="#d7d7d5" offset="45%"></stop>
      <stop itemprop="vertical" stop-color="#d0cfce" offset="60%"></stop>
      <stop itemprop="vertical" stop-color="#d2d1d0" offset="75%"></stop>
      <stop itemprop="vertical" stop-color="#dad9d8" offset="90%"></stop>
    </linearGradient>
    <linearGradient id="16282281824-posters-1720560287862-vertical-background" gradientUnits="userSpaceOnUse" x1="0"
      x2="0" y1="0" y2="100%">
      <stop stop-color="#ceccca" offset="0%"></stop>
      <stop stop-color="#ceccca" offset="15%"></stop>
      <stop stop-color="#ceccca" offset="30%"></stop>
      <stop stop-color="#ceccca" offset="45%"></stop>
      <stop stop-color="#cdcccb" offset="60%"></stop>
      <stop stop-color="#ceccca" offset="75%"></stop>
      <stop stop-color="#ceccca" offset="90%"></stop>
    </linearGradient>
    <linearGradient id="16282281824-posters-1720560287862-vertical-light" gradientUnits="userSpaceOnUse" x1="0" x2="0"
      y1="0" y2="100%">
      <stop stop-color="#ae9f84" offset="0%"></stop>
      <stop stop-color="#ae9f84" offset="15%"></stop>
      <stop stop-color="#ae9f84" offset="30%"></stop>
      <stop stop-color="#ae9f84" offset="45%"></stop>
      <stop stop-color="#aea284" offset="60%"></stop>
      <stop stop-color="#ae9f84" offset="75%"></stop>
      <stop stop-color="#ae9f84" offset="90%"></stop>
    </linearGradient>
    <linearGradient id="16282281824-posters-1720560287862-vertical-regular" gradientUnits="userSpaceOnUse" x1="0" x2="0"
      y1="0" y2="100%">
      <stop stop-color="#83817c" offset="0%"></stop>
      <stop stop-color="#83817c" offset="15%"></stop>
      <stop stop-color="#83817c" offset="30%"></stop>
      <stop stop-color="#83817c" offset="45%"></stop>
      <stop stop-color="#82817d" offset="60%"></stop>
      <stop stop-color="#83817c" offset="75%"></stop>
      <stop stop-color="#83817c" offset="90%"></stop>
    </linearGradient>
    <linearGradient id="16282281824-posters-1720560287862-vertical-medium" gradientUnits="userSpaceOnUse" x1="0" x2="0"
      y1="0" y2="100%">
      <stop stop-color="#51504d" offset="0%"></stop>
      <stop stop-color="#51504d" offset="15%"></stop>
      <stop stop-color="#51504d" offset="30%"></stop>
      <stop stop-color="#51504d" offset="45%"></stop>
      <stop stop-color="#51504d" offset="60%"></stop>
      <stop stop-color="#51504d" offset="75%"></stop>
      <stop stop-color="#51504d" offset="90%"></stop>
    </linearGradient>
    <linearGradient id="16282281824-posters-1720560287862-vertical-bold" x1="0" x2="0" y1="0" y2="100%">
      <stop stop-color="#2f2e2d" offset="0%"></stop>
      <stop stop-color="#2f2e2d" offset="15%"></stop>
      <stop stop-color="#2f2e2d" offset="30%"></stop>
      <stop stop-color="#2f2e2d" offset="45%"></stop>
      <stop stop-color="#2f2e2d" offset="60%"></stop>
      <stop stop-color="#2f2e2d" offset="75%"></stop>
      <stop stop-color="#2f2e2d" offset="90%"></stop>
    </linearGradient>
  </g>
  <g class="horizontal">
    <linearGradient id="16282281824-posters-1720560287862-horizontal" x1="0" x2="100%" y1="0" y2="0"
      gradientUnits="userSpaceOnUse">
      <stop itemprop="horizontal" stop-color="#d5d4d3" offset="0%"></stop>
      <stop itemprop="horizontal" stop-color="#d5d4d2" offset="15%"></stop>
      <stop itemprop="horizontal" stop-color="#d5d4d3" offset="30%"></stop>
      <stop itemprop="horizontal" stop-color="#d2d1d0" offset="45%"></stop>
      <stop itemprop="horizontal" stop-color="#dad9d8" offset="60%"></stop>
      <stop itemprop="horizontal" stop-color="#d2d1d0" offset="75%"></stop>
      <stop itemprop="horizontal" stop-color="#d7d6d5" offset="90%"></stop>
    </linearGradient>
    <linearGradient id="16282281824-posters-1720560287862-horizontal-background" gradientUnits="userSpaceOnUse" x1="0"
      x2="100%" y1="0" y2="0">
      <stop stop-color="#cdcccb" offset="0%"></stop>
      <stop stop-color="#ceccca" offset="15%"></stop>
      <stop stop-color="#cdcccb" offset="30%"></stop>
      <stop stop-color="#cdcccb" offset="45%"></stop>
      <stop stop-color="#ceccca" offset="60%"></stop>
      <stop stop-color="#ceccca" offset="75%"></stop>
      <stop stop-color="#cdcccb" offset="90%"></stop>
    </linearGradient>
    <linearGradient id="16282281824-posters-1720560287862-horizontal-light" gradientUnits="userSpaceOnUse" x1="0"
      x2="100%" y1="0" y2="0">
      <stop stop-color="#9b9a97" offset="0%"></stop>
      <stop stop-color="#9c9a96" offset="15%"></stop>
      <stop stop-color="#9b9997" offset="30%"></stop>
      <stop stop-color="#9b9997" offset="45%"></stop>
      <stop stop-color="#9c9a96" offset="60%"></stop>
      <stop stop-color="#9c9a96" offset="75%"></stop>
      <stop stop-color="#9b9997" offset="90%"></stop>
    </linearGradient>
    <linearGradient id="16282281824-posters-1720560287862-horizontal-regular" gradientUnits="userSpaceOnUse" x1="0"
      x2="100%" y1="0" y2="0">
      <stop stop-color="#968969" offset="0%"></stop>
      <stop stop-color="#968669" offset="15%"></stop>
      <stop stop-color="#968469" offset="30%"></stop>
      <stop stop-color="#968469" offset="45%"></stop>
      <stop stop-color="#968669" offset="60%"></stop>
      <stop stop-color="#968669" offset="75%"></stop>
      <stop stop-color="#968469" offset="90%"></stop>
    </linearGradient>
    <linearGradient id="16282281824-posters-1720560287862-horizontal-medium" gradientUnits="userSpaceOnUse" x1="0"
      x2="100%" y1="0" y2="0">
      <stop stop-color="#5d5541" offset="0%"></stop>
      <stop stop-color="#5d5341" offset="15%"></stop>
      <stop stop-color="#5d5241" offset="30%"></stop>
      <stop stop-color="#5d5241" offset="45%"></stop>
      <stop stop-color="#5d5341" offset="60%"></stop>
      <stop stop-color="#5d5341" offset="75%"></stop>
      <stop stop-color="#5d5241" offset="90%"></stop>
    </linearGradient>
    <linearGradient id="16282281824-posters-1720560287862-horizontal-bold" gradientUnits="userSpaceOnUse" x1="0"
      x2="100%" y1="0" y2="0">
      <stop stop-color="#2f2e2d" offset="0%"></stop>
      <stop stop-color="#2f2e2d" offset="15%"></stop>
      <stop stop-color="#2f2e2d" offset="30%"></stop>
      <stop stop-color="#2f2e2d" offset="45%"></stop>
      <stop stop-color="#2f2e2d" offset="60%"></stop>
      <stop stop-color="#2f2e2d" offset="75%"></stop>
      <stop stop-color="#2f2e2d" offset="90%"></stop>
    </linearGradient>
  </g>
  <g class="masks">
    <mask id="16282281824-posters-1720560287862-pattern-mask" maskUnits="userSpaceOnUse"
      maskContentUnits="userSpaceOnUse">
      <pattern id="pattern" x="0" y="0" width=".0133" height=".0144" viewBox="0 0 23.07 40">
        <path
          d="M17.62 0l-6.07 10.5m2.74 4.76L8.22 4.75m-5.48 0h12.13M.01 0h23.07M6.07 20L0 9.5m2.74-4.75l-6.07 10.5m-5.48 0H3.33m8.2 4.75L0 .02-11.54 20m40.68 0L23.07 9.5m2.74-4.75l-6.06 10.5m-5.49 0H26.4M34.6 20L23.08.02 11.53 20m-5.46 0L0 30.51m2.74 4.75l-6.07-10.5m-5.48 0H3.33m8.2-4.75L0 40l-11.54-19.98zM17.6 40l-6.06-10.5m2.74-4.76L8.2 35.25m-5.48 0h12.13M0 40h23.07L11.54 20.01m17.6 0l-6.07 10.5m2.74 4.75l-6.06-10.5m-5.49 0H26.4M11.53 20h23.08L23.07 40"
          stroke-linecap="round" stroke-width="3.5" stroke="white"
          fill="url(#16282281824-posters-1720560287862-horizontal-background)"></path>
      </pattern>
      <rect width="100%" height="100%" fill="url(#pattern)"></rect>
    </mask>
    <mask id="16282281824-posters-1720560287862-horizontal-mask" maskUnits="userSpaceOnUse"
      maskContentUnits="userSpaceOnUse">
      <rect width="100%" height="100%" fill="url(#16282281824-posters-1720560287862-horizontal-background)"></rect>
    </mask>
    <mask id="16282281824-posters-1720560287862-radial-mask" maskUnits="userSpaceOnUse"
      maskContentUnits="userSpaceOnUse">
      <rect width="100%" height="100%" fill="url(#16282281824-posters-1720560287862-radial-background)"></rect>
    </mask>
    <mask id="16282281824-posters-1720560287862-vertical-mask" maskUnits="userSpaceOnUse"
      maskContentUnits="userSpaceOnUse">
      <rect width="100%" height="100%" fill="url(#16282281824-posters-1720560287862-vertical-background)"></rect>
    </mask>
  </g>
  <use href="#16282281824-posters-1720560287862-pattern-render"></use>
  <g>
    <use href="#16282281824-posters-1720560287862-background"></use>
    <use href="#16282281824-posters-1720560287862-light"></use>
    <use href="#16282281824-posters-1720560287862-regular"></use>
    <use href="#16282281824-posters-1720560287862-medium"></use>
    <use href="#16282281824-posters-1720560287862-bold"></use>
  </g>
  <g itemprop="animation">
    <animate href="#16282281824-posters-1720560287862-light" attributeName="stroke-opacity" repeatCount="indefinite"
      dur="5s" values="0.9;0.0;0.9"></animate>
    <animate href="#16282281824-posters-1720560287862-regular" attributeName="stroke-opacity" repeatCount="indefinite"
      dur="4s" values="0.9;0;0.9"></animate>
    <animate href="#16282281824-posters-1720560287862-medium" attributeName="stroke-opacity" repeatCount="indefinite"
      dur="5s" values="0.9;0;0.9"></animate>
    <animate href="#16282281824-posters-1720560287862-bold" attributeName="stroke-opacity" repeatCount="indefinite"
      dur="3s" values="0.9;0;0.9"></animate>
    <animate href="#16282281824-posters-1720560287862-regular" attributeName="fill-opacity" repeatCount="indefinite"
      dur="8s" values="0.9;0.75;0.95;0.8;0.9;"></animate>
    <animate href="#16282281824-posters-1720560287862-radial-background" attributeName="cx" repeatCount="indefinite"
      dur="34s" values="0%;33%;100%;0%;100%;0%;"></animate>
    <animate href="#16282281824-posters-1720560287862-radial-background" attributeName="cy" repeatCount="indefinite"
      dur="55s" values="0%;100%;33%;100%;66%;0%"></animate>
    <animate href="#16282281824-posters-1720560287862-vertical-light" attributeName="x1" repeatCount="indefinite"
      dur="55s" values="0%;33%;100%;0%;133%;0%;"></animate>
    <animate href="#16282281824-posters-1720560287862-vertical-light" attributeName="y1" repeatCount="indefinite"
      dur="86s" values="0%;100%;33%;100%;66%;0%"></animate>
    <animate href="#16282281824-posters-1720560287862-horizontal-regular" attributeName="x1" repeatCount="indefinite"
      dur="34s" values="0%;100%;66%;0%;33%;133%;0%"></animate>
    <animate href="#16282281824-posters-1720560287862-horizontal-regular" attributeName="y1" repeatCount="indefinite"
      dur="55s" values="0%;66%;100%;33%;100%;66%;0%"></animate>
    <animate href="#16282281824-posters-1720560287862-vertical-medium" attributeName="x1" repeatCount="indefinite"
      dur="34s" values="0%;100%;66%;0%;33%;133%;0%"></animate>
    <animate href="#16282281824-posters-1720560287862-vertical-medium" attributeName="y1" repeatCount="indefinite"
      dur="55s" values="0%;66%;100%;33%;100%;66%;0%"></animate>
    <animate href="#16282281824-posters-1720560287862-vertical-bold" attributeName="x1" repeatCount="indefinite"
      dur="34s" values="0%;100%;66%;0%;33%;133%;0%"></animate>
    <animate href="#16282281824-posters-1720560287862-vertical-bold" attributeName="y1" repeatCount="indefinite"
      dur="55s" values="0%;66%;100%;33%;100%;66%;0%"></animate>
  </g>
</svg>
