<svg id="16282281824-posters-1720558334746" itemscope="" itemtype="/posters"
  itemid="/+16282281824/posters/1720558334746" viewBox="0 0 769 512" preserveAspectRatio="xMidYMid meet" tabindex="0"
  class="animate landscape" xmlns="http://www.w3.org/2000/svg">
  <!---->
  <defs class="graphic">
    <pattern id="16282281824-posters-1720558334746-pattern" width="769" height="512" viewBox="0 0 769 512"
      patternUnits="userSpaceOnUse" preserveAspectRatio="xMidYMid meet">
      <rect itemprop="background" width="769" height="512" tabindex="-1"
        id="16282281824-posters-1720558334746-background" fill-opacity="1"
        fill="url(#16282281824-posters-1720558334746-radial-background)"></rect>
      <!---->
      <path id="16282281824-posters-1720558334746-light"
        d="M238 3q-6 7 0 13 11 7 15-4c3-10-8-16-15-9m97 0c0 10 17 12 21 2 2-5 2-5-10-5h-11zm272 0 2 6c6 10 21 6 21-5V0h-23zm44-2q1 2 7 4c2 0 7-2 7-4l-7-1zM25 2c-9 5-4 20 7 20q8-1 9-9c0-7-9-14-16-11m710 1q-14 7-4 17c10 11 26-2 17-13l-10-6zM569 4c-9 4-5 20 4 20 7 0 14-11 10-16q-6-6-14-4M201 7c-11 5-11 18 1 18 8 0 13-7 10-13q-4-8-11-5M70 8c-9 5-7 20 3 20 11 0 15-16 5-20zm316 1c-6 1-10 9-8 13q7 9 15 4c11-7 5-21-7-17m136 1c-11 6-9 20 2 20 5 0 12-8 12-12 0-7-9-11-14-8m-43 1c-9 4-9 13 1 19q12 5 13-10c0-5-8-10-14-9m-178 5c-7 7-4 15 6 15 6 1 12-6 11-11a9 9 0 0 0-17-4m-188-1c-7 4-5 18 2 16h2c2 4 10-4 10-10s-8-9-14-6m321-1q-5 2-8 6c-6 9 5 19 14 13s4-22-6-19m247 7q-7 10 0 16c10 6 21-1 16-11-3-8-11-10-16-5m-47 10c-5 5-5 6-2 12 4 7 14 8 18 2 10-13-5-25-16-14m-370 1c-6 6-3 15 6 16q7 0 10-6l2-4-3-4q-7-9-15-2M1 41v9h3a9 9 0 0 0 4-17q-8-7-7 8m350-8c-12 7-10 21 2 21q12-1 12-12-5-13-14-9m246 5c-8 3-11 15-4 19 5 3 15 1 15-4l2-2a10 10 0 0 0-13-13M41 41q-7 7 2 15c7 6 15 2 15-7s-12-14-17-8m181-1q-9 5-5 12c6 8 17 7 21-2 1-4-1-10-5-10l-2-1q-2-2-9 1m328 3c-10 6-9 20 3 19 10 0 15-13 8-18q-5-5-11-1M89 43a10 10 0 1 0 9 17 10 10 0 0 0-9-17m89 6q-8 8 0 15c6 6 15 2 16-7 1-10-9-14-16-8m272 0c-8 6-5 18 5 18 11 0 16-10 10-17q-6-7-15-1m290 0q-5 6 0 12c3 6 13 6 17 1 8-9-8-22-17-13m-608 0c-9 5-8 19 2 19q7-1 10-6l2-3q3-2-2-8-7-5-12-2m366 0c-5 3-7 12-3 16q9 7 17-5c4-8-7-17-14-11m-111 3c-9 8-7 18 5 18 6 0 13-7 13-13 0-7-12-11-18-5m316 1c-9 5-5 20 6 20 9 0 12-14 3-19q-6-3-9-1m-393 5c-6 3-6 13 0 15q7 4 12-1c8-8-2-20-12-14m353 2c-8 3-10 13-4 18q8 7 15-3c6-9-1-19-11-15M264 72c-9 6-5 18 6 18 8 0 14-9 10-14q-7-8-16-4M5 73c-6 5-4 16 4 18q7 2 10-1c7-7 1-18-9-18zm53 1q-9 9 0 16 6 4 12-2c9-8-3-21-12-14m359 0-1 1c-4 0-5 8-2 12q4 7 11 4c8-2 11-12 5-17-3-2-12-3-13 0m201 0c-6 3-8 12-4 16 8 7 19 4 20-6 2-9-8-15-16-10m-278 5c-8 6-5 16 6 18q5 1 7-3c9-8-4-22-13-15m-118 2q-5 3-4 8 3 13 18 6c5-3 4-15-2-15l-2-1q-4-3-10 2m350-1c-9 5-8 15 1 20 4 2 12-2 12-6l1-3c2-1-1-9-4-11q-4-4-10 0M98 82c-7 4-6 13 1 17 9 5 20-8 13-15q-6-6-14-2m380-1c-3 1-8 7-8 10 0 9 10 13 16 7 5-6 4-14-2-16q-3-3-6-1m50 2a9 9 0 0 0 2 19c8 0 14-9 10-16q-4-6-12-3m237 2q-3 5 1 9 3 5 3-5 0-11-4-4m-622 0c-1 1-5 10-5 13 0 2 5 6 7 6 10 0 17-12 11-18q-7-5-13-1m41 6q-10 6-3 14c6 6 18 0 18-8 0-6-9-10-15-6m546 3q-9 6-3 14a10 10 0 1 0 3-14m-437 4q-6 5-2 12c5 10 19 6 20-5 1-10-10-15-18-7m393-2q-8 9 2 15c8 5 20-6 15-13q-8-7-17-2m-316 2c-6 6-3 18 5 18 6 0 13-9 11-14q-6-12-16-4m-338 4q-11 7-2 16 8 7 15-4a8 8 0 0 0 0-10c-2-4-9-5-13-2m609 3a11 11 0 1 0 15 14c6-10-5-20-15-14m-195 0c-10 6-9 20 2 20q5 0 8-4c8-8 0-21-10-16m153 6c-9 4-11 14-3 19q6 4 11 0c7-4 7-13 0-18-3-2-3-2-8-1m-349 5q-12 6-4 16a10 10 0 1 0 3-16m159 1c-12 3-13 16-3 20 7 2 14-5 14-13q-1-8-11-7m94 1c-7 3-9 11-5 16 8 6 22-3 18-12q-5-7-13-4m-170 2q-8 1-9 10c0 10 15 12 20 3 4-7-3-14-11-13m-265 2q-11 5-2 15 12 10 18-2c3-8-8-17-16-13m41-1q-5 6-4 11c3 11 20 8 19-3q-5-12-15-8M0 132v11h3q13-5 2-20-5-7-5 9m204-8c-6 6-4 15 5 17a10 10 0 1 0-5-17m559 0c-5 5-3 15 4 15 2 0 2 0 2-9q1-14-6-6m-606 2c-8 4-7 14 1 19 7 4 15 0 15-8s-9-15-16-11m387 0c-8 5-9 16-2 19 11 4 20-10 12-19q-4-3-10 0m172 6q-10 7-3 15 9 8 17 1c9-8-3-23-14-16m-51 2q-7 3-7 10c0 10 11 14 18 7 9-9 0-23-11-17m-387 3c-10 9-2 23 10 19 3-1 7-8 7-12 0-8-11-12-17-7m83 3a9 9 0 0 0-5 16q9 7 16-5 5-8-3-11c-3-2-3-2-8 0m113 2q-7 3-7 11 0 14 11 9 11-4 9-12c0-5-8-9-13-8m-450 8q-6 8 0 15c12 8 26-5 17-15q-9-9-17 0m555-1q-9 9-1 16c7 5 15 0 16-9s-8-14-15-7m39 0q-9 9-4 17c10 9 27-5 17-15a10 10 0 0 0-9-4zm-182 2c-9 6-7 17 3 17a11 11 0 0 0 10-6c2-1 2-8-1-10q-6-5-12-1m-347 7q-6 6 1 14c8 7 20-1 15-10q-6-12-16-4m141 0c-6 3-9 14-4 19 9 7 23-2 20-12q-5-11-16-7m534 0c-3 1-8 8-8 10 0 4 6 10 10 11h3v-11c0-12 0-12-5-10m-450 1c-8 6-7 18 1 19 9 2 17-11 10-17q-6-5-11-2m193 4c-7 8 0 18 9 15 7-2 10-9 6-13q-9-8-15-2m-326 1q-9 9 2 18c11 7 21-9 11-17q-6-7-13-1m212 0c-5 5-2 15 5 15 3 0 9-4 10-6 4-8-9-16-15-9m-259-1-3 1q-7 8-2 14c5 9 19 6 19-4q-1-13-14-11m545 11q-11 7-2 16 5 6 12 0c10-8 0-23-10-16m42 1q-9 9 3 16 7 5 12-1c9-10-5-24-15-15m-458 1c-9 7-7 18 3 18 9 0 16-13 9-18q-6-4-12 0m-206 2q-7 8 0 16c5 5 14 3 17-3 5-10-9-21-17-13m496 0q-11 9 1 17c10 5 20-9 11-17q-4-6-12 0m-196 2c-7 7-4 15 5 16 9 0 14-10 8-16q-6-6-13 0m281 3q-4 2-3 8c0 13 17 13 19-1 1-9-8-13-16-7m-165 1c-7 3-11 11-7 16 6 7 19 3 19-7 0-6-7-11-12-9m120 5c-9 4-8 18 1 21 8 1 16-12 12-18q-6-5-13-3m-581 1c-6 2-8 13-2 18 7 6 19-1 16-9l-2-5c0-3-8-5-12-4m197 2a9 9 0 1 0 13 8 10 10 0 0 0-8-10zm-106 4q-6 8-1 15c4 4 13 4 17-1 7-8-7-21-16-14m53 3c-7 6-7 15 1 18q7 3 13-5c9-12-3-23-14-13m274-2q-5 5-3 10c4 7 18 4 18-4 0-6-10-10-15-6m-112 3q-7 9 0 15c7 4 15 0 16-8 1-9-9-13-16-7m202 2c-11 6-9 21 3 20q10 0 11-10c1-8-8-14-14-10m-132 3q-7 8 0 13 10 3 14-5 3-6-2-9-5-6-12 1m370 3c-8 7-6 18 3 20 8 1 8 0 8-12v-10h-4zm-479 3c-11 4-10 18 1 17a9 9 0 0 0 7-16c-4-2-3-2-8-1m441 1c-14 3-12 19 2 19q9 0 9-9-1-12-11-10m-47 2c-5 3-8 11-5 16q7 11 16 2c10-9 1-23-11-18m-612 2-5 6-2 5 2 3c5 9 15 8 21-2 5-9-5-17-16-12m502 0c-7 3-9 13-3 17q7 6 14-2c7-8-2-20-11-15m57 2c-7 7-4 16 6 16 9 0 14-8 10-15q-7-10-16-1m-380 2q-6 5-7 11c1 6 14 9 18 4 8-9-1-20-11-15m115 1c-6 1-12 11-8 15 7 11 24 1 18-11a8 8 0 0 0-10-4m120 1q-10 6-3 14c6 7 16 1 16-8 0-7-7-10-13-6m-459 9c-5 6-1 16 5 16 9 0 14-10 8-16q-6-5-13 0m173 1c-8 6-1 21 8 18q7-1 9-5c5-11-8-21-17-13m-88 0c-5 2-8 12-5 16 6 7 22 0 19-8-1-6-9-10-14-8m40 4c-3 3-4 9-2 9l1 2c2 7 17 3 18-5a9 9 0 0 0-17-6m292-2q-10 8 2 15 6 2 11-5c3-8-6-15-13-10m-124 6c-3 3-3 3-3 8q4 13 15 5c9-8-3-20-12-13m84 1c-6 3-6 12-1 15q9 5 14-3c5-9-4-16-13-12m197 2c-10 6-7 19 5 19 9 0 14-11 8-16q-7-8-13-3m-68 2q-8 3-7 9c0 13 18 15 22 3 3-9-7-16-15-12m216 4c-10 7-7 21 5 21 9 0 15-13 8-21q-5-4-13 0m-93 3q-7 8-1 15a11 11 0 1 0 1-15m48 2q-7 6-2 13c5 8 19 3 19-7 0-9-11-13-17-6m-423 1q-7 4-6 9 2 9 11 10c11 0 13-15 3-20-4-1-4-1-8 1m-232 4c-8 8 2 21 12 16 7-4 5-14-3-18q-5-3-9 2m182 1c-8 5-7 15 1 17 10 2 17-8 10-16q-5-5-11-1m126 3a10 10 0 1 0 16 3c-2-7-10-8-16-3m133 3q-7 6-5 12 7 10 16 3c10-8 0-22-11-15m-398 0c-5 1-9 9-7 14q6 11 17 4c9-9 3-20-10-18m95 2c-3 2-6 9-6 12a10 10 0 1 0 6-12m-51 6q-7 7-1 14c8 6 18 2 18-9a9 9 0 0 0-17-5m432 0q-10 11 5 18c4 1 4 1 8-1s7-9 5-13q-8-14-18-4m-123 1c-2 0-6 6-6 9q1 6 8 8 8-1 9-6l1-1 1-3q-1-9-13-7m-48 5q-7 4-3 11 6 6 13 0c7-7-2-17-10-11m223 0c-9 4-8 14 2 18 6 2 15-4 13-10q-3-14-15-8m-299 1c-4 2-7 10-5 13 4 7 14 6 18-1 6-9-4-18-13-12m446 5c-7 7 0 19 9 16l4-1v-8q2-12-7-10-4 0-6 3m-235 2q-10 7-3 16c9 11 25 1 17-10q-6-9-14-6m142 1c-7 3-6 15 1 20a10 10 0 1 0 7-20zm47 3-3 3c-2 0-1 9 1 10q7 6 12 3c10-6 7-19-4-19q-5-1-6 3m-468 1c-7 6-4 15 4 15a9 9 0 1 0-4-15m-219 0c-7 1-10 10-6 15 4 6 18 2 18-4q-1-6-6-10-2-3-6-1m323 10c-8 4-8 13-1 18 8 5 19-4 15-14q-5-9-14-4m-144 2a9 9 0 1 0 7-2q-4-1-7 2m-136 0q-12 8-7 17 8 8 17 0c8-8 0-21-10-17m217 2q-9 8-2 15c4 5 12 4 16-3 7-9-6-20-14-12m201 1c-9 7-6 19 4 19 6 0 13-6 13-11 0-8-11-13-17-8m-324 1q-7 3-5 10 2 13 13 7c10-6 3-22-8-17m-45 1a10 10 0 1 0 4 19 10 10 0 0 0-4-19m278 5q-8 8-2 16c5 5 17 0 17-9 0-8-9-12-15-7m46 0c-3 1-7 8-7 11q5 11 17 6c10-6 2-22-10-17m194 0c-6 1-10 10-8 16 5 9 17 8 21-1q5-16-13-15m-56 2c-5 3-6 11-1 16s14 3 16-4c2-8-7-15-15-12m165 7a11 11 0 1 0 15 1q-8-7-15-1m-52-1a10 10 0 1 0 8 18 10 10 0 0 0-8-18m-149 3c-8 4-3 19 7 19 11 0 11-18-1-19zm-218 3c-6 2-8 11-3 16 8 9 24-3 17-13q-5-5-14-3M0 341q-1 11 3 7c4-3 4-12 0-15q-4-4-3 8m244-5c-8 7-4 17 6 17a10 10 0 1 0-6-17m-203 1c-13 4-11 19 2 19 11 1 15-13 7-18-4-2-4-2-9-1m160 4c-10 3-12 16-2 18 9 3 17-10 10-16q-3-4-8-2m307 1q-13 8-6 18c8 8 25-5 18-14q-6-7-12-4m-139 4a9 9 0 1 0 16 10c3-11-9-18-16-10m-287 3q-10 5-5 14 6 10 16 1 6-7-2-14-5-5-9-1m200 1c-9 5-10 17-1 18q7 1 10-2c9-8 2-21-9-16m182 2c-5 4-5 16 1 16l1 1c0 4 11-3 14-9 4-8-8-15-16-8m-42-1c-11 3-13 14-4 20 10 6 23-6 16-16l-8-5zm188 0q-12 8-4 17a10 10 0 1 0 4-17m-490 3a9 9 0 0 0 6 17c9-1 11-11 4-17q-4-4-10 0m34 1c-7 7-1 18 8 16 4-1 9-7 9-10 0-8-10-12-17-6m507 2a10 10 0 1 0 12 17 10 10 0 0 0-12-17m-94 3c-7 6-4 15 5 17 5 0 5 0 9-3 9-10-4-23-14-14m197-1c-9 4-9 17 0 21 5 2 5 2 5-10l-1-12zm-52 3q-9 9-3 15c6 6 17 2 18-6 2-9-9-15-15-9m-386 6q-4 3-5 9c0 8 12 11 17 5 7-8-2-19-12-14m-310 8c-8 9-5 19 7 18 15-1 17-20 2-22q-4-1-9 4m221-1c-7 6-1 17 8 16q10-1 9-10c-2-9-12-12-17-6m294 2c-13 4-12 17 0 19 9 2 17-9 12-15q-5-7-12-4m-464 6c-10 3-12 17-2 21 12 3 21-16 10-21zm125 2c-6 6-3 17 4 17 4 0 11-3 11-4l2-3c3-3 0-10-5-12q-8-3-12 2m173 0a10 10 0 1 0 8 18c10-7 4-22-8-18m-258 6q-4 4-4 8c0 11 18 15 22 4a12 12 0 0 0-8-15q-3-3-10 3m381-2a10 10 0 1 0 12 15c4-8-3-17-12-15m-48 3q-6 7 1 16 5 6 11-1c10-11-1-25-12-15m202 2a9 9 0 0 0 12 13c7-5 3-17-6-17q-3 0-6 4m-487-2c-8 1-11 12-6 17 8 6 20 1 19-8a11 11 0 0 0-13-9m131 0c-13 4-9 22 4 19 4 0 9-7 9-11 0-6-7-10-13-8m114 2a10 10 0 1 0 15 6c-1-8-9-11-15-6m197 0c-6 6-1 16 9 16 8 1 11-12 4-17-3-2-11-1-13 1m94 1a10 10 0 1 0 12 15c4-6 2-15-4-15l-3-1q-1-2-5 1m45 2q-6 3-7 11c0 11 14 16 20 6s-2-21-13-17m-185 13c-9 2-10 13-3 19a10 10 0 0 0 10-1c2 0 6-6 6-9a13 13 0 0 0-10-9zm-312 2q-10 7-3 17c8 7 20 3 20-8q-1-8-7-9l-1-1q-1-2-9 1m85 3a10 10 0 1 0 16 11c5-10-8-19-16-11m190 1q-5 4-4 9c4 11 18 10 18-1q-2-12-14-8m-487 4c-10 7-5 20 8 20 11 0 14-16 3-20q-6-4-11 0m172 3c-6 2-10 12-5 17q6 5 11 3c13-6 8-24-6-20m-122 2c-8 6-6 19 3 20a11 11 0 1 0-3-20m550 3q-10 6-3 14 7 6 16 1c8-8-4-21-13-15m-254 1c-8 6-6 18 4 18q10 0 11-11c0-8-8-12-15-7m212 0q-6 3-7 10c0 8 14 12 20 6 9-7-1-20-13-16m-470 2c-8 6-4 18 6 17q9-1 9-10c0-7-8-11-15-7m353-1q-4 2-5 5l-1 3c-2 1 0 8 4 11 5 3 16-3 16-9q-2-13-14-10m196 3q-8 8-1 16 6 5 13-1 8-10-3-16c-5-3-5-3-9 1m-506-1c-9 3-12 13-5 18a11 11 0 1 0 8-19zm266 0c-9 4-11 13-4 17 9 6 20-6 14-14q-5-4-10-3m333 2q-12 9-1 17 4 4 10 0c3-1 3-1 3-8q1-11-6-11zm-49 3q-9 7-2 13 6 7 12 1c9-8 0-21-10-14m-416 2q-4 0-7 6c-4 7 5 15 13 12 12-6 7-22-6-18m218 10q-7 5-5 12c6 8 18 6 20-4 1-6-8-11-15-8m-263 3q-10 9-4 16c5 6 14 5 19-2 8-12-4-24-15-14m99 3a9 9 0 0 0-5 16c9 8 25-5 16-14-3-3-4-3-11-2m201 7c-9 10 1 23 12 16q10-8 1-16-6-6-13 0m-524-1c-6 2-8 11-4 16 8 9 24 0 19-10q-5-9-15-6m44 1c-10 6-8 18 3 17q9-1 11-9c0-5-10-11-14-8m128 3c-3 1-6 7-6 10 0 6 9 11 15 8q9-6 5-16-5-7-14-2m197 2-1 1-2 4q-5 6 4 11c8 4 17-8 11-14q-5-5-12-2m45 1c-5 4-7 12-2 15 6 5 15 0 15-8 1-8-6-11-13-7m155 1c-12 7-5 25 8 19 11-4 11-15 1-19-5-2-5-2-9 0m-484 0-5 3c-6 9 3 20 12 14 12-7 7-20-7-17m625 0c-7 2-9 10-4 15q6 7 13 1c7-7 0-20-9-16m-581 2c-6 3-7 11-1 16q6 5 10 2c12-7 4-25-9-18m530 0-3 1c-6 0-8 10-2 15 6 6 17 1 17-8q0-6-5-7l-2-1a3 3 0 0 0-5 0m-371 1c-8 2-11 13-4 17 8 5 18-7 12-14q-4-4-8-3m168 0q-4 3-6 9c0 8 11 10 15 3 5-7-1-15-9-12m159 3q-5 3-5 8 5 12 14 8c11-7 3-22-9-16m-368 11c-6 1-9 11-5 16q7 6 16-1c9-9 3-18-11-15m496 2c-3 4-4 12 0 15q4 6 3-8v-9zm-725 5a10 10 0 1 0 15 11c3-6 3-6-2-10q-6-7-13-1m323 0a9 9 0 0 0 11 15q4 0 4-4c6-11-6-19-15-11m149-1c-13 8-5 24 8 17 7-3 7-12 0-17q-5-3-8 0m-283 2q-12 7-7 16 1 2 9 2h8l1-4q5-7-4-12-4-4-7-2m181 6q-4 3-5 9v3h9q14 1 8-8-4-6-12-4m44 1c-4 2-7 9-3 10l9 1h7v-3c0-6-7-10-13-8m-377 3q-10 9 7 8h9v-3c0-8-10-11-16-5m103-1q-4 4-6 9l22-1c0-8-9-12-16-8m-57 4q-9 6 9 5c12 0 12 0 8-5-3-4-12-5-17 0m430-2-3 4-2 3h9q15 1 8-5c-2-3-9-4-12-2m-230 4-3 3h10q15 0 7-4-8-5-14 1m403-1q-6 5 6 4 15 0 5-4-7-4-11 0"
        mask="url(#16282281824-posters-1720558334746-horizontal-mask)" itemprop="light" fill-opacity="0.90"
        fill-rule="evenodd" stroke="none" fill="url(#16282281824-posters-1720558334746-vertical-light)"></path>
      <!---->
      <path id="16282281824-posters-1720558334746-regular"
        d="M239 3q-9 8 2 15c8 5 16-9 9-15q-6-6-11 0m96-2q1 5 4 8c6 5 17 0 17-6V0h-10zm273 2c0 14 19 15 22 1V0h-22zM25 3c-3 1-6 8-4 12 6 10 20 8 19-3Q37 0 25 3m710 1c-10 4-9 17 1 19 9 2 16-6 12-13q-6-10-13-6M570 5q-11 7-2 16 5 6 11-1 9-9-3-16l-2-1zM201 8c-10 4-9 17 1 17 4 0 10-6 10-9q-1-11-11-8M70 9c-7 3-7 15 1 18q4 2 8-2c9-7 2-20-9-16m312 3q-4 3-4 6c0 12 16 12 20 1 3-9-8-14-16-7m139-1c-9 4-7 18 3 18 4 0 12-8 12-11 0-6-8-10-15-7m-44 2q-9 7 2 16 9 6 13-7c1-8-8-13-15-9m-173 1q-6 4-7 10 2 5 9 7c9 1 14-9 8-16q-4-5-10-1m-190 1q-4 3-5 9c0 6 11 10 14 5 6-9-1-19-9-14m317 1q-6 4-6 11c2 7 11 10 16 4 8-8-1-21-10-15m-275 2q-7 8 3 13c5 2 13-5 12-10q-6-10-15-3m528 1q-5 3-6 10c0 10 15 14 19 5 3-8-5-18-13-15m-48 11q-9 7-1 15c7 9 22-2 17-13-3-5-11-6-16-2m-369 0q-10 6-3 14c8 8 22-2 14-11q-5-4-11-3M1 41v9h2q8-2 9-6 2-6-4-11-9-7-7 8m349-7c-3 1-7 7-7 10 0 9 12 13 18 6 7-8 0-20-11-16m247 4q-5 4-8 11c-1 6 8 12 14 8l4-4 2-2 1-4q-1-11-13-9M41 41c-7 7 2 20 11 17 5-2 7-12 4-14l-3-3q-7-5-12 0m182-1c-6 1-8 8-4 13 7 9 23 1 18-9q-5-7-14-4m329 3q-8 4-8 10c0 9 9 12 16 6 7-8 1-20-8-16M87 45c-6 5 1 17 8 15a9 9 0 0 0-1-17zm367 3q-13 7-6 15c9 8 23-1 18-11q-4-8-12-4m287 1c-6 7-2 16 8 16a9 9 0 0 0 4-17q-7-5-12 1m-563 1q-6 8 0 13c9 8 21-4 13-13q-5-6-13 0m-46 0c-12 8-4 22 8 15a9 9 0 1 0-8-15m365 0c-3 3-4 10-3 13 5 8 17 2 17-7 0-7-8-11-14-6m-108 1c-10 7-8 19 3 19 4 0 12-7 12-11 0-8-8-12-15-8m314 3c-5 3-5 14 1 17q6 3 11-1c7-8-3-21-12-16m-395 6c-7 8 5 19 13 11q6-5 0-11t-13 0m354 1q-10 10-3 16 9 7 16-5 3-4-2-9t-11-2M264 73q-9 8 0 15c7 4 16-1 16-7 0-8-10-13-16-8M6 73q-6 4-3 13c5 8 18 6 18-4 0-6-9-12-15-9m55 0a9 9 0 1 0 10 4c-1-2-6-5-7-5zm356 1q-6 5-3 12 6 9 15 2c9-8-1-21-12-14m202 0a9 9 0 0 0-2 17c5 3 6 4 11 1 8-3 8-15 0-19q-3-2-9 1m-277 5c-9 4-7 15 3 17q7 2 10-5c3-8-5-16-13-12m-120 3q-7 6-1 12c5 5 18 1 18-5 0-9-11-13-17-7m351-2-4 4c-8 9 4 21 13 13 8-7 2-21-9-17M97 84c-8 8 0 19 10 15q7-4 6-10a9 9 0 0 0-16-5m380-2c-7 4-8 12-3 16q10 7 14-7c2-7-5-12-11-9m-332 3c-5 2-7 13-4 16 5 5 16-1 16-9q1-6-5-7c-5-2-4-2-7 0m381 0c-6 8-4 17 5 17 7 0 12-10 8-16-3-4-10-4-13-1m240 0q-4 3 0 9l3 3v-7q0-10-3-5m-581 6c-8 4-8 16 2 16a9 9 0 0 0 8-15q-4-5-10-1m546 3a9 9 0 0 0 4 17c4 0 10-4 10-8l-5-9q-4-3-9 0m-433 1c-8 1-10 16-2 19 10 4 19-9 12-17q-4-4-10-2m393 0c-7 1-10 8-6 13 5 7 18 3 18-6a8 8 0 0 0-8-7zm-316 1c-7 3-10 11-5 16q9 8 15-5c3-6-4-14-10-11m-342 6a9 9 0 1 0 13 8c1-6-7-11-13-8m610 3c-7 3-9 12-4 17 6 6 18 0 18-9q-2-13-14-8m-197 1c-9 5-8 19 1 19 6 0 12-7 12-13s-7-9-13-6m152 6c-7 4-9 13-2 17 11 6 21-6 12-15q-3-5-10-2m-350 5c-8 5-4 17 5 17q7 1 10-5c3-10-6-17-15-12m156 2c-8 5-6 16 3 18q7 0 10-7c4-10-4-17-13-11m98 0c-7 3-9 11-3 15q6 5 12-1c8-8 1-19-9-14m-392 3a9 9 0 0 0 5 16c9-3 10-12 2-16q-4-3-7 0m216 2q-5 5-1 11 5 5 8 3l5-1c6-2 6-11 1-15q-6-5-13 2m-260-1c-7 5-3 16 7 18q6 0 9-7c3-8-8-16-16-11m698 1c-5 6-3 15 4 15l1 1q1 1 1-9 1-15-6-7M1 132q-1 14 4 9 9-5 0-17c-4-3-4-3-4 8m203-7a9 9 0 1 0 16 3c-3-7-11-8-16-3m-47 1c-7 3-7 13 1 18 10 7 19-5 11-15q-6-5-12-3m387 0c-6 4-9 12-5 16 9 9 24-6 15-15q-4-4-10-1m171 8c-8 8 0 20 10 16 12-4 10-17-2-19-5 0-5 0-8 3m-50 0q-6 3-6 10c0 11 14 13 19 2 4-8-4-15-13-12m-385 3c-9 4-8 17 2 19q6 1 10-5c6-9-2-19-12-14m83 3c-7 1-12 9-9 14 3 6 14 5 17-2q5-13-8-12m112 3q-7 0-7 11-1 12 12 6c11-5 7-19-5-17m-447 4q-4 2-6 9a10 10 0 1 0 6-9m553 1c-9 6-8 18 3 18 9 0 14-13 6-18q-4-3-9 0m37 2c-9 7-6 18 4 18a10 10 0 1 0-4-18m-183 2c-7 5-4 16 3 16q11-2 12-11c0-6-9-9-15-5m-343 5a9 9 0 1 0 9 16 9 9 0 0 0-9-16m140 1c-9 3-11 15-3 20 12 6 23-12 12-19-4-2-4-2-9-1m84 1c-9 4-10 17-1 19 10 2 17-14 8-19zm447 0q-5 4-6 10 2 6 9 8l3 1v-10q2-15-6-9m-255 5c-7 8 0 17 9 13 8-3 8-11 0-15-5-3-5-3-9 2m-112-2a8 8 0 1 0 7 15 8 8 0 0 0-7-15m-215 3c-8 7 0 20 9 17 11-3 8-20-3-20zm-49-1c-8 5-4 18 6 18s13-9 6-17c-2-2-9-3-12-1m547 11q-9 6-2 14 6 6 13 0c8-8-1-20-11-14m43 0q-9 7-1 13c8 7 18 2 17-7-2-7-11-10-16-6m-459 2q-7 7-4 12c3 8 14 6 18-4 3-8-8-15-14-8m-205 1c-10 9 0 23 12 17 8-5 4-17-6-19q-3-1-6 2m498-1q-12 6-5 15 7 5 15 0c6-8-2-19-10-15m-198 3c-9 8-1 20 9 14 6-4 7-12 1-15q-5-4-10 1m281 3q-8 9-1 14c10 9 21-5 12-14q-5-6-11 0m-168 3c-8 4-8 14-1 16q11 3 15-8c1-7-8-12-14-8m123 3q-10 5-6 14c5 10 16 7 18-5q0-11-12-9m-582 2c-5 2-7 11-3 15 4 5 14 4 16-1 3-8-5-17-13-14m197 2q-8 4-5 11 7 12 16 0c5-7-3-15-11-11m-103 3c-6 3-7 11-3 15 6 5 17 2 17-6 0-7-8-13-14-9m54 1c-11 7-11 20 0 20 6 0 13-8 13-14s-8-9-13-6m271 0q-3 3-4 9c0 5 10 6 14 2q7-7-2-11c-4-2-4-2-8 0m-110 2q-10 6-4 14c5 7 16 2 16-7 0-7-7-11-12-7m199 4c-9 6-7 19 3 19q6 0 10-6c4-9-6-19-13-13m-132 2q-7 8 2 13c9 3 17-8 9-14q-5-5-11 1m374 2c-12 4-10 21 2 20h5v-10q1-12-2-10zm-483 5c-10 4-9 16 2 16 8 0 12-10 6-15q-3-3-8-1m436 2q-7 7 0 15a10 10 0 1 0 0-15m-89 1c-8 1-11 11-7 16 6 6 18 0 18-8 0-4-7-9-11-8m45 1c-6 6-2 20 5 20 6 0 13-10 11-16-1-6-11-8-16-4m-610 0c-2 1-6 8-6 11q1 5 7 8c10 3 21-12 12-19zm500 3c-9 9 1 20 11 13q7-6 1-14-5-6-12 1m-324 4q-8 12 7 14 9-1 10-9c0-8-11-11-17-5m121-2-3 1c-4 0-9 6-9 10 0 9 15 11 19 2 3-6-4-18-7-13m118 1c-9 5-8 16 2 16 7 0 13-10 8-15q-5-4-10-1m-456 8c-9 4-7 17 3 16a8 8 0 1 0-3-16m173 0q-7 3-7 10c0 9 11 13 18 7 7-8-2-22-11-17m-94 5q-9 10 2 15c7 2 15-5 13-11-2-7-10-9-15-4m43 1q-6 6 0 12c6 6 18-1 15-10-2-7-10-8-15-2m291-2a8 8 0 1 0 13 5c0-5-7-8-13-5m-123 6q-6 3-3 10 5 8 13 3c9-7 0-19-10-13m85 1q-9 5-4 14c7 6 20-2 15-10q-4-7-11-4m195 3c-7 4-7 13 0 16q7 4 12-2c8-8-3-20-12-14m-69 2c-8 3-8 13 2 18 8 4 18-10 12-16q-6-6-14-2m218 4c-7 4-9 12-5 16 8 7 19 3 19-9q-2-13-14-7m-92 1c-10 7-3 22 9 18 7-2 9-11 5-15q-7-7-14-3m46 3q-6 5-2 12c5 9 18 4 18-6 0-9-10-12-16-6m-422 2-3 1c-2 0-4 6-2 10 0 3 7 7 10 7q6-1 8-9c0-8-9-14-13-9m-233 4c-5 6-1 15 7 15q9 0 8-8c0-9-10-13-15-7m183 0q-12 8-2 15c5 3 13 0 15-6 1-4-5-11-9-11zm125 5q-5 4-1 10c4 9 17 5 17-5 0-9-10-13-16-5m134 1a9 9 0 0 0 5 17c3 0 9-6 9-9 0-7-8-11-14-8m-403 4c-9 9 4 22 14 13a10 10 0 1 0-14-13m99-1c-5 2-7 13-3 16 6 5 15 0 15-7q-2-11-12-9m-51 5a9 9 0 0 0 13 13q4-3 4-7c0-9-10-12-17-6m432 1c-5 6-3 14 5 16q12 3 12-10a9 9 0 0 0-17-6m-120 0q-8 3-8 9c1 7 10 9 14 4 6-7 2-15-6-13m-51 6a7 7 0 1 0 8 11c9-6 1-17-8-11m223-1-4 4c-6 8 4 17 14 12 11-6 2-21-10-16m-300 2c-5 3-5 12 0 15q14 3 15-10c0-6-9-10-15-5m448 3c-7 6-2 18 7 17q5 1 5-9-1-15-12-8m-238 5q-6 8 1 15c7 8 21-1 15-10q-7-11-16-5m143 0c-3 2-4 9-2 13 4 9 16 7 19-3 1-7-11-14-17-10m49 1-3 4q-4 4 1 10a10 10 0 1 0 2-14m-468 2q-6 4-4 10 5 9 14 2c9-6-1-18-10-12m-222 1q-4 3-5 10a9 9 0 1 0 5-10m326 10q-7 3-6 8c0 8 8 13 14 8 11-8 3-22-8-16m-145 1a9 9 0 1 0 13 13 9 9 0 0 0-13-13m-135 1c-6 1-11 9-9 14 5 9 21 5 21-6a9 9 0 0 0-12-8m216 2q-9 10 0 16 9 3 14-7c5-9-6-16-14-9m201 1c-9 9-2 22 9 17q11-7 4-16-6-7-13-1m-326 2c-6 5-4 16 4 16q10-1 11-10c0-6-10-10-15-6m-47 2q-6 7-1 12a6 6 0 0 0 10 2 8 8 0 1 0-9-14m285 1c-7 2-9 12-4 16q8 6 14-3c4-8-1-15-10-13m40 5-3 6c0 2 6 9 8 9q10-1 12-11c0-8-10-11-17-4m193-1q-8 9 0 16 10 7 16-4c5-12-6-20-16-12m-52 0c-3 2-4 9-2 13 4 8 16 4 16-5q-2-11-14-8m167 5c-8 5-7 17 2 20 6 2 15-5 14-12-2-7-11-11-16-8m-56 3c-6 6-1 17 6 15q10-1 9-9c0-9-10-12-15-6m-149 3c-7 8 7 21 15 13a10 10 0 0 0-15-13m-213 0q-8 2-9 10c0 5 9 10 15 7 11-5 6-20-6-17M0 340q0 12 4 6v-10q-4-8-4 4m243-3q-4 3-3 7c2 10 16 12 20 2 4-9-8-16-17-9m-202 1q-9 3-7 12c4 10 20 7 19-4q-1-11-12-8m156 7q-9 9 2 14c8 3 16-10 10-16q-6-5-12 2m313-2q-7 2-9 7c-4 10 10 16 18 6 5-6-2-16-9-13m-139 2a9 9 0 1 0 12 13c7-8-4-20-12-13m-289 5a9 9 0 1 0 10 1q-5-5-10-1m385 0q-6 5-7 11c0 6 9 10 14 5 10-7 4-21-7-16m-185 1c-9 4-8 17 1 17q11 0 11-11-1-10-12-6m139 1c-3 1-9 7-9 9 0 8 12 14 18 9 11-8 4-22-9-18m188 0c-4 2-7 10-4 14a10 10 0 1 0 4-14m-488 2a9 9 0 0 0 4 17q4 0 7-3c6-8-3-19-11-14m35 1q-6 5-4 9c3 8 13 8 17 0s-6-14-13-9m507 2a10 10 0 1 0 10 15c9-9 0-21-10-15m-94 2q-6 4-5 11c2 6 12 8 16 3 7-8-1-19-11-14m197 1q-5 2-8 6c-2 4 4 14 9 14 2 0 2 0 2-10l-1-11zm-52 1c-8 5-8 17 0 19 10 1 17-11 10-17-2-2-8-3-10-2m-386 7q-5 3-6 9a9 9 0 1 0 6-9m-89 5q-8 7-2 14c7 7 19 3 16-7q-5-11-14-7m-223 4q-4 4-4 8c0 12 19 12 22 0 3-11-10-16-18-8m514 1c-4 0-8 6-8 10 1 6 9 10 16 7 11-6 5-20-8-17m-466 7c-5 3-6 11-3 15 7 7 20 0 18-10-1-6-9-9-15-5m128 1q-4 4-2 10c4 9 19 4 19-5 0-7-13-11-17-5m175 0c-10 3-13 12-5 17q6 4 11-2c8-7 3-18-6-15m-260 6c-7 8-2 17 9 17s12-18 1-20q-6-2-10 3m335 0q-7 5-3 13 8 12 16-2c4-9-5-17-13-11m42 0c-5 6-3 15 4 17 10 1 16-10 9-17q-6-6-13 0m158 2c-7 7 0 19 9 14a9 9 0 1 0-9-14m-491 0q-7 7-1 14a10 10 0 1 0 1-14m131 1q-6 5-3 10c4 9 13 8 18-1s-7-16-15-9m316-1c-6 5-2 14 6 16q4 1 7-3c8-8-4-20-13-13m-198 2a9 9 0 0 0 11 14c4-3 4-13 1-15q-6-4-12 1m291 0a9 9 0 0 0 8 16q5-3 6-10a11 11 0 0 0-14-6m43 4a10 10 0 1 0 15 12c6-11-6-20-15-12m-185 11c-3 1-6 7-6 10 3 10 17 11 20 1q0-14-14-11m-308 1q-6 2-7 10a11 11 0 1 0 7-10m86 2c-8 4-9 14 0 18 10 4 18-11 9-18q-4-4-9 0m189 2c-7 3-7 12 1 16q4 3 8-2c7-7 0-18-9-14m-487 4c-5 2-8 9-6 13 7 10 21 8 21-3 0-7-8-13-15-10m168 5c-8 5-5 17 5 17q8 0 10-9c1-8-8-13-15-8m-117 0c-11 4-10 20 1 20q14-2 11-14c-1-4-8-8-12-6m547 4q-9 6-2 13a9 9 0 1 0 2-13m-253 0c-5 2-7 11-4 15 4 4 13 3 16-2 5-9-2-17-12-13m208 2c-5 5-3 17 3 15l2 1c3 3 11 0 13-4 4-10-11-19-18-12m-467 1c-6 5-4 14 4 16a9 9 0 1 0-4-15m351-1c-6 5-4 15 2 17 10 2 18-13 9-18q-7-3-11 1m197 3-3 6c0 3 5 9 7 9a9 9 0 0 0 5-18q-4-3-9 3m-510 1q-7 7 0 13c6 6 15 1 15-8 0-10-8-12-15-5m268-2c-9 7-2 20 8 15q10-6 4-14-5-6-12-1m337 1q-12 6-4 14c4 3 4 3 8 3q8 0 7-10c0-7 0-7-3-8q-5-2-8 1m-50 3q-7 4-3 10 6 9 15 0 5-6-3-11-4-3-9 1m-414 1-3 1c-5 0-7 8-4 13 5 10 20 1 16-10-1-4-8-7-9-4m-45 12c-7 3-10 13-5 17q11 8 19-6c5-8-4-16-14-11m260 0c-5 4-4 11 2 13 8 5 17-5 11-12q-6-6-13-1m-167 5-3 5c-3 12 12 17 19 7 5-9-6-17-16-12m207 6-4 4a9 9 0 0 0 17 7c5-8-5-17-13-11m-529 3q-5 4-1 10c5 11 23 3 18-8-3-7-12-8-17-2m46-2q-2 0-3 4c-6 11 8 17 15 7 5-7-4-14-12-11m128 3q-7 7-1 14c8 8 22-4 15-13q-6-6-14-1m199 2q-3 1-1 3 2 1-1 1-6 3-1 8c6 6 15 2 15-6 0-6-7-10-12-6m46 0q-9 6-4 14 5 6 12 0c7-8 1-19-8-14m155 1c-6 2-10 11-7 15 5 8 21 3 21-6a13 13 0 0 0-10-9zm-489 3c-7 7 0 18 9 14 3-1 7-7 7-10 0-7-10-10-16-4m624 0q-6 6-1 11c7 7 19 2 16-7q-4-12-15-4m-578 1c-9 7 1 20 11 14a9 9 0 1 0-11-14m528-1a9 9 0 0 0 5 17q9-3 10-9c0-6-8-10-15-8m-373 4q-7 9 2 13c8 3 15-8 10-14q-5-6-12 1m171-1q-6 6-1 11c7 6 18-4 12-11q-5-6-11 0m162 1q-9 4-2 12a8 8 0 1 0 2-12m-372 13q-9 11 3 14c7 2 17-6 14-11-3-7-12-8-17-3m500 0q-6 8 0 15 2 3 2-8 1-13-2-7m-725 3-3 5q-3 7 3 11l4 1c4 2 11-4 11-10s-10-10-15-7m323 1c-8 5-6 16 4 16 9 0 15-10 9-16-2-2-10-3-13 0m148-1q-4 4-6 10-1 3 2 5a9 9 0 1 0 4-15m-283 3q-11 6-7 14c3 4 14 4 17 1 6-7-3-18-10-15m179 8q-10 10 5 9 16 1 7-9-5-6-12 0m-329 0q-3 2-4 6l-1 3h10l9-1c0-8-9-12-14-8m374 0q-3 3-3 5l1 4h15v-3c0-7-8-10-13-6m-272 1c-3 1-6 6-6 7l10 1c10 0 10 0 10-2 0-6-8-10-14-6m-55 1-4 4-1 3h11q16 1 7-5-4-5-13-2m428 0-4 4-1 3h9q14 1 6-5-3-5-10-2m-230 4-3 3h9q14 0 6-4-5-5-12 1m403 0q-5 4 5 3 9 0 7-1c-1-4-10-5-12-2"
        mask="url(#16282281824-posters-1720558334746-radial-mask)" itemprop="regular" fill-opacity="0.90"
        fill-rule="evenodd" stroke="none" fill="url(#16282281824-posters-1720558334746-horizontal-regular)"></path>
      <!---->
      <path id="16282281824-posters-1720558334746-medium"
        d="M242 2q-10 6-3 13 10 7 13-4 2-5-3-8c-4-3-3-3-7-1m95 1c1 10 16 10 19 0V0h-20zm272-2q-1 5 3 9c5 6 17 2 17-6V0h-10zM26 3c-6 3-6 12 0 16 8 5 17-3 12-11-1-2-8-6-9-6zm707 2c-9 5-4 18 6 18a9 9 0 0 0 6-16q-6-7-12-2M571 5c-9 1-7 18 2 18 3 0 9-5 10-9 0-4-5-11-9-10zm-374 6q-6 8-1 11c6 4 15 0 15-6q-2-13-14-5M68 12c-7 6 0 18 9 14 7-3 7-15 1-16q-6-2-10 2m317-1q-9 4-4 13c4 5 15 2 16-5q2-12-12-8m137 0c-9 4-8 15 1 17 4 2 12-5 12-11 0-4-7-8-13-6m-45 3c-6 4-3 12 5 15q10 3 9-11c-1-5-10-8-14-4m-175 3q-9 9 1 12a9 9 0 0 0 11-13q-4-6-12 1m-188-1c-5 4-4 16 1 14h3q2 2 5-1c6-9-1-19-9-13m318 0q-11 8-3 17c6 3 14-2 14-8q-1-13-11-9m-276 2c-7 8 4 17 11 10q5-4 1-10c-2-3-9-3-12 0m526 3q-4 5-3 12c3 5 12 7 16 3 7-8-5-22-13-15m-46 10q-6 6-4 8l1 2c-1 6 10 9 15 4a9 9 0 0 0-12-14m-369 0c-5 2-7 11-2 14 9 5 19-4 13-12q-4-3-11-2M0 41v8h4c9-2 11-11 3-15q-8-7-7 7m348-5c-6 4-6 13 0 16 9 4 18-3 15-12q-4-10-15-4m249 3c-5 3-9 11-6 15q6 6 13 2c10-8 4-22-7-17M43 40c-3 1-5 7-3 10q6 12 15 5c6-7-3-19-12-15m181 0q-13 8-1 15c8 4 17-4 13-11-1-2-7-5-8-5zm328 4q-8 2-7 9a8 8 0 0 0 16 3c4-9-1-16-9-12M87 46c-6 7 5 19 12 12q7-8-1-14-6-3-11 2m365 3q-4 2-5 6-2 6 2 8c8 7 21-1 17-10q-4-9-14-4m290 1q-7 8 2 13c10 6 18-5 11-13q-6-6-13 0m-563 0q-8 8 1 14 5 4 10-1c8-9-2-20-11-13m319 1c-6 7-4 15 3 15 8 0 13-11 7-16q-5-5-10 1m-366-1c-5 3-7 12-3 15 2 2 9 1 12-1q5-4 2-5l-3-1 3-1q5 1 0-5-5-5-11-2m257 2c-9 7-7 17 2 17s16-11 10-16q-6-5-12-1m313 4c-3 2-3 10 0 13 5 5 15 1 15-5 0-8-9-12-15-8m-392 3q-8 8 1 14a8 8 0 1 0-1-14m352 3q-9 7-3 14 9 7 14-2c5-10-2-17-11-12M265 73c-9 6-5 17 6 16a8 8 0 0 0 3-16c-5-2-5-2-9 0M6 74c-6 4-4 14 4 16a8 8 0 0 0 6-15q-7-3-10-1m54 0c-7 4-7 12 0 15q4 5 8-1c8-7 1-18-8-14m357 1q-7 6-1 14 8 5 14-3c6-9-4-17-13-11m202 0c-7 3-8 12-1 16q6 4 10 0c12-6 3-22-9-16m-277 4c-6 2-7 10-2 14 7 6 16 2 15-8-1-5-8-8-13-6m-120 3c-9 8 3 19 13 12 6-4 3-12-4-14-5-1-4-1-9 2m353-2a9 9 0 0 0-5 16c6 7 15 2 15-8 0-3-5-9-7-9zM97 85q-8 12 7 14 7-1 9-9c0-7-11-11-16-5m377 1q-6 7 0 11 8 7 12-2c6-10-5-18-12-9m55-2q-5 3-6 10c1 9 11 10 15 3 5-8-1-16-9-13m-385 2c-8 8-3 20 6 15 9-4 9-13 2-16q-6-2-8 1m40 6q-5 4-4 10c3 8 18 3 18-5l-3-4q-4-6-11-1m546 3c-6 4-6 12 1 15 6 3 14-3 13-9q-3-11-14-6m-436 3q-6 7-1 13c4 5 14 3 16-3 4-10-7-18-15-10m395-2c-9 4-6 15 4 15 7 0 13-9 8-13-2-2-9-3-12-2m-318 3q-6 6 0 13 5 6 11-1c8-9-2-20-11-12m-339 4q-5 2-4 8c-1 7 8 11 14 5 8-7 0-19-10-13m611 2c-3 1-6 7-6 10 0 10 11 12 18 3 6-7-3-17-12-13m-196 1q-11 7-4 16c4 3 4 4 8 2 8-4 10-14 4-17-4-2-4-2-8-1m151 7c-6 2-8 15-3 15l3 2c3 3 13-3 13-9s-7-10-13-8m-350 5q-6 6-1 12a9 9 0 1 0 1-12m158 1q-13 9-1 17c9 3 16-10 10-16q-4-5-9-1m95 0q-9 6-2 14 6 5 12-1c7-8 0-17-10-13m-173 4a8 8 0 0 0 7 14 8 8 0 1 0-7-14m-220 1c-9 8 3 19 12 11 5-5 0-14-8-14zM0 131q0 15 5 9 8-4 0-14-6-10-5 5m66-7q-8 7 0 13c7 8 20 1 16-8-3-6-13-9-16-5m139 1c-6 5-3 15 6 15a9 9 0 1 0-6-15m560 0c-5 5-3 13 2 13q3 1 2-8 1-12-4-5m-220 1q-10 8-4 17 4 5 10 0c10-7 4-22-6-17m-388 1c-10 6 0 23 10 17q9-5 1-15-5-5-11-2m559 6q-8 6-1 14c8 8 23-2 15-12-2-3-10-4-14-2m-52 3c-6 4-6 15 0 16 2 1 10 0 10-1 9-11 1-22-10-15m-384 1q-8 5-4 14 6 9 15 0c7-8 0-18-11-14m80 4c-9 5-8 16 1 16q10 0 11-11c0-5-7-8-12-5m111 5c-5 4-4 16 2 16q6-1 11-5a9 9 0 0 0-13-11m-443 2c-3 1-6 7-6 10 0 7 12 11 17 6 9-8 0-20-11-16m554 0-4 4a8 8 0 0 0 12 11c7-7 1-19-8-15m35 4c-9 9 1 21 11 14 5-4 6-12 1-16q-6-3-12 2m-179-1c-6 2-9 10-5 14 6 5 16 0 16-7q-1-9-11-7m-348 8q-6 6 1 12c8 8 18-4 11-12q-5-6-12 0m141 0c-6 2-8 13-4 17 4 3 12 2 15-2 7-9 0-19-11-15m534 0q-7 4-7 10 3 7 8 8h3v-19zm-450 1q-5 5-5 11 3 11 13 3c8-7 1-19-8-14m193 4c-7 8 3 18 11 11q8-7-3-13-5-3-8 2m-326 0q-8 7 1 16 10 5 14-6c0-4 0-4-4-8q-5-7-11-2m211 1c-7 7 5 17 12 9q6-4 0-9-6-6-12 0m-259-1a9 9 0 0 0 4 18c3 0 9-3 9-6 1-3-3-10-6-12zm546 10-4 4c-5 9 6 18 13 10 7-6 0-18-9-14m44 0q-11 7-1 15c8 5 17-1 14-9q-5-9-13-6m-461 4c-7 7-5 15 4 15 3 0 10-7 10-11 0-7-9-10-14-4m-205 1q-7 7-1 13c6 8 19 2 16-7a9 9 0 0 0-15-6m301 1a8 8 0 1 0 10 12c8-8-2-19-10-12m193 0q-3 2-3 6c0 8 11 11 16 5 8-9-4-19-13-11m88 3q-8 6-1 14 5 6 10 0c9-7 0-21-9-14m-170 3q-5 5-4 11c3 8 16 6 18-3 1-7-7-12-14-8m123 5c-9 4-6 17 4 17 6 0 11-11 7-16q-5-4-11-1M9 194c-6 9 5 20 13 13q6-6 0-14c-3-3-10-3-13 1m200 0a8 8 0 1 0 9 12c7-8 0-17-9-12m-104 3a9 9 0 1 0 14 8c0-8-8-13-14-8m51 3q-7 7-2 13c6 8 20-2 18-11q-4-11-16-2m277-3a7 7 0 1 0 8 11c5-5-1-14-8-11m-115 4q-6 6-1 12c6 6 17 0 15-9q-3-10-14-3m203 1c-8 3-9 16-2 19a10 10 0 1 0 5-20zm-130 2c-9 5-6 16 4 13q6-2 7-8c0-4-7-8-11-5m369 5a9 9 0 0 0 4 17h5v-9q2-15-9-8m-483 5q-5 3-5 8l3 3c6 7 17 0 14-9-1-4-8-5-12-2m441-1c-8 2-8 12 0 17 9 4 16-7 10-14q-4-4-10-3m-44 2c-10 4-6 23 5 20 5-2 9-11 7-16-1-4-8-6-12-4m-611 1c-6 3-9 11-5 16 6 6 16 2 19-7 2-7-6-12-14-9m502 0q-11 6-5 15c6 7 17 0 15-10q-3-6-10-5m59 0c-6 2-9 10-5 14 7 6 17 2 17-7 0-5-7-9-12-7m-386 7q-6 6-2 11c6 6 17 2 17-6s-9-11-15-5m119-1-2 1a9 9 0 0 0-7 14c8 7 21-1 17-10-2-4-8-8-8-5m118 1c-8 5-4 17 5 14 7-2 10-12 3-15q-3-2-8 1m-456 8q-6 4-2 12c4 5 14 1 14-6q-1-8-12-6m173 1q-6 2-5 8a9 9 0 1 0 5-8m-93 3c-9 10 3 20 13 11a8 8 0 1 0-13-11m44 0c-7 7-2 16 7 14a8 8 0 0 0-1-16q-4 0-6 2m293-1q-6 0-5 10a7 7 0 1 0 14-7l-3-3zm-126 7a8 8 0 1 0 10 11 8 8 0 0 0-10-11m85 1q-8 3-5 9 4 9 13 4c8-6 1-18-8-13m193 4q-5 5-2 8 2 0 1 2c-1 3 7 6 12 4q5-3 6-9l-4-4q-6-7-13-1m-68 1a9 9 0 1 0 13 13c8-9-3-19-13-13m219 3a10 10 0 1 0 13 8q-1-14-13-8m-90 1c-8 3-8 14-2 17a10 10 0 1 0 2-17m45 3q-6 5-3 11c4 9 19 4 18-6q-4-11-15-5m-424 2c-5 3-7 14-2 14l4 2c5 4 13-3 11-10q-4-10-13-6m-230 3c-7 6-3 15 6 15q7 0 7-7c0-7-9-13-13-8m180 2q-8 8-1 14c9 5 18-7 12-14q-4-4-11 0m130 1c-6 3-8 11-3 16 6 6 17-3 14-11q-3-8-11-5m134 4c-7 1-12 9-8 13 5 5 14 4 17-2 2-6-4-12-9-11m-404 1c-9 5-7 18 3 18a9 9 0 1 0-3-18m95 3c-6 8-4 16 5 16a8 8 0 1 0-5-16m-47 2q-5 5-6 11a10 10 0 0 0 20-4c1-5-9-9-14-7m431 1q-9 8-1 15c6 6 16 3 16-6s-9-14-15-9m-124 3c-9 5-6 15 3 15 2 0 8-6 8-9 0-5-7-8-11-6m-48 4q-7 4-3 11c7 6 17-2 12-9q-3-5-9-2m-76 2c-5 2-7 11-3 13 7 5 15 1 15-7q-1-11-12-6m296 0c-9 7 2 19 13 13 3-2 5-10 2-10l-2-2c-1-3-9-4-13-1m154 2-4 3c-7 6 1 17 9 14 5-2 4-14 0-16l-3-2zm-242 8q-6 9 4 15c5 3 13-2 13-8 0-8-12-13-17-7m144-1c-5 2-4 12 1 16 8 5 18-5 12-13q-6-7-13-3m48 1-2 3-2 2c-2 5 4 11 10 11s10-10 6-15c-3-4-11-4-12-1m-467 1c-8 5-6 14 3 14q8-1 9-8-2-6-8-8zm-224 3q-3 3-3 9c1 6 12 7 15 1 4-7-7-16-12-10m327 8q-6 2-5 7c0 11 9 14 16 5 6-7-2-16-11-12m-144 1c-7 7 2 19 10 13q6-6 1-12t-11-1m83 1q-6 5-7 12c2 9 17 7 19-3 1-6-6-12-12-9m-221 1c-11 6-7 21 5 17 8-2 11-12 5-16q-5-3-10-1m418 4q-7 11 4 14a9 9 0 1 0-4-15m-323 1c-5 2-6 11-2 14 3 3 11 1 13-4 3-8-4-14-11-10m-48 2q-7 7-1 12 7 6 14-3c4-7-6-15-13-9m282 3c-7 5-5 16 3 16 4 0 10-6 10-10 0-6-8-10-13-6m46 0c-5 2-8 9-5 13 6 7 17 3 17-6q-1-9-12-7m194 0c-9 4-11 16-3 19q14 4 15-12c0-5-8-9-12-7m-55 2c-8 3-5 17 4 17 8 0 11-12 3-16q-4-3-7-1m168 5c-8 2-10 14-4 18 7 4 15 0 16-8 1-6-6-12-12-10m-58 3c-7 6-3 16 6 14 8-1 11-9 5-14q-5-6-11 0m-149 3c-4 5 0 13 7 15 8 1 11-8 5-14q-7-7-12-1m-217 1c-8 5-6 15 4 17 8 1 14-9 8-15-2-3-9-3-12-2M0 341q0 11 3 5t0-11q-3-6-3 6m245-4q-7 6-1 12c7 8 21-2 14-11q-7-7-13-1m-206 2c-6 2-7 10-2 14 7 5 17 0 16-8q-2-9-14-6m159 5a8 8 0 1 0 11 9l2-5-2-3q-6-6-11-1m176 0c-6 2-9 10-5 15 3 3 11 2 14-1 5-7-1-16-9-14m132 1q-8 5-3 14c8 7 22-5 15-13q-4-6-12-1m-427 6a9 9 0 1 0 15 7c0-8-9-12-15-7m388 0c-9 4-8 17 1 17s14-11 9-17q-3-4-10 0m-185 0c-7 4-8 14-1 16q6 1 11-4c5-7-1-15-10-12m329 2q-7 0-6 9 0 5 4 6a9 9 0 1 0 2-15m-190 0a9 9 0 0 0 1 18c7 2 14-5 12-12-1-5-8-9-13-6m-301 2q-5 4-4 10a9 9 0 1 0 4-10m35 1c-6 6-1 16 7 13 3 0 8-6 8-8 0-6-10-10-15-5m507 2c-8 5-4 16 5 16q10 0 9-10-3-11-14-6m-94 2c-6 4-4 17 3 15h2q4 2 9-4c4-8-6-16-14-11m195 2c-6 4-6 12 0 16 6 3 6 3 6-8q1-15-6-8m-51 1c-7 8-4 17 6 16q8-1 8-10c0-7-9-11-14-6m-385 6-2 3-2 2q-2 2 1 8c3 3 12 2 14-2 5-7-3-14-11-11m-307 5c-6 3-9 13-5 17 7 6 19 0 19-9 0-6-8-11-14-8m219 0c-4 2-6 9-2 13a9 9 0 1 0 2-13m291 5q-12 7-6 13c7 6 19 3 19-6 0-7-7-10-13-7m-465 6q-8 7-4 14 7 8 15-1c7-8-2-19-11-13m128 1q-5 6-1 13c3 3 12 1 15-4 5-9-7-16-14-9m169 3q-7 7-1 12 8 8 15-3c5-10-6-16-14-9m-252 1q-5 3-6 9c0 10 16 13 20 4 3-8-6-17-14-13m379 0c-6 2-9 12-5 15 9 8 20-1 15-11q-5-5-8-5zm-47 2q-8 6 0 15 4 6 9-1c9-9 2-20-9-14m201 2c-6 5-4 13 4 15 4 0 10-5 10-9 0-7-9-10-14-6m-489-1c-9 3-8 14 1 17 10 3 16-9 8-16-4-2-4-2-9-1m131 0c-7 3-8 11-3 15q6 6 11 0c9-8 2-19-8-15m119 1c-7 2-9 10-5 15 6 6 15 2 15-7q-1-10-10-8m194 1a8 8 0 1 0 13 0c-3-2-11-3-13 0m91 3c-6 6-2 14 6 14a8 8 0 0 0 3-16q-6-2-9 2m47 0c-6 3-8 13-3 18a8 8 0 0 0 12 0c4 0 7-11 3-15q-4-4-12-3m-493 14-6 3c-8 8 2 20 13 15 10-5 4-20-7-18m303 1q-4 5 0 12c5 7 16 3 16-6 0-7-10-11-16-6m-219 1-4 4c-6 10 5 19 13 11s2-19-9-15m189 3-3 2c-6 7 5 17 12 11 6-6-1-16-9-13m-489 5c-7 7-3 17 7 17 9 0 13-11 6-17-3-3-11-3-13 0m172 2a9 9 0 0 0 3 17c9 0 13-9 6-15q-3-4-9-2m-121 2c-5 3-6 11-3 15a10 10 0 1 0 3-15m298 3a9 9 0 0 0-4 15q9 6 15-5c1-4 1-4-2-8q-3-4-9-2m250 1q-6 6-1 11c6 6 16 3 16-5 0-7-10-11-15-6m-43 2c-5 4-4 13 2 13l3 1c2 4 12-1 12-7 0-9-10-13-17-7m-466-1q-5 4-5 10c1 6 12 8 15 3 5-6-3-16-10-13m352 0c-9 1-7 18 2 18q8-1 9-13-2-6-11-5m-313 3c-9 5-7 17 2 17 10 0 14-13 6-18-4-1-3-1-8 1m267 0c-8 4-8 14 0 15 9 2 15-10 8-15q-4-3-8 0m242-1q-6 6-3 11c3 7 12 7 15 0s-6-15-12-11m90 4c-8 8 1 18 12 13 3-2 3-13 0-15q-6-3-12 2m-47 1c-7 5-4 14 4 14s11-8 6-13q-4-6-10-1m-415 2a8 8 0 0 0-2 16c5 2 12-3 12-9q0-9-10-7m-40 10c-13 3-15 19-3 21 9 1 16-9 13-17q-3-5-10-4m257 1c-8 5-3 15 7 14a8 8 0 1 0-7-14m-165 5q-5 1-5 7a9 9 0 0 0 16 6c7-8 1-16-11-13m203 7q-7 9 1 15c8 4 18-7 12-14q-6-7-13-1m-524-1a9 9 0 1 0 7 17 9 9 0 0 0-7-17m40 4c-4 5-2 12 5 12q13-1 8-13c-2-3-10-3-13 1m132-1q-5 3-5 9c0 9 11 12 16 4 4-5 2-12-3-13zm197 3v4h-2c-5 1-2 9 4 10 4 2 10-3 10-8s-8-9-12-6m45 1q-7 7-3 13 6 5 11-1c7-7 0-17-8-12m-329 1q-8 4-6 13c4 7 17 2 17-7q-2-8-11-6m483 0-1 3q0 2-1 1c-3-2-4 9-1 11 7 7 20 0 18-9-2-5-10-8-15-6m140 1q-9 4-3 11c5 7 14 5 14-4q-1-12-11-7m-582 3q-6 7 3 13a9 9 0 1 0-3-13m160-1q-6 4-7 10c0 4 8 7 12 5 8-6 3-19-5-15m169 0q-6 5-4 11 4 6 10 2c8-6 3-17-6-13m198 2q-6 7 3 13c5 2 13-3 13-9 0-7-10-10-16-4m-39 1c-7 3-3 15 6 15q6-2 7-8-1-10-13-7m-371 13c-8 9 2 19 12 12q8-6 2-13-6-5-14 1m499 3q-3 6 1 11 3 3 2-7 0-13-3-4m-723 0q-4 3-5 9a7 7 0 0 0 7 7q2 3 8-2 6-7 1-12-6-4-11-2m322 2c-6 5-5 13 3 15q7 0 11-6c4-9-6-16-14-9m146 0c-8 7-2 18 7 15q8-3 7-10-5-11-14-5m-284 3q-7 5-3 12c2 5 13 5 16 0q5-6-1-11-5-6-12-1m185 5q-5 3-5 8c0 3 15 3 16 0q1-6-5-9c-4-1-3-1-6 1m-332 2-4 5v3h8c9 0 9 0 9-3 0-6-8-9-13-5m104-1q-6 2-7 8l10 1c9 0 9 0 8-2q-1-6-4-7zm270 1q-8 7 6 8 9 1 6-6-5-8-12-2m-327 2-4 5 10 1h10l-2-3q-4-6-14-3m426 2q-6 5 6 4 12 1 6-4-5-6-12 0m-225-1-3 3-2 2h17l-2-2q-4-4-10-3m400 3-2 2h7q14-1 1-4-4-1-6 2"
        mask="url(#16282281824-posters-1720558334746-vertical-mask)" itemprop="medium" fill-opacity="0.90"
        fill-rule="evenodd" stroke="none" fill="url(#16282281824-posters-1720558334746-vertical-medium)"></path>
      <!---->
      <path id="16282281824-posters-1720558334746-bold"
        d="M338 3c1 7 9 9 15 4q8-7-7-7h-9zm272-2c-1 2 0 8 2 10h12q4-3 5-9c0-3-18-3-19-1M240 4q-4 5-3 7a8 8 0 1 0 3-8M27 5q-5 2-5 8c0 6 10 11 14 6 6-6-1-17-9-14m705 3q-5 3-2 10 0 3 7 5c7 2 14-5 11-11q-7-11-16-4M568 8q-6 6 0 11 5 7 9 1 7-7 3-12-7-6-12 0m-368 2c-7 5-7 12 0 13q13-1 9-11-3-6-9-2M68 13l-3 5 3 5a8 8 0 1 0 0-10m316-1q-8 4-3 11c5 6 16 2 16-6 0-6-7-9-13-5m137 1c-7 3-6 13 1 15 6 1 14-8 12-12q-4-7-13-3m-45 2q-5 6 1 11 13 9 14-7c0-5-11-8-15-4m-174 2q-8 11 4 12 9 1 9-9c0-7-7-8-13-3m-188 0c-5 4-4 12 1 12l3 1q5 0 6-8-1-11-10-5m318 0q-3 1-1 2t-1 1c-5-2-5 10 0 12a9 9 0 0 0 11-14q-4-4-9-1m-274 0c-5 4-4 11 1 13 7 2 13-7 8-12q-4-3-9-1m527 3c-9 5-7 16 2 18 9 1 12-9 5-16q-4-5-7-2m-41 9h-3a9 9 0 0 0-7 12c-1 2 4 6 7 6 8 0 14-9 9-15q-4-4-6-3m-375 3q-11 3-4 12 5 5 12-1a5 5 0 0 0 1-8q-1-3-5-4zM0 41l1 8c9 0 14-11 6-15q-8-5-7 7m349-5c-5 3-6 11-2 14q7 4 13-1c8-7-1-18-11-13m245 7-4 7c-1 3 5 7 9 7 5 0 10-6 10-10 0-9-9-11-15-4M43 41q-5 3-3 9 9 12 15 4c4-7-4-16-12-13m181 0c-7 2-8 10-1 13q6 5 12-3c5-6-2-12-11-10M88 46c-4 4 0 14 5 14s10-7 8-11c-2-5-9-7-13-3m460 1c-6 6-2 15 6 14q5-1 8-8c3-8-7-13-14-6m197 1-4 4-2 3 2 4c4 8 16 6 16-3 0-5-8-10-12-8m-566 3q-7 8 2 13c7 4 15-8 9-14q-6-5-11 1m272-1c-9 6-2 19 8 15a8 8 0 1 0-8-15m47 1c-3 4-4 11-1 13q5 4 10-1c8-8 0-19-9-12m-368 2c-5 5-2 13 4 13s11-5 7-7q-5-4 1-3 5 2 1-3-6-6-13 0m260-1c-6 4-8 12-4 15q8 5 15-4c6-8-3-16-11-11m314 4a8 8 0 1 0 8 0q-5-3-8 0m-395 4c-4 5-2 12 5 13q4 1 6-3c7-7-3-17-11-10m351 5q-5 6-1 7l1 3c0 6 10 4 13-2q4-6 0-9-6-6-13 1m-393 8c-8 3-8 14 1 16 5 1 12-5 11-10-1-4-8-8-12-6m151 3c-5 4-5 12 1 14 10 2 17-10 9-15q-6-4-10 1m203-1q-12 7-4 14c6 6 15 2 16-6 1-7-6-12-12-8M5 75c-6 8 4 19 12 13 3-2 4-8 2-10-4-4-12-5-14-3m54 1q-7 8 1 12 5 4 10-2c6-6-4-16-11-10m282 4c-7 5-3 15 6 15q7 0 7-7c0-7-8-12-13-8m-117 1q-7 5-3 11c5 7 18 2 16-5-1-5-8-8-13-6m350 0a9 9 0 0 0 2 17q9 1 8-9-1-11-10-8M98 84q-6 9 1 13a8 8 0 1 0 0-13m377 2-4 5a7 7 0 0 0 5 8q1 3 7-2c4-4 4-11 1-13q-5-4-9 2m52 0c-7 4-5 15 3 15q8-2 9-11c0-5-7-7-12-4m-384 1c-4 4-4 13 0 15 8 2 16-10 10-15q-6-4-10 0m40 6q-6 6-1 12c4 3 14-2 14-7 0-6-8-9-13-5m546 3q-5 5-3 10c5 8 19 3 16-6q-5-9-13-4m-436 4q-6 4-1 10 5 7 14 0c3-2 3-9 0-12q-6-6-13 2m82-3c-6 1-9 9-6 14 6 7 17-1 13-10 0-3-5-5-7-4m310 2q-6 9 8 11c6-1 5-1 7-5 4-8-9-13-15-6m-655 5c-5 6-3 14 5 14 7 0 11-9 7-14q-6-5-12 0m610 4q-6 6-2 11c4 8 18 2 17-7a8 8 0 0 0-15-4m-193-1c-5 1-10 13-6 13l2 2c2 6 14-3 14-9a6 6 0 0 0-6-6zm149 8c-7 4-4 15 3 13l2 1q-1 3 5-2c8-8-1-18-10-12m-349 4c-5 4-3 14 4 14q12-1 10-11-5-10-14-3m159 0c-8 3-9 14-2 16q6 2 10-4c5-7-1-15-8-12m93 2c-6 6-4 13 5 13 6 0 11-9 6-13q-5-4-11 0m-171 1-1 2-1 1-2 1-1 4q0 6 9 7 9-1 8-7-1-12-12-8m-262 2c-7 5-2 16 7 16 8 0 10-10 3-15q-6-6-10-1m41 1q-7 11 4 12 9 0 9-8c-1-8-9-10-13-4m657 0q-6 6 0 11l4 3q1 2 1-8 1-13-5-6M1 132q0 11 2 9l2-1 3-2q3-6-4-13l-3-2zm204-6c-7 6 0 17 9 13q7-3 5-11-6-8-14-2m341 1c-7 2-9 13-5 16 6 3 14-2 14-9q-1-10-9-7m-391 3q-5 9 5 14 12 2 11-9a9 9 0 0 0-16-5m560 5c-6 5-2 14 7 14a8 8 0 0 0 6-15c-3-2-11-1-13 1m-49 1q-9 4-4 14a9 9 0 0 0 13-13q-3-4-9-1m-385 2q-6 4-6 10c2 11 18 7 18-3a8 8 0 0 0-12-7m77 5q-7 6-1 12c6 6 19-4 14-12-2-3-9-3-13 0m114 2c-6 4-5 16 2 16 5 0 12-5 12-9 0-6-9-10-14-7m-446 4-4 9q0 2 5 6c10 7 20-8 11-15zm553 3q-6 6 0 11c5 4 13 0 13-7 0-8-7-11-13-4m38 1c-6 6-3 14 5 14s14-10 8-15q-7-5-13 1m-181 0c-3 1-5 8-3 11 4 5 16 0 16-7 0-5-7-7-13-4m-346 6a8 8 0 1 0 12 11 8 8 0 0 0-12-11m140 1c-5 4-6 12-3 15 6 5 17 1 17-7 0-7-9-12-14-8m86 0q-8 5-5 15l3 1c9 3 16-10 9-15q-4-3-7-1m446 2c-6 5-3 13 4 15h3v-9q1-14-7-6m-367 3a7 7 0 1 0 8-1q-5-4-8 1m112 1q-5 5 3 10c5 3 14-3 11-9q-6-9-14-1m-324-2c-5 2-6 10-1 14 9 8 19-3 11-11q-5-6-10-3m-50 1q-7 6-1 14c5 5 16 0 15-5l-1-4c0-4-9-8-13-5m545 11c-4 4-3 12 2 14q5 2 10-3c6-7-4-17-12-11m44 1q-7 8 4 13 11 1 11-8a9 9 0 0 0-15-5m-458 0c-5 4-6 11-3 13 6 6 18-3 15-11-2-3-9-4-12-2m-206 2c-7 6-2 17 7 16q8-1 7-8c0-8-9-13-14-8m498-1q-9 5-5 12c6 8 19 2 16-8q-5-6-11-4m-197 3q-6 6-3 11c6 6 19-2 14-9q-4-8-11-2m280 3c-6 5-1 16 6 15 6-2 10-11 5-15q-5-4-11 0m-168 3q-5 5-5 9c0 5 11 7 15 3 7-8-2-18-10-12m120 6c-6 6-2 14 6 14q6-1 8-9c1-8-8-11-14-5m-579-1-2 3-1 1a8 8 0 0 0 15 8c3-7-6-16-12-12m196 3a7 7 0 1 0 11 9c5-8-4-15-11-9m-104 3q-4 6 0 12c4 4 13 2 14-3 1-9-8-15-14-9m57 0c-11 5-11 17 0 17 7 0 13-9 9-15a6 6 0 0 0-9-2m270 1q-5 5-1 9c2 2 9 2 11-1 6-6-3-13-10-8m-112 3q-6 6-1 11c5 5 14 0 14-7s-8-10-13-4m199 4c-6 8-2 16 7 14 10-2 9-18-1-18q-3 0-6 4m-127-2c-6 4-6 11 0 13 8 2 14-9 6-13zm368 6q-5 5-5 9 3 7 8 7c7 0 7 0 7-10v-8h-4zm-483 5c-5 5-2 13 5 12q8-2 8-8c0-6-8-8-13-4m440 1c-6 5-2 14 6 13q7 1 7-5c2-9-7-15-13-8m-42 0c-6 4-6 15 0 18 5 3 12-4 12-11 0-6-7-10-12-7m-612 1c-4 2-7 9-4 13 4 7 14 5 18-4q2-4-1-7-5-5-13-2m500 2c-7 6-3 17 6 14 6-2 9-10 4-14q-4-6-10 0m59 0c-7 8 1 17 11 11q4-1 3-6c0-8-8-11-14-5m-382 4c-6 5-4 12 3 13q10 0 10-8c0-7-8-10-13-5m118 0h-2a8 8 0 0 0-6 13q10 6 15-2c3-6-3-15-7-11m117 2c-5 5-3 12 4 12q8 0 8-8-1-11-12-4m-282 7q-9 6-2 14a9 9 0 1 0 2-14m-174 1c-4 4-1 12 4 12q8-1 8-6c1-7-8-11-12-6m81 4q-6 6-1 10c6 5 17 0 16-7-2-7-10-9-15-3m45-2c-8 5-1 18 8 13 6-4 6-12-1-14q-4-2-7 1m289 1c-5 3-2 11 5 11q4 0 6-4c3-7-5-12-11-7m-122 5q-5 3-2 8 4 9 11 2 6-5 0-9-4-5-9-1m85 1q-10 5-4 12c5 4 14 1 14-5s-6-9-10-7m192 4q-4 5 0 8v2q0 3 2 2 4-1 1 1-1 1 3 1c4 0 10-4 10-8 0-7-10-11-16-6m-66 1c-9 4-6 16 4 16a9 9 0 1 0-4-16m218 4c-8 4-8 13-1 17 6 3 13-3 13-11q-1-11-12-6m-94 2c-8 8 1 19 11 14q6-1 4-9c0-6-10-10-15-5m-373 3-2 1-2 1-2 4-1 4 1 2 2 1 2 1c0 4 8 3 10-1 4-7-1-15-8-13m-233 3c-7 7 1 18 9 14a8 8 0 0 0-9-14m181 3c-8 4-6 13 2 13q8 0 9-8-1-10-11-5m127 3c-8 8 2 19 10 11q4-3 3-7-4-12-13-4m134 2c-10 4-8 14 2 14q10 0 8-10c-1-2-6-6-7-5zm-403 2c-7 6-4 15 4 15a9 9 0 1 0-4-15m95 4c-5 8 3 17 10 11q5-5 1-11-5-6-11 0m-46 0q-4 3-5 9c0 6 10 9 15 4 8-7 0-17-10-13m430 1c-6 6-2 16 7 16q8 1 8-7c1-9-8-14-15-9m-123 3-1 1-2 1c-4 3-1 11 5 11q6-2 8-8c0-5-7-8-10-5m-48 4q-4 3-3 8c3 6 13 3 13-4 0-4-6-6-10-4m223 0q-6 3-5 10c0 3 8 7 12 5 7-3 8-9 1-10q-5 0-3-4 1-3-5-1m-299 1c-5 2-6 11-1 14s13-2 13-9q-1-8-12-5m447 5q-7 5-1 11 5 5 10 2c2-1 3-12 1-14q-5-3-10 1m-237 4c-7 5-3 16 5 16 9 0 12-8 6-14q-6-5-11-2m141 1c-4 4-2 13 4 15 7 2 13-4 11-10s-11-9-15-5m51-1-2 3-3 2a8 8 0 0 0 14 9c6-6 0-17-9-14m-469 2c-7 4-5 13 2 13a7 7 0 1 0-2-13m-223 2c-3 2-4 9-2 13 2 3 11 2 13-2 2-7-4-14-11-11m327 9q-10 6-3 14 5 5 9 1c10-5 4-19-6-15m-144 2q-2 2-2 9l3 3c6 4 12-2 10-9q-3-8-11-3m83 1q-9 4-6 12c2 6 9 6 13 1 6-7 1-16-7-13m-225 3q-6 7 0 12c8 6 21-5 14-12q-7-6-14 0m425-2c-7 3-8 16-2 16l3 1a9 9 0 1 0-1-17m-328 4c-4 3-4 10-1 12 4 4 11 1 13-4 2-8-6-13-12-8m-46 1q-7 5-2 11c2 3 7 4 7 2l2-1c6-2 6-10 1-12q-5-3-8 0m283 3c-7 3-8 11-2 14 8 5 17-8 9-14q-3-3-7 0m42 2q-8 7 0 13c5 3 14-1 14-7 0-7-9-10-14-6m193 0c-9 7-4 19 7 17 5-1 9-10 7-14q-5-8-14-3m-52 1c-4 1-5 11-1 14 6 4 13-1 12-9q-3-5-8-6zm167 5c-5 1-8 9-6 13q6 9 14 3c9-7 2-19-8-16m-56 1c-2 1-4 7-3 10q4 9 13 2c7-6-1-16-10-12m-149 4c-5 5 0 14 7 14q6 1 7-6c1-7-10-13-14-8m-217 2c-6 2-7 10-3 13 9 6 20-3 14-11q-5-4-11-2M0 341q0 10 3 4v-9q-3-6-3 5m247-5c-6 2-7 9-2 13q8 7 14-3c2-6-5-13-12-10m-210 5a8 8 0 1 0 13 0c-3-3-10-3-13 0m164 2q-4 2-6 6c-4 7 7 13 12 6s1-15-6-12m173 2q-6 3-6 9a8 8 0 1 0 6-9m131 2q-6 6-1 12c3 2 10 1 13-2 8-8-3-18-12-10m-424 4c-4 1-5 9-1 13q5 5 11-1c7-6 0-15-10-12m386 1c-8 4-7 15 2 15 7 0 12-11 7-15q-3-3-9 0m-187 2q-6 6-1 11c5 4 14 0 14-7s-7-9-13-4m138 2q-9 9 3 14 8 2 11-4c6-10-5-18-14-10m190-2c-6 4-2 15 6 15 6 0 10-9 6-14-2-2-9-3-12-1m-489 3c-6 6-2 14 6 13s10-9 4-14q-5-5-10 1m37 0c-7 6 0 16 9 10a7 7 0 1 0-9-10m509 0a8 8 0 0 0 2 16q8 0 8-8 0-9-10-8m-97 4c-5 5-3 13 3 13h4c5 2 9-9 4-13q-5-4-11 0m197 0c-9 4-8 15 1 18h3v-19zm-53 4q-7 12 5 13a8 8 0 1 0-5-13m-384 4a8 8 0 1 0 7 0zm-309 7c-9 5-7 16 3 16q8 1 11-6c4-8-6-15-14-10m219 0a8 8 0 1 0 14 6c0-7-10-11-14-6m293 3-5 3c-8 8 4 17 13 10 8-6 2-16-8-13m-465 6c-7 3-8 15-1 16q12 2 13-10-1-8-12-6m127 1c-6 6-2 15 7 14a8 8 0 0 0-1-16zm169 4c-7 6 0 17 9 12 5-2 6-12 3-14q-6-3-12 2m-252 0q-5 4-5 10c0 9 17 11 19 2 1-8-6-15-14-12m333 3q-8 5-1 13 4 6 8 0c6-5 6-13 0-15q-3-2-7 2m43 0c-7 6-4 14 4 14q6 1 8-5c4-5-1-12-8-12zm-333 1q-4 3-5 9c0 6 12 9 16 4 6-7-2-16-11-13m132 0q-5 4-6 10 6 11 15 2c7-7 0-16-9-12m314 1q-6 5 0 10c6 6 13 4 13-3 0-8-8-11-13-7m43 1c-6 8 4 16 11 9l3-5c0-7-10-10-14-4m-241 1a8 8 0 1 0 12 4c0-7-7-10-12-4m288 2a8 8 0 1 0 12 10 8 8 0 0 0-12-10m45 3q-6 7 0 13 8 5 8 2-1-2 2-2c5 0 7-11 3-14-3-3-10-3-13 1m-186 11a8 8 0 1 0 13 6q-1-11-13-6m-306 0c-7 2-9 10-5 15q7 5 15-1c6-6-1-16-10-14m83 4q-7 9 3 14c5 3 12-5 11-12-2-6-10-7-14-2m191 1q-6 3-3 8c4 8 12 7 13-1q0-11-10-7m-486 3c-6 1-8 10-3 14 6 6 16 3 16-5a10 10 0 0 0-13-9m170 4c-6 1-8 9-5 13 8 8 21-2 14-11q-3-4-9-2m-121 1a9 9 0 1 0 7 0l-3-1zm547 5q-3 2-3 5c0 2 4 7 5 5q1-2 3 1c0 4 9 0 10-5 1-7-9-12-15-6m-250-1q-5 2-6 9c1 9 14 8 16-1q2-6-3-8zm207 2c-4 5-3 12 1 12l4 2c4 3 12-2 12-7 0-7-12-12-17-7m-468 1c-5 4-2 12 5 13 3 1 9-3 9-7 0-6-9-10-14-6m351 1c-4 5-1 15 5 15l8-6c5-7-8-16-13-9m-310 1c-9 4-7 15 3 15q7 1 8-8 1-12-11-7m266 0a7 7 0 1 0 9 11c7-8-1-18-9-11m241 1a8 8 0 1 0 6-3q-4 0-6 3m94 1c-8 7-2 17 8 13 6-3 6-12 1-14q-5-4-9 1m-49 2q-7 5 0 11a7 7 0 1 0 0-11m-413 1-4 1c-6 1-6 12 0 14 4 2 12-3 12-7q-1-6-4-8l-2-1zm-42 11q-10 4-11 12c0 6 12 9 16 5 8-9 5-21-5-17m257 1q-6 6-1 10c8 6 18-3 12-10q-5-5-11 0m-167 5c-4 2-4 9-1 13 7 7 20-4 14-12-1-2-8-3-13-1m207 5c-7 4-5 16 3 16 4 0 10-6 10-9 0-5-8-9-13-7m-528 2q-6 7 0 13c9 7 20-4 12-12q-7-6-12-1m45 0q-7 4-3 12c5 5 14 1 14-7q-1-7-11-5m129 2q-4 3-5 9c0 7 10 9 15 3 7-7-1-17-10-12m198 5q1 3-2 2-4 0-2 5c2 5 10 5 13 0q4-9-6-10-5-1-3 3m43 0c-7 8 1 18 9 10a7 7 0 1 0-9-10m-331 1c-5 5-3 14 4 14 3 0 10-6 10-9 0-7-8-9-14-5m486-1v5l-3-1c-1-2-2 5-1 8 3 8 18 4 18-5 0-6-9-10-14-7m138 2q-6 4 0 10c6 5 13 3 13-5s-7-11-13-5m-578 0q-8 9 3 14 7 2 9-4c5-8-6-16-12-10m158 1q-7 3-5 10 2 5 8 4c9-5 6-18-3-14m168 0c-4 3-4 10 1 12 6 3 13-6 8-11q-4-4-9-1m199 1c-7 8 4 16 13 10 3-2 3-9 0-11s-10-1-13 1m-40 3a7 7 0 1 0 11 0c-2-3-9-2-11 0m-367 10c-8 3-7 15 2 15 8 0 15-10 9-14q-5-3-11-1m497 3q-4 6 0 11 3 3 2-6 1-12-2-5m-398 2q-7 2-7 9c0 8 12 8 16 1 3-7-2-13-9-10m-326 0q-3 2-4 8 1 6 4 5l2 1q2 4 7-1c7-7 1-16-9-13m468 3c-7 8 1 17 10 11l3-4c1-9-8-14-13-7m-284 2q-6 5-3 11c3 4 11 5 15 0 6-7-4-17-12-11m186 4q-4 2-6 7v3h7q8 1 8-2a6 6 0 0 0-6-8zm-331 1q-4 3-5 7-1 2 8 2h7v-3q-1-7-10-6m372 2q-7 7 6 7h6v-3c0-7-7-9-12-4m-272 0-4 4-1 3h9q15 1 7-7-4-4-11 0m-54 2q-10 5 5 5h9l-1-2q-3-8-13-3m429-1-5 4q-3 3 6 2 13 1 6-5-3-3-7-1m-229 2q-8 4 4 4 11 1 6-2-4-3-10-2"
        mask="url(#16282281824-posters-1720558334746-horizontal-mask)" itemprop="bold" fill-opacity="0.90"
        fill-rule="evenodd" stroke="none" fill="url(#16282281824-posters-1720558334746-vertical-bold)"></path>
    </pattern>
    <rect id="16282281824-posters-1720558334746-pattern-render" fill="url(#16282281824-posters-1720558334746-pattern)"
      width="100%" height="100%"></rect>
  </defs>
  <radialGradient id="lightbar" cx="50%" cy="200%" fy="0" r="201%">
    <stop offset="0%" style="stop-color: rgb(255, 255, 255); stop-opacity: 0.1;"></stop>
    <stop offset="10%" style="stop-color: rgb(0, 0, 0); stop-opacity: 0.1;"></stop>
    <stop offset="30%" style="stop-color: rgb(0, 0, 0); stop-opacity: 0.3;"></stop>
    <stop offset="90%" style="stop-color: rgb(0, 0, 0); stop-opacity: 0.55;"></stop>
    <stop offset="100%" style="stop-color: rgb(0, 0, 0); stop-opacity: 0.6;"></stop>
  </radialGradient>
  <g class="radial">
    <radialGradient id="16282281824-posters-1720558334746-radial" gradientUnits="userSpaceOnUse">
      <stop itemprop="radial" stop-color="#ceccca" offset="0%"></stop>
      <stop itemprop="radial" stop-color="#d2d1d0" offset="15%"></stop>
      <stop itemprop="radial" stop-color="#d0cfcd" offset="30%"></stop>
      <stop itemprop="radial" stop-color="#cdcccb" offset="45%"></stop>
      <stop itemprop="radial" stop-color="#cdcccb" offset="60%"></stop>
      <stop itemprop="radial" stop-color="#d0cfcd" offset="75%"></stop>
      <stop itemprop="radial" stop-color="#ceccca" offset="90%"></stop>
    </radialGradient>
    <radialGradient id="16282281824-posters-1720558334746-radial-background" gradientUnits="userSpaceOnUse">
      <stop stop-color="#d3cec5" offset="0%"></stop>
      <stop stop-color="#d3cec5" offset="15%"></stop>
      <stop stop-color="#d3cec5" offset="30%"></stop>
      <stop stop-color="#d3cfc5" offset="45%"></stop>
      <stop stop-color="#d3cfc5" offset="60%"></stop>
      <stop stop-color="#d3cec5" offset="75%"></stop>
      <stop stop-color="#d3cec5" offset="90%"></stop>
    </radialGradient>
    <radialGradient id="16282281824-posters-1720558334746-radial-light" gradientUnits="userSpaceOnUse">
      <stop stop-color="#9c9a96" offset="0%"></stop>
      <stop stop-color="#9c9a96" offset="15%"></stop>
      <stop stop-color="#9c9a96" offset="30%"></stop>
      <stop stop-color="#9b9a97" offset="45%"></stop>
      <stop stop-color="#9b9a97" offset="60%"></stop>
      <stop stop-color="#9c9a96" offset="75%"></stop>
      <stop stop-color="#9c9a96" offset="90%"></stop>
    </radialGradient>
    <radialGradient id="16282281824-posters-1720558334746-radial-regular" gradientUnits="userSpaceOnUse">
      <stop stop-color="#83817c" offset="0%"></stop>
      <stop stop-color="#83817c" offset="15%"></stop>
      <stop stop-color="#83817c" offset="30%"></stop>
      <stop stop-color="#82817d" offset="45%"></stop>
      <stop stop-color="#82817d" offset="60%"></stop>
      <stop stop-color="#83817c" offset="75%"></stop>
      <stop stop-color="#83817c" offset="90%"></stop>
    </radialGradient>
    <radialGradient id="16282281824-posters-1720558334746-radial-medium" gradientUnits="userSpaceOnUse">
      <stop stop-color="#51504d" offset="0%"></stop>
      <stop stop-color="#51504d" offset="15%"></stop>
      <stop stop-color="#51504d" offset="30%"></stop>
      <stop stop-color="#51504d" offset="45%"></stop>
      <stop stop-color="#51504d" offset="60%"></stop>
      <stop stop-color="#51504d" offset="75%"></stop>
      <stop stop-color="#51504d" offset="90%"></stop>
    </radialGradient>
    <radialGradient id="16282281824-posters-1720558334746-radial-bold" gradientUnits="userSpaceOnUse">
      <stop stop-color="#2f2e2d" offset="0%"></stop>
      <stop stop-color="#2f2e2d" offset="15%"></stop>
      <stop stop-color="#2f2e2d" offset="30%"></stop>
      <stop stop-color="#2f2e2d" offset="45%"></stop>
      <stop stop-color="#2f2e2d" offset="60%"></stop>
      <stop stop-color="#2f2e2d" offset="75%"></stop>
      <stop stop-color="#2f2e2d" offset="90%"></stop>
    </radialGradient>
  </g>
  <g class="vertical">
    <linearGradient id="16282281824-posters-1720558334746-vertical" gradientUnits="userSpaceOnUse" x1="0" x2="0" y1="0"
      y2="100%">
      <stop itemprop="vertical" stop-color="#ceccca" offset="0%"></stop>
      <stop itemprop="vertical" stop-color="#d2d1d0" offset="15%"></stop>
      <stop itemprop="vertical" stop-color="#cdcccb" offset="30%"></stop>
      <stop itemprop="vertical" stop-color="#cdcccb" offset="45%"></stop>
      <stop itemprop="vertical" stop-color="#cdcccb" offset="60%"></stop>
      <stop itemprop="vertical" stop-color="#d0cfcd" offset="75%"></stop>
      <stop itemprop="vertical" stop-color="#cdcccb" offset="90%"></stop>
    </linearGradient>
    <linearGradient id="16282281824-posters-1720558334746-vertical-background" gradientUnits="userSpaceOnUse" x1="0"
      x2="0" y1="0" y2="100%">
      <stop stop-color="#ceccca" offset="0%"></stop>
      <stop stop-color="#cdcccb" offset="15%"></stop>
      <stop stop-color="#cdcccb" offset="30%"></stop>
      <stop stop-color="#cdcccb" offset="45%"></stop>
      <stop stop-color="#cdcccb" offset="60%"></stop>
      <stop stop-color="#ceccca" offset="75%"></stop>
      <stop stop-color="#cdcccb" offset="90%"></stop>
    </linearGradient>
    <linearGradient id="16282281824-posters-1720558334746-vertical-light" gradientUnits="userSpaceOnUse" x1="0" x2="0"
      y1="0" y2="100%">
      <stop stop-color="#ae9f84" offset="0%"></stop>
      <stop stop-color="#aea284" offset="15%"></stop>
      <stop stop-color="#aea284" offset="30%"></stop>
      <stop stop-color="#ae9d84" offset="45%"></stop>
      <stop stop-color="#ae9d84" offset="60%"></stop>
      <stop stop-color="#ae9f84" offset="75%"></stop>
      <stop stop-color="#aea284" offset="90%"></stop>
    </linearGradient>
    <linearGradient id="16282281824-posters-1720558334746-vertical-regular" gradientUnits="userSpaceOnUse" x1="0" x2="0"
      y1="0" y2="100%">
      <stop stop-color="#83817c" offset="0%"></stop>
      <stop stop-color="#82817d" offset="15%"></stop>
      <stop stop-color="#82817d" offset="30%"></stop>
      <stop stop-color="#82807d" offset="45%"></stop>
      <stop stop-color="#82807d" offset="60%"></stop>
      <stop stop-color="#83817c" offset="75%"></stop>
      <stop stop-color="#82817d" offset="90%"></stop>
    </linearGradient>
    <linearGradient id="16282281824-posters-1720558334746-vertical-medium" gradientUnits="userSpaceOnUse" x1="0" x2="0"
      y1="0" y2="100%">
      <stop stop-color="#51504d" offset="0%"></stop>
      <stop stop-color="#51504d" offset="15%"></stop>
      <stop stop-color="#51504d" offset="30%"></stop>
      <stop stop-color="#514f4d" offset="45%"></stop>
      <stop stop-color="#514f4d" offset="60%"></stop>
      <stop stop-color="#51504d" offset="75%"></stop>
      <stop stop-color="#51504d" offset="90%"></stop>
    </linearGradient>
    <linearGradient id="16282281824-posters-1720558334746-vertical-bold" x1="0" x2="0" y1="0" y2="100%">
      <stop stop-color="#2f2e2d" offset="0%"></stop>
      <stop stop-color="#2f2e2d" offset="15%"></stop>
      <stop stop-color="#2f2e2d" offset="30%"></stop>
      <stop stop-color="#2f2e2d" offset="45%"></stop>
      <stop stop-color="#2f2e2d" offset="60%"></stop>
      <stop stop-color="#2f2e2d" offset="75%"></stop>
      <stop stop-color="#2f2e2d" offset="90%"></stop>
    </linearGradient>
  </g>
  <g class="horizontal">
    <linearGradient id="16282281824-posters-1720558334746-horizontal" x1="0" x2="100%" y1="0" y2="0"
      gradientUnits="userSpaceOnUse">
      <stop itemprop="horizontal" stop-color="#cdcccb" offset="0%"></stop>
      <stop itemprop="horizontal" stop-color="#d0cfce" offset="15%"></stop>
      <stop itemprop="horizontal" stop-color="#d0cfcd" offset="30%"></stop>
      <stop itemprop="horizontal" stop-color="#d0cfce" offset="45%"></stop>
      <stop itemprop="horizontal" stop-color="#d0cfce" offset="60%"></stop>
      <stop itemprop="horizontal" stop-color="#cdcccb" offset="75%"></stop>
      <stop itemprop="horizontal" stop-color="#d0cfce" offset="90%"></stop>
    </linearGradient>
    <linearGradient id="16282281824-posters-1720558334746-horizontal-background" gradientUnits="userSpaceOnUse" x1="0"
      x2="100%" y1="0" y2="0">
      <stop stop-color="#cdcccb" offset="0%"></stop>
      <stop stop-color="#cdcccb" offset="15%"></stop>
      <stop stop-color="#ceccca" offset="30%"></stop>
      <stop stop-color="#cdcccb" offset="45%"></stop>
      <stop stop-color="#cdcccb" offset="60%"></stop>
      <stop stop-color="#cdcccb" offset="75%"></stop>
      <stop stop-color="#cdcccb" offset="90%"></stop>
    </linearGradient>
    <linearGradient id="16282281824-posters-1720558334746-horizontal-light" gradientUnits="userSpaceOnUse" x1="0"
      x2="100%" y1="0" y2="0">
      <stop stop-color="#9b9997" offset="0%"></stop>
      <stop stop-color="#9b9a97" offset="15%"></stop>
      <stop stop-color="#9c9a96" offset="30%"></stop>
      <stop stop-color="#9b9997" offset="45%"></stop>
      <stop stop-color="#9b9997" offset="60%"></stop>
      <stop stop-color="#9b9997" offset="75%"></stop>
      <stop stop-color="#9b9a97" offset="90%"></stop>
    </linearGradient>
    <linearGradient id="16282281824-posters-1720558334746-horizontal-regular" gradientUnits="userSpaceOnUse" x1="0"
      x2="100%" y1="0" y2="0">
      <stop stop-color="#968469" offset="0%"></stop>
      <stop stop-color="#968969" offset="15%"></stop>
      <stop stop-color="#968669" offset="30%"></stop>
      <stop stop-color="#968469" offset="45%"></stop>
      <stop stop-color="#968469" offset="60%"></stop>
      <stop stop-color="#968469" offset="75%"></stop>
      <stop stop-color="#968969" offset="90%"></stop>
    </linearGradient>
    <linearGradient id="16282281824-posters-1720558334746-horizontal-medium" gradientUnits="userSpaceOnUse" x1="0"
      x2="100%" y1="0" y2="0">
      <stop stop-color="#5d5241" offset="0%"></stop>
      <stop stop-color="#5d5541" offset="15%"></stop>
      <stop stop-color="#5d5341" offset="30%"></stop>
      <stop stop-color="#5d5241" offset="45%"></stop>
      <stop stop-color="#5d5241" offset="60%"></stop>
      <stop stop-color="#5d5241" offset="75%"></stop>
      <stop stop-color="#5d5541" offset="90%"></stop>
    </linearGradient>
    <linearGradient id="16282281824-posters-1720558334746-horizontal-bold" gradientUnits="userSpaceOnUse" x1="0"
      x2="100%" y1="0" y2="0">
      <stop stop-color="#2f2e2d" offset="0%"></stop>
      <stop stop-color="#2f2e2d" offset="15%"></stop>
      <stop stop-color="#2f2e2d" offset="30%"></stop>
      <stop stop-color="#2f2e2d" offset="45%"></stop>
      <stop stop-color="#2f2e2d" offset="60%"></stop>
      <stop stop-color="#2f2e2d" offset="75%"></stop>
      <stop stop-color="#2f2e2d" offset="90%"></stop>
    </linearGradient>
  </g>
  <g class="masks">
    <mask id="16282281824-posters-1720558334746-pattern-mask" maskUnits="userSpaceOnUse"
      maskContentUnits="userSpaceOnUse">
      <pattern id="pattern" x="0" y="0" width=".0133" height=".0144" viewBox="0 0 23.07 40">
        <path
          d="M17.62 0l-6.07 10.5m2.74 4.76L8.22 4.75m-5.48 0h12.13M.01 0h23.07M6.07 20L0 9.5m2.74-4.75l-6.07 10.5m-5.48 0H3.33m8.2 4.75L0 .02-11.54 20m40.68 0L23.07 9.5m2.74-4.75l-6.06 10.5m-5.49 0H26.4M34.6 20L23.08.02 11.53 20m-5.46 0L0 30.51m2.74 4.75l-6.07-10.5m-5.48 0H3.33m8.2-4.75L0 40l-11.54-19.98zM17.6 40l-6.06-10.5m2.74-4.76L8.2 35.25m-5.48 0h12.13M0 40h23.07L11.54 20.01m17.6 0l-6.07 10.5m2.74 4.75l-6.06-10.5m-5.49 0H26.4M11.53 20h23.08L23.07 40"
          stroke-linecap="round" stroke-width="3.5" stroke="white"
          fill="url(#16282281824-posters-1720558334746-horizontal-background)"></path>
      </pattern>
      <rect width="100%" height="100%" fill="url(#pattern)"></rect>
    </mask>
    <mask id="16282281824-posters-1720558334746-horizontal-mask" maskUnits="userSpaceOnUse"
      maskContentUnits="userSpaceOnUse">
      <rect width="100%" height="100%" fill="url(#16282281824-posters-1720558334746-horizontal-background)"></rect>
    </mask>
    <mask id="16282281824-posters-1720558334746-radial-mask" maskUnits="userSpaceOnUse"
      maskContentUnits="userSpaceOnUse">
      <rect width="100%" height="100%" fill="url(#16282281824-posters-1720558334746-radial-background)"></rect>
    </mask>
    <mask id="16282281824-posters-1720558334746-vertical-mask" maskUnits="userSpaceOnUse"
      maskContentUnits="userSpaceOnUse">
      <rect width="100%" height="100%" fill="url(#16282281824-posters-1720558334746-vertical-background)"></rect>
    </mask>
  </g>
  <use href="#16282281824-posters-1720558334746-pattern-render"></use>
  <g>
    <use href="#16282281824-posters-1720558334746-background"></use>
    <use href="#16282281824-posters-1720558334746-light"></use>
    <use href="#16282281824-posters-1720558334746-regular"></use>
    <use href="#16282281824-posters-1720558334746-medium"></use>
    <use href="#16282281824-posters-1720558334746-bold"></use>
  </g>
  <g itemprop="animation">
    <animate href="#16282281824-posters-1720558334746-light" attributeName="stroke-opacity" repeatCount="indefinite"
      dur="5s" values="0.9;0.0;0.9"></animate>
    <animate href="#16282281824-posters-1720558334746-regular" attributeName="stroke-opacity" repeatCount="indefinite"
      dur="4s" values="0.9;0;0.9"></animate>
    <animate href="#16282281824-posters-1720558334746-medium" attributeName="stroke-opacity" repeatCount="indefinite"
      dur="5s" values="0.9;0;0.9"></animate>
    <animate href="#16282281824-posters-1720558334746-bold" attributeName="stroke-opacity" repeatCount="indefinite"
      dur="3s" values="0.9;0;0.9"></animate>
    <animate href="#16282281824-posters-1720558334746-regular" attributeName="fill-opacity" repeatCount="indefinite"
      dur="8s" values="0.9;0.75;0.95;0.8;0.9;"></animate>
    <animate href="#16282281824-posters-1720558334746-radial-background" attributeName="cx" repeatCount="indefinite"
      dur="34s" values="0%;33%;100%;0%;100%;0%;"></animate>
    <animate href="#16282281824-posters-1720558334746-radial-background" attributeName="cy" repeatCount="indefinite"
      dur="55s" values="0%;100%;33%;100%;66%;0%"></animate>
    <animate href="#16282281824-posters-1720558334746-vertical-light" attributeName="x1" repeatCount="indefinite"
      dur="55s" values="0%;33%;100%;0%;133%;0%;"></animate>
    <animate href="#16282281824-posters-1720558334746-vertical-light" attributeName="y1" repeatCount="indefinite"
      dur="86s" values="0%;100%;33%;100%;66%;0%"></animate>
    <animate href="#16282281824-posters-1720558334746-horizontal-regular" attributeName="x1" repeatCount="indefinite"
      dur="34s" values="0%;100%;66%;0%;33%;133%;0%"></animate>
    <animate href="#16282281824-posters-1720558334746-horizontal-regular" attributeName="y1" repeatCount="indefinite"
      dur="55s" values="0%;66%;100%;33%;100%;66%;0%"></animate>
    <animate href="#16282281824-posters-1720558334746-vertical-medium" attributeName="x1" repeatCount="indefinite"
      dur="34s" values="0%;100%;66%;0%;33%;133%;0%"></animate>
    <animate href="#16282281824-posters-1720558334746-vertical-medium" attributeName="y1" repeatCount="indefinite"
      dur="55s" values="0%;66%;100%;33%;100%;66%;0%"></animate>
    <animate href="#16282281824-posters-1720558334746-vertical-bold" attributeName="x1" repeatCount="indefinite"
      dur="34s" values="0%;100%;66%;0%;33%;133%;0%"></animate>
    <animate href="#16282281824-posters-1720558334746-vertical-bold" attributeName="y1" repeatCount="indefinite"
      dur="55s" values="0%;66%;100%;33%;100%;66%;0%"></animate>
  </g>
</svg>
