<svg id="16282281824-posters-1720559190985" itemscope="" itemtype="/posters"
  itemid="/+16282281824/posters/1720559190985" viewBox="0 0 769 512" preserveAspectRatio="xMidYMid meet" tabindex="0"
  class="animate landscape" xmlns="http://www.w3.org/2000/svg">
  <!---->
  <defs class="graphic">
    <pattern id="16282281824-posters-1720559190985-pattern" width="769" height="512" viewBox="0 0 769 512"
      patternUnits="userSpaceOnUse" preserveAspectRatio="xMidYMid meet">
      <rect itemprop="background" width="769" height="512" tabindex="-1"
        id="16282281824-posters-1720559190985-background" fill-opacity="1"
        fill="url(#16282281824-posters-1720559190985-radial-background)"></rect>
      <!---->
      <path id="16282281824-posters-1720559190985-light"
        d="M6 2q1 4 4 4l5-5-4-1Q5 0 6 2m23 2c0 11 17 13 22 3q3-7-3-7-5 0-4 2-1 7-6 4l-1-4q2-2-3-2h-5zm103-3a5 5 0 1 0 9 1c-1-2-8-3-9-1m62 0c-2 3 4 9 9 9 3 0 9-6 9-9a13 13 0 0 0-10 0c0-1-8-2-8 0m145 0-5 2q-8 2-8 9-1 8 11 7c14 0 21-9 14-17-3-2-10-3-12-1m71 1 4 3q8 4 11-3 3-2-7-2-9 0-8 2m251 0c-2 5 5 9 8 5q3-2 0-5-5-4-8 0m14-1c0 2 6 4 10 2q7-3-3-3zm46 0 2 4q3 3 0 2c-5 2-6 8-1 10q9 0 5-8-2-2 1-2c2 0 8-5 8-6l-7-1zM102 5c-3 5 0 14 5 14 6 0 8-7 4-13q-4-6-9-1m177 0c-4 4-7 13-6 16 3 6 12 2 12-5l1-4c3-5-4-11-7-7m353 0q-3 6 2 7 6 0 6-4c0-5-6-7-8-3M305 5c-4 3-3 10 1 10s6-7 4-10zm37 3-5 2q-5 1-1 3c5 1 12-4 10-7zM170 7q-3 6 2 11c6 3 14-5 8-10-2-2-8-3-10-1m309 0a4 4 0 1 0 6 1q-2-3-6-1m79 1a4 4 0 1 0 7 1c0-4-5-5-7-1m-37 3q-9 4-4 14c5 7 19 5 22-4 3-8-9-14-18-10m84 3-2 3c0 2 6 7 8 7q6-2 8-5c0-4-11-8-14-5m66 2q-4 6 2 10c7 4 15-3 9-9q-7-5-11-1m-238 0-1 5q3 6 7 1c3-5-3-10-6-6m330 1q-3 2 0 6l4 2c3 0 3 7 0 9l-1 8q2 17 3-2c1-23 0-28-6-23m-537 0c-4 2-1 14 4 15 6 1 8-7 3-13q-4-5-7-2m-64 4c-3 1-2 6 0 7q5 3 6-4-1-6-6-3m194 1c-2 1-1 6 2 7q5-1 6-4c0-3-6-5-8-3m37 1q-3 2-2 6c1 2 7 3 9 1 3-4-2-9-7-7M34 25q-3 2-1 5 4 6 9 0c3-5-4-10-8-5m35 0q-2 7 6 8 6 0 6-4c0-6-10-8-12-4M1 25q-1 8 3 11c5 0 9-7 6-11zm453 2q-10 9 0 11c4 0 10-6 10-10q0-7-10-1m34 0v6l1 5c1 8 10 7 10-2 0-10-8-17-11-9m212 1q-4 6 3 7c3 0 6-5 4-7q-3-3-7 0m-450 1a5 5 0 1 0 2-1zm-112 3c-3 2-2 13 3 14q5 0 6-7-3-11-9-7m446 0q-3 3-2 6c3 3 9 0 8-3q-2-4-6-3m-369 3v4c4 3 9-1 7-6-1-2-6-1-7 2m-111 1q-2 3 3 5 4-1 4-6c0-2-5-1-7 1m209-1q-11 3-10 8 0 8 10 3 11-6 6-11l-2-1zm236 0c-7 1-6 8 1 10l4 1c2 3 10-1 10-6 0-4-9-7-15-5m68 1c-11 5-11 19 0 22 3 0 9-2 10-5l3-4c7-8-4-19-13-13m-99 2q-3 5 4 6a4 4 0 1 0-4-6m216 1q-8 5-3 11c3 5 12 1 14-7q1-14-11-4m-554-1c-3 0-5 5-2 7 3 4 12 4 15 1q6-10-13-8m462 0q-3 6 4 7 5-1 3-6-3-3-7-1m-360 3c-3 3 0 9 6 9 7 0 7-8-1-10zm147 1q-9 7-3 13c7 7 21 0 18-8-2-6-11-9-15-5M64 43c-2 4 3 8 6 5l3-3c0-4-7-6-9-2m325 3c-5 9-2 17 4 14 3-2 6-11 4-15q-3-6-8 1m284-1q-3 5 3 6a4 4 0 1 0-3-6m-199 3q-4 4 1 7c6 2 9-4 5-7q-3-3-6 0m280 1q-3 3 0 6 5 2 8-3-2-8-8-3m-406 1q-4 5 0 9c6 4 14-5 9-9q-5-5-9 0M8 51c-4 3 1 7 5 5q3-1 1-5t-6 0m242 0c-12 6-8 15 4 9q6-3 8-7-1-6-12-2m-124 2q-5 4 1 6c5 2 10-2 6-6q-3-4-7 0m39 0c-5 3-1 10 4 9q6-3 1-8-3-3-5-1m533 1q-6 6 7 8 6 1 6-5c0-5-8-7-13-3M87 54c-9 3-8 14 1 13 9 0 13-10 5-13zm499 1q-6 6-1 10c4 4 14-2 12-7q-2-7-11-3m-64 0c-5 2-4 12 2 13s13-7 11-11c-2-2-9-4-13-2m-108 3q-3 6 4 7 7-1 4-6-3-3-8-1m140 1q-4 3 1 6 5 2 6-3-1-7-7-3m-357 1c-4 4 0 9 4 6q5-3 2-7-3-2-6 1M42 61q-2 4 1 7c4 4 15 2 15-2s-13-8-16-5m271 0q-1 7 6 7 5-3 2-7zm364 0c-5 2-4 10 2 15q4 3 6 1c7-4 0-19-8-16m49 2q-3 4 1 6 7 2 6-6c-1-3-6-3-7 0m-514 3c-2 3-3 11-1 13 4 5 10-1 10-9q-1-9-9-4M0 71v5h3q6-2 2-8-5-5-5 3m28-2q-3 2-1 5c2 4 8 2 8-2q0-7-7-3m243 0a9 9 0 0 0 2 19c5 0 12-5 12-9q-1-12-14-10m230 1a4 4 0 1 0 5 6 4 4 0 0 0-5-6m-55 1q-4 6 3 7a4 4 0 1 0-3-7m-338 5q-7 7-3 13c8 7 27-6 21-14q-7-8-18 1m246-4q-2 0-2 3a4 4 0 1 0 2-3m264 0a4 4 0 1 0 6 6 4 4 0 0 0-6-6m-241 3q-1 4 3 6 5 0 5-5-3-3-8-1m88 0c-5 6 9 15 15 10q5-3-1-8c-4-3-12-4-14-2m-322 2q-3 4-1 6c3 3 9 1 9-3q-2-7-8-3m97 0q-4 5 2 7 6-1 4-7-4-4-6 0m424 2c-2 5 3 8 7 5q4-2 0-5-5-4-7 0M83 80a5 5 0 1 0 8 0q-3-4-8 0m498 0a5 5 0 1 0 8 0q-4-4-8 0m-33 1q-6 7 8 10 13 0 7-9c-2-2-13-3-15-1m-382 2q-4 3 0 8c5 4 12 2 12-4 0-5-7-8-12-4m145 0q-6 7 6 15 6 5 8 2 2-4-2-9l-1-3c0-4-8-7-11-5m395 0-4 4-4 6c-7 9 1 15 13 9q10-4 8-11-2-11-13-8m37 0c-3 2-3 8 0 10 7 5 14 1 13-5-1-5-10-7-13-5m-105 4c-6 6-5 15 2 15q6 0 7-10 1-15-9-5m-289 2q-4 3 0 7c6 8 24 6 24-2 0-7-18-11-24-5m54-2q-2 5 2 6 7-1 3-5-2-3-5-1m22 5q-7 6-5 10c4 7 14 3 17-6 2-8-5-10-12-4m-240-1a4 4 0 1 0 4 0zM50 95q-4 5 3 6a4 4 0 1 0-3-6m550 0c-5 5 5 15 11 12 4-3 2-10-4-13q-5-2-7 1M1 95c-2 0-1 6 1 7q5 1 6-3 2-6-7-4m24 0q-4 3-7 8c-1 6 8 7 14 0 4-5-1-11-7-8m469 3c-7 7 0 20 9 18q12-2 15-8a12 12 0 0 0-8-12c-2-3-12-1-16 2m41 0q-2 4 4 6a5 5 0 1 0-4-6m-342 0c-5 2-6 10-1 16l3 5q1 8 9 4c8-4 10-17 3-23-2-2-11-3-14-2m-109 4c-6 4-3 14 4 14q11-1 2-12-4-4-6-2m45 1q-6 2-6 6c0 6 7 7 12 1 6-5 2-10-6-7m373 1q-5 6 4 4 5-2 2-5-2-2-6 1m-276 0q-7 5 2 11 11 3 11-7v-4l-5-1zm36 0q-2 6 4 7 6 0 5-5c-1-3-7-4-9-2m370 3a5 5 0 1 0 3 9 5 5 0 0 0-3-9m-66 3q-6 4-1 7 3 5 8 0a5 5 0 1 0-7-7m-98 0c-5 3 0 13 7 12q12-4 7-11a10 10 0 0 0-9-2zm278 1q-2 7 6 7 7-2 3-8-5-5-9 1m-62 1c-4 7 4 19 10 13q5-6-1-13-6-6-9 0m27 0a4 4 0 1 0 4 5 4 4 0 0 0-4-5m-331 0q-5 3 1 9 5 6 9 1c7-5-1-14-10-10m69 2q-2 10 7 5 2-2 1-5-5-4-8 0m-338 4q-1 6 5 7a5 5 0 1 0-5-7m44-1c-3 5 3 9 7 5q3-2 0-5-5-4-7 0m150 0q-6 8 6 11 11 0 8-8c-2-5-11-7-14-3m217-1c-3 3 0 11 5 11q5-1 6-6c0-5-8-8-11-5m-492 8c-7 7-7 9-3 15q5 7 12-1l5-5c10-7 8-15-2-15-6 0-6 0-12 6m41-4q-4 5 0 8c5 2 10-4 7-8q-4-4-7 0m343 2a4 4 0 1 0 7 1q-3-3-7-1m184 1q-5 4-1 7c4 4 10-2 7-7q-1-3-6 0m127 3q-5 6 4 11 15 3 7-8-8-7-11-3m-545 3q-13 6-9 14a7 7 0 0 0 12-4l2-4q3-4 0-6-2-3-5 0m489-1c-4 4-1 10 4 9s5-7 0-9zm-322 1q-2 5 2 8c4 2 8-3 6-6q-4-5-8-2m216 1q-4 4 1 6c2 1 7-2 6-4q-2-5-7-2m70-1q-11 3-4 11a8 8 0 0 0 12-10q-3-2-8-1m-346 2q-3 6 4 8c5 0 7-5 3-7q-4-3-7-1m-51 1c-4 2-2 7 3 7a4 4 0 1 0-3-7m147 1q-3 3 1 6 3 3 5 0c4-4-2-10-6-6m-177 1c-4 2-1 8 4 8q6 0 3-7-3-4-7-1m60 1c-7 8-7 16 0 16q4 1 7-9c3-8-2-12-7-7m224 0c-5 3-3 12 2 12 3 0 9-4 10-7 1-4-7-8-12-5m276 2q-3 3-3 8l-1 5c-2-3-10-1-10 3 1 5 8 6 10 1a5 5 0 0 1 7 6v-26zm-635 2q-3 3-1 6c3 4 12 5 14 1 4-7-7-12-13-7m336 0q-3 2-1 5a4 4 0 1 0 1-5m55 0q-3 5 3 6 4 1 3-2-1-7-6-4m-162 3q-3 4 0 12c2 4 10 2 10-3 0-3-3-9-5-10q-2-2-5 1m73-1q-9 6-4 10c7 5 24-4 19-9-2-2-10-3-15-1m183 1q-3 2 0 6c2 4 9 2 9-3 0-4-6-6-9-3m-300 2q-3 5 3 7 6-1 4-6-3-3-7-1m258 4q-7 6-1 11 9 8 16 0c7-12-5-20-15-11m-478-1q-5 8 5 9 7 0 7-6c0-4-8-7-12-3m-42 2q-7 3-2 11 8 5 14-4c3-5-4-10-12-7m657 1a5 5 0 1 0 6 6 5 5 0 0 0-6-6m-681 1q-2 5 4 5 5-2 4-5c-1-3-7-3-8 0m372 2-1 5c0 3 9 1 9-2q-2-5-8-3m-230 3c-2 4 2 8 6 4q4-2 0-5-4-4-6 1m383-1c-6 4-2 13 5 13q8 1 5-8t-10-5m120 1q-3 0-5 4 1 5 6 6 8 0 9-7c0-3-7-7-9-4m-454 3q-3 4 3 10c6 7 12 4 8-4q-6-11-11-6m34 0c-3 4 1 10 5 7 3-1 2-7-1-8zm85 1q-5 4 1 6 6 1 5-5-2-4-6-1m170 2q-6 7-2 9 3 4 8-1 9-6 4-10-3-4-10 2m-428-2a4 4 0 1 0 4 8 4 4 0 0 0-4-8m343 0q-10 5-6 11l1 2q2 4 6 4l9-2q12-2 10-7c0-6-12-10-20-8m-110 3-3 2-5 2q-15 4-5 13c10 7 30-5 23-14q-4-6-10-3m-302 1q-2 2 1 8c2 2 11 2 13 0 4-4-7-11-14-8m594 0c-3 1-5 11-3 15 2 7 11-3 10-10q-2-5-5-6zm-495 2c-3 1-6 9-4 13 1 2 8 6 11 6q2 0 5-3c10-8-1-22-12-16m262 0q-3 5 2 6a4 4 0 1 0-2-6m169 1q-4 4 1 6 4 2 5-1c4-4-1-8-6-5m197 1c-5 6-1 13 7 12q8-1 7-7c0-6-10-9-14-5m-456 2a4 4 0 1 0 5 5 4 4 0 0 0-5-5m362 2c-5 1-8 11-4 16 3 4 14 3 19-3v-11c-2-2-10-3-15-2m-503 2c-2 4 3 8 6 4q5-5-3-6-3 0-3 2m314 0c-3 5 1 10 5 7q5-4 2-8-4-3-7 1m171 0q-3 2-1 5a4 4 0 1 0 1-5m-445 2c-8 6 6 13 15 7q6-4 1-8c-3-2-13-1-16 1m294 0q-2 1-2 8l1 7h4q9 0 4-13l-4-4zm110 0q-2 5 1 8c5 2 10-4 7-8zm115 1c-4 5 4 19 10 16q4-2 2-8-4-15-12-8m-28 1q-3 5 3 7 7-1 3-6-3-4-6-1m-615 2q-4 4 1 6 6 3 8-3c1-5-6-7-9-3m359 2q-3 6 2 6a4 4 0 1 0-2-6m-32 0q-4 4 0 9c6 5 22-4 17-9zm-54 4q-3 1 0 9 3 5 7 6c7 0 8-12 2-16q-6-5-9 1m195 2q-7 6-4 11c5 6 16 6 20 0q4-4-2-10-7-9-14-1m-293 1q-4 6 3 7l3-1q3-6-3-8zm-29 1a4 4 0 1 0 6 6 4 4 0 0 0-6-6m56 0q-3 5 1 8c5 3 17-1 17-5s-15-6-18-3m39 0c-2 6 4 9 7 4q2-3-1-4zm202 0c-2 0-1 6 1 6q5 1 5-2 0-6-6-4m241 2q-4 5 0 8 6-1 7-5-2-4-7-3m-728 2c-3 2-3 8 1 8s7-6 4-9q-2-2-5 1m97-1c-4 2-2 8 3 8q4-1 3-6-3-4-6-2m251 1q-4 2 0 6 8 1 5-6-2-3-5 0m207 0c-3 4 2 16 7 16q4-1 5-6c0-6-8-13-12-10m-399 3q-2 3 1 4c2 2 7-1 6-4q-3-4-7 0m281 1q-3 2-1 5c2 7 14 6 14-1s-8-10-13-4m104 0q-3 2-2 6c3 3 9 0 9-3q-1-4-7-3m-468 3q-3 4 1 12c3 6 10 0 8-8q-4-9-9-4m612-1c-4 1-3 7 1 8a4 4 0 1 0-1-8M0 207l1 7c3 0 5-10 3-12q-4-6-4 5m50-5q-3 10 7 10 7-2 7-6c0-5-12-8-14-4m79 1q-3 7 11 8c8-1 10-7 2-8l-3-1c-2-2-9-1-10 1m499 1c-3 4 6 12 11 10s5-9 0-10q-8-3-11 0m-230 1q-2 4 1 7 6 3 6-4-2-6-7-3m-74 3q-4 5 1 8a4 4 0 1 0-1-8m112 0-1 4q2 7 8 2c2-5-3-9-7-6m169 0q-4 5 0 8 6 2 8-4-1-7-8-4m-333 3c-1 5 5 8 9 4v-4q-6-4-9 0m-242 2a5 5 0 1 0 7 7 5 5 0 0 0-7-7m148 1q-14 10-6 16 6 6 11 1l7-5q9-4 4-10c-3-4-12-5-16-2m36 1q-7 10 6 10c9 0 11-9 3-11q-6-2-9 1m92-1q-11 7-7 12c4 3 14-3 14-9q0-6-7-3m450 2c-11 11-3 24 10 19 3-1 3-1 3-12v-10h-5q-5 0-8 3m-25 2c-4 3-2 15 3 16q5 1 6-6c2-9-3-15-9-10m-233 2q-3 11 9 9 9-5 0-9-7-4-9 0m170 0a5 5 0 1 0 7 7 5 5 0 0 0-7-7m-425 2q1 7 5 4 4-4-2-6-4 0-3 2m103 0c-4 4 2 9 6 6q5-3 1-6-4-4-7 0m191 1c-2 3-3 12-1 14q8 6 9-8-1-11-8-6m147-1c-3 4 2 12 9 12q5-1 6-6c0-4-12-9-15-6m-591 2-1 3c0 5 8 5 10 1q0-7-9-4m58 1q-1 5 3 6 5 0 5-5-3-5-8-1m269 2q-3 7 11 9 9 0 4-7c-2-3-14-4-15-2m48 1q-2 6 4 7c5 0 6-7 0-8zm114 1c-6 1-7 8-2 12 3 2 10 1 13-1 6-5-2-13-11-11m-519 2q-4 5 0 7c5 2 9-4 6-8q-3-3-6 1m313-1c-2 1-1 6 1 7q8 1 6-5c-1-3-6-4-7-2m-254 1q-9 3-3 12c4 4 15 1 15-4q-1-9-12-8m397 4q-3 5 2 7 5 0 6-5c0-4-6-5-8-2m106 0q-4 6 0 9c5 3 10-5 6-9q-2-4-6 0m-336 1q-2 5 1 6a4 4 0 1 0-1-6m-258 3q-3 6 3 6c6 0 7-7 1-8q-3 0-4 2m226-1c-7 1-9 10-4 15q9 8 15 4c13-7 5-22-11-19m460 2q-3 3 0 6a5 5 0 1 0 0-6M6 243c-4 3-4 11 0 14a10 10 0 1 0 0-14m216-1q-4 5 2 6c4 0 6-5 3-7q-2-2-5 1m-33 1q-4 4 0 8c4 5 10-2 7-8q-3-4-7 0m139 1q0 8 6 6 4-3 1-6zm-68 1q-2 2 1 5 5 1 6-2-1-5-7-3m-182 2c-5 3-6 12-1 15 9 6 23 3 24-5q-1-10-14-11zm568 0c-5 3-3 12 3 12q9-1 10-8c0-4-7-7-13-4m-291 1c-6 3-8 15-3 17 15 6 23-4 13-15q-4-5-10-2m88 0a4 4 0 1 0 5 7 4 4 0 0 0-5-7m31 1q-9 6 0 17c7 7 21-3 15-11q-7-12-15-6m127 1-6 2c-10 3-6 14 6 17q10 3 14-6 4-4-1-10t-13-3m-196 2q-4 6 2 7a4 4 0 1 0-2-7m-358 1c-4 4 6 16 12 13q7-4-2-11-7-5-10-2m116 1q-3 2 0 5a4 4 0 1 0 0-5m222 0c-4 4-1 10 6 10 6 0 8-7 3-11q-5-3-9 1m319 1c-4 2-8 8-6 10q3 7 11 8l8 2c10 1 12-11 2-18-3-3-11-3-15-2m-496 3c-5 3 1 15 7 15 5 0 5-7 0-13q-3-5-7-2m333 1c-2 1-1 7 1 8a4 4 0 1 0-1-8m17 1c-3 3-2 13 2 14 6 3 10-6 4-13q-3-5-6-1m-47 1q-2 5 3 8c8 1 14-3 9-7-2-3-10-3-12-1m-375 5q-4 8 0 11 8 5 9-8 0-7-4-6-4-1-5 3m607-1q-3 4 0 5 11 3 6-5-3-4-6 0m-505 0q-3 5 2 6 6 0 5-4-3-5-7-2m74 1c-5 5 3 12 10 8q6-2 0-7t-10-1m365 0q-4 5 0 7a5 5 0 1 0 0-7m-649 1c-3 2-1 7 4 7 4 0 6-6 1-8-3-1-2-1-5 1m406 0c-3 4-5 13-3 16 5 6 11-1 11-10q-2-10-8-6m209 1q-4 4 1 6 3 1 4-2 2-7-5-4m122-1q-2 2 1 7 3 7 3-2 0-8-4-5m-471 4q-1 7 5 5 3 0 2-3c-1-3-6-4-7-2m44 5v4q4 3 7 0c1-4-5-7-7-4m-280 1q-2 4 1 7 6 3 6-4-2-6-7-3m116 1c-3 6 7 14 12 9 2-2 1-8-1-10q-6-3-11 1m284 1q-2 6 3 6c5 0 6-6 2-7q-6-2-5 1m-217 0-1 4q1 3-2 5-4 10 6 9c6-2 10-12 5-14l-3-3q-3-3-5-1m156 2q0 4 4 4c5-1 5-7 0-7q-3 0-4 3m313 0q-1 8 6 6 6-3 1-7t-7 1m-617 2q-5 4-3 11c3 10 10 8 11-3q0-14-8-8m521 0q-5 6 3 8 8-2 3-8-3-3-6 0M1 285v11c2 0 7-5 7-7 0-4-5-7-7-4m110 1v5q3 5 8 0c4-5-3-9-8-5m32 1q-1 8 7 6 5-2 2-6zm136 1q-4 6 2 14c6 10 13 2 7-9q-4-10-9-5m229-1c-4 4 2 9 7 6v-4q-3-5-7-2m15 2q-5 9 1 14c6 5 20-1 20-9s-17-12-21-5m154 0c-4 4 0 17 5 18q8 0 4-13-4-11-9-5m-475 2q-3 5 3 6 6-1 2-6-3-4-5 0m-165 0a8 8 0 1 0 11 12c2-9-4-16-11-12m523 0c-5 2-4 9 1 9q6-1 6-6-1-5-7-3m-135 1v6q4 3 6-1c3-4-2-8-6-5m-408 1q-4 6 2 8 4-1 5-5l-4-4zm56 2q-5 5-1 8c4 4 13-4 10-9q-4-5-9 1m508 0q-10 10-3 13c6 1 16-11 12-15q-4-3-9 2m-239 0q-14 6-8 11c4 4 15-1 16-7q2-6-8-4m314 2q-3 5 3 7 5 0 3-7-3-4-6 0m95 0c-4 3 1 9 5 6q5-5 0-7-4-2-5 1m-394 2c-2 4 3 7 6 4q2-4-1-5-3-2-5 1m34 2q-12 9-5 13 6 4 12-7c5-8 0-12-7-6m-228-1c-10 5-12 14-4 18 7 3 17-4 17-11 0-6-7-10-13-7m322 0q-3 4 2 7 4 0 5-4c0-3-6-5-7-3m-27 1q-7 6 0 11c4 2 10-2 10-6 0-5-6-8-10-5m-335 3q-4 2-2 4c2 4 13 4 15 1 3-6-8-11-13-5m597-1c-6 5-2 14 6 14 3 0 8-6 8-8 0-5-9-9-14-6m-98 3q-5 7 7 8 11 0 7-8c-2-3-12-3-14 0m-368 1q-2 3 1 5 5 2 6-3c-1-3-6-4-7-2m-29 1q-3 6 4 8 7-2 0-8zm378 6q-4 4 1 7c5 2 9-4 5-7q-1-3-6 0m95 0a5 5 0 1 0 8-1c-2-2-8-1-8 1m-408 0c-2 0-1 6 1 6q4 1 5-3-1-5-6-3m475 0c-4 2-2 9 2 10q3 2 2-5 1-8-4-5m-438 2q-1 3 4 5 4-2 3-6c-1-2-6-1-7 1m-229 1q-2 3 2 6 8 1 6-6-5-4-8 0m396-1c-4 5-4 5-3 8 3 5 14 3 14-3 0-4-9-8-11-5m-444 1v6q5 2 6-3 0-5-6-3m611 2c-7 6-1 17 9 17a9 9 0 0 0 0-18l-5-2zm-458 1q-8 10-2 15 8 3 9-8-1-12-7-7m237 0q-3 2-1 6c3 3 9-1 7-5q-1-4-6-1m95 1a4 4 0 1 0 4 0zm-462 1c-3 4 2 14 7 14 6 0 5-10-2-14zm110 0q-4 3 0 7 2 2 4-1c4-3 0-8-4-6m-160 5a3 3 0 1 0 2-3q-2-1-2 3m123 0q-4 7 3 7a5 5 0 1 0-3-7m414-1q-7 6 5 11 8 0 8-6c0-6-9-9-13-5m-317 1a7 7 0 1 0 10 3q-4-7-10-3m234 5a4 4 0 1 0 7 2 4 4 0 0 0-7-2m-61 0c-5 4 3 11 13 10q7-3 2-8-13-6-15-2m226-1q-3 3-1 7a4 4 0 1 0 1-7m87 4q-4 3 0 7 7 4 8-4-2-7-8-3M3 335q-2-1-2 9v8h5q9-1 9-9 1-11-12-8m581 2q-5 5-1 8 7 3 8-5 0-7-7-3m-133 0q-5 3-4 13c1 6 18 5 22-2 2-2-1-9-5-11zm-339 2q-6 8-1 13 3 2 8-6c4-7-2-12-7-7m248 0q-6 5 7 12c7 4 13 1 9-5s-12-10-16-7m-94 1c-2 2-1 7 2 7q7-2 3-8-2-2-5 1m-204 2q-4 5 3 6 5-1 4-6-3-3-7 0m145 1q-2 5 3 6 5-1 3-6-3-4-6 0m298 0v4c3 3 8-1 7-4q-3-4-7 0m-469 2q-10 8-3 12c5 3 15-9 11-14q-2-3-8 2m640-2v5a4 4 0 1 0 0-5m-265 2q-3 1-1 4a4 4 0 1 0 1-4m-318 1q-1 5 5 5 4 0 3-3-3-6-8-2m72 0-2 3-3 2q-4 1-3 4 2 6 7 3h3q4 4 9-1 5-4-2-10-6-5-9-1m66 1c-4 4 1 8 5 4q4-4 0-6-2-2-5 2m90-1q-5 5 2 9c7 4 14-2 9-9q-5-4-11 0m301 0c-5 3 0 16 5 16q8 0 5-10-3-9-10-6m-78 2q-3 3 0 5c2 2 7-2 6-4q-4-3-6-1m-414 4q-4 2 0 5c3 3 8-2 5-6q-2-2-5 1m150-1c-11 2-15 15-6 19 4 3 5 2 12-3q8-5 7-8-1-6-6-7l-4-1zm425 0q-5 3-5 10c0 8 8 7 11-2q2-10-6-8m-190 3q-2 5 1 10c3 3 11-1 11-5 0-6-8-9-12-5m232 3c-5 4-3 10 3 10 3 0 9-5 9-7s-5-5-7-5zm-445 3c-3 2 1 8 4 6a4 4 0 0 0-4-6m303 0v7a5 5 0 1 0 0-7m-553 1q-3 1-2 6 6 4 8-3a5 5 0 0 0-6-3m602 2c-4 4 1 11 8 11s10-7 4-11q-7-6-12 0m-181-1c-2 1-1 6 1 6a4 4 0 1 0-1-6m100 0a5 5 0 0 0 0 7q6 3 8-3-2-6-8-4m-502 1q-4 1-2 8 3 5 11 1c5-4-2-11-9-9m117 0a4 4 0 1 0 3 0zm159 0v8q7 3 7-6-2-3-7-2m-105 4q-2 7 9 6 5-2-1-7-5-5-8 1m474 0q-4 3 0 6a5 5 0 1 0 6-7l-2-1zm-287 2v3c1 3 7 2 7-1 0-4-5-5-7-2m336 2q-5 8 1 14l3 2v-10q1-16-4-6m-654-1a4 4 0 1 0 6 5 4 4 0 0 0-6-5m265 2q-7 5-2 11c7 5 15-5 9-10q-3-4-7-1m24 0a4 4 0 1 0 6 4 4 4 0 0 0-6-4m101 0q-2 5 3 5 4 1 4-5-3-4-7 0m-490 2c-1 4 5 7 7 3q2-5-3-5zm521 3q-4 4 0 6 6 4 8-4-2-5-8-2m-409 2c-8 7-9 17-1 17 5 0 11-7 11-12 0-4-7-8-10-5m33 0a4 4 0 1 0 4 1q-2-3-4-1m412 1-4 1v5q0 12 9 13 15 0 11-14-4-10-16-5m-362 0c-2 1-3 6 0 7a4 4 0 1 0 0-7m14 1c-6 6 7 13 14 8q6-5-6-9-6-2-8 1m226 0c-5 2-3 10 3 10 7 0 14-6 11-9-1-2-10-2-14-1m231 1q-4 5 3 6a4 4 0 1 0-3-6m-594 1q-1 6 3 8c4 0 7-6 4-9q-4-3-7 1m659 1q-1 6 6 4 3 0 3-4c0-4-8-5-9 0m-562-1q-8 2-8 9c0 8 21 7 25-1q4-11-17-8m-143 1c-5 1-4 9 1 9q5-1 5-7-1-3-6-2m240 2q-1 8 5 4 3-2 1-4-3-4-6 0m46-1q-4 3 0 6c4 4 8-1 5-5q-2-3-5-1m90 3c-3 1-7 8-7 10q2 4 6 6 4-1 8-10 2-5-1-6-3-3-6 0m204-1q-3 5 2 6 6 2 6-4c0-3-6-4-8-2m-358 3c-7 7-7 17 0 17 5 0 11-15 8-19q-3-3-8 2m435-1q-10 3-6 10 5 9 17 8a9 9 0 0 0 0-18l-4-1q0-2-7 1m-675 3c-2 4-2 4 5 9q7 5 10 1 3-5-5-9-8-6-10-1m475 0c-3 2-3 9 1 10 8 3 15-7 7-11q-4-2-8 1m-421 0-6 3q-5 7-11 6c-6 0-8 9-2 14 3 3 18 2 22 0 12-9 9-26-3-23m465 5q-3 3-1 7c2 9 11 9 11 0 0-7-7-12-10-7m-239 3q-7 9 8 11c17 2 19-5 3-11-7-2-8-2-11 0m60 0q-12 12-1 19c7 6 24 0 24-8q-2-6-6-11c-4-3-15-3-17 0m95 1q-2 7 4 7 7-3 2-8-5-2-6 1m-348 0q-2 6 4 7c5 0 5-7 0-8zm616 0q-3 5 3 6 3 0 3-3a3 3 0 0 0-6-3m-132 1q-3 5 3 6 4 1 3-3-1-6-6-3m38 0-3 1c-6 0-9 9-5 12 5 5 18-7 14-12-1-2-6-3-6-1m-387 4q-2 3 2 6 5 3 5-4-3-6-7-2m123 1q-5 7 6 6 4-3-2-7-3-2-4 1m-227 3q-1 6 3 7 7-1 4-6c-1-2-6-3-7-1m202 1c-4 4 1 9 6 6q4-3 0-6-3-4-6 0m-172 0q-2 3 1 6 7 2 6-5c0-2-5-3-7-1m335 2q-2 2 1 4a4 4 0 1 0-1-4m-108 0q-3 5 2 6 4-1 5-4l-4-4zm348 1c-2 4 1 12 5 13 7 1 10-6 4-12q-5-6-9-1m-662 0c-2 5 3 10 6 6q3-3 1-4-4-5-7-2m112 3c-4 4-1 10 5 10 2 0 8-5 8-7 0-5-8-7-13-3m473-1q-3 4 2 7a4 4 0 1 0-2-7m-188 2q-4 2 0 6c4 3 9-2 6-6q-3-3-6 0m-427 0q-5 5 1 8a5 5 0 1 0-1-8m480 2q-1 4 2 5 5 1 5-2c0-5-5-7-7-3m-505 2q-3 4 2 6 6 2 4-4-2-5-6-2m188 0c-3 3 1 9 4 7q5-2 3-6-3-2-7-1m-91 2c-5 3 0 15 6 15s6-7 1-13q-5-5-7-2m319 1v4a4 4 0 1 0 0-4m178-1a4 4 0 1 0 7 1c-1-2-6-3-7-1m-327 2a4 4 0 0 0 6 3q2-5-2-5zm341 0q-9 7 2 15 10 8 16-2c7-8-9-19-18-13m68-1q-3 4 1 7 5 1 6-5-3-5-7-2m-240 2c-5 4-3 15 3 19q6 1 12-5c2-4-1-13-5-14q-7-3-10 0m-197 0v8q3 3 7-2c3-4-1-9-7-6M0 435q-1 9 4 4c5-3 4-9-1-10q-4-3-3 6m105-5q-2 6 4 7 5-1 3-6-3-3-7-1m469 2q-4 7 0 9c6 4 13-3 10-9q-4-6-10 0m-346 1q-6 1-7 6c0 6 11 7 16 1 4-4-2-9-9-7m132 1a4 4 0 1 0 7 3c0-5-5-7-7-3m58 0c-5 5 3 11 13 11q5-1 6-6c-2-5-16-9-19-5m-92 1q-3 2 0 5 3 4 7 0c4-5-3-9-7-5m-160 0c-7 4-10 13-5 15q4 2 6-1c7-8 6-18-1-14m433 3q-3 1-1 4a4 4 0 1 0 1-4m134 0q-4 3 1 6a4 4 0 1 0-1-6m-693 0c-9 1-11 12-3 12 4 0 10-6 10-9a5 5 0 0 0-7-3m32 0a4 4 0 1 0 5 6 4 4 0 0 0-5-6m114 2a4 4 0 1 0 3-1zm299 0q-6 2-5 7c1 6 14 5 14-2q-1-6-9-5m50 3c-5 8 4 15 11 8q4-4-4-9-5-2-7 1m-446 2c-7 4-7 11 1 11 3 0 11-6 11-8q-1-7-12-3m580 2q-8 6-4 10 4 5 9-1l4-5q3-3 1-7-2-3-10 3m40-2-1 1c-4 0-7 7-4 9 4 5 17 0 14-5s-9-9-9-5m-401 1q-8 5 1 15c9 9 16 2 10-10q-3-8-11-5m-39 5q-10 8 1 12c11 4 20-7 10-15q-5-4-11 3m-257-2q-3 7 4 5 3-2 1-6-3-3-5 1m360 3q-9 7-4 12c4 5 12 1 14-8q2-14-10-4m-325 0a4 4 0 1 0 4-1q-2-2-4 1m98 0c-4 4 1 10 6 6q4-2 0-6-3-4-6 0m94 5q-1 7 6 4 3-1 1-4-3-4-7 0m259 1a4 4 0 1 0 6 4 4 4 0 0 0-6-4m-400 2a4 4 0 1 0 8-1q-5-2-8 1m478 0v6c3 3 10-1 7-5q-2-3-7-1m-365 2v4c3 4 9 1 8-3q-3-3-8-1m315 2q-3 7-1 10c2 2 12 5 14 5q10-5-1-14-10-7-12-1m-190 0q0 9 6 4 3-2 1-3-4-3-7-1m-214 2q-3 5 2 6 4 1 4-5-2-5-6-1m336 0c-2 5 4 9 7 4q3-2 0-4-4-4-7 0m138 1-1 6c0 3 9 9 12 7q4-2 1-8-6-8-12-5m23 0a4 4 0 1 0 7 3c0-3-5-5-7-3m17 2c-7 3-5 11 2 11 9 0 12-8 5-12q-3-2-7 1m55 0c-5 3 0 10 5 7q5-3 1-6-4-4-6-1m-680 1c-7 2-10 11-6 17q3 3 1 3-4 1-5 5c0 4 7 5 9 2l1-3 5 3q12 4 8-8l-2-9q1-8-2-8-5-3-9-2m145 0c-11 2-11 2-13 9l-2 5 4 4q7 6 13 0l7-6c8-6 2-14-9-12m22 0-1 4q1 5 7 3c3-3-1-9-6-7m565 0c-3 2-4 12-1 15 8 9 23 6 23-5q0-11-13-11zm-332 2c-5 2-3 11 3 12q10 2 10-5-1-10-13-7m-138 2c-3 2-1 7 3 6l2-1c2 0 1-6-1-6q-3-2-4 1m-232 3c-4 3 2 14 8 14 7 0 8-6 3-10q-8-7-11-4m708 0q-3 6 6 5 5-4-2-6zm-719 1a3 3 0 1 0 4 0zm694 0q-2 3 1 6c5 2 8-3 5-6zm-522 2-2 4c0 2 5 7 7 7l1 1c0 2 6 1 8-1 6-7-8-17-14-11m156 0v6c1 3 7 3 8 0 1-4-5-9-8-6m306 2q-3 5 3 6 3 1 3-2c2-4-3-7-6-4m-409 4q-3 6 8 14 9 3 6-8-8-13-14-6m236-1q-2 6 4 8c2 0 5-5 3-7q-3-3-7-1m-395 3c-4 3-1 9 4 6q5-1 2-6-3-4-6 0m138 0a4 4 0 1 0 7 0q-4-4-7 0m-121 4c-7 6-5 15 4 15a9 9 0 0 0 2-17q-3-1-6 2m317 0q-2 4 2 6c2 2 7-2 7-5 0-4-6-5-9-1m-353 1q-6 10 2 13c5 1 10-7 7-13q-5-6-9 0m629 2c-4 3-1 11 4 11 6 0 8-7 4-11q-5-5-8 0m-243 1q-7 11 3 12 6-1 7-9-1-11-10-3m49-2q-4 5 1 11c8 7 15-1 7-8q-4-6-8-3m-182 2q-2 2-1 3a4 4 0 1 0 1-3m-34 1c-2 2-2 8 0 10q6 3 10 0c5-7-5-16-10-10m-111 1a5 5 0 1 0 8 5 5 5 0 0 0-8-5m224-1q-2 5 4 6 3 0 3-3c0-4-5-6-7-3m162 1q-2 5 3 6 5-1 3-6-3-4-6 0m25 0q-3 7 2 11 3 3 13 3h11l2-3q5-11-17-12c-9-1-9-1-11 1m-451 2q-4 5 3 6 6-2 2-6-3-3-5 0m246 1q-8 2-9 8v3h11c13-1 14-1 9-9q-3-6-11-2m243 0q-3 8 5 5 4-1 0-4-2-3-5-1m-291 3q-5 1-5 6c0 2 0 2 10 2h11l-3-3-11-6zm396 4q-3 4 5 4 7 1 4-2-4-5-9-2"
        mask="url(#16282281824-posters-1720559190985-horizontal-mask)" itemprop="light" fill-opacity="0.90"
        fill-rule="evenodd" stroke="none" fill="url(#16282281824-posters-1720559190985-vertical-light)"></path>
      <!---->
      <path id="16282281824-posters-1720559190985-regular"
        d="M29 3c-2 8 10 14 18 8 5-4 6-11 1-11q-3-1-3 3-3 7-7 3l-2-4q2-2-2-2-4-1-5 3m104-1q-2 3 1 4a4 4 0 1 0-1-4m61 0c0 4 7 8 11 7q5-3 6-8a6 6 0 0 0-9 2l-1-1q0-2-3-2-5 0-4 2m144 1-7 2c-5 0-7 10-3 12 9 5 25-1 25-8 0-8-8-11-15-6m73-2c0 4 9 6 12 3q6-4-5-4zm252 0c-4 2-2 7 3 7q6-1 2-6-3-3-5-1m59 0c0 5 6 6 10 3q7-4-3-4zM104 5c-4 3-2 13 2 14 6 1 8-8 4-13q-4-5-6-1m174 2q-6 11-4 14 7 7 11-7c2-9-3-14-7-7m354-1q-2 5 4 5a4 4 0 1 0-4-5M304 6q-2 6 1 8 5-1 6-5c0-4-5-5-7-3m37 2-5 2q-4 1 1 4c4 1 10-3 10-6q0-4-6 0M171 8a6 6 0 1 0 11 5c0-6-8-9-11-5m308 1q-3 2-1 3c2 4 8 1 7-3q-2-4-6 0m242 1c-4 4 2 8 6 5q2-4-1-6t-5 1m-199 1c-6 1-8 11-3 15 4 4 13 3 17-2 7-8-1-16-14-13m83 5q-2 3 4 6 6 2 8-2c3-5-9-8-12-4m65 1c-3 6 6 12 12 7q3-1 1-4c-2-5-10-7-13-3m-237 1q-1 5 2 6 4-1 4-6-3-5-6 0m331 0c-3 2-1 7 3 7q3 0 2 4l1 4-1-9q0-13-5-6m-539 1 2 11c4 4 10-1 8-7-2-5-8-8-10-4m-63 3q-4 5 2 6a4 4 0 1 0-2-6m195 1a3 3 0 1 0 6 3c1-4-4-6-6-3M35 25c-3 2-1 7 3 7q3 0 4-4-1-8-7-3m36-1q-6 4 3 9 6 0 7-4c0-4-6-6-10-5m321 0q-3 6 4 7 5-2 3-6-3-3-7-1M2 26c-2 2-1 8 1 9q6 2 7-6 0-4-4-4zm452 3q-5 2-5 4c0 6 9 5 13-2q4-10-8-2m35-2c-1 3 0 11 1 13 2 5 9 2 9-3 0-9-9-17-10-10m212 1q-4 5 1 6a4 4 0 1 0-1-6m-452 2q-2 5 3 7 4 0 4-3-1-8-7-4m-110 2c-4 2-2 13 3 13q5 0 3-8-1-8-6-5m77 1-1 4a4 4 0 1 0 1-4m401 3c-11 6-9 21 2 21q6 0 11-10c5-8-5-16-13-11m-307 1q-8 3-7 5 1 7 8 4l4-2q6-3 5-7-2-3-10 0m237-1q-5 3 1 7 14 7 15-3c0-4-10-6-16-4m189 2q-9 5-6 11 6 5 11 0c8-10 4-18-5-11m-217-1a4 4 0 1 0 5 5 4 4 0 0 0-5-5m124 1q-3 8 5 5 3-2 1-4-4-3-6-1m-464 1c-6 3 2 10 9 8q9-2 5-8zm249 5c-7 6-4 13 6 13 9 0 13-8 7-14q-7-6-13 1M67 42a3 3 0 1 0 3 5q4-5-3-5m216 0v6c2 2 8 1 9-1 2-4-6-8-9-5m106 5q-4 10 0 12 6 4 8-8 0-14-8-4m85 2q-4 4 2 6a4 4 0 1 0-2-6m279 2q0 4 5 4c5-2 5-7-1-7q-3 0-4 3m-502 0c-12 7-10 14 2 9q10-5 6-9-2-3-8 0m96 1v5c3 4 11 2 11-3 0-6-8-7-11-2m-221 1-1 4c1 2 8 2 9 0 1-4-5-7-8-4m574 0c-6 3-2 10 5 9q9-4 4-8-4-3-9-1m-535 1c-4 2 1 9 5 8 1-1 2-8 0-8zm-80 1c-4 2-4 10 0 11q8 2 11-4c3-6-4-10-11-7m501 2c-5 4-3 10 4 8q9-1 6-9-4-5-10 1m-64-1c-4 1-3 9 1 11s13-5 11-9c0-3-8-4-12-2m-106 2c-3 1-3 6 0 6 5 2 8-4 4-6zm-219 2v6q4 1 6-3c2-3-3-5-6-3M43 61q-3 4 0 6c3 5 14 4 14-1 0-4-11-8-14-5m272 0c-2 1-1 6 1 7q7 0 5-6-4-3-6-1m361 2q-4 3 0 9c5 8 14 5 11-4q-5-10-11-5m50 1q-1 4 3 5 3-1 4-5c-1-2-6-3-7 0m-513 2c-1 1-3 9-2 12 0 3 6 2 8-1 3-8 0-15-6-11M0 71q0 6 2 5 9-2 2-8-5-5-4 3m29-1q-4 3 0 5 4 1 5-4-2-5-5-1m238 2q-7 6-1 12c8 8 22 0 17-10-3-6-11-7-16-2m234-2c-2 1-1 6 1 6 2 1 6-3 4-5q-2-3-5-1m-55 1q-2 5 2 6t5-3c0-4-5-5-7-3m-332 1-6 4c-8 8-2 17 10 13 3-1 9-8 9-11 0-4-8-8-13-6m240 0c-3 2-2 7 2 7q5-1 3-6-1-3-5-1m112 4q-3 6 3 8c7 4 15 0 11-5s-12-7-14-3m-322 2q-4 3 1 5 8-1 4-5-2-3-5 0m96 0q-3 4 2 6 4-1 3-6-2-3-5 0M84 79q-3 6 3 7 4 0 4-3a4 4 0 0 0-7-4m498 1q-2 3-1 4c1 3 6 3 7 0 2-5-3-8-6-4m82 0c-1 3 4 7 7 4l1-4c-1-3-7-3-8 0m-115 1q-6 6 7 9 9 1 8-5c-1-4-10-6-15-4m-383 3-2 2 2 3c3 5 11 4 11-2q-2-8-11-3m144 0q-3 4 3 10c8 9 16 7 10-2q-6-12-13-8m395 0-3 5-4 5c-4 4-1 11 4 11 3 0 14-5 16-8q3-6-1-12c-2-2-9-3-12-1m37 0c-3 3 0 9 5 10q8 2 8-5c0-5-9-8-13-5m-104 3q-7 9 0 14c4 3 9-3 9-10q-1-11-9-4m-286 1c-10 5 2 14 15 11 6-1 6-8 0-11-3-2-12-2-15 0m77 2c-10 6-12 15-3 15 6 0 13-9 10-14q-3-3-7-1M2 95a3 3 0 1 0 4 6c4-3 1-8-4-6m24 0c-6 3-9 10-5 12 4 3 13-6 11-10q-1-3-6-2m574 1c-2 6 7 14 11 10q3-4-2-9c-3-4-9-4-9-1m-100 0q-11 4-6 14t18 3c8-4 6-14-3-17zm36 1a4 4 0 1 0 8 1q-3-4-8-1m-343 2c-4 1-5 9-1 14l4 6c2 11 15 2 15-10 0-8-10-14-18-10m-109 4c-2 1-2 8-1 10q5 5 9 2c4-4-3-15-8-12m416 1v4c2 2 9 1 9-2 2-4-5-6-9-2m-374 1q-6 3-1 8 4 1 10-3c5-5-2-9-9-5m101-1q-7 6 2 10 7 1 9-2c4-7-3-11-11-8m36 0q-2 4 2 7 5-1 6-4-2-7-8-3m368 4q-4 4 1 7 6 1 5-6-2-2-6-1m-65 2q-4 5 0 7c4 2 11-2 9-7q-3-5-9 0m-98 0q-3 6 3 10c6 3 15-4 10-8-2-3-11-4-13-2m279 0q-2 5 1 6c5 3 11-2 7-6zm-62 1c-3 4 1 15 5 15 3 0 6-5 6-7q-5-11-11-8m-305 2a7 7 0 1 0 13 5c0-5-10-8-13-5m70 0c-3 4 2 9 5 5q3-2 0-4-3-3-5-1m-338 4q-1 6 3 8c4 0 7-6 4-9q-4-2-7 1m195-1c-7 3-3 12 6 12q6-1 6-7-3-7-12-5m-151 1q-3 3 2 6 7-1 3-5-2-3-5-1m366 0c-2 3 1 9 5 9q5-1 6-5c0-4-8-7-11-4m-486 3q-15 10-8 19 5 6 9 0l8-9q10-10-2-12-4 0-7 2m35 1q-3 3-1 6c4 3 10-3 7-6q-3-4-6 0m527 3q-3 3-1 5 1 4 6 0c4-5-1-9-5-5m127 3q-4 4 2 8c8 5 15 1 9-5q-7-7-11-3m-546 3q-8 4-8 10c0 7 7 6 11-1 6-8 4-14-3-9m169 0q-3 5 2 6c4 1 6-4 3-6q-3-3-5 0m321-1q-2 4 1 7a4 4 0 1 0-1-7m-40 2c-5 3-1 10 5 10q6-2 8-8c0-4-9-6-13-2m-392 1a3 3 0 1 0 3 6 3 3 0 0 0-3-6m50 0q-3 2 1 6 6 2 7-3-2-5-8-3m97 1a4 4 0 1 0 5 6 4 4 0 0 0-5-6m-179 3q0 5 4 6a4 4 0 1 0-4-6m61 1q-8 10-2 13t9-10c2-6-3-8-7-3m224-1c-4 4-2 10 2 10 6 0 11-6 8-10q-6-3-10 0m277 1c-5 5-4 18 1 18l1-10c0-11 0-11-2-8m-635 3q-4 7 7 8 7-2 4-8c-1-3-9-3-11 0m335-1-1 4a4 4 0 1 0 1-4m-28 2q-11 1-11 7c1 5 12 5 18-1q7-7-7-6m-79 2c-1 3 0 11 2 12q7 3 7-5c-1-7-7-12-9-7m256-1q-2 4 1 7 7 2 7-3-2-6-8-4m-299 3q-3 2-1 4 4 5 6 0 1-9-5-4m262 0q-12 6-5 14c6 7 18 1 17-8-1-4-8-8-12-6m-483 2c-3 5 3 11 8 8l3-3c3-4-8-8-11-5m-44 3c-2 2-1 8 2 10 5 3 16-4 12-9-3-2-12-3-14-1m658 1q-1 6 4 6c5-1 5-7 0-8q-3 0-4 2m44-1q-2 6 4 7 4-1 4-6-3-3-8-1m-351 3q-4 4 2 6a3 3 0 1 0-2-6m-230 2v6q5 1 6-4-1-4-6-2m381 2c-4 5 5 15 10 10q3-4-1-10-5-6-9 0m120 0q-5 2-3 6c2 5 12 3 12-3q0-5-9-3m-452 2q-3 5 5 12c7 5 8-4 2-11q-4-3-7-1m33 1q-3 6 5 6 3-1 2-4-3-5-7-2m256 3q-7 7-1 9c4 1 13-7 10-11q-3-4-9 2m-430-2c-3 2 1 8 4 6a4 4 0 0 0-4-6m341 1q-5 3-2 10 3 6 10 4l8-2q6-1 7-5c0-7-15-12-23-7m-110 4-7 2c-8 0-8 9 0 13 8 3 21-3 21-10q-2-11-14-5m-299-1q-3 6 8 8 12-2 2-8zm592 3q-5 11 2 12 3 0 4-4c5-9-1-17-6-8m-493-2a10 10 0 1 0 13 15c7-8-2-19-13-15m431 1q-3 5 2 6 7-1 4-5-3-3-6-1m198 1q-3 2-2 8c1 3 8 4 12 2 2-1 3-7 1-9-2-1-9-2-11-1m-598 5q-1 5 3 6a4 4 0 1 0-3-6m316 0c-2 1-3 7 0 8l6-4q-1-4-4-5zm184 2c-5 6-2 15 5 15 11 0 16-8 12-16-2-3-14-3-17 1m-460 2q-6 9 9 7 8-2 8-6c-1-3-14-4-17-1m294 0c-4 5-2 14 3 14q7-1 4-12-3-7-7-2m226 0q-5 3 1 11 5 7 9 4c3-3-2-17-7-17zm-116 0q-3 7 6 6 4-2 1-5c0-2-5-3-7-1m-527 3q-4 3 0 6a4 4 0 1 0 0-6m358 2c-2 5 3 8 6 4v-4q-4-4-6 0m-32 2q-4 2 0 6c4 4 20-1 17-6-1-3-15-3-17 0m-54 2c-3 4 2 14 7 14q8-1 5-10-5-9-12-4m194 3q-8 9 5 14 9 1 13-7 1-1-3-6-7-9-15-1m-291 1q-4 3 1 5 5-1 4-5-2-4-5 0m27 1q-3 4 0 7c3 2 16-1 16-5s-14-5-16-2m481 2q-4 5 1 6a4 4 0 1 0-1-6m-728 1-1 4q2 6 6 1 1-8-5-5m555 1c-3 4 3 15 8 14q6-5-1-12-3-5-7-2m-115 1c-6 3-4 11 3 11q6-1 7-6c0-4-7-7-10-5m100 3v4c2 3 8 1 7-3q-2-3-7-1M0 207q0 8 1 6 5-5 2-11t-3 5m51-5q-4 8 5 9 11-1 4-9-5-4-9 0m37-1c-1 2-1 9 1 12q4 3 7-2c3-6-4-14-8-10m611 0q-2 4 1 6 6 3 6-4-3-5-7-2m-570 2q-3 5 8 7c7 2 13-3 7-6-3-2-13-2-15-1m500 2c-2 4 4 10 9 9q5-3 4-7c-1-4-12-6-13-2m-230 1q-3 4 1 6c4 1 7-5 3-7q-2-2-4 1m37 4a3 3 0 1 0 6 3 3 3 0 0 0-6-3m169 0q-3 2-1 5c3 3 10-1 8-5q-3-4-7 0m-332 1c-1 4 4 7 7 3q2-1-1-3-4-4-6 0m-242 3a4 4 0 1 0 5 6 4 4 0 0 0-5-6m149 0c-9 4-12 12-7 16q3 6 11-1l7-4q4-1 3-7-4-9-14-4m34 2q-5 7 6 9 7-1 8-5c0-5-10-8-14-4m89 1q-6 6-2 9c3 2 13-7 11-11q-2-3-9 2m452 1c-8 9-3 20 9 17l5-1v-20h-5q-6-1-9 4m-24 1c-4 4 0 15 4 15s7-12 3-15q-4-4-7 0m-232 2q-3 9 7 7 12-5-2-9-4-1-5 2m-152 1q-4 4 2 6c4 0 7-5 3-7q-2-2-5 1m322-1q-2 3 1 6 5 1 6-4c0-2-6-4-7-2m-131 2c-4 5-4 14 0 15 6 1 10-11 5-14q-3-3-5-1m147 0c-4 4 2 10 8 10q7-1 4-6c-3-4-10-6-12-4m-592 2q-2 2 1 4a4 4 0 1 0 0-4m58-1q-3 8 5 5 3-1 1-4t-6-1m269 3q-3 3 3 7 14 5 11-3c-2-4-12-7-14-4m47 3q-1 4 3 4 5 0 4-4c0-2-6-3-7 0m-92 0c-3 4 1 9 5 6q3-2 0-5t-5-1m203 1q-5 7 4 11 8 0 11-6c0-6-11-9-15-5m-516 0q-3 4 0 5 3 4 6-1c2-3-3-7-6-4m59 1q-9 3-2 10 6 5 12-1c5-4-3-11-10-9m397 3q-3 4 2 6 5 0 5-4-3-5-7-2m106 1q-4 5 2 8 7-1 5-7-3-5-7-1m-593 2q-2 4 1 7 6 0 5-6-2-4-6-1m223 1c-4 1-5 10-1 13q11 11 18 2c7-9-5-20-17-15m463 1c-4 3-1 8 4 7q3-1 3-4 0-8-7-3M7 241c-7 6-3 18 5 18 3 0 10-7 10-10 0-6-10-11-15-8m183 2c-3 1-3 7 0 8q5 2 6-3 0-7-6-5m70 2q-3 1-1 4a4 4 0 1 0 1-4m-181 2c-12 9 4 24 17 16q10-7-2-15c-3-2-13-3-15-1m568 1q-6 3-3 8 4 5 10 0c8-5 2-13-7-8m-172 1q-5 2-5 9c2 10 12 13 18 5 5-7-5-18-13-14m-120 0c-3 2-7 10-5 14 2 5 17 4 18-2 1-9-6-15-13-12m88 1q-3 1-1 4c3 3 8-1 6-4q-2-3-5 0m160 0-6 2q-9 3-6 8c4 12 25 11 25 0 0-7-9-14-13-10m-198 3-2 2 2 2q4 4 6-2-1-5-6-2m-356 0c-5 4 5 15 10 12q5-4-5-12zm34 0q-2 5 4 5 11-1 0-6zm302 2q-5 6 6 8 5 0 5-5c0-4-8-7-11-3m321 0q-6 3-8 9 1 7 19 10 5 1 7-3c6-7-9-20-18-16m-499 5c-2 5 6 14 10 12q4-1 0-7-6-11-10-5m351 0-1 7q0 7 5 7 4 0 4-6-2-11-8-8m-46 1q-2 4 1 7c8 2 14-2 9-6-1-2-8-3-10-1m-376 6q-4 9 2 11 5 0 7-8c1-8-6-10-9-3m607-2q-2 5 2 6a3 3 0 1 0-2-6m-431 1q-3 4 2 8c3 2 9 1 10-3 0-4-8-8-12-5m365 1q-4 1 0 5a4 4 0 1 0 0-5m-650 1q0 6 6 5c5-2 3-7-2-7zm408-1c-4 5-5 14-2 16q5 5 9-9c1-6-4-10-7-7M58 279q-2 4 3 5 5-1 4-5-3-3-7 0m117-1q-4 6 5 9 6 2 6-4 0-7-6-6zm283 1a4 4 0 1 0 6 5 4 4 0 0 0-6-5m-60 0c-3 4 2 8 5 4q3-2 1-3-3-3-6-1m-157 2v3q2 1-1 4-6 11 4 8 12-6 3-14-6-6-6-1m470-1q-2 3 0 6 4 2 7-2c1-3-5-7-7-4m-617 3c-4 2-5 12-1 16s9-5 7-12q-1-6-6-4m520 1c-3 4 2 9 6 5q4-2 0-5-4-4-6 0m-501 1-2 4c1 4 7 4 8 0q-1-6-6-4M1 286v9c3 0 8-6 6-9q-3-2-6 0m143 1v4c2 4 8 3 8-1q-1-6-8-3m381 1c-9 8 0 22 11 15q11-6 5-14c-2-3-13-4-16-1m-246 1q-5 3 1 11c6 10 13 6 8-6q-4-10-9-5m398 1q-3 6-1 8l1 2c0 6 8 8 9 4 1-2-1-13-2-15q-4-2-7 1m-641 2c-3 2-3 11 0 13 8 4 16-7 10-12-2-2-8-2-10-1m523 1q-4 4 0 6c3 2 10-4 7-6q-4-3-7 0m-485 2c-5 4-3 11 2 8q9-5 5-10-2-3-7 2m508 0c-6 5-8 12-2 12 3 0 10-7 10-10q0-8-8-2m-565-1c-2 0-1 5 1 6q2 2 3-1 5-6-4-5m324 2q-11 5-7 10c5 4 19-5 15-10q0-3-8 0m409 2q-2 1 1 3a4 4 0 1 0-1-3m-360 4q-11 10-1 12c6 0 13-12 10-15-3-1-3-2-9 3m-230 0c-9 8-5 18 6 15q12-4 7-15c-2-3-9-3-13 0m297 1c-5 5 0 10 7 8q6-2 3-8c-2-3-8-3-10 0m-334 1q-5 6 6 7 7 1 7-5c0-4-8-5-13-2m597 1c-5 4-1 11 6 11q6-1 7-8c0-4-10-7-13-3m-94 0c-8 1-7 7 2 9 7 1 12-5 7-8q-2-3-9-1m-401 4q0 9 6 6v-4q-4-5-6-2m474 5q-3 5 1 6 5 1 6-3c0-5-5-7-7-3m-95 1q-3 4 1 6a4 4 0 1 0-1-6m161 1q-4 2 0 6 4 5 4-3 1-7-4-3m-666 0c-3 4 3 8 5 5q3-2 0-4-2-3-5-1m394 2c-5 5 2 12 8 7q6-4 1-7-5-4-9 0m168 1c-2 2-2 10-1 13 2 2 10 4 13 3q6-4 4-11c-3-6-12-9-16-5m-458 2c-6 7-5 16 2 13q4 0 4-8-1-10-6-5m-130 2q-3 4 2 9 6 5 8 1c3-5-7-14-10-10m74 4c-4 3 0 9 5 6a4 4 0 1 0-5-6m413 0q-5 8 7 9 7-1 5-7c-2-4-10-5-12-2m-316 1q-5 9 4 11 8-2 3-11-3-4-7 0m171 5q-2 4 8 7 13 4 8-5c-2-3-14-5-16-2m226-1q-2 4 4 6 3 0 3-3 0-6-7-3M2 336q-2-1-2 8v7h5q10 1 9-8 0-10-12-7m582 2c-3 1-3 6 0 7 4 2 9-5 6-8q-2-2-6 1m-134 2-2 4-1 4c-2 8 19 8 22 0 2-9-13-16-19-8m-338 1q-5 6-2 10 3 3 8-5c5-7-1-12-6-5m248-2q-3 3 1 8c9 7 20 7 14-1-3-5-12-9-15-7m-298 2c-3 3 0 8 4 7l2-4q-1-6-6-3m-27 6q-4 3-4 6 3 9 12-2c5-8-1-11-8-4m642-3v6a4 4 0 1 0 0-6m-512 2-1 3-3 2q-6 3-3 7h9q9 3 10-5c0-5-9-10-12-7m157 0c-6 4 1 10 8 9q5-3 2-9zm298 2c0 3 3 12 6 13 5 3 7-4 3-12-1-4-7-4-9-1m-342 4c-7 1-11 11-6 17q5 5 11 0l5-4c10-6 3-15-10-13m426 1c-5 3-5 13 0 13s10-11 5-14q-2-2-5 1m-187 1c-6 6 1 14 7 9q4-4 0-9-4-4-7 0m230 4q-3 3-1 7 6 3 11-3c2-5-5-8-10-4m-142 3q-2 2 1 6 5 3 6-4-1-5-7-2m50 2q-4 4 0 7c4 5 12 4 13-1q1-4-3-6-8-4-10 0m-82 0c-3 4 3 9 6 5q3-2 0-4-2-3-6-1m-503 1c-2 0-1 7 1 9q3 2 9-1c4-4-3-11-10-8m277 0c-2 3 1 8 4 7s2-8-2-8zm-104 3q0 5 5 6 6 0 4-4c-2-4-8-5-9-2m473 0q-3 5 3 7 7 0 4-6-3-3-7-1m51 1q-7 10-1 16l3 2v-5q1-15-2-13m-391 5a6 6 0 1 0 7 8c5-5 0-12-7-8m157 5q-4 4 1 6c4 1 7-4 4-6q-3-3-5 0m-410 2q-10 11-3 15c7 3 16-10 10-15q-4-4-7 0m446 0q-6 1-4 10a9 9 0 0 0 18 3c4-9-4-16-14-13m-349 1c-3 5 5 11 11 9q6-2 3-6c-4-4-12-5-14-3m229 0q-9 3-3 9 4 2 11-2c7-5 2-10-8-7m-364 1q-3 3-1 7a4 4 0 1 0 1-7m659 0-1 3q-1 4 3 3 4 0 4-3-1-6-6-3m-567 2c-3 2-6 9-4 11 7 7 29-2 22-10-3-2-14-3-18-1m-141 1c-4 2-1 8 4 7q3-1 2-4-1-5-6-3m583 2q-4 4 1 6a3 3 0 1 0-1-6m-358 1c-5 3-9 13-5 16q6 5 10-8 3-12-5-8m152 0q-8 8-5 14 7 4 11-7 1-10-6-7m281 1q-11 5-2 14c4 4 17 4 19 0 4-9-6-17-17-14m-674 3q-3 3 3 8 9 6 11 0c0-5-11-11-14-8m474 1c-5 3 0 12 6 9q9-6 2-10-4-2-8 1m-427 3q-3 4-8 5-8 0-8 7-1 8 13 8 13 1 16-7c9-12-2-23-13-13m472 1q-4 6 1 11c7 6 11-3 5-10q-4-6-6-1m-178 2c-4 2-8 10-7 13 0 4 6 9 10 9 7 0 18-6 18-10a15 15 0 0 0-21-12m-61 1q-5 5 1 9c6 4 21 2 18-3-2-4-16-8-19-6m-231 3q-9 8 2 5c4-2 7-8 3-8zm38-1q-1 5 2 6 5-1 4-5-2-5-6-1m348-1q-2 3 1 6 5 1 6-2c0-3-5-6-7-4m171 2q-11 6-6 11 4 4 10-2 9-12-4-9m-263 3q-2 4-1 7c2 3 11 0 11-3 0-4-7-7-10-4m-225 4a4 4 0 1 0 5 5 4 4 0 0 0-5-5m201 1q-3 5 2 6 7-1 4-5-3-3-6-1m404 3c-3 6 3 14 8 11q6-3 0-9-5-7-8-2m-76 3c-4 3 0 8 4 4q4-3 0-5-3-2-4 1m-474 1q-5 6 4 8 6-1 7-6c0-4-7-5-11-2m-144 1q-3 7 6 6c4-2 2-7-2-7zm72 6q-3 3 2 10 9 8 8-3-4-10-10-7m513 1c-3 0-6 6-4 9 1 3 9 9 12 9 9 0 13-10 7-16-2-2-10-3-15-2m-369 1a4 4 0 1 0 5 7 4 4 0 0 0-5-7m196 1c-2 2-2 11-1 14 4 5 12 5 16-1 4-8-9-20-15-13M0 435q0 9 5 3 4-4 0-7-5-6-5 4m575-3q-3 6-1 9c5 5 12-4 8-10q-3-5-7 1m62 1q0 4 5 4 6-3-1-6-4-1-4 2m-276 0q-3 6 2 7 5-1 3-6-3-3-5-1m58 0q-7 6 7 10c13 3 14-5 0-10zm-193 1q-5 3-3 8c3 3 14 0 14-5q-1-6-11-3m101 2q-3 1-1 3 3 4 7 0c3-3-3-7-6-3m-164 2q-8 10 0 12c4 0 9-9 8-13q-2-4-8 1m570 0c-3 3 2 8 6 5q3-4-3-6zm-696 2q-6 3-4 7c3 5 13 0 13-6q-1-5-9-1m149 3q0 5 5 3 5-3-2-6-4-1-3 3m297-1c-7 3-2 11 6 8q6-3 4-7-3-5-10-1m54 1c-3 1-3 9 0 9 3 2 10-1 10-5 0-2-7-6-10-4m133 4q-10 7-3 11 3 2 6-1c9-9 7-18-3-10m-580-1q-9 4-4 8 3 5 9-1c9-6 4-12-5-7m620-1c-9 5-9 12 0 12 6 0 9-7 5-11q-3-3-5-1m-403 3q-4 5 2 11 13 12 11-4c-2-8-9-12-13-7m-38 4q-9 8 2 10c10 3 17-5 10-12q-5-7-12 2m102 1q-6 6-2 11c4 6 14-3 13-12q-2-7-11 1m-324 0c-4 3 0 8 4 5 3-2 1-7-2-7zm98 0q-3 4 2 6a4 4 0 1 0-2-6m382 10-2 6q-1 6 3 6 9 4 13 1 5-4-5-11-7-6-9-2m-69 4a4 4 0 1 0 7-1q-4-2-7 1m139 0q-4 3 2 9 7 7 9 2c2-6-6-14-11-11m41 2c-5 1-7 7-3 10 2 2 8 1 10-2q3-9-7-8m52 2q-2 4 4 5a3 3 0 1 0 0-7zm56-1q-5 0-5 6-2 11 12 14c4 0 12-5 12-9q-1-14-19-11M7 474q-7 4-2 12l3 4-3 1q-5 4-1 6 3 3 7-2-1-2 5 1 13 5 7-8-2-2-1-9 1-6-3-7-7-5-12 2m145-3c-9 3-13 12-6 17 5 4 6 4 11 0l7-6c10-7 2-14-12-11m26 0-1 3c1 5 8 4 8-1 0-2-5-4-7-2m232 2c-3 3-1 9 4 10q12 2 10-7c-3-4-11-6-14-3m339 3q-2 3 1 6 5 2 8-2-1-7-9-4m-708 2c-3 1 2 11 8 13 7 1 7-7 0-11q-5-4-8-2m163 1q-6 4 1 11c7 4 14 1 11-5l-9-7zm154 3a4 4 0 1 0 7 4 4 4 0 0 0-7-4m-101 3q-6 5 3 12 12 8 8-5-6-10-11-7m234 1a4 4 0 1 0 7 4 4 4 0 0 0-7-4m-396 3q-2 5 3 5 7-1 3-5t-6 0m337 2q-3 3-1 6c4 3 9-3 6-7q-3-2-5 1m-319 2c-7 6-4 13 4 13 6 0 10-8 6-13q-4-6-10 0m-35-1q-7 13 2 13 7-2 5-11-3-5-7-2m628 3c-3 3 2 12 6 10q7-6-1-11-3-2-5 1m-243 2q-6 7 0 10 4 3 7-2c6-9 0-15-7-8m49-1q-4 2 1 7c4 5 10 5 10 0 0-6-8-11-11-7m-216 2q-4 6 3 9 10 3 7-7-4-9-10-2m-108-1c-4 1-2 8 2 8q3-1 3-6-1-3-5-2m408 3q-3 11 17 12h8l2-3q4-11-17-12h-8zm-205 1q-8 3-8 8v3h11q15 1 8-8-4-6-11-3m-50 5q-7 5 7 6h10l-3-3q-11-7-14-3"
        mask="url(#16282281824-posters-1720559190985-radial-mask)" itemprop="regular" fill-opacity="0.90"
        fill-rule="evenodd" stroke="none" fill="url(#16282281824-posters-1720559190985-horizontal-regular)"></path>
      <!---->
      <path id="16282281824-posters-1720559190985-medium"
        d="M31 2c-3 7 4 12 13 10 6-2 10-12 4-12q-4-1-3 3a4 4 0 1 1-9 0c1-3-4-4-5-1m102 1 1 3q6 2 6-3c-1-4-6-4-7 0m61-2q1 6 7 8 6 0 9-6 2-4-2-3-3 0-3 2h-5q0-2-3-2zm145 2-6 2c-5 0-9 8-6 11 3 2 13 2 17 1q13-5 5-14-4-6-10 0m72-2c0 4 8 5 12 2q5-3-5-3zm311 0q2 5 9 3 8-3-3-4zm-59 2q-4 4 3 5 5-2 1-6-3-2-4 1M104 6q-3 3 0 10 3 4 7-1c3-5-3-14-7-9m176 0c-6 7-8 16-3 17q4 0 7-7c3-8 0-15-4-10m25 1q-3 4 0 6c4 1 7-4 4-7q-2-2-4 1m36 0-4 2q-3 1-4 4c2 3 13 0 14-4q1-6-6-2M171 8a5 5 0 1 0 8 1q-3-3-8-1m551 1q-4 6 2 7 5-1 3-6-3-3-5-1m-196 2q-11 1-9 10c2 11 21 8 21-2 0-5-8-9-12-8m80 4c-3 1 1 7 5 7q6 0 6-4c0-3-7-5-11-3m66 1c-5 5 1 12 8 9l3-3c0-5-8-9-11-6m93 1q-4 3 0 6t4-3q1-5-4-3m-539 1c-2 3 1 13 5 13l3-2c3-6-4-15-8-11m167 7q-3 4 3 5 4 0 2-5-2-3-5 0M35 25a4 4 0 1 0 7 4q0-6-7-4m36 0q-5 4 3 7 6 1 6-3c0-4-6-6-9-4M2 26a5 5 0 1 0 7 4c2-4-3-7-7-4m453 2q-8 7-2 9l7-3q8-12-5-6m34-1c-1 7 2 15 6 15q4 0 3-9-4-12-9-6m-351 7-1 5q5 12 8 0-1-10-7-5m480 3c-9 4-11 16-3 19 9 3 21-11 14-18q-5-4-11-1m-309 0c-7 3-7 10 0 9q9-2 11-8-2-4-11-1m237 1q-2 3 7 6c7 3 14-2 8-6-3-3-13-3-15 0m190 1q-9 6-4 10 6 5 11-6 3-11-7-4m-558 1q-3 5 4 6c7 2 14-2 11-5-2-3-13-3-15-1m253 1q-10 6-3 14c8 6 20-4 13-11q-5-5-10-3m-148 1q-3 4 2 7 6 0 7-3c0-3-6-6-9-4m107 5q-5 11 1 12c3-1 7-10 5-13 0-3-5-3-6 1m364 3q-1 5 4 4 4 0 2-4c0-3-5-3-6 0m-405 0q-3 3-1 8c3 3 9 0 9-4q-1-6-8-4m-98 2-6 4-2 3 2 1c5 3 16-4 15-8q-2-3-9 0m-123 1q-6 3-1 5 9 1 5-5zm571 2q-5 4 3 6 10 0 7-7-4-2-10 1M86 55c-6 3-5 10 1 11 8 1 13-8 6-11zm78 0q-2 2 1 4 4 4 6-1c0-4-5-5-7-3m423 1c-5 3-4 9 1 9q10-1 8-9-4-4-9 0m-62 0c-6 1-7 7-2 10q2 2 6-1c8-4 5-11-4-9M44 62q-5 6 6 7 11-1 5-6-8-3-11-1m631 2c-2 5 3 12 8 12q5 0 3-7c-1-6-8-9-11-5m-462 3c-3 3-3 12 0 13 6 1 10-12 4-14q-2-1-4 1m54 6q-5 5-3 9 6 8 15 3 6-3 4-10c-2-6-12-7-16-2m-157 3-5 5c-3 9 11 11 18 3 8-9-3-17-13-8m358-1q-3 3-1 7c5 5 13 5 13 0s-8-9-12-7M84 81q-2 4 3 5a3 3 0 1 0 0-7zm465 2q-5 5 7 7 10 0 7-5c-1-4-11-5-14-2m-381 0q-6 4 2 8c4 2 9-4 6-7q-3-2-8-1m143 1q-4 6 8 14c8 5 7-7-1-13q-4-3-7-1m393 1-2 4-2 4c-7 8-1 14 9 9l5-2c5-2 6-13 1-16q-6-2-11 1m39-1c-4 4 0 10 7 10 6 0 7-7 0-10zm-104 3c-7 8-3 18 4 12q4-2 3-7 0-12-7-5m-288 2c-6 4 1 10 12 10q13-1 6-9c-3-4-14-4-18-1m75 3q-8 6-5 11 7 6 15-7c2-6-4-8-10-4m175 3q-3 2 2 8 6 6 8 1c2-5-5-11-10-9M25 96c-3 1-7 7-5 9q2 3 8 0c7-4 5-12-3-9m473 2q-10 4-3 13c3 5 4 5 11 4q14-3 9-13-6-9-17-4m39-1q-3 5 3 6 3 0 4-2c1-4-4-7-7-4m-342 2q-8 3-2 14l3 6c0 6 7 6 11 0 5-6 3-18-2-19q-6-2-10-1m307 3c-5 3-2 9 3 7q8-2 4-6-3-3-7-1m-418 3v9c3 3 10 0 9-4-2-5-8-9-9-5m44-1c-5 2-5 9 0 9q6-1 9-6 1-6-9-3m70 0c-2 2 3 10 6 8q2-4-1-7t-5-1m32 0q-10 4-3 8 12 5 11-5l-4-4zm34 1q-4 4 3 5 5-2 1-6-3-2-4 1m303 5q-4 5 1 7 9-2 6-8-3-2-7 1m63-1v4a4 4 0 1 0 0-4m-162 3c-3 4 2 10 8 8 9-3 8-9-2-10q-5-1-6 2m279-1q-3 5 3 6a4 4 0 1 0-3-6m-62 2c-2 4 1 12 5 12q4-1 5-6c0-5-8-10-10-6m-304 0c-4 3 0 9 5 9q5 0 6-4c0-4-8-7-11-5m-268 4v6c3 3 8-1 6-5q-3-3-6-1m193 1q-5 6 5 9 10 0 7-8c-2-3-10-4-12-1m217-1-1 4c1 5 9 6 10 0 0-3-6-6-9-4m-492 7q-9 9-4 13 5 7 9 2l7-7q12-13-1-13c-5 0-6 0-11 5m42-4c-2 0-4 5-2 6q5 2 6-3 0-4-4-3m525 4v6q3 1 5-3 1-5-5-3m127 3q-2 8 8 9c8 1 5-8-5-11zm-549 6q-5 4-5 6c1 7 8 6 12-2q5-12-7-4m459-4-4 1c-5 1-5 8 0 10 4 2 10-2 10-7a6 6 0 0 0-6-4m33 2a3 3 0 1 0 7 2 3 3 0 0 0-7-2m-462 4a4 4 0 0 0 6 6l-1-6zm61 1q-7 10-4 13 5 3 9-5 3-14-5-8m223 2q-4 6 1 8c3 0 9-4 9-7 0-4-8-6-10-1m277 0c-3 3-4 12-1 15l3 3v-16q0-5-2-2m-634 2c-5 3 3 10 9 7v-7q-4-3-9 0m334 0v5q5 2 6-2c2-3-3-5-6-3m-30 2c-10 1-12 8-2 9 8 0 16-6 12-9zm-76 1v10q3 3 7 1c3-4-4-15-7-11m255 1q0 3 4 5 4-1 3-5c-1-2-6-3-7 0m-40 3q-5 4-5 7l3 4c5 7 13 4 16-4 2-7-7-11-14-7m-479 0q-4 7 4 8 5 0 6-4c0-4-8-6-10-4m-44 3q-4 3 0 8c4 4 13 1 13-4 0-4-7-6-13-4m659 0c-2 2-2 7 1 7a4 4 0 1 0-1-7m44 0q-4 4 1 6 7-1 4-6zm-201 6c-3 3 0 12 5 12q8-2 2-11-4-6-7-1m117 3q-3 2 0 5c3 4 13 0 10-5-1-2-8-3-10 0m-449 0q-3 4 2 9 9 9 7-2-5-9-9-7m291 2q-6 5-6 9 2 4 10-3c2-2 3-7 0-7q-1-2-4 1m-88 0q-7 2-6 7 0 10 9 7l9-2q12-3 0-11-6-3-12-1m-112 5-7 2c-12 0-8 13 3 13 12 0 19-10 12-16-3-3-3-2-8 1m-301 1q0 4 5 5c7 2 12-3 6-6-4-2-11-1-11 1m100 0c-3 1-6 8-4 11 5 9 22 3 17-6q-5-9-13-5m494-1q-5 6-3 12c2 6 10-2 8-9q-3-6-5-3m133 4q-2 6 2 9 9 1 11-6c0-5-11-7-13-3m-625 2c-3 3 2 8 6 5q3-4-3-6zm531 1c-4 2-6 9-4 13 2 5 15 3 18-2 4-8-4-15-14-11m-457 3q-8 0-7 3c0 5 11 7 16 2 3-2 1-7-3-6zm287 2q-2 10 4 12 7 1 4-9-4-8-8-3m113-1q-4 4 1 6a3 3 0 1 0-1-6m114 0c-3 4 2 15 7 15q6-1 2-8-4-12-9-7m-644 3q-1 5 3 6 7-1 4-5-4-3-7-1m333 3q-10 1-6 7c3 3 17-1 17-4q-1-4-5-4zm-59 3c-3 3 2 14 6 13q6 0 5-6-3-11-11-7m194 3-4 6c0 5 10 10 14 7q11-5 3-12-6-9-13-1m-265 2v6c4 3 17-2 15-5-1-2-13-3-15-1m308 6q0 5 4 9 8 6 5-6-5-10-9-3m-116 1q-3 3-1 7c2 2 9 1 10-1 3-5-5-11-9-6m-402 4c-5 5 0 11 7 8q7-4 1-8-7-3-8 0m37-1-1 6c0 8 7 10 8 2q-1-11-7-8m41 2q-3 4 6 6 10 2 10-2c0-3-14-6-16-4m500 1q-3 4 5 9 6 2 7-4c-1-4-9-7-12-5m-24 5c-4 2-1 8 4 6a4 4 0 1 0-4-6m-575 5q-3 5 3 6 3 0 3-3-1-6-6-3m148 0c-7 4-10 13-6 16q5 4 10-1l7-5q4-1 4-4c0-6-8-9-15-6m37 1c-5 3-3 9 4 9q7 0 7-5 0-3-7-5zm87 3q-4 4-4 6 2 4 9-2c7-7 2-11-5-4m458-3c-7 1-11 12-8 18l8 1c8 0 8 0 8-11v-9h-3zm-30 4c-1 1-1 10 1 13q4 3 7-3c2-8-3-15-8-10m-231 2q-5 6 3 7 6 0 7-4c0-4-8-6-10-3m38 3-2 7q0 7 2 6c5 0 8-7 5-12q-1-3-5-1m146 1c0 1 2 6 5 7q9 2 8-5c-1-3-11-6-13-2m-263 2q-3 6 8 8c9 1 9-6 0-7l-5-2zm162 3c-8 1-7 8 0 10q9 2 11-4-2-6-11-6m-464 4c-5 4 1 11 7 9q7-1 7-4c0-6-9-9-14-5m506 3q-3 2-1 4c1 3 7 3 8 0q0-9-7-4m-371 4q-4 7-1 9 10 11 17 4 8-5 0-13c-3-3-14-3-16 0m464 0q-3 2-1 4 5 2 8-1c1-4-4-6-7-3M7 243c-4 3-4 12 1 14a9 9 0 1 0-1-14m182 1q-2 6 3 7c3 0 5-5 3-7zm70 0q-3 4 1 7 5 2 8-2c1-4-6-8-9-5m-174 3a8 8 0 0 0-3 16l3 1c1 3 8 1 13-3 6-6-3-15-13-14m562 1q-5 1-2 8 4 3 8 1l3-2q3-1 0-6-2-3-9-1m-173 1q-4 2-3 6 0 13 11 12 12-4 3-15-5-6-11-3m-120 2q-6 8-2 13c3 2 13 1 15 0a10 10 0 0 0-13-13m247 1-7 2q-4 0-3 5c2 11 21 13 24 3 2-9-6-14-14-10m-518 0q-3 6 5 7 7-2 4-5-4-3-9-2m-34 2q-3 3 2 8 7 6 9 0c0-4-9-11-11-8m337 0c-4 2-2 8 3 9q6 0 7-5c0-3-7-6-10-4m318 3c-8 4-6 12 2 14l7 2q7 3 10-1c7-8-9-21-19-15m-495 2q-4 4 2 10c5 6 9 1 5-6q-4-6-7-4m305 2c-5 2-3 7 3 7s8-5 3-7zm43 1c-1 3 1 10 3 11q5 1 6-5c0-5-7-11-9-6m-419 3c-5 7-3 14 2 12 4-1 5-11 2-13q-4-2-4 1m175 2q-4 2 0 6 7 3 10-2-1-8-10-4m122 1c-2 3-4 11-4 13 3 7 10 0 10-9q-2-7-6-4m-259 11q-3 2-1 4c4 5 11 5 11-1 0-5-7-7-10-3m66 2v3q0 3-2 5c-6 6 1 10 7 4q7-5 0-10-4-4-5-2m373 3c-4 3 0 8 4 5 3-2 2-7-2-7zm-523 0v11c2 7 8 4 8-4a5 5 0 0 0-8-7m-91 2-1 5 1 4 3-3c4-4 2-9-3-6m524 2c-3 3-4 10-1 13 7 8 23-2 17-11-3-4-12-5-16-2m-381 0q-1 4 3 5 5 0 5-4c-1-2-7-3-8-1m135 2q-3 4 2 10c7 11 11 4 6-8q-4-7-8-2m399 0q-4 3 1 12c2 6 7 5 7-1q-1-14-8-11m-641 2q-5 5-1 11a7 7 0 1 0 1-11m522 2q-3 3-1 4 6 2 8-3-3-6-7-1m-485 2q-6 5 0 7c4 0 9-5 7-8q-1-3-7 1m507 0q-8 10-1 10c3 0 9-5 9-8q1-9-8-2m-242 1q-11 8-1 9 8-1 11-8 1-6-10-1m51 6q-7 6-4 10 5 3 10-5 8-14-6-5m-226-2c-10 4-11 16-1 16q12-1 11-12-1-7-10-4m294 1c-4 2-3 9 2 9q9-2 6-8-3-2-8-1m-333 1q-6 4 0 7c6 2 14-2 10-5q-4-3-10-2m596 1q-6 6 2 11c5 2 11-2 9-8 0-3-8-5-11-3m-97 2q-3 1-2 4c1 3 11 4 14 1 3-4-4-7-12-5m75 8q-3 5 2 6 7-1 4-5-3-3-6-1m-205 4q-3 3-1 7c4 3 13-2 10-6q-4-5-9-1m167 3q-4 6 1 11c8 6 16 2 15-7-1-6-13-10-16-4m-460 3q-5 10 4 10 5-2 4-10-2-8-8 0m-127 0c-3 3 3 12 7 10q5-2-1-8-4-5-6-2m487 2q-6 5 3 9h6c5-5-1-12-9-9m-414 1v6c3 1 8-2 6-5 0-2-5-3-6-1m98 0c-5 4-3 11 3 11q7 0 3-8-3-6-6-3m171 5q-3 7 10 9c9 1 8-5-1-8-7-2-7-2-9-1m314 4q-4 5 3 6a4 4 0 1 0-3-6M3 336c-3 1-3 1-3 8v7h5q11-1 8-12-3-6-10-3m449 2c-5 4-5 13-1 14 7 3 17-1 17-6 0-7-10-12-16-8m132 1c-4 3 0 8 4 5q3-2 2-6-2-2-6 1m-471 2q-6 6-3 9 4 3 7-3c4-7 1-12-4-6m248-2q-5 5 6 11c11 6 12-3 2-9-6-3-6-3-8-2m-324 6q-7 6-5 10 2 5 7-1c8-6 6-14-2-9m130 1-2 2q0 4-4 4-5 3-2 6l4-1h5c5 3 11-1 8-6l-7-6zm155 1q-5 6 4 8 10 0 5-8-4-4-9 0m299 1c0 3 2 11 4 12q6 3 6-6c-2-7-8-11-10-6m-347 6c-8 8-1 22 8 15l6-5q10-10-6-12-6-1-8 2m430-1c-3 2-4 10-2 12 4 3 11-7 8-11q-2-3-6-1m-187 1c-2 1-1 8 1 9a5 5 0 1 0-1-9m232 3q-4 2-3 6 3 6 8 1c5-4 1-9-5-7m-93 5q-4 3 0 8c5 5 12 3 12-3 0-3-9-7-12-5m-585 2q-4 3 0 8c3 3 11-1 9-5q-3-5-9-3m173 3q-3 3 4 5 7 0 1-5-3-3-5 0m472 1q-3 4 2 6c4 1 7-5 3-7q-2-2-5 1m50 4q-6 8-1 11 5 6 4-6 1-14-3-5m-391 2q-4 3 0 7 5 5 9-3c2-5-4-8-9-4m-252 7q-6 7-5 11c3 6 14 0 13-8q-2-8-8-3m98 0c-5 5 6 12 12 7q5-4-4-6-6-3-8-1m230 0q-9 2-5 7 5 4 12-2 5-6-7-5m117 0q-5 0-2 10c2 10 17 9 17-1q-1-13-15-9m-388 3q-6 2-7 8c0 7 22 4 23-3q0-8-16-5m81 5c-3 2-7 10-7 12 1 5 8 5 10 0q6-16-3-12m150 3c-5 6-3 13 2 10 3-1 7-9 6-12q-3-6-8 2m280-1q-8 11 10 14 11 2 10-6c0-9-13-13-20-8m-669 1q-5 1 1 7 9 8 11 0c0-2-9-8-12-7m50 1-6 5-7 4q-9 1-8 7 3 10 23 5c4 0 8-8 8-13 1-6-5-11-10-8m422 1q-2 9 6 8c3-1 6-7 4-9s-10-1-10 1m203 1q-2 3 1 5 5 2 6-2c1-2-5-5-7-3m-159 3c-3 3 1 11 6 11q6-1 2-8-3-8-8-3m-469 5q-9 6-1 6 7-1 8-7 0-5-7 1m292-3c-2 1-7 8-7 11q2 10 14 9 17-4 11-14c-3-5-12-9-18-6m-62 2q-2 5 4 7 16 4 16-2c0-4-18-9-20-5m326 2q-7 4-6 8 3 8 12-2 5-6 1-7-1-2-7 1m-260 1q-3 1-4 7c1 3 9 3 12 0 2-3-3-8-8-7m379 9c-3 1 0 12 4 12q9-1 2-10-2-4-6-2m-549 3q-4 2-3 6c1 4 11 2 11-3a6 6 0 0 0-8-3m-144 2q-4 4 1 6 7-1 3-5-1-3-4-1m70 8c-2 3 3 11 7 11q6-3 0-10-3-5-7-1m341 1c-5 5-2 17 4 17q6 0 9-5c4-7-8-18-13-12m169 0c-3 6 4 15 12 15 4 0 10-5 9-8l-1-2c0-7-16-10-20-5m-366 0q-2 1 1 6 1 2 3-1 4-6-4-5M0 435q-1 8 4 3 5-4-1-8c-3-1-3-2-3 5m575-3q-2 5-1 9 4 1 8-2c4-5-2-12-7-7m62 0q0 5 4 6 4-1 5-3c0-5-7-7-9-3m-218 2q-4 3 0 7c6 3 17 2 17-1s-14-8-17-6m-195 2q-4 3 0 5c5 4 15 0 12-5-1-3-8-3-12 0m-59 1c-6 4-7 11-3 12 5 2 12-12 7-13q-1-2-4 1m-125 2q-11 4-5 9 3 2 8-3 7-7-3-6m445 2q-8 4-2 9c4 2 11-3 9-7q-1-3-7-2m51 4q-2 6 3 7c6 0 9-5 5-7q-5-4-8 0m134 3q-9 6-2 9 5 3 9-7 4-11-7-2m-581-1c-6 3-4 9 2 8q7-3 9-8-2-4-11 0m619 0q-9 5-1 9c7 3 13-4 8-9q-3-3-7 0m-400 0q-6 4 3 13 8 8 8-3-1-14-11-10m-38 5q-11 9 4 11c8 1 12-8 6-13q-4-6-10 2m102 1q-6 8-2 11 6 4 11-8 2-12-9-3m-226 0q-4 3 1 5 7-1 3-5-2-3-4 0m381 11q-4 6 2 11 8 4 12 0 5-2-4-9-8-6-10-2m70 4q-3 3 3 9c7 6 11 1 5-6q-4-5-8-3m38 3q-3 2-1 6c2 4 12 1 12-3 0-5-8-6-11-3m115-1q-9 0-9 6c-1 8 8 16 15 13 14-5 8-21-6-19M7 474q-6 5-1 12 5 5-1 6-5 2-1 5 3 2 5-2l3-2 3 2q12 7 8-6-3-5-2-9c2-8-7-12-14-6m143-2c-7 3-9 12-4 16q7 5 12-2l7-6c8-6-3-12-15-8m261 2q-5 8 6 9 8 0 6-5c-1-6-8-8-12-4m338 1c-5 2-1 9 5 8q7-1 3-6-2-4-8-2m-708 4q-2 4 4 9 6 4 7 2 5-5-6-11-5-3-5 0m163 1q-6 5 3 10 6 3 9-1c3-5-7-12-12-9m52 7q-3 4 5 9 13 8 5-6-6-7-10-3m-177 6c-3 2-4 9-2 10q6 5 8-6-1-10-6-4m34 1q-6 6-1 10c5 5 12 1 12-7 0-6-7-8-11-3m351 3q-5 5-1 8c3 4 9 0 9-6q0-8-8-2m49-2c-4 2-1 10 5 11q8 1 2-8-5-5-7-3m193 1c-1 1 0 7 2 8q4 2 7-3c1-5-6-10-9-5m-410 2q-3 4 2 8t7 0c3-6-4-13-9-8m-109 0q-3 3 1 6a3 3 0 1 0-1-6m410 2q-3 10 14 12 19-1 9-11c-4-4-21-4-23-1m-205 1q-8 4-9 9c0 2 0 2 10 2h10v-3c0-3-4-9-6-9zm-52 7q-4 5 8 4 13 1 4-4-10-6-12 0"
        mask="url(#16282281824-posters-1720559190985-vertical-mask)" itemprop="medium" fill-opacity="0.90"
        fill-rule="evenodd" stroke="none" fill="url(#16282281824-posters-1720559190985-vertical-medium)"></path>
      <!---->
      <path id="16282281824-posters-1720559190985-bold"
        d="M31 2q-2 10 11 10c4 0 10-7 8-11-1-2-5-1-4 1a5 5 0 1 1-11 1c1-4-3-4-4-1m164 0c0 4 9 8 12 4q4-5 1-6-3 0-3 2-3 5-5 0l-2-2q-3 0-3 2m146 0-7 4q-8 1-7 6-1 6 9 5c15 0 21-9 10-16q-2-2-5 1m71 0c2 3 12 2 12-1l-7-1q-8 0-5 2m311-1c0 4 9 4 10 0q2-1-5-1zM340 7l-5 2q-4 1-1 5c4 3 14-1 14-6q0-6-8-1M104 7q-1 7 2 10c4 1 7-6 4-10q-4-4-6 0m176-1q-7 12-5 15c3 6 8 0 8-9q0-10-3-6M172 9a5 5 0 1 0 6 0q-5-3-6 0m351 3q-8 3-5 11c4 7 17 5 20-3 1-5-9-10-15-8m83 4q-2 1 1 4c5 2 11 1 9-3-1-1-8-2-10-1m-82 1c-3 4 2 7 6 5q3-1 1-4-3-3-7-1m147 0q0 9 8 8 7-2 1-7-6-3-9-1m-445 2c-1 3 1 9 3 10q4 3 5-4c0-5-6-9-8-6M70 27c0 3 6 6 9 4q4-5-6-6-4 0-3 2M2 27q-2 0-2 3c0 4 5 6 7 3q5-8-5-6m457 0c-6 2-10 8-6 9 2 1 10-5 10-8q-1-2-4-1m31 5q0 9 4 9 5-1 3-9-6-13-7 0m-351 2c-3 2 0 10 3 10 4 0 3-10-1-11zm171 4q-8 3-5 7h6l4-2q4-1 4-6-1-2-9 1m238-1-2 2 2 2c4 4 13 5 14 1 2-4-10-8-14-5m67 2c-4 3-4 3-4 8 0 10 9 12 16 3 7-10-1-19-12-11m121 1q-9 6-3 10c5 2 14-8 10-12q-1-4-7 2m-556 0q-5 5 6 6 8 0 7-5c-1-2-10-3-13-1m248 5q-6 5 0 10c4 2 4 2 8 1q13-7 1-13-4-4-9 2m-37 0q-6 12-1 13 4 0 5-7 1-10-4-6m-42 6-1 4q-1 4 3 3 8-1 5-7zm-100 3q-7 5-3 6c4 2 15-5 14-8q-3-3-11 2m454 0q-7 1-5 4c2 3 11 3 11 0q1-6-6-4M88 56c-5 1-7 7-3 10 2 1 9-2 10-4q1-7-5-7zm499 1c-3 1-3 7 0 7q6 1 8-3 1-9-8-4m-65 0v7c1 5 11 0 11-5 0-3-8-4-11-2M44 63q-3 1-1 3 2 4 7 3c7 0 7-5 0-7q-6-2-6 1m632 1c-2 4 2 11 7 11q4 1 3-3c0-7-7-13-10-8m-462 3c-2 1-3 10-1 12q3 2 6-6 1-8-5-6m53 6q-6 6 0 10c8 8 21-1 14-10q-6-6-14 0m-158 4q-9 10 3 12c9 0 18-11 11-14q-7-4-14 2m162 0q-2 5 3 5 5-2 3-5-4-4-6 0m196 0q-2 4 5 7 12 1 5-6-7-5-10-1m81 7q0 5 10 5 8-1 4-6c-2-2-13-1-14 1m-380 0q-6 1-1 5 5 3 8 1c3-4-2-8-7-6m143 1c-3 3 2 10 8 13q8 1 4-5l-2-3c0-4-7-7-10-5m395 0-4 6-4 4v7h11l3-2c5 0 8-11 4-14q-6-3-10-1m37 0q-3 3 3 8 6 3 8-3c0-4-7-8-11-5m-104 4q-6 9 1 11 5-1 6-9-1-11-7-2m-286-1q-4 1-2 7c2 3 15 5 19 2 5-5-7-12-17-9m74 5c-7 4-8 11-1 11 5 0 11-8 9-12q-1-4-8 1m173 3c-1 3 5 10 8 10q3-1 2-6c-2-4-8-7-10-4M23 99q-6 7 0 7 7-1 8-7-2-6-8 0m476-1q-9 3-4 13 3 5 11 3 13-4 9-10 0-5-8-7zm-306 3q-4 5 1 11l3 7q2 7 8 1 9-10 0-19c-2-3-10-3-12 0m307 2c-4 4 1 9 7 7q9-6-2-9-4 0-5 2m-302 1c-3 2 2 10 5 9s3-8 0-9zm-114 4q0 8 6 6c4-1 0-10-4-10q-3 0-2 4m44-3c-5 1-5 7 1 7 2 0 8-6 7-7zm102 0q-9 3-1 8c7 2 12-3 7-7q-1-3-6-1m339 4q-4 3-3 7 2 3 7-1 3-3 0-5-1-2-4-1m-100 2c-3 1 0 9 4 9q10-2 7-8c-2-1-9-2-11-1m279 1q-2 4 2 4 6 0 4-4c-1-2-6-3-6 0m-62 0c-2 2-1 8 1 10 4 5 10-1 6-6q-4-7-7-4m-306 3q-1 5 6 6 8-1 4-6c-2-3-9-3-10 0m-72 2q-5 3-2 8c3 2 11 1 12-1 1-5-5-9-10-7m215 1v3q2 5 7 2l3-2-3-2q-4-3-7-1m-487 3q-12 8-9 15 7 9 10 1l5-5q9-8 5-11-6-4-11 0m690 6q-4 3 4 8 5 3 6 0c3-3-6-11-10-8m-549 5q-8 6-5 9 4 4 9-2 7-13-4-7m454-1c-5 2-3 9 3 9 2 0 7-4 7-6q-1-6-10-3m-364 6q-6 7-4 10c3 5 9 0 9-9q0-6-5-1m223 2c-3 6 4 8 9 3q2-4-4-6-4-1-5 3m277 0c-3 3-3 12 0 14q3 4 2-8 0-12-2-6m-635 2q-1 5 5 5c8 1 8-6 0-7q-4 0-5 2m230 2c-2 1-1 9 1 10q4 4 5-3-2-10-6-7m69 2-3 3 2 1c5 3 17-1 17-5s-12-3-16 1m147 1c-7 7-7 7-3 12 4 6 13 3 14-4q2-5-4-7-4-3-7-1m-481 2q-4 5 4 6 5-1 5-5c-1-2-7-2-9-1m-44 4c-3 7 4 10 10 5q4-3 2-5c-3-3-11-3-12 0m503 4c-5 3 0 12 5 11q6-3 1-9-3-5-6-2m118 2q-5 2-2 6c3 3 12-1 9-5q0-3-7-1m-451 2q-3 2 2 7 7 7 7 2c0-2-5-10-7-10zm289 4q-6 5-3 7c4 1 13-8 10-10q-3-3-7 3m-87-2q-6 1-4 9l1 4h4c13-2 16-3 17-7 0-5-9-8-18-6m-110 4-8 3q-10 3-6 7c5 7 19 5 23-3q2-6-3-8-3-2-6 1m-302 1q0 4 8 5 9-2 2-5-7-4-10 0m593 3c-4 7 0 13 4 6q4-6 1-10-2-3-5 4m-493-3q-3 2-3 5a8 8 0 0 0 16 3c2-5-7-11-13-8m628 2v7c0 2 8 3 10 1a4 4 0 0 0-3-8zm-626 2c-2 1-1 6 1 7q6 3 6-4c0-3-5-6-7-3m531 3c-4 1-5 9-3 13q3 4 13 0 7-6 3-13zm-463 4c-4 4 9 7 14 3q7-5-6-5-7 0-8 2m294 1q-3 7 2 10 5 1 4-6-2-11-6-4m171-1c-3 4 2 8 6 4q3-2 0-4-2-4-6 0m56 0q-3 4 0 7l1 2c0 4 6 6 8 3 2-6-6-16-9-12m-318 6q-2 3 1 5c4 3 18-2 15-4-1-2-13-2-16-1m-52 3c-2 5 2 13 6 11q4 0 3-5c-1-6-8-11-9-6m194 2-4 6q2 4 6 6l3 1q1 2 4-1 11-4 2-11-6-9-11-1m-264 2q-2 0-2 3-1 4 4 3c7 0 14-4 10-5-2-1-10-2-12-1m267 1c-4 4 0 7 4 5q5-2 1-5-2-3-5 0m39 5c-1 5 6 12 9 10q3-4-2-9-5-6-7-1m-115 0a5 5 0 1 0 6 9 5 5 0 0 0-6-9m-403 5c-4 2-1 8 4 8q7-1 5-6-5-3-9-2m37 0c-2 2-1 8 2 10q3 3 4-4-1-10-6-6m41 3q-1 4 9 4 7 1 6-2c0-3-14-5-15-2m500 1q1 5 6 6 6 1 5-2 0-5-7-5-5-2-4 1m-453 11q-9 8-2 14c2 1 8-1 8-3l5-3q9-4 4-8-6-6-15 0m127 1q-6 6-2 8c2 0 9-7 9-9q0-6-7 1m-88-2q-2 1-2 4c1 4 11 4 12 0l-1-3q-6-3-9-1m544 0c-7 1-10 15-4 17h13v-18h-3zm-28 3c-3 2-1 13 3 13q4 1 3-7 0-10-6-6m-232 2c-3 4 3 8 8 5q5-2-1-4-5-3-7-1m260 1a4 4 0 1 0 5 3q1-8-5-3m-222 4c-4 7-1 14 3 9 3-3 3-10 0-11zm147 0q1 5 8 6 6-3 1-7-7-2-9 1m-264 3q0 3 7 5 6 1 7-2c0-3-13-6-14-3m158 3q-2 2 1 6c2 4 13 2 13-2s-10-8-14-4m-460 3q-2 6 5 8 11-1 6-8c-3-3-11-3-11 0m507 2q-3 5 1 6 5 0 5-5-2-4-6-1m-371 4q-7 9 6 15c6 2 13-4 11-10s-13-10-17-5M7 244c-3 2-3 10 0 12 7 5 17-5 11-12-2-3-9-3-11 0m253-1c-4 0-4 7 1 9h4c7-3 3-10-5-9m-177 5a7 7 0 0 0-4 13q9 6 17 0 7-4 1-9-6-6-14-4m392 2a9 9 0 1 0 11 13q6-4-1-10c-5-5-5-5-10-3m171-1c-2 0-1 6 1 8h4l3-2q3-2 2-6zm-563 3q-3 2-1 6h11c3-4-6-9-10-6m271-1c-3 2-4 12-1 12q15 4 14-5c-1-7-8-11-13-7m248 1-6 2c-9 0-3 13 6 13 7 0 8 0 11-2q5-6-1-12-3-5-10-1m-246 3q-3 4 3 6c3 1 5-5 2-7q-2-2-5 1m122-1c-4 3-1 8 4 6a4 4 0 1 0-4-6m-429 1c-3 2 3 9 8 9q6 0 0-7-5-5-8-2m336 1q-3 5 3 5 7 2 7-3c0-4-8-6-10-2m317 3q-8 8 7 12 16 4 15-3c0-10-15-16-22-9m-494 3c0 4 5 10 7 10q4-1 1-6-6-12-8-4m306 0q-4 3 1 5 12 0 5-5zm44 0c-1 1 2 10 3 11q5-1 3-8-3-7-6-3m-420 5c-3 3-2 9 0 10q5 0 5-8-2-8-5-2m175 0c-3 4 2 8 7 6q6-2 1-5t-8-1m122 2c-1 2-3 10-2 12 1 5 6 1 7-6q1-10-5-6m-259 10q-2 6 6 7 4 1 3-3 0-4-2-4zm66 4q1 3-2 6c-4 6 2 9 7 3q5-6 2-7l-3-2q-3-4-4 0m-150 3c-2 3 1 12 3 12 4 0 6-9 4-13q-4-2-7 1m435 2c-2 0-5 7-5 9q1 4 7 6c5 2 13-4 13-9s-8-8-15-6m-247 1c-4 4 3 17 7 15q4-1-2-14-2-3-5-1m398 2q-3 2 0 9c4 9 9 6 7-3q-3-10-7-6m-641 2c-2 1-3 8-1 10q8 4 11-4 0-9-10-6m490 1 1 4q6 3 8-4c0-3-8-3-9 0m54 4c-7 7-3 12 4 4q7-7 1-9zm-507-2q-3 4-1 6c1 1 7-2 8-4q0-6-7-2m265 2q-5 3-4 5 2 6 12-1c6-6 0-8-8-4m51 6q-7 6-3 8 5 3 9-4 6-12-6-4m-226-2c-5 0-10 8-7 12 4 6 17 1 17-7q0-7-10-5m293 1q-2 4 1 7 6 1 8-4c0-4-6-6-9-3m-333 2q-5 6 7 4 7-1 3-4c-2-2-8-2-10 0m39 2q-3 2-1 3 3 4 6 0 3-2 0-4-3-3-5 1m558-1c-4 3-1 9 5 9q5 0 6-7c0-3-9-5-11-2m-96 0-3 3c1 3 12 4 13 1q2-6-10-4m-131 12q-3 5 1 8 6-1 8-5c0-3-6-5-9-3m167 3c-3 6 1 13 9 13 7 0 9-9 3-13q-7-4-12 0m-459 3q-4 7 1 9 6 1 5-7 0-5-3-6zm-128 1q-1 4 4 8 6 3 4-4-5-7-8-4m487 2q-4 4 0 7 7 3 10-2c3-4-5-8-10-5m-317 3a5 5 0 1 0 6-1q-4-5-6 1m172 3q-2 5 8 6 8 4 7-2c-1-3-14-6-15-4M2 337q-2-1-2 7v6h5q8 0 8-5 2-11-11-8m450 2-2 3-1 3c-2 0-1 5 1 6 3 3 13 2 16-1q3-6-1-10c-1-2-11-2-13-1m-340 3q-4 6 0 8 4 0 6-8-1-6-6 0m249-1q-2 5 7 8 8 5 7-1 1-2-5-5-9-6-9-2m95 2c-4 2-1 7 3 6q6-3 2-7-2-2-5 1m-419 4q-6 4-4 7 2 5 7-1 8-12-3-6m129 0-1 2q0 3-4 4-3 0-2 3h8c4 4 10 1 9-4q-3-7-10-5m157 0c-5 3 0 8 6 7 3-1 4-6 2-7zm299 4q1 12 7 8c3-2 0-11-4-12q-4-1-3 4m-348 3q-8 13 3 16 2 1 9-5c7-6 7-6 4-10-3-2-14-3-16-1m429 1v9c2 2 8-5 7-9q-3-4-7 0m-186 0c-2 2 0 9 3 9a5 5 0 1 0-3-9m-240 4q-3 4 2 5c4 0 7-6 4-7q-2-2-6 2m470 0c-4 5 3 8 8 4q3-3 1-4-4-4-9 0m-92 6q-2 6 7 7 6 0 5-4l-1-3-3-1q-5-4-8 1m-584 0c-2 0-1 7 0 8q6 0 8-3c2-3-4-7-8-5m696 7q-5 6-2 10 4 5 4-5 1-12-2-5m-392 2q-3 5 1 8 6 1 8-6c0-3-6-4-9-2m-253 9q-5 7-2 10c6 4 15-8 9-12q-3-5-7 2m447-2q-6 2-3 9 3 10 12 7 6-4 4-11-3-9-13-5m-347 1q-2 2 1 6c3 2 11 1 11-2s-11-6-12-4m228 0c-7 1-7 7 0 7 6 0 12-6 7-7zm-270 3q-4 0-5 4-6 7 7 6 13 0 13-6 1-7-15-4m81 5c-6 4-8 13-2 14q5 0 7-11 0-7-5-3m152 0q-8 9-3 12c4 1 10-7 8-12q-1-4-5 0m283 0q-7 1-6 7 0 7 11 7 11 2 9-6-1-10-14-8m-675 3q-3 2 5 7c7 5 10 1 4-4q-7-5-9-3m46 4q-4 5-6 5-14 2-7 12c3 3 24 0 24-3l1-2c1 0 4-8 3-10q-4-10-15-2m427-1q0 8 8 3 5-5-3-6-5-1-5 3m203-2c-5 3 1 10 6 7q5-4-1-6-3-3-5-1m-157 4c-3 3 0 11 4 11s4-8 0-11q-3-3-4 0m-471 4q-10 7-2 8c6 0 12-7 9-11q-1-3-7 3m231-1q-5 7 11 8 12 0 5-5-12-5-16-3m59 2q-7 7-3 12 4 7 13 4 15-4 9-13c-2-6-15-8-19-3m269 1-3 1c-3 0-6 5-5 7q2 6 9-1 7-8 2-8zm-266 3q-3 5 0 7c4 3 12 0 12-5s-9-7-12-2m382 9c-1 4 2 11 5 9q6-2 2-8-5-5-7-1m-550 3q-2 2-1 4c1 3 8 2 10-1 1-5-7-7-9-3m-72 7q-2 4 3 10c6 5 8-3 2-9q-2-3-5-1m340 2c-5 3-1 16 5 16a8 8 0 0 0 1-16zm170 0c-5 6 6 17 14 14 5-3 6-11 1-14zm5 3c-4 3 3 10 7 7q6-3 1-7-4-4-8 0M0 435q-1 6 4 2 4-3 0-6t-4 4m577-2q-6 6 0 8c5 1 8-6 4-9q-2-3-4 1m-157 1q-5 4 4 7 13 3 11-2c-2-3-13-6-15-5m-194 2q-3 1-3 3c0 4 11 4 12 0 2-5-4-6-9-3m-62 2q-4 6-3 9c1 5 8 0 9-7q0-7-6-2m-127 3q-6 3-2 6c4 2 12-4 10-7q-1-2-8 1m449 1q-5 0-5 4 1 5 8 3c5-3 3-8-3-7m51 2c-4 5 1 10 6 6q6-3 0-5-4-3-6-1m-447 3q-7 4-3 6 4 4 11-3 3-7-8-3m579 2q-6 5-3 7 5 5 10-6 5-9-7-1m40-2c-8 4-5 10 3 8q5 0 4-5-2-6-7-3m-401 2q-4 4 3 11c5 5 11 2 8-4l-1-4q-1-5-6-5zm-38 4q-8 7 1 8l4 1c2 1 8-4 8-7 0-2-5-7-7-7q-2 0-6 5m102 1q-6 7-2 10 5 3 9-6 5-13-7-4m155 11q-3 8 0 8c3 3 13 4 14 1q2-3-5-7-8-7-9-2m70 4q-3 2 3 7 6 6 7 0c0-5-7-10-10-7m38 2v7c5 2 12-3 9-6q-3-3-9-1m115 0q-9-1-8 7-1 7 7 9c6 4 16-1 15-8l-6-8zM9 474q-7 5-2 12 5 6-1 6l-3 3q3 4 6 0l2-3 5 3q11 4 6-6-2-2-2-8 2-7-3-9-4-3-8 2m144-1c-10 2-12 11-6 15q6 5 10-2l7-6c8-6 0-11-11-7m258 1-1 4c0 6 12 6 13 1 0-5-8-8-12-5m338 0c-5 3-3 10 3 10q11-2 4-9-3-3-7-1m-707 5q-2 2 4 8t7 0c0-4-8-10-11-8m161 2q-5 4 6 9a4 4 0 0 0 6-6c0-3-10-5-12-3m54 5c-4 4 6 15 11 12q2-3-5-11-4-3-6-1m-144 9q-5 9 4 10a7 7 0 0 0-1-14zm-35 0q-4 7 2 9 4 1 4-8-2-7-6-1m629 1c-3 5 3 11 6 6 2-2-1-8-5-8zm-242 1q-6 5-2 8 5 4 8-3 1-10-6-5m48-1q-4 1 1 7 4 6 7 1c2-5-4-10-8-8m-217 4c-1 5 6 10 9 5q2-6-5-8-3 0-4 3m301 3c0 8 20 13 24 5l2-3-3-3c-2-3-3-3-13-3h-10zm-205-1q-8 2-8 8c0 2 0 2 10 2q11 1 9-2c0-3-4-9-6-9zm-51 5q-4 6 7 5 12 1 1-5-7-5-8 0"
        mask="url(#16282281824-posters-1720559190985-horizontal-mask)" itemprop="bold" fill-opacity="0.90"
        fill-rule="evenodd" stroke="none" fill="url(#16282281824-posters-1720559190985-vertical-bold)"></path>
    </pattern>
    <rect id="16282281824-posters-1720559190985-pattern-render" fill="url(#16282281824-posters-1720559190985-pattern)"
      width="100%" height="100%"></rect>
  </defs>
  <radialGradient id="lightbar" cx="50%" cy="200%" fy="0" r="201%">
    <stop offset="0%" style="stop-color: rgb(255, 255, 255); stop-opacity: 0.1;"></stop>
    <stop offset="10%" style="stop-color: rgb(0, 0, 0); stop-opacity: 0.1;"></stop>
    <stop offset="30%" style="stop-color: rgb(0, 0, 0); stop-opacity: 0.3;"></stop>
    <stop offset="90%" style="stop-color: rgb(0, 0, 0); stop-opacity: 0.55;"></stop>
    <stop offset="100%" style="stop-color: rgb(0, 0, 0); stop-opacity: 0.6;"></stop>
  </radialGradient>
  <g class="radial">
    <radialGradient id="16282281824-posters-1720559190985-radial" gradientUnits="userSpaceOnUse">
      <stop itemprop="radial" stop-color="#dad9d8" offset="0%"></stop>
      <stop itemprop="radial" stop-color="#dad9d8" offset="15%"></stop>
      <stop itemprop="radial" stop-color="#dad9d8" offset="30%"></stop>
      <stop itemprop="radial" stop-color="#dcdbdb" offset="45%"></stop>
      <stop itemprop="radial" stop-color="#dad9d8" offset="60%"></stop>
      <stop itemprop="radial" stop-color="#dcdcda" offset="75%"></stop>
      <stop itemprop="radial" stop-color="#dad9d8" offset="90%"></stop>
    </radialGradient>
    <radialGradient id="16282281824-posters-1720559190985-radial-background" gradientUnits="userSpaceOnUse">
      <stop stop-color="#d3cec5" offset="0%"></stop>
      <stop stop-color="#d3cec5" offset="15%"></stop>
      <stop stop-color="#d3cfc5" offset="30%"></stop>
      <stop stop-color="#d3cec5" offset="45%"></stop>
      <stop stop-color="#d3cfc5" offset="60%"></stop>
      <stop stop-color="#d3cec5" offset="75%"></stop>
      <stop stop-color="#d3cec5" offset="90%"></stop>
    </radialGradient>
    <radialGradient id="16282281824-posters-1720559190985-radial-light" gradientUnits="userSpaceOnUse">
      <stop stop-color="#9c9a96" offset="0%"></stop>
      <stop stop-color="#9c9a96" offset="15%"></stop>
      <stop stop-color="#9b9a97" offset="30%"></stop>
      <stop stop-color="#9b9a97" offset="45%"></stop>
      <stop stop-color="#9b9a97" offset="60%"></stop>
      <stop stop-color="#9c9a96" offset="75%"></stop>
      <stop stop-color="#9c9a96" offset="90%"></stop>
    </radialGradient>
    <radialGradient id="16282281824-posters-1720559190985-radial-regular" gradientUnits="userSpaceOnUse">
      <stop stop-color="#83817c" offset="0%"></stop>
      <stop stop-color="#83817c" offset="15%"></stop>
      <stop stop-color="#82817d" offset="30%"></stop>
      <stop stop-color="#82807d" offset="45%"></stop>
      <stop stop-color="#82817d" offset="60%"></stop>
      <stop stop-color="#83817c" offset="75%"></stop>
      <stop stop-color="#83817c" offset="90%"></stop>
    </radialGradient>
    <radialGradient id="16282281824-posters-1720559190985-radial-medium" gradientUnits="userSpaceOnUse">
      <stop stop-color="#51504d" offset="0%"></stop>
      <stop stop-color="#51504d" offset="15%"></stop>
      <stop stop-color="#51504d" offset="30%"></stop>
      <stop stop-color="#514f4d" offset="45%"></stop>
      <stop stop-color="#51504d" offset="60%"></stop>
      <stop stop-color="#51504d" offset="75%"></stop>
      <stop stop-color="#51504d" offset="90%"></stop>
    </radialGradient>
    <radialGradient id="16282281824-posters-1720559190985-radial-bold" gradientUnits="userSpaceOnUse">
      <stop stop-color="#2f2e2d" offset="0%"></stop>
      <stop stop-color="#2f2e2d" offset="15%"></stop>
      <stop stop-color="#2f2e2d" offset="30%"></stop>
      <stop stop-color="#2f2e2d" offset="45%"></stop>
      <stop stop-color="#2f2e2d" offset="60%"></stop>
      <stop stop-color="#2f2e2d" offset="75%"></stop>
      <stop stop-color="#2f2e2d" offset="90%"></stop>
    </radialGradient>
  </g>
  <g class="vertical">
    <linearGradient id="16282281824-posters-1720559190985-vertical" gradientUnits="userSpaceOnUse" x1="0" x2="0" y1="0"
      y2="100%">
      <stop itemprop="vertical" stop-color="#dad9d8" offset="0%"></stop>
      <stop itemprop="vertical" stop-color="#dad9d8" offset="15%"></stop>
      <stop itemprop="vertical" stop-color="#dad9d8" offset="30%"></stop>
      <stop itemprop="vertical" stop-color="#dcdbdb" offset="45%"></stop>
      <stop itemprop="vertical" stop-color="#dad9d8" offset="60%"></stop>
      <stop itemprop="vertical" stop-color="#dcdcda" offset="75%"></stop>
      <stop itemprop="vertical" stop-color="#dad9d8" offset="90%"></stop>
    </linearGradient>
    <linearGradient id="16282281824-posters-1720559190985-vertical-background" gradientUnits="userSpaceOnUse" x1="0"
      x2="0" y1="0" y2="100%">
      <stop stop-color="#ceccca" offset="0%"></stop>
      <stop stop-color="#ceccca" offset="15%"></stop>
      <stop stop-color="#cdcccb" offset="30%"></stop>
      <stop stop-color="#cdcccb" offset="45%"></stop>
      <stop stop-color="#cdcccb" offset="60%"></stop>
      <stop stop-color="#ceccca" offset="75%"></stop>
      <stop stop-color="#ceccca" offset="90%"></stop>
    </linearGradient>
    <linearGradient id="16282281824-posters-1720559190985-vertical-light" gradientUnits="userSpaceOnUse" x1="0" x2="0"
      y1="0" y2="100%">
      <stop stop-color="#ae9f84" offset="0%"></stop>
      <stop stop-color="#ae9f84" offset="15%"></stop>
      <stop stop-color="#aea284" offset="30%"></stop>
      <stop stop-color="#ae9f84" offset="45%"></stop>
      <stop stop-color="#aea284" offset="60%"></stop>
      <stop stop-color="#ae9f84" offset="75%"></stop>
      <stop stop-color="#ae9f84" offset="90%"></stop>
    </linearGradient>
    <linearGradient id="16282281824-posters-1720559190985-vertical-regular" gradientUnits="userSpaceOnUse" x1="0" x2="0"
      y1="0" y2="100%">
      <stop stop-color="#83817c" offset="0%"></stop>
      <stop stop-color="#83817c" offset="15%"></stop>
      <stop stop-color="#82817d" offset="30%"></stop>
      <stop stop-color="#82807d" offset="45%"></stop>
      <stop stop-color="#82817d" offset="60%"></stop>
      <stop stop-color="#83817c" offset="75%"></stop>
      <stop stop-color="#83817c" offset="90%"></stop>
    </linearGradient>
    <linearGradient id="16282281824-posters-1720559190985-vertical-medium" gradientUnits="userSpaceOnUse" x1="0" x2="0"
      y1="0" y2="100%">
      <stop stop-color="#51504d" offset="0%"></stop>
      <stop stop-color="#51504d" offset="15%"></stop>
      <stop stop-color="#51504d" offset="30%"></stop>
      <stop stop-color="#514f4d" offset="45%"></stop>
      <stop stop-color="#51504d" offset="60%"></stop>
      <stop stop-color="#51504d" offset="75%"></stop>
      <stop stop-color="#51504d" offset="90%"></stop>
    </linearGradient>
    <linearGradient id="16282281824-posters-1720559190985-vertical-bold" x1="0" x2="0" y1="0" y2="100%">
      <stop stop-color="#2f2e2d" offset="0%"></stop>
      <stop stop-color="#2f2e2d" offset="15%"></stop>
      <stop stop-color="#2f2e2d" offset="30%"></stop>
      <stop stop-color="#2f2e2d" offset="45%"></stop>
      <stop stop-color="#2f2e2d" offset="60%"></stop>
      <stop stop-color="#2f2e2d" offset="75%"></stop>
      <stop stop-color="#2f2e2d" offset="90%"></stop>
    </linearGradient>
  </g>
  <g class="horizontal">
    <linearGradient id="16282281824-posters-1720559190985-horizontal" x1="0" x2="100%" y1="0" y2="0"
      gradientUnits="userSpaceOnUse">
      <stop itemprop="horizontal" stop-color="#dad9d8" offset="0%"></stop>
      <stop itemprop="horizontal" stop-color="#dad9d8" offset="15%"></stop>
      <stop itemprop="horizontal" stop-color="#dcdcda" offset="30%"></stop>
      <stop itemprop="horizontal" stop-color="#dcdcdb" offset="45%"></stop>
      <stop itemprop="horizontal" stop-color="#dad9d8" offset="60%"></stop>
      <stop itemprop="horizontal" stop-color="#dad9d8" offset="75%"></stop>
      <stop itemprop="horizontal" stop-color="#dad9d8" offset="90%"></stop>
    </linearGradient>
    <linearGradient id="16282281824-posters-1720559190985-horizontal-background" gradientUnits="userSpaceOnUse" x1="0"
      x2="100%" y1="0" y2="0">
      <stop stop-color="#ceccca" offset="0%"></stop>
      <stop stop-color="#ceccca" offset="15%"></stop>
      <stop stop-color="#ceccca" offset="30%"></stop>
      <stop stop-color="#cdcccb" offset="45%"></stop>
      <stop stop-color="#cdcccb" offset="60%"></stop>
      <stop stop-color="#ceccca" offset="75%"></stop>
      <stop stop-color="#ceccca" offset="90%"></stop>
    </linearGradient>
    <linearGradient id="16282281824-posters-1720559190985-horizontal-light" gradientUnits="userSpaceOnUse" x1="0"
      x2="100%" y1="0" y2="0">
      <stop stop-color="#9c9a96" offset="0%"></stop>
      <stop stop-color="#9c9a96" offset="15%"></stop>
      <stop stop-color="#9c9a96" offset="30%"></stop>
      <stop stop-color="#9b9a97" offset="45%"></stop>
      <stop stop-color="#9b9a97" offset="60%"></stop>
      <stop stop-color="#9c9a96" offset="75%"></stop>
      <stop stop-color="#9c9a96" offset="90%"></stop>
    </linearGradient>
    <linearGradient id="16282281824-posters-1720559190985-horizontal-regular" gradientUnits="userSpaceOnUse" x1="0"
      x2="100%" y1="0" y2="0">
      <stop stop-color="#968669" offset="0%"></stop>
      <stop stop-color="#968669" offset="15%"></stop>
      <stop stop-color="#968669" offset="30%"></stop>
      <stop stop-color="#968969" offset="45%"></stop>
      <stop stop-color="#968969" offset="60%"></stop>
      <stop stop-color="#968669" offset="75%"></stop>
      <stop stop-color="#968669" offset="90%"></stop>
    </linearGradient>
    <linearGradient id="16282281824-posters-1720559190985-horizontal-medium" gradientUnits="userSpaceOnUse" x1="0"
      x2="100%" y1="0" y2="0">
      <stop stop-color="#5d5341" offset="0%"></stop>
      <stop stop-color="#5d5341" offset="15%"></stop>
      <stop stop-color="#5d5341" offset="30%"></stop>
      <stop stop-color="#5d5541" offset="45%"></stop>
      <stop stop-color="#5d5541" offset="60%"></stop>
      <stop stop-color="#5d5341" offset="75%"></stop>
      <stop stop-color="#5d5341" offset="90%"></stop>
    </linearGradient>
    <linearGradient id="16282281824-posters-1720559190985-horizontal-bold" gradientUnits="userSpaceOnUse" x1="0"
      x2="100%" y1="0" y2="0">
      <stop stop-color="#2f2e2d" offset="0%"></stop>
      <stop stop-color="#2f2e2d" offset="15%"></stop>
      <stop stop-color="#2f2e2d" offset="30%"></stop>
      <stop stop-color="#2f2e2d" offset="45%"></stop>
      <stop stop-color="#2f2e2d" offset="60%"></stop>
      <stop stop-color="#2f2e2d" offset="75%"></stop>
      <stop stop-color="#2f2e2d" offset="90%"></stop>
    </linearGradient>
  </g>
  <g class="masks">
    <mask id="16282281824-posters-1720559190985-pattern-mask" maskUnits="userSpaceOnUse"
      maskContentUnits="userSpaceOnUse">
      <pattern id="pattern" x="0" y="0" width=".0133" height=".0144" viewBox="0 0 23.07 40">
        <path
          d="M17.62 0l-6.07 10.5m2.74 4.76L8.22 4.75m-5.48 0h12.13M.01 0h23.07M6.07 20L0 9.5m2.74-4.75l-6.07 10.5m-5.48 0H3.33m8.2 4.75L0 .02-11.54 20m40.68 0L23.07 9.5m2.74-4.75l-6.06 10.5m-5.49 0H26.4M34.6 20L23.08.02 11.53 20m-5.46 0L0 30.51m2.74 4.75l-6.07-10.5m-5.48 0H3.33m8.2-4.75L0 40l-11.54-19.98zM17.6 40l-6.06-10.5m2.74-4.76L8.2 35.25m-5.48 0h12.13M0 40h23.07L11.54 20.01m17.6 0l-6.07 10.5m2.74 4.75l-6.06-10.5m-5.49 0H26.4M11.53 20h23.08L23.07 40"
          stroke-linecap="round" stroke-width="3.5" stroke="white"
          fill="url(#16282281824-posters-1720559190985-horizontal-background)"></path>
      </pattern>
      <rect width="100%" height="100%" fill="url(#pattern)"></rect>
    </mask>
    <mask id="16282281824-posters-1720559190985-horizontal-mask" maskUnits="userSpaceOnUse"
      maskContentUnits="userSpaceOnUse">
      <rect width="100%" height="100%" fill="url(#16282281824-posters-1720559190985-horizontal-background)"></rect>
    </mask>
    <mask id="16282281824-posters-1720559190985-radial-mask" maskUnits="userSpaceOnUse"
      maskContentUnits="userSpaceOnUse">
      <rect width="100%" height="100%" fill="url(#16282281824-posters-1720559190985-radial-background)"></rect>
    </mask>
    <mask id="16282281824-posters-1720559190985-vertical-mask" maskUnits="userSpaceOnUse"
      maskContentUnits="userSpaceOnUse">
      <rect width="100%" height="100%" fill="url(#16282281824-posters-1720559190985-vertical-background)"></rect>
    </mask>
  </g>
  <use href="#16282281824-posters-1720559190985-pattern-render"></use>
  <g>
    <use href="#16282281824-posters-1720559190985-background"></use>
    <use href="#16282281824-posters-1720559190985-light"></use>
    <use href="#16282281824-posters-1720559190985-regular"></use>
    <use href="#16282281824-posters-1720559190985-medium"></use>
    <use href="#16282281824-posters-1720559190985-bold"></use>
  </g>
  <g itemprop="animation">
    <animate href="#16282281824-posters-1720559190985-light" attributeName="stroke-opacity" repeatCount="indefinite"
      dur="5s" values="0.9;0.0;0.9"></animate>
    <animate href="#16282281824-posters-1720559190985-regular" attributeName="stroke-opacity" repeatCount="indefinite"
      dur="4s" values="0.9;0;0.9"></animate>
    <animate href="#16282281824-posters-1720559190985-medium" attributeName="stroke-opacity" repeatCount="indefinite"
      dur="5s" values="0.9;0;0.9"></animate>
    <animate href="#16282281824-posters-1720559190985-bold" attributeName="stroke-opacity" repeatCount="indefinite"
      dur="3s" values="0.9;0;0.9"></animate>
    <animate href="#16282281824-posters-1720559190985-regular" attributeName="fill-opacity" repeatCount="indefinite"
      dur="8s" values="0.9;0.75;0.95;0.8;0.9;"></animate>
    <animate href="#16282281824-posters-1720559190985-radial-background" attributeName="cx" repeatCount="indefinite"
      dur="34s" values="0%;33%;100%;0%;100%;0%;"></animate>
    <animate href="#16282281824-posters-1720559190985-radial-background" attributeName="cy" repeatCount="indefinite"
      dur="55s" values="0%;100%;33%;100%;66%;0%"></animate>
    <animate href="#16282281824-posters-1720559190985-vertical-light" attributeName="x1" repeatCount="indefinite"
      dur="55s" values="0%;33%;100%;0%;133%;0%;"></animate>
    <animate href="#16282281824-posters-1720559190985-vertical-light" attributeName="y1" repeatCount="indefinite"
      dur="86s" values="0%;100%;33%;100%;66%;0%"></animate>
    <animate href="#16282281824-posters-1720559190985-horizontal-regular" attributeName="x1" repeatCount="indefinite"
      dur="34s" values="0%;100%;66%;0%;33%;133%;0%"></animate>
    <animate href="#16282281824-posters-1720559190985-horizontal-regular" attributeName="y1" repeatCount="indefinite"
      dur="55s" values="0%;66%;100%;33%;100%;66%;0%"></animate>
    <animate href="#16282281824-posters-1720559190985-vertical-medium" attributeName="x1" repeatCount="indefinite"
      dur="34s" values="0%;100%;66%;0%;33%;133%;0%"></animate>
    <animate href="#16282281824-posters-1720559190985-vertical-medium" attributeName="y1" repeatCount="indefinite"
      dur="55s" values="0%;66%;100%;33%;100%;66%;0%"></animate>
    <animate href="#16282281824-posters-1720559190985-vertical-bold" attributeName="x1" repeatCount="indefinite"
      dur="34s" values="0%;100%;66%;0%;33%;133%;0%"></animate>
    <animate href="#16282281824-posters-1720559190985-vertical-bold" attributeName="y1" repeatCount="indefinite"
      dur="55s" values="0%;66%;100%;33%;100%;66%;0%"></animate>
  </g>
</svg>
