<svg id="16282281824-posters-1720553686607" itemscope="" itemtype="/posters"
  itemid="/+16282281824/posters/1720553686607" viewBox="0 0 769 512" preserveAspectRatio="xMidYMid meet" tabindex="0"
  class="animate landscape" xmlns="http://www.w3.org/2000/svg">
  <!---->
  <defs class="graphic">
    <pattern id="16282281824-posters-1720553686607-pattern" width="769" height="512" viewBox="0 0 769 512"
      patternUnits="userSpaceOnUse" preserveAspectRatio="xMidYMid meet">
      <rect itemprop="background" width="769" height="512" tabindex="-1"
        id="16282281824-posters-1720553686607-background" fill-opacity="1"
        fill="url(#16282281824-posters-1720553686607-radial-background)"></rect>
      <!---->
      <path id="16282281824-posters-1720553686607-light"
        d="M0 9q0 12 3 5l4-8q5 1 8 8c2 4 1 5-4 14-4 4-3 15 0 19 8 7 17 2 19-12a64 64 0 0 0-9-31l-2-4H0zm34-7c-8 10-1 32 9 29 5-2 5-16-1-28q-3-5-8-1m29 2q-16 12-9 21 3 5 0 4-3 2-1 9c3 8 11 7 15-1 2-3 2-4 0-11q-4-12-2-14 4-3 7 2 17 28 26 20 7-8-10-24l-8-9-7-1c-7 0-8 0-11 4m29-3 3 5 2 6c0 7 7 17 15 21q6 5 9-1 8-5-7-24l-6-8h-9q-9 0-7 1m79 0 10 4q7 1 8 6 0 5-14 4c-19-1-37 11-29 20q5 8 19-4 12-9 8 4c-1 8 3 22 9 25 10 7 15-9 8-25q-5-10 1-11 3-1 6 6l2 6 1 2 5 10 4 7 1 8c-1 7 1 17 6 22l4 6c2 3 14 10 18 10 17 0 11-19-7-25q-12-3-9-10-1-2 6-2c18 0 31-13 21-21q-5-4-16 3-13 8-20-4-4-9 6-5c8 3 10 4 15 4 12 0 19-10 10-16l-12-3c-8-1-10-1-20 3-5 1-6 1-8-9q-3-18 9-5c3 3 17 4 20 2q5-4 1-11l-1-2h-31zm69 0c0 2 5 6 7 6s9-4 10-6l-8-1zm44 2c-5 4-6 13-1 17q4 4 18-6 10-8 15-5c5 3 6 6 2 18l-3 14q-2 10-5 7c-4-8-15-17-23-21-7-2-15 1-15 7 0 3 7 10 12 11l4 1 3 1q12 1 2 7c-7 4-16 13-16 17 0 10 10 12 17 3 10-12 11-13 14-10q6 8-3 17c-8 8-9 8-17 3-15-9-33-4-33 9 0 9 9 10 19 3q6-4 10 0c2 1 2 1-1 8-7 19 1 39 12 30 5-5 6-10 5-23V98l2-4c3-6 9-5 9 2l3 9 1 6c0 11 11 16 16 7q7-12-4-27-8-15 5-6c8 5 9 7 9 17q0 17 9 20c14 4 12-24-2-39q-11-10 1-6 12 5 20-3c3-3-1-10-7-12q-12-3-25 5l-9 2h-3v-8q0-9 2-10l2-3 7 4 17 6c5 1 12-5 10-9q-8-12-26-12h-8l-1-4 1-4 1-4q3-6 9-10 5-2 12 4c11 7 22 5 22-3 0-6-16-15-26-14l-5-1-28-1h-27zm126-2 9 4c5 0 13 14 8 16l-3 1-4 1q-6 2-14 11l-3 4-4-3c-7-5-16-4-16 3q1 7 10 16 8 8-1 12-18 12-10 23 8 7 15-7 6-14 18-10 12 3 0 6c-15 5-25 18-17 24 4 3 6 2 16-4 11-8 12-9 14-8 5 2 9 15 6 18l-2 2-3 4-3 5-1 1c-2 0-1 9 1 11 5 6 13 2 12-5q-2-4 2-5 7-3 8-12l1-3q2-2 7 8c3 7 12 14 18 14 9 0 7-16-3-23l-5-5q-3-4-13-6-12-3-11-7l-1-1c-2 0-5-7-5-9l8-20 2-3 2 2q3 2 1 8-2 22 10 21c13 0 8-31-6-40-4-3-8-12-8-16q0-5 6-9l13-14q6-7-9-6h-11v4q0 14-7 2l-4-6h-12zm97 5v6h-6c-9 1-18 6-18 10l-1 1-1 4q1 8 7 9l8-4 3-5q12-9 19 8c4 10 6 22 4 22a12 12 0 0 1-7-8l-4-4c-12-10-24-11-24-1 0 6 10 15 17 15q4 1 1 2l-11 11q-7 11-3 17 10 9 19-13 2-9 7-8 6 1 1 10l-6 14a18 18 0 0 0 0 19l3 4q11 5 12-16 3-19 9-3c3 6 2 8-1 15-4 11-4 15 1 21 5 5 13 1 15-6 1-6 0-25-2-27l-1-5-2-3-1-1-1-3-5-7-4-5-2-15-2-22q-1-3 2 0l6 8c5 7 17 7 17-1 0-7-16-22-24-22q-5-1 1-6c18-15 19-17 9-17q-8 0-7 2c-1 3-7 7-10 7q-4 1-3-7 2-2-7-2h-8zm70-5 2 6q4 6-1 4-11 0-11 19 0 13 11 24l6 8 2 9q4 12-2 10-4 0-5-4c-4-13-16-20-22-14q-4 4 0 12 8 16 33 18 8 2 6 11t-9 8c-19 0-31 11-20 19 4 2 6 2 17-1q11-3 9 3l-1 3q0 3-7 10-11 11-10 14c0 8 11 11 18 4q15-14 9-42c0-6 3-14 4-10l3 9c2 4 8 10 12 10q6 1 7-8c0-7-1-11-10-21-16-17-17-18-14-21l3-2c7 0 21-12 21-19 0-2-5-8-7-8q-6 1-10 9-10 17-16 0-4-11 11-10 24-3 28-21-1-7-6-9-5 2-11 12-3 8-8 7-8 0-8-8c0-3 10-11 15-11l13-13 1-4V1l-6-1h-6l-9 7q-17 14-13-4V0h-9zm106 7v7h-3l-20 5q-4 1-12 9-12 13 2 15c5 0 7-2 17-11 8-8 10-8 15-5q7 5 1 12l-6 8q-9 15-15 11c-1-2-10-4-15-4-8 0-15 7-13 12q3 8 13 4 10-3 5 3c-6 8-8 21-5 27q4 6 10 5c5-2 5-4 5-17 0-12 0-12 3-15 4-5 5-4 5 15 0 18-1 25-8 31-4 3-5 18-2 20 6 6 15-3 19-19l2-9 1-9q0-9 6-3c4 5 5 10 4 23q-2 13 7 16c6 1 11-12 8-24l-1-9q4-1 5 12l3 13c8 14 20 2 14-14-2-7-11-19-14-19l-5-2-7-2a27 27 0 0 1-15-8c-6 0-7-16-3-28q2-11 13-4c9 4 9 5 9 11-2 14 5 25 14 23 6-2 4-21-3-31q-4-7 6-6c14-2 21-10 14-16q-6-5-14-2l-6 3-5 3c0 2-6 2-9 0q-8-4 7-6c14-1 28-15 22-22q-4-3-17 4l-5 2-6 4q-9 8-5-8l1-9V0h-18zm-101 6 1 3v9q-5 29 5 11 8-13 1-18l-5-4q-2-3-2-1m180 16q-5 4 1 10 8 10 6-3 0-15-7-7m-335 2-8 11-6 5c-5 1-3 11 2 13l4 1 6 2h6l2-4c3-7 3-24-1-27q-3-3-5-1M148 55q-12 2-23 16-4 5-6 5l-10-5-9-6c-21-11-38-11-38-2q1 11 19 15l3 1-9 9q-20 21-7 29 10 5 14-16l2-9q3-4 5 0c3 14 4 16 7 20l3 2-3 2q-11 8-16 22c-3 7-3 8 1 12q8 10 16-12l5-12q1-4 5-5l1 8c2 13 6 26 11 28 8 3 12-14 6-30q-5-11-1-18 4-9 11 5l6 10 2 5-1 5-2 7-1 2c-1 1-5 13-6 21-4 21 17 49 24 32q3-6-5-19c-6-9-7-12-6-20q2-11 5-3l6 12c5 10 14 17 19 15q14-11-10-29-7-5-3-8 5-4 12 1c10 10 13 11 19 11 13 0 8-14-8-21-5-3-7-3-17-3h-12l-2-4c-7-15-6-16 11-18h10l6 6q15 15 23 6 6-5 0-11c-3-3-18-10-24-11q-15 0-7-19 5-12-1-16c-4-4-14 2-16 11l-1 4-8 1q-7-1-12 2-8 4-8-2 1-5 8-6c11 0 23-7 23-14q-1-8-11-6m607 1q-7 7 8 21 8 11 6-7c0-11 0-12-2-14q-8-5-12 0M45 75a17 17 0 0 0-7 16v3l-2-3-11-10-4-2c-10-5-16 11-7 18l4 3 3 2 2 1 4 3c2 1 5 11 4 12l-8-6q-13-12-19-6c-7 5-2 15 10 20q10 4 10 9c2 5 3 22 1 23q-4 2-9-7c-4-6-13-16-15-16s-1 15 1 15v5q-2 0-2 7 0 9 3 4c2-2 10-1 16 2q4 1 4 6 1 6-9 7l-9 2-4 3-1 11q0 17 4 8c8-16 17-19 17-6q0 9-5 10l-7 2c-9 3-9 2-9 16q0 18 3 8c4-11 5-13 10-14q14-2 4 12C4 250 2 257 7 274q8 17 15 6c2-4 2-16 0-23q-4-11-2-14 2-4 8 8 17 38 27 27c3-3 2-13-2-19q-6-8 4-2 15 7 11 16a18 18 0 0 0 7 19h7c4-4 6-17 3-22-5-11-22-24-33-26-14-3-16-4-17-9q-4-13-1-13a2 2 0 1 0-1-3c-1 2-2-5-1-10 3-9 14-1 14 10s11 19 17 13c8-8-3-26-21-36-9-5-10-6-8-15q1-12 7-10 6-1 7 9c2 13 13 21 19 15a10 10 0 0 0 1-14c0-6-17-21-25-21q-6 1-5-8 2-9 9-2 14 13 20 10 5-4 3-8l-9-10c0-1-15-7-19-7q-6-1-1-13l1-4 1-2 10-16c3-7 4-21 1-23q-4-4-9-2m699 2c-5 2-12 8-12 11 0 6 9 9 17 6 18-7 14-24-5-17m-638 6q-2 3 1 9l1 10q0 15 8 0 5-8-2-14c-7-6-7-6-8-5m47 12-7 3q-8 3-2 6c3 1 15-3 15-6q2-7-6-3m609 6q-12 9-13 15c0 7 10 9 16 3l4-4v-9q2-14-7-5m-374 15a33 33 0 0 0-17 26q-2 7-3 1c0-3-5-12-8-14q-6-6-11 0-7 3 2 17c5 11 5 11-3 11q-19 4-10 15 5 7 20 2 18-5 19 13 0 6-6 2l-8-4-15-4q-4-1-9 3l-4 2-1 3q-1 4 3 6l4 4h12q18 0 13 5-2 9-21 8c-13 0-16 1-22 7-8 9 3 18 14 13l6-4 15-6q8-2 3 5-10 11-4 18c9 8 22-9 21-26l-1-8 4-4 4-5q1-5 6-6 4-1 4 10 0 15 9 16 14 2 6-24c-3-11-3-11 8-10 9 0 10 0 13-2 12-7 8-17-7-18-10 0-15 2-23 10q-12 10-13 0l-3-7q-8-17 5-10 14 9 22 5c15-7 2-20-19-20-9 0-9-1-9-4 0-2 6-11 8-11l4-4c7-8 1-16-8-11m-127 16c-2 1-6 7-6 10q1 4-5-2-7-8-13-7-9 1-10 8a27 27 0 0 0 16 17q7 4-1 6c-4 0-13 9-13 13-2 9 8 12 17 4q7-7 14-6 8 0 7 8-3 12-13 10c-16-6-44 14-37 26 4 8 14 5 19-6q4-8 10-9 9-1 1 7l-7 8-11 14-2 3-2 5-3 7c-4 10 0 22 8 22q11 0 12-24c0-13 0-13 3-17q11-14 6 5c-6 18 11 22 17 5q5-10-3-20c-5-7-4-9 8-22 6-7 11-2 7 6-7 14 2 29 12 20a26 26 0 0 0-2-35q-12-10 1-9c19 0 35-15 25-24q-5-7-17 3l-8 7-4 4-3-2-3-7c-2-18-12-31-20-28m222 6c-3 2-5 11-4 19v7h-5l-6-2c-3-3-14 0-16 4q-4 12 17 13c13 1 15 2 18 12q5 18-9 5c-9-10-30-13-34-5-1 3 1 9 5 10l3 2 10 2q14-1 5 5c-13 9-13 26 1 24l-1 2q-15 10-8 20 8 9 20-4 12-12 9-4c-9 16-9 30-2 32q15 4 15-21 0-12 5-13 3-1 5 3 4 12-6 23-12 13-3 23 6 4 11 0l6-11 2-6c3-10 3-12 3-19q0-12 5-7 8 7 5 18c-5 11 2 24 10 21l4-3 1-3 1-9q-1-18 13-4 12 10 17-1 1-15-26-18c-7-1-8-1-13-5l-18-10c-3 0-5-9-2-12q5-6 14 1c14 13 33 7 20-7q-12-13-31-7l-9 3c-2 0-10-10-10-14 0-9 2-10 21-8q15 2 19-4c5-8-6-15-22-13q-9 2-7-4 0-2 13-4l10-2c8-3 8-14-1-16-15-3-31 9-36 28q-1 11-4 5-6-9-1-25c2-9 2-10 0-16q-5-9-14-5m283 6q-7 12-3 16 7 10 6-8c0-12 0-12-3-8m-157-1c-6 4-2 17 7 24a30 30 0 0 1 13 21q1 4-2 4-4-1-5-7c0-3-6-12-9-13q-5-4-11 1-4 5 1 14 6 9 3 11-4 1-9-1c-12-10-32-2-21 7q12 12 39 2 12-4 16 1c1 2 2 19 1 23q-5 8-11-3c-4-9-13-15-18-13q-7 5 3 21 3 5 2 7c-2 2-8 1-10-1-7-6-17-8-22-3q-6 5 0 10l4 4c2 1 11 4 15 3q12-2 18-5 13-8 13-4c0 3-6 12-8 12s-13 11-16 16c-6 11 2 19 12 11q11-7-2 8c-6 7-3 23 5 23 4 0 11-7 11-11l2-5c2-5 2-20 0-25-4-7-1-14 4-10 1 1 2 10 0 11v10c5 13 17 8 17-7 0-10-2-13-9-21-6-7-7-7-5-12l3-8q4-12 14-4 4 3 3 9c-2 16-2 18 0 21 5 9 14 6 14-5 0-14 0-16-3-23q-7-14 6-14c7 0 8 2 7 22-1 15 8 20 15 8 4-6 1-22-6-31q-6-7 0-14c9-13 14-28 10-31-8-7-17 3-21 21-1 11-5 14-23 22-13 5-15-4-3-11a55 55 0 0 0 19-23c2 0 1-12 0-14q-4-4-10 0c-3 2-10 15-10 18 0 6-7 12-9 6q-3-8 3-15 10-10 10-23c0-14-9-19-16-8-2 4-2 6 0 19q0 7-4 5l-6-10c0-2-10-16-12-19q-4-4-9-1m115 20q-5 5-2 9l1 2 10 12 10 10 1 7c1 11 1 12-6 12q-8-2-11-12-8-22-17-15-5 4-3 11l4 6q3 8 11 13l5 3 3 1q8 0 8 11-1 20-6 9-12-24-21-16-6 8 12 26c2 2 10 6 15 7l3 4c4 8 18 21 25 22 4 1 4 9 0 12q-6 3-6 15 1 17-11 8c-7-3-24-4-28 0q-7 6 1 12c3 2 14 2 16 0l6-1q10 1 1 5l-6 3-16 4q-4 1-10-5c-13-13-31-16-36-6q-2 4 1 8l3 3 12-1q19 0 13 5c-1 2-13 5-20 5q-4 2-10-6-11-13-34-16-7 1-8 7l-6-1q-9-2-10 6 1 12 29 21 8 3 3 7-6 4-15 1c-5-2-14 2-14 7 0 2 6 8 9 9a34 34 0 0 0 34-18q4-6 9-5l7-1q15-3 15 1l-5 2c-16 2-22 19-7 19 9 0 27-15 27-23q1-4 10-7l8-3q14-6 15-3c0 1-6 6-8 6s-8 6-9 9c-1 5 6 10 11 8l14-12c2-2 5-9 5-12q0-5 8-7h5v-69q1-7-2-6l-2-1-5-1q-6 0-10-13-4-15 3-7c3 3 14 9 15 9l1-9v-9l-3 1q-9 1-13-15c-1-7 6-17 13-20q4-1 3-6 2-7-6-1-12 7-8 2 2-4 9-6l5-1v-10l-1-11q-6 0-14 8-11 11-12 0c-1-8-2-9-5-12q-7-7-13-1M88 174q-5 2-5 20a36 36 0 0 0 3 17l1 5c4 7 4 10 2 17a34 34 0 0 0 5 31c2 5 8 10 10 10 6 0 9-11 5-18l-6-10q-4-4-3-8 1-2 7 1l6 3q3 0 5 6 3 16 16 21l5 3c7 4 15-4 12-11-2-4-10-9-14-9-7 0-10-9-3-12q14-5 21-23c4-8 4-8 0-11q-4-5-11-1-6 6-7 12 0 13-10 13-4 1-2-2c7-8 8-21 1-28-11-11-20 3-13 20q2 5-4 6c-7-1-13-18-10-27 3-7 2-19-2-22q-4-5-9-3m107 11q-10 7-14 19l-2 6a45 45 0 0 0 1 23q1 6 8 13c5 5 5 5 9 1q9-6-1-19-11-14 1-23 8-7 8-13-1-10-10-7m288 31c-3 2-10 11-10 14l-1 1-1 1 12 1h16l5 1v-4c0-12-10-19-21-14m-79 9c-5 2-20 16-25 23q-7 12-15 8c-16-5-41 9-32 19q7 7 22-5 12-7 10 3 0 7-11 7-18 2-24 18-3 4 0 7 11 8 26-12 5-5 5 4a78 78 0 0 0 8 28l1 1c0 3 7 11 10 13 9 5 17-2 14-13q-2-6 3-3 5 2 8-5 1-5-8-15-10-13 5-7 17 9 24 4c5-5 1-13-10-16q-3-1-1-3 5-4-4-15c-3-3-14-10-18-11q-6-2 13-10c7-3 8-3 10-8q3-8-3-12zm-106 23q-5 7-3 19 3 14-10-1l-5-6-1-1c0-3-10-7-15-6q-9 4-4 10l4 5 3 3 7 4 7 4c1 0 6 6 5 7l-5 5c-11 7-18 25-12 30 6 4 16-4 19-15q5-14 9-7 3 6-5 14-9 10-3 16 8 9 18-11c4-7 5-21 2-25-2-2-2-10 1-15 3-4 6-14 6-19 0-13-11-20-18-11m-132 7c-3 3-3 3-3 8 1 5 5 15 9 20q4 6-2 3-21-10-23 3 1 5 11 11 8 4 20 0 8-2 9 1 1 1-7 4c-7 2-8 3-12 7a19 19 0 0 0-8 14l-1 11 1 2c3 6 16 3 14-4l1-2q3-3-1-4-3 1 1-2l4-5 2-5 2-3 1 3 2 5 3 4q3 3 2 4-2 7 9 6l4-1v-5l-2-11c-6-12 1-12 11 1q9 10 2 15-2 2-1 4 0 3-2 2c-10 0-15 28-6 34 7 4 15-6 14-17v-16l5-1h4l-1 5-2 9c-6 14 4 31 13 22 2-3 5-13 5-21q1-7 6 4c5 13 21 17 23 7 2-7-12-22-21-23l-6-3-2-2a20 20 0 0 1-9-10l-2-2q0-3-4-7-10-11 8 1c9 8 22 7 22-1 0-9-15-16-34-16-12-1-14-1-19-6q-4-4 2 0c3 2 18 2 20 0 8-8-2-17-19-17l-12 1q-13 6-11-7c3-14-12-28-20-20m532 9q-8 3-5 18c3 13 3 15-1 18l-3 2q-3-1-5-9-3-14-14-12-4 0-3 5v6c-2 5 6 16 16 21 18 10 48-9 48-31 0-13-14-11-16 2l-2 11q-1 6-5 8-9 5-4-3c11-14 6-41-6-36m-316 3q-5 3-8 17-1 13 10 4l15-5q5 1 2-2l-2-2q-1 1-6-6-7-9-11-6m82 7-4 4q-2 3-5 3-10 1-13 10c-1 3-1 3 3 12 1 3 10 13 11 13l5 2c11 5 27 2 35-6 6-6 3-15-5-15a22 22 0 0 0-12 6l-1-9q0-24-14-20M1 293v9l5 1c9 1 11 1 14-3q8-10-10-14l-7-2q-2-1-2 9m116 3c-6 5-2 13 6 15q10 0 6 8-5 12 7 14 6-1 3-6-2-2 1-3c8-3 6-15-4-24-6-7-15-8-19-4m443 6c-4 4-9 16-9 23q0 13-11 9l-8-2-5-1c-1-1-9 1-12 4-12 11 15 22 32 13 6-3 7-3 11 2q10 12 6 25c-2 6-13 2-13-6 0-3-7-8-11-9-13-1-10 17 4 25 8 5 9 9 3 20-6 12-1 21 8 17q8-3 7-22 3-20 8 1c3 17 28 36 35 28 6-7 0-17-11-20q-6-1-2-2l3-1 4-1c5-1 14-11 14-15q-1-7-9-9-6 1-13 10-9 10-12-4-3-9 7-10c8-2 10-3 16-11 5-7 3-16-4-16q-5 1-11 11-9 12-8-4 1-13 9-19 16-12 8-21-7-7-14 6l-4 8q-3 3-4 7-7 13-9-4c-1-5-1-6 2-12 6-10 4-21-3-21zM7 309l-5 2-1 12v13l4 4q13 13 0 12H0v22c0 24 0 23 6 23q11-1 5-24l-1-6 3-3q7-7 10 3 5 9 2 14c-6 6-9 19-5 25 7 12 19 2 19-17 0-8-1-11-7-31q-1-6 4-3c5 3 13 0 13-5 0-6-16-15-24-13q-7 0-13-6-13-12-1-8c17 6 31 4 31-4a19 19 0 0 0-15-11c-3-2-15-1-20 1m59 1c-9 5-12 23-5 34l9 10c9 8 10 10 11 15q1 9-2 9-4-1-6-12c-3-12-18-13-18-1 0 11 10 22 21 23 16 3 22 10 8 10l-5 1-5 1c-4 1-12 7-15 11l-3 4-1 1-2 3c-3 3-3 14 0 16q7 4 11 0c3-3 9-15 9-18q0-8 8-8h5v7l2 11c10 17 23 7 15-12q-6-12 4-10l10 2c9 0 9 0 14 9a27 27 0 0 0 15 15c9 5 18 4 18-4q0-8-16-14l-6-2-1-5v-5l7-4c19-10 30-26 24-32-2-2-10-2-12 0l-4 3q-4 2-9 12-6 12-9 12l1-4c4-9 2-21-4-21-5 0-12 9-12 14 0 4-3 11-5 11q-10 3-17-6-8-9 4-11c14-4 26-27 17-35q-6-6-11-1c-4 4-8 14-8 20q-1 9-7 8c-5 0-8-19-3-25q9-14 8-24-4-12-12-5c-4 4-9 19-9 26q0 10-5 5v-6l1-10c1-11-4-21-10-18m265 10c-4 2-4 14 0 19l6 8c7 8 7 9 4 19q-3 15-12 5-18-20-31-17c-15 4-10 15 8 17q11 2 11 4t-3 3l-5 4-5 4c-6 4-9 13-4 16s9 0 21-13c3-3 11-5 11-2 0 2-9 16-10 16l-4 1-6 2c-4 1-12 8-13 11q-3 6 2 11c5 4 9 2 20-8l10-12q2-4 4 2 3 9-4 14l-7 6c-9 9-2 23 8 15a43 43 0 0 0 14-18c2-3 1-18 0-21l-3-7c-1-6-2-5 6-20q12-25-1-47-9-17-17-12m118 4a6 6 0 0 0-3 10q1 4 12 11 13 8 8 10c-2 2-12-3-16-7-15-13-35-16-44-7-7 6 1 15 10 13q4 0 0 1l-8 5-6 3h-13c-12 0-13 1-16 3q-17 10-9 18c4 5 6 4 17-7q9-8 9-4l-5 8-7 10-3 5-8 19q-7 13-2 16c9 8 21-7 23-27l1-10c7-5 12 12 6 19q-9 11-1 22c6 6 17-5 19-19v-6l4 3q18 16 19 3c1-9-13-24-22-24-7 0-16-7-15-11 1-5 16-16 24-17 9-1 12 8 7 15-7 10-5 23 4 21 8-3 13-17 11-33-1-7 0-7 14 0q7 3 6 10a37 37 0 0 0 4 21c0 3 11 7 13 5 4-3 7-15 4-18l-2-7 6 3q16 7 24 0 8-11-20-15-13 0-4-8c11-11 12-29 1-29-4 0-11 5-11 9l-1 4-2 2-1-2c-6-11-20-20-27-18m196 25c1 4 21 7 21 4q1-3-10-3l-8-2zm108 23c-8 4-9 8-9 22v12l-3 3-6 4-4 2q-7-1 3-13c8-9 3-22-7-17a24 24 0 0 0-8 32l1 4q0 5-10 10l-4 3-4 2q-8 2-8-1l9-9q6-5 8-15l1-7c1 0-5-10-7-11q-6-3-11 5-2 3 1 14v4q-3 2-4 0c0-2-7-8-11-10q-9-4-10 6c0 5-1 5 10 12 5 4 3 12-2 12q-8 1-13-8l-3-6-8-8q-6-3-7 4l-2 5c-3 4 12 19 19 19l3 2q4 4-6 3-16-3-12 6l2 3 1 1q0 2 5 4c5 2 8 1 20-8 8-5 10-6 15-3q7 2 4 9c-5 15 4 27 12 17 3-4 5-14 4-18-2-5 6-6 12-1 4 3 14 4 17 2l4-6c0-2-5-6-7-6l-6-2c-3-2-4-2-13-2l-10 1 3-2c10-6 11-6 19-1l10 6 5 2 19 3h4v5l-1 4-2 2-3 6q-4 8-1 20c3 9 1 19-3 21q-6 2 4 2h6l1-30-1-39v-9h-5l-8 2-3-1 7-4 5-1 4-1v-20l-4 1q-14 3-2-8l6-6v-11l-7 6q-15 11-2-4 6-6 5-10-1-10-12-5m-542 12q-5 4-4 9c1 4 10 12 14 14q8 2 9 5 3 5-6 3c-10-2-24 2-26 8q-1 6 3 8 6 1-1 5-12 6-17 13c-5 6 0 13 8 13q3-1 3 2 0 5 5 7c3 2 10 3 11 1l2-1 4-1 3-2c2 0 14-12 16-17q5-11 13 4c4 7 4 9 1 14q-3 5-7 2l-10-2c-9 0-10 0-12 2-9 9 3 17 19 15 11-2 12-2 11 6q-1 8-9 14c-8 6-9 6 13 6q26 0 28-3l4-3q5-5 0-10t-17 1c-8 4-8 4-8-2q1-8 7-8c10 0 24-12 23-19q-4-10-19 2-9 10-8-3c-1-11-1-11 4-18 8-11 11-25 5-31-7-8-19 3-17 16q2 13-6 5-9-8-8-19 0-17-10-27-13-12-21-9m-25 8c-6 2-8 17-4 22q6 6 11 0c8-8 2-26-7-22m299 22c-5 4-10 17-10 25q-2 6-5-3c-3-8-12-17-17-17q-7 2-5 11l3 7 3 5-4 1q-7 3-10 11l-1 5-1 6c-1 6-2 6-11 0q-13-12-23-7-12 7 1 14 7 5 9 4l4 2 3 2-4 3-5 4-10 11-1 4c0 11 11 14 20 5l5-7 3-5q2-8 9-2c10 9 27 7 27-3 0-2-5-7-10-7q-10-4 4-3c3 0 11 6 11 9 0 2 16 7 19 6l4-1q8-2 9-8 0-7-13-8t-4-5c5-3 16-3 18-1 4 3 29 3 31 0l3-1c5-2 13-12 13-17 0-12-17-9-29 6q-4 7-11 4c-7-2-6-2 3-12q28-27 12-32a21 21 0 0 0-17 9l-4 10c-4 10-10 19-14 19s-3-15 0-20q6-7 7-15c2-8-6-14-12-9m255 7q-9 8-4 11c2 1 9-2 10-4l3-2 3-1 4-2q6-3 1-3h-9q-5-2-8 1m-624 11c-2 1-7 13-9 19q-1 6-2-1-3-8-10-9c-9 0-12 14-6 28q5 13-2 9c-14-3-25 5-18 14 5 5 18 3 30-4q7-4 12 2l3 5 1 3 1 1 5 8 2 5h8q12 1 5-4l-6-11 9 2q15 3 23-4c13-9 15-25 3-22q-5-1-13 11-4 6-7 5-8 1-2-6c10-13 10-25 1-27-5-2-12 7-12 15q-1 12-8 13-5 0-5-13c0-7 0-8 4-14q9-14 2-23-4-5-9-2m-82 6a28 28 0 0 0-11 18q-2 7-7 8-5 3-8-8l-4-9-3-2v34h3q4 0 7 3c7 6 7 6-2 15-7 7-8 8-8 11v4h7q6 0 5-1c-2-4 5-12 11-12 4 0 7 6 4 9-5 4-3 4 19 4h21v-4c0-11-14-21-30-21q-4 1-10-6-10-8-4-9l10 3c0 2 13 7 18 7 11 0 13-10 3-15q-10-6-16-6c-9 0-8-6 0-8l3-1 2-1c4-1 9-7 9-9 0-8-10-10-19-4m177 6-3 4-1 1-3 3-1 3h4c12-2 13-2 15-6q6-7-4-8-3 0-7 3m388 0c-3 4-4 6-2 20q2 12-2 7l-3-3c-8-6-20-9-24-5-8 8-1 18 14 19 8 1 7 1 7 7q0 10-8 7h-29q-7 6 0 14c4 2 4 2 33 2h29l-1-6q-1-8-4-13c-3-3-3-11 0-13l6-12c3-3 1-18-4-23q-5-7-12-1m-257 5q-5 4-3 10l4 11c5 8 4 10-4 18-11 11-13 10-14-9 0-12 0-15-5-19-7-7-15 2-13 15q3 15 11 26 11 14-1 5-7-7-15-7-12 1-8 9c2 4 3 4 27 4h23l-3-4c-6-6 2-14 13-12 13 2 31 0 31-4l1-1c5 0 11-10 9-15q-6-12-20 4-9 9-15 6-6-1-3-9c4-10 1-25-5-28q-6-3-10 0m117 4-3 9c-5 8-4 8 5 8q28-5 8-17l-8-4q-2-3-2 4m180 20c-11 3-13 11-4 16q4 2 13-1l8-2q5 1-3 4-12 2-23 17c-4 5-4 5 8 5 10 0 10 0 10-2q1-12 18-13 15 2 0 5c-6 1-13 6-13 9l13 1h14l3-3q8-7 9 1-1 2 8 2l7-1h2l8 1h7v-3c0-5-9-15-14-17l-6-2q-3-3-5-1l-12 1c-10-1-11-1-20-9-7-6-21-10-28-8m101 8c-11 3-15 17-8 27l2 4h14l-2-3q-5-4 1-12c6-10 2-18-7-16m-570 14q-7 5-9 14l-1 3h21l1-4a9 9 0 0 0-12-13m203 9q-12 9 6 8h11v-3c0-9-10-12-17-5m132-3a18 18 0 0 0-9 9c-1 2-1 2 8 2q11 1 9-2 1-10-8-9m-415 5-4 4c-1 2-1 2 11 2q20 1 4-5c-6-3-7-3-11-1m99 1q-8 6 7 5 14 1 7-5-6-6-14 0"
        mask="url(#16282281824-posters-1720553686607-horizontal-mask)" itemprop="light" fill-opacity="0.90"
        fill-rule="evenodd" stroke="none" fill="url(#16282281824-posters-1720553686607-vertical-light)"></path>
      <!---->
      <path id="16282281824-posters-1720553686607-regular"
        d="M0 8q0 13 3 3 5-11 12 1c3 5 3 6-2 13q-8 13-2 21 5 6 11 2c9-4 9-21-1-43l-2-5H0zm35-6c-8 8-3 28 5 28 7 0 8-13 3-25q-4-7-8-3m28 2c-10 10-12 14-8 21l2 3-3 2c-4 2-2 10 4 12 7 3 12-5 9-14q-4-15 0-17 5-1 8 4c1 5 12 17 16 19q7 3 9-3 3-9-16-25l-4-5-7-1q-7-1-10 4m29-3 3 4 2 5c0 11 14 26 22 23q10-3-5-23l-6-10h-8zm80 0 2 1 4 1 5 2q7 1 7 6c-1 4-4 5-18 5-11 1-13 1-16 3q-15 9-9 15t18-3q10-7 9-1c-2 10 2 25 7 29 10 8 16-8 8-24-2-6-2-6-1-9q5-6 8 2l10 21 5 8-1 7c-1 16 14 36 29 36s9-17-7-22q-13-4-11-12c1-2 1-3 9-3 18-1 29-14 18-20q-4-2-15 4-12 7-19-3-8-13 6-8c11 6 24 5 27-3s-15-14-30-9c-11 3-11 2-13-4q-6-22 8-12c11 10 30 6 22-5l-2-3h-30zm69 0q1 7 10 4 12-5-2-5zm45 1c-6 4-8 12-4 16q4 5 16-3 29-18 21 11l-3 13q-2 18-11 4c-10-14-26-20-31-11q-3 3 1 6c3 4 16 10 18 9 1-1 6 2 6 4l-5 4c-13 6-20 18-14 22q6 7 19-10 12-11 12 4 0 7-8 13c-6 5-8 5-17 0-12-7-26-4-30 6-4 9 6 13 17 6q15-8 11 7c-7 16 0 39 10 31 6-5 7-12 4-29 0-5 3-13 8-15 4-2 5-1 8 13 3 16 5 19 11 19q4 0 6-4 7-12-5-27c-8-13-1-15 11-3l5 5v8q0 9 2 13c2 5 8 9 10 8 4-1 6-14 3-21q-4-11-10-17-11-10 3-7 18 3 19-6c0-9-16-12-29-5q-19 10-17-5 0-18 14-10 19 10 25 3c4-7-9-16-25-17h-9v-4q0-9 8-16c5-4 7-4 15 1q10 6 16 4c13-4-2-19-19-19l-6-1c0-2-13-3-14-1h-6c0-2-33-1-36 1m125-1 5 2c13 5 18 17 9 19q-15 5-20 14 0 4-7-1-8-6-14 1-2 6 9 17c6 7 6 8-2 14q-15 12-10 20 7 11 15-6c5-9 7-10 15-10q19 2 3 9c-11 3-20 13-18 18 1 5 9 7 12 3l16-11c5-4 11 3 11 12q1 5-4 11-9 10-5 16c3 8 11 6 11-3q-1-5 3-5 6-3 8-12 1-8 7 1c6 13 18 21 22 16 7-8-6-26-21-30q-19-7-20-18c0-4 7-22 9-23q7-3 4 15c-1 11 8 19 14 12 2-2 3-3 3-11q1-13-12-25-10-8-9-17c0-6 0-6 4-8q10-7 14-15c2-6 2-6-8-6h-10v4q-1 9-5 9l-4-7-3-6h-11zm96 5q3 8-8 7c-12 0-21 13-15 20q3 7 13-3 9-12 16-4c7 6 14 31 8 31q-3-1-5-5l-13-12c-7-4-16-1-16 4s12 15 18 15q3-1-4 7-16 15-9 22 9 10 17-12c2-8 9-11 12-8q2 4-10 27-5 9 1 15 5 8 10 3c3-2 3-2 5-17q2-12 5-8c6 3 7 15 4 25-4 9-4 11-1 16q4 7 9 4 7-1 6-18c0-15-2-22-12-34-5-7-5-9-5-18l-1-17q-2-13 1-9 11 18 20 12c6-6-4-19-19-25q-10-2-1-8l15-15-6-1q-9 0-7 2c0 4-8 9-12 8q-2-1-2-6V0h-14zm71-4c0 3 5 12 10 15 7 6 7 10 0 22q-5 11-7 3-2-3 1-16c3-12-5-20-11-11q-11 18 7 38 9 11 10 26c-1 5-8 4-9-2-3-13-23-21-23-10 0 13 13 23 29 25q18 2 10 16c-2 4-3 5-13 5q-25 4-16 16 5 5 17 0c13-4 15 5 2 18-10 10-12 13-7 18q10 9 22-11c2-5 3-6 3-23v-19q3-4 5 3c6 18 19 21 19 5q1-7-12-19c-15-17-16-20-7-23 14-5 23-17 17-23q-7-6-15 8c-5 11-16 8-16-5 0-6 1-7 11-8q19 0 27-16c2-5 2-5 0-8q-5-10-14 6-6 13-14 8-10-9 8-19a21 21 0 0 0 14-9q7-10-2-12c-5 0-5 0-14 7q-8 7-11 7-5 0-5-10l1-4h-8q-11 0-9 2m105 4c0 10 1 10-8 10-9 1-11 2-19 7q-17 13-11 19 6 7 21-9l10-8c3 0 10 5 11 8l-6 11-4 6c0 2-9 10-11 10l-8-2q-12-5-19 1-9 7 0 12c3 1 4 1 13-2q5 0 0 6c-8 11-7 29 1 30q11 3 9-17-2-15 5-17 4-5 4 19c0 17 0 18-5 26q-14 21-2 25c6 2 16-17 17-35q1-14 7-7c4 4 7 17 5 18-2 2-1 15 2 18 9 9 14-3 11-25v-5q4 0 6 12c1 15 8 24 14 18s3-22-6-31q-8-7-18-9-8-2-12-6l-4-3q-9-3-4-22 3-21 18-10l6 4v10c1 13 2 16 7 18q8 4 10-4a32 32 0 0 0-3-18l-3-7q-6-7 5-7c18-1 25-17 7-17-5 0-7 1-19 8h-7q-9-6 6-8c12 0 29-15 23-21-3-3-21 4-28 10l-4 2q-6 3-2-10l2-11V0h-17zm79 25q-4 4 2 9 6 8 5-3v-8h-3zm-339 5-4 5q0 4-7 6l-4 1 2 6c1 7 2 7 15 10q6 2 7-1 4-6 4-20-2-20-13-7M144 57q-11 4-17 13l-7 7c-2 0-9-3-12-6-7-8-37-17-43-12-6 4 2 16 12 18 9 1 9 1-1 11s-12 14-12 22c0 6 9 9 13 4 2-3 5-12 5-17q1-7 6-8 3 1 3 7 1 9 6 15l2 3-3 2c-13 12-21 28-15 33q8 7 13-5l8-20 5-4q3 1 2 6c0 16 7 33 13 30 6-2 6-22 1-31q-3-8 0-16 4-14 16 10c5 10 5 13 2 21-5 13-6 16-7 23-3 18 10 42 19 37q9-5-2-23c-6-10-7-13-5-21q1-11 4-6l5 11c6 13 15 22 20 19q6-3 5-10c-1-6-3-9-13-17q-13-10 1-11 4-1 7 3 21 17 26 7c2-10-16-21-34-20-11 1-11 1-15-8-4-11-2-13 12-14 12-1 12 0 18 5q10 10 16 9 7-1 9-7c0-5-12-12-26-16l-9-3c-2-2-2-10 0-13 5-11 3-21-3-21-3 0-10 7-11 12q0 8-6 5c-4-1-14 1-16 3l-7 1c-2 0-1-6 1-8l8-3c16-3 25-11 19-17q-4-4-13 0m610 0q-3 6 7 17c8 8 8 8 8-5V59l-3-2q-8-4-12 0M43 78l-3 4-1 7q0 10-3 3c-9-11-20-16-24-9q-6 8 9 18 11 6 10 13 1 8-7-1-14-13-20-6c-5 5 0 14 10 19q14 5 13 21 0 22-12 4c-4-6-12-15-14-15s-1 13 1 13v6q-2-1-2 6-1 10 3 4c6-3 19 2 21 8q2 6-10 8l-11 4-3 1v11l1 10c1 0 7-9 7-11s6-6 9-6c8 0 6 19-3 20l-8 3-5 2-1 11q-1 19 4 4 6-15 16-9c4 3 3 5-6 17a34 34 0 0 0-6 35q4 15 12 9c3-3 4-19 0-28-2-7-2-8 0-11q4-4 6 2l3 6 2 6c2 4 12 19 14 20q4 3 9 0c4-2 2-15-2-19q-4-4 0-4 7 2 13 7l4 3v10c0 11 1 14 6 17q9 5 11-12 1-9-9-19a57 57 0 0 0-34-18c-8-2-10-6-12-24q-1-23 12-9 3 2 3 6 0 11 5 15 7 7 11 1c7-7-2-24-17-33-13-7-12-6-12-11q0-19 9-16 6 1 6 4c0 17 18 30 22 15 2-9-16-29-26-29q-6-1-7-9c1-8 3-8 14 1q12 9 16 6c9-5-3-18-21-22q-9-2-8-6c0-4 4-15 8-21q13-18 9-30-5-9-12-2m702-1q-12 4-12 13c3 10 27 2 27-8q-1-8-15-5m-641 7 2 8 2 12q1 13 9-2 5-9-3-15-9-8-10-3m48 11-7 2q-8 1-3 7 3 3 8 1l6-4q6-3 3-8-1-2-7 2m611 6q-18 13-12 19 6 5 14-2l4-4V97zm-376 16q-13 8-15 23-2 9-4 5-2-10-8-15-6-7-11-2c-4 5-4 7 2 18 5 11 5 12-2 12q-12 1-14 8l4 6c5 5 8 5 20 1q17-5 18 13 1 10-6 4c-11-8-27-10-33-5-8 8 0 14 16 14q22-2 10 9-8 7-19 5c-15-3-30 9-21 17q5 6 15 0c10-6 23-10 24-9q1 3-3 7c-7 6-5 19 3 19l11-11 2-5 1-11c-1-8 0-10 5-15l3-5q1-3 6-4 6-1 4 9c-1 14 13 24 17 11 1-4-1-16-3-20v-10l8 1c15 2 26-8 17-15-8-6-25-3-32 6q-10 14-16-4-8-15-3-16h3l7 4q15 7 23 1c6-8-7-17-25-17q-8 1-8-2c-1-2 5-11 10-15 10-7 5-18-6-12m-127 17q-4 5-4 11 3 6-6-4c-5-6-6-6-11-7-15-1-14 13 2 22q12 5 0 9c-13 6-17 20-6 20 3 0 13-5 13-7s8-4 12-4q12 2 6 14c-3 5-3 6-16 6-11 0-12 0-18 3-14 6-19 18-12 24q6 5 16-9 8-12 15-8 2 2-6 10l-7 8-5 7c-13 16-14 44-2 40q10 0 10-23c0-12 1-14 3-17q12-14 8 4-5 17 7 15c10-2 13-19 4-30-3-5-3-7 5-16 8-10 9-11 12-8q3 2 0 9-4 10-1 15c5 14 18 6 18-11 0-9-2-13-9-20q-11-9 0-8c22 0 40-18 26-25-5-2-8-1-17 7-12 11-15 10-18-7-1-10-9-22-14-22zm224 4q-4 1-4 17c-1 11-1 12-10 8-14-4-24 4-14 12q1 2 12 3c14 1 18 4 21 17q3 12-10 2c-9-8-22-12-30-9-11 5-2 15 14 17q13-1 4 6-12 9-8 19 7 9 15-4c5-10 8-12 17-12q8-1 12 10 7 13-8 10-22-6-33 7-7 7-3 14 7 10 20-4 13-15 7 2-11 27 4 27 10 0 10-20 0-10 2-12 8-7 11 6 1 9-8 18-11 13-2 22c8 9 18-8 20-33 0-10 1-11 3-11q2 0 6 4 6 5 1 19l-1 7 2 5c6 12 15 7 16-9q-1-19 12-6c8 8 17 8 17-1q-1-13-24-15c-7 0-8-1-17-7l-13-8a9 9 0 1 1 10-13c11 11 29 10 23-2-6-11-21-15-37-10l-7 3-4-5c-11-11-4-25 9-20 12 5 30-1 26-8q-3-8-19-6-12 1-10-2-4-5 14-8c15-2 20-11 9-16-12-5-36 12-36 27q-1 14-7 2-4-9 0-24c4-13-2-23-12-19m283 5-4 8q-3 9 4 11c2 0 2 0 2-10q1-13-2-9m-159 3c-2 8-1 11 10 22 9 9 11 13 11 21q1 4-2 4-3 1-7-10c-3-11-12-15-17-10q-4 4 2 16l4 8-2 1q-3 3-9 0c-12-6-16-7-21-3-8 6 0 13 16 15 6 0 10-1 22-5q12-3 16 1c2 5 3 22 1 26s-12 0-12-6c0-2-11-12-14-12-8 0-8 11 1 22 6 8-2 11-12 4q-9-7-15-4-13 7 3 16c8 4 22 2 32-4q9-6 11-3 0 9-11 16c-12 7-18 20-12 25q4 4 9-1 7-5 8-2l-5 8q-9 10-4 20 2 5 7 4a25 25 0 0 0 12-17c2-4 1-18-1-25-3-6 1-12 5-9v11c0 10 0 11 2 14 9 10 18-4 13-19-2-5-9-14-12-15-2-1 0-14 4-22 2-4 10-3 14 1l3 4-1 7c-2 14-2 14 0 18q4 8 9 5 11-7-1-38-2-3 1-5c8-9 19-1 16 11q-4 23 8 21c10-2 9-22-1-36q-6-7 0-15c9-12 14-27 11-30-7-7-18 5-20 22-1 9-4 12-16 18q-15 8-18 3-7-3 12-16c11-9 18-26 13-32q-3-4-8 0c-3 2-9 13-10 19-2 7-8 12-10 7q-5-9 2-17 9-8 10-18c2-17-8-25-15-11v12q1 24-10 2-10-24-18-22-3-1-4 3m117 17q-9 7 9 23l9 8 1 9 2 8-2 3q-12 7-19-14c-4-14-15-18-17-7-1 3 2 12 6 17 2 3 14 11 18 12q8 1 7 13-2 21-10 3-10-20-18-10c-5 7 7 23 22 29q7 2 9 6c4 8 20 22 25 22 3 0 3 9-1 12q-5 3-5 14 1 17-12 10c-15-6-31-4-31 5q-1 10 26 4 6 1 5 4c-2 3-21 9-28 9l-9-5c-14-14-35-15-35-2q-1 7 17 6c10-1 11-1 13 1q6 5-13 9c-11 2-12 2-18-5q-9-11-25-14-15-5-16 4-1 2-3 1c-11-4-18 1-11 9 5 7 10 10 23 14q9 3 8 6 1 7-14 5c-13-2-20 3-13 10 10 10 32 2 39-14q3-5 8-4l9-1c7-2 16-3 16-1q0 3-4 4c-11 0-23 12-16 16 9 6 25-4 32-18 3-7 4-8 16-12q16-6 18-4 2 3-6 7c-8 3-12 11-8 14 7 7 23-5 26-19q2-10 9-9h5v-74l-7-2c-8-3-9-4-12-12-2-5-3-13-1-13l4 3q7 6 14 8 3 3 2-7v-8l-3 1c-8 1-16-12-13-22q4-9 12-15 4-1 4-5 1-6-7 0-9 6-8 1 2-4 9-6c5 0 6-1 6-12q1-11-2-9-6 1-13 7-11 14-14-4-5-16-15-9M87 176c-6 4-5 23 2 43q3 6 2 8l-2 6q-3 16 4 28 10 18 15 10 7-7-4-22-12-16 5-10l6 3q1-1 4 10c4 13 22 24 29 18q6-5 0-11c-3-3-10-7-13-7q-4-1-6-7 0-3 7-6c10-5 23-24 21-31-4-10-20 0-20 11q0 11-10 12-5 1-1-5c8-11 4-29-7-29q-10 1-7 17 5 11 0 12c-8 4-18-15-14-26 6-15-2-31-11-24m106 12c-17 13-19 45-4 58l4 3a12 12 0 0 0 2-21l-3-4q-6-9 4-19t8-15q-2-8-11-2m212 38c-5 1-21 16-26 23q-6 9-12 8-24-3-33 7c-7 7 0 16 10 12l6-4q4-1 6-4 10-6 9 5-2 7-8 7c-18 0-38 22-24 27q6 3 18-10 11-12 10 1c0 13 9 34 18 40 8 6 18-5 13-14q-3-4 4-2c10 3 10-7 0-18q-11-15 7-8c16 9 28 5 21-6q-2-3-11-6-3-1 0-3 8-8-17-23-6-3-6-5c0-2 8-6 14-8q10-4 12-13-2-7-11-6m-104 20q-8 7-5 22 2 14-10-1-12-16-22-13-9 2 0 12c3 4 15 12 18 13l4 4q5 3-6 9l-7 8-3 4-2 8q-3 12 6 10c5-1 13-10 14-16l3-9 2-1q5 1 5 7 1 4-5 9-9 10-4 16 8 9 18-10 6-12 1-25l-2-7 4-8c10-20 4-40-9-32m-135 9q-6 5 4 23 8 13-3 7c-14-6-24-1-18 8q8 13 34 5l3 1q5 3-6 6-16 6-19 21l-2 8 2 5c5 5 12 3 13-3v-4q1-3-3-3-6-3 0-3 6 2 8-6 4-11 7-1l4 7q2 1 1 4-1 6 7 5l5-1c1-2 0-10-2-15q-3-7-1-9 2-3 11 7 14 14 5 18-3 1-2 4 2 2-4 3c-7 2-11 27-4 32q5 3 11-4c2-3 2-4 2-16 0-13 0-14 7-14l4 1-1 4-2 9c-5 12 0 28 8 24q6-2 7-15 2-19 8-4c5 10 16 17 21 12q6-6-6-19-9-8-15-8-5 0-4-2l-2-2-9-10-8-11q-4-5-1-6l7 5 11 6c2 2 10 2 13 0 8-8-10-20-32-20-11 0-14-1-19-5q-7-7 0-3c9 5 21 4 24-1 5-10-17-18-32-12q-15 7-13-10c0-15-10-25-19-18m529 12c-4 3-4 7 0 21q3 11-4 14-3 4-7-8-5-15-13-13-4 1-3 5l-1 6q0 10 17 21l7 3 7-1c18-3 33-19 33-33 0-7-8-11-12-5q-3 3-5 16-3 12-10 13-4-1-1-5c8-11 8-30 1-35q-5-4-9 1m-315 1c-5 4-8 18-6 22q1 5 9 0l13-5 9-2-4-3-9-9q-8-10-12-3m84 7-4 4q-1 3-7 3c-12 2-14 15-3 27 11 13 34 14 45 3 9-10 0-18-12-11q-8 5-5-3a28 28 0 0 0-4-20c0-3-6-5-10-3M1 293v8l3 1q12 2 15-2 9-11-14-14l-4-1zm120 2c-11 2-8 11 4 15 6 3 7 3 4 10q-3 9 5 11 7 1 4-4-3-2 4-5c6-3-1-21-11-26q-6-3-10-1m439 8c-4 3-8 13-9 22q0 16-13 9-19-6-25 4c-5 10 17 16 33 10q9-6 13 2c9 11 10 29 1 29q-6 0-9-7-7-16-16-10-8 11 9 23c9 6 10 7 4 20q-7 16 3 17 10 2 11-21c0-11 1-11 2-11q3-1 5 6c5 14 5 15 13 24q19 17 24 6a11 11 0 0 0-9-15l-5-1q-5-2-1-3c11-1 24-13 21-20q-7-11-19 2-11 13-15-2-3-9 7-11c13-2 23-14 19-22q-5-9-15 5-5 8-8 7-6 1-3-12 3-12 9-15c12-9 15-24 5-24-3 0-9 5-9 7l-4 7-5 9q-2 6-5 7c-1 0-5-7-5-12-1-4-1-5 3-11q6-13 2-18-4-3-9-1m-547 5-9 3-3 1v23l5 5q12 14-1 13l-5-1v43l2 1q6 2 9-3c3-4 2-6 0-17l-2-9 3-4q7-7 11 3c5 8 5 11 1 18q-10 16-1 24c9 10 19-11 14-30l-4-15q-4-12 3-9 12 3 12-4c0-6-10-12-21-13-10 0-11-1-17-7q-12-12 2-7c11 4 25 4 28-1q4-9-13-14zm50 5q-4 3-5 10c-2 13 2 21 17 36 7 6 10 20 5 20q-4-1-6-5c0-4-4-12-6-15-6-4-14 0-13 7q5 20 25 23c13 1 17 8 5 10q-23 3-32 22c-5 10 1 19 9 14 3-1 11-16 11-19q1-8 8-9 5-1 6 8 0 17 10 20c7 1 10-8 6-18-4-9-4-9-2-11q2-2 5-1l12 1 10 2 3 7c5 8 5 9 13 13q12 8 16 5c9-6 2-15-13-19q-7-1-7-8c0-5 0-5 8-9 18-9 30-27 23-32-6-5-17 2-23 15q-5 10-8 12-6 2-3-2c5-10 4-22-3-22q-8 0-11 17-6 18-23 1-8-8 6-12c12-3 23-24 16-33-6-9-17 1-19 18-1 9-7 12-10 6-4-7-4-18 0-24 10-15 10-32-1-30-4 1-12 21-12 30q0 6-4 5t-1-15c3-16-3-26-12-18m267 10q-5 8 7 23c6 7 6 8 6 13 0 16-8 22-16 10-10-13-27-19-34-11-4 4-3 10 2 10l5 1 7 2q9 0 11 4l-6 5q-20 15-11 22 5 4 20-13c3-5 10-5 11-1 1 5-11 17-18 18-4 1-12 7-14 11q-4 12 8 12c4-1 17-12 20-18l5-5c2-1 4 5 4 10-1 5-1 5-9 11s-10 15-5 19q5 3 14-6 15-16 7-37c-3-9-3-10 3-22q14-25 3-43-12-25-20-15m117 3-2 4 1 3q1 5 13 12 11 6 8 11c-2 2-13-3-18-8-13-12-34-15-43-7q-8 11 8 12 11-1-4 6c-11 6-13 6-19 5-14-4-33 10-28 19q3 8 17-6 10-9 11-5c0 2-4 9-7 11l-13 24c-8 17-9 20-5 23 7 8 19-6 21-25q1-21 10-7 3 7-1 14-9 13-2 21c6 7 16-2 17-16 1-9 1-9 8-3q11 11 15 5c7-6-6-23-22-27q-16-5-14-12c5-7 20-17 28-17 5 0 9 9 6 14q-9 15-4 20c9 9 21-14 16-29q-5-11 13-3c8 4 9 6 9 16q-1 19 12 21c7 2 10-8 7-19q-5-11 4-3 15 8 24 1c6-6-4-14-19-14q-14 0-5-8c11-11 12-30 2-30q-8 2-11 11-1 8-7-1-8-12-16-14-7-2-10 1m198 24c3 5 22 7 22 2l-12-3c-11-1-11-1-10 1m108 22q-11 6-9 23c2 9 1 11-6 16q-9 9-10 1 0-4 4-9 9-12 3-17c-11-6-22 15-16 28q5 9-2 13l-4 4-6 3q-21 11-6-7 10-9 10-21c0-5-4-12-9-13q-10 0-7 20 2 9-6 1c-8-9-17-11-19-4q-3 5 8 12c5 3 5 3 5 8q0 8-7 7c-6-1-8-3-14-12q-5-12-11-11-5 1-3 4l-2 3-1 5c1 3 10 11 15 13l9 6q0 5-10 2-14-3-9 6l2 4q1 2 7 3c4 1 7 0 17-7 8-5 8-5 13-5q11 2 8 12-4 9 0 15c6 8 14 1 14-12q0-16 14-7c7 5 16 5 18-1q2-5-5-7l-7-3c-3-2-4-2-11-1q-20 3-7-4c8-5 11-5 19 1 7 6 28 12 35 11 3-1 3 7-1 13q-8 11-3 27 4 12-3 17l-3 3h12l1-30-1-39v-8h-5l-9 2-3-1q0-3 10-6l7-2v-9c0-10 0-10-2-9l-6 1q-9 0 2-10 8-6 6-10 0-6-2-4-10 11-13 9-2-2 5-9c9-10 6-20-6-15m-543 14c-6 4 1 16 13 21q9 3 8 7 1 4-5 2c-3-2-16-1-19 0-10 4-12 12-4 15q8 2-1 5c-7 2-17 10-19 13q-5 10 7 12 6-1 5 3c0 15 29 6 38-12q8-15 16 4 8 20-11 14c-9-3-22 1-21 7q3 11 25 8 13-4 7 10c-1 5-2 6-8 11-8 6-7 6 15 6 21-1 24-1 29-6 9-9-3-14-16-8q-10 5-9-1 1-9 10-11c15-2 29-22 14-22q-4-1-13 7-9 12-9-7v-9l4-5c11-12 13-28 5-34-7-5-15 6-14 19q2 15-9 3-7-8-6-17c0-4-4-18-7-23-6-10-19-16-25-12m-26 8c-5 6-5 16 0 20 4 4 3 3 7 1q6-3 5-11c0-9-8-16-12-10m299 22-4 8-4 14q0 5-3 5l-3-6c-3-9-11-17-16-17q-9 0-2 15 6 9 1 8c-6 0-13 12-13 22q1 11-14-1t-23-4 7 14c10 3 11 4 11 6q-1 4-9 9c-11 6-12 23-1 23q10 1 18-17 4-10 10-3c9 8 26 7 26-1q-1-6-7-7l-6-2q-6-1-1-2l4-2h2l5 1 7 6c9 11 27 13 33 3q4-8-13-10-15 0-6-4l5-2q3-4 16-1 28 9 43-9c5-7 4-15-4-15q-7-1-21 15-4 5-9 4-13-1 0-13c7-7 17-20 19-25q0-6-6-8c-6-1-15 5-17 11l-4 8-1 5c0 5-9 14-13 14q-4 2-3-6 0-11 3-14c2-3 7-14 7-17 0-8-8-10-14-5m258 3c-6 3-10 11-6 13q3 3 11-3l9-5q11-3-1-5zm-521 10-4 3h6q9 0 7-3-4-3-9 0m-104 4-3 5-3 7q-3 7-4 19v8q-5 1-3-8c5-11-2-26-11-22l-4 3a30 30 0 0 0 2 25q5 12-4 9c-9-3-18 1-18 8 0 10 16 10 31 0q5-4 9 0c3 2 15 21 15 24l8 1q11 2 3-6l-4-6v-3h5c20 3 23 2 31-6q11-11 4-17-8-4-18 11-4 7-10 4-6-1 0-6c9-10 11-22 5-26q-11-5-14 15-2 13-9 12-5 1-6-10l-1-7 5-9q10-15 4-22-4-5-10-3m-79 5c-7 3-14 13-14 19q-2 6-8 9-6-1-7-8-1-6-5-11c-2-1-2 0-2 15v16h4c4 1 12 7 12 10l-8 10q-9 8-8 11v3h12v-3q2-9 11-11c4 0 7 8 4 11-4 3-1 3 19 3h21v-4c0-10-12-18-26-20-8 0-8 0-14-5l-6-7c-3-5 7-6 11-2 4 3 16 8 20 8q6-1 8-7c0-5-14-14-23-14q-15 0 2-9 17-7 10-15-4-5-13 1m173 7-7 7-1 3h4q16 0 18-9 1-4-6-6-3-1-8 5m390 0c-3 3-4 7-2 20q2 13-5 6c-13-12-27-12-27-1q-1 10 18 13 8 1 6 9-1 9-16 4c-19-4-33 5-21 13l3 3h58l-1-5-4-13c-4-7-4-8 0-15 9-13 8-31-1-35-4-2-4-2-8 1m-256 3q-9 5-1 20c6 9 5 13-5 22q-6 7-8 5c-4-1-5-3-5-15q0-17-6-20c-14-9-15 24-2 39 8 9 9 15 1 8-10-9-24-10-24-2 0 7 1 7 26 7h23l-3-4c-4-4-4-4-1-8q6-7 16-4c19 4 39-5 39-17 0-11-10-10-20 3q-8 8-15 4c-4-1-4-3-1-15 2-8-2-20-8-23zm115 2-5 14q-6 8 7 7 31-5 5-20-9-5-7-1m177 25c-15 6-4 18 11 12q11-4 11 0l-7 4c-8 2-11 5-19 14q-9 9 5 7h10l1-3q1-8 5-10c6-4 22-4 21 1q-1 3-9 3c-3 0-11 5-11 8l12 1h13l3-4q7-6 10 1 0 4 8 3 11 1 2-7-6-7-2-6l4 5q4 9 13 8h6v-3c0-9-17-21-26-19q-17 5-29-7-17-14-32-8m100 9c-8 5-9 16-4 24q2 4 9 4h6l-2-3c-3-5-3-6 1-12 7-11 0-21-10-13m-566 12q-5 3-8 12l-2 4h20l1-4c5-9-2-17-11-12m203 9q-10 9 6 7h10v-3c0-9-10-11-16-4m129-2-4 5-2 4h17v-3q0-11-11-6m-308 2-7 6 9 1q13 1 7-4-5-5-9-3m-105 2q-9 5 8 5h12l-3-3q-9-6-17-2"
        mask="url(#16282281824-posters-1720553686607-radial-mask)" itemprop="regular" fill-opacity="0.90"
        fill-rule="evenodd" stroke="none" fill="url(#16282281824-posters-1720553686607-horizontal-regular)"></path>
      <!---->
      <path id="16282281824-posters-1720553686607-medium"
        d="M0 8q0 11 3 2 6-10 12 2 5 6-1 13c-8 11-5 24 4 24 12 0 14-21 3-42l-3-7H0zm35-6c-7 11-3 27 6 27q5 2 4-12C44 5 39-3 35 2m26 5q-11 10-6 16 5 8 0 8c-4 1-2 8 3 10q2 3 5 0 8-3 3-16c-4-16 3-22 9-9 5 9 15 18 19 18 11 0 6-15-9-26q-4-3-5-6 0-2-7-2h-5zm32-6 2 3 2 6c2 13 16 27 23 23 4-3 3-12-2-17l-4-6c-6-9-7-10-14-10zm80 0 13 4q8 4 2 9c-3 3-3 3-15 3-10 0-12 0-16 2q-16 9-10 15t18-4 9 6l1 11 2 6 3 4c10 9 16-4 9-21-3-8-3-8-2-10q6-8 9 1l4 7 2 7 5 7c4 7 4 7 4 16q1 24 19 33 16 7 16-4-1-11-18-16-9-4-7-12c1-2 1-2 8-2 14 0 26-9 22-17q-4-6-17 1-15 9-21-4t8-6c13 6 31 0 24-9-4-5-22-7-33-3-7 3-7 2-9-8-2-9-2-9 0-11q3-3 11 3 2 4 9 4 17 0 10-10l-2-3h-29zm69 0c0 5 7 5 12 2l3-3h-8zm43 2q-6 7-3 13 3 9 18-3 13-10 20-3 5 4 0 16l-4 13q-2 16-8 8c-3-5-13-13-18-16-10-6-20-2-15 6q5 7 17 9 8 1 8 5l-6 4c-13 7-20 18-12 22q6 5 14-7t12-8q4 2 3 8c0 7 0 7-5 12-9 8-10 8-18 4q-11-8-21-5c-11 4-15 15-7 18 4 1 4 1 12-3 7-4 8-4 11-3q5 3 1 11c-2 5-2 22 1 27q6 9 13-4c2-5 2-7 0-20q-1-9 6-16 5-5 6-1 3 0 4 11c3 17 5 21 10 21 4 0 9-8 9-15q-1-7-6-15-12-18 6-8c8 5 9 8 9 18q1 16 9 19 6 3 7-5 3-16-11-32-10-11 0-8c11 3 21 1 21-6-1-9-17-10-32-2q-14 7-14-8 2-17 17-8c12 5 23 5 23-1 0-7-17-15-28-13q-12 1-4-15 8-14 21-5c10 6 21 5 21-2 0-5-15-13-25-13l-6-1c0-3-12-3-14-1-1 2-6 1-6 0l-16-1h-16zm127-2 5 2q12 6 13 14 1 4-8 7c-6 1-15 9-17 13q1 4-6-1-9-6-14-1-3 6 9 18l5 6q-1 4-6 7c-10 6-15 17-10 22q6 7 13-8c4-8 6-10 16-9 12 0 15 6 4 8-13 3-24 16-18 22q5 5 11-1l10-8q8-6 12-2 11 10 0 24c-7 9-8 12-4 17q9 5 10-6 0-6 2-5 5 0 8-10 2-12 9 1 4 10 13 15l5 2 3-2q6-9-9-23c-6-5-8-6-17-9-6-1-7-2-15-12q-3-3 4-19 5-13 9-9c2 2 2 2 2 9-2 14-1 18 5 20q10 4 9-12 1-12-12-25-18-17 0-29c5-3 10-12 10-15 0-2 0-2-9-2h-9v5q0 15-10 2l-3-7h-10zm96 5v7h-7c-15 2-24 12-17 20q5 6 13-4 16-20 26 18 3 12-2 10-5-1-6-5c0-2-9-10-12-12-6-3-15 0-15 5 0 3 8 11 13 12 7 2 7 2 1 8q-18 18-8 25 9 2 14-15c2-8 14-12 14-5l-10 26c-4 9 1 20 8 18q5-1 6-12 3-26 11-8 4 9 0 18-7 17 3 21 10 2 10-20c-1-13-3-18-11-31l-7-10V61l-1-17v-8q1-3 3 1c2 7 12 15 16 13q9-3-1-16-6-7-15-9c-9-3-8-4 6-16q13-10 2-9-7 0-6 2l-2 4q-11 9-14-2V0h-12zm71-4q2 10 10 16c6 5 6 8 0 20q-5 11-8 6c-1-2-1-3 1-19 1-14-6-18-12-7q-8 17 9 36c6 6 7 9 9 24 0 6-7 7-9 1q-4-12-10-14-10-8-12 3c0 12 14 23 28 23q15 0 12 13-1 11-14 10c-14 0-23 9-17 15q4 4 18 0c13-4 14 5 2 18-11 11-12 13-8 18 6 5 16 0 21-11 4-9 4-15 3-27-2-17 3-24 7-11 6 16 17 20 17 5q3-7-13-22c-12-13-14-17-9-20l9-4c13-6 19-21 8-21q-5 0-9 7-4 10-10 9c-6 0-10-8-8-15 1-5 1-5 13-6 8-1 10-1 15-4 6-4 12-13 10-17-2-8-9-6-13 4q-8 16-16 7-9-9 8-18 9-3 12-8 8-7 5-10-2-7-15 3c-12 9-13 10-16 7q-2-1-2-7V0h-9q-10 0-7 2m105 3c1 11 0 12-8 12-16 0-38 17-31 25q6 6 21-10 9-11 16-5c7 4 7 7-1 17l-4 7-9 9q-2 2-8-1-13-4-18-1-12 5-4 12c2 1 3 1 13-1q7-1 1 6c-8 12-7 30 3 30q7 1 6-15-1-18 6-19c4-2 4-1 4 19l1 18-4 5q-14 22-7 27h6c5-1 13-21 13-35q1-14 8-6 5 5 5 14v12q0 11 7 12 8-2 6-20c-2-10-2-11 1-12q4 0 5 11 2 15 7 19c4 3 10-3 10-11 0-7-12-25-17-25l-3-1-8-3-14-7-4-3c-4-4-4-15-1-25 3-11 6-12 17-7 7 4 7 4 8 13q0 22 9 21c8 0 9-17 1-29q-7-9 5-8c12-1 20-8 15-14q-7-7-26 5h-6l-5-1q-4-2 0-5l10-3q10 0 18-10 9-9-1-11l-25 12q-9 6-4-10l1-10V0h-16zm79 26q-5 4 1 9 6 7 5-4 1-11-6-5m-338 2-6 7q-3 7-7 6-5 0-3 7 1 9 10 10 21 8 17-20-2-19-11-10m331 23q-7 4 5 18c8 8 8 8 8-4 0-10 0-11-2-12q-6-3-11-2m-613 1q-9 4-16 14-9 12-19 0c-5-5-29-14-35-14l-9 3c-4 6 8 17 18 17q7 0-5 11-18 17-10 27 9 7 14-15 2-9 4-10 5-4 6 3c0 5 3 14 6 17q5 5-2 9c-13 8-20 32-9 32q5 1 9-11l5-11c0-2 3-8 5-9q4-3 5 8c0 9 4 23 7 26 9 9 12-10 6-29q-4-11 0-17 5-13 17 12 7 12 1 21c-3 6-7 21-7 28 0 18 14 38 20 29q6-7-4-22-7-12-4-25 3-6 5-1c1 6 7 17 11 22q9 12 15 5 7-8-6-19c-12-10-13-12-9-15q6-6 16 3 10 10 16 9c11 0 7-11-6-19-5-2-6-2-18-3-15 0-14 1-19-9-4-11-2-14 15-15h10l4 4c10 9 14 11 21 10q9-3 2-11c-4-4-14-9-20-10-13-2-15-6-11-20 5-15-1-23-9-13l-4 6q1 8-9 7-8-1-12 2-12 5-10-4 0-5 11-7c14-2 23-11 18-16zM44 77q-3 2-4 12 0 10-4 5-7-10-12-12-12-6-13 5-1 6 10 14 11 6 10 13 1 8-5 3-13-15-22-10c-5 4 0 13 9 18 11 4 14 9 14 23q0 20-11 5L6 141l-5-5-1 5q0 6 2 8l2 3q0 4-3 4l-1 5v6l3-2q3-3 10-1 10 2 10 6 5 9-9 12l-10 3-4 2v10q-1 18 6 2c8-13 16-13 16-1 0 9-2 11-13 14-10 3-9 2-9 15l1 9 3-6q3-10 10-11 15 0 3 15l-3 5-2 3c-9 12-7 40 4 41 7 1 9-13 4-29q-5-11 1-13c2-1 3 0 10 14q14 27 21 23c5-2 5-12-1-20s5-6 14 2c5 6 6 7 4 14-1 5 1 13 5 16 10 8 16-13 7-24q-13-18-34-22l-11-3c-5-4-8-36-2-38 4-2 13 8 13 15 0 11 9 19 15 13 7-7-4-26-19-33-11-6-12-7-10-20q2-9 6-8 9-1 10 8c0 11 11 22 18 16 8-8-7-29-23-33q-8-1-8-9 0-13 15 0 15 12 18 4c4-6-10-17-26-19q-7-1-6-8l2-5 1-4 5-8c12-18 14-35 4-36zm704 0c-7 2-15 8-15 12 0 5 9 7 17 3 14-6 12-19-2-15m-643 6q-3 2 0 9 3 6 2 11 1 15 9 1 9-10-3-18c-6-5-6-5-8-3m48 11-8 3q-9 0-4 6c5 7 22-2 19-9q-2-4-7 0m611 7q-17 12-12 18t14-3c3-3 3-3 3-11v-7zm-377 17q-12 8-14 22-3 13-6 3-8-20-18-14c-3 4-3 7 3 17q10 15-5 13-17 2-7 14c3 3 12 3 18 0 9-5 20 2 20 14q0 9-7 3c-14-10-34-10-35 0q-1 8 17 8 23 0 11 10-6 7-20 5-12-1-18 6c-11 9 0 17 13 10l23-9q5 1-1 9-7 8-3 14c7 10 23-13 18-26-1-4-1-5 5-12 7-9 7-10 10-10q6-1 5 9 1 19 11 17 8-2 2-25-6-13 7-10 8 3 14-1 14-9-1-15-13-5-28 10-10 11-15-4l-4-9q-4-6 0-8 3-3 6 0l2 1 3 1c5 5 17 6 22 2 8-7-8-18-26-17q-15 1 2-16 9-7 6-12c0-3-6-3-10 0m-128 18q-2 2-2 7v6l-5-5q-13-15-21-7c-5 4-1 13 10 19q14 6 0 9c-6 2-13 12-11 16q4 7 16-2 6-6 13-5 14 1 7 14c-4 6-5 7-16 6-20-1-40 16-31 26q7 6 15-7 8-11 12-10 12-2 0 11a124 124 0 0 0-22 33c-6 11 3 27 10 20 5-4 6-8 6-21v-12l4-5c7-11 14-8 9 5-4 9-1 17 6 14 11-4 12-17 4-30l-3-5c0-2 9-14 13-19 6-6 12 1 8 10-6 11 0 24 8 20 4-1 7-9 7-16 0-10-1-14-8-20q-13-11 3-10c19 0 35-17 23-24q-6-4-23 13-8 9-11-10c-4-19-14-29-21-21m226 2q-5 2-5 17c0 12 0 12-13 8-7-2-15 2-14 7q1 7 16 7l10 1 4 4c6 6 9 17 6 19q-2 5-11-5c-12-10-34-11-33-2q2 9 18 10 15 1 4 7-11 10-8 17 7 12 15-3 8-13 19-12c8 2 15 16 11 21l-2 2-6-1c-7-2-20-3-24-1-11 5-16 15-12 21q9 8 19-5 7-9 10-6 2 2-1 6c-8 15-8 28 0 30q11 1 12-21c0-11 1-13 6-14q5-1 5 3 6 12-4 23-13 14-4 23c9 9 18-10 20-42 0-5 7-3 11 3 2 5 2 8 0 19q-2 6 1 10c5 12 14 7 14-9q-1-18 14-5 13 10 16 1c2-8-10-16-26-17q-8 0-10-3l-19-12c-5-2-8-11-4-14q7-6 15 0c12 12 29 10 21-2q-10-15-34-8l-8 2-5-5-5-5v-6q2-13 16-9c9 4 25 0 25-6 0-4-13-10-19-8q-8 2-11-2-2-6 10-7 21-3 19-11c-2-6-12-8-21-4q-15 8-19 26-3 12-7 5-6-9-1-26c3-9 1-19-5-21l-3-1zm124 7c-3 6 2 20 10 23a24 24 0 0 1 11 19c3 11-6 9-9-2q-6-16-15-13t-1 15 2 12q-4 3-12-2-14-7-18-1-6 3 0 8 11 9 34 2c19-6 23-3 23 16 0 14-8 17-14 6-7-14-20-18-19-7q2 10 7 15 4 5-1 8c-3 2-2 2-16-6q-10-4-15 1-4 4 2 9 14 12 38-1 6-4 8-3c5 1 2 10-6 15q-20 14-16 25 3 6 11 0 14-9 1 9c-6 8-4 21 3 22q6 0 11-15c4-9 4-14 1-24q-4-12 2-13c4 0 7 9 4 13-2 2 0 11 3 13 6 7 13 0 12-13-1-7-2-10-9-18l-6-7c0-3 5-17 7-19q6-6 13 2c4 4 4 4 2 15-3 12 3 23 10 18 5-4 4-22-1-33q-6-9 3-12 6-4 10 1l4 3-1 13v13l3 3q5 6 10-2 6-13-7-34c-4-6-4-7 0-12 14-18 16-37 4-31-6 2-12 16-12 25 0 10-32 26-36 18q-1-5 5-10c16-10 28-31 21-37q-3-3-8 0c-2 1-7 13-10 20q-8 17-11-2v-6l4-4c12-11 14-35 3-35q-9 1-8 20v9l-2 2-3-2-5-7c-7-17-18-28-21-22m158-1-5 12q2 5 5 6 3 2 2-9 1-13-2-9m-41 19q-9 7 8 22c9 9 10 10 12 22 1 16-16 12-22-6q-6-18-14-11c-7 7 7 26 23 32q8 2 6 14-2 17-9 6-11-23-17-15c-7 7 5 24 20 29q9 2 10 7c3 7 13 16 20 20l6 3v5q0 5-2 6-5 2-5 14c-1 13-3 15-14 10-13-5-28-4-29 4q1 11 21 5c12-3 14 4 3 8-20 8-23 8-31 0-12-12-32-14-35-4-1 6 10 9 24 6q6 1 8 6 0 3-14 6-13 3-16-1-12-14-30-18-12-5-13 3-3 5-6 2h-10c-6 6 9 19 28 24q9 3 2 9c-4 3-5 4-12 2-13-4-21 4-11 11 9 5 23 1 32-9l4-6q1-5 9-6l9-1c8-2 16-2 16 0q0 4-8 6c-13 3-18 14-7 16 7 1 23-11 26-20 2-7 8-10 28-16 10-3 12 2 2 7q-10 5-10 10c0 15 27-2 27-18q1-6 10-7h4v-6l1-36c-1-33 0-31-9-33q-8-2-12-14-4-17 6-7l11 7 3 1v-15h-4c-11 0-17-16-11-26q6-9 13-12 3 0 2-4v-3l-7 4q-8 4-8 2-3-6 12-9l3-1v-10l-1-9q-5 1-14 8-12 13-14-2-3-18-14-12M87 176c-5 5-4 24 2 42l3 6q1 2-2 9c-3 11-2 18 4 29q9 15 14 9 6-7-6-24-9-13 4-9l8 3q4 0 6 10c2 11 19 24 26 20q14-9-10-18-15-6 0-15 11-6 17-19 6-11 1-13c-6-5-14 2-16 14-2 9-4 10-10 11q-8-1-4-4c5-2 7-19 3-24-8-13-18-5-14 11q4 13-2 13c-8 2-18-19-13-28 2-3 2-16 0-19l-7-6zm107 11a37 37 0 0 0-14 22c-3 8 0 27 7 34q6 9 10 2 7-5-3-17c-7-11-7-14 2-24q12-12 6-17-2-3-8 0m210 40q-9 4-28 26l-5 5h-6q-16-2-22 1-10 5-12 11c0 2 5 7 7 7s15-6 18-9c5-5 11-3 10 3q-1 9-8 9c-11 2-15 4-21 8-12 11-9 24 4 17l12-10q8-11 9 5c0 13 9 33 18 38 8 5 16-6 11-15q-3-4 4-2 4 3 6 0 6-4-6-18-8-7-3-9 4-2 9 1c8 4 20 7 24 4s-2-13-9-14q-8-1-3-4c5-5-3-16-17-23q-13-5-2-9l7-4q14-4 14-13-2-8-11-5m-103 20q-7 5-5 22c2 8-4 8-9 0q-11-16-21-15c-12 0-7 10 11 21 13 9 13 10 4 17-13 11-18 32-7 29 5-1 11-9 13-15q4-14 10-8 6 5-5 16-8 8-2 15 7 6 16-10 6-13 2-26-4-8 1-16c10-15 4-39-8-30m-132 7q-9 4 2 25 8 13-4 7c-15-8-26 0-14 9q8 7 19 5 18-3 16 1 0 3-4 4c-9 3-10 3-14 7q-8 6-8 11l-1 4v11c2 5 10 4 12 0q2-9-3-9-6-2 1-3 7 0 7-5l2-5q4-6 7 3l3 6q3 2 3 6v4h10v-5l-2-10q-5-8-2-10 3-4 11 5 16 15 7 20-3 1-2 4 1 4-2 3-9 0-10 19 0 15 8 14 9-2 8-20c0-14 0-15 6-15q8-1 5 4l-1 5-2 6q-4 9 0 18c6 11 15 4 15-12q0-9 3-9c2 0 6 5 6 7 0 4 10 13 15 13 9 0 8-11-3-21-6-5-7-6-14-6l-6-1 1-1v-2q-5-3-9-11l-7-9c-3-3-4-9-2-9l6 4c12 10 26 12 26 4s-15-15-33-15c-11 0-15-1-21-7q-6-6 3-2 16 7 22-2c6-9-18-16-34-10q-11 6-10-11l-1-10-9-9zm210 13c-3 4-7 16-6 21q-1 9 15 0l8-2q13-3 7-5l-13-12q-6-7-11-2m316 0c-3 4-3 6-1 14 3 13 3 17-1 20q-7 7-9-6c-4-15-15-19-16-6q-1 15 15 23c19 10 52-13 47-33-1-5-7-6-10-3s-6 14-6 21c0 3-7 9-10 9q-5-1-1-6c4-6 7-18 6-25q-5-14-14-8m-233 11-8 5c-14 2-15 15-2 27 11 12 36 12 44 0 6-10-3-15-13-9q-7 7-6-6-1-27-15-17M1 293l1 8c13 1 15 1 17-1q6-4 0-9-3-4-14-5H1zm116 5q-7 6 8 12l6 2v4l-2 7q0 7 6 8 5 0 3-4-3-3 2-4 5 0 3-8c-2-15-18-26-26-17m442 7q-5 6-7 20 0 16-14 10-21-6-25 4c-2 9 19 14 32 8q9-5 14 2 8 7 7 19 1 12-6 11-8 0-9-7c-3-9-12-14-16-9-5 4 0 16 9 20 9 6 10 10 5 21q-7 13-1 16l3 2 4-2q7-2 6-19 0-13 4-12l4 6 4 11q3 7 16 20c2 2 9 4 12 4q4-1 5-8c0-5-7-11-12-11q-5-1-5-4l3-1 3-1 2-1c5 0 15-10 15-15q-1-5-9-6-3-1-9 6c-8 8-10 9-14 4q-4-3-3-9c0-7 0-7 10-9 13-3 23-20 13-24q-5 0-11 9-5 9-10 6c-4-2-1-20 4-25l8-7q11-10 4-17c-3-3-12 2-12 7l-3 5-5 9q-1 6-6 7c-2 0-6-7-6-13q-1-3 3-10c7-13 2-26-7-17m-183 2q0 3 5 6 7 5 1-4-5-5-6-2M7 310l-6 2v21l6 7q12 16-3 13l-4-1v21c0 20 0 21 2 22q8 4 10-7c0-3 0-6-3-17q-2-5 2-8 8-7 13 2 6 11-1 21-6 11-2 19 7 11 14-2c5-10 4-17-3-39q-5-15 5-10 16 2 8-9-6-6-19-7l-9-1-5-5q-15-15 1-9c14 4 27 3 27-4 0-8-19-14-33-9m56 4c-9 10-5 30 10 42q9 7 10 15c2 13-7 12-11-2q-4-15-13-10-4 2-3 7c2 12 12 22 24 22 13 0 18 10 5 11-18 2-32 15-32 29q-1 7 2 7 10 6 18-22 1-5 4-6 10-5 10 10c1 13 9 21 15 16q4-4 1-15c-5-13-5-15 3-14l13 2c9 0 9 0 12 8 8 16 32 26 32 13q0-8-12-11-13-3-12-11 1-5 6-8c10-3 28-21 28-28q-1-5-8-5-9 1-16 16-7 13-12 14-2 0 1-8 6-15-4-17-6-1-10 15-3 11-11 10-6 1-10-5-13-12 0-14c15-3 27-27 17-35-7-6-15 4-17 22 0 7-9 9-12 2s-3-17 0-21q13-20 7-28c-2-5-10-4-10 1l-1 3-6 19q-3 13-7 7v-13q2-29-11-18m268 8q-6 7 6 23c7 9 7 10 6 19q-4 19-14 8c-11-12-17-16-27-16q-11-1-11 7 1 6 17 7 18 2 5 11-14 9-14 15 2 13 18-4c6-7 6-7 11-7q5 0 5 2c0 3-9 17-13 18l-7 3c-12 4-18 14-11 19q3 4 9 0 9-6 17-17 5-8 7-3c3 4 3 13-1 16-11 9-12 10-13 15q0 15 15 2 15-14 8-35c-4-12-4-11 2-23 10-21 11-34 1-50q-10-17-16-10m116 4c-4 4 3 14 13 19 7 4 11 12 6 12q-7-1-17-9c-15-12-37-15-44-5q-4 8 10 9 12 0-4 8l-9 4h-13l-12 1-6 4q-14 10-5 16 3 2 11-6 11-10 13-8 3 1-3 8c-14 19-26 49-20 52 8 4 18-10 19-27q2-23 12-5 4 8-2 14c-7 7-6 20 1 23 5 1 14-11 14-18q-1-14 8-5 15 14 16 2-1-16-24-23-12-3-14-10c0-5 18-18 26-19 9-2 14 7 8 16q-9 15-1 19c8 4 17-15 14-29l-1-7c1-3 19 3 22 7l1 12q-1 15 9 20 7 4 9-2v-15q-5-12 8-4c10 6 22 4 22-3q0-8-16-9-19 0-10-10c11-11 12-28 3-28q-8 1-11 10 0 11-7 0c-9-12-21-19-26-14m197 22c-1 5 15 9 22 6q6-3-8-5l-10-2zm111 24c-10 4-12 10-9 28 0 4 0 4-6 10l-8 6c-5 2-7-4-3-10q11-14 6-18-6-6-14 4-6 11-2 22l3 8a25 25 0 0 1-15 13c-12 7-18 2-8-7q17-15 9-30c-7-11-18-1-12 12q3 13-7 5c-8-10-19-12-19-3 0 3 6 9 8 9q4 2 6 8 0 11-10 8c-4-1-11-8-11-10s-6-10-9-12q-5-2-6 3l-2 4c-1 3-1 3 3 8 4 4 11 10 13 10q9 2 6 8h-13q-9-2-4 5c5 10 10 9 26-1q8-6 11-5 13 3 9 14-3 10 1 14c6 8 13-1 13-14q1-15 13-5c8 5 19 4 19-2q-1-5-6-6l-6-2c-3-2-4-2-13-1q-16 3-7-4 12-10 21-1c5 5 22 11 32 11h5v5q0 5-4 12-5 12-1 23c3 5 0 17-5 20q-2 1 4 1h6v-77c-1 0-11 1-14 3q-4-1-3-3 1-4 12-6l5-1v-9q1-11-2-8h-6q-10 2 1-10c6-6 7-7 7-11v-4l-5 4-6 5q-2 3-5 1-2-2 5-10c9-9 7-17-3-14m-545 15c-5 5 3 16 15 21q6 1 6 4 3 7-7 4c-20-4-35 10-18 15l3 2-6 3c-22 10-28 23-12 24q5 0 5 3v4c0 3 6 5 9 5a39 39 0 0 0 28-20q7-15 16 2 8 21-9 17c-14-4-27 3-20 10q7 6 22 3 13-3 8 11c-1 4-6 11-8 11l-4 3-2 3h16c19 0 27-2 32-6q7-5 2-9t-17 2q-10 5-9-3 1-9 7-10c11 0 25-13 22-19q-5-7-18 5-9 12-9-8v-9l4-6c8-9 11-22 8-29q-5-7-11-2c-5 5-6 7-6 17-1 10-1 11-8 5q-8-7-8-21 0-21-19-32c-3-3-10-3-12 0m-26 7c-7 9-2 26 7 21 5-3 6-16 1-21q-5-5-8 0m301 22c-3 2-8 14-9 20q-3 15-7 0c-3-9-15-19-19-14-2 3-2 5 2 14q4 9 1 7c-6 0-14 12-13 20q1 15-14 2-15-11-24-5-8 10 14 15 10 4-2 12-16 10-10 21c4 9 16 3 23-12 5-9 5-9 10-5q8 6 16 6c14 0 14-12 0-14q-9-2-4-3l4-2c3-2 11 1 15 6 8 11 26 13 32 5q4-10-12-10-17 0-3-7 9-6 19-1 20 7 34-3c12-8 15-20 4-20q-7 0-18 11-10 11-18 5c-3-2-3-3 6-12q21-21 17-29-4-5-12 0c-7 3-8 5-12 17q-6 18-16 19-5 0-3-3v-4q-1-9 3-15c5-6 8-17 6-21-1-2-8-3-10 0m254 4q-8 5-6 11 1 6 15-2l11-6q3-1 1-3c-7-2-18-2-21 0m-520 8q-5 4-3 4 17 1 14-3-3-3-11-1m-102 5c-4 3-10 20-10 32q0 12-4 7v-6q4-16-3-22c-11-9-16 8-9 28q5 11-6 7c-12-2-22 5-15 12q11 7 27-4 6-4 11-1c3 2 14 20 15 24q0 3 8 2h7l-3-4q-12-14 2-11 25 5 33-12c8-15-8-15-17-1q-5 8-11 6t0-8c9-10 10-25 1-25q-7 0-10 16c-2 13-12 16-15 5q-3-10 4-21c4-7 4-8 4-14q0-13-9-10m-80 5q-10 6-14 20c-3 10-15 11-15 1l-1-3-1-3-3-4-2-3v31h3q10 3 13 10c1 2 1 3-7 11q-16 15-3 14 6 1 5-3c0-5 7-12 13-12 4 0 6 8 4 12l-2 2 20 1h20v-4c0-9-12-19-24-19l-10-2c-4-2-13-11-12-13 1-4 9-4 13-1 10 10 26 10 26 2 0-5-13-13-21-13q-16 0 1-10 12-6 11-11-1-8-14-3m171 7q-7 8-6 11l9-1q14-1 14-9c0-8-9-9-17-1m392 0q-5 6 0 26 1 5-7 0-12-9-19-9-14 5-4 15c3 3 5 3 14 5q11 1 5 12-3 6-10 3c-8-1-26-1-28 1q-5 6 2 11l4 3h56l-1-5-4-12c-4-8-4-10 0-16q7-8 6-19c1-13-7-21-14-15m-141 3-2 5-3 10q-4 6-2 7c4 5 27-2 27-7a19 19 0 0 0-15-14zm-117 2q-5 6 2 19c5 10 4 13-5 21q-15 16-15-10 0-19-7-21c-12-4-12 23 1 39l6 12q-2 3-7-3c-7-7-17-9-21-5q-3 2 0 7l2 3h45l-3-3q-6-5 1-11c5-4 6-4 15-3 19 4 39-5 38-16q-2-13-17 0-12 13-20 7c-2-1-3-7-1-9 2-1 2-12 1-18-2-10-10-14-15-9m292 27c-10 6 1 14 14 10q8-3 11-1c1 2-4 5-7 5-6 0-16 8-22 18l-2 3h18l2-6q2-8 12-10 13-1 15 4-1 2-9 4c-5 0-12 5-12 7l12 1h12l4-4q6-8 11 1 1 4 7 3 10 2 2-6-6-8-2-8l4 5q4 10 13 9 10 1 4-9c-5-6-19-15-22-13l-10 1c-11 0-14-1-22-8-10-9-25-12-33-6m102 8q-11 8-3 23c2 4 2 4 8 4q6 1 4-2-4-6 1-14c7-10 0-18-10-11m-567 12q-5 5-7 11l-1 4h9c9 0 9 0 10-3 6-10-3-19-11-12m207 6q-3 1-5 5l-2 4h4l5-1h2c2 2 8 1 8-1 2-7-6-11-12-7m128-1q-3 2-5 6l-2 4h15v-4q1-10-8-6m-314 6-3 4h8c9 0 9 0 8-2q-3-9-13-2m-100-1-3 3c-1 2-1 2 10 2h12l-5-3q-8-5-14-2"
        mask="url(#16282281824-posters-1720553686607-vertical-mask)" itemprop="medium" fill-opacity="0.90"
        fill-rule="evenodd" stroke="none" fill="url(#16282281824-posters-1720553686607-vertical-medium)"></path>
      <!---->
      <path id="16282281824-posters-1720553686607-bold"
        d="M0 7v8l2-4q2-7 5-7c4 0 11 8 11 14l-4 8q-8 11-1 20c4 4 4 4 9 1 8-5 7-21-2-40l-3-7H0zm35-4c-5 9-2 26 6 26 4 0 4-16 0-24q-3-8-6-2m31-1-4 4q-10 8-6 18 5 6 0 7c-5 2-3 8 2 10 7 2 12-11 7-18l-1-6c0-11 8-10 13 0 3 6 14 17 17 17q7-1 4-9l-1-4L84 7q-3-1-5-4c-2-4-11-4-13-1m28 0q4 4 5 10c2 14 19 27 22 17 1-2-1-10-2-11l-7-10-4-4c-3-4-3-4-9-4q-8 0-5 2m85 0q12 4 12 7 3 8-18 8-23 1-26 12c-3 8 11 8 19 0q6-5 9-1v8c-1 16 9 30 15 21q5-7-1-19t0-15l4-2q2 1 5 8l3 6 1 4 5 9 5 8v7c-2 16 9 31 23 35q9 3 11-5-1-10-17-15-9-3-9-10-2-7 10-7 14 0 19-7c7-9-4-14-16-6q-14 8-22-6-5-11 10-6c7 3 17 4 22 0q5-4 0-9c-4-3-25-4-32-1q-8 3-8-5l-1-4c-5-10 2-17 10-10 5 4 7 5 14 5q13 0 7-9l-2-3h-58zm63-1c0 4 11 4 12 0q2-1-6-1zm44 3c-7 6-6 14 1 14q8-1 17-9c5-4 16-3 18 3l-2 14-3 11q-3 21-11 9c-2-5-13-14-21-17-6-3-13 2-10 8 2 3 12 8 18 9q15 3 0 10c-11 5-17 16-12 20q5 5 13-5c10-14 19-14 18 1-1 5-1 6-7 11-8 8-10 8-17 3q-16-10-28 0c-9 10 0 16 12 9q10-5 13-1t0 9l-1 6-1 8v6l1 4c0 8 7 9 12 3 2-4 2-5 2-13-1-18-1-19 2-24q10-12 13 2c2 8 5 21 7 24 4 6 12-1 12-12 0-4-4-14-7-16l-4-9q1-5 7-2 17 9 15 20c-2 7 4 21 10 21 4 0 7-14 3-21l-3-6-7-10q-13-12 9-8 15 2 12-9c-4-4-20-4-29 1q-21 9-15-13c3-9 5-10 16-4 15 8 29 4 19-6l-6-4-4-1-11-2c-11 0-11 0-10-7q2-12 12-18c4-1 4-1 14 5s20 4 17-4c-2-5-14-10-22-10q-8 1-8-2c0-3-9-3-12 0-2 2-8 1-8-1l-15-1h-15zm127-3 5 2c7 2 14 11 13 17-1 2-9 5-13 5l-12 12-2 3-5-3q-9-6-12-2-5 4 7 18 11 8 0 14-13 8-12 15 0 7 5 7 4 1 10-11c4-9 17-12 24-6q5 6-2 7l-2 1-5 1a11 11 0 0 0-8 6q-4 2-6 7l-2 3 3 3q4 3 5 2l16-11q9-7 14 2 6 11-1 20l-4 4q-6 7-2 12 8 9 9-5 0-4 2-4 6 0 9-12 2-9 9 3c5 11 18 19 21 14 3-4-1-14-7-19l-5-5-15-6q-9-3-15-14-2-4 7-22 4-10 7-5c2 2 2 2 2 8-1 17 1 20 7 21q7 2 6-12c0-10-2-15-11-24-8-8-9-10-9-17 0-6 0-6 3-9q11-7 14-15 6-7-6-6h-9v3q-1 17-10 6l-3-5-1-3-10-1zm95 4q3 9-7 9-22 4-17 17 3 7 11-2c8-7 10-9 14-7q7 4 10 10l3 9q4 14 1 17-6-1-8-4c0-3-9-11-13-13-6-3-14-1-14 3s9 11 16 14q7 0-2 8-17 17-8 23 8 2 12-11 4-12 12-12 8 1 2 13l-2 5-4 9q-7 14 3 20 5 2 7-5l1-6 2-8q3-16 10 0 4 9 0 20-7 16 4 18c6 0 8-3 8-17q0-23-14-37c-3-3-3-6-3-17l-2-18v-8q3-2 4 1l1 2 4 5c7 10 18 8 14-2-3-6-16-16-21-16l-4-2q-4-3 5-9c6-4 14-12 14-13l-5-1q-7 0-6 2c0 3-7 9-11 9q-5 1-5-6V0h-12zm71-4c0 3 6 12 10 16 7 6 7 10 2 20l-3 5q-2 5-7 3-3-2 0-21 0-11-4-11-6 1-7 7l-1 3-1 7q0 12 11 23c5 5 6 6 8 17 2 10 2 11 0 13q-6 3-10-8-6-13-16-12c-11 3 2 23 16 26l9 2c8 0 9 1 11 5 4 8-1 18-10 18-12 0-23 5-23 10q2 8 18 5 14-5 12 4c0 5-1 7-9 16-9 9-10 11-7 14q6 7 14-1 13-10 9-40-1-6 1-9 3-10 8 2c4 16 16 20 16 5l-1-6-2-3-1-1-2-2-8-9q-18-19-7-21c17-5 29-23 16-23-5 0-5 1-9 7q-6 12-14 8c-4-3-6-11-5-15 2-6 2-6 12-6l9-1 4-1c8-3 17-17 13-22-3-3-10 1-11 7-3 10-14 13-19 6q-5-6 1-11c2-3 9-7 12-7 1 0 12-10 13-13 3-6-4-10-9-5-3 4-17 14-18 14l-4-3q-4-2-3-8l1-5h-8zm106 6c0 10 0 11-12 11-16 1-33 16-27 24q5 5 19-10c10-10 12-10 19-4q7 6 1 12l-3 4-10 14c-3 3-10 4-11 2l-17-3c-7 2-10 9-5 12 2 2 2 2 8 0q13-3 7 6c-7 8-9 23-4 27q12 8 10-15c0-10 0-12 5-16q7-7 7 12c1 22 0 26-5 34q-11 15-6 21 8 7 15-15l4-18q1-14 7-8 9 4 6 27-1 7 3 10c6 7 11 0 10-12-2-17-2-17 1-18q5 0 6 14 1 17 10 17c6-1 6-15 0-25q-7-11-21-14l-11-5-4-2q-9-5-8-17 2-30 18-20l6 3c3 1 5 7 5 10-2 11 2 21 9 21q12 0-1-29-6-8 6-8 15-2 16-10c-1-7-16-6-25 1q-4 3-8 2l-5-1c-7-2-1-8 9-9 8-1 21-9 21-13l1-1c2 0 1-5-1-6l-10 2-6 4-9 4q-13 9-9-8l2-10V0h-14zM423 34l-5 6c0 3-5 6-7 6q-6 1-1 13c2 3 16 8 21 7q6-2 6-20V34l-3-2c-5-4-6-4-11 2m340-3c-2 1-1 7 2 9q5 7 4-3 1-9-3-7zM145 58l-9 4-5 5q-10 12-12 11l-11-6c-2-2-16-9-23-11-17-6-27 0-17 9q5 5 11 6 7 1 6 3c0 2-8 11-9 11a22 22 0 0 0-10 15q-3 6 2 9 9 6 12-14 2-12 8-12c3 1 4 3 5 14l4 7q5 7-1 9c-10 6-20 29-13 32q7 2 10-6l7-17q0-4 5-8t5 9c2 20 9 32 14 24 3-3 1-24-2-27-4-6 0-21 5-22 2 0 9 6 9 8l2 5 4 6 1 3v13c-11 22-10 44 1 58 9 10 15-2 8-15-8-15-9-18-7-28q4-10 7 0l12 21q7 7 12 4 9-8-6-20-12-9-10-12c0-7 10-8 17-2q17 15 21 9 4-2-1-8c-8-9-23-14-34-11q-7 2-11-8-10-18 14-17h11l4 3c9 9 12 11 17 11q6-1 8-6c0-5-15-13-28-15-8-2-11-10-8-16l4-13q0-7-5-8c-2 0-10 8-10 12q1 6-7 5c-6 0-17 2-18 4-1 3-8 0-8-4q0-7 14-10 15-2 17-11 0-8-12-3m610 0q-2 6 6 15c8 8 8 8 8-4l-1-10-3-1c-2-3-8-2-10 0M44 78q-3 2-3 13-1 11-7 1c-9-12-23-15-23-5q-2 6 13 15 9 5 8 13 1 7-8 0l-6-5c-3-3-11-4-14-2q-5 8 10 17c12 5 14 9 14 23q0 23-14 3L4 140l-3-3-1 4q0 6 2 8l3 3q0 4-3 4-2 0-2 5v5l3-2c4-3 17 0 20 5q6 11-9 14l-10 3-4 1v10q-1 16 6 1 5-10 11-9 6-1 5 10 1 12-9 13l-9 3-4 1v10q0 10 1 9 4-13 9-15c12-6 18 4 8 15l-3 4-2 2c-9 9-7 42 3 42 5 0 8-18 4-26s-3-17 2-17q4 1 5 5l3 6 3 6c0 2 8 14 11 18 9 9 15-3 8-15q-5-7-2-8c3 0 12 4 16 9l4 3v9c0 11 1 14 5 17 6 4 11-4 9-14 0-7-3-10-10-17-10-9-16-13-26-14-14-3-15-4-17-21-2-10-2-12 0-16l1-5h4q12 2 12 18 2 9 9 11 12 0 1-20c-1-4-11-12-19-15-7-4-7-5-7-14q1-15 9-14 9 2 9 9c0 13 12 23 17 14 2-3 2-3 0-8a33 33 0 0 0-23-22c-7 0-11-8-7-14q2-7 14 3 10 9 16 7c9-3-6-17-20-20-9-2-10-2-10-8q1-10 8-20c11-17 13-34 3-34zm702 0q-11 3-12 11c0 3 11 7 13 4l2-1c3 0 10-7 10-10q0-6-13-4m-642 4q-2 3 1 11 2 4 1 10 1 18 13-2 5-7-5-16-8-6-10-3m49 11-7 3q-11 2-6 8 3 5 12 1 9-3 9-8-1-9-8-4m612 8c-6 4-14 12-14 15q1 9 13 1l5-4v-7q1-11-4-5m-377 17c-8 5-15 16-15 23s-5 9-7 3c-2-12-11-20-16-14q-4 3 3 17 8 14-3 12c-5 0-13 4-14 6q0 3 3 5 4 7 16 3c10-4 11-4 16-1q8 5 7 14 1 10-5 6c-17-11-39-11-37-1q1 7 17 6c13 0 15 1 15 5 0 8-11 14-22 12q-13-3-21 6c-8 8 1 16 12 10l15-7 2-1c1-1 8-3 10-2q3 2-2 8-9 10-3 16 3 5 9-2 9-10 8-23c-1-8 0-10 5-15l2-3q1-5 8-6t5 9c-1 12 9 22 14 14q2-7-1-19-4-12-1-13 2-2 4-1c11 4 26-2 24-10q-1-4-13-5c-9 0-12 1-21 10q-6 6-9 5-5-1-6-4l-3-9q-10-21 7-12c8 4 19 6 23 3 8-6-3-15-21-16-15-1-16-4-2-18q7-6 6-9-2-6-9-2m-127 17q-4 4-3 10 1 8-8-3-9-9-16-7c-9 3-4 14 9 21q5 2 5 4-1 4-5 5c-2 0-9 5-11 8-6 11 3 15 13 6q7-6 14-6 14 2 9 14l-3 5c0 2-7 4-11 3-13-4-34 6-36 17q-1 7 5 9 5 1 12-10 8-12 15-9 6 4 2 6l-1 1-3 4-3 3-2 3-16 22q-7 20-1 26 4 5 8-1 7-5 6-24c0-10 0-11 7-18q11-8 6 10-4 16 6 13c9-3 11-17 4-27-5-7-4-9 5-20q10-12 13-7 4 3 0 11c-5 12 0 23 8 19 8-3 8-27 0-33-11-10-11-11 0-12q14-1 20-6 14-10 6-15c-4-5-7-4-17 5-14 11-16 11-19-5-4-17-13-28-18-22m223 5c-2 2-3 3-3 13q0 17-6 13c-14-6-30 1-18 9q3 3 13 2h9l4 4c10 10 11 27 0 21l-6-5c-6-7-21-11-28-8-10 5 0 14 14 14q17 1 6 7-13 10-9 19 6 7 11 0 7-13 13-15 15-6 21 12 7 14-14 8c-18-5-38 9-30 21q2 4 6 3c4-1 11-6 11-7l4-5q6-5 8-1 1 1-4 12l-4 14q0 6 7 8c6 1 11-9 10-21q-1-10 5-13 8-3 10 8c1 8-1 11-6 18q-10 10-8 16c2 10 10 11 14 3q6-14 7-27-1-15 6-14c7 0 12 11 9 20-4 11 0 22 7 21q5 0 6-16 0-17 13-5 15 12 16 0c0-7-11-13-25-14-7-1-16-5-19-9l-6-4c-9-5-10-5-10-12 0-9 10-12 17-5 10 10 24 10 22 1-2-10-19-16-35-10l-8 2-5-5c-9-10-7-23 5-23l4 1c3 2 19 1 23 0q5-3 2-8-3-4-18-4l-10-1q-2-4 1-7c1-2 16-5 20-5 3 0 8-5 7-8-2-8-19-7-28 2q-9 9-10 19-4 15-9 5c-5-10-5-15-1-27s-3-23-11-17m125 6c-3 6 2 17 10 22 7 4 13 15 12 22-1 8-9 4-11-4l-1-4-2-4c-4-7-12-8-14-2q-2 3 2 9l3 8 1 1v5q-4 3-14-1c-11-5-14-6-17-3l-3 4q2 5 8 8l5 1c3 2 17 0 26-4 5-2 14-2 17 1 3 2 4 20 3 26-2 7-11 5-15-3q-4-9-11-12c-7-3-9 6-3 15 7 10 7 10 4 12-2 3-9 2-13-1q-9-6-16-5-9 5 0 12 15 9 35-3c15-9 17 4 3 15l-8 6c-13 11-9 25 3 16 9-6 11 0 3 9-7 8-7 22 0 22 3 0 10-7 11-10l1-5c2-2 2-21 0-24-5-8 1-17 7-11 2 2 2 9 0 13-1 2 2 11 4 13q6 3 8-2l1-2 1-7q0-12-10-21c-4-4-4-4-4-9q5-29 20-16c5 4 5 7 2 17q-2 17 8 17c7-2 6-22-1-34q-3-7 3-10c9-7 18 0 17 11-2 13-2 15-1 18q5 9 11 0a35 35 0 0 0-6-30q-7-9 0-16c3-3 9-14 11-21q4-11-8-9c-4 2-9 12-10 21 0 8-1 10-7 15-10 7-26 12-29 9q-4-4 1-10l16-13c4-3 11-20 10-24-4-10-15 1-19 18-3 12-12 11-13-1v-7l4-5q10-9 9-22 0-17-9-10-5 5-3 16 2 13-3 13c-2 0-8-7-8-10l-4-6-4-7q-8-12-13-7m158 0-2 5-2 4c-1 1 2 6 4 6q3 1 2-8 1-13-2-7m-506 11q1 7 6 8 5-1 0-6-6-6-6-2m464 7q-4 9 7 18 12 11 12 15l2 7q3 9-2 11c-7 6-18-2-21-15q-3-10-9-12c-4 0-7 6-5 10l3 6q8 12 20 17 8 0 8 14-2 25-12 4-9-17-14-12c-9 5 4 23 20 28 7 3 7 4 9 8 4 7 17 19 23 21h3v-16l-6-2q-10-2-12-9l-3-7c-2-3-1-10 1-11l5 3q5 5 12 8l3 1v-13l-5-1q-8-1-12-11l-1-5c-2-5 7-19 15-22q3-1 3-4 2-5-6 1-13 8-10-1 2-5 10-6 6 0 6-6 0-4-1-2l-3 1q-3-3 2-5 3 0 2-4-1-8-14 5l-7 5q-1 3-6-1l-2-5c0-10-11-20-15-13M87 177c-2 3-2 3-2 13a61 61 0 0 0 3 22l1 4c4 8 4 10 2 15a36 36 0 0 0 5 34c0 2 6 7 8 7 8 0 7-12-2-25q-10-15 6-9l8 3 3 4 1 5 1 4c3 11 24 21 28 14q4-10-14-15-6-2-8-8l9-8a37 37 0 0 0 19-26c0-12-15-4-17 8q-1 11-8 12-4 2-6 1v-5c2-2 5-10 5-15q0-12-9-14-10-1-6 18c3 11-3 16-10 9-8-8-9-15-6-31v-10q0-6-4-8c-4-1-3-1-7 1m109 10q-8 4-13 18l-3 7c-1 2-1 4 1 14 1 11 2 11 6 16q8 9 11 0a16 16 0 0 0-6-16q-7-10 1-18 16-18 8-21zm204 44q-6 3-24 23l-5 5-5-1q-20-3-31 7c-4 4-3 11 3 11 3 0 14-6 18-9a6 6 0 0 1 10 7l-1 2q-1 4-8 6c-15 1-27 10-27 19 0 10 12 6 22-7q10-10 10 3c0 14 11 38 19 41s14-6 9-14q-3-6 5-3 15 1 0-17-10-8-4-10c4-3 5-2 12 1q17 8 21 3 4-2-1-7t-11-6q-4-1 0-5c5-4-3-14-16-21-8-4-8-4-8-7q2-3 13-7 14-6 14-13c0-6-9-6-15-1m-98 15q-8 7-5 22c3 11-5 11-12 0-8-12-24-19-24-9 0 3 7 11 11 13l16 12q2 4-9 11c-6 3-13 21-10 25 4 4 16-6 18-14 2-13 12-16 12-4 0 5 0 6-5 11q-10 10-4 15 7 7 16-12c4-7 4-12 1-23-2-8-2-10 2-16 9-15 4-37-7-31m-135 10q-5 5 7 26l2 5c0 2-6 1-10-1-12-6-23 0-14 8q10 9 26 4 10-3 10 3l-2 4-3 1-5 1c-4 1-4 2-10 7-6 6-6 6-7 13q-1 13 4 14 7 1 7-6l2-4-2-1q-7-1-5-4h3q6 1 7-5l3-6 3-3 2 2 3 6 1 4q4 1 4 7-1 5 6 3 7-1 1-14-3-6-2-8 3-9 14 4 14 15 6 19l-2 5q0 3-4 3-5 0-6 7c-5 13-2 25 5 23 6-1 6-3 7-18v-14l4-1 6-1c3-1 4 10 1 14-3 3-4 14-2 18 5 12 13 7 14-7q0-13 5-12 3 0 5 6c6 12 16 17 20 11q3-6-7-16c-7-7-9-8-16-8l-6-1 1-1q3 1-3-5l-5-5q-1-5-7-11-9-15 5-6 15 12 23 6c3-3-2-10-7-12l-4-1-2-1-5-1q-2-2-14-2c-12 0-15-1-22-8q-4-5 5-2c8 4 19 4 21 0 6-9-15-16-30-11q-15 7-14-10c0-10 0-11-5-16q-7-7-12-2m213 9-2 3-1 2c-3 3-6 19-4 21q4 4 11 0l4-2c2-2 11-4 13-4l4-1q4-2-2-4l-9-8q-8-12-14-7m317 2q-6 2-2 17c3 11 3 14-1 17q-9 8-11-6-3-12-10-13-4 0-3 4l-1 5c-3 5 5 16 18 22 11 6 35-7 40-21 2-5 3-14 1-15-3-3-9-1-10 4-4 17-5 21-8 23q-7 5-9 1-1-4 1-5c2 0 5-9 6-16q1-23-11-17m-234 11q-4 5-9 5c-16 3-12 23 6 33 14 6 37 0 37-11q-1-12-17-1-4 4-3-9 0-16-9-19-4 0-5 2M0 293v7h4q10 2 15-1c6-4-1-11-13-12H0zm460 6q1 6 4 5c2-1 1-8-2-9q-2-1-2 4m-343-1q-5 8 9 11 6 2 6 8-4 14 3 13 4 1 2-3-1-4 3-5 6-2 0-14c-5-10-17-16-23-10m648 2q-4 3-3 12c0 8 0 9-3 11-3 3-4 3-11-1-17-7-36-1-26 8 3 2 4 2 18 0q11-3 11 3-1 5-17 9l-7 2c-6 2-8 1-14-4-11-11-26-16-32-10q-10 11 13 11c11-1 11-1 13 1l3 4c0 3-10 7-21 8h-8l-3-3q-11-14-29-18-13-3-13 3 1 6-7 2-9-1-10 3c0 6 17 18 27 20q12 2 5 10-3 5-15 2-13-1-12 6c1 5 16 9 19 6l2-1c2 0 13-7 13-8l2-4 3-6q1-3 8-3l9-2c9-2 18-1 18 1s-5 6-7 6c-5 0-15 6-15 10 0 5 9 7 14 3l5-3q8-5 12-14 4-10 12-12c4 0 12-3 14-4l6-1q13 0-2 9c-9 4-12 11-7 13a10 10 0 0 0 11-2c4 0 14-15 14-22q0-3 8-5h6v-8c1-8 0-35-1-35zm-206 6-3 5-1 4-2 8q-1 21-16 12l-9-2c-13-1-19 7-9 13 4 3 18 4 23 2l5-2q10-5 18 10c3 6 3 19 0 22-5 5-13 1-15-6-3-9-11-13-15-8-4 4 2 17 10 19q12 5 5 20-8 16 2 18c6 0 9-10 9-22q-1-12 2-10 5-5 9 13l4 8c0 2 14 16 18 18 8 5 15-3 9-11q-3-4-4-2-2 2-2-1t-3-3c-6 0-9-5-4-5l4-1 4-2q4 0 13-11c3-3-3-10-9-9q-2 0-11 10-7 6-11 2l-2-3-2-7q-1-10 8-10c7 0 19-9 19-14l1-3q0-5-6-5-4-1-9 8c-5 11-14 9-13-3q1-15 11-20c11-9 14-22 5-22-3 0-8 5-8 7l-4 7-4 8c0 3-6 8-8 8q-4-3-5-12l-1-5q-1-1 1-4c9-12 6-30-4-19m-184 0q1 5 6 8l2 1 2 1v-4q-6-10-10-6m-363 4c-12 3-11 2-11 13v10l4 4q17 18-1 17l-4-1v41l3 1q11 2 6-20l-1-7c0-3 7-9 10-9q5 1 6 6l1 2q5 6 0 18-9 15-2 22c8 10 19-14 13-28l-2-9-4-11q-3-9 7-6c13 3 13-6 1-12l-11-2q-10 1-17-8-14-15 2-9c9 3 24 3 26 0 7-7-13-16-26-12m53 4q-16 17 8 41 12 11 11 20-1 4-4 6-4 0-9-14-4-12-13-7l-2 3 2 6q6 17 21 18 13 1 14 9 1 3-7 4-14 2-16 4-16 11-17 23 0 9 5 8 8-1 14-21 2-9 9-8 7-2 7 10c1 14 9 22 15 15 2-2 0-10-3-16q-5-9 1-11l6-1 15 3 6 1 4 7a24 24 0 0 0 13 14l3 1 4 2c1 2 8 1 10-1q5-9-15-14-8-3-9-10 0-5 11-11c17-9 30-30 18-30q-10-1-19 17-5 12-11 12-3-1 0-5l1-5 1-4c2-4-1-10-5-10q-8 2-9 11c0 14-14 19-24 7q-8-8-5-10 1-2 12-5c6-2 15-16 15-24 0-19-17-10-19 10q-1 12-9 10c-7-2-9-21-3-29l5-10q6-13-3-18-4 1-6 6l-2 3-4 18q-3 13-8 7c-2-3-3-6 0-17q2-9-2-15-3-6-7 0m267 8q-2 1-2 8c1 6 3 9 11 20q3 2 3 6a29 29 0 0 1-2 15q-2 5-8 6c-2 0-9-6-10-10-2-4-15-11-22-11-9 0-14 7-7 10l5 2 8 2q19 1 5 12c-14 9-18 19-9 19q3 1 12-9c8-8 8-8 12-8q9 2 3 10l-3 3c0 4-7 9-13 11-15 3-22 19-8 19 5 0 22-15 22-20q1-3 5-3c6 2 5 21-1 21-4 0-11 9-11 14q0 14 14 0 16-18 6-38c-2-5-1-9 4-21l6-15 1-7q2-11-6-25-10-17-15-11m116 5v5q-2 4 10 10 13 9 10 14c-1 3-12 0-19-7q-15-13-32-11c-15 3-17 14-2 14q14-1-4 9l-9 4h-12c-12 0-12 0-20 5-7 5-9 13-3 14q3 2 12-7 21-16 7 6c-4 5-8 12-16 30l-4 8c-2 4 0 11 4 11 7 0 15-14 16-29q2-20 11-8 7 9-1 19c-6 7-4 21 3 21 3 0 10-9 11-14 2-16 2-16 13-5l4 2 1 1 2 1c11 0 2-18-11-24l-5-2c-7 0-17-7-17-12s13-16 25-20c10-3 15 10 9 19-7 10-2 22 6 15 6-6 9-23 5-30-3-5 4-8 11-4l6 3c7 3 8 5 8 15l1 8 2 1-1 1q-3 1 2 7c3 5 11 6 12 2v-17q-4-10 8-3 14 7 20 1c7-5-4-12-19-12q-7 0-8-5 1-4 4-5c3 0 9-15 9-20-2-11-13-9-16 3a4 4 0 0 1-6 3l-3-5a31 31 0 0 0-17-13c0-2-6-1-7 1m196 20c-5 3 5 9 15 9q10 0 9-4 1-3-5-3l-6-1c-3-1-12-2-13-1m111 26c-8 2-13 17-9 25 3 5-9 19-16 19-4 0-5-7-1-12 9-10 8-20-1-18-7 2-12 16-8 25q5 12-1 16l-4 3-7 4c-15 9-20 3-9-9q17-16 8-28c-7-9-14-2-11 11q3 10-3 10l-3-2c-4-7-14-12-18-9q-5 6 6 12 12 9 3 17-8 7-21-14-6-9-11-7l-1 2q1 2-1 4c-2 4 7 14 16 17q11 4 6 10c-2 1-10 2-10 0l-5-1q-7-1-2 6 7 10 19 1l6-4c0-1 6-4 10-4q16 1 10 14c-3 6 0 17 6 17q5-1 7-14 2-20 15-9c5 4 14 4 16 1q4-5-2-6l-8-4q-6-2-20 1-6 1-1-6 13-11 22-1a56 56 0 0 0 28 10h9v6q0 6-3 12-5 10-2 22 4 13-2 19l-3 3h10l1-29-1-38v-9h-4l-8 1q-6 3-7-1 1-4 8-6l7-2 4-1v-8q0-12-3-7c-1 2-9 1-10 0-1-2 0-8 2-8 3 0 11-10 11-14v-3l-6 5c-11 10-16 5-5-6q8-9 4-13zm-544 14c-5 3 0 13 11 18l5 2 1 1 2 1c6 2 3 10-3 8h-12c-15 0-22 10-9 14q6 1 1 4c-23 9-32 24-16 25h5v4c1 14 28 5 36-12q5-13 12-6c4 3 9 13 9 17 0 8-9 14-13 9-2-2-18-1-19 1q-4 5 2 9c3 2 4 2 15 2 11-1 12-1 13 1 3 5-3 19-9 21l-4 4-1 2h16q32-1 34-11 0-9-18-2-14 7-9-7 1-6 10-8c10-2 19-9 19-15 0-7-9-5-18 4q-10 11-10-10v-9l4-4c12-14 13-35 1-33q-8 3-8 18 2 16-9 5c-7-6-8-9-9-19l-2-12c0-4-5-13-10-17q-12-10-17-5m-27 9c-3 3-3 14-1 17q8 6 12-5c2-11-6-20-11-12m301 20c-3 2-8 16-8 22q-2 15-9-2c-3-9-14-17-17-14q-3 4 2 14 4 9 0 8c-6 0-14 12-13 20q1 14-14 2c-8-6-10-7-16-7q-9 1-10 6 2 5 12 8c8 3 8 3 9 7q1 2-6 7-15 10-11 20 3 7 10 3l7-5 6-10c4-9 5-9 11-4q13 9 23 3c6-4-3-11-15-11q-2-1 3-4l4-2h4l3 1c2 0 11 7 11 9 0 5 21 8 26 4q10-9-10-11-15-3-4-7l3-2c2-3 14-3 20 0 5 3 23 2 30-2q15-10 11-20c-3-4-14 2-23 11-6 7-7 7-11 7q-18 0 0-17l13-16c7-9 1-16-9-11a18 18 0 0 0-10 14l-2 6c-2 8-10 16-16 16-3 0-7-2-4-2l1-6c0-9 0-10 3-14 9-12 7-29-4-21m255 3q-7 4-8 10c0 5 7 7 12 3l16-9q4-3-1-4-13-3-19 0m-521 9-4 3c0 3 15 2 16 0 1-5-6-6-12-3m-103 7c-5 8-10 25-8 34l-1 5c-4 1-8-6-5-9 3-2 2-15-1-19-10-10-18 5-11 21q4 8 3 12l-8 1q-14-2-16 5c-2 10 15 11 29 1q9-5 15 4l7 12 4 8q-1 2 7 2h6l-2-3q-7-8-6-11c0-3 0-3 10-1q16 4 25-6c9-8 10-17 2-17-3 0-11 7-11 9s-7 8-10 8q-11-1-5-8c8-8 11-19 7-23q-9-9-14 15c-1 10-11 14-14 6-3-5-3-17-1-20q8-9 8-18c0-8-7-13-10-8m-79 4c-6 3-13 14-13 19 0 4-8 10-12 9q-3-2-6-11l-3-7-2-2v30h2q7 1 13 7c5 5 5 4-7 16q-14 12-2 12h5v-4q0-7 9-10l4-2 3 3q4 6 0 11c-1 2 0 2 18 2h20v-4q-2-17-26-18c-6-1-8-2-15-8q-7-8-3-11t16 4q13 9 20 3c6-5-7-14-21-16q-15-1 4-12 12-6 9-11c-1-2-9-2-13 0m174 3q-10 9-9 14h8q15 0 15-11c0-7-8-9-14-3m389 3c-2 2-2 21 0 25q1 4-2 5l-5-4c-14-10-26-11-26-1q0 8 15 11 11-1 9 7 1 6-3 8-6 5-11 2c-2-2-22-2-25 0q-4 5 0 9c6 5 5 5 33 5h27v-4q0-4-4-12c-5-10-5-11 1-19 10-14 3-40-9-32m-142 3-1 2c1 1-2 10-3 12q-8 11 3 11 28-4 21-14-2-5-10-9c-9-4-9-4-10-2m-114 2q-6 4 1 19c5 10 4 12-6 22q-14 12-15-1c0-21 0-23-3-26l-5-5q-4 0-6 4l-1 4c-3 5 2 21 11 33q7 10 4 11l8 1h10l-2-2q-7-7 2-14 6-5 12-2l13 1c14 0 26-7 26-16q-1-14-17 1-14 14-21 6c-1-3-1-10 1-11s1-15-1-19q-5-11-11-6m293 26q-10 4-4 10h16c4-3 10-2 10 0q1 4-5 5c-6 0-19 10-24 19l-1 2h17l1-4q1-13 15-13 11-1 13 3 4 5-8 6-10 2-11 6-3 3 10 2h12l4-4 5-5c3 0 7 5 7 7q-1 3 6 2 11 2 0-7-5-6-2-7 4-1 7 5c1 7 15 12 17 8 3-5-15-22-22-20-16 3-24 1-33-7-9-9-23-13-30-8m103 7q-10 3-9 13 0 16 10 16 6 1 4-2-5-4 0-13 6-9 1-13-3-3-6-1m-326 12-3 4q1 6 5 2c3-4 1-9-2-6m-373 2-1 3c0 6 6 8 7 3q-2-6-6-6m128 2c-3 2-7 10-7 12l8 1c10 0 10-1 10-9l1-6-5-1q-5-1-7 3m128 3q-3 3 1 8 0 3 12 2h11l-4-4q-13-11-20-6m79 1-6 8c0 2 6 1 8-1h3c4 4 9 1 6-4q-4-6-11-3m126 2q-8 8 3 7 7 1 7-3 0-11-10-4m-311 4-3 3h7q9 1 8-2c0-5-8-5-12-1m-101-1q-3 1-3 3l10 1h10l-2-2c-3-2-12-4-15-2"
        mask="url(#16282281824-posters-1720553686607-horizontal-mask)" itemprop="bold" fill-opacity="0.90"
        fill-rule="evenodd" stroke="none" fill="url(#16282281824-posters-1720553686607-vertical-bold)"></path>
    </pattern>
    <rect id="16282281824-posters-1720553686607-pattern-render" fill="url(#16282281824-posters-1720553686607-pattern)"
      width="100%" height="100%"></rect>
  </defs>
  <radialGradient id="lightbar" cx="50%" cy="200%" fy="0" r="201%">
    <stop offset="0%" style="stop-color: rgb(255, 255, 255); stop-opacity: 0.1;"></stop>
    <stop offset="10%" style="stop-color: rgb(0, 0, 0); stop-opacity: 0.1;"></stop>
    <stop offset="30%" style="stop-color: rgb(0, 0, 0); stop-opacity: 0.3;"></stop>
    <stop offset="90%" style="stop-color: rgb(0, 0, 0); stop-opacity: 0.55;"></stop>
    <stop offset="100%" style="stop-color: rgb(0, 0, 0); stop-opacity: 0.6;"></stop>
  </radialGradient>
  <g class="radial">
    <radialGradient id="16282281824-posters-1720553686607-radial" gradientUnits="userSpaceOnUse">
      <stop itemprop="radial" stop-color="#94928f" offset="0%"></stop>
      <stop itemprop="radial" stop-color="#91908d" offset="15%"></stop>
      <stop itemprop="radial" stop-color="#a09e9c" offset="30%"></stop>
      <stop itemprop="radial" stop-color="#999794" offset="45%"></stop>
      <stop itemprop="radial" stop-color="#969592" offset="60%"></stop>
      <stop itemprop="radial" stop-color="#9b9a97" offset="75%"></stop>
      <stop itemprop="radial" stop-color="#94928f" offset="90%"></stop>
    </radialGradient>
    <radialGradient id="16282281824-posters-1720553686607-radial-background" gradientUnits="userSpaceOnUse">
      <stop stop-color="#d3cdc5" offset="0%"></stop>
      <stop stop-color="#d3cec5" offset="15%"></stop>
      <stop stop-color="#d3cdc5" offset="30%"></stop>
      <stop stop-color="#d3cfc5" offset="45%"></stop>
      <stop stop-color="#d3cfc5" offset="60%"></stop>
      <stop stop-color="#d3cfc5" offset="75%"></stop>
      <stop stop-color="#d3cec5" offset="90%"></stop>
    </radialGradient>
    <radialGradient id="16282281824-posters-1720553686607-radial-light" gradientUnits="userSpaceOnUse">
      <stop stop-color="#9b9997" offset="0%"></stop>
      <stop stop-color="#9b9a97" offset="15%"></stop>
      <stop stop-color="#9b9997" offset="30%"></stop>
      <stop stop-color="#9b9a97" offset="45%"></stop>
      <stop stop-color="#9b9a97" offset="60%"></stop>
      <stop stop-color="#9b9a97" offset="75%"></stop>
      <stop stop-color="#9b9a97" offset="90%"></stop>
    </radialGradient>
    <radialGradient id="16282281824-posters-1720553686607-radial-regular" gradientUnits="userSpaceOnUse">
      <stop stop-color="#82807d" offset="0%"></stop>
      <stop stop-color="#82807d" offset="15%"></stop>
      <stop stop-color="#82807d" offset="30%"></stop>
      <stop stop-color="#82817d" offset="45%"></stop>
      <stop stop-color="#82817d" offset="60%"></stop>
      <stop stop-color="#82817d" offset="75%"></stop>
      <stop stop-color="#82807d" offset="90%"></stop>
    </radialGradient>
    <radialGradient id="16282281824-posters-1720553686607-radial-medium" gradientUnits="userSpaceOnUse">
      <stop stop-color="#514f4d" offset="0%"></stop>
      <stop stop-color="#51504d" offset="15%"></stop>
      <stop stop-color="#514f4d" offset="30%"></stop>
      <stop stop-color="#51504d" offset="45%"></stop>
      <stop stop-color="#51504d" offset="60%"></stop>
      <stop stop-color="#51504d" offset="75%"></stop>
      <stop stop-color="#51504d" offset="90%"></stop>
    </radialGradient>
    <radialGradient id="16282281824-posters-1720553686607-radial-bold" gradientUnits="userSpaceOnUse">
      <stop stop-color="#2f2e2d" offset="0%"></stop>
      <stop stop-color="#2f2e2d" offset="15%"></stop>
      <stop stop-color="#2f2e2d" offset="30%"></stop>
      <stop stop-color="#2f2e2d" offset="45%"></stop>
      <stop stop-color="#2f2e2d" offset="60%"></stop>
      <stop stop-color="#2f2e2d" offset="75%"></stop>
      <stop stop-color="#2f2e2d" offset="90%"></stop>
    </radialGradient>
  </g>
  <g class="vertical">
    <linearGradient id="16282281824-posters-1720553686607-vertical" gradientUnits="userSpaceOnUse" x1="0" x2="0" y1="0"
      y2="100%">
      <stop itemprop="vertical" stop-color="#94928f" offset="0%"></stop>
      <stop itemprop="vertical" stop-color="#91908d" offset="15%"></stop>
      <stop itemprop="vertical" stop-color="#a19f9b" offset="30%"></stop>
      <stop itemprop="vertical" stop-color="#999794" offset="45%"></stop>
      <stop itemprop="vertical" stop-color="#969592" offset="60%"></stop>
      <stop itemprop="vertical" stop-color="#9b9a97" offset="75%"></stop>
      <stop itemprop="vertical" stop-color="#94928f" offset="90%"></stop>
    </linearGradient>
    <linearGradient id="16282281824-posters-1720553686607-vertical-background" gradientUnits="userSpaceOnUse" x1="0"
      x2="0" y1="0" y2="100%">
      <stop stop-color="#cdcccb" offset="0%"></stop>
      <stop stop-color="#cdcccb" offset="15%"></stop>
      <stop stop-color="#ceccca" offset="30%"></stop>
      <stop stop-color="#cdcccb" offset="45%"></stop>
      <stop stop-color="#cdcccb" offset="60%"></stop>
      <stop stop-color="#cdcccb" offset="75%"></stop>
      <stop stop-color="#cdcccb" offset="90%"></stop>
    </linearGradient>
    <linearGradient id="16282281824-posters-1720553686607-vertical-light" gradientUnits="userSpaceOnUse" x1="0" x2="0"
      y1="0" y2="100%">
      <stop stop-color="#aea084" offset="0%"></stop>
      <stop stop-color="#aea084" offset="15%"></stop>
      <stop stop-color="#ae9f84" offset="30%"></stop>
      <stop stop-color="#aea284" offset="45%"></stop>
      <stop stop-color="#aea284" offset="60%"></stop>
      <stop stop-color="#aea284" offset="75%"></stop>
      <stop stop-color="#aea084" offset="90%"></stop>
    </linearGradient>
    <linearGradient id="16282281824-posters-1720553686607-vertical-regular" gradientUnits="userSpaceOnUse" x1="0" x2="0"
      y1="0" y2="100%">
      <stop stop-color="#82807d" offset="0%"></stop>
      <stop stop-color="#82807d" offset="15%"></stop>
      <stop stop-color="#83817c" offset="30%"></stop>
      <stop stop-color="#82817d" offset="45%"></stop>
      <stop stop-color="#82817d" offset="60%"></stop>
      <stop stop-color="#82817d" offset="75%"></stop>
      <stop stop-color="#82807d" offset="90%"></stop>
    </linearGradient>
    <linearGradient id="16282281824-posters-1720553686607-vertical-medium" gradientUnits="userSpaceOnUse" x1="0" x2="0"
      y1="0" y2="100%">
      <stop stop-color="#51504d" offset="0%"></stop>
      <stop stop-color="#51504d" offset="15%"></stop>
      <stop stop-color="#51504d" offset="30%"></stop>
      <stop stop-color="#51504d" offset="45%"></stop>
      <stop stop-color="#51504d" offset="60%"></stop>
      <stop stop-color="#51504d" offset="75%"></stop>
      <stop stop-color="#51504d" offset="90%"></stop>
    </linearGradient>
    <linearGradient id="16282281824-posters-1720553686607-vertical-bold" x1="0" x2="0" y1="0" y2="100%">
      <stop stop-color="#2f2e2d" offset="0%"></stop>
      <stop stop-color="#2f2e2d" offset="15%"></stop>
      <stop stop-color="#2f2e2d" offset="30%"></stop>
      <stop stop-color="#2f2e2d" offset="45%"></stop>
      <stop stop-color="#2f2e2d" offset="60%"></stop>
      <stop stop-color="#2f2e2d" offset="75%"></stop>
      <stop stop-color="#2f2e2d" offset="90%"></stop>
    </linearGradient>
  </g>
  <g class="horizontal">
    <linearGradient id="16282281824-posters-1720553686607-horizontal" x1="0" x2="100%" y1="0" y2="0"
      gradientUnits="userSpaceOnUse">
      <stop itemprop="horizontal" stop-color="#91908d" offset="0%"></stop>
      <stop itemprop="horizontal" stop-color="#9e9c9a" offset="15%"></stop>
      <stop itemprop="horizontal" stop-color="#999794" offset="30%"></stop>
      <stop itemprop="horizontal" stop-color="#999794" offset="45%"></stop>
      <stop itemprop="horizontal" stop-color="#9b9a97" offset="60%"></stop>
      <stop itemprop="horizontal" stop-color="#969592" offset="75%"></stop>
      <stop itemprop="horizontal" stop-color="#8f8d8a" offset="90%"></stop>
    </linearGradient>
    <linearGradient id="16282281824-posters-1720553686607-horizontal-background" gradientUnits="userSpaceOnUse" x1="0"
      x2="100%" y1="0" y2="0">
      <stop stop-color="#cdcccb" offset="0%"></stop>
      <stop stop-color="#cdcccb" offset="15%"></stop>
      <stop stop-color="#cdcccb" offset="30%"></stop>
      <stop stop-color="#cdcccb" offset="45%"></stop>
      <stop stop-color="#cdcccb" offset="60%"></stop>
      <stop stop-color="#cdcccb" offset="75%"></stop>
      <stop stop-color="#cdcccb" offset="90%"></stop>
    </linearGradient>
    <linearGradient id="16282281824-posters-1720553686607-horizontal-light" gradientUnits="userSpaceOnUse" x1="0"
      x2="100%" y1="0" y2="0">
      <stop stop-color="#9b9a97" offset="0%"></stop>
      <stop stop-color="#9b9997" offset="15%"></stop>
      <stop stop-color="#9b9a97" offset="30%"></stop>
      <stop stop-color="#9b9a97" offset="45%"></stop>
      <stop stop-color="#9b9a97" offset="60%"></stop>
      <stop stop-color="#9b9a97" offset="75%"></stop>
      <stop stop-color="#9b9a97" offset="90%"></stop>
    </linearGradient>
    <linearGradient id="16282281824-posters-1720553686607-horizontal-regular" gradientUnits="userSpaceOnUse" x1="0"
      x2="100%" y1="0" y2="0">
      <stop stop-color="#968769" offset="0%"></stop>
      <stop stop-color="#968369" offset="15%"></stop>
      <stop stop-color="#968969" offset="30%"></stop>
      <stop stop-color="#968969" offset="45%"></stop>
      <stop stop-color="#968969" offset="60%"></stop>
      <stop stop-color="#968969" offset="75%"></stop>
      <stop stop-color="#968769" offset="90%"></stop>
    </linearGradient>
    <linearGradient id="16282281824-posters-1720553686607-horizontal-medium" gradientUnits="userSpaceOnUse" x1="0"
      x2="100%" y1="0" y2="0">
      <stop stop-color="#5d5441" offset="0%"></stop>
      <stop stop-color="#5d5141" offset="15%"></stop>
      <stop stop-color="#5d5541" offset="30%"></stop>
      <stop stop-color="#5d5541" offset="45%"></stop>
      <stop stop-color="#5d5541" offset="60%"></stop>
      <stop stop-color="#5d5541" offset="75%"></stop>
      <stop stop-color="#5d5441" offset="90%"></stop>
    </linearGradient>
    <linearGradient id="16282281824-posters-1720553686607-horizontal-bold" gradientUnits="userSpaceOnUse" x1="0"
      x2="100%" y1="0" y2="0">
      <stop stop-color="#2f2e2d" offset="0%"></stop>
      <stop stop-color="#2f2e2d" offset="15%"></stop>
      <stop stop-color="#2f2e2d" offset="30%"></stop>
      <stop stop-color="#2f2e2d" offset="45%"></stop>
      <stop stop-color="#2f2e2d" offset="60%"></stop>
      <stop stop-color="#2f2e2d" offset="75%"></stop>
      <stop stop-color="#2f2e2d" offset="90%"></stop>
    </linearGradient>
  </g>
  <g class="masks">
    <mask id="16282281824-posters-1720553686607-pattern-mask" maskUnits="userSpaceOnUse"
      maskContentUnits="userSpaceOnUse">
      <pattern id="pattern" x="0" y="0" width=".0133" height=".0144" viewBox="0 0 23.07 40">
        <path
          d="M17.62 0l-6.07 10.5m2.74 4.76L8.22 4.75m-5.48 0h12.13M.01 0h23.07M6.07 20L0 9.5m2.74-4.75l-6.07 10.5m-5.48 0H3.33m8.2 4.75L0 .02-11.54 20m40.68 0L23.07 9.5m2.74-4.75l-6.06 10.5m-5.49 0H26.4M34.6 20L23.08.02 11.53 20m-5.46 0L0 30.51m2.74 4.75l-6.07-10.5m-5.48 0H3.33m8.2-4.75L0 40l-11.54-19.98zM17.6 40l-6.06-10.5m2.74-4.76L8.2 35.25m-5.48 0h12.13M0 40h23.07L11.54 20.01m17.6 0l-6.07 10.5m2.74 4.75l-6.06-10.5m-5.49 0H26.4M11.53 20h23.08L23.07 40"
          stroke-linecap="round" stroke-width="3.5" stroke="white"
          fill="url(#16282281824-posters-1720553686607-horizontal-background)"></path>
      </pattern>
      <rect width="100%" height="100%" fill="url(#pattern)"></rect>
    </mask>
    <mask id="16282281824-posters-1720553686607-horizontal-mask" maskUnits="userSpaceOnUse"
      maskContentUnits="userSpaceOnUse">
      <rect width="100%" height="100%" fill="url(#16282281824-posters-1720553686607-horizontal-background)"></rect>
    </mask>
    <mask id="16282281824-posters-1720553686607-radial-mask" maskUnits="userSpaceOnUse"
      maskContentUnits="userSpaceOnUse">
      <rect width="100%" height="100%" fill="url(#16282281824-posters-1720553686607-radial-background)"></rect>
    </mask>
    <mask id="16282281824-posters-1720553686607-vertical-mask" maskUnits="userSpaceOnUse"
      maskContentUnits="userSpaceOnUse">
      <rect width="100%" height="100%" fill="url(#16282281824-posters-1720553686607-vertical-background)"></rect>
    </mask>
  </g>
  <use href="#16282281824-posters-1720553686607-pattern-render"></use>
  <g>
    <use href="#16282281824-posters-1720553686607-background"></use>
    <use href="#16282281824-posters-1720553686607-light"></use>
    <use href="#16282281824-posters-1720553686607-regular"></use>
    <use href="#16282281824-posters-1720553686607-medium"></use>
    <use href="#16282281824-posters-1720553686607-bold"></use>
  </g>
  <g itemprop="animation">
    <animate href="#16282281824-posters-1720553686607-light" attributeName="stroke-opacity" repeatCount="indefinite"
      dur="5s" values="0.9;0.0;0.9"></animate>
    <animate href="#16282281824-posters-1720553686607-regular" attributeName="stroke-opacity" repeatCount="indefinite"
      dur="4s" values="0.9;0;0.9"></animate>
    <animate href="#16282281824-posters-1720553686607-medium" attributeName="stroke-opacity" repeatCount="indefinite"
      dur="5s" values="0.9;0;0.9"></animate>
    <animate href="#16282281824-posters-1720553686607-bold" attributeName="stroke-opacity" repeatCount="indefinite"
      dur="3s" values="0.9;0;0.9"></animate>
    <animate href="#16282281824-posters-1720553686607-regular" attributeName="fill-opacity" repeatCount="indefinite"
      dur="8s" values="0.9;0.75;0.95;0.8;0.9;"></animate>
    <animate href="#16282281824-posters-1720553686607-radial-background" attributeName="cx" repeatCount="indefinite"
      dur="34s" values="0%;33%;100%;0%;100%;0%;"></animate>
    <animate href="#16282281824-posters-1720553686607-radial-background" attributeName="cy" repeatCount="indefinite"
      dur="55s" values="0%;100%;33%;100%;66%;0%"></animate>
    <animate href="#16282281824-posters-1720553686607-vertical-light" attributeName="x1" repeatCount="indefinite"
      dur="55s" values="0%;33%;100%;0%;133%;0%;"></animate>
    <animate href="#16282281824-posters-1720553686607-vertical-light" attributeName="y1" repeatCount="indefinite"
      dur="86s" values="0%;100%;33%;100%;66%;0%"></animate>
    <animate href="#16282281824-posters-1720553686607-horizontal-regular" attributeName="x1" repeatCount="indefinite"
      dur="34s" values="0%;100%;66%;0%;33%;133%;0%"></animate>
    <animate href="#16282281824-posters-1720553686607-horizontal-regular" attributeName="y1" repeatCount="indefinite"
      dur="55s" values="0%;66%;100%;33%;100%;66%;0%"></animate>
    <animate href="#16282281824-posters-1720553686607-vertical-medium" attributeName="x1" repeatCount="indefinite"
      dur="34s" values="0%;100%;66%;0%;33%;133%;0%"></animate>
    <animate href="#16282281824-posters-1720553686607-vertical-medium" attributeName="y1" repeatCount="indefinite"
      dur="55s" values="0%;66%;100%;33%;100%;66%;0%"></animate>
    <animate href="#16282281824-posters-1720553686607-vertical-bold" attributeName="x1" repeatCount="indefinite"
      dur="34s" values="0%;100%;66%;0%;33%;133%;0%"></animate>
    <animate href="#16282281824-posters-1720553686607-vertical-bold" attributeName="y1" repeatCount="indefinite"
      dur="55s" values="0%;66%;100%;33%;100%;66%;0%"></animate>
  </g>
</svg>
