<svg id="16282281824-posters-1720559096008" itemscope="" itemtype="/posters"
  itemid="/+16282281824/posters/1720559096008" viewBox="0 0 769 512" preserveAspectRatio="xMidYMid meet" tabindex="0"
  class="animate landscape" xmlns="http://www.w3.org/2000/svg">
  <!---->
  <defs class="graphic">
    <pattern id="16282281824-posters-1720559096008-pattern" width="769" height="512" viewBox="0 0 769 512"
      patternUnits="userSpaceOnUse" preserveAspectRatio="xMidYMid meet">
      <rect itemprop="background" width="769" height="512" tabindex="-1"
        id="16282281824-posters-1720559096008-background" fill-opacity="1"
        fill="url(#16282281824-posters-1720559096008-radial-background)"></rect>
      <!---->
      <path id="16282281824-posters-1720559096008-light"
        d="M13 2c-1 6 4 14 10 16 8 3 18-9 15-16q2-2-12-2C13 0 13 0 13 2m56 2q-5 7-1 11l1 3c0 1 8 7 10 7l6-3 5-3 8-9-4-8q0-2-12-2H71zm71-3q1 4 5 8 7 6 16-3 12-7-8-6zm195 3c-3 12 8 21 18 15q11-6 9-16V0h-27zm95-1q-4 19 9 20l10-5q12-8 9-15l-1-3h-27zm168-1q1 5 6 7a18 18 0 0 0 13-4q4-1 5-4l-13-1h-12zm52 1c0 4 5 10 9 10 5 0 18-9 18-12l-13-1h-14zm54 0c3 14 21 17 27 4 4-6 3-7-14-7h-14zm54 0q1 6 7 8l4 1V0h-5q-7-1-6 3m-253 8c-11 6-10 20 1 25 13 5 27-11 18-21q-9-9-19-4m-260 6c-11 5-14 16-7 23 9 8 22 3 25-10 2-9-10-18-18-13m145 3c-13 4-15 22-3 27q11 4 18-6c8-11-2-25-15-21m172 4c-12 7-13 21-3 25 6 3 22-9 22-16 0-9-11-15-19-9m67-2c-15 6-17 25-2 25q5 1 9-5 13-12 1-19-3-3-8-1m-435 2c-10 6-10 19 0 24 4 2 12 3 14 1l5-4c7-6 2-21-9-22q-6-2-10 1m96 5c-11 6-10 22 3 25 9 3 23-11 17-17l-2-2q-1-3-9-7-4-2-9 1m-162 2q-17 9-5 25c6 6 17 2 23-9 4-8-9-20-18-16m547 2q-12 9-2 19c9 8 20 4 20-7s-9-17-18-12m-212 5c-14 6-11 27 4 27 8 0 16-9 15-17-2-7-12-13-19-10M0 53l1 14c4 0 15-10 15-14 0-3-7-12-10-14-6-3-6-2-6 14m726-13q-9 5-8 11a11 11 0 0 0 8 12c0 1 9 2 13 1 9-1 12-13 6-20q-11-10-19-4m-388 6c-11 6-12 17-3 23q4 6 13 0 12-6 13-13c0-9-15-15-23-10M46 49c-13 9-15 21-3 26q6 5 13 0c15-8 15-22 0-27q-6-2-10 1m370 8q-10 6-7 19 7 16 22 3c10-10-3-28-15-22m171 2q-7 4-6 9a14 14 0 0 0 9 13c5 5 20-4 20-12 0-9-13-15-23-10m-77 5c-4 4-9 14-8 16l1 5c4 11 27 0 27-13a16 16 0 0 0-10-10c0-2-7-1-10 2m-324 4c-12 6-11 17 1 23 13 7 26-4 19-15q-10-14-20-8m-93 3a14 14 0 1 0 17 21c7-10-7-28-17-21m152 6c-12 6-8 25 5 25 4 0 13-8 15-13 2-8-12-17-20-12m49 0c-10 4-10 19-1 25q7 5 16-3 14-15-3-22c-6-2-7-2-12 0m386 0q-17 11 1 21c9 4 20-5 19-14-2-7-13-12-20-7m-46 4q-10 10-1 21c6 5 17 4 21-4 8-13-10-28-20-17m-254-1c-6 1-12 11-11 17 1 4 7 10 10 10 7 0 17-9 17-15s-9-14-14-13zm166 9q-14 7-11 16 7 12 20 6c16-8 7-28-9-22m-400 3c-12 3-12 18-1 24 9 5 22-2 22-12 0-3-6-11-11-13-4-1-4-1-10 1M14 97c-15 6-8 27 9 27 6 0 14-10 12-15q-2-5-11-11c-5-3-5-3-10-1m713 0-5 3c-5 4-7 13-2 17 11 12 30 8 30-7q1-8-13-13c-8-2-8-2-10 0m-279 3q-12 11-4 20c7 9 19 7 25-3q3-8-4-15-9-10-17-2m-106 6c-8 5-9 17-2 23 6 5 22-5 22-13 0-9-11-15-20-10m-280 5c-4 1-10 8-11 12-2 11 13 20 22 13 6-4 13-19 12-26 0-1-20-1-23 1m148 0q-17 9-5 21 8 10 20-3 9-9 0-16-7-5-15-2m379 0q-16 14 0 23c15 8 27-14 13-23q-7-4-13 0m-91 6a33 33 0 0 0-10 13 11 11 0 0 0 9 16c2 4 14-4 16-12 3-11-7-22-15-17m-235 6c-13 9-10 25 6 25a14 14 0 1 0-6-25m-152 4q-5 2-9 9c-3 8 4 20 13 20 6 0 15-10 15-16s-13-15-19-13m278 2-3 3-2 3c-5 6 7 19 19 19 4 0 13-9 13-13 0-11-20-20-27-12m288 1q-12 15 0 23c11 8 23 0 21-15-1-12-12-16-21-8m-43-2q-13 7-2 19c10 12 25 4 19-10q-6-11-17-9m-319 9q-16 14-2 27c3 3 9 4 9 2l1-1c4 0 13-12 13-16 0-10-15-17-21-12m216 0q-17 14 4 24 6 2 13-5 9-11 2-15-10-9-19-4M0 148q0 17 5 8 8-9-1-17c-4-4-4-4-4 9m166-8c-13 7-12 20 0 25 13 5 27-6 22-16-4-9-14-13-22-9m593 5c-5 5-5 5-5 9q2 7 10 12c5 3 5 3 5-12v-14h-3zm-41 4c-17 9-12 28 6 27q15 0 12-14c-1-8-12-16-18-13m-274 4q-7 4-1 13 11 20 24 6 9-12-6-20-11-6-17 1m-223 4q-6 4-7 12-2 13 12 17c5 1 6 1 12-2q9-6 3-16-10-15-20-11m350 3-2 2-1 1a10 10 0 0 0 2 19l3 1h13q8-5 3-15-7-11-18-8m45 2q-11 6-6 17c7 15 27 7 23-9q-4-14-17-8m-590 1q-3 0-3 2l-1 1c-4 0-7 10-5 17l2 4 1 1c0 2 9 4 13 3q11-3 11-14c0-9-11-17-18-14m51 3c-9 2-14 15-8 21 7 7 18 7 23-1 8-10-2-23-15-20m288 3c-12 1-14 20-2 25a19 19 0 0 0 22-13q-2-13-20-12m-93 5q-5 3-6 7l-1 3c-4 3 6 16 13 17q8 0 14-5c6-7 6-10-2-19q-10-9-18-3m233 0q-15 9-7 19 10 9 20 0 8-7 4-13-5-11-17-6m-379 4q-15 12 0 24c10 7 27-5 23-15-4-11-15-15-23-9m535 2q-12 3-7 16c6 13 25 10 25-4 0-8-10-15-18-12m-249 3q-9 4-8 15 0 17 15 11 16-8 12-18-8-14-19-8m-84 9c-15 5-15 23-1 28 9 3 18-4 18-15 0-9-10-17-17-13m-146 1c-14 6-14 18-1 26 12 8 27-7 19-18q-10-14-18-8m357 8c-10 8-2 22 12 21 11 0 16-10 9-17q-12-11-21-4m-68 3-8 6c-5 4-6 13-2 17 11 12 32-3 25-16q-6-9-15-7m224 2q-8 9-3 15c5 8 18 10 24 3 7-7-1-21-12-21q-6-1-9 3m-105 0a12 12 0 1 0 12 22c7 0 11-12 6-18-4-5-13-8-18-4m146 1c-12 12 6 33 19 24 11-7 8-20-4-25q-10-5-15 1M0 224v14h2q6-1 12-7c6-8 0-19-10-21H0zm637-7c-12 9 0 27 13 22q8-3 7-15c0-10 1-9-8-10-7 0-8 0-12 3m-596 0c-10 6-9 21 2 26 5 2 4 2 9 0q13-6 8-18c-4-8-13-12-19-8m44 6c-11 7-10 18 2 23q10 5 16-1 6-5 1-11-8-17-19-11m196 1c-13 13 4 35 18 23q10-8-3-21-8-9-15-2m85 5c-11 7-11 22 1 25 10 3 23-16 16-23l-11-5zm-130 0c-4 1-10 10-10 14 0 5 7 12 13 14q10 3 15-6l2-4-3-5q-8-16-17-13m-102 3c-9 4-10 20-2 23 15 7 29-2 23-14-4-8-14-12-21-9m379 0c-6 2-12 10-12 15 0 7 15 10 21 4 8-8 1-23-9-19m-91 11-5 3c-7 5 0 20 10 21q15 1 18-12a8 8 0 0 0-6-10l-4-2-4-1c0-2-7-1-9 1m139 4c-11 7-12 17-2 21q11 5 17-6 5-7 1-12-5-9-16-3m-382 7q-9 9 1 20 12 11 23-6c3-6-8-19-16-19q-3 0-8 5m144-3c-7 3-11 13-6 18q9 12 20 6c5-3 8-13 5-19s-13-8-19-5m350 3c-12 5-13 20-1 23 13 4 22-12 12-23zm-64 1c-3 2-9 9-9 12-3 9 16 13 23 6 8-9-4-24-14-18m116 2-4 1-5 2c-5 4-5 16-1 19 16 12 35-7 21-20q-6-6-11-2m39 0q-6 5-2 14 1 6 4 7c3 1 3 2 3 11q0 10 1 4l-2-38zm-725 9q-15 12 3 22c9 5 20-1 20-11 0-11-13-18-23-11m55 3c-9 3-12 13-5 18 3 3 11 6 16 6 9 0 11-15 3-22q-6-5-14-2M1 285c0 16 0 16 6 9q9-9-3-19l-3-3zm276-11q-8 5-8 13 6 22 23 12c10-7 9-19-2-25q-6-3-13 0m245 0q-8 5-9 11l1 3v2c-1 4 7 9 15 9 14 0 16-14 4-22q-6-5-11-3m-53 3-8 10c-3 5 2 13 9 16 10 5 23-3 21-13-2-9-15-16-22-13m-245 10c-7 8-5 20 6 25q12 4 18-9 3-3-5-10l-3-5q-8-9-16-1m-92 1q-12 12 0 20l7 3c10 7 22-5 15-16q-10-13-22-7m234 1-5 3-1 3-1 3c-2 1-1 8 1 10q6 5 14 5c18 0 19-19 2-24-7-2-7-2-10 0m269 1q-12 7-6 16c6 8 21 9 24 1l2-2c2 0 1-8-1-10-2-3-9-8-11-8zm-58 1q-5 2-9 9l-2 4 3 4c7 12 24 8 24-5 0-5-9-14-12-13zm-160 6c-14 9-5 29 11 27 11-2 15-17 8-25-4-5-14-6-19-2m263 6q-15 10 2 21 14 9 21-2c7-12-11-28-23-19m-506 6q-8 6-2 16a13 13 0 1 0 24-10q-10-18-22-6m559-1q-14 8-3 19 10 11 19 3c14-11 0-31-16-22m-418 3c-12 7-10 19 5 27 14 7 26-4 16-14l-3-4c0-2-5-8-8-10q-5-2-10 1m-237 1c-3 1-9 9-9 12q1 6 8 10 11 6 17 2 6-3 5-9c0-12-12-21-21-15m-58 3q-9 11 6 19 7 4 12 3c3 0 7-6 7-10 0-12-17-20-25-12m484 8q-18 12-10 23c8 12 25 5 28-11 2-9-10-18-18-12m-237 5-5 6a10 10 0 0 0 1 13c0 4 7 9 13 10 12 3 20-9 13-18l-7-7q-8-10-15-4m332 2q-9 9 0 17c8 8 19 5 20-7 2-11-11-18-20-10m-51 1c-12 8-8 20 6 22q7 2 11-6c7-11-6-23-17-16m-435 9q-7 4-9 9c0 2 6 11 11 16 10 10 27-9 17-20l-3-4-12-3zm530 0q-9 5-10 13a14 14 0 0 0 10 11c4 3 15 1 19-4 7-9-8-25-19-20m-251 1c-13 6-14 24-1 31 13 6 29-14 19-25q-8-9-18-6m-170 3q-9 2-11 13a13 13 0 0 0 7 15c1 2 8 3 12 2 9-2 16-16 11-21l-2-3a17 17 0 0 0-17-6m224 6c-5 5-6 7-6 16q0 6 4 7l2 3c3 6 15 3 20-4 3-5 3-15 1-20q-9-11-21-2m243 4c-4 2-11 9-11 13 0 5 10 12 18 12 14 0 19-16 7-24q-5-3-14-1M4 358c-12 9 5 30 18 22 6-3 8-11 4-16q-10-14-22-6m53 0q-18 11 2 21c14 8 28-6 17-18q-9-10-19-3m109-1q-6 5-8 11l6 11c7 7 17 8 22 3q9-8-2-18-9-11-18-7m172 7q-10 9 2 20c8 8 19 7 23-1 3-6 3-8-5-15q-12-12-20-4m399 0c-4 1-10 8-10 12 0 7 9 15 16 15q15 1 13-14t-19-13m-438 12c-19 6-16 29 4 29 15 0 20-14 9-24l-10-6zm207 2q-15 11-8 18 12 11 19 7c10-5 11-20 1-26q-5-4-12 1m47-1q-11 8-5 17c11 11 25 8 25-6 0-9-13-16-20-11m47 6c-12 6-11 21 2 26 3 1 4 1 12-3 14-8 1-30-14-23m-510 6c-13 8-5 30 10 28 13-3 17-13 9-22q-12-10-19-6m315 7q-16 13 3 22c12 3 25-11 18-18l-2-3c0-1-9-5-12-5q-3 0-7 4m-163 2c-9 8-8 20 3 25q10 6 19-4 9-9-8-21-8-6-14 0m-49 2-2 1c-4 0-10 10-8 17 2 15 30 9 30-8 0-8-15-16-20-10m-54 8c-7 7-7 8-6 12 4 10 20 15 27 9 12-10 7-25-8-26h-7zm324-4-12 12c-3 11 17 20 26 12q12-10 1-19-8-8-15-5m222 0-2 1-1 1c-2 0-7 6-7 9 0 4 8 11 16 14q4 2 7-1 9-6 4-15-7-12-17-9m-647 0-5 1a9 9 0 0 0-5 18l4 3c6 8 18 6 22-3 2-5 2-5 0-10q-6-11-16-9m602 1c-15 5-11 23 5 23 7 1 7 0 11-3 9-12-1-25-16-20m-276 7c-13 7-15 18-5 25q11 9 21-1t-3-22q-7-6-13-2m365 5q-12 8 0 17c9 6 12 6 18 1q8-8-5-17-7-5-13-1m-163 11q-11 5-8 13a25 25 0 0 0 11 11c1 3 9 2 12-2 11-12-1-30-15-22m-51 6c-13 8-9 23 7 27 3 2 10-3 13-8 6-11-10-26-20-19m-201 3q-9 5-11 12-1 7 6 12 11 8 20 1c5-3 10-11 8-13-9-13-14-16-23-12m-251 1c-8 1-13 10-9 17 7 15 27 12 27-4q-1-15-18-13m551 0c-11 5-12 18-2 23 11 5 22 0 22-9s-12-17-20-14m-505 2q-7 6-8 12c0 6 18 19 24 16 12-5 10-20-4-27-7-4-8-4-12-1m304 2c-13 8-11 23 3 26 16 3 27-11 17-22q-4-5-10-6c-5-1-5-1-10 2m-147-1q-5 3-6 7l-2 1c-5 2-5 12 1 17a15 15 0 1 0 7-25m-51 6a17 17 0 0 0-6 28c15 10 32-12 21-25q-7-7-15-3m452 3q-6 2-11 9-3 6 9 13 11 8 18-1c6-8-6-24-16-21M7 451l-4 2c-3 1-3 1-3 9v9l3 3q8 5 15 2c3-3 7-12 6-15-2-8-11-13-17-10m706 6q-12 8 3 20c14 10 25-5 13-18q-7-8-16-2m-543 3c-11 4-15 17-8 23a15 15 0 0 0 26-9q-1-20-18-14m299 2c-9 4-12 13-6 18q16 16 25 2c7-10-8-25-19-20m295 5c-4 3-9 12-9 15q1 6 7 9c7 4 7 4 7-12s0-16-5-12m-392 0q-20 11-3 25c12 9 32-7 23-18q-9-12-20-7m202 13-4 3-3 1c-3 0-5 13-2 18 8 12 26 5 26-9 0-7-10-15-17-13m49 6c-4 2-7 10-6 14 4 13 20 17 26 7 8-11-8-28-20-21m-593 2q-6 4-6 9c-1 4 0 5 9 13 4 4 13 3 17-2 11-12-7-29-20-20m487 5q-10 9-3 16c3 3 3 3 14 3h12l1-4c1-6-5-16-10-16l-2-1q-4-4-12 2m-434 0q-10 3-11 14c0 4 2 5 17 5h13v-4c0-6-9-17-15-16zm242 1c-8 3-12 13-9 17l15 1h14l1-3c3-9-12-20-21-15m94 2q-9 6-4 12l1 4h29v-4c1-12-17-21-26-12m-287 1a20 20 0 0 0-10 13c-1 2-1 2 15 2h16v-2c0-7-15-16-21-13m145 0q-9 4-9 13v2h15c17 0 17 0 13-7q-7-12-19-8m401 4q-7 6-8 10l16 1c16 0 16 0 14-5-5-8-15-11-22-6m-451 2q-5 3-8 7l-1 2h13c16 0 16 0 10-7q-6-7-14-2m512 2q-14 8 6 7c12 0 12 0 8-4q-8-7-14-3"
        mask="url(#16282281824-posters-1720559096008-horizontal-mask)" itemprop="light" fill-opacity="0.90"
        fill-rule="evenodd" stroke="none" fill="url(#16282281824-posters-1720559096008-vertical-light)"></path>
      <!---->
      <path id="16282281824-posters-1720559096008-regular"
        d="M14 2c-2 9 8 18 16 15q11-7 8-15c-2-3-24-3-24 0m55 3c-4 5-4 5-1 10 2 4 9 10 12 10l3-3 6-3q6-4 8-9l-2-6-2-4H72zm72-4c0 4 6 10 10 10 3 0 14-8 14-10l-12-1zm195 1q-2 14 7 18c9 3 22-10 18-18-1-3-25-3-25 0m94 3c-3 16 7 22 20 12q10-7 7-14l-1-3h-25zm168-3c0 6 10 8 18 3q12-5-6-5c-11 0-12 0-12 2m53-1c-2 3 4 11 8 11 6 0 17-8 17-11zm53 1c0 7 11 14 19 12 5-1 10-8 8-12-1-3-27-3-27 0m54-1q1 6 5 8 8 5 6-3V0h-5zm-250 9c-12 4-13 19-2 25 9 5 20-3 20-14 0-2-6-10-8-10l-4-1zm-263 7c-6 3-12 14-10 19 7 13 25 8 27-7a12 12 0 0 0-13-12zm142 6c-10 6-10 18 1 23q10 5 17-6c9-12-6-26-18-17m177 0c-12 6-15 20-6 25 6 3 19-5 22-13s-9-16-16-12m66 0c-5 1-13 9-13 14q2 12 14 9c3-2 10-9 11-13 2-6-4-12-12-10m-437 3q-13 13 2 22c9 5 21-1 21-11 0-11-15-18-23-11m97 3c-6 3-9 13-5 19q9 12 22 0c9-9-5-24-17-19m-165 4q-12 11 0 23 6 7 16-4 8-6 3-13-7-11-19-6m551 0q-13 8-3 18c7 7 16 6 19-3 4-10-7-20-16-15m-212 5c-13 5-12 24 0 27 11 1 20-12 15-21q-6-9-15-6M0 52c0 15 0 15 5 13q10-6 10-13c0-4-10-14-14-14zm729-12q-10 3-11 11c0 6 8 14 12 12h2c2 3 12 0 14-5q4-7-1-12c-2-3-11-8-12-8zm-387 5c-12 2-16 14-8 23 5 5 16 2 23-6 8-9-2-19-15-17M44 51c-13 9-9 25 5 25 5 0 14-6 17-11 6-11-11-22-22-14m371 7q-9 6-4 20 7 12 19 0c10-9-2-27-15-20m173 1q-15 9 1 20 6 5 12 1c16-9 4-29-13-21m-78 6c-14 14-7 28 10 21 10-5 12-16 3-22q-9-5-13 1m-322 3c-11 3-13 15-4 20q14 10 20 0c8-9-5-24-16-20m-94 3q-9 4-8 15c1 10 14 14 21 8 10-9-1-28-13-23m152 6q-11 7-5 18 7 13 19 1 9-11-3-19c-5-2-6-2-11 0m48 1-6 6c-4 9 4 22 14 19 5-2 13-12 13-17 0-7-13-12-21-8m385 0q-13 10-1 18 10 5 18-3c10-10-5-23-17-15m-40 0c-5 1-10 9-10 14 0 6 7 13 13 13s14-8 14-14c0-7-11-16-17-13m-263 4q-11 15-1 23c6 3 20-4 20-12 0-10-13-17-19-11m168 8q-8 6-9 11c0 5 7 12 13 12 3 0 12-5 13-7 7-10-6-21-17-16m-397 2c-10 1-12 14-4 21 11 11 30-4 20-16q-6-7-16-5M16 97c-16 4-12 24 4 26 10 1 18-10 12-17q-9-11-16-9m710 1c-7 3-10 12-6 18 4 5 20 9 23 5l3-2c2-1 4-8 3-11q0-6-12-10c-8-2-7-2-11 0m-276 1c-12 8-9 26 5 26 9 0 17-11 14-17-4-9-13-13-19-9m-108 8q-9 4-5 13 2 10 9 10c5-1 14-8 15-11 4-9-10-18-19-12m-277 3q-8 4-12 12t6 14q12 6 20-9c8-16 8-19 1-17zm525 1c-9 5-11 14-5 19q12 12 21-2 6-11-6-17c-6-2-6-2-10 0m-378 0c-12 5-14 15-5 22q7 6 17-4 10-12-4-18zm282 10q-10 12-7 17c6 11 18 10 24-1 7-14-7-27-17-16m-233 4c-7 5-7 16 0 21 14 8 30-12 17-21q-9-6-17 0m130 2c-4 2-7 10-7 14q3 6 11 11c7 4 17-1 20-9 3-9-14-20-24-16m292 0c-12 7-14 20-5 26 12 8 20 0 19-16 0-8-9-13-14-10m-572 1c-10 4-11 20-2 25q9 5 17-4t-1-16q-9-8-14-5m522 1q-10 7-1 18 9 9 16 3c10-8-4-27-15-21m-320 11q-11 11-2 21 7 11 18-1 12-12 0-21-9-7-16 1m219-3c-3 2-8 9-8 12q2 7 11 11c7 2 16-6 16-14 1-7-11-12-19-9M0 148q-1 17 5 7 6-7-1-16c-4-3-4-3-4 9m168-9-7 6c-12 13 9 29 23 16 8-7 5-18-8-22zm598 2-7 4q-9 8 1 17c8 8 9 8 9-8l-1-14zm-53 12c-12 11-2 26 15 22 11-2 11-16 1-23q-8-6-16 1m-268 0q-7 4-1 15c7 12 19 12 25 0q4-6-3-12-13-10-21-3m-225 6c-6 5-7 17-2 22 14 13 33-2 21-16q-11-12-19-6m347 5q-10 13 8 19 19 2 13-15c-4-9-14-11-21-4m51-2q-13 5-7 18 8 12 18 2 7-6 1-16-4-9-12-4m-596 4c-7 6-6 21 2 24q9 3 16-4c10-11-6-30-18-20m50 3c-11 10-6 22 10 22 5 0 5 0 9-4 11-12-6-29-19-18m289 2c-8 5-8 17 0 22 9 5 26-7 23-15-3-7-16-11-23-7m-89 3q-11 9-4 20c8 9 19 9 25 0 4-6 4-8-1-14-8-9-12-10-20-6m236 0c-13 4-16 14-7 21 10 6 25-5 20-16q-3-8-13-5m-381 4q-14 10-2 22c9 8 26-1 23-12-2-10-13-15-21-10m530 5q-7 5-3 12c5 11 21 11 24 0s-12-20-21-12m-246 1c-11 5-9 26 2 26 4 0 14-6 16-9 8-9-6-23-18-17m-84 8c-4 2-10 10-10 14q0 12 14 13c14 0 18-15 8-24q-5-5-12-3m-149 4q-12 12 0 20c13 9 29 0 22-13q-10-17-22-7m363 4c-11 7-5 22 10 22 16 0 15-17-1-22-5-2-5-2-9 0m-70 4c-12 8-16 19-8 24 11 8 28-4 23-16-2-6-11-10-15-8m225 3c-9 8-3 21 9 21s17-10 9-19q-10-11-18-2m-106 0c-13 9-5 25 11 21q8-3 9-10c0-10-12-16-20-11m147 0q-11 8 1 20 14 12 23-4c4-10-14-23-24-16M0 224c0 15 0 15 7 11 13-6 11-22-3-24H0zm638-7q-12 9-1 18c10 9 20 3 20-12 0-8 0-7-9-9q-6-1-10 3m-598 1c-9 5-7 19 2 24q8 5 15-3 7-7 1-15-7-12-18-6m243 5c-6 4-8 16-4 21 6 9 22 7 23-4q2-5-5-13-8-9-14-4m-198 1c-3 2-8 9-8 11 0 6 15 15 21 12q12-5 4-16-8-13-17-7m282 6q-9 4-8 12-1 8 5 10 9 6 17-7 9-13-3-16c-5-3-6-2-11 1m-134 2c-3 2-7 9-7 11s6 10 10 12c11 6 22-2 17-12q-10-20-20-11m-97 0q-5 1-8 10c-5 12 16 21 25 11 8-9-4-24-17-21m376 1c-8 4-13 14-7 19 9 8 25-5 18-16q-4-6-11-3m-92 11c-9 6-7 17 5 22 10 4 23-7 18-16-3-7-16-10-23-6m143 2-10 10c-5 9 12 16 20 9 10-10 3-24-10-19m-239 5q-15 9-4 20 12 11 20 0c7-12-4-26-16-20m-142 1q-12 8-2 20c9 12 28 2 21-12-4-8-14-12-19-8m490 3c-12 6-9 22 4 22 11 0 16-13 8-22-1-1-8-2-12 0m-67 5q-9 9-1 14c10 7 26-3 20-13q-9-13-19-1m117-2c-11 4-14 17-4 22 15 8 30-9 18-20-4-5-6-5-14-2m44-1c-7 4-6 15 0 20 3 2 3 3 3 11q0 9 1 5l-2-37zM39 267q-13 9 3 20 7 5 15-1c13-11-4-29-18-19m54 3c-12 6-8 19 8 22 11 1 16-9 8-18q-6-9-16-4M1 285q-1 20 6 9 8-8-3-18l-3-3zm276-10q-11 6-4 20c6 13 29 3 25-10q-6-15-21-10m244 1c-9 4-9 14-1 20 13 9 27-4 17-15q-7-10-16-5m-52 2c-2 1-8 10-8 13q1 8 13 13c10 3 20-9 15-18-4-6-14-11-20-8m-243 8c-5 3-7 12-4 18 5 10 16 12 23 3 4-5 4-7-2-14q-10-13-17-7m-92 2c-9 5-10 15-1 19l4 3 8 1c14 1 14-16-1-23q-5-3-10 0m231 2q-6 4-4 6l-1 1c-2 1-1 7 1 10 7 10 27 6 27-5 0-9-15-17-23-12m270 1q-12 8-3 17c9 9 28 0 23-11q-8-13-20-6m-57 1q-10 5-11 12a13 13 0 0 0 25-5q-6-9-14-7m-160 5c-13 6-7 26 7 26q9 0 12-7c7-13-5-25-19-19m262 6q-13 10 2 20 15 9 22-4c4-11-14-23-24-16m-506 6q-7 8-1 17 10 14 21 0c6-8 0-19-11-21-5 0-5 0-9 4m558 0q-11 7-3 16c9 10 21 9 24-2 4-12-10-21-21-14m-416 2q-14 8-5 20c15 15 37 8 24-8l-4-6c0-4-10-8-15-6m-238 1c-2 1-7 7-8 10q-1 7 9 12c15 7 25-2 17-15q-7-11-18-7m-54 2q-14 10 3 20 12 7 17-3c5-10-11-23-20-17m480 10q-14 9-11 19c7 15 29 7 29-10 0-5-7-12-13-12zm-233 3q-13 6-9 17c6 13 18 17 26 9 5-6 4-9-7-21q-6-8-10-5m329 3-3 4-1 3c-5 3 4 14 12 14 9 0 15-14 8-20-3-3-12-4-16-1m-50 0q-6 4-9 11c-2 8 15 16 21 9 10-9 0-25-12-20m-437 10-4 3-2 2q-5 3 0 9l2 3c0 3 9 10 12 10 13 0 18-18 7-25-3-2-11-3-15-2m280 2q-13 8-11 18 3 8 10 11c13 5 27-13 18-24q-9-9-17-5m248 0q-15 11 2 21c13 6 25-5 17-16-5-7-14-9-19-5m-422 4q-8 3-7 13c0 14 15 20 25 9q9-8 2-16-7-12-20-6m229 3c-8 6-11 20-5 23l4 3c3 6 15 3 19-5 8-15-6-30-18-21m240 7q-13 7-6 16c10 12 28 7 27-7-1-10-12-14-21-9M8 357c-12 6-10 17 3 23 10 5 20-5 15-15q-7-13-18-8m49 1q-17 11 4 21 10 6 17-3c7-11-10-25-21-18m107 2q-11 12 7 23 8 4 13 0 11-8-2-20-10-10-18-3m176 3q-9 6-3 16c7 12 22 13 26 3 2-7 1-9-10-17q-6-7-13-2m395 3q-7 4-8 11c0 2 7 10 11 13 6 3 16-1 18-7 0-3-1-13-3-15q-7-6-18-2m-227 12q-16 9-10 17c3 5 13 9 16 9 12-4 15-21 3-27-5-2-4-3-9 1m46-1c-11 6-10 16 2 21 11 5 19-2 16-14-2-6-13-10-18-7m-257 1c-14 6-14 18-1 25s27-7 19-18q-8-11-18-7m301 8q-8 3-5 11c2 12 12 15 21 8q11-9 1-18-8-8-17-1m-509 4q-9 7-3 19 8 11 20 4 13-6 3-17-11-12-20-6m316 7q-12 9-2 17 11 8 20-1c12-11-5-26-18-16m-160 0c-14 9-10 27 7 27q12-1 14-11c0-9-14-20-21-16m-53 4c-15 10-11 27 6 25 12-2 19-15 11-23q-9-9-17-2m-46 3-8 6c-7 8-6 11 4 18 13 9 30-5 22-19-4-4-13-7-18-5m541 0q-6 2-10 8-5 5 7 12 13 9 18-1c4-7-7-22-15-19m-226 2c-13 9-12 20 2 23q9 5 15-3 9-7 0-16-8-10-17-4m-427 0c-14 2-12 16 4 23 10 5 21-7 15-17-4-7-7-8-19-6m606 0c-14 4-10 22 5 22q10 1 13-8c5-10-5-18-18-14m-276 7c-12 6-14 17-3 24 12 9 29-5 20-18q-8-11-17-6m365 4q-13 9 4 19c8 3 16-1 16-8 0-8-13-15-20-11m-163 11c-12 6-9 20 5 24 10 3 18-11 12-20q-7-9-17-4m-52 7-5 7-2 4 2 5c6 12 20 13 25 2 6-12-9-25-20-18m-201 4q-13 8-8 17 11 13 24 6 14-9 3-19c-5-6-6-6-11-6zm-253 0c-10 5-9 18 3 25h8q10-3 9-13-2-17-20-12m550 3c-9 9-3 20 11 20s17-13 5-21q-9-6-16 1m-501-1q-6 5-7 11c0 5 14 16 20 16q8-1 11-9c1-6-7-16-15-19-5-1-5-1-9 1m158 1-5 3-4 5c-9 9 6 25 18 19 5-2 9-10 9-16 0-7-12-15-18-11m145 1q-9 8-7 15c6 15 31 12 31-3 0-11-15-19-24-12m-199 6q-8 4-8 10c-4 13 9 23 20 15 17-11 5-36-12-25m455 2q-11 3-12 11c0 2 7 8 11 11 13 6 21-6 13-17q-5-8-12-5M4 453l-4 1v17l5 3q10 6 14-1c10-13 1-26-15-20m711 3c-3 1-7 7-7 10 0 7 15 16 21 13 13-7-1-28-14-23m-543 4c-11 2-16 17-10 23 11 10 26 6 26-8q-1-18-16-15m296 3q-12 8-5 17 18 16 25 0c5-10-8-21-20-17m294 6q-13 17 4 23h3v-13c0-16 0-16-7-10m-390-1q-9 4-10 9c-1 3 3 11 8 15 11 8 31-8 22-18q-10-12-20-6m200 14c-8 4-11 13-7 18 7 10 18 10 23 0q6-10-6-18-5-5-10 0m51 4a14 14 0 1 0 18 23q6-6 2-14-7-13-20-9m-590 2q-16 8-2 20c9 7 20 4 22-7 1-10-11-18-20-13m489 2c-4 1-10 8-10 12q-1 10 16 10c12 0 12 0 12-7s-12-18-18-15m-197 4c-6 3-11 11-9 16 2 2 2 2 16 2h13v-3q1-6-4-10-7-10-16-5m99-1c-4 2-10 9-10 11l2 5 2 3h12c12 0 13 0 14-2 4-8-12-21-20-17m-342 1c-6 2-11 11-8 15l1 3h26v-3c2-8-11-18-19-15m46 7q-5 4-5 8l-1 3h16l15-1q-2-5-8-11-10-6-17 1m148-3q-7 4-7 10v4h14c16 0 16 0 12-7q-6-11-19-7m405 2c-4 2-10 8-10 11l15 1h14v-3q-2-6-10-9c-5-2-5-2-9 0m-453 3q-8 4-8 7c-1 2 0 2 12 2l13-1-4-5q-6-8-13-3m509 4q-9 5 8 5c10 0 10 0 9-2q-6-10-17-3"
        mask="url(#16282281824-posters-1720559096008-radial-mask)" itemprop="regular" fill-opacity="0.90"
        fill-rule="evenodd" stroke="none" fill="url(#16282281824-posters-1720559096008-horizontal-regular)"></path>
      <!---->
      <path id="16282281824-posters-1720559096008-medium"
        d="M14 4q0 6 6 11c8 5 19-2 18-12l-1-3H14zm56 0c-4 6-4 7-1 12 4 6 14 11 14 6l4-3q14-8 6-17c-2-2-3-2-11-2h-9zm72-2q1 4 6 7 6 3 14-5l3-4h-11c-11 0-12 0-12 2m194 1q-2 9 5 16c7 5 23-8 20-16-1-3-1-3-12-3h-12zm95 2q-2 19 12 16l3-2 5-4q7-4 6-9c0-6-1-6-14-6h-12zm167-4 2 4q4 6 14 1 14-7-5-6zm53 1c0 3 4 9 6 10 3 0 12-3 15-7q9-5-9-5c-12 0-12 0-12 2m54 0c0 6 8 12 15 12q9-2 11-11V0h-13c-13 0-13 0-13 2m54 0q1 6 7 8l3 1V0h-5q-6 0-5 2M506 12q-11 6-5 17c6 10 19 8 23-2q4-6-1-11-7-9-17-4m-263 7q-5 5-8 12c-1 6 6 12 12 12 7 0 15-8 15-15 0-8-11-14-19-9m146 3c-12 7-12 20 0 24q11 3 17-10c5-9-8-19-17-14m176 1c-10 4-15 15-9 22q7 9 19-5 8-7 3-12-6-8-13-5m-372 4q-12 13 2 20c7 3 16 1 19-4 4-6-1-17-9-19q-8-3-12 3m431-1q-7 7-6 13c2 11 16 8 23-4 4-9-8-16-17-9m-334 4c-10 6-9 17 2 22 4 2 4 2 8 0q13-6 7-16-7-10-17-6m-164 3q-11 8-4 20 8 12 20-3c8-9-5-24-16-17m550 1c-11 5-7 19 5 21 9 1 14-9 9-18q-5-7-14-3m-212 5c-8 4-11 14-6 21 6 8 22 2 22-10 0-8-9-14-16-11M0 52c0 16 0 15 8 9q12-7 1-17c-8-8-9-8-9 8m725-10q-12 9-1 19c3 2 16 2 19 1 7-5 5-16-4-20q-8-6-14 0m-386 5c-12 5-11 20 0 24 5 1 19-9 21-14 1-8-13-15-21-10M45 51c-11 7-11 19 0 24 9 3 24-9 21-17s-14-11-21-7m369 8c-6 5-6 16 0 22a13 13 0 1 0 0-22m175 1q-13 7-3 16 12 10 20-2c7-9-6-21-17-14m-76 3c-5 2-10 12-9 18 1 11 18 8 23-4q4-7-5-12c-5-3-5-3-9-2m-330 8c-8 6-4 17 10 21q5 2 11-4c6-7-2-20-13-20q-4 0-8 3m-92 3q-12 13 3 21 12 4 17-6c3-12-12-24-20-15m155 3c-12 5-7 26 5 24 5-1 12-9 12-13 0-8-9-14-17-11m435 1q-13 8-3 17c11 6 25-3 20-13q-6-8-17-4m-388 1c-10 8-3 27 8 23 6-2 13-10 13-16 0-7-15-12-21-7m344 1a13 13 0 1 0 11 22 13 13 0 0 0-11-22m-259 2c-14 10-6 29 9 21 9-5 10-15 1-21q-6-4-10 0m168 8c-3 2-10 7-10 10-1 2 3 9 6 11 9 4 23-4 20-13q-3-11-16-8m-399 3q-8 1-8 8c-2 11 9 18 20 13 9-5 8-16-2-21-4-2-4-2-10 0m-137 8q-6 4-2 12c4 10 15 12 23 5q8-7-3-15-10-11-18-2m714-1q-13 11 3 20c6 3 16 3 15 1l2-2q5-1 5-9c0-9-17-16-25-10m-274-1c-3 2-8 11-8 14 3 16 24 15 27-1 1-8-11-17-19-13m-106 8q-10 4-7 14 3 13 17 4 9-5 7-11a13 13 0 0 0-17-7m-282 5c-7 3-11 12-9 18 5 8 15 9 21 3 4-4 9-15 10-20 1-3-16-4-22-1m530-1q-9 5-10 14c0 4 8 10 14 10s13-10 11-16q-6-10-15-8m-382 2q-14 8-4 18 7 9 18-2c10-10-1-23-14-16m285 8q-14 14-3 22c13 9 28-11 16-23q-6-6-13 1m-231 3c-12 6-9 23 5 23q12-1 13-14c0-8-10-13-18-9m127 4c-7 4-8 13-2 19 9 9 23 7 26-5 1-9-15-18-24-14m291 0c-6 3-11 14-9 19 5 11 20 10 23 0 4-13-4-24-14-19m-575 4c-8 9-3 22 9 22q3 1 8-5 10-9 1-15-12-11-18-2m524 0q-7 7 4 17c7 6 16 2 16-6 0-10-13-18-20-11m-318 9q-10 11-1 20 6 9 16-1 14-14-1-22c-7-3-9-3-14 3m220-3q-15 10-1 20 10 6 18-7c4-9-7-18-17-13M0 147q-1 17 4 8 8-8-1-16l-3-2zm167-6c-7 3-11 11-9 15 6 11 18 12 27 4 10-10-6-25-18-19m597 1c-3 1-9 8-9 10 0 5 8 14 12 14 2 0 2 0 2-12 0-14 0-14-5-12m-50 12c-10 9-4 22 9 21 16 0 18-17 3-24-6-3-7-3-12 3m-269-1c-7 6-1 21 9 23 9 2 18-8 15-16-4-7-19-12-24-7m-225 7c-5 4-6 13-3 19a11 11 0 0 0 10 5c4 4 16-3 16-10 0-3-6-11-10-14q-7-6-13 0m350 3q-14 11 2 18 16 6 17-7c0-10-11-17-19-11m46 0c-9 5-9 17 0 21 11 6 20-6 14-18q-4-8-14-3m-593 3a14 14 0 0 0-6 12c-1 4 4 11 8 12 16 4 25-15 11-24q-7-6-13 0m54 1c-12 6-14 18-3 22q12 5 19-5c4-10-7-21-16-17m285 4c-12 5-5 26 8 22q21-8 10-20c-4-2-14-4-18-2m-90 4c-10 7-6 22 6 25 11 2 21-10 15-18q-11-13-21-7m233 1c-11 5-12 14-2 19q9 4 15-5c9-10-1-20-13-14m-377 2q-16 10-2 22c11 9 28-5 19-17q-8-9-17-5m532 3c-9 3-8 18 2 21q13 2 16-9 1-7-7-11c-5-2-6-2-11-1m-245 2c-9 3-13 14-9 23 4 8 25-1 25-10 0-8-10-16-16-13m-232 10q-9 4-10 13v6l6 4q9 7 16 2 12-7 0-21-8-7-12-4m142 1c-3 3-8 10-8 12q2 12 14 13 10 1 12-10c3-12-9-21-18-15m215 8c-10 8 1 22 15 19 10-3 9-14-2-20q-9-5-13 1m159 3-6 6-2 5 2 4c4 9 19 10 23 2 3-5-1-15-8-17-5-2-5-2-9 0m-227 0c-10 4-15 17-10 22 9 8 24 1 24-11 0-7-8-14-14-11m118 2c-13 9-5 25 11 20 14-4 9-22-6-22zm148 0c-13 8 2 31 16 23 11-6 8-19-5-23-7-2-7-2-11 0M0 224c0 12 0 13 2 13q6-2 12-9l2-4-2-4q-2-7-11-8l-3-1zm638-7c-9 6-4 21 7 21q12 0 11-15v-6l-4-1c-7-1-9-1-14 1m-598 1c-7 6-6 19 2 23 10 6 22-5 17-15-4-8-13-12-19-8m242 6c-9 9-4 25 8 25 13 0 16-11 6-21q-8-9-14-4m-197 1q-6 4-7 10c0 9 17 15 24 9 4-4 4-5 0-12q-8-13-17-7m282 5c-10 6-10 17-2 22 5 2 5 2 8 1l11-14c1-2-1-8-4-9l-3-1q-4-3-10 1m-132 0c-3 2-8 9-8 13 0 3 6 10 11 12 10 5 19-3 14-13q-8-16-17-12m-100 3c-4 2-8 10-7 15 1 8 18 11 24 6 10-9-4-26-17-21m376 1q-6 5-8 11c-2 8 11 11 18 5 8-8 0-22-10-16m-90 10q-12 9 0 18t21-3q6-10-5-14t-16-1m141 4c-12 8-11 20 3 20 11 0 17-16 7-21q-4-4-10 1m-238 3c-10 5-11 16-1 22 9 6 19 0 19-12a13 13 0 0 0-18-10m-144 4q-8 11 4 20c9 7 22-5 16-15-4-9-15-12-20-5m492 1a11 11 0 1 0 14 5q-3-11-14-5m-65 3q-9 7-5 12c6 9 25 4 23-6-2-9-11-12-18-6m159-1c-6 3-5 14 0 19 3 1 3 2 3 11q1 14 1-2l-1-21v-9zm-44 1c-7 3-8 3-9 10q-1 10 9 12c15 3 24-13 13-22q-5-3-13 0m-678 6c-9 3-13 12-8 16q16 16 25-1c3-8-9-18-17-15m49 6q-13 9 0 17 19 9 19-4c0-11-11-19-19-13M1 286c0 12 0 12 5 8q8-8-1-17c-4-4-4-4-4 9m274-9q-8 6-2 17c5 9 18 9 23-1 7-12-9-25-21-16m243 2q-6 6-3 9l1 2c-2 3 7 8 13 8 13 0 15-13 4-20q-8-6-15 1m-49 0q-12 10-4 19c8 8 19 7 23-1 5-10-10-25-19-18m-244 8c-11 12 3 31 16 23q13-7 0-19-10-10-16-4m-93 3q-12 9 4 18c14 8 25-2 15-14q-8-11-19-4m509-1q-18 7-10 18c12 11 31 0 21-12l-9-7zm-277 2-3 4v3q-2 3 1 9c4 7 23 6 25-2 2-11-13-20-23-14m210 3c-10 6-6 20 6 20 11 0 15-11 8-18q-6-7-14-2m-154 3a13 13 0 1 0 18 9q-4-13-18-9m262 6q-15 9 0 20c10 6 22 3 22-7s-15-18-22-13m-507 5c-9 9-3 24 10 24 5 0 13-8 11-12q-7-22-21-12m559 1q-15 8-1 19 13 9 20-5 3-4-2-10-7-11-17-4m-656 4c-10 6-8 19 3 21l4 2c2 3 12-2 13-7 2-12-10-22-20-16m236 0q-15 11 6 23c13 7 24-1 15-11l-4-7q-7-11-17-5m-291 2q-7 6-3 14c2 2 13 7 16 7q6-1 8-9c1-9-13-17-21-12m482 8-7 7q-6 4-5 9c2 17 23 15 28-3 2-9-8-17-16-13m-236 6-6 6-2 5 2 5q4 9 12 11c7 2 16-2 12-5q-2-1 1-1 8-1-6-17c-7-7-8-7-13-4m334 0c-7 3-9 12-4 17q7 9 15 3c5-5 6-16 1-19-3-1-10-2-12-1m-53 2c-7 3-10 13-6 17 7 6 17 6 20-1 5-10-3-20-14-16m-438 10-2 3-1 2q-4-1-4 3l9 13c0 2 7 5 9 4 9-2 14-14 9-20-4-5-15-8-20-5m530 1-3 2-2 3q-6 6 4 14c11 8 26-1 20-11q-7-13-19-8m-250 1c-15 7-12 28 5 28 12 0 20-15 12-24q-8-9-17-4m-174 4c-4 2-5 3-6 11-1 14 14 21 24 10q10-9 0-19-7-8-18-2m231 2q-6 3-7 10c-2 9-2 10 1 12l5 4c3 6 15 1 18-8 5-14-7-26-17-18m245 6c-16 3-19 15-6 22 11 5 25-5 20-15q-6-9-14-7M8 357q-17 10 2 23c9 5 20-5 16-14-3-8-12-12-18-9m53 0c-10 2-14 11-8 17 10 9 22 9 25-1 3-9-7-18-17-16m105 2c-10 6-7 18 6 24 14 5 22-8 12-18q-10-12-18-6m174 5q-10 7 0 19c8 9 23 6 23-5q1-5-7-11-11-8-16-3m399 1c-9 1-14 11-9 17 11 12 25 11 25-3q0-16-16-14m-231 13c-4 2-11 8-12 12q-1 5 8 9 10 7 16 1c10-11 1-28-12-22m46 0c-10 5-9 15 3 20q13 5 15-8 1-8-7-12c-6-2-7-2-11 0m-259 1c-11 7-10 18 1 23 14 7 27-6 17-18q-9-11-18-5m304 6c-10 6-6 23 6 23 4 0 11-5 13-9 4-10-9-20-19-14m-511 7q-7 9 0 19c10 11 30-1 22-13q-12-14-22-6m321 2c-8 3-12 12-8 17 10 13 32 1 23-12-2-4-10-7-15-5m-166 5c-12 10-6 24 9 24q7 1 9-2l3-3c2 0 2-7 0-10q-10-16-21-9m-53 4c-11 9-8 22 5 22 14 0 21-13 13-22q-8-7-18 0m-45 2c-5 3-11 10-11 13 0 7 14 15 22 11 14-6 12-23-3-25zm539 1q-16 9 3 20c13 6 20-5 11-17q-7-7-14-3m-647 0q-21 3-5 19c10 8 22 5 22-7 0-6-7-14-11-13zm420 5q-11 10 1 16c14 7 30-4 21-15q-9-13-22-1m186-5c-10 2-14 10-9 16 6 8 17 8 22-1 6-8-2-17-13-15m-278 7c-10 4-14 13-9 19 7 10 18 10 25 1 4-5 1-15-6-20q-4-4-10 0m365 4c-7 2-9 10-3 14q13 11 18 3 9-7-4-15c-5-3-6-3-11-2m-164 12q-15 9 0 20 13 8 19-8c1-9-10-17-19-12m-52 7c-8 6-7 17 2 22 13 7 24-6 16-18q-9-9-18-4m-200 2c-11 5-13 16-4 22 9 7 21 3 25-7l2-4-3-4-4-4c0-3-10-5-16-3m-251 1c-12 4-13 17 0 24a12 12 0 1 0 0-24m549 1c-11 8-4 23 10 22 12-2 15-13 4-20q-7-6-14-2m-505 4c-7 8-6 11 7 20 11 8 21 0 17-12-4-11-18-15-24-8m307-1q-14 9-6 19c13 14 36-1 24-15q-9-9-18-4m-149 0-3 4-2 2c-5 0-5 11 0 16q15 11 23-7c4-10-9-21-18-15m-51 6q-14 9-7 22c9 14 29 1 24-15q-3-15-17-7M5 453l-5 2v8q0 10 11 13c8 1 15-12 10-19q-6-9-16-4m659 0q-12 7-3 14 13 12 19 4c9-9-5-25-16-18m52 4q-10 3-6 12c9 15 28 11 22-4q-5-11-16-8m-548 5c-11 8-11 19-1 24 9 5 21-1 21-10 0-13-11-20-20-14m302 1q-6 4-10 9c-2 6 15 18 21 15 7-3 10-12 5-17q-7-10-16-7m296 4q-8 6-9 15 1 7 9 9l3 1v-27zm-394 1q-14 7-8 16c5 10 17 13 25 5q11-11-3-20c-6-4-8-4-14-1m254 18c-6 1-10 9-8 14 4 13 18 16 24 6 6-9-5-23-16-20m-591 2q-12 5-9 14c2 3 12 10 15 10 7 0 14-12 10-18q-7-9-16-6m483 5q-8 6-5 13c3 5 5 6 16 6h10v-4c3-11-12-21-21-15m-93 0c-5 2-12 11-10 13l2 3 1 3h25v-3a20 20 0 0 0-14-16zm-100 2c-6 3-10 11-8 15 1 2 2 2 14 2h13l1-2q1-5-5-11-7-9-15-4m-247 2q-6 8-4 12c2 2 2 3 14 3h12v-3c3-11-14-20-22-12m53 2a13 13 0 0 0-7 12q-3 1 14 1h14v-3q-3-7-12-10c-5-2-5-2-9 0m145 0q-7 4-7 10v3h14c16 0 15 0 11-7q-6-12-18-6m403 3-8 9 14 1 15-1-6-8q-8-7-15-1m-451 2q-17 8 4 8 18 2 8-6-5-6-12-2m513 1-7 6 10 1c11 0 11 0 8-4q-7-6-11-3"
        mask="url(#16282281824-posters-1720559096008-vertical-mask)" itemprop="medium" fill-opacity="0.90"
        fill-rule="evenodd" stroke="none" fill="url(#16282281824-posters-1720559096008-vertical-medium)"></path>
      <!---->
      <path id="16282281824-posters-1720559096008-bold"
        d="M15 5q1 9 8 11c7 3 16-7 13-14q1-2-11-2H15zm56-1-3 6a17 17 0 0 0 8 12c0 2 6 1 7 0l2-2 1-1 1-1c2 0 8-6 8-9l-2-5-1-4H74zm71-3 3 5q5 6 13 0 13-7-5-6zm195 1a12 12 0 0 0 9 17c2 2 15-9 15-12 0-7 0-7-12-7-10 0-11 0-12 2m95 0c-3 10 1 19 7 19l10-5 3-2q6-5 4-11c-2-4-23-4-24-1m167-1c0 7 13 8 20 1 1-2 1-2-9-2zm52 0c-1 2 4 9 7 10 4 0 14-5 16-9 1-2 1-2-10-2zm54 1c0 5 13 14 16 11l3-1q5-1 6-9V0h-12c-12 0-13 0-13 2m55 1q2 6 3 4l1-2 1 2q-1 2 2 2 3 2 2-4V0h-5q-6-1-4 3M506 13c-11 5-7 22 6 22a12 12 0 1 0-6-22m-263 7c-10 7-9 19 2 22 10 3 21-13 13-20-3-4-11-5-15-2m146 3c-8 4-11 17-4 20l4 2q10 5 16-9c5-9-6-18-16-13m177 1c-9 2-15 15-10 21 5 5 17 0 23-10 3-6-6-13-13-11m-374 5c-8 8-4 17 9 19 6 2 14-4 14-10 0-13-14-18-23-9m433-3q-6 5-6 9v3c-3 4 5 9 11 7 4-3 11-11 11-14 0-6-10-9-16-5m-333 4c-7 1-10 12-6 18q10 9 21-2c6-7-4-18-15-16m-165 4q-12 7-3 20c5 7 20 0 20-10 0-8-10-14-17-10m547 2q-7 8-1 14c11 11 24-1 16-13q-7-8-15-1M0 52v13l3-1c7-3 13-11 10-15l-9-9-4-1zm460-9q-8 9-1 17c9 9 26-4 19-15q-8-11-18-2m269-3q-14 8-8 17 7 6 8 5h3c7 4 16-3 14-11q0-5-8-9c-6-3-5-3-9-2m-388 7c-10 2-13 12-7 19 9 9 31-6 23-15q-7-7-16-4M45 52q-3 2-3 5 1 2-2 2c-4-1-4 8 0 12q9 9 22-3c4-4 6-11 3-11l-1-2c-2-5-14-7-19-3m372 6c-10 3-9 25 2 25q7-1 13-8c5-7-5-19-15-17m171 3q-12 7 1 17c11 8 25-9 15-17-3-2-12-2-16 0m-75 3c-7 4-11 18-6 22 4 3 17-2 20-9a8 8 0 0 0-7-12q-4-3-7-1m-328 6c-8 5-7 14 3 19q9 6 14 0 8-9-2-16-8-8-15-3m-92 2c-6 4-8 15-3 19 5 6 16 6 19 0 5-10-7-24-16-19m154 6q-8 4-7 11 5 19 18 6 10-9-2-17c-5-2-4-2-9 0m435 0q-14 9-2 17c10 6 25-8 15-15-3-3-11-4-13-2m-391 3c-3 4-5 13-2 13l1 1q2 4 6 6c5 2 15-5 17-12 3-10-14-15-22-8m345 0q-10 10-2 19a12 12 0 1 0 2-19m-259 2q-9 9-4 16c3 8 14 6 19-2 6-9-8-21-15-14m169 8c-4 2-10 8-10 10s4 8 7 9c6 3 19-3 19-8 0-9-9-15-16-11m-399 2c-13 3-10 22 4 22 13 0 18-13 8-20q-5-4-12-2m-137 8c-11 10 7 27 19 18q7-6 3-11-11-15-22-7m443-2q-4-1-9 8c-4 7 3 18 11 17 9-1 16-11 12-17l-8-8zm271 1q-12 10 3 19c6 3 15 3 14 0l2-1c8 0 7-15-1-17l-4-1c-2-2-10-2-14 0m-379 7c-9 1-11 16-3 21q3 3 14-5c9-7 2-18-11-16m-265 4h-8c-12-1-23 10-18 19 1 3 9 7 12 7a23 23 0 0 0 15-18q6-10-1-8m135 1-4 1q-8 3-9 10c0 6 8 13 13 11 9-3 15-14 10-19-3-3-9-5-10-3m375 0c-3 2-8 10-7 13 1 7 11 11 16 9q9-6 7-15c-1-6-10-9-16-7m-93 8-7 10-1 1c-2 0-1 7 1 10 5 5 14 4 19-3 8-11-3-27-12-18m-233 5c-11 5-9 20 3 21a12 12 0 0 0 7-22l-4-1zm130 3c-3 0-7 5-7 7l-1 1c-2 0-1 5 1 6l2 1-1 1 2 3c8 8 21 6 24-5 1-7-12-16-20-14m290 0q-4 1-10 10c-5 11 9 22 19 14 4-4 4-19 0-22q-4-3-9-2m-573 1c-9 5-9 18-1 23q6 5 14-3c6-7 7-9 1-14q-10-10-14-6m520 4q-4 3-2 6c5 14 21 16 21 3 0-10-13-16-19-9m-318 10q-8 7-2 16 6 10 16 1 13-12 1-21-9-6-15 4m220-5q-6 5-8 11c0 4 9 11 13 11s12-9 12-14c0-6-9-11-17-8M0 148q0 15 5 5 4-7-2-12-4-8-3 7m169-7q-16 8-8 18 11 10 23 1c9-8-4-24-15-19m591 5q-9 9 2 17l3 2 2 1c2 0 2-1 2-12v-12h-3q-3 0-6 4m-45 7c-5 5-5 5-5 11 1 11 15 15 23 7 8-9-8-26-18-18m-270 1c-3 3-5 9-2 9l2 4a12 12 0 0 0 24-4c0-8-17-15-24-9m-224 5c-6 5-7 16-2 21l6 3h2q1 2 8 1c4-1 7-8 7-12-2-9-15-17-21-13m347 5q-10 12 6 17c7 3 8 2 12-1 10-10-7-25-18-16m48 0q-10 6-3 17c10 12 25-2 16-15q-4-7-13-2m-593 3q-6 6-5 15c3 11 19 10 23-1 5-11-9-22-18-14m54 1c-10 4-13 15-5 20 4 2 14 2 17-1 9-8-1-24-12-19m288 3c-10 1-12 16-3 20 11 5 27-8 19-16q-7-5-16-4m-91 4q-7 3-7 11c0 6 0 6 3 9q12 9 22-1 6-6 0-12-11-12-18-7m234 0a11 11 0 0 0-9 7q-3 1-2 7c4 8 14 9 20 2q9-10-1-15c-3-2-3-2-8-1m-380 4q-13 9-3 20c4 4 15 3 20-2 9-9-7-25-17-18m533 3q-6 3-7 8a14 14 0 0 0 11 12c1 2 9-2 11-5l1-6c0-6-10-12-16-9m-247 2c-12 3-12 25-1 25 3 0 13-5 15-8 4-5 0-15-7-17zm-236 13q-11 11 1 19 15 8 21-5 2-5-5-12c-7-8-10-8-17-2m145 0q-8 7-3 15 2 7 11 6 8 1 11-5c6-14-9-27-19-16m219 4q-5 3-6 9c4 13 25 15 25 2 0-7-12-14-19-11m157 4c-5 2-8 10-5 15 4 7 15 9 20 3 8-7-4-22-15-18m-232 4-5 7c-2 0-1 9 1 11a11 11 0 0 0 15 0c6 0 10-10 6-16q-7-11-17-2m125-2c-8 3-10 13-5 18 7 6 22 1 22-8 0-7-11-13-17-10m147 0c-7 3-7 12-2 18 12 13 31 0 19-13q-3-4-6-4-9-3-11-1M0 224v12h3c14-3 15-21 1-23l-4-1zm638-6c-9 6-3 20 8 20q10 0 9-13c0-9 1-8-7-9q-7-1-10 2m-596 0c-9 5-8 18 1 23q7 4 13-3 7-5 2-13-8-10-16-7m241 7c-11 9-3 27 10 23 11-3 10-17-2-24-4-3-4-3-8 1m-197 0q-4 2-5 5l-1 1-1 3c0 9 16 16 22 9 8-7-5-22-15-18m283 5q-10 5-9 15 3 9 13 7c2-1 11-12 11-15q-1-6-7-7l-4-1q-2-1-4 1m-133 1q-4 3-6 7l-1 1-1 4c0 4 7 11 12 12 12 3 17-8 8-19q-7-8-12-5m-102 4c-9 6-7 20 4 20 10 0 11 0 14-3 8-10-8-25-18-17m377 0c-11 7-10 17 1 17q11 0 11-10-1-13-12-7m-90 10q-13 9 5 20c6 3 17-4 17-11q-1-6-11-10c-7-1-7-1-11 1m143 2c-4 2-10 9-10 13 0 6 11 10 17 5 10-8 4-22-7-18m-384 9c-5 5-5 5-2 10q9 17 21 6 6-10-6-19-7-5-13 3m140-1q-9 10 3 18 15 7 18-10 1-8-7-11t-14 3m351 2c-7 5-7 15 0 18q15 3 16-10a7 7 0 0 0-3-7c0-4-8-4-13-1m-65 3-4 6q-2 8 9 9c12 0 17-9 10-16q-7-7-15 1m117-1c-8 3-9 4-9 11q1 13 16 11c9-2 12-15 5-21-4-3-5-4-12-1m42 1q-6 8 3 18l2 2v-5l-1-12q0-10-4-3m-723 6-3 3q-5 2-5 9c0 1 6 7 10 9 10 5 21-7 15-16-4-4-17-8-17-5m51 5c-7 3-8 13-1 16 13 7 22 3 19-7q-5-13-18-9m-92 7v4l-1 8q0 11 5 3 8-6 0-14-5-9-4-1m277-2q-11 6-4 17a12 12 0 1 0 4-17m241 2q-5 6-3 9v3c-1 5 13 9 19 6q11-8-3-18c-3-3-10-2-13 0m-50 2q-7 5-7 11a15 15 0 0 0 11 11c1 3 10 0 14-4 6-7-4-20-14-20zm52 2q-3 2 2 3l4 3q5 8 5 0l-1-3c0-2-7-5-10-3m-294 4c-5 4-6 14-3 19 1 2 8 7 10 7q6-1 11-7c3-4 2-6-5-14q-8-9-13-5m-95 5q-9 10 2 16l4 1c6 5 16 2 16-5 0-12-14-19-22-12m233 0q-2 1-2 4l-2 3-1 4c2 9 14 13 22 7 12-7-4-24-17-18m270 1q-8 5-5 12c2 6 14 9 20 4 11-8-3-23-15-16m-61 3q-8 6-5 12c6 9 17 9 21-1q3-4 0-7-7-9-16-4m-158 5-3 4-1 3c-4 2 4 13 11 15 12 2 20-14 11-22-3-4-13-4-18 0m263 5q-10 9 5 18 12 7 18-3c5-12-12-23-23-15m-504 5c-8 7-1 22 11 22q5-1 6-5l1-1a12 12 0 0 0-18-16m559-1q-12 6-3 16a17 17 0 0 0 10 6q1 2 4-1c15-8 4-29-11-21m-420 5-5 5c-2 0 0 6 2 10l7 5 5 3 5 1q15-1 7-12l-5-7q-7-12-16-5m-235-1q-5 3-8 10c-2 7 17 16 24 11 9-8-4-26-16-21m-52 1a9 9 0 0 0-6 14c3 3 11 7 15 7 8 0 10-10 3-16l-9-6zm476 12q-12 8-8 17c4 10 18 9 24-2q6-13-5-17-5-3-11 2m-235 4c-13 8-1 28 14 25q6-1 4-4-2-2 1-2 7-1-8-18-5-5-11-1m334 0-4 4-1 3q-3 2 2 8 10 10 17 0c6-11-2-19-14-15m-55 5q-10 10 2 15 13 6 15-6c4-11-9-18-17-9m-432 6-1 2-1 2-2 1-3 1q-4 1 1 7l1 2c0 3 9 10 11 10 9 0 15-14 10-21-3-3-12-5-16-4m527 2-3 2-3 4q-3 2-1 4l1 2c-1 2 10 9 14 9q6-1 11-6c5-8-9-20-19-15m-252 2q-10 8-7 15c5 13 20 14 27 1q4-7-1-13-9-10-19-3m-170 2q-8 3-7 11 1 16 14 15c7-1 15-10 14-16-3-9-13-14-21-10m230 2-2 2c-3 0-6 7-7 13q-1 6 3 7l4 4q2 4 10 1c9-4 12-16 6-24-3-4-3-4-9-4zm-438 9q-2 3-3 1 1-2-5 1-11 8 4 17c10 8 23-3 16-13l-10-8zm674 0c-8 5-7 14 3 18 11 5 22-3 18-13-2-7-13-10-21-5m-628 1q-13 7-4 14c10 10 22 9 24-2 1-9-12-17-20-12m110 0c-8 3-9 12-3 18 9 8 20 8 22 0 3-9-11-22-19-18m172 6q-9 8 2 18c11 11 28-1 17-12-10-10-13-11-19-6m395 2q-6 4-7 10c0 2 7 10 12 12 7 3 16-3 15-11q-5-17-20-11m-440 13q-15 10 0 21 14 6 20-5 4-11-10-18c-4-1-4-1-10 2m212 0q-9 5-10 11c0 5 12 13 18 11 8-3 11-15 4-21q-5-7-12-1m46-1q-12 11 4 18 13 5 14-9c0-9-11-14-18-9m48 6c-8 3-10 17-2 21a13 13 0 0 0 13-2l4-3c7-8-5-21-15-16m-511 6q-4 2-5 11c0 13 17 17 25 6q5-5-4-13-7-7-16-4m316 6q-10 8-3 16c8 7 23 2 23-8a12 12 0 0 0-9-10c0-2-7-1-11 2m-164 4c-9 8-3 22 10 22 3 0 9-3 9-4l1-1c4 0 4-8 0-12q-11-14-20-5m-46 0c-10 3-15 15-9 21 3 3 14 3 19-1l2-3-2-1q0-2 2-2c3 2 4-6 1-10l-9-6zm-56 9q-11 9 1 16c11 8 27 0 23-12-3-10-15-13-24-4m322-3q-17 13-2 20c18 8 30-11 13-20q-6-4-11 0m219 2c-6 6-5 8 3 14q16 9 17-3c0-13-11-19-20-11m-645-2q-21 3 0 20c9 6 21-3 17-13q-4-6-9-8zm606 0c-10 2-12 12-5 18l8 2c13 0 18-17 6-20zm-276 6c-8 3-13 12-10 17 5 11 18 11 25 1q4-4-1-11-5-10-14-7m361 7q-7 8 5 14c14 6 22-6 10-14q-10-6-15 0m-162 10q-5 4-6 9a23 23 0 0 0 12 12c0 3 6 1 9-3 9-11-3-26-15-18m-51 7q-9 6-4 14c4 7 13 10 19 6 4-2 6-9 5-12a19 19 0 0 0-8-10c0-2-9-1-12 2m-198 1c-16 5-13 25 5 25l6-2q5-1 8-9c1-3 1-3-3-8l-4-5zm-256 3q-8 6-5 12l1 2c0 3 10 9 13 8q8-2 10-10c1-12-8-17-19-12m552 1c-10 6-4 19 9 19 11 0 15-9 7-17q-8-9-16-2m-500-1q-15 7-2 19l6 5c4 4 14 0 15-6a19 19 0 0 0-16-19zm304 1c-7 4-12 13-10 16q7 8 12 9c12 1 20-8 16-17-4-6-14-10-18-8m-151 2-3 4-2 2c-3 1-5 6-3 7v2c-2 3 8 10 13 10q13-1 13-15c0-9-11-15-18-10m-51 6c-10 6-12 17-4 24 11 8 26-7 20-20q-6-12-16-4m452 3-2 1c-2 0-7 5-7 7l3 5c12 13 28 7 20-8q-8-11-14-5M9 453q-10 1-9 9a7 7 0 0 0 7 10q1-1 2 2c-1 2 7 1 9-1l5-11c0-5-9-11-14-9m704 6q-8 7 4 16c12 9 22-5 10-16-3-3-11-3-14 0m-542 2c-7 3-12 13-10 18 2 8 16 11 22 5 3-3 3-3 3-10q-2-17-15-13m298 4a2 2 0 1 1-2 2q1-3-3 1-7 8 8 15 11 8 16-4 3-4 0-7-8-13-18-8m295 5q-13 15 2 20l3 1v-12q1-19-5-9m-390-1q-16 7-10 13l2 4 1 2 1 1 3 2c6 7 24-4 21-13-1-7-13-13-18-9m197 15a12 12 0 1 0 12 20 12 12 0 0 0-12-20m53 3q-11 8 0 20 8 10 15 1c10-10-3-27-15-21m-588 1a11 11 0 0 0-9 11c-2 1 5 9 10 11q10 3 14-8c3-7-7-16-15-14m481 7q-7 7-1 14c4 3 4 3 13 3h9l1-4q2-7-7-13-9-7-15 0m-92-1c-5 2-12 12-9 12l2 3 1 3h11q14 1 12-2 2-3-1-8l-7-7c-1-1-7-2-9-1m-344 2q-6 4-7 11-1 6 15 5h11v-4c0-10-11-17-19-12m241 2q-6 6-4 12c1 2 1 2 13 2h13v-5q1-3-5-8-8-10-17-1m-44 2q-8 2-8 9v3h13l13-1c0-3-4-10-7-11-5-3-6-3-11 0m-146-1-8 8 3 1q5 2-1 3l11 1c16 0 17 0 11-8q-8-8-16-5m547 4q-6 5-7 8l14 1h13l-1-2c-2-9-12-12-19-7m-450 1q-18 8 4 8h11l-3-4q-6-9-12-4m510 3q-11 6 5 5c10 0 10 0 9-2q-6-7-14-3"
        mask="url(#16282281824-posters-1720559096008-horizontal-mask)" itemprop="bold" fill-opacity="0.90"
        fill-rule="evenodd" stroke="none" fill="url(#16282281824-posters-1720559096008-vertical-bold)"></path>
    </pattern>
    <rect id="16282281824-posters-1720559096008-pattern-render" fill="url(#16282281824-posters-1720559096008-pattern)"
      width="100%" height="100%"></rect>
  </defs>
  <radialGradient id="lightbar" cx="50%" cy="200%" fy="0" r="201%">
    <stop offset="0%" style="stop-color: rgb(255, 255, 255); stop-opacity: 0.1;"></stop>
    <stop offset="10%" style="stop-color: rgb(0, 0, 0); stop-opacity: 0.1;"></stop>
    <stop offset="30%" style="stop-color: rgb(0, 0, 0); stop-opacity: 0.3;"></stop>
    <stop offset="90%" style="stop-color: rgb(0, 0, 0); stop-opacity: 0.55;"></stop>
    <stop offset="100%" style="stop-color: rgb(0, 0, 0); stop-opacity: 0.6;"></stop>
  </radialGradient>
  <g class="radial">
    <radialGradient id="16282281824-posters-1720559096008-radial" gradientUnits="userSpaceOnUse">
      <stop itemprop="radial" stop-color="#c1c0bd" offset="0%"></stop>
      <stop itemprop="radial" stop-color="#bebdbb" offset="15%"></stop>
      <stop itemprop="radial" stop-color="#c3c2c1" offset="30%"></stop>
      <stop itemprop="radial" stop-color="#c1c0be" offset="45%"></stop>
      <stop itemprop="radial" stop-color="#c1c0be" offset="60%"></stop>
      <stop itemprop="radial" stop-color="#c4c3c0" offset="75%"></stop>
      <stop itemprop="radial" stop-color="#c4c2c0" offset="90%"></stop>
    </radialGradient>
    <radialGradient id="16282281824-posters-1720559096008-radial-background" gradientUnits="userSpaceOnUse">
      <stop stop-color="#d3cdc5" offset="0%"></stop>
      <stop stop-color="#d3cec5" offset="15%"></stop>
      <stop stop-color="#d3cec5" offset="30%"></stop>
      <stop stop-color="#d3cec5" offset="45%"></stop>
      <stop stop-color="#d3cec5" offset="60%"></stop>
      <stop stop-color="#d3cfc5" offset="75%"></stop>
      <stop stop-color="#d3cdc5" offset="90%"></stop>
    </radialGradient>
    <radialGradient id="16282281824-posters-1720559096008-radial-light" gradientUnits="userSpaceOnUse">
      <stop stop-color="#9c9a96" offset="0%"></stop>
      <stop stop-color="#9b9a97" offset="15%"></stop>
      <stop stop-color="#9b9a97" offset="30%"></stop>
      <stop stop-color="#9b9a97" offset="45%"></stop>
      <stop stop-color="#9b9a97" offset="60%"></stop>
      <stop stop-color="#9c9a96" offset="75%"></stop>
      <stop stop-color="#9c9a96" offset="90%"></stop>
    </radialGradient>
    <radialGradient id="16282281824-posters-1720559096008-radial-regular" gradientUnits="userSpaceOnUse">
      <stop stop-color="#83807c" offset="0%"></stop>
      <stop stop-color="#82807d" offset="15%"></stop>
      <stop stop-color="#82807d" offset="30%"></stop>
      <stop stop-color="#82807d" offset="45%"></stop>
      <stop stop-color="#82807d" offset="60%"></stop>
      <stop stop-color="#83817c" offset="75%"></stop>
      <stop stop-color="#83807c" offset="90%"></stop>
    </radialGradient>
    <radialGradient id="16282281824-posters-1720559096008-radial-medium" gradientUnits="userSpaceOnUse">
      <stop stop-color="#51504d" offset="0%"></stop>
      <stop stop-color="#51504d" offset="15%"></stop>
      <stop stop-color="#51504d" offset="30%"></stop>
      <stop stop-color="#51504d" offset="45%"></stop>
      <stop stop-color="#51504d" offset="60%"></stop>
      <stop stop-color="#51504d" offset="75%"></stop>
      <stop stop-color="#51504d" offset="90%"></stop>
    </radialGradient>
    <radialGradient id="16282281824-posters-1720559096008-radial-bold" gradientUnits="userSpaceOnUse">
      <stop stop-color="#2f2e2d" offset="0%"></stop>
      <stop stop-color="#2f2e2d" offset="15%"></stop>
      <stop stop-color="#2f2e2d" offset="30%"></stop>
      <stop stop-color="#2f2e2d" offset="45%"></stop>
      <stop stop-color="#2f2e2d" offset="60%"></stop>
      <stop stop-color="#2f2e2d" offset="75%"></stop>
      <stop stop-color="#2f2e2d" offset="90%"></stop>
    </radialGradient>
  </g>
  <g class="vertical">
    <linearGradient id="16282281824-posters-1720559096008-vertical" gradientUnits="userSpaceOnUse" x1="0" x2="0" y1="0"
      y2="100%">
      <stop itemprop="vertical" stop-color="#c1c0bd" offset="0%"></stop>
      <stop itemprop="vertical" stop-color="#bebdbb" offset="15%"></stop>
      <stop itemprop="vertical" stop-color="#c4c3c0" offset="30%"></stop>
      <stop itemprop="vertical" stop-color="#c1c0bd" offset="45%"></stop>
      <stop itemprop="vertical" stop-color="#c1c0be" offset="60%"></stop>
      <stop itemprop="vertical" stop-color="#c4c2c0" offset="75%"></stop>
      <stop itemprop="vertical" stop-color="#c4c2c0" offset="90%"></stop>
    </linearGradient>
    <linearGradient id="16282281824-posters-1720559096008-vertical-background" gradientUnits="userSpaceOnUse" x1="0"
      x2="0" y1="0" y2="100%">
      <stop stop-color="#ceccca" offset="0%"></stop>
      <stop stop-color="#cdcccb" offset="15%"></stop>
      <stop stop-color="#cecdca" offset="30%"></stop>
      <stop stop-color="#ceccca" offset="45%"></stop>
      <stop stop-color="#cdcccb" offset="60%"></stop>
      <stop stop-color="#ceccca" offset="75%"></stop>
      <stop stop-color="#ceccca" offset="90%"></stop>
    </linearGradient>
    <linearGradient id="16282281824-posters-1720559096008-vertical-light" gradientUnits="userSpaceOnUse" x1="0" x2="0"
      y1="0" y2="100%">
      <stop stop-color="#ae9d84" offset="0%"></stop>
      <stop stop-color="#aea084" offset="15%"></stop>
      <stop stop-color="#aea284" offset="30%"></stop>
      <stop stop-color="#ae9d84" offset="45%"></stop>
      <stop stop-color="#aea084" offset="60%"></stop>
      <stop stop-color="#ae9d84" offset="75%"></stop>
      <stop stop-color="#ae9d84" offset="90%"></stop>
    </linearGradient>
    <linearGradient id="16282281824-posters-1720559096008-vertical-regular" gradientUnits="userSpaceOnUse" x1="0" x2="0"
      y1="0" y2="100%">
      <stop stop-color="#83807c" offset="0%"></stop>
      <stop stop-color="#82807d" offset="15%"></stop>
      <stop stop-color="#83817c" offset="30%"></stop>
      <stop stop-color="#83807c" offset="45%"></stop>
      <stop stop-color="#82807d" offset="60%"></stop>
      <stop stop-color="#83807c" offset="75%"></stop>
      <stop stop-color="#83807c" offset="90%"></stop>
    </linearGradient>
    <linearGradient id="16282281824-posters-1720559096008-vertical-medium" gradientUnits="userSpaceOnUse" x1="0" x2="0"
      y1="0" y2="100%">
      <stop stop-color="#51504d" offset="0%"></stop>
      <stop stop-color="#51504d" offset="15%"></stop>
      <stop stop-color="#51504d" offset="30%"></stop>
      <stop stop-color="#51504d" offset="45%"></stop>
      <stop stop-color="#51504d" offset="60%"></stop>
      <stop stop-color="#51504d" offset="75%"></stop>
      <stop stop-color="#51504d" offset="90%"></stop>
    </linearGradient>
    <linearGradient id="16282281824-posters-1720559096008-vertical-bold" x1="0" x2="0" y1="0" y2="100%">
      <stop stop-color="#2f2e2d" offset="0%"></stop>
      <stop stop-color="#2f2e2d" offset="15%"></stop>
      <stop stop-color="#2f2e2d" offset="30%"></stop>
      <stop stop-color="#2f2e2d" offset="45%"></stop>
      <stop stop-color="#2f2e2d" offset="60%"></stop>
      <stop stop-color="#2f2e2d" offset="75%"></stop>
      <stop stop-color="#2f2e2d" offset="90%"></stop>
    </linearGradient>
  </g>
  <g class="horizontal">
    <linearGradient id="16282281824-posters-1720559096008-horizontal" x1="0" x2="100%" y1="0" y2="0"
      gradientUnits="userSpaceOnUse">
      <stop itemprop="horizontal" stop-color="#c1c0be" offset="0%"></stop>
      <stop itemprop="horizontal" stop-color="#c4c2c0" offset="15%"></stop>
      <stop itemprop="horizontal" stop-color="#c1c0bd" offset="30%"></stop>
      <stop itemprop="horizontal" stop-color="#c4c2c0" offset="45%"></stop>
      <stop itemprop="horizontal" stop-color="#c4c2c0" offset="60%"></stop>
      <stop itemprop="horizontal" stop-color="#c1c0be" offset="75%"></stop>
      <stop itemprop="horizontal" stop-color="#c6c5c3" offset="90%"></stop>
    </linearGradient>
    <linearGradient id="16282281824-posters-1720559096008-horizontal-background" gradientUnits="userSpaceOnUse" x1="0"
      x2="100%" y1="0" y2="0">
      <stop stop-color="#cdcccb" offset="0%"></stop>
      <stop stop-color="#ceccca" offset="15%"></stop>
      <stop stop-color="#ceccca" offset="30%"></stop>
      <stop stop-color="#ceccca" offset="45%"></stop>
      <stop stop-color="#ceccca" offset="60%"></stop>
      <stop stop-color="#cdcccb" offset="75%"></stop>
      <stop stop-color="#cecdca" offset="90%"></stop>
    </linearGradient>
    <linearGradient id="16282281824-posters-1720559096008-horizontal-light" gradientUnits="userSpaceOnUse" x1="0"
      x2="100%" y1="0" y2="0">
      <stop stop-color="#9b9a97" offset="0%"></stop>
      <stop stop-color="#9c9a96" offset="15%"></stop>
      <stop stop-color="#9c9a96" offset="30%"></stop>
      <stop stop-color="#9c9a96" offset="45%"></stop>
      <stop stop-color="#9c9a96" offset="60%"></stop>
      <stop stop-color="#9b9a97" offset="75%"></stop>
      <stop stop-color="#9c9a96" offset="90%"></stop>
    </linearGradient>
    <linearGradient id="16282281824-posters-1720559096008-horizontal-regular" gradientUnits="userSpaceOnUse" x1="0"
      x2="100%" y1="0" y2="0">
      <stop stop-color="#968769" offset="0%"></stop>
      <stop stop-color="#968469" offset="15%"></stop>
      <stop stop-color="#968469" offset="30%"></stop>
      <stop stop-color="#968469" offset="45%"></stop>
      <stop stop-color="#968469" offset="60%"></stop>
      <stop stop-color="#968769" offset="75%"></stop>
      <stop stop-color="#968969" offset="90%"></stop>
    </linearGradient>
    <linearGradient id="16282281824-posters-1720559096008-horizontal-medium" gradientUnits="userSpaceOnUse" x1="0"
      x2="100%" y1="0" y2="0">
      <stop stop-color="#5d5441" offset="0%"></stop>
      <stop stop-color="#5d5241" offset="15%"></stop>
      <stop stop-color="#5d5241" offset="30%"></stop>
      <stop stop-color="#5d5241" offset="45%"></stop>
      <stop stop-color="#5d5241" offset="60%"></stop>
      <stop stop-color="#5d5441" offset="75%"></stop>
      <stop stop-color="#5d5541" offset="90%"></stop>
    </linearGradient>
    <linearGradient id="16282281824-posters-1720559096008-horizontal-bold" gradientUnits="userSpaceOnUse" x1="0"
      x2="100%" y1="0" y2="0">
      <stop stop-color="#2f2e2d" offset="0%"></stop>
      <stop stop-color="#2f2e2d" offset="15%"></stop>
      <stop stop-color="#2f2e2d" offset="30%"></stop>
      <stop stop-color="#2f2e2d" offset="45%"></stop>
      <stop stop-color="#2f2e2d" offset="60%"></stop>
      <stop stop-color="#2f2e2d" offset="75%"></stop>
      <stop stop-color="#2f2e2d" offset="90%"></stop>
    </linearGradient>
  </g>
  <g class="masks">
    <mask id="16282281824-posters-1720559096008-pattern-mask" maskUnits="userSpaceOnUse"
      maskContentUnits="userSpaceOnUse">
      <pattern id="pattern" x="0" y="0" width=".0133" height=".0144" viewBox="0 0 23.07 40">
        <path
          d="M17.62 0l-6.07 10.5m2.74 4.76L8.22 4.75m-5.48 0h12.13M.01 0h23.07M6.07 20L0 9.5m2.74-4.75l-6.07 10.5m-5.48 0H3.33m8.2 4.75L0 .02-11.54 20m40.68 0L23.07 9.5m2.74-4.75l-6.06 10.5m-5.49 0H26.4M34.6 20L23.08.02 11.53 20m-5.46 0L0 30.51m2.74 4.75l-6.07-10.5m-5.48 0H3.33m8.2-4.75L0 40l-11.54-19.98zM17.6 40l-6.06-10.5m2.74-4.76L8.2 35.25m-5.48 0h12.13M0 40h23.07L11.54 20.01m17.6 0l-6.07 10.5m2.74 4.75l-6.06-10.5m-5.49 0H26.4M11.53 20h23.08L23.07 40"
          stroke-linecap="round" stroke-width="3.5" stroke="white"
          fill="url(#16282281824-posters-1720559096008-horizontal-background)"></path>
      </pattern>
      <rect width="100%" height="100%" fill="url(#pattern)"></rect>
    </mask>
    <mask id="16282281824-posters-1720559096008-horizontal-mask" maskUnits="userSpaceOnUse"
      maskContentUnits="userSpaceOnUse">
      <rect width="100%" height="100%" fill="url(#16282281824-posters-1720559096008-horizontal-background)"></rect>
    </mask>
    <mask id="16282281824-posters-1720559096008-radial-mask" maskUnits="userSpaceOnUse"
      maskContentUnits="userSpaceOnUse">
      <rect width="100%" height="100%" fill="url(#16282281824-posters-1720559096008-radial-background)"></rect>
    </mask>
    <mask id="16282281824-posters-1720559096008-vertical-mask" maskUnits="userSpaceOnUse"
      maskContentUnits="userSpaceOnUse">
      <rect width="100%" height="100%" fill="url(#16282281824-posters-1720559096008-vertical-background)"></rect>
    </mask>
  </g>
  <use href="#16282281824-posters-1720559096008-pattern-render"></use>
  <g>
    <use href="#16282281824-posters-1720559096008-background"></use>
    <use href="#16282281824-posters-1720559096008-light"></use>
    <use href="#16282281824-posters-1720559096008-regular"></use>
    <use href="#16282281824-posters-1720559096008-medium"></use>
    <use href="#16282281824-posters-1720559096008-bold"></use>
  </g>
  <g itemprop="animation">
    <animate href="#16282281824-posters-1720559096008-light" attributeName="stroke-opacity" repeatCount="indefinite"
      dur="5s" values="0.9;0.0;0.9"></animate>
    <animate href="#16282281824-posters-1720559096008-regular" attributeName="stroke-opacity" repeatCount="indefinite"
      dur="4s" values="0.9;0;0.9"></animate>
    <animate href="#16282281824-posters-1720559096008-medium" attributeName="stroke-opacity" repeatCount="indefinite"
      dur="5s" values="0.9;0;0.9"></animate>
    <animate href="#16282281824-posters-1720559096008-bold" attributeName="stroke-opacity" repeatCount="indefinite"
      dur="3s" values="0.9;0;0.9"></animate>
    <animate href="#16282281824-posters-1720559096008-regular" attributeName="fill-opacity" repeatCount="indefinite"
      dur="8s" values="0.9;0.75;0.95;0.8;0.9;"></animate>
    <animate href="#16282281824-posters-1720559096008-radial-background" attributeName="cx" repeatCount="indefinite"
      dur="34s" values="0%;33%;100%;0%;100%;0%;"></animate>
    <animate href="#16282281824-posters-1720559096008-radial-background" attributeName="cy" repeatCount="indefinite"
      dur="55s" values="0%;100%;33%;100%;66%;0%"></animate>
    <animate href="#16282281824-posters-1720559096008-vertical-light" attributeName="x1" repeatCount="indefinite"
      dur="55s" values="0%;33%;100%;0%;133%;0%;"></animate>
    <animate href="#16282281824-posters-1720559096008-vertical-light" attributeName="y1" repeatCount="indefinite"
      dur="86s" values="0%;100%;33%;100%;66%;0%"></animate>
    <animate href="#16282281824-posters-1720559096008-horizontal-regular" attributeName="x1" repeatCount="indefinite"
      dur="34s" values="0%;100%;66%;0%;33%;133%;0%"></animate>
    <animate href="#16282281824-posters-1720559096008-horizontal-regular" attributeName="y1" repeatCount="indefinite"
      dur="55s" values="0%;66%;100%;33%;100%;66%;0%"></animate>
    <animate href="#16282281824-posters-1720559096008-vertical-medium" attributeName="x1" repeatCount="indefinite"
      dur="34s" values="0%;100%;66%;0%;33%;133%;0%"></animate>
    <animate href="#16282281824-posters-1720559096008-vertical-medium" attributeName="y1" repeatCount="indefinite"
      dur="55s" values="0%;66%;100%;33%;100%;66%;0%"></animate>
    <animate href="#16282281824-posters-1720559096008-vertical-bold" attributeName="x1" repeatCount="indefinite"
      dur="34s" values="0%;100%;66%;0%;33%;133%;0%"></animate>
    <animate href="#16282281824-posters-1720559096008-vertical-bold" attributeName="y1" repeatCount="indefinite"
      dur="55s" values="0%;66%;100%;33%;100%;66%;0%"></animate>
  </g>
</svg>
