<svg id="16282281824-posters-1720553917958" itemscope="" itemtype="/posters"
  itemid="/+16282281824/posters/1720553917958" viewBox="0 0 769 512" preserveAspectRatio="xMidYMid meet" tabindex="0"
  class="animate landscape" xmlns="http://www.w3.org/2000/svg">
  <!---->
  <defs class="graphic">
    <pattern id="16282281824-posters-1720553917958-pattern" width="769" height="512" viewBox="0 0 769 512"
      patternUnits="userSpaceOnUse" preserveAspectRatio="xMidYMid meet">
      <rect itemprop="background" width="769" height="512" tabindex="-1"
        id="16282281824-posters-1720553917958-background" fill-opacity="1"
        fill="url(#16282281824-posters-1720553917958-radial-background)"></rect>
      <!---->
      <path id="16282281824-posters-1720553917958-light"
        d="M27 2q0 6 5 6 7 0 7-5 2-4-6-3-7 0-6 2m24 0q2 5 8 1 5-3-3-3-6 0-5 2m16 0q-3 6 3 9 10 2 8-8-5-6-11-1m153 0c0 5 7 8 10 4q6-5-4-6-7 0-6 2m55 1c-2 5 5 7 8 3q3-6-4-6-4-1-4 3m23-2q-2 3 1 5c4 4 12 0 10-5 0-1-10-2-11 0m66 0c-3 5 3 10 7 7q5-7-3-8zm110 1c0 6 7 9 9 4q3-6-4-6-5 0-5 2m84 0q3 6 8 2t-3-4q-7 0-5 2m196-1q2 6 8 2 4-3-3-3zM196 3q-4 5 2 7c5 2 8-4 4-7q-2-3-6 0m343 0q-4 4 0 7c4 3 8-5 4-8q-2-2-4 1m98 0q-4 4 0 6 5 4 8-1c3-5-3-10-8-5M505 5c-5 4 1 10 6 6q4-4 0-6-3-3-6 0m207 0q-3 4-1 7c4 4 12-1 9-7q-3-4-8 0M127 8q-4 4 0 8 3 3 7 0 5-4 0-8-3-4-7 0m562 0q-4 5 0 8c6 3 13-3 8-8q-5-4-8 0M252 8c-5 3-3 11 2 11q5 0 5-7-2-5-7-4m-106 3a5 5 0 1 0 7 0q-4-4-7 0m20 0-1 1v5a5 5 0 0 0 7-7q-4-2-6 1m231 0c-4 4-3 11 2 11 7 0 9-9 3-12q-2-2-5 1m30 0q-6 4-1 8 5 5 8 0 4-4 0-8t-7 0m37 0a6 6 0 1 0 6 0q-4-3-6 0m-359 0a4 4 0 1 0 5 1q-2-3-5-1m470 2c-4 4 0 10 5 7q5-4 0-8-3-2-5 1m-234 1q-5 5-2 10c2 2 9 1 10-1 4-3 0-11-4-11zm265 0a5 5 0 1 0 5 0zm-289 5c-5 4 0 10 5 7s4-9-1-9zM49 20q-4 7 4 7 5-3 1-8-2-2-5 1m621-1q-2 4 1 7 4 2 6-3-1-8-7-4m-42 1q-4 5 0 9a5 5 0 1 0 0-9m-106 3c-4 1-5 7-2 10a6 6 0 1 0 7-10zm-153 2c-5 4-4 11 3 11q7 0 7-7-1-8-10-4m367-1v8c4 3 12-2 9-7-1-2-7-3-9-1M26 26q-5 3-1 7 6 5 8-4-2-7-7-3m464-1c-2 2-1 8 1 8q4 2 7-3c1-4-5-8-8-5M67 27c-3 2-1 9 3 9q5-1 6-5-1-6-9-4m41 1a6 6 0 1 0 9 8 6 6 0 0 0-9-8m66 0q-5 5 1 8 8 6 11-2c1-6-7-10-12-6m53-1c-2 2-1 8 1 9 6 3 12-2 9-7-1-3-8-4-10-2m323 0v8a5 5 0 1 0 0-8m103 0v7c4 3 10-2 8-5q-4-5-8-2m-388 1c-5 2-2 10 3 8q6-2 3-7-3-3-6-1m444 1c-4 3-1 10 4 10q5-1 6-6c0-2-5-6-7-6zm-503 0q-5 4-1 7a5 5 0 1 0 1-7m85 1q-3 3-1 8c3 2 9 1 10-2 2-5-4-10-9-6M88 30a6 6 0 1 0 6 11 6 6 0 0 0-6-11m502 4q-3 1-1 5 4 5 7-1c4-4-2-9-6-4m-141 1q-4 4 0 7a5 5 0 1 0 0-7m117-1c-6 4-3 12 3 11l4-2v-8l-4-1zm-147 2a5 5 0 1 0 6 6 5 5 0 0 0-6-6m264-1a5 5 0 1 0 6 8 5 5 0 0 0-6-8m66 1q-3 3 0 6 5 4 8 0c4-5-4-11-8-6m-401 0-1 4q1 6 7 2c4-4-2-10-6-6m191 5c-3 3 0 9 4 9q4-1 5-6 0-4-5-4zm-412 2q-4 7 4 8 8-2 3-8-4-4-7 0m21 0c-5 3 0 11 6 9 4-2 2-11-2-11zm326-1q-5 5 1 8a5 5 0 1 0-1-8m-160 3q-4 5 0 8 7 6 10-4c2-5-6-8-10-4m302-1a5 5 0 0 0 7 7q5-6-3-8zm20 1q-6 4-1 8a6 6 0 1 0 1-8M57 46c-4 2-2 7 3 7q4 0 4-4 0-7-7-3m677 0a5 5 0 1 0 7 8 5 5 0 0 0-7-8M36 48a4 4 0 1 0 8 2q-3-7-8-2m551 1c-4 4 0 8 4 5q4-2 1-6-2-2-5 1m113 0a5 5 0 1 0 7 0q-3-4-7 0m-313 0-1 4q2 8 8 2c3-4-2-8-7-6m269 1q-2 4 1 6a3 3 0 1 0-1-6m16 2q-5 6 4 7 3 0 3-3-1-9-7-4M5 53q-4 6 1 8t8-2c2-6-6-11-9-6m206 0q-3 3-1 5c3 4 10 3 10-2q-1-7-9-3m281 1c-4 4 0 10 5 8q4-1 5-5c0-4-8-6-10-3m-255 1q-5 3 1 7t7-4q-2-7-8-3M96 55l-1 4c0 4 8 5 9 0q-2-7-8-4m90 0a6 6 0 1 0 8 9 6 6 0 0 0-8-9m156 3q-4 2-3 5c2 8 12 6 12-2q-1-10-9-3m85-1q-3 4 0 7 8 3 9-5c0-3-7-5-9-2m130 2q-3 2-1 5c1 4 7 4 9 1q3-3 0-6-4-4-8 0M75 60a6 6 0 1 0 7 1q-4-6-7-1m638 1q-6 3-1 8 6 5 11-2c3-7-5-12-10-6m-595 0q-4 4 2 8c6 3 10-5 5-8q-3-3-7 0m343 1q-3 7 4 8 5 0 5-5c0-5-7-7-9-3m-92 1c-3 6 2 11 7 8q4-2 3-6c-1-4-7-5-10-2m232-1q-2 4 1 10c5 4 12-3 9-9-2-2-8-3-10-1m-198 1a6 6 0 1 0 3 11 6 6 0 0 0-3-11m-261 1q-3 3-1 8h8c4-4-2-11-7-8m117 1c-5 6 0 11 7 8q4-3 0-8-4-4-7 0m29 1q-3 3-1 5c4 6 12 0 9-6q-4-5-8 1m373 0c-5 3 0 11 6 8q5-3 1-8-3-4-7 0m29 0q-6 3-1 8a5 5 0 1 0 1-8m56 4q-3 2-1 8c4 3 11 0 11-5q-1-4-6-5zm-238 1a6 6 0 1 0 7 7 6 6 0 0 0-7-7m-186 1q-4 4-1 8 4 3 7-1 6-5-1-8-2-2-5 1m120 0q-4 4 0 7t7 0q5-8-3-9zm138-1q-2 5 1 6 6 0 5-5-2-3-6-1m58 1q-2 6 3 7 8-2 4-7-5-5-7 0M25 72a5 5 0 1 0 3 10 5 5 0 0 0-3-10m23 0c-3 2-3 8 0 9q5 2 9-3c3-4-4-9-9-6m164 2q-3 8 5 5 3-2 1-5-3-4-6 0m-45 4-2 3c-2 5 6 10 10 6v-8c-1-1-7-2-8-1m456 0q-5 3-1 8a6 6 0 1 0 1-8m-389 1a5 5 0 1 0 6 9q5-9-6-9m238 1q-4 3 0 7a5 5 0 1 0 0-7m232-1a4 4 0 1 0 6 6 4 4 0 0 0-6-6m-407 1c-3 1-3 7 0 10a5 5 0 1 0 0-10m260 3c-5 5 1 12 7 8q5-3 1-7-3-6-8-1m-139 1-3 4c0 6 7 8 11 4 6-6-2-13-8-8m-317 1q-3 4 2 8c4 4 10-1 8-8-1-3-8-3-10 0m427-1a5 5 0 1 0 6 7c4-4-2-10-6-7m144 1q-3 3 0 6a5 5 0 1 0 0-6m51 0q-2 3 1 4c3 4 9 1 8-3s-8-4-9-1m-346 1q-2 6 4 7c4 0 7-5 5-7-2-3-8-3-9 0m-170 1c-3 3-1 9 4 9q6-1 4-8-3-3-8-1m140 1q-6 6 2 8 5 0 5-5 0-7-7-3m305 0q-1 6 3 7 6 0 7-5c0-5-8-6-10-2m-378 1q-4 4 1 7c5 0 8-5 4-7zm-143 2q-6 4-1 8 5 5 9-1l2-3-2-3q-3-5-8-1m-71 0a5 5 0 1 0 7 5q0-8-7-5m22 1q-4 6 3 7a4 4 0 1 0-3-7M4 92q-5 4-2 7 4 6 7 1c5-5 0-11-5-8m681 0c-2 0-1 6 1 6q8 2 6-5-2-4-7-1m-522 2c-5 4-1 12 5 9a5 5 0 1 0-5-9m600 0q-4 5 0 8 6 3 6-4-1-7-6-4M35 95c-4 3-3 9 3 9q4-1 6-5c0-3-6-6-9-4m288 2q-3 3-1 5a4 4 0 1 0 1-5m162 0q-4 5 0 7a5 5 0 1 0-1-7m-94 3q-5 9 5 10 4 0 5-4c2-6-7-11-10-6m70 1q-3 4 0 6 7 2 8-4-2-6-8-2m164-1c-5 3-2 10 4 8q5-3 1-8zm-379 2q-5 4-2 8 5 6 10 1c5-5-3-13-8-9m294 2q-3 5 4 6 3 1 4-2c3-6-5-10-8-4m-180 0c-4 5 4 13 9 9q5-3 0-8-5-3-9-1m70 2q-3 3-1 4 4 5 8 1 3-3 0-6-3-5-7 1m216-2a4 4 0 1 0 4 1q-2-3-4-1m62 0q-2 3 1 6 5 3 6-4c0-2-5-4-7-2m-446 2q-4 6 3 7 4 0 4-3c2-5-4-8-7-4m477-1a4 4 0 1 0 6 6 4 4 0 0 0-6-6m-434 2q-2 5 1 8 8 1 7-7-3-3-8-1m-87 1a5 5 0 1 0 3 10 5 5 0 0 0-3-10m470 0q-3 3 2 6 5 2 5-4-3-5-7-2m-180 3a6 6 0 1 0 10 0c-2-3-9-3-10 0m58 0a6 6 0 1 0 8 9 6 6 0 0 0-8-9m-470 0q-4 6 4 8 3 0 3-4-1-8-7-4m60 1c-5 1-4 9 1 11 6 2 10-4 6-9q-3-4-7-2m443 0-2 2c-2 4 4 7 7 3q2-6-5-5m-576 1q-6 4-2 9 5 4 9-2c2-4-2-9-7-7m172 1c-3 6 5 9 9 4v-4q-6-4-9 0m138 1q-4 7 6 8c3 0 5-7 3-10q-6-3-9 2m-258 0c-5 4-3 10 4 10q9-1 5-9-4-5-9-1m37 3 1 4a4 4 0 1 0 0-4m333-2v6a4 4 0 1 0 0-6m174 0-1 3q-1 4 4 3 7-1 0-6zm107 0c-5 3-5 11 1 12 6 0 11-8 8-11q-4-3-9-1m-679 3q-3 2 0 6 2 4 6 0c5-5-2-11-6-6m322 0q-5 7 4 9 8-1 4-9-4-4-8 0m-86 3q-4 5 1 8a6 6 0 1 0-1-8m-52 3q-4 5 1 9a5 5 0 1 0-1-9m178 1q-6 2-3 8a5 5 0 1 0 3-8m113 0q-4 5 2 8a5 5 0 1 0-2-8m-386 0a5 5 0 1 0 7 7 5 5 0 0 0-7-7m178 1c-4 4 1 10 6 7q5-5-1-8-3-2-5 1m148-1q-4 5 0 8 6 1 6-4-1-7-6-4m21 0-3 3a5 5 0 1 0 3-3m203 3q-5 5 1 8t6-5q1-3-2-3zm-433 2a6 6 0 1 0 8 1q-4-6-8-1m295 0a5 5 0 1 0 6 0q-3-3-6 0m24 0q-2 7 4 8c5 0 8-6 5-9-2-2-8-1-9 1m52 0a4 4 0 1 0 7 0c0-3-7-3-7 0m117 1c-4 4 1 9 6 7q6-2 1-8-4-5-7 1m-396 0c-2 1-3 7-1 9a6 6 0 1 0 1-9m39-1q-3 5 1 8 4 1 7-2c3-4-5-9-8-6m49 2c-3 2-1 8 3 8q3-1 5-6-1-3-5-4zm164 1c-4 2-4 8 1 9q5-1 6-5-2-5-7-4m108 0c-4 1-5 7-2 10 4 3 13-4 9-8q-3-3-7-2m-689 2c-5 7 3 15 9 9q4-5 0-8t-9-1m63 0q-3 5 1 8 6 2 8-3c0-5-6-8-9-5m78 1a5 5 0 1 0 9 0q-4-4-9 0m-107 2c-3 2-1 8 3 8q3-1 4-6l-4-4zm55 1q-2 6 4 7 6-3 4-7-4-4-8 0m395 0q-5 8 4 8l4-2c3-7-5-11-8-6m-306 0q-5 5-2 8c5 3 12-3 7-7q-2-3-5-1m473 4q-2 2 1 4a4 4 0 1 0-1-4m58-1a6 6 0 1 0 8 8 6 6 0 0 0-8-8m-427 2q-2 7 4 8c5 0 8-6 5-9-2-2-9-1-9 1m-172 3q-4 6 0 8a6 6 0 1 0 0-8m89-1q-2 3-1 7a5 5 0 1 0 1-7m164 1c-4 4 1 10 6 7q4-3 0-7-3-4-6 0m149 0c-4 4-1 11 5 11l6-2c4-7-5-15-11-9m30 0q-3 2-1 4 4 6 8 2 3-3 0-5-3-6-7-1m73 0q-3 3 0 6c4 4 12-1 9-5q-4-5-9-1m-154 1q-4 6 4 7a5 5 0 1 0-4-7m105 0q-4 5 0 7 4 3 7 0c5-5-2-12-7-7m-516 4q-4 4 0 7a5 5 0 1 0 0-7m194 1-2 5 4 6c6 0 9-7 6-11q-4-4-8 0m143-1a6 6 0 1 0 7 9 6 6 0 0 0-7-9m246 1q-5 6 4 8 7-2 2-8-2-3-6 0m40 0c-5 4-3 10 3 10q5-1 6-6-1-5-6-6zm-660 1q-4 5 2 7 4 1 5-2c3-6-4-9-7-5m294 0q-7 5 2 10c6 4 12-4 7-10q-5-5-9 0m35 0q-3 3-1 6 5 2 8-2c1-4-5-7-7-4m84 0q-5 3-2 7 5 5 8-1c3-4-2-9-6-6m-300 2q-2 5 1 8a5 5 0 1 0-1-8m25-1q-3 6 4 8 5 1 5-5 0-4-4-4zm442 1-2 2 2 3q4 4 6 1 3-4-1-7-2-2-5 1m145-1a5 5 0 1 0 9 5c1-4-6-8-9-5m-519 1-1 4a4 4 0 1 0 1-4m-137 1a6 6 0 1 0 7 0zm387 1v7c4 3 10-1 8-6q-3-3-8-1m223 0c-4 3 0 10 4 7q4-3 1-7zm-662 3q-1 6 3 8 5-1 6-6c0-4-7-5-9-2m236 0c-3 5 3 10 7 5a4 4 0 1 0-7-5m287 0a6 6 0 1 0 8 8 6 6 0 0 0-8-8m162 1q-4 3 0 8c5 5 12-2 7-7q-3-3-7-1m-382 3q-4 5 0 9 3 3 7-1c5-6-1-13-7-8m153-1c-3 2-1 8 3 8q4-1 5-5-2-5-8-3m-85 1a5 5 0 1 0 6 1q-3-3-6-1m132 0q-5 5 0 9 7 3 7-4 0-8-7-5m-364 3q-4 3 0 8c5 4 12-4 7-8q-3-3-7 0m441-1a5 5 0 1 0 6 1q-3-3-6-1m-416 2-1 3q2 6 6 1c2-3-3-7-5-4m-187 2-3 3q0 2-3 3a3 3 0 1 0 4 5l4-2q4-1 5-5-2-4-5-5zm739 1a5 5 0 1 0 8 2q1-4-3-4zm-668 0c-3 2-3 8 0 9a5 5 0 1 0 0-9m291 0q-2 3 0 6a4 4 0 1 0 0-6m280 2q-2 4 1 6 7 3 7-4-2-7-8-2m26 0q-4 4 2 7 10-1 4-7-4-3-6 0m-243 1q-4 5 0 8a6 6 0 1 0 4-10zm-330 1c-3 6 3 12 7 7q5-3 1-7t-8 0m-55 3a6 6 0 1 0 8 1q-3-5-8-1m211 1a4 4 0 1 0 6-2q-4-3-6 2m315-2q-4 3 0 7a4 4 0 1 0 0-7m119 0c-3 4 0 11 6 11a6 6 0 1 0-6-11m-549 3c-3 4 1 11 6 10a5 5 0 1 0-6-10m66 1c-4 3-1 10 4 10 6 0 8-6 3-10q-3-3-7 0m81 0a5 5 0 1 0 7 3q-1-8-7-3m342-1q-3 8 6 6 4-2 0-5-3-3-6-1m-40 3v5a4 4 0 1 0 0-4m-57-1a5 5 0 1 0 6 1q-4-3-6-1m-299 2q-5 2-1 5a4 4 0 1 0 1-5m267 0q-3 2 0 5c3 4 9 0 6-5q-2-3-6 0m-119 2q-2 5 2 8c5 1 10-4 7-8q-5-4-9 0m351 0c-4 4 1 10 6 8q5-3 2-7-4-5-8-1m-716 3q-4 3 0 8 3 3 8 1c5-6-2-14-8-9m464-1q-4 3 0 9a5 5 0 1 0 0-9m83 1q-5 6 2 7 4 0 4-3 0-4-4-5zm107 2a5 5 0 1 0 5-1q-2-2-5 1m43 0a6 6 0 1 0 8 9 6 6 0 0 0-8-9m-399 1q-4 3 0 7a5 5 0 1 0 0-7m94 0q-3 1-1 5a5 5 0 1 0 1-5m30 1a4 4 0 1 0 5 7 4 4 0 0 0-5-7m-86 2q-4 3 0 7c2 4 10 1 10-4q-1-4-6-5zm-298 1q-3 5 2 8 8 2 6-7-5-4-8-1m553 1q-5 7 4 8 6-2 2-8-2-4-6 0m-20 0q-6 5 1 8 3 1 4-2 4-8-5-6m-501 2c-4 3-1 9 3 9q6-1 7-6c0-5-7-7-10-3m172-1q-4 4 0 8c5 3 9-4 5-7q-3-3-5-1m197 1a4 4 0 1 0 7 5 4 4 0 0 0-7-5m-343 1a5 5 0 1 0 8 6l2-3-2-3q-5-4-8 0m515 0c-3 5 3 9 6 5q3-3 0-5-3-4-6 0m-477 3a5 5 0 1 0 8 4 5 5 0 0 0-8-4m354-1q-4 4 0 6a5 5 0 1 0 0-6M7 206q-4 6 2 8c5 2 8-6 4-9q-3-2-6 1m695-1-1 4a5 5 0 1 0 1-4m-393 1q-6 3-2 8 3 4 7 0 4-8-5-8m248 3q-3 3-1 8a6 6 0 1 0 1-9m-368 1q-5 3 1 9c5 3 10-3 6-8q-2-3-7-1m478 2q-1 6 4 7 4-1 5-5c0-4-7-6-9-2m96-1c-5 2-5 9 0 11q6 0 6-5-1-8-6-6m-354 4q-3 3-1 5a5 5 0 1 0 1-5m25 0q-3 5 0 7c3 3 10 1 10-4s-7-7-10-3m-50 0q-2 5 2 8a4 4 0 1 0-2-8m123 0c-6 3-4 11 2 11 2 0 7-5 7-7s-6-5-9-4m82 1q-3 5 0 6c5 2 10-3 5-7q-2-2-5 1m132 0c-4 4-1 10 5 10q5 0 5-6c0-5-6-8-10-4m-510 1q-2 4 1 7a5 5 0 1 0-1-7m272-1q-5 2-3 8c2 3 8 2 10-1q2-8-7-7m-249 2v5q5 5 9 0c3-6-4-10-9-5m17 0c-5 3 0 10 5 7a4 4 0 1 0-5-7m98 0q-4 4 0 7 6 3 8-2c3-5-4-10-8-5m271 1q-3 3-1 6 5 5 9 1 3-3 0-6-3-6-8-1m-585 0c-3 2-2 9 2 9 5 0 6-6 3-8q-3-3-5-1m47 0q-3 6 4 7 3 0 4-3c1-4-5-7-8-4m450 2q-3 7 4 8 6 1 6-5c0-5-7-7-10-3m153 0q-5 6 3 8 5 0 5-4-2-9-8-4m-539 1c-5 4 0 11 6 8a5 5 0 1 0-6-8m-92 1a5 5 0 1 0 10 3c0-4-8-7-10-3m60 0q-3 1-1 4 3 4 7 1c5-4-1-9-6-5m202 3q-3 4 2 7 6 3 7-5-3-7-9-2m-39 0q-3 4-1 8 4 3 7-1t0-6q-4-3-6-1m369 0q-3 4-1 8c3 2 10 0 10-3q-1-8-9-5M8 228a4 4 0 1 0 4-1q-3-2-4 1m729 1q-2 5 4 5 4 0 4-3c1-5-5-7-8-2m-33 1c-3 2-1 9 3 9q5-1 6-5c0-5-6-8-9-4m-509 1q-2 8 5 6 3-2 2-6c-1-3-7-3-7 0m261 1q-4 4 0 7c3 4 9 1 9-4q-2-10-9-3m-53 0a5 5 0 1 0 7 8 5 5 0 0 0-7-8m183-1q-5 3-1 8 6 5 8-3 0-6-7-5m-81 2q-4 4 0 6a4 4 0 1 0 0-6m55 0q-3 4-1 7a6 6 0 1 0 1-7m-337 1q-3 3 0 5a5 5 0 1 0 0-5m123 0a4 4 0 1 0 7 5 4 4 0 0 0-7-5m266 0q-5 6 1 8c7 3 12-5 5-9q-3-2-6 1m-319 1a5 5 0 1 0 8 7 5 5 0 0 0-8-7m187 2q-5 8 4 8 7 0 5-7-4-5-9-1m-105 1a3 3 0 0 0-1 5l2 1c4 2 8-3 4-6q-3-3-5 0m153 1q-2 7 4 8a5 5 0 1 0-4-8m140 1q-5 6 2 8 10 0 4-7-3-3-6-1m-340 1a6 6 0 1 0 8 5c0-2-5-6-6-6zm-311 2q-4 5 1 8 5 2 7-4-2-8-8-4m403 0q-4 5 0 9a6 6 0 1 0 0-9m-323 0c-4 2-2 10 3 10s7-8 3-10zm-25 2q-3 4 2 7 6 2 7-4c0-5-7-7-9-3m570 0q-5 6 3 8c5 0 7-6 3-8q-4-3-6 0m-437 1q-3 3-1 4a5 5 0 1 0 1-4m31 0c-4 2-2 8 3 8q8-1 3-8-2-3-6 0m447 0q-6 5 2 8 9 0 4-7-2-3-6-1m-561 2c-4 3 0 11 4 11 2 0 7-5 7-7 0-5-8-8-11-4m480 0c-4 5 2 9 6 5q3-2 1-4-3-6-7-1m154 0c-3 4 3 12 9 9q5-4 2-9-6-4-11 0m-719 1c-4 4 1 9 5 5q4-3 0-6-2-2-5 1m403 1q-3 2-1 5 5 6 9 1 3-3 0-6-4-4-8 0m27-1a5 5 0 1 0 8 4q-2-6-8-4m-287 2q-4 5 0 8 5 5 9 1c6-7-2-15-9-9m549 0a5 5 0 1 0 6 8c5-5-1-12-6-8m-584 1q-3 4 0 5c4 3 8-2 5-6q-3-2-5 1m560-1a5 5 0 1 0 6 8 5 5 0 0 0-6-8m-413 3a5 5 0 1 0 7 1q-3-5-7-1m18 0q-7 5-2 9a6 6 0 0 0 9-4l-2-4q-3-3-5-1m88 1q-4 5 1 8c5 3 9-3 5-8q-1-4-6 0m151 0c-5 4-2 12 4 10 6-1 8-7 3-10q-3-3-7 0m-294 1q-3 6 2 10a6 6 0 1 0-2-10m90 1q-4 5 1 8c6 3 10-5 4-8q-3-3-5 0m140-1c-3 4 1 9 6 6q5-4-2-7zm21 1q-4 3 0 8a6 6 0 1 0 0-8m63 1q-7 7 4 9c6 0 8-6 4-10q-4-5-8 1m56-2a5 5 0 1 0 6 7 5 5 0 0 0-6-7m-212 6c-4 2-4 9 1 10a5 5 0 1 0-1-10m-345 3q-4 4 0 7c4 3 10 1 10-3 0-5-8-8-10-4m307-1c-7 4-4 14 3 11q6-2 4-8-2-5-7-3m213 0q-2 6 5 8l4-4c0-4-6-6-9-4m-64 2c-5 5 1 11 7 8 4-2 1-10-3-10zm138 0q-4 6 3 7 6-1 2-7-2-3-5 0m-537 3q-3 3 0 4a4 4 0 1 0 0-4m26 0c-2 1-3 7-1 9h8q3-4-1-9-3-3-6 0m27-1c-3 4 1 10 5 7 3-1 2-7-1-8zm93 1c-2 1-3 7-1 9q6 3 9-2c3-5-3-10-8-7m408-1a5 5 0 1 0 8 8 5 5 0 0 0-8-8m-245 3q-4 4 0 7c5 2 10-3 6-7q-3-3-6 0m-412 0c-3 2-3 8 1 9q2 2 5-1 4-3 0-7-4-3-6-1m294 1c-5 6 1 12 7 7q4-3 0-7-3-4-7 0m140 1c-4 2-2 9 3 9q5-1 6-6-1-7-9-3m-259 0c-5 4-1 9 4 7q5-1 2-6-2-3-6-1m36 2q-3 5 1 7c4 1 7-6 3-8q-4-2-4 1m408 0a5 5 0 1 0 7 8 5 5 0 0 0-7-8m-587 1a5 5 0 1 0 6 8 5 5 0 0 0-6-8m706-1q-5 2-2 8c2 4 9 3 10-1q-1-8-8-7m-31 2q-3 3 0 6a5 5 0 1 0 0-6m-644 2c-4 4-1 12 4 12q6-1 7-7c0-5-7-9-11-5m27 1q-2 6 3 7 7-3 5-7-5-4-8 0m460 0q-6 5-1 9c6 3 11-6 6-10q-2-2-5 1m130 0q-2 4 1 6a5 5 0 1 0-1-6m-212 3a4 4 0 1 0 6 4 4 4 0 0 0-6-4m109 0q-5 6 4 8 6 1 5-3c1-6-6-9-9-5m-560 1-3 3c-3 5 4 11 9 6s1-11-6-9m514 1c-3 2-1 7 3 7q3-1 4-5c0-4-5-5-7-2m-217 1q-4 5 2 8c6 1 9-5 5-8q-4-3-7 0m285 0q-7 9 3 10 7 0 7-6c0-6-6-8-10-4m-221 0a6 6 0 1 0 4 11 6 6 0 0 0-4-11m106 3q-3 3-1 8c3 3 9 1 9-3q-2-8-8-5m-262 1c-2 1-1 7 1 7q7 1 5-6c0-2-5-3-6-1m19 1a4 4 0 1 0 8 3 4 4 0 0 0-8-3m203 1q-6 4-1 7a5 5 0 1 0 1-7m200 0q-3 7 5 7 9 0 5-8c-1-3-9-3-10 1m20 0q-2 6 4 7a5 5 0 1 0-4-7M1 291a4 4 0 1 0 6 6 4 4 0 0 0-6-6m285 1q-6 5 0 8a5 5 0 1 0 0-8m245 0q-3 7 5 7 3 0 4-3c2-5-5-9-9-4m-217 0c-4 1-4 7 0 8a5 5 0 1 0 0-8m-142 3c-2 4 3 8 7 4q5-4 0-6-5-3-7 2m32-2c-7 4-5 11 2 11q6-1 7-6c0-4-6-7-9-5m-65 2a4 4 0 1 0 6 0q-2-4-6 0m280 3q-3 3-1 8c3 2 10-1 10-5s-6-6-9-3m19 1c-5 4-2 11 5 9a6 6 0 1 0-5-9m45 0a5 5 0 1 0 8 3q-2-8-8-3m-376 0v7a5 5 0 1 0 0-7m469 2c-5 4 0 9 6 7q6-3 0-8-3-5-6 1m167 0-2 3 2 3c4 5 10 3 10-3s-6-8-10-3m-98 0q-3 4-1 7 8 4 9-4-2-7-8-3m-560 2q-3 4 0 6c4 4 11-2 8-7q-5-3-8 1m146 0q-4 3 0 5a4 4 0 1 0 0-5m366 0q-4 4 0 8c5 4 11-5 6-9q-2-2-6 1m117 0q-4 4 0 7c6 3 11-4 6-7q-3-3-6 0m-651 1c-7 4-6 12 1 12q7-1 8-6c0-2-4-7-5-7zm302 0c-3 3 0 9 4 9 7 0 8-9 1-10zm179 5c-3 1-4 7-2 9 2 1 11-1 11-4 2-4-4-8-9-5m-510 1q-4 3 0 7 6 2 8-3-2-7-8-4m-26 2a5 5 0 1 0 6-1q-2-2-6 1m377 0a6 6 0 1 0 7 0q-3-3-7 0m-237 2q-2 3 4 5 5-1 4-6c-1-2-7-1-8 1m318-1c-5 4-1 11 4 8q5-3 1-7-2-3-5-1m58 0c-3 4 2 10 7 8 4-2 2-9-3-9zm236 2c-3 3 2 11 7 8 2-1 3-7 1-9q-4-2-8 1m-468 1q-4 2 0 7c2 4 10 2 10-3 0-4-6-7-10-4m26 0c-4 3-2 8 3 7q5 0 4-4-1-7-7-3m88 0q-4 5 0 7c6 4 12-3 7-7q-4-4-7 0m201 0q-5 7 4 9 6 1 5-5-2-10-9-4m-164 1c-4 4-2 10 3 10q5-2 6-6c0-5-6-8-9-4m64-1a5 5 0 1 0 7 8 5 5 0 0 0-7-8m124 1q-3 4 0 6c4 4 12 0 9-6-1-3-7-3-9 0m41 0q-1 6 4 7 5-1 5-6c-1-4-7-4-9-1m-107 1q-3 3-1 8a5 5 0 1 0 1-8m-359 3q-3 3 0 6 5 3 8 0c4-6-4-10-8-6m489 0a6 6 0 1 0 7 9 6 6 0 0 0-7-9m-464 2q-4 4 0 8c5 3 10-2 8-7q-4-5-8-1m38 0c-5 6 1 13 7 8q5-4 1-8-3-4-8 0m72 0q-6 4-1 7 3 5 8 0l3-3-3-3q-3-5-7-1m-251 2q-3 2 2 5c4 3 8-2 5-6q-3-2-7 1m85-1q-3 3-1 8 5 3 8-1c2-5-3-10-7-7m552 0q-4 4-1 7 4 5 8-1c3-4-2-9-7-6m-72 3c-5 3-1 10 5 8a5 5 0 1 0-5-8m-20 4q-3 4-1 6c3 4 10 2 10-3q-1-8-9-3m-621 2q-3 3 0 6c2 4 10 1 10-4s-6-6-10-2m133 0q-2 7 6 7a5 5 0 1 0-6-7m-32 0q-4 5 0 6a5 5 0 1 0 0-6m195 2q-4 6 3 7 6-1 2-7-2-3-5 0m-266 1c-2 2-1 7 1 7a4 4 0 1 0-1-7m25 2c-3 5 3 9 7 5q3-4 1-6-5-4-8 1m306 0q-2 6 5 7 7-1 4-8c-1-3-7-2-9 1m373 0c-2 1-1 7 1 7q6 1 7-3-1-6-8-4m-328 2q-4 5 0 8 5 4 8-2l2-3-2-3q-5-4-8 0m27 0c-5 2-3 8 2 8q7-1 3-9-2-2-5 1m73 0q-3 7 4 8 6 0 6-5c0-5-7-7-10-3m-165 0q-3 1-3 4 2 10 8 4c4-4 0-10-5-8m147 0c-2 1-3 7-1 9 6 4 13-3 8-8q-2-3-7-1m178 0c-5 1-3 8 2 8q8-1 4-7-2-3-6-1m-505 2q-5 7 3 9 6 0 6-5c0-5-6-7-9-4m225 0q-3 2-1 5a6 6 0 1 0 1-5m-189 0q-4 3 0 7 7 1 5-5-3-4-5-2m360 1q-3 3-1 5a4 4 0 1 0 1-5m20 0q-3 4 1 7c4 2 9-4 6-8q-3-2-7 1m-106 1q-4 4 0 7a5 5 0 1 0 0-7m217-1-2 4a5 5 0 1 0 2-4m-457 1c-2 1-1 6 1 7q2 3 5 0c6-4 1-10-6-7m-147 3q-4 3-2 6 3 5 8 1 6-4 1-8-3-3-7 1m181-1q-3 4 0 6c4 4 12-1 9-5q-4-5-9-1m52 1q-4 7 4 9 9-1 4-9-3-5-8 0m216-1a5 5 0 1 0 3 10 5 5 0 0 0-3-10m-79 2c-4 2-2 9 3 11q6-1 6-7-2-8-9-4m145 0a6 6 0 1 0 10-1c-2-2-9-1-10 1m-464 4q-6 4-1 7 4 4 8 0 3-4-2-7c-3-2-2-2-5 0m-104 0c-4 2-2 10 3 10q5 0 5-6 0-7-8-4m718 1c-4 2-1 8 4 7h2q1 1 1-3 0-9-7-4m-385 2q-3 3-1 6 4 3 7-1 2-8-6-5m-151 2q-4 2 0 6 5 3 6-3-1-8-6-3m435-1c-3 2-1 9 2 9q5-1 6-5-2-6-8-4m-231 3q-5 6 3 8a5 5 0 1 0-3-8m292 0c-4 3-1 11 4 11 2 0 6-5 6-7q-1-9-10-4m-474 1c-3 5 2 10 7 6q3-2 1-6-4-4-8 0m68 0q-4 6 3 8a5 5 0 1 0-3-8m-300 1q-1 7 5 5a3 3 0 1 0-5-5m171-1a5 5 0 1 0 7 6 5 5 0 0 0-7-6m452 2a5 5 0 1 0 5 8 5 5 0 0 0-5-8m-229 1a6 6 0 1 0 8 8 6 6 0 0 0-8-8m98 1q-3 4-1 8 5 3 9-1c4-5-4-12-8-7m-221 0q-3 6 4 7 5-1 4-6-3-3-8-1m62 1a6 6 0 1 0 9 7 6 6 0 0 0-9-7m227 0q-4 4 1 7a6 6 0 1 0-1-7m-472 1c-6 5-1 12 6 8q5-5-1-8-2-3-5 0m578 0a5 5 0 1 0 8 5 5 5 0 0 0-8-5m-612 2q-2 7 4 8 8-1 4-8-4-4-8 0m536-1q-6 2-7 6c-1 7 9 10 12 4 2-5-1-12-5-10m-448 2q-3 11 8 8 5-3 1-7-4-6-9-1m314 0-2 2c-2 4 5 8 9 5 4-4-1-10-7-7m-21 2q-3 3 0 5a4 4 0 1 0 0-5m79 0c-4 3-2 9 3 9q6-1 7-5c0-5-7-8-10-4m26 0a6 6 0 1 0 6 9c5-5-1-13-6-9m-165 2q-3 2 0 6c2 3 9 1 9-3s-6-6-9-3m98 1q-3 5 3 9c3 2 9-1 9-5 0-6-9-8-12-4m261-1a6 6 0 1 0 10 4c0-4-7-7-10-4m-488 1q-5 6 3 8 7 0 4-7-3-3-7-1m105 0q-4 4 0 9c4 3 11-4 7-9zm-166 2c-4 2-3 11 2 11s8-6 3-10q-3-3-5-1m19 1q-3 5 2 8a6 6 0 1 0-2-8m431 0c-4 3-2 10 3 10a5 5 0 1 0-3-10m56 1q-4 4 1 7a5 5 0 1 0-1-7m-271 1q-4 3-1 7c4 4 11-2 8-7q-2-3-7 0m-310 0c-4 5 3 11 7 8q4-4 0-7-3-3-7-1m-100 3a4 4 0 1 0 7 6 4 4 0 0 0-7-6m381 0q-3 2-2 5a5 5 0 1 0 2-5m-316 2q-6 5 1 8a4 4 0 1 0-1-8m218 0a5 5 0 1 0 7 1c-1-2-6-2-7-1m-250 2q-5 6 3 8 5 0 5-5-2-8-8-3m563 2q-3 4 0 6 7 6 8-4-2-7-8-2m-511 1a5 5 0 1 0 6 8 5 5 0 0 0-6-8m542 2a5 5 0 1 0 10 6 5 5 0 0 0-10-6m28 0a5 5 0 1 0 6 8 5 5 0 0 0-6-8m-469 1q-3 4 0 6a4 4 0 1 0 0-6m-63 1q-2 2 1 5c3 4 8 1 7-3q-3-5-8-2m438 1v5q4 6 9 1c3-6-4-11-9-6m165-1a5 5 0 1 0 7 8c4-5-2-10-7-8m-28 2c-4 4-2 10 4 10a6 6 0 1 0-4-10m-445 1a4 4 0 1 0 7 5 4 4 0 0 0-7-5m-34 1q-3 4 0 7c4 5 13 2 11-3-1-6-8-8-11-4m220-1a5 5 0 1 0 6 8 5 5 0 0 0-6-8m38 1c-3 3-1 10 3 10q4-1 6-7c0-4-6-6-9-3m-422 0q-5 5-2 8 4 5 7 0c4-4 0-12-5-8m475 3q-5 6 3 8l4-1 1-4q-2-8-8-3m-210 0c-3 3-1 10 4 10q5 0 5-6 0-5-5-5zm-24 2q-5 4 0 7 4 4 7 0c5-5-1-11-7-7m108-1a6 6 0 0 0 7 8c5-4-1-11-7-8m51 1a5 5 0 1 0 9 4q-1-9-9-4m-102 1q-2 7 3 8 8-2 6-8c-2-3-8-3-9 0m319 1q-6 4-2 10 9 6 11-4-1-9-9-6m-663 1c-4 2-4 8 1 9q5 1 5-4 0-7-6-5m600 2q-3 5 4 6 3 1 4-2 0-9-8-4m-510 0a5 5 0 1 0 5 8 5 5 0 0 0-5-8m91 2q-3 3 0 5c4 4 9-1 5-5q-3-4-5 0m389-1q-6 5 0 9 4 3 7-1c3-4-3-10-7-8m-33 1c-5 3-3 10 3 10 4 0 7-8 3-10zm99 1c-4 3-1 9 4 9a5 5 0 1 0-4-9m-488 0a5 5 0 1 0 6 7q2-8-6-7m353 1c-5 7 3 13 9 7q3-3 0-8c-2-2-8-1-9 1m-91 1a5 5 0 1 0 6 8 5 5 0 0 0-6-8M1 413q-3 6 2 9 7 0 5-7-4-5-7-2m402 1q-3 3 0 6a5 5 0 1 0 0-6m-111 1q-5 8 4 8 6-3 2-8-3-5-6 0m-192 1q-4 6 3 8l5-5c0-4-6-6-8-3m160 1q-5 5 1 9a6 6 0 1 0-1-9m-198 0q-3 6 4 8a4 4 0 1 0 0-9zm98 2q-3 2 0 6a6 6 0 1 0 1-7m351 0q-4 6 0 8 9 5 10-5c0-5-7-7-10-3m-150 0c-5 1-3 10 2 10a5 5 0 1 0-2-10m392 0c-5 2-3 9 3 10q10-1 4-9-1-3-7-1m-132 1q-4 6 3 8 4-1 6-5c0-3-6-5-9-3m89 1c-4 2-3 10 1 10 6 0 10-6 6-9q-3-3-7-1m-582 3q-3 3-1 6a4 4 0 1 0 1-6m-89 3q-5 7 4 7 6-3 2-7-3-4-6 0m197-1-3 4c-2 6 5 9 9 5 5-5-1-13-6-9m74 0a4 4 0 1 0 7 6 4 4 0 0 0-7-6m423 1a5 5 0 1 0 6-1q-2-2-6 1m-403 0q-4 4 0 8 3 3 5 0c6-5 1-12-5-8m-142 1a6 6 0 1 0 10 4q0-5-5-5zm492 2v5c3 5 11 3 11-2 0-6-8-8-11-3m-260-1q-3 6 2 9 7 0 7-5c0-4-6-7-9-4m74 1c-5 4-3 10 3 10 7 0 9-7 3-10-4-2-3-2-6 0m38 1q-4 3 0 7a5 5 0 1 0 0-7m26 0c-2 1-1 6 1 7 5 2 10-3 7-7zm-488 3q-4 4 0 8c4 4 11 1 11-4s-7-8-11-4m-63 1q-5 6 1 8a5 5 0 1 0-1-8m262 1q-5 2-2 7 4 6 8 1 6-4 1-8-3-3-7 0m-104 1q-4 4 0 7 6 5 8-3c2-5-4-8-8-4m215 1c-4 4 0 10 5 7q4-2 1-7-2-4-6 0m77 0a5 5 0 1 0 7 7q2-10-7-7m-364 1c-4 3-2 10 4 10q7 0 7-5-2-10-11-5m518 0q-6 5 0 10 4 5 7 0a6 6 0 1 0-7-10m-317 2a5 5 0 1 0 7 7q5-4 0-7-3-4-7 0m364 0c-3 4-1 10 4 10s7-7 3-10q-3-4-7 0m64-1-4 7c0 4 8 6 12 3a4 4 0 0 0 0-7q-2-5-8-3m-288 2q-4 4 0 7 3 4 7 0c4-4-3-11-7-7m148-1q-5 6 1 8 9 1 6-7-3-3-7-1m54 1q-4 3 0 5a5 5 0 1 0 0-5m56 0a6 6 0 1 0 9 0q-5-3-9 0m61 0c-5 3-1 10 5 7q6-4 0-8c-3-1-2-1-5 1m-389 1a5 5 0 1 0 7 8 5 5 0 0 0-7-8m-234 1q-4 4 1 7 3 4 6 2a6 6 0 1 0-7-9m351 0q-4 6 2 8t7-3c4-5-4-10-9-5m-83 2q-3 3-1 8 4 3 7-1t0-7q-3-4-6 0m-190 4q-5 4 2 7 6 1 5-6-2-6-7-1m136-1q-3 4 1 7c4 2 9-4 6-8q-3-3-7 1m178 0a6 6 0 1 0 8 8 6 6 0 0 0-8-8m-502 1q-3 5 0 8c6 4 12-4 7-8q-3-4-7 0m483-1q-3 6 4 8 4-1 3-7-3-3-7-1m-187 1q-2 1-2 4a4 4 0 1 0 2-4m-257 1c-4 2-4 9-1 10q6 3 9-2 1-10-8-8m203 0a5 5 0 1 0 2 10 5 5 0 0 0-2-10m-40 5q-3 4 0 6c6 6 14-2 9-7q-4-5-9 1m190-2a6 6 0 0 0 0 8 5 5 0 1 0 0-8m-296 3q-3 4-1 8 3 3 8-1c4-4-2-10-7-7m124 1q-2 3 2 6c4 2 9-3 6-7-2-2-8-1-8 1m44 0q-3 5-1 9a6 6 0 1 0 1-9m450 0q-4 4 0 8a5 5 0 1 0 0-8m-553 0a5 5 0 1 0 7 7 5 5 0 0 0-7-7m295 2c-3 5 4 10 7 5q3-4 0-6-4-4-7 1m235-1q-4 4 0 7a5 5 0 1 0 0-7m-553 2q-5 6 3 8a5 5 0 1 0-3-8m294 0v5a5 5 0 1 0 0-5m118 0a7 7 0 0 0 9 9c6-6-2-14-9-9m19-1a4 4 0 1 0 7 1c-1-2-6-3-7-1m78 4q-4 6 5 8c5 0 8-6 4-9q-5-4-9 1m-528 0q-4 4 0 7c5 3 10-4 5-8q-2-2-5 1m218 0q-6 3 0 8l3 2 3-2q6-3 1-8-4-3-7 0m27-1q-2 1-2 5 1 6 8 4c5-4 0-12-6-9m49 1c-5 1-3 10 3 10l5-5q-2-5-5-6zm255 0q-3 3-1 8c3 4 10 1 10-3q-1-7-9-5m-67 2q-4 3 0 8a6 6 0 0 0 10-2q3-1-1-5-4-6-9-1m-597 3q-3 2 0 4c3 4 8 1 6-4q-2-4-6 0m66-1c-6 2-5 10 2 10 6 0 9-6 3-9q-3-3-5-1m419 0c-3 3 0 9 4 9q4-1 5-5c0-4-6-7-9-4m25 2a6 6 0 1 0 9 7 6 6 0 0 0-9-7M5 471q-4 5 0 8 5 3 8-4-2-9-8-4m324 0c-5 5 4 13 9 8q5-3 0-7-5-5-9-1m-276 1-1 4c1 4 9 4 10 0 1-5-5-8-9-4m593 0q-4 4 1 7c5 0 8-5 4-7q-2-3-5 0m-386 1a5 5 0 1 0 8 3q-2-7-8-3m-54 1q-5 3 1 8c6 4 12-3 7-8q-4-4-8 0m-89 1q-4 4 1 8 6 3 7-4-1-9-8-4m364 1v7a5 5 0 1 0 0-7m-253 2q-3 2-1 5 6 5 8-2-1-7-7-3m72 0q-4 4 0 8 6 3 8-2l2-3-2-2q-4-5-8-1m71 0q-4 6 2 7a4 4 0 1 0-2-7m-197 2c-3 5 3 10 7 6q5-3 2-7c-2-2-8-1-9 1m277 0a5 5 0 1 0 8 0q-4-4-8 0m47 1q-5 3 0 6a6 6 0 1 0 0-6m99-1c-2 1-3 8-1 10q5 3 9-1 5-3 0-7-3-4-8-2m-202 4q-4 3 0 7 6 4 7-4-1-7-7-3m293 0v6c4 3 9-1 7-5-1-2-6-3-7-1m-437 2q-3 3-1 5c3 4 9 3 9-2q-1-8-8-3m177 0q-3 4 2 7a5 5 0 1 0-2-7m143 0a5 5 0 1 0 6 0q-2-3-6 0m-414 1a5 5 0 1 0 4 7c4-4 1-9-4-7m-18 2q-5 6 3 8 8-2 3-8-3-3-6 0m-64 1a6 6 0 1 0 7 0q-3-4-7 0m248 1c-3 5 2 10 8 7q5-5-1-9-4-3-7 2m417-2c-6 4-3 11 4 11q4-2 6-5c0-4-7-8-10-6m-721 2c-3 2-2 8 1 9q6 1 8-5c1-5-6-8-9-4m258 0q0 6 4 5 5-1 4-6-5-2-8 1m129 1q-4 7 5 8 7-1 3-8-5-5-8 0m360 0q-4 4 1 8 3 2 2-4 0-9-3-4m-132 0c-6 3-4 13 3 13 2 0 7-5 7-7 0-4-6-8-10-6m-94 2a6 6 0 1 0 10 5l-7-7zm-305 0q-2 6 3 7 5-1 2-6-2-3-5-1m427 1c-5 5 1 11 6 6q5-2 0-6-4-3-6 0m47 1a5 5 0 1 0 9 6 5 5 0 0 0-9-6m-520 0q-4 3 0 6t7 0c5-5-1-11-7-6m-96 2q-4 3 0 5a4 4 0 1 0 0-5m378 0q-3 3 0 5 3 4 6-1c3-4-3-8-6-4m49-1a5 5 0 1 0 5 9 5 5 0 0 0-5-9m-402 2a5 5 0 1 0 7 6 5 5 0 0 0-7-6m462 1c-6 6 2 14 8 8q5-3 0-7-5-5-8-1m-366 3q-4 5 2 8 4 2 7-2c3-5-6-10-9-6m127-1a5 5 0 1 0 5 8 5 5 0 0 0-5-8m107 2q-3 3 0 5a5 5 0 1 0 0-5m155-1q-6 8 6 9 5 1 6-2c3-7-7-12-12-7m-329 1q-2 2-2 6-1 3 5 2 7 1 5-5a6 6 0 0 0-8-3m91 1-1 5c0 3 10 3 11-1 0-4-7-7-10-4m26 1q-5 5 2 6 8 0 3-5-2-3-5-1m102 1q-6 5 4 5 9 1 4-5-2-4-8 0m-194 0q-5 6 4 5 6 1 5-2c0-4-6-6-9-3m-51 1q-5 4 4 4 6 1 4-2-4-5-8-2"
        mask="url(#16282281824-posters-1720553917958-horizontal-mask)" itemprop="light" fill-opacity="0.90"
        fill-rule="evenodd" stroke="none" fill="url(#16282281824-posters-1720553917958-vertical-light)"></path>
      <!---->
      <path id="16282281824-posters-1720553917958-regular"
        d="M28 2q2 8 9 4 6-5-3-6-7 0-6 2m40 1q-3 7 5 8 4 0 4-3c3-7-5-11-9-5m153-1c-1 1 3 6 5 6q5 0 5-5 1-4-5-3-5 0-5 2m54 1a4 4 0 1 0 7 2 4 4 0 0 0-7-2m23-1c0 6 7 7 10 2q2-4-5-4-6 0-5 2m66 1q-2 5 4 5 3 0 4-3c1-5-5-7-8-2m111-1c-2 4 5 8 8 4q3-6-4-6-4 0-4 2m83-1c0 4 7 5 9 2q3-4-4-3zM197 3a4 4 0 1 0 4 6 4 4 0 0 0-4-6m342 1c-4 3 0 8 4 5q5-3 0-6-2-2-4 1m99 0q-4 5 3 6a4 4 0 1 0-3-6m75 1q-4 5 0 7c5 2 10-5 5-8q-4-2-5 1M504 6q-2 3 1 5 7 2 6-5c-1-3-6-3-7 0M128 9q-4 4 0 7c5 3 10-3 7-7q-4-3-7 0m562 0q-5 6 3 7 5 0 5-5-1-3-5-4zm-439 1q-4 2 0 6c4 4 10 0 7-5q-3-5-7-1m-85 1q-3 6 2 6 8-1 3-7-3-2-5 1m-20 1q-3 2 0 6 6 4 8-2-1-9-8-4m251 0q-3 3-1 8h8c3-3 0-10-4-10zm30 0a5 5 0 1 0 6 7 5 5 0 0 0-6-7m36 0q-4 4 0 7 8 5 9-3-1-8-9-4m-359 0q-2 6 3 7 3-1 4-5c0-3-5-4-7-2m471 1a4 4 0 1 0 6 6 4 4 0 0 0-6-6m-235 2q-5 6 1 9a6 6 0 1 0-1-9m265 1q-2 6 4 6 5-1 3-6-4-4-7 0m-288 3q-4 3 0 6c4 4 11-3 7-7q-3-3-7 1m354 1q-3 2-1 4c2 3 8 1 7-3q-2-4-6-1M50 21q-4 3 0 5c5 2 8-4 4-6q-3-2-4 1m577 0a5 5 0 1 0 7 6 5 5 0 0 0-7-6m-107 4q-3 7 4 8a5 5 0 1 0-4-8m217 0q-4 3 0 6c4 4 10-1 7-6q-2-5-7 0m-369 1q-4 4 0 8c4 4 10 1 10-4q-1-10-10-4M27 26a4 4 0 1 0 2 8 4 4 0 0 0-2-8m463 0a4 4 0 1 0 6 6 4 4 0 0 0-6-6M68 28q-4 3 1 7 5 2 6-5c0-4-5-5-7-2m40 0q-5 5 1 8 4 5 8 0 4-4 0-8-5-5-9 0m119 0q-3 6 2 8a5 5 0 1 0-2-8m324 0q-4 6 3 7 6-1 2-7-3-3-5 0m103 0q-4 4 2 6 7-1 3-6-2-3-5 0m-479 1q-4 4 0 7a6 6 0 1 0 0-7m90 0a4 4 0 1 0 6 1q-2-3-6-1m444 1c-4 4 3 11 7 6q4-3 0-6-3-4-7 0m-504 0a4 4 0 1 0 6 6 4 4 0 0 0-6-6m86 1q-3 3 0 6c3 3 9 1 9-3s-6-6-9-3M88 31a5 5 0 1 0 5 9 5 5 0 0 0-5-9m502 3q-3 3 2 6 6-1 5-6zm-141 2q-2 4 1 5c4 5 10-1 7-6q-5-2-8 1m116 0c-4 6 1 11 6 7q7-6-2-8-3-2-4 1m118 0c-5 3 0 10 6 7q4-3 0-7-2-3-6 0m67 0q-4 4 1 7c5 3 9-3 5-7q-4-4-6 0m-401 1q-3 1-1 4c2 4 8 2 6-3q-1-4-5-1m70 0-2 2c0 4 6 5 8 2 3-4-3-8-6-4m121 5c-4 5 2 9 6 5q4-2 0-5-4-4-6 0m-411 0q-5 4-1 7c3 4 10 0 7-4q-2-5-6-3m346 1q-6 3 0 7 6 2 7-4-2-6-7-3m-327 1-2 3q2 4 5 5 5-1 5-5-2-7-8-3m468 2c-3 4 4 8 7 4q3-2 0-5-3-4-7 1m-301 0q-4 4 1 8c4 2 10-5 7-8q-4-3-8 0m321 0q-5 6 3 8a5 5 0 1 0-3-8M58 47q-4 3 0 5 6 1 5-5-2-4-5 0m677-1q-6 5 1 8 5 0 6-4-2-5-7-4M36 48q-2 5 4 6 5-1 3-6-2-3-7 0m664 2q-3 2 0 5 3 4 7-1c3-4-4-8-7-4m-313 0q-2 2 1 6a4 4 0 1 0-1-6m284 3a4 4 0 1 0 8 3 4 4 0 0 0-8-3M5 54q-3 5 2 7a5 5 0 1 0-2-7m207 0q-3 5 1 6c1 1 6-1 6-2 1-6-4-8-7-4m280 0v6c1 4 9 1 9-3 0-3-6-5-9-3M97 55q-3 6 2 7 6-1 4-6-4-3-6-1m89 1c-3 3-1 9 3 9q4-2 6-5c0-5-6-7-9-4m51-1a4 4 0 1 0 7 6 4 4 0 0 0-7-6m191 2q-4 3 0 7c5 3 10-3 6-7q-4-4-6 0m-86 1q-5 4 1 9 2 2 5-1c7-5 1-13-6-8m216 1q-4 5 2 8c4 1 7-5 4-8q-2-3-6 0M75 61q-3 1-1 5 3 7 8 4c5-5-1-14-7-9m638 0q-4 6 3 9 6 0 7-6c0-4-6-7-10-3m-252 1v5q6 7 8-2-1-8-8-3m141 1a5 5 0 1 0 7 8 5 5 0 0 0-7-8m-232 1q-3 5 2 7c5 2 9-4 6-8q-5-2-8 1m-81 1a4 4 0 1 0 5 0q-2-3-5 0m111 0a5 5 0 1 0 9 7 5 5 0 0 0-9-7m-258 0q-4 2 0 6c4 4 8 0 6-4q-1-5-6-2m118 1q-4 5 2 8a5 5 0 1 0-2-8m402 0q-4 3 0 7 4 2 7-3-1-7-7-4m26 2q-1 6 4 6c5-1 5-7 0-8q-3 0-4 2m60 1q-7 4 0 9c3 3 9-3 7-6q-2-4-7-3m-240 2q-4 5 1 8c5 2 10-3 6-8q-4-4-7 0m-64 0c-5 2-3 9 2 9l5-5-5-5zM48 73c-5 3 0 11 5 7a5 5 0 1 0-5-7m274 0-2 3 5 5q4-1 5-6-2-6-8-2m316 0q-1 5 4 6l2-2q3-5-2-6zM24 74a4 4 0 1 0 6 5c4-4-2-10-6-5m142 7q-1 9 8 6 5-5-1-8t-7 2m308-2-3 3a4 4 0 1 0 3-3m148 1q-3 2-1 4c3 4 10 3 10-1q-1-8-9-3m-387 0q-6 3-4 7c3 4 10 1 10-3l-3-5zm469 0q-2 3 1 5 4 1 5-2c2-3-3-5-6-3m-408 2q-2 4 1 6 7 5 8-4c-1-4-7-6-9-2m264 0c-5 2-5 8-1 10q6 0 7-5-1-5-6-5m-459 4c-2 5 4 10 8 6a5 5 0 1 0-8-6m317-1-2 4c0 6 8 7 11 1 3-5-5-10-9-5m306-1a4 4 0 1 0 6 5 4 4 0 0 0-6-5m-345 1c-4 2-1 9 4 8q4-3 1-7-2-3-5-1m148 0c-3 3 0 8 4 7q5-1 3-6-3-3-7-1m145 0a4 4 0 1 0 6 6 4 4 0 0 0-6-6m-464 3q-4 4 1 7a4 4 0 1 0-1-7m445 0c-3 5 4 8 8 4v-4q-5-4-8 0m-306 1q-4 4 0 6c5 2 9-4 6-7q-2-2-6 1m-74 2q-2 4 3 5 5-1 4-5-3-3-7 0m-142 1q-4 4 0 7c5 3 11-3 8-7q-4-4-8 0m-72 1a5 5 0 1 0 8 5c1-6-5-9-8-5m22 0q-1 3 2 5 5 2 5-4c0-4-5-4-7-1m604 0a4 4 0 1 0 5 0q-2-3-5 0M3 94q-3 3-1 4 4 5 8 1c3-6-4-10-7-5m159 2q-1 9 6 5a4 4 0 1 0-6-5m600 0q-2 6 4 6 4 1 3-4c0-5-5-6-7-2M35 96l-1 3a4 4 0 1 0 2-3m449 2c-3 4 1 9 6 6a4 4 0 1 0-6-6m-160-1q-5 3 0 6c3 2 7-2 5-4q-1-3-5-2m66 3c-4 4-1 11 4 10 6-2 6-9 1-11q-3-2-5 1m69 1a4 4 0 1 0 6 6 4 4 0 0 0-6-6m163 1q-2 5 3 6a4 4 0 1 0-3-6m-83 1a4 4 0 1 0 5-1q-3-2-5 1m-295 0q-4 4-1 7c2 4 10 2 10-2 0-5-6-8-9-5m115 1c-3 3 1 10 5 10q7-2 3-8-4-5-8-2m347 1q-2 4 3 5a3 3 0 1 0 0-7zm-445 0a4 4 0 1 0 5 0zm168 1a4 4 0 1 0 6 5 4 4 0 0 0-6-5m214-1q-3 5 3 6 3 0 3-2-1-4-3-5zm-340 2-1 4a4 4 0 1 0 1-4m-87 2q-4 2-3 6c2 5 10 2 10-2q-2-4-5-5zm294 1c-6 0-6 7 0 9q4 2 5-1c4-3 1-9-5-8m54 2q-4 3 0 6c5 5 12-1 8-6q-3-5-8 0m-470 1c-2 1 0 6 2 6q5-1 5-5-3-5-7-1m59 1q-4 4 0 8 5 3 8-2c3-5-4-11-8-6m41-1a4 4 0 1 0 6 6 4 4 0 0 0-6-6m138 1q-4 3 0 6 4 4 8 0c4-5-3-11-8-6m-312 1q-4 3 0 6c2 3 8 1 8-3l-5-5zm53 1c-4 3-1 9 4 9q5-1 6-6c0-4-7-7-10-3m39 0a4 4 0 1 0 4 6 4 4 0 0 0-4-6m334 0c-3 2-2 7 2 7q6-1 3-6-3-3-5-1m280 1c-5 1-6 8-1 10q6 2 8-5t-7-5m-679 1a4 4 0 1 0 4 7 4 4 0 0 0-4-7m321 2-2 3c0 4 7 6 10 3 3-6-4-10-8-6m-85 2q-4 3 0 7a5 5 0 1 0 0-7m-52 4q-4 6 3 8l3-2c4-4-2-11-6-6m-61 1q-4 4 0 7a5 5 0 1 0 0-7m238-1q-6 4-1 9h6c5-4 0-11-5-9m53 1-2 3c0 3 5 5 7 2q3-8-5-5m60-1a5 5 0 1 0 7 6 5 5 0 0 0-7-6m-386 1c-1 2 1 7 3 7q4-1 4-5-3-5-7-2m178 1c-2 5 3 8 7 4q3-5-3-6-3 0-4 2m168-1q-4 6 1 8 2 2 5-1c3-4-2-10-6-7m91 4q-3 4 2 7a5 5 0 1 0-2-7m51 1q0 4 4 4 3 0 3-3c0-4-6-6-7-1m61-2q-2 5 3 7c4 1 7-4 4-7zm-432 2q-3 2-1 6c3 5 10 4 10-2q-1-9-9-4m295 0q-4 4 1 7c5 3 9-4 4-8q-3-2-5 1m194 0q-4 4 0 6c4 3 10-1 7-5q-4-5-7-1m-397 1a5 5 0 1 0 8 7c5-5-2-12-8-7m39-1a4 4 0 1 0 6 6 4 4 0 0 0-6-6m48 2q-1 5 2 5 7 2 5-5c0-3-6-3-7 0m164 1q-3 5 3 7 3 0 4-2c1-5-4-8-7-5m108 1q-3 3-1 7c5 3 11-3 8-7q-4-4-7 0m-687 1q-5 8 4 9a5 5 0 1 0-4-9m141-1q-3 5 2 7 5-1 5-6-3-3-7-1m-79 2c-1 2 1 7 4 7q3-1 5-5c0-4-7-5-9-2m-30 2a4 4 0 1 0 7 1c0-3-5-4-7-1m58 0q-3 3 0 5c4 3 8-2 5-6q-2-2-5 1m394 0q-4 7 3 8c4 0 6-7 2-9q-4-2-5 1m-308 2q-3 6 2 6 6 0 5-5-3-6-7-1m533 1a5 5 0 1 0 6 0q-4-3-6 0m-58 0q-2 4 3 6 5-1 3-5-2-3-6-1m-370 1c-3 4 2 10 7 8q4-3 1-7-3-3-8-1m-171 4q-5 8 2 9 9-1 5-9-3-4-7 0m404-1q-8 4-1 11a6 6 0 1 0 1-11m101 1q-5 7 4 7 6-3 2-7-3-4-6 0m-417 0q-3 6 3 8 5-1 4-7-3-3-7-1m164 0a4 4 0 1 0 6 6 4 4 0 0 0-6-6m99 1q-3 6 2 7c4 0 6-6 3-8q-3-2-5 1m81-1a4 4 0 1 0 5 6 4 4 0 0 0-5-6m24 1a5 5 0 1 0 6 7 5 5 0 0 0-6-7m-517 4q-3 5 2 8 6 2 5-6-3-5-7-2m337 1q-3 3-1 5a5 5 0 1 0 1-5m-142 1c-3 3-1 9 2 9q4 0 6-5c1-5-5-8-8-4m389-1a4 4 0 1 0 5 6c4-3 0-9-5-6m39 1q-6 5 0 8a5 5 0 1 0 0-8m-660 0q-3 5 2 7 6-1 5-6-3-4-7-1m293 2q-3 3 0 6c3 4 13 2 11-3q-3-10-11-3m36-2v6a4 4 0 1 0 0-6m83 1q-3 3 0 5 6 4 7-2-1-7-7-3m-297 0c-4 3-3 9 3 9q8-2 3-8-3-3-6-1m24 1q-3 4 1 6 6 1 7-3-2-7-8-3m586 0q0 8 6 6 4-3 1-6zm-655 1q-4 5 0 9a5 5 0 1 0 0-8m136-1v5q4 1 6-2c2-3-3-5-6-3m251 2q-3 5 2 6c5 0 7-5 3-7q-4-2-5 1m221 0q-2 4 3 6 5-1 3-5-2-3-6-1m-660 1c-3 3 0 9 4 8a4 4 0 1 0-4-8m237 1q-3 6 2 6 6-3 2-7-3-2-4 1m286 0c-4 3-2 9 3 9a5 5 0 1 0-3-9m160 4q-2 2 1 5 6 3 8-3c1-5-7-7-9-2m-379 0a5 5 0 1 0 6 4q0-5-6-4m151 1q-2 3 3 5 4-1 4-6-3-2-7 1m-86 0q-3 5 1 8 6 0 8-4c0-4-6-6-9-4m131 1q-3 5 3 6 5 2 6-3-1-8-9-3m-362 2q-3 3 0 5 6 4 8-2c2-4-5-7-8-3m287 0q-4 3 0 7c2 4 10 1 10-3 0-5-6-8-10-4m154 0c-4 2-2 7 3 7q8-1 3-7-2-3-6 0m-605 5-4 4q-3 2-1 5c2 0 12-5 13-7 1-5-6-7-8-2m365-1q-3 3 1 5 5 2 5-5-2-4-6 0m376 0q-5 6 5 8 3 1 2-5 1-6-3-5zm-668 1q-4 4 0 6a5 5 0 1 0 0-6m355 0a5 5 0 1 0 5 0zm216 1a3 3 0 1 0 7 2 3 3 0 0 0-7-2m26-1a4 4 0 1 0 6 5 4 4 0 0 0-6-5m-571 2q-2 1-2 4 2 7 7 3c4-4 0-11-5-7m589 3q-4 4 0 7c5 5 13-1 8-6q-4-6-8-1m-645 1a5 5 0 1 0 8 5c1-6-5-9-8-5m211-1v4c2 3 7 2 7-2 0-3-5-4-7-2m-114 2c-4 2-2 9 2 9q5 0 5-5-1-7-7-4m64 2a5 5 0 1 0 7 0q-4-3-7 0m81 0q-3 3 0 5c4 4 9-2 6-6q-3-3-6 1m304 1a3 3 0 1 0 4-1q-3-2-4 1m-60 2q-4 6 3 8 5-1 6-5-1-3-6-5zm-298 0q-4 5 1 6t5-4-6-2m267 1a3 3 0 1 0 5 3 3 3 0 0 0-5-3m-118 1q-3 5 3 7 3 1 4-2c2-5-4-8-7-5m350 0a5 5 0 1 0 9 4c0-4-6-6-9-4m-715 3a5 5 0 0 0 6 9c6-4 0-13-6-9m462 0a5 5 0 1 0 8 0zm83 2q-2 4 3 5a3 3 0 1 0 0-7zm108 1q-4 5 3 6 6-1 3-6-3-3-6 0m43 0q-3 2 0 6 5 4 9-1c3-5-5-9-9-5m-399 0a5 5 0 1 0 8 7 5 5 0 0 0-8-7m93 0a4 4 0 1 0 8 2c-1-3-7-4-8-2m31 2q-3 8 5 5 3-4-1-6-3-2-4 1m-86 1a5 5 0 1 0 7 7 5 5 0 0 0-7-7m-296 1a4 4 0 1 0 6 3q-2-4-6-3m30 4q-3 3 2 7c5 3 9-5 5-8q-3-4-7 1m370-1q-5 4 3 6 5-1 1-6-2-3-4 0m130-1q-3 5 3 6 3 0 3-3-1-6-6-3m-329 1a4 4 0 1 0 6 5 4 4 0 0 0-6-5m-146 2q-2 6 4 7 4 2 5-4c2-5-6-7-9-3m40 0q-3 6 1 7 5 1 6-3-1-7-7-4m354 2q-4 4 3 6a4 4 0 1 0-3-6M8 206a4 4 0 1 0 5 0zm694 1q-2 5 4 5 5-2 3-5-4-4-7 0m-395 0c-2 1-1 7 1 8a5 5 0 1 0-1-8m251 2c-5 2-2 10 4 10q4-1 6-6c0-3-6-6-10-4m-370 2c-2 4 4 9 8 6v-7q-5-3-8 1m480-1a4 4 0 1 0 6 6 4 4 0 0 0-6-6m94 2a5 5 0 1 0 5-1q-2-2-5 1m-352 2q-3 5 1 7 5 1 6-4c0-5-5-7-7-3m25 0q-6 7 4 8 6-2 3-8-4-4-7 0m-50 1-2 2 2 2q4 4 6-2-1-5-6-2m-171 0c-3 1-4 6-1 7 4 2 8-4 5-7zm292 1c-2 1-2 6 0 7 5 3 11-3 8-7q-4-4-8 0m83-1c-2 3 0 8 3 6q4-1 2-6zm132 0q-3 4 2 9c5 3 11-4 6-8q-4-4-8-1m-485 1q-4 4 0 7 4 2 5-1c4-4-1-9-5-6m114 1q-5 3 1 7a4 4 0 1 0-1-7m132 0q-4 6 3 8c4 0 7-6 4-9q-3-3-7 1m-231 0a4 4 0 1 0 5 6 4 4 0 0 0-5-6m-168 1a4 4 0 1 0 5 5 4 4 0 0 0-5-5m538 1q-4 3 0 6 3 3 7-1c3-4-4-9-7-5m-586 0q-2 2-1 6a4 4 0 1 0 1-6m498 1a5 5 0 1 0 7 7 5 5 0 0 0-7-7m152 1q-3 2 0 5 4 4 7-1c3-4-4-8-7-4m-630 0q-3 5 2 8 5 2 6-3-2-8-8-5m90 1c-3 4 2 9 7 6q3-1 1-6-3-4-8 0m-31 0a4 4 0 1 0 6 4 4 4 0 0 0-6-4m204 3c-4 3-1 8 4 6a4 4 0 1 0-4-6m-41 2c-4 3 1 8 5 5q4-3 0-6-4-2-5 1m369 0q-4 3 1 6a4 4 0 1 0-1-6m92 1a4 4 0 1 0 5-1q-2-2-5 1m-543 3q-1 6 4 6c4-1 4-7 0-8zm509-1a5 5 0 1 0 7 1c-1-2-6-2-7-1m-247 2q-5 8 4 8 5-3 3-8-3-3-7 0m-53 0a4 4 0 1 0 5 7 4 4 0 0 0-5-7m101 2-2 2 2 2q4 4 6-2-1-8-6-2m57-2a5 5 0 1 0 6 1q-3-3-6-1m24 1a4 4 0 1 0 6 0q-4-4-6 0m-363 2a4 4 0 1 0 7 0q-4-4-7 0m124-1q-3 5 3 6 3 0 3-3a3 3 0 0 0-6-3m266 0q-5 6 2 8 9 0 4-7-3-3-6-1m-319 2q-4 6 3 7 8-2 3-8-3-2-6 1m188 0a4 4 0 1 0 6 2q-2-4-6-2m-108 3c-1 3 4 7 6 4l1-3c-1-3-6-4-7-1m156-1a5 5 0 1 0 4 8 5 5 0 0 0-4-8m137 3q-2 6 4 7 5-1 3-6-3-4-7-1m-340 2a5 5 0 1 0 6 6 5 5 0 0 0-6-6m96-1a5 5 0 1 0 1 10 5 5 0 0 0-1-10m-406 2q-3 6 4 7 5-1 3-6-3-3-7-1m56 0a4 4 0 1 0 6 6 4 4 0 0 0-6-6m23 0c-3 3 2 9 6 8q5-3 1-8zm110 2q-3 1-1 4 3 5 6 1c4-4-1-9-5-5m436 0q-4 4 2 6 2 2 4-1c4-4-3-9-6-5m-406 1a4 4 0 1 0 5 5c4-4 0-9-5-5m-114 2q-4 4 1 7l3 2 3-2q5-4 1-8-3-4-8 1m560-2q-3 6 4 7 5-1 3-6-3-3-7-1m76 1a5 5 0 1 0 8 7 5 5 0 0 0-8-7m-156 0q-3 5 3 6 5 0 3-5-1-4-6-1m-135 1a4 4 0 1 0 6 7 4 4 0 0 0-6-7m-284 1q-8 4 0 10 2 3 5 1c6-5 2-13-5-11m257 1a5 5 0 1 0 8 0c-1-3-8-3-8 0m289 0q-4 3-1 7 4 5 8-2 2-6-7-5m-24 2q-4 4 0 6c4 2 9-2 7-6q-3-4-7 0m-413 1q-3 3 0 5a4 4 0 1 0 0-5m17 1q-4 4-1 7a4 4 0 1 0 1-7m90 0c-4 3 0 10 4 7q4-3 1-7zm150 1q-4 4 0 7 4 4 7 0c5-5-2-12-7-7m-294 1a5 5 0 1 0 7 7 5 5 0 0 0-7-7m231-1q-3 7 4 6a3 3 0 1 0-4-6m-142 2q-2 3 1 5 6 4 8-2c0-4-6-6-9-3m163 0a5 5 0 1 0 7 7 5 5 0 0 0-7-7m62 0a5 5 0 1 0 8 7c5-5-2-12-8-7m56 0q-3 2 0 4 8 5 6-4-2-4-6 0m-212 5q-2 1-2 4 0 4 5 4 4 0 4-4 0-6-7-4m-344 2q-4 2 0 6 6 5 8-3-1-4-5-5zm520-1a4 4 0 1 0 6 6 4 4 0 0 0-6-6m-216 3q-4 4 0 6c3 3 9 1 9-4q-1-8-9-2m152-1q-5 6 2 8 9-1 4-7-3-3-6-1m137 1q-4 6 3 6c5-1 4-8-1-8zm-510 2a5 5 0 1 0 5 1q-3-3-5-1m26 1q-2 3 3 5 4-1 4-6-3-2-7 1m93 0a5 5 0 1 0 6 8 5 5 0 0 0-6-8m408 0q-1 6 4 7 4-1 5-5c0-4-7-6-9-2m-245 1a4 4 0 1 0 6 6 4 4 0 0 0-6-6m-412 1c-4 2-2 8 2 8q4-1 5-5-1-5-7-3m294 1q-4 6 3 7 5 0 5-4-2-8-8-3m-118 1q-5 6 3 5 5-2 1-5-1-3-4 0m258 0q-3 2-1 4c3 4 9 3 9-2q-2-6-8-2m185 1a5 5 0 1 0 8 3q-2-5-8-3m-587 2q-3 3-1 4a4 4 0 1 0 1-4m676 0c-3 4 1 9 5 7s3-9-2-9zm29 0q-5 6 5 8 6-1 3-7-4-5-8-1m-674 3c-3 6 1 13 6 10q6-4 3-10-4-4-9 0m28 0q-3 6 2 7l5-5q-1-6-7-2m592-1q-5 3-2 6 3 5 6 0c3-3-1-9-4-6m-133 1a5 5 0 1 0 3 9 5 5 0 0 0-3-9m28 3c-4 4-1 9 5 7q5-3 1-7-4-3-6 0m-561 1a5 5 0 1 0 5 1q-2-3-5-1m298 1q-4 3 0 7 2 3 4 1c5-3 1-10-4-8m215 0q-1 5 3 6 6-1 4-6zm70 1c-7 6 0 13 6 8q6-4 1-8-4-4-7 0m-224 1a5 5 0 1 0 8 1q-3-3-8-1m-154 3-1 4a4 4 0 1 0 1-4m20 1q-2 3 1 4 4 3 6-1c1-4-4-7-7-3m241-1q-2 6 4 7 7 0 4-6c-1-2-7-3-8-1m162 0-1 4c0 5 8 7 10 3 2-6-5-11-9-7m21 0a5 5 0 1 0 6 8 5 5 0 0 0-6-8m-222 2q-4 4 1 7c5 2 9-3 5-7q-2-3-6 0m67 0q-3 5 1 6c4 2 8-4 4-7q-3-3-5 1M1 292c-2 0-1 5 1 5q5 1 6-3-1-4-7-2m284 1q-5 4 1 7 2 2 4-1 4-4 0-7-2-2-5 1m-111 0a4 4 0 1 0 4 7 4 4 0 0 0-4-7m138 1a4 4 0 1 0 7 4 4 4 0 0 0-7-4m-110 1q-5 8 5 8a5 5 0 1 0-5-8m-64 1q-3 5 3 6a4 4 0 1 0-3-6m280 3q-2 8 5 7 5-3 3-8-5-3-8 1m22-1q-6 4-4 7c3 5 11 3 11-3 0-4-5-6-7-4m44 1q-4 6 2 7 9-2 2-8-1-2-4 1m-376 1q-4 3 0 5 5 3 6-2-1-7-6-3m468 1q-4 6 3 7c5 0 7-5 3-7q-3-3-6 0m167 1a5 5 0 1 0 8 0q-3-6-8 0m-98-1-1 3a4 4 0 1 0 1-3m-560 2q-2 8 6 6a4 4 0 1 0-6-6m512 1q-4 5 0 6c5 4 10-2 6-6q-3-4-6 0m117 0q-5 4 1 6c4 2 9-3 5-6q-3-3-6 0m-348 0q-2 4 1 7 2 4 6 0c3-4-3-11-7-7m-303 1q-4 4-3 9 3 5 8 0c6-5 1-13-5-9m481 4q-5 3-2 8c2 2 10-1 11-3q0-7-9-5m-511 2q-2 2 1 4a4 4 0 1 0-1-4m-25 2q-4 3 0 6a4 4 0 1 0 0-6m377 0a5 5 0 1 0 7 0q-3-4-7 0m81 1a4 4 0 1 0 4 0q-2-3-4 0m59 0q-4 3 0 6 9 3 7-6-3-4-7 0m236 1c-2 1-1 6 0 7q8 3 8-5-3-5-8-2m-469 1c-4 4 2 11 7 8q4-3 0-7-4-3-7-1m26 0q-3 5 2 6 7 0 4-5-3-3-6-1m88 1q-2 8 6 6 6-5-2-8-3 0-4 2m102-1a5 5 0 1 0 6 7 5 5 0 0 0-6-7m124 1q-4 3 0 6 4 4 7-1c3-5-3-10-7-5m42-1c-4 2-1 8 3 7q5-1 2-6-2-3-5-1m-231 2q-4 3 0 7 6 3 8-3-2-10-8-4m121 1a4 4 0 1 0 6 6 4 4 0 0 0-6-6m-358 3q-2 5 4 6 4 0 4-4c0-4-6-6-8-2m489 0-2 4c0 4 6 6 8 3 5-5-1-12-6-7m-464 2q-3 3 0 5a5 5 0 1 0 0-5m39 0q-5 8 4 8l3-3c2-6-4-9-7-5m72-1a4 4 0 1 0 4 8 4 4 0 0 0-4-8m-251 1-1 4c2 5 8 2 7-2q-2-5-6-2m637 0q-4 4-1 6a4 4 0 1 0 1-6m-553 1a4 4 0 1 0 6 6 4 4 0 0 0-6-6m480 2q-2 4 1 7 6 2 7-3-2-8-8-4m-19 4q-4 3 0 6c5 5 10-2 5-6q-3-3-5 0m-621 1q-3 7 2 8 9-2 5-8zm133 1q-2 5 3 6 5 0 5-5c0-4-6-4-8-1m-33 0a4 4 0 1 0 6 6 4 4 0 0 0-6-6m194 3q-2 2 1 4a4 4 0 1 0-1-4m-238 0c-4 1-3 8 1 8q4-1 5-4-1-4-4-5zm306 1c-4 4 0 9 5 7q5-2 2-7-3-4-7 0m-333 0q-3 5 2 6 7-1 3-5-2-3-5-1m705 2q-3 1-1 4c1 3 7 2 7-2l-4-4zm-228 0q-2 5 1 8 6 2 7-3c1-4-5-8-8-5m-100 2q-4 4 0 7c3 4 8 0 7-6q1-2-3-2-2-1-4 1m26-1q-4 2-1 6t5 0c4-3 1-8-4-6m-93 2q-4 6 3 7l3-1 1-3q-1-7-7-3m47 0a5 5 0 1 0 8 6 5 5 0 0 0-8-6m101-1q-4 4 1 8a5 5 0 1 0-1-8m176 1q0 5 4 6 4-1 5-4c0-4-7-5-9-2m-503 0c-3 3-1 9 4 9q4 0 4-5-2-7-8-4m417 2q-3 2 0 4a4 4 0 1 0 0-4m-346 0c-3 4 1 9 5 6a4 4 0 1 0-5-6m238 1v4c3 6 12 2 9-4q-3-4-9 0m217 0q-2 5 2 7 9 1 7-7-5-4-9 0m-420 0q-6 6 2 8 8-1 3-7-2-3-5-1m-183 2q-4 6 2 8c5 0 8-7 4-9-3-1-2-1-6 1m233 1a5 5 0 1 0 9 4q-1-10-9-4m215 0q-4 3 0 7a5 5 0 1 0 0-7m67 1v5a5 5 0 1 0 0-5m-146 0c-4 5 3 12 8 8q4-4 0-8-2-4-8 0m-318 4c-4 2-2 7 3 7a4 4 0 1 0-3-7m-105 0c-4 4 2 11 7 8 4-3 2-9-3-9zm719 0c-2 3 1 8 4 7h2q1 2 1-3 1-6-3-5zm-101 4c-3 3 0 8 5 6a4 4 0 1 0-5-6m64 1c-4 1-5 7-1 10 5 3 11-6 6-9q-3-3-5-1m-476 2q-3 5 2 7a4 4 0 1 0-2-7m181-1q-5 6 3 7 7-1 4-6-3-4-7-1m-113 2q-4 6 3 7a4 4 0 1 0-3-7m-130 0c-1 2 1 7 3 7q4-1 5-6-3-4-8-1m452 3q-4 5 3 6 4 0 4-4l-4-4zm-350 0c-3 2-2 7 2 7 2 0 4-5 3-7zm60 2a5 5 0 1 0 9 5 5 5 0 0 0-9-5m60-1c-2 5 5 9 8 5q5-6-4-7zm98 0q-2 9 6 7c5-2 4-8-1-9q-4 0-5 2m70 0q-3 4 0 7a5 5 0 1 0 0-6m105 1q-1 1 1 4c2 4 7 2 7-3 0-3-6-4-8-1m-579 0q-3 7 3 7 8-1 5-6-3-3-8-1m-32 1q-2 6 2 7 5 1 6-4c0-4-6-5-8-3m89 0c-4 3-2 9 3 9q7-1 4-7-3-5-7-2m443 0q-4 4-3 8c3 6 11 4 11-3q0-8-8-5m-132 2a4 4 0 1 0 8 0zm59 1c-4 5 1 11 7 8a5 5 0 1 0-7-8m-79 0v4c1 3 6 2 7-1q-1-7-7-3m104 1c-4 5 3 11 7 8q4-4 0-7-3-3-7-1m-164 1a4 4 0 1 0 6 5 4 4 0 0 0-6-5m100 1q-4 4 0 7a5 5 0 1 0 0-7m260-1q-3 4 2 8 4 3 6-3-2-8-8-5m-490 3c-2 4 5 8 7 4q2-4-3-6zm106 0q-3 3 0 5 3 3 6 0c5-5-2-10-6-5m-145 1q-5 6 3 8 5 0 5-5-2-8-8-3m-21 0q-4 3 0 8a5 5 0 1 0 0-8m450 2a4 4 0 1 0 6 6l1-3q-1-7-7-3m56-1a4 4 0 1 0 6 6 4 4 0 0 0-6-6m-580 2q-4 6 3 7c4 0 5-5 2-7q-2-3-5 0m308 0q-3 5 3 6a4 4 0 1 0-3-6m-408 3-2 2 2 2q8 3 5-4-2-3-5 0m380 0q-4 3 0 7 4 2 7-3 0-6-7-4m-98 1a4 4 0 1 0 6 6 4 4 0 0 0-6-6m-219 2q-2 5 3 5 4 0 4-3c0-4-5-5-7-2m-31 1q-3 4 2 7 5-1 6-5-2-6-8-2m563 2c-3 4 2 9 6 6q4-4 0-7-3-4-6 1m-93-1a5 5 0 1 0 9 4c0-3-7-6-9-4m-418 1-1 5a4 4 0 1 0 1-5m544 2a5 5 0 1 0 6 7 5 5 0 0 0-6-7m26 2q-4 5 3 6c4 0 6-5 2-7q-4-2-5 1m-531 0a3 3 0 1 0 5 5 3 3 0 0 0-5-5m62 0q-3 3 1 6 7 2 5-5c0-2-5-3-6-1m376 1a4 4 0 1 0 7 6 4 4 0 0 0-7-6m138 0q-5 4-2 10 4 2 9-1c5-6 0-12-7-9m25 1q-4 3 0 6 5 4 8-1c3-5-4-9-8-5m-505 2q-5 8 4 9 9-1 4-8-4-5-8-1m33-1a4 4 0 1 0 7 4 4 4 0 0 0-7-4m186 1a4 4 0 1 0 5 6 4 4 0 0 0-5-6m38 0q-3 5 1 8 4 1 6-1c3-5-3-11-7-7m-424 3q-2 2 1 4 6 5 7-3-2-7-8-1m477 1q-4 4 1 6h5c5-5-1-11-6-6m-210 0v7c5 3 11-2 8-6q-3-3-8-1m84 1q-4 2 0 6c5 5 11-1 7-5q-3-5-7-1m-108 0q-3 4 1 7 6 2 7-3-2-8-8-4m58 0q-3 5 2 8a4 4 0 1 0-2-8m101 1q-3 5 2 7c5 2 9-4 6-8q-5-3-8 1m218 1q-6 5-1 11c5 3 11-4 7-9q-2-4-6-2m-664 2q-4 3 0 7a4 4 0 1 0 0-7m600 2a4 4 0 1 0 7 1q-3-5-7-1m-510 1q-3 1-1 4c2 3 8 2 8-1q-1-8-7-3m481 0q-6 2-2 8a4 4 0 1 0 2-8m-70 3q-4 8 4 8 9-1 4-9-5-5-8 1m35-2a5 5 0 1 0 7 7 5 5 0 0 0-7-7m100 0a5 5 0 1 0 8 0zm-489 2q-3 2 0 6a4 4 0 1 0 0-6m263 1-2 3q2 4 5 5 4-1 5-5-2-7-8-3M1 414c-2 1-1 6 1 7a4 4 0 1 0-1-7m402 0q-2 6 3 7 6-1 4-6-3-4-7-1m-302 2c-3 2-2 7 2 7q3-1 4-6-3-4-6-1m191-1c-2 1-1 6 0 7q6 2 7-4c0-3-5-5-7-3m-32 3q-4 5 2 8a5 5 0 1 0-2-8m-197 0v6c3 3 9-1 7-5-1-2-6-3-7-1m98 1c-4 3-1 9 5 9q8-1 3-9-3-4-8 0m351-1q-3 5 2 9c5 3 11-5 7-9zm-151 1c-3 2-1 8 4 8a5 5 0 1 0-4-8m262 0-1 4a4 4 0 1 0 1-4m130 0a6 6 0 1 0 10 4c0-4-7-7-10-4m-42 2q-4 4 0 7 5 1 8-3c1-4-5-6-8-4m-582 2q-2 3 1 6 3 2 4-1 4-6-5-5m184 2a4 4 0 1 0 5 1q-3-3-5-1m-273 1c-3 3 1 8 5 6l2-4q-1-5-7-2m196 1c-5 5 1 12 6 7q4-5 0-8-4-2-6 1m498 0q-3 4 0 6 6 5 8-3-2-7-8-3m-544 1q-2 4 1 7 9 2 7-7-4-4-8 0m140 0q-1 5 2 6c4 2 8-4 6-6q-5-4-8 0m353 0a5 5 0 1 0 6 8 5 5 0 0 0-6-8m-262 1c-3 3 0 9 4 8q4-3 3-7-3-3-7-1m75 0-3 3a5 5 0 1 0 3-3m37 1a5 5 0 0 0 0 7 5 5 0 0 0 7 0 5 5 0 0 0 0-7 5 5 0 0 0-7 0m26 1a4 4 0 1 0 8 4 4 4 0 0 0-8-4m-488 3a5 5 0 1 0 9 6 5 5 0 0 0-9-6m-63 1q-4 4 0 6h4c2-2 2-7 0-7q-1-2-4 1m262 0a3 3 0 0 0-3 4c-1 4 6 7 9 3 4-4 0-9-6-7m-104 2q-2 6 3 7 5-1 5-6-3-6-8-1m216-1c-5 4-1 10 4 7 3-2 2-8-2-8zm75 2c-4 2-2 8 3 8q5 0 5-5-1-4-5-5zm-363 1q-3 4 0 7a6 6 0 1 0 0-7m518 0c-4 3-1 10 4 10q5-1 6-6c0-2-5-6-6-6zm-316 1c-4 1-4 7-1 9a5 5 0 1 0 1-9m343 0a4 4 0 1 0 3 7 4 4 0 0 0-3-7m21 1c-4 2-2 8 3 8q5 0 5-5-1-4-5-5zm62 0q-4 6 0 8c5 3 11 0 10-5q-3-8-10-3m-286 0q-3 3-1 7 6 2 7-3-1-7-6-4m147 0q-3 2-1 6c4 3 10-1 7-5q-2-3-6-1m110 0a5 5 0 1 0 9 0zm61 1q-4 3 0 6a4 4 0 1 0 0-6m-621 0a5 5 0 1 0 5 1q-3-3-5-1m232 1q-4 7 5 7 5-2 3-7-3-4-8 0m118 0q-5 6 3 8a5 5 0 1 0-3-8m-84 3q-5 6 3 7 5-1 3-7-2-4-6 0m-191 4q-2 2 1 4a4 4 0 1 0-1-4m137-2q-3 4 1 6c4 2 8-3 6-6zm177 2v5a5 5 0 1 0 0-5m-500-1a4 4 0 1 0 7 4q-1-7-7-4m482 1q-3 5 4 5 3 0 3-3c0-4-5-5-7-2m-188 1a4 4 0 1 0 7 4 4 4 0 0 0-7-4m228-1a5 5 0 1 0 7 7 5 5 0 0 0-7-7m-485 2q-5 6 4 8 8-2 3-8-3-3-7 0m203 0c-5 3-1 10 5 7q4-3 0-7-1-3-5 0m-37 1a5 5 0 1 0 6 1q-3-3-6-1m189 1q-4 3 0 6c4 4 10-1 7-6q-3-4-7 0m-297 3q-4 6 3 8c3 0 5-7 2-9q-2-2-5 1m124 0a4 4 0 1 0 8 3 4 4 0 0 0-8-3m-58 1q-3 3 0 5 2 3 5 0c4-4-1-9-5-5m101 0q-3 6 3 8a5 5 0 1 0-3-8m451-1a5 5 0 1 0 7 7 5 5 0 0 0-7-7m-257 1a4 4 0 1 0 6 6 4 4 0 0 0-6-6m234 0q-3 5 3 7 3 1 4-2c1-5-4-8-7-5m-552 2c-3 2-2 8 2 8s6-6 3-9q-2-2-5 1m294 0a4 4 0 1 0 7 6 4 4 0 0 0-7-6m136-1a4 4 0 1 0 6 5 4 4 0 0 0-6-5m-18 1a6 6 0 1 0 6 9 6 6 0 0 0-6-9m97 2q-4 3 0 7a5 5 0 1 0 0-7m-529 1a4 4 0 1 0 5 6 4 4 0 0 0-5-6m219 0a4 4 0 1 0 5 1q-2-3-5-1m26 0a5 5 0 1 0 6 6q1-9-6-6m48 1c-3 3 1 9 5 8 5-2 3-9-2-9zm255 1c-2 4 2 9 7 7q3-3 1-8-5-3-8 1m-67 2v5a5 5 0 1 0 0-5m-110 1q-5 4 1 6c4 2 8-3 4-6q-2-3-5 0m-421 0q-3 3-1 8c3 2 10 0 10-4 0-3-6-6-9-4m446 1a5 5 0 1 0 9 4c0-4-6-7-9-4M5 472q-5 6 3 7 5 0 5-4-2-8-8-3m324-1a6 6 0 1 0 10 4c0-4-7-7-10-4m-276 1q-2 6 3 7 7-1 5-6-3-4-8-1m593 1c-4 3 0 7 4 5a3 3 0 1 0-4-5m-386 1q-4 3 1 6 6 2 7-4c0-4-6-5-8-2m-53 0a5 5 0 1 0 6 7 5 5 0 0 0-6-7m-89 2q-3 3 0 5c3 4 8 0 6-4q-2-5-6-1m364 1a4 4 0 1 0 6 0q-3-4-6 0m-254 2a3 3 0 1 0 6 3 3 3 0 0 0-6-3m72 0q-3 3 0 5c4 5 11-1 7-5q-3-4-7 0m71 0q-3 1-1 4a4 4 0 1 0 1-4m-196 1q-2 8 6 6a4 4 0 1 0-6-6m278 0q-4 5 3 6 6-1 3-6-4-4-6 0m46 2q-5 6 4 7 5 0 5-4c0-5-6-7-9-3m98 0a5 5 0 1 0 7 7 5 5 0 0 0-7-7m-202 2a4 4 0 1 0 6 6 4 4 0 0 0-6-6m293 0c-1 2 1 7 3 7q3-1 4-4c0-3-5-5-7-3m-258 2q-3 3-1 6c4 3 10-2 6-6q-3-3-5 0m-178 1-2 2c0 4 6 5 8 2 3-4-3-8-6-4m320-1a4 4 0 1 0 4 8 4 4 0 0 0-4-8m-417 3q-3 2-1 6c4 3 10-1 8-5q-3-4-7-1m-17 1q-3 3 2 6a4 4 0 1 0-2-6m-118 0c-4 2-4 8 0 10q5 0 7-4 0-7-7-6m55 0q-3 3-2 7a6 6 0 1 0 2-7m249 0q-3 4 1 7 5 1 8-3c1-4-6-7-9-4m415 1q-4 4 1 7c5 4 11-1 8-7q-4-4-9 0m-332 2c-4 3 0 8 4 7q6-3 2-7-4-3-6 0m226 1c-5 7 2 14 8 8q5-4 0-8t-8 0m-93 1q-3 8 5 8 8-3 0-8-4-3-5 0m171 0a5 5 0 1 0 6 0q-4-4-6 0m-49 1q-3 3 0 5a4 4 0 1 0 0-5m-473 0q-3 5 2 6 7 1 6-5-3-3-8-1m-70 2q-5 6 2 8 4 0 4-4-1-6-6-4m401 1q-3 3-1 6 6 3 8-3c0-4-5-6-7-3m61 1c-5 3-3 9 3 9q7-1 3-8-3-6-6-1m24 2q-5 3-2 8c2 3 9 3 11 0 3-5-3-10-9-8m-391 2v4q3 5 8 1c3-5-4-10-8-5m127-1-1 5a4 4 0 1 0 1-5m107 1v5c2 4 9 2 9-2q-1-8-9-3m-175 1q-4 7 4 7 6 0 5-3 0-5-5-5zm94 0-2 4q-1 4 5 3 5 1 4-3 0-7-7-4m-67 3q-6 4 3 4 8 0 3-4-2-3-6 0m193-1q-4 5 4 5 6 1 5-2 0-4-5-4z"
        mask="url(#16282281824-posters-1720553917958-radial-mask)" itemprop="regular" fill-opacity="0.90"
        fill-rule="evenodd" stroke="none" fill="url(#16282281824-posters-1720553917958-horizontal-regular)"></path>
      <!---->
      <path id="16282281824-posters-1720553917958-medium"
        d="M28 1q0 8 8 5 6-5-3-6zm41 1q-2 6 1 8a5 5 0 1 0-1-8m153 0q-2 3 3 5 5 0 6-4t-4-3q-5 0-5 2m77 0q-1 3 3 5 5 0 6-5c0-3-8-3-9 0m66 0q-3 4 3 6 5-1 2-6-2-3-5 0m110 0q2 7 6 4 6-5-2-6-5 0-4 2m164 1q-4 4 0 6 6 1 5-5-2-3-5-1m74 2q-3 5 2 7c2 0 6-4 4-6q-2-3-6-1m-586 6q-2 5 4 5a4 4 0 1 0-4-5m562-1q-2 3 1 4a4 4 0 1 0-1-4m-438 0-1 4a4 4 0 1 0 1-4m-105 2q-2 3 1 6c3 3 9-2 6-6zm251 0q-4 7 3 8 7 0 4-7-3-3-7-1m30 1q-3 2-1 4 6 6 8-1-1-7-7-3m37-1c-4 2-2 8 4 8q4 1 3-3 0-8-7-5m-123 4q-5 7 3 8 9-2 4-8-4-4-7 0m265-1a4 4 0 1 0 5 5 4 4 0 0 0-5-5m-288 4c-4 3 0 9 5 5q4-2-1-6-1-2-4 1m310 2a4 4 0 1 0 5 6 4 4 0 0 0-5-6m-107 4-2 3 5 5 3-2c5-5-1-11-6-6m216 0q-2 4 1 6c1 2 6 0 7-3s-5-6-8-3m-368 2q-5 8 4 8 5-2 5-5c0-5-6-7-9-3m123-1c-2 1-3 6 0 6q4 1 5-3-1-4-5-3M26 28c-4 3 0 8 4 5q3-1 2-4-2-5-6-1m42 1q-3 2 0 4 2 3 5 0a4 4 0 1 0-5-4m41 0q-4 4 0 7 8 3 9-4a6 6 0 0 0-9-3m68-1q-5 4 0 9c6 3 10-4 6-8q-2-3-6-1m51 0a5 5 0 1 0 7 6 5 5 0 0 0-7-6m323 0q-3 4 2 6 7-1 3-5-3-3-5-1m-285 1q-5 4-1 6c4 2 8-3 5-6zm444 1q-5 6 3 7 7 0 3-7-4-4-6 0m-504 1q-3 6 4 5a3 3 0 1 0-4-5m87-1a5 5 0 1 0 4 8 5 5 0 0 0-4-8M87 32q-3 8 6 8a5 5 0 1 0-6-8m363 3a4 4 0 1 0 6 6 4 4 0 0 0-6-6m115 2q-2 8 5 6c4-1 4-6 1-7q-5-2-6 1m118-1a4 4 0 1 0 6 6 4 4 0 0 0-6-6m67 1-2 2c0 4 6 5 8 2 3-4-3-8-6-4m-331 0a4 4 0 1 0 6 1q-3-3-6-1m121 5q-3 6 4 6a4 4 0 1 0-4-6m-412 2q-3 4 2 6 6 0 4-5t-6-1m21 0q-3 2-1 4 4 7 7-1-1-7-6-3m325 0v5c3 3 9-1 6-5q-3-4-6 0m143 1q-2 5 2 6a4 4 0 1 0-2-6m-302 1c-2 1-1 7 1 8q7 0 7-5 0-4-4-4zm321 1c-3 5 2 9 6 5a4 4 0 1 0-6-5M38 47l-2 4a3 3 0 1 0 2-4m696 0a4 4 0 1 0 6 6 4 4 0 0 0-6-6m-33 3a4 4 0 1 0 4 0q-2-3-4 0m-314 0q-2 5 3 6 5-1 3-5-2-3-6-1M5 54q-3 6 4 6 6-2 2-6-3-4-6 0m207 0a4 4 0 1 0 6 4c3-4-2-7-6-4m281 1c-4 4 0 8 4 6a4 4 0 1 0-4-6m-255 0q-4 6 3 7c2 0 4-5 3-6q-4-2-6-1m-51 1q-4 4 0 7 6 2 7-3 0-7-7-4m155 2q-2 2-2 5c2 6 10 4 10-2q0-8-8-3m85 0v4a4 4 0 1 0 0-4m131 2q-3 5 2 6a4 4 0 1 0-2-6m156 1a5 5 0 1 0 6 0q-2-3-6 0M75 61v8q6 3 8-4a4 4 0 0 0-8-4m44 1q-3 5 2 6 7-1 3-6-3-3-5 0m343 0a4 4 0 1 0 6 5 4 4 0 0 0-6-5m-91 2q-4 6 3 7a4 4 0 1 0-3-7m231 0q-3 3-1 5 4 5 9 0c3-5-5-10-8-5m-200 1c-5 3-1 10 4 7q6-3 1-8-2-2-5 1m-259 0a4 4 0 1 0 4 6 4 4 0 0 0-4-6m147 0a4 4 0 1 0 4 1q-1-3-4-1m-31 2q-1 6 4 6c5-1 5-7 0-8q-3-1-4 2m402 0q-3 8 5 5 4 0 2-4-3-3-7-1m29 0a3 3 0 1 0 4 0zm57 4q-4 4 0 6a4 4 0 1 0 0-6m-238 1c-3 2-2 7 2 7q4-1 5-4-1-4-4-5zm-67 0q-1 6 3 7 7-1 4-6c-1-2-6-3-7-1M48 74q-3 4 1 6 6 2 7-4c0-4-6-5-8-2m274 0a4 4 0 1 0 6 4 4 4 0 0 0-6-4M23 75q-2 4 1 5 6 2 7-3c0-4-6-6-8-2m144 4c-3 4 2 10 6 7q4-4-2-7zm456 1q-4 5 2 6 10-1 4-6-4-3-6 0m-150 1q-4 4 3 5 5-1 2-5-3-3-5 0m-241 0a4 4 0 1 0 4-1zm66 0a4 4 0 1 0 7 4q0-6-7-4m261 2a4 4 0 1 0 6 1q-2-3-6-1m-455 1q-4 2-1 7 3 4 7 0c2-4-1-9-6-7m314 1q-4 3 0 6c4 4 11 0 8-5q-3-5-8-1m307-1q-4 2 0 5 5 1 6-2-1-5-6-3m-347 3q-2 4 3 5 5-1 4-5-3-3-7 0m149-1q-1 4 2 5 4 1 5-3-3-5-7-2m128 1a4 4 0 1 0 4 6 4 4 0 0 0-4-6m-447 1c-3 3 0 8 4 6 2-1 2-6-1-7zm138 3q0 4 4 4a3 3 0 1 0-4-4m-213 0q-6 3-1 8 6 2 7-4-2-5-6-4m-73 2q-6 5-1 7 6 3 7-4-1-7-6-3M4 94q-4 5 1 6a4 4 0 1 0-1-6m159 1v7q4 1 6-3c2-3-3-7-6-4m600 1q-2 6 3 6c4-1 3-7 0-8zM36 96a4 4 0 1 0 6 3q-1-5-6-3m450 1a4 4 0 1 0 4 6 4 4 0 0 0-4-6m-95 4q-3 3 0 6 6 5 8-3-2-7-8-3m70 1q-4 4 1 5a3 3 0 1 0-1-5m163 0q-3 5 2 6a4 4 0 1 0-2-6m-379 2c-5 3 1 10 6 7q6-4 1-7-4-3-7 0m295 0q-2 5 3 5 3 0 3-3-1-6-6-2m-179 1q-4 5 3 8 8 0 3-8-3-3-6 0m-100 2a3 3 0 1 0 6 3 3 3 0 0 0-6-3m168 0q0 4 4 5 4-1 3-5c-1-3-6-3-7 0m-124 1q-3 2-1 4c2 3 7 2 7-2q-1-5-6-2m-90 2q-4 6 5 7c5-1 4-8-1-8zm293 2q-3 6 5 7c4 0 7-7 3-8q-7-2-8 1m58 0c-5 4 0 10 6 7q5-3 0-7-3-3-6 0m-411 1q-3 3-1 8h7c3-4-1-10-6-8m40 2q-2 4 3 5 5-1 4-5-3-3-7 0m138 1q-2 5 4 6 3 0 3-3c2-6-5-9-7-3m-312-1-1 4a4 4 0 1 0 1-4m54 1q-5 7 3 8 5 0 5-5-2-7-8-3m650 3q-3 3 0 7c3 3 12-4 9-7q-4-4-9 0m-677 0a4 4 0 1 0 4 6 4 4 0 0 0-4-6m321 1q-3 4 2 7 5 0 6-4-2-7-8-3m-84 1a5 5 0 1 0 5 9 5 5 0 0 0-5-9m-113 6c-3 2-1 8 3 8l5-5c0-4-6-6-8-3m59-1q-1 7 3 7 7-1 4-6c-1-2-6-3-7-1m292 0q-2 4 1 7a4 4 0 1 0-1-7m-208 1c-2 3 0 8 3 6q4-1 2-6zm93 1q-3 2 0 6a4 4 0 1 0 0-6m74 0q-4 6 3 7c3 0 5-5 2-7q-3-3-5 0m204 2q-3 5 3 6 3 0 3-3-1-6-6-3m-113 1q-2 4 1 6a4 4 0 1 0-1-6m-320 1a5 5 0 1 0 8 0zm92 2q-4 4 2 6c5 4 10-1 6-6q-3-6-8 0m39-1q-2 3 1 4a3 3 0 1 0-1-4m164 0q-2 5 3 6a4 4 0 1 0-3-6m193 0q-2 1 1 4a4 4 0 1 0-1-4m-308 1q-3 5 2 5a3 3 0 1 0-2-5m164 2q-4 4 2 6 5-2 2-6-2-3-4 0m107 0q-4 3 0 6 3 3 6 0c3-5-2-10-6-6m-687 2a5 5 0 1 0 8 1c0-3-6-4-8-1m63-1c-3 4 1 9 5 6q3-2 0-5-2-3-5-1m78 0q-2 4 2 6 4-1 5-5-3-3-7-1m343 3q-2 4 1 7 4 2 6-4c0-4-5-5-7-3m-307 2q-4 4 1 6c2 0 6-4 4-6q-2-3-5 0m531 3q-2 9 7 5 4-2 0-6t-7 1m-426 0q-4 4 0 6c5 3 10-2 6-6q-2-4-6 0m-173 5c-3 5 4 10 7 5q3-4 0-6-3-4-7 1m405-2-3 2a6 6 0 1 0 3-2m101 0v6q5 1 7-2 0-6-7-4m-418 2a4 4 0 1 0 8 2 4 4 0 0 0-8-2m264-1q-3 5 2 6 6-1 4-6zm105 1q-4 2 0 5 5 4 6-1 1-7-6-4m-516 4q-4 4 0 6a4 4 0 1 0 0-6m194 1q-4 6 2 8c5 0 7-7 3-9q-3-2-5 1m143-1q-4 3 0 7 4 2 7-3-1-7-7-4m-374 1q-4 4 1 6a3 3 0 1 0-1-6m293 1q-5 8 4 9 8-1 4-8-4-6-8-1m326 0q-2 3 3 5 4 0 4-4-3-5-7-1m39 1q-2 5 3 6 5-1 6-5c0-5-7-6-9-1m-247-1q-3 8 4 6a3 3 0 1 0-4-6m-298 2q-3 5 2 6 5 2 6-3c0-5-6-7-8-3m25-1a4 4 0 1 0 6 4 4 4 0 0 0-6-4m587 1v3a3 3 0 1 0 0-3m-657 1a4 4 0 1 0 7 6 4 4 0 0 0-7-6m-51 4q-2 5 3 5 5-1 3-6-4-3-6 1m523 0c-3 2-1 8 3 8q4-1 5-6-1-3-5-4zm161 1c-2 2 0 7 2 7 4 2 8-3 4-6q-3-3-6-1m-381 4q-4 5 2 6a4 4 0 1 0-2-6m67 0q-4 5 2 6a4 4 0 1 0-2-6m131 0q-3 5 4 6 5-1 2-7-2-2-6 1m-362 2c-4 3 0 8 4 6q3-3 2-7-3-2-6 1m287 0c-4 2-2 8 3 8q8-2 3-8-2-3-6 0m153 0a4 4 0 1 0 5 6 4 4 0 0 0-5-6m-603 4-2 3-3 2-2 2q1 4 5 1l4-2a4 4 0 1 0-2-6m740-1c-4 2-2 8 3 8q4 0 4-7-1-3-7-1m-668 1c-4 3 0 10 4 7a4 4 0 0 0-4-7m353 2q-3 4 0 6c4 4 11-1 7-6zm-327 1a4 4 0 1 0 4 1q-1-3-4-1m588 3c-3 3 0 9 5 9q3-1 4-5c0-4-6-7-9-4m-646 2q-2 7 4 7 4 0 4-4 0-5-4-5-3 0-4 2m97 1q-2 3 1 6 4 4 6-1c2-5-3-8-7-5m65 1q-2 6 3 8 9 0 4-7-3-3-7-1m325 3c-4 4 1 9 6 7q4-2 1-6-3-3-7-1m-149 3v5c3 3 9-1 6-5q-3-4-6 0m351 0q-3 1-1 4 5 4 8-1c1-5-4-7-7-3m-716 3q-4 4 0 7 7 3 7-4-1-7-7-3m464-1c-3 1-2 6 0 7q3 2 4-1c5-4 1-9-4-6m233 3q-4 2 0 6a5 5 0 1 0 0-6m-400 1c-3 5 3 10 7 5q3-2 1-4-3-6-8-1m94-1q-2 5 2 6a4 4 0 1 0-2-6m-55 3a4 4 0 1 0 6 7 4 4 0 0 0-6-7m-299 2q-2 6 4 6 3 0 3-3c0-4-5-6-7-3m553 1q-2 5 4 6 3 0 3-3c0-4-5-6-7-3m-520 1c-3 2-1 8 3 8q4-1 5-5-2-5-8-3m26 1q-2 3-1 7a5 5 0 1 0 1-7m40 1q-3 2-2 5c1 4 7 2 7-2q-1-4-5-3M8 207q-4 1 0 6h4c4-4 1-10-4-6m300 0a4 4 0 1 0 4 0zm251 2c-5 3-3 9 3 9q7-2 3-8-2-3-6-1m-369 1c-4 2-1 7 3 7q6-1 3-6-4-3-6-1m480 0c-3 1-3 7 1 7q3-1 4-5-1-2-5-2m92 3q-4 4 0 6 7 2 7-3c0-5-5-7-7-3m-352 1q-3 5 3 6 4 0 4-2a4 4 0 0 0-7-4m26 0a4 4 0 1 0 5 0zm-224 2q-3 8 5 5 3-2 1-4-2-3-6-1m295 0-2 4c1 3 7 4 8 1 3-4-3-8-6-5m214 0c-3 4 3 10 7 7q4-3 1-7zm-485 2q-4 4 3 5 3 0 3-3-1-6-6-2m114 0q-4 3 1 5c4 2 8-2 4-5q-3-3-5 0m131 0q-3 6 4 6c5 0 6-7 0-8q-3 0-4 2m141 0c-4 3 0 10 4 7a4 4 0 0 0-4-7m-88 3q-3 1-1 4a4 4 0 1 0 1-4m152-1q-4 4 1 7c4 2 7-5 3-7zm-539 1q-4 4 0 7c4 2 9-3 6-7zm-92 2v4a4 4 0 1 0 0-4m263 3q-3 2-1 4a3 3 0 1 0 1-4m-40 0a4 4 0 1 0 4 6 4 4 0 0 0-4-6m369 0c-3 2-2 7 2 7q7-1 4-5-2-5-6-2m57 4q-2 6 4 7 5-1 3-5-4-5-7-2m-248 3q-1 4 2 6 4 1 6-3c2-5-6-7-8-3m-53 1q-2 5 3 6 5-1 4-6-3-4-7 0m158 0q-3 6 3 8 5 0 5-5c0-5-6-7-8-3m24 0a4 4 0 1 0 6 4 4 4 0 0 0-6-4m27 1q-3 4 2 6a4 4 0 1 0-2-6m-318 1q-2 6 3 7 4-1 5-4c0-3-6-5-8-3m188 1a4 4 0 1 0 6 1q-4-3-6-1m47 2a4 4 0 1 0 6 6 4 4 0 0 0-6-6m139 2a4 4 0 1 0 5 5 4 4 0 0 0-5-5m-342 3c-2 4 3 9 7 6a5 5 0 1 0-7-6m95 0q-4 6 3 8 4-1 5-5-2-7-8-3m-403 0c-3 4 2 9 5 5q3-2 1-4-4-3-6-1m79 0a4 4 0 1 0 6 6 4 4 0 0 0-6-6m-24 2q-3 5 4 5 3 0 3-3c0-4-5-6-7-2m133 0a4 4 0 1 0 5 5 4 4 0 0 0-5-5m435 1c-1 3 4 7 7 4l1-4c-1-3-7-3-8 0m-516 0a5 5 0 1 0 2 10 5 5 0 0 0-2-10m111 1q-1 7 5 4 3-2 1-4c-1-2-6-3-6 0m447-1a4 4 0 1 0 5 5 4 4 0 0 0-5-5m75 1c-2 1-1 7 2 8q5 2 6-4 0-6-8-4m-317 2a4 4 0 0 0 6 6c4-3-1-8-6-6m26 1v5c3 3 9-1 6-5q-3-4-6 0m-285 1q-4 4 0 8 9 2 8-6-2-6-8-2m523 1q-4 5 3 6a4 4 0 1 0-3-6m23 0q-2 8 5 6a4 4 0 1 0-5-6m-435 1q-4 4 1 6 7-1 3-5-1-3-4-1m16 3q-4 4 3 5 3 0 3-3-1-6-6-2m89 0q-2 4 3 5a3 3 0 1 0 0-7zm151-1q-2 5 1 8c2 1 7 0 7-3 2-4-5-8-8-5m-293 1c-3 4 1 10 5 7 3-2 2-8-2-8zm251 1q-4 6 3 7c5 0 7-5 3-7q-4-3-6 0m-163 1q0 3 2 4 5 4 6-1c0-5-6-7-8-3m225-1q-4 7 4 8 6-1 4-6-3-5-8-2m-157 6q-3 6 4 7 5-1 3-6-3-3-7-1m-343 1c-2 1-1 6 1 7q9 1 5-6-1-3-6-1m304 2-1 5c2 4 10 2 10-3 0-4-7-6-9-2m151 0q-3 6 4 7 5-1 3-6-3-3-7-1m156 2a4 4 0 1 0 6 6 4 4 0 0 0-6-6m-529 1a5 5 0 1 0 7 6 5 5 0 0 0-7-6m120 0a5 5 0 1 0 6 7 5 5 0 0 0-6-7m46 3a4 4 0 1 0 5 6 4 4 0 0 0-5-6m-296 1a4 4 0 1 0 6 3 4 4 0 0 0-6-3m436-1c-4 2-2 7 3 7q6-1 2-6-3-3-5-1m185 3q-5 3 1 6 5 3 5-4-1-5-6-2m-587 1c-4 3 0 8 4 6 3-2 2-8-2-8zm705 0q-4 4 0 7c5 3 9-3 5-7q-2-3-5 0m-31 0q0 8 6 6a4 4 0 1 0-6-6m-643 3-2 5q4 9 9 2c4-5-3-11-7-7m617 1a4 4 0 1 0 6 4 4 4 0 0 0-6-4m-132 0-1 4a4 4 0 1 0 1-4m28 4q-2 2 1 4a4 4 0 1 0-1-4m-560 0q-4 2-1 7 4 4 7-1 2-7-6-6m297 2q-1 4 2 5a4 4 0 1 0-2-5m286 0-2 5c1 5 10 3 10-2q-2-8-8-3m-223 1q-4 2 0 7a5 5 0 1 0 0-7m107 2a4 4 0 1 0 6 5 4 4 0 0 0-6-5m162 1q-5 6 4 7 6-3 2-7-3-3-6 0m19 1q-2 5 3 6c5 0 7-5 3-7q-4-3-6 1m-221 0-1 4a4 4 0 1 0 1-4m67 0q-3 5 3 6 3 0 3-3-1-6-6-3m-248 1q-2 6 3 7 5-1 3-6-2-3-6-1m-83 4q-2 5 3 6 6 0 6-4c0-5-7-7-9-2m216 3q-2 2 1 4 6 4 7-2-2-8-8-2m20 0q-3 4 0 6 6 5 8-4c0-4-6-6-8-2m46 0a4 4 0 1 0 5 5 4 4 0 0 0-5-5m261 1a5 5 0 1 0 5 0q-2-3-5 0m-167 0-1 1q-4 1 0 5 5 2 6-3 0-3-2-3zm68 0q-2 4 1 7a4 4 0 1 0-1-7m-560 2q-2 4 1 6 7-1 5-5-2-3-6-1m280 2a4 4 0 1 0 5-1q-2-2-5 1m231-1q-2 6 3 7 4-1 4-6-3-4-7-1m117 1q-2 2-1 3c2 3 8 2 8-1 0-4-5-5-7-2m-652 2q-5 6 3 8 6-2 5-8-3-4-8 0m483 2c-3 2-4 8-1 8q11-1 6-7-1-3-5-1m-510 1q-4 3 0 6 4 1 5-2 1-5-5-4m-26 3q-3 3 0 5 4 4 6-2-1-7-6-3m375 2a5 5 0 1 0 9 4 5 5 0 0 0-9-4m141-1q-2 5 3 6 5 0 3-5c-1-2-6-3-6-1m236 1a4 4 0 1 0 7 6 4 4 0 0 0-7-6m-468 2c-4 3 0 8 4 7q6-3 0-8-3-2-4 1m113 0v5c3 3 10-1 7-5q-3-4-7 0m202 0a4 4 0 1 0 5-1q-2-2-5 1m-164 1q-4 4 0 7a5 5 0 1 0 0-7m64 0q-3 2 0 4a4 4 0 1 0 0-4m124-1a4 4 0 1 0 6 5q3-7-6-5m41 1q-2 1 1 4 5 2 6-3c0-3-5-4-7-1m-466 3c-3 3 0 8 5 6a4 4 0 1 0-5-6m488 1q-3 6 3 8a4 4 0 1 0-3-8m-463 2q-3 3 0 5 3 3 5 0 3-4 0-6l-2-1zm38 0q-4 4 0 7c4 2 9-4 6-8q-2-2-6 1m71 0a4 4 0 1 0 6 6 4 4 0 0 0-6-6m387 1a4 4 0 1 0 4 6 4 4 0 0 0-4-6m-554 2 1 4c3 3 8 0 7-4l-4-2zm481 1q-3 5 3 6 7-1 3-7-2-2-6 1m-19 4a4 4 0 1 0 6 4 4 4 0 0 0-6-4m-487 0-1 4a4 4 0 1 0 1-4m-134 1a4 4 0 1 0 6 5 4 4 0 0 0-6-5m100 1q-2 2 1 4 4 3 5 0c3-4-2-7-6-4m-45 4q-3 5 2 5a4 4 0 1 0-2-5m307-1q-3 4 2 7 5 0 5-5c0-3-5-4-7-2m144 4q-3 6 4 6c5 0 6-7 0-8q-3 0-4 2m-166 0c-2 1-3 6 0 7 4 2 8-3 4-6q-2-3-4-1m66 1q-3 5 2 7 5 0 5-6-3-6-7-1m82-1a4 4 0 1 0 5 6c4-4-1-9-5-6m176 1q-2 4 4 5 3 0 3-2c1-4-4-7-7-3m-278 0-1 3a4 4 0 1 0 1-3m-226 1q-3 6 4 7 5-1 3-6-3-3-7-1m310 2a4 4 0 1 0 7 5 4 4 0 0 0-7-5m217-1q-3 6 4 8l4-4q-2-6-8-4m-422 3q-3 5 2 5 8 0 5-5-3-4-7 0m-182 0q-3 5 3 7a4 4 0 1 0-3-7m235 0c-2 1-3 7 0 7q8 2 6-6-3-3-6-1m214 0a4 4 0 1 0 5 1q-3-3-5-1m67 2q-2 5 4 6c6-1 6-7 0-8q-3 0-4 2m-147 2a5 5 0 1 0 9 3 5 5 0 0 0-9-3m-422 3q-3 5 2 7 5 0 5-4c0-5-5-7-7-3m104-1q-3 4 2 6 4 1 5-4a4 4 0 0 0-7-2m615 0q-3 6 2 5l3 1q1 1 1-2l-1-4-2-1zm-332 6a4 4 0 1 0 4 6 4 4 0 0 0-4-6m292 0q-3 5 1 8c5 3 10-4 6-8zm-474 1q-3 5 2 6 6-1 4-5-3-3-6-1m68 1q-2 3 1 6a4 4 0 1 0-1-6m93 3c-3 5 3 10 7 6q4-2 0-5t-7-1m98 0q-3 4 1 7 6 2 7-3-2-8-8-4m70 1q-4 5 1 7a4 4 0 1 0-1-7m-228 1q-3 6 3 7a5 5 0 1 0-3-7m333 0q-3 5 3 6 6-1 2-5-3-3-5-1m-580 2q-2 5 4 6 5-1 3-6-2-3-7 0m-30 0a4 4 0 1 0 4 6 4 4 0 0 0-4-6m86 2a4 4 0 1 0 7 5 4 4 0 0 0-7-5m443 0q-4 4 0 7 5 4 8-1c3-6-3-11-8-6m-130 1q-2 4 3 5a3 3 0 1 0 0-7zm58 0q-3 6 4 8 4-1 5-5c0-3-6-5-9-3m26 2q-4 6 3 7 6-1 2-7-2-3-5 0m-164 0q-2 6 2 7 6-1 4-6-2-3-6-1m100 0c-5 4-1 10 4 9q4-2 3-6c0-3-5-4-7-3m259 1q-2 4 2 7 9 0 4-6-3-3-6-1m-489 1q-3 4 2 6l4-1c2-4-3-8-6-5m106 0q-4 2 0 6 1 3 4 0c5-3 1-9-4-6m-146 2q-3 4 1 7 6 1 7-4-2-5-8-3m-22 1q-3 4 1 6 4 4 6 0c2-5-3-10-7-6m452 0c-2 1-3 6 0 7 4 2 8-3 4-6q-2-3-4-1m-215 1a4 4 0 1 0 4 6 4 4 0 0 0-4-6m-309 1q-4 4 1 6 7-1 3-5-1-3-4-1m278 5q-2 3 3 5 5-1 4-5c0-2-5-2-7 0m-345 1q-3 2-2 6c3 3 9-1 6-5q-1-3-4-1m562 3q-3 5 1 6c4 1 7-4 4-6q-3-4-5 0m-511 1a4 4 0 1 0 4 0q-2-3-4 0m417-1a4 4 0 1 0 6 6 4 4 0 0 0-6-6m126 2c-2 1-1 6 1 7q5 2 6-3 0-7-7-4m27 1q-4 3 0 6 7 1 4-5-2-3-4-1m-470 2v3a4 4 0 1 0 0-3m377 0q-2 3 1 6 2 2 4-1c4-3 0-8-5-5m135 3v5a5 5 0 1 0 1-5m26-2a4 4 0 1 0 4-1zm-505 2q-3 3 1 8 6 3 8-4-1-6-9-4m258 1a4 4 0 1 0 6 3q-1-7-6-3m-424 2q-2 4 3 5a3 3 0 1 0 0-7zm267 1a4 4 0 1 0 6 6 4 4 0 0 0-6-6m209 1q-2 4 3 5 5-1 4-5-3-3-7 0m-125 0q-5 6 2 7 8-1 3-6-2-3-5-1m51 1q-4 5 0 6c5 2 10-4 5-7q-3-2-5 1m-160 1q-3 4 4 5a3 3 0 1 0 0-7zm58-1a4 4 0 1 0 6 6 4 4 0 0 0-6-6m318 3a5 5 0 1 0 6 8 5 5 0 0 0-6-8m-572 2a4 4 0 1 0 4 6 4 4 0 0 0-4-6m446 3c-4 3 0 9 5 6q4-3 1-7-2-2-6 1m32 0q-2 5 3 6 7-1 3-6-4-4-6 0m67 0q-3 3 2 6 6 2 7-3-1-7-9-3m-135 2c-3 5 3 10 7 5l2-4c0-4-6-6-9-1m-354-1q-3 3 2 6 4 0 4-4c0-2-5-4-6-2m263 1a4 4 0 1 0 6 6 4 4 0 0 0-6-6m-42 2q-3 2-1 4c4 3 9-1 6-5q-3-2-5 1M1 415q-3 2 2 5 1 1 4-1c3-2-2-7-6-4m291 0a4 4 0 1 0 6 5 4 4 0 0 0-6-5m-229 3v5c3 2 8-1 6-4q-1-3-6-1m98 0q-3 5 2 9 6 3 7-3c0-5-6-9-9-6m99 1a4 4 0 1 0 6 5 4 4 0 0 0-6-5m253 0q-3 4 0 6 6 4 8-2c1-5-5-8-8-4m-151 0c-4 2-2 7 3 7q6-1 2-6-3-3-5-1m393 0q-3 2-1 6 4 4 7 0c4-3-1-8-6-6m-44 3q-4 4 3 6 7-1 3-6-2-4-6 0m-473 4q-5 3-2 7 4 4 7 0c2-4-1-9-5-7m496 2a4 4 0 1 0 7 4 4 4 0 0 0-7-4m-544 0q-2 3 1 6c4 2 9-2 6-6-1-1-6-2-7 0m493 1q-3 3-1 4a5 5 0 1 0 1-4m-261 1c-4 2-1 7 3 6a4 4 0 1 0-3-6m73 1-2 3c0 4 8 6 10 2s-5-9-8-5m39 0q-3 3 0 5 5 4 6-2-1-8-6-3m27-1c-3 2-2 7 2 7l4-4q-1-4-6-3m-489 3a5 5 0 1 0 6 8 5 5 0 0 0-6-8m-65 3q-2 5 4 5 4-1 3-4-3-5-7-1m160 1c-3 4 2 9 5 5q3-3 0-5-3-4-5 0m102-1q-4 7 4 7 4 0 4-4-2-7-8-3m113 1a3 3 0 1 0 5 2q-2-5-5-2m-288 2c-4 5 3 12 8 8q4-4 0-8t-8 0m363-1q-3 6 3 8l4-2c3-4-3-10-7-6m155 1q-4 6 2 9c2 1 7-2 7-5 0-4-6-7-9-4m-317 2q-3 3 0 6a5 5 0 1 0 0-6m289 0c-2 1-3 6 0 6q4 1 5-3 0-6-5-3m76 1q-4 4 2 7 5 0 5-4-1-7-7-3m34 0q-3 2-1 4c3 5 10 3 10-1s-6-6-9-3m27 0q-2 9 7 7a5 5 0 1 0-7-7m34 0q-4 5 1 6 5 0 5-5-2-4-6-1m-389 1c-4 3 0 8 5 6q4-3 0-7-2-2-5 1m69-1a4 4 0 1 0 6 5 4 4 0 0 0-6-5m-303 1q-3 6 4 8 6-1 2-7-3-3-6-1m352 0a4 4 0 1 0 5 7c5-5 0-10-5-7m-84 2c-2 1-3 6 0 7 4 2 7-4 4-7zm124 4q-4 3 0 6 3 4 7 0c3-4-3-10-7-6m-502 1q-4 4 0 6a4 4 0 1 0 0-6m187-1q-3 4 1 6 5 1 6-2c1-4-4-7-7-4m109 1a3 3 0 1 0 4 0zm227 1c-3 4 1 9 5 5a4 4 0 1 0-5-5m-486 2q-3 3 0 5 4 4 8 0c3-5-4-10-8-5m202 0v4c2 4 7 1 7-3q-2-5-7-1m-35 1-3 2c-2 5 5 8 8 4a4 4 0 0 0-2-6zm188 0a4 4 0 1 0 6 6 4 4 0 0 0-6-6m-296 3q-3 3-1 7 4 1 6-3 1-6-5-4m65 1q-3 5 3 6 3 0 3-3-1-6-6-3m102 0q-3 5 2 8 4 0 5-6-3-5-7-2m193 1q-3 4 3 6 4-1 3-6-2-4-6 0m257-1a4 4 0 1 0 7 5 4 4 0 0 0-7-5m-23 1q-2 3 1 5 4 2 5-1c2-4-3-7-6-4m-552 1a4 4 0 1 0 4 6 4 4 0 0 0-4-6m295 0a4 4 0 1 0 6 5 4 4 0 0 0-6-5m117 1q-4 5 3 8 4 0 6-4-1-7-9-4m98 1c-3 1-2 6 0 7q5 2 6-1c5-4-1-9-6-6m-313 3q-1 5 3 6c4 1 7-4 4-7q-4-3-7 1m27-1c-2 3 2 8 5 6a4 4 0 1 0-5-6m49 0c-3 3 1 9 5 7a4 4 0 1 0-5-7m256 0a5 5 0 0 0 0 7q6 3 8-3-2-6-8-4m-66 2a5 5 0 1 0 6 0q-4-3-6 0m-112 2a4 4 0 1 0 5 5 4 4 0 0 0-5-5m-422 1q-2 4 1 6 7 2 8-3c0-3-6-5-9-3m447 1q-3 6 4 7c5 0 7-5 3-7q-3-3-7 0M6 471q-4 2-1 6 2 3 4 1c5-2 3-9-3-7m324 1q-4 4 3 8 5-1 6-5c0-4-7-6-9-3m-276 0q-3 5 3 6 3 1 3-2c2-4-3-7-6-4m207 2q-4 5 1 6c5 0 7-5 3-7q-2-2-4 1m-142 1q-4 4 1 7 6 0 4-5-2-3-5-2m87 0a4 4 0 1 0 8 1q-3-3-8-1m276 3q-3 1-1 4a4 4 0 1 0 1-4m-181 1c-4 2 0 9 4 6q5-3 2-6t-6 0m-125 1q-3 3-1 5c4 3 10-1 7-5q-3-4-6 0m323 2q-4 6 4 7 6-1 3-7-3-4-7 0m99-1q-4 3 0 8a5 5 0 1 0 0-8m-203 5a3 3 0 1 0 5 3 3 3 0 0 0-5-3m34 1q-1 5 2 5a3 3 0 1 0-2-5m142 0c-3 3 0 8 4 7a4 4 0 1 0-4-7m-431 3q-4 5 2 6 4-1 4-4l-4-4zm15-1q-4 5 2 6 5 0 5-5-3-3-7-1m-80 2q-4 3 0 7c2 4 8 2 8-3q-1-8-8-4m249-1q-3 6 4 7 5-1 3-6-3-3-7-1m416 1q-4 5 1 8c6 1 9-5 5-8q-3-4-6 0m-721 1q-3 2-1 6 5 3 8-3c1-5-4-6-7-3m388 1q-2 3 1 6 8 0 5-6zm227 0a5 5 0 1 0 6 1q-3-3-6-1m-94 2q-2 6 4 8c4 0 5-5 2-7q-3-3-6-1m170 1q-1 6 4 7l3-2a4 4 0 1 0-7-5m-520 0a4 4 0 1 0 6 5 4 4 0 0 0-6-5m-72 3q-2 6 3 7 5-1 3-6-2-3-6-1m402 0q-3 5 3 6 3 0 3-3a3 3 0 0 0-6-3m61 2c-5 4 0 10 5 7q4-1 0-7-2-4-5 0m-365 2c-4 3 0 10 4 7a4 4 0 0 0-4-7m234 0q-4 4 0 7c5 2 9-3 5-6q-3-3-5-1m154 1q-3 2 0 6c2 4 10 2 10-2 0-5-6-8-10-4m-263 0q-2 3 1 5 7 1 5-5zm-66 1q-4 4 2 7 7-1 3-6-3-3-5-1m91 1q-3 5 4 6a3 3 0 1 0 0-7zm128 2q-4 4 3 4t4-4-7 0"
        mask="url(#16282281824-posters-1720553917958-vertical-mask)" itemprop="medium" fill-opacity="0.90"
        fill-rule="evenodd" stroke="none" fill="url(#16282281824-posters-1720553917958-vertical-medium)"></path>
      <!---->
      <path id="16282281824-posters-1720553917958-bold"
        d="M30 1q-2 3 1 5 8 2 6-4c0-2-6-3-7-1m40 1q-4 6 0 7c5 3 9-3 5-7q-2-4-5 0m152 1q0 3 4 3t4-3q1-4-4-3-5-1-4 3m77 0q0 3 4 3t4-3q1-4-4-3-5-1-4 3m-170 7q-4 4 2 5 3 0 3-3-1-6-5-2m561 0v4a4 4 0 1 0 0-4m-440 2q1 4 4 5 5-2 3-5v-1l-3-1zm-103 1q-3 5 3 5 5-2 2-5-2-5-5 0m251-1q-3 3-1 6a4 4 0 1 0 1-6m29 1a4 4 0 1 0 5 0q-3-3-5 0m37 0q-4 2 0 5 5 4 7 0 0-8-7-5m-123 4q-3 3 0 5 6 4 8-2-2-10-8-3m180 8q-2 6 3 7 6-1 4-6-3-4-7-1m-151 2q-4 5 0 7 5 1 7-4-1-7-7-3m-141 1q-2 2-1 6c2 2 8 0 8-3s-5-5-7-3m-121 2q-2 4 3 6 5 3 6-4c0-5-7-6-9-2m67 0a5 5 0 1 0 8 0q-3-3-8 0m534 0c-2 2 1 7 4 7q6-2 2-6-3-3-6-1m-417 2q-4 5 3 6 3 0 3-4-1-6-6-2M88 33c-3 2 0 7 4 7 4-1 4-7-1-8zm477 4q-2 6 4 6 3 0 3-4 1-4-3-3zm-250 9c-3 4 1 9 5 6 5-2 3-7-1-7zm321 1q-2 3 1 4 5 4 6-3-3-6-7-1M6 54q-3 5 3 6 3 0 3-3-1-6-6-3m486 2q-2 4 4 5a4 4 0 1 0-4-5m-306 2q-2 3 3 5 5 0 5-5-3-4-8 0m157 1q-5 6 2 7 4 0 4-4 0-8-6-3m371 2q-4 6 4 8 4-1 2-7-2-3-6-1M75 62a4 4 0 1 0 7 1q-3-3-7-1m297 2a4 4 0 1 0 4 0q-1-3-4 0m231 0a4 4 0 1 0 6 6 4 4 0 0 0-6-6m-201 1a4 4 0 1 0 5 6 4 4 0 0 0-5-6m-142 1q-3 5 3 6 4 1 3-2-1-6-6-4m249 6q-5 5 3 6a3 3 0 1 0-3-6m238 0q-4 4 3 5 5 0 3-5-2-3-6 0M24 74q-3 5 3 6 3 0 3-2-1-4-3-5zm24 1q-2 5 3 5 4 1 4-5c0-3-7-3-7 0m119 5q-2 4 4 6 5-1 3-5-4-3-7-1m456 0q-3 5 2 6 5 0 5-5-3-3-7-1m-391 4q-2 4 4 4c5-1 5-7 0-7q-3 0-4 3m65-1a4 4 0 1 0 6 4 4 4 0 0 0-6-4m262 1q-3 4 0 6 5 2 5-4-1-6-5-2m-456 1c-2 0-1 6 1 6q5 2 5-1 1-7-6-5m315 0q-2 6 2 7 7 0 6-4-2-7-8-3m-286 8q-4 3 0 5c4 2 8-3 5-6q-2-2-5 1m-71 0q-4 2-3 6h7q3-6-4-6m426 4q-5 5 1 6 5 0 3-5-1-3-4-1m-95 4c-4 3 0 10 4 7q4-3 0-8-2-2-4 1m-146 3q-4 4 1 7a4 4 0 1 0-1-7m115 1a4 4 0 0 0 6 6c3-4-2-9-6-6m-146 7q0 3 3 5c4 1 7-5 3-6q-4-2-6 1m293 2q3 7 8 3 3-5-4-6-5-1-4 3m58-2a4 4 0 1 0 6 6 4 4 0 0 0-6-6m-410 2a4 4 0 1 0 3 7 4 4 0 0 0-3-7m179 0a4 4 0 1 0 4 1q-1-3-4-1m-260 3q-4 4 0 6a4 4 0 1 0 0-6m650 2q-3 5 2 7c3 0 8-4 7-6s-7-3-9-1m-355 2c-4 4 1 7 5 4q3-1 1-4-2-4-6 0m-85 2a5 5 0 1 0 6 6 5 5 0 0 0-6-6m-53 3q-3 5 3 6 4 1 3-2-1-7-6-4m-60 1-1 4q3 6 7 1 2-9-6-5m236 1q-2 5 2 6 5 0 5-4c0-3-5-4-7-2m166 3q-3 5 3 6 3 0 3-2-1-4-3-5zm-320 1a4 4 0 1 0 7 5c1-4-4-8-7-5m92 2q-4 5 3 7 6-1 4-7-3-5-7 0m358 2c-2 2-1 7 2 7q4 0 4-5-1-3-6-2m-686 2q-4 4 0 6a4 4 0 1 0 0-6m483 3q-2 5 1 5 5 1 5-2-1-7-6-3m226 3c-4 4-1 9 4 6q4-2 0-6-2-3-4 0m-428 2q-1 4 2 5 5 0 5-3c0-4-5-5-7-2m-172 4q-1 9 5 5 4-4-2-7-3-1-3 2m402-1c-3 4 1 10 5 9q5-2 3-8-3-4-8-1m-268 6q-2 5 2 8 4 1 4-5-2-6-6-3m142 1q-2 3 3 5 4 0 4-4-3-5-7-1m287-1q-5 4 0 7 2 2 4-1 5-4 0-6zm-366 1q-3 3-1 7 6 3 9-2-1-7-8-5m-180 2q-3 4 1 5a4 4 0 1 0-1-5m-44 1q-2 1-2 4c1 4 8 4 8-1q-1-4-6-3m471 4q-3 1-1 5 2 3 6 1v-7l-2-1zm161 2q-2 3 1 5a3 3 0 1 0-1-5m-383 4c-2 4 3 7 6 3q3-3 1-4-3-2-7 1m68-1q-3 5 3 6 4-1 3-5-2-4-6-1m56 3q-4 3 0 6 9 2 6-6-1-4-6 0m-451 5-4 4-2 2q1 2 4 0l3-2q6-1 4-5t-5 1m741-2q-3 3 2 6 4 3 5-4 1-4-3-3zm-315 4q-1 6 3 5c5-1 6-7 1-7q-4 0-4 2m262 3q-4 3 1 6a4 4 0 1 0-1-6m-647 1q-2 6 4 7 6-3 3-8-4-3-7 1m98 1q-2 6 2 7 5-1 3-6-2-3-5-1m64 2q-2 3 2 6 7 2 5-5c0-2-5-3-7-1m326 3q-2 3 1 6 5 0 5-4-3-5-6-2m-514 5a4 4 0 1 0 4 0zm696 3q-3 2 0 4 4 3 6 0c3-4-3-8-6-4m-399 0q-2 4 1 6 6 1 5-5-2-3-6-1m38 3q-2 2 1 6 5 3 5-4-1-4-6-2m-267 4q-1 5 3 6 5-1 4-5c0-2-6-3-7-1m27 1c-2 0-1 5 1 6q5 3 5-4-1-4-6-2m427 6c-3 1-3 6 1 7 5 1 9-5 4-7zm-370 1q-1 4 3 6a3 3 0 1 0-3-6m574 2q-3 4 0 5c4 2 8-2 4-5q-3-3-4 0m-328 3a3 3 0 1 0 6 1q-2-5-6-1m47 2q-3 5 1 6c4 1 8-6 4-7q-3-2-5 1m24 0q-2 3 3 5 4-1 4-5c0-2-5-3-7 0m215-1q-1 5 4 6 6 0 4-5c0-2-6-3-8-1m-664 5c-3 2-2 7 2 7a4 4 0 1 0-2-7m89 0q-2 3 1 5a3 3 0 1 0-1-5m311 10q-3 6 4 6 3 0 2-5-1-4-6-1m104 3v4c2 3 8 3 8-1q-2-8-8-3m52 1q-4 5 3 5 6-2 2-5-3-3-5 0m-286 8q-1 5 3 6a4 4 0 1 0-3-6m96-1q-6 4-2 7 3 3 5 0c4-3 1-9-3-7m-326 2q-3 3 2 5 6 2 4-4-2-3-6-1m27 3q-4 4 0 8 3 2 5-1 4-4 0-6-1-3-5-1m637 0q-7 2-2 7c5 3 9-3 5-6zm-580 6c-1 4 4 8 7 5v-3q2-5-3-5-3 0-4 3m548-2a4 4 0 1 0 3-1zm-180 5q-2 4 1 6c2 2 7 0 7-3q-2-7-8-3m-293 3a3 3 0 1 0 2-3q-3-1-2 3m251-2q-3 5 3 6 4 0 4-2a4 4 0 0 0-7-4m63 1q-4 3 0 6a4 4 0 1 0 0-6m-502 8a4 4 0 1 0 7 0c0-3-6-3-7 0m306-1q-4 7 4 7a4 4 0 1 0-4-7m152 1q-4 4 1 6 6 0 3-5-1-3-4-1m155 3q-3 4 1 5 6 1 3-5-3-4-4 0m-530 3a3 3 0 1 0 3-3q-4-1-3 3m120-1a4 4 0 1 0 6 3 4 4 0 0 0-6-3m46 1a4 4 0 1 0 5 0zm443 4q-3 4 2 7 7 1 4-5-4-5-6-2m-674 3v8a5 5 0 1 0 0-8m515 3a4 4 0 1 0 4 6 4 4 0 0 0-4-6m-563 4v4a4 4 0 1 0 0-4m584 0q-5 9 4 7 5-3 3-7-3-4-7 0m-222 1c-3 2-2 7 1 7a4 4 0 1 0-2-7m269 3a4 4 0 1 0 6 6 4 4 0 0 0-6-6m20 1a4 4 0 1 0 6 1q-3-3-6-1m-485 3a4 4 0 1 0 6 6 4 4 0 0 0-6-6m216 5q-1 7 5 4a3 3 0 1 0-5-4m19 0q-3 4 2 7 5 0 6-5-3-5-8-2m306 2q0 10 6 5 3-2 1-4c-1-4-6-4-7-1m-377 4q-3 2 0 4 3 5 5 0 2-3-1-4-2-3-4 0m-304 1q-4 5 1 8 6-1 5-7-2-5-6-1m482 3q-4 3-2 6h4l2-1q5-1 1-5zm-160 5q-1 5 3 6c5 0 6-7 0-8q-3 0-3 2m377 0c-3 3 0 8 5 6q5-1 0-5-3-3-5-1m-469 3v3c1 3 6 2 7 0 1-4-6-7-7-3m315-1a4 4 0 1 0 6 5 4 4 0 0 0-6-5m25 1q-4 4 1 5 7-1 4-6-3-2-5 1m-190 2v4a4 4 0 1 0 0-4m252 4q-2 3 3 5 5-2 3-6c0-2-5-1-6 1m-424 0q-3 4-1 6c2 1 7-1 7-3q-1-5-6-3m107 13q-4 5 2 6 4 0 3-5-2-3-5-1m144 3q-3 5 2 6 6-1 3-5-2-3-5-1m-101 2c-1 2 0 7 2 7 3 0 5-7 2-8q-1-2-4 1m-245 2q-3 5 3 5 4-1 2-5-3-3-5 0m225 1q3 6 7 2 3-5-4-5-4-1-3 3m85 0q-2 3 1 5 5 2 5-3c0-2-5-4-6-2m216 1q-1 5 4 5l3-3c0-4-5-5-7-2m-421 0q-4 4 2 6 4-1 3-4 0-3-5-2m-183 3q-2 6 4 5 4-2 3-6-4-2-7 1m234 0v4q4 4 6 0c2-4-3-8-6-4m215-1a3 3 0 1 0 3 0zm68 0a4 4 0 1 0 6 0zm-147 2a4 4 0 1 0 7 4 4 4 0 0 0-7-4m-424 5 1 4c3 3 8 0 7-4l-4-2zm680 5a4 4 0 1 0 7 0zm-313 5a4 4 0 1 0 7 1q-3-3-7-1m98 1q-2 3 1 4 5 4 6-3-3-5-7-1m70 0q-4 7 5 5 4-2 1-6-3-3-6 1m-228 1a4 4 0 1 0 7 0c0-3-7-3-7 0m-190 3q-3 5 2 6 6 1 4-5-4-5-6-1m443 0a4 4 0 1 0 6 5q2-9-6-5m-73 3q-1 4 4 5 4-1 3-5c0-3-6-2-7 0m27 0a4 4 0 1 0 4 6 4 4 0 0 0-4-6m-65 2c-4 3 0 8 5 6 3-1 3-6-1-7q-3-2-4 1m260 0q-3 4 2 5 5 0 4-4-4-4-6-1m-529 3q-4 4 1 6c4 1 7-5 3-7q-2-2-4 1m-22 1q-2 3 1 5 6 2 4-4-3-5-5-1m329 10a4 4 0 1 0 3-1zm125 2q-1 6 3 7 5-1 3-6-4-3-6-1m71 5q-4 4 0 7c4 2 10-3 7-7q-4-4-7 0m25 0q-2 2 1 4 3 3 6 0v-4q-2-3-7 0m-503 1q-5 3 1 8c4 2 7-4 3-7q0-3-4-1m99 6q-2 4 3 5a3 3 0 1 0 0-7zm83 0a4 4 0 1 0 6 4 4 4 0 0 0-6-4m52 0-1 3q-1 4 3 3 6 1 4-5-1-3-6-1m216 4q-4 3 0 7 6 3 7-5-2-6-7-2m-126 5q-3 2-1 4 6 3 7-2-1-6-6-2m100 0q-2 4 4 5 3 0 3-3c0-4-5-5-7-2m-135 0q-3 5 2 7 6-1 5-6-3-3-7-1m-92 2q-2 0 1 4 4 3 6-1 1-5-7-3m-185 5q-4 3 0 5 4 1 5-2 1-7-5-3m252 0q-3 7 3 7 8-1 3-7-4-4-6 0m-352 0q-1 5 3 7c5 2 7-3 3-7zm593 1q-2 5 3 6 6 1 4-5-3-3-7-1m-517 7q-3 6 1 7t5-5q-1-5-6-2m-45 1c-3 0-3 5 0 6q6 0 5-3a3 3 0 0 0-5-3m490 2q-1 4 5 5c4 0 4-6-1-7q-3 0-4 2m-187 1a4 4 0 1 0 7 0zm-423 3q-3 7 5 7 3-1 3-4-2-7-8-3m197 4q-2 5 4 5 5-2 4-5c-1-3-7-3-8 0m-174 1q-4 8 6 8 4-3 0-8-3-3-6 0m363 0q-4 3 0 5c5 2 8-4 4-6q-2-2-4 1m154 1-1 3q1 5 7 4c6-3 1-10-6-7m-316 1a3 3 0 1 0 3 0zm365 0q-4 4 1 7 8 0 3-6-2-3-4-1m62 1q-4 7 3 7 6 0 4-6-3-5-7-1m-29 1q-3 2 2 5c4 3 8-2 5-6q-3-2-7 1m-328 0q-3 5 3 6 3 0 3-4 0-5-6-2m118 1q-3 3-1 5c4 3 10-2 6-5q-3-3-5 0m-352 0a4 4 0 1 0 6 4 4 4 0 0 0-6-4m391 6q-2 4 3 6a4 4 0 1 0-3-6m-464 3q-3 5 3 6 7-1 3-6-2-4-6 0m356 2q-4 6 3 5c2-1 3-6 0-6q-2-2-3 1m-191 1q-2 6 4 5 5-1 4-6-5-2-8 1m511 3c-1 4 4 7 7 4v-4q-4-4-7 0m-163 2a5 5 0 0 0 0 7 5 5 0 0 0 7 0 5 5 0 0 0 0-7 5 5 0 0 0-7 0m97 3q-2 4 4 5 5-1 4-5-3-4-8 0m20 2a4 4 0 1 0 7 4 4 4 0 0 0-7-4m-67 0q-2 6 4 7 5 1 4-6c-1-2-7-3-8-1m-532 4q-4 5 3 5 5 1 4-2c0-5-5-7-7-3m447 0q-3 5 3 6 4 0 4-2a4 4 0 0 0-7-4M5 474q-1 4 2 4 5 0 5-5c-1-3-7-3-7 1m324-1c-2 4 5 8 8 5v-5q-4-4-8 0m-122 3q-3 2-1 3 5 5 8 0c1-4-4-7-7-3m94 3q-4 2 0 5 5 2 6-3a4 4 0 0 0-6-2m199 3q-3 5 2 6a4 4 0 1 0-2-6m98 1-2 3 1 2 3 1q4 0 4-3-1-7-6-3m-522 8a4 4 0 1 0 5 7 4 4 0 0 0-5-7m249 0a4 4 0 1 0 6 3c2-2-4-5-6-3m415 0a4 4 0 1 0 7 4q-1-6-7-4m-721 3q-1 4 3 4c5-1 5-7 0-7q-3 0-3 3m615 0q-2 3-1 7a4 4 0 1 0 5-6l-1-1zm-93 1c-2 3 0 8 4 7q4-2 0-6-2-3-4-1m170 0a4 4 0 1 0 5 6 4 4 0 0 0-5-6m-131 7q-1 8 6 6c2-2 1-8-3-8zm26 1q-5 2-2 7 6 5 9 0 1-9-7-7m-391 2a3 3 0 1 0 5 3 3 3 0 0 0-5-3m234 0v3c2 4 8 1 7-3q-3-4-7 0m-175 1q-2 5 3 6a3 3 0 1 0-3-6m93 0q-3 5 3 6 3 0 3-2-1-4-3-5z"
        mask="url(#16282281824-posters-1720553917958-horizontal-mask)" itemprop="bold" fill-opacity="0.90"
        fill-rule="evenodd" stroke="none" fill="url(#16282281824-posters-1720553917958-vertical-bold)"></path>
    </pattern>
    <rect id="16282281824-posters-1720553917958-pattern-render" fill="url(#16282281824-posters-1720553917958-pattern)"
      width="100%" height="100%"></rect>
  </defs>
  <radialGradient id="lightbar" cx="50%" cy="200%" fy="0" r="201%">
    <stop offset="0%" style="stop-color: rgb(255, 255, 255); stop-opacity: 0.1;"></stop>
    <stop offset="10%" style="stop-color: rgb(0, 0, 0); stop-opacity: 0.1;"></stop>
    <stop offset="30%" style="stop-color: rgb(0, 0, 0); stop-opacity: 0.3;"></stop>
    <stop offset="90%" style="stop-color: rgb(0, 0, 0); stop-opacity: 0.55;"></stop>
    <stop offset="100%" style="stop-color: rgb(0, 0, 0); stop-opacity: 0.6;"></stop>
  </radialGradient>
  <g class="radial">
    <radialGradient id="16282281824-posters-1720553917958-radial" gradientUnits="userSpaceOnUse">
      <stop itemprop="radial" stop-color="#e1e1e0" offset="0%"></stop>
      <stop itemprop="radial" stop-color="#dfdedd" offset="15%"></stop>
      <stop itemprop="radial" stop-color="#dfdedd" offset="30%"></stop>
      <stop itemprop="radial" stop-color="#dfdedd" offset="45%"></stop>
      <stop itemprop="radial" stop-color="#dcdcdb" offset="60%"></stop>
      <stop itemprop="radial" stop-color="#dcdcdb" offset="75%"></stop>
      <stop itemprop="radial" stop-color="#dad9d8" offset="90%"></stop>
    </radialGradient>
    <radialGradient id="16282281824-posters-1720553917958-radial-background" gradientUnits="userSpaceOnUse">
      <stop stop-color="#d3cec5" offset="0%"></stop>
      <stop stop-color="#d3cec5" offset="15%"></stop>
      <stop stop-color="#d3cfc5" offset="30%"></stop>
      <stop stop-color="#d3cec5" offset="45%"></stop>
      <stop stop-color="#d3cfc5" offset="60%"></stop>
      <stop stop-color="#d3cfc5" offset="75%"></stop>
      <stop stop-color="#d3cfc5" offset="90%"></stop>
    </radialGradient>
    <radialGradient id="16282281824-posters-1720553917958-radial-light" gradientUnits="userSpaceOnUse">
      <stop stop-color="#9b9a97" offset="0%"></stop>
      <stop stop-color="#9b9a97" offset="15%"></stop>
      <stop stop-color="#9b9a97" offset="30%"></stop>
      <stop stop-color="#9b9a97" offset="45%"></stop>
      <stop stop-color="#9b9a97" offset="60%"></stop>
      <stop stop-color="#9b9a97" offset="75%"></stop>
      <stop stop-color="#9c9a96" offset="90%"></stop>
    </radialGradient>
    <radialGradient id="16282281824-posters-1720553917958-radial-regular" gradientUnits="userSpaceOnUse">
      <stop stop-color="#82807d" offset="0%"></stop>
      <stop stop-color="#82807d" offset="15%"></stop>
      <stop stop-color="#82817d" offset="30%"></stop>
      <stop stop-color="#82807d" offset="45%"></stop>
      <stop stop-color="#82817d" offset="60%"></stop>
      <stop stop-color="#82817d" offset="75%"></stop>
      <stop stop-color="#83817c" offset="90%"></stop>
    </radialGradient>
    <radialGradient id="16282281824-posters-1720553917958-radial-medium" gradientUnits="userSpaceOnUse">
      <stop stop-color="#514f4d" offset="0%"></stop>
      <stop stop-color="#514f4d" offset="15%"></stop>
      <stop stop-color="#51504d" offset="30%"></stop>
      <stop stop-color="#514f4d" offset="45%"></stop>
      <stop stop-color="#51504d" offset="60%"></stop>
      <stop stop-color="#51504d" offset="75%"></stop>
      <stop stop-color="#51504d" offset="90%"></stop>
    </radialGradient>
    <radialGradient id="16282281824-posters-1720553917958-radial-bold" gradientUnits="userSpaceOnUse">
      <stop stop-color="#2f2e2d" offset="0%"></stop>
      <stop stop-color="#2f2e2d" offset="15%"></stop>
      <stop stop-color="#2f2e2d" offset="30%"></stop>
      <stop stop-color="#2f2e2d" offset="45%"></stop>
      <stop stop-color="#2f2e2d" offset="60%"></stop>
      <stop stop-color="#2f2e2d" offset="75%"></stop>
      <stop stop-color="#2f2f2d" offset="90%"></stop>
    </radialGradient>
  </g>
  <g class="vertical">
    <linearGradient id="16282281824-posters-1720553917958-vertical" gradientUnits="userSpaceOnUse" x1="0" x2="0" y1="0"
      y2="100%">
      <stop itemprop="vertical" stop-color="#e1e1e0" offset="0%"></stop>
      <stop itemprop="vertical" stop-color="#dfdedd" offset="15%"></stop>
      <stop itemprop="vertical" stop-color="#dfdedd" offset="30%"></stop>
      <stop itemprop="vertical" stop-color="#dfdedd" offset="45%"></stop>
      <stop itemprop="vertical" stop-color="#dcdbdb" offset="60%"></stop>
      <stop itemprop="vertical" stop-color="#dcdcda" offset="75%"></stop>
      <stop itemprop="vertical" stop-color="#dad9d8" offset="90%"></stop>
    </linearGradient>
    <linearGradient id="16282281824-posters-1720553917958-vertical-background" gradientUnits="userSpaceOnUse" x1="0"
      x2="0" y1="0" y2="100%">
      <stop stop-color="#cdcccb" offset="0%"></stop>
      <stop stop-color="#cdcccb" offset="15%"></stop>
      <stop stop-color="#cdcccb" offset="30%"></stop>
      <stop stop-color="#cdcccb" offset="45%"></stop>
      <stop stop-color="#cdcccb" offset="60%"></stop>
      <stop stop-color="#ceccca" offset="75%"></stop>
      <stop stop-color="#ceccca" offset="90%"></stop>
    </linearGradient>
    <linearGradient id="16282281824-posters-1720553917958-vertical-light" gradientUnits="userSpaceOnUse" x1="0" x2="0"
      y1="0" y2="100%">
      <stop stop-color="#ae9f84" offset="0%"></stop>
      <stop stop-color="#ae9f84" offset="15%"></stop>
      <stop stop-color="#ae9f84" offset="30%"></stop>
      <stop stop-color="#ae9f84" offset="45%"></stop>
      <stop stop-color="#ae9f84" offset="60%"></stop>
      <stop stop-color="#ae9f84" offset="75%"></stop>
      <stop stop-color="#ae9f84" offset="90%"></stop>
    </linearGradient>
    <linearGradient id="16282281824-posters-1720553917958-vertical-regular" gradientUnits="userSpaceOnUse" x1="0" x2="0"
      y1="0" y2="100%">
      <stop stop-color="#82807d" offset="0%"></stop>
      <stop stop-color="#82807d" offset="15%"></stop>
      <stop stop-color="#82807d" offset="30%"></stop>
      <stop stop-color="#82807d" offset="45%"></stop>
      <stop stop-color="#82807d" offset="60%"></stop>
      <stop stop-color="#83817c" offset="75%"></stop>
      <stop stop-color="#83817c" offset="90%"></stop>
    </linearGradient>
    <linearGradient id="16282281824-posters-1720553917958-vertical-medium" gradientUnits="userSpaceOnUse" x1="0" x2="0"
      y1="0" y2="100%">
      <stop stop-color="#514f4d" offset="0%"></stop>
      <stop stop-color="#514f4d" offset="15%"></stop>
      <stop stop-color="#514f4d" offset="30%"></stop>
      <stop stop-color="#514f4d" offset="45%"></stop>
      <stop stop-color="#514f4d" offset="60%"></stop>
      <stop stop-color="#51504d" offset="75%"></stop>
      <stop stop-color="#51504d" offset="90%"></stop>
    </linearGradient>
    <linearGradient id="16282281824-posters-1720553917958-vertical-bold" x1="0" x2="0" y1="0" y2="100%">
      <stop stop-color="#2f2e2d" offset="0%"></stop>
      <stop stop-color="#2f2e2d" offset="15%"></stop>
      <stop stop-color="#2f2e2d" offset="30%"></stop>
      <stop stop-color="#2f2e2d" offset="45%"></stop>
      <stop stop-color="#2f2e2d" offset="60%"></stop>
      <stop stop-color="#2f2e2d" offset="75%"></stop>
      <stop stop-color="#2f2e2d" offset="90%"></stop>
    </linearGradient>
  </g>
  <g class="horizontal">
    <linearGradient id="16282281824-posters-1720553917958-horizontal" x1="0" x2="100%" y1="0" y2="0"
      gradientUnits="userSpaceOnUse">
      <stop itemprop="horizontal" stop-color="#dfdedd" offset="0%"></stop>
      <stop itemprop="horizontal" stop-color="#dfdedd" offset="15%"></stop>
      <stop itemprop="horizontal" stop-color="#dfdedd" offset="30%"></stop>
      <stop itemprop="horizontal" stop-color="#dcdcdb" offset="45%"></stop>
      <stop itemprop="horizontal" stop-color="#dad9d8" offset="60%"></stop>
      <stop itemprop="horizontal" stop-color="#dcdbdb" offset="75%"></stop>
      <stop itemprop="horizontal" stop-color="#dcdcdb" offset="90%"></stop>
    </linearGradient>
    <linearGradient id="16282281824-posters-1720553917958-horizontal-background" gradientUnits="userSpaceOnUse" x1="0"
      x2="100%" y1="0" y2="0">
      <stop stop-color="#cdcccb" offset="0%"></stop>
      <stop stop-color="#cdcccb" offset="15%"></stop>
      <stop stop-color="#cdcccb" offset="30%"></stop>
      <stop stop-color="#cdcccb" offset="45%"></stop>
      <stop stop-color="#ceccca" offset="60%"></stop>
      <stop stop-color="#cdcccb" offset="75%"></stop>
      <stop stop-color="#cdcccb" offset="90%"></stop>
    </linearGradient>
    <linearGradient id="16282281824-posters-1720553917958-horizontal-light" gradientUnits="userSpaceOnUse" x1="0"
      x2="100%" y1="0" y2="0">
      <stop stop-color="#9b9a97" offset="0%"></stop>
      <stop stop-color="#9b9a97" offset="15%"></stop>
      <stop stop-color="#9b9a97" offset="30%"></stop>
      <stop stop-color="#9b9a97" offset="45%"></stop>
      <stop stop-color="#9c9a96" offset="60%"></stop>
      <stop stop-color="#9b9a97" offset="75%"></stop>
      <stop stop-color="#9b9a97" offset="90%"></stop>
    </linearGradient>
    <linearGradient id="16282281824-posters-1720553917958-horizontal-regular" gradientUnits="userSpaceOnUse" x1="0"
      x2="100%" y1="0" y2="0">
      <stop stop-color="#968669" offset="0%"></stop>
      <stop stop-color="#968669" offset="15%"></stop>
      <stop stop-color="#968669" offset="30%"></stop>
      <stop stop-color="#968969" offset="45%"></stop>
      <stop stop-color="#968669" offset="60%"></stop>
      <stop stop-color="#968669" offset="75%"></stop>
      <stop stop-color="#968a69" offset="90%"></stop>
    </linearGradient>
    <linearGradient id="16282281824-posters-1720553917958-horizontal-medium" gradientUnits="userSpaceOnUse" x1="0"
      x2="100%" y1="0" y2="0">
      <stop stop-color="#5d5341" offset="0%"></stop>
      <stop stop-color="#5d5341" offset="15%"></stop>
      <stop stop-color="#5d5341" offset="30%"></stop>
      <stop stop-color="#5d5541" offset="45%"></stop>
      <stop stop-color="#5d5341" offset="60%"></stop>
      <stop stop-color="#5d5341" offset="75%"></stop>
      <stop stop-color="#5d5641" offset="90%"></stop>
    </linearGradient>
    <linearGradient id="16282281824-posters-1720553917958-horizontal-bold" gradientUnits="userSpaceOnUse" x1="0"
      x2="100%" y1="0" y2="0">
      <stop stop-color="#2f2e2d" offset="0%"></stop>
      <stop stop-color="#2f2e2d" offset="15%"></stop>
      <stop stop-color="#2f2e2d" offset="30%"></stop>
      <stop stop-color="#2f2e2d" offset="45%"></stop>
      <stop stop-color="#2f2e2d" offset="60%"></stop>
      <stop stop-color="#2f2e2d" offset="75%"></stop>
      <stop stop-color="#2f2e2d" offset="90%"></stop>
    </linearGradient>
  </g>
  <g class="masks">
    <mask id="16282281824-posters-1720553917958-pattern-mask" maskUnits="userSpaceOnUse"
      maskContentUnits="userSpaceOnUse">
      <pattern id="pattern" x="0" y="0" width=".0133" height=".0144" viewBox="0 0 23.07 40">
        <path
          d="M17.62 0l-6.07 10.5m2.74 4.76L8.22 4.75m-5.48 0h12.13M.01 0h23.07M6.07 20L0 9.5m2.74-4.75l-6.07 10.5m-5.48 0H3.33m8.2 4.75L0 .02-11.54 20m40.68 0L23.07 9.5m2.74-4.75l-6.06 10.5m-5.49 0H26.4M34.6 20L23.08.02 11.53 20m-5.46 0L0 30.51m2.74 4.75l-6.07-10.5m-5.48 0H3.33m8.2-4.75L0 40l-11.54-19.98zM17.6 40l-6.06-10.5m2.74-4.76L8.2 35.25m-5.48 0h12.13M0 40h23.07L11.54 20.01m17.6 0l-6.07 10.5m2.74 4.75l-6.06-10.5m-5.49 0H26.4M11.53 20h23.08L23.07 40"
          stroke-linecap="round" stroke-width="3.5" stroke="white"
          fill="url(#16282281824-posters-1720553917958-horizontal-background)"></path>
      </pattern>
      <rect width="100%" height="100%" fill="url(#pattern)"></rect>
    </mask>
    <mask id="16282281824-posters-1720553917958-horizontal-mask" maskUnits="userSpaceOnUse"
      maskContentUnits="userSpaceOnUse">
      <rect width="100%" height="100%" fill="url(#16282281824-posters-1720553917958-horizontal-background)"></rect>
    </mask>
    <mask id="16282281824-posters-1720553917958-radial-mask" maskUnits="userSpaceOnUse"
      maskContentUnits="userSpaceOnUse">
      <rect width="100%" height="100%" fill="url(#16282281824-posters-1720553917958-radial-background)"></rect>
    </mask>
    <mask id="16282281824-posters-1720553917958-vertical-mask" maskUnits="userSpaceOnUse"
      maskContentUnits="userSpaceOnUse">
      <rect width="100%" height="100%" fill="url(#16282281824-posters-1720553917958-vertical-background)"></rect>
    </mask>
  </g>
  <use href="#16282281824-posters-1720553917958-pattern-render"></use>
  <g>
    <use href="#16282281824-posters-1720553917958-background"></use>
    <use href="#16282281824-posters-1720553917958-light"></use>
    <use href="#16282281824-posters-1720553917958-regular"></use>
    <use href="#16282281824-posters-1720553917958-medium"></use>
    <use href="#16282281824-posters-1720553917958-bold"></use>
  </g>
  <g itemprop="animation">
    <animate href="#16282281824-posters-1720553917958-light" attributeName="stroke-opacity" repeatCount="indefinite"
      dur="5s" values="0.9;0.0;0.9"></animate>
    <animate href="#16282281824-posters-1720553917958-regular" attributeName="stroke-opacity" repeatCount="indefinite"
      dur="4s" values="0.9;0;0.9"></animate>
    <animate href="#16282281824-posters-1720553917958-medium" attributeName="stroke-opacity" repeatCount="indefinite"
      dur="5s" values="0.9;0;0.9"></animate>
    <animate href="#16282281824-posters-1720553917958-bold" attributeName="stroke-opacity" repeatCount="indefinite"
      dur="3s" values="0.9;0;0.9"></animate>
    <animate href="#16282281824-posters-1720553917958-regular" attributeName="fill-opacity" repeatCount="indefinite"
      dur="8s" values="0.9;0.75;0.95;0.8;0.9;"></animate>
    <animate href="#16282281824-posters-1720553917958-radial-background" attributeName="cx" repeatCount="indefinite"
      dur="34s" values="0%;33%;100%;0%;100%;0%;"></animate>
    <animate href="#16282281824-posters-1720553917958-radial-background" attributeName="cy" repeatCount="indefinite"
      dur="55s" values="0%;100%;33%;100%;66%;0%"></animate>
    <animate href="#16282281824-posters-1720553917958-vertical-light" attributeName="x1" repeatCount="indefinite"
      dur="55s" values="0%;33%;100%;0%;133%;0%;"></animate>
    <animate href="#16282281824-posters-1720553917958-vertical-light" attributeName="y1" repeatCount="indefinite"
      dur="86s" values="0%;100%;33%;100%;66%;0%"></animate>
    <animate href="#16282281824-posters-1720553917958-horizontal-regular" attributeName="x1" repeatCount="indefinite"
      dur="34s" values="0%;100%;66%;0%;33%;133%;0%"></animate>
    <animate href="#16282281824-posters-1720553917958-horizontal-regular" attributeName="y1" repeatCount="indefinite"
      dur="55s" values="0%;66%;100%;33%;100%;66%;0%"></animate>
    <animate href="#16282281824-posters-1720553917958-vertical-medium" attributeName="x1" repeatCount="indefinite"
      dur="34s" values="0%;100%;66%;0%;33%;133%;0%"></animate>
    <animate href="#16282281824-posters-1720553917958-vertical-medium" attributeName="y1" repeatCount="indefinite"
      dur="55s" values="0%;66%;100%;33%;100%;66%;0%"></animate>
    <animate href="#16282281824-posters-1720553917958-vertical-bold" attributeName="x1" repeatCount="indefinite"
      dur="34s" values="0%;100%;66%;0%;33%;133%;0%"></animate>
    <animate href="#16282281824-posters-1720553917958-vertical-bold" attributeName="y1" repeatCount="indefinite"
      dur="55s" values="0%;66%;100%;33%;100%;66%;0%"></animate>
  </g>
</svg>
