<svg id="16282281824-posters-1720558130647" itemscope="" itemtype="/posters"
  itemid="/+16282281824/posters/1720558130647" viewBox="0 0 769 512" preserveAspectRatio="xMidYMid meet" tabindex="0"
  class="animate landscape" xmlns="http://www.w3.org/2000/svg">
  <!---->
  <defs class="graphic">
    <pattern id="16282281824-posters-1720558130647-pattern" width="769" height="512" viewBox="0 0 769 512"
      patternUnits="userSpaceOnUse" preserveAspectRatio="xMidYMid meet">
      <rect itemprop="background" width="769" height="512" tabindex="-1"
        id="16282281824-posters-1720558130647-background" fill-opacity="1"
        fill="url(#16282281824-posters-1720558130647-radial-background)"></rect>
      <!---->
      <path id="16282281824-posters-1720558130647-light"
        d="m40 8-2 6q1 4-7 4-7 0-7 5 0 3 8 4l6 1v5c1 11 10 11 10 0q-1-7 6-6 6-1 8-4-2-4-8-5-7 1-6-6-2-12-8-4m69-1-1 4q-1 9-6 7-7 1-9 4 1 5 7 5 7-1 6 6c2 11 10 11 10 0q-1-7 7-6 14-2 0-8-8-1-7-7c0-5-5-9-7-5m68 0-2 6q1 6-8 6c-8 2-6 9 3 9q6 0 5 7 0 7 5 7 5-1 5-9-1-5 6-5 6-1 8-5 0-2-7-3-8-1-7-7-2-10-8-6m69 1-2 6q0 6-7 6-6 0-6 4 1 4 7 4t6 6q0 8 4 8 5 0 5-7 0-6 7-7 6 0 8-3 0-5-8-5-5 1-6-6-3-12-8-6m71-1-3 5c-1 8-1 8-5 8q-8 0-8 4 1 5 9 5 4 1 4 7 1 8 6 6 4-1 4-8 0-5 8-6 13-3-2-8-7 1-6-7-1-8-7-6m68 3-2 5q1 6-5 5c-9 1-9 7-1 9q7 1 6 6c2 11 10 11 10 0q-1-6 9-7c9-1 7-7-2-7q-7 0-7-7-2-9-8-4m70-1-2 6q1 7-7 6-6 0-6 4 1 4 8 5 5 0 5 7 2 9 8 6l1-6q-1-8 7-7c9 0 11-7 1-9h-6l-2-10c0-3-5-4-7-2m69 0-1 4q0 8-6 8-7 1-8 4 0 6 6 5 7-1 7 6c0 11 9 12 9 1q0-6 8-7c7 0 8-6 1-7q-11 0-9-8-1-10-7-6m69 1-1 6q0 7-7 7-12 3 0 8 7-1 7 8c0 6 6 9 7 3 2-11 2-10 8-12 10-1 9-7-1-7q-5 1-5-3-3-15-8-10m70 1q-2 1-2 5 0 7-6 7-7 1-8 5c1 2 7 4 10 4q4 2 4 5c-1 1 0 7 2 8q7 2 7-9 0-5 8-5c10 0 8-6-2-8l-5-1-1-5q-1-10-7-6m70 0-2 6q-1 7-7 7-12 3 0 8 7-1 6 7 0 7 4 8 5-1 5-8 1-7 5-7 3 1 7-2 4-4-5-6-7 1-7-7 0-9-6-6M40 74l-2 5q0 7-8 7-6 0-6 5l9 3q6 1 5 9 0 4 2 5 6 3 8-8c0-5 0-5 8-6 8-2 6-8-2-8q-7 0-6-7-2-11-8-5m68 0-2 6q1 7-6 6-10 1-6 7l7 2 5 1v5c0 12 8 11 10 0l1-5 4-1c12-1 12-8 1-9h-5l-1-6q0-6-2-7-3-2-6 1m69 0-2 7-1 5h-5c-11 2-9 10 3 10q3-1 2 6c2 11 10 11 10 0q0-6 5-6c3 0 9-3 9-4q0-5-8-6h-5v-5q-1-10-8-7m68 2-2 6q1 6-7 5l-4 2q-4 5 4 7 9 0 7 7 2 9 6 7 3 1 4-7t6-7c10 0 11-6 1-8l-6-2-1-4q-2-11-8-6m70 0-1 4q0 7-7 8l-7 3q0 4 7 5 6 0 7 7 0 9 5 8 3-1 3-6c2-8 2-9 8-9q9 0 8-4 0-3-8-4-7 1-7-6-2-10-8-6m70 1-2 5q-1 5-6 6c-9 0-10 7-1 8q8 1 7 8c0 9 7 10 8 1q1-10 9-9c9 0 9-6 0-7q-9 0-7-5-2-12-8-7m70 0-3 6q0 6-7 6c-8 0-8 6 1 8q7 2 6 5c1 12 10 14 10 2l1-5 6-2c10-2 9-8 0-8q-8 1-7-6 0-10-7-6m68 1-2 6q1 6-6 5-6 1-7 4 1 5 7 5 7-1 6 7 1 9 7 7 4-2 3-8-1-7 6-6 7-1 8-5l-8-4-5-1-1-5q-2-11-8-5m70 0-3 6q1 7-5 6-6 0-7 4 0 4 9 5 3-1 3 5c1 11 9 13 9 3q-1-8 8-9 14-3 1-8c-8-1-8-1-8-6l-3-6zm68 3-1 5q1 4-6 5l-5 2q-4 5 5 6 6-1 6 9 0 6 4 5 4 1 4-6 1-9 7-8c10 0 11-6 1-8q-7-1-7-8c0-5-6-7-8-2m70-2-1 6c-1 5-1 5-9 6-8 2-6 8 2 8q7-1 6 7 0 8 5 8 4-1 5-10 1-5 10-5c6 0 5-6-2-7-8-1-8-1-8-6q-1-10-8-7M40 140l-2 4q1 9-11 10c-7 1-3 8 4 8q7-1 6 7 0 8 4 8 6 0 6-8 0-7 7-7l5-2q6-5-5-6-7 0-7-7-1-9-7-7m68 2-2 4q0 7-6 8c-10 1-11 8-1 8q6-1 7 7 1 9 3 8 5 0 6-7 0-8 7-8 8 0 7-5-1-3-9-3-5 1-5-7-1-9-7-5m68 1-2 6q0 4-7 6-6 0-6 4-1 3 7 4l6 2v5q1 10 5 8 5-3 5-10 0-4 5-5 13-1 7-6-1-2-5-2-8 1-7-6-2-11-8-6m139 1q-2 2-3 9 0 2-5 2c-10 1-10 8 0 9l4 1 2 6q1 9 4 8 5 0 5-8 0-7 8-7l6-2q6-4-7-7-6 1-7-7 0-10-7-4m-71-1-1 6-1 6h-5q-7 1-7 4 1 4 8 5 5 0 5 8 0 7 4 7 5-2 6-8-1-6 5-7 8-1 8-5-1-3-9-4-4 1-4-5 1-8-6-7zm140 1-2 5q0 7-6 7c-9 0-10 7-1 8q7 1 7 7 1 8 4 8 5 0 5-7-1-8 7-8 15-3 2-8c-7 0-7-1-9-7q-1-7-4-6zm69 1-1 5q0 6-7 7c-9 1-7 8 2 8q6 0 5 7c1 11 8 10 9-1l1-6h5q13-1 7-6l-6-2q-7 1-7-6-2-12-8-6m69 0-1 7-1 5h-5c-9 1-11 7-3 8q8 0 9 8 0 8 4 7 5 0 5-7 0-8 8-8c8 0 8-6-1-7q-7-1-7-8-2-9-8-5m70 1q-2 1-2 5 0 7-7 7-8 1-6 6l3 1 6 1q4 0 3 8 1 6 5 7 5-1 5-10c0-4 0-4 8-6 8-1 7-7-1-7q-6 1-7-6t-7-6m69 1-2 4q0 7-4 7-7 1-9 5 2 3 8 4 4-1 4 6c1 12 9 12 10 1 1-6 0-6 10-8q11-5-7-8-3 1-3-5-1-11-7-6m69 0-1 5q1 6-7 7-13 5 0 8c6 2 7 2 7 8q0 7 5 7 2 1 4-7c1-7 1-7 6-8q8 1 7-5 0-2-5-3-9 1-8-5-1-11-8-7M38 211l-1 5q0 5-6 5-8 0-8 5l10 4 4 1v5q0 9 5 8 4 1 5-12l2-2c12 0 15-8 3-9q-5 0-5-3-3-13-9-7m68 1-1 4q0 5-6 5c-10 0-10 8 1 9q3-1 5 6 1 10 4 9 5 1 6-8-1-8 6-7c11 0 9-7-1-9-5-1-5-1-6-9-1-4-7-4-8 0m69-1-2 5q0 5-5 5-8 2-8 5-1 4 7 5 7-1 6 8l2 5q6 6 8-5 1-9 4-8c13 0 14-8 2-9q-6 0-7-8c-1-4-6-6-7-3m69 0-2 5q0 7-8 7-5 1-5 4-1 3 7 4l5 1v4c1 12 10 15 10 3q-1-8 8-8c10-1 10-7 1-8q-8 0-8-7-2-6-5-6zm140 1-3 6q0 5-5 5c-6 0-10 6-4 8 9 2 8 1 9 7 1 13 10 12 10-1q-1-6 11-6 3 0 3-3 1-4-7-5l-6-1-1-4q-2-11-7-6m-68 0q-3 1-4 6 0 6-6 5-6 1-7 4 0 4 7 4 7-1 6 7 1 10 6 8 4-2 4-9-1-7 7-6 8 0 7-4 1-3-5-3-9-1-9-5-1-9-6-7m137 0-2 6q0 6-7 6-5 0-6 4c0 2 6 5 9 5q4-1 5 9 0 6 4 5 3 2 4-6c2-8 2-8 4-8 3 0 10-2 10-4q1-4-7-5h-5l-1-5q-3-11-8-7m68 2-1 4q0 6-5 6-6 1-8 4 1 5 7 5t6 7c0 11 7 11 9 0q1-8 6-7c10 0 11-6 2-8q-8-1-7-5-1-9-5-8zm70 0-2 5q1 4-6 6-13 5-1 8 8 0 7 8 0 7 5 7 3 1 4-8 0-7 7-7c8-1 10-7 1-7q-7 1-7-5-3-13-8-7m68 1-1 5q0 6-7 6-5 1-6 4 0 2 7 4 7 1 6 7 0 8 6 7 3 1 3-7 1-8 7-7 7 0 8-5 0-3-8-3-6 1-7-6-3-10-8-5m71 0-3 6q0 6-5 5c-9 1-10 7-2 8q9 0 7 7 1 10 7 8 3-1 3-10c1-3 1-3 10-5q10-5-3-8-7 0-7-7-1-9-7-4M39 277q-2 2-2 6 1 7-6 6-8 1-8 4 0 4 6 4 7-1 7 7 1 9 5 7 3 0 4-3c2-10 2-11 8-11q5 0 6-4 0-4-8-4-5 1-5-7l-3-5zm67 1-2 5q1 7-5 6c-10 0-12 7-3 8q9 1 8 7 0 5 3 7 5 5 7-6-1-7 8-7c10-2 6-9-5-9l-2-2c-2-10-2-10-5-11zm69 0-3 8q1 4-6 4-6 0-6 5 0 4 8 4h4v5q0 8 5 9 6 0 5-7 0-7 4-7c12 0 14-8 2-9l-5-1-1-4q0-11-7-7m68 2-2 5q0 6-4 5-8 1-8 5 1 4 7 4 6-1 5 7 1 7 6 7 4-1 4-8 0-6 7-6c10 0 9-8 0-8q-8-1-7-6-2-11-8-5m70-1-1 6q1 5-8 6c-7 2-6 8 2 8q5-1 6 7c1 10 9 10 9 0q-1-7 7-7 9-1 8-4 1-3-7-4-8 1-8-6-1-10-8-6m70 1-2 5q1 7-8 7c-8 1-8 7 0 7q7 0 8 8 0 8 5 7 3 1 4-8l2-5 5-2c10-1 11-7 2-7q-7 0-8-7-2-10-8-5m69 0-2 6q1 7-7 6-5 0-5 4 0 5 9 5 4-1 3 5 1 9 4 8 5 0 5-4-1-9 6-10h5l3-1q4-6-8-7-5 1-5-7-2-9-8-5m70 0-2 3q0 9-6 9-7 1-8 5 2 3 9 4 3 0 5 9c1 9 8 7 8-2q0-6 6-7c8 0 11-5 4-7-10-3-9-2-10-7q-1-9-6-7m68 1-1 6q0 7-7 6c-8 0-8 7 1 8q4 1 5 4l1 5c1 7 8 5 8-1q0-7 7-8c11-1 10-7 0-8q-7 0-7-6-1-10-7-6m70 1-2 4q0 7-7 8-7 2-7 4c0 1 6 4 9 4q6 1 5 7 0 6 4 7 3 0 5-10l1-4h5c10 0 12-6 2-8q-9 0-8-6l-2-6q-2-3-5 0m68 1-1 5q0 6-7 7c-8 1-8 7 0 7q7 0 7 7c0 12 8 10 9-1q-1-4 6-5c10-2 11-8 3-8q-9 0-9-7-2-11-8-5M36 346l-1 5q-1 7-4 5c-1-1-9 2-9 3q0 5 7 6 7-1 6 7 0 7 5 7t5-8q0-7 7-6 7-1 7-5c-1-2-7-4-10-4q-4 0-4-6c0-6-6-9-9-4m70 0-2 6-3 4q-12 3-11 4 0 5 6 5 8-1 8 7t4 8 5-7 8-8c8-1 8-7-1-8q-8 1-7-6-1-11-7-5m68 0-2 6q1 4-6 6c-10 1-9 7 0 8q7 0 6 8 0 5 2 6 6 3 8-7l1-5 5-2q10-1 7-6l-4-2q-9 0-9-6-2-11-8-6m69 0-2 6q0 6-6 6c-10 1-10 8 0 9q5-1 5 5c2 9 10 10 10 1q-1-6 8-7c9-2 9-8 0-8q-7 0-8-7-2-11-7-5m70 1-2 4q0 7-5 7-7 1-8 5 0 3 9 4 5 1 3 5l1 5c2 8 9 6 9-3q-1-8 7-7c10-1 9-7-1-9q-5 1-5-6-2-10-8-5m69 1-2 6q1 5-5 5c-11 1-11 7 1 9l4 1v5q0 9 5 8t5-10q-1-5 5-4 16-4 1-9-7 0-6-5-2-11-8-6m69 1-1 5q1 4-3 5-17 5-3 9 7-1 6 8 0 6 5 6 4 0 4-7-1-8 6-7 7 0 8-5 0-2-7-3-7 0-7-7-2-10-8-4m69-1-1 6q0 7-8 6-6 1-5 4-1 4 6 4 6 0 6 7 1 8 6 8 4 0 3-6 0-10 8-9c9 0 9-6 0-7q-8-1-7-7-2-10-8-6m69 2-2 6q0 5-6 5c-6 0-9 5-3 7q9 2 9 6c0 3 2 9 4 9q4 1 5-7c0-6 0-6 8-8 10-1 9-7-1-7q-6 1-7-6-2-11-7-5m69 1-1 5q0 4-4 5c-3 0-9 3-9 4q0 3 9 5 3 0 4 6c1 10 7 11 8 1q0-8 5-7c12 0 14-7 3-9q-8 1-8-7-3-9-7-3m71-1-3 6q1 6-5 6-9 2-7 6l5 2q7 0 7 5 0 8 5 9 3 1 4-7l2-6 4-1c8 0 10-5 3-7-8-2-8-2-8-4l-1-5q-1-6-6-4M37 412l-2 6q0 7-7 6l-5 2-2 2 2 2 6 3 5 1 1 5q1 9 4 8 5 0 6-9v-5l5-1c11-1 9-8-2-8q-3 0-4-8-1-9-7-4m69 0-3 6q1 7-5 6l-4 1h-1q-3 0-4 4 1 4 7 4 8-1 7 7 0 7 5 7 3 1 5-8-1-7 6-6 7-1 6-5c0-2-6-4-10-4q-3 1-2-5 0-11-7-7m67 1-2 6-1 5-7 2q-12 4 2 8 7 0 6 6c0 7 6 11 9 5v-3q-1-6 6-8c9 0 12-7 3-8q-9-1-8-8-2-9-8-5m69 1-2 6q0 5-7 6c-8 1-7 8 1 8q7 0 6 7c0 9 8 10 10 1 1-8 1-8 5-8 11 0 13-8 3-8q-8 0-8-7-2-11-8-5m140 0q-2 1-2 5 0 7-6 7c-8 0-9 7-2 9q8 0 7 7c1 9 8 9 10 0q1-8 6-7c11 0 11-7 0-8q-6 0-5-5-2-13-8-8m-70 1-2 6q0 5-6 5c-7 0-9 7-1 8q7 1 7 8a5 5 0 1 0 9 0q0-9 7-8 8 0 8-5-1-2-9-3-4 1-6-7-2-9-7-4m139 0-2 6q1 7-6 6l-6 2q-5 4 5 6 8 2 7 8 0 7 5 7 4 0 4-6-1-8 7-8c10-2 10-9 0-9q-7 1-6-6-3-12-8-6m69 1-2 5c0 4-5 8-7 6l-7 5c0 1 6 4 9 4q6 0 5 8l1 5q6 3 8-7-1-7 6-6 16-2 1-8-8 0-7-7-1-10-7-5m68 1-1 5q0 6-7 7c-8 1-8 6 1 7q6 1 5 3-1 12 6 11 4-1 4-10 0-3 9-4 4 1 5-3t-6-4q-8 1-8-5-2-13-8-7m69 1-2 7q0 4-4 4-7 0-8 4l9 4q4-1 3 5 1 8 5 8 5 0 5-7-1-7 6-6 8 0 8-4t-8-4q-6 0-6-6c0-8-6-11-8-5m71-2-2 6q-1 8-6 7-7 0-8 5 1 2 6 3 7 1 8 8 1 6 4 7 3-1 4-8-1-6 9-7 12-4-1-7-9 0-8-8-1-9-6-6M36 480l-2 6q1 7-5 6-7 0-8 5 1 2 7 3 6 0 6 8v4h10v-5q0-8 8-7c8 0 6-6-2-8q-7 1-6-6-2-12-8-6m68 0-1 4q0 9-9 9c-5 0-7 5-2 7l5 1q6 0 6 8-1 4 4 3 5 1 5-5 0-5 5-5 17-5 1-9l-5-2-1-5q-2-11-8-6m69 0q-2 1-2 7t-6 6c-10 1-9 9 2 9q3-1 3 6v4h11v-5l1-4 4-1c11-2 10-8 0-9h-4l-1-5q-2-11-8-8m68 1-1 6q-1 7-6 6-6 1-8 4 1 5 7 5 7 1 7 7l-1 3h6q6 1 5-2-3-8 5-8c11 0 11-7 1-9l-5-1-1-4c0-7-6-11-9-7m69 4-1 5q0 3-6 4l-6 2q-1 4 4 6 9 1 8 6v4h10v-3q0-7 7-7c8-1 10-6 3-7-9-2-9-2-10-7q-1-8-5-7-3-1-4 4m70-1-2 6q0 4-9 5c-5 1-3 6 2 7q7 2 7 6v4h10v-3q-1-7 7-6c9-2 11-8 2-8q-8 1-8-7-1-8-5-7-3 0-4 3m71 0-2 4q0 7-6 7-9 0-7 5 1 3 5 3 7 1 7 7-1 3 5 2h5v-4q0-4 3-4 10-1 10-3 2-5-8-6-6 1-5-6-1-10-7-5m68-1-2 5q0 8-5 7c-10 0-10 8-1 9q6 0 5 4 0 5 6 4 6 1 5-3-1-5 6-5c10 0 10-7 0-8q-8 0-7-9-1-7-7-4m68 2-1 6q1 6-7 5c-6 0-8 6-3 7l6 2q3 0 3 4 1 4 6 3 6 1 5-3-1-5 5-5 16-3 3-8c-8-1-8-1-8-4 0-8-6-12-9-7m70 1-2 6-1 3-6 2q-5 1-4 4-1 3 4 3 7 2 7 6-1 2 5 2 6 1 5-3t6-4c10 0 10-8 0-8q-7 1-7-6-1-11-7-5m69 1-2 6q1 4-6 5c-9 1-8 7 1 7q6 0 5 5 0 3 5 2 6 1 5-2 0-4 7-5c9-1 9-7 0-7q-7 0-7-7-1-8-5-7z"
        mask="url(#16282281824-posters-1720558130647-horizontal-mask)" itemprop="light" fill-opacity="0.90"
        fill-rule="evenodd" stroke="none" fill="url(#16282281824-posters-1720558130647-vertical-light)"></path>
      <!---->
      <path id="16282281824-posters-1720558130647-regular"
        d="m40 9-1 5q-1 6-7 5c-2-1-7 2-7 3q1 4 7 4 7 1 7 7 0 9 6 7 3-1 2-5 0-8 7-9 12-3 2-7-9-1-8-6c0-7-6-10-8-4m70-3-2 7-2 6h-5q-8 1-7 4-1 2 7 3 7 0 6 8 1 8 6 6l2-8q3-7 7-5c2 0 7-2 7-4q0-2-7-3l-5-1-1-5q-1-8-5-8zm68 1-2 6q-1 7-7 7t-6 3q0 4 5 4 8 0 8 8c1 9 7 8 8-1q0-7 6-7c10-1 11-7 1-7q-7 1-7-7-2-10-6-6m68 2-1 5q1 7-7 6c-9 1-9 6 0 7q7 1 7 8l1 6q4 3 7-7 0-7 5-6 7 0 9-4-1-3-9-4-5 1-5-6c0-5-5-9-7-5m71 0-2 4q0 7-4 7-8 1-9 4 0 4 6 4 7 1 7 7c-1 5 5 10 7 5l1-5q1-7 7-7c8 0 9-5 2-6q-9-2-9-8-1-10-6-5m139 1-2 6q1 6-9 6c-6 1-4 7 2 7q6 1 7 7 1 7 4 7 4 0 4-8 0-7 7-6c8 0 9-5 1-7q-9 0-8-7 1-5-2-6-4-2-4 1m-71 0-1 5c-1 5 0 4-9 7q-7 3 1 6l6 1 2 5q1 9 4 8 4 0 4-6 0-7 8-8 14-3 0-6c-6-1-6-2-8-7q-3-9-7-5m139 0-1 5q0 7-7 7l-5 2-2 2 2 2 5 2q7 0 7 8c1 9 8 7 8-2q-1-7 7-6c8-2 9-7 1-7q-8 0-8-7t-4-7zm69 2-1 5q0 6-6 6t-6 4 6 3 6 7c1 10 7 9 8 0q-1-7 8-7 12-4-1-6-6 1-7-8-3-9-7-4m70 0-1 5q0 7-7 7c-9 1-8 7 0 7q7 0 6 7c0 9 6 10 8 1 1-7 1-8 8-8q14-3 0-7-9 0-8-6l-1-5c0-2-5-3-5-1m69 0-1 6q0 7-7 6-12 4 0 7 7-1 7 8c0 9 6 9 7 0 1-7 2-7 7-8 8-1 9-6 1-6q-6 1-8-8t-6-5M40 74l-1 4q0 8-7 8c-9 0-10 6-1 7 7 1 6 1 7 8 2 9 9 9 9 0q-1-8 6-7 12-3 4-7c-11-2-10-2-10-7q0-7-4-7zm69 1-2 4q0 7-4 7-8 1-9 4 0 4 5 4 7 0 8 7c1 10 7 11 8 1q0-8 7-8c9 0 9-6 0-7q-8-1-7-7 0-6-4-7zm68 0-1 5q0 8-8 8-12 3 0 7 8 0 7 7c0 7 8 11 8 4l1-5q-2-4 7-6 12-4 0-8-8-1-7-6 0-6-4-7zm68 2-1 5q0 6-6 6c-8 0-9 5-2 7q9 0 8 8c0 8 6 10 7 1q0-9 8-8 15-4 2-8c-8-1-8-1-9-5q-2-13-7-6m71 0-2 5q1 6-6 6-7 2-7 4l8 4q6 0 5 7c0 10 7 10 8 0q0-8 9-8 7 0 6-3-1-4-7-3-7 1-8-7-1-9-6-5m69 1-2 5q0 5-3 5c-8 0-12 5-6 7l6 2q3 0 3 3 1 10 3 10 5 3 5-6t7-8 8-3q0-3-7-4-7 0-7-7-2-9-7-4m69 1-1 5q0 5-7 5c-8 0-8 6 1 8 5 1 5 1 7 10q0 4 3 4 5 0 5-10-1-4 6-4 15-4 1-7c-7-1-7-2-8-8q-3-9-7-3m69 0-1 5q0 4-7 6c-8 1-8 6 0 7q7 1 7 9 0 5 4 6 4 0 4-7 0-8 8-8c8 0 8-5-1-7q-7 0-7-5c-1-8-1-8-3-8zm70 0-2 6q0 6-7 6c-8 0-8 6 0 7q8 0 7 7c0 10 7 10 8 0q-1-8 8-8c8-1 8-6-1-6q-7 0-7-6-1-10-6-6m69 0-1 6q0 7-7 6-5 1-6 4 1 2 7 3t5 8c1 10 8 9 8 0q0-8 8-8c8 0 9-5 0-6q-8-2-8-8-1-8-6-5m69 3-1 4q1 5-6 6c-9 1-9 6 0 7q7 0 6 9c0 7 6 7 8 0q-1-9 8-9 13-3-1-7-8-1-7-7c0-6-5-8-7-3M39 142l-1 3q2 9-7 9-6 1-7 3 2 5 8 5 6-2 5 7 2 12 7 6l2-5q0-8 6-8 7 0 8-4 0-4-8-4-5 1-6-8c0-6-5-8-7-4m69 1-2 5q0 7-7 6l-6 3q-2 4 7 5 6 0 6 7 1 7 4 8 4-1 4-7 0-8 7-8 6 0 7-4 0-3-6-3-9 0-8-7-1-10-6-5m68 0-2 6q1 6-4 6c-10 1-11 6-2 7l6 2v5q1 9 5 8 3 1 4-7 0-8 7-8c9-1 8-7-1-7q-6 0-6-6-1-10-7-6m68 1-1 6c-1 5 0 4-9 6-6 2-3 7 4 7q5 0 5 7c0 11 8 12 9 1q0-8 6-8c10 0 10-5 1-7q-8-1-7-6-2-10-8-6m71 0-2 6q0 6-7 6-5 1-6 4 1 2 7 3 6 0 7 8 0 8 3 7 5-1 5-9-1-5 8-6c8-1 10-6 2-6q-11 0-10-10-3-6-7-3m69 0-1 5q0 7-7 8c-8 1-8 6 0 7q7 0 7 8 0 9 5 6 3-2 3-10c0-3 0-3 9-5q6 0 5-3 1-3-6-3-8 1-8-8 0-6-4-6zm69 3-1 5q0 5-5 5c-8 0-10 5-2 7l6 2 1 5c1 10 7 11 8 1q2-9 8-8c10 0 9-6-1-7q-8 0-7-6c2-6-5-10-7-4m70-1-1 2q0 9-7 10-13 3-1 7 7 0 7 8 1 6 4 7 4 0 4-7 0-8 7-8 13-1 3-6-10-2-9-7-1-10-7-6m69 1-1 5q0 7-7 7-13 4 0 6 7 0 6 8c0 10 6 10 8 0q0-8 8-8c8-1 8-6 0-6q-7 0-7-6-2-8-5-7zm69 0-1 4q-1 7-6 8c-8 0-9 5-2 7q9 0 7 8c1 10 7 10 8-1 1-6 1-6 9-7q11-4 1-6c-9-2-9-2-9-6q-1-10-7-7m70 1-2 5q-1 7-9 7-3 0-3 2-2 4 5 5 8-1 7 7 1 10 6 7l2-6q0-8 8-8 12-4 0-7-9 1-8-8 0-5-3-5zM39 210l-2 6-1 5-5 1q-15 3-1 6 8 0 7 8 0 7 5 7 3 1 3-6-1-8 8-8 13-4 1-7-9-1-8-5-1-11-7-7m68 0-1 6q-1 6-7 6-6 1-7 4 1 2 7 3 6-1 6 8 1 12 7 6l2-6q0-8 8-8c8-1 6-7-3-7q-5 1-5-6-2-10-7-6m69 2-2 5q1 4-7 6c-9 1-9 7 0 7q6 0 7 8 2 9 6 6 2 0 2-6 1-8 8-8t7-4-7-3q-8-2-8-8a4 4 0 0 0-6-3m68 0-1 5q0 6-7 6c-9 0-9 6 0 8q7-1 6 7c0 11 8 11 9 0q0-8 4-7c12-1 15-8 4-8q-8 0-8-7a5 5 0 0 0-7-4m140 0-1 2q0 9-6 10c-9 1-10 7-1 7q7 0 6 7 2 9 6 8 2 0 2-7 0-9 8-8 7 0 7-4-2-3-9-3-5 0-6-6-1-10-6-6m-70 2-1 4q0 5-5 5c-10 0-11 7-1 8l4 1 2 6c1 10 8 10 8 0q0-7 6-7c12 0 12-6 0-8q-5 1-7-7-2-6-6-2m139-1-1 6c-2 5-2 5-10 6q-5 3-1 6l3 1h3q4 0 5 7 3 15 8 0-1-8 7-7 14-4 0-7-8 0-7-6-1-10-7-6m70 0-3 5q0 8-6 7c-7 0-9 6-1 7q7 0 8 9c1 9 6 8 7-1 1-6 1-7 9-8q11-4 1-6-8-1-9-6-1-9-6-7m68 1-2 6q0 6-5 5-7 2-6 5-1 2 8 3 4 0 3 6c0 10 7 12 8 2q1-9 7-8c7 0 10-6 2-7q-9 1-9-9-2-6-6-3m69 2-1 4q0 6-6 6-6 1-7 4 1 2 6 3 6 0 7 7 1 9 3 8 5-1 5-9 0-5 5-5c7 0 12-5 7-6-11-2-10-2-12-8q-4-9-7-4m70-1-1 5q0 6-7 7-9 1-6 5 1 2 6 2 7 0 6 8 1 6 4 7 4 0 4-7 0-8 7-8c8 0 10-5 2-7q-9-1-8-6-1-10-7-6m-622 62q-3 0-3 7 0 5-8 6c-8 0-8 6 0 7q8 0 8 8c1 9 8 9 8-1q0-7 7-7c10 0 9-6-1-7l-5-1-1-6q0-8-5-6m-70 1-1 6v5h-6c-10 1-10 7-1 8q7-1 7 8 0 6 4 6 4-1 4-8 0-6 7-6 14-4 0-8-8 0-7-6-1-8-7-5m138 0-3 6q0 7-7 7c-7 0-8 5-1 7q9 0 8 6c0 11 7 11 8 2 1-7 2-7 9-8q13-4-2-7-7-1-6-4-1-12-6-9m68 2-2 6q1 4-7 5-11 4 0 7 8 1 7 7c0 10 7 11 9 1q0-9 7-8c2 1 7-2 7-3 0-2-7-5-8-4-1 2-6-2-6-6 0-6-5-9-7-5m69 1-1 5q1 5-6 6c-9 0-7 7 3 7q2 1 3 7c0 9 7 9 8 1q-1-8 9-8c9-2 9-7 0-7q-8 1-8-5-2-12-8-6m70-1-1 5q1 6-8 7c-8 1-8 7 1 7q5 0 6 5 1 9 4 10 4-1 5-10 0-5 7-5 7-1 7-3 0-3-7-4-7 0-7-6-1-10-7-6m70 1-2 4q1 8-5 7-8 0-8 3 1 5 8 5c4 0 4 0 6 9l2 5q4-1 5-8-1-7 8-7 12-2 0-6-8-1-8-8l-2-4q-1-3-4 0m68 0-1 5q0 7-6 7-6 1-7 4 1 3 7 3t6 8q1 8 4 6 3-1 4-8 1-5 7-6 6 0 6-3t-6-3q-7 0-7-6-1-10-7-7m69 1-1 5q0 7-7 7c-7 0-7 5 0 7q7 0 7 7c0 8 6 8 8 0 1-6 1-7 8-8q12-3-1-6-8 0-7-5-1-11-7-7m70 1-2 5c-1 5-1 5-8 7l-5 3q1 2 7 3t6 7c0 9 6 9 7 1 2-7 2-7 8-8 9-1 10-6 1-6q-8 0-8-7-1-10-6-5m70 0-2 5q0 7-7 7c-8 1-7 7 1 7q6 0 6 9c0 7 5 8 7 1q1-9 4-9l5-1q5 0 5-4 0-3-7-3-6 1-6-5-1-10-6-7M38 346l-2 5q1 7-7 6-14 3 0 8 8-1 7 6c0 11 6 11 8 0l2-5 5-2q6 0 7-2 0-4-7-5-6 1-6-6-2-11-7-5m68 0-1 5q0 7-8 7-7 0-6 3 1 4 6 4 6-3 8 8c0 10 7 8 7-1q1-7 7-7c8 0 9-6 1-7q-8-1-7-6-1-10-7-6m68 1-2 6q0 4-3 4c-8 2-8 3-8 5q-1 3 5 3 7 1 6 7 0 8 5 8 4 0 4-8-1-7 7-6 7-2 7-4 0-4-7-4t-7-6c0-6-5-9-7-5m69-1-2 6q0 7-6 6l-5 2q-5 5 6 6 4-1 5 6 4 13 9 1-1-8 8-8c8-1 8-6-1-7q-8 1-7-6-1-10-7-6m69 4-1 5q0 3-5 4-12 3-2 7 7 1 7 6 0 7 3 9 5 1 5-6 0-10 8-9 13-1 3-6c-9-2-9-2-10-8q-4-12-8-2m70-2-1 5q0 7-8 7-5 0-4 3c0 2 0 3 8 4q4 1 3 5 0 10 5 9 3 1 3-5c2-8 2-8 8-10 8-1 8-6 0-6q-6-1-7-6-1-10-7-6m71 0q-2 1-2 5 0 7-6 7-12 1 0 7l5 2 1 5c1 10 7 11 7 2q-1-8 6-9c10-1 11-6 2-7q-7 0-7-5-1-9-6-7m68 1-2 6q-1 6-7 6-5 1-6 3 1 4 7 4 5 1 6 6c0 10 6 11 8 2q-1-9 6-8l6-1q5-4-5-6-6 0-7-7c0-5-5-9-6-5m68 2-1 4q0 5-5 6-6 1-8 3 1 4 6 4 6 0 7 8 3 13 8 0-1-8 9-8l5-1q2-5-6-5t-8-7c0-5-6-9-7-4m70-1-2 6q0 7-7 6-11 4 1 7 6 0 6 7 1 7 4 7 4 0 4-8-1-7 8-6 14-3 0-7-9 0-8-7-1-9-6-5m70 2-2 4q0 6-7 7-11 3 0 6 6 1 7 7c1 8 7 10 7 2q1-8 6-9 6 1 8-3 0-2-7-3-6 0-7-7 0-9-5-4M37 413l-2 7q0 5-5 5-7 1-8 3 0 3 7 4c5 1 5 1 7 10 1 7 8 5 8-3q-1-7 8-8 11-2-1-5-8-2-7-7c0-7-5-11-7-6m68 1-1 6q0 5-7 5c-9 2-10 7-1 7q6-1 8 8 0 7 3 6 4 2 4-6 2-8 8-8c8 0 8-5 0-6q-8 0-7-7c0-7-5-10-7-5m69 0-2 6q0 5-7 6c-8 1-7 7 0 7q6-1 7 7c1 9 7 10 8 1q0-8 7-8c9 0 9-6 1-7q-8-1-8-8-1-9-6-4m69-1-2 6q-1 7-6 7c-10 0-9 6 0 8q6-1 5 7c1 8 7 10 8 1q2-9 7-8 9-2 8-4 0-4-7-4-6 1-7-7t-6-6m70 2-2 4q0 7-7 8c-8 1-7 7 2 7q4 0 5 7c0 7 6 10 7 3q1-11 6-10 8 0 9-4 0-3-6-3-8 0-8-7l-2-5q0-3-4 0m69 0-2 6q0 6-7 6-7 1-5 5l4 2q8 0 8 8c1 8 7 8 8 0 1-7 2-7 8-8q7 0 6-3 1-3-7-4-8 0-7-10l-2-3q-4-2-4 1m69 1-1 6q-1 5-9 6l-4 3q-3 1 8 4c3 2 4 2 5 8q1 7 4 6 3 1 3-6 0-8 9-9 12-3-1-6-8-1-7-6c0-7-5-11-7-6m69 1-1 5q-1 6-9 6c-6 1-6 6 0 7q9 1 8 6 0 8 4 8t4-7 7-7 7-3-6-3-8-6c-1-8-1-8-3-8q-3 0-3 2m70-1-2 5q0 8-7 8c-7 0-8 5-1 7q8 0 7 7c0 9 6 10 8 0q-1-8 7-7c10-1 10-6 1-7q-9 1-8-6-1-9-5-7m69 1-2 4q0 8-7 8c-7 2-7 7 1 7q5 0 6 7 0 6 3 7 4-1 4-6-1-7 7-8 15-2 2-6-9-1-9-7 1-7-2-7-1-2-3 1m69 3-2 6q-1 4-6 4c-9 0-9 6-1 7q7 1 7 7 1 7 5 7 3-2 3-9 0-4 9-6 11-2-1-6l-6-1q-2-1-3-8 0-4-2-4-2-2-3 3M36 480l-1 4q1 9-6 8-12 4-2 8 8-1 7 7 0 6 5 5h4v-4q0-8 5-8c10 0 11-5 2-7q-6-1-7-7-2-11-7-6m68 2-1 5q0 6-6 6l-6 2q-3 4 5 5 7 0 7 8v4h8v-4q-1-8 7-8c10-1 8-7-1-7q-5 0-6-7-3-9-7-4m69 0-2 6q1 5-6 6c-8 0-9 5-1 7q7 0 7 7v4h9v-5q-1-5 8-6c7-2 7-7-1-7q-7 1-7-6-1-13-7-6m69 0q-2 1-2 5 0 7-7 7c-7 0-8 6 0 7q7 0 7 7v4h5q5 1 4-3-2-2 1-5 1-3 8-3 4-1 4-4 0-2-5-2-9-1-8-7 0-10-7-6m70 0-2 6q-1 8-7 6c-8 1-7 8 1 8q6 0 5 4 0 7 5 6 6 1 5-5 0-5 7-5c9-1 9-6 0-7q-9-1-8-7-1-9-6-6m69 0-2 6q0 7-7 7c-8 1-8 6 0 7q7 1 7 7-1 4 4 3 6 0 5-4-1-6 7-6c9-1 9-7 0-7q-8 1-7-6-1-10-7-7m69 3-1 5q0 5-5 5-8 1-7 4-1 4 5 4 7 1 7 7 0 3 4 2 5 1 4-3 0-7 7-6c9 0 9-6 1-7q-9 0-8-8-2-8-7-3m69 0-1 4q0 7-7 7c-7 0-8 6 0 7q7-1 6 6-1 4 5 3 5 1 4-3 0-6 8-6c8 0 8-5 0-7-8 0-8-1-9-7q1-8-3-6-3 0-3 2m69 1-2 6q0 5-7 5c-7 0-7 5 0 6q7 1 7 6-1 4 5 3 5 1 4-2-2-6 7-7c9-1 9-6 0-6q-7 0-7-7-3-11-7-4m70-1-2 7q-1 5-6 5-12 4-4 6 8 1 9 6-1 4 5 3 4 1 4-2-1-5 7-6 14-3 0-6c-6-1-7-1-8-8q0-9-5-5m69 1-2 5q0 8-7 7-8 1-4 5l5 2q6 0 6 5c0 4 8 3 8-1q1-4 9-4 5-1 5-4-1-2-10-3c-3-1-3-1-5-11q0-3-5-1"
        mask="url(#16282281824-posters-1720558130647-radial-mask)" itemprop="regular" fill-opacity="0.90"
        fill-rule="evenodd" stroke="none" fill="url(#16282281824-posters-1720558130647-horizontal-regular)"></path>
      <!---->
      <path id="16282281824-posters-1720558130647-medium"
        d="m41 7-1 4q0 8-7 8l-6 2-2 2 2 1 6 2q6 0 6 5c0 10 6 12 8 3q1-9 6-8 6-1 7-3-1-3-8-4-5 0-5-6 0-7-3-7zm68 3-1 4q1 5-7 6-13 3-1 6 8-1 8 8c0 7 5 8 6 1q1-10 7-9c10 0 9-5-1-6q-6-1-5-8-2-8-6-2m69-2-2 6q0 7-5 6l-8 2q0 3 5 4 7 0 8 5c0 11 6 14 7 4q1-9 8-9 11-1 2-5l-5-1q-5-1-5-12zm69 1-2 5q-1 7-7 7-10 2-1 5 8 3 8 8 0 6 3 7 4 0 4-7l1-5 13-3v-2q0-3-7-3-5 0-7-5-2-12-5-7m70 0-1 5q0 6-9 8-10 3 1 5 8 2 7 8c0 9 6 9 8 0q0-8 7-8 13-3 1-5-8 0-8-6 0-8-4-8zm69 1-1 5q0 6-7 7c-7 1-8 6 0 6q6 0 7 7c1 9 6 9 7 0q0-7 6-7 8 0 8-3t-7-3-7-7q-1-8-6-5m70 1-2 6q0 6-6 5-6 0-6 3 1 3 6 4 4 0 6 6l2 6q5 4 5-4t8-9q14-2 0-5c-6-1-6-1-8-8q-2-10-5-4m69 0-1 5q0 7-8 6-12 4 0 7 7 0 7 7t3 7 4-7 7-7q13-2 1-5-8-1-8-9-3-8-5-4m70 0-2 6-2 5-5 2q-7 1-6 3t5 2q8 1 8 9 0 6 2 5c3 0 3 0 4-8q0-5 11-6 6-3 0-4-10 0-10-7-2-9-5-7m69 1q-2 1-2 5 0 7-8 8-11 2 2 6 6 0 6 8 0 7 5 5l1-6q0-7 7-8l8-2q0-3-6-3-10-1-8-8l-3-6zm69 1-1 6q0 6-8 6-10 2 0 5 7 1 7 6c0 11 7 13 7 2q-1-8 6-7l6-1q3-4-5-5-7 1-7-7-1-10-5-5M40 75l-1 5q-1 6-9 7-10 2 1 6 9 0 8 8 0 9 5 5l2-5q0-8 8-8 10-2 1-6-10 0-9-8-2-8-6-4m68 1-1 5q1 5-6 6c-9 0-9 5 0 7q7 1 6 6c0 10 6 11 7 2q0-9 7-8 14-4 3-6-10 0-10-9-2-8-6-3m69-1-1 6q0 7-8 7-4 0-5 2 0 4 7 4 6 0 6 8c1 10 7 9 7-1q-1-6 7-7c8-1 8-6 0-6q-6 0-7-8 0-6-3-6zm69 2-1 2q0 9-7 10-11 3-1 5c6 1 6 2 8 9q0 7 3 6 3 1 3-6 0-9 8-8c9-1 9-6 0-6q-6 0-8-8-2-6-5-4m70 0-1 4q0 6-4 7l-5 1q-8 3 0 6 9 0 9 8 3 14 6 1l2-6c0-2 6-4 9-4l5-1q-1-4-7-4-8 1-8-7 0-6-3-6zm69 2-1 4q-1 5-6 6-8 1-6 4l4 2q8 0 8 8c0 9 6 10 7 0q0-8 7-8l6-1q2-3-3-4-10 1-10-11-3-3-6 0m70-1-1 5q0 7-8 7-12 2 1 6 8 1 7 9 1 6 4 5 3 0 3-8-1-5 8-6 10-3 1-5-9-1-9-6 0-12-6-7m69 0-1 5q0 7-7 7-12 4 0 7 6-1 7 8 0 7 3 6 3 1 3-6 1-9 7-8c9 0 10-5 0-6-5-1-5-1-6-8q-3-8-6-5m69 2-1 4q-1 7-6 7-7 1-7 3 0 3 6 3t7 8c1 9 6 9 6 0q0-8 8-8 13-1 0-6-8 1-8-7-2-7-5-4m70 0-2 5q0 7-7 7-10 2 0 5 7 1 7 9 2 10 5 4c3-12 2-11 12-13q8-2-2-5-9-1-8-7-2-8-5-5m70 0-2 4q0 8-6 8-7 1-8 3 0 3 8 3 5-1 5 9 4 12 7 0 0-8 8-8 12-4-1-6-6-1-7-9 0-6-4-4M41 141q-2 1-2 5 1 8-8 9c-9 1-8 6 1 6q5 1 6 7c0 10 6 11 8 1q-1-8 8-8 12-4 0-6-8 0-8-7 0-8-5-7m66 7q0 7-9 7-9 4 2 6 6 0 7 7 1 9 3 8 4 0 4-8 0-7 8-7 12-2 0-5-8 0-8-7t-4-7q-2-1-3 6m70-4-2 5q-1 6-9 8c-6 0-5 5 2 5q6-1 7 7c1 11 6 11 7 0q1-8 8-7l5-1q3-5-5-5-7 1-8-7-1-10-5-5m69 0-3 5q1 8-6 7-11 3 0 6 7 0 6 9c2 9 8 9 8 0q0-8 5-8 8 0 9-4-1-2-8-3-6-1-6-5c3-3-2-9-5-7m70 1-2 5q1 5-7 6c-9 2-7 7 2 7q6 0 5 9 0 5 3 6 4-1 4-7c0-4 6-12 7-9 0 2 6 1 7-1q4-4-6-4-7 1-7-8-2-9-6-4m68 1-1 5q0 7-6 6-7 1-6 4l4 2q8 0 8 8c0 9 5 9 7 0q1-9 9-8c8 0 8-5-1-6q-7 1-7-7-3-10-7-4m71 0-2 5q1 6-7 7-11 2-1 6 9 1 8 6c0 10 6 11 7 1q0-8 5-7 18-1 2-6-8 0-7-8-1-8-5-4m68 0-1 5q1 7-7 7-13 4-1 6 7 0 8 9 0 7 3 6 3 1 4-6 1-10 8-9 6 0 6-2 0-3-7-3-6 0-7-7-1-10-6-6m69 1-1 6q1 5-8 6-10 4 1 6 7-1 7 9 0 5 2 6 4 1 4-6 0-9 8-9 12-3 1-6-9 0-8-7-1-8-6-5m69 0-1 6q1 5-6 7-13 3 0 5 6 0 6 9 0 7 3 6 3 0 3-4c2-10 2-10 9-11q12-2 0-5-8 0-8-7-1-8-6-6m71 1-2 5q-1 7-7 7c-8 0-8 5-1 6q9 1 8 7c-1 10 5 11 7 2q1-10 8-9c8 0 6-5-1-6q-8 1-7-7 0-7-5-5M38 214q0 9-7 8c-9 1-9 6-1 6q8 0 8 8 0 7 3 7 4 0 4-7 0-8 8-8 12-2-1-5-8 0-7-7c0-7-5-9-7-2m69-2-1 4q0 6-7 7-13 2-1 6 8-1 8 7c1 10 6 11 7 1q0-9 8-8 4 1 5-2 1-4-5-4-7 0-8-7-2-10-6-4m68 2-1 5q1 3-6 4-13 3-1 6 7 1 7 9 0 6 5 7 2-1 3-9 0-6 8-7c8-1 8-6-1-6q-6 0-8-7-1-9-6-2m70-1-2 4q1 7-7 7-12 2-1 5 8 0 8 8t4 8q3 2 3-9 1-7 7-6c9 0 11-5 2-6q-9-1-8-6-1-8-6-5m139 0-1 5q0 6-7 6l-6 3c0 2 0 2 8 4q5 0 5 6 3 16 6 3 0-10 9-10 12-3 0-5-9-1-8-7 0-8-6-5m70 0-2 6q0 6-7 6c-8 0-7 5 1 7q7-1 7 8 3 13 6-1 1-8 8-8 13-1-1-6l-5-1-1-5q-2-10-6-6m-140 2-1 4q0 5-9 6-4 0-4 2t4 2c8 2 8 2 10 9 1 9 6 9 6 0q0-8 8-8l6-1q2-3-3-4l-6-1q-5-2-5-8-3-5-6-1m208-1-1 6q-2 5-6 6-12 3-2 5 8 1 8 9 0 6 3 6 3-1 4-8 0-6 8-6c8-1 7-6-1-6q-6 0-7-8-1-7-6-4m70 0-1 5q-1 7-7 7-6 1-7 4 0 2 6 2t7 8c1 9 7 9 7 0q0-8 8-8 7 0 5-4l-4-1q-8 1-9-8-2-8-5-5m69 1-1 3q0 8-7 9t-6 4l3 1q7 0 9 5l1 8c0 6 6 2 6-4q0-8 6-8 8 0 8-3t-3-2q-8-1-11-6-2-11-5-7m69 1-1 6q0 5-10 6l-3 2q-1 3 6 3t7 9c1 8 6 9 6 0q1-9 7-8c8-1 10-6 3-6q-7 0-8-4l-1-5q-1-7-6-3M39 279l-1 5c-1 5 0 4-10 7q-8 3 0 4 9 2 9 8 3 14 7 2l2-6 4-3q14-2 2-6-8-1-7-5-1-10-6-6m67 1-1 5q1 5-7 5-14 3 0 7 8-1 8 7 3 13 6 1c1-7 1-7 8-8q12-4 1-6c-7-1-7-2-8-8q-3-10-7-3m69-1-1 5q1 7-6 7c-9 0-10 5-1 6q8 1 7 9c0 6 6 9 6 2q-1-9 8-10c10-2 10-7 0-7q-8 0-7-7 0-6-3-6zm69 1-2 6q0 5-5 5-12 4-2 7 8-1 8 8c1 9 7 8 7-2q1-6 7-6l6-2q5-3-6-4-7-1-7-7-1-8-6-5m70 0-1 5q0 7-6 7-8 0-6 5l5 1q6 0 7 9 0 4 2 5 5 2 5-6-1-8 8-8 13-2 0-6-9 1-8-6-1-10-6-6m70 1-2 5q1 6-8 7-10 3 0 5 9 1 8 9c1 9 7 7 7-2q0-7 9-7 4 0 5-2 0-3-6-3-7-1-8-8-1-8-5-4m69 1-2 6q1 6-6 5-6 0-6 3 1 4 10 4 3 0 3 9 0 4 4 3l2-2q0-10 7-11 10-2 7-3 0-2-5-2-8-1-8-6-1-11-6-6m69 0-2 6q0 5-6 5-12 3-4 6l6 1q4 0 5 7 0 8 3 7 2 0 3-7 0-6 8-7 11-3 0-5-8-2-8-8-2-9-5-5m69 0-1 5q-1 7-6 7-6 1-7 3 0 3 6 3t6 8l2 6c2 1 5-4 5-7q0-6 8-7 13-1-1-6l-5-1-2-5q-2-10-5-6m68 4q-1 8-5 9l-6 1q-4 3 3 4 8 0 8 10c0 8 5 6 6-2 1-6 1-7 9-7q12-2 0-6-9 0-8-7-3-11-7-2m71-3-2 5q0 8-8 8-7 1-3 4l5 1q6 0 6 8 1 7 4 7l2-4c0-8 1-9 12-11q8-4-3-5-9 0-8-7-1-10-5-6M38 346l-2 5q0 8-7 7-6 0-6 3 1 2 8 3 5 1 5 6 1 7 4 8t4-6q0-8 8-8 12-3-1-7-7 1-7-8-2-7-6-3m69 1-2 4q-1 7-6 7-7 1-8 3 0 3 7 3t7 8c0 9 5 9 7 0q-1-8 8-8 12-2 0-5-8-1-8-7 0-10-5-5m68 0-2 6q1 5-7 5-12 4 0 7 8 0 7 8 0 5 2 6 5 3 5-6 0-8 8-8l4-1q4-4-2-5-10 1-10-8-1-10-5-4m68 0-1 5q0 6-7 7c-8 0-8 5 0 6q7 1 7 9c1 7 7 4 7-2q-1-6 7-6 8-2 7-4 0-3-7-3-6 0-7-8t-6-4m70 2-1 4q0 5-7 6-11 3 0 7 7 0 7 8c0 9 6 9 7 0q-1-9 7-8c9-1 10-6 2-6q-9 0-9-9-1-9-6-2m70 0-2 5q0 6-6 6-10 0-6 5l6 1q5 1 6 7c0 10 6 11 7 1q1-9 8-8 5 0 6-3l-9-3q-4-1-5-8t-5-3m69 1-1 5q0 5-6 5l-4 1q-3 4 2 5 8 0 8 8c0 9 5 9 6 1q0-8 9-9 11-3-1-5-6-1-7-6-1-11-6-5m69-1-1 5q0 8-8 7c-8 1-7 6 1 6q6 0 7 8c1 9 6 9 6 1q0-8 8-9 11-3 2-5-9-1-10-9-1-6-5-4m69 1-1 5q-1 7-7 7-11 2-1 5 7 2 7 5c0 4 2 10 4 10q2 0 3-7-1-7 9-8 12-2-1-5-8 1-7-6l-2-5c0-2-4-3-4-1m69 3-1 4q0 5-7 6-12 2 2 5 4 1 5 7 1 10 5 7l1-4q0-9 8-10 8 0 7-2 1-3-6-3-8 0-9-7-1-10-5-3m70-1-1 5q-1 6-8 6l-4 1q-3 4 5 5 7 1 7 9 0 4 2 5 4 0 4-6 0-8 6-8 7 0 7-3-2-2-8-3-4 0-5-7-3-8-5-4M38 413l-2 6q0 5-7 6c-7 0-8 5 0 6q7 1 7 9c0 8 6 8 7-1q1-8 8-8 11-2-1-5-7-1-7-9-1-8-5-4m68 0-1 5q-1 7-6 7l-3 1h-3q-4 1-2 4l6 2q8 1 7 6 1 7 3 8 4 0 4-7 1-6 7-7 7 0 6-4-1-2-5-2-9 1-8-8 1-5-2-5zm68 3-2 5q0 5-5 5c-10 0-11 5-1 6q6 1 6 7c0 10 6 11 7 2q1-9 9-9t4-4l-5-2q-7 0-7-6c0-6-5-10-6-4m69-2-1 3q0 8-7 9-13 3-1 7 7 0 7 7c0 9 6 9 7 1q0-9 9-9 11-3 1-5-8 0-9-7-1-9-6-6m69 3-1 5q0 5-5 5-11 2-3 6c7 2 7 2 8 7 0 9 5 10 7 1 2-7 1-7 11-9q8-2-2-4-9-3-8-5c0-7-4-12-7-6m70-1-1 4q1 7-8 7c-7 2-6 7 1 7q7 0 6 6l2 6q5 4 6-5 0-7 7-7l6-1q3-4-5-5-8 0-8-8c0-5-5-9-6-4m70-1-1 4q0 8-7 10-13 2-1 5c6 1 6 2 8 9 1 9 6 8 6-1q-1-8 8-8 12-2 0-5-8-2-8-9 0-5-3-6zm68 2-1 5q1 6-7 7-12 3 0 6 8 0 7 7c0 9 5 9 6 0q1-9 7-7 14-1 2-6-8 0-8-7-1-7-3-7zm70 1-2 5q1 6-6 6-8 1-6 4l4 2q7 0 8 8c1 9 6 8 6 0q0-8 8-8 7 0 7-3l-8-2q-7 0-7-8-1-8-4-4m69 0-2 5q0 7-6 7-5 0-6 3l7 3q5 0 5 7c0 8 5 8 6 1s2-7 9-8q10-3 0-6-9-1-8-6 0-10-5-6m68 5q-1 9-8 8-11 2 1 5 7 2 7 9l2 4q2 3 3 0l1-5q-1-6 7-8l7-2q3-2-6-3-8 0-8-7-1-14-6-1M37 480l-2 6q1 7-6 7-13 4 0 6 6 0 6 8 0 6 4 5 4 1 3-4-1-9 6-8 9-2 8-3 0-3-5-3-8 0-8-8-1-9-6-6m68 1-2 6q0 7-7 7-6 0-6 3 1 2 7 3 6 0 6 5 0 7 4 7 4 1 3-5 0-8 7-7 6-1 8-3-1-2-7-3-7 0-7-6-1-11-6-7m69 0q-2 1-2 7 0 7-7 6-7 0-6 4l4 2q8 0 8 8 0 5 4 4 5 1 5-5-2-7 7-7 12-2 1-5c-8-2-8-2-8-7q-1-10-6-7m68 1-2 6q0 6-5 6c-8 0-10 5-2 6q8 1 7 8-1 5 4 4 5 1 4-3 0-8 6-8 7-1 8-3t-8-3q-6-1-6-9-1-7-6-4m70 1-1 5q-1 7-7 7c-8 1-9 6-1 6q7 1 7 7-1 5 4 4 5 1 4-4 0-7 8-7 6 0 6-3t-7-3-7-6c0-5-4-10-6-6m69 0-1 4q0 8-7 9-12 2 0 6 6 0 6 5 0 6 5 5 4 1 3-3 0-7 8-7c8-1 9-6 1-6q-8 0-8-5-1-11-7-8m70 2-1 5q-1 7-7 6-8 0-5 4l4 2q6 1 7 7-1 4 4 3 5 1 4-4l1-4 5-1q14-3 2-6-8 0-8-7-1-10-6-5m69-1-2 5q1 8-6 7-13 4 0 7 6 0 5 5 1 5 5 4 3 1 3-2 1-6 7-7t8-3q-1-3-6-3-9 0-9-7-1-10-5-6m68 3-1 4q0 5-4 6l-9 3q1 3 6 3 6-1 7 6c1 4 7 5 7 0q-1-5 7-6 14-3 0-6-8 0-7-8 0-4-2-4-3-2-4 2m70 1c-2 9-2 9-8 10q-7 1-6 3l4 2q7 1 8 7-1 3 4 2 4 1 3-2 0-6 9-7 10-1 0-4c-8-2-8-2-9-6q0-8-3-8-2 0-2 3m70-1-2 4q0 7-7 8-12 3-1 5 8 0 7 5c0 4 7 5 8 1q0-5 7-6 12-3 0-5-6 1-7-8-2-9-5-4"
        mask="url(#16282281824-posters-1720558130647-vertical-mask)" itemprop="medium" fill-opacity="0.90"
        fill-rule="evenodd" stroke="none" fill="url(#16282281824-posters-1720558130647-vertical-medium)"></path>
      <!---->
      <path id="16282281824-posters-1720558130647-bold"
        d="m42 8-1 3q0 8-7 9-14 3-1 5 7 0 7 9c1 8 6 8 6 0q-1-8 6-9 14-2 2-5-9 0-8-8 0-8-4-4m67 5q-1 9-11 8-7 1 3 4 8 1 7 7c0 10 5 11 6 1q1-8 7-7 11-3 1-5-6 0-7-4 0-10-4-10zm69-2q-2 10-8 10-7 1-6 3 1 3 5 2 8 0 8 7c0 9 5 10 6 2q-1-10 8-9 8 0 4-4l-5-1q-7 0-7-9 1-3-2-4-2-2-3 3m69 0-1 4q0 5-8 7c-7 0-7 4-1 4q8 1 8 6c0 9 5 10 6 2q2-8 10-8l4-1q3-2-4-3-9 0-9-7-1-10-5-4m70-2-1 6q0 7-8 7-8 1-4 4l6 1q5 0 6 8 2 12 5 1 1-10 9-10l5-1q2-2-5-3-7 0-7-6-1-11-6-7m69 2-1 5q1 7-6 6-7 1-5 4l3 1q8 0 8 9c1 7 6 6 6-1q0-8 9-8 12-1-1-5c-6 0-6-1-8-7q-2-7-5-4m70 2q-1 7-5 9h-3q-12 3 1 6 6 2 6 8l1 5q3 3 5-6c1-6 1-6 10-8q8-1-1-3-9-1-9-9 0-5-3-5-2-1-2 3m69 2q0 7-10 9-9 3 2 5 7 0 7 8 0 6 3 6 2-1 2-5 0-9 8-10 12-3-1-4-6 0-7-9-2-10-4 0m70-3-2 5q1 8-7 7-10 3 1 5 6 0 6 8 1 7 3 6l2-4q1-8 4-9l6-2q8-1-1-3-8 0-8-8-3-8-4-5m69 1-2 5q0 7-8 7-4 0-4 2 0 3 5 2 7 1 7 7 1 8 4 8l1-5q0-10 12-10l3-1q0-2-8-3-7-1-7-8 2-6-3-4m70 0-1 3q0 7-5 9-15 3-4 5 9 1 9 11c0 5 4 4 4-1q-1-9 7-10 10-2 3-4-10 0-10-8-1-8-3-5M41 75l-1 6q0 6-8 7-10 2-1 4 9 0 8 8l2 6c2 2 5-3 5-7q0-7 8-7 9-1-1-4-8 0-7-7 0-10-5-6m68 1-1 4q0 7-7 8-10 2 0 5c6 2 6 2 7 8q0 7 3 6 3 1 3-6 1-9 6-8 14-2 1-5-7 0-7-7-1-8-5-5m68 0-1 6q0 6-7 7-5 0-5 2 1 2 7 3 6 0 5 7c0 10 5 10 7-1l1-4 6-2 5-3q-1-2-7-3-6 0-5-7-1-9-6-5m69 1-1 5q1 7-8 8l-4 2 4 2q9 0 8 8 2 13 5 1 1-9 9-9 13-3 1-4-9 0-9-10-1-5-5-3m71 1-1 3q-1 8-8 9-12 1 1 5 7 0 7 11 0 3 2 3 3 0 3-7-1-7 9-8 11-2 1-4-10 0-10-8 0-6-4-4m69 0-1 5q-2 7-8 7-9 2 0 5 8 1 8 9 0 5 2 5 3 0 3-7-1-8 13-8 3-1-3-4-9 0-9-4l-1-6q-1-5-4-2m69 1-1 5q0 6-7 6-7 1-6 4l4 1q9 0 9 8l1 5q4 4 5-2-1-11 11-11 7-2-3-4-9-1-8-9 0-7-5-3m69 1-1 6q0 4-8 5-9 2-1 5 9 1 8 5l2 6q2 7 5-2c1-7 1-8 8-9q13-2-4-6-4 1-4-8-2-6-5-2m70 0-1 4q-1 7-8 8l-4 1q-3 3 5 4 7 0 7 9 2 12 5-2-1-7 8-7 11-3 2-4-11-1-10-7 0-8-4-6m69 0-1 5q-1 8-9 8-7 1 1 4 8 1 8 10 0 4 2 5 2 2 3-6-1-9 8-9 10-2 1-4-9-1-9-8 0-8-4-5m70 1-2 5q0 7-8 7-10 2 1 5 7-1 7 8 3 10 5 3 2-11 9-11 8-1 4-4l-6-1q-5 0-6-7 0-7-4-5M40 142l-1 3q3 8-9 11-9 2 1 4 9 1 8 10 0 6 2 5 3 1 4-6 0-9 9-9 9-2 0-4-8 0-8-8-1-10-6-6m69 1-1 5q-1 8-9 8-9 2 1 4c7 2 7 2 8 14l2 1q2 1 3-8 0-7 9-6 11-2-1-5-8-1-8-8-1-8-4-5m68 1-1 4q0 8-7 8-6 1-6 4l5 1q7-1 8 9 3 10 5 3 1-13 10-12c6 0 6-4-1-4l-4-1q-3 0-5-9-1-4-4-3m68 2-1 5q1 5-7 6-10 3-1 4 8 0 8 10 1 7 3 6 4-1 3-7-1-5 8-8l6-3-8-2q-5 0-5-7-1-9-6-4m71-1-2 6q-1 7-6 6-11 1-2 5l5 1q3-1 4 9 2 10 5-1 3-12 9-10 4 3 6-1 2-1-7-2-7-1-7-9-2-7-5-4m69 1-1 5q0 7-7 7l-5 1q-2 3 4 4 7 0 8 8 2 13 5 0 0-9 8-8l6-2q4-2-5-3-8-1-8-7-1-6-3-7zm70 0-1 4q1 7-8 8-9 3 0 5 8 0 8 8 3 15 6-2 0-6 8-6l5-1q2-2-5-3-8 0-8-7-1-10-5-6m69 0-2 6q0 8-6 7-12 1-1 4 7 2 7 8 2 14 6 1 1-9 9-8 11-2-1-5-6 1-7-6-1-9-5-7m69 2-1 5q0 7-8 7-10 3 0 4 7-1 7 9 0 6 3 7 2-2 3-8 0-8 8-8 7-1 4-3l-4-1q-6 0-8-8-2-7-4-4m69 0-1 4q1 7-7 8-9 4-3 4 11 1 9 11l1 3q5 4 5-4t8-9q12-3 1-4-9-1-9-9 0-7-4-4m69 5q-2 9-9 8-11 2 2 5 8 1 6 8 0 5 3 6 2 1 3-5-1-10 8-9 10-2 1-5-9 1-9-8-2-11-5 0M41 211q-2 0-2 4 1 6-8 8-10 3-1 4 8 0 9 9c0 9 5 9 5 0q0-9 9-9 9-1-1-4-9-1-8-8 0-6-3-4m67 0-1 4q1 8-12 9-4 2 1 3l6 2q4-1 5 9 3 9 5 2 0-12 9-12c7 0 6-4 0-4q-9-1-9-10 0-5-4-3m68 3-1 4q0 4-7 5-12 4-1 6 8 0 8 9c1 9 6 9 6-1q0-7 8-8 12-2 1-5-8-1-9-8-1-9-5-2m69 0-1 4q0 6-8 7-9 1-1 4 9-2 9 10 3 9 5 2-1-13 9-12 12-2 1-5-10 0-9-7-1-5-5-3m70 0-1 5q0 6-9 6-4 0-4 2 0 3 5 2 9-1 8 9 0 7 4 5 3 0 2-5 0-8 8-9 9 0 6-3l-6-1q-8 0-8-7-1-4-3-5zm70 0-2 6q0 6-8 5-7 3 0 4 8 0 8 7c1 11 6 13 6 3q0-10 7-9 7 0 7-2 0-3-7-3-7 1-7-8-1-7-4-3m69 0-1 5q1 6-7 7-12 3 0 5 7 0 7 8 0 7 3 7 2 0 2-6 0-10 9-10 12 0-1-4-8 0-8-10-1-5-4-2m69 1-1 3q1 7-11 9-6 2 2 3t9 10q3 13 5-1-1-7 9-8 9-2 1-4-10-1-10-10 0-5-4-2m69 0-1 4q0 8-7 8-12 2-1 5 8-1 8 8 3 12 5 0 0-7 8-8 11-3 1-4-7-1-9-9 0-7-4-4m69 2-1 3q0 6-7 7l-6 2q1 2 6 3 6-1 7 9c1 9 6 7 6-2q-1-7 9-7 10-2-1-4-8-1-8-7-2-9-5-4m70 0-1 3q0 8-8 8-10 2 0 5 8 1 8 10 0 5 2 4 3 1 3-6 0-8 8-8l6-1q0-3-6-4-6 0-7-4-2-13-5-7m-623 61-2 6q-1 8-8 7-7 1-5 3l6 2c6 1 6 1 7 8q4 12 6 1-1-9 8-9 9-2 5-3l-5-2q-9 0-8-7 0-8-4-6m-69 2v5q0 6-10 6-4 0-4 2 0 3 4 2 8 0 9 8 2 12 5 2l2-6q1-3 9-4 6-2-2-4-9-1-8-6c0-6-5-10-5-5m137 0-2 6q0 5-6 6-13 3 0 5 6 0 7 8 3 13 5 0-1-8 9-8 13-3-2-6-7 0-7-7 1-5-2-5zm68 2c-1 8-1 9-12 12q-4 2 5 3 6 1 6 10c1 7 6 6 6-1q0-8 7-9 13-3 4-4l-7-2q-4 0-4-8-3-5-5-1m71-1-2 5q0 7-7 7-10 1 1 4 6 1 7 10 3 10 5-1-1-7 9-8 12-4-2-5-7 1-6-6-2-9-5-6m69 0-1 5q-1 7-7 7-11 2-2 5 8 0 8 6 0 7 3 8 3 0 4-8 0-6 7-6 13-1 2-4-9-1-9-8-2-9-5-5m69 1-1 6-1 5-5 1q-13 2 0 5 5 0 5 2l1 3 1 4q2 9 5-1-1-9 8-9 12-3 0-4-7 0-8-8-2-7-5-4m69 4q-1 9-7 8-6 0-7 3l5 2q8 1 8 8 3 12 5 0 1-7 9-8 9-1 0-4-10-1-9-9-1-9-4 0m69-2-1 4q1 6-7 7-9 2 0 5 8 1 7 8 0 6 3 4 2 0 2-4 0-8 8-8l6-2q3-1-7-3-7-1-7-10-1-5-4-1m69 1-1 5q0 5-8 6-9 3 2 4 6 0 6 8 0 7 3 6l2-4q0-11 10-10 12-1-1-4-8-1-8-6l-1-6q-1-4-4 1m71-2-1 5q-2 9-7 8l-5 1q-3 2-1 3 12 0 11 7 1 9 4 8l1-2 1-6q0-5 8-6 9-1 5-4l-7-1q-6 0-5-7c0-3-3-8-4-6M39 346l-2 5q-1 9-9 8-8 1 1 4 8 1 8 8l1 5q5 4 5-4-1-8 9-9 9-3 3-4l-10-3-2-6q-1-7-4-4m68 2-2 5q0 6-8 6-9 2 0 4 9 0 8 8c0 9 6 10 6 1q0-8 8-8 7-1 6-3-1-3-6-2-8 1-7-6-2-10-5-5m68-1-1 4q0 7-7 8t-6 3l4 2q8 0 9 9c1 8 6 8 6 0q0-10 8-9 7-1 5-3l-5-2q-9 0-8-7 0-5-3-6zm69 1-2 5q1 6-5 6t-7 3l2 2q10 1 10 7c0 8 6 8 7 0q1-7 9-7 10-1-1-4-9 0-8-8-1-8-5-4m70 0-1 3q0 8-7 9-11 2-2 5 9 0 9 10l1 5q4 1 4-7-1-8 9-8 9-2 3-4c-11-2-11-3-12-10q-1-5-4-3m69 1-1 5q0 6-8 7l-5 1q0 4 7 4 6 0 6 9 0 6 2 5 3 1 3-6 0-9 8-8 12-2 0-5-7 0-8-9-1-6-4-3m70 1-1 4q-1 7-6 7-6 0-5 3 0 2 3 2 7 0 8 8 3 14 5 0 0-8 8-8 7-1 5-3l-4-1q-7 0-8-5l-3-9zm69 0-2 6q-1 7-8 6c-6 0-7 4 0 4q8 0 8 10 1 6 3 5 2 1 3-6-1-9 8-9l6-1q-1-3-6-3-8 0-8-8 0-4-2-4zm68 3a10 10 0 0 1-11 10q-6 3 4 4 6 0 7 9c0 7 4 7 4 1q-1-9 10-10 11-2-1-4-8-1-8-7t-3-6q-2 0-2 3m70-1-1 4q0 6-8 8-8 1-2 3 10 1 10 12 1 4 4 2l1-6q-1-8 9-8 10-2 1-3-10 0-10-9 0-7-4-3m69 0-1 5q0 7-8 7-10 1 2 5 7 0 6 8-1 4 2 4 3 1 3-5 1-7 8-8h4q5-2-5-4-6-1-7-8t-4-4M38 413l-2 6q0 7-7 7-5 0-5 3l3 1q9-1 9 9c1 9 7 7 7-1q0-8 8-8 9-1-1-4-8 0-7-8-1-7-5-5m68 1-1 5q0 6-7 7l-2 1h-3l-2 1 6 3q9 1 8 9 2 12 5-1 1-7 8-8 9-3 2-4-10 0-9-8 1-7-5-5m69 1-2 6q0 5-7 6l-5 1q-2 3 5 4 7 0 7 8 0 7 3 6 3 1 2-4 0-9 8-10 12-2 2-5-8 0-9-7-1-10-4-5m68 0-1 4q0 7-5 8-14 2-2 5 7 1 7 9 2 12 6-2 0-7 9-7 9-2 0-4-9 0-9-7 0-10-5-6m70 2-2 6q1 5-6 5-9 3-1 4t7 7c0 8 5 10 6 2q0-9 9-9 11-2 0-4-8-1-8-6-1-11-5-5m70-2-1 5q-1 9-8 8-6 1-6 4l5 1q9 0 8 7c0 9 5 9 6 1q1-8 8-8l5-1q2-3-6-4-7 0-7-8 0-6-4-5m70 1-2 5q-1 7-9 9-7 1-1 3 11 0 10 10 2 11 5-1 1-8 8-9 12-1 0-4-8 0-7-7 0-10-4-6m68 2-1 5a5 5 0 0 1-6 6l-4 1q-6 2 3 4l6 2v5q2 14 6 0 0-8 9-7 10-1 0-4-8 0-9-8-2-10-4-4m69 1-1 5q0 7-8 6-11 3 1 5 7 1 6 7 1 8 4 7l1-5q0-9 8-9 13-3 4-4-11 1-12-9-1-8-3-3m69 0-1 5q-1 7-9 7l-3 1q0 2 5 3 6 0 6 6 2 10 4 7 2-1 2-5 0-8 8-8 11-2 1-4-9-1-9-9-2-8-4-3m71-1-2 6q-2 8-7 7-12 1-1 4 7 1 7 9 3 11 5 1 0-9 9-10 12-2-1-4-8 1-8-9 0-7-2-4M37 481l-1 6q0 7-8 7l-4 2q-2 2 5 2 7 1 7 10a3 3 0 1 0 5 1q0-11 11-11l3-1q-1-3-6-3-6 1-7-8-1-8-5-5m68 2-1 5q0 7-7 6-8 1-5 4l5 1q7-1 7 8 3 11 6 0 1-8 7-8l7-2q-2-2-8-3-6 0-6-6-1-11-5-5m70-1q-2 0-2 4 0 8-7 8l-7 3q0 2 9 3 6 3 5 11-1 1 2 1 4 1 3-4 1-8 9-8 11-2-1-5c-6-1-7-1-8-8q0-7-3-5m67 2-1 5q1 5-7 6-12 4 0 5 7-1 7 8-1 5 3 4 5 1 3-3 1-8 8-9 6 0 6-3l-3-1q-10 0-11-9v-3c0-3-5-3-5 0m70 0-1 5q0 7-9 7-5 0-2 3l5 2q6 0 6 8-1 4 3 3 4 1 3-3 1-8 7-8c4 0 9-3 7-4l-5-1q-8 0-9-7-2-11-5-5m70 0-1 3q-1 8-8 9l-5 1q-2 3 5 4 6 0 7 7 3 9 6 0 1-7 9-7 5 0 6-3l-6-2c-7 0-7-1-8-7q-3-11-5-5m70 1-1 5q-2 7-9 7-4 0-4 2l1 2h3q7 1 8 8-1 4 3 3 4 1 3-3 0-7 7-7t6-4l-5-1q-8 0-8-7-1-8-4-5m68 0-1 5q1 7-8 7-4 0-5 3l4 2 5 1q4 1 4 7 0 2 3 2l2-2q0-6 9-8 12-2-1-5-8 1-8-8 0-8-4-4m69 1-1 4q-1 8-12 9-3 1 4 3 7 1 7 7c1 4 6 5 6 0q-1-5 8-6 10-2 0-5-8 0-8-10-1-5-4-2m69 1-1 6q-1 6-9 6-6 1 0 3 8 2 8 7c1 4 7 5 7 0q-1-5 7-6 11-2 2-4-10 0-9-7-2-11-5-5m70 0-1 4q1 8-8 8-9 2 0 4 6 0 7 6c0 4 6 5 6 1q0-6 8-6 12-1 0-4c-7-1-7-2-8-8q0-8-4-5"
        mask="url(#16282281824-posters-1720558130647-horizontal-mask)" itemprop="bold" fill-opacity="0.90"
        fill-rule="evenodd" stroke="none" fill="url(#16282281824-posters-1720558130647-vertical-bold)"></path>
    </pattern>
    <rect id="16282281824-posters-1720558130647-pattern-render" fill="url(#16282281824-posters-1720558130647-pattern)"
      width="100%" height="100%"></rect>
  </defs>
  <radialGradient id="lightbar" cx="50%" cy="200%" fy="0" r="201%">
    <stop offset="0%" style="stop-color: rgb(255, 255, 255); stop-opacity: 0.1;"></stop>
    <stop offset="10%" style="stop-color: rgb(0, 0, 0); stop-opacity: 0.1;"></stop>
    <stop offset="30%" style="stop-color: rgb(0, 0, 0); stop-opacity: 0.3;"></stop>
    <stop offset="90%" style="stop-color: rgb(0, 0, 0); stop-opacity: 0.55;"></stop>
    <stop offset="100%" style="stop-color: rgb(0, 0, 0); stop-opacity: 0.6;"></stop>
  </radialGradient>
  <g class="radial">
    <radialGradient id="16282281824-posters-1720558130647-radial" gradientUnits="userSpaceOnUse">
      <stop itemprop="radial" stop-color="#e1e1e0" offset="0%"></stop>
      <stop itemprop="radial" stop-color="#e1e1e0" offset="15%"></stop>
      <stop itemprop="radial" stop-color="#dfdedd" offset="30%"></stop>
      <stop itemprop="radial" stop-color="#dfdedd" offset="45%"></stop>
      <stop itemprop="radial" stop-color="#dcdcda" offset="60%"></stop>
      <stop itemprop="radial" stop-color="#d7d7d5" offset="75%"></stop>
      <stop itemprop="radial" stop-color="#dfdedd" offset="90%"></stop>
    </radialGradient>
    <radialGradient id="16282281824-posters-1720558130647-radial-background" gradientUnits="userSpaceOnUse">
      <stop stop-color="#d3cec5" offset="0%"></stop>
      <stop stop-color="#d3cec5" offset="15%"></stop>
      <stop stop-color="#d3cdc5" offset="30%"></stop>
      <stop stop-color="#d3cec5" offset="45%"></stop>
      <stop stop-color="#d3cec5" offset="60%"></stop>
      <stop stop-color="#d3cec5" offset="75%"></stop>
      <stop stop-color="#d3cec5" offset="90%"></stop>
    </radialGradient>
    <radialGradient id="16282281824-posters-1720558130647-radial-light" gradientUnits="userSpaceOnUse">
      <stop stop-color="#9b9a97" offset="0%"></stop>
      <stop stop-color="#9b9a97" offset="15%"></stop>
      <stop stop-color="#9c9a96" offset="30%"></stop>
      <stop stop-color="#9b9a97" offset="45%"></stop>
      <stop stop-color="#9c9a96" offset="60%"></stop>
      <stop stop-color="#9c9a96" offset="75%"></stop>
      <stop stop-color="#9b9a97" offset="90%"></stop>
    </radialGradient>
    <radialGradient id="16282281824-posters-1720558130647-radial-regular" gradientUnits="userSpaceOnUse">
      <stop stop-color="#82807d" offset="0%"></stop>
      <stop stop-color="#82807d" offset="15%"></stop>
      <stop stop-color="#83807c" offset="30%"></stop>
      <stop stop-color="#82807d" offset="45%"></stop>
      <stop stop-color="#83817c" offset="60%"></stop>
      <stop stop-color="#83817c" offset="75%"></stop>
      <stop stop-color="#82807d" offset="90%"></stop>
    </radialGradient>
    <radialGradient id="16282281824-posters-1720558130647-radial-medium" gradientUnits="userSpaceOnUse">
      <stop stop-color="#514f4d" offset="0%"></stop>
      <stop stop-color="#514f4d" offset="15%"></stop>
      <stop stop-color="#514f4d" offset="30%"></stop>
      <stop stop-color="#514f4d" offset="45%"></stop>
      <stop stop-color="#51504d" offset="60%"></stop>
      <stop stop-color="#51504d" offset="75%"></stop>
      <stop stop-color="#514f4d" offset="90%"></stop>
    </radialGradient>
    <radialGradient id="16282281824-posters-1720558130647-radial-bold" gradientUnits="userSpaceOnUse">
      <stop stop-color="#2f2e2d" offset="0%"></stop>
      <stop stop-color="#2f2e2d" offset="15%"></stop>
      <stop stop-color="#2f2e2d" offset="30%"></stop>
      <stop stop-color="#2f2e2d" offset="45%"></stop>
      <stop stop-color="#2f2e2d" offset="60%"></stop>
      <stop stop-color="#2f2e2d" offset="75%"></stop>
      <stop stop-color="#2f2e2d" offset="90%"></stop>
    </radialGradient>
  </g>
  <g class="vertical">
    <linearGradient id="16282281824-posters-1720558130647-vertical" gradientUnits="userSpaceOnUse" x1="0" x2="0" y1="0"
      y2="100%">
      <stop itemprop="vertical" stop-color="#e1e1e0" offset="0%"></stop>
      <stop itemprop="vertical" stop-color="#e1e1e0" offset="15%"></stop>
      <stop itemprop="vertical" stop-color="#dfdedd" offset="30%"></stop>
      <stop itemprop="vertical" stop-color="#dfdedd" offset="45%"></stop>
      <stop itemprop="vertical" stop-color="#dcdcda" offset="60%"></stop>
      <stop itemprop="vertical" stop-color="#d7d7d5" offset="75%"></stop>
      <stop itemprop="vertical" stop-color="#dfdedd" offset="90%"></stop>
    </linearGradient>
    <linearGradient id="16282281824-posters-1720558130647-vertical-background" gradientUnits="userSpaceOnUse" x1="0"
      x2="0" y1="0" y2="100%">
      <stop stop-color="#cdcccb" offset="0%"></stop>
      <stop stop-color="#cdcccb" offset="15%"></stop>
      <stop stop-color="#cdcccb" offset="30%"></stop>
      <stop stop-color="#cdcccb" offset="45%"></stop>
      <stop stop-color="#ceccca" offset="60%"></stop>
      <stop stop-color="#ceccca" offset="75%"></stop>
      <stop stop-color="#cdcccb" offset="90%"></stop>
    </linearGradient>
    <linearGradient id="16282281824-posters-1720558130647-vertical-light" gradientUnits="userSpaceOnUse" x1="0" x2="0"
      y1="0" y2="100%">
      <stop stop-color="#ae9f84" offset="0%"></stop>
      <stop stop-color="#ae9f84" offset="15%"></stop>
      <stop stop-color="#ae9f84" offset="30%"></stop>
      <stop stop-color="#ae9f84" offset="45%"></stop>
      <stop stop-color="#ae9f84" offset="60%"></stop>
      <stop stop-color="#ae9f84" offset="75%"></stop>
      <stop stop-color="#ae9f84" offset="90%"></stop>
    </linearGradient>
    <linearGradient id="16282281824-posters-1720558130647-vertical-regular" gradientUnits="userSpaceOnUse" x1="0" x2="0"
      y1="0" y2="100%">
      <stop stop-color="#82807d" offset="0%"></stop>
      <stop stop-color="#82807d" offset="15%"></stop>
      <stop stop-color="#82807d" offset="30%"></stop>
      <stop stop-color="#82807d" offset="45%"></stop>
      <stop stop-color="#83817c" offset="60%"></stop>
      <stop stop-color="#83817c" offset="75%"></stop>
      <stop stop-color="#82807d" offset="90%"></stop>
    </linearGradient>
    <linearGradient id="16282281824-posters-1720558130647-vertical-medium" gradientUnits="userSpaceOnUse" x1="0" x2="0"
      y1="0" y2="100%">
      <stop stop-color="#514f4d" offset="0%"></stop>
      <stop stop-color="#514f4d" offset="15%"></stop>
      <stop stop-color="#514f4d" offset="30%"></stop>
      <stop stop-color="#514f4d" offset="45%"></stop>
      <stop stop-color="#51504d" offset="60%"></stop>
      <stop stop-color="#51504d" offset="75%"></stop>
      <stop stop-color="#514f4d" offset="90%"></stop>
    </linearGradient>
    <linearGradient id="16282281824-posters-1720558130647-vertical-bold" x1="0" x2="0" y1="0" y2="100%">
      <stop stop-color="#2f2e2d" offset="0%"></stop>
      <stop stop-color="#2f2e2d" offset="15%"></stop>
      <stop stop-color="#2f2e2d" offset="30%"></stop>
      <stop stop-color="#2f2e2d" offset="45%"></stop>
      <stop stop-color="#2f2e2d" offset="60%"></stop>
      <stop stop-color="#2f2e2d" offset="75%"></stop>
      <stop stop-color="#2f2e2d" offset="90%"></stop>
    </linearGradient>
  </g>
  <g class="horizontal">
    <linearGradient id="16282281824-posters-1720558130647-horizontal" x1="0" x2="100%" y1="0" y2="0"
      gradientUnits="userSpaceOnUse">
      <stop itemprop="horizontal" stop-color="#dcdcda" offset="0%"></stop>
      <stop itemprop="horizontal" stop-color="#e4e3e2" offset="15%"></stop>
      <stop itemprop="horizontal" stop-color="#dad9d8" offset="30%"></stop>
      <stop itemprop="horizontal" stop-color="#dcdbda" offset="45%"></stop>
      <stop itemprop="horizontal" stop-color="#e6e6e5" offset="60%"></stop>
      <stop itemprop="horizontal" stop-color="#dcdcda" offset="75%"></stop>
      <stop itemprop="horizontal" stop-color="#e6e6e5" offset="90%"></stop>
    </linearGradient>
    <linearGradient id="16282281824-posters-1720558130647-horizontal-background" gradientUnits="userSpaceOnUse" x1="0"
      x2="100%" y1="0" y2="0">
      <stop stop-color="#ceccca" offset="0%"></stop>
      <stop stop-color="#ceccca" offset="15%"></stop>
      <stop stop-color="#ceccca" offset="30%"></stop>
      <stop stop-color="#ceccca" offset="45%"></stop>
      <stop stop-color="#ceccca" offset="60%"></stop>
      <stop stop-color="#ceccca" offset="75%"></stop>
      <stop stop-color="#cdcccb" offset="90%"></stop>
    </linearGradient>
    <linearGradient id="16282281824-posters-1720558130647-horizontal-light" gradientUnits="userSpaceOnUse" x1="0"
      x2="100%" y1="0" y2="0">
      <stop stop-color="#9c9a96" offset="0%"></stop>
      <stop stop-color="#9c9a96" offset="15%"></stop>
      <stop stop-color="#9c9a96" offset="30%"></stop>
      <stop stop-color="#9c9a96" offset="45%"></stop>
      <stop stop-color="#9c9a96" offset="60%"></stop>
      <stop stop-color="#9c9a96" offset="75%"></stop>
      <stop stop-color="#9b9a97" offset="90%"></stop>
    </linearGradient>
    <linearGradient id="16282281824-posters-1720558130647-horizontal-regular" gradientUnits="userSpaceOnUse" x1="0"
      x2="100%" y1="0" y2="0">
      <stop stop-color="#968669" offset="0%"></stop>
      <stop stop-color="#968369" offset="15%"></stop>
      <stop stop-color="#968669" offset="30%"></stop>
      <stop stop-color="#968369" offset="45%"></stop>
      <stop stop-color="#968369" offset="60%"></stop>
      <stop stop-color="#968669" offset="75%"></stop>
      <stop stop-color="#968669" offset="90%"></stop>
    </linearGradient>
    <linearGradient id="16282281824-posters-1720558130647-horizontal-medium" gradientUnits="userSpaceOnUse" x1="0"
      x2="100%" y1="0" y2="0">
      <stop stop-color="#5d5341" offset="0%"></stop>
      <stop stop-color="#5d5141" offset="15%"></stop>
      <stop stop-color="#5d5341" offset="30%"></stop>
      <stop stop-color="#5d5141" offset="45%"></stop>
      <stop stop-color="#5d5141" offset="60%"></stop>
      <stop stop-color="#5d5341" offset="75%"></stop>
      <stop stop-color="#5d5341" offset="90%"></stop>
    </linearGradient>
    <linearGradient id="16282281824-posters-1720558130647-horizontal-bold" gradientUnits="userSpaceOnUse" x1="0"
      x2="100%" y1="0" y2="0">
      <stop stop-color="#2f2e2d" offset="0%"></stop>
      <stop stop-color="#2f2e2d" offset="15%"></stop>
      <stop stop-color="#2f2e2d" offset="30%"></stop>
      <stop stop-color="#2f2e2d" offset="45%"></stop>
      <stop stop-color="#2f2e2d" offset="60%"></stop>
      <stop stop-color="#2f2e2d" offset="75%"></stop>
      <stop stop-color="#2f2e2d" offset="90%"></stop>
    </linearGradient>
  </g>
  <g class="masks">
    <mask id="16282281824-posters-1720558130647-pattern-mask" maskUnits="userSpaceOnUse"
      maskContentUnits="userSpaceOnUse">
      <pattern id="pattern" x="0" y="0" width=".0133" height=".0144" viewBox="0 0 23.07 40">
        <path
          d="M17.62 0l-6.07 10.5m2.74 4.76L8.22 4.75m-5.48 0h12.13M.01 0h23.07M6.07 20L0 9.5m2.74-4.75l-6.07 10.5m-5.48 0H3.33m8.2 4.75L0 .02-11.54 20m40.68 0L23.07 9.5m2.74-4.75l-6.06 10.5m-5.49 0H26.4M34.6 20L23.08.02 11.53 20m-5.46 0L0 30.51m2.74 4.75l-6.07-10.5m-5.48 0H3.33m8.2-4.75L0 40l-11.54-19.98zM17.6 40l-6.06-10.5m2.74-4.76L8.2 35.25m-5.48 0h12.13M0 40h23.07L11.54 20.01m17.6 0l-6.07 10.5m2.74 4.75l-6.06-10.5m-5.49 0H26.4M11.53 20h23.08L23.07 40"
          stroke-linecap="round" stroke-width="3.5" stroke="white"
          fill="url(#16282281824-posters-1720558130647-horizontal-background)"></path>
      </pattern>
      <rect width="100%" height="100%" fill="url(#pattern)"></rect>
    </mask>
    <mask id="16282281824-posters-1720558130647-horizontal-mask" maskUnits="userSpaceOnUse"
      maskContentUnits="userSpaceOnUse">
      <rect width="100%" height="100%" fill="url(#16282281824-posters-1720558130647-horizontal-background)"></rect>
    </mask>
    <mask id="16282281824-posters-1720558130647-radial-mask" maskUnits="userSpaceOnUse"
      maskContentUnits="userSpaceOnUse">
      <rect width="100%" height="100%" fill="url(#16282281824-posters-1720558130647-radial-background)"></rect>
    </mask>
    <mask id="16282281824-posters-1720558130647-vertical-mask" maskUnits="userSpaceOnUse"
      maskContentUnits="userSpaceOnUse">
      <rect width="100%" height="100%" fill="url(#16282281824-posters-1720558130647-vertical-background)"></rect>
    </mask>
  </g>
  <use href="#16282281824-posters-1720558130647-pattern-render"></use>
  <g>
    <use href="#16282281824-posters-1720558130647-background"></use>
    <use href="#16282281824-posters-1720558130647-light"></use>
    <use href="#16282281824-posters-1720558130647-regular"></use>
    <use href="#16282281824-posters-1720558130647-medium"></use>
    <use href="#16282281824-posters-1720558130647-bold"></use>
  </g>
  <g itemprop="animation">
    <animate href="#16282281824-posters-1720558130647-light" attributeName="stroke-opacity" repeatCount="indefinite"
      dur="5s" values="0.9;0.0;0.9"></animate>
    <animate href="#16282281824-posters-1720558130647-regular" attributeName="stroke-opacity" repeatCount="indefinite"
      dur="4s" values="0.9;0;0.9"></animate>
    <animate href="#16282281824-posters-1720558130647-medium" attributeName="stroke-opacity" repeatCount="indefinite"
      dur="5s" values="0.9;0;0.9"></animate>
    <animate href="#16282281824-posters-1720558130647-bold" attributeName="stroke-opacity" repeatCount="indefinite"
      dur="3s" values="0.9;0;0.9"></animate>
    <animate href="#16282281824-posters-1720558130647-regular" attributeName="fill-opacity" repeatCount="indefinite"
      dur="8s" values="0.9;0.75;0.95;0.8;0.9;"></animate>
    <animate href="#16282281824-posters-1720558130647-radial-background" attributeName="cx" repeatCount="indefinite"
      dur="34s" values="0%;33%;100%;0%;100%;0%;"></animate>
    <animate href="#16282281824-posters-1720558130647-radial-background" attributeName="cy" repeatCount="indefinite"
      dur="55s" values="0%;100%;33%;100%;66%;0%"></animate>
    <animate href="#16282281824-posters-1720558130647-vertical-light" attributeName="x1" repeatCount="indefinite"
      dur="55s" values="0%;33%;100%;0%;133%;0%;"></animate>
    <animate href="#16282281824-posters-1720558130647-vertical-light" attributeName="y1" repeatCount="indefinite"
      dur="86s" values="0%;100%;33%;100%;66%;0%"></animate>
    <animate href="#16282281824-posters-1720558130647-horizontal-regular" attributeName="x1" repeatCount="indefinite"
      dur="34s" values="0%;100%;66%;0%;33%;133%;0%"></animate>
    <animate href="#16282281824-posters-1720558130647-horizontal-regular" attributeName="y1" repeatCount="indefinite"
      dur="55s" values="0%;66%;100%;33%;100%;66%;0%"></animate>
    <animate href="#16282281824-posters-1720558130647-vertical-medium" attributeName="x1" repeatCount="indefinite"
      dur="34s" values="0%;100%;66%;0%;33%;133%;0%"></animate>
    <animate href="#16282281824-posters-1720558130647-vertical-medium" attributeName="y1" repeatCount="indefinite"
      dur="55s" values="0%;66%;100%;33%;100%;66%;0%"></animate>
    <animate href="#16282281824-posters-1720558130647-vertical-bold" attributeName="x1" repeatCount="indefinite"
      dur="34s" values="0%;100%;66%;0%;33%;133%;0%"></animate>
    <animate href="#16282281824-posters-1720558130647-vertical-bold" attributeName="y1" repeatCount="indefinite"
      dur="55s" values="0%;66%;100%;33%;100%;66%;0%"></animate>
  </g>
</svg>
