<svg id="16282281824-posters-1720553817752" itemscope="" itemtype="/posters"
  itemid="/+16282281824/posters/1720553817752" viewBox="0 0 769 512" preserveAspectRatio="xMidYMid meet" tabindex="0"
  class="animate landscape" xmlns="http://www.w3.org/2000/svg">
  <!---->
  <defs class="graphic">
    <pattern id="16282281824-posters-1720553817752-pattern" width="769" height="512" viewBox="0 0 769 512"
      patternUnits="userSpaceOnUse" preserveAspectRatio="xMidYMid meet">
      <rect itemprop="background" width="769" height="512" tabindex="-1"
        id="16282281824-posters-1720553817752-background" fill-opacity="1"
        fill="url(#16282281824-posters-1720553817752-radial-background)"></rect>
      <!---->
      <path id="16282281824-posters-1720553817752-light"
        d="M39 3c1 7 0 39-1 41-2 1-5 2-20 2H0v7h6l20-1c21 0 19 2 19-27l1-23q2-2-3-2h-5zm21 2v24l1 18 2 3c3 2 3 2 21 1 21 0 25 1 25 5v40c-2 1-4 2-55 2H0v7h38l1 3 1 22c0 23 2 21-22 21H0v7h19c20-1 24-2 25-5l1-23c0-24 0-25 7-26 8-1 8 0 8 26l2 25c2 1 6 2 23 2q23 0 23 2c2 2 2 40 0 42-1 2-9 2-55 2H0v7h19l20 1c2 2 1 40 0 43l-10 2H0v6h17q25 0 27-3l1-21c1-28 1-27 8-28 8 0 8 0 8 27 0 26-3 24 25 24 23 0 23 0 24 6 2 7 1 36-1 39-2 1-22 2-83 2H0v6h17c24 0 22-1 23 19q1 24-3 27l-19 1H0v7h21q22-1 22-3c2-1 2-4 2-23 0-27 0-28 8-28s7-2 8 44c0 8 2 9 15 9 27 0 31 0 33 2v43l-73 1H0v7l17-1 20 1 3 1v21c0 25 2 23-22 24H0v4q-1 4 3 2l25-1c17 0 17 0 17-8l1-7 1-17c0-19 0-19 6-20 8-1 8-1 8 25 0 30-3 27 25 27 19 0 22 0 23 2q2 0 2 20v19h6v-17c0-23 0-23 7-24 8-1 8-1 8 22v19h7v-19c0-17 0-20 2-21q0-2 22-2c27 0 25 2 25-24 1-25 1-26 7-27 8-2 8-1 8 25l1 22 2 2c2 2 4 2 23 2l22 1 1 21v20h7v-41l4-1q6-2 10 1l1 21v20h2c4 0 4 1 5-40 0-2 5-3 25-4 19 0 22 0 23-2 2-1 2-4 2-24 1-24 1-25 7-25 5 0 6 1 6 16 1 25 2 34 3 35l21 1h23c4 1 4 5 4 26v17h6v-21c1-22 1-23 7-23s7 1 6 24v20h7v-20c0-26-3-24 26-24h22l2-3 1-17 1-25 1-6 5-1 6 1 2 24c0 30-2 27 25 27 19 0 21 0 22 2v40q-2 2 3 2h4v-6l1-37 7-1h6v33l1 11h7l-1-17q0-24 2-26l23-2c20 0 23 0 24-2 2-1 2-4 2-25l2-24h12l1 32c1 15 1 16 3 17q2 2 23 2l22 1c2 1 1 40 0 42q-2 2 3 2c5 0 5 0 5-22 0-24 0-23 7-23l6 1 1 4 1 22-1 18h5q5 1 3-2l-1-20c0-18 0-19 2-21l3-3h17c32 0 29 2 29-26 0-18 0-22 2-24a7 7 0 0 1 12 3v-6l-1-6h-63l-1-22c0-25-2-23 25-23s25 2 25-23c0-23 0-28 4-29 3-1 9 0 10 2v-9h-29c-37 0-35 1-35-14v-12l2-18c0-2 3-3 25-3 16 0 19 0 21-2l3-2v-23c1-25 1-25 6-24q9 0 7 2 0 2 1 1v-6l-1-4h-31l-32-1c-2-2-1-40 0-42 2-2 4-2 21-2 28 0 28 0 28-19 0-26 1-33 4-34a10 10 0 0 1 11 4v-6l-1-6-26 1c-33 0-35 0-37-4-2-6-1-39 1-41l22-1c18 0 22-1 24-2l3-2V0h-7v18c0 18 0 19-2 20-3 2-104 4-109 2-3 0-3-3-3-23V0h-8v22c0 19 1 22 2 24 2 1 4 2 24 2l22 1c4 3 3 40-1 43-2 2-6 2-55 2h-54l-1-2c-2-2-2-6-2-21V52l3-2c2-2 4-2 22-2 20 0 22 0 25-3l1-23 1-22h-8v40l-21 1-48 1h-21c-10 1-21 0-22-2l-1-21V0h-7v21l1 24c1 3 6 4 24 4s22 0 23 3c1 5 0 39-1 41l-53 2c-55 0-57 0-59-3V51l23-1c23-1 26-2 27-6l1-23 1-21h-5q-5 0-3 2v35c-2 6 0 6-57 6-48 0-53 0-55-2-2-1-2-3-2-21V0h-7v23c0 30-2 27 25 27 19 0 22 0 23 2 3 2 2 40 0 42-1 2-5 2-74 2h-35l-2-2q-2-2-2-9l1-19c0-17-1-16 19-16q27 0 31-3l1-24 1-23h-8v20c0 17 0 20-2 21-3 3-110 3-112 1-2-3-2-33 0-39q1-4-4-3-6 0-4 2l1 23c0 28-2 25 24 25l22 1q3 0 3 24c0 24 5 22-41 22h-43c-22 1-29 0-30-2-1-5 0-39 1-41q3-4 37-4c13 0 12 3 12-36l1-14h-8v19c0 22 0 24-4 24-9 2-108 1-109 0l-1-22 1-21h-9zm626 44c-2 1-2 5-2 23 0 22-1 27-3 27l-34 2c-11 0-11 0-12 3v40c1 2 2 2 56 2h55l2-4 1-21c0-23 2-21-24-22h-22c-4 0-4-4-4-27 0-20-1-22-2-23-3-2-10-2-11 0m-143 1c-1 1-2 6-2 23v24c-1 3-6 4-26 4l-21 2c-2 2-2 42 0 43s110 1 111-1c2-1 2-42 0-43l-23-1c-21 0-22 0-24-2s-2-2-2-29c-1-18-1-19-3-20-2-2-8-2-10 0m-283 1-2 24-1 25c-2 2-7 3-32 3-19 1-17-1-17 23l1 22c2 2 112 2 114-1 1-1 2-38 0-41 0-3-4-3-26-3-26-1-24 2-24-26 0-26 0-27-7-27zm142 0-1 24c-1 29 2 27-24 27q-21 0-22 2l-3 2-1 12q-1 29 3 30c5 2 108 0 110-2l1-20c1-20 0-24-5-24l-22-1c-27 0-25 3-24-32 0-17 0-19-6-19zm-284 3c-2 3-2 8-2 25 0 27 2 25-20 25-21 0-27 1-28 2-2 3-2 42 0 43 3 3 109 2 112-1 2-2 2-40 0-43l-23-1c-28 0-25 3-25-27-1-26-1-26-9-26q-4-1-5 3m357 48c-3 2-4 7-4 28 0 26 2 24-19 24-16 0-29 1-31 2v40l3 3c5 2 107 0 109-1 1-2 3-32 2-39-2-5-1-5-29-5-22 0-20 2-20-26 0-22 0-24-2-25q-5-3-9-1m139 1-1 24c0 26 0 26-9 26q-38 0-40 3c-2 1-3 21-1 35 0 9-5 9 65 8l47-1 1-3 1-21c0-23 2-21-25-21s-24 3-25-27v-24c-1-2-12-2-13 1m-279 0c-4 2-4 1-4 26l-1 22c0 4-5 5-27 5-26 0-24-2-24 23 0 17 0 19 2 20 1 2 6 2 45 2 58 0 64 0 66-2 3-2 3-40 0-42q0-2-23-2c-20 0-22-1-23-2-2-2-2-7-2-25v-23l-2-1q-3-3-7-1m-146 2c-1 1-2 5-2 24 0 27 0 27-11 27-21 0-36 1-37 3-2 2-2 40 0 42 1 2 4 2 35 2l54-1c26-1 24 2 24-24 0-24 2-22-25-22-28 0-25 3-25-33l-1-18zm495 50-1 22c0 30 2 28-27 28h-20l-1 4c-2 7-1 37 1 39s5 2 29 2c77 0 81 0 82-2 3-2 3-43 0-43h-24c-21 0-22-1-23-2-2-2-2-6-2-24l-1-24c-1-3-11-3-13 0m-140 0c-2 0-2 1-3 33 0 19 2 17-23 18-22 0-24 0-24 3-2 5-1 41 0 42h103c10-1 10-1 10-24 0-25 3-22-26-22l-23-1q-2-1-2-24c-1-27-1-28-12-25m-141 1c-2 1-2 4-3 23 0 28 0 28-10 28l-22 1-15 1c-3 2-3 41-1 43 2 1 77 2 100 0 15 0 14 1 14-23 0-25 2-22-23-23-23 0-27 0-28-3l-1-23-1-23c-2-2-8-2-10-1m-142 1c-2 0-2 1-3 18v29l-3 2c-3 2-5 2-23 2-21 0-22 0-23 7-1 9 0 36 2 37l62 1c49 0 50 0 51-5 2-5 2-36 0-38-1-2-5-2-25-2-22 0-23-1-24-2-2-2-2-6-2-25 0-26-1-27-12-24m-144 1-1 24c0 28 1 26-14 27q-33 0-34 3l-1 21c0 23-1 22 16 22l96-2c2-1 3-5 3-30 1-15 3-14-31-14q-17 0-18-2l-1-23c0-27-1-27-8-27zm499 48c-2 2-3 11-3 42 0 9 0 9-26 9-17 1-22 1-23 3-2 2-3 36-1 40s0 4 58 3c50 0 53 0 55-2 1-2 2-3 2-21 0-26 2-24-23-23l-22-1c-3 0-7-5-5-6 1-2 0-39-1-42q-5-5-11-2m-141 1q-2 0-2 3l-1 38c-1 11-1 11-24 11-22 0-26 0-27 3-1 4 0 40 1 41s12 2 72 1l39-1c2-2 3-41 1-43l-23-2-23-1-1-25-1-24c-1-1-9-2-11-1m-285 3c-2 2-2 4-2 24 0 25 0 24-7 25l-22 1-19 2q-2 2-2 22c0 21 0 21 2 22 4 2 109 1 111-2 2-2 2-40 0-43l-23-1c-21 0-22-1-24-2l-1-25v-23l-3-1q-6-3-10 1m142 1-1 22c0 19 0 21-2 23l-2 3h-45l-1 4c-2 9-2 40 1 42l55 1c52 0 54 0 55-2 2-2 3-3 2-35 0-9 0-9-25-9l-22-1q-2-1-2-28c0-23 0-23-6-23q-6-1-7 3m213 47c-4 1-4 4-4 30 0 24 2 22-25 23l-22 1-1 11-1 12v4l1 8 1 9h110c3-2 3-43 0-45l-23-1c-28 0-25 3-25-25 0-24 0-25-4-27l-3-1zm140 0-1 23-1 24c0 3-4 4-26 5-17 0-21 0-22 2l-1 22v20l2 1c6 2 110 1 112-2l1-21c0-24 1-23-16-23l-30-1c-4-1-4-5-4-29l-1-21zm-424 2q-2 1-2 5c-1 53 2 48-26 48l-23 1c-2 3-3 42 0 44 2 2 109 2 112 0 2-2 2-2 2-22l-1-22-21-1q-27 0-27-3l-1-24c0-22 0-23-2-25q-4-3-11-1m142 0c-1 2-2 3-2 24 0 29 1 27-20 28q-27 0-29 2c-2 2-1 40 1 42s103 3 109 1c3 0 3-4 3-25 1-23 3-21-25-21s-25 3-26-26c0-21 0-23-2-24q-5-3-9-1m-285 3q-2 2-2 25c0 28 2 25-25 26-26 0-24-2-24 24 0 20 0 20 2 21 3 2 107 2 110 0q3 0 2-7l1-8v-1l-1-14c0-17 2-16-24-16-18 0-22 0-23-2-2-1-2-4-2-24 0-26 0-26-8-26q-5 0-6 2m497 49q-2 0-2 24c0 29 2 26-22 27-23 0-27 1-28 3l-1 20c0 18 0 18 3 21l2 2h49c60-1 59-1 60-6 2-7 1-38-1-39q0-2-23-2h-21l-2-3c-1-3-2-8-2-25l-1-23c-3-2-10-1-11 1m-141 0c-2 2-2 8-2 28l-2 22q-2 2-24 2-23 0-24 2c-2 2-2 40 0 41 2 2 5 2 62 2 39 0 47 0 49-2 1-1 2-2 2-19 0-21 0-23-3-24h-22c-18 0-19 0-21-2l-3-2v-23c0-26 0-26-7-26zm-285 2-1 26-1 24q0 2-26 2l-22 2c-1 1-2 37 0 42v2h55c50 0 55 0 56-2 2-2 2-9 2-32v-10l-3-1-21-1c-24 0-24 0-25-7l-1-23c0-22-1-23-7-23zm142 0v25l-2 24c-1 2-6 2-24 2-29 1-26-1-26 24l2 21c2 2 5 2 57 1l44-1c12 0 12 0 12-23l-1-21-23-1h-21l-2-3c-3-2-3-2-3-24v-24zm355 50-2 4-1 20c0 22 0 25-3 25l-22 1-22 2c-2 3-3 36-1 41l2 4h35c57-1 73-2 75-3 3-2 3-40 0-43l-24-1c-20 0-22 0-23-2-2-1-2-5-2-25l-1-24c-2-2-10-1-11 1m-144 2-1 23-1 23c-1 2-6 3-27 3-15 1-18 1-19 3s-2 40 0 42c2 1 109 2 111 0 2-1 3-40 1-43q-2-3-28-2-21 2-22-3v-23l-1-24c-2-2-12-1-13 1m-140 1-1 22c0 30 2 28-26 28l-21 1c-3 2-4 37-2 43l1 2h54l56-2 3-2v-20c0-26 3-23-24-24-21 0-26 0-27-2l-1-23-1-23c-1-3-10-3-11 0m-141 0c-2 2-2 3-2 23 0 21 0 24-3 26q-3 2-29 2l-16 2c-2 2-2 41 0 42h109c5 0 6-3 6-24-1-23 1-21-26-21l-24-1c-2-2-2-3-2-22 0-20-1-26-4-27zm-144 1-1 24c0 29 2 26-24 27-18 0-21 1-23 2-2 2-2 40 0 42q3 3 18 2l50-1c42 0 43 0 45-5 2-4 1-36 0-38-2-2-4-2-24-2-29 0-26 3-27-27l-1-24z"
        mask="url(#16282281824-posters-1720553817752-horizontal-mask)" itemprop="light" fill-opacity="0.90"
        fill-rule="evenodd" stroke="none" fill="url(#16282281824-posters-1720553817752-vertical-light)"></path>
      <!---->
      <path id="16282281824-posters-1720553817752-regular"
        d="m39 2 1 21c0 25 2 23-22 23H0v6h6l21-1c19 0 18 2 18-26l1-23q2-2-3-2-6 0-4 2m22 20c0 32-2 29 25 29 21 0 22 0 23 4 2 4 2 39 1 41-2 2-12 3-64 3H0v5h18c24 0 22-2 22 24 0 18 0 21-2 22q0 2-20 2H0v5h20c18 0 21-1 23-2l1-25c1-26 0-25 8-26 9 0 9 0 9 25 0 29-2 27 23 27l20 1c6 0 6 1 7 22 0 24 0 24-10 24l-30 1H0v5h19l20 1 1 22c0 25 1 24-11 25-30 0-29 0-29 2 0 3 41 3 44 0l1-24c1-26 0-26 9-26 7 0 7 0 8 26l1 24 23 1c28 0 25-3 25 28 0 22 3 20-28 20l-26 1H0v5h18c24 0 22-2 22 23 0 21 0 22-3 24l-29 1c-8 0-8 0-8 3q-1 3 6 2c17 0 36-1 38-3l1-24c0-26 0-26 8-26s8 1 8 23q0 28 3 28l22 1c27 0 25-2 25 21 0 20 0 24-3 25-2 1-18 2-73 2H0v5h19l20 1c1 1 2 4 2 22 0 26 2 24-23 24H0v3q-1 4 4 3l21-1c22 0 20 2 21-25 0-28 0-27 9-27 7 0 7 0 7 26 0 29-2 26 25 26l22 1c2 1 2 5 2 21 0 19 0 19 3 19 2 0 2 0 2-10 0-32 0-32 10-32 7 0 7 1 7 23v19h5v-19c0-20 0-22 5-22l33-2c12 0 12 1 12-23 0-27 0-27 8-28 7-2 8 1 8 29 0 24-2 22 25 22l23 1 1 22v20h5v-34l1-7 3-2q15-5 13 12-1 32 2 31l2-2 1-20c0-24-2-22 25-22 28 0 25 2 26-26 0-25 0-25 8-25 6 0 6 0 7 26 0 19 0 23 2 24l23 1c18 0 21 0 22 2 2 1 2 4 2 22v20h5v-15l1-24c0-5 9-7 12-3 2 1 3 18 2 36q-1 8 2 6h3v-20c0-26-3-24 25-24 29 0 26 3 26-27 1-26 0-26 9-26 6 0 7 1 7 11 0 28 1 38 2 40l23 1c17 0 21 1 22 2l1 22v21h5v-17l1-17q-2-11 7-11c8 0 8 1 8 14 0 24 1 31 4 31h2v-21l1-22c2-1 7-2 24-2 29-1 26 2 26-27 0-26 1-27 11-26 5 1 5 2 5 28 0 19 0 22 2 23l22 1c27 0 25-2 25 22l-1 21q-2 4 3 3h3v-20c0-26 0-25 8-26 9 0 9-1 8 25v21h7l-1-9c-1-14 0-34 2-35q0-2 22-2l23-2c3-1 3-3 3-26 1-24 1-24 9-24q6 0 5 2l1 2-1-5v-5h-30c-34 0-34 0-34-5-2-10-1-38 1-39 1-2 6-2 23-3 18 0 22-1 23-2 2-1 2-6 2-23q0-23 2-25c2-4 13-4 13 1l1 1-1-5v-5h-31c-30 0-31 0-32-2s-2-39 0-42c0-3 2-3 20-3q27 0 28-3l1-24c1-25 1-25 9-25q6 0 5 2l1 2-1-5v-4h-31c-28 0-31-1-32-2-2-2-3-35-1-40 1-5 2-5 23-5l23-1 3-2v-24c-1-4 1-23 3-25s10-1 12 1q1 3 1-1l-1-6h-28c-28 0-34-1-35-4l-1-20c0-25-2-23 21-24 21 0 27-1 28-2l1-23 1-21h-7v10c1 14 0 28-2 29-3 2-105 3-109 2-4-2-4-2-4-22V0h-6v22c0 21 1 22 2 24l23 1 23 1c3 3 3 41 0 44-2 2-4 2-55 2h-56c-3-1-3-2-3-23 0-26-6-23 43-24 7 0 7 0 8-25V0h-6v19c0 24 1 23-17 23l-52 1h-42c-3-1-4-5-3-25V0h-7l1 21v24c1 3 3 3 24 3 26 0 24-2 24 25 0 19 0 19-2 20-4 3-108 3-111 0-2-2-3-41-1-43l24-1c19-1 23-1 24-3 2-1 2-5 2-24l1-22h-6v20c0 16-1 20-2 21-2 3-109 3-112 1l-1-22V0h-6v23l1 24q0 3 25 3h21q3 0 3 29c-1 20 6 18-59 18h-54l-2-2c-1-3-2-33 0-41 0-4 3-5 26-5l23-2c1-2 2-5 2-25V0h-6v19c0 27 4 24-34 24-62 1-79 1-81-1-2-1-2-3-2-22l1-20h-6v23c0 29-2 26 24 27 21 0 23 0 24 3v41c-1 3 0 3-57 4-53 0-54 0-55-2-3-3-2-41 0-44 2-1 5-2 23-2 21-1 24-1 24-4l1-24 1-22h-4q-4 0-2 2c1 4 0 37-1 40-2 3-3 3-60 3l-53-1c-2-1-2-33-1-40l1-4h-8zm624 26c-2 2-2 3-2 25 0 18 0 23-2 24-1 1-4 2-23 2l-23 2c-3 3-2 43 1 45s110 1 112-2l1-22c0-25 3-23-26-23-18 0-21 0-22-2l-1-24c0-26 0-25-8-26q-5-2-7 1m-143 2-2 25c0 26 1 25-12 25-30 0-34 1-36 4-1 5 0 40 2 42 1 2 3 2 55 2l55-1c3-2 3-6 3-26q0-19-2-19c-1-2-4-2-23-2l-23-1c-2-2-2-4-2-24-1-27-1-27-9-27q-5 0-6 2m-279 0c-5 0-5 3-6 27 0 27 1 25-18 25-27 0-28 1-30 2-2 2-2 43-1 45 2 1 13 2 47 2l52-1c20 0 18 2 18-24-1-26 2-24-26-24-19 0-22 0-23-2-2-1-2-5-2-25l-1-24q-4-2-10-1m141 0c-4 1-4 3-4 25 0 29 2 26-24 27-21 0-24 1-25 4-2 4-1 41 1 42l56 1 54-1 2-2c3-3 3-40 0-43-1-2-3-2-24-2-28-1-26 2-26-27l-1-23c-1-1-7-2-9-1m-286 3c-2 1-2 5-2 24l-1 23c-2 3-3 3-25 3-23 1-24 1-24 10-1 16 0 34 1 36 2 3 4 3 60 2 48 0 51 0 53-2 3-3 3-40 0-44l-2-2h-21l-23-1c-1-2-2-3-2-25l-1-24c-1-3-11-3-13 0m496 48c-1 2-2 3-2 24 0 24 0 25-3 27l-23 1c-17 0-21 1-22 2-3 2-3 41-1 43 3 2 110 2 112-1 3-3 3-40 1-43-2-1-4-2-22-2h-22c-4-1-4-4-4-28 0-19 0-22-2-23zm-141 2c-2 2-2 6-2 25 0 28 3 25-26 26-19 0-22 0-23 2-2 2-3 38-1 42 1 2 2 2 35 2 71 0 75 0 77-2 2-3 3-41 1-43-2-1-10-3-11-2h-17c-22 0-20 2-20-26 0-26 0-26-7-26q-5 0-6 2m-140 1c-2 2-2 2-3 23 0 25 0 26-4 27q-4 2-37 2c-11 0-11 0-10 23l1 20c1 3 14 3 95 3 21-1 20 1 20-28-1-19-1-19-10-20h-22c-20 0-18 2-18-26 0-21 0-22-2-24q-5-4-10 0m-144 1c-2 2-2 7-2 24l-1 23c-2 3-7 4-26 4-26 0-23-2-23 24l1 22c2 2 107 1 111 0 4-2 4-8 4-26-1-22 1-20-24-20l-23-1c-3-2-3-2-3-32-1-19-1-20-8-20q-5 0-6 2m496 49c-2 1-2 2-2 24-1 28 1 26-22 26l-24 1c-3 0-3 4-3 24 0 16 0 19 2 20 2 3 109 2 112-1 1-1 2-5 2-21v-20l-3-2q-3-3-4-2h-43l-1-25q0-22-2-24c-2-2-9-2-12 0m-139 0c-5 1-5 2-5 16q0 32-3 34l-22 1-21 1c-3 3-4 41-2 45l55 1c56 0 57 0 59-5 2-4 1-38-1-40-1-2-4-2-24-2-28 0-26 2-25-17q0-27-2-32-4-3-9-2m-144 2c-2 1-2 2-2 23 0 24-1 27-6 27l-22 1c-15 0-19 0-20 2-2 2-2 41 0 43 1 2 6 2 50 2 51 0 62-1 63-3 2-3 1-43-1-44q0-2-24-2c-29-1-26 2-26-26 0-23 0-23-6-24q-3-2-6 1m-284 1c-2 1-3 7-3 27 0 26 1 24-18 24q-26 0-29 3c-2 2-2 40 0 43 2 1 23 3 30 2l41-1 39-1c4-1 4-3 5-23 0-25 3-23-26-23l-24-1-1-25q0-23-2-24c-1-2-10-2-12-1m141 1-2 20c0 27 0 26-3 28l-22 2c-21 0-23 0-23 5-2 8-1 38 1 39 2 3 111 2 114 0 2-3 3-39 1-42-2-2-3-3-25-3l-25-1-1-24c0-21 0-23-2-24-2-3-11-3-13 0m216 48c-3 0-3 2-4 26 0 22 0 23-2 24q-2 2-23 2c-27 1-26 1-26 14q-1 30 2 32l52 1c55 0 59 0 60-3 2-3 2-41 0-43l-23-1c-27-1-24 1-24-20 1-15 0-30-1-32zm140 0c-2 1-2 5-2 25 0 28 3 25-26 26-26 0-25 0-25 12l1 33c2 2 3 2 33 2 42 0 78-1 80-2q2 0 2-22c0-26 3-24-25-24l-22-1c-2-1-2-4-2-23 0-26 0-26-8-27zm-283 3-1 23c0 28 2 26-26 26l-24 2c-3 3-2 44 0 46l56 1 54-1 2-2c3-3 3-39 1-43-2-1-4-2-24-2q-21 0-23-2l-1-24c0-22-1-23-2-25-3-2-11-1-12 1m-143 1-1 23c0 26 0 26-10 26l-38 2c-2 1-3 6-3 26 0 18 0 18 2 20h54c60 0 58 0 59-6v-38c-2-4-2-4-25-4h-21l-1-3c-2-2-2-7-2-24 1-24 1-24-8-24q-5 0-6 2m497 48c-2 1-2 1-3 20v21c0 9 1 9-24 10l-23 1c-2 1-2 3-2 21-1 24-1 23 2 25 5 2 109 1 111-2 3-2 3-42 0-44-1-2-4-2-23-2-20 0-21 0-23-2l-1-24c0-21 0-23-2-24-2-3-10-3-12 0m-143 0c-2 3-3 9-3 30 0 24 2 22-24 22-25 0-24-1-24 17-1 22 0 27 2 29 3 3 108 2 111-1s3-40 1-44c-2-1-3-2-24-2l-24-1-1-24c0-20 0-22-2-24-2-3-10-4-12-2m-283 2q-2 0-2 25l-2 24c0 3-5 3-24 3-24 0-24 0-24 10l1 37c3 2 111 2 114-1 2-1 2-2 2-22l-1-22c-1-2 1-2-30-2q-17 0-18-2-2 0-2-25l-1-24c-2-2-11-3-13-1m141 2-1 24c0 27 2 25-24 25-19 0-22 1-24 2-3 3-2 41 0 44l2 2h54c58-1 57-1 57-4 2-6 1-41-1-42-1-2-5-2-23-2-28-1-26 2-26-27-1-25-1-25-8-25q-4-1-6 3m-283-1c-1 2-2 3-2 25 0 29 2 27-25 27-27 1-24-1-25 22 0 21 0 24 3 25 2 1 102 2 108 0l4-2c1-1 2-39 0-42-1-3-3-3-24-3l-23-2-1-25c0-22-1-23-2-25zm497 49c-2 2-2 3-2 25-1 20-1 24-3 25-1 2-4 2-23 2l-24 2c-2 3-2 39 0 42 2 4 1 4 60 3 47 0 50-1 52-2 2-2 2-3 2-23 0-25 2-22-24-22-27 0-24 3-25-27 0-22 0-23-2-24q-6-3-11-1m-139 1c-4 0-5 4-5 27l-1 23c-1 2-2 2-25 2-19 0-23 1-24 4-2 3-1 39 0 41l5 1 5 1h7l28-1c50 0 66 0 67-2 3-2 3-40 0-42-1-2-4-2-22-2-27 0-25 3-25-27 0-26 0-27-10-25m-141 1c-5 1-4 0-5 26l-1 25q-2 2-26 2c-26 0-24-2-24 23 0 16 0 20 2 22l1 2h46l54-1c13 0 12 0 13-23 0-27 3-24-34-24-16 0-16 0-16-16 1-37 0-38-10-36m-143 1q-5 1-5 12c1 18 0 37-1 38-1 2-4 2-23 3-21 0-23 0-24 2-3 3-3 39-1 43 2 2 110 2 113-1s3-40 0-43c-2-1-5-2-24-2l-23-1-1-24c0-28-1-29-11-27m493 51c-2 1-2 5-2 24-1 29 1 26-25 26-19 0-21 0-22 2-2 2-3 38-1 43l1 2h55c56-1 57-1 58-5 2-6 0-40-1-41l-23-1c-29 0-26 3-26-26l-1-25c-2-2-11-1-13 1m-143 1q-2 0-2 24l-1 24-22 1c-22 1-23 1-24 6-2 8-1 38 1 40s3 2 54 2l55-1c4-1 5-5 5-25 0-24 2-22-26-22l-24-1-1-24c0-18-1-23-2-24-2-3-11-3-13 0m-140 1c-2 1-2 5-2 23 0 27 0 27-10 27l-22 1h-15l-1 3c-2 6-2 39 0 42 1 2 107 2 111 0l3-2v-21c0-19 0-22-2-23-1-1-6-2-24-2l-23-1c-2-1-2-5-2-24 0-21-1-22-2-24q-6-2-11 1m-140 0c-4 0-4 3-4 26 0 27 2 25-19 25-24 0-28 1-30 4-1 4-1 38 1 41l1 2h56c55-1 56-1 57-3 2-2 2-5 2-21 0-25 2-23-25-23-30 0-27 3-27-26 0-27 0-27-12-25m-144 1c-2 1-2 1-2 23l-1 24c-1 3-3 4-28 5l-18 1c-1 1-3 10-2 11v16c0 15 0 16 2 17 2 2 36 2 94 1 22-1 20 1 20-24 0-17 0-20-2-21-1-2-4-2-23-2-29 0-26 3-26-26 0-26 0-26-7-26z"
        mask="url(#16282281824-posters-1720553817752-radial-mask)" itemprop="regular" fill-opacity="0.90"
        fill-rule="evenodd" stroke="none" fill="url(#16282281824-posters-1720553817752-horizontal-regular)"></path>
      <!---->
      <path id="16282281824-posters-1720553817752-medium"
        d="m39 2 1 37c0 7-2 8-23 8-16 0-17 0-17 2 0 3 39 3 42 0 2-2 2-2 2-30l1-17q2-2-2-2-5 0-4 2m22 0 1 24c0 17 0 22 2 23 1 1 5 2 22 2 27 0 24-3 25 22v22c-2 4-4 4-59 4-48 0-52 1-52 2 0 2 2 2 18 2 25 1 22-2 23 25 0 27 3 24-28 25l-13 1c0 3 3 3 21 3 25-1 23 1 23-26s0-28 10-28c7 0 7 1 8 27l1 23 2 2 11 1c37-1 35-2 35 24 0 21 0 22-5 23l-82 2c-23 0-24 0-24 2s1 2 18 1c24 0 22-1 23 16q2 28-3 32l-16 1q-20 0-16 3h35c3-1 3-3 4-26 0-24 0-25 6-26 11-1 11 0 11 27 0 28-2 25 25 25l22 1c3 2 3 11 3 36-1 12 1 11-32 12l-29 1h-4c-4-2-47-1-47 1s1 2 18 2c24 1 22-2 22 24 1 27 2 25-20 25-18 0-20 1-20 3l20 1c24 0 24 0 24-7l1-43c2-3 11-4 14-1 3 2 3 4 3 28 0 16 1 20 2 21l23 2 23 1c2 2 2 42-1 45-2 2-3 2-50 2H6q-7 0-6 2v3l18-1c25 0 23-2 23 23 1 20 0 23-3 24l-20 2c-17 0-18 0-18 2 0 3 42 2 44-1l1-18c0-32 0-32 9-32 8 0 8 0 8 26 0 22 1 23 2 25l23 1 22 1c2 1 3 5 3 25 0 15 0 16 2 16s2 1 2-24c0-17 1-18 9-19s9 1 9 24c0 16 0 19 2 19l1-10c0-35-2-32 26-33l23-2c1-2 2-11 1-13v-2l1-17c0-17 0-17 8-18s8 1 9 27l1 22c2 3 11 3 13 1h3l15 1c18 1 17-1 17 24 0 17 0 20 2 20l1-12c1-32 0-31 7-32q14-1 12 12c-2 7-1 32 1 32q2 2 2-21c0-25-2-23 25-24 22 0 25 0 25-3l1-23c1-24 1-24 8-24 8 0 7-2 8 34 1 19-1 17 25 17 27 0 24-3 25 24 0 19 0 20 2 20s2-1 2-19l1-22c1-4 10-5 13-1q2 0 2 36 0 7 2 6c2 0 2-21 1-33v-4l1-2c0-5 2-6 26-6l23-1c1-1 2-5 2-25 1-27 0-27 9-27 8 0 8 1 8 27l1 24 22 1c28 1 25-2 25 25v21h4v-41l3-3q2-3 7-2c7 1 7 1 7 25v21h5v-21c0-27-3-25 25-25 20 0 22 0 23-2 2-1 2-5 2-24 0-26 0-26 8-26 10 0 9-1 9 39 0 13-1 13 25 13l23 1c1 2 2 37 0 42q0 4 2 3c3 0 4-7 4-31 0-15 0-15 8-15 9-1 9-1 9 24v22h5l-1-19c0-29-1-28 22-28q24 0 28-3l1-22 1-24c2-4 13-4 13 0l1 2-1-5v-4h-31c-28 0-31-1-33-2-2-3-3-36-1-41s3-5 28-5c18 0 19-1 20-2q2-3 2-25c1-26 1-26 8-26a5 5 0 0 1 8 4l-1-5v-3h-27c-40 0-38 1-38-15v-16l1-9c0-9 0-8 25-9q23 0 23-2 2 0 2-23c0-27 0-27 8-27q7 0 6 3v-5q2-2-31-2c-29 0-32 0-33-2l-1-17c-1-23 0-23 2-26l2-2 20-1 23-1 3-2v-23q0-24 2-25c2-2 11-2 13 1q1 2 1-2l-1-4-30-1c-38 0-34 3-34-24 0-26-3-24 25-24 27-1 25 1 25-26V0h-5v17c0 20 0 21-4 23l-55 2c-53 0-54 0-55-2-2-2-2-4-2-21V0h-3c-2 0-2-2-2 28l1 17 23 1 22 1c3 2 3 4 3 18 0 31 2 29-18 30h-52l-36 1c-2 1-9-2-10-5-2-4-1-39 1-41s7-3 28-3l19-2c2-1 2-6 2-23l1-22h-5v19c0 24 1 23-19 23-35 2-93 1-95-1-2-1-2-3-2-21V0h-5v18c0 24 0 28 4 29l22 1c24 0 23-2 23 24q0 19-2 21c-2 3-11 3-59 3-49 0-51 0-53-2s-2-2-2-22l1-22 22-2 24-1c3 0 4-4 4-26V0h-5v19c0 21 0 23-5 24-6 2-102 2-107 1l-3-3c-1-2-2-38 0-40l-3-1h-3v23c1 21 1 23 3 25l23 1h21l2 2 1 20c0 20 0 24-3 25H282c-3-1-4-4-3-24 0-26-2-23 26-24 27 0 25 2 25-22l1-22q1-5-3-4h-2v18c0 20-1 23-4 25l-56 2c-52 0-54 0-56-2l-2-2V0h-4v42c0 7 1 7 24 7 27 0 24-2 25 24v20l-2 2-3 3h-23l-53 1c-39 0-35 2-36-19 0-23 1-27 3-29l23-2q21 0 23-2l2-21 1-23q1-4-3-3h-2v20c0 20-1 21-2 23-3 2-27 3-89 3-22 0-24 0-26-3l1-41q0-2-3-2-5 0-3 2m624 46c-2 1-2 5-2 23l-1 24c-2 3-5 4-26 4-24 0-23-1-23 20q-2 24 3 28c2 2 107 1 111-1 3-2 3-7 3-27 0-22 2-21-25-20-28 0-25 3-25-26 0-22 0-23-2-25-3-3-11-3-13 0m-144 2-1 24q0 24-2 24 0 2-22 2h-21l-2 3c-3 3-3 41 0 44l28 1h54c36 0 32 2 33-23l-1-22c-2-3-3-4-31-3-12 0-15 0-17-2l-2-1V75c0-27 0-27-9-27q-6 0-7 2m-282 1c-2 2-2 6-2 23l-1 24c-1 3-5 4-25 4s-22 1-24 5c-1 4-1 38 1 41s2 3 59 3c53 0 54-1 56-3s2-3 2-22c0-25 1-24-15-24-35-1-32 0-34-3-2-1-2-5-2-24l-1-24c-2-3-12-3-14 0m143 0c-2 1-2 4-2 21q0 27-3 28l-18 1q-25 0-27 3c-3 3-3 41 0 44 2 2 107 2 111 0l3-2v-21c0-28 3-25-25-25-20 0-23 0-24-2-2-1-2-5-2-22 0-25 0-26-7-27q-5 0-6 2m-284 1c-2 2-3 2-3 25q0 24-2 24 0 2-23 2c-27 1-24-2-25 24v20l2 3 3 2h54c52-1 54-1 56-3s3-40 1-44q-2-4-23-3-24 1-24-2l-1-23-1-23c-2-4-10-6-14-2m498 48c-3 1-4 4-4 27q0 23-2 23 0 2-23 2c-19 0-22 1-24 2-3 3-2 42 0 45 4 2 109 2 112-1 2-2 3-2 3-22 0-26 2-24-23-24l-23-1c-3 0-3-2-3-24l-1-23c0-4-7-6-12-4m-143 2c-2 2-2 2-3 25 0 28 2 26-19 26-24 0-28 1-30 2-2 3-2 41 0 44a565 565 0 0 0 99 1h13l1-3q3-1 2-22c-1-21-1-22-8-22l-3-1h-2c-2 2-32 1-34-1-2-1-2-4-2-24 0-26 0-27-7-27zm-284 2c-2 2-3 2-3 25 0 21-1 23-2 24q-1 2-23 2l-23 2-1 23v21l2 2q2 2 4 1l50-1c52 0 57 0 59-3l1-21c0-27 3-24-29-24l-19-1-2-2v-23c0-26 0-25-7-26q-5-2-7 1m143 0c-2 1-2 6-3 25q0 24-2 24c-1 1-5 2-22 2-24 0-25 0-26 4-2 4-1 38 0 40 3 4-1 4 91 3 27 0 25 2 25-24s2-24-24-24l-23-1c-2-1-2-5-2-24l-1-24c-2-3-11-4-13-1m352 50q-2 0-2 24l-1 24-23 1-23 2c-3 4-3 42 1 45 2 2 107 2 111 0 3-2 4-6 4-24q0-24-3-22l-2-1-3-1c-6 2-41 2-42 0l-2-23c0-27 0-27-8-27q-6 0-7 2m-142 1c-2 2-2 3-2 24l-1 24c-2 2-4 2-38 2-9 0-9 0-9 24 0 18 0 20 2 22 1 2 3 2 55 2 54-1 56-1 58-4 2-4 1-41-1-43l-23-2-24-1c-2-1-2-5-2-24 0-22-1-23-2-25-3-2-11-1-13 1m-141 0-2 23c0 21-1 27-3 27l-24 1c-19 0-19 0-21 2-1 3-2 39 0 43 1 4-6 3 61 3h51l2-3c2-2 2-3 2-20 0-20-1-24-4-25l-24-1c-26 0-24 2-24-25 0-25 0-25-8-26zm-142 2c-2 1-2 2-2 23 0 29 2 26-23 27-22 0-25 1-25 5-2 11-1 39 1 41s108 2 113 0c2-2 3-4 3-20 1-28 3-27-28-27-19 0-22 0-23-2l-1-24c0-25 0-25-8-25zm-142 1c-2 2-2 5-3 24 0 27 0 26-13 26-25 0-31 0-33 2-3 3-3 41 0 44 2 2 20 3 77 1 33 0 35-1 37-4 1-2 2-37 1-40s-4-3-26-3c-27 0-25 2-24-21 0-20 0-27-3-30-2-2-11-1-13 1m497 48c-2 3-2 3-2 24l-1 23c0 2-3 3-26 3-22 1-22 1-23 5v40c2 4 0 4 58 4 54-1 56-1 58-4v-42c-2-3-7-4-27-4l-21-1-1-24c0-21 0-22-2-24q-6-4-13 0m-141 1c-2 1-2 5-2 24l-1 24c-2 2-4 2-21 3-22 0-26 1-28 3-3 3-2 42 1 44h110c4-2 4-5 4-25 0-25 3-23-25-23l-22-1-1-25c0-20-1-24-2-25-2-2-12-1-13 1m-142 2-1 24-1 22q-2 3-36 3c-15 0-14-1-14 24 0 21 0 23 3 25 3 1 106 0 110-1 3-1 4-4 4-23 0-18-1-22-4-24l-22-1-22-1q-2-3-2-25v-23l-3-2q-8-4-12 2m-141 0-3 6c1 11 0 40-1 41-2 2-5 3-34 3-16 1-15-1-15 26 0 18 0 21 2 22 1 1 100 2 108 0 6-1 7-2 6-25 0-26 2-23-25-23-20 0-21-1-23-2l-1-25c0-25 0-24-7-25q-5 0-7 2m497 47c-4 2-4 3-4 25l-1 24-2 3h-22q-23 0-23 2c-3 2-3 43 0 45 2 2 6 2 55 2 60 0 58 0 59-6 2-8 1-40-1-41-1-2-5-2-23-2-19 0-22 0-23-2q-2 0-2-24c0-22 0-24-2-25q-5-3-11-1m-141 1c-6 1-6 2-6 27 0 19 0 22-2 23-1 1-5 2-21 2-23 1-24 1-25 6v38c2 5 2 5 33 5 64 0 79 0 81-2s3-36 2-42c-2-5-2-5-26-5h-22l-2-2-1-19c0-31 0-33-11-31m-286 3c-2 2-3 2-3 25l-1 25-23 1c-25 1-25 1-25 9v37c1 4 5 4 63 4l53-2c1-2 2-5 2-23 0-27 2-25-27-25-18 0-21 0-22-2-2-1-2-4-2-23 0-22 0-26-4-27q-6-2-11 1m143-1c-3 1-3 3-3 27 0 18-1 21-2 23-2 1-4 2-32 2-17 0-17-1-16 25v19l2 2 3 3 54-1c50 0 54 0 55-2 3-3 3-42 1-45-2-1-4-2-23-2l-23-1q-4 2-4-21c0-25 0-26-2-28q-3-3-10-1m-286 2c-1 2-2 9-2 38 0 13 1 13-23 13-20 1-24 1-25 4l-1 35c0 12-5 11 57 11l56-2c4-1 4-4 4-20v-18l-2-7-2-3h-21l-23-1c-1-1-2-5-2-24 0-27 0-27-8-27zm359 49c-5 1-5 3-5 27q0 24-2 24 0 2-23 2c-29 0-26-2-27 21 0 21 0 24 3 25l43 1h53c13 0 13 0 16-3l2-2v-19c-1-26 2-23-23-24-24 0-23 0-24-2-2-1-2-4-2-23l-1-24q-3-4-10-3m138 1c-2 2-2 7-2 25l-1 23q-5 3-30 3c-21 0-20-1-20 23 0 22 1 23 7 24 8 1 103 0 106-1 3-2 4-5 4-24 0-25 2-23-27-23-24 0-22 2-22-25 0-26 0-26-8-27q-6 0-7 2m-421 1c-6 0-6 2-7 27l-1 24q-2 2-23 2c-19 0-22 1-24 2-2 2-2 40 0 44 1 2 1 2 48 2h47c22 0 20 1 21-19 0-20 0-26-3-28l-24-1q-21 0-22-2-2 0-2-24c-1-28-1-28-10-27m139 0c-2 1-3 8-3 29 0 19 0 21-2 22l-22 1c-24 1-24 1-26 5-1 4-1 38 1 41 1 2 4 3 20 2h51c42-1 43-1 44-6v-38c-2-5-4-5-26-5l-22-1-1-25c0-22-1-23-2-25zm353 51c-2 2-3 2-3 25 0 19-1 23-2 24l-24 1-21 2c-2 3-2 42 0 45 2 2 43 2 97 0 20 0 18 2 18-25 1-24 3-21-25-22-18 0-23 0-24-2l-2-23c0-27 0-27-7-27zm-140 0c-5 1-5 2-5 25l-1 24c-2 1-4 2-23 2-20 0-21 1-22 3-3 4-3 42 0 44 1 2 82 2 102 1 12-1 12 0 12-25s3-23-26-23l-23-1c-2-2-2-4-2-24l-1-24q-5-3-11-2m-143 2c-2 2-2 2-2 23 0 27 0 26-10 27l-21 1c-20 1-18-1-18 24 0 27-2 24 19 24l53-1c42 0 42 0 43-4v-41c-2-4-2-4-26-4l-23-1q-2-2-2-24c0-21-1-23-2-25q-5-3-11 1m-282 1c-5 1-5 2-5 26l-1 23c-2 2-4 2-22 3-23 0-24 1-25 7v35c1 6 1 6 26 6 64 0 86-1 88-3 4-3 4-39 1-43l-2-2-22-1-24-1-1-24v-22l-2-3q-3-3-11-1m139 0c-1 2-2 3-2 25 0 29 2 26-25 26l-22 1c-3 3-3 43 1 46 2 2 102 1 112-2 3 0 4-5 4-25-1-23 1-21-27-21l-23-1c-2-1-2-4-2-18q0-30-3-31z"
        mask="url(#16282281824-posters-1720553817752-vertical-mask)" itemprop="medium" fill-opacity="0.90"
        fill-rule="evenodd" stroke="none" fill="url(#16282281824-posters-1720553817752-vertical-medium)"></path>
      <!---->
      <path id="16282281824-posters-1720553817752-bold"
        d="m40 1 1 22c0 26 2 24-25 24q-17 0-16 3l4 1 20-1 17-1c2-1 2-4 3-24l1-24q2-1-3-1-4 0-2 1m21 1 1 22c0 28-1 26 19 26q25-1 28 2c3 3 4 42 1 45s-19 3-70 3c-34 0-40 0-40 2l18 1c18 0 19 0 21 2 2 3 2 2 2 27 0 23 2 21-23 21l-18 1c1 2 36 2 41 1 2-1 2-1 2-25 1-27 1-27 10-27s9 0 9 26c0 29-2 26 23 26 28 0 26-2 26 26 0 18 0 19-2 21-2 3-1 3-60 3l-49 1c0 2 3 2 17 2 26-1 25-2 25 25 0 24-1 25-14 25-10-1-21 0-21 1 0 2 32 1 35-1 1-1 2-3 2-22l1-24c2-5 15-6 16-1l2 34c0 15 0 15 15 14q10-1-1-2c-12 0-11 0-11-24v-21l2-3c3-2 3-2 23-2 18 0 20 0 21-2 2-1 2-5 2-24 1-26 1-26 9-26 10 0 10 1 10 27 0 22 0 23 2 24l23 1c28 0 26-2 26 24v19l-3 3-3 3h-19l-20 1H90l-5 1 10 1c14 0 16 1 17 8s1 36-1 39c-2 4-6 4-65 4l-46 1 10 1c33 0 31-1 31 18q1 26-1 30c-2 2-7 3-26 3-12 0-14 0-14 2 0 1 37 1 41-1 3 0 3-3 3-26v-21l3-3q6-4 13 0c2 3 2 3 2 23l2 24c-1 3 0 3 20 4 30 0 28-1 28 21q0 27-3 27c-2 1-38 2-89 2-16 0-20 1-20 2l19 1c25 0 23-2 23 25 0 26 2 24-23 25H1l-1 1c0 2 41 1 43-1l1-22c0-24 1-27 7-28q12-3 12 8 1 5 3-1c1-7 1-7 25-8 12 0 22-1 22-2l1-23c1-24 1-26 5-26l3-1q3-2 8 1l3 2v23c0 20 0 23 2 24 1 2 5 2 23 2 28 0 27-1 27 24l1 11 1-15c0-17 0-18 6-20q7-2 10 1l2 3v22l1 23c2 2 12 2 13 0q2-1-4-1c-7 0-8-2-8-25 0-25-1-24 27-24 25 0 23 2 23-22v-23q0-7 9-7c9 1 9 2 10 28v23h24c30 1 27-2 27 25 0 23 0 24-8 24l-5 1h-47l-45 1 12 1q19 0 19 4l1 21c0 16 1 20 2 20l1-20 1-22c3-3 12-4 16-1l2 3v20l1 20c1 0 2-29 1-36q1-5 4-8l20-1q24 0 27-2l1-23c0-26 0-26 8-26s9 2 9 29l1 20c1 2 2 2 23 2 28 0 25-3 25 24l1 21q2 1 2-12c0-31 1-33 9-33s8 0 8 24l1 21c2 0 2-26 1-33v-4l1-2 2-4c2-2 2-2 25-3l23-1 1-21 1-25c0-5 8-7 13-5 4 2 4 2 4 25l1 24 1 3h21c17 0 21 0 23 2l3 1-1 22 1 21 2-1 1-20c0-24 0-25 8-25l7 1c2 1 3 12 2 20l2 25q2 1 2-21l1-23c2-1 5-2 24-2l24-2c2-2 2-4 2-25 0-26 0-26 9-26s9 1 9 27c0 21 0 23 2 24l21 1 23 1 3 2v20l-1 22q-2 3 1 2l2-2 3-44c1-2 10-2 13-1 4 2 4 8 4 31-1 16-1 16 1 16q2 1 2-4c-2-10 0-39 3-42l2-2h20c22 0 24 0 24-3l1-24c1-25 1-24 10-24q5 0 5-2l-28-1c-32 0-37-1-38-5-1-8 0-41 2-43 2-1 5-2 24-2l23-1 1-24 1-24a10 10 0 0 1 16-1l-1-4c0-1-3-2-31-2-38 0-34 3-34-24s-1-25 16-25 32-1 33-2l1-10q0-36 2-39l7-1q7 1 6-2 1-3-4-2l-12 1h-8l3 3 3 3v20c0 27 2 25-22 25l-24 1h-44c-26 1-27 1-28-8s-1-36 1-38l2-3h21l23-1 1-22c0-28 1-31 13-28 6 1 6 1 6 27l1 23c2 1 42 2 42 0s-2-2-20-2c-22-1-20 2-20-25 1-26-2-24 24-24q21 0 23-2l3-1v-21c0-28 0-29 9-29q7 0 7 2 1 3 1 0l-1-4c0-1-4-2-30-2-39 1-35 3-35-24 0-26-2-24 20-24 21-1 28-2 29-3l1-22c1-20 1-21-1-21s-2 1-2 18c0 19-1 21-6 23l-55 1c-52 0-53 0-55-2s-2-3-2-21q0-21-2-19l-1 27 1 18 22 1c28 0 26-2 26 24 0 20-1 23-5 24l-55 2h-53l-3-2-2-3V73l-1-19c-3 0-4 41-1 44l22 1c21 0 25 0 26 3 2 4 1 42-1 44-1 2-43 4-60 3l-39 1c-16 1-17-1-17-26 0-22 1-24 9-24l38-2q2 1 3-23c0-24 0-25 2-26 2-3 11-3 13 1q4 5 7-1l3-2 22-1c18 0 22 0 23-2l2-23c0-21 0-21-2-21s-2 1-2 19c0 24 0 23-10 24h-10l-48 1c-44 0-44 0-46-2s-2-3-2-22 0-20-2-20-2 1-2 23v22l3 1 21 1c17 0 18 0 21 2l3 2v42l-2 1c-2 2-10 2-55 2-58 1-56 1-59-3-2-3-3-33-1-40 1-5 1-5 28-6 25 0 23 1 23-16l1-22q1-10-2-9c-2 0-2 1-2 20 0 18 0 20-2 22l-2 2h-55l-55 1-2-3c-2-2-2-4-2-22l1-20h-3q-2 0-2 2l1 23 2 22q0 2 23 2c27 0 25-3 25 23 0 20-1 23-5 25l-55 1h-54l-2-2c-2-3-2-3-2-23 0-27-3-25 29-25l20-2q2 2 2-16l1-23q0-8-2-7c-1 0-2 1-1 16q1 26-5 27c-2 2-9 2-57 2h-55l-1-2c-2-2-2-4-2-22l1-20-2-1c-2 0-2 0-2 22l1 23c0 3 3 3 24 3 27 1 25-2 24 26v20l-2 2-3 3H139l-2-3c-2-3-2-28-1-38 2-9 2-9 25-9q20 0 22-2l3-1V25l1-23q1-2-2-2-4 0-2 2l1 19c0 20-1 23-7 24-8 2-107 2-109 1-2-2-2-3-2-24V0h-3q-2 0-2 2m623 45c-1 2-2 4-2 23v24c-1 4-3 4-24 4-19 0-23 1-25 5v41c2 4 1 4 59 4 52 0 54-1 56-2 2-2 2-4 2-23 0-28 3-25-25-25-19 0-22 0-23-2l-1-23c0-24-1-27-6-27l-6-1q-2-1-5 2m-424 2c-3 1-3 3-4 25 0 24 0 26-3 26l-21 1c-20 0-24 1-25 5-2 4-1 41 1 43l2 3 55-1 57-1q6-3 4-35c-2-15 0-14-27-14-18 0-21 0-22-2-2-1-2-4-2-23l-1-24q-4-6-14-3m142 1c-2 2-3 2-3 25q0 21-2 24l-22 2c-20 0-21 0-24 3l-2 2v20c0 18 0 20 2 22l2 2h54c56 0 58 0 59-5l1-21c0-26 2-24-25-24l-24-1c-2-1-2-3-2-22l-1-25c-2-4-9-6-13-2m-283 0c-5 2-4 1-5 36v14l-3 1-19 2H71c-6 0-7 3-7 25 1 19 1 22 5 24h101c13-1 12-1 13-18v-19c1-13-1-14-30-14l-18-1-2-24c0-22 0-23-3-25q-4-3-11-1m496 50c-4 3-4 5-4 31l-1 19-24 2c-28 0-25-2-25 25v20l2 2c2 2 4 2 56 2l55-2c4-1 5-5 5-24 0-25 2-23-26-24l-23-1v-23c0-25 0-26-6-28q-7-2-9 1m-143 2c-2 2-2 3-2 18l-1 31-23 1c-23 1-25 1-27 6-2 6-1 36 1 40l2 3h11c94 1 99 0 101-2s2-3 2-23c0-23 0-24-8-24l-4-1h-1c0 2-32 1-34-1l-1-23c0-26 0-26-8-27q-6 0-8 2m-282 0c-4 2-4 3-4 25l-1 23c-2 4-3 5-28 5l-18 1c-6 3-6 48 0 48 5 1 102 0 106-1 9-1 10-3 9-28-1-22 1-20-26-21q-20 0-23-2l-1-24c0-23 0-23-2-24q-6-4-12-2m141 1-2 3v22c0 20 0 23-2 24q0 2-23 2c-29 1-26-2-26 25 0 23-1 23 8 24h83c29-1 27 1 27-25l1-22v-2q-2 0-1 2h-2c-2-2-4-3-24-3l-22-1-1-21c0-26-1-30-9-30zm211 51c-2 1-2 2-2 16l-1 16q-3 1-1 2c3 0 2 11 0 14-2 2-3 2-22 2-26 0-24-2-25 24v21l3 3 2 2h54c44-1 54-1 56-3q3 0 3-30c0-18 1-17-27-17-27 0-24 2-25-20 0-27 0-28-2-30s-10-3-13 0m-139 0c-3 1-4 5-5 27 0 23-1 24-5 24h-3l-19 1c-16 0-19 0-20 2l-1 22c0 28-4 25 29 25h72c15 1 16-1 17-22 0-31 2-29-27-29l-24-1-1-22c0-23-1-27-5-27zm-145 3-1 23c-1 28 2 26-23 26-28 0-27-1-27 26 0 26-2 24 31 23l85-2c3-1 4-5 4-24 0-25 3-23-27-23-22 0-23 0-24-2l-1-23c0-26 0-26-9-26q-7 0-8 2m357 48-3 3v22l-1 23c-1 1-5 2-23 2-29 1-28 1-28 20l1 16c0 16-6 14 55 14l56-1c7 0 7-1 7-24 0-27 3-25-25-25l-23-1-1-24c0-25 0-26-8-27q-5 0-7 2m-143 1c-1 2-2 4-2 26 0 20 0 23-2 24l-23 1c-24 1-24 1-25 6-2 5-2 35-1 38 3 6 0 6 56 6 60-1 61-1 61-7q2-5 3 2c0 7-1 7-23 7-21 0-24 0-25 4l-1 25q0 15 3 18l2 3h54c50 0 54-1 56-2l3-2v-21l-1-24-24-2-23-1c-2-2-3-25-2-31v-7q0-15-12-13c-6 2-6 4-6 22l-1 17q-2-1-2-13 0-22-3-24l-21-1-23-1-2-2v-48l-3-1q-7-3-13 1m-141 2-2 25c0 18 0 22-2 23l-23 1c-28 1-25-1-26 19-1 21 0 27 2 30 3 3 110 3 114 0 2-2 2-3 2-23 0-27 1-25-18-25-25 0-29 0-30-2l-1-24c0-26 0-25-10-26q-5-1-6 2m-140-1c-4 2-4 3-5 26l-1 24-23 1c-27 1-25-1-26 23 0 24 0 26 5 27l24 1 43-1c40 0 42 0 44-2 1-2 2-3 2-23 0-27 2-25-26-25-17 0-21 0-22-2l-1-24c0-18-1-22-2-23-2-2-9-3-12-2m494 50-2 4-1 22-1 21c-1 3-3 3-29 3q-15 0-19 4l-1 22c0 18 0 20 2 22l2 3 54-1h56c4-2 5-6 5-27-1-25 2-23-26-23l-23-1-1-25q0-24-2-24c-2-3-12-3-14 0m-280 1c-4 0-5 1-5 24-1 24-2 27-4 27l-21 1-22 1c-3 2-4 6-4 25v19l3 3 3 2h54c54-1 54-1 56-3s2-5 2-23c0-27 3-24-26-25-19 0-23 0-24-2l-1-23c0-26 0-27-11-26m-146 2c-2 1-2 5-2 24l-1 24c-2 2-5 3-24 3-27 0-25-1-26 23 0 23 0 25 6 27 5 1 107 1 110-1 4-1 5-5 5-24l-1-21c-2-4-5-5-28-5l-21-1-1-23c0-28 0-28-10-28q-6 0-7 2m-141 0c-3 1-3 1-3 26l-2 25-22 1c-28 0-25-2-25 25l1 24c2 2 108 2 112 0s5-6 5-21v-18l-2-7-3-3-21-1-23-1-1-24q0-23-2-25c-1-1-11-2-14-1m497 49c-3 2-3 5-4 44 0 8 0 8-23 8-28 0-27 0-27 14l-1 5v11c-1 4 1 14 3 17l2 2h53c59 0 58 0 60-6l1-21c0-25 3-23-37-23q-12 0-11-2l-1-22c0-23-1-26-5-27zm-140 1c-4 1-5 5-5 25 0 27 0 26-8 27h-22c-19 1-19 1-21 5v39c2 5 4 5 34 5 55 0 79-1 81-3s2-4 2-22c0-27 2-24-24-25-27 0-24 3-24-25-1-28-1-29-13-26m-280 1-4 1c-5 0-5 3-5 27l-1 24-22 1c-22 0-25 1-27 6-1 6 0 36 1 40 2 4 2 4 42 4h55c21-1 20 1 20-25v-20l-3-3c-2-2-2-2-23-2-18 0-21 0-22-2-2-1-2-5-2-23 0-20 0-23-2-25q-4-4-7-3m137 1-3 3v23q0 23-2 24l-22 2c-23 0-25 1-27 5-1 5 0 39 2 42l2 2h34l41-1h13a6 6 0 0 0 7 0h12c6-2 7-4 7-26 0-25 2-23-26-23-26 0-23 3-23-24 0-25-1-29-9-29zm212 50c-4 2-4 2-5 27 0 19 0 22-2 23l-20 1c-21 0-23 0-25 6v40c2 4 2 4 22 4l18 1h2l34-1c36 0 38 0 39-3 2-4 1-43-1-45-1-2-3-2-24-2l-24-1v-23l-1-24q-4-6-13-3m139 2c-1 2-2 5-2 25l-1 23-21 1c-22 0-23 0-25 3-2 4-2 38 0 43l1 3h55c54 0 55-1 58-3l3-2v-20c0-26 3-24-27-25l-23-1-1-22c0-28 0-27-8-28-7 0-7 0-9 3m-283 1-1 22c0 22 0 27-3 27l-21 1c-24 0-24 0-25 10-2 11-1 35 2 38l2 2h52c60-1 59-1 61-6 1-4 2-34 0-40-1-5-3-6-27-6l-23-1-1-22c0-21 0-23-2-25-3-3-11-3-14 0M64 432v33l1 4h22c28 1 25-2 26 24q1 37 2 0c0-23 1-24 10-24s9 0 9 24c0 16 0 19 2 19l1-19c0-25-1-24 18-24l22-2h9l1-3q1-8-2-10l-1 4c0 8 3 7-65 9-59 1-53 3-53-20q0-20-2-15"
        mask="url(#16282281824-posters-1720553817752-horizontal-mask)" itemprop="bold" fill-opacity="0.90"
        fill-rule="evenodd" stroke="none" fill="url(#16282281824-posters-1720553817752-vertical-bold)"></path>
    </pattern>
    <rect id="16282281824-posters-1720553817752-pattern-render" fill="url(#16282281824-posters-1720553817752-pattern)"
      width="100%" height="100%"></rect>
  </defs>
  <radialGradient id="lightbar" cx="50%" cy="200%" fy="0" r="201%">
    <stop offset="0%" style="stop-color: rgb(255, 255, 255); stop-opacity: 0.1;"></stop>
    <stop offset="10%" style="stop-color: rgb(0, 0, 0); stop-opacity: 0.1;"></stop>
    <stop offset="30%" style="stop-color: rgb(0, 0, 0); stop-opacity: 0.3;"></stop>
    <stop offset="90%" style="stop-color: rgb(0, 0, 0); stop-opacity: 0.55;"></stop>
    <stop offset="100%" style="stop-color: rgb(0, 0, 0); stop-opacity: 0.6;"></stop>
  </radialGradient>
  <g class="radial">
    <radialGradient id="16282281824-posters-1720553817752-radial" gradientUnits="userSpaceOnUse">
      <stop itemprop="radial" stop-color="#dad9d8" offset="0%"></stop>
      <stop itemprop="radial" stop-color="#d7d7d5" offset="15%"></stop>
      <stop itemprop="radial" stop-color="#dad9d8" offset="30%"></stop>
      <stop itemprop="radial" stop-color="#d7d6d5" offset="45%"></stop>
      <stop itemprop="radial" stop-color="#d7d6d5" offset="60%"></stop>
      <stop itemprop="radial" stop-color="#d7d7d5" offset="75%"></stop>
      <stop itemprop="radial" stop-color="#d5d4d2" offset="90%"></stop>
    </radialGradient>
    <radialGradient id="16282281824-posters-1720553817752-radial-background" gradientUnits="userSpaceOnUse">
      <stop stop-color="#d3cec5" offset="0%"></stop>
      <stop stop-color="#d3cfc5" offset="15%"></stop>
      <stop stop-color="#d3cec5" offset="30%"></stop>
      <stop stop-color="#d3cdc5" offset="45%"></stop>
      <stop stop-color="#d3cdc5" offset="60%"></stop>
      <stop stop-color="#d3cfc5" offset="75%"></stop>
      <stop stop-color="#d3cec5" offset="90%"></stop>
    </radialGradient>
    <radialGradient id="16282281824-posters-1720553817752-radial-light" gradientUnits="userSpaceOnUse">
      <stop stop-color="#9c9a96" offset="0%"></stop>
      <stop stop-color="#9b9a97" offset="15%"></stop>
      <stop stop-color="#9c9a96" offset="30%"></stop>
      <stop stop-color="#9b9997" offset="45%"></stop>
      <stop stop-color="#9b9997" offset="60%"></stop>
      <stop stop-color="#9b9a97" offset="75%"></stop>
      <stop stop-color="#9c9a96" offset="90%"></stop>
    </radialGradient>
    <radialGradient id="16282281824-posters-1720553817752-radial-regular" gradientUnits="userSpaceOnUse">
      <stop stop-color="#83817c" offset="0%"></stop>
      <stop stop-color="#82817d" offset="15%"></stop>
      <stop stop-color="#83817c" offset="30%"></stop>
      <stop stop-color="#82807d" offset="45%"></stop>
      <stop stop-color="#82807d" offset="60%"></stop>
      <stop stop-color="#82817d" offset="75%"></stop>
      <stop stop-color="#83817c" offset="90%"></stop>
    </radialGradient>
    <radialGradient id="16282281824-posters-1720553817752-radial-medium" gradientUnits="userSpaceOnUse">
      <stop stop-color="#51504d" offset="0%"></stop>
      <stop stop-color="#51504d" offset="15%"></stop>
      <stop stop-color="#51504d" offset="30%"></stop>
      <stop stop-color="#514f4d" offset="45%"></stop>
      <stop stop-color="#514f4d" offset="60%"></stop>
      <stop stop-color="#51504d" offset="75%"></stop>
      <stop stop-color="#51504d" offset="90%"></stop>
    </radialGradient>
    <radialGradient id="16282281824-posters-1720553817752-radial-bold" gradientUnits="userSpaceOnUse">
      <stop stop-color="#2f2e2d" offset="0%"></stop>
      <stop stop-color="#2f2e2d" offset="15%"></stop>
      <stop stop-color="#2f2e2d" offset="30%"></stop>
      <stop stop-color="#2f2e2d" offset="45%"></stop>
      <stop stop-color="#2f2e2d" offset="60%"></stop>
      <stop stop-color="#2f2e2d" offset="75%"></stop>
      <stop stop-color="#2f2e2d" offset="90%"></stop>
    </radialGradient>
  </g>
  <g class="vertical">
    <linearGradient id="16282281824-posters-1720553817752-vertical" gradientUnits="userSpaceOnUse" x1="0" x2="0" y1="0"
      y2="100%">
      <stop itemprop="vertical" stop-color="#dad9d8" offset="0%"></stop>
      <stop itemprop="vertical" stop-color="#d7d7d5" offset="15%"></stop>
      <stop itemprop="vertical" stop-color="#dad9d8" offset="30%"></stop>
      <stop itemprop="vertical" stop-color="#d7d7d5" offset="45%"></stop>
      <stop itemprop="vertical" stop-color="#d7d6d5" offset="60%"></stop>
      <stop itemprop="vertical" stop-color="#d7d7d5" offset="75%"></stop>
      <stop itemprop="vertical" stop-color="#d5d4d2" offset="90%"></stop>
    </linearGradient>
    <linearGradient id="16282281824-posters-1720553817752-vertical-background" gradientUnits="userSpaceOnUse" x1="0"
      x2="0" y1="0" y2="100%">
      <stop stop-color="#ceccca" offset="0%"></stop>
      <stop stop-color="#cdcccb" offset="15%"></stop>
      <stop stop-color="#ceccca" offset="30%"></stop>
      <stop stop-color="#ceccca" offset="45%"></stop>
      <stop stop-color="#cdcccb" offset="60%"></stop>
      <stop stop-color="#cdcccb" offset="75%"></stop>
      <stop stop-color="#ceccca" offset="90%"></stop>
    </linearGradient>
    <linearGradient id="16282281824-posters-1720553817752-vertical-light" gradientUnits="userSpaceOnUse" x1="0" x2="0"
      y1="0" y2="100%">
      <stop stop-color="#ae9f84" offset="0%"></stop>
      <stop stop-color="#aea284" offset="15%"></stop>
      <stop stop-color="#ae9f84" offset="30%"></stop>
      <stop stop-color="#ae9f84" offset="45%"></stop>
      <stop stop-color="#ae9d84" offset="60%"></stop>
      <stop stop-color="#aea284" offset="75%"></stop>
      <stop stop-color="#ae9f84" offset="90%"></stop>
    </linearGradient>
    <linearGradient id="16282281824-posters-1720553817752-vertical-regular" gradientUnits="userSpaceOnUse" x1="0" x2="0"
      y1="0" y2="100%">
      <stop stop-color="#83817c" offset="0%"></stop>
      <stop stop-color="#82817d" offset="15%"></stop>
      <stop stop-color="#83817c" offset="30%"></stop>
      <stop stop-color="#83817c" offset="45%"></stop>
      <stop stop-color="#82807d" offset="60%"></stop>
      <stop stop-color="#82817d" offset="75%"></stop>
      <stop stop-color="#83817c" offset="90%"></stop>
    </linearGradient>
    <linearGradient id="16282281824-posters-1720553817752-vertical-medium" gradientUnits="userSpaceOnUse" x1="0" x2="0"
      y1="0" y2="100%">
      <stop stop-color="#51504d" offset="0%"></stop>
      <stop stop-color="#51504d" offset="15%"></stop>
      <stop stop-color="#51504d" offset="30%"></stop>
      <stop stop-color="#51504d" offset="45%"></stop>
      <stop stop-color="#514f4d" offset="60%"></stop>
      <stop stop-color="#51504d" offset="75%"></stop>
      <stop stop-color="#51504d" offset="90%"></stop>
    </linearGradient>
    <linearGradient id="16282281824-posters-1720553817752-vertical-bold" x1="0" x2="0" y1="0" y2="100%">
      <stop stop-color="#2f2e2d" offset="0%"></stop>
      <stop stop-color="#2f2e2d" offset="15%"></stop>
      <stop stop-color="#2f2e2d" offset="30%"></stop>
      <stop stop-color="#2f2e2d" offset="45%"></stop>
      <stop stop-color="#2f2e2d" offset="60%"></stop>
      <stop stop-color="#2f2e2d" offset="75%"></stop>
      <stop stop-color="#2f2e2d" offset="90%"></stop>
    </linearGradient>
  </g>
  <g class="horizontal">
    <linearGradient id="16282281824-posters-1720553817752-horizontal" x1="0" x2="100%" y1="0" y2="0"
      gradientUnits="userSpaceOnUse">
      <stop itemprop="horizontal" stop-color="#dad9d8" offset="0%"></stop>
      <stop itemprop="horizontal" stop-color="#d7d7d5" offset="15%"></stop>
      <stop itemprop="horizontal" stop-color="#d7d6d5" offset="30%"></stop>
      <stop itemprop="horizontal" stop-color="#d7d7d5" offset="45%"></stop>
      <stop itemprop="horizontal" stop-color="#d2d1d0" offset="60%"></stop>
      <stop itemprop="horizontal" stop-color="#d7d7d5" offset="75%"></stop>
      <stop itemprop="horizontal" stop-color="#dad9d8" offset="90%"></stop>
    </linearGradient>
    <linearGradient id="16282281824-posters-1720553817752-horizontal-background" gradientUnits="userSpaceOnUse" x1="0"
      x2="100%" y1="0" y2="0">
      <stop stop-color="#ceccca" offset="0%"></stop>
      <stop stop-color="#cdcccb" offset="15%"></stop>
      <stop stop-color="#cdcccb" offset="30%"></stop>
      <stop stop-color="#ceccca" offset="45%"></stop>
      <stop stop-color="#cdcccb" offset="60%"></stop>
      <stop stop-color="#cdcccb" offset="75%"></stop>
      <stop stop-color="#ceccca" offset="90%"></stop>
    </linearGradient>
    <linearGradient id="16282281824-posters-1720553817752-horizontal-light" gradientUnits="userSpaceOnUse" x1="0"
      x2="100%" y1="0" y2="0">
      <stop stop-color="#9c9a96" offset="0%"></stop>
      <stop stop-color="#9b9a97" offset="15%"></stop>
      <stop stop-color="#9b9997" offset="30%"></stop>
      <stop stop-color="#9c9a96" offset="45%"></stop>
      <stop stop-color="#9b9997" offset="60%"></stop>
      <stop stop-color="#9b9a97" offset="75%"></stop>
      <stop stop-color="#9c9a96" offset="90%"></stop>
    </linearGradient>
    <linearGradient id="16282281824-posters-1720553817752-horizontal-regular" gradientUnits="userSpaceOnUse" x1="0"
      x2="100%" y1="0" y2="0">
      <stop stop-color="#968669" offset="0%"></stop>
      <stop stop-color="#968969" offset="15%"></stop>
      <stop stop-color="#968469" offset="30%"></stop>
      <stop stop-color="#968669" offset="45%"></stop>
      <stop stop-color="#968469" offset="60%"></stop>
      <stop stop-color="#968969" offset="75%"></stop>
      <stop stop-color="#968669" offset="90%"></stop>
    </linearGradient>
    <linearGradient id="16282281824-posters-1720553817752-horizontal-medium" gradientUnits="userSpaceOnUse" x1="0"
      x2="100%" y1="0" y2="0">
      <stop stop-color="#5d5341" offset="0%"></stop>
      <stop stop-color="#5d5541" offset="15%"></stop>
      <stop stop-color="#5d5241" offset="30%"></stop>
      <stop stop-color="#5d5341" offset="45%"></stop>
      <stop stop-color="#5d5241" offset="60%"></stop>
      <stop stop-color="#5d5541" offset="75%"></stop>
      <stop stop-color="#5d5341" offset="90%"></stop>
    </linearGradient>
    <linearGradient id="16282281824-posters-1720553817752-horizontal-bold" gradientUnits="userSpaceOnUse" x1="0"
      x2="100%" y1="0" y2="0">
      <stop stop-color="#2f2e2d" offset="0%"></stop>
      <stop stop-color="#2f2e2d" offset="15%"></stop>
      <stop stop-color="#2f2e2d" offset="30%"></stop>
      <stop stop-color="#2f2e2d" offset="45%"></stop>
      <stop stop-color="#2f2e2d" offset="60%"></stop>
      <stop stop-color="#2f2e2d" offset="75%"></stop>
      <stop stop-color="#2f2e2d" offset="90%"></stop>
    </linearGradient>
  </g>
  <g class="masks">
    <mask id="16282281824-posters-1720553817752-pattern-mask" maskUnits="userSpaceOnUse"
      maskContentUnits="userSpaceOnUse">
      <pattern id="pattern" x="0" y="0" width=".0133" height=".0144" viewBox="0 0 23.07 40">
        <path
          d="M17.62 0l-6.07 10.5m2.74 4.76L8.22 4.75m-5.48 0h12.13M.01 0h23.07M6.07 20L0 9.5m2.74-4.75l-6.07 10.5m-5.48 0H3.33m8.2 4.75L0 .02-11.54 20m40.68 0L23.07 9.5m2.74-4.75l-6.06 10.5m-5.49 0H26.4M34.6 20L23.08.02 11.53 20m-5.46 0L0 30.51m2.74 4.75l-6.07-10.5m-5.48 0H3.33m8.2-4.75L0 40l-11.54-19.98zM17.6 40l-6.06-10.5m2.74-4.76L8.2 35.25m-5.48 0h12.13M0 40h23.07L11.54 20.01m17.6 0l-6.07 10.5m2.74 4.75l-6.06-10.5m-5.49 0H26.4M11.53 20h23.08L23.07 40"
          stroke-linecap="round" stroke-width="3.5" stroke="white"
          fill="url(#16282281824-posters-1720553817752-horizontal-background)"></path>
      </pattern>
      <rect width="100%" height="100%" fill="url(#pattern)"></rect>
    </mask>
    <mask id="16282281824-posters-1720553817752-horizontal-mask" maskUnits="userSpaceOnUse"
      maskContentUnits="userSpaceOnUse">
      <rect width="100%" height="100%" fill="url(#16282281824-posters-1720553817752-horizontal-background)"></rect>
    </mask>
    <mask id="16282281824-posters-1720553817752-radial-mask" maskUnits="userSpaceOnUse"
      maskContentUnits="userSpaceOnUse">
      <rect width="100%" height="100%" fill="url(#16282281824-posters-1720553817752-radial-background)"></rect>
    </mask>
    <mask id="16282281824-posters-1720553817752-vertical-mask" maskUnits="userSpaceOnUse"
      maskContentUnits="userSpaceOnUse">
      <rect width="100%" height="100%" fill="url(#16282281824-posters-1720553817752-vertical-background)"></rect>
    </mask>
  </g>
  <use href="#16282281824-posters-1720553817752-pattern-render"></use>
  <g>
    <use href="#16282281824-posters-1720553817752-background"></use>
    <use href="#16282281824-posters-1720553817752-light"></use>
    <use href="#16282281824-posters-1720553817752-regular"></use>
    <use href="#16282281824-posters-1720553817752-medium"></use>
    <use href="#16282281824-posters-1720553817752-bold"></use>
  </g>
  <g itemprop="animation">
    <animate href="#16282281824-posters-1720553817752-light" attributeName="stroke-opacity" repeatCount="indefinite"
      dur="5s" values="0.9;0.0;0.9"></animate>
    <animate href="#16282281824-posters-1720553817752-regular" attributeName="stroke-opacity" repeatCount="indefinite"
      dur="4s" values="0.9;0;0.9"></animate>
    <animate href="#16282281824-posters-1720553817752-medium" attributeName="stroke-opacity" repeatCount="indefinite"
      dur="5s" values="0.9;0;0.9"></animate>
    <animate href="#16282281824-posters-1720553817752-bold" attributeName="stroke-opacity" repeatCount="indefinite"
      dur="3s" values="0.9;0;0.9"></animate>
    <animate href="#16282281824-posters-1720553817752-regular" attributeName="fill-opacity" repeatCount="indefinite"
      dur="8s" values="0.9;0.75;0.95;0.8;0.9;"></animate>
    <animate href="#16282281824-posters-1720553817752-radial-background" attributeName="cx" repeatCount="indefinite"
      dur="34s" values="0%;33%;100%;0%;100%;0%;"></animate>
    <animate href="#16282281824-posters-1720553817752-radial-background" attributeName="cy" repeatCount="indefinite"
      dur="55s" values="0%;100%;33%;100%;66%;0%"></animate>
    <animate href="#16282281824-posters-1720553817752-vertical-light" attributeName="x1" repeatCount="indefinite"
      dur="55s" values="0%;33%;100%;0%;133%;0%;"></animate>
    <animate href="#16282281824-posters-1720553817752-vertical-light" attributeName="y1" repeatCount="indefinite"
      dur="86s" values="0%;100%;33%;100%;66%;0%"></animate>
    <animate href="#16282281824-posters-1720553817752-horizontal-regular" attributeName="x1" repeatCount="indefinite"
      dur="34s" values="0%;100%;66%;0%;33%;133%;0%"></animate>
    <animate href="#16282281824-posters-1720553817752-horizontal-regular" attributeName="y1" repeatCount="indefinite"
      dur="55s" values="0%;66%;100%;33%;100%;66%;0%"></animate>
    <animate href="#16282281824-posters-1720553817752-vertical-medium" attributeName="x1" repeatCount="indefinite"
      dur="34s" values="0%;100%;66%;0%;33%;133%;0%"></animate>
    <animate href="#16282281824-posters-1720553817752-vertical-medium" attributeName="y1" repeatCount="indefinite"
      dur="55s" values="0%;66%;100%;33%;100%;66%;0%"></animate>
    <animate href="#16282281824-posters-1720553817752-vertical-bold" attributeName="x1" repeatCount="indefinite"
      dur="34s" values="0%;100%;66%;0%;33%;133%;0%"></animate>
    <animate href="#16282281824-posters-1720553817752-vertical-bold" attributeName="y1" repeatCount="indefinite"
      dur="55s" values="0%;66%;100%;33%;100%;66%;0%"></animate>
  </g>
</svg>
