<svg id="16282281824-posters-1720558226765" itemscope="" itemtype="/posters"
  itemid="/+16282281824/posters/1720558226765" viewBox="0 0 769 512" preserveAspectRatio="xMidYMid meet" tabindex="0"
  class="animate landscape" xmlns="http://www.w3.org/2000/svg">
  <!---->
  <defs class="graphic">
    <pattern id="16282281824-posters-1720558226765-pattern" width="769" height="512" viewBox="0 0 769 512"
      patternUnits="userSpaceOnUse" preserveAspectRatio="xMidYMid meet">
      <rect itemprop="background" width="769" height="512" tabindex="-1"
        id="16282281824-posters-1720558226765-background" fill-opacity="1"
        fill="url(#16282281824-posters-1720558226765-radial-background)"></rect>
      <!---->
      <path id="16282281824-posters-1720558226765-light"
        d="M11 2q-1 8 5 3 4-5-1-5-4 0-4 2m18 39c0 40 0 42 2 43q4 1 6-2l1-42V0h-9zm19 92 1 133 2 3c6 8 6 12 6-110L56 44V20l1-20h-9zM67 16q0 23 3 23c2 0 1 6-1 10-3 6-3 131-1 136q4 5 7 4l1-95V0h-9zm19 42 1 62v391l4 1h5l-1-4-1-9v-7l1-122V251l-3-5q-5-6 1-11l2-4V129L94 22q-3-4 0-10c2-11 2-12-3-12h-5zm20-31v30c0 3 6 3 7-1l1-29V0h-8zm19 49v434q0 3 4 2h4V0h-9zm18-24c1 56 1 55 5 53 3-1 6-13 5-16V0h-10zm20-31c0 24 0 24 4 24s4-1 4-25V0h-9zm38-1v82l1 8h3q3 0 4-4V11l1-7V0h-9zm19 6c0 25 0 26 2 27h4c2-1 2-2 2-27V0h-8zm20-21-1 14v109l-1 7 1 371v6h9l-1-27c0-21 0-28-2-31q-2-7 1-12c1-1 2-419 1-436V0h-4q-4-1-3 5m18 40c0 48 0 49 4 47 4-1 5-5 5-49V0h-9zm19-31c1 13 1 13 3 15q5 3 6-10l-1-11V0h-8zm20 55c0 72-1 72 4 74 4 2 4 0 4-73V0h-8zm18 21c0 93 0 95 4 95 5 0 5 4 5-94V0h-9zm20-68 1 23q3 5 0 10c-2 3-2 41 0 43 3 3 8-3 7-8V0h-8zm19 24v69c0 127 0 114 2 115l4-2 2-3V0h-8zm18 28c0 81 0 79 6 79 3 0 3 6 3-117V0h-9zm20-51c0 22 0 23 2 27l5 3 1-27V0h-8zm19 74v98q3 4 7 2l1-99V0h-9zm19 90v188c1 1 6-1 7-3V151a1738 1738 0 0 0 0-125l1-16V0h-9zm19-113 1 78v8c-2 5-2 79 1 79q4 2 5-3l1-67V0h-8zm19-67q-2 78 3 82 2 4-1 10c-3 5-2 3-2 66v146q3 6 7 1l1-294V0h-8zm19 44 1 133q3 3 6-1l1-93 1-90h-9zm19 142c0 181 1 193 2 195q4 5 0 12c-2 3-2 5-2 58v54h8v-22c0-33 0-38-2-41q-2-4 1-9c1-3 2-77 1-153V145l-2-4-2-4 2-4c3-6 3-51 1-59q-3-6-1-9c3-6 3-53 1-57l-2-5q1-4-3-3h-2zm20-183v328q-1 13 5 6l2-3V0h-7zm18 97c0 112 0 112 4 112 5 0 5 3 5-112V0h-9zM564 7l-1 148c1 152 0 146 6 141l2-3 1-55c0-51-1-64-3-64l-1-4 1-5q3 2 2-28V79l-1-27q-3-4 0-7l1-24 1-21h-8zm19 31-1 41v6l1 58v326q2 3 6-1l2-3V0h-8zm18 84c0 132 0 129 6 125 3-2 3-9 3-127V0h-8zm20-34c-1 105-1 102 2 103 5 1 5-3 6-52V52l-1-50q0-2-4-2h-3zm19-83q0 9 3 8 5 1 5-8V0h-8zm19 75v390c-3 3 3 11 6 10 2-1 3-182 2-391V0h-8zm19 30c0 105 1 110 2 111q2 2 4-1c2-2 2-4 2-33V0h-8zM698 2v14q0 3 4 3h3V0h-3q-4 0-4 2m19-1v121l-1 144v126c-1 21 0 98 1 100q3 6 6 2c1-1 2-185 1-401V0h-3zm18 122c0 112 0 123 2 124q1 2 4-1c2-3 2-4 2-23V0h-8zM755 8c1 14 6 14 7 0V0h-8zm-572 4-1 186v312q0 3 4 2h4v-68l-1-430q-2-3-6-2M12 22c-3 2-2 200 0 205 2 4 2 4 0 8-2 5-3 117-1 121q4 5 7 2c2-3 1-332-1-335q-3-3-5-1m630 12c-2 1-2 4-2 20 0 19 1 22 4 22 4 0 4-2 4-22 0-22-1-26-6-20m114 1c-1 1-3 88-1 93q1 4 5-1c3-3 3-90 0-92zm-57 2c-1 1-2 93-1 106l-1 6 1 10q3 6 1 8c-2 4-3 139-1 141q2 2 4-1l3-3V172l-1-134q-2-5-5-1m-421 7v337q1 8 6 5l1-170V45c0-2-5-3-7-1m116 16q-3 5-3 27c0 10 1 20 3 20 5 0 7-16 5-40q1-14-5-7m-230 3c-1 1-2 85-1 90q1 4 6-1c2-2 2-3 2-44 0-47 0-49-7-45m57 8c-2 3-1 89 0 90q5 2 6-2V71c0-2-6-3-6 0m-115 8c-1 2 0 209 1 211q4 2 6-1l1-64V124c0-43 0-46-4-46zm536 15c-3 2-2 32 0 35h4c2-1 3-34 0-36q-3-2-4 1m-612 8v35q3 4 7 0c1-2 2-32 0-35-1-2-7-3-7 0m229 3c-2 2-1 106 1 110q2 6-1 11v80q3 4 7 0l1-100v-98l-3-2q-3-3-5-1m133 52c0 98 0 92 2 94v2c-3 2-3 185-1 189q4 5 1 12c-2 4-3 46-1 48 1 2 6 0 6-2v-64c0-68 0-67 4-69q3-3-1-4-2 0-2-3V195c0-74-1-77-2-79l-4-2c-2 0-2 2-2 43m-248-40c-1 3-1 85 1 86q4 4 7 0c2-5 0-81-2-84q-4-6-6-2m191 3v280c0 3 5 4 7 1l1-216v-45c0-20-1-23-5-23q-4-1-3 3m-133 5-1 44v43l3 4q2 6 5 2c2-3 1-88 0-91q-4-5-7-2m553 18c-2 3-1 37 1 38q2 3 5 1c2-2 1-37-1-39q-3-4-5 0m-113 4c-2 3-3 147-1 149l4-2 3-3v-72l-1-73q-3-2-5 1m-343 6-2 5v101q3 1 6-5c2-3 3-97 1-101q-1-3-5 0m-269 4-1 178v177h9V379l-1-222q-3-4-7 0m135 8q-2 0-2 3c-1 39 0 85 2 89q3 6-1 11c-2 4-2 112 1 115v7c-2 3-2 12-2 63v59h8V341l-1-173q-1-4-5-3m208 5c-2 6-2 175 1 178q2 4 6 0c1-2 2-178 0-180q-3-3-7 2m-151 10c-3 3-3 102 0 104 2 3 3 10 1 12a8 8 0 0 0-2 10l-1 103v103h8v-33c0-296 0-297-2-299q-2-3-4 0m534 19c-2 1-2 6-2 46v186q0 17 5 12l3-2V320l-1-122q-3-2-5 1m-440 4v128c2 2 2 11 1 15-3 6-2 106 0 113v8l-2 25v20h9V358l-1-156q-4-3-7 1m-245 0-3 3v306h8V358c0-164 0-157-5-155m417 0-1 122v187h4q5 1 4-3V209q-2-10-7-6m133 28v196l-1 79q0 7 5 6h3v-5l1-281c-1-21-1-23-6-23h-2zm-210-17c-2 5-1 61 1 63q4 4 6 0v-63c-1-3-6-2-7 0m-266 6c-3 3-2 83 1 88v6c-3 3-3 136-1 138 1 2 6-1 6-4 2-4 1-48 0-54v-10c2-6 1-47-1-53v-9l2-10v-92q-3-4-7 0m59 6-3 4v72l1 72v2c-1 2-2 35-1 37q3 3 8-1l1-24c0-22 0-23-3-27-3-5-3-6 0-11l3-4v-60c0-67 0-70-6-60m342 10-2 1v45l1 46v5l-1 7 1 8-1 83v81h9V374c0-137-1-137-3-139q-1-2-4 1m132 2v64l1 62 2 1h4V238a5 5 0 0 0-7 0m-324 11 1 46 2 1c5 0 5-2 5-27 0-26 0-28-5-29h-3zm96 5v181l-1 39v38h8v-6l-1-249c0-3-5-4-6-3m285 2v57l1 55h3c4 0 4 1 4-38v-34c2-2-1-35-3-38q-3-5-5-2m-133 7v83q3 5 6 0c3-3 3-76 1-82q-3-5-7-1m-305 4-1 123v122h9l-1-23-1-25v-5l1-96 1-93-3-2q-4-3-5-1M51 278l-2 3v22c0 23 0 24 4 24 3-1 4-3 4-28 0-26-1-28-6-21m362 17c-2 2-3 8-3 111l1 106h8V404c0-106 0-108-2-109zm228 9-1 56 1 54h2c5 1 5 2 5-54l-1-53q-4-4-6-3m-77 1-1 104v103h9v-97c-1-115-1-106-2-107l-2-3zm-457 3c-2 3-2 43 1 45q4 2 5-1v-43q-2-3-6-1m247 3-1 101v100h9v-99c0-91 0-99-2-101q-4-3-6-1m344 4-1 182v15h8v-34c0-32 0-34-2-37q-3-6 1-11l1-56v-53l-2-3q-4-5-5-3m-440 9 1 125-1 26c0 27 0 28 4 28 5 0 5 0 5-88 0-93 0-92-5-92zm211 8-1 74c0 80 0 79 5 79h3v-76c0-72 0-76-2-77q-3-4-5 0M50 345l-1 48c0 64-1 58 3 58 4-1 5-3 5-24-1-15-1-19-3-24-1-5-1-5 1-8 2-4 3-45 0-49q-2-3-5-1m476 7v142c0 14 0 14 3 14 5 0 5 2 5-77l-2-76zm76 15-1 73v72h9v-72c0-68 0-72-2-73q-4-4-6 0m-228 1c-2 2-2 11-2 73v71h9v-71l-1-73q-3-4-6 0m-267 2c-1 2-2 43-1 45s7 1 7-1c2-3 1-43 0-44zm-94 4q-2 1-2 7v130l4 1h4v-68c0-74 0-74-6-70m666 8-1 66v64h8V409l-1-26q-1-3-6-1m58 4c-2 1-2 7-2 64v62h4q4 1 4-2c1-24 0-123-1-124q-2-4-5 0m-306 0c-2 2-3 115-1 123q-1 4 5 3 4 1 3-2v-62c0-58-1-60-2-62zm-152 17c-2 2-2 10-2 56v53h8V402l-3-1zm56 20-1 39c0 39 1 41 6 39l2-1v-71q0-13-7-6m-227 9c-2 1-2 4-2 41v39h9l-1-24v-39c0-17-1-20-6-17m94 2-1 23c0 20 0 21 2 24q3 5 6 1c1-2 1-45-1-48q-3-4-6 0m439-1-1 54v25h8v-38l-1-40c0-2-5-3-6-1m114 25-1 49v5h8v-26c0-25 0-27-2-28q-4-4-5 0M50 468l-1 22v22h8v-21c0-18-1-21-2-22q-3-3-5-1m94 1v31l-1 8q0 5 5 4h4v-5c1-6 0-32-1-35q-3-6-7-3m440 13-1 15v15h8v-13c0-11 0-13-2-15q-3-5-5-2m-381 13q-2 2-2 10v7h8v-7q1-18-6-10m458 0q-2 3-2 10v7h8v-8q-1-17-6-9m-190 4q-2 1-3 7v6h8v-5q1-13-5-8"
        mask="url(#16282281824-posters-1720558226765-horizontal-mask)" itemprop="light" fill-opacity="0.90"
        fill-rule="evenodd" stroke="none" fill="url(#16282281824-posters-1720558226765-vertical-light)"></path>
      <!---->
      <path id="16282281824-posters-1720558226765-regular"
        d="m30 12 1 70q1 3 5 1l1-42V0h-7zm19 120v133l3 3q2 5 3 3c2-2 1-216 0-222V39l1-22V0h-7zM68 17c0 15 0 18 2 21 2 5 2 5 0 10s-2 7-2 70c0 70 0 70 5 70 3 0 3-1 2-33V0h-7zm19 21v55l1 22v396l3 1h4l-1-6V250l-3-5-2-5 2-4 3-5V128c0-90 0-103-2-107v-8l2-9q1-5-3-4h-4zm19-9c0 26 1 28 2 29 4 3 5 0 5-22V0h-7zm19 33 1 92v358h7V0h-8zm19-13c0 53 0 56 3 56 4 0 4-1 4-54l1-51h-8zm19-27c0 19 1 21 2 22 5 3 6 0 6-23V0h-8zm39-14-1 54c0 48 0 50 5 47 3-1 2 3 2-58l1-51h-7zm19-2v46q3 3 6-1l1-26V0h-3q-5-1-4 6m19 42c0 65 0 69 2 71v1c-2 0-4 13-3 15l1 174v203h7v-27l-2-32q-3-4 0-10c2-5 2-11 2-224V0h-7zm19-11c-1 53 0 57 5 54 1-2 2-3 2-46V0h-7zm19-24q0 22 5 16c1-1 2-3 2-15V0h-7zm19 56v69l2 3q3 3 4 1l1-135V0h-7zm19 22 1 93h3l3-1V0h-7zm19-70a76 76 0 0 0 3 30l-1 5c-2 3-3 39-1 41q5 4 6-2V4q1-5-4-4h-3zm19 38 1 61v106q0 5 5 1l1-114V1l-4-1h-3zm19 15c0 72 0 75 2 77q2 3 3 1c2-2 2-11 2-118V0h-7zm19-52c0 22 1 27 4 30 3 2 3-1 3-35V0h-7zm19 74 1 98q2 4 5 2l1-90V0h-7zm20 90c0 212-1 188 2 188 4 0 4 3 4-218V0h-7zm19-173v19c-1 48-1 114 1 118v9c-1 5-3 73-2 78l3 2c5 0 4 4 5-121V0h-8zm19-6q-1 78 1 81 3 6 0 11l-1 103c-1 111 0 112 3 112 4 0 4 0 4-161V0h-7zm19 44v107c0 23 0 26 2 27 4 1 4 3 5-94V0h-7zm19-32v192c0 172 0 173 2 177q5 6 0 11c-2 4-2 5-2 46v57q-2 10 4 10h3v-29c0-27 0-29-2-33-2-5-2-5 0-10 2-6 2-8 1-83v-83c1-27 0-130-1-131-2-1-2-8 0-11 2-4 3-47 1-54q-3-8 0-18c2-11 1-46-1-51l-2-6-1-3c-2 0-2 3-2 19m20-16-1 173c0 180 0 172 5 167 1-2 2-7 2-173V0h-3q-3-1-3 3m18 53c0 169 0 162 3 162 4 0 4-2 4-111V0h-7zm19 93c0 141 0 148 2 148 5 0 5-2 5-61 0-55 0-56-2-62l-2-5 2-4c2-4 2-5 2-27l-2-26 1-7c2-5 2-48 0-52q-3-5-1-10 3 0 2-22V0h-7zm19-130 1 24v9l-1 225c0 184 0 192 2 192l3-2c2-2 3-146 2-440V0h-7zm20 104v124q4 1 5-4l1-179V0h-6zm19-28v95h2c4 0 4 7 4-129V0h-6zm19-91q0 12 5 8l1-7 1-5h-4q-3-1-3 4m19 89v341c0 42 0 42 2 44q2 3 3 1l2-437V0h-7zm19-35v151q0 12 2 12c4 1 4-1 4-29V1l-3-1h-3zm19-49q0 10 2 9 4 4 5-10V0h-7zm19 35 1 47v9l-1 147v145c-1 103-1 101 3 102h2l2-195V0h-7zm19 9v122c-1 76-1 76 5 70l2-3V130L742 9V0h-6zm19-45q0 9 2 8 4 4 5-8V0h-7zm-572 5v499h3q4 1 3-5c2-11 0-492-1-493q-3-3-5-1M12 23c-2 1-1 200 1 203v11c-2 3-3 116-1 119q3 4 6 0V65c0-38 0-42-4-43zm630 11c-3 2-2 40 1 41 4 0 4-1 4-19q2-28-5-22m114 2c-1 1-2 77-1 90q0 6 5 0c2-3 3-82 1-88q-2-5-5-2m-57 1a1189 1189 0 0 0 0 108v24l-1 90v47q1 5 5-1c1-2 2-10 2-133l-1-133q-2-5-5-2m-420 9-1 169c0 180 0 173 5 170 2-1 3-338 1-341q-3-3-5 2m115 16c-2 2-3 10-2 33 0 12 0 11 2 10 4-1 5-5 5-26 0-22 0-23-5-17m-230 3-1 45c0 42 0 44 2 44 5 0 6 0 5-47l-1-43q-3-2-5 1m58 6c-2 2-3 85-1 88q3 4 5 0c2-3 3-83 1-87q-2-5-5-1m-115 8c-2 2-1 207 1 210q1 3 4 1l1-64V83q-2-6-6-4m535 15c-2 1-2 27 0 32q2 5 4 2c2-2 2-33 0-34zm-611 7c-1 2-2 35 0 36l3 1 3-1v-13l-1-23zm228 5c-1 3 0 105 1 109q3 3 1 8c-2 4-3 80-1 83q3 4 5-1l1-99v-98l-2-1q-4-3-5-1m134 9-1 67v66l2 2 2 2-2 2-2 1v183l3 5 2 6-2 5c-3 5-3 5-3 26 0 22 0 24 4 22 3-1 3-2 3-68v-65l2-2q4-3 0-4c-2 0-2-4-2-122V119l-2-3q-3-3-4-1m-248 2c-2 4-1 84 1 86q3 5 5 0c2-5 0-82-1-85q-3-4-5-1m191 2-1 132v140q0 16 6 11c2-2 2-282 0-284q-4-2-5 1m-133 7c-3 2-2 85 1 89q3 6 4 2v-90q-2-3-5-1m552 18c-1 2-1 35 1 37h4c2-2 1-36 0-38q-3-2-5 1m-113 4c-2 2-2 145-1 147l4-2c2-3 2-4 2-22V148q-2-3-5 0m-342 5-3 2v51c1 54 1 56 5 49 2-3 2-5 2-52l-1-51q0-2-3 1m-268 4c-2 1-3 47-2 57v298h7V267c0-110 0-112-3-112zm133 9c-2 0-2 3-2 43v42l3 6 2 5-2 5-3 6v52c0 48 0 53 2 57v7c-1 5-3 115-1 121q0 3 3 2h4l-1-171V168q-2-3-5-2m209 5v176q3 4 5 0l1-90v-89h-3zm-152 9c-3 3-2 101 1 106q4 6 0 11-3 6-1 8v1c-1 1-2 18-2 103v103h8V347c0-147 0-165-2-166q-2-3-4-1m533 20v190l1 53q2 1 5-2V200a3 3 0 0 0-6 0m-437 2c-2 3-3 125-1 131s2 7 0 13l-1 49v51l2 11v12q-2 4-2 24v19h7v-68l-1-242zm-248 3c-2 2-2 12-2 154l1 153h6l1-146-1-154q-1-13-5-7m419-1-1 120v188h3q4 1 3-3V209q-1-8-5-5m133 0v198l-1 59v51h7v-80l-1-227q-2-3-5-1m-210 9-1 33v31l3 1q4 2 4-6v-58q-2-3-6-1m-266 7c-3 3-2 83 0 87q3 3 0 6c-2 4-3 135-1 138h3c4-1 4-8 3-39l-1-24c1-26 0-56-1-59v-7c2-4 3-84 2-98q-1-9-5-4m58 6-2 3v72l-1 93c0 17 0 20 4 20 3 0 4-4 4-27 0-20 0-22-2-25q-4-7 0-12c2-4 2-7 2-64 0-68 0-67-5-60m342 10a1047 1047 0 0 0 0 96l-1 91v89h7V375l-1-139zm133 2v125q2 3 5 2c2-1 2-124 0-127zm-324 3c-2 1-1 51 0 53q4 4 6-1c1-5 0-48-1-50q-3-5-5-2m95 14v180l-1 41v36h8V385c-1-133 0-131-4-131zm287 2c-1 1-2 101-1 107q2 6 5 3l2-38v-37l-1-26c0-5-4-11-5-9m-134 6c-2 3-1 83 1 84q2 1 3-1c3-2 3-80 0-83q-3-3-4 0m-305 6-1 122v121h7v-24l-1-47V270q-2-4-5-1M52 279c-3 3-3 4-3 24 0 23 1 25 5 23 2-1 2-2 2-15v-23q2-20-4-9m360 18-1 108v107h8l-1-107V296q-3-2-6 1m229 8c-2 3-1 107 1 108h4c2-3 2-103 0-107q-3-3-5-1m-76 1-1 103v103h7V411c0-100 0-101-2-103q-3-5-4-2m-458 4c-2 4-1 40 1 42q6 7 5-9c1-10 0-32-1-34q-2-2-5 1m248 1-1 101v100h7V313q-4-3-6-2m343 6v62l-1 64c0 72 0 69 4 69h4v-66l-3-5-2-4 2-6 3-5v-53c0-51-1-52-3-55q-3-5-4-1m-439 8v137l1 40q3 3 5-1V326q-3-5-6-1m211 7c-2 2-2 148 0 150q2 5 5 2V333q-2-3-5-1M50 346c-2 3-1 102 1 104q1 2 3-1c3-2 3-40 1-44q-3-4 0-12c2-4 2-44 0-47zm476 84c0 83 0 81 5 76 3-2 3-146 0-151-5-8-5-9-5 75m-151-62c-2 2-2 11-2 73v71h7v-71c0-64 0-72-2-73q-2-3-3 0m228 0-1 73v71h7v-71l-1-73c0-3-5-2-5 0m-496 3c-2 3-1 43 1 44q2 2 4-1c2-2 2-4 2-22l-1-21zm-95 6-1 69v66h4q4 1 3-3V375q-4-3-6 2m668 6c-2 2-2 100-1 128l3 1h3v-6c1-50 0-123-1-124q-3-2-4 1m57 4c-1 1-2 80-1 114v11h7l-1-63-1-63q-1-2-4 1m-306 0-1 63v62h8l-1-62-1-63zm-151 16c-2 1-2 7-2 55v54h7v-54c0-59 0-61-5-55m56 20c-1 2-2 75 0 77q4 1 6-2v-39c0-36-1-37-3-37zm-229 11v72l-1 6h8v-35c0-41-1-44-4-45zm96 0c-2 2-2 39-1 44q4 7 6 4c1-3 1-47-1-48q-2-3-4 0m438 0-1 40v38h8l-1-37v-40q-2-5-6-1m114 25v52l3 1q4 1 3-5c1-8 0-47-1-49q-4-2-5 1M50 469l-1 22v21h7v-14l-1-28q-2-3-5-1m94 1 1 27-1 4q-1 11 4 11 4 1 3-5c1-6 0-36-1-37zm440 13-1 15v14h4c4 0 3 1 3-16q-1-18-6-13m-381 13-2 9v7h7v-7q2-16-5-9m458-1-1 9v8h7l-1-8q1-14-5-9m-191 5-1 9q-1 4 3 3h4l-1-5q0-12-5-7"
        mask="url(#16282281824-posters-1720558226765-radial-mask)" itemprop="regular" fill-opacity="0.90"
        fill-rule="evenodd" stroke="none" fill="url(#16282281824-posters-1720558226765-horizontal-regular)"></path>
      <!---->
      <path id="16282281824-posters-1720558226765-medium"
        d="M31 25v42c0 15 0 16 2 16 3 0 4-2 4-43V0h-6zm18 107c1 131 1 133 3 136l3 2V19l1-19h-7zM69 17l1 21q3 5 0 11l-1 69v66l2 2c4 4 4 2 4-32l-1-34V7q1-9-3-7h-3zm19-9v137c-1 52 0 96 1 93l3-5c3-4 2-205 0-213v-7l1-8 1-5h-6zm19 20c0 33 0 30 2 30 3 0 4-3 4-31V0h-6zm19-20v297q0 5 2 4h2l-2 2-2 3v198h6V0h-6zm19 45c0 49 0 52 2 52 4-1 4-3 4-55V0h-6zm18-32c1 22 1 25 5 23 1-1 2-4 2-22V0h-7zm39 33c0 49 0 54 2 55 4 1 4 0 4-50V0h-6zm19-29c0 25 0 27 4 27 1-1 2-2 2-26V0h-6zm19 33c0 54 0 59 2 60v3c-2 2-2 20-2 197v194h6v-27c0-23 0-27-2-31v-10c2-6 2-39 2-398V0h-6zm19-12c0 44 0 45 2 45 4 0 4-3 4-41 0-53 1-50-3-50h-3zm20-32c0 12 0 14 2 15 3 1 4-2 3-22q1-9-2-7h-3zm18 54v69l3 3 3 2V3q0-3-3-3h-2zm20-47v162h2l3-1 1-92V0h-6zm19 0c0 19 0 22 2 26v6c-2 4-2 44 0 45 3 1 3 0 4-50V0h-6zm19 25v72l1 110q1 2 3-1c1-2 2-5 2-114V1l-3-1h-3zm19-39v138q2 10 5 6l1-76V0h-6zm19 17c0 23 1 24 3 26q3 3 2 0V2q0-2-3-2h-2zm19 70c0 110 0 99 2 102 4 4 4 3 4-89l-1-97V0h-5zm19 9v130l1 141c5 0 5 2 5-111l-1-250 1-13h-6zm19-89 1 18c-1 25-1 116 1 119v9c-2 4-2 11-2 41 1 38 1 40 4 36a1614 1614 0 0 0 2-140V0h-6zm19 28c0 40 0 42 2 45q5 6 0 12c-2 4-2 6-2 108 0 110 0 110 4 105 2-1 2-66 2-276V0h-6zm19 50c0 80 0 91 2 92 4 1 4 4 4-93V0h-6zm20-86v193l1 189 2 4h1l1-44v-54l-1-15v-8l1-65c0-59 0-60-2-63q-5-6 0-11c3-5 3-48 1-57q-3-6 0-11c2-10 2-50-1-56l-2-6V0zm19-3v339q0 6 3 0c3-5 3-342 0-342zm18 103c0 108 0 111 4 111 2 0 2 0 2-110l1-107h-6zm20-42v171c0 65 0 66 4 58 2-4 2-112 0-117q-4-7-1-12c3-4 4-41 1-49v-9c2-5 2-49 1-50q-4-6-1-12l1-24 1-20h-6zm19-44 1 24v8l-1 29v387h3q3 0 2-9V0h-5zm19 44v111c0 79 0 71 2 71l3-1 1-243-4-2h-2zm19 31c0 94 0 94 2 94 4 0 4-3 4-97V0h-6zm20-91q-1 8 2 8t2-3l1-6q1-4-2-3-3 0-3 4m18 190 1 196v2c-2 3-1 83 1 85l3 2 1-167V0h-6zM680 7l-1 110c0 101 0 103 2 103 4 0 4-1 4-37V0h-2q-4-2-3 7m19 2q0 8 2 9 3 2 3-10c0-8 0-8-2-8-3 0-3 0-3 9m19 9-1 43c0 21 0 26 2 30v9c-2 4-2 29-2 198 0 204 0 197 4 196 2-1 3-269 2-442V0h-5zm19 0-1 120c0 105 0 108 2 108 4 0 4 13 4-208V0h-5zm19-11q0 11 2 10 3 1 3-10V0h-6zm-572 7-1 181v317h6V193l-1-178q-3-3-4-1M12 29v186q-3 3 2 12c1 4 1 4-1 9-2 7-3 117 0 120q2 3 3 1c3-3 2-330 0-332q-4-5-4 4m631 5c-2 1-2 38 0 40q4 6 4-19c0-19-1-23-4-21m113 6-1 46 1 42c5 0 5-2 5-46s0-46-3-46q-2 0-2 4m-57 16 1 104v8c-2 7-2 87 0 88v2c-2 1-2 5-2 24 0 25 1 27 4 24 1-2 2-5 2-125 0-134 0-144-3-144-2 0-2 1-2 19M279 45v336q2 9 5-1V45zm116 16c-3 4-4 45-1 44 4-2 6-23 4-40v-6zm-231 3v89q1 2 4-1l2-3v-40l-1-43q-1-5-5-2m58 8-1 45c1 42 1 43 3 43 3 0 3-1 3-45 0-42 0-45-3-45zm-115 8c-1 3 0 207 1 209 4 4 4 3 5-103l-1-105q-2-3-5-1m535 16c-1 24-1 32 3 32 2-1 3-25 1-32 0-2-4-3-4 0M31 110q-2 29 3 27c3 0 3-3 3-18q0-19-4-18-2-1-2 9m229-2c-2 3-1 103 1 106v11c-3 5-3 79-1 82h4c2-3 3-195 0-199q-3-4-4 0m133 50c0 95 0 90 1 91q3 2 1 5c-3 2-3 184 0 188q4 7 0 12c-3 5-3 47 0 48 4 1 4 0 3-68v-64l3-3q4-4 0-3l-2-1V240c0-120-1-122-2-124l-3-1zm-248-39v43c0 42 0 43 4 42 2-1 3-81 1-84q-4-6-5-1m191 68v141c0 75 0 76 4 73 2-1 3-277 1-281l-3-2c-2 0-2 1-2 69m-133-61-1 43c0 41 0 42 2 46l3 3c2 0 1-90 0-92zm553 18c-2 3-1 35 0 37h3c2-1 3-34 1-37q-3-4-4 0m-113 4c-2 1-2 8-2 96 0 51 0 53 3 48 2-2 2-4 3-72 0-78 0-77-4-72m-343 6c-2 2-2-5-3 49 0 47 0 54 2 54 4 0 4-4 4-50 1-56 1-57-3-53m-268 3-1 350q-1 6 3 5h3V336l-1-178q-2-3-4-1m132 11v43c0 39 0 42 2 45 2 5 2 6 0 12-3 6-3 109-1 114 2 3 2 3 1 8-2 5-2 14-2 64v58h6V343l-1-173q-3-7-5-2m211 1-1 175q1 7 5 3c2-3 1-178-1-179zm-153 12-1 51v49l2 4 3 4 1-107q-3-4-5-1m534 20-1 230q0 12 2 12 3 0 3-4V201c0-2-4-2-4 0m-438 2c-2 2-1 127 0 129v14c-2 2-2 104 0 110v13c-1 2-2 37-1 41 0 2 5 3 5 1V203zm-247 2c-2 2-2 30-2 266v41h6V369c0-136 0-166-2-166zm418-1-1 155v153h6v-50l-1-258zm133 147v150q-1 12 2 11c3 0 3 0 3-8V206l-3-2c-2 0-2 1-2 147M412 214v62c0 2 5 1 5-1l1-30-1-30q-2-3-5-1m-266 6c-2 1-2 83 1 87v7c-2 3-2 9-2 70 0 70 0 71 4 66 2-2 2-4 2-29v-61l-1-27q-3-7-1-13c2-1 2-9 2-51-1-52 0-51-5-49m60 5-3 4a2426 2426 0 0 0 0 148c-2 5-1 35 1 36 4 2 4-1 4-25 0-22 0-24-2-28l-2-5 2-4c2-5 2-6 2-66v-62zm340 12v90l-1 96v89h3q4 1 3-4V245c0-9 0-9-2-9zm134 2-1 62c0 61 0 62 2 63l3 1V239zm-324 2-1 52q3 4 5-2l1-25c0-21-1-22-3-24zM88 251v261h6v-7l-1-9 1-124V251l-3-5-3-4zm363 5v179l-1 40v37h6V385l-1-128q-3-3-4-1m285 54c0 55 0 57 3 57s3 4 3-76c0-23 0-26-2-30-4-8-4-7-4 49m-133-6c1 42 1 44 4 42 2-1 2-80 0-83-4-4-4-3-4 41m-305-35-1 122v121h3c3 0 3 0 3-9V330l-1-60q-3-3-4-1M52 279c-2 2-2 4-2 31 0 15 0 16 3 16 2 0 3-4 3-27 0-24 0-25-4-20m173 14-1 4q-3 4-1 7v2c-2 1-2 13-2 104v102h3q4 1 3-3c1-65 0-214-1-216l-1-2zm188 4-1 70v145h6V297l-3-1zm228 20 1 95q2 3 4-1c1-4 0-103-1-105q-4-6-4 11m-76 4v186q-1 6 3 5h3V412c0-94-1-100-2-103-3-5-4-4-4 12m-457-11c-1 3-2 38 0 41q3 4 4 1v-40q-2-6-4-2m247 3v194q-2 6 2 5c4 0 4 5 4-106 0-82-1-93-2-94q-3-2-4 1m343 6 1 7v4l-1 58v124h6v-33c0-32 0-34-2-37q-4-6 0-12c3-7 3-108 0-112q-4-5-4 1m-438 6v129l-1 8c-1 3 1 38 2 39l2 1c2-1 2-6 2-45v-85c1-42 0-48-3-49zm210 7c-1 2-2 147 0 150l3 2c3 0 3-149 0-152zM51 346v1l-1 44c0 63 0 59 2 59 3 0 4-3 4-23l-2-22q-3-6 0-12c3-5 3-43 0-46q-3-3-3-1m476 8v153l3-1c2-1 3-147 0-151q-2-4-3-1m76 13v141q-1 5 3 4h3v-72l-1-73zm-228 1c-1 1-2 89-1 127v17h6v-71c0-75 0-76-5-73m-268 4v41q3 4 6 0v-22c0-19-1-20-3-20zm-94 3-1 57v36c0 49 0 44 3 44h3l-1-62c0-82 0-76-1-76zm667 9-1 65v63h6v-63l-1-65q-1-4-4 0m-248 3-1 122q-1 4 3 3h3v-60l-1-63q-3-5-4-2m305 1-1 63v61h6v-61l-1-63c0-2-4-3-4 0m-226 8-2 4c-1 2-2 7-2 54 0 58 0 58 4 58h2v-21c0-31 0-38-2-41v-10c2-5 3-43 1-45q-1-2-1 1m-232 7v108a3 3 0 0 0 5-4l-1-104zm58 20-1 33c0 47 0 44 2 44l2-1 1-74q0-3-4-2m-229 10-1 40v39h6v-14c0-63 0-70-5-65m95 1c-2 1-1 43 1 46 4 7 4 4 4-21 0-22 0-25-2-25zm439 0-1 54v24h6l-1-37c0-45 0-42-2-42zm114 24-1 27v27h6v-26l-1-27q-3-4-4-1M50 491v21h6v-19c0-20-1-24-4-24-2 0-2 1-2 22m95 0v21h6v-20c0-20 0-22-4-23-2 0-2 1-2 22m439 2c-1 16 0 19 2 19q5 2 3-15c0-12-1-14-3-14q-3-2-2 10m-380 3q-2 2-2 9v7h6v-9q0-14-4-7m458 0-2 9v7h6v-8q0-14-4-8m-192 5-1 6q-1 6 3 5h3v-6q-1-8-5-5"
        mask="url(#16282281824-posters-1720558226765-vertical-mask)" itemprop="medium" fill-opacity="0.90"
        fill-rule="evenodd" stroke="none" fill="url(#16282281824-posters-1720558226765-vertical-medium)"></path>
      <!---->
      <path id="16282281824-posters-1720558226765-bold"
        d="m31 42 1 41c3 0 4-3 4-43V0h-5zm19 91 1 133 2 2 2 2V159L54 44l1-24V0h-5zM70 18l1 20q3 5 0 10l-2 67c0 71 0 71 3 71 2 1 2 0 2-32l-1-34 1-13V0h-5zm18 39 1 60v7l-1 59 1 55 2-4 2-4V99a730 730 0 0 0-2-85l1-9q2-6-1-5h-3zm19-29c0 29 0 32 4 29l1-29V0h-5zm20-15-1 119 1 46v89c0 41 0 42 2 41s2-2 2-14v-53c0-220 0-241-2-241s-2 1-2 13m18 39 1 52c4 0 4 1 4-55l1-44q1-4-4-5h-2zm19-33c0 21 1 25 3 25 1 0 2-4 2-22l1-22h-6zm39-17v106c4 3 4-1 4-53V2l-2-2zm19 24 1 26c3 0 3-1 3-27l1-25h-5zm19 32c0 53 0 58 2 59v4c-2 2-2 18-2 197v194h5v-26q0-26-2-29-2-9 1-16l1-222V0h-5zm19-33v45l1 20c2 3 3-3 3-37 1-44 0-53-2-53s-2 2-2 25m19-12q0 15 2 15c2 2 2 0 3-14V0h-5zm19 55c0 71 0 73 4 73l1-70V0h-5zm19-44 1 30v128q2 3 3-1l1-33V8c0-8 0-8-2-8h-3zm19-4 1 24q3 6 1 13-2 2-2 20c0 19 0 21 3 20 2-1 2-2 2-49V0h-3c-2 0-2 0-2 20m20 26v182l2-1c2-2 2 6 2-143V0h-4zm18 23 1 70v2q-3 5 1 9c3 3 3 0 3-76l1-74h-6zm19-46c1 22 1 28 4 28l1-25V0h-5zm20 74c0 100 0 102 3 98l1-90V8c0-8 0-8-2-8h-2zm19-7v91c-1 21 0 192 1 192 3 0 3-4 3-107V0h-5zm19-76 1 17v130l-1 34c0 44 0 43 2 43 2-1 3-97 2-131V35c0-34 0-35-2-35s-2 0-2 14m19 29 1 45q4 4 1 10c-2 5-2 6-2 109l1 105c3 3 3 0 3-153 1-166 1-159-2-159-2 0-2 1-2 43m19-34v129l1 45c3 3 3-2 3-92l1-91h-3c-2 0-2 0-2 9m19 183c0 190 0 192 2 196q2 3 2 1V275c0-133 0-130-1-132-2-2-2-9 0-12s2-51 0-57q-3-7 0-11c2-2 2-52 0-54l-2-5zM528 5v339c4-1 4-4 4-176 0-164 0-168-2-168q-2 0-2 5m18 39v105c0 62 0 68 3 68 1 0 1 3 1-120l1-97h-5zm19 104 1 148c3 0 4-2 4-61 0-53-1-58-2-60q-4-5 0-11c3-4 3-44 0-49v-10c2-2 2-47 1-51q-3-6-1-11c2-2 2-6 2-23 0-20-1-20-3-20h-2zM585 8l1 38v3c-1 2-2 416-1 418h2c3-2 3-467 0-467q-2-1-2 8m19 9v229c2 2 3-3 3-25l1-38V35c0-32-1-34-2-35-2 0-2 1-2 17m19 77 1 95c3 0 3-3 3-98V0h-4zm19-89q0 9 3 6c2-2 1-11-1-11q-2 0-2 5m19 63v97c-1 120 0 223 1 224v3l-1 78c-1 2 1 8 3 8q2-2 1-8V141l1-141h-5zm19 41 1 110c3 2 3-2 3-36v-66c0-118 0-117-2-117s-2 2-2 109M699 8q0 10 3 10l1-9q1-10-2-9-2-1-2 8m20 10v105l-1 188v78l1 3v6c-2 1-2 8-2 45 0 43 1 50 3 50q2 0 2-3V194l1-97c0-93 0-97-2-97s-2 1-2 18m18 105 1 123c3 0 3 2 3-193 0-52 0-53-2-53s-2 1-2 123M756 7q0 10 2 9 2 0 2-5 1-11-2-11-3-1-2 7M184 54v391c0 65 0 67 2 67 3 0 3 5 2-217V72c0-57 0-59-3-59zM13 29v151c-1 0-2 27 0 30v4c-2 2-1 10 2 14q2 1-1 7l-2 62 1 58q2 4 3 1c2-2 1-330 0-331q-4-3-3 4m630 6-1 20c0 18 0 19 2 19s2-1 2-12q2-31-3-27m114 2v90c3 0 3-2 3-45V38q-2-3-3-1m-58 2 1 104-1 6 1 10c2 5 2 5 1 10-2 5-3 87-1 86q3-1 1 3c-2 1-2 5-2 26v23l2-2c2-2 2-2 2-127 1-137 0-140-2-140zm-419 7c-2 3-1 208 0 208q3 1 0 3c-2 1-1 126 1 127 3 0 3-1 3-173-1-169-1-171-4-165m114 18v40c3 0 6-27 3-39q-1-6-3-1m-229 2v87c4 0 4 1 4-46 0-42 0-43-2-43zm58 5c-2 1-1 89 0 89 3 0 3-2 4-32 0-45-1-61-4-57M107 81l1 208h2c3-1 3-208 0-209q-2-2-3 1m536 14c-2 1-1 30 0 32 3 2 3 0 3-16q0-21-3-16M31 119c0 14 0 17 2 18s2-1 3-14q1-22-3-21c-2 0-2 1-2 17m229-10c-2 8 0 102 1 106 2 4 2 4 1 9-2 4-2 11-2 43 0 39 0 42 3 39 2-1 2-196 1-198q-3-2-4 1m133 73c0 64 0 65 2 67q4 3 0 5c-2 2-2 4-2 84l1 83a6 6 0 0 0 0 8c-2 0-1 8 2 14l2 5v-40l1-40 2-2 2-1h-4l-1-123-1-125c-3-4-4-1-4 65m-247-64v4c-2 3-1 78 1 80 3 4 4 0 3-39v-40q-1-5-4-5m191 2-1 141c0 139 1 140 3 140s3-281 0-282zm-134 6c-3 4 0 91 3 91 1 0 1 3 1-49 0-42 0-46-4-42m553 36c0 17 1 19 2 19 2 0 2-1 2-19 0-17-1-19-2-19-2 0-2 1-2 19m-113-14c-1 0-2 101-1 141v5l2-2c2-3 2-5 2-64v-62c1-7 0-19-1-19zm-344 6v103l2-3c3-4 3-101 1-101zm-267 4a3507 3507 0 0 0 0 171l-1 92v91h5V159q-1-5-4-1m133 11c-2 4-1 85 1 86s2 9 0 13c-2 6-2 110 0 114q2 3 1 6l-2 6v115q0 3 2 3c3 0 3-344 0-345zm211 1c-3 4-3 176 0 177q2 3 3-5c1-7 1-170-1-172q-1-3-2 0m-154 13q-1 97 2 103l2 3V183l-2-2zm535 17c-1 0-2 217-1 236q0 10 2 6c2-2 2-6 2-45V201q-1-3-3-1m-439 3c-1 3-1 121 1 129v14c-3 7-2 105 0 114v8l-2 24c0 20 0 20 2 20l2-1v-88c1 0 2-58 1-133v-46l-1-40q-1-3-3-1m-247 2-1 266c0 40 0 41 2 41s2-1 2-80V305l-1-101zm418 0v300q0 8 2 7 2 0 2-4V216c0-11-1-12-4-11m134 0v190l-1 59v58h5V207q-3-4-4-2m-210 9v62l2 1c2-1 2-3 2-16l-1-47zm-266 6c-3 2-3 82 0 86l2 2c2-2 1-87 0-88zm57 9a213 213 0 0 0-1 47v103c-2 1-1 32 1 33 3 3 3 0 3-24l-1-27q-3-6 0-12c1-2 2-44 1-115q0-14-3-5m343 9-1 16v18l1 54-1 148c-1 28 0 38 2 38 3 0 3 3 2-134 0-157 0-142-1-142zm133 10 1 115 2 1 1-62c0-62 0-63-2-63q-2-1-2 9m-324 1 1 45c3 0 3-1 3-26 0-22 0-23-2-25l-2-2zM88 376c0 113 0 133 2 133v2q-1 1 1 1 3 1 2-5V324c0-76 0-77-4-80zm363-119c-1 65 0 173 1 175v6l-1 28c0 48 0 46 2 46 3 0 3-255 0-256zm286 9 1 100c3 3 3-1 3-35l1-41-1-15c0-11 0-13-2-15l-2-2zm-132-3-1 36 1 47c3 0 3-5 2-44 0-35-1-42-2-39m-306 11-1 122v116h5v-22l-1-24v-6l1-97c0-89 0-92-2-93q-3-4-2 4m-247 6c-3 5-3 46 1 46l1-2 1-48zm173 15-1 3q-4 4 0 7v2c-3 1-3 205 0 205l2-2zm188 2v98c0 129 0 117 2 117l2-2V305q0-14-4-8m229 19v96h3c2 0 2-103 0-105q-4-6-3 9m-77 94v102h5V412c0-104 0-105-4-105zm-457-99v18c0 23 0 23 2 23s2-1 2-21q0-22-2-22zm21 1c-2 1-2 5-2 97v72c0 30 0 31 2 31l2-1V310zm18 3a698 698 0 0 0-1 92l-1 22c0 21 0 24 4 21 1-2 2-48 0-56v-9c2-7 1-50 0-53a13 13 0 0 1 0-11c1-3 2-10 0-10zm209-2v199h4v-31l-1-169q-3-2-3 1m343 63q0 62 1 57l2-5c2-2 1-105 0-109l-2-3zm-439-51v122l2 13q2 1-1 2c-2 0-2 1-1 34q0 5 2 5 3 1 2-7V328q-1-6-4-3m211 8-1 115c0 32 1 39 4 36V334zM52 348c-2 0-3 100-1 101 5 3 6-33 2-44l-2-6 2-5c2-4 2-6 2-25 0-21 0-22-3-21m476 6v151q0 3 2 0c3-2 3-144 0-149zm76 17v138q0 3 2 3c1 0 2-3 2-41 0-110 0-103-2-104q-2 0-2 4m-229-1-1 72v70h6l-1-28v-70l-1-44q-1-3-3 0m-267 2c-2 4-1 41 0 42 4 3 4 0 4-22 0-20 0-21-2-21zm-94 4-2 59c0 70 1 77 3 77s2-3 2-68l-1-69zm667 8q-2 1-1 106c0 21 0 22 2 22s2-1 2-64l-1-65zm57 3-1 42c0 91 0 83 2 83s2-1 2-62l-1-63zm-306 1-1 62v62h3q4 1 3-2l-1-101q0-27-4-21m78 12c-3 6-3 112 0 112s3-60 0-63q-2-4 1-9c1-2 2-42 1-43zm-230 3-1 55v54h5l-1-53v-55q0-3-3-1m57 21-1 38v37h5v-37c0-38 0-40-4-38m-229 11v67q-1 12 2 10c2 0 2-1 2-14 1-27 0-64-2-65zm96-1c-2 1-3 40 0 45 3 6 3 6 3-29 0-16 0-18-3-16m438 14c0 64 0 64 2 64s2-1 2-39 0-39-2-39-2 1-2 14m57-5v69h5l-1-34c0-31 0-34-2-37l-2-3zm-304 12c-3 7-3 46 0 46q5-2 1-5l-1-3h2l1-20v-22zm362 3c-2 1-1 30 0 30v1c-2 0-1 23 1 23s3-5 2-31q0-29-3-23M50 491v21h5v-19c0-21 0-23-3-23-2 0-2 1-2 21m95-9 1 13v3c-2 4-1 14 2 14 2 0 3-4 2-22 0-18 0-20-3-20-2 0-2 1-2 12m440 2-1 15v13h5v-13l-1-15zm-381 13c-3 6-3 15 1 15 2 0 2 0 2-9q0-14-3-6m458 0-1 8q-1 9 3 7 3 1 1-4v-8q0-7-3-3m-191 4-1 6q0 6 2 5 4 1 2-5 0-9-3-6"
        mask="url(#16282281824-posters-1720558226765-horizontal-mask)" itemprop="bold" fill-opacity="0.90"
        fill-rule="evenodd" stroke="none" fill="url(#16282281824-posters-1720558226765-vertical-bold)"></path>
    </pattern>
    <rect id="16282281824-posters-1720558226765-pattern-render" fill="url(#16282281824-posters-1720558226765-pattern)"
      width="100%" height="100%"></rect>
  </defs>
  <radialGradient id="lightbar" cx="50%" cy="200%" fy="0" r="201%">
    <stop offset="0%" style="stop-color: rgb(255, 255, 255); stop-opacity: 0.1;"></stop>
    <stop offset="10%" style="stop-color: rgb(0, 0, 0); stop-opacity: 0.1;"></stop>
    <stop offset="30%" style="stop-color: rgb(0, 0, 0); stop-opacity: 0.3;"></stop>
    <stop offset="90%" style="stop-color: rgb(0, 0, 0); stop-opacity: 0.55;"></stop>
    <stop offset="100%" style="stop-color: rgb(0, 0, 0); stop-opacity: 0.6;"></stop>
  </radialGradient>
  <g class="radial">
    <radialGradient id="16282281824-posters-1720558226765-radial" gradientUnits="userSpaceOnUse">
      <stop itemprop="radial" stop-color="#aaa9a7" offset="0%"></stop>
      <stop itemprop="radial" stop-color="#aaa9a7" offset="15%"></stop>
      <stop itemprop="radial" stop-color="#aaa9a7" offset="30%"></stop>
      <stop itemprop="radial" stop-color="#a8a6a4" offset="45%"></stop>
      <stop itemprop="radial" stop-color="#aaa9a7" offset="60%"></stop>
      <stop itemprop="radial" stop-color="#aaa9a7" offset="75%"></stop>
      <stop itemprop="radial" stop-color="#aaa9a7" offset="90%"></stop>
    </radialGradient>
    <radialGradient id="16282281824-posters-1720558226765-radial-background" gradientUnits="userSpaceOnUse">
      <stop stop-color="#d3cfc5" offset="0%"></stop>
      <stop stop-color="#d3cdc5" offset="15%"></stop>
      <stop stop-color="#d3cfc5" offset="30%"></stop>
      <stop stop-color="#d3cdc5" offset="45%"></stop>
      <stop stop-color="#d3cfc5" offset="60%"></stop>
      <stop stop-color="#d3cfc5" offset="75%"></stop>
      <stop stop-color="#d3cfc5" offset="90%"></stop>
    </radialGradient>
    <radialGradient id="16282281824-posters-1720558226765-radial-light" gradientUnits="userSpaceOnUse">
      <stop stop-color="#9b9a97" offset="0%"></stop>
      <stop stop-color="#9b9997" offset="15%"></stop>
      <stop stop-color="#9b9a97" offset="30%"></stop>
      <stop stop-color="#9b9997" offset="45%"></stop>
      <stop stop-color="#9b9a97" offset="60%"></stop>
      <stop stop-color="#9b9a97" offset="75%"></stop>
      <stop stop-color="#9b9a97" offset="90%"></stop>
    </radialGradient>
    <radialGradient id="16282281824-posters-1720558226765-radial-regular" gradientUnits="userSpaceOnUse">
      <stop stop-color="#82817d" offset="0%"></stop>
      <stop stop-color="#82807d" offset="15%"></stop>
      <stop stop-color="#82817d" offset="30%"></stop>
      <stop stop-color="#82807d" offset="45%"></stop>
      <stop stop-color="#82817d" offset="60%"></stop>
      <stop stop-color="#82817d" offset="75%"></stop>
      <stop stop-color="#82817d" offset="90%"></stop>
    </radialGradient>
    <radialGradient id="16282281824-posters-1720558226765-radial-medium" gradientUnits="userSpaceOnUse">
      <stop stop-color="#51504d" offset="0%"></stop>
      <stop stop-color="#514f4d" offset="15%"></stop>
      <stop stop-color="#51504d" offset="30%"></stop>
      <stop stop-color="#514f4d" offset="45%"></stop>
      <stop stop-color="#51504d" offset="60%"></stop>
      <stop stop-color="#51504d" offset="75%"></stop>
      <stop stop-color="#51504d" offset="90%"></stop>
    </radialGradient>
    <radialGradient id="16282281824-posters-1720558226765-radial-bold" gradientUnits="userSpaceOnUse">
      <stop stop-color="#2f2e2d" offset="0%"></stop>
      <stop stop-color="#2f2e2d" offset="15%"></stop>
      <stop stop-color="#2f2e2d" offset="30%"></stop>
      <stop stop-color="#2f2e2d" offset="45%"></stop>
      <stop stop-color="#2f2e2d" offset="60%"></stop>
      <stop stop-color="#2f2e2d" offset="75%"></stop>
      <stop stop-color="#2f2e2d" offset="90%"></stop>
    </radialGradient>
  </g>
  <g class="vertical">
    <linearGradient id="16282281824-posters-1720558226765-vertical" gradientUnits="userSpaceOnUse" x1="0" x2="0" y1="0"
      y2="100%">
      <stop itemprop="vertical" stop-color="#aaa9a7" offset="0%"></stop>
      <stop itemprop="vertical" stop-color="#a8a7a4" offset="15%"></stop>
      <stop itemprop="vertical" stop-color="#aaa9a7" offset="30%"></stop>
      <stop itemprop="vertical" stop-color="#a8a6a4" offset="45%"></stop>
      <stop itemprop="vertical" stop-color="#aaa9a7" offset="60%"></stop>
      <stop itemprop="vertical" stop-color="#aaa9a7" offset="75%"></stop>
      <stop itemprop="vertical" stop-color="#aaa9a7" offset="90%"></stop>
    </linearGradient>
    <linearGradient id="16282281824-posters-1720558226765-vertical-background" gradientUnits="userSpaceOnUse" x1="0"
      x2="0" y1="0" y2="100%">
      <stop stop-color="#cdcccb" offset="0%"></stop>
      <stop stop-color="#cdcccb" offset="15%"></stop>
      <stop stop-color="#cdcccb" offset="30%"></stop>
      <stop stop-color="#cdcccb" offset="45%"></stop>
      <stop stop-color="#cdcccb" offset="60%"></stop>
      <stop stop-color="#cdcccb" offset="75%"></stop>
      <stop stop-color="#cdcccb" offset="90%"></stop>
    </linearGradient>
    <linearGradient id="16282281824-posters-1720558226765-vertical-light" gradientUnits="userSpaceOnUse" x1="0" x2="0"
      y1="0" y2="100%">
      <stop stop-color="#aea284" offset="0%"></stop>
      <stop stop-color="#aea284" offset="15%"></stop>
      <stop stop-color="#aea284" offset="30%"></stop>
      <stop stop-color="#ae9c84" offset="45%"></stop>
      <stop stop-color="#ae9c84" offset="60%"></stop>
      <stop stop-color="#aea284" offset="75%"></stop>
      <stop stop-color="#aea284" offset="90%"></stop>
    </linearGradient>
    <linearGradient id="16282281824-posters-1720558226765-vertical-regular" gradientUnits="userSpaceOnUse" x1="0" x2="0"
      y1="0" y2="100%">
      <stop stop-color="#82817d" offset="0%"></stop>
      <stop stop-color="#82817d" offset="15%"></stop>
      <stop stop-color="#82817d" offset="30%"></stop>
      <stop stop-color="#82807d" offset="45%"></stop>
      <stop stop-color="#82807d" offset="60%"></stop>
      <stop stop-color="#82817d" offset="75%"></stop>
      <stop stop-color="#82817d" offset="90%"></stop>
    </linearGradient>
    <linearGradient id="16282281824-posters-1720558226765-vertical-medium" gradientUnits="userSpaceOnUse" x1="0" x2="0"
      y1="0" y2="100%">
      <stop stop-color="#51504d" offset="0%"></stop>
      <stop stop-color="#51504d" offset="15%"></stop>
      <stop stop-color="#51504d" offset="30%"></stop>
      <stop stop-color="#514f4d" offset="45%"></stop>
      <stop stop-color="#514f4d" offset="60%"></stop>
      <stop stop-color="#51504d" offset="75%"></stop>
      <stop stop-color="#51504d" offset="90%"></stop>
    </linearGradient>
    <linearGradient id="16282281824-posters-1720558226765-vertical-bold" x1="0" x2="0" y1="0" y2="100%">
      <stop stop-color="#2f2e2d" offset="0%"></stop>
      <stop stop-color="#2f2e2d" offset="15%"></stop>
      <stop stop-color="#2f2e2d" offset="30%"></stop>
      <stop stop-color="#2f2e2d" offset="45%"></stop>
      <stop stop-color="#2f2e2d" offset="60%"></stop>
      <stop stop-color="#2f2e2d" offset="75%"></stop>
      <stop stop-color="#2f2e2d" offset="90%"></stop>
    </linearGradient>
  </g>
  <g class="horizontal">
    <linearGradient id="16282281824-posters-1720558226765-horizontal" x1="0" x2="100%" y1="0" y2="0"
      gradientUnits="userSpaceOnUse">
      <stop itemprop="horizontal" stop-color="#aaa9a7" offset="0%"></stop>
      <stop itemprop="horizontal" stop-color="#aaa9a7" offset="15%"></stop>
      <stop itemprop="horizontal" stop-color="#aaa9a7" offset="30%"></stop>
      <stop itemprop="horizontal" stop-color="#aaa9a7" offset="45%"></stop>
      <stop itemprop="horizontal" stop-color="#aaa9a7" offset="60%"></stop>
      <stop itemprop="horizontal" stop-color="#adaca9" offset="75%"></stop>
      <stop itemprop="horizontal" stop-color="#adaba9" offset="90%"></stop>
    </linearGradient>
    <linearGradient id="16282281824-posters-1720558226765-horizontal-background" gradientUnits="userSpaceOnUse" x1="0"
      x2="100%" y1="0" y2="0">
      <stop stop-color="#cdcccb" offset="0%"></stop>
      <stop stop-color="#cdcccb" offset="15%"></stop>
      <stop stop-color="#cdcccb" offset="30%"></stop>
      <stop stop-color="#cdcccb" offset="45%"></stop>
      <stop stop-color="#cdcccb" offset="60%"></stop>
      <stop stop-color="#cdcccb" offset="75%"></stop>
      <stop stop-color="#cdcccb" offset="90%"></stop>
    </linearGradient>
    <linearGradient id="16282281824-posters-1720558226765-horizontal-light" gradientUnits="userSpaceOnUse" x1="0"
      x2="100%" y1="0" y2="0">
      <stop stop-color="#9b9a97" offset="0%"></stop>
      <stop stop-color="#9b9997" offset="15%"></stop>
      <stop stop-color="#9b9997" offset="30%"></stop>
      <stop stop-color="#9b9a97" offset="45%"></stop>
      <stop stop-color="#9b9a97" offset="60%"></stop>
      <stop stop-color="#9b9a97" offset="75%"></stop>
      <stop stop-color="#9b9a97" offset="90%"></stop>
    </linearGradient>
    <linearGradient id="16282281824-posters-1720558226765-horizontal-regular" gradientUnits="userSpaceOnUse" x1="0"
      x2="100%" y1="0" y2="0">
      <stop stop-color="#968969" offset="0%"></stop>
      <stop stop-color="#968369" offset="15%"></stop>
      <stop stop-color="#968369" offset="30%"></stop>
      <stop stop-color="#968969" offset="45%"></stop>
      <stop stop-color="#968969" offset="60%"></stop>
      <stop stop-color="#968969" offset="75%"></stop>
      <stop stop-color="#968669" offset="90%"></stop>
    </linearGradient>
    <linearGradient id="16282281824-posters-1720558226765-horizontal-medium" gradientUnits="userSpaceOnUse" x1="0"
      x2="100%" y1="0" y2="0">
      <stop stop-color="#5d5541" offset="0%"></stop>
      <stop stop-color="#5d5141" offset="15%"></stop>
      <stop stop-color="#5d5141" offset="30%"></stop>
      <stop stop-color="#5d5541" offset="45%"></stop>
      <stop stop-color="#5d5541" offset="60%"></stop>
      <stop stop-color="#5d5541" offset="75%"></stop>
      <stop stop-color="#5d5341" offset="90%"></stop>
    </linearGradient>
    <linearGradient id="16282281824-posters-1720558226765-horizontal-bold" gradientUnits="userSpaceOnUse" x1="0"
      x2="100%" y1="0" y2="0">
      <stop stop-color="#2f2e2d" offset="0%"></stop>
      <stop stop-color="#2f2e2d" offset="15%"></stop>
      <stop stop-color="#2f2e2d" offset="30%"></stop>
      <stop stop-color="#2f2e2d" offset="45%"></stop>
      <stop stop-color="#2f2e2d" offset="60%"></stop>
      <stop stop-color="#2f2e2d" offset="75%"></stop>
      <stop stop-color="#2f2e2d" offset="90%"></stop>
    </linearGradient>
  </g>
  <g class="masks">
    <mask id="16282281824-posters-1720558226765-pattern-mask" maskUnits="userSpaceOnUse"
      maskContentUnits="userSpaceOnUse">
      <pattern id="pattern" x="0" y="0" width=".0133" height=".0144" viewBox="0 0 23.07 40">
        <path
          d="M17.62 0l-6.07 10.5m2.74 4.76L8.22 4.75m-5.48 0h12.13M.01 0h23.07M6.07 20L0 9.5m2.74-4.75l-6.07 10.5m-5.48 0H3.33m8.2 4.75L0 .02-11.54 20m40.68 0L23.07 9.5m2.74-4.75l-6.06 10.5m-5.49 0H26.4M34.6 20L23.08.02 11.53 20m-5.46 0L0 30.51m2.74 4.75l-6.07-10.5m-5.48 0H3.33m8.2-4.75L0 40l-11.54-19.98zM17.6 40l-6.06-10.5m2.74-4.76L8.2 35.25m-5.48 0h12.13M0 40h23.07L11.54 20.01m17.6 0l-6.07 10.5m2.74 4.75l-6.06-10.5m-5.49 0H26.4M11.53 20h23.08L23.07 40"
          stroke-linecap="round" stroke-width="3.5" stroke="white"
          fill="url(#16282281824-posters-1720558226765-horizontal-background)"></path>
      </pattern>
      <rect width="100%" height="100%" fill="url(#pattern)"></rect>
    </mask>
    <mask id="16282281824-posters-1720558226765-horizontal-mask" maskUnits="userSpaceOnUse"
      maskContentUnits="userSpaceOnUse">
      <rect width="100%" height="100%" fill="url(#16282281824-posters-1720558226765-horizontal-background)"></rect>
    </mask>
    <mask id="16282281824-posters-1720558226765-radial-mask" maskUnits="userSpaceOnUse"
      maskContentUnits="userSpaceOnUse">
      <rect width="100%" height="100%" fill="url(#16282281824-posters-1720558226765-radial-background)"></rect>
    </mask>
    <mask id="16282281824-posters-1720558226765-vertical-mask" maskUnits="userSpaceOnUse"
      maskContentUnits="userSpaceOnUse">
      <rect width="100%" height="100%" fill="url(#16282281824-posters-1720558226765-vertical-background)"></rect>
    </mask>
  </g>
  <use href="#16282281824-posters-1720558226765-pattern-render"></use>
  <g>
    <use href="#16282281824-posters-1720558226765-background"></use>
    <use href="#16282281824-posters-1720558226765-light"></use>
    <use href="#16282281824-posters-1720558226765-regular"></use>
    <use href="#16282281824-posters-1720558226765-medium"></use>
    <use href="#16282281824-posters-1720558226765-bold"></use>
  </g>
  <g itemprop="animation">
    <animate href="#16282281824-posters-1720558226765-light" attributeName="stroke-opacity" repeatCount="indefinite"
      dur="5s" values="0.9;0.0;0.9"></animate>
    <animate href="#16282281824-posters-1720558226765-regular" attributeName="stroke-opacity" repeatCount="indefinite"
      dur="4s" values="0.9;0;0.9"></animate>
    <animate href="#16282281824-posters-1720558226765-medium" attributeName="stroke-opacity" repeatCount="indefinite"
      dur="5s" values="0.9;0;0.9"></animate>
    <animate href="#16282281824-posters-1720558226765-bold" attributeName="stroke-opacity" repeatCount="indefinite"
      dur="3s" values="0.9;0;0.9"></animate>
    <animate href="#16282281824-posters-1720558226765-regular" attributeName="fill-opacity" repeatCount="indefinite"
      dur="8s" values="0.9;0.75;0.95;0.8;0.9;"></animate>
    <animate href="#16282281824-posters-1720558226765-radial-background" attributeName="cx" repeatCount="indefinite"
      dur="34s" values="0%;33%;100%;0%;100%;0%;"></animate>
    <animate href="#16282281824-posters-1720558226765-radial-background" attributeName="cy" repeatCount="indefinite"
      dur="55s" values="0%;100%;33%;100%;66%;0%"></animate>
    <animate href="#16282281824-posters-1720558226765-vertical-light" attributeName="x1" repeatCount="indefinite"
      dur="55s" values="0%;33%;100%;0%;133%;0%;"></animate>
    <animate href="#16282281824-posters-1720558226765-vertical-light" attributeName="y1" repeatCount="indefinite"
      dur="86s" values="0%;100%;33%;100%;66%;0%"></animate>
    <animate href="#16282281824-posters-1720558226765-horizontal-regular" attributeName="x1" repeatCount="indefinite"
      dur="34s" values="0%;100%;66%;0%;33%;133%;0%"></animate>
    <animate href="#16282281824-posters-1720558226765-horizontal-regular" attributeName="y1" repeatCount="indefinite"
      dur="55s" values="0%;66%;100%;33%;100%;66%;0%"></animate>
    <animate href="#16282281824-posters-1720558226765-vertical-medium" attributeName="x1" repeatCount="indefinite"
      dur="34s" values="0%;100%;66%;0%;33%;133%;0%"></animate>
    <animate href="#16282281824-posters-1720558226765-vertical-medium" attributeName="y1" repeatCount="indefinite"
      dur="55s" values="0%;66%;100%;33%;100%;66%;0%"></animate>
    <animate href="#16282281824-posters-1720558226765-vertical-bold" attributeName="x1" repeatCount="indefinite"
      dur="34s" values="0%;100%;66%;0%;33%;133%;0%"></animate>
    <animate href="#16282281824-posters-1720558226765-vertical-bold" attributeName="y1" repeatCount="indefinite"
      dur="55s" values="0%;66%;100%;33%;100%;66%;0%"></animate>
  </g>
</svg>
