<svg id="16282281824-posters-1720560193700" itemscope="" itemtype="/posters"
  itemid="/+16282281824/posters/1720560193700" viewBox="0 0 769 512" preserveAspectRatio="xMidYMid meet" tabindex="0"
  class="animate landscape" xmlns="http://www.w3.org/2000/svg">
  <!---->
  <defs class="graphic">
    <pattern id="16282281824-posters-1720560193700-pattern" width="769" height="512" viewBox="0 0 769 512"
      patternUnits="userSpaceOnUse" preserveAspectRatio="xMidYMid meet">
      <rect itemprop="background" width="769" height="512" tabindex="-1"
        id="16282281824-posters-1720560193700-background" fill-opacity="1"
        fill="url(#16282281824-posters-1720560193700-radial-background)"></rect>
      <!---->
      <path id="16282281824-posters-1720560193700-light"
        d="m36 1 2 1c10 4 25 20 25 28q1 3-3 4l-5 2-2 1c-2 0-13 7-18 11q-8 8-14 20-3 9-6 0C12 60 3 49 1 49s-1 9 2 13c3 5 6 13 5 14l-4 1q-4 0-4 4c0 5 0 5 9 3 18-5 42 5 52 22q7 10 0 11l-5 2-4 1c-7 0-23 16-31 31q-3 6-5 2c-2-7-12-22-15-22-2 0-1 10 0 10 2 1 8 14 8 16l-3 1q-6 0-6 6c0 4 0 4 10 1 5-1 22-1 25 1l7 3c7 4 20 17 22 23s2 6-3 8l-14 6q-15 9-25 27c-3 6-3 6-8-3l-3-8-10-10v11l8 16-4 3q-6 1-5 5-1 6 6 3c4-3 20-2 27 0a33 33 0 0 1 15 6c4 2 18 18 18 23q-1 4-5 4a61 61 0 0 0-23 12q-8 7-15 19-3 12-8 0c-4-9-12-18-14-18v9c2 1 8 12 8 14q1 4-4 5-6 0-5 5 0 6 4 3a68 68 0 0 1 42 4c4 2 14 13 18 21 3 6 3 7-9 11q-19 6-30 28c-5 10-5 10-8 3-3-8-13-21-16-21v11c5 2 10 17 7 18l-3 1-3 1q-2 0-2 4-1 6 6 2a54 54 0 0 1 54 18l3 5q8 9-5 11l-15 8-12 12-2 2-8 15c-1 0-5-5-5-7S3 460 1 460s-1 10 2 12c6 6 9 17 5 17q-7 1-8 7-1 4 6 1c5-1 23-2 29 0q10 3 19 11 4 4 9 4 8 2-1-7-10-10-23-14c-11-4-11-4-4-15q15-21 42-22 14 0 27 8a63 63 0 0 1 18 22q2 5-7 5l-5 3c-4 0-24 16-24 19s8 1 14-4q20-17 43-12c9 2 23 10 27 15 1 2 9 3 9 1 0-5-23-22-31-22s-5-10 6-22a49 49 0 0 1 49-14c13 4 29 17 32 28q3 4-7 7a59 59 0 0 0-29 21q-3 3 3 3 3 0 7-3l19-13a55 55 0 0 1 39 1c2 0 12 7 16 11 3 4 11 6 11 3a57 57 0 0 0-34-25q-8 1-2-10a48 48 0 0 1 43-25l13 1 2 1c8 0 29 18 31 28q1 3-4 4l-6 2-5 2-7 5c-4 1-17 15-17 17s9 1 10-1l8-8 5-4 1-1 4-1c9-4 11-5 20-5q24 0 39 18 4 3 7 3h4l-1-3c-5-9-20-20-31-23q-12-2-3-13l2-4a57 57 0 0 1 26-17c2-2 25-2 27 0l5 2c12 2 32 25 26 30l-4 2c-11 2-26 14-31 23l-2 3h4q5 1 8-5c2-3 11-9 16-12 21-9 50-2 61 15q1 3 6 2c6 0 5-1-4-11q-11-11-26-16-9-2-5-8l3-4a53 53 0 0 1 27-21c2-3 25-2 33 0q20 8 27 25c3 6 3 5-4 8l-10 4c-3 0-15 10-22 20l-2 3h4q5 1 6-3l10-8q4-4 16-9c4-2 25-2 28 0l7 3c6 2 7 3 15 11 6 6 13 9 13 5s-13-17-23-21l-13-6c-4-1-1-12 5-18l2-3c0-1 9-8 15-11l8-3c3-2 26-2 27 0l3 1c6 0 23 14 27 22q6 9-2 11c-6 1-17 7-20 9l-12 14-2 3-2 3h4q5 1 8-5c18-25 59-25 79 1q3 4 7 4 8 1 0-7-13-18-32-22l-6-2v-4q5-15 26-26c6-3 7-3 20-3l14 1q5 3 5-2 0-6-5-6-11 1 2-16l4-11q0-6-1-5l-5 7c-5 5-11 14-12 17q-2 7-6-2-12-23-34-29l-8-3c-2 0 1-9 5-15q15-19 38-20c9 0 12 0 20 3q3 1 2-4 1-5-4-5-11-2-2-13l2-4 2-2 3-9q0-6-1-5l-5 7c-5 5-12 16-12 18q-1 4-3 3-7-18-22-28-7-5-19-9c-6-2-6-2-2-9l8-12a52 52 0 0 1 55-11v-3q0-6-7-6-8-1 4-17 3-3 3-10v-5l-3 5q-8 4-12 15c-5 9-5 9-9 1-7-13-25-27-38-29q-8 0-2-10a50 50 0 0 1 64-23v-4q1-5-5-5l-6-3c-1-1 4-12 8-17q4-5 4-12c0-3-12 9-17 19l-4 8-2-2-2-4-3-5q-11-18-29-23c-12-4-12-5-8-12a57 57 0 0 1 16-18c8-7 32-11 42-6q7 3 6-2 0-6-10-7-6 0 5-16 5-7 6-12v-4l-3 2-12 15-6 10q-1 5-5-4-9-15-19-22c-6-4-18-9-21-9-7 0 2-17 13-26a51 51 0 0 1 52-6v-4q1-4-5-5l-6-2-2-1 6-13 4-5q6-7-1-7l-4 1-3 4q-4 3-7 10c-4 9-4 9-8 1q-7-17-17-16h-5l6 6c5 5 11 15 11 18l-6 3q-23 8-36 31c-5 9-4 9-7 4-3-9-5-11-12-19-9-8-14-11-25-15l-7-3c0-3 6-13 12-19q9-7 0-6-8 0-17 17-6 14-9 2l-8-12c-6-6-6-6-11-7q-10-1-2 5c7 5 14 16 14 20l-3 3a58 58 0 0 0-37 34l-4 7-4-8-1-1-3-5q-10-17-34-25-9-3-3-9l1-3 14-15q7-3-3-3h-6l-5 7-9 13q-5 10-8 0L505 2c-3-2-13-3-13-1l1 1c2 0 15 14 17 18q4 9-3 11l-6 2-2 1-3 1-4 2a74 74 0 0 0-24 30q-1 4-6-5c-7-15-25-29-39-32-5-1-5-2 2-13 2-4 10-12 14-14l4-2-7-1q-7 0-9 2l-14 20q-3 9-5 2c-1-4-9-15-14-20-5-4-5-4-10-4q-10-1 0 6c8 5 17 19 16 22l-4 2-7 3-5 2-1 1-1 1c-4 0-17 13-22 22q-7 14-7 9l-1-2-2-4q-11-22-36-30l-7-3c-1-4 12-21 19-26q9-3-3-3l-6 1-6 6-8 13q-6 10-7 4-2-8-14-20c-4-4-5-4-11-4q-10 0-3 3c9 4 21 19 21 25q0 3-3 3a65 65 0 0 0-23 12 70 70 0 0 0-19 25l-2 2-3-7a62 62 0 0 0-38-31c-10 0 1-19 15-27q9-5-1-5c-6 0-6 0-12 6-5 5-12 15-15 21q-1 7-6-3T168 5l-5-5h-8q-7 0-6 1l2 1 1 1 2 1c6 2 20 18 22 25 0 3 0 3-10 6q-20 8-31 30-5 11-7 5l-2-4-1-3a63 63 0 0 0-37-29c-10-2 4-24 21-31q8-3-4-3c-8 0-12 2-23 17l-4 7c-4 9-4 9-8 0l-5-9C54 3 50 0 42 0zm592 34a50 50 0 0 0-36 27c-3 2-2 10 1 10l6 1 4 2 2 1 1 1 4 2 2 2c4 0 16 14 20 23q3 11 9-4l5-8c3-7 22-21 33-23q8-1-2-14a52 52 0 0 0-38-21q-3-1-11 1m-120 3a48 48 0 0 0-17 10c-10 8-19 24-13 24l6 2 16 8 6 5q7 4 13 16c3 8 3 8 9-1q13-23 37-30 8-2 2-11l-3-6c-3-5-17-14-27-17-6-3-23-2-29 0m-107 0-12 4-8 5c-6 4-16 17-16 22q0 3 4 4 15 5 26 15c5 6 7 8 12 18q3 9 8-3a58 58 0 0 1 34-29l8-3a49 49 0 0 0-56-33m-222 1-4 1-3 1c-4 0-16 8-20 12-12 13-14 24-5 24l9 4q16 8 25 23 6 14 10 3a56 56 0 0 1 39-33c9 0-3-20-17-28l-12-5c-4-2-16-3-22-2m109 0a52 52 0 0 0-37 33l10 3a47 47 0 0 1 19 11c2 0 9 9 14 16q5 13 8 3l4-6a47 47 0 0 1 15-17l8-4 13-6c7 0-7-21-18-27-10-6-11-6-23-7zM65 41l-11 4q-15 5-24 23-5 8 4 9c13 2 28 15 37 32l3 5 5-8 3-5 1-2c0-4 19-19 27-21l9-3c6-2-8-22-21-29q-14-8-33-5m618 35q-8 1-14 5l-6 3c-4 2-17 19-17 24l5 3q28 9 40 34 1 6 6-4 11-23 35-31 14-2-5-21a49 49 0 0 0-44-13m-219 3q-25 2-38 20-11 15 0 15c12 2 28 15 36 29 5 10 5 10 10 0q10-21 37-30 7-2 2-9c-9-16-28-26-47-25m100 1c-14 5-29 19-31 29q-1 3 5 4 9 3 17 8a72 72 0 0 1 22 25q2 11 9-4c6-12 25-30 33-30q5 0 6-4c0-3-6-11-10-15l-6-6-3-2-2-1-4-3-5-1c-3-3-25-2-31 0m-331 1a28 28 0 0 0-15 6c-4 0-17 14-20 22q-3 4 6 7 24 8 35 29 4 12 9 0a61 61 0 0 1 35-30q11-1 3-12a55 55 0 0 0-43-24zm106 0q-20 8-29 24-5 8 2 9l10 4q8 2 18 12c6 7 7 7 10 14 5 8 5 8 10 0 6-13 24-29 32-29q7 0 8-4a39 39 0 0 0-20-25l-9-5-4-1c-1-2-23-1-28 1m-220 2-3 1-13 6c-2 0-11 9-14 15q-9 12 1 13c15 3 38 23 38 33 0 5 5 4 6-1l4-7 3-5 7-8a60 60 0 0 1 25-15q6 1 1-8c-5-9-17-20-27-23-7-2-27-3-28-1m507 34a52 52 0 0 0-31 22l-1 1-1 4q-5 8 2 10 26 8 37 31c4 7 4 7 8-1a60 60 0 0 1 35-31q11-3 7-9a51 51 0 0 0-56-27m-227 4-9 3c-2 0-14 9-17 13q-13 15-4 18a43 43 0 0 1 18 8c5 2 14 12 20 22 4 8 4 8 8 1 8-16 23-29 37-32q7 1 3-8a52 52 0 0 0-56-25m110 0q-20 7-30 24-4 8 3 9l5 2c13 6 13 6 23 15q6 6 9 14l4 7q1 1 6-9 11-20 35-28 10-3 2-13a51 51 0 0 0-57-21m-221 0-14 5c-4 2-16 15-19 20q-5 9 3 10c15 3 30 15 37 30q4 10 7 1c8-16 24-29 39-32q4-1 3-7-1-4-6-9l-4-5-17-11q-12-5-29-2m-112 1c-11 2-24 12-31 23q-8 13 2 13c7 0 32 18 32 24l1 1 3 5 5 7 4-8c7-15 22-27 37-31 6-2 6-3 1-12a50 50 0 0 0-54-22m-106 1-7 1-12 5c-6 2-17 14-20 20q-6 9 5 10a55 55 0 0 1 36 32c3 6 3 6 8-3l6-10a64 64 0 0 1 31-21q4 0 3-3a49 49 0 0 0-50-31m612 35q-19 5-30 22-9 13 1 14l18 9c2 0 13 11 14 14l2 3 2 4 2 4q1 6 6-4a63 63 0 0 1 18-22c1-2 11-6 16-8 10-3 11-5 4-15a51 51 0 0 0-53-21m-110 2-6 2c-10 1-23 12-30 24-4 7-4 7 6 11 14 5 32 19 32 26l1 1 3 5q4 8 5 2c0-2 8-15 13-21q9-10 22-14c9-4 9-4 6-9q-9-19-32-26c-6-2-18-2-20-1m-226 1c-15 2-30 13-36 28-3 6-3 5 4 8 17 5 35 21 39 34q2 6 6-3l7-11c0-5 19-18 31-21l4-3-6-12c0-2-7-9-12-12a49 49 0 0 0-37-8m110 0-13 6c-9 4-20 17-22 24v4l6 1c15 5 30 17 36 31l5 8 3-6c7-16 23-30 39-34q6-1 2-6c-4-12-21-26-33-27q-13-3-23-1m-220 1q-15 2-27 13-19 21-3 23l2 1 2 1c7 0 27 20 32 31q1 6 4 0 6-14 20-26l19-8q8-2 1-12a53 53 0 0 0-50-23m-115 2-13 5-3 1c-3 1-17 15-18 19l-1 4-1 2q-2 4 10 7 8 2 19 10c4 3 10 12 13 19 5 8 4 8 10-2l6-10a63 63 0 0 1 30-21q8-2-2-15a45 45 0 0 0-16-14c0-3-24-7-34-5m504 37c-13 3-26 14-31 26-4 8-4 9 5 12q23 9 33 29 5 9 8 2l2-4 3-4a74 74 0 0 1 26-24l4-1 5-2q8-2-3-16a49 49 0 0 0-52-18m-111 1-4 1-5 1-3 2-2 1c-4 1-17 14-19 19l-4 6q-2 4 4 6 27 8 38 30 4 13 10 0a74 74 0 0 1 20-23l17-8q8 0 3-8c-9-20-32-31-55-27m-226 2q-23 6-32 24-6 11-1 10c12 0 31 14 40 29 5 9 5 9 8 4a58 58 0 0 1 39-33c10 0-6-25-20-30l-4-2c-6-3-22-5-30-2m115-1-6 1-7 3c-5 0-19 14-23 23q-4 8 1 8l5 1 18 10q9 7 15 19 5 11 7 6l2-3 1-2 3-5c4-10 18-20 32-25q10-2 4-11c-3-6-13-16-18-19-13-6-29-9-34-6m-227 2q-21 6-31 24-6 10 0 12l10 3q19 10 28 28 4 13 10-2l10-15a79 79 0 0 1 29-17c4 0-1-14-5-16l-1-1a25 25 0 0 0-12-10l-10-5c-1-2-24-2-28-1m-115 2q-23 9-32 29-2 5 1 5l3 1 5 2c11 2 28 17 34 30q3 9 7 0c2-6 10-16 15-20l18-11 6-2c8-2-5-23-17-29q-22-11-40-5m624 34-13 4a54 54 0 0 0-20 17c-2 3-5 11-4 12l6 2 11 5a70 70 0 0 1 29 32l5-8c7-14 23-27 36-30q9-1-1-14a50 50 0 0 0-26-19q-11-3-23-1m-108 2a42 42 0 0 0-21 7c-4 0-17 14-21 22q-4 5 7 7 24 9 34 29l5 8 6-8q11-23 34-31 9-1 2-10c-7-15-28-25-46-24m-340 2q-21 3-35 23-8 10 1 12 26 7 40 35 1 4 6-5 13-23 35-30 8-1 6-6l-3-5-1-2a52 52 0 0 0-49-22m108 0-7 2c-10 3-22 14-27 24-3 6-3 6 8 10l9 4 6 4q11 9 18 22 5 9 6 1l3-5 4-5a50 50 0 0 1 18-17c0-1 9-5 14-6q4-1 4-4c0-6-13-21-23-26l-7-3c-3-1-23-2-26-1m112 0-12 4c-10 5-22 17-23 26q-2 3 3 4 14 4 21 10c7 5 17 18 19 23q1 6 3 5l4-7q11-22 36-31c6-2 7-3 3-11q-7-11-23-20c-7-3-23-5-31-3m-335 3q-23 4-35 26c-3 6-3 6 2 8 13 4 33 18 33 23l1 1 4 7q4 13 10 0l6-11a56 56 0 0 1 29-21l4-2 2-1-3-6a49 49 0 0 0-53-24m504 35-3 1a46 46 0 0 0-31 30c-1 3-1 3 9 7l11 5 2 2 1 1c3 0 14 13 17 20l5 7 6-9q15-24 35-29 12-2 1-15-10-14-27-19c-6-2-25-3-26-1m-111 2q-15 3-26 14-19 19-6 21c15 4 32 18 38 31 3 9 3 9 8 0q11-22 31-29l6-3 3-1c6 0-4-16-15-25-9-7-26-10-39-8m-337 2q-22 6-33 25-7 11 3 11l8 3 6 3c4 2 17 16 21 24 5 8 5 8 11-2a60 60 0 0 1 36-30q9 1 2-10-10-19-35-24c-11-2-10-2-19 0m109 0c-11 4-28 15-28 19l-1 3q-7 10 1 12l4 1 5 2a72 72 0 0 1 24 19l5 8c3 7 3 7 8-2q10-16 21-22l2-2 1-1 4-1 6-3q10-2 6-8l-2-2a62 62 0 0 0-24-21c-4-3-25-5-32-2m110 0q-20 8-30 24-5 10 3 9c2 0 16 6 18 8q13 10 21 25c3 6 3 6 8-3 4-8 16-21 22-24l14-6q7-1 4-6l-2-5a52 52 0 0 0-58-23m-331 3-3 1c-10 0-31 19-33 29q-1 5 3 4l7 2 6 3c9 4 21 17 26 28q4 9 7 0 6-11 15-21c5-4 20-12 23-12 11 0-4-22-19-30-10-5-27-7-32-4m617 35c-10 2-27 13-27 17l-1 1c-3 2-8 13-7 15l2 1a61 61 0 0 1 40 32l4 6 4-7c7-14 28-31 38-31 9 0 2-16-12-26q-20-13-41-8m-337 3q-10 1-21 9c-5 4-15 18-15 21q-1 4 4 5l14 5 17 14 7 12 4 7 5-7c6-14 24-30 33-30l3-1 3-1q4-1-1-10c-8-17-33-29-53-24m111 0q-21 4-31 22-7 12 0 12c12 2 30 16 37 30l5 8 6-8q10-21 33-29c9-3 9-3 5-11a50 50 0 0 0-55-24m110 0a56 56 0 0 0-25 17l-2 3q-5 8-5 12l6 3q25 7 38 32 3 9 7-2 15-27 37-32 6 0 2-10a58 58 0 0 0-19-19l-8-4-4-1c-1-2-21-1-27 1m-333 1-4 1-4 1c-9 3-25 19-27 28q-2 4 6 5c11 3 27 15 33 25 7 13 7 14 8 9 2-7 18-25 25-29l16-6q5 0 3-6a48 48 0 0 0-30-27c-1-2-21-2-26-1m-109 1-4 1c-10 0-27 13-33 25-4 8-4 8 4 11l7 2 3 2 3 1 1 1a50 50 0 0 1 20 20l1 2 6 10 2-5a58 58 0 0 1 38-35q7-1 3-9-7-14-21-21c-9-5-29-8-30-5m499 38c-13 3-28 18-31 29q-3 6 7 8a58 58 0 0 1 34 32q4 8 9-4a57 57 0 0 1 34-30q12-3 3-15a50 50 0 0 0-56-20m-111 1q-25 9-33 26-4 8 2 9l10 4c2 0 15 9 18 12l14 20q1 4 5-5l4-6 2-4a57 57 0 0 1 32-21l3-2c6-4-8-23-22-29l-6-3c-3-1-26-2-29-1m-222 1-4 1-5 1-3 2c-5 0-17 12-22 21-4 8-4 8 5 11q24 7 36 31c3 6 3 6 8-4a58 58 0 0 1 38-29c5 0 1-10-6-18a51 51 0 0 0-47-16m108 1q-21 8-30 24-6 10 1 9l18 9a47 47 0 0 1 19 22c5 9 6 9 11-1 7-14 23-27 36-29q4 0 4-4c0-2-4-11-7-14l-2-3-1-1-3-3-17-9-5-1c0-2-19-1-24 1m-220 0a45 45 0 0 0-26 15c-2 1-8 9-10 14q-3 7 3 8l9 3a69 69 0 0 1 32 32q2 3 3 0l2-3c0-3 8-15 14-20q9-9 22-13 10-3 5-10c-2-5-2-5-9-13a48 48 0 0 0-45-13m-110 1q-25 5-37 27-5 8 3 10c16 4 31 18 37 32q4 9 9-3a59 59 0 0 1 38-31q7 1 1-9c-8-17-32-30-51-26m623 35q-31 4-42 28-5 6 5 8l15 7a80 80 0 0 1 20 23q3 12 10-2a61 61 0 0 1 37-29q6-2 1-10l-3-5a58 58 0 0 0-17-14c-3-3-19-7-26-6m-116 2-6 2a28 28 0 0 0-15 6l-8 7q-18 20-7 21l4 1 8 4q18 9 26 27l4 6q3 0 4-7l3-4 1-2c0-3 11-15 16-18q7-6 17-9 5-1 3-4c-2-10-15-22-27-26l-6-3zm-230 2c-13 2-28 14-34 26q-5 8 5 9l13 6c6 3 19 16 23 23 4 8 4 8 8 0a72 72 0 0 1 22-23q3-3 19-8 3 0-1-7l-3-5-3-3-3-5-1-1-2-1-13-8q-12-6-30-3m113 0-20 8c-6 4-17 19-17 23q2 4 11 6l4 1 1 1a61 61 0 0 1 28 29l2 2q0 4 5-5a70 70 0 0 1 21-24l15-7 6-3a51 51 0 0 0-29-29l-20-3zm-223 1-6 2-4 1c-5 0-20 13-25 22q-6 9 5 10a64 64 0 0 1 39 37l4-6c5-11 15-21 22-25l12-6 4-1 2-1c5 0-1-13-10-21-10-9-29-15-43-12m-111 2-15 5q-13 7-22 21l-3 7 3 1 5 2 15 7a64 64 0 0 1 23 28q2 4 5-2l2-6c0-4 16-21 24-25l13-5c6 0-1-14-11-22q-16-14-39-11m636 89q-11 12-2 10 5 0 6-3l2-4c2-2 3-11 1-11q-2 0-7 8"
        mask="url(#16282281824-posters-1720560193700-horizontal-mask)" itemprop="light" fill-opacity="0.90"
        fill-rule="evenodd" stroke="none" fill="url(#16282281824-posters-1720560193700-vertical-light)"></path>
      <!---->
      <path id="16282281824-posters-1720560193700-regular"
        d="m37 1 3 2a59 59 0 0 1 24 26q3 4-6 7-24 8-36 33-4 8-6 3-2-9-11-18l-5-5v5l1 5c2 1 8 13 8 16q0 2-5 2-5 1-4 5v3l5-2c21-6 48 6 58 25 4 8 4 8-6 11q-21 8-33 28-5 13-9 4L5 135l-4-3c-2 0-1 7 1 9l4 7 3 5q1 5-5 6-5 0-4 5 0 3 2 3 29-11 53 11 11 12 11 19c-1 2-1 2-11 5q-20 9-32 31-3 11-8-2c-4-8-12-18-14-18-3 0-1 8 3 14q10 15 0 16-5 0-4 5v3l4-2c9-3 30-1 40 4 16 9 28 27 19 30q-27 7-39 32-4 11-9 1l-8-14q-7-9-7-1l1 4 9 13q2 5-6 7-5 1-4 4c0 3 0 3 8 1 22-5 46 6 56 25 4 8 4 9-5 12q-24 7-34 31-4 12-10-1c-3-7-11-18-14-19-2-1-1 8 1 11 4 3 10 15 8 17l-5 3q-6 0-5 5-1 5 4 2l11-3q29-2 47 22 9 12 0 14c-15 4-29 15-34 27q-7 13-9 9l-2-2c0-4-14-22-16-22s-1 8 2 10c3 4 8 13 8 16l-6 3a5 5 0 0 0-5 8l7-1q27-7 47 11 6 4 9 4h5l-8-7q-10-10-24-15c-8-2-8-4-1-15 16-25 53-29 75-9 5 4 12 14 12 18q2 5-6 6c-10 3-29 17-29 21 0 3 7 1 12-4q7-6 19-11c14-6 40 1 52 13 2 3 9 4 9 2 0-5-25-22-33-22-9 0 2-21 16-30 25-16 61-6 73 20q5 7-6 9c-11 3-25 14-30 23-2 3 6 1 10-3 20-21 52-22 73-2q5 7 9 6h3l-2-3c-4-8-17-17-30-21-9-3-9-3-5-12 17-35 73-34 89 2q5 8-5 9c-8 2-19 8-23 13-10 11-11 12-6 12q4 0 6-3c10-15 37-23 56-16 10 4 24 15 24 18l4 1q6 2-1-6c-6-9-23-20-30-20-13 0 4-25 22-32 24-11 52-1 64 23q6 8-3 9c-10 3-23 12-29 20q-7 8-1 6 4 0 6-3 5-8 17-14c20-9 45-5 59 11q6 7 9 6h4l-2-3c-5-9-18-18-30-22-10-3-10-5-4-15 17-27 55-31 77-9q19 19 8 22-15 4-25 15-14 13-7 12 3 1 9-6c20-23 55-22 76 1 3 4 10 7 10 4 0-2-14-17-15-17l-5-2-11-6c-10-3-10-3-6-12 17-36 73-36 89 0q6 8-2 9c-4 1-17 7-20 10q-9 8-14 15l-2 4h3q4 0 7-4 7-11 24-18c4-2 19-3 25-2q18 4 31 19 4 6 7 5c4 0 4 0-1-8-7-9-25-21-32-21q-9 0-4-10c9-19 39-32 58-25q7 3 6-2 0-5-6-5-10 0 2-16a20 20 0 0 0 4-15l-5 7-9 13c-5 9-5 9-9 1-9-16-27-30-39-30-11 0 2-22 19-32 10-5 25-8 36-5q8 4 7-1 1-3-5-5l-6-2q-1-4 5-12l2-4 2-2 2-8v-4q0 2-5 6l-13 20q-2 5-5-4-10-19-30-28l-9-3c-11 0 3-23 19-31q18-9 38-4l5 2v-3q1-4-5-5-10-2-5-9l6-9a17 17 0 0 0 4-13l-6 6-9 13c-5 9-5 9-8 4q-12-25-38-32-7-2-6-5l6-12c0-3 13-14 19-17q18-9 40-1 3 1 2-3 2-3-6-5-6-1-6-4c0-2 5-13 8-15a17 17 0 0 0 4-14l-6 7q-6 6-10 14-5 13-8 3-9-21-35-31-13-3-6-12c10-20 39-31 61-24l4 2v-3q2-5-6-5l-7-3c-1-3 7-17 12-21l2-5v-5l-4 5c-6 5-13 16-16 22q-2 5-4 1c-12-21-19-28-36-34-11-3-11-4-7-11 11-22 40-34 61-25q6 3 5-2 2-3-7-5l-6-2v-4q2-7 9-15t1-7q-6 0-14 16-5 13-9 1-8-17-17-17h-4l6 6c5 5 11 15 11 19l-11 5-10 5-6 4c-4 2-12 12-16 20q-4 11-7 5-3-13-18-25l-19-10q-6 0-7-5c0-3 8-15 12-19q8-5 0-5-8 2-17 18c-5 10-5 10-12-2q-8-16-17-16h-5l8 7q10 12 11 19l-5 3q-29 12-37 36-2 7-6 2c-4-14-20-30-35-34q-12-3-10-7c1-5 13-22 18-24q5-2-3-2-5-1-9 5c-5 5-12 16-12 18l-2 2q-2 3-4-2l-3-5-13-16-7-2h-5l3 3c6 4 14 13 16 18q5 8-3 10c-13 4-30 17-33 24l-8 14-3-2c-8-15-10-18-19-25-7-5-19-11-23-11-7-1 2-18 15-27l4-3-5-1q-5 0-8 2-8 8-14 20-5 12-9-1-3-6-10-14c-6-7-6-7-11-7h-5l4 4c14 11 22 27 14 27l-18 8q-12 8-20 22l-5 8-6-8q-12-21-34-28l-7-3c-2-5 9-20 20-28l3-2h-6q-6-1-9 4-8 9-14 20-2 8-6-1-11-21-24-23-9 0 0 4 9 6 15 16 8 11-1 12c-14 4-29 16-37 30-5 10-5 10-9 3q-11-23-35-31-12-3-6-11 6-12 17-18 9-5 0-5-11 1-23 22l-6 9-5-8q-5-9-12-16l-7-7h-7q-10-1-2 3c7 3 16 12 20 19 5 8 5 9 1 11-21 8-30 15-38 32q-5 11-6 7c-2-1-5-7-5-8a59 59 0 0 0-34-28c-9-3-10-4-5-12q7-12 18-19l7-4-5-1c-5 0-6 0-11 4a49 49 0 0 0-14 16l-3 5q-5 12-9-1C63 11 51 0 42 0zm592 33q-24 4-34 22-11 15 2 17c14 5 29 18 34 32q5 11 12-7l9-12c4-5 17-13 26-16q6-1 5-4c0-6-12-20-20-26-9-5-27-8-34-6m-116 2c-14 2-29 14-36 28-3 7-2 7 6 10l17 8c6 5 15 15 17 20q5 11 7 7l2-2 4-7q12-20 35-27c6-3 6-3 4-8-7-20-31-33-56-29m-109 1q-22 3-36 23c-6 9-6 11 3 14l14 7c6 3 15 13 20 22l5 8q4 0 4-4c0-9 27-33 37-33 16 0-5-29-26-35-7-2-17-3-21-2m-120 2q-11 2-22 14c-10 10-14 21-7 21l7 2 5 2c5 0 21 15 25 23 7 12 7 12 11 4 4-9 15-22 17-22l5-3c5-3 14-7 17-7q6-2-2-14a51 51 0 0 0-56-20m-112 1q-20 9-30 26-6 9 5 11 23 8 33 27c6 11 7 11 12 2q12-23 35-31 7-1 7-4a39 39 0 0 0-10-18c-2-3-13-10-19-12-9-3-24-4-33-1M66 40q-24 4-36 26-7 11 5 12 24 7 37 34 3 5 7-4 12-23 32-29c10-4 10-4 10-6 0-9-15-25-27-30q-13-4-28-3m614 36q-21 7-32 25-5 9 3 11 24 6 38 30 4 12 7 1 11-24 37-32 9-2 5-8c-7-20-35-33-58-27m-218 2q-24 3-37 21c-7 12-7 13 3 16q23 8 36 33 3 9 8-4 12-22 35-30 10-2 5-9a51 51 0 0 0-50-27m104 1q-12 3-22 13c-12 12-14 22-5 22l10 4q17 9 26 26l5 8 6-9c8-15 24-29 36-31q6-1 2-9c-2-4-13-16-18-19-10-6-28-9-40-5m-221 0c-7 1-17 6-21 9-12 10-20 24-14 26q29 9 39 29 6 16 10 4l4-8c5-9 20-21 32-24q9-2 4-11-9-15-28-23c-4-2-22-4-26-2m-112 1c-14 3-28 13-34 26q-6 9 4 10 24 8 36 30c4 8 4 8 9 0q12-24 35-30 9-3 6-8c-7-19-34-33-56-28m-113 2c-12 3-27 13-33 25q-7 9 4 11c17 6 33 21 37 33q3 9 7 1c4-15 21-31 37-36q9-1-1-15c-4-5-17-16-20-16l-6-2c-4-1-19-2-25-1m504 35c-13 3-30 18-33 30q-3 7 4 7c13 3 29 17 36 31 5 8 6 8 11-2q12-23 34-30l7-3c3-5-11-23-20-27l-8-4c-5-2-25-4-31-2m-110 2c-14 2-29 14-36 26q-5 9 4 10c17 5 32 19 38 33 3 7 4 6 11-6 5-11 23-25 35-27q7-1 2-10-8-16-27-24c-6-2-21-4-27-2m-225 2q-24 6-35 25c-3 8-3 8 6 11 14 4 28 15 34 27 5 10 5 10 9 3q12-24 37-32 9-2 2-11a50 50 0 0 0-53-23m106 0c-13 5-27 17-31 29q-3 5 7 6 23 6 35 30 5 12 9 0 13-23 36-30 10-1 4-12a53 53 0 0 0-60-23m-221 1q-24 8-32 29-3 6 5 8 23 7 35 28c5 10 6 10 11 0q11-22 33-29c10-3 10-4 6-11a50 50 0 0 0-58-25m-110 1q-22 7-33 25c-4 8-4 9 6 13q23 7 33 28c5 9 5 9 8 3q12-24 38-34 9-1 2-10a51 51 0 0 0-54-25m624 34c-16 1-32 12-40 27-3 7-3 8 6 11l16 8c5 2 14 13 18 20 5 9 5 9 9 2a61 61 0 0 1 36-31c2 0 7-3 7-5q0-6-11-17a49 49 0 0 0-41-15m-337 3c-17 1-33 12-40 25-5 10-5 10 6 14q23 8 33 28 6 14 9 2 12-24 37-32 11-1-1-18a51 51 0 0 0-44-19m112 0q-29 4-41 27-5 10 4 10c10 0 31 17 37 31q5 13 8 1 13-26 38-32 8-2 3-10c-9-18-29-29-49-27m107 0q-22 5-34 26-6 9 2 10 26 8 39 32 4 9 7 4a66 66 0 0 1 41-39c5-3-7-20-19-27-8-6-25-8-36-6m-334 1q-27 7-37 28-5 7 5 9 25 9 37 32 3 9 6 1c7-17 23-31 39-34q7-1 3-9a53 53 0 0 0-53-27m-112 2-8 2c-11 3-26 15-30 26q-4 8 4 9 26 9 37 31 5 12 8 1a61 61 0 0 1 39-34c9 0-4-21-18-29-9-5-25-8-32-6m499 38c-12 3-26 15-31 27-3 8-2 8 6 11q23 7 35 31 3 8 8 0c7-17 23-31 40-35 9-2-4-23-20-30l-8-4c-4-2-24-2-30 0m-104 0-8 1q-11 2-24 14c-9 10-14 22-8 22a59 59 0 0 1 41 33q1 4 5 4l4-7q12-21 35-29c9-3 9-4 5-12-8-17-34-30-50-26m-233 3c-7 2-17 7-22 12-8 8-14 21-10 22q20 6 31 17a69 69 0 0 1 13 20q2 2 6-6a57 57 0 0 1 36-30q10-2 2-14a52 52 0 0 0-56-21m111 0-7 2c-2 0-11 7-16 13q-12 15-7 19 29 10 40 32 4 10 7 4l2-3c0-2 9-14 14-19q9-8 20-12 11-1 6-12a53 53 0 0 0-59-24m-221 0-10 4c-2 0-12 8-15 11q-15 19-5 23c9 3 12 5 19 9q10 7 18 21 5 12 11-1 11-25 36-32c6-1 6-2 2-11l-11-14-7-4-10-5c-6-2-23-2-28-1m-105 1q-26 3-40 26-8 12 6 12c11 3 28 18 35 32 3 7 3 7 9-4q11-21 36-30 9-1 2-12a49 49 0 0 0-48-24m618 35q-22 3-36 20-11 15-2 17 24 6 38 29l5 8 5-8q11-21 33-29c10-4 10-4 6-11-8-17-29-28-49-26m-117 3c-12 2-26 11-34 23q-7 10-1 12l4 2c10 0 28 15 35 30 5 9 6 9 11 0 7-16 22-30 35-33q6 0 4-6-3-9-16-20l-16-7c-3-1-18-2-22-1m-233 3q-19 6-28 24c-4 7-4 7 6 11q22 8 34 29c5 8 5 8 9 0q13-24 37-30 9-2 1-13a50 50 0 0 0-59-21m116-1a51 51 0 0 0-33 28q-4 6 3 7c16 3 32 17 39 32q3 9 8 0 12-25 37-33c7-2 7-2 3-10a51 51 0 0 0-57-24m-222 0c-13 3-27 14-33 26q-6 9 3 9c13 3 29 15 36 30q6 14 10 0 11-22 39-31 6-1-1-12a52 52 0 0 0-54-22m-112 2c-13 3-27 13-33 25q-6 12 3 11c9 0 29 16 35 28q6 17 11 3 11-24 35-32c6-3 7-3 4-9-9-19-32-30-55-26m506 35c-15 3-30 16-34 29-3 7-3 6 6 10q23 9 32 28 6 11 8 5 13-27 37-35c10-3 10-4 7-11a50 50 0 0 0-30-25c-4-1-20-2-26-1m-112 2c-15 3-32 17-37 28q-4 8 8 9a61 61 0 0 1 34 30q4 13 9 1 14-25 38-33 7 0 3-8c-9-19-34-31-55-27m-221 1c-19 2-36 16-40 32q-1 3 8 6a63 63 0 0 1 29 21l5 7q5 10 6 5 16-30 40-36 11-5-9-23c-10-9-26-14-39-12m109 0q-23 5-35 24-6 11 1 11 24 6 39 33 5 10 8 0c4-9 5-11 12-17q9-10 23-15 11-2 5-10c-8-18-32-30-53-26m-229 2q-20 8-29 25-7 10 3 12 24 9 35 30 5 13 11-2c6-13 26-30 36-30l4-2 2-2-3-6a51 51 0 0 0-59-25m-103 1c-18 1-43 21-42 32 1 3 1 3 11 6q21 10 32 30 4 11 8 1c3-12 20-28 36-33q9-2 4-10c-8-17-29-28-49-26m609 36q-22 8-30 25c-4 8-4 8 7 12 14 5 32 21 32 29l1 2 2 3q1 6 6-6 12-21 35-30 12-3 6-10a52 52 0 0 0-59-25m-106 1c-11 1-24 8-30 16-4 4-10 14-10 17 0 2 6 5 10 5l8 4q16 8 26 26c4 8 4 8 10-2 8-16 26-31 36-31 8 0 1-16-13-26q-18-12-37-9m-233 2q-22 9-31 27-4 7 8 10 23 8 33 28l5 9 5-8q13-23 36-31 8-1 5-7l-2-4a51 51 0 0 0-59-24m114 0c-12 3-25 12-30 22q-8 13 2 13c13 3 30 17 36 30q6 13 9 3 9-19 23-27l20-8-2-9a51 51 0 0 0-58-24m-219 0c-13 2-27 11-34 24-6 9-6 10 4 13 17 7 26 14 34 30 5 8 5 8 9 0 7-14 27-31 37-31q7 0 4-8c-8-20-31-32-54-28m-117 3q-20 5-31 24c-5 8-4 9 4 12q25 8 36 31 5 12 8 3 10-26 36-35 10-3 4-12a51 51 0 0 0-57-23m511 35q-28 8-37 30c-3 7-3 6 6 9 16 6 25 15 35 33q4 8 10-5 10-21 36-31c6-2 6-3 2-11q-8-17-28-23c-5-2-21-3-24-2m-119 3q-22 7-31 25-6 10 1 10 26 7 42 36 2 5 6-4 14-25 39-32 8-1 3-9c-5-11-18-23-31-26-8-2-24-2-29 0m-220 0q-27 7-37 30c-2 5-2 5 9 8q22 8 33 28 4 14 10-1 12-21 34-28 11-1 5-10c-9-21-32-31-54-27m112 0q-20 4-32 22c-7 10-7 12 1 15q23 7 36 31 3 6 5 6l6-9c5-13 21-25 36-29q7 0 1-11c-9-18-31-28-53-25m-225 2q-24 6-33 25-7 10 3 13c8 3 19 9 24 14 4 4 13 18 13 20l2 2q4 0 5-3c0-3 10-17 15-23 7-6 11-8 21-12 8-3 9-3 7-8-7-20-35-34-57-28m-113 1c-12 3-25 13-31 23q-9 14 1 15c12 2 29 15 36 28 5 10 5 10 11-1q11-21 35-29c7-2 7-3 3-11a52 52 0 0 0-18-19c-7-5-27-9-37-6m616 36q-21 7-31 25c-4 8-3 9 8 12l15 8a64 64 0 0 1 19 26q3 4 8-8 11-20 36-28c6-3 6-4 2-11l-3-6-5-5a51 51 0 0 0-49-13m-331 2q-21 2-34 20c-9 12-9 15 2 18q21 6 34 27c5 9 5 9 9 1 7-13 22-26 36-30 7-2 8-3 3-11a51 51 0 0 0-50-25m112 0q-25 3-37 25c-5 8-4 9 7 13l9 4q16 9 24 26 5 10 8 0 12-24 36-32 10-1 5-9c-8-18-32-30-52-27m106 1c-13 3-27 15-32 27q-4 6 6 8 26 10 36 31l3 6q4 0 5-3c0-3 7-14 11-19q9-11 23-16c9-3 9-4 5-11a50 50 0 0 0-57-23m-331 0q-20 5-32 20-12 16-1 16l5 2 7 3c10 5 21 17 27 28q2 9 8-4 11-21 34-29c8-2 8-2 5-8-7-19-33-32-53-28m-117 3q-23 7-32 26l-3 6 2 2 4 2c3 0 15 6 20 10q9 7 17 20c5 9 5 9 9 1q13-26 38-34 9-1-4-16a51 51 0 0 0-51-17m646 84-10 13q-2 3 2 2c5 0 11-8 11-14v-4z"
        mask="url(#16282281824-posters-1720560193700-radial-mask)" itemprop="regular" fill-opacity="0.90"
        fill-rule="evenodd" stroke="none" fill="url(#16282281824-posters-1720560193700-horizontal-regular)"></path>
      <!---->
      <path id="16282281824-posters-1720560193700-medium"
        d="m37 0 4 3c11 5 24 21 24 29l-5 4q-27 8-38 33-4 10-8-1C11 62 2 50 1 50l-1 4 1 4c2 0 9 15 8 18l-5 2q-4 1-4 4t2 2c27-7 54 5 63 27q5 6-10 9-20 8-32 30-5 10-8 2l-3-4-1-3-5-8-6-5v3l2 6c3 2 8 12 8 14q-1 4-7 5-4-1-3 3-2 4 7 2c5-2 19-2 25-1 14 4 29 16 33 28q4 8-4 9-27 9-37 32-4 13-10-2c-4-8-11-17-13-17v8l8 11q4 8-4 10-5 3-5 5-1 3 3 1c22-8 52 4 62 25 3 7 2 8-7 11-16 6-25 13-33 29-5 10-6 10-11-1-3-6-11-16-13-16s-1 7 2 9c3 3 8 12 8 14q0 4-7 6-5 0-4 3 0 4 2 2c23-9 53 3 63 26 3 7 3 8-6 11q-21 7-33 28-4 8-6 9l-5-8c-4-8-12-18-14-18s-1 7 1 9c3 2 9 14 9 17q0 3-6 4-5 2-5 5 0 2 2 2c22-9 48-1 61 19 7 11 6 12-3 15-12 4-27 15-30 22q-9 19-12 13-13-22-17-23c-2 0-1 7 1 7 2 1 9 13 9 17q1 4-7 6-4 0-4 3-1 5 4 1c13-6 39 0 51 12l8 4h3l-6-7c-6-6-20-14-23-14q-6-1-8-4c0-5 9-18 15-23 13-10 31-14 41-11l9 3c12 3 25 16 29 27q3 5-8 8-13 5-24 15l-4 6h3q2 0 8-5a51 51 0 0 1 73 3c1 2 7 3 7 1 0-5-20-18-30-21q-8-2-5-9c9-25 43-38 69-26 13 6 28 25 24 30l-8 4c-11 4-29 18-29 22q2 3 11-5c20-20 52-20 72 0q12 11 10 3c-4-7-17-16-30-20-10-4-10-5-5-15q14-23 44-24c10 0 12 0 23 5s24 20 24 27q1 3-7 5-18 6-28 19l-4 6h3l4-1c2-5 14-14 24-18 6-3 8-3 18-3 16 1 24 4 35 15q15 13 9 3-10-14-29-21-15-4 4-23c24-24 66-18 81 12 3 7 3 8-6 11-12 5-26 15-30 23-2 4 4 3 8-2 17-23 55-24 76-3q7 7 9 7h3l-2-3c-5-9-22-21-35-23q-6-2 0-11l2-5a52 52 0 0 1 88 5c3 8 2 9-7 12-11 4-17 9-26 19l-5 6h3l4-1 6-7c22-21 56-20 76 3 5 7 11 7 6 0q-10-14-31-21c-7-3-7-3-3-12a47 47 0 0 1 15-18 52 52 0 0 1 75 16q6 11-4 12a67 67 0 0 0-24 14c-3 2-10 12-10 13q1 4 10-6c21-25 59-24 80 2q4 6 6 5h3l-2-3c-5-10-19-20-33-25q-8-3-7-5c0-10 17-27 33-32 7-2 23-2 28 0q6 4 5-1 1-4-4-4-10-1-6-9l9-13 1-9-4 6q-6 6-12 17-4 8-8-2-6-13-17-21c-7-5-10-7-19-9l-6-2v-4c0-11 17-27 32-31 8-3 23-3 29-1q6 3 5-1 1-3-6-4-7-2-6-5c1-4 6-13 10-16l2-8v-4l-5 7-9 13-6 8-5-7q-11-21-35-29-11-2-5-11c10-20 37-32 59-26q8 3 6 0 1-3-6-5-6-1-5-5c0-3 5-12 9-16 2-2 4-10 3-11l-1 1-5 6-9 13q-6 13-9 5-14-27-39-33-12-2 0-17a51 51 0 0 1 59-19q4 2 3-2 1-3-6-4l-6-3c-2-2 4-14 9-19q3-4 3-9v-3l-6 8-7 10c-7 12-8 13-11 6q-11-22-34-30c-11-4-12-5-8-13a51 51 0 0 1 66-23v-2q1-3-6-5-12-1-5-10l7-11 5-8v-4l-3 3c-4 3-11 13-15 21-4 7-4 7-10-3q-11-22-33-27c-10-4-11-4-7-13 11-21 41-33 62-25l5 2v-3q0-3-5-4-10-3-9-5 2-8 9-17 9-8 2-7-6 0-14 17-4 14-10-1-8-15-15-16h-4l5 6c8 7 13 18 10 20l-5 2c-14 3-31 18-37 33q-6 10-7 4a57 57 0 0 0-38-35q-7-3-6-6 1-7 11-19 7-5 1-5-7 1-16 19-6 13-11 2l-4-8c-4-6-11-13-15-13h-4l7 7c7 6 13 16 12 19q0 2-10 6-23 9-32 33-4 11-10-5c-9-16-19-23-39-30q-4 0-3-4c0-5 11-20 19-25q2-1-3-1-4-2-10 6c-4 5-12 16-12 18l-2 2q-2 4-4-2l-3-4c0-2-8-12-12-16q-5-5-8-4l-4 1 4 3c9 6 19 21 16 25l-8 4q-23 8-34 31-4 12-9 0c-8-15-15-21-29-28l-10-4-5-3c-1-4 8-18 17-24l5-4-4-1c-5 0-5 0-9 4l-13 19q-4 11-8 0c-5-11-16-23-22-23q-6 0-2 2c4 2 15 15 18 23q4 5-4 7-25 8-36 30c-5 10-6 10-11 1q-12-21-31-28c-12-4-12-4-12-6 0-6 10-19 19-26l4-3h-5q-11 1-21 22-4 12-9 1-11-22-23-23-6 0-2 3c4 1 15 12 18 18q8 10-5 13-23 9-34 29-6 15-10 2-10-22-33-30c-11-4-11-4-8-12q7-12 17-19 9-4 1-4-12 1-25 27-4 8-8-2-7-12-16-20c-6-5-6-5-11-5l-5 1 3 1c6 3 16 12 20 19q8 11 0 13l-17 8c-6 3-15 14-20 23-5 11-5 11-11 1q-12-24-36-30-8-1-6-7 6-15 20-24l7-4-5-1-6 1-5 4q-9 7-16 21-5 12-9-1-7-13-20-23c-2-2-12-3-12-2m590 34q-24 4-36 27c-4 9-3 10 7 13q19 7 30 26c7 12 8 12 14 2q6-13 16-21c6-4 17-10 20-10 13 0-1-25-20-33l-22-6zm-112 1q-24 5-36 25-9 12 1 14c15 3 30 15 37 28q4 9 6 9l6-9q13-21 37-29 9-2 2-12a53 53 0 0 0-53-26m-222 2q-18 2-32 16c-7 7-12 19-9 20q30 10 42 31l5 7c1 0 6-7 6-9l12-16c4-3 14-9 21-11 10-4 10-6 1-19a51 51 0 0 0-46-19m108 0q-25 6-36 29l-2 4 2 2 4 2a64 64 0 0 1 36 29q8 15 9 4c4-12 22-29 39-33l4-2c1-8-9-22-20-29-11-6-26-8-36-6m-226 2q-24 7-34 28c-3 7-2 8 4 11q24 8 34 26c6 12 8 13 14 2q12-24 36-31 11-1 0-16a51 51 0 0 0-54-20M58 42q-20 7-29 24c-4 9-4 10 5 13q24 7 36 31c4 7 5 6 11-4q11-22 33-28 13-3 5-13-10-16-27-23c-8-4-25-4-34 0m621 34c-13 3-26 14-32 25q-5 9 5 11 27 8 37 33 3 9 9-4 12-22 35-29c7-3 8-4 4-11a51 51 0 0 0-58-25m-107 1c-15 2-31 13-38 27-4 7-3 8 7 12q23 7 33 28 6 16 12 0c8-15 25-31 33-31 17 0-1-26-23-34-6-2-17-3-24-2m-234 3q-21 8-29 25c-3 7-3 8 7 11q23 9 33 29 6 13 11 0c6-14 20-25 34-29 8-3 9-4 5-12a61 61 0 0 0-20-20q-17-11-41-4m113 0q-18 5-28 22c-6 9-5 11 5 14q23 8 33 28l5 8q4-1 5-5a60 60 0 0 1 36-32q12-2 5-11a51 51 0 0 0-61-24m-210-1q-30 3-42 26c-4 8-4 9 2 11 16 4 31 16 37 30 5 9 6 9 11-1a61 61 0 0 1 39-31l3-2-2-4a50 50 0 0 0-48-29m-119 2c-13 2-29 14-36 26-4 8-4 9 3 11q25 9 37 31 5 13 9 2 12-26 36-34 9-2 5-9c-9-19-32-30-54-27m502 36c-16 4-34 21-34 33q-1 3 5 5 25 8 37 31 3 13 10-2 12-24 34-30c10-3 10-4 6-12a51 51 0 0 0-58-25m-112 2q-24 7-34 26-5 9 3 11 24 6 37 29c5 10 6 10 11 1q12-22 36-31 10-2 3-11a52 52 0 0 0-56-25m-111 0q-23 5-35 26c-5 8-4 9 6 12q22 7 34 30 5 12 9 0 12-22 34-30l8-4c3-5-12-24-21-28l-6-3c-6-3-19-4-29-3m-223 1c-13 3-27 12-33 22-7 13-7 16 2 17q21 6 33 27 6 10 8 10l5-8a72 72 0 0 1 23-25l11-5c10-3 10-3 6-12a52 52 0 0 0-55-26m109 0q-25 8-34 29-5 6 7 8 22 8 34 28c5 9 5 9 10 2a56 56 0 0 1 36-31c16 0-2-25-24-34-6-3-22-3-29-2m-219 2a47 47 0 0 0-40 34c0 2 1 2 12 6q18 7 29 26 8 15 10 3c3-11 21-27 38-33q8-1 3-9c-9-18-31-29-52-27m615 35q-23 5-35 27c-4 7-4 8 5 12q24 7 35 28c5 9 5 9 9 1q14-25 38-31 11-2 0-16a54 54 0 0 0-52-21m-113 2-7 2c-11 3-31 23-31 31 0 2 5 5 7 5 5 0 21 9 26 16a77 77 0 0 1 14 21c3 2 3 1 9-10q10-21 32-28c8-3 8-4 4-12a51 51 0 0 0-54-25m-227 1c-16 4-32 18-35 32q-2 4 7 6 24 9 35 30c5 9 5 9 10 1 8-16 18-25 38-32q6-2 2-11a51 51 0 0 0-57-26m116 0c-15 1-30 12-37 27q-5 9 1 10 25 5 39 30c6 10 6 10 10 3q12-26 37-33 11-2 0-16a51 51 0 0 0-50-21m-232 3q-13 4-21 15-17 19-2 21l9 4q16 7 28 29 4 7 7-3 13-23 34-30c11-4 11-5 4-16a50 50 0 0 0-59-20m-104 0c-17 3-33 15-38 29-2 6-2 7 8 10q23 8 33 29c5 11 6 11 11 0 7-15 23-29 37-32 12-3-7-28-26-34-5-2-20-3-25-2m503 36c-5 1-15 6-20 10-7 5-18 23-16 26 0 2 1 2 11 6q19 7 31 28 5 13 11-2 10-20 32-29c11-4 12-5 7-13a53 53 0 0 0-56-26m-116 3-11 4c-16 9-30 33-19 33l5 2 4 1c7 0 28 20 30 29q4 12 11-3 13-23 35-29 10-2 7-8c-8-22-39-37-62-29m-223 1q-22 7-33 26-5 9 4 11 24 6 38 32 3 9 8 0l3-7q8-13 20-20l15-6c13 0-3-24-21-33q-17-7-34-3m112 0c-10 3-13 4-20 10-13 12-19 26-11 26 3 0 13 5 20 9q11 7 18 22 5 12 10 2 12-25 35-31c10-4 10-7 1-19a49 49 0 0 0-53-19m-219 0q-25 5-37 27c-4 9-4 10 6 14l15 7c3 0 14 13 18 21q5 15 13-3a54 54 0 0 1 35-29l4-2 2-2-3-6c-9-20-30-31-53-27m-117 2c-12 4-26 14-32 25-5 9-4 11 4 14 11 3 28 15 28 18l2 3 5 8 4 7 5-4c0-2 9-15 12-19 6-6 18-12 27-15q10-2-1-17a52 52 0 0 0-54-20m622 35-13 4q-16 9-24 25-5 7 3 8 27 8 39 31 3 11 9-1 12-22 34-30c8-3 9-3 7-8-6-19-32-33-55-29m-109 2q-24 3-38 23-11 13 4 16 23 8 34 28 5 14 9 6c4-15 20-32 35-37q15-3-4-21a44 44 0 0 0-40-15m-229 1c-15 2-30 13-36 26-5 8-4 9 7 13 13 4 27 16 33 29 4 8 5 8 11-2 8-14 26-29 36-29s2-16-13-28c-9-7-26-11-38-9m114 0q-23 4-36 22c-7 11-6 13 3 16 12 4 29 16 29 20l2 4 5 8q3 11 9-3 11-21 35-30c8-2 8-3 5-11-8-17-30-28-52-26m-230 2q-19 5-30 23-8 11 1 13 25 8 37 30l6 7 5-8q12-22 34-29c9-3 9-5 3-15a51 51 0 0 0-56-21m-106 1a52 52 0 0 0-39 28l-1 3q-4 4 6 7 24 8 35 29 6 15 11 1 10-23 34-31c9-4 9-4 5-12q-7-14-28-23-9-3-23-2m506 35c-15 2-31 13-36 24-6 12-6 14-1 15 3 0 3 0 11 4q18 9 26 25 7 13 9 5 11-25 36-35 13-3 9-9c-8-19-32-32-54-29m-121 4c-16 5-34 23-33 32q-1 3 9 5 22 8 33 29c6 10 6 10 12-2q10-19 35-28 10-3 4-12a54 54 0 0 0-60-24m-329 0c-15 2-31 14-38 27q-6 11 5 12 26 10 36 32 3 11 10-3a59 59 0 0 1 36-31q10 0 3-12a51 51 0 0 0-52-25m103 1q-19 8-29 24-6 11 5 12 23 7 35 29 6 13 9 2 13-25 37-32 11-2 2-14a51 51 0 0 0-59-21m115-1q-23 8-33 27-3 8 2 8c15 3 32 17 39 33 4 9 5 9 11-2q11-22 39-31c7-3-8-23-22-30-10-6-26-8-36-5m-334 3-15 6c-5 2-18 16-20 22q-5 7 4 9l11 4q15 6 25 26c5 9 6 9 11 0q12-24 36-31 7-2 4-9c-9-20-33-32-56-27m618 34c-14 4-29 15-34 28l-3 6 2 2 4 2c8 0 31 17 35 26 6 13 7 14 11 5q11-23 39-32 6-3 2-11c-9-19-35-31-56-26m-113 3q-25 6-35 29-4 7 6 9c15 4 30 17 36 31q5 12 9 1 12-25 35-34 12-1 4-13a49 49 0 0 0-55-23m-224 0c-16 4-31 16-37 29q-3 8 3 9 16 4 29 16c6 5 7 7 11 17q5 9 8 1 5-12 21-26l16-8c14 0 0-24-19-33q-16-8-32-5m113 0q-26 7-36 27c-4 8-4 9 7 12 13 4 27 16 33 29 5 10 6 10 11 0q11-23 33-29 10-4 9-6a49 49 0 0 0-57-33m-221 1c-14 2-29 11-35 22-8 12-8 13-1 16q19 6 28 15l10 16 5 7 4-7a64 64 0 0 1 41-33q4-2-2-13a50 50 0 0 0-50-23m-116 2-10 4-6 2c-2 0-17 16-19 21-4 8-3 9 6 12q24 8 34 30 7 14 9 3c6-15 23-32 37-35q8-2 5-8c-7-20-35-34-56-29m504 37c-17 4-34 21-34 33v4l7 3q22 8 32 28 9 14 11 2c3-11 19-26 35-32 10-4 10-4 6-12a50 50 0 0 0-57-26m-109 1c-17 2-38 19-40 33v4l7 2q22 7 35 28c6 10 6 10 10 3q13-23 37-32c8-3 8-3 6-8-8-21-31-33-55-30m-225 2a50 50 0 0 0-38 29q-4 7 8 10 24 7 36 31 3 9 8-3 11-21 34-29 11-3 6-10a43 43 0 0 0-21-23q0-2-13-5c-9-2-10-2-20 0m111 0c-17 3-35 18-38 31q1 5 6 6c10 0 29 16 36 30l5 8q4-1 5-6a58 58 0 0 1 36-32q10 0 4-11c-9-20-33-31-54-26m-228 2c-16 5-30 18-33 30-2 6-1 6 4 8q22 5 37 30 6 12 11 0a64 64 0 0 1 27-28l8-4q11-1 6-10a51 51 0 0 0-60-26m-110 0c-18 5-37 23-36 34q-1 3 7 6 25 8 36 31 4 11 9-1 12-25 37-32 9-1 5-7c-7-22-36-37-58-31m624 35-15 4c-5 0-19 13-24 23q-7 9 4 11 25 8 36 30c4 9 5 9 11-3s22-25 34-27c8-2 8-4 2-15-9-15-29-25-48-23m-118 3q-17 4-30 20-11 15-3 17c5 0 26 11 26 13l5 6 8 12q6 14 10 0c5-14 20-28 35-32 7-3 8-4 3-12a51 51 0 0 0-54-24m-230 2c-15 5-32 22-32 32q-1 3 9 5 22 7 34 28 5 13 10 0c7-13 24-27 37-29q11-2-4-20a53 53 0 0 0-54-16m114 0c-17 6-25 13-32 25-3 8-3 9 7 12q23 8 33 27c5 11 6 11 11 1q11-22 36-30 10-2 4-11a52 52 0 0 0-59-24m-226 1q-16 7-26 20-8 14-2 15l2 1 5 1c11 3 28 18 33 30q4 12 10-2 11-20 33-29c9-3 9-3 7-9-8-22-39-35-62-27m-107 1-19 8c-10 9-19 20-18 25q0 2 7 5 14 4 22 12c5 4 15 18 15 21q0 3 5 4l4-6q11-25 36-33 8-2 4-8c-9-21-35-33-56-28m644 86-10 13 3 1c3 0 10-10 10-14v-3z"
        mask="url(#16282281824-posters-1720560193700-vertical-mask)" itemprop="medium" fill-opacity="0.90"
        fill-rule="evenodd" stroke="none" fill="url(#16282281824-posters-1720560193700-vertical-medium)"></path>
      <!---->
      <path id="16282281824-posters-1720560193700-bold"
        d="M44 4a53 53 0 0 1 21 24q3 7-6 9c-5 1-13 5-15 7Q29 56 22 70q-5 9-7 2c0-2-6-13-11-17l-4-5v3l2 5c3 2 8 13 8 16q0 5-8 5l-2 2c0 2 1 2 11 0a47 47 0 0 1 22 2c9 0 26 14 31 25 4 8 3 9-6 12a27 27 0 0 0-14 7c-4 0-16 14-20 24q-3 8-7 5l-7-12-6-8-3-3-1 2 2 5q3 2 6 9 6 10-4 11-4 1-4 4t2 1c3-2 18-3 26-2q16 2 28 15 18 19 6 23c-14 5-17 7-24 15-9 8-9 8-14 17q-4 11-7 5l-1-2-4-7q-3-7-8-11l-4-4v3l2 5 2 2 3 5q9 13-4 16-3 0-3 2 0 3 2 2 10-3 21-3a43 43 0 0 1 21 6 44 44 0 0 1 19 17c2 2 4 8 4 10q1 5-6 5l-4 2a53 53 0 0 0-32 29c-5 10-6 10-12-2-4-7-10-15-12-15q-3 2 3 8l4 7q8 9-4 13-4 1-4 4t1 1a52 52 0 0 1 60 17l1 2 6 12q1 4-10 7-21 6-32 28-6 15-11 1c-4-7-11-17-14-18-2-1-1 5 1 7q7 6 9 15 4 6-7 8l-4 3q0 4 6 0c3-1 21-2 27 0 9 2 24 12 30 20l5 12q-1 5-9 6l-6 2-7 4a61 61 0 0 0-20 25c-5 8-6 8-12-2-3-7-11-16-13-17s-1 4 2 7q13 15 6 20l-4 2-3 1-2 2q0 3 2 1l6-1 5-1h18c11 3 17 6 27 16l5 2c6-1-13-16-26-20-11-4-11-5-2-19a47 47 0 0 1 28-19 57 57 0 0 1 32 1 54 54 0 0 1 29 30q0 5-6 6a63 63 0 0 0-30 20c0 2 6 1 6-1l5-5 4-3 16-8c8-3 29-1 37 4l14 10q4 4 6 4c7-1-18-20-29-21-7-2-8-4-3-14 4-7 12-17 18-19q37-20 64 7c11 11 15 23 7 23-9 0-39 23-32 24q3 0 7-5c20-22 54-22 75-1q8 8 9 5c0-3-9-11-16-16l-18-7q-9 0 0-17c19-29 64-30 85 0q10 13 1 16l-14 6c-4 0-20 15-20 18s5 0 7-2q6-8 18-15l8-3c3-2 27-2 28 0l4 1c5 2 16 9 21 15q10 9 6 2c-5-8-18-18-30-22q-9-2-7-6l2-4c1-6 10-16 19-21 11-7 30-10 43-5a56 56 0 0 1 30 26l1 3q6 3-10 9a47 47 0 0 0-17 10l-11 12c-1 3 4 0 7-3 18-24 56-25 78-3q6 7 9 7h2l-2-3q-11-16-30-21l-8-3v-4c0-9 15-24 29-30a60 60 0 0 1 43 3c9 3 24 21 24 28q-2 3-8 5l-5 2-6 2-1 1-2 1-16 16-2 3h2q3 0 5-3a50 50 0 0 1 81-1c4 4 9 6 7 2q-9-15-31-23c-9-3-9-4-6-11l3-7 14-14a51 51 0 0 1 77 21q3 5-4 8a79 79 0 0 0-25 14c-3 2-10 12-10 13q1 3 6-3a55 55 0 0 1 28-20 58 58 0 0 1 38 4c2 0 13 10 18 15q7 8 6 3c-2-8-19-21-32-25q-11-3-8-10c3-8 14-20 24-25 8-4 24-7 29-5l11 3q2 0 2-2 1-2-7-3-11-4 5-22c2-2 4-10 3-11l-1 1-5 7-9 13q-5 15-10 2-11-20-26-27l-13-4c-12 0 2-24 19-34a52 52 0 0 1 42-3q3 1 2-2t-8-4q-7 0-1-13l6-8q3-3 3-8v-2l-4 6q-6 6-13 19-3 5-7-4c-8-16-17-23-35-29-10-4-10-5-6-13a51 51 0 0 1 63-25q3 2 2-1 1-2-8-5-10-1 3-19 5-5 5-10v-2l-4 6q-7 6-12 18-5 7-6 1l-2-2-1-1c0-2-9-14-13-18q-10-8-22-12l-8-3c-2-4 7-20 15-25l4-4 10-5c9-4 28-5 35-1q4 2 4-1l-6-3-7-4c-2-2 4-15 9-20q4-3 5-8 0-4-1-1l-5 5-7 10c-9 15-9 15-14 6q-10-20-33-29-15-3-7-13a55 55 0 0 1 30-25c3-3 24-2 30 0l6 2v-2q1-3-5-4c-10-3-11-4-7-11 2-5 9-14 10-15l2-4v-2l-2 2c-2 0-13 16-16 23q-2 8-9-5-11-21-33-28c-10-3-11-4-8-11a46 46 0 0 1 19-22l13-6c4-2 28-2 30 0q5 3 6 0c0-2-7-5-11-5-7 0-2-15 8-24q6-4 0-4c-3 0-11 10-12 15q-6 14-11 5-8-18-17-20-3-1 2 5 10 11 11 18 2 4-5 6l-8 3q-18 8-28 27-5 9-7 8l-2-1-3-8c-6-12-22-25-33-27l-9-4q-2-6 12-23l4-4h-3l-3 1-4 5-9 13q-6 17-15-4l-9-12-6-3h-3l6 6 10 13c3 8 3 9-2 11-13 5-29 16-29 19l-4 7-5 10q-2 13-11-5-11-21-33-28c-12-4-12-4-6-15q7-10 15-16l2-2h-3c-5 0-21 18-21 23q-2 4-5 5l-5-6c-6-12-15-22-20-22h-3l2 2c18 14 23 28 12 31l-14 6q-12 5-21 24c-6 10-7 10-11 2l-3-6-5-6a41 41 0 0 0-14-13c-1-1-13-7-18-8q-7 0-4-7 6-13 19-23l3-2h-4c-6 0-15 10-20 21l-5 8q-4-1-5-4c0-6-17-25-22-25q-3 0-2 2l1 1c3 0 14 13 17 18 3 8 3 9-3 11l-7 3-3 1c-6 0-21 15-27 27q-6 14-10 3c-4-8-5-10-11-17q-10-10-25-15l-8-3c-3-5 5-18 17-28l4-3h-4q-3-1-9 7c-6 6-12 16-12 18l-2 3q-3 4-5-3c-4-10-18-25-25-25h-3l3 2c16 10 27 31 17 31l-15 6q-16 9-24 26l-2 3-1 2-2 1q-2 1-6-7c-5-11-24-28-30-28-5 0-12-4-12-6-1-7 10-21 20-27l5-3h-4q-12 1-26 28-3 10-11-7a79 79 0 0 0-19-20l-5-1-4 1 3 1c10 5 24 21 24 28q-1 4-6 5l-4 2-4 1c-6 0-21 15-27 27q-6 18-12 1-8-14-17-21l-21-9-4-2c-5-5 6-21 20-30l6-4h-4l-6 2-8 6c-1 1-9 12-11 17q-6 15-11 1A57 57 0 0 0 47 1l-5-1h-4zm583 29-5 1a23 23 0 0 0-12 6l-5 3-6 5c-7 7-12 20-10 24l7 3q22 6 34 29l4 6c2 0 7-4 7-5a73 73 0 0 1 15-22l1-1 5-3c6-4 15-8 18-8 10 0 1-18-13-29-11-8-33-13-40-9m-120 3q-20 7-29 25-8 13 1 13l7 3 7 3c8 3 20 15 24 24q5 14 12-1c8-14 24-27 37-30q9-1 3-12a51 51 0 0 0-32-25c-2-3-23-2-30 0m-219 1-10 3c-8 0-29 24-28 32l16 7c2 0 12 7 16 10 3 3 9 11 11 16 5 9 6 9 12-2q11-19 33-28 13-3 7-10l-5-8-12-12c0-2-12-7-21-8-10-2-10-2-19 0m111 0q-23 6-34 26-5 9 2 11l16 7c6 3 17 15 20 22q7 18 13 2 6-12 12-16l11-9 14-6q11-2-1-17a52 52 0 0 0-53-20m-227 2a55 55 0 0 0-33 32q-3 4 5 7l7 3 4 1 2 1 2 1c6 2 16 13 22 24q6 12 11 0 12-24 34-31 12-3 8-9l-2-5-1-3a58 58 0 0 0-26-21c-5-2-26-3-33 0M59 41q-20 7-30 24-6 11 2 13l13 5q15 8 25 26 5 11 9 3l2-4 2-3c5-10 17-21 28-25 13-4 12-4 12-7q0-8-12-19a48 48 0 0 0-51-13m625 33c-6 1-8 2-17 6-8 4-23 22-23 28 0 1 6 5 8 5l10 4q16 9 25 25c5 10 6 10 11 0 7-14 24-29 32-29l4-1 4-2c5-2-2-17-13-25a50 50 0 0 0-41-11m-115 3q-13 2-24 13c-14 13-17 25-7 25l20 10c7 6 17 18 17 22q2 5 6 6l5-8c8-15 23-29 34-32q14-3-4-22a49 49 0 0 0-47-14m-225 1q-26 7-36 28-4 7 1 8l12 5c6 0 22 15 28 27 5 9 6 9 12-1q11-21 30-27c12-4 13-6 8-15q-8-14-20-20l-2-1-3-2-5-1c-1-1-22-2-25-1m112 0c-14 3-29 14-35 26-4 9-4 10 4 12q24 7 36 30c5 10 6 9 12-2q12-21 36-29l5-3a11 11 0 0 0-3-10 46 46 0 0 0-20-19c-10-5-26-7-35-5m-222 1-5 1c-10 1-25 13-31 25-4 9-4 10 5 12q24 8 35 30c5 9 6 9 11-1q13-23 35-30 8-1 7-7l-6-10c0-4-17-17-27-19-4-2-23-2-24-1m-114 2-4 1-3 1-7 4c-20 12-30 32-17 32 11 0 35 21 38 33 1 6 7 6 9 0 3-13 20-29 36-35q6-1 6-4c1-7-18-27-28-29l-5-2c-1-1-21-2-25-1m501 36c-16 6-32 23-32 34q-2 3 7 5a52 52 0 0 1 22 13q7 6 13 18 5 12 11-1 13-26 34-31 11-3 9-7a43 43 0 0 0-17-23l-9-5-8-4-13-1c-10 0-13 0-17 2m-108 1-4 1-4 1c-11 3-30 23-30 31q1 4 6 5l5 1 7 4c5 2 14 9 19 15l4 6 1 3q4 7 7 9l4-6a66 66 0 0 1 20-24l18-8q11-2 0-17a54 54 0 0 0-26-20c-4-1-21-2-27-1m-331 1a55 55 0 0 0-36 21l-2 4q-10 12 3 16a63 63 0 0 1 20 10c1 0 9 10 13 17 7 12 8 12 14 1 7-14 24-29 32-29 4 0 10-4 10-6s-5-13-8-16c-3-4-13-11-18-13l-23-6zm108 0-6 1-5 2-2 1c-5 0-20 15-24 24q-6 9 5 10c15 5 29 16 34 26l7 11 5-7q11-20 25-25l9-5 4-1q4 0 5-4l-5-10c0-5-19-19-29-22-6-2-21-2-23-1m106 1q-17 6-27 19-10 14-3 17c15 2 31 14 40 31q5 13 10 0 13-24 37-31 12-2-2-19c-6-8-8-9-20-15-8-4-27-5-35-2m-332 2-4 1-13 6c-3 0-15 13-18 19-4 9-3 11 10 15q20 6 30 26 5 13 8 7l2-3 1-2 2-4q10-18 33-27 8-3 7-5c1-8-13-24-26-30-9-3-28-5-32-3m616 35-21 11q-7 6-13 18-6 7 8 10c13 5 30 18 30 22l1 2 4 7q4 11 9-1 11-23 35-31 13-3 7-9a53 53 0 0 0-60-29m-105 1a55 55 0 0 0-29 13l-12 16q-7 8 6 11a60 60 0 0 1 36 32q4 8 6 5c2-1 6-8 6-10s8-12 14-18q7-7 19-11 10-2 5-10l-8-12c-8-11-30-19-43-16m-232 2q-26 7-35 29l-2 5 2 2 8 3c13 5 27 16 33 29q6 12 9 6l3-5q8-21 37-32 9-2 1-14a49 49 0 0 0-19-18l-3-2-5-2-5-1-3-1c-1-2-14-1-21 1m118-1-7 1q-6 1-13 6-9 4-15 13l-8 15 7 4q24 7 37 30 6 14 10 3c5-11 19-27 23-27l1-1 2-1 17-7c4-5-12-25-24-31-9-5-28-8-30-5m-230 2-5 2-4 1-2 1-1 1c-2 0-9 6-12 10l-5 5-4 7-3 7 2 2 5 2 5 1 3 2a65 65 0 0 1 25 21l4 6q5 11 8 4l12-18c0-4 18-15 26-16q8-2 6-8l-3-6c0-6-16-19-28-23-6-2-24-3-29-1m-111 2-11 3c-6 3-19 14-22 19-5 12-5 15 3 17l9 3q16 8 25 24c6 11 6 11 9 10q2 0 4-7a57 57 0 0 1 34-31c9-4 10-5 5-13a53 53 0 0 0-56-25m513 35q-27 3-41 27c-5 11-5 12 7 16 5 1 14 6 15 8l1 1q5 2 17 21 2 5 4 5 5-1 6-6l4-7q11-18 31-25c11-4 11-6 3-18a54 54 0 0 0-47-22m-118 2c-14 2-30 14-37 27q-5 11-2 11 31 9 42 31l4 7q4 2 6-2l1-3 3-5a70 70 0 0 1 26-24l4-2 5-1q5-1 6-5a55 55 0 0 0-25-29c-3-4-22-6-33-5m-221 1c-17 1-36 15-42 31q-3 7 6 8 25 8 38 33 3 10 11-6c4-8 15-19 22-22l11-5c9-3 10-5 3-15a54 54 0 0 0-49-24m111 0c-18 3-35 15-40 29q-5 9 10 12l3 2 3 1 3 2 2 1c4 0 15 13 20 23 5 9 6 9 12-1a54 54 0 0 1 30-28c4 0 11-4 11-7a51 51 0 0 0-54-34m-228 2a51 51 0 0 0-35 28c-2 2-2 10 0 11l3 1 3 1 15 7c5 2 14 13 18 21q4 8 7 7c3 0 3 0 7-8l10-16c1-3 13-10 22-13q11-4 9-6c0-11-20-30-34-33l-5-1c0-2-12-1-20 1m-109 1-5 1-5 1c-9 2-23 15-28 25q-7 12 5 13l14 7a50 50 0 0 1 15 14l4 5q8 16 10 8 15-28 35-34l4-1 2-1q9 1 2-11c-9-19-31-30-53-27m616 36q-25 5-36 27-5 11 7 12l7 3q18 7 27 27 5 13 11-3 10-20 34-29l7-3a16 16 0 0 0-4-12c0-4-12-14-21-18q-17-9-32-4m-339 3q-25 6-35 26-6 11 5 12l14 7 2 1 1 1c3 0 15 14 18 20 5 10 6 10 12 0a70 70 0 0 1 19-21c3-3 11-7 15-7q6-2 8-6c0-2-6-12-10-16a52 52 0 0 0-49-17m115 0a52 52 0 0 0-40 30q-2 6 6 8l14 6 17 15 3 5 4 7q3 9 8-1 12-24 37-32c8-3 8-4 5-11a52 52 0 0 0-54-27m107 0q-19 7-30 22-10 13 3 16l13 5c6 3 18 15 22 24q6 17 13 0 12-25 32-31 7-2 8-5l-6-12-6-6a51 51 0 0 0-49-13m-339 2q-12 5-21 14-18 21-3 23l9 4q18 9 27 27 2 7 6 6l5-9c7-14 21-26 34-28q10-2 5-13-7-12-25-22c-8-5-27-5-37-2m-106 1a56 56 0 0 0-35 25l-4 8c0 2 5 5 6 5l11 4 5 3 9 7c6 6 8 9 13 19q5 8 8 3l4-8q11-21 30-28 10-3 10-6a50 50 0 0 0-57-32m506 35a54 54 0 0 0-38 33q-3 4 10 9a58 58 0 0 1 32 29q2 5 6 6l3-4c9-19 27-35 39-35l5-2 2-3-3-6q-9-18-29-26c-4-1-23-2-27-1m-111 2c-18 2-41 21-41 34 0 2 5 5 7 5l13 5c6 3 22 19 22 23 0 2 5 9 7 9q3-1 5-6 1-5 11-17 8-8 24-14 9-4 8-6a33 33 0 0 0-9-16l-15-12q-14-6-32-5m-226 1-4 1-5 2c-4 0-15 8-18 11q-12 14-12 20 0 3 12 6c13 4 27 18 33 32q3 8 8-3l5-8c0-6 21-21 32-23q10-4 4-11l-4-6a54 54 0 0 0-21-17c-3-3-22-6-30-4m111 0q-25 7-35 25-6 11 1 12 27 7 40 34 3 13 11-5c5-10 20-25 26-25l3-1 7-3q7-1 1-13-8-14-28-23c-4-1-22-2-26-1m-227 2q-23 9-32 26-7 12 3 12l15 8c8 3 20 17 22 25q5 11 12-4a62 62 0 0 1 20-23c2-2 10-6 15-7q7-2 7-5a44 44 0 0 0-10-18l-16-11c-9-5-29-6-36-3m-107 1c-16 3-32 15-39 28q-3 10 3 10a59 59 0 0 1 37 29c6 12 7 12 12 2q13-23 37-32 8-1 3-11a52 52 0 0 0-53-26m614 35-3 1c-7 0-24 14-30 24q-8 12 5 14l6 3 4 1 2 1 8 5c2 0 13 14 13 17 0 2 4 9 6 9q1 3 6-6c4-9 13-19 19-23l18-8 4-2q3-2 0-9a40 40 0 0 0-15-18l-9-6c-6-3-33-6-34-3m-220 2q-19 4-31 16a45 45 0 0 0-11 17q-1 6 9 7c14 3 32 20 37 35q1 8 11-9a59 59 0 0 1 36-28c9-3-6-25-21-33l-11-4c-1-1-15-2-19-1m109 0-4 1-4 1c-8 2-19 11-25 20-7 12-7 15 3 17 9 3 9 3 17 9q11 6 18 22c6 10 7 10 11 0q13-26 36-33l5-3c1-10-13-26-29-32-5-2-22-3-28-2m-327 1-8 1q-14 2-26 13l-10 12q-5 8-2 12l9 3c7 2 18 9 23 14l7 11 2 3 2 4q4 7 6 1c2-7 18-25 25-29q11-6 15-6 7-1 5-8l-3-6a53 53 0 0 0-45-25m98 1c-9 2-22 10-22 12l-4 5c-4 4-9 14-9 16q1 3 7 5a54 54 0 0 1 20 10q12 9 18 22 4 12 8 1c8-17 18-27 38-33 7-3 7-4 4-12a48 48 0 0 0-27-25l-4-1-3-1c-1-2-22-1-26 1m-215 1q-29 5-41 29l-3 6 3 3 6 3c12 2 27 14 34 29q7 13 10 4c6-16 21-31 39-36q11-5-7-23a49 49 0 0 0-41-15m501 37c-16 3-33 18-37 32q-3 7 5 9l14 6 2 1 5 4q8 7 14 19 7 14 13-2a61 61 0 0 1 21-24l14-6 3-1c9 0 3-15-13-30-7-6-29-11-41-8m-106 1-5 1a50 50 0 0 0-41 34q1 4 5 5a55 55 0 0 1 19 9 62 62 0 0 1 20 23q5 9 10 0 12-24 35-31 12-4 8-10a54 54 0 0 0-15-20l-14-8c-6-2-21-5-22-3m-230 2-5 1-3 1a55 55 0 0 0-31 29q-5 6 10 10 25 9 34 31 3 7 8 0l4-9a55 55 0 0 1 32-24l2-1q12-2-5-23a51 51 0 0 0-46-15m111 0c-9 1-22 8-28 16-5 4-11 15-11 17q1 4 6 5c14 3 29 16 36 30 6 11 7 11 13 0q11-23 39-31c5-1 0-14-10-23a56 56 0 0 0-45-14m-227 2c-17 5-33 20-35 33q-2 5 7 7 23 8 35 30 6 13 12-1c5-14 20-27 33-30q14-3 7-13c-5-11-20-23-31-26-7-2-23-2-28 0m-116 2c-16 7-30 20-32 32q-1 6 9 7c12 3 26 16 32 28q8 16 11 4c8-16 25-32 34-32l3-1 3-1c8 0 5-11-8-25a59 59 0 0 0-21-12c-3-3-25-2-31 0m625 34-8 3q-18 6-29 26-5 7 6 10a56 56 0 0 1 36 31q0 4 4 5 3 1 8-10 10-19 32-27 9-2 8-6c0-2-7-14-10-17l-15-10c-7-5-24-7-32-5m-110 2q-13 2-21 8c-15 10-26 30-17 30a64 64 0 0 1 32 21c3 3 9 13 9 15l2 2q5 2 8-6c4-13 20-29 35-33l5-3a13 13 0 0 0-3-10c0-4-14-17-21-20q-15-6-29-4m-228 1-5 1c-8 2-20 9-27 19-4 5-7 13-7 15q1 3 10 5 21 6 35 31 4 7 9-1c3-13 20-27 36-31q10-3 5-10-12-22-33-28c-6-2-23-2-23-1m109 1c-16 5-24 12-32 24q-8 10 1 13l6 2 12 5a61 61 0 0 1 23 27q4 7 8-2 11-23 35-32c9-3 10-5 4-14a53 53 0 0 0-57-23m-219 0q-14 2-28 14c-3 2-11 15-12 18q-2 5 9 7 24 9 35 31 4 10 9-2a55 55 0 0 1 24-25l9-4c3 0 10-3 10-5l-4-12-17-16-5-2q-4-3-12-3c-11-2-14-2-18-1m-115 3-10 3c-5 0-21 15-25 23q-6 11 5 12c13 3 28 16 34 29q8 16 11 5l2-6c0-1 10-15 14-18 6-5 9-7 23-13q6-1 3-8a55 55 0 0 0-28-25c-7-4-21-5-29-2m643 87-8 12q-1 1 1 1c3 0 11-11 11-14q0-3-4 1"
        mask="url(#16282281824-posters-1720560193700-horizontal-mask)" itemprop="bold" fill-opacity="0.90"
        fill-rule="evenodd" stroke="none" fill="url(#16282281824-posters-1720560193700-vertical-bold)"></path>
    </pattern>
    <rect id="16282281824-posters-1720560193700-pattern-render" fill="url(#16282281824-posters-1720560193700-pattern)"
      width="100%" height="100%"></rect>
  </defs>
  <radialGradient id="lightbar" cx="50%" cy="200%" fy="0" r="201%">
    <stop offset="0%" style="stop-color: rgb(255, 255, 255); stop-opacity: 0.1;"></stop>
    <stop offset="10%" style="stop-color: rgb(0, 0, 0); stop-opacity: 0.1;"></stop>
    <stop offset="30%" style="stop-color: rgb(0, 0, 0); stop-opacity: 0.3;"></stop>
    <stop offset="90%" style="stop-color: rgb(0, 0, 0); stop-opacity: 0.55;"></stop>
    <stop offset="100%" style="stop-color: rgb(0, 0, 0); stop-opacity: 0.6;"></stop>
  </radialGradient>
  <g class="radial">
    <radialGradient id="16282281824-posters-1720560193700-radial" gradientUnits="userSpaceOnUse">
      <stop itemprop="radial" stop-color="#cdcccb" offset="0%"></stop>
      <stop itemprop="radial" stop-color="#cdcccb" offset="15%"></stop>
      <stop itemprop="radial" stop-color="#ceccca" offset="30%"></stop>
      <stop itemprop="radial" stop-color="#cdcccb" offset="45%"></stop>
      <stop itemprop="radial" stop-color="#cdcccb" offset="60%"></stop>
      <stop itemprop="radial" stop-color="#cbcac8" offset="75%"></stop>
      <stop itemprop="radial" stop-color="#cdcccb" offset="90%"></stop>
    </radialGradient>
    <radialGradient id="16282281824-posters-1720560193700-radial-background" gradientUnits="userSpaceOnUse">
      <stop stop-color="#d3cdc5" offset="0%"></stop>
      <stop stop-color="#d3cfc5" offset="15%"></stop>
      <stop stop-color="#d3cec5" offset="30%"></stop>
      <stop stop-color="#d3cfc5" offset="45%"></stop>
      <stop stop-color="#d3cfc5" offset="60%"></stop>
      <stop stop-color="#d3cfc5" offset="75%"></stop>
      <stop stop-color="#d3cfc5" offset="90%"></stop>
    </radialGradient>
    <radialGradient id="16282281824-posters-1720560193700-radial-light" gradientUnits="userSpaceOnUse">
      <stop stop-color="#9b9997" offset="0%"></stop>
      <stop stop-color="#9b9a97" offset="15%"></stop>
      <stop stop-color="#9c9a96" offset="30%"></stop>
      <stop stop-color="#9b9a97" offset="45%"></stop>
      <stop stop-color="#9b9a97" offset="60%"></stop>
      <stop stop-color="#9b9a97" offset="75%"></stop>
      <stop stop-color="#9b9a97" offset="90%"></stop>
    </radialGradient>
    <radialGradient id="16282281824-posters-1720560193700-radial-regular" gradientUnits="userSpaceOnUse">
      <stop stop-color="#82807d" offset="0%"></stop>
      <stop stop-color="#82817d" offset="15%"></stop>
      <stop stop-color="#83817c" offset="30%"></stop>
      <stop stop-color="#82817d" offset="45%"></stop>
      <stop stop-color="#82817d" offset="60%"></stop>
      <stop stop-color="#82817d" offset="75%"></stop>
      <stop stop-color="#82817d" offset="90%"></stop>
    </radialGradient>
    <radialGradient id="16282281824-posters-1720560193700-radial-medium" gradientUnits="userSpaceOnUse">
      <stop stop-color="#514f4d" offset="0%"></stop>
      <stop stop-color="#51504d" offset="15%"></stop>
      <stop stop-color="#51504d" offset="30%"></stop>
      <stop stop-color="#51504d" offset="45%"></stop>
      <stop stop-color="#51504d" offset="60%"></stop>
      <stop stop-color="#51504d" offset="75%"></stop>
      <stop stop-color="#51504d" offset="90%"></stop>
    </radialGradient>
    <radialGradient id="16282281824-posters-1720560193700-radial-bold" gradientUnits="userSpaceOnUse">
      <stop stop-color="#2f2e2d" offset="0%"></stop>
      <stop stop-color="#2f2e2d" offset="15%"></stop>
      <stop stop-color="#2f2e2d" offset="30%"></stop>
      <stop stop-color="#2f2e2d" offset="45%"></stop>
      <stop stop-color="#2f2e2d" offset="60%"></stop>
      <stop stop-color="#2f2e2d" offset="75%"></stop>
      <stop stop-color="#2f2e2d" offset="90%"></stop>
    </radialGradient>
  </g>
  <g class="vertical">
    <linearGradient id="16282281824-posters-1720560193700-vertical" gradientUnits="userSpaceOnUse" x1="0" x2="0" y1="0"
      y2="100%">
      <stop itemprop="vertical" stop-color="#cdcccb" offset="0%"></stop>
      <stop itemprop="vertical" stop-color="#cdcccb" offset="15%"></stop>
      <stop itemprop="vertical" stop-color="#cdcccb" offset="30%"></stop>
      <stop itemprop="vertical" stop-color="#cdcccb" offset="45%"></stop>
      <stop itemprop="vertical" stop-color="#cdcccb" offset="60%"></stop>
      <stop itemprop="vertical" stop-color="#cbcac8" offset="75%"></stop>
      <stop itemprop="vertical" stop-color="#cdcccb" offset="90%"></stop>
    </linearGradient>
    <linearGradient id="16282281824-posters-1720560193700-vertical-background" gradientUnits="userSpaceOnUse" x1="0"
      x2="0" y1="0" y2="100%">
      <stop stop-color="#cdcccb" offset="0%"></stop>
      <stop stop-color="#cdcccb" offset="15%"></stop>
      <stop stop-color="#cdcccb" offset="30%"></stop>
      <stop stop-color="#cdcccb" offset="45%"></stop>
      <stop stop-color="#cdcccb" offset="60%"></stop>
      <stop stop-color="#cdcccb" offset="75%"></stop>
      <stop stop-color="#cdcccb" offset="90%"></stop>
    </linearGradient>
    <linearGradient id="16282281824-posters-1720560193700-vertical-light" gradientUnits="userSpaceOnUse" x1="0" x2="0"
      y1="0" y2="100%">
      <stop stop-color="#ae9d84" offset="0%"></stop>
      <stop stop-color="#ae9d84" offset="15%"></stop>
      <stop stop-color="#aea284" offset="30%"></stop>
      <stop stop-color="#aea284" offset="45%"></stop>
      <stop stop-color="#aea284" offset="60%"></stop>
      <stop stop-color="#aea284" offset="75%"></stop>
      <stop stop-color="#aea284" offset="90%"></stop>
    </linearGradient>
    <linearGradient id="16282281824-posters-1720560193700-vertical-regular" gradientUnits="userSpaceOnUse" x1="0" x2="0"
      y1="0" y2="100%">
      <stop stop-color="#82807d" offset="0%"></stop>
      <stop stop-color="#82807d" offset="15%"></stop>
      <stop stop-color="#82817d" offset="30%"></stop>
      <stop stop-color="#82817d" offset="45%"></stop>
      <stop stop-color="#82817d" offset="60%"></stop>
      <stop stop-color="#82817d" offset="75%"></stop>
      <stop stop-color="#82817d" offset="90%"></stop>
    </linearGradient>
    <linearGradient id="16282281824-posters-1720560193700-vertical-medium" gradientUnits="userSpaceOnUse" x1="0" x2="0"
      y1="0" y2="100%">
      <stop stop-color="#514f4d" offset="0%"></stop>
      <stop stop-color="#514f4d" offset="15%"></stop>
      <stop stop-color="#51504d" offset="30%"></stop>
      <stop stop-color="#51504d" offset="45%"></stop>
      <stop stop-color="#51504d" offset="60%"></stop>
      <stop stop-color="#51504d" offset="75%"></stop>
      <stop stop-color="#51504d" offset="90%"></stop>
    </linearGradient>
    <linearGradient id="16282281824-posters-1720560193700-vertical-bold" x1="0" x2="0" y1="0" y2="100%">
      <stop stop-color="#2f2e2d" offset="0%"></stop>
      <stop stop-color="#2f2e2d" offset="15%"></stop>
      <stop stop-color="#2f2e2d" offset="30%"></stop>
      <stop stop-color="#2f2e2d" offset="45%"></stop>
      <stop stop-color="#2f2e2d" offset="60%"></stop>
      <stop stop-color="#2f2e2d" offset="75%"></stop>
      <stop stop-color="#2f2e2d" offset="90%"></stop>
    </linearGradient>
  </g>
  <g class="horizontal">
    <linearGradient id="16282281824-posters-1720560193700-horizontal" x1="0" x2="100%" y1="0" y2="0"
      gradientUnits="userSpaceOnUse">
      <stop itemprop="horizontal" stop-color="#cdcccb" offset="0%"></stop>
      <stop itemprop="horizontal" stop-color="#cdcccb" offset="15%"></stop>
      <stop itemprop="horizontal" stop-color="#cdcccb" offset="30%"></stop>
      <stop itemprop="horizontal" stop-color="#cdcccb" offset="45%"></stop>
      <stop itemprop="horizontal" stop-color="#cdcccb" offset="60%"></stop>
      <stop itemprop="horizontal" stop-color="#cdcccb" offset="75%"></stop>
      <stop itemprop="horizontal" stop-color="#cdcccb" offset="90%"></stop>
    </linearGradient>
    <linearGradient id="16282281824-posters-1720560193700-horizontal-background" gradientUnits="userSpaceOnUse" x1="0"
      x2="100%" y1="0" y2="0">
      <stop stop-color="#cdcccb" offset="0%"></stop>
      <stop stop-color="#cdcccb" offset="15%"></stop>
      <stop stop-color="#cdcccb" offset="30%"></stop>
      <stop stop-color="#cdcccb" offset="45%"></stop>
      <stop stop-color="#cdcccb" offset="60%"></stop>
      <stop stop-color="#cdcccb" offset="75%"></stop>
      <stop stop-color="#cdcccb" offset="90%"></stop>
    </linearGradient>
    <linearGradient id="16282281824-posters-1720560193700-horizontal-light" gradientUnits="userSpaceOnUse" x1="0"
      x2="100%" y1="0" y2="0">
      <stop stop-color="#9b9997" offset="0%"></stop>
      <stop stop-color="#9b9a97" offset="15%"></stop>
      <stop stop-color="#9b9a97" offset="30%"></stop>
      <stop stop-color="#9b9997" offset="45%"></stop>
      <stop stop-color="#9b9997" offset="60%"></stop>
      <stop stop-color="#9b9a97" offset="75%"></stop>
      <stop stop-color="#9b9997" offset="90%"></stop>
    </linearGradient>
    <linearGradient id="16282281824-posters-1720560193700-horizontal-regular" gradientUnits="userSpaceOnUse" x1="0"
      x2="100%" y1="0" y2="0">
      <stop stop-color="#968469" offset="0%"></stop>
      <stop stop-color="#968969" offset="15%"></stop>
      <stop stop-color="#968969" offset="30%"></stop>
      <stop stop-color="#968469" offset="45%"></stop>
      <stop stop-color="#968469" offset="60%"></stop>
      <stop stop-color="#968969" offset="75%"></stop>
      <stop stop-color="#968469" offset="90%"></stop>
    </linearGradient>
    <linearGradient id="16282281824-posters-1720560193700-horizontal-medium" gradientUnits="userSpaceOnUse" x1="0"
      x2="100%" y1="0" y2="0">
      <stop stop-color="#5d5241" offset="0%"></stop>
      <stop stop-color="#5d5541" offset="15%"></stop>
      <stop stop-color="#5d5541" offset="30%"></stop>
      <stop stop-color="#5d5241" offset="45%"></stop>
      <stop stop-color="#5d5241" offset="60%"></stop>
      <stop stop-color="#5d5541" offset="75%"></stop>
      <stop stop-color="#5d5241" offset="90%"></stop>
    </linearGradient>
    <linearGradient id="16282281824-posters-1720560193700-horizontal-bold" gradientUnits="userSpaceOnUse" x1="0"
      x2="100%" y1="0" y2="0">
      <stop stop-color="#2f2e2d" offset="0%"></stop>
      <stop stop-color="#2f2e2d" offset="15%"></stop>
      <stop stop-color="#2f2e2d" offset="30%"></stop>
      <stop stop-color="#2f2e2d" offset="45%"></stop>
      <stop stop-color="#2f2e2d" offset="60%"></stop>
      <stop stop-color="#2f2e2d" offset="75%"></stop>
      <stop stop-color="#2f2e2d" offset="90%"></stop>
    </linearGradient>
  </g>
  <g class="masks">
    <mask id="16282281824-posters-1720560193700-pattern-mask" maskUnits="userSpaceOnUse"
      maskContentUnits="userSpaceOnUse">
      <pattern id="pattern" x="0" y="0" width=".0133" height=".0144" viewBox="0 0 23.07 40">
        <path
          d="M17.62 0l-6.07 10.5m2.74 4.76L8.22 4.75m-5.48 0h12.13M.01 0h23.07M6.07 20L0 9.5m2.74-4.75l-6.07 10.5m-5.48 0H3.33m8.2 4.75L0 .02-11.54 20m40.68 0L23.07 9.5m2.74-4.75l-6.06 10.5m-5.49 0H26.4M34.6 20L23.08.02 11.53 20m-5.46 0L0 30.51m2.74 4.75l-6.07-10.5m-5.48 0H3.33m8.2-4.75L0 40l-11.54-19.98zM17.6 40l-6.06-10.5m2.74-4.76L8.2 35.25m-5.48 0h12.13M0 40h23.07L11.54 20.01m17.6 0l-6.07 10.5m2.74 4.75l-6.06-10.5m-5.49 0H26.4M11.53 20h23.08L23.07 40"
          stroke-linecap="round" stroke-width="3.5" stroke="white"
          fill="url(#16282281824-posters-1720560193700-horizontal-background)"></path>
      </pattern>
      <rect width="100%" height="100%" fill="url(#pattern)"></rect>
    </mask>
    <mask id="16282281824-posters-1720560193700-horizontal-mask" maskUnits="userSpaceOnUse"
      maskContentUnits="userSpaceOnUse">
      <rect width="100%" height="100%" fill="url(#16282281824-posters-1720560193700-horizontal-background)"></rect>
    </mask>
    <mask id="16282281824-posters-1720560193700-radial-mask" maskUnits="userSpaceOnUse"
      maskContentUnits="userSpaceOnUse">
      <rect width="100%" height="100%" fill="url(#16282281824-posters-1720560193700-radial-background)"></rect>
    </mask>
    <mask id="16282281824-posters-1720560193700-vertical-mask" maskUnits="userSpaceOnUse"
      maskContentUnits="userSpaceOnUse">
      <rect width="100%" height="100%" fill="url(#16282281824-posters-1720560193700-vertical-background)"></rect>
    </mask>
  </g>
  <use href="#16282281824-posters-1720560193700-pattern-render"></use>
  <g>
    <use href="#16282281824-posters-1720560193700-background"></use>
    <use href="#16282281824-posters-1720560193700-light"></use>
    <use href="#16282281824-posters-1720560193700-regular"></use>
    <use href="#16282281824-posters-1720560193700-medium"></use>
    <use href="#16282281824-posters-1720560193700-bold"></use>
  </g>
  <g itemprop="animation">
    <animate href="#16282281824-posters-1720560193700-light" attributeName="stroke-opacity" repeatCount="indefinite"
      dur="5s" values="0.9;0.0;0.9"></animate>
    <animate href="#16282281824-posters-1720560193700-regular" attributeName="stroke-opacity" repeatCount="indefinite"
      dur="4s" values="0.9;0;0.9"></animate>
    <animate href="#16282281824-posters-1720560193700-medium" attributeName="stroke-opacity" repeatCount="indefinite"
      dur="5s" values="0.9;0;0.9"></animate>
    <animate href="#16282281824-posters-1720560193700-bold" attributeName="stroke-opacity" repeatCount="indefinite"
      dur="3s" values="0.9;0;0.9"></animate>
    <animate href="#16282281824-posters-1720560193700-regular" attributeName="fill-opacity" repeatCount="indefinite"
      dur="8s" values="0.9;0.75;0.95;0.8;0.9;"></animate>
    <animate href="#16282281824-posters-1720560193700-radial-background" attributeName="cx" repeatCount="indefinite"
      dur="34s" values="0%;33%;100%;0%;100%;0%;"></animate>
    <animate href="#16282281824-posters-1720560193700-radial-background" attributeName="cy" repeatCount="indefinite"
      dur="55s" values="0%;100%;33%;100%;66%;0%"></animate>
    <animate href="#16282281824-posters-1720560193700-vertical-light" attributeName="x1" repeatCount="indefinite"
      dur="55s" values="0%;33%;100%;0%;133%;0%;"></animate>
    <animate href="#16282281824-posters-1720560193700-vertical-light" attributeName="y1" repeatCount="indefinite"
      dur="86s" values="0%;100%;33%;100%;66%;0%"></animate>
    <animate href="#16282281824-posters-1720560193700-horizontal-regular" attributeName="x1" repeatCount="indefinite"
      dur="34s" values="0%;100%;66%;0%;33%;133%;0%"></animate>
    <animate href="#16282281824-posters-1720560193700-horizontal-regular" attributeName="y1" repeatCount="indefinite"
      dur="55s" values="0%;66%;100%;33%;100%;66%;0%"></animate>
    <animate href="#16282281824-posters-1720560193700-vertical-medium" attributeName="x1" repeatCount="indefinite"
      dur="34s" values="0%;100%;66%;0%;33%;133%;0%"></animate>
    <animate href="#16282281824-posters-1720560193700-vertical-medium" attributeName="y1" repeatCount="indefinite"
      dur="55s" values="0%;66%;100%;33%;100%;66%;0%"></animate>
    <animate href="#16282281824-posters-1720560193700-vertical-bold" attributeName="x1" repeatCount="indefinite"
      dur="34s" values="0%;100%;66%;0%;33%;133%;0%"></animate>
    <animate href="#16282281824-posters-1720560193700-vertical-bold" attributeName="y1" repeatCount="indefinite"
      dur="55s" values="0%;66%;100%;33%;100%;66%;0%"></animate>
  </g>
</svg>
