<svg id="16282281824-posters-1720559175854" itemscope="" itemtype="/posters"
  itemid="/+16282281824/posters/1720559175854" viewBox="0 0 769 512" preserveAspectRatio="xMidYMid meet" tabindex="0"
  class="animate landscape" xmlns="http://www.w3.org/2000/svg">
  <!---->
  <defs class="graphic">
    <pattern id="16282281824-posters-1720559175854-pattern" width="769" height="512" viewBox="0 0 769 512"
      patternUnits="userSpaceOnUse" preserveAspectRatio="xMidYMid meet">
      <rect itemprop="background" width="769" height="512" tabindex="-1"
        id="16282281824-posters-1720559175854-background" fill-opacity="1"
        fill="url(#16282281824-posters-1720559175854-radial-background)"></rect>
      <!---->
      <path id="16282281824-posters-1720559175854-light"
        d="M77 2c1 4 9 4 10 0q1-2-5-2-5 0-5 2m61 1c-5 4-3 10 3 9 3-1 9-7 9-10s-7-3-12 1m91-1q2 6 6 2 4-3-2-4-5 0-4 2m38-1c-3 4-2 11 3 11 3 0 7-8 4-11zm56 0q-1 4 3 5 4 0 5-4c0-3-7-3-8-1m25 0q-2 4 1 8 4 2 7-5 1-5-3-4zm120 3q-2 4 1 6c5 3 11-2 8-7q-5-5-9 1m200-2c-2 0-1 5 1 6q5 2 5-3-1-5-6-3M217 5q-4 7 3 8c5 0 7-7 3-9q-3-2-6 1m219 0q-4 6 1 8c6 0 9-7 4-9-3-1-2-1-5 1m56-1q-4 4 6 9t12 2V9l-4-2c-4-3-12-5-14-3m197 2q-1 7 5 7 5-1 3-8c-1-3-7-3-8 1m31-1c-2 5 3 12 7 9q4-4 2-8-5-6-9-1m-66 2q-3 4 1 9 5 6 8 0c1-9-5-16-9-9m103-1v4c1 4 7 4 8 0 0-4-5-8-8-4M25 6c-4 1-3 9 1 10q3 3 5 0c5-5 0-12-6-10m79 0c-4 2-2 9 4 11q8 2 6-6-3-8-10-5m84 0q-3 3 2 8c4 5 13 3 13-3 0-4-12-8-15-5m56 1c-3 4 1 10 6 9q6-3 0-8-4-3-6-1M74 9c-6 5-6 14 0 14s11-13 5-15c-3-1-2-1-5 1m489-1c-6 3 4 13 11 11 4-2 2-9-3-10l-4-1zm177 1a4 4 0 1 0 6 4 4 4 0 0 0-6-4m-376 1c-4 6 0 17 5 14 3-1 6-10 4-13-1-2-7-3-9-1m-66 2q-3 6-1 12c3 7 12 3 11-5-1-7-7-10-10-7m-149 3a4 4 0 1 0 6 6 4 4 0 0 0-6-6m24 1q-3 4-1 7 6 2 7-6-2-5-6-1m226 0q-4 7 1 9 4 1 7-2c3-4-4-10-8-7m21 4q-1 4 3 5 4 0 4-4c-1-3-6-4-7-1m163-1q-5 6 4 8 6-1 2-7-4-3-6-1M6 21c-4 3 1 8 6 7q5-3 1-7-3-3-7 0m606-1q-5 2 0 8 5 5 8 0a6 6 0 0 0-4-8zM36 25q-5 10 5 8 3-1 3-5-2-10-8-3m400-2q-7 3 1 10c9 7 15 1 7-7q-5-5-8-3m99 1q-3 2 0 5a4 4 0 1 0 0-5m32 0q-4 4 3 6l3-1 1-2c1-4-5-6-7-3M70 26c-6 5 0 14 7 10a6 6 0 0 0-7-10m175 0v8l2 4q3 6 8 0v-6l-2-4c0-3-6-4-8-2m160 0c-5 7 0 16 7 11q2-2 2-6-3-9-9-5m51 0c-4 3 0 11 4 8 3-2 2-9-1-9zm20 1q-3 2 0 4 2 3 4 1c3-4-1-9-4-5m-278 1q-2 2-2 0a2 2 0 1 0-2 3v7q-1 8 2 9 8 8 8-9 2-10-1-10-2-3-5 0m-98 2q-6 11 1 12c6 1 10-9 6-13q-4-5-7 1m573 0q-5 3-2 7c1 2 8 3 10 1 5-7-1-13-8-8m-323 1a4 4 0 1 0 7 3 4 4 0 0 0-7-3m374 1q-3 1-1 4a4 4 0 1 0 1-4m-344 1q-4 6 3 6c4-2 2-8-2-8zM12 35q-5 7 4 9c6 0 8-7 3-10q-4-5-7 1m214-2q-8 10-2 13c5 2 11-6 10-12-1-2-7-3-8-1m42 1q-5 6 1 11l3 1c2-1 6-8 6-10 0-4-6-5-10-2m-122 1q-4 5 1 7c5 3 10-3 5-7q-3-3-6 0m498-1a5 5 0 1 0 6 1q-2-3-6-1m-338 3c-3 5 4 10 8 5q2-2-1-5-4-4-7 0m246 1q-4 3 0 7 3 3 7-2c4-4-3-10-7-5m-390 0a6 6 0 1 0 10 5c0-4-7-8-10-5m169 1a5 5 0 1 0 5-1c-3-1-2-1-5 1m290 0c-2 2-1 8 2 8a4 4 0 1 0-2-8m107 1c-4 4 0 9 5 7q4-3 1-7-4-4-6 0m-194 2q-3 6 3 8l3-3q0-8-6-5m-284 2q-3 3 2 7 5 2 6-3-1-6-8-4M82 47q-3 3 0 7 3 3 0 4-3 6 5 7 4 1 5-2 0-5-3-6v-2c4-5-1-12-7-8m378 2c-4 5-1 14 4 14q5-1 6-9c0-8-6-11-10-5m-278-1q-3 6 4 7 6-2 2-6-4-3-6-1m210 0c-1 2 0 11 2 11 5 2 8-4 4-9q-4-5-6-2m-267 1q-2 3 1 6c3 3 7-2 4-6zm172 1q-3 5-2 11c2 2 9 1 11-1 6-6-3-15-9-10m300-1q-4 4 0 7a4 4 0 1 0 0-7m-231 2c-1 2 1 7 3 7 4 2 8-3 5-7-2-3-8-3-8 0m182 0q-4 6 0 8c4 0 7-6 4-9q-2-2-4 1M65 53c-2 2-3 9-2 11 3 7 11-1 9-8q-3-6-7-3m-41 1c-2 1-1 16 2 19q10 8 7-10-3-13-9-9m638 0q-5 4 0 9 3 5 8-1l3-3-2-2-6-4zm35 0q-3 2-1 6h7l2 1a4 4 0 0 0 6 1q3-1 2-6-1-3-6-2zm-276 2q-4 4 3 10 5 2 6-4c0-5-6-8-9-6m62 3q-4 4-1 6c3 4 9 0 9-5q-3-5-8-1m250-1c-5 4-3 17 3 17q5-2 6-8c0-6-5-12-9-9m-403 2q-3 4 4 5a3 3 0 1 0 0-7zm-215 0c-6 1-5 13 1 12q7-2 4-9-2-4-5-3m67 1q-1 4 2 6a4 4 0 1 0-2-6m329 2v4q4 3 7-1c1-4-5-7-7-3m42 0q-2 5 4 5 3 0 2-5-3-4-6 0m-293 2q-5 9 4 11 4 0 4-6-2-10-8-5m27-1q-2 5 3 6 4-1 3-6zm155 0q-2 3 1 7l2 2-2 2a5 5 0 1 0 6-1q-3-1-1-3c5-5-1-11-6-7m189 2c-5 4 2 9 9 8q5-2-1-7-5-5-8-1m52 1q-6 4-4 8 5 3 9 0 7-9-5-8m-520 2q-4 3 0 5c6 4 12-1 7-5q-3-4-7 0m156 1c-4 2-1 9 3 9q4-1 5-5-2-6-8-4m25 4c-5 4-3 10 2 8 4-1 8-7 6-9q-2-3-8 1m19-2a5 5 0 1 0 4 9 5 5 0 0 0-4-9m389 0q-5 6 2 7 7-1 3-6-3-3-5-1m-556 2c-4 3-1 10 3 10q5-1 6-7-4-7-9-3m356 0q-5 4-1 9c5 3 16-1 15-6q-4-8-14-3m110-1q-2 3 1 5 6 3 4-4-2-3-5-1m31 1q-3 4 1 9c5 4 9-3 5-8q-3-6-6-1M43 77c-5 4 0 9 5 7l2-3c0-3-5-6-7-4m684 1q-3 3 0 7 6 6 7-4-1-7-7-3M1 78v7q5 1 9-1c4-4-3-9-9-6m131 4c-2 6 11 15 13 9q2-2-3-7-7-8-10-2m25 0c-4 3-2 11 2 11q5-1 6-6-2-10-8-5m138 0q-5 4-1 7c6 6 14-1 8-7q-3-4-7 0m-67 1q-6 2-2 7 2 5 9 1c10-5 4-13-7-8m295 0q-3 6 5 7 8-1 3-7-4-4-8 0M60 85q-1 4 1 6a5 5 0 1 0-1-6m125 0c-4 5 8 16 13 12q3-4-3-9-7-6-10-3m275 1q-1 4 4 5 4-1 3-5c-1-3-6-3-7 0m-76 1q-3 2 0 4 1 3 4 0 3-2 1-4-2-3-5 0m118 0q-4 4 2 6a4 4 0 1 0-2-6m-239 2q-1 4 6 5c8 2 11-3 3-6q-9-5-9 1m-91-1v6q6 1 5-5-2-3-5-1m454 2q-4 3 1 8t7-1q-2-9-8-7m20 0c-2 4 4 12 8 12 5 0 7-6 4-10-2-3-11-4-12-2m49 0q-3 5 3 6 6 0 2-5-2-3-5-1m-386 2c-6 3-2 10 6 10s9-7 1-11q-4-2-7 1m99-1-2 4a4 4 0 1 0 2-4m-280 2q-3 2-1 8l2 4c2 5 7 1 7-5q-2-12-8-7m116-1-1 4q-1 4 3 3 4 0 4-4-2-4-6-3m87 4q-4 3 1 7a5 5 0 1 0-1-7M16 96l-2 3-1 1-2 5q-1 6 2 6 10 2 11-9-1-10-8-6m42 1q-5 4-2 8 4 5 9 0c7-6-1-13-7-8m41-1q-5 4-2 9c3 3 10 4 11 1 2-4-5-13-9-10m455 2q-3 1-1 4a4 4 0 1 0 1-4m-402 1q-6 5-1 9 8 3 9-6l-5-5zm329-1q-2 5 3 7 9 0 4-6-3-3-7-1m-120 3q-8 6 2 8 10 4 10-3c2-8-5-11-12-5m54 1a5 5 0 1 0 8 0c-2-3-8-3-8 0m261-1c-3 3 2 13 6 13 5 0 7-8 3-12q-6-3-9-1m56 1q-9 5-4 9c4 4 12 1 12-4 0-2-5-7-6-6zm-531 3q-4 6 4 8 9-2 2-8-4-3-6 0m307 0a4 4 0 1 0 5 6 4 4 0 0 0-5-6m-65 1-2 4q2 5 6 6 4-1 6-6c0-6-6-8-10-4m80 0q-4 5 0 8 6 4 8-3c2-5-5-9-8-5m-268 0c-5 3 1 10 5 8 3-1 2-7-1-8zm14 3c-3 2-2 7 2 7l4-4q-1-4-6-3m22 2q-4 4 0 6c3 3 9-4 6-8q-3-3-6 2m323-1q-4 5 0 9t7-2c3-5-3-12-7-7m-541 0-1 3c0 4 6 6 10 3 5-3-2-9-9-6m99 2q-4 4 0 7 4 5 8-3c3-5-4-9-8-4m411 0q-3 5 2 8c5 2 10-6 7-10-2-2-8-1-9 2m-540 3q-6 5 0 12 5 6 8 0c6-9-1-19-8-12m147-2c-3 3 3 12 8 12q6-1 0-9-5-6-8-3m135 1c-5 5 4 11 8 6q4-2-1-6-4-4-7 0m140 0c-5 3-1 12 5 11 4-1 4-7 0-10q-3-3-5-1m-363 1v6l1 2q1 5 4 3c3-2 4-10 2-11zm10 1q-2 7 6 5 4-2 0-5-4-4-6 0m116-1a5 5 0 1 0 7 7 5 5 0 0 0-7-7m397 0-1 4a4 4 0 1 0 1-3m-471 0q-3 2-1 6 4 4 6 0 2-6-5-6m249 0q-5 4 1 6 5-1 4-5 0-3-5-1m14 0q-2 5 3 6a4 4 0 1 0-3-6m238 1q-4 2 2 8 4 6 7 2 4-2-2-8-5-6-7-2m95 0-5 4q-2 4-4 1c-2-3-8-2-8 2 0 2 5 5 6 3q1-1 3 2c2 5 11 5 11 0l2-3c7-5 2-13-5-9m-503 2q-1 4 4 5c4 0 4-6 0-7q-3 0-4 2m54-1q-3 4 2 7c5 4 12 1 9-4q-5-6-11-3m389 0q-3 4 1 6 6 1 5-5-2-3-6-1m-341 2q-4 6 3 5 3-2 1-6-2-2-4 1m99-1c-3 4-1 11 4 12 5 2 7-6 3-11q-4-3-7-1m-429 1q-5 6 2 8 4 0 4-3 0-5-4-6zM0 133c0 11 0 12 2 12 3-1 4-19 1-22s-3-3-3 10m67-11q-3 2 2 8c5 8 13 9 13 1 0-6-11-12-15-9m74 2q-3 5 5 7 5-1 3-6c-1-2-7-3-8-1m230 0c-4 3-3 10 2 10l-2 3q-9 10 7 8 11-3 1-9-3-1 0-3 3-4-2-7-3-5-6-2m150 1v7c2 3 8-3 7-7zm-308 4q-2 2 1 4a4 4 0 1 0-1-4m174-1a4 4 0 1 0 7 2q-3-5-7-2m194 1q-2 6 2 8 5 0 5-5c0-5-5-7-7-3m46-1v3c1 4 7 3 7 0 0-4-5-5-7-3m-14 1v8l1 5c2 6 8 5 8-1 0-8-6-16-9-12m-120 1q-2 3 1 5c3 4 8 1 7-3q-3-5-8-2m198 1c-4 6 3 17 9 14 3-1 3-9 0-13q-5-6-9-1m-518 1q-5 9 5 10c5 0 7-6 3-10q-4-4-8 0m140 1q-3 2 0 6c3 4 9 1 7-4q-4-6-7-2m-171 4q-3 5 0 6c4 3 8-4 5-7q-2-2-5 1m93 0a4 4 0 1 0 4 0q-2-3-4 0m-41 2q-4 5 0 8 6 2 7-5-1-8-7-3m90 0c-2 2-1 10 1 12q7 5 8-4-1-12-9-8m358 1q-3 4 2 10 6 7 8 1c3-6-5-16-10-11m-516 2q-3 3 0 5c3 5 10 3 10-2s-8-7-10-3m172-1-1 4q3 5 7 1c2-4-3-8-6-5m145 1q-6 7-4 9c4 3 11-4 9-9q-2-4-5 0m-292 0c-2 3 0 11 4 14 4 4 10-1 6-7l-3-5q-3-5-7-2m-139 1v4q2 5 6 2c3-4-2-8-6-6m398 0c-7 1-4 10 2 10q6-1 7-6l-6-5zm-374 1c-6 2-10 9-5 12 6 5 17-6 11-11l-2-2zm424 2v5q3 4 5 0c3-6-2-11-5-5m37 1q-6 6 2 8 8-1 3-7-1-3-5-1m-226 1q-4 5 0 8c5 2 8-3 6-7q-3-4-6-1m56 1c-1 2 4 6 6 5q4-2 1-6-4-2-7 1m357 0c-4 4 0 10 4 7 3-2 2-9-2-9zm-582 1a5 5 0 1 0 6 1q-3-5-6-1m213 1q-2 6 5 5c4-1 2-6-2-7q-3-1-3 2m70 1q-4 3 0 5c4 4 8-2 5-6q-2-2-5 1m330 0c-1 2 2 7 4 6a4 4 0 1 0-4-6m-287 2q-3 2-1 5l1 2-3 2c-2 2 1 7 5 7q6-1 2-7-2-2 1-2 4-1 6-6c0-4-7-5-11-1m297-1c-4 3-1 9 3 9q5 0 5-6-2-8-8-3m-520 1q-3 2-1 4l2 8q-1 9 3 7 6 2 6-6c2-9-4-17-10-13m266 2q-2 9 5 8 5-3 2-9-4-2-7 1m96 1q-2 2 1 5c4 4 12 1 9-5-2-3-8-3-10 0m137 0q-1 4 4 5 5-1 2-6-4-2-6 1m-335 0c-9 5-11 24-4 24q6 1 5-8l3-7q4-12-4-9m-37 2q-3 2 0 6a5 5 0 1 0 0-6m268-1q-2 6 3 7 4-1 5-6-3-3-8-1m-85 1c-6 2-6 16 1 19 4 1 9-10 6-15q-4-6-7-4m68 1a3 3 0 1 0 6 3 3 3 0 0 0-6-3m-538 1q-4 4 2 7 7-1 3-6-2-3-5-1m408 0c-2 1-1 6 1 6q9 3 7-5c-1-2-7-3-8-1m-437 2q-5 7 6 8c6 0 6-6 0-9-5-1-4-1-6 1m54 2q-9 8 0 11c6 0 12-8 8-13q-2-5-8 2m94-2q-4 4 5 8 13 5 11-3c-2-6-13-9-16-5m525 0a3 3 0 1 0 6 3 3 3 0 0 0-6-3m-446 1c-4 4 2 9 6 5q3-2 0-5-3-4-6 0m406 1c-1 3 0 15 2 16q4 5 6-7l-1-9q-3-4-7 0m114 0q-3 6 4 7 2 1 2-4-1-7-6-3m-372 2q-2 6 4 7 4 1 5-2c1-7-7-11-9-5m-162 0c-4 5-2 14 3 14s8-7 5-12l-1-3c0-1-5-1-7 1m395 0c-2 1-1 8 3 10q4 5 6 1c4-3-4-14-9-11m94 1c-2 4 0 13 3 14q8 2 5-9-5-8-8-5m27 0v5q4 6 7 1c2-5-4-10-7-6m-712 2-4 2q-8 1-3 8 6 5 13-2 6-4 1-7-3-3-7-1m95 1q-3 5 2 6 5 4 6-5 1-4-4-3-4 0-4 2m460 0c-4 3-2 10 3 10 4 0 6-7 3-10q-2-3-6 0M2 173q-2 1-2 6-1 6 3 5 6 2 7-4-2-9-8-7m454 1a4 4 0 1 0 6 1q-2-4-6-1m-309 0q-2 4 1 9 6 4 10 0c3-6-6-13-11-9m-62 3q-5 8 4 8 6-2 4-8-3-3-8 0m207 0q-4 2 0 5a4 4 0 1 0 0-5m23 0c-5 3-1 10 5 10s8-6 3-10q-4-4-8 0m83 0q-4 3 0 7l1 4q2 5 5 3l1-11q-1-7-7-3m30 1q-1 5 5 6 6-1 2-6-4-6-7 0m264-2c-5 4-3 13 4 12 4-1 5-8 2-11q-3-3-6-1m-638 3q-3 3-1 8c4 7 11 3 9-5q-3-8-8-3m155 1q2 6 6 2 3-5-3-5-4-1-3 3m130-2c-2 1-1 7 2 8q2 2 4-1c4-4 0-10-6-7m-94 5q-3 4 4 5 3-1 3 4c0 8 9 13 11 6q1-11-7-12-4 0-5-2-2-5-6-1m29 0q-4 2 0 5 7 3 4-5-1-3-4 0m177 4c-4 4-4 3-4 12q-1 9 5 8 6 1 4-9 0-6 2-8c3-7-2-9-7-3m220-2-2 3c0 3 6 7 8 4l3-1q3 1 2-3-2-8-11-3m-531 2a5 5 0 1 0 6 8c5-6-1-13-6-8m-122 2-5 3q-5 1-2 7c3 5 10 5 10 0l3-4q5-5 2-8t-8 2m207-1q-4 4 0 9c5 4 11-4 6-9q-3-4-6 0m149-1q-2 6 4 8 5-1 1-7-2-3-5-1m229 1q-1 5 2 9c3 3 8-3 6-9q-3-4-8 0m158-1q-3 5 2 6 4 0 4-4-2-5-6-2m-199 1c-3 3-1 12 3 11 6-1 6-12 1-12zm-438 2q-3 4 2 7c4 2 8-2 4-6q-3-3-6-1m48 1q-3 3 0 5c4 4 10-1 8-5q-4-4-8 0m484-1v7q8 3 6-5-2-4-6-2m-164 2-2 4c1 4 8 4 10 1q1-9-8-5m224 1c-3 3 1 11 5 11a6 6 0 1 0-5-11m-21 1q-4 4 0 9h4q6-4 1-8-2-3-5-1m-301 4c-3 2 1 9 5 9q8-1 3-8-5-3-8-1m195 1q-6 3 0 8 2 4 4 1c4-3 1-11-4-9m-546 4c-4 5 2 12 6 8 3-3 2-9-2-10q-2-1-4 2m45-1q-6 8 0 11 9 4 10-8c0-5-7-7-10-3m203 2q-4 4 1 7l3 2 3-2q5-4 1-8-5-4-8 1m44-1c-3 4 0 15 5 15s5-12 0-16q-2-2-5 1m-312 1c-3 3 2 8 5 4q5-3 0-5-3-2-5 1m171 0q-5 4 1 8c4 2 9-5 5-8q-2-3-6 0m181 0q-5 4-1 8c2 1 9-2 10-5 2-3-4-5-9-3m43 0-2 3c-2 5 7 9 10 5 4-4-3-11-8-8m259 0c-5 6 1 19 7 14l1-7q-1-12-8-7m-464 2q-3 4 4 5 4 0 4-2c1-4-5-7-8-3m433 0c-2 2-1 7 2 7a4 4 0 1 0-2-7m76 0q-5 5 1 8 6 4 8-2c1-5-5-9-9-6m-589 1c-5 7-5 17 0 17q5-2 6-5l3-4q4-5 1-8zm430 0a4 4 0 1 0 7 5 4 4 0 0 0-7-5m187 0c-2 2-2 12-1 14 3 6 11 9 14 5q5-2-3-8-3-1-1-4c2-6-5-11-9-7m-571 1a4 4 0 1 0 5 1q-3-3-5-1m327 1q-1 5 2 5 4 1 5-3c0-4-6-6-7-2m-390 3c-3 5 2 10 6 5q3-3 0-5-3-4-6 0m194 1q-4 3 0 7a4 4 0 0 0 7-4c1-4-4-6-7-3m-279 1q-2 5 1 7 3 3-1 2-10 1-3 8 9 8 13 0 2-6-4-8h-2l2-1c5-3 4-10-3-10q-3 0-3 2m431-1c-2 1-3 6 0 6 3 2 7-3 4-6zM0 217c0 6 7 9 11 5q3-5-4-6l-4-2q-3-3-3 3m397-2q-3 5-1 9 6 3 9-2c2-7-4-12-8-7m48 0q-4 3 0 7 3 5 7 0 5-4 0-7-4-4-7 0m-212 0-1 8q0 7 2 6c3 0 8-6 8-9q-3-8-9-5m46 1q-2 7 5 9c6 0 6-9 0-10zm-189 1a4 4 0 1 0 4 0zm500 0a4 4 0 0 0 6 6q2-7-6-6m20 0q-3 4 2 6 4 0 4-4-2-5-6-2m-361 2q-2 5 1 6 7 2 7-6c-1-3-7-3-8 0m440 0a9 9 0 0 0 14 9q1-8-9-11-4 0-5 2m41 0q-3 1-1 5c1 5 10 6 13 2 4-4-8-12-12-7m-675 0a4 4 0 1 0 6 4 4 4 0 0 0-6-4m156 5q-12 10-5 13 6-1 7-4l2-2c2 0 9-6 9-9q0-3-4-4zm157-5a6 6 0 1 0 7 10 6 6 0 0 0-7-10m206 1q-4 4 1 5 5 0 5-5-2-4-6 0m69 2q-2 8 5 6 4-2 3-6c-1-3-7-2-8 0m-98 1q-2 3-1 4c2 4 8 1 7-3q-2-6-6-1m117 0c-5 5 1 14 5 8q6-4 1-8-4-3-6 0m-557 1q-4 5 3 6a4 4 0 1 0-3-6m55 0q-6 4-7 12c0 9 12 11 12 2l2-6q5-12-7-8m461 1c-2 1-1 11 1 11 4 2 8-8 5-11zm-238 3q-4 6 2 7 5-1 3-7-3-4-5 0m-64 2c-6 5 0 15 6 9q5-4 0-9-4-3-6 0m393 1c-7 4-6 11 1 10q9-2 9-8-2-6-10-2m-529 1q-2 5 2 6t5-4c0-4-5-6-7-2m565 0q-4 5-1 9l2 4 2 2q3-1 2-4l2-5c2-6-3-11-7-6m-161 1q-3 5 3 6 5 0 3-5-1-4-6-1m16 0q-2 5 2 6 6 1 5-5c0-2-5-2-7-1m39 1q-3 8 4 6c2-1 3-6 0-7q-3-2-4 1m-389 0q-2 3 1 5 5 4 5-2-1-6-6-3m311 0-1 2-1 1q-2 2 1 5c2 2 8 1 8-2l1-1q3-1-1-4-3-3-7-1m123 1q-3 3 2 6 7-1 3-5-2-3-5-1m-167 2q-1 4 3 7 7-1 5-7-4-4-8 0m-488 1c-1 2-2 15-1 17 3 3 10-1 11-6 2-8-6-16-10-11m26 3c-6 4-3 14 4 12a13 13 0 0 0 8-8c0-2-4-7-7-7zm132 0q-2 7 6 6 5-3 2-8-5-3-8 2m158 0q-2 2 1 4a4 4 0 1 0-1-4m59-2q-3 3 1 6 7 3 8-2c0-4-6-7-9-4m-285 2c-3 3-3 9 0 10 4 2 10-6 7-10q-3-4-7 0m157-1q-4 6 2 8 3 0 3-4-1-7-5-4m161 1q-5 7 4 7c4 0 5-7 1-8q-4-2-5 1m217 0c-6 4-7 15-1 15l4 3q12 5 9-5l-2-6q-1-9-10-7m65 3q-6 12 5 5 7-3 4-7-4-6-9 2m-492 0q-3 2 0 5a4 4 0 1 0 0-5m264 1a5 5 0 1 0 5 0q-3-3-5 0m-122 1q-4 3 0 8 6 4 10-1c3-6-6-12-10-7m-239 2c-4 4 0 13 5 13 4 0 8-10 5-13-2-3-8-2-10 0m203 0a4 4 0 1 0 3-1zm88 1q-4 6 3 7 8-1 3-7-4-4-6 0m173 0q-5 6 4 11 3 1 3 3a3 3 0 1 0 5-2v-5q2-2-1-5-6-7-11-2m-355 2c-5 4 0 14 6 11q6-3 2-10-3-5-8-1m446 0a4 4 0 1 0 6 1q1-2-3-2-2-2-3 1m-127 1c-3 5 1 11 5 8 3-2 2-9-1-10q-3-1-4 2m181 0c-4 3 0 11 5 11l3 3c2 5 9 1 9-5q-1-5-6-4l-3-3-6-4zm-563 0q-4 4 0 10 7 4 9-4-1-9-9-6m109 1a4 4 0 1 0 5 6 4 4 0 0 0-5-6m64 1a3 3 0 1 0 6 3 3 3 0 0 0-6-3m56-1c-3 3 1 10 5 7q5-3 2-6-4-3-7-1m110 0c-2 1-1 8 0 9q5 1 6-4l2 3q6 9 8-2-1-9-8-4-2 2-3-1-2-3-5-1m181 1c-3 4 1 10 5 8q3-2 4 1c5 4 13 0 10-5q-4-6-9-2-1 2-3-1-3-3-7-1m-384 1q-5 2-6 6 2 5 6 6c6 0 10-10 5-12zm331 2c-4 4-1 9 5 6q3-1 2-4-3-6-7-2m-24 1q-4 6 4 6t6-5q-6-3-10-1m-229 2c-2 4-2 13 0 14 4 3 12-10 8-14q-4-4-8 0m53 1c-2 2-9 16-9 19 0 8 9 6 11-2l3-8q5-7 1-9-3-3-6 0m-413 1q-3 6 3 6 8-1 5-6-5-4-8 0m-32 0c-2 0-1 11 0 13l2 6c1 9 8 7 11-3 3-8-6-19-13-16m413 1c-4 3 0 12 6 13q5 0 5-7-5-11-11-6m74-1q-3 6 2 8 8 2 5-7-3-3-7-1m-327 2q-3 5 3 7 3 0 4-2c2-5-4-8-7-5m563 2q-6 2 0 9 7 8 10 1c5-9-2-15-10-10m-652 0c-6 2-6 15 0 15s10-11 5-14q-3-3-5-1m250 0q-2 6 3 7 8-1 3-6-4-3-6-1m-90 2q-1 7 6 6 4-2 1-6-4-4-7 0m320 1q-6 7-1 9c3 2 11-3 11-7 0-6-6-7-10-2m-377 3q-5 6-1 8c4 5 14-4 11-10-1-2-7-1-10 2m323-1q-2 6 2 8 6-1 7-6c0-4-6-6-9-2m22 0q-2 5 3 5c5-1 5-7 0-7q-3 0-3 2m-169 0q-4 5 0 9c2 3 7 2 7 0 2-4-3-10-7-9m-25 4q-3 3-1 6 6 6 8-2 0-9-7-4m-300 2c-6 5-2 12 4 8q6-3 2-8-2-5-6 0m110 0a4 4 0 1 0 6 1q-3-4-6-1m149 1a6 6 0 1 0 8-1q-4-5-8 1m187-1q-2 7 4 5c3 0 2-5 0-6q-4-2-4 1m133-1c-4 5-1 12 5 12q5-1 6-6c0-5-8-9-11-6m-516 3c-5 5-4 14 2 14 2 0 10-9 10-11s-5-6-7-6q-3 0-5 3m290-2-3 4a5 5 0 1 0 2-4m265 1a5 5 0 1 0 6 9 5 5 0 0 0-6-9m-485 1v6c2 2 7 0 7-2q0-6-7-4m44 0q-3 3 0 8 6 10 10 4c5-7-5-17-10-12m467 0q-1 5 3 6 5-1 4-5c-1-2-6-3-7-1m-617 4c0 6 11 10 13 6q2-7-10-9-4-1-3 3m630-2-2 7-2 9q0 7 8 3l2-3 3-6c2-7 3-7 0-9-2-2-8-3-9-1m70 1q-4 4-1 9c3 5 15 0 12-5q-5-9-11-4m-637 3v7q4 1 6-3c2-3-3-7-6-4m189 1q-4 6 3 7a4 4 0 1 0-3-7m416 0q-2 9 6 6 2-6-3-8zm-320 0q-3 2-1 4a4 4 0 1 0 1-4m157 2c-4 3-2 9 4 9s7-7 2-10q-3-2-6 1m-290 0a4 4 0 1 0 6 1c0-2-5-3-6-1m263 0v9q5 2 8-3c2-4-4-9-8-6m-193 2q-6 4-4 10c4 4 11 1 12-5q0-10-8-5m-201 0a4 4 0 1 0 5 6 4 4 0 0 0-5-6m452 0q-3 7 5 6 6-4-1-7zM9 292v4q5 3 7-2c0-4-5-5-7-2m465 0q-2 1-2 5c0 8 7 13 10 8 5-7-2-17-8-13m-431 2q-4 4 0 7 6 0 5-3 0-6-5-4m138 0c-5 3-4 10 1 10a5 5 0 1 0-1-10m441 0c-4 2-2 10 2 10s5-8 2-10zm15 2c-2 4 3 7 6 4q3-2 0-4-4-4-6 0m-421 5-1 6c0 4 9 3 11-1 1-6-6-10-10-5m446-1a5 5 0 1 0 7 6 5 5 0 0 0-7-6m-597 1-2 4q0 6 6 5 4-2 6-5c0-3-8-7-10-4m96 0c-5 2-6 8-3 10q5 4 9 0c6-4 1-13-6-10m439 0q-2 4 1 6 6 1 5-5-2-3-6-1m133 0-6 12c2 4 13-2 13-8 0-3-6-7-7-4M6 304q-2 4 1 5 4 2 6-3c0-5-6-6-7-2m250 0c-4 6 10 15 15 8q3-3-4-8-9-6-11 0m175-2q-2 6 1 12c3 3 12 3 14 0q2-5-6-8l-4-3q-4-4-5-1m136 0-4 1c-5 0-10 9-6 12q5 6 11-4l2-4v-4q-2-3-3-1m-459 2q-6 2-7 7 2 6 9 3c8-4 5-13-2-10m590 2q-2 7 5 5 3 0 2-3-3-6-7-2m-198 2q-4 3 0 10 5 9 9 1c3-7-5-16-9-11m-48 1q-4 5 1 7 7-2 4-8-2-3-5 1m89-1q-2 4 1 6a4 4 0 1 0-1-6m-504 3c-5 5 1 11 6 6q4-4 0-6-4-3-6 0m201 0-2 3q3 6 9 1l2-2-2-2q-4-3-7 0m396 0q-1 5 3 8c4 1 7-6 4-9q-4-3-7 1m50 1c-4 3-2 9 2 9q8-1 3-9-2-4-5 0m-378 2c-3 4-2 10 3 10 4 0 6-7 3-10q-3-4-6 0m451 3c-4 3 0 13 5 13 1 0 5-6 5-8 0-5-7-9-10-5m-544 1-1 3-1 5q-3 6 5 7c7 0 9-8 4-15-1-3-6-3-7 0m166-1q-3 3-2 7 6 4 8-3 0-6-6-4m342 1q-2 3 1 5a3 3 0 1 0-1-5m-402 1a4 4 0 1 0 5 7 4 4 0 0 0-5-7m-177 2c-3 2 1 9 4 9q4-1 4-5c0-3-6-7-8-4m268 0q-2 2-1 5a4 4 0 1 0 1-5m251 1q-1 5 3 5a3 3 0 1 0-3-5M5 323a5 5 0 1 0 6 0q-3-3-6 0m441-1c-4 3-4 11 0 11 3 0 7-8 5-11zm-381 1q-4 4 1 8c5 3 13-2 8-6q-5-3-9-2m105 2q-4 4 0 6 5 3 7 0 4-6-3-8zm-39 0c-3 4 0 12 5 12q5-3 0-11-3-3-5-1m496 1q-5 3-4 9c1 4 8 2 10-3q4-10-6-6m-281 1q-4 2 0 7 4 4 7 1c5-5-1-13-7-8m126 1q-3 4 0 7l2 4q0 7 4 9c6 1 10-12 4-14l-3-3c0-4-5-6-7-3m-440 2q-12 14 0 14 7-2 9-8c0-6-6-10-9-6m473 0q-3 1-1 4a4 4 0 1 0 1-4m-455 1q-3 7 4 5c3 0 3-6 0-6q-3-2-4 1m700 0a4 4 0 1 0 4-1q-3-2-4 1m-220 1c-4 4-2 10 3 10s9-6 7-10c-1-3-7-3-10 0m-455 1a4 4 0 1 0 6 5 4 4 0 0 0-6-5m508 1a5 5 0 1 0 5 0q-2-3-5 0m-286 1q-3 4 1 7c4 2 9-4 6-8q-3-3-7 1m442-1c-4 1-3 8 1 8q4-2 5-5-2-4-6-3m-430 2q-3 3 0 4 5 5 8 0c2-6-5-8-8-4m255-1a4 4 0 1 0 7 4c0-4-5-6-7-4m157 1q-3 2 0 5t6-2c3-4-3-7-6-3m-352 2c-4 4-2 10 3 10q4 1 5-3c2-6-4-11-8-7m-132 2q1 6 7 4 3-4-4-6-4 0-3 2m18-1c-2 3-1 19 1 20q8 5 8-9-2-16-9-11m152 0v10a6 6 0 1 0 0-10m274 2c-4 5-2 11 3 9q9-2 5-9-4-6-8 0m-75 0q-4 5 1 7 9-1 4-7-2-3-5 0m99 0c-4 3-5 11-2 13q2 1 1 4 1 7 7 4 4-6-2-7-3 1 0-2c5-6 1-16-4-12M9 343q-3 4 2 6c4 3 10-3 6-7q-5-3-8 1m309 0q-2 5 4 5 3 0 2-5-3-4-6 0m122 1q-3 4-1 4l1 3q2 8 9 3 5-5-1-11-4-5-8 1m-292 2c-3 4-2 11 2 11q4-1 7-5c3-6-4-10-9-6m378 0q-4 3 0 5a4 4 0 1 0 0-5m-442 2q0 5 4 6l4-4c0-4-6-5-8-2m383 0-2 3 5 5 3 1q5 4 3-8-4-6-9-1m164-1c-6 4-5 13 2 13 2 0 6-5 6-7q-2-8-8-6m-589 1-2 1c-2 1-7 9-7 11a9 9 0 0 0 15-11q-4-3-6-1m170 1q-2 6 1 7l4 3q5 5 7 1 5-2-3-9-6-7-9-2m-29 1q-3 1-1 4 6 4 8-2c0-3-5-5-7-2m374 0q-3 1-1 4a4 4 0 1 0 1-4m-497 1q-4 4 3 5a3 3 0 1 0-3-5m296 1c-4 3 0 10 6 10 5 0 7-7 2-10q-4-3-8 0m394 0c-2 2-1 9 1 11 5 4 13 2 11-3-1-6-9-11-12-8m-325 3c-4 4-2 10 3 10q5 0 5-6-1-11-8-4m-49 0q0 7 6 4 3-1 1-4-4-5-7 0m227 1q-3 4-1 8c3 3 9 0 9-4q-2-9-8-4m-284 1v4c3 3 8-1 7-4q-3-4-7 0m260-1a4 4 0 1 0 3-1zm141 1c-7 8-7 19 0 16 2 0 8-10 8-13q-2-8-8-3m-577 0q-4 4 0 6 6 0 5-5-2-3-5-1m305 0q-5 3-3 7 4 5 8 2c3-4-2-12-5-9m215 1q-2 5 3 6a4 4 0 1 0-3-6m-535 3c-5 4-1 11 4 7q6-4 2-7t-6 0m62 2c-5 3-4 10 2 10 3 0 6-6 5-8q-3-6-7-2m315 1c-6 2-7 10 0 9 4-1 7-8 3-9l-1-1zm-422 5q-1 6 3 8c2 0 7-4 7-6 0-5-8-7-10-2m304-1c-3 5 6 12 9 7q2-3-1-7-5-4-8 0m-66 1v5c3 5 9 4 9-2q-1-8-9-3m-149 2q-4 3 0 7c2 2 7-1 7-5q0-6-7-2m308 0c-5 4-7 11-3 12q9 2 10-8-2-8-7-4m174 0-2 5q3 6 8 1c3-6-2-10-6-6m-417 1q-4 6 3 7 8-1 3-7-2-4-6 0m70-1q-3 6 3 8 3 0 3-3 0-5-3-6zm449 1q-6 5 0 9c6 3 12-4 7-8q-4-6-7-1m-190 1c-7 8 6 20 13 13q6-5-4-11-7-6-9-2m-551 1q-3 11 7 8 4-3 3-8c-1-3-8-3-10 0m60 0c-4 1-7 7-5 9 3 4 12 0 12-4q-1-5-7-5m136 1c-5 3 0 11 5 8q7-2 3-6-3-6-8-2m330-1c-2 2-2 9 0 11 5 4 10-3 8-9q-3-5-8-2m190 0q-3 4-1 8c4 3 10-1 7-5q-2-6-6-3m-621 3q-4 3 0 9t6 2c6-6-1-17-6-11m237-1c-3 4 1 11 5 8 3-2 2-9-2-9zm-189 2q-3 1-1 4a4 4 0 1 0 1-4m-13 2q-7 4-2 7c5 4 14-2 10-7-3-2-2-2-8 0m293 0a4 4 0 1 0 6 5 4 4 0 0 0-6-5m229 0q-7 4-1 7 6 1 8-4 0-5-7-3m-169 1q-3 1-3 5c0 6 7 7 9 2 2-3-2-9-6-7m-98 2q-4 6 8 11 3-1 4-5c0-2-8-8-10-8zm197 1q-4 5 0 8 6 5 8-5-1-10-8-3M7 385q-4 8 4 9 8-1 3-8-4-3-7-1m44 1c-9 4-7 12 2 8q8-3 4-8-3-3-6 0m40 0q-3 3 0 6c2 3 7 2 7-3q-1-8-7-3m276 0q-3 3 0 5a5 5 0 1 0 0-5m-54 2q-3 8 5 7a4 4 0 1 0-5-7m166 0q-4 3 1 6 6 4 11-1c3-4-7-8-12-5m155 3a5 5 0 1 0 8 4q-2-9-8-4m-426 1a3 3 0 1 0 6 0q-4-4-6 0m480-1-2 4c0 5 7 8 12 5 5-5-3-12-10-9m-572 4q-3 3-1 6 5 3 7-3-1-7-6-3m331-1-1 2-1 2-2 4c-3 7 3 14 8 10 2-1 3-16 2-18zm105 1c-4 3-3 9 2 9q5-1 6-6-2-7-8-3m15 0c-2 4 1 12 5 12s5-8 1-13q-4-2-6 1m-333 0c-3 0-3 7 0 8q3 2 2 3-2 5 4 3 3-2 0-4v-3a5 5 0 0 0-6-7m65 0q-2 3 1 6 4 3 5-4-1-4-6-2m-145 2a4 4 0 0 0 6 3q2-5-2-5zm520-1a4 4 0 1 0 5 6 4 4 0 0 0-5-6m-340 1q-4 4 1 8 9 5 10-3c0-5-7-8-11-5m57 3v4q4 2 6-3-1-6-6-1m324-1a4 4 0 1 0 6 4 4 4 0 0 0-6-4m-591 1q-3 6 3 8 7-1 3-8-3-4-6 0m277-1a4 4 0 1 0 6 7 4 4 0 0 0-6-7m96 2a5 5 0 1 0 6 0q-3-3-6 0m-456 0q-7 6 3 11l7 3q4 3 8-1l2-3-2-2c-2-2-13-9-15-9zm265 1q-6 8 3 12c7 4 10-6 3-12q-3-4-6 0m314 0c-4 4 1 9 5 5a4 4 0 1 0-5-5m-460 2c-4 2-1 9 3 9q8-2 3-8-3-3-6-1m-75 2q-4 5 2 7a4 4 0 1 0-2-7m123 0q-9 1-8 4c0 6 6 8 8 3l4-3q6-4-4-4m316 4c-4 6-4 6-1 8q5 4 8-2c7-9 0-15-7-6m170-2c-4 3-1 8 4 6q5-2 1-6-2-3-5 0m-274 1q-5 6 6 7 7-1 5-7-4-4-11 0m-64 1-1 4c0 5 6 7 8 3 3-5-3-11-7-7m-221 1a4 4 0 1 0 5 6 4 4 0 0 0-5-6m328 1c-2 2-3 8-1 8l1 4 2 4 1 5q0 13 9 4 7-5 2-11-3-2-3-6-4-14-11-8m-85 2q-7 9 2 11 4 1 5-5l2-6c-1-3-7-2-9 0m180-1q-1 7 5 5 4-4-2-6zm-291 4c-12 10-10 20 3 12 3-3 9-12 9-15q-4-4-12 3m-80-2c-4 3-5 16-2 19l3 2c3 0 7-8 7-14q-2-9-8-7m565 3q-3 3-1 5l2 5c2 8 9 8 13 0q2-5-2-7l-4-3c-4-3-4-3-8 0m-155 1a3 3 0 1 0 6 4c2-5-3-8-6-4m47 2-2 2 2 3c6 5 16 1 13-6-2-3-10-3-13 1m-472 0a4 4 0 1 0 7 3c0-5-5-7-7-3m131-1c-3 4 3 9 6 6v-4q-3-5-6-2m96 0q-5 2-2 9 2 7 8 4c2-1 4-11 2-12q-3-2-8-1M6 423v2c-2 5 5 8 9 5v-8c-2-2-8-1-9 1m45 0q-4 3 0 5a4 4 0 1 0 0-5m393-1c-5 3-5 12 0 11l6-2q8-1 2-6-4-6-8-3m60 2q-2 8 9 9 10 1 1-8-8-7-10-1m-272 1c-4 4-2 10 4 9q5-2 3-9-3-4-7 0m-105 1c-2 2 1 8 4 8q6-2 3-7t-7-1m547-1c-5 4-3 11 2 11 4 0 7-6 5-9q-2-5-7-2m-60 2q-3 3-3 8c2 4 9 2 11-4q0-7-8-4m-125 2c-4 4-2 15 3 15 6 0 8-11 3-15q-3-3-6 0m-163 2q-3 2-1 4 5 4 8-1-1-8-7-3m48 0c-6 3-7 9-2 9q9-1 10-5 0-8-8-4m-161 0q-3 6 2 8 3 1 4-3 0-8-6-5m-69 2c-4 3 1 10 7 10 6-1 11-7 7-9-2-1-13-2-14-1m138 2q-4 4 4 8t10-2c3-5-10-11-14-6M5 435q-3 3-1 8c3 3 9 0 9-4q-1-7-8-4m547 2c-4 4 0 9 5 6a4 4 0 1 0-5-6m-325 1q-6 2-4 7c3 3 13-1 13-5l-5-4zm162 0c-4 5-2 12 3 12 2 0 7-6 7-8 0-4-6-7-10-4m306 0q-3 2 0 4 3 4 6-1c3-4-3-7-6-3m-615 2q-4 6 3 7c4 0 5-5 2-7q-3-3-5 0m510 0q-7 6-6 11 2 4 6 0l5-3q7-3 6-7-2-6-11-1m119-1q0 5 5 6c4 0 3-6-1-7zm-648 1c-4 4 1 12 7 9a5 5 0 1 0-7-9m195 0q-4 3 0 6 3 2 5-1c6-3 1-8-5-5m510 1q-4 5 0 8 4 1 3-5 0-7-3-3m-407 1v5c3 5 10 3 9-2q-2-8-9-3m384-1a4 4 0 1 0 6 5 4 4 0 0 0-6-5m-693 1a3 3 0 1 0 3 0zm62 5q-7 6-6 10 0 8 8 1l5-4c5 0 9-7 5-11q-5-5-12 4m70-5q-4 5 0 8c5 2 8-4 4-7q-2-3-4-1m259 0c-3 4 1 10 5 8s2-9-2-9zm-416 1a4 4 0 1 0 5 2q-2-3-5-2m393 1a4 4 0 1 0 4 0q-2-3-4 0m203 0q-4 6 1 8c4 2 9-3 7-6q-3-7-8-2m-108 0c-3 4 1 11 5 8 3-2 2-9-2-9zm-105 6q-4 4 0 7 3 3 6 0 3-2 2-5-1-8-8-2m-168 2-2 2 2 2c2 3 7 2 7-1q0-4-4-5zm112 0q-1 5 2 9l3 4q3 5 8 1 5-2-1-6l-3-5c0-4-7-7-9-3m-36 0c-2 1-3 7-2 10 2 6 11 3 11-4q-1-8-9-6m146 0c-2 1-1 7 2 8q9 2 7-5-2-5-9-3m-32 1q-3 5 3 6 3 0 3-3-1-6-6-3m249 1c-5 5-4 14 1 14q4 2 6-9c2-6-3-10-7-5M7 455c-3 4 0 9 4 7 4-1 2-9-1-9zm75 0q-2 4 4 5 5-1 3-5-3-3-7 0m124 1q-3 2-1 4 3 3 1 4-2 3 1 4l1-3 2-1q4-2 4-7-3-4-8-1m56 1c-2 2-3 8-1 10 5 5 14-3 10-9q-3-6-9-1m22-1c-3 4 5 15 10 13q4-2 0-7-5-9-10-6m347 1q-4 4 0 7 5 2 8-2 3-2 0-5-4-5-8 0m79-1q-5 8-2 11c5 4 12-4 9-10 0-2-6-3-7-1m-684 2q-2 3 3 5a3 3 0 1 0-3-5m528 0q-2 6 5 6 5-2 1-6-2-4-6 0m-408 1c-5 4-4 12 2 12q4 0 4-4 1-10-6-8m429 1q-6 5 0 7c4 1 9-3 7-7q-2-4-7 0m166-1-4 2q-8 2-3 8c3 3 12 0 15-4 3-5-3-9-8-6m-643 3v8c2 3 9 1 9-3 0-5-6-8-9-5m89 0-1 7c0 5 10 3 10-2 0-4-6-8-9-5m435 0q-4 5 4 6 4-1 3-6zm-229 1c-2 2-1 11 2 14q6 5 10-3c1-7-8-15-12-11m299 2c-5 5-1 11 5 7q6-4 2-8-3-4-7 1m-531 2-1 4-2 4q1 5 6 6 5-1 6-7c0-6-6-10-9-7m146 1v3c3 4 9 1 8-3-1-3-7-3-8 0m120 0q-2 5 1 8c4 1 7-5 4-8zm29 0c-3 3-1 9 3 9s6-6 3-8h-2l-1-1zm143 1q-1 5 4 5 6 1 5-5c-1-3-7-3-9 0m-29 1q-3 0 0 5l2 6c1 6 7 8 9 4 3-6-6-18-11-15m-545 3a4 4 0 1 0 3-1zm108 0c-3 1 1 7 4 6 4-2 4-7 0-7zm404 0q-1 6 5 7 4 1 3-4 0-4-4-4zm-497 2c-5 2-7 9-3 11s11-4 10-8q-2-5-7-3m79 2c-2 4 5 16 10 16q9-2 2-8-3-1-5-6-3-7-7-2m131-1c-2 1-1 6 1 7 3 3 9-3 6-7-1-1-6-2-7 0m191 0c-5 6 0 16 8 18q12 2 0-14-5-7-8-4m-68 3q-3 9 2 11 8-1 5-10-3-6-7-1m-293 1q-1 5 3 6c6 3 12-2 7-6-2-3-10-3-10 0m130 1c-7 7-3 13 6 8q5-4 3-9-4-5-9 1m111 1q-3 1-1 4c0 2 7 3 7 1l1-2c1-4-5-6-7-3m412-1v8c2 2 8 1 10-1 3-5-3-10-10-7m-73 2q-4 7 2 8 8-2 3-8-2-3-5 0m91 1q-5 6 3 7a4 4 0 1 0-3-7m-248 1c-3 3-3 10 0 12q7 4 8-7-2-10-8-5m29 1c-3 2-2 7 2 7q4-1 5-5-1-5-7-2m-176 3c-5 6 2 11 7 6q3-3 1-5-4-5-8-1m242 0c-4 4 0 10 5 7q4-3 0-7-3-3-5 0m-192 2q-4 5 0 9 3 4 8-3c5-7-2-13-8-6m213-2v5c2 2 7 0 7-1q0-7-7-4M2 490c-3 4 1 12 5 9q4-3 2-7-3-5-7-2m382 2q-6 4-1 8 4 5 9-1c5-6-3-14-8-7m335-2c-3 2 1 9 5 9q6-2 2-8-4-3-7-1m-34 2a5 5 0 1 0 7-1q-3-3-7 1m-414 2q-2 6 4 8c5 1 9-5 6-9q-4-3-10 1m197-1a4 4 0 1 0 6 5 4 4 0 0 0-6-5m94 1c-4 4-2 10 4 9 4-2 2-11-2-11zm19-1c-2 3-1 11 1 13 4 3 8-7 4-12q-2-3-5-1m-473 2q-4 3 0 5 8 2 5-6-2-2-5 1m35 0c-3 4 2 8 6 4v-4q-4-4-6 0m177 1c-5 4-3 11 3 12 6 2 9-6 4-11q-3-6-7-1m-280 1q-3 6 4 8 10-2 4-8-4-4-8 0m117 0q-5 3 1 6 8 4 9-2c0-4-7-7-10-4m138 1c-6 3-7 9-2 10 6 0 10-8 6-10zm56 2-3 1q-4 0-1 5c2 4 9 0 7-4q-2-5-3-2m97 0q-2 3 1 6 6 2 5-4-3-5-6-2m285 0q-3 2 2 6c4 4 10 0 5-4q-4-5-7-2m-533 3q-1 6 3 7 4-1 4-6c-1-4-6-4-7-1m456 0q-2 4 1 6c4 4 9 0 7-5q-3-5-8-1m95 0q0 5 4 5 4-1 3-6-4-2-7 1m-130 0q-3 3-2 5 3 4 7 1c3-3-1-8-5-6m-369 2q-6 7 5 7 4 1 4-3c1-5-6-8-9-4m-69 1-3 2-6 2q-15 2 4 2c12 0 12 0 12-2s-4-6-4-6zm33 0q-6 6 3 6 8 1 3-5-4-5-6-1m197 0q0 4 3 5 4-2 4-5c-1-3-6-3-7 0m257-1-1 4v3h10l-2-4q-5-5-7-3m-639 1-2 4q-1 2 5 2 8-1 3-5-2-3-6-1m563 2q-5 4 1 4 10-1 4-6-2-2-5 2M5 508q-3 4 4 4 5 1 4-3c0-4-6-5-8-1m559-1q-4 5 4 5 7 0 4-4-4-3-8-1m-442 2q-8 4 3 3 9 1 6-2-1-6-9-1"
        mask="url(#16282281824-posters-1720559175854-horizontal-mask)" itemprop="light" fill-opacity="0.90"
        fill-rule="evenodd" stroke="none" fill="url(#16282281824-posters-1720559175854-vertical-light)"></path>
      <!---->
      <path id="16282281824-posters-1720559175854-regular"
        d="m141 2-3 1-2 6c2 4 13-2 13-7 0-2-6-3-8 0m127 0q-4 6 1 9c5 0 7-9 2-11zm80 0q-1 6 2 7 5-1 6-6c0-4-6-4-8-1m122 0c-3 2-2 8 2 8 5 0 7-5 3-7q-3-3-5-1m220 4q-1 6 4 7 5-3 2-9-4-3-6 2m31-1q-3 4 1 7c4 4 8-1 6-6q-4-5-7-1M218 6q-3 3-1 6c4 3 10-3 7-6q-3-4-6 0m218 0q-4 5 1 6c4 0 8-6 4-7q-3-2-5 1m56-1q-4 3 6 7 10 5 12 2 3-3-2-5l-4-2c-2-3-10-3-12-2M105 7c-5 3-2 9 5 9q6 2 2-6-2-6-7-3m549 1c-2 4 3 12 6 11s3-10 0-12q-4-4-6 1m104-2q-2 3 1 6 5 1 6-2c0-3-5-6-7-4M24 7q-2 4 1 9 9 3 6-8-3-4-7-1m163 0q0 7 7 9 13-2 5-8c-4-2-11-2-12-1m57 1c-2 3 3 9 7 7l2-2c0-4-7-7-9-5M74 9c-5 4-5 13 1 13 3-1 8-9 6-12q-2-3-7-1m488 1q-2 2 2 5 9 7 12 1c1-5-12-11-14-6m-197 1c-4 4-2 13 3 13 4 0 7-11 4-14q-3-2-7 1m-66 2c-4 4-2 14 3 14q5-2 6-8-4-10-9-6m-125 3q-6 7 1 6c3 0 5-5 3-6q-2-3-4 0m225 1v6c1 4 8 1 8-3 0-3-6-5-8-3m184 3q-2 2 1 5 5 4 6-1c1-3-4-6-7-4M6 21q-2 5 4 6 5 0 3-5-3-3-7-1m605 0q-2 6 3 8 5 0 6-4c0-4-6-7-9-4M35 26v5c3 5 10 0 8-5q-2-6-8 0m400-2q-2 3 1 8c10 7 16 3 8-5q-5-6-9-3m100 0c-3 2 2 8 5 6q4-1 1-6zm31 1q-1 4 4 5 4-1 3-5c-1-3-6-3-7 0M69 28q-2 6 3 8a6 6 0 1 0-3-8m178-2c-3 2-1 13 3 14 3 2 6-4 4-9q-4-8-7-5m159 1c-3 3-2 11 2 11q4-1 5-6-1-9-7-5m49 1q-2 5 3 6a4 4 0 1 0-3-6m-258 2c-2 4-3 15-1 17q7 5 7-8 1-19-6-9m-97 0-1 3q-3 9 4 8c7-2 7-13 0-13zm576-1q-4 2-6 6c0 4 7 5 10 2 4-3 0-10-4-8m-449 4-5 9q2 7 8 1c5-6 4-13-3-10m42 1q-6 6 0 11 2 2 5-2c6-7 2-15-5-9M12 35c-3 3-1 9 4 9q5-1 6-6c0-3-7-6-10-3m133 1q-1 6 4 6t5-4c0-4-8-5-9-2m497-1q-2 4 1 7 5 2 8-3c0-4-6-7-9-4m-335 2q-3 4 1 6c5 2 8-4 4-6zm246 1q-3 4-1 7 6 2 7-5-2-5-6-2m-390 0c-3 3 0 10 4 10s6-7 2-9q-4-3-6-1m168 1q-3 5 2 6c5 2 8-4 4-6zm397 2q-3 1-1 3a4 4 0 1 0 1-3m-478 4q-2 2 1 4 4 4 6-1-1-8-7-3M83 48q-4 3 0 7 3 1 0 3-4 7 5 7c4-1 4-7 1-8q-3-1-1-2 4-4 0-8-2-2-5 1m378 1c-4 4-2 13 3 13q3 0 5-7 0-13-8-6m-69 3c0 7 5 10 7 4q1-6-5-8-3-1-2 4m-95-1c-6 8 3 15 9 9q5-5-1-9-5-4-8 0m70-1c-3 3 1 9 5 8q4-2 2-7-3-4-7-1m229 0v4a4 4 0 1 0 0-4M67 53c-2 1-4 7-4 9 0 4 6 5 8 0 2-4-2-12-4-9m-43 4c-2 10 5 22 9 15 1-2-1-14-3-17q-5-3-6 2m637-2a5 5 0 1 0 8 1q-5-3-8-1m36 0q-3 5 4 5 4-2 4 1 4 2 7-1c2-5-3-8-6-5zm-276 2c-4 2 3 10 7 8q5-2 0-7-4-3-7-1m62 2q-3 4-1 6c4 3 11-3 8-6q-4-4-7 0m250 1c-3 5-2 14 2 14 5 0 8-8 4-14q-3-6-6 0m-621 3q-2 6 4 8 7 0 4-8-5-6-8 0m149 2q-5 7 1 10c5 3 8-5 4-10q-4-4-5 0m182 0q-1 7 5 6 3-5-2-8-3-1-3 2m188 1q-2 3 1 6 6 3 9-1c1-3-8-8-10-5m52 3c-5 2-4 7 1 7q8-2 5-8-2-2-6 1m-521 1q1 5 6 6 2-1 3-5c-1-4-7-4-9-1m157 1q-4 4 1 7c5 2 8-3 4-6q-3-3-5-1m25 4q-6 5 1 7c2 0 7-5 7-8q-2-4-8 1m17-2q-3 6 4 7 6-1 2-6-2-3-6-1m192 2q-9 6 3 8c8 0 12-6 6-9-4-2-4-2-9 1m198-1a3 3 0 1 0 6 3 3 3 0 0 0-6-3m-555 1q-4 3 0 7a5 5 0 1 0 0-7m498-1a4 4 0 1 0 4 1l-2-2zm-251 1-1 5a4 4 0 1 0 1-5M2 78c-4 1-2 6 2 7q5 0 6-4 0-5-8-3m40 0q1 9 7 4 2-2-1-3-4-3-6-1m684 0q-1 5 2 7a4 4 0 1 0-2-7m-593 3q-3 3 3 8 8 7 9 1c0-5-7-11-12-9m24 1q-3 6-1 8 7 5 8-3-1-9-7-5m138 1q-3 3 0 6a5 5 0 1 0 0-6m-66 0q-6 3-2 8l2 2 5-2c9-5 5-11-5-8m295 0q-2 6 3 7a4 4 0 1 0-3-7M61 84c-2 0-1 6 1 7q5 1 6-3 0-6-7-4m125 2q-4 3 3 8c6 6 13 2 7-4q-7-7-10-4m78 2q-3 3 5 5 13 1 3-5-6-3-8 0m237-1c-3 4 2 8 5 4q3-2 1-3-3-3-6-1m146 3c-2 2 2 10 6 11 5 2 8-6 4-9-2-2-9-4-10-2m-21 1c-2 3 3 10 6 8q3-2 0-7-4-3-6-1m-498 3c-2 3 0 11 3 13 4 2 5-11 2-14q-4-5-5 1m180-1q-3 2-1 4c2 6 14 6 14 1s-9-9-13-5m100 0c-4 3 0 8 4 5 3-2 2-7-2-7zm-77 3c-2 3 1 8 5 6 2-1 1-6-2-7zM16 97c-5 5-5 13 0 14q7 0 7-8-1-10-7-6m42 1q-6 4-1 8c5 3 13-4 9-9q-3-2-8 1m41-1q-6 7 4 10 6 1 5-3c0-5-6-9-9-7m383 1q-3 8 5 6 4-2 0-5-3-3-5-1m-330 2a5 5 0 1 0 7 3q-1-8-7-3m210 1q-6 5-3 6l4 2a6 6 0 1 0-1-8m54 1q-3 2 0 4 4 4 7 0c0-5-5-7-7-4m260 0q-3 4 2 8 6 6 8 1c2-7-7-15-10-9m56 1q-8 3-2 9c4 3 13-4 9-8q-4-2-7-1m-531 2c-3 4 2 9 7 7q5-2 0-6-3-3-7-1m243 1q-4 4 0 7c5 5 11-3 6-7q-2-4-6 0m64-1q-3 5 3 6 3 0 3-3-1-6-6-3m16 2a5 5 0 1 0 6 7 5 5 0 0 0-6-7m-270 0q-1 4 3 7c4 1 7-4 4-7zm-180 3q-4 4 2 6c7 2 9-3 3-6zm217 1-1 4c2 4 7 1 7-4q-1-4-6 0m293 0q-4 3 0 7t8-2c2-5-4-9-8-5m29 1q-1 6 4 8 5-1 3-9-3-5-7 1m-440 0q-3 4-1 6c3 4 9-2 7-6q-3-4-6 0m-130 3q-6 6 0 11 7 7 9-4c1-9-5-13-9-7m148-1q-3 2 1 6 6 7 8 4 2-1-3-7-4-8-6-3m134 0c-3 4 1 9 6 7q6-2 1-6-4-3-7-1m-222 1c-2 2 0 11 3 11 2 0 5-9 2-11zm126 0a4 4 0 1 0 5 1q-2-3-5-1m235 0c-3 4 3 12 7 9q3-3 0-8-4-3-7-1m191 2c-3 3 3 11 7 11q6-2 0-9-5-5-7-2m92 4q-7 5-4 8 3 6 9 0l3-4q4-4 1-7-2-5-9 3m-446-2q-2 2 1 5 5 3 9 1 2-5-3-7-4-2-7 1m148 1c-4 4 1 13 5 10 3-2 2-8 0-9q-3-3-5-1m-431 1v5q3 5 6 0c3-4-3-8-6-5M0 134l1 11c3 0 5-18 2-21q-4-6-3 10m67-11c-1 3 6 13 9 13 7 0 8-6 3-10q-9-6-12-3m74 1c-2 3 2 8 5 6a4 4 0 1 0-5-6m229 1q-3 4 1 7 7 5 8-3c0-4-6-7-9-4m-155 3q-3 3 0 5a4 4 0 1 0 0-5m366 2q-1 5 3 6 5-1 3-6-4-3-6 0m32 0v6l2 5q1 5 5 4 3-1 0-10t-7-5m-119 0v4a3 3 0 1 0 0-4m199 0c-5 3 0 15 5 15q6-1 3-9-2-9-8-6m-519 3q-4 4 1 8 6 2 7-4-2-9-8-4m139 0v6q7 3 6-5-3-3-6-1m-77 4a4 4 0 1 0 4 6 4 4 0 0 0-4-6m135 0q-4 4-2 7c2 1 11 2 13 0 4-5-4-10-11-7m-178 4c-3 5 3 8 7 4a4 4 0 1 0-7-4m91 0c-3 5 3 16 7 11q3-5 0-11-5-6-7 0m-157 1q-3 1-1 4 4 5 8 1 3-2 0-5-3-4-7 0m515 0c-2 3 4 13 8 11l1-7c0-6-6-9-9-4m-490 0c-3 4 1 15 6 15 3 0 6-6 3-8l-4-4q-2-6-5-3m291 1q-4 4-3 7c1 3 8-2 8-6q-2-5-5-1m-36 2c-3 5 5 10 9 5q3-2 0-5-5-4-9 0m-374 1q-6 2-3 8 3 5 10 0c7-6 2-13-7-8m463 3q-5 5 3 5 7-1 3-5-3-4-6 0m-225 1q-3 2-1 5a4 4 0 1 0 1-5m413-1-1 4q-1 4 3 3 6-2 3-6-2-3-5-1m-583 2 2 6q8 1 5-6c-1-2-6-3-7 0m214 0v4a4 4 0 1 0 0-4m411 2c-4 2-2 10 3 9q4-3 3-8-2-4-6-1m-297 1q-3 1-1 4c2 4 10 2 10-2s-7-5-9-2m-224 0v4l1 8c1 9 7 10 8 1 2-9-3-16-9-13m267 1v8q8 3 6-6-3-5-6-2m96 1c-3 4 2 9 6 7 5-2 3-8-3-8zm-235 2c-4 2-1 9 3 8q5-1 3-6-3-4-6-2m33 2c-4 5-6 17-3 19q7 6 6-7l2-6q3-2 3-5-2-7-8-1m236-2q-4 4 1 6 4-2 4-6zm-87 2c-4 1-5 10-2 14q4 5 6 1c6-6 3-17-4-15m-61 1q-4 2 0 5 5 3 6 0 1-4-1-5zm-410 2q-2 4 3 5a3 3 0 1 0 0-7zm122-1q-6 3 2 8t11 2c4-5-7-13-13-10m-150 2q-3 2 0 4 6 5 9 1c3-5-6-9-9-5m57-1c-4 1-7 8-6 11q3 4 9-1c5-6 4-13-3-10m352 1q1 4 5 6 5-1 2-6c-1-2-6-3-7 0m-183 1c-1 4 5 7 7 3q2-5-3-5zm409 0c-3 2-3 13-1 15q7 5 6-7 0-14-5-8m113 0q-3 5 3 6 3 1 2-3-1-7-5-3m-371 1q-4 6 3 8 5-3 1-9-3-2-4 1m-164 2c-2 4-1 11 1 12q6 2 7-6c0-6-5-11-8-6m395 0c-3 2 3 11 7 11s3-7-2-10q-2-3-5-1m123 0c-2 2-2 7 1 7a4 4 0 0 0 3-6q-1-2-4-1m-29 2c-3 3 2 12 5 12q2 1 2-5-1-12-7-7m-589 1q-2 5 1 6a4 4 0 1 0-1-6m-95 0-4 1c-6 0-7 7-2 9 7 3 16-5 11-9q-2-3-5-1m554 1a5 5 0 1 0 5 0q-2-3-5 0M2 174q-2 0-2 5v5h4q6 0 5-4-1-6-5-7zm455 0q-4 3 0 7c3 3 7-3 4-7zm-310 3q-2 6 5 8 5-1 6-5c0-6-9-9-11-3m-61 0a4 4 0 1 0 7 3q-1-7-7-3m344-1q-3 3 1 7 5 1 5-2-1-5-6-5m-114 1q-5 5 1 8 7 4 8-3-1-8-9-5m82 1q-3 2 0 6l2 5q3 4 3-2l1-4q3-3-1-6-4-2-5 1m294 0c-4 4-2 10 3 10s6-9 2-11q-3-2-5 1m-637 1c-3 3-1 11 3 11q4 0 4-5-1-10-7-6m284-1q-3 3 1 7c4 3 8-3 4-6q-2-3-5-1m334 6q-5 4-2 7c2 1 8 0 10-2 3-3-4-7-8-5m-221 2q-6 4-4 13 0 10 6 7 4-2 2-8-1-4 1-8 2-9-5-4m-433 3-5 3q-5 1-2 7c2 4 8 4 8 0l3-4q5-5 2-8-2-3-6 2m120 1v5c4 3 9-3 8-7q-4-4-8 2m114-3q-3 5 1 11 8 7 8-3-1-11-9-8m351 0c-3 4 1 12 5 9 3-2 2-10-2-10zm-380 3q-2 4 2 6c4 3 8-3 4-7q-4-4-6 1m340-2c-2 1-3 7-1 10s6-2 6-7q-1-5-5-3m-391 2q-4 6 1 7l4-2c4-3-1-8-5-5m-49 1q-2 5 4 6 3 1 3-2-1-8-7-4m532 1v3a4 4 0 1 0 0-3m-164 0a4 4 0 1 0 7 1q-3-3-7-1m224 2q-2 3 1 7 5 4 7 0c3-5-4-11-8-7m-21 1c-2 1-1 7 1 7a4 4 0 1 0-1-7m-300 3c-3 1 1 9 4 9q7-2 1-8-2-3-5-1m-307 5q-4 7 1 10t8-5c2-7-5-11-9-5m500-1q-1 4 2 6 4 2 4-4-3-7-6-2m-544 0c-3 4-1 11 4 10q4-2 2-8-3-5-6-2m248 2q-4 4 0 7 5 2 7-1c4-5-3-11-7-6m44 0c-4 3 1 15 5 12 3-2 3-9-1-12q-2-3-4 0m-142 0q-3 6 1 7 5 1 6-5-3-5-7-2m484 1c-2 2-2 10 1 12l2 2 2-2c2-2 3-9 0-12q-2-4-5 0m-304 1q-4 3 0 5c3 2 10-2 10-4 0-3-7-4-10-1m44-1c-4 3 2 10 6 8l3-3q-1-8-9-5m305 1q-4 4 0 8 7 3 7-3-1-7-7-5m-590 3q-3 5-3 11 3 7 8-1l4-6c3-6-5-10-9-4m431-1q-1 9 5 4 3-2 1-4-4-4-6 0m187 0c-7 7 3 23 11 19q5-4-3-9-3-2-1-3a5 5 0 0 0-7-7m-719 5c-2 1-1 7 1 8a5 5 0 1 0-1-8m277 1q-1 3 1 4 5 4 6-3c0-4-5-4-7-1M0 217q-1 6 4 5 7 2 7-3 1-2-4-2l-4-1q-2-5-3 1m234-1c-3 2-3 12 0 12q6-1 7-7-1-8-7-5m162 0q-3 6 3 8 6 3 6-4-1-9-9-4m50 0q-3 2-1 6a4 4 0 1 0 0-6m-165 0q-3 3 1 7 6 4 7-3a4 4 0 0 0-8-4m-30 3q-2 3-1 4c1 3 6 3 7 0 2-5-3-8-6-4m440-1q-3 6 7 11c8 1 8-6 0-10q-6-3-7-1m-321 1q-4 3-2 8 4 5 8 2c5-5 0-12-6-10m361 0a6 6 0 1 0 12 5c-1-4-10-8-12-5m-515 3c-11 9-11 10-11 12 2 4 9 3 9-2l3-2c3 0 7-6 7-8q-2-5-8 0m429-1-1 4q3 5 7 1c2-4-3-8-6-5m18 4c-3 6 2 10 5 6q4-4 0-7-3-4-5 1m-634-1q-4 3 1 7 11 7 12-3c0-4-9-7-13-4m132 1q-6 3-6 11c0 9 10 11 11 2l2-7q3-9-7-6m461 1v9c0 4 7-2 7-6s-5-6-7-3m-303 5q-3 8 4 9 4 0 4-5-2-9-8-4m393 1q-3 3-3 5 2 6 10 1c8-5 1-11-7-6m37 1q-3 4 0 8l1 3 2 2q3 0 2-3l1-6q1-9-6-4m-184 3c-4 3-1 9 4 6l3-3c3-4-4-7-7-3m-42 0q-3 2-1 6a4 4 0 1 0 1-6m-488 2q-3 0-3 9 1 13 8 6c6-5 2-17-5-15m158 2a4 4 0 1 0 5 6 4 4 0 0 0-5-6m158-1-1 5q1 2 6 1c3-3-1-9-5-6m-292 3q-4 3-2 5 3 10 10 4c6-8 0-16-8-9m349-1q0 3 5 4 6 0 2-4-4-3-7 0m-286 1q-3 6 2 8 7-1 6-7-2-6-8-1m318 1c-1 4 5 7 7 3q2-5-3-6-3 0-4 3m286-2c-2 1-5 8-4 9 1 3 10-3 10-6q-1-5-6-3m-69 2c-5 4-4 11 2 13l4 3c1 2 6 1 7 0l-5-17q-3-2-8 1m-427 2q-1 4 4 5c4 0 4-6 0-7q-3 0-4 2m405-1q-2 6 3 7 5-3 1-7zm-140 2q-4 6 3 7c4-1 4-9 0-9zm-122 0q-4 5 3 9 7 1 7-4c0-5-7-8-10-5m-238 2q-4 6 0 10 7 5 10-5c1-6-6-9-10-5m290 1q-2 6 5 7 4-2 1-6-4-3-6-1m174 1c-3 3-1 9 4 9l2 3 3 3c1 1 4-3 2-4l-1-4c1-7-6-12-10-7m-356 1c-4 4-1 11 5 11 4 0 6-7 2-11q-4-4-7 0m320 1q-3 4 0 7c4 3 8-4 5-8q-2-2-5 1m180 1q-3 1 0 6l4 3q3 0 3 2 5 7 9 0 2-6-4-7-3 1-5-2-4-6-7-2m-564 1q-1 9 6 8 6-2 3-8-6-5-9 0m340 0v8q3 0 5-4-1-9-5-4m-109 0q-2 3 1 5t5-1c1-3-4-7-6-4m118 1q-2 3 1 8 2 3 4 1l2-4c0-4-5-8-7-5m172 0q-3 6 4 7 4-1 3-6c0-2-5-2-7-1m11 1a5 5 0 1 0 6 0q-3-4-6 0m-398 1c-5 6 1 12 7 7q5-3 2-8-4-2-9 1m335 0q-3 5 0 6c3 2 7-4 5-7q-2-2-5 1m-252 2c-3 2-4 14-1 15s9-10 7-13q-3-4-6-2m227 0q-3 3 2 4 10 0 7-3c-1-2-8-3-9-1m-587 3q-4 4 1 6a4 4 0 1 0-1-6m410 1-2 3-3 8q-4 6-2 9 4 7 9-6l4-7c4-8-1-14-6-7M2 262c-3 2-3 11 0 12l1 6q0 9 6 5c7-4 6-16-1-22q-3-3-6-1m413 1c-4 4 2 15 7 12q3-3 0-10-4-6-7-2m75-1q-4 4 0 8 3 2 4-1c3-4 0-9-4-7m-329 3q-3 5 3 6a4 4 0 1 0-3-6m564 1q-6 3 0 9 6 9 10-2c2-6-4-11-10-7m-655 2q-3 6-1 11c5 5 11-4 8-11-1-3-6-2-7 0m163-1q-3 4 1 6 8 1 4-5-3-3-5-1m319 3q-5 6-1 7c5 2 12-4 10-9q-3-5-9 2m-376 2q-5 5-2 8c4 3 11-2 11-7q-2-7-9-1m324-1c-4 4-1 9 4 6q4-3 1-7-2-2-5 1m-149 2q-4 4 1 7 7 5 5-5-3-6-6-2m-25 3q-2 6 3 7 5-1 3-7-1-4-6 0m280 1q-5 5 1 9 4 5 7-1c4-5-4-12-8-8m-581 1q-4 6 0 7c5 2 11-4 7-7q-3-4-7 0m111 0c-3 3 1 8 5 5q3-4-1-6-3-2-4 1m150 0q-4 9 3 10 8-1 5-8-4-7-8-2m-197 1c-3 3-4 10-1 12q4 3 9-4 4-4 2-7-4-5-10-1m289 0c-2 4 1 10 5 7q4-3 1-8-4-3-6 1m265 0c-5 3-1 11 4 8q6-5 2-8-3-3-6 0m-440 1q-4 1 1 8 4 7 9 2c3-6-4-13-10-10m-151 2q0 5 8 8c6 1 7-5 1-8q-8-4-9 0m631 0c-3 5-4 16-2 18q4 3 8-6l2-7q2-3-1-5-5-4-7 0m69 0q-3 5 0 9c3 3 11 0 11-4s-9-7-11-5m-448 4a4 4 0 1 0 5 0zm254 2c-4 2-2 8 3 8q6 0 4-7-3-3-7-1m-28 1a5 5 0 1 0 7 6 5 5 0 0 0-7-6m-194 2q-4 5-1 9c3 5 10-1 9-9q-2-4-8 0m253-1a4 4 0 1 0 6 4c2-4-3-7-6-4m-115 3c-3 2-2 9 2 13 5 4 10-7 5-13q-4-4-7 0m-294 3q-4 6 3 7c4 0 6-5 2-7q-3-3-5 0m441-1q-2 3 1 6 4 4 6-1c1-5-4-8-7-5m-404 6a5 5 0 1 0 7 6 5 5 0 0 0-7-6m445-1q-3 3 2 7 5 3 5-4-1-5-7-3m-595 1q-4 5-1 8 5 2 8-3c1-3-4-7-7-5m666 0-5 11q1 3 7-1 4-2 4-5-1-9-6-5m-574 3q-5 6 2 8c7 1 12-7 5-10q-4-3-7 2m97 0c-3 5 9 13 14 9q3-4-4-8-7-5-10-1m176-1c-3 4 0 13 4 12h3q3 2 6-1c1-2-3-8-7-8l-2-2q-3-3-4-1m132 0c-8 3-11 14-3 14 2 0 7-5 7-7l2-3v-3q0-3-6-1m-457 2c-7 3-8 9-1 9q8 0 8-6t-7-3m393 3c-3 3 1 14 5 14s5-8 1-14q-1-4-6 0m43 0a3 3 0 1 0 5 3q0-4-5-3m-91 1c-3 2-1 9 3 6 2-1 2-6 0-7zm183 1q-1 4 2 8 4 1 5-4c0-3-5-6-7-4m-598 2q-3 4 2 6c4 1 7-5 3-7q-3-2-5 1m202-1q-4 4 1 6 6-1 5-6zm445 1-1 4q1 7 5 3c4-3 1-9-4-7m-377 3c-3 2-2 8 1 8q5 0 5-5-1-7-6-3m450 3q-3 2 0 6 3 8 7 3c5-6-2-15-7-9m-545 5q-3 8 3 9c6 2 10-6 5-13q-5-6-8 4m166-5a4 4 0 1 0 5 5 4 4 0 0 0-5-5m-58 2q-3 2-2 3c2 4 7 3 7-2q0-4-5-1m-178 4a4 4 0 1 0 3-3q-4-1-3 3m267-1a4 4 0 0 0 6 3q2-5-2-5zM5 324a5 5 0 1 0 7 6 5 5 0 0 0-7-6m440 0q-4 6 1 8 4 0 5-7-2-5-6-1m-381 0c-2 3 3 8 7 7q6-2 2-6-4-3-9-1m106 1q-4 4 0 5 4 4 7 0t-2-6q-3-2-5 1m-39 1q-1 5 2 9c3 4 7 1 4-5q-3-7-6-4m496 1c-6 3-5 12 1 9q6-2 6-8-1-4-7-1m-281 0q-3 3 1 7 6 5 7-3a4 4 0 0 0-8-4m126 2v6l2 5q3 12 9 4 4-6-1-10l-4-4q-4-5-6-1m-443 5q-6 10 3 9 9 0 7-10-2-9-10 1m501-2c-4 6 0 12 6 9q5-4 4-8c-1-2-8-3-10-1m53 3q-3 3 0 5a4 4 0 1 0 0-5m-285 1q-4 5 2 6 5-1 4-6-2-5-6 0m12 0q-4 3 0 5a4 4 0 1 0 5-6q-2-2-5 1m254-1a4 4 0 1 0 5 5 4 4 0 0 0-5-5m-196 4q-2 4 1 7c2 4 8 1 8-4s-7-7-9-3m-112 1c-2 2-2 16 0 18q7 7 7-8 0-16-7-10m152 0q-5 7 3 9c4 0 7-6 4-9q-4-3-7 0m274 1c-2 2-3 8-1 9q5 0 8-4c2-5-4-9-7-5m-76 1q-1 5 2 6 4-1 4-5c-1-4-6-4-6-1m98 1q-5 9 1 11c5 0 8-11 4-13q-3-2-5 2m-694 0a4 4 0 1 0 5-1q-2-2-5 1m431 1c-3 4-1 11 3 11 6 0 9-6 5-10q-5-6-8-1m-292 2q-3 3-2 8 5 5 9-3c2-4-3-7-7-5m319 2-2 3c1 3 8 7 10 6q1-3-2-9-2-3-6 0m162 2q-4 9 3 9c6-1 6-11 1-12q-3 0-4 3m-590-1c-5 5-7 12-3 13 5 2 12-3 12-10q-1-6-9-3m173 0q-3 4 1 7l5 3 4 2q5-3-2-9-6-6-8-3m143 4q-4 3 1 6c6 5 13 0 8-6q-5-4-9 0m395 0c-6 6 3 15 9 11q4-3-3-10-5-6-6-1m-325 2c-4 4-2 10 2 10q4-1 5-6-1-9-7-4m177 1q-4 4 0 8a5 5 0 1 0 0-8m102 2a4 4 0 1 0 3-3zm13 3q-6 11 0 12l4-2 4-6q4-8 0-8-4-3-8 4m-272-2q-1 6 3 8c3 0 6-5 4-7q-4-6-7-1m-319 4q-2 5 1 5c4 2 9-3 6-7q-4-3-7 2m62 1a4 4 0 1 0 6 7 4 4 0 0 0-6-7m314 2q-5 3-2 6c4 3 11-3 8-7q-2-2-6 1m-418 2q-3 3-1 8 4 1 7-3c3-4-3-9-6-5m303 0c-2 5 5 11 8 6q2-4-3-7-4-3-5 1m-65 0a4 4 0 1 0 4 0zm-150 3c-2 1-3 6 0 7s8-5 5-8q-2-2-5 1m307 0-5 10c2 4 8 2 10-1q5-12-5-9m174 1q-3 4 0 6 5 1 6-5-2-5-6-1m-416 1q-3 6 4 5a4 4 0 1 0-4-5m69-1a4 4 0 1 0 5 5 4 4 0 0 0-5-5m448 1q-4 6 2 8c6 1 9-5 5-8q-3-4-7 0m-739 1q-3 4-1 7c4 3 12-3 9-7q-5-4-8 0m550 0c-4 9 6 17 13 11q4-4-3-9l-4-3c-1-2-6-1-6 1m-492 1c-5 3-5 10 0 10s8-7 5-9q-1-3-5-1m137 1q-3 3 0 5a5 5 0 1 0 0-5m330 0c-2 4 0 10 3 10s6-6 4-10c-1-3-6-3-7 0m189-1q-3 3 1 7 8 2 6-5-4-5-7-2m-620 3q-3 0 0 6 5 9 7-1c1-5-4-9-7-5m237-1a4 4 0 1 0 6 5c2-4-3-8-6-5m-202 3c-5 3-3 9 3 8q6-1 5-6 0-5-8-2m521 1q-4 2-2 5h7c6-3 1-7-5-5m-170 2q-2 7 4 8 6-1 3-7-4-5-7-1m-95 0q-3 4 3 8 7 4 7-1c0-4-8-9-10-7m197 0c-3 2-2 9 1 10q5-1 6-6 0-7-7-4m-230 2q-4 4 0 7c5 5 11-1 6-6q-2-3-6-1M7 386c-3 1 0 8 4 8q5-1 4-5-2-6-8-3m45 0q-6 3-7 6c1 4 10 2 12-2q2-6-5-4m40 1q-3 1-1 4c2 3 7 2 7-2l-4-4zm223 0-1 4c-1 4 6 5 7 1q0-8-6-5m165 2q-4 2 2 6 6 1 8-2c2-4-4-6-10-4m154 2q-5 9 4 8 6-3 2-8-3-4-6 0m54 1q-3 4 0 6c4 4 11 2 11-2s-8-7-11-4m-571 3a3 3 0 1 0 3 0zm328 4q-5 12 3 14c5 0 7-18 2-19q-2 0-5 5m107-3q-3 3 0 6c4 3 9-4 6-6q-2-3-6 0m15 0c-1 3 2 10 5 10s4-7 1-11q-4-2-6 1m-334 0a4 4 0 1 0 6 6 4 4 0 0 0-6-6m100 2q-1 4 2 7 8 3 10-3c0-4-9-7-12-4m69 2c-4 3 0 7 4 5 3-2 2-7-2-7zm313 0a4 4 0 0 0 6 3q2-5-2-5zm-590 0c-3 3 0 10 4 7q3-2 0-6-1-3-4-1m373 2q-3 4 0 6c4 3 8-3 5-7q-2-2-5 1m123 0a4 4 0 1 0 4-1q-2-2-4 1m-581 1q-5 4 7 9c14 6 18-1 4-8q-8-5-11-1m266 1q-4 5 1 8c7 5 11 0 7-7q-5-7-8-1m-145 0q-5 5 0 8c4 2 9-3 5-6q-3-4-5-2m-76 3q-4 3 0 5 7 2 8-4-3-5-8-1m116 0q-2 4 1 7 5 1 6-2l3-3 2-1c0-2-10-2-12-1m325 3-4 5q0 4 4 4c5 0 9-8 6-12q-1-3-6 3m168-2q-3 5 3 6 3 0 3-2-1-4-3-5zm-274 2-2 1 2 2c4 4 11 2 11-2 0-3-7-4-11-1m-63 1c-4 3 0 9 4 7q4-3 0-7-2-3-4 0m106 1q-3 5 2 14l2 8q1 11 8 2 7-5 2-9-3-2-5-8-3-13-9-7m-84 2c-3 2-4 8-1 10q5 2 6-4 4-10-5-6m-113 4q-11 12-3 13 6 0 12-10c6-9 0-10-9-3m-79-1q-6 14 0 17c5 2 10-11 5-17q-3-4-5 0m566 2q-3 2-1 4l2 5c0 5 6 6 10 3q5-6-3-11c-6-4-6-4-8-1m-108 1q-4 5 3 7c7 2 12-3 7-7q-3-4-10 0m-473 2a4 4 0 1 0 6 4 4 4 0 0 0-6-4m226 0q-2 4 1 9c2 5 7 3 7-2l1-4v-3c-1-2-7-3-9 0M8 422q-3 3-1 8c3 3 9 0 9-4q-2-7-8-4m497 0q-4 5 6 11c7 4 9-4 2-9q-6-5-8-2m-454 2a3 3 0 1 0 6 3 3 3 0 0 0-6-3m391 0q-7 9 6 7 11 0 3-6-4-6-9-1m-210 1-1 5c1 5 8 4 8-1q-1-8-7-4m442 1q-4 4 0 9c3 3 8-3 7-7q-3-5-7-2m-546 0c-3 2 2 9 4 7q3-3 1-7zm486 2q-4 6 1 9c4 0 8-7 5-10q-3-3-6 1m-125 2q-3 4-1 9c3 7 9 4 9-3q-1-11-8-6m-162 1a4 4 0 1 0 5 5 4 4 0 0 0-5-5m45 2q-6 7 1 6 12-1 7-7-3-4-8 1m-228 0c-2 2 0 8 3 9 4 2 13-3 11-7-1-2-12-4-14-2M6 435q-5 6 1 8 5-1 6-5-2-5-7-3m276 0q-3 5 6 8 11 2 6-7c-2-2-10-3-12-1m271 2q-4 4 1 6 7-1 5-5-3-3-6-1m-327 2q-5 2-1 6c3 2 10-2 10-5q-1-5-9-1m164 0-2 5q1 9 8 2c5-6-1-12-6-7m201 2q-8 6-6 10h4l7-4q6-3 4-7t-9 1m-511-1a4 4 0 1 0 4 0zm-19 1a5 5 0 1 0 8 0zm299 1q-2 6 3 7a4 4 0 1 0-3-7m-243 1c-5 3-11 11-11 14q1 6 8 0l3-3q7 0 8-7-2-7-8-4m65 0c-3 2-2 7 2 7l4-4q-1-4-6-3m259 0q-2 6 3 7 5-1 3-6-2-3-6-1m72 2q-2 6 3 7c4 0 5-6 2-8q-2-2-5 1m108-1c-2 2-1 7 1 7q3 2 6-1c2-5-3-10-7-6m-212 6q-4 5 0 7 6 2 7-5c0-4-5-6-7-2m-55 1q-5 2 1 9l3 5q2 4 6 1t-1-7l-3-4q-1-5-6-4m-39 4c-3 6 1 12 6 9q6-2 3-8-5-8-9-1m146-1q1 5 6 6 6-2 3-7c-2-2-8-1-9 1m219 0c-4 4-4 13 0 14q3 0 6-9 0-10-6-5M7 455c-2 0-1 5 1 6a4 4 0 1 0-1-6m199 1v4q6 7 7-2-3-5-7-2m57 1q-5 5-1 9 5 5 9-3 1-11-8-6m448 0q-5 6-2 10c4 3 10-4 8-9q-3-5-6-1m-427 0q-3 2 2 7c6 8 12 6 7-2q-4-9-9-5m348 1q-4 6 5 5 5-2 1-6-4-2-6 1m-485 2q-3 3-2 9 3 4 6-1 2-10-4-8m428 1q-4 4 1 5 6 0 6-5-3-4-7 0m164 0q-10 2-6 7l4 2 6-2q7-3 5-7-1-3-9 0m-639 1q-3 2-2 6c2 5 9 3 8-2q-2-5-6-4m87 1q-3 4 2 8a4 4 0 1 0-2-8m206 1c-3 3 1 15 5 15q5-1 6-7c0-6-7-11-11-8m299 1q-2 5 1 7c2 2 7-2 7-4q-2-8-8-3m-529 2c-3 2-4 9-3 11 1 3 7 3 8 0 3-6-1-14-5-11m438 2q-3 2-1 3c2 3 8 2 8-2 0-2-6-3-7-1m-145 1c-2 4 3 8 6 5q3-4-2-6-3-1-4 1m113 1 1 4 2 5c0 5 7 8 9 4 1-7-9-19-12-13m-31 3v4a4 4 0 1 0 0-4m-498 1c-3 1-6 7-4 9q3 4 8 0c4-5 2-11-4-9m210 1a4 4 0 1 0 6 5 4 4 0 0 0-6-5m-130 3c0 7 7 15 11 13q4-3-1-7l-5-6q-4-6-5 0m321-2c-3 4-1 12 5 15q13 5 4-10-7-9-9-5m-66 1-3 9q3 6 8 0c1-5-2-11-5-9m-294 1q-3 3 2 6 6 3 8-2-1-6-10-4m130 1c-6 5-6 11 1 10q10-3 6-10-2-4-7 0m523 2q-3 4 1 7c5 3 11-3 6-7q-4-4-7 0m-414 0a4 4 0 1 0 6 4 4 4 0 0 0-6-4m341 2c-3 3-1 8 3 6q4-3 1-7-2-2-4 1m-157 1c-3 2-4 9-2 10q5 4 8 0c3-6-2-15-6-10m246 1c-1 4 4 7 7 3q2-6-3-6-3 0-4 3m-393 3q-5 4 1 7 6-1 6-5-2-5-7-2m241 0c-2 1-1 7 2 7q5-1 3-6-3-3-5-1M3 490q-3 6 2 9 5 0 3-6t-5-3m404 1c-4 5-1 11 3 9q6-4 5-10-5-2-8 1m312 0c-2 4 4 9 8 6q3-2-1-6-5-4-7 0m-334 0q-4 4-2 8c4 4 10 1 10-4q-1-8-8-4m300 2q-4 6 3 7a4 4 0 1 0-3-7m-412 1c-4 4 0 9 5 7q6-3 3-7-5-4-8 0m308-1c-3 3 0 13 3 13q4-1 3-7-2-10-6-6m-19 2c-3 2-2 8 2 8q4-1 4-6-1-6-6-2m-243 2q-3 9 5 11 4 0 4-4c2-6-6-12-9-7m-278 1q-3 7 5 7 6-3 2-7-5-4-7 0m116-1q-3 3 2 6 6 3 7-2c0-4-6-6-9-4m136 3c-2 2-2 7 0 7 3 2 9-5 7-8q-4-2-7 1m-92 2a4 4 0 1 0 5 6 4 4 0 0 0-5-6m456 0c-3 3 0 9 4 8q4-2 2-6-2-5-6-2m-404 3q-5 5 3 7 8-1 3-7-4-3-6 0m417 0q-2 6 4 7t1-5q-3-5-5-2m-488 2-8 3-5 2h10q14 0 10-4-2-4-7-1m34 0q-4 5 3 5 5 1 4-3-3-6-7-2M6 507l-1 3c0 3 7 3 8 0s-4-5-7-3m25 0q-4 4 3 5 4 0 4-3c0-3-5-4-7-2m534 1q-4 4 3 4 6 0 2-4-3-3-5 0m-442 1q-8 4 2 3 8 1 6-2-2-4-8-1"
        mask="url(#16282281824-posters-1720559175854-radial-mask)" itemprop="regular" fill-opacity="0.90"
        fill-rule="evenodd" stroke="none" fill="url(#16282281824-posters-1720559175854-horizontal-regular)"></path>
      <!---->
      <path id="16282281824-posters-1720559175854-medium"
        d="M140 2q-6 4-3 8 3 3 8-3 8-11-5-5m209-1q-3 4 1 7 5 0 5-5-1-5-6-2m-80 1q-4 5-1 8 2 2 4-1 4-6 0-7zm201 1q-2 3 1 7c4 1 7-4 4-6q-3-3-5-1m220 2q0 6 4 7a4 4 0 1 0-4-7m31 1q-2 6 4 7 3 0 3-3c0-6-5-8-7-4M218 6q-3 4 1 6 5-1 5-6zm218 0q-3 6 2 5 4-1 5-4c-1-2-6-2-7-1m56 1 6 4c10 5 16 2 7-3-5-4-13-4-13-1m163-1q-3 4 2 10 2 4 4 1c3-4-2-15-6-11M24 8q0 8 5 8c2-1 3-7 1-9q-4-2-6 1m81-1c-5 3-1 9 5 9q5 1 2-5-3-7-7-4m84 0c-3 2 2 9 6 9q6-1 7-5c-1-3-11-6-13-4m55 3q1 4 6 5 3-2 1-6-4-2-7 1M73 12q-4 8 1 10c3 0 6-6 6-9 1-5-4-5-7-1m489-1c-1 3 8 9 12 7v-6c-2-3-11-4-12-1m-197 1c-4 4-2 11 3 11q3 1 4-6c2-6-3-10-7-5m-66 2c-4 5-2 12 3 12s6-8 2-12q-3-4-5 0m101 4c-2 1-1 6 1 6a4 4 0 1 0-1-6M7 21c-3 2 1 7 5 5q4-1 0-4-3-3-5-1m605 0c-3 4 2 9 7 6q2-3-1-5-3-3-6-1M37 25q-4 5 0 7c4 2 8-5 5-8q-3-3-5 1m398-1q-2 5 4 9 13 5 4-6-5-6-8-3M70 26c-3 3 1 11 5 10 5-2 5-8 0-10zm176 1q-2 2 1 8 4 8 6 3c3-6-3-15-7-11m160 0c-2 2-1 9 1 10q5 2 5-6-1-8-6-4m-305 2c-2 3-2 11 0 12q6-1 7-7c0-5-5-7-7-5m97 1c-3 4-3 13-2 16q5 4 6 1v-4c2-13 1-15-2-15zm475 1c-5 3-1 8 5 7q5-3 2-7-3-3-7 0m-447 3q-5 7-2 10 2 3 4 1c3-3 5-9 5-10q-3-3-7-1m44 0c-3 2-4 8-2 10q4 3 7-3 4-11-5-7M12 35v7q5 2 8-1c2-5-4-9-8-6m134 0a4 4 0 1 0 6 5 4 4 0 0 0-6-5m497 1c-3 2-1 7 3 7q4-1 5-5c0-3-6-5-8-2m-91 3q-3 4 2 6c3 0 6-5 4-7q-2-3-6 1m-389 0q-3 5 2 8c5 3 8-4 4-7q-4-3-6-1m168 2q-1 4 5 5 3-1 2-5c-1-3-7-3-7 0m131 8c-5 4-3 13 2 13q5-2 4-11-1-8-6-2M83 48c-2 0-1 5 1 7q3 2 5-1 2-8-6-6m310 1c-1 1 1 9 1 10q3 0 5-4c0-4-5-9-6-6m-95 2a5 5 0 1 0 5-1q-5-2-5 1m69 0v5q4 2 7-1-1-6-7-4M66 54q-5 9 1 11c4 0 6-10 2-11zm-41 2-1 2q-1 1 2 12 2 6 6 2c3-4-1-18-6-18zm637 0q-4 6 3 7 7-1 4-6-5-4-7-1m35-1c-3 4 3 7 6 4q1-2 3 1 4 4 6-2 0-4-5-3-3 3-5 1-3-3-5-1M83 59v4q5 2 8-1c1-5-6-7-8-3m337 0q1 5 6 6c5-1 2-8-3-8zm65-1q-6 5 0 7 6-1 4-6 0-3-4-1m247 3c-3 8 0 15 5 12q6-4 2-11t-7-1m-618 1q-4 5 0 8c4 3 8-4 4-8q-2-3-4 0m147 4q-4 7 3 9c2 0 4-5 3-7q-3-6-6-2m370 1q-1 5 5 5 7 0 1-5-5-3-6 0m-467 2q-3 3 2 5 6 2 4-4-3-3-6-1m517 1q-3 4 2 6 6-1 6-6-2-4-8 0m-335 4q-6 3-3 7c3 2 10-5 8-8q-2-2-5 1m-148 0c-3 0-4 5-2 7q4 3 7-3 0-5-5-4m163 1q-2 1 1 3 5 4 6-2-3-5-7-1m192 0c-8 5 1 10 10 6q5-3 0-6-4-4-10 0m-109 1q-4 8 5 6 4-3 0-6-3-3-5 0m248 1q-1 5 5 5 3 0 2-6-4-5-7 1M3 78q-6 4 0 6 8 1 6-5c-3-2-2-2-6-1m724 0q-2 3 1 6 6 4 5-5-3-3-6-1m-595 4c-1 3 7 11 11 10q4-2-1-7-7-6-10-3m26 0-2 4q0 8 6 5c4-3 0-12-4-9m137 1q-3 4 2 7 4 2 5-1c2-5-3-9-7-6m229 1a4 4 0 1 0 6 0q-3-4-6 0M61 84v4c3 5 9 3 6-2q-2-5-6-2m167 0c-4 1-3 8 2 8 3 0 9-4 9-6q-3-5-11-2m-42 2q-3 6 7 10 10 2 1-7-6-6-8-3m78 3q-1 3 5 3 12 2 3-4-9-2-8 1m363 2c-3 1 0 8 3 8q3 0 3-5-2-4-6-3m19 0c0 1 4 8 6 9q8 2 6-6c-1-3-10-6-12-3m-518 3c-2 3 1 12 4 12q2 1 2-6-1-12-6-6m180 0q-3 4 5 7 8 1 7-3c0-5-9-8-12-4M17 97c-3 2-6 10-4 13q6 4 9-6 1-10-5-7m43 0q-6 4-3 7 4 4 9-1 2-7-6-6m38 1q-3 5 3 8 11 2 5-6-5-5-8-2m54 3q-5 6 3 7 5-1 3-7-2-3-6 0m210 1q-8 6 3 7 12 0 6-8-3-4-9 1m53 1c-1 3 4 7 7 4v-4c-1-2-6-3-7 0m262-1v7c3 5 9 4 9-1 0-4-7-9-9-6m53 3-2 4c0 4 10 3 11-1 1-5-6-7-9-3m-529 2q0 4 5 5 5-2 2-6c-2-2-7-1-7 1m243-1q-3 6 2 8 7-1 5-7-3-3-7-1m79 1a4 4 0 1 0 6 0q-4-4-6 0m91 4q-2 3 1 8c3 3 7-5 4-9q-2-2-5 1m-540 0q-3 2 2 5 6 1 6-3-2-4-8-2m510 0a5 5 0 1 0 7 6 5 5 0 0 0-7-6m-411 2q-2 3-1 4c2 4 7 1 7-3q-2-5-6-1m-130 2q-5 6 1 11 6 6 8-4 0-12-9-7m148-1c-2 2 4 10 7 10q4 0-1-7-4-6-6-3m136 0q-4 1-1 5 3 3 7 0c2-2-3-6-6-5m138 1c-3 3 1 10 5 9q4-3 0-8-3-3-5-1m-362 1v3l1 4q2 4 4-2 2-8-5-5m126 0c-2 0-1 5 1 6a4 4 0 1 0-1-6m426 3c-2 3 6 10 9 8q3-2-2-7t-7-1m93 1q-6 6-5 9c1 4 7 4 9 0l3-4 2-5q-2-6-9 0m-446-1q-3 3 2 6 7 3 7-3c0-3-6-5-9-3m146 2c-1 2 1 8 3 9q6 1 4-6-3-6-7-3m-380 3c-1 4 7 13 11 11q6-5-4-11-6-3-7 0M0 134l1 10c2-1 3-18 2-20q-3-5-3 10m371-8q-5 5 1 6 5 3 6 0c2-4-4-9-7-6m242 4 3 13q2 3 5-1c1-7-5-16-8-12m79 2c-3 5 3 15 7 12 2-1 2-10 0-13q-4-2-7 1m-518 2q-4 4 3 7c5 1 7-5 3-8q-2-4-6 1m139-1v5q4 4 6-1-1-7-6-4m61 4q-5 1-5 4c0 4 9 6 12 3q3-7-7-7m-179 3q-4 4 1 6 5-1 3-6-2-3-4 0m89 2q-1 7 3 10c4 1 6-6 3-11q-4-5-6 1m359-1q-3 4 2 9 5 6 6-1-2-12-8-8m-516 1c-3 1 1 7 4 7l4-4q-1-5-8-3m25 1c-3 6 4 16 8 13q5-3 0-7l-3-4q-4-5-5-2m290 2q-4 10 3 3 5-5 0-6zm-33-1c-4 3-1 8 5 7q3 0 3-3-1-7-8-4m-377 4q-4 3-1 5 1 3 3 3c3 0 9-5 9-7 0-5-7-5-11-1m70 2q-2 6 4 7 5-2 1-6-3-3-5-1m328 3q-4 6 3 7 4 0 4-5-1-5-7-2m296 0c-3 2-1 8 2 8q5-1 3-7-2-3-5-1m-521 3 1 3v6q0 8 4 8c4 0 6-13 2-17q-4-4-7 0m267 0v4c0 4 5 4 6 0q-1-7-6-4m96 2q-1 3 4 5 6 0 4-5c-1-3-7-3-8 0m-200 1c-7 5-8 25-1 20q2 0 2-5-1-5 2-8c4-6 3-11-3-7m-36 0v4q4 6 6 1 2-8-6-5m181 4c-3 5 1 15 4 14 2-1 5-7 5-10 0-6-7-9-9-4m-439 0c-6 2-9 12-4 12q6-1 8-8 1-5-4-4m91 1q-3 2 0 3c6 5 14 7 14 3 0-6-11-10-14-6m-149 1q0 4 5 5c6-1 4-7-2-7q-3 0-3 2m634 1c-3 5 0 14 3 14s3-2 2-15q-2-2-5 1m-258 2q-2 5 4 5 5 0 2-6-3-5-6 1m-162 0q-3 6-1 11c6 5 11-6 5-11q-3-4-4 0m394 3c0 2 5 8 7 8q3-1 2-5c-3-6-9-8-9-3m95-1c-2 2-1 8 2 10q5 4 5-3-3-11-7-7m-591 2q-1 4 4 5c4 0 4-6 0-7q-3 0-4 2m-95 0-5 1q-5 2-1 6c4 4 13 0 13-5q-2-5-7-2m554 1q-1 6 2 7 5 1 5-5c-1-5-6-6-7-2M1 175l-1 4q-1 5 4 4 7 1 4-6-2-4-7-2m146 1a5 5 0 1 0 10 4c0-6-8-9-10-4m-61 1c-2 2-1 7 1 7q5 2 6-3c1-4-4-7-7-4m229 1q-4 6 5 8 4 0 5-5c0-3-7-5-10-3m83 0q-2 3 1 6l1 3 2 3q1 2 1-2l1-6c2-3-3-7-6-4m294 0c-4 4 0 11 5 8 4-2 2-9-2-9zm-636 1c-3 2-2 8 0 9 4 3 8-3 5-8q-2-3-5-1m617 6c-3 0-3 6 0 6q12-1 5-6zm-222 3c-5 6-3 21 3 17q2 1 2-8v-9q1-6-5 0m-311 0q-3 6 2 7 6-2 4-8-3-2-6 1m465 0q-3 3 0 7c3 4 8-2 5-7q-2-4-5 0m-586 1-5 4q-5 1-1 7 4 5 7-1l2-4c2 0 4-5 3-7q-3-2-6 1m234-1q-3 3 1 9 6 6 8 1c1-7-5-14-9-10m-28 1c-2 1-1 6 1 7q5 1 5-5-3-5-6-2m338 1q-2 6 1 8c4 0 5-9 2-10zm-390 1q-3 2 0 5 5 2 6-3-1-5-6-2m320 1c-4 3-1 8 4 6a3 3 0 1 0-4-6m224 2c-3 4 2 11 6 8q3-4-1-7-3-3-5-1m-323 6q0 4 6 6 5-1 1-6-4-4-7 0m-304 1q-3 3-4 9l3 3c5 3 11-7 6-11q-2-3-5-1m-47 4q0 5 4 6 4-1 2-7-4-5-6 1m250-2q-5 6 3 8 6-1 2-7-3-3-5-1m-99 2q-3 5 2 6 4 0 4-5-2-5-6-1m141-1c-2 3 2 13 5 13l2-3c2-6-3-14-7-10m344 0c-4 3-2 14 2 14 3 0 4-10 1-13q-1-3-3-1m-302 1c-4 1-5 6-1 6q6-1 7-4a4 4 0 0 0-6-2m42 0c-4 2-2 8 4 8q4-1 3-5t-7-3m-282 2c-5 1-8 9-6 13q2 6 6 0l4-6 2-5q-2-3-6-2m585 1q-1 4 2 6 5 2 5-3c0-5-5-7-7-3m29 1c-4 6-1 15 5 17 7 2 10-3 4-7q-4 0-2-5c1-6-4-10-7-5m-719 5c-2 1-1 6 1 6a4 4 0 1 0-1-6m-32 3q2 7 9 5 4-3-2-5l-4-2q-3-3-3 2m398-1q-3 3-1 7c4 4 10-2 7-7q-3-4-6 0m-164 0c-2 3-2 11-1 12 3 1 7-4 7-7q-1-9-6-5m211 0q0 5 2 6 5 1 6-5c-1-2-7-3-8-1m-164 1q-2 3 0 6c2 2 7 0 7-2 0-4-5-7-7-4m409 2q-3 3 2 6c5 5 13 3 9-2-2-4-9-6-11-4m41 0c-4 3 1 10 6 9q9-3 0-8-5-3-6-1m-517 4-7 6-2 4q3 6 7 0l2-3c3 0 8-5 8-7q0-6-8 0m154-2q-4 3 0 6c4 4 10 1 8-4q-3-6-8-2m296 2q-3 3-2 8 4 2 5-1c2-4 0-9-3-7m-635 1q-6 3 1 7 5 5 8 1c5-5-1-11-9-8m128 4c-5 6-3 15 3 15q5-1 5-6l1-5c4-8-2-10-9-4m465-2v9c2 3 6-4 4-8q-1-3-4-1m-303 5c-4 6 1 12 5 7q4-4 0-7-3-4-5 0m394 1q-6 2-4 7c3 2 12-2 12-6q0-5-8-1m36 1q-4 4-1 8l2 4q1 4 2-3 3-16-3-9m-184 2c-4 3-2 9 3 6l3-3q-1-5-6-3m-532 4c-2 3-2 15 0 16q8 0 9-9c0-5-7-10-9-7m158 2q-1 4 2 6a4 4 0 1 0-2-6m-133 1c-2 1-3 6-1 6l1 2c-1 3 5 3 8 0 6-6-1-13-8-8m65 0c-4 4-3 9 2 7q4-1 3-5-2-6-5-2m317 0q-2 4 1 5 5 1 5-4-2-5-6-1m283 3q-4 9 4 3 6-4 3-6-4-3-7 3m-67-1q-3 2-2 8l2 3 6 3q5 4 6 1c1-1-2-12-4-15q-3-3-8 0m-283 3q-4 4 2 7 10 2 5-7-4-4-7 0m121-1q-2 3 0 6a4 4 0 1 0 0-6m-361 3c-3 5 2 13 7 10 3-2 4-9 2-11q-4-3-9 1m466 0q-4 5 2 9 4 2 4 4a2 2 0 1 0 3-1v-5q2-1-1-4l-1-3zm-356 3c-3 2-1 10 3 10s6-6 3-10q-2-3-6 0m319 0q-3 6 2 8c2 0 4-5 3-7q-2-3-5-1m-383 1q-2 4 2 9 4 1 6-4-2-8-8-5m562 1q1 6 6 8 3 0 4 3 2 4 5 0c4-3 1-9-3-7q-2 1-4-2-5-7-8-2m-214 1v6l2 3c0 1 4-2 4-4q-1-8-6-5m173 0a3 3 0 1 0 4 6 3 3 0 0 0-4-6m-386 2q-5 3-1 8c5 3 11-5 7-8q-3-3-6 0m396 0q-2 3-1 4c1 4 8 3 8-1 0-5-5-7-7-3m-316 4q-4 15 3 11 5-6 3-11-4-4-6 0m53 1c-4 4-10 18-9 20q5 5 9-4l3-9c4-7 1-13-3-7M1 263c-2 1-1 9 1 11q2 1 2 7c0 7 6 7 8-1 3-10-4-20-11-17m414 0c-2 0-1 7 1 10 5 5 9-1 5-8q-1-5-6-2m74 0q-3 4 1 6 6 2 4-4-2-5-5-2m236 4q-6 1-1 7 7 9 11-2 0-10-10-5m-654 1q-4 5-2 9c2 6 8 2 8-5q0-9-6-4m482 2q-7 8 2 7 8-4 4-9-2-4-6 2m-376 2q-6 6 0 8 6-2 8-8-3-4-8 0m323-1-1 5c0 2 5 1 6-1 2-2-2-6-5-4m-149 2c-3 2 0 8 4 8q4-1 1-7-2-3-5-1m255 4c-2 2-1 8 1 9 6 3 10-3 6-8q-4-3-7-1m-581 2q-2 9 6 4 4-4-2-6zm65 0c-3 2-4 10-1 12 3 1 9-3 10-8s-5-8-9-4m196-1v9q6 2 8-3-1-10-8-6m92 1c-3 5 1 10 5 6q4-3-1-7-2-2-4 1m265 0c-4 4 0 9 5 7a4 4 0 1 0-5-7m-440 1c-4 3 3 13 7 11q5-4 1-9-4-3-8-2m-149 1q-3 4 3 7 9 4 8-2c-1-2-10-7-11-5m630 1q-3 3-3 14 0 9 6-1l3-6c3-5-3-12-6-7m69 1c-4 2-2 9 2 9q11-1 4-9-3-3-6 0m-222 6v7a4 4 0 1 0 0-7m27 0a4 4 0 1 0 6 0zm-221 3q-5 5-2 8 6 3 8-6 0-9-6-2m137 2c-1 1-1 8 1 11q4 3 7-1c3-6-4-16-8-10m-294 2c-2 0-1 5 1 6a4 4 0 1 0-1-6m37 5q-3 6 3 7c6 0 7-6 1-8q-1-1-4 1m445 0c-2 4 3 8 6 5v-4c-1-2-6-3-6-1m-595 1-1 4q-2 4 2 3 7-1 4-6-4-3-5-1m666 0q-5 8-4 11c2 0 9-4 10-6q0-8-6-5m-574 2q-4 4 0 7 6 3 9-4c2-5-5-7-9-3m99 0q-4 5 6 9 3 2 5-1 5-3-5-7c-5-3-4-3-6-1m174 0q-3 11 7 11t4-5q-11-9-11-6m131 0q-7 3-6 8 3 10 10-3 6-9-4-5m-456 2q-9 6-1 8 7-1 7-6-1-5-6-2m394 2c-2 1-1 9 2 12q5 4 5-4-1-11-7-8m135 3c-2 2 0 7 3 7 2 0 3-6 0-8q-1-2-3 1m48 2c-3 2 0 8 4 7 2-1 1-7-2-8zm-378 3q-1 6 2 7 4-1 5-5c0-4-5-5-7-2m453 1q-5 2-1 8 5 6 7 0 1-8-6-8m-545 3-2 6q-2 6 4 6 10-1 4-12-4-6-6 0M5 325a4 4 0 1 0 6 4 4 4 0 0 0-6-4m60-1q-3 7 7 7 5-3-1-7zm380 1q-3 4 0 6c2 2 6-3 6-6q-1-4-6 0m-275 1q-2 3 4 5 5 0 3-5-3-4-7 0m-38 1c-3 2 0 9 3 9q4 0 2-6-3-6-5-3m215 0a4 4 0 1 0 5 7 4 4 0 0 0-5-7m278 1q-3 5 0 7 6 2 8-6-1-6-8-1m-152 0q-4 2 0 7l2 4q1 10 7 5 5-5-1-10-4-2-4-4 0-3-4-2m-441 2q-7 11-4 12c5 4 14-3 11-10q-3-5-7-2m499 3q-3 4 0 7c3 3 10-3 8-7q-3-4-8 0m-233 2q-3 8 3 6 4-1 2-6zm71 4q-2 7 4 8 3 0 3-4-1-9-7-4m-113 1v17c0 3 5 3 6 0 1-2 1-15-1-16q-3-3-5-1m152 0q-4 7 3 8c5 0 6-7 2-8zm274 2q-4 6 2 7 5 0 5-6-3-5-7-1m23 1c-3 2-4 8-2 10q3 3 7-3c2-6-1-12-5-7m-695 1q-3 2 0 3a4 4 0 1 0 0-3m431 0v9a5 5 0 1 0 0-9m-291 2c-4 1-3 9 0 9a5 5 0 1 0 0-9m318 3q-5 3 4 7 6 3 3-4t-7-3m-426 0c-3 2-8 9-8 11l8 2c4-1 9-9 5-12q-1-3-5-1m171 2q-1 4 3 5l2 2q4 4 7 0c0-1-7-10-9-10zm417 0q-4 6 0 7 7 3 7-7-3-6-7 0m-275 3q0 5 7 6l4-2c1-5-9-9-11-4m395 1q-1 9 8 9 6-2 0-8-6-7-8-1m-323-1c-4 2-3 10 1 10q4 0 4-6-1-5-5-4m177 2q-3 3-1 7 8 3 6-6-1-3-5-1m117 1-6 12q1 4 5 3l3-3 2-5q4-7 1-7zm-274 2q-2 3 1 6c3 3 7-2 4-6zm-319 4q-2 7 5 4v-6l-2-1zm62 2q-4 5 1 6a4 4 0 1 0-1-6m313 2q-4 4 0 5 5-1 6-5-1-4-6 0m-418 1c-4 4-2 9 3 7q5-3 2-8-3-2-5 1m304 0c-3 3 2 10 6 7a4 4 0 0 0-6-7m-67 2q0 6 5 5a4 4 0 1 0-5-5m332 2c-3 4 1 8 4 4a3 3 0 1 0-4-4m-175 2c-5 7-2 12 4 7q4-2 3-6-2-7-7-1m87 0c-3 5 1 12 7 12q13 0 2-10-8-7-9-2m190 0c-4 3 0 9 5 6a4 4 0 1 0-5-6m-740 0q-2 4 1 7c3 3 9-3 6-7zm196 2q-3 2-1 4a4 4 0 1 0 1-4m329 1c-3 4 2 10 6 7v-9q-3-3-6 2m-468 0-2 4c1 5 9 2 9-3q-2-5-7-1m657-1q-2 1 1 4 3 4 6 0c1-4-4-7-7-4m-620 2c-2 1 1 10 3 10 5 0 5-10 0-11zm34 4q-3 2-1 4 4 3 9-2c3-4-4-6-8-2m257 1q-2 3 3 7c7 4 10 0 4-4q-6-5-7-3m96 0c-2 1-1 6 1 7q5 2 5-4-1-5-6-3m102 0c-2 0-3 5-2 7 1 5 7 2 7-3q0-5-5-4M9 386q-3 1-1 6c3 3 8 0 6-4q-2-3-5-2m359 1q-3 2 0 4 8 5 6-4-2-4-6 0m-320 2q-3 2-2 4c3 3 11 0 11-4q-2-6-9 0m435 0q-9 2 1 6 3 0 5-2 4-4-6-4m152 2q-4 4-1 7 5 3 7-3 0-6-6-4m53 2c-3 2 1 7 5 7q8-1 4-6c-2-2-8-3-9-1m-240 2c-6 6-6 17 0 17q3 0 3-2l1-15zm121 0c-2 1-1 7 0 9q5 5 5-3-1-9-5-6m-335 1c-2 0-1 5 1 6 4 2 7-3 4-6zm318 0v6q6 0 7-5-3-3-7-1m-218 2c-4 5 6 10 10 6q2-2-1-5-5-3-9-1m165 3c-4 4-2 10 3 7q3-3 0-6-1-3-3-1m-193 3q-5 4 1 7 12 6 7-5-4-8-8-2m-266-1-1 3c1 5 18 11 20 6 1-4-14-12-19-9m120 3q-2 5 3 6 6-1 3-6-4-4-6 0m-74 1q-4 3 1 5 6 0 5-5-2-4-6 0m124 0h-4a4 4 0 1 0 2 5q1-3 3-3a1 1 0 1 0-1-2m316 3q-5 6-1 8t6-4c4-7-1-10-5-4m-102-1q-9 3 0 5 9 1 6-5zm-67 2q-2 6 2 7 5-1 3-6-2-3-5-1m106 3q-2 2 1 8l4 14q0 7 6 1 7-7 2-10l-4-7q-4-14-9-6m-84 1q-2 1-2 5c1 7 7 4 8-4q1-5-6-1m-110 2c-7 4-11 12-8 14 5 1 16-10 16-15q-1-4-8 1m-82 1c-4 7-3 16 1 16 2 0 6-7 6-11 0-6-5-10-7-5m566 1v5l2 4q3 7 9 1 5-3-3-8-5-4-8-2m-108 2q-3 2-1 3 6 5 11 1c5-4-4-9-10-4m-245 0q-5 3-2 9 5 7 8-2 2-10-6-7M7 424q-1 4 2 6 4 1 6-3c0-5-6-7-8-3m498 0q0 6 8 9 9 1 0-8-8-6-8-1m-62 1q-6 7 5 6 10 0 3-5-5-5-8-1m-211 1q-3 5 2 6a3 3 0 1 0-2-6m442 1q-4 6 2 8c4 0 6-6 3-8q-2-3-5 0m-60 2q-5 8 3 6 5-2 3-7-2-2-6 1m-125 1v10c2 5 8 1 8-5q-2-9-8-5m-117 4q-5 4 0 5 8-1 9-5-3-6-9 0m-228 1c-2 5 7 9 12 4q6-4-5-5-6-2-7 1m139 0q-2 1 1 5 6 5 11 2c3-4-6-10-12-7M5 436c-2 2 0 7 2 7q4 0 5-4c0-4-5-5-7-3m221 3q-3 2-2 5 2 3 8-1c5-3 1-7-6-4m164 1c-4 5-1 10 4 7l4-4c1-4-6-6-8-3m201 1q-5 4-6 8 1 5 5 0l5-3q6-2 5-5-2-4-9 0m-529 1a4 4 0 1 0 6 5 4 4 0 0 0-6-5m299 0c-2 0-1 5 1 6q4 2 4-3t-5-3m-250 7-5 8q2 5 8 0 2-4 6-4c7-2 7-10 0-10q-3-1-9 6m511-4q-4 5 1 6a4 4 0 1 0-1-6m-212 4q-4 5 1 8c3 0 6-5 3-7q-1-3-4-1m-57 4q-1 1 1 5l4 6q4 5 6 1 3-2-1-5-3-2-3-5c0-3-5-5-7-2m-37 2q-4 7 2 9c5 0 8-6 4-10q-4-5-6 1m147-2a5 5 0 0 0 7 6c3-4-4-9-7-6m217 1c-3 4-3 12 0 13q2 0 4-3c3-8 0-14-4-10m-417 4q-5 6 1 9 5 0 6-4c2-6-3-9-7-5m448 0c-3 2-2 8 0 9q5-1 6-7-2-6-6-2m-426 0q-3 1 2 6 10 9 6-3-4-5-8-3m347 0q-3 4 2 5 6 0 5-4c-1-2-6-3-7-1m110 2-4 2q-5 0-5 5c2 3 12 2 15-3q2-6-6-4m-596 1c-3 4-1 12 3 9 2-1 2-9 0-10zm-47 2a4 4 0 1 0 6 6 4 4 0 0 0-6-6m89 1q-3 3-1 6c2 2 7 1 7-2 2-4-3-7-6-4m206 0c-2 2-1 9 1 12q4 4 8-1c2-6-5-15-9-11m299 2q-5 8 5 5 4-3 0-7-2-2-5 2m-532 4q-2 7 1 9c4 3 9-5 6-10q-4-5-7 1m408 2 3 8q4 9 8 4 1-5-4-11c-1-2-8-3-7-1m-531 5q-5 7 1 8 8-2 6-8-2-3-7 0m82 0c-1 4 5 15 9 15q6-1 1-6l-5-6q-3-6-5-3m321 2c-3 6 4 15 11 14q5 0-2-10-7-9-9-4m-67 2q-3 6 2 8 5-1 3-8-3-6-5 0m-293-1c-3 2 2 6 6 6q5-2 3-6c-2-1-8-2-9 0m130 1c-6 4-4 11 3 7q7-3 4-7-2-3-7 0m523 1-1 3c0 4 7 6 9 2s-5-8-8-5m-230 4c-3 3-3 10 1 11q5 0 5-7-1-9-6-4m-147 4q-5 6 4 4a4 4 0 1 0-4-4m51 1q-4 5-1 8c3 2 9-4 7-8q-2-4-6 0M3 492v6q6 2 5-6-2-4-5 0m716-1 1 4c1 3 6 2 7 0 0-4-6-7-8-4m-335 1q-2 5 1 8a5 5 0 1 0-1-8m302 1c-4 2-2 8 3 7q5-2 3-8-2-2-6 1m-413 2q-3 2 0 5c2 2 8 0 8-4 0-3-6-4-8-1m308 0c-2 4 0 10 2 10q5 0 3-8-2-6-5-2m-20 0q-1 5 3 7 4-1 3-6c0-2-5-3-6-1m-240 2c-4 3-2 11 3 11 4 0 6-7 2-11q-2-3-5 0m-281 3q0 4 5 4c6-1 5-7-1-7q-3 0-4 3m117-1q1 5 7 4 4-1 0-4c-2-3-7-3-7 0m137 1c-5 4-3 9 2 6q5-4 3-7-2-2-5 1m363 4a3 3 0 1 0 6 2q-1-8-6-2m-404 2q-5 5 4 6 5-3 1-7-3-2-5 1m-72 2-7 3q-7 1 5 1 14 1 9-5-2-2-7 1"
        mask="url(#16282281824-posters-1720559175854-vertical-mask)" itemprop="medium" fill-opacity="0.90"
        fill-rule="evenodd" stroke="none" fill="url(#16282281824-posters-1720559175854-vertical-medium)"></path>
      <!---->
      <path id="16282281824-posters-1720559175854-bold"
        d="M141 3q-6 4-2 7c2 0 9-6 9-8q0-4-7 1m127 2c-2 5 2 7 4 2a3 3 0 1 0-4-2m225 2 6 4q11 6 10 1l-1-2-4-2c-4-3-11-4-11-1M25 9q-2 5 3 6 5 0 2-6-2-4-5 0m80-1v6c1 1 8 2 8 0 0-4-6-9-8-6m84 0q-1 4 5 7 9-1 6-6c-2-2-11-2-11-1m465 1c0 2 4 9 6 8V9q-3-4-6 0M73 13q-3 5-1 6l1 1 1 1c2 0 6-6 6-9s-5-3-7 1m293-1c-4 3-1 12 2 11 4-2 5-11 2-12q-3-2-4 1m197-1c0 3 7 7 10 6q4 0-1-5c-3-2-9-3-9-1m-264 4c-3 6 2 14 6 10V15q-4-4-6 0m313 7q-2 2 1 5 9 2 4-4-1-3-5-1M37 25q-2 4 1 7 4 0 4-6-2-3-5-1m398 0c-1 3 4 9 9 9q4 0-1-6t-8-3M70 27v5c1 4 8 4 8-1 0-4-6-7-8-4m176 1 3 11c3 4 6-2 3-8q-3-6-6-3m160 0q-2 4 1 8 4 2 5-5-2-6-6-3m-208 2c-2 4-3 14-1 16q5 2 5-1v-7q1-14-4-8m-97 3q-4 7 0 7c5 0 8-7 5-10q-3-3-5 3m572-1q-4 5 3 5 4 1 5-2 0-8-8-3m-446 3q-5 6-3 9c3 2 8-4 8-8q-2-5-5-1m43 0c-2 1-4 7-2 8q4 2 7-3 3-10-5-5M12 37q-1 1 1 4c2 4 7 2 7-3 0-3-6-4-8-1m631-1q-3 3 2 6c4 1 7-4 3-6zm-479 3q-3 6 4 8l2-6q-2-3-6-2m298 10c-4 4-2 13 3 12q4-3 2-11-1-6-5-1m-164 2q-3 6 0 9a5 5 0 1 0 0-9M65 57q-3 7 2 7 4-1 3-7-2-6-5 0m-40 0c-1 11 3 19 7 15 1-2-1-15-3-16q-3-2-4 1m637 0c-2 5 3 8 6 4q3-4-1-5l-2-1zm71 3q-3 9 0 12 4 3 7-4c1-5-5-12-7-8m-620 2q-1 7 3 8 5-1 3-6-4-5-6-2m147 6q-1 6 3 6c5 0 5-8 0-9zm84 8q-3 2-1 4t5-1l3-5q-1-3-7 2m211-1q-9 8 4 6 8-2 3-6-3-3-7 0m-358 0v6a4 4 0 1 0 0-6M2 79q-5 3 1 4t6-2q0-5-7-2m131 5c0 2 5 7 8 7q5 1 0-6-6-6-8-1m25 0q-2 9 4 6 3-5-2-8zm137 1q-3 3 3 5 5-1 3-6t-6 1m-68 0q-2 3 1 5c2 2 10-1 10-4 0-2-9-3-11-1m-40 2q-2 4 6 8 8 2 1-5-6-7-7-3m460 5c0 2 5 8 8 8q4-1 2-7c-1-2-9-3-10-1m-518 2v7l1 2q1 4 3 2c3-5-1-15-4-11m179 1q0 6 10 5 5-1 0-5c-3-3-10-3-10 0M17 98c-2 1-4 8-4 11 2 3 8 0 9-5q1-9-5-6m42 1c-5 4-1 9 4 5a4 4 0 1 0-4-5m40 0q-5 4 0 5c5 4 10 1 7-3q-4-5-7-2m53 1q-3 6 3 7 3 0 3-4-1-6-6-3m211 2q-8 4 0 5 9 5 9-4-1-6-9-1m314 1q-2 2 1 6c4 6 10 3 7-3q-3-7-8-3m53 3q-4 5 2 5 5 0 6-5-3-4-8 0m-284 0q-3 2-2 6 2 5 6-1 2-6-4-5m78 3q-2 6 4 4 4-2 0-6-3-3-4 2m91 2q-2 3 0 8 2 2 4-2c2-3-1-9-4-6m-31 2q-1 4 4 5 4-1 3-6-4-3-7 1m-540 2q-4 5 0 10 4 6 6 0 3-6-1-10-2-3-5 0m147 1c0 2 5 7 7 7q3 1-1-5-5-6-6-2m274 3q0 4 4 4 6 0 1-6-5-5-5 2m191 0c-2 3 4 9 6 8q4-2-1-7t-5-1m91 3-4 6 1 2c0 2 6 1 7-2l3-4 2-4q-1-5-9 2m-445-1q2 3 6 4 3-1 2-4c-1-3-8-3-8 0m147 1c-1 1 2 8 3 8a5 5 0 1 0-3-8m-380 2c-1 1 3 9 5 10q7 2 7-5c-1-3-11-7-12-5M0 134l1 9c2-1 3-15 2-17q-3-6-3 8m370-6q-1 4 5 4 5 1 1-5-4-5-6 1m244 5 1 4 1 4q0 3 3 3 3-1 0-8l-1-4q-3-4-4 1m79-2v8c2 8 9 6 7-2q-2-9-7-6m-517 2q-3 1-2 5a4 4 0 1 0 4-6zm196 5-2 3c1 3 10 4 11 1q0-7-9-4m-86 2-1 5c0 8 5 9 6 2 1-4-3-9-5-7m357 3c-1 2 3 8 5 9 2 0 3-8 1-10q-4-2-6 1m-490 1c-1 1 0 9 1 9l2 2h3c2 0 3-5 1-5l-4-4q-2-6-3-2m255 2q0 5 5 4 6-1 2-5-4-3-7 1m-374 1q-5 3-3 6c3 5 12 0 11-5q-2-5-8-1m172 9v2l1 8q0 7 3 6c3 0 5-7 3-12q-3-7-7-4m162 4c-5 4-7 16-4 19q3 1 4-6 0-4 3-8 5-10-3-5m145 3c-2 7 2 15 6 12 2-3 3-11 0-13q-4-2-6 1m-347 1q-5 2 4 6t8 0q1-4-5-6c-5-2-4-2-7 0m-92 0q-7 4-6 9 2 4 7-2 6-9-1-7m577 3c-2 5-1 13 2 13q3 1 2-7 1-9-2-8zm-421 2q-3 7 0 9 4 4 6-2c1-5-3-12-6-7m395 0q-2 3 3 7t4-1c-1-5-6-9-7-6m95 1c-2 1-1 8 1 9q4 3 4 0c0-5-4-11-5-9m-685 2-4 1q-10 4 0 8c4 0 10-5 8-8q-3-3-4-1m554 0q-3 3 0 6a4 4 0 1 0 0-6M2 175l-2 5c0 5 7 4 8 0q-1-8-6-5m147 1c-3 4 1 9 6 7q3-2 1-6-5-4-7-1m-62 2q-4 6 3 5c2 0 3-6 0-6q-1-2-3 1m229 1q-4 3 2 6a4 4 0 1 0-3-6m378 0c-4 4-1 9 3 7q3-3 1-8-2-2-4 1m-638 1v5c2 7 7 4 5-3q-1-5-5-2m396 9q-4 3-2 7l1 5q-1 7 3 4 2 0 2-8l2-11q-1-3-6 3m221-3q-3 5 5 4 6-2 3-3c-1-2-7-3-8-1m-653 4-4 3q-5 1-2 6t6-1l4-4q4-3 1-6-2-2-5 2m234 1q2 9 6 9c2-1 3-7 1-10-2-4-7-3-7 1m464 4c-2 3 3 9 6 6v-4q-3-5-6-2m-628 8q-4 6 0 9 4 2 6-3c3-6-2-10-6-6m204 1q-4 4 0 6a4 4 0 1 0 0-6m43 1c-1 2 0 9 2 10q5 1 3-8-2-5-5-2m342 1c-2 4 0 11 3 11 2-1 3-11 1-12q-3-2-4 1m-260 1q-1 5 5 5 5-2 2-5-4-4-7 0m-283 1c-4 4-6 14-2 14l4-3 3-5q4-9-5-6m588 0c-3 2 1 7 5 6a4 4 0 0 0-5-6m28 2c-3 8 2 16 8 16 5 0 5-5 0-6q-3-2-2-6a4 4 0 1 0-6-4M0 217q0 7 8 4 4-2-1-3l-5-2-2-2zm399-1a4 4 0 1 0 5 1q-1-3-5-1m-165 2c-2 3-1 9 0 9q5-1 6-6c0-4-5-7-6-3m135 3q-4 2 0 6 6 4 6-3-1-6-6-3m321 0c0 4 9 8 11 5q2-1-2-4-7-6-9-1m40-1q-1 4 3 6c7 2 11-2 4-5q-6-3-7-1m-516 4c-10 9-11 10-6 11q3 1 4-3l3-3q5-1 6-7 1-5-7 2m-185 1q-4 2 2 6 4 3 6 1c7-4 0-10-8-7m129 3c-4 5-4 15 1 15q4-2 5-5-1-2 1-6c4-7-1-10-7-4m161 4q-2 9 5 6 3-6-3-8zm394 0q-9 7 1 7c3-1 8-5 7-7zm36 2q-4 2 1 9 3 6 2 1-1-4 1-6 2-9-4-4m-716 6q-1 15 2 14c5 1 8-8 4-13-1-2-6-3-6-1m28 1q-8 5-4 6l2 2c-1 5 7 2 8-4 2-3-3-6-6-4m62 1-1 4c-1 4 4 4 5 1q2-9-4-5m533 3q-4 6 1 9l5 4q9 5 3-8-4-13-9-5m-282 2q-4 4 1 7c5 2 8-3 4-7q-3-3-5 0m-239 2c-4 2-2 10 2 10s7-8 4-10q-3-3-6 0m464 1q-4 5 3 8 3 0 3 3 1 3 3 3v-3q-3-1-1-4 1-10-8-7m-356 2q-3 5 1 8 8 2 5-7-2-3-6-1m-63 2c-2 1-1 6 1 7q4 1 5-4-1-6-6-3m562 1q1 5 6 6 3 0 3 3 0 2 3 2 4-1 3-5 0-2-5-2-3 0-4-3c-1-4-6-4-6-1m-429 3c-4 3-1 8 4 6q5-3 4-7-3-2-8 1m397 0q-1 7 5 4 3-2 1-4c-1-3-6-3-6 0m-315 2-2 12c2 3 7-3 7-8q-1-6-5-4m52 3c-3 3-9 17-8 18 1 4 6 2 7-3l1-4 5-11q-2-4-5 0m-31 0q-4 5 2 11c5 3 6-3 3-8q-3-6-5-3M2 264c-3 0-3 7 1 10q3 2 2 7-1 8 3 3c5-3 6-12 1-18q-3-4-7-2m724 3q-6 2 0 8 4 6 7-1 2-10-7-7m-655 1c-3 2-2 11 1 11q5 0 5-8-1-6-6-3m483 1q-5 6-2 7c2 2 8-2 8-6q-1-5-6-1m-374 2c-6 2-8 8-3 9 2 0 7-5 7-7q-1-4-4-2m-154 7q-4 7 4 5a3 3 0 1 0-4-5m261 0a4 4 0 1 0 5 8 4 4 0 0 0-5-8m319 0q-3 6 4 8 5 0 3-7-3-3-7-1m-516 2c-3 2-3 9-1 10 3 2 9-4 9-8q-1-6-8-2m552 0q-1 8 6 5 3-5-2-6zm-439 1q-3 2 2 7 5 6 7-2c0-4-6-8-9-5m-149 1q-1 2 3 5 7 5 7 0c0-3-9-7-10-5m630 0c-2 3-4 15-3 17q4 1 5-2l3-7 2-5-2-2q-3-3-5-1m68 2q-1 6 2 8l4-1q6-3 1-7-4-4-7 0m-194 5q-3 5 3 6 3 1 3-2-1-8-6-4m-220 2q-4 3-3 8 2 5 6 0c4-4 2-10-3-8m136 4q-1 6 3 10c4 3 6-6 3-11q-5-2-6 1m-256 7q-4 4 2 5 6-1 3-6-3-2-5 1m-58 2q-4 4 0 6c5 2 11-4 6-7q-2-2-6 1m572 2-3 5c-1 2 4 1 6-1q6-5 1-8-3 0-4 4m-474-2c-4 3 7 11 11 8q3-2-4-6-6-5-7-2m175 4q0 7 4 5l2 1 3 1 2-2q-1-4-7-6l-2-1q-3-4-2 2m130-3c-6 2-8 10-2 10q3 1 5-5 7-8-3-5m-457 2q-9 7 3 6 4 0 3-5 1-6-6-1m395 2q-2 4 1 9 5 7 5-5-2-10-6-4m-286 9q-5 9-2 13c7 4 11-5 6-12q-3-3-4-1m543 0c-3 2 1 9 4 9q3-1 2-7-4-4-6-2m-692 7q-2 3 1 5 6 0 7-3c0-2-7-4-8-2m560 4q-4 4 1 6 4 0 5-5 0-5-6-1m-154 0q-2 2 1 5l3 6q1 10 6 3 4-5-1-8l-4-4q-2-5-5-2m-442 6q-4 5-1 6c4 4 11-3 9-9q-2-5-8 3m501-2-1 4a4 4 0 1 0 1-4m-162 8q-2 2 1 4 4 4 5-2-2-8-6-2m-113 8c0 9 0 9 2 9q6-2 4-8l-1-4q1-5-3-6-2-1-2 9m152-6q-2 4 3 4c5 0 5-6 0-7q-3-1-3 3m275-1c-2 2-2 7 0 7q5-1 6-5-1-6-6-2m21 4q-4 6 2 7c4 0 5-10 1-11zm-262-2c-1 2-1 8 1 9h3c4-1 4-7 0-9zm-293 3q-2 5 1 8 4-1 5-6-1-5-6-2m319 3q-1 3 5 5 4 1 1-5c-1-2-6-3-6 0m162 1q-3 7 3 7c5-1 5-9 1-10zm-589-1c-2 1-6 8-6 10 0 3 9 1 11-2q5-11-5-8m173 0q-2 4 1 5l4 3q3 3 5 0c0-2-7-9-8-9zm142 5c0 4 6 7 9 3q2-4-6-5-3 0-3 2m395 2q1 8 8 6 5-1-1-6-6-8-7 0m-325-2c-2 2-1 8 1 8l4-1q3-6-2-8zm177 3q-2 3 1 4 4 4 5-3-2-5-6-1m116 4q-4 9 0 10c2 0 9-12 8-14q-4-4-8 4m-633 7q-4 4 1 6 5-1 3-6-1-4-4 0m302 0q1 5 5 6a4 4 0 1 0-5-6m91 6q-6 6-1 7c5 1 10-6 7-10q-2-3-6 3m-462 0q-3 5 1 6c5 0 7-6 3-7q-2-2-4 1m550 0c-3 7 6 15 12 9q3-1-4-7t-8-2m189 0q-3 2 0 3 4 3 6 0c3-4-3-7-6-3m-214 2q-2 6 2 7 3 0 3-4-1-8-5-3m-469 2q-3 2-1 4c2 2 8-1 8-5 0-3-5-3-7 1m37 0c-1 2 1 8 4 8 2 0 4-7 1-8q-3-3-5 0m36 2q-5 3-2 5c2 3 9-1 8-4q-1-3-6-1m351 3q-1 4 2 6 4 0 3-5-2-5-5-1m-96 1q0 3 4 5c6 4 7 0 2-4q-6-5-6-1m197-1q-2 6 1 8c3 0 6-5 4-7q-2-3-5-1m-549 5q-5 4 1 4c3 0 8-3 7-5q-3-3-8 1m585 5v4q5 1 6-2c2-5-4-7-6-2m54 1q2 6 8 4 6-5-5-6-4 0-3 2m-242 4q-4 9 0 11 5 6 6-8-1-13-6-3m123-3c-2 1 0 9 3 9q2 0 1-6-2-6-4-3m-235 3q-1 3 4 5 7 2 5-4c-1-1-7-2-9-1m-293 5q-2 4 2 6l5 2c11 5 13-1 3-7q-9-5-10-1m266 0q-4 5 1 7c5 4 9-1 4-7q-2-5-5 0m219 7q-4 6 0 7 5-1 6-8-1-5-6 1m-62 2c-1 3 0 11 3 14l1 7q0 9 7 2c4-5 4-5 0-9l-3-7q-2-8-6-9zm-83 1c-3 0-5 7-3 9 3 2 8-6 6-9zm-111 3c-7 4-12 13-8 13q6 0 10-6l4-6q2-3-1-4zm-83 2-1 8q0 7 2 6c6 0 7-17 1-17q-2 0-2 3m460 2q-3 0-3 2c0 3 10 4 11 1q1-7-8-3m106 0 1 4 2 5q3 4 8-2l2-3-5-3q-8-5-8-1m-353 1q-4 0-1 6t4 4q5-11 0-11zm106 1c-4 3 4 10 10 9q3 0-4-7-5-5-6-2M8 424v5q8 1 6-5zm436 0-2 4q-1 4 4 2 9 0 5-4-4-5-7-2m230 3c-2 2-1 7 1 7q4 1 5-5-2-5-6-2m-59 2q-4 4 0 6 5 0 5-5 0-3-5-1m-126 2v8c1 2 6 3 6 0 3-6-2-12-6-8m-115 2q-7 5-1 5 8-1 7-5-2-4-6 0m-229 3c1 5 7 7 10 3q6-6-6-5-6 0-4 2m139 0q-3 1-1 3 6 5 11 3 3-4-2-6-7-3-8 0m105 6c-1 6 5 8 7 2q3-5-3-5-3-1-4 3m203-1q-7 6-6 9l4-1 5-3q6-2 4-5t-7 0m-479 8c-8 8-7 15 1 7l6-4q6-4 2-8-3-4-9 5m241 3q-3 3 2 7l3 5q1 3 5 1 1-2-2-5l-3-5-3-4zm-38 3v7h5c2 0 3-6 1-8q-4-3-6 1m365 0-2 3-1 3c-1 1 1 6 2 6q4-2 4-9t-3-3m-417 3q-5 8 3 8c3 0 4-7 1-9q-2-2-4 1m448 0c-3 2-3 8 0 8q5-2 4-8-1-4-4 0m-426 0c-3 2 2 9 6 9q5 0 0-6-4-5-6-3m-139 4q-3 5 0 8 3 1 4-5 0-7-4-3m595-1-4 2q-3 0-4 3 0 4 5 2l5-1q5-1 3-6zm-554 3q-3 5 3 6 3 0 3-2-1-4-3-5zm206 1c-2 3 1 13 5 13q3-1 4-6c0-5-6-10-9-7m-233 7q-1 7 3 7c3 0 5-7 3-10q-4-3-6 3m409 0 1 3 2 4c0 5 6 8 7 3 0-3-5-11-8-11zm-532 7q-3 4 1 5 5-1 6-5-2-6-7 0m83 0c0 7 7 15 10 12q2-2-2-5l-5-6q-2-6-3-1m321 0q-2 12 8 13 6 1-1-8-6-11-7-5m-361 2q0 3 5 3 7 1 3-3-5-3-8 0m293-1q-1 6 2 9 3-1 2-7-1-5-4-2m-164 3q-4 5 0 6 6-1 8-7-2-5-8 1m524 1q0 4 4 5 4-1 3-5c0-3-7-3-7 0m-231 3q-3 8 2 9 4 0 4-3 2-12-6-6m-95 4q-3 6-1 8c2 1 7-3 7-6q-1-5-6-2m-23 1c-4 5 1 11 5 6a4 4 0 1 0-5-6m302 1q-3 3-1 6 5 1 6-4-1-5-5-2m-413 2a3 3 0 0 0-1 5h2l6-3c0-3-5-5-7-2m308-1c-2 3-1 10 2 10q3 0 2-4 0-8-4-6m-262 5q-2 6 3 8c5 0 6-9 1-10q-3-2-4 2m-68 8a4 4 0 1 0 7 0q-4-4-7 0"
        mask="url(#16282281824-posters-1720559175854-horizontal-mask)" itemprop="bold" fill-opacity="0.90"
        fill-rule="evenodd" stroke="none" fill="url(#16282281824-posters-1720559175854-vertical-bold)"></path>
    </pattern>
    <rect id="16282281824-posters-1720559175854-pattern-render" fill="url(#16282281824-posters-1720559175854-pattern)"
      width="100%" height="100%"></rect>
  </defs>
  <radialGradient id="lightbar" cx="50%" cy="200%" fy="0" r="201%">
    <stop offset="0%" style="stop-color: rgb(255, 255, 255); stop-opacity: 0.1;"></stop>
    <stop offset="10%" style="stop-color: rgb(0, 0, 0); stop-opacity: 0.1;"></stop>
    <stop offset="30%" style="stop-color: rgb(0, 0, 0); stop-opacity: 0.3;"></stop>
    <stop offset="90%" style="stop-color: rgb(0, 0, 0); stop-opacity: 0.55;"></stop>
    <stop offset="100%" style="stop-color: rgb(0, 0, 0); stop-opacity: 0.6;"></stop>
  </radialGradient>
  <g class="radial">
    <radialGradient id="16282281824-posters-1720559175854-radial" gradientUnits="userSpaceOnUse">
      <stop itemprop="radial" stop-color="#d2d1d0" offset="0%"></stop>
      <stop itemprop="radial" stop-color="#dad9d8" offset="15%"></stop>
      <stop itemprop="radial" stop-color="#d7d6d5" offset="30%"></stop>
      <stop itemprop="radial" stop-color="#dcdcda" offset="45%"></stop>
      <stop itemprop="radial" stop-color="#dad9d8" offset="60%"></stop>
      <stop itemprop="radial" stop-color="#d7d7d5" offset="75%"></stop>
      <stop itemprop="radial" stop-color="#dcdcdb" offset="90%"></stop>
    </radialGradient>
    <radialGradient id="16282281824-posters-1720559175854-radial-background" gradientUnits="userSpaceOnUse">
      <stop stop-color="#d3cfc5" offset="0%"></stop>
      <stop stop-color="#d3cfc5" offset="15%"></stop>
      <stop stop-color="#d3cdc5" offset="30%"></stop>
      <stop stop-color="#d3cec5" offset="45%"></stop>
      <stop stop-color="#d3cfc5" offset="60%"></stop>
      <stop stop-color="#d3cfc5" offset="75%"></stop>
      <stop stop-color="#d3cfc5" offset="90%"></stop>
    </radialGradient>
    <radialGradient id="16282281824-posters-1720559175854-radial-light" gradientUnits="userSpaceOnUse">
      <stop stop-color="#9b9a97" offset="0%"></stop>
      <stop stop-color="#9b9a97" offset="15%"></stop>
      <stop stop-color="#9b9997" offset="30%"></stop>
      <stop stop-color="#9c9a96" offset="45%"></stop>
      <stop stop-color="#9b9a97" offset="60%"></stop>
      <stop stop-color="#9b9a97" offset="75%"></stop>
      <stop stop-color="#9b9a97" offset="90%"></stop>
    </radialGradient>
    <radialGradient id="16282281824-posters-1720559175854-radial-regular" gradientUnits="userSpaceOnUse">
      <stop stop-color="#82817d" offset="0%"></stop>
      <stop stop-color="#82817d" offset="15%"></stop>
      <stop stop-color="#82807d" offset="30%"></stop>
      <stop stop-color="#83817c" offset="45%"></stop>
      <stop stop-color="#82817d" offset="60%"></stop>
      <stop stop-color="#82817d" offset="75%"></stop>
      <stop stop-color="#82817d" offset="90%"></stop>
    </radialGradient>
    <radialGradient id="16282281824-posters-1720559175854-radial-medium" gradientUnits="userSpaceOnUse">
      <stop stop-color="#51504d" offset="0%"></stop>
      <stop stop-color="#51504d" offset="15%"></stop>
      <stop stop-color="#514f4d" offset="30%"></stop>
      <stop stop-color="#51504d" offset="45%"></stop>
      <stop stop-color="#51504d" offset="60%"></stop>
      <stop stop-color="#51504d" offset="75%"></stop>
      <stop stop-color="#51504d" offset="90%"></stop>
    </radialGradient>
    <radialGradient id="16282281824-posters-1720559175854-radial-bold" gradientUnits="userSpaceOnUse">
      <stop stop-color="#2f2e2d" offset="0%"></stop>
      <stop stop-color="#2f2e2d" offset="15%"></stop>
      <stop stop-color="#2f2e2d" offset="30%"></stop>
      <stop stop-color="#2f2e2d" offset="45%"></stop>
      <stop stop-color="#2f2e2d" offset="60%"></stop>
      <stop stop-color="#2f2e2d" offset="75%"></stop>
      <stop stop-color="#2f2e2d" offset="90%"></stop>
    </radialGradient>
  </g>
  <g class="vertical">
    <linearGradient id="16282281824-posters-1720559175854-vertical" gradientUnits="userSpaceOnUse" x1="0" x2="0" y1="0"
      y2="100%">
      <stop itemprop="vertical" stop-color="#d2d1d0" offset="0%"></stop>
      <stop itemprop="vertical" stop-color="#dad9d8" offset="15%"></stop>
      <stop itemprop="vertical" stop-color="#d7d7d5" offset="30%"></stop>
      <stop itemprop="vertical" stop-color="#dcdcda" offset="45%"></stop>
      <stop itemprop="vertical" stop-color="#dad9d8" offset="60%"></stop>
      <stop itemprop="vertical" stop-color="#d7d7d5" offset="75%"></stop>
      <stop itemprop="vertical" stop-color="#dcdbdb" offset="90%"></stop>
    </linearGradient>
    <linearGradient id="16282281824-posters-1720559175854-vertical-background" gradientUnits="userSpaceOnUse" x1="0"
      x2="0" y1="0" y2="100%">
      <stop stop-color="#cdcccb" offset="0%"></stop>
      <stop stop-color="#cdcccb" offset="15%"></stop>
      <stop stop-color="#ceccca" offset="30%"></stop>
      <stop stop-color="#ceccca" offset="45%"></stop>
      <stop stop-color="#cdcccb" offset="60%"></stop>
      <stop stop-color="#cdcccb" offset="75%"></stop>
      <stop stop-color="#cdcccb" offset="90%"></stop>
    </linearGradient>
    <linearGradient id="16282281824-posters-1720559175854-vertical-light" gradientUnits="userSpaceOnUse" x1="0" x2="0"
      y1="0" y2="100%">
      <stop stop-color="#aea284" offset="0%"></stop>
      <stop stop-color="#aea284" offset="15%"></stop>
      <stop stop-color="#ae9f84" offset="30%"></stop>
      <stop stop-color="#ae9f84" offset="45%"></stop>
      <stop stop-color="#aea284" offset="60%"></stop>
      <stop stop-color="#aea284" offset="75%"></stop>
      <stop stop-color="#ae9f84" offset="90%"></stop>
    </linearGradient>
    <linearGradient id="16282281824-posters-1720559175854-vertical-regular" gradientUnits="userSpaceOnUse" x1="0" x2="0"
      y1="0" y2="100%">
      <stop stop-color="#82817d" offset="0%"></stop>
      <stop stop-color="#82817d" offset="15%"></stop>
      <stop stop-color="#83817c" offset="30%"></stop>
      <stop stop-color="#83817c" offset="45%"></stop>
      <stop stop-color="#82817d" offset="60%"></stop>
      <stop stop-color="#82817d" offset="75%"></stop>
      <stop stop-color="#82807d" offset="90%"></stop>
    </linearGradient>
    <linearGradient id="16282281824-posters-1720559175854-vertical-medium" gradientUnits="userSpaceOnUse" x1="0" x2="0"
      y1="0" y2="100%">
      <stop stop-color="#51504d" offset="0%"></stop>
      <stop stop-color="#51504d" offset="15%"></stop>
      <stop stop-color="#51504d" offset="30%"></stop>
      <stop stop-color="#51504d" offset="45%"></stop>
      <stop stop-color="#51504d" offset="60%"></stop>
      <stop stop-color="#51504d" offset="75%"></stop>
      <stop stop-color="#514f4d" offset="90%"></stop>
    </linearGradient>
    <linearGradient id="16282281824-posters-1720559175854-vertical-bold" x1="0" x2="0" y1="0" y2="100%">
      <stop stop-color="#2f2e2d" offset="0%"></stop>
      <stop stop-color="#2f2e2d" offset="15%"></stop>
      <stop stop-color="#2f2e2d" offset="30%"></stop>
      <stop stop-color="#2f2e2d" offset="45%"></stop>
      <stop stop-color="#2f2e2d" offset="60%"></stop>
      <stop stop-color="#2f2e2d" offset="75%"></stop>
      <stop stop-color="#2f2e2d" offset="90%"></stop>
    </linearGradient>
  </g>
  <g class="horizontal">
    <linearGradient id="16282281824-posters-1720559175854-horizontal" x1="0" x2="100%" y1="0" y2="0"
      gradientUnits="userSpaceOnUse">
      <stop itemprop="horizontal" stop-color="#d7d7d5" offset="0%"></stop>
      <stop itemprop="horizontal" stop-color="#d7d7d5" offset="15%"></stop>
      <stop itemprop="horizontal" stop-color="#dad9d8" offset="30%"></stop>
      <stop itemprop="horizontal" stop-color="#d7d7d5" offset="45%"></stop>
      <stop itemprop="horizontal" stop-color="#dcdcdb" offset="60%"></stop>
      <stop itemprop="horizontal" stop-color="#dcdcda" offset="75%"></stop>
      <stop itemprop="horizontal" stop-color="#d7d7d5" offset="90%"></stop>
    </linearGradient>
    <linearGradient id="16282281824-posters-1720559175854-horizontal-background" gradientUnits="userSpaceOnUse" x1="0"
      x2="100%" y1="0" y2="0">
      <stop stop-color="#cdcccb" offset="0%"></stop>
      <stop stop-color="#cdcccb" offset="15%"></stop>
      <stop stop-color="#cdcccb" offset="30%"></stop>
      <stop stop-color="#cdcccb" offset="45%"></stop>
      <stop stop-color="#cdcccb" offset="60%"></stop>
      <stop stop-color="#ceccca" offset="75%"></stop>
      <stop stop-color="#cdcccb" offset="90%"></stop>
    </linearGradient>
    <linearGradient id="16282281824-posters-1720559175854-horizontal-light" gradientUnits="userSpaceOnUse" x1="0"
      x2="100%" y1="0" y2="0">
      <stop stop-color="#9b9a97" offset="0%"></stop>
      <stop stop-color="#9b9a97" offset="15%"></stop>
      <stop stop-color="#9b9a97" offset="30%"></stop>
      <stop stop-color="#9b9a97" offset="45%"></stop>
      <stop stop-color="#9b9a97" offset="60%"></stop>
      <stop stop-color="#9c9a96" offset="75%"></stop>
      <stop stop-color="#9b9a97" offset="90%"></stop>
    </linearGradient>
    <linearGradient id="16282281824-posters-1720559175854-horizontal-regular" gradientUnits="userSpaceOnUse" x1="0"
      x2="100%" y1="0" y2="0">
      <stop stop-color="#968969" offset="0%"></stop>
      <stop stop-color="#968969" offset="15%"></stop>
      <stop stop-color="#968969" offset="30%"></stop>
      <stop stop-color="#968969" offset="45%"></stop>
      <stop stop-color="#968a69" offset="60%"></stop>
      <stop stop-color="#968669" offset="75%"></stop>
      <stop stop-color="#968969" offset="90%"></stop>
    </linearGradient>
    <linearGradient id="16282281824-posters-1720559175854-horizontal-medium" gradientUnits="userSpaceOnUse" x1="0"
      x2="100%" y1="0" y2="0">
      <stop stop-color="#5d5541" offset="0%"></stop>
      <stop stop-color="#5d5541" offset="15%"></stop>
      <stop stop-color="#5d5541" offset="30%"></stop>
      <stop stop-color="#5d5541" offset="45%"></stop>
      <stop stop-color="#5d5641" offset="60%"></stop>
      <stop stop-color="#5d5341" offset="75%"></stop>
      <stop stop-color="#5d5541" offset="90%"></stop>
    </linearGradient>
    <linearGradient id="16282281824-posters-1720559175854-horizontal-bold" gradientUnits="userSpaceOnUse" x1="0"
      x2="100%" y1="0" y2="0">
      <stop stop-color="#2f2e2d" offset="0%"></stop>
      <stop stop-color="#2f2e2d" offset="15%"></stop>
      <stop stop-color="#2f2e2d" offset="30%"></stop>
      <stop stop-color="#2f2e2d" offset="45%"></stop>
      <stop stop-color="#2f2e2d" offset="60%"></stop>
      <stop stop-color="#2f2e2d" offset="75%"></stop>
      <stop stop-color="#2f2e2d" offset="90%"></stop>
    </linearGradient>
  </g>
  <g class="masks">
    <mask id="16282281824-posters-1720559175854-pattern-mask" maskUnits="userSpaceOnUse"
      maskContentUnits="userSpaceOnUse">
      <pattern id="pattern" x="0" y="0" width=".0133" height=".0144" viewBox="0 0 23.07 40">
        <path
          d="M17.62 0l-6.07 10.5m2.74 4.76L8.22 4.75m-5.48 0h12.13M.01 0h23.07M6.07 20L0 9.5m2.74-4.75l-6.07 10.5m-5.48 0H3.33m8.2 4.75L0 .02-11.54 20m40.68 0L23.07 9.5m2.74-4.75l-6.06 10.5m-5.49 0H26.4M34.6 20L23.08.02 11.53 20m-5.46 0L0 30.51m2.74 4.75l-6.07-10.5m-5.48 0H3.33m8.2-4.75L0 40l-11.54-19.98zM17.6 40l-6.06-10.5m2.74-4.76L8.2 35.25m-5.48 0h12.13M0 40h23.07L11.54 20.01m17.6 0l-6.07 10.5m2.74 4.75l-6.06-10.5m-5.49 0H26.4M11.53 20h23.08L23.07 40"
          stroke-linecap="round" stroke-width="3.5" stroke="white"
          fill="url(#16282281824-posters-1720559175854-horizontal-background)"></path>
      </pattern>
      <rect width="100%" height="100%" fill="url(#pattern)"></rect>
    </mask>
    <mask id="16282281824-posters-1720559175854-horizontal-mask" maskUnits="userSpaceOnUse"
      maskContentUnits="userSpaceOnUse">
      <rect width="100%" height="100%" fill="url(#16282281824-posters-1720559175854-horizontal-background)"></rect>
    </mask>
    <mask id="16282281824-posters-1720559175854-radial-mask" maskUnits="userSpaceOnUse"
      maskContentUnits="userSpaceOnUse">
      <rect width="100%" height="100%" fill="url(#16282281824-posters-1720559175854-radial-background)"></rect>
    </mask>
    <mask id="16282281824-posters-1720559175854-vertical-mask" maskUnits="userSpaceOnUse"
      maskContentUnits="userSpaceOnUse">
      <rect width="100%" height="100%" fill="url(#16282281824-posters-1720559175854-vertical-background)"></rect>
    </mask>
  </g>
  <use href="#16282281824-posters-1720559175854-pattern-render"></use>
  <g>
    <use href="#16282281824-posters-1720559175854-background"></use>
    <use href="#16282281824-posters-1720559175854-light"></use>
    <use href="#16282281824-posters-1720559175854-regular"></use>
    <use href="#16282281824-posters-1720559175854-medium"></use>
    <use href="#16282281824-posters-1720559175854-bold"></use>
  </g>
  <g itemprop="animation">
    <animate href="#16282281824-posters-1720559175854-light" attributeName="stroke-opacity" repeatCount="indefinite"
      dur="5s" values="0.9;0.0;0.9"></animate>
    <animate href="#16282281824-posters-1720559175854-regular" attributeName="stroke-opacity" repeatCount="indefinite"
      dur="4s" values="0.9;0;0.9"></animate>
    <animate href="#16282281824-posters-1720559175854-medium" attributeName="stroke-opacity" repeatCount="indefinite"
      dur="5s" values="0.9;0;0.9"></animate>
    <animate href="#16282281824-posters-1720559175854-bold" attributeName="stroke-opacity" repeatCount="indefinite"
      dur="3s" values="0.9;0;0.9"></animate>
    <animate href="#16282281824-posters-1720559175854-regular" attributeName="fill-opacity" repeatCount="indefinite"
      dur="8s" values="0.9;0.75;0.95;0.8;0.9;"></animate>
    <animate href="#16282281824-posters-1720559175854-radial-background" attributeName="cx" repeatCount="indefinite"
      dur="34s" values="0%;33%;100%;0%;100%;0%;"></animate>
    <animate href="#16282281824-posters-1720559175854-radial-background" attributeName="cy" repeatCount="indefinite"
      dur="55s" values="0%;100%;33%;100%;66%;0%"></animate>
    <animate href="#16282281824-posters-1720559175854-vertical-light" attributeName="x1" repeatCount="indefinite"
      dur="55s" values="0%;33%;100%;0%;133%;0%;"></animate>
    <animate href="#16282281824-posters-1720559175854-vertical-light" attributeName="y1" repeatCount="indefinite"
      dur="86s" values="0%;100%;33%;100%;66%;0%"></animate>
    <animate href="#16282281824-posters-1720559175854-horizontal-regular" attributeName="x1" repeatCount="indefinite"
      dur="34s" values="0%;100%;66%;0%;33%;133%;0%"></animate>
    <animate href="#16282281824-posters-1720559175854-horizontal-regular" attributeName="y1" repeatCount="indefinite"
      dur="55s" values="0%;66%;100%;33%;100%;66%;0%"></animate>
    <animate href="#16282281824-posters-1720559175854-vertical-medium" attributeName="x1" repeatCount="indefinite"
      dur="34s" values="0%;100%;66%;0%;33%;133%;0%"></animate>
    <animate href="#16282281824-posters-1720559175854-vertical-medium" attributeName="y1" repeatCount="indefinite"
      dur="55s" values="0%;66%;100%;33%;100%;66%;0%"></animate>
    <animate href="#16282281824-posters-1720559175854-vertical-bold" attributeName="x1" repeatCount="indefinite"
      dur="34s" values="0%;100%;66%;0%;33%;133%;0%"></animate>
    <animate href="#16282281824-posters-1720559175854-vertical-bold" attributeName="y1" repeatCount="indefinite"
      dur="55s" values="0%;66%;100%;33%;100%;66%;0%"></animate>
  </g>
</svg>
