<svg id="16282281824-posters-1720554013689" itemscope="" itemtype="/posters"
  itemid="/+16282281824/posters/1720554013689" viewBox="0 0 769 512" preserveAspectRatio="xMidYMid meet" tabindex="0"
  class="animate landscape" xmlns="http://www.w3.org/2000/svg">
  <!---->
  <defs class="graphic">
    <pattern id="16282281824-posters-1720554013689-pattern" width="769" height="512" viewBox="0 0 769 512"
      patternUnits="userSpaceOnUse" preserveAspectRatio="xMidYMid meet">
      <rect itemprop="background" width="769" height="512" tabindex="-1"
        id="16282281824-posters-1720554013689-background" fill-opacity="1"
        fill="url(#16282281824-posters-1720554013689-radial-background)"></rect>
      <!---->
      <path id="16282281824-posters-1720554013689-light"
        d="M0 3q-1 3 6 7c22 11 31 10 51-4q11-7 0-6-5 0-10 3-18 12-37 0Q1-3 0 3m79 0L56 18l-3 2-3 2-3 1-1 1c-1 1-12 5-17 5Q16 29 4 18q-4-3-4 4v5l8 4c19 11 31 9 54-8C72 15 87 8 94 8a70 70 0 0 1 31 14q28 21 47 10l15-9 8-6 12-7q21-11 43 7c22 17 35 20 53 11l17-12 6-4 10-5c13-6 22-4 42 9l11 7 11 6a37 37 0 0 0 37-8l10-6q25-17 38-12l13 6 13 9c5 4 20 11 25 12a51 51 0 0 0 25-6l6-4 6-4 5-4 15-9q11-3-3-3h-9l-8 6-15 10q-5 4-20 4c-12 0-13 0-24-9l-10-8-4-3h-44l-6 4-11 9-13 6c-2 2-17 4-18 3l-5-1q-9-2-25-15l-8-6h-39l-6 4-12 8c-20 16-37 16-60-2l-7-4-5-3-4-3h-15c-18 0-16-1-33 11l-11 8c-1 1-13 7-16 7a52 52 0 0 1-34-11l-6-5c-9-8-15-10-28-10-10 0-11 0-15 3m46-1c3 3 23 12 28 13q12 1 26-7 16-9 3-8-5 0-11 3-11 5-23 2l-6-2-3-1q-1-2-9-2-9 0-5 2m130-1 4 3 7 4c9 5 24 7 27 3l3-1 7-3 6-3 2-4c0-1-11 0-13 2-4 2-21 2-26 0-3-2-17-3-17-1m132 1q9 6 17 7l6 1q6 2 20-5 15-6-4-5l-30 1-11-1zm129-1c0 1 11 6 18 8q12 2 24-4c9-5 10-5-17-5zm97 0 2 1c2 0 13 7 23 14 13 10 18 11 30 11 9 0 10 0 16-3l16-11 6-3 9-6q9-4-2-4c-7 0-8 0-21 10q-10 8-15 8l-3 1h-9l-4-1c-6 0-18-6-26-14l-4-4h-9zm33 0c0 2 13 6 23 6 7 0 18-3 20-6l-21-1zm102 1 3 2 3 3 5 3 6 5 4 3v-5q1-6-2-7l-5-4q-3-2-10-2h-6zm-23 9c-6 1-17 7-21 11-10 10-34 20-40 17l-8-3q-10-2-18-9l-7-5a38 38 0 0 0-49-2l-5 3-3 2-1 1-6 4-16 9c-5 2-19 2-23 0l-13-8-18-12c0-4-28-7-34-3l-17 12c-8 7-14 10-26 14q-16 3-33-9-30-25-53-15l-7 5-18 12-6 4c0 2-10 4-19 4q-15 0-22-7l-15-10-4-2-3-3-4-2-13-1q-17-1-30 12-28 24-51 13l-12-7-20-14-14-1H85l-9 4-13 8-6 5-2 1-1 1-6 3a36 36 0 0 1-40-1l-7-5-1 5q-1 8 18 14c16 5 24 2 47-16q7-5 13-7l8-3 10-1c9 1 14 2 26 11q34 26 56 9l4-3 1-1 7-5q14-11 32-14c7 0 22 6 26 11 1 2 21 13 25 14 11 4 30 0 36-7l17-12q11-7 25-7c7 0 9 0 23 9l10 6 3 2 2 1 1 1 8 3c12 7 30 3 42-8s38-20 46-16l7 3 11 7c23 17 30 19 48 15l6-3 8-4 9-7 6-4q10-9 24-8c11-1 14 1 28 10l24 14c4 2 17 2 23 0l23-15 7-4 4-2 4-3 5-2c3-1 14-1 21 1 4 1 13 7 17 11l5 3q3 2 3 6v-4l-1-9-23-15c0-2-13-3-20-2m0 20c-6 2-19 9-28 16l-4 2-1 1c0 1-14 8-19 9a36 36 0 0 1-23-4l-8-5-15-11q-6-5-21-7-15-1-21 6l-13 9-9 6c-3 3-15 7-25 7q-12 0-29-13-27-21-47-10l-5 3-11 7q-21 16-32 16c-5 0-20-4-23-7-37-27-46-27-76-5-17 13-22 14-35 13q-13-1-29-16-5-4-18-9l-11-1c-12 0-20 4-39 19a37 37 0 0 1-43 5l-11-7q-29-24-54-9l-11 6c-2 3-14 10-19 13-6 4-16 6-18 5l-6-1-8-4-4-2-4-2q-5-6-5 1-1 4 8 9c20 12 31 9 63-14 9-7 30-9 38-5l20 13 17 9q15 9 44-13c14-11 20-13 31-14 11 0 16 1 29 11q21 16 35 15 15-2 29-12 22-17 39-17c7 1 8 1 19 9l27 15c8 4 28 2 32-2l28-18c7-5 26-8 27-5l4 1 10 6 10 8 7 4q15 10 34 6c6-1 26-14 31-19l6-3 6-3c7-4 26-1 32 5 3 3 19 13 26 16 5 3 6 3 16 3 12 0 18-2 29-11 8-6 11-9 20-13l6-3h17l4 2c3 0 14 7 20 12q6 3 5 7l1 4-1-9v-9l-10-7q-20-14-34-9m-1 21a80 80 0 0 0-25 14l-7 4a37 37 0 0 1-41 5l-7-4-8-6-12-9c-2-1-15-4-21-4q-12 1-31 15c-15 11-20 14-31 14q-15 0-19-5l-7-5-11-8-7-4c0-4-24-7-31-4l-11 7c-7 6-24 17-33 20-10 3-30-2-39-11l-16-12-15-4q-15-1-35 15c-19 15-31 18-47 11l-4-1-1-1-23-16-9-5h-10l-12 1-23 14-6 4a40 40 0 0 1-40 6l-6-3-6-4-20-13-7-2c-11-4-21 0-48 19-17 11-28 12-43 4l-4-2-7-5-1 5q-1 5 5 7c19 12 30 13 45 3q15-9 21-15l12-6c10-5 33 2 43 12l14 9q18 9 34 0l12-7 16-12q10-6 25-6c8 1 7 0 21 10 24 16 34 19 48 14 5-1 18-9 21-12 4-4 17-11 25-13q17-5 36 10l6 4 10 6c18 9 28 7 50-9q23-16 35-15 15 2 26 12l10 6 8 5 8 3c14 4 24 1 46-15 14-10 20-12 30-12l12 3 6 3 31 19 11 1c12 0 17-1 28-9q25-20 37-19a33 33 0 0 1 18 6q2 0 9 6l9 5 1 5v-4c0-10-1-11-9-16l-5-3c-6-6-21-8-31-6m8 19q-12 1-23 9l-7 4-10 6q-15 11-24 9l-16-4c-2 0-12-6-16-10q-12-10-28-13a42 42 0 0 0-27 9l-8 6-9 6-8 5q-15 6-30 0l-23-15-12-7c-5-3-20-2-26 0-7 3-22 13-24 17l-17 8c-11 5-29 0-41-11l-9-6q-6-5-15-7l-7-2c-3-1-15 3-19 6l-6 3-6 5-7 5-8 4q-15 10-25 7l-8-2c-3 0-8-3-27-17q-7-5-13-6c-5-2-17-3-17-1l-4 1-17 9c-3 4-17 12-25 16a40 40 0 0 1-39-8c-12-10-15-11-26-16a36 36 0 0 0-33 8l-10 7-8 4-5 4-5 3-3 1c-1 2-13 2-18 1q-10-2-18-9-6-6-5 2-1 5 5 8c6 3 17 8 23 9 6 0 20-4 21-7l6-3 5-4 6-4q24-17 44-8l14 8c19 13 24 15 35 15q14-1 30-13 31-28 58-7l22 13c5 6 28 6 35-1l2-1 10-8 4-3 7-4c19-11 31-10 52 4l11 7c6 8 27 10 39 4l8-5 9-6 13-7 9-4 5-1 3-1h7l16 6 9 7 13 7c7 6 23 9 29 6l7-3 9-5 6-5 7-4c11-10 33-15 40-8l2 1 2 1 12 9 16 9a41 41 0 0 0 42-5l5-3c10-10 28-18 37-17l6 1 3 1 2 1 15 10 2 1 1 1 3 2q3 1 2 6l1 4V96l-1-9-10-6c-13-9-18-11-27-10m-6 21q-10 1-27 14a62 62 0 0 1-24 13c-2 2-17 0-23-3l-17-12q-13-10-25-12c-6 0-18 2-18 4l-3 2-5 2-3 1-1 1-2 2-8 5a35 35 0 0 1-29 11 23 23 0 0 1-20-5l-5-3-7-5-6-4a39 39 0 0 0-50 1l-9 6-9 7-3 2-2 1-5 2a47 47 0 0 1-42-11l-6-5q-13-11-30-10a56 56 0 0 0-24 11l-8 5c-14 12-22 14-34 12a29 29 0 0 1-17-6l-5-3-4-3-5-3-5-3-4-3c-5-3-23-7-24-4l-4 1c-3 0-11 4-16 8l-7 5-7 5c-9 7-23 11-32 9-4-1-16-6-17-8l-13-8q-2-3-15-9l-10-1q-11-1-32 14c-29 18-37 20-56 7l-7-5-1 5v5l7 4a39 39 0 0 0 48-1l2-2 6-5 9-6c13-10 34-9 49 3l7 4 10 7c7 5 25 7 33 3l14-8q8-8 21-14c17-9 26-7 47 8q27 21 48 10l11-7 10-7q24-17 43-8l7 4 13 8 5 3 5 4 4 2c10 5 28 2 37-6l19-12 7-5 16-3c10 0 22 5 28 11l9 7c7 5 20 9 28 9a40 40 0 0 0 25-11l5-3 21-13c2-2 19-2 24 0l16 11 14 8 11 6 11-1c12 0 19-3 38-18l17-9c12-3 18-1 33 10 11 8 11 8 11 12l1 4v-10l-1-9-5-3-7-5-9-5c-4-2-16-3-22-2m-4 21-10 5-5 3-1 1-2 1-7 5a44 44 0 0 1-61-3q-25-21-47-7l-5 2-7 5-13 8a39 39 0 0 1-49-1l-22-15a36 36 0 0 0-40 8l-9 6a65 65 0 0 1-22 11c-3 4-24 0-30-5l-3-2-6-4-7-5-3-3q-8-7-22-6c-9 0-9 0-26 8q-9 4-15 10l-6 4-4 3-4 2-4 1c-2 4-28-4-35-11-3-3-20-13-25-15q-15-3-30 6l-7 5c-5 2-14 9-16 11l-4 2-2 1a35 35 0 0 1-35-3l-10-6a68 68 0 0 0-24-13q-6-4-23 3l-13 6-2 2-1 1-2 1-16 11c-6 3-17 6-21 5l-4-1-6-3-8-5-7-5-1 5q-2 8 19 15c14 4 21 2 38-9l15-9 3-3c5-5 26-8 34-4l20 14 10 6c9 4 10 4 19 4q14 0 18-4l5-3 11-7 4-3 10-7 8-3c4-2 16-2 21 0l22 14q11 9 21 11a39 39 0 0 0 32-9l7-4q28-21 45-14l10 5 5 3 11 8 11 6q2 2 12 2c12 0 17-2 29-11l7-4 7-4c13-8 17-10 29-8a30 30 0 0 1 19 7l5 4c1 2 9 7 14 9 19 11 33 8 59-12l8-6 5-2c12-5 29-2 40 8a50 50 0 0 0 54 12l5-3 8-5 6-5c6-6 19-12 27-12 11 0 35 15 36 23v-5a12 12 0 0 0-6-14l-3-2-5-3c-9-7-23-9-33-5m-126 21q-9 4-29 18l-14 7a37 37 0 0 1-28-1l-19-13a42 42 0 0 0-59 3c-7 7-9 8-24 14-4 2-18 2-22 0l-9-6-13-9-9-6-6-2c-12-6-23-3-47 13-16 11-23 14-31 14l-6-1-4-1-10-4-7-5a65 65 0 0 0-35-16c-5-3-28 7-38 17l-2 2-6 3q-22 15-47-4-30-24-49-13l-25 15q-10 8-19 11c-8 2-25-2-30-8l-7-4-1 4q-1 5 5 8l8 4c8 4 10 4 16 5q10 0 22-7l7-4 4-3a62 62 0 0 1 32-15q15 0 26 9a65 65 0 0 0 24 14q9 5 18 4a69 69 0 0 0 29-14c6-5 19-13 21-13l4-1c8-4 25 1 35 10l5 3 9 6 1 1 1 1 4 1a36 36 0 0 0 34-2l5-3 20-14c10-6 24-9 29-6l7 3 7 4 5 3 3 3 5 3q27 18 49 3l13-9c24-17 37-17 64 3q29 21 53 3l4-3c1 0 9-5 10-7 8-8 31-14 37-9l4 1 8 5c33 24 47 25 72 6l9-7 6-3c16-9 26-8 46 6 8 6 8 6 8 11l1 4-1-10v-9l-5-3c-17-12-17-12-31-12-13 1-14 1-34 14-20 14-25 15-39 12a63 63 0 0 1-25-13l-7-6c-7-6-22-8-32-5m130 18-23 11c-24 22-41 22-68 1q-24-18-43-8l-8 5-22 13a35 35 0 0 1-45-1l-5-4-5-4q-13-10-28-10-16 0-33 15a74 74 0 0 1-22 12c-9 5-25 1-37-9l-21-14a37 37 0 0 0-32 2c-2 0-11 6-15 10l-13 8q-7 6-19 7c-6 0-9-1-18-5l-3-1-10-7c-17-12-24-15-37-13-8 1-31 13-36 19l-15 8q-13 6-29-5l-25-16-8-3-3-1c-1-1-10-1-15 1q-11 2-26 14c-24 17-35 18-52 6-10-6-10-6-10 0a4 4 0 0 0 3 6l2 1 5 3c11 7 26 8 37 2l24-15q27-19 52 1a71 71 0 0 0 30 16c11 2 17 0 35-12l15-11c5-3 15-6 22-6a31 31 0 0 1 21 8l8 5 4 3 2 1 1 1 15 8a41 41 0 0 0 33-7l9-7 8-5q14-10 27-10 9 0 22 9l9 6 6 4c8 8 27 10 39 5l7-4 8-5 22-14a34 34 0 0 1 38 7l7 6 7 4 11 5a41 41 0 0 0 31-2l9-6 9-6q11-11 29-12c10 0 16 2 28 12l9 6 8 5c11 6 31 4 43-5 17-14 24-17 31-19q18-4 30 7l8 6q6 3 5 8 0 6-1 4l-11-7-10-6-13-1q-17 0-27 10l-8 6-6 4-5 3-3 1c-2 2-20 5-23 3l-9-3q-9-4-19-13l-6-4c-1-3-18-8-24-7q-12 3-19 9l-6 4-14 9c-13 9-35 11-43 2l-4-3-11-8a39 39 0 0 0-19-9c-2-2-18-1-22 1q-8 3-11 8l-20 13q-21 11-39 1l-19-13a45 45 0 0 0-26-8h-10l-8 4-12 7-8 6-16 9-12 2c-9 0-14-2-35-16-19-13-28-15-42-7l-26 18-2 1c-1 2-16 7-23 7-4 0-15-4-21-9l-4-2-2-2a61 61 0 0 0-23-13l-2-1c-3-3-17 0-28 5l-8 5-6 4-7 5-10 6q-19 10-39-5-9-8-7 1 0 5 2 6l11 5q22 13 46-6c18-13 19-14 29-16 14-3 23-1 35 9l6 5c14 11 34 15 46 8l13-9 9-6 11-7c0-1 11-4 16-4q10 0 25 11 26 20 44 15a34 34 0 0 0 18-9l4-2q34-28 57-10l4 3 7 4q29 21 53 5l6-4 5-3a68 68 0 0 1 21-12c3-3 18-3 24 0l20 12c17 11 22 13 33 12a28 28 0 0 0 17-5c3-1 16-10 18-14 6-7 29-12 38-8l28 18c8 6 11 7 23 7a29 29 0 0 0 18-4l23-16c13-10 37-10 47 0l8 6c4 3 4 3 4 8v5l-5-3-6-4-3-2c-11-8-30-8-44 1l-7 4-1 1-2 2-8 6q-17 12-34 6-17-7-23-13c-4-5-21-13-28-13q-15 1-29 13l-14 9-8 4c-12 8-34 3-49-12a39 39 0 0 0-46-6l-8 5-13 8c-14 10-30 14-38 10l-8-4c-5-2-15-9-20-13a41 41 0 0 0-54 5 48 48 0 0 1-45 14l-5-2-1-1-1-1-8-4-7-5-6-4c-20-14-37-11-62 9-11 9-31 15-33 11l-5-1-10-6-24-15-4-1-6-2-4-1c-1-1-14 1-18 3l-18 10c-20 14-29 18-38 15a33 33 0 0 1-15-6l-5-3q-7-6-6 1-1 5 4 6l6 5c13 11 38 7 58-11 6-6 20-11 29-11 8 0 12 1 21 8l9 5 2 2 1 1 5 3c3 3 17 8 23 8 6 1 20-5 28-11l4-2 4-3a46 46 0 0 1 20-12l3-1 6-1q14-1 33 15c22 16 36 17 55 3l9-6 6-4q7-5 19-9c5-2 16-3 17-1l5 3 11 7 16 10c16 11 37 7 55-10l9-6 8-4c2-2 17-3 21-2 5 1 17 9 27 16l10 6c10 5 10 5 19 5l13-3 18-11 14-10c8-5 8-5 18-5a27 27 0 0 1 21 6l4 3 20 14q24 13 56-14 15-12 34-10l8 2 4 3q15 9 16 17v-26l-1-30-2-1a49 49 0 0 0-40-14m-1 60q-7 1-14 7l-4 4-7 5c-25 16-35 16-60 0l-9-7-5-3c-14-9-36-5-51 9l-3 2-7 5-9 5c-2 1-11 3-18 3q-9 0-20-8l-8-6-4-4-2-1-4-2q-9-5-21-6-12 0-32 15c-15 11-21 14-33 13-12 0-18-2-30-11-19-14-30-17-43-13-8 3-10 4-20 13l-17 10c-6 4-9 4-17 4-10 1-17-2-33-14l-14-9c-3-2-4-2-14-3h-11l-8 5-12 7-11 7q-20 14-33 9l-5-2-3-1-4-2-6-4-9-7-7-4c-2-2-11-6-19-7a36 36 0 0 0-19 6l-4 2-7 4-7 5-4 3-4 2c-4 3-15 9-18 9-4 1-22-4-24-7l-10-7-1 4q-1 5 5 8l7 4a42 42 0 0 0 47-5c18-14 23-17 34-18q15 0 30 11 16 12 31 15c5 1 18 0 19-2l5-3 15-10c13-10 17-12 27-12 12-2 20 1 32 10l10 7c8 6 20 10 28 9a24 24 0 0 0 13-5l9-6 16-11q24-16 49 2c22 15 27 17 37 17q10 0 23-8l6-4 7-4 5-5 5-3c6-4 28-6 32-3l3 2 2 1 3 1 3 2 19 14c8 4 11 5 21 5a26 26 0 0 0 14-3c2 0 16-9 21-14q14-12 29-12c10 0 15 2 27 12 16 12 26 16 40 14a41 41 0 0 0 21-9l10-7c21-15 34-16 56-1 8 6 8 6 8 11q1 8-7 0a39 39 0 0 0-50-3l-6 4-8 5c-11 10-29 15-37 11l-8-4-14-9c-23-16-32-17-51-7l-8 4c-4 4-21 15-23 15l-4 1c-14 6-23 4-39-9q-38-29-64-1l-7 5-11 5q-18 10-35 1l-22-15-14-6-10-1q-12 0-21 7l-4 3-9 7q-28 18-45 9l-14-9-19-12c-6-4-23-3-30 1l-11 6-6 4-19 12a30 30 0 0 1-24 1l-17-9-7-4q-15-13-28-12-11 0-32 14c-28 19-41 20-58 6q-8-8-7 1a4 4 0 0 0 3 6l9 5q25 12 47-5l5-4 6-4q25-20 52 0l5 4 7 4c17 11 36 12 46 2l8-5 10-7c8-7 23-12 33-10 8 3 19 8 25 13 8 7 21 14 28 14s22-4 24-7l29-19 3-1c1-2 21-2 27 0l11 6c0 3 17 13 25 16s28 1 28-2l1-1 16-11 8-5 6-3 15-4a34 34 0 0 1 21 5l5 3 27 16q18 7 42-10 30-23 44-16l8 4 9 6 16 10q5 5 21 5c11 0 16-2 30-12l13-10c4-2 15-6 21-6q15 0 29 13l4 3q3 1 2 6 2 9-6 1a35 35 0 0 0-27-11c-12 0-17 2-24 7l-6 4-14 10c-12 8-21 9-35 5a80 80 0 0 1-23-15l-4-2c-4-4-16-8-22-8q-13 0-29 12l-10 6-10 6q-19 14-43-5c-21-14-24-16-33-17a28 28 0 0 0-19 6 32 32 0 0 0-15 8l-2 1-15 10a38 38 0 0 1-36-1l-14-8c-21-16-32-17-50-8l-6 5-4 4-7 4c-16 9-18 10-27 10l-13-1-27-17a44 44 0 0 0-42-3l-6 4-12 8a38 38 0 0 1-35 12l-21-11c-18-17-41-20-57-8l-4 2-5 3-5 3-3 2c-8 6-22 12-27 12a40 40 0 0 1-17-6l-7-4q-9-7-7 0c0 5 1 6 9 11 15 9 36 8 47-2l5-4 2-1 2-1 4-3q12-11 28-11c6 0 19 5 21 7 1 2 20 14 25 16 12 6 19 6 30 1 8-4 9-4 21-13 14-10 15-11 26-12q19-2 40 16 7 6 16 8l5 1a34 34 0 0 0 28-7l9-6 6-4 8-5 8-4c5-2 21-3 25 0q12 6 23 14l9 6c0 2 11 4 19 4q12 0 19-6l3-2 4-3c5-4 20-13 26-15 5-2 18-3 20-1l5 1 17 10 13 9 6 3q2 2 14 2c12 0 13-1 17-3l5-4 2-1 16-12c7-7 26-11 34-8l8 4 11 8c8 7 24 15 32 15 4 0 16-3 19-5l6-3 4-3 2-1 6-5 8-5q5-5 17-8l9-2 3 1 3 3c2 0 11 5 16 9 8 7 8 7 8 11v-50q0-7-18-17c-5-2-19-4-26-3m1 60q-12 3-21 12l-17 11c-17 8-22 8-42-3l-7-5c-22-17-37-18-58-3l-20 12q-20 14-41-1l-6-3-4-3a39 39 0 0 0-36-13c-9 2-11 3-35 21a41 41 0 0 1-52-3q-16-12-24-15c-9-3-25 0-32 6-9 7-25 17-33 20-12 4-19 3-35-7l-16-10a36 36 0 0 0-45 0l-9 6-5 4-4 3-5 3-5 2-4 1c-5 3-20 3-24 0l-8-5-6-4c-8-7-22-15-30-16-11-1-30 6-42 17l-20 11q-12 5-27-4l-5-3-3-2q-5-6-5 1-1 5 4 8c16 11 36 13 47 4l4-3 16-10c16-12 28-13 44-4l12 7c5 4 19 11 24 13 13 3 21 1 34-8l17-13c7-6 26-9 34-5l15 9 7 5 10 6a38 38 0 0 0 40-2l2-1 9-6 6-4a40 40 0 0 1 50-3l19 12a35 35 0 0 0 44-2l8-6 7-4 17-9c5-3 18-1 24 3l9 4 3 2 1 1 5 3 6 4 9 5 2 1q1 2 13 2a38 38 0 0 0 32-13l8-6a38 38 0 0 1 41-6l1 1 19 13 12 6c11 7 30 3 44-8 26-21 43-22 63-5l6 4 1 4v-13l-4-4a46 46 0 0 0-39-12m-4 22-19 12-7 4c-19 15-33 14-54-1l-12-8c-11-8-35-9-41-2l-5 3-15 10-14 7c-9 5-13 6-20 3-10-3-14-6-21-11-20-14-27-17-38-15-6 1-19 7-21 9s-19 15-23 16q-17 8-34 0a89 89 0 0 1-23-16q-18-12-36-4l-9 5-5 4-6 4-5 3-2 1-4 2q-20 15-44-1l-29-17-10-1c-9-1-13 1-20 6l-5 3q-4 0-9 5l-12 8-7 5c-2 2-24 2-25 0l-5-3-11-7c-24-18-33-20-51-11l-23 14q-1 2-16 9-11 4-26-3l-6-4-2-1-6-4-1 4q-1 5 5 8l6 4 5 3c4 2 5 2 14 2 12 0 15-1 34-13 20-13 31-17 44-13 4 1 11 4 13 7l13 9 12 6 5 3q7 2 18-1l17-9 9-6c11-8 15-10 29-13 6-1 23 6 28 12l9 6c12 8 16 9 27 9 11-1 15-2 29-13q11-8 26-14c5-3 18-2 25 2l19 12 18 9c3 2 18 2 22 0l9-6 7-4 6-4 7-4 4-3q21-14 46 4l6 4 4 3c9 7 26 13 31 10l4-1c5 0 19-8 28-16q28-26 58 0c9 8 23 15 31 15q15 1 35-15l8-6 8-5q20-10 39 6l8 5q3 2 3 7v-5c0-9 0-10-3-12l-8-6-7-4c-5-3-22-4-29-1m4 20q-13 2-22 12l-10 7a41 41 0 0 1-52-4c-28-20-39-20-68 0-29 19-37 19-65-1q-18-13-32-12l-11 4-4 1-5 4-5 4-9 6c-14 9-21 11-32 9q-15-2-22-8-27-23-45-16c-7 2-10 3-17 9l-5 3-10 6c-15 8-15 9-25 8-10 0-14-1-27-10-17-11-25-15-35-15q-12 0-16 4l-3 1-6 4-29 18q-21 6-40-11l-3-2-6-4-10-6q-19-8-41 8l-3 2-5 3-12 7-10 6c-9 3-29-3-37-11q-4-4-4 2c0 5 1 6 17 15 8 4 22 4 31 0l19-13 15-9 16-3q12 0 26 11l10 6 6 4c20 10 29 9 53-9 15-12 19-14 32-13 13 0 18 2 27 10l5 4 5 3c10 9 30 11 44 3l20-14 6-3 8-4 4-1a36 36 0 0 1 31 6l8 5 10 7a39 39 0 0 0 47-2l5-3 6-5q6-5 11-6l2-1a31 31 0 0 1 34 1l9 5c16 12 21 15 31 15 12 1 26-2 26-5l2-1 2-1 11-8 9-6q15-11 27-6c5 1 16 7 17 8 3 4 19 14 28 17h21l6-3 10-6c6-6 5-5 13-10l13-7c2-2 13-3 18-2 12 3 28 14 28 21v-5q-1-13-4-13l-3-2c-9-8-24-11-36-8m-3 21c-6 2-30 17-31 19-4 5-22 8-33 5l-23-14-6-4c-15-9-25-9-41-1l-13 7c-22 17-34 20-49 13-6-3-9-5-17-12-17-12-26-14-41-9q-9 3-13 7a147 147 0 0 1-34 19 22 22 0 0 1-17-1q-8-1-18-10a60 60 0 0 0-34-16 42 42 0 0 0-23 8l-9 7c-17 11-24 14-35 14a26 26 0 0 1-19-6l-19-13a37 37 0 0 0-46 1l-13 9-11 6q-6 6-19 5c-10 0-11 0-24-10l-13-8-12-6-16-3c-6 1-22 9-28 13-21 16-32 20-44 15-6-2-17-8-18-11q-3-4-4 4l1 5 5 3a43 43 0 0 0 57-4q24-19 42-14c7 1 7 2 17 9q23 16 39 17c5 0 17-4 19-7l33-20c2-3 19-2 25 0l6 4 11 7c14 9 22 13 32 14 7 0 8 0 12-2l21-13c18-12 23-14 34-14l11 1 7 4 9 5q16 14 28 16a35 35 0 0 0 23-4l2-1 1-1 11-7a85 85 0 0 1 28-15l5-1q14 1 30 13l10 7q21 13 41 4l17-12c26-19 35-19 58-2l17 10 6 3 3 1c3 3 20 1 28-4l5-3 13-10 15-8q10-5 19-3c10 3 13 4 19 10l7 5q2 1 2 6 0 6-1 4l-11-7c-10-6-10-6-18-7q-14-1-23 6l-5 3-3 2-9 6c-21 16-36 16-56 1l-8-6a43 43 0 0 0-53 1l-11 6-18 11-11 1c-10 0-15-2-29-12-19-13-19-13-31-13-13-1-13 0-27 10-6 5-23 14-30 17a37 37 0 0 1-32-7l-5-3-5-3-5-4a34 34 0 0 0-22-9 37 37 0 0 0-27 8l-3 2-6 5-7 4-8 5-5 2c0 2-15 4-16 3l-3-1c-3 0-15-6-28-15l-18-10c-3-3-26 0-26 3l-1 1-9 5-28 17a38 38 0 0 1-29-3l-31-20c-1-2-21-2-22 0l-3 1c-3 0-20 9-24 13l-10 6-12 5-3 1c-2 4-18-1-28-8l-4-2-2-1q-3-4-3 3a4 4 0 0 0 3 6c1 2 13 8 21 11q15 5 30-7c24-16 28-18 38-20q17-3 31 10l9 6 4 2 5 4a41 41 0 0 0 44-5l1-1 22-14c4-5 23-6 31-3l17 12 21 11a47 47 0 0 0 27-2l7-4 11-8a46 46 0 0 1 32-13q9 0 14 4l4 1 14 10c6 7 19 11 31 11 12-1 15-2 32-16q22-15 40-11 12 2 22 12c8 8 22 14 32 14l19-5 23-16c4-5 21-10 29-9q9 2 26 15l11 7q24 12 45-4 17-13 24-16c11-6 29-4 38 4l6 5c5 3 5 3 5 8q0 6-1 4l-14-8-2-1c-7-7-28-5-40 3l-9 7c-23 19-40 18-66-1-20-14-33-15-51-4-30 20-33 21-44 21-10 0-14-1-24-9l-6-4-5-3-15-9c-3-2-20-1-24 2l-16 9-15 10q-5 4-11 5l-3 1c-2 2-18 0-23-3l-3-1-2-1-17-13c-10-7-27-10-36-6a118 118 0 0 0-32 19 32 32 0 0 1-39 3l-4-2-10-7c-17-12-26-15-42-11-5 1-18 8-22 12q-2 3-9 6l-7 4c-4 5-22 6-31 2-6-4-14-9-15-11l-5-3-4-2q-7-7-23-7a29 29 0 0 0-18 3l-13 8-6 4c-20 15-35 17-53 4-10-6-9-6-9 0l1 5 5 3a39 39 0 0 0 54-2l3-1 2-2 1-1 2-1 14-9c7-3 23-3 29 0l20 13c7 6 23 12 32 11 9-2 25-9 31-16l18-11a39 39 0 0 1 40 9l11 8 12 6q20 9 56-20c11-9 33-8 47 2 22 18 37 22 54 13 7-3 18-10 23-14 7-7 24-12 30-10l8 3q8 2 21 12a52 52 0 0 0 21 11h19c6-2 15-7 19-11l5-3 6-5q8-8 24-8c12 0 18 1 26 9l11 8q17 11 30 8c10-2 13-3 20-8l10-7 4-3 4-3 8-4c11-6 27-4 35 3l7 5c6 4 6 4 6 9v-55l-18-12q-13-6-28 0m8 57-6 2c-5 2-19 9-24 14q-18 15-35 13c-8-1-26-11-30-16l-14-8-3-1-10-1c-7 0-7 0-16 4l-11 5-8 5-16 11q-8 4-14 4a41 41 0 0 1-25-9c-23-20-47-23-62-8l-3 2-13 9a45 45 0 0 1-32 7l-8-3-10-4-14-10c-1-2-12-7-18-8-13-2-23 2-47 19-8 6-19 11-24 10a42 42 0 0 1-22-8l-11-9-5-3-2-1-12-6c-6-2-17-1-23 2l-30 18-3 2-3 1q-2 3-11 5c-9 2-24-4-34-12l-4-3-5-3-5-3-5-3a30 30 0 0 0-29 1c-3 0-13 5-20 11q-31 23-50 8l-4-3-5-2q-6-6-5 2-1 5 5 8l5 3 5 2q20 13 48-8l10-7a38 38 0 0 1 54 4l2 2 3 1 4 2q1 3 13 7c5 2 15 2 21 0l13-6 9-6c16-12 22-14 33-14q14 0 23 8l8 5 9 5q12 11 29 8c7-2 11-4 26-14l12-8q16-9 32-5 10 3 11 5l23 15c4 3 13 6 18 6a61 61 0 0 0 33-15l6-5a39 39 0 0 1 50-1c20 15 25 18 38 18l12-1 6-3 29-20a41 41 0 0 1 42 3l9 6q10 8 16 10c6 3 22 3 24 1l3-1q3 0 22-13c12-9 16-11 25-13 7-2 25 4 33 11q6 6 5-1 1-3-6-9a31 31 0 0 0-18-9zm-4 22c-6 1-17 8-23 13l-6 4-8 5-4 2-4 2a39 39 0 0 1-36-8l-5-3c-5-5-5-5-11-8q-26-14-48 5-31 23-50 16l-14-7-5-4-12-8c-6-5-23-7-31-4-6 3-17 9-21 13-13 11-33 18-42 13l-20-10-7-5c-10-7-13-9-21-10q-14-2-22 4l-6 3-2 1-2 1-11 8c-9 6-22 12-28 12-8 0-23-8-35-17l-8-6q-24-13-50 9l-5 3-3 2-3 1-1 1-2 2-6 3a35 35 0 0 1-37-5l-10-7-5-3-1-1-3-2-4-2-3-1-3-1c-3-4-23-1-31 4l-5 3-9 6-10 7-2 2-3 1c-3 4-20 6-25 3q-14-6-18-10-7-6-6 2c0 5 0 5 6 9 20 12 33 12 51 0l5-4 7-4q6-5 15-9c13-6 31-1 43 10l13 8c19 9 29 9 43-1l4-3 8-6 7-5 14-6 8-2c10 0 16 2 35 16l10 6 1 1 6 2c4 2 6 2 14 2 11-1 12-2 25-10 19-14 22-15 30-17 15-4 20-2 40 13l9 6 3 2 4 1c4 4 17 5 25 2 9-3 9-3 21-12l12-8c4-4 6-4 16-6s26 2 32 8l20 13c4 5 24 6 33 1l27-18 4-3c2-2 11-4 19-4q13 0 23 8l7 6q15 12 31 12c11 0 15-2 37-17 22-16 38-16 58 1q3 2 3 7 1 6-3 3l-19-11q-21-6-46 16c-4 4-17 10-23 11-8 2-26-2-30-7l-19-13q-22-15-55 10c-22 16-37 18-54 5l-7-5-2-2-4-2a38 38 0 0 0-48-1l-8 5-4 3-6 4-8 4-7 3c-2 2-10 2-15 1l-9-2-15-9c-22-16-34-19-45-14l-22 13c-3 4-15 10-26 14q-10 4-26-6l-6-4-8-5q-23-19-42-8l-25 14a36 36 0 0 1-46 5l-5-3-17-12-4-2-4-2c-4-3-19-3-25 0l-23 14-11 7-10 6h-9q-13 0-27-10-7-7-6 0-1 5 5 8l6 4 1 1 1 1 3 1c2 2 10 4 16 4 8 1 28-8 34-15l18-11c10-4 30-1 36 5a91 91 0 0 0 23 15 40 40 0 0 0 40-4l8-5a67 67 0 0 1 26-14l8-1q12-1 22 6l10 8q24 18 47 9l9-6 10-7c12-9 27-14 37-12q13 4 23 12 14 13 31 15a52 52 0 0 0 32-13l8-5c5-7 20-12 30-11 7 1 19 6 26 11 24 21 41 21 67 2 27-20 39-21 59-4s43 20 59 7c27-19 30-21 42-21q12 0 25 10l5 5q2 0 2 5v-10c0-25 0-25-2-26l-2-1-11-8q-13-8-27-3m0 40-7 4-7 4-6 4-4 2c-7 6-19 13-23 14a42 42 0 0 1-32-7l-3-2c-3-4-18-14-22-15q-19-6-34 4l-26 16-3 2c-5 5-24 5-32 1l-17-11-18-11c-9-3-23 0-31 5l-7 4-8 6a46 46 0 0 1-40 12c-7-2-7-2-22-13-21-13-20-13-32-12-11 0-16 2-27 10l-30 17c0 2-10 1-15-1-11-3-18-7-36-20-12-9-31-7-48 6l-4 2-2 1c-5 9-23 15-36 14a45 45 0 0 1-23-12l-3-2-18-10q-16-8-40 8l-7 5-9 7a37 37 0 0 1-48-4q-9-8-7 1c0 5 1 7 17 15 3 2 19 3 24 2s15-6 20-10q32-29 60-9l5 4 7 4 11 6q20 11 44-7c22-16 35-20 50-15 5 1 14 7 15 9 2 3 23 14 30 16q11 1 24-6l7-4 9-6q21-16 39-12c9 2 10 2 22 12q30 24 53 7l6-4 11-7q3-3 11-6l5-3c4-2 15-2 22 0 6 2 16 7 17 9a54 54 0 0 0 20 12q6 4 18 4c8-1 9-2 14-4l4-2 12-8c11-8 15-11 21-13a38 38 0 0 1 27 1c2 0 3 1 16 11l18 10 14 2h12l5-4 9-5 15-13c4-4 17-7 25-7 13 1 30 12 30 20v-5c0-11 0-10-10-17q-18-10-32-6m3 21-9 2-12 8q-31 29-60 9l-8-5-4-3a43 43 0 0 0-57 2c-4 4-6 5-19 12-16 8-27 6-44-6l-9-6-8-5a35 35 0 0 0-41 3q-4 1-12 9c-6 6-8 7-18 10-14 4-24 2-42-10-18-13-21-14-32-15-8 0-9 0-16 4-13 6-17 9-23 13-11 9-29 14-35 11l-4-1-15-9-20-13c-11-6-20-6-36 2l-7 5-19 13-12 5-5 2h21l7-5 9-7c8-7 24-10 36-8 6 2 8 3 21 13l5 3 3 2c3 3 43 3 46 0l3-2 16-11a44 44 0 0 1 20-8c2-3 21 2 28 8 17 15 18 15 37 15h17l5-4 15-10c10-8 32-13 41-9l4 2 13 8 16 10c6 3 7 3 19 3 14 0 17-1 25-7l18-13c8-9 33-9 44 0 20 16 25 19 41 19 13 0 15-1 25-9 28-23 43-25 64-10q9 6 7 10l1 4-1-9v-9l-6-4c-10-9-17-11-33-9M88 486c-8 2-11 4-19 10l-19 13-5 3h5c7 0 9 0 17-6 15-11 19-12 32-12 11 0 14 1 28 11 9 7 10 7 24 7h12l-6-1-14-5-1-1-4-3-5-2-11-8q-19-12-34-6m642 8-6 3-19 11q-9 4 1 4 6 0 11-3 8-5 20-7 10 0 22 8c4 3 10 3 10 0l-1-3-4-3c-5-4-15-9-22-9l-8-2zm-131 4-15 8-8 6h6q6 1 13-3 17-9 32 1 2 3 10 2h7l-7-6c-12-9-14-9-24-10zM1 503q-1 10 13 9 12 0 5-2l-13-9q-5-6-5 2m473-4-11 5-11 7c0 2 12 1 17-1 6-3 20-3 25 0l11 2h8l-4-3c-10-8-28-13-35-10m-136 5-10 5-2 2c-2 2 11 2 18-1q9-3 21 1c7 1 17 2 17 0l-5-3c-11-6-13-7-22-8h-9zm-119-2-17 9 25 1c27 0 28 0 18-5q-16-9-26-5m-126 2c-4 0-16 6-17 7l23 1 23-1c0-3-22-9-29-7"
        mask="url(#16282281824-posters-1720554013689-horizontal-mask)" itemprop="light" fill-opacity="0.90"
        fill-rule="evenodd" stroke="none" fill="url(#16282281824-posters-1720554013689-vertical-light)"></path>
      <!---->
      <path id="16282281824-posters-1720554013689-regular"
        d="M0 3c0 6 24 15 35 13 7-1 26-12 27-15 0-1-11-2-11 0A33 33 0 0 1 9 3Q1-3 0 3m82-1L59 16c-4 4-15 10-22 12q-15 6-31-7-7-8-6 0c0 5 0 5 7 9 19 11 32 9 54-7 25-20 44-19 67 0 7 7 22 12 32 12 7 0 21-8 32-17 8-7 24-14 33-13 7 1 14 4 29 14 26 19 35 18 66-3 22-16 36-17 52-5 4 4 16 11 25 15q18 9 36-3l5-3 11-7c22-16 35-15 57 1 23 17 35 18 58 8l6-5 16-12 8-3 3-1-8-1h-7l-8 6c-27 20-42 21-62 4-13-10-11-10-35-10h-20l-12 8c-25 20-41 20-67-1l-8-7h-38l-7 4-12 9q-28 24-61-3l-7-4-5-3c-4-3-4-3-18-3s-19 1-25 6l-24 17q-23 12-51-13C111 1 91-3 82 2m43-1 12 7 11 6h10c9 0 10-1 16-4l9-6 4-2c2-3-9-2-14 0-10 6-29 5-35-1l-8-1q-8 0-5 1m131 0 9 5c16 8 26 8 41-2l6-3-6-1-6 1c-5 5-28 4-31 0zm132 1q8 6 15 6l7 1c5 2 26-5 26-8 0-1-11-1-20 1h-11l-12-2h-7zm129-1 7 4c13 6 29 4 38-3l3-2h-12l-14 1-12-1zm97 0 2 1q6 2 21 12c13 10 19 13 31 12 8 0 10 0 14-2l24-16 8-4q8-4-2-4c-5 0-6 0-12 5l-7 6-5 3c-13 10-36 7-52-8l-6-6h-8zm33 0c0 2 17 6 24 6l17-6-20-1zm100-1 6 5 11 8 5 4v-4q1-6-5-8l-5-4-6-1zm-26 13q-4 1-30 18c-6 5-17 9-23 9-5 0-19-5-24-8l-15-10q-26-19-46-2l-5 3-9 6c-23 16-38 16-56 2-28-23-42-23-70 0a43 43 0 0 1-59 0c-28-21-42-21-72 3a38 38 0 0 1-52 1c-25-17-30-19-42-17-7 1-20 7-23 11-10 9-24 17-34 18-11 1-18-1-36-14a49 49 0 0 0-39-12q-12 4-22 12Q31 60 9 43l-6-4-3-2v4c0 6 1 7 13 12 8 4 24 5 31 2l26-19 4-3 9-3c12-6 24-2 45 14 9 7 24 12 34 11a44 44 0 0 0 21-10l8-7c7-6 20-11 31-13 5 0 17 4 24 10 8 5 21 13 29 16q16 6 36-9c31-23 41-24 64-8 22 14 31 17 44 15 7-1 8-2 27-15q21-13 36-12c6 1 17 6 21 9q19 17 38 17c12 0 15-1 26-9l8-5 6-4q24-19 46-2c26 19 37 22 51 17 8-3 28-15 30-18l1-1 4-2c7-5 21-7 30-4 10 3 26 16 26 21v-4l-1-9c-2-1-18-13-20-13l-6-2q-10-3-21 0m2 19q-5 1-24 14c-28 19-37 19-65-1q-31-22-48-6l-12 8-12 8q-8 6-23 5c-11 1-18-2-31-13-22-17-37-17-58-1-26 19-43 22-62 8-25-16-28-18-38-18q-13-1-37 17a41 41 0 0 1-28 12c-12 0-16-2-33-15-23-17-36-16-61 2-21 15-30 18-42 15q-11-4-26-15-26-19-46-7l-5 3-7 5C36 74 27 75 7 62q-9-7-7-1-2 4 13 12c5 3 6 4 16 4 13 0 16-2 37-17q20-15 40-10c5 2 8 3 22 13 8 6 23 13 28 13q14 0 33-15c24-19 39-20 62-3 25 19 40 19 65 1 25-19 37-20 56-7 24 16 34 20 47 17 7-1 9-2 16-7l15-9c22-15 36-15 52-1l7 4 8 5c8 5 20 8 27 8 9-1 15-4 28-14q35-25 53-8l27 17q22 10 45-9c21-17 35-20 50-13q19 11 22 18v-9c0-3-10-11-22-17-5-3-17-4-24-2m1 21c-8 2-12 4-24 12a65 65 0 0 1-22 13q-20 6-43-13c-11-9-27-15-36-12q-13 3-28 15c-15 12-24 15-37 13-7-1-14-5-31-18q-12-8-24-8c-12 0-17 2-31 13-24 17-36 19-55 10-5-2-8-5-17-12a38 38 0 0 0-47-3l-10 6a66 66 0 0 1-34 17q-12-1-28-12c-33-23-36-23-71 2-24 16-33 16-60-2-23-15-34-17-53-6L54 81a34 34 0 0 1-33 8c-7-3-10-4-19-11q-2-2-2 3-2 5 6 8 26 18 48 0l13-9c21-15 37-15 58 1 24 18 41 19 62 3 18-15 27-19 41-18 6 1 8 2 19 10 25 17 36 20 49 15q12-5 15-8c2-2 16-12 21-14q26-12 45 5 31 27 58 8c26-18 31-20 44-19 10 0 15 2 24 9 4 3 15 10 24 14 6 3 20 3 27 1l31-20c15-11 27-9 51 7 27 18 39 18 62 1 26-20 37-21 59-6 11 7 12 7 12 11v-3c0-9-1-11-8-15q-4-1-6-4c-8-6-21-8-31-5m8 19q-11 0-23 8l-30 19q-9 3-23-2c-7-2-11-4-23-14q-30-22-61 6l-7 5-6 3q-14 7-26 4c-8-2-11-3-34-20-11-8-28-9-40-1l-5 3-13 10c-3 3-16 9-22 10q-18 3-35-11a50 50 0 0 0-35-15q-10 1-15 4l-6 3-7 6-11 7-14 7q-7 3-19 1c-9-2-9-2-24-13-23-16-28-17-48-8l-10 5a67 67 0 0 1-36 19q-13 1-30-12c-11-8-13-10-21-12-15-6-25-4-45 12l-6 4-6 4q-21 15-45-3-7-6-6 1 0 6 13 11l6 3q14 5 30-5l6-3 7-4 15-10q20-12 48 7c26 19 41 20 63 2 23-19 39-22 56-9l24 14q22 13 45-7l13-9c19-12 31-11 52 3 18 12 22 14 30 15q15 2 39-15a50 50 0 0 1 19-10q20-8 40 9l14 9 11 5h9q20 0 42-19 4-5 18-8c11-3 13-2 35 13l21 12c11 4 30-1 41-10l20-14c6-3 25-4 27-1l3 1c1 0 12 7 17 12q5 5 5-2c0-4 0-4-9-10s-20-11-23-11zm-8 21q-11 2-23 13c-23 18-41 19-62 2q-14-12-24-14c-12-3-31 4-47 18q-13 9-27 10c-10 0-15-2-34-15l-10-7c-5-4-17-6-22-5-7 1-22 9-31 16-22 18-41 17-68-5q-12-10-25-9c-12 0-15 2-44 22-9 6-14 7-24 7-9-1-10-2-25-11-24-15-24-15-35-15q-15 0-25 8l-7 6-8 5c-19 13-32 12-55-4-14-9-20-12-27-13a35 35 0 0 0-25 7l-19 11-6 4a33 33 0 0 1-43-1c-9-6-8-6-8-1s0 5 13 12c7 3 8 4 16 3 12 0 18-2 34-14a43 43 0 0 1 60-3l3 2 4 2q28 25 58-2c9-7 23-15 32-16q14-1 32 12c6 6 17 12 23 14 9 3 25 0 34-7l22-16c9-5 25-6 33-2 5 3 21 12 27 17q21 14 44-1c30-21 38-23 53-19q12 2 19 10c14 13 37 18 50 12l10-7 8-5c13-9 15-11 22-12q17-6 33 8c14 12 35 20 42 17l6-1q6-1 18-9c19-15 26-18 37-18 10 0 14 1 27 11 9 7 9 7 9 12l1 4-1-9v-9l-7-5a42 42 0 0 0-38-10m6 19q-8 1-17 6l-10 6-7 6q-27 22-61-5a39 39 0 0 0-28-11c-10-1-16 2-34 14-28 19-39 19-64 0q-31-23-52-5l-5 3-8 5c-12 9-27 15-36 13-12-3-13-3-28-15l-5-3-2-2c-7-8-25-9-40-2l-10 4-6 5-22 14q-19 5-39-11-31-25-55-8l-18 13c-11 8-15 9-25 9s-14-2-30-12c-24-17-33-18-47-10l-9 4-9 6c-7 6-22 14-29 15q-13 2-30-11-5-5-4 2 0 8 18 14 19 6 34-6l6-3 6-4 7-5 5-3q10-7 26-5c7 1 10 3 22 12 28 20 44 19 72-4 4-4 13-8 19-10 13-3 19-2 39 12l11 8q21 14 47-5c35-25 42-25 75-1 10 7 14 8 23 9 12 1 14 0 46-22 16-10 36-8 51 5q23 20 45 14 9-3 28-17c10-8 14-10 23-11 10-1 24 5 32 13 7 7 21 13 31 15q18 1 41-19c10-9 27-13 38-8 12 6 24 15 24 20v-4c0-8 0-9-4-11q-11-11-24-13c-7-2-8-2-11-1m-9 22-20 12-21 12q-21 8-45-13c-20-17-36-16-63 4q-15 11-28 13-12 3-31-11a93 93 0 0 0-25-15c-11-4-28 2-41 14-14 13-40 18-51 10-40-29-45-30-80-7-19 13-21 13-31 13q-14-1-27-10-31-24-51-13l-17 10q-21 20-41 14c-6-1-10-4-25-14-24-16-33-16-63 5-26 17-34 18-52 5l-8-5-1 4q0 6 11 11l7 3c9 4 23 2 32-4l7-4 4-3c24-19 41-20 60-5 6 5 10 7 23 13 15 7 27 4 46-10 28-21 40-21 65-2 23 17 38 17 58 1 28-21 43-23 66-6q33 25 55 9l14-10 6-4c21-12 34-11 57 6q21 15 37 12a59 59 0 0 0 20-10l11-7c19-15 33-15 50-3l20 13q21 13 47-5c34-24 41-24 65-6 8 6 8 6 8 1 0-4 0-4-13-13q-17-11-35-5m3 19-21 11c-2 2-12 10-19 13-15 7-29 3-50-12a39 39 0 0 0-53-2l-3 2-17 11c-12 9-29 8-43-2l-8-5-7-5q-9-7-23-9c-11 0-19 3-38 18q-27 20-50 5c-23-17-28-20-39-21-9 0-23 5-34 14l-10 7-10 6a35 35 0 0 1-32-3q-4-1-12-8-30-22-51-7l-8 5-11 7a37 37 0 0 1-52 1c-26-21-42-22-68-4-29 21-38 22-58 7q-9-8-7 0-1 5 6 8c10 6 13 7 25 7s17-2 31-12c19-14 24-16 38-15q12 1 22 10 29 25 51 13l17-10c19-14 22-15 35-15q11 0 22 8l15 10q3 3 12 6 19 6 37-7c28-22 41-25 58-15l12 8 9 5c8 6 12 7 24 7 12 1 15-1 26-9l8-5c0-1 14-9 20-11 14-5 24-2 46 15l5 3 5 2q16 8 31 3l23-15 7-5q23-14 45 1c11 9 13 10 21 14q14 7 29 3c9-2 11-3 25-15q28-21 52-3l7 6q6 4 5 7v-4c0-9 0-9-10-16q-19-12-35-8m-1 21q-7 2-20 11a53 53 0 0 1-33 15c-10 0-24-5-33-13-16-16-38-18-52-6l-6 5-13 7q-16 12-29 10c-7-1-9-2-24-12a63 63 0 0 0-27-15c-14-2-20 0-38 14q-11 8-23 12c-15 6-24 3-45-13q-22-15-37-11c-7 3-23 12-29 18a41 41 0 0 1-42 8l-12-7-4-3-6-4c-22-16-36-14-64 9-10 7-15 9-25 10-12 0-18-2-35-15a43 43 0 0 0-29-11c-10 0-11 0-15 2l-26 17c-19 13-31 13-51-1l-5-3v4c0 5 1 5 13 11 17 9 27 7 47-7l14-9q8-6 24-6 12-2 26 10c5 5 18 13 20 13l6 1q15 5 32-6c15-12 19-14 25-17a32 32 0 0 1 31-1l10 6q22 17 38 17c11 0 12-1 29-12 15-10 19-12 28-15q14-5 27 4l7 4 8 6 15 8 8 2c12 2 23-2 41-16q20-14 33-12l18 6c5 5 24 16 30 19q22 9 49-16 10-10 25-11c7-1 8-1 14 2q14 7 24 15 12 10 27 10c11 0 15-2 39-18 16-11 24-13 38-9l9 5 8 6 6 4v-4c0-4-1-6-16-14q-14-9-30-4m5 19-7 2a67 67 0 0 0-21 12l-8 5q-24 18-55-6-27-22-49-7l-8 5c-2 4-23 15-30 17q-15 4-27-3-9-7-13-8l-4-4-9-6c-15-7-27-5-49 9-33 22-40 22-72-2a39 39 0 0 0-54 3q-9 8-19 14l-20 3c-5 0-16-5-25-11l-5-4-6-4c-19-13-33-11-59 8-20 16-33 17-50 6l-14-9c-21-14-34-14-57 1-24 16-30 19-39 18-6-1-16-5-22-10q-7-7-6 0 0 4 2 5l8 5q17 11 36 3l24-15c6-4 17-9 24-10 9 0 14 1 24 8l18 12q21 14 45 0l15-11q26-22 55-1l11 8c10 8 28 11 35 7l4-2 8-4q30-23 45-22c8 0 11 2 33 16 18 12 25 13 39 8 6-2 18-9 22-13 10-9 31-15 40-12 6 2 18 9 20 11 1 1 11 8 18 11 15 9 29 5 51-12l13-9q20-12 42 6c28 23 43 23 71 2 16-12 20-13 33-13q14 0 23 10l8 6 2 5v-4c0-10 1-9-10-16q-19-12-31-8m-7 21q-4 1-8 5c-7 6-21 14-29 18-6 4-8 4-14 3-12 0-16-2-41-19-9-6-11-6-21-6q-17 0-30 10l-8 6-7 5q-9 5-22 7c-8 0-14-2-26-11-30-22-40-22-67-2-28 21-40 20-71-2-21-15-37-13-58 6l-14 8c-5 4-16 6-23 5-8-1-13-4-26-13l-14-9c-9-6-23-6-34 0l-12 7-12 8q-13 10-24 9c-9 0-21-4-28-10a60 60 0 0 0-36-16 22 22 0 0 0-17 5l-15 9c-7 5-23 14-27 15-4 2-5 2-13-1-10-3-12-4-15-7q-10-10-9-2-1 4 6 7l7 5c3 2 14 5 18 5a44 44 0 0 0 25-9l1-1 4-3 6-5q24-21 55 0l25 14c5 2 21 2 25 0 8-4 13-8 24-16 18-14 39-14 53-1l9 6 10 6c8 5 21 6 28 4l21-13 5-4 4-3c5-3 18-8 24-8 8-2 15 1 29 11 22 14 23 15 35 14 9 0 10 0 17-4q15-7 20-13l8-4c3-3 14-6 21-6q14 0 33 15l14 8c4 3 18 4 26 2 5-2 23-13 24-15l8-5c19-12 33-11 51 6q20 16 41 12c9-2 13-4 29-16q16-12 30-12c5 0 18 7 31 16q3 2 2-3 0-5-16-15c-7-5-25-6-32-3m4 19-9 4-4 3c-1 0-12 7-17 12q-10 8-25 8c-11 0-17-2-35-15-25-17-34-16-69 9a40 40 0 0 1-48 0c-15-13-34-20-47-17-5 1-17 8-19 12l-9 6-19 9q-15 7-43-14c-20-14-34-16-50-5l-16 11q-27 22-54 2l-20-13c-2-3-14-5-18-5q-14 3-35 17c-23 17-35 17-62-2-15-11-18-12-28-12q-9 0-13 2l-7 4-15 9c-27 18-40 18-57 4q-7-7-6 0c0 5 0 5 10 10 7 4 10 5 19 7 9 1 27-8 44-22q9-5 24-6 14 0 30 12c19 15 39 18 52 8l8-5 9-6c11-10 28-14 38-10q13 4 21 11c12 10 27 16 34 14l5-1q7 0 22-12c9-7 21-13 28-15h18l7 3q6 2 11 6c14 13 23 17 37 16q16-1 31-16 9-7 25-11 14-3 20 2l3 1q2 0 9 6l14 9c20 12 35 10 55-6 13-11 29-17 38-16l29 16a43 43 0 0 0 58-1c20-14 24-16 36-16l13 2 11 8 9 6c2 0 1-9-1-10l-7-4q-18-14-35-9m-3 21-14 9-13 8c-15 10-23 12-37 7a80 80 0 0 1-26-15l-4-3c-13-9-34-7-48 4l-29 18q-16 5-33-7l-14-10q-13-9-22-9a33 33 0 0 0-21 6l-13 9-15 9q-23 15-55-12a37 37 0 0 0-50-1c-3 4-20 14-27 17q-18 9-39-6c-20-14-24-16-34-17q-16-3-41 18c-19 15-35 15-56-1-22-16-33-19-48-11l-23 13-13 7c-15 7-23 7-37-3-10-6-10-6-10-2 0 8 19 17 33 17 6 0 17-4 22-8l6-5 8-5c10-8 16-10 27-10 12 0 15 2 32 13 20 15 31 17 48 8 7-3 10-5 24-15q24-19 52 3c14 10 16 11 21 13l15 1c11 0 15-1 25-9l5-3 5-4c12-10 30-15 41-10l27 16q23 17 45 2 18-14 26-17 20-11 41 3l13 9c12 8 16 9 28 9q10 1 13-2l6-3 2-2 2-1 21-15 7-3q21-7 41 10 16 15 34 14c12 0 17-2 33-14 14-10 18-12 26-14l8-2q3-2 6 1l5 4q5 1 16 10l5 4v-4q1-6-12-14l-4-2c-7-5-22-6-31-3m5 19-5 1q-7 2-18 11-5 5-16 10c-15 8-24 8-36 1l-8-4-2-2c-3-3-18-13-23-14-6-2-19-2-24 0l-12 7c-33 23-44 25-62 14l-7-4-5-4a39 39 0 0 0-52-4l-7 5-8 5a42 42 0 0 1-56-1l-13-9c-16-11-31-9-53 8s-35 19-53 8l-13-8c-4-5-22-12-28-12-10 0-27 8-38 18-11 9-36 15-41 9l-6-4q-7-3-16-10a41 41 0 0 0-43-8q-12 6-21 13c-17 14-36 16-49 7l-5-3-3-2q-5-6-4 1-1 4 5 7c15 11 34 13 45 5l4-3 5-3c22-15 26-17 37-17 10 0 15 2 33 14l19 10c11 4 26 2 34-4 2-3 15-12 22-17q22-13 48 5l6 5c16 10 20 11 29 11q10 0 16-3l18-13 7-4q24-16 46-2 37 26 49 19l6-3 9-5c34-24 45-25 71-7 18 12 24 14 34 14 11 0 17-3 36-16 23-18 35-18 60 1l17 10c10 6 30 2 41-7 28-23 43-24 65-7q9 6 7 9l1 4-1-9v-9l-5-3q-8-6-18-10c-5-2-19-3-19-1m-3 21c-6 2-22 12-28 17-3 3-14 8-20 10q-14 3-31-9c-27-20-40-23-57-12l-4 3-12 7a74 74 0 0 1-29 14c-3 2-27-8-29-12l-17-11q-18-13-50 11c-26 20-40 19-71-5a33 33 0 0 0-40-4l-11 7-9 7c-26 15-34 15-57-1l-23-14c-9-2-22-1-29 4l-7 4-9 6-18 11c-2 3-11 4-18 3-8-1-15-5-30-15-22-16-30-16-54-2l-12 8c-18 14-33 14-53 1q-7-6-6 1 0 4 5 6c23 15 33 14 60-4q18-14 30-14a38 38 0 0 1 24 6l1 1c0 2 18 13 26 17 16 6 24 4 45-11 16-11 22-14 34-16 6 0 17 4 25 10 27 22 44 23 68 4 13-11 31-17 41-15q10 2 25 13 19 14 31 13c10 0 12-1 33-15l7-4 4-2c12-10 31-9 46 2l7 5 7 4c13 12 39 10 54-4 23-21 41-23 63-5q18 16 34 14c12 0 17-2 29-11 28-21 40-23 62-6l8 6v-4q1-5-4-8a41 41 0 0 0-41-11m3 20-9 3c-4 1-15 10-15 11l-12 7-11 6h-10c-12 0-19-3-33-14-22-17-35-16-63 3-30 19-36 19-68-3q-28-20-50 0c-10 8-27 17-36 18-8 2-25-3-32-9l-20-13c-12-7-28-5-40 5-6 6-31 19-37 20-10 1-17-2-32-12-30-20-38-20-68 1-16 11-20 13-31 12q-15 1-25-8l-9-6-6-4q-10-8-23-8c-7 0-14 3-29 12-27 17-29 18-37 17-9 0-24-7-28-12q-3-4-3 2c0 5 0 5 16 13q16 9 30 1c6-2 15-7 16-9l20-12q20-9 40 5c17 13 27 17 38 17 11 1 15-1 30-12 27-20 41-21 61-6 18 13 18 13 26 16 14 3 22 1 38-11q34-24 52-15l24 16q20 14 37 6l22-14 12-7c18-9 28-8 47 7l14 9 8 5 12-1a29 29 0 0 0 22-5l11-7 9-7c14-9 13-9 23-8 10 0 15 2 29 12q35 26 59 4l13-9c21-14 34-14 53 2 7 5 7 5 7 10l1 4-1-9v-9l-5-4c-11-8-15-9-28-11q-3-1-9 1m0 20c-7 2-12 5-25 14-14 9-18 11-25 13-11 2-28-4-40-14-10-9-25-14-36-11-5 1-21 9-25 12-26 20-41 21-60 6-17-13-23-16-33-16q-15 0-25 7c-35 25-50 27-74 8q-27-22-48-10l-24 16-10 6q-21 9-37-4c-34-25-37-26-66-10l-9 7-12 7c-16 9-26 8-46-7-18-12-23-14-33-15l-12 1-27 16q-33 24-58-1-2-3-2 3-1 5 4 7c23 15 37 14 61-4q33-27 62 0c7 6 26 13 35 13 5 0 15-4 21-8 18-15 29-20 41-21 9 0 13 1 30 12 15 10 23 14 34 15 10 0 10 0 33-15 19-13 20-13 33-13 11 0 13 1 29 11l12 9a35 35 0 0 0 37 1l8-4c23-17 34-22 46-20 5 1 19 8 21 10 1 2 13 10 19 13s7 3 17 3c13 0 16-1 29-11 31-23 40-24 62-7 28 21 45 22 66 4 24-20 42-22 62-6 7 6 7 7 7 11l1 4-1-10v-8l-7-5c-15-10-24-13-35-9m-2 20-30 19q-24 20-55-5-17-12-30-13a16 16 0 0 0-13 2c-2 0-20 10-27 16-20 16-34 15-58-2-17-12-21-13-30-13-10 0-15 1-23 8q-13 10-32 18-20 9-50-16a40 40 0 0 0-23-8c-4-3-20 3-30 11l-8 6c-27 16-32 16-60-3-16-10-23-13-31-13-11 1-14 3-32 15-30 19-41 19-65-1-7-5-20-11-26-12a67 67 0 0 0-34 12l-6 4q-14 12-30 13c-10 0-12-1-26-10l-6-4v4q-2 4 7 9 27 19 52-2l9-6 8-5q24-15 47 3 27 23 50 15l24-16c3-3 20-10 25-11 11-1 15 1 38 16 23 16 35 15 59-2 13-11 20-14 30-15 13-2 20 1 37 14q30 24 59-1c12-11 28-17 40-16 10 1 14 3 30 16 10 8 16 10 27 10 13 0 20-2 36-14 25-20 37-20 63 1q27 21 53 4l17-12c18-13 31-13 52 2l6 4v-4c0-4 0-4-6-8l-9-6q-13-9-29-4m4 20c-9 1-15 5-29 16a42 42 0 0 1-55 2l-13-9c-5-4-15-8-22-8-9 0-16 3-33 14-30 20-38 20-64 3l-21-14-10-1c-10 1-13 2-27 11l-7 4-4 3-4 3-5 3c-7 5-24 7-33 3l-5-2-2-1-18-14c-18-12-33-10-58 8-17 11-20 13-25 14q-15 3-37-14c-24-18-41-18-64 1l-11 7-10 5c-10 6-26 2-39-9a60 60 0 0 0-36-16c-7 0-25 8-35 16q-2 3-12 8c-15 8-26 7-41-3-9-6-9-6-9-1q0 4 5 7 26 19 48 3l15-10c13-10 31-14 42-9 4 1 15 8 21 13a44 44 0 0 0 57 0c29-22 41-23 64-6 29 21 41 21 71-1 22-17 37-16 59 0 26 19 41 19 66 0q27-20 39-13l5 1q6 0 20 11c14 11 19 13 32 12 13 0 17-1 26-8 20-16 25-18 38-19q15-1 26 9 22 19 43 16c9-1 10-2 23-11 28-21 40-22 61-7 8 6 8 6 8 1 0-3-5-9-7-9l-7-4c-5-3-14-6-18-6zm-1 20q-9 1-24 13c-28 20-39 20-66 0q-20-14-35-11c-7 2-23 10-30 16-24 17-34 17-58 1-19-13-24-15-35-15q-11 0-22 8c-21 16-29 20-41 20q-14 0-26-7c-34-24-41-25-70-5-28 19-40 20-63 2q-26-22-48-10l-21 13c-18 11-21 12-27 12-8 0-21-4-29-11q-29-23-44-15l-4 2c-2 0-12 5-21 12l-13 8-8 5-11-1c-9 0-11 0-14-2l-10-6-8-5v4c0 5 1 6 13 13 17 9 30 7 47-6 30-22 43-23 67-5l6 4 4 2c2 3 11 7 17 8q19 3 42-17 26-21 53-3l9 6 7 5c11 9 29 10 43 2l23-16c13-9 32-9 44-1l10 8c23 17 38 17 63-2 25-18 39-19 61-2 26 19 40 20 64 2 20-14 26-17 36-17 9 0 23 6 33 15q20 17 41 10c7-3 10-5 25-16 17-12 25-14 40-8q10 3 18 10l3 2v-3q1-3-6-9a39 39 0 0 0-35-10m5 19-7 2q-5 1-15 8l-30 18c-14 4-24 1-44-14-9-7-21-12-28-12s-22 6-27 11c-8 8-23 15-35 19q-13 3-35-14a43 43 0 0 0-49-8l-6 4-7 4q-30 27-60 6l-4-2-6-4a38 38 0 0 0-50-3l-6 4-8 5c-24 17-36 16-64-5a38 38 0 0 0-52 0c-34 24-45 25-70 5a46 46 0 0 0-64 0q-15 12-26 15a38 38 0 0 1-29-6l-5-3q-7-7-6 0c0 8 23 19 37 17 7-1 10-3 28-14 16-11 23-14 34-14q14 1 26 10 5 6 17 11c20 10 31 7 55-12 7-6 23-12 31-12q9 1 29 15c24 17 37 17 59 1 17-12 20-14 28-16q20-4 36 9c11 10 26 17 36 17s17-3 35-17c23-16 38-16 58-1 25 19 42 21 62 6l18-13q22-16 48 5c25 21 39 21 68 0 23-17 39-18 57-4q9 9 7 1c0-8-27-21-36-19m-7 22c-4 1-20 11-25 16-5 4-20 11-26 12a51 51 0 0 1-35-14q-22-17-37-12c-10 2-24 10-31 16-4 4-15 9-23 11-6 2-6 2-13 1-7-2-9-3-24-14-25-18-34-17-62 2-20 13-27 16-38 13-15-3-15-3-33-16q-22-16-41-6l-11 6-10 8c-22 16-36 15-66-6q-19-14-35-9c-6 2-23 12-27 16-20 17-33 16-61-3-24-16-31-17-53-4l-8 5-13 9a36 36 0 0 1-47-3q-9-8-7 0 0 4 2 4l5 4q19 15 37 8l21-13c3-3 17-11 24-13 14-3 23 0 36 10q27 21 48 13l27-17q11-8 27-8c11-1 12 0 30 13q26 18 43 11l27-18 6-3c16-9 36-7 50 6q22 21 47 12c4-1 17-10 27-18 8-6 25-10 33-7l18 9c21 16 25 18 39 17 10-1 18-5 36-19q28-22 54 1c13 12 31 18 44 14 7-2 9-2 28-17 21-15 34-15 54 1q7 8 6-1 2-6-16-14c-6-3-22-5-27-3m4 19q-12 4-18 9l-4 3-5 2q-9 8-18 12a41 41 0 0 1-38-5l-8-6a47 47 0 0 0-35-13 53 53 0 0 0-20 10l-9 5c-28 19-35 19-61 2-30-20-37-20-66 1q-34 24-59 3l-25-15q-17-4-37 9c-34 24-44 24-77 0-12-9-19-10-31-8-7 2-23 10-28 15l-7 5c-19 12-34 11-54-5l-6-4-6-4q-22-15-49 6c-26 20-40 22-59 9-11-7-10-7-10-2 0 4 0 4 7 8q27 19 53-1c15-11 19-14 30-17s18-1 33 8c23 16 31 19 44 17 7-2 11-3 22-11 10-8 11-8 20-13 13-7 30-5 43 6 23 19 39 22 56 11l5-3 8-5a68 68 0 0 1 22-12q20-8 38 7 31 27 52 13l23-15q26-21 57 4l16 10q7 4 21 3c10-2 14-4 29-15s20-14 30-14c7 0 19 4 24 8 20 19 45 24 59 13l5-3 10-7q26-25 55-3l7 5v-4q2-6-12-13a37 37 0 0 0-27-6m3 21c-10 1-12 2-29 14-11 8-15 10-21 12q-17 4-29-3l-15-9-3-3c-13-13-38-12-56 3l-15 9c-20 11-27 10-49-4-20-13-21-14-30-15q-19-2-36 15c-9 8-12 9-24 13q-17 5-40-12t-37-15c-6 1-25 12-34 19a40 40 0 0 1-48 3l-26-17q-18-10-46 10l-7 5-7 5-10 5-5 2h8c9 0 9 0 24-11 16-13 37-14 51-3l14 10 5 4h20c17 0 20 0 22-2l18-12c22-14 36-13 56 3 13 11 14 11 32 11h15l4-3 7-5 11-7q22-15 39-8c8 3 11 4 22 12 12 9 16 10 29 11 14 0 18-1 26-7q15-12 26-17c12-6 29-4 41 6l9 7a40 40 0 0 0 55-1c27-22 41-24 62-8 7 5 7 5 7 10l1 4v-9l-1-8-7-5c-11-8-17-10-29-9M90 486l-9 3-14 9-17 12-4 2h5c6 0 8-1 18-8 21-15 36-16 57-1 10 8 13 9 22 9h9l-6-2-21-12q-24-19-40-12m636 10-15 9-11 7h5q7 1 10-2 23-16 45 0c3 3 9 3 9 0 0-2-13-11-20-13q-13-4-23-1m-123 2-9 3-9 5-8 6h5l12-3a28 28 0 0 1 26-3l6 3q5 4 11 3h6l-7-6c-10-8-12-8-22-9zM1 503q0 9 14 9h8l-4-2q-4-1-8-5-12-10-10-2m467 0-12 6-3 3h4l9-2q16-8 30 0l10 2h6l-4-3a37 37 0 0 0-40-6m-121-2-8 3-9 5-4 3h5l13-2q13-3 23 0c5 2 15 3 13 1-5-6-25-12-33-10m-128 2-11 5-6 3 3 1 13-1h14l13 1h7l-3-2c-8-6-22-9-30-7m-130 2-12 7h22q22 0 21-1c-5-5-24-8-31-6"
        mask="url(#16282281824-posters-1720554013689-radial-mask)" itemprop="regular" fill-opacity="0.90"
        fill-rule="evenodd" stroke="none" fill="url(#16282281824-posters-1720554013689-horizontal-regular)"></path>
      <!---->
      <path id="16282281824-posters-1720554013689-medium"
        d="M0 3c1 5 20 13 31 13 7 0 24-8 30-14 3-4-7-3-13 1Q30 16 9 3-1-3 0 3m86-2-3 1c-1 0-19 11-23 15-5 4-20 12-27 13q-13 2-27-9-7-6-6 1-1 4 4 5l7 4c9 6 24 7 35 1 5-2 22-14 23-16 2-3 16-8 24-8a39 39 0 0 1 22 6l14 10c11 9 32 13 42 7l19-12q16-13 33-13c11-1 13 0 32 13 25 18 34 18 64-3 17-12 26-15 37-13 4 1 9 4 25 14 22 14 35 16 49 7l7-4 12-8 18-9 8-3h-9l-9 1-3 2-5 3q-34 31-67 5C367-1 371 0 351 0h-18l-7 4-15 11-9 5q-24 13-51-10l-10-6-6-4h-13c-15 0-15 0-34 13q-17 14-26 15c-10 2-28-6-41-18l-10-6-7-3zm40 0 23 12q15 4 32-8l7-4-5-1q-5 0-8 2-10 6-21 5-14-2-17-6l-7-1q-6 0-4 1m131 0 10 5c9 5 22 7 25 4l3-1 7-3 6-3 1-1q2-2-4-2l-4 1c0 4-22 5-30 1-5-2-17-3-14-1m132 1a40 40 0 0 0 46-1h-12c-2 2-21 2-22 0l-7-1q-9 0-5 2m95-1 8 4 13 8 17 10 10 5h9q15 0 33-14 13-10 20-13l-5-1-7 1q-27 23-46 21c-9-1-13-3-24-12l-13-9-9-1q-10 0-6 1m34 0a40 40 0 0 0 43 1l3-2h-10l-16 2-7-1-8-1q-6 0-5 1m102 2 19 13q29 24 67-8l7-4 4-3h-11l-23 17q-24 7-48-12l-7-6h-13zm27-3c0 2 11 5 19 6 9 0 10 0 15-2l6-3-20-1zm104 3 8 6 6 4q4 5 4-1 1-3-6-7l-5-4-5-1h-5zm-26 9q-7 1-30 18-17 11-29 11-18-3-28-13a43 43 0 0 0-46-12q-11 5-26 16c-20 14-35 13-55-2-19-14-25-16-40-14q-11 1-29 16-6 7-20 10c-13 4-23 1-40-12-12-8-13-9-22-12-14-5-25-1-48 16q-27 22-52 2a87 87 0 0 0-31-17q-18-4-39 14-24 18-41 14-7-2-30-17c-11-8-18-10-30-9-6 1-20 8-27 14Q31 60 8 43q-9-8-8-1 0 4 3 5c24 14 35 13 59-6q12-9 15-9l6-2c9-5 25-2 38 8q21 16 38 16c9 0 17-4 32-16 18-14 39-17 53-5l30 17q12 5 30-4l17-12c3-3 12-7 18-9 14-4 20-2 38 9 12 8 26 15 31 15q15 1 28-8c26-20 41-24 58-16l9 6c2 2 21 14 25 15q18 6 36-6l9-5 7-6c15-11 33-12 46-3 31 23 44 26 66 12q13-8 15-12l3-1 4-2q7-5 18-5c11 0 16 2 30 13l7 5v-3c0-3 0-3-11-11q-18-13-33-10m0 20q-7 2-27 15c-18 12-24 15-35 13q-14-1-30-16c-15-12-34-14-45-6l-25 16c-6 4-19 8-26 8s-24-9-31-16c-5-5-16-10-25-11q-12-3-35 14c-26 19-40 19-64 2-29-21-38-20-70 4-13 9-16 11-28 10l-13-1-21-15c-21-15-34-14-61 5-16 12-20 14-32 13-11 0-17-2-34-15-13-9-17-10-28-10-8 0-10 0-14 2-8 4-24 14-28 18-4 3-14 8-19 9q-11 1-26-8c-8-5-8-5-8-1q0 4 14 11 19 9 41-6l6-4 5-4q13-11 31-10c9 0 14 1 28 12 25 18 40 18 62 1 26-20 41-22 63-5 26 19 42 20 67 1q20-15 35-15c6 0 10 1 23 10l18 11 9 5 11-1 14-1 17-11c18-12 19-13 29-14 11-2 16-1 28 8l17 11c14 9 35 9 45 0 7-5 23-16 29-18 14-6 23-4 43 10 25 18 43 18 63 1 7-7 24-15 32-16q12-3 34 15l5 3v-4c0-3-1-4-11-11-14-9-22-12-33-9m-1 21c-7 2-9 4-25 14-18 11-23 13-33 13-10-1-23-7-31-15a43 43 0 0 0-40-10c-7 2-17 8-22 13a46 46 0 0 1-45 12c-4-1-19-11-23-15-4-3-14-8-19-9-13-3-23 1-38 12-28 21-44 21-68 2q-22-18-40-12a76 76 0 0 0-22 13l-3 2-7 5c-20 12-29 11-56-7-26-16-31-17-51-5l-17 11q-14 11-26 11c-10 0-15-2-34-15a46 46 0 0 0-30-11c-9 0-12 1-29 12l-11 8a36 36 0 0 1-49-1q-6-6-5 0 0 4 4 6l5 4 8 4q18 8 39-8l22-15 5-2q17-7 42 10c23 17 37 19 56 7l11-8 8-6q10-7 24-7c10 0 11 0 27 11q17 12 26 14c6 2 16 1 20-1l7-3 13-9c24-18 41-19 63-3q32 27 59 4l24-14q19-10 43 8c29 22 41 21 76-5q11-9 24-8c10 0 14 2 31 14 16 11 20 12 31 12q13 1 27-10c28-22 40-23 61-9 13 9 13 9 13 5q-1-6-20-17c-6-3-18-4-25-2m0 20-10 5-19 12c-21 16-35 14-64-7a39 39 0 0 0-50-1l-3 3-2 2-4 3-7 5-10 5q-19 9-43-9c-18-14-20-14-32-16q-11 0-20 5l-5 3-8 6c-25 20-43 20-65 2q-28-22-48-9l-7 3-6 5c-6 6-26 16-33 16-12 1-20-3-34-12-19-15-28-18-41-13q-13 4-21 12c-7 6-8 6-18 11-16 8-27 6-48-10a45 45 0 0 0-33-12l-10 1-8 5-12 8-8 5-6 5-4 2-4 2c-6 4-23 0-34-7q-8-7-7-1c0 9 26 18 39 14l16-9 8-5 15-9a41 41 0 0 1 32-1l20 12c23 15 40 15 60-3q17-14 33-15c9 0 15 2 26 10l19 11 9 5h9c11-1 17-3 26-11 17-14 36-21 49-16 6 2 9 4 26 15 21 14 35 13 59-5q10-8 27-12 15-4 33 10l15 10q19 9 35 2l25-16c0-2 9-5 16-8 11-3 17-3 26 4l14 9a44 44 0 0 0 61 0c28-20 40-21 64-3l7 5v-3c0-4-1-5-12-12q-17-13-33-8m1 20q-11 4-24 13c-24 20-43 19-67-1-13-11-32-15-43-7l-3 1c-2 0-16 10-21 14q-8 7-20 9c-12 2-21-1-39-14-16-12-23-14-33-13-7 1-24 10-30 16q-31 28-69-4-27-22-63 8l-11 7-8 4h-10c-11-1-11-1-35-16q-27-18-46-5l-19 14c-20 14-34 13-58-4-21-15-30-16-47-8l-13 8-21 13c-11 6-27 4-39-6q-7-6-6 0-1 3 7 8c19 11 32 10 52-5l13-9q7-5 20-7a46 46 0 0 1 34 13l8 5c18 12 40 10 55-6l18-11 7-3 9-1q14-1 29 12l15 10c9 5 27 6 31 2l3-1 5-3c25-19 34-23 47-23 5 0 26 11 38 19q21 17 46-1 21-14 29-17 24-6 42 10 4 5 21 12t38-7l15-10q24-18 47 0c27 20 46 23 65 8 23-16 27-18 39-18q15-2 33 16l3 2v-8l-9-7q-20-14-35-9m0 20c-6 2-23 12-28 17-5 4-17 10-24 11q-18 2-40-16-24-23-57 2l-6 4-7 4a39 39 0 0 1-51-4 62 62 0 0 0-28-15c-8-1-22 2-26 6l-5 4-8 6a44 44 0 0 1-62 0l-9-6q-16-13-31-8c-7 2-24 11-31 17-12 9-16 11-22 12-10 1-24-4-33-12a53 53 0 0 0-37-15c-11 2-12 3-30 14-21 14-23 15-34 15-9-1-12-2-29-14q-32-21-46-8l-7 3-11 6q-16 15-33 15c-9 0-11 0-24-9l-6-4v4q0 8 16 12 19 7 33-2l13-9 13-8q6-5 21-5c11 0 15 1 29 11 27 20 43 19 70-3 6-5 19-11 26-12 11-1 14 1 44 21q22 17 55-10c9-7 25-14 32-14q10 0 37 19a34 34 0 0 0 22 8c12 0 15-1 28-10 23-16 26-17 35-18q15 0 25 6l5 3 3 3c8 8 22 14 34 14 12 1 19-3 38-17q28-23 55 1 17 14 34 14c13 0 20-2 36-16q21-16 37-11a67 67 0 0 1 24 16q4 2 4 6v-4c0-7 0-8-4-11l-5-4-4-2c-9-7-22-9-31-7m-1 21c-6 2-11 5-23 13-17 11-18 11-26 13q-10 1-21-2-10-4-16-10c-20-17-34-19-55-6l-8 5-7 6c-21 13-34 13-52 0-23-16-27-17-37-17-11 0-27 8-35 17-3 3-17 9-24 11-12 3-19 1-38-13-25-18-35-18-58-2-24 16-29 18-37 18q-14 0-31-12c-21-15-34-18-48-12a127 127 0 0 0-29 21h-3c-11 7-27 6-39-2l-13-8c-25-17-32-16-62 4-27 17-35 18-53 6-9-6-9-6-9-2 0 10 30 19 42 14l21-13c20-16 43-18 57-5a83 83 0 0 0 22 14c16 7 28 5 47-9 15-11 19-14 28-15q18-5 35 10c24 20 40 20 62 3 27-21 42-22 66-5q31 24 54 8l13-9c15-10 22-12 33-12q14 0 33 15 23 18 45 7l18-12q22-18 41-11c6 2 9 4 27 16q29 19 59-6c18-16 39-18 54-5l7 5 5 4v-4q1-4-6-7c-15-11-15-11-27-12zm-121 20c-4 0-16 5-19 8l-6 4-12 7c-19 14-33 13-54-2-17-13-22-15-34-15q-13 0-31 15-33 24-57 6c-29-22-38-24-60-13l-10 7-16 11q-21 13-49-8c-19-15-30-17-46-10l-5 3-7 4-11 7c-9 7-23 13-27 12l-7-1q-9-2-22-11l-15-10c-16-10-28-7-51 9-26 18-37 19-54 8-10-7-10-7-10-3q-1 3 6 8l13 6 12 1c12 0 14-1 39-18q9-6 13-7l7-2c9-3 23 2 33 10q14 12 31 16c9 2 17-1 35-13 20-14 20-14 33-16q12-1 22 6l8 6 9 6q25 18 49 0c29-23 43-26 60-15l11 7 10 6q22 17 46-1l9-5 3-2c9-10 33-16 43-10l26 17 8 3c7 4 25 5 30 2l25-18 5-3q24-14 49 7l18 11c12 6 30 3 41-5l14-10c9-9 28-13 39-8l13 9 9 6v-3c0-4 0-4-13-13q-26-18-58 9a47 47 0 0 1-33 12c-9-2-16-5-37-20q-12-8-25-7m121 20q-9 2-17 9l-8 6-5 4a44 44 0 0 1-52-2l-5-4a42 42 0 0 0-39-12l-13 7-7 5-13 8q-11 8-25 8c-9 0-14-2-35-17q-27-18-47-3l-16 12c-21 14-35 14-56-1-21-14-27-17-38-16-7 1-23 9-34 18-6 5-19 11-24 12-10 1-17-2-39-17-23-15-32-15-52-1l-6 4-6 4c-20 16-33 16-57-1-21-14-23-14-34-14q-13 0-29 12c-19 14-25 16-36 16-10 1-14-1-24-8q-9-7-7 0c0 3 1 4 11 9l11 6 9-1c11 0 16-2 30-12l12-8q5-4 11-5l8-2q13-4 33 11 24 20 44 14c5-2 9-4 22-13 25-19 38-20 58-5l21 13a37 37 0 0 0 33-1l14-9c18-13 29-17 41-15 5 1 9 3 26 14 21 15 36 16 55 3l15-11 16-7c4-4 22-1 30 5 9 6 25 17 27 17l4 1c3 2 17 3 22 1 5-1 18-10 26-17 7-6 8-6 16-9a34 34 0 0 1 25 1l22 14c5 7 23 12 33 10 6-1 16-6 21-10q19-15 30-17a44 44 0 0 1 24 2l8 6 9 6 2 2v-4q1-3-6-7c-17-11-16-11-27-12zm-121 20q-11 1-25 13l-15 9-11 6h-11c-10 0-12 0-15-2l-5-3-8-5c-16-12-22-15-32-15-8 0-21 5-28 10l-7 4q-6 6-18 11a35 35 0 0 1-33-1l-17-12a40 40 0 0 0-56 2q-16 13-25 15c-16 3-16 3-26-2l-16-10-8-5c-21-14-34-12-63 11-9 7-22 12-28 10l-8-2-18-11c-25-16-33-18-53-8l-13 8q-24 18-38 15a66 66 0 0 1-25-13l-1 4 1 3 8 4q25 19 58-9c5-4 17-10 25-11 10-2 16 0 34 12 27 18 35 19 57 6l10-7q26-26 60-2c26 19 38 20 59 5 18-13 29-19 41-20q10 0 28 12l6 4 7 4c16 12 30 9 52-7q18-13 31-14c11-1 16 1 37 15 24 16 39 15 62-4q15-13 29-14 13-1 25 9c31 25 44 25 77 0 18-13 38-13 52 0l7 6 3 2v-9l-10-6c-13-9-21-11-32-8l-7 2-7 3-7 5-13 9c-8 6-13 7-23 7-12 0-20-3-35-14q-20-15-32-12m119 20c-2 1-10 6-11 8-6 5-29 18-37 19-9 2-26-5-40-16l-4-3-4-2c-12-9-31-7-49 6l-12 9c-12 9-30 11-40 4l-20-14q-10-7-24-9c-7 0-8 0-16 4s-10 5-22 14a43 43 0 0 1-53 3l-15-10c-20-13-35-11-57 8l-6 5-5 2c-4 3-14 6-20 6-10 0-16-3-36-16l-15-10h-22l-7 4-12 7-9 6a40 40 0 0 1-54 0c-27-20-37-21-59-7l-11 7c-7 5-26 15-29 15-4 0-20-6-23-8l-9-7-1 4 1 3 5 3 4 2 2 1c9 8 29 7 41-1l16-11 5-4c11-9 37-6 49 4 5 5 22 14 29 15 15 3 19 2 46-18 10-7 14-8 26-8q16 0 25 8l21 14c7 3 20 4 26 2s7-3 22-14l10-6c22-12 34-11 56 6q19 14 33 13c8-1 25-10 33-17 7-7 21-12 31-12 7 0 20 5 28 12l16 11 4 2c4 2 20 2 26 0l22-14q15-13 29-14c9 0 23 6 29 13s24 15 33 15q13 0 32-13c14-10 17-12 24-14 13-4 21-2 38 10q9 7 7 1c0-4-10-12-19-16-5-2-25-4-28-2m2 20-7 3-4 3-18 12q-17 12-35 7c-6-1-11-4-26-14-12-8-18-11-26-11s-20 4-27 10a132 132 0 0 1-29 17l-12 1c-11 0-16-1-24-8l-4-3-9-6a38 38 0 0 0-51 3q-4 5-12 8l-12 7q-17 9-43-9c-20-14-23-15-35-15-9 1-10 1-19 7l-11 8q-32 27-63 2a48 48 0 0 0-31-14c-8 0-10 0-15 2l-25 15q-19 15-33 11a77 77 0 0 1-22-12c-30-20-37-20-66 0-21 13-22 14-33 14q-17 0-23-7l-8-6-1 4q-2 3 11 9c20 10 32 8 60-13q10-9 24-8c13 0 17 2 32 12q30 23 49 9l10-6 11-8c11-10 31-13 45-6l13 8q32 25 54 7c21-18 43-26 53-21l8 4 8 4c25 23 45 24 69 2 7-6 25-13 34-13 5 0 19 6 24 10l9 6 9 5c8 5 9 5 19 5q15 1 31-12 20-16 35-16c7 0 14 3 30 14 28 18 37 18 66-3q32-24 54-3c10 8 11 8 11 3q2-3-7-8a43 43 0 0 0-38-10m-4 21-8 5-31 20q-19 6-47-15c-8-6-10-7-17-9-11-4-27 0-37 10l-8 5-12 7q-20 13-44-4l-26-16-10-1c-8 0-9 0-15 4l-5 2-12 8c-24 19-42 20-63 3l-8-6q-12-10-26-9a24 24 0 0 0-18 6l-4 3-29 17q-17 7-36-5c-31-22-42-24-60-12l-5 3-13 9c-3 4-17 10-22 11-8 1-24-5-34-13-25-20-39-19-70 3q-27 19-47 6l-9-6-4-2v3q1 10 24 15 18 4 32-8l5-3 8-6c17-12 37-13 51-2 30 24 46 24 74 3 13-11 17-12 30-12 13-1 17 2 33 13 11 8 13 10 22 12 15 3 21 0 43-16 11-9 26-13 37-12q7 1 21 10l14 10c16 10 28 9 47-5 31-22 44-23 69-5l5 4 5 3c8 5 12 6 24 6l14-1 9-6 8-6c24-20 42-20 63-1q13 11 31 13c11 0 18-3 35-15 14-11 17-12 25-14l9-2 4 1 8 5 10 6 9 7v-4c0-4 0-3-12-12q-18-11-37-5m5 19q-12 3-20 11c-5 5-18 12-27 16-6 1-16 1-20-1l-9-5-8-5q-30-29-64-2l-9 6c-24 15-34 14-65-9a36 36 0 0 0-42-3l-18 13c-8 7-25 12-35 11-4-1-16-6-17-8l-13-10c-15-8-15-9-25-8-12 0-16 1-31 13q-24 18-39 15c-8-1-10-2-25-12-29-19-36-19-59-4l-11 7c-10 10-36 16-42 10l-5-4-17-11c-5-5-18-10-24-11q-13-1-33 13c-27 19-39 21-55 10l-6-3-2-2q-4-4-4 1-1 3 6 8l12 6c3 2 18 3 24 1l20-12c20-13 23-14 35-14 10-1 14 1 34 14 25 17 35 16 61-2 16-12 19-14 31-15 10 0 17 2 29 11l5 4 7 4q19 12 36 6l21-15q3 0 8-5c18-11 30-10 52 5l9 5 4 2q21 14 44-1 35-27 52-19l27 16c15 12 37 12 52 0 21-17 26-19 39-19 11 0 14 1 29 12l19 12q18 8 42-9c20-15 26-17 38-17 9 0 15 3 26 11q9 9 7 1 1-3-5-8a43 43 0 0 0-39-10m2 20c-8 2-23 11-30 18l-11 6c-16 8-28 5-47-10-14-11-32-16-42-12l-27 16c-19 13-30 15-43 8l-3-1-7-4c-34-24-42-24-71-2a44 44 0 0 1-33 13q-10 0-13-2l-22-15c-9-7-14-9-23-10h-8l-9 4-20 13-10 6q-10 7-21 6c-11 0-14-1-37-17q-24-16-43-4l-8 4-8 6c-21 18-38 19-61 2-19-15-30-19-41-15-8 3-22 12-30 18a39 39 0 0 1-52 1q-9-6-7-1-1 3 6 7c15 9 15 9 24 9 12 0 19-3 37-15q20-15 38-12c6 1 9 3 25 14 25 17 34 17 63-3q27-20 43-12c6 2 7 3 24 14 22 16 39 15 60-5 9-7 26-14 36-13q11 2 29 14 26 20 47 8l19-12c10-7 12-8 18-10q16-6 34 6l9 6 6 4q25 21 58-6 18-15 33-15c7 0 19 5 28 13 7 7 22 14 29 15q14 3 33-13c30-21 42-22 63-5l6 4q1 2 1-3c0-4 0-4-8-9l-12-7c-3-2-18-3-22-2m-2 21c-7 2-17 8-21 13-3 3-21 12-27 13q-12 2-24-3l-20-13q-10-9-24-9c-10 0-17 3-34 14-27 17-39 19-55 7l-23-16c-13-6-30-4-40 6q-12 9-30 17c-8 4-31-1-39-7-3-3-18-13-23-15q-17-7-35 6l-17 11c-24 13-32 13-56-3-23-16-33-18-48-10l-10 6a80 80 0 0 1-38 19c-5 0-17-3-21-5l-21-15c-4-3-17-8-22-8q-9 0-29 13c-27 17-34 19-46 15-6-2-17-8-19-10q-3-4-3 1c0 3 0 4 10 9 22 13 29 11 59-10q28-19 53-1c31 22 43 23 67 6 18-15 24-17 36-17q13 0 22 7l10 6 6 5c2 4 13 7 23 7 12 1 17-1 29-10 27-20 42-23 61-10l14 9c10 10 28 13 39 7l20-13c11-9 28-15 36-13 5 1 17 7 21 11 18 15 42 21 56 11l3-2 5-3c30-24 44-25 67-6q33 25 58 4 39-34 66-9 9 10 8 2c0-4 0-4-8-9-14-9-23-11-36-8m6 19c-8 2-14 4-26 13-14 9-19 12-24 13q-20 7-44-13-12-10-28-12-7 0-17 5l-6 3-17 11c-23 16-32 15-61-5l-11-8c-10-6-28-4-40 6l-6 4-6 4c-23 15-40 15-60-1a49 49 0 0 0-31-14c-12 0-18 2-38 17q-29 22-53 3c-30-22-36-23-58-11l-14 9c-7 7-22 13-33 13q-9 1-26-12a67 67 0 0 0-34-15c-9 0-25 7-39 17-20 15-35 16-53 2q-7-7-6-1 0 4 5 7c23 14 36 13 60-5q33-26 64 2l21 10q17 4 32-6c35-26 45-27 69-11l13 9 21 7c10 1 13 0 30-11 20-13 22-15 30-17q16-5 40 13c13 9 15 11 23 12q12 4 20-2l3-1 9-5c19-14 27-18 36-20q15-1 32 12l5 4 5 3q27 18 53-2c30-24 40-25 65-7 22 16 35 19 52 11l8-5q36-34 64-11 11 11 9 3c0-8-27-21-38-18m-2 20q-11 2-32 18c-9 7-23 12-31 11-5-1-16-7-21-11-25-18-38-21-55-11l-7 4c-2 0-14 9-15 10l-15 8c-13 5-22 2-42-12-17-12-19-12-29-12-11-1-15 1-23 8l-19 12a42 42 0 0 1-51-2l-6-4-7-5a38 38 0 0 0-47 0l-3 3-11 7c-27 16-32 16-60-3-18-12-21-13-32-13q-10 1-13 3l-4 3-13 8c-29 19-39 20-61 3-20-15-29-17-45-12l-11 4-14 9c-5 4-18 11-25 12q-14 3-28-7l-5-4-4-2v3c0 7 21 18 33 18 7 0 19-5 24-10 4-4 23-15 29-17q21-6 37 8c16 14 35 20 49 15l25-16 10-6c10-5 10-5 18-5 11 0 13 1 30 12 20 14 25 16 37 14l11-3q3 0 15-10 30-21 47-14l21 13q28 24 58 0c14-12 23-16 38-16 8-1 23 5 29 12 2 3 14 11 19 13 5 1 19 2 24 0l3-1q9-4 26-17 9-8 20-9c12-3 20 0 39 15q13 10 27 11c12 0 14 0 43-20 17-12 31-12 50 1q9 8 7 2c0-4-1-5-17-15q-11-6-23-3m-11 24-12 8c-24 21-41 21-69 2q-27-21-48-6l-29 18q-19 12-42-4c-24-17-27-18-34-18-11 0-18 3-29 11l-5 3-5 3-11 7q-10 7-25 4c-12-3-13-3-14-5-3-3-24-17-29-19q-15-4-28 2l-8 4-5 3-8 6-7 4q-22 20-53-6c-22-17-39-17-62 0l-23 14q-17 7-39-9c-24-20-40-21-64-5l-6 5c-6 5-22 12-27 13q-17 1-32-12-4-3-4 2 0 2 4 6 21 15 37 9c5-1 21-11 28-17 8-6 24-11 34-10q10 1 30 16c17 13 38 14 51 2l23-15c16-9 28-7 45 6 9 6 22 14 28 15 10 2 25-2 36-10 27-22 42-23 66-6 28 20 40 20 69-2q22-16 35-12l8 3 14 8c27 19 43 21 62 6 20-15 26-18 39-19q14 0 27 10c18 17 40 21 56 10l10-8c28-19 38-20 59-4 8 5 8 5 8 1q1-3-6-7c-18-12-30-14-45-7m4 18c-7 3-9 4-20 13-25 18-39 18-63 0q-24-19-43-10l-10 5-13 8c-9 7-21 13-27 14-5 0-18-3-21-6l-14-9c-27-18-38-17-68 7l-6 4-5 2c-6 3-22 3-30 1a43 43 0 0 1-17-11l-7-4c-22-15-33-13-65 10a39 39 0 0 1-54-3 53 53 0 0 0-36-15c-6 1-10 2-32 16-26 16-31 17-47 9-6-3-8-4-20-13s-28-12-35-8l-6 2c-3 1-14 7-21 13-22 16-35 16-58 0q-5-5-4 1c0 7 20 18 33 18 8 0 27-9 32-15 1-2 15-10 20-12 6-2 20-2 25 0q6 2 17 11l6 3 3 2c0 2 13 8 21 9q16 2 36-15c21-17 37-18 58-4l7 4 6 4c18 15 33 12 64-11q26-19 54 3l8 5c22 14 34 13 57-4 17-12 22-14 34-14q15-1 30 12c12 10 20 13 33 13 12 1 13 0 28-10 17-13 19-14 25-16q20-8 45 13c10 8 16 10 27 11l11-1 6-2q4-1 14-9c17-12 19-13 25-15q19-6 40 10l4 3v-3l-1-3-4-3a40 40 0 0 0-42-10m3 20q-7 2-20 12-32 24-55 8l-4-2-6-4c-24-19-38-19-63 0-16 12-34 18-43 14l-7-3c-4-1-19-12-21-14s-13-7-19-8c-11-2-26 4-36 13-6 5-20 13-26 14-13 4-20 2-40-11-15-11-19-13-26-14-13-2-24 3-44 17-22 17-35 15-64-6q-26-20-53 2l-23 14q-15 8-29 0l-9-5-8-6a45 45 0 0 0-62 1c-25 19-41 21-61 5q-7-6-6 0c0 7 23 18 35 17 8-1 24-9 32-16 7-7 24-13 34-13q11 1 24 11 32 26 57 9c39-28 47-28 75-8 13 10 20 13 31 12 12 0 15-1 29-11 17-12 19-13 27-15q20-5 36 8 18 17 36 17c11 0 21-5 43-22q8-6 24-6c9 0 14 2 29 13s18 12 31 13h11l7-4 11-7c21-16 31-20 43-18q11 3 17 8l7 5c22 18 37 19 58 4 24-17 28-19 41-19q11-1 24 9 9 8 7 2c0-3-13-13-22-17-4-1-15-1-22 1m3 19c-5 1-18 9-25 15q-7 6-20 11c-8 4-24 2-32-3l-11-8q-16-12-26-13c-9-2-28 5-39 15l-15 9c-11 7-29 6-40-4l-8-6-9-5q-21-15-44 2l-5 3-14 9c-1 2-18 8-22 8q-16 0-34-14-21-16-34-14c-8 1-25 11-35 19l-8 5-6 3q-20 9-47-13-25-20-47-6l-9 5-10 7c-11 9-16 11-26 11-10 1-13 0-29-11a86 86 0 0 0-27-15q-16-4-39 13c-26 19-40 20-60 6q-8-7-7-1 1 5 13 11l3 2c0 1 11 4 16 4 10 0 19-4 38-18q28-21 55 0c12 11 28 17 39 16q12-1 35-19c10-8 27-11 36-8 6 2 8 3 20 11 26 18 38 19 58 5l6-4 4-3c19-16 44-16 59-1a46 46 0 0 0 56 9c2-3 15-12 21-15q18-12 38-3l10 5 11 8c22 15 37 13 66-10a38 38 0 0 1 54 3c7 6 20 12 29 13 14 2 22-1 45-20q25-18 50 2 9 9 7 1 1-5-8-10-18-10-33-7m-1 21q-11 3-14 7l-4 3-4 2-21 13c-5 6-31 1-41-9q-30-26-57-7l-25 16q-12 7-26 3c-7-1-11-3-27-14-13-9-15-10-23-11q-14 0-23 6l-21 15c-12 8-29 10-42 4l-11-7c-25-19-39-20-61-6q-26 19-35 19c-10 1-28-7-46-21q-8-7-18-6c-13 0-23 5-41 18-10 8-16 10-27 10s-14-1-29-12l-15-9-6-4H99c-12 0-17 1-31 12-26 19-40 21-59 7q-10-9-9-2 0 4 5 7 29 20 54 0c29-22 41-24 65-8 30 20 42 21 65 4 28-21 43-22 66-4 26 20 39 20 66-1l10-6c14-10 35-9 50 2l15 11c10 8 26 9 36 3l24-16 11-6c16-6 28-3 47 11l14 8c11 8 31 5 45-7q27-22 43-17a46 46 0 0 1 25 14c24 17 43 16 66-5q26-23 55-2l7 5v-3q1-5-11-12-17-11-31-5m6 20c-10 1-14 3-26 11-18 13-24 16-35 16q-15 0-37-17a42 42 0 0 0-53 2l-22 14c-7 3-8 3-16 3-11 0-14-1-28-10l-17-11q-15-9-31-2c-7 3-17 10-19 13q-9 10-28 13-15 3-34-12l-17-11q-14-7-28-1c-8 3-24 12-27 16-5 4-16 8-24 9q-12 3-29-9l-15-11-8-4c-9-5-25-2-40 8l-15 10q-5 5-12 7l-5 2h7c8 0 8 0 22-10q21-16 38-11c9 2 11 3 15 6l16 12 5 3h19l19-1 10-7 14-9 6-4 4-1 3-1 4-1c8-4 30 5 39 16l10 6c3 2 6 2 17 2h14l7-4 7-5 8-5q24-18 44-9l11 6 8 5c19 15 41 16 55 4l9-6c16-11 16-12 25-14l9-1 9 3q9 3 14 7c25 21 44 23 65 6q22-17 38-18c9 0 14 2 28 13l3 2v-3q0-4-3-5l-7-6q-11-9-26-6M91 486c-8 2-22 10-26 14l-5 4-8 5-5 3h4q5 0 11-4c12-9 15-10 20-13 15-7 25-5 45 9l13 8h15l-5-2q-10-4-20-12-23-17-39-12m635 11-15 8-10 7h5q5 0 8-2 6-6 17-8c11-2 15-1 26 6q21 10 4-5c-12-8-27-10-35-6m-124 2q-10 2-20 10l-4 3h4l10-3c15-8 24-8 36 0q4 4 9 3h6l-6-5q-18-14-35-8M0 502q2 9 15 10h5l-5-3-10-7q-6-6-5 0m477-2-9 3-6 3-5 3-4 3h4q5 0 10-3c8-4 22-4 29 0q4 3 10 3h5l-5-4q-15-11-29-8m-140 6-10 6h5l7-1c7-4 24-4 30 0l7 1h5l-7-5c-15-8-23-8-37-1m-114-3q-6 0-13 5l-8 4h4l13-2c7-1 9-1 14 1 9 2 19 2 16-1q-12-8-26-7m-133 3c-15 6-15 6 9 6h22l-6-3c-6-3-21-5-25-3"
        mask="url(#16282281824-posters-1720554013689-vertical-mask)" itemprop="medium" fill-opacity="0.90"
        fill-rule="evenodd" stroke="none" fill="url(#16282281824-posters-1720554013689-vertical-medium)"></path>
      <!---->
      <path id="16282281824-posters-1720554013689-bold"
        d="M0 2q-1 2 8 6l9 5 11 2c9 0 10 0 16-3Q59 4 60 1c1-1-7-2-7 0A39 39 0 0 1 4 1Q1-1 0 2m89-1-3 1-11 5-8 5-7 6-8 4-5 4-3 1-4 2c-7 5-25 1-34-7q-6-6-6 0 0 2 4 5l9 4q7 4 18 4c10 0 16-3 34-16q32-25 63 3c3 3 15 9 20 10 12 3 17 2 26-3l5-3 13-10 22-11q16-6 37 11c27 21 41 20 72-4a56 56 0 0 1 22-10q7-2 19 3l21 14 8 4 3 1c8 7 25 6 35-1l7-4 10-7q13-8 23-11 1-1-6-1l-7 1-1 1-7 4c-14 11-17 13-19 13l-2 1-5 1-5 2c-3 3-26-2-29-6l-2-1-2-1-8-7-9-7c-1-1-36-2-36 0l-1 1c-2 0-11 6-18 12-23 17-39 16-65-4l-4-3-4-2-5-3-1-1-13-1-14 1-4 3-10 6c-24 17-25 18-36 17q-20 0-37-16l-17-9-2-1-6-1zm38 0c5 5 27 13 32 12l6-1 14-6 5-3q4-3-2-3l-5 1-6 4a41 41 0 0 1-33-2c-4-3-14-4-11-2m132 0 2 2 6 3c12 7 21 7 36-1q11-5 3-5l-4 1-1 1-2 1c-1 4-24 3-30-1-4-3-14-3-10-1m130 0c2 3 11 6 14 6l8 1q6 2 18-4 9-4 1-4l-5 1a26 26 0 0 1-25 0l-6-1q-6 0-5 1m101 2 6 3 9 6 16 10q11 7 24 5c6-1 20-6 21-8 2-3 23-17 27-18q1-1-4-1l-6 1-6 4-10 8-8 4c-16 10-37 6-50-8l-5-4-6-4-7-1h-7zm28-3 6 4a49 49 0 0 0 35-1l2-1q2-2-6-2l-8 1h-18l-5-1zm100 1 2 1 1 1 6 3 12 9 6 4a39 39 0 0 0 44 0l7-5 9-6 7-5 6-3h-6l-5 1-17 13q-25 17-54-7l-7-6-6-1q-6 0-5 1m32 0c8 5 20 6 28 3 11-3 10-4-11-4-17 0-19 0-17 1m99-1 12 9 3 3q5 6 5 0 1-2-6-6l-6-5-4-1zm-24 13q-8 1-19 10a97 97 0 0 1-31 17c-5 4-27-3-37-11l-8-6-7-5c-5-3-16-5-22-5-6 1-22 10-30 16l-2 1-3 2-7 5-6 3c-11 5-31 1-41-8l-12-9-2-1-5-3a40 40 0 0 0-43 7q-30 27-55 14l-14-10-12-8-3-1q-15-6-16-4h-6l-5 1-15 9-9 6q-23 16-35 13l-6-1-20-12-20-13-10-1q-16-1-34 15l-17 11c-4 2-5 3-16 3-13 0-16-2-30-12q-18-12-22-13H84l-13 7-8 5Q36 56 16 49l-4-2-1-1-10-7-1 3c0 2 4 7 6 7l7 3 13 4c1 1 13-1 18-3l12-8c15-11 17-13 19-13a8 8 0 0 0 7-5l1 1h1c5-4 28 1 34 7l16 11c8 6 29 11 31 7l4-1a62 62 0 0 0 22-15c7-6 20-11 31-13 4 0 17 4 20 6l6 4 5 4 1 1 1 1 7 4a38 38 0 0 0 48-2l3-2 1-1 14-10q9-6 23-6c9 0 11 1 26 11l21 12a37 37 0 0 0 42-9l2-2 10-6 16-7c1-2 16-2 19 0l8 3 9 6 16 11c5 5 30 6 38 2l23-16c8-6 24-11 29-9l5 1c4 1 8 4 23 14 22 15 32 16 52 4q10-5 16-12l3-1 5-2 5-3 3-1 8-2c12-1 16 1 32 13q8 7 7 3 1-2-5-7l-21-11c-3-2-12-3-18-2m0 20c-6 1-19 9-28 16l-2 1-2 1-8 5-8 4a45 45 0 0 1-37-9c-8-7-20-14-27-16q-16-4-27 5l-26 17-4 2-4 1c-3 3-20 2-26 0-6-3-18-11-22-15q-10-8-26-9c-8 0-9 0-17 4l-10 6-14 10-14 7c-9 4-25 0-38-9l-10-7-6-4-15-6q-17-2-38 16a51 51 0 0 1-30 14l-17-4-8-5-5-3q-9-9-20-13c-16-6-25-4-49 14-19 14-32 16-48 7l-12-7c-14-12-33-18-43-13l-5 2-2 1-5 4-8 5a91 91 0 0 1-33 17h-4l-6-2q-6-1-11-5l-3-1-1-1-3-2q-6-2 0 4c14 13 33 14 49 3l7-4 10-8c5-4 22-9 29-9 11 2 14 4 29 14q11 8 24 13c8 2 25-3 34-11q18-17 38-17c11 0 15 1 27 10 12 10 26 16 33 16a64 64 0 0 0 34-15l1-1c1-3 17-11 27-14 9-2 14 0 31 11 28 18 39 20 58 9l9-6 17-11c0-1 9-4 16-5q14 0 28 11l5 4 8 5c12 8 28 10 39 4l14-9 8-5 12-8q18-8 35 4l15 10q22 14 38 9c4-1 16-8 19-11q6-6 14-10c12-6 12-6 22-6s14 1 27 11c9 7 9 6 9 4 0-3-1-4-14-13l-8-5c-4-2-16-3-22-2M595 55l-22 13-7 5-2 1a39 39 0 0 1-51-2l-17-11-7-5h-10l-12 1-6 3c-4 2-12 7-13 9s-15 10-20 13c-14 6-33 2-48-11a40 40 0 0 0-38-12c-5 0-19 8-21 10l-14 11a37 37 0 0 1-48-3l-7-5-18-11-11-2c-9 0-13 2-32 15a73 73 0 0 1-28 15h-9l-6-2-16-8-11-7q-26-18-44-4l-4 2-3 2-9 6-9 6-2 1-2 1-12 5c-9 2-24-3-32-10q-4-4-4 0-1 3 6 7c5 3 8 5 17 8h14l4-1 26-17 5-3q25-18 56 7l8 5c7 6 23 9 31 6 7-2 16-7 19-10q15-15 30-17c14-2 22 0 40 14 20 16 37 15 60-2 26-19 41-20 63-4l6 5 10 5a33 33 0 0 0 35 0l7-4 7-5 6-4q30-21 55 1l8 5 8 5c18 11 32 7 63-16q7-5 12-6l6-1a47 47 0 0 1 25 8l17 11q5 5 10 5l4 2c1 2 16 1 21-1q9-3 18-10l18-12 3-2 4-1c3-3 18-2 23 1l9 5 13 9q2 2 2-1 0-5-10-10l-5-4c-3-3-12-6-19-6-12 0-18 2-36 14q-31 22-46 11l-7-4-10-7q-9-9-24-12c-9-2-9-2-17 0m127 20-11 6-9 5-2 2-4 2a40 40 0 0 1-38 9c-4 0-21-10-32-19l-3-1-3-2-8-2q-14-3-29 7l-5 3v2l-2 1-2 2-2 1-2 1a76 76 0 0 1-24 11 16 16 0 0 1-15-1c-3 0-17-8-27-16a37 37 0 0 0-47-3l-1 1-8 5-1 1-5 4-18 9a46 46 0 0 1-40-10c-4-3-15-11-20-13-7-2-22-2-27 1l-8 4-8 6c-11 11-33 18-42 15l-7-1-13-8-21-14-16-3c-7 0-21 5-28 12l-19 13c-7 3-16 5-18 5l-14-4-4-2-12-8a57 57 0 0 0-24-13H86l-3 1c-2 0-14 8-19 13l-7 4-7 5q-5 4-15 6c-8 1-23-4-31-11q-4-5-4 1c0 5 20 15 30 15a43 43 0 0 0 23-9l10-6 11-8c7-4 19-7 26-6l20 9 5 3q21 16 36 14c8-1 21-7 29-14 14-13 34-18 47-12l13 8 7 4 12 7q23 13 45-8l4-4 8-4 12-6q2-2 11-2c11 0 14 1 33 13 29 19 37 18 69-6 4-3 24-9 30-9 5 0 19 6 26 12l14 9q19 10 35 2l24-15 6-4 6-3 5-2 5-1a22 22 0 0 1 19 4q3 0 11 8l16 10 6 3 4 1h19l2-1 4-2 13-7 20-13 6-3 12-1c9 0 13 2 26 11 9 7 9 7 9 4s-14-14-22-18c-7-2-19-3-25 0m5 18-6 2c-5 1-14 7-18 10a58 58 0 0 1-38 17q-15-3-28-14l-10-7-1-1-1-1-3-1c-6-5-20-5-29 0l-4 1-6 3-5 3-1 1-2 2-6 4q-25 23-57-1c-9-6-10-6-11-8-9-7-24-9-35-4q-16 7-21 13a49 49 0 0 1-21 12 46 46 0 0 1-44-14q-28-26-64 4l-20 12h-21l-16-9c-22-14-23-15-31-16h-11l-4 1q-7 1-16 9l-6 4-8 5-10 6-17 4-16-5-5-3q-27-20-39-20l-14 4-8 4-11 7c-20 14-25 16-36 14q-13-1-23-9-4-6-4 1l1 3 8 4c19 11 30 10 55-9q31-25 58-3l5 4 9 5a40 40 0 0 0 32 6l4-1c3-1 12-7 16-11 10-10 32-19 41-16a85 85 0 0 1 28 16q4 4 14 8c10 5 27 3 35-3l10-7 12-9 11-5 10-2c10 0 15 2 28 10l6 4 8 5c2 3 15 7 21 7 7 0 16-2 18-4l28-18c14-9 37-6 49 6 4 4 5 5 16 10q20 9 35 1l29-20c7-7 30-6 38 1 16 13 33 21 43 21 12 0 16-2 37-17q29-20 48-5l9 7 7 5v-4q1-4-2-4l-5-3c-9-9-26-14-35-12m-5 22c-6 2-21 11-24 15l-18 10q-7 3-16 1l-9-2q-9-2-23-14-16-14-33-10c-7 2-20 10-25 14-10 8-28 16-34 15-12-2-18-5-29-13-23-17-37-20-51-9l-7 4-8 6c-8 7-21 13-29 13a38 38 0 0 1-26-7l-7-5-3-2a39 39 0 0 0-44-9l-7 3c-2 0-14 8-19 12a32 32 0 0 1-36 8c-2 0-16-7-17-9l-20-12-12-4-8 1c-8 1-7 1-27 15-21 13-24 14-33 14q-14-1-36-18-21-16-40-5l-6 3q-6 2-14 9l-6 5-5 2c-2 2-15 7-19 7-6 0-16-4-22-8l-6-4-3-2v3q1 6 16 11l8 3q12 4 28-7l7-4 12-8 5-3q5-5 19-5c11 0 16 1 29 11q30 23 49 12c7-4 17-10 21-14 7-7 23-13 33-12a38 38 0 0 1 20 9l10 6a41 41 0 0 0 49 5l5-3 1-1 2-1 4-3c4-4 18-12 24-14a35 35 0 0 1 23 2l27 17 2 2 2 1 4 2a40 40 0 0 0 35-6l27-17c15-7 33-3 45 8l13 9c1 2 13 6 20 6 10 1 27-7 39-17q4-5 14-10a38 38 0 0 1 32 3l9 7 11 8 1 1 12 5a48 48 0 0 0 34-6l4-4q4-1 8-5c17-14 37-16 50-5l8 6 7 5v-3a19 19 0 0 0-13-12c-7-7-24-10-34-6m0 20-19 11-22 13-7 2c-8 2-27-4-34-11q-23-20-42-15c-5 2-19 9-23 13-9 8-27 16-36 16a48 48 0 0 1-20-8l-8-5a56 56 0 0 0-33-15c-8 0-24 8-33 16l-7 6-8 4q-10 5-24 3c-6-1-8-2-16-8l-27-17-11-1c-11 0-13 0-29 11-22 15-26 17-34 18-8 0-22-4-31-11a91 91 0 0 0-24-14c-2-2-20-2-24 0a111 111 0 0 0-29 20q0 2-3 2l-4 1c-2 2-21 5-23 3l-3-1-13-6-20-14-6-2-8-3a26 26 0 0 0-20 4l-10 5-10 7-4 3c-5 5-20 11-26 11q-11 0-20-7l-10-6-1 3 1 3 5 3q24 15 44 1l8-4 3-2q6-6 15-10 26-13 45 4l17 11c20 10 31 8 53-8 18-13 22-15 34-15 10 0 15 2 30 13 25 19 42 18 66-4l12-7c16-8 28-6 46 7l19 11c12 6 30 4 40-6l4-2 4-3 6-4a67 67 0 0 1 23-9c3-2 14 0 18 2l8 5 13 9a44 44 0 0 0 25 10q9 2 23-6l7-5 7-5q21-18 43-10c4 1 13 7 14 8l5 3 4 3 5 3 4 3 3 2 5 1a48 48 0 0 0 25-2l7-4 7-4 4-4 7-4 4-3 3-1 1-1c0-1 10-4 17-5 5 0 6 0 11 2l14 9 7 5 3 2v-3l-2-4-4-2a41 41 0 0 0-41-11m4 19c-6 1-22 10-26 14q-4 5-21 12c-3 2-17 2-20 0-11-4-23-11-25-14-3-4-14-9-21-11-10-2-18 0-32 9l-8 5c-22 18-37 19-56 6l-5-4-7-5a36 36 0 0 0-40-6c-7 3-21 12-23 15l-15 8q-20 11-49-14l-2-1-2-1q-3-4-14-7-19-5-41 13l-8 6-5 2a35 35 0 0 1-37 2c-6-2-7-3-15-9a42 42 0 0 0-30-12c-9 0-10 0-15 3l-12 6-8 6a38 38 0 0 1-53 5l-8-6-5-3-9-5c-16-8-27-6-50 9l-13 9c-3 3-16 7-21 7-7 0-20-5-24-10l-3-2-3-2v3l1 4 5 3q21 12 40 5l18-12 5-4 5-3c8-5 11-6 23-5q16 0 22 6c2 2 15 12 21 15q20 9 33 1l16-10c2-3 20-13 24-14a37 37 0 0 1 37 9l11 7q24 16 43 4l3-2 4-3c12-11 30-19 42-19 8-1 9 0 23 9l7 4 7 4c10 8 12 9 24 8q15 0 23-7l3-2 1-1 3-2 6-4c8-6 22-12 30-12a31 31 0 0 1 15 5c1 0 14 8 18 12l8 5 8 3a33 33 0 0 0 35-5l14-10 2-2 3-1a40 40 0 0 1 50 3 101 101 0 0 0 25 14c1 2 20 2 22 0l5-2 4-1 7-5 10-8 6-4 12-5c16-4 21-2 36 9 9 7 9 7 9 4 0-4-13-14-22-18-4-1-17-2-21-1m1 20q-11 2-21 11l-8 5-3 3q-5 6-23 8-20 2-41-18l-2-1-2-2c-2-2-15-6-19-6q-12 1-23 9l-6 4-14 9c-11 8-26 10-36 6-5-2-19-11-20-13l-6-4c-10-6-15-8-25-8-11 0-14 1-27 12l-23 14-5 1-7 2h-5l-6-1q-6-1-13-6l-4-3-9-5-10-7c-6-6-23-7-31-2l-12 6-9 6a42 42 0 0 1-32 13c-10 0-11 0-17-4l-21-14a35 35 0 0 0-46 0l-6 4-8 6q-24 18-43 8l-7-4-4-3-4-2-17-11q-10-6-26-2c-3 0-18 9-24 14-22 17-37 18-56 4q-7-6-6 0 2 5 21 13 16 6 39-11l7-5 6-4 8-4c19-5 27-4 42 7 17 13 23 16 37 16 10 0 14-2 31-14q27-20 40-14l8 4c4 1 15 9 17 11l10 5c17 9 27 8 42-2l10-7 5-3a58 58 0 0 1 22-10c0-2 13-1 18 1l9 5 7 4 4 3a48 48 0 0 0 50 7l7-5 10-6q18-15 34-12c6 1 15 4 16 6l18 12q19 13 36 7l19-12 4-3a37 37 0 0 1 18-11 38 38 0 0 1 35 8l11 7a39 39 0 0 0 50 4l5-3c6-5 23-16 27-17a35 35 0 0 1 23 1q8 1 13 6l6 5 4 3v-3c0-3-11-11-22-16-3-2-15-3-20-2m4 20a45 45 0 0 0-22 8l-1 1-1 1-3 2-3 2-6 4q-24 22-59-5-18-13-28-13c-9 0-15 3-31 15l-12 7-9 5c-3 2-20 4-23 2l-5-1-7-4-6-4-8-6q-13-11-27-11a63 63 0 0 0-30 13l-7 4q-23 17-39 11l-15-7c-2-3-21-15-28-17-11-5-27 0-39 11-5 5-20 14-23 15h-24l-16-10-7-4-6-4c-6-7-25-10-35-6l-28 18c-10 10-32 12-40 5l-3-1-2-1-29-18-11-1c-11 0-13 0-21 5l-5 2-9 7c-25 17-40 18-58 3q-5-4-5 0 0 3 3 4l8 5q21 15 51-7c16-12 25-15 37-15 9 1 11 2 28 14a62 62 0 0 0 30 13c2 1 12-1 16-3l20-12 5-5 8-6 7-2c9-5 25 0 40 11 17 12 22 14 34 14q11 0 24-9 26-19 42-21 9-1 28 12c19 13 21 14 26 15a40 40 0 0 0 25-5l13-8a79 79 0 0 1 29-15 31 31 0 0 1 24 6c4 1 18 11 22 14l3 2 6 3q18 9 47-14 31-26 57-2l8 5 4 3 7 4c8 4 23 5 31 1 4-1 28-17 29-19a43 43 0 0 1 32-5q6 0 16 9 11 11 9 3l-1-4-8-5-2-1-4-2q-8-7-23-6m-8 20-12 8c-1 2-18 12-26 16-15 8-29 4-52-13l-11-7c-6-3-21-3-27-1-10 5-13 6-21 13-18 12-20 13-34 14q-10 1-22-8c-31-24-40-25-66-7l-14 9q-20 13-41 4c-6-3-24-14-25-16l-12-5q-18-7-41 14l-8 6-9 4c-8 5-23 4-32-1l-24-15c-7-8-27-10-37-3l-11 6-8 5-18 11c-5 3-18 3-22 1l-7-3-11-5-21-14c-7-4-24-3-31 1l-7 5-7 4q-20 13-29 16c-5 2-13 1-15-1l-2-1-15-8-5-4v3a40 40 0 0 0 60 3c15-11 18-12 25-14q21-5 38 9c17 14 39 19 52 12l12-8 16-11c13-9 33-7 47 4l7 5 2 2 5 2q9 7 18 7l6 1c2 1 12-3 16-5l11-8c8-8 29-17 39-17l15 5 8 4 15 11 5 2q18 11 40-3l5-3 6-4q5-5 12-8c9-5 11-5 20-5q15 0 32 14l7 5 8 4q23 11 50-13l7-5 6-4c8-4 24-5 31-2l14 10q5 7 21 13c10 4 26 1 38-7l13-9c10-7 16-10 27-11 6 0 19 5 24 9l6 5 5 3v-3l-1-3-3-2-14-10c-8-4-23-5-28-3m4 20-6 2-22 14a47 47 0 0 1-26 12c-12 1-22-4-39-17l-8-5-13-5c-8-3-26 4-36 13l-5 3-4 3-13 7c-15 6-25 4-39-6-17-13-20-15-29-17q-13-3-24 4l-5 3-8 7 10-4c7-4 20-6 25-5q13 4 20 10l7 4 6 4 5 2 2 2 3 1 4 2a49 49 0 0 0 32-5l9-7a97 97 0 0 1 24-14c1-2 17-2 20 0q9 3 24 13c15 11 20 12 31 12 10-1 13-3 30-14 15-11 16-12 20-13l5-1c0-2 11-1 16 1 9 2 11 4 16 8l7 6q4 2 3-2 0-4-4-6l-6-4-4-3q-12-8-28-5m-379 6c-8 1-11 2-20 9l-25 16q-25 11-50-12l-4-3-3-1-6-4c-7-4-21-4-29 0-13 6-27 15-29 18l-7 4c-8 4-21 5-26 2q-11-4-20-11l-9-6-6-4a39 39 0 0 0-37 2l-9 6c-22 15-27 17-37 17-8 0-25-7-25-10l-1-1-2-1-1-1q-2-1-2 2 0 4 4 6l6 3c19 11 33 8 60-13 9-7 29-11 37-7l14 7c3 3 16 11 23 14q20 9 36-3l7-5 10-7 11-6 15-4c11-1 27 6 37 16l3 3 5 2c11 8 29 7 41-2l23-16c6-4 25-7 29-5l9 4 8 4c2 3 15 12 19 14q20 9 39-3 26-18-1-4c-19 10-30 9-49-5-20-14-26-17-38-15m380 14c-4 0-11 3-13 4l-15 11-11 8a39 39 0 0 1-46-5l-1-1-9-6c-10-8-15-10-26-9q-16 1-27 10l-8 6-9 5q-23 16-46-2c-21-15-28-18-37-18l-14 4-5 3c-4 1-18 11-19 13l-6 3-5 3c-4 5-23 5-32 0l-5-2-7-4q-15-12-25-16c-10-4-26 0-34 8l-27 17a39 39 0 0 1-37-5l-20-13q-24-17-57 12c-9 8-25 14-30 12l-7-3q-6 0-10-4l-6-3-3-3c-5-4-20-13-24-14a39 39 0 0 0-25 3l-24 15-19 9a34 34 0 0 1-27-5l-6-3q-7-7-6-1 1 7 23 13 15 5 29-5l9-6 6-4c15-14 40-15 54-3 7 6 24 16 32 18 11 2 28-4 41-16a45 45 0 0 1 40-12l7 4q7 2 15 9c13 10 16 11 30 13q13 1 26-9l5-4 9-7c3-3 27-11 30-10l5 2c4 0 14 5 20 10l4 2 4 3q13 11 26 11c6 0 17-4 20-7l16-11q24-17 40-9c6 2 9 4 24 14 12 9 17 10 29 10q13 0 16-4l7-4 11-8 17-11c5-2 19-2 23 0l7 3q6 2 8 5c8 7 10 8 19 13 8 4 9 4 17 4 13 0 17-2 35-15 14-10 16-11 24-13l9-2q5-2 6 1l7 4 15 10 4 3v-3q0-2-3-5l-18-12c-4-1-17-2-20-1m-4 21q-12 4-19 11c-3 4-15 10-24 14q-13 5-27-2l-8-4-2-1-4-2c-8-9-22-15-34-15-8 0-10 0-18 5l-9 6-8 6-7 4-12 6q-15 9-49-17-14-12-28-8a41 41 0 0 0-21 10l-1 1-2 2-3 1-5 4c-9 8-26 13-36 10a44 44 0 0 1-19-10l-3-2-8-5a37 37 0 0 0-49 0l-7 5-19 12-6 2-5 1h-7c-10-2-13-4-25-12l-16-9q-19-13-41 3l-9 5-3 3a56 56 0 0 1-21 10c-4 3-20 3-22 1l-6-4-16-11c-20-14-33-14-55-1l-7 5a80 80 0 0 1-24 13 32 32 0 0 1-19-1l-11-6-9-6v4l1 3 5 3c12 8 29 11 38 7l18-11 4-3 5-4c19-13 35-11 58 5q32 23 54 6 25-21 31-20l4-1 8-1 10 2 16 9c9 9 30 18 36 17l7-2c7-2 21-10 23-14l3-1 5-3 12-7c8-4 30-2 34 3l17 11 8 4c7 5 21 8 26 5l7-3 7-5 4-3 2-1 1-1 7-4c20-14 33-14 52-3l7 4 5 4c12 8 16 10 28 10l12-1 6-3 15-10 17-12c13-6 31-2 46 12a41 41 0 0 0 16 9c6 6 35 2 40-5l11-8c1-3 15-10 24-12q15-3 34 13 6 6 5 0l-1-4-4-3a43 43 0 0 0-40-10m0 20-6 3c-5 2-16 10-21 14a42 42 0 0 1-40 8l-14-8-11-8a39 39 0 0 0-44-2l-6 4-11 6q-15 11-26 13c-7 1-24-5-31-12l-19-12q-22-10-52 16c-9 8-28 12-39 8-7-2-20-10-26-15-13-12-34-14-45-3l-2 1-6 4-6 4-10 6a41 41 0 0 1-52-6l-11-7c-8-9-33-9-41 0l-6 3-9 6-10 7-7 4c-1 2-12 3-19 2-8-1-12-3-20-9l-5-3-2-2-18-11c-7-3-20-2-27 2l-22 14-12 7-6 3H23q-11-4-17-9-7-6-6 0l1 3 3 1 8 5 5 3c5 4 21 3 28 0l20-12 18-10q21-9 41 7l7 5 1 1 5 3 6 3 6 3c11 4 20 2 35-8 9-5 9-5 13-9 7-5 20-10 29-11q10 1 24 10c28 21 39 23 61 9l11-10 11-5 9-4h11c13-1 15 0 30 11q10 8 22 12 15 6 33-7l4-2 7-4 10-7 7-4 4-1c2-2 18-2 20 0l4 1 10 6 9 5 4 3c14 14 40 13 56-2q28-27 52-13l8 5c0 1 12 10 18 13 17 8 29 7 48-7q25-19 36-18a48 48 0 0 1 26 11l1 1 4 3 3 2v-3l-1-4-5-3-4-3-4-2c-7-5-25-8-31-5m4 20-4 1q-6 0-20 12a54 54 0 0 1-46 13l-11-6-5-3-6-4q-11-10-26-12-11 0-28 10c-33 20-40 23-54 16l-19-12-6-4a37 37 0 0 0-45 1l-6 4-6 4-9 5a42 42 0 0 1-42 2l-5-3c-6-6-25-17-30-18q-15-3-31 8l-14 9c-19 11-18 10-27 10-12 0-26-6-33-13l-4-3q-19-12-29-10a61 61 0 0 0-24 12l-6 4-18 11c-4 2-24 2-26 0l-4-1-8-5-11-7-6-5-3-1c-3-3-12-5-19-5-8 0-13 2-26 10l-14 8-9 6a31 31 0 0 1-29 2l-3-1-5-3-7-5q-4-5-4 1 0 3 3 4c3 1 11 5 12 7 11 8 29 5 45-7 22-16 31-19 46-15 7 1 8 2 21 10 28 19 40 20 61 3l14-10a41 41 0 0 1 50 3l6 5 4 2a39 39 0 0 0 53-2l26-15 12-1c12 0 14 0 24 7l11 7 5 4 1 1 3 2 3 1 3 2c6 5 28 0 36-8l4-2 5-4c4-4 6-4 17-10a32 32 0 0 1 35 3l6 4 23 14c4 4 33 1 33-3l2-1 5-3 23-16q19-12 47 10c20 17 43 17 59 1 8-8 29-18 38-18 6 0 18 5 22 9l10 8 1-3a41 41 0 0 0-41-17m5 19-5 1c-8 3-12 5-25 14l-19 11c-6 3-18 3-26 0a91 91 0 0 1-24-15l-6-3q-11-6-23-6c-7 1-23 9-34 17-23 17-35 17-60-1-14-11-17-12-24-13q-10-1-18 2l-4 1-7 5-7 4-3 2c-7 7-25 14-32 14q-18 0-34-14c-20-17-36-17-58-1l-6 4-3 2c-5 5-22 12-30 12q-9 0-22-9a144 144 0 0 0-29-18c-1-3-14-1-24 4l-19 11c-5 6-18 12-25 13-12 2-19 0-33-11l-9-5-13-7-2-2c-2-3-18-2-26 2l-19 11-7 4-16 9a42 42 0 0 1-39-11l-2-2v3q-2 5 16 12c8 4 22 5 28 2 4-1 18-10 19-11 4-5 19-12 27-14 13-3 20 0 36 11l10 7 7 3q23 12 45-7l5-4 8-5c6-4 10-6 21-8 8-2 14 0 29 10l22 13c3 2 14 4 19 4 3 0 14-5 16-7l6-4 9-6q14-11 30-11c12-1 17 1 33 13 14 10 19 12 29 12q9 1 12-2l4-2 6-3 28-18 4-2c9-5 31 1 39 11l4 2 1 1 1 1 3 1c3 4 16 9 24 9a30 30 0 0 0 18-3l17-11 15-10c6-6 22-6 31-2q9 4 14 9l15 10q24 14 49-8l12-8q27-18 50 3 9 9 7 2l-1-4-5-3q-16-12-30-11m-10 22-11 6-4 3-6 4-4 3-4 3a59 59 0 0 1-21 8c-5 2-25-6-31-12l-18-11q-18-9-35 2l-5 3-11 7-18 11c-14 6-24 3-45-12-15-10-19-12-29-12s-13 2-25 12q-3 3 2 0 7-6 23-7a42 42 0 0 1 28 11l16 11a43 43 0 0 0 36 1l3-2 3-2 13-9c10-8 12-9 20-11 13-4 19-2 38 11l14 9c4 3 14 6 19 6a33 33 0 0 0 16-5l10-6 13-10c3-2 14-7 19-8 12-2 27 3 37 13l3 2v-3q0-3-2-3l-8-7q-19-12-36-6m-377 5-11 4-5 3-5 4c-9 8-28 18-35 18q-11 1-28-10l-15-10-5-3c-18-8-24-7-49 10-27 18-40 19-59 5l-6-5-12-7c-12-7-18-7-33-1a85 85 0 0 0-27 16l-5 2a34 34 0 0 1-38 1l-4-3q-10-7-9-2-1 2 7 7c12 7 15 8 26 8 10 1 12 0 25-10l21-13c13-8 35-5 44 5l10 7c21 14 34 14 58-4q20-14 34-14c9 0 20 3 20 5l1 1 7 4c29 21 40 21 66 2l24-14c6-2 19-1 25 2l6 4q3 0 8 5l21 13c3 2 20 2 22 0l3-1c2 0 15-9 20-13q7-6-8 2l-14 7-9 2c-8 0-22-5-29-11l-8-5a40 40 0 0 0-34-11m383 14c-8 1-23 10-26 15l-3 1-1 1-17 9c-9 4-29 0-37-7l-6-5-9-6a32 32 0 0 0-28-6l-13 6-14 9-10 6a40 40 0 0 1-52-5c-21-14-22-14-29-14a36 36 0 0 0-21 6l-5 3-6 3-1 1-1 1-5 3-4 3-5 3c-5 3-17 7-22 6a41 41 0 0 1-25-10l-20-14q-15-7-34 2l-17 11q-5 2-7 5a37 37 0 0 1-46 0l-12-8c-9-8-28-13-34-10l-4 1-19 10-17 11q-22 14-46-5c-27-21-42-22-69-1l-12 7-9 5-10 1c-11 0-15-1-26-8l-6-4q-1-1-1 2l1 3 5 3q12 10 26 9c11 0 14-1 30-12 17-12 21-14 36-16q7 0 16 4l18 12q27 22 57-1l11-8 18-9q12-2 23 4l6 3 5 4q26 21 46 14l12-6q2 1 8-5l25-14 10-1q12-1 24 8c32 23 44 24 74 2a46 46 0 0 1 23-12c2-4 22 1 31 8l5 3 18 12 8 2q21 3 35-9l5-4 6-4a47 47 0 0 1 46-6l8 7 10 6c14 10 39 11 46 2l24-16c16-10 27-9 45 4l8 5v-3q2-3-10-9c-14-9-18-10-30-8m-3 21-12 5-15 11c-2 3-16 9-23 11q-14 2-35-12a63 63 0 0 0-29-14c-5-1-8-1-18 4l-19 10c-7 6-19 13-28 15-5 1-19-2-23-5-2-3-20-14-24-17q-20-9-35-1l-22 16q-8 6-20 8a37 37 0 0 1-21-2c-2 0-12-5-17-9-5-5-7-6-16-11q-15-9-34 2l-16 10-7 4q-2 4-13 7c-11 5-29 0-40-11-14-12-34-17-46-11l-11 6-15 9q-21 14-28 12a58 58 0 0 1-30-15l-2-1-5-3c-8-8-26-12-32-7l-4 1-15 7-7 5-2 2-3 1c-8 7-22 12-32 10-5-1-23-10-24-12q-2-3-3 2l1 3 2 2c3 2 17 9 22 10a45 45 0 0 0 40-14l4-3 4-2q9-7 15-7l5-1q11-4 30 9l13 8a41 41 0 0 0 49 0l7-5a48 48 0 0 1 45-13l3 2 7 4 10 6 8 5q21 16 43 2l6-4 4-3 4-2q15-12 32-13 12-1 28 11c18 14 27 17 39 15 5-1 17-6 19-8 4-5 24-17 31-19 14-4 24-1 45 15a69 69 0 0 0 23 10 40 40 0 0 0 31-10l5-3 5-4c11-8 14-9 22-11 6-2 18 0 24 3l6 4 2 1 1 1 4 3a59 59 0 0 0 24 13 35 35 0 0 0 21-2l8-4 20-14 16-8a41 41 0 0 1 31 7l1 1 1 1 5 3q4 4 3 1 0-3-3-5l-5-4-2-2-3-2c-6-5-21-7-30-4m4 19-3 1q-5-1-18 10l-19 11q-13 9-25 6a47 47 0 0 1-19-9l-7-4q-26-21-46-9c-5 2-16 9-17 11l-17 10c-17 7-27 5-47-9-21-17-33-18-53-6l-9 7c-5 4-21 13-27 14-11 1-27-3-33-9l-5-4-5-3a39 39 0 0 0-50-3l-17 11c-13 9-29 13-34 9l-4-1-9-5-7-4-3-2q-27-26-58-2l-18 11c-18 10-32 8-50-8a45 45 0 0 0-63 0c-22 19-38 21-58 7l-8-5-1 3 1 3 2 1c4 4 14 9 21 11 11 3 19 1 34-9 21-14 22-15 30-17 5-2 17-2 19-1l7 3 11 7 10 7 5 3 2 1 4 1c4 3 12 5 15 5 5 0 17-4 21-7l21-15c8-6 23-9 29-7 7 2 21 10 33 19l5 2 6 4 12 1c11 0 16-2 28-11 17-13 22-15 34-17q16-2 30 10l17 12 4 1c15 7 27 4 48-12 15-10 15-10 26-13h15c6 2 16 8 17 9a91 91 0 0 0 28 17c3 3 17 1 26-3l10-7c17-14 36-22 42-19l4 1c3 0 11 4 15 7 20 16 26 19 39 19 11 0 14-2 37-18l10-6c1-3 12-5 21-5 10 1 12 2 23 10q9 7 7 2a50 50 0 0 0-24-17zm-2 21c-5 1-17 8-25 14a45 45 0 0 1-48 10l-21-14c-7-6-23-10-30-8l-25 11-16 11q-23 14-43-2l-28-17c-4-5-24 0-34 8l-3 2-15 10-5 2-7 4a39 39 0 0 1-27-2c-2 0-13-6-20-12q-23-18-40-9-19 10-26 16l-7 4c-16 8-22 8-30 5l-25-15-8-5-5-3c-3-4-20-4-28 0l-17 10-2 1-5 4a49 49 0 0 1-28 12q-8 1-32-15c-17-12-21-13-30-13q-12 0-30 13l-18 11-4 3a43 43 0 0 1-43-10l-3-2v3l1 3 4 2 4 3q22 20 55-6l15-10c5-2 21-5 23-4l4 1c4 0 13 5 17 8 9 8 24 16 36 18q11 1 32-14a83 83 0 0 1 23-13c3-3 19-2 24 0l27 17 3 2 3 1c3 4 22 6 29 2l15-9 7-4q12-9 20-11c6-2 19-2 21-1l9 4 10 6c5 5 19 14 26 15q17 3 33-8l23-16 3-1c2-2 12-3 18-3 8 1 32 14 37 20l14 6h18l7-3 10-6 6-4 4-3q12-10 23-12a38 38 0 0 1 35 13c8 8 23 13 34 13 13-1 16-3 38-20a40 40 0 0 1 32-9q9 2 17 9l8 6 1-3q1-3-7-8-18-12-34-8m4 19-3 1c-3 0-12 5-16 8l-5 3-9 6c-15 11-22 13-34 10q-14-2-23-11l-10-6-6-5-19-4q-7 1-27 13l-19 12q-1 3-12 4c-8 1-20-1-25-5l-4-2-2-2c-6-7-27-17-35-17a36 36 0 0 0-25 9l-12 8q-15 12-30 11c-13 0-14 0-39-17l-14-8c-5-1-19-1-22 1l-13 8c-29 20-39 22-60 12l-19-12c-11-13-39-10-57 7l-8 6c-21 12-31 11-52-5l-15-9q-14-9-27-4a68 68 0 0 0-23 12l-6 5-10 6c-5 3-6 3-16 4-12 0-16-1-27-9l-7-5-1 2 2 5q30 23 58 1l9-6c17-13 36-15 49-4l6 3 9 6 12 7a35 35 0 0 0 23 2q6 0 19-9l22-15c13-6 33-3 44 8l12 8 13 6c7 3 23 2 28-3l20-13q22-15 40-9c6 2 8 3 21 13l13 8q18 9 35-2l7-4 9-6c23-17 39-17 63 1l17 10q17 10 46-11l21-13 12-1c10 0 21 3 24 7 1 2 15 12 18 13 9 5 11 5 21 5h10l8-5q12-7 17-12 5-6 16-10c5-2 21-2 23 0l4 1 10 7c8 6 8 6 8 3 0-8-30-22-37-18m-5 22a68 68 0 0 0-21 13l-4 2-13 8q-4 3-15 4c-5 1-20-3-22-6l-8-5-10-7a42 42 0 0 0-52 3l-14 9c-2 2-13 7-18 8q-12 2-22-4l-6-3-2-1-2-1-4-3-7-4-5-4c-9-7-24-8-35-3-9 5-10 6-19 14a44 44 0 0 1-38 11q-16-4-30-16l-9-5c-16-9-30-6-52 11-14 10-30 15-38 12l-6-2-10-6-23-15c-11-7-29-4-43 7l-4 3-14 9-4 3-4 2-4 1h6l7-1 3-2 15-11 7-4 7-3c3-2 20-2 22 0l5 1 12 8c18 13 15 12 36 12l18-1 4-3 4-3 12-8 9-5q23-14 51 10c9 8 14 10 28 10h13l7-5 17-11 17-8a38 38 0 0 1 29 1l14 9a64 64 0 0 0 24 13l8 1q15 1 27-10l27-17a39 39 0 0 1 39 9l8 6q3 3 14 7c10 4 28 2 35-4l18-13 4-3 3-1c5-5 23-7 30-4 4 2 12 7 16 11q4 5 4 0l-1-3-5-4q-17-14-36-9M92 487q-16 4-28 15l-4 3-4 2-6 4q-3 1 1 1l6-1c16-14 39-23 50-19l15 7 17 12 8 1q7 0 4-1-8-2-21-12l-15-9q-12-7-23-3m634 10-24 15h4l7-2c6-6 21-10 30-9 4 1 19 8 20 10h6l-4-4-5-4c-6-6-27-9-34-6m-123 2q-9 2-20 10l-4 3h2l12-4c13-7 29-6 37 2 2 3 12 3 10 1-1-2-14-10-16-11-3-1-16-2-21-1M0 503l1 3 5 3q3 4 8 3 7 0 3-1l-3-2-13-9zm467 1-11 6-2 2h3l8-2a34 34 0 0 1 36 1l5 1h4l-3-3a35 35 0 0 0-40-5m-131 3-9 5h4l8-1 5-2 3-1c1-3 22 0 24 3l5 1h4l-4-3-9-4-12-3h-9zm-117-2-10 4-6 3h4l6-1c1-2 15-2 21-1l11 2h6l-6-3q-14-9-26-4m-130 2-7 3-3 2h32q11 0 6-1c-8-5-20-7-28-4"
        mask="url(#16282281824-posters-1720554013689-horizontal-mask)" itemprop="bold" fill-opacity="0.90"
        fill-rule="evenodd" stroke="none" fill="url(#16282281824-posters-1720554013689-vertical-bold)"></path>
    </pattern>
    <rect id="16282281824-posters-1720554013689-pattern-render" fill="url(#16282281824-posters-1720554013689-pattern)"
      width="100%" height="100%"></rect>
  </defs>
  <radialGradient id="lightbar" cx="50%" cy="200%" fy="0" r="201%">
    <stop offset="0%" style="stop-color: rgb(255, 255, 255); stop-opacity: 0.1;"></stop>
    <stop offset="10%" style="stop-color: rgb(0, 0, 0); stop-opacity: 0.1;"></stop>
    <stop offset="30%" style="stop-color: rgb(0, 0, 0); stop-opacity: 0.3;"></stop>
    <stop offset="90%" style="stop-color: rgb(0, 0, 0); stop-opacity: 0.55;"></stop>
    <stop offset="100%" style="stop-color: rgb(0, 0, 0); stop-opacity: 0.6;"></stop>
  </radialGradient>
  <g class="radial">
    <radialGradient id="16282281824-posters-1720554013689-radial" gradientUnits="userSpaceOnUse">
      <stop itemprop="radial" stop-color="#a5a4a1" offset="0%"></stop>
      <stop itemprop="radial" stop-color="#9e9c9a" offset="15%"></stop>
      <stop itemprop="radial" stop-color="#a3a19f" offset="30%"></stop>
      <stop itemprop="radial" stop-color="#a09f9c" offset="45%"></stop>
      <stop itemprop="radial" stop-color="#a3a29f" offset="60%"></stop>
      <stop itemprop="radial" stop-color="#aaa9a7" offset="75%"></stop>
      <stop itemprop="radial" stop-color="#a09f9c" offset="90%"></stop>
    </radialGradient>
    <radialGradient id="16282281824-posters-1720554013689-radial-background" gradientUnits="userSpaceOnUse">
      <stop stop-color="#d3cfc5" offset="0%"></stop>
      <stop stop-color="#d3cec5" offset="15%"></stop>
      <stop stop-color="#d3cec5" offset="30%"></stop>
      <stop stop-color="#d3cfc5" offset="45%"></stop>
      <stop stop-color="#d3d0c5" offset="60%"></stop>
      <stop stop-color="#d3cfc5" offset="75%"></stop>
      <stop stop-color="#d3cfc5" offset="90%"></stop>
    </radialGradient>
    <radialGradient id="16282281824-posters-1720554013689-radial-light" gradientUnits="userSpaceOnUse">
      <stop stop-color="#9b9a97" offset="0%"></stop>
      <stop stop-color="#9b9a97" offset="15%"></stop>
      <stop stop-color="#9b9a97" offset="30%"></stop>
      <stop stop-color="#9b9a97" offset="45%"></stop>
      <stop stop-color="#9b9a97" offset="60%"></stop>
      <stop stop-color="#9b9a97" offset="75%"></stop>
      <stop stop-color="#9b9a97" offset="90%"></stop>
    </radialGradient>
    <radialGradient id="16282281824-posters-1720554013689-radial-regular" gradientUnits="userSpaceOnUse">
      <stop stop-color="#82817d" offset="0%"></stop>
      <stop stop-color="#82807d" offset="15%"></stop>
      <stop stop-color="#82807d" offset="30%"></stop>
      <stop stop-color="#82817d" offset="45%"></stop>
      <stop stop-color="#82817d" offset="60%"></stop>
      <stop stop-color="#82817d" offset="75%"></stop>
      <stop stop-color="#82817d" offset="90%"></stop>
    </radialGradient>
    <radialGradient id="16282281824-posters-1720554013689-radial-medium" gradientUnits="userSpaceOnUse">
      <stop stop-color="#51504d" offset="0%"></stop>
      <stop stop-color="#51504d" offset="15%"></stop>
      <stop stop-color="#51504d" offset="30%"></stop>
      <stop stop-color="#51504d" offset="45%"></stop>
      <stop stop-color="#51504d" offset="60%"></stop>
      <stop stop-color="#51504d" offset="75%"></stop>
      <stop stop-color="#51504d" offset="90%"></stop>
    </radialGradient>
    <radialGradient id="16282281824-posters-1720554013689-radial-bold" gradientUnits="userSpaceOnUse">
      <stop stop-color="#2f2e2d" offset="0%"></stop>
      <stop stop-color="#2f2e2d" offset="15%"></stop>
      <stop stop-color="#2f2e2d" offset="30%"></stop>
      <stop stop-color="#2f2e2d" offset="45%"></stop>
      <stop stop-color="#2f2f2d" offset="60%"></stop>
      <stop stop-color="#2f2e2d" offset="75%"></stop>
      <stop stop-color="#2f2e2d" offset="90%"></stop>
    </radialGradient>
  </g>
  <g class="vertical">
    <linearGradient id="16282281824-posters-1720554013689-vertical" gradientUnits="userSpaceOnUse" x1="0" x2="0" y1="0"
      y2="100%">
      <stop itemprop="vertical" stop-color="#a5a4a1" offset="0%"></stop>
      <stop itemprop="vertical" stop-color="#9e9c9a" offset="15%"></stop>
      <stop itemprop="vertical" stop-color="#a3a19f" offset="30%"></stop>
      <stop itemprop="vertical" stop-color="#a09f9c" offset="45%"></stop>
      <stop itemprop="vertical" stop-color="#a3a19f" offset="60%"></stop>
      <stop itemprop="vertical" stop-color="#aaa9a7" offset="75%"></stop>
      <stop itemprop="vertical" stop-color="#a09f9c" offset="90%"></stop>
    </linearGradient>
    <linearGradient id="16282281824-posters-1720554013689-vertical-background" gradientUnits="userSpaceOnUse" x1="0"
      x2="0" y1="0" y2="100%">
      <stop stop-color="#cdcccb" offset="0%"></stop>
      <stop stop-color="#cdcccb" offset="15%"></stop>
      <stop stop-color="#cdcccb" offset="30%"></stop>
      <stop stop-color="#cdcccb" offset="45%"></stop>
      <stop stop-color="#cdcccb" offset="60%"></stop>
      <stop stop-color="#cdcccb" offset="75%"></stop>
      <stop stop-color="#cdcccb" offset="90%"></stop>
    </linearGradient>
    <linearGradient id="16282281824-posters-1720554013689-vertical-light" gradientUnits="userSpaceOnUse" x1="0" x2="0"
      y1="0" y2="100%">
      <stop stop-color="#aea284" offset="0%"></stop>
      <stop stop-color="#aea084" offset="15%"></stop>
      <stop stop-color="#aea284" offset="30%"></stop>
      <stop stop-color="#aea284" offset="45%"></stop>
      <stop stop-color="#aea084" offset="60%"></stop>
      <stop stop-color="#aea284" offset="75%"></stop>
      <stop stop-color="#aea284" offset="90%"></stop>
    </linearGradient>
    <linearGradient id="16282281824-posters-1720554013689-vertical-regular" gradientUnits="userSpaceOnUse" x1="0" x2="0"
      y1="0" y2="100%">
      <stop stop-color="#82817d" offset="0%"></stop>
      <stop stop-color="#82807d" offset="15%"></stop>
      <stop stop-color="#82817d" offset="30%"></stop>
      <stop stop-color="#82817d" offset="45%"></stop>
      <stop stop-color="#82807d" offset="60%"></stop>
      <stop stop-color="#82817d" offset="75%"></stop>
      <stop stop-color="#82817d" offset="90%"></stop>
    </linearGradient>
    <linearGradient id="16282281824-posters-1720554013689-vertical-medium" gradientUnits="userSpaceOnUse" x1="0" x2="0"
      y1="0" y2="100%">
      <stop stop-color="#51504d" offset="0%"></stop>
      <stop stop-color="#51504d" offset="15%"></stop>
      <stop stop-color="#51504d" offset="30%"></stop>
      <stop stop-color="#51504d" offset="45%"></stop>
      <stop stop-color="#51504d" offset="60%"></stop>
      <stop stop-color="#51504d" offset="75%"></stop>
      <stop stop-color="#51504d" offset="90%"></stop>
    </linearGradient>
    <linearGradient id="16282281824-posters-1720554013689-vertical-bold" x1="0" x2="0" y1="0" y2="100%">
      <stop stop-color="#2f2e2d" offset="0%"></stop>
      <stop stop-color="#2f2e2d" offset="15%"></stop>
      <stop stop-color="#2f2e2d" offset="30%"></stop>
      <stop stop-color="#2f2e2d" offset="45%"></stop>
      <stop stop-color="#2f2e2d" offset="60%"></stop>
      <stop stop-color="#2f2e2d" offset="75%"></stop>
      <stop stop-color="#2f2e2d" offset="90%"></stop>
    </linearGradient>
  </g>
  <g class="horizontal">
    <linearGradient id="16282281824-posters-1720554013689-horizontal" x1="0" x2="100%" y1="0" y2="0"
      gradientUnits="userSpaceOnUse">
      <stop itemprop="horizontal" stop-color="#a3a19f" offset="0%"></stop>
      <stop itemprop="horizontal" stop-color="#a09f9c" offset="15%"></stop>
      <stop itemprop="horizontal" stop-color="#a3a19f" offset="30%"></stop>
      <stop itemprop="horizontal" stop-color="#a8a6a4" offset="45%"></stop>
      <stop itemprop="horizontal" stop-color="#9e9c9a" offset="60%"></stop>
      <stop itemprop="horizontal" stop-color="#a09f9c" offset="75%"></stop>
      <stop itemprop="horizontal" stop-color="#a3a19f" offset="90%"></stop>
    </linearGradient>
    <linearGradient id="16282281824-posters-1720554013689-horizontal-background" gradientUnits="userSpaceOnUse" x1="0"
      x2="100%" y1="0" y2="0">
      <stop stop-color="#cdcccb" offset="0%"></stop>
      <stop stop-color="#cdcccb" offset="15%"></stop>
      <stop stop-color="#cdcccb" offset="30%"></stop>
      <stop stop-color="#cdcccb" offset="45%"></stop>
      <stop stop-color="#cdcccb" offset="60%"></stop>
      <stop stop-color="#cdcccb" offset="75%"></stop>
      <stop stop-color="#cdcccb" offset="90%"></stop>
    </linearGradient>
    <linearGradient id="16282281824-posters-1720554013689-horizontal-light" gradientUnits="userSpaceOnUse" x1="0"
      x2="100%" y1="0" y2="0">
      <stop stop-color="#9b9a97" offset="0%"></stop>
      <stop stop-color="#9b9a97" offset="15%"></stop>
      <stop stop-color="#9b9a97" offset="30%"></stop>
      <stop stop-color="#9b9a97" offset="45%"></stop>
      <stop stop-color="#9b9a97" offset="60%"></stop>
      <stop stop-color="#9b9a97" offset="75%"></stop>
      <stop stop-color="#9b9a97" offset="90%"></stop>
    </linearGradient>
    <linearGradient id="16282281824-posters-1720554013689-horizontal-regular" gradientUnits="userSpaceOnUse" x1="0"
      x2="100%" y1="0" y2="0">
      <stop stop-color="#968969" offset="0%"></stop>
      <stop stop-color="#968769" offset="15%"></stop>
      <stop stop-color="#968969" offset="30%"></stop>
      <stop stop-color="#968769" offset="45%"></stop>
      <stop stop-color="#968969" offset="60%"></stop>
      <stop stop-color="#968769" offset="75%"></stop>
      <stop stop-color="#968969" offset="90%"></stop>
    </linearGradient>
    <linearGradient id="16282281824-posters-1720554013689-horizontal-medium" gradientUnits="userSpaceOnUse" x1="0"
      x2="100%" y1="0" y2="0">
      <stop stop-color="#5d5541" offset="0%"></stop>
      <stop stop-color="#5d5441" offset="15%"></stop>
      <stop stop-color="#5d5541" offset="30%"></stop>
      <stop stop-color="#5d5441" offset="45%"></stop>
      <stop stop-color="#5d5541" offset="60%"></stop>
      <stop stop-color="#5d5441" offset="75%"></stop>
      <stop stop-color="#5d5541" offset="90%"></stop>
    </linearGradient>
    <linearGradient id="16282281824-posters-1720554013689-horizontal-bold" gradientUnits="userSpaceOnUse" x1="0"
      x2="100%" y1="0" y2="0">
      <stop stop-color="#2f2e2d" offset="0%"></stop>
      <stop stop-color="#2f2e2d" offset="15%"></stop>
      <stop stop-color="#2f2e2d" offset="30%"></stop>
      <stop stop-color="#2f2e2d" offset="45%"></stop>
      <stop stop-color="#2f2e2d" offset="60%"></stop>
      <stop stop-color="#2f2e2d" offset="75%"></stop>
      <stop stop-color="#2f2e2d" offset="90%"></stop>
    </linearGradient>
  </g>
  <g class="masks">
    <mask id="16282281824-posters-1720554013689-pattern-mask" maskUnits="userSpaceOnUse"
      maskContentUnits="userSpaceOnUse">
      <pattern id="pattern" x="0" y="0" width=".0133" height=".0144" viewBox="0 0 23.07 40">
        <path
          d="M17.62 0l-6.07 10.5m2.74 4.76L8.22 4.75m-5.48 0h12.13M.01 0h23.07M6.07 20L0 9.5m2.74-4.75l-6.07 10.5m-5.48 0H3.33m8.2 4.75L0 .02-11.54 20m40.68 0L23.07 9.5m2.74-4.75l-6.06 10.5m-5.49 0H26.4M34.6 20L23.08.02 11.53 20m-5.46 0L0 30.51m2.74 4.75l-6.07-10.5m-5.48 0H3.33m8.2-4.75L0 40l-11.54-19.98zM17.6 40l-6.06-10.5m2.74-4.76L8.2 35.25m-5.48 0h12.13M0 40h23.07L11.54 20.01m17.6 0l-6.07 10.5m2.74 4.75l-6.06-10.5m-5.49 0H26.4M11.53 20h23.08L23.07 40"
          stroke-linecap="round" stroke-width="3.5" stroke="white"
          fill="url(#16282281824-posters-1720554013689-horizontal-background)"></path>
      </pattern>
      <rect width="100%" height="100%" fill="url(#pattern)"></rect>
    </mask>
    <mask id="16282281824-posters-1720554013689-horizontal-mask" maskUnits="userSpaceOnUse"
      maskContentUnits="userSpaceOnUse">
      <rect width="100%" height="100%" fill="url(#16282281824-posters-1720554013689-horizontal-background)"></rect>
    </mask>
    <mask id="16282281824-posters-1720554013689-radial-mask" maskUnits="userSpaceOnUse"
      maskContentUnits="userSpaceOnUse">
      <rect width="100%" height="100%" fill="url(#16282281824-posters-1720554013689-radial-background)"></rect>
    </mask>
    <mask id="16282281824-posters-1720554013689-vertical-mask" maskUnits="userSpaceOnUse"
      maskContentUnits="userSpaceOnUse">
      <rect width="100%" height="100%" fill="url(#16282281824-posters-1720554013689-vertical-background)"></rect>
    </mask>
  </g>
  <use href="#16282281824-posters-1720554013689-pattern-render"></use>
  <g>
    <use href="#16282281824-posters-1720554013689-background"></use>
    <use href="#16282281824-posters-1720554013689-light"></use>
    <use href="#16282281824-posters-1720554013689-regular"></use>
    <use href="#16282281824-posters-1720554013689-medium"></use>
    <use href="#16282281824-posters-1720554013689-bold"></use>
  </g>
  <g itemprop="animation">
    <animate href="#16282281824-posters-1720554013689-light" attributeName="stroke-opacity" repeatCount="indefinite"
      dur="5s" values="0.9;0.0;0.9"></animate>
    <animate href="#16282281824-posters-1720554013689-regular" attributeName="stroke-opacity" repeatCount="indefinite"
      dur="4s" values="0.9;0;0.9"></animate>
    <animate href="#16282281824-posters-1720554013689-medium" attributeName="stroke-opacity" repeatCount="indefinite"
      dur="5s" values="0.9;0;0.9"></animate>
    <animate href="#16282281824-posters-1720554013689-bold" attributeName="stroke-opacity" repeatCount="indefinite"
      dur="3s" values="0.9;0;0.9"></animate>
    <animate href="#16282281824-posters-1720554013689-regular" attributeName="fill-opacity" repeatCount="indefinite"
      dur="8s" values="0.9;0.75;0.95;0.8;0.9;"></animate>
    <animate href="#16282281824-posters-1720554013689-radial-background" attributeName="cx" repeatCount="indefinite"
      dur="34s" values="0%;33%;100%;0%;100%;0%;"></animate>
    <animate href="#16282281824-posters-1720554013689-radial-background" attributeName="cy" repeatCount="indefinite"
      dur="55s" values="0%;100%;33%;100%;66%;0%"></animate>
    <animate href="#16282281824-posters-1720554013689-vertical-light" attributeName="x1" repeatCount="indefinite"
      dur="55s" values="0%;33%;100%;0%;133%;0%;"></animate>
    <animate href="#16282281824-posters-1720554013689-vertical-light" attributeName="y1" repeatCount="indefinite"
      dur="86s" values="0%;100%;33%;100%;66%;0%"></animate>
    <animate href="#16282281824-posters-1720554013689-horizontal-regular" attributeName="x1" repeatCount="indefinite"
      dur="34s" values="0%;100%;66%;0%;33%;133%;0%"></animate>
    <animate href="#16282281824-posters-1720554013689-horizontal-regular" attributeName="y1" repeatCount="indefinite"
      dur="55s" values="0%;66%;100%;33%;100%;66%;0%"></animate>
    <animate href="#16282281824-posters-1720554013689-vertical-medium" attributeName="x1" repeatCount="indefinite"
      dur="34s" values="0%;100%;66%;0%;33%;133%;0%"></animate>
    <animate href="#16282281824-posters-1720554013689-vertical-medium" attributeName="y1" repeatCount="indefinite"
      dur="55s" values="0%;66%;100%;33%;100%;66%;0%"></animate>
    <animate href="#16282281824-posters-1720554013689-vertical-bold" attributeName="x1" repeatCount="indefinite"
      dur="34s" values="0%;100%;66%;0%;33%;133%;0%"></animate>
    <animate href="#16282281824-posters-1720554013689-vertical-bold" attributeName="y1" repeatCount="indefinite"
      dur="55s" values="0%;66%;100%;33%;100%;66%;0%"></animate>
  </g>
</svg>
