<svg id="16282281824-posters-1720553644717" itemscope="" itemtype="/posters"
  itemid="/+16282281824/posters/1720553644717" viewBox="0 0 769 512" preserveAspectRatio="xMidYMid meet" tabindex="0"
  class="animate landscape" xmlns="http://www.w3.org/2000/svg">
  <!---->
  <defs class="graphic">
    <pattern id="16282281824-posters-1720553644717-pattern" width="769" height="512" viewBox="0 0 769 512"
      patternUnits="userSpaceOnUse" preserveAspectRatio="xMidYMid meet">
      <rect itemprop="background" width="769" height="512" tabindex="-1"
        id="16282281824-posters-1720553644717-background" fill-opacity="1"
        fill="url(#16282281824-posters-1720553644717-radial-background)"></rect>
      <!---->
      <path id="16282281824-posters-1720553644717-light"
        d="M0 19v19l3-3q6-5 8-11c2-5 2-4-3-14Q4 1 1 0zM32 3q3 7 9 3 6-7-4-6-6-1-5 3m44-2c-4 3 2 15 7 15q3 1 1-3V0h-4zm24 3q0 4-3 10l-2 6 3 2q3 2 4 1 15-6 13 2 1 8 7 12c5 3 9-2 5-7-4-4-1-13 5-15l3-2 3 3c6 7 6 17-1 19-4 2-3 7 1 7l6 1c6 2 14-3 15-10l2-9q2-8-5-14-3-2-4-6l-1-4h-11l-11 1q-1 5-6 6-3-1-4-5 2-2-9-2h-10zm71-3-2 4q-9 14-4 17l2 5c0 5 0 5-5 10-11 11-15 28-5 28q4 1 4-8c0-10 14-22 15-12l1 7v9q-3 4-1 6 5 6-2 5-6-1-6 3c0 3 9 7 14 7q8 0 6 5c-1 2-1 2-11 0h-6c-3 2-13 3-17 2q-12 0-9 9l1 15 1 13 3 5c5 6 5 6 0 11-6 5-6 5-11 2q-6-3-2-13 5-13-1-18l-6-7q-5-9-11-9-6 1-7-8 0-11-8-19l-4-3-11-1H79l-2-6c-2-10-12-15-18-11-9 6-7 17 3 20q7 2 4 7c-1 2-1 2-9 2q-12-1-15 6c-4 8 10 19 17 13q3-3 7 3l1 3h-4q-11 0-6 11c2 4 1 12-1 12s-4 7-4 13q-1 7 3 10 11 8 8 0c-5-7-1-21 6-21 6 0 10 12 7 18-3 4-2 11 0 12 10 5 20-3 22-17l2-8q2-1 2-9c0-8 0-9 2-12 5-7 11-3 10 7q-1 5 1 9v7a6 6 0 0 0 7 8l3 1 2 4q2 5-7 4-28 1-28 24l1 9q6 6 7-7 3-18 12-10c3 3 3 3 3 12l-1 10q-4 4 0 6 6 5 3 12c-5 5 1 23 8 23q4 1 2-8c-4-10 1-20 8-18 3 0 5 7 4 10-4 8 3 17 12 13q9-4 10-18c0-7-9-17-18-19s-9-3-9-7c2-10 2-12 0-16q-4-7-1-9 4 0 4 8 1 14 11 18 9 3 2-7c-6-12 4-33 17-33 6 0 15 6 16 11l2 6c3 8-5 20-14 21q-18 3-6 10c6 3 6 3 8 10q5 13 12 9 5-1 0-7c-7-10 2-25 16-27q11 0 3 6-6 3-3 8 3 11-5 17c-12 5 6 13 20 8 4-1 9-8 9-12q1-10 13-11 7 1 7-5c0-7 9-19 14-19q14 0 13 4 0 3-4 3-10 0-5 6 4 4 4 11l2 11-1 5q-7 12-1 17 4 5 7 2l8-12a32 32 0 0 1 14-8c1-2 10-2 11-1q3 4-4 4-11-2-2 11 3 3 2 11c1 7 1 9 4 14 6 12 5 24-3 21-2 0-9-12-8-12l3-2q9-5-2-9l-9-3q-8-5-9-2-3 3 2 8 5 4-2 4-8 0-11-4l-9-8q-5-2-2-6 4-3 4-11c0-4-7-12-13-15-17-9-31 16-14 25q4 3 4 5-1 5-10-2-9-9-25-8c-11 1-13 0-17-3q-8-8-14-2-5 6-2 11 7 6 3 11-1 6-13 8-8 2-6 6c1 3 10 4 14 1q4-3 6 5l4 7c4 7-3 7-12 1q-8-7-15-3-7 6-15-10-6-10-13-13h-20l-4 1c-4 1-16 12-16 16q-1 5 2 6l8-7q10-10 20-10 6 1 2 3-6 4 0 10 4 3 3 10l2 10c3 6-6 9-14 4l-4-2-2 2q-2 2-2 10l-2 8q-2 6 2 8 5 2 8-7l3-5c1 0 0 7-2 11q-1 8 3 9 7 0 7 6-1 9-14 2l-8-3q-9-3-10-10l-3-9-3-4q-7-8 1-10 6-1 8-6 6-8-7-15-8-3-3-10c2-5 2-15-1-20q-6-10-28-12-12 0-10-3v-9q-1-15-7-16l-1-1c0-1-7-5-12-5q-9-2-15 5l-4 5v25h4q7-1 4-6-2-9 1-15c4-8 11 1 9 11q-2 8 4 11 7 5 1 10c-4 4-5 4-13 1q-12-7-10 2l1 6 4 1q18 5 3 20c-7 7-8 8-8 11q-1 5 4 4 6 1 7 8l3 5c3 4 3 4 9 4l6-1v3l-2 9q0 5-2 5l-9-8c-1-2-11-6-15-6-2 0-1 22 1 25v5q-2 7 4 9c3 0 9-6 10-11q6-9 8 6-1 16-12 17-6 1-6 7a4 4 0 0 1-2 5l-2 4c-2 3-3 24-1 21q2-1 6 1 12 4 5-6-5-9 4-17 15-15 16 2l1 9q1 12 13-1 3-2 4 3t7 5l3-2c0-1 6-3 7-2l2 11c0 13 1 15 5 16q9 4 11-8 2-7 4 0c0 3-5 10-9 11l-8 3q-7 3-11-1l-6-3-6-6q-5-9-12-10a29 29 0 0 0-18 0c-4 0-16 11-16 14l-1 5v6q4 13 0 15-2 0-2 5-1 5 3 3 7-1 4 5v5l2 3 1 1c3 0 4 7 3 13q-1 7-6 9-5 4-1 7a14 14 0 0 0 15 0c14-3 19-19 12-34-4-9-4-10 3-15q6-5 11-1 11 4-1 16c-2 3-6 13-6 17 0 3 5 9 8 9l2-1v-6c0-13 12-26 20-22q3 3 0 4c-1 0-2 6-1 9v7l-1 4 4 4 4 4-2 1-5 2q-6 3-6 13v7h12c11 0 12 0 14-2 3-3 11-3 12 0q-2 3 10 2l9-1c-3-7-2-8 5-16 8-8 8-8 12-1q5 8 10 6 6-2 0-11l-2-7v-7c-2-6 11-14 18-11q5 2 1 5c-2 3-2 17 1 20 3 5 11-1 11-9q1-3 4-1 4 4-1 16c-4 7 3 10 10 4l4-4v-8c0-9-1-12-8-19q-5-4-4-10l2-6v-8c-3-3 3-16 7-16l2-1q5-4 9 0 3 2-1 4c-3 4-1 17 5 26q6 6 0 5-6 1-7 6l2 8a7 7 0 0 0 13 3c0-4 7-9 11-9q4 0 2 2a42 42 0 0 0 0 30q1 11 10 7l8-1q6 1 11-8 4-6 7-3l3 9v6h26v-5l-1-7-2-5c3 3 9-1 7-6q-3-9 5-18 4-7 10 3c4 6 4 6 3 11l-1 8q0 5-3 7l-3 3 5 4 5 5h34l-3-2q-9-8-5-20c1-5 8-13 10-13 3 0 8 12 9 19q-1 6 4 7 7 2 2 5l-3 3h24l19 1h17l-2-2c-5-4-1-11 4-8 4 2 5 8 1 8l-1 1h33l27 1c26 0 26 0 25-2q-1-3-4-1c-14 2-27-24-15-32l2-2 3-4q3-4 8-3c2 0 3 6 1 8q-4 4 1 7 3 1 3 3l2 17 1 7c0 2 1 2 13 2 13 0 13 0 10-4q-6-5-1-8t6-7a22 22 0 0 1 7-12c0-1 9-3 10-2l-1 5q-2 4 1 7a26 26 0 0 1 5 17v4h73v-2q0-2 5-2 10 1 9-6c0-6 7-16 11-16 5 1 10 14 8 22v4h21l1-6c1-9 0-13-6-22-5-8-6-10-2-15l2-10q1-15 7-13c9 0 11 10 3 18q-11 11-4 17 2 2 4-2 4-3 3 0c0 3 4 11 6 12q13 9 9 15l-4 3-4 1c-1 2 1 2 24 2h26l1-4c2-4 9-11 11-11s3-10 1-10q-5-1-6-8 0-3-4-8c-3-5-7-15-5-16l9 7c8 7 10-4 3-12l-4-5 6 4 2 1c2 1 1-13-2-17q-4-7 0-17c2-4 2-5 2-69v-62l-3 6-2 2-5-5-5-5-5 1c-8 1-12 9-7 14 3 2 3 9 0 9q-4 0-6-2l-4-5q-9-7 2-11l9-7q4-5 8-2 7 2 6-6c-1-8 5-16 10-13l2 1v-46c0 8 0 8-3 8q-11 0-5-7 3-1 3-10c0-7 0-8 2-11l3-4c1-7 0-30-1-30l-1-5q0-13-18-24-7-4-1-8c5-4 5-4 11 1q9 9 10 0 0-5-3-7-3-4-1-6 1-7 4-8V36l-1-24-4 3q-5 5-8-1-6-6 0-12c1-2 1-2-12-2s-14 0-14 2q0 5-3 5-9 1-6 10 2 3 1 8 1 14 10 3 3-6 7 1 5 9 0 17l-5 14c-3 13-5 15-9 15q-8 1-6-9l1-6h5q12 1 3-8l-6-9q-5-3-7 3-1 7-7 2c-8-5-8-6-2-12 11-11 12-18 6-32l-2-4h-11q-19-1-9 12l3 6 4 6q4 3 2 5c-2 4-15 12-20 12q-8 2-16 9-3 3-5 2c-3 0-8-12-9-19q1-12-6-13l-7-6-5-6-4-4q-2-4-6-4h-3l4 8v6a16 16 0 0 1-7-10V1l-9-1q-18 0-2 5c3 0 8 6 8 9q1 5 8 11 7 7 2 10l-3 1q-7 2-9-1l-1-3-1-4-2-5-6-8c-6-8-8-9-18-9q-12 1-19 6-9 10-12 1-5-8-1-11 6-2-12-2-13 0-12 1l-1 4v5l1 11q0 8 2 12 5 7-4 6-9 0-8 5 0 11-8 11-10-1-10-12 1-5-5-11-7-10 6-3 6 3 8-8c1-7 6-16 10-18q9-4-4-3l-9 1q0 4-9 6-9 1-12 9l-2 4h-10l-13 2q-8 6-13-3-5-8-1-8h14c4 2 14 4 16 3q5-2-5-7l-7-5c-4-4-24-2-24 3l-2 1q-4-1-6-5l-23-1h-23v6c0 16 7 23 12 11 4-8 15-12 19-8 3 2 7 12 8 16q1 4-6 15-3 3-1 5v15l2 8c0 5 1 5 5 8l4 4-1 7 1 9 2 3c0 1 6 6 8 6q5-1 1-10c-5-10 2-18 9-11q8 8 7 15-2 10 4 13 6 5 1 12l-3 2-5-2q-7-2-9-5-9-10-10 8c0 10 0 10 7 12l6 2c10 10 11 13 10 22q0 5-5 8-5 4-7 16 0 9-5 6l-2-2c0-5-13-11-21-11-9 0-11 1-17 6l-4 5-7-1q-6 0-9 2c-5 3-6 3-11 0l-5-3c-6-1-4-7 2-7q6-1 2-9l-2-5q-2-6-8-8-4-1-4 6 1 10-6 2-4-4-7-4-2 0-9-6-6-6-10-6-11-2-10-6 1-5 9-3l9 3q4 1 7 5 10 12 18 3 6-8 0-14-1-3-10 0-14 3-22-7-8-9-12-11l-10-6-5-4h-11c-13 0-19 2-26 8q-5 6-9-4-5-7-11-10-4-1-1-9 9-19 4-29-4-6 2-3c9 6 12 6 17 0l5-3q12-1 0-10-14-7-9-22 5-16 19-16 4 0 4 5l2 8v7q-4 7-5 14-2 12 12 12 11 2 7 6l-4 1h-7c-5-4-13-1-14 6q-2 6-6 5-8 0-11 11-4 13 11 13 6 1 9-5 3-4 6 2 4 5 9 5l3-1-2-4-2-5c-3-4 1-14 7-18 8-6 22-3 15 2q-4 2-1 9v10c-2 6-1 8 4 15l6 11q1 7 10 9 11 1 4-8c-7-7-5-20 3-20q3 0 8-4 6-7 13-4 5 3 0 8-3 2-1 6c2 4 1 13 0 15q-6 9 2 14l5 4q5 9 12 2c4-6 11-6 11-2l2 6q3 4 1 9-3 24 10 24 4 1 7-5l5-8 3-3 5 4q6 8 9 3 3-2 0-8l-2-8c0-12 0-11-7-11q-10 1-10-4c0-4-12-10-23-11q-11 0-10-4c0-4 7-7 9-4l2 1q3 0-1-7-5-7-2-12l3-4q4-7 11 0 7 6 2 11-6 7 0 10l4 8c2 6 2 6 11 7q10 2 5-6l-2-5 4-6c4-5 4-6 5-12 0-10-2-13-11-18q-18-10-33 4c-5 4-6 4-14-1q-14-11-28-2-6 2-9-9-1-5 6-4 9-1 11-8c0-6-10-11-15-9q-8 5-7-2c0-6-1-7-7-12-8-4-9-6-12-11-2-4-2-13 0-17a21 21 0 0 0-1-16q0-4-6-3h-5l1 4q4 12-11 5-4-3-13-2h-8l-1-4-1-3h-13q-14 0-14 2h-14l-3 1-7 3q-11 6-14-2l-3-4h-11zm142 0-1 13c0 11 1 11 3 13q3 4 9-7 5-7 10 0c6 7 8 16 5 18s2 15 6 15q6 1 7 10c0 9 6 19 11 19q5 1 2-8c-9-18 6-39 17-23l5 5-1 10c0 12 1 13 7 15q9 1 15-8 9-16 0-23a43 43 0 0 0-32-15q-9 0-8-7c-1-7-12-20-18-22q-12-2-13-5c0-2-22-2-24 0m348 0c0 2-6 7-9 7q-8 4 3 6 9-1 10 7c4 12 14 14 11 3l-1-4-1-7q-1-7 3-10l3-3h-9zM371 6c-1 3-1 19 1 20q6 2 7-5c2-10-4-22-8-15M176 7c-7 12 2 23 11 14q5-6 0-13-6-6-11-1M47 14q-8 0-11 4a23 23 0 0 0-1 32l3 1q7 0 2-7c-4-5-1-17 5-19 4-1 9 6 9 12q1 14 17 5l5-3q4-1 5-5l-2-3-3-4c0-3-11-12-16-13zm162 5q-13 15 2 27 6 4 9 2l7-1q7 1 9-5c2-3 3-11 1-11l-3 5q-10 13-11-2 1-7-2-10l-3-7q-1-7-9 2m364-3c-3 0-10 7-12 11q-5 9 2 18 3 5-5 5-4 0-3 2c2 7 3 15 2 16l3-1q7-8 9-14l1-3h16v-3q0-4 7-6 10-5 6-11-2-3-9 4-6 5-7-5-3-12-7-14zM21 18l-1 4a4 4 0 1 0 1-4m329 9 2 10c2 2 5-3 5-7s-5-7-7-3M94 29c-4 3-3 18 2 18q5 1 6-11 1-13-8-7m379 3 3 5q3 4 4 9l1 9c0 5 6-4 6-10q1-3-6-9-8-9-8-4m-181 5-1 4-2 5q-4 9 3 3c3-4 6-11 4-13q-3-2-4 1m158 2q-4 5-6 14 0 5-2 5-1 1-6-5c-5-7-11 2-7 10l2 6q1 9 8 4 20-9 33 6l5 6v9c0 9 0 9 6 11q5 1 9 9 6 8 11 5l7-3q4-1 1-4l-1-10q0-8-2-10-3-4 0-7v-4c-1-2-8-3-10-1l-3 2-6 10q0 6-5 3c-8-5 1-18 15-21q9-4 8-6-12-10-19-2c-8 9-21 8-20-1l2-9c1-15-14-28-20-17M16 40q-6 2-7 9c0 9 13 10 16 1 2-7-3-13-9-10m100 2q-3 4 0 5 4 4 6-2-1-5-6-3m502 4c-3 2-4 5-5 19-1 21-2 24-10 34q-6 7 1 10 15 9 8 24-4 10 3 10c7 1 8 1 10-10q1-3-1-7-8-11-8-17c0-6 6-9 8-3l4 10c0 3 9 7 14 6q2-1 10 3l6 3 3-2 2-3-3-1q-8-2-3-10 4-11-3-4-9 13-11 9-5-2-2-8c8-10-4-27-13-21q-7 4-9 0-5-19 5-18c9 3 13-7 7-16q-6-12-13-8m-88 4c-11 5-14 15-9 22l4 8c1 7 7 7 8 1q1-6 4-6l5-5c11-10 0-27-12-20m148 0q-4 1-9 7l-4 5c-6 6 0 19 10 22l8 2q4 3 8 1c4-1 15-10 15-13l1-4q3-4 0-4-3-4-3 2c0 6-7 7-11 0l-4-7q-3-2-4-6-1-5-4-6zm-545 7c-2 1-6 7-6 9l3 6q6 8 15 1c8-8-1-21-12-16m78 1c-4 0-11 8-12 12v19c2 3 13 11 16 11q11-2 6-8c-2-2-2-3-1-11 0-7 0-8-2-11q-5-5 0-7 9-7-7-5m533 5c-6 6-6 8 0 19 5 12 13 20 13 14 0-2 3-7 5-7q5-1 4-7l-2-10q1-14-10-13c-6 0-6 0-10 4m-163-2c-5 1-12 8-13 13l-3 6c-2 4-1 11 2 13 4 2 20 4 24 2a19 19 0 0 0-6-35zM1 67q-1 5 3 4 3-1 2 3l2 7v7l-1 7q0 5-4 5l-2 4c0 9 18 5 23-5l2-3q6-5 0-20c-4-12-5-12-21-13l-4-1zm549 9-3 5c-1 1 1 8 2 8l1 5q1 11 6 12l5 3q5 6 9 1 4-6-2-8l-3-1q0-2-3-2-6-4-7-18 1-12-5-5M78 77q-8 9-2 21 7 7-2 7h-5l1 5q0 7 7 7l5 2 8 4q4-1 4-5l3-7q6-10-3-12-3 2-4-7-1-22-12-15m636 10q-11 5-9 13l1 5a14 14 0 0 1-1 13l-3 5q-6 3-1 15c3 5 3 7 3 16q0 16 5 26 1 4-3 5l-8-7q-1-7-12-8-7 1-9-2c-3-3-3-4 1-12s4-10-2-16l-3-6q1-3-4-2-8 2-11 12c-3 7-3 9 1 14l5 8c3 6 3 6 12 7q6 2 11 9c2 4 7 12 9 13q3 4 10-5l8-7c3 0 2-7-1-13s-1-13 3-13c2 1 3 1 9 13q3 9 8 9c2 0 7-8 7-14 2-12 1-14-8-14q-9 0-7-8v-8q-2 0-4 5-6 10-10 7v-6l4-12q1-11 9-8c2 2 11 3 11 1l2-2c2 0 8-12 8-15q-2-3-5 4c-4 9-11 8-11-2l-2-8q-3-5 3-10c6-5-7-7-16-2M168 97l-5 4q-6 6-7 17t9 13q10 4 10-2l2-9 1-5-2-4-5-6q-2-2 1-5l3-3c0-2-6-1-7 0m509 3c-2 1-6 8-6 11 0 8 17 16 22 10 10-11-4-30-16-21m-478 1q-1 3 2 5c3 2 8-2 5-4zm13 13-5 5q-1 7-4 10c-4 4-1 13 4 14 6 2 6 9 0 12-9 4-14 13-9 14q10 4 8-5c-1-9 13-12 18-5q3 5-1 10-7 11 8 12h5l4-6q6-7 1-15-2-7-10-6-10-1-12-6l4-7c6-8 6-10-1-25q-3-8-10-2m-24-2v14c3-3 4-12 1-13zm350 1c-2 0-8 6-8 7q-1 3-8 4l-6 2c-4 4-2 6 7 15 4 4 4 4 2 15 0 5 0 5 15 5 11 1 12 1 13-3q1-8-5-8l-4-1-4-1q-5 0-8-4-3-3 7-8 11-4 6-12l-2-7a4 4 0 0 0-5-4m40 2q-6 5-7 14l-3 6q-4 8 4 11l7 7q3 4 5 3l2-2 1-4 1-6 2-7 2-11q1-5-5-11-4-3-9 0m-102 1q-3 5-1 9 5 3 8-2c3-6-3-12-7-7m-453 5c-11 6-5 23 7 20 12-2 12-23 0-23q-3 0-7 3m248 0c-6 3-11 15-8 20l10 14 3 5q7 12 13 5 5-3 0-11-3-5-3-10l-3-10q-5-9 0-10t3-3c-2-3-11-2-15 0M5 121q-2 6 4 7 5-2 3-6-3-3-7-1m233 4v10q5 2 5-6 0-6-5-4m397 9c-3 3-2 10 3 10q3-1 5-7c2-5-4-7-8-3m-165 2q-2 4 2 7c3 2 11-4 9-7zm27 7-6 2c-10 5-13 16-5 19l8 6c8 9 19 4 19-8l1-9v-7c-3-3-16-5-17-3m-249 2c-4 4 2 15 9 15q7 1-1-11-4-7-8-4m-233 2c-4 3 0 9 5 6a4 4 0 1 0-5-7m24 4q-3 4-1 7c4 5 13 0 10-6-1-2-7-3-9-1m555 6a24 24 0 0 0-2 30l9 14c2 2 8-1 8-5l2-6c6-6 5-22-1-28l-4-5q-5-6-12 0m-288 5q-10 3-10 16-1 10 8 13l8 6c6 7 11 6 6-1l-1-12q-1-12-3-13l-2-6q1-4-6-3M8 162c-7 4-5 12 5 16l8 5c3 3 9 1 9-3 0-2 6-6 8-5 3 1 5 9 3 12q-3 6 2 10l2 6q-4 15 1 19 6 8 7-4c0-10 0-11 3-13 6-7 10 2 6 12q-4 5 2 10c8 8 21 2 23-11 1-7-3-18-7-18l-2-2q-5-3-11-4-7-1-8-10c0-13-15-22-27-16-7 3-7 3-12-1q-7-6-12-3m557 7c-6 2-1 14 7 14q10 0 7-11l-1-4h-6zm-34 1q-9 3-10 17 0 10-4 7c-2 0-5-5-5-7 0-5-12-7-15-2-1 3 0 10 2 12l7 3q26 5 25 21-1 9 7 12 9 4 5-2-3-3 1-7c4-8 1-17-5-17-8 0-12-8-6-11 4-2 10-7 10-9l-3-5q-4-6-2-8 2-7-7-4m-457 4c-5 7 5 14 11 8q4-5 0-8-6-4-11 0m473 1 2 5q6 9 6 2c-1-4-8-10-8-7m204 4q-10 5-3 9 9 9 15 1 3-6 0-9-5-5-12-1m-284 0c-14 4-19 18-10 26q8 9-4 7-5-2-7 1c-4 2-2 11 3 11l8 3q3 3 3 0 0-4 2-2l1 3q-1 3 2 8l3 8a13 13 0 0 0 12 12l8 3q7 5 10-9l3-5q3-4 3-8l3-9q5-5-1-12l-2-7-5 2q-10 6-6 17c1 5 1 6-6 12q-8 9-13 1-11-7 4-16c3-2 3-9 0-13q-8-7-3-16 2-5-2-14-1-5-6-3m169 3q-10 10-1 14 7 5 9-4 4-10 0-10-5-3-8 0m-299 0q-4 4 1 7c6 1 8-6 3-7zM3 186c-3 3-1 11 3 11 5 0 9-9 6-12q-4-3-9 1m275 0 1 6c0 7 4 7 4 0q-1-9-5-6m380 1c-4 3-8 11-6 14l2 11 1 10q3 5-3 17-2 4 2 2 4-1 6 2l5 5q7 8-3 11-5 1-1 5t5 1l6-3c8-3 11-16 6-23l-3-7v-4h-5l-6 1c-1 1-6-1-6-3l5-7q7-5 7-10c1-7 1-8-1-12l-2-6q0-9-9-4m-250 4c-4 3-9 13-9 17s5 14 7 17l2 6q0 5 3 10c3 6 2 8-2 17q-3 11-11 10-8 1-8-14l-2-10q-4-8 0-11c5-6-8-7-14-1-6 5-9 19-6 25 2 4 15 17 18 18q8 3 12 13 3 15 10 7 9-4 5-9-7-11-5-14 8-13 21-6 8 7 5 19-1 3 7 8 14 7 15 24l1 7h2c2 0 5-9 4-15q-1-8 7-8l3-3 1-6c2-7-2-23-6-24a18 18 0 0 0-18 18c0 2-5 1-6-1-3-4-2-14 2-18 4-5 2-18-3-26q-4-5-6-5c-6 0-12 7-12 12q-1 8-8 3-4-6 2-14l3-4 3-5c2-1 1-7 0-8q-2-1-2-7c0-6 0-7-3-11q-5-6-1-10c3-5-6-6-11-1m163 1c-10 5-19 21-13 23 3 1 22-1 25-2q9-7 4-17-5-9-16-4m144 1q-7 4-7 10c0 8-6 13-9 9q-4-3-5 0-3 6 3 11l8 16q1 5 6 2t-3-10q-5-4-3-6c1-2 7-3 9-1 5 3 12 3 12 0q-1-3-6-5a4 4 0 1 1 3-7l5-1c2-1 2-8 0-10q-4-4 0-8l2-2h-6zm-370 5q-7 2-12 8c-3 5-3 16 0 21q3 4 1 6-2 7 4 4 27-4 26-26 0-17-19-13m271 6q-9 3-8 15l-1 10q-4 2 0 8c5 7 5 7 14 7q11-1 9-6-1-2 1-6 2-7-1-11-2-4 1-9 4-6-2-7-8-4-13-1m-512 2-5 3-3 2-1 1 2 3q1 5 2 0l1 1c3 4 13-1 13-6q-1-8-9-4m274 6q-4 4 0 6c3 3 12 2 12-2 0-5-8-8-12-4m214 6q-2 2 1 5 8 5 6-4-3-6-7-1m-353 1q-4 7 6 8 6-2 2-8-5-5-8 0m-147 6c-8 3-7 12 1 15q8 4 11-1c5-5 3-12-3-13q-4-3-9-1m484 8-2 2-6 4a12 12 0 0 0-8 9q-3 6-1 9l12 7q10 10 20 3 10-9 2-10-4 0-4-5l-3-8-2-7q-1-7-8-4m167 4c-1 0-1 5 1 7l1 5q1 9 10 5 6-3 1-10-8-10-13-7m-554 6q-10 12-6 21 3 8 9 8l10 3q8 3 10 1 5-4-1-10l-2-4-1-5c-1-15-12-23-19-14m329 1c-12 4-17 17-10 25q5 7 15 4c7-1 7-2 9-14q3-20-14-15m-482 3c-5 4-7 13-4 17 2 2 11 7 16 8 6 1 8 7 3 8q-4 2-19-2l-2 1 9 5 8 6q2 5 8 4 9 1 9-5l2-6q1-3-2-7c-2-5-2-6 2-12q5-6 2-11-3-4-3 3c0 11-8 12-12 2q-2-6-10-11-3-4-7 0m680-1-7 13-2 5c-3 7 6 20 13 20q7 1 6-5-2-4 1-9v-9q-1-9 1-10v-5zm-386 5-7 6c-4 5-1 17 6 21q8 4 0 9-7 6 0 5l13 2q12 3 10-5 1-3-4-7-6-5-4-15 1-5-2-12l-2-5q-2-4-10 1m-88 0q-8 2-10 6l-8 6-4 2 3 6c5 8 5 9 2 13q-5 6 4 5c5 0 15 4 16 7l2 3 1 7q0 12 7 12l3-1c1-1-1-6-2-6l-1-1-1-3q-4-3 3-19l2-7 3-4 2-4 1-6q2-5-6-13c-6-6-6-6-17-3m2 3q-3 2 2 8 4 3 3 11c0 7 0 7 2 8q9 0 10-10c0-8-13-21-17-17m367 5-2 4-4 6q-7 11 5 12 3 0 7 4c4 5 15 11 18 10l7-3 6-3q4-2 4-8l1-7 2-3h-4q-6-1-8 9-5 14-9-4-5-18-11-9c-2 5-8 5-8 1l-1-5q0-6-3-4m-55 10c-3 4 3 12 9 12q8-2 0-8l-4-4zm116 4q-5 4-8 9l-3 6q-7 16 15 16c8-1 8 0 12-11q3-6 0-7l-2-3-1-1-5-9q1-6-8 0m-387 6q-5 4-8 11c-1 2 1 11 3 11 1 0 7 6 7 8q0 5-10 5-6-2-7 2-3 6-1 7l5 9 2 5 4 8c2 7 2 7 14 7h7v-5q-3-10 9-3 10 4 7 11c-1 3-1 3 5 15q3 4 2 7c-3 15-2 18 7 19q11 3 16 24c1 3 8 6 12 6q5 2 9 9l2 9c0 5 0 7-4 15q-3 2 9 11l5 6c1 2 18 11 21 11 5 0 7-12 5-24q0-11-6-3-5 5-8 4l-12-1q-1 1-4-1l-2-2 2-7 2-11q0-9 5-9 15 4 18 0 3 0-2-5c-4-4-4-4-4-10q0-20-11-19-11 3-14 16-1 10-4 10-5 1-5-12c0-7-1-8-4-11-3-5-4-5-1-11 1-5 1-5-2-11q-4-13-9-7-3 3-3 8-1 8-6 7-7 1-4-11c2-10 2-11 0-14q-11-10-2-18c7-6 18-1 18 9q0 6 7 7c6 1 19 6 21 8q5 4 5 11-1 8 11 7 11 0 11-5 0-4 9-4 16 0 12-5-3-2-3-8-3-19-10-17c-5 2-6 4-7 14 0 15-7 19-12 8q-3-5-7-6-14-3-5-8l3-4 2-4c2-6 0-18-3-18l-2-2-2-4c-7-4-16 10-12 19q4 6 0 7-4 2-10-6c-5-5-6-5-11-4q-9 0-7-7l1-6c2-2 2-13 1-15l-2-5c0-8-8-5-12 3q-3 9-11 4a6 6 0 0 0-9 0c-4 2 1 11 6 13 5 1 15 10 15 12 0 6-9 5-15-2q-5-6-11-2h-7q-13-6-5-18 3-3 3-7l3-6q6-6 2-17l-2-5q-1-7-10-3m89 3c-9 1-13 15-6 21 7 7 18 5 19-4q2-17-13-17m210 2c-3 2-4 8-2 9 2 3 8 2 9 0 5-7-2-15-7-9m-394 0c-14 3-22 15-19 27 6 20 41 11 41-10q-1-20-22-17m326 2q-8 4-9 12-1 12-7 8c-8-2-16 0-11 4l3 2 7 5a25 25 0 0 1 10 12l1 3c1 3 4-6 4-11q0-8 8-8 3 1 4-3l2-4v-9l-2-4q-3-10-10-7m89 8q-2 8 10 13 12 4 10 7 1 4-5 6-10 5-2 7 8 0 9-6l2-8q3-7-3-8l-3-2-1-1-7-4-9-7zm-47-1-2 3-3 9q-6 12 1 13 4 0 7-4l6-5q9-3 10-7c0-6-13-12-19-9m-329 8c-4 5-2 12 4 12 4 0 9-5 6-6l-1-3c0-5-7-7-9-3m477 4q-9 7-5 20 5 13 12 10c6-2 9-11 7-16-5-9-5-10-4-12q2-2-1-3-3-2-9 1m-663 2q-10 11 0 23c4 5 6 6 14 7l9 2 8 2 7 2c7 5 8 5 11 4q4-1 3-4a20 20 0 0 0-26-7c-3 0-11-11-12-15q0-4-3-8l-2-6q0-3-5-3zm369-1c-4 6-4 17 0 23q5 7 10 6 7 1 7-7l2-8c3-10-13-21-19-14m-281 1q-13 6-6 13l3 12q2 11 9 12 5 0 6-6l2-7c4-9 3-14-6-23q-3-5-8-1m514 2c-3 2-6 11-6 14 2 8 12 12 18 6 6-5 6-15 1-20-3-2-10-2-13 0m109 1-4 5-2 7c0 8 12 17 17 11l2-3q1-3 2 1l1-10q0-13-1-6t-1 2q-4-12-14-7m-184 8q-4 4-6 9c-3 8-3 10 2 15l10 12q4 4 2 7l-4 7q-2 7-10 6t-7 3q0 4 5 6l4 4q6 6 18 3 15-2 5-9-6-2-6-12c0-5 0-5 4-8q6-3 5-7 0-6 4-9 5-6-2-6-5 1-6-7l-5-11q-4-13-13-3m106-3c-3 4 2 10 8 9q5-3 1-8-4-4-9-1m-206 9-6 6c-5 5-3 14 4 19 6 3 6 3 9-1 4-3 5-11 3-16q-3-7-1-8 2-3-2-4zm-303 7q-5 12-15 16-5 2-5 8 1 5 12 6c9 1 9 1 10-8q0-8 3-14 6-10 0-12-3-1-5 4m82-3-4 1-1 1q-6 2-8 8 0 6-5 10-7 5-9-9 0-5-3-4-3-2-3 7 0 13-7 14-4-1-4-7c2-7-13-17-19-14-10 6-11 29-2 32l3 1 4 1q6 1 1 5l-7 2h-4v10l3 16q5 11-6 11-14 1-7 10 6 7 10 1c6-6 21-8 28-4 9 4 16-5 10-14q-3-5 2-11c7-12-5-24-15-15-4 4-6 15-3 17q3 3-1 5-10-2-9-14 2-17 16-19c11-2 12-3 12-7l2-5q3-4 8 5 1 4 7 4 8 2 10 5 4 6-8 5-9-3-8 8l2 8c0 1 8 1 9-1l9-4 15 7c12 7 13 7 18 6 4 0 14-7 14-9 3-10 3-13 0-21-2-8-2-8-6-8-10 0-18 14-12 22q3 7-2 9c-3 0-9-4-10-8q-2-7-6-9l-3-4-5-8q-6-6-1-12l2-4-2-4q-3-7 3-10l3-3q-1-3-6-4zm274 6q-3 4-10 4l-3-1v5q2 9 8 18 3 6-5 7-4 0-4 4c-1 7-8 6-13-2q-11-17-10-5 1 11-6 14-11 6-2 14c4 4 3 15-1 21q-6 8-2 8c2 0 9-7 13-12 2-3 2-15 1-19q-4-9 0-11 7-1 14 20 0 4 12 9a23 23 0 0 1 12 9q6 6 7 11c1 7 6 8 6 2q0-7 8-6 11 0 5-5-5-4-2-10c1-2 0-11-2-14-3-4-11 0-14 7-2 6-9 4-9-2q-1-6-7-7c-6 0-10-14-5-18 6-7 22-3 22 5q0 4 5 4 3 0 4-6 4-9-3-10t-6-6l-2-6v-7c3-12-6-24-11-15m145 2c-7 3-9 15-3 23l4 7q2 6 9 1c3-2 3-2 3-9s-3-16-5-16l-1-2q0-4-4-5zm-228 5q-3 0 2 5l4 7 6 8 4 6q1 4 4 0 4-10-3-15-5-4-6-8-3-6-11-3m-404 2q0 4 5 4l3 1c0 2 5 1 5 0 0-4-12-8-13-5m583 0-1 1c-5 0-13 7-13 11l11 14 7-7c5-7 4-20-2-20zm104 2q-7 3 0 8 5 3 7-3l1-4q1-3-8-1m-619 2c-5 3-7 17-2 23q6 10-7 4c-5-2-5-2-8-1q-8 3-2 10l3 5 4 6q6 8 13 1 6-5 18-4l10 5 4 7q7 12-3 11l-8 2c-5 1-16 1-20-1-6-4-14 11-8 15q5 5 14-4c4-3 12-5 16-4l8 2q5 0 10 5c2 3 6 14 7 20q0 7 10 6c9 0 9 0 8-8-1-10-1-10-5-10q-9-2-9-11l-2-9q-2-2 1-5 5-4-1-7l-3-5 3-4q6-5 1-14-3-4 0-7 3-4-1-5-6-1-13 4c-5 3-7 4-15 1q-10-2-6-8c3-11-8-24-17-20m637 4-4 7q-2 5-5 7c-5 4-5 4-2 10q8 15 19 1 7-9 1-16-3-4 0-10c1-4-6-3-9 1m-673 2-3 4-2 2c-2 0-1 8 1 11l7 7c3 0 12-13 12-17 0-6-9-10-15-7m560 16c-5 3-8 16-4 20l1 7c0 6 1 6 14 3q9-3 8-7-2-13-8-20-6-8-11-3m-183 8-2 2c-1 0-7 6-9 10l-3 5a16 16 0 0 0 3 16q4 6 12 8 15 2 8 11-5 5-1 7 3 2 5-5l2-5 3-4-2-5-3-8-3-6-7-15v-7q0-12-3-4m231 0q-5 1-9 8-3 5 2 14 2 5-6 5-7-1-2 7l3 11c2 15 10 10 10-5q0-10 8-12c5-1 5-2 5-12l-1-9-2-6-4-1zm88 7c-6 5-6 6-2 11q8 8 7-5v-9zm-350 6 2 4q4 7 5 1 0-7-7-5m168 10q-8 5-2 14 15 20 19 0 2-9-3-9l-1-2c2-4-7-7-13-3m-343 2c-3 3-9 17-9 22s6 14 9 14q5 1 6 5-1 2-6 2c-10 0-14 10-6 14l9 6 3 6 5 9q3 8 7 3 3-4 5 0l9 3 11 4 4 2-1-1-1-10v-8h-12c-13 0-15-1-21-7-3-3-3-10 0-12q4-4 7 4 3 7 11 5 10-2 9-11c0-8-8-15-16-12q-9 1-1-5 8-5 15-1 6 3 10-1 6-7-16-6-16 3-15-12c0-11-10-19-16-13m-124 0c-3 0-3 6 0 6q2 2 4-2a3 3 0 0 0-4-4m196 4c-8 5-11 16-5 19l8 4c6 2 6 2 8 0 3-2 3-11-1-17q-3-5-2-6zm18 3 5 6q1 3 3 1 0-4-6-9-8-5-2 2m386-1c-10 4-12 21-3 28q5 4 4 6c-2 10-2 10 0 10q6 1 16-5 8-6 1-7-5 1-4-8 1-7-2-10-6-9-2-12l1-2zm-691 3c-11 3-15 19-8 26q9 8 20-4c9-9 0-26-12-22m608 0-4 4-1 3q-3 4 6 14 13 12 10-5-2-19-11-16m117 3q-2 2 1 5c3 4 8 0 6-4q-3-3-7-1m-254 3a21 21 0 0 0-7 13q-2 12 8 14 3 0 7 5l7 4c5 0 14-8 14-13q0-3-3-1-6 4-8-5c0-9-11-20-18-17m-378 16q-8 4-7 15 2 14-7 4l-5-2q-17-3-17-10c0-3-16-5-17-2-1 2 16 12 20 12l1 1 3 1q4 0 3 5 0 5 3 8l3 4 6-3 10-2q4 0 6-3t6-5q6-1 4-9c0-3-6-16-7-16zm440 2q-2 1 4 7l1 2 3 4c3 3 4 11 1 13-2 0-1 6 1 7q3 3 7-7 3-9 11-5 12 6 14 2c0-1-6-7-8-7l-2-2-8-5-8-5c-5-5-13-8-16-4m-258 2q-7 2-7 16v9l3-1q9-1 11-5l2-3c3-3 3-12 0-16q-3-4-9 0m120-1q-4 2 12 14 3 2 7-4 4-4-3-6l-9-3q-6-3-7-1m-75 1c-6 2-7 14-2 19q6 6 11 0c11-9 3-24-9-19m280 7q-1 6 2 6 4 0 4-4-1-8-6-2m-85 3c-2 2-5 10-4 12l4 2 5 2q3 4 5 0l3-3c4-1 3-11-1-14q-6-2-12 1m111 0a14 14 0 0 0 8 24q3 4 6-9c1-11-7-20-14-15m-170 1v7l4 7c2 6 8 4 10-3 1-4-12-14-14-11m-30 1q-6 3-8 8c-7 17-7 19 9 27q9 4 8 6 1 5 4 5c2-2 1-16-1-18l-3-7-2-8q-2-2-2-8 1-8-5-5m266 15q-8 7-7 17 3 8 7 9l6 3c5 4 6 4 12 1 8-4 6-15-5-25q-9-10-13-5m-590 4c-1 1 2 7 4 8q2 2 2-3 1-4-3-5zm480 1q-4 2-9 9c-4 8-11 8-11-1q0-3-2-3-3 0-1 4v4c-2 2 6 9 9 8q6 0 9 6 4 7 15 7 11 1 6-5-3-1-1-10v-7l-5-7q-6-9-10-5m-499 5q-5 1-5 10v5l5 1c11 4 17-5 10-13q-4-5-10-3m-17 21q-4 5 3 4 8-1 3-4-2-4-6 0m317 0-9 1q-10 0-4 4 10 10 16-1 5-9-3-4m-208 2c-5 2 3 14 9 14q8-1-1-10-5-6-8-4m-175 4-7 5-5 4q-4 2 4 2 5 0 9-2c3-3 12-3 16 0l8 2h4l-3-4q-3-6-12-8-7-2-14 1m-24 5v6h8l-2-2-2-4-2-3-2-2zm146-2q-29 9 7 8 29 0 19-3l-5-3c-4-2-17-4-21-2"
        mask="url(#16282281824-posters-1720553644717-horizontal-mask)" itemprop="light" fill-opacity="0.90"
        fill-rule="evenodd" stroke="none" fill="url(#16282281824-posters-1720553644717-vertical-light)"></path>
      <!---->
      <path id="16282281824-posters-1720553644717-regular"
        d="M0 19v18l4-3q5-4 7-13C12 18 3 0 1 0zM33 1q0 5 4 6 4-1 5-5c0-3-8-3-9-1m43 2c-2 5 2 13 8 13q2 0-1-6V4q1-5-3-4-3 0-4 3m24 2-2 9q-4 12 11 6 5-4 7 7 1 9 8 10 6 0 3-5-5-11 3-17 6-4 10 3 7 12-3 18-7 4 6 6 14 4 16-15c2-10 2-11-4-17q-4-4-4-7V0h-10l-11 1c0 2-5 7-7 7q-4-1-4-6 2-2-9-2h-10zm71-2c-8 12-8 14-5 20q5 8-5 16c-6 5-12 21-8 25q7 4 7-7 0-7 7-13 9-8 10 1l1 8-1 8q-1 4 1 7 3 5-4 4c-9 1-3 9 7 9q9 0 8 5 0 4-7 3c-9-2-10-2-17 0l-12 1q-11-2-6 11v11q-2 13 4 18c5 6 5 7 0 12q-8 7-14 1-5-5-2-7l4-16-3-6-6-9c-5-6-6-7-12-8q-7 1-7-8-2-16-12-21l-11-2c-10-1-10 0-12-8-4-13-22-12-22 1q0 6 8 10 8 2 5 7c-2 2-2 2-9 2l-10 1c-12 7-4 22 10 18q8-3 8 2c0 4 11 8 13 5l-3-6q-7-11 1-20 9-9 12 2l1 5 1 7q0 8 4 7 8 1 3 12l-4 8q0 7-11 1l-9-3q-5-1-5-6c0-7-7-11-12-6q-2 4 1 10 4 3-1 10-9 14-2 23c5 6 11 7 7 0q-5-7 0-15 7-11 13-1 4 7 1 15-4 9 2 11c9 3 18-4 19-16l3-9q3-2 1-7-2-9 4-16 8-8 9 9l1 10q2 3 1 7t7 7 4 8q0 2-9 2-26 2-26 23c0 10 6 14 7 4q2-15 9-15c5 0 10 9 8 13l-1 6-1 7q-3 2 0 4 8 4 3 13c-4 8 4 27 10 22q1-1-1-5c-3-9 0-21 7-21q9 1 6 14-2 8 6 10c8 2 17-10 15-21-1-5-11-14-17-15q-13-2-9-10 3-7-1-15-4-7 1-8 4 1 3 8 0 7 8 15 11 7 5-3c-8-12 5-37 18-35 17 4 24 24 11 36-2 3-3 3-12 5l-6 3q-3 1 8 6 3 1 4 8 6 15 12 9 2-1-1-5-3-5-2-13c0-6 14-16 21-16 6 0 7 5 2 7q-7 2-3 8c3 6 0 16-6 17q-4 2-1 6 1 3 10 2c13 0 16-2 19-12q3-12 12-11 9 0 9-6 0-7 7-14c5-5 6-6 13-5 8 1 11 8 3 8q-9 0-3 7c3 5 5 23 3 28q-6 10-1 15t12-6c7-10 24-18 29-13q3 3-4 4-10 0-4 8 6 9 4 18-1 4 3 10c7 12 4 28-4 22l-8-14 4-2q7-3-1-7l-10-4q-14-5-8 5l3 4c0 4-11 2-16-3l-9-7q-5-3-1-7 5-7 3-14c-1-3-9-11-13-12-17-7-28 15-13 25q7 4 4 7-4 3-12-5c-7-5-11-6-23-6-11 1-14 0-18-4a8 8 0 1 0-12 12c6 5-1 15-11 17q-9 1-8 4 3 6 11 2c6-2 6-2 11 6 5 9 5 10 1 12-3 1-4 1-12-5q-7-6-15-2-8 5-16-12c-8-16-33-17-47-1q-6 9-2 11l8-7q12-11 21-10 6 2 1 5-6 1 2 10 3 3 2 9-1 7 2 10c3 6-7 10-15 5q-8-4-7 9l-1 6q-3 6 0 8 3 4 7-5 3-8 5-5c1 2 1 2-1 8q-4 11 4 12l4 3c3 8-5 12-13 6l-7-3q-11-3-12-8c0-4-4-13-7-17q-6-8 1-9c12-4 13-14 3-19-7-4-8-5-5-13 5-12-1-26-13-28l-7-1-10-1c-9-1-9-1-8-11v-9l-3-4q-8-11-19-11-7-1-13 6l-4 4v24h4q4 0 3-4-1-14 1-17c6-6 13 2 11 13l-1 5 4 4c9 8 1 17-11 12l-7-2-4-1v10l5 1q21 6 1 23-7 6-6 9-1 5 3 4 7 0 8 6l4 7c4 4 4 4 13 3l1 2c-2 19-2 19-10 11a24 24 0 0 0-14-8l-5-1v11l1 11c2 0 3 5 2 7q-2 7 3 8 5-1 10-9c3-8 9-5 9 5l-2 10q-3 6-11 8-5 2-6 6 1 3-4 10-2 2-2 11v9h3l6 1q7 3 3-6-7-10 6-19 13-13 14 2l2 10c0 7 6 8 10 2 2-4 7-4 7 1q1 6 10 2c8-4 8-4 8 10q1 21 11 16 4-3 5-11c0-2 4-1 4 1 1 3-2 10-4 12l-18 7-5-3-7-4-8-7c-6-8-9-9-18-9-11-1-13 0-19 6q-10 10-7 22 5 11 0 12-3 1-3 5-1 4 4 3 7 0 4 5c-1 3-1 3 2 8 6 8 5 19-2 23q-7 7 4 8c12 0 24-10 24-21 0-5-2-13-4-16-5-7 4-19 13-16q15 4 2 18c-3 4-7 14-7 17 0 2 6 8 7 8q2-1 2-7 3-19 17-22 9-1 4 6-3 4 0 7v7q-3 6 2 8c6 5 6 5-1 8q-9 5-7 15v5h12l12-1c1-4 12-5 13-1q0 2 10 2h8v-2l-2-5q-1-2 7-10c8-8 9-9 14-2q6 9 10 6t0-8q-3-4-3-9l-1-7c-2-5 7-12 16-12q9 0 5 6-2 4-1 10c0 14 6 16 10 5q3-10 7-5 4 2-1 15c-4 9 2 11 9 4s5-20-4-30c-6-6-6-7-3-16q3-5 1-8c-4-8 5-20 14-19q9 2 4 6c-4 4-1 19 5 26q6 7-2 6-6-1-4 10 4 18 13 5 3-6 7-7 9-4 7 1c-4 4-5 19-2 24l2 7q0 7 6 6l9-2c8 0 9-1 12-6q4-8 7-5a18 18 0 0 1 5 14c0 2 0 2 12 2h12v-5c0-11-10-21-22-21l-5-2q-4-4-6 0-6 4-7-3c0-4-10-18-16-20a8 8 0 0 1 3-16q11 0 5-5l-4-2c-3 0-8-8-8-12-1-5 4-21 8-24q7-6 13 2c4 4 5 6 5 14q0 8 7 8c26 0 28 0 25 5q-3 7-13 3l-7-2-5 2q-11 6 0 5 16 0 16 15-1 10-12 9l-6 1-3-5q-4-9-7-4-5 7 5 15c4 2 5 2 16 2 13 0 13 0 13 10q0 8 2 10 7 8 7-4c-2-14 9-26 15-16l4 6q3 2 1 7l-1 8q0 5-3 7l-3 3 5 4 5 5h16c15 0 15 0 13-2-6-5-8-15-5-22 4-8 12-14 14-10 4 6 7 16 7 20q0 5 5 5 4 0 1 5l-3 3c0 2 15 0 19-1h5c3 3 34 3 32 0a6 6 0 1 1 7 0c-2 3 25 3 27 0h4c4 3 52 3 52 1q1-3-5-2-13 1-18-15-4-13 5-19 4-2 4-5 3-5 8-3 6 2 1 9-3 6 2 6 3 1 3 9l1 11 2 8c0 2 1 2 12 2l11-1-3-4q-4-5 2-8l4-5q3-14 15-15c4 1 4 0 2 7l1 5q4 4 5 14l1 7h35c35 0 36 0 36-2q1-4 6-3 8 1 8-5c0-6 7-17 11-17q4 2 6 5l3 5q4 5 1 13v4h19v-3q3-15-6-27-6-6-1-12 3-3 3-12c1-8 1-9 3-11q8-5 12 5c1 5 0 7-6 14q-5 6-5 9 2 7 6 4 2-5 5 4 2 7 7 10 15 11 2 17l-4 2h49l2-4q4-9 11-11c3-1 3-8-1-10q-4-3-5-7 0-5-4-10c-2-3-6-12-6-15q0-3 8 4c10 8 15 2 6-8l-7-9v-2l3 3 4 3 1 1 2 2c3 2 2-11-2-16q-5-7 1-17c3-8 3-17-1-18q-4-2-7-7 0-5 7-9l2-1 1 8 1-49-1-55q0 4-3 7l-2 3-5-6q-6-7-7-6l-4 1c-7 0-10 8-6 13 4 4 3 12-2 12l-13-15q0-3 8-7l8-6q4-4 7-2 8 4 7-6 0-12 8-12l4-1v-43q1 12-8 7-6-2-1-7 3-1 3-10c0-8 0-8 3-11l3-3v-15q1-15-2-16l-1-6q-1-14-16-22-9-4-3-9 5-6 12 1 9 7 10-1l-1-5c-5-1-5-12 0-15a247 247 0 0 0 0-59l1-17V13l-4 2c-9 5-16-2-11-11l2-4h-13l-12 1q0 7-4 7-6 0-6 6l2 10q0 13 8 4 5-8 10 3c3 6 2 8-2 16l-5 17-1 3-1 2q-1 6-7 7-7 0-7-10l1-6 6-1q11 1 3-6l-5-7-4-4-3 5q-2 7-9 1c-8-6-8-6-2-12q16-14 6-31l-2-5h-20l-1 3q-1 4 3 9l3 7 3 4q8 5-4 13l-12 6q-7 0-16 7-6 7-8 3c-4-2-8-12-9-20q1-11-6-12l-5-4-7-8-5-7-3-1q-6-2 0 7 4 10-1 7t-7-11V0h-9q-14 0-4 3c7 2 7 2 11 10l8 11q10 10-2 13-6 2-7-1l-3-4v-3c0-3-12-20-16-21-8-4-25 1-31 7q-5 7-11-2-5-7-1-10 5-4-10-3h-12l-1 4v16c0 7 0 8 3 12q5 9-7 8h-5v4q-1 11-9 12-10-1-11-14 0-3-3-7-10-12 1-9l6 2q3 3 5-5c1-9 8-21 12-21l1-1-7-1q-8 0-7 2-1 5-11 6-7 0-10 8c-2 5-3 5-13 5l-13 2q-10 6-16-8c-3-6 6-8 17-4 13 5 21 2 10-3l-8-5c-3-5-22-3-22 2q-1 3-6 0-3-1-3-3c0-2-1-2-23-2h-22v9q1 15 4 13 4 2 6-5c5-9 15-13 20-8 9 8 10 21 3 29-1 2-2 17-1 27q1 8 9 13c2 2 2 2 1 8q-2 11 6 16 9 5 5-6-4-8 0-14 4-5 10 3 9 7 6 14-1 9 4 13 6 3 2 10c-3 6-12 5-18-2q-9-10-9 9l1 7 4 2c6 1 16 11 18 16q2 11-6 18-4 3-4 7c-3 17-4 18-12 10a23 23 0 0 0-34-3q-6 7-13 5-7 0-10 2l-5 2-7-4q-12-6-4-8 10-3 4-10l-2-5-3-5q-7-7-8 4 1 8-5 2l-10-5-6-4q-7-8-14-8-9-1-7-7 3-5 11-2l6 2c3 0 10 6 10 8 0 1 7 4 10 4 7 0 12-13 5-17-2-1-9 0-13 1-5 2-17-4-21-10q-2-5-9-8l-11-7c-9-7-28-5-39 3-6 5-7 5-12-2-2-5-9-11-11-11q-5-1 0-9 8-18 3-28-4-9 5-3 10 6 15-1l6-4q9-2-2-8-14-9-8-26c4-11 22-19 23-11l2 9 2 7-3 5-3 11q-1 12 9 11 15 1 9 7l-4 2h-4l-3-1q-12-4-14 6-1 5-6 6-8 0-11 12-2 10 11 11 3 0 7-4l4-4 4 4q14 12 8-2-5-11 6-20c9-7 24-5 17 2q-5 4-2 10 3 4 0 10c-1 6-1 6 6 15l4 9q2 7 11 9 8-1 3-6c-8-5-7-20 2-22q4 1 9-5l8-4c7 0 11 6 6 10q-3 1-1 7 2 9-1 14-5 9 0 12l4 2 4 4q4 9 10 2c5-7 13-7 13-1l2 6q3 4 0 13c-3 14 9 26 15 15l3-5c0-1 6-8 8-8l1 1c0 2 7 8 9 8q6 0 2-9l-2-12q1-10-6-6-7 3-10-4-4-9-24-11-11-1-9-6 0-5 8-4 9 3 2-5c-5-6-5-9 1-17q5-7 11 0 7 7 2 14c-4 4-4 4 1 8l4 8q0 7 11 7 7 0 4-6-4-5 2-11c8-10 6-24-4-29q-19-10-33 2-9 8-16 0-13-9-24-3c-7 3-8 3-12-5q-6-9 5-8 15-1 7-12-5-6-12-3-8 3-6-4 1-6-8-10-16-9-12-28 4-17-6-20-6 0-3 4v5q-2 6-11 1-4-2-13-2c-10 0-11-1-12-5V0h-12c-10 0-11 0-14 2q-2 3-7 1c-6-1-9-1-17 4-8 4-10 4-14-1l-4-5-10-1h-9zm143-2c-2 3-2 22 0 24 2 3 9 0 9-4q2-4 6-6c2 0 7 6 10 10l1 12c0 10 0 10 2 13l5 3c2 0 6 6 5 9-1 6 7 20 11 20q4 0 1-7c-6-12-2-28 9-30 8-2 16 12 14 24-1 6-1 6 1 8 7 8 20 0 23-14 3-12-16-27-35-27q-8 0-8-7-1-5-5-10c-8-10-10-12-19-13q-5-1-7-4c-2-3-21-3-23-1m346 3-7 5q-9 4 3 4 7 0 10 6 4 15 9 10c2-2 2-2 0-8q-4-12 1-18 7-4-5-3h-8zM178 5q-5 4-5 12c0 7 8 11 13 5q7-6 3-11-4-10-11-6m194 1c-2 2 0 19 1 20 5 1 8-11 4-18q-3-5-5-2M209 18q-14 15 1 28l5 3 9-1h9l3-5q4-6 3-11-2-4-4 1-3 6-8 8-4 2-4-8 1-6-2-10l-2-7q-1-6-10 2M45 15c-12 1-20 19-13 30q4 6 8 5 5 1 0-5-3-3-3-7c0-4 5-13 7-13 5-2 12 6 11 12q-2 13 16 4c10-6 11-6 3-15-9-11-12-13-29-11m525 1-11 13q-3 8 3 15 3 5-3 5-7 0-4 5l1 10 1 6-6 5c-7 6-7 7-3 13q3 4 2 7 0 8 5 11l6 4c5 4 5 4 8 1q8-6-3-11-10-4-11-20v-7l5-5c7-8 8-10 9-14l1-3h16v-3q0-4 7-7t7-7q0-9-7-3-10 9-10-2 0-17-13-13M21 20q-2 3 3 5a3 3 0 1 0-3-5m330 6c-3 2-1 12 2 12 4 0 6-10 2-13q-3-2-4 1M94 30c-2 2-2 10 0 15q3 4 6-4 5-18-6-11m378 2 2 3q4 4 6 15 1 11 5 3c5-7 4-10-3-17q-9-9-10-4m-180 4-1 3-2 7q-4 6-1 6c4 1 11-12 8-16q-3-3-4 0m159 0q-4 4-7 18-2 6-7 0-3-6-8-3-3 3 0 14l2 7q1 6 7 2c10-5 24-5 29 1q11 10 9 19-2 11 6 11 4 1 7 5c7 11 9 12 19 7l6-2-2-3q-3-2-1-8 0-9-4-14-2-2 1-4 5-6-4-7-11 0-16 13c-1 5-8 2-7-4 1-4 10-12 15-13q20-5 6-11c-6-4-8-4-14 1-6 6-8 6-14 6q-7 0-4-13c3-13-12-31-19-22m302 1-2 6v4c2 3 8-7 6-11q-2-4-4 1M12 44q-6 5 0 9 4 6 10 0a7 7 0 1 0-10-9m605 3c-4 3-5 8-5 24-1 14-2 18-8 26q-8 9 1 14 14 8 6 22-5 11 6 11c8 2 12-10 6-20-5-9-6-11-6-15q1-13 9 3 3 12 15 11 7 0 10 2 7 6 9 2 6-5 0-6-6-2-2-10 3-5 1-6c-2-1-2-1-8 6q-13 13-9-2c6-13-2-25-13-21-8 2-8 2-9 0-2-3-3-15-2-17h7c12 0 13-12 3-23q-6-6-11-1m-91 4c-8 6-10 16-6 21l4 7q1 11 7 6l3-4 7-9 6-6v-5c0-12-11-17-21-10m152-2c-6 2-14 12-16 19-2 13 23 26 35 17q15-12 10-20-4-3-4 2c0 7-6 7-9 1l-5-8-3-6q-1-4-5-6zm-467 8c-10 1-18 22-12 32 3 7 16 13 22 10q3-3 1-8-3-1-2-10l-1-11q-4-5 0-7 5-2 2-5-1-3-10-1m-80 3c-6 6-2 15 6 15q9-1 11-10c0-7-11-11-17-5m616-1c-6 3-10 13-7 19l5 9c5 10 12 15 13 9q1-5 4-7 7-2 4-6l-1-11q-2-19-18-13m-172 4c-4 3-6 5-10 15q-7 18 19 19c19 0 24-27 7-35q-9-5-16 1M1 67q-1 5 3 4l2 1a38 38 0 0 1 2 22q1 5-3 6-10 7 3 8c13 0 24-17 18-30-5-12-5-12-12-14-12-2-13-2-13 3m647 6v6q5 1 6-3-1-6-6-3m72 11c-6 2-15 7-16 10v8q4 14-3 20-4 5-1 15 4 6 3 16c0 9 0 12 3 20l2 10q-3 5-11-9l-3-4h-7q-16 1-8-14 5-11-2-16l-3-5c-1-7-12-3-15 6l-3 6q-3 4 2 10l5 10q4 7 12 7 6 0 11 8c3 7 10 15 12 15l9-7 8-7q3-1 0-12-4-7-2-10 3-11 10 7 5 11 10 12c3-1 8-10 8-14l1-7c3-5-4-10-11-9q-6 1-5-8 3-14-6-2-5 9-8 6v-6l4-11c2-8 2-8 11-6q10 3 16-9l3-9q-2-3-6 3c-4 9-12 9-10-1l-1-7q-4-7 1-9c5-5-1-9-10-7M165 98q-12 10-9 25 1 7 10 10 10 4 10-6l2-8q1-6-4-12-6-4 0-7c5-6-1-7-9-2m512 1c-9 8-8 20 3 23q17 5 17-10c0-12-12-19-20-13m-479 1q-3 2 2 7c2 1 8 0 8-2 0-3-8-7-10-5m-10 12-1 15q2 0 5-8c0-5-3-10-4-7m23 2q-4 3-5 9l-3 5-2 3q-3 6 6 13 9 8-1 10c-7 2-13 13-8 16q10 4 9-6c-1-7 7-10 14-7q6 3 1 12c-4 6-4 6 0 10q3 4 9 3h5l3-5c8-11 3-24-8-24q-16 0-7-12c6-8 6-11-2-28q-4-5-11 1m326-2-6 6q-5 6-8 5-18 2-1 18c4 3 4 3 4 8l-1 7q-4 6 14 6c12 1 12 1 14-3q4-9-8-10-12-2-13-7 0-2 7-5 11-4 6-13l-2-8q2-6-6-4m43 1q-7 5-9 15l-3 7q-5 8 7 14l4 4q6 7 8-2l2-6 2-8 1-8c3-8-6-20-12-16m-104 2c-3 2-3 9-1 10q10 3 9-8-2-6-8-2m-205 5q-7 3-9 15 0 8 11 21l3 5c0 2 6 8 8 8 6 0 9-9 5-16l-2-9-4-11q-5-9 1-8 6-2 2-5-5-4-15 0m-247 1a10 10 0 1 0 13 3q-4-8-13-3m213 4q-2 5 1 11h4c3-4 2-13-2-13zm399 7q-6 6-1 12 5 3 9-6c2-5-4-9-8-6m-167 4q-3 6 5 8 6-1 8-7c0-3-10-4-13-1m22 9c-12 5-14 18-3 21l3 1c0 3 7 8 11 8 7 0 13-7 12-13q-1-2 1-8v-8c-4-4-15-5-24-1m-243 0q-4 5 2 12l7 4q8-1 0-12-5-9-9-4m-233 2q-3 5 2 6 7-1 4-5-3-3-6-1m25 4q-4 4 0 7 6 3 8-4 0-7-8-3m556 3c-10 7-11 24-2 36l4 7c3 6 11 5 11-1l3-6c6-7 5-22-2-30l-6-6q-2-4-8 0m-294 8q-7 6-7 17c1 7 2 8 8 12l8 5c6 7 13 7 8 0q-2-3-2-13c0-9-1-11-3-14l-2-6q-1-6-10-1M8 163c-7 3-4 11 6 15q5 2 7 5c4 3 4 3 9-4q7-8 10-3 4 7 1 13c-1 4-1 3 4 10q2 1-1 10-2 10 3 13 5 6 5-5c-1-12 5-19 11-13q4 3 0 11-5 8 1 12 5 6 15 1 8-3 7-17t-18-18q-10-2-9-10c0-13-16-23-27-17q-8 5-9 2-8-9-15-5m638 0c-4 2-4 8-1 9q6 3 7-4 0-7-6-5m-77 5q-9 0-7 7a9 9 0 0 0 18 0q1-10-11-7m-38 1q-11 4-11 19 1 7-2 6-2 1-5-6t-10-6q-8-1-6 9-1 8 9 9 23 5 25 21c0 9 1 9 5 12q12 5 7-2-2-3 1-7c2-3 3-12 1-15q-2-2-8-3c-6-1-9-9-3-9l5-4q7-5 1-13-5-6-1-7c3-4-3-6-8-4m-456 5q-4 4 0 7 6 5 10-1c3-6-5-11-10-6m471 0c0 2 4 8 6 10q5 4 3-3c-1-4-9-10-9-7m209 3c-4 1-10 5-10 7 0 5 9 11 14 9 7-4 8-12 2-15l-4-2zm-289 1c-14 5-19 20-10 27q8 7-3 6-10-1-10 6 0 6 8 9c10 3 12 5 15 16 4 12 4 12 12 14l11 4q5 5 9-6l5-10 2-8 2-7q4-5 0-14l-2-5c0-4-8 0-12 5-2 3-2 5-1 16q3 3-5 8-8 9-14 1-7-7 3-12 9-7 1-17-6-7-1-17c2-3-1-11-4-15q0-3-6-1m168 6c-7 8-1 16 8 14 3-2 6-14 3-17q-6-5-11 3m-298-1q-3 4-1 6c2 2 8 0 9-2 3-5-5-8-8-4M5 185c-5 2-5 9 1 11 4 1 9-6 5-10q-1-3-6-1m272 1 1 7q3 10 5 0c1-5-3-11-6-7m379 1q-6 6-4 17l1 10 1 8c2 5 2 6-1 12-3 9-3 9 1 8q4 0 6 2l5 6q6 5-3 8-5 0-3 5 2 6 12 0c9-3 13-16 8-24l-4-8q0-6-9-3-12 3-2-8 5-5 6-10c2-7 2-7-1-13q-2-5-1-7c1-5-7-7-12-3m-243 1a23 23 0 0 0-8 37q4 4 3 7-2 3 1 6 6 14-5 27c-7 8-16-1-13-14l-2-8q-6-7-1-10 5-4-3-5-8-2-13 4c-5 6-7 18-5 24 2 4 15 17 19 19q9 5 11 14l3 8 3 2 5-3c7-5 8-6 4-13-5-7-5-9-2-14a14 14 0 0 1 24 12q-1 11 5 11a32 32 0 0 1 17 23q0 11 2 10 4 1 5-12l1-9 4-1c4-2 5-2 7-11q2-10-2-15l-2-5q-1-7-9-3-10 5-11 12 0 8-5 5c-5-3-4-16 1-20q2 0 2-10c-1-8-1-9-5-15q-6-10-10-5-7 3-9 10 0 7-5 5-10-2 2-18 7-9 4-13l-2-8q-1-8-4-11-5-5-1-8 5-5-6-5m163 2c-10 2-19 12-20 20q0 9 8 6l11-1 9-2c11-7 4-26-8-23m139 2q-7 4-8 13-1 10-8 5h-4q-6 6 0 12 5 4 9 15 3 9 8 5 5-5-3-12a4 4 0 1 1 4-6l5 3q13 1 4-8-9-6 2-7 10-1 4-11l-2-4 2-3q4-3 1-3-6-2-14 1m-378 9c-7 6-10 17-5 25q4 7 1 9c-6 3 7 4 17 0 13-4 19-26 10-35-4-5-16-4-23 1m278 3q-9 2-7 15 1 8-2 9-3 4 2 11c6 8 22 7 23-1l1-10-1-9q-3-3 0-7c6-7-5-13-16-8m-511 2c-7 3-5 11 2 11 2 0 7-5 7-7q-1-6-9-4m274 6q-7 7 6 8 7 0 7-4c0-5-10-8-13-4m215 5q-4 4 1 7c5 4 8-1 4-7q-1-3-5 0m-354 1c-4 3-1 10 4 10q7 0 6-4c0-6-6-9-10-6m-147 8q-8 4-1 12 7 6 12 1c8-7 0-16-11-13m484 7q-3 0-3 2l-5 3-6 5-3 5q-6 8 3 11l8 5q9 9 15 7c11-6 16-14 9-14q-5 0-5-6l-2-7-2-8q-1-8-9-3m168 3q-4 1-1 8l2 7c0 7 9 7 13 1q3-6-7-14-3-4-7-2m-552 3c-5 2-10 12-10 19q-1 12 10 14l10 4c11 3 17-2 10-11q-3-3-3-7c0-11-10-22-17-19m324 5c-18 8-13 33 6 30 8-1 8-2 10-11 3-12 2-13-1-17q-5-6-15-2m201 1q-3 2-10 18-4 6 2 14c7 10 19 11 17 1l2-8v-9q-2-6 1-9 2-4-1-6-5-3-11-1m-683 3c-9 9-3 20 13 24q7 2 7 5-1 5-16 2l-8-1c0 2 9 8 11 8s7 5 7 7 14 2 16 0c2-3 2-15 1-17q-4-6 1-11 5-7 2-13-4-4-3 4c1 10-9 11-12 1 0-4-10-12-13-12zm212 1-8 3q-4 1-7 5l-7 5q-7 2-2 8 6 8 2 14-5 6 4 6 19 1 20 19 0 10 7 9 8 1 1-8-4-4-3-10l9-23c2-2 4-9 4-13q1-3-6-10c-7-6-8-7-14-5m84 1c-11 6-12 22-2 28q7 4 0 8-8 7 6 7l11 2c9 2 12-8 4-13q-6-4-4-14c1-6 0-6-2-12l-3-7c0-2-6-1-10 1m-85 4q-3 2 2 8 3 2 2 9 1 15 9 6c5-4 1-16-8-22q-5-3-5-1m366 5c-12 17-12 21-2 22q5 1 9 6 4 4 10 6l6 3a69 69 0 0 0 21-11l-1-1q-2-4 1-12l-5-1q-7 1-8 11 0 4-4 3-3 1-4-9c-1-11-7-17-11-10q-6 9-8-2 0-9-4-5m-56 10c-4 4 6 14 12 12q6-2-2-9-7-6-10-3m118 3c-6 3-6 3-11 13s-5 11-2 14c4 6 19 8 23 5 2-2 7-15 6-16l-4-7-4-8q-1-7-8-1m-390 8q-13 11-2 23 9 7 2 10h-5q-6-3-9 3l-2 5 3 4 3 6 3 6 3 7 2 6 2 3h8q14 1 10-6-3-9 8-3c8 4 8 4 7 11 0 4 0 5 3 12l4 7-1 8c-1 12 0 14 9 15 6 1 13 10 14 19q2 9 10 10c12 1 18 15 12 28-3 8-2 9 3 12l7 7 8 8c18 8 18 8 21 2a33 33 0 0 0 0-23q0-9-6-1l-4 4h-9c-13-1-13-1-11-9l2-11q0-12 8-8c5 3 17 0 17-4l-2-2q-5-3-5-12c1-9-3-18-8-18q-16-2-19 20-2 8-5 4-2 0-2-10 0-7-3-10c-5-7-5-7-4-11q4-7-3-18-7-8-11 7-2 9-6 6c-4-2-5-3-2-12l2-8-3-4q-10-12-1-18c7-6 15-1 16 10q0 6 10 7l8 3 5 1q7 2 10 11c1 11 2 12 13 11q10 0 10-5 1-5 10-4 16 0 11-6l-3-9q-3-16-7-17-11-1-11 17-2 19-11 6-2-7-11-7c-4 0-5-5 0-7a23 23 0 0 0-4-33c-8-2-15 12-10 21v5q-3 3-10-4c-6-6-6-6-11-6-8 0-9-1-6-11s3-11 0-16l-2-7c0-6-9-3-12 4q-3 9-11 4c-4-2-4-2-8-1q-10 6 9 18 14 8 8 12c-2 2-9-2-12-6q-3-6-11-2h-8q-12-5-3-17l3-7q-1-1 2-6 8-7 2-18-4-14-14-6m91 1c-16 3-12 27 4 27 9 0 13-9 8-19q-4-10-12-8m-221 2a4 4 0 1 0 7 4 4 4 0 0 0-7-4m432-1c-4 2-6 9-3 12 6 6 16-4 10-11q-2-3-7-1m-394 1c-17 3-27 22-18 34s35 4 39-11q3-26-21-23m322 4q-6 5-7 12 1 9-8 6-17-2-8 7l4 3 6 3q9 6 10 21 2 12 6 20 4 7-2 7-6-1-6 6c-1 6-9 3-13-5q-8-15-10-1 1 10-7 12-10 5 0 15c3 4 2 15-2 21q-9 14 6 2 13-12 7-27-3-8 0-9 5-2 6 4l4 7 3 8c2 5 3 6 12 9l9 5 4 4q5 5 6 13c2 6 7 6 7 1q0-7 8-6 12 0 5-6-3-4-2-6c1-4 1-15-1-17q-7-8-16 6-3 7-8-3 0-4-6-6-7-3-8-9c-4-13 17-17 23-4q5 10 10 1c3-6 3-13 0-13q-7-1-8-6l-2-5v-10c1-14-7-23-13-13-4 6-13 4-9-2l2-9q-1-10 6-9 5 1 6-5 4-9 0-13l-1-4c0-6-7-9-13-5m44 6-2 5-4 9c-5 10 2 16 10 8l9-6q14-8 0-16-9-4-13 0m47 0q-3 10 14 16 12 7 1 10-5 2-5 6c0 5 12 3 13-3l3-7c2-7 1-8-5-12l-11-7q-9-8-10-3m-376 8q-3 6 0 11c5 5 13 1 12-6q-5-11-12-5m-184 4c-14 10-5 32 12 32q5 0 10 3l8 2 9 3q7 7 10 2 9-6-7-13c-7-2-8-2-12-1q-8 3-9 0l-2-4-5-7-3-10-2-5q-1-6-9-2m369 0c-11 12-1 35 13 31 5-2 8-19 4-24-5-7-14-11-17-7m292 0q-10 9-3 24c8 16 24 4 17-13q-3-6-2-9v-4h-4zm-575 1c-7 3-10 10-7 13q5 6 5 14c0 11 14 16 16 5l2-8q5-10-2-17c-7-9-8-9-14-7m516 1c-3 2-7 10-7 15 0 10 14 14 20 6 8-11-2-27-13-21m108 3c-5 3-8 11-6 16 1 3 10 10 13 10l5-3 3-2 1-10-1-7q-1 4-1 1-5-11-14-5m-180 4c-3 0-10 9-11 13-2 8-2 10 3 16l7 9 3 3q3 1-1 10c-4 8-5 9-11 8q-7-2-8 3-1 4 9 11 12 8 25 3 8-3 0-8c-5-4-6-5-7-11 0-5 0-6 7-11l2-6q0-4 4-8 8-8-4-8-3 0-3-4l-5-12q-3-11-10-8m101 1c-3 4 3 10 8 9q7-3 4-8c-3-2-10-3-12-1m-206 10q-13 11-7 18 4 6 11 8c6 2 11-12 7-20q-3-3 0-6v-5q-3-3-11 5m-300 3-3 4q-5 9-14 14-7 4-5 9 0 5 13 7 11 3 9-8 0-9 5-17c4-7 0-15-5-9m81-1q-14 2-15 13c-3 11-12 11-12-1q0-6-5-6-2 1-2 10c0 5-4 12-7 12q-3 1-3-6-2-10-9-12l-5-2q-9-6-14 11c-4 12 2 23 13 23l3 1q0 4-8 5c-6 0-7 2-5 15l3 12q5 11-6 9-14 2-7 13 5 7 11 0 12-9 28-3c9 3 16-8 10-16q-4-2 1-9c3-4 3-15 0-18-10-7-24 8-19 19q3 8-5 1-4-2-3-8 0-20 19-21 9-1 9-8 2-9 8 0 3 6 7 6l7 2c8 4 3 9-5 6q-9-3-8 9 1 16 13 7c6-4 9-3 23 4 15 8 20 8 28 1 6-5 9-16 7-22l-3-8q-1-7-9-4c-9 3-14 14-10 23q3 7-1 7-6 0-10-10l-5-7-4-4-4-6q-5-5-1-13l2-4-2-4q-4-6 3-10c6-4 0-9-8-7m418 9q-13 7-3 25l3 5c0 2 5 4 7 3q14-5 3-26-6-13-10-7m-227 4q-5 1 0 7l5 7 6 8 4 7q1 6 5-5c2-6 2-7-5-14l-5-6q-1-7-10-4m-404 1q-3 4 3 6 9 4 10 0c-1-2-12-8-13-6m579 3q-18 6-6 19 6 10 12 1c5-6 7-16 3-20-3-3-2-3-9 0m107 0q-8 3-2 8 8 7 11-5 1-7-9-3m-618 2c-6 3-9 19-4 25q6 8-5 3c-7-4-7-4-11 0q-6 4 0 10l3 6 8 9q3 3 11-5c4-3 17-3 22 0 3 2 10 13 10 16q-1 4-6 4-2-1-6 1-8 2-19 0l-6-1-3 3c-9 10 0 20 11 12 7-5 9-6 16-6s16 2 18 5q6 9 8 18c3 10 3 10 11 10q10 1 9-8 0-11-4-12-12-1-11-12l-1-7q-2-2 2-7 2-2-2-5-6-4 1-10c3-5 3-6-1-13l-2-4 2-3c5-7-4-9-14-2q-7 6-12 3l-5-2q-5-1-3-7 1-12-10-20-3-3-7-1m638 2c-2 1-6 8-7 10q-1 4-4 6c-7 6-3 17 7 19 9 2 19-17 12-23q-3-2-1-11c1-2-5-3-7-1m-675 4a15 15 0 0 0 3 26l10-10c6-10-2-20-13-16m63 3c-1 2 2 7 4 7q5-2 3-6-3-3-7-1m497 13q-9 9-5 21 2 5 1 7-2 6 9 5 17-3 14-10l-2-7q0-7-7-14-5-7-10-2m-183 7q0 3-4 5l-5 5c-12 13-6 29 12 34q13 3 6 9-5 6-2 9 5 3 8-8l2-4q2-3-1-10l-3-6-5-12c-4-8-4-10-4-16q0-12-4-6m226 3q-9 9-3 20 3 5-4 5-9 0-4 7l3 12 2 9c4 4 10-4 10-14q0-11 7-11a7 7 0 0 0 6-7q2-10-1-13l-2-6q-1-3-4-3-6-2-10 1m-257 11q-3 1 2 6 3 5 5 1 2-9-7-7m169 10q-11 8-1 18 11 14 16 2 4-9 1-13l-2-4c1-4-10-6-14-3m-469 3c-3 2-2 7 1 7q7-2 4-8-2-2-5 1m198 3c-8 3-12 14-8 19l4 2 7 3 5 3 3-2q5-8-1-17l-2-6q1-5-8-2m15 3 5 6q5 7 5 1c0-4-6-10-11-10q-3-1 1 3m387 0c-10 5-12 19-3 28l4 4-1 5q-2 8 4 8c3 0 15-5 17-8q4-5-1-5-5 1-5-8 0-6-3-13l-3-6 2-2c6-4-4-7-11-3m-692 3c-9 3-13 18-7 26q8 8 18-1 8-4 7-13 0-8-8-12c-4-2-4-2-10 0m609 0q-3 1-3 3l-2 3q-3 4 5 13c8 10 15 11 13 2l-1-8q0-9-7-14-2-2-5 1m118 2q-3 4 2 8a5 5 0 1 0-2-8m-255 4c-2 0-6 8-6 10l-1 3c-4 2 2 13 9 15l7 4q10 10 19-4c4-6 3-11-1-6q-6 4-7-5c0-10-13-20-20-17m-70 1c-2 2 2 8 6 8q4 0-1-6-5-4-5-2m-309 16q-8 7-5 15 2 10-6 4l-8-4q-11-2-14-8c-2-4-3-5-13-4q-16 0 12 12l10 5v4q0 5 3 8c2 3 3 4 11 0l8-1 6-3 6-5q7-4 4-13-6-20-14-10m443-1q-5 2 7 16l3 3-1 5q-4 10 0 12t7-7 9-6c7 5 17 6 17 2l-7-7-4-2-7-5-9-6q-10-8-15-5m-259 3q-8 3-8 17l1 9c1 2 14-3 15-6l2-3c3-3 3-12-1-16-4-3-4-4-9-1m119-1q-3 3 3 7l7 6c5 5 5 5 9 0q7-7-3-9l-10-4zm-75 2c-8 4-4 23 4 23 7 0 15-13 11-19q-6-9-15-4m281 6q-2 7 1 8c5 1 8-6 4-9q-3-4-5 1m-84 3c-7 3-8 16-1 15l4 2q4 6 6 1l4-3q5-5 0-14c-2-3-9-3-13-1m110 0c-4 3-6 14-4 16l2 3c3 5 13 9 14 5q4-12 2-16c-2-7-10-11-14-8m-171 1q-2 3 1 8l2 5c3 9 12 7 12-2 0-5-12-14-15-11m-32 3c-4 3-11 16-11 22q2 4 14 12 9 5 9 7 0 3 3 4c4 0 4-14 0-18l-2-6-2-8q-2-2-2-9 1-6-2-6zm-120 10c0 3 9 13 11 12q2-3-5-8l-2-3-2-1zm390 3c-11 5-12 23-1 27l6 4c5 4 6 4 11 1 6-3 6-4 5-12-1-7-1-8-8-14q-9-10-13-6m-592 4c-2 2 3 10 6 10 3-1 2-8-2-10zm476 4-5 8q-6 9-10-2c-1-4-5-5-4-1v5c0 5 7 11 10 11q5-2 8 4 4 8 16 7 13 1 6-5-2-3-1-5 3-10-4-19-10-10-16-3m-493 2q-8 3-6 13c1 5 9 8 15 4 8-4 0-20-9-17m-16 20q-10 7 0 7 7 0 6-3-1-5-6-4m315 1-8 1q-16 1 0 9 8 5 11-4 6-11-3-6m-208 7c0 7 11 14 12 7l-4-7q-8-7-8 0m-176 1-8 6-4 4h5q6 0 7-2 8-7 19 0l7 2h3l-3-5c-5-7-17-9-26-5m119 5c-12 5-12 5 11 5l20-1-5-3q-13-7-26-1"
        mask="url(#16282281824-posters-1720553644717-radial-mask)" itemprop="regular" fill-opacity="0.90"
        fill-rule="evenodd" stroke="none" fill="url(#16282281824-posters-1720553644717-horizontal-regular)"></path>
      <!---->
      <path id="16282281824-posters-1720553644717-medium"
        d="M0 18v18l4-3c3-2 7-9 7-13 0-3-5-14-9-17L0 0zM33 2q2 6 8 2 3-4-3-4-5 0-5 2m44 0c-2 4 0 11 4 13q5 0 2-4l-1-7q1-5-2-4-3 0-3 2m24 3-2 9q-6 11 8 6 9-3 9 5 2 11 9 11 4 0 1-5c-4-5-1-14 5-17 10-6 17 13 8 21q-6 4 1 6 16 5 19-12c2-10 1-13-3-18q-5-4-5-8l-1-3h-10l-9 1q-2 5-8 7-4 0-4-4l-1-4h-17zm70-1c-7 10-7 13-4 20q3 4 1 7c-1 3-6 9-8 9-3 0-9 19-7 22q4 6 6-4c1-9 8-18 14-18q4 0 4 4l1 6q2 2-1 13l1 5q4 5-4 5t-2 4q3 4 10 3 10 1 6 8-2 3-6 1-7-2-16 1l-12 1c-6-1-6-1-8 2q-2 3 1 6l1 12q-1 15 3 19c6 6 6 6 0 12q-7 9-13 2c-5-4-5-5-2-14q5-11-1-17l-7-9q-4-5-8-5-9-1-9-10-1-23-25-22c-8 0-8 0-11-8q-1-7-8-9a9 9 0 0 0-7 17l5 2q5 3 2 8 0 3-9 2c-8 0-9 0-12 3q-7 7 2 13c4 2 5 2 12 0q6 0 7 5l6 4q9 2 2-6-6-11 2-21 12-9 14 14 0 9 5 8 8 2 2 12l-4 9q0 7-11 1l-9-4q-6-1-6-8 1-4-2-5-12-3-8 8 5 8-1 15-8 13-1 21 8 9 5 0c-6-12 5-28 13-18q7 7 3 16-4 10 2 11 8 3 13-4c3-3 4-4 4-12l3-8q2-2 1-7-2-11 6-18 3-4 6 0t3 12v6l2 8c0 6 1 6 4 8q8 1 7 6 1 7-10 6c-7 0-17 3-20 7q-8 10-5 20 4 11 6-4 3-16 13-11 4 2 4 5c1 3 0 17-2 20q-2 2 1 4l3 2v11c-3 2 0 17 4 21q5 3 4-2-3-9-1-16c5-13 18-8 15 6-1 5-1 5 1 8 6 8 19-1 19-14 0-7-10-17-18-19-10-2-10-3-8-13v-9q-6-11-1-12c3 0 6 6 5 8q0 11 10 18 6 3 2-4c-3-4-3-16-1-22q8-14 20-14c23 5 24 37 0 41l-7 3q-2 0 7 5 3 1 6 10 2 9 8 9 5 0 0-7-7-14 7-23c10-7 21-7 19 0l-4 3q-6 0-2 7 3 11-6 18-8 7 9 7 14 1 17-11c4-11 6-13 15-13q6 1 7-6 1-8 7-15c7-6 22-4 21 3q0 3-4 3-9 0-4 7 3 3 3 10l1 9v7c-7 13 0 24 8 13l7-10c5-5 21-10 24-7q3 5-4 6-9-1-3 7c3 5 3 7 4 15q0 9 3 13c6 10 5 23-2 23q-5 0-8-7l-3-5q-3-2 2-5 11-3-3-7l-7-4q-11-4-5 5c7 9-6 9-18 0l-8-7q-3-2-1-4c7-11 7-14 1-21-12-12-25-10-28 4q-2 7 7 13 7 6 4 8-4 3-12-3c-9-7-9-7-23-7h-13l-5-4q-9-7-14-1-5 4 1 11 6 5 1 11-5 8-15 8-6 0-4 4t10 0c6-2 7-1 11 7q9 21-9 8-9-7-18-3-6 5-16-13c-8-17-36-14-49 5l-1 3q3 4 5 1l5-6c7-7 18-11 22-9q6 3 1 5-6 2 0 9 4 4 3 10l2 9q5 8-6 9-6 0-8-2-8-6-8 7l-1 8q-3 6 1 7 2 2 6-5 3-8 5-6 2 4-1 10-4 8 3 10 11 5 5 11-5 5-15-1l-11-5q-6-2-7-7-3-11-7-16-7-7 3-10 16-9 1-18-10-6-6-9c4-5 4-16 0-23-4-6-8-8-23-10-16-2-16-2-14-13q2-15-15-21c-9-3-12-2-19 5l-4 4v12c0 11 0 11 2 11q8 0 5-6c-5-9 3-23 10-16 2 3 2 4 2 11v9l4 3q7 6 1 11-3 5-14 2c-10-4-10-4-10 1q0 5 5 5 13 5 10 15c-1 3-13 15-14 15l-1 3q-1 4 4 3 6 0 8 8 3 11 15 8h3v4l-2 10q0 10-9 0-8-8-16-8H0v10l1 11q4 4 2 8-1 6 3 7 5-1 9-10 7-12 10 5c1 8-5 19-12 19q-5 1-6 6 1 4-5 11c-3 5-3 18 0 18l6 1q7 4 3-5-6-9 6-19 8-8 12-6c3 1 4 2 5 13q1 18 9 7 6-8 8 1 2 6 9 2c9-5 9-4 11 18a7 7 0 0 0 13 1c1-7 6-8 6-2q-1 10-12 15l-6 2q-6 3-12-2l-6-4q-4-1-7-7c-6-7-10-9-20-9-17 0-27 13-23 30q3 9-2 11-2 0-2 3-1 4 4 4 8 0 5 4t3 10q4 6 3 10-1 11-7 13c-9 4 1 8 11 5 16-5 21-20 12-35q-5-7 1-11 9-10 17-4 9 4 0 16-11 15-6 23 6 5 6-4t7-17c7-8 21-7 15 1q-3 3-1 7v8q-2 6 4 8 7 3-2 8-10 4-7 13v6h10q12 1 13-2c5-5 14-4 14 1l9 1q10 1 7-2c-2-6-1-8 6-16 8-8 9-8 14-2q5 8 9 7 5-2-1-9-2-3-2-7v-8q-2-3 3-7c9-9 24-7 19 1-4 7-1 23 4 21l5-10q2-5 7-2 2 5-1 14-5 10 1 9c13 0 14-21 2-33-5-5-5-7-3-14s2-8 1-11c-3-4 1-13 9-17 7-4 16 0 11 5-4 4-2 18 4 25q6 7 0 7-9-2-4 13c1 7 7 8 10 1q4-8 12-8 6 1 3 4c-2 1-3 11-3 17l2 6 2 7q0 8 8 5l9-2c5 0 5 0 9-6q10-11 12 7v5h23v-4q2-16-19-21l-8-3q-3-2-5 1-5 4-8-4c-2-7-8-16-12-18q-10-6-9-10 1-9 9-9 12 1 1-6a18 18 0 0 1-8-21l3-7c3-11 12-14 19-6q6 6 5 13c0 8 1 9 15 9 14-1 16 0 17 3 1 5-5 9-10 7-9-4-20-2-20 3h3c2-4 14 2 17 9 3 6-1 14-7 15-10 2-11 2-14-4q-7-11-8 1-1 4 6 9l5 3h11c13-1 13-1 14 9q0 13 4 13 5 2 3-7c-1-11 9-25 14-19 8 11 9 12 7 17l-1 8q1 4-2 6c-4 4-4 4 2 9l5 4h15q15 0 13-1c-6-2-9-16-5-24 5-10 13-14 15-8l3 7 3 9q-1 6 5 7 7 2 1 6l-3 4h7q8 0 9-2 5-2 9 1l16 1h15l-1-2c-5-7 3-13 8-7q5 4 1 7-3 3 5 2l8-1h2c2 2 10 1 10 0 1-2 6-2 6 0 1 1 13 2 15 0h3c3 2 33 1 32-1l-4-1q-12 3-19-16c-3-8-2-11 6-19l5-6c6-7 13 1 9 9q-4 4 1 4 4 1 4 11l2 12v7l12 1h11l-3-4q-4-7 0-9 5-1 6-7 1-7 8-12c7-4 14-2 11 3-3 4-2 4 1 10q3 4 3 10c0 10-3 9 36 9h35l1-3q0-4 5-3 10 2 9-5c0-7 8-17 13-16 4 1 9 13 9 20v7h17l1-4q3-12-8-27-4-5 1-12 2-2 3-11 0-15 7-13 7 0 9 8 2 4-5 12-9 9-6 12 2 5 5 2 2-5 5 3 1 5 7 10 15 13 3 18l-4 2h48l1-3q4-8 10-12c5-2 6-9 2-9q-5-1-7-9 0-4-3-7-5-7-6-13-2-9 9 0 10 8 9 0 0-3-4-7c-4-4-8-11-8-12l3 1 6 6 4 3v-6l-4-11c-4-6-4-9 0-17 3-7 4-17 2-17l-6-4q-9-6 1-11l6-4v8-87c0-11 0-11-2-9q-3 5-8-2-4-7-10-5-12 3-6 12c2 2 3 9 1 11q-4 4-12-6c-8-9-8-10 3-15l7-6q6-5 10-2 5 3 4-5c-1-8 5-16 10-15q3 2 3-1v-40 8l-4-1q-13-1-5-9 4-3 2-7-2-8 4-14l3-2v-15l-1-15-2-6c-2-11-4-15-17-23q-9-5-1-11 5-5 11 1l7 5c4 1 4-5 0-9q-6-6 0-14l3-4V77c0-24 0-26-2-28v-3c2-2 2-3 2-17-1-16-1-16-5-13-7 6-16-3-11-12l2-4h-24v3q1 4-5 5t-4 9q2 4 1 8 0 10 7 3 6-7 9 0 6 9 2 17l-6 15c-4 15-5 16-10 16q-9 1-8-9-1-10 7-9 11 2 3-6l-5-6q-2-5-5 1-3 9-13 0c-5-5-5-6 1-11q15-13 6-30l-2-6h-10l-9 1-1 3q-1 3 2 7l4 7q0 3 3 5c5 5 4 7-7 15q-6 4-11 4c-6 1-8 2-15 8l-6 4c-4 0-10-12-11-21q1-10-6-13l-6-4-7-8-5-6c0-2-4-3-4-1l3 7q5 12-5 4l-4-8V0h-9q-13 0-3 3c6 1 7 2 11 10l7 10q8 6 5 10c-2 6-16 7-16 2l-2-2-1-4q2-2-6-11c-7-11-8-11-19-10q-12-1-19 7t-12-1q-6-8-3-11 6-4-9-3l-11 1v3l-1 5v12l2 10q7 10-4 9-8-1-7 6-1 9-10 11c-4 0-10-7-10-12q-1-7-6-13l-2-5q-1-3 5-2l5 2q4 4 7-6 2-11 9-18l4-3h-7q-8 0-7 2-1 5-9 6-10 1-12 9l-3 4-10 1-13 2q-9 4-14-5-7-9 0-10 6-2 16 1c6 3 14 4 14 2l-6-4-7-6a16 16 0 0 0-21 3l-4 3-3-2q-4-2-4-4c0-2-1-2-22-2l-21 1v8q1 21 9 8c5-9 15-14 20-9 9 7 11 25 3 31-1 2-2 16 0 26q1 9 7 12c3 1 3 1 3 9-1 8-1 8 2 12 6 8 12 5 7-3q-4-6 0-12 4-7 12 2c6 6 6 8 6 15q-2 8 4 12c6 4 3 14-3 14q-8 0-14-6-8-9-8 8l1 8 4 1c4 1 5 2 11 8q14 15 1 27-5 4-5 10-2 21-12 8a23 23 0 0 0-35-3l-5 5h-6q-6-2-11 1-5 4-7 2l-8-5c-7-3-6-9 2-9q4 0 1-7l-2-6c-2-8-11-10-10-1q2 9-6 3l-8-5-9-5c-6-6-7-7-14-8q-9-2-7-7 2-6 11-3l9 3q4 1 6 5c7 10 20 7 20-4q2-9-16-4-12 0-23-13l-6-5-10-6c-11-8-29-8-41 2q-6 6-11-1-3-6-13-14l-3-2 3-5c5-11 7-24 4-29q-5-10 6-3 8 5 13-1 2-3 6-4 9-2-1-8c-12-7-14-23-3-35 6-5 19-7 19-3l2 11q3 5-1 12-4 6-3 17 2 4 12 4 7 0 7 5c0 4-10 6-16 4q-7-5-10 5-2 7-7 7-8 1-10 8l-1 5c-2 4 9 11 14 8l4-4q4-7 10 2 11 10 6-3c-6-12 4-25 18-25q10 1 5 7-4 4-1 9v10c-1 7-1 8 4 15l6 10q1 6 5 7 14 5 7-4c-8-8-6-22 3-22q3 0 8-4 4-6 10-5c8 0 11 7 5 11l-2 2 1 4q4 7-1 16-5 8 3 11l5 5q2 7 10 1 10-10 14 0l2 7v23c3 7 11 10 14 4q9-19 15-9 12 11 8-3l-2-12v-6h-6q-10 0-11-5c0-5-11-9-22-11q-12 0-11-4 1-9 11-6 4 2-1-5c-5-5-2-17 5-21s16 11 11 17q-6 5 1 9l3 7q0 6 8 7 12 2 5-6-4-3 5-12c3-4 4-17 0-22q-6-9-21-8c-9 0-9 0-20 8q-4 5-12-2-15-11-25-3l-6 2q-4-1-6-6l-2-4q-4-7 6-6c9 0 13-7 7-13q-2-2-7-2c-11 2-10 2-10-3 0-4-5-10-8-10l-6-4q-11-11-6-25 2-6-1-15 0-6-5-5-5-1-3 3 4 13-11 8c-4-3-6-3-14-3q-12 1-11-5V0h-11c-11 0-12 0-14 3q-4 3-6 1-8-2-19 3c-9 5-11 5-16-2l-3-5h-17zm143-2v22q4 5 8-2 6-14 14-2l3 4c1 1 2 12 1 14-2 4 2 14 6 14q6 2 7 11c0 7 6 18 10 18q4 1 1-5c-7-12-3-27 8-32q6-2 10 4l2 3c2 0 4 9 4 17q-2 9 1 10c8 7 22-5 22-19q2-4-6-10c-9-9-13-10-28-12q-10 0-10-8-6-18-21-22-10-2-10-6c0-2-21-2-22 1m348-1q-1 5-9 8-7 3 3 4 8-2 11 9c5 12 11 10 7-2q-4-12 2-16 6-5-6-4zM178 4l-4 5c-6 13 4 23 14 13 7-9-1-23-10-18m194 3v13c-2 5 3 7 6 2 3-6-2-20-6-15m-160 7q-10 6-9 17c-1 9 1 11 8 16q6 4 8 3l8-1c7-1 8-1 11-7q3-8 1-11t-5 2q-10 14-10 2c1-5 0-6-2-11l-3-8q0-3-2-3c-2-1-1-1-5 1M50 15l-3 1h-4c-13 1-18 26-7 33q7 3 3-4c-4-5-2-14 3-19 4-5 13 2 13 10q-1 13 16 4c11-5 11-6-2-18-5-6-16-10-19-7m520 1q-7 4-11 13-4 6 1 14 6 6 0 5-8-2-5 10c2 10 2 10-5 17q-8 7-3 13l2 8q0 7 6 11 4 1 6 4 6 4 10-1 5-6-4-10c-11-5-15-23-7-31l10-15c0-3 0-3 11-3h6v-3q1-5 6-6 6-2 8-8-1-10-9-3-7 8-8-2-2-19-14-13m-219 8q-2 1-2 6 1 13 6 7c5-6 2-16-4-13M95 30c-2 2-2 3-2 11q3 8 7 1l1-6q1-5-2-7t-4 1m377 1q-2 2 2 5 5 6 5 15c0 9 7 7 9-4 2-7-14-23-16-16m-180 3-2 6-3 7q-4 7 4 5c6-5 9-16 4-18zm161 0a20 20 0 0 0-8 11l-2 7q0 10-5 1c-7-10-14-1-10 12l2 7q1 6 9 2c5-2 7-2 15-2h9l5 5c7 8 9 11 7 17q-2 10 7 12 5 0 9 7c5 8 7 9 16 5q10-4 5-6l-1-8q0-8-2-11-3-7 0-8t0-5c-6-6-21 3-21 12q-1 3-5 1c-4-5 4-15 15-18q17-5 4-12c-7-4-8-4-14 1-11 10-20 10-18-1q3-21-10-28-4-3-7-1m301 0-1 3-2 6q-3 9 5 2c3-5 2-14-2-11M14 43q-7 6-2 10c6 5 16-3 11-10q-4-6-9 0m604 2-4 6c-2 3-2 5-3 24q0 15-9 23c-5 6-4 8 3 14 8 6 10 9 7 17l-2 6c-2 0-1 7 1 8l6 2q8 2 9-9c1-6 1-5-6-19q-5-9-2-12 4-4 6 6 4 13 15 12 10 1 14 4 5 4 9-1 5-4-1-6t-2-9c5-10-3-10-9 0q-4 7-8 5-3-1 1-7 5-11-4-21c-2-2-10-3-12 0q-8 6-8-9c-1-8 0-8 6-8 12 2 14-15 2-24q-4-5-9-2m-87 3q-7 1-12 10-4 7 1 15 3 4 3 7c0 9 9 9 12 0l4-5c8-5 11-16 7-22q-5-8-15-5m145 1q-3 1-9 9c-7 9-6 21 3 25 7 4 17 6 20 5 11-2 23-19 18-24q-5-3-5 2-1 5-5 6-3-1-4-5l-4-6-4-8q-1-7-10-4m-466 8c-4 0-11 8-12 12-2 6-1 18 1 21 3 5 13 11 18 11q11-3 5-10-3-3-1-7 3-8-2-14-3-6 2-7 4-2 1-6zm-76 1c-9 5-5 18 5 16 9-1 11-11 3-15q-5-3-8-1m612 2q-12 7-6 19l5 8c1 4 9 13 11 13l2-2q2-8 6-8 5-2 3-9l-2-10c0-13-9-18-19-11m-166 0c-6 1-14 10-14 15l-2 3-1 7q-1 12 19 12c9 0 10 0 13-3 14-12 3-39-15-34M1 66q0 5 2 4 4-1 5 7c2 10 1 21-3 24q-5 3-1 6c6 3 16-2 21-13 4-6 4-8-1-19q-3-11-10-10l-9-2H1zm647 7q-4 4 0 7 8 0 6-7-2-4-6 0m66 13q-16 6-9 19 3 10-4 17-5 5-2 12l3 7 1 13q-1 12 2 19c4 10 4 10 1 10-2 0-8-6-8-8q-1-5-12-6-14 1-6-13 5-9-2-15l-4-8c0-4-7-3-12 2q-11 12-4 24l6 9q2 6 6 5 15 3 16 11c0 2 9 13 11 13q5 0 9-5 4-6 8-8 6-1 1-13-3-12 1-13 4 2 5 8l3 5 2 5q1 3 7 4c2 0 8-9 9-13v-7q1-11-9-10t-6-9v-5q-2-6-6 2-5 8-8 8-2 1-2-2l7-19q1-5 6-2 6 3 13-1c3-2 9-13 9-16q-2-6-6 1c-4 8-11 9-9 1l-1-8q-4-6 1-10l2-3-2-2q-5-5-17 1m-544 9q-8 4-14 13c-6 13 3 27 16 26q4 1 4-6l2-7q3-6-4-14-4-3-1-6l2-2 1-2q-1-4-6-2m511 2a15 15 0 0 0-8 22c2 3 13 5 18 5 9-2 9-21-2-26-4-2-4-2-8-1m-483 3a6 6 0 1 0 10 4c0-3-8-6-10-4m15 12q-7 3-7 9l-4 7q-7 7 6 18 6 4-2 8c-13 7-15 17-4 17q7 1 6-7t7-7q13 1 7 11-5 6-2 10 4 5 10 5 8 1 12-11c4-8-1-19-9-19q-16-1-11-9l6-8q3-4-2-15-6-17-13-9m-26 0c-2 1-1 16 0 16 4 0 7-10 5-14q-3-5-5-2m347 2-6 6q-2 4-7 3-5 0-6 2-5 5 5 14l6 6-1 7c-2 10-2 10 14 11 13 0 15 0 15-6q1-8-5-8c-4 0-15-4-16-5q-3-2 7-7 11-4 6-12l-2-8c1-7-5-8-10-3m42 1-6 11-3 9q-3 8 4 12l7 6q4 7 7 3 3-2 3-6l2-6q3-4 2-7-1-2 1-7 3-8-4-15c-6-5-7-5-13 0m-99-2c-6 3-5 14 2 14 5 0 8-9 4-12q-3-4-6-2m-206 6q-7 3-9 15-2 8 9 21l4 6q4 7 10 8c6 0 9-8 5-15l-2-9-4-12q-5-8 1-8 6-2 0-6-5-4-14 0m-247 2c-9 6-6 19 4 19q10 0 10-10-2-14-14-9m213 4c-3 3-1 12 3 12q4-2 5-8-2-9-8-4m397 8c-4 5-2 12 4 12q4-1 7-8c1-5-7-8-11-4m-165 2c-3 3 0 10 5 10s11-9 6-10zm22 9c-13 6-15 17-3 22l4 3c0 3 6 7 10 7q11 0 12-14c2-16 2-15 0-17s-10-4-14-4zm-243 0q-6 6 2 14 7 6 11 2c1-2 1-2-2-9q-6-12-11-7m-208 7q-2 5 1 6 5 2 6-2c2-4-3-7-7-4m557 2c-10 5-13 22-4 36l5 9c3 6 12 4 12-3l2-5a27 27 0 0 0-5-34q-3-6-10-3m-292 7q-11 5-11 20 1 7 9 11l8 6c7 8 13 6 9-2-2-4-3-6-3-14q1-9-2-12l-2-5q0-7-8-4M9 163q-10 6 4 14l8 5q6 3 7-1c0-2 6-8 8-8 5 0 8 10 6 18q-2 2 1 5c3 4 3 3 2 14q-2 13 4 13 4 2 2-7-1-7 2-10c6-9 14-4 11 6-2 9-2 11 0 14 5 5 17 3 20-3 3-8 0-24-4-24l-4-2-8-4q-10-1-10-11c0-11-16-21-25-16-6 4-7 4-13 0s-7-5-11-3m636 1c-3 2-3 8 0 8h7c3-3 0-10-4-10zm-80 4c-7 2-2 16 6 16s13-9 8-16zm-38 3q-7 5-7 15l-1 7q-4 0-5-4-1-8-12-8-7 1-6 10 0 8 10 10l13 4c8 4 10 7 11 20q1 6 7 9 11 5 7-4v-5c4-7 2-19-4-19-3 0-9-3-9-5q1-3 4-4l5-4q8-6 0-13-3-4-1-6c4-6-6-9-12-3m19 2c-2 2 5 13 8 13q4-2 0-8-5-6-8-5m-471 1q-2 5 1 8 8 3 9-5c0-3-7-6-10-3m675 4q-12 7 1 13 8 5 12-1c7-9-3-17-13-12m-283 0c-14 3-21 20-11 28q6 6-1 6-11-3-12 4-3 7 8 10 12 3 15 16c3 12 4 12 15 16l9 3q5 3 8-7l5-9 3-8 2-8q5-6 0-13l-2-4q0-7-7-3-12 6-7 19l1 5-5 5q-9 9-14 2-6-7 1-11 11-7 5-16-9-9-4-16 3-6-2-16-2-5-7-3m169 2q-12 10-2 17 9 6 12-6l1-5c2-1-3-6-5-7-4-1-3-1-6 1m-300 2q-4 5 1 8c7 1 11-5 6-8q-4-4-7 0m-58 4c-1 1-1 10 1 13 1 2 5-3 5-7q-1-10-6-6m380-1q-6 3-6 13 0 21 2 24 2 7-1 12l-2 5v4h4q4 0 5 2l5 5q5 5-3 7-7 3-3 7 3 6 13 0c7-3 8-5 10-18q0-5-4-9l-2-5-1-4h-7q-15 0-5-6c8-7 11-19 7-26l-2-7q0-7-10-4M4 187q-5 6 3 8 4-1 5-7-3-5-8-1m409 0c-7 2-15 13-15 21 0 4 3 13 6 16q2 2 3 7l2 9q5 7-1 17c-7 16-17 14-17-3l-2-11q-4-7 0-10c5-4-5-9-11-5-13 5-17 30-6 36l5 5 7 5q13 6 13 16 2 14 12 6 10-4 3-13-6-10 0-15c8-9 25 2 21 14-2 5-1 6 5 11 13 7 16 11 17 22 1 16 8 14 9-2 0-9 0-9 5-11 4-1 4-1 6-11l2-7-3-7-3-8q-1-3-10 0-9 4-11 12 0 7-5 3c-3-3-2-12 2-17 4-4 2-19-3-27-5-7-7-8-14-3q-4 3-5 7-2 9-4 7-5 0-5-6l6-10c7-10 7-11 4-15q-2-3-1-5c1-2-2-11-5-14q-4-5 0-8 3-7-7-6m158 4c-11 5-19 20-14 25 3 3 25-1 29-5 11-10-2-26-15-20m145 0q-8 3-10 17-2 5-6 3c-7-7-12 5-5 12q5 6 9 17c2 4 8 4 10-1q2-4-5-9c-7-4-3-8 5-4 11 5 18-1 9-7q-8-4 1-6 11-2 6-11-4-5-1-8c6-5-4-7-13-3m-371 6c-13 2-20 17-13 29q2 6 1 7v6l20-4c11-7 16-24 10-33q-4-9-18-5m270 6c-5 1-9 9-8 16q2 5-1 8-4 6 3 13l3 5h7q13 1 12-8l2-9q1-4-2-8-2-4 1-7 6-13-17-10m-513 6q-4 2-1 5c2 4 11 1 11-4s-6-5-10-1m275 2c-6 6 2 12 11 9q6-3 0-9-7-5-11 0m214 6q-2 8 7 9 3 0 2-4-1-12-9-5m-354 1a7 7 0 1 0 13 6c0-7-9-11-13-6m-145 9c-7 2-4 11 4 13q6 2 8-3c5-7-3-14-12-10m482 7-7 4a15 15 0 0 0-8 9q-6 10 3 13l7 4q11 12 19 6l6-4q9-6 0-10-4 0-4-6l-2-6-3-7q0-7-5-6-4-1-6 3m167 3q-2 2 1 6l2 7c0 6 8 9 13 4q6-4 0-10-10-13-16-7m-548 1c-7 4-13 15-12 22q1 12 13 14l10 3q17 2 8-13-3-4-2-5c1-3-8-21-11-21zm22 4c-2 2 2 9 4 9q6-2 0-7-4-5-4-2m305 0c-17 4-22 25-8 32 4 2 16 1 18-2 1-1 4-14 4-20a11 11 0 0 0-14-10m199 2q-4 0-9 10l-4 9q-4 8 7 19c6 6 17 3 14-4v-5l1-12 2-10q1-9-11-7m-682 1q-6 3-7 9-4 13 15 18 18 9-5 6-11-2-11 1l13 8 5 5 2 3h7q10-1 10-6l1-6q1-4-2-8-4-5 3-11 5-7 0-13-5-4-4 4c1 10-7 12-10 2-2-7-13-14-17-12m296 3c-14 5-17 24-5 31q6 2 0 7-9 7 3 8l12 1q12 3 11-6 1-4-5-7l-4-5v-9q1-23-12-20m-86 1-3 1-7 2-7 5-6 5q-8 3-3 7 8 11 3 14-6 7 5 7 17 1 18 18 1 12 8 11 8-1 2-9c-3-4-4-12-2-16l5-12 2-4c4-3 6-14 4-18-4-8-13-13-19-11m-2 6 2 6q3 5 3 10 0 14 7 7 3-3 2-6c0-9-12-22-14-17m364 5-5 8q-7 13 5 14 3 0 8 5l7 5c4 4 12 5 16 3l11-7 4-2v-2l-1-5 1-5q4-3-3-4-8-1-10 9-4 14-7-3-2-10-5-12-3-5-7 2-8 9-7-2-1-11-7-4m-331 4c-4 4 1 8 6 5q4-1 0-4-2-3-6-1m278 4c-6 3 2 14 9 14q12-2-3-13-4-3-6-1m118 2c-6 4-8 6-13 16s-4 13 3 17c4 3 15 3 19 1q4-3 5-8l2-4v-5l-6-7-3-8q0-3-2-3c-2-1-1-1-5 1m-175 7q-2 5 4 6 3-1 2-6-3-4-6 0m-213 0q-18 11-5 26 9 12-4 9-5-3-8 4l-3 4 2 4c4 5 11 20 11 23q1 7 12 7 15 0 11-6-4-10 7-3 10 3 7 10-2 3 2 10c4 8 5 12 3 21q-1 9 5 11 17 2 19 20 1 8 9 9 14 3 15 18l-1 8c-4 6-4 14 0 14l10 9 10 8 6 3q13 7 14-10c1-6 1-8-1-14q-2-13-8-3-7 6-9 3l-4-1-4 1q-1 2-5-1l-2-1 2-6 2-12q0-10 6-7c7 3 17 2 18-3q3 0-4-5-2 0-2-10-2-12-5-18c-3-3-15 0-18 4s-6 13-6 15q0 6-3 6t-3-11c0-7 0-8-4-12l-3-4 1-5q3-7-2-16-3-6-7-6c-2 0-7 8-7 11q0 7-4 6-6 0-2-12l2-8-3-4q-10-12-1-18 11-6 14 9 1 8 7 8c4 0 18 5 22 7 3 3 3 3 6 16q0 4 10 4 10 1 13-6l2-3h6q18-1 12-8l-2-6c0-7-5-19-8-20q-11 0-11 16c0 13-6 16-10 7q-3-7-10-6-7-2-3-6 4-2 6-8c4-14-6-32-15-25-6 4-9 13-6 19 5 8-1 8-9 0-5-5-5-5-8-5h-7q-5-2 0-11c2-4 2-13 0-16l-2-5c0-8-9-6-13 3q-3 9-10 4-6-3-12 0c-3 3 1 11 7 14 7 4 15 10 15 13 0 4-11 1-14-4q-4-7-9-4c-12 6-20-5-12-15l2-6 4-7c3-4 5-13 2-16l-2-4q-4-10-11-7m-133 5q-5 3 1 6a4 4 0 1 0-1-6m217-1q-6 5-7 14c0 15 23 19 26 4 1-12-9-23-19-18m214 2q-7 7-2 12c8 6 16-6 10-13q-3-5-8 1m-398 1c-9 4-11 6-14 13-9 19 7 33 27 24q14-6 14-20c0-16-12-23-27-17m328 2q-7 3-9 13 1 8-8 5c-7-2-14 3-9 6l3 3 2 2 6 4q10 7 10 18 0 12 5 20 6 8-1 9-5 0-5 4c-1 7-8 5-13-4q-9-15-10-1c0 8-1 9-8 13-6 5-6 6-1 12 3 5 3 6 3 12s0 7-3 11c-9 11-2 13 7 3q12-14 6-27-3-8 2-8l3 1 7 17c2 6 4 6 15 10q11 6 17 20c2 7 8 9 8 2q0-7 6-6 13 2 7-7-5-3-2-9c2-4 0-13-3-16q-9-3-15 8l-2 4c-2 1-5-4-5-7q-1-3-8-7c-5-1-9-10-6-14 5-7 20-5 21 3 2 7 9 7 12 0q5-12-4-14-5-1-5-5l-1-6q-3-2-1-7c4-12-7-25-13-15-5 8-11 4-8-4l2-10v-4h4c6 0 12-9 10-15q-6-21-16-14m90 6c-3 6 3 15 12 17q14 4 3 10c-9 4-7 11 2 9q7-1 7-7l2-6q4-8-5-12l-9-6q-10-10-12-5m-47 0-3 5q0 4-3 8c-6 12 0 19 9 11l11-7q13-6 1-15-7-5-15-2m-523 4q-3 4-1 5c1 1 6-1 7-3q0-6-6-2m194 3c-6 7 0 19 8 15 6-3 6-11 0-15q-4-5-8 0m187 4c-6 1-9 16-5 24 8 14 21 13 21-1l1-6q3-7-7-15l-6-3zm290 2c-8 5-9 20-1 29 8 8 22-4 17-16q-5-8-4-11c2-5-5-7-12-2m-662 0c-14 10-4 33 14 33l8 2 9 3 9 3q7 6 12 1 6-7-7-12c-7-3-8-3-18-1q-4 1-5-2l-3-5q-3-3-3-7-6-21-16-15m87 1q-13 6-8 14 6 6 6 14-1 5 4 8 10 7 13-6l2-6q4-8-3-18c-6-8-8-9-14-6m518 0c-4 1-10 10-10 16q2 9 11 11a14 14 0 0 0 2-28zm106 3c-8 5-11 15-4 21q10 11 16 4l4-4v-10q0-10-1-6 0 4-1 1-2-6-8-8zm-182 5c-3 1-8 8-9 13q-4 9 2 15c12 14 13 17 11 21l-2 4q-1 6-10 5c-8-1-11 5-6 10q14 13 24 10 19-3 8-11-5-4-6-10v-5l4-4q5-5 5-8 0-4 3-8 6-8-1-8-6 1-6-7c-1-5-6-15-9-17zm104 0c-3 2-3 8 1 9q7 4 10-1c4-6-5-12-11-8m-201 5-9 8q-13 12 1 22 7 6 12 0c4-4 4-13 1-19v-5q3-8-5-6m-307 9-3 5q-5 8-14 13-5 2-5 6 0 9 14 11 12 1 10-9c0-7 1-10 4-17q5-7 2-10-4-3-8 1m80-1q-14 4-14 13-1 6-6 8-3-1-5-10c-1-10-8-7-8 4q0 10-5 12-4 1-4-5c1-4-4-12-7-12l-6-2q-9-6-15 9-6 21 11 25 10 4-1 5c-8 0-8 1-8 13l3 15q4 11-5 9-15 2-8 12 6 8 11 3c6-6 21-9 30-5 8 4 15-7 9-15q-3-5 1-9c5-7 3-18-3-20-10-3-22 10-16 19q3 10-6 1c-4-4-2-17 4-23 2-2 10-5 15-5q6 1 8-8 1-7 6 0 3 7 10 7c3 0 9 4 9 5q-1 2-8 2l-8 1c-2 1-1 15 1 17q5 3 11-1c7-5 10-4 30 7 17 10 34-8 27-29q-3-10-9-9c-11 1-18 14-12 25v6q-5 1-11-10l-5-7-4-5-4-6q-3-6-1-12 3-4 1-9-4-5 1-8c8-4 0-11-9-8m419 8c-8 3-9 15-2 27 6 9 6 9 12 6q12-6 1-26c-5-8-6-9-11-7m-227 5q-5 2 1 7l5 8 5 7q3 2 4 6 4 7 8-8 1-3-5-8-5-5-6-9-4-7-12-3m-405 2c-1 4 10 10 15 7q2-3-6-7-7-4-9 0m580 2q-19 7-4 22 5 7 8 2c8-6 11-18 7-24-3-4-3-4-11 0m111-1q-15 4-3 12 6 2 9-6 4-10-6-6m-181 4v5q3 3 5-4-2-7-5-1m-443 1-2 4-1 3c-2 1-1 13 2 15q5 8-5 3-7-5-12 1-6 4-1 9l5 7c1 4 8 10 11 10l7-4c9-6 23-5 27 3l4 7q4 7-5 8l-10 1h-13q-10-4-13 6c-5 11 6 16 16 7 9-8 34-5 34 5l1 3 3 5c5 16 5 16 13 16q12 1 10-10c-1-11-2-11-6-12q-8-1-9-10l-2-9 1-4q4-4 0-7-6-3 0-10 6-4-1-15-2-2 1-5c5-8-5-9-15-3-6 5-6 5-14 2l-6-1v-8c0-7 0-8-2-12q-10-12-18-5m640 1-6 8-6 8-3 4 1 4c4 12 15 14 22 5 6-10 6-13 2-18q-5-4-1-9c2-5-5-7-9-2m-675 3c-7 5-8 16 0 23q4 6 9 0 13-13 5-21c-3-3-11-4-14-2m65 2c-2 3 0 9 4 9l4-5c0-3-6-6-8-4m-85 5q-2 2 1 7 7 6 3-4-3-5-4-3m580 9c-3 3-7 12-7 15l2 6 2 7q-2 8 13 5t11-11l-3-8c-2-11-12-19-18-14m-181 6-6 6q-15 15-8 28c5 8 9 10 20 12q7 2 1 9-5 3-2 7 4 5 9-5l2-6 2-3-2-6-3-8-2-5-5-11c-4-5-4-6-3-12q0-10-3-6m226 4q-12 8-4 21 1 4-5 4-8-2-3 10 3 4 3 10 0 8 4 9c5 2 10-10 8-17q1-7 7-9c6 0 9-15 5-21l-2-6-4-3c-5-1-5-1-9 2m-260 11c0 2 5 10 7 10q2-1 3-5c0-5-8-9-10-5m322 2q-3 1-1 5 6 2 7-2 2-6-6-3m-153 9q-10 7 1 19 14 14 18-5l2-6-4-5q-8-11-17-3m-468 2q-4 6 4 7 3 0 3-4-1-7-7-3m198 3c-12 6-13 19-2 22l6 3c9 7 15-7 8-18q-6-7-1-6c3 0 10 7 10 9q1 4 4 3c2-1 1-7-1-9-5-5-18-7-24-4m407 1q-9 2-12 11-3 12 5 20l4 4-1 4q-7 15 17 4c7-3 9-9 4-9q-7 1-5-8c0-5 0-6-3-11q-6-10-1-10 6-5-8-5m-697 5c-9 3-13 16-8 24q8 12 21 1c14-10 3-32-13-25m262 0q-5 6 4 4 5-2 1-5-2-2-5 1m347 0q-11 7 2 21 14 15 12-2l-1-10c0-7-8-13-13-9m120 1c-4 2-2 10 3 10 4 0 6-8 2-10zm-256 4q-5 4-6 10l-1 3c-2 0-1 8 1 11q3 5 10 6l5 4q7 9 17-1c7-8 7-14 0-10q-5 3-6-5c-1-12-13-22-20-18m-71 2q0 7 7 8 5 0-1-6-5-5-6-2m-305 13q-11 6-9 18 3 9-5 3l-8-4q-10-2-13-6-2-7-13-6-23 0 16 17 5 1 4 5 1 9 7 11l8-2 8-2q4 1 7-4 2-3 5-3 11-4 2-21-4-10-9-6m441 1q-8 1 2 13l7 8-2 4q-4 12 2 13 4 0 7-9 2-7 10-3 11 6 14 3 3-5-4-9l-8-6-5-3-7-4q-12-9-16-7m-261 4q-7 2-7 17v10l4-1a19 19 0 0 0 15-9l1-7q0-16-13-10m46 0c-9 3-9 13-2 22q5 5 12-1c11-10 3-27-10-21m73 0q-2 4 3 7l8 5q6 8 10-1 7-6-5-9-16-6-16-2m206 8q-2 7 4 7 4 0 4-5c0-7-6-8-8-2m-85 3c-5 6-5 14 0 15l5 2q5 4 6 0l4-3q4-1 3-6 0-11-10-11-6-1-8 3m111-1c-8 7-5 21 6 25q8 5 9-5c3-15-6-28-15-20m-171 1q-2 2 2 10 6 14 11 8 9-6-4-16-7-5-9-2m-29 1q-7 4-12 19-5 10 13 18 8 4 8 6 1 7 6 4c2-3 2-15-1-19q-3-3-3-7l-1-6-2-8q1-11-8-7m-123 11c0 2 7 13 10 14l2-1c2-1-2-8-4-9l-2-2-2-2zm389 4q-8 8-7 18c1 4 5 10 8 10l5 3q6 6 13 1 8-3 5-13c-2-7-2-8-9-14q-11-11-15-5m-693 1c-1 2 1 8 3 9 3 3 4-3 2-7q-2-5-5-2m102 3c-1 2 2 9 5 10q5 2 5-5c-1-5-7-8-10-5m481 1q-4 1-9 9-5 11-9 2-1-11-6-5v3l1 5c-2 4 5 10 11 10q4-1 6 3 4 10 16 9 15 1 8-7-3-2-1-6c2-7 1-9-5-17q-6-10-12-6m-500 6a10 10 0 1 0 11 17 10 10 0 0 0-11-17m-17 21q-5 7 6 5 7-1 3-6-3-4-9 1m319-2q-1 2-9 2-13 1-3 8 9 5 13 1l6-11zm-208 5c-2 4 5 12 10 12q5 0-3-8-5-7-7-4m-171 3q-6 2-13 8l-3 3h4q4 0 8-3c5-4 15-4 19 1 2 2 8 3 8 1l-3-4q-8-8-20-6m120 5c-6 1-13 3-13 5q-1 1 19 1l18-1c-5-5-16-7-24-5"
        mask="url(#16282281824-posters-1720553644717-vertical-mask)" itemprop="medium" fill-opacity="0.90"
        fill-rule="evenodd" stroke="none" fill="url(#16282281824-posters-1720553644717-vertical-medium)"></path>
      <!---->
      <path id="16282281824-posters-1720553644717-bold"
        d="M77 3c-1 4 2 11 5 11v-3l-1-6q0-9-4-2m25 3-3 8q-5 7 4 7l5-2q6-3 8 4c0 3 3 10 4 11h7l-2-3c-5-6 2-19 10-19 4 0 9 8 9 15q1 5-4 8-8 6 4 6c11 1 13-2 16-21l-4-8q-5-4-6-8l-1-4h-9q-10 0-9 2c0 2-5 7-8 7q-4-1-5-6c0-3 0-3-8-3h-8zm71-5-1 3c-3 2-7 11-7 13l2 6q6 10-6 17c-5 4-10 21-6 23q3 2 3-5c0-10 12-22 18-18 2 2 2 3 2 15l2 14q3 4-5 4-7 0-4 3 3 4 11 4 9 0 8 5 1 7-11 4h-8c-3 2-13 3-17 2q-10-1-7 9 2 4 1 15l1 11 1 1 3 4q7 7-5 15-5 3-10-1-8-5-2-17 5-7-4-18c-8-10-9-11-13-11q-8 1-9-11-1-11-8-17c-3-3-6-4-18-3q-7 0-9-9c-1-6-9-11-14-9-8 3-7 17 1 17q6 1 7 7c-2 5-3 6-11 5q-6-1-10 2c-10 5-1 18 10 14q8-2 9 4 1 3 7 5 7 1 1-5-7-12 0-21 11-11 15 1l2 7 1 6q0 7 2 6 10 2 4 14-3 4-3 7-2 9-12 3l-9-3q-8-2-8-9 1-7-5-6c-5 0-7 7-2 10q3 3-3 13-7 12-1 20 8 9 4 1-5-10 4-19c8-9 19 7 13 18q-5 10 4 10 13-1 14-13l1-5 1-3 2-3v-9q-1-6 5-15c5-7 12-1 12 10q-1 5 1 10l1 6q-1 5 3 6 5 0 8 5 1 9-7 8c-9-1-21 4-26 11-3 5-4 17-1 19q3 2 3-5l1-5 1-3c0-5 7-9 12-6s8 12 5 14l-1 4q2 4-1 7-2 3 2 6l3 3-1 5c-2 13 0 25 5 25q3-1 1-3c-1-1-2-10-1-14q2-9 9-9 11 1 7 16c-3 7 8 11 14 5 4-4 6-13 5-17a28 28 0 0 0-23-16l-4-2v-4l2-8q1-4-2-9-4-9 1-10 6 0 6 9c0 7 7 17 11 17q3-1 0-3c-9-8-2-30 10-36a14 14 0 0 1 15 1c3 0 9 6 11 10 4 11-3 29-13 29l-11 3 5 4c5 2 5 3 8 10q3 10 8 10 3 0-1-7-6-14 7-23 13-10 19-4c3 2 2 7-2 7q-6 1-3 7 4 11-5 18-9 5 7 6c9 1 18-4 18-10q2-13 15-14 7 1 6-5a15 15 0 0 1 5-11c0-5 12-10 18-8 9 4 10 12 1 11q-6-1-2 5c4 5 6 24 3 29-2 2-3 10-2 12 3 5 11-1 14-8s24-14 28-10q4 7-6 6-7-1-1 8 3 4 3 7l1 5v10c4 2 9 21 6 25-4 6-13 3-14-4l-3-5q-4-4 3-5 8-5-3-6l-8-4q-12-6-5 4 6 6 0 7-7 2-14-4l-5-4-2-1-3-3q-6-3-2-9 5-7 3-12a31 31 0 0 0-16-13c-3-4-12 3-14 10q-3 8 7 14 8 6 3 9-6 3-13-4-8-7-22-7c-14 0-15 0-19-3-9-8-20 0-11 8 7 7-2 20-13 20q-5 1-5 4c0 2 6 1 10-1q6-3 11 8 7 10 2 12-5 5-16-6-4-4-14 0-6 4-12-7l-5-8c0-2-7-7-11-8-14-4-34 5-37 16q0 6 5 0a32 32 0 0 1 18-13h10q4 3-1 5-6 3 0 7 6 8 4 15v4l2 3c4 7-8 12-16 6q-7-4-6 6l-2 9q-1 13 6 1 3-6 5-6c4 0 4 7 0 13q-2 6 4 8c9 2 8 14-2 14a10 10 0 0 1-9-4l-4-1-6-2-3-2-2-1-2-2-3-8-5-11q-7-9 2-12c11-2 12-11 1-17q-10-4-4-12 4-9 0-18-4-10-28-12c-12-1-11-1-11-11 1-11 1-13-7-19-6-4-6-4-13-4h-7l-5 5-5 5v11c0 10 0 10 2 10q7 1 4-6c-3-8 1-18 7-18q4 1 6 5l1 4v7q-1 9 3 10l3 2c6 6-5 16-13 12l-6-2-5-1q-2-2-2 3t2 4c9 0 17 9 14 16L2 284q-6 4 2 5 7 0 9 9c1 6 8 10 13 8q6-4 4 6l-1 9q-1 12-12-2-4-6-13-6H0v10l1 9c3 0 4 6 3 8q-1 7 2 7 6-1 9-9 1-6 6-5a17 17 0 0 1 2 23c-1 3-8 7-11 7q-4 2-4 5l-6 12c-2 3-3 16-1 16q2-1 4 1 11 5 5-5c-4-7-2-11 7-20q15-12 16 3l2 10q0 11 7 3t10 0 6 3c1-2 8-4 10-4q3 1 3 20 0 9 6 9 5 0 6-7c0-4 6-7 7-3 3 6-3 15-13 18l-6 2q-3 3-11-2l-8-5-6-7c-5-7-8-8-18-8a22 22 0 0 0-22 30l1 6-2 3-4 2-1 2q-1 3 4 3 9 0 6 6c-2 3-2 3 2 9q6 8 2 17l-1 3-3 3c-8 3-2 7 7 5 6-1 15-7 15-10l2-4c1-2 1-12-1-14l-1-4-1-3c-3-2-2-9 0-12q11-10 20-1c5 4 4 6-3 15l-5 12q-3 4 1 10t4-5q2-10 9-19c7-6 20-2 14 4v14q-2 5 3 9 7 3-1 8c-7 4-8 4-8 12v7h10c10 0 10 0 12-3 4-4 15-4 15 0q-1 3 8 3h8l-1-6c0-6 0-6 3-9l3-4 1-1 3-2q6-7 11 1 4 7 7 7 6 0 2-7c-5-6-5-20-1-24 9-9 26-7 21 2-3 5-3 17 0 20q4 4 7-7 3-9 8-4 4 3-2 19-1 7 5 3l2-2q5-1 5-13-1-10-8-16c-6-6-6-8-3-16 2-7 2-7 1-9-7-7 10-25 19-20 3 2 4 7 2 7-5 0-2 19 5 26q5 6-3 7l-3 1v6q1 18 11 5 5-8 12-8 5 1 2 6c-3 2-3 17-1 21l2 8q1 7 5 5 1-2 9-2h8l3-5q4-8 8-6c3 0 6 8 6 13v4h22v-5q-1-16-19-19l-9-3q-2-3-3 0-7 6-9-4c-2-6-12-19-15-19-2 0-7-6-7-9q-1-9 15-10 2-1-3-3c-9-4-14-18-9-25l2-4c0-5 7-13 11-13a18 18 0 0 1 15 19q2 11 8 8c4-2 19-1 22 1 6 6-4 14-11 9q-7-3-15 1-7 5 4 1c5-1 15 9 15 15q-1 6-6 11c-3 2-15 2-16 0q-5-11-7-8-3 5 2 11c7 6 11 7 23 4q10-3 10 13 0 10 2 10 5 4 3-6c0-10 7-22 13-21l3 2 4 6 4 6-1 5-1 8q0 4-3 7l-3 3 5 4 5 5h15q14 0 12-1c-2-1-7-10-7-14 0-11 12-25 17-21l3 6 2 4 3 11q-1 2 5 5 6 1 0 7l-2 3h6l8-1q6-4 10-1c3 3 31 3 29 0-3-3 0-11 5-11 4 0 9 9 6 12-2 2 9 1 11-1h3q6 4 10 0 4-3 8 1c1 2 11 1 12-1q3-2 5 1l16 1 15-1-3-1c-9 2-21-9-21-18l-1-2v-7l2-4 4-4 5-5q1-5 7-4l5 1 1 2q2 1-1 6-5 7 0 6 5 0 5 15l3 14q-2 3 10 2h10l-3-4q-5-7 2-10l4-4q3-16 16-16 8 0 4 5c-1 4-1 4 2 10l3 9 1 8v2h34l34-1q0-5 9-5 7 0 6-4 1-7 7-15 9-9 16 9l1 4v5q-5 9 7 7h8l1-4c3-7 0-18-6-25l-2-3-1-1q-3-1 2-9 2-3 3-13 0-15 8-13 9 1 10 11c0 4 0 4-11 16q-2 3 1 7 1 2 3-1 3-5 5 4l9 12q8 7 7 10-1 5-7 8c-2 1 8 1 21 1h23l1-4c2-5 9-12 12-13 4 0 4-6 1-7q-5-1-7-7 0-6-5-12l-3-6c-3-12-2-13 12-2q5 5 5-1 0-3-4-7-8-9-9-14 1-2 5 2l6 6 3 3-1-6-1-7q-9-8-2-22 6-13 0-16-4-1-7-6-5-5 4-10l6-4v-89l-2 3q-6 3-7-1l-3-4c-3-4-10-4-13-1-3 2-3 9 0 10 2 1 2 8 0 11q-2 7-12-5c-9-10-8-12 3-18l8-5q4-4 6-3 8 4 7-4c0-9 6-17 11-14q2 2 2-2v-38q1 9-2 8l-5-2q-10-1-3-8c2-3 3-4 2-11v-7l4-4 4-3v-14l-1-14q-3-3-4-12 1-9-14-16-12-7-2-13 6-6 10 0 10 9 11 2 1-3-2-3c-2 0-5-6-4-9 0-4 4-10 5-10l1-9q1-10-2-6l-3 2q-4 1-5 6 0 7-5 3a45 45 0 0 1-13-18 15 15 0 0 1 5-22c1-1 10-3 13-2q6 2 6 13l2 10 1 5 1-9c1-11 0-24-2-26q-2-4 1-6l1-22V8q0 7-2 8c-7 3-7 3-10 1q-10-4-3-16l-11-1h-11v3q-2 6-5 6-6 1-4 6l1 10q0 10 6 2 7-9 11 2 6 9 1 16l-6 16c-4 14-6 16-12 16q-9 0-7-16 0-4 8-3 9 1 2-4l-5-7q-3-6-5 1-2 10-14-2c-5-5-4-6 1-11a23 23 0 0 0 5-32c-1-3-1-3-10-3h-9v4l3 8c0 3 5 11 7 12 7 3-7 16-22 20l-8 3-5 4q-8 9-13-4c-4-9-5-11-5-16q1-9-6-10l-6-5-6-7-5-7-1-2q-4 0 0 7t0 9c-2 1-9-7-10-12V0h-8q-9 0-5 2l5 1q4 0 7 6l2 6 6 7q9 8 6 11a11 11 0 0 1-20-3c0-5-10-19-14-21s-18-1-21 1l-8 5q-8 9-14-1-5-7-1-12c1-2 1-2-9-2s-11 0-11 2q-2 23 1 29 6 9-6 10h-5v5c0 5-6 12-10 12q-10-1-12-15-1-6-4-9-6-8-1-10l4 1 5 2q5 1 4-2c0-7 5-18 10-22l3-3h-5q-7-1-7 3 0 5-12 7-4-2-10 10c-1 1-2 2-11 2q-14 1-18 4c-4 3-14-8-14-14 1-5 10-6 19-2l11 2h4l-5-3q-9-4-10-8l-6-1-7 2-5 3q-4 5-9 1-3-1-3-4V0h-21l-21 1-1 4v5q2 17 8 6c5-9 16-13 22-8 3 2 8 11 8 16 1 4-1 12-5 15-4 5 0 36 5 36q5 0 5 12-2 9 4 14c4 4 7-2 3-6-4-5 0-14 5-16q5-1 12 9c3 4 4 12 2 13-2 2 3 11 6 11q3 2 1 9-8 13-23-2-5-5-5 9-1 11 6 9c3 0 12 8 16 14 3 5 1 17-5 22q-5 3-4 8l-1 5-1 3q-1 6-5 7l-6-5q-9-10-15-9c-11-1-12 0-19 6l-6 5h-6q-7-2-10 1-7 4-12 0l-5-4c-7-1-6-8 1-9q7-2 3-7l-2-2-5-10q-5-2-5 5 1 10-6 4-2-3-8-5l-9-5q-8-8-12-8-12-1-9-9 2-6 12-2l8 2q3 1 8 7c4 6 13 6 16 0q6-12-10-9c-10 2-22-3-25-10q-2-5-11-8l-6-5c-11-9-32-8-43 3q-5 5-12-4l-8-10c-7-4-7-5-4-11q9-18 4-28c-4-6 1-9 6-4q8 5 14-1 2-3 6-4 8-2 0-5-16-9-10-27c3-11 17-20 24-15 2 1 5 19 3 22q-3 6-3 13-3 10 9 10 12 1 10 7-3 4-8 4h-1c-1 2-6 1-7 0-3-4-11 0-11 6q0 3-9 6-6 0-8 12c-2 7 14 11 16 4q3-8 11 1 12 10 5-1a19 19 0 0 1 6-22l2-1c2-2 11-4 14-3q8 2 3 8-5 5-1 8c1 2 1 3-1 14q-1 5 3 8 7 9 8 15 1 4 8 6 7 0 3-4c-9-8-7-22 3-23l8-5c8-7 18-6 18 2q0 3-2 5-3 1-1 7c3 6 2 7-1 14q-4 9 2 11 5 3 5 6 3 6 8 1 9-9 14-4c6 11 6 13 4 25q-1 10 6 15 5 4 8-5 6-10 10-11l5 4c5 6 11 7 8 1q-3-6-3-16 2-8-6-5-6 2-10-4c-1-3-7-8-9-8l-5-1-9-2q-16-1-8-11 2-3 10 0 2 0-2-3-8-8 1-20 6-7 13 0 8 7 2 15l-3 4 3 3 5 7c1 7 1 7 8 7q9 0 4-4c-3-3 1-14 6-16l1-8c0-8 0-8-4-12-9-9-26-10-36-1-7 6-9 6-17 0q-12-9-22-3l-8 2q-4-1-6-6l-2-5q-2-7 6-6t10-4c1-7-6-12-13-9q-9 4-8-4t-5-9c-2 0-12-10-13-13q-4-9-1-19c2-5 2-5 1-10l-2-6q0-2-4-2t-2 2q5 16-14 8c-5-2-6-2-12-2q-11 2-11-3c0-5-1-5-12-5-9 0-10 0-12 2s-3 3-12 3c-8 0-9 0-13 2q-11 9-17-2l-4-5h-9zm142 1v23q3 3 5-2 7-15 15-5 9 10 6 20-2 9 5 13 8 3 8 12 1 11 7 16 5 4 2-3-4-9-3-18a21 21 0 0 1 9-13l4-2q8 1 9 4l2 4c5 4 6 14 3 22q1 4 7 7c8 1 18-14 16-23-1-4-11-13-16-16l-14-3c-11-2-12-3-14-9-1-9-12-21-20-22q-10-1-11-6c0-2-18-2-20 1m348 0a19 19 0 0 1-12 9l5 1q10 0 11 9 2 8 6 8 4-1 1-8c-3-5-2-14 1-18l3-3h-7q-9 0-8 2M1 18l1 16c1 0 6-7 7-11 2-4 2-4-2-11Q0-7 1 18M177 4c-6 5-7 15-2 20l5 3q6-1 10-8c5-8-6-20-13-15m196 3v7l-1 7q-2 6 4 2 3-2 2-8-2-11-5-8m-164 9a19 19 0 0 0-2 29l4 2c3 3 18 4 23 1 5-2 8-14 6-17q-4-3-5-1c0 2-6 10-8 10s-2 0-2-9l-2-7-3-9q-2-7-11 1m36-1q-3 3 2 6a4 4 0 1 0-2-6m326 0-2 1-1 1q-4 2-10 11-3 7 1 14l3 5h-2q-8 1-6 7l1 9 1 6-6 5c-7 6-7 8-3 14l2 9q0 8 6 11l6 3c5 5 12 2 12-5q2-4-6-7-10-4-11-19v-6l4-5 7-9 3-5 1-3 7-1c10 0 10 0 10-3q-1-5 8-6c5-2 8-9 4-13q-3-5-8 2-8 6-7-2l-3-10q-2-7-11-4M46 16q-13 1-16 19c-1 6 4 15 9 14q3 0 0-4c-5-7 0-22 7-22 4 0 10 8 10 14l1 6q5 1 12-2l6-4q8 0-5-15-7-9-24-6m304 8q-2 2-1 11c1 8 10 4 10-5q-1-8-9-6m123 5-3 3 2 3q5 5 6 14 2 17 11 1 4-6-6-15-8-8-10-6M95 31c-3 3-1 14 2 14l3-10q1-9-5-4m197 3-3 5-2 8c-4 6 1 9 6 3 4-3 6-11 5-14q-4-5-6-2m160 0-4 4q-6 11-5 14 0 5-3 3l-3-4q-3-4-8-1c-3 2-4 14-1 16l1 5q1 9 10 4 11-5 22-2c9 2 17 18 13 25q-2 6 10 9l6 7q6 12 16 5 13-3 7-7-4-4-1-9c1-2-1-12-3-12q-3-1 0-5 5-4-2-7a10 10 0 0 0-12 1c-3 1-8 9-8 13h-2l-3-3c0-3 11-14 14-14 4 0 11-4 12-6q2-4-7-8c-6-3-8-3-14 3q-5 5-10 5c-7 0-8 0-6-10q3-18-11-26c-5-2-5-2-8 0m302 0-2 4-2 5c-3 6 2 8 6 3q6-8 1-12-2-3-3 0M13 44q-4 5 0 9 7 4 11-6c1-6-6-8-11-3m604 1q-7 4-7 25c0 14-2 20-7 26q-11 9 2 16 12 10 5 21c-1 2-2 9 0 10 2 2 9 3 11 2 6-2 8-14 4-20q-10-16-6-20 3 0 4 4c0 3 4 10 7 13q3 2 11 2c7 0 8 1 11 3q5 6 10 1 4-5 1-7l-4-2q-3-1 1-9c3-6-3-10-7-4q-6 9-9 10-3-1-1-6 6-10-3-22c-2-3-10-3-15-1q-6 5-6-8-1-10 5-7 7 2 10-4a13 13 0 0 0 0-14c-1-3-9-11-12-11zm-87 2c-3 1-11 8-12 12q-3 6 2 15 3 4 3 7 1 6 5 7 6-2 8-8 0-3 3-4c17-9 9-34-9-29m-331 1v4q3 5 6 1l3-2-3-2q-3-3-6-1m476 1c-3 1-9 9-13 15v11a12 12 0 0 0 7 8l3 2 4 1 12 4a31 31 0 0 0 21-20q3-3-1-6-6-2-6 2 0 9-8 0l-5-7-2-6q-1-8-12-4m-79 1q-1 5 4 6 4-1 3-6c-1-3-6-3-7 0m-387 7q-13 5-13 25c0 13 18 25 26 17q6-4 1-8-3-1-1-10l-1-10q-4-5-1-7c7-2 4-9-4-9zm-75 2c-7 2-4 15 3 15 8 0 13-11 6-14q-5-3-9-1m446 0-3 1-4 3c-8 6-13 23-9 29 5 8 27 8 33 1a21 21 0 0 0-17-34M1 66q0 3 2 3 5 0 5 5l2 7v9l-2 7q0 4-3 4-8 5 5 6 9-2 16-14a18 18 0 0 0-2-18c-3-8-4-9-16-11H1zm647 6c-4 2-2 9 2 9l4-3 2-2-2-3q-2-4-6-1m71 11-8 3-3 3c-5 0-7 10-3 17q2 8-5 15-5 6-1 15 2 5 3 17l1 16c4 12 4 14 3 14l-7-7q-1-6-12-7-14 1-7-11 6-12-2-19l-3-5q1-3-4-4c-12 0-20 19-14 29l4 6q0 8 15 11c4 0 10 6 10 9l1 3 4 4q6 12 16-1l7-6c4 0 4-8 2-14-3-5-3-12 0-12 2 0 5 6 5 9 0 4 8 13 12 13 3 0 9-9 9-15l1-7v-5q-1-5-10-5h-5v-8q0-16-10 0-10 12-3-4l2-8q1-10 6-6 12 7 21-9 6-10 0-11-3-1-5 4-8 12-8-1l-1-7q-4-5 1-8 8-9-12-8M168 95c-4 1-12 11-13 15q-4 18 9 23 13 6 13-5l2-8c1-5-2-13-4-13q-5-1 0-7 4-4-2-6zm512 1c-11 4-14 24-3 26l7 2q11 3 13-8 4-13-8-20zm-483 3q-2 5 3 9 7 2 8-4c0-4-8-8-11-5m17 12q-7 3-9 9l-4 8q-3 3-1 8-1 3 8 10 4 4-2 7c-13 6-16 18-5 19q8 1 7-7-1-7 6-7 13 0 7 11-7 7 2 12 10 8 18-5c7-10 2-24-8-24q-16-1-10-8 12-10 2-25l-1-4q-1-4-6-6zm-27 0-1 17c5 3 10-12 5-16q-2-3-4-1m348 1-5 5q-4 6-8 5t-9 4 7 14q6 6 5 8-4 11 1 14l25 2c6-2 5-14-1-16q-17-3-17-6l5-3q15-6 8-16-3-4-1-7 0-9-10-4m43 1q-7 6-9 14l-2 8q-4 8 3 12l8 7q2 4 5 4 6-3 5-7l2-7q3-3 3-7v-8q2-8-4-14-5-7-11-2m-104 2q-5 7 1 11 10 5 10-6c0-8-7-11-11-5m-203 4-6 4c-2 3-5 14-4 16 1 4 7 14 11 17l3 6 3 5c9 8 19-2 13-14q-3-4-3-10l-4-11q-3-7 1-7c4 0 4-5 1-7s-11-1-15 1m-246 2a9 9 0 1 0 11 4q-3-7-11-4m211 3c-3 3 0 14 4 14s7-11 4-14zm399 7c-5 3-5 11 0 14 4 2 12-6 11-11q-4-5-11-3m-162 2c-8 1-7 12 1 12 6 0 12-9 7-10q-5-3-8-2m-176 2q-3 1-1 4 4 4 6-2 0-5-5-2m196 8c-15 5-18 21-6 24q3 1 5 4c7 12 23 5 23-10l1-7q2-8-4-11-10-5-19 0m-245 0c-6 5 0 19 8 19q11 0 3-12-6-12-11-7m347 10q-8 7-8 19l2 10 4 8 5 9c2 6 13 2 13-4l2-5c6-6 5-23-2-29l-3-5c0-5-8-6-13-3m-32 2c-3 4 1 9 5 6 3-3 2-9-2-9zm-259 5q-11 6-10 21 1 8 9 11l8 6c7 7 15 5 9-3q-2-2-2-20l-2-6q-3-3-3-7-1-6-9-2m340 3q-4 5-2 7c3 7 13 4 12-3q-3-9-10-4M9 164c-6 2-4 9 3 12l6 2 2 2q6 6 8 1 6-12 12-7c3 4 5 13 3 15q-3 3 2 8c2 3 2 3 1 9q-3 12 1 15 4 5 4-5 0-15 8-15 9 1 5 15-4 6 1 10c6 5 17 2 19-5 2-10 0-20-5-22l-5-3-7-2q-9-1-10-12t-10-15l-6-1q-3-2-8 1-8 6-12 1-5-7-12-4m557 3c-9 2-4 18 5 18s14-11 8-17c-1-2-9-3-13-1m-38 1c-5 3-11 16-9 21l-1 3q-2 1-5-6c-1-6-10-8-15-4q-4 2-3 8 0 11 11 12 5 0 10 3l5 2 4 3 3 4 1 8c1 9 2 10 9 13q10 6 7-5v-6q3-1 2-8 1-11-8-11-9-2-7-6l2-1c4 0 10-8 10-11l-1-4-4-6 1-3c3-5-5-9-12-6m17 5c-1 3 6 14 9 14 4 0 3-8-2-12q-6-5-7-2m-470 2c-3 4 3 10 7 6q4-5-2-7zm678 1q-16 7-4 16 9 6 16-3c5-8-4-17-12-13m-286 1c-15 4-22 21-12 29q7 6-2 4a8 8 0 1 0-5 16l5 1a11 11 0 0 1 9 7l2 4 1 4 1 3q0 9 12 13l10 3q8 6 12-9l4-9q3-3 3-8l2-6q4-6 0-12l-2-6q-2-7-9-2-12 8-7 20l1 4-5 5q-5 5-8 5c-2 0-8-6-8-9 0-2 5-6 7-6 4 0 5-12 1-17q-6-7-3-14c2-4 2-4 0-13q-2-6-6-8zm169 2q-11 11-4 17 13 9 15-8c2-7-6-13-11-9m-301 3c-5 7 2 12 9 6l3-3-2-2q-7-6-10-1m-58 4v8q3 8 0 7a2 2 0 1 0 2 2l3-4q5-7 1-13-3-4-6 0m378 1q-6 6-5 14l2 13 2 10q2 4-3 14-3 5 4 6 4 0 6 3l3 4q5 3-2 5-8 3-4 7 2 6 7 4l11-4c5-3 8-18 4-25l-4-7-1-4h-7q-13 2-3-6a22 22 0 0 0 5-25l-2-7c3-5-7-7-13-2M4 187q-4 2 0 6 2 4 5 0c5-5 0-10-5-6m407 0-2 1-1 1q-2 0-7 8a20 20 0 0 0 0 23l3 4 2 7 2 9q4 6 0 16c-6 17-17 13-17-6l-1-7q-3-7 0-9l1-3c0-7-11-7-18-1-10 9-10 30-2 34l5 5 8 7q13 7 13 17l3 5q2 4 11-2 9-5 2-13-7-11 2-16c10-5 20 4 17 15q-2 7 7 12 16 8 16 23c1 16 9 11 9-5l1-7 3-2c5-1 5-1 7-8a29 29 0 0 0-3-25c-3-9-21 0-22 11q-1 8-4 3c-3-3-2-12 1-16 9-9-2-38-13-34q-9 4-10 12-3 8-7 2c-1-3 3-11 6-14q7-7 4-15l-2-8q-1-7-3-9-4-4-1-10c3-4-3-7-10-5m151 1c-2 0-1 5 1 5q4 0-2 4c-8 10-8 23 1 21l11-2 10-2 5-3c9-10-5-28-17-21q-5 3-5 1 0-4-4-3m152 3q-6 5-8 12 0 10-6 7c-9-5-13 7-5 14l7 12c3 8 3 8 6 8 8 0 9-12 1-15q-4-1-1-4 2-1 5 1l7 2c2 1 8-1 8-3q-1-6-6-7-8-4 3-5l5-1c2-2 1-9 0-11q-4-3 0-7c5-5-9-7-16-3m-370 5q-9 3-13 11c-3 5-3 16 0 20q3 4 1 6-3 7 4 6a27 27 0 0 0 26-40c0-3-10-5-18-3m269 7q-7 4-7 16v8q-4 4 2 13l3 5h8q14 1 12-7l1-5c2-1 2-12 0-13q-2-3 1-8c5-8-9-14-20-9m-511 6q-4 5 3 6 7-1 6-6c-1-3-7-2-9 0m275 2q-3 5 0 9c4 3 15 0 15-4 0-6-11-10-15-5m215 5q-5 5 1 9t7 0c3-7-3-14-8-9m-355 2q-3 3 0 7c4 8 16 5 13-4-2-6-10-8-13-3M90 229q-4 7 5 10 12 2 9-9c-1-4-10-5-14-1m486 2-5 4-5 3a11 11 0 0 0-7 8c-1 0-4 8-3 10q0 2 5 4l9 6q11 12 19 4 16-11 6-14-6-1-5-6l-1-6-3-6q-2-12-10-7m167 4q-5 2-1 10 2 3 1 5c0 2 5 8 8 8 6 0 11-7 8-13q-8-12-16-10m-555 7-6 9c-2 1-2 12 0 16q4 6 10 7l10 3c8 2 8 2 11 0q6-4 0-12l-3-8q0-8-8-17-6-7-14 2m26 0q-1 3 3 8 5 3 5-2c0-4-6-9-8-6m300 1c-12 6-14 21-5 29 6 5 17 6 22 0s5-26-1-30c-3-2-12-1-16 1m201 1-5 9-5 9c-5 11 11 29 21 23q3-2 2-7v-7c2-4 3-11 1-11-2-1-1-7 1-8 6-5-8-13-15-8m-680 2c-6 4-8 14-5 19 2 2 11 7 17 8 10 3 5 6-6 5-11-2-11-2-12 1 0 2 7 7 12 8l5 5c3 4 3 4 9 4q12 0 12-10l1-5-2-5q-5-6 1-10c6-7 4-17-2-17q-2-1-2 5 0 16-8 3c-5-10-15-16-20-11m295 2q-10 6-10 16 1 11 7 15 6 2 0 7-7 8 2 8l12 1q13 4 13-3 2-6-5-12c-4-4-5-5-2-15l-2-8-3-6q-1-7-12-3m-86 1-9 3-5 4-8 6q-7 3-2 7 8 9 3 14-6 8 5 8 16 1 18 16 1 16 12 12 6-1 0-8-8-8 1-23l2-7 2-2 2-5 1-2 1-7c0-5 0-5-6-12-7-7-9-7-17-4m1 6 3 6q3 3 3 11l1 7c9-1 8-15-2-22q-4-4-5-2m365 4-5 7c-7 6-6 16 2 16q5 0 9 5 5 6 16 10 3 2 8-2l8-4 3-2 3-2q4-1 2-3-3-5 0-10t-4-5q-8 0-9 6l-1 3-1 3q0 3-2 3-3 1-3-6-1-12-7-15l-2-2-4 4q-6 6-7 2 1-14-6-8m-333 6c-3 6 4 9 8 4q3-2 0-4-5-4-8 0m278 3c-7 5 5 17 13 14q6-3-1-9l-4-4q-4-4-8-1m119 2-10 8-4 9c-4 9-4 12 4 17q5 3 11 2c10 0 10 0 15-13l1-5-3-5-5-5-1-5q0-9-8-3m-257 4c-1 2 1 7 3 7q4-1 4-6-3-5-7-1m-132 3q-9 6-10 16c0 5 0 5 5 10q9 9 0 9l-4-1q-3-3-7 3-6 6 0 12l3 6 3 6q3 4 3 7l1 3 1 1q0 5 11 5 16 0 12-6v-5l12 6v8a9 9 0 0 0 3 9l2 3 1 13c-1 13 0 14 7 16q14 4 16 16 1 12 12 13 8 2 11 12c3 7 2 8 0 14l-3 8c0 2 4 7 6 7l6 5a35 35 0 0 0 18 13c1 2 8 3 10 2 4-3 7-19 5-23l-2-6q0-9-7-2c-5 5-6 6-11 4h-6q-9 3-6-7l2-10q0-11 5-8c3 1 11 2 15 0q8-2 2-8c-3-3-3-3-3-9 0-10-4-21-9-21q-15-1-19 12l-2 4-1 4-1 5q-3 3-3-11c0-6-1-7-4-11s-4-5-1-11c2-6-6-23-11-20q-6 3-7 8-1 8-5 8-3 2-2-6l2-7q3-4-3-12-8-8-2-14c7-6 16-2 16 7q0 7 11 9l13 4q7 3 8 8l1 3 1 6c0 8 21 8 25 0q1-6 7-4c5 2 15-2 15-5l-1-3q-3-1-4-10l-1-6-3-6q-3-7-11-2-6 6-5 15c1 11-5 14-9 6q-2-6-11-7-4-2-1-5c6-3 9-21 4-27-10-11-10-11-16-5q-9 9-5 17c5 8 0 9-7 2l-4-6h-7c-8-1-9-2-3-18q2-3-3-11l-1-4q1-4-3-5-7 1-11 8-2 9-9 4-5-4-10 0c-5 2-3 12 4 15 6 3 15 10 15 13s-9 0-12-4q-5-9-10-4c-6 3-14 0-15-6q-1-4 5-11l1-4 3-7q6-6 3-14l-2-7q-4-10-13-6m214-1v6c3 4 9 0 7-4-1-3-6-4-7-2m-124 4q-7 0-10 5-2 3-2 11c1 18 27 18 27 0 0-8-8-17-15-16m-222 2q-5 6 4 8 4-1 5-6a6 6 0 0 0-9-2m429 2c-5 6-3 13 4 13 5 0 11-6 9-11q-4-11-13-2m-397 0c-9 4-11 6-14 12-11 23 15 38 36 21 9-8 9-23 1-32-4-5-15-5-23-1m328 2q-6 3-7 8l-1 3-1 4v3l-7-1q-17 0-9 9l1 2q-3 1 2 2 6 1 13 7 5 6 5 19c1 7 1 8 4 14q7 11-1 10-5 0-5 4 1 4-3 3-4 1-8-8-4-7-9-7-3-1-3 8 2 9-9 13-6 4 0 12 6 10 0 22-6 9-1 10c4 0 16-11 16-16q3-13 0-18-4-10 2-8c1 0 9 16 9 19q1 5 8 8l4 1 5 1 3 2 4 5q6 6 7 14c2 7 9 6 10-1q0-4 5-3 15-1 7-9-4-4-2-7c2-3 2-11 0-12l-1-3q0-4-7-4c-4 0-11 6-11 10q0 2-3 1-2 0-2-3 1-5-8-9-7-3-7-10c0-10 17-11 21-1 4 11 15 5 14-7-1-5-1-5-8-8l-2-4-2-6v-7c3-13-8-25-15-15-4 6-10 4-7-3l2-9v-5h4q7-1 8-5l2-5v-8l-3-7-1-2-1-1c0-4-7-5-12-2m44 5-4 8-3 8c-2 2-2 10 1 12q3 5 10-2l10-8q9-3 8-7c0-7-17-15-22-11m46 2c-3 5 6 15 15 17q11 4-1 9c-9 4-4 13 5 9q9-3 8-8l1-5q2-10-3-12c-3-1-11-6-15-10q-6-6-10 0m-342 1c-2 1-1 7 1 8 3 3 6-2 4-6q-3-5-5-2m-228 1c-3 2-2 7 1 7q6-1 7-6-3-3-8-1m195 4a7 7 0 0 0-3 7c0 8 7 12 12 8q7-5 3-11-5-9-12-4m-183 4q-4 3-7 8l-3 6 2 5q4 17 21 17l9 2 6 2q5 0 12 5 5 5 9 0 8-7-3-12-11-6-18-4-7 3-8-1l-2-4-4-6-2-7-2-5c0-5-6-8-10-6m369-1c-12 6-8 32 6 35q11 4 13-16 0-11-6-15l-2-1-1-1-3-1q-2-3-7-1m291 2q-10 6-6 22 5 14 16 10 11-6 4-21-3-6-1-8c3-5-5-8-13-3m-577 2q-12 7-5 16 4 4 4 9 0 10 6 13 10 5 12-6l1-5c2-2 4-13 3-15l-10-13q-5-2-11 1m519 0q-7 3-9 14c-1 3 2 10 6 12 12 7 25-9 17-21-2-3-8-7-10-7zm107 2c-8 6-11 16-6 21q13 12 18 6c4-4 4-5 4-14q0-9-1-7h-1c0-3-6-8-8-8zm-361 2c-2 3 0 8 4 7 2-1 2-7-1-8zm178 4q-7 5-8 11l-1 3c-3 3-2 11 3 15l8 10 4 5-2 4-2 5q-1 5-9 5-4-1-7 1c-4 2-2 10 3 12l7 4a23 23 0 0 0 25 1q7-3-2-10c-5-4-5-4-5-9 0-6 0-6 5-10q5-4 4-6-2-6 4-10 6-7-4-8-4 0-4-3l-1-3-1-3-3-8q-5-13-14-6m104 0q-4 6 2 10 6 3 11-2c5-6-7-14-13-8m-208 11c-10 10-10 15-1 24q7 7 13 1c4-4 5-18 1-21l1-4q3-6-4-7-2-1-10 7m-299 2-4 6q-4 7-13 13c-9 4-7 14 3 16 15 3 15 3 16-8q1-9 5-16 6-11 0-12-6-2-7 1m76 1q-9 4-10 8c-2 14-10 15-10 2q1-6-5-6-5 1-5 10 0 12-6 11l-1-5c0-5-5-12-8-12l-5-2q-11-6-17 11c-5 12 0 23 12 25q7 2-2 3c-8 0-9 2-7 16l3 17q1 4-4 4-15 3-12 11 8 12 14 5c7-6 22-8 28-4 8 4 17-4 13-14l-2-4q-3 0 1-7c8-10 1-25-9-21-9 2-15 15-10 22q2 2-1 2-6-1-6-11 2-18 16-19 13 0 13-10 1-5 4 1 4 7 9 7c3 0 10 3 10 5q0 3-8 1-10-3-9 8 0 19 15 10 6-4 13-1l7 4 8 5c11 6 29-2 29-13l1-4v-10l-3-7q-1-7-6-6c-12 0-21 15-15 26q3 4 1 4-5 1-8-3l-3-7-3-5q-4-1-5-5l-3-5q-5-6-2-12c2-5 2-5 1-9q-4-7 1-9 5-3 2-7c-1-3-11-3-16 0m423 7q-13 8-4 25l4 7c2 5 14 3 15-2a26 26 0 0 0-4-24l-2-2q-2-9-9-4m-228 5q-3 3 2 8l4 7 6 8 4 6q2 7 8-5c2-6 1-7-4-13l-8-9c-2-4-9-6-12-2m-404 1q-3 5 6 8c10 5 14-2 4-7q-9-4-10-1m583 0-4 2c-4 1-10 7-10 11q0 5 5 10l3 4q3 6 10-2c5-5 6-7 6-15q0-14-10-10m108 1q-15 5-6 11 8 8 12-4 4-10-6-7m-180 3q-4 8 0 9c4 0 7-7 4-10q-3-3-4 1m-443 1c-7 6-8 21-1 27 3 2-2 2-6 0q-6-6-11-1-7 5-2 12l4 5c1 5 8 12 12 12l6-4c11-7 24-5 28 4l3 4 1 3q1 5-5 4l-5 1q-9 3-19 1-11-4-14 9 0 7 5 10c4 1 6 1 14-5q7-5 16-4l7 1c4 1 10 6 10 9l1 3 4 9c2 11 3 11 12 11 10 0 11-1 10-11q0-12-5-11-9 0-9-9l-2-9v-4q5-3 0-9c-4-4-4-3 1-8l3-6-4-9q-2-1 1-6 4-6-5-8c-3 0-9 3-10 4-3 3-12 5-13 3l-4-1q-6 0-3-8v-5l-1-3-8-11q-5-3-11 0m638 3-5 6q-3 9-6 10c-7 4 1 20 10 20q8-1 15-15 3-6-2-10-5-6-2-10c4-4-6-6-10-1m-674 3q-7 6-7 13c1 6 7 14 11 14 2 0 11-9 13-14 5-9-9-20-17-13m65 2q-4 2 0 8 4 4 7-2c3-5-4-10-7-6m-87 5c-1 2 3 9 6 9q4-1 0-8-2-3-6-1m584 7c-7 4-11 16-8 23l2 7q-1 7 8 6c10 0 21-6 18-10l-2-6a35 35 0 0 0-9-18q-4-5-9-2m-35 2q-3 2-1 5c4 3 10-1 7-5q-2-3-6 0m-150 7-3 3c-4 0-14 17-13 23q4 14 16 18 16 4 9 9-4 5-3 9 6 6 10-7l4-6q2-2-1-6l-1-4-3-7-3-8-3-6c-3-5-3-6-3-13q0-9-3-8-2 0-3 3m226 3q-9 9-4 18 3 7-2 6-10 0-6 8 4 5 5 15 0 9 5 8 8-1 8-15 0-11 6-11 5 1 7-7c2-9 1-11-2-18l-4-6-5-1q-5-1-8 3m-62 1q-4 4 0 7c4 1 7-5 5-8q-2-2-5 1m-196 10q-2 0 6 11 3 1 5-5c1-6-7-11-11-6m322 1q-4 4 2 7 6-1 5-6-3-3-7-1m-153 9q-8 7-5 13 16 23 23 8c8-15-6-31-18-21m-467 1c-5 3-4 9 1 10 6 0 9-8 4-10zm198 4q-3 0-7 5c-7 7-5 16 4 19l6 3c9 7 15-5 9-17q-5-9-1-7c2 0 7 6 9 10 3 5 8 2 6-4-2-7-16-12-26-9m405 1q-12 5-13 18c0 5 3 13 6 13q4 2 3 9-3 13 12 8 12-6 12-9 4-6-3-6h-3v-7q0-6-3-11-6-7-1-9 5-4-1-6zm-451 2c-2 1-1 7 2 7q4-1 4-6-1-4-6-1m-243 2q-11 3-12 19c0 6 0 6 4 10q9 9 19-1l4-3q2-2 3-9 0-10-8-15c-5-2-5-2-10-1m608 1c-6 2-8 10-5 15 10 16 22 19 19 5l-1-8q0-5-3-8-5-7-10-4m-349 1q-4 4 3 5 5 0 6-4c0-3-6-4-9-1m468 1c-5 2-2 11 3 11s7-9 3-11q-3-3-6 0m-258 6-3 4-1 1-1 3q-4 17 8 20 5 1 7 4 7 9 18-1c8-7 8-15 0-12q-5 6-5-4c-3-14-16-23-23-15m-70 0c-2 3 4 10 9 9q4-2-1-7-6-6-8-2m-309 15a14 14 0 0 0-4 18q1 4-3 2l-8-5-4-1c-3 0-10-3-10-5q-1-7-13-7-15 0-7 7l18 9 2 2 3 1q2 0 2 4 2 15 14 10l7-2q10 0 10-4l5-4q11-4 3-21-5-12-15-4m445-1c-3 1-4 6-2 7l6 7c5 7 5 7 4 10-4 9-2 17 4 14 2 0 6-7 6-10q0-5 8-2l6 2 2 1h8c2-3-3-11-7-11l-3-2-6-4-11-8-10-5q-1-2-5 1m-259 3c-7 3-8 6-9 17-1 12 0 13 6 11a21 21 0 0 0 14-9c4-4 2-16-3-19q-3-3-8 0m46-1q-10 6-8 17c1 4 8 10 10 10 7 0 14-9 14-16 0-4-9-13-12-12zm72 1q-6 3 6 10l6 6q6 6 11-6 6-4-7-7l-8-4q-4-2-8 1m178 5c-1 2 1 7 3 7q3-1 4-5c0-4-5-6-7-2m29 0-1 3-1 3c-3 1 2 7 6 6q5-3 4-9-3-5-8-3m-485 4q-2 4 1 7c4 4 7-4 3-7q-2-3-4 0m399 2-3 4-1 3c-3 2 0 11 4 10q1-1 4 1 6 6 8 1 1-3 3-3 4-1 3-9c-1-9-11-13-18-7m115-2q-6 1-7 6c-2 3-3 12-1 12l2 4 5 5 5 2q6 4 8-11c2-10-6-20-12-18m-176 5 2 6 2 6q4 11 12 3 6-6 0-11c-6-7-16-10-16-4m-33 2c-3 4-9 16-9 21a19 19 0 0 0 11 12l3 1c3 0 9 5 9 8l2 3q5 2 5-3l1-3v-6l-1-4-2-5-2-6-2-6-1-9v-6l-5-1q-4-1-9 4m-118 9c0 2 7 13 10 14s5-4 3-6l-2-3-2-1-3-3c-1-3-6-4-6-1m392 1c-5 1-11 11-11 18q0 8 10 14l8 4c5 3 17-4 15-10l-1-7q1-3-8-12c-8-8-9-8-13-7m-697 4c0 3 3 9 5 9q3 0 2-8-3-6-7-1m102 3c-1 2 5 11 9 11 3 0 3-10 0-12q-6-3-9 1m483-1q-6 1-10 10-6 9-9 0 0-5-3-4h-3v6q1 14 12 14 4-1 6 4 5 9 17 8 14 0 8-7l-2-6c3-9 2-13-7-22q-4-5-9-3m-503 8c-5 5-4 13 1 16 8 5 18 0 18-7 0-10-12-16-19-9m-11 17q-5 3-6 7c1 5 13 3 13-2q-1-6-7-5m314 1-8 1q-14 0-5 8c10 8 13 7 19-3q6-11-6-6m-206 6q0 7 5 9 10 4 1-6-6-6-6-3m-173 3q-5 2-12 8-3 2 1 2l6-2c5-6 17-6 21-1l5 3h3l-2-3q-9-9-22-7m119 4-11 6h38l-6-3c-6-4-16-5-21-3"
        mask="url(#16282281824-posters-1720553644717-horizontal-mask)" itemprop="bold" fill-opacity="0.90"
        fill-rule="evenodd" stroke="none" fill="url(#16282281824-posters-1720553644717-vertical-bold)"></path>
    </pattern>
    <rect id="16282281824-posters-1720553644717-pattern-render" fill="url(#16282281824-posters-1720553644717-pattern)"
      width="100%" height="100%"></rect>
  </defs>
  <radialGradient id="lightbar" cx="50%" cy="200%" fy="0" r="201%">
    <stop offset="0%" style="stop-color: rgb(255, 255, 255); stop-opacity: 0.1;"></stop>
    <stop offset="10%" style="stop-color: rgb(0, 0, 0); stop-opacity: 0.1;"></stop>
    <stop offset="30%" style="stop-color: rgb(0, 0, 0); stop-opacity: 0.3;"></stop>
    <stop offset="90%" style="stop-color: rgb(0, 0, 0); stop-opacity: 0.55;"></stop>
    <stop offset="100%" style="stop-color: rgb(0, 0, 0); stop-opacity: 0.6;"></stop>
  </radialGradient>
  <g class="radial">
    <radialGradient id="16282281824-posters-1720553644717-radial" gradientUnits="userSpaceOnUse">
      <stop itemprop="radial" stop-color="#878582" offset="0%"></stop>
      <stop itemprop="radial" stop-color="#878682" offset="15%"></stop>
      <stop itemprop="radial" stop-color="#7f7e7a" offset="30%"></stop>
      <stop itemprop="radial" stop-color="#7a7975" offset="45%"></stop>
      <stop itemprop="radial" stop-color="#72716e" offset="60%"></stop>
      <stop itemprop="radial" stop-color="#6d6c69" offset="75%"></stop>
      <stop itemprop="radial" stop-color="#6d6c69" offset="90%"></stop>
    </radialGradient>
    <radialGradient id="16282281824-posters-1720553644717-radial-background" gradientUnits="userSpaceOnUse">
      <stop stop-color="#d3cec5" offset="0%"></stop>
      <stop stop-color="#d3d0c5" offset="15%"></stop>
      <stop stop-color="#d3cec5" offset="30%"></stop>
      <stop stop-color="#d3d0c5" offset="45%"></stop>
      <stop stop-color="#d3cdc5" offset="60%"></stop>
      <stop stop-color="#d3d0c5" offset="75%"></stop>
      <stop stop-color="#d3cdc5" offset="90%"></stop>
    </radialGradient>
    <radialGradient id="16282281824-posters-1720553644717-radial-light" gradientUnits="userSpaceOnUse">
      <stop stop-color="#9b9a97" offset="0%"></stop>
      <stop stop-color="#9b9a97" offset="15%"></stop>
      <stop stop-color="#9b9a97" offset="30%"></stop>
      <stop stop-color="#9b9a97" offset="45%"></stop>
      <stop stop-color="#9b9997" offset="60%"></stop>
      <stop stop-color="#9b9a97" offset="75%"></stop>
      <stop stop-color="#9b9997" offset="90%"></stop>
    </radialGradient>
    <radialGradient id="16282281824-posters-1720553644717-radial-regular" gradientUnits="userSpaceOnUse">
      <stop stop-color="#82807d" offset="0%"></stop>
      <stop stop-color="#82817d" offset="15%"></stop>
      <stop stop-color="#82807d" offset="30%"></stop>
      <stop stop-color="#82817d" offset="45%"></stop>
      <stop stop-color="#82807d" offset="60%"></stop>
      <stop stop-color="#82817d" offset="75%"></stop>
      <stop stop-color="#82807d" offset="90%"></stop>
    </radialGradient>
    <radialGradient id="16282281824-posters-1720553644717-radial-medium" gradientUnits="userSpaceOnUse">
      <stop stop-color="#51504d" offset="0%"></stop>
      <stop stop-color="#51504d" offset="15%"></stop>
      <stop stop-color="#51504d" offset="30%"></stop>
      <stop stop-color="#51504d" offset="45%"></stop>
      <stop stop-color="#514f4d" offset="60%"></stop>
      <stop stop-color="#51504d" offset="75%"></stop>
      <stop stop-color="#514f4d" offset="90%"></stop>
    </radialGradient>
    <radialGradient id="16282281824-posters-1720553644717-radial-bold" gradientUnits="userSpaceOnUse">
      <stop stop-color="#2f2e2d" offset="0%"></stop>
      <stop stop-color="#2f2e2d" offset="15%"></stop>
      <stop stop-color="#2f2e2d" offset="30%"></stop>
      <stop stop-color="#2f2e2d" offset="45%"></stop>
      <stop stop-color="#2f2e2d" offset="60%"></stop>
      <stop stop-color="#2f2e2d" offset="75%"></stop>
      <stop stop-color="#2f2e2d" offset="90%"></stop>
    </radialGradient>
  </g>
  <g class="vertical">
    <linearGradient id="16282281824-posters-1720553644717-vertical" gradientUnits="userSpaceOnUse" x1="0" x2="0" y1="0"
      y2="100%">
      <stop itemprop="vertical" stop-color="#878682" offset="0%"></stop>
      <stop itemprop="vertical" stop-color="#858380" offset="15%"></stop>
      <stop itemprop="vertical" stop-color="#7f7d7a" offset="30%"></stop>
      <stop itemprop="vertical" stop-color="#7a7975" offset="45%"></stop>
      <stop itemprop="vertical" stop-color="#72716e" offset="60%"></stop>
      <stop itemprop="vertical" stop-color="#6d6c69" offset="75%"></stop>
      <stop itemprop="vertical" stop-color="#6d6c69" offset="90%"></stop>
    </linearGradient>
    <linearGradient id="16282281824-posters-1720553644717-vertical-background" gradientUnits="userSpaceOnUse" x1="0"
      x2="0" y1="0" y2="100%">
      <stop stop-color="#cdcdcb" offset="0%"></stop>
      <stop stop-color="#cdcccb" offset="15%"></stop>
      <stop stop-color="#cdcccb" offset="30%"></stop>
      <stop stop-color="#cdcdcb" offset="45%"></stop>
      <stop stop-color="#cdcccb" offset="60%"></stop>
      <stop stop-color="#cdcdcb" offset="75%"></stop>
      <stop stop-color="#cdcdcb" offset="90%"></stop>
    </linearGradient>
    <linearGradient id="16282281824-posters-1720553644717-vertical-light" gradientUnits="userSpaceOnUse" x1="0" x2="0"
      y1="0" y2="100%">
      <stop stop-color="#aea684" offset="0%"></stop>
      <stop stop-color="#aea084" offset="15%"></stop>
      <stop stop-color="#ae9d84" offset="30%"></stop>
      <stop stop-color="#aea684" offset="45%"></stop>
      <stop stop-color="#ae9d84" offset="60%"></stop>
      <stop stop-color="#aea684" offset="75%"></stop>
      <stop stop-color="#aea484" offset="90%"></stop>
    </linearGradient>
    <linearGradient id="16282281824-posters-1720553644717-vertical-regular" gradientUnits="userSpaceOnUse" x1="0" x2="0"
      y1="0" y2="100%">
      <stop stop-color="#82817d" offset="0%"></stop>
      <stop stop-color="#82807d" offset="15%"></stop>
      <stop stop-color="#82807d" offset="30%"></stop>
      <stop stop-color="#82817d" offset="45%"></stop>
      <stop stop-color="#82807d" offset="60%"></stop>
      <stop stop-color="#82817d" offset="75%"></stop>
      <stop stop-color="#82817d" offset="90%"></stop>
    </linearGradient>
    <linearGradient id="16282281824-posters-1720553644717-vertical-medium" gradientUnits="userSpaceOnUse" x1="0" x2="0"
      y1="0" y2="100%">
      <stop stop-color="#51504d" offset="0%"></stop>
      <stop stop-color="#51504d" offset="15%"></stop>
      <stop stop-color="#514f4d" offset="30%"></stop>
      <stop stop-color="#51504d" offset="45%"></stop>
      <stop stop-color="#514f4d" offset="60%"></stop>
      <stop stop-color="#51504d" offset="75%"></stop>
      <stop stop-color="#51504d" offset="90%"></stop>
    </linearGradient>
    <linearGradient id="16282281824-posters-1720553644717-vertical-bold" x1="0" x2="0" y1="0" y2="100%">
      <stop stop-color="#2f2e2d" offset="0%"></stop>
      <stop stop-color="#2f2e2d" offset="15%"></stop>
      <stop stop-color="#2f2e2d" offset="30%"></stop>
      <stop stop-color="#2f2e2d" offset="45%"></stop>
      <stop stop-color="#2f2e2d" offset="60%"></stop>
      <stop stop-color="#2f2e2d" offset="75%"></stop>
      <stop stop-color="#2f2e2d" offset="90%"></stop>
    </linearGradient>
  </g>
  <g class="horizontal">
    <linearGradient id="16282281824-posters-1720553644717-horizontal" x1="0" x2="100%" y1="0" y2="0"
      gradientUnits="userSpaceOnUse">
      <stop itemprop="horizontal" stop-color="#8a8885" offset="0%"></stop>
      <stop itemprop="horizontal" stop-color="#7f7e7a" offset="15%"></stop>
      <stop itemprop="horizontal" stop-color="#757470" offset="30%"></stop>
      <stop itemprop="horizontal" stop-color="#72716e" offset="45%"></stop>
      <stop itemprop="horizontal" stop-color="#686764" offset="60%"></stop>
      <stop itemprop="horizontal" stop-color="#686664" offset="75%"></stop>
      <stop itemprop="horizontal" stop-color="#6b6a66" offset="90%"></stop>
    </linearGradient>
    <linearGradient id="16282281824-posters-1720553644717-horizontal-background" gradientUnits="userSpaceOnUse" x1="0"
      x2="100%" y1="0" y2="0">
      <stop stop-color="#cdcccb" offset="0%"></stop>
      <stop stop-color="#cdcccb" offset="15%"></stop>
      <stop stop-color="#cdcdcb" offset="30%"></stop>
      <stop stop-color="#cdcccb" offset="45%"></stop>
      <stop stop-color="#cdcdcb" offset="60%"></stop>
      <stop stop-color="#cdcccb" offset="75%"></stop>
      <stop stop-color="#cdcdcb" offset="90%"></stop>
    </linearGradient>
    <linearGradient id="16282281824-posters-1720553644717-horizontal-light" gradientUnits="userSpaceOnUse" x1="0"
      x2="100%" y1="0" y2="0">
      <stop stop-color="#9b9a97" offset="0%"></stop>
      <stop stop-color="#9b9a97" offset="15%"></stop>
      <stop stop-color="#9b9a97" offset="30%"></stop>
      <stop stop-color="#9b9997" offset="45%"></stop>
      <stop stop-color="#9b9a97" offset="60%"></stop>
      <stop stop-color="#9b9997" offset="75%"></stop>
      <stop stop-color="#9b9a97" offset="90%"></stop>
    </linearGradient>
    <linearGradient id="16282281824-posters-1720553644717-horizontal-regular" gradientUnits="userSpaceOnUse" x1="0"
      x2="100%" y1="0" y2="0">
      <stop stop-color="#968769" offset="0%"></stop>
      <stop stop-color="#968769" offset="15%"></stop>
      <stop stop-color="#968d69" offset="30%"></stop>
      <stop stop-color="#968469" offset="45%"></stop>
      <stop stop-color="#968b69" offset="60%"></stop>
      <stop stop-color="#968469" offset="75%"></stop>
      <stop stop-color="#968d69" offset="90%"></stop>
    </linearGradient>
    <linearGradient id="16282281824-posters-1720553644717-horizontal-medium" gradientUnits="userSpaceOnUse" x1="0"
      x2="100%" y1="0" y2="0">
      <stop stop-color="#5d5441" offset="0%"></stop>
      <stop stop-color="#5d5441" offset="15%"></stop>
      <stop stop-color="#5d5841" offset="30%"></stop>
      <stop stop-color="#5d5241" offset="45%"></stop>
      <stop stop-color="#5d5641" offset="60%"></stop>
      <stop stop-color="#5d5241" offset="75%"></stop>
      <stop stop-color="#5d5841" offset="90%"></stop>
    </linearGradient>
    <linearGradient id="16282281824-posters-1720553644717-horizontal-bold" gradientUnits="userSpaceOnUse" x1="0"
      x2="100%" y1="0" y2="0">
      <stop stop-color="#2f2e2d" offset="0%"></stop>
      <stop stop-color="#2f2e2d" offset="15%"></stop>
      <stop stop-color="#2f2e2d" offset="30%"></stop>
      <stop stop-color="#2f2e2d" offset="45%"></stop>
      <stop stop-color="#2f2e2d" offset="60%"></stop>
      <stop stop-color="#2f2e2d" offset="75%"></stop>
      <stop stop-color="#2f2e2d" offset="90%"></stop>
    </linearGradient>
  </g>
  <g class="masks">
    <mask id="16282281824-posters-1720553644717-pattern-mask" maskUnits="userSpaceOnUse"
      maskContentUnits="userSpaceOnUse">
      <pattern id="pattern" x="0" y="0" width=".0133" height=".0144" viewBox="0 0 23.07 40">
        <path
          d="M17.62 0l-6.07 10.5m2.74 4.76L8.22 4.75m-5.48 0h12.13M.01 0h23.07M6.07 20L0 9.5m2.74-4.75l-6.07 10.5m-5.48 0H3.33m8.2 4.75L0 .02-11.54 20m40.68 0L23.07 9.5m2.74-4.75l-6.06 10.5m-5.49 0H26.4M34.6 20L23.08.02 11.53 20m-5.46 0L0 30.51m2.74 4.75l-6.07-10.5m-5.48 0H3.33m8.2-4.75L0 40l-11.54-19.98zM17.6 40l-6.06-10.5m2.74-4.76L8.2 35.25m-5.48 0h12.13M0 40h23.07L11.54 20.01m17.6 0l-6.07 10.5m2.74 4.75l-6.06-10.5m-5.49 0H26.4M11.53 20h23.08L23.07 40"
          stroke-linecap="round" stroke-width="3.5" stroke="white"
          fill="url(#16282281824-posters-1720553644717-horizontal-background)"></path>
      </pattern>
      <rect width="100%" height="100%" fill="url(#pattern)"></rect>
    </mask>
    <mask id="16282281824-posters-1720553644717-horizontal-mask" maskUnits="userSpaceOnUse"
      maskContentUnits="userSpaceOnUse">
      <rect width="100%" height="100%" fill="url(#16282281824-posters-1720553644717-horizontal-background)"></rect>
    </mask>
    <mask id="16282281824-posters-1720553644717-radial-mask" maskUnits="userSpaceOnUse"
      maskContentUnits="userSpaceOnUse">
      <rect width="100%" height="100%" fill="url(#16282281824-posters-1720553644717-radial-background)"></rect>
    </mask>
    <mask id="16282281824-posters-1720553644717-vertical-mask" maskUnits="userSpaceOnUse"
      maskContentUnits="userSpaceOnUse">
      <rect width="100%" height="100%" fill="url(#16282281824-posters-1720553644717-vertical-background)"></rect>
    </mask>
  </g>
  <use href="#16282281824-posters-1720553644717-pattern-render"></use>
  <g>
    <use href="#16282281824-posters-1720553644717-background"></use>
    <use href="#16282281824-posters-1720553644717-light"></use>
    <use href="#16282281824-posters-1720553644717-regular"></use>
    <use href="#16282281824-posters-1720553644717-medium"></use>
    <use href="#16282281824-posters-1720553644717-bold"></use>
  </g>
  <g itemprop="animation">
    <animate href="#16282281824-posters-1720553644717-light" attributeName="stroke-opacity" repeatCount="indefinite"
      dur="5s" values="0.9;0.0;0.9"></animate>
    <animate href="#16282281824-posters-1720553644717-regular" attributeName="stroke-opacity" repeatCount="indefinite"
      dur="4s" values="0.9;0;0.9"></animate>
    <animate href="#16282281824-posters-1720553644717-medium" attributeName="stroke-opacity" repeatCount="indefinite"
      dur="5s" values="0.9;0;0.9"></animate>
    <animate href="#16282281824-posters-1720553644717-bold" attributeName="stroke-opacity" repeatCount="indefinite"
      dur="3s" values="0.9;0;0.9"></animate>
    <animate href="#16282281824-posters-1720553644717-regular" attributeName="fill-opacity" repeatCount="indefinite"
      dur="8s" values="0.9;0.75;0.95;0.8;0.9;"></animate>
    <animate href="#16282281824-posters-1720553644717-radial-background" attributeName="cx" repeatCount="indefinite"
      dur="34s" values="0%;33%;100%;0%;100%;0%;"></animate>
    <animate href="#16282281824-posters-1720553644717-radial-background" attributeName="cy" repeatCount="indefinite"
      dur="55s" values="0%;100%;33%;100%;66%;0%"></animate>
    <animate href="#16282281824-posters-1720553644717-vertical-light" attributeName="x1" repeatCount="indefinite"
      dur="55s" values="0%;33%;100%;0%;133%;0%;"></animate>
    <animate href="#16282281824-posters-1720553644717-vertical-light" attributeName="y1" repeatCount="indefinite"
      dur="86s" values="0%;100%;33%;100%;66%;0%"></animate>
    <animate href="#16282281824-posters-1720553644717-horizontal-regular" attributeName="x1" repeatCount="indefinite"
      dur="34s" values="0%;100%;66%;0%;33%;133%;0%"></animate>
    <animate href="#16282281824-posters-1720553644717-horizontal-regular" attributeName="y1" repeatCount="indefinite"
      dur="55s" values="0%;66%;100%;33%;100%;66%;0%"></animate>
    <animate href="#16282281824-posters-1720553644717-vertical-medium" attributeName="x1" repeatCount="indefinite"
      dur="34s" values="0%;100%;66%;0%;33%;133%;0%"></animate>
    <animate href="#16282281824-posters-1720553644717-vertical-medium" attributeName="y1" repeatCount="indefinite"
      dur="55s" values="0%;66%;100%;33%;100%;66%;0%"></animate>
    <animate href="#16282281824-posters-1720553644717-vertical-bold" attributeName="x1" repeatCount="indefinite"
      dur="34s" values="0%;100%;66%;0%;33%;133%;0%"></animate>
    <animate href="#16282281824-posters-1720553644717-vertical-bold" attributeName="y1" repeatCount="indefinite"
      dur="55s" values="0%;66%;100%;33%;100%;66%;0%"></animate>
  </g>
</svg>
