<svg id="16282281824-posters-1720553930422" itemscope="" itemtype="/posters"
  itemid="/+16282281824/posters/1720553930422" viewBox="0 0 769 512" preserveAspectRatio="xMidYMid meet" tabindex="0"
  class="animate landscape" xmlns="http://www.w3.org/2000/svg">
  <!---->
  <defs class="graphic">
    <pattern id="16282281824-posters-1720553930422-pattern" width="769" height="512" viewBox="0 0 769 512"
      patternUnits="userSpaceOnUse" preserveAspectRatio="xMidYMid meet">
      <rect itemprop="background" width="769" height="512" tabindex="-1"
        id="16282281824-posters-1720553930422-background" fill-opacity="1"
        fill="url(#16282281824-posters-1720553930422-radial-background)"></rect>
      <!---->
      <path id="16282281824-posters-1720553930422-light"
        d="M3 3q-4 2-3 9l1 6 2-2 4-3 7-6 7-7h-7C7 0 6 0 3 3m20 5-8 9c0 2-12 13-14 13l-1 8c0 10-2 12 28-19q7-8 10-9l25 22 28 26q8 8 12 3 4-4-2-9l-10-8L48 3q-3-4-10-3h-7zm29-7 5 4 6 4 28 24q4 4 7 2 10-3-9-18L77 6l-7-6h-9zm32 0 10 7q8-1 6-6c-1-2-16-3-16-1m36 4q-12 13-7 16 6 5 23-15l5-6h-16zm22 1-12 12c-8 7-18 19-18 22-2 4 5 8 7 4l1-2 21-19c6-7 18-18 20-18s4 2 20 16l8 6 7 6c10 10 12 11 15 8q4-6-19-24a26 26 0 0 1-12-14l-2-3h-30zm44-5c0 1 14 14 18 16h5q7-4-2-12l-4-5h-9zm37 0-2 3c-5 5-1 11 4 8 4-2 12-10 12-11l-7-1zm13 13c-15 15-17 17-13 19q3 2 11-3 9-7-4 7-15 15-7 17c4 1 25-17 39-33l14-13c1 0 10 8 12 12l11 10 20 18q18 19 15 2c-1-4-3-6-17-19q-7-6-7-8 0-7-3-4l-1 2-9-9a36 36 0 0 0-34-12h-13zm60-13a119 119 0 0 0 27 23q9 4 10-4 1-4-10-10-4-1-8-6c-4-4-5-4-12-4zm52 4q-7 7-4 10 3 5 18-12 5-4-4-3-6-1-10 5m32-3-9 11-17 18q-14 13-9 16 4 4 15-9l19-19c13-13 12-13 37 11s28 26 32 22l2-3c0-2-11-14-21-21l-14-14C402 0 401 0 390 0q-9 0-10 2m29-1 1 1 5 4 19 17c5 5 12 7 13 3 2-4 0-7-11-17l-11-9h-8zm60 2-3 4-7 7c-2 0-5 9-4 12q4 8 21-10l13-15-8-1c-8 0-9 0-12 3m24 1-7 9-10 11-6 7q-17 16-11 21c3 2 14-6 22-18l8-9 6-6 8-10c5-7 5-7 10-4l16 14q25 22 29 16l1-2q-2-4-26-25l-8-7-15-1h-14zm43-3c14 14 19 17 23 16q6-4-3-14c-4-3-5-3-13-3q-9 0-7 1m37 5q-11 11-6 13 4 7 21-12 8-9-2-7h-6zm27 4c-32 30-32 30-31 32q1 4 4 4l14-12 22-23q6-6 11-7l1 3q1 3-7 12l-43 43q-6 5-3 8 4 3 11-3l6-6 17-17 12-11q10-12 10-1c1 3 0 5-16 22l-30 30q-14 14-5 15c3 0 5-2 16-11l12-12 9-9q11-12 11-7l-9 11-18 23-5 5-8 8c-10 11-12 13-10 16q4 4 10-2l28-31 7-8c12-16 16-18 24-10l7 6 12 11c21 20 23 22 27 19l2-3c0-1-5-9-7-10l-29-27-21-19-3-3 2-2q3-3 5-2c3 0 20 16 35 31l13 11q6-1 5-8c-1-3-15-17-28-28l-10-9-16-16-4-3q2-3 8 2l10 9 20 18 8 6q9 9 11-1 1-3-10-12l-14-13-19-17C632 0 632 0 620 0h-10zm43-10 29 29q15 16 16 6c2-5-3-10-24-30l-6-5zm26 1c0 2 13 14 15 14 4 0 5-8 1-13-2-2-16-3-16-1m38 8c-13 14-14 16-11 20 4 3 7 1 17-11l9-10c7-8 7-8 0-8h-7zm36-7 24 25q3 3 2-7v-7l-7-7-6-6h-7q-7 0-6 2m-14 9-6 8-16 17c-11 12-13 14-11 18q3 3 8 1c2-2 15-14 15-16l13-15q12-12 8-15-2-6-11 2m-223 1q-2 0-12 14l-16 19c-7 7-14 17-14 19q2 3 6 4l9-9 23-24 1 4q0 4-4 9l-9 11-6 8c-4 3-21 19-22 22q-1 6 5 7c3 0 13-10 19-19 3-5 10-11 13-13q2-2 8 4l11 10 19 17c14 13 17 14 19 11q7-3-8-16l-16-14-10-9-10-8q-6-5-3-8 4-4 22 14c17 16 20 18 24 15q5-2-5-11l-12-12-10-9-14-12c0-1-8-3-9-2q-3 1 2-5 4-6 22 11c21 19 25 22 28 17q4-2-12-17l-16-14q-17-17-23-14m-354 4-7 9-10 13c-25 27-24 26-22 29q4 6 26-19l9-11 8-9 4-4 14 13 27 26q8 5 9-3c0-2-37-41-43-43-3-2-12-2-15-1m590 1c-4 4-1 8 21 29q8 9 6-4v-7l-5-4-9-9q-10-10-13-5M28 28 12 40A25 25 0 0 0 1 67l3-4 4-4 8-7 8-6 4-3c5-3 14-12 15-15q2-3-1-5c-3-3-3-3-14 5m344 6-21 23c-8 9-9 11-6 14q4 5 15-9c9-12 22-25 27-28q1-2 7 2l5 3 3 4 16 15c31 28 31 29 34 28q13-3-16-24l-18-18c-27-26-29-26-46-10m-107-5-22 21-11 11q-10 9-9 11 2 6 9 1c10-9 42-41 42-43q-1-7-9-1m15 2q-1 5 3 9c4 2 19 16 33 30 12 11 14 13 17 10 3-4 0-8-19-25l-17-17c-9-8-10-9-13-9q-4 0-4 2m455 4-8 7-16 17c-13 14-15 16-11 18 2 2 9-3 10-7l2-2 8-6q13-14 18-15c3-2 6 0 20 13l11 11v11l-9-8-12-11-4-2-5 2-8 3c-3 1-33 30-34 34q-2 3 1 4c3 3 5 2 17-10 17-16 23-21 26-21l6 3 13 12q9 8 9 11V56l-10-11-15-11c-5-2-5-3-9 1M47 36q-3 3 4 9l28 26 10 10q7 7 9 7 13 0 0-13L81 60C54 34 55 35 52 35zm110 2c-4 1-6 2-14 15l-4 5-5 6-13 15-10 12q-2 5 4 6c2 0 12-10 17-16l13-15 11-14c3-5 5-4 18 9 24 23 31 28 35 26q6-4-10-18l-16-16c-18-17-19-17-26-15M38 40l-3 1-6 5-11 11L6 67l-5 3v8l1 7v1l-1 8 1 8 5-5 14-13q13-13 17-14c2 0 9-7 9-9 0-6-8-8-13-4l-7 6-3 2 2-2 9-10q12-10 8-12-1-3-5-1m353 11-31 31-10 11q-12 11-4 16 1 3 9-6l24-25 13-12c5-4 11 0 41 28 13 13 15 14 18 14q11-1-1-13l-38-36-10-8zm-122 3-12 10c-33 31-39 38-32 41 4 1 5 0 25-19 21-21 25-23 30-18l42 35q10 8 12 3 7-3-12-17l-25-22c-15-13-21-16-28-13M152 64a28 28 0 0 0-10 11l-4 5-4 5-15 18c-2 2-7 10-7 12q2 8 11-1l13-15q22-27 28-25l16 15 24 23q8 6 11 3 4-3-7-12l-33-34c-10-10-14-11-23-5M50 64q-3 4 3 11l35 31q8 9 12 6 5-2-3-10l-7-9-12-11-13-12c-5-5-13-9-15-6m451 13-7 8a193 193 0 0 0-29 32c-2 0-4 6-4 9q1 12 21-13l9-10q28-28 16-29zm-222 3-1 3a254 254 0 0 0 35 35l10 8c9 9 18 2 10-7-4-4-16-14-24-18l-12-11q-15-16-18-10m112 0-11 10-12 11c-12 10-25 24-25 27q1 9 13-2l7-6 16-15c13-13 16-15 20-13l28 26c16 16 21 20 24 19 6-2 3-12-5-20l-16-14q0 2-14-12-16-17-25-11M34 85c-9 10-23 24-30 29l-4 3v8q-1 12 5 5 8-6 0 3c-5 4-5 4-5 11l1 7 38-36q10-9 9-11-3-5-8-2l-6 4-11 9q-17 16 4-8l13-14q10-10 1-13-2 0-7 5m591-2-10 11-24 26c-17 18-20 21-19 25q2 5 16-10 10-11 19-17l16-16c9-10 7-10 25 7 17 16 33 30 36 30 6 0 5-9-1-14-4-2-26-23-36-33-12-12-16-14-22-9m-360 0c-3 1-22 19-38 35q-7 9-1 11c2 0 9-6 40-37q6-7 2-9l-1-1zm466 8c-33 35-34 37-29 40 3 3 5 1 17-12l15-15c8-9 12-8 25 5l10 11v-9l-1-9-12-10c-13-12-15-12-25-1m-578 0-10 11-7 8-14 16q-16 16-11 19 6 6 19-10c9-13 26-31 31-34 4-2 5-1 21 15 21 21 29 26 33 22 3-4 0-8-22-28l-17-16c-13-13-13-13-23-3m354-2q-2 3 5 9l8 7 28 25q9 8 11 3 7-4-12-19l-15-13q-21-19-25-12M47 90q-3 3 4 10l26 25q19 21 25 16 7-3-6-13l-21-21-17-16c-3-2-10-3-11-1m233 12q-4 3 10 15l24 23c14 14 17 16 20 14q6-4-5-14l-28-28q-16-17-21-10m217 5-16 16c-20 21-20 21-20 28q0 14 11 0l9-9 6-8q6-8 13-14 10-8 10-12 0-9-13-1m131-2v5l34 34c22 21 22 21 25 21q13 0-7-20l-24-23c-20-19-24-21-28-17m-368 10-19 19-13 11q-11 9-5 14c4 1 5 0 16-11l18-15c19-16 24-22 19-26q-3-7-16 8m127-7-24 23-13 15q-10 10-5 13c4 4 3 4 22-17 24-26 25-27 33-20 13 13 23 22 38 33q16 13 15 2c0-3-13-17-15-17s-15-11-20-17q-21-23-31-15m351 4-12 11-15 16q-19 19-6 20c3 0 4 0 17-15 23-27 22-27 37-12l10 10v-15l-8-7c-12-11-16-12-23-8m-575 2c-9 6-51 48-51 51q1 12 14-2l12-12 15-15c12-12 12-12 24-1l13 12 12 11q15 12 13-1c-1-3-22-25-24-25l-8-8q-14-16-20-10m350 1-1 3c0 3 2 5 15 15l6 6 7 6c13 12 17 15 20 11q6-4-6-13l-5-4-5-5-11-9-11-9q-4-3-9-1m-459 2c-2 0-19 16-42 39L1 166l-1 7q-1 12 7 1l12-11 17-16 19-19q4 1 14 10l9 8 14 12 9 5q9-1-7-18l-17-16-12-11q-6-2-11-1m562 7-25 25c-19 19-21 22-20 26q3 6 11-3c18-21 39-41 41-41 3 0 3 0 19 16l36 34c7 6 15 5 12-1-1-3-16-20-17-20q-2 0-9-8c-17-15-30-29-33-32q-6-8-15 4m-337 2v5l14 13c3 1 7 5 20 18q8 9 15 14c6 5 11-2 5-8l-37-34q-10-9-14-10zm219 8-30 33c-11 11-12 14-7 17 2 1 2 1 9-6 22-23 27-28 28-31q5-6 11-2c5 2 14 10 14 12l3 2 12 10c18 18 22 20 25 16q4-6-11-17l-26-24-9-8-7-6q-5-4-12 4m-118 5-14 13-11 12-11 13c0 4 6 5 10 2 13-13 40-41 40-43q2-5-3-5zm363-4-5 3-8 7-21 20q-12 13-6 16c3 1 9-3 33-27 11-9 13-9 25 3 8 9 8 9 8 0q1-8-2-9l-7-6-8-6c-5-2-5-2-9-1m-478 1c-5 4-37 35-40 40v3q3 8 21-12l16-17c8-8 9-9 9-12q-1-5-6-2m133 1v4a195 195 0 0 0 37 36q13 12 15 5 1-5-5-10l-6-5-8-7-15-14q-15-17-18-9m-349 1v8a193 193 0 0 0 30 29l7 6 6 5 4 2 1 1c0 2 5 1 7-1q7-9-5-13l-10-8-11-10-11-9q-16-15-18-10m116 5c-2 3 0 5 22 27s24 23 27 19q6-6-11-17c-6-4-6-4-16-15q-17-21-22-14m456 1q-2 0-3 4l-21 21c-23 23-26 27-23 31h4l37-36q5-8 8-9l15 13 14 14 17 15c13 12 17 14 21 8q4-4-11-15l-21-19-9-9-17-14-3-3q-3-5-8-1m-345 5c-3 1-1 5 16 22l20 20c18 14 23 16 25 12q2-3-6-10l-45-41-1-1c0-2-6-3-9-2m-242 9-20 18c-3 5-12 13-13 13l-1 8 1 7 18-21 3-3 1-1c2 0 19-18 21-23q1-4-2-5zm468-4-6 6c-3 5-15 18-25 28-11 11-13 14-13 18q1 12 11 2l12-13 6-8 10-12c8-9 12-9 21 1l12 12 14 11 7 6q9 10 13 4c1-4-3-10-22-25l-13-12-12-10-3-5c0-6-7-8-12-3m-347 0-29 31q-15 12-13 17 2 11 31-20l13-12 13 11c36 35 40 38 44 37q4-3 0-9l-21-19c-25-23-29-27-28-31q0-10-10-5m236 1c-7 4-46 44-46 46q0 10 17-6c25-24 30-28 34-27q4 0 22 17c26 25 28 27 31 23 4-3 3-5-12-19l-22-22q-19-19-24-12m350 2-3 5c-1 3-19 22-23 25-7 3-17 15-15 18 2 7 22-6 36-23 9-11 12-11 24-1l8 8 1-7v-7l-9-8c-11-10-14-12-19-10m-475 9-8 8-20 21c-15 15-16 17-14 19 4 3 7 1 32-26q19-19 15-22zm-213 2q-4 5 8 14l7 6 11 10c20 19 25 22 28 16 1-4 0-6-12-17l-18-17q-18-18-24-12m575 1c-3 1-48 44-52 50q-4 8 3 6c2-1 28-25 36-34q9-9 14-8l31 29q18 17 24 19 4 1 6-4c0-2-8-12-19-21q-21-18-25-24l-16-14zm-588 7-18 16-18 16-4 2v7l1 6 25-21 13-11q15-13 10-17-2-3-9 2m244 3q-2 3 1 8a218 218 0 0 0 43 38c7 6 13 2 8-5l-8-8-12-10-10-9q-19-20-22-14m210 14-23 23c-12 12-14 15-11 18s6 2 27-23c15-17 16-18 19-18q4 1 1 5l-7 9-11 11-11 12-10 11q-15 15-7 18c2 1 2 1 13-10 30-32 30-32 32-28q3 5-5 13l-8 8-18 19c-15 15-17 18-17 21q0 4 6 4c1 0 22-21 31-32 11-13 9-13 27 4l25 22c1 3 11 10 13 11q7 0 8-5 1-3-5-7l-7-6-9-8-10-8-13-11c-10-10-12-12-10-15q3-2 8 3l8 7 16 15c16 15 15 15 18 13q10-6-11-23l-7-6-27-24q-8-8-5-12t11 3l9 8 8 7q2 3 3 1t1 1l2 4 4 5c6 7 13 6 13 0 0-4-12-17-27-29l-20-17-5-4-5-4zm-103-12-15 14-19 18q-12 12-9 16c3 2 6 0 19-13q24-24 27-23 6 2 17 12l14 13 13 13q6 6 10 2c4-3 2-6-27-33-20-20-24-22-30-19m-235 6c-5 3-39 38-39 40q0 10 20-9l17-17q11-10 9-13-2-4-7-1m582 1c-4 2-9 7-25 24q-20 20-8 22c4 0 7-2 22-19l18-18q2-1 15 11c9 9 9 9 9 0 0-7 0-7-4-11l-10-7-3-2q-5-6-14 0m-685 2c-4 3-2 5 9 17l21 18 8 7q15 15 17 7c2-4 1-5-18-23l-15-15q-18-18-22-11m214 7-43 44q1 7 10 1 9-7 32-33c9-9 9-9 36 18l21 19q13 13 15 5c2-3 0-5-10-14l-26-24c-23-22-26-23-35-16m-224 1-5 2-6 6-9 8-11 10C0 235 0 235 0 242l1 7 12-11 23-21q15-12 13-16l-4-4zm123 2q-1 3 2 7l4 4 2 3-7-1q-12 0-16 8l-5 5c-7 4-26 23-27 27q0 5 5 4 4-2 19-17c14-13 18-16 20-16s16 13 31 28q11 12 17 15c6 1 8-5 3-10l-21-20q-25-30 6 0l11 10q3 3 7-1c2-4 1-5-15-21l-17-17-7-6-6-3c0-2-6-1-6 1m465 2q-1 4 5 9c5 3 27 24 37 34q11 13 15 9 7-5-6-17l-14-12-21-19q-12-9-16-4m-18 7-10 9-26 26q-4 6 2 6c5 0 45-40 45-46q-2-4-11 5m-222 0-23 22c-15 16-19 20-19 22q0 8 15-6l22-20q5 5-3 12l-11 12-18 22q-10 12 0 10l22-21q21-21 23-20c2 0 24 21 36 36 9 9 9 9 11 9q5 0 5-6c0-5-1-6-21-26-27-27-36-34-41-30l-2 1 9-8q1-1 19 15l22 19c6 5 13 6 13 1 0-3-20-24-23-24q-1 2-13-12c-14-13-18-14-23-8m-341-1-1 3c0 4 20 24 34 34l12 10q11 9 12 2c0-2-2-5-29-30-20-19-25-23-28-19m684 5-6 6-9 9q-26 24-19 29 5 5 17-10l8-9 11-10c10-9 10-9 25 4 8 8 8 8 8 1q-2-12-14-20-5-1-7-4-6-5-14 4m-109 3-2 3q0 4-5 10l-7 7-16 15c-19 18-20 19-20 21q3 6 14-5l10-8 9-9 25-20 22 21c28 28 30 29 33 23q6-4-20-28l-20-18c-14-13-19-16-23-12m-589 7-10 9-8 7-8 8-8 6c-2 2-2 2-2 9l1 7 7-7 11-10 16-15q17-16 10-16-2-2-9 2m230 3-20 19-19 18-2 5q3 6 11 0l38-40q1-9-8-2m12 2q-2 5 4 10l12 11 11 10 20 17 4 4c5 4 12 3 12-2 0-3-13-16-21-22l-16-14q-23-22-26-14m462 0-4 5-9 11-27 29q0 5 4 6c3 0 3 1 24-21l11-11 9-12q3-4 1-6-5-3-9-1m-693 3v3c2 3 24 25 36 35l12 11q10 11 13 5c1-4 1-4-19-23l-29-27q-10-9-13-4m702 12q-1 2 10 12l10 9v-12l-5-6c-7-7-15-9-15-3m-708 3L6 278c-6 5-6 5-6 11q0 9 4 4l6-5 13-11c7-7 18-16 20-16 4-2 9 2 40 31 21 20 22 20 25 16q5-3-6-14l-19-18-14-13c-7-5-16-13-16-16q-3-10-12-1m115-1-8 7-14 13q-17 15-14 20 1 6 13-6l29-25 3-2 3 2 13 13 12 10 13 12q8 7 11 1 3-4-18-22l-6-5c-4-5-14-14-18-16l-8-4-5-2zm469 0q-6 3-28 28l-15 16q-8 8-5 11c3 3 5 1 21-15l30-27c1-4 11 4 42 36q12 13 16 10c5-2 3-6-15-24q-21-20-30-32-8-10-16-3m-353 3a144 144 0 0 0-27 23l-13 12q-6 6-3 10c3 2 5 1 26-19l16-16q10-7 5-9-1-3-4-1m11 4q-4 4 6 13l15 14 27 24q6 4 8-2c0-3-6-11-11-14l-7-6-13-12-10-9c-3-3-11-10-13-10zm114 4q-6 6 8 16l4 3 2 1 16 15q26 25 23 11c0-4-4-9-25-28-20-18-24-21-28-18m345 2c-5 4-35 33-38 38q-6 8 0 9c3 0 6-2 30-28 9-9 12-10 18-5l10 9 7 5v-15l-8-8c-9-9-12-10-19-5m-247 10-17 19-15 14c-2 0-4 6-3 8 2 5 6 2 21-13l19-20q13-12 9-14-3-6-14 6m-108-2-22 21c-15 16-17 18-16 20q2 8 16-7c11-11 22-20 24-20l2 3 2 2q3 1-2 7l-13 12c-18 15-30 28-30 30q1 6 7 3c3-1 6-4 26-23 9-8 10-8 17-1l29 26 12 10c7 7 14 7 13 0-1-3-16-18-24-24l-14-13-13-12q-4-2 0-5 2-4 8 3l14 12 15 12q7 8 12 5 4-4-5-12l-23-21-9-7c-4-4-13-11-17-12q-3-1-1-5 1-11-8-4m-226 2-11 10-21 20c-11 10-12 12-12 15q1 9 13-2l8-8 21-21q6-6 8-5l18 17c23 23 29 28 33 25 3-3 1-6-14-21l-19-20q-14-15-24-10m111 1c-18 13-43 37-43 42q0 9 16-6l24-22q7-9 13-1a346 346 0 0 0 48 44c3 4 9 0 7-4l-22-21-22-22c-11-13-14-14-21-10m239 0q-4 2 12 16l22 20 6 6q14 13 17 5 3-6-5-11l-9-7-8-6-18-16q-11-12-17-7m114 0-45 45q-6 6 0 8 4-1 19-15l12-11 10-9c8-8 10-8 23 5 41 41 41 41 45 37s0-9-32-38l-8-9c-7-7-17-15-19-15zM32 279l-10 9-12 14-10 10v7l1 7 30-31c9-8 9-8 14-2 3 3 22 19 31 24l8 7 17 14q12-1 0-14l-24-22-10-8-14-11q-6-3-8-7-3-7-13 3m709 6-23 22-8 8q-13 12-8 17c3 2 6 0 21-15 24-24 25-24 41-8l5 4v-14l-5-5c-12-11-17-13-23-9m-233 1c-6 3-48 47-48 50 0 10 9 4 39-28l11-9c3 0 8 4 24 20l22 20q8 7 11-2c0-3-3-6-22-22l-19-18q-12-13-15-12zm-247 15-16 17q-6 9-12 13-8 9-5 11 3 7 16-9l15-16c16-17 19-21 17-24q-1-6-15 8m369-6-4 3-1 2-1 1-2 3-8 7-7 6-9 7-14 14q-13 11-8 14 3 3 12-4 13-12 4-1l-3 4-6 6q-8 9 3 8l15-13q12-12 20-17l7-5 4 2 12 11 17 16 18 17c9 9 10 10 13 8 4-2 2-9-3-13l-5-4-9-8-19-18q-25-25-32-25-5 0 1-6c5-7 9-4 41 28 20 20 22 21 25 17q5-3-7-14l-25-25q-23-24-26-22zM34 307 4 336l-4 3v7l1 7 11-11 17-17c12-14 14-14 21-7l11 9 28 26c9 8 10 9 14 7q9-4-17-24l-14-13-12-11q-7-5-10-11-3-8-16 6m126-7-5 4-23 23q-23 19-10 20c2 0 41-37 43-42q2-8-5-5m14 1c-3 3-3 2 12 17q24 25 29 24c7 0 6-9-2-15l-19-16c-14-13-18-15-20-10m108 1q-3 1 0 4c4 7 45 47 50 48q3 2 4-1 4-4-4-10l-7-5-8-8-18-17c-13-13-15-14-17-11m456 8-8 7-27 28q-2 8 7 4l11-9c19-20 23-24 26-24q3-1 18 15l4 3v-12l-9-9c-12-12-14-12-22-3m-236 0-5 6-16 21-17 18c-6 6-2 11 5 7 5-3 18-16 24-23q13-19 21-14c2 0 23 20 31 28l4 3 1 1c0 4 15 10 17 7 3-5-1-8-25-28l-6-5q-5-3-15-13c-12-12-13-13-19-8m-328 8q-4 4 3 10l19 18c17 17 21 19 23 14q2-4-7-12l-14-13-17-16q-3-2-7-1m77 22c-12 12-22 22-22 24q-1 5 4 6a341 341 0 0 0 39-39c6-5 7-12 3-13-2 0-6 4-24 22m141-21c-5 4-40 40-41 43q-2 14 18-6 16-17 23-21l3-2v5l-1 5-12 11-9 7c-9 7-21 19-21 23q1 5 6 3l10-9 8-6q13-10 22-21c4-5 4-5 16 5l8 6 7 6q23 22 24 10 1-3-5-8l-8-7-10-9-10-7-15-13-6-2q-5 0-2-3c5-5 1-14-5-10m345 8-12 13-10 12-11 12c-2 2-1 7 1 7 4 1 9-4 29-26q10-13 12-2c1 3-13 17-17 17s-9 6-8 10c0 4 0 4-6 10q-14 13-6 15 4 1 12-7a66 66 0 0 1 22-20c4-4 4-4 9 0l6 4 5 5q7 9 7-5 0-6-1-5 1 3-5-2l-8-7-3-5q0-6 10 1l6 5v-6c0-8-1-9-12-18q-8-6-7-10 1-11-13 2m-581 0-11 10-18 17q-17 16-9 18c3 1 9-2 9-4l3-4 3-3 19-19 5-6q10-13-1-9m130 1q-5 4 3 11l10 9 6 5 1 1 4 4 13 13c11 10 14 12 17 9s1-6-17-23l-22-22q-10-11-15-7M20 348 1 367v6l1 6 18-18 21-19c3 0 15 9 26 20l12 10 10 10q16 14 16 2 1-6-10-14l-17-15c-24-23-28-26-36-26-3 0-5 2-22 19m488-11q-3 1-7 6l-22 22c-18 17-19 19-18 23 3 8 13 0 38-28 13-15 13-15 27-1l26 24q13 10 17 7t-5-11l-25-23-11-10c-11-10-15-11-20-9m95 26c-23 22-24 25-21 28q3 4 8 0c8-7 40-40 40-42q1-7-3-8zm-433-18q-1 3 5 10l8 9 9 8 11 10q12 13 15 7 5-4-8-17l-27-26q-9-6-13-1m103 5-5 4-9 10c-33 31-33 32-30 34l4 2c2-1 19-17 35-34q10-11 18-2l9 7 18 17 23 21 3 2 3-3q6-5-13-18l-13-13-9-8-2-2-5-5-10-8c-11-8-12-8-17-4m-227 0-15 14-8 8-14 12-9 9v8l1 7 11-10 15-16 12-11 10-10c7-6 5-14-3-11m587 3c-3 4 1 9 23 26l29 27q6 5 10 0c2-4-1-7-17-21l-19-17c-16-15-22-18-26-15m-479 4-25 22-11 10q-7 9 2 10 2 1 16-13l19-17q15-12 8-15-1-2-9 3m245 1q-3 1-5 6-3 6-10 12c-16 14-33 32-33 34q1 4 5 5c1 0 11-9 22-21 23-22 24-23 29-19l5 3 6 5 7 5 15 13c2 3 8 6 10 6q11-4-12-22l-4-3-6-5-12-10q-11-12-17-9m108 3-15 15-17 17-8 8q-10 11-4 14 4 3 13-8l9-9 13-12c17-18 17-18 36 1 21 21 27 26 31 26q4-1 4-6c0-1-7-9-9-9l-7-8-22-21c-12-11-17-13-24-8m-455 4q-5 3 9 16l24 24c15 16 18 18 21 11 2-5 2-5-18-25-29-28-32-30-36-26m119 1q-6 2 5 12l22 21c15 15 18 17 21 12 2-3 0-5-11-16l-16-17q-15-17-21-12m455 1-6 2a97 97 0 0 0-26 26l-10 12q-9 8-4 11 3 7 20-13l27-27q5-4 5 2l7 8 24 21 16 14c12 12 14 14 18 12q2-1 2-5c0-4-1-5-9-11l-18-17-21-18-6-5-5-3-6-6q-2-6-8-3m-358 10-10 10-6 6-13 12c-13 12-14 15-10 17 2 1 8 0 8-1l35-35c5-4 5-4 18 9q42 43 50 42 7-1 1-10l-42-39a53 53 0 0 0-20-14q-3-3-11 3m474-2q-4 1-14 14l-10 12q-10 9-9 12 4 9 16-5c19-22 19-22 32-8l9 8 3 2v-7c0-8 0-7-9-15l-5-4-2-4q-1-8-11-5m-595 12-21 19q-13 11-9 16c3 3 7 1 23-15l15-14q13-12 8-16c-3-2-5-1-16 10m-104-5-7 7-14 14-15 13-6 5-1 8q-2 12 7 1l30-28c13-11 14-13 15-16q0-9-9-4m460 3-7 8-17 18c-21 21-21 21-17 24 3 4 5 2 27-18 24-24 23-24 32-16l8 6 8 7c19 21 26 25 30 21q5-4-12-18l-11-10c-15-14-19-17-27-21-8-5-10-5-14-1m-106 10-10 10c-14 12-34 34-34 37q2 7 12-2l8-7 10-9q15-14 2 1l-16 18-17 19 2 3c3 3 3 4 27-20l19-19 3-4 4 4 12 10 21 19q12 10 14 0c0-4-2-5-13-14l-15-14-18-16q-5-5-2-8 4 1 13 8l23 20q9 6 11-2 0-5-16-17l-15-13-5-4c-9-8-11-8-20 0m-346-1q-2 7 13 19l20 17c15 15 18 17 21 13 4-3 0-8-21-29l-22-20c-3-3-10-3-11 0m121 2c-4 3 0 12 7 16l21 19q14 14 16 9c4-3 2-5-16-24-23-21-24-22-28-20m453 1c-2 0-10 8-18 16l-21 20q-10 11-3 14c2 0 11-8 11-10l11-12 14-14c6-8 9-7 26 10l42 38q11 10 12-1 1-4-15-18l-11-9-25-23-15-12c-5-1-5-1-8 1m-352 7-6 5-39 38q1 11 17-4l22-22c14-13 16-16 14-19q-2-3-8 2m-122 5-7 9-12 12c-15 14-18 18-13 20 3 2 4 1 23-18s22-23 22-27q0-8-13 4m599-3c-7 5-40 38-41 41q-1 5 3 6c2 0 5-3 18-16l15-14c0-2 6-3 9-1l13 10q2 4 2-5c0-6 0-6-4-10q-5-4-5-9-4-6-10-2m-463 2q-5 5 17 21l14 11 16 15c7 5 12 1 7-5l-27-24-18-15q-5-5-9-3m218 2-9 10-18 19-15 17q0 5 4 5c3 0 23-19 35-33l9-10c7-8 2-15-6-8m-459 2c-2 0-13 11-24 22L0 455v6l1 6 17-16 23-23 7-6 3 2c3 1 15 14 15 15l-2-1q-5-5-12-5c-4 0-5 1-21 17L1 478l-1 7 1 6 19-18q30-30 31-28 4 1 15 10l12 12 12 11q9 8 14 5v-8l-5-4-3-4 4 1q7 0 7-5 0-4-13-14l-18-18c-22-21-24-22-30-19m472 4q-3 5 3 11l22 21c14 14 17 17 20 17 10 0 6-6-18-29-21-21-24-23-27-20m-241 7-6 5c-9 7-41 39-42 42q0 5 4 6 3 0 8-6l37-36q6-6 12-1l6 5 27 25c12 11 15 13 18 11 4-2 1-7-20-24l-23-22c-12-11-14-12-21-5m349-3q-3 1-26 23-26 25-18 27c2 1 5-1 22-18 21-20 22-20 25-20q5 2 24 20l14 14 15 13q12 11 14 6 6-3-12-19l-17-16-8-7-9-8c-16-15-19-17-24-15m-453 2q-5 5 9 16l18 17c11 11 13 12 15 12q4 0 4-4c0-3-1-4-18-21-21-20-25-23-28-20m-13 10-14 13-16 15c-13 11-18 21-11 22 3 0 5-2 21-18 21-21 21-21 25-16l3 5-16 16-28 27q-13 12-8 15c3 3 4 2 23-17 29-28 35-33 38-33l23 20c14 13 15 13 18 12 5-1 3-9-4-15l-4-3q-2 0-17-16a75 75 0 0 0-20-18q-5-2-5-6-2-6-8-3m240 1c-2 2 1 9 4 9l8 9 13 13q7 4 15 13 12 12 15 7 6-6-24-31-13-9-19-16-7-8-12-4m112 2-15 14-14 13-5 5-9 11q-9 9-4 13 4 5 9-3l22-22c20-20 18-19 25-13l15 13 18 16q8 7 12 5c5-4 2-8-16-23l-18-17-16-14zm234 0-7 6-24 28q-10 11-3 13c2 0 5-2 15-14q20-20 25-19c2 0 13 7 14 10q3 3 3-5c0-6 0-7-5-11-8-8-11-10-18-8m-124 7-7 7-13 14c-21 22-25 28-20 30 2 1 3 1 20-17 30-32 32-33 31-36q-2-4-11 2m-342 2q-3 1-18 18l-27 27q-9 7-4 9c4 3 4 3 31-24l21-18c2 0 5 2 18 14l12 11 9 7 10 8q7 7 10 4 2-5-9-15l-13-11c-30-28-34-31-40-30m103 13-14 12q-22 18-14 21 3 2 10-4l6-4 5-4c15-16 17-17 25-10l8 7 8 6 5 5 7 6 13 12q9 10 13 6 7-5-20-27l-14-13c-25-25-26-25-38-13m255-1q-7 5 15 20l10 9 22 20c6 5 13 5 12-1-1-3-4-6-21-21l-18-16q-15-18-20-11m-596 5-14 13-11 11-10 9c-7 7-7 7-7 13v5h4q5 1 7-3l13-15 15-15c12-11 12-11 22-3l12 11 13 11q14 15 18 7c1-2-2-8-5-10l-19-17-19-17q-9-7-19 0m705 1q-5 2 10 15c13 11 12 10 12 3 0-6 0-6-5-10q-13-11-17-8m-233 1c-5 2-47 44-47 47l4 2c4 0 13-7 35-31 11-10 11-10 37 16 15 15 15 15 19 15q12 1-3-14l-17-17-10-9q-9-10-14-10zm-232 5q-3 2-1 5l5 5 19 18 16 16h18l-4-4-12-11-18-17q-14-13-20-14zm344 0-6 8-12 12-16 15-8 9h13l5-5q6-5 8-10c5-5 18-18 20-18q4 1 18 14l19 17c2 2 3 2 11 2h8l-10-9-21-19-13-9-7-6q-5-5-9-1m114 5-9 10-10 12-8 9q-8 8 0 8 4 1 10-7c14-14 17-17 19-17q4 0 20 14l7 6v-6q0-6-2-7-15-13-17-18-1-6-5-7zm-351 5-20 19-9 8q-9 7 0 7h5l17-18q20-18 18-19-1-6-11 3m-236 15-18 19h12l6-6c22-23 20-23 41-2l9 8h15l-7-6-18-17c-19-18-17-19-40 4m112-6-11 11-8 8-6 6h14l13-13c13-13 16-17 14-20q-3-5-16 8m-212-4-4 3-9 8-15 15-2 3h14l7-8 10-10 2-3 3 2 7 6c13 13 13 13 22 13h7l-4-5-11-9-13-11q-10-10-14-4m454 6-5 4-6 7-10 11 5 1c6 0 5 1 16-11l4-4 3 1 10 8 6 6h16l-5-4-25-20q-4-3-9 1m118-1-2 2-7 7-4 4-9 9q-4 3 4 2h7l7-7 10-12 2-5q-3-4-8 0m-227 2c-3 1-22 20-22 21l5 1q6 1 9-3l5-4 1-1v1q-2 7 9 7l6-1-10-7q-4-1-2-3 2-3 9 3c10 8 10 8 18 8h7l-2-2c-3-4-18-17-22-19q-6-3-11-1m-119 1q-3 3-1 11 2 2-3 6l-3 4h35l-4-4-9-9q-9-9-15-8m354 9q-3 3 3 8l4 4h8q13 1 4-5-15-13-19-7m107 2-8 9 11 1c12 0 12 0 9-3l-2-4c0-6-6-8-10-3m-684 0q-3 4-1 8 1 2 9 2h7l-4-5q-7-8-11-5m119 0q-2 3 1 7 0 4 8 3 10 1 2-6c-8-6-9-6-11-4"
        mask="url(#16282281824-posters-1720553930422-horizontal-mask)" itemprop="light" fill-opacity="0.90"
        fill-rule="evenodd" stroke="none" fill="url(#16282281824-posters-1720553930422-vertical-light)"></path>
      <!---->
      <path id="16282281824-posters-1720553930422-regular"
        d="M3 3q-4 3-3 9v5l4-3L19 0h-6Q6 0 3 3m21 6C9 24 5 29 2 30c-2 2-2 2-2 9l1 7 9-10 17-18C37 7 37 7 51 20l15 14 12 11 13 12q5 6 8 5 10-2 0-11L87 40 45 1l-7-1h-6zm29-8 5 4 18 15c16 14 18 15 21 14q3 0 3-3c0-3-1-5-15-17L72 3c-3-3-4-3-11-3zm32 0c0 4 11 8 14 5q4-6-7-6zm36 5q-12 11-6 15c2 2 12-5 22-16l3-5h-13zm15 6c-21 21-26 29-23 32q6 1 27-21l17-17c4-3 5-2 18 9l13 11 11 10q11 9 12 2c0-3-15-18-23-24l-6-5-3-6-2-3h-28zm50-11c0 1 15 14 18 15 8 3 10-4 2-11l-5-5h-7zm36 2q-3 6-1 9 5 0 12-7l4-5h-6q-7-1-9 3m20 6-15 14c-10 10-4 14 7 6q13-10-4 9-11 11-8 15c3 3 11-3 33-26 10-10 18-19 20-19q0-3 14 11c39 39 41 40 43 37q3-2 1-7c-2-4-5-7-23-23l-2-3v-1l-11-9-14-10-6-2h-12l-7-1h-7zm55-8 18 17 6 4q8 6 11 1 4-5-8-11l-11-8c-3-4-3-4-9-4zm52 4q-8 8-4 9c2 3 3 3 11-5 8-9 8-9 2-9q-6-1-9 5m26 4-19 20c-10 10-11 12-11 15 1 6 4 4 21-13 22-22 23-23 27-22q5 2 26 23c23 21 28 25 30 19q3-4-22-25l-15-13C399 0 400 0 390 0h-8zm35-8 27 23q8 6 10 2 3-4-11-15L425 1c-1-1-15-2-15 0m58 5-8 8c-3 2-6 9-4 12q3 6 16-7l16-18-8-1h-7zm26-3q-1 4-7 10l-10 11-12 13q-11 12-7 14 5 4 20-14l16-18 9-11 5-6q5 0 22 17c5 5 21 17 23 17q4 1 5-4L532 8l-8-7-14-1h-14zm48 3c6 6 14 11 15 11l3-2q4-3-5-11c-4-4-4-4-12-4h-7zm31 1q-11 12-5 13 7 1 17-12c7-8 7-8 1-8s-6 0-13 7m27 3-20 20q-12 11-11 12 0 12 36-28c5-5 13-11 15-11q2 0 2 5c0 4-38 45-50 54q-6 5-2 8c2 2 4 0 20-15 31-30 33-32 35-24q3 3-5 11l-11 12-33 33q-6 5-5 8c-1 8 5 5 31-21l18-16q7-1-10 16l-10 12-12 14-17 20q-1 6 5 4c3-1 20-19 25-26l24-27c8-8 7-8 32 16 24 23 28 25 30 19q2-3-9-12l-25-24-18-17c-1 0-7-5-7-7q1-4 7-5c2 0 17 13 35 31q15 17 17 8 3-6-24-28l-16-16-15-13q-5-3-1-5 3 0 10 6l9 9q7 4 11 9c19 17 22 19 25 15q3-5-8-14l-22-19-13-12C630-1 632 0 620 0h-10zm44-10 38 38q5 2 6-4 1-5-8-12L663 5c-6-5-6-5-12-5zm25 0c0 3 13 14 15 14q6-2 1-11-2-4-9-3zm37 11q-18 20-5 18c3-1 26-27 26-28l-6-1h-5zm37-10 13 14 13 12V14l-7-7-7-7h-6zm-13 10-8 9-13 16c-12 11-14 14-12 17 3 5 14-3 23-16l12-14c7-8 8-9 8-12q-2-7-10 0M498 22l-21 25q-13 13-12 18 2 7 13-6l19-20 12-12h4l4 3 2 1 9 7c12 12 24 21 26 21q9-2-7-16l-17-16c-20-18-22-19-32-5m-346-5-3 3c-1 4-7 10-21 26l-15 18q1 4 5 4c3-1 28-29 37-40l5-5 15 14c27 26 31 29 34 26q2-3-6-12l-20-19-16-15zm591 0c-5 3-2 7 15 23l11 10v-7c0-7 0-7-3-10-19-18-19-18-23-16M28 28Q-1 47 0 61q0 8 4 2c2-3 12-12 21-18q21-16 16-22c-2-2-3-1-13 5m344 7-22 25q-9 9-4 11 4 3 13-10c10-12 26-28 29-28q6 1 17 11c12 14 43 41 46 41 8 0 3-10-8-18l-27-23c-16-17-16-17-23-19-8-3-8-3-21 10m-106-6c-6 4-43 42-43 43q3 6 13-4l38-38q-1-5-8-1m15 1q-5 3 7 13l34 32q6 8 10 4l2-2-2-3-13-14-22-21q-14-14-16-9m455 5-31 32q-9 9-4 10c2 0 9-6 9-8l1-1 8-6q17-17 21-17 3-2 18 15l11 10V57l-6-6-10-11c-5-4-6-5-12-6q-3-2-5 1m-232 0-1 5q1 4-2 7l-8 9c-2 4-10 12-16 18-14 14-16 17-13 20q5 6 21-17c4-6 13-14 16-14l6 5 8 6 6 5c29 27 35 31 36 24 0-3-11-16-26-27l-11-10-8-7q-6-4-3-8c2-4 7-1 23 15 15 14 18 16 22 14q7-2-11-18l-15-14q-20-18-24-13M49 36q-4 3 3 10l35 33q16 15 16 5 1-4-6-9L82 61 68 48l-8-7q-6-8-11-5m109 2-5 2-6 9-13 16-19 21q-6 6-3 9 5 5 20-15l25-30q3-6 13 6c16 16 32 30 35 31q11 1-1-12c-10-11-38-37-40-37zM31 45 20 55 7 66l-7 6v7c0 7 0 7 8 0q15-12 0 2l-8 8v6l1 6 19-18 13-11q18-11 11-15-3-4-10 1l-7 6q-11 8 5-9c12-12 13-14 7-15q-2-1-8 5m346 20c-33 34-38 40-32 43 3 2 4 1 17-13 26-28 32-33 39-30l33 29c4 6 16 15 19 13q6-3-4-13l-33-31c-11-10-14-12-20-12h-5zm-113-6-23 22c-18 17-20 20-17 23s6 1 22-15c29-29 27-28 43-14l10 9 7 6 22 16q9 3 5-6c-2-2-7-8-23-21l-15-13c-18-14-21-15-31-7m-107 3c-9 4-44 47-44 53q1 8 13-5l10-13c8-10 11-13 19-19q8-7 13-1l15 14c22 21 28 26 31 24q5-3-8-14l-20-20c-19-20-23-22-29-19m579 3c-8 4-9 5-23 18-15 15-17 18-15 21 2 2 4 1 16-10l21-19c6-5 8-4 20 8l11 9 3 3V83l-9-8q-11-11-15-12zM50 64q-3 4 3 10l36 33q9 7 12 4 2-2-2-5l-7-9-10-10-13-13Q54 59 50 64m449 16c-30 28-44 49-35 49q3 1 12-9l13-15q24-27 20-30-1-3-10 5m-218 0-2 3c0 2 22 24 31 31l11 10q14 12 14 1 0-7-27-24l-13-12c-9-9-11-10-14-9m107 4-5 4-13 12q-36 31-23 31c3 0 7-3 31-27 20-18 17-19 49 13 17 17 20 19 24 19 10-1-4-21-23-33l-13-12q-16-18-27-7M31 89c-6 8-20 20-27 26l-4 3v7l1 8 12-11c31-34 33-37 31-40q-3-5-13 7m595-5-10 10-5 6-15 16c-23 23-28 29-21 29q2 1 12-9l17-17 17-16q9-10 11-9l16 15q31 29 36 29 9-2-4-14l-33-32c-13-12-15-13-21-8M248 99l-21 21q-7 7-1 8 1 2 22-19c19-19 23-23 21-25-1-3-5 0-21 15m-86-14c-3 0-13 10-22 21l-18 21q-17 18-9 19 4 5 19-15l11-13 18-17c4-3 5-2 21 14 21 21 28 26 32 23q5-3-7-14l-43-40zm568 8c-30 32-32 34-28 37 3 3 4 2 17-11 25-27 24-27 41-10l9 10v-8a8 8 0 0 0-5-11l-10-9c-12-10-13-10-24 2m-223-4 1 3 42 39q9 6 10-1c0-3-2-5-13-15l-16-14q-20-18-24-12M47 90q-3 3 4 9l27 26q22 22 25 15c1-5-1-7-9-14l-21-21Q52 83 47 90m235 11c-4 2-2 5 10 17l25 24q17 18 17 10 3-5-6-12l-24-24q-15-18-22-15m-243 3c-6 3-5 2-14 11L8 130l-8 9v12l11-10 22-21c13-12 16-15 14-18q-2-3-8 2m460 3c-12 9-35 34-37 40q-3 10 1 10c3 0 19-17 26-27l7-8q13-9 13-12c2-6-4-8-10-3m130-2-1 4c1 3 49 50 56 55q6 3 7-3c0-4-2-6-13-17l-23-22c-17-17-23-20-26-17m-379 20-23 22c-6 5-7 12-2 12q3 0 13-10l22-20c14-12 17-16 17-20q0-3-4-3c-3 0-4 1-23 19m140-17-8 5-8 7-10 11-13 14q-9 10-6 13 4 6 13-6c5-8 28-31 31-33q6-4 12 4c12 13 44 38 48 38 7-1 0-13-14-22l-18-16a57 57 0 0 0-23-17zm346 6-11 11-16 17q-12 11-7 15c3 4 5 3 17-10 27-32 24-31 41-15l9 9v-13l-8-7c-13-11-17-13-25-7m-573 0-26 25c-25 24-27 27-23 30 3 2 5 0 26-21 26-26 24-26 39-12l16 15 9 8c3 5 9 6 10 1 1-4 1-4-31-36-12-11-15-13-20-10m350 1q-5 3 11 15l12 10q22 23 25 15c1-4-1-6-14-16l-19-17q-10-10-15-7M43 128l-17 16-16 15-10 9v6q-1 9 7 0l9-9 29-28c9-11 11-11 22-2l18 16q17 16 18 9c2-3-3-8-18-23-18-18-20-19-27-20h-4zm580-10-9 9-19 19c-22 22-24 25-23 27q0 10 14-6c12-14 32-35 35-36q6-2 17 10l14 14 19 19 14 11q5 0 5-5c-1-3-14-17-20-21l-41-39q-4-4-6-2m-343 8q-3 7 14 18 7 4 12 10 23 28 29 22 3-3-8-13l-23-21-11-9-8-7-2-1zm219 8c-7 9-23 27-31 34-9 9-10 11-8 14 2 4 1 5 27-23 15-16 16-17 18-17q5 1 16 11l8 7 11 10q15 15 19 16c6 0 5-8-2-14l-31-27-11-10-6-4q-3-4-10 3m-109-2-9 7-11 11c-8 6-25 25-25 27 0 5 8 4 11-2l3-2c5-4 35-36 35-38q0-4-4-3m350 6q-15 11-24 21l-11 12q-7 7 0 9 2 1 11-8l22-19c9-9 10-9 24 5l7 6v-6q1-8-2-9c-16-15-20-17-27-11m-475-1c-5 3-35 32-39 37q-3 6 3 6c3 0 5-2 14-11l19-19q8-8 8-11 1-5-5-2m133 1q-1 1 1 4a221 221 0 0 0 38 36q11 9 12 5c3-4-1-8-22-26l-11-11q-16-15-18-8m-349 1c-3 3 9 17 22 29l8 6 7 6 7 6q7 5 11 1 6-6-5-12l-12-9-13-11-12-10q-10-11-13-6m118 3c-4 2-2 5 19 26 23 23 24 24 27 22q6-7-9-16-7-4-16-15l-14-14q-6-5-7-3m449 9-6 7-29 29q-12 13-4 12c2 0 27-24 39-38 8-9 6-9 19 4l37 34q13 12 16 7 7-3-10-17l-12-10-34-30-4-4q-3-6-12 6m-340-1c-2 2-1 3 25 29 7 7 30 26 32 26q4 0 4-4c0-2-2-4-18-19l-21-19c-15-14-19-16-22-13m229 2-6 6-27 29c-14 15-16 20-12 23s4 3 28-25l15-17q4-2 15 8l25 21 9 9q7 6 9 4 7-3-12-20c-15-12-35-30-35-33q-2-8-9-5m-468 4-13 12-10 10-8 7-6 6v6c0 7 0 7 9-2q6-9 17-19 19-18 18-22t-7 2m117 0-11 11-18 19c-10 10-11 11-11 14 0 10 8 4 36-25 7-7 8-7 21 6l21 20c15 15 17 16 20 16q4 0 4-3c0-2-4-6-27-26-20-18-25-24-25-29q0-10-10-3m215 21c-23 22-26 26-22 28q3 2 13-9c13-13 28-27 31-28q6-5 17 7l20 19c15 14 18 16 21 14 3-3 1-6-10-17l-22-21c-22-22-20-22-48 7m371-19-2 5c-2 4-15 17-27 28q-16 13-9 15 8 4 37-28c7-7 11-7 21 3 9 8 9 8 9 1v-6l-7-6q-18-19-22-12m-485 20-21 22q-16 14-7 14c3 0 5-2 27-24q18-19 17-22 1-8-16 10m-202-8q-3 3 7 10l9 8q30 30 34 28 3-1 4-6c-1-2-33-33-40-38q-10-6-14-2m564 10-17 16c-11 9-25 25-25 27l2 2c3 0 7-4 31-27 14-15 17-16 20-16q3 0 33 29c21 20 26 24 28 18q1-6-19-22l-22-22-18-16zm-576-4-18 16-19 17q-5 2-4 8v6l4-3 25-21 12-11q12-10 8-12-2-3-8 0m243 5q-4 3 12 18c23 22 41 33 41 26 0-4-2-6-14-16l-20-18q-17-16-19-10m210 13-23 23q-16 14-10 16 3 3 8-3l16-18 18-19q5-1 6 2l-17 21-11 12-14 16q-12 12-7 13c3 3 3 2 8-3l22-23c11-12 14-14 17-11q3 6-4 12l-8 9-20 21c-17 17-18 18-16 21 3 6 11-1 35-29 12-13 11-13 26 2l19 17 8 7c3 3 12 10 15 10q5-1 5-6l-21-19-26-23q-10-9-7-10l3-2c2 0 20 15 33 28 12 12 15 13 17 7q3-7-14-19l-18-16-17-15q-6-4-4-10c2-7 5-6 26 13l6 5h1c0 3 9 12 12 14q5 1 6-5c0-3-13-17-24-26l-13-11-9-7-6-5c-3-5-5-4-18 11m-110-6-21 21q-19 17-14 19 2 5 20-15 21-22 25-21c4 0 15 9 41 35q12 11 14 5c1-4-1-6-22-26-31-29-31-29-43-18m356-1c-8 4-37 36-39 42q0 5 5 5c3 0 6-4 20-19 19-21 19-21 32-9l10 8 1-6v-6l-6-5-12-9q-5-4-11-1m-595 11c-27 26-31 31-23 30q3 1 13-10l18-17q11-10 9-13c-1-4-4-2-17 10m-93-6q-2 3 8 11l6 6 15 13 15 13q6 7 10 5c5-3 2-7-17-24l-14-13q-20-21-23-11m214 6-16 17-17 17q-10 8-7 11c1 5 8-1 32-25 13-15 15-16 18-15 4 2 17 14 25 22l15 14 10 9q10 9 12 3 2-4-9-12l-36-34c-14-13-18-14-27-7m-227 3-6 5-8 7-12 11c-14 12-13 11-13 18l1 6 20-18 17-16q14-11 10-14-2-4-9 1m128-2q-3 1 3 9 9 8-3 6-11-1-15 7-2 4-7 6c-9 6-25 24-25 27 1 6 4 4 18-10q24-23 25-21c2 0 31 27 31 29 0 1 15 14 17 14q5 1 5-5l-3-4-28-29c-12-14 0-6 17 11q10 10 14 7c3-3 0-6-12-18l-16-16c-6-7-19-15-21-13m465 3q-2 4 5 9l38 35q11 12 14 7 4-5-8-15l-13-13-25-21q-8-6-11-2m-21 9-20 19q-22 20-12 19c5 0 44-39 44-44q0-6-12 6m-221-1-22 22c-19 20-20 21-18 23q2 3 12-7l15-14 12-12c6-6 7-6 15 1l10 9 9 8 13 10 8 6q5 0 5-5c-1-3-14-15-21-20l-13-12q-19-20-25-9m-341-1v3a248 248 0 0 0 42 39c14 13 22 11 8-3-36-36-47-44-50-39m673 17c-19 19-22 23-22 28 1 7 13 0 21-12l7-7 7-6 9-9q5 1 12 7l7 7 6 5v-5q-1-12-15-20l-7-4c-4-4-6-3-25 16m-96-10-3 4q0 3-6 10l-7 7-30 28q-4 5-3 8 2 4 11-6l10-8 24-22q10-9 12-7l25 24c23 23 25 25 28 21q6-6-16-25l-21-19c-18-17-20-18-24-15m-585 5q-10 7-30 25l-8 8q-4 0-3 8-1 10 6 1 5-6 12-10l28-28q0-5-5-4m225 5-13 12-18 18q-13 12-8 14c3 2 7-1 26-20 19-20 22-23 20-26q-1-3-7 2m123 0-1 5q1 3-5 9l-15 17-15 17q-6 7-2 8c2 1 4 0 23-19 23-23 23-23 27-20 3 1 30 28 38 37q7 9 11 5 5-5-10-19l-13-13c-13-16-33-30-38-27m-109 1q-7 2 9 17l17 15 21 18 3 3q7 5 10-1c0-3-1-5-13-15l-22-21c-18-15-22-18-25-16m462 1-4 4-19 21c-19 19-20 21-17 24q3 6 16-10l14-15q14-11 16-17 2-9-6-7m-694 3v3l33 32 13 13q8 7 10 6 9 1-2-10l-44-40q-10-9-10-4m702 10c-2 2-1 3 9 13l10 9v-5c0-6 0-6-5-11q-11-10-14-6m-710 6-22 21-14 12c-4 4-4 4-4 9l1 5 29-24q12-11 14-10c5 0 12 6 29 22 31 30 32 30 35 26q4-3-9-16l-19-18-18-16q-9-6-10-10c-3-8-4-8-12-1m119-3-11 9-16 15q-19 17-9 18l11-9c8-9 25-23 29-25 2-1 3-1 17 13l24 21q8 9 12 6c3-3 1-6-14-20-22-21-24-23-27-24l-12-6zm463 4-14 15-14 14c-7 7-17 19-17 21 1 5 5 2 21-14l27-24c6-6 10-4 46 34q13 15 16 8c2-3-1-6-20-25l-23-25q-10-16-22-4m-350 1c-6 3-42 36-43 40q-1 2 1 3c2 2 6-1 20-14l20-20q12-12 2-9m11 4q-2 4 8 13l12 12c7 6 28 26 31 27q3-1 5-5l-12-13-30-27q-13-13-14-7m462 4c-5 3-40 37-42 42q-3 5 2 6l25-24q10-12 16-13l7 4 10 9 6 4v-13l-8-8c-9-9-10-10-16-7m-348 1q-3 1-1 5l15 13 16 15c16 15 19 17 23 14 3-4-3-10-25-30-22-19-25-21-28-17m106 4-14 13-20 21q-14 14-6 14c3 0 9-5 33-31 12-13 14-15 12-17q-2-3-5 0m-134 22c-19 19-22 23-19 25 3 1 7-2 20-14 19-18 18-18 23-11 3 5 3 5-10 16l-27 25c-13 12-7 18 5 6l19-17c9-8 11-9 15-5l40 36c10 9 10 9 14 9q8-3-21-29-7-4-17-15l-11-10v-6q2-4 11 6l15 12q8 5 12 10 10 10 13 1c0-2-19-21-28-27l-7-5-2-1-1-1c0-2-9-9-15-12q-5-2-4-7c-1-9-2-8-25 14m-215-9-34 32q-5 5-2 8c3 2 7 0 27-19l21-20 18 16c27 27 33 31 34 24 0-3-2-5-14-17l-19-20q-10-11-19-11c-5 0-5 0-12 7m120-6-22 17-23 24q1 4 4 4 2 0 11-10 30-28 32-27l6 4a375 375 0 0 0 47 43q5 5 7 1 2-2-6-9l-36-35c-11-13-14-15-20-12m237 0 1 4 43 40q12 11 13-1 0-4-6-7l-7-5-10-8-19-17c-5-6-13-9-15-6m112 2-41 41q-8 9-2 9c2 0 11-7 18-13l15-14 10-10q0-2 3-2c4-3 7-1 19 10 40 39 41 40 44 37 2-3 0-7-14-20l-24-24c-17-17-21-19-28-14m-591 8-13 14-13 13-6 6v7l1 6 19-19 19-19 7 6q8 9 27 22l12 9q20 20 21 9c0-4-5-9-22-23l-14-13-21-15-4-5q-3-6-13 2m707 8-11 11-15 15q-17 15-11 18 4 3 14-7 27-28 33-27 3 0 15 10l5 5v-12l-7-7c-12-11-15-12-23-6m-255 23c-24 24-26 26-23 29q6 5 38-32c11-11 13-11 31 7q31 32 34 27 8-4-12-19l-22-21c-14-13-16-15-19-15s-6 2-27 24m-212-18c-2 0-14 13-23 23l-14 16c-8 8-9 9-7 11q2 5 15-8l16-18q18-18 17-22 0-3-4-2m357 4-3 5-4 4-24 21-12 11q-16 14-7 15c3 0 15-9 24-18q5-6 7-6l-7 8-23 27q1 3 5 2l16-14 23-19c4-5 9-1 52 40q10 11 13 12 4 0 4-4c0-4-1-5-12-15l-24-23a85 85 0 0 0-33-25q-7 1-3-4 7-12 17-2l42 41c0 2 7 5 10 4q8-2-10-19l-25-24c-17-17-22-20-26-17M36 306l-16 15-14 14-6 5v6l1 6 10-10 16-17c6-6 15-13 17-13l7 6 12 10 29 26q8 9 12 5 4-5-15-20l-17-15-13-12q-7-5-9-10-3-8-14 4m124-5-35 33q-12 11-4 12c4 0 44-39 44-43q0-6-5-2m14 0-1 2c0 3 34 35 39 38q6 2 7-4 2-3-16-18c-25-21-27-22-29-18m107 2c-1 4 46 51 52 51q8-1-3-12l-36-33q-11-12-13-6m455 9c-32 30-37 36-31 38 4 0 5 0 24-19l17-16q3 0 15 10c8 8 8 8 8 2q1-6-4-9l-7-7c-9-9-11-9-22 1m-232-2-6 6c-3 4-12 16-15 18-5 4-22 25-21 26q2 3 6 2c4-2 19-17 26-26 15-17 16-17 33 0 24 22 32 29 36 29q5-1 4-6c-2-3-25-23-33-28l-12-11c-12-13-13-13-18-10m-330 9q-3 3 4 9l19 18q20 21 22 14c1-3-2-6-16-20-24-22-27-24-29-21m77 21c-21 22-23 25-21 28 3 2 6 0 21-15 19-20 26-28 26-32-1-5-3-3-26 19m142-20-37 36q-7 9-3 10c3 1 3 1 18-14l19-17q10-8 8-14-2-3-5-1m344 8-17 19-12 13q-8 10-1 11c2 0 15-14 24-24q9-10 11-10c1 0 5 5 5 7 0 3-14 16-17 16-4 0-9 6-9 10 0 5 0 5-7 12l-7 8q0 4 4 4c3 0 5-2 17-15q7-8 10-8l5-4 3-3c2 0 15 9 19 14q6 5 5-6 0-6-1-5 0 4-4-1l-7-6q-8-6-5-10c2-2 2-1 10 4l6 4v-12l-8-6c-12-11-12-11-12-14q2-11-12 2m-593 10c-24 24-27 27-27 30q1 9 12-3l17-18c15-14 17-17 15-20-2-2-4-1-17 11m142-9c-3 3-1 5 11 16l11 11 27 24q4 1 5-3 0-2-21-24c-26-26-30-29-33-24M20 348 1 368v5l1 5 17-17c10-10 19-19 21-19 4-2 4-1 47 38 11 9 13 10 17 7q5-5-10-17-7-4-12-10-33-32-40-31zm376-15v5q0 5-22 23c-9 7-22 20-22 22q1 9 14-3l15-13 15-15 4-4c2-1 9 1 10 4l10 8 15 13q13 12 16 8c5-2 3-5-19-24l-13-11-16-12q-5-3-7-1m111 5-45 45q-3 5 3 7 4 3 31-28c15-17 16-17 31-3l22 20q12 12 16 11 10-1-3-13l-14-12c-13-13-29-26-31-27zm96 26c-22 21-24 24-21 27s6 1 27-19c20-21 22-24 20-28s-4-2-26 20m-432-19v4l21 23 12 10q14 14 15 4c0-3-2-6-21-24q-24-26-27-17m103 5-46 46q1 3 5 3c3-1 24-22 32-32 12-13 15-12 49 22 23 22 26 23 28 16q3-2-16-17l-12-12-8-7-1-2-6-5-12-9q-9-7-13-3m-230 2-12 12-20 19-12 11v6l1 7 9-8 16-16 22-23c8-7 5-14-4-8m590 1c-3 4 2 10 23 27l13 11c18 17 21 20 24 15 2-4-1-7-16-21l-20-17q-21-20-24-15m-479 4c-7 5-23 19-29 26l-7 6-3 3q-2 3 1 5c3 3 5 2 20-13l19-17q13-9 7-12-2-2-8 2m242 3-3 5q-1 3-9 10c-29 28-37 38-30 39 2 0 6-4 23-21 24-24 23-23 33-17l27 22q13 13 15 5-2-6-26-26l-11-10q-12-13-19-7m111 1c-5 3-42 41-46 47q-2 8 5 6l22-20 23-22c4-2 8 0 27 19 22 22 28 25 29 17q1-2-6-8l-12-11-18-18q-16-16-24-10m-455 5c-3 3-3 4 8 14l13 14 22 22q7 6 9 1c3-6 3-5-28-35-20-19-21-19-24-16m118 1q-3 3 6 11l20 19c15 15 17 17 20 15q7-1-8-16l-17-17q-16-17-21-12m457 1-6 1c-3 0-15 11-24 22l-12 14q-10 10-5 13 4 5 13-7c9-10 29-32 32-33q5-4 7 1 1 4 8 10l13 11 10 9 16 15c11 10 14 12 17 10q6-3-7-15l-9-7-36-32-7-5q-4-1-4-4-1-6-6-3m-358 8-31 29q-17 17-8 17c3 0 5-2 21-18l22-20c4-2 4-2 18 12q42 43 49 40 4-4-2-10c-55-51-61-56-69-50m473-1q-3 1-9 9l-14 15q-13 13-10 15 5 6 18-10 12-14 17-15 2 0 13 10l10 10 1-6c0-7-1-8-12-17l-6-7q-1-4-4-5zm-597 14-15 14q-19 16-12 19c3 1 6-1 19-14l18-18q7-4 6-9 2-12-16 8m-102-7-8 8-32 29-4 4v6l1 7 12-12c6-6 16-16 23-21l13-13q4-6 0-9c-2-1-1-1-5 1m455 9-22 23c-15 16-18 19-14 22 3 2 4 1 37-31q10-10 12-10c3 0 17 11 34 28 14 13 17 16 20 12s1-7-12-18l-20-18-18-13c-8-5-9-4-17 5m-105 8c-22 20-40 40-40 43q2 8 12-4l26-22q2 1-28 33c-11 12-11 12-10 15 2 4 1 5 33-26l10-10q2-4 6-6l17 14 20 18c8 7 9 7 12 4q5-4-5-12l-13-10-12-12-11-10q-8-6-6-9 0-8 29 18 17 16 18 6 1-3-15-17l-10-8q-14-12-20-14-3 0-13 9m-342-6q-3 8 13 20l19 17c14 13 18 15 21 13 2-2-2-11-6-14l-18-17c-20-20-25-23-29-19m120 4c-4 1 1 11 8 15l17 15c13 13 16 14 19 13 4-1 1-5-16-22-22-22-23-23-28-21m453 0c-2 1-11 9-39 37q-8 8-5 11t11-7c8-9 32-33 34-33 3 0 5 2 27 22l32 29q11 11 13 5 3-5-8-14l-40-37q-18-17-25-13m-353 9-30 27q-15 13-12 17c3 3 3 3 37-29l14-16q-1-5-9 1m-120 3-9 11-5 5c-13 10-23 24-17 25 2 0 39-35 41-41 5-8-2-8-10 0m598-2c-9 6-41 38-41 41q0 4 4 4l13-12c22-22 25-24 32-16l6 5 5 4v-6c0-5 0-6-5-11l-5-7-2-4q-1-2-7 2m-463 2q-3 4 20 22l10 8c6 6 18 16 21 17q5 1 4-3c0-2-21-21-35-32-17-14-18-14-20-12m217 3-7 8-16 17c-18 18-21 23-14 23 4 0 38-34 45-45 5-7-1-9-8-3m-458 0c-1 1-12 10-23 22L1 455v11l17-16c34-34 30-32 42-19q15 15 3 6c-11-7-12-6-35 17L7 473c-7 7-7 7-7 12l1 5 15-14c14-15 31-30 34-31q5-1 14 8l15 14 11 10q9 9 14 5c2-3 0-6-16-20l-15-16q0-3 14 10c13 13 15 14 18 10q5-4-7-13l-24-23c-19-18-22-20-28-18m472 5q-3 4 4 10l20 19c17 18 19 19 23 18 5-2 1-8-19-27-22-21-25-23-28-20m-247 12c-17 14-42 40-42 43 0 5 7 4 13-3l37-37c6-4 7-3 32 19l18 16q9 9 12 7 4-2-8-13l-20-18-14-13q-11-11-15-11-3 1-13 10m355-8c-12 7-51 48-46 48l2 1c2 0 7-3 26-22l18-16c4-2 9 2 53 43q14 14 17 10t-6-13l-18-16c-14-14-34-31-38-34q-5-3-8-1m-453 2q-5 4 10 15l16 15q16 17 19 13c3-3 1-5-17-23-21-21-24-23-28-20m-13 10c-3 1-16 15-35 33-7 7-8 8-8 11q0 5 4 4l19-17c22-23 22-22 27-15l2 4-10 10-25 24c-18 17-20 19-18 23s0 5 37-30l20-18 4-2 4 3 8 7c26 24 31 27 30 18q2-6-13-15l-10-10c-8-10-19-20-23-22q-5-1-6-5-2-6-7-3m241 0q-3 3 3 8l9 10 13 12 15 14c10 9 10 9 13 6q5-3-6-13l-27-24-10-9q-7-7-10-4m110 3-14 14-14 14-8 8-8 9q-5 7-2 9 3 5 10-3c11-13 37-38 38-39 3-1 4 0 23 17 25 22 26 23 29 21q7-3-13-20l-18-16c-17-17-18-17-23-14m232 1-4 6-24 27q-8 8-5 11c2 2 3 1 18-14 22-23 24-23 38-10l3 3v-6c0-5 0-6-5-11q-14-13-21-6m-120 5-7 7-14 15c-23 24-26 29-18 29l40-41q10-10 8-12-1-4-9 2m-351 10-25 26c-17 17-18 18-15 20s5 0 28-22c25-25 22-24 38-10l25 22 9 7q10 9 10 3 0-4-10-12l-10-10-28-25c-11-9-12-9-22 1m120-1q-4 1-9 6l-12 12q-18 15-17 18 1 9 22-10c18-17 17-17 27-8l12 10 11 9 9 9 9 8q9 10 11 1c0-4-5-9-24-26l-14-12c-6-8-20-19-21-19zm246 5c-3 4 0 7 15 21l21 17q22 21 22 11c0-2-2-4-12-14l-24-22c-15-14-18-16-22-13m-588 2c-4 0-6 2-19 15L8 495c-8 7-8 7-8 12v5h4q3 1 9-7l11-12 16-15c11-11 13-11 22-1l8 7 13 11c12 11 15 13 19 11q7-2-10-16l-8-7c-8-8-27-25-29-25zm696 6q-3 1 12 13l11 9v-6c0-5 0-5-5-9-7-8-16-11-18-7m-233 0c-4 3-45 44-45 46q1 3 6 1l20-19c22-22 21-21 33-12l20 19c11 12 12 13 15 13 9 0 7-3-17-26-24-24-26-25-32-22m109 10-13 14-16 15-8 9h5c7 0 10-2 20-15l8-9 13-10 13 11 19 17 8 6h14l-8-7c-14-14-30-27-35-30l-8-6q-3-8-12 5m-340-6q-4 4 6 11l19 18 15 15h16l-3-3-12-12-19-17q-17-16-22-12m455 9q-6 5-10 12l-10 11q-13 14-4 12c3 0 4-1 14-11q14-16 17-13l18 13q9 10 7 1 1-5-3-7c-9-7-17-16-17-19q0-5-5-5zm-347 1-12 11c-13 11-23 21-23 22l4 1c7 0 43-35 40-39-2-2-2-2-9 5m-219-1-19 18-16 17h10l6-6c23-24 20-24 42-3l10 9h13l-7-7-19-17-14-12c-4-1-3-1-6 1m87 18-17 17h12l13-13c13-13 16-17 14-20-2-2-5-1-22 16M54 483l-5 4q-4 2-18 17l-5 6-2 2h12l8-8 9-11c2-4 5-2 17 9l11 10h13l-4-5-11-10-11-9q-10-10-14-5m566 11-8 9-5 5-5 4h6c5 0 5 0 12-7l8-9 3-5q3-4-2-5zm-115-2-6 6-8 8-5 6h11l6-7c8-10 10-10 22 1l6 6h14l-5-4q-22-22-29-21-2 0-6 5m-105-2c-4 1-23 19-23 21s9 1 11-1c3-4 12-10 14-10q3 0 10 6l7 6h14l-7-6-10-10q-9-8-16-6m-120 2q-4 1-2 8c2 4 3 3-2 8l-3 4h32l-4-5-6-7c-4-5-12-9-15-8m354 7q-3 3 3 9c3 4 3 4 11 4q13 1 1-7c-10-7-12-8-15-6m103 7-5 6h11c11 0 11 0 9-2l-3-5q-1-11-12 1m-681-3c-6 3-1 9 8 9q10 1 2-5-6-6-10-4m120 0q-2 2 1 7 1 2 7 2h6l-2-2c-4-5-11-9-12-7m221 4q0 6 8 5h7l-5-4q-9-7-10-1"
        mask="url(#16282281824-posters-1720553930422-radial-mask)" itemprop="regular" fill-opacity="0.90"
        fill-rule="evenodd" stroke="none" fill="url(#16282281824-posters-1720553930422-horizontal-regular)"></path>
      <!---->
      <path id="16282281824-posters-1720553930422-medium"
        d="M5 3 1 6l-1 5q-2 9 7 0C20 0 20 0 13 0Q7 0 5 3m21 4L15 19 5 29c-5 3-5 3-5 9l1 6 23-24Q34 9 38 9q2-1 25 21l17 16 12 11q6 7 10 4 3-4-2-9L80 34 47 3Q37-6 26 7m29-5 29 24q13 12 16 5c0-3-1-4-14-15L69 1l-9-1q-9 0-5 2m33 1c5 5 12 4 11-1q0-2-8-2h-6zm34 2q-11 11-8 15l4 1c3-1 21-18 21-21h-6c-5 0-6 0-11 5m13 9c-19 20-22 24-22 27l2 3c2 0 13-10 23-20 24-24 21-24 35-11l14 12q7 4 12 10 11 10 12 3c0-2-19-20-24-23l-7-9-3-6h-27zm52-13 16 14c9 4 10-2 3-10l-5-5h-7zm36 2c-8 9-1 11 8 3l6-6h-6q-6-1-8 3m25 0-14 15c-13 12-13 12-10 14q2 2 12-5c9-7 5 0-7 12q-8 8-7 11c0 7 8 2 32-23l22-20 10 9 13 12 17 17c15 14 18 15 17 5-1-4-3-5-18-19l-19-18c-8-7-10-9-14-10q-5 0-5-2l-4-1-5 1h-4c-2-3-12-1-16 2m49-3c0 4 25 23 31 24 7 1 5-6-3-11q-12-7-14-12l-7-1zm52 5-5 5q-1 4 3 5c2 0 15-12 15-14l-4-1q-4 0-9 5m28 3-19 20c-13 13-15 16-11 18 2 1 3 0 12-8 23-24 30-30 33-30q6 2 28 24 27 25 28 19c1-3-3-8-22-26l-16-14C399 0 399 0 390 0h-7zm34-7 13 12 13 11c1 1 7 4 8 3q4-3-4-12C424 0 424 0 417 0zm58 5-8 8c-8 6-7 16 1 12 3-1 20-18 24-23l2-3h-15zm27-5c0 1-7 11-10 13l-8 10-13 15q-10 10-6 12 5 3 25-21l11-13 8-10c5-7 6-7 20 5l11 10 15 12q6 3 8-1c0-2-5-7-24-23L522 0h-13zm41 0 4 4 8 6c10 9 16 3 6-6-4-5-4-5-11-5zm38 5q-8 8-9 12l2 1q5 2 15-9c10-11 9-10 3-10-5 0-6 1-11 6m27 2-19 19c-13 12-15 14-13 17 2 2 3 1 23-18 25-25 29-28 29-18 0 4-1 5-6 11l-12 12-29 30q-9 6-6 8c3 2 5 1 19-13l34-31q4 1 4 8c0 4-16 23-42 47q-15 13-13 15c0 7 5 3 30-21 18-17 19-18 21-16 1 2 0 4-11 16l-13 15-10 12-9 10c-8 9-8 9-7 11 2 4 3 4 21-15l10-11c14-17 25-30 28-30 3-2 6 1 32 26 15 14 19 17 21 16q6-3-6-13l-24-24-21-19c-7-4-6-12 2-12 2 0 20 16 35 31 12 13 14 14 16 10 2-5 2-5-36-41l-17-16q-7-4-3-6 2-3 14 8 5 6 12 10l21 19q7 6 9-1c0-3-3-6-22-22L631 1l-11-1h-9zm43-7c0 1 37 37 39 37l4-4q0-4-17-21L657 0h-6zm25 0c0 1 12 13 14 13q4-2 0-11-2-4-8-3zm44 2-9 10q-13 13-6 15c1 1 7-2 7-3l10-12 10-12-5-1q-5-1-7 3m30-2 12 14 13 11V15l-7-8c-7-7-8-7-13-7zm-9 7q-4 2-11 11l-15 16-12 15q0 5 5 4c3-1 15-13 20-21l11-12q10-10 6-13zm-229 5-9 11-15 18c-15 16-18 21-15 23q2 3 3 1l15-16 2-1 1-1 11-11c11-12 12-12 18-8l3 2 8 7q28 27 29 17l-17-17-12-12q-18-16-22-13M148 23l-25 30q-14 15-6 13 4 1 21-19l17-19c5-8 4-8 20 8 21 21 28 27 31 27 5-1 3-4-15-23-22-23-23-23-32-23h-7zm594-4c-2 3 1 6 14 18l13 12v-6c0-6 0-6-11-17q-15-13-16-7M28 29C19 35 7 46 2 52c-2 3-3 13-2 13l8-7 16-13q18-14 18-19-1-6-14 3m345 6q-36 37-26 36 3 1 13-11c9-12 26-28 28-28 3 0 13 7 16 11l14 13 17 16c13 13 16 15 19 12q3-4-13-17l-26-24a64 64 0 0 0-20-17c-10-3-10-3-22 9m-105-7-18 16-21 21q-7 6-5 8c3 3 5 1 24-17l21-21q6-4 3-7zm12 3q0 4 5 9l6 5 8 7 17 16q16 17 16 10 3-2-14-18l-21-20q-14-15-17-9m224 5v4q1 4-6 11l-7 9-12 12-8 9q-14 14-4 14c2 0 13-11 18-18 4-7 13-15 16-15l38 33c11 10 13 11 15 11q9 0-8-16l-33-29q-10-8-4-11c4-3 9 0 26 17q20 19 20 10c0-2-3-5-25-26-18-16-24-20-26-15m231 0c-7 6-35 36-35 38 0 4 7 0 9-5l2-2 3-1c28-26 25-26 44-7l11 10V58l-10-11c-13-13-18-16-24-11M49 37q-4 2 7 12l34 32q11 10 13 3c0-2 0-2-21-22L62 44q-10-11-13-7m111 2c-6 1-7 1-12 9l-9 11-3 5-1 1-3 3-10 12c-10 10-12 12-9 14q4 7 18-14l13-15 13-15q2-6 14 6 29 29 35 30c7 0 4-5-17-25l-20-19-6-4zM38 41c-2 0-12 9-22 18L5 69c-5 4-5 4-5 10l1 5 12-10 3-2q3-1-7 10l-9 7v6l1 5 21-19 14-11q12-7 9-12-3-6-14 4l-9 5 10-12q16-17 6-14m353 12c-5 3-44 44-47 49v4c2 5 5 2 27-21l16-16q7-7 14-4c5 3 20 16 32 28q17 18 21 13 3-4-7-13l-20-18-13-12c-12-12-17-14-23-10m-124 4c-6 4-4 2-24 23-18 17-20 21-18 24 2 2 1 3 29-24 20-19 20-19 36-5 18 16 37 31 41 31q10 0-10-17l-16-13c-28-24-29-25-38-19m-113 8q-5 3-11 11l-12 15c-8 8-18 22-18 24l1 2q3 5 22-21c10-13 23-24 27-23l18 16c27 25 30 28 33 25q3-4-16-19l-14-15c-20-21-21-21-30-15m580 1c-6 3-9 5-21 18-14 14-16 17-14 20 2 2 4 0 16-12l24-20c3-1 5 0 18 11l12 11V84l-8-8c-15-14-16-14-27-10M51 65q-4 3 6 12 38 35 41 34 2 0 2-2c0-2-13-18-20-24L66 73q-11-12-15-8m443 21a217 217 0 0 0-28 32c-3 2-5 9-3 10q2 4 13-10l10-12c12-11 23-25 23-29q2-7-15 9m-214-5-1 2c0 2 17 18 30 29l14 13q11 8 12 0c0-4-12-14-25-23q-5-2-14-11c-11-11-13-12-16-10m110 2-34 31q-15 14-11 16c2 3 5 0 32-25 17-17 20-18 27-10l13 12 17 16q11 12 17 13c4 0 2-10-5-18l-20-16-10-10c-14-13-19-15-26-9M34 87q-11 13-26 25l-8 7v6l1 7 22-22 12-13q13-14 7-15-2-3-8 5m589 0-11 12-22 24a73 73 0 0 0-17 20q-1 6 14-8l18-17 15-15 10-9q2-2 21 16l23 21q9 9 12 6 4-4-5-12l-15-13-14-13-7-7q-13-17-22-5m-361-1-34 34c-5 2-6 9-1 8 3-1 42-41 42-43q0-3-7 1m477-1-5 5-10 10c-20 21-24 26-22 29 1 5 4 2 19-14 22-23 22-23 39-7l9 9v-12l-9-8c-13-12-17-14-21-12m-578 1c-3 1-13 11-22 23l-17 20q-14 13-10 16 4 5 15-9l22-25q12-13 16-12l18 16c23 22 28 26 31 22 2-3 0-6-14-19l-24-23c-10-10-12-11-15-9m348 3q-3 2 2 6c26 25 35 33 42 37 7 5 9-5 2-9l-33-29c-4-4-12-7-13-5M48 91q-3 2 2 6l21 21c20 20 27 25 30 23 4-3 2-6-10-17l-21-21Q52 85 48 91m233 11q-3 2 7 12l35 34q6 8 11 5c2-3 0-6-13-18l-17-18q-16-20-23-15m-242 2q-12 8-28 24L0 139v6l1 5 8-8 18-17c18-17 19-17 20-20q0-6-8-1m464 1q-6 2-22 19l-13 14c-6 6-10 19-4 19 2 0 16-15 25-27q4-7 9-10 11-8 11-12-2-4-6-3m126 3q1 4 40 42c13 12 16 14 19 14q10-1-12-21l-19-18q-20-21-25-20-4-1-3 3m-377 16-22 21q-10 9-7 13 4 2 11-6l16-15c24-21 29-26 26-30-3-3-6-1-24 17m138-15c-6 2-22 16-25 22l-12 13q-13 13-6 15 2 2 14-11l25-28c6-5 7-5 23 10 30 26 38 32 42 30q3-6-15-20c-4-2-12-10-19-16-15-16-21-19-27-15m349 4q-4 2-11 10l-17 17q-17 17-6 18c2 0 10-8 14-12l17-21c7-7 11-6 23 6l10 9v-5c0-6 0-6-5-10l-6-7q-10-9-19-5m-577 3-26 25c-22 21-23 23-23 25 2 6 4 4 26-18 27-27 26-27 41-12l13 12 11 11q8 8 10 0c0-2-1-4-12-15l-20-20c-12-12-14-12-20-8m352 0q-3 2 7 11l17 15c18 16 22 18 22 11 0-3-1-5-12-13l-13-12q-18-16-21-12m-460 2q-4 2-11 10L1 167l-1 6 1 5 45-43c10-11 9-11 35 12 15 13 19 16 21 14q3-3-6-12c-15-16-31-30-34-30l-4-1zm564 5-11 11-11 11c-11 11-23 25-23 28q1 8 14-8c4-6 31-33 34-35q4-2 18 12c13 13 42 41 45 42q5 2 5-3 0-4-25-27l-16-15c-26-25-23-23-30-16m-337 4q-3 6 14 17l9 7 25 25h5q5-3-7-13l-16-13c-27-25-28-26-30-23m219 7c-18 21-26 30-33 36q-10 8-7 11 1 8 15-10l11-12 11-12c7-8 12-7 24 5l9 8 11 10c7 8 17 16 19 16l2-3c2-4-1-7-14-18l-20-17-13-12-6-5q-4-3-9 3m-111-1-8 7-9 9c-6 5-27 27-27 29 1 4 12 0 12-4l1-2c3-1 36-36 36-37q-1-4-5-2m-122 4c-3 1-23 20-33 30q-10 10-8 12 2 3 12-6c32-33 34-35 31-36zm133 1q-3 1-1 4a228 228 0 0 0 39 36q11 9 11 2c0-2-2-4-13-14l-21-20q-13-13-15-8m333 6-20 19c-11 12-13 15-10 17 3 1 6-1 33-27 11-10 12-10 26 4l7 6v-12l-6-6c-13-12-18-12-30-1m-684-4c-1 4 17 24 38 40l6 5q9 7 13 0 1-5-6-9-4-1-14-10c-34-30-35-30-37-26m118 3q-3 2 7 12l11 12 24 22q4 2 5-3 0-6-11-12l-13-12-16-17q-6-5-7-2m451 6q-4 7-8 9l-35 36q-2 6 3 5c2-1 32-31 39-40 6-7 7-7 18 4l20 19 16 16q17 15 18 5 1-5-10-12l-27-24-22-18q-2 0-2-3-3-7-10 3m-341 1q-3 1 5 9l17 17c9 10 24 22 31 27q5 3 6-2c0-2-1-3-18-18l-21-20q-17-16-20-13M34 160l-23 21-6 7c-5 4-5 4-5 9 0 6 0 6 10-5l17-17q16-16 16-21 1-4-9 6m468-4-9 11-20 20c-13 14-15 17-14 22q3 4 9-2l29-34c7-9 9-9 24 4l24 21 7 7q9 8 11 3 2-2-12-14-34-30-38-37-4-9-11-1m-356 9-15 16-9 8c-6 4-10 13-6 14q3 3 25-19 15-16 17-15l23 21c30 28 33 31 34 24 0-3-3-6-23-23-25-23-29-27-29-32q1-6-3-5c-3 0-5 1-14 11m246-10-45 45v3q1 4 15-9 23-23 28-26c6-4 7-4 39 26 13 13 16 15 19 14 2-1 1-7-1-9-49-47-49-47-55-44m349 4-3 5c-2 4-15 18-26 27q-18 15-8 15c4 0 17-9 29-22 15-15 14-15 27-4l9 8v-6l-1-6-9-8q-16-16-18-9m-482 16-17 18-12 11q-9 9-3 10c4 0 44-42 44-46q0-6-12 7m-205-6q-3 3 7 12l18 15c20 19 20 19 23 19q4 0 4-3c0-2-3-5-18-20-24-23-30-27-34-23m574 1-11 10-16 16c-13 12-26 26-25 27 1 4 4 2 33-27 13-13 16-15 20-14q4 1 30 26c22 22 26 25 29 21q3-3-20-24l-23-22-14-14zm-586 6-25 22c-5 6-14 13-16 13l-1 6v5c2 0 24-19 42-36q9-7 7-9 0-5-7-1m242 5c-2 6 43 47 51 46q8-1-10-16l-20-18q-19-17-21-12m209 14-23 24q-11 11-10 12c1 7 8 1 36-32q8-10 12-6 3 1 1 3l-20 24-11 12-13 14q-10 10-3 12c2 0 9-7 29-29q13-15 16-10 5 6-5 16-7 6-15 16l-19 19-9 11q1 4 4 4c2 0 20-18 31-32 11-13 12-13 22-3l25 24 5 4c4 6 17 13 19 11q3-3-1-7l-8-7-11-9-10-9-14-13c-9-9-11-11-7-14q4-5 36 28 12 14 15 9 4-7-11-19l-22-19-11-10q-14-12-7-16 3-5 13 4 16 16 18 15 1-1 2 2l6 8q9 9 10 1c0-4-11-16-26-28l-29-25zm-122 6c-21 20-24 24-22 27 2 2 4 0 23-19q17-16 21-17c3-1 7 1 30 22 21 20 22 21 25 19 2-3 0-6-13-18-43-42-37-40-64-14m-220-8-32 32q-1 5 4 3c6-3 39-37 39-39q0-6-11 4m586-4-16 16c-18 19-22 25-17 28 3 1 6-1 19-15 23-26 21-26 37-12l9 8v-10l-6-6c-6-6-16-12-19-12zm-685 2q-1 3 5 10l14 12 12 11 11 9q11 10 13 5 3-2-8-12l-25-24q-17-17-22-11m216 6-8 8-20 21c-15 14-16 16-14 18 3 2 8-3 33-28q12-14 15-14c3 0 15 10 24 20l13 13q7 4 13 11 12 11 13 3 1-2-6-8c-8-6-30-27-38-36-12-12-17-13-25-8m-233 8L4 233c-4 4-4 4-4 10v5l6-5 19-18 17-15q7-4 6-9-3-6-13 4m131-5 7 11q4 7-2 4-10-5-21 8l-9 8c-8 7-21 20-21 22l1 3c3 2 5 0 18-13q22-23 25-20c3 0 7 4 20 18 23 23 27 27 31 24q3-2-4-9c-17-16-31-32-31-35q3-2 21 16 13 13 15 7 3-3-7-11-18-16-22-22c-4-6-19-14-21-11m467 2q-3 2 4 8l35 32c12 13 14 14 17 9q2-5-7-12l-17-15-11-11-12-8q-7-6-9-3m-23 11c-30 27-37 36-31 36 4 0 44-40 44-44q0-4-13 8m-219-4-3 4-24 25q-17 16-13 16 1 2 9-5l13-11 15-15q5-6 8-6c2 0 11 7 19 15l14 12 8 7q10 8 11 2c0-4-23-26-26-26l-8-8q-13-12-18-13zm-340 0c-3 2 18 26 30 34l10 7q12 11 14 8c2-3 1-3-29-32-18-16-23-20-25-17m688 1-3 2-17 17c-19 21-23 27-15 28 2 0 14-12 16-16l7-6 11-10c7-8 9-7 23 6l8 8v-5c0-5 0-5-6-11l-10-9-7-4q-3-3-7 0m-113 6-3 5c-1 5-16 21-37 40q-13 12-7 12 3 0 8-6l12-10 7-5 7-7 11-11c9-8 8-8 34 18 22 23 26 25 29 23 4-4-1-11-29-36l-14-14q-13-12-18-9m-588 8q-9 6-26 22l-9 8q-4 2-3 8v6l10-9c30-28 37-36 35-37q-1-2-7 2m212 19-22 21q-3 2-1 6c3 1 7-2 24-18 19-20 22-24 22-26-2-4-5-1-23 17m139-16v4q-1 8-6 9l-4 4c-2 4-13 17-25 29q-7 9-2 9 2 0 15-13c22-22 30-29 32-28 4 1 26 23 40 38q6 10 10 6c3-3 0-11-7-16l-9-10q-38-39-44-32m-110 2v4c2 3 51 47 56 48q5 1 4-5l-20-19-15-13q-24-23-25-15m462 0-3 4-19 21-18 19q0 4 4 5c2 0 40-38 42-42q2-10-6-7m-693 2v2l46 45q14 13 14 5c0-2-17-18-29-29-28-25-30-26-31-23m702 11c0 2 0 4 10 13l9 8v-5q1-6-2-7l-7-6q-7-6-10-3m-709 5-9 8-30 28q-2 1-2 6l1 5 9-7 11-10c6-6 21-18 23-18q6 1 32 25c26 24 27 26 30 25q6-4-4-13l-19-18-18-17q-13-9-13-13-2-9-11-1m117-2-10 9-12 12q-17 13-16 19 3 4 11-6c10-10 31-28 34-28 1 0 4 2 18 16l17 15c3 4 11 10 13 10q9-1-4-13l-15-14a86 86 0 0 0-22-18l-5-2q-4-4-9 0m467 1-12 12-16 17c-19 19-21 22-19 24s3 1 20-15q27-27 33-28c3 0 8 5 40 38 8 8 9 9 12 9q9-1-6-15l-19-19-9-11c-16-17-17-17-24-12m-361 9c-15 13-35 32-35 35q0 8 23-15l14-13 10-11q0-6-12 4m19-2q-1 4 9 12l13 14 27 24q5 2 6-3 0-3-5-7l-16-14-18-16c-12-12-14-14-16-10m460 6c-7 5-36 34-39 39q-3 5 1 6l19-18c20-21 22-21 28-15l7 6 7 5 3 3v-13l-8-8c-10-9-11-10-18-5m-347 0q-1 2 9 11l23 20c12 13 15 15 18 15q11-1-15-24l-14-13q-19-16-21-9m97 13-33 35 1 1c2 3 7 0 26-20 21-22 23-24 21-26-3-2-4-1-15 10m-105-5-8 7-12 12-12 12q-8 8-6 9c2 4 2 4 28-20 10-10 12-11 16-2l2 4-7 7-11 9c-4 3-29 27-29 29q0 3 4 3c3-1 5-3 21-18 17-16 17-16 25-7l25 23 12 11q11 10 13 7 8-3-19-25c-12-10-32-30-32-31q1-4 5-5l9 8 12 9 11 9q17 14 15 4c-2-4-34-32-37-31l-1-3q-2-5-15-11l-4-2 1-5q1-6-2-5zm-233 8-11 11c-11 8-26 24-26 27q1 6 12-4l36-34q3 1 11 10c15 15 33 32 36 33q13 2-10-20l-20-20q-15-19-28-3m117-4c-12 8-42 36-42 39q-1 8 15-7l22-20q7-7 10-6l17 16c20 20 38 34 41 33q5 0-12-16l-35-34c-8-9-9-10-16-5m240-2q-1 5 4 9l7 6 30 27c2 3 9 7 11 6 6-1 5-8-2-11l-8-6-10-9q-7-4-14-12-14-13-18-10m112 2c-5 4-34 32-41 41q-7 8-3 9c1 0 12-8 20-16q24-24 28-24c3-2 6 0 17 10l37 36q6 6 7-1c0-3-2-5-15-17l-26-26q-15-14-19-15zm-592 9-9 10-13 13-10 10v6l1 5 19-18c9-11 18-19 19-19l6 4c4 5 19 17 30 24l11 9q12 12 16 13 7-1 0-10l-26-24-8-7-19-14-5-5c-3-4-4-4-12 3m710 6-12 11-19 19q-10 9-9 12 1 8 13-4l13-14c7-7 17-14 20-14q4 0 15 9l6 6v-5c0-5 0-5-5-11q-15-15-22-9m-234 1-17 16c-30 31-32 33-29 36 3 2 6-1 28-23l19-18q6 0 28 22 25 26 28 20 5-3-14-19l-20-18c-17-17-19-18-23-16m-246 14-15 17-13 14-6 8q1 7 11-3c33-36 37-41 36-44q0-5-13 8m365-2-15 15-10 10-15 12q-14 12-10 15h6l3-3 5-5 14-12 9-8c0 1-5 9-12 15-9 9-21 24-21 25q2 7 20-13l14-13 6-4c6-5 7-5 12-1l44 41q14 14 16 9 2-4-11-16l-26-24c-9-11-29-26-33-25q-6 2 0-7c6-8 9-7 37 20l13 13 4 5q12 12 14 4 1-3-5-8l-24-24-23-22q-7-5-12 1m-584 1-18 17-20 19q-6 3-5 9l1 6 27-27c5-6 13-12 15-12q3 0 8 5l12 10 10 9 8 7 9 8c9 10 10 11 13 8q4-5-15-21l-16-14-18-16q-2 0-4-5-3-7-7-3m109 9-19 18q-20 17-13 19c3 0 4 0 23-19s23-23 22-25q-1-5-13 7m23-8c-2 2 0 5 14 18 22 22 26 24 29 20q3-4-8-13l-14-12q-19-18-21-13m107 3c0 2 17 20 26 28l14 13q12 11 14 8c1-3-2-6-15-18l-24-22q-15-16-15-9m452 11q-40 36-28 34c4 0 7-3 23-19 19-19 17-19 35-3l5 5v-10l-10-8c-12-11-11-11-25 1m-230-5-6 7-18 22c-18 18-20 22-15 23 3 0 19-13 25-21 16-21 21-23 34-10q38 40 42 32 4-5-29-30l-11-9c-5-5-16-16-18-16zm-331 11q0 3 8 10l17 16c14 13 17 16 20 13 1-3 0-5-15-19-25-23-28-25-30-20m81 18c-26 25-28 29-21 29 4 0 45-43 44-47s-5-1-23 18m120 0c-19 18-23 23-22 26q2 5 15-9l16-16c13-10 14-11 14-15 1-8-2-7-23 14m362-9c-13 13-32 35-32 38q1 3 5 2l24-26c7-8 8-9 12-5l3 5a48 48 0 0 1-22 19l-3 2-1 5c0 5 0 5-7 12q-12 10-4 12c2 0 4-2 18-17q7-7 10-7l4-3q2-5 5-3l20 15q2 2 2-7 0-6-1-4 0 3-5-2l-8-7c-8-6-4-14 4-8l6 4 3 2v-10l-10-9c-9-8-10-9-10-12q0-11-13 4m-581-1-37 37q-3 5 2 5 2 0 9-7 6-9 17-18 21-19 13-19zm131 0q-4 2 8 13l12 11 30 27q4 0 4-4c0-1-41-43-46-46q-5-4-8-1m-254 9-19 19-12 11v10l18-18c19-19 22-21 26-18 4 2 15 12 23 20l12 10 10 9 8 7q4 1 6-2 2-5-9-14l-23-21c-24-24-28-25-40-13m365-4-1 4q1 6-21 23c-11 9-22 20-22 23q0 6 12-4l10-8 22-22 4-4 4 2 5 3 9 8 15 12q17 16 18 7c0-3-4-7-28-27l-16-14q-8-5-11-3m111 4-24 23c-20 19-22 22-22 25q2 6 9 0 10-8 19-18 15-17 20-20c4-2 6-1 19 12l14 13 9 8q10 10 15 8c5-1 4-3-19-23l-19-18q-16-15-21-10m104 18-21 20q-15 15-6 15 4 1 26-23l12-12q7-6 6-9c0-7-3-5-17 9m-440-11q-5 3 30 35 13 13 15 9c4-3 1-7-17-24q-25-27-28-20m80 27c-24 23-26 26-20 26 3 0 23-19 34-32q11-15 24-1l8 7 20 20c15 14 19 17 22 16q7-4-15-21l-11-10q-5-7-8-7l-2-3-6-5-11-8c-10-8-8-8-35 18M36 361l-14 13-13 12-9 9v6l1 6 6-6 13-13 21-21 6-6q9-9 2-10-3-2-13 10m598-7v4l24 21 16 15c12 12 14 13 16 13q12-1-9-18l-23-20c-16-15-21-18-24-15m-478 3c-19 15-40 35-40 38q2 7 15-5 17-19 24-23 9-6 9-10-2-5-8 0m241 3-3 6q-3 5-21 21l-20 22q-1 4 2 5l23-21 24-22c2 0 13 7 20 13l22 19c5 5 10 3 7-3 0-2-17-17-27-24l-8-8c-6-7-16-11-19-8m111 2-43 43q-6 7 0 9l20-18c26-26 29-27 36-23l20 19c19 18 23 22 26 19q3-4-7-12l-8-7-14-15q-22-23-30-15m-455 4q-4 3 7 13l12 11 24 25q7 6 9-1c0-4 1-3-22-25-26-25-27-26-30-23m118 1c-2 2 0 4 20 24s24 22 26 20q5-3-6-11l-21-23c-7-8-16-13-19-10m453 2c-6 2-17 11-24 21l-18 20q-4 6 0 9 3 2 15-12 28-31 33-32l3 4c2 4 15 16 31 29l17 15q12 14 16 11c2-1 1-8-2-10l-30-25-27-23q-3-2-4-5-1-6-10-2m-353 7c-8 6-43 40-43 42 0 5 7 5 10 0 8-10 35-36 38-36q3 1 18 15c34 33 42 40 47 39q5-2 0-7l-46-43c-6-6-17-12-20-12zm472 0c-3 1-12 10-15 16l-9 9q-14 13-6 14 6 0 14-10c15-20 17-20 31-7 11 12 11 11 11 5q1-8-13-17l-4-6q-2-7-9-4m-598 14-20 19q-10 8-7 12c3 2 6 0 22-15l18-17q7-6 4-11c-2-2-3-1-17 12m-101-6q-4 2-6 5l-6 6-12 11-14 13q-7 4-6 10v6l15-14 24-22c10-10 12-12 12-15q-1-4-7 0m455 7-22 24c-13 13-15 15-15 18 1 6 4 4 26-18 23-23 24-23 29-18q16 12 30 26 20 20 19 9c0-4-2-6-11-14l-7-6-28-23-7-4c-5-3-6-3-14 6m-95 0c-5 3-40 37-46 46q-5 6-3 7c3 1 3 1 11-6 13-13 25-23 26-22q3 1-3 7l-13 14-15 16q-11 11-4 12c2 0 35-32 42-41 3-4 5-3 18 8l25 23q9 8 11-1l-11-11-19-18-13-12q-7-4-6-7-1-13 29 15l12 11q7 2 7-3c0-2-9-11-14-15l-10-8q-20-18-24-15m-352 3c-2 3 4 12 14 19l24 22q11 11 14 8c4-3-5-14-35-42q-13-12-17-7m120 4c-3 2 2 10 8 14q5 2 22 19 14 14 15 6c0-2-5-7-29-30q-14-14-16-9m447 5-37 37q-3 3-1 4 2 5 12-7c8-10 28-30 31-32 4-2 7 0 31 23l30 28q10 10 12 6c3-5 2-7-26-31l-20-19c-18-17-23-18-32-9m-465 5q-6 5-10 12l-6 6c-2 0-19 18-19 20q-1 8 13-6l26-26q12-18-4-6m118-1c-18 14-43 39-42 41q1 6 14-6 37-35 36-37 0-4-8 2m479 0c-7 4-39 35-41 40q-2 4 2 4 3 1 10-8c7-8 23-22 26-23q4-2 15 7l6 5v-5q1-4-4-9-5-4-6-8-2-7-8-3m-463 3v3l17 16 10 8c10 9 23 19 25 19q6 0-5-10l-32-28q-16-14-15-8m216 3-36 39q-6 7-1 8c2 0 17-14 28-26l13-14c9-10 6-16-4-7m-459 0-23 23C1 456 0 457 0 461l1 4c1 0 11-9 22-21 26-25 25-24 31-19l5 4c0 1 14 15 21 20l12 11q8 9 12 7 8-3-9-16l-22-20c-20-20-22-21-28-18m474 5q-3 3 5 10l20 19c14 15 18 17 20 16q7 0-11-18-31-32-34-27m-240 3-9 9-40 40q-2 3 3 4c3 0 5-2 14-11 8-10 33-33 36-34q6 0 43 34 13 14 15 9 4-1-10-12l-34-32q-10-9-13-8zm347 1c-13 8-47 42-45 45q0 7 24-16 20-21 22-20 6 0 22 16l30 28q14 14 16 9 5-2-13-18l-30-28-12-11c-8-7-10-8-14-5m-452 1q-4 3 6 12l19 18q18 17 19 12c1-3-5-11-27-31-11-11-14-13-17-11m-14 10-34 33c-8 8-9 9-9 12 1 6 4 4 22-15 22-21 22-21 26-17 6 7 10 3-32 43-14 14-17 17-17 19q2 6 8-1l48-45c5-3 6-3 16 6 28 27 27 26 31 24q4-5-11-17l-12-11a88 88 0 0 0-23-22q-6-3-7-6-1-6-6-3m241 1q-2 4 4 7l9 10 14 14 14 11q13 13 13 4c0-2-13-16-22-23l-23-20q-4-6-9-3m-357 5-17 16-19 18c-7 7-8 8-8 12l1 4 20-19c20-20 27-26 31-26q4-1 15 12c12 11 29 26 32 27q4 0 5-4 0-3-7-8l-19-19c-20-19-25-21-34-13m456 9-16 14-3 4-5 6q-16 16-10 18 1 5 10-6c15-16 34-34 36-35q5-2 8 1l9 8 13 12c18 16 23 19 24 14q4-3-17-19l-19-18c-15-16-13-16-30 1m245-11-5 6-25 28q-7 9-3 10l15-14c22-22 23-22 35-14l7 6v-5c0-10-17-22-24-17m-122 6-7 7-14 15q-27 28-19 27c3 0 50-49 49-51q-2-4-9 2m-356 15c-6 8-17 19-24 25q-17 17-9 15c2 0 18-15 38-35 11-11 11-11 28 5l23 19 9 8q8 7 9 4 1-4-8-12l-12-11-22-20c-17-15-16-15-32 2m125-7-12 10-15 14q-16 12-8 14 6-1 23-17c13-12 14-12 22-4l12 10 28 25q10 10 13 4c0-3-2-6-16-18l-22-21c-15-15-20-19-25-17m247 6q-3 5 17 21l18 15c17 15 21 18 21 11 0-2-1-3-15-15l-21-20-14-12zm-591 2c-4 1-4 1-19 16L9 495c-9 8-9 8-9 13v4h4q3 1 7-4c2-5 33-36 37-38q5-3 12 4l14 11 9 9q18 18 20 9 1-1-11-13l-26-23q-9-10-18-8m699 5q-3 1 12 13l10 8v-5q1-5-4-8-14-13-18-8m-232 0c-6 3-47 45-46 47 2 2 5 0 24-18 21-21 22-22 28-18s9 7 24 22c13 13 15 15 18 15q4 1 3-3c0-4-44-46-48-46zm109 8-21 22-17 17 5 1h5l6-6 8-10 17-17q5-3 6-1c7 6 18 15 23 21 14 13 14 13 21 13q9 0 5-3l-11-9c-18-17-24-21-29-24l-8-6c-4-5-4-5-10 2m-342-1q-1 3 6 7l9 9 15 14 11 11h15l-9-8-22-21q-24-22-25-12m454 7-24 30q-4 4 1 4 2 1 10-8 15-17 18-17 4-1 18 12c10 8 10 8 10 3 0-3-1-4-10-13q-11-10-11-13-1-9-12 2m-346 1-17 15c-19 17-20 18-14 18 5 0 41-34 40-37q-1-5-9 4m-236 15-17 18h9l12-12q10-12 14-13 5-4 24 17l8 8h12l-10-9-17-16q-11-12-15-11zm117-10-10 9-13 12-6 7h5c6 0 6 0 23-17 9-10 11-12 10-14q-2-5-9 3m-218 1-4 3q-4 2-19 18l-5 6h5q6 2 22-18l4-4 3 2 13 11 10 9h11l-5-6-10-9-12-9c-7-7-8-7-13-3m574 3-13 13-11 11h5c4 0 5 0 12-7q15-16 10-18-1-1-3 1m-127 9-11 12-2 3h4q4 2 10-7c11-11 12-11 24 0l6 7h13l-8-8a57 57 0 0 0-24-16q-3-1-12 9m-101-6-12 10-10 11h4q3 1 8-4 9-8 13-9 2 0 15 10 2 4 9 3h7l-5-4-10-9q-10-10-19-8m-121 3 1 4q3 6-2 11l-4 3h32l-4-4-6-7c-4-6-15-11-17-7m357 6q-3 3 3 8c3 4 4 4 11 4h7l-4-4q-14-12-17-8m105 3-5 6-2 3h20l-2-2-2-4q-1-5-5-6zm-685 1q-2 7 9 8h7l-5-4q-8-8-11-4m121 0 1 4q1 5 7 4h6l-5-5q-7-6-9-3m221 3q0 5 9 5h5l-4-4q-9-5-10-1"
        mask="url(#16282281824-posters-1720553930422-vertical-mask)" itemprop="medium" fill-opacity="0.90"
        fill-rule="evenodd" stroke="none" fill="url(#16282281824-posters-1720553930422-vertical-medium)"></path>
      <!---->
      <path id="16282281824-posters-1720553930422-bold"
        d="M7 1 3 5C0 7-2 15 1 15L14 4l5-4h-5zm24 2-6 5-8 9L6 29c-6 4-6 4-6 9l1 5 17-17C33 8 38 6 45 13l7 6 37 34q8 9 11 8 7-1-2-9l-6-6-7-7-10-9L45 3q-7-6-14 0m25-1 21 16c10 12 22 19 20 14l1-3c1-1 0-3-12-13L73 6q-4-7-13-6-8 0-4 2m33 1q2 3 6 3 4 1 3-3V0H86zm33 3q-14 14-5 14 3 1 12-9c11-10 11-11 4-11-5 0-6 0-11 6m13 9c-21 22-26 28-20 28q1 2 31-28 12-13 14-12 4 1 17 12l11 10 11 9q10 9 11 4c0-2-11-13-20-21a22 22 0 0 1-12-13l-2-4h-25zm57-10c10 9 11 10 15 10q7 0-2-10l-5-5h-13zm33-4-2 3c-2 2-3 7-1 7q5-2 11-8l2-3h-5zm24 3-15 15q-14 12-11 12 5 3 15-7h4c0 1-6 9-13 16q-11 12-5 12c4 0 6-2 29-25l23-21 12 10 23 23c22 21 21 20 21 14s-2-7-19-23l-19-17-11-9-6-2c-2-2-8-3-8-1q-3 3-6 1c-1-4-10-2-14 2m49-4 13 13 4 3 4 3 1 1 3 1q4 3 8 2 4-5-9-11c-4-2-12-9-12-11l-6-1zm52 5c-9 10-4 13 5 3q10-9 3-8-3 0-8 5m33-4-5 6-11 12q-5 8-9 9c-5 4-13 15-12 17q2 4 12-7c13-14 31-31 32-31q5-1 31 25 29 28 26 17c0-2-11-14-19-20l-15-14C397-1 398 0 390 0zm30 1 26 23 3 1q10 1-2-11C423 0 423 0 417 0h-6zm57 3-4 5v1l-3 3c-6 3-9 11-5 12q4 2 18-12c13-14 13-14 4-14h-6zm24 0-9 12-7 8-10 11q-15 15-7 15c2 0 15-12 23-22l9-11 9-11c6-9 7-9 32 14l11 9c4 4 12 7 12 4 0-2-10-12-20-20L526 4l-4-4h-24zm46-2 7 6q7 6 11 6 4-2-3-10c-5-5-5-5-12-5h-6zm35 4q-13 13-3 11c2 0 18-15 18-17l-4-1c-4 0-5 1-11 7m28 3-10 9c-3 0-23 22-23 23 1 3 3 2 16-10l13-12 1-1c0-4 19-19 21-18q3 5 1 11l-6 8-9 9-30 30-8 9c2 3 6 0 20-14l25-23c8-8 8-8 11-4 3 6 3 8-4 15l-20 22-30 31q1 4 7 0l22-20q18-19 20-18 9 0-9 18l-12 14-11 13c-13 14-16 17-15 19q1 4 7-1l22-24 6-7 10-11q13-18 16-13l25 22q21 20 24 20 7-1-5-12l-25-24-21-19c-7-4-6-12 3-12 3 0 7 3 32 28 15 14 18 16 19 11q1-4-22-24l-19-19-12-11c-2 0-6-5-5-7q4-4 14 5l10 9 22 20q8 8 10 4l2-2c0-2-17-18-29-28l-15-13C628-1 629 0 620 0h-8zm48-4 7 7 7 7 12 11q11 11 9 2c0-4-1-5-11-15L660 4q-4-5-10-4h-5zm23-2q12 14 12 5-1-8-11-9h-5zm41-2q-2 4-10 11-8 10-8 12 1 8 13-6l7-8 6-7 3-4h-5q-5 0-6 2m30-1q1 3 12 13l12 12V16l-8-8c-7-8-8-8-12-8zm-15 11-5 7-17 19q-14 14-10 15l4 1 16-16c0-1 7-10 15-18l6-9q-2-6-9 1m-229 7-7 10-6 8q-27 27-20 29c2 0 16-13 16-15l19-19 2-3q5-10 24 9l20 17q4 4 7 2 0-4-7-10l-29-26c-2-3-10-8-12-8q-2 0-7 6m-344-1q-6 0-6 3c-3 4-13 17-24 28q-13 14-12 16 3 6 23-19l8-10 8-9c6-8 6-8 24 11l16 16q10 10 12 9c5 0 2-4-16-22-23-24-23-24-33-23m587 0q-8 0 11 17l14 13V38l-9-9q-13-14-16-11M31 28A135 135 0 0 0 2 54l-2 6v5l5-5c8-7 10-10 19-16q16-13 17-18 0-5-10 2m343 7-24 26q-8 8-3 9 3 2 9-6l11-14c15-16 20-20 24-17l5 2 9 8 34 32q13 13 15 8 0-4-6-10l-4-4-8-5-21-20-19-17-3-1c-5-4-7-3-19 9m-122 8-22 22q-9 8-3 8c2 1 5-2 21-18l21-21q6-5 1-6-2 0-18 15m30-12c-3 2-2 4 14 17l19 19q18 19 17 9 1-2-20-21l-14-13q-14-15-16-11m222 5v4q2 4-7 14l-4 5-7 8c-20 19-25 25-21 27 2 2 21-16 21-21 0-1 13-12 15-12 1 1 32 26 38 33 13 12 16 14 17 9 0-3-14-17-25-26l-10-8-11-10q-7-5-1-9c2-3 7-2 7 0l2 1 17 15q18 18 19 13 2-5-10-14l-11-10c-19-18-26-23-29-19m231 1-35 37q2 3 6-1l3-5q0-2 2-2l3-1q20-19 26-21 4-1 19 15l10 10V59l-10-11q-18-19-24-11M49 37q-4 2 7 11l33 31q9 11 13 6 2-3-7-10L79 60C54 36 52 35 49 37m106 3-7 9-12 16-19 21-4 5q-1 13 18-12l9-10 6-7 5-6 3-4q4-11 18 4c17 17 32 30 35 30 5 0-1-9-11-17l-28-27q-6-5-13-2M31 47 18 59 8 68c-7 5-8 6-8 11 0 6 1 5 11-4q6-6 7-3L9 82c-9 9-9 9-9 13v5l6-5 14-13 16-13q11-6 8-11-3-3-7-1l-3 2-1 1c-1 2-9 8-11 8q-6 2 8-12t11-14q0-3-10 5m361 6-39 38q-13 15-6 16c2 0 4-2 19-18 23-25 29-29 36-24 5 3 21 17 30 27q16 15 19 14 7-1-1-9l-22-21-14-12q-15-16-22-11m-121 3c-7 2-46 41-46 45q0 8 11-4l21-20c16-17 18-17 32-3 15 14 39 32 43 32 3 0 0-10-4-10l-5-4-11-9-7-6-8-7q-19-17-26-14m-116 9-5 3-19 23-14 18q-5 8-1 8c2 0 10-8 10-10l3-4 8-8c8-11 21-23 25-23q1-1 25 21c21 21 26 24 27 19a58 58 0 0 0-17-17l-16-17c-18-18-19-18-26-13m585 0-5 2c-6 2-7 2-22 18q-15 15-14 16-1 8 14-8c20-19 26-23 31-21 2 0 15 13 24 21q1 2 1-4v-5l-9-8q-18-17-20-11M50 66l4 8 13 11c16 15 29 26 31 26 5 0-6-14-19-26L65 72q-12-10-15-6m439 26q-24 24-25 30l-1 3-1 2q3 5 15-10l13-15c10-11 19-22 19-25q1-7-20 15M281 82c-2 1-1 2 9 12l25 23 9 8q10 8 10 0c0-4-12-14-24-22l-15-12q-12-13-14-9m111 0-7 6-18 16-22 23q-1 4 4 2l25-22c19-19 21-20 26-16l4 3 6 5 28 27c10 11 18 12 13 1-4-8-8-11-21-21l-17-15q-13-14-21-9M38 83l-7 9-17 16-9 8-5 4v12l3-3 6-4 4-5 10-11 12-12q9-9 8-13-2-3-5-1m585 5-11 12-24 26c-5 4-15 16-15 17q0 5 15-11l18-16 18-18c7-8 7-8 28 13l14 12c15 14 19 16 20 12q2-3-6-10l-12-11-14-12-9-10c-3-4-11-10-14-10zm-362 0-31 31c-2 0-6 5-6 7q-1 6 19-14l19-18c9-9 9-14-1-6m-99-1c-4 1-23 21-23 23l-19 21q-10 10-7 14 3 6 20-17c9-11 24-27 28-29s6-1 23 16c21 21 26 24 29 22q5-1-10-15c-42-41-38-37-41-35m574 1-28 30q-10 11-4 12 3 1 14-12c26-28 24-28 42-10l9 9v-12l-7-6-11-8q-6-7-9-6zm-227 2c-1 1 3 7 4 7l7 6c17 16 33 30 37 30q2 0 1-5l-7-8-20-17-16-13-4-1zM48 92c-1 1 2 6 3 6l19 18c23 23 31 28 33 22l-24-24-13-14c-8-8-17-12-18-8m-13 16L5 135q-6 6-5 10l1 4 7-7 12-12c23-20 26-23 26-26q1-5-11 4m247-5v3c0 2 1 2 12 12l31 31q6 7 9 1c0-2-1-4-20-22l-9-9-4-5c-7-9-17-15-19-11m220 3-5 4-13 13-14 14q-8 9-8 16-1 9 13-7l10-12 4-6q3-5 10-10 12-9 9-12zm128 2c0 2 22 25 47 49q13 12 12 3 1-3-26-28l-9-10-7-6q-17-18-17-8m-371 9-31 31q-4 3-4 6-2 10 12-5l16-15q32-25 21-27-2-1-14 10m129-7-5 4-8 7q-6 4-10 11l-12 13q-12 13-4 13 2 0 6-4l7-9c32-35 29-33 44-19l23 20 8 6 7 6q5 4 7-1c0-2-13-16-15-16s-12-9-22-20q-18-17-26-11m351 3c-2 1-12 10-17 17l-12 12q-14 16-4 16l14-15 15-17c8-9 11-9 25 5l9 9v-6q1-4-2-6l-7-6q-12-13-21-9m-576 3-12 12c-39 37-38 36-36 39 1 3 2 2 23-19l24-22c5-2 8 0 19 10l14 13 10 9q4 5 6 5 3-1 2-6c-2-4-19-21-25-25l-5-5-10-10q-6-6-10-1m351 1q-1 2 9 11l13 11q25 24 24 14-1-4-7-9l-16-13q-20-20-23-14m-460 2-11 10-14 13-14 14-13 11q-2 2-2 6l1 5 8-8 37-37c9-9 11-9 21 1l22 19q18 15 12 2l-34-33c-3-3-10-4-13-3m560 9-19 20c-19 19-22 22-22 25q2 6 14-10c3-4 31-32 34-33 3-2 7 1 22 15l41 38q5 1 5-2c0-2-9-12-16-18l-36-34q-10-9-13-10zm-333 1q-1 4 13 13l11 9c5 6 22 23 25 24 6 3 5-4-2-9l-8-7-5-4-2-1q-1-4-11-11l-4-4q-17-18-17-10m221 4-13 14c-3 5-13 15-20 21l-8 9q-1 4 1 6c2 0 13-12 17-17q1-3 3-3l1-1 17-19q5-7 21 9l6 5 5 4 6 5 5 6c6 6 16 14 17 13 4-3-2-13-10-18l-6-4-5-4-9-9-15-12-6-6-4-2zm-121 7-35 36q-2 5 4 3c5-2 43-42 43-44q0-6-12 5m362-3-9 7-8 6c-4 3-24 25-24 27q0 2 5 1l9-8 28-24q5-4 17 9l8 8v-11l-7-6q-14-13-19-9m-477 1c-8 4-39 36-39 39l1 3c1 0 9-6 11-9l24-25q11-10 3-8m133 1 1 3 24 24 10 8 7 6q6 5 8 0 1-2-9-9l-7-7-8-7-11-11q-12-12-15-7m-349 2q-1 5 15 19l19 17 10 8q4 3 9 2 5-5-3-10l-15-11-25-22q-9-8-10-3m118 2q-5 2 15 21l13 13q17 17 17 10 3-5-11-14-7-3-15-13l-14-15q-5-4-5-2m453 3-5 7-6 6c-3 3-26 25-30 31-8 8-5 12 3 3l14-14c10-9 12-11 18-19 7-9 9-9 19 2l10 9 27 25q11 11 15 10 9-2-7-15l-21-18-7-6-20-17q-3 0-4-4t-6 0m-345 5 27 29 24 20q7 6 8 1 1-2-9-10l-30-28q-18-17-20-12m-242 9-14 13-7 7-11 11c-2 2-3 10-1 10l13-13 15-17q15-15 14-17 2-4-9 6m467-2-26 28q-18 18-16 22 3 7 19-13l12-14 6-8q9-13 19-1l30 25 4 4q8 9 12 8 6-2-10-14l-35-32-4-5q-2-10-11 0m-346-1c-5 4-16 15-22 23l-10 9c-7 5-11 14-6 14l3-1c5-3 18-16 26-24 11-12 12-12 23 0l13 12c24 24 30 28 32 25q2-3-5-8l-9-8-14-13c-20-18-23-21-23-26q1-5-2-5-2-2-6 2m237-1c-3 1-45 44-45 46q0 5 14-8l26-25c8-7 10-6 42 24 14 14 16 15 18 14q7 0-10-16l-33-32-2-1c-2-2-8-3-10-2m349 3-2 5q-4 6-30 30-10 11-6 12c2 1 19-11 26-18 17-19 18-20 31-8l9 7v-4c0-9-23-29-28-24m-481 16-14 14-18 18q-6 5-1 6a378 378 0 0 0 41-41l2-4q0-5-10 7m-206-5q-2 2 5 8l18 15c21 21 25 23 28 21 2-2 1-4-14-18-27-27-32-30-37-26m564 10c-40 39-45 44-40 44 1 0 6-4 27-25q19-19 22-18c4 0 12 7 32 27q27 27 28 21 4-3-19-23l-22-21-16-15zm-576-3-26 23-12 10q-5 2-4 7l1 4 27-23 10-8q13-11 10-14-1-2-6 1m243 6 5 7 8 9c8 8 33 27 36 27q8 1-12-17l-26-23-4-3-4-2q-4 0-3 2m220 1-3 4q2 1 0 0l-21 20c-19 20-22 24-19 26 2 0 18-16 35-36q7-10 11-6c4 3 2 6-16 26l-27 29c-7 8-7 8-4 10q2 2 26-25c15-16 18-18 22-11q4 4-8 16l-15 15-16 17q-16 15-8 15c2 0 15-11 23-21l10-11c10-12 11-12 23 0l21 19 10 9q11 10 14 9 6-2-1-9l-6-4-9-8-14-12-13-12q-11-9-8-12c3-7 8-4 37 24q15 16 16 9l1-3-13-14-10-8-18-16-10-9q-4-4-3-7c0-8 7-10 12-4l2 2 4 3q11 11 15 12 3 0 3 3c0 2 7 10 11 12q4 1 4-3c0-2-15-18-21-23l-11-10-20-16q-3-6-6 0m-121 5-18 18q-18 17-17 20c2 2 5 0 19-14 27-26 26-26 39-14l30 28q10 9 10 5c2-3-2-7-28-31-23-22-24-23-35-12m-226-1c-2 1-39 37-39 39q2 3 6-1l12-11c21-20 24-23 24-26q1-3-3-1m583 0c-4 1-29 27-35 35q-6 10-2 9c3 1 5-1 15-11l15-16c11-12 12-12 22-3l10 9 3 2v-4c0-5 0-5-7-11l-12-9q-4-3-9-1m-687 3c-3 2 0 5 13 18l17 14 10 9q11 12 12 6c1-3 0-4-9-13l-20-19q-21-20-23-15m215 7-42 42v3q1 4 21-17c22-23 24-25 26-25s15 10 25 20l14 15 13 11q10 9 11 3 0-2-6-8l-42-39q-12-13-20-5m-230 4-7 6-28 26c-4 4-4 4-4 9l1 4 3-3 25-24 11-9q9-6 7-10t-8 1m128-1 4 7q10 9-4 7h-8l-9 9c-23 22-29 28-29 30q0 7 18-12 18-17 23-20c2-2 6 1 23 18 20 22 27 27 29 25s1-4-13-18q-28-27-21-27 5 1 21 16 17 17 14 5l-6-7-23-23-6-5-7-4q-5-5-6-1m467 1q-3 2 4 8l9 9 12 10 15 14q10 12 13 9c4-1 1-8-5-12l-14-13c-17-16-32-27-34-25m-20 8-14 14q-11 8-22 21-2 3 3 3c3-1 37-36 39-40q4-7-6 2m-223 0-3 4-11 11c-21 20-26 26-26 28q-1 5 11-7l12-10 12-12c10-10 11-10 30 8l12 10 10 9q9 7 9 1a74 74 0 0 0-28-25c-1-3-14-16-17-18q-7-5-11 1m-340 0-1 1c0 3 23 25 35 33l8 8 5 3 2 2q3 2 5 0c0-1-5-8-8-10l-8-7-16-15q-20-20-22-15m689 0-5 4-18 18c-14 15-17 20-16 23 2 3 13-6 19-14l7-7 9-9c8-8 12-7 25 5l8 8v-4c0-6-9-16-17-20l-6-4zm-114 7-1 4c-1 3-13 17-23 26q-27 24-24 25 2 2 10-6l11-9 7-7 8-7 11-10 5-4q6-1 8 2l3 4 28 28q15 15 17 12 6-3-10-19l-8-7-27-26q-12-10-15-6m-589 8-25 22-9 8q-4 1-3 7v5l44-41q3-7-7-1m230 2-7 6-8 9-14 14q-14 12-10 13c3 2 44-38 44-42q-1-3-5 0m123 4q1 3-4 8l-9 9-11 14c-17 18-18 19-14 19q3 0 10-7c16-18 34-34 36-34 4 0 22 17 43 41l5 6 2-3c4-4 2-7-28-37q-20-20-28-20-4-1-2 4m-111-1c0 2 17 19 29 29l22 19q7 5 8 1t-4-8l-8-7-7-6-20-18-8-7-5-4c-1-2-7-1-7 1m462 0-3 4-19 21q-25 24-15 22c2 0 37-34 41-40q4-6 0-8-1-2-4 1m-693 2 6 8 30 28 10 9q12 11 12 7 3-2-7-10l-11-11-10-9-9-8q-21-20-21-14m703 12 9 10 9 8v-4c0-6-10-16-16-16q-3-1-2 2m-710 4-22 21C1 285 0 286 0 289q-1 7 5 1l7-6 8-7 15-13q7-9 16-3l6 5 24 22c18 17 23 21 26 19 2-3 0-6-12-17l-11-11-18-16-10-8-5-7q-3-8-10 0m117-2-9 8-10 9c-10 8-20 20-17 22q1 2 9-7l20-19 14-9 3 3 3 2 9 8 14 13 9 8q13 13 12 5 1-3-7-10l-17-15a63 63 0 0 0-18-16l-5-2q-7-4-10 0m467 1-17 17-11 12c-18 19-20 21-18 23q2 1 12-10a278 278 0 0 1 36-33c2-3 13 3 19 11l6 7 10 9 16 17q8 6 8 0 1-2-9-11l-11-12-5-4-2-2-8-9-9-10q-8-12-17-5m-361 9c-14 11-33 29-33 32q-4 12 20-13l19-17c10-10 5-11-6-2m20 0q1 3 5 6l14 14 25 23q8 6 9 3c1-5-2-7-16-19l-22-19q-17-19-15-8m113 2v3c0 2 14 14 16 14l15 15c13 12 15 14 18 14q8 1-4-12l-17-15c-20-18-25-22-28-19m346 2c-5 4-36 34-39 39q-3 6 2 4l26-26 5-6q9-7 15 0l8 6 7 5 2 2v-11l-8-8c-10-9-11-10-18-5m-242 4-10 11-12 13-12 12q-9 8-4 9c3 0 43-40 44-44q-1-6-6-1m-119 9-13 13-11 12q-12 10-6 10 3-1 17-14 17-16 19-16c3 0 8 7 8 10 0 2-10 12-15 15l-25 23c-8 8-8 14 0 8l22-20c12-11 12-11 22-2l21 19 11 10q19 18 18 9c0-2-10-12-20-21l-7-6-16-16-4-3q-8-5-5-9 4-6 12 1c11 10 13 13 15 13l11 9q13 12 13 5l-5-7-12-11c-8-8-17-14-19-14l-1-1q0-2-2-1l-1-2c1-2-7-8-14-11q-4 0-2-6c0-7-1-7-11 3m-219-4-9 7-9 9c-10 8-26 25-26 28q0 6 12-5 30-31 35-33 2 0 8 5c14 16 38 38 41 38q8 1-14-21l-12-11q-15-18-18-16l-5-2zm111 1-4 3-10 9c-11 8-30 27-30 29l3 1 2-1 1-1 6-6 15-13 12-11q9-8 14 1c4 7 47 45 50 45q6 1-10-15l-35-35c-7-7-9-8-14-6m239 0q-3 1 10 13l16 14 8 8 8 7q6 6 8 5c6-1 5-8-1-10q-5-2-9-7l-11-8-11-12q-14-13-18-10m113 0-18 17-3 3-6 6c-7 6-8 7-14 15l-5 5-1 2q0 5 5 0l4-3 11-10 13-12 11-10q2-4 9-3c3 1 8 6 40 37 12 12 15 14 17 10 1-3-2-6-20-23l-21-20q-15-15-19-15zm-590 7-10 10-16 17C0 314 0 314 0 319q0 6 2 4l1-2 1-1 27-27q10-10 11-6l12 12 7 5 21 15q1 3 14 13c10 8 13 3 4-7l-26-23-8-7-17-12-5-5q-3-6-8-1m709 8q-3 0-16 14c-25 25-28 28-27 30q5 5 21-15c6-6 22-19 26-19q4 0 15 11l5 4v-4q2-4-6-10c-11-11-14-12-18-11m-238 4-45 46q0 5 5 2l19-18c23-24 23-24 31-18l6 4 16 16 19 17q4 4 7 1t-13-16l-24-22c-16-15-16-16-21-12m-245 13-15 17-12 13c-8 8-8 8-6 10q4 1 9-5l27-29q14-16 8-15zm365-2-11 12c-5 3-12 10-15 13l-15 13q-12 10-8 12 3 2 8-3l6-5 12-11q12-12 11-8c0 2-7 10-13 16l-12 13-7 7q-2 4 1 5c2 0 20-16 24-22l9-7 6-5q5-5 17 8 4 2 14 13l23 21q17 16 15 8c0-4-1-5-11-13l-23-22q-28-28-35-27-8 2-2-6c6-9 10-9 20 0l33 32q11 12 13 11 9-1-6-15l-25-25c-22-21-24-22-29-15m-584 1-8 7-25 25c-10 7-10 8-10 12l1 5 23-24q2 0 6-5c11-12 13-12 22-4l29 25 12 12q5 7 9 4 8-3-19-22l-12-12-10-8-12-12q-2-6-6-3m132 0c-1 3 2 6 17 20 19 19 20 19 23 19q4 1 3-3 1-3-15-16l-11-10q-14-13-17-10m-27 13-14 13c-2 0-15 14-15 16q2 4 8-2l19-18c14-14 18-18 18-21q1-5-16 12m134-11c0 2 11 14 20 23l22 20 1 1c0 2 6 6 8 6q4-2-1-8l-18-15-21-20q-11-11-11-7m453 12c-18 17-31 30-31 32a3 3 0 0 0 6 0l17-16 18-17c4 0 7 2 17 11l7 6v-4q1-4-3-7l-8-7q-8-8-11-8zm-230-4-7 6-5 8-13 15q-17 18-17 20 2 4 11-4l9-8 7-9q17-21 23-16l3 1 8 6c14 15 34 33 37 34 9 2 3-10-9-18l-6-4c-6-6-8-7-14-11l-8-8-10-10-6-5zm-331 10q0 3 8 10l17 16c13 12 15 14 17 13 4-2-1-8-25-29-13-13-15-14-17-10m82 17c-29 28-29 29-23 29 4 0 43-41 43-46 0-3-3-1-20 17m138-17-10 8-14 14q-23 21-15 23l13-12q15-15 23-20c7-5 9-16 3-13m346 6-7 7-9 10-8 9q-10 11-11 15 1 4 7-2l24-26c5-6 12-4 12 4 0 4-16 19-19 18l-2 1-3 2q-2 1-2 5 1 7-8 14c-6 4-7 10-2 9q3 0 11-11 13-13 15-13 3 0 4-3 4-5 8-2l10 8c10 8 10 7 10-1q0-5-1-2 0 4-5-2l-8-7q-6-3-4-10 2-5 9 2l6 3 1 1q1 1 1-4l-1-5-6-5-9-8a9 9 0 0 1-4-11q-3-3-9 4m-583 1-11 10-10 10-17 17c-4 7 2 7 8 0l18-19q23-23 12-18m129 2q-1 4 6 9l12 11c28 28 35 33 35 26l-46-46q-6-4-7 0m-254 8-19 19C1 369 1 369 1 373v5l9-9c30-31 31-32 39-25l7 6 15 13 17 16q14 12 15 8 4-5-9-15l-25-23c-21-20-26-22-37-11m366-4q-3 0-2 4 2 6-20 23c-14 11-24 22-22 24q2 3 9-4l11-10 22-21q8-7 15 1l10 8 10 8c1 3 15 13 17 13q8 0 0-7l-9-9-15-13-8-6-7-6c-2-3-9-6-11-5m110 5-19 18-19 19c-7 4-9 13-4 13 3 0 15-12 25-23q13-16 19-19c4-2 7 0 24 17l9 8 8 7q13 14 17 9c1-2-9-14-11-14q-2 0-6-5l-12-11-10-9q-14-14-21-10m109 13-13 13c-22 21-25 24-21 25 3 1 6 0 16-11 28-27 32-32 29-35-2-2-2-2-11 8m-445-7q-3 4 31 35 15 14 15 6c0-2-2-5-16-19-21-21-26-25-30-22m80 27c-21 21-25 26-20 26 2 0 22-19 33-32 10-11 15-11 27 0l7 6 20 20c14 13 16 15 19 15q8 0-3-10l-7-6-18-17-5-4-2-2q0-3-8-8l-10-7c-7-6-8-5-33 19M45 353l-8 8-12 12-16 14-9 9v5l1 5 23-23 24-23 4-8q-2-2-7 1m589 3 3 4 15 14 23 20q19 20 18 9c0-3-1-3-21-21l-15-13q-22-21-23-13m-478 1-15 14c-10 7-25 23-25 24 2 4 15-4 18-9l5-6 8-8 8-5q8-6 8-10-1-3-7 0m242 4-3 5-12 13c-16 15-29 29-29 31 0 5 3 3 20-14l23-22c6-5 6-5 16 3l32 26c3 3 8 2 7-2l-27-24-9-8q-14-14-18-8m112 0c-2 1-38 36-45 45l-3 5c2 4 5 2 24-16 30-31 29-30 46-12q29 30 34 28 3-3-5-10l-8-8-23-23-11-8c-6-2-6-2-9-1m-456 5q-4 2 4 10l14 14 25 26q6 4 7-2c0-4 0-5-13-17l-35-32zm118 2q-4 1 6 9l20 19q19 19 19 15 4-3-11-15l-9-9-16-18c-2-1-8-2-9-1m455 1-4 1q-3 0-7 4l-5 5-13 15-9 10q-10 11-8 13 1 5 13-8c32-34 36-38 39-31l15 16 10 8 10 9 14 13q13 13 16 8 0-4-5-8l-38-34-7-6-10-7q-5-2-5-6-3-5-6-2m-357 9c-10 7-41 38-41 41q2 4 9-2c11-13 35-36 38-36q3 0 15 12l17 17 13 12q20 17 21 11c0-2-14-17-26-27l-19-18q-11-9-18-12c-4-1-4-1-9 2m465 6-7 8-8 10q-13 11-7 13 4 1 16-15c13-15 16-15 29-2 10 10 11 11 11 5q-1-8-14-17-3-2-4-6-4-11-16 4m-588 5-18 18c-9 7-10 8-10 11-1 7 4 3 29-21q18-18 13-19c-2-1-4 1-14 11m-104-4-6 5-6 6-15 15-14 12q-2 1-2 6l1 5 14-14 18-17q17-15 17-18 0-6-7 0m457 6-19 20c-20 21-22 23-16 24 2 0 4-2 26-23l19-18q3-3 17 10l4 3 15 14c12 12 14 14 17 14 6 0 3-8-6-14l-7-6q-34-31-42-31-3 1-8 7m-103 7c-23 21-42 41-42 44q1 4 11-5c11-11 24-22 26-22q5 0-3 8l-6 7-11 12-14 15q-7 7-2 7c3 0 33-29 40-38l6-5c3 0 12 7 18 14l7 6 9 9q16 14 16 5-1-6-5-7l-1-1-9-7-16-16-14-12q-7-6-1-10 4-3 28 19c10 10 12 11 14 11q8-3-10-17l-8-7a79 79 0 0 0-23-17q-3 0-10 7m-343-4c-4 3 3 13 13 20l9 6c9 11 23 23 26 23q4-1 0-9c-4-5-35-35-41-39q-5-3-7-1m119 4c-3 2 2 10 7 13l7 5 16 16 5 3q6 7 8 2l-10-12c-26-26-31-30-33-27m446 5c-11 10-37 36-37 38q-2 9 10-4l28-30c7-7 10-5 42 28l8 6 12 11q17 17 15 6c0-3-4-7-22-23l-16-15c-29-26-29-26-40-17m-343 1-4 4-7 6c-10 8-35 32-35 34q1 2 5 1c3-2 45-42 45-44q0-3-4-1m-122 5-9 11-7 7c-9 7-19 18-19 20q-1 6 12-7l13-12 17-19c5-7-1-7-7 0m596-1-11 10-12 11-17 19q0 7 14-8 17-17 24-21 6-2 19 11 2 4 2-2 1-4-6-10l-5-8q-1-5-3-5zm-462 3q0 2 8 9l8 8 5 2 15 14 3 3 6 4q7 6 8 2l-1-2-8-7-24-21-19-14zm214 5-19 20c-17 18-18 19-18 21q1 4 7-1l4-4 35-37 1-3q0-8-10 4M26 433 3 454c-3 3-5 10-2 10l22-20 22-22c5-3 9 0 20 12l14 13 14 13q8 10 11 6 7-1-10-15l-20-19c-26-25-22-25-48 1m493-13q-1 2 6 8l13 13 4 3 14 15q9 7 10 2c0-2-21-24-33-34l-10-9q-3-3-4 2m-237 1-3 2-7 7c-10 7-42 39-42 41q0 3 4 2l20-18c22-22 26-26 30-26 2 0 10 5 13 8l3 2 26 24q12 12 14 9 4 0-10-12l-28-26a50 50 0 0 0-18-14zm345 1c-4 1-27 22-38 35-8 9-9 10-7 11q1 2 17-12 26-27 29-26 5 1 21 15l16 16 16 15q11 12 14 8v-3a568 568 0 0 0-56-54q-9-8-12-5m-453 2q-1 5 4 9 4 2 19 17c17 16 19 18 20 14 1-2-2-7-24-28q-17-16-19-12m-23 18-21 21q-13 12-12 14c0 6 0 6 22-15 19-19 22-21 25-17l2 3 2 2c3 3 0 6-26 31q-29 26-26 28c1 3 3 2 27-22l29-27q5-3 12 5l8 7 13 12q11 11 13 7 2-6-12-16l-11-10q-18-20-24-23-6-2-6-6 0-8-15 6m251-8c-2 1 0 7 3 7l11 11c4 6 5 7 12 12l10 9c12 10 13 11 15 9q3-3-1-7l-24-21-14-13c-8-8-9-8-12-7m-357 5-17 15c-13 14-26 26-27 26l-1 5 1 4 5-5 11-11 30-28c4-4 8-2 21 10 22 22 30 28 33 27q6-2-6-12l-19-19a54 54 0 0 0-24-17zm455 10-15 14-5 5-6 6-3 4-3 4q-5 6-1 8 2 2 10-7c14-16 35-36 37-36q3-1 25 19c21 19 27 23 27 17q1-2-18-18l-18-18c-15-15-14-15-30 2m244-11-2 2c0 2-9 12-15 19-16 17-17 18-16 20 1 3 1 3 8-5 29-30 31-31 43-21l7 5v-4q1-5-5-9-14-14-20-7m-122 6-6 7-14 14c-19 20-22 24-20 26s49-46 49-50q-1-3-9 3m-344 3-8 9c-5 6-26 28-35 35q-5 5-3 6c3 2 4 1 27-22 25-25 24-24 37-12l28 24 9 7q8 7 8 3l-12-12-13-12-27-24q-6-6-11-2m112 5-22 21q-12 10-13 14 1 7 24-15c14-13 15-13 26-3l10 9 27 24q11 12 12 4c0-3-2-5-18-19l-20-20c-16-15-22-19-26-15m250 5a19 19 0 0 0 11 16l5 4 9 8 6 5 17 15q4 3 7 0 1-2-11-12l-9-8-18-16q-15-17-17-12m-595 4-14 13-21 21c-10 8-10 9-10 13q-1 5 3 4 3 1 8-6l37-37q3-4 15 7l11 9 10 9q15 15 17 11c3-2 2-3-10-15l-26-23-5-4-3-2c-1-3-8-3-12 0m703 4 7 8 8 7q7 6 6 0 1-3-5-9c-8-7-16-10-16-6m-233 0-8 6-8 7-5 5-18 19q-8 8-6 9c2 2 1 3 23-20 23-22 22-22 35-11l21 20c4 5 13 12 14 12 6-1 3-4-18-25-23-23-25-24-30-22m110 7-30 31q-12 10-4 9 5 1 7-3l7-7 4-6c0-1 20-20 22-20l18 16 16 14c6 6 7 6 12 6h6l-3-3-7-7-13-11-10-9-8-5q-9-5-9-8l-3-2zm-343-3q-1 4 4 7l18 16c19 20 19 20 27 20h6l-4-4-9-9-15-12q-22-23-27-18m458 6-12 15-16 18q-2 3 1 4l20-19c8-10 10-10 29 7l7 6v-3c0-3-1-4-11-14q-12-11-11-13-1-6-7-1m-354 8c-30 27-32 29-27 29q2 1 12-8c21-21 27-27 27-29q2-4-12 8m-222 1-9 10-10 10-7 8h4q3 2 9-7c17-17 18-19 22-19l5 1 5 4 13 12c9 9 9 9 14 9h5l-4-4-9-8-14-14c-13-12-14-12-24-2m105 3-18 16-9 9h5q5 1 8-4l5-4 3-3 10-11q12-11 4-11zm-215-2-5 3q-3 1-18 17l-6 7h5q8 0 20-17c6-7 7-7 21 6 11 11 12 11 16 11q6 0 4-2l-16-14-9-8q-7-9-12-3m573 3-2 2-10 11-11 11h4c6 0 25-20 22-24zm-121 4-11 12-8 8h4c4 0 4-1 11-8q10-12 13-8l3 2 7 7 7 7h11l-9-8-10-9c-1-2-11-7-13-7zm-113 4-12 12-3 4h3q3 0 7-4l4-4 5-3c5-5 8-3 20 8q3 4 9 3h6l-3-3-21-17-5-1q-4-1-10 5m-114 0 1 5q3 2-2 7l-4 4h5l7-1h4l8 1h6l-3-3-7-8q-13-14-15-5m356 4q-3 2 3 8c4 4 5 4 11 4h6l-4-4q-13-12-16-8m105 5q-11 9 3 7 11 0 8-1l-2-4q-2-10-9-2m-683-1q-2 2-1 3 1 6 8 5h6l-5-5q-6-5-8-3m119 1q0 7 8 7 9 1-2-6-6-5-6-1m222 2q0 5 8 5h4l-5-4q-7-5-7-1"
        mask="url(#16282281824-posters-1720553930422-horizontal-mask)" itemprop="bold" fill-opacity="0.90"
        fill-rule="evenodd" stroke="none" fill="url(#16282281824-posters-1720553930422-vertical-bold)"></path>
    </pattern>
    <rect id="16282281824-posters-1720553930422-pattern-render" fill="url(#16282281824-posters-1720553930422-pattern)"
      width="100%" height="100%"></rect>
  </defs>
  <radialGradient id="lightbar" cx="50%" cy="200%" fy="0" r="201%">
    <stop offset="0%" style="stop-color: rgb(255, 255, 255); stop-opacity: 0.1;"></stop>
    <stop offset="10%" style="stop-color: rgb(0, 0, 0); stop-opacity: 0.1;"></stop>
    <stop offset="30%" style="stop-color: rgb(0, 0, 0); stop-opacity: 0.3;"></stop>
    <stop offset="90%" style="stop-color: rgb(0, 0, 0); stop-opacity: 0.55;"></stop>
    <stop offset="100%" style="stop-color: rgb(0, 0, 0); stop-opacity: 0.6;"></stop>
  </radialGradient>
  <g class="radial">
    <radialGradient id="16282281824-posters-1720553930422-radial" gradientUnits="userSpaceOnUse">
      <stop itemprop="radial" stop-color="#858480" offset="0%"></stop>
      <stop itemprop="radial" stop-color="#9b9a97" offset="15%"></stop>
      <stop itemprop="radial" stop-color="#9e9c9a" offset="30%"></stop>
      <stop itemprop="radial" stop-color="#969592" offset="45%"></stop>
      <stop itemprop="radial" stop-color="#a09f9c" offset="60%"></stop>
      <stop itemprop="radial" stop-color="#8f8d8a" offset="75%"></stop>
      <stop itemprop="radial" stop-color="#878682" offset="90%"></stop>
    </radialGradient>
    <radialGradient id="16282281824-posters-1720553930422-radial-background" gradientUnits="userSpaceOnUse">
      <stop stop-color="#d3d0c5" offset="0%"></stop>
      <stop stop-color="#d3cec5" offset="15%"></stop>
      <stop stop-color="#d3cfc5" offset="30%"></stop>
      <stop stop-color="#d3cec5" offset="45%"></stop>
      <stop stop-color="#d3cfc5" offset="60%"></stop>
      <stop stop-color="#d3cec5" offset="75%"></stop>
      <stop stop-color="#d3d0c5" offset="90%"></stop>
    </radialGradient>
    <radialGradient id="16282281824-posters-1720553930422-radial-light" gradientUnits="userSpaceOnUse">
      <stop stop-color="#9b9a97" offset="0%"></stop>
      <stop stop-color="#9b9a97" offset="15%"></stop>
      <stop stop-color="#9b9a97" offset="30%"></stop>
      <stop stop-color="#9b9a97" offset="45%"></stop>
      <stop stop-color="#9b9a97" offset="60%"></stop>
      <stop stop-color="#9b9a97" offset="75%"></stop>
      <stop stop-color="#9b9a97" offset="90%"></stop>
    </radialGradient>
    <radialGradient id="16282281824-posters-1720553930422-radial-regular" gradientUnits="userSpaceOnUse">
      <stop stop-color="#82817d" offset="0%"></stop>
      <stop stop-color="#82807d" offset="15%"></stop>
      <stop stop-color="#82817d" offset="30%"></stop>
      <stop stop-color="#82807d" offset="45%"></stop>
      <stop stop-color="#82817d" offset="60%"></stop>
      <stop stop-color="#82807d" offset="75%"></stop>
      <stop stop-color="#82817d" offset="90%"></stop>
    </radialGradient>
    <radialGradient id="16282281824-posters-1720553930422-radial-medium" gradientUnits="userSpaceOnUse">
      <stop stop-color="#51504d" offset="0%"></stop>
      <stop stop-color="#51504d" offset="15%"></stop>
      <stop stop-color="#51504d" offset="30%"></stop>
      <stop stop-color="#51504d" offset="45%"></stop>
      <stop stop-color="#51504d" offset="60%"></stop>
      <stop stop-color="#51504d" offset="75%"></stop>
      <stop stop-color="#51504d" offset="90%"></stop>
    </radialGradient>
    <radialGradient id="16282281824-posters-1720553930422-radial-bold" gradientUnits="userSpaceOnUse">
      <stop stop-color="#2f2e2d" offset="0%"></stop>
      <stop stop-color="#2f2e2d" offset="15%"></stop>
      <stop stop-color="#2f2e2d" offset="30%"></stop>
      <stop stop-color="#2f2e2d" offset="45%"></stop>
      <stop stop-color="#2f2e2d" offset="60%"></stop>
      <stop stop-color="#2f2e2d" offset="75%"></stop>
      <stop stop-color="#2f2e2d" offset="90%"></stop>
    </radialGradient>
  </g>
  <g class="vertical">
    <linearGradient id="16282281824-posters-1720553930422-vertical" gradientUnits="userSpaceOnUse" x1="0" x2="0" y1="0"
      y2="100%">
      <stop itemprop="vertical" stop-color="#858480" offset="0%"></stop>
      <stop itemprop="vertical" stop-color="#9b9a97" offset="15%"></stop>
      <stop itemprop="vertical" stop-color="#9e9c9a" offset="30%"></stop>
      <stop itemprop="vertical" stop-color="#969592" offset="45%"></stop>
      <stop itemprop="vertical" stop-color="#a09f9c" offset="60%"></stop>
      <stop itemprop="vertical" stop-color="#8f8d8a" offset="75%"></stop>
      <stop itemprop="vertical" stop-color="#878682" offset="90%"></stop>
    </linearGradient>
    <linearGradient id="16282281824-posters-1720553930422-vertical-background" gradientUnits="userSpaceOnUse" x1="0"
      x2="0" y1="0" y2="100%">
      <stop stop-color="#cdcdcb" offset="0%"></stop>
      <stop stop-color="#cdcccb" offset="15%"></stop>
      <stop stop-color="#cdcccb" offset="30%"></stop>
      <stop stop-color="#cdcccb" offset="45%"></stop>
      <stop stop-color="#cdcccb" offset="60%"></stop>
      <stop stop-color="#cdcccb" offset="75%"></stop>
      <stop stop-color="#cdcdcb" offset="90%"></stop>
    </linearGradient>
    <linearGradient id="16282281824-posters-1720553930422-vertical-light" gradientUnits="userSpaceOnUse" x1="0" x2="0"
      y1="0" y2="100%">
      <stop stop-color="#aea684" offset="0%"></stop>
      <stop stop-color="#aea084" offset="15%"></stop>
      <stop stop-color="#aea284" offset="30%"></stop>
      <stop stop-color="#aea084" offset="45%"></stop>
      <stop stop-color="#aea284" offset="60%"></stop>
      <stop stop-color="#aea084" offset="75%"></stop>
      <stop stop-color="#aea684" offset="90%"></stop>
    </linearGradient>
    <linearGradient id="16282281824-posters-1720553930422-vertical-regular" gradientUnits="userSpaceOnUse" x1="0" x2="0"
      y1="0" y2="100%">
      <stop stop-color="#82817d" offset="0%"></stop>
      <stop stop-color="#82807d" offset="15%"></stop>
      <stop stop-color="#82817d" offset="30%"></stop>
      <stop stop-color="#82807d" offset="45%"></stop>
      <stop stop-color="#82817d" offset="60%"></stop>
      <stop stop-color="#82807d" offset="75%"></stop>
      <stop stop-color="#82817d" offset="90%"></stop>
    </linearGradient>
    <linearGradient id="16282281824-posters-1720553930422-vertical-medium" gradientUnits="userSpaceOnUse" x1="0" x2="0"
      y1="0" y2="100%">
      <stop stop-color="#51504d" offset="0%"></stop>
      <stop stop-color="#51504d" offset="15%"></stop>
      <stop stop-color="#51504d" offset="30%"></stop>
      <stop stop-color="#51504d" offset="45%"></stop>
      <stop stop-color="#51504d" offset="60%"></stop>
      <stop stop-color="#51504d" offset="75%"></stop>
      <stop stop-color="#51504d" offset="90%"></stop>
    </linearGradient>
    <linearGradient id="16282281824-posters-1720553930422-vertical-bold" x1="0" x2="0" y1="0" y2="100%">
      <stop stop-color="#2f2e2d" offset="0%"></stop>
      <stop stop-color="#2f2e2d" offset="15%"></stop>
      <stop stop-color="#2f2e2d" offset="30%"></stop>
      <stop stop-color="#2f2e2d" offset="45%"></stop>
      <stop stop-color="#2f2e2d" offset="60%"></stop>
      <stop stop-color="#2f2e2d" offset="75%"></stop>
      <stop stop-color="#2f2e2d" offset="90%"></stop>
    </linearGradient>
  </g>
  <g class="horizontal">
    <linearGradient id="16282281824-posters-1720553930422-horizontal" x1="0" x2="100%" y1="0" y2="0"
      gradientUnits="userSpaceOnUse">
      <stop itemprop="horizontal" stop-color="#8c8a87" offset="0%"></stop>
      <stop itemprop="horizontal" stop-color="#9b9a97" offset="15%"></stop>
      <stop itemprop="horizontal" stop-color="#999794" offset="30%"></stop>
      <stop itemprop="horizontal" stop-color="#94928f" offset="45%"></stop>
      <stop itemprop="horizontal" stop-color="#91908d" offset="60%"></stop>
      <stop itemprop="horizontal" stop-color="#8a8885" offset="75%"></stop>
      <stop itemprop="horizontal" stop-color="#8f8d8a" offset="90%"></stop>
    </linearGradient>
    <linearGradient id="16282281824-posters-1720553930422-horizontal-background" gradientUnits="userSpaceOnUse" x1="0"
      x2="100%" y1="0" y2="0">
      <stop stop-color="#cdcccb" offset="0%"></stop>
      <stop stop-color="#cdcccb" offset="15%"></stop>
      <stop stop-color="#cdcccb" offset="30%"></stop>
      <stop stop-color="#cdcccb" offset="45%"></stop>
      <stop stop-color="#cdcccb" offset="60%"></stop>
      <stop stop-color="#cdcccb" offset="75%"></stop>
      <stop stop-color="#cdcccb" offset="90%"></stop>
    </linearGradient>
    <linearGradient id="16282281824-posters-1720553930422-horizontal-light" gradientUnits="userSpaceOnUse" x1="0"
      x2="100%" y1="0" y2="0">
      <stop stop-color="#9b9a97" offset="0%"></stop>
      <stop stop-color="#9b9a97" offset="15%"></stop>
      <stop stop-color="#9b9a97" offset="30%"></stop>
      <stop stop-color="#9b9a97" offset="45%"></stop>
      <stop stop-color="#9b9a97" offset="60%"></stop>
      <stop stop-color="#9b9a97" offset="75%"></stop>
      <stop stop-color="#9b9a97" offset="90%"></stop>
    </linearGradient>
    <linearGradient id="16282281824-posters-1720553930422-horizontal-regular" gradientUnits="userSpaceOnUse" x1="0"
      x2="100%" y1="0" y2="0">
      <stop stop-color="#968769" offset="0%"></stop>
      <stop stop-color="#968969" offset="15%"></stop>
      <stop stop-color="#968969" offset="30%"></stop>
      <stop stop-color="#968769" offset="45%"></stop>
      <stop stop-color="#968769" offset="60%"></stop>
      <stop stop-color="#968769" offset="75%"></stop>
      <stop stop-color="#968769" offset="90%"></stop>
    </linearGradient>
    <linearGradient id="16282281824-posters-1720553930422-horizontal-medium" gradientUnits="userSpaceOnUse" x1="0"
      x2="100%" y1="0" y2="0">
      <stop stop-color="#5d5441" offset="0%"></stop>
      <stop stop-color="#5d5541" offset="15%"></stop>
      <stop stop-color="#5d5541" offset="30%"></stop>
      <stop stop-color="#5d5441" offset="45%"></stop>
      <stop stop-color="#5d5441" offset="60%"></stop>
      <stop stop-color="#5d5441" offset="75%"></stop>
      <stop stop-color="#5d5441" offset="90%"></stop>
    </linearGradient>
    <linearGradient id="16282281824-posters-1720553930422-horizontal-bold" gradientUnits="userSpaceOnUse" x1="0"
      x2="100%" y1="0" y2="0">
      <stop stop-color="#2f2e2d" offset="0%"></stop>
      <stop stop-color="#2f2e2d" offset="15%"></stop>
      <stop stop-color="#2f2e2d" offset="30%"></stop>
      <stop stop-color="#2f2e2d" offset="45%"></stop>
      <stop stop-color="#2f2e2d" offset="60%"></stop>
      <stop stop-color="#2f2e2d" offset="75%"></stop>
      <stop stop-color="#2f2e2d" offset="90%"></stop>
    </linearGradient>
  </g>
  <g class="masks">
    <mask id="16282281824-posters-1720553930422-pattern-mask" maskUnits="userSpaceOnUse"
      maskContentUnits="userSpaceOnUse">
      <pattern id="pattern" x="0" y="0" width=".0133" height=".0144" viewBox="0 0 23.07 40">
        <path
          d="M17.62 0l-6.07 10.5m2.74 4.76L8.22 4.75m-5.48 0h12.13M.01 0h23.07M6.07 20L0 9.5m2.74-4.75l-6.07 10.5m-5.48 0H3.33m8.2 4.75L0 .02-11.54 20m40.68 0L23.07 9.5m2.74-4.75l-6.06 10.5m-5.49 0H26.4M34.6 20L23.08.02 11.53 20m-5.46 0L0 30.51m2.74 4.75l-6.07-10.5m-5.48 0H3.33m8.2-4.75L0 40l-11.54-19.98zM17.6 40l-6.06-10.5m2.74-4.76L8.2 35.25m-5.48 0h12.13M0 40h23.07L11.54 20.01m17.6 0l-6.07 10.5m2.74 4.75l-6.06-10.5m-5.49 0H26.4M11.53 20h23.08L23.07 40"
          stroke-linecap="round" stroke-width="3.5" stroke="white"
          fill="url(#16282281824-posters-1720553930422-horizontal-background)"></path>
      </pattern>
      <rect width="100%" height="100%" fill="url(#pattern)"></rect>
    </mask>
    <mask id="16282281824-posters-1720553930422-horizontal-mask" maskUnits="userSpaceOnUse"
      maskContentUnits="userSpaceOnUse">
      <rect width="100%" height="100%" fill="url(#16282281824-posters-1720553930422-horizontal-background)"></rect>
    </mask>
    <mask id="16282281824-posters-1720553930422-radial-mask" maskUnits="userSpaceOnUse"
      maskContentUnits="userSpaceOnUse">
      <rect width="100%" height="100%" fill="url(#16282281824-posters-1720553930422-radial-background)"></rect>
    </mask>
    <mask id="16282281824-posters-1720553930422-vertical-mask" maskUnits="userSpaceOnUse"
      maskContentUnits="userSpaceOnUse">
      <rect width="100%" height="100%" fill="url(#16282281824-posters-1720553930422-vertical-background)"></rect>
    </mask>
  </g>
  <use href="#16282281824-posters-1720553930422-pattern-render"></use>
  <g>
    <use href="#16282281824-posters-1720553930422-background"></use>
    <use href="#16282281824-posters-1720553930422-light"></use>
    <use href="#16282281824-posters-1720553930422-regular"></use>
    <use href="#16282281824-posters-1720553930422-medium"></use>
    <use href="#16282281824-posters-1720553930422-bold"></use>
  </g>
  <g itemprop="animation">
    <animate href="#16282281824-posters-1720553930422-light" attributeName="stroke-opacity" repeatCount="indefinite"
      dur="5s" values="0.9;0.0;0.9"></animate>
    <animate href="#16282281824-posters-1720553930422-regular" attributeName="stroke-opacity" repeatCount="indefinite"
      dur="4s" values="0.9;0;0.9"></animate>
    <animate href="#16282281824-posters-1720553930422-medium" attributeName="stroke-opacity" repeatCount="indefinite"
      dur="5s" values="0.9;0;0.9"></animate>
    <animate href="#16282281824-posters-1720553930422-bold" attributeName="stroke-opacity" repeatCount="indefinite"
      dur="3s" values="0.9;0;0.9"></animate>
    <animate href="#16282281824-posters-1720553930422-regular" attributeName="fill-opacity" repeatCount="indefinite"
      dur="8s" values="0.9;0.75;0.95;0.8;0.9;"></animate>
    <animate href="#16282281824-posters-1720553930422-radial-background" attributeName="cx" repeatCount="indefinite"
      dur="34s" values="0%;33%;100%;0%;100%;0%;"></animate>
    <animate href="#16282281824-posters-1720553930422-radial-background" attributeName="cy" repeatCount="indefinite"
      dur="55s" values="0%;100%;33%;100%;66%;0%"></animate>
    <animate href="#16282281824-posters-1720553930422-vertical-light" attributeName="x1" repeatCount="indefinite"
      dur="55s" values="0%;33%;100%;0%;133%;0%;"></animate>
    <animate href="#16282281824-posters-1720553930422-vertical-light" attributeName="y1" repeatCount="indefinite"
      dur="86s" values="0%;100%;33%;100%;66%;0%"></animate>
    <animate href="#16282281824-posters-1720553930422-horizontal-regular" attributeName="x1" repeatCount="indefinite"
      dur="34s" values="0%;100%;66%;0%;33%;133%;0%"></animate>
    <animate href="#16282281824-posters-1720553930422-horizontal-regular" attributeName="y1" repeatCount="indefinite"
      dur="55s" values="0%;66%;100%;33%;100%;66%;0%"></animate>
    <animate href="#16282281824-posters-1720553930422-vertical-medium" attributeName="x1" repeatCount="indefinite"
      dur="34s" values="0%;100%;66%;0%;33%;133%;0%"></animate>
    <animate href="#16282281824-posters-1720553930422-vertical-medium" attributeName="y1" repeatCount="indefinite"
      dur="55s" values="0%;66%;100%;33%;100%;66%;0%"></animate>
    <animate href="#16282281824-posters-1720553930422-vertical-bold" attributeName="x1" repeatCount="indefinite"
      dur="34s" values="0%;100%;66%;0%;33%;133%;0%"></animate>
    <animate href="#16282281824-posters-1720553930422-vertical-bold" attributeName="y1" repeatCount="indefinite"
      dur="55s" values="0%;66%;100%;33%;100%;66%;0%"></animate>
  </g>
</svg>
