<svg id="16282281824-posters-1720559948599" itemscope="" itemtype="/posters"
  itemid="/+16282281824/posters/1720559948599" viewBox="0 0 769 512" preserveAspectRatio="xMidYMid meet" tabindex="0"
  class="animate landscape" xmlns="http://www.w3.org/2000/svg">
  <!---->
  <defs class="graphic">
    <pattern id="16282281824-posters-1720559948599-pattern" width="769" height="512" viewBox="0 0 769 512"
      patternUnits="userSpaceOnUse" preserveAspectRatio="xMidYMid meet">
      <rect itemprop="background" width="769" height="512" tabindex="-1"
        id="16282281824-posters-1720559948599-background" fill-opacity="1"
        fill="url(#16282281824-posters-1720559948599-radial-background)"></rect>
      <!---->
      <path id="16282281824-posters-1720559948599-light"
        d="M0 4v3h5q6 0 8-3 7-5-5-4H0zm31-2a9 9 0 0 0-3 16q7 6 15 0c9-9-1-21-12-16m32 0c-14 7-6 25 8 19 10-3 9-15 0-19-5-2-5-2-8 0m24-1c0 4 11 6 16 2q6-3-7-3zm87 0c2 6 12 7 18 3q9-4-8-4zm36 0c-10 4-9 18 0 20q13 2 14-11c0-7-8-12-14-9m54 0a12 12 0 0 0 22 0l-11-1zm72 0c-5 0-12 6-12 10 0 10 12 15 20 7 7-7 2-18-8-17m18 0 4 4q9 6 15 0 9-6-8-5zm93 1q3 7 10 8c5 0 12-5 12-10h-12c-11 0-11 0-10 2m88 1c3 11 20 13 23 3 1-7 2-6-11-6h-13zm90-2c0 12 15 16 21 6q7-8-9-7zm90 1c0 6 9 12 14 11q6-4 8-9V0h-11c-11 0-11 0-11 2M149 2q-9 8-4 17a11 11 0 1 0 4-17m92 1c-11 5-8 19 4 19 10 0 15-9 10-16q-3-3-10-4-2-1-4 1M117 6c-4 3-4 10-1 13 5 5 14 4 18-1 6-10-8-20-17-12m184-1a9 9 0 0 0 2 17q13 2 13-9c0-8-8-12-15-8m88 0q-10 5-2 16a11 11 0 1 0 2-16m31 0c-10 6-4 21 7 20q8-1 10-6c4-9-8-18-17-14m59 3c-4 5-2 14 5 17 5 3 12-1 13-8 2-9-11-15-18-9m184-1c-12 1-11 20 1 20 13 0 18-14 7-20zm90 0a11 11 0 1 0 8 20 11 11 0 0 0-8-20M513 8c-4 1-9 7-9 9 0 10 14 15 21 8 7-9-2-20-12-17m90 0a9 9 0 0 0-5 16c6 8 18 4 20-6 0-7-8-13-15-10m88 0c-5 3-7 11-2 16 3 3 13 5 13 2l1-1c3 0 5-7 4-10-1-6-10-10-16-7m-121 3q-10 8 0 17c11 7 23-6 14-15q-7-6-14-2M89 15c-5 2-8 10-4 14 6 8 17 7 21-2 3-8-8-16-17-12M0 25q-1 16 8 10c12-5 10-20-3-20H0zm179-8c-11 7-4 23 8 19 9-3 11-12 4-18q-5-5-12-1m276-1-1 1c-2 0-8 7-8 9q-1 13 11 13c8 0 14-8 9-15-4-7-11-12-11-8m-190 5q-4 6 0 12c10 10 26-2 18-12-4-4-14-4-18 0m95-2c-8 4-6 17 4 19 4 2 11-3 13-7 3-9-8-16-17-12m181 3c-10 5-6 19 5 19q9-1 11-10c0-8-9-13-16-9m91 0c-11 6-7 21 5 20q12-2 11-13c0-6-11-10-16-7m90 0c-12 5-9 20 4 20a9 9 0 0 0 5-18q-5-4-9-2m-494 7q-14 8-8 18c3 6 14 7 19 1a10 10 0 0 0 0-13q-2-8-11-6M45 32q-8 9 1 16c7 6 19-3 18-12-1-7-14-10-19-4m90-1q-7 3-6 9c0 10 12 15 20 7 8-9-2-21-14-16m271 2q-6 4-6 9c0 13 18 17 23 4q3-7-4-11c-8-3-9-4-13-2m-94 4c-7 6-1 16 9 16q8 0 10-8c1-9-12-15-19-8m187 0c-11 3-8 19 3 19 9 0 14-9 9-15q-3-5-8-5zm89 0c-10 4-9 15 2 20q7 3 12-5c5-9-5-19-14-15m89 0q-11 5-6 15 9 10 20 1c6-9-4-20-14-16m89 1c-6 2-8 12-3 17q7 7 7-2l-1-11q1-6-3-4M72 47q-6 7 1 15a11 11 0 1 0-1-15m32-1-4 4-1 2c-2 0-1 7 2 10 4 4 14 4 18-1 7-9-4-21-15-15m58-1q-5 3-5 9c0 12 20 14 23 2 1-9-8-15-18-11m33 1-6 4c-7 10 10 21 18 12 8-7-2-21-12-16M14 47a9 9 0 0 0 5 18q9 0 12-7c3-8-8-16-17-11m239 0c-9 6-5 18 7 18q5 1 8-3c9-9-4-22-15-15m34 0-5 1-3 4c-7 11 9 21 18 11q9-9-4-16zm60 1c-10 4-7 18 3 20q7 0 12-8c4-8-7-17-15-12m29 0c-5 2-7 9-5 13 4 8 13 9 19 3 9-9-2-23-14-16m64-1c-10 2-14 11-8 18 3 4 13 4 16 1q8-7 3-14l-1-3c-1-1-8-3-10-2m26 1c-10 6-6 20 5 20q8 0 12-7c5-9-8-19-17-13m93 3a9 9 0 0 0-6 16q8 9 17 1c9-7 0-21-11-17m59 0a9 9 0 0 0-2 17q10 6 15-5c4-7-5-15-13-12m27 1q-8 5-3 15c7 10 25 1 20-10q-5-11-17-5m-117 0q-7 1-8 10c3 13 21 13 22 0q0-13-14-10m178 1q-6 3-6 11c2 8 13 10 20 4 8-9-2-21-14-15m29 1c-10 6-2 21 10 17 7-2 9-12 3-17q-6-4-13 0M44 61a11 11 0 1 0 16 1q-9-7-16-1m90 1q-5 2-5 9a11 11 0 1 0 5-9m87 1c-9 9 3 24 14 16 10-7 7-18-5-19-6 0-6 0-9 3m92 0q-4 2-5 7c-1 9 11 15 19 9 12-8-2-23-14-16m92 1c-12 7-1 25 12 19a11 11 0 1 0-12-19m91 4c-10 6-1 23 10 17q11-6 4-16-5-6-14-1m177 2q-7 7 3 14c5 4 6 4 11 0q11-7 2-15-8-7-16 1m91-2c-6 5-5 14 2 17q3 1 3 5 1 4 1-4 0-18-3-20zm-179 0q-7 5-3 13c5 9 20 6 20-5 0-7-9-11-17-8M90 75l-5 3c-7 9 4 21 14 16 12-6 6-22-9-19m89 1q-12 6-4 15a11 11 0 1 0 4-15M1 85c0 11 0 12 5 11 14-3 12-21-2-21H1zm269-8q-12 7-4 16a10 10 0 1 0 4-16m88 4a10 10 0 1 0 16 1q-9-7-16-1m92-1q-7 4-5 11c4 9 16 10 21 2 6-9-6-19-16-13m90 3c-9 4-5 17 5 19 10 1 16-11 9-18q-5-5-14-1m89 0c-10 8 1 22 12 17q11-7 3-16-7-6-15-1m89 2q-5 5-1 11a11 11 0 1 0 1-11M27 93q-7 6-1 13c6 9 23 2 20-9-3-8-13-10-19-4m32-1c-6 1-8 9-5 14a11 11 0 1 0 5-15m62 1c-11 1-11 16-1 20 9 3 17-7 14-14-1-3-9-7-10-7zm25 1-3 3-1 1c-2 0-1 6 1 9 5 9 19 6 22-4 2-8-11-14-19-9m273-1c-11 5-5 21 7 21 15 0 14-20 0-22zm-210 1c-12 7-5 21 8 18 9-2 11-12 4-17-3-2-10-3-12-1m27 3q-6 5-3 10c5 9 17 10 21 0 6-11-9-19-18-10m63-2c-12 6-3 21 10 17q4-1 5-5c4-10-5-17-15-12m30 0c-12 6-3 23 10 18q9-6 7-13-7-9-17-5m64-1q-14 6-6 16c6 8 20 4 20-6q0-7-8-10zm88 2c-11 4-6 20 7 20 7 0 11-12 6-18q-6-4-13-2m120 3q-5 2-6 8c0 10 11 15 18 8 8-7-1-19-12-16m58 2q-4 4-4 7c0 10 16 13 21 5 6-10-8-20-17-12m35-2c-6 1-10 9-7 15 3 5 12 6 17 3 10-7 2-20-10-18m57 0q-4 2-5 9c0 10 14 14 19 5 7-9-2-18-14-14m-242 2q-9 8-2 15c7 8 20 3 20-6s-12-14-18-9m60-1q-9 7-2 15 10 10 18-2c5-9-6-18-16-13m-478 5c-10 2-12 15-3 19 8 4 17-1 17-9q-1-12-14-10m-89 1q-2-2-2 10v10h5c12 0 16-14 5-19q-5-3-8-1m173 2q-7 8-1 15 9 8 18-1c9-10-7-23-17-14m94-1q-9 4-7 11c5 14 23 13 23 0q-1-15-16-11m91 2c-6 3-7 11-2 16a10 10 0 1 0 2-16m92 1q-10 6-5 14 4 10 13 5c9-4 9-15 0-19-5-2-5-2-8 0m91 2q-12 8-3 17c5 6 14 4 17-4 3-7-6-16-14-13m177 1c-9 5-7 17 4 19q9 0 11-4c6-10-5-21-15-15m-90 1q-10 6-3 14c7 9 21 4 20-7 0-7-11-12-17-7m-585 5c-11 4-9 18 3 23 8 3 17-6 15-15-3-7-12-11-18-8m88 2q-11 5-5 15c6 10 22 6 22-6 0-9-10-14-17-9m182 1c-3 0-8 7-8 11 0 8 11 13 19 8 10-7 2-22-11-19m-96 4q-9 8 2 15c5 4 18 0 18-5l1-3c2-1-2-7-6-9q-9-5-15 2m186-1q-5 2-5 10-1 5 7 9c9 6 21-5 15-14q-6-9-17-5m94 2c-8 1-12 9-8 14 7 11 22 7 22-4q-1-12-14-10m178 0a11 11 0 1 0 14 7 11 11 0 0 0-14-7m-94 2c-7 8 2 22 11 18 12-5 10-20-3-20q-6 0-8 2m180 1q-9 9 2 15l4 4v-18q0-7-6-1m-746 8q-8 3-7 9a11 11 0 1 0 16-10c-5-1-5-1-9 1m55 0c-6 4-7 13-2 17 12 10 27-4 16-14q-7-8-14-3m33 1c-10 3-11 15-3 19 13 6 25-9 14-17q-6-3-11-2m59 0c-12 5-8 21 5 21q6 1 11-8c3-8-8-17-16-13m26 2q-6 7 0 15c11 10 27-3 18-14-4-6-13-6-18-1m94-1q-12 7-4 16c9 8 21 2 20-9-2-8-10-11-16-7m-28 0-3 1c-3 0-7 6-7 9q2 6 9 10c9 4 20-8 13-16-3-3-11-6-12-4m84 2c-3 3-3 3-3 8 1 10 13 14 21 7 10-10-7-25-18-15m36-1c-11 5-7 19 5 19 5 0 12-6 12-10 0-8-10-14-17-9m90-1-1 1-4 3c-7 8 1 19 12 17 11-3 12-16 2-21zm57 1q-8 4-7 12c3 9 14 11 21 3 7-7-4-19-14-15m122 0c-13 3-10 20 3 19q11 1 12-9a10 10 0 0 0-10-10zm-207 1c-3 0-9 6-9 8 0 12 20 15 23 3q0-13-14-11m112 2q-6 6-3 11c7 12 24 7 21-6-1-8-12-11-18-5m64-2c-6 2-9 10-5 15a11 11 0 1 0 5-15m119 2c-11 7-6 19 7 19q10-1 11-10c0-8-11-13-18-9m-32 4q-6 4-1 10a9 9 0 0 0 14 5c6 0 9-11 4-16q-8-7-17 1m-655 5-5 3c-9 9 3 22 13 16 12-7 6-22-8-19m84 4q-9 7 2 15c12 7 25-6 14-16q-7-7-16 1m91-1q-9 10 5 17c7 3 16-4 14-11-1-9-12-12-19-6m90 0q-6 7 1 16c5 4 17 2 19-5 4-11-11-19-20-11m96-1c-13 5-10 21 4 20 10-2 15-11 8-17a12 12 0 0 0-12-3m86 0c-8 3-8 16 1 20 7 3 16-3 16-10s-10-13-17-10m91 0c-8 3-9 12-2 19a11 11 0 1 0 2-19m89 2c-9 4-7 17 5 20 8 1 17-10 12-17q-6-7-17-3m90 1c-7 8-6 18 3 19q3 1 3 5l1-5q0-27-7-19M2 164l-1 11v10h5c8-1 13-10 8-16-3-4-10-7-12-5m89 4q-12 7-5 16c7 8 19 3 19-7 0-8-8-13-14-9m88-1q-10 5-6 14c9 13 26 6 21-8q-5-10-15-6m90 1q-7 4-6 10c0 12 19 14 22 1 1-7-9-14-16-11m91 2c-8 3-7 14 1 18 4 2 4 2 8 1 14-7 5-25-9-19m88 0c-4 1-5 11-2 15 7 10 25 1 20-10-3-5-12-8-18-5m87 2c-7 7-2 18 8 18 11 0 16-13 7-19q-8-5-15 1m90 0c-5 6-2 15 7 17 6 1 13-5 13-11 0-8-14-12-20-6m90 4q-4 4-3 6c2 11 20 12 22 2 2-11-10-16-19-8m-691 8c-10 9 3 24 14 16q10-7 4-14-9-9-18-2m94-1q-14 7-4 17c8 8 19 4 19-7a7 7 0 0 0-2-8q0-2-7-3-3-1-6 1m29 0q-6 3-4 10c1 12 20 13 22 1 1-10-9-16-18-11m-89 1c-3 1-6 7-6 10 3 11 20 12 23 1 2-7-8-14-17-11m150 0c-6 2-9 10-6 14q10 11 19 3c8-8-2-22-13-17m31 1c-11 5-8 19 4 19q11 0 10-10-2-14-14-9m87 1c-10 9 2 22 14 16q6-2 5-9c0-10-11-14-19-7m61-1c-10 4-3 21 8 20 15-2 13-22-2-22zm91 0q-12 9 0 18c9 5 17-2 15-12-1-6-10-10-15-6m-182 2c-6 6-2 15 8 17q6 1 11-5c5-10-10-20-19-12m121-2c-9 5-3 19 8 19q9-2 11-9c0-8-11-14-19-10m90 1q-11 8-2 16c8 8 23-1 18-11q-6-11-16-5m93-1c-12 4-9 19 4 19 8 0 13-8 8-15l-8-5zm-37 3c-7 7 2 19 12 17 4 0 9-7 9-10 0-8-15-13-21-7m92 1q-8 10 4 17c4 2 13-2 14-7 4-10-10-18-18-10m32-1c-8 4-7 13 2 18 6 3 16-3 16-10 0-8-11-13-18-8m66 0-3 1c-7 0-8 10-3 16 9 8 23-2 18-12-2-4-11-8-12-5M0 206v10h4c9 0 15-10 10-16q-5-4-11-5H0zm89-9q-12 7-3 18c8 7 21-1 18-11-1-6-9-9-15-7m89 1a11 11 0 1 0 13 18c11-10 0-25-13-18m93 0c-4 1-10 13-6 13l1 1q0 2 5 4l4 2 4-2c13-7 7-21-8-18m89 2c-11 4-6 19 5 19 9 0 14-10 8-16q-6-6-13-3m178 0c-10 4-7 19 5 19 13 0 15-16 3-19zm89 1q-5 5-4 11c4 11 22 9 22-2 0-8-12-13-18-9m90 3q-5 4-3 10 9 12 20 2c8-9-8-21-17-12m-673 7c-11 7-4 23 8 20 4-1 9-7 9-10 0-7-11-13-17-10m180 1c-9 3-9 15 0 19q7 3 14-4c7-8-2-19-14-15m-94 4c-9 8 3 22 14 15q10-6 2-15t-16 0m186-2c-7 3-9 11-4 16q8 8 18-1c8-8-3-19-14-15m176 0q-8 6-2 16c7 10 23 0 18-12-2-4-11-6-16-4m-86 1c-7 1-8 15-1 18q7 4 13-2c9-9 2-19-12-16m175 2c-9 7 1 21 11 17 11-5 7-19-4-19zm92-1q-10 7-3 16 8 8 17 0c8-9-3-21-14-16m93 2c-8 5-8 14 0 18l4 2-2-21zM14 228c-8 5-7 16 3 19 4 1 12-4 14-9 2-8-9-16-17-10m59 0q-10 7-2 17c7 7 19 1 19-9 0-7-11-12-17-8m32 1q-6 4-7 7c-2 11 12 17 20 8q6-6-1-13t-12-2m84 2q-7 9 6 16 7 2 13-5c5-11-10-20-19-11m63-2q-7 8 0 15c7 8 20 2 19-8-2-7-13-12-19-7m124-1q-7 4-7 9c0 13 21 15 22 2 0-8-8-14-15-11m92 0c-6 2-10 10-7 16 0 3 7 6 11 6 8 0 14-12 7-18l-7-5zm-306 2q-10 5-2 15c7 7 20 2 19-8q-4-12-17-7m124-1q-9 6-4 16c6 7 19 2 19-7a9 9 0 0 0-10-9zm57 2q-3 2-4 6c-2 12 20 15 22 3 2-9-11-16-18-9m89 1c-6 5-3 16 6 18 8 1 16-6 14-13-3-8-13-11-20-5m89 0c-7 6-3 18 7 18 8 0 14-10 9-15q-7-10-16-3m35-2c-14 3-11 21 2 21s16-14 5-20q-4-3-7-1m56 2q-5 3-5 9c0 9 11 13 18 8 10-9-2-24-13-17m30-1q-5 4-4 11c2 9 14 11 20 2 4-8-7-17-16-13m65 1c-6 1-10 8-7 12 4 8 13 9 18 3 7-8-1-18-11-15m25 3c-8 8 1 20 12 16q6-4 7-11c-2-8-14-11-19-5m-685 6c-8 3-11 11-6 16q9 9 17 1c7-7-1-20-11-17m85 3c-8 7-3 18 8 18q6 1 8-3c10-10-5-24-16-15m93-2c-10 4-11 16 0 20 11 5 21-8 13-16l-9-5zm92 1q-13 8-4 17 7 6 13 2c12-6 3-24-9-19m88 3c-12 6-6 22 7 18a9 9 0 0 0 3-18q-5-3-10 0m87 0-3 4-1 2c-1 1 1 7 4 9q8 6 15 0 6-5 0-12c-3-6-11-7-15-3m90 1q-6 5-3 11c4 9 18 9 21 0 3-10-10-19-18-11m93 0q-10 7-3 15c5 7 18 3 18-6 0-7-9-13-15-9m89 2c-6 3-5 12 1 16q4 2 4 6v-19q1-7-5-3m-672 6a11 11 0 1 0 9 3q-5-4-9-3M1 265l1 11h2c7 1 14-7 12-13q-2-8-10-8H1zm178-8c-11 5-8 19 5 20 5 0 5 0 8-3 9-9-1-22-13-17m90 3c-7 1-9 10-3 15 10 9 23-1 16-12a12 12 0 0 0-13-3m91 0a9 9 0 0 0 5 18q9-1 11-10c0-7-10-11-16-8m175 2c-8 6 1 19 12 17 12-3 9-20-4-20q-5 0-8 3m-88 2q-5 4-2 9c5 11 23 6 20-6-2-7-12-9-18-3m180-2c-6 4-7 12-2 15 11 7 23 1 20-9-2-7-11-10-18-6m91 1a9 9 0 0 0-3 15c0 4 12 5 17 1 9-9-3-23-14-16m-688 7c-7 1-9 11-2 17q8 6 15-1c9-8 1-19-13-16m28 4q-12 8-1 17c6 5 19 0 19-7 0-9-11-15-18-10m57 1c-6 6-4 15 3 18 8 3 17-4 16-11-2-10-12-13-19-7m94-2c-11 6-8 20 5 20q6 1 8-3c8-8-2-21-13-17m26 3q-3 2-3 5c0 6 9 14 14 11l4-1q6-3 4-11c-4-8-13-11-19-4m61-1q-5 5-2 10c6 11 21 8 21-4 0-8-13-12-19-6m-145-1c-8 3-11 12-5 18 3 3 13 3 17-1 6-8-2-20-12-17m179 0q-11 6-3 16 7 7 17 0c9-8-2-21-14-16m60 4a9 9 0 0 0 10 16q13-6 4-16-6-6-14 0m28 0q-8 10 4 16 8 4 13-5c5-10-9-19-17-11m63-2a10 10 0 1 0 8 19 10 10 0 0 0-8-19m29 0a9 9 0 0 0 0 18c7 2 15-4 14-10q-5-11-14-8m57 1q-11 7-2 15 8 9 16-1c9-8-4-21-14-14m93 0c-12 5-6 22 6 19a9 9 0 0 0 3-18c-4-2-4-2-9-1m90 0c-7 3-8 11-2 16q7 6 13-1c9-8 1-20-11-15m-154 2q-8 8 1 15c7 5 17 0 17-7 0-9-11-13-18-8m94-1c-8 3-9 11-3 16q9 7 16-2c6-8-3-18-13-14M1 286l-1 10v9h4c11 0 17-13 9-18q-6-3-12-1m88 1c-8 4-7 15 2 19q12 2 14-10c0-7-9-12-16-9m89 1q-10 6-1 17c11 8 24-6 14-16q-5-5-13-1m88 0q-7 5-3 12 9 12 20 2l2-6c0-8-11-13-19-8m94-1q-6 3-6 10c0 8 14 14 20 9 8-8-2-24-14-19m89 4q-11 8-2 16 8 6 14 0c9-9-2-23-12-16m89 0q-9 6-2 14c7 8 21 1 18-9-3-6-11-9-16-5m93 0c-11 5-10 15 0 18 13 4 19-13 7-18q-4-3-7 0m86 1q-10 10 3 17c11 4 19-7 11-16q-6-8-14-1M43 303c-7 7-3 18 8 18q10 0 10-10c0-9-10-13-18-8m89 1c-11 8 3 22 14 15q11-8-3-17-5-3-11 2m93-1q-10 3-6 13c5 12 24 6 20-6a12 12 0 0 0-14-7m88 1q-8 6 0 14 7 7 14 1c10-9-3-22-14-15m93 0c-10 2-10 14-1 19s20-6 15-14q-4-8-14-5m86 3q-8 10 4 16a10 10 0 1 0-4-16m91-1c-7 4-6 13 2 17q6 3 11-1c10-9-2-23-13-16m89 2c-8 7-4 17 6 17s15-9 9-15c-4-5-12-5-15-2m92 0c-7 5-6 15 3 17l2 3v-16q1-9-5-4M13 319q-9 11 3 15c13 4 22-10 11-17q-8-5-14 2m92-2c-9 3-9 14-1 18s19-5 15-13q-4-8-14-5m180 1-6 8q-1 9 11 11c7 0 15-10 10-12l-1-3c0-5-9-7-14-4m-209 0c-10 5-10 16 0 19a10 10 0 1 0 0-19m268 1q-9 6-1 15c5 4 14 3 17-2 6-9-6-19-16-13m29 0c-7 7-3 17 7 17q5 0 8-3c9-9-5-22-15-14m60 2q-7 7-1 12c8 9 22 3 19-8-3-8-13-10-18-4m31-2q-11 10-3 17c7 7 20 1 20-8s-11-14-17-9m-301 1a11 11 0 1 0 16 13c4-10-8-19-16-13m29 0q-5 3-3 10c1 7 13 10 18 4 9-9-4-21-15-14m58 2q-6 4-1 10c5 9 21 5 21-5 0-8-14-12-20-5m303-1a9 9 0 0 0 6 18q9-1 11-10c0-6-10-11-17-8m-29 1q-6 11-4 15c4 7 21 1 19-7-1-7-12-12-15-8m92 0-1 1c-3-1-7 6-6 10 2 9 12 11 18 5 5-5 3-13-3-15q-8-3-8-1m26 2c-10 9 1 22 13 15l5-5c3-10-10-17-18-10m63-2q-7 4-7 9c0 9 12 13 19 6s-3-20-12-15m31 1a9 9 0 0 0 5 18 9 9 0 0 0 3-18l-4-2zm-511 8q-12 8-5 16c6 7 16 6 19-2s-8-18-14-14m179 1q-9 7-2 16a11 11 0 1 0 2-16m-268 0c-13 4-9 21 4 20 12-2 14-15 3-20zm181 0a10 10 0 1 0 9 18c13-6 5-22-9-18m-271 1c-8 3-8 14-1 18 3 2 10 0 13-3 9-6-2-19-12-15m450 2c-7 2-10 12-5 17 4 3 14 2 17-1 6-8-2-19-12-16m87 2c-8 5-6 15 4 18a10 10 0 1 0-4-18m88 0c-3 3-4 10-2 13 4 6 16 6 19-1 5-9-9-19-17-12m96 0q-11 7-2 16 4 3 4 8l1-6q0-21-3-18M1 355v10h3q8 0 12-9l2-6-2-2-4-2-2-1-5-1H1zm180-9q-7 3-9 11 2 6 9 9c7 2 15-4 15-11 0-5-9-11-15-9m-91 1c-12 7-7 23 6 20a11 11 0 1 0-6-20m178 0c-5 2-7 10-2 15 6 7 19 3 19-6q-2-13-17-9m93 1q-7 3-6 10c0 10 14 13 21 4 5-9-6-20-15-14m86 4q-6 6-1 13a10 10 0 1 0 1-13m93 0a9 9 0 0 0 4 18c9 0 15-10 9-15q-6-7-13-3m86 1q-7 11 5 17c5 2 13-3 14-8 2-10-12-16-19-9m92-1q-7 7-1 14 8 9 17-1c6-9-7-20-16-13m-688 9c-7 3-9 12-3 18s16 3 19-5-7-17-16-13m210 0c-6 1-9 8-6 13q6 12 17 4c8-6 1-19-11-17m-181 2q-7 2-6 9c2 7 10 12 16 9q12-8 0-18c-4-2-4-2-10 0m89 0q-8 4-6 11c4 9 17 10 21 1 5-9-6-18-15-12m58 1q-10 7-2 15c9 9 26-4 18-13q-8-8-16-2m94-1q-8 5-3 13 6 9 15 2c8-9-2-21-12-15m118 0c-6 3-6 12 0 17 9 9 24-1 17-12-3-6-12-9-17-5m-299 0q-7 2-7 8c0 12 17 15 22 4v-5c-6-8-8-9-15-7m211 0c-9 2-8 18 2 20 11 2 18-6 13-15q-3-8-15-5m58 1q-6 4-5 12c4 11 20 10 23-1 1-9-9-15-18-11m121 2c-9 4-7 17 3 19 5 1 12-4 12-10q-1-12-15-9m57 1c-8 7-4 18 7 18q16-1 10-15c-3-5-12-7-17-3m-89 1c-7 8 4 20 12 13 3-2 3-10 1-13q-6-4-13 0m119 1q-5 4-1 10c5 10 20 6 19-4-1-9-12-12-18-6m64-2c-7 1-10 11-6 15 8 6 20 3 20-6a11 11 0 0 0-14-9m26 2q-6 6 1 13c4 5 13 3 16-4 5-9-9-17-17-9m65-2a11 11 0 1 0 12 16c8-7-2-20-12-16M2 375c-2 0-3 18-1 20 2 1 9-1 12-4 8-8 0-19-11-16m175 0c-2 1-7 7-7 9 0 12 17 16 22 6 4-9-6-19-15-15m93 2c-6 2-9 11-5 16 7 9 24 2 21-8q-5-11-16-8m87 0q-7 5-3 12c6 13 28 6 22-7q-7-11-19-5m93 0c-7 3-9 12-4 17q12 9 20-2c6-10-5-21-16-15m-361 0q-10 7-3 17c5 7 19 2 19-7 0-8-8-13-16-10m539 3c-10 5-7 19 4 19 10 1 16-8 10-15l-10-6zm-92 4q-6 5 0 13a10 10 0 1 0 0-13m186-2a9 9 0 0 0-3 18 10 10 0 1 0 3-18m-678 8-3 2-1 3c-4 3-1 11 4 13q7 4 13-2c9-8-1-21-13-16m89 1q-7 5-5 11c6 12 22 10 22-3 0-9-10-13-17-8m94 1h-4c-5 2-7 10-3 14q7 9 16 1c7-5-1-18-9-15m88 0c-6 2-9 12-4 16 6 7 22-2 19-10-2-5-10-8-15-6m89 2q-5 2-4 8c0 10 10 13 18 6 9-7-5-21-14-14m86 2q-6 7 1 13 7 9 16-1c4-3 4-13 0-13l-3-1q-6-5-14 2m91 2q-6 6 1 11a10 10 0 1 0-1-11m92-1-4 4c-4 11 12 19 19 10s-6-21-15-14m90 0c-8 5-6 14 3 18l3 1v-11c0-11 0-11-6-8m-749 7a11 11 0 1 0 13 3q-6-5-13-3m60 1c-11 6-7 20 6 20 12 0 14-15 3-19q-4-3-9-1m89 0q-12 7-3 17 11 7 17-4 4-7-6-12-3-3-8-1m30 1a9 9 0 0 0-1 17c6 5 16-1 16-9q1-3-5-7c-5-3-4-3-10-1m91 0q-7 3-7 11c1 7 10 10 17 6 11-7 2-22-10-17m92 0c-10 5-10 17 0 20 14 3 22-13 10-19q-6-3-10-1m-275 3c-8 7 0 19 10 16 8-2 10-10 6-16-3-4-13-4-16 0m152-2c-10 4-6 18 5 18s16-12 7-17q-6-3-12-1m88 2q-4 2-3 6a9 9 0 0 0 8 9c1 3 9 1 12-2 10-9-7-22-17-13m95-2c-7 3-9 12-4 17 7 5 19 1 19-8 0-6-9-12-15-9m27 0c-4 2-6 9-3 13 6 12 26 4 20-8l-2-3-3-1c-1-2-10-3-12-1m57 5c-9 9 6 22 16 14q8-7 0-15c-3-3-12-3-16 1m30 1q-6 5-1 12a10 10 0 1 0 1-12m66-3a9 9 0 0 0-4 16c10 6 22-5 13-13q-4-4-9-3m28 0q-5 1-7 8c-1 8 13 14 19 7q7-9-5-15zm90 0c-2 1-7 6-7 8 0 9 15 14 21 7s-4-19-14-15m-31 1c-5 4-5 13 0 17 11 7 24-6 15-15-4-3-12-4-15-2m-391 9a9 9 0 0 0 7 17 9 9 0 0 0 2-17q-6-3-9 0m-87 0c-7 2-9 10-4 16a10 10 0 1 0 4-16m-180 1c-9 4-5 19 6 19q8-1 11-9c1-8-9-13-17-10m88 0q-5 3-6 10c0 11 20 12 21 1 2-9-6-14-15-11m272 2q-8 5-5 12c2 5 10 7 15 5 7-4 7-13 0-17q-6-3-10 0m88 1c-6 4-7 13-1 17 9 6 23-3 17-12-3-5-12-8-16-5m91 1c-8 4-9 12-2 16a10 10 0 1 0 2-16m88 2c-8 8-3 18 8 17q14-2 9-13t-17-4m93-2a9 9 0 0 0 1 17q3 1 3 5l1-4-2-19zM2 433l-1 9v9h4c8 0 13-9 8-14-3-4-10-6-11-4m88 0a9 9 0 0 0-4 16c4 5 17 2 19-3 2-8-7-16-15-13m86 2q-9 8 0 14 8 4 15 0c8-9-7-22-15-14m183-1c-10 4-9 14 2 18 4 1 4 1 8-1 7-4 6-14-2-16q-6-3-8-1m-92 2c-9 4-4 17 7 17q4 0 7-3c8-8-3-20-14-14m182-1c-5 2-7 10-3 15 7 9 20 5 20-6 0-7-9-12-17-9m87 3c-9 6-5 16 7 16a8 8 0 0 0 2-17c-5-1-5-1-9 1m93 1c-8 6-3 17 8 15q11-4 4-13-5-6-12-2m89 2c-8 5-5 13 6 15 8 2 13-7 8-13q-6-6-14-2m-690 5c-5 2-9 11-6 11l1 1q2 6 9 7c12 0 16-10 8-17q-5-6-12-2m88 1q-8 6-1 14 8 7 15 1c11-9-4-24-14-15m33-1a9 9 0 0 0 2 19c6 0 6 0 9-4q7-7 1-12-5-4-12-3m-93 2a10 10 0 1 0 16 1c-3-3-13-4-16-1m150 0c-8 5-7 14 2 19 7 3 18-5 16-12-1-7-12-11-18-7m31 1q-11 6-2 16c8 7 20 1 18-10q-3-11-16-6m59 1q-9 9 2 16c7 5 19-3 16-10-3-9-12-11-18-6m31 0q-8 12 4 17a10 10 0 1 0-4-17m94-1c-8 2-12 11-7 16q13 10 21-2c3-7-6-17-14-14m-34 3q-6 5 0 13c6 7 20 3 20-6s-14-14-20-7m209-2c-6 2-9 11-5 16 7 8 20 3 20-7 0-6-9-12-15-9m-120 2q-8 7 1 15c5 5 13 3 15-4 2-10-9-17-16-11m27 1c-8 6-1 19 9 18q9-3 10-11c0-8-12-13-19-7m60 0q-6 4-3 10c6 10 22 7 22-5 0-7-13-11-19-5m94-1a9 9 0 0 0 1 18q11 2 14-7c1-9-8-15-15-11m30 0c-10 4-9 16 3 19 8 1 15-9 10-15l-9-6zm62 0c-7 1-10 9-6 14 8 9 22 3 19-8-1-4-8-7-13-6m-662 9c-7 5-5 13 3 16s16-3 15-11c-2-8-11-11-18-5m92-2c-11 6-10 17 2 20 9 2 16-6 12-13q-6-10-14-7M1 461c-2 1-1 21 1 21 6 0 14-7 14-11 0-7-9-13-15-10m267 1q-12 5-4 13 9 9 17 0 6-5 0-11t-13-2m91 1a9 9 0 0 0 3 18c13 1 18-14 6-19q-4-2-9 1m91 1c-6 1-9 11-5 16 6 6 17 4 20-5 3-6-6-13-15-11m87 0c-7 1-10 10-6 16 7 7 20 4 20-6q-1-12-14-10m87 2q-7 6-4 13c5 6 16 6 19-1 5-10-6-18-15-12m94-1c-11 6-8 19 4 18q13-2 9-12t-13-6M43 476c-7 6-3 17 8 17q6 1 8-3c9-9-6-23-16-14m179-1c-11 4-9 16 3 19 6 1 14-4 14-10s-11-12-17-9m-93 3c-9 8 1 21 12 16q9-4 5-14c-3-6-12-7-17-2m183 1c-9 8 2 21 12 16q12-7 4-16-7-6-16 0m92-2c-11 6-8 20 4 20q11 0 11-10c0-8-9-13-15-10m267 3c-11 5-8 19 4 19 13 0 16-15 5-20q-6-2-9 1m-180 0-3 4a10 10 0 1 0 3-4m274 0c-10 3-11 12-4 18q9 7 8-8l-1-11zm-185 1c-2 1-7 7-7 9s5 8 8 9c6 4 15-1 15-9 0-7-10-12-16-9M10 491c-10 9 2 22 14 15a11 11 0 1 0-14-15m94-2a11 11 0 1 0 14 16c7-8-4-20-14-16m-29 1a10 10 0 0 0 0 19c2 1 9 0 13-3 8-8-2-21-13-16m85 1c-7 6-3 17 7 17 9 0 13-9 7-16q-6-6-14-1m33-1c-9 3-9 14-1 18 12 6 22-8 13-16-2-2-9-3-12-2m58 2c-12 6-2 22 10 18q8-3 9-11c0-7-12-11-19-7m29 2q-7 10 4 15 12 2 15-7c2-11-12-17-19-8m63-3q-5 3-5 10c0 10 17 13 21 2 4-8-8-16-16-12m31 1q-11 7-2 16c7 6 18 1 18-7q-1-8-6-9l-1-1c0-1-6-1-9 1m55 2c-8 7-2 18 9 18 3 0 12-9 12-11l-3-5c-5-5-14-6-18-2m31 1c-5 6-2 15 5 17 11 2 19-10 10-17q-7-6-15 0m148 2c-7 6-4 14 5 15 13 1 18-11 7-17q-6-4-12 2m32-2q-5 3-5 9 0 9 12 8c7 0 7 0 9-3 5-10-6-20-16-14m-86 0a9 9 0 0 0-6 15c2 3 16 3 18 0 7-7-1-17-12-15m148 0c-6 1-9 10-5 15q0 2 9 2 12 1 11-8-1-12-15-9m28 2q-5 6-1 13c2 3 14 3 17 0 5-6 1-15-8-16-5 0-5 0-8 3m-211 1q-6 6-2 11l2 3h8q12 0 10-7c0-9-13-14-18-7m-386 5q-7 3-7 7c0 2 0 2 11 2q17 1 9-5-6-8-13-4m-88 2q-3 0-5 4l-1 3h11c12 0 13 0 11-4-3-5-11-6-16-3m177 0-6 6 11 1q16 1 7-5-5-5-12-2m181 1-6 5 11 1h10l-1-2q-5-7-14-4m-91 3-3 3h9q14 1 8-3-7-5-14 0m268 0q-7 3 5 3t6-3q-5-3-11 0"
        mask="url(#16282281824-posters-1720559948599-horizontal-mask)" itemprop="light" fill-opacity="0.90"
        fill-rule="evenodd" stroke="none" fill="url(#16282281824-posters-1720559948599-vertical-light)"></path>
      <!---->
      <path id="16282281824-posters-1720559948599-regular"
        d="M0 3c0 5 7 6 12 1q7-4-4-4H0zm88-2c0 4 10 5 15 2l3-3h-9zm87 0c0 4 12 7 16 3q8-4-6-4zm35 1c-10 4-9 17 2 19q9 1 11-10 2-3-3-7-4-6-10-2m55 0 1 2 3 2q8 4 13-2 9-4-7-4-12 0-10 2m90-1 3 3q9 6 15 0c3-4 3-4-8-4zm93 1c2 8 13 9 18 3q7-6-9-5c-10 0-10 0-9 2m87 0a11 11 0 0 0 23 0c0-2-1-2-11-2-11 0-12 0-12 2m91 0c0 10 15 14 19 5 4-7 4-7-8-7-11 0-11 0-11 2m90 1q2 7 9 9 8-1 11-9l1-3h-22zM35 2q-7 1-9 6c-5 10 12 17 18 8 5-7-1-16-9-14m27 0c-8 4-8 15 1 19q6 3 11-3c8-7-1-20-12-16m275 0q-7 1-9 3c-6 6-1 17 7 17 7 0 13-8 11-14q-3-6-6-7zM150 3c-8 3-9 14-1 18a10 10 0 1 0 1-18m91 1q-13 8-1 17c7 3 18-3 17-10-2-6-11-10-16-7M120 4c-7 4-8 13-1 16a9 9 0 1 0 1-16m180 2c-9 4-6 15 5 16 5 0 5 0 8-3 8-8-3-19-13-13m89-1c-7 4-6 13 2 17 6 4 16-2 15-9q-5-11-17-8m29 3q-5 5-2 10c5 9 17 9 20 1 4-10-10-19-18-11m64 0q-8 4-3 12 7 11 16 1c6-9-4-19-13-13m181 0a9 9 0 0 0-3 17c5 3 13 1 15-4 4-7-2-15-12-13m89 0c-9 4-6 19 5 19q9-1 10-10c0-6-9-12-15-9M511 9c-10 6-6 19 6 18q9 0 9-9c0-8-8-13-15-9m92 0q-11 5-4 15c3 4 11 4 15 0 8-8-1-19-11-15m86 2q-7 9 3 14c10 6 20-6 12-14q-8-6-15 0m-118 1c-8 4-6 13 2 16 7 3 15-3 13-10-1-6-10-10-15-6M90 16q-7 3-6 10c4 11 19 10 22-1 1-6-9-12-16-9M2 16c-3 1-3 18 0 19 6 1 14-5 14-10a13 13 0 0 0-14-9m178 1a10 10 0 1 0 9 17c11-6 3-22-9-17m271 3a10 10 0 1 0 12 0q-6-7-12 0m-89-1c-6 2-8 11-4 16 7 8 23-2 18-11q-5-8-14-5m-97 3c-5 5 0 14 10 14q13-2 7-14c-2-4-13-4-17 0m276 1c-9 4-5 17 5 17q8-1 11-9c1-7-9-12-16-8m91 0c-7 3-8 11-2 16 8 7 22-3 16-13q-5-7-14-3m90 0a10 10 0 1 0 11 16q7-7-2-15-3-3-9-1m-491 6q-13 4-12 15c2 11 21 9 21-1 0-6-5-15-7-15zM49 30c-10 4-8 19 3 19q9-1 12-10c1-6-8-12-15-9m85 2c-5 2-6 10-1 15 8 9 22-1 17-11q-6-7-16-4m272 2q-10 7-2 16c7 8 20 2 19-8-1-6-11-11-17-8m-92 2c-7 4-6 12 2 16q6 2 11-1c9-8-3-22-13-15m182 3c-6 5-5 13 4 16 6 2 14-4 13-11-2-6-12-9-17-5m89 1q-9 9 4 15 8 4 12-3c7-10-7-20-16-12m90-1c-8 5-5 17 5 18 5 0 5 0 8-3 10-10-1-22-13-15m89 2c-5 5-4 13 2 15q5 4 3-9 1-14-5-6M74 47c-6 4-5 12 2 16a10 10 0 1 0-2-16m28 1c-9 9 3 22 14 15 6-4 6-13-1-16q-7-4-13 1m60-2q-6 4-3 12c5 9 20 7 20-3 0-8-9-12-17-9m34 0c-2 0-8 6-8 9q1 5 6 8c7 5 16 0 15-8l-1-5c0-2-7-5-12-4M13 48q-9 6-1 14 7 7 16 0c8-9-4-21-15-14m239 1q-4 2-3 6c0 11 16 14 21 4 4-9-9-17-18-10m217-2q-14 7-5 17 7 7 14 2c10-7 2-24-9-19m-183 1a9 9 0 0 0-5 15q9 8 16 0c7-7-1-18-11-15m60 0c-9 4-4 19 6 19 3 0 11-6 11-9 0-7-9-13-17-10m30 0a10 10 0 1 0 14 15c7-9-2-20-14-15m62 0c-9 2-11 12-4 18 6 5 18-1 18-9q-1-6-5-9zm118 5q-9 6-2 15c6 5 15 4 18-3 4-9-7-18-16-12m61-1q-10 6-4 13c7 7 18 4 18-5 0-6-8-11-14-8m28 1c-11 8 0 22 12 16q11-6 3-16-8-4-15 0m-120 1q-9 7 1 15c8 7 20-3 15-13-3-5-12-6-16-2m179 1q-6 6 0 13c5 5 14 3 17-3 6-9-9-18-17-10m36-2a9 9 0 0 0 1 18 9 9 0 0 0 2-19zM45 60c-3 2-6 9-4 12q8 11 16 5c11-8 1-23-12-17m178 2c-7 5-5 16 4 19 5 1 12-4 13-10 1-7-10-14-17-9m-91 2q-7 9 3 17 9 2 14-6c6-10-9-19-17-11m182 0c-11 5-2 20 9 16q8-2 8-9c0-7-10-12-17-7m94-1-6 5c-7 10 8 21 17 12 8-8 1-20-11-17m90 5c-6 2-8 10-3 14q7 7 15 1c7-8-2-20-12-15m178 0q-9 6-1 14 6 7 12 1c10-7 0-22-11-15m89 0q-5 4-5 9 3 7 7 8 2 0 2 4 1 4 1-4l-1-14v-5zm-176 0q-6 2-8 8c0 7 8 12 15 8 11-5 5-18-7-16M89 76c-8 3-6 17 3 18q7 1 11-4c6-8-4-18-14-14m87 2q-6 6 0 13c10 9 24-2 15-12q-8-8-15-1M1 86v9h5q9-2 10-9-1-9-12-10H1zm265-6q-5 5-1 10c6 9 20 7 20-3 0-9-12-13-19-7m93 2a10 10 0 1 0 17 6c0-8-12-12-17-6m92-2q-10 6-3 14c7 7 19 3 19-7 0-6-10-10-16-7m180 2a9 9 0 0 0 6 18 9 9 0 0 0 2-18zm92 0c-3 0-7 6-7 9 0 12 18 14 21 2 1-6-7-13-14-11m-183 1c-5 2-6 11-1 15 10 9 24-4 15-13q-5-5-14-2M27 93q-6 5-1 12 8 9 18 0c7-10-8-20-17-12m120 0c-9 5-5 18 5 18q8 0 11-7c3-8-8-16-16-11m274-1a11 11 0 1 0 15 8c-2-6-10-10-15-8M56 94c-5 5-3 15 4 17q6 1 12-4c7-9-7-20-16-13m62 0c-8 4-6 14 3 17q7 1 11-4c6-8-5-19-14-13m92-1q-12 6-3 15c5 6 16 3 17-5 2-7-7-13-14-10m30 0q-11 7-3 16a10 10 0 1 0 3-16m60 1a9 9 0 0 0 5 17c9 0 13-9 7-15q-5-6-12-2m30 0a9 9 0 0 0 9 17c7-3 9-11 3-15q-6-4-12-2m63 0a9 9 0 0 0 0 19 10 10 0 1 0 0-19m87 2q-7 5-4 11c2 6 13 9 16 5 9-9-2-23-12-16m180 4c-10 8 0 20 12 14 8-3 6-13-2-16q-6-3-10 2m91-2q-8 6-3 14a10 10 0 1 0 3-14m-241 2q-9 6-1 16a10 10 0 1 0 1-16m60 0c-9 3-5 16 5 18 9 1 14-11 7-17q-4-5-12-1m30-1c-8 3-6 14 3 17q12 2 12-10-3-10-15-7m93 0c-6 2-9 10-5 14q8 8 17 1c8-7-2-19-12-15m-604 6c-10 3-7 19 5 19 7 0 13-8 10-14q-4-9-15-5m-87 1q-2-2-2 10v9h4q14-2 11-14-5-7-13-5m174 1c-6 4-6 12 0 16 6 5 18 0 18-8s-12-13-18-8m95 0c-11 3-11 15 1 19 11 4 18-14 6-19q-3-3-7 0m87 4q-6 7 0 12 4 7 9 4a10 10 0 1 0-9-16m95-2a10 10 0 1 0 7 19 10 10 0 0 0-7-19m90 3a10 10 0 1 0 14 10c0-7-9-13-14-10m90 0q-6 1-7 9c0 8 9 13 16 8 9-7 3-19-9-17m87 1c-8 6-6 16 5 18q7 1 10-6c5-9-7-18-15-12m-679 8q-5 5-2 11 6 10 15 8c13-5 9-22-4-22q-6-1-9 3m91 0c-9 3-6 17 4 19q7 0 11-4c8-10-3-21-15-15m179 3c-7 8-3 17 8 17 12 0 15-13 5-19q-7-3-13 2m-92 1c-9 9 4 22 15 15 10-7 7-16-6-18-6 0-6 0-9 3m187 0q-10 6-3 15c6 6 15 5 18-1 5-10-6-20-15-14m89 3q-8 4-3 13 9 10 18 1c8-9-3-21-15-14m89 1q-7 8 3 15a10 10 0 1 0-3-15m91-2-4 5-2 4 2 4a11 11 0 1 0 4-13m91 0c-8 4-7 18 1 18l2 2v-16q1-7-3-4M17 137q-7 2-6 10a10 10 0 1 0 6-10m54 2c-7 6-3 17 7 18 11 1 15-12 5-19q-6-5-12 1m121 0c-10 6-2 21 10 18q11-4 7-13-6-11-17-5m-90 1c-11 7-3 21 10 17 9-3 10-13 2-17q-8-3-12 0m58 1c-7 7-1 18 10 18q7-2 9-11c0-9-12-14-19-7m122-1c-9 6-5 18 7 18q9 0 10-10c0-9-9-13-17-8m61-1c-11 6-4 22 9 20 9-2 11-13 4-18q-6-4-13-2m-90 1q-9 6-4 14c7 7 17 6 20-2 3-9-6-16-16-12m124 0c-7 1-9 10-5 15 7 7 21 1 20-8q-2-9-15-7m88 0c-9 4-7 18 2 20 10 1 18-10 12-18q-6-4-14-2m-27 1q-8 4-8 9c0 8 13 13 19 7 7-8-1-19-11-16m81 2c-8 9 4 21 15 14q8-6 1-15c-4-3-12-3-16 1m34-1q-11 7-2 15a10 10 0 1 0 2-15m88 1q-6 7 0 14c6 6 18 1 18-7 0-9-13-14-18-7m-29 0q-6 4-4 11a10 10 0 1 0 4-11m123 0c-8 3-9 14-1 17q9 5 15-3a10 10 0 0 0-10-14zm-31 2q-7 5-4 12c5 9 20 6 20-5 0-8-9-12-16-7m-660 9c-8 4-6 16 4 18 6 1 15-8 12-13-3-6-11-8-16-5m90 0c-11 7-8 17 4 18 11 1 16-8 8-16q-7-7-12-2m89 0q-7 5-3 13a10 10 0 1 0 3-13m90 1q-8 7-2 13c4 6 13 6 18 0 8-10-7-21-16-13m91 1q-7 4-4 12c3 8 19 6 21-3 2-8-9-14-17-9m88 0c-8 6-4 18 6 18 8 0 14-10 10-15q-7-7-16-3m91 0c-4 1-6 7-5 10a10 10 0 1 0 5-10m94-1q-11 3-9 11c2 9 15 12 21 4 5-8-2-17-12-15m88 2c-3 0-6 8-6 11q2 6 8 8l2 4v-18q0-8-4-5M2 165l-1 10q-1 15 8 8 8-4 6-12c-3-5-11-9-13-6m88 3q-7 4-7 10c2 7 10 11 15 8 13-6 5-23-8-18m85 2q-6 6-1 11c9 12 25 4 18-9q-6-9-17-2m94 0q-7 3-6 8c2 13 21 12 21-1 0-7-9-11-15-7m180 1c-6 2-6 12-1 16 3 2 11 2 14-1 10-9-2-22-13-15m89 0c-9 5-7 15 2 18q12 2 14-10c0-7-10-12-16-8m93-1q-7 2-8 9c0 11 18 12 21 1 1-6-7-12-13-10m-271 1q-9 5-2 14 6 6 11 2c13-6 4-21-9-16m358 3q-7 5-4 11c4 9 20 7 20-3 0-8-9-13-16-8M24 185c-6 6-2 15 6 17 8 1 16-8 12-15-3-6-13-7-18-2m95-2q-7 2-8 10c0 9 14 14 20 6a12 12 0 0 0 0-12c0-3-7-5-12-4m30 0c-10 4-6 19 5 19 13 0 14-19 1-20zm-93 4q-4 4-3 6c3 11 18 13 21 2 2-9-11-15-18-8m149 0c-8 7 1 19 11 16q7-1 7-10c0-8-11-12-18-6m33-2c-8 4-7 16 2 18a10 10 0 1 0-2-18m63 0a9 9 0 0 0 2 19 9 9 0 0 0 7-17c-4-3-4-3-9-2m25 2c-9 7 2 20 13 15q9-6 3-16c-2-3-11-3-16 1m62-2a11 11 0 1 0 11 0zm90 1q-10 6-1 15 7 6 13 0c8-9-2-21-12-15m-61 0c-5 2-5 10 0 15q8 5 15-1c8-8-3-19-15-14m90 1c-6 3-6 11-1 16q11 6 17-5c3-8-7-16-16-11m93-1c-8 2-9 13-2 16 10 5 21-5 13-13q-4-4-11-3m-35 2c-5 3-5 11 1 15 8 6 21-3 16-12-2-5-12-7-17-3m93 0a9 9 0 0 0 6 17 9 9 0 0 0 2-18q-4-2-8 1m31-1c-2 1-7 7-7 9s5 8 7 9c8 4 18-5 15-12q-5-8-15-6m62 2q-12 6-2 16 5 5 9 1c13-6 6-22-7-17M0 205q-1 15 8 10a9 9 0 0 0 0-18c-8-2-8-2-8 8m86-6q-5 5-2 12c4 8 15 8 20 0 4-10-9-19-18-12m90 0c-6 6-1 17 8 18s15-11 8-18c-4-3-12-3-16 0m95 0c-8 2-8 11-1 16s17-2 15-11c-1-4-9-7-14-5m179 0a10 10 0 1 0 14 5c-2-4-10-7-14-5m-93 4q-7 9 4 14c7 4 17-3 14-10s-14-9-18-4m180-1q-9 6-2 13 8 7 16 1c7-8-5-21-14-14m91-1c-5 2-7 10-3 14 7 7 19 4 19-5 0-7-9-12-16-9m91 2q-8 6-2 13c7 8 21 2 18-8q-6-10-16-5m-677 9c-8 6-3 18 8 18q9-1 10-9c0-7-11-13-18-9m90 2c-10 6-3 20 8 18q14-5 5-17-6-6-13-1m92-1q-10 6-3 15 8 7 16 0c8-8-2-20-13-15m89 3c-9 9 3 22 14 15q9-7 1-14-7-6-15-1m178 0c-6 5-2 17 6 17 11 0 15-13 6-18q-6-2-12 1m-87 1c-7 6-3 17 6 17 10 0 15-13 7-18-3-2-10-1-13 1m179 0a9 9 0 0 0 10 16q9-6 1-15-6-5-11-1m91 0c-7 3-8 11-3 16q8 4 16-2c6-8-3-19-13-14m91 3c-7 4-6 14 3 16 2 1 2 1 1-9v-10zm-751 8c-9 6-4 19 6 18 7-1 13-9 10-14q-6-8-16-4m61 0q-10 4-5 13c4 11 21 6 19-6-1-5-10-9-14-7m28 3q-6 5-4 10c4 8 13 9 18 3 9-9-5-21-14-13m87 0q-7 9 4 15 12 3 14-8c0-9-12-14-18-7m63-2a10 10 0 1 0 17 10c2-6-9-13-17-10m95 0a9 9 0 0 0 2 18 9 9 0 0 0 4-18zm29 0c-3 0-8 5-8 7q1 6 5 10c3 2 12 1 15-2 6-8-3-18-12-15m91 0c-4 0-8 6-8 9 0 10 13 15 19 7 7-8-1-18-11-16m-308 3c-9 7 3 20 13 14q6-4 5-10c-3-7-12-10-18-4m123 0q-5 5-1 10c3 7 14 7 18 0 5-10-9-18-17-10m153-2q-11 7-4 15c4 5 15 5 18-1 5-8-6-19-14-14m88 0a10 10 0 1 0 8 18 10 10 0 0 0-8-18m29 1q-11 8-2 17c8 7 21-1 17-11q-5-8-15-6m59 2q-9 9 1 16a10 10 0 1 0-1-16m31-1q-9 6-3 14c4 4 12 4 16 0 6-8-4-19-13-14m61 2q-6 3-4 10c4 10 20 7 20-3 0-7-9-11-16-7m33-1a9 9 0 0 0 3 18c9 0 13-9 6-16q-3-4-9-2m-691 9q-11 8-4 15c10 10 25-3 15-13q-6-5-11-2m91 0a9 9 0 0 0-4 17q6 6 13 1c10-7 2-21-9-18m89 1q-7 3-9 8 1 9 10 11c3 1 11-2 12-4 5-7-5-17-13-15m89 2q-10 8-1 16a10 10 0 1 0 1-16m180 0c-6 2-8 10-3 15 4 4 12 4 15 0 6-7-2-18-12-15m-90 1q-5 3-6 9c0 3 5 9 7 9 4 0 11-2 13-4 5-8-5-18-14-14m177 1q-5 8 0 14c5 4 13 3 16-2 6-9-7-19-16-12m93 1q-10 6-3 14c8 8 20 0 16-10-1-4-9-6-13-4m88 3c-5 4-2 12 4 14q2 1 2 5l1-4q1-25-7-15M3 256c-3 1-2 18 1 19q6 0 10-4c6-7-2-18-11-15m84 2c-8 8-1 20 10 17a9 9 0 0 0 1-18q-6-4-11 1m94-1c-10 2-10 14 0 19 7 3 15-3 14-11q-3-10-14-8m84 5c-6 7 3 18 13 15q10-4 3-15c-4-3-12-3-16 0m93 0c-7 6-3 15 7 15a9 9 0 0 0 6-16c-3-2-11-1-13 1m94-1c-2 0-7 5-7 7 0 10 10 14 17 7 7-6 1-16-10-14m83 2q-5 6 1 11c7 7 18 3 18-5 0-9-14-13-19-6m95-1q-12 6-4 15c9 8 25-3 17-12q-7-7-13-3m91 0a9 9 0 0 0 2 19c8 1 14-8 10-14l-8-6zm-692 9c-10 6-2 22 9 18 8-2 10-10 6-16-3-3-11-4-15-2m33 2c-11 3-12 16-1 19 12 4 19-11 9-18-4-2-4-2-8-1m58 0c-9 3-10 12-4 18 7 6 20-3 17-11q-5-9-13-7m118 1c-11 6-1 21 10 17q11-5 2-15-7-6-12-2m-28 0c-10 4-9 16 2 19 10 1 17-11 9-17-2-2-9-3-11-2m87 1q-6 6 0 13c6 7 17 3 17-7q0-8-10-8zm-148 1a9 9 0 0 0 4 18 9 9 0 0 0 8-16c-5-5-6-5-12-2m179 1q-7 6-1 13c8 7 22 1 19-8-1-8-12-11-18-5m92 0q-10 9 1 17c10 3 20-8 13-15q-7-6-14-2m147 0c-10 6-2 22 9 17 10-4 9-15-1-18-4-1-4-1-8 1m-176 1a9 9 0 0 0 10 15q7-4 6-9c-1-7-10-10-16-6m90-1a9 9 0 1 0 11 14c7-7-2-18-11-14m28 0q-10 5-3 14 5 5 12 1c11-5 2-19-9-15m90 1q-10 6-3 14c7 7 20 1 18-7-2-5-10-9-15-7m60 1c-8 4-5 17 4 17q7 0 10-5c5-8-5-17-14-12m30 0q-10 7-1 15 6 6 12 1c10-9 1-22-11-16m59 0c-7 6-2 16 7 16 4 0 10-6 10-9 0-8-11-12-17-7M0 295q-1 15 9 8c12-5 9-17-3-17H0zm270-8q-10 4-6 13c3 8 13 8 19 1 5-6-5-17-13-14m-183 3c-10 10 5 22 15 12q6-4 0-12-8-6-15 0m90-1c-7 5-4 16 6 17 5 0 5 0 8-3 9-9-3-21-14-14m183-1c-5 2-7 9-4 13 7 10 20 8 20-3q-1-13-16-10m89 4q-10 6-3 13 10 8 17-1c5-9-6-18-14-12m89 0q-8 9 1 14c10 6 20-6 12-13q-6-6-13-1m93-1q-6 2-7 9c0 9 13 12 19 4 5-6-5-16-12-13m86 2c-6 5-3 14 5 15 10 2 16-7 9-15q-7-6-14 0m-671 9a9 9 0 0 0 5 18q8 0 9-5 2-8-4-12-5-2-10-1m86 3c-9 9 5 21 15 12q6-4 0-11-7-7-15-1m89 1q-5 4-1 10c4 9 19 7 19-2 1-10-11-15-18-8m91-1c-6 7 2 18 11 16 7-2 9-10 4-15-3-4-11-4-15-1m91 1c-8 7-1 20 9 17a12 12 0 0 0 9-10c1-7-12-12-18-7m93-1q-11 6-3 15a9 9 0 1 0 3-15m88 1a10 10 0 1 0 13 2c-2-3-9-4-13-2m88 2q-9 8 1 15 7 4 13-2c8-8-4-19-14-13m93 0q-9 6-2 14l4 3 2 1v-19zm-749 9c-11 5-7 17 5 17 8 0 13-10 8-15q-6-5-13-2m86 3q-5 5-3 10c4 8 19 6 20-2 2-9-11-15-17-8m181 0q-7 8-1 14c11 9 24-5 14-15q-6-5-13 1m65-2c-3 0-8 6-8 9 0 10 19 12 21 3q0-14-13-12m30 0q-10 4-6 12c3 8 14 7 18 0 3-6-5-14-12-12m60 0a9 9 0 0 0-3 16c11 8 22-5 12-13q-6-5-9-3m27 1c-7 5-8 14-2 18 11 7 23-10 13-17q-5-4-11-1m-393 2c-9 9 5 22 15 13 7-6 2-16-7-16q-5 0-8 3m94-2q-10 6-4 15a10 10 0 1 0 4-15m30 0a9 9 0 0 0 0 18q12 2 12-9-1-12-12-9m59 0q-11 5-4 14c8 8 22-1 17-10-1-3-9-5-13-4m299 2c-8 4-8 13 1 17q6 3 11-3c7-7-2-18-12-14m91 2a9 9 0 0 0 4 17q9-1 11-9c0-6-9-11-15-8m-121 0c-1 3-5 11-4 13 2 7 19 3 19-5 0-6-11-12-15-8m93 0-2 1c-6 0-8 9-3 13 9 9 23-2 14-11-2-3-9-5-9-3m87 0q-9 6-2 14c9 8 23-4 15-12q-6-3-13-2m33 0c-6 1-8 10-4 15 5 4 15 1 16-6 2-5-4-11-12-9m-514 10q-10 6-1 15c9 8 22-2 14-12q-4-7-13-3m182 0c-8 5-6 15 2 18a10 10 0 1 0-2-18m-273 2q-5 4-3 9c3 10 17 9 20 0s-9-16-17-9m182 0c-6 6-2 16 7 16a10 10 0 1 0-7-16m-268-1a9 9 0 0 0 4 17q9-1 11-7c0-8-8-13-15-10m448 2c-5 3-7 11-3 14 5 5 15 5 18-1 4-9-6-17-15-13m179 1c-5 4-6 12-1 15 3 3 11 2 14-1 4-4 2-12-4-14-5-2-5-2-9 0m-89 0q-7 6-3 14 9 9 17-2c5-8-5-16-14-12m181 2q-7 6 0 13 4 4 4 8l1-4-2-19zM1 345v11q0 11 3 9c5 1 15-12 12-16-2-3-14-6-15-4m89 3c-13 7-6 23 9 18 8-3 8-14-1-19-4-1-4-1-8 1m87 0c-6 5-5 13 2 16q8 4 13-2c8-9-5-21-15-14m94-1q-12 3-5 14c8 10 24 1 17-10-1-2-7-5-8-5zm89 2c-8 5-7 15 3 17q7 1 11-3c8-9-4-20-14-14m89 2a10 10 0 1 0 11 16 10 10 0 0 0-11-16m182 0a9 9 0 0 0-4 16c9 7 22-2 16-11-1-2-8-6-9-6zm90 0c-9 4-8 15 1 18 6 2 13-3 13-9a12 12 0 0 0-10-9zm-180 1c-2 0-7 5-7 8 0 7 7 11 13 9a9 9 0 0 0 1-17zM31 362c-3 1-8 7-8 9q1 6 7 9t13-2c8-8-2-21-12-16m206 1c-8 5-3 17 6 17q10 0 11-8c0-8-9-13-17-9m-176 0a9 9 0 0 0 0 17 9 9 0 1 0 4-17zm86 1-4 4c-3 10 10 17 17 10 10-9-1-21-13-14m60 0c-7 3-8 11-1 16q6 3 13-1c11-8 0-21-12-15m94-1a9 9 0 1 0 13 6c-1-5-8-8-13-6m117 1q-6 5-3 13c5 8 17 8 20-1 5-9-9-18-17-12m-303 2c-7 7 3 19 12 14q12-5 4-13-9-8-16-1m212-1c-6 7-2 16 7 17 12 0 17-9 8-17-3-3-12-3-15 0m62-1c-8 5-8 16 1 18q15 3 15-11c0-6-11-10-16-7m90 4q-6 6-1 11c5 6 13 3 13-5 0-7-7-10-12-6m29 0q-9 6-1 13c7 7 18 1 16-8-2-6-10-9-15-5m58 0c-7 6-3 16 6 17 11 1 16-9 9-16-3-4-12-4-15-1m31 1a9 9 0 1 0 16 4c-3-7-11-9-16-4m90 0q-4 4-2 7a9 9 0 0 0 17 3c6-9-7-18-15-10m-29-1-3 3c-6 9 5 18 15 12s-1-19-12-15m89 2c-8 9 4 21 14 14q9-9-1-15-7-4-13 1m-567 5q-7 3-9 9c0 8 9 13 17 10 9-5 3-21-8-19M1 376l-1 9v9h4c10 0 15-10 8-17-2-2-10-3-11-1m358 0c-11 7-5 22 8 20q8-3 9-10c0-8-10-13-17-10m-89 1c-11 5-7 20 5 20s14-15 3-20zm180 0c-6 3-8 12-3 16 9 9 24 0 19-11-2-5-10-7-16-5m-361 2q-10 5-4 14 8 8 17-1c7-8-3-19-13-13m540 1c-10 4-7 19 3 19q8-1 11-6c3-7-7-16-14-13m-91 3c-8 5-3 16 6 16q9 0 9-8c0-9-8-13-15-8m185 0q-7 3-8 8c0 11 16 14 20 3 3-6-5-13-12-11m-678 8c-9 4-8 14 1 17a10 10 0 1 0 6-18h-3q-2-1-4 1m87 2q-7 5-2 11 8 9 17 1c10-9-6-21-15-12m185-1a9 9 0 0 0-6 15q7 6 15-1l4-6c0-5-7-9-13-8m-94 1q-7 4-3 12 6 8 15 2c9-7-3-19-12-14m183 0a9 9 0 0 0 3 18 9 9 0 0 0 5-18zm89 0c-11 2-7 20 4 19 5-1 11-7 11-9l-1-4c-1-3-8-7-11-7zm90 2q-4 3-6 8c0 9 14 13 18 6 5-8-3-18-12-14m90 1a9 9 0 0 0 5 18c9 0 12-9 6-16q-5-5-11-2m89 1c-8 3-6 14 2 17l3 1v-10q1-12-5-8m-751 9q-5 2-5 9c0 10 15 12 20 3s-7-18-15-12m62 0c-2 0-7 5-7 8 0 7 8 12 15 10 13-4 6-21-8-18m90 0c-7 1-10 8-6 13q9 11 17 0 4-8-6-13zm29 0a8 8 0 0 0-2 16c10 7 22-7 12-14q-5-4-10-2m91 0q-7 3-8 10c0 6 10 10 16 7 10-6 4-20-8-17m-182 1q-6 4-4 11a10 10 0 1 0 4-11m150 1q-10 6-1 14 5 6 12 1c11-7 1-22-11-15m91-1q-4 3-6 8a11 11 0 0 0 9 9c1 2 7 1 10-2 8-7-2-19-13-15m29 2q-7 7-1 13c5 6 19 2 19-5 0-10-11-14-18-8m91-1c-3 1-5 7-4 10a10 10 0 1 0 4-11m-31 3q-4 3-4 6c0 9 13 14 19 6 8-10-6-20-15-12m89 2c-9 5-2 17 8 15q11-3 8-13-6-9-16-2m29 0a10 10 0 1 0 14 0q-7-6-14 0m183-1c-10 5-6 17 6 17 9 0 12-8 6-14q-5-7-12-3m-122 1c-6 6-3 16 6 16 2 0 8-4 9-6 3-8-9-15-15-10m32-1q-8 4-5 12c6 7 17 6 20-2 1-6-8-13-15-10m62 0c-7 2-8 10-3 15 6 6 17 2 17-6 0-7-8-12-14-9m-394 10q-9 6-3 13 8 6 17-1c4-4 1-11-7-13q-4-2-7 1m-264 0q-7 2-8 9c0 6 9 11 15 9q12-8 1-17-2-3-8-1m86 0q-5 3-6 9c0 9 10 13 17 6 8-7-1-19-11-15m90 0c-7 3-7 13 0 16 10 6 18-3 13-12q-3-7-13-4m181 3c-9 4-5 16 5 16a9 9 0 0 0 3-17c-4-1-4-1-8 1m89 0c-4 2-6 9-5 12 4 9 21 7 21-2 0-8-9-13-16-10m89 2c-5 2-7 9-2 13q10 8 16-2c4-7-5-15-14-11m90 2c-8 7-4 15 6 15q15 0 9-13-7-9-15-2m88 1c-5 6-2 13 6 13q2 0 2 4 1 5 1-3 0-18-4-17-3 0-5 3m-584 5q-9 7 0 15 5 3 11 1c7-4 6-12-2-16-5-2-5-2-9 0M1 442v9h3a9 9 0 0 0 1-18H1zm87-7c-9 4-5 16 6 16q9-1 11-8c0-7-10-12-17-8m270 0c-9 5-7 15 4 17 9 1 14-7 9-14q-6-5-13-3m-92 3c-6 6-2 14 8 14q9-1 9-9c-1-8-12-11-17-5m182-1c-7 7-3 17 7 17 9 0 14-11 7-16-4-4-12-4-14-1m87 3q-6 6 0 12c6 5 17 1 17-6a8 8 0 0 0-8-8q-3-3-9 2m93 0q-4 6 0 12c3 3 10 3 13-1 6-8-6-18-13-11m90 2q-8 6 1 12 8 5 12-1c7-7-4-17-13-11m-691 5q-8 5-3 12 5 9 12 5 13-5 4-15-6-7-13-2m89 1q-6 6-2 11c5 7 15 7 18-1 5-9-8-17-16-10m-59 1c-8 7 2 20 11 15 8-4 8-13 1-16q-7-4-12 1m89-1c-10 6-1 20 10 16q6-3 7-10c0-7-10-10-17-6m60 1q-7 3-4 11c3 7 16 9 20 2 6-9-6-19-16-13m34 0a8 8 0 0 0-4 15 10 10 0 1 0 4-15m92-1c-6 1-10 9-7 14 5 9 20 4 20-5a10 10 0 0 0-13-9m-36 3c-7 7 0 19 10 16q6-4 8-9c0-8-12-13-18-7m93-1q-6 5-4 12c5 9 17 8 21 0s-7-16-17-12m29 1q-8 6-3 14c7 6 17 4 20-4 1-8-10-15-17-10m60 1c-8 4-5 17 5 17q9 0 8-9-1-13-13-8m89-1q-11 4-5 14c8 9 24 0 17-10q-3-5-8-5zm27 1c-9 7-4 18 7 17q7-1 9-9c2-7-10-13-16-8m-91 2c-8 8 1 19 11 15 11-5 8-18-3-18q-6 0-8 3m154-2q-7 3-6 10c0 8 15 10 19 3 4-8-4-17-13-13m29 0q-5 3-5 10c1 8 12 11 18 5 6-8-3-19-13-15m60 2c-8 5-3 17 6 16q7-1 9-6c3-8-7-16-15-10m-658 7c-8 6-5 16 6 16a9 9 0 0 0 3-18c-5-1-5-1-9 2m90 0q-12 7-1 16c11 7 21-4 13-14q-5-7-12-2M0 471q-2 15 7 9c12-5 10-19-3-19H0zm265-7q-7 7 3 14 7 3 12-2c9-10-5-21-15-12m95-1a9 9 0 0 0-3 15q8 5 14-1c7-6 0-17-11-14m87 4q-7 7 0 13t15-1c8-10-6-20-15-12m87-1c-8 5-4 17 7 17q4 0 7-3c8-8-4-20-14-14m91 1c-9 5-5 17 6 16 8-1 12-10 6-15q-5-5-12-1m92-1c-5 2-7 9-3 13 6 7 19 2 17-7q-3-9-14-6M44 476c-8 7-3 17 7 17q6 0 8-4c8-8-7-20-15-13m86 2q-7 7-1 13a10 10 0 1 0 1-13m89 0q-8 7 1 14 9 5 15-1c9-10-6-22-16-13m96-1q-10 6-3 15c5 5 14 4 17-3 5-7-5-15-14-12m89 1c-11 4-7 19 4 19q9-1 11-9c0-8-8-13-15-10m265 3q-9 7 0 15 8 6 15-2c6-9-6-19-15-13m-179 1c-7 5-3 15 6 16 10 1 14-9 7-16q-6-4-13 0m273-1c-8 3-8 14 1 17 5 3 5 3 5-8s0-11-6-9m-185 2q-8 7 1 14t16-3c4-9-10-18-17-11m-568 8c-9 8 3 22 13 15q6-3 5-8c0-9-11-13-18-7m66-1q-7 3-7 10 0 5 3 6l3 2c3 2 10 0 13-4q6-7-4-14zm26 1q-5 6-3 13c5 8 20 5 20-5 0-8-11-13-17-8m58 1c-7 5-2 16 8 16 3 0 9-6 9-9 0-8-11-13-17-7m29 1q-6 5-1 11c5 9 20 6 20-4s-12-13-19-7m65-2q-12 5-5 15c6 7 17 4 20-5 1-6-8-13-15-10m29 1a9 9 0 0 0 7 17 9 9 0 0 0 3-18q-5-2-10 1m60 0c-4 2-6 9-3 13q8 8 17 1c7-8-3-18-14-14m31 0c-9 5-6 16 5 18q9-1 11-9c0-7-10-12-16-9m55 3a10 10 0 1 0 15 12q9-7 0-13-8-5-15 1m32 0c-6 7-2 16 7 16q11-1 11-10c-2-8-12-11-18-6m147 2c-8 8 3 19 14 13q8-7-1-14-8-5-13 1m31 0c-8 6-3 15 8 15 6 0 6 0 8-4 6-9-7-19-16-11m96-2q-9 3-7 11 1 7 9 6c10 0 14-7 8-13q-4-6-10-4m-215 3c-7 6-4 14 7 14q14 1 8-11-5-10-15-3m32-2q-9 5-4 14c3 3 15 3 18-1 6-8-4-17-14-13m146 2q-6 6-1 11c3 4 14 4 18 1q3-6-1-13c-4-3-13-3-16 1m-566 5q-5 3-6 8l11 1h11l-1-3q-5-9-15-6m-86 2q-6 4-6 6l11 1h11l-1-3q-6-8-15-4m177 1q-4 2-6 5l10 1q12 0 8-4c-2-2-9-4-12-2m177 3-3 3h10q15 1 7-3-6-6-14 0m-87 0-3 3h18l-2-2c-3-3-10-4-13-1m267 0q-6 3 6 3h8l-3-2q-4-3-11-1"
        mask="url(#16282281824-posters-1720559948599-radial-mask)" itemprop="regular" fill-opacity="0.90"
        fill-rule="evenodd" stroke="none" fill="url(#16282281824-posters-1720559948599-horizontal-regular)"></path>
      <!---->
      <path id="16282281824-posters-1720559948599-medium"
        d="M0 3c1 4 8 4 12 0q7-4-5-3H0zm89-2q5 5 11 2 8-3-4-3-10 0-7 1m87 0c0 5 11 6 16 2l2-3h-9zm90 1c3 6 14 6 18 0l1-2h-10c-10 0-10 0-9 2m90-1c2 5 11 7 15 4q8-5-6-5zm92 1c0 8 15 9 19 1l1-3h-10q-12 0-10 2m88 0q2 8 11 9 9-1 10-8V0h-10c-10 0-11 0-11 2m90 0q1 6 7 9 9 2 14-8V0h-10c-10 0-11 0-11 2m90 1c2 10 18 10 20 0V0h-20zM211 2q-5 1-7 5a9 9 0 0 0 17 9c5-8 0-16-10-14M28 6q-5 4-1 9 6 9 16 1c9-9-5-19-15-10m31 0q-6 5 0 12c6 5 18 2 18-5C77 3 66-1 59 6m91-3c-10 5-7 19 5 19 4 0 10-6 10-9q0-6-6-9c-5-2-5-2-9-1m180 2c-9 5-4 17 6 16q14-2 8-15-5-8-14-1m-91 0q-6 4-3 10c6 11 24 5 19-6-2-6-10-8-16-4M120 5c-7 4-7 12 0 15a9 9 0 1 0 0-15m182 0q-6 3-6 8c0 9 14 12 18 4 4-7-4-15-12-12m88 0q-9 6-2 15c9 9 23-3 14-12q-4-6-12-3m30 2q-7 5-1 14a10 10 0 1 0 1-14m60 2a9 9 0 1 0 14 13 9 9 0 0 0-14-13m34 0a9 9 0 0 0-1 18 9 9 0 0 0 9-16c-4-3-4-3-8-2m145 1a10 10 0 1 0 14 0c-3-3-11-3-14 0m33-1q-6 4-5 11c5 9 19 7 19-3q-2-11-14-8m58 2q-8 7 1 13a9 9 0 1 0-1-13m-147-1q-10 6-4 13c6 7 18 3 18-6 0-5-8-10-14-7m-34 4q-5 4-1 9c4 9 18 6 18-3s-11-12-17-6M90 16q-10 7-1 15 7 5 14-1c7-7-4-18-13-14M0 25v9h4a9 9 0 0 0 1-18H0zm183-8c-3 0-9 6-9 9l2 4c4 9 18 6 18-5 0-3-6-9-8-9zm269 2q-10 10-1 18c10 7 20-7 12-16-5-5-6-5-11-2m-184 1c-11 6 1 20 11 14 5-2 6-10 3-13-2-1-13-2-14-1m93 0q-4 1-4 9c-1 10 14 11 19 2 3-8-6-14-15-11m179 4c-3 2-4 9-2 12q7 8 15 0c8-8-4-19-13-12m92 0c-8 4-6 16 3 16q7 1 9-3c8-7-2-19-12-13m87 2a9 9 0 1 0 11-2q-5-3-11 2m-492 5c-11 6-9 20 3 20q13-1 9-13l-3-6q-2-6-9-1M46 32q-7 9 2 15c8 5 19-6 13-14-3-4-12-4-15-1m88 1c-8 6-3 17 7 17 4 0 10-5 10-9 0-8-10-13-17-8m270 4q-6 7 1 13c6 6 17 2 17-6 0-9-12-13-18-7m-92 0c-7 8 6 20 14 13q7-7-1-14c-3-2-10-1-13 1m186 2c-9 4-5 16 5 15a8 8 0 0 0 4-15q-4-3-9 0m91-1q-13 9-1 17 9 3 13-4c5-7-5-17-12-13m89 0a9 9 0 0 0 1 18q8 3 12-8c2-6-7-13-13-10m88 1c-5 2-7 10-2 15q7 9 5-8 0-9-3-7M73 49q-4 3-3 6c2 9 12 12 18 6 8-10-6-21-15-12m32-2c-8 4-8 14 2 17 9 2 17-9 11-15q-6-6-13-2m58-1c-9 5-5 17 6 17q5 1 7-3c7-8-2-18-13-14M15 48c-7 3-8 12-1 16 5 2 14-1 16-6 2-8-7-14-15-10m180-1c-9 5-7 14 2 17q13 1 11-11-4-10-13-6m58 2c-7 7-3 15 7 15a9 9 0 0 0 5-16q-7-5-12 1m126-1q-9 3-7 12c3 7 11 9 16 4 8-8 2-18-9-16m88 0c-11 5-5 22 7 19a10 10 0 1 0-7-19m-184 2q-4 2-4 7c0 9 11 12 17 6q6-5 2-10-6-8-15-3m61 0q-5 7 1 13c5 6 17 2 17-6s-12-12-18-7m91 0a10 10 0 1 0 15 12c6-9-5-18-15-12m124 2a8 8 0 0 0-4 15q5 6 12 2c10-5 4-20-8-17m59 0q-11 6-4 13 10 8 15-1 6-6-4-11-3-3-7-1m28 1c-8 4-6 15 3 17 11 1 17-9 10-16q-6-5-13-1m-117 0q-10 3-6 12c5 10 19 7 18-4q-1-10-12-8m178 1a9 9 0 0 0 6 16q12-3 8-12-4-8-14-4m28 2a9 9 0 1 0 13 12 9 9 0 0 0-13-12M46 60a10 10 0 1 0 10 17 10 10 0 0 0-10-17m179 2c-9 4-6 18 4 18 6 0 13-10 10-13l-2-3c0-2-8-4-12-2m-89 0q-5 2-6 9a10 10 0 1 0 6-9m179 1q-8 5-5 12c5 8 17 7 20-1 3-9-6-14-15-11m89 3q-6 7 0 13a10 10 0 1 0 0-13m94 2c-3 1-6 7-5 9a9 9 0 1 0 5-9m178 1q-6 4-4 9 6 11 16 4c9-7-3-20-12-13m89 0q-8 8 1 15 3 1 3 5 1 4 1-3l-2-19zm-180 1q-4 2-3 6c0 9 10 12 16 6 8-8-3-18-13-12M1 85c0 10 0 10 6 9a9 9 0 0 0 1-17q-9-6-7 8m87-7c-4 3-4 10 0 13q10 7 16-4c3-8-9-15-16-9m88 1q-7 6 2 13 10 6 15-5c3-8-10-15-17-8m93 0c-8 5-5 15 5 17q3 1 7-3c8-8-2-20-12-14m182 2c-7 3-7 11-1 15 8 4 16 0 16-8 0-7-9-11-15-7m-93 2c-4 4-1 12 6 13 9 2 15-8 8-14-3-3-11-3-14 1m183 0q-8 5-3 14c7 7 18 3 18-7 0-6-8-10-15-7m88 2q-5 5-1 11 7 8 16 0c7-9-6-19-15-11m91-1c-7 6-2 17 8 17q7-1 8-9c0-8-10-13-16-8M29 92q-7 9 0 16c5 4 16-2 16-9a11 11 0 0 0-16-7m117 2a9 9 0 0 0 10 16c11-5 9-17-2-18q-4-1-8 2m274-1c-8 3-8 14 1 17 12 6 20-6 10-15q-4-5-11-2M56 95c-6 6-1 16 7 16 6 0 12-6 11-10-2-8-11-11-18-6m60 1q-5 4-1 10c5 10 21 4 18-7-2-6-12-8-17-3m94-2-7 7c0 8 13 13 18 6 7-7-1-17-11-13m31 0q-13 7-3 15c9 8 21-4 14-13q-5-4-11-2m59 1q-8 3-4 10a9 9 0 1 0 4-11m32 0a9 9 0 0 0-4 15c4 3 4 3 9 2 13-4 9-19-5-17m58 2q-9 6-2 13c10 8 24-3 15-12q-6-6-13-1m89 2q-7 8 3 14 6 4 10-1c9-9-4-21-13-13m273 1c-8 3-6 15 4 17 10 1 14-15 5-17l-4-1q-2-1-5 1m-149 0q-9 3-7 11a9 9 0 1 0 7-11m58 0c-5 2-6 11-2 14 11 7 23-4 14-12-2-2-9-3-12-2m-152 3q-7 6 0 13c9 8 22-3 14-12q-7-7-14-1m60-1a9 9 0 1 0 12 14 9 9 0 0 0-12-14m122 0c-6 3-5 12 2 15q7 2 12-2c8-8-4-19-14-13m-605 7q-6 4-1 11c5 8 18 4 18-5s-10-13-17-6m90 0c-6 5-4 14 4 17 5 1 14-5 14-10 0-8-12-13-18-7M0 115v9h5a9 9 0 0 0 0-18H0zm269-7c-8 3-8 12 1 17a10 10 0 1 0-1-17m92 1q-7 5-5 12c6 11 23 4 18-8-1-4-8-6-13-4m89 2c-7 7-2 19 7 17q8-3 9-9c0-8-11-13-16-8m93 2q-9 6-3 14 10 8 16-3c1-3-2-11-4-11h-3l-3-1zm177 0q-8 6-2 13c5 6 16 5 17-3 2-8-8-14-15-10m-90 1c-9 6-1 20 9 16 7-3 9-11 4-15q-6-6-13-1m-585 5c-7 3-8 12-2 18 7 6 17 3 19-5s-8-16-17-13m89 1c-9 3-9 13 0 18q8 4 12-2c7-9-1-19-12-16m88 4c-9 4-7 15 4 17 8 1 15-6 12-13-2-5-11-7-16-4m90 0q-7 6-1 13c6 7 18 3 18-5 1-8-11-13-17-8m94 1c-9 5-5 18 6 18q8 1 9-5c5-9-6-17-15-13m183 2a9 9 0 0 0 3 18c3 0 9-5 9-8 0-6-7-12-12-10m87 0q-6 4-6 11c2 10 16 11 20 2 3-9-4-16-14-13m-179 1q-10 5-3 14c7 7 18 3 18-6q-1-11-15-8m268 0c-6 2-6 12-1 15l5 3q1 2 1-3l-1-10q1-8-4-5M73 138c-8 4-7 16 2 18 11 3 18-9 9-16q-5-5-11-2m-58 0c-7 4-3 18 7 18 8 0 12-10 6-16q-5-5-13-2m151 1c-12 3-11 15 0 19q8 3 13-8c3-6-5-13-13-11m25 2c-9 9 4 21 15 13q3-2 3-6c0-9-11-14-18-7m93-2q-10 7-3 15c9 8 22-1 16-12q-3-6-13-3m-182 2c-8 6-4 16 7 16 9 0 13-9 7-15-3-3-11-4-14-1m239 1c-5 5-3 13 4 16q7 2 13-4c7-9-9-21-17-12m37-2a9 9 0 0 0-4 15c10 8 23-5 14-13q-3-4-10-2m90 0a9 9 0 0 0-4 17c9 7 22-5 14-14q-4-4-10-3m-216 2q-4 1-4 6c-1 13 19 15 21 2 1-8-8-13-17-8m271-1q-9 5-4 13c6 10 23 2 18-9q-6-8-14-4m123 0a9 9 0 0 0-5 15c7 7 22-2 17-11l-9-5zm-208 1q-7 2-7 8c0 8 8 12 16 7 9-6 2-18-9-15m113 2q-7 9 3 15 7 2 12-3c7-9-7-21-15-12m60 1q-6 5 0 11c6 7 17 4 17-5 0-8-12-12-17-6m123-1c-7 3-7 13 0 16q13 4 15-6c2-8-7-14-15-10m-26 0a9 9 0 0 0-5 15c7 7 19 0 16-10q-3-6-8-6zM43 155c-6 5-4 14 5 16q6 0 11-6c4-9-9-16-16-10m89 1q-7 6-1 13c7 6 18 2 18-6q-1-9-10-10-4 0-7 3m90 0c-7 5-2 15 8 15 9 0 13-10 6-16q-6-5-14 1m92-1q-7 4-4 11c3 7 13 8 18 2 8-8-4-20-14-13m94 0a9 9 0 0 0-4 17c9 4 21-6 16-13q-4-5-12-4m86 0c-8 3-8 14 1 18q7 3 12-4c6-8-4-18-13-14m87 2q-6 7 1 15c5 6 17 0 17-8 0-7-12-12-18-7m95-1a9 9 0 0 0 3 18 9 9 0 1 0-3-18m90 1q-5 3-6 10c0 3 4 9 7 9q2 0 2 4l1-4-2-20zM1 175v9h4a9 9 0 0 0-1-19H1zm86-4c-7 8 1 19 12 15q7-5 5-11-6-12-17-4m89-1c-6 6-1 16 9 16q13-2 7-14c-3-5-12-6-16-2m91 2c-9 7 1 18 12 14q7-5 3-12-6-9-15-2m180 1q-5 5 1 12c8 8 21-1 17-10-4-6-13-7-18-2m91-2c-9 4-5 18 5 18q9-1 11-10c0-6-9-11-16-8m90 0c-6 3-6 12 1 15q9 5 13-4c5-7-6-14-14-11m-270 3c-3 3-3 3-2 8 4 9 19 7 19-3 0-8-12-11-17-5m359 2q-5 5-1 11c3 5 15 3 17-2 4-9-8-16-16-9m-689 7c-9 3-7 16 2 18 9 1 16-9 10-16q-6-3-12-2m89 1q-10 7-3 15c7 7 18 4 18-6q-1-14-15-9m29 2c-8 8 5 20 14 13 4-3 4-12 1-14q-9-5-15 1m63-1q-12 6-3 14 7 7 14 1c8-7-2-19-11-15m32 0a9 9 0 0 0 2 18 10 10 0 0 0 2-19zm89 0q-11 5-4 14c9 9 23-1 16-13-1-1-9-2-12-1m61 0q-6 1-7 6c-4 12 14 18 19 7 4-8-2-15-12-13m-335 2c-4 4-2 12 5 14 9 3 17-7 10-13-3-4-12-4-15-1m241 1q-6 6 0 11c6 7 17 4 17-4 0-9-11-13-17-7m122-2c-7 2-7 12 1 16 11 5 19-8 10-15q-5-4-11-1m57 1c-6 6-1 16 8 16q8 0 8-9c0-8-9-12-16-7m35-1a9 9 0 0 0-5 15c8 8 22-2 15-11-1-2-6-5-7-5zm86 2c-7 5-2 15 6 15q13-1 9-12c-1-5-11-6-15-3m-33 1c-6 6 2 18 11 16 3-1 8-7 8-10 0-7-14-11-19-6m94-1c-3 1-5 7-5 10 3 12 22 7 19-4q-3-8-14-6m31 0q-10 6-3 14c8 9 24-2 16-12-3-3-10-4-13-2m60 2c-7 4-4 15 4 17q6 0 10-5c6-9-3-16-14-12M0 206l1 9 4-1a9 9 0 0 0-1-17H0zm88-7q-7 5-4 11a10 10 0 1 0 4-11m91 0q-7 4-3 13a10 10 0 1 0 3-13m89 3q-7 8 4 14c6 2 13-3 13-9 0-8-12-11-17-5m180 0q-6 6 0 12c7 7 17 2 16-9-2-6-11-8-16-3m-89-1c-10 5-1 20 10 16 4-1 7-7 5-10q-4-9-15-6m179 1c-9 4-5 17 6 16a8 8 0 0 0 2-17q-5-2-8 1m90 0c-6 3-6 12 2 16 9 4 18-7 11-14-2-3-9-3-13-2m90 3c-7 7 1 18 10 14q11-5 4-13-7-7-14-1m-673 7-4 3c-7 8 5 19 15 13 9-6 1-19-11-16m180 1q-6 3-7 8c0 7 9 12 16 9 11-7 4-21-9-17m-91 1a9 9 0 0 0 4 17c9 0 13-8 8-14q-6-5-12-3m181 2c-8 6-5 16 6 16a9 9 0 1 0-6-16m177 0c-9 5-2 19 8 16 8-2 10-11 4-16q-5-5-12 0m-84 0a9 9 0 1 0 12 12q3-13-12-12m176 1a9 9 0 1 0 7 16 9 9 0 0 0-7-16m90 0a9 9 0 0 0 7 17q12-4 5-15-5-5-12-2m93 2c-7 3-8 11-2 16q6 5 4-9 0-9-2-7M14 229c-7 5-4 16 4 16 13 0 17-14 5-17-5-1-5-1-9 1m59 0q-6 5-4 10c4 10 17 10 20 0q0-6-4-10zm34 0c-6 1-10 9-6 14 5 10 23 1 18-9q-5-5-9-6zm85 1c-8 5-3 16 6 16a8 8 0 0 0 4-16q-6-3-10 0m61-1c-6 5-4 14 4 17 10 3 17-9 9-15q-7-4-13-2m-90 1c-8 4-7 12 1 16 4 2 4 2 8 0 11-5 3-21-9-16m123 1q-8 5-3 12c3 4 12 4 15 1 6-7-3-17-12-13m59-1c-10 6-3 18 9 16q6-1 6-8c0-7-8-11-15-8m29 1c-5 2-5 9-1 13 2 3 12 3 15 0 8-7-4-19-14-13m90 1c-7 8-1 18 9 16 9-1 11-12 4-17q-8-5-13 1m-31 1c-8 6 1 19 11 15q7-3 7-8c0-9-11-13-18-7m90-2c-6 2-6 13 0 17 7 3 16-3 14-10q-3-9-14-7m28 3c-8 6 0 19 10 16q12-6 5-16-7-6-15 0m62-1c-8 4-6 15 4 17q4 1 7-3c8-8-1-19-11-14m30-1c-8 4-5 16 5 16a8 8 0 0 0 1-16zm62 1q-8 6-3 13c7 8 22 0 17-9q-5-7-14-4m29 1c-5 2-6 10-1 14q5 6 12 1c10-7 0-19-11-15M44 244q-6 4-4 10c3 7 14 8 18 2 6-8-6-18-14-12m90 0c-9 4-5 17 6 17q9-1 10-8c0-9-8-13-16-9m89 1c-7 3-6 11 0 15 10 6 22-4 15-12q-7-8-15-3m93 0c-8 4-7 14 1 17s17-6 12-14q-5-7-13-3m176 3q-6 6 0 12c10 9 22-3 13-12q-6-6-13 0m94-2q-8 4-6 11c4 10 19 7 19-3 0-6-7-10-13-8m-183 3q-6 6-1 12c5 4 15 2 17-4 3-8-10-15-16-8m269 1q-5 6 1 11c8 8 21-1 14-10-3-4-11-4-15-1m93 0c-6 3-4 15 3 15l1 4q1 5 1-2l-2-19zM2 257l-1 9c0 8 0 8 3 8 5 2 13-5 11-10-1-6-10-11-13-7m85 2q-6 7-1 13c4 4 12 4 16 0 8-10-6-22-15-13m91 0c-10 7-1 20 11 16q5-1 5-9c0-8-9-12-16-7m91 2q-7 3-5 10c2 6 12 8 17 3 6-6-2-16-12-13m89 2c-6 5-1 14 7 14 6 0 11-7 9-11-2-6-11-8-16-3m178-1c-7 5-1 16 10 15q8-1 7-11c-2-5-12-8-17-4m-85 0c-9 3-5 17 5 16q8-2 9-8-2-10-14-8m179 0c-2 0-7 5-7 8 0 10 16 13 21 4 3-7-4-14-14-12m89 1c-9 5-6 17 5 17a9 9 0 0 0 5-16q-3-3-10-1M27 273c-5 6 0 16 9 16q10-1 10-12c-2-6-14-8-19-4m35 1a9 9 0 0 0-4 16c5 4 15 1 17-4 2-7-6-15-13-12m56 1c-8 4-6 17 3 17q13-1 12-11c-2-6-10-10-15-6m119 0q-7 7-1 13c8 7 22 0 16-9q-6-9-15-4m64-1q-6 1-7 8c0 6 9 11 14 8 11-6 5-18-7-16m-95 3q-6 6-1 11c7 8 20 4 18-6-1-8-11-11-17-5m124-2c-7 5-6 15 2 17q12 1 14-8c0-8-9-12-16-9m-181 1q-9 6-2 15c3 3 11 3 14-1 8-7-1-18-12-14m243 2q-9 5-2 14c6 5 18-1 17-9q-4-8-15-5m27 1c-9 8 4 20 13 12 7-5 2-15-7-15zm150-2q-10 6-3 14 6 6 13 1c9-6 0-19-10-15m-90 2q-5 7 1 14c5 4 14-2 14-8 0-7-10-11-15-6m27 0c-6 7 2 17 10 14q10-5 4-13-6-6-14-1m155-1a9 9 0 0 0 3 17 8 8 0 0 0 3-16q-3-3-6-1m88 1q-8 6 0 14 8 4 12-2c7-8-1-17-12-12m-152 2c-8 6 0 17 10 13q11-6 2-14-7-5-12 1m91-1q-7 6 0 13t15-2c5-8-6-16-15-11M1 287c-2 1-1 16 1 17 7 2 15-4 14-10s-9-10-15-7m269 0q-11 5-4 15a10 10 0 1 0 12-14c-4-2-3-2-8-1m-88 1c-8 1-11 9-6 14q9 8 16-1c5-7-1-15-10-13m-95 2q-5 7 1 13c6 5 19-1 16-9-2-6-12-8-17-4m272-1c-4 2-5 9-3 12 6 7 17 7 19 0 2-9-7-16-16-12m180 3c-7 3-6 11 1 14a9 9 0 1 0-1-14m182-1a9 9 0 0 0 3 17 9 9 0 1 0-3-17m-274 3q-7 8 2 13a9 9 0 1 0-2-13m181 0q-6 7 1 13c5 3 15-1 15-6 0-9-11-13-16-7M43 305q-7 10 4 14c10 3 18-7 10-14q-6-6-14 0m95-2a9 9 0 0 0 1 17q7-1 10-6c2-5-6-12-11-11m86 2q-5 2-5 7c0 10 16 13 19 4 3-8-7-16-14-11m90 0q-5 4-3 10c4 8 18 7 18-3 0-8-9-12-15-7m88 3a10 10 0 1 0 16-1c-4-3-13-3-16 1m91 0q-7 9 3 13 12 3 13-8c0-7-11-11-16-5m91-1q-8 6-1 13 7 6 13 0c8-8-2-19-12-13m89 1c-3 1-5 7-4 10 3 9 19 7 19-2 0-7-8-11-15-8m92 1q-9 6 0 14 5 6 4-7v-9zm-749 8q-4 3-6 8c0 9 13 12 19 4 5-7-4-16-13-12m89 1a9 9 0 1 0 7 16c13-5 6-19-7-16m181 1q-9 6-4 14c8 7 20 0 17-9q-4-9-13-5m-210 0q-6 2-6 8c0 8 8 12 15 8 10-6 3-19-9-16m271 0q-7 4-6 10c5 10 21 7 19-3-1-6-8-9-13-7m28 1c-7 3-4 14 4 15 9 1 14-8 8-14-2-3-9-3-12-1m61-1c-2 1-6 7-6 9 0 5 11 10 16 7 10-5 0-20-10-16m29 1q-9 8-3 15 9 7 17-3c4-8-7-18-14-12m-300 0q-9 6-2 14c7 6 17 2 16-6q-3-11-14-8m30 0c-6 1-8 9-3 13 7 7 18 2 16-7q-1-8-13-6m57 1c-7 7 1 18 10 14q7-2 6-8c0-7-11-11-16-6m302 1c-6 2-7 9-2 13 8 7 20-1 15-9q-4-7-13-4m-27 1c-3 0-8 10-6 13a11 11 0 0 0 11 2c6 0 8-8 3-13-3-3-3-3-8-2m116 1c-9 8 1 20 11 14 8-4 6-14-4-16q-3-1-7 2m-26 0-2 1q-3 0-4 3c-3 4-2 4 1 8 7 8 20 2 16-8-2-3-11-7-11-4m86 1q-7 5-1 11c5 7 16 3 16-5 0-7-9-11-15-6m33-1c-8 5-5 16 4 16 3 0 9-6 9-9 0-6-8-10-13-7m-329 9q-12 6-4 14c6 6 18 1 17-7-1-7-8-10-13-7m-271 0q-8 3-6 12c6 11 23 4 18-7-1-3-7-6-9-6zm85 2q-7 9 5 15c7 2 15-4 12-11q-7-12-17-4m96-2c-8 4-7 15 1 18q8 0 12-6c4-8-4-15-13-12m-271 1a9 9 0 0 0 5 17 8 8 0 0 0 4-16q-3-3-9-1m449 2c-8 4-7 15 2 17a9 9 0 0 0 6-17zm91 1q-8 4-6 11c4 10 19 7 19-3 0-5-8-10-13-8m88 0-4 3a9 9 0 0 0 16 10c6-6-2-16-12-13m91 3q-6 5 0 12 4 3 4 7l1-5-1-13v-4zM1 354q0 11 2 10c3 0 9-3 10-6l2-4q2-8-11-9H1zm178-6c-8 5-7 14 3 17a9 9 0 1 0 2-19zm-89 0a9 9 0 0 0 4 18q8 1 9-5c4-8-4-16-13-13m181 0q-11 3-4 14 6 6 13 1c10-6 3-17-9-15m90 1c-9 6-6 17 4 17a9 9 0 1 0-4-17m87 4q-6 6 0 12 9 7 15-2c4-10-8-18-15-10m180 0q-7 6 0 13c5 5 13 3 16-3 3-8-9-16-16-10m90 1c-6 6-2 15 7 15 5 0 10-6 10-10-2-7-12-10-17-5m-179-1c-5 3-6 11 0 14 6 4 15 0 15-7 0-6-8-10-15-7m-508 9a9 9 0 0 0 4 18 9 9 0 0 0 3-18zm206 2c-6 5-2 16 6 16q12-2 10-11-7-11-16-5m-180 1c-6 6-1 15 8 15 6 0 11-7 8-12q-9-8-16-3m61 0q-5 2-5 7c0 7 12 12 18 6 6-8-4-18-13-13m29 0c-8 5-4 15 6 15s14-10 7-16c-2-2-10-1-13 1m58 1c-6 5-2 15 6 15 6 0 13-6 12-11-2-7-12-9-18-4m123 0c-5 4-4 13 3 15h5c4 3 11-3 10-9-2-8-12-12-18-6m90-2c-5 4-4 14 3 17 11 5 20-7 11-15q-8-5-14-2m-29 1c-9 5-7 15 4 17 9 2 16-10 9-15-3-3-10-3-13-2m119 3c-8 5-4 15 6 15a8 8 0 0 0 4-15q-5-3-10 0m58 1q-5 5-1 11c2 5 13 5 17 0 7-9-8-19-16-11m126-2a9 9 0 1 0 11 8q-1-8-11-8m-214 2c-4 5-1 13 6 13q6-2 7-8c0-6-8-9-13-5m121-1q-7 3-3 11c3 5 11 6 15 1 5-7-3-16-12-12m153 0q-11 5-4 14c7 8 21-1 15-10-1-2-7-5-8-5zm-96 2q-7 12 7 14a8 8 0 0 0 1-16q-6 0-8 2M2 376c-2 0-2 0-2 9l1 9h3a9 9 0 1 0-2-18m174 2c-8 6-4 16 6 16q7 0 9-4c4-10-7-19-15-12m183-1q-9 6-3 14c6 8 19 4 19-5 0-8-9-12-16-9m-270 2q-4 2-5 5l-1 4 3 4q5 7 13 2c11-5 2-20-10-15m180 0c-8 4-6 13 2 17q5 2 11-3c9-7-3-20-13-14m179 1q-4 2-3 7c0 11 16 13 21 2 4-9-9-16-18-9m179 2c-7 6-4 16 6 16 8 0 13-9 8-14q-8-6-14-2m-90 3q-5 4-1 10c7 8 19 2 16-8-2-6-10-7-15-2m182 0q-7 6-1 12c6 6 15 3 17-4 1-8-9-13-16-8m-674 6-3 2-2 3c-3 4 3 13 10 13 4 0 10-6 10-9 0-7-9-11-15-9m92 0q-6 1-8 7c0 7 8 12 13 10 12-4 8-19-5-17m86 3c-7 3-4 15 5 15a8 8 0 0 0 4-16q-4-2-9 1m91 0q-3 2-4 5c-3 9 9 14 16 6 8-7-3-17-12-11m91 0q-4 2-4 8c0 9 9 12 16 5 7-6-2-17-12-13m89 0-4 4c-5 8 5 16 14 12 11-6 3-20-10-16m88 5-3 3q1 6 5 8a9 9 0 1 0-2-11m92-1q-5 5-4 9a9 9 0 1 0 4-9m88 2q-5 6 1 11 7 8 6-5 0-15-7-6m-748 5q-5 3-6 9c0 9 13 13 19 5 6-7-3-18-13-14m59 3c-6 3-5 11 1 14 7 4 15 1 15-7s-9-12-16-7m31 0c-7 3-7 12 1 16 6 2 13-2 13-9q-2-10-14-7m58-1c-6 3-6 11 1 15 9 6 19-7 11-13q-5-5-12-2m30 1c-7 5-3 15 6 15a9 9 0 1 0-6-15m91 0q-5 3-5 8c0 8 13 11 19 3 4-8-6-16-14-11m92 0q-11 7-2 15c9 5 21-2 17-10q-5-9-15-5m-122 0q-8 4-2 13 8 6 14 0c8-8-1-17-12-13m89 2c-4 3-4 10 1 12l5 2q6 2 10-3c7-9-7-19-16-11m122-2c-5 2-6 10-1 14q8 6 15-1c6-8-4-17-14-13m-31 3c-6 5-2 14 7 14s13-10 7-15q-8-5-14 1m92-1a9 9 0 0 0 5 17q11-3 7-13c-1-2-7-5-8-5zm30 1a9 9 0 0 0 4 17q15-2 5-17-3-2-9 0m180 0c-6 2-8 9-3 13 8 8 20 1 15-8q-4-8-12-5m-124 2q-5 9 4 14 6 0 11-4c5-8-8-16-15-10m31-1q-9 9 5 15 9 1 11-8c0-6-11-11-16-7m62 0c-8 7 0 19 10 16q10-5 3-14-7-5-13-2m-479 9c-8 4-7 14 1 17q14 1 12-11-4-8-13-6m87 1c-8 4-6 12 3 15 3 0 11-3 11-6 3-7-7-13-14-9m-265 0c-10 3-5 18 6 17q7-1 7-10t-13-7m84 2q-6 6-1 11c7 9 21 1 17-9q-7-9-16-2m272 2q-7 9 4 13c7 2 15-5 12-10q-7-10-16-3m91-1q-4 3-5 9c0 5 10 10 16 7 10-6 0-20-11-16m179 4q-10 12 6 14a9 9 0 0 0 3-17c-5-1-5-1-9 3m-92-1c-7 8 6 19 14 11q6-4 1-10c-3-4-11-4-15-1m181 1q-7 8 3 12 5 0 4 5 1 3 1-3 1-25-8-14m-586 7q-7 9 5 14a8 8 0 0 0 6-15q-7-5-11 1M1 442c1 9 0 9 7 8q4-2 6-8-1-7-9-8H1zm86-6c-8 8 2 19 12 13 6-2 6-9 1-13-3-3-11-3-13 0m181 0q-7 4-4 10c3 6 13 7 17 2 6-7-3-16-13-12m88 2q-6 7 2 11 12 5 14-6c0-8-10-11-16-5m92 0c-8 7 1 19 11 15q9-6 2-15-7-6-13 0m92 0a7 7 0 0 0-2 14q12 4 13-6-1-6-4-7h-3zm91 1a8 8 0 0 0 6 14c7-3 7-11 0-14zm87 4c-6 5-2 12 7 12 8 0 11-8 4-13q-5-5-11 1m-689 4a9 9 0 0 0 6 17c10-2 11-11 2-17-3-2-3-2-8 0m91-1q-6 2-7 8c0 9 11 13 17 6s0-16-10-14m-60 1a9 9 0 0 0 5 17q7-1 9-9c0-5-8-10-14-8m88 0c-9 4-7 15 3 17q7 0 10-6c4-8-4-15-13-11m59 1c-7 4-7 13 0 16 11 6 21-5 13-13q-5-6-13-3m32 1a9 9 0 0 0 3 17q13-1 10-11-3-9-13-6m59 1q-4 2-4 8c0 10 14 11 19 2 3-6-8-14-15-10m32-1q-4 1-5 9c0 8 11 11 16 5 8-9 1-18-11-14m89 2c-10 6-6 17 6 17a9 9 0 0 0 3-18q-5-2-9 1m-29 0c-10 4-4 17 7 17 3 0 9-6 9-9 0-6-9-11-16-8m87 2q-6 5 0 13c8 9 19-3 11-12q-5-6-11-1m30-1a9 9 0 0 0 2 17 9 9 0 0 0 7-16q-4-3-9-1m58 0c-9 5-4 16 6 16 8 0 12-10 6-15q-5-3-12-1m28 1c-8 9 4 21 13 13q7-7 1-12c-3-4-11-4-14-1m67-1q-13 5-6 14c9 8 22-2 14-11q-4-5-8-3m24 2q-5 7 1 13c3 3 11 3 13 0 8-8-5-20-14-13m64-1c-9 5-6 16 4 16q5 1 7-3c6-7-3-16-11-13m-661 9q-6 7 1 13a9 9 0 1 0 0-12m88-1c-8 7-3 16 8 16q12-1 7-13-7-9-15-3M0 471v9h3q8-1 11-6 3-11-10-12H0zm266-7c-7 5-2 14 7 14q6 0 8-5c5-8-8-15-15-9m91 2q-6 6 0 11c10 7 22-3 14-11q-6-6-14 0m90 1q-7 9 2 15c6 2 16-3 16-10 0-6-13-10-18-5m87 0q-7 8 1 14c10 6 21-6 12-13q-7-6-13-1m91 0q-9 6-2 12c4 5 14 3 16-3 3-8-6-14-14-9m94-1c-5 1-9 9-5 13 7 8 22-2 16-10l-8-4zM45 476c-3 2-6 9-4 10l1 1c0 5 12 7 16 2 3-4 3-4 2-8-3-6-11-9-15-5m176 1c-8 4-6 14 3 16 6 2 13-2 13-8 0-8-9-12-16-8m-90 1q-6 4-4 9c3 12 22 8 19-4-1-6-10-9-15-5m182 0a9 9 0 0 0 11 16q10-6 3-14-6-5-14-2m92 0a9 9 0 0 0 3 18c6 2 12-7 9-13 0-2-7-6-8-6zm86 4c-8 5-4 15 6 15 9 0 12-10 5-15q-5-4-11 0m177 1c-8 7 2 18 12 14q6-4 5-9c-2-8-11-11-17-5m95-1c-7 4-7 12 0 15q8 6 6-7 1-14-6-8m-185 2q-7 8 4 14c8 5 17-8 10-14-3-3-11-3-14 0m-566 6c-8 5-5 17 5 17a9 9 0 0 0 6-17q-5-4-11 0m91 1q-4 3-4 8c-1 9 14 13 19 4 4-8-6-17-15-12m61-1q-11 5-4 15c8 7 21-4 14-12q-3-4-10-3m-88 1q-7 1-6 8c0 9 9 12 17 6 7-7-1-16-11-14m114 3c-6 6-1 14 8 14a9 9 0 0 0 0-17q-6-1-8 3m62-1q-10 5-2 13c6 7 19 2 18-7-1-7-10-10-16-6m32-1c-2 0-6 6-6 9 0 9 17 10 20 1q1-13-14-10m60 0c-9 4-6 17 4 17a9 9 0 0 0 6-16q-3-3-10-1m28 3c-6 6-2 14 8 14q8-1 9-8c0-8-12-12-17-6m59-1q-9 8 1 15 5 4 12-2c6-5 4-12-3-13l-5-2zm32 0c-9 4-3 18 6 17q13-2 7-14-5-6-13-3m148 1q-8 5-4 12c5 7 18 5 18-3 0-6-8-11-14-9m32 0c-3 0-7 6-7 9 0 9 17 11 19 2 1-3-1-9-3-10q-5-2-9-1m-90 1q-9 4-5 13c3 4 14 5 17 0a8 8 0 0 0-7-13zm149 0c-6 2-8 10-4 14 4 3 13 3 16-1 6-7-2-17-12-13m29 2q-6 6-1 11c5 6 17 2 17-5 0-8-11-12-16-6m-211 1c-6 5-3 13 7 13q11 0 9-8a9 9 0 0 0-16-5m-390 7q-9 7 7 6 16 2 7-6-7-6-14 0m-84-1-4 4-2 3h10q13 1 10-2c-1-5-9-7-14-5m177 2-5 3c-1 2-1 2 9 2h9l-1-3a6 6 0 0 0-6-3q-3-1-6 1m179 1q-10 4 6 4 11 1 8-2-6-6-14-2m-89 2-2 2h8q10 0 7-2c-3-3-10-3-13 0"
        mask="url(#16282281824-posters-1720559948599-vertical-mask)" itemprop="medium" fill-opacity="0.90"
        fill-rule="evenodd" stroke="none" fill="url(#16282281824-posters-1720559948599-vertical-medium)"></path>
      <!---->
      <path id="16282281824-posters-1720559948599-bold"
        d="M0 2c0 5 8 5 12 0l2-2H7q-9 0-7 2m177-1c1 5 14 5 15 0q2-1-7-1-10 0-8 1m90 1c3 5 11 6 15 1q6-4-7-3c-9 0-9 0-8 2m92 1q7 6 13 1t-7-4h-9zm89-2 3 4q7 6 14-1 6-5-7-4zm88 0c0 8 14 13 18 6q8-9-7-7zm91 2q2 8 10 8 8-3 9-8V0h-19zm90 0c2 10 18 10 18 0V0h-19zM62 4c-8 5-5 16 5 16a8 8 0 0 0 3-16c-5-2-5-2-8 0m145 1c-8 7 1 18 10 14 4-2 7-10 5-12q-8-9-15-2m127-1c-11 3-10 16 0 16 9 1 14-6 10-13q-3-7-10-3M31 5c-7 3-7 10 1 13 9 4 17-5 11-12q-4-4-12-1m120-1q-6 1-6 8c0 11 16 13 19 3q0-13-13-11m88 2a9 9 0 1 0 13 0c-3-3-10-3-13 0M118 7q-6 9 3 13c7 3 14-3 12-9s-11-8-15-4m181 1q-7 9 4 12 7 2 10-3 4-4-1-9-5-6-13 0m91-2q-6 4-4 10a9 9 0 1 0 4-10m31 1c-9 4-4 16 6 16q9 1 8-8-2-11-14-8m62 1a8 8 0 1 0 7 15 8 8 0 0 0-7-15m180 1a8 8 0 0 0 2 16c9 0 14-9 7-14q-3-4-9-2m89 0q-8 6-2 14 7 6 13 0c7-7-1-18-11-14m-237 1a8 8 0 0 0 1 16 8 8 0 1 0-1-16m178 0c-7 2-7 10-1 14 6 3 14 0 14-7 0-6-7-9-13-7m-93 3q-6 5 0 10c8 8 21-2 14-10q-6-6-14 0m-28 0c-9 4-4 16 5 15a8 8 0 0 0 2-16q-4-2-7 1M2 17q-2-1-2 8c0 8 0 8 3 9q6 0 11-6c3-6-5-13-12-11m86 2q-6 5 1 11 3 4 9 2c7-2 8-11 2-15q-7-3-12 2m94-1c-6 1-9 9-5 14 6 7 20-1 15-9q-3-5-7-6zm271 2c-9 6-6 19 4 18 9-2 11-10 6-16q-6-7-10-2m-91 0a9 9 0 1 0 10 2q-4-5-10-2m-95 1c-7 3-1 14 7 14 7 0 12-9 8-13-2-1-12-2-15-1m273 4q-5 4-2 10c3 5 12 5 15 1 7-8-5-18-13-11m93-1c-9 5-6 16 3 16 10 0 14-9 7-15q-5-5-10-1m86 2a9 9 0 1 0 16 7q-1-5-4-6l-2-1c0-3-7-2-10 0M50 31c-7 1-8 11-3 15q5 5 12-2 9-9-2-13zm175 2c-8 6-6 17 4 17q16 1 7-18-3-4-11 1m-89 0c-9 3-6 16 4 16 8 0 13-9 8-15-2-1-9-2-12-1m272 2a9 9 0 0 0 4 17c7 0 12-10 7-14-2-2-9-4-11-3m-95 3c-7 7 5 18 13 12q6-5 1-11c-3-4-11-4-14-1m186 1a8 8 0 0 0 4 15q8-2 9-8c0-5-7-9-13-7m89 0q-7 4-5 10c5 9 19 8 18-2 0-7-7-11-13-8m90 0q-6 2-7 8c0 6 8 10 14 8 11-5 4-20-7-16m86 2q-5 7 2 14l3 2v-9q1-14-5-7m-599 5q-9 5-4 13c6 7 17 4 17-4q-1-11-13-9m-91 2c-6 6-2 15 6 15q9 0 9-9c0-7-9-10-15-6m31-1c-7 4-6 14 2 16 8 3 17-7 11-13q-6-6-13-3m-91 2q-4 2-4 7c0 11 19 11 19 0 0-7-9-11-15-7m179 1q-8 9 6 14c7 1 12-10 6-16-2-2-9-1-12 2m61-1c-7 4-5 13 3 15 9 1 16-9 10-14-3-3-10-4-13-1m31 0c-8 3-8 12 0 16 6 3 14-2 14-9 0-2-7-8-9-8zm62 1c-4 1-6 7-4 10q7 11 17 1c5-7-5-16-13-11m29-1-3 4a9 9 0 0 0 17 8c5-8-5-16-14-12m61 1a9 9 0 0 0 6 16c9-1 10-13 2-17l-3-1zm28 1q-6 6-1 13c5 5 16 2 17-4 1-11-9-16-16-9m94 2a9 9 0 0 0 4 17c8-1 12-9 7-14l-8-4zm60 0q-10 3-6 10c4 8 17 5 17-3q-2-9-11-7m28 0c-9 5-6 16 4 16q10 0 10-8c0-8-8-12-14-8m-122 3q-6 4-1 10a9 9 0 1 0 1-11m180 1q-6 5-1 11c3 4 12 3 15-1 7-8-5-18-14-10m35-2c-7 1-10 9-5 14 6 5 16 1 15-7q-1-9-10-7M47 61c-7 2-6 15 2 17 3 0 10-2 11-5 4-7-6-15-13-12m178 1q-6 4-5 11 7 11 15 4c8-7 0-19-10-15m-92 3c-8 9 4 20 13 12l3-4c1-5-5-13-7-10h-2q-3-3-7 2m183-1c-6 1-8 9-3 13 7 7 18 1 16-8q-1-8-13-5m89 3a9 9 0 1 0 13 13 9 9 0 0 0-13-13m274 1a8 8 0 1 0 11 9q-1-10-11-9m-183 3q-5 5-1 9c4 6 13 5 16-2 3-8-9-14-15-7m93-2c-12 4-6 18 6 15q10-5 1-14-3-3-7-1m175 1c-4 3-2 12 3 14q2 0 2 4 1 6 1-2l-2-18zM91 77q-11 6-2 14 5 6 11 0c8-7 0-18-9-14m86 2q-7 8 5 14 6 2 9-3c6-9-6-18-14-11M1 85l1 9 3-1q6 0 9-5c2-4-4-11-10-11H1zm269-6c-9 5-5 16 5 16a8 8 0 0 0 0-17zm89 4q-5 8 4 12 11 2 12-7c0-6-11-10-16-5m92-2q-4 2-4 7c0 8 10 12 16 6 8-8-2-18-12-13m180 3c-5 3-5 12 1 14a8 8 0 1 0-1-14m-89 0c-9 3-5 16 4 16a9 9 0 1 0-4-16m178 1q-6 6 0 12c6 6 15 3 15-6 0-7-10-11-15-6M29 93c-7 7-1 18 7 15q14-6 5-14-8-6-12-1m28 3q-6 6 1 12a9 9 0 1 0-1-12m64-2c-9 2-9 14-1 16q12 1 12-8-1-10-11-8m25 1q-5 6 0 13c6 4 17 0 17-7s-11-11-17-6m272 0q-7 9 4 16c6 2 13-2 13-8 0-8-11-13-17-8m-211 2c-8 7 4 17 13 10 4-2 4-9 0-11q-6-4-13 1m32-2q-6 4-4 10c3 8 14 8 18 0 3-8-6-14-14-10m61 1c-8 4-4 14 5 14q6 1 8-5c3-8-5-14-13-9m31-1c-9 5-6 17 4 16q9-2 9-11c0-4-9-7-13-5m61 1c-8 3-7 12 1 15q6 1 12-5c4-6-5-13-13-10m87 3q-6 4 0 10a8 8 0 1 0 0-10m183 1c-6 3-7 10-1 13 8 5 17-1 14-9q-4-8-13-4m92-1q-7 2-6 11c0 5 11 7 15 2q6-9-4-13zm-243 2c-7 4-5 15 4 17a9 9 0 0 0 4-17c-5-2-5-2-8 0m59 0a9 9 0 1 0 14 10c2-9-6-15-14-10m30 0q-7 5 0 12a8 8 0 1 0 0-12m92 0q-6 2-4 9 1 4 5 5l3 1c1 1 7-1 9-4q4-6-2-10-5-5-11-1m-603 6c-9 3-5 16 5 16a9 9 0 1 0-5-16m87 1c-8 7 0 19 10 15s9-15-2-17q-5-1-8 2M0 115q-1 12 7 8c11-3 9-16-3-16H0zm269-6q-8 5-3 12a9 9 0 1 0 3-12m93 1q-5 3-6 8c0 3 6 8 9 8 8 0 13-10 8-15-2-1-9-2-11-1m88 2c-6 6-1 17 7 15 3 0 9-7 9-9 0-6-12-11-16-6m270 2q-7 6-1 12c3 4 11 4 14 1 7-8-4-19-13-13m-180 2q-5 6 1 11c8 8 19-2 13-11-3-4-11-4-14 0m90-1c-7 5-1 16 8 15q6-3 8-9c0-7-11-10-16-6m-587 6q-9 10 5 18c5 3 13-3 13-10 0-8-12-14-18-8m91 0c-9 4-8 14 1 17a9 9 0 1 0-1-17m179 3q-4 4-4 10c2 9 20 7 20-3 0-6-10-11-16-7m-91 0c-9 3-5 16 5 16q13-1 11-12c-2-4-10-6-16-4m187 1q-6 2-7 8c0 11 15 14 19 4 2-7-5-14-12-12m88 3q-9 5-4 12c6 8 19 4 19-5 0-6-9-10-15-7m90 0q-7 4-3 12c4 7 16 4 16-5 0-5-8-10-13-7m90 0q-6 1-6 9a9 9 0 1 0 5-9m91 0c-7 2-8 13-1 16l3 1v-17zM73 139q-7 5-3 14c3 3 12 4 15 1 8-7-3-20-12-15m-58 0q-3 1-2 8c1 8 10 11 15 5 7-8-2-17-13-13m181 0q-9 3-7 12c4 7 13 7 18 1s-3-15-11-13m-94 2q-9 9 3 15c11 4 19-11 8-15q-6-3-11 0m60 0c-7 5-4 15 6 17 6 1 12-7 10-13s-10-8-16-4m120 1c-9 8 3 20 13 12q4-2 3-7c-1-8-9-11-16-5m61-1a9 9 0 0 0 10 15c8-3 8-12 0-15q-6-3-10 0m35 0c-7 1-9 9-4 13 8 6 19 0 16-8q-2-8-12-5m87 1q-8 4-2 13c5 6 17 2 17-6q-1-7-5-8-6-2-10 1m-212 0q-8 5-2 12c7 7 18 3 18-6 0-5-10-9-16-6m268 1q-7 7 2 14c9 5 18-6 12-13q-6-6-14-1m123-1c-5 2-7 10-2 14 6 5 16 1 16-6 0-6-8-10-14-8m-209 2q-5 3-4 7c3 10 19 9 19-1 0-7-8-10-15-6m116 1q-5 5-1 9c4 8 17 5 17-4 0-8-11-11-16-5m62-2q-9 9 2 16c9 5 17-8 9-14q-6-5-11-2m121 2c-5 2-6 10-1 14 3 2 11 1 14-1 7-8-4-18-13-13m-26 0q-10 3-7 11c5 9 18 6 17-4q-1-9-10-7m-663 9c-6 3-7 12 0 15q8 4 14-5c3-6-6-13-14-10m89 1q-8 5-5 11 8 9 17 2 6-4-1-11-5-7-11-2m94-1c-8 1-11 9-7 13 8 7 18 3 17-7a8 8 0 0 0-10-6m90 0c-7 1-10 9-5 14q3 5 11 2c11-4 6-18-6-16m90 2a9 9 0 0 0-5 14c6 5 17 0 17-7q0-8-12-7m86 0-4 4c-6 9 9 18 16 9 6-7-2-16-12-13m180 1c-6 3-6 12 0 15q6 3 11 0c11-7 1-21-11-15m90 1a9 9 0 0 0 3 17q2 0 2 4 1 3 1-3l-2-19zM2 166l-1 9v8h4c7 0 12-8 8-13-3-4-10-6-11-4m89 3q-10 7-3 14c7 7 18 0 15-8q-4-9-12-6m86 1q-8 8 3 15c10 5 17-7 10-15-3-3-10-3-13 0m92 1c-5 2-6 10-2 13q7 5 13-1c7-7-1-16-11-12m181 0q-7 4-3 12c5 9 19 4 17-6q-3-8-14-6m-90 1c-7 4-4 14 4 15q9-1 11-8c0-6-9-10-15-7m176 2c-5 6-1 15 8 15 3 0 9-6 9-9 0-8-11-12-17-6m91-1c-6 6-2 14 7 14q8-1 9-9c0-5-12-10-16-5m94 1q-6 3-7 8c0 8 16 10 18 2 3-7-4-13-11-10M27 184c-9 4-5 16 5 16q11-1 9-12-4-7-14-4m88 3q-7 9 3 14 4 3 6 1l3-1q3-1 4-8c1-9-10-12-16-6m31-1a9 9 0 1 0 15 0c-3-3-12-3-15 0m-89 1c-7 6 3 18 12 13 8-4 4-15-5-15zm149 0q-6 5-2 10c7 9 19 6 18-5a9 9 0 0 0-16-5m32 0q-6 4-3 10c4 9 17 6 17-3q-2-13-14-7m62 0q-10 4-1 13 6 6 12 0 6-5-1-12c-4-3-4-3-10-1m27 1c-6 5-2 13 7 13q10 1 9-8 0-9-8-8-6-1-8 3m60 0q-4 2-3 6c2 12 18 12 20 1 1-8-11-13-17-7m34-2q-11 3-4 12c4 6 14 5 16-1 3-7-4-12-12-11m56 2q-6 6 1 13c9 7 19-6 11-13q-5-6-12 0m34-1q-6 0-7 5a9 9 0 0 0 16 8q5-4 1-9-3-6-10-4m57 1c-4 0-7 6-5 10 5 9 17 8 19-2q0-9-14-8m30 0c-5 1-5 9-1 12 7 6 15 2 15-6q-1-10-14-6m57 4q-5 11 8 12 9 0 9-8c0-8-12-11-17-4m32-2q-8 11 4 14c9 3 16-9 9-14-3-3-11-3-13 0m63 1c-8 1-5 15 4 15 8 0 12-8 8-14q-2-3-12-1M0 206q-1 12 7 8c10-4 9-16-3-16H0zm90-7c-8 3-7 15 1 16q11 2 12-8c0-6-7-11-13-8m89 0c-4 2-5 10-1 14q4 5 11 2c11-7 2-21-10-16m91 1a8 8 0 0 0 9 15q5-3 5-9c0-5-8-9-14-6m182 0q-11 6-3 14 6 6 11 1 8-9-2-14c-5-2-4-2-6-1m-93 2q-7 8 1 14c9 5 18-4 12-12-3-3-10-4-13-2m179 0q-9 6 1 14c8 5 17-5 11-12-2-2-9-3-12-2m88 3c-6 8 6 17 14 11 6-6 2-14-7-14q-5-1-7 3m94-1c-8 5-5 15 4 15 8 0 12-7 9-12q-6-7-13-3m-675 9c-4 0-7 6-5 10q5 9 15 4c9-5 1-16-10-14m90 1q-6 3-7 7c0 11 19 13 19 2q-1-11-12-9m90 0c-6 1-8 10-4 14 6 5 17 1 17-6q0-11-13-8m91 2c-6 2-7 10-2 13 8 7 19 0 15-9-1-4-8-6-13-4m177 0c-6 3-5 11 1 15 8 4 17-8 11-13-2-2-9-3-12-2m-88 2a9 9 0 1 0 12 12c8-8-2-18-12-12m181-1q-6 2-7 7c0 9 13 12 16 4q3-11-9-11m87 1-3 5c-5 9 10 15 16 7s-3-16-13-12m91 3q-4 6 0 12 6 7 5-6 1-13-5-6m-750 9c-4 3-4 10-1 12 3 4 16 1 16-3l1-3-3-5q-7-6-13-1m60-1a9 9 0 1 0 14 8 8 8 0 0 0-8-8zm120 1q-13 7 1 15 5 3 10-2c7-6-3-17-11-13m-86 0a9 9 0 0 0 3 16 9 9 0 1 0-3-16m145 1c-6 5-2 15 7 15 8 0 12-10 6-14q-7-5-13-1m-91 1q-8 6 1 13 6 4 12-2c6-7-4-17-13-11m124-1c-8 3-5 15 4 15q9-1 10-7c0-6-8-10-14-8m58 1q-6 6 0 11c6 6 16 2 16-6 0-5-11-9-16-5m30-1c-7 3-3 15 5 15q10 0 10-7-1-12-15-8m90 1q-6 10 3 15c10 4 19-8 10-15-3-3-11-3-13 0m61-1a9 9 0 1 0 12 8c0-5-7-10-12-8m-92 2c-5 4-3 12 4 14 10 3 17-6 11-13-3-4-11-4-15-1m122-1q-11 5-5 14a9 9 0 1 0 4-13m91 0c-11 3-5 17 6 14q6-2 6-7a10 10 0 0 0-12-7m-31 0c-9 4-6 16 4 16q8 0 9-7c1-7-7-12-13-9m92 1c-8 4-5 15 3 15q9-1 10-7c1-7-7-11-13-8m27 2c-6 6 0 15 7 14 8-1 11-9 6-13q-7-6-13-1m-688 8q-9 7-1 14a9 9 0 1 0 1-14m91 0a9 9 0 0 0 5 16 9 9 0 0 0 2-17l-3-1zm85 2q-4 6 0 11c5 8 20 3 18-5s-12-11-18-6m95 0q-9 6-3 13c6 6 17 2 17-6 0-7-9-11-14-7m178 1c-7 3-5 12 4 15s14-11 5-15q-5-3-9 0m91 0q-7 3-4 10a8 8 0 1 0 4-10m-182 3q-4 6 0 11c7 5 17-1 15-9-1-5-11-7-15-2m271 0c-7 6-1 15 8 13q7-2 6-8-5-11-14-5m91 0c-5 3-3 14 2 14q2 0 2 4 1 4 1-3l-1-12v-5zm-675 8c-7 5-7 13 1 16 10 4 17-9 8-16q-5-4-9 0m-89 7q0 13 8 8c9-4 7-16-4-16H1zm181-7q-9 3-7 11c3 9 19 7 19-2l-3-8-4-1zm87 4c-5 1-6 9-2 12q8 6 14-1c5-6-3-14-12-11m90 1c-7 6 0 15 9 13q5-3 6-8c0-6-10-9-15-5m177 0c-6 4 0 14 8 14s12-10 5-14q-7-4-13 0m-87 1c-3 2-3 9 0 11 3 3 11 2 14-2 5-7-8-15-14-9m179 0q-7 4-2 12c4 3 13 3 16-1 6-8-5-17-14-11m92 0c-9 4-6 16 4 16a8 8 0 0 0 4-16c-3-2-3-2-8 0M28 274q-5 3-2 9c6 10 21 5 19-6-2-6-12-8-17-3m30 2q-8 9 2 15 11 3 14-7c1-9-10-13-16-8m58 1q-5 4-2 9c4 9 18 6 18-4 0-7-10-11-16-5m94-2q-8 3-5 12c0 1 8 5 11 5l4-3c8-6 0-18-10-14m27 1q-6 6 0 11c4 5 13 4 15-1 4-9-8-16-15-10m60 1a9 9 0 1 0 13-2c-3-2-11-1-13 2m34-1q-10 5-3 13 6 6 14 0c8-7-1-17-11-13m-182 2q-8 5-2 12c2 3 11 3 14 0 8-7-3-18-12-12m271 1q-7 6-1 11a9 9 0 1 0 1-11m-30 1q-7 7 3 13c5 2 13-3 13-8 0-8-10-11-16-5m91-2c-7 4-5 15 4 15q8-1 9-8c0-2-4-7-6-7zm28 0c-9 5-4 17 6 14q8-2 6-9-3-8-12-5m58 0q-7 6 0 14 9 5 14-4c4-7-5-14-14-10m94 1a8 8 0 1 0 8 14c8-5 2-16-8-14m89 0q-3 0-4 5a9 9 0 0 0 16 5c4-7-3-13-12-10m-153 3q-5 5-2 8c5 6 17 4 17-3s-10-11-15-5m91-1q-6 5 1 12 6 6 11-1c8-8-3-18-12-11M1 288l-1 8v7h4c9 0 14-8 9-14q-5-3-12-1m270 0a9 9 0 0 0 1 17 8 8 0 0 0 5-16q-3-3-6-1m-183 3c-6 6-2 13 6 13q10-1 9-8a9 9 0 0 0-15-5m89-1a9 9 0 1 0 13 12 9 9 0 0 0-13-12m183 0q-9 5 1 15c3 2 11 1 12-1 6-9-4-19-13-14m88 4q-8 7 2 13c9 5 18-8 10-14q-6-5-12 1m89 0q-6 5 0 9c5 7 17 3 15-5a9 9 0 0 0-15-4m94-2q-9 6-4 13c3 3 11 3 14 0 6-6-3-17-10-13m87 1c-7 5-3 14 6 14q14-1 6-13-5-6-12-1M44 305q-8 12 7 13c11 1 13-10 1-14l-4-2zm91-1q-8 4-3 13c7 6 20-1 16-8q-3-8-13-5m89 1q-8 3-2 12c6 7 16 4 16-4q-1-10-14-8m91 0a9 9 0 1 0 12 2c-2-2-9-3-12-2m88 2q-7 10 3 14c6 3 14-1 14-8 0-6-12-11-17-6m94-1a8 8 0 0 0 3 15 8 8 0 1 0-3-15m88 1c-6 2-6 11 0 15q5 3 10-2c8-6 0-17-10-13m90 1c-5 1-8 10-3 13q6 4 13 0a9 9 0 0 0-10-13m89 2q-6 6 0 11 6 8 5-5 1-13-5-6M14 320q-7 7 1 12c10 5 21-8 11-14q-7-3-12 2m92-1c-5 0-8 6-5 10 4 7 16 6 17-2q0-9-12-8m181 0c-5 1-8 10-4 14 6 5 16 1 15-6q0-9-11-8m-214 3c-6 5-2 14 7 14s12-9 6-14q-6-6-13 0m124-2a8 8 0 0 0 2 15q9 0 8-7 0-11-10-8m147 2-3 4q1 5 4 7l3 1 4 1q7-1 8-7c0-8-10-12-16-6m31-2-3 3c-4 8 6 15 14 10 8-7-1-17-11-13m59 2q-6 6 0 10c6 6 17 2 16-5a9 9 0 0 0-16-5m29 0c-4 6-5 7-2 11 6 8 16 5 18-4 1-9-10-13-16-7m-300 0a9 9 0 1 0 13 0q-6-4-13 0m89 0q-4 5 0 11c7 6 18-1 15-9-1-4-11-5-15-2m300 2q-4 6 0 11c7 5 17 0 15-8-1-5-10-7-15-3m-28 3q-7 12 5 11 14-3 6-12-6-6-11 1m120-3q-5 4-3 10c3 8 17 6 17-3 0-6-8-10-14-7m62 0q-9 5-4 12c3 3 10 3 13 0 7-6 0-15-9-12m-89 1-2 1c-5-2-6 6-2 11 6 6 16 1 14-7 0-5-10-9-10-5m118 0c-6 2-5 12 2 14 5 1 12-4 12-9 0-4-8-7-14-5m-327 8c-6 1-9 8-5 13a9 9 0 1 0 5-14m-273 2c-6 2-7 10-2 14 3 3 11 2 13-1 6-7-2-17-11-13m87 1c-6 5-3 13 5 15 5 1 12-4 11-9-2-7-11-10-16-6m95-1c-8 4-5 16 3 16q10-1 10-9c0-6-7-10-13-7m-273 2q-2 2-2 6c0 8 9 11 16 5 7-7-6-17-14-11m451 1q-7 5-3 12c5 6 17 3 17-4 0-6-8-10-14-8m88 2c-6 6-2 14 7 14 8 0 11-11 4-15q-5-2-11 1m89 0q-5 6 1 12c5 4 14 1 14-6s-10-11-15-6m95 0c-5 3-5 12 0 14q2-1 2 5 1 4 1-3 0-18-3-16M2 346l-1 9v8h3q7 0 9-7 3-8 1-8l-5-1q-6-3-7-1m178 2c-6 2-7 10-3 14 6 5 17 1 17-7 0-4-9-9-14-7m-92 3q-7 6-1 12c7 7 18 1 16-8q-4-11-15-4m179-1c-5 5 0 14 7 14 9 0 12-8 7-14-3-3-12-3-14 0m94-1q-9 7-2 14a9 9 0 1 0 2-13m88 3c-6 5-2 14 6 14q8 1 8-8c0-7-8-11-14-6m179 1c-8 8 2 19 11 13q9-7 0-14-6-4-11 1m91 0c-8 6 0 17 9 14 8-4 8-12 0-15-5-2-5-2-9 1m-181 2q-4 4-2 7c2 7 11 7 16 1 6-8-8-16-14-8m-510 9c-8 8 1 19 12 14q4-3 4-8c0-9-10-12-16-6m210-1c-10 6-1 18 10 14 6-2 6-10 0-14q-5-4-10 0m-87 0q-7 1-7 7a10 10 0 0 0 19 0q-1-10-12-7m58 0c-7 2-9 9-4 13 6 7 20 0 16-8-1-3-7-6-8-6zm210 1q-5 1-3 10c0 6 12 8 17 3q4-5 0-10l-2-3c0-1-9-2-12 0m-362 1c-4 4 0 14 7 14 9 0 12-10 5-14q-7-4-12 0m61-1q-5 2-5 8c4 10 19 9 19-1q-2-9-14-7m181 1c-4 4-1 11 5 13q4 1 6-2c6-6 3-13-5-13zm31-1q-4 2-5 7c0 5 7 12 9 8h7c10-6 0-19-11-15m57 2q-5 5-1 11c6 7 18 3 18-5 0-7-11-11-17-6m122 1c-8 4-3 17 6 15q7-3 8-8c0-5-8-9-14-7m57 1c-5 6-2 14 7 14q10 1 10-8c0-7-11-11-17-6m124 0c-8 3-5 14 4 14 3 0 9-5 9-8 0-5-7-9-13-6m-211 1q-4 6 0 9c7 5 14-2 10-9-1-3-8-3-10 0m118 0q-4 6 1 10c8 7 19-2 12-10-3-3-11-3-13 0m62-1c-11 6-1 19 10 13 5-2 4-10-1-13zm90 1q-7 6-1 12c3 3 11 3 14 0 7-8-5-19-13-12M2 377q-2-1-2 8v8h5q9-1 9-9-1-9-12-7m174 1c-8 7-2 17 8 15q7-2 7-8c-1-8-9-12-15-7m185 0-2 1c-6 0-5 11 1 15 6 3 15-2 15-8s-12-13-14-8m-91 1c-8 4-7 15 2 16a9 9 0 0 0 6-17c-4-1-4-1-8 1m179 2q-9 11 5 15c5 0 5 0 9-3q8-10-4-15-7-3-10 3m-358-2a8 8 0 0 0 2 16q9 0 10-8-1-9-12-8m537 3c-8 5-3 18 6 16q8-3 9-8c0-6-10-11-15-8m-89 2q-6 3-3 9c3 8 16 6 16-2 0-7-7-11-13-7m184 0a8 8 0 0 0 1 16c7 1 13-6 9-12-1-2-6-6-7-5zM43 394q-4 4-3 6c2 9 14 11 18 3 4-9-7-16-15-9m91-1c-9 4-1 17 8 14 7-2 9-9 4-13q-6-5-12-1m89 1c-5 2-5 11 2 14 8 4 15-5 10-12q-5-4-12-2m90 1c-5 5-3 14 4 14 5 0 12-5 12-9 0-6-11-9-16-5m91 1c-3 3-3 10 0 12 7 5 18-2 14-9-3-5-11-7-14-3m88 0c-5 6-1 15 7 14q11-2 9-10c-3-6-12-8-16-4m91 3q-6 7 3 11c8 4 16-5 10-12q-7-5-13 1m181 0c-6 4-5 12 2 14h3v-8q1-12-5-6m-752 9c-8 9 2 19 12 13q8-4 3-10c-3-7-11-8-15-3m60 0c-2 2-3 10-1 12 10 8 23-1 16-10-3-3-12-4-15-2m32 0c-8 3-5 16 5 16 7 0 11-9 6-14q-5-3-11-2m57 2q-5 6 1 11c8 6 19-4 13-11-3-4-11-4-14 0m33-2q-11 6-2 13 10 6 14-5c2-6-6-11-12-8m62 0c-8 2-9 11-2 14q10 5 13-6 1-10-11-8m28 0c-6 2-8 11-2 14 7 3 15-1 15-8 0-5-7-9-13-6m91 1q-9 6-2 12c6 6 18 1 17-6-2-7-10-10-15-6m91-1c-3 0-6 6-5 9 2 10 18 9 18-1a10 10 0 0 0-13-8m-125 3q-3 3-1 7 1 3 4 3l3 2c4 4 13-2 12-9-2-6-14-9-18-3m92 0c-6 6-2 13 7 13q5 0 7-2c8-9-6-19-14-11m93 0q-12 4-4 13c7 6 20-1 14-10l-1-3zm30 0c-6 1-9 10-4 14 3 3 12 2 14-1 5-6-2-16-10-13m58 1-1 1c-3 0-4 7-1 11q1 2 5 2c10 0 12-9 4-14zm29 1q-9 6 2 12 5 4 9 0c8-7-2-18-11-12m61 0c-3 2-3 9-1 12 4 4 14 3 16-2 2-9-8-15-15-10m28 0q-4 6 0 11c5 5 13 4 15-1 3-9-8-16-15-10m-419 9c-9 5-5 16 5 14 9-2 11-11 4-14q-7-3-9 0m-88 0c-5 2-6 10-1 14a8 8 0 1 0 1-14m-181 2q-5 6 1 12c6 5 15 1 15-7 0-6-11-9-16-5m89 0c-7 5-4 13 5 14q9 0 8-8c1-7-8-11-13-6m273 1c-7 3-6 12 1 13q8 2 11-4a7 7 0 0 0-7-11zm87 2c-6 6-1 15 8 14q12-3 5-13c-3-4-10-5-13-1m92 0c-9 3-6 14 4 14q5 1 7-4c2-3 1-9-2-9q-6-2-9-1m91 0c-11 6-5 18 7 15 8-3 8-13-1-15zm87 2c-6 5-3 12 4 12q2 0 2 4 1 4 1-3 0-21-7-13M1 441c0 9 1 9 6 9 10-2 8-14-3-16H1zm87-5c-7 6-3 14 5 14 10 0 14-9 6-14q-6-4-11 0m88 1q-4 4-2 7c4 7 12 7 16 1 5-7-8-15-14-8m92 0c-4 2-5 10-1 12 7 4 16 0 15-6q-2-10-14-6m88 1q-6 10 8 12 8 0 8-7c0-6-11-10-16-5m93-1-4 8 3 5c7 6 16 2 16-6 0-5-10-10-15-7m86 4c-5 7 1 13 10 11 8-1 8-11 0-12q-9-2-10 1m94 0c-5 5 0 13 6 12q11-4 4-12-5-4-10 0m90 2q-6 5 1 10 6 4 10 0c7-6-4-16-11-10m-690 4q-3 1-4 4l-2 3v2l2 2c0 5 10 7 15 2q6-4-1-11-3-4-10-2m89 0q-7 4-3 11 6 9 14 2c8-6-1-17-11-13m-59 1c-5 2-5 10-1 13 5 5 15 1 15-5s-8-10-14-8m89 0c-6 2-7 11-1 14 8 4 17-3 14-11q-3-6-13-3m58 2q-8 8 3 15h5l3-1q5-2 6-8c0-7-12-11-17-6m33 0q-10 5-3 13 6 6 13 0c8-6-1-18-10-13m96-1h-4c-6 2-8 11-3 14 6 5 14 2 16-5 1-5-5-11-9-9m-36 1c-8 3-5 16 4 16 4 0 10-6 9-9-1-6-8-9-13-7m120 2q-9 6-2 12c4 5 14 4 16-2 3-7-7-15-14-10m-33 2c-5 10 9 17 17 10q6-4 0-10c-3-5-14-5-17 0m91 0q-6 3-1 10c5 7 14 5 14-4 0-8-7-12-13-6m88-1c-8 4-4 14 6 14 7 0 11-7 7-12q-4-6-13-2m29 1c-6 6-3 13 5 13a8 8 0 1 0-5-13m-88-1a9 9 0 1 0 12 2q-4-4-12-2m152 0c-8 2-9 10-1 15h8c10-5 4-18-7-15m26 2c-6 7 3 17 12 13q8-5 1-12c-3-4-10-4-13-1m63-1q-4 2-4 8 5 11 14 5c8-6 0-17-10-13m-659 9c-6 6-2 14 7 13q11-3 6-13-6-6-13 0m92-2q-6 3-7 8 1 6 5 7l3 1q3 3 8-1c7-7 0-18-9-15M0 470q-1 13 6 9a8 8 0 0 0-2-17H0zm266-6q-6 8 3 13c9 4 18-8 9-13q-6-4-12 0m95 0c-7 2-9 9-4 13 2 2 11 2 14 0q4-6-2-12c-4-2-4-2-8-1m87 4c-7 7-1 16 9 13q11-4 4-13-6-6-13 0m87-1c-7 5-4 15 6 15 8 0 11-8 6-14q-5-6-12-1m91 1c-8 4-6 13 4 13q8 1 8-8-2-10-12-5m93-1c-6 2-8 9-4 12q6 4 12 0c8-5 1-16-8-12M45 477c-6 5-2 15 6 15 7 0 12-8 7-13q-6-6-13-2m90 0c-4 0-8 6-8 9 3 11 19 9 19-2q-1-8-11-7m84 2q-6 4-1 9 7 9 16 1c6-5 1-13-7-13q-5 0-8 3m95 0c-6 4-5 12 2 14 6 3 13-2 13-8s-9-10-15-6m92 0a9 9 0 0 0-5 14c7 5 16 2 16-6q0-9-11-8m264 3q-8 5 0 14c6 5 17-2 14-9q-4-9-14-5m-177 0c-6 2-7 10-2 13 8 5 20-4 13-11q-6-3-11-2m85 2q-5 9 4 14c9 3 16-7 9-13q-6-6-13-1m183 0c-5 3-1 14 6 14 2 0 2 0 2-8v-8h-3zm-750 8c-8 6 2 19 11 13q9-6 1-14-7-4-12 1m93-1q-4 2-5 8c0 7 11 11 17 5s-2-16-12-13m61 0a8 8 0 0 0 2 15q8 0 8-8 0-9-10-7m-92 2c-4 3-4 10 0 12q8 4 14-1c6-8-6-17-14-11m118 1q-6 6-1 11c3 3 12 3 15-1 7-8-7-18-14-10m63-2q-12 6-4 13c6 7 17 4 17-5q1-5-5-7c-5-2-5-2-8-1m30 0c-5 3-7 10-3 13 2 2 12 3 14 1 8-6-2-18-11-14m61 1q-4 0-5 6a9 9 0 0 0 17 4q3-12-12-10m27 2c-7 9 6 19 14 11q6-7-1-12c-3-2-12-1-13 1m60-1c-6 2-7 11-1 14 9 6 21-5 14-12-3-2-10-3-13-2m32 0c-8 4-5 16 4 16q10-1 9-9-4-10-13-7m147 2c-6 2-6 12 0 14q13 1 13-6c0-6-7-10-13-8m-58 1c-3 0-6 5-6 7 0 7 12 11 17 6 6-6-1-15-11-13m86 1c-5 6 0 14 8 14q8 0 8-8t-9-8q-5 0-7 2m62-1q-8 5-2 12c6 6 16 3 16-5q-2-11-14-7m29 2q-5 4 0 9c4 6 12 5 16-1 4-8-9-15-16-8m-210 0c-7 8 4 17 13 11q5-5 0-11-7-4-13 0m-388 6q-11 7 5 7 14 1 7-5l-9-4zm-87 2q-10 5 6 5 14 1 6-5-5-4-12 0m177 0q-9 5 5 5l8-1c0-4-7-6-13-4m180 2q-8 3 6 3h9l-3-3q-5-4-12 0m-88 1q-4 3 5 2 10 1 5-3c-2-2-8-1-10 1"
        mask="url(#16282281824-posters-1720559948599-horizontal-mask)" itemprop="bold" fill-opacity="0.90"
        fill-rule="evenodd" stroke="none" fill="url(#16282281824-posters-1720559948599-vertical-bold)"></path>
    </pattern>
    <rect id="16282281824-posters-1720559948599-pattern-render" fill="url(#16282281824-posters-1720559948599-pattern)"
      width="100%" height="100%"></rect>
  </defs>
  <radialGradient id="lightbar" cx="50%" cy="200%" fy="0" r="201%">
    <stop offset="0%" style="stop-color: rgb(255, 255, 255); stop-opacity: 0.1;"></stop>
    <stop offset="10%" style="stop-color: rgb(0, 0, 0); stop-opacity: 0.1;"></stop>
    <stop offset="30%" style="stop-color: rgb(0, 0, 0); stop-opacity: 0.3;"></stop>
    <stop offset="90%" style="stop-color: rgb(0, 0, 0); stop-opacity: 0.55;"></stop>
    <stop offset="100%" style="stop-color: rgb(0, 0, 0); stop-opacity: 0.6;"></stop>
  </radialGradient>
  <g class="radial">
    <radialGradient id="16282281824-posters-1720559948599-radial" gradientUnits="userSpaceOnUse">
      <stop itemprop="radial" stop-color="#a8a7a4" offset="0%"></stop>
      <stop itemprop="radial" stop-color="#a5a4a1" offset="15%"></stop>
      <stop itemprop="radial" stop-color="#aaa9a7" offset="30%"></stop>
      <stop itemprop="radial" stop-color="#adaca9" offset="45%"></stop>
      <stop itemprop="radial" stop-color="#a8a7a4" offset="60%"></stop>
      <stop itemprop="radial" stop-color="#a8a7a4" offset="75%"></stop>
      <stop itemprop="radial" stop-color="#afaeac" offset="90%"></stop>
    </radialGradient>
    <radialGradient id="16282281824-posters-1720559948599-radial-background" gradientUnits="userSpaceOnUse">
      <stop stop-color="#d3cfc5" offset="0%"></stop>
      <stop stop-color="#d3cec5" offset="15%"></stop>
      <stop stop-color="#d3cfc5" offset="30%"></stop>
      <stop stop-color="#d3cfc5" offset="45%"></stop>
      <stop stop-color="#d3cfc5" offset="60%"></stop>
      <stop stop-color="#d3cfc5" offset="75%"></stop>
      <stop stop-color="#d3cfc5" offset="90%"></stop>
    </radialGradient>
    <radialGradient id="16282281824-posters-1720559948599-radial-light" gradientUnits="userSpaceOnUse">
      <stop stop-color="#9b9a97" offset="0%"></stop>
      <stop stop-color="#9b9a97" offset="15%"></stop>
      <stop stop-color="#9b9a97" offset="30%"></stop>
      <stop stop-color="#9b9a97" offset="45%"></stop>
      <stop stop-color="#9b9a97" offset="60%"></stop>
      <stop stop-color="#9b9a97" offset="75%"></stop>
      <stop stop-color="#9b9a97" offset="90%"></stop>
    </radialGradient>
    <radialGradient id="16282281824-posters-1720559948599-radial-regular" gradientUnits="userSpaceOnUse">
      <stop stop-color="#82817d" offset="0%"></stop>
      <stop stop-color="#82807d" offset="15%"></stop>
      <stop stop-color="#82817d" offset="30%"></stop>
      <stop stop-color="#82817d" offset="45%"></stop>
      <stop stop-color="#82817d" offset="60%"></stop>
      <stop stop-color="#82817d" offset="75%"></stop>
      <stop stop-color="#82817d" offset="90%"></stop>
    </radialGradient>
    <radialGradient id="16282281824-posters-1720559948599-radial-medium" gradientUnits="userSpaceOnUse">
      <stop stop-color="#51504d" offset="0%"></stop>
      <stop stop-color="#514f4d" offset="15%"></stop>
      <stop stop-color="#51504d" offset="30%"></stop>
      <stop stop-color="#51504d" offset="45%"></stop>
      <stop stop-color="#51504d" offset="60%"></stop>
      <stop stop-color="#51504d" offset="75%"></stop>
      <stop stop-color="#51504d" offset="90%"></stop>
    </radialGradient>
    <radialGradient id="16282281824-posters-1720559948599-radial-bold" gradientUnits="userSpaceOnUse">
      <stop stop-color="#2f2e2d" offset="0%"></stop>
      <stop stop-color="#2f2e2d" offset="15%"></stop>
      <stop stop-color="#2f2e2d" offset="30%"></stop>
      <stop stop-color="#2f2e2d" offset="45%"></stop>
      <stop stop-color="#2f2e2d" offset="60%"></stop>
      <stop stop-color="#2f2e2d" offset="75%"></stop>
      <stop stop-color="#2f2e2d" offset="90%"></stop>
    </radialGradient>
  </g>
  <g class="vertical">
    <linearGradient id="16282281824-posters-1720559948599-vertical" gradientUnits="userSpaceOnUse" x1="0" x2="0" y1="0"
      y2="100%">
      <stop itemprop="vertical" stop-color="#a8a7a4" offset="0%"></stop>
      <stop itemprop="vertical" stop-color="#a5a4a1" offset="15%"></stop>
      <stop itemprop="vertical" stop-color="#aaa9a7" offset="30%"></stop>
      <stop itemprop="vertical" stop-color="#adaca9" offset="45%"></stop>
      <stop itemprop="vertical" stop-color="#a8a7a4" offset="60%"></stop>
      <stop itemprop="vertical" stop-color="#a8a7a4" offset="75%"></stop>
      <stop itemprop="vertical" stop-color="#afaeac" offset="90%"></stop>
    </linearGradient>
    <linearGradient id="16282281824-posters-1720559948599-vertical-background" gradientUnits="userSpaceOnUse" x1="0"
      x2="0" y1="0" y2="100%">
      <stop stop-color="#cdcccb" offset="0%"></stop>
      <stop stop-color="#cdcccb" offset="15%"></stop>
      <stop stop-color="#cdcdcb" offset="30%"></stop>
      <stop stop-color="#cdcdcb" offset="45%"></stop>
      <stop stop-color="#cdcccb" offset="60%"></stop>
      <stop stop-color="#cdcdcb" offset="75%"></stop>
      <stop stop-color="#cdcdcb" offset="90%"></stop>
    </linearGradient>
    <linearGradient id="16282281824-posters-1720559948599-vertical-light" gradientUnits="userSpaceOnUse" x1="0" x2="0"
      y1="0" y2="100%">
      <stop stop-color="#aea284" offset="0%"></stop>
      <stop stop-color="#ae9f84" offset="15%"></stop>
      <stop stop-color="#aea484" offset="30%"></stop>
      <stop stop-color="#aea484" offset="45%"></stop>
      <stop stop-color="#aea284" offset="60%"></stop>
      <stop stop-color="#aea484" offset="75%"></stop>
      <stop stop-color="#aea484" offset="90%"></stop>
    </linearGradient>
    <linearGradient id="16282281824-posters-1720559948599-vertical-regular" gradientUnits="userSpaceOnUse" x1="0" x2="0"
      y1="0" y2="100%">
      <stop stop-color="#82817d" offset="0%"></stop>
      <stop stop-color="#82807d" offset="15%"></stop>
      <stop stop-color="#82817d" offset="30%"></stop>
      <stop stop-color="#82817d" offset="45%"></stop>
      <stop stop-color="#82817d" offset="60%"></stop>
      <stop stop-color="#82817d" offset="75%"></stop>
      <stop stop-color="#82817d" offset="90%"></stop>
    </linearGradient>
    <linearGradient id="16282281824-posters-1720559948599-vertical-medium" gradientUnits="userSpaceOnUse" x1="0" x2="0"
      y1="0" y2="100%">
      <stop stop-color="#51504d" offset="0%"></stop>
      <stop stop-color="#514f4d" offset="15%"></stop>
      <stop stop-color="#51504d" offset="30%"></stop>
      <stop stop-color="#51504d" offset="45%"></stop>
      <stop stop-color="#51504d" offset="60%"></stop>
      <stop stop-color="#51504d" offset="75%"></stop>
      <stop stop-color="#51504d" offset="90%"></stop>
    </linearGradient>
    <linearGradient id="16282281824-posters-1720559948599-vertical-bold" x1="0" x2="0" y1="0" y2="100%">
      <stop stop-color="#2f2e2d" offset="0%"></stop>
      <stop stop-color="#2f2e2d" offset="15%"></stop>
      <stop stop-color="#2f2e2d" offset="30%"></stop>
      <stop stop-color="#2f2e2d" offset="45%"></stop>
      <stop stop-color="#2f2e2d" offset="60%"></stop>
      <stop stop-color="#2f2e2d" offset="75%"></stop>
      <stop stop-color="#2f2e2d" offset="90%"></stop>
    </linearGradient>
  </g>
  <g class="horizontal">
    <linearGradient id="16282281824-posters-1720559948599-horizontal" x1="0" x2="100%" y1="0" y2="0"
      gradientUnits="userSpaceOnUse">
      <stop itemprop="horizontal" stop-color="#a8a6a4" offset="0%"></stop>
      <stop itemprop="horizontal" stop-color="#a8a7a4" offset="15%"></stop>
      <stop itemprop="horizontal" stop-color="#adaca9" offset="30%"></stop>
      <stop itemprop="horizontal" stop-color="#a8a6a4" offset="45%"></stop>
      <stop itemprop="horizontal" stop-color="#adaca9" offset="60%"></stop>
      <stop itemprop="horizontal" stop-color="#aaa9a7" offset="75%"></stop>
      <stop itemprop="horizontal" stop-color="#afaeac" offset="90%"></stop>
    </linearGradient>
    <linearGradient id="16282281824-posters-1720559948599-horizontal-background" gradientUnits="userSpaceOnUse" x1="0"
      x2="100%" y1="0" y2="0">
      <stop stop-color="#cdcccb" offset="0%"></stop>
      <stop stop-color="#cdcccb" offset="15%"></stop>
      <stop stop-color="#cdcdcb" offset="30%"></stop>
      <stop stop-color="#cdcccb" offset="45%"></stop>
      <stop stop-color="#cdcdcb" offset="60%"></stop>
      <stop stop-color="#cdcdcb" offset="75%"></stop>
      <stop stop-color="#cdcccb" offset="90%"></stop>
    </linearGradient>
    <linearGradient id="16282281824-posters-1720559948599-horizontal-light" gradientUnits="userSpaceOnUse" x1="0"
      x2="100%" y1="0" y2="0">
      <stop stop-color="#9b9a97" offset="0%"></stop>
      <stop stop-color="#9b9a97" offset="15%"></stop>
      <stop stop-color="#9b9a97" offset="30%"></stop>
      <stop stop-color="#9b9a97" offset="45%"></stop>
      <stop stop-color="#9b9a97" offset="60%"></stop>
      <stop stop-color="#9b9a97" offset="75%"></stop>
      <stop stop-color="#9b9a97" offset="90%"></stop>
    </linearGradient>
    <linearGradient id="16282281824-posters-1720559948599-horizontal-regular" gradientUnits="userSpaceOnUse" x1="0"
      x2="100%" y1="0" y2="0">
      <stop stop-color="#968669" offset="0%"></stop>
      <stop stop-color="#968969" offset="15%"></stop>
      <stop stop-color="#968b69" offset="30%"></stop>
      <stop stop-color="#968669" offset="45%"></stop>
      <stop stop-color="#968b69" offset="60%"></stop>
      <stop stop-color="#968b69" offset="75%"></stop>
      <stop stop-color="#968669" offset="90%"></stop>
    </linearGradient>
    <linearGradient id="16282281824-posters-1720559948599-horizontal-medium" gradientUnits="userSpaceOnUse" x1="0"
      x2="100%" y1="0" y2="0">
      <stop stop-color="#5d5341" offset="0%"></stop>
      <stop stop-color="#5d5541" offset="15%"></stop>
      <stop stop-color="#5d5641" offset="30%"></stop>
      <stop stop-color="#5d5341" offset="45%"></stop>
      <stop stop-color="#5d5641" offset="60%"></stop>
      <stop stop-color="#5d5641" offset="75%"></stop>
      <stop stop-color="#5d5341" offset="90%"></stop>
    </linearGradient>
    <linearGradient id="16282281824-posters-1720559948599-horizontal-bold" gradientUnits="userSpaceOnUse" x1="0"
      x2="100%" y1="0" y2="0">
      <stop stop-color="#2f2e2d" offset="0%"></stop>
      <stop stop-color="#2f2e2d" offset="15%"></stop>
      <stop stop-color="#2f2e2d" offset="30%"></stop>
      <stop stop-color="#2f2e2d" offset="45%"></stop>
      <stop stop-color="#2f2e2d" offset="60%"></stop>
      <stop stop-color="#2f2e2d" offset="75%"></stop>
      <stop stop-color="#2f2e2d" offset="90%"></stop>
    </linearGradient>
  </g>
  <g class="masks">
    <mask id="16282281824-posters-1720559948599-pattern-mask" maskUnits="userSpaceOnUse"
      maskContentUnits="userSpaceOnUse">
      <pattern id="pattern" x="0" y="0" width=".0133" height=".0144" viewBox="0 0 23.07 40">
        <path
          d="M17.62 0l-6.07 10.5m2.74 4.76L8.22 4.75m-5.48 0h12.13M.01 0h23.07M6.07 20L0 9.5m2.74-4.75l-6.07 10.5m-5.48 0H3.33m8.2 4.75L0 .02-11.54 20m40.68 0L23.07 9.5m2.74-4.75l-6.06 10.5m-5.49 0H26.4M34.6 20L23.08.02 11.53 20m-5.46 0L0 30.51m2.74 4.75l-6.07-10.5m-5.48 0H3.33m8.2-4.75L0 40l-11.54-19.98zM17.6 40l-6.06-10.5m2.74-4.76L8.2 35.25m-5.48 0h12.13M0 40h23.07L11.54 20.01m17.6 0l-6.07 10.5m2.74 4.75l-6.06-10.5m-5.49 0H26.4M11.53 20h23.08L23.07 40"
          stroke-linecap="round" stroke-width="3.5" stroke="white"
          fill="url(#16282281824-posters-1720559948599-horizontal-background)"></path>
      </pattern>
      <rect width="100%" height="100%" fill="url(#pattern)"></rect>
    </mask>
    <mask id="16282281824-posters-1720559948599-horizontal-mask" maskUnits="userSpaceOnUse"
      maskContentUnits="userSpaceOnUse">
      <rect width="100%" height="100%" fill="url(#16282281824-posters-1720559948599-horizontal-background)"></rect>
    </mask>
    <mask id="16282281824-posters-1720559948599-radial-mask" maskUnits="userSpaceOnUse"
      maskContentUnits="userSpaceOnUse">
      <rect width="100%" height="100%" fill="url(#16282281824-posters-1720559948599-radial-background)"></rect>
    </mask>
    <mask id="16282281824-posters-1720559948599-vertical-mask" maskUnits="userSpaceOnUse"
      maskContentUnits="userSpaceOnUse">
      <rect width="100%" height="100%" fill="url(#16282281824-posters-1720559948599-vertical-background)"></rect>
    </mask>
  </g>
  <use href="#16282281824-posters-1720559948599-pattern-render"></use>
  <g>
    <use href="#16282281824-posters-1720559948599-background"></use>
    <use href="#16282281824-posters-1720559948599-light"></use>
    <use href="#16282281824-posters-1720559948599-regular"></use>
    <use href="#16282281824-posters-1720559948599-medium"></use>
    <use href="#16282281824-posters-1720559948599-bold"></use>
  </g>
  <g itemprop="animation">
    <animate href="#16282281824-posters-1720559948599-light" attributeName="stroke-opacity" repeatCount="indefinite"
      dur="5s" values="0.9;0.0;0.9"></animate>
    <animate href="#16282281824-posters-1720559948599-regular" attributeName="stroke-opacity" repeatCount="indefinite"
      dur="4s" values="0.9;0;0.9"></animate>
    <animate href="#16282281824-posters-1720559948599-medium" attributeName="stroke-opacity" repeatCount="indefinite"
      dur="5s" values="0.9;0;0.9"></animate>
    <animate href="#16282281824-posters-1720559948599-bold" attributeName="stroke-opacity" repeatCount="indefinite"
      dur="3s" values="0.9;0;0.9"></animate>
    <animate href="#16282281824-posters-1720559948599-regular" attributeName="fill-opacity" repeatCount="indefinite"
      dur="8s" values="0.9;0.75;0.95;0.8;0.9;"></animate>
    <animate href="#16282281824-posters-1720559948599-radial-background" attributeName="cx" repeatCount="indefinite"
      dur="34s" values="0%;33%;100%;0%;100%;0%;"></animate>
    <animate href="#16282281824-posters-1720559948599-radial-background" attributeName="cy" repeatCount="indefinite"
      dur="55s" values="0%;100%;33%;100%;66%;0%"></animate>
    <animate href="#16282281824-posters-1720559948599-vertical-light" attributeName="x1" repeatCount="indefinite"
      dur="55s" values="0%;33%;100%;0%;133%;0%;"></animate>
    <animate href="#16282281824-posters-1720559948599-vertical-light" attributeName="y1" repeatCount="indefinite"
      dur="86s" values="0%;100%;33%;100%;66%;0%"></animate>
    <animate href="#16282281824-posters-1720559948599-horizontal-regular" attributeName="x1" repeatCount="indefinite"
      dur="34s" values="0%;100%;66%;0%;33%;133%;0%"></animate>
    <animate href="#16282281824-posters-1720559948599-horizontal-regular" attributeName="y1" repeatCount="indefinite"
      dur="55s" values="0%;66%;100%;33%;100%;66%;0%"></animate>
    <animate href="#16282281824-posters-1720559948599-vertical-medium" attributeName="x1" repeatCount="indefinite"
      dur="34s" values="0%;100%;66%;0%;33%;133%;0%"></animate>
    <animate href="#16282281824-posters-1720559948599-vertical-medium" attributeName="y1" repeatCount="indefinite"
      dur="55s" values="0%;66%;100%;33%;100%;66%;0%"></animate>
    <animate href="#16282281824-posters-1720559948599-vertical-bold" attributeName="x1" repeatCount="indefinite"
      dur="34s" values="0%;100%;66%;0%;33%;133%;0%"></animate>
    <animate href="#16282281824-posters-1720559948599-vertical-bold" attributeName="y1" repeatCount="indefinite"
      dur="55s" values="0%;66%;100%;33%;100%;66%;0%"></animate>
  </g>
</svg>
