<svg id="16282281824-posters-1720558202422" itemscope="" itemtype="/posters"
  itemid="/+16282281824/posters/1720558202422" viewBox="0 0 769 512" preserveAspectRatio="xMidYMid meet" tabindex="0"
  class="animate landscape" xmlns="http://www.w3.org/2000/svg">
  <!---->
  <defs class="graphic">
    <pattern id="16282281824-posters-1720558202422-pattern" width="769" height="512" viewBox="0 0 769 512"
      patternUnits="userSpaceOnUse" preserveAspectRatio="xMidYMid meet">
      <rect itemprop="background" width="769" height="512" tabindex="-1"
        id="16282281824-posters-1720558202422-background" fill-opacity="1"
        fill="url(#16282281824-posters-1720558202422-radial-background)"></rect>
      <!---->
      <path id="16282281824-posters-1720558202422-light"
        d="M31 5q-7 9 0 10 2 2 15-9 8-7-4-6h-8zm46-1q-7 9 1 11c3 0 4-1 11-7l7-7-8-1h-8zm46-2c-7 9-3 15 6 10 4-2 11-10 11-11l-7-1q-9 0-10 2m45 1c-9 10-1 15 9 7l10-9-8-1q-10-1-11 3m44 1c-6 6-3 13 5 9 3-1 14-11 14-12l-8-1c-8 0-8 0-11 4m45 0q-7 11 3 11c3-1 16-13 16-14l-8-1h-9zm46-1q-7 11 2 12c3 0 17-12 17-14l-8-1c-8 0-8 0-11 3m47 1q-3 3-1 6 3 7 16-5l6-5h-18zm45-1q-5 11 5 9c3-1 14-10 14-11l-8-1c-8 0-9 0-11 3m45 1c-4 10 6 9 16-1l2-3h-17zm43-2c-5 6-1 12 6 9l12-10-8-1q-10 0-10 2m46 2q-5 4-1 7 3 7 18-9 4-2-6-2c-8 0-8 0-11 4m47-3q-2 5 1 8c3 2 14-5 14-8 0-2-14-1-15 0m43 1q-3 7 4 8c2 0 12-8 12-9 0-2-14-1-16 1m48 1q-5 5-1 7 4 4 11-2c8-8 8-8 0-8s-8 0-10 3m45-1q-5 8 4 8l11-9c0-2-14-1-15 1m45 0c-6 6 0 12 7 7q11-9 0-9-6 0-7 2M590 32c-14 13-15 14-16 17q0 6 5 6c5 0 28-24 28-28q0-4-4-4c-3 0-4 1-13 9m92 1c-16 16-17 18-14 21q4 5 16-8l11-9c4-5 6-12 2-13-4-2-6-1-15 9m-493-6c-8 5-26 25-26 28 0 5 8 5 13 1 12-11 25-24 25-26q-1-10-12-3m46-1-25 25c-3 4 2 9 8 7l21-19q11-11 2-14-2-1-6 1m182 1c-7 5-24 23-25 26-1 7 6 8 13 2 8-6 20-18 22-21 4-8-3-13-10-7m134-2-2 3-9 10q-17 15-11 17 4 4 11-2 24-22 22-25c0-4-7-6-11-3m83 10q-23 23-8 21c2 0 4-2 15-12 12-12 14-15 12-18-3-5-6-3-19 9m-172-8c-6 4-23 23-23 26q1 4 7 4c5-2 25-22 25-27q-1-8-9-3m273-1-12 11c-10 10-11 11-11 14q2 14 26-15c6-7 4-13-3-10M55 27c-4 2-23 21-25 24q-2 9 6 8c4-1 25-21 27-26q2-10-8-6m212 12c-12 12-13 14-13 16q2 7 12 1l13-13 5-4 3-4q6-8-3-9c-4 0-5 1-17 13m48-1c-12 12-13 14-11 18q3 4 11-1 31-27 15-29c-3 0-5 1-15 12m55-9c-6 4-19 17-21 21-4 7 2 10 10 6 6-4 19-18 21-22 2-7-4-10-10-5m137-2-7 5-4 5c-14 14-16 18-11 20 4 2 7 0 17-10q17-15 11-19-2-3-6-1M99 28 86 40C75 51 74 52 74 55q-1 4 3 4 6 1 8-2l8-7 11-11q10-14-5-11m44 1c-5 3-22 21-23 24-1 5 5 8 10 4l20-20q5-11-7-8M6 30l-1 2q-5 1-5 12c0 9 0 9 9 0 6-7 7-8 7-11q1-4-5-4zm757 12q-10 9-5 12 2 3 5 1c6-3 6-4 6-12v-7zM189 71l-11 11-5 5c-11 9-10 19 1 15 6-2 25-23 25-27q-1-9-10-4m456 0-14 13c-9 10-10 11-10 14q1 12 21-9c12-12 13-15 10-18q-2-4-7 0m46 0-23 23c-3 1 1 4 4 5 4 0 5-1 13-9q19-17 11-20-2-2-5 1m44 0c-4 2-19 18-21 22q-2 2 1 4 3 5 18-10c11-11 12-13 9-16q-3-3-7 0m-142 6q-23 20-14 23c3 2 6 0 19-13q15-14 8-16-3-4-13 6m-233 6c-14 14-14 16-11 18 5 4 8 2 21-11 11-12 13-14 9-17-4-4-7-3-19 10M44 82c-13 12-15 16-14 19q3 11 23-10c9-10 9-10 9-14q0-6-4-5c-4 0-4 1-14 10m92-2-12 11c-10 8-5 17 6 11 8-5 23-23 23-26q0-4-5-4c-4 0-4 0-12 8m97-6c-5 3-19 17-21 20-3 6 4 11 9 7l7-6c7-6 14-15 14-18q-1-7-9-3m92-1-7 8q-22 19-11 21c5 1 15-4 15-8l7-8q10-10 6-13zm127 10c-12 12-14 15-10 17q5 5 19-11 13-13 9-16-3-5-18 10m45-1c-13 13-13 14-12 17q4 6 14-4l8-7 3-3 2-3c2 0 3-6 2-8q-3-8-17 8m43 1c-12 12-13 15-9 17q4 3 19-12 16-15 5-16c-4 0-4 0-15 11M7 75l-3 2q-4 0-4 11c0 10 0 10 10 0q6-7 6-10-1-8-9-3m91 0c-5 2-24 21-24 24q2 9 12 2l11-11c1 0 7-5 9-9q3-9-8-6m181 0-5 4c-15 14-17 17-17 19q1 5 5 6c5 0 26-21 26-25q0-9-9-4m136 0c-3 1-19 18-21 22q-3 5 5 5c4 0 5-1 14-10 12-12 13-13 11-17q-2-4-9 0m348 11q-10 10-2 13 7 2 8-10 2-13-6-3m-161 28-22 21c-8 10 1 14 11 5l9-8q9-8 10-12c2-5-4-8-8-6m-93 1c-2 1-22 21-23 24-3 7 5 8 12 1l19-19q0-8-8-6m138 0c-4 1-26 24-26 27q1 9 11 2l19-19a6 6 0 0 0-1-11zm43 1-21 22c-4 5 0 10 7 7 4-3 24-23 24-26q-1-7-10-3m44 0c-18 14-27 32-15 29 4 0 22-18 25-23 3-7-3-11-10-6m-545 1c-4 2-19 18-23 23-5 6 1 11 9 6 5-3 24-23 24-25 0-5-6-7-10-4m231 0c-5 3-25 22-25 25q-1 5 6 6c7-2 27-23 27-28q-1-7-8-3m124 10c-13 13-14 16-11 19s6 2 17-10q18-16 14-19c-3-5-7-3-20 10m-219-8c-8 5-22 21-22 25q-1 4 6 4c5 0 27-21 27-27q0-9-11-2m139-2-14 12-6 7q-9 9 1 11c5 0 26-21 26-26q0-7-7-4M5 122l-5 4v8l1 8 18-19q0-11-14-1m81 7c-13 13-14 16-10 19 3 3 13-2 20-11l7-7q11-12-2-13-1-1-15 12m57-11q-22 20-23 26 0 4 5 4l5-1 6-5 8-8 6-6q5-6 2-10zm92 0c-6 2-23 22-23 26q1 4 8 4c4-1 25-24 25-27s-6-5-10-3m46 0q-4 2-21 18c-6 6-3 13 5 12 4-1 25-23 25-26q-1-6-9-4m91 0c-3 1-24 22-24 25q-1 5 5 5c7 0 30-24 27-29q-2-3-8-1m-327 9c-14 13-17 17-13 21s8 1 26-17q9-10 0-13c-4 0-5 1-13 9m718 6q-11 15 4 10 3 0 2-8 2-12-6-2m-161 25c-5 3-24 23-25 26-1 6 5 8 10 4 6-4 23-21 24-24q3-11-9-6m-137 2c-3 1-23 21-25 26q-3 9 8 5l24-23q5-11-7-8m267 4a92 92 0 0 0-19 22c-2 4 5 7 8 4l4-4c5-4 20-20 20-22q-1-9-13 0m-542-2c-4 2-20 19-22 22q-5 10 7 7l5-3c3 0 21-20 21-23 0-4-7-6-11-3m45 0c-4 2-19 17-21 21q-4 5 0 8 5 4 16-7l10-9c10-8 6-20-5-13m46 0c-9 8-24 23-24 26q1 3 6 5c4 0 27-21 29-26 1-6-6-9-11-5m46 0-14 13-12 12 1 3q6 8 16-4l5-5 14-14c3-5-4-9-10-5m47 0c-4 2-19 17-22 21q-6 10 2 10c6 0 30-23 30-29 0-4-6-6-10-2m170 8c-14 15-16 19-10 21 3 1 6 0 16-11 13-12 15-15 12-18q-3-7-18 8m97-6c-9 10-20 22-20 24q1 6 9 4l23-22c5-8-5-14-12-6m51-3c-4 0-23 19-25 24-2 6 5 8 11 4 19-15 27-30 14-28M6 166l-6 5v7l1 7c3 0 18-17 18-19q-1-10-13 0m46-2c-10 7-17 16-17 19v4h10l8-8c11-11 12-13 10-16q-5-4-11 1m46-2c-4 3-22 22-23 25q-1 7 8 6c2-1 20-17 22-21 5-7 0-13-7-10m35 10q-17 15-14 19 3 9 22-10c12-12 13-14 11-18q-3-8-19 9m286-9c-3 2-20 17-23 22-4 5 2 10 8 6 6-3 23-21 23-24q0-7-8-4m90 0-21 21q-4 9 6 7c4-1 20-16 23-22 4-6-2-11-8-6m256 12q-12 13-2 13 7 1 6-10v-7zM6 209l-6 6v8l1 7c3 0 20-19 20-22q-1-11-15 1m551-4-2 1c-2 0-11 9-15 14l-3 3c-3 0-7 8-5 10q3 8 23-12 14-15 7-16-3-3-5 0m-376 10c-15 15-17 19-11 21q3 2 15-7c16-15 18-18 15-23q-3-8-19 9m57-10c-3 2-21 19-23 24q-4 7 4 7c4 0 6-1 16-10q16-17 10-20-3-3-7-1m125 10c-12 13-14 15-12 19q5 7 20-9c13-12 15-16 12-20-4-3-8-1-20 10m374-10-1 1c-2 0-23 21-23 24q-1 4 3 6 4 1 18-14 13-13 9-16c-1-2-6-3-6-1m-591 2c-5 2-25 22-25 25q1 13 21-6c13-13 15-16 11-19q-3-3-7 0m136-1-13 12c-10 10-11 11-11 14q0 7 7 4c6-1 27-23 27-27q-1-5-10-3m47 0c-2 1-22 20-24 24s4 8 9 5c5-2 24-22 24-24q-1-6-9-5m316 1-9 8c-12 14-14 17-7 18 5 0 6-1 17-11q8-8 9-12 0-8-10-3m-546 0c-2 0-12 10-19 18q-10 11 0 12c5 0 27-21 27-26q-1-7-8-4m364 2c-5 3-18 16-20 20q-5 9 5 8c3 0 13-9 22-19 8-9 3-16-7-9m45 0q-28 23-20 27 4 4 18-10c12-12 14-15 11-18q-3-4-9 1m92-1c-4 2-18 16-20 19q-6 12 8 6c6-4 18-16 20-20q3-10-8-5m91 0-2 1c-2 0-17 15-18 18-5 9 4 10 13 2 14-14 18-18 15-22q-4-2-8 1m-275 0c-3 2-20 20-21 23-2 5 4 8 10 4 8-6 20-20 20-23q-1-7-9-4m-364 7-5 1c-4 1-13 9-16 14q-3 9 7 6c4-1 18-14 19-17q0-5-5-4m713 6-5 6c-5 4-1 10 5 7l4-1v-16zM7 253l-6 5-1 9c0 10 0 10 8 1 14-14 15-15 12-19q-3-6-13 4m175 7c-12 12-13 13-13 16q0 4 3 4c4 2 8-1 20-14q16-13 8-18c-3-2-5-1-18 12m150-12c-8 4-26 23-26 28q1 5 7 4c5-2 26-24 26-27q-2-6-7-5m273 1c-3 1-13 9-13 11l-4 4q-12 10-4 14 5 0 12-7l9-8c9-9 9-18 0-14m89 0c-3 1-19 16-22 21q-3 4-1 6 4 8 19-9c13-13 13-14 10-17q-1-3-6-1m45 0-5 4-10 9c-9 8-11 17-4 17 2 0 10-5 12-8l6-7q15-15 6-16zM44 260c-14 15-15 15-13 19 4 5 8 2 24-14q16-16 4-16h-4zm58-10-21 21q-6 6-1 9 6 3 19-11 16-15 9-18-3-3-6-1m42 2-20 21q0 6 6 6c4 0 9-4 23-18 8-9 1-17-9-9m95-2c-3 0-22 19-23 23q0 11 15 0c13-12 16-15 16-18q-2-4-5-6zm45 1c-5 2-20 17-22 21q-5 11 7 8c3-2 18-15 22-21 5-6 0-12-7-8m79 9c-10 11-11 12-11 15q2 6 10 2c5-3 22-21 22-23q-1-5-6-5c-3 0-5 1-15 11m59-9c-5 2-24 23-24 25q1 5 8 4c3-1 19-16 22-21q6-12-6-8m45-1-2 2-7 6-8 9c-9 8-8 18 2 13 4-3 21-20 23-24 2-5-4-10-8-6m44 1c-7 4-24 23-24 26 0 7 8 6 15-3l10-10q8-8 7-11 0-6-8-2m45 1-6 5c-18 17-20 20-16 23h7c4-2 22-21 23-24 3-6-3-9-8-4m87 2c-14 15-17 18-17 21q1 7 7 4c4-2 23-20 24-23 2-9-6-10-14-2m121 14c-5 6-3 12 3 9q3 0 2-7 1-10-5-2m-480 27c-4 2-22 20-23 23q-3 6 2 7c3 3 5 2 17-10 13-13 16-17 11-20q-3-3-7 0m309 10c-10 11-12 13-12 16q1 11 20-8c13-13 15-16 9-19-4-2-4-2-17 11m56-11-17 17c-8 8-8 16 0 14 3-1 24-21 25-25q2-9-8-6M8 296c-7 6-8 7-8 17v8l7-6q12-12 12-17-2-7-11-2m185 0-21 20c-4 6 0 11 7 7s21-18 22-23c2-5-4-7-8-4m270 2-7 7a45 45 0 0 0-13 16q1 7 7 5 5-3 19-18c11-12 6-20-6-10m230-2-18 17q-7 10 3 12l13-12c10-11 11-12 11-15q-2-6-9-2m46-1c-3 1-22 20-22 23q-1 5 2 6 4 4 22-18 9-14-2-11M46 306q-16 15-12 18c3 5 6 3 20-10 11-12 13-15 10-18-4-3-7-1-18 10m56-10a61 61 0 0 0-17 15q-12 16 1 14c4 0 23-19 24-23q1-8-8-6m41 4q-9 7-17 17-5 7 4 8c4 0 5-1 14-10q17-15 10-18-2-5-11 3m185-3c-5 3-22 21-22 23q1 9 11 2c6-5 18-17 20-21 3-5-3-8-9-4m38 8c-12 11-14 14-11 18q5 6 18-8l8-7c2 0 5-10 3-12q-4-5-18 9m144-8c-5 4-21 20-21 22q0 5 5 5c4 0 20-15 24-22 4-6-2-10-8-5m42 3c-18 16-21 21-17 24 5 3 8 1 24-15q10-10 4-13-4-3-11 4m-132-2c-6 4-22 20-23 23q-1 8 7 6c3-1 19-16 23-21 6-8 1-13-7-8m-193 8q-18 19-6 19 7 0 21-17 5-6 3-8-2-9-18 6m539 7q-7 9 1 10 3 2 2-6 0-11-3-4m-481 27c-4 1-27 24-27 28q0 5 5 5c5 0 30-24 30-29q-2-5-8-4m365 1c-4 2-19 16-22 21-4 7 1 12 8 7 6-4 20-19 21-22q2-11-7-6m-410 0c-3 0-25 22-26 26-1 6 6 8 12 3q22-19 22-25-2-4-5-5zm182 0-25 24q0 10 11 4c7-5 22-20 23-23q1-8-9-5m272 0c-2 1-21 20-22 23q-1 9 8 5c7-4 22-21 22-24a5 5 0 0 0-8-4m38 7-12 12q-11 12 3 11c4-1 24-23 24-26q-1-11-15 3m-675-5c-7 4-23 22-23 26q2 5 8 3c5-2 21-19 23-23q3-10-8-6m45 0c-4 2-19 17-22 21-4 5 1 10 7 7 4-1 19-15 21-19q6-12-6-9m45-1-16 14c-11 10-11 18-1 15 4 0 21-16 23-21q5-11-6-8m43 2c-9 8-21 21-21 24q2 7 11 1c5-3 21-19 22-21 2-7-5-9-12-4m137 0-5 4-8 9q-13 12-6 14 6 4 18-9c12-12 14-15 12-19q-4-5-11 1m46-1c-7 5-20 19-21 23q0 9 11 2c6-4 18-16 19-20q3-10-9-5m82 10c-12 12-13 14-10 16q4 6 15-5 25-23 11-23h-4zm98-8-4 5-1 2c-3 0-16 14-16 16q-1 12 18-5c15-13 15-14 15-18q-2-8-12 0m46 0c-18 16-20 20-17 24 3 3 7 0 20-12q17-16 5-16-4 0-8 4m-89-2c-5 3-23 22-23 25q0 5 7 3c4-1 25-21 25-25q-1-5-9-3M9 345l-6 5-3 3v18l11-10c10-11 12-14 9-17q-5-3-11 1m755 14c-6 6-6 6-3 9q3 3 6 0 3 0 2-8v-6zM14 386l-8 7-6 6v8q-2 14 10-1c14-14 15-16 11-20q-4-3-7 0m42 1c-10 8-21 21-21 25q2 8 12 2l19-20c6-8-2-13-10-7m182-1-6 5-6 5-6 7q-10 13 0 13c6 0 27-21 27-26q-1-8-9-4m93 0c-5 2-24 22-25 25-2 8 6 9 14 1 19-19 22-23 17-27q-1-2-6 1m225 1c-10 8-23 22-23 24q1 7 8 4c4-3 23-21 24-24 3-6-3-9-9-4m-454-1c-6 3-24 23-24 27 0 5 7 6 13 0 18-16 22-21 19-26q-3-3-8-1m627 9q-16 16-14 18 2 8 18-7 20-20 9-21c-3 0-4 1-13 10m-581-7-5 3-4 4q-23 21-11 22c5 0 28-20 28-25q1-9-8-4m45-1c-2 1-20 19-21 22q-3 3 0 5 3 5 12-3c17-15 20-19 18-23q-2-3-9-1m91 1c-4 2-23 22-23 24q1 5 7 5c3-1 11-8 16-13l6-7c6-7 2-13-6-9m79 9c-11 12-12 14-10 17q5 6 23-14 14-14 2-14c-3 0-4 1-15 11m58-10-2 2c-3 0-21 20-21 22q1 8 10 3l5-3 1-1 6-7q12-11 9-15t-8-1m39 6q-21 19-14 22 4 4 16-9 16-15 13-18-3-7-15 5m231-3-6 6-7 8q-12 13-3 13 5 1 15-10c14-14 15-16 11-19q-2-4-10 2m-182-1-12 12-9 11c-2 1 2 5 4 5 6 0 27-21 27-26q-3-6-10-2m95-1-2 1-2 2-1 1a58 58 0 0 0-16 18q-3 0 0 4 3 3 7 1l2-2c2 0 18-17 20-20v-4c-2-2-8-3-8-1m44 1c-6 2-22 20-22 25q2 12 27-16c5-6 2-12-5-9m118 14-5 9q0 4 5 4h3v-7q1-11-3-6M60 429c-4 3-24 23-25 27q-1 4 4 5 5 2 24-19c5-6 7-13 4-13zm135 1c-3 1-22 19-24 23q-2 7 4 7c5 0 27-20 29-26q0-7-9-4m227 0c-5 3-24 23-24 25q1 5 8 4c5-1 25-21 25-26q0-3-3-4c-3-1-2-1-6 1m-139 2-20 21c-3 6 3 9 9 5s20-18 23-23c4-6-6-8-12-3m40 5c-17 17-19 20-14 23q5 4 17-9c14-14 16-16 14-19-4-5-7-4-17 5m53-5c-8 6-23 21-23 23q0 5 5 5c5 0 27-22 27-27q-1-7-9-1m125 8c-14 14-15 16-13 19q4 8 19-9c12-12 15-15 13-19q-1-2-5-2c-3 0-4 1-14 11m56-7q-27 23-19 27c2 1 7-1 7-2l1-1c3 0 22-21 22-23q-1-9-11-1m-408-1c-6 4-23 22-23 24q1 7 9 4c4-2 22-21 23-24q0-9-9-4m308 9q-17 18-9 19c5 1 7-1 17-12 11-10 12-12 11-16q-2-8-19 9m238-10c-3 2-12 10-12 12l-3 2c-4 2-8 9-8 12q2 6 10-1 19-16 20-21 0-7-7-4m33 11c-12 13-14 16-10 18q4 5 19-12c10-11 12-14 9-17s-6-1-18 11M15 432l-12 9c-3 3-3 3-3 12l1 9 8-9 11-11c4-6 1-13-5-10m227 0c-6 2-23 20-24 24q-1 8 8 4c4-2 20-18 23-22q2-8-7-6m-146 6a88 88 0 0 0-18 21q1 5 8 4c4-2 24-21 24-24 3-9-5-10-14-1m498 4q-17 16-9 18c5 1 7-1 17-11q13-12 9-16-3-5-17 9m46 0-12 13v6q5 5 21-12 17-17 5-17c-4 0-5 1-14 10m125 9q-7 5-2 8 6 6 6-6 1-10-4-2m-392 27q-30 26-16 27c5 0 28-22 28-27q-1-10-12 0m279-4c-4 2-25 24-25 26q1 8 10 3c4-2 22-21 23-23 0-2-2-7-4-7zm-320 1c-2 1-5 3-16 15q-11 10-7 13c1 4 13 0 13-3l4-5q20-15 12-20zm365 0c-4 2-25 24-25 26q0 4 5 4c3 0 14-7 14-9l5-6q13-14 7-15zM8 482l-8 7v8l1 8 21-22q4-4 1-7-5-5-15 6m98-6q-3 1-8 7l-11 10c-9 8-4 17 5 11l21-22q0-8-7-6m32 10-12 13q0 11 11 3c18-14 25-27 15-27-3 0-4 1-14 11m102-10c-3 2-21 19-22 22v5q3 6 17-6l7-7 4-5c6-6 2-13-6-9m43 2c-6 5-18 16-20 21-3 6 4 8 11 3 6-4 18-18 19-20 3-6-3-9-10-4m137 0q-30 26-16 27c5 0 25-19 27-24q0-10-11-3m44 0-21 23q0 5 6 5c6-1 26-22 26-26q-2-8-11-2m270 5-8 8-1 1c-3 0-8 8-8 11q3 10 18-6l8-9q9-10 6-12-5-5-15 7m-687 5c-11 12-12 13-12 16q1 12 22-10c11-11 12-13 9-16-4-4-6-3-19 10m148-10-12 11q-18 16-10 18 6 3 20-13 13-13 8-16-2-3-6 0m352 10c-13 13-13 14-10 17l3 2 3-2c6-4 21-18 23-21q2-5-1-7c-4-3-6-1-18 11m58-10c-7 3-22 20-22 23q2 6 10 2c6-3 20-19 20-22q0-8-8-3m-92 0-19 17-4 7c-1 3 5 4 8 3 4-2 21-20 22-23q0-6-7-4m253 18q-4 7 1 9 3 1 2-5 1-9-3-4"
        mask="url(#16282281824-posters-1720558202422-horizontal-mask)" itemprop="light" fill-opacity="0.90"
        fill-rule="evenodd" stroke="none" fill="url(#16282281824-posters-1720558202422-vertical-light)"></path>
      <!---->
      <path id="16282281824-posters-1720558202422-regular"
        d="M32 4q-7 9-2 11 6 0 16-11l4-4H35zm45 1q-6 8 1 9c4 0 5 0 11-6 8-8 8-8-1-8h-7zm46-1c-9 11 3 12 13 1q7-6-3-5c-7 0-7 0-10 4m45 0c-5 6-3 12 4 9 4-2 14-11 14-12l-7-1c-8 0-8 0-11 4m45-1q-6 7-2 9 3 5 14-6l7-6h-8c-8 0-9 0-11 3m44 1q-6 9 3 10c2 0 15-11 15-13l-7-1h-8zm47-1q-8 10 1 11c3 0 16-11 16-13l-7-1q-9-1-10 3m47 0c-4 5-1 11 5 8 3-1 12-9 12-10l-7-1q-9-1-10 3m45 0q-4 6 0 8 4 3 13-6l6-5h-9q-9-1-10 3m45-1-1 7c0 4 17-4 17-8 0-2-15-1-16 1m43 0-2 8c0 4 18-5 18-9 0-2-14-1-16 1m46 1c-8 9 1 12 11 3q10-7-2-6-7-1-9 3m46 0c-3 8 5 8 12 0l3-3h-7c-7 0-7 0-8 3m44-1c-4 7 4 9 11 3q7-6-3-5-8 0-8 2m48 0q-6 9 2 9 4 0 10-7l3-4h-7q-8 0-8 2m45 0q-4 5 1 7c3 0 12-6 12-8s-12-1-13 1m44 0q-4 9 3 9c3-1 9-8 9-10s-10-1-12 1M590 32c-13 13-14 14-15 17q-1 5 4 5c3 0 5-2 16-12 12-13 14-16 10-18-3-2-5-1-15 8m90 4c-13 14-15 17-8 18 3 0 4-1 12-9q20-18 14-21c-3-3-6-1-18 12m-33-11c-4 1-26 25-26 27q0 3 5 4c3 0 27-24 27-27l-2-4zm-458 2c-8 6-25 25-25 28q2 4 9 3c5-3 27-25 27-28q-1-8-11-3m46 0c-4 2-21 20-24 23-5 9 6 10 14 2l4-5q20-16 13-21-4-2-7 1m182 0-24 25c-2 6 5 8 11 3 6-4 20-18 22-22 4-7-2-11-9-6m134 0-2 2-10 10q-14 13-10 16c3 3 6 1 18-10 14-13 16-16 14-19-2-1-8-1-10 1M58 27l-3 1c-2 0-24 21-25 25q0 6 9 4c5-3 23-22 24-25q-1-8-5-5m212 10c-14 13-17 17-15 20q2 9 23-13c11-11 11-12 10-15q-1-10-18 8m55-8-19 19q-7 8 2 9c4 0 5-1 15-11 12-12 14-15 11-18q-2-5-9 1m130 5q-21 21-13 22 4 3 16-10c12-12 14-14 12-18q-2-7-15 6m271 1q-19 18-12 19c5 2 28-19 27-25q-1-8-15 6m-357-5c-8 7-20 19-20 22q0 6 6 5c3-1 22-19 24-23q2-5-1-5-2-4-9 1m138-2c-2 0-21 19-23 24q-1 8 8 3c4-2 18-16 20-19q4-9-2-9zM86 40C75 51 74 53 74 55q0 4 4 4c4 0 5-1 13-8q26-23 11-23c-3 0-5 1-16 12M4 33l-4 4v14l8-7q10-11 7-14T4 33m134 2-11 10q-12 12-2 13c4 0 24-18 26-23 2-8-5-8-13 0m625 8c-9 9-7 15 2 10l4-2V37zM178 82c-11 12-12 13-12 16q1 6 9 3c4-2 24-23 24-26q0-5-5-5c-3 0-5 2-16 12m466-9c-6 4-23 22-23 25q1 5 7 2c6-2 25-23 25-26q0-3-4-4zm47-2c-3 1-22 20-22 23q-1 5 4 5c4 0 24-21 24-25a4 4 0 0 0-6-3m44 1c-4 2-19 17-20 21q-3 5 4 4c4 0 23-18 24-22q1-7-8-3m-362 0c-3 1-21 20-24 24q-3 5 4 6c4 0 5-1 16-11 12-13 13-15 9-18q-3-3-5-1m221 5q-24 20-15 23c4 0 6-1 17-11q14-14 11-16-3-5-13 4m-450-4-24 24q-1 10 11 3c4-3 18-17 20-21 4-5-2-10-7-6m179 4q-22 18-18 23c2 4 12 1 16-6l8-8q9-9 5-12-3-4-11 3m140-3c-5 3-22 21-22 23q0 4 6 4c3-1 23-22 23-24q0-7-7-3m88 0c-4 2-19 18-21 21q-1 4 3 5c4 0 26-21 26-24q-1-6-8-2M52 75l-5 4-7 8q-15 14-7 17c6 1 29-21 29-27q-3-7-10-2m182-1c-7 4-22 20-22 24 0 8 14 1 26-14 6-8 3-14-4-10m263 9c-11 12-12 13-11 15q2 6 13-4l7-6c3-1 8-10 8-12q0-3-4-3c-3 0-4 1-13 10M5 77l-5 3v8c0 10 0 9 10-1q9-9 5-12-3-3-10 2m92-1c-4 2-20 18-21 21-4 6 3 8 10 3 5-3 20-20 20-22q-1-6-9-2m180 1c-9 7-20 19-19 22q1 6 8 3c5-3 22-21 22-23q-1-8-11-2m137-1-20 22q0 3 5 4c4 0 23-18 24-23q2-8-9-3m349 11q-8 8-3 11l6-1c3-1 3-1 3-9v-7zm-172 38c-14 15-15 15-12 18q3 5 15-6 20-19 15-22-3-5-18 10m-82-9c-5 3-23 22-23 24q1 5 4 5c4 0 26-22 26-25q0-7-7-4m48 0c-4 2-25 24-25 26q1 5 4 5c3 0 24-21 27-25q2-9-6-6m87 2c-6 4-23 22-23 24q1 7 9 3c7-4 24-23 24-26q0-6-10-1m39 6q-23 23-11 21c5 0 27-22 27-26q0-4-4-4-1-2-12 9m42 2c-11 11-12 13-11 17q2 8 20-11 17-17 5-17c-3 0-4 1-14 11m-536-8c-4 2-21 20-23 23q-3 9 7 5c5-3 25-22 25-25q-1-7-9-3m231-1c-5 3-25 23-25 25q1 8 10 3c6-3 23-22 23-25q-1-5-8-3M6 122l-6 5v7l1 7c2 0 17-17 17-19q-1-9-12 0m93-4-24 24q-2 7 6 6c4 0 25-21 26-25q1-7-8-5m42 3c-6 5-20 19-20 22-2 4 3 6 7 4q9-5 17-15c9-11 9-10 7-12q-3-6-11 1m95-3c-7 3-25 23-23 26q2 9 18-7c13-13 15-15 11-18q-1-3-6-1m45 1q-3 1-10 8l-10 9c-7 5-3 14 5 10 5-3 23-21 23-24q0-7-8-3m44 1c-7 4-22 21-22 24q1 5 7 4c4-1 25-22 26-25q0-10-11-3m47-1c-5 2-24 22-24 25q1 4 6 4c4-1 25-22 26-25q1-8-8-4m81 8c-12 13-14 16-11 18q3 6 18-10 18-19 7-18c-3 0-5 2-14 10m-398-8c-4 2-23 20-24 23q-1 6 5 6 6-1 22-18c6-7 4-14-3-11m709 14q-9 8-5 10h6c3-2 4-2 4-8q1-10-5-2m-165 28q-27 25-19 28c4 1 7-1 19-13 11-11 12-12 12-15q-1-8-12 0m-133-1c-2 0-25 23-26 26q-1 9 8 4c4-2 20-18 23-22q4-9-5-8m-277 3c-6 4-21 21-22 24q0 8 11 2c6-4 22-21 22-23q-1-9-11-3m46 0c-5 3-19 17-21 21q-3 6 3 7c5 0 8-2 19-13 8-8 9-9 9-12q0-4-2-5c-3-1-3-1-8 2m48-1c-7 4-25 23-25 26q1 5 8 3c6-2 25-22 25-26q0-7-8-3m43 1c-9 7-24 24-23 26q1 3 4 3c4 0 5-1 16-12 15-13 16-15 12-18q-2-4-9 1m47 0-18 17q-11 13 1 12c5-1 26-21 27-26q0-10-10-3m182-2c-3 2-22 22-23 25q-1 5 4 5c3 0 23-19 26-25q2-7-7-5m90 1-5 4-9 10c-9 10-10 12-9 15q3 6 19-11c13-12 14-13 12-16q-2-5-8-2m81 9q-18 16-11 19 2 3 8-3c7-5 21-21 21-22q1-13-18 6m-715-9-6 5-5 4v7l1 7c2 0 17-17 17-19q0-7-7-4m499 1c-4 2-21 19-22 23q-1 5 4 5c3 0 22-17 25-22q4-10-7-6m180 0c-5 3-20 18-21 21q-3 9 7 5c5-3 20-19 21-22q2-9-7-4m-638 1c-8 6-19 19-18 21s7 2 10 1c4-2 16-15 18-19 3-5-4-7-10-3m47-1c-4 2-19 17-21 21q-5 10 6 7c5-2 23-21 23-24q-1-6-8-4m33 11c-11 11-12 12-12 15q2 12 21-8 18-19 6-19c-3 0-5 2-15 12m288-11c-4 1-25 22-25 25q1 5 8 3c4-1 22-19 23-23q3-6-6-5m346 12q-12 12-3 13 6 0 6-10v-6zM7 210l-7 7v7l1 7 9-10q13-13 9-16-2-5-12 5m369-5c-4 2-24 22-25 25q0 6 7 5c3-1 15-12 21-18q7-8 3-11-2-3-6-1m179 1-14 13-5 5c-6 6-5 12 2 10 4-1 25-22 25-25q0-8-8-3m-375 11q-19 18-9 19 3 1 13-8 27-23 11-23c-3 0-4 1-15 12m59-11c-4 1-24 21-25 24q0 9 10 4l20-19q5-12-5-9m407 1c-5 3-20 20-20 23q1 11 22-12c9-9 8-16-2-11m80 9c-14 13-15 16-11 18q5 3 19-13c9-10 10-12 9-14q-2-7-17 9m-583-7c-5 4-21 20-21 23-2 3 3 6 7 3 5-2 24-20 25-23q1-10-11-3m133 3q-25 23-15 24 4 3 19-13 19-17 7-17-3-1-11 6m42 4c-12 12-14 15-11 18 3 4 7 2 20-11q14-13 9-16-3-5-18 9m190-6c-18 14-26 26-17 26q5 1 17-13 13-12 8-15-2-5-8 2m184-2c-5 2-21 18-22 21q-1 5 6 5c4-1 23-20 23-23q0-7-7-3m-602 7c-14 14-17 18-13 21 4 2 6 0 17-10 12-11 14-14 11-17-3-4-5-2-15 6m371-4c-17 14-25 27-14 26 7-1 26-22 26-27q-1-6-12 1m139-3c-3 3-18 16-20 20q-3 7 2 7c4 0 24-17 26-22q2-8-8-5m-183 1q-4 1-12 10-17 18-5 17c4 0 25-20 25-24q-1-6-8-3m-369 8c-9 1-20 15-16 19q4 4 16-9 13-12 6-11zm717 5q-10 10-5 12 2 2 6-1c3-1 3-1 3-8q1-11-4-3M14 248l-8 7-6 5v8l1 7 3-3 16-18q2-8-6-6m168 12c-12 13-14 16-12 19 3 3 7 1 20-11q18-16 10-19c-4-2-6-1-18 11m151-11c-6 1-27 23-27 27q1 4 7 3c2 0 22-19 24-23q3-7-4-7m408 0-4 2-9 8q-7 6-10 11l-2 5 2 2q4 5 13-7l9-8q12-14 1-13M43 262c-12 13-14 15-10 17q3 4 17-10c13-13 15-15 13-18-3-5-7-3-20 11m103-10c-6 4-20 18-21 21q0 12 14 1c16-15 19-20 15-24q-2-2-8 2m218 9c-13 12-14 15-9 17 3 2 6 0 18-11q18-17 5-17c-2-1-4 1-14 11m103-10c-6 3-23 23-23 26q2 5 9 1c5-3 21-21 22-24q1-7-8-3m43 1c-14 11-26 27-20 29 4 1 5-1 17-13s13-14 10-17q-1-3-7 1m89 2q-26 23-14 23c4 0 6-2 20-15 11-11 6-18-6-8m45 1-18 19q1 5 4 5a74 74 0 0 0 25-22q3-2 0-6-3-5-11 4m46-2c-7 5-17 16-18 18q-2 8 6 6c3-1 21-20 22-22 3-7-4-8-10-2m-591 0c-6 5-19 19-20 22q0 4 4 5c5 0 24-18 26-24q0-9-10-3m138-1c-16 9-27 31-13 25 3-1 5-3 16-13q9-9 4-12-2-3-7 0m47 0c-4 2-19 16-22 21q-3 9 7 6c3-2 21-18 23-22q2-9-8-5m136 0c-5 4-21 22-21 24q1 5 7 3c4-1 18-15 21-20 5-7 0-12-7-7m134 2-12 11q-15 15-5 15c4 0 25-20 27-25q0-9-10-1m211 14q-7 7-1 9 6 1 5-8v-5zM12 295l-7 5-5 5v7l1 8 7-7q10-11 11-15l-4-4zm272 1c-4 2-17 15-20 19q-7 11 3 11c2-1 22-20 24-24 3-5-2-10-7-6m310 10q-13 12-12 14 0 12 19-8c11-11 13-14 10-17s-5-1-17 11m56-11c-3 1-23 21-23 24-2 4 3 6 7 4 5-3 23-22 23-25q0-6-7-3m-595 3c-6 4-21 21-21 24q0 5 5 3c4-1 26-23 26-25q-1-6-10-2m131 5c-12 11-15 14-15 17q2 10 21-8c8-9 9-11 9-15q-2-7-15 6m179 3c-12 12-13 15-9 17q4 3 14-7l10-9c3-2 5-9 3-11-4-2-6-1-18 10m97-5q-24 20-16 24c3 2 5 1 16-10q20-20 9-20-3-1-9 6m50-4c-4 2-22 20-22 22q-1 4 5 4c3 0 24-21 24-24q0-6-7-2m172 8q-19 19-7 19c4 0 25-22 25-26q0-3-4-3c-4 0-5 0-14 10m44 1c-9 9-11 11-11 14q1 11 17-7l8-9q6-8-1-9-2 0-13 11m-630-6c-15 11-22 24-14 25 4 0 5 0 14-10q17-15 10-18-2-3-10 3m44 1c-17 14-22 26-10 24 3-1 22-20 23-23q0-12-13-1m187-4c-3 1-19 17-21 21q-3 3 0 5l2 2 4-2c4-2 20-17 22-21q3-8-7-5m222 4q-21 18-16 23 3 6 22-15 10-9 6-11-3-4-12 3m-323 6c-10 9-11 11-11 14q1 10 17-5t10-18q-3-5-16 9m192-8c-6 3-22 20-23 23q-1 5 6 5c4-1 20-16 25-23 4-6-2-9-8-5m345 15q-4 7 1 8 4 1 3-5 0-10-4-3m-481 27-25 25q-2 5 4 6c5 0 29-23 29-27q0-6-8-4m138 0c-2 2-22 20-24 24-3 5 3 8 10 3 6-4 21-19 22-22q1-8-8-5m224 3c-8 7-20 21-20 23q2 5 8 2c5-2 22-19 23-23q1-10-11-2m85 5c-15 15-15 15-15 18q1 12 20-9 14-15 8-17c-3-2-3-2-13 8m-540-4c-8 6-22 21-22 23 1 7 13 1 24-11 10-11 9-11 8-13q-4-5-10 1m47-3c-5 3-24 24-24 27q2 5 8 3c4-2 21-18 23-22q5-11-7-8m136 2c-10 6-22 21-21 25q4 5 21-12c8-9 9-11 7-14q-1-5-7 1m82 9q-11 10-12 13 1 5 6 5c4-2 26-23 26-26q-1-3-6-4-2-1-14 12m100-10-8 9-15 14q-1 6 3 6c4 0 28-21 29-26q0-7-9-3m48 0c-5 2-23 20-23 22q1 11 20-8 15-14 8-15-2-2-5 1m89 0c-7 5-21 20-21 23q0 4 4 4c3 0 4-1 15-11q10-11 11-14-1-6-9-2m-635 0c-5 1-24 24-23 26q2 4 9 1c5-3 20-19 21-22q2-7-7-5m45 0c-7 4-24 22-23 25q1 5 6 3c4 0 21-17 23-22q2-8-6-6m43 0c-5 2-23 22-23 25q3 10 24-11 14-18-1-14m184 0c-5 2-23 22-23 25q1 4 7 3c4-1 24-22 24-25q-2-5-8-3M7 348l-7 6v17l10-11q14-13 9-16-3-3-12 4m497 1c-14 14-16 16-16 19q2 5 9 1c4-2 21-20 21-22q-1-9-14 2m260 10q-6 7-2 9 7 3 7-8 1-9-5-1M14 387l-8 7-6 6v7l1 7c1 0 17-16 19-20 5-6 0-11-6-7m41 2c-8 6-19 20-19 23q1 12 24-11 11-11 6-14-2-4-11 2m184-3-18 17q-10 14 2 11c6-2 24-21 24-25q-1-5-8-3m92 1c-3 1-18 15-22 21q-6 12 6 7c3-2 22-21 23-24 3-4-2-7-7-4m225 1c-10 8-22 21-22 23q2 5 6 3c4-1 24-21 25-23 2-6-4-8-9-3m-461 5c-16 17-19 20-14 23 4 2 7 0 19-11 11-12 13-14 9-17q-4-6-14 5m88 4c-11 11-13 14-11 17q3 4 14-5 20-17 15-22-3-6-18 10m192-9c-4 2-22 21-22 23q1 4 5 4c6-2 26-23 25-26q-2-3-8-1m46 0-22 21q-1 6 3 6c2 0 10-4 11-6l8-8q10-10 7-14-3-2-7 1m45 0c-4 2-19 18-21 21q-1 5 3 6c5 0 27-21 27-25q-1-5-9-2m262 8q-18 17-10 19 3 2 16-12 15-14 10-16-3-4-16 9m-585-5c-9 9-18 19-18 21q-1 8 7 3c6-2 24-21 24-24q-1-8-13 0m140-1c-4 2-19 17-20 20-3 5 3 8 8 4 7-5 22-20 22-23q-1-7-10-1m227-1c-4 2-19 19-21 22q-2 8 7 4c4-2 18-17 21-21 4-5-2-8-7-5m94 0c-5 2-19 16-20 20-4 12 10 5 24-12 4-6 5-6 2-8q-1-3-6 0m85 4q-18 18-17 20 1 10 17-6 18-18 11-19-3-3-11 5m-43-2-8 7q-18 18-8 19c5 0 25-20 25-25q-2-5-9-1m120 14q-7 8 0 10h3v-7q1-11-3-3M59 431c-7 4-24 24-24 27 0 2 5 3 7 2 6-3 25-22 26-26q0-8-9-3m133 1c-8 7-20 20-21 23q0 4 5 5c3 0 21-17 26-24 4-6-3-10-10-4m92 0c-7 5-21 21-21 23q0 6 6 5c3-1 26-24 26-26q-1-8-11-2m47-2-12 12c-10 10-11 11-11 14q0 4 4 4c4 0 5 0 14-10l13-14 2-3-3-2q-3-3-7-1m87 4c-8 7-19 19-19 21q1 8 13 0 22-20 18-25-3-3-12 4m92-2-21 22q-2 6 4 6c3 0 4-1 15-12q15-15 11-18-2-3-9 2m-135 1c-8 7-21 20-21 23q1 5 7 2c3-1 24-22 24-24q0-7-10-1m183 0c-6 4-17 15-20 19-4 6 0 11 6 6 4-2 22-20 23-23 3-5-3-7-9-2m-409 0c-5 3-23 22-23 23q1 5 7 4c4-1 23-20 24-23q1-9-8-4m309 8c-13 14-14 16-10 18q3 4 18-12 17-16 6-16c-3 0-4 1-14 10m237-9c-3 1-23 22-23 24q1 4 4 4c3 0 26-22 26-25q0-5-7-3m34 11q-18 17-10 17 3 3 17-12c11-11 12-13 10-16-3-3-5-1-17 11M9 436l-7 6c-2 2-3 18-1 18l20-21c4-7-4-9-12-3m82 8c-11 12-13 15-11 18q3 6 20-12 16-13 9-16c-3-4-6-3-18 10m146-8q-9 6-17 17-5 9 6 6c4-1 21-19 22-22q1-9-11-1m402 7q-16 16-9 18c3 2 6 0 17-11q15-15 11-16-3-8-19 9m-45 0q-17 15-9 16c4 1 6 0 15-8q18-18 7-18-2-1-13 10m171 8-3 6 1 2c0 2 5 1 6 0v-11zm-393 28-19 20q-2 5 4 5c4 0 28-22 28-26q-1-8-13 1m281-4c-3 0-25 23-25 26q1 5 7 3c6-3 24-23 24-26a3 3 0 0 0-6-3m-638 1-8 8-7 6v7l1 7c2 0 21-21 22-24q1-7-8-4m134 0c-4 2-23 22-23 25q1 5 8 2c5-2 21-18 22-22q1-7-7-5m92 0c-4 3-22 20-23 23q0 5 4 5c6 0 26-19 26-25q0-6-7-3m90 0-12 11c-10 11-12 14-8 17 1 2 10-2 11-5l7-7q11-10 11-15-3-3-9-1m92 1c-8 5-23 20-23 23q2 12 20-8c9-8 10-10 10-14q-1-5-7-1m262 10c-12 12-13 14-11 17q4 5 22-14 13-15 4-15c-3 0-4 1-15 12m45 0q-20 19-9 19c3 0 13-7 13-9l7-8q11-10 7-13c-3-3-6-1-18 11m-632-3-8 8c-3 0-8 8-7 11q1 8 16-7 17-16 12-18-3-5-13 6m186-6c-5 3-20 19-21 22q1 5 4 5c5 0 26-20 26-25q-1-6-9-2m181 1-22 22q0 4 5 4c5 0 26-20 26-25q-1-7-9-1m-416 8q-17 17-13 20 4 4 21-14c10-10 11-11 9-14q-2-6-17 8m144-7c-5 4-22 21-22 23q1 5 6 3c5-1 25-21 25-25q0-4-4-4zm355 7q-14 15-11 16 1 8 22-12 12-13 3-14c-3 0-5 1-14 10m57-8c-5 2-22 20-22 22q1 5 8 2c5-2 20-16 21-20q2-9-7-4m-97 4-10 10q-11 11-3 12 5 2 20-18c9-9 2-13-7-4"
        mask="url(#16282281824-posters-1720558202422-radial-mask)" itemprop="regular" fill-opacity="0.90"
        fill-rule="evenodd" stroke="none" fill="url(#16282281824-posters-1720558202422-horizontal-regular)"></path>
      <!---->
      <path id="16282281824-posters-1720558202422-medium"
        d="M32 5c-8 10-1 12 10 3 9-8 9-8 0-8h-6zm47-2q-9 11 0 11c2 0 15-11 15-13l-6-1q-7-1-9 3m44 2q-4 6 0 8c2 0 11-6 14-10l2-3h-12zm46-2c-9 11 0 13 12 2l6-5h-8q-9-1-10 3m44 1c-7 10-1 12 10 4q12-9 0-8-7-1-10 4m45 0q-6 8-1 9 3 2 12-6 10-9-2-7h-6zm46 0q-6 8 1 9c4 0 6-2 14-10l2-3h-7c-7 0-7 0-10 4m49-2c-10 11 2 12 13 1l2-3h-7q-7 0-8 2m44 1c-8 10 3 11 12 1l4-4h-7q-7-1-9 3m44 0q-3 12 11 2 8-6-3-5-8-1-8 3m43 0c-7 10 4 10 13 0l3-3h-7q-7-1-9 3m47 0q-6 9 2 8l8-6 6-5h-7q-7-1-9 3m46-1c-3 7 3 8 9 2l5-4h-7q-6 0-7 2m44-1c-6 8 3 10 10 2l3-3h-6zm47 2q-4 7 2 8c2 0 12-9 12-10l-6-1q-6-1-8 3m45-1q-3 4-1 6 3 2 11-4l4-4h-6q-8 0-8 2m44 1q-3 5-1 6 5 2 11-4 5-6-3-5-6-1-7 3M590 34c-15 14-17 17-13 19 3 2 5 0 18-12q12-12 11-14 0-9-16 7m102-9-21 21q-7 9 3 7c3-1 23-21 24-24q1-7-6-4m-503 3c-7 5-24 24-24 26q1 5 7 3c4-1 26-23 27-26 2-6-4-8-10-3m231-2c-3 2-26 24-27 27q0 4 2 4c4 2 8-1 20-12 12-12 14-15 10-18q-1-3-5-1m133 0-2 2-11 11q-15 15-10 16 3 4 18-12 23-23 5-17m82 10c-12 12-14 15-13 17q1 8 18-9c12-12 13-14 12-17-2-4-5-2-17 9m-412 2c-10 11-12 13-12 16q2 6 10 1l22-23q2-5-4-6c-3 0-5 2-16 12m238-9-20 21v4q3 6 19-11 14-13 8-16-1-2-7 2m275-2c-7 4-23 21-23 24 0 7 17-4 25-17q6-10-2-7M55 29c-7 3-24 21-24 25q-1 11 19-8 15-14 12-18-2-2-7 1m222 2c-9 7-22 22-22 24q1 4 6 3c5-1 27-25 27-28q-3-6-11 1m39 8c-10 10-12 12-12 15q0 3 4 3 1 2 13-10 17-16 13-18c-3-4-6-2-18 10M100 29c-4 2-26 24-26 26q1 5 8 3c5-3 21-19 24-24q2-8-6-5m261 10c-11 11-13 13-11 16q3 8 20-12 14-14 5-15c-3 0-4 1-14 11m144-9-5 4-8 9q-11 11-7 13c3 2 5 1 15-9q15-14 13-17-2-4-8 0m-371 9q-18 16-11 18 3 4 16-9 15-14 11-17-1-6-16 8M4 34c-4 4-4 4-4 10v6l4-4q17-14 8-16-3 0-8 4m760 8q-12 13-4 12 9 0 9-11v-6zM191 71c-3 1-23 22-24 25q-1 5 3 6c5 0 7-2 23-20q7-8 3-11zm403 6q-22 20-15 22 3 3 17-11c11-11 12-13 10-15q-1-5-12 4m50-4c-6 5-22 22-22 25q0 4 6 2c4-2 21-19 23-24q3-8-7-3m37 8q-14 14-11 16c4 5 30-20 27-25q-2-5-16 9m54-8c-6 3-20 18-20 22 0 6 17-5 25-17q5-10-5-5M361 84c-13 13-15 16-9 18q4 2 18-13l6-6q6-6 2-10c-3-2-5-1-17 11M53 75c-9 7-22 22-22 25q3 9 21-10c10-11 11-12 9-15q-2-5-8 0m91-1c-5 3-24 23-24 25q1 11 20-8 14-14 11-16c0-2-5-2-7-1m182 1c-5 3-20 19-21 22-1 7 10 5 16-3l8-9q9-8 5-11-3-2-8 1m131 5q-23 21-12 20c3 0 5-1 14-10 10-11 12-13 10-16q-2-4-12 6m49-5-7 6-8 9c-10 10-3 14 7 4l8-7c3-2 8-10 7-12q-2-4-7 0m35 9q-17 15-8 15 2 1 10-6 22-20 12-20c-3 0-5 1-14 11M5 78l-5 3v7c0 9 0 9 8-1q10-10 6-12-1-3-9 3m93-2c-4 2-22 20-23 22q0 7 9 3c4-2 18-17 21-21q2-2-1-4-1-3-6 0m129 4c-8 7-15 16-15 17q2 4 6 4c3-1 17-14 20-19 7-10-1-11-11-2m52-4-20 19c-1 2 0 7 2 7 3 2 26-18 26-23q0-8-8-3m137 0c-5 2-20 18-21 21q-1 7 6 4c7-4 22-20 22-23q-1-6-7-2m348 10q-7 8-4 10c2 2 1 2 6 0 3-1 3-1 3-8q1-10-5-2m-172 39q-22 20-10 19c5 0 27-21 27-26q1-4-5-4zm143-8c-6 4-21 21-21 23q1 12 19-8 12-12 10-13-1-6-8-2m-236 9c-12 11-14 14-12 17q3 4 15-8 16-15 13-17-2-7-16 8m48 0c-15 15-15 16-15 18q1 8 19-10c10-10 12-12 12-15q0-3-3-3-3-2-13 10m96-7c-8 6-21 21-21 24q3 11 27-17 9-15-6-7m37 9c-11 12-13 15-9 17 3 0 6-2 17-14q18-16 7-15c-3 0-5 2-15 12m-492-9-21 21q-5 9 7 5c7-3 23-21 23-25q-2-5-9-1m94 0c-7 3-24 20-24 23q1 7 8 3c4-1 22-20 23-22q0-6-7-4m44 1c-6 4-20 18-22 21q-1 9 9 5c4-3 21-20 22-23q1-10-9-3m85 6c-13 11-15 14-15 17q3 5 9 2c8-6 22-22 22-25q0-8-16 6m53-7c-4 2-22 20-23 22q-1 5 6 5c3-1 21-20 23-23q2-8-6-4M7 122l-6 4-1 7 1 7 8-8q9-8 8-10-2-7-10 0m92-3-23 22c-4 8 3 9 12 3 7-7 19-20 19-22q-1-5-8-3m34 11c-13 13-15 16-8 17a41 41 0 0 0 22-18q7-8 4-10c-3-3-6-1-18 11m102-11c-3 1-18 17-20 21l-2 4 2 2 4 1c4-1 24-23 24-25q0-6-8-3m138 0c-3 1-24 22-24 25q0 4 5 3c5-1 26-22 26-26q-1-5-7-2m-324 5q-21 20-17 23c3 3 6 1 19-11q13-13 10-15-3-5-12 3m715 10q-9 10-1 9 7-1 6-9v-5zm-161 25c-5 3-23 22-24 24q-2 6 5 5c3 0 27-24 27-27q-1-6-8-2m-140 3-21 23q-5 8 4 6c6-3 26-24 26-28q-2-6-9-1m263 10q-13 12-12 14-1 11 18-8 16-17 9-17c-3-2-3-1-15 11m-535-9c-7 4-23 22-23 25q2 6 11 0c8-7 20-20 20-23q-1-6-8-2m44 0-20 20q-4 12 8 6c8-6 22-20 22-23q-1-8-10-3m46 1c-8 6-22 21-22 23q1 6 7 3c5-2 24-21 25-24q0-8-10-2m47-2c-4 2-25 24-25 26l1 3c4 3 8 0 20-12 13-12 13-13 12-15q-2-5-8-2m43 3c-18 15-26 31-14 26 4-1 22-19 25-23 4-8-3-9-11-3m185-3c-4 1-24 23-24 25q1 6 7 2c4-2 23-22 23-24q-1-5-6-3m90 0-6 5-11 12q-12 12-3 12c3 0 4-1 14-10 13-13 15-15 11-18q0-3-5-1M6 167l-6 5v6c0 7 0 7 9-1q11-11 8-13-2-4-11 3m48-3c-4 2-16 14-18 17q-3 6 4 5c4 0 5-1 13-9 9-9 10-11 8-14q-3-2-7 1m89 0c-5 3-23 23-23 25q0 5 6 3c6-2 25-22 25-26q-1-6-8-2m367 0c-5 2-22 21-22 23q1 11 19-9 12-10 10-13-1-5-7-1m179 0c-6 4-21 20-21 23q1 10 19-8c8-9 10-11 10-14q-1-6-8-1m-600 9q-16 15-12 17c3 4 6 2 19-10q17-17 6-17-3-1-13 10m328-8c-7 5-21 21-21 23q2 6 10 0c9-6 20-19 20-22q-2-5-9-1m348 12q-9 8-5 10h6q4-2 3-8 1-10-4-2M8 209l-7 7c-1 1-2 13 0 13l10-10q13-13 7-14-3-3-10 4m172 8c-13 14-15 17-9 18 4 0 8-3 20-14 8-8 9-9 9-12q0-4-4-4c-3 0-4 1-16 12m59-10c-4 1-18 14-22 20q-5 8 2 8c6 0 24-17 26-25q1-5-6-3m135 0c-4 2-22 21-22 23q-1 5 5 4c6-1 24-19 26-23q0-9-9-4m180 1c-6 4-20 19-21 22q-2 4 4 4c3 0 24-20 26-24q0-8-9-2m183-1-13 11q-16 16-7 16c3 0 5-1 15-12q16-16 9-16-2-2-4 1m-591 1c-5 2-24 22-24 25q1 5 8 2c4-2 19-17 22-22q5-9-6-5m132 3q-26 21-17 25 4 2 19-13c11-11 12-13 10-15q-3-4-12 3m51-3c-5 3-22 20-23 22q0 5 5 5c3 0 24-19 26-23 1-4-5-7-8-4m316 0c-4 3-19 20-19 22q3 4 11-2c7-5 17-17 17-19q-1-5-9-1m-138 3c-6 5-18 17-19 20q-2 4 4 4c3 0 4-1 14-11q16-16 9-16-2-2-8 3m95-3c-4 2-19 16-21 20q-4 10 8 3c6-4 18-17 19-20q1-5-6-3m88 1c-5 4-19 19-19 21q0 5 6 2c3-1 19-16 21-19q2-10-8-4m-602 9q-18 16-10 18 5 2 18-13 17-15 6-15c-3 0-4 1-14 10m330-9c-5 2-22 21-22 23q1 7 8 1c6-4 19-17 20-20q1-7-6-4m45 1-20 20q-2 6 4 7c6-2 25-21 25-26q-1-6-9-1m-418 8c-4 2-14 13-14 15q2 5 8 2l17-17zm720 4q-7 8-6 9 0 4 7 2c3-2 3-2 3-8v-7zM7 254l-7 7v6l1 7 18-20q3-12-12 0m182 0c-19 19-21 23-17 25 3 2 6 0 18-12q14-13 11-16-3-5-12 3m130 7q-19 20-8 18c3 0 5-2 15-11 11-12 13-15 11-18-3-3-6-1-18 11m281-8q-24 21-15 24c4 0 23-17 25-23 3-6-3-6-10-1m94-3-20 19q-4 7 2 8c3 0 22-18 24-23q1-6-6-4m42 3-9 9q-9 7-10 13 1 4 7 1l21-22c3-6-3-7-9-1m-691 8c-14 14-15 15-12 18q3 5 19-13 18-16 7-16c-3 0-4 1-14 11m102-9c-4 3-20 18-21 21q-2 5 4 5c5 0 23-17 25-23q1-7-8-3m94-1c-5 1-23 17-24 22q0 5 6 4c3 0 20-16 21-19q2-7-3-7m123 10c-12 12-13 15-9 17q4 2 18-13 16-15 5-15c-2 0-4 2-14 11m103-9c-6 4-22 21-22 24q1 5 6 3c4-2 21-19 23-23q2-9-7-4m46-1q-4 2-14 12c-12 13-14 16-7 17 2 0 4-1 13-11 13-12 13-13 13-16a4 4 0 0 0-5-2m131 4c-16 16-19 21-15 23q3 3 16-11 15-14 10-16-4-3-11 4m-547 1-14 14q-7 9 2 9c4-1 20-17 22-21 4-8-2-9-10-2m186-3c-4 2-22 20-22 22q1 8 9 3l21-21q3-9-8-4m131 6c-15 16-18 20-11 20s28-22 26-26q-3-7-15 6m132 3c-12 12-14 14-11 16q1 6 16-9 19-19 9-18-2 0-14 11m219 6q-5 7-1 9 5 0 5-8v-4zm-116 28c-4 3-20 19-21 22q-2 5 3 5c3 0 5-2 15-11 11-12 13-15 9-17q-1-2-6 1M6 300l-6 5v7l1 7 16-18q3-12-11-1m187-3-21 21q-3 5 3 5t21-16c7-8 5-15-3-10m83 6c-13 13-16 17-14 20q2 7 17-9 16-15 12-18-3-5-15 7m192-7-13 12q-12 12-10 13 2 11 22-12 7-9 7-11-2-5-6-2m133 3c-10 10-19 20-19 22q0 3 6 2c4-2 24-23 24-25q-2-6-11 1m93-2c-5 3-20 19-21 22-1 5 5 6 10 1 8-8 18-19 18-22q-1-5-7-1m46-1c-5 2-23 22-23 24q3 5 8 1c7-5 19-20 19-23q-1-4-4-2m-682 1-23 22q-2 6 4 6c3-1 25-22 25-25q0-5-6-3m90 0c-5 2-22 21-22 24 1 7 15-1 26-15q4-6 1-8-1-3-5-1m182 0c-3 1-23 21-23 23q0 4 5 4c5-2 25-22 25-25q-1-3-7-2m45 1c-6 4-19 18-20 20q-2 3 1 4c3 3 6 1 17-9 9-9 10-10 10-13q-2-6-8-2m137-1c-4 2-21 19-21 22q-1 3 4 4c2 0 21-18 23-22q1-6-6-4m45 0c-2 1-19 17-21 21q-4 8 3 6c5-1 25-21 25-24l-4-4zm-459 4c-6 5-17 16-17 19q-2 5 5 5c5-2 23-21 23-25q-2-6-11 1m322-1c-11 7-23 22-22 25 2 6 31-17 30-25q-2-6-8 0m-192 8q-11 10-10 13c-1 6 7 3 15-5q16-16 10-17-3-4-15 9m537 7q-3 7 2 7 3 1 2-5 1-10-4-2m-480 27c-4 1-25 22-26 25q0 5 5 5c3-1 27-23 28-26q0-6-7-4m362 2c-6 5-18 18-19 21q-2 5 5 5c3-1 21-19 23-23q2-3-1-5c-2-3-2-3-8 2m-227-1-22 23q1 4 4 5c3 0 24-19 26-23q3-11-8-5m309 9q-18 16-11 18 3 4 17-12 15-14 10-16c-3-2-4-1-16 10m-580-9c-4 1-23 18-25 23q-1 8 9 3l20-20c1-2 0-7-2-7zm42 3c-7 5-21 20-21 22q1 5 8 2c5-3 23-21 23-24l-4-4zm47-2c-5 3-22 20-22 23q-2 4 3 5c5 0 27-21 27-26q0-7-8-2m134 2c-10 7-20 20-18 23q3 4 16-8 14-15 11-17-2-4-9 2m94-2c-8 6-21 21-21 23q1 5 7 2c5-3 23-22 23-24-1-3-7-4-9-1m79 10c-12 13-14 16-9 17 6 1 30-24 28-28q-1-6-19 11m50-3c-14 13-16 16-10 17q3 1 18-14 13-12 4-12c-3 0-4 1-12 9m89 1q-19 18-7 17c3 0 24-21 24-24q0-3-4-3c-3 0-4 1-13 10m-636 1q-19 19-9 18 4 1 18-14 13-14 4-14c-3 0-4 1-13 10m50-6c-17 14-23 27-12 24 4-1 22-19 23-22q1-11-11-2m221 7c-12 11-13 13-11 16q3 5 19-11 17-16 6-16c-4 0-4 1-14 11m192-9c-6 3-23 21-23 23q1 5 8 2c5-3 21-21 21-24q-1-5-6-1m-500 1-4 2-4 4q-4 1-3 10v7l20-20q0-7-9-3m753 14q-6 7-2 7 7 3 7-7 1-9-5 0M57 388c-8 6-21 21-21 24q2 5 9 1c5-3 21-19 22-22q0-9-10-3m504-2c-4 1-24 18-26 23-3 6 4 7 11 0l19-19q0-5-4-4M7 393l-7 8v6l1 7 9-9q14-15 11-17-3-6-14 5m84 5q-16 15-11 17 5 5 23-14 11-11 5-14c-4-2-6-1-17 11m104-11-21 20q-5 7 1 7c3 1 5 0 16-11 11-10 12-12 9-15q-2-3-5-1m38 5-13 12c-5 4-4 12 1 10 7-2 25-20 25-25q-2-8-13 3m95-3c-7 5-20 20-21 23q0 4 5 4c5-1 26-23 26-27q-2-6-10 0m407 1-18 20q-1 10 15-6 16-14 12-17-2-3-9 3m-451-1c-4 2-22 21-22 23a5 5 0 0 0 7 3l17-15q13-17-2-11m81 9q-12 11-11 13 0 9 17-8 13-11 11-14-2-7-17 9m54-8c-11 8-23 24-19 24s12-3 14-6l8-9q10-9 6-11-2-3-9 2m48-2-18 18q-8 12 2 7c6-3 23-21 23-23q-2-5-7-2m-323 4c-12 9-21 21-18 23 3 4 29-18 29-24q-1-7-11 1m366-3c-5 3-21 22-21 25q1 2 6 1c4-2 21-19 22-22q2-7-7-4m92 2c-15 12-23 23-16 23 5 0 25-19 25-23q-2-6-9 0m89 1c-6 5-19 20-19 22q0 3 6 2c2-1 19-17 22-22 5-6-2-8-9-2m-53 6q-14 15-11 18 3 4 18-11c9-10 11-12 9-15q-3-5-16 8m128 7q-5 7-2 9 5 3 5-6 1-10-3-3M60 431c-3 1-22 21-23 24q-2 5 3 5c4 0 25-21 27-25q1-8-7-4m134 1c-5 3-19 17-22 22q-1 4 3 5c4 0 26-20 28-25q1-8-9-2m226 1-20 20q-3 5 4 5c3 0 5-1 15-11q17-15 9-17c-3-1-2-2-8 3m-134-2c-3 1-22 21-23 23q1 5 4 5c5 0 27-21 27-25q0-6-8-3m46 0c-5 3-24 23-24 25q2 11 18-6 14-14 13-17-1-5-7-2m170 10-12 13c-3 5 2 8 7 4s20-19 22-24q2-4-4-4-2 0-13 11m-353-8c-4 3-21 20-22 23q0 9 12-1c8-7 18-18 18-20q0-6-8-2m226 1c-6 4-21 20-21 21q1 4 5 4l24-22c4-6-2-8-8-3m84 7q-16 16-11 18c5 1 27-19 27-25q-1-9-16 7m100-8c-4 2-16 14-20 19q-5 10 4 6c4-2 22-20 23-22 3-5-2-7-7-3m137-1-7 5-10 11q-7 6-6 8 1 8 12-4c16-15 18-17 15-20zm44 1-22 22q-3 5 3 5c4 0 25-21 25-25q0-3-2-3-1-2-4 1m-728 2q-13 8-12 17l1 7 18-18q6-12-7-6m227 0c-16 11-27 33-11 23 5-4 20-20 20-22q0-7-9-1m412-2-21 21c-5 6 0 9 7 4 5-3 20-18 20-21q2-7-6-4M91 445c-11 12-13 15-9 17 3 2 5 0 17-11q18-18 7-18c-3 0-5 1-15 12m503-2q-15 15-8 15 4 3 16-10c10-11 11-13 6-15-3 0-4 1-14 10m172 8q-5 8 1 8 3 1 2-6 1-9-3-2m-387 24c-3 1-23 20-25 23q-3 5 3 5c3 0 5-1 15-11 12-11 14-14 11-17zm-47 1c-3 2-22 20-23 23-1 5 5 6 10 2l12-12q11-9 7-13zm319 1c-6 3-23 22-23 24q1 5 8 1c4-2 17-15 21-20q4-10-6-5m45 0-22 23q-3 4 5 4c4-1 23-20 24-25q1-6-7-2M8 483l-8 8v13l3-2q19-18 19-24-2-6-14 5m140-5c-5 3-20 19-21 22q0 4 5 4c4-1 21-18 23-22q2-9-7-4m93-1c-4 2-22 20-22 23q1 10 19-8 18-19 3-15m182 0c-4 2-23 21-23 24q1 5 9 1l20-20q3-8-6-5m308 10q-16 14-13 17 3 7 21-13 14-15 6-15c-3 0-5 1-14 11m-632-4-7 8q-15 12-7 13c5 2 28-20 26-25q-2-5-12 4m185-4c-9 6-22 21-20 24q3 3 9-1c6-5 20-21 20-23q-3-3-9 0m171 10c-12 12-13 13-9 15s7-1 18-11q17-16 6-16c-3 0-5 1-15 12m93-1q-16 16-9 16c4 2 26-18 26-24-1-6-4-4-17 8m-500 2q-12 12-12 14 0 9 20-11 16-15 6-15c-2 0-4 1-14 12m145-9-20 20q-3 5 3 5c4 0 24-19 25-24q1-7-8-1m315 2c-14 13-16 16-15 18v2q-2 1 1 1 4 3 17-13c8-9 9-10 7-12q-2-3-10 4m96-3c-6 3-20 19-20 21q0 4 6 3c4-2 22-20 22-23q-2-5-8-1"
        mask="url(#16282281824-posters-1720558202422-vertical-mask)" itemprop="medium" fill-opacity="0.90"
        fill-rule="evenodd" stroke="none" fill="url(#16282281824-posters-1720558202422-vertical-medium)"></path>
      <!---->
      <path id="16282281824-posters-1720558202422-bold"
        d="M33 5q-6 6-3 8 2 3 12-7l7-6h-6q-7-1-10 5m46 0c-9 10-1 11 9 2l7-7h-6q-7-1-10 5m45-1c-8 10 0 11 10 1q8-5-1-5-6-1-9 4m46-1c-9 11-1 12 10 3l6-6h-7q-7-1-9 3m44 1c-9 11 1 11 12 0q7-5-3-4-6-1-9 4m45 0c-8 11 0 12 10 2l5-6h-6q-7-1-9 4m45 1q-5 7 1 7 4 1 10-6l5-6h-12zm48-2c-6 9 3 10 12 1q7-5-3-4-7-1-9 3m45 0c-5 9 1 10 10 3l3-3 1-1q2-2-5-2-8-1-9 3m45 0q-3 11 8 2 9-6-1-5-7-1-7 3m43 0c-6 9 1 10 11 1l4-4h-7q-6-1-8 3m46 1q-6 7-1 7 4 0 12-7l3-4h-6q-6-1-8 4m47-3q-3 5 1 6c2 0 10-4 10-6s-9-1-11 0m43 2q-1 9 9 1 7-5-2-4-7-1-7 3m48 0q-4 12 8 3 8-7-1-6-7-1-7 3m45-2-2 3v3q3 3 10-4l4-3h-6zm44 2c-4 7 1 8 7 2q8-6-1-5-5-1-6 3m-66 23-22 22q-3 6 4 5c6-4 24-23 24-26q-1-3-6-1m-138 0-3 3-11 11q-15 15-7 15 2 1 10-8l11-11c8-7 8-13 0-10m46 1-1 1c-2-1-23 20-23 22l1 3c2 2 5-1 18-13 11-11 11-12 11-14-1-2-6-1-6 1m47-1c-4 2-25 25-25 26q1 3 4 3c2 0 26-24 26-26q0-5-5-3m-456 2c-6 3-26 25-26 27q0 3 4 2c4 0 5-1 16-12 13-12 15-15 13-18q-3-2-7 1m230-1c-3 1-16 12-16 13l-6 6q-9 10-2 11c6 0 29-22 29-28a4 4 0 0 0-5-2M56 29c-5 3-21 18-24 22q-1 6 3 6c3 0 24-20 26-24q3-8-5-4m172 6q-21 18-16 21 4 3 13-6c18-17 18-17 18-20q0-3-4-3c-3 0-4 1-11 8m53-6-5 3-3 4-2 2-13 13q-6 9 5 6c6-4 24-24 24-27q-1-5-6-1m48-1c-3 1-25 23-25 25q1 5 6 2c5-2 20-17 23-22q2-7-4-5m126 8q-22 22-10 19c5-1 24-21 24-25q1-9-14 6m280-8-21 21q-3 5 2 5c2 0 18-15 22-21q5-7-3-5m-363 2c-7 4-22 21-22 23q0 6 7 1c5-3 20-18 21-21q1-8-6-3m134 0-18 18q-6 7 0 7c4 0 20-15 23-21q4-9-5-4m-406 0c-4 1-25 23-25 25q2 6 10-1c21-17 27-28 15-24M9 32q-10 5-9 12l1 6 6-7c8-8 8-9 7-11q-1-3-5 0m134 0-7 6-9 8q-9 10-2 11c3 0 21-16 24-21q2-10-6-4m621 11q-8 9-5 9 1 3 4 1 7-2 6-10v-4zM190 73c-7 5-22 21-22 24-1 6 6 5 11-1 17-18 18-18 18-21q-1-6-7-2m455 1c-7 5-23 22-23 24q2 6 15-6l9-10q9-9 4-10c-2-1-1-1-5 2m46-1c-12 7-26 26-18 25 3-1 21-18 22-22q3-7-4-3m44 0c-9 6-23 24-18 24s24-19 24-23q-1-4-6-1m-140 5q-21 20-16 20c4 2 27-19 27-23q-1-6-11 3m-451-3-9 8-8 8q-7 5-5 11c3 4 31-22 29-27q-2-3-7 0m183 0c-6 4-22 21-22 23 0 5 11 2 15-4l6-7q11-10 7-12-2-3-6 0m40 3q-25 24-14 23c6 0 28-23 26-27q-4-4-12 4m96-3-21 21q1 9 15-5l9-10c5-5 3-10-3-6m89 0-2 1-10 9q-13 14-6 13c4 0 23-18 23-23q-1-4-5 0M52 76 32 97q-2 8 6 4c6-3 23-21 23-24q-2-5-9-1m182-1c-4 2-21 20-21 23q-1 3 4 2c5 0 23-18 23-23q-1-4-6-2m270 2q-18 17-17 20 1 6 10-3l9-7c2-2 6-8 6-10q0-6-8 0M5 79l-5 3v6c0 7 0 7 8-1 9-10 8-16-3-8m93-3c-3 2-22 21-22 23q0 10 18-8c10-10 12-12 10-15zm179 3c-9 6-18 16-18 19 0 6 9 3 17-7l7-6c4-3 5-10 0-10zm139-3c-2 1-17 16-19 20-3 4 2 7 7 3l18-19q3-7-6-4m349 10q-10 11-3 11t7-9v-5zm-169 36q-22 20-15 21c3 2 4 1 18-13q15-14 8-14c-3-2-4-1-11 6m-92 0q-25 22-14 21 3 1 14-11 16-15 9-15-2-3-9 5m54-5c-5 3-25 24-25 26q1 8 15-7 17-16 14-18-1-3-4-1m88 1c-6 4-24 22-24 25q1 4 8 1c6-5 22-22 22-25q0-6-6-1m42 3-15 15q-5 7-1 8c4 0 26-22 26-25q-2-6-10 2m47-3c-4 2-19 18-20 21q-2 6 4 4c5-1 24-22 24-25q-2-3-8 0m-546 1-22 22q-2 7 8 3c5-4 22-21 22-23q0-6-8-2m-177 0-4 3-5 4q-4 0-3 8l1 6c7-7 16-17 16-19q0-3-5-2m88 0c-4 2-24 23-24 25q-1 4 3 3c4 0 8-3 21-16l5-5 1-3q0-6-6-4m184 0q-4 0-15 11l-8 8-2 4q1 11 23-12l4-4 1-3q1-5-3-4m43 1-3 2-19 20q-2 3 1 4c6 3 32-22 28-27q-3-2-7 1m89 2c-19 17-20 19-19 22q1 3 7 1c5-3 22-22 22-25q-1-6-10 2m47-2c-5 3-21 20-21 22q1 10 18-9c10-10 10-12 10-14q-2-2-7 1m-330 10c-12 13-14 15-8 16q5 0 15-9 17-18 8-18c-3 0-5 2-15 11m93-2q-19 19-8 18 2 2 14-12c12-12 13-14 7-15-4 0-4 0-13 9m136 2q-16 15-12 16 4 4 19-12 16-16 7-15c-3 0-5 1-14 11m-308-9c-3 2-20 18-21 21q-3 5 3 5c5-1 24-19 24-24q0-5-6-2m710 14q-10 11 1 6 5-1 4-6 1-9-5 0m-160 24c-4 1-25 24-25 26q0 9 20-10 11-11 10-13 1-6-5-3m-150 14q-16 15-12 17 2 4 18-13c13-13 14-15 8-16-2 0-4 1-14 12m272 0q-19 18-9 16c4 0 26-22 26-25q0-10-17 9m-715-9-5 4-5 4-1 7 1 5 8-8q11-10 7-13-2-2-5 1m171 7c-16 16-17 18-11 19q5 1 19-13 14-15 5-15-3-1-13 9m50-4c-12 10-20 21-17 23 5 2 29-18 29-24q-2-8-12 1m50-3c-6 4-23 22-23 24q1 4 7 2c6-3 24-22 24-25q-3-5-8-1m42 2-12 12q-15 15-3 13c5-1 27-24 26-27q-2-6-11 2m41 6q-22 22-9 19c7-2 28-25 26-28q-3-5-17 9m148-9-2 2c-3 0-23 20-23 22q1 3 6 2c3-1 20-18 22-21v-4q-2-3-3-1m36 5-7 8-5 4q-7 8-1 10c3 0 25-22 25-25q-1-7-12 3m94-3-6 6-14 16q-2 5 5 3c6-2 24-21 24-25s-6-4-9 0m47-2c-4 3-22 22-22 24q3 4 9 0l19-19q2-8-6-5m-637 2c-6 4-18 18-17 19l4 1c4 1 21-15 21-19q-2-5-8-1m91-1c-4 2-22 21-23 24q0 4 4 4c2 0 22-18 25-23q2-8-6-5m-46 1-19 19q-5 8 4 6c5-2 23-21 23-23q-2-4-8-2m320 1c-6 3-22 20-22 22q1 3 6 2c3-1 21-17 23-21q2-8-7-3m348 11q-9 10-3 10t6-9v-5zM7 212l-7 6v11l7-7q19-17 9-17-2 0-9 7m187-6c-6 3-26 25-25 27 3 5 7 2 25-16q9-8 5-11zm181 1c-4 3-21 20-22 23-3 9 8 4 20-9q13-12 8-14-2-3-6 0m182 0-2 1c-2 0-21 19-21 22q-1 4 4 3l23-22c2-4-1-8-4-4m-317 0c-4 1-23 19-24 22q-2 10 9 3c16-12 26-29 15-25m497 0-22 22v4c3 3 6 0 22-17q9-9 4-9zm-591 1c-2 1-22 20-23 23-3 5 4 5 10 0 8-6 17-15 19-18q2-8-6-5m129 6q-22 20-12 21c5 0 26-20 26-25q1-8-14 4m53-5c-6 5-21 20-21 22q1 5 6 3c5-3 22-19 23-22q0-8-8-3m319-1c-2 0-17 15-19 19v4q3 4 16-10 16-18 3-13M88 219q-17 17-8 16c3 0 4-1 15-11q13-13 10-15c-3-2-6-1-17 10m377-9c-9 6-23 22-22 25 1 1 7 1 9-2l16-16c6-7 3-12-3-7m44-1-11 11q-13 13-9 15c4 2 29-21 27-26zm84 7q-19 18-10 17c5 0 24-18 24-22q1-8-14 5m98-7c-4 3-20 19-20 22l3 1c5 0 24-18 24-22q-1-3-7-1m-273 1c-3 1-19 17-21 20q-2 9 8 2c6-4 16-14 17-17q3-8-4-5m-373 9c-3 0-12 10-12 13-1 3 4 4 6 2l2-2 14-13zm721 3q-11 12-2 11 6-1 5-9v-5zM14 250l-8 6c-6 6-6 6-6 11l1 6c2 0 19-20 19-22q-1-3-6-1m31 12c-12 12-14 14-12 16q3 4 17-11c13-13 14-14 12-15-3-4-5-2-17 10m145-8c-20 21-21 22-18 24s6-1 18-12q16-15 7-16-3 0-7 4m139-3c-10 10-21 22-21 25q-1 2 3 2c5 0 29-23 26-27zm272 3-19 19c0 3 5 3 7 2l19-19c4-6-1-8-7-2m92-2c-7 4-20 18-20 21q0 5 5 3c4-2 22-22 22-24q-2-3-7 0m44 0-9 9q-15 15-7 16c4 0 24-22 24-26 0-2-6-1-8 1m-636 1c-16 14-24 25-17 25 3 0 20-15 23-20q3-10-6-5m37 8q-15 13-11 16 2 4 17-10 18-16 7-16c-3 0-4 1-13 10m98-7c-9 6-20 20-17 22 3 4 25-15 25-21q-1-7-8-1m48-1c-4 2-22 21-22 23q0 11 19-9 13-12 9-15-2-2-6 1m81 8c-13 14-14 14-10 16q3 1 5-1c4-2 21-19 21-21q1-4-3-4-2-1-13 10m58-9c-6 3-24 23-22 25q2 6 18-10c10-10 12-20 4-15m36 8c-15 15-16 17-12 18q3 2 15-10 19-18 8-17-2-1-11 9m43 1c-12 12-15 15-13 18q1 5 15-10c13-12 14-13 13-16q0-6-15 8m50-4q-27 24-14 22c2 0 21-18 23-22 6-8 0-8-9 0m91 0-10 11c-7 7-6 13 1 8 6-3 21-20 21-23q-1-6-12 4m124 10q-9 11-1 8 4-1 3-5v-5zm-117 29c-4 2-22 21-22 24q-1 4 3 3c3 0 25-22 25-25a4 4 0 0 0-6-2M6 301l-6 5v12l15-15c5-8-1-9-9-2m187-3c-4 3-19 17-20 20q-3 5 2 5c4 0 20-15 24-21q2-10-6-4m90 0-12 11q-15 15-5 15c4 0 25-22 25-25q-1-6-8-1m94-1c-3 1-21 19-21 22q-1 11 15-5l8-7c6-5 5-12-2-10m79 11q-17 17-8 16c5 0 27-24 25-27q-1-6-17 11m56-10c-3 1-21 19-21 21q1 5 6 2c6-3 21-20 21-22q-1-4-6-1m84 7q-8 8-8 11l-1 1q-2-1-3 1-3 9 7 2c12-11 22-21 20-23q-2-5-15 8m91-1q-20 19-10 19c3 0 25-23 24-26q-2-5-14 7m42 2c-11 12-13 14-11 16q4 3 15-10c10-10 11-13 11-15q-2-5-15 9m-674-6c-10 7-21 21-19 23 2 4 27-17 27-23q-1-6-8 0m47-1-4 3-10 10q-12 11-4 12c3 0 23-18 25-22 1-4-4-7-7-3m35 8q-14 15-9 16c5 3 28-20 26-25q-2-5-17 9m190-7c-6 4-19 18-19 21q1 5 7 0c4-2 18-16 20-19q3-9-8-2m220 7q-14 13-11 16 1 5 17-11 16-15 7-15-2-1-13 10m-126-7c-4 1-22 19-22 22q-1 9 11-2 19-16 17-21 0-2-6 1m-187 2-4 4q-15 15-11 17c3 4 25-16 25-22 0-3-6-2-10 1m52 40c-2 0-23 20-26 24q-1 6 5 5c3-1 25-22 26-25q0-5-5-4m363 2-20 19q-3 5 2 6c7 0 28-24 24-27q-1-2-6 2m-409-1c-5 3-24 22-24 25q1 5 7 2c6-4 23-22 23-24q-1-6-6-3m171 10q-17 15-10 17 1 3 15-10 19-18 10-18c-3 0-5 2-15 11m53-7c-18 18-22 23-15 23 4 0 24-18 25-23q0-7-10 0m91 0-6 7c-2 0-15 13-15 15q1 7 23-14 8-8 6-10-1-4-8 2m49-2c-4 2-22 20-22 21q1 2 5 2c4-1 23-20 23-23q-1-3-6 0m80 9q-17 16-9 16c3 0 4-1 14-10q14-13 11-15-1-8-16 9m45 0q-19 19-8 16c4 0 26-23 24-26q0-5-16 10m-671-9c-2 1-17 16-20 21q-5 6 2 5c4 0 22-18 24-23q1-5-6-3m90 0-4 2c-18 17-21 21-19 23 4 5 30-18 28-24q0-3-5-1m46 0-24 24q3 3 8 0c6-2 22-20 22-22q-2-5-6-2m137 0q-3 1-13 11-16 17-6 14c6 0 27-21 24-25zm44 0a59 59 0 0 0-16 16q-8 9-2 9c4 0 24-19 24-23q0-5-6-2m-273 1q-5 3-17 15-7 9 0 10c5 0 25-20 24-25zm409 0-22 21v4q6 2 16-10l7-6c6-7 6-13-1-9M9 348l-6 5q-4 2-3 9v7l9-9q16-16 6-15zm756 12q-7 6-1 7 5 0 5-7v-4zM59 387c-8 5-24 23-22 26q4 4 15-6 19-20 13-20zm180 0-17 17c-8 8-5 13 4 7 5-3 20-20 20-21q0-5-7-3m320 0-22 21q-4 7 3 5c5-2 24-22 24-24q-1-4-5-2M8 394l-8 7v12c3 0 21-21 21-24q-2-6-13 5m84 3q-19 20-9 18c4 0 6-2 17-13q13-13 7-14c-3-2-5-1-15 9m103-9c-3 0-22 21-22 23q1 6 11-2l17-17q0-4-3-5zm134 1-19 20q-4 5 1 6c5 0 26-21 26-26q0-4-8 0m399 9q-14 15-10 15 2 3 16-12 15-14 7-14-1-1-13 11m-580-9-4 4c-5 3-19 19-19 21l3 1c6 0 28-21 27-25-1-2-7-3-7-1m135 1c-5 4-20 21-20 23 1 6 15-4 27-19q5-9-7-4m86 4q-20 19-13 19c4 2 25-18 25-23q-1-6-12 4m46 0-16 18c0 4 12-1 15-5l4-4c4-3 10-11 10-13q-1-5-13 4m46-1-12 13q-7 8-2 7 4 3 16-11 16-15 7-14zm50-3c-5 2-21 20-21 23q0 9 23-15 9-12-2-8m92 1c-14 9-25 27-14 22 6-3 21-19 21-22q0-4-7 0m90 0c-6 5-20 21-20 22q0 2 3 2c4 0 25-21 25-24q-2-5-8 0m-53 7q-21 21-8 18c4-1 22-21 22-24q-1-7-14 6m127 7q-6 7-1 9 4 0 3-7 0-5-2-2M61 431c-2 0-21 20-23 24q-4 5 3 4c4-1 25-23 25-26q1-5-5-2m133 1c-10 8-23 23-22 25 4 5 32-20 30-26q-2-3-8 1m226 2c-10 7-20 20-19 22q0 8 17-9 16-15 10-16-2-2-8 3m91 0c-9 6-22 21-21 24q2 5 15-8c13-13 14-16 13-18q0-4-7 2m-236 8q-17 18-8 16c3 0 5-1 14-10q21-18 8-17c-3 0-4 1-14 11m45 1q-16 15-9 16 3 2 14-9 21-19 10-19c-3 0-5 2-15 12m55-9-12 12q-12 11-5 12c4 0 25-21 25-25q0-5-8 1m94-1c-8 6-23 22-21 24q1 6 16-10c11-11 12-13 10-15q-2-2-5 1m91 0c-6 4-20 17-22 21q-1 5 2 5c3 0 26-22 26-26q0-4-6 0m-411 1c-8 5-23 22-21 24 3 4 20-9 26-20q6-10-5-4m547-1c-4 1-23 21-23 23q1 5 10-2c17-17 19-19 17-21zm45 0c-3 1-23 22-23 25 0 6 20-10 27-22q3-5-4-3m-729 2c-10 8-12 11-12 17l1 6 18-18q5-10-7-5m92-1c-3 1-23 22-23 24q0 5 5 3c5-2 23-22 23-24q0-4-5-3m135 1-18 19q-4 8 6 4c5-3 20-20 20-22q-2-5-8-1m413-1-23 23 1 2 2 2 3-2c6-4 22-21 22-23q-1-4-5-2m-57 10q-14 14-8 14 3 1 14-11 14-13 6-13-2-1-12 10m-217 32c-4 2-24 22-24 25q1 5 8-1c10-8 21-20 21-22q-1-4-5-2m-361 1-9 8-8 7v11l5-4c8-7 17-19 16-21q-1-3-4-1m316 0c-4 1-23 21-23 23q-1 4 3 3 6-1 8-5l6-6c2 0 9-9 11-11q2-7-5-4m90 1-11 9q-16 16-9 16c7 0 27-21 26-25q-1-3-6 0m217 9q-17 16-8 16c3 0 5-1 15-11q18-18 8-16c-3 0-5 2-15 11m58-10c-3 1-24 23-24 24q0 9 18-9 19-20 6-15m33 11q-14 12-12 14-1 4 3 3c5-1 25-23 25-26q0-8-16 9m-630-6-7 8-3 3c-3 0-7 6-7 9q1 6 10-3 20-18 16-20-2-5-9 3m39 4c-13 13-15 16-11 17q5 1 18-13 13-13 5-13-3-2-12 9m98-5c-19 16-20 18-18 21h5c3-1 16-13 20-18 5-7 0-10-7-3m51-3h-1c-3-1-24 19-24 24q1 3 7 0c5-3 21-20 21-23q0-3-3-1m167 10q-17 17-8 16c5 0 25-20 25-24q0-10-17 8m103-9c-6 3-23 22-22 24q5 3 23-15c6-7 5-13-1-9M48 491c-12 12-13 14-10 15q3 2 18-13c10-11 11-13 6-14-2 0-4 1-14 12m146-10c-6 4-21 20-21 23 0 6 11-2 25-18q7-11-4-5m312 5-8 7-3 4q-3 3-1 4l1 2c-2 5 7-3 15-11s8-10 8-12q-1-4-12 6m89 3q-15 14-8 14 5 1 18-13c7-9 8-10 3-11-3 0-4 1-13 10"
        mask="url(#16282281824-posters-1720558202422-horizontal-mask)" itemprop="bold" fill-opacity="0.90"
        fill-rule="evenodd" stroke="none" fill="url(#16282281824-posters-1720558202422-vertical-bold)"></path>
    </pattern>
    <rect id="16282281824-posters-1720558202422-pattern-render" fill="url(#16282281824-posters-1720558202422-pattern)"
      width="100%" height="100%"></rect>
  </defs>
  <radialGradient id="lightbar" cx="50%" cy="200%" fy="0" r="201%">
    <stop offset="0%" style="stop-color: rgb(255, 255, 255); stop-opacity: 0.1;"></stop>
    <stop offset="10%" style="stop-color: rgb(0, 0, 0); stop-opacity: 0.1;"></stop>
    <stop offset="30%" style="stop-color: rgb(0, 0, 0); stop-opacity: 0.3;"></stop>
    <stop offset="90%" style="stop-color: rgb(0, 0, 0); stop-opacity: 0.55;"></stop>
    <stop offset="100%" style="stop-color: rgb(0, 0, 0); stop-opacity: 0.6;"></stop>
  </radialGradient>
  <g class="radial">
    <radialGradient id="16282281824-posters-1720558202422-radial" gradientUnits="userSpaceOnUse">
      <stop itemprop="radial" stop-color="#cdcccb" offset="0%"></stop>
      <stop itemprop="radial" stop-color="#c4c2c0" offset="15%"></stop>
      <stop itemprop="radial" stop-color="#cdcccb" offset="30%"></stop>
      <stop itemprop="radial" stop-color="#cdcccb" offset="45%"></stop>
      <stop itemprop="radial" stop-color="#c3c2c1" offset="60%"></stop>
      <stop itemprop="radial" stop-color="#cdcccb" offset="75%"></stop>
      <stop itemprop="radial" stop-color="#d2d1d0" offset="90%"></stop>
    </radialGradient>
    <radialGradient id="16282281824-posters-1720558202422-radial-background" gradientUnits="userSpaceOnUse">
      <stop stop-color="#d3cdc5" offset="0%"></stop>
      <stop stop-color="#d3cdc5" offset="15%"></stop>
      <stop stop-color="#d3cfc5" offset="30%"></stop>
      <stop stop-color="#d3cdc5" offset="45%"></stop>
      <stop stop-color="#d3cec5" offset="60%"></stop>
      <stop stop-color="#d3cfc5" offset="75%"></stop>
      <stop stop-color="#d3cec5" offset="90%"></stop>
    </radialGradient>
    <radialGradient id="16282281824-posters-1720558202422-radial-light" gradientUnits="userSpaceOnUse">
      <stop stop-color="#9b9997" offset="0%"></stop>
      <stop stop-color="#9c9a96" offset="15%"></stop>
      <stop stop-color="#9b9a97" offset="30%"></stop>
      <stop stop-color="#9b9997" offset="45%"></stop>
      <stop stop-color="#9b9a97" offset="60%"></stop>
      <stop stop-color="#9b9a97" offset="75%"></stop>
      <stop stop-color="#9c9a96" offset="90%"></stop>
    </radialGradient>
    <radialGradient id="16282281824-posters-1720558202422-radial-regular" gradientUnits="userSpaceOnUse">
      <stop stop-color="#82807d" offset="0%"></stop>
      <stop stop-color="#83807c" offset="15%"></stop>
      <stop stop-color="#82817d" offset="30%"></stop>
      <stop stop-color="#82807d" offset="45%"></stop>
      <stop stop-color="#82807d" offset="60%"></stop>
      <stop stop-color="#82817d" offset="75%"></stop>
      <stop stop-color="#83817c" offset="90%"></stop>
    </radialGradient>
    <radialGradient id="16282281824-posters-1720558202422-radial-medium" gradientUnits="userSpaceOnUse">
      <stop stop-color="#514f4d" offset="0%"></stop>
      <stop stop-color="#51504d" offset="15%"></stop>
      <stop stop-color="#51504d" offset="30%"></stop>
      <stop stop-color="#514f4d" offset="45%"></stop>
      <stop stop-color="#51504d" offset="60%"></stop>
      <stop stop-color="#51504d" offset="75%"></stop>
      <stop stop-color="#51504d" offset="90%"></stop>
    </radialGradient>
    <radialGradient id="16282281824-posters-1720558202422-radial-bold" gradientUnits="userSpaceOnUse">
      <stop stop-color="#2f2e2d" offset="0%"></stop>
      <stop stop-color="#2f2e2d" offset="15%"></stop>
      <stop stop-color="#2f2e2d" offset="30%"></stop>
      <stop stop-color="#2f2e2d" offset="45%"></stop>
      <stop stop-color="#2f2e2d" offset="60%"></stop>
      <stop stop-color="#2f2e2d" offset="75%"></stop>
      <stop stop-color="#2f2e2d" offset="90%"></stop>
    </radialGradient>
  </g>
  <g class="vertical">
    <linearGradient id="16282281824-posters-1720558202422-vertical" gradientUnits="userSpaceOnUse" x1="0" x2="0" y1="0"
      y2="100%">
      <stop itemprop="vertical" stop-color="#cdcccb" offset="0%"></stop>
      <stop itemprop="vertical" stop-color="#c4c2c0" offset="15%"></stop>
      <stop itemprop="vertical" stop-color="#cdcccb" offset="30%"></stop>
      <stop itemprop="vertical" stop-color="#cdcccb" offset="45%"></stop>
      <stop itemprop="vertical" stop-color="#c3c2c1" offset="60%"></stop>
      <stop itemprop="vertical" stop-color="#cdcccb" offset="75%"></stop>
      <stop itemprop="vertical" stop-color="#d2d1d0" offset="90%"></stop>
    </linearGradient>
    <linearGradient id="16282281824-posters-1720558202422-vertical-background" gradientUnits="userSpaceOnUse" x1="0"
      x2="0" y1="0" y2="100%">
      <stop stop-color="#cdcccb" offset="0%"></stop>
      <stop stop-color="#ceccca" offset="15%"></stop>
      <stop stop-color="#cdcccb" offset="30%"></stop>
      <stop stop-color="#cdcccb" offset="45%"></stop>
      <stop stop-color="#cdcccb" offset="60%"></stop>
      <stop stop-color="#cdcccb" offset="75%"></stop>
      <stop stop-color="#ceccca" offset="90%"></stop>
    </linearGradient>
    <linearGradient id="16282281824-posters-1720558202422-vertical-light" gradientUnits="userSpaceOnUse" x1="0" x2="0"
      y1="0" y2="100%">
      <stop stop-color="#ae9d84" offset="0%"></stop>
      <stop stop-color="#ae9d84" offset="15%"></stop>
      <stop stop-color="#aea284" offset="30%"></stop>
      <stop stop-color="#ae9d84" offset="45%"></stop>
      <stop stop-color="#aea084" offset="60%"></stop>
      <stop stop-color="#aea284" offset="75%"></stop>
      <stop stop-color="#ae9f84" offset="90%"></stop>
    </linearGradient>
    <linearGradient id="16282281824-posters-1720558202422-vertical-regular" gradientUnits="userSpaceOnUse" x1="0" x2="0"
      y1="0" y2="100%">
      <stop stop-color="#82807d" offset="0%"></stop>
      <stop stop-color="#83807c" offset="15%"></stop>
      <stop stop-color="#82817d" offset="30%"></stop>
      <stop stop-color="#82807d" offset="45%"></stop>
      <stop stop-color="#82807d" offset="60%"></stop>
      <stop stop-color="#82817d" offset="75%"></stop>
      <stop stop-color="#83817c" offset="90%"></stop>
    </linearGradient>
    <linearGradient id="16282281824-posters-1720558202422-vertical-medium" gradientUnits="userSpaceOnUse" x1="0" x2="0"
      y1="0" y2="100%">
      <stop stop-color="#514f4d" offset="0%"></stop>
      <stop stop-color="#51504d" offset="15%"></stop>
      <stop stop-color="#51504d" offset="30%"></stop>
      <stop stop-color="#514f4d" offset="45%"></stop>
      <stop stop-color="#51504d" offset="60%"></stop>
      <stop stop-color="#51504d" offset="75%"></stop>
      <stop stop-color="#51504d" offset="90%"></stop>
    </linearGradient>
    <linearGradient id="16282281824-posters-1720558202422-vertical-bold" x1="0" x2="0" y1="0" y2="100%">
      <stop stop-color="#2f2e2d" offset="0%"></stop>
      <stop stop-color="#2f2e2d" offset="15%"></stop>
      <stop stop-color="#2f2e2d" offset="30%"></stop>
      <stop stop-color="#2f2e2d" offset="45%"></stop>
      <stop stop-color="#2f2e2d" offset="60%"></stop>
      <stop stop-color="#2f2e2d" offset="75%"></stop>
      <stop stop-color="#2f2e2d" offset="90%"></stop>
    </linearGradient>
  </g>
  <g class="horizontal">
    <linearGradient id="16282281824-posters-1720558202422-horizontal" x1="0" x2="100%" y1="0" y2="0"
      gradientUnits="userSpaceOnUse">
      <stop itemprop="horizontal" stop-color="#c9c7c5" offset="0%"></stop>
      <stop itemprop="horizontal" stop-color="#cbcac8" offset="15%"></stop>
      <stop itemprop="horizontal" stop-color="#cbcac8" offset="30%"></stop>
      <stop itemprop="horizontal" stop-color="#cbcac8" offset="45%"></stop>
      <stop itemprop="horizontal" stop-color="#d0cfce" offset="60%"></stop>
      <stop itemprop="horizontal" stop-color="#cbcac8" offset="75%"></stop>
      <stop itemprop="horizontal" stop-color="#d2d1d0" offset="90%"></stop>
    </linearGradient>
    <linearGradient id="16282281824-posters-1720558202422-horizontal-background" gradientUnits="userSpaceOnUse" x1="0"
      x2="100%" y1="0" y2="0">
      <stop stop-color="#ceccca" offset="0%"></stop>
      <stop stop-color="#cdcccb" offset="15%"></stop>
      <stop stop-color="#cdcccb" offset="30%"></stop>
      <stop stop-color="#cdcccb" offset="45%"></stop>
      <stop stop-color="#cdcccb" offset="60%"></stop>
      <stop stop-color="#cdcccb" offset="75%"></stop>
      <stop stop-color="#ceccca" offset="90%"></stop>
    </linearGradient>
    <linearGradient id="16282281824-posters-1720558202422-horizontal-light" gradientUnits="userSpaceOnUse" x1="0"
      x2="100%" y1="0" y2="0">
      <stop stop-color="#9c9a96" offset="0%"></stop>
      <stop stop-color="#9b9a97" offset="15%"></stop>
      <stop stop-color="#9b9a97" offset="30%"></stop>
      <stop stop-color="#9b9997" offset="45%"></stop>
      <stop stop-color="#9b9a97" offset="60%"></stop>
      <stop stop-color="#9b9997" offset="75%"></stop>
      <stop stop-color="#9c9a96" offset="90%"></stop>
    </linearGradient>
    <linearGradient id="16282281824-posters-1720558202422-horizontal-regular" gradientUnits="userSpaceOnUse" x1="0"
      x2="100%" y1="0" y2="0">
      <stop stop-color="#968469" offset="0%"></stop>
      <stop stop-color="#968769" offset="15%"></stop>
      <stop stop-color="#968769" offset="30%"></stop>
      <stop stop-color="#968469" offset="45%"></stop>
      <stop stop-color="#968969" offset="60%"></stop>
      <stop stop-color="#968469" offset="75%"></stop>
      <stop stop-color="#968669" offset="90%"></stop>
    </linearGradient>
    <linearGradient id="16282281824-posters-1720558202422-horizontal-medium" gradientUnits="userSpaceOnUse" x1="0"
      x2="100%" y1="0" y2="0">
      <stop stop-color="#5d5241" offset="0%"></stop>
      <stop stop-color="#5d5441" offset="15%"></stop>
      <stop stop-color="#5d5441" offset="30%"></stop>
      <stop stop-color="#5d5241" offset="45%"></stop>
      <stop stop-color="#5d5541" offset="60%"></stop>
      <stop stop-color="#5d5241" offset="75%"></stop>
      <stop stop-color="#5d5341" offset="90%"></stop>
    </linearGradient>
    <linearGradient id="16282281824-posters-1720558202422-horizontal-bold" gradientUnits="userSpaceOnUse" x1="0"
      x2="100%" y1="0" y2="0">
      <stop stop-color="#2f2e2d" offset="0%"></stop>
      <stop stop-color="#2f2e2d" offset="15%"></stop>
      <stop stop-color="#2f2e2d" offset="30%"></stop>
      <stop stop-color="#2f2e2d" offset="45%"></stop>
      <stop stop-color="#2f2e2d" offset="60%"></stop>
      <stop stop-color="#2f2e2d" offset="75%"></stop>
      <stop stop-color="#2f2e2d" offset="90%"></stop>
    </linearGradient>
  </g>
  <g class="masks">
    <mask id="16282281824-posters-1720558202422-pattern-mask" maskUnits="userSpaceOnUse"
      maskContentUnits="userSpaceOnUse">
      <pattern id="pattern" x="0" y="0" width=".0133" height=".0144" viewBox="0 0 23.07 40">
        <path
          d="M17.62 0l-6.07 10.5m2.74 4.76L8.22 4.75m-5.48 0h12.13M.01 0h23.07M6.07 20L0 9.5m2.74-4.75l-6.07 10.5m-5.48 0H3.33m8.2 4.75L0 .02-11.54 20m40.68 0L23.07 9.5m2.74-4.75l-6.06 10.5m-5.49 0H26.4M34.6 20L23.08.02 11.53 20m-5.46 0L0 30.51m2.74 4.75l-6.07-10.5m-5.48 0H3.33m8.2-4.75L0 40l-11.54-19.98zM17.6 40l-6.06-10.5m2.74-4.76L8.2 35.25m-5.48 0h12.13M0 40h23.07L11.54 20.01m17.6 0l-6.07 10.5m2.74 4.75l-6.06-10.5m-5.49 0H26.4M11.53 20h23.08L23.07 40"
          stroke-linecap="round" stroke-width="3.5" stroke="white"
          fill="url(#16282281824-posters-1720558202422-horizontal-background)"></path>
      </pattern>
      <rect width="100%" height="100%" fill="url(#pattern)"></rect>
    </mask>
    <mask id="16282281824-posters-1720558202422-horizontal-mask" maskUnits="userSpaceOnUse"
      maskContentUnits="userSpaceOnUse">
      <rect width="100%" height="100%" fill="url(#16282281824-posters-1720558202422-horizontal-background)"></rect>
    </mask>
    <mask id="16282281824-posters-1720558202422-radial-mask" maskUnits="userSpaceOnUse"
      maskContentUnits="userSpaceOnUse">
      <rect width="100%" height="100%" fill="url(#16282281824-posters-1720558202422-radial-background)"></rect>
    </mask>
    <mask id="16282281824-posters-1720558202422-vertical-mask" maskUnits="userSpaceOnUse"
      maskContentUnits="userSpaceOnUse">
      <rect width="100%" height="100%" fill="url(#16282281824-posters-1720558202422-vertical-background)"></rect>
    </mask>
  </g>
  <use href="#16282281824-posters-1720558202422-pattern-render"></use>
  <g>
    <use href="#16282281824-posters-1720558202422-background"></use>
    <use href="#16282281824-posters-1720558202422-light"></use>
    <use href="#16282281824-posters-1720558202422-regular"></use>
    <use href="#16282281824-posters-1720558202422-medium"></use>
    <use href="#16282281824-posters-1720558202422-bold"></use>
  </g>
  <g itemprop="animation">
    <animate href="#16282281824-posters-1720558202422-light" attributeName="stroke-opacity" repeatCount="indefinite"
      dur="5s" values="0.9;0.0;0.9"></animate>
    <animate href="#16282281824-posters-1720558202422-regular" attributeName="stroke-opacity" repeatCount="indefinite"
      dur="4s" values="0.9;0;0.9"></animate>
    <animate href="#16282281824-posters-1720558202422-medium" attributeName="stroke-opacity" repeatCount="indefinite"
      dur="5s" values="0.9;0;0.9"></animate>
    <animate href="#16282281824-posters-1720558202422-bold" attributeName="stroke-opacity" repeatCount="indefinite"
      dur="3s" values="0.9;0;0.9"></animate>
    <animate href="#16282281824-posters-1720558202422-regular" attributeName="fill-opacity" repeatCount="indefinite"
      dur="8s" values="0.9;0.75;0.95;0.8;0.9;"></animate>
    <animate href="#16282281824-posters-1720558202422-radial-background" attributeName="cx" repeatCount="indefinite"
      dur="34s" values="0%;33%;100%;0%;100%;0%;"></animate>
    <animate href="#16282281824-posters-1720558202422-radial-background" attributeName="cy" repeatCount="indefinite"
      dur="55s" values="0%;100%;33%;100%;66%;0%"></animate>
    <animate href="#16282281824-posters-1720558202422-vertical-light" attributeName="x1" repeatCount="indefinite"
      dur="55s" values="0%;33%;100%;0%;133%;0%;"></animate>
    <animate href="#16282281824-posters-1720558202422-vertical-light" attributeName="y1" repeatCount="indefinite"
      dur="86s" values="0%;100%;33%;100%;66%;0%"></animate>
    <animate href="#16282281824-posters-1720558202422-horizontal-regular" attributeName="x1" repeatCount="indefinite"
      dur="34s" values="0%;100%;66%;0%;33%;133%;0%"></animate>
    <animate href="#16282281824-posters-1720558202422-horizontal-regular" attributeName="y1" repeatCount="indefinite"
      dur="55s" values="0%;66%;100%;33%;100%;66%;0%"></animate>
    <animate href="#16282281824-posters-1720558202422-vertical-medium" attributeName="x1" repeatCount="indefinite"
      dur="34s" values="0%;100%;66%;0%;33%;133%;0%"></animate>
    <animate href="#16282281824-posters-1720558202422-vertical-medium" attributeName="y1" repeatCount="indefinite"
      dur="55s" values="0%;66%;100%;33%;100%;66%;0%"></animate>
    <animate href="#16282281824-posters-1720558202422-vertical-bold" attributeName="x1" repeatCount="indefinite"
      dur="34s" values="0%;100%;66%;0%;33%;133%;0%"></animate>
    <animate href="#16282281824-posters-1720558202422-vertical-bold" attributeName="y1" repeatCount="indefinite"
      dur="55s" values="0%;66%;100%;33%;100%;66%;0%"></animate>
  </g>
</svg>
