<svg id="16282281824-posters-1720553845194" itemscope="" itemtype="/posters"
  itemid="/+16282281824/posters/1720553845194" viewBox="0 0 769 512" preserveAspectRatio="xMidYMid meet" tabindex="0"
  class="animate landscape" xmlns="http://www.w3.org/2000/svg">
  <!---->
  <defs class="graphic">
    <pattern id="16282281824-posters-1720553845194-pattern" width="769" height="512" viewBox="0 0 769 512"
      patternUnits="userSpaceOnUse" preserveAspectRatio="xMidYMid meet">
      <rect itemprop="background" width="769" height="512" tabindex="-1"
        id="16282281824-posters-1720553845194-background" fill-opacity="1"
        fill="url(#16282281824-posters-1720553845194-radial-background)"></rect>
      <!---->
      <path id="16282281824-posters-1720553845194-light"
        d="M17 2q-2 6 5 9 8 5 12-1 2-3 5-1h6q1-2 3 1 3 6 10 1 7-4 7-9c-2-3-18-3-18 0q0 6-4 1l-5-2h-4l-8-1c-8 0-8 0-9 2m121 0q-1 5 7 8 12 4 11-6V1l-9-1c-8 0-8 0-9 2m31 0q-1 6 2 9c4 2 14-3 14-8V0h-8q-9 0-8 2m87-1c0 4 7 9 13 9q6 0 6-7V0h-9zm34 2q0 9 8 8l5-3q4-1 5-6c0-2 0-2-9-2h-9zm93 0c0 4 10 10 14 8q5-2 3-9 1-2-9-2h-8zm32-1c0 7 11 8 15 2q4-4-7-4c-8 0-8 0-8 2m91-1c0 2 6 6 9 6q6 1 7-3l2-4h-9zm32 1q1 8 12 2 9-4-4-4-9 0-8 2m91-1c0 3 12 6 15 4q5-5-7-5zm31 0c0 4 7 6 13 2q8-3-5-3zm94 1c5 4 13 3 13-1l-8-1h-7zm-48 1q-7 3 3 14 3 2 7 1c5-3 8-12 4-15-2-2-11-2-14 0M587 5q-8 2-5 10 8 13 14 3 5-7 2-12-5-2-11-1M463 6q-5 5-2 9l2 3q3 5 9 4c2-1 7-7 7-10 0-5-10-9-16-6M336 9q-4 3-2 7 4 7 10 9c7 0 12-13 7-16-4-3-12-3-15 0M215 9q-10 2-2 13 7 8 13-3 6-13-11-10M94 11c-5 5 5 19 10 15q8-9 4-15c-2-3-12-3-14 0m589 6q-9 4-10 8c0 3 10 11 14 11q5-1 6-10 0-13-10-9m55 2c-6 6 0 20 7 15q10-6 7-12-8-7-14-3m-182 1q-10 6-1 14 12 7 13-3 2-19-12-11m59 0c-4 3-1 15 3 16 4 2 12-5 12-10s-12-10-15-6m-183 3q-10 7-1 12l6 4c7 1 11-11 5-16q-3-6-10 0m59-1c-2 4 0 15 4 16 3 2 12-6 12-11s-13-9-16-5m-180 0q-13 6-3 14 13 9 13-5 0-12-10-9m-122 1q-12 4-7 11 15 13 16-3 0-11-9-8M65 25q-11 7 1 14 10 6 10-7t-11-7m59-1c-2 1-2 13 0 15 4 5 16-3 15-9-2-4-11-8-15-6m122 1c-4 7-1 17 5 17 4 0 11-7 11-10 0-6-13-11-16-7m122 0c-3 2-3 13 0 16 3 5 15-1 14-8-1-6-10-11-14-8M5 28c-6 6 0 20 7 15q13-8 1-15-6-3-8 0m521 7-6 11c0 7 17 7 18 0 2-7-7-15-12-11m121 2-2 3q-2 3-2 8c1 6 19 5 19-2 0-4-7-11-11-11zm-370 2q-12 16 4 16 14 0 8-12-6-10-12-4m488 2-1 4 2 3 3 2v-6q0-12-4-3M35 42c-4 4-6 11-2 13 2 2 12 1 14 0 7-6-5-19-12-13m120 0q-11 13 4 14 9 0 9-6c0-7-9-13-13-8m246 0q-10 12 5 13 12 1 8-8a8 8 0 0 0-13-5m325 6q-4 4-3 13c1 6 11 5 16-1 3-6-7-15-13-12m-27 1c-3 0-10 6-11 8q-1 5 8 8l6 2 3-2c5-6 1-18-6-16m-102 3c-4 7-2 16 4 16 9 0 15-9 10-14q-10-9-14-2m-119 1c-2 2-2 10 0 13 4 6 19-3 15-9-3-5-12-8-15-4m93 2q-9 8 3 13 13 5 11-9-3-14-14-4m-119-1q-12 9-1 15 12 7 12-8-2-13-11-7m-248 2q-10 8-4 12c7 5 15 5 16 0 2-10-5-17-12-12m27 1q-5 14 6 14 16-5 6-14-9-6-12 0m97-1q-6 3-8 8c0 6 16 12 18 7s0-15-4-16q-1-2-6 1m-218 0c-2 2-2 12-1 15 3 6 18-2 16-9-1-5-12-9-15-6m245 1c-3 3-4 12-2 15 3 3 11 0 15-4q3-6-7-12c-4-1-3-1-6 1M84 59q-6 4-7 8l1 2c0 1 8 5 11 5q8-1 4-12-3-8-9-3m565 7q-10 3-3 13 8 10 14-2 5-14-11-11m-367 1-5 1q-8 2 1 14 7 8 13-6 3-4 1-6-4-5-10-3m240 1c-4 3 3 16 9 16 5 0 11-11 8-16-2-3-13-3-17 0m-366 0q-10 2-3 12 8 13 15 0 7-15-12-12m246 0q-8 2-1 12 6 11 13 1 5-8-1-12-5-3-11-1M32 74q-2 4 1 8l2 3q3 5 8 2l5-10c0-6-12-8-16-3m709 3q-9 5-4 11 15 12 16-4-1-11-12-7m-124 3q-13 6-1 14 12 6 12-6 1-14-11-8m58 1c-3 5 0 15 5 15 4 0 11-6 11-9 0-7-12-12-16-6m-489 1c-2 1-3 12-1 15 4 5 17-1 17-8 0-6-11-11-16-7m244-1c-2 3-1 14 2 15 4 4 13-1 13-8 0-6-11-11-15-7m64 2q-7 6-1 10 14 10 15-5-2-14-14-5m63 0c-2 2-3 10 0 13 3 5 14 0 14-8 0-6-10-10-14-5m-252 0c-3 3-1 16 4 18 2 0 10-4 12-7 3-5-10-15-16-11M62 85c-2 2-2 12 1 14q6 5 14-6c3-6-11-13-15-8m183 1q-9 7 2 13 12 6 12-7-1-14-14-6m-120 1q-10 6 0 13 12 6 13-6 0-15-13-7m247-2-1 1q-6 2-7 6 0 6 11 9c6 2 10-8 6-15-1-2-9-3-9-1M4 88q-5 2-4 7c0 7 12 11 15 5q2-6-1-12-3-3-10 0m704 6c-3 2-6 12-4 15s15 2 18-1c3-6-8-18-14-14m-119 4-3 4-1 1c-2 0-1 6 1 8 3 2 14 1 16-2s-2-10-6-13q-4-2-7 2m-124-1-4 6-3 5 2 2c2 3 11 4 15 2 8-5-1-19-10-15m-367 4c-2 1-6 9-6 11 0 7 17 7 18 0 1-6-8-14-12-11m120 1c-2 1-6 9-5 12s9 4 14 2c4-1 5-10 1-10l-1-2q-1-6-9-2m121 2q-5 6-5 10c0 4 15 7 18 3q4-4-2-12-5-7-11-1m420 4c-9 5-9 13 0 16q10 5 10-8 0-12-10-8m-339 3c-7 3-6 17 1 17l8-3c5-5-2-16-9-14m119 1c-5 5-1 18 5 17 11-3 14-11 5-16q-6-6-10-1m98-1q-10 6-6 12 15 11 17-4-1-12-11-8m-125 1c-7 3-11 10-7 12l4 3 5 2q9 1 8-9 0-12-10-8m150 1c-4 5-2 15 1 16 4 0 12-4 14-6 3-7-11-16-15-10m-519 3q-11 7 1 13 16 7 10-11l-2-4-2-1zm30-1c-5 5-4 15 2 16 7 1 13-5 11-10-3-6-10-10-13-6m-123 0c-2 3-3 12-2 15 3 6 17 1 17-6 0-5-12-12-15-9m-24 2q-14 8-1 14 11 6 11-7-2-13-10-7m239 0q-13 8 1 14l6 2 2-2q4-6 0-13-2-5-9-1m28 0c-3 3-4 12-1 14 4 5 17-1 16-8-1-6-12-10-15-6m96 0q-7 5-8 9c1 4 13 9 17 7 3-2 2-13-1-15s-3-2-8-1m320 7c-6 1-6 10 1 15q5 5 11-5 6-13-12-10m-246 1q-7 5 2 15 4 5 7 3c7-4 9-14 5-17-3-2-11-2-14-1m123 0q-4 3 1 12 8 12 16-2 4-11-9-11zm-368 3q-10 2-3 12 8 14 14 0 4-5 2-8-2-6-13-4m119 1q-6 4 2 14 6 8 10 0c9-10 1-19-12-14m-241 2c-4 4 1 16 7 16 4 0 10-8 10-13s-14-7-17-3m523 7c-7 2-5 18 3 18 3 0 11-7 11-10 0-2-5-8-7-8zm122 1c-2 2-2 10 0 15s15-2 15-8-11-11-15-7m-60 1q-13 6-3 14 14 9 14-7-2-12-11-7m-244 2q-12 8 2 15c7 3 14-6 10-13q-2-7-12-2m58-1c-5 4-2 18 4 18 4 0 11-6 11-10q-1-5-4-6l-1-1c-1-1-8-2-10-1m62 2q-12 6 0 13 13 8 13-6-1-15-13-7m-308 0q-5 1-4 7l1 5q1 11 12 3c8-6 1-17-9-15m-57 1q-15 7-1 15 10 5 11-7 0-11-10-8m119 0-2 1-1 1q-4 1-5 6c0 3 10 10 14 10s7-14 3-17q-3-3-9-1m-183 1c-4 4-4 16 1 18 4 2 12-3 14-9q1-6-11-9zm241 2c-2 2-3 9-1 13 3 5 14 1 16-6q1-5-8-8-6-2-7 1M5 148c-3 3-2 13 1 14 5 5 18-5 14-11-3-5-13-7-15-3m62 0q-7 5-5 8c2 2 10 8 12 8 5 0 7-7 6-13q-1-6-6-5zm460 9c-4 3-7 10-6 13 2 5 16 5 19 0 2-2-1-10-6-13q-3-3-7 0m121 4q-10 13 6 13 12 0 8-9-5-13-14-4m-489 2q-10 12 5 13 13 0 7-11-5-10-12-2m-121 0q-11 14 4 14 13 0 9-9-4-7-8-8-3 0-5 3m242-1q-6 7-3 12c2 3 13 3 16 0 4-7-7-18-13-12m124 1c-12 7-5 18 8 14q9-4 0-13c-4-3-4-4-8-1m322 5q-4 6-3 14 0 4 6 3l6-1 3-2 2-3q3-5-5-10-7-6-9-1m-29 5q-12 8-1 13 13 6 14-6-1-14-13-7m-242 1q-11 7-1 13 14 9 14-7-2-12-13-6m28 0c-3 6-1 16 4 16s12-6 11-10c-2-6-13-10-15-6m93 1q-9 8 2 14 12 5 12-7-2-16-14-7m28-2c-6 8-2 19 6 17q9-3 10-9-3-6-8-7l-1-1c0-1-5-2-7 0m-490 1c-3 2-5 10-3 14 2 7 17 2 17-5 0-5-9-11-14-9m122 0c-3 1-5 12-3 16 3 4 17-1 17-7 0-5-9-11-14-9m-152 4c-6 7-5 8 2 12q14 7 12-6-2-17-14-6m125-3c-3 1-9 7-9 8 0 6 14 13 18 9l1-7q0-14-10-10m118 2q-14 7-2 13 14 8 12-7-2-11-10-6m27 0c-2 3-3 13-1 15 3 3 11 0 15-5q4-6-5-10-6-5-9 0M0 185q-1 11 4 6 8-4-1-12-3-5-3 6m648 1c-3 1-6 8-3 8l1 1q1 4 7 8c3 2 11-7 11-13 0-5-10-8-16-4m-370 2c-7 5 3 19 10 15q3-1 3-3l1-1c1 0 3-7 2-9-1-4-12-5-16-2m250-1q-10 0-5 10 8 14 15 0 6-12-10-10m-370 2q-6 3 0 11 7 13 13 0 5-9-1-11-7-3-12 0m241 2q-4 2 1 9 6 11 13 1 8-12-7-12-6 0-7 2m-361 0q-6 3 0 11 10 13 15-2 3-9-4-8l-6-2zm704 8q-12 7 1 14 10 5 11-1l1-4q1-14-13-9m-63 0c-3 4-2 13 1 17 5 5 14-2 14-10-1-5-12-11-15-7m-245 3c-4 4-2 17 4 17 5 0 13-7 12-11-2-6-13-10-16-6m122-1c-2 2-3 11-1 15 4 7 19-2 16-10-1-5-12-8-15-5m62 1q-10 5 2 13 9 4 11 0c1-3 1-12-1-14q-5-2-12 1m-429 1c-3 2-4 10-2 14 3 6 17 0 17-7q1-4-6-6c-7-3-6-3-9-1m311 1q-11 6 0 12 11 8 11-6 0-13-11-6m-246-1q-15 5-7 13 14 11 15-4 1-12-8-9m-127 3q-7 5 0 10 12 9 13 0c4-11-4-17-13-10m-60-1c-2 3-1 16 1 18 5 2 16-4 16-9 0-6-13-12-17-9m-57 2q-10 7-1 13 12 6 12-6 0-13-11-7m299 0q-3 5-1 12c3 6 16 0 14-6-1-5-10-9-13-6m64 1q-12 6 3 14 8 5 9-4 2-17-12-10m338 7-5 6-2 4 2 2q2 4 7 3c11 0 14-9 5-15q-3-3-7 0m-120 3c-7 7-5 15 4 15 11 0 14-8 6-15q-5-6-10 0m-123 1c-5 4-6 12-2 14 7 3 18-1 16-7q-5-12-14-7m-250 3q-10 13 5 13 17-1 5-14-4-6-10 1m-120 0c-7 5-7 13 0 14q17 1 11-11-6-8-11-3m243 2c-9 10-2 19 11 13q8-3-1-13-6-6-10 0m322 6c-5 5-2 15 5 15 8 0 14-8 9-13q-9-9-14-2m-118-1c-5 1-5 14-1 16 7 3 16-4 13-10q-5-7-12-6m-28 2q-12 8-1 14 14 6 13-9-3-10-12-5m121 0q-7 5 0 12 13 7 13-6-1-12-13-6m118 1q-7 7-2 11 14 8 15-4-1-16-13-7m-335 1c-3 3-4 11-2 14 4 4 15-1 15-6 0-7-9-12-13-8m-156 2q-11 6 3 12 12 7 11-5-1-14-14-7m-93 0c-2 2-3 10-1 13 3 5 14 0 14-7a9 9 0 0 0-13-6m122-1c-2 1-4 11-2 14s14 1 16-4-9-13-14-10m-144 1c-8 3-9 10-3 13q12 5 12-6-2-9-9-7m-97 2c-6 6-4 17 2 17s13-5 13-9q-1-4-9-9-4-2-6 1m332 0q-7 4-2 10l3 3c0 1 6 4 8 3 5-1 7-12 4-16q-4-4-13 0m-359 2c-11 7-6 15 8 14 5 0 6-10 1-15q-3-5-9 1m441 7q-4 3-2 7 8 17 16 1l3-5-2-3c-3-3-12-3-15 0m121 0q-5 4 1 10 9 12 14-2l2-5-2-2c-3-3-11-4-15-1m120 0c-6 4 4 19 11 15 3-2 6-9 5-12-2-5-11-7-16-3m-489 3q-6 3-1 10 7 12 13-1c4-8-4-14-12-9m122 0q-5 5-1 9l1 2c0 4 7 5 10 1q8-10-1-12l-4-1q-2-1-5 1m-244 1c-6 5 4 18 10 15 2 0 6-7 6-10 0-5-11-8-16-5m400 8c-3 3-3 11 1 15l3 4 5-3q15-8 1-16-8-4-10 0m121 0c-3 4-2 15 2 16 5 2 14-5 14-9q-1-4-9-8-6-2-7 1m122 2q-3 5 0 12c3 8 17 1 16-8-1-6-14-10-16-4m-58 0q-12 6 2 15 9 4 11-8 1-12-13-7m-239 0q-13 6-5 14 15 9 14-9-1-8-9-5m118 2q-11 5-2 12 14 9 14-5-1-12-12-7m-434 2c-3 4 1 14 6 15 4 0 10-6 9-12 0-5-12-8-15-3m64 0q-9 5 1 12 7 6 10 0c6-10-2-19-11-12m59-2c-2 2-1 11 1 14 3 5 13 0 13-7 0-5-10-10-14-7m62 1q-10 7 2 13t12-7-14-6m61 1c-5 5 0 17 6 16 11-3 12-14 1-17q-6-2-7 1M8 265c-5 4 0 17 5 16q8-4 9-10c0-5-11-10-14-6m66 0q-15 6 2 15 6 2 8-9 0-11-10-6m578 9q-10 10-3 15c10 3 19 0 16-7-2-7-9-11-13-8m-122 5q-7 12 6 11 14-1 6-11-7-8-12 0m-126-2c-9 5-7 16 3 16q12 0 8-10-5-9-11-6m-244 3q-7 7-4 13c2 2 14 1 16-1 6-6-5-17-12-12m121 2q-9 11 5 12 16-1 7-12-7-7-12 0m-241 0-4 9c0 5 14 7 17 3q4-4-1-10-6-7-12-2m689 7c-3 1-5 13-2 16 1 2 7 3 8 1l2-1q6-1 7-7c0-6-9-11-15-9m-245 1c-6 2-5 16 1 17 2 1 9-2 11-5 5-5-5-15-12-12m95 0q-16 11 3 18 11 1 7-14-3-7-10-4m123 1q-15 9-1 16 13 3 11-10-2-10-10-6m-97 0c-4 3-5 13-2 15 6 6 21-3 17-10-3-4-13-8-15-5m-147 1-3 2-1 1q-4 2-5 6c0 6 14 9 18 5 4-7-2-16-9-14m-221 3c-3 4-3 13 0 15 3 3 13-1 14-6 2-7-11-14-14-9m91 0q-12 7-1 14 11 6 12-5-1-13-11-9m-211 0c-4 1-6 12-3 15 4 3 14-1 14-6s-6-11-11-9m241 0c-4 6-3 16 3 16q11-1 12-9c0-4-12-10-15-7m-271 3c-7 5-4 12 6 12l6 1v-6q0-14-12-7m120 1q-7 5 0 9 12 6 13-5-1-14-13-4M0 304q-1 11 4 5 8-6 0-12-5-5-4 7m647-1q-4 3-1 6l4 7q6 8 13-3 7-12-7-13c-6 0-6 0-9 3m-118 0q-6 4 0 12 7 9 13 0c7-10-2-18-13-12m-129 3c-6 6 5 17 12 13l5-10c0-5-14-7-17-3m-120 1c-7 4 1 18 9 17 2-1 7-9 7-12 0-5-10-8-16-5m-123 2c-1 3 0 10 2 10l2 2q3 5 7 2c8-8 6-16-4-16q-5 0-7 2m-119 0c-6 4 0 19 7 18 6-2 11-14 8-17-3-2-12-2-15-1m642 8c-3 1-3 11-1 15 3 6 18-1 17-8-1-5-13-10-16-7m69 0q-13 5-5 13 13 14 15-6 0-12-10-7m-315 1c-4 4 0 16 6 16 3 0 10-8 10-11 0-5-12-10-16-5m64 1q-10 5-1 13 8 6 11 2c2-2 3-13 1-15zm61 0v14q6 6 11 2l4-3q3-2 2-8c0-4-14-8-17-5m62 1q-13 7-1 14 12 9 13-5 1-16-12-9m-553 1c-4 2-2 18 2 18 7 1 14-7 12-12-1-4-11-8-14-6m123 1c-5 5-1 17 5 17 3 0 11-7 11-10 0-7-12-12-16-7m65 0q-12 6 0 14 11 7 12-7 0-13-12-7m55-1c-2 3-1 13 2 15 7 4 16-8 10-13-2-3-10-4-12-2m-179 3q-10 6 0 13 11 6 12-8-1-11-12-5m246-1q-12 6-3 13c7 6 14 3 13-6q-1-10-10-7m-363 1q-12 3-8 11c6 10 15 7 15-4q-1-9-7-7m703 11c-6 4-8 12-4 14 3 2 11 3 14 1 6-3 3-12-3-16q-4-2-7 1m-246 0c-2 1-7 11-7 14q2 3 11 4 17-1 4-16-3-4-8-2m120 3q-13 14 3 15 17 0 9-12-6-10-12-3m-366 0c-2 2-6 9-6 12 1 4 11 5 16 3q6-3 0-11-6-7-10-4m119 2q-8 9-3 14c6 2 17-1 17-5 0-7-10-14-14-9m-244 3q-8 12 6 12 12-1 6-10t-12-2m418 8q-12 6-6 13l8 4q8 1 7-8 0-14-9-9m241 1q-11 8 1 14c8 4 8 3 8-7q2-17-9-7m-214 1c-2 3-3 10 0 13 2 3 9 2 13-2q6-5 1-8-8-9-14-3m122-1c-9 10 0 22 10 14q10-8-2-13c-6-3-6-4-8-1m-241 1c-5 5-3 17 2 17s13-6 13-10c0-6-11-11-15-7m214-1q-7 3-6 10c1 4 12 8 15 5 2-2 1-11-1-14q-3-3-8-1m-342 3c-2 2-3 10-2 13q2 6 11 1 10-5 2-12-9-6-11-2m-28 0c-2 0-7 6-7 8 0 1 5 6 8 7q9 3 9-6 0-12-10-9m-215 2c-3 7-1 16 4 16q6-1 11-6 3-2 1-5c-4-6-13-9-16-5m121 0c-4 7 0 17 5 16q7-2 9-9c1-6-11-12-14-7m213 1q-4 3-4 6 2 6 6 7l3 1c6 4 10-10 5-15q-3-5-10 1m-365 2-4 5q2 4 6 6l2 1q3 3 8 0 3-3 2-8-3-13-14-4m122-1q-9 8 3 12 11 5 9-8-2-12-12-4m567 4c-5 3 0 15 6 16a8 8 0 0 0 9-5l2-5q1-4-3-6c-4-2-12-3-14 0m-246 2c-5 4 1 17 7 17 4 0 10-8 10-13 0-4-13-7-17-4m120 1q-5 3 2 11 7 10 12 1 6-10 0-13-8-3-14 1m-361 1q-10 2-3 13 6 9 13-2 6-13-10-11m115 1q-4 4 0 7l1 3q1 4 7 4c5 0 11-10 7-14-2-3-12-3-15 0m-239 1q-8 2-2 11 7 11 13-1 3-13-11-10m642 8c-4 4-2 15 3 18 6 3 15-8 12-13q-7-10-15-5m-246 2c-6 3-3 18 4 18 4 0 10-6 10-10 0-5-9-10-14-8m66 1q-12 6 0 14 12 7 12-8-1-11-12-6m54 1q-3 2-1 7 2 18 14 7 10-10-6-15-4-3-7 1m-368-1c-5 2-2 17 4 17 3 0 9-6 9-9 0-5-8-10-13-8m193 0c-4 1-9 7-9 8 0 2 6 8 10 9q10 2 9-13-1-7-10-4m244 0q-7 3-8 8c0 2 8 10 10 10 7 0 11-9 7-15q-2-5-9-3m-557 3c-4 4-1 16 4 16 4 0 10-6 10-11 0-6-10-10-14-5m185 1q-11 5 1 12c6 4 6 4 9 1 2-2 3-10 1-14q-3-4-11 1m56-1a10 10 0 0 0 4 16c3 0 9-6 9-9q2-5-4-7c-6-2-6-2-9 0m-295 0q-7 4-8 7c0 3 9 10 13 9 5-1 6-16 1-16zm121 0q-10 4-3 11 10 8 13-3 1-11-10-8M9 386c-3 3-1 15 3 16 6 2 13-4 12-11 0-2-9-7-12-7zm646 11q-9 12 0 14 16 1 13-7c-1-8-9-11-13-7m-124 2q-11 11 3 13 15 2 11-9-6-12-14-4m-368 2q-10 14 3 15 14-1 9-12-5-10-12-3m120 0q-9 12 4 13 18 0 7-12-6-7-11-1m120 2q-8 13 9 11 13-3 4-13-7-7-13 2m-363 4q-7 12 6 12 15 0 7-11-7-9-13-1m691 5c-4 3-3 13 0 15 4 3 13-2 14-7 1-7-10-13-14-8m-148 0c-4 0-11 7-11 9 0 5 14 11 17 7 4-4 1-18-4-17zm25 0c-3 2-4 12-2 16 5 6 21-3 17-10-3-5-12-8-15-6m-369 2c-6 4-4 16 2 16 7 0 14-7 11-11l-10-7zm216 1q-10 7 2 12c6 4 6 4 10 1q3-2 3-6-1-16-15-7m247-1q-12 7-1 13 13 7 13-5-1-15-12-8m-490 0q-13 8 0 15 13 4 10-9-2-10-10-6m273 0c-2 1-3 12-1 14 4 5 17 0 17-6 0-5-12-11-16-8m-153 1-8 8c0 4 8 10 12 10q5-2 6-8l-4-10zm27 2c-2 3-1 12 1 14q6 4 13-3 5-4-2-9-8-7-12-2M0 425q-1 12 6 6 11-6 0-13-7-6-6 7m117-7c-3 3-3 12 0 14 5 5 17-2 15-8-1-2-10-8-12-8zm-29 3q-7 5-2 9c7 7 16 5 15-4q-3-12-13-5m565 2c-6 3 1 18 8 18a16 16 0 0 0 8-10c2 0 1-6-1-7-3-2-11-2-15-1m-121 2q-8 3-2 12 7 12 14-1 4-5 2-7-5-6-14-4m-130 3c-4 3 3 16 8 16 7 0 13-14 7-17-3-2-12-1-15 1m-122 1q-3 3 0 7 7 16 17 0c4-7-10-13-17-7m-120 0c-5 2 1 16 7 16s12-13 7-16zm-121 3c-5 5 5 21 11 16 5-3 7-13 4-16s-12-3-15 0m644 7c-4 4-1 16 3 17 5 1 13-5 13-10 0-6-12-12-16-7m-245 0c-4 2-5 11-2 16s16-1 16-8c0-3-5-7-7-7l-4-1zm187 1q-6 3-7 7c0 2 5 7 7 7l1 1c0 2 7 1 9-1 2-3 1-13-1-14q-3-3-9 0m-63 1c-5 3-1 18 4 18 3 0 10-6 12-9q2-3-1-6c-4-4-12-5-15-3m184 0q-12 4-4 11c8 10 17 7 17-5q0-10-13-6m-433 0c-3 1-4 8-2 13 3 6 14 2 14-6 0-4-7-9-12-7m68 0q-14 6-2 15 12 8 12-6 0-12-10-9m122 0q-14 8 1 16 6 4 9-2v-13c-1-2-7-2-10-1m-309 2c-5 6 0 17 6 15q11-6 8-12c-4-5-12-7-14-3m-124 1c-6 4-1 19 5 18 4-1 10-8 10-10 0-5-11-11-15-8m186 0q-11 4-1 12 11 8 12-6 0-9-11-6m-121 3c-7 3-6 10 1 13q7 3 10-3c4-8-2-14-11-10m-123 2q-6 4 1 10 10 8 12-5-1-13-13-5m460 9c-8 7-6 15 5 15q9 0 8-6c0-8-8-13-13-9m243 1q-9 10-1 13a14 14 0 0 0 13-1l3-2q1-5-1-6l-1-1c0-6-9-8-13-3m-370 0q-4 5-4 8 0 6 8 7 16 0 7-13-6-6-11-2m-119 2-4 8q-1 5 8 5 17-1 5-13-5-6-9 0m368-1q-10 13 3 14 17 0 7-13-6-5-10-1m-489 5q-11 11 3 12 14-2 5-11-5-6-8-1m564 8c-5 7-1 17 5 16 10-2 14-10 8-15q-10-7-13-1m97-2-1 1c-2 0-7 6-7 8s7 8 10 8l1-9-1-9zm-247 4q-11 7 0 13c10 5 17 0 13-11q-3-8-13-2m29-1c-4 4-4 15 1 17q5 1 12-5 4-3 2-6c-4-6-12-10-15-6m89 1q-13 10 8 15 5-1 6-9-1-14-14-6m-338 0c-3 3-3 12 0 14 4 5 18-4 14-10l-10-6zm94 0q-13 8 0 14 8 4 9 0 4-7-1-13-2-6-8-1m31 0c-5 5-3 15 2 16q12 0 13-8c0-6-12-11-15-8m-275 2q-11 9 4 14 6 2 6-7 0-13-10-7m30 0c-2 2-2 9-1 12 3 5 15 0 15-6a9 9 0 0 0-14-6m90 1q-6 7 0 11 13 7 13-4-1-15-13-7m-210 0c-2 2-3 12-1 13 3 4 12 1 15-4 3-6-10-15-14-9m-31 4q-7 6 2 11 11 6 11-6c0-9-7-12-13-5m442 3q-8 4 0 14 7 9 13-4c3-7-4-12-13-10m245 0q-7 3 1 15 6 8 12-4c5-9-2-14-13-11m-493 4c-2 4 4 13 9 13 6 0 10-11 6-14-3-3-13-3-15 1m368-2c-4 4 3 17 8 17 7 0 13-14 8-17zm-248 1c-4 2 0 13 7 16 5 3 13-11 8-15-2-2-11-3-15-1m-239 3c-5 3-2 16 5 16 3 0 8-7 8-11s-8-7-13-5m641 7q-3 3-1 11c1 7 17 3 16-4-1-6-11-10-15-7m-121 1q-3 2-2 9v4h16v-4c0-5-9-11-14-9m63 3q-5 3-4 6v4h17v-4q0-12-13-6m-490 1q-7 3-7 8l9 1q11 1 9-2l-1-4q-2-6-10-3m56 1q-5 8 8 8 9 0 8-3c1-7-14-11-16-5m121-1-2 5 1 4h16v-3c-2-6-11-10-15-6m69 0q-7 3-7 7-1 3 9 2h9v-4q0-9-11-5m122-1q-15 9 2 10h9v-3q-2-9-11-7m-64 3q-7 8 7 7 11 1 9-2-1-4-8-7-6-2-8 2m-489-1q-2 1-2 5v3h9q9 1 8-2c0-4-11-9-15-6m120 1q-7 7 6 7 9 1 7-2c0-6-10-9-13-5m186 0q-13 7 3 7c8 0 8 0 8-2q-1-9-11-5m-241 2q-5 1-6 4l9 1q11 1 6-4-2-3-9-1"
        mask="url(#16282281824-posters-1720553845194-horizontal-mask)" itemprop="light" fill-opacity="0.90"
        fill-rule="evenodd" stroke="none" fill="url(#16282281824-posters-1720553845194-vertical-light)"></path>
      <!---->
      <path id="16282281824-posters-1720553845194-regular"
        d="M18 2c-4 7 10 14 16 8q1-4 4-2 7 3 7-1-1-5-8-5l-3-1c0-2-14-1-16 1m30 2c-2 9 9 11 15 2q5-6-7-6h-8zm91-2q-2 4 6 7 10 6 10-5V1l-8-1q-8 0-8 2m30 2q1 12 13 3 9-7-5-7h-8zm88-2c0 4 9 9 14 7q4-1 3-5V0h-8q-10 0-9 2m34 2q1 11 13 3 11-7-4-7h-9zm93-3c-2 3 6 10 11 10q5-1 5-8 1-3-8-3zm31 0q1 4 5 7c3 1 11-4 11-8zm91 0 9 6q4 1 6-2 6-6-6-5zm33 1q1 7 9 3 10-5-2-5-8 0-7 2m90-1c0 3 13 5 15 2q4-4-7-3zm32 0q2 6 11 2 7-4-4-3zm93 0v1l4 1q8 3 8-2l-6-1zm-48 2q-6 3 2 12 7 8 12-3 5-7 0-8-6-3-14-1M587 6q-9 2-1 13 5 8 11-4 6-11-10-9M461 9c-3 4 4 13 10 13 5-1 9-10 5-14-3-3-12-3-15 1m-125 1q-4 2 0 8 7 11 12 4 8-8 3-12c-3-2-12-3-15 0M96 10q-8 4 1 13 6 6 11-4c4-7-3-12-12-9m115 2c-3 5 4 14 10 12q5-4 6-10c0-5-12-7-16-2m468 8q-10 6 0 11 12 9 13-4 0-15-13-7m-122 0q-12 6-1 14t12-6a6 6 0 0 0-11-8m181-1v14c3 5 15-3 13-9-1-4-10-8-13-5m-123 1c-3 4 0 16 4 16 6 0 12-9 9-13-2-3-11-5-13-3m-123 2c-2 2-1 13 2 15s12-4 12-9-10-10-14-6m-57 1q-14 7 1 14 10 3 8-10-2-9-9-4m-126 1q-9 4-2 10 12 11 13-3 1-13-11-7m-124 1q-9 5 1 11 11 8 11-4 0-14-12-7M64 27q-7 5-2 9 13 10 14-4-1-12-12-5m60-2c-2 0-1 12 0 14 4 3 14-3 14-7 0-5-9-9-14-7m122 1c-3 5 0 16 5 16 3 0 10-7 10-11-1-5-13-9-15-5m122 1c-5 4 0 17 5 15 3-1 9-6 9-9 0-5-11-10-14-6M5 29c-4 4 0 15 4 15 2 0 10-7 10-9q0-5-7-7-6-2-7 1m522 6c-2 1-6 8-6 11 1 5 13 7 16 2 4-5-4-15-10-13m122 1c-2 2-6 8-6 10 0 5 13 7 16 3 5-4-5-17-10-13m-372 4q-12 14 4 14 13 0 7-11-5-8-11-3m-123 4q-5 9-1 10 6 3 11 1 6-3 3-8-7-12-13-3m248-3q-7 6-4 11c3 2 13 3 15 1 5-5-6-16-11-12M34 44q-7 11 6 12 13-2 5-12-6-6-11 0m691 6q-2 1-2 7 0 12 12 5 8-5 0-11-7-6-10-1m-32 3q-10 9 6 13 7 1 7-8 0-15-13-5m-95-1c-2 2-3 11-1 13 5 5 18-2 15-8-2-5-11-9-14-5m-119 1c-3 3-3 11 0 14 5 2 14-3 14-7 0-6-10-11-14-7m93 2q-10 10 6 14c7 1 9-7 5-15q-4-6-11 1m-121 0q-11 9 2 14 11 4 10-10-3-10-12-4m-246 1q-12 7-2 13 16 6 12-9-4-9-10-4m28-1c-3 2-4 11-3 13q3 4 10 1 12-5 1-12-6-5-8-2m-120 1c-4 1-6 14-2 16s14-3 14-8c0-4-8-10-12-8m212 3q-7 5-1 9 16 11 14-6-3-12-13-3m31-2c-4 1-5 10-2 14s14 0 14-6a11 11 0 0 0-12-8M84 60q-13 9 5 14c6 1 7-12 1-16q-1-2-6 2m440 7q-4 1-2 7 3 8 9 9c3-1 9-8 9-11 0-5-9-8-16-5m122 1q-6 3 0 10 4 6 8 4c2 0 7-7 7-10 0-6-10-8-15-4m-366 0q-10 1-4 10 6 11 13 1 8-14-9-11m-126 1q-6 3 0 11 10 14 15-6c2-5-8-8-15-5m246 1q-4 1 0 7 6 12 12 6 4-5 4-11c-2-4-11-6-16-2M37 72q-9 1-3 11 6 9 11 0 6-13-8-11m702 7q-6 5-1 9 13 11 14-3l-1-7q-5-2-12 1m-120 0q-15 7-2 14 12 7 11-5-1-9-5-10zm57 2c-4 4 0 15 5 15 3 0 10-9 10-11-2-5-12-8-15-4m-245 1c-4 4-1 15 4 15q9-1 10-10c-1-5-11-9-14-5m64 1q-7 6-1 10 13 9 13-5-1-12-12-5m-309 0c-4 4 0 16 5 16 2 0 11-8 11-10 0-5-13-10-16-6m371 1c-2 3-2 3-1 8q2 9 9 4 11-7 3-12-7-5-11 0M63 85c-4 4-1 16 4 16l9-8q2-5-5-8-6-4-8 0m186 0q-8 3-8 7c0 3 8 8 12 8q7-1 5-7v-4q-1-8-9-4m56 0c-3 3 1 15 5 15 5 0 12-6 11-10-2-5-13-9-16-5m-175 0c-4 1-10 6-10 8 0 3 8 9 12 9s7-9 4-14q-1-4-6-3m244 0c-12 3-11 12 0 15q4 2 6-1c3-3 3-10 0-13q-1-3-6-1M4 89q-9 5 1 12 7 5 10-4 3-13-11-8m703 8q-10 14 7 13 11 0 6-9-6-12-13-4m-118 1q-10 12 3 13 17-1 6-11-5-6-9-2m-124 0q-9 9-2 14c6 3 16-1 15-6-2-7-9-11-13-8m-367 4c-4 2-6 11-3 13 3 3 15 0 15-4 0-5-8-12-12-9m119 1q-4 6-3 11c2 4 13 3 16-1 1-2 0-7-2-7l-2-2q-3-6-9-1m124 0c-2 1-6 8-6 11 0 4 14 6 17 2 5-4-5-17-11-13m418 7q-13 8 0 13 10 5 10-6 0-13-10-7m-339 2c-4 1-5 11-2 14q2 3 7 0 10-6 1-13-3-3-6-1m90 2q-7 6-6 8c9 8 19 7 18-1l-1-4q-1-4-5-6zm29-2c-2 2-2 12 0 14 4 5 17-2 15-8-2-5-12-9-15-6m96 1q-10 6 1 12t11-6q-1-13-12-6m28 0q-5 6-2 12t11 1q10-6-1-13c-6-2-6-3-8 0m-612 3c-3 3-4 13-1 15 4 4 14-2 14-7q-1-5-8-9-3-2-5 1m91 2q-7 6 2 10 13 6 10-7-2-13-12-3m30-3c-3 5-2 14 2 15 5 3 13-4 11-9s-11-9-13-6m-145 2q-14 7-2 14 5 3 7 1c7-4 2-19-5-15m238 0q-9 7-2 12 10 6 12-3 1-13-10-9m28 1c-3 3-2 12 1 14 2 1 11-3 13-6 4-6-10-13-14-8m93 2q-8 5 1 10 12 9 12-4 0-14-13-6m324 4q-6 1-5 6 4 13 13 8c8-9 4-17-8-14m-119 1q-10 0-4 10 6 13 14 1 7-12-10-11m-128 1q-6 5 2 14 5 6 8 1c4-3 7-10 5-13s-10-4-15-2m-246 3q-8 0-2 11 8 12 14 0 4-9-2-11zm-118 1q-9 2-1 13 6 6 10 0c7-9 3-16-9-13m237 0c-3 4 4 16 8 16 5 0 10-10 8-15-2-3-14-3-16-1m281 10c-3 3 0 16 5 16 2 0 10-7 10-10 0-6-10-10-15-6m124-1c-2 2-1 13 1 15 4 4 16-5 13-10s-11-8-14-5m-60 2q-12 6-2 12 12 9 12-4 0-14-10-8m-123 2q-14 5 1 14 11 6 11-8t-12-6m-120-1q-11 6-2 12 11 8 13-4 1-12-11-8m56 1c-1 3 0 12 2 14 4 5 16-4 13-11-2-5-13-7-15-3m-247 2c-3 5 0 16 4 16 3 0 11-6 11-9 0-6-12-12-15-7m64 0q-12 6-4 11 14 11 14-4 0-12-10-7m-121 1q-10 7 1 13 10 4 10-7 0-12-11-6m-62 1c-2 2-3 10-1 14 3 5 15-2 15-9 0-4-10-8-14-5M6 148c-3 3-3 11 0 14s3 3 8-1q12-7 0-13c-5-2-5-3-8 0m62 0q-10 6 0 12 12 7 11-5 1-13-11-7m300 0c-1 3 0 11 2 13 4 3 15-3 14-8s-14-9-16-5m160 9c-4 2-8 10-6 13q0 4 8 3 14 0 8-10-4-9-10-6m122 3q-12 12 3 13 17 0 6-13-4-6-9 0m-611 3q-12 12 2 14 15-1 7-12-4-7-9-2m120 1q-9 11 5 12 14-1 4-14-3-4-9 2m121 0q-8 11 4 12 13-1 7-11-6-7-11-1m124-1c-2 1-6 7-6 9q1 5 9 5 14-1 5-12-3-4-8-2m321 7c-4 5-2 15 3 15 9 0 15-8 9-13q-8-8-12-2m-29 4q-11 7 4 13 9 3 9-6 0-15-13-7m-238 0q-7 3-9 8l3 3q14 11 15-4 0-12-9-7m27-1c-6 3-3 17 3 16q13-4 6-12-6-6-9-4m120 1c-4 3-4 12-1 15q3 3 7 0 8-4 8-7-1-6-6-7-1 1-3-1-2-4-5 0m-28 1q-10 9 3 14 11 4 9-10-3-10-12-4m-491 2q-9 8 0 13 14 6 12-7-3-7-7-9zm28-1c-3 2-4 10-2 13 3 5 17-1 16-7-2-5-11-9-14-6m95 0c-11 5-10 14 3 16q8 2 7-8-3-13-10-8m26 0c-2 1-2 9-2 12q2 6 11 1 11-5 1-12-7-5-10-1m93 1q-16 9 3 15c5 2 8-6 4-13q-2-4-7-2m28 0c-3 2-4 10-3 13 2 4 11 2 15-4 3-5-7-13-12-9M0 184q-1 12 4 6 6-5-2-11l-2-2zm648 2c-5 3-1 15 5 16 4 1 12-9 10-14-1-3-10-4-15-2m-366 1q-10 2-3 12 8 10 13-2 3-7-1-9t-9-1m243 1c-5 3-2 13 4 15 7 1 14-13 8-15zm-366 1c-7 4 0 19 7 16 2 0 7-9 7-12 0-4-10-6-14-4m241 2-3 3 3 5q8 12 12 2 5-7 1-10c-3-3-10-3-13 0m-362 1c-5 2 1 16 8 16 4 0 9-12 6-15-2-1-11-2-14-1m705 7q-10 5-3 12 14 8 14-4 1-13-11-8m-64 1c-3 4 1 17 5 17 3 0 10-7 10-10 0-5-12-10-15-7m-245 2c-3 4-2 14 3 16 2 1 11-4 12-8 1-6-10-12-15-8m123-1c-5 3-3 18 3 18 2 0 10-6 11-9 1-6-8-12-14-9m62 1q-10 6 2 13 11 5 10-6 1-13-12-7m-429 1c-5 4-4 16 2 16 5 0 13-6 12-10-2-4-11-8-14-6m312 1q-12 4-4 10 14 9 12-5-1-10-8-5m-373 1q-12 6-1 11 11 9 12-4t-11-7m121 0q-8 5-2 11 11 9 14-4 0-13-12-7m-183 2c-2 3-1 12 1 14 4 4 15-2 15-8 0-5-14-11-16-6m-57 1q-5 3-5 7c0 1 9 7 11 7 4 0 6-8 4-13q-3-5-10-1m299-1c-2 2-1 10 1 13 3 4 12-1 12-7 0-4-10-9-13-6m66 1q-14 7 1 13 9 6 9-6 0-13-10-7m336 8q-12 12 2 13 16-1 6-12-5-6-8-1m-120 3c-7 7-4 14 7 13q13-3 3-13-5-6-10 0m-122-1c-9 7-7 15 3 15q16-1 6-12-4-6-9-3m-249 2q-6 6-5 12 0 2 8 2 11 1 9-6-4-12-12-8m-123 4q-9 12 4 12 10-1 9-6-6-14-13-6m244 0q-9 12 4 14 16-1 5-13-4-6-9-1m323 6c-4 4-2 15 4 15 2 0 9-4 10-6q3-3-4-8-6-6-10-1m-122 2a8 8 0 0 0 12 11q8-6-4-13-5-3-8 2m98-1q-10 6 0 12 12 5 10-7-2-11-10-5m117 1c-8 6-5 13 6 13q7 0 6-7-3-14-12-6m-239-1c-10 5-7 15 5 15q6 1 5-8 0-11-10-7m-252 4q-11 6 3 12 9 4 10-2-1-8-4-11c-3-2-3-2-9 1m154-1c-5 9 2 17 10 12q7-4 1-11-6-6-11-1m-249 4q-2 13 8 10c9-4 6-14-4-14q-3-1-4 4m122-2c-3 7-1 15 4 13q17-5 6-12-6-5-10-1m-147 2c-6 4-2 11 7 11q5 0 5-8-2-10-12-3m243-2q-11 3-5 10 12 15 15-2 0-8-5-9zm-336 1c-3 2-3 15 0 16 5 2 14-4 14-8 0-2-6-8-7-8l-3-1zm-28 3q-10 8 2 12 13 3 10-7-2-12-12-5m565 5q-6 3-1 10 5 9 10 4t4-11c-1-3-8-5-13-3m-122 1c-4 1-2 10 3 14 4 4 15-9 10-14zm240 1-2 2 2 5q6 10 10 7c3-2 6-9 5-12-1-4-11-6-15-2m-490 3c-5 5 4 17 9 12q5-4 4-10c-1-4-10-5-13-2m125-1c-7 1-3 14 3 14 5 0 10-10 7-13-2-1-8-2-10-1m-246 3q-4 2 3 10c4 6 12 2 12-7 0-5-11-7-15-3m400 6c-3 4-1 15 3 16 4 2 13-4 13-9s-13-10-16-7m121 0c-3 4 0 16 4 16 5 0 13-7 10-11-2-4-11-7-14-5m124 0c-6 4-1 18 4 17 4-1 10-8 10-10 0-5-11-9-14-7m-58 2q-10 4-5 10 14 13 15-5 0-9-10-5m-244 2q-9 5 0 13 11 6 11-7 1-12-11-6m121 0q-11 7 1 13 7 5 10-3 3-15-11-10m-245 1q-13 4-4 11 13 7 13-5 0-11-9-6m-188 1c-3 3 1 15 5 15 2 0 9-8 9-10 0-5-11-9-14-5m64 0q-9 5 1 12 9 6 10-7-1-11-11-5m58 0q-2 6 1 12c4 4 15-3 12-9-3-5-11-7-13-3m-175 1q-15 8 2 14c5 2 9-10 4-14q-1-3-6 0m298 0c-3 3-1 13 3 14 3 2 12-5 12-9 0-5-12-9-15-5M8 266c-4 3 0 14 4 14 3 0 10-7 10-9 0-5-11-9-14-5m642 12q-9 11 7 11 13 0 5-11-7-9-12 0m-117-2c-5 4-7 12-3 12q22 3 10-11-4-3-7-1m-130 2c-5 4-5 12 0 13 3 1 10 0 12-1 5-5-6-16-12-12m-120 3q-10 12 3 13 13 0 8-10-6-9-11-3m-123 0q-10 11 2 13 12 1 11-7c-2-7-9-10-13-6m-120 3q-8 9 5 11 14 1 6-11-6-8-11 0m688 7c-3 4-3 13 0 14 4 3 15-2 15-7 0-7-12-12-15-7m-244 0c-4 1-5 12 0 15 4 2 13-3 13-8 0-4-9-9-13-7m96 0c-11 4-10 12 1 16q11 2 7-11-2-8-8-5m26 0c-6 3-5 17 2 17 3 0 10-4 11-7 2-5-8-12-13-10m98 0c-11 4-12 12-1 15q11 3 8-10-1-8-7-5m-249 3q-10 7 0 12 13 5 12-7-3-11-12-5m-218 3c-6 10 1 18 10 11q7-5 1-10-7-7-11-1m91-1q-11 7 0 13 8 5 9-1c2-3 1-10-2-12q-3-3-7 0m-212 1c-2 2-3 10-1 12q3 4 9-1 7-4 0-10-6-5-8-1m92 2q-8 6 1 10 11 5 10-7 0-12-11-3m150-3c-2 3-2 12 1 14 2 2 10-1 12-5 3-6-9-14-13-9M0 304v7l3-2q8-7 0-12l-3-1zm88-6q-9 6 1 11 10 6 10-4 0-12-11-7m559 6q-4 2 2 10 8 11 14-3 6-10-9-10-5-1-7 3m-117-1q-8 4 1 13 5 6 10-1 6-7 2-11c-2-1-10-2-13-1m-131 4c-2 5 3 12 9 12s11-10 6-13c-4-2-13-1-15 1m-120 2c-3 3-3 3 1 8q7 12 14 0c2-6 2-6 0-8-2-3-12-3-15 0m-121 0c-3 4 2 14 7 14 3 0 8-6 8-10s-11-7-15-4m-121 2c-4 3 2 15 7 15s11-10 9-14-14-4-16-1m399 6c-4 2-4 11 0 16 3 3 13-5 13-10 0-4-8-8-13-6m244 1c-2 2-2 10 0 14s12 1 15-6c3-5-11-13-15-8m70-1q-12 5-7 11 10 12 15 1 4-16-8-12m-252 3q-8 4-2 11 12 12 13-5 2-12-11-6m62 0c-4 5 0 17 5 17 2 0 10-6 11-9 1-7-13-13-16-8m63 0q-13 6-4 13 12 8 13-2 3-17-9-11m-431 2q-2 2-2 8 3 15 13 4 8-8-3-12c-6-2-6-2-8 0m64 1q-7 4-5 8c3 5 11 9 14 5 3-3 3-12 0-14s-3-3-9 1m56-1c-3 3 0 14 4 15 3 0 9-7 9-10-1-5-10-9-13-5m-245 1c-3 5 1 16 5 16s10-7 10-10c-1-6-12-11-15-6m64 2q-8 6 2 12 10 4 10-8-1-9-12-4m245 0q-8 4-2 10c8 6 15 4 13-5q-1-11-11-5m-365 1q-8 4-2 10 10 10 13-3 1-12-11-7m707 10q-11 12 4 14 13 0 7-10-6-9-11-4m-247 1q-8 11-2 14c7 3 16 1 16-4 0-8-10-15-14-10m122 0q-5 5-6 11 0 4 10 4 16-1 4-14-5-5-8-1m-366 1c-2 1-6 8-6 11 0 4 13 6 16 2 4-5-5-16-10-13m117 4q-10 12 5 12 15-1 5-12-4-7-10 0m-241 0c-6 4-6 11 1 12q17 1 7-11-4-5-8-1m416 10q-6 3-7 7 2 6 6 7l3 1c5 3 8-4 6-12q-1-8-8-3m241 1q-9 8 3 13 8 5 6-7v-9h-3zm-213 0c-2 2-2 10 0 13 3 4 14-1 14-7 0-5-11-10-14-6m121 0q-5 6-2 12 5 6 12 0 9-8-3-12-6-3-7 0m-241 1c-4 4-2 15 2 15 3 0 12-5 12-8 2-6-10-12-14-7m211 1q-6 6 1 10 13 7 12-5-3-12-13-5m-339 2q-4 12 3 14l10-5q3-7-9-12-3-1-4 3m-241-1c-3 2-4 12-1 14q5 4 12-2 4-3 2-6c-2-4-10-8-13-6m119 2c-2 3-1 12 1 13q4 2 10-2 5-6-2-11-6-6-9 0m91 0q-6 4 0 9c8 7 15 3 12-7q-4-9-12-2m126-2q-7 4-8 8c0 5 10 9 14 7 5-4 0-17-6-15m-369 4q-6 7 2 11 12 5 11-7-2-12-13-4m122 0q-7 5-1 8 12 9 13-3-1-14-12-5m567 3c-5 3 1 15 7 16 6 0 12-11 8-14-2-3-12-4-15-2m-241 2q-12 1-5 11 6 9 10 4c3-2 6-9 6-11q-3-5-6-5zm116 2c-5 4 3 16 9 15 3-1 7-11 7-13-1-4-13-6-16-2m-246 1q-5 3 1 10 6 8 11 0 8-10-5-12zm-119 0c-5 4-1 14 6 15q5 1 6-4 3-6 1-10c-1-2-10-2-13-1m-124 2c-3 3 1 14 6 15s10-9 8-14c-2-2-11-3-14-1m645 8c-3 3-1 15 3 16 7 2 15-9 10-14q-8-6-13-2m-246 2q-2 0-2 8 2 13 12 5 7-6 2-10l-9-4zm66 0q-11 7 0 13 12 8 11-6 1-12-11-7m55 1q-3 3 0 14c2 6 15 0 15-7 0-5-11-10-15-7m-369 0c-5 3-1 15 4 15 4 0 9-6 8-9-2-5-9-8-12-6m190 1q-7 5-3 10 14 12 15-5-1-11-12-5m245-1q-5 4-6 7c0 3 8 9 12 9q5 1 5-8 1-13-11-8m-555 3c-2 3-2 3-1 9q4 11 13 0 6-7-5-11-5-2-7 2m186 0q-10 6 1 12 9 5 10-7 0-12-11-5m56 0c-4 3-1 14 4 14 2 0 8-7 8-10 0-4-9-8-12-4m-299 2q-7 4-1 8 11 10 12-2 0-14-11-6m121-1q-6 4 0 9 11 8 12-5-1-9-12-4M9 386c-3 4 0 16 5 16 3 0 10-6 10-9 0-5-11-10-15-7m648 11c-3 2-6 8-6 10 0 4 12 6 15 2 6-6-3-17-9-12m-125 2q-6 6-4 11c3 2 15 2 17 0q3-3-2-9-5-7-11-2m-249 3c-4 4-4 10-1 10q9 3 12 1 6-3 1-9-6-10-12-2m124-3c-3 2-6 10-6 11 3 6 18 4 18-2s-8-12-12-9m-244 3c-8 8-2 18 9 13q9-6-1-14-3-5-8 1m-120 3q-12 10 2 13c10 2 13-6 4-13q-3-3-6 0m688 7c-3 4-3 13 1 14h6q12-4 3-12-6-7-10-2m-273 2q-12 6 0 13 13 5 11-9-3-9-11-4m120 1q-10 7 0 11 13 7 13-6-2-12-13-5m29-2c-2 3-2 14 0 15 4 3 16-3 16-8-1-5-13-10-16-7m95 2q-10 6-1 12 12 6 12-5 0-14-11-7m-463-1c-4 3-3 13 0 15s10-2 12-5c3-5-8-13-12-10m246 1c-7 7 0 18 9 13q12-6 0-12c-6-4-6-4-9-1m-275 2q-8 7 3 12 9 3 9-6-1-14-12-6m119 1q-7 6-2 10 14 10 14-4-2-13-12-6m32-2c-5 3-3 16 2 16q8-1 11-7c1-4-9-12-13-9M0 425v8c2 0 8-3 9-5q5-6-6-11H0zm118-6c-3 2-3 11 0 13q2 3 5 1 13-5 4-13-7-5-9-1m-27 0q-12 7 0 13 9 4 9-4-1-11-9-9m561 5c-4 4 3 16 9 16 4 0 10-10 8-14-2-3-14-4-17-2m-120 2q-7 3 0 13c3 4 10 4 10-1l1-2c6-6 0-13-11-10m-128 1q-6 3 0 11 6 10 13 0 4-7 0-10c-2-2-10-2-13-1m-122 2c-4 1-1 11 4 14s14-9 9-13c-1-2-9-2-13-1m-123 1c-2 3 2 12 7 14 4 2 12-9 9-13-1-2-14-3-16-1m-117 1q-6 3-2 10 7 13 13 2 5-16-11-12m642 9c-3 2-2 12 1 14 3 3 14-3 14-7 0-6-12-11-15-7m-247 1c-3 2-3 13 1 15q4 3 9-3 9-8-2-12l-4-2zm189-1c-5 1-8 7-6 10l10 6q5-1 5-9 1-10-9-7m-65 3c-3 4 1 15 6 15 2 0 9-6 10-10q1-4-7-7-7-2-9 2m185-1q-11 3-2 11 12 10 14-4 2-13-12-7m-551 1c-4 6-1 16 4 14 9-2 12-10 5-13q-9-4-9-1m117-1v13c3 5 14-1 13-7-1-5-10-9-13-6m67 1q-10 6 0 12 13 8 12-6-1-12-12-6m122 0q-9 7 3 13 8 4 9-6 1-14-12-7m-246 2q-9 5 2 12 8 4 9-7 1-10-11-5m-186 1c-3 3 1 15 5 15 3 0 9-5 10-8 1-6-10-12-15-7m-53 2q-12 5-3 10 9 9 11-3t-8-7m119 0c-7 4-2 13 7 12q5-2 3-11-3-5-10-1m211 10c-8 6-6 15 4 15q11 0 7-8-5-11-11-7m125 2q-9 11 6 12 11 0 7-8-6-12-13-4m244-1q-11 14 8 12 12-1 3-11-6-6-11-1m-121 1-4 10c0 3 10 5 15 2s-1-14-7-14zm-368 2q-7 9 1 11c11 3 16-4 9-11q-6-6-10 0m-122 5q-7 9 4 10 12-1 5-10-4-6-9 0m566 6c-2 3-3 10-1 13 3 5 17-2 16-7-2-6-12-10-15-6m92 1q-8 7 4 12l3 2v-8q1-14-7-6m-124 1q-11 10 5 13 7 2 7-6 0-15-12-7m-119 1q-10 8 3 12 11 5 10-7-2-14-13-5m29-1c-3 3-3 12 0 14 3 3 11 0 14-5 3-6-10-14-14-9m-249 2c-5 9 0 16 8 11q12-5 1-12-8-5-9 1m93-1q-10 7 3 13 8 4 8-5 0-13-11-8m-242 1q-10 7-2 12 11 6 11-5-1-11-9-7m30 0c-4 4-3 13 2 14 4 0 10-4 10-7 0-6-9-10-12-7m92 0q-10 6-2 12c8 5 15-1 10-10q-2-6-8-2m151-1c-1 2 0 12 1 13 4 5 14-1 14-7 0-5-12-9-15-6m-365 4q-3 11 5 12c9 0 13-8 6-12q-8-6-11 0m-27 0q-10 6-1 12 8 5 10-1c1-3 0-10-3-12q-1-2-6 1m683 6c-4 2-1 12 5 16 5 3 14-10 8-15-1-2-9-2-13-1m-489 1c-6 1 0 14 6 14q6-1 8-9c0-4-8-7-14-5m242 0c-3 4 4 15 8 15s11-13 7-13l-1-1c0-3-12-3-14-1m124 1q-3 1-1 6c4 12 14 11 18-2 1-6-12-9-17-4m-248 1c-5 1 0 12 7 14 4 2 10-9 7-13-1-1-10-2-14-1m-239 3c-5 1-3 12 2 14 5 1 11-8 8-13-1-1-8-2-10-1m641 6c-2 1-3 9-1 12 1 5 13 1 14-5 2-4-9-9-13-7m-122 2c-2 1-3 7-1 10 0 2 12 3 14 1 4-5-7-14-13-11m-370 3-1 5v4h7q12 0 7-6c-3-5-11-7-13-3m433 0q-6 3-4 7c2 3 16 3 17-1 1-7-6-10-13-6m-487 0c-4 0-9 5-9 7q-1 2 8 2h8l-1-4q-1-7-6-5m175 0q-2 1-2 5v4h8l7-1c0-6-8-11-13-8m67 1q-5 3-6 8h9q11 0 9-3-1-9-12-5m121 0q-10 7 4 8h8v-3q-2-11-12-5m-551 1-2 4c1 3 16 4 16 1 0-5-11-8-14-5m121-1-2 4v4h6q8 1 8-2c1-3-8-9-12-6m369 1q-7 8 6 7c8 0 8 0 8-2-1-6-11-9-14-5m-185 1q-9 6 3 6 9 1 8-2-1-9-11-4m-241 2q-9 4 3 4 11 1 6-4-1-4-9 0"
        mask="url(#16282281824-posters-1720553845194-radial-mask)" itemprop="regular" fill-opacity="0.90"
        fill-rule="evenodd" stroke="none" fill="url(#16282281824-posters-1720553845194-horizontal-regular)"></path>
      <!---->
      <path id="16282281824-posters-1720553845194-medium"
        d="M18 3q-1 4 2 5c3 3 13 5 13 2q1-4 4-3 5 2 8 1c1-2-5-6-8-5l-4-1q0-2-7-2h-7zm30-1q-1 13 10 7 5-2 5-6c0-4-14-5-15-1m91 0q0 5 8 8 7 4 7-6V0h-7q-8 0-8 2m31 0q-1 10 6 8 8-2 8-7V0h-7q-8 0-7 2m87-1c0 3 7 8 12 8q5-1 5-6V0h-8zm34 2q1 11 13 3 9-6-5-6h-8zm93-1q0 4 7 7 8 4 8-5V0h-7c-8 0-8 0-8 2m32 0c0 6 10 7 14 0q3-2-6-2t-8 2m90-2 4 3q7 6 11 1 4-4-7-4zm34 3q2 5 9 1t-3-4q-7-1-6 3m90-3c0 3 12 6 13 3q4-4-6-3zm32 2q3 4 8 1 9-3-3-3-8 0-5 2m43 2c-3 3 3 13 8 13s9-8 7-12c0-2-13-3-15-1M463 8q-5 2 1 9c4 8 13 5 13-5 0-5-9-8-14-4m121 0c-4 4 4 17 9 12 5-4 6-11 3-13s-10-1-12 1m-247 2c-4 3 1 14 7 14 5 0 10-10 7-14-3-2-11-3-14 0M218 9l-4 1q-6 2-1 10 7 8 11-1 5-12-6-10M96 11q-4 2-1 9 6 10 12 0 6-12-11-9m584 9q-11 5 0 12 11 6 11-6 1-14-11-6m-122 1q-12 4-4 10 11 10 14-2 1-14-10-8m58 0c-3 3-2 11 1 13q3 4 7-1 9-8 1-11-8-4-9-1m122-1c-3 3 0 14 4 14 3 0 9-6 9-9 0-5-9-8-13-5m-246 3c-3 3 1 14 4 14s10-7 10-10c-1-4-11-8-14-4m-59 1q-10 7 4 13 6 2 6-7 0-12-10-6m-246 1q-10 5-1 11 11 7 11-5 0-10-10-6m122 0q-8 4-1 10 11 7 12-4-1-11-11-6m-184 0q-4 7 0 13c3 4 12-1 12-7-1-5-9-9-12-6m122 1q-4 5 0 12 3 6 9 0 10-7-2-12-6-3-7 0M63 28l-3 3a20 20 0 0 0 10 9c4 1 7-8 4-13q-4-5-11 1m305 0c-2 6 0 14 4 14 5 0 10-7 8-11-1-5-11-7-12-3M5 30c-3 5 0 13 4 13 3 0 9-6 9-9 0-4-12-8-13-4m522 6c-5 3-6 11-3 13h11c6-5-2-17-8-13m121 1q-4 7-4 10c1 5 15 5 16 0 2-5-9-13-12-10m-369 2c-3 2-6 9-6 11 1 5 14 5 16 1 1-3-3-12-5-12zm124 2-5 9c0 4 11 6 14 2 5-4-4-14-9-11M36 43c-6 5-5 12 1 12q9 1 9-2c5-4-5-15-10-10m119 0q-10 13 7 11 7 0 4-8-5-7-11-3m569 9q-4 15 9 10 9-3 2-10-8-6-11 0m-30 1q-9 6-1 10 14 6 12-7-2-10-11-3m-96 0q-3 7-1 10c2 7 16 1 15-5-2-5-13-10-14-5m-120 1c-2 4-1 11 2 12 6 3 15-4 11-9-3-5-10-6-13-3m94 2-4 5c0 4 8 8 14 7q3-1 2-9-3-12-12-3m-119-1q-12 6-3 12 11 8 12-6-1-11-9-6m-248 2q-12 6-1 12 13 6 11-7-3-10-10-5m27-1q-3 6-1 12c3 5 16-1 15-6s-11-9-14-6m-121 1c-2 2-2 11-1 13 2 4 15-1 15-6 0-4-11-10-14-7m214 2q-7 6 0 10 15 8 12-6-2-12-12-4m30 0c-2 3-2 10-1 12 4 3 14-2 14-7-1-5-10-9-13-5M85 60q-13 9 4 13 4 1 4-3c1-3 0-10-3-11q-2-2-5 1m444 7-6 1c-3 2 0 11 5 13l3 2 4-3q10-15-6-13m122 0q-8 2-8 4c0 5 8 12 11 11 5-2 8-13 4-14l-4-1zm-493 2q-9 0-5 9 7 12 13 2 9-12-8-11m117 1c-2 5 4 15 9 13s8-11 6-14c-3-2-13-1-15 1m129-1q-8 1-2 12 5 7 9 2 7-9 1-13-3-3-8-1M34 74l-3 3 3 4q6 10 11 1c4-9-4-14-11-8m706 5q-8 6 1 11 10 5 10-1c4-9-2-15-11-10m-122 2q-15 7 2 13 7 3 8-5 0-13-10-8m59 0c-3 3-2 12 2 14 2 0 8-2 10-6 4-5-8-13-12-8m-489 1c-4 3-4 14 1 16 4 2 12-5 12-10 0-3-9-7-13-6m243 1c-1 1-1 10 1 13 4 4 15-5 12-10-2-4-11-6-13-3m65 0q-9 7 1 12 9 5 9-7 0-11-10-5m61 1c-4 8 3 16 9 11q8-6 3-10-8-5-12-1m-251 0c-2 1-1 11 1 14q3 3 6 1 14-8 0-14-4-3-7-1M63 85v13c2 4 13-2 13-7 0-4-10-9-13-6m186 0q-12 5-3 12 12 8 11-6-1-10-8-6m-123 2q-12 8 0 12 12 5 11-6t-11-6m244 1q-7 4-3 7 9 9 14 2v-8q-2-7-11-1M4 90q-10 6 3 11 10 2 7-10-2-6-10-1m704 6c-4 4-6 13-2 13q23 1 11-12-5-5-9-1m-242 2c-2 0-6 8-6 10 0 4 9 5 14 3 7-3-1-16-8-13m122 3q-7 10 5 10 14-1 4-12-6-5-9 2m-369 1c-4 1-6 11-3 13 5 3 14 0 14-5l-2-3-2-3q-1-3-7-2m-122 2q-8 12 3 12 14-1 6-11-5-6-9-1m243 1c-3 3-5 9-4 10 1 2 9 3 13 2q8-2 0-11-4-7-9-1m420 5q-13 9 2 14 7 1 7-8-1-12-9-6m-220 3c-3 3-3 10 0 13 3 4 13-1 13-7 0-4-10-9-13-6m96 0q-13 7 5 13c5 2 7-5 5-12q-1-6-10-1m-218 0-2 9c2 7 14 5 14-3 0-4-9-9-12-6m94 0q-11 5-4 12 13 8 12-4 0-12-8-8m150 1c-2 5-1 14 3 14 2 0 11-5 11-7q1-3-5-7-7-4-9 0m-518 3q-10 6 0 11 12 6 10-7-2-10-10-4m29-1c-2 3-3 11-1 13q3 3 10-1 6-5-1-11-5-6-8-1m-122 1c-5 8-2 16 4 15q8-3 9-9l-1-2c0-1-7-6-9-6zm-28 3q-6 5 2 10 11 6 10-6-2-12-12-4m240 0q-6 5 2 9 10 6 9-6 1-7-5-6-4 0-6 3m29 0q-4 15 9 10 12-5 2-11-9-5-11 1m96 0q-11 5 2 11 10 5 8-6-1-12-10-5m322 5q-7 0-4 7 7 14 14 1 6-11-10-8m-245 1q-9 2 1 14 3 4 5 2c5-2 8-11 6-15-1-1-8-2-12-1m122 0c-4 2 0 12 5 15 4 2 11-6 11-11 0-4-11-7-16-4m-372 5q-4 2 2 9 6 10 11 0 5-7 0-10c-3-2-12-1-13 1m122 0c-3 3 2 14 8 14 5 0 9-12 5-15-2-2-11-1-13 1m-239 0c-5 1-1 14 5 15 5 0 11-13 6-15zm519 11c-1 3 0 10 2 12 4 4 15-5 12-10s-12-7-14-2m64-1q-13 6-1 12 11 6 11-4 0-12-10-8m60-1c-1 2-1 11 1 13 2 4 14-3 13-8s-11-8-14-5m-303 3q-10 5 0 12 10 6 10-8 0-9-10-4m58-1c-5 3-1 16 4 16 3 0 9-6 9-10s-9-8-13-6m63 1q-12 5-3 11 12 10 13-5 0-12-10-6m-311 2q-3 1 0 13 2 5 10-1 7-7-3-12-4-3-7 0m-57 1q-12 6-1 11c6 4 6 4 9 0 2-3 2-10-1-12q-1-2-7 1m118 0q-9 5 1 11 11 9 11-7-1-9-12-4m-238 2q-13 4-3 11 11 8 11-4 1-11-8-7m56 1c-2 4-1 12 2 13 4 2 14-7 13-10-2-6-13-8-15-3m242-2v12q1 3 7 2 12-6 2-13-7-3-9-1M6 148v14c3 3 13-3 13-8s-10-9-13-6m520 12q-10 14 7 12 9-1 5-7-6-12-12-5m125-1q-12 12 2 14 14 0 7-11-5-6-9-3m-491 4q-8 10 1 12c10 2 14-5 7-12q-3-6-8 0m-120-1c-2 1-6 8-6 11 0 4 12 5 16 1q2-3-3-10-5-4-7-2m242 0-5 9c0 5 14 6 15 1 1-6-6-13-10-10m120 4c-7 7-1 13 9 10q8-3 1-10-6-6-10 0m324 4c-6 10 0 18 9 12q9-4 1-10-7-7-10-2m-29 4q-8 7-2 10 15 7 14-5-2-12-12-5m-241 1q-12 7-1 12 12 7 11-6 0-12-10-6m28-1v13q3 3 10-2 4-3 2-5-6-8-12-6m97 0c-9 3-11 10-3 13q11 6 10-6 0-9-7-7m24 1c-3 4-3 12 0 14q6 1 12-4c3-3-1-11-5-9l-1-1q-3-4-6 0m-490 0c-5 4-4 15 0 16 3 0 11-4 12-7 1-4-9-11-12-9m121 1c-2 2-3 12-1 13q1 3 7 0 12-4 2-12-6-5-8-1m-150 3q-9 6 2 11 8 5 9-4 1-16-11-7m121-2q-11 7 1 13 11 5 10-6-1-13-11-7m118 2q-9 5 1 11 11 7 10-5 0-11-11-6m30-1c-3 4-2 14 2 14s11-5 11-8c0-4-10-9-13-6M0 185q-1 10 4 4t-3-10q-1-1-1 6m647 2c-5 3 3 16 9 15 4-2 8-12 6-15zm-366 1q-8 0-2 10 9 11 14-4 2-7-12-6m243 2q-4 2 1 8 6 10 12-2 5-8-6-8-6-1-7 2m-366 1c-4 3 2 15 7 14s9-13 5-15c-3-2-11-1-12 1m242 1c-3 2-2 2 1 8q6 9 11 1 4-7 1-10c-3-2-12-1-13 1m-362 1c-4 3 4 17 9 14 3-2 7-10 5-13-1-2-12-3-14-1m707 6q-13 5-3 12 7 5 10 1c2-2 2-11-1-13zm-66 2c-2 4 0 13 3 15s10-3 11-9c2-5-11-10-14-6m-58 1q-12 4-1 11 12 7 11-5-2-7-5-8zm-186 1c-3 2-2 12 1 14s14-5 13-9l-1-2c0-3-11-6-13-3m122 0c-4 3-2 14 3 15 5 0 13-9 10-13s-11-5-13-2m-426 2q-12 6-2 11 9 6 10-1 2-14-8-10m58-1c-3 5-1 15 3 15 3 0 11-6 11-8 0-5-11-10-14-7m63 1q-8 4-7 6c0 3 10 10 12 8l2-1c3 2 3-11 0-13q-2-3-7 0m248 0q-9 5 3 12 8 3 6-8 1-10-9-4m-432 1c-2 2-1 14 1 15 3 2 11-2 13-6 2-5-10-13-14-9m-57 2q-8 5-2 10 9 8 11-4 1-12-9-6m299 0c-4 6-1 14 5 12q12-5 1-12-5-3-6 0m66 0q-11 5-6 9 9 8 14 3 3-6-1-11c-3-3-2-3-7-1m334 10q-9 10 2 11c11 0 13-8 5-13l-3-2zm-116-1c-5 3-8 10-5 12 2 3 11 3 14 0 5-4-4-15-9-12m-126 4q-10 9 4 11 13 0 9-7-6-11-13-4m-250 3q-8 9 5 10 12 0 6-10-5-7-11 0m-120 0q-10 11 4 11 14-1 3-12-3-5-7 1m244 0q-10 13 3 13 14 0 6-11-5-6-9-2m324 5c-5 3-5 13 0 15s14-5 11-9l-9-7zm-122 2c-5 6-1 15 5 14q13-4 4-12-7-7-9-2m97 0q-8 4-4 9c7 7 14 5 13-4q-1-8-9-5m115 3q-7 7 2 10 12 3 10-6-2-13-12-4m-241 0q-7 5 2 10 11 6 11-5-1-13-13-5m-94 0a7 7 0 1 0 7 0q-4-3-7 0m-153 0q-12 6-1 12 13 6 11-6-1-10-10-6m-96 2v12c4 4 13-3 12-9-2-4-10-6-12-3m122-1c-2 2-2 11-1 13 2 2 12-1 14-5 1-5-10-11-13-8m-148 4q-6 6 4 9 7 3 7-6-2-10-11-3m243-2q-11 1-4 10c6 8 13 6 13-4q2-10-9-6m-361 2c-10 5-9 12 3 12l6 1v-5q0-12-9-8m24 1c-2 4-1 11 1 12 4 3 13-2 13-7 0-6-12-11-14-5m417 6c-6 2-2 13 5 14q3 1 5-5 5-8 2-8c-2-1-9-2-12-1m120 1q-5 2 1 9c5 7 13 3 13-6 0-5-8-7-14-3m121-1q-4 1-1 8 6 12 12 3 5-9-1-11zm-493 5c-2 4 3 12 7 12 5 0 9-11 5-13q-8-2-12 1m124-1c-4 3 1 14 6 13 4-1 8-9 6-11-2-3-10-3-12-2m-242 1c-5 1 0 14 6 14 4 0 8-10 6-12s-9-3-12-2m398 9c-2 2-1 11 1 13q5 2 12-3 6-6-3-11-8-5-10 1m122-1c-3 3-2 13 2 14 4 2 11-4 11-8q-1-4-5-5l-3-1q-2-3-5 0m122 0c-3 4 0 15 4 15 3 0 10-5 10-8 0-5-10-10-14-7m-57 1q-11 4-1 12 8 6 10-2 3-7-1-9c-3-2-3-2-8-1m-243 2q-7 5-3 10c6 8 13 5 13-4q0-12-10-6m121 0q-10 5-2 12 11 6 12-4 1-12-10-8m-433 1c-3 1 0 15 4 15 3 0 9-7 9-10s-9-7-13-5m63 2q-7 4-1 9 10 8 12-4 1-12-11-5m60-2c-4 3-1 14 4 14 2 0 7-6 7-9-1-3-8-7-11-5m61 1q-8 6 1 10 8 5 10-1c4-8-3-14-11-9m61 1c-3 4-1 14 3 14 3 0 9-4 10-7 1-6-10-12-13-7M9 265c-3 2-2 12 1 14 4 1 11-4 11-9 0-3-9-7-12-5m66 0q-12 6-2 12 8 5 9-5 2-10-7-7m576 12q-9 12 5 11 15 1 5-11-6-6-10 0m-120 3q-8 9 6 9 9 0 6-7-6-11-12-2m-128 0q-9 12 5 11 12-1 4-10-5-7-9-1m-243 2q-9 11 4 11 11 0 8-7-4-6-9-7zm122 0q-7 9 3 11 16 0 7-10-5-7-10-1m-240 1q-10 10 3 12 13 1 7-10-5-7-10-2m687 8q-4 7-2 13 1 4 9 0 13-4 2-12-7-6-9-1m-247 3q-4 11 5 11c9 0 13-8 6-12q-8-5-11 1m94 0q-7 5-2 9c7 6 15 6 15-2q-1-15-13-7m29-1c-2 2-3 11-1 13 6 5 19-5 13-10q-8-8-12-3m95 0q-9 8-1 11 12 6 12-5 0-12-11-6m-245 2q-10 7 2 11 11 4 9-7-2-10-11-4m-217 1c-3 3-3 13 0 14 2 1 9-2 11-5q4-4-4-9-7-4-7 0m89 1q-8 6 1 11 10 6 9-4 0-13-10-7m32 0c-3 2-2 11 0 12 2 2 10-1 11-3q4-6-3-9c-6-2-6-2-8 0m-244 1-1 7q0 6 4 5 7-1 9-6c2-5-10-11-12-6m93 1q-6 5 0 8 10 6 11-4-1-11-11-4M0 304v6l3-1q6-6 1-10-5-6-4 5m87-4q-6 6 2 9 9 3 9-4-2-13-11-5m560 4c-2 4 4 14 9 14s10-12 7-15c-2-2-14-1-16 1m-118 0c-6 3 3 17 9 14 5-3 7-12 4-14zm-128 3c-5 4 3 14 9 11q6-4 5-9c-1-4-11-5-14-2m-242 3q-4 2 1 8 8 11 12-3c1-6-9-10-13-5m120-1c-2 3 4 14 8 14 3 0 9-9 7-13 0-3-13-3-15-1m-241 1c-4 3 1 15 6 15 6 0 11-11 7-14-2-2-10-3-13-1m397 9c-2 2-1 10 1 13 4 4 15-6 12-11-2-4-11-5-13-2m244 0c-1 2 1 11 2 14 3 4 15-4 14-9s-14-9-16-5m68 0q-9 4-1 11 10 9 12-3 1-15-11-8m-248 1q-10 4-1 12 11 8 11-6 1-10-10-6m61 1c-2 1-1 9 1 13 4 5 16-3 14-10-2-4-13-6-15-3m61 1q-10 4-1 10 12 10 12-5 1-13-11-5m-308-1c-4 3-2 13 2 15 5 1 11-7 8-11l-8-5zm-244 1c-2 2-2 12-1 15 3 4 14-3 14-8a12 12 0 0 0-10-8zm123 0c-4 2 0 16 4 16s11-7 9-11c-1-4-10-7-13-5m66 1q-12 5-3 11 11 9 11-5 1-12-8-6m-126 3q-7 4-1 8 11 8 11-3 0-12-10-5m244 0q-7 4-1 9c7 6 14 2 11-7q-1-8-10-2m-365 1q-7 2-1 9 10 8 11-4 0-11-10-5m461 10c-3 2-6 9-6 12 2 5 18 4 19-2 0-2-5-10-8-11s-2-1-5 1m245 1q-8 11 2 11 16 2 10-8-5-10-12-3m-123-1c-5 3-8 12-4 14 3 2 13 1 15-1 4-5-6-16-11-13m-369 4q-8 12 4 12 11 0 8-7-5-12-12-5m120 1q-9 9 1 12 13 1 10-9-5-10-11-3m-243 2q-8 9 4 10 12 0 5-9-4-7-9-1m660 8q-10 7-1 12 9 7 8-6 2-12-7-6m-245 1q-8 6-2 11 14 6 12-7l-2-5q-1-2-8 1m31 0c-3 2-3 13 0 14l10-3q6-5-5-12-2-2-5 1m-121 1q-3 6-1 12 3 4 10 0 11-7-1-12-5-5-8 0m213 0q-7 6-1 11 12 7 11-5t-10-6m27 0q-5 15 7 12l5-2 2-2c3-6-11-14-14-8m-367 2-1 7q-1 10 8 6 11-6 0-12-6-4-7-1m-29 0q-9 5-2 11 11 6 11-3 0-11-9-8m-213 2c-5 4-1 15 5 13q13-6 4-12-7-5-9-1m120 0c-4 5-2 13 3 13s11-6 8-10q-6-7-11-3m216-1q-12 6-3 13c8 4 13-2 9-10q-2-5-6-3m-367 2q-9 7 0 11 9 6 10-4 0-13-10-7m121 0q-6 5-2 9 13 8 13-4-2-11-11-5m567 4q-4 1-2 7 6 12 14 5 7-10-3-12zm-246 3c-4 2 0 13 4 15 6 2 14-12 8-15zm123 0q-4 0-4 4c0 4 5 11 8 11 5 0 11-13 7-14q-5-2-11-1m-249 3-2 3q5 11 10 9c5-2 8-10 6-12-3-3-11-3-14 0m-119 1c-4 4 2 13 7 13 5-1 9-12 5-14-3-2-11-1-12 1m-123 1c-5 4 3 16 9 12l4-9c0-5-9-7-13-3m645 7c-2 2-2 12 0 15q4 3 10-3c4-5 4-4 3-7-2-5-10-8-13-5m-181 3c-8 4-5 12 5 14q5 2 6-7 1-12-11-7m-313 0c-3 2-2 13 1 15 3 1 10-4 10-8s-8-9-11-7m191 1q-10 4-4 10 12 12 13-4 1-12-9-6m55-1c-2 3 0 13 3 14 4 2 11-4 11-8 0-5-10-9-14-6m121 2c-1 2 0 11 2 14 3 3 12-2 13-8 2-6-12-12-15-6m69-2q-12 5-2 13 11 7 11-6 1-10-9-7m-556 3c-2 2-2 10 0 13 3 3 12-3 12-8s-9-9-12-5m184 1c-5 4-5 4-1 8q10 9 12-2 2-14-11-6m-240 0q-9 5-1 10 10 7 10-5 0-10-9-5m123-1q-11 3-3 10 10 8 10-4 1-10-7-6m173 1c-3 5 0 12 5 12 2 0 8-6 8-8 0-5-11-8-13-4M9 387q-2 4 1 12c2 5 13 0 13-6-1-5-11-9-14-6m648 11-4 5-2 4 2 2 4 2 5-1q10-1 3-10-6-6-8-2m-126 2q-9 11 6 11 14 0 5-10-5-7-11-1m-247 2q-9 10 3 10 16 2 7-9-6-7-10-1m122-2q-10 15 6 13 9-1 6-7c-2-6-9-9-12-6m-242 2c-5 5-6 12-2 13 8 2 16-3 13-8q-5-11-11-5m-121 3-5 9q0 3 8 4 13 0 5-10-4-6-8-3m687 9q-4 16 11 10 6-4 0-10-7-6-11 0m-272 0q-12 7 0 13 5 3 7 1c5-2 5-12 1-15-3-1-3-1-8 1m124-1q-10 5-6 11c8 7 17 4 14-6q-2-8-8-5m26 1c-2 3-3 12-1 14 3 2 14-3 16-7 1-2-8-9-12-9zm93 2q-9 5 3 12 12 3 8-10-2-8-11-2m-490 0q-11 7 5 13c5 2 8-6 3-13q-2-4-8 0m27-1-1 7q1 11 10 5 8-6 0-10-6-5-9-2m247 2q-4 15 9 10 11-5 0-11-7-5-9 1m-154 1q-10 7 2 13c7 3 11-8 5-14q-3-5-7 1m29 0c-3 5 0 14 3 14 2 0 10-5 10-7 2-5-10-12-13-7M0 425q-1 11 6 5 9-5-1-11l-4-2zm118-7c-2 2-3 11 0 13 3 3 13-1 13-6 0-3-10-9-13-7m-30 4q-6 6 0 8 12 7 12-4-3-11-12-4m565 3c-3 3 0 11 5 14 6 3 14-10 9-14-2-3-11-3-14 0m-124 3c-2 5 5 15 9 13 2 0 7-8 7-11 0-5-12-6-16-2m-125 0c-2 0-3 6 0 8l1 3c0 2 5 4 7 4q4-3 6-10c2-5-6-7-14-5m-122 1c-4 2 1 14 6 14 2 0 7-6 9-9 1-5-8-8-15-5m-121 1c-5 3 2 15 8 14 5-2 8-12 4-14zm-120 2c-4 2-2 12 4 15q6 3 9-8 2-11-13-7m643 8c-2 2-1 11 1 13 3 4 13-2 13-6 0-6-11-11-14-7m-56 0q-15 6-3 13 10 6 10-7 0-7-7-6m-192 1c-2 4 1 15 4 15 7 0 13-8 9-12-2-3-11-5-13-3m312 1q-14 3-4 11 11 10 14-4l-1-6q-1-4-9-1m-246 1q-6 5-4 8c1 2 7 6 10 6q4 1 5-8 1-12-11-6m60-1c-2 3-1 12 2 14 3 4 13-3 13-9-1-4-12-8-15-5m-367 2c-3 3-1 13 3 13 3 0 10-6 10-8 0-4-10-9-13-5m116-1c-1 3 1 11 2 13q6 2 10-5 3-3 0-6c-3-3-11-4-12-2m69 0q-11 5-2 11 14 8 12-7-3-7-10-4m-121 1-4 2q-7 3 0 9 10 8 11-4 0-9-7-7m-190 4q-1 6 3 11c4 4 12-3 11-9 0-4-13-7-14-2m67 0q-9 4 0 10 10 6 9-5 1-10-9-5m-120 0q-4 2-6 6c0 2 6 7 9 7q4 1 5-5 1-12-8-8m458 10c-5 2-8 11-3 13q16 3 12-7-3-6-6-7zm242 1q-10 11 2 12 17 0 8-10-6-7-10-2m-371 2q-9 10 5 11 13 1 4-11-4-6-9 0m249 0q-6 8 0 11c4 2 12 0 13-2 1-6-8-14-13-9m-368 2q-7 9 3 10 14 0 6-10-5-6-9 0m-120 2q-3 3-4 8 0 3 5 3 13-1 5-9-3-4-6-2m564 8-1 7q0 13 10 5 11-7-2-12c-5-2-4-2-7 0m94 1q-9 7 3 12l2 1v-8q1-12-5-5m-123 0q-6 3-7 8 1 5 10 6h5l1-4q1-14-9-10m-123 3q-7 6 2 10 11 6 11-5-1-14-13-5m29-1c-2 3-1 11 1 12 2 3 12 0 14-4 2-7-11-14-15-8m-248 1c-2 5 0 13 3 13 2 0 9-4 10-6q2-2-2-6-8-6-11-1m92 1q-6 5 2 9 11 6 10-4-3-13-12-5m33-2v13c4 4 15-2 13-8-1-4-10-7-13-5m-274 2c-5 2-7 8-3 10q12 6 11-4 0-10-8-6m30-1c-4 5-2 13 3 13 3 0 9-5 9-7 0-4-9-9-12-6m90 2q-7 6 3 11 9 4 7-8-2-10-10-3m-210 0c-2 2-2 11 0 12 3 2 10-1 12-4 3-5-8-13-12-8m-29 2q-9 6-1 10 10 7 10-3-1-13-9-7m687 5q-9 0-4 7 5 15 12 4 8-11-8-11m-250 1c-4 3 2 14 7 14 5-1 10-9 7-11l-2-3zm-244 1c-3 1 1 11 6 13 5 1 10-9 7-12-2-2-10-2-13-1m367 0c-3 4 3 15 8 15s10-13 6-15zm-248 1c-5 2 3 14 8 14 2 0 7-7 7-10 0-4-9-6-15-4m-241 5c-3 5 3 13 8 11l5-9c0-4-11-5-13-2m642 5v10c2 6 15 1 14-5-1-4-11-8-14-5m-121 2-1 8q-2 4 6 3 9 1 8-5c0-4-12-9-13-6m64 2q-5 2-4 6v3h15v-3q0-11-11-6m-433 0-1 5v4h6q10 1 7-5c-1-3-10-7-12-4m122 0q-4 1-3 7c1 3 13 3 13 0 0-4-6-8-10-7m188 1q-13 7 3 8h7v-3q0-9-10-5m-367 0q-14 8 1 8h7v-3q-1-9-8-5m243 1-4 5q-1 2 8 2h8v-3q-1-10-12-4m61 1q-6 5 6 6l8-1q-1-3-7-7-5-2-7 2m-489-1-2 4v3h8q8 1 7-2-1-4-6-5l-3-1zm120 0-1 4-1 3h7q8 1 6-2c0-4-7-7-11-5m184 2q-9 6 3 5h8l-1-3q-3-6-10-2m-240 1-4 2q-3 3 6 2 10 1 7-2-1-4-9-2"
        mask="url(#16282281824-posters-1720553845194-vertical-mask)" itemprop="medium" fill-opacity="0.90"
        fill-rule="evenodd" stroke="none" fill="url(#16282281824-posters-1720553845194-vertical-medium)"></path>
      <!---->
      <path id="16282281824-posters-1720553845194-bold"
        d="M19 3q-2 4 5 7 9 3 10-3h6q6 2 2-3-4-2-5-1-2 2-4-1c-3-3-12-3-14 1m30 0q-3 10 8 7 12-9-1-10-6-1-7 3m92-1q-3 3 2 5 12 6 11-3V0h-7q-6 0-6 2m29 2q0 7 7 5t6-8l-6-1h-7zm88-3c0 3 8 8 11 8q3-1 4-6V0h-7zm34 2q0 11 11 3 8-6-4-6h-7zm93-2q-2 4 4 7 10 5 9-4V0h-6zm32 2c1 5 9 4 12-1q3-2-6-2h-6zm91-2c0 2 9 5 11 4q3-2 1-3l-2-1-5-1q-6 0-5 1m32 0q0 6 7 3 9-4-1-4zm166 4c-3 2 3 12 7 12 3 0 9-8 7-11 0-2-13-3-14-1M463 8c-3 1 2 13 6 13 3 0 8-6 8-9 0-4-9-6-14-4m121 1c-2 4 4 13 8 12 3-1 7-10 5-12-1-3-12-3-13 0m-246 1q-5 3 1 10l5 4c2 0 8-8 8-11s-9-5-14-3M97 11c-4 1-2 11 3 13 3 1 8-5 8-10q-2-5-11-3m116 1c-4 3 1 11 6 11 3 0 7-6 7-10 0-3-9-4-13-1m467 8q-9 5 1 11 10 8 9-5 1-13-10-6m-122 1q-12 7 0 12 8 5 8-4 3-14-8-8m180 2q-1 15 8 8 7-6 1-10-7-5-9 2m-122-2-1 7q3 12 10 3 7-7-2-9l-4-2zm-182 3q-11 6 0 11 9 6 9-5 0-10-9-6m58 0c-1 2 1 10 3 12s10-5 10-9-11-7-13-3m-306 2q-7 4 0 9 7 6 9 1 3-4 0-9-1-6-9-1m124-1q-8 4-2 9 11 8 11-3 0-9-9-6M64 28q-6 4 2 9 9 5 8-3c2-8-4-11-10-6m61-1q-2 6 1 11c2 3 11-3 11-7s-11-8-12-4m122 0c-3 5 0 13 4 13 3 0 9-5 9-8q-1-4-5-5l-2-1q-4-2-6 1m120 3q-1 11 6 11 11-5 5-11-8-6-11 0M5 30c-2 4 1 13 4 13 2 0 9-7 9-9s-7-6-11-6zm520 9q-7 9 5 10 11 0 4-10-5-6-9 0m123 0q-8 9 1 11c11 2 14-5 6-12q-3-4-7 1m-370 1c-2 3-5 10-4 11 3 3 15 2 15-2 0-6-7-12-11-9m125 2c-4 3-5 9-2 10q6 2 11 0c4-3-4-13-9-10M35 44q-6 10 4 11 12 0 5-10-5-6-9-1m120 0q-7 10 3 10 12 1 6-9-4-6-9-1m542 8-2 1q-4 1-5 5 1 4 9 6 6 1 5-3c2-8-3-14-7-9m27 2q-1 13 9 8 8-4 2-9-9-7-11 1m-126 0c-4 10 2 16 11 9q4-5 2-6c-4-6-11-8-13-3m-120 2q-1 15 11 8 6-4 0-8-8-6-11 0m96-1q-10 8 2 12 10 3 7-8-1-9-9-4m-121 1q-11 7-1 11 9 5 9-4 0-13-8-7m-251 3q-6 5 2 9 12 6 11-5-3-12-13-4m30-1c-2 3-1 10 1 11 4 2 13-3 12-7-2-5-11-8-13-4m96 0q-7 4-6 6c0 3 7 6 11 6q4 1 4-4 0-14-9-8m-217 1v12c3 2 12-2 13-6 1-5-10-11-13-6m244 0q-3 6 0 11c3 3 12-1 12-6 0-4-9-8-12-5M82 62q-6 6 0 8 13 7 10-8-3-6-10 0m445 6q-8 0-3 7 4 8 9 6c5-3 7-12 3-13zm121 1-2 1c-4 0-1 7 3 10 6 4 14-7 9-11-3-2-10-3-10 0m-368 0q-6 0-4 7 4 7 7 7c4 0 9-10 6-13q0-3-9-1m-123 1q-8 0-2 9 7 10 12-2 5-9-10-7m246 0q-6 0-2 7 7 13 12 2 6-12-10-9M33 75q-1 1 1 4l2 5c3 5 10-1 10-7 0-4-11-6-13-2m709 4q-11 4 1 11 8 5 8-4 1-10-9-7m-124 2q-12 6-1 11 8 3 9 0 3-6-1-11 0-5-7 0m60 0c-4 4-2 13 2 13 3 0 9-5 9-7 0-5-9-9-11-6m-246 2c-2 1-2 9 0 12 3 4 13-4 11-9-1-3-9-6-11-3m-246 2q-2 5 1 11 3 4 9-1 9-7 0-11-8-5-10 1m310-1q-6 3-1 8 10 7 11-4-1-9-10-4m62-1c-2 2-1 10 1 12 3 3 12-3 11-8-1-3-10-6-12-4m-252 2c-2 2 0 12 3 13 3 2 11-4 11-7s-12-9-14-6M63 86c-2 3 0 14 3 14s9-6 9-9c-1-4-9-8-12-5m64 2-5 3c-3 3 5 10 12 9 2 0 3-9 1-12-3-4-2-4-8 0m118 0q-8 4 5 10 7 4 7-5-1-14-12-5m127-1q-11 5 0 11 10 5 8-7c-1-6-1-7-8-4M5 90q-7 5-3 7l2 2 8 2q2-1 2-6 1-11-9-5m703 8q-8 10 4 11 11 0 8-7-6-11-12-4m-242 1c-9 8-2 17 8 11q6-1 1-7-4-7-9-4m121 3q-5 8 5 8 14 0 6-9-5-6-11 1m-489 2q-9 10 2 11 12 0 7-7l-6-6zm119 1-1 6v4h5l7-1q2-4-1-7l-2-3q-2-5-8 1m124 0q-12 13 5 12 7 0 6-4c0-7-8-13-11-8m417 7q-9 5-1 9 13 7 11-6-2-10-10-3m-217 1c-2 1-3 11-1 13 3 2 11-1 12-5a11 11 0 0 0-8-8zm97 0q-12 5-2 11t10-5q0-9-8-6m-220 2v10c3 3 11 0 11-5 0-6-9-10-11-5m91 1q-7 5-1 8 11 7 12-3 0-13-11-5m154-2-1 5q-2 11 8 7 11-5 2-11-6-3-9-1m-519 3q-9 6 1 11 11 4 8-8-2-8-9-3m29 0q-4 11 3 12c8 0 11-7 5-11q-6-5-8-1m-122 1q-3 12 2 14c3 0 10-6 10-8 0-5-11-11-12-6m-26 1q-7 6 0 10 9 5 9-3 0-12-9-7m239 1q-7 7 5 10 6 1 5-7 0-10-10-3m30-2c-3 4-2 13 1 13 6 0 13-6 11-9s-11-6-12-4m96 1-2 1-1 1q-5 2-3 6 5 4 11 5 2 1 2-6 1-10-7-7m201 7q-9 1-4 7 6 15 14 0 3-5 0-5-5-3-10-2m116 0c-2 3 1 11 5 12 4 2 9-5 9-10q1-3-7-3zm-242 1c-5 1-4 8 1 13q6 4 10-5 6-11-11-8m-250 4c-3 2 4 13 8 13 3-1 7-8 6-11q0-4-7-3zm122 0c-3 4 3 13 8 13 3-1 8-9 6-12-1-3-12-3-14-1m-240 1c-3 2 3 14 6 14 4 0 9-11 7-14-1-1-12-2-13 0m522 8c-4 2-1 15 3 15 2 0 7-5 8-7 2-5-6-11-11-8m123 1c-1 2 0 11 1 12 3 3 13-5 11-9-3-4-11-6-12-3m-60 0q-6 3-7 8c2 4 13 8 14 4q3-6-1-11 0-3-6-1m-241 2-4 1q-6 3-2 8 6 4 10 3c3-2 3-12-1-13zm54 1c-1 3 0 12 2 13 4 3 13-6 11-10s-11-7-13-3m62 0q-9 5 4 12l4 2 2-2q4-6 1-12-3-3-11 0m-309 1c-2 3-1 13 2 15 2 0 10-5 10-7 2-5-8-11-12-8m66 0q-13 4-6 11 13 9 12-4 1-9-6-7m-124 3q-7 3-2 7 10 8 12-3 0-11-10-4M7 149c-3 2-3 10 0 12q2 3 6-1 10-6 1-11l-4-2zm64-1q-12 5-3 11t10-4-7-7m57 1c-2 4 0 13 2 13 4 0 11-6 11-10s-12-7-13-3m241 0v3l1 2c-3 7 4 9 11 3q5-4-2-8-9-5-10 0m157 11q-10 12 5 11 10 0 7-4-4-12-12-7m124 1q-10 12 4 11h7l-1-5c0-7-6-11-10-6m-489 2c-3 2-5 8-3 10 4 5 15 1 13-5q-3-9-10-5m-123 2q-7 12 7 10 8-2 2-10-4-6-9 0m242 0q-5 12 8 9 7-1 1-9-5-6-9 0m123 0q-5 6-3 9c1 2 13 2 14 0a8 8 0 0 0-11-9m326 4-2 1q-2 0-2 4-2 10 4 9c8 0 12-7 7-11l-3-3zm-32 6q-9 5 0 9 13 5 11-6-2-10-11-3m-91-1c-2 1-3 10-2 13s8 2 13-3c2-2-1-8-5-7l-3-2q0-3-3-1m-149 2q-12 6-1 10 10 6 10-4 0-12-9-6m28-1v12c2 2 11-2 11-6 0-3-9-9-11-6m93 1q-9 7 1 11 12 6 7-11 0-4-8 0m-463 0q-3 5-2 12c2 4 13 1 13-4s-8-10-11-8m121 1c-4 6-2 14 4 12q13-3 6-10-7-6-10-2m-150 2q-7 6-1 9 13 7 12-3-2-14-11-6m120 0q-8 6 1 10 13 6 10-6-1-12-11-4m122-1q-7 4-7 7c1 2 11 7 12 6 3-1 3-10 0-12q-1-2-5-1m27 1c-2 3-1 11 1 12 2 2 10-4 11-7 0-4-9-8-12-5M0 185v6l2-1q6-3 2-8-4-7-4 3m646 4c-2 3 5 12 9 12 3-1 9-10 7-13-2-2-15-2-16 1m-368 1c-2 4 3 13 7 13 5 0 9-11 6-14-3-2-12-1-13 1m247-1c-4 4 2 14 7 12 2 0 6-6 6-9 0-4-9-6-13-3m-368 3q-1 4 4 11 6 4 10-8 2-6-7-5-6 0-7 2m245-1q-6 1 0 9 5 8 9 0 8-13-9-9m-365 3c-1 4 5 13 9 13 2 0 6-7 6-11q1-3-7-3zm705 7q-9 6 2 11 8 3 8-3 3-14-10-8m-62 0c-2 3 0 14 2 14 7 1 13-8 9-11-1-2-7-4-9-4zm-56 1q-15 4-3 11 9 6 8-4 1-10-5-7m-189 2v12c4 4 14-3 12-9-1-4-11-7-12-3m122-1c-2 1-1 12 1 13 3 3 10-1 12-7 1-4-10-10-13-6m-428 3q-7 4 0 9 9 6 9-1 1-7-1-9h-2q-1-1-6 1m60-1c-2 1-1 11 1 12 3 2 13-4 13-7s-10-7-14-5m64 0-5 3-3 3 3 3c3 4 12 5 12 2l1-5a5 5 0 0 0-8-6m246 1q-6 4 1 8 9 6 9-2l-1-4v-3q-2-2-9 1m-431 3c-3 8 3 16 8 11l3-2c2 0 3-5 1-7-4-5-11-6-12-2m-58 0q-6 5 1 9 5 6 7 1c6-8 0-15-8-10m300 0-1 7q2 8 9 2 6-4-1-8-6-6-7-1m64 0-4 4q-1 3 3 5l1 1c1 2 8 2 9 1 2-2 1-10-1-11q-2-3-8 0m339 7q-5 3-6 8c1 6 14 5 14-1q-1-7-8-7m-120 2c-4 3-6 10-3 11h13c4-5-5-15-10-11m-125 4q-6 5-1 9c4 2 14 0 14-3l-3-5q-4-7-10-1m-249 1q-8 9 4 10 10 1 7-6-3-10-11-4m-122 3q-7 10 5 9 11 0 4-10-5-6-9 1m245-1q-9 11 3 12 11 0 7-8-5-9-10-4m323 6c-4 4-2 13 2 13s11-6 10-8q-6-8-12-5m-121 2q-5 11 5 11 12-4 3-12-7-5-8 1m96-1q-8 5 0 10 10 5 9-4 1-12-9-6m-124 2q-7 6 2 10 9 5 9-5-1-12-11-5m240 1q-7 8 7 9 6 1 4-8-3-10-11-1m-334 0c-5 5-2 12 4 11q11-3 4-10-5-5-8-1m-155 1q-9 4 0 9t10 0q1-15-10-9m28 0c-2 3-2 10-1 12 3 2 11-3 12-6 0-4-9-9-11-6m-123 2c-3 7 1 13 7 9q10-8-3-11-3-2-4 2m-25 1q-6 6 2 8 9 3 8-5-1-10-10-3m-93-1c-2 1-3 10-2 12 2 4 13 0 14-5 0-3-9-9-12-7m334 0q-11 3 1 12 5 5 7-1 7-14-8-11m-359 1q-13 7-1 12 9 3 8-4 0-11-7-8m562 7c-5 2-3 10 3 13 3 2 9-4 9-10 0-3-8-4-12-3m-122 1c-4 1 0 13 4 13q6-2 8-11c0-2-7-4-12-2m241 0c-4 1 0 13 5 13 4 0 10-10 7-12-1-1-9-2-12-1m-492 5c-2 3 2 11 6 11 2 0 6-6 6-10-1-3-10-5-12-1m122 0c-1 3 3 10 7 10s7-9 4-11-10-1-11 1m-242 1c-3 3 5 13 9 11 3-2 5-10 3-12s-10-1-12 1m400 6c-2 1-1 11 1 13 3 3 13-2 13-7 0-3-10-8-14-6m121 0c-2 3 0 13 2 13q4 1 9-3t-4-9q-6-3-7-1m122 2c-1 3 1 12 3 12 2 1 11-5 11-7 0-6-12-9-14-5m-57 0q-11 5 0 11 8 5 9-4 2-10-9-7m-242 2q-9 4-3 10 10 7 11-5 1-11-8-5m-126 1q-11 3-2 10 12 4 10-8-1-6-8-2m244 0q-6 4 0 8 8 8 11-1c3-7-5-12-11-7m-431 0c-2 3 0 13 4 13 2 0 8-6 8-8 0-4-9-8-12-5m63 1q-8 3 0 8 8 9 9-3 1-11-9-5m60-1c-5 3 0 14 5 12q6-5 5-9-6-5-10-3m122 1v11c2 4 12 0 12-5s-7-8-12-6M8 267q-1 13 6 11 7-5 6-9c-3-4-12-6-12-2m65 0q-7 5 0 9t8-3q2-12-8-6m578 12q-7 10 8 8 10-1 1-9-4-6-9 1m-118-1q-10 9 3 10 11 1 5-8-5-6-8-2m-130 3q-8 9 5 9 12 0 4-9-5-6-9 0m-118-1c-3 1-6 9-5 10 1 3 11 3 14 1a4 4 0 0 0-2-7l-5-5zm-124 2q-8 10-1 10 18 2 9-9-5-5-8-1m-120 2q-7 8 3 10 11 1 9-5-5-11-12-5m688 7c-2 2-2 11-1 13 3 3 15-3 15-7s-12-8-14-6m-246 2c-2 4-1 11 1 12h5q12-6 2-12-6-4-8 0m94 1q-10 6 2 11 13 5 8-10-2-7-10-1m29-1c-3 2-3 11 0 13 4 2 11-3 12-7 0-4-8-9-12-6m100-1h-1q-6 1-9 7c0 5 12 9 13 5v-12zm-251 4q-8 5 0 9 15 6 9-8-1-7-9-1m-217 1c-4 5-2 13 3 12 10-2 12-9 3-13q-5-2-6 1m-122 1c-2 4-1 11 1 11 7 2 12-5 7-10q-5-5-8-1m93 1q-8 6 0 8 10 6 9-5 0-10-9-3m117 0q-6 4 2 8 9 6 9-4-2-11-11-4m32-1q-2 10 4 11c5 0 11-5 8-9s-11-5-12-2M0 303q-1 10 4 4 5-3-1-8l-3-2zm88-3q-7 8 6 9 4 1 3-5 0-11-9-4m560 4q-3 4 3 10 6 9 11-2l3-6-3-2c-3-3-13-3-14 0m-119 1c-3 1 2 13 6 13 5 0 11-12 6-13zm-128 2c-3 4 2 11 7 11 4 0 9-8 6-10-2-2-11-2-13-1m-121 2c-4 4 4 15 9 12 2-1 5-7 5-10q1-3-7-3zm-121 1c-3 4 3 13 7 12 3-1 6-7 5-10 0-3-10-4-12-2m-121 2c-2 2-2 1 0 5q5 12 11 4 5-7 1-10c-3-2-11-1-12 1m642 6c-1 2 0 12 1 14 3 3 12-2 13-7 2-4-11-10-14-7m69 1q-10 4-3 10 9 10 12-4 1-4-2-6c-2-2-1-2-7 0m-314 0c-3 1 0 13 4 13 5 0 11-9 8-12-2-1-10-2-12-1m64 2q-10 5 2 12 7 4 8-6 0-10-10-6m61 0c-1 3-1 3 1 8q3 11 10 3 9-6-3-11-5-4-8 0m62 1q-10 5-2 10 10 8 11-3 3-15-9-7m-309 1c-3 2 0 12 3 12s8-5 8-7c0-4-9-8-11-5m-246 2c-1 5 2 13 5 13 2 0 9-6 9-9 0-6-12-10-14-4m125-2c-3 3 0 14 4 14 3 0 9-6 9-8 0-4-11-9-13-6m64 1q-8 5-2 8 11 11 12-3 0-11-10-5m-124 3q-7 4 0 7 11 8 9-6-2-7-9-1m247-2q-11 5-1 11 9 5 8-5 0-9-7-6m-367 2q-7 2-3 7 8 11 11-1 2-11-8-6m459 12q-7 9-1 11c3 1 12 1 13-1 3-2-4-13-8-13zm246 0q-7 10 5 10t5-11q-5-5-10 1m-124 0q-12 14 6 12 9-1 5-6-5-11-11-6m-368 4q-7 10 5 9 9-1 6-7-6-11-11-2m120-1q-8 9 1 11c11 2 14-5 6-12q-3-5-7 1m-244 3q-5 8 5 8 8 0 7-5-4-10-12-3m419 8q-12 6-3 11 10 6 9-5 1-11-6-6m243-1-4 3q-5 5 4 10 8 5 6-6 0-12-6-7m-214 1q-3 1-2 7v6h4q8-1 9-6c0-4-8-9-11-7m-122 1c-2 4-2 12 1 13 4 2 14-5 13-8-2-4-12-7-14-5m212 2q-6 5 0 8 10 8 10-3-1-14-10-5m28 1q-3 16 11 6 6-5-1-8-8-5-10 2m-366-1c-3 2-3 12 0 13 2 1 10-3 11-6 0-3-8-9-11-7m-122 2c-4 5-2 12 2 12 8 0 10-8 3-12l-4-2zm90 1q-5 5 1 8 12 5 9-7-4-7-10-1m-212 1c-4 9 4 15 12 6l2-2-3-3q-8-7-11-1m94-1q-13 6 0 11 7 3 7-4 0-11-7-7m240 0q-9 9 4 10 9 0 5-7l-2-3q-1-4-7 0m-363 1q-10 5 1 10 9 4 8-4-1-10-9-6m687 4c-4 3 2 14 7 14s10-12 5-13c-4-2-11-2-12-1m-240 2q-11 1-6 9 7 11 12-1l2-5q-2-3-8-3m116 1q-5 1-1 8 8 11 12-1 3-7-1-7zm-247 2q-4 1 0 7 6 8 10 2 5-7 2-9-7-3-12 0m-119 1c-4 4 3 15 7 12q4-3 5-9c0-5-9-7-12-3m-124 2c-2 2 1 9 4 11 4 3 11-7 7-11-2-2-9-3-11 0m645 6v13c3 6 13-1 12-8 0-4-9-7-12-5m-181 4q-9 5 3 12 7 4 7-6 0-12-10-6m-313 0q-3 3 0 12c1 3 11-2 11-6 0-3-9-7-11-6m193 0q-11 3-5 10 11 9 12-5 0-7-5-6zm53 1c-2 3 1 11 4 12q8-2 10-8c0-5-12-8-14-4m122-1c-1 1-1 8 1 13s13-1 13-7c0-4-10-9-14-6m69 0q-12 3-3 11 9 7 10-3 2-11-7-8m-556 1c-4 2-2 14 2 14 3 0 9-6 9-8 0-4-8-8-11-6m184 2q-8 4 1 9 7 5 8 0l1-5q1-10-10-4m56 0c-2 2-1 9 2 11 4 2 11-7 8-10q-6-3-10-1m-298 1q-7 4 0 9 10 7 9-5 0-9-9-4m124-1q-9 2-3 8 9 7 10-4 0-7-7-4m-189 2c-1 2 0 9 1 12q2 4 8-1 9-8-2-10l-4-2zm524 12-5 6q-4 5 8 5 8 0 7-3c0-6-6-11-10-8m122 1q-7 10 3 10 9 0 8-6-5-11-11-4m-371 2-3 6v4h6q12 0 7-7-6-9-10-3m122-1q-10 12 3 11 14 0 5-10-5-5-8-1m-242 1q-5 6-4 11c3 3 14 1 14-3s-5-10-7-10zm-124 7q-7 9 6 8 9 0 6-6-7-11-12-2m691 3-2 11q2 6 12-1 4-2-2-8-5-5-8-2m-274 3q-10 8 2 12 10 2 7-9-1-8-9-3m123-1-5 4q-4 2 0 6c4 4 13 4 13 1 2-8-3-15-8-11m27 1v12c3 3 15-4 14-8-2-4-12-8-14-4m95 0c-7 4-6 11 3 13 6 1 9-8 4-13q-1-3-7 0m-464 0c-2 2-1 11 0 13 3 2 13-4 11-7 0-2-7-7-9-7zm248 0q-2 1-2 7 0 10 8 5 12-5-2-12zm-274 1q-10 6-1 11 10 6 9-6-2-8-8-5m118 2-3 2q-2 3 1 8 10 6 11-3-1-12-9-7m30 0c-4 5-1 14 5 12q10-4 4-10t-9-2M0 425v7c2 0 9-4 9-6 2-3-4-8-8-8zm118-4v9c1 4 12 0 12-4 0-5-11-9-12-5m-29 1-3 4c0 5 11 8 12 4 3-8-4-13-9-8m564 3c-3 3 3 14 7 14s9-10 7-13c-1-2-10-3-14-1m-120 2c-6 1-3 13 3 14 5 0 11-12 7-13q-6-2-10-1m-130 2c-2 2 2 11 6 12 4 2 11-7 8-11-1-2-13-3-14-1m-120 1c-3 0-2 6 1 10q7 5 8-1l1-1q4-3 1-8zm-123 2v4q8 11 11 5l2-3c1 0 2-5 1-7-2-2-12-1-14 1m-118 1q-6 2 1 12 4 4 7 0c8-9 3-17-8-12m642 8c-1 2 0 11 2 12 3 3 13-4 11-8-3-5-11-8-13-4m-246 0c-4 2-2 14 3 14 3 0 9-5 9-8q-1-4-6-5l-3-1zm187 1q-10 4 0 10 9 7 9-5 1-10-9-5m124 0q-13 3-4 10 8 7 11 1v-11zm-437 2v2c-1 3 2 9 3 10 4 1 10-6 8-9-1-4-10-6-11-3m68 0q-10 7 3 12 8 3 6-8-1-9-9-4m122 0c-6 3-4 10 3 12q8 2 7-7-1-11-10-5m60 3q1 15 10 7 10-10-6-12h-4zm-367-3v10c3 4 13-1 12-6-1-4-9-6-12-4m62 1q-9 4-1 10 7 5 8-1 3-4 1-6-2-5-8-3m-186 1c-3 2 0 14 3 14 2 0 9-6 9-8 0-3-10-9-12-6m65 3c-6 2-4 8 3 10q6 1 5-6 1-10-8-4m-123 2q-6 4 2 7 8 6 8-5v-5h-4zm704 8q-10 11 3 11 13 1 7-7-5-9-10-4m-243 0c-2 1-6 8-6 9 1 2 10 3 14 2q3 0 2-4-3-9-10-7m-128 1-4 7c0 5 10 7 14 3 4-3-5-14-10-10m249 1q-9 11 3 11 14 0 5-10-5-6-8-1m-368 2q-8 8 4 9 11 0 5-7-5-8-9-2m-123 5q-6 9 7 7 6-1 1-8-4-4-8 1m567 6c-1 1-2 10 0 12 2 3 12-2 12-7-1-4-9-9-12-5m92 1q-6 6 1 9 6 6 5-5 1-11-6-4m-121-1q-6 3-8 8 1 4 11 5h4v-5q0-8-4-9zm-123 3q-8 7 5 11 10 2 5-13-3-3-10 2m29-1v11c1 5 13 0 13-5s-11-10-13-6m-274 1c-9 3-7 12 2 12q4 1 4-4l-1-7q-2-3-5-1m25 0c-1 4 0 11 2 12 4 0 11-4 11-7 0-4-11-8-13-5m92 2q-7 5 3 8 9 5 8-4l-1-4c-1-4-7-4-10 0m34-2v12c2 3 12-2 12-6s-10-9-12-6m-277 3q-6 5-1 7 12 7 10-4-1-11-9-3m32-2c-2 2-1 11 1 11 3 2 10-3 10-6 0-4-8-7-11-5m-120 1v12c3 2 11-3 12-6 0-4-9-9-12-6m-30 3q-6 5 0 9 12 5 9-7-3-7-9-2m686 5q-4 3 0 11 7 8 11-4 3-10-11-7m-247 1q-3 3 2 10 6 8 10-4 1-7-5-6-3 3-4 0zm-245 3q1 8 7 9c3 0 7-7 6-10q0-2-7-2h-6zm367-1c-2 3 4 12 8 12 3 0 7-7 7-11v-3h-7q-8 0-8 2m-247 0c-4 1 0 9 5 12q4 1 6-4l1-3c3-4-5-7-12-5m-241 4c-2 2 0 9 4 10 3 2 8-4 7-9-1-2-10-3-11-1m642 6v9c1 6 12 2 12-4 0-4-10-8-12-5m-122 1v10l6 1q7 0 6-3 0-7-5-7l-2-1zm-369 2-1 5v4h6l7-1c2-4-8-11-12-8m434 1q-7 3-5 6c2 3 14 3 14 0q1-12-9-6m-314 0-1 5v3h7l6-1c0-5-9-10-12-7m189 1q-9 6 3 7h7v-3q0-10-10-4m-366 0q-12 7 1 7h6v-4q-1-6-7-3m245 0q-5 2-5 5c0 3 13 3 14 0q2-7-9-5m60 0-2 4v3h7q12 1 5-5-6-3-10-2m-491 2q-2 6 7 5 7 1 6-2c0-4-12-7-13-3m121 0q-3 6 5 5 10 0 4-5c-3-2-9-3-9 0m184 0q-8 5 4 5 8 1 6-2 0-8-10-3m-239 1q-10 4 2 4 7 1 5-2a4 4 0 0 0-7-2"
        mask="url(#16282281824-posters-1720553845194-horizontal-mask)" itemprop="bold" fill-opacity="0.90"
        fill-rule="evenodd" stroke="none" fill="url(#16282281824-posters-1720553845194-vertical-bold)"></path>
    </pattern>
    <rect id="16282281824-posters-1720553845194-pattern-render" fill="url(#16282281824-posters-1720553845194-pattern)"
      width="100%" height="100%"></rect>
  </defs>
  <radialGradient id="lightbar" cx="50%" cy="200%" fy="0" r="201%">
    <stop offset="0%" style="stop-color: rgb(255, 255, 255); stop-opacity: 0.1;"></stop>
    <stop offset="10%" style="stop-color: rgb(0, 0, 0); stop-opacity: 0.1;"></stop>
    <stop offset="30%" style="stop-color: rgb(0, 0, 0); stop-opacity: 0.3;"></stop>
    <stop offset="90%" style="stop-color: rgb(0, 0, 0); stop-opacity: 0.55;"></stop>
    <stop offset="100%" style="stop-color: rgb(0, 0, 0); stop-opacity: 0.6;"></stop>
  </radialGradient>
  <g class="radial">
    <radialGradient id="16282281824-posters-1720553845194-radial" gradientUnits="userSpaceOnUse">
      <stop itemprop="radial" stop-color="#cdcccb" offset="0%"></stop>
      <stop itemprop="radial" stop-color="#d2d1d0" offset="15%"></stop>
      <stop itemprop="radial" stop-color="#d0cfce" offset="30%"></stop>
      <stop itemprop="radial" stop-color="#d0cfce" offset="45%"></stop>
      <stop itemprop="radial" stop-color="#cdcccb" offset="60%"></stop>
      <stop itemprop="radial" stop-color="#d2d1d0" offset="75%"></stop>
      <stop itemprop="radial" stop-color="#cbcac8" offset="90%"></stop>
    </radialGradient>
    <radialGradient id="16282281824-posters-1720553845194-radial-background" gradientUnits="userSpaceOnUse">
      <stop stop-color="#d3cdc5" offset="0%"></stop>
      <stop stop-color="#d3cec5" offset="15%"></stop>
      <stop stop-color="#d3cdc5" offset="30%"></stop>
      <stop stop-color="#d3cfc5" offset="45%"></stop>
      <stop stop-color="#d3cfc5" offset="60%"></stop>
      <stop stop-color="#d3cec5" offset="75%"></stop>
      <stop stop-color="#d3cfc5" offset="90%"></stop>
    </radialGradient>
    <radialGradient id="16282281824-posters-1720553845194-radial-light" gradientUnits="userSpaceOnUse">
      <stop stop-color="#9b9997" offset="0%"></stop>
      <stop stop-color="#9c9a96" offset="15%"></stop>
      <stop stop-color="#9b9997" offset="30%"></stop>
      <stop stop-color="#9b9a97" offset="45%"></stop>
      <stop stop-color="#9b9a97" offset="60%"></stop>
      <stop stop-color="#9c9a96" offset="75%"></stop>
      <stop stop-color="#9b9a97" offset="90%"></stop>
    </radialGradient>
    <radialGradient id="16282281824-posters-1720553845194-radial-regular" gradientUnits="userSpaceOnUse">
      <stop stop-color="#82807d" offset="0%"></stop>
      <stop stop-color="#83817c" offset="15%"></stop>
      <stop stop-color="#82807d" offset="30%"></stop>
      <stop stop-color="#82817d" offset="45%"></stop>
      <stop stop-color="#82817d" offset="60%"></stop>
      <stop stop-color="#83817c" offset="75%"></stop>
      <stop stop-color="#82817d" offset="90%"></stop>
    </radialGradient>
    <radialGradient id="16282281824-posters-1720553845194-radial-medium" gradientUnits="userSpaceOnUse">
      <stop stop-color="#514f4d" offset="0%"></stop>
      <stop stop-color="#51504d" offset="15%"></stop>
      <stop stop-color="#514f4d" offset="30%"></stop>
      <stop stop-color="#51504d" offset="45%"></stop>
      <stop stop-color="#51504d" offset="60%"></stop>
      <stop stop-color="#51504d" offset="75%"></stop>
      <stop stop-color="#51504d" offset="90%"></stop>
    </radialGradient>
    <radialGradient id="16282281824-posters-1720553845194-radial-bold" gradientUnits="userSpaceOnUse">
      <stop stop-color="#2f2e2d" offset="0%"></stop>
      <stop stop-color="#2f2e2d" offset="15%"></stop>
      <stop stop-color="#2f2e2d" offset="30%"></stop>
      <stop stop-color="#2f2e2d" offset="45%"></stop>
      <stop stop-color="#2f2e2d" offset="60%"></stop>
      <stop stop-color="#2f2e2d" offset="75%"></stop>
      <stop stop-color="#2f2e2d" offset="90%"></stop>
    </radialGradient>
  </g>
  <g class="vertical">
    <linearGradient id="16282281824-posters-1720553845194-vertical" gradientUnits="userSpaceOnUse" x1="0" x2="0" y1="0"
      y2="100%">
      <stop itemprop="vertical" stop-color="#cdcccb" offset="0%"></stop>
      <stop itemprop="vertical" stop-color="#d2d1d0" offset="15%"></stop>
      <stop itemprop="vertical" stop-color="#d0cfcd" offset="30%"></stop>
      <stop itemprop="vertical" stop-color="#d0cfce" offset="45%"></stop>
      <stop itemprop="vertical" stop-color="#cdcccb" offset="60%"></stop>
      <stop itemprop="vertical" stop-color="#d2d1d0" offset="75%"></stop>
      <stop itemprop="vertical" stop-color="#cbcac8" offset="90%"></stop>
    </linearGradient>
    <linearGradient id="16282281824-posters-1720553845194-vertical-background" gradientUnits="userSpaceOnUse" x1="0"
      x2="0" y1="0" y2="100%">
      <stop stop-color="#cdcccb" offset="0%"></stop>
      <stop stop-color="#cdcccb" offset="15%"></stop>
      <stop stop-color="#ceccca" offset="30%"></stop>
      <stop stop-color="#cdcccb" offset="45%"></stop>
      <stop stop-color="#cdcccb" offset="60%"></stop>
      <stop stop-color="#cdcccb" offset="75%"></stop>
      <stop stop-color="#cdcccb" offset="90%"></stop>
    </linearGradient>
    <linearGradient id="16282281824-posters-1720553845194-vertical-light" gradientUnits="userSpaceOnUse" x1="0" x2="0"
      y1="0" y2="100%">
      <stop stop-color="#ae9d84" offset="0%"></stop>
      <stop stop-color="#aea284" offset="15%"></stop>
      <stop stop-color="#ae9f84" offset="30%"></stop>
      <stop stop-color="#ae9d84" offset="45%"></stop>
      <stop stop-color="#aea284" offset="60%"></stop>
      <stop stop-color="#aea284" offset="75%"></stop>
      <stop stop-color="#aea284" offset="90%"></stop>
    </linearGradient>
    <linearGradient id="16282281824-posters-1720553845194-vertical-regular" gradientUnits="userSpaceOnUse" x1="0" x2="0"
      y1="0" y2="100%">
      <stop stop-color="#82807d" offset="0%"></stop>
      <stop stop-color="#82817d" offset="15%"></stop>
      <stop stop-color="#83817c" offset="30%"></stop>
      <stop stop-color="#82807d" offset="45%"></stop>
      <stop stop-color="#82817d" offset="60%"></stop>
      <stop stop-color="#82817d" offset="75%"></stop>
      <stop stop-color="#82817d" offset="90%"></stop>
    </linearGradient>
    <linearGradient id="16282281824-posters-1720553845194-vertical-medium" gradientUnits="userSpaceOnUse" x1="0" x2="0"
      y1="0" y2="100%">
      <stop stop-color="#514f4d" offset="0%"></stop>
      <stop stop-color="#51504d" offset="15%"></stop>
      <stop stop-color="#51504d" offset="30%"></stop>
      <stop stop-color="#514f4d" offset="45%"></stop>
      <stop stop-color="#51504d" offset="60%"></stop>
      <stop stop-color="#51504d" offset="75%"></stop>
      <stop stop-color="#51504d" offset="90%"></stop>
    </linearGradient>
    <linearGradient id="16282281824-posters-1720553845194-vertical-bold" x1="0" x2="0" y1="0" y2="100%">
      <stop stop-color="#2f2e2d" offset="0%"></stop>
      <stop stop-color="#2f2e2d" offset="15%"></stop>
      <stop stop-color="#2f2e2d" offset="30%"></stop>
      <stop stop-color="#2f2e2d" offset="45%"></stop>
      <stop stop-color="#2f2e2d" offset="60%"></stop>
      <stop stop-color="#2f2e2d" offset="75%"></stop>
      <stop stop-color="#2f2e2d" offset="90%"></stop>
    </linearGradient>
  </g>
  <g class="horizontal">
    <linearGradient id="16282281824-posters-1720553845194-horizontal" x1="0" x2="100%" y1="0" y2="0"
      gradientUnits="userSpaceOnUse">
      <stop itemprop="horizontal" stop-color="#d0cfce" offset="0%"></stop>
      <stop itemprop="horizontal" stop-color="#d0cfce" offset="15%"></stop>
      <stop itemprop="horizontal" stop-color="#d0cfce" offset="30%"></stop>
      <stop itemprop="horizontal" stop-color="#d2d1d0" offset="45%"></stop>
      <stop itemprop="horizontal" stop-color="#cdcccb" offset="60%"></stop>
      <stop itemprop="horizontal" stop-color="#cdcccb" offset="75%"></stop>
      <stop itemprop="horizontal" stop-color="#d0cfce" offset="90%"></stop>
    </linearGradient>
    <linearGradient id="16282281824-posters-1720553845194-horizontal-background" gradientUnits="userSpaceOnUse" x1="0"
      x2="100%" y1="0" y2="0">
      <stop stop-color="#cdcccb" offset="0%"></stop>
      <stop stop-color="#cdcccb" offset="15%"></stop>
      <stop stop-color="#cdcccb" offset="30%"></stop>
      <stop stop-color="#cdcccb" offset="45%"></stop>
      <stop stop-color="#cdcccb" offset="60%"></stop>
      <stop stop-color="#cdcccb" offset="75%"></stop>
      <stop stop-color="#cdcccb" offset="90%"></stop>
    </linearGradient>
    <linearGradient id="16282281824-posters-1720553845194-horizontal-light" gradientUnits="userSpaceOnUse" x1="0"
      x2="100%" y1="0" y2="0">
      <stop stop-color="#9b9a97" offset="0%"></stop>
      <stop stop-color="#9b9a97" offset="15%"></stop>
      <stop stop-color="#9b9997" offset="30%"></stop>
      <stop stop-color="#9b9997" offset="45%"></stop>
      <stop stop-color="#9b9a97" offset="60%"></stop>
      <stop stop-color="#9b9997" offset="75%"></stop>
      <stop stop-color="#9b9a97" offset="90%"></stop>
    </linearGradient>
    <linearGradient id="16282281824-posters-1720553845194-horizontal-regular" gradientUnits="userSpaceOnUse" x1="0"
      x2="100%" y1="0" y2="0">
      <stop stop-color="#968969" offset="0%"></stop>
      <stop stop-color="#968969" offset="15%"></stop>
      <stop stop-color="#968469" offset="30%"></stop>
      <stop stop-color="#968469" offset="45%"></stop>
      <stop stop-color="#968969" offset="60%"></stop>
      <stop stop-color="#968469" offset="75%"></stop>
      <stop stop-color="#968969" offset="90%"></stop>
    </linearGradient>
    <linearGradient id="16282281824-posters-1720553845194-horizontal-medium" gradientUnits="userSpaceOnUse" x1="0"
      x2="100%" y1="0" y2="0">
      <stop stop-color="#5d5541" offset="0%"></stop>
      <stop stop-color="#5d5541" offset="15%"></stop>
      <stop stop-color="#5d5241" offset="30%"></stop>
      <stop stop-color="#5d5241" offset="45%"></stop>
      <stop stop-color="#5d5541" offset="60%"></stop>
      <stop stop-color="#5d5241" offset="75%"></stop>
      <stop stop-color="#5d5541" offset="90%"></stop>
    </linearGradient>
    <linearGradient id="16282281824-posters-1720553845194-horizontal-bold" gradientUnits="userSpaceOnUse" x1="0"
      x2="100%" y1="0" y2="0">
      <stop stop-color="#2f2e2d" offset="0%"></stop>
      <stop stop-color="#2f2e2d" offset="15%"></stop>
      <stop stop-color="#2f2e2d" offset="30%"></stop>
      <stop stop-color="#2f2e2d" offset="45%"></stop>
      <stop stop-color="#2f2e2d" offset="60%"></stop>
      <stop stop-color="#2f2e2d" offset="75%"></stop>
      <stop stop-color="#2f2e2d" offset="90%"></stop>
    </linearGradient>
  </g>
  <g class="masks">
    <mask id="16282281824-posters-1720553845194-pattern-mask" maskUnits="userSpaceOnUse"
      maskContentUnits="userSpaceOnUse">
      <pattern id="pattern" x="0" y="0" width=".0133" height=".0144" viewBox="0 0 23.07 40">
        <path
          d="M17.62 0l-6.07 10.5m2.74 4.76L8.22 4.75m-5.48 0h12.13M.01 0h23.07M6.07 20L0 9.5m2.74-4.75l-6.07 10.5m-5.48 0H3.33m8.2 4.75L0 .02-11.54 20m40.68 0L23.07 9.5m2.74-4.75l-6.06 10.5m-5.49 0H26.4M34.6 20L23.08.02 11.53 20m-5.46 0L0 30.51m2.74 4.75l-6.07-10.5m-5.48 0H3.33m8.2-4.75L0 40l-11.54-19.98zM17.6 40l-6.06-10.5m2.74-4.76L8.2 35.25m-5.48 0h12.13M0 40h23.07L11.54 20.01m17.6 0l-6.07 10.5m2.74 4.75l-6.06-10.5m-5.49 0H26.4M11.53 20h23.08L23.07 40"
          stroke-linecap="round" stroke-width="3.5" stroke="white"
          fill="url(#16282281824-posters-1720553845194-horizontal-background)"></path>
      </pattern>
      <rect width="100%" height="100%" fill="url(#pattern)"></rect>
    </mask>
    <mask id="16282281824-posters-1720553845194-horizontal-mask" maskUnits="userSpaceOnUse"
      maskContentUnits="userSpaceOnUse">
      <rect width="100%" height="100%" fill="url(#16282281824-posters-1720553845194-horizontal-background)"></rect>
    </mask>
    <mask id="16282281824-posters-1720553845194-radial-mask" maskUnits="userSpaceOnUse"
      maskContentUnits="userSpaceOnUse">
      <rect width="100%" height="100%" fill="url(#16282281824-posters-1720553845194-radial-background)"></rect>
    </mask>
    <mask id="16282281824-posters-1720553845194-vertical-mask" maskUnits="userSpaceOnUse"
      maskContentUnits="userSpaceOnUse">
      <rect width="100%" height="100%" fill="url(#16282281824-posters-1720553845194-vertical-background)"></rect>
    </mask>
  </g>
  <use href="#16282281824-posters-1720553845194-pattern-render"></use>
  <g>
    <use href="#16282281824-posters-1720553845194-background"></use>
    <use href="#16282281824-posters-1720553845194-light"></use>
    <use href="#16282281824-posters-1720553845194-regular"></use>
    <use href="#16282281824-posters-1720553845194-medium"></use>
    <use href="#16282281824-posters-1720553845194-bold"></use>
  </g>
  <g itemprop="animation">
    <animate href="#16282281824-posters-1720553845194-light" attributeName="stroke-opacity" repeatCount="indefinite"
      dur="5s" values="0.9;0.0;0.9"></animate>
    <animate href="#16282281824-posters-1720553845194-regular" attributeName="stroke-opacity" repeatCount="indefinite"
      dur="4s" values="0.9;0;0.9"></animate>
    <animate href="#16282281824-posters-1720553845194-medium" attributeName="stroke-opacity" repeatCount="indefinite"
      dur="5s" values="0.9;0;0.9"></animate>
    <animate href="#16282281824-posters-1720553845194-bold" attributeName="stroke-opacity" repeatCount="indefinite"
      dur="3s" values="0.9;0;0.9"></animate>
    <animate href="#16282281824-posters-1720553845194-regular" attributeName="fill-opacity" repeatCount="indefinite"
      dur="8s" values="0.9;0.75;0.95;0.8;0.9;"></animate>
    <animate href="#16282281824-posters-1720553845194-radial-background" attributeName="cx" repeatCount="indefinite"
      dur="34s" values="0%;33%;100%;0%;100%;0%;"></animate>
    <animate href="#16282281824-posters-1720553845194-radial-background" attributeName="cy" repeatCount="indefinite"
      dur="55s" values="0%;100%;33%;100%;66%;0%"></animate>
    <animate href="#16282281824-posters-1720553845194-vertical-light" attributeName="x1" repeatCount="indefinite"
      dur="55s" values="0%;33%;100%;0%;133%;0%;"></animate>
    <animate href="#16282281824-posters-1720553845194-vertical-light" attributeName="y1" repeatCount="indefinite"
      dur="86s" values="0%;100%;33%;100%;66%;0%"></animate>
    <animate href="#16282281824-posters-1720553845194-horizontal-regular" attributeName="x1" repeatCount="indefinite"
      dur="34s" values="0%;100%;66%;0%;33%;133%;0%"></animate>
    <animate href="#16282281824-posters-1720553845194-horizontal-regular" attributeName="y1" repeatCount="indefinite"
      dur="55s" values="0%;66%;100%;33%;100%;66%;0%"></animate>
    <animate href="#16282281824-posters-1720553845194-vertical-medium" attributeName="x1" repeatCount="indefinite"
      dur="34s" values="0%;100%;66%;0%;33%;133%;0%"></animate>
    <animate href="#16282281824-posters-1720553845194-vertical-medium" attributeName="y1" repeatCount="indefinite"
      dur="55s" values="0%;66%;100%;33%;100%;66%;0%"></animate>
    <animate href="#16282281824-posters-1720553845194-vertical-bold" attributeName="x1" repeatCount="indefinite"
      dur="34s" values="0%;100%;66%;0%;33%;133%;0%"></animate>
    <animate href="#16282281824-posters-1720553845194-vertical-bold" attributeName="y1" repeatCount="indefinite"
      dur="55s" values="0%;66%;100%;33%;100%;66%;0%"></animate>
  </g>
</svg>
