<svg id="16282281824-posters-1720553944829" itemscope="" itemtype="/posters"
  itemid="/+16282281824/posters/1720553944829" viewBox="0 0 769 512" preserveAspectRatio="xMidYMid meet" tabindex="0"
  class="animate landscape" xmlns="http://www.w3.org/2000/svg">
  <!---->
  <defs class="graphic">
    <pattern id="16282281824-posters-1720553944829-pattern" width="769" height="512" viewBox="0 0 769 512"
      patternUnits="userSpaceOnUse" preserveAspectRatio="xMidYMid meet">
      <rect itemprop="background" width="769" height="512" tabindex="-1"
        id="16282281824-posters-1720553944829-background" fill-opacity="1"
        fill="url(#16282281824-posters-1720553944829-radial-background)"></rect>
      <!---->
      <path id="16282281824-posters-1720553944829-light"
        d="m0 4 1 6 21 20c1 0 10 10 13 15l20 20 2 3 15 17 5 4c10 9 14 7 36-18l9-11 8-9 9-10 8-9 7-10c15-18 20-19 32-7l11 10 12 13 19 21 18 19c17 18 22 19 34 7l27-30 18-21 9-10 11-13c12-13 15-12 27 3l17 18 13 14 30 30c8 4 10 4 16-5l7-10 27-29 10-11 16-21h-15l-12 12-20 23-9 10q-13 14-17 13a379 379 0 0 1-50-52l-6-6h-43l-6 8-11 12-14 17-19 22c-15 17-18 19-23 16l-25-24-19-20-22-23-6-8h-35l-1 3-4 6-21 26-13 13-19 20c-11 12-13 12-29-5L40 32 19 9l-8-9H0zm24 0 12 13 15 16c21 23 28 29 33 29 7 0 10-3 32-26l3-4 20-24c7-8 7-8-2-8l-8 1-6 7-6 7-7 8-10 12q-9 12-16 11c-4 0-4 0-25-22L38 1l-9-1h-8zm27-3c0 1 19 19 24 22q11 8 17 3c6-4 24-23 24-25l-8-1h-8l-6 6c-8 8-11 8-21-1l-5-5h-9zm153 0 10 11 15 17q28 32 36 30c7-1 23-14 23-18l4-5 7-8 7-8 16-19-8-1-8 1-10 12-18 20q-7 11-13 11l-9-4-17-18-19-20c-1-2-16-3-16-1m28 0 6 7c21 24 24 24 43 6 14-15 14-14 3-14h-8l-3 4q-5 6-11 7c-3 0-11-5-13-8q0-4-9-3zm161 1 4 4 19 17c14 14 15 15 18 15q4 1 5-3c2-4 1-5-14-21L410 0h-18zm31-1 11 13c15 15 16 16 29 3l11-12q9-6-5-5c-9 0-10 0-12 3q-8 9-17-1c-3-3-17-3-17-1m92 6-11 13-8 9-4 5-28 32-13 13q-10 9-7 14 5 8 13 0l9-11 21-24 4-5 12-12 15-17 9-10q6-10 9-9 6-1 21 15l4 6q3 3 2 5c-3 5 2 10 5 6l2-2 8 8 33 35c15 17 24 17 38-2l22-26 11-13q5-6 7-6l1-2 2-3 4-5 11-12 7-9h-16l-5 6-14 15c-14 15-34 39-34 41l-9 9c-7 5-8 4-33-20l-36-40-9-10-19-1h-20zm56-6 5 7 11 12c8 9 25 27 31 31 12 10 16 9 29-6l13-15 19-22 5-7c0-1-16-2-16 0l-5 6-12 14c-18 20-19 20-22 20-4-1-8-4-23-20L591 5l-5-5h-7zm29 0 20 20q4 3 9 3c5 0 5 0 22-18q9-7-4-6c-8 0-9 0-12 3q-7 6-14 0c-4-3-4-3-12-3zm121 0 1 1 12 11q3 6 14 16l15 16q6 9 5 0V28v3l-3-3-11-11-11-12-4-5h-9zm33 0 7 8 7 7V0h-7zm-40 19c-3 1-25 23-29 28l-25 31-1 1q-3-1-14 15c-15 18-16 18-39-9l-14-14-4-4-12-13c-37-40-40-40-60-13l-8 9-7 8-11 12-5 7-3 4-7 7a143 143 0 0 1-26 27l-3 5c-6 7-6 15 1 15 4 0 5-1 17-14l66-76q8-9 12-6l2 2 25 25 13 13 25 28q12 15 21 18c5 1 8-1 20-15l14-16 33-39 11-12c6-7 6-8 9-9q4-3 14 8l28 28 8 10 3 3v-5l1-14q0-9-1-4v5l-4-3-7-10-7-7-8-7a76 76 0 0 0-21-19q-4-3-7 0m-361 2a127 127 0 0 0-29 30l-22 25-20 23q-10 12-14 12c-3 0-12-7-17-13l-16-17-19-21c-32-34-37-38-43-38q-8 0-14 9l-7 7-11 13-10 13-21 21-5 7-16 17c-4 2-8-1-25-17L47 73 28 52 15 38l-8-8-6-4v19l6 6 14 13c8 8 21 22 22 25l15 15 17 17c9 11 15 10 27-4l29-33 18-22c15-17 21-23 26-23 3 0 23 18 29 27l6 7 6 6 13 14c35 40 39 42 55 26l9-8 1-1 2-4 24-28c35-41 33-39 36-39 5 0 6 2 40 37l9 10 7 7 26 26a6 6 0 0 0 7-11l-17-18q-39-39-49-52-16-21-25-16m362 30q-7 3-13 13l-24 28-10 11-11 12-10 12c-3 6-5 8-13 15l-10 9c-8 7-12 4-38-26l-35-34c-10-7-12-7-24 7l-16 18-7 9-3 4-5 6c-5 3-14 14-14 15l-20 23-9 11c-5 6-14 15-16 15-2 1-4-1-16-13l-26-28c-1-3-24-26-29-29q-10-7-22 8l-15 18-11 12-23 26-19 22q-17 18-11 23 5 4 12-5l14-15 13-14q6-9 14-16l8-9q9-13 19-22l6-7c6-9 10-8 22 3l9 10 6 7 10 11 18 18q19 18 22 17c2 0 16-13 25-24l8-8 5-7 8-11 9-9 24-27 18-21c9-9 10-9 43 26 37 41 40 42 53 29l32-34 15-18 4-5 6-6q4-7 10-12l10-12q4-5 9-8l4-2 3 2 10 9 16 17q9 8 12 14 8 13 7-17v-7l-1 5v5l-6-7c-10-12-33-34-38-37q-6-3-9 0m-181 5-9 10-8 10-49 56-6 7c0 2-23 26-25 26-3 0-10-4-12-7l-35-36-8-9c-20-23-26-24-39-9l-13 13-14 16-12 13-7 9-4 4-7 8-10 12-9 10c-8 10-12 10-21 0l-10-9-11-12-15-15-6-7-8-8c-17-16-22-17-34-4l-20 23-15 17-9 11-10 11-10 12-9 11q-14 15-7 18t18-10l4-6 5-6 14-15 7-9 13-16 11-13 13-14c10-11 9-11 34 15 40 41 52 52 57 52q3 0 8-5l6-7 21-24 10-12 11-11 29-34c15-16 14-16 29 0l29 30 9 9 15 16q11 10 22-2l9-9 9-10 8-10 3-4 4-4 35-39 11-12 8-10q4-4 8-5c2 0 13 9 17 14l17 19 31 32q15 16 18 8c2-4-1-9-15-23l-24-26-15-15-17-18q-11-13-20-7m-363 1q-5 1-11 7l-33 38-8 8-9 11-5 6-13 15-10 11c-7 9-8 10-12 7l-20-21-10-10q-4-6-15-16L9 95l-7-7-1 9v9l6 6 9 9 4 4 4 5 11 13 21 23q11 13 20 13 3 2 11-9l9-11 15-17 10-12 7-8 20-23 13-15c10-13 14-14 23-6l6 6 9 9 17 19 9 9 21 21c6 7 7 8 11 9q8-1 6-7c-1-3-3-6-28-31l-19-20c-16-17-31-32-35-34q-6-3-9-1M1 67l1 9 9 7 8 9 5 6 43 45c4 3 11 0 11-4q0-5-13-17l-12-13c-7-8-42-45-47-48q-6-7-5 6m351-8-8 8-60 69c-8 9-23 25-25 25-5 2-9-1-31-25-42-46-48-50-59-42l-49 52-6 7-8 10-9 11-7 9q-12 16-19 10l-26-26-43-43q-2-1-2 9l1 9q4 1 12 11l25 26 13 14c22 26 25 26 41 8l8-10 10-12 21-25 4-5 11-12 14-15c16-19 17-19 32-3l13 12 10 10c15 17 31 32 39 36q8 4 18-8l6-6 7-8 11-12 10-11 19-22 9-11 9-12q11-13 16-12l4 2 17 17 21 22c6 8 26 28 29 30q7 5 11 0t-11-18l-12-13-7-8c-7-6-9-8-13-14-6-7-26-27-33-32q-7-5-13-2m359 32-20 24-7 9-9 10c-7 7-10 10-19 22l-16 16-14 15q-5 7-8 4l-2-2c-2 0-21-19-39-40-26-29-31-33-39-25a560 560 0 0 0-45 50l-28 32c-2 1-7 9-7 10l-6 7q-9 9-16 7c-2-1-31-29-50-51q-25-26-32-16l-6 6-9 12-15 16c-8 8-15 17-15 18l-13 15-8 10-6 6-14 15c-6 6-8 5-28-15l-20-20c-6-8-28-30-31-32-10-5-18 0-38 27l-7 8-9 10-25 28-21 25c-2 0-8 10-8 12l2 5q4 5 13-5l31-36 6-8 6-6 15-18 9-11c13-17 17-20 23-16l3 2 12 12 13 14 33 36q11 11 19 8a143 143 0 0 0 25-26l9-10 33-37 6-8 12-15q9-12 14-8c3 2 35 33 39 39l21 21 6 5q13 11 24-5l8-9 17-19 7-9 10-12 8-10 11-12 9-9 10-12c10-10 10-10 28 8l17 18 6 7c5 7 14 15 19 19l8 7q6 5 9 2l7-4 11-10 10-11 10-12 15-17 16-18 24-27q6-8 14 0l39 42 1-9v-9l-5-6-12-13-15-16c-12-13-17-14-26-5m5 30-3 3-3 2-3 3q-2 4-10 11l-12 15-12 14q-15 14-24 26l-13 14q-14 13-8 20c4 3 7 1 21-15l15-16 18-21 16-17 9-10q11-15 15-14c2 0 13 10 19 16 16 18 28 29 28 27v-18l-4-3c-13-14-32-33-37-36q-5-3-12-1m-1 34-29 32-15 17-7 8-10 11-16 19c-16 19-19 19-31 5l-55-55q-5-4-8-4c-3 0-9 3-9 4l-9 10a59 59 0 0 0-14 17l-4 6-5 5-4 4-5 7-12 14-32 37-2 4c-6 11 6 12 15 1l2-3 11-13 18-21 15-18 15-18 16-18 4-2 27 25 9 10 20 20c20 21 23 21 37 5l5-7 6-7 8-9 12-14 11-12 34-39c8-10 12-9 24 4q30 34 32 31v-17l-4-3c-6-8-27-29-34-35q-9-7-16-1m-174 4c-4 2-15 12-19 17l-20 22-19 24-5 6-10 11-14 15q-10 11-15 7c-4-1-33-29-40-38-6-7-24-25-29-28q-6-5-11 1l-4 2-9 10-7 8-17 20-7 9-9 9-24 27-16 19-2 2c-4 2-9-2-26-21l-13-14c-38-43-46-50-51-44-2 5 0 8 16 24l21 23 14 15 13 14c11 14 15 17 22 17q12-2 35-29l10-12 22-25 1-2 10-11c24-29 28-31 35-22l25 26 7 7 8 8c6 8 17 18 23 21q10 6 17-3l24-26 16-19 11-13 13-16 8-9c21-23 21-24 38-5l12 13 9 10 13 14 4 4 4 4 5 5c5 7 15 9 15 3 0-5-1-7-14-20l-27-28-15-17c-15-17-20-20-28-15m-365 2c-5 3-17 14-22 20l-9 12-27 33-13 15q-22 25-26 25c-3 0-13-8-20-17l-9-10-18-18c-18-20-18-19-24-23q-9-7-7 5c0 8 0 8 3 10l14 13c58 60 57 58 65 54a185 185 0 0 0 40-41l6-7 10-13 14-15 17-20c10-12 12-12 35 14l15 16 19 20q18 19 22 12c3-5 1-7-20-29l-24-24-24-25q-10-10-17-7M1 170c0 8 0 9 2 11l10 10 10 9c0 1 14 17 25 26l6 7c7 8 20 20 23 20q7 0 7-5c0-2-1-4-14-17l-42-45q-11-10-13-14c-2-3-9-8-12-9q-2-3-2 7m718 13-6 8a41 41 0 0 1-15 17l-13 17-14 15-4 5-1 1-2 1-6 8-6 7-6 6c-16 16-22 29-12 29q5 1 15-12l16-20 9-10q6-5 10-12l13-13 11-12c14-17 18-18 26-10l11 11 1 2c1 2 14 16 20 20l3 5v-17c-1-4-4-8-27-31l-8-8q-7-10-15-7m2 38q-4 1-9 8l-12 13-12 14-12 13-10 11-6 8-12 14-11 13q-10 9-8 13 4 14 30-21l18-19 35-41c13-15 11-15 25 0l22 22 10 11v-17q0-4-7-11l-12-13a61 61 0 0 0-18-17q-7-3-11-1m-183 4-4 3-3 5-10 12-4 4-8 9-7 9-32 37-10 10-7 9c-2 4-9 8-13 8-4-1-6-3-15-13l-30-31-3-5-4-5-4-5-4-5-6-5q-7-7-12-4-6 5 4 15l9 10 7 8 7 8c22 24 40 42 46 45q6 3 15-1l12-12 6-7 14-15c8-10 10-13 16-18l34-40c11-14 12-13 26 2l13 14 10 11 33 34 7 6c8 1 10-6 5-13l-29-30-9-11-11-10c-9-11-25-27-28-28q-7-3-11-1m-178 3-5 5-2 2-24 27-9 12-7 7-2 3-7 10-25 27q-13 17-19 12c-5-3-26-25-34-36l-11-11c-24-26-25-27-28-28q-5-2-8 2c-2 4-1 6 21 28l6 8 30 32 10 11 5 5c5 6 14 8 18 5 11-8 19-16 34-35l4-4 7-8 9-11 8-10 30-34q4-8 19 7l11 12 3 5 7 9 10 10c11 14 24 25 28 24 9-3 7-6-9-23q-27-28-28-31c-3-4-25-27-30-30q-7-5-12-2M1 240v8l5 4 5 6 11 11 10 11a130 130 0 0 0 23 24l11 10q7 7 11 7 5-1 4-7c0-2-15-18-23-25l-7-7-11-13-25-26c-2-3-11-10-13-10zm166 2c-3 1-13 11-19 18l-26 30-7 10-14 16-6 8c-3 5-14 14-18 14-2 0-11-8-19-18l-19-19-21-23q-8-10-15-12-2-3-2 8l1 9 11 10 17 16 8 10 7 7 15 15c15 14 21 16 27 9l9-8 13-16 53-62 4-5c2-1 9-11 9-13q-1-8-8-4m555 12-3 1-1 1-12 13-5 6-8 9q-10 8-14 15l-12 14-22 25c-6 9-14 17-15 17l-2 3c-4 8 4 13 11 7l25-29 10-12 24-27 19-22c6-10 10-9 24 8l19 19 9 11v-16c0-5 0-5-17-22-23-23-27-25-30-21m-184 6-9 9q-2 5-7 9l-9 10-11 13-16 18-21 23-7 9-12 11-4 1-8-6-10-9-25-27c-5-7-25-26-28-27q-9-3-8 6c0 3 4 7 17 20l17 19q1 4 10 11l16 16c19 19 22 19 36 4l12-13 10-11 10-13 18-21 13-14 14-15q8-13 15-2l15 15 25 27c7 9 25 25 27 25q6-1 7-7a222 222 0 0 0-34-39l-36-36q-10-8-17-6m-371 17q-4 1-9 9l-8 9-7 7q-3 6-9 11l-6 8-25 29-9 11c-3 4-12 11-15 11s-19-15-32-30L8 303q-8-8-7 5c0 8 0 8 3 9l16 16 49 50q11 9 19 3c4-3 21-22 25-28l9-11 11-12 15-18 4-5 9-9c9-12 13-11 22 1l16 17 16 17c6 8 20 24 27 29l7 7q11 13 23 9l20-20 8-10 12-14 1-1 4-6 14-16 5-6 8-10c14-15 16-19 12-23-4-2-6-1-14 8l-15 16-11 13q-5 9-24 27l-14 17c-9 12-12 13-19 8q-10-8-37-39l-26-28-19-21q-4-3-10-1m555 10q-4 5 6 14l13 14 11 10 10 12 5 6q3 5 3-8v-8l-8-9c-31-32-35-35-40-31m-188 13-19 21-5 5-4 5-4 5q-7 7-7 9l-6 6-8 11-15 15-13 14q-6 7-12 8c-4 0-15-9-21-17-5-6-29-33-39-42-14-13-17-14-25-3l-6 6-1 2-7 8-9 11-15 18-9 10-9 11-6 7-9 10-8 9q-7 10-14 10c-3-1-22-20-46-46l-15-16-22-25q-6-13-24 10l-8 9-7 8-6 8-8 9-26 29c-14 17-20 19-28 10l-29-31-23-26-13-14-7-7-1 9c0 11-1 10 16 27l17 19q14 18 27 29l7 6q10 10 22 7c5-1 19-15 25-24l6-6 7-10 22-24 10-11q9-11 13-11c2 0 28 24 28 27l6 7c6 5 8 8 20 22l6 7 10 10q15 16 28 13c2 0 10-8 17-16l10-11 7-8 38-46c11-14 22-25 26-25q6 1 16 14l16 17 17 18 10 9 6 6q6 3 15 2c4-1 17-14 24-22l8-11 39-44 6-7 7-8 4-5 4-3c6-5 7-4 31 22l13 14c11 13 28 29 31 30q7 3 9-5 1-3-6-8l-21-22-17-19-7-7c-25-26-29-28-39-19m174 0-7 9-8 9-5 5-8 8-18 22-7 6-4 6-5 5-15 17c-7 7-8 8-11 8s-10-4-13-8l-5-6c-47-50-51-54-58-54a111 111 0 0 0-27 27l-8 9-16 19-13 15-10 11-7 8c-16 21-19 21-41-2l-21-21-10-11-14-16c-10-10-12-11-16-9-7 4-4 8 20 33l14 14c9 11 36 38 38 38l2 1q3 5 11 5c6 0 11-5 31-27l9-11 11-13 12-14 8-9c26-32 29-33 38-24l23 23a206 206 0 0 0 39 37l6 1q7-1 22-18l18-22 15-17 5-7 12-13c16-18 19-20 22-25 7-10-1-17-9-9m-353 7c-3 0-14 12-14 15l-2 2-23 24-4 5-12 15-8 10-9 10-9 10q-5 10-17 0l-18-18-24-25-10-12c-7-8-25-27-29-28-6-4-10-1-22 14l-11 11-14 16c-19 25-43 50-48 50-2 0-28-24-28-26S3 327 2 327l-1 9v9l9 8 14 15 17 17 2 2c0 2 20 24 21 24l7 4q15 12 24 1l8-9 7-8c1-3 12-15 16-18l4-6 8-10 9-10 5-7 1-1c0-2 16-17 18-17 5-1 9 2 22 20l13 15 24 26c31 33 35 35 51 19l17-20 4-4 6-7 20-23 2-4 4-4 8-8 10-12q15-16 8-20l-3-2zm371 13q-6 3 5 14l8 9 18 20 8 9q4 7 4-5v-8l-5-5-7-10-25-24q-4-3-6 0m-18 15-4 5-7 7-14 17-4 5-16 19-6 7-24 27c-7 9-12 8-23-3l-9-9-37-38q-11-13-23-7c-6 3-16 13-21 22l-4 5-7 7-10 12-7 9-4 4-7 6-7 9-5 5-3 4-7 8c-9 13-16 11-33-8l-16-16-12-13-34-35c-7-6-9-6-18 2l-13 14-15 16-14 18-5 4-22 26q-9 13-16 8c-3-1-12-9-19-18l-10-11-13-14-35-38q-13-12-24 2l-9 9-18 22-8 9-15 16-11 13q-8 12-14 13-6 0-9-5l-7-6-6-6c-5-6-23-27-39-43l-11-14c-4-6-11-12-12-12l-1 9v10l5 5 7 8 5 5q2 0 3 3l10 11 11 12 20 22c22 22 29 22 45 2l9-11 13-15 6-7 8-9 10-11 8-10c10-14 15-14 25-2l24 27 19 20 14 16q15 18 25 16c4 0 21-17 28-26l8-10 18-21 1-1 4-5 9-11q17-19 21-20 5 0 39 39l17 18 17 17c0 2 12 10 16 11 5 1 16-6 24-16l7-9 9-10 8-9 17-20 8-9 16-19c14-18 13-18 33 5l46 45q5 5 12 6c4 0 4-1 16-13l29-33 18-21 17-20c16-18 18-23 11-26-4-1-4-2-8 3m14 13c-4 4-2 7 21 31l25 26c2 0 1-16-1-18l-4-5-33-33q-5-3-8-1m-14 23-12 12-9 11q-7 5-11 12l-24 27-12 13c0 3-11 13-14 14q-6 1-33-29c-15-17-39-41-42-42q-6 0-8 3c-1 4 4 11 27 33 7 8 15 16 16 19l16 17q24 24 36 8l7-8 3-4 4-4 15-18 7-7 21-24 10-13c8-8 10-8 16-1l12 12 12 12 11 13 9 10q5 9 5-7l-1-10c-1 1-10-9-22-22l-25-24q-8-6-14-3m-13 48-18 20-11 14c0 1-8 10-16 17l-8 10q-11 14-18 13c-3-1-11-9-34-32l-20-20-8-9c-6-8-21-22-24-23a12 12 0 0 0-10 3l-10 10-61 70q-4 9-13 7c-4-1-5-2-23-21l-14-15-11-12-16-17-11-11h-4q-7 1-4 9a95 95 0 0 0 19 20l6 8 11 12q13 16 34 35l6 5h19l6-7 8-8 5-6 6-8 7-8 17-20 5-5 12-14c9-9 11-11 15-9q6 3 33 32c38 40 43 45 49 48q7 6 13 1c5-3 17-15 26-26l10-12 10-11 11-13 3-4c3-6 18-20 21-20l9 8c11 13 46 47 47 47l1-12q0-10-1-9v3l-6-7c-19-21-42-43-47-46s-6-2-21 13m-343-7c-4 1-26 24-26 25 0 2-8 11-11 14-3 1-11 11-12 13l-3 4-12 14-13 16q-14 15-2 14c6 0 9-2 19-15l8-9 9-11 10-11 6-8 11-13 19-20q7-9 3-13-3-3-6 0m-184 8-8 7-8 9q-12 12-19 23l-20 23-6 7-6 7c-12 15-15 15-34-4l-41-44-11-12-8-9-6-6v21l11 11 29 30 20 23 6 6h37l8-9 24-26 6-9 6-7 12-13q9-11 15-11c2 1 10 8 15 15l10 11 12 13 16 17 14 15 4 4h18l-16-17-22-23-14-15q-35-42-44-37m538 21-24 28-9 11-10 11-11 12-7 9h17l6-7 17-18 7-9c5-7 18-22 22-25q11-14-1-15-4 0-7 3m-171-1-9 7-7 8-16 18-4 5-10 11-9 10-2 3-5 5-4 5h9q10 1 10-2l7-9 16-18 20-21q7-9 7-3l11 14 30 32c6 7 6 7 17 7h10l-4-3-12-14-34-35q-6-7-11-8-5 0-3-5 0-4-2-6-2-3-5-1m-188 11-10 11-9 9-6 7-2 2q0 3-2 3l-4 5-18 21q-5 4 5 3h8l11-11 15-17 15-17q12-13 9-17-4-7-12 1m372 4-2 5q1 4-8 12l-6 8-12 13-13 16-3 3h8c9 0 8 1 18-10l9-11 9-11q6-10 11-5l31 30 7 7 2-23q-1-5-1 1v4l-11-11c-29-31-35-35-39-28m-550 0-6 6-14 15-9 11-5 6-11 12-6 7h9c8 0 9 0 11-3l8-9 11-12a35 35 0 0 1 16-15q2-6 35 31l7 8h9l8-1-16-17-12-13c-21-24-28-29-35-26M1 464v9l8 8 12 14 8 9 5 6q0 3 10 2h9l-4-5-16-19-6-6-6-8-5-5-8-7-7-7zm364-4q-3 2 0 8l18 21c9 8 11 10 18 19l3 4h9l9-1-28-31-17-17q-7-8-12-3m168 18c-4 2-32 31-33 33l9 1h10l5-7q8-12 13-12c4 0 4 0 17 14l5 5h18l-7-8c-25-26-31-30-37-26m-182 6-23 23-4 5h18l6-6c8-10 11-10 19 0l7 6h17l-6-7-6-7-9-9q-12-13-19-5m371 4q-6 3 8 17l6 7h18l-10-11c-14-15-18-17-22-13M1 495c0 7 0 8 4 11l4 5 9 1q10 1 7-2c-1-3-22-23-23-23zm169-4c-5 3-8 5-16 15l-5 6h8q10 0 10-2 9-9 15 0c2 2 19 3 19 1l-9-10c-11-12-15-13-22-10m538 18q-5 3 5 3 10 1 6-3-3-4-11 0"
        mask="url(#16282281824-posters-1720553944829-horizontal-mask)" itemprop="light" fill-opacity="0.90"
        fill-rule="evenodd" stroke="none" fill="url(#16282281824-posters-1720553944829-vertical-light)"></path>
      <!---->
      <path id="16282281824-posters-1720553944829-regular"
        d="M0 4c0 4 1 5 14 17 14 14 19 19 22 24l12 13 15 16q15 18 23 19c6 0 8-2 26-21l18-22 8-9 8-9c7-10 18-22 23-25q6-5 21 10l21 22c4 6 26 29 40 43 15 15 18 14 32-1l38-43 33-36q8-3 17 9c11 14 59 63 64 65q6 5 12-6l10-11 9-9 9-11 11-12 11-13c12-15 12-14 3-14h-7l-5 5-11 12-9 10c-4 6-23 27-26 29q-7 5-14-2L385 8l-7-8h-41l-5 6-11 12-9 11-37 43c-8 8-11 7-29-12l-28-29-22-23-5-8h-34l-3 5-11 14-11 14-14 16-19 19c-12 13-12 13-31-6L15 6Q9-1 5 0H0zm25 0 6 7 5 4 6 6 28 31c12 12 18 12 31-1l25-29 10-11 9-11h-7l-8 1-5 5-6 8-10 10-10 11c-11 15-15 15-30 1L47 13 35 0H22zm36 6c17 17 24 20 32 14 5-3 17-16 21-21l2-3h-16l-4 5Q85 20 73 6l-5-6H51zm144-9 13 15 11 11c8 10 26 28 29 30 7 3 20-3 28-14l19-23 16-19-7-1q-8 0-8 2l-10 12-16 18c-14 18-15 18-35-3L224 7l-7-7h-6zm28 0 4 5 10 11q10 13 21 7l22-21 2-3h-15l-3 4q-10 14-23 1c-5-5-5-5-12-5zm161 1 4 4c3 1 4 2 14 13q19 20 22 18 5 1 5-5l-11-13-15-15-3-4h-8q-11 0-8 2m31 0 11 13c15 15 15 15 36-7l6-8h-17l-4 4q-8 8-15 0c-4-4-5-4-11-4q-9 0-6 2m95 0-4 6-10 12-15 18-13 15c-32 32-35 35-32 40 4 7 8 4 31-23l49-55c13-16 15-15 34 7l6 7-2 3v5q4 2 5-1 0-5 10 6 39 42 46 46 11 8 25-13l20-23 10-13 11-12c3-4 10-13 17-19l6-7-7-1h-7l-4 5-14 15-32 38q-13 17-19 16c-4 0-5 0-26-22q-30-30-43-46l-4-6h-19c-16 0-18 0-19 2m52-1c1 4 40 44 49 52 11 8 17 5 44-29l13-14c9-10 9-10 0-10h-7l-5 6-11 12-13 15c-12 14-10 15-51-27l-6-6h-6zm30 0 10 11c16 16 18 16 32 1 13-14 13-13 3-13l-9 1q-1 4-7 6c-3 0-12-4-12-6l-8-1zm125 3 8 10 12 12 15 16 7 8V28l-1 3c-1 0-24-24-26-28l-2-3h-17zm34 3 7 7q1 1 1-6V0h-14zm-46 13c-4 2-29 28-38 40l-20 23-13 14q-11 15-17 11l-18-18-13-14-19-20c-35-38-38-39-53-22l-22 26-21 24-8 10-14 15q-21 21-15 26c4 4 10-1 26-20l22-25 18-21 5-5 12-14c13-13 13-14 23-5l18 19 15 16q18 18 24 27l9 9c14 13 17 13 32-5l15-17 32-37 12-13c10-13 13-13 21-3l18 19 22 22q2 0 2-17 0-11-1-3v5l-4-3-8-11-7-7-7-7a84 84 0 0 0-20-18q-5-3-8-1m-362 4-11 9-19 22-16 19-24 27q-9 12-13 12-7-2-22-17c-26-29-62-67-67-70q-10-7-21 6l-7 8-12 15-8 9-15 17-13 13c-17 22-17 22-40 0L47 75c-3-7-36-41-43-46l-3-2v17l5 5 13 13c8 7 21 21 27 29l8 9 15 14c16 18 20 18 32 3l10-12 14-16 24-28c16-19 22-24 27-23 3 1 29 26 29 28q0 2 8 9l23 26 23 21c10 9 13 8 25-3l15-17 20-23c38-46 38-46 49-34l36 39 20 21q12 13 15 13 7 1 7-5c0-4-1-5-20-24l-47-50q-16-22-26-15m362 29q-6 3-11 12l-26 30c-14 15-27 29-30 35-5 7-24 25-29 26-4 2-11-5-46-43l-23-22c-8-5-11-4-21 7l-9 12-16 18-10 11-10 12-22 25q-5 4-8 10c-5 7-14 15-17 15s-30-27-42-43l-14-15c-18-18-24-19-34-6l-17 20-11 13-15 18-6 6-10 10-8 10c-14 15-17 19-15 23 4 5 7 3 21-12l8-9 11-12 13-15 9-10c12-17 30-35 34-35s22 17 38 37l19 19c20 19 22 19 30 9l4-4 5-4 9-11 10-13 8-10 5-5 16-18 9-10c25-29 27-31 32-29q4 0 34 32c30 32 32 34 40 34 5 0 5 0 11-6a494 494 0 0 0 43-48l12-12 15-18 9-11c9-11 13-11 26 3l15 16 13 14 5 6v-6l1-14q0-11-1-3v5l-7-8c-11-13-31-33-36-36q-8-4-11 0m-179 5-9 10-15 16-12 14-11 12-10 12-10 11-6 7c0 2-11 14-18 21-9 9-11 8-31-13l-38-40q-12-14-18-12-7 1-11 6l-14 15-37 43-7 8-12 13-9 9c-3 5-10 9-13 9l-9-8-29-31c-33-35-39-39-50-29l-26 31-9 10-11 13-9 11c-10 10-29 33-30 35q-1 10 9 5c3-2 14-14 18-20l14-16q5-4 9-11l11-12 13-15c22-27 19-27 45 0 55 56 57 58 65 48l10-10 25-28 25-29c26-30 30-34 35-32 2 0 20 18 28 27l25 27c24 24 23 24 50-7l10-12 11-13 17-18 13-14c12-16 24-28 28-28s14 8 19 16l12 12 17 18 15 16q18 19 20 10c1-5-2-8-16-22-7-7-17-17-20-22l-44-44q-5-2-10 1m-369 3q-8 5-25 27l-28 31-8 11-11 12-13 14c-6 9-8 9-17 0l-14-15-10-12-13-13-18-19-9-9v18l5 5 10 9 5 5 3 4 20 23 13 14q17 18 24 10l18-21 47-55 12-14c10-12 14-15 20-14 3 1 27 25 37 37q7 9 19 20l11 12q12 13 15 9c5-4 3-7-11-22l-20-20-10-11c-15-16-34-35-38-37q-7-5-14 1M1 67l1 8c2 0 17 16 24 25l24 25c17 18 18 18 22 18q13-1-6-18l-11-13L6 61q-6-6-5 6m352-7-14 13-49 57-25 28c-7 7-9 7-17-1l-10-10-11-12-24-24c-25-25-26-26-46-4l-31 34-11 12-9 11-9 11-9 11q-8 11-14 10c-3-1-19-16-29-28L2 125q-2-1-2 8v8l4 2 10 10 16 18 20 21c21 23 27 26 36 14l17-20 23-26 8-10c0-2 20-23 34-37 10-10 9-10 28 9l16 15 6 7 13 13 10 9c17 16 20 16 38-5l25-29 12-14 19-21 9-11c13-16 12-17 34 6 10 9 20 20 22 23l29 30q7 6 11 1t-8-15l-12-14-11-11-12-13c-9-11-23-24-30-30q-8-6-14-3m358 32-22 27-15 17-16 17-18 20-13 14c-5 7-6 7-14 0-8-6-30-29-43-45-15-18-22-22-28-20-3 2-31 30-39 41l-9 10-19 22-8 10-7 9c-5 8-8 10-13 14-9 6-11 5-37-23-45-47-50-50-57-40l-5 6-9 11-15 16-12 13c-5 8-21 27-32 38l-10 11q-5 6-11 4c-3-1-18-15-36-35-38-41-40-42-54-29l-18 21-4 6-25 28-13 15-11 13-7 8q-13 13-7 17 3 5 10-3l38-45 7-7 27-33q11-14 17-14 2 0 9 8l10 9 10 11 17 18q8 11 17 18 13 15 21 10c3-2 15-14 21-22l10-12 25-28 5-6 3-4 7-7c5-8 19-23 22-24l5-1c2 1 40 39 42 43 2 3 17 17 23 21q13 12 22 0l29-34 15-17 7-8 12-15 18-19c11-12 13-12 18-7l20 21 21 23 5 5 9 8 8 8c1 1 8 2 8 0l6-4c6-3 23-21 33-34l12-14 32-35 10-11q5-7 11-4l35 38c8 9 8 9 8-1 0-8 0-9-3-12l-32-34c-8-8-8-8-13-8q-4-1-10 6m7 29-11 10-10 11-14 16-8 9c-4 3-23 24-27 31l-12 12q-9 8-8 11-2 9 6 7c2 0 17-17 31-33l30-34 11-11c4-7 12-14 15-14q7 1 21 17c13 14 27 27 27 25v-16l-11-10-30-30q-5-2-10-1m0 32-12 13-39 43-10 12-18 21c-18 21-18 21-39-1-24-26-49-50-52-51q-6-3-11 1l-22 25-12 15-11 14-9 10-18 21-5 6q-7 7-12 15l-2 4 2 2c4 4 8 0 23-17l12-14 9-12 18-20 22-26 6-6c6-8 6-8 59 48 22 23 26 24 39 9l6-8 6-8 9-9 11-15 26-28c12-16 26-29 30-29q4 0 25 24c8 9 19 19 20 19l1-9-1-8-4-3-22-23c-15-15-20-18-25-15m-179 8c-5 3-15 12-18 16l-7 8-6 8-8 8-8 11-7 8-10 12-16 17c-13 15-16 16-23 12l-40-40c-5-8-23-24-27-26q-11-4-24 15l-3 4-19 22-9 10-8 9-23 26-14 15-7 7q-6-1-16-12l-26-30-20-21c-18-19-21-21-25-17-3 4-1 7 14 22 8 8 18 18 21 23l15 16 19 22q17 22 48-16l10-13 20-22 8-10 29-32q9-9 17 3l11 12 11 12 6 5 8 9q23 28 36 24a244 244 0 0 0 30-34l11-12 19-23c6-8 32-35 35-37q5-4 16 8c3 5 11 13 16 18l9 10c0 1 21 23 23 23l4 4c5 8 14 9 14 2q0-5-8-11l-15-15-37-40c-11-13-17-16-26-10m-364 1-19 19-10 11-18 22-38 45c-8 8-9 8-12 7-3 0-16-11-20-16l-12-13-20-22a66 66 0 0 0-24-19c-2 0-1 15 1 15l46 46c28 28 28 29 43 16l10-10 9-10 28-35 7-8 25-29c7-9 12-8 27 9l25 26 20 21q12 14 17 8c3-3 2-5-14-21l-49-52q-13-15-22-10M1 170v8l12 12c33 34 61 62 64 63q5 0 6-4c0-3-8-13-17-20l-8-9c-4-6-33-36-46-49-10-10-11-10-11-1m717 15-5 8q-3 6-15 16l-9 11-16 19-21 24-6 7q-20 20-15 26c4 3 12-4 35-32l19-22 14-15 14-16c11-12 14-12 30 6l18 19q7 7 8 10v-16c0-3-4-7-17-21l-21-22q-7-7-13-2m2 37-5 4-14 16-13 15-10 11-12 13-8 11-12 14-12 13q-10 11-1 12 5 1 22-19c3-5 13-16 22-25l27-31c19-23 18-23 21-21q4 1 13 12l20 21q10 9 11 12v-16q0-4-7-11l-17-18q-17-19-25-13m-181 4-9 8-6 7-3 4-3 4-7 7-6 8-6 7-10 11-13 16-10 12-13 14q-8 9-14 8c-5-2-55-56-55-60 0-1-14-13-17-14l-5 1q-6 3 4 13l13 16 22 23c18 20 33 34 38 34 9 0 20-9 43-37l22-25 29-34c10-13 11-13 32 10l8 8 7 9 35 36q11 10 13 1c0-5 0-5-22-29l-26-27c-29-32-33-35-41-31m-180 3-8 9-17 20-17 20-24 28-15 17c-9 11-12 13-17 11-3 0-24-21-33-33l-18-20-16-17q-9-10-14-4c-2 3 0 5 13 20l16 18q4 6 25 27l12 13q15 19 28 6l5-4 11-11 17-21 24-28 25-28c8-8 8-8 12-8 5 1 22 18 27 27 2 4 28 32 38 40 4 4 10 2 10-3q1-2-10-13l-31-33c0-3-29-32-32-33zM1 240c0 8-3 4 21 29l18 19 14 14 12 11q14 12 15 2c0-2-3-5-14-17-13-12-25-25-45-47-18-19-21-21-21-11m165 3c-4 2-14 13-23 24l-10 12-18 21-15 18-5 7q-9 12-17 13c-4 0-5-1-18-15l-26-27-17-18c-5-5-13-12-15-12l-1 8q0 9 2 9l12 11 16 15 8 9 7 8 14 14q15 14 19 13c3 0 9-3 9-4l6-7 14-15 28-34 11-12 24-29c6-8 2-14-5-9m551 16-8 8-6 7-11 12-11 12-14 16-20 23-15 17c-7 5-4 16 3 13 4-1 15-14 29-31l10-13 16-18q16-16 29-33c6-8 9-6 35 23l8 9q7 6 7 9 1 2 1-4c0-15 1-14-19-34-25-25-25-25-34-16m-180 3q-4 2-9 10l-7 8-9 10-12 14c-5 4-11 12-14 16l-14 16-11 13q-13 15-18 14-6 0-10-5l-12-13-18-19-32-31q-8-2-8 4c0 3 1 5 17 20l18 20 9 11 18 17c15 15 21 16 29 7l29-32 17-19 6-8 13-15q13-13 19-22l5-3c3 0 4 0 22 19 22 23 22 22 27 29l10 11c15 14 17 15 20 11 4-4 0-9-21-31l-20-21c-28-30-37-36-44-31m-375 20-10 11-10 12-6 7-5 6-4 6c-6 5-31 35-33 38-3 4-11 10-15 10q-7 0-31-28c-15-17-41-42-45-43q-2-2-2 7t2 8l18 16 45 47c2 4 11 9 15 9 5 0 13-8 34-33l26-30 7-8 17-20q7-7 15 3l20 21 14 14c0 4 38 43 44 46 10 5 14 3 29-14l14-16 10-12 25-30 12-14q13-14 8-17c-3-2-10 0-10 3l-19 22-10 11-24 28-16 18c-11 15-15 13-43-18l-16-18-11-12-13-14-16-18q-7-7-16 2m560 7q-3 5 6 11l9 10 12 13 13 13q9 12 8-1v-8l-10-10-18-18q-16-18-20-10m-189 13-7 8-25 27-6 8-7 8-8 10-10 12-16 15c-9 10-11 11-17 8q-7-3-29-28c-14-17-34-37-38-39q-6-4-15 8l-6 8-7 7-13 16-11 13q-4 3-7 8l-23 26-10 12c-3 5-11 11-14 11q-3 0-10-7l-74-80q-7-11-18 3l-10 11-10 12-7 8-11 13-13 14-10 11q-13 18-21 16c-4-1-3-1-21-20l-16-17-19-22-23-24-1 9v8l6 6 12 13 9 10c21 28 45 50 56 50 10 0 15-4 45-40 9-13 15-19 22-26l10-12c9-11 12-11 26 3l13 14 11 12 14 16 10 10 10 10q16 17 28 12l19-20 5-7 18-20q4-8 20-24l16-19c17-20 20-20 34-2l11 13 18 18q21 24 31 22c5 0 5 0 14-8l12-14 15-16 34-40 10-11c16-19 14-20 39 7 43 47 49 52 54 47q6-3-10-17l-20-22-16-17-12-12c-16-17-22-19-31-9m177-3-6 7-24 27-11 12-10 11-14 16-10 12c-14 15-16 15-29 2l-40-42q-13-15-20-16c-4 0-4 0-12 8l-25 28q-4 7-17 20l-9 10q-3 5-13 14l-7 9q-11 16-18 15c-7 0-9-2-22-15l-20-21-12-13-15-17q-12-13-16-7c-3 3-1 7 17 25l21 22 19 21c21 20 27 24 34 19 5-3 29-30 46-50l12-14 15-17 14-16q7-9 17 0l9 11 10 8 4 4c1 3 29 31 30 31l4 2q7 6 11 6c4 0 15-11 27-25l14-17 28-32c27-30 31-35 26-38q-4-4-8 0m-360 12-13 17-4 3-22 25-25 29-10 12c-8 11-15 9-33-11-5-7-23-25-30-33l-13-15-12-13c-16-15-17-15-35 5l-12 13-11 13-36 42-5 4c-8 8-14 4-41-27l-32-34-14-14-1 8v9l10 10 22 23 11 11 21 23 5 3q9 8 18 6 2 1 16-15l13-15 10-12 9-11 16-20 18-18q6-4 20 16c13 17 66 72 72 74 7 2 17-7 38-32l8-9 20-24 21-23q13-15 12-19-2-10-11-1m375 11q-2 3 5 11l14 15 12 13 8 8q6 10 5-2c0-7 0-7-5-12l-8-11q-25-30-31-22m-17 14-9 11-10 11-8 10-7 8-7 7-4 5q0 3-10 11l-16 18q-12 17-19 10l-52-52q-20-26-45 11l-5 7-20 23-8 9c-5 4-16 16-24 27-10 13-14 15-21 12-4-1-37-34-45-45-7-8-35-36-39-38q-6-4-27 20l-11 13-14 16-16 19-11 12-10 12q-8 6-25-15l-10-11-16-18-36-38c-9-8-14-7-27 8l-21 23-24 27-10 13q-14 19-21 12l-29-29-21-22-17-21-10-10-3-3v9q0 9 2 11l8 9 8 8 3 2 9 11 14 16a242 242 0 0 0 33 32q2 2 9 3 7 0 19-14 2-4 10-11l10-12 8-10 24-27c15-20 15-19 37 5l15 16 7 7 31 33q14 15 21 13c3-1 22-20 26-27l9-10c6-7 14-15 16-19l6-7 8-9 20-22c4-3 11 3 43 39l18 19 11 10c20 23 24 22 50-8l33-37 11-13 11-12c2-4 13-16 15-18 4-3 5-1 26 21 10 12 45 45 49 47q5 4 13-5l7-7 8-9 11-12 18-21 8-10 14-16c20-22 20-23 20-27q-2-10-11-1m15 13c-4 3-3 5 22 31l17 17 7 8v-16l-14-15c-28-29-28-29-32-25m-15 23q-7 4-13 13l-8 9-14 16-19 22-13 15q-12 16-21 12l-27-27c-14-16-38-40-41-42h-5c-7 3-2 10 23 35l17 19 12 12 10 10q17 18 33-2l13-15 10-12 15-17 15-17c7-9 16-19 19-19s42 40 51 52l4 3v-18l-11-10c-17-19-24-27-32-33-11-9-13-9-18-6m2 34c-4 2-33 33-40 43l-19 22-12 13c-11 12-14 12-28-2l-58-59c-17-18-21-18-38 2l-6 8-9 11-8 9-6 7-19 21-9 12q-7 19-31-8l-18-19-12-14c-17-20-32-32-36-28-3 4-1 8 14 23l17 18q16 20 36 38l10 9h17l9-10 13-15 12-14 15-17 7-8 9-9c14-17 14-17 27-5l15 15 46 49c14 14 20 14 32 3l21-23 7-9 19-22c9-12 23-26 26-26l9 8 18 20 16 15 13 13v-20 3l-6-6c-19-22-45-47-49-48zm-359 7c-5 3-25 24-25 26l-9 11-22 25-9 10-9 11q-15 15-4 16c5 0 6-1 17-14l9-10 5-6 10-13 11-13 13-13c14-15 19-20 20-23 3-6-1-11-7-7m-187 12-13 12-16 20-14 17-23 27c-10 12-14 10-39-17l-42-46-10-10-6-6v19l11 11 39 42 10 11 7 7h17l19-1 11-12 13-15 14-17 7-7 6-7c11-14 14-16 19-16q6 1 17 15l13 15 41 44 9 1h9l-16-16-21-23-14-15-21-24c-14-14-14-14-19-14q-5-1-8 5m546 14-17 19-43 48-4 5c0 2 16 1 17 0l8-10 23-27c3-4 9-12 14-16 11-12 13-15 9-18q-2-3-7-1m-178 3-20 22-14 15-11 13-6 7-2 3-6 6-3 4h16l10-12c23-28 40-45 41-45l1 3q0 4 29 33l16 17 3 4h18l-6-7-22-22c-26-29-28-31-32-31h-4l1-4q1-11-9-6m-182 7-6 6-8 9-18 21-6 7-10 12-8 8h14l11-11 22-24 16-20c5-8 0-13-7-8m370 5-2 6-6 10-9 11-10 11-12 13-5 7h7q9 1 10-3l16-18 9-10c6-9 7-9 11-8l33 32 6 7 1-21v4l-10-10q-30-33-36-33zm-555 6-15 16-13 16-10 11-8 9h16l8-9 10-11c7-10 16-19 17-19q2 1 2-1c2-4 9 2 37 32l7 8h8q11 1 3-5l-29-32c-19-21-25-24-33-15M1 464v8l8 8 21 24 5 5q0 4 9 3h8l-3-4-21-24-7-8-12-13-8-7zm366-4q-7 3 5 16l8 9 7 6 4 4 6 7 6 6 3 4h16l-13-15-19-20-10-11-7-7q-3-2-6 1m165 19-5 4-13 13-12 14-2 2h18l5-7c7-9 9-11 14-12h5l9 9 9 10h16l-7-7c-24-26-30-31-37-26m-181 5c-3 3-19 18-23 24l-3 4h16l7-7c9-9 10-9 20 0l7 7h15l-5-6-6-8-9-8q-12-13-19-6m371 4q-5 3 7 16l9 8h15l-12-13c-10-11-12-12-15-12zM1 495v7l5 5 5 5h7l7-1c0-1-21-23-23-23zm167-2-7 6-7 8-4 5h7c7 0 7 0 12-3q7-8 13 0c4 3 4 3 11 3h8l-9-10q-10-10-13-11c-5-1-5-1-11 2m541 16-3 3h14l-1-2q-4-5-10-1"
        mask="url(#16282281824-posters-1720553944829-radial-mask)" itemprop="regular" fill-opacity="0.90"
        fill-rule="evenodd" stroke="none" fill="url(#16282281824-posters-1720553944829-horizontal-regular)"></path>
      <!---->
      <path id="16282281824-posters-1720553944829-medium"
        d="M0 3c0 3 1 5 11 15l12 11 14 16 11 13q9 7 15 16c18 22 25 23 38 8l11-12c11-11 20-22 20-23l6-6 8-9c8-12 21-25 25-27q6-1 17 10l10 9 12 14 18 19 14 14q18 22 26 21c3 0 16-12 26-24l23-27 2-3 16-17c3-5 16-18 18-19q5-2-7-2h-9l-6 7-11 14-11 13-34 39q-8 7-15 2c-6-5-55-56-63-66l-7-9h-17c-15 0-16 0-17 2l-7 11-9 10c-14 19-47 54-51 54-5 2-9-1-29-23L37 30 11 3q-1-4-6-3-6-1-5 3m25 0 4 5 6 6 8 8 8 9 10 10c19 24 25 25 44 5l11-12 3-3 5-7 14-17 6-7h-12l-7 8-28 31q-9 10-15 8c-2 0-19-16-38-37L35 0H23zm28-2c1 3 20 20 24 22 7 4 9 4 14 2 4-2 24-22 24-24l-7-1h-7l-4 5Q85 22 72 5l-5-5h-8q-8 0-6 1m152 0 8 9 10 11 24 25c11 11 13 12 19 11q9-2 19-15l14-15 21-26-6-1c-6 0-6 0-8 3l-11 12-13 16c-15 19-17 19-35 1L218 1l-6-1zm29 0 2 3 8 9q12 16 23 11c3-2 24-21 24-23l-7-1q-8 0-8 2-14 18-27 2-2-5-9-4zm128 1 10 10 14 14 14 16c11 12 28 29 33 32q8 6 13-2l11-14 33-37 16-20h-13l-12 13-13 14c-4 6-23 27-26 29-7 4-8 4-26-15L382 6l-5-6h-18zm32 0 4 3 12 10c20 21 26 25 28 20 1-3 0-5-11-17L413 4c-4-4-4-4-11-4q-9 0-8 2m31-1 11 13c16 16 14 16 36-7q10-9-3-7c-8 0-8 0-11 4-7 6-10 6-17 0q-4-5-10-4zm94 2-3 6-11 13-12 14-34 37q-15 15-13 17 1 5 6 5c2 0 16-15 28-29l13-15 14-17 10-10 8-10c14-15 15-15 31 3 10 12 11 12 9 15q-3 4 1 5l3-2 1-2 17 17 11 12 10 10q17 20 27 17a36 36 0 0 0 15-15l2-2 6-8 6-7 8-8 8-10 7-8 9-11 12-13 6-7h-13l-11 12-21 24-16 19c-20 27-19 27-50-4L562 7l-5-7h-35zm54-2 13 15 10 12c10 12 30 28 35 28 6 0 6 0 31-29l12-14 10-12-6-1h-7l-4 5q-13 16-16 17l-4 5q-10 14-16 15c-6 0-14-8-40-36l-6-6h-6zm30 1 21 20c8 3 10 2 24-14 7-8 7-8-1-8q-7-1-10 3c-6 6-8 6-14 2l-5-4-8-1q-10 0-7 2m127 5 18 19q12 11 16 18l4 6 1-5V30l-1 3-11-12-15-17-3-4h-15zm26-7 7 7 6 7V0zm-56 35-22 24-19 23-12 13c-14 17-17 18-29 5l-62-65c-13-14-19-14-31 0l-53 60-12 14q-25 26-12 26c3 0 5-1 20-19l41-47c12-14 26-29 29-30q3-2 6 1c4 2 20 18 25 24l15 17 19 20q21 26 28 24 5 0 17-14l10-12 8-9 21-24 8-9c7-10 19-22 21-23q5-3 17 10l16 18 5 5 2 1 6 8 6 6 2-21q-1-3-1 2v5l-2-2-7-8-36-36c-7-4-8-3-24 13M353 24c-4 2-22 21-28 30l-20 23-21 23q-10 14-16 14-5-1-23-21l-28-30-37-37c-8-6-16 0-42 32l-19 22-11 12c-4 6-15 18-18 19-5 3-8 1-25-17L45 72 29 54 12 37 2 28l-1 8v7l9 9 14 13c6 7 17 18 22 26l8 8 18 17c14 15 17 15 28 1l8-9 21-25 11-12 17-19c11-13 15-16 20-14a562 562 0 0 1 54 55l10 11c5 7 23 23 27 23 4 1 7-1 18-11l33-38 13-16 10-12c13-15 17-16 26-6 3 5 26 29 36 39l20 21 12 13h5q11-1-1-13l-9-9-8-8-19-21-18-18-7-8q-16-22-26-16m363 29q-6 4-11 11l-26 31c-20 21-26 28-32 37-8 11-26 26-31 25-2-1-22-19-26-25l-9-10-9-10c-6-6-19-18-23-20-7-5-11-4-21 8l-11 13-10 12-12 14-11 13-6 7-8 9-8 9-6 6c-1 4-16 19-18 19-3 0-20-16-37-35-36-42-42-45-55-29l-14 17-17 20-7 8-11 12-29 34q-6 7-1 9 6 3 14-8l9-10 11-13 17-19 10-12 26-29c7-6 8-6 20 6 10 10 15 15 25 28l11 11 13 11q14 13 18 12c4-1 31-31 36-39q2-5 7-9l10-12 14-15 9-10c7-10 22-26 25-27q6 0 13 8l14 13 2 2q1 3 7 8l18 19c20 21 24 23 36 10l42-46 31-36q14-17 18-13c3 0 35 33 41 41l5 6v-6l1-14q0-11-1-3v5l-7-7c-14-16-33-35-38-37s-5-2-8 0m-179 5-7 7-14 16-17 19-11 11-8 10-9 12-8 9-13 14-11 11h-4q-3 0-13-10l-26-29-10-9c-16-18-22-23-28-23l-11 6-19 21q-6 5-10 12l-11 11-8 10-3 4-5 5-13 16-10 11c0 1-9 7-12 7-2 0-21-18-43-42-33-35-38-37-53-18l-8 10-9 10-13 15-10 12-9 11-25 29c-4 3-5 10-2 11q5 4 17-12l24-28 7-8 38-44c8-8 8-8 33 18 52 54 55 56 63 48l30-34 7-9 13-15 18-21 21-22q6-4 13 6l8 8 13 13c14 16 39 41 43 44 6 3 9 1 21-12l23-27 7-8 43-47 10-11c7-7 13-4 27 13l13 14 24 25c20 20 23 22 25 17 1-4-1-8-13-20l-21-21-21-24-16-15q-10-12-17-7M1 66l1 8 23 23c9 11 41 44 45 45q8 2 5-7-2-4-11-12l-22-23C27 82 7 63 4 61l-3-2zm165-4-11 11-9 10-6 7-10 13-25 28-11 12-11 13c-8 11-11 10-31-13l-13-14-11-12-16-17L1 89v16l12 12 18 21 15 15c21 23 27 28 32 25l10-11 16-18 33-39 18-21c13-15 17-19 22-18 4 1 27 25 38 38 7 9 38 40 41 40q6 2 6-3c0-3-3-6-27-32l-30-31c-24-25-29-28-39-21m187-2c-1 1-5 4-17 19l-42 46-23 27c-10 10-11 11-14 11q-7-1-22-17l-9-10-6-6-17-19c-27-26-24-26-54 6l-44 49c-24 30-25 30-29 30q-6-1-14-9l-7-7-10-11-16-17-11-12-17-15-1 8 1 7q3 1 14 13l25 28 17 17c13 15 19 17 26 10q13-12 43-50l14-16 13-14c26-29 22-28 44-6l16 15 7 9 11 10 10 9c17 16 20 16 37-3l16-18 12-15 10-12 28-33c12-15 12-14 34 7 9 9 19 19 21 23 9 10 30 31 33 32 7 3 11-2 6-7-1-3-16-19-30-33l-15-16c-7-9-25-26-30-29q-5-3-10-1m359 31c-6 7-11 12-21 27-8 10-17 19-18 19l-5 6-14 16-13 14-13 14c-5 8-7 8-15 1l-43-44c-9-13-20-22-25-22-4 0-32 28-44 44q-4 7-6 7l-26 30-8 11q-16 21-26 17c-4-2-24-23-52-53-14-15-20-18-26-16l-3 2-5 7-9 10-7 8c-13 14-17 18-20 23-5 7-24 29-37 42-17 17-14 19-66-38-19-21-23-24-30-23q-8 3-20 18l-15 18-23 27-11 13q-9 8-11 13l-10 11q-10 10-7 14 3 7 14-7l9-9 14-17 16-18 31-38q8-11 15-12c3 0 22 18 33 30 7 10 37 41 40 42q8 4 13 0c5-3 25-26 39-43l9-10 21-24c0-2 12-15 17-20q8-9 12-5l39 39c7 8 22 23 27 26 12 9 13 8 52-39q5-8 12-14l9-11 11-12 17-19c11-12 13-12 20-5l17 18 17 18q6 9 17 18l10 8q5 5 8 2l5-4 9-6 23-27 13-15 17-18 14-16 9-10c9-12 12-10 35 15l10 11 9 10 3 4v-18l-10-10-20-21c-15-16-19-18-27-9m6 31-7 5-27 30-16 18-17 20c-7 9-7 9-15 16q-10 8-8 14 3 7 13-3l10-12 13-14q8-11 29-32l14-16c4-6 12-13 14-13 4 0 10 5 29 25l19 18v-15l-8-7q-36-40-43-34m-5 37-13 14-22 25-10 11-18 21-10 12c-18 20-20 21-33 7l-54-55q-11-9-16-2l-22 25-12 15-12 14-19 22-10 11q-19 20-14 24c4 3 9-1 25-19l31-38 20-22q14-19 20-21c2 0 7 4 25 23 45 46 46 48 53 48q6 0 13-9l4-5 1-1 7-9 16-19 27-32 10-10c26-27 23-27 43-4q23 26 26 25v-15l-9-8q-32-35-38-34-3-1-9 6m-175 3-22 22-21 24-5 6-2 3-3 5-27 30q-13 15-19 11-9-4-48-48-21-21-25-21c-4 0-13 6-17 12l-10 12-15 18-10 10-7 9-7 8-8 9-13 14-11 13c-6 8-13 4-40-27l-42-45q-7-7-10-3c-4 4-4 4 24 31l16 18 9 11 15 17c10 11 13 13 19 13q12 0 34-27l18-21 15-17c15-19 33-38 37-40q6-2 12 6l19 20 19 20c4 6 15 15 20 19 10 6 15 5 23-4l7-8 15-18c4-3 19-21 26-30 9-12 35-40 38-42q9-4 27 20l8 7 7 8 34 34h4q8-4-8-17l-16-17-35-38q-13-16-25-7m-364 2-18 17q-1 4-10 13l-16 18-12 14-15 19c-16 18-21 23-25 22q-5-1-15-12c-52-55-56-59-61-59l-1 7c0 7 0 7 3 8l20 19c49 51 48 50 55 50 5 0 17-10 26-21l6-8 8-9 28-34 16-18c13-15 14-16 20-15 2 1 5 3 36 36 33 35 34 35 38 35q9-2-1-12c-15-14-48-48-58-60q-15-18-24-10M1 170v7l5 5 16 17 27 27c23 23 26 26 29 26l4-2c2-3 0-4-12-17l-12-13-29-31-16-16-9-8-3-2zm719 14q-3 1-6 9l-8 10q-9 7-17 18l-9 11-21 23c-26 29-31 36-28 40 4 4 8 0 28-23l39-45 15-17c10-12 13-11 28 4l19 20 9 11v-14c0-3-4-7-17-22-28-29-26-27-32-25m3 38q-5-1-11 9l-12 13-11 12-11 13-11 13-6 7-8 8-17 20q-10 12-6 13 6 5 25-20l11-12 51-59c6-8 7-7 21 7l21 22 10 11q1 1 1-8l-1-10-10-10-13-14-14-14q-6-2-9-1m-185 5c-3 1-11 11-15 17l-12 13-35 41-25 29q-7 7-13 5c-5-2-39-38-49-52-13-17-25-25-28-19q-2 3 8 14l8 8 11 13 19 21c32 35 34 35 61 7l9-11 19-23 31-35 15-15q5-1 13 8l20 20 8 10c14 16 38 39 40 39q5 0 5-5 0-3-13-17l-35-37c-29-31-35-36-42-31m-180 4-11 12-16 20-19 23-13 15-20 22q-14 18-22 9l-18-18-44-49q-9-9-13-6-4 4 2 12l24 25 40 43c3 8 15 12 21 8q10-5 27-27l25-28 10-13c7-9 29-33 33-35h5c3 0 25 22 25 24l8 11 15 16q16 18 21 17 10-2-1-12c-10-10-33-34-35-38l-29-30q-9-6-15-1M1 240c0 7-1 5 21 27l11 13c6 8 36 36 40 39q7 3 7-3 2-3-10-13l-13-13-43-46-12-10zm158 10-15 17-15 17-27 33-10 12q-8 10-15 10c-2 0-4-2-16-14l-26-27-17-18q-7-8-15-13l-2-1v8q0 9 3 9l7 7 14 13 11 11 20 20 8 8q9 10 16 10 6 1 28-26l14-16q6-10 23-28l20-23q14-16 5-17-3-1-11 8m563 5-5 5-6 5-8 8q-4 7-10 12l-11 12-18 21-15 17c-5 7-15 19-17 19-4 2-5 11 0 13 5 1 12-6 39-41l14-17 32-36c7-9 13-6 31 15l15 15q6 6 6 9 1 2 1-3c0-14 1-13-21-35-20-20-23-22-27-19m-184 7-7 7-10 11-16 18-19 23-15 17-13 15q-11 14-19 10l-36-36c-8-10-29-30-32-32-6-3-10 2-7 7l14 14c17 17 19 19 20 23l25 25c22 22 22 22 56-17l16-19 11-14 14-16 15-16c8-11 8-11 30 12l26 28c12 14 24 24 28 24q8-2 1-11l-5-5-15-16-26-28q-22-23-28-24l-4-1q-2-1-4 1m-374 19-22 25-3 5-1 1c-2 0-3 1-11 12l-7 8-13 15c-17 21-23 26-29 26q-4 1-26-25c-20-22-44-45-49-46-4-2-3 12 1 14 3 1 4 2 23 21 43 46 50 52 55 51 3-1 11-7 13-11l8-9 14-16 16-19 9-12 1-1 3-2 18-21q8-9 17 3l18 19 18 20q8 12 20 23l11 10q16 16 27 7l32-36 29-35 10-11c11-12 12-15 9-19q-4-2-8 3-1 3-18 20-13 14-14 18l-6 6-32 36q-9 13-17 7c-5-3-24-23-39-39l-12-14-12-13c-24-28-25-29-33-21m559 8q-3 3 4 9l8 9 11 11 15 16 8 8 1-7v-7l-10-10-16-17c-11-11-14-13-17-13zm-183 8c-3 1-5 3-15 15l-17 19-3 4-9 10-8 9-6 8-13 14-14 15c-11 13-19 12-35-7l-32-35c-22-22-22-22-34-8l-14 17-11 13-12 14-15 17q-16 20-28 32-9 10-16 4l-44-46-15-17q-6-4-12-13c-11-12-12-13-14-13q-3 0-22 20l-15 17-11 13c-11 14-33 38-36 40q-7 4-11 1c-3-1-38-38-48-50L1 359l-1 8v7l6 6 10 11 6 6 5 5c6 10 24 30 37 41 21 19 27 16 62-28 7-10 22-26 23-27l8-8c14-17 14-17 33 2l11 12 9 11 16 17 9 10 8 7q18 19 28 14l17-18 9-11 11-12 19-23c10-13 33-38 37-41 5-3 14 2 19 11l16 17 17 18 14 14c11 8 17 8 27-2l16-18 9-11c8-7 19-20 24-27l19-22 8-9q12-13 19-6l25 28c30 34 38 41 44 38 4-3 3-5-13-21l-20-21-13-14-15-16q-12-12-20-10m170 3-6 7-11 13c-12 11-17 17-26 28l-10 11-12 14q-21 27-28 23l-13-11-33-35c-16-17-22-22-27-22-2 0-11 10-19 18l-7 8-10 12-18 21-6 8-12 13-11 12q-13 19-25 10l-56-58q-16-19-19-13c-4 3-2 6 17 25l19 21 36 36q11 8 17 5c5-3 28-28 46-50l10-12 13-14c26-31 27-32 41-16l9 9 24 25q12 14 16 15l6 4c8 5 12 4 22-7l11-12 6-8 7-9 8-9 10-12 14-15c21-22 27-31 25-35q-3-3-8 0m-360 11-8 11-10 12q-10 9-21 23l-25 29-9 12q-9 13-22 0l-52-56c-9-11-23-24-26-26q-8-4-18 8l-11 12-23 27-32 36q-9 10-14 8c-2-1-15-13-29-29-15-17-47-50-49-50v14l13 14 22 23 17 19 6 7 9 7c19 13 18 13 44-17l6-8 8-9 11-13 11-13q23-30 30-22l14 16 7 9c53 58 61 65 69 64 3-1 24-23 34-35l8-9 13-15 27-32q9-9 10-13c2-7-4-10-10-4m376 10q-3 4 6 13l14 15 12 13 8 9 3 4v-8q1-7-3-10l-11-12c-8-10-23-25-26-25zm-16 14-5 6-11 12-29 34-10 11-20 23q-9 12-18 6c-6-4-41-40-52-53q-18-23-43 11l-9 11-13 15-13 15-27 31c-10 13-16 11-34-7l-28-30c-6-8-39-39-42-39-2 0-11 7-15 12l-28 30-14 18-26 29c-8 8-14 6-26-9l-12-12-19-22-7-8c-10-12-32-33-34-33q-9-1-34 30l-15 18c-21 23-24 27-29 34q-7 9-14 9c-3-1-17-15-34-34l-16-17q-15-15-20-23L2 391q-2-3-2 7v8l9 9 10 10 3 3q1 4 10 12l13 15c9 12 31 32 37 34q10 3 21-12l10-11 12-14 27-31 9-12q10-13 20-3l20 22 7 7 10 11 12 13 20 21q11 12 21 7l23-24 7-8 30-36q19-23 25-24c3 0 14 10 24 22 16 19 53 56 60 60 9 6 14 2 34-20l36-41 23-27c14-18 15-18 27-5 7 9 37 39 49 50 13 12 15 13 24 4l9-8 9-10 11-14 14-16 11-14 9-9 17-20q8-9 5-12-5-4-8 0m13 14q-3 2 4 10l7 8 31 34 4 4v-14l-9-10c-17-19-32-33-34-33zm-21 28-7 10-5 5-4 3-4 6-11 13-17 19-13 14-8 9c-10 9-7 11-56-41-26-26-27-27-31-23-4 3 0 7 24 32l18 20 10 11 10 10c15 13 23 12 39-8l6-6 9-11 18-20 14-17q16-22 22-19a347 347 0 0 1 39 39l10 12q6 9 5-5l-1-8-13-13-29-30c-14-11-16-11-25-2m-6 43c-14 15-19 20-26 30l-14 17-14 15c-13 16-17 16-32 0l-29-29-21-21c-2-4-18-19-21-21-6-2-11 1-25 17l-9 11s-7 9-14 15l-8 10-16 18-8 10q-10 18-27-1l-22-23-21-23q-22-26-28-20-4 3 16 24l16 16c5 7 24 28 39 41l6 6h17l4-5 8-9q5-4 8-10l13-15 15-17 7-8 11-11c10-12 12-13 17-11l24 23 21 23c10 9 20 20 22 23l12 10c11 7 15 5 33-16l17-19 24-29c4-6 16-17 19-19 4-3 5-2 13 7 9 11 14 16 26 27l15 15 5 5v-18 3l-7-7q-42-46-50-48-2-1-16 14m-356 3-13 15-10 12-19 23-21 24c-2 0-8 10-8 13q-1 3 4 2c4 0 7-2 19-16l18-22 9-10 6-8 17-18q21-22 16-24c-3-4-6-2-18 9m-175 1-25 27-38 46c-15 19-13 20-72-44L7 429l-6-6v17l10 10 39 42 12 14 6 6h35l2-3 8-9 36-41 9-11q9-11 16-12c3 0 6 3 29 28l39 43 5 5h15l-11-11-26-28-11-13-20-22-14-14c0-2-6-4-8-4q-3 0-7 4m540 20-15 17-36 42c-9 9-9 9 0 9h7l8-10 22-25 7-9 11-12q16-17 4-17-3 0-8 5m-170-3c-3 2-17 16-27 28l-11 13-7 8-8 9-7 8-4 5h15l5-7 38-43c8-8 8-8 9-6l2 5 12 13 32 34 3 4h16l-6-6c-49-53-50-54-54-54h-4l1-4q1-9-5-7m-188 12-10 11-18 20-5 6-11 13-8 9h6c7 0 7 0 10-3l11-12 13-14 12-14q18-21 8-21-3 0-8 5m374 2-2 4-1 4-5 7-8 9-11 13-17 19 7 1q8 1 9-3l15-17 11-13c8-11 9-10 38 20l12 13v-21 4l-8-8c-31-32-36-36-40-32m-555 5-26 29-11 13-9 10h13l8-7 14-17c12-15 15-17 20-17q5 1 34 32l8 9h14l-7-8-24-27c-8-8-19-19-23-21q-5-3-11 4M1 464v8l8 8 11 11 8 10 7 8q0 4 9 3 10 0 6-3l-10-11-31-34-8-7zm366-4c-5 3 4 17 22 32l6 7 8 9 4 4h14l-6-7-12-13-12-13-12-12q-8-10-12-7m167 18c-2 1-31 30-32 33q-3 1 7 1h8l6-9c12-15 15-15 28-1l9 10h15l-5-6q-28-30-33-29zm-182 7c-5 3-23 22-25 25q-3 3 6 2h7l7-7q12-14 19-3t16 10l7-1-25-27q-6-3-12 1m371 4c-3 3-2 5 8 15l7 8h15l-6-6c-17-18-21-21-24-17M1 495c0 6 0 6 6 11l5 6h13l-11-12c-12-13-13-13-13-5m168-2-18 18c0 2 14 1 14 0 1-3 10-7 12-7l6 4q3 5 10 4h7l-2-2c-14-17-21-21-29-17"
        mask="url(#16282281824-posters-1720553944829-vertical-mask)" itemprop="medium" fill-opacity="0.90"
        fill-rule="evenodd" stroke="none" fill="url(#16282281824-posters-1720553944829-vertical-medium)"></path>
      <!---->
      <path id="16282281824-posters-1720553944829-bold"
        d="M0 3a99 99 0 0 0 27 29l2 3 8 9 10 12 18 18q10 15 19 17 6 3 13-5l12-14 2-2 4-4 6-6 11-15 5-4 8-10 9-10c4-7 13-14 16-16q6-3 20 11l11 10 11 13 24 26 13 13 13 13h4c6 0 13-6 35-32l20-23 11-12q6-9 14-16l7-8h-15l-4 5-15 17-6 8-5 6-9 11-21 23c-12 12-12 12-35-12l-27-27-14-15-11-13-2-3h-31l-2 4-5 7-11 14-8 10-14 15-17 18c-9 10-12 12-17 10-3-1-18-15-32-31L35 29 10 3C7-1 0-1 0 3m25-1 1 1 3 3 7 8q5 3 7 8l10 9 6 7q0 2 12 13 10 11 16 8l5-1 15-15 9-9 2-3 6-9 13-14 6-8h-6q-7 0-6 2l-5 5-7 8-10 12-13 14q-8 9-14 7c-3-1-29-27-44-43-4-5-4-5-9-5q-6 0-4 2m28-1c0 3 28 25 33 25 4 0 17-11 26-22l3-4h-13l-5 6c-9 10-14 10-24 1l-7-7h-7zm156 3 8 10 15 15q24 29 32 28l4-1 2-1a45 45 0 0 0 17-16l31-36 2-3h-6q-6 0-7 2l-8 10-9 10c-22 29-24 30-45 9L217 1l-6-1h-6zm29 1 7 8c12 16 18 15 35-1l10-11-6-1q-6-1-8 3-7 10-14 10c-3 0-11-6-14-10q-2-4-8-3h-6zm131 2 7 8 9 10 17 18q32 35 38 33l6-6 12-14 32-35 6-8 8-9q5-5-4-4l-7 1-12 14-13 13c0 3-23 28-28 30-6 3-8 1-18-9L384 9l-7-9h-16zm26-5 3 3q4 2 17 15 19 20 22 16c3-3 1-6-10-17L412 4c-4-4-4-4-11-4q-9 0-6 2m33 2 11 12c13 12 12 12 33-11l5-5h-7c-7 0-7 0-11 4-7 7-11 7-20 0q-3-5-9-4h-5zm91 2-12 15-13 14-34 38c-12 12-13 14-13 17q1 9 11 0l10-12 18-20 8-9 6-7 17-19 7-8c8-10 10-12 14-12q7 1 10 4l8 9c12 13 12 13 10 16q-3 3-1 4t3-2l2-2 18 18 19 20c17 19 23 22 31 17l11-12 3-4 5-6 6-8 8-8 8-10 7-8 8-9 9-11 7-8 2-3h-6l-6 1-1 2-4 4-30 34-7 8-8 10q-12 19-21 16a426 426 0 0 1-63-63l-7-8-3-4h-34zm54-6 14 15 11 13 9 10c19 19 26 21 35 11l20-23 12-13c12-13 11-13 4-13l-7 1-2 3-5 6-9 10-9 10q-10 12-13 12a8 8 0 0 1-10-3L591 7c-7-7-7-7-13-7zm31 2c2 3 17 18 21 19 6 3 9 2 21-12 8-9 8-9 1-9-6 0-6 0-9 3q-8 10-20-1c-3-3-16-3-14 0m127 5 18 19 17 19 2 3 1-4 1-10q0-9-1-4v3l-12-12-15-15c-4-6-5-6-11-6h-6zm26-6 6 6 6 6V0h-6zm-59 37-19 21-4 6-7 8-12 13-11 12c-13 16-15 16-33-3l-18-19-14-15-15-16-7-8-14-11q-6-3-14 3l-5 6-2 3-5 5-6 7-39 46-13 14q-23 22-12 24c4 0 5-1 16-15l16-18 9-10 15-17 5-6 3-3 21-23c7-6 9-6 20 5l10 9 5 7 17 18 26 28c4 6 16 15 20 15q5 1 30-29l22-26 25-29c9-11 13-11 26 5l19 19 10 12 5 5 2-20q-1-4-1 2l-1 5-11-13-7-8-18-18q-7-8-14-8c-3 0-6 2-20 17M171 25c-3 0-18 16-33 34l-19 23-17 19-7 7q-8 11-20-3L59 89 42 70c-2-4-10-12-16-18L12 37 2 29l-1 7v6l12 12 13 12 3 3 8 10 7 8 14 15 13 12c15 16 17 16 27 5l18-21 8-9 7-9 8-10 21-24 10-8c5-5 11 1 43 35l27 30 11 11 12 10c6 6 10 4 22-9l24-26 12-14 8-10 2-3 10-11c11-13 11-13 14-14q7-1 14 8l13 14 48 51q13 13 15 3c0-3-4-8-20-23l-23-24-26-29q-12-15-21-13a143 143 0 0 0-33 34l-15 17-8 9-8 9-5 6-7 9c-8 8-11 8-21 0-3-3-14-14-17-19l-16-16-17-18q-29-31-34-31zm545 29q-6 3-11 12l-9 10-7 8-8 9-10 11-8 9q-8 8-15 19c-4 6-7 9-16 17l-8 6c-7 6-9 5-43-32l-31-30c-9-6-11-4-25 12l-8 9-9 11-13 15-12 14-6 7-6 7-9 9-5 7-10 11c-8 8-10 9-16 4l-30-32c-37-43-42-45-56-25l-13 14-10 12-33 38-17 19q-9 9-6 11c4 4 7 2 17-10l11-12 7-7q3-6 16-19l11-13 1-1 4-6 11-11c16-18 17-18 31-4l24 27 11 11 13 12q14 13 16 12c2 0 11-9 19-17q2-5 8-10l9-12 8-9 5-6 20-22 15-18 9-9c12-13 13-13 27 2l12 11 24 26 7 7q0 2 9 9t20-3l45-50 10-13 18-19c15-19 17-20 31-5l22 23 7 8q6 8 5 3 0-3-1-2-2 0-2-2l1-2q3 1 3-10 0-8-1-2v5l-6-5-7-8c-5-8-27-28-31-31-6-2-6-2-9 0m-178 4-7 7-39 43q-9 9-12 15l-9 10-9 11-14 15c-12 12-13 12-28-4l-21-22c-8-8-18-18-21-23q-21-21-31-7l-18 20-8 9-9 10-16 19-6 7-10 11-8 9q-11 14-17 12l-49-49c-23-27-33-29-46-10l-8 9-9 10-11 13-7 8-15 18-24 28c-5 4-4 10 1 10a44 44 0 0 0 17-17l5-5 9-11 11-13 25-29q19-22 23-22c4 0 8 3 22 18 28 30 49 50 53 53 7 4 9 4 15-2l9-11a163 163 0 0 0 24-29c1 0 12-11 18-20l8-9 12-13c19-22 20-22 32-10l11 11 11 11c7 9 35 38 39 40q8 6 18-6l14-16 18-21 24-27 10-11 10-11 9-10q8-9 15-3l6 5 6 7 30 31 17 18q11 12 13 11c6 0 4-8-5-15l-27-29-20-21-16-17q-9-9-15-6m-371 4-8 8-9 10-10 12-10 12-8 8-9 10-6 7-11 13q-9 8-13 15c-7 11-10 10-28-10l-28-30L8 97l-6-7-1 7c0 7 0 7 4 11l7 7 8 8 5 6 7 8 14 15c17 19 24 25 28 26 3 0 9-3 9-6l2-2 6-8 12-14 26-30 7-8 25-29c0-4 12-11 17-10 3 1 32 30 39 40 7 9 38 38 41 38q4 1 3-3c0-4 1-2-35-40-49-51-49-51-59-44M1 67q0 8 2 7l5 4 6 7 10 10 20 22 16 16q14 15 15 5c0-3-2-5-10-14l-22-22C30 87 4 60 2 60zm352-6-3 2-22 25-33 37-26 30c-10 12-13 12-22 3l-9-8-11-12-8-9-35-35q-9-6-23 10l-12 13-34 38-10 12-6 8q-5 4-9 11-15 20-27 2l-11-10-7-9-38-38q-9-9-7 2 0 8 2 7 3 1 16 16l22 23 9 11c24 26 27 27 39 12l12-15 26-30 14-16 13-13c26-29 24-29 44-7l15 15 9 9 10 11 11 10 11 9 5 2 4-2c4-2 10-7 24-24l10-11 9-10q4-7 10-12l7-8 5-6 17-20c7-10 8-11 13-10 4 0 5 0 22 17l20 21 17 19c14 14 16 16 22 15q3-1 1-6l-32-34-12-13c-5-7-25-26-31-30q-6-5-11-2m362 28-8 9-6 7-9 11-12 16-3 3-6 6-19 21-1 2-3 3-20 21c0 2-5 6-7 6-5 0-31-26-57-56q-14-17-21-15c-4 2-33 32-41 43l-8 9c-15 16-24 26-32 38q-17 24-27 18-6-3-36-36c-27-28-33-33-39-33q-4 0-5 3l-6 6-5 5-17 21-15 17-6 7-4 5-5 7-8 8c-6 8-24 25-26 25-7 0-21-13-50-46-30-34-32-34-60 0l-17 20-1 2-8 10-16 17-12 14-9 11q-9 9-6 13 2 7 13-6l3-5 4-4 15-16 7-9 6-8 9-10 11-14 12-15 6-7c10-9 14-10 22-1l6 6 15 17 17 18 18 18q12 13 19 7a163 163 0 0 0 26-27l9-11 20-23 16-19c19-24 25-28 35-17l13 14 22 23c0 2 12 13 26 24l7 2c5 0 5 0 9-4l31-36 5-6 8-9 9-11c5-7 4-5 20-22 17-18 20-21 22-21 1 0 8 4 10 7l10 11 28 30c4 5 7 8 17 16l5 4 3 2c3 0 15-8 19-13l9-9 10-12 18-21 30-34 11-12q6-9 20 7l32 34 2 3v-16l-10-10-20-21c-13-14-18-17-24-12m-2 38c-9 8-22 22-27 29l-13 14-24 28-6 8c-7 4-15 14-15 17q2 10 12-2l8-9 26-30 32-34 6-7c8-9 10-8 22 2l5 5c9 10 29 30 30 29v-13q0 2-16-15l-18-18-8-8q-5-4-14 4m-1 34-16 18-8 8-11 13-9 10-6 7-4 5-16 18c-18 20-20 22-27 17-3-2-5-3-50-50-19-20-22-21-32-10l-10 11-7 8-20 25-14 17-9 10-11 12q-20 22-11 23 4 2 22-21l5-6 16-19 19-22 12-14 1-2 1-2 11-11q2-3 6-3c3 0 4 1 24 21 48 50 48 50 57 49q6-3 14-14l8-10 16-19 28-31 22-25c11-11 14-10 34 14 8 10 21 22 22 21v-13l-4-3-9-9-26-27c-7-5-10-4-18 4m-173 1a153 153 0 0 0-26 27l-5 5-4 5-17 22-5 5-11 13-14 14q-12 16-21 10c-3-2-34-33-40-41-7-9-27-28-30-28s-14 8-17 12q-2 5-8 10l-16 18-9 11-10 12-8 9-7 8-5 6-19 21q-7 6-16-3l-34-38c-7-9-34-36-37-37-7-1-6 6 1 12l6 7 12 11c9 10 18 20 19 23l6 7 12 12c12 14 15 17 18 18q8 2 12-1l4-3c2 0 16-14 23-22q4-7 10-12l13-15 9-11 3-3 1-1 5-7 10-11c19-23 22-24 33-11l19 20 19 20q15 18 27 21 5 2 12-7l9-9 10-12 11-12 17-21 5-6 27-30 10-10h5l5 2 7 8 9 11 8 8 8 8c2 4 31 33 34 33 7 3 7-4 0-11l-35-36-22-25q-11-13-23-6m-364 2c-5 3-14 12-18 18l-9 10-26 31-4 5-12 14c-20 24-23 26-27 26q-6 0-18-14c-47-50-54-57-59-57l-1 6q-1 6 3 8l47 46c21 22 25 25 31 22 5-3 17-13 20-18l7-8 11-13 12-15 5-5 7-10 24-27c9-12 13-12 25 0l18 20 34 34q9 10 11 9c6 0 5-7-2-13a822 822 0 0 1-58-60q-13-15-21-9M1 170c0 6 0 6 5 11l17 18 41 41q14 16 17 11c2-3 0-6-11-17l-13-14-27-29-16-17-12-10zm719 15-3 4q-5 11-16 19l-7 8-9 11-5 6-21 23-5 6-6 7-16 19-1 4q1 10 20-11l12-15 5-7 12-13 4-5 27-30q10-10 13-10c3 0 12 5 12 6l24 26 9 11v-16l-18-18-19-20c0-2-6-6-8-6zm-2 40-7 8-12 13-10 11-11 13-11 12-7 9-15 18-6 6q-13 13-6 15 6-1 21-19l11-13 49-56c10-12 10-12 22 1l22 22q10 10 11 14 1 1 1-8l-1-9-9-10-13-13q-20-25-29-14m-179 2q-3 1-6 5l-5 7-6 6-25 30-10 12-10 11-9 10-11 13q-9 13-16 12c-4 0-9-4-30-27l-11-12-8-9-8-10-1-3-1-1-7-6q-11-9-13-4-3 3 8 13l9 11 9 10 10 12c6 6 31 32 36 35q11 9 41-27l14-17 9-11 26-29 8-10c10-12 12-12 23-1l19 20 7 6c6 9 7 10 25 28 13 13 15 15 18 15q3 0 3-3c0-4-1-5-13-18l-29-30-3-4-9-9c-22-24-27-28-34-25m-181 5-7 8-34 40-4 5-3 4-8 9-19 21c-17 21-18 22-35 6l-12-13-11-12c-19-23-37-41-41-41q-3 0-2 4c0 4 0 4 11 16l18 20 20 21 16 18c5 8 15 12 21 9l24-22 15-18 23-28 23-25c13-14 13-14 24-5l12 13 6 7c4 7 39 43 42 43q10 0-2-14c-12-11-30-30-34-36l-17-18-14-14h-5q-6 0-7 2M1 241q0 7 2 6l7 7 9 11 19 19 13 14 15 14q13 12 14 3c0-2-2-4-15-17l-33-34C2 232 1 231 1 241m158 10-13 14-17 21-6 6-12 14-15 19c-14 18-18 18-31 6l-24-26C1 263 1 263 1 274c0 7 0 7 3 8l6 5 22 22 7 7q0 2 18 18l7 8 11 8q5 4 11-1c11-11 18-19 34-39l15-18 9-10 15-17 6-7c3-3 8-12 7-14q-1-6-13 7m562 5-5 6-3 3q-3 1-10 10l-10 11-10 10q-6 9-23 27l-13 16-12 14q-8 9-6 11c4 6 12-1 32-26 14-19 17-22 23-28l33-37 6-7q5 0 14 8l14 17 13 12q4 3 5 8t1-2c0-13-2-16-15-28l-15-15c-12-13-15-14-19-10m-182 6q-6 3-8 8l-6 7-11 13-11 12-19 22-13 15-13 15q-11 14-20 9l-35-35c-7-9-30-31-33-32q-6-2-6 4c1 2 26 29 28 29l7 9 10 12 19 19q12 12 23 7l33-37 26-30 11-12 15-18q7-12 21 5l17 17 12 14 6 7 21 21c6 5 12 2 9-4l-3-4-4-4c-2-4-32-35-49-52-16-16-22-19-27-17m-375 20q-24 25-24 31 2 7 4 6l2-3 6-7 7-7c9-12 14-13 23-2 8 10 23 25 28 29l7 9 2 3c5 6 20 23 22 23l5 6q13 15 24 11 4-2 17-16l11-12 14-17 12-14 3-4 7-9 9-10c5-5 13-15 13-17 0-5-7-5-9 0q0 3-18 19l-13 17-21 24-21 24c0 4-11 6-14 3l-6-4-15-16-12-12-1-1-1-2-5-6-23-25-12-13-7-9q-6-6-14 1m559 7q-2 5 4 9l7 6 10 11 17 18 8 8v-14l-10-9c-26-28-32-33-36-29m-187 11-7 8-17 19-5 7-11 12-5 6-11 12q-4 7-15 17l-12 13q-4 6-12 7c-4 0-15-9-24-19-14-17-44-48-48-50q-7-2-11 4c-1 3-12 16-19 24q-7 6-10 12l-6 8-14 14-7 10-6 6-22 25c-8 9-13 8-24-4l-16-17-20-21-22-23-6-7-8-10c-5-7-9-4-27 18l-15 16-10 13-13 14-11 12q-14 17-20 16c-5 0-7-1-18-14l-12-13-19-21-32-34q-1-1-1 6v8l7 7 26 28a227 227 0 0 0 42 42c1 2 15 2 17 0l23-24 26-31a26 26 0 0 1 11-11c0-4 16-19 20-19 3 0 18 14 28 26l13 14 11 13c10 12 28 29 34 32 10 4 17 1 30-16l9-12 12-14 36-41c9-11 19-22 22-22q7-1 20 16l6 8 4 3 30 32 6 4q6 5 14 4c3-1 18-15 24-24l17-19 5-6 15-17 13-15 16-18c8-8 11-7 40 27 27 29 38 39 43 38q7-2-6-14l-42-44c-24-25-28-28-36-21m172 2-6 8-9 10-20 22-5 5-9 12-15 16q-14 17-20 21c-7 3-12-1-35-26-29-31-40-41-46-41l-9 9-4 4-5 5-7 8-8 10-26 30-13 15-4 4-5 7c-5 9-16 15-23 12-4-2-43-41-50-51-6-7-21-23-24-23q-5-2-5 4 4 7 25 27l13 15a301 301 0 0 0 43 41q3 3 11-2l20-21 16-19 3-4 4-4 10-11 14-16 7-8c16-20 21-22 31-11l19 20 18 18 16 15 2 1c3 3 10 6 12 5q7-1 37-38l10-12 11-13c6-7 7-9 15-16 16-18 21-24 21-28s-6-4-10 0M1 309q0 8 2 6 2 0 18 16l47 49c1 2 10 7 13 7q5 0 13-9l6-7 6-7 21-25 11-13 3-4-2-5-2-4-8 9-10 12-7 8q-9 12-20 22c-12 12-13 13-23 4l-17-19-44-44q-8-7-7 4m350 2-7 8-12 15c-9 9-13 13-23 27l-9 9-6 8-7 8-7 9q-9 11-13 10c-7 0-12-4-37-32l-16-17-12-14-13-13c-18-18-17-18-35 2l-11 12c-6 6-9 9-23 27l-10 12-15 16-5 5q-7 6-11 5c-2-1-17-16-34-35l-29-30-15-15v14l7 7 10 10 7 7 11 11 18 21a56 56 0 0 0 18 16q14 11 24-2l20-23 10-12 16-19c9-12 12-16 20-23 12-12 15-11 31 12l4 5 22 24 24 25 17 17h5c5 0 8-3 21-17l13-15 8-9 13-15 24-27 9-11q11-10 6-15-2-3-8 2m375 11q-1 4 8 13l9 9 12 14 11 12 3 4v-7q1-6-3-9l-10-11q-25-30-30-25m-16 13-4 5-8 10-10 11-9 11-14 16-10 11-7 8-13 15-2 3c-4 8-15 6-23-4l-5-5c-6-4-42-42-43-45-2-2-9-6-12-6q-14 1-26 19l-7 9-8 9q-11 15-23 25l-8 10-7 9-8 8-3 5q-11 17-34-8l-17-18-11-12-33-33q-6-6-9-6c-3 0-15 9-18 14l-18 21-11 12-16 19-13 15c-10 13-14 15-20 11-4-2-29-28-37-37l-46-50a11 11 0 0 0-10 3c-2 0-14 13-22 22l-9 10-6 8-19 21-12 15q-9 14-17 11c-3-1-19-16-28-27l-20-22-22-25q-4-7-9-10l-3-2v7l1 8 8 10q6 7 10 8l3 4 11 12 12 14c4 6 22 24 30 30 11 8 17 6 27-7l6-8 16-17 8-9 10-13 10-10 7-9q13-21 30 2c4 6 17 20 23 25l7 8 22 24 8 9c4 4 13 10 16 10 4 0 16-11 26-23l5-6 8-9 11-13 15-17c6-9 7-10 15-18 12-13 11-13 31 9l16 17 27 27c0 3 21 22 26 23 6 1 23-13 37-33l6-6 6-7 7-8 8-9 20-23 11-14q8-8 12-3l10 10 49 49c9 8 11 9 14 9 4-1 29-27 38-40l12-15 9-10 9-10 15-17c3-3 10-13 10-15 0-4-6-5-8-2m14 14c-3 3 2 9 23 32l15 16 7 7v-6c0-7 1-5-17-25-25-26-25-26-28-24m-16 24q-7 4-12 13l-4 5q-4 2-21 24l-21 23-8 10c-2 4-13 14-16 14-6 0-12-5-42-38-23-25-32-33-35-33q-8 1 1 12l29 29 8 10 11 12 11 11q12 11 22 7c3-2 14-13 17-18l2-2q4-1 16-18l15-17 14-17q14-17 19-17c3 0 26 22 34 32l9 9 8 10q5 9 5-4 0-9-1-7l-18-19-25-25c-11-9-14-9-18-6m-12 48-24 27-5 6-10 12-14 15q-10 13-17 13-6 1-22-16l-34-35-9-10-20-20q-7-7-18 6l-10 11-8 10-2 2-1 1-9 11-8 9q-5 7-20 22l-6 8q-1 5-9 8c-6 2-9 0-27-18l-4-4-27-29q-20-24-26-25-14-2 10 22l20 21 6 7 7 8 5 6 7 6c18 17 18 17 25 17h7l6-7 10-10 8-10 13-14 8-9 16-19c21-23 20-22 32-12l17 18 46 48c13 13 19 14 30 3l6-6 6-6 8-10 8-9 15-17 8-11 11-12c11-11 13-11 18-5l39 41 11 10v-3l1-10q0-7-1-3v3l-5-5-9-10-5-6-12-13a86 86 0 0 0-26-21q-1-1-16 14m-356 4q-11 10-12 13l-10 12-18 20-15 18-9 11q-7 7-6 10 1 8 12-3l22-25 15-18 6-7 12-14c20-22 21-23 21-26q0-10-18 9m-174-1-4 4-10 11-15 16-13 17-8 10-9 9-7 10q-8 11-18 6c-5-2-8-5-33-32L8 431l-7-7v15l10 10 14 15 27 29 5 6 6 7 6 6h34l1-3 8-9 29-33 9-10 9-11c4-5 12-11 15-11q4 1 15 13l15 17 14 14q4 7 13 14l12 14 4 5h14l-13-13-23-25-12-14c-9-11-7-9-23-24-15-16-18-17-24-12m545 16q-4 2-17 17l-12 15-7 8-7 8-16 18-5 6h7q7 1 7-2l8-9 25-28 15-18q12-12 7-14l-2-2zm-176 2c-2 0-16 15-24 25l-13 14-7 9-7 8-5 5-4 5-4 4h14l3-5 8-9 9-10 25-28q10-10 9-4 0 5 13 18l30 31c5 7 6 7 14 7h7l-7-7-36-39q-9-11-17-13-4 0-4-2v-9zm-186 10-43 48c-11 12-11 12-4 12 6 0 6 0 10-5l11-12q13-13 11-15a2 2 0 1 1 2-1l3-2 12-14c10-11 8-21-2-11m371 3-1 5c0 4-1 5-8 13l-5 6-12 13-16 19q-2 1 5 1 8 1 9-3l18-21q8-7 8-9 2-6 9-7c3 0 4 1 11 7l30 31q1 4 1-9l1-13-1 4v5l-21-22c-22-22-24-24-28-20m-552 3-6 7-11 12-9 11-8 9-9 10-4 5h12l6-7 10-11c16-20 20-23 25-24q4-1 6 2l30 32 8 8h12l-5-6-8-9c-18-20-27-30-36-38q-8-6-13-1M1 464v7l8 7 12 14 8 10 6 7q2 4 9 3h7l-8-9-22-25-4-6-1-1-8-7-7-6zm365-3q-2 1 2 7a119 119 0 0 0 23 25l6 7 7 8c3 4 3 4 10 4q10 2 1-6l-7-8-12-14-17-17q-10-10-13-6m168 18-32 32 7 1h8l4-6 5-6q2-5 11-8c5 0 4-1 17 13l7 7h14l-16-16c-17-17-19-19-25-17m-181 6c-4 2-26 25-26 26l6 1h6l7-8c11-10 12-10 22 0l8 8h13l-5-6c-20-22-25-25-31-21m369 6q1 5 12 15l3 5 8 1h7l-4-4-12-12q-8-9-11-8-4-1-3 3M1 495q-1 4 5 10 5 4 5 6l7 1h6l-6-7C3 488 1 487 1 495m169-2-11 10-8 9h6q6 1 9-3 6-6 9-5 3 0 8 4c4 4 5 4 11 4h6l-4-4c-15-17-19-19-26-15"
        mask="url(#16282281824-posters-1720553944829-horizontal-mask)" itemprop="bold" fill-opacity="0.90"
        fill-rule="evenodd" stroke="none" fill="url(#16282281824-posters-1720553944829-vertical-bold)"></path>
    </pattern>
    <rect id="16282281824-posters-1720553944829-pattern-render" fill="url(#16282281824-posters-1720553944829-pattern)"
      width="100%" height="100%"></rect>
  </defs>
  <radialGradient id="lightbar" cx="50%" cy="200%" fy="0" r="201%">
    <stop offset="0%" style="stop-color: rgb(255, 255, 255); stop-opacity: 0.1;"></stop>
    <stop offset="10%" style="stop-color: rgb(0, 0, 0); stop-opacity: 0.1;"></stop>
    <stop offset="30%" style="stop-color: rgb(0, 0, 0); stop-opacity: 0.3;"></stop>
    <stop offset="90%" style="stop-color: rgb(0, 0, 0); stop-opacity: 0.55;"></stop>
    <stop offset="100%" style="stop-color: rgb(0, 0, 0); stop-opacity: 0.6;"></stop>
  </radialGradient>
  <g class="radial">
    <radialGradient id="16282281824-posters-1720553944829-radial" gradientUnits="userSpaceOnUse">
      <stop itemprop="radial" stop-color="#7d7c78" offset="0%"></stop>
      <stop itemprop="radial" stop-color="#878582" offset="15%"></stop>
      <stop itemprop="radial" stop-color="#858380" offset="30%"></stop>
      <stop itemprop="radial" stop-color="#878682" offset="45%"></stop>
      <stop itemprop="radial" stop-color="#858380" offset="60%"></stop>
      <stop itemprop="radial" stop-color="#858480" offset="75%"></stop>
      <stop itemprop="radial" stop-color="#82807d" offset="90%"></stop>
    </radialGradient>
    <radialGradient id="16282281824-posters-1720553944829-radial-background" gradientUnits="userSpaceOnUse">
      <stop stop-color="#d3d0c5" offset="0%"></stop>
      <stop stop-color="#d3cec5" offset="15%"></stop>
      <stop stop-color="#d3cec5" offset="30%"></stop>
      <stop stop-color="#d3d0c5" offset="45%"></stop>
      <stop stop-color="#d3cec5" offset="60%"></stop>
      <stop stop-color="#d3d0c5" offset="75%"></stop>
      <stop stop-color="#d3cdc5" offset="90%"></stop>
    </radialGradient>
    <radialGradient id="16282281824-posters-1720553944829-radial-light" gradientUnits="userSpaceOnUse">
      <stop stop-color="#9b9a97" offset="0%"></stop>
      <stop stop-color="#9b9a97" offset="15%"></stop>
      <stop stop-color="#9b9a97" offset="30%"></stop>
      <stop stop-color="#9b9a97" offset="45%"></stop>
      <stop stop-color="#9b9a97" offset="60%"></stop>
      <stop stop-color="#9b9a97" offset="75%"></stop>
      <stop stop-color="#9b9997" offset="90%"></stop>
    </radialGradient>
    <radialGradient id="16282281824-posters-1720553944829-radial-regular" gradientUnits="userSpaceOnUse">
      <stop stop-color="#82817d" offset="0%"></stop>
      <stop stop-color="#82807d" offset="15%"></stop>
      <stop stop-color="#82807d" offset="30%"></stop>
      <stop stop-color="#82817d" offset="45%"></stop>
      <stop stop-color="#82807d" offset="60%"></stop>
      <stop stop-color="#82817d" offset="75%"></stop>
      <stop stop-color="#82807d" offset="90%"></stop>
    </radialGradient>
    <radialGradient id="16282281824-posters-1720553944829-radial-medium" gradientUnits="userSpaceOnUse">
      <stop stop-color="#51504d" offset="0%"></stop>
      <stop stop-color="#51504d" offset="15%"></stop>
      <stop stop-color="#51504d" offset="30%"></stop>
      <stop stop-color="#51504d" offset="45%"></stop>
      <stop stop-color="#51504d" offset="60%"></stop>
      <stop stop-color="#51504d" offset="75%"></stop>
      <stop stop-color="#514f4d" offset="90%"></stop>
    </radialGradient>
    <radialGradient id="16282281824-posters-1720553944829-radial-bold" gradientUnits="userSpaceOnUse">
      <stop stop-color="#2f2e2d" offset="0%"></stop>
      <stop stop-color="#2f2e2d" offset="15%"></stop>
      <stop stop-color="#2f2e2d" offset="30%"></stop>
      <stop stop-color="#2f2e2d" offset="45%"></stop>
      <stop stop-color="#2f2e2d" offset="60%"></stop>
      <stop stop-color="#2f2e2d" offset="75%"></stop>
      <stop stop-color="#2f2e2d" offset="90%"></stop>
    </radialGradient>
  </g>
  <g class="vertical">
    <linearGradient id="16282281824-posters-1720553944829-vertical" gradientUnits="userSpaceOnUse" x1="0" x2="0" y1="0"
      y2="100%">
      <stop itemprop="vertical" stop-color="#7d7c78" offset="0%"></stop>
      <stop itemprop="vertical" stop-color="#878582" offset="15%"></stop>
      <stop itemprop="vertical" stop-color="#858380" offset="30%"></stop>
      <stop itemprop="vertical" stop-color="#878682" offset="45%"></stop>
      <stop itemprop="vertical" stop-color="#858380" offset="60%"></stop>
      <stop itemprop="vertical" stop-color="#858480" offset="75%"></stop>
      <stop itemprop="vertical" stop-color="#82807d" offset="90%"></stop>
    </linearGradient>
    <linearGradient id="16282281824-posters-1720553944829-vertical-background" gradientUnits="userSpaceOnUse" x1="0"
      x2="0" y1="0" y2="100%">
      <stop stop-color="#cdcdcb" offset="0%"></stop>
      <stop stop-color="#cdcccb" offset="15%"></stop>
      <stop stop-color="#cdcccb" offset="30%"></stop>
      <stop stop-color="#cdcdcb" offset="45%"></stop>
      <stop stop-color="#cdcccb" offset="60%"></stop>
      <stop stop-color="#cdcdcb" offset="75%"></stop>
      <stop stop-color="#cdcccb" offset="90%"></stop>
    </linearGradient>
    <linearGradient id="16282281824-posters-1720553944829-vertical-light" gradientUnits="userSpaceOnUse" x1="0" x2="0"
      y1="0" y2="100%">
      <stop stop-color="#aea684" offset="0%"></stop>
      <stop stop-color="#aea084" offset="15%"></stop>
      <stop stop-color="#aea084" offset="30%"></stop>
      <stop stop-color="#aea684" offset="45%"></stop>
      <stop stop-color="#aea084" offset="60%"></stop>
      <stop stop-color="#aea684" offset="75%"></stop>
      <stop stop-color="#ae9d84" offset="90%"></stop>
    </linearGradient>
    <linearGradient id="16282281824-posters-1720553944829-vertical-regular" gradientUnits="userSpaceOnUse" x1="0" x2="0"
      y1="0" y2="100%">
      <stop stop-color="#82817d" offset="0%"></stop>
      <stop stop-color="#82807d" offset="15%"></stop>
      <stop stop-color="#82807d" offset="30%"></stop>
      <stop stop-color="#82817d" offset="45%"></stop>
      <stop stop-color="#82807d" offset="60%"></stop>
      <stop stop-color="#82817d" offset="75%"></stop>
      <stop stop-color="#82807d" offset="90%"></stop>
    </linearGradient>
    <linearGradient id="16282281824-posters-1720553944829-vertical-medium" gradientUnits="userSpaceOnUse" x1="0" x2="0"
      y1="0" y2="100%">
      <stop stop-color="#51504d" offset="0%"></stop>
      <stop stop-color="#51504d" offset="15%"></stop>
      <stop stop-color="#51504d" offset="30%"></stop>
      <stop stop-color="#51504d" offset="45%"></stop>
      <stop stop-color="#51504d" offset="60%"></stop>
      <stop stop-color="#51504d" offset="75%"></stop>
      <stop stop-color="#514f4d" offset="90%"></stop>
    </linearGradient>
    <linearGradient id="16282281824-posters-1720553944829-vertical-bold" x1="0" x2="0" y1="0" y2="100%">
      <stop stop-color="#2f2e2d" offset="0%"></stop>
      <stop stop-color="#2f2e2d" offset="15%"></stop>
      <stop stop-color="#2f2e2d" offset="30%"></stop>
      <stop stop-color="#2f2e2d" offset="45%"></stop>
      <stop stop-color="#2f2e2d" offset="60%"></stop>
      <stop stop-color="#2f2e2d" offset="75%"></stop>
      <stop stop-color="#2f2e2d" offset="90%"></stop>
    </linearGradient>
  </g>
  <g class="horizontal">
    <linearGradient id="16282281824-posters-1720553944829-horizontal" x1="0" x2="100%" y1="0" y2="0"
      gradientUnits="userSpaceOnUse">
      <stop itemprop="horizontal" stop-color="#82817d" offset="0%"></stop>
      <stop itemprop="horizontal" stop-color="#858480" offset="15%"></stop>
      <stop itemprop="horizontal" stop-color="#858380" offset="30%"></stop>
      <stop itemprop="horizontal" stop-color="#878682" offset="45%"></stop>
      <stop itemprop="horizontal" stop-color="#82817d" offset="60%"></stop>
      <stop itemprop="horizontal" stop-color="#82807d" offset="75%"></stop>
      <stop itemprop="horizontal" stop-color="#82817d" offset="90%"></stop>
    </linearGradient>
    <linearGradient id="16282281824-posters-1720553944829-horizontal-background" gradientUnits="userSpaceOnUse" x1="0"
      x2="100%" y1="0" y2="0">
      <stop stop-color="#cdcdcb" offset="0%"></stop>
      <stop stop-color="#cdcdcb" offset="15%"></stop>
      <stop stop-color="#cdcccb" offset="30%"></stop>
      <stop stop-color="#cdcdcb" offset="45%"></stop>
      <stop stop-color="#cdcdcb" offset="60%"></stop>
      <stop stop-color="#cdcccb" offset="75%"></stop>
      <stop stop-color="#cdcdcb" offset="90%"></stop>
    </linearGradient>
    <linearGradient id="16282281824-posters-1720553944829-horizontal-light" gradientUnits="userSpaceOnUse" x1="0"
      x2="100%" y1="0" y2="0">
      <stop stop-color="#9b9a97" offset="0%"></stop>
      <stop stop-color="#9b9a97" offset="15%"></stop>
      <stop stop-color="#9b9a97" offset="30%"></stop>
      <stop stop-color="#9b9a97" offset="45%"></stop>
      <stop stop-color="#9b9a97" offset="60%"></stop>
      <stop stop-color="#9b9a97" offset="75%"></stop>
      <stop stop-color="#9b9a97" offset="90%"></stop>
    </linearGradient>
    <linearGradient id="16282281824-posters-1720553944829-horizontal-regular" gradientUnits="userSpaceOnUse" x1="0"
      x2="100%" y1="0" y2="0">
      <stop stop-color="#968d69" offset="0%"></stop>
      <stop stop-color="#968d69" offset="15%"></stop>
      <stop stop-color="#968769" offset="30%"></stop>
      <stop stop-color="#968d69" offset="45%"></stop>
      <stop stop-color="#968d69" offset="60%"></stop>
      <stop stop-color="#968769" offset="75%"></stop>
      <stop stop-color="#968d69" offset="90%"></stop>
    </linearGradient>
    <linearGradient id="16282281824-posters-1720553944829-horizontal-medium" gradientUnits="userSpaceOnUse" x1="0"
      x2="100%" y1="0" y2="0">
      <stop stop-color="#5d5841" offset="0%"></stop>
      <stop stop-color="#5d5841" offset="15%"></stop>
      <stop stop-color="#5d5441" offset="30%"></stop>
      <stop stop-color="#5d5841" offset="45%"></stop>
      <stop stop-color="#5d5841" offset="60%"></stop>
      <stop stop-color="#5d5441" offset="75%"></stop>
      <stop stop-color="#5d5841" offset="90%"></stop>
    </linearGradient>
    <linearGradient id="16282281824-posters-1720553944829-horizontal-bold" gradientUnits="userSpaceOnUse" x1="0"
      x2="100%" y1="0" y2="0">
      <stop stop-color="#2f2e2d" offset="0%"></stop>
      <stop stop-color="#2f2e2d" offset="15%"></stop>
      <stop stop-color="#2f2e2d" offset="30%"></stop>
      <stop stop-color="#2f2e2d" offset="45%"></stop>
      <stop stop-color="#2f2e2d" offset="60%"></stop>
      <stop stop-color="#2f2e2d" offset="75%"></stop>
      <stop stop-color="#2f2e2d" offset="90%"></stop>
    </linearGradient>
  </g>
  <g class="masks">
    <mask id="16282281824-posters-1720553944829-pattern-mask" maskUnits="userSpaceOnUse"
      maskContentUnits="userSpaceOnUse">
      <pattern id="pattern" x="0" y="0" width=".0133" height=".0144" viewBox="0 0 23.07 40">
        <path
          d="M17.62 0l-6.07 10.5m2.74 4.76L8.22 4.75m-5.48 0h12.13M.01 0h23.07M6.07 20L0 9.5m2.74-4.75l-6.07 10.5m-5.48 0H3.33m8.2 4.75L0 .02-11.54 20m40.68 0L23.07 9.5m2.74-4.75l-6.06 10.5m-5.49 0H26.4M34.6 20L23.08.02 11.53 20m-5.46 0L0 30.51m2.74 4.75l-6.07-10.5m-5.48 0H3.33m8.2-4.75L0 40l-11.54-19.98zM17.6 40l-6.06-10.5m2.74-4.76L8.2 35.25m-5.48 0h12.13M0 40h23.07L11.54 20.01m17.6 0l-6.07 10.5m2.74 4.75l-6.06-10.5m-5.49 0H26.4M11.53 20h23.08L23.07 40"
          stroke-linecap="round" stroke-width="3.5" stroke="white"
          fill="url(#16282281824-posters-1720553944829-horizontal-background)"></path>
      </pattern>
      <rect width="100%" height="100%" fill="url(#pattern)"></rect>
    </mask>
    <mask id="16282281824-posters-1720553944829-horizontal-mask" maskUnits="userSpaceOnUse"
      maskContentUnits="userSpaceOnUse">
      <rect width="100%" height="100%" fill="url(#16282281824-posters-1720553944829-horizontal-background)"></rect>
    </mask>
    <mask id="16282281824-posters-1720553944829-radial-mask" maskUnits="userSpaceOnUse"
      maskContentUnits="userSpaceOnUse">
      <rect width="100%" height="100%" fill="url(#16282281824-posters-1720553944829-radial-background)"></rect>
    </mask>
    <mask id="16282281824-posters-1720553944829-vertical-mask" maskUnits="userSpaceOnUse"
      maskContentUnits="userSpaceOnUse">
      <rect width="100%" height="100%" fill="url(#16282281824-posters-1720553944829-vertical-background)"></rect>
    </mask>
  </g>
  <use href="#16282281824-posters-1720553944829-pattern-render"></use>
  <g>
    <use href="#16282281824-posters-1720553944829-background"></use>
    <use href="#16282281824-posters-1720553944829-light"></use>
    <use href="#16282281824-posters-1720553944829-regular"></use>
    <use href="#16282281824-posters-1720553944829-medium"></use>
    <use href="#16282281824-posters-1720553944829-bold"></use>
  </g>
  <g itemprop="animation">
    <animate href="#16282281824-posters-1720553944829-light" attributeName="stroke-opacity" repeatCount="indefinite"
      dur="5s" values="0.9;0.0;0.9"></animate>
    <animate href="#16282281824-posters-1720553944829-regular" attributeName="stroke-opacity" repeatCount="indefinite"
      dur="4s" values="0.9;0;0.9"></animate>
    <animate href="#16282281824-posters-1720553944829-medium" attributeName="stroke-opacity" repeatCount="indefinite"
      dur="5s" values="0.9;0;0.9"></animate>
    <animate href="#16282281824-posters-1720553944829-bold" attributeName="stroke-opacity" repeatCount="indefinite"
      dur="3s" values="0.9;0;0.9"></animate>
    <animate href="#16282281824-posters-1720553944829-regular" attributeName="fill-opacity" repeatCount="indefinite"
      dur="8s" values="0.9;0.75;0.95;0.8;0.9;"></animate>
    <animate href="#16282281824-posters-1720553944829-radial-background" attributeName="cx" repeatCount="indefinite"
      dur="34s" values="0%;33%;100%;0%;100%;0%;"></animate>
    <animate href="#16282281824-posters-1720553944829-radial-background" attributeName="cy" repeatCount="indefinite"
      dur="55s" values="0%;100%;33%;100%;66%;0%"></animate>
    <animate href="#16282281824-posters-1720553944829-vertical-light" attributeName="x1" repeatCount="indefinite"
      dur="55s" values="0%;33%;100%;0%;133%;0%;"></animate>
    <animate href="#16282281824-posters-1720553944829-vertical-light" attributeName="y1" repeatCount="indefinite"
      dur="86s" values="0%;100%;33%;100%;66%;0%"></animate>
    <animate href="#16282281824-posters-1720553944829-horizontal-regular" attributeName="x1" repeatCount="indefinite"
      dur="34s" values="0%;100%;66%;0%;33%;133%;0%"></animate>
    <animate href="#16282281824-posters-1720553944829-horizontal-regular" attributeName="y1" repeatCount="indefinite"
      dur="55s" values="0%;66%;100%;33%;100%;66%;0%"></animate>
    <animate href="#16282281824-posters-1720553944829-vertical-medium" attributeName="x1" repeatCount="indefinite"
      dur="34s" values="0%;100%;66%;0%;33%;133%;0%"></animate>
    <animate href="#16282281824-posters-1720553944829-vertical-medium" attributeName="y1" repeatCount="indefinite"
      dur="55s" values="0%;66%;100%;33%;100%;66%;0%"></animate>
    <animate href="#16282281824-posters-1720553944829-vertical-bold" attributeName="x1" repeatCount="indefinite"
      dur="34s" values="0%;100%;66%;0%;33%;133%;0%"></animate>
    <animate href="#16282281824-posters-1720553944829-vertical-bold" attributeName="y1" repeatCount="indefinite"
      dur="55s" values="0%;66%;100%;33%;100%;66%;0%"></animate>
  </g>
</svg>
